<svg xmlns="http://www.w3.org/2000/svg" width="56" height="56" viewBox="0 0 28 28">
  <circle cx="14" cy="14" r="14" fill="#00589c"/>
  <path id="rect3687" fill="#fff" d="M10.955 6.786a4.191 4.191 0 00-4.187 4.187v6.055a4.191 4.191 0 004.187 4.186h6.09a4.191 4.191 0 004.187-4.186v-6.055a4.191 4.191 0 00-4.187-4.187zm0 1.24h6.09a2.928 2.928 0 012.948 2.947v6.055a2.927 2.927 0 01-2.948 2.946h-6.09a2.925 2.925 0 01-2.946-2.946v-6.055a2.926 2.926 0 012.946-2.947zm6.927 1.241a.867.867 0 10.867.867.868.868 0 00-.867-.867zM14 10.285A3.715 3.715 0 1017.716 14 3.725 3.725 0 0014 10.285zm0 1.24A2.475 2.475 0 1111.525 14 2.467 2.467 0 0114 11.525z"/>
</svg>