<svg xmlns="http://www.w3.org/2000/svg" width="32" height="32" viewBox="0 0 33 33">
  <path d="M12.4 28.958l-6.231 3.276a1.321 1.321 0 01-1.917-1.393l1.19-6.941L.4 18.988a1.321 1.321 0 01.733-2.253L8.1 15.722l3.115-6.312a1.321 1.321 0 012.37 0l3.115 6.312 6.967 1.013a1.321 1.321 0 01.732 2.253L19.358 23.9l1.19 6.939a1.322 1.322 0 01-1.917 1.393z"/>
  <path d="M23.435 3l2.723 1.489a.522.522 0 010 .917l-2.723 1.49-1.49 2.724a.523.523 0 01-.917 0l-1.489-2.728L16.815 5.4a.522.522 0 010-.917L19.539 3 21.028.272a.522.522 0 01.917 0z"/>
  <path d="M30.249 12.551l2.258 1.234a.433.433 0 010 .76l-2.258 1.235-1.235 2.258a.433.433 0 01-.76 0l-1.235-2.258-2.258-1.235a.433.433 0 010-.76l2.258-1.234 1.235-2.258a.433.433 0 01.76 0z"/>
</svg>
