<svg xmlns="http://www.w3.org/2000/svg" fill="none" stroke="#000" stroke-linecap="round" stroke-linejoin="round" stroke-miterlimit="20" viewBox="0 0 103 46">
<style>
/* <![CDATA[ */

#a1, #a2, #a3, #a4, #a5, #a6 {
visibility: hidden;
animation-duration: 3s;
animation-iteration-count: infinite;
animation-timing-function: steps(1);
}

/* ]]> */
</style>
<g id="a1">
  <path stroke-width="5" d="M93.493 22.892c2.404-1.817 3.964-4.691 3.964-7.937C97.457 9.457 93 5 87.502 5c-4.141 0-7.69 2.53-9.19 6.128-1.368-1.208-3.159-1.947-5.127-1.947-4.284 0-7.758 3.473-7.758 7.758 0 2.392 1.084 4.529 2.786 5.953-1.702 1.423-2.786 3.561-2.786 5.953 0 4.285 3.473 7.758 7.758 7.758 1.968 0 3.76-.739 5.127-1.947 1.5 3.598 5.049 6.128 9.19 6.128 5.498 0 9.955-4.457 9.955-9.955 0-3.246-1.56-6.12-3.964-7.937z"/>
  <path stroke-linejoin="miter" stroke-width="5" d="M5 22.943h63.002"/>
  <g stroke-linecap="butt" stroke-linejoin="miter" stroke-width="4">
  <path d="M13.075 26.385h14.293"/>
  <path d="M17.208 26.486v6.323h-3.794v6.007h5.691"/>
  <path d="M23.311 26.486v6.323h3.794v6.007h-5.69"/>
  </g>
</g>
<g id="a2">
  <path stroke-width="5" d="M80.111 10.257C81.934 8.256 84.56 7 87.477 7c5.499 0 9.963 4.464 9.963 9.963 0 2.216-.725 4.264-1.951 5.92 1.226 1.656 1.951 3.704 1.951 5.92 0 5.499-4.464 9.963-9.963 9.963-2.911 0-5.532-1.251-7.355-3.245-1.551 1.62-3.734 2.629-6.15 2.629-4.7 0-8.516-3.816-8.516-8.516 0-2.741 1.298-5.181 3.312-6.739-2.014-1.558-3.312-3.998-3.312-6.739 0-4.7 3.816-8.515 8.516-8.515 2.411 0 4.589 1.004 6.139 2.616z"/>
  <path stroke-linejoin="miter" stroke-width="5" d="M5 22.943h63.002"/>
  <g stroke-linecap="butt" stroke-linejoin="miter" stroke-width="4">
  <path d="M13.075 26.385h14.293"/>
  <path d="M16.208 26.486v6.323h-3.794v6.007h5.691"/>
  <path d="M24.311 26.486v6.323h3.794v6.007h-5.69"/>
  </g>
</g>
<g id="a3">
  <path stroke-width="5" d="M69.284 22.895c-2.319-1.69-3.828-4.427-3.828-7.513 0-5.127 4.163-9.29 9.29-9.29 3.258 0 6.127 1.681 7.785 4.222C83.988 9.478 85.677 9 87.477 9c5.499 0 9.963 4.464 9.963 9.963 0 1.391-.286 2.716-.802 3.92.516 1.204.802 2.529.802 3.92 0 5.499-4.464 9.963-9.963 9.963-1.795 0-3.48-.475-4.935-1.307-1.657 2.551-4.531 4.239-7.796 4.239-5.127 0-9.29-4.163-9.29-9.29 0-3.086 1.509-5.823 3.828-7.513z"/>
  <path stroke-linejoin="miter" stroke-width="5" d="M5 22.943h63.002"/>
  <g stroke-linecap="butt" stroke-linejoin="miter" stroke-width="4">
  <path d="M13.075 26.385h14.293"/>
  <path d="M15.208 26.486v6.323h-3.794v6.007h5.691"/>
  <path d="M25.311 26.486v6.323h3.794v6.007h-5.69"/>
  </g>
</g>
<g id="a4">
  <path stroke-width="5" d="M70.35 22.895c-2.947-1.937-4.894-5.274-4.894-9.061 0-5.982 4.856-10.838 10.838-10.838 5.01 0 9.231 3.407 10.47 8.029.235-.017.473-.025.713-.025 5.499 0 9.963 4.464 9.963 9.963 0 .657-.064 1.299-.185 1.92.121.622.185 1.263.185 1.92 0 5.499-4.464 9.963-9.963 9.963-.238 0-.473-.008-.707-.024-1.23 4.633-5.457 8.053-10.476 8.053-5.982 0-10.838-4.857-10.838-10.838 0-3.788 1.947-7.124 4.894-9.062z"/>
  <path stroke-linejoin="miter" stroke-width="5" d="M5 22.943h63.002"/>
  <g stroke-linecap="butt" stroke-linejoin="miter" stroke-width="4">
  <path d="M13.075 26.385h14.293"/>
  <path d="M14.208 26.486v6.323h-1.794v6.007h3.691"/>
  <path d="M26.311 26.486v6.323h1.794v6.007h-3.69"/>
  </g>
</g>
<g id="a5">
  <path stroke-width="5" d="M65.457 13.726c-.001-.036-.001-.073-.001-.109 0-6.101 4.954-11.055 11.055-11.055 5.873 0 10.682 4.59 11.034 10.375 5.467.036 9.895 4.487 9.895 9.963 0 5.476-4.428 9.927-9.896 9.963-.357 5.781-5.164 10.365-11.033 10.365-6.101 0-11.055-4.953-11.055-11.055 0-.036 0-.073.001-.108-.001-.037-.001-.072-.001-.108 0-3.788 1.947-7.124 4.894-9.062-2.947-1.937-4.894-5.274-4.894-9.061 0-.036 0-.072.001-.108z"/>
  <path stroke-linejoin="miter" stroke-width="5" d="M5 22.943h63.002"/>
  <g stroke-linecap="butt" stroke-linejoin="miter" stroke-width="4">
  <path d="M13.075 26.385h14.293"/>
  <path d="M14.311 26.486v6.323h1.794v6.007h-3.691"/>
  <path d="M26.209 26.486v6.323h-1.794v6.007h3.69"/>
  </g>
</g>
<g id="a6">
  <path stroke-width="5" d="M70.412 22.895c-2.988-2.004-4.956-5.413-4.956-9.278 0-6.162 5.003-11.165 11.165-11.165 6.163 0 11.166 5.003 11.166 11.165 0 .117-.002.234-.006.351.228-.018.458-.027.69-.027 4.949 0 8.967 4.018 8.967 8.967 0 4.949-4.018 8.967-8.967 8.967-.232 0-.462-.009-.689-.026.003.108.005.216.005.324 0 6.163-5.003 11.166-11.166 11.166-6.162 0-11.165-5.003-11.165-11.166 0-3.865 1.968-7.273 4.956-9.278z"/>
  <path stroke-linejoin="miter" stroke-width="5" d="M5,22.943l64.002,0"/>
  <g stroke-linecap="butt" stroke-linejoin="miter" stroke-width="4">
  <path d="M12.31,26.385l15.911,0"/>
  <path d="M14.311,26.486l0,6.323l2.794,0l0,6.007l-4.691,0"/>
  <path d="M26.209,26.486l0,6.323l-2.794,0l0,6.007l4.69,0"/>
  </g>
</g>
<style>
/* <![CDATA[ */

#a1 {animation-name: a1}
#a2 {animation-name: a2}
#a3 {animation-name: a3}
#a4 {animation-name: a4}
#a5 {animation-name: a5}
#a6 {animation-name: a6}

@keyframes a1 {0%, 70.83%{visibility: visible} 4.17%, 100%{visibility: hidden}}
@keyframes a2 {4.17%, 66.67%{visibility: visible} 8.33%, 70.83%{visibility: hidden}}
@keyframes a3 {8.33%, 62.50%{visibility: visible} 12.50%, 66.67%{visibility: hidden}}
@keyframes a4 {12.50%, 58.33%{visibility: visible} 16.67%, 62.50%{visibility: hidden}}
@keyframes a5 {16.67%, 54.17%{visibility: visible} 20.83%, 58.33%{visibility: hidden}}
@keyframes a6 {20.83%{visibility: visible} 54.17%{visibility: hidden}}

/* ]]> */
</style>
</svg>
