<svg width="151" height="102" fill="none" xmlns="http://www.w3.org/2000/svg"><path opacity=".15" d="M50.5 51c0 14.022-2.843 26.693-7.416 35.839C38.496 96.015 32.25 101.5 25.5 101.5S12.504 96.015 7.916 86.839C3.343 77.693.5 65.022.5 51c0-14.023 2.843-26.693 7.416-35.839C12.504 5.985 18.75.5 25.5.5s12.996 5.485 17.584 14.661C47.657 24.307 50.5 36.977 50.5 51z" stroke="#344555"/><path opacity=".3" d="M75.5 51c0 14.022-2.843 26.693-7.416 35.839C63.496 96.015 57.25 101.5 50.5 101.5s-12.996-5.485-17.584-14.661C28.343 77.693 25.5 65.022 25.5 51c0-14.023 2.843-26.693 7.416-35.839C37.504 5.985 43.75.5 50.5.5s12.996 5.485 17.584 14.661C72.657 24.307 75.5 36.977 75.5 51z" stroke="#344555"/><path opacity=".5" d="M100.5 51c0 14.022-2.843 26.693-7.416 35.839C88.496 96.015 82.25 101.5 75.5 101.5s-12.996-5.485-17.584-14.661C53.343 77.693 50.5 65.022 50.5 51c0-14.023 2.843-26.693 7.416-35.839C62.504 5.985 68.75.5 75.5.5s12.996 5.485 17.584 14.661C97.657 24.307 100.5 36.977 100.5 51z" stroke="#344555"/><path d="M150.5 51c0 14.022-2.843 26.693-7.416 35.839-4.588 9.176-10.834 14.661-17.584 14.661s-12.996-5.485-17.584-14.661C103.343 77.693 100.5 65.022 100.5 51c0-14.023 2.843-26.693 7.416-35.839C112.504 5.985 118.75.5 125.5.5s12.996 5.485 17.584 14.661C147.657 24.307 150.5 36.977 150.5 51z" stroke="#344555"/><path opacity=".75" d="M125.5 51c0 14.022-2.843 26.693-7.416 35.839-4.588 9.176-10.834 14.661-17.584 14.661s-12.996-5.485-17.584-14.661C78.343 77.693 75.5 65.022 75.5 51c0-14.023 2.843-26.693 7.416-35.839C87.504 5.985 93.75.5 100.5.5s12.996 5.485 17.584 14.661C122.657 24.307 125.5 36.977 125.5 51z" stroke="#344555"/></svg>