<svg xmlns="http://www.w3.org/2000/svg" width="290" height="68" viewBox="0 0 548 128">
  <linearGradient id="SVGID_1_" x1="423.28" x2="423.28" y1="77.585" y2="77.585" gradientTransform="matrix(1 0 0 -1 0 158)" gradientUnits="userSpaceOnUse">
    <stop offset="0" stop-color="#c9e4ba"/>
    <stop offset=".365" stop-color="#62bb46"/>
    <stop offset=".854" stop-color="#357729"/>
  </linearGradient>
  <path fill="#FFF" d="M248.24 6.88c-31.72 0-57.52 25.8-57.52 57.52s25.8 57.52 57.52 57.52 57.52-25.8 57.52-57.52-25.8-57.52-57.52-57.52z"/>
  <path d="M248.24 5c-32.75 0-59.4 26.65-59.4 59.4 0 32.76 26.65 59.4 59.4 59.4s59.4-26.65 59.4-59.4c0-32.76-26.65-59.4-59.4-59.4zm0 116.92c-31.72 0-57.52-25.8-57.52-57.52s25.8-57.52 57.52-57.52 57.52 25.8 57.52 57.52-25.8 57.52-57.52 57.52z"/>
  <path d="M33.48 58.56c-5-1.62-5.97-2.38-5.97-3.15 0-.38 0-1.54 3.45-1.54 3.13 0 7.03 1.21 9.34 2.34l1.06.52 2.99-12.85-.69-.32c-2.7-1.25-7.66-2.59-13.48-2.59-11.76 0-19.97 6.61-19.97 16.07-.05 3.74 1.65 10.57 13.56 14.35 4.84 1.54 5.07 2.09 5.07 2.93 0 .47 0 1.45-3.82 1.45-3.72 0-9.25-1.69-11.72-3.19l-1.1-.68L9 85.23l.65.34c3.9 2.01 9.68 3.21 15.48 3.21 12.98 0 21.04-5.99 21.04-15.64-.06-7.13-4.1-11.76-12.69-14.58zM25.14 86.9c-5.19 0-10.34-1-13.96-2.68l2.25-9.44c2.98 1.45 7.95 2.86 11.58 2.86 1.56 0 5.7 0 5.7-3.33 0-2.44-1.94-3.31-6.38-4.72-10.22-3.24-12.3-8.6-12.25-12.54 0-8.49 7.27-14.2 18.09-14.2 5.04 0 9.36 1.04 11.99 2.11l-2.11 9.08c-2.19-.92-5.78-2.05-9.09-2.05-4.4 0-5.33 1.86-5.33 3.42 0 2.22 2.14 3.28 7.27 4.94 7.82 2.56 11.34 6.51 11.4 12.79 0 8.62-7.16 13.76-19.16 13.76z"/>
  <path fill="none" d="M66.36 72.47c0 2.73 1.97 3.31 3.62 3.31 1.77 0 3.98-1.27 4.62-3.4.14-.51.16-1.26.16-1.99v-2.64c-5.57.17-8.4 1.76-8.4 4.72z"/>
  <path fill="#FFF" d="M78.3 85.96h12.62c-.34-2.31-.54-5.77-.54-9.77V61.31c0-12.26-6.54-18.47-19.44-18.47-8.63 0-14.47 2.25-17.09 3.53l2.3 8.35c2.88-1.42 7.32-2.85 11.82-2.85 6.75 0 8.17 2.55 8.17 4.7v1.34h-.94c-9.2.01-24.63 2.13-24.63 16.15 0 6.4 4.68 12.88 13.62 12.88 5.01 0 8.87-1.52 11.48-4.53l.28-.32h1.5l.85 3.87zm-1.65-15.57c0 .86-.03 1.76-.24 2.51-.83 2.72-3.59 4.76-6.43 4.76-3.39 0-5.5-1.99-5.5-5.19 0-3 1.95-6.59 11.23-6.62h.94v4.54z"/>
  <path d="M92.96 86.71c-.44-2.05-.69-5.99-.69-10.52V61.31c0-9.28-3.7-20.35-21.32-20.35-9.88 0-16.33 2.86-18.64 4.09l-.67.35 3.34 12.11 1.05-.6c2.76-1.57 7.52-3.16 11.95-3.16 2.64 0 5.74.41 6.22 2.29-16.22.28-25.5 6.82-25.5 18.02 0 8.42 6.66 14.76 15.5 14.76 4.99 0 8.98-1.39 11.9-4.14l.69 3.16H93.2l-.24-1.13zm-17.29-4.29c-2.61 3-6.47 4.53-11.48 4.53-8.94 0-13.62-6.48-13.62-12.88 0-14.02 15.43-16.13 24.63-16.15h.94v-1.34c0-2.14-1.42-4.7-8.17-4.7-4.49 0-8.94 1.43-11.82 2.85l-2.3-8.35c2.62-1.28 8.46-3.53 17.09-3.53 12.9 0 19.44 6.21 19.44 18.47v14.87c0 4 .19 7.47.54 9.77H78.3l-.85-3.87h-1.5l-.28.33z"/>
  <path d="M64.48 72.47c0 3.2 2.11 5.19 5.5 5.19 2.84 0 5.6-2.03 6.43-4.76.21-.75.24-1.65.24-2.51v-4.54h-.94c-9.28.03-11.23 3.62-11.23 6.62zm10.29-2.08c0 .73-.02 1.48-.16 1.99-.65 2.13-2.86 3.4-4.62 3.4-1.65 0-3.62-.57-3.62-3.31 0-2.96 2.83-4.55 8.41-4.72v2.64h-.01z"/>
  <path fill="#FFF" d="M124.24 43.83l-4.21 17.95c-.73 3.23-1.28 6.23-1.89 10.34l-.12.8h-1.93l-.13-.79c-.52-3.23-1.13-6.72-2.04-10.34l-4.58-17.96H93.9l15 42.13h14.89l15.31-42.13h-14.86z"/>
  <path d="M122.75 41.95l-4.55 19.41c-.48 2.11-.86 4.05-1.17 5.84-.36-1.9-.77-3.86-1.27-5.86l-4.94-19.38H91.23l16.35 45.89h17.53l16.68-45.89h-19.04v-.01zM108.9 85.96l-15-42.13h15.45l4.58 17.96c.91 3.62 1.52 7.11 2.04 10.34l.13.79h1.93l.12-.8c.61-4.12 1.16-7.12 1.89-10.34l4.21-17.95h14.87l-15.31 42.13H108.9z"/>
  <path fill="none" d="M161.09 53.38c-3.65 0-5.27 2.99-5.79 5.32h11.03c-.21-1.79-1.15-5.32-5.24-5.32z"/>
  <path fill="#FFF" d="M161.87 42.84c-16.05 0-21.87 13.47-21.87 22.52 0 13.68 8.49 21.53 23.3 21.53 5.94 0 10.99-.8 15.41-2.43l-1.7-8.98c-3.49.98-7.13 1.44-11.34 1.44-5.62 0-11.57-1.93-12.2-6.24l-.16-1.08h27.52c.21-1.22.41-3.12.41-5.18 0-13.51-7.24-21.58-19.37-21.58zm6.4 17.74h-15.1l.1-1.03c.37-3.88 2.98-8.05 7.83-8.05 5.67 0 7.18 5.12 7.18 8.14v.94h-.01z"/>
  <path d="M161.87 40.96c-17.43 0-23.75 14.59-23.75 24.4 0 14.66 9.41 23.41 25.18 23.41 6.51 0 12.01-.93 16.83-2.84l.72-.29-2.38-12.58-1.01.31c-3.62 1.13-7.36 1.66-11.79 1.66-4.82 0-8.71-1.44-9.95-3.56h26.61l.18-.71c.3-1.22.61-3.65.61-6.35 0-11.33-5.58-23.45-21.25-23.45zm18.97 28.65h-27.52l.16 1.08c.64 4.31 6.59 6.24 12.2 6.24 4.22 0 7.85-.46 11.34-1.44l1.7 8.98c-4.42 1.63-9.48 2.43-15.41 2.43-14.81 0-23.3-7.85-23.3-21.53 0-9.05 5.82-22.52 21.87-22.52 12.13 0 19.37 8.07 19.37 21.58-.01 2.05-.2 3.96-.41 5.18z"/>
  <path d="M161.09 51.5c-4.85 0-7.45 4.17-7.83 8.05l-.1 1.03h15.1v-.94c.01-3.03-1.5-8.14-7.17-8.14zm-5.79 7.2c.52-2.33 2.14-5.32 5.79-5.32 4.09 0 5.02 3.54 5.24 5.32H155.3z"/>
  <g>
    <path fill="#FFF" d="M326.08 27.63c-3.98 3.63-5.4 9.5-5.4 13.78v2.42H315v9.93h5.68v32.21h14.27V53.76h7.9v-9.93h-8.03v-3.11c0-3.95 2.58-6.6 6.42-6.6 1.13 0 2.19.09 3.2.26l.29-10.44c-2.02-.41-4.09-.6-6.46-.6-2.83 0-8.16.56-12.19 4.29z"/>
    <path d="M345.9 22.27c-2.4-.55-4.82-.81-7.63-.81-3.1 0-8.96.62-13.45 4.78-4.43 4.03-6.01 10.48-6.01 15.17v.54h-5.68v13.69h5.68v32.21h18.03V55.64h7.9V41.95h-8.03v-1.23c0-2.28 1.19-4.72 4.54-4.72 1.4 0 2.68.15 3.88.44l1.13.28.39-14.28-.75-.17zm-1.46 12.11a19.2 19.2 0 00-3.2-.26c-3.84 0-6.42 2.65-6.42 6.6v3.11h8.03v9.93h-7.9v32.21h-14.27V53.76H315v-9.93h5.68v-2.42c0-4.28 1.42-10.15 5.4-13.78 4.03-3.73 9.36-4.29 12.18-4.29 2.37 0 4.44.19 6.46.6l-.28 10.44z"/>
  </g>
  <g>
    <path fill="none" d="M371.13 75.56c3.7 0 5.86-4 5.86-10.69 0-5.15-1.53-10.65-5.81-10.65-5.73 0-6.17 8.15-6.17 10.65-.01 3.22.59 10.69 6.12 10.69z"/>
    <path fill="#FFF" d="M371.73 42.84c-14.14 0-23.28 8.78-23.28 22.36 0 13 9.02 21.74 22.45 21.74h.09c10.48 0 22.72-5.89 22.72-22.5.01-12.92-8.83-21.6-21.98-21.6zm-.51 34.6c-5.1 0-8.09-4.7-8.09-12.57 0-7.84 3.01-12.53 8.05-12.53 4.75 0 7.69 4.8 7.69 12.53 0 7.87-2.86 12.57-7.65 12.57z"/>
    <path d="M371.73 40.96c-15.28 0-25.16 9.52-25.16 24.24 0 14.13 9.78 23.62 24.33 23.62h.09c12.25 0 24.6-7.54 24.6-24.38.01-13.82-9.81-23.48-23.86-23.48zM371 86.94h-.09c-13.43 0-22.45-8.74-22.45-21.74 0-13.59 9.14-22.36 23.28-22.36 13.15 0 21.99 8.68 21.99 21.6-.01 16.61-12.25 22.5-22.73 22.5z"/>
    <path d="M371.17 52.35c-5.04 0-8.05 4.68-8.05 12.53 0 7.87 2.99 12.57 8.09 12.57 4.79 0 7.65-4.7 7.65-12.57.01-7.73-2.94-12.53-7.69-12.53zm0 1.88c4.29 0 5.81 5.5 5.81 10.65 0 6.69-2.16 10.69-5.86 10.69-5.53 0-6.12-7.47-6.12-10.69 0-2.51.45-10.65 6.17-10.65z"/>
  </g>
  <g>
    <path fill="none" d="M422.08 75.56c3.7 0 5.86-4 5.86-10.69 0-5.15-1.53-10.65-5.81-10.65-5.73 0-6.17 8.15-6.17 10.65-.01 3.22.58 10.69 6.12 10.69z"/>
    <path fill="#FFF" d="M422.68 42.84c-14.14 0-23.28 8.78-23.28 22.36 0 13 9.02 21.74 22.46 21.74h.09c10.48 0 22.72-5.89 22.72-22.5-.01-12.92-8.84-21.6-21.99-21.6zm-.51 34.6c-5.11 0-8.1-4.7-8.1-12.57 0-7.84 3.01-12.53 8.05-12.53 4.74 0 7.69 4.8 7.69 12.53 0 7.87-2.86 12.57-7.64 12.57z"/>
    <path d="M422.68 40.96c-15.29 0-25.16 9.52-25.16 24.24 0 14.13 9.78 23.62 24.34 23.62h.09c12.24 0 24.6-7.54 24.6-24.38-.01-13.82-9.82-23.48-23.87-23.48zm-.74 45.98h-.09c-13.43 0-22.46-8.74-22.46-21.74 0-13.59 9.14-22.36 23.28-22.36 13.15 0 21.98 8.68 21.98 21.6.01 16.61-12.23 22.5-22.71 22.5z"/>
    <path d="M422.12 52.35c-5.04 0-8.05 4.68-8.05 12.53 0 7.87 2.99 12.57 8.1 12.57 4.79 0 7.64-4.7 7.64-12.57 0-7.73-2.95-12.53-7.69-12.53zm0 1.88c4.28 0 5.81 5.5 5.81 10.65 0 6.69-2.15 10.69-5.86 10.69-5.53 0-6.13-7.47-6.13-10.69.01-2.51.45-10.65 6.18-10.65z"/>
  </g>
  <g>
    <path fill="none" d="M473.69 55.14c-6.39 0-6.89 7.39-6.89 9.66 0 5.84 2.55 9.33 6.82 9.33 2.67 0 4.88-1.85 5.38-4.49.2-.9.23-1.96.23-2.78V61.9c0-.62 0-1.33-.1-1.92-.45-2.4-2.31-4.84-5.44-4.84z"/>
    <path fill="#FFF" d="M483.19 85.96h12.48c-.15-2.97-.3-7.93-.3-12.97V24.32h-14.25v22.77h-1.61l-.28-.4c-1.72-2.48-5.3-3.84-10.07-3.84-4.72 0-9.16 1.85-12.51 5.21-4.1 4.12-6.25 10.04-6.21 17.13 0 12.61 7.49 21.77 17.8 21.77 2.61 0 9.04-.63 12.48-6.47l.27-.46h1.56l.64 5.93zm-2.07-19.1c0 .92-.03 2.1-.27 3.16-.67 3.51-3.64 5.99-7.22 5.99-5.29 0-8.7-4.4-8.7-11.21 0-7.12 3.36-11.54 8.77-11.54 3.59 0 6.59 2.62 7.29 6.38.13.77.13 1.59.13 2.25v4.97z"/>
    <path d="M497.6 86.84c-.17-2.73-.36-8.23-.36-13.85V22.44h-18.01v21.5c-2.3-1.93-5.78-2.98-10.08-2.98-5.23 0-10.14 2.05-13.84 5.76-4.46 4.48-6.8 10.86-6.76 18.46 0 13.7 8.28 23.64 19.68 23.64 5.31 0 9.85-1.98 12.78-5.51l.49 4.53h16.16l-.06-1zm-16.89-6.37c-3.44 5.84-9.87 6.47-12.48 6.47-10.31 0-17.8-9.15-17.8-21.77-.03-7.09 2.11-13.01 6.21-17.13 3.34-3.36 7.78-5.21 12.51-5.21 4.78 0 8.35 1.37 10.07 3.84l.28.4h1.61V24.32h14.25v48.67c0 5.04.15 10 .3 12.97h-12.48l-.65-5.95h-1.56l-.26.46z"/>
    <path d="M473.69 53.26c-5.41 0-8.77 4.42-8.77 11.54 0 6.81 3.42 11.21 8.7 11.21 3.58 0 6.56-2.48 7.22-5.99.24-1.05.27-2.24.27-3.16V61.9c0-.66 0-1.49-.13-2.25-.7-3.76-3.7-6.39-7.29-6.39zm5.55 13.6c0 .82-.03 1.87-.23 2.78-.5 2.64-2.72 4.49-5.38 4.49-4.27 0-6.82-3.49-6.82-9.33 0-2.27.5-9.66 6.89-9.66 3.13 0 4.99 2.43 5.44 4.83.1.59.1 1.3.1 1.92v4.97z"/>
  </g>
  <g>
    <path fill="#FFF" d="M525.86 60.35c-5.12-1.66-7.27-2.72-7.27-4.94 0-1.56.92-3.42 5.32-3.42 3.32 0 6.9 1.13 9.09 2.05l2.12-9.08c-2.63-1.07-6.96-2.11-11.99-2.11-10.82 0-18.1 5.71-18.1 14.2-.05 3.94 2.04 9.3 12.25 12.54 4.43 1.41 6.38 2.28 6.38 4.72 0 3.33-4.14 3.33-5.7 3.33-3.63 0-8.6-1.41-11.58-2.86l-2.25 9.44c3.62 1.68 8.77 2.68 13.96 2.68 12 0 19.16-5.14 19.16-13.75-.04-6.29-3.56-10.24-11.39-12.8z"/>
    <path d="M526.45 58.56c-4.99-1.62-5.97-2.38-5.97-3.15 0-.38 0-1.54 3.44-1.54 3.13 0 7.03 1.21 9.34 2.34l1.06.52 3-12.85-.69-.32c-2.7-1.25-7.67-2.59-13.48-2.59-11.76 0-19.98 6.61-19.98 16.07-.05 3.74 1.65 10.57 13.56 14.35 4.83 1.54 5.06 2.09 5.06 2.93 0 .47 0 1.45-3.82 1.45-3.72 0-9.26-1.69-11.72-3.19l-1.11-.68-3.18 13.34.65.34c3.89 2.01 9.68 3.21 15.48 3.21 12.98 0 21.05-5.99 21.05-15.64-.06-7.14-4.1-11.77-12.69-14.59zm-8.34 28.34c-5.19 0-10.34-1-13.96-2.68l2.25-9.44c2.98 1.45 7.95 2.86 11.58 2.86 1.56 0 5.7 0 5.7-3.33 0-2.44-1.94-3.31-6.38-4.72-10.22-3.24-12.3-8.6-12.25-12.54 0-8.49 7.27-14.2 18.1-14.2 5.04 0 9.36 1.04 11.99 2.11l-2.12 9.08c-2.19-.92-5.77-2.05-9.09-2.05-4.4 0-5.32 1.86-5.32 3.42 0 2.22 2.14 3.28 7.27 4.94 7.83 2.56 11.35 6.51 11.41 12.79-.02 8.62-7.18 13.76-19.18 13.76z"/>
  </g>
  <g>
    <path fill="none" d="M221.25 75.56c3.7 0 5.86-4 5.86-10.69 0-5.15-1.53-10.65-5.81-10.65-5.72 0-6.17 8.15-6.17 10.65-.01 3.22.59 10.69 6.12 10.69z"/>
    <path fill="#62BB46" d="M221.85 42.84c-14.14 0-23.28 8.78-23.28 22.36 0 13 9.02 21.74 22.46 21.74h.09c10.48 0 22.72-5.89 22.72-22.5 0-12.92-8.84-21.6-21.99-21.6zm-.51 34.6c-5.1 0-8.1-4.7-8.1-12.57 0-7.84 3.01-12.53 8.05-12.53 4.75 0 7.7 4.8 7.7 12.53 0 7.87-2.86 12.57-7.65 12.57z"/>
    <path d="M221.85 40.96c-15.29 0-25.16 9.52-25.16 24.24 0 14.13 9.78 23.62 24.34 23.62h.09c12.25 0 24.6-7.54 24.6-24.38 0-13.82-9.82-23.48-23.87-23.48zm-.74 45.98h-.09c-13.43 0-22.46-8.74-22.46-21.74 0-13.59 9.14-22.36 23.28-22.36 13.15 0 21.98 8.68 21.98 21.6.02 16.61-12.22 22.5-22.71 22.5z"/>
    <path d="M221.29 52.35c-5.04 0-8.05 4.68-8.05 12.53 0 7.87 2.99 12.57 8.1 12.57 4.79 0 7.65-4.7 7.65-12.57 0-7.73-2.95-12.53-7.7-12.53zm0 1.88c4.29 0 5.81 5.5 5.81 10.65 0 6.69-2.16 10.69-5.86 10.69-5.53 0-6.13-7.47-6.13-10.69.01-2.51.46-10.65 6.18-10.65z"/>
    <path fill="#62BB46" d="M278.7 42.84c-7.26 0-11.11 4.34-12.43 6.2l-.28.4h-1.62l-.72-5.61h-12.1c.15 3.43.31 8.33.31 14.04v28.09h14.27V61.98c0-1.63.17-2.82.53-3.62 1.28-2.94 3.35-4.43 6.16-4.43 2.44 0 6.53 1.17 6.53 8.99v23.04h14.27V60.94c-.01-11.67-5.3-18.1-14.92-18.1z"/>
    <path d="M278.7 40.96c-6.6 0-10.7 3.22-12.81 5.56l-.58-4.57h-15.72l.04.98c.15 3.42.36 8.7.36 14.94v29.97h18.03V61.98c0-1.68.2-2.48.37-2.87.98-2.25 2.39-3.3 4.44-3.3 1.15 0 4.65 0 4.65 7.11v24.92h18.03v-26.9c-.02-12.7-6.14-19.98-16.81-19.98zm14.91 45h-14.27V62.93c0-7.82-4.09-8.99-6.53-8.99-2.81 0-4.89 1.49-6.16 4.43-.36.8-.53 1.99-.53 3.62v23.98h-14.27v-28.1c0-5.71-.17-10.61-.31-14.04h12.1l.72 5.61h1.62l.28-.4c1.32-1.86 5.17-6.2 12.43-6.2 9.62 0 14.92 6.43 14.92 18.09v25.03z"/>
  </g>
  <path fill="#FFF" d="M32.9 60.35c-5.13-1.66-7.27-2.72-7.27-4.94 0-1.56.92-3.42 5.33-3.42 3.32 0 6.9 1.13 9.09 2.05l2.11-9.08c-2.63-1.07-6.95-2.11-11.99-2.11-10.82 0-18.09 5.71-18.09 14.2-.05 3.94 2.03 9.3 12.25 12.54 4.44 1.41 6.38 2.28 6.38 4.72 0 3.33-4.14 3.33-5.7 3.33-3.63 0-8.6-1.41-11.58-2.86l-2.25 9.44c3.62 1.68 8.77 2.68 13.96 2.68 12 0 19.16-5.14 19.16-13.75-.07-6.29-3.58-10.24-11.4-12.8z"/>
</svg>
