<svg xmlns="http://www.w3.org/2000/svg" width="120" height="40" viewBox="0 0 119.7 40">
  <path fill="#a6a6a6" stroke-width="0" d="M110.1 0H7.5c-.7 0-1.3 0-2 .2A6.4 6.4 0 0 0 .2 5.5l-.2 2v25c0 .6 0 1.3.2 2A6.6 6.6 0 0 0 2 38a6.3 6.3 0 0 0 3.5 1.8l2 .2H112.2l2-.2a6.8 6.8 0 0 0 3.5-1.8 6.4 6.4 0 0 0 1.8-3.5l.2-2v-25l-.2-2c-.1-.6-.4-1.3-.7-1.9a6.5 6.5 0 0 0-4.7-3.4l-2-.2h-1.9Z"/>
  <path stroke-width="0" d="M8.4 39.1h-.9L5.7 39a5.8 5.8 0 0 1-3-1.6 5.4 5.4 0 0 1-1.7-3l-.1-2V7.7l.1-2A6 6 0 0 1 1.6 4a5.4 5.4 0 0 1 4-3l2-.1h104.6c.5 0 1.2 0 1.8.2.6 0 1.1.3 1.6.5a5.5 5.5 0 0 1 3 4l.2 2v24.9l-.2 1.9c0 .5-.3 1-.5 1.6a5.5 5.5 0 0 1-4.1 3l-1.9.1H8.4Z"/>
  <g id="_Group_">
    <g id="_Group_2">
      <g id="_Group_3" fill="#fff" stroke-width="0">
        <path id="_Path_" d="M24.8 20.3a5 5 0 0 1 2.3-4.2 5 5 0 0 0-4-2.1c-1.6-.2-3.3 1-4.1 1s-2.2-1-3.6-1a5.3 5.3 0 0 0-4.5 2.8c-2 3.3-.5 8.2 1.4 11 .9 1.3 2 2.7 3.4 2.7s1.9-.9 3.6-.9 2.1.9 3.6.9 2.4-1.4 3.3-2.7c.7-1 1.2-2 1.5-3.1-1.8-.8-3-2.5-3-4.4Z"/>
        <path id="_Path_2" d="M22 12.2c.8-1 1.2-2.2 1.1-3.5a5 5 0 0 0-3.2 1.7c-.8.9-1.2 2.1-1.1 3.3 1.3 0 2.4-.5 3.2-1.5Z"/>
      </g>
    </g>
    <path fill="#fff" stroke-width="0" d="M42.3 27.1h-4.7l-1.2 3.4h-2L39 18.1h2l4.6 12.4h-2l-1.2-3.4Zm-4.2-1.5h3.7L40 20l-2 5.5ZM55.2 26c0 2.8-1.6 4.6-3.8 4.6a3 3 0 0 1-2.9-1.6v4.5h-1.9v-12h1.8v1.4c.6-1 1.8-1.6 3-1.6 2.2 0 3.7 1.9 3.7 4.7Zm-2 0c0-1.9-.9-3-2.3-3s-2.4 1.2-2.4 3 1 3 2.4 3 2.4-1.2 2.4-3ZM65.1 26c0 2.8-1.5 4.6-3.8 4.6a3 3 0 0 1-2.8-1.6v4.5h-2v-12h1.9v1.4c.6-1 1.7-1.6 2.9-1.6 2.3 0 3.8 1.9 3.8 4.7Zm-1.9 0c0-1.9-1-3-2.4-3s-2.3 1.2-2.3 3 1 3 2.3 3 2.4-1.2 2.4-3ZM71.7 27c.1 1.3 1.3 2 3 2s2.7-.7 2.7-1.8c0-1-.7-1.6-2.3-2l-1.6-.4c-2.3-.5-3.4-1.6-3.4-3.3 0-2.2 1.9-3.6 4.5-3.6s4.5 1.4 4.5 3.6h-1.9c0-1.3-1-2-2.6-2s-2.5.7-2.5 1.8c0 1 .7 1.4 2.3 1.8l1.3.4c2.6.6 3.6 1.6 3.6 3.4 0 2.3-1.8 3.8-4.8 3.8-2.7 0-4.6-1.4-4.7-3.7h2ZM83.3 19.3v2.1h1.8V23h-1.8v5c0 .8.4 1.1 1.1 1.1h.7v1.5a6 6 0 0 1-1 0c-1.9 0-2.6-.6-2.6-2.4V23h-1.3v-1.5h1.3v-2h1.8ZM86 26c0-2.9 1.7-4.7 4.4-4.7s4.2 1.8 4.2 4.7-1.6 4.6-4.2 4.6S86 28.8 86 26Zm6.8 0c0-2-1-3.1-2.4-3.1S88 24 88 25.9s.8 3.2 2.4 3.2 2.4-1.2 2.4-3.1ZM96.2 21.4H98V23c.3-1 1.2-1.7 2.2-1.7l.6.1v1.8l-.8-.2a1.9 1.9 0 0 0-2 2.1v5.4h-1.8v-9ZM109.4 27.8c-.3 1.7-1.9 2.8-4 2.8-2.6 0-4.2-1.8-4.2-4.6s1.6-4.7 4.2-4.7 4 1.7 4 4.5v.6h-6.3v.1c-.1 1.3.8 2.5 2.1 2.6h.3a2 2 0 0 0 2.1-1.3h1.8Zm-6.3-2.7h4.5c.1-1.2-.8-2.2-2-2.3h-.2c-1.3 0-2.3 1-2.3 2.3Z"/>
  </g>
  <g id="_Group_4" fill="#fff" stroke-width="0">
    <path d="M37.8 8.7a2.6 2.6 0 0 1 2.8 3c0 1.9-1 3-2.8 3h-2.1v-6h2.1ZM36.6 14h1.1c1 0 2-.8 2-1.8v-.4a1.9 1.9 0 0 0-2-2.1h-1.1v4.3ZM41.7 12.4c-.1-1.1.7-2.2 1.9-2.3a2.1 2.1 0 0 1 2.3 2.3 2.1 2.1 0 1 1-4.2 0Zm3.3 0c0-1-.4-1.5-1.2-1.5s-1.2.6-1.2 1.5.4 1.6 1.2 1.6c.8 0 1.2-.6 1.2-1.6ZM51.6 14.7h-1l-.9-3.3-1 3.3h-.9l-1.2-4.5h.9l.8 3.4 1-3.4h.8l1 3.4.8-3.4h1l-1.3 4.5ZM53.9 10.2h.8v.7c.3-.5.8-.8 1.4-.8.8 0 1.5.5 1.6 1.4V14.7h-1V12c0-.7-.2-1-.9-1a1 1 0 0 0-1 .9V14.7h-1v-4.5ZM59 8.4h1v6.3h-1V8.4ZM61.2 12.4c0-1.1.8-2.2 2-2.3a2.1 2.1 0 0 1 2.3 2.3 2.1 2.1 0 1 1-4.3 0Zm3.3 0c0-1-.4-1.5-1.2-1.5s-1.2.6-1.2 1.5.5 1.6 1.2 1.6c.8 0 1.2-.6 1.2-1.6ZM66.4 13.4c0-.8.6-1.3 1.7-1.3h1.2v-.5c0-.5-.3-.7-1-.7-.4 0-.8.2-.9.5h-.8c0-.8.8-1.3 1.8-1.3 1.1 0 1.8.6 1.8 1.5v3.1h-.9v-.6c-.3.4-.9.7-1.4.7-.7 0-1.4-.5-1.5-1.2v-.2Zm2.9-.4v-.3h-1.1c-.6 0-1 .3-1 .7s.4.6 1 .6a1 1 0 0 0 1-1ZM71.3 12.4c0-1.4.8-2.3 2-2.3.5 0 1 .3 1.3.8V8.4h1v6.3h-.9V14c-.4.5-.9.8-1.5.8-1.1 0-1.8-1-1.8-2.4Zm1 0c0 1 .4 1.6 1.2 1.6s1.2-.6 1.2-1.6-.5-1.5-1.2-1.5-1.2.6-1.2 1.5ZM79.2 12.4c0-1.1.8-2.2 2-2.3a2.1 2.1 0 0 1 2.3 2.3 2.1 2.1 0 1 1-4.3 0Zm3.4 0c0-1-.5-1.5-1.2-1.5s-1.3.6-1.3 1.5.5 1.6 1.3 1.6c.7 0 1.2-.6 1.2-1.6ZM84.7 10.2h.8v.7h.1c.2-.5.8-.8 1.3-.8.8 0 1.5.5 1.6 1.4V14.7h-.9V12c0-.7-.3-1-1-1a1 1 0 0 0-1 .9V14.7h-1v-4.5ZM93.5 9v1.2h1v.8h-1v2.3c0 .5.2.7.7.7h.3v.7H94c-1 0-1.4-.3-1.4-1.2V11H92v-.8h.7V9.1h1ZM95.7 8.4h.9V11c.3-.5.8-.8 1.4-.8.8 0 1.5.6 1.6 1.4V14.7h-1V12c0-.7-.3-1-.9-1a1 1 0 0 0-1.1.9V14.7h-.9V8.4ZM104.8 13.5c-.3.8-1.1 1.4-2 1.3a2 2 0 0 1-2-2v-.3a2 2 0 0 1 1.7-2.4h.3c1.3 0 2 .9 2 2.3v.3h-3.2c0 .7.5 1.3 1.1 1.3h.1a1 1 0 0 0 1.1-.5h.9Zm-3.2-1.5h2.3a1 1 0 0 0-1-1.1h-.1c-.6 0-1.2.5-1.2 1.1Z"/>
  </g>
</svg>
