<svg xmlns="http://www.w3.org/2000/svg" viewBox="0 0 684 794">
  <path fill="#FFF" d="M486.7 94.11H253.63a26.98 26.98 0 0 0-26.98 26.98v97.98a26.98 26.98 0 0 0 26.98 26.98H486.7a26.98 26.98 0 0 0 26.98-26.98v-97.98a26.98 26.98 0 0 0-26.98-26.98z"/>
  <g fill="#005398">
    <path d="M260.6 219.29h2.5v-13.97h-3.71v3.16h-3.26v-6.15h17.37v6.15h-3.26v-3.16h-3.71v13.97h2.5v3.07h-8.43v-3.07z"/>
    <path d="M275.36 212.35c0-5.87 4.26-10.38 10.35-10.38 6.05 0 10.19 4.53 10.19 10.38 0 5.87-4.26 10.38-10.34 10.38-6.06-.01-10.2-4.54-10.2-10.38zm16.98 0c0-4.17-2.83-7.18-6.69-7.18-3.89 0-6.72 2.98-6.72 7.18 0 4.17 2.83 7.18 6.72 7.18 3.86 0 6.69-2.98 6.69-7.18z"/>
    <path d="M304.73 218.07c0-1.43.85-2.37 2.1-2.37 1.34 0 2.19 1 2.19 1.98 0 .49-.09.85-.27 1.22.73.52 1.86.85 3.16.85 2.19 0 3.59-.97 3.59-2.71 0-1.64-1.67-2.43-3.68-3.13-3.71-1.34-6.33-2.53-6.33-6.24 0-3.19 2.59-5.69 6.63-5.69 3.74 0 6.63 1.92 6.63 4.32 0 1.43-.88 2.25-2.04 2.25-1.4 0-2.19-1.03-2.19-2.04 0-.49.09-.7.21-.94a5.1 5.1 0 0 0-2.65-.61c-1.98 0-3.13 1-3.13 2.46 0 1.64 1.67 2.37 3.68 3.1 3.59 1.28 6.3 2.53 6.3 6.24 0 3.8-2.95 5.96-7.06 5.96-3.95 0-7.14-2.22-7.14-4.65z"/>
    <path d="M321.28 219.29h2.28v-13.87h-2.28v-3.07h8.06c4.29 0 7.58 2.46 7.58 6.54 0 4.59-3.26 6.85-7.97 6.85-.94 0-1.52 0-1.95-.03v3.59h2.5v3.07h-8.21v-3.08zm12.08-10.41c0-2.1-1.73-3.47-4.2-3.47H327v7.24c.37.03.85.06 2.25.06 2.59 0 4.11-1.46 4.11-3.83z"/>
    <path d="M338.72 219.29h2.43v-13.87h-2.43v-3.07h8.31v3.07h-2.43v13.87h2.43v3.07h-8.31v-3.07z"/>
    <path d="M354.67 208.55v10.74h2.5v3.07h-8.12v-3.07h2.28v-13.87h-2.28v-3.07h5.2l9.86 12.57v-9.49h-2.49v-3.07h8.03v3.07h-2.19v16.98l-1.86.06-10.93-13.92z"/>
    <path d="M394.62 214.05c-.46 1.52-1 2.89-1.73 4.05l2.86 2.43-1.89 2.19-2.86-2.46a9.23 9.23 0 0 1-6.21 2.4c-4.66 0-7.15-2.25-7.15-5.39 0-2.4 1.64-4.29 3.96-5.45-1.67-1.92-1.98-3.16-1.98-4.41 0-2.25 1.95-4.78 5.48-4.78 3.35 0 5.51 1.83 5.51 4.59 0 2.56-1.77 4.08-4.2 5.2l.88.79 3.5 3.16c.46-.73.82-1.55 1.1-2.4h-1.58v-2.68h6.06v2.74h-1.75zm-5.84 4.41-3.47-3.19a47.45 47.45 0 0 1-1.89-1.73c-1.31.73-2.34 1.95-2.34 3.47 0 1.37 1.34 2.86 3.71 2.86a6.29 6.29 0 0 0 3.99-1.41zm-4.2-7.66c1.4-.67 2.65-1.7 2.65-3.56 0-1.06-.76-2.01-2.13-2.01-1.31 0-2.1 1.22-2.1 2.25 0 .73.18 1.71 1.58 3.32z"/>
    <path d="M406.22 205.41h-2.13v-3.07h8.52v3.07h-2.65l3.26 10.53 4.96-11.65H420l4.96 11.65 3.04-10.53h-2.74v-3.07h8.52v3.07h-2.13l-5.39 17.16h-1.92L419 210.25l-5.39 12.32h-1.92l-5.47-17.16z"/>
    <path d="M435.37 219.29h2.43v-13.87h-2.43v-3.07h8.31v3.07h-2.43v13.87h2.43v3.07h-8.31v-3.07z"/>
    <path d="M451.32 208.55v10.74h2.5v3.07h-8.12v-3.07h2.28v-13.87h-2.28v-3.07h5.2l9.86 12.57v-9.49h-2.49v-3.07h8.03v3.07h-2.19v16.98l-1.86.06-10.93-13.92z"/>
    <path d="M468.91 220.35c0-1.25 1-2.28 2.25-2.28a2.27 2.27 0 0 1 0 4.53c-1.25 0-2.25-1-2.25-2.25zm.15-17.98h4.2l-1.19 13.94h-1.83l-1.18-13.94z"/>
  </g>
  <g fill="#005398">
    <path d="M344.17 124.87c0 3.09-.87 5.47-2.61 7.15-1.74 1.68-4.21 2.52-7.42 2.52h-2.01v9.16h-7.14v-27.62h9.15c3.34 0 5.84.76 7.52 2.29s2.51 3.69 2.51 6.5zm-12.04 3.59h1.3c1.07 0 1.92-.31 2.56-.94.63-.63.95-1.5.95-2.61 0-1.86-.99-2.8-2.96-2.8h-1.84v6.35z"/>
    <path d="M368.78 116.09v16.63c0 3.62-.98 6.41-2.94 8.4s-4.78 2.98-8.47 2.98c-3.6 0-6.37-.96-8.3-2.89-1.93-1.93-2.9-4.7-2.9-8.31v-16.8h7.18v16.21c0 1.95.35 3.37 1.05 4.25.7.88 1.73 1.32 3.09 1.32 1.46 0 2.52-.44 3.17-1.31s.98-2.31.98-4.3V116.1h7.14z"/>
    <path d="M372.25 143.71v-27.62h7.14v21.6h10.18v6.03h-17.32z"/>
    <path d="M391.72 143.71v-27.62h7.14v21.6h10.18v6.03h-17.32z"/>
    <path d="M292.54 188.13h-7.14v-21.52h-6.45v-6.1h20.03v6.1h-6.43v21.52z"/>
    <path d="M323.33 188.13h-7.18v-11.26h-8.3v11.26h-7.18v-27.62h7.18v10.24h8.3v-10.24h7.18v27.62z"/>
    <path d="M342.66 188.13h-15.69v-27.62h15.69v5.99h-8.55v4.35h7.92v5.99h-7.92v5.21h8.55v6.08z"/>
    <path d="M352.75 188.13v-27.62h7.14v21.6h10.18v6.03h-17.32z"/>
    <path d="M387.92 188.13h-15.69v-27.62h15.69v5.99h-8.55v4.35h7.92v5.99h-7.92v5.21h8.55v6.08z"/>
    <path d="M405.31 160.51h7.99l-8.66 27.62h-8.4l-8.62-27.62h8.02l3.6 14a43.8 43.8 0 0 1 1.23 6.5c.08-.88.25-1.98.51-3.31s.48-2.36.67-3.12l3.66-14.07z"/>
    <path d="M429.77 188.13h-15.69v-27.62h15.69v5.99h-8.55v4.35h7.92v5.99h-7.92v5.21h8.55v6.08z"/>
    <path d="M439.46 178.08v10.05h-7.14v-27.62h8.66c7.18 0 10.77 2.72 10.77 8.16 0 3.2-1.49 5.67-4.48 7.43l7.7 12.04h-8.1l-5.6-10.05h-1.81zm0-5.61h1.34c2.49 0 3.74-1.15 3.74-3.46 0-1.9-1.22-2.85-3.67-2.85h-1.41v6.31z"/>
  </g>
</svg>
