<svg xmlns="http://www.w3.org/2000/svg" viewBox="0 0 684 794">
<g opacity=".4">
<g fill="#DE8E1F">
<circle cx="486.7" cy="260.54" r="6.12"/>
<circle cx="525.77" cy="232.96" r="6.12"/>
<circle cx="528.17" cy="181.68" r="6.12"/>
<circle cx="528.17" cy="130.43" r="6.12"/>
<circle cx="508.87" cy="86.06" r="6.12"/>
<circle cx="458.65" cy="79.62" r="6.12"/>
<circle cx="407.4" cy="79.62" r="6.12"/>
<circle cx="356.14" cy="79.62" r="6.12"/>
<circle cx="304.88" cy="79.62" r="6.12"/>
<circle cx="253.63" cy="79.62" r="6.12"/>
<circle cx="214.55" cy="107.19" r="6.12"/>
<circle cx="212.16" cy="158.47" r="6.12"/>
<circle cx="212.16" cy="209.73" r="6.12"/>
<circle cx="231.45" cy="254.1" r="6.12"/>
<circle cx="281.67" cy="260.54" r="6.12"/>
<circle cx="332.93" cy="260.54" r="6.12"/>
<circle cx="384.18" cy="260.54" r="6.12"/>
<circle cx="435.44" cy="260.54" r="6.12"/>
<circle cx="486.7" cy="260.54" r="6.12"/>
</g>
<g fill="#EAC98C">
<circle cx="486.7" cy="260.54" r="4.08"/>
<circle cx="525.77" cy="232.96" r="4.08"/>
<circle cx="528.17" cy="181.68" r="4.08"/>
<circle cx="528.17" cy="130.43" r="4.08"/>
<circle cx="508.87" cy="86.06" r="4.08"/>
<circle cx="458.65" cy="79.62" r="4.08"/>
<circle cx="407.4" cy="79.62" r="4.08"/>
<circle cx="356.14" cy="79.62" r="4.08"/>
<circle cx="304.88" cy="79.62" r="4.08"/>
<circle cx="253.63" cy="79.62" r="4.08"/>
<circle cx="214.55" cy="107.19" r="4.08"/>
<circle cx="212.16" cy="158.47" r="4.08"/>
<circle cx="212.16" cy="209.73" r="4.08"/>
<circle cx="231.45" cy="254.1" r="4.08"/>
<circle cx="281.67" cy="260.54" r="4.08"/>
<circle cx="332.93" cy="260.54" r="4.08"/>
<circle cx="384.18" cy="260.54" r="4.08"/>
<circle cx="435.44" cy="260.54" r="4.08"/>
<circle cx="486.7" cy="260.54" r="4.08"/>
</g>
<g fill="#F0E4BE">
<circle cx="486.7" cy="260.54" r="2.04"/>
<circle cx="525.77" cy="232.96" r="2.04"/>
<circle cx="528.17" cy="181.68" r="2.04"/>
<circle cx="528.17" cy="130.43" r="2.04"/>
<circle cx="508.87" cy="86.06" r="2.04"/>
<circle cx="458.65" cy="79.62" r="2.04"/>
<circle cx="407.4" cy="79.62" r="2.04"/>
<circle cx="356.14" cy="79.62" r="2.04"/>
<circle cx="304.88" cy="79.62" r="2.04"/>
<circle cx="253.63" cy="79.62" r="2.04"/>
<circle cx="214.55" cy="107.19" r="2.04"/>
<circle cx="212.16" cy="158.47" r="2.04"/>
<circle cx="212.16" cy="209.73" r="2.04"/>
<circle cx="231.45" cy="254.1" r="2.04"/>
<circle cx="281.67" cy="260.54" r="2.04"/>
<circle cx="332.93" cy="260.54" r="2.04"/>
<circle cx="384.18" cy="260.54" r="2.04"/>
<circle cx="435.44" cy="260.54" r="2.04"/>
<circle cx="486.7" cy="260.54" r="2.04"/>
</g>
</g>
<g>
<g fill="#DE8E1F">
<circle cx="510.84" cy="252.77" r="6.12"/>
<circle cx="528.17" cy="207.31" r="6.12"/>
<circle cx="528.17" cy="156.06" r="6.12"/>
<circle cx="524.9" cy="104.96" r="6.12"/>
<circle cx="484.28" cy="79.62" r="6.12"/>
<circle cx="433.03" cy="79.62" r="6.12"/>
<circle cx="381.77" cy="79.62" r="6.12"/>
<circle cx="330.51" cy="79.62" r="6.12"/>
<circle cx="279.25" cy="79.62" r="6.12"/>
<circle cx="229.49" cy="87.39" r="6.12"/>
<circle cx="212.16" cy="132.84" r="6.12"/>
<circle cx="212.16" cy="184.1" r="6.12"/>
<circle cx="215.42" cy="235.2" r="6.12"/>
<circle cx="256.04" cy="260.54" r="6.12"/>
<circle cx="307.3" cy="260.54" r="6.12"/>
<circle cx="358.56" cy="260.54" r="6.12"/>
<circle cx="409.81" cy="260.54" r="6.12"/>
<circle cx="461.07" cy="260.54" r="6.12"/>
</g>
<g fill="#EAC98C">
<circle cx="510.84" cy="252.77" r="4.08"/>
<circle cx="528.17" cy="207.31" r="4.08"/>
<circle cx="528.17" cy="156.06" r="4.08"/>
<circle cx="524.9" cy="104.96" r="4.08"/>
<circle cx="484.28" cy="79.62" r="4.08"/>
<circle cx="433.03" cy="79.62" r="4.08"/>
<circle cx="381.77" cy="79.62" r="4.08"/>
<circle cx="330.51" cy="79.62" r="4.08"/>
<circle cx="279.25" cy="79.62" r="4.08"/>
<circle cx="229.49" cy="87.39" r="4.08"/>
<circle cx="212.16" cy="132.84" r="4.08"/>
<circle cx="212.16" cy="184.1" r="4.08"/>
<circle cx="215.42" cy="235.2" r="4.08"/>
<circle cx="256.04" cy="260.54" r="4.08"/>
<circle cx="307.3" cy="260.54" r="4.08"/>
<circle cx="358.56" cy="260.54" r="4.08"/>
<circle cx="409.81" cy="260.54" r="4.08"/>
<circle cx="461.07" cy="260.54" r="4.08"/>
</g>
<g fill="#F0E4BE">
<circle cx="510.84" cy="252.77" r="2.04"/>
<circle cx="528.17" cy="207.31" r="2.04"/>
<circle cx="528.17" cy="156.06" r="2.04"/>
<circle cx="524.9" cy="104.96" r="2.04"/>
<circle cx="484.28" cy="79.62" r="2.04"/>
<circle cx="433.03" cy="79.62" r="2.04"/>
<circle cx="381.77" cy="79.62" r="2.04"/>
<circle cx="330.51" cy="79.62" r="2.04"/>
<circle cx="279.25" cy="79.62" r="2.04"/>
<circle cx="229.49" cy="87.39" r="2.04"/>
<circle cx="212.16" cy="132.84" r="2.04"/>
<circle cx="212.16" cy="184.1" r="2.04"/>
<circle cx="215.42" cy="235.2" r="2.04"/>
<circle cx="256.04" cy="260.54" r="2.04"/>
<circle cx="307.3" cy="260.54" r="2.04"/>
<circle cx="358.56" cy="260.54" r="2.04"/>
<circle cx="409.81" cy="260.54" r="2.04"/>
<circle cx="461.07" cy="260.54" r="2.04"/>
</g>
</g>
</svg>
