<svg xmlns="http://www.w3.org/2000/svg" id="Layer_1" viewBox="0 0 700.57 139.34">
  <path fill="#f5333f" d="M53.98 139.34S0 138.14 0 90.09V0h646.59s53.97 1.2 53.97 49.25v90.1z"/>
  <path fill="#fff" d="M610.54 22.11c6.92 0 12.29 5.37 12.29 12.06s-5.37 12.15-12.36 12.15-12.44-5.3-12.44-12.15 5.52-12.06 12.44-12.06zm-.14 2.43c-5.3 0-9.27 4.33-9.27 9.63s3.97 9.64 9.42 9.64c5.3.07 9.2-4.27 9.2-9.64s-3.9-9.63-9.27-9.63zm-1.84 15.88h-2.8V28.43c1.1-.22 2.64-.44 4.63-.44 2.28 0 3.32.37 4.19.95a3.3 3.3 0 0 1 1.18 2.58c0 1.4-1.03 2.42-2.51 2.87v.15c1.18.37 1.83 1.33 2.21 2.95.37 1.83.58 2.57.88 2.94h-3.02c-.36-.44-.6-1.46-.96-2.87-.22-1.33-.96-1.91-2.5-1.91h-1.33v4.78Zm.08-6.76h1.32c1.55 0 2.79-.52 2.79-1.76 0-1.11-.8-1.84-2.57-1.84q-1.1.02-1.54.14zm-486.43 73.87c-9.95 0-17.83-1.82-22.4-4.28l4.45-11.77c2.81 1.6 8.72 3.42 14.32 3.42 7.57 0 12.66-3.84 12.66-9.62 0-13.7-29.66-9.1-29.66-31.46 0-12.52 10.68-22.9 27.18-22.9 9.01 0 15.86 2.13 19.69 4.28l-4.15 10.49a28 28 0 0 0-12.97-3.33c-7.05 0-11.71 3.75-11.71 9.32 0 13.81 31.01 8.13 31.01 32.42 0 13.27-11.73 23.44-28.42 23.44Zm63.17 0c-18.36 0-26.97-6.85-26.97-20.44V48.35h17.52v39.7c0 4.71 2.91 8.57 9.86 8.57 3.84 0 6.94-.65 8.91-1.51V48.35h17.53v54.89c-5.49 2.47-14.83 4.28-26.86 4.28Zm66.27 0c-20.13 0-31.94-10.17-31.94-29.87 0-18.61 11.92-30.49 29.03-30.49 4.25 0 7.98.54 10.26 1.07V22.03h17.43v81.22c-5.92 2.67-13.7 4.28-24.79 4.28Zm7.37-50.62a27 27 0 0 0-6.12-.63c-10.78 0-15.35 8.66-15.35 20.65 0 13.16 4.36 20.33 14.51 20.33 2.91 0 5.5-.54 6.95-1.28zm54.46 50.62c-19.3 0-29.56-12.84-29.56-30.39s10.26-30.29 29.56-30.29 29.45 12.74 29.45 30.29-10.16 30.39-29.45 30.39m0-50.4c-9.03 0-11.73 9.32-11.73 19.91s2.8 19.47 11.73 19.47 11.6-8.88 11.6-19.47-2.59-19.91-11.6-19.91m62.01 50.4c-15.45 0-27.17-11.25-27.17-30.5s12.44-30.18 27.17-30.18c7.79 0 13.08 1.93 16.18 4.28l-3.62 8.99a14.4 14.4 0 0 0-8.19-2.47c-8.61 0-13.38 7.06-13.38 19.06s5.39 19.25 13.17 19.25c3.64 0 6.33-1.08 8.3-2.47l3.94 9.74c-2.8 2.25-8.09 4.28-16.39 4.28Zm54.35-49c-4.76-1.61-10.99-1.72-14.42-.22v47.72H397.9V51.14c6.43-2.67 14.72-4.28 27.27-4.28 2.8 0 6.22.22 7.99.43zm20.34 24.17c1.34 9.1 6.84 13.7 16.8 13.7 7.66 0 14.21-1.61 17.73-3.21l3.63 10.06c-4.66 2.03-12.34 4.28-23.24 4.28-20.22 0-31.73-11.78-31.73-30.5s10.88-30.18 29.45-30.18S490.5 58.2 490.5 77.66zm11.93-26.32c-7.79 0-13.7 6.09-13.17 18.51l24.99-3.31c0-10.28-4.46-15.2-11.82-15.2m109.92 49.65V65.26c0-4.49-3.1-8.35-10.06-8.35-3.73 0-6.94 1.19-9.43 3.22v45.9H535V65.15c0-4.92-3.83-8.13-10.88-8.13-3.73 0-6.43.53-8.61 1.29v47.72h-17.53V51.14c6.95-2.67 15.25-4.28 26.02-4.28s16.81 2.68 20.65 6c4.35-3.21 11.09-6 21.47-6 15.66 0 23.44 8.56 23.44 18.4v40.77z"/>
</svg>
