{
    "asset" : {
        "generator" : "Khronos glTF Blender I/O v3.3.27",
        "version" : "2.0"
    },
    "scene" : 0,
    "scenes" : [
        {
            "name" : "Scene",
            "nodes" : [
                0
            ]
        }
    ],
    "nodes" : [
        {
            "mesh" : 0,
            "name" : "arrow",
            "rotation" : [
                0,
                0,
                -0.7071068286895752,
                0.7071068286895752
            ],
            "translation" : [
                0.05403994768857956,
                0,
                0
            ]
        }
    ],
    "materials" : [
        {
            "doubleSided" : true,
            "name" : "arrow",
            "pbrMetallicRoughness" : {
                "baseColorFactor" : [
                    0.8879231214523315,
                    0.18447498977184296,
                    0.012983032502233982,
                    1
                ],
                "metallicFactor" : 0,
                "roughnessFactor" : 0.4000000059604645
            }
        }
    ],
    "meshes" : [
        {
            "name" : "arrow",
            "primitives" : [
                {
                    "attributes" : {
                        "POSITION" : 0,
                        "NORMAL" : 1,
                        "TEXCOORD_0" : 2
                    },
                    "indices" : 3,
                    "material" : 0
                }
            ]
        }
    ],
    "accessors" : [
        {
            "bufferView" : 0,
            "componentType" : 5126,
            "count" : 229,
            "max" : [
                0.03794054687023163,
                -1.30385160446167e-08,
                0.03794054314494133
            ],
            "min" : [
                -0.03794053941965103,
                -0.11176218092441559,
                -0.03794054314494133
            ],
            "type" : "VEC3"
        },
        {
            "bufferView" : 1,
            "componentType" : 5126,
            "count" : 229,
            "type" : "VEC3"
        },
        {
            "bufferView" : 2,
            "componentType" : 5126,
            "count" : 229,
            "type" : "VEC2"
        },
        {
            "bufferView" : 3,
            "componentType" : 5123,
            "count" : 570,
            "type" : "SCALAR"
        }
    ],
    "bufferViews" : [
        {
            "buffer" : 0,
            "byteLength" : 2748,
            "byteOffset" : 0,
            "target" : 34962
        },
        {
            "buffer" : 0,
            "byteLength" : 2748,
            "byteOffset" : 2748,
            "target" : 34962
        },
        {
            "buffer" : 0,
            "byteLength" : 1832,
            "byteOffset" : 5496,
            "target" : 34962
        },
        {
            "buffer" : 0,
            "byteLength" : 1140,
            "byteOffset" : 7328,
            "target" : 34963
        }
    ],
    "buffers" : [
        {
            "byteLength" : 8468,
            "uri" : "data:application/octet-stream;base64,"
        }
    ]
}
