<svg xmlns="http://www.w3.org/2000/svg" width="220" height="212" viewBox="0 0 220 212">
  <path fill="#fff" d="M3.98 208.02V39.57A35.64 35.64 0 0 1 39.59 3.98H180.4a35.64 35.64 0 0 1 35.61 35.59v168.45z"/>
  <path fill="#23b4e9" d="M180.41 7.96a31.65 31.65 0 0 1 31.63 31.6v164.47H7.97V39.57A31.65 31.65 0 0 1 39.6 7.97zm0-7.97H39.59A39.6 39.6 0 0 0 0 39.57V212h220V39.57A39.6 39.6 0 0 0 180.41 0"/>
  <path fill="#005080" d="M180.41 13.27a26.33 26.33 0 0 1 26.31 26.3v159.17H13.28V39.57c0-14.5 11.8-26.3 26.31-26.3zm.01-5.31H39.59a31.65 31.65 0 0 0-31.63 31.6v164.47h204.07V39.57a31.65 31.65 0 0 0-31.63-31.6Z"/>
</svg>