<svg xmlns="http://www.w3.org/2000/svg" width="23" height="23" viewBox="0 0 23 23">
  <path d="M21 23H2a2 2 0 0 1-2-2V2C0 .9.9 0 2 0h19a2 2 0 0 1 2 2v19a2 2 0 0 1-2 2z"/>
  <path fill="#fff" d="M11.5 7.33a4.18 4.18 0 0 0-.01 8.35 4.18 4.18 0 0 0 .01-8.35zm0 6.89a2.73 2.73 0 0 1 0-5.43 2.73 2.73 0 0 1 0 5.43zm5.32-7.06a.97.97 0 1 1-.97-.97c.54 0 .97.43.97.97zm2.77.98a4.84 4.84 0 0 0-1.32-3.42 4.9 4.9 0 0 0-3.42-1.32 94.11 94.11 0 0 0-6.72 0c-1.3.06-2.46.36-3.42 1.31s-1.24 2.12-1.3 3.43a94.11 94.11 0 0 0 0 6.72c.06 1.3.36 2.46 1.32 3.42a4.9 4.9 0 0 0 3.42 1.32c1.35.08 5.37.08 6.72 0a4.84 4.84 0 0 0 3.42-1.32 4.9 4.9 0 0 0 1.32-3.42c.06-1.35.06-5.38-.02-6.72zm-1.74 8.17a2.75 2.75 0 0 1-1.55 1.55c-1.07.42-3.61.32-4.8.32s-3.73.09-4.8-.32a2.75 2.75 0 0 1-1.55-1.55c-.42-1.07-.32-3.61-.32-4.8s-.1-3.74.32-4.81c.28-.71.84-1.27 1.55-1.55 1.07-.42 3.61-.32 4.8-.32s3.73-.09 4.8.32c.71.28 1.27.84 1.55 1.55.42 1.07.32 3.61.32 4.8s.1 3.74-.32 4.81z"/>
</svg>
