<?xml version="1.0" encoding="UTF-8"?>
<svg id="Layer_1" xmlns="http://www.w3.org/2000/svg" version="1.1" viewBox="0 0 253.46 69.53">
  <!-- Generator: Adobe Illustrator 30.0.0, SVG Export Plug-In . SVG Version: 2.1.1 Build 123)  -->
  <path d="M52.78,62.27c65.69-11.91,135.83-23.71,200.68-1.88-48.64-14.88-100.46-9.63-149.79-1.14-16.54,2.95-32.99,6.42-49.37,10.19-4.81.93-6.36-6.03-1.51-7.17" fill="#005080"/>
  <polygon points="0 .32 9.17 .32 9.17 3.86 4.08 3.86 4.08 6.77 8.83 6.77 8.83 10.26 4.08 10.26 4.08 15.48 0 15.48 0 .32" fill="#cc2027"/>
  <g>
    <path d="M20.53,5.35c0-.81-.59-1.49-1.58-1.49h-1.7v3.01h1.7c.99,0,1.58-.69,1.58-1.52M17.5,9.9h-.24v5.58h-4.08V.32h6.16c3.01,0,5.27,2.14,5.27,4.91,0,1.94-1.15,3.49-2.91,4.22l3.33,6.02h-4.61l-2.93-5.58Z" fill="#cc2027"/>
    <path d="M39.23,7.88c0-2.61-1.29-4.24-3.58-4.24s-3.56,1.64-3.56,4.24,1.29,4.22,3.56,4.22,3.58-1.6,3.58-4.22M27.92,7.9C27.92,3.23,31.09,0,35.66,0s7.76,3.23,7.76,7.9-3.17,7.9-7.76,7.9-7.74-3.23-7.74-7.9" fill="#cc2027"/>
  </g>
  <polygon points="53.44 12.51 51.36 7.44 51.27 7.44 51.27 15.48 47.38 15.48 47.38 .32 52.37 .32 55.07 7.23 55.15 7.23 58.06 .32 62.79 .32 62.79 15.48 58.91 15.48 58.91 7.44 58.83 7.44 56.73 12.51 53.44 12.51" fill="#cc2027"/>
  <path d="M84.45,5.52c-.73-1.19-2.04-1.88-3.5-1.88-2.22,0-3.56,1.64-3.56,4.24s1.33,4.22,3.56,4.22c1.45,0,2.75-.71,3.5-1.86l2.67,2.4c-1.27,2-3.37,3.15-6.16,3.15-4.81,0-7.74-3.23-7.74-7.9s3.17-7.9,7.74-7.9c2.79,0,4.97,1.19,6.26,3.19l-2.77,2.32Z" fill="#cc2027"/>
  <path d="M94.93,9.4h2.49l-1.19-5.07h-.08l-1.21,5.07ZM93.58.32h5.37l4.32,15.15h-4.43l-.61-2.55h-4.14l-.61,2.55h-4.24L93.58.32Z" fill="#cc2027"/>
  <path d="M114.07,5.35c0-.81-.59-1.49-1.58-1.49h-1.7v3.01h1.7c.99,0,1.58-.69,1.58-1.52M111.04,9.9h-.24v5.58h-4.08V.32h6.16c3.01,0,5.27,2.14,5.27,4.91,0,1.94-1.15,3.49-2.91,4.22l3.33,6.02h-4.61l-2.93-5.58Z" fill="#cc2027"/>
  <polygon points="124.45 3.86 121.1 3.86 121.1 .32 131.9 .32 131.9 3.86 128.53 3.86 128.53 15.48 124.45 15.48 124.45 3.86" fill="#cc2027"/>
  <polygon points="143.42 3.86 140.07 3.86 140.07 .32 150.87 .32 150.87 3.86 147.5 3.86 147.5 15.48 143.42 15.48 143.42 3.86" fill="#cc2027"/>
  <g>
    <path d="M164.82,7.88c0-2.61-1.29-4.24-3.58-4.24s-3.56,1.64-3.56,4.24,1.29,4.22,3.56,4.22,3.58-1.6,3.58-4.22M153.5,7.9C153.5,3.23,156.67,0,161.24,0s7.76,3.23,7.76,7.9-3.17,7.9-7.76,7.9-7.74-3.23-7.74-7.9" fill="#cc2027"/>
    <path d="M179.42.32h4.08v5.78c.16.02.34.04.52.04,1.9,0,2.65-1.33,2.65-2.97,0-.89-.02-1.98-.04-2.85h4.08c.04.87.06,1.78.06,2.55,0,2.73-.95,4.81-2.89,5.94l3.88,6.67h-4.91l-3.05-5.68h-.3v5.68h-4.08V.32Z" fill="#cc2027"/>
  </g>
  <polygon points="195.34 .32 204.51 .32 204.51 3.86 199.42 3.86 199.42 6.1 204.11 6.1 204.11 9.6 199.42 9.6 199.42 11.88 204.62 11.88 204.62 15.48 195.34 15.48 195.34 .32" fill="#cc2027"/>
  <polygon points="212.29 9.84 207.28 .32 211.85 .32 214.33 5.86 214.41 5.86 216.88 .32 221.44 .32 216.39 9.84 216.39 15.48 212.29 15.48 212.29 9.84" fill="#cc2027"/>
  <path d="M228.45,5.21l2.91,1.78c1.07.65,2.36,1.9,2.36,4.2,0,2.79-2.16,4.61-5.15,4.61-3.29,0-4.87-2-5.27-4.34l3.54-1.39c.2.71.61,2.1,1.8,2.1.67,0,.95-.47.95-.91s-.14-.79-.87-1.23l-2.46-1.52c-1.01-.63-2.51-1.49-2.51-4.04C223.75,2.16,225.56,0,228.56,0c2.81,0,4.38,1.39,5.11,3.72l-3.49,1.31c-.59-1.29-1.17-1.49-1.68-1.49-.38,0-.77.26-.77.71,0,.53.38.77.73.97" fill="#cc2027"/>
  <polygon points="70.45 40.38 70.32 40.38 66.28 54.76 60.55 54.76 54.66 29.5 61.03 29.5 63.85 44.59 63.99 44.59 67.86 29.5 72.95 29.5 76.79 44.59 76.92 44.59 79.75 29.5 86.05 29.5 80.19 54.76 74.43 54.76 70.45 40.38" fill="#cc2027"/>
  <rect x="93.92" y="29.5" width="5.93" height="25.26" fill="#cc2027"/>
  <polygon points="124.43 54.76 115.37 40.14 115.24 40.14 115.24 54.76 109.55 54.76 109.55 29.5 115.61 29.5 124.56 44.12 124.7 44.12 124.7 29.5 130.36 29.5 130.36 54.76 124.43 54.76" fill="#cc2027"/>
  <path d="M164.97,47.05c0-1.38-.94-2.56-2.66-2.56h-3.57v5.12h3.6c1.68,0,2.63-1.14,2.63-2.56M158.74,39.67h3.1c1.72,0,2.63-1.15,2.63-2.56s-.91-2.53-2.59-2.53h-3.13v5.09ZM163.02,54.76h-10.2v-25.26h9.73c4.71,0,7.88,2.66,7.88,6.8,0,2.09-.98,4.34-3.4,5.39,2.83,1.18,3.94,3.77,3.94,6.2,0,3.81-3.23,6.87-7.95,6.87" fill="#cc2027"/>
  <rect x="179.55" y="29.5" width="5.93" height="25.26" fill="#cc2027"/>
  <g>
    <path d="M205.92,40.58h13.07c.1.37.17,1.08.17,2.46,0,7.11-4.58,12.26-12.22,12.26s-12.9-5.42-12.9-13.17,5.32-13.17,12.9-13.17c4.55,0,8.18,1.99,10.34,5.25l-4.01,3.33c-1.35-2.12-3.7-3.37-6.33-3.37-4.21,0-6.9,3.17-6.9,7.91s2.7,7.92,6.9,7.92c3.37,0,5.52-1.72,6.26-4.28h-7.27v-5.15Z" fill="#cc2027"/>
    <path d="M227.53,29.5h5.86v16.4h-5.86v-16.4ZM227.02,51.93c0-1.85,1.55-3.33,3.37-3.33s3.33,1.48,3.33,3.33-1.48,3.33-3.33,3.33-3.37-1.48-3.37-3.33" fill="#cc2027"/>
  </g>
</svg>