<svg xmlns="http://www.w3.org/2000/svg" xmlns:xlink="http://www.w3.org/1999/xlink" viewBox="0 0 1920 1080">

<style>
/* <![CDATA[ */

#head_1, #head_2, #head_3, #head_4, #head_5, #head_6, #head_7, #head_8, #head_9, #head_10, #head_11, #head_12, #head_13, #head_14, #head_15, #head_16, #head_17 {
  animation: float 16s ease-in-out infinite;
}

#card_1, #card_2, #card_3, #card_4, #card_5, #card_6 {
  animation: float 18s ease-in-out infinite;
}

#coin_1, #coin_2, #coin_3, #coin_4, #coin_5, #coin_6, #coin_7, #coin_8, #coin_9, #coin_10, #coin_11 {
  animation: float 14s ease-in-out infinite;
}

#head_1:hover, #head_2:hover, #head_3:hover, #head_4:hover, #head_5:hover, #head_6:hover, #head_7:hover, #head_8:hover, #head_9:hover, #head_10:hover, #head_11:hover, #head_12:hover, #head_13:hover, #head_14:hover, #head_15:hover, #head_16:hover, #head_17:hover,
#card_1:hover, #card_2:hover, #card_3:hover, #card_4:hover, #card_5:hover, #card_6:hover,
#coin_1:hover, #coin_2:hover, #coin_3:hover, #coin_4:hover, #coin_5:hover, #coin_6:hover, #coin_7:hover, #coin_8:hover, #coin_9:hover, #coin_10:hover, #coin_11:hover {
  cursor: pointer;
}

#head_1:hover g, #head_2:hover g, #head_3:hover g, #head_4:hover g, #head_5:hover g, #head_6:hover g, #head_7:hover g, #head_8:hover g, #head_9:hover g, #head_10:hover g, #head_11:hover g, #head_12:hover g, #head_13:hover g, #head_14:hover g, #head_15:hover g, #head_16:hover g, #head_17:hover g,
#card_1:hover g, #card_2:hover g, #card_3:hover g, #card_4:hover g, #card_5:hover g, #card_6:hover g,
#coin_1:hover g, #coin_2:hover g, #coin_3:hover g, #coin_4:hover g, #coin_5:hover g, #coin_6:hover g, #coin_7:hover g, #coin_8:hover g, #coin_9:hover g, #coin_10:hover g, #coin_11:hover g {
  animation: float2 .5s linear infinite;
}

@keyframes float {
  0%, 100% {
    transform: translate(0px, 0px);
  }
  50% {
    transform: translate(0px, 30px);
  }
}

@keyframes float2 {
  0%, 100% {
    transform: translate(0px, 0px);
  }
  25% {
    transform: translate(10px, 0px);
  }
  50% {
    transform: translate(10px, 5px);
  }
  75% {
    transform: translate(0px, 5px);
  }
}

#head_1, #head_5, #head_6, #head_11, #head_12, #head_16,
#card_1, #card_5, #card_6,
#coin_1, #coin_2,  #coin_6, #coin_7, #coin_8, #coin_9 {
  animation-delay: -2s;
}

#head_4, #head_7, #head_8, #head_13, #head_14, #head_15, #head_17,
#card_1, #card_6,
#coin_1, #coin_6,#coin_8, #coin_9 {
  animation-delay: -5s;
}

#memevip {
  pointer-events: none;
}

/* ]]> */
</style>

<defs>
<g id="card">
<path fill="#191919" d="M71.01-44.11A8.06 8.06 0 0 0 65.82-46H-67.89A8.13 8.13 0 0 0-76-37.89v74.45a8.12 8.12 0 0 0 2.98 6.27 7 7 0 0 0 5.99 3.4H68.9c3.85 0 7-3.15 7-7v-76.66a7.03 7.03 0 0 0-4.89-6.68z"/>
<linearGradient id="card_grd1" x1="-74.68" x2="73.44" y1="-.62" y2="-.62" gradientUnits="userSpaceOnUse">
<stop offset="0" stop-color="#ffa700"/>
<stop offset="1" stop-color="#ffdf00"/>
</linearGradient>
<path fill="url(#card_grd1)" d="M-66.7 43.87H65.45a8.01 8.01 0 0 0 7.99-7.99v-73a8.01 8.01 0 0 0-7.99-7.99H-66.7a8.01 8.01 0 0 0-7.99 7.99v73a8.02 8.02 0 0 0 7.99 7.99z"/>
<path fill="#FFA700" d="M65.82-41.12H-67.53c-2.2 0-4 1.8-4 4v72.83c0 2.2 1.8 4 4 4H65.82c2.2 0 4-1.8 4-4v-72.83c0-2.2-1.8-4-4-4zm2.03 76.89a2 2 0 0 1-2 2H-67.56a2 2 0 0 1-2-2v-72.95c0-1.1.9-2 2-2H65.85a2 2 0 0 1 2 2v72.95z"/>
<linearGradient id="card_grd2" x1="-16.42" x2="14.33" y1="-23.73" y2="-5.97" gradientUnits="userSpaceOnUse">
<stop offset="0" stop-color="#ffa700"/>
<stop offset="1" stop-color="#ffdf00"/>
</linearGradient>
<circle cx="-1.05" cy="-14.85" r="17.75" fill="url(#card_grd2)" stroke="#FFA700" stroke-miterlimit="10" stroke-width="1.5"/>
<path fill="#007900" d="m-5.1-16.59-.33.03-.34.19-.21.25-.17.46.44-.2.36-.01.29.16.28.54 2.52 1.7c1.68-.68 5.25-1.9 7.02-2.22l.15-.3.45-.09.42.11.2.11-.22-.54-.27-.4-.39-.16-.48.01-.15-.21L4-18.54l1-1.9A16.97 16.97 0 0 1 8.86-24l-1.07.07-1.7.43-1.62.88-.61.5a13.05 13.05 0 0 1 2.54-5.14l-2.29.82a18.3 18.3 0 0 0-2.91 2.11c-.25-.84-.89-2.73-1.33-3.47l-.28-.32-.65.99c-.34.92-.72 2.26-.98 3.2A15.29 15.29 0 0 0-8.33-27h-.65a22.03 22.03 0 0 1 4.65 5.53l-1.63-.77c-.74-.22-2.26-.47-3.03-.45l-1.19.19c1.31.52 2.94 1.7 4.06 2.56.37.41 1.17 1.21 1.58 1.58l.44.67a10 10 0 0 0-1.53-.14l-.2.2.51.55.25.54"/>
<path fill="#FFDE00" d="m-5.8-17.57.59.61.32.71c.03.4.15 1.23.28 1.61-.45.34-1.3 1.1-1.69 1.51a46.58 46.58 0 0 0-.95 4.73l.28 1.35 1.19 2.07 1.27 1.44 1.37 1.05 1.35.47.92.1L.48-2.1l1.37-.52 1.07-.69 1-.97.71-1.17.57-1.54c.16-.78.34-2.38.31-3.17l-.31-1.49c-.11-.28-.49-1.24-.65-1.48.38-1.3 0-2.89-.04-4.2l.41-.86.4-.44-.72.02-1.08.32c-.97.57-1.9 1.64-2.76 2.34a11.9 11.9 0 0 0-1.88-.14c-.08.27-.33.77-.49 1.01l-.72.71-.39.18.16-1c-.07-.26-.21-.8-.26-1.06l-.38-.35-.29-.16-.07-.24.06-.31-.7-.36c-.28-.06-1.09-.26-1.36-.24l-.34.23.1.11z"/>
<polyline fill="#4B3D19" points="-1.01 -16.22 -1.03 -16.22 -1.07 -15.92 -1.06 -15.92 -1.01 -16.22"/>
<polyline fill="#4B3D19" points=".93 -16.25 .94 -16.24 1.08 -16.4 1.07 -16.4 .93 -16.25"/>
<polyline fill="#4B3D19" points="3.75 -18.52 3.74 -18.5 4.17 -18.66 4.17 -18.67 3.75 -18.52"/>
<polyline fill="#4B3D19" points="-2.8 -15.9 -2.8 -15.9 -2.71 -15.6 -2.72 -15.59 -2.8 -15.9"/>
<polyline fill="#4B3D19" points="1.57 -16.92 1.58 -16.91 1.72 -17.03 1.71 -17.03 1.57 -16.92"/>
<polyline fill="#4B3D19" points="-4.5 -17.92 -4.49 -17.92 -3.9 -17.68 -3.88 -17.67 -4.48 -17.88 -4.5 -17.92"/>
<path fill="#6A5422" d="m-5.56-10.52-.54.34-.21.48.6.64.47.24.56-.05c.25-.22.78-.73.87-1.06l-.3-.44-.77-.23-.68.08"/>
<polygon fill="#6A5422" points="-5.53 -7.69 -5.32 -7.43 -4.94 -7.33 -4.53 -7.34 -4.46 -7.42 -5.07 -7.66 -5.35 -7.72"/>
<path fill="#231F20" d="M-4.49-17.92c-1.46-2.06-3.84-3.44-5.94-4.59 1.68-.83 4.06-.12 5.72.64-1.2-2.01-3.01-3.68-4.6-5.23 2.51-.4 5.15 1.57 7.2 2.93 1.19-4.64 1.82-5.7 3.42-.42 1.46-1.31 3.38-2.7 5.34-2.77-.94 1.47-2.16 3.02-2.54 4.85 1.38-.88 3.33-1.94 4.93-1.55-1.71 1.55-3.89 3.07-4.87 5.39l-.42.15a13.6 13.6 0 0 1 4.67-5.31c-3.43.22-5.95 2.99-7.94 5.55.16.48.91.79 1.23 1.24l-.14.12c-3.18-2.67-6.86-6.1-11.31-5.56v.02a16.1 16.1 0 0 1 5.85 4.76l-.6-.22zm2.78-6.6c-.46 1.01 1.04 1.38 1.59 2.06.29-.67 1.1-1.21 1.2-1.9-.44-1.21-.8-2.45-1.46-3.57a10.23 10.23 0 0 0-1.33 3.41zm7.65-2.46c-2.41.73-4.84 2.43-5.86 4.7.7.53 1.31 1.42 1.99 1.85 2.24-1.61 2.13-4.63 4.03-6.58l-.01-.02-.15.05zM.38-18.45c.39-.66 1.16-1.21 1.46-1.84-2.91-2.94-6.39-5.92-10.59-6.63l.03.04c1.99 1.53 3.43 3.64 4.84 5.66a51.9 51.9 0 0 1 4.18 2.9l.08-.13z"/>
<path fill="#231F20" d="M4.58-5.79a8.84 8.84 0 0 0-.16-7.46c.6-1.73-.87-3.89.69-5.27-.75.05-1.45.32-2.06.75-.8.68-1.92 1.44-2.2 2.39-.25.07-.24-.27-.26-.44a9.15 9.15 0 0 0-1.65-.11l.04-.3c.63-.17 1.45.32 1.96-.03l.14-.16c.19-.15.35-.32.5-.51.88-.79 2.72-2.45 3.9-1.69-.1.55-.87.81-.8 1.57a.26.26 0 0 0-.03.21c.08 1.22.41 2.44.07 3.65.23.65.64 1.26.76 1.97.72 3.64-.86 8.26-4.81 9.19-3.93 1.27-7.95-3.08-8.02-6.8.38-1.71.22-3.82 1.58-5.08.43-.45 1.17-.68.86-1.41a2.62 2.62 0 0 0-.33-1.35c-.18-.36-.49-.6-.77-.87-.22-.7 1.12-.47 1.53-.39l.6.22.49.3-.17.24a2.57 2.57 0 0 0-2.12-.5c.27.24.52.48.7.79.36.59.34 1.28.45 1.95.19-.1.5-.5.66-.2-.52.65-1.46 1.09-2.02 1.78C-6.77-11.76-7-9.7-7.02-7.93c.31 1.68 1.52 3.01 2.61 4.26 2.53 2.86 7.54 1.45 8.89-1.9"/>
<path fill="#244B25" d="M4.65-16.83a.2.2 0 0 1 .03-.21c.78-.25 1.4.59 1.38 1.27-.38-.13-.96-.41-1.27.08l-.04-.24.03-.01c.31-.27.7-.24 1.08-.13-.16-.51-.64-1.04-1.21-.76zM-4.94-15.66l.03.36c-.36-.72-.83-.38-1.36-.24.02-.47.51-1.08 1.04-1.11l.12.22c-.41-.16-.71.3-.9.59.38-.13.78-.17 1.07.18z"/>
<path fill="#00B900" d="M-8.31-26.85c4.01.9 7.34 3.69 10.15 6.56-.3.64-1.07 1.18-1.46 1.84a30.5 30.5 0 0 0-8.69-8.4zM1.58-16.91c-.14.19-.31.37-.5.51-.49-1.16-1.63-2.3-2.96-1.71a18.25 18.25 0 0 0-7.55-4.41c4.34-.31 7.89 2.98 11.01 5.61zM1.57-17.19c-.3-.37-.96-.66-1.08-1.08 1.99-2.56 4.5-5.33 7.94-5.55l-.11.07a15.13 15.13 0 0 0-6.75 6.56zM1.53-20.89c-.43-.53-1.17-.96-1.47-1.5a10.1 10.1 0 0 1 5.88-4.59c-2.06 1.52-3.43 3.75-4.41 6.09zM-1.71-24.51c.31-1.18.62-2.4 1.33-3.41.57.97.93 2.05 1.29 3.11-.43.42-.8.89-1.18 1.37-.47-.38-.95-.72-1.44-1.07z"/>
<path fill="#FFA600" d="M4.5-5.65c-.3.34-.93.7-.65 1.22l-.57.62-.08-.49c-.7.7-1.44 1.33-2.26 1.88-.7.26-1.47.36-2.21.31l.98-.43C-1.7-5.71-1.86-3.45-4.4-3.67l-.66-.73a4.7 4.7 0 0 0 3.15-.56c-.4-.48-.89-.86-1.36-1.23.33-.06.66-.1.99-.13.4.23.7.97 1.12.99.82-.48 1.53-1.13 2.2-1.81.11-.12.11-.12-.02-.22-1.05-.81-2.23-1.53-2.87-2.74-1.02.6-2.22 1.35-2.47 2.6a1.21 1.21 0 0 1-.65-.32c.12-.42.36-.79.59-1.16.21-.2.45-.38.6-.63.41-.47 1.22-.72 1.53-1.14-.44-.55-1.09-1.11-1.83-1 .13-.22.25-.43.24-.7.91.01 1.62.63 2.17 1.29l.18-.35.64.14c.07.35-.46.62-.38.89.62 1.14 1.88 2.03 2.91 2.64.64-.8 1.59-1.77 1.79-2.72-.96-1-1.82-2.09-2.78-3.08-.42.05-.71.64-.85 1.03-.21-.1-.42-.18-.66-.14.09-.57.47-1.02.9-1.38a5.78 5.78 0 0 0-1.6-.87l.37-.6c.6.26 1.19.55 1.7.98.29.17.53-.27.83-.3.04.23.17.41.35.55-.14.12-.32.19-.48.28.92.96 1.7 2.03 2.66 2.94.21-.52.49-1.04.69-1.56.17.29.3.59.41.9-.21.41-.6.95-.57 1.39.42.54.65 1.21.86 1.84a9.7 9.7 0 0 1-.76 2.9M.3-2.88a9.62 9.62 0 0 0 2.64-2.19A5.75 5.75 0 0 0 1.69-6.8C.92-6.01.13-5.28-.83-4.73c.44.58.81 1.19 1.13 1.85zm3.68-6.93c-.46.91-1.32 1.74-1.79 2.55.52.49.96 1.04 1.29 1.68.47-.51 1-1.04 1.31-1.65a5.48 5.48 0 0 0-.81-2.58zM-6.54-11.59c.13-.79.32-1.6 1-2.1l.25.18c.88-.43 1.53-1.24 2.25-1.88l-.07-.08.39-.12c.04.28.05.57.02.86-.64.52-1.19 1.18-1.87 1.65-.36-.01-.83.12-.92.52-.41.24-.69.66-1.05.97z"/>
<path fill="#FFA600" d="M4.79-18.17a5.44 5.44 0 0 0-2.75 3.66c-.39-.1-.28-.53-.54-.68.26-.99.9-1.81 1.55-2.57a3.94 3.94 0 0 1 2.06-.75l-.32.34z"/>
<path fill="#214920" d="M-2.69-14.74c.03-.5.06-1.13-.34-1.51-.21-.22-.65-.33-.6-.7l.06-.21.17-.24c.52-.6 1.36-.67 2.09-.85 1.11-.24 1.96.96 2.38 1.84l-.14.16c-.59-1.61-2.28-2.44-1.96.02-.02.18-.08.46-.15.63-.23.56-2.06 2.65-1.51.86zm2.03-3.28c-.86-.16-2.13.15-2.7.89-.25.38.46.52.6.82.47.53.33 1.29.32 1.94.72-.54 1.34-1.38 1.25-2.32-.03-.51-.04-1.14.53-1.33z"/>
<path fill="#FFA600" d="M-3.23-15.62a4.27 4.27 0 0 0-1.76-1.23 3.29 3.29 0 0 0-.7-.79c.19-.04.36-.08.54-.06.5.24 1.03.49 1.51.77-.03.51.74.55.83 1.03-.14.08-.39.08-.42.28zM-6.13-5.81c.31-.22.71-.49.83-.86.18.16.39.27.62.35-.18.47-.65.8-1.04 1.09l-.41-.58z"/>
<path fill="#00B900" d="M4.65-16.83c.58-.28 1.06.24 1.2.77-.37-.12-.77-.15-1.08.13l-.03.01c-.06-.3-.11-.6-.09-.91zM-4.94-15.66c-.29-.35-.69-.31-1.08-.18.19-.3.49-.76.9-.59.11.25.18.5.18.77z"/>
<path fill="#FFA600" d="M-6.55-8.73c-.13-.17-.24-.34-.45-.42l.13-.79.38.29c-.13.29-.06.61-.06.92z"/>
<path fill="#E1AB07" d="M-.34-15.92c-.26.08-.53.17-.79.23l.07-.24c.24.01.48-.02.72.01z"/>
<path fill="#231F20" d="M-4.57-13.08c1.57.26.15 1.91-.58 2.37.64-.01 1.64.28 1.35 1.1-.34.45-.83.99-1.46.9-.03.25.06.69.28.89 1 .71 2.52.35 3.61.34-.87.65-2.16.02-3.14.24-.24.04-.47-.03-.7-.09-.14-.07-.29-.15-.35-.31.1 1.48 2.01 1.34 3.08 1.19.07.03.25.01.2.13-.8.08-1.62.29-2.4 0a1.55 1.55 0 0 1-1.11-1.39c-.43-.2-.64-.58-.76-1.02-.32-1.48 1.19-1.96 2.06-2.8l-.01-.02a.91.91 0 0 1-.98-1.01c.08-.39.56-.53.91-.52zm-.88 4.56c.09-.38-.35-.48-.58-.69l-.29-.37c-.29.74.17 1.85 1.07 1.75a1.89 1.89 0 0 1-.2-.69zm.03-.87.03.01c.04.15.01.49.23.49.17.04.74-.11.55-.33-.93-.41.21-1.09.55-.36.45-.51-.53-.48-.85-.46-.39.1-1.05-.29-1.26.17.48-.39.73.18.45.57-.05.15.17.18.27.29-.03-.14-.07-.27.03-.38zm1.44-.68c-.39-.59-1.43-.56-1.97-.15l.01.03c.66.05 1.32-.01 1.96.12zm-1.1-1.87c.01-.42.14-.75.53-.94-.6-.11-1.03.48-.53.94zm.35.19c.09-.16.24-.48-.01-.55-.21.03-.25.54.01.55zm.09 4.37c-.25-.14-.48-.31-.77-.25.08.15.51.3.77.25zm.46-5.33-.22-.03-.02.03c.07.1.16.12.24 0zM-1.5-11.49c-1.03-.56.67-1.64 1.32-1.09.94.81-.52 1.5-1.32 1.09zm.49-.06c-.18-.33-.14-.63-.01-.95-.59.07-.62.95.01.95zm.09-.28c.04.12.11.2.18.28.08.03.16-.04.25-.05-.13-.12-.24-.23-.43-.23zm.08-.56c.09-.05.21-.01.24-.14-.12-.04-.18 0-.24.14zM1.35-14.91c-.02-.13-.01-.26.15-.29.44 1.07 1.85.91 2.27 2 .03.16-.2.25-.27.1-.36-.7-1.17-.88-1.8-1.26a.88.88 0 0 1-.35-.55zM-3.23-15.62c.03-.2.28-.21.43-.29l.09.31-.39.12c-.07-.01-.12-.06-.13-.14z"/>
<path fill="#00B900" d="M-.66-18.02c-.57.19-.56.82-.53 1.32.08.95-.53 1.78-1.25 2.32.1-.91.04-1.93-.86-2.42-.51-.84 2.05-1.45 2.62-1.24l.02.02z"/>
<path fill="#FFA600" d="m-2.48-6.45-.89.07c-.2-.44-.63-.68-1.03-.89.41-.01.85.04 1.28.03.22.26.35.61.64.79zM-5.45-8.52a2 2 0 0 0 .2.7c-.9.09-1.36-1.02-1.07-1.75l.29.37c.12.26.35.49.58.68zM-4.52-7.24c-.07.24-.13.47-.12.73a1.26 1.26 0 0 1-.67-.44l.09-.38c.24.06.46.14.7.09z"/>
<path fill="#F5E9A7" d="M-5.08-11.94c-.49-.46-.07-1.05.53-.94-.4.18-.53.52-.53.94zM-4.73-11.75c-.26-.01-.23-.52-.01-.55.26.07.1.39.01.55zM-4.18-12.71c-.08.12-.17.1-.23 0l.02-.03.21.03zM-1.01-11.55c-.64-.01-.6-.88-.01-.95-.13.32-.16.63.01.95zM-.92-11.83c.19 0 .3.11.43.23-.22.13-.35-.01-.43-.23zM-.84-12.39c.06-.14.12-.18.24-.14-.03.13-.15.09-.24.14z"/>
<path fill="#4B3D19" d="M4.5-5.65"/>
<g fill="#191919">
<path d="M-38.54 10.16c-.4 2.06-2.08 8.08-2.67 10.19h-.37c-.48-1.98-2.05-8.28-2.38-10.19l-7.2.01-1.95 20.16h5.2c.09-2.68.4-8.57.74-11.19h.37l2.69 9.28h4.7l3.23-9.29h.37c.25 2.75.48 8.4.51 11.18h5.48l-1.64-20.16-7.08.01zM-12.55 15.12l.4-4.55-.34-.44-14.46.01c.11 4.07.48 16.28.02 20.16l14.21-.01.37-4.55-.34-.44c-1.88.08-6.33.24-8.16.19-.04-.7-.08-2.24-.03-2.93 1.56-.02 4.84.04 6.42.09l.37-4.55-.34-.44c-1.58.07-4.75.12-6.32.1l.06-2.84c1.89-.03 6.19.11 8.14.2zM4.67 10.12C4.27 12.18 2.59 18.2 2 20.31h-.37c-.48-1.98-2.05-8.28-2.38-10.19l-7.2.01-1.95 20.16h5.2c.09-2.68.4-8.57.74-11.19h.37l2.69 9.28h4.7l3.23-9.29h.37c.25 2.75.48 8.4.51 11.18h5.48l-1.64-20.16-7.08.01zM22.35 25.47c-.04-.7-.08-2.24-.03-2.93 1.56-.02 4.84.04 6.42.09l.37-4.55-.34-.44c-1.58.07-4.75.12-6.32.1l.06-2.84c1.91-.05 6.21.09 8.16.18l.4-4.55-.34-.44-14.46.01c.11 4.07.48 16.28.02 20.16l14.21-.01.37-4.55-.34-.44c-1.9.09-6.35.25-8.18.21z"/>
</g>
<g>
<path fill="#FFF" d="m43.96 19.81 6.71 10.43h-3.89c-.43-1.26-4.2-6.7-4.99-7.91-.73 1.12-4.7 6.79-5.1 7.92h-3.36l6.6-10.01-6.46-10h3.86c.46 1.23 3.94 6.34 4.71 7.54.76-1.18 4.29-6.32 4.7-7.54h3.43l-6.21 9.57z"/>
</g>
</g>

<g id="coin">
<linearGradient id="coin_grd1" x1="-1218.51" x2="-1151.62" y1="1557.49" y2="1557.49" gradientTransform="rotate(26.89 2664.66 3257.26)" gradientUnits="userSpaceOnUse">
<stop offset="0" stop-color="#ffa700"/>
<stop offset="1" stop-color="#ffdf00"/>
</linearGradient>
<ellipse cy=".01" fill="url(#coin_grd1)" rx="33.45" ry="33.44"/>
<path fill="#FFA700" d="M15.76-31.05a34.62 34.62 0 0 0-26.59-2.04 34.54 34.54 0 0 0-20.24 17.35 34.87 34.87 0 0 0 15.31 46.82 34.9 34.9 0 0 0 46.84-15.31 34.88 34.88 0 0 0-15.32-46.82zM28.59 14.5A32.1 32.1 0 0 1-14.5 28.59a32.07 32.07 0 0 1-14.08-43.07A31.85 31.85 0 0 1-9.96-30.44a31.85 31.85 0 0 1 24.46 1.88A32.07 32.07 0 0 1 28.59 14.5z"/>
<path fill="#231F20" d="M.28 36a36.01 36.01 0 0 1-32.39-52.27A35.79 35.79 0 0 1-11.19-34.2a35.78 35.78 0 0 1 27.48 2.11 36.04 36.04 0 0 1 15.83 48.38A35.96 35.96 0 0 1 .28 36zm-.56-69.67c-3.42.03-6.85.59-10.19 1.68a33.44 33.44 0 0 0-19.57 16.77A33.7 33.7 0 0 0 .25 33.68a33.62 33.62 0 0 0 29.78-18.43A33.7 33.7 0 0 0-.28-33.67z"/>
<path fill="#007900" d="m-7.6-3.17-.61.05-.64.35-.4.47-.33.85.83-.35h.68l.54.31.52 1.01 4.69 3.25C.85 1.54 7.58-.66 10.91-1.2l.28-.55.85-.16.78.21.38.21-.4-1.01-.5-.76-.73-.31h-.89l-.28-.4-.88-2.61 1.93-3.53a31.9 31.9 0 0 1 7.33-6.58l-2 .09-3.21.76-3.06 1.6-1.16.92a24.57 24.57 0 0 1 4.9-9.57l-4.31 1.48c-1.69.91-4.1 2.61-5.52 3.89-.46-1.58-1.6-5.15-2.4-6.55l-.52-.62-1.25 1.84a90.75 90.75 0 0 0-1.93 5.99c-3.27-2.66-7.56-5.1-11.72-5.94h-1.2a41.46 41.46 0 0 1 8.58 10.49l-3.04-1.48a23.8 23.8 0 0 0-5.68-.92l-2.24.33c2.45 1.02 5.47 3.28 7.54 4.9.69.78 2.16 2.3 2.92 3.02l.8 1.27c-.64-.11-2.22-.35-2.87-.31l-.38.38.94 1.04.45 1.01"/>
<path fill="#FFDE00" d="m-8.89-5.02 1.09 1.15.58 1.33c.05.76.25 2.32.49 3.03-.87.64-2.48 2.04-3.23 2.8a92.76 92.76 0 0 0-1.91 8.86l.49 2.55 2.18 3.91 2.34 2.73 2.55 2 2.52.91 1.73.21 2.55-.3 2.58-.94 2.03-1.27L9 20.16l1.37-2.18 1.09-2.85c.33-1.47.7-4.45.67-5.95l-.55-2.79c-.21-.53-.88-2.34-1.18-2.79.75-2.42.08-5.42.03-7.89l.79-1.61.76-.82-1.33.03-2.04.58C6.78-5.07 5-3.08 3.36-1.81c-1-.19-2.51-.3-3.52-.3-.15.5-.64 1.44-.94 1.88-.31.33-1.02 1-1.37 1.3l-.73.33.33-1.88c-.12-.49-.36-1.51-.46-2l-.73-.67-.55-.3-.1-.45.12-.58-1.3-.7c-.52-.12-2.03-.51-2.55-.48l-.64.42.19.22z"/>
<polyline fill="#4B3D19" points=".05 -2.36 .02 -2.36 -.06 -1.81 -.04 -1.81 .05 -2.36"/>
<polyline fill="#4B3D19" points="3.71 -2.37 3.72 -2.35 3.98 -2.64 3.97 -2.65 3.71 -2.37"/>
<polyline fill="#4B3D19" points="9.05 -6.55 9.04 -6.52 9.85 -6.8 9.85 -6.82 9.05 -6.55"/>
<polyline fill="#4B3D19" points="-3.31 -1.82 -3.3 -1.82 -3.14 -1.24 -3.16 -1.23 -3.31 -1.82"/>
<polyline fill="#4B3D19" points="4.93 -3.6 4.94 -3.59 5.2 -3.8 5.19 -3.81 4.93 -3.6"/>
<polyline fill="#4B3D19" points="-6.44 -5.64 -6.43 -5.65 -5.31 -5.17 -5.29 -5.15 -6.41 -5.58 -6.44 -5.64"/>
<path fill="#6A5422" d="m-8.62 8.2-1.01.62-.41.89 1.11 1.22.87.47 1.06-.08c.47-.4 1.48-1.35 1.66-1.97l-.56-.83-1.44-.45-1.31.12"/>
<polygon fill="#6A5422" points="-8.64 13.52 -8.27 14.01 -7.56 14.21 -6.79 14.2 -6.65 14.05 -7.78 13.59 -8.31 13.48"/>
<path fill="#231F20" d="M-6.43-5.64c-2.69-3.91-7.1-6.56-11.01-8.77 3.17-1.52 7.62-.11 10.72 1.36-2.19-3.8-5.54-6.99-8.5-9.93 4.71-.68 9.62 3.08 13.44 5.69 2.36-8.67 3.56-10.64 6.43-.69 2.78-2.42 6.41-4.98 10.09-5.06-1.81 2.74-4.13 5.6-4.89 9.03 2.6-1.62 6.3-3.55 9.29-2.77-3.26 2.87-7.38 5.66-9.29 9.97l-.8.27a25.4 25.4 0 0 1 8.91-9.83c-6.45.33-11.24 5.46-15.04 10.2.29.9 1.68 1.5 2.27 2.36l-.26.21C-.96-8.69-7.78-15.22-16.15-14.33v.04A30.3 30.3 0 0 1-5.3-5.2l-1.13-.44zm5.4-12.31c-.89 1.88 1.92 2.62 2.93 3.9.57-1.25 2.1-2.24 2.3-3.53-.8-2.27-1.44-4.62-2.64-6.73-1.37 1.86-1.99 4.17-2.59 6.36zm14.42-4.42c-4.54 1.3-9.14 4.43-11.12 8.67 1.31 1.01 2.43 2.7 3.68 3.52 4.24-2.95 4.12-8.63 7.74-12.23l-.02-.03-.28.07zM2.74-6.51c.76-1.22 2.21-2.23 2.79-3.42C.14-15.53-6.3-21.2-14.17-22.64l.05.08c3.69 2.92 6.34 6.92 8.92 10.76 2.65 1.75 5.28 3.55 7.76 5.55l.18-.26z"/>
<path fill="#231F20" d="M10.26 17.35a16.61 16.61 0 0 0-.09-14.01c1.17-3.23-1.53-7.32 1.44-9.86a7.54 7.54 0 0 0-3.89 1.36C6.2-3.91 4.07-2.5 3.52-.73c-.47.14-.44-.51-.48-.83-.96-.17-2.1-.28-3.09-.25l.09-.56c1.18-.31 2.72.64 3.67 0l.27-.29c.36-.27.67-.6.95-.95 1.67-1.45 5.17-4.53 7.36-3.08-.2 1.04-1.65 1.5-1.54 2.93a.44.44 0 0 0-.05.4c.12 2.29.71 4.58.04 6.86.42 1.22 1.17 2.38 1.38 3.71 1.26 6.85-1.84 15.48-9.27 17.12-7.4 2.28-14.84-6-14.86-12.98.76-3.2.51-7.16 3.1-9.49.81-.84 2.22-1.25 1.65-2.61a5 5 0 0 0-.58-2.55c-.32-.69-.91-1.14-1.43-1.65-.39-1.31 2.12-.86 2.87-.7l1.1.45.9.58-.33.45a4.8 4.8 0 0 0-3.96-.99c.5.46.97.92 1.29 1.5.67 1.13.6 2.41.8 3.66.36-.18.95-.92 1.23-.36-.98 1.2-2.78 2-3.84 3.29-1.65 2.9-2.14 6.77-2.23 10.1.53 3.16 2.77 5.7 4.79 8.06 4.67 5.44 14.11 2.92 16.74-3.32"/>
<path fill="#244B25" d="M10.69-3.35a.44.44 0 0 1 .05-.4c1.47-.46 2.61 1.15 2.56 2.42-.71-.25-1.78-.8-2.39.12l-.07-.45.05-.02c.59-.5 1.33-.44 2.02-.21-.24-.98-1.13-1.98-2.22-1.46zM-7.33-1.41c.03.23.04.43.05.67-.65-1.36-1.55-.73-2.55-.49.04-.88.98-2.01 1.97-2.06l.22.42c-.76-.31-1.34.54-1.7 1.09.72-.24 1.49-.3 2.01.37z"/>
<path fill="#00B900" d="M-13.34-22.51C-5.85-20.71.33-15.39 5.53-9.92 4.94-8.74 3.5-7.73 2.74-6.51c-4.14-6.39-9.8-11.73-16.08-16zM4.93-3.6a4.8 4.8 0 0 1-.95.96C3.08-4.83.98-7-1.54-5.93a34.16 34.16 0 0 0-14.05-8.47C-7.42-14.87-.84-8.6 4.93-3.6zM4.92-4.11c-.56-.7-1.79-1.27-2-2.06 3.79-4.75 8.59-9.88 15.04-10.21l-.2.12A28.54 28.54 0 0 0 4.92-4.11zM4.95-11.06c-.79-1-2.16-1.83-2.72-2.86a18.88 18.88 0 0 1 11.15-8.45c-3.9 2.8-6.53 6.95-8.43 11.31zM-1.03-17.95c.61-2.2 1.22-4.49 2.58-6.36 1.04 1.84 1.69 3.87 2.34 5.87-.81.78-1.53 1.65-2.24 2.53-.89-.7-1.78-1.36-2.68-2.04z"/>
<path fill="#FFA600" d="M10.11 17.62c-.58.63-1.77 1.3-1.25 2.27l-1.09 1.16-.14-.93a29.29 29.29 0 0 1-4.3 3.47 9.95 9.95 0 0 1-4.16.52c.62-.25 1.24-.5 1.85-.78-2.55-5.99-2.93-1.76-7.68-2.22l-1.2-1.4a8.83 8.83 0 0 0 5.93-.96c-.75-.91-1.64-1.63-2.53-2.35.62-.1 1.24-.16 1.87-.22.75.45 1.29 1.83 2.07 1.89a20.01 20.01 0 0 0 4.18-3.33c.21-.22.2-.23-.03-.41-1.95-1.55-4.14-2.94-5.31-5.22-1.93 1.1-4.21 2.48-4.71 4.81a2.27 2.27 0 0 1-1.22-.62c.24-.79.69-1.47 1.13-2.15.4-.37.85-.69 1.13-1.17.78-.86 2.31-1.31 2.9-2.1-.81-1.04-2.02-2.1-3.42-1.92.25-.4.49-.81.47-1.3 1.7.04 3.02 1.23 4.04 2.49l.35-.65 1.2.29c.12.65-.88 1.15-.74 1.67 1.12 2.16 3.47 3.85 5.38 5.02 1.21-1.49 3.04-3.27 3.43-5.05C6.5 6.52 4.92 4.45 3.14 2.56c-.78.08-1.35 1.19-1.63 1.91A2.05 2.05 0 0 0 .28 4.2 4.4 4.4 0 0 1 2 1.63 10.98 10.98 0 0 0-.98-.06l.71-1.12C.85-.68 1.95-.11 2.88.69c.54.33 1-.5 1.56-.54.09.44.32.78.66 1.06-.26.23-.61.33-.92.51 1.7 1.82 3.13 3.85 4.92 5.59.41-.97.94-1.93 1.34-2.91.31.54.54 1.12.75 1.7-.4.76-1.16 1.77-1.1 2.59.78 1.03 1.18 2.29 1.56 3.48-.19 1.89-.74 3.7-1.5 5.43h-.01m-7.98 5.1a18 18 0 0 0 5.01-4.03 11.17 11.17 0 0 0-2.3-3.29 22.29 22.29 0 0 1-4.78 3.83 19.7 19.7 0 0 1 2.07 3.49zM9.25 9.79c-.89 1.71-2.52 3.24-3.42 4.75.96.93 1.77 1.98 2.37 3.18.89-.94 1.9-1.92 2.51-3.06a10.36 10.36 0 0 0-1.46-4.87zM-10.43 6.17c.26-1.49.65-3 1.94-3.92l.46.35c1.67-.77 2.9-2.28 4.28-3.47l-.12-.15.73-.22c.07.53.08 1.08.02 1.61-1.23.97-2.28 2.21-3.57 3.07-.67-.02-1.56.2-1.73.95-.8.43-1.33 1.21-2.01 1.78z"/>
<path fill="#FFA600" d="M10.99-5.87A10.19 10.19 0 0 0 5.74.92c-.72-.2-.52-1-1-1.3.52-1.85 1.73-3.37 2.98-4.78a7.54 7.54 0 0 1 3.89-1.36l-.62.65z"/>
<path fill="#214920" d="M-3.13.38c.07-.94.14-2.13-.6-2.83-.4-.42-1.21-.63-1.12-1.33l.12-.39.33-.45c.99-1.12 2.57-1.23 3.94-1.53C1.63-6.57 3.2-4.3 3.96-2.63l-.25.27C2.64-5.39-.5-6.99.03-2.36c-.04.35-.16.87-.3 1.19C-.73-.16-4.2 3.71-3.13.38zM.76-5.73c-1.62-.31-4 .22-5.08 1.59-.47.7.84.98 1.1 1.55.86 1.01.58 2.43.55 3.64C-1.3.05-.13-1.5-.26-3.28-.3-4.21-.32-5.4.76-5.73z"/>
<path fill="#FFA600" d="M-4.13-1.29A8.06 8.06 0 0 0-7.4-3.65a6.12 6.12 0 0 0-1.29-1.5c.35-.08.68-.14 1.02-.11.94.45 1.91.95 2.82 1.49-.06.96 1.36 1.06 1.54 1.96-.29.14-.75.14-.82.52zM-9.83 17.03c.59-.41 1.35-.9 1.59-1.59.34.3.73.51 1.15.66-.36.87-1.24 1.48-1.98 2.02l-.76-1.09z"/>
<path fill="#00B900" d="M10.69-3.35c1.09-.51 1.98.49 2.23 1.47-.7-.23-1.43-.3-2.02.21l-.05.02a7.53 7.53 0 0 1-.16-1.7zM-7.33-1.41c-.53-.67-1.29-.6-2.01-.36.36-.55.94-1.41 1.7-1.09.19.46.31.94.31 1.45z"/>
<path fill="#FFA600" d="M-10.53 11.54c-.23-.33-.45-.65-.84-.79l.27-1.49.7.55c-.24.55-.13 1.15-.13 1.73z"/>
<path fill="#E1AB07" d="M1.31-1.78c-.5.15-.99.3-1.5.42l.14-.45c.46.02.92-.03 1.36.03z"/>
<path fill="#231F20" d="M-6.7 3.44c2.94.52.22 3.59-1.15 4.43 1.19 0 3.07.57 2.51 2.11-.65.84-1.59 1.84-2.76 1.64-.07.47.08 1.3.49 1.68 1.86 1.35 4.72.72 6.76.73-1.65 1.19-4.05-.02-5.9.37-.45.08-.87-.08-1.3-.19-.27-.14-.53-.29-.65-.6.15 2.78 3.73 2.57 5.75 2.32.13.05.46.02.38.24-1.5.14-3.05.51-4.5-.07a2.92 2.92 0 0 1-2.04-2.64c-.8-.39-1.19-1.1-1.4-1.93-.57-2.78 2.29-3.65 3.94-5.2l-.02-.04a1.71 1.71 0 0 1-1.85-1.9c.18-.74 1.07-.98 1.74-.95zm-1.77 8.53c.17-.71-.65-.91-1.07-1.31l-.53-.7c-.57 1.37.27 3.47 1.96 3.32a3.72 3.72 0 0 1-.36-1.31zm.07-1.64.05.01c.07.29 0 .92.41.92.33.09 1.41-.18 1.05-.59-1.73-.8.42-2.04 1.04-.65.85-.94-.99-.91-1.58-.89-.73.17-1.96-.57-2.37.28.91-.72 1.36.36.83 1.09-.09.28.31.35.49.55-.03-.28-.1-.52.08-.72zm2.73-1.23c-.73-1.11-2.68-1.09-3.69-.34l.02.05c1.23.11 2.46.03 3.67.29zM-7.7 5.55c.03-.79.28-1.41 1.02-1.75-1.11-.21-1.94.88-1.02 1.75zm.67.37c.17-.29.47-.89 0-1.03-.41.05-.49 1.01 0 1.03zm.04 8.21c-.46-.27-.89-.6-1.44-.49.15.29.96.57 1.44.49zm1.01-9.98-.4-.05-.04.05c.13.17.29.22.44 0zM-.99 6.5C-2.91 5.42.31 3.44 1.52 4.48 3.27 6.03.51 7.29-.99 6.5zm.93-.09c-.32-.62-.25-1.19.01-1.78-1.12.1-1.2 1.75-.01 1.78zm.17-.53c.06.22.2.37.34.53.15.06.3-.06.46-.09-.24-.22-.45-.44-.8-.44zm.16-1.06c.17-.09.39-.02.45-.25-.22-.08-.33 0-.45.25zM4.46.17c-.04-.26-.02-.49.28-.54.8 2.02 3.44 1.76 4.21 3.82.06.3-.38.45-.5.17C7.79 2.3 6.27 1.94 5.1 1.21A1.74 1.74 0 0 1 4.46.17zM-4.13-1.29c.07-.38.53-.39.82-.53l.16.59-.73.22a.36.36 0 0 1-.25-.28z"/>
<path fill="#00B900" d="M.76-5.73C-.31-5.39-.3-4.21-.26-3.27-.13-1.49-1.31.05-2.67 1.06c.2-1.7.13-3.62-1.55-4.56C-5.16-5.08-.33-6.17.73-5.76l.03.03z"/>
<path fill="#FFA600" d="m-2.97 15.93-1.67.12c-.36-.85-1.15-1.3-1.91-1.72.77-.01 1.6.09 2.4.1.42.5.65 1.14 1.18 1.5zM-8.47 11.97c.04.45.14.89.36 1.31-1.69.15-2.53-1.94-1.96-3.32l.53.7c.21.51.65.95 1.07 1.31zM-6.76 14.4c-.13.45-.26.87-.24 1.36a2.35 2.35 0 0 1-1.25-.85l.19-.7c.43.11.85.26 1.3.19z"/>
<path fill="#F5E9A7" d="M-7.7 5.55c-.91-.87-.09-1.96 1.02-1.75-.74.34-.99.96-1.02 1.75zM-7.03 5.92c-.49-.02-.41-.98 0-1.03.47.13.17.74 0 1.03zM-5.98 4.14c-.15.23-.31.17-.44-.01l.04-.05.4.06zM-.06 6.41c-1.19-.03-1.11-1.67.01-1.78a1.93 1.93 0 0 0-.01 1.78zM.11 5.88c.35 0 .56.21.8.44-.42.23-.66-.02-.8-.44zM.27 4.82c.12-.25.23-.33.45-.25-.05.24-.27.16-.45.25z"/>
<path fill="#4B3D19" d="M10.11 17.61"/>
</g>

<clipPath id="all_clip">
  <rect width="1920" height="1080"/>
</clipPath>

<clipPath id="hc_1">
<path d="M305.6 422.9s-81.2 19.3-118.7-15.7c-20-18.7-57.8-58.6-66.9-159.3-13-21.2-23.7-63.1-10.6-91.2-29.4 22.5-63.1 28-63.1 28s9.4-51.8 81.9-77.4c2.5-13.7 13-21.9 25-21.2 8-20.7 58.7-51.3 90.6-55.6 6.8 33-40 56.2-40 56.2s43.7-3.8 63.7 15.6c33.7-8.7 65.6-12.5 75.6-3.7 10 8.7 7.5 26.8-35 55 13.8 19.3 21.9 35.6 21.9 35.6s19.4 8.7 18.1 47.5c8.8 37.5 11.9 81.2 11.9 81.2s40.6 16.2 67.5 35.6c26.8 19.4 34.3 47.5 29.3 56.3-5 8.7-31.2 18-31.2 18s-6.3 22-4.4 29.4c1.9 7.5 3.8 25.7-12.5 25.7-16.2 0-15-20.7-13.1-37.5-16.9 15-27.5 20.6-41.2 18-13.8-2.4-43.8-13-44.4-20s-4.4-20.5-4.4-20.5z"/>
</clipPath>
<clipPath id="hc_2">
<path d="M135.3 256s-10.2-33.2 2.6-48.5c-2-28.9 3.2-53.8 14.7-61.5 11.6-7.7 47.4-44.8 56.3-48.6 9-3.9 103-1.3 115.2 10.9 12.2 12.1 18 36.4 18 36.4s58.2-14.7 72.3 7.7c14 22.4-63.4 50.6-63.4 50.6s17.3 14.7 18 43.5c7 44.1 34.6 149-19.7 178.4-75.5 41-142.6 13.6-171.7-30-21.8-32.6-33.3-63.5-42.3-138.9z"/>
</clipPath>
<clipPath id="hc_3">
<path d="M376 331.6s0 38.3-39.9 50.6c-39.8 12.4-105 24-145.6-25.3s-50.7-103.6-50.7-143.4 10.9-65.2 44.2-83.3c-4.3-15.2 2.4-18.2 2.4-18.2s-.7-11 1.2-26.1c-14-2.4-43.1 12.1-54 92.8-6.7 0-20.6-29.1-21.2-53.4a166.4 166.4 0 0 0-28 71.6c-6 7.8-17 0-18.7-19.4s0-33.4 7.9-51.6c-14.6 14.6-21.3 45.5-21.9 53.4-10.3 1.2-17-20-16.3-47.3.6-27.3 19.4-101.9 93.3-97.6 53.4-23.7 60.7-12.8 69.2 19.4 8.5 1.2 10.9 7.8 10.9 7.8s12.7.7 18.2 18.8c10.3 3 24.7 6.7 29 18.2 23.7-3.6 65.6-1.2 90.5 54.6 20.6.6 39.4-.6 39.4-.6l3.6 20s-4.8 44.9-18.2 49.7c4.9 13.4 7.3 33.7 7.3 33.7s31.5 12 34.6 47c2.4 27.9-37.3 28.6-37.3 28.6z"/>
</clipPath>
<clipPath id="hc_4">
<path d="M303.4 424.1c-16.1-.4-81.2 12.6-115.5-73.1-3 11.6-5.5 16.1-5.5 16.1s-18.2-20.7-22.7-32.3c-4.6-11.6-7.6-42.3-7.6-42.3s-48.4 17.6-76.2-9.1c-27.7-26.7-19.1-70.1 4.6-96.3s61.5-37.9 93.8-34.8c2.5-20.7 5.5-26.8 15.1-34.8 9.6-8.1 58.5-52.8 72.7-42.7s19.6 7.7 31.7-1.4c12.1-9.2 19.2 2.4 21.7 7 2.5 4.5 27.8 66.6 27.8 66.6s22.2 0 42.8-7.6 24.2-21.7 32.8-18.7c8.6 3 2.5 26.8-12 43.9s-36.4 24.2-36.4 24.2 16.6 9.6 17.1 44.9c4.6 12.6 9.6 16.6 11.6 27.7 2 11.1 5.6 76.2 5 86.3s-10 40.9-16 48.4-45.3 29-84.8 28z"/>
</clipPath>
<clipPath id="hc_5">
<path d="m141.8 263-5.6-17.7s-16.8 1.2-20.6-8.1c-3.7-9.4-3.7-18 1.3-33s9.3-21.6 17.3-30 79.6-77.7 142.6-106.4C303.6 55.6 319 81 324.3 87.6c5.1 6.6 20.7 36.2 20.2 46-.5 10-6.1 23.1-19.8 43.4 11.8.9 42.9 4.2 48.5 4.7 5.6.4 6.1 10.8 1 14-5.2 3.4-32.5 13.7-32.5 13.7l5.2 9.4s17.8 9 16.4 42.4c7.5 29.6 12.7 62 13.2 88.9.5 26.8-1.4 64-27.3 81.8-25.9 17.9-90.3 22.1-118.5 11.8-28.3-10.4-56-42.4-67.8-74.4s-19.7-47.5-21.1-106.3z"/>
</clipPath>
<clipPath id="hc_6">
<path d="M146.7 297.6s-22.3 26.2-47 43.5-44 14.9-44.4 2c-.3-12.7-2.6-31.5 72.7-78.8.6-9.2-4.2-23-13.4-28.6-4.2-3.3-1-11.9-1-11.9l10.2-28-13.7 8.7-4.7-6.6-18.5 15.8s.6 10.1-.6 13.7a432.4 432.4 0 0 1-29.8 37.5c-3 3-10.7 3.9-9.5-5.4 1.2-9.2 8.6-37.5 8.6-37.5l-11.3-34.2 2.1-16.7 51.8-56.5s1.5-19.7 16.7-25.3c15.1-5.7 68.1-13.7 81.8-14 10.8-7.5 18.5-9.2 25.6-3.6 7.2 5.7 43.2 35.4 56 35.7 11.6-3 18.1-2 20.5 7.5 7.5-1.5 17.3-1 20 3.8 12.2-4.4 60.4-18.6 75.6-23.7 15.1-5.2 40.6-14 45.8-9s7.4 33 0 46.3c-7.4 13.3-45.8 42.1-95.7 49.1 2.6 5.6 7.4 8.9 9.6 10.8s11.5 14.7 10.3 37.6c6.7 24 22.6 83.8 6.2 150.6-7 28.4-75.9 51.3-138.9 34.8s-85-117.6-85-117.6z"/>
</clipPath>
<clipPath id="hc_7">
<path d="M138.4 285s-28.7-30.8-17.4-53.8c-8.2-40.9 3.6-81.8 47.6-109s107.9-22 133.5 15c21 6.6 39.3 32.6 36.3 46 10.2 15.8 24 31.1 26 45 15-.6 28.2 2.5 28.7 13.2.5 10.8-2.5 22-9.2 27.2 18-3.6 30.7-2 27.6 12.2-3 14.4-32.7 32.8-32.7 32.8s3.6 38.3-2.6 66.5c-6.1 28.1-19.4 52.6-90 57.8-70.6 5-104.3-32.2-118.7-63s-29.1-90-29.1-90z"/>
</clipPath>
<clipPath id="hc_8">
<path d="M191.4 311.2s-56 25-69.6 6.8c-13.5-18.3-16.8-38.5 0-52 17-13.5 39.2-10.2 39.2-18.3s-58-29.7-66.9-40.5-23.6-47.3 29.8-50.7c.7-35.1 23-37.8 39.2-35.8-17-38.5-5.4-60.1 16.2-62.8s40.5 15.5 40.5 15.5 39.9-29.7 56.8-1.3C300.2 41 337.3 45 344 82c34.5 8.9 39.9 16.3 38.5 40 41.2-39.2 68.3-52.7 89.2-35.2s.7 49.3-26.4 70.3c27.8-2 33.6 14.2 35 23 1.5 8.7-2.5 31.7-25.5 35.8 8.1 20.2 12.8 45.2 4.7 59.4-8 14.2-29.7 17.6-29.7 17.6s12.8 43.2 8.1 100.6-59.4 64.9-121 64.2c-61.4-.7-108-44.6-125.6-146.6z"/>
</clipPath>
<clipPath id="hc_9">
<path d="M386.4 314.5s44.6-8.8 66.6 23.2c22 32 7 75.5-13.2 92.5-20 17-62.8 24.5-80.4 3.7-26.5 15.1-95.6 27-127.7 12.6S172 388 156.3 343.4c-32-7.6-74.2-35.9-85.5-90.6S67 159.2 67 159.2s-8.2-15.1-8.8-28.3c-23.3 0-34.6-14.5-32.7-37.8C53.2 78.7 69 92 74 102.6c15.1-6.3 32-3.2 32-3.2s41.1-32.7 87.5-39c51.2-6.9 102.4-1.8 142.7 40.3s40.9 78.6 23.2 112c13.3 22 23.3 73.5 27.1 101.8z"/>
</clipPath>
<clipPath id="hc_10">
<path d="m167.3 273.8-33-40.1h-8.5l-9.6 32s-22.4 1-27.7-27.7c-20 7.6-30-8.6-29-41.6.9-33 20-94.4 99.1-105.7C198.2 72.3 220 76.2 225.2 79c19.1-17.2 31.6-13.9 38.9-5.3 17.8-17.8 36.3-18.5 48.1-2.6 11.9 15.8 32.3 14.5 39.6 1.3s22.4-14.5 23.7 1.3c1.3 15.8-14.5 62.6-16.5 73.2-2 10.5-.6 32.3-.6 32.3s23.7 31.6 26.4 38.9c19 4 24.3 6 27.6 20.4s7.3 36.3-7.9 45.5c6.6 39.6 10.6 86.4 3.3 118.7-7.2 32.3-39.5 56-96.9 54.7-57.4-1.3-130.9-13.7-143.6-183.5z"/>
</clipPath>
<clipPath id="hc_11">
<path d="M325.5 440s-14 15.8-80.9 15.8c-62.2.1-84.8-47-87.6-51.8-2.9-4.7-21-31.5-29.3-67.6s-9.4-78-3-94.4c-8 3-11.3 1.2-11.3 1.2-.2-4.8 9.4-19.5 11.7-21.8-10.6 3.2-25.3.4-27.4-3.4 2.5-6.4 15.9-7.9 19.5-16.4-16-.6-26.7-7-23.8-30.2 3.4-.4 17.2 5.8 26 3-10-9-16.8-31.9-3.7-45 3 2.5 4.3 10.2 7 14 2.8 3.8 8 9.5 20.9 5.7a46.2 46.2 0 0 1 1-45.7c2.8.7 4.3 1.5 4.3 1.5s-.2 13 7.2 19.8 12.1 2.8 14.9 5.3c0-17.6 10-40.4 17.4-45.9 3.8.9 4.2 2 4.2 2s-.4 14.8-.2 18.4c.2 3.6 4 10.6 7.3 13.2 3.8-13.4 18-33.4 24.8-37l2.8 1.5s-3.6 26.1 2 30.2c4.8-13 18.8-33.2 42-35.3 1 1.9 1.6 4.5 1.6 4.5s-12.3 13.1-12.3 24.2c12.3-12.3 26.9-21.3 58.9-14.9 1.6 1.5-.1 5.7-.1 5.7s-14 3.9-26.6 14-16.4 38-18 61.5a93.5 93.5 0 0 1 49 55c12.8-3 36.6-4 36.6-4l2.5 16.3-5 4.5s1 10.8-1.1 23.8c-2.2 13-7.5 18.4-11.1 19.7l.9 6.6s20-1.5 24.6-1.5c8.7-4.4 9.6-.4 9.3 1.7 9.8 3.2 26 12 25.1 20.2 12.3 2.8 14.7 11.3 12.1 16.8 7.2 2.3 17 10.2 6.8 37 11.3 0 12.1 2 12.1 7s-2 27.6-23 48.4c-20.7 20.8-41.1 25.7-51.5 25.7a46.8 46.8 0 0 1-8.5 4.5l-1.1-4.5s-17.3 0-27-9.3z"/>
</clipPath>
<clipPath id="hc_12">
<path d="M201.5 175v-13.6l3.6-4.5s-1.6-18.4 3.9-28c-4-4.6-12.6-2.6-15.5-2-22 17.8-33.6 33.3-42.3 89.7-2.3 7.5-7.4 3.6-8.4 0-1-3.5-11.6-27-11.6-51a157 157 0 0 0-31.6 72c-5.5 7.4-9.4 4.5-11 0-1.6-4.5-17-32.5 7-76.5-24.5 27.3-27.7 50.9-29 57-1.2 6.1-9.3-4.5-11.8-16.7s-8-67.9 35.8-104.6C115.5 76.1 146.4 79 146.4 79s33-16.2 49.6-8.9 18 28 18 28c6 2.5 9.3 8.6 9.3 8.6s15.5.8 17.5 19.2c9.8 2 12.6 8.5 12.6 8.5s11.8-2 17.5 11c13.4-3.7 34.6-4 48.8 4.9 14.3 9 26.5 15.8 43.6 51.7a43 43 0 0 1 17 34.5c9.8-4 18.8-8.5 18.8-8.5s-5.3-22.8 15.9-29.7c21.1-7 29.7 7 32.5 14.2S452 239 432.9 245s-21.2-2-21.2-2l-24 13-3.7 4.8s9.8 45.1 9.8 76.7-5 62-23.3 76.8-79.1 28.3-114.5 18.3-67.4-47.6-80.7-83.5c-14.3-38.8-25.5-85-15.6-124.4 7.7-31 41.8-49.7 41.8-49.7z"/>
</clipPath>
<clipPath id="hc_13">
<path d="M215.5 381.9s-33.2-7.7-42.5-25.5c-9.2-17.7-33.2-88-37.8-111.1a89.8 89.8 0 0 1-7.7-78c-1.5-28.5 1.5-34 1.5-34s-13.5-18.4-7.1-23c6.4-4.7 27.6 1.5 46-8.6s49.1-17 60.7-20S251 40 256 40s10.4 8.5 10.4 8.5 14.7-14 20 3.2 3.2 27.8 3.2 27.8 45.7 4.6 61.6 20.5c15.9 15.9-2 41 2 51 4 9.9 17.2 9.2 19.2 58.8 7.3 50.3 11.9 100 6.6 123.8-5.3 23.8-21.8 53-62.2 57.5s-82.9 5.3-101.3-9.2z"/>
</clipPath>
<clipPath id="hc_14">
<path d="M82.5 207s-52.8-9.8-52.8-68.8 36.6-97.7 97-106.2c43.6-21 74.6-9.8 75.3 21.8 23.9 14 47.6 28.8 54 40.8 30.3 1.4 62.7 2.6 72.5 19.6 9.8 17 38 59.8 38 59.8 7.7-1.4 21-22.5 30.2-26 9.1-3.5 32.3-2.8 38.7 19.7 6.3 22.5-9.2 35.9-35.9 35.9l-27.4 14.7s17.5 66.8 4.2 125.1c-13.4 58.4-129.3 57.7-161 40.8-31.6-16.9-68.2-83-75.2-112.5-20.4-16.8-38.7-35.8-38-52s-19.6-12.6-19.6-12.6z"/>
</clipPath>
<clipPath id="hc_15">
<path d="M164 322.5s-34.8 31.2-42.6-39c-7.8-33.8-1.7-84.1-1.7-84.1s-16.5-21.7-9.5-59c6.9-37.3 43.3-71.1 90.1-87.6s116.2-29.5 124-8.7 9.6 39 4.4 63.3c14.7 18.3 20.8 27 23.4 44.3 19 29.5 17.3 51.1 17.3 51.1s18.3 69.4 11.3 121.4-38.1 68.6-111.9 69.4-104.9-71-104.9-71z"/>
</clipPath>
<clipPath id="hc_16">
<path d="M293.3 389c-35.2 3.8-87.2 5.2-118-52.5s-40-106.4-32.6-158.5c1.8-12.3 14.6-25.1 14.6-25.1s-15.9-7.5 4.8-27.7c-11-7.5-1.8-20.3-1.8-20.3s-7.9-11.4 1-19.4c-14.2-7-1.4-32.5 2.1-27.3 3.5 5.3 8 10.2 20.3 5.8s21.1.4 21.6 4.8c12.7-4 15.8 7 15.8 7 15.4-4.8 23-1.7 22.5 12 14.5.8 14.5 12.7 14.5 12.7s31.7-4.8 52 9.7a103 103 0 0 1 36 45.3c12.4 10.2 22 23.4 17.7 44.5 8 33 16.7 66.5 13.6 104.4s-3 75.7-84 84.5z"/>
</clipPath>
<clipPath id="hc_17">
<path d="M301.7 391.8S227 412 187.2 359.6s-44.1-86-44.1-86-17.2 22.4-30.7 23.2c-18-9.7 19.4-62.1 19.4-62.1l-5.2-38.2-19 30.7s-22.3-23 0-67.3c7.8-15.7 16.8-19.5 16.8-19.5s-18-12-10.5-35.9c7.5-24 45.6-41.9 70.3-43.4 24.7-1.5 65.1 12 65.1 12s-2.2-15-5.2-23.2c26.2-1.5 41.1 31.4 41.1 31.4s24-42 64.4-31.5c1.5 9-24.7 27.8-25.5 42.7 12 9 17.3 30 18 35.2 11.2 3.7 30-2.3 30-2.3l12 73.4-9 31.4s6 45 6 52.4c18.6 22.4 42.6 71 42.6 88.3 13.4 28.4 7.4 47.1 12.7 61.3 5.2 14.3 24.8 76.1-18.7 79.8-41.6 3.5-29-32.3-28.5-39.4 0 0-20.2 22.5-34.4 9-7.5 17.2-15.7 32.3-45.7 30.4s-11.1-37.1-3.7-46.8 11.3-26.2 1.5-37.5c-9.7-11.2-5.2-35.9-5.2-35.9z"/>
</clipPath>

</defs>

<g clip-path="url(#all_clip)">

<linearGradient id="bg_grd" x1="-.78" x2="1920.74" y1="447.64" y2="447.64" gradientTransform="matrix(-1 0 0 1 1920.74 0)" gradientUnits="userSpaceOnUse">
<stop offset="0" stop-color="#c900f5"/>
<stop offset=".63" stop-color="#ffdf00"/>
<stop offset="1" stop-color="#ffa700"/>
</linearGradient>
<polygon fill="url(#bg_grd)" points="0 895.27 1921.52 895.27 1921.52 0 0 0"/>

<g id="head_1"><g><image clip-path="url(#hc_1)" xlink:href="imgs/89.png" width="512" height="512" transform="scale(.724) rotate(32.08 -287.59 4613.68)"/></g></g>
<g id="card_1"><g><use x="1908" y="766" transform="rotate(18 1908 766)" xlink:href="#card"/></g></g>
<g id="head_2"><g><image clip-path="url(#hc_2)" xlink:href="imgs/194.png" width="512" height="512" transform="rotate(-24.45 2312.75 -2494.2) scale(.7237)"/></g></g>
<g id="coin_1"><g><use x="1545" y="698" transform="rotate(36 1545 698)" xlink:href="#coin"/></g></g>
<g id="card_2"><g><use x="1558" y="590" transform="rotate(-14 1558 590)" xlink:href="#card"/></g></g>
<g id="coin_2"><g><use x="1630" y="114" transform="rotate(160 1630 114)" xlink:href="#coin"/></g></g>
<g id="coin_3"><g><use x="721" y="226" transform="rotate(12 721 226)" xlink:href="#coin"/></g></g>
<g id="coin_4"><g><use x="258" y="2" transform="rotate(-10 258 2)" xlink:href="#coin"/></g></g>
<g id="coin_5"><g><use x="1783" y="501" transform="rotate(-15 1783 501)" xlink:href="#coin"/></g></g>
<g id="head_3"><g><image clip-path="url(#hc_3)" xlink:href="imgs/73.png" width="512" height="512" transform="matrix(-.7544 0 0 .7544 1916.62 531.47)"/></g></g>
<g id="head_4"><g><image clip-path="url(#hc_4)"  xlink:href="imgs/51.png" width="512" height="512" transform="rotate(137.26 666.28 604.52) scale(.7216)"/></g></g>
<g id="head_5"><g><image clip-path="url(#hc_5)" xlink:href="imgs/18.png" width="512" height="512" transform="translate(374.02 98.75) scale(.7236)"/></g></g>
<g id="head_6"><g><image clip-path="url(#hc_6)" xlink:href="imgs/46.png" width="512" height="512" transform="translate(1211.68 83.07) scale(.7236)"/></g></g>
<g id="head_7"><g><image clip-path="url(#hc_7)" xlink:href="imgs/186.png" width="512" height="512" transform="rotate(48.05 -239.5 158.16) scale(.7234)"/></g></g>

<g id="memevip">
<path fill="#191919" d="M555.61 522.82H500.7l-1.56-61.15-3.43-50.85h-3.74l-32.45 92.97h-47.11l-26.83-92.97h-3.74l-4.37 44.93-3.12 67.08h-52.1l19.65-201.85h72.07l5.93 28.7L437.68 423h3.74l19.66-71.13 7.18-30.89h71.13l16.22 201.84zM726.89 472.9l3.43 4.37-3.74 45.55H584.31l3.12-59.28-3.12-142.58h144.76l3.43 4.37-4.06 45.55-49.61-1.87H646.7l-.62 28.39h30.89l32.45-.94 3.43 4.37-3.74 45.55-36.19-.94h-28.08l-.31 11.86.62 17.47h29.95l51.79-1.87zM988.33 522.82h-54.91l-1.56-61.15-3.43-50.85h-3.74l-32.45 92.97h-47.11l-26.83-92.97h-3.74l-4.37 44.93-3.12 67.08h-52.1l19.65-201.85h72.07l5.93 28.7L870.4 423h3.74l19.66-71.13 7.18-30.89h71.13l16.22 201.84zM1159.61 472.9l3.43 4.37-3.74 45.55h-142.27l3.12-59.28-3.12-142.58h144.76l3.43 4.37-4.06 45.55-49.61-1.87h-32.13l-.62 28.39h30.89l32.45-.94 3.43 4.37-3.74 45.55-36.19-.94h-28.08l-.31 11.86.62 17.47h29.95l51.79-1.87z"/>
<path fill="#FFF" d="M1286.27 522.82h-38.06l-64.89-200.29h33.07l4.68 22.77 45.86 146.32h2.18l50.85-144.76 4.99-24.33h32.13l-70.81 200.29zM1416.06 459.8l1.56 63.02h-32.76l2.18-60.21-2.18-140.08h33.07l-1.87 137.27zM1567.83 337.65c10.92 10.3 16.38 25.11 16.38 44.46 0 22.46-6.92 40.25-20.75 53.35-13.83 13.1-32.81 19.65-56.94 19.65h-22.15v4.68l1.56 63.02h-32.76l2.18-60.21-2.18-140.08 68.01-.31c20.18 0 35.73 5.15 46.65 15.44zm-25.89 77.69c5.93-7.59 8.89-17.73 8.89-30.42 0-12.48-3.17-21.73-9.52-27.77-6.35-6.03-15.96-9.25-28.86-9.67l-26.52.94-1.25 81.12 31.2.62c11.44-2.29 20.13-7.23 26.06-14.82z"/>
</g>

<g id="head_8"><g><image clip-path="url(#hc_8)" xlink:href="imgs/3531.png" width="512" height="512" transform="matrix(.5747 -.4396 .4396 .5747 -104.18 696.77)"/></g></g>
<g id="coin_6"><g><use x="319" y="697" transform="rotate(5 319 697)" xlink:href="#coin"/></g></g>
<g id="head_9"><g><image clip-path="url(#hc_9)" xlink:href="imgs/104.png" width="512" height="512" transform="translate(65.36 298.2) scale(.7236)"/></g></g>
<g id="head_10"><g><image clip-path="url(#hc_10)" xlink:href="imgs/269.png" width="512" height="512" transform="scale(.7235) rotate(25.83 567.9 4764.33)"/></g></g>
<g id="head_11"><g><image clip-path="url(#hc_11)" xlink:href="imgs/16.png" width="512" height="512" transform="rotate(42.81 -397.23 836.98) scale(.7235)"/></g></g>
<g id="head_12"><g><image clip-path="url(#hc_12)" xlink:href="imgs/37.png" width="512" height="512" transform="rotate(-13.98 3051.74 -1646.35) scale(.7733)"/></g></g>
<g id="head_13"><g><image clip-path="url(#hc_13)" xlink:href="imgs/250.png" width="512" height="512" transform="matrix(-.6968 -.2068 -.2068 .6968 2007.8 72.25)"/></g></g>
<g id="head_14"><g><image clip-path="url(#hc_14)" xlink:href="imgs/222.png" width="512" height="512" transform="matrix(-.7268 0 0 .7268 1207.51 113.28)"/></g></g>
<g id="head_15"><g><image clip-path="url(#hc_15)" xlink:href="imgs/133.png" width="512" height="512" transform="matrix(-.7032 .1828 .1828 .7032 2001.53 127.17)"/></g></g>
<g id="coin_7"><g><use x="115" y="901" transform="rotate(-32 115 901)" xlink:href="#coin"/></g></g>
<g id="coin_8"><g><use x="0" y="670" transform="rotate(5 0 670)" xlink:href="#coin"/></g></g>
<g id="coin_9"><g><use x="1220" y="800" transform="rotate(-30 1220 800)" xlink:href="#coin"/></g></g>
<g id="coin_10"><g><use x="1814" y="661" transform="rotate(-40 1814 661)" xlink:href="#coin"/></g></g>
<g id="head_16"><g><image clip-path="url(#hc_16)" xlink:href="imgs/40.png" width="512" height="512" transform="rotate(-12.54 398.34 719.48) scale(.7544)"/></g></g>
<g id="head_17"><g><image clip-path="url(#hc_17)" xlink:href="imgs/141.png" width="512" height="512" transform="scale(.724) rotate(23.52 294.98 294.86)"/></g></g>
<g id="coin_11"><g><use x="284" y="335" transform="rotate(-65 284 335)" xlink:href="#coin"/></g></g>
<g id="card_3"><g><use x="303" y="818" transform="rotate(-14 303 818)" xlink:href="#card"/></g></g>
<g id="card_4"><g><use x="1743" y="43" transform="rotate(-19 1743 43)" xlink:href="#card"/></g></g>
<g id="card_5"><g><use x="51" y="91" transform="rotate(-14 51 91)" xlink:href="#card"/></g></g>
<g id="card_6"><g><use x="441" y="228" transform="rotate(12 441 228)" xlink:href="#card"/></g></g>

</g>
</svg>
