<svg xmlns="http://www.w3.org/2000/svg" width="80" height="80" viewBox="0 0 80 80">
  <g fill="#CE153E">
    <path d="M16.66 6.02h.73v5.17h-.73V6.02zM19.57 7.2v3.98h-.73V6.02h.79l2.86 4.01V6.02h.73v5.17h-.79L19.57 7.2zM27.51 7.22a1.61 1.61 0 0 0-1.28-.61c-.62 0-1.01.27-1.01.69 0 1.14 2.89.62 2.89 2.46 0 .91-.74 1.52-1.89 1.52-.97 0-1.6-.38-1.95-.88l.52-.49c.35.45.85.69 1.43.69.71 0 1.11-.31 1.11-.79 0-1.26-2.89-.7-2.89-2.48 0-.83.73-1.4 1.81-1.4.81 0 1.46.35 1.77.8l-.51.49zM32.86 7.13a2.04 2.04 0 0 0-1.36-.49c-1.03 0-1.86.88-1.86 1.97 0 1.08.83 1.96 1.93 1.96.51 0 .98-.17 1.31-.48l.48.53c-.48.47-1.06.66-1.83.66-1.5 0-2.65-1.2-2.65-2.68a2.66 2.66 0 0 1 2.64-2.68c.82 0 1.39.23 1.85.64l-.51.57zM34.31 6.02h1.81c1.14 0 1.89.61 1.89 1.56 0 .73-.46 1.27-1.2 1.48l1.29 2.14h-.84l-1.21-2.05h-1.01v2.05h-.73V6.02zm.73.65v1.81h1.14c.64 0 1.06-.36 1.06-.91s-.43-.9-1.06-.9h-1.14zM39.28 6.02h.73v5.17h-.73V6.02zM41.47 6.02h1.81c1.19 0 1.98.64 1.98 1.64 0 .99-.8 1.64-2 1.64H42.2v1.89h-.73V6.02zm.73.65v1.97h1.14c.69 0 1.15-.39 1.15-.99s-.46-.98-1.15-.98H42.2zM48.03 6.7v4.48h-.73V6.7h-1.64v-.68h4.01v.68h-1.64zM50.53 6.02h.73v5.17h-.73V6.02zM57.73 8.61a2.66 2.66 0 0 1-2.65 2.67 2.66 2.66 0 0 1-2.64-2.68 2.66 2.66 0 0 1 2.64-2.68 2.68 2.68 0 0 1 2.65 2.69zm-.77 0c0-1.09-.84-1.97-1.88-1.97-1.03 0-1.87.88-1.87 1.97 0 1.08.84 1.96 1.87 1.96a1.93 1.93 0 0 0 1.88-1.96zM59.61 7.2v3.98h-.73V6.02h.79l2.86 4.01V6.02h.73v5.17h-.79L59.61 7.2zM6.94 14.48h1.81c1.19 0 1.98.64 1.98 1.64 0 .99-.8 1.64-2 1.64H7.67v1.89h-.73v-5.17zm.73.65v1.97h1.14c.69 0 1.15-.39 1.15-.99s-.46-.98-1.15-.98H7.67zM16.75 17.08a2.66 2.66 0 0 1-2.65 2.67 2.66 2.66 0 0 1-2.64-2.68 2.66 2.66 0 0 1 2.64-2.68 2.66 2.66 0 0 1 2.65 2.69zm-.77 0c0-1.09-.84-1.97-1.88-1.97-1.03 0-1.87.88-1.87 1.97 0 1.08.84 1.96 1.87 1.96a1.93 1.93 0 0 0 1.88-1.96zM17.86 14.48h.73v3.15c0 .84.52 1.39 1.29 1.39.78 0 1.29-.56 1.29-1.39v-3.15h.73v3.15c0 1.27-.81 2.11-2.03 2.11s-2.02-.84-2.02-2.11v-3.15zM23.31 14.48h1.81c1.14 0 1.89.61 1.89 1.56 0 .73-.46 1.27-1.2 1.48l1.29 2.14h-.84l-1.21-2.05h-1.01v2.05h-.73v-5.18zm.73.65v1.81h1.14c.64 0 1.06-.36 1.06-.91s-.43-.9-1.06-.9h-1.14zM32.47 19.74c-1.5 0-2.65-1.2-2.65-2.68a2.66 2.66 0 0 1 2.64-2.68c.82 0 1.39.23 1.85.64l-.48.56a2.04 2.04 0 0 0-1.36-.49c-1.03 0-1.86.88-1.86 1.97 0 1.08.83 1.96 1.93 1.96.4 0 .77-.09 1.08-.24V17.1h.73v2.14c-.5.33-1.1.5-1.88.5zM38.79 18.33h-2.47l-.53 1.32h-.77l2.13-5.17H38l2.13 5.17h-.81l-.53-1.32zm-1.23-3.08-.97 2.42h1.94l-.97-2.42zM43.13 19.74c-1.5 0-2.65-1.2-2.65-2.68a2.66 2.66 0 0 1 2.64-2.68c.82 0 1.39.23 1.85.64l-.48.56a2.04 2.04 0 0 0-1.36-.49c-1.03 0-1.86.88-1.86 1.97 0 1.08.83 1.96 1.93 1.96.4 0 .77-.09 1.08-.24V17.1h.73v2.14c-.5.33-1.11.5-1.88.5zM46.99 15.66v3.98h-.73v-5.17h.79l2.86 4.01v-4.01h.73v5.17h-.79l-2.86-3.98zM52.07 14.48h3.28v.69H52.8v1.55h2.23v.69H52.8v1.56h2.56v.69h-3.28v-5.18zM56.44 14.48h1.81c1.14 0 1.89.61 1.89 1.56 0 .73-.46 1.27-1.2 1.48l1.29 2.14h-.84l-1.21-2.05h-1.01v2.05h-.73v-5.18zm.73.65v1.81h1.14c.64 0 1.06-.36 1.06-.91s-.43-.9-1.06-.9h-1.14zM63.18 14.48h.73v3.15c0 .84.52 1.39 1.29 1.39.78 0 1.29-.56 1.29-1.39v-3.15h.73v3.15c0 1.27-.81 2.11-2.03 2.11s-2.02-.84-2.02-2.11v-3.15zM69.34 15.66v3.98h-.73v-5.17h.79l2.86 4.01v-4.01h.73v5.17h-.79l-2.86-3.98zM10.42 22.95h2.05c.9 0 1.6.59 1.6 1.39 0 .61-.44.97-.79 1.1.52.15.96.56.96 1.24 0 .77-.63 1.43-1.64 1.43h-2.18v-5.16zm.72.65v1.57h1.25c.52 0 .92-.34.92-.78s-.4-.79-.92-.79h-1.25zm0 2.18v1.68h1.36c.56 0 .98-.36.98-.84s-.42-.84-.97-.84h-1.37zM20.35 25.54a2.66 2.66 0 0 1-2.65 2.67 2.66 2.66 0 0 1-2.64-2.68 2.66 2.66 0 0 1 2.64-2.68c1.46 0 2.65 1.2 2.65 2.69zm-.78 0c0-1.09-.84-1.97-1.88-1.97-1.03 0-1.87.88-1.87 1.97 0 1.08.84 1.96 1.87 1.96a1.93 1.93 0 0 0 1.88-1.96zM22.23 24.13v3.98h-.73v-5.17h.79l2.86 4.01v-4.01h.73v5.17h-.79l-2.86-3.98zM29.16 22.95h1.58c1.72 0 2.91 1.06 2.91 2.58s-1.16 2.58-2.84 2.58h-1.65v-5.16zm.75.69v3.79h.85c1.28 0 2.12-.75 2.12-1.89s-.84-1.89-2.12-1.89h-.85zM34.82 22.94h3.28v.69h-2.56v1.55h2.23v.69h-2.23v1.56h2.56v.69h-3.28v-5.18zM42.9 27.3l1.61-4.36h.76l-1.97 5.17h-.85l-1.97-5.17h.81l1.61 4.36zM50.85 25.54a2.66 2.66 0 0 1-2.65 2.67 2.66 2.66 0 0 1-2.64-2.68 2.66 2.66 0 0 1 2.64-2.68c1.46 0 2.65 1.2 2.65 2.69zm-.77 0c0-1.09-.84-1.97-1.88-1.97-1.03 0-1.87.88-1.87 1.97 0 1.08.84 1.96 1.87 1.96a1.93 1.93 0 0 0 1.88-1.96zM52.96 26.37l-1.92-3.43h.81l1.48 2.66 1.5-2.66h.77l-1.92 3.43v1.74h-.73v-1.74zM59.09 26.79h-2.47l-.53 1.32h-.77l2.13-5.17h.85l2.13 5.17h-.81l-.53-1.32zm-1.23-3.07-.97 2.42h1.94l-.97-2.42zM63.43 28.21c-1.5 0-2.65-1.2-2.65-2.68a2.66 2.66 0 0 1 2.64-2.68c.82 0 1.39.23 1.85.64l-.48.56a2.04 2.04 0 0 0-1.36-.49c-1.03 0-1.86.88-1.86 1.97 0 1.08.83 1.96 1.93 1.96.4 0 .77-.09 1.08-.24v-1.68h.73v2.14c-.5.33-1.11.5-1.88.5zM66.58 22.94h3.28v.69H67.3v1.55h2.23v.69H67.3v1.56h2.56v.69h-3.28v-5.18zM12.08 40.3H7.77l-.93 2.31H5.5l3.72-9.04h1.5l3.72 9.04h-1.43l-.93-2.31zm-2.15-5.37-1.69 4.23h3.4l-1.71-4.23zM16.02 33.58h1.27v9.04h-1.27v-9.04zM19.86 33.58h3.16c1.99 0 3.3 1.07 3.3 2.72 0 1.28-.8 2.23-2.1 2.58l2.26 3.74H25l-2.12-3.58h-1.76v3.58h-1.27v-9.04zm1.26 1.14v3.17h2c1.11 0 1.86-.63 1.86-1.59 0-.96-.75-1.58-1.86-1.58h-2zM33.03 35.61v7.01h-1.27v-9.04h1.47l3.26 5.18 3.24-5.18h1.3v9.04h-1.27v-7.01l-3.36 5.23-3.37-5.23zM43.59 33.58h1.27v9.04h-1.27v-9.04zM47.43 33.58h1.27v7.84h4.68v1.2h-5.95v-9.04zM54.96 33.58h5.74v1.2h-4.47v2.71h3.91v1.2h-3.91v2.74h4.47v1.2h-5.74v-9.05zM67.6 35.68a2.82 2.82 0 0 0-2.24-1.07c-1.09 0-1.76.48-1.76 1.21 0 1.99 5.05 1.09 5.05 4.3 0 1.59-1.3 2.67-3.31 2.67-1.69 0-2.79-.66-3.41-1.54l.92-.86c.61.79 1.48 1.2 2.51 1.2 1.24 0 1.95-.54 1.95-1.38 0-2.2-5.05-1.23-5.05-4.34 0-1.45 1.28-2.45 3.16-2.45 1.41 0 2.55.62 3.1 1.4l-.92.86zM69.9 34.82v1.75h-.32v-2.26h.37l.81 1.29.81-1.29h.32v2.26h-.32v-1.75l-.84 1.31-.83-1.31zM72.54 34.32h.69c.75 0 1.27.46 1.27 1.13 0 .67-.51 1.13-1.24 1.13h-.72v-2.26zm.33.3v1.66h.37c.56 0 .93-.33.93-.83 0-.5-.37-.83-.93-.83h-.37zM33.93 46.32h1.58c1.72 0 2.91 1.06 2.91 2.58s-1.16 2.58-2.84 2.58h-1.65v-5.16zm.75.69v3.79h.85c1.28 0 2.12-.75 2.12-1.89s-.84-1.89-2.12-1.89h-.85zM39.6 46.32h3.28V47h-2.56v1.55h2.23v.69h-2.23v1.56h2.56v.69H39.6v-5.17zM17.53 63.89c0-.8-.62-1.33-1.58-1.33-.8 0-1.39.24-1.85.52l-1.25-.92.87-5.67h5.93v2.44H16l-.23 1.33c.23-.05.61-.07.8-.07 2.25 0 3.74 1.49 3.74 3.74 0 2.34-1.72 3.92-4.31 3.92-1.87 0-3.24-.83-3.93-1.98l2.03-1.8c.5.8 1.14 1.16 1.85 1.16.96.02 1.58-.52 1.58-1.34zM24.93 62.06c0-3.36 1.91-5.82 4.51-5.82 2.72 0 4.68 2.46 4.64 5.81.03 3.36-1.87 5.82-4.51 5.82-2.68-.01-4.64-2.47-4.64-5.81zm6.36 0c0-1.92-.69-3.21-1.84-3.21-1.04 0-1.73 1.27-1.73 3.19 0 1.94.71 3.21 1.8 3.21s1.77-1.27 1.77-3.19zM35.22 62.06c0-3.36 1.91-5.82 4.51-5.82 2.72 0 4.68 2.46 4.64 5.81.03 3.36-1.87 5.82-4.51 5.82-2.68-.01-4.64-2.47-4.64-5.81zm6.36 0c0-1.92-.69-3.21-1.84-3.21-1.04 0-1.73 1.27-1.73 3.19 0 1.94.71 3.21 1.8 3.21s1.77-1.27 1.77-3.19zM45.51 62.06c0-3.36 1.91-5.82 4.51-5.82 2.72 0 4.68 2.46 4.64 5.81.03 3.36-1.87 5.82-4.51 5.82-2.68-.01-4.64-2.47-4.64-5.81zm6.36 0c0-1.92-.69-3.21-1.84-3.21-1.04 0-1.73 1.27-1.73 3.19 0 1.94.71 3.21 1.8 3.21s1.77-1.27 1.77-3.19zM65.8 60.38a3 3 0 0 0-2.43-1.28c-.71 0-1.06.28-1.06.68 0 1.33 5.42.71 5.42 4.31 0 1.66-1.2 3-3.03 3.45v1.72h-2.32v-1.61c-1.92-.21-2.98-1.07-3.59-2.03l2.03-1.91a3 3 0 0 0 2.53 1.3c.87 0 1.32-.28 1.32-.8 0-1.4-5.42-.74-5.42-4.37 0-1.68 1.27-2.96 3.14-3.33v-1.66h2.32v1.68a4.7 4.7 0 0 1 3.03 1.91l-1.94 1.94z"/>
  </g>
</svg>
