<svg xmlns="http://www.w3.org/2000/svg" width="536" height="386" viewBox="0 0 536 388">
  <path fill="#3D3A39" d="M23.65 359.46c14.39 10.97 38.9 13.3 69.95 18.07 31.05 4.78 107.48 9.55 239.44 9.55 131.97 0 171.38-4.18 187.5-18.51 16.12-14.33 17.91-30.46 13.13-42.4-4.78-11.94-20.9-39.41-35.23-56.13-14.33-16.72-20.9-21.5-28.07-26.27-7.17-4.78-277.06-1.19-327.82-1.19-50.76 0-131.43 61.61-131.4 77.08.05 15.48 5.25 34.27 12.5 39.8z" opacity=".8"/>
  <path fill="#3C3A39" d="M62.04 74.3s-3.2.83-4.73 0c-1.53-.83-2.78-2.22-4.87-3.34-2.09-1.11-18.22.56-25.73 3.62-7.51 3.06-7.65 10.85-6.95 12.79.69 1.95 5.14 3.2 13.07 3.2 7.93 0 16.97 0 19.89-.69 2.92-.7 5.28-1.67 5.98-2.64.7-.98 3.34-12.94 3.34-12.94z"/>
  <linearGradient id="SVGID_1_" x1="20.89" x2="54.88" y1="80.3" y2="80.3" gradientUnits="userSpaceOnUse">
    <stop offset="0" stop-color="#9db2c6"/>
    <stop offset="1" stop-color="#5c7586"/>
  </linearGradient>
  <path fill="url(#SVGID_1_)" d="M51.19 72.21c-2.92-.42-13.35 1.11-19.61 2.64s-9.32 4.59-10.29 7.37c-.97 2.78-.28 5.28 2.78 5.84 3.06.56 7.51.42 14.32.28 6.81-.14 11.82-.28 13.63-1.11 1.81-.84 3.2-7.51 2.78-10.29-.41-2.78-1.66-4.45-3.61-4.73z"/>
  <path fill="#3C3A39" d="M421.7 74.3s3.2.83 4.73 0c1.53-.83 2.78-2.22 4.87-3.34 2.09-1.11 18.22.56 25.73 3.62 7.51 3.06 7.65 10.85 6.95 12.79-.69 1.95-5.14 3.2-13.07 3.2-7.93 0-16.97 0-19.89-.69-2.92-.7-5.28-1.67-5.98-2.64-.69-.98-3.34-12.94-3.34-12.94z"/>
  <linearGradient id="SVGID_00000049927026497506853530000014429737152572886958_" x1="-1163.19" x2="-1129.2" y1="80.3" y2="80.3" gradientTransform="matrix(-1 0 0 1 -700.34 0)" gradientUnits="userSpaceOnUse">
    <stop offset="0" stop-color="#9db2c6"/>
    <stop offset="1" stop-color="#5c7586"/>
  </linearGradient>
  <path fill="url(#SVGID_00000049927026497506853530000014429737152572886958_)" d="M432.55 72.21c2.92-.42 13.35 1.11 19.61 2.64s9.32 4.59 10.29 7.37c.97 2.78.28 5.28-2.78 5.84-3.06.56-7.51.42-14.32.28-6.81-.14-11.82-.28-13.63-1.11-1.81-.84-3.2-7.51-2.78-10.29.41-2.78 1.66-4.45 3.61-4.73z"/>
  <path fill="#3C3A39" d="M241.87 310.55h111.3l39.46 19.9s-67.46 2.7-150.76 2.7c-83.31 0-150.77-2.7-150.77-2.7l39.46-19.9h111.31z"/>
  <g fill="#3C3A39">
    <path d="M11.17 319.66c0 11.21 2.02 27.66 5.06 33.39 3.04 5.73 3.37 6.41 7.42 6.41h45.87c3.71 0 7.76-5.39 8.77-9.78 1.01-4.39 3.71-19.9 3.04-26.65-.68-6.74-16.19-8.43-37.44-8.43-21.25 0-32.72-.34-32.72 5.06zM472.57 319.66c0 11.21-2.02 27.66-5.06 33.39-3.04 5.73-3.37 6.41-7.42 6.41h-45.87c-3.71 0-7.76-5.39-8.77-9.78-1.01-4.39-3.71-19.9-3.04-26.65.68-6.74 16.19-8.43 37.44-8.43 21.26 0 32.72-.34 32.72 5.06z"/>
  </g>
  <linearGradient id="SVGID_00000111870560546310642310000015675941934426917541_" x1="165.6" x2="257.88" y1="14.25" y2="286.08" gradientUnits="userSpaceOnUse">
    <stop offset="0" stop-color="#981c34"/>
    <stop offset="1" stop-color="#821e21"/>
  </linearGradient>
  <path fill="url(#SVGID_00000111870560546310642310000015675941934426917541_)" d="M241.87 321.72c39.16 0 81.59-.71 96.09-.71s63.1 16.41 79.05 14.99c15.96-1.42 47.87-5.69 55.84-12.79 7.98-7.1 10.88-90.93 10.88-115.79s-13.78-71.03-22.48-78.85c-8.7-7.82-26.11-29.13-31.91-39.07-5.8-9.94-15.23-32.67-21.03-43.33-5.8-10.65-18.85-31.25-30.46-34.1C366.25 9.23 305.69 0 241.87 0c-63.82 0-124.38 9.24-135.99 12.07-11.6 2.85-24.66 23.44-30.46 34.1-5.8 10.65-15.23 33.39-21.03 43.33-5.8 9.94-23.21 31.26-31.91 39.07C13.78 136.39 0 182.56 0 207.42c0 24.86 2.9 108.69 10.88 115.79 7.98 7.1 39.89 11.36 55.85 12.79 15.96 1.42 64.55-14.99 79.05-14.99s56.93.71 96.09.71z"/>
  <path fill="#3C3A39" d="M241.87 163.54c103.02 0 135.87-5.85 141.27-7.2 5.4-1.35 10.35-2.7 10.35-4.95s-.45-16.2-7.2-53.54-12.63-56.96-12.87-57.86c-.24-.9-1.08-3.78-6.93-5.13s-57.14-8.1-124.62-8.1c-67.49 0-118.78 6.75-124.62 8.1-5.85 1.35-6.69 4.23-6.93 5.13-.24.9-6.12 20.52-12.87 57.86-6.75 37.34-7.2 51.29-7.2 53.54s4.95 3.6 10.35 4.95c5.4 1.35 38.25 7.2 141.27 7.2z"/>
  <linearGradient id="SVGID_00000016761864303590848330000000118670565139842718_" x1="160.64" x2="311.93" y1="38.63" y2="152.52" gradientUnits="userSpaceOnUse">
    <stop offset="0" stop-color="#9db2c6"/>
    <stop offset="1" stop-color="#5c7586"/>
  </linearGradient>
  <path fill="url(#SVGID_00000016761864303590848330000000118670565139842718_)" d="M241.87 155.44c99.62 0 131.38-5.41 136.6-6.65 5.22-1.25 10.01-2.5 10.01-4.57 0-2.08-.44-14.97-6.96-49.48-6.53-34.52-12.21-52.65-12.44-53.48-.23-.83-1.05-3.49-6.7-4.74-5.66-1.25-55.25-7.48-120.5-7.48-65.26 0-114.85 6.24-120.5 7.48-5.65 1.25-6.47 3.91-6.7 4.74-.23.83-5.91 18.96-12.44 53.48-6.53 34.51-6.96 47.4-6.96 49.48 0 2.08 4.79 3.32 10.01 4.57 5.21 1.24 36.96 6.65 136.58 6.65z"/>
  <path fill="#3C3A39" d="M99.44 14.59s-6.05 28.35-8.74 35.25c-2.69 6.9-21.52 47.28-25.04 55.9-3.53 8.63-6.39 16.57-7.23 15.53-.84-1.03-3.36-17.48-2.02-26.97 1.35-9.49 3.87-17.26 14.96-39.17 11.09-21.9 22.52-36.74 28.07-40.54z"/>
  <linearGradient id="SVGID_00000129177310520757431610000011128491084232409736_" x1="57.08" x2="97.37" y1="63.13" y2="63.13" gradientUnits="userSpaceOnUse">
    <stop offset="0" stop-color="#9db2c6"/>
    <stop offset="1" stop-color="#5c7586"/>
  </linearGradient>
  <path fill="url(#SVGID_00000129177310520757431610000011128491084232409736_)" d="M97.37 16.01s-5.62 21.45-8.11 27.86c-2.49 6.4-19.97 43.87-23.24 51.88-3.28 8-5.93 15.37-6.71 14.41-.78-.96-3.12-11.37-1.87-20.18 1.25-8.8 3.59-16.01 13.88-36.35 10.3-20.33 20.9-34.1 26.05-37.62z"/>
  <path fill="#3C3A39" d="M384.31 14.59s6.05 28.35 8.74 35.25c2.69 6.9 21.51 47.28 25.04 55.9 3.53 8.63 6.39 16.57 7.23 15.53.84-1.04 3.36-17.48 2.02-26.97-1.35-9.49-3.87-17.26-14.96-39.17-11.1-21.9-22.53-36.74-28.07-40.54z"/>
  <linearGradient id="SVGID_00000055673515589285121750000018256529550263631806_" x1="-1127" x2="-1086.71" y1="63.13" y2="63.13" gradientTransform="matrix(-1 0 0 1 -700.34 0)" gradientUnits="userSpaceOnUse">
    <stop offset="0" stop-color="#9db2c6"/>
    <stop offset="1" stop-color="#5c7586"/>
  </linearGradient>
  <path fill="url(#SVGID_00000055673515589285121750000018256529550263631806_)" d="M386.37 16.01s5.62 21.45 8.11 27.86c2.5 6.4 19.96 43.87 23.24 51.88 3.28 8 5.93 15.37 6.71 14.41.78-.96 3.12-11.37 1.87-20.18-1.25-8.8-3.59-16.01-13.88-36.35-10.29-20.33-20.9-34.1-26.05-37.62z"/>
  <linearGradient id="SVGID_00000058560446049927289060000003214669007629667225_" x1="241.87" x2="241.87" y1="228.46" y2="183.56" gradientUnits="userSpaceOnUse">
    <stop offset="0" stop-color="#58140e"/>
    <stop offset="1" stop-color="#4e0e27"/>
  </linearGradient>
  <path fill="url(#SVGID_00000058560446049927289060000003214669007629667225_)" d="M241.87 191.06c54.38 0 114.9-.44 119.44-.44 0 0 3.19 8.44 1.33 15.9s-12.75 4.59-12.75 4.59-43.77-3.25-108.02-3.25-108.02 3.25-108.02 3.25-10.88 2.88-12.75-4.59c-1.86-7.46 1.33-15.9 1.33-15.9 4.54-.01 65.06.44 119.44.44z"/>
  <linearGradient id="SVGID_00000069373324426445850440000013773864834989864595_" x1="34.49" x2="133.85" y1="204.48" y2="204.48" gradientUnits="userSpaceOnUse">
    <stop offset="0" stop-color="#e1a367"/>
    <stop offset="1" stop-color="#cf5427"/>
  </linearGradient>
  <path fill="url(#SVGID_00000069373324426445850440000013773864834989864595_)" d="M122.43 190.61s-14.51-.36-34.45-2.9a1243.98 1243.98 0 0 1-46.42-6.89c-3.99-.73-7.98-.73-6.89 14.14 1.09 14.87 3.63 34.45 14.87 33.36 11.24-1.09 43.04-10.61 60.1-13.54 17.21-2.96 24.21-3.68 24.21-3.68l-11.42-20.49z"/>
  <linearGradient id="SVGID_00000084527861442066357060000017279268762012831659_" x1="-1150.29" x2="-1050.93" y1="204.48" y2="204.48" gradientTransform="matrix(-1 0 0 1 -701.04 0)" gradientUnits="userSpaceOnUse">
    <stop offset="0" stop-color="#e1a367"/>
    <stop offset="1" stop-color="#cf5427"/>
  </linearGradient>
  <path fill="url(#SVGID_00000084527861442066357060000017279268762012831659_)" d="M361.31 190.61s14.5-.36 34.45-2.9c19.95-2.54 42.43-6.16 46.42-6.89 3.99-.73 7.98-.73 6.89 14.14-1.09 14.87-3.63 34.45-14.87 33.36-11.24-1.09-43.04-10.61-60.1-13.54-17.21-2.96-24.21-3.68-24.21-3.68l11.42-20.49z"/>
  <linearGradient id="SVGID_00000170246215217680412390000018001993044194510488_" x1="-62.74" x2="424.81" y1="261.12" y2="261.12" gradientUnits="userSpaceOnUse">
    <stop offset="0" stop-color="#a05744"/>
    <stop offset="1" stop-color="#a05744"/>
  </linearGradient>
  <path fill="url(#SVGID_00000170246215217680412390000018001993044194510488_)" d="M241.88 256.79c123.62 0 165.34-6.74 186.44-9.78 21.11-3.04 27.47-16.19 29.82-16.19 2.34 0 1 10.12-1.34 27.66 0 0-3.02 19.9-4.36 25.97-1.34 6.07-5.03 8.1-7.7 6.41-2.68-1.69-2.68-21.59-18.43-20.24-15.75 1.35-102.02 4.72-184.43 4.72-82.42 0-168.69-3.37-184.44-4.72-15.75-1.35-15.75 18.55-18.43 20.24-2.68 1.69-6.37-.34-7.71-6.41-1.34-6.07-4.35-25.97-4.35-25.97-2.35-17.54-3.69-27.66-1.34-27.66 2.34 0 8.71 13.15 29.82 16.19 21.1 3.04 62.82 9.78 186.45 9.78z"/>
  <linearGradient id="SVGID_00000098921926303111899700000000504369610556565179_" x1="-139.9" x2="560.21" y1="146.87" y2="168.64" gradientUnits="userSpaceOnUse">
    <stop offset="0" stop-color="#a31e28"/>
    <stop offset="1" stop-color="#ac5241"/>
  </linearGradient>
  <path fill="url(#SVGID_00000098921926303111899700000000504369610556565179_)" d="M241.82 172.99c60.5 0 121.88-2.82 160.28-6.04 38.07-3.2 58.11-11.37 61.31-15.99 3.21-4.62 2-13.5-.4-20.26 0 0 8.82 16 10.02 24.16 1.2 8.18 2.4 19.54-15.23 24.17-17.63 4.62-48.09 8.17-83.75 10.31-33.21 1.98-94.57 1.42-132.23 1.42-37.67 0-99.03.57-132.24-1.42-35.66-2.14-66.12-5.69-83.75-10.31-17.63-4.62-16.69-15.99-15.48-24.17 1.2-8.17 10.27-24.16 10.27-24.16-2.4 6.75-3.61 15.64-.4 20.26 3.21 4.62 23.24 12.79 61.31 15.99 38.4 3.22 99.78 6.04 160.29 6.04z"/>
  <linearGradient id="SVGID_00000028322212932321587190000012079106901765601964_" x1="240.15" x2="240.15" y1="261.27" y2="210.81" gradientUnits="userSpaceOnUse">
    <stop offset="0" stop-color="#bbd2da"/>
    <stop offset="1" stop-color="#94a7ae"/>
  </linearGradient>
  <path fill="url(#SVGID_00000028322212932321587190000012079106901765601964_)" d="M296.13 246.2a5.24 5.24 0 0 1-5.23 5.23H189.41a5.24 5.24 0 0 1-5.23-5.23v-28.91a5.24 5.24 0 0 1 5.23-5.23H290.9a5.24 5.24 0 0 1 5.23 5.23v28.91z"/>
  <path fill="#C02033" d="M227.42 222.01h6.2l6.57-4.03 6.52 4.05h6.15l-11.67-7.05a1.96 1.96 0 0 0-2.01 0l-11.76 7.03zM252.91 241.8h-6.2l-6.57 4.03-6.57-4.05h-6.18l11.71 7.07c.62.37 1.4.39 2.01 0l11.8-7.05z"/>
  <path fill="#1C1E4D" d="M211.13 227.5c0-.48.02-1.12.62-1.65a1.7 1.7 0 0 1 1.1-.39c.92 0 1.76.73 1.76 2.1l-.02 8.58c0 .32-.05.76-.32 1.19a1.7 1.7 0 0 1-1.42.76c-.53 0-1.08-.25-1.4-.69-.3-.43-.37-.87-.37-1.26l.05-8.64zM222.07 228.35c.53.02 1.17.07 1.51.64.11.18.16.43.16.66 0 .46-.18.76-.41.92-.34.3-.87.3-1.28.3h-1.81v-2.52h1.83zm-5.36 7.71c0 .43.05 1.01.53 1.49.32.34.76.57 1.26.57s1.03-.23 1.33-.62c.37-.46.41-.96.41-1.4v-2.56h1.33c.55.02 1.4.05 1.78.87.14.3.18.62.25.94.14.98.23 1.72.94 2.33.16.14.53.46 1.19.48.96 0 1.83-.59 1.83-1.44 0-.3-.16-.57-.27-.85a6.4 6.4 0 0 1-.27-1.37c-.34-2.22-1.3-2.4-2.24-2.52.43-.09 1.08-.18 1.67-.87a3 3 0 0 0 .73-2.06c0-.94-.27-1.78-.98-2.43-.96-.85-2.13-.96-3.57-.96h-4.05c-.41 0-1.19.07-1.58.8-.21.34-.21.69-.23.98-.04 0-.06 8.62-.06 8.62zM232.34 230.73c.43 1.62.53 2.01.78 3.5.18-.87.25-1.19.5-2.13l1.49-5.13c.18-.53.48-1.42 1.62-1.4 1.05 0 1.67.85 1.67 1.65 0 .43-.16.87-.3 1.28l-2.81 7.82c-.46 1.3-.69 1.78-2.27 1.78-1.37 0-1.62-.59-2.04-1.69l-2.97-8.56a2.12 2.12 0 0 1-.11-.69c0-.98.76-1.65 1.72-1.65 1.21 0 1.53.92 1.72 1.51l1 3.71zM239.36 227.5c0-.48.02-1.12.62-1.65a1.7 1.7 0 0 1 1.1-.39c.92 0 1.76.73 1.76 2.1v8.6c0 .34-.05.76-.3 1.19-.3.48-.85.76-1.42.76a1.7 1.7 0 0 1-1.4-.71 1.99 1.99 0 0 1-.37-1.26v-8.64h.01zM245.11 227.28c0-.37.07-.92.5-1.35.41-.39.94-.41 1.42-.41.98 0 1.33.32 1.72.94.62 1.03 1.24 2.06 1.85 3.11.73 1.26 1.42 2.52 2.13 3.78l-.14-6.02c0-.34.02-.71.25-1.08.41-.69 1.1-.71 1.33-.71.41 0 .82.16 1.17.5.46.5.46 1.1.48 1.53l-.02 8.72c0 .41-.02 1.9-1.78 1.88-.57 0-1.28-.21-2.17-1.46-.62-.87-2.43-4.05-3.66-6.22l.14 5.79c-.02.39-.02.76-.27 1.17-.3.46-.82.73-1.33.73a1.5 1.5 0 0 1-.76-.21c-.82-.43-.87-1.26-.87-1.9l.01-8.79zM265.79 237.89c-1.1.34-1.83.39-2.75.39a5.6 5.6 0 0 1-3.8-1.49c-1.53-1.37-1.97-3.25-1.97-5.01 0-3.87 2.4-6.52 6.27-6.5 3.02 0 4.37 1.33 4.92 2.15.16.27.27.64.16 1.17-.16.57-.85 1.19-1.83 1.01-.57-.14-1.03-.62-1.3-.87-.25-.23-.69-.64-1.78-.66-2.06 0-2.95 1.65-2.97 3.62 0 2.38 1.12 3.68 2.7 3.71.43 0 1.03-.09 1.49-.39.64-.34.98-.87 1.08-1.56h-1.17c-.37 0-.78 0-1.1-.18a1.28 1.28 0 0 1-.69-1.14c0-.48.23-.82.57-1.03.3-.21.59-.23.92-.23h3.2c.32 0 .66.02.98.21.46.32.48.85.5 1.44-.14 4.58-3.45 5.36-3.43 5.36"/>
</svg>
