<svg xmlns="http://www.w3.org/2000/svg" width="80" height="100" viewBox="0 0 80 100">
  <g>
    <g fill="#CE153E">
      <path d="M12.37 55.4a3.76 3.76 0 0 1-.65-1.77 7.9 7.9 0 0 1-.13-1.77l.17-1.34c0-.04-.04-.13-.04-.13s-.04-.04-.04 0h-.09c-.47.56-1.21 1.34-1.64 1.9-.09.17-.22.22-.3.3l-.56.52a6.3 6.3 0 0 1-1.08.95c-.26.17-.56.52-.95.6-.43.09-.82.09-1.21-.09-.43-.22-.69-.35-.95-.69-.17-.22-.26-.35-.26-.6 0-.3 0-.65.04-1.04.17-.82.65-2.24.78-3.06.09-.22.35-.3.47-.22l.82.65c.17.13.17.39.17.6l-.04.35c-.22.6-.56 1.98-.73 2.63-.04.09 0 .17 0 .3 0 .04.09.13.17.13s.13 0 .22-.04l.69-.47c.34-.3.69-.56.99-.91.3-.3.69-.6.95-.91.3-.39.6-.69.86-.99.39-.34.99-1.38 1.29-1.77l.78-.82c.22-.26.43-.26.69-.17.26.13.56.26.78.47.13.17.22.3.22.47.04.35 0 .65-.09.95-.22.52-.52 1.64-.6 2.07a4.98 4.98 0 0 0 0 2.85c.17.82.6 1.55 1.47 1.42.6-.13 1.21-.39 1.77-.65.43-.26 1.25-.82 1.64-1.12a23.18 23.18 0 0 0 2.54-2.37c.22-.34.56-.47.86-.78.3-.43.95.22.69.6-.43.52-.73 1.03-1.29 1.42l-.91.86a10.86 10.86 0 0 1-3.19 2.28c-.78.47-1.6.69-2.54.47-.87-.13-1.13-.35-1.77-1.08z"/>
      <path d="M33.24 53.77a13.3 13.3 0 0 0 1.94-1.51c.22-.26.43-.3.65-.56l.35-.39c.09-.22.13-.09.3-.43v-.09c.04-.09.04-.04.17-.04.26-.22.82.3.56.6-.04.35 0 .09-.22.39-.13.3-.17.26-.43.65-.6.65-.99 1.03-1.73 1.64-.3.26-.69.52-1.04.78a5.3 5.3 0 0 1-1.73.78c-.34.09-.69.09-.99.13a4.49 4.49 0 0 1-2.67-.91 7.72 7.72 0 0 1-1.34-1.77c-.6-.82-.65-2.98-.69-4.05.04-.04-.04-.13-.09-.09-.35.13-.6.34-.82.52-.78.65-1.51 1.29-2.16 2.16-.22.22-.47.52-.69.82-.26.3-.56 1.47-.86 1.85-.09.17-.3.3-.47.47-.09.13-.26.13-.39.13-.22 0 .04-.04-.09-.17l-.56-.39c-.13-.17-.13-.39-.04-.52 0-.13.04-.3.09-.35.52-.82.6-2.59 1.08-3.45l.17-.47c.13-.26.39-1.34.47-1.64-.04-.22.09-.3.35-.34.39-.04.73.04.99.26.13.09-.22 1.25-.09 1.34.04.04.13.09.17.04.39-.35.91-.86 1.29-1.16.47-.3.91-.34 1.38-.39h.22c.43.09.82.3 1.12.56.17.09.22.22.26.43.09.39.17.73.13 1.08 0 .34-.09.56-.04.99v.3c-.04.6.26 1.12.34 1.68.13.22.22.52.39.65.22.35.39.6.65.82.82.82 2.07.69 2.89.35.49-.27.75-.36 1.18-.7zM55.06 54.51a2.87 2.87 0 0 1-1.25-.99 5.05 5.05 0 0 1-.82-1.68c0-.13-.09-.13-.13-.13l-.73.73c-.86.69-1.68 1.42-2.54 1.98-.56.35-1.12.65-1.73.78-.35.13-.69.17-1.08.17-.52.04-.91-.22-1.12-.78l-.35-.65a1.45 1.45 0 0 1-.04-1.12c.13-.43.43-.86.6-1.25l.47-.6c.82-.91 1.68-1.77 2.67-2.41l.73-.43c.39-.22.82-.34 1.29-.34.22 0 .43.04.56.22.39.35.6.69.73 1.25 0 .09-.04.17-.09.26-.09.04-.13.09-.17 0l-.3-.26c-.09-.09-.22-.22-.39-.09-.43.09-.95.17-1.38.43-.52.26-.99.6-1.42 1.03a.7.7 0 0 0-.3.26 6.99 6.99 0 0 0-1.6 1.9c-.26.3-.39.6-.47.99-.04.09.04.17.09.17.17.04.39.04.47.04.39-.09.86-.13 1.21-.34a7.49 7.49 0 0 0 2.24-1.47l1.04-.86c.17-.09.3-.22.43-.3.43-.52.91-.95 1.34-1.55a.41.41 0 0 1 .52-.13c.22.13.56.26.69.47.04.22.09.35.04.56-.04.34-.09.78-.09 1.16 0 .47.09.91.3 1.34.09.13.26.13.39.22.82.52 1.68.43 2.54.09.47-.17.78-.22 1.21-.47.73-.56 1.16-.69 1.81-1.42.17-.17.78-.91.91-1.12l.13-.09c0-.04.39-.04.39 0l.17.26c.17.39-.47 1.21-.69 1.51a6.6 6.6 0 0 1-4.83 2.8c-.09 0-.65.09-.78 0a2.2 2.2 0 0 1-.67-.14z"/>
      <path d="M72.79 53.78a13.3 13.3 0 0 0 1.94-1.51c.22-.26.43-.3.65-.56l.34-.39c.09-.22.13-.09.3-.43v-.09c.04-.09.04-.04.17-.04.26-.22.82.3.56.6-.04.35 0 .09-.22.39-.13.3-.17.26-.43.65-.6.65-.99 1.03-1.73 1.64-.3.26-.69.52-1.03.78a5.1 5.1 0 0 1-1.73.78c-.34.09-.69.09-.99.13a4.49 4.49 0 0 1-2.67-.91 7.72 7.72 0 0 1-1.34-1.77c-.6-.82-.65-2.98-.69-4.05.04-.04-.04-.13-.09-.09-.34.13-.6.35-.82.52-.78.65-1.51 1.29-2.16 2.16-.22.22-.47.52-.69.82-.26.3-.56 1.47-.86 1.85-.09.17-.3.3-.47.47-.09.13-.26.13-.39.13-.22 0 .04-.04-.09-.17l-.56-.39c-.13-.17-.13-.39-.04-.52 0-.13.04-.3.09-.35.52-.82.6-2.59 1.08-3.45l.17-.47c.13-.26.39-1.34.47-1.64-.04-.22.09-.3.35-.34.39-.04.73.04.99.26.13.09-.22 1.25-.09 1.34.04.04.13.09.17.04.39-.34.91-.86 1.29-1.16.47-.3.91-.34 1.38-.39h.22c.43.09.82.3 1.12.56.17.09.22.22.26.43.09.39.17.73.13 1.08 0 .34-.09.56-.04.99v.3c-.04.6.26 1.12.34 1.68.13.22.22.52.39.65.22.35.39.6.65.82.82.82 2.07.69 2.89.35.49-.27.75-.36 1.18-.7z"/>
    </g>
    <g fill="#CE153E">
      <path d="M21.28 37.23h1.81c1.19 0 1.98.65 1.98 1.64 0 .99-.8 1.64-2 1.64h-1.06v1.89h-.73v-5.17zm.73.65v1.98h1.15c.69 0 1.15-.4 1.15-.99 0-.6-.46-.98-1.15-.98l-1.15-.01zM26.17 37.23h3.28v.69h-2.56v1.55h2.23v.69h-2.23v1.56h2.56v.69h-3.28v-5.18zM31.25 38.42v3.98h-.73v-5.17h.79l2.86 4.01v-4.01h.73v5.17h-.79l-2.86-3.98zM36.33 37.24h1.58c1.72 0 2.91 1.06 2.91 2.58s-1.16 2.58-2.84 2.58h-1.65v-5.16zm.75.69v3.79h.85c1.28 0 2.12-.75 2.12-1.89 0-1.15-.84-1.9-2.12-1.9h-.85zM44.93 41.08h-2.47l-.53 1.32h-.77l2.13-5.17h.85l2.13 5.17h-.81l-.53-1.32zm-1.24-3.07-.97 2.42h1.94l-.97-2.42zM47.89 38.42v3.98h-.73v-5.17h.79l2.86 4.01v-4.01h.73v5.17h-.79l-2.86-3.98zM54.73 37.92v4.48H54v-4.48h-1.64v-.69h4.01v.69h-1.64z"/>
    </g>
    <g fill="#CE153E">
      <path d="M2.73 8.59h2.91c2.61 0 4.54 1.7 4.54 4.02 0 2.3-1.93 3.99-4.54 3.99H2.73V8.59zm2.13 1.93v4.14h.76c1.41 0 2.35-.82 2.35-2.07 0-1.24-.94-2.06-2.36-2.06l-.75-.01zM11.31 8.59h5.32v1.94h-3.26v1.05h2.76v1.94h-2.76v1.15h3.26v1.94h-5.32V8.59zM20.25 8.59h2.06v6.07h3.64v1.94h-5.7V8.59zM26.72 10.93h-1.46L25.58 8h1.9l-.76 2.93zM28.54 8.59h5.32v1.94H30.6v1.05h2.76v1.94H30.6v1.15h3.26v1.94h-5.32V8.59zM39.53 11.27c-.35-.5-.97-.92-1.75-.93-.51 0-.76.2-.76.49 0 1.04 3.91.56 3.91 3.36 0 1.49-1.31 2.6-3.2 2.6-1.81 0-2.75-.71-3.25-1.5l1.46-1.37c.46.64 1.09.94 1.82.94.62 0 .95-.2.95-.57 0-1.09-3.91-.58-3.91-3.4 0-1.44 1.29-2.47 3.06-2.47 1.39 0 2.46.6 3.06 1.46l-1.39 1.39zM46.54 11.27c-.35-.5-.97-.92-1.75-.93-.51 0-.76.2-.76.49 0 1.04 3.91.56 3.91 3.36 0 1.49-1.31 2.6-3.2 2.6-1.81 0-2.75-.71-3.25-1.5l1.46-1.37c.46.64 1.09.94 1.82.94.62 0 .95-.2.95-.57 0-1.09-3.91-.58-3.91-3.4 0-1.44 1.29-2.47 3.06-2.47 1.39 0 2.46.6 3.06 1.46l-1.39 1.39zM49 8.6h5.32v1.94h-3.26v1.05h2.76v1.94h-2.76v1.15h3.26v1.94H49V8.6zM57.51 12.05v4.56h-2.06V8.6h2.21l2.94 4.64V8.6h2.06v8.01h-2.21l-2.94-4.56zM69.63 11.18c-.37-.39-1-.7-1.67-.7-1.1 0-1.96.95-1.96 2.12 0 1.17.86 2.14 2.06 2.14.59 0 1.21-.26 1.57-.7L71 15.56c-.68.81-1.69 1.24-3.09 1.24a4.13 4.13 0 0 1-4.14-4.2 4.17 4.17 0 0 1 4.15-4.19c1.45 0 2.44.48 3.07 1.19l-1.36 1.58zM71.94 8.6h5.32v1.94H74v1.05h2.76v1.94H74v1.15h3.26v1.94h-5.32V8.6z"/>
    </g>
    <g>
      <g fill="#CE153E">
        <path d="M17.02 31.64a4.13 4.13 0 0 1-4.14-4.2 4.17 4.17 0 0 1 4.15-4.19c1.45 0 2.44.48 3.07 1.19l-1.38 1.57c-.37-.39-1-.7-1.67-.7-1.1 0-1.96.95-1.96 2.12 0 1.17.86 2.14 2.06 2.14.34 0 .67-.07.98-.22v-1.89h2.06v3.2c-.67.57-1.73.98-3.17.98zM21.57 23.44h2.91c2.04 0 3.39 1.05 3.39 2.65 0 1.04-.55 1.85-1.49 2.3l1.69 3.06h-2.39l-1.37-2.67h-.67v2.67h-2.06l-.01-8.01zm2.06 1.81v1.71h1.01c.62 0 1.04-.35 1.04-.87 0-.5-.41-.84-1.04-.84h-1.01zM34.41 29.94h-3.14l-.55 1.51h-2.16l3.13-8.01h2.42l3.12 8.01h-2.27l-.55-1.51zm-1.56-4.31-.91 2.49h1.81l-.9-2.49zM40.74 25.38v6.07h-2.06v-6.07h-2.19v-1.94h6.45v1.94h-2.2zM43.75 23.45h2.06v4.54c0 .96.55 1.6 1.39 1.6.81 0 1.35-.62 1.35-1.59v-4.55h2.06v4.59c0 2.17-1.38 3.61-3.45 3.61-2.05 0-3.41-1.44-3.41-3.61v-4.59zM52.05 23.45h2.06v8.01h-2.06v-8.01zM59.23 25.39v6.07h-2.06v-6.07h-2.19v-1.94h6.45v1.94h-2.2zM62.3 23.45h5.32v1.94h-3.26v1.05h2.76v1.94h-2.76v1.15h3.26v1.94H62.3v-8.02z"/>
      </g>
    </g>
    <g fill="#CE1F3F">
      <path d="M50.49 91.83a.72.72 0 0 1-.72-.72V62.75c0-1.17-.95-2.12-2.12-2.12H33.62c-1.17 0-2.12.95-2.12 2.12V91.1c0 .4-.32.72-.72.72s-.72-.32-.72-.72V62.75c0-1.97 1.6-3.56 3.56-3.56h14.03c1.97 0 3.56 1.6 3.56 3.56V91.1c0 .4-.32.73-.72.73z"/>
      <path d="M46.22 74.22H35.04c-.64 0-1.16-.52-1.16-1.16v-8.98c0-.64.52-1.16 1.16-1.16h11.18c.64 0 1.16.52 1.16 1.16v8.98c0 .64-.52 1.16-1.16 1.16zm-10.89-1.45h10.61v-8.41H35.33v8.41zm10.89-8.4zM51.65 98.33H29.61a2.5 2.5 0 0 1 0-5h22.04a2.5 2.5 0 0 1 0 5zm-22.04-3.55a1.05 1.05 0 1 0 0 2.1h22.04a1.05 1.05 0 1 0 0-2.1H29.61zM55.09 88.92a2.51 2.51 0 0 1-2.51-2.51V75.86c0-.58-.48-1.06-1.06-1.06h-.66c-.4 0-.72-.32-.72-.72s.32-.72.72-.72h.66a2.51 2.51 0 0 1 2.51 2.51v10.55c0 .58.48 1.06 1.06 1.06.58 0 1.06-.48 1.06-1.06V65.94l-3.44-2.42a.72.72 0 0 1-.18-1.01.72.72 0 0 1 1.01-.18l3.75 2.63c.19.14.31.36.31.59v20.84c0 1.4-1.12 2.53-2.51 2.53z"/>
      <path d="M56.33 68.93a.36.36 0 0 1-.22-.07l-1.56-1.16a.38.38 0 0 1-.15-.3v-2.41a.37.37 0 1 1 .74 0v2.22l1.41 1.05c.16.12.2.36.08.52a.37.37 0 0 1-.3.15z"/>
    </g>
  </g>
</svg>
