<svg xmlns="http://www.w3.org/2000/svg" width="80" height="100" viewBox="0 0 80 100">
  <g>
    <g>
      <path fill="none" stroke="#CE1F3F" stroke-linecap="round" stroke-linejoin="round" stroke-miterlimit="10" stroke-width="2.4" d="M71.1 63.12c-1.21-2.25-2.08-3.87-11.52-1.18a34.26 34.26 0 0 0-8.43 3.63l-2.32 1.41-24.68-7.13-6.84 3.68 16.57 12.53-10.22 6.2-10.65-3.14-4.42 2.37 10.59 10.66 39.99-18.86c2.74-1.34 13.91-6.47 11.93-10.17z"/>
    </g>
    <g fill="#CE153E">
      <path d="M10.42 4.29h2.05c.9 0 1.6.59 1.6 1.39 0 .61-.44.97-.79 1.1.52.15.96.56.96 1.24 0 .77-.63 1.43-1.65 1.43h-2.18l.01-5.16zm.73 2.83V8.8h1.36c.56 0 .98-.36.98-.84s-.42-.84-.97-.84h-1.37zm0-2.18v1.57h1.25c.52 0 .92-.34.92-.78s-.39-.79-.92-.79h-1.25zM20.35 6.88a2.66 2.66 0 0 1-2.65 2.67 2.66 2.66 0 0 1-2.64-2.68 2.67 2.67 0 0 1 2.65-2.68 2.67 2.67 0 0 1 2.64 2.69zm-.77 0c0-1.09-.84-1.98-1.88-1.98-1.03 0-1.87.88-1.87 1.97 0 1.08.84 1.96 1.87 1.96 1.04 0 1.88-.88 1.88-1.95zM22.24 5.47v3.98h-.73V4.28h.79l2.86 4.01V4.28h.73v5.17h-.79l-2.86-3.98zM29.16 4.29h1.58c1.72 0 2.91 1.06 2.91 2.58s-1.16 2.58-2.84 2.58h-1.65V4.29zm.75.69v3.79h.85c1.28 0 2.12-.75 2.12-1.89s-.84-1.89-2.12-1.89l-.85-.01zM34.83 4.29h3.28v.69h-2.56v1.55h2.23v.69h-2.23v1.56h2.56v.69h-3.28V4.29zM42.9 8.65l1.61-4.36h.76L43.3 9.46h-.85l-1.97-5.17h.81l1.61 4.36zM50.86 6.89a2.66 2.66 0 0 1-2.65 2.67 2.66 2.66 0 0 1-2.64-2.68 2.67 2.67 0 0 1 2.65-2.68 2.66 2.66 0 0 1 2.64 2.69zm-.78 0c0-1.09-.84-1.98-1.88-1.98-1.03 0-1.87.88-1.87 1.97 0 1.08.84 1.96 1.87 1.96 1.05 0 1.88-.88 1.88-1.95zM52.96 7.72l-1.92-3.43h.81l1.48 2.66 1.5-2.66h.77l-1.92 3.43v1.74h-.73l.01-1.74zM59.09 8.14h-2.47l-.52 1.32h-.77l2.13-5.17h.85l2.13 5.17h-.81l-.54-1.32zm-1.23-3.07-.97 2.42h1.94l-.97-2.42zM63.43 9.56c-1.5 0-2.65-1.2-2.65-2.68a2.66 2.66 0 0 1 2.64-2.68c.82 0 1.39.23 1.85.65l-.48.56a2.1 2.1 0 0 0-1.37-.49c-1.03 0-1.86.88-1.86 1.97 0 1.08.83 1.96 1.93 1.96.4 0 .77-.09 1.08-.24V6.93h.73v2.14c-.49.32-1.1.49-1.87.49zM66.58 4.3h3.28v.69H67.3v1.55h2.23v.69H67.3v1.56h2.56v.69h-3.28V4.3zM12.08 21.64H7.76l-.93 2.31H5.49l3.73-9.04h1.5l3.72 9.04h-1.42l-.94-2.31zm-2.15-5.37-1.7 4.23h3.4l-1.7-4.23zM16.02 14.92h1.27v9.04h-1.27v-9.04zM19.86 14.92h3.16c1.99 0 3.3 1.07 3.3 2.72 0 1.28-.8 2.23-2.1 2.58l2.26 3.74H25l-2.12-3.58h-1.76v3.58h-1.27l.01-9.04zm1.27 1.14v3.17h2c1.11 0 1.86-.63 1.86-1.59 0-.96-.75-1.58-1.86-1.58h-2zM33.03 16.95v7.01h-1.27v-9.04h1.47l3.26 5.18 3.25-5.18h1.3v9.04h-1.27v-7.01l-3.36 5.23-3.38-5.23zM43.59 14.92h1.27v9.04h-1.27v-9.04zM47.43 14.92h1.27v7.84h4.68v1.2h-5.95v-9.04zM54.96 14.93h5.74v1.2h-4.47v2.71h3.91v1.2h-3.91v2.74h4.47v1.2h-5.74v-9.05zM67.6 17.03a2.82 2.82 0 0 0-2.24-1.07c-1.09 0-1.76.48-1.76 1.21 0 1.99 5.05 1.09 5.05 4.3 0 1.59-1.3 2.67-3.32 2.67-1.69 0-2.79-.66-3.41-1.54l.92-.86c.61.79 1.48 1.2 2.51 1.2 1.24 0 1.95-.54 1.95-1.38 0-2.2-5.05-1.23-5.05-4.35 0-1.45 1.28-2.45 3.16-2.45 1.41 0 2.55.62 3.1 1.4l-.91.87zM69.9 16.18v1.75h-.32v-2.26h.37l.81 1.29.81-1.29h.32v2.26h-.32v-1.75l-.84 1.31-.83-1.31zM72.54 15.67h.69c.75 0 1.27.46 1.27 1.13 0 .67-.51 1.13-1.24 1.13h-.72v-2.26zm.33.3v1.66h.37c.56 0 .93-.33.93-.83 0-.5-.37-.83-.93-.83h-.37zM33.93 27.67h1.58c1.72 0 2.91 1.06 2.91 2.58s-1.16 2.58-2.84 2.58h-1.65v-5.16zm.75.68v3.79h.85c1.28 0 2.12-.75 2.12-1.89s-.84-1.89-2.12-1.89l-.85-.01zM39.6 27.66h3.28v.69h-2.56v1.55h2.23v.69h-2.23v1.56h2.56v.69H39.6v-5.18zM17.52 44.03c0-.8-.62-1.33-1.58-1.33-.8 0-1.39.24-1.85.52l-1.25-.92.87-5.67h5.93v2.44H16l-.23 1.33c.23-.05.61-.07.8-.07 2.25 0 3.74 1.49 3.74 3.74C20.31 46.42 18.6 48 16 48c-1.87 0-3.24-.83-3.93-1.98l2.03-1.8c.5.8 1.14 1.16 1.85 1.16.95 0 1.57-.54 1.57-1.35zM24.92 42.19c0-3.36 1.91-5.82 4.51-5.82 2.72 0 4.68 2.46 4.64 5.81.04 3.36-1.87 5.82-4.5 5.82-2.69 0-4.65-2.46-4.65-5.81zm6.36 0c0-1.92-.69-3.21-1.84-3.21-1.04 0-1.73 1.26-1.73 3.19 0 1.94.71 3.21 1.8 3.21 1.1 0 1.77-1.26 1.77-3.19zM35.22 42.19c0-3.36 1.91-5.82 4.51-5.82 2.72 0 4.68 2.46 4.64 5.81.03 3.36-1.88 5.82-4.51 5.82-2.69 0-4.64-2.46-4.64-5.81zm6.36.01c0-1.92-.69-3.21-1.84-3.21-1.04 0-1.73 1.26-1.73 3.19 0 1.94.71 3.21 1.8 3.21 1.09-.01 1.77-1.27 1.77-3.19zM45.51 42.2c0-3.36 1.91-5.82 4.51-5.82 2.72 0 4.68 2.46 4.64 5.81.03 3.36-1.87 5.82-4.51 5.82-2.68-.01-4.64-2.47-4.64-5.81zm6.36 0c0-1.92-.69-3.21-1.84-3.21-1.04 0-1.73 1.26-1.73 3.19 0 1.94.71 3.21 1.8 3.21s1.77-1.27 1.77-3.19zM65.79 40.52a2.98 2.98 0 0 0-2.43-1.28c-.71 0-1.06.28-1.06.68 0 1.33 5.42.71 5.42 4.32 0 1.66-1.2 3-3.03 3.45v1.72h-2.32V47.8c-1.92-.21-2.98-1.07-3.59-2.03l2.03-1.91a3 3 0 0 0 2.53 1.3c.87 0 1.32-.28 1.32-.8 0-1.4-5.42-.75-5.42-4.37 0-1.68 1.27-2.96 3.14-3.33V35h2.32v1.68a4.7 4.7 0 0 1 3.03 1.91l-1.94 1.93z"/>
    </g>
  </g>
</svg>
