<svg xmlns="http://www.w3.org/2000/svg" width="752" height="850" viewBox="0 0 752 850">
<style>
  /* <![CDATA[ */

  #squirrel {
    opacity: 0;
    transform: translate(376px, 380px) scale(1) translate(-376px, -380px) translate(181px, 490px) rotate(0deg) translate(-181px, -490px);
    animation: squirrel 1.6s ease-out forwards;
  }

  @keyframes squirrel {
    0% {
      opacity: 0;
      transform: translate(376px, 380px) scale(.1) translate(-376px, -380px) translate(181px, 490px) rotate(0deg) translate(-181px, -490px);
    }
    10%, 80% {
      opacity: 1;
    }
    100% {
      opacity: 0;
      transform: translate(376px, 380px) scale(2) translate(-376px, -380px) translate(181px, 490px) rotate(360deg) translate(-181px, -490px);
    }
  }

  #bike {
    opacity: 0;
    transform: translate(376px, 380px) scale(1) translate(-376px, -380px) translate(133px, 315px) rotate(0deg) translate(-133px, -315px);
    animation: bike 1.6s ease-out forwards;
  }

  @keyframes bike {
    0% {
      opacity: 0;
      transform: translate(376px, 380px) scale(.1) translate(-376px, -380px) translate(133px, 315px) rotate(0deg) translate(-133px, -315px);
    }
    10%, 80% {
      opacity: 1;
    }
    100% {
      opacity: 0;
      transform: translate(376px, 380px) scale(2) translate(-376px, -380px) translate(133px, 315px) rotate(360deg) translate(-133px, -315px);
    }
  }

  #bbq {
    opacity: 0;
    transform: translate(376px, 380px) scale(1) translate(-376px, -380px) translate(343px, 172px) rotate(0deg) translate(-343px, -172px);
    animation: bbq 1.6s ease-out forwards;
  }

  @keyframes bbq {
    0% {
      opacity: 0;
      transform: translate(376px, 380px) scale(.1) translate(-376px, -380px) translate(343px, 172px) rotate(0deg) translate(-343px, -172px);
    }
    10%, 80% {
      opacity: 1;
    }
    100% {
      opacity: 0;
      transform: translate(376px, 380px) scale(2) translate(-376px, -380px) translate(343px, 172px) rotate(360deg) translate(-343px, -172px);
    }
  }

  #table {
    opacity: 0;
    transform: translate(376px, 380px) scale(1) translate(-376px, -380px) translate(559px, 242px) rotate(0deg) translate(-559px, -242px);
    animation: table 1.6s ease-out forwards;
  }

  @keyframes table {
    0% {
      opacity: 0;
      transform: translate(376px, 380px) scale(.1) translate(-376px, -380px) translate(559px, 242px) rotate(0deg) translate(-559px, -242px);
    }
    10%, 80% {
      opacity: 1;
    }
    100% {
      opacity: 0;
      transform: translate(376px, 380px) scale(2) translate(-376px, -380px) translate(559px, 242px) rotate(360deg) translate(-559px, -242px);
    }
  }

  #backpack {
    opacity: 0;
    transform: translate(376px, 380px) scale(1) translate(-376px, -380px) translate(615px, 359px) rotate(0deg) translate(-615px, -359px);
    animation: backpack 1.6s ease-out forwards;
  }

  @keyframes backpack {
    0% {
      opacity: 0;
      transform: translate(376px, 380px) scale(.1) translate(-376px, -380px) translate(615px, 359px) rotate(0deg) translate(-615px, -359px);
    }
    10%, 80% {
      opacity: 1;
    }
    100% {
      opacity: 0;
      transform: translate(376px, 380px) scale(2) translate(-376px, -380px) translate(615px, 359px) rotate(360deg) translate(-615px, -359px);
    }
  }

  #camera {
    opacity: 0;
    transform: translate(376px, 380px) scale(1) translate(-376px, -380px) translate(552px, 496px) rotate(0deg) translate(-552px, -496px);
    animation: camera 1.6s ease-out forwards;
  }

  @keyframes camera {
    0% {
      opacity: 0;
      transform: translate(376px, 380px) scale(.1) translate(-376px, -380px) translate(552px, 496px) rotate(0deg) translate(-552px, -496px);
    }
    10%, 80% {
      opacity: 1;
    }
    100% {
      opacity: 0;
      transform: translate(376px, 380px) scale(2) translate(-376px, -380px) translate(552px, 496px) rotate(360deg) translate(-552px, -496px);
    }
  }

  /* ]]> */
  </style>
  <path id="squirrel" fill="#FFF" fill-rule="evenodd" d="M230.42 472.61a138.18 138.18 0 0 0-3.91-5.94c-2.41-3.48-5.49-6.03-9.62-6.82a9.1 9.1 0 0 1-1.85-.53c-.3-.05-.62-.17-.98-.37a4.43 4.43 0 0 1-.74-.46 7.77 7.77 0 0 1-2.15-2.07v-.01c-.35-.53-.7-.97-1.03-1.36-1.96-1.95-3.43-1.66-3.87-1.48-.7.37-1.05 1.02-.71 1.76l.09.17.01.02c.1.2.2.39.28.59a5.44 5.44 0 0 1-.39 5.5 19.18 19.18 0 0 0-2.53 5.11c-1.26 4.56-4.49 6.55-8.58 7.49-3.21.73-6.52 1.06-9.72 1.85-4.67 1.14-8.65 3.72-12.24 6.89-6.06 5.34-9.77 12.05-10.51 20.4-.48 5.36.5 10.42 3.49 14.98.79 1.3.18 1.9-.65 1.01-.24-.27-.46-.55-.68-.84-4.36-5.82-5.11-12.55-4-19.4 1.51-9.32 7.13-15.96 14.25-21.24l.77-.59c2.97-2.32 5.82-6.17 4.13-14.45a11.1 11.1 0 0 0-1.3-3.61c-3.87-6.79-9.87-10.32-17.32-10.85-6.04-.43-11.53 1.64-16.37 5.14a39.54 39.54 0 0 0-13.13 16.07 21.52 21.52 0 0 0-2 7.86c.07 2.53 2.06 7.36 6.44 4.61 1.73-1.15 3.24-2.64 4.81-4.03 2.07-1.83 4.06-3.78 6.81-4.56a5.3 5.3 0 0 1 6.61 5.69 19.64 19.64 0 0 1-.68 3.31c-1.01 3.67-2.23 7.28-3.09 10.99-2.63 11.32.37 21.39 8.06 29.79 4.55 4.97 9.79 7.71 15.46 8.66h.01c8.7 1.99 13.69-.61 15.47-1.99a26.5 26.5 0 0 1 5.49-3.42c3.07-1.13 7.1-2.07 9.57-1.77 3.24.39 5.92-.53 6.81-.75 3.39-1.03 6.78-2.07 10.16-3.12 1.47-.45 1.82-1.14 1.37-2.65a3.28 3.28 0 0 0-3.39-2.46c-1.94.06-3.88.51-5.78.93-.47.1-.93.23-1.4.37-2.16.66-2.68-.68-2.28-1.71.77-1.93 1.58-3.84 2.11-5.84 1.1-4.21.28-8.51-1.95-11.91a16.94 16.94 0 0 0-2.27-2.52c-7.61-6-12.85 1.57-13.72 3.5-.68 1.71-1.16 3.34-1.85 4.27-1.75 2.36-2.56-.29-1.72-2.98a16.74 16.74 0 0 1 2.14-4.66c1.1-1.98 3.21-4.56 6.83-4.87h.04l.2-.02c.91-.08 2.05-.07 3.5.14 3 .56 5.58 1.94 7.72 4.22l.05.05.29.32c1.17 1.24 4.15 3.75 8.29 1.71a10.32 10.32 0 0 0 4-4.55l.22-.42c.66-2.06 1.24-5.05 4.22-4.19h.01l.18.05.03.01c1.87.57 3.54.2 4.63-1.31.44-.85.58-1.86.13-2.78a4.6 4.6 0 0 0-.51-.76 4.79 4.79 0 0 0-3.57-1.88c-1.44-.24-3.11.14-4.66.75l-.05.02a19.8 19.8 0 0 0-6.61 4.51l-.64.74a1.6 1.6 0 0 1-.44.37c-.96.55-1.66-.81-.97-2.09.45-.83.83-1.89 1.54-2.9.52-.75.46-2.59-.78-3.53-1.07-.46-3.8-3.55-1.45-2.16 2.07 1.22 3.31 1.38 6.07 1.61.45.04 3.37-.08 5.31-.4.4-.08.79-.16 1.18-.27h.02a12.66 12.66 0 0 0 3.07-1.26c.28-.17.55-.36.8-.56.94-.99 0-2.18-.58-3.12zm-10.32-2.84a2.95 2.95 0 1 1-1.72-5.64 2.95 2.95 0 0 1 1.72 5.64z" clip-rule="evenodd"/>
  <path id="bike" fill="#FFF" d="M187.31 302.51a23.92 23.92 0 0 0-28.04-10.31l-1.94.63-1.71.56-2.23-4.05c-2.04-3.7-4.08-7.39-6.11-11.1l5.79-1.8a3.75 3.75 0 0 1 2.22 7.16 3.09 3.09 0 0 0 1.83 5.89 9.92 9.92 0 0 0-5.88-18.92l-10.53 3.27a3.09 3.09 0 0 0-2.03 3.86 3.05 3.05 0 0 0 2.87 2.16l2.42 4.66-25.73 8a2258.2 2258.2 0 0 1-11.68 3.61c-.34.1-.73.11-.8.07-1.34-1.32-2.62-2.67-3.98-4.09l-.8-.84.52-.18c.81-.28 1.57-.55 2.28-.97a25.3 25.3 0 0 0 4.12-2.96c.57-.51.54-1.81.27-2.45-.27-.64-1.62-.83-2.2-.65-2.82.84-5.83 1.76-9.18 2.8l-7.25 2.27c-1.43.45-2.17 1.53-1.93 2.81.23 1.2.66 2.43 1.24 3.56.75 1.45 1.85 1.46 2.64 1.21.18-.06.37-.13.56-.23a25.76 25.76 0 0 0 3.26-2.04c.13-.09.31-.22.46-.26.1-.03.23-.07.58.32.82.91 1.68 1.8 2.52 2.66.87.9 1.77 1.83 2.62 2.77.28.32.47.94.42 1.36-.32 2.35-.72 4.74-1.11 7.05l-.34 2.03-.25 1.37-.05.26c-2.84-.08-5.61.29-8.24 1.1a24.05 24.05 0 0 0-16.86 24.1 24.1 24.1 0 0 0 8.31 17 23.65 23.65 0 0 0 22.83 4.79c11.67-3.63 18.57-15.1 16.53-27.37l2.07-.65c2-.63 3.98-1.25 5.97-1.84l.08-.02a3.87 3.87 0 0 0 2.6-2.3 7669.2 7669.2 0 0 1 10-23.23l2.26-5.25 2-4.62.64-1.47.39.64c.61 1.02 1.18 1.98 1.83 2.9.53.75.48 1.05-.23 1.71a24.06 24.06 0 0 0-4.66 29.12 24.2 24.2 0 0 0 28.18 11.31 24.02 24.02 0 0 0 13.45-35.41zm-19.75 15.1a2.85 2.85 0 0 0 1.43-1.05c.54-.72.92-1.95-.31-3.69l-1.75-2.46c-.98-1.37-1.99-2.78-2.96-4.19a429.15 429.15 0 0 1-3.79-5.65l-1.38-2.07c.86-.49 1.8-.89 2.8-1.2a18.35 18.35 0 0 1 19.39 5.95 18.4 18.4 0 0 1 4.13 13.6c-.48 4.9-2.83 9.3-6.61 12.4a18.54 18.54 0 0 1-25.93-2.42 18.4 18.4 0 0 1 1.54-25.22l1.62 2.39c1.5 2.22 3 4.44 4.51 6.64 1.42 2.06 2.72 3.91 3.99 5.63.88 1.18 2.16 1.7 3.32 1.34zm-60.63-12.09 18.52 19.27-4.4 1.37a24.3 24.3 0 0 0-15.33-13.26l1.21-7.38zm8.66 22.38-12.99 4.04 2.18-13.37c3.7.55 9.24 5.33 10.81 9.33zm-18.27 10.15c.81.72 2.02.87 3.41.44l.09-.03c1.91-.62 3.98-1.28 6.51-2.07l4.55-1.41c1.52-.47 3.04-.93 4.55-1.41l.78-.24c1.32 5.11-1.21 13.24-7.25 17.62a18.55 18.55 0 0 1-22.41-.52c-6.38-5.11-8.68-14.21-5.46-21.63 2.17-5 6.38-8.8 11.55-10.4 1.88-.58 3.81-.84 5.61-.76l-.12.89-.73 4.52c-.61 3.81-1.24 7.74-1.94 11.59-.25 1.48.05 2.69.86 3.41zm45.61-47.3-13.15 30.51-19.55-20.35 32.7-10.16z"/>
  <g id="bbq" fill="#FFF">
    <path d="m362.73 200.78-2.8-12.92a31.57 31.57 0 0 0 14.8-26.76h-63.22a31.56 31.56 0 0 0 14.8 26.76l-5.92 27.3a3.99 3.99 0 0 0 7.79 1.69l2.29-10.55h23.49a9.6 9.6 0 0 0 6.79 13.5c.49.15 1.01.22 1.54.17l.37.02a9.6 9.6 0 0 0 .07-19.21zm-45.92-35.88h4.77c.7 8.59 7.92 15.87 17.08 15.92 1.65.02 3.26.79 3.53 2.08.27 1.28-1.39 2.69-3.58 2.67-11.82-.07-21.09-9.56-21.8-20.67zm15.18 34.38 1.73-7.98a31.69 31.69 0 0 0 18.8 0l1.73 7.98h-22.26zm30.66 15.09a4 4 0 0 1 0-7.97 3.98 3.98 0 0 1 0 7.97zM339.84 140.8l1.27 1.37a7.8 7.8 0 0 1 2.14 5.85 7.8 7.8 0 0 1-3.1 5.42l-.65.55-.51.44.58 1.01.3-.15c.54-.27 1.09-.53 1.64-.78a29.86 29.86 0 0 0 3.59-1.87c4.11-2.64 4.93-6.36 2.32-10.45-.97-1.53-2.13-2.96-3.25-4.35l-.66-.82c-2.04-2.55-2.17-4.39-.49-7.02.55-.87 1.23-1.68 1.89-2.48.35-.42.69-.83 1.02-1.26.28-.36.54-.73.81-1.11l.92-1.29-.96.27c-4.35 1.2-7.15 3.21-8.83 6.31-1.87 3.45-1.43 6.7 1.32 9.65l.65.71zM358.08 140.8l1.27 1.37a7.8 7.8 0 0 1 2.14 5.85 7.78 7.78 0 0 1-3.11 5.42l-.65.55-.51.44.58 1.01.3-.15c.54-.27 1.09-.53 1.64-.78a29.86 29.86 0 0 0 3.59-1.87c4.11-2.64 4.93-6.36 2.32-10.45-.97-1.53-2.13-2.96-3.25-4.35l-.66-.82c-2.04-2.55-2.17-4.39-.49-7.02.55-.87 1.23-1.68 1.89-2.48l1.03-1.26c.28-.36.54-.73.81-1.11l.92-1.29-.96.27c-4.35 1.2-7.16 3.21-8.83 6.31-1.87 3.45-1.43 6.7 1.32 9.65l.65.71zM321.6 140.8l1.27 1.37a7.8 7.8 0 0 1 2.14 5.85 7.8 7.8 0 0 1-3.1 5.42l-.65.55-.51.44.58 1.01.3-.15c.54-.27 1.09-.53 1.64-.78a29.86 29.86 0 0 0 3.59-1.87c4.11-2.64 4.93-6.36 2.32-10.45-.97-1.53-2.13-2.96-3.25-4.35l-.66-.82c-2.04-2.55-2.17-4.39-.49-7.02.55-.87 1.23-1.68 1.89-2.48.35-.42.69-.83 1.02-1.26.28-.36.54-.73.81-1.11l.92-1.29-.96.27c-4.35 1.2-7.15 3.21-8.84 6.31-1.87 3.45-1.43 6.7 1.32 9.65l.66.71z"/>
  </g>
  <path id="table" fill="#FFF" fill-rule="evenodd" d="m600.46 226.11-21.59 5.17-7.83-12.11c4.37-1.05 8.73-2.14 13.12-3.13.27-.06.49-.14.66-.25l2.12-.51c1.45-.35 2.27-2.13 1.82-3.97l-1.98-8.28c-.44-1.85-1.98-3.06-3.43-2.71l-66.43 15.9c-1.45.35-2.27 2.13-1.82 3.97l1.98 8.28c.44 1.85 1.98 3.06 3.43 2.71l12.91-3.09v.08l1.84-.43c.36-.08.73-.08 1.17-.09l-1.47 14.13-21.59 5.17c-1.47.35-2.23 2.43-1.7 4.64l.14.57.32 1.35 1.35 5.62c.43 1.81 1.96 2.99 3.41 2.64l9.11-2.18c1.45-.35 2.27-2.09 1.84-3.9l-.38-1.6.64-.17 5.74-1.37-2.72 26.07c-.22 2.12 1.05 4.03 2.84 4.25l4.86.61c1.79.22 3.42-1.32 3.64-3.44l3.16-30.31 27.34-6.55 16.55 25.59c1.16 1.79 3.31 2.43 4.81 1.42l4.06-2.75c1.49-1.01 1.77-3.29.6-5.08l-14.23-22.01 5.53-1.32c.52 0 .89.26 1.11.89l.12.52.01.04.02.14c.08.62.27.98.56 1.17.69 1 1.77 1.55 2.82 1.3l9.11-2.18c1.45-.35 2.28-2.09 1.84-3.9l-1.35-5.62-.32-1.35-.14-.57c-.52-2.21-2.14-3.71-3.6-3.36zm-52.22-1.5 11-2.63 7.83 12.12-20.33 4.87 1.5-14.36z" clip-rule="evenodd"/>
  <g id="backpack" fill="#FFF" fill-rule="evenodd" clip-rule="evenodd">
    <path d="M590.07 341.62c.03 6.88 2.7 12.34 8.74 15.89 4.41 2.6 8.88 5.1 13.33 7.65l6.63 3.8 6.7 3.84a16.33 16.33 0 0 0 18.11-1.28c.19-.14.41-.28.51-.48 1.21-2.33 2.66-4.58 3.54-7.04a20.1 20.1 0 0 0 1.14-7.49c3.43-5.98 9.37-16.34 11.64-20.33.64-1.13.37-2.23-.76-2.9a242.94 242.94 0 0 0-7-4.01c-1.11-.61-2.16-.26-2.79.84l-6.3 10.99a31.6 31.6 0 0 0-7.59-7.95c-4.22-3.13-8.69-5.72-13.83-7.02-1.2-.3-2.39-.55-3.59-.74 1.73-2.98 4.81-8.38 5.54-9.66.83-1.47.57-2.49-.88-3.33a830.56 830.56 0 0 0-6.47-3.71c-1.49-.84-2.53-.55-3.4.95l-6.45 11.24-.45.87c.12.01-1.46 2.89-2.52 4.83-3.67 1.33-6.85 3.41-9.11 6.68-1.7 2.45-3.09 5.11-4.6 7.69-.13.17-.14.44-.14.67zm44.01 20.46a3.8 3.8 0 0 1 1.43 5.21 3.79 3.79 0 0 1-5.29 1.38 3.82 3.82 0 0 1-1.37-5.17 3.85 3.85 0 0 1 5.23-1.42zm-30.44-17.43a3.85 3.85 0 0 1 1.47 5.23 3.82 3.82 0 0 1-5.24 1.4 3.75 3.75 0 0 1-1.39-5.22 3.78 3.78 0 0 1 5.16-1.41z"/>
    <path d="M633.18 327.76a35.38 35.38 0 0 1 7.6 6.17 8.5 8.5 0 0 0-1.85-9.64 17.85 17.85 0 0 0-3.5-2.38 9.07 9.07 0 0 0-11.31 2.07c3.28.85 6.26 2.1 9.06 3.78zM639.8 378.48l-.16-.3c-.32.16-.63.38-.97.46-5.07 1.2-9.98.74-14.53-1.82-9.42-5.3-18.79-10.68-28.14-16.11-4.73-2.75-7.78-6.9-9.45-12.09l-.31-.81-.38.67-11.79 20.58c-1.35 2.36-2.72 4.73-3.86 7.19-1.17 2.52-1.4 5.15.32 7.61 1.38 1.98 3.41 3.13 5.59 4.25l33.84 19.39-.01.02c.92.52 1.73 1.07 2.61 1.48a8.47 8.47 0 0 0 8.39-.47 11.28 11.28 0 0 0 3.93-4.13l14.58-25.22c.15-.25.24-.48.34-.7zm-17.92 12.61-2.53 6.68c-.23.67-1.59 1.13-2.75.47-1.16-.66-1.45-2.07-.99-2.61l4.48-5.56c.1-.12.2-.21.31-.29l-35.14-20.13a2.13 2.13 0 1 1 2.12-3.7l36.23 20.75a2.13 2.13 0 0 1-1.63 3.9c-.01.16-.04.32-.1.49z"/>
  </g>
  <g id="camera" fill="#FFF" fill-rule="evenodd" clip-rule="evenodd">
    <path d="M554.86 485.82a16.09 16.09 0 0 0-18.74 13.05c-1.52 8.61 4.34 16.76 13.19 18.34 8.6 1.53 16.76-4.27 18.35-13.05 1.51-8.36-4.41-16.84-12.8-18.34zm8.71 18.71a9.18 9.18 0 0 1-1.27 2.59 17.75 17.75 0 0 1-6.5 5.44 6.42 6.42 0 0 1-3.92.64c-1.97-.29-2.88-1.59-2.5-3.55a6.06 6.06 0 0 1 2.42-3.58 19.81 19.81 0 0 1 9.38-3.56c.37-.05.75 0 1.12.06 1.11.2 1.62.87 1.27 1.96z"/>
    <path d="M602.27 488.68c.64-4.39-1.31-7.87-5.38-9.64a26.86 26.86 0 0 0-4.86-1.42c-2.85-.63-5.73-1.11-8.59-1.71a5.3 5.3 0 0 1-1.45-.53l-.12-.02.49-7.38c.56-2.94-.87-5.68-3.21-6.13l-39.13-7.51c-2.34-.45-5.53 1.41-6.1 4.34l-2.37 7.31-2.45-.46.11-.57a4.4 4.4 0 0 0-3.49-5.15l-3.35-.64a4.4 4.4 0 0 0-5.15 3.49l-.27 1.38a7.95 7.95 0 0 0-5.94 4.16 16.48 16.48 0 0 0-1.72 4.94c-2.19 11.02-4.3 22.06-6.41 33.1-.5 2.62-1.01 5.24-1.35 7.89-.55 4.27 1.44 7.75 5.38 9.48 1.14.5 2.37.82 3.6 1.05 11.86 2.3 23.74 4.57 35.6 6.85l-.01.06c7.31 1.4 14.61 2.82 21.92 4.2 5.12.97 10.23 1.99 15.37 2.83 4.56.75 8.24-1.23 10.01-5.24a17 17 0 0 0 1.05-3.5c1.91-9.7 3.8-19.41 5.66-29.12.79-4.02 1.57-8.03 2.16-12.06zm-86.47 25.15a2.8 2.8 0 0 1-5.51-1.05l7.15-37.26a2.8 2.8 0 0 1 5.51 1.05l-7.15 37.26zm32.23 8.02a21.12 21.12 0 0 1-16.79-24.57c2.13-11.56 13-18.94 24.66-16.75a21.02 21.02 0 0 1 16.77 24.54c-2.13 11.25-13.33 18.88-24.64 16.78zm44.27-31.69-7.13-1.37a3.79 3.79 0 1 1 1.43-7.45l7.13 1.37a3.79 3.79 0 1 1-1.43 7.45z"/>
  </g>
</svg>
