<svg xmlns="http://www.w3.org/2000/svg" width="752" height="850" viewBox="0 0 752 850">
<style>
  /* <![CDATA[ */

  #sun {
    opacity: 0;
    transform: translate(376px, 380px) scale(1) translate(-376px, -380px) translate(184px, 485px) rotate(0deg) translate(-184px, -485px);
    animation: sun 1.6s ease-out forwards;
  }

  @keyframes sun {
    0% {
      opacity: 0;
      transform: translate(376px, 380px) scale(.1) translate(-376px, -380px) translate(184px, 485px) rotate(0deg) translate(-184px, -485px);
    }
    10%, 80% {
      opacity: 1;
    }
    100% {
      opacity: 0;
      transform: translate(376px, 380px) scale(2) translate(-376px, -380px) translate(184px, 485px) rotate(360deg) translate(-184px, -485px);
    }
  }

  #bucket {
    opacity: 0;
    transform: translate(376px, 380px) scale(1) translate(-376px, -380px) translate(125px, 313px) rotate(0deg) translate(-125px, -313px);
    animation: bucket 1.6s ease-out forwards;
  }

  @keyframes bucket {
    0% {
      opacity: 0;
      transform: translate(376px, 380px) scale(.1) translate(-376px, -380px) translate(125px, 313px) rotate(0deg) translate(-125px, -313px);
    }
    10%, 80% {
      opacity: 1;
    }
    100% {
      opacity: 0;
      transform: translate(376px, 380px) scale(2) translate(-376px, -380px) translate(125px, 313px) rotate(360deg) translate(-125px, -313px);
    }
  }

  #ball {
    opacity: 0;
    transform: translate(376px, 380px) scale(1) translate(-376px, -380px) translate(342px, 171px) rotate(0deg) translate(-342px, -171px);
    animation: ball 1.6s ease-out forwards;
  }

  @keyframes ball {
    0% {
      opacity: 0;
      transform: translate(376px, 380px) scale(.1) translate(-376px, -380px) translate(342px, 171px) rotate(0deg) translate(-342px, -171px);
    }
    10%, 80% {
      opacity: 1;
    }
    100% {
      opacity: 0;
      transform: translate(376px, 380px) scale(2) translate(-376px, -380px) translate(342px, 171px) rotate(360deg) translate(-342px, -171px);
    }
  }

  #glasses {
    opacity: 0;
    transform: translate(376px, 380px) scale(1) translate(-376px, -380px) translate(541px, 210px) rotate(0deg) translate(-541px, -210px);
    animation: glasses 1.6s ease-out forwards;
  }

  @keyframes glasses {
    0% {
      opacity: 0;
      transform: translate(376px, 380px) scale(.1) translate(-376px, -380px) translate(541px, 210px) rotate(0deg) translate(-541px, -210px);
    }
    10%, 80% {
      opacity: 1;
    }
    100% {
      opacity: 0;
      transform: translate(376px, 380px) scale(2) translate(-376px, -380px) translate(541px, 210px) rotate(360deg) translate(-541px, -210px);
    }
  }

  #palm {
    opacity: 0;
    transform: translate(376px, 380px) scale(1) translate(-376px, -380px) translate(615px, 339px) rotate(0deg) translate(-615px, -339px);
    animation: palm 1.6s ease-out forwards;
  }

  @keyframes palm {
    0% {
      opacity: 0;
      transform: translate(376px, 380px) scale(.1) translate(-376px, -380px) translate(615px, 339px) rotate(0deg) translate(-615px, -339px);
    }
    10%, 80% {
      opacity: 1;
    }
    100% {
      opacity: 0;
      transform: translate(376px, 380px) scale(2) translate(-376px, -380px) translate(615px, 339px) rotate(360deg) translate(-615px, -339px);
    }
  }

  #slippers {
    opacity: 0;
    transform: translate(376px, 380px) scale(1) translate(-376px, -380px) translate(580px, 493px) rotate(0deg) translate(-580px, -493px);
    animation: slippers 1.6s ease-out forwards;
  }

  @keyframes slippers {
    0% {
      opacity: 0;
      transform: translate(376px, 380px) scale(.1) translate(-376px, -380px) translate(580px, 493px) rotate(0deg) translate(-580px, -493px);
    }
    10%, 80% {
      opacity: 1;
    }
    100% {
      opacity: 0;
      transform: translate(376px, 380px) scale(2) translate(-376px, -380px) translate(580px, 493px) rotate(360deg) translate(-580px, -493px);
    }
  }

  /* ]]> */
  </style>
  <g id="sun" fill="#FFF">
    <path d="m177.59 508.86 5.74 15.83a.8.8 0 0 0 1.5 0l5.74-15.83a23.99 23.99 0 0 1-12.98 0zM190.67 462.66l-5.84-16.11a.8.8 0 0 0-1.5 0l-5.84 16.11a23.9 23.9 0 0 1 13.18 0zM160.07 485.75c0-2.32.33-4.56.95-6.68l-16.01 5.8a.8.8 0 0 0 0 1.5l15.93 5.77a24.04 24.04 0 0 1-.87-6.39zM163.09 497.39l-7.17 15.33a.8.8 0 0 0 .73 1.13.7.7 0 0 0 .34-.08l15.27-7.15a24.06 24.06 0 0 1-9.17-9.23zM163.16 473.99a24.16 24.16 0 0 1 9.34-9.26l-15.52-7.26a.8.8 0 0 0-1.06 1.06l7.24 15.46zM223.15 484.87l-16.01-5.8a23.75 23.75 0 0 1 .08 13.08l15.93-5.77c.32-.11.53-.42.53-.75s-.22-.64-.53-.76zM205.06 497.39a24.2 24.2 0 0 1-9.16 9.24l15.27 7.15a.8.8 0 0 0 .34.08h.01a.8.8 0 0 0 .69-1.2l-7.15-15.27zM205 473.99l7.24-15.46a.8.8 0 0 0-1.06-1.06l-15.52 7.26a24.16 24.16 0 0 1 9.34 9.26z"/>
    <circle cx="184.06" cy="485.73" r="20.98" transform="rotate(-14.02 184.14 485.67)"/>
  </g>
  <g id="bucket" fill="#FFF">
    <path d="m168.8 345.9-14.1-3.49-3.04-25.62-65.8 16.59 15.82 39.94a2.12 2.12 0 0 0 2.49 1.27l50.97-12.85a2.13 2.13 0 0 0 1.59-2.31l-1.09-9.2-26.5-6.56a7.87 7.87 0 1 1-5.9-14.4 2.1 2.1 0 0 1 2.57 1.54 2.14 2.14 0 0 1-1.53 2.58 3.62 3.62 0 1 0 3.13 6.34 2.11 2.11 0 0 1 1.83-.4l25.86 6.4 12.93 3.2c.29.07.54.2.77.36h.01a1.74 1.74 0 0 0-.01-3.39zM169.74 260.05a31.27 31.27 0 0 0-4.92-3.56c-1.89-1.13-6.55-3.69-8.95-3.08a2.57 2.57 0 0 0-1.76 1.45c-.18.43-3.99 9.74.51 14.58l-10.6 17.74-3.17-1.89a8.42 8.42 0 0 0-6.41-.94 8.42 8.42 0 0 0-5.2 3.87l-6.67 11.17c1.95 1.32 3.69 2.45 5.86 3.08 1.42.42 2.9.17 4.61-.12 1.3-.22 2.65-.44 4.11-.39 2.89.1 4.98 1.33 6.94 2.82l9.99-2.52a8.47 8.47 0 0 0-3.25-11.01l-3.17-1.89 10.6-17.76c1.26.32 2.62.31 4.01-.04 2.07-.52 4.23-1.77 6.42-3.71.66-.58 1.3-1.21 1.9-1.86.39-.42.7-.76.91-1.1 1.25-2.06-1.02-4.15-1.76-4.84zm-8.5 7.4a3.48 3.48 0 0 1-2.77-.31c-1.48-.88-2.05-2.81-1.71-5.72.17-1.43.53-2.77.83-3.69a24.7 24.7 0 0 1 5.07 2.4 24.1 24.1 0 0 1 4.52 3.32c-1.37 1.41-3.71 3.44-5.94 4z"/>
    <path d="M155.13 308.41a3.17 3.17 0 0 0-1.15-1.75l-9.86 2.49a2.11 2.11 0 0 1-2.15-.7l-.06.01c-1.65-1.3-3.03-2.2-4.92-2.26-1.03-.04-2.12.14-3.26.34-1.94.32-4.14.69-6.49.01-2.68-.78-4.82-2.14-6.85-3.51l-.66-.45c-.65-.44-1.33-.9-2.01-1.34-4.8-3.07-10.24-6.54-15.46-4.4-1.88.77-5.55 5.06-10.23 14.8a107.43 107.43 0 0 0-4.42 10.52l-6.49 1.64a3.18 3.18 0 0 0 .63 6.26l71.92-18.14a3.21 3.21 0 0 0 1.46-3.52z"/>
  </g>
  <path id="ball" fill="#FFF" d="M370.21 144.06a38.64 38.64 0 0 0-27.49-11.39 38.6 38.6 0 0 0-27.49 11.39 38.64 38.64 0 0 0-11.39 27.49 38.6 38.6 0 0 0 11.39 27.49 38.64 38.64 0 0 0 27.49 11.39 38.6 38.6 0 0 0 27.49-11.39 38.64 38.64 0 0 0 11.39-27.49 38.62 38.62 0 0 0-11.39-27.49zm7.05 18.35c-2.84-2.88-7.24-4.19-9.9-4.75a9.22 9.22 0 0 0-6.32-7.94c.05-2.5-.2-6.84-2.25-10.06a35.85 35.85 0 0 1 18.47 22.75zM358.2 154a4.48 4.48 0 1 1-.01 8.95 4.48 4.48 0 0 1 .01-8.95zm-50.51 24.54a35.78 35.78 0 0 1 22.95-40.61c4.53 2.87 16.89 10.82 20.67 14.43a9.2 9.2 0 0 0-2.31 5.68c-7.52 1.38-31.51 6.74-41.31 20.5zm35.03 28.74c-4.44 0-8.68-.82-12.61-2.3 4.78-4.98 20.99-23.27 24.35-38.1a9.1 9.1 0 0 0 7.46 0c2.75 4.32 8.1 18.96 10.22 24.91a35.68 35.68 0 0 1-29.42 15.49z"/>
  <path id="glasses" fill="#FFF" d="M587.07 215.73s-13.14-24.88-24.3-27.01c-.52-.18-1.03-.33-1.5-.44a13.6 13.6 0 0 0-6.24-.12 1.86 1.86 0 0 0 .94 3.61c.35-.09 7.87-1.81 13.29 7.37a115.4 115.4 0 0 1 3.73 9.53 36.56 36.56 0 0 0-7.47-3.05l-.1-.03c-2.7-.76-7.85-1.87-12.66-1.07a13.62 13.62 0 0 0-6.11 2.5 11.14 11.14 0 0 0-4.97-2.68c-2.17-.61-4.14-.7-5.66-.31a13.45 13.45 0 0 0-3.9-5.34c-3.67-3.2-8.64-4.95-11.34-5.72l-.1-.03a36.14 36.14 0 0 0-8.15-1.33c2.26-1.85 5.23-4.18 8.21-6.2 9.43-4.98 14.93.43 15.19.68a1.87 1.87 0 0 0 2.7-2.59c-.2-.21-2.04-2.07-5.38-3.17-.46-.15-.96-.29-1.51-.41-10.62-4.04-34.85 10.28-34.85 10.28-.51 1.37-1.87 6.59-1.87 6.59-.19.66 0 1.37.49 1.85.44.43 1.42 1.48 2.24 2.64-2.74 11.48 3.04 22.92 13.24 25.86l.1.03c10.53 2.91 21.79-4.29 25.13-16.1.32-1.14.48-2.27.47-3.36.51-.19 1.92-.37 3.95.2 2 .57 3.09 1.43 3.45 1.87-.58.93-1.04 1.98-1.37 3.13-3.34 11.81 2.48 23.84 12.98 26.88l.1.03c10.27 2.84 21.23-3.93 24.87-15.22 1.25-.51 2.53-.87 3.1-1 .67-.15 1.2-.66 1.39-1.31.04.04 1.63-5.12 1.91-6.56zm-74.91 7.89c-.01 0-.01 0 0 0l-.11-.03c-6.09-1.76-10.46-7.51-11.12-14.64a1.87 1.87 0 1 1 3.73-.35c.52 5.59 3.84 10.07 8.44 11.4l.03.01.02.01.05.01a1.88 1.88 0 0 1 1.28 2.31 1.89 1.89 0 0 1-2.32 1.28zm62.1 5.63c-4.28 5.96-11.06 8.71-17.32 7.03l-.07-.02h-.01l-.1-.03a1.86 1.86 0 0 1-1.28-2.31 1.86 1.86 0 0 1 2.31-1.28h.01l.04.01c4.75 1.31 10.01-.88 13.39-5.58a1.87 1.87 0 0 1 2.61-.43c.83.61 1.02 1.78.42 2.61z"/>
  <g id="palm" fill="#FFF">
    <path d="M578.5 335.85c2.16 4.21 3.28 4.38 3.66 4.43h.01c.32.04 1.38.04 1.6-1.66 1.88-14.51 13.48-17.03 22.45-16.72a5.64 5.64 0 0 1 10.61-.23 4.02 4.02 0 1 1 3.62 6.34 4 4 0 0 1 .35 3.49 33.82 33.82 0 0 1 3.12 3.77 57.2 57.2 0 0 1 4.27 6.95c.12.24.34.41.6.46l.07.01a.9.9 0 0 0 .67-.19c3.11-2.59 2.29-8.52-1.87-13.5-.42-.5-.85-.97-1.3-1.41 1.18.34 2.39.73 3.6 1.15 6.61 2.31 14.42 6.32 14.13 12.23-.04.8.5 1.09.82 1.13.44.06 1 .12 2.48-3.11 1.45-3.17 1.05-6.94-1.14-10.61-2.13-3.57-5.7-6.63-10.07-8.63a24.71 24.71 0 0 0-7.15-2.08 20.54 20.54 0 0 0-5.07-.04c12.38-7.93 35.38-9.68 35.66-9.7.32-.02.6-.22.73-.51a.9.9 0 0 0-.1-.89c-2.9-3.78-8.04-6.39-14.11-7.17a32.53 32.53 0 0 0-10.52.4c-6.29 1.24-11.87 4.12-15.72 8.11-.9.93-1.68 1.9-2.34 2.89a26.26 26.26 0 0 0-4.85-12.25c-2.86-3.79-6.61-6.16-10.56-6.67-.86-.11-1.73-.13-2.6-.07-3.79.29-7.36 2.31-10.04 5.7a.88.88 0 0 0-.11.91c.14.3.43.49.76.51 0 0 .48.02 1.28.12 3.92.51 14.6 2.88 19.59 13.73a20.93 20.93 0 0 0-9.91-3.87 24.74 24.74 0 0 0-7.43.18 23.22 23.22 0 0 0-13.62 7.39c-3.37 3.87-4.79 8.51-4.01 13.05a28.43 28.43 0 0 0 2.44 6.36z"/>
    <path d="M610.65 329.23a5.63 5.63 0 0 1-4.71-5.6c-2.64 2.06-5 5.47-6.4 9.61-1.27 3.78-1.6 7.64-.91 10.87.72 3.39 2.47 5.72 4.93 6.55l.17.04c.2.03.41-.02.59-.13a.85.85 0 0 0 .39-.65c.01-.06.55-5.68 2.19-11.57 1.05-3.82 2.32-6.87 3.75-9.12zM624.41 347.09c-2.47 1.69-6.24 4.02-9.61 5.02.66 1.26 2.9 3.98 10.37 5.81.02-4.06-.3-7.7-.76-10.83zM612.23 329.37l.04.07c.02.04 1.62 2.97 2.45 8.39.6.66 2.93 2.88 8.88 4.85a61.13 61.13 0 0 0-3.2-10.35 4 4 0 0 1-7.2-3.26c-.32.1-.66.17-1 .21l.01.02.02.07zM615.03 340.42a49.2 49.2 0 0 1-.16 9.83c3.29-1.12 7.01-3.53 9.21-5.08l-.1-.55c-4.57-1.4-7.35-3-8.95-4.2zM624.04 370.43c.61-3.45.95-6.74 1.08-9.81-1.84 1.79-6.14 4.84-13.7 4.33a80.6 80.6 0 0 1-1.32 3.47c1.09.12 10.5 1.41 13.94 2.01zM614.27 354.37a67.72 67.72 0 0 1-2.28 8.85c3.46.15 6.59-.48 9.16-1.88a12.53 12.53 0 0 0 2.71-1.96c-4.16-1.11-7.24-2.64-9.17-4.56l-.42-.45zM655.23 384.7c-1.61-2.77-8.53-5.26-14.06-6.87a169.25 169.25 0 0 0-17.82-3.99 504.77 504.77 0 0 0-14.7-2.09 185.68 185.68 0 0 0-24.35-1.26c-5.75.15-13.08.8-15.34 3.07a.9.9 0 0 0-.21.9c.11.31.38.54.71.58L654.37 386a.9.9 0 0 0 .84-.38.92.92 0 0 0 .02-.92z"/>
    <circle cx="620.07" cy="324.03" r="2.77"/>
    <circle cx="616.96" cy="330.11" r="2.77"/>
    <path d="M615.42 324.18a3.89 3.89 0 1 0-7.7-1 3.89 3.89 0 0 0 7.7 1z"/>
  </g>
  <g id="slippers" fill="#FFF">
    <path d="M547.76 466.18a20.82 20.82 0 0 0-8.66 6.46 20.97 20.97 0 0 0-3.52 7.7c-1.63 7.23.87 15.25 7.65 24.52 2.09 2.86 4.12 5.74 6.05 8.57 2.54 3.74 5.53 8.19 8.39 12.86l.31.51c2.01 3.29 4.29 7.01 7.65 9.51 4.15 3.09 9 3.52 14.4 1.29 4.02-1.66 7.03-4.12 8.69-7.11a11.58 11.58 0 0 0 .56-10.09c-.2-.51-.44-1.02-.71-1.52-.93-1.74-1.96-3.41-2.95-5.03-1.7-2.78-3.31-5.41-4.46-8.28a74.45 74.45 0 0 1-2.93-9.18l-.95-3.74c-1.14-4.58-2.33-9.32-4.17-13.82-1.6-3.91-4.27-10.45-10.68-13.19-4.18-1.78-9.53-1.58-14.67.54zm29.67 42.6c.23 1.82.45 3.55.71 5.23a2.57 2.57 0 1 1-5.08.78c-.27-1.75-.5-3.59-.73-5.37-.9-7.15-1.84-14.55-5.52-20.1a17.5 17.5 0 0 0-4.53-4.59c-2.41-1.66-4.71-2.13-6.83-1.41l-1.71.71c-2.01.99-3.3 2.95-3.84 5.83-.39 2.07-.37 4.42.04 6.45 1.31 6.54 5.88 12.43 10.29 18.14a213.3 213.3 0 0 1 3.28 4.31 2.56 2.56 0 1 1-4.14 3.03c-1-1.37-2.06-2.75-3.19-4.2-4.55-5.88-9.71-12.55-11.26-20.27a22.6 22.6 0 0 1-.05-8.4c.67-3.58 2.26-6.39 4.64-8.25l-1.2-2.89a2.58 2.58 0 0 1 1.39-3.36 2.58 2.58 0 0 1 3.36 1.39l1.06 2.56c3.6-1.12 7.42-.38 11.09 2.14a22.56 22.56 0 0 1 5.9 5.99c4.33 6.54 5.39 14.9 6.32 22.28zM607.26 450.71a20.78 20.78 0 0 0-7.93-2.96c-3.33-.48-7.13.06-10.69 1.54-5.14 2.13-9.06 5.77-10.76 9.99-2.6 6.47.12 12.99 1.75 16.89 1.88 4.49 4.38 8.68 6.81 12.73l1.97 3.32a72.8 72.8 0 0 1 4.4 8.57c1.21 2.85 1.92 5.84 2.68 9.01.44 1.85.9 3.76 1.47 5.65.16.54.35 1.08.57 1.58a11.6 11.6 0 0 0 7.52 6.75c3.28.94 7.15.56 11.17-1.1 5.41-2.23 8.53-5.96 9.29-11.08.61-4.14-.4-8.39-1.3-12.14l-.14-.58a322.77 322.77 0 0 1-3.14-15.03c-.64-3.37-1.23-6.85-1.77-10.34-1.75-11.39-5.64-18.84-11.9-22.8zm11.72 40.89c.23 1.82.45 3.55.71 5.23a2.6 2.6 0 0 1-2.15 2.93 2.57 2.57 0 0 1-2.93-2.15c-.27-1.75-.5-3.59-.73-5.37-.9-7.15-1.84-14.55-5.52-20.11a17.65 17.65 0 0 0-4.53-4.59c-2.41-1.66-4.71-2.14-6.83-1.41l-1.71.71c-2.01.99-3.3 2.95-3.84 5.83-.39 2.07-.37 4.42.04 6.45 1.31 6.54 5.88 12.43 10.29 18.14a188.9 188.9 0 0 1 3.28 4.32 2.56 2.56 0 0 1-.56 3.59 2.56 2.56 0 0 1-3.59-.56c-1-1.37-2.07-2.75-3.19-4.2-4.55-5.88-9.71-12.55-11.26-20.27a22.6 22.6 0 0 1-.05-8.4c.82-4.38 3.01-7.6 6.34-9.35l-1.06-2.56a2.58 2.58 0 0 1 1.39-3.36 2.58 2.58 0 0 1 3.36 1.39l1.2 2.89c3-.36 6.11.5 9.11 2.57a22.67 22.67 0 0 1 5.9 5.98c4.35 6.56 5.4 14.92 6.33 22.3z"/>
  </g>
</svg>
