<svg xmlns="http://www.w3.org/2000/svg" width="520" height="174" viewBox="0 0 520 174">
  <path fill="#fff" d="M482.31.37H37.69C17.11.37.37 17 .37 37.45v99.11c0 20.44 16.74 37.08 37.31 37.08h444.63c20.57 0 37.31-16.63 37.31-37.08V37.45c0-20.44-16.74-37.07-37.31-37.07"/>
  <path fill="#010101" d="M482.31 174H37.69C16.91 174 0 157.2 0 136.55v-99.1C0 16.8 16.91 0 37.69 0h444.63c20.78 0 37.69 16.8 37.69 37.45v99.11c0 20.65-16.91 37.45-37.69 37.45ZM37.69.74C17.32.74.75 17.21.75 37.45v99.11c0 20.24 16.57 36.7 36.94 36.7h444.63c20.37 0 36.94-16.47 36.94-36.7V37.45c0-20.24-16.57-36.7-36.94-36.7H37.69Z"/>
  <path fill="#04684d" d="M37.69 163.01a26.52 26.52 0 0 1-18.79-7.78 26.19 26.19 0 0 1-7.83-18.68v-99.1a26.2 26.2 0 0 1 7.83-18.67A26.48 26.48 0 0 1 37.69 11h444.63c7.07 0 13.75 2.76 18.8 7.78a26.2 26.2 0 0 1 7.83 18.67v99.11c0 7.03-2.79 13.66-7.83 18.68a26.52 26.52 0 0 1-18.8 7.78H37.69Z"/>
</svg>