<svg xmlns="http://www.w3.org/2000/svg" width="97" height="197" viewBox="0 0 97 197">
  <g id="car-blue" stroke-width="0">
    <path fill="#2478be" d="m93.68 152.08-2.78-12.59V76.13l2.51-15.56a76.56 76.56 0 0 0-9.07-50.14l-2.91-5.1a10.58 10.58 0 0 0-9.19-5.34h-47.9c-3.8 0-7.31 2.04-9.19 5.34l-2.91 5.1a76.56 76.56 0 0 0-9.07 50.14l2.51 15.56v63.36L2.9 152.08a56.55 56.55 0 0 0 2.95 34.14c1.78 4.23 3.77 7.52 5.52 9.26h73.85c1.75-1.74 3.74-5.03 5.52-9.26a56.61 56.61 0 0 0 2.95-34.14Z"/>
    <path fill="#252829" d="M10.98 59.07h5.95v3.7h-5.95z"/>
    <path fill="#3c4142" d="M11.07 59.07a9.94 9.94 0 0 0-8.24 4.38l-.93 1.38a9.92 9.92 0 0 0-1.41 3.13 6.18 6.18 0 0 0 .54 4.3v.02L11.08 67v-7.93Z"/>
    <path fill="#252829" d="M86.21 62.76h-5.95v-3.7h5.95z"/>
    <path fill="#3c4142" d="M86.12 59.07c3.3 0 6.39 1.64 8.24 4.38l.93 1.38a9.92 9.92 0 0 1 1.41 3.13 6.18 6.18 0 0 1-.54 4.3v.02L86.11 67v-7.93Z"/>
    <path fill="#e6e2e2" d="m14.33 12.38-1.89 3.73a2.16 2.16 0 0 0 2.67 3l7.71-14.23c.31-.57-.34-1.17-.89-.83a20.99 20.99 0 0 0-7.61 8.33ZM82.25 12.38l1.89 3.73a2.16 2.16 0 0 1-2.68 3L73.75 4.88c-.31-.57.34-1.17.89-.83a20.99 20.99 0 0 1 7.61 8.33Z"/>
    <path fill="#ffe90f" d="M33.17 0h8.09v42.44h-8.09zM36.66 139.39h8.09v42.44h-8.09zM59.93 181.83h-8.09v-42.44h8.09zM63.41 42.44h-8.09V0h8.09z"/>
    <path fill="#fff" d="M76.59 48.4a9.19 9.19 0 0 0-9.19-9.14H29.18a9.18 9.18 0 0 0-9.19 9.14c-.04 14.5-.02 56.63 0 85.3a28.33 28.33 0 0 0 28.09 28.27h.39a28.33 28.33 0 0 0 28.11-28.27c.02-28.66.04-70.8 0-85.3Z"/>
    <path fill="#ffe80b" d="M69.1 100.37c-.45-.85-.98-.65-3.17-.38-1.82.23-6.43.79-7.45.9-2.24.24-2.47.05-3.15.43-.86.47-.63.54-.93.36a2.2 2.2 0 0 0-1.15-.27c-.4 0-.81.04-1.18.16-.75.23-.41.08-1 .09-.63 0-1.82.29-1.82.29l.36-2.02c.07-.43-.32-.79-.92-.73l-2.9.33c-.41.05-.79.23-1.09.51s-.49.66-.58 1.08c-.05.2-.05.2-.24.22a3.6 3.6 0 0 0-1.68.53c-.37.23-.07.2-.6.03a4.31 4.31 0 0 0-3.73.74c-.2-.12-.99-.51-1.75-.41.18-.77.29-.97-.17-1.22a5.77 5.77 0 0 0-2.7-.8c-1.47.05-3.24.64-3.7 3.06-.06.3-.72.11-.83.62l-.59 2.78c-.19.88-.28.78.55.68-.19.9-.39 1.73-.57 2.69-.13.71.33 1.35 1.08 1.28.65-.07 2.27-.22 2.39-.26 1.12-.32.97-1.11 1.23-2.08 1.19 1.07 3.24.75 4.5-.1.29-.19-.02-.17.61.09 1.01.41 2.5.05 2.87-.11s.2-.15.44.25c.4.65 1.55 1.19 2.52.49.55-.4.19-.29.67-.09.65.28 1.29.16 1.86-.28.37-.28.15-.39.45-.17.17.13.4.17.61.18l.27-.02 7-.78a.25.25 0 0 0 .18-.11c.15.04.31.07.47.09.78.07 1.37-.18 1.93-.25l8.8-1.04c1.42-.17 1.96-.14 2.29-.7.23-.4.13-.81-.04-1.2l-.7-1.53.8-1.24c.75-1.14.96-1.43.74-2.07Z"/>
    <path fill="#2379bd" d="M48.62 99.91c-2.47.27-2.62.27-2.94.35-.79.2-.88 1.03-1.03 1.71-.02.07-.04.03-.47.05-.29.01-1.48 0-2.1.96-1.14-1.1-3.55-.3-4.16.61-.64-.79-1.81-.77-2.71-.52l.28-1.22c.05-.21.01-.33-.29-.45-.37-.16-.95-.44-1.83-.49-1.26-.07-2.55.56-2.95 1.8-.31.96-.17 1.14-.37 1.21-.68.25-.62.18-.74.66l-.38 1.8c-.03.14-.03.22.15.19l.51-.06-.68 3.2c-.18.87.03.89.31.87l.99-.11.96-.1c.17-.02.34-.02.49-.12.23-.16.25-.41.3-.66l.39-1.85.31-1.52h.09s-.21.92.16 1.72c.25.53.81.85 1.29.93 1.14.2 2.5-.17 3.25-1.11.53.65 1.4.74 2.18.64a3.2 3.2 0 0 0 2.16-1.15l.16.17c-.09.07-.66.93.2 1.6.49.39 1.4.12 1.59-.58.03-.11.1-.24.23-.24.18 0 .23.18.32.3.21.29.57.46.93.44.74-.06 1.25-.93.82-1.58.3-.04.37-.39.37-.41l1.04-4.73c.57-.07 1.01-.08 1.07-.31l.3-1.69c.03-.2-.05-.31-.21-.29Z"/>
    <path fill="#2379bd" d="m67.98 100.46-1.05.12-5.91.72-2.95.36c-1.26.15-2.54-.06-3.45 1.11-.39-.56-1.1-.71-1.75-.63-.42.05-.83.15-1.22.32a2.54 2.54 0 0 0-1.52.03c-1.03.32-2.15-.02-2.33.66-.3.68-.35 1.63-.5 2.36l-.47 2.21c-.08.35.13.86.62.8l3.59-.4 2.31-.26c.44-.05.94 0 .96-.6.88.8 2.02.28 3.04.16l2.95-.35 5.68-.67 1.36-.17c.41-.05.48-.3.37-.58l-.94-2.04c.53-.82 1.1-1.63 1.59-2.47.24-.35.1-.73-.37-.68Z"/>
    <path fill="#fff" d="m64.83 104.48.44 1.15 1.41-.17-.89-1.93 1.37-2.1-1.36.17-.72 1.23-.38-1.09-1.36.17.78 1.83-1.49 2.22 1.41-.17.79-1.31zM61.07 103.32l-.35-1.09-1.37.16.74 1.83-1.55 2.21 1.42-.16.83-1.3.41 1.16 1.41-.16-.84-1.94 1.42-2.08-1.36.15-.76 1.22zM54.03 104.19c.13-.66 0-1.21-.79-1.22l-.27.01c-.47.05-1.02.23-1.35.48-.08-.14-.24-.24-.57-.24-.08 0-.18 0-.28.02-.41.05-1 .26-1.34.54a7.73 7.73 0 0 1-.09-.27l-.76.09-.86 4.03 1.29-.14.6-2.88c.11-.09.37-.25.64-.28h.08c.18 0 .25.1.21.29l-.57 2.77 1.29-.14.58-2.88c.11-.09.37-.25.64-.28h.08c.18 0 .25.1.21.29l-.55 2.77 1.28-.14.54-2.79ZM55.8 106.83a2.42 2.42 0 0 0 1.37-.58l.16.3.77-.09.73-4.03-.76.09-.27.35c-.19-.17-.44-.3-.87-.31-.1 0-.21 0-.33.02-1.03.12-1.66.82-1.95 2.3-.26 1.35.04 1.96.88 1.97l.26-.01Zm.11-2.1c.13-.68.34-1.09.92-1.16h.11c.25 0 .41.11.41.11l-.34 1.82s-.27.2-.59.23h-.14c-.46 0-.5-.38-.38-1.01ZM34.52 102.03a3.11 3.11 0 0 0-1.41-.25c-1 .07-1.76.52-1.98 1.56l-.25 1.18-.75.3-.17.81.71-.08-.88 4.13 1.31-.14.86-4.13 1.31-.15.23-1.07-1.32.15.19-.94c.11-.42.47-.48.75-.51.53-.04.94.18 1.11.37l.29-1.23ZM39.44 107.57c1.49-.16 2.05-1.08 2.27-2.33.2-1.14.03-1.92-1.1-1.94-.12 0-.25 0-.38.02-1.47.16-2.04 1.08-2.28 2.34-.22 1.14-.04 1.92 1.1 1.94.12 0 .25 0 .39-.02Zm-.21-2.06c.15-.8.37-1.11.81-1.16h.1c.35 0 .43.29.3 1.03-.14.8-.36 1.11-.81 1.16h-.1c-.36 0-.43-.3-.29-1.03ZM37.41 105.72c.22-1.14.05-1.92-1.08-1.94-.12 0-.25 0-.38.02-1.48.17-2.06 1.08-2.31 2.34-.23 1.14-.06 1.92 1.08 1.94.12 0 .25 0 .39-.02 1.5-.16 2.07-1.08 2.31-2.33Zm-1.29.14c-.16.8-.38 1.11-.82 1.16h-.1c-.36 0-.43-.3-.28-1.03.16-.8.38-1.11.82-1.16h.1c.35 0 .43.3.28 1.03ZM46.11 101.05c-.14.02-.37.09-.47.46l-.94 4.29s-.33.17-.64.2l-.16.01c-.49 0-.51-.38-.39-.97.18-.85.14-1.18.93-1.18.07 0 .15.02.19.03l.22-.93a2.4 2.4 0 0 0-1.76.19c-.23.16-.41.46-.55.98-.07.26-.16.68-.24 1.06-.27 1.29.24 1.89 1.01 1.91l.33-.01c.45-.04 1.99-.31 1.99-.31l1.13-5.31 1.02-.12.09-.51-1.74.2ZM42.73 107.77a.37.37 0 0 0-.38.37c0 .21.17.38.37.38.21 0 .38-.16.38-.37a.38.38 0 0 0-.37-.38ZM45.15 107.5a.37.37 0 0 0-.38.37c0 .21.17.38.37.38.21 0 .38-.17.38-.37a.38.38 0 0 0-.37-.38Z"/>
    <path fill="#274969" d="m69.14 134.15-1.85-3.2a6.16 6.16 0 0 0-5.34-3.08h-27.3a6.16 6.16 0 0 0-5.34 3.08l-1.85 3.2a12.57 12.57 0 0 0-1.26 9.56l.25.94s2.94 14.74 19.38 14.74h4.95c16.44 0 19.38-14.74 19.38-14.74l.25-.94c.86-3.23.4-6.67-1.26-9.56ZM22.48 67.32l3.37 15.94v31.61c0 2.88-3.74 4.02-5.34 1.62a2.91 2.91 0 0 1-.49-1.62V67.58c0-1.49 2.15-1.72 2.46-.26ZM74.1 67.32l-3.37 15.94v31.61c0 2.88 3.74 4.02 5.34 1.62.32-.48.49-1.04.49-1.62V67.58c0-1.49-2.15-1.72-2.46-.26ZM67.52 39.26H29.06a7.62 7.62 0 0 0-7.45 9.19l6.17 29.21a7.05 7.05 0 0 0 6.91 5.6h27.2a7.06 7.06 0 0 0 6.91-5.6l6.17-29.21a7.61 7.61 0 0 0-7.45-9.19Z"/>
    <path fill="#252829" d="M71.98 178.79h-6.23v-11.55h6.23zM22.73 167.24h6.23v11.55h-6.23z"/>
    <path fill="#3c4142" d="M0 174.24h94.72v19.05H0z"/>
    <path d="M0 174.24h3.89l5.87 21.8H0v-21.8zM94.72 174.24h-3.9l-5.86 21.8h9.76v-21.8z"/>
  </g>
</svg>
