<svg xmlns="http://www.w3.org/2000/svg" width="110" height="110" viewBox="0 0 110 110">
  <path fill="#EB1E30" d="M54.81 108.61a53.66 53.66 0 0 0 53.8-53.41c.11-29.56-23.85-53.69-53.41-53.8S1.5 25.25 1.39 54.81s23.86 53.69 53.42 53.8"/>
  <path fill="#FFF" d="M55 110h-.2a54.59 54.59 0 0 1-38.81-16.27A54.6 54.6 0 0 1 0 54.8a54.63 54.63 0 0 1 16.27-38.82A54.63 54.63 0 0 1 55 0h.2A55.06 55.06 0 0 1 110 55.2 55.06 55.06 0 0 1 55 110zM55 2.79c-28.7 0-52.1 23.3-52.21 52.02a52.27 52.27 0 0 0 52.02 52.4H55c28.7 0 52.1-23.3 52.21-52.02a52.27 52.27 0 0 0-52.02-52.4H55z"/>
  <g fill="#FFF">
    <path d="m32.09 16.44 3.57.01c.57 0 .99.13 1.26.39s.43.62.47 1.08c.04.47.01 1.06-.09 1.78a4.3 4.3 0 0 1-.48 1.54c-.22.37-.56.63-1 .77a.9.9 0 0 1 .69.53c.12.28.14.66.07 1.14l-.66 4.4-2.28-.01.66-4.55c.05-.32.01-.53-.1-.62-.11-.09-.34-.14-.67-.14l-.77 5.31-2.36-.01 1.69-11.62zm2.3 4.32c.33 0 .54-.35.64-1.05.04-.31.06-.54.06-.69-.01-.15-.04-.26-.1-.32-.06-.06-.16-.09-.3-.09h-.54l-.31 2.15h.55zM37.01 28.09l1.68-11.63 4.66.02-.32 2.25-2.29-.01-.33 2.26 2.19.01-.32 2.19-2.19-.01-.38 2.67 2.44.01-.33 2.26-4.81-.02zM43.63 28.11l.43-11.63 2.27.01-.41 7.34 1.71-7.33 2.17.01-.44 7.34 1.68-7.33 2.3.01-2.94 11.61-2.79-.01.23-5.61-1.36 5.6-2.85-.01zM51.91 28.14l2.8-11.62 3.94.01-.57 11.63-2.21-.01.11-1.88-1.41-.01-.41 1.88h-2.25zm3.12-3.72h1.06l.34-5.92h-.11l-1.29 5.92zM60.6 16.54l3.57.01c.57 0 .99.13 1.26.39s.43.62.47 1.08c.04.47.01 1.06-.09 1.78a4.3 4.3 0 0 1-.48 1.54c-.22.37-.56.63-1 .77a.9.9 0 0 1 .69.53c.12.28.14.66.07 1.14l-.66 4.4-2.28-.01.66-4.55c.05-.32.01-.53-.1-.62-.11-.09-.34-.14-.67-.14l-.77 5.31-2.36-.01 1.69-11.62zm2.31 4.32c.32 0 .54-.35.64-1.05.04-.31.06-.54.06-.69-.01-.15-.04-.26-.1-.32-.06-.06-.16-.09-.3-.09h-.54l-.31 2.15h.55zM67.2 16.57l3.21.01c.83 0 1.42.24 1.77.7.35.46.46 1.14.34 2.05l-.76 5.44a4.97 4.97 0 0 1-.97 2.58c-.49.58-1.2.86-2.14.86l-3.13-.01 1.68-11.63zm1.37 9.58c.42 0 .67-.21.73-.62l.86-6c.04-.26.05-.46.02-.59-.02-.13-.08-.22-.19-.26a1.2 1.2 0 0 0-.49-.07h-.26l-1.09 7.54h.42zM72.89 27.54c-.39-.52-.51-1.37-.34-2.53l.16-1.14 2.29.01-.21 1.45c-.08.58.06.87.43.87.21 0 .36-.06.46-.18.1-.12.17-.33.21-.62.05-.38.05-.69 0-.94a1.53 1.53 0 0 0-.26-.62 10 10 0 0 0-.64-.78l-.86-1.01a3.02 3.02 0 0 1-.8-2.52c.14-.99.48-1.75 1.01-2.26a2.87 2.87 0 0 1 2.11-.77c1.05 0 1.76.28 2.14.84.38.56.49 1.43.31 2.61l-2.37-.01.1-.8c.02-.15 0-.28-.08-.37-.07-.09-.19-.14-.34-.14a.6.6 0 0 0-.43.15c-.1.1-.17.23-.19.41-.05.38.11.77.48 1.18l1.17 1.3c.27.31.49.6.66.88.17.28.29.6.36.98.07.37.07.82 0 1.33a5.03 5.03 0 0 1-1.01 2.6c-.51.59-1.24.88-2.21.88-1.03-.01-1.76-.27-2.15-.8zM18.27 41.05l1.68-11.63 3.55.01-.05 7.1 2-7.09 3.57.01-1.68 11.63-2.13-.01 1.21-8.38-2.55 8.37-2.09-.01-.21-8.38-1.21 8.38h-2.09zM28.5 41.09l1.68-11.63 4.66.02-.32 2.25-2.29-.01-.33 2.26 2.19.01-.32 2.19-2.19-.01-.38 2.67 2.44.01-.33 2.26-4.81-.02zM34.22 41.11l1.68-11.63 3.55.01-.05 7.1 2-7.09 3.57.01-1.68 11.63-2.13-.01 1.21-8.38-2.55 8.37-2.09-.01-.21-8.38-1.21 8.38h-2.09zM46.13 29.52l3.16.01c.85 0 1.43.21 1.76.63.32.42.42 1.09.28 2.03l-.07.51c-.16 1.11-.65 1.77-1.48 1.99.47.13.77.42.9.88s.14 1.07.03 1.83a6.4 6.4 0 0 1-.96 2.81c-.46.63-1.18.95-2.14.95l-3.16-.01 1.68-11.63zm2.15 8.73.21-1.45c.05-.35.04-.62-.04-.8-.08-.18-.25-.27-.51-.27h-.43l-.49 3.37.23.01c.61 0 .95-.28 1.03-.86zm-.03-4.35c.2 0 .34-.07.44-.22.09-.15.16-.36.2-.63l.17-1.16c.05-.38-.09-.57-.42-.57h-.49l-.37 2.59.47-.01zM51.07 41.17l1.68-11.63 4.66.02-.32 2.25-2.29-.01-.33 2.26 2.19.01-.32 2.19-2.19-.01-.38 2.67 2.44.01-.33 2.26-4.81-.02zM58.47 29.57l3.57.01c.57 0 .99.13 1.26.39s.43.62.47 1.08c.04.47.01 1.06-.09 1.78-.1.66-.25 1.17-.48 1.54-.22.37-.56.63-1 .77a.9.9 0 0 1 .69.53c.12.28.14.66.07 1.14l-.66 4.4-2.27-.01.66-4.55c.05-.32.01-.53-.1-.62-.11-.09-.34-.14-.67-.14l-.77 5.31-2.36-.01 1.68-11.62zm2.3 4.31c.33 0 .54-.35.64-1.05.04-.31.06-.54.06-.69-.01-.15-.04-.26-.1-.32-.06-.06-.16-.09-.3-.09h-.54l-.31 2.15h.55zM63.95 40.54c-.39-.52-.51-1.37-.34-2.53l.16-1.14 2.29.01-.21 1.45c-.08.58.06.87.43.87.21 0 .36-.06.46-.18.1-.12.17-.33.21-.62.05-.38.05-.69 0-.94a1.53 1.53 0 0 0-.26-.62 10 10 0 0 0-.64-.78l-.86-1.01a3.02 3.02 0 0 1-.8-2.52c.14-.99.48-1.75 1.01-2.26a2.87 2.87 0 0 1 2.11-.77c1.05 0 1.76.28 2.14.84.38.56.49 1.43.31 2.61l-2.37-.01.1-.8c.02-.15 0-.28-.08-.37-.07-.09-.19-.14-.34-.14a.6.6 0 0 0-.43.15c-.1.1-.17.23-.19.41-.05.38.11.77.48 1.18l1.17 1.3c.27.31.49.6.66.88.17.28.29.6.36.98s.07.82 0 1.33a5.03 5.03 0 0 1-1.01 2.6c-.51.59-1.24.88-2.21.88-1.03-.01-1.75-.27-2.15-.8zM73.56 40.47c-.33-.59-.4-1.49-.23-2.69l.72-5.01a4.1 4.1 0 0 1 1.07-2.43 3.08 3.08 0 0 1 2.26-.82c.77 0 1.34.16 1.72.47a2 2 0 0 1 .69 1.34c.08.59.05 1.34-.08 2.26l-2.28-.01.15-1.04c.04-.28.03-.5-.02-.65-.05-.15-.18-.23-.38-.23-.44 0-.71.29-.79.86l-.81 5.63c-.05.35-.04.62.02.8.06.18.21.27.43.27.23 0 .4-.09.51-.27.12-.18.2-.45.25-.8l.24-1.66h-.62l.29-2 2.84.01-.98 6.77h-.93l-.25-.98a2.44 2.44 0 0 1-2.08 1.08c-.83-.01-1.41-.3-1.74-.9zM79.63 41.27l1.68-11.63 4.66.02-.32 2.25-2.29-.01-.33 2.26 2.19.01-.32 2.19-2.19-.01-.38 2.67 2.44.01-.33 2.26-4.81-.02zM86.35 41.3l1.35-9.39-1.38-.01.32-2.23 5.09.02-.32 2.23-1.38-.01-1.35 9.39h-2.33zM33.78 77.25c.24-1.65.71-3.16 1.43-4.56a21.37 21.37 0 0 1 2.45-3.76 66.17 66.17 0 0 1 3.54-3.92 85.7 85.7 0 0 0 3.57-3.96c.9-1.08 1.7-2.33 2.42-3.74.72-1.41 1.2-2.93 1.43-4.58.14-.98.11-1.74-.09-2.28-.2-.54-.66-.82-1.39-.82-1.2 0-1.95 1.07-2.26 3.21l-.63 4.39-7.57-.03.24-2.22c.39-2.73 1-4.98 1.81-6.73a8.9 8.9 0 0 1 3.51-4.01c1.53-.92 3.52-1.37 5.97-1.36 3.01.01 5.22.86 6.62 2.56 1.4 1.69 1.88 4.09 1.43 7.18a18.5 18.5 0 0 1-1.59 5.37c-.78 1.6-1.65 3-2.62 4.2a66.6 66.6 0 0 1-3.77 4.21 64.78 64.78 0 0 0-2.81 3.05c-.76.89-1.45 1.81-2.09 2.75l9.79.04-.98 6.78-18.67-.07.26-1.7zM53.49 79.03l6.6-19.06-.62-16.91 7.03.03.1 12.39 3.42-12.38 7.07.03-5.53 16.89 1.1 19.09-7.28-.03-.23-14.06-4.33 14.05-7.33-.04zM34.49 93.32l1.68-11.63 4.66.02-.32 2.25-2.29-.01-.33 2.26 2.19.01-.32 2.19-2.19-.01-.38 2.67 2.44.01-.33 2.26-4.81-.02zM40.21 93.34l1.68-11.63 2.4.01.27 5.57.8-5.56 2.25.01-1.68 11.63-2.27-.01-.33-5.82-.84 5.82-2.28-.02zM48.09 93.37l1.35-9.39-1.38-.01.32-2.23 5.09.02-.32 2.23h-1.38l-1.35 9.39-2.33-.01zM54.26 81.76l3.57.01c.57 0 .99.13 1.26.39s.43.62.47 1.08c.04.47.01 1.06-.09 1.78a4.3 4.3 0 0 1-.48 1.54c-.22.37-.56.63-1 .77a.9.9 0 0 1 .69.53c.12.28.14.66.07 1.14l-.66 4.4-2.28-.01.66-4.55c.05-.32.01-.53-.1-.62-.11-.09-.34-.14-.67-.14l-.77 5.31-2.36-.01 1.69-11.62zm2.31 4.31c.33 0 .54-.35.64-1.05.04-.31.06-.54.06-.69-.01-.15-.04-.26-.1-.32-.06-.06-.16-.09-.3-.09h-.54l-.31 2.15h.55zM59.07 93.41l1.68-11.63 2.25.01-1.68 11.63-2.25-.01zM62.39 93.42l1.68-11.63 4.66.02-.32 2.25-2.29-.01-.33 2.26 2.19.01-.32 2.19-2.19-.01-.38 2.67 2.44.01-.33 2.26-4.81-.02zM68.67 92.77c-.39-.52-.51-1.37-.34-2.53l.16-1.14 2.29.01-.21 1.45c-.08.58.06.87.43.87.21 0 .36-.06.46-.18.1-.12.17-.33.21-.62.05-.38.05-.69 0-.94a1.53 1.53 0 0 0-.26-.62 10 10 0 0 0-.64-.78l-.86-1a3.02 3.02 0 0 1-.8-2.52c.14-.99.48-1.75 1.01-2.26a2.87 2.87 0 0 1 2.11-.77c1.05 0 1.76.28 2.14.84.38.56.49 1.43.31 2.61l-2.37-.01.1-.8c.02-.15 0-.28-.08-.37-.07-.09-.19-.14-.34-.14a.6.6 0 0 0-.43.15c-.1.1-.17.23-.19.41-.05.38.11.77.48 1.18l1.17 1.3c.27.31.49.6.66.88.17.28.29.6.36.98s.07.82 0 1.33a5.03 5.03 0 0 1-1.01 2.6c-.51.59-1.24.88-2.21.88-1.03-.02-1.75-.29-2.15-.81z"/>
  </g>
</svg>
