<svg xmlns="http://www.w3.org/2000/svg" width="242" height="68" viewBox="0 0 241.39 67.34">
  <defs>
    <linearGradient id="Silver_2" x1="0" x2="241.39" y1="33.67" y2="33.67" gradientUnits="userSpaceOnUse">
      <stop offset="0" stop-color="#e5e2df"/>
      <stop offset="0" stop-color="#ded9d6"/>
      <stop offset=".06" stop-color="#cfcac8"/>
      <stop offset=".18" stop-color="#a8a4a6"/>
      <stop offset=".26" stop-color="#8b878d"/>
      <stop offset=".52" stop-color="#f3f4f4"/>
      <stop offset=".58" stop-color="#e4e5e5"/>
      <stop offset=".7" stop-color="#bfbec0"/>
      <stop offset=".86" stop-color="#847f84"/>
      <stop offset=".88" stop-color="#807b80"/>
      <stop offset="1" stop-color="#d1d3d4"/>
      <stop offset="1" stop-color="#a7a9ac"/>
    </linearGradient>
  </defs>
  <g id="Layer_1-2">
    <path fill="#d7282c" stroke="url(#Silver_2)" stroke-miterlimit="10" stroke-width="4.55" d="M2.28 2.28h236.84v62.79H2.28z"/>
    <path fill="#fff" stroke-width="0" d="M42.64 29.34a8.2 8.2 0 0 1-2.06 5.33 7.58 7.58 0 0 1 2.06 5.37c0 5.24-3.56 9.28-9.06 9.28-3.61 0-6.66-1.98-8.55-5.45-.13-.17-.04-.39.09-.52l3.61-2.71a.37.37 0 0 1 .56.04c1.85 2.53 3.01 2.88 4.42 2.88a3.14 3.14 0 0 0 2.92-3.13c0-1.59-1.12-3.74-3.48-3.74h-.77c-.21 0-.43-.21-.43-.43v-3.95c0-.17.17-.34.39-.34h.64c1.89 0 3.65-1.29 3.65-2.92 0-1.89-1.55-3.18-3.48-3.18-1.72 0-3.09 1.37-3.74 2.88-.09.21-.3.3-.52.13l-3.78-2.83c-.13-.13-.13-.21-.09-.43.86-3.56 4.94-5.45 8.55-5.45 5.15 0 9.06 3.78 9.06 9.19ZM55.49 29.65l2.1 4.63c.08.15-.02.3-.17.3h-3.08c-.1 0-.15-.05-.18-.13l-1.95-4.26h-1.28v4.16c0 .13-.1.23-.22.23h-2.88c-.1 0-.18-.1-.18-.23V18.28c0-.13.07-.23.18-.23h5.21c2.78 0 4.46 1.58 4.46 4.51v3.15c0 .88-.15 1.7-.45 2.33a3.18 3.18 0 0 1-1.55 1.6Zm-1.28-6.33c0-1.75-.65-1.93-2.55-1.93h-.73v5.53h.73c1.58 0 2.5-.02 2.55-1.98v-1.63ZM72.21 19.46a5.18 5.18 0 0 1 1.13 3.55v6.63c0 3.03-1.75 4.93-4.96 4.93h-6.26c-.13 0-.2-.1-.2-.23V18.27c0-.13.07-.23.2-.23h6.26c1.7 0 2.98.48 3.83 1.4Zm-2.15 4.31c0-1.58-.83-2.58-2.58-2.58h-2.25v10.26h2.25c1.5 0 2.58-.98 2.58-2.55v-5.13ZM112.34 28.27v5.41c0 4.6-2.83 7.69-7.64 7.69h-3.61v7.13c0 .21-.17.39-.39.39h-4.94c-.17 0-.3-.17-.3-.39V20.93c0-.21.13-.39.3-.39h8.93c4.77 0 7.64 2.71 7.64 7.73Zm-5.63 1.29c0-2.96-1.37-3.26-4.38-3.26h-1.25v9.45h1.25c2.36 0 4.38-.43 4.38-3.35v-2.83ZM124.02 20.93v22.55h9.28c.21 0 .39.17.39.39v4.64c0 .21-.17.39-.39.39h-14.56c-.21 0-.34-.17-.34-.39V20.94c0-.21.13-.39.34-.39h4.9c.21 0 .39.17.39.39ZM145.36 20.54h5.33c.17 0 .26.13.3.26l7.43 27.61c.04.26-.13.47-.39.47h-4.9c-.13 0-.26-.09-.3-.26l-1.67-6.01h-6.27l-1.63 6.01c-.04.17-.13.26-.3.26h-4.94c-.26 0-.43-.21-.39-.47l7.43-27.61c.04-.13.13-.26.3-.26Zm4.47 16.75-1.85-6.48-1.72 6.48h3.56ZM177.01 37.63c0-.21.17-.39.39-.39h4.9c.21 0 .39.17.39.39v2.71c0 6.31-3.39 8.98-9.79 8.98-5.97 0-9.88-2.36-9.88-8.98V29.05c0-6.36 3.48-8.89 9.88-8.89 6.06 0 9.79 2.32 9.79 8.89v.9c0 .21-.17.39-.39.39h-4.94a.39.39 0 0 1-.39-.39v-.69c0-2.36-1.76-3.35-3.87-3.35h-.52c-1.42 0-2.36.39-3.01 1.25-.6.82-.82 1.89-.82 3.31v8.5c0 3.74 2.1 4.55 3.82 4.55h.52c1.42 0 2.41-.39 3.05-1.25.56-.77.86-1.85.86-3.31v-1.33ZM189.94 48.5V20.93c0-.21.13-.39.34-.39h14.6c.21 0 .39.17.39.39v4.6c0 .21-.17.39-.39.39h-9.28v5.84h7.22c.21 0 .34.17.34.39v4.68c0 .21-.13.39-.34.39h-7.22v6.31h9.28c.21 0 .39.17.39.39v4.6c0 .21-.17.39-.39.39h-14.6c-.21 0-.34-.17-.34-.39ZM213.26 40.42a.39.39 0 0 1-.39-.39l-1.16-19.15c0-.34.21-.39.39-.39h7c.3 0 .39.21.39.39l-1.12 19.15c0 .21-.17.39-.39.39h-4.72Zm6.36 5.02c0 2.1-1.67 3.82-3.82 3.82s-3.69-1.72-3.69-3.82 1.63-3.74 3.69-3.74 3.82 1.63 3.82 3.74Z"/>
  </g>
</svg>
