<svg xmlns="http://www.w3.org/2000/svg" xmlns:xlink="http://www.w3.org/1999/xlink" width="366" height="792" viewBox="0 0 366 792">
  <path fill="#FFF" d="M0 0h366v792H0z"/>
  <path fill="#969696" d="M234.7 56.53c-.41.02-3.19.07-3.9.09l-.12.01c-18.7.96-43.02 2.36-53.55 3.19-21.56 1.69-34.73 9.36-40.56 13.67-1.13.84-1.41 1-1.99 1.51l-2.2 1.75-.12.14c-.54.45-4.03 4.85-4.57 5.89-8.81 16.89-25.96 44.66-31.79 55.79l-4.65 7.8-.07.11c-1.44 2.58-3.67 6.48-6.17 10.87-6.46 11.38-15.31 26.97-19.67 35.43-2.16 4.19-3.55 10.9 2.1 19.01 3.35 4.8 8.19 8.87 12.47 12.46 1.4 1.18 2.73 2.29 3.84 3.3 2.34 2.13 3.47 6.3 3.09 11.43a32.48 32.48 0 0 1-4.96 14.83c-5.91 8.83-13.7 24.21-21.51 65.15-2.78 14.58-1.1 24.63 5.15 30.75 9.57 9.37 26.24 5.81 39.63 2.95l.72-.15 4.35-.94c16.09-3.48 22.11-4.78 46.42-3.2 20.71 1.34 29.1 12.13 41.8 28.46a504 504 0 0 0 7.66 9.68c7.69 9.42 11.6 18.7 11.93 28.39.7 20.24.49 105.68.19 127.52-.39 28.34-37.55 74.32-37.92 74.84l-.11.16c-.33.5-32.9 49.84-47.55 72.7-5.62 8.77-8.33 17.59-7.83 25.48.47 7.54 3.79 13.85 9.34 17.77 5.1 3.61 11.47 4.74 17.94 3.19 6.68-1.6 12.93-5.94 18.07-12.55a49.28 49.28 0 0 0 2.67-3.8c11.03-17.3 111.27-172.26 118.24-185.43 4.71-8.89 7.74-17.19 10.92-26.76 4.6-13.87 9.55-39.74-3.27-58.55-9.86-14.37-22.12-47-23.24-54.25l-3.22-11.67-.19-.75c-1.75-5.64-3.79-13.79-4.31-17.94-2.08-16.71 2.54-41.17 14.55-76.98l.21-.64c2.69-8.02 5.44-16.28 7.5-22.57.07-.21.03-.1 0 0v.16l1.74-4.92a216.13 216.13 0 0 0 5.97-22.85l1.74-8.94.07-.35c.04-.31.13-.59.16-.9 1.88-15.47-18.3-30.98-22.64-39.59-.7-.76-1.32-1.8-1.74-2.62-5.62-11.12-12.15-20.59-10.17-32.04 2.42-14 1.11-22.73-4.84-32.21-.48-.76-.97-1.45-1.45-2.13-2.18-3.11-3.09-6.35-2.26-10.06l.14-.69c.4-1.2 1.32-2.28 1.49-2.49 5.28-6.3 14.89-13.54 18.12-19.56 2.75-5.12 2.59-8.13 2-13.68-.18-1.71-.82-7.02-4.34-10.94-3.92-4.36-9.24-4.91-14.25-5.46l-.95-.08-.45-.02c-4.66-.2-13.18.6-23.66 1.23zm28.49 10.56c3.07 3.1 5.16 8.36 3.1 13.57-.76 1.92-5.72 6.86-9.04 11.57a17.3 17.3 0 0 1-1.34 1.63l-2.64 2.83c-6.48 7.88-7.79 13.28-5.64 19.43l.68 1.9c.88 2.85 2.05 5.4 3.53 7.76 3.97 6.32 5.69 12.2 3.45 25.15-1.23 7.11-1.43 12.06 1.41 20.27a107.73 107.73 0 0 0 7.81 17.77c1.09 1.89 8.58 11.36 11.05 14.69v-.01c5.63 7.46 15.37 12.38 14.2 22.02l-.11.88-.05.41h-.04v.24c-1.84 13.06-7.16 28.92-16.52 56.85l-.21.64c-12.5 37.29-17.27 63.16-15 81.42.84 6.71 3.84 17.81 6.77 25.99.09.34.19.53.19.53 6.98 19.17 15.2 47.02 25.57 62.37 18.06 26.6-6.22 70.89-8.38 75.59C276.24 543.1 176.33 696.1 164.4 714.8a39.54 39.54 0 0 1-2.13 3.03c-7.96 10.23-17.12 10.97-22.28 7.32-3.02-2.14-4.84-5.76-5.12-10.2-.36-5.75 1.8-12.47 6.26-19.43 14.34-22.39 45.96-70.29 47.42-72.51 2.27-3.18 39.31-49.29 39.74-80.47.3-21.91.51-107.63-.19-128.01-.41-11.96-5.06-23.21-14.19-34.4-2.68-3.28-5.13-6.43-7.51-9.49-13.33-17.14-23.86-30.69-49.08-32.32-25.71-1.67-32.58-.18-49.19 3.41l-4.33.93-.72.15c-11.04 2.36-24.78 5.29-30.5-.31-4.49-4.39-3.73-14.22-2.31-21.68 7.47-39.15 14.6-53.4 19.98-61.44a42.56 42.56 0 0 0 6.63-19.69c.61-8.35-1.64-15.31-6.35-19.6a123.08 123.08 0 0 0-4.14-3.56c-8.69-7.3-15.1-13.35-12.1-19.17 4.27-8.27 13.06-23.76 19.47-35.07l4.44-7.83.64-1.02.06-.1 15.5-27.65c8.64-15.86 19.61-35.22 23.7-40.27 6.65-8.22 21.83-14.2 39.81-15.6 7.71-.6 21.94-1.42 36.35-2.2l16.53-.62h.12c.25-.01.88-.05 1.64-.15 1.92-.1 18.95-1.66 20.72-1.75 4.06-.18 7.4-.55 9.92 1.99z"/>
  <g stroke="#000" stroke-miterlimit="10" stroke-width=".68">
    <path fill="#FFF" d="M234.89 456.82v6.08h-6.08v-6.08z"/>
    <path d="M234.89 462.9v6.08h-6.08v-6.08zM228.8 456.82v6.08h-6.07v-6.08z"/>
    <path fill="#FFF" d="M228.8 462.9v6.08h-6.07v-6.08zM247.05 456.82v6.08h-6.08v-6.08z"/>
    <path d="M247.05 462.9v6.08h-6.08v-6.08zM240.97 456.82v6.08h-6.08v-6.08z"/>
    <path fill="#FFF" d="M240.97 462.9v6.08h-6.08v-6.08zM222.73 456.82v6.08h-6.08v-6.08z"/>
    <path d="M222.73 462.9v6.08h-6.08v-6.08zM216.65 456.82v6.08h-6.08v-6.08z"/>
    <path fill="#FFF" d="M216.65 462.9v6.08h-6.08v-6.08zM210.57 456.82v6.08h-6.08v-6.08z"/>
    <path d="M210.57 462.9v6.08h-6.08v-6.08zM204.49 456.82v6.08h-6.08v-6.08z"/>
    <path fill="#FFF" d="M204.49 462.9v6.08h-6.08v-6.08zM234.89 469.06v6.08h-6.08v-6.08z"/>
    <path d="M234.89 475.14v6.08h-6.08v-6.08zM228.8 469.06v6.08h-6.07v-6.08z"/>
    <path fill="#FFF" d="M228.8 475.14v6.08h-6.07v-6.08zM247.05 469.06v6.08h-6.08v-6.08z"/>
    <path d="M247.05 475.14v6.08h-6.08v-6.08zM240.97 469.06v6.08h-6.08v-6.08z"/>
    <path fill="#FFF" d="M240.97 475.14v6.08h-6.08v-6.08zM222.73 469.06v6.08h-6.08v-6.08z"/>
    <path d="M222.73 475.14v6.08h-6.08v-6.08zM216.65 469.06v6.08h-6.08v-6.08z"/>
    <path fill="#FFF" d="M216.65 475.14v6.08h-6.08v-6.08zM210.57 469.06v6.08h-6.08v-6.08z"/>
    <path d="M210.57 475.14v6.08h-6.08v-6.08zM204.49 469.06v6.08h-6.08v-6.08z"/>
    <path fill="#FFF" d="M204.49 475.14v6.08h-6.08v-6.08z"/>
  </g>
  <path d="M93.96 529.18c0 .33.03.64.08.91s.15.5.3.69c.15.19.34.33.59.44.25.11.56.16.93.16.44 0 .84-.14 1.19-.43s.53-.73.53-1.33c0-.32-.04-.6-.13-.83a1.73 1.73 0 0 0-.43-.63c-.2-.19-.46-.36-.79-.51a12.4 12.4 0 0 0-1.21-.47 10.5 10.5 0 0 1-1.66-.7 4.3 4.3 0 0 1-1.17-.89 3.25 3.25 0 0 1-.69-1.18 4.87 4.87 0 0 1-.22-1.55c0-1.41.39-2.47 1.18-3.16a4.76 4.76 0 0 1 3.24-1.04c.64 0 1.23.07 1.77.21.54.14 1.01.37 1.4.68.39.31.7.71.92 1.2.22.49.33 1.07.33 1.75v.4h-2.76c0-.68-.12-1.2-.36-1.57-.24-.37-.64-.55-1.2-.55-.32 0-.59.05-.8.14a1.26 1.26 0 0 0-.77.9c-.05.2-.07.41-.07.62 0 .44.09.81.28 1.11.19.3.59.58 1.2.83l2.22.96c.55.24.99.49 1.34.75.35.26.62.54.83.84.21.3.35.63.43.99.08.36.12.76.12 1.2 0 1.51-.44 2.6-1.31 3.29a5.74 5.74 0 0 1-3.65 1.03c-1.63 0-2.79-.35-3.49-1.06-.7-.71-1.05-1.72-1.05-3.04v-.58h2.88v.42zM101.47 523.1c.1-.91.32-1.7.66-2.35.34-.65.83-1.16 1.47-1.53.64-.37 1.5-.55 2.58-.55s1.94.18 2.58.55c.64.37 1.13.88 1.47 1.53.34.65.56 1.44.66 2.35.1.91.15 1.91.15 2.99 0 1.09-.05 2.09-.15 3-.1.91-.32 1.69-.66 2.34s-.83 1.15-1.47 1.5a5.4 5.4 0 0 1-2.58.52 5.4 5.4 0 0 1-2.58-.52 3.55 3.55 0 0 1-1.47-1.5 6.57 6.57 0 0 1-.66-2.34 27.6 27.6 0 0 1-.15-3c0-1.08.05-2.08.15-2.99zm2.79 5.43a7 7 0 0 0 .28 1.64c.14.42.34.73.6.92.26.19.6.29 1.03.29.43 0 .77-.1 1.03-.29.26-.19.46-.5.6-.92a7 7 0 0 0 .28-1.64c.05-.67.07-1.49.07-2.45 0-.96-.02-1.77-.07-2.44a7.1 7.1 0 0 0-.28-1.64 1.8 1.8 0 0 0-.6-.93 1.7 1.7 0 0 0-1.03-.29c-.43 0-.77.1-1.03.29-.26.19-.46.5-.6.93a7.1 7.1 0 0 0-.28 1.64 40.9 40.9 0 0 0 0 4.89zM118.73 528.72h.04v-9.77h2.63v14.27h-3.27l-3.52-9.99h-.04v9.99h-2.64v-14.27h3.32l3.48 9.77zM122.45 523.1c.1-.91.32-1.7.66-2.35.34-.65.83-1.16 1.47-1.53.64-.37 1.5-.55 2.58-.55s1.94.18 2.58.55c.64.37 1.13.88 1.47 1.53.34.65.56 1.44.66 2.35.1.91.15 1.91.15 2.99 0 1.09-.05 2.09-.15 3-.1.91-.32 1.69-.66 2.34a3.55 3.55 0 0 1-1.47 1.5 5.4 5.4 0 0 1-2.58.52 5.4 5.4 0 0 1-2.58-.52 3.55 3.55 0 0 1-1.47-1.5 6.57 6.57 0 0 1-.66-2.34 27.6 27.6 0 0 1-.15-3c0-1.08.05-2.08.15-2.99zm2.8 5.43a7 7 0 0 0 .28 1.64c.14.42.34.73.6.92.26.19.6.29 1.03.29.43 0 .77-.1 1.03-.29.26-.19.46-.5.6-.92a7 7 0 0 0 .28-1.64c.05-.67.07-1.49.07-2.45 0-.96-.02-1.77-.07-2.44a7.1 7.1 0 0 0-.28-1.64 1.8 1.8 0 0 0-.6-.93 1.7 1.7 0 0 0-1.03-.29c-.43 0-.77.1-1.03.29-.26.19-.46.5-.6.93a7.1 7.1 0 0 0-.28 1.64 40.9 40.9 0 0 0 0 4.89zM137.26 518.95l2.03 10.07h.04l2.06-10.07h4.26v14.27h-2.64v-11.39h-.04l-2.54 11.39h-2.23l-2.54-11.39h-.04v11.39h-2.64v-14.27h4.28zM153.65 518.95l3.78 14.27h-3l-.66-3.02h-3.8l-.66 3.02h-3l3.78-14.27h3.56zm-.38 8.9-1.38-6.42h-.04l-1.38 6.42h2.8zM96.96 534.76a4 4 0 0 1 2.8.91c.67.61 1 1.53 1 2.77 0 .96-.19 1.74-.58 2.35-.39.61-.99 1-1.8 1.17v.04c.72.11 1.25.34 1.58.7.33.36.54.94.62 1.74.03.27.05.56.06.87l.04 1.05c.03.76.07 1.34.12 1.74.08.4.25.67.52.82v.12H98.2a1.5 1.5 0 0 1-.28-.69 6.94 6.94 0 0 1-.08-.81l-.08-2.74a2.3 2.3 0 0 0-.42-1.32c-.25-.32-.68-.48-1.28-.48h-1.54v6.04h-2.88v-14.27h5.32v-.01zM95.72 541c.69 0 1.23-.16 1.6-.49.37-.33.56-.88.56-1.65 0-1.32-.67-1.98-2-1.98h-1.36V541h1.2zM109.09 534.76l3.78 14.27h-3l-.66-3.02h-3.8l-.66 3.02h-3l3.78-14.27h3.56zm-.38 8.9-1.38-6.42h-.04l-1.38 6.42h2.8zM118.8 537.31c-.25-.47-.7-.71-1.35-.71-.36 0-.66.1-.89.29-.23.19-.42.51-.55.94-.13.43-.23 1-.28 1.7a36.68 36.68 0 0 0 .03 5.19c.07.67.19 1.18.34 1.55.15.37.35.61.58.74.23.13.5.19.81.19.25 0 .49-.04.71-.13.22-.09.41-.26.57-.52.16-.26.29-.63.38-1.1.09-.47.14-1.1.14-1.87h2.88c0 .77-.06 1.51-.18 2.2-.12.69-.34 1.3-.67 1.82s-.79.93-1.38 1.22c-.59.29-1.36.44-2.31.44a5.4 5.4 0 0 1-2.58-.52 3.55 3.55 0 0 1-1.47-1.5 6.57 6.57 0 0 1-.66-2.34 27.6 27.6 0 0 1-.15-3c0-1.08.05-2.08.15-2.99.1-.91.32-1.7.66-2.35.34-.65.83-1.16 1.47-1.53.64-.37 1.5-.55 2.58-.55a5 5 0 0 1 2.43.5 3.4 3.4 0 0 1 1.33 1.27c.29.51.48 1.07.55 1.66.07.59.11 1.15.11 1.67h-2.88c0-1.04-.13-1.8-.37-2.27zM130.98 537.12h-5.1v3.36h4.8v2.36h-4.8v3.84h5.3v2.36H123v-14.28h7.98v2.36zM134.54 534.76l1.58 10.56h.04l1.68-10.56h2.75l1.68 10.56h.04l1.58-10.56h2.76l-2.6 14.28h-3.22l-1.59-10.36h-.05l-1.59 10.36h-3.22l-2.6-14.28h2.76zM152.59 534.76l3.78 14.27h-3l-.66-3.02h-3.8l-.66 3.02h-3l3.78-14.27h3.56zm-.38 8.9-1.38-6.42h-.04l-1.38 6.42h2.8zM159.64 540.28h.04l2-5.52h3.12l-3.7 8.66v5.62h-2.88v-5.62l-3.69-8.66h3.24l1.87 5.52z"/>
  <path fill-rule="evenodd" d="M162.56 546.68a1.2 1.2 0 0 0-.37.89 1.25 1.25 0 1 0 2.51 0c0-.35-.12-.64-.37-.89a1.2 1.2 0 0 0-.89-.37c-.34 0-.64.12-.88.37m1.93 1.93a1.4 1.4 0 0 1-1.04.43 1.4 1.4 0 0 1-1.04-.43 1.43 1.43 0 0 1-.42-1.04c0-.4.14-.75.43-1.03s.63-.43 1.03-.43c.41 0 .75.14 1.04.43a1.46 1.46 0 0 1 0 2.07m-.77-1.6a.71.71 0 0 0-.34-.06h-.24v.58h.26c.12 0 .21-.01.27-.04a.25.25 0 0 0 .17-.25c-.01-.11-.04-.19-.12-.23m-.3-.25c.2 0 .35.02.44.06.17.07.25.2.25.41 0 .14-.05.25-.16.32a.62.62 0 0 1-.23.08c.13.02.22.07.28.16.06.08.09.17.09.25v.24l.01.08.01.02h-.27v-.04l-.01-.05v-.13c0-.19-.05-.31-.15-.37-.06-.04-.16-.05-.32-.05h-.22v.63h-.28v-1.61h.56z" clip-rule="evenodd"/>
  <path fill="#FFF" d="M89.85 533.85c0 9.03-9.23 16.35-20.62 16.35s-20.62-7.32-20.62-16.35c0-9.03 9.23-16.35 20.62-16.35 11.38 0 20.62 7.32 20.62 16.35"/>
  <path d="M88.04 531.53c0-.27-.2-.5-.45-.55l-.09-.01H70.46l-1.69.87H61.3s-3.35-.11-4.58.25-4.98 2.6-4.98 2.6l-1.12.7a.56.56 0 0 0 .25 1.06h3.86s.72.07.68-.47c-.04-.54-.48-1.82.4-2.7.66-.67 2.09-.95 3.28-.65.79.2 1.89.6 1.77 2.42 0 0-.07.54-.18.83-.11.29-.25.87.36.87h12.69s.76.11.69-.47c-.07-.58-.65-1.33.11-2.63.76-1.3 2.79-1.13 3.55-.98.76.14 1.75.73 1.79 2.24 0 0 0 .67-.11.9-.07.15-.04.61.47.58.51-.04 7.43-4.29 7.43-4.29l.11-.07c.16-.12.27-.3.27-.5"/>
  <path fill="#CE0E2D" d="M50.91 528.84s-.28.49.04.97c.24.36.77.32.93.32h8.78s.5 0 .5-.25-.18-.4-.39-.54l-6.68-3.97s-.39-.29-.68-.22c-.29.07-.4.24-.66.6-1.23 1.65-1.84 3.09-1.84 3.09M56.94 525.22s-.37.04-.44.2-.07.38.12.5c.19.13 6.93 4.15 6.93 4.15s.14.07.54.07h1.97s.32.04.38-.27c.05-.25-.13-.49-.13-.49l-2.07-3.68s-.17-.31-.35-.4a1.33 1.33 0 0 0-.54-.09h-6.41zM55.13 523.38s-.38.27-.21.7c.17.43.59.47.59.47h7.2s.35.02.45-.25c.1-.27 0-.52-.03-.59-.06-.13-1.74-3.16-1.74-3.16s-.2-.33-.42-.38c-.23-.05-.35-.04-.8.16a24.01 24.01 0 0 0-5.04 3.05M68.84 519.36s0-.34-.12-.47c-.12-.13-.17-.22-.42-.22-.24 0-2.63-.05-5.7.83 0 0-.38.1-.45.45-.07.32.09.56.16.7l1.88 3.39s.1.23.26.36c.16.13.35.22.63.22h3.21s.28.03.42-.14c.14-.16.14-.31.14-.39v-4.73zM65.84 525.29s-.44-.01-.53.27c-.11.31.01.46.08.64.11.27 2.06 3.64 2.06 3.64s.17.35.59.4c.37.04.76-.02.77-.43v-3.95s.02-.29-.06-.41c-.11-.16-.34-.14-.4-.14h-2.51zM87.55 528.84s.28.49-.04.97c-.24.36-.77.32-.93.32H77.8s-.5 0-.5-.25.18-.4.39-.54l6.68-3.97s.39-.29.68-.22c.29.07.4.24.66.6a17.35 17.35 0 0 1 1.84 3.09M81.52 525.22s.37.04.44.2.07.38-.12.5c-.19.13-6.93 4.15-6.93 4.15s-.14.07-.54.07H72.4s-.32.04-.38-.27c-.05-.25.13-.49.13-.49l2.07-3.68s.17-.31.35-.4c.13-.07.37-.09.54-.09h6.41zM83.33 523.38s.38.27.21.7c-.17.43-.59.47-.59.47h-7.2s-.35.02-.45-.25c-.1-.27 0-.52.03-.59.06-.13 1.74-3.16 1.74-3.16s.2-.33.42-.38c.23-.05.35-.04.8.16a24.35 24.35 0 0 1 5.04 3.05M69.62 519.36s0-.34.12-.47c.12-.13.17-.22.42-.22.24 0 2.63-.05 5.7.83 0 0 .38.1.45.45.07.32-.09.56-.16.7l-1.88 3.39s-.1.23-.26.36a.94.94 0 0 1-.63.22h-3.21s-.28.03-.42-.14c-.14-.16-.14-.31-.14-.39v-4.73zM72.62 525.29s.44-.01.53.27c.11.31-.01.46-.08.64-.11.27-2.06 3.64-2.06 3.64s-.17.35-.59.4c-.37.04-.76-.02-.77-.43v-3.95s-.02-.29.06-.41c.11-.16.34-.14.4-.14h2.51z"/>
  <path fill="#0033A1" d="M87.58 538.87s.28-.49-.04-.97c-.24-.36-.77-.32-.93-.32h-8.78s-.5 0-.5.25.18.4.39.54l6.68 3.97s.39.29.68.22c.29-.07.4-.24.66-.6 1.22-1.65 1.84-3.09 1.84-3.09M81.55 542.49s.37-.04.44-.2.07-.38-.12-.5c-.19-.13-6.92-4.15-6.92-4.15s-.14-.07-.54-.07h-1.97s-.32-.04-.38.27c-.05.25.13.49.13.49l2.07 3.68s.17.31.35.4c.13.07.37.09.54.09h6.4zM83.36 544.33s.38-.27.21-.7c-.17-.43-.59-.47-.59-.47h-7.2s-.35-.02-.45.25c-.1.27 0 .52.03.59.06.13 1.74 3.16 1.74 3.16s.2.33.42.38c.23.05.35.04.8-.16 2.89-1.29 5.04-3.05 5.04-3.05M69.65 548.35s0 .34.12.47c.12.13.17.22.42.22.24 0 2.63.05 5.7-.83 0 0 .38-.1.45-.45.07-.32-.09-.56-.16-.7l-1.88-3.39s-.1-.23-.26-.36a.94.94 0 0 0-.63-.22H70.2s-.28-.03-.42.14c-.14.16-.14.31-.14.39v4.73zM72.65 542.41s.44.01.53-.27c.11-.31-.01-.46-.08-.64-.11-.27-2.06-3.64-2.06-3.64s-.17-.35-.59-.4c-.37-.04-.76.02-.77.43v3.95s-.02.29.06.41c.11.16.34.14.4.14h2.51zM50.88 538.87s-.28-.49.04-.97c.24-.36.77-.32.93-.32h8.78s.5 0 .5.25-.18.4-.39.54l-6.68 3.97s-.39.29-.68.22c-.29-.07-.4-.24-.66-.6-1.23-1.65-1.84-3.09-1.84-3.09M56.91 542.49s-.37-.04-.44-.2-.07-.38.12-.5c.19-.13 6.92-4.15 6.92-4.15s.14-.07.54-.07h1.97s.32-.04.38.27c.05.25-.13.49-.13.49L64.22 542s-.17.31-.35.4c-.13.07-.37.09-.54.09h-6.42zM55.09 544.33s-.38-.27-.21-.7a.75.75 0 0 1 .59-.47h7.2s.35-.02.45.25c.1.27 0 .52-.03.59-.06.13-1.74 3.16-1.74 3.16s-.2.33-.42.38c-.23.05-.35.04-.8-.16-2.89-1.29-5.04-3.05-5.04-3.05M68.81 548.35s0 .34-.12.47c-.12.13-.17.22-.42.22-.24 0-2.63.05-5.7-.83 0 0-.38-.1-.45-.45-.07-.32.09-.56.16-.7l1.88-3.39s.1-.23.26-.36a.94.94 0 0 1 .63-.22h3.21s.28-.03.42.14c.14.16.14.31.14.39v4.73zM65.8 542.41s-.44.01-.53-.27c-.11-.31.01-.46.08-.64.11-.27 2.06-3.64 2.06-3.64s.17-.35.59-.4c.37-.04.76.02.77.43v3.95s.02.29-.06.41c-.11.16-.34.14-.4.14H65.8z"/>
</svg>
