<svg xmlns="http://www.w3.org/2000/svg" width="48" height="16" viewBox="0 0 48 15.45">
  <path fill="#fff" fill-rule="evenodd" d="M46.52 12.71v.07c.08-.31-.17-.18-.34-.2-.48.04.31-.29.61-.14-.11-.15-1.33-.16-.67-.34-.17-.29.36-.22.54-.14 0-.15.35-.03.47-.07-.82.08-2.32-1.26-.67-1.02-.82-1.01.84-.41 1.55-.55-.41.03-.81-.07-1.21 0-.25-.09-.36-.29-.07-.48-.1-.03-.22-.09-.34-.07-.45-.24-1.1-.53-1.55-.82-.5-.64-1.91-.7-2.49-1.43-.85-.59-1.66-1.93-2.15-2.86-.53-.73-.35-2.29-.61-2.59.37-.06.75-.62.27-.89-2.23-2.02-8.13-.9-6.66 2.32-.18.51-.4.94-.74 1.43-.19.26-.57.75-.81 1.02-.38.21-.72.65-.94.82-2.55 2.65-6.88 3.78-10.42 2.25-2.3-1.02-3.91-3.33-4.64-5.32.41-.39.36-1.16-.07-1.64C12.83-1.3 9.84-.37 8.59 3.42c-.56.59-.71 1.95-1.41 2.59a7.89 7.89 0 0 1-2.76 2.11c-.72.53-2.27.36-2.56.61-.05-.37-.61-.77-.87-.27-1.64 1.98-1.36 7.32 1.68 6.96.07-.46.76.22.61-.41a5.7 5.7 0 0 1 2.49-1.09c2.3-1.47 4.45-3.07 5.92-5.59 4.95 8.49 20.51 8.72 24.41-.89 1.59 2.54 4.5 4.62 7.4 5.66.17.01.57 0 .61.14.49-.04 1.1-.1 1.55-.07-.2-.3.45.03.4-.2.07.07.13 0 .27.07 0-.07.13-.07.2 0 .18-.15.33 0 .4-.41.4-.03.66.08 1.08-.07-.23.13-.43.02-.54-.07l-.94.2ZM33.14 3.77v-.14c0 .07 0 .14.07.2 0 0-.13 0-.13-.14l.07.07Zm.47 1.44c-.31.04-.13-.3-.13-.55.09.19.26.35 0 .55h.13Zm12.31 7.77c-.5 0-.1-.09-.07-.27.26.11-.1.16.07.27Z"/>
</svg>