<svg xmlns="http://www.w3.org/2000/svg" width="1920" height="1400" viewBox="0 0 1920 1400">
  <rect width="1920" height="1400" fill="#dccce5"/>
  <path fill="#d0c0df" d="M122.4 0s-11.84 141.8-17.87 240.39 10.99 171.76 79.81 230.04c39.87 33.76 114.83 43.1 196.5 126.08 91.61 93.09 230.7 311.33 239 483.49 9.52 197.59-36.81 275.11-74.88 320H0V0zm1050.5 0s3.63 84.96-60.5 134.56-223.84-2.42-251.06-8.47-167.57-62.31-180.28 48.4 159.71 295.22 220.81 322.45 163.35 71.46 268.61 9.14 131.87-137.16 214.75-89.6c36.9 21.17 21.17 64.73-19.36 119.18s-36.9 85.3 3.63 117.97 75.02 40.53 146.4 33.27 209.66-42.05 267.94-96.69 127.51-173.02 136.15-204.89c0-41.89-5.02-385.32-5.02-385.32zm236.25 1128.54c39.91-54.87 148.14-177.89 262.18-217.14 129.43-51.77 195.1-39.18 248.67-11.19v499.8h-652.37c15.74-62.09 65.95-167.56 141.52-271.46Z"/>
</svg>
