<svg xmlns="http://www.w3.org/2000/svg" viewBox="0 0 368 500">
<style>

#f1 {
  opacity: 0;
  transform: translate(184px, 160px) scale(.5) translate(-184px, -160px);
  animation: cnft1 .6s 0s 3 ease-out forwards;
}

#f2 {
  opacity: 0;
  transform: translate(184px, 160px) scale(.5) translate(-184px, -160px);
  animation: cnft1 .8s .1s 3 ease-out forwards;
}

#f3 {
  opacity: 0;
  transform: translate(184px, 160px) scale(.5) translate(-184px, -160px);
  animation: cnft2 .7s .2s 3 ease-out forwards;
}

#f4 {
  opacity: 0;
  transform: translate(184px, 160px) scale(.5) translate(-184px, -160px);
  animation: cnft2 .9s .3s 3 ease-out forwards;
}

#f5 {
  opacity: 0;
  transform: translate(184px, 160px) scale(.5) translate(-184px, -160px);
  animation: cnft1 .85s .4s 3 ease-out forwards;
}

#f6 {
  opacity: 0;
  transform: translate(184px, 160px) scale(.5) translate(-184px, -160px);
  animation: cnft1 .8s .5s 3 ease-out forwards;
}

#f7 {
  opacity: 0;
  transform: translate(184px, 160px) scale(.5) translate(-184px, -160px);
  animation: cnft2 .6s .6s 3 ease-out forwards;
}

#f8 {
  opacity: 0;
  transform: translate(184px, 160px) scale(.5) translate(-184px, -160px);
  animation: cnft2 .8s .7s 3 ease-out forwards;
}

#f9 {
  opacity: 0;
  transform: translate(184px, 160px) scale(.5) translate(-184px, -160px);
  animation: cnft1 .6s .8s 3 ease-out forwards;
}

@keyframes cnft1 {
  0% {
    opacity: 0;
    transform: translate(184px, 160px) rotate(0deg) scale(.2) translate(-184px, -160px);
  }
  5%, 60% {
    opacity: 1;
  }
  95%, 100% {
    opacity: 0;
    transform: translate(184px, 160px) rotate(30deg) scale(1) translate(-184px, -160px);
  }
}

@keyframes cnft2 {
  0% {
    opacity: 0;
    transform: translate(184px, 160px) scale(.2) translate(-184px, -160px);
  }
  5%, 60% {
    opacity: 1;
  }
  95%, 100% {
    opacity: 0;
    transform: translate(184px, 160px) scale(1) translate(-184px, -160px);
  }
}

</style>
  <g id="f1" fill="#e7283b">
    <path d="m299.87 350.12 3.4-2.32-.35-.04-.85-.07-2.91-.18-2.91-.16-.64-.03q-.29-.02-.56-.01l-3.4 2.32.35.04.85.07 2.91.18 2.91.16.64.03q.29.02.56.01M295.66 176.55c1.35 1.86 3.1 3.4 5.13 4.5a17.5 17.5 0 0 0 7.29 1.6q4.07.4 8.16.38 1.56-.06 3.07-.5a14.6 14.6 0 0 0 5.75-3.4q-.67 0-1.35-.12l-3.27-.21-3.27-.18c-.25-.01-1.18-.21-1.36-.04a13.8 13.8 0 0 1-9.04 3.91h.17-.22q-2.29-.03 3.69.23 5.9.47 3.8.21l-.33-.04.16.02a14.2 14.2 0 0 1-9.15-5.82q-.67-.14-1.35-.12l-3.27-.21-3.27-.18c-.2-.01-1.26.08-1.35-.04M213.23 91.26c-1.5.95-1.64 3.29-1 4.88.85 2.09 2.96 3.07 4.74 3.89q.5.1 1.02.09l2.47.16q1.23.08 2.47.13l.55.02h.48c-1.78-.82-3.89-1.8-4.74-3.89-.64-1.59-.51-3.92 1-4.88q-.51 0-1.02-.09l-2.47-.16q-1.24-.08-2.47-.13l-.55-.02zM219.89 245.24c.33-2.24-.98-4.73-3.08-5.01-1.14-.15-2.31-.18-3.46-.25-1.48-.09-2.96-.22-4.44-.23a5 5 0 0 0-1.73.3 13 13 0 0 0-3.39 2.25q.58 0 1.15.1 1.38.1 2.77.18l2.77.15.61.03q.27.02.54 0c1.43-1.17 3-2.5 4.84-2.55h-.14l-1.54-.07-5.76-.37.2.02-.14-.02c2.03.37 3.26 2.81 2.94 4.99l3.92.28q1.95.2 3.92.19"/>
  </g>
  <g id="f2" fill="#e7283b">
    <path d="m98.87 278.96 4.26-2.23-.35-.04-.85-.07-2.91-.18-2.91-.16-.64-.03q-.29-.02-.56-.01l-4.26 2.23.35.04.85.07 2.91.18 2.91.16.64.03q.29.02.56.01M158.42 63c-.85 2.27-1.91 5.13-.68 7.45.4.84 1.12 1.48 2 1.78q.47.1.96.12a210 210 0 0 0 7.87.43q.36-.02.71-.16l-.35-.04-.85-.07-2.91-.18-2.91-.16-.64-.03q-.29-.02-.56 0-.35.14-.71.16h.36l7.52.46h-.1l.15.01a3.7 3.7 0 0 1-2.75-3.11c-.4-2.1.41-4.26 1.13-6.18l-1.2-.1-2.91-.18-2.91-.16q-.6-.09-1.21-.04M22.89 150.85c7.35-4.69 12.4-13.3 13.6-22.6-.02.17-8.19-.79-8.23-.48-1.2 9.3-6.24 17.91-13.6 22.6q.6 0 1.2.1l2.91.18 2.91.16c.28.01.98.18 1.21.04M323.95 50.72l-3.62 1.89.3.03.72.06 2.47.16q1.23.08 2.47.13l.55.02h.48l3.62-1.89-.3-.03-.72-.06-2.47-.16q-1.24-.08-2.47-.13l-.55-.02q-.24-.02-.48 0M187.95 183.97c-.38 7.05 3.52 14.13 9.54 16.42q.51.1 1.02.09l2.47.16q1.24.08 2.47.13.52-.05 1.02.03c-6.02-2.29-9.92-9.37-9.54-16.42 0-.07-6.98-.46-6.98-.41M277.2 258.71c.72-1.92 1.62-4.36.58-6.32a3 3 0 0 0-1.7-1.51q-.4-.1-.81-.1-2.38-.18-4.78-.3-.95-.09-1.9-.07-.32.02-.6.14l.3.03.72.05 2.47.16q1.23.08 2.47.13l.55.02h.48q.28-.12.6-.14h-.31l-6.38-.39h.09l-.12-.01a3.2 3.2 0 0 1 2.33 2.64c.34 1.79-.34 3.62-.96 5.24l1.02.09 2.47.16q1.23.08 2.47.13.51.07 1.02.03M325.94 254.45l.6-4.81c.3-2.41-3.63-.26-3.92-.28l-2.77-.15q-.57-.04-1.15-.04l-.6 4.81 3.92.28 2.77.15q.57.04 1.15.04M83.14 196.01q.56 1.8 1.43 3.48c.42.9 1.17 1.62 2.09 1.99q.48.12.98.13 2.72.2 5.44.34 1.13.12 2.24.07.3-.03.59-.13a2.8 2.8 0 0 0 1.65-1.99l-1.15-.1q-1.39-.1-2.77-.18l-2.77-.15a6 6 0 0 0-1.15-.04 2.64 2.64 0 0 1-2.39 2.13h.14-.15l3.78.19h-.07l3.78.26q-.07 0-.15-.02l.14.02a3.5 3.5 0 0 1-2.27-1.86 18 18 0 0 1-1.55-3.67q-.57-.1-1.15-.1-1.38-.1-2.77-.18l-2.77-.15q-.57.02-1.15-.04M242.26 436.51h-.13.15-.27l5.06.27q3.96.34 2.47.17l.15.02a6 6 0 0 1-4.8-6.03c-.02-2.92 1.76-5.65 4.49-5.73h-.15.25l-5.06-.27q-3.99-.35-2.5-.17l-.15-.02c1.15.17 2.17.83 2.78 1.82q.6.12 1.2.1l2.91.18 2.91.16q.6-.06 1.21.04c-1.4-2.21-4.01-1.94-6.17-2.08-1.78-.11-3.59-.3-5.38-.27q-.58 0-1.12.16-1.13.33-1.91 1.2a6.7 6.7 0 0 0 .62 9.19q1.04.9 2.37 1.17 1.83.27 3.68.3c1.86.11 3.74.32 5.61.26-.38.01-.84-.08-1.2-.1l-2.91-.19c-1.36-.08-2.75-.24-4.12-.2"/>
  </g>
  <g id="f3">
    <path fill="#27af9b" d="M139.34 391.91a38 38 0 0 1 2.67-14.96l-1.2-.1-2.91-.18-2.91-.16q-.6-.09-1.21-.04a38 38 0 0 0-2.67 14.96c0 .12 3.8.27 4.11.29s4.11.17 4.12.2"/>
    <path fill="#e7283b" d="M340.79 297.39c-.98-5.37 1.24-10.85 4.63-14.66 3.74-4.19 8.76-6.48 13.57-8.66q-.6.02-1.2-.1l-2.91-.18-2.91-.16q-.6-.13-1.21-.04c-4.81 2.18-9.83 4.47-13.57 8.66-3.39 3.8-5.61 9.29-4.63 14.66.04.23 3.76.27 4.11.29l2.91.16c.12 0 1.2.01 1.21.04M267.16 191.9c7.35-4.69 12.4-13.3 13.6-22.6-.02.17-8.19-.79-8.23-.48-1.2 9.3-6.24 17.91-13.6 22.6q.6 0 1.2.1l2.91.18 2.91.16c.28.01.98.18 1.21.04"/>
    <path fill="#f6931e" d="M111.44 93.03c-1.32 4.4-3.03 10.26-.08 14.26a6.1 6.1 0 0 0 4.15 2.58c1.73.2 3.48.25 5.22.35 1.11.06 2.23.18 3.35.14a3.8 3.8 0 0 0 2.3-.88q-.6 0-1.2-.1l-2.91-.18-2.91-.16c-.24-.01-1.02-.19-1.21-.04-.65.54-1.46.85-2.3.88h.15l.74.03 6.87.43q-.17 0-.32-.04l.15.02a6.9 6.9 0 0 1-5.13-5.34c-.9-3.82.27-7.83 1.36-11.46-.04.12-3.78-.27-4.11-.29l-2.91-.16q-.6-.07-1.21-.04"/>
    <path fill="#27af9b" d="M112.66 245.28c-.99-5.37 1.24-10.85 4.63-14.66 3.74-4.19 8.76-6.48 13.57-8.66q-.6.02-1.2-.1l-2.91-.18-2.91-.16q-.6-.13-1.21-.04c-4.81 2.18-9.83 4.47-13.57 8.66-3.39 3.8-5.62 9.29-4.63 14.66.04.23 3.76.27 4.11.29l2.91.16c.12 0 1.2.01 1.21.04"/>
    <path fill="#e7283b" d="M39.71 123.02a13.7 13.7 0 0 0 3.19 10.01q.4.09.81.07.98.08 1.96.12c.98.04 1.31.08 1.96.11.14 0 .74-.06.81.03a13.6 13.6 0 0 1-3.19-10.01s-5.55-.41-5.55-.33M325.94 69.92c.84 4.55-1.05 9.21-3.93 12.44-3.17 3.56-7.44 5.5-11.52 7.35q.52-.02 1.02.09l2.47.16q1.24.08 2.47.13.51.1 1.02.03c4.08-1.85 8.34-3.79 11.52-7.35 2.88-3.23 4.77-7.89 3.93-12.44a20 20 0 0 0-3.49-.24 102 102 0 0 0-3.49-.16"/>
  </g>
  <g id="f4">
    <path fill="#9d80a7" d="M80.63 155.01a2.9 2.9 0 0 1-.89-3.1 2.8 2.8 0 0 1 2.81-2.18l-5.97-.35c3.51.31 4.79 5.24 4.74 8.56-.05 3.02-1.15 6.59-3.92 7.74q-.55.21-1.12.3l-.24.02 5.02.3q-.34-.09-.69-.17a7 7 0 0 1-2.35-1.38 11 11 0 0 1-2.96-4.89 35 35 0 0 1-1.32-6.11q-.52-3.17-.22-6.36c.44-3.77 2.44-6.92 5.73-8.14a8 8 0 0 1 2.1-.49q.3-.03.59-.04c1.91-.07 2.77.95-4.74-.3q.7.1 1.37.28c1.57.5 3 1.37 4.16 2.55 5.93 5.83 5.85 15.57 5.08 23.69q-.33 1.94-.05 3.9a8 8 0 0 0 1.5 2.94 13 13 0 0 0 4.32 3.58c3.36 1.75 7.13 2.24 10.79 2.64 1.26.14 2.54.18 3.81.25q.93.06 1.85.09c.06 0 .61.02.31 0-3.95-.43-8.1-1-11.6-3.2a12 12 0 0 1-4.26-4.5c-1.19-2.32-.46-5.18-.27-7.7.39-5.27.33-10.8-1.65-15.67-1.56-3.85-4.38-7.4-8.21-8.31a22 22 0 0 0-3.76-.39 35 35 0 0 0-5.21-.18 8.5 8.5 0 0 0-4.94 2.07c-3.51 3.09-3.52 8.47-2.89 12.93.64 4.53 1.76 10.15 5.95 12.11 1.07.42 2.22.63 3.37.62q2 .14 3.99.23.93.09 1.85-.04a5.5 5.5 0 0 0 3.8-3.29 12 12 0 0 0 .95-6.14c-.21-2.33-1.01-5.08-2.83-6.43-1.23-.91-2.82-.8-4.24-.89-1.34-.08-2.7-.23-4.04-.2q-.76 0-1.43.34c-1.63.89-2.11 3.81-.48 4.95q.45.1.91.08l2.19.14 2.19.12c.2.01.75-.08.91.03"/>
    <path fill="#e7283b" d="m8.23 251 .38-.02h-.15c3.17-.05-9.13-.7-6.5-.4l.68.08-.15-.02c1.34.19 2.66.44 4.01.54q3.74.29 7.47.44a9 9 0 0 0 2.01-.08c2.8-.49 3.98-3.21 4.9-5.89l-1.2-.1-2.91-.18-2.91-.16a6 6 0 0 0-1.21-.04q-.64 2.34-2.09 4.29a5 5 0 0 1-3.71 1.69H7c-3.15.06 9.17.71 6.54.4l-.66-.08.15.02c-1.21-.18-2.41-.41-3.63-.51q-3.31-.27-6.63-.41-1.38-.1-2.76-.05.6 0 1.2.1l2.91.18q2.05.23 4.12.2M225.06.05a3.8 3.8 0 0 0-1.01 2.92q.11 2.04.61 4.01l.89 4.4q.52 1.98.73 4.02c.04 1.02-.24 2.18-1.32 2.24h.27-.13l3.63.21a5 5 0 0 1-2.55-1.5 19 19 0 0 1-1.9-2.31c-1.12-1.53-2.28-3.3-3.99-4.04q-.73-.3-1.52-.33a82 82 0 0 0-3.12-.18c-.31-.01-.67-.09-.9.21q-.22.4-.3.85l-.3 1.12q-.3 1.08-.69 2.13a9 9 0 0 1-2.1 3.35q-.62.59-1.38.95a4 4 0 0 1-1.17.31l-.26.01q-.96 0 1.59.1 2.54.2 1.61.09c-.7-.09-1.39-.23-2.1-.28q-1.62-.12-3.24-.2a8 8 0 0 0-1.17-.01c-1.49.13-2.13 1.47-2.61 2.88q1 .02 1.99.14l1.41.08q.29.04.58.02c.44-1.28 1-2.59 2.33-2.84q.24-.04.48-.05a30 30 0 0 0-3.28-.2l.24.03 1.03.16c1.27.19 2.57.22 3.85.29q1.17.15 2.31-.14.88-.3 1.58-.93c1-.93 1.77-2.09 2.23-3.37q.48-1.26.83-2.57.16-.62.33-1.24c.12-.38.28-.64.66-.66l-3.71-.21h.11l-.27-.02c1.71.27 2.97 1.65 4.04 3.05q1.52 2.37 3.62 4.24.51.39 1.11.64.36.15.74.2c.91.11 1.83.13 2.75.18.66.04 1.62.28 2.18-.28.3-.35.47-.8.49-1.26q0-1.9-.53-3.73l-.95-4.65a27 27 0 0 1-.75-4.55c-.03-1.16.31-3.21 1.63-3.33"/>
    <path fill="#f6931e" d="M313.27 208.54c1.12-3.73 2.57-8.71.07-12.1a5.2 5.2 0 0 0-3.53-2.19c-1.47-.17-2.96-.21-4.43-.29-.94-.05-1.9-.15-2.84-.12-.72.02-1.4.28-1.95.74q.51 0 1.02.09l2.47.16q1.23.08 2.47.13c.21 0 .87.16 1.02.03a3.2 3.2 0 0 1 1.95-.74h-.12l-.62-.03-5.83-.36.27.03-.12-.02a5.8 5.8 0 0 1 4.36 4.53c.77 3.24-.23 6.64-1.16 9.73.03-.1 3.21.23 3.49.24a102 102 0 0 0 3.49.16"/>
    <path fill="#e7283b" d="M333.91 371.16a4.8 4.8 0 0 1-3.9 2.78h.14l2.48.12 4.82.32q-.13 0-.26-.03l.14.02c-2.34-.43-3.65-3.25-3.7-5.72-.05-2.32 1.23-5.56 3.61-5.74h-.3c-.19-.02.87.07.4-.02q-.9-.12-1.8-.13-2.69-.19-5.37-.3c-.69-.09-1.4.06-2 .41q-.88.61-1.41 1.55a7.3 7.3 0 0 0-.86 4.92c.2 1.52.96 2.91 2.11 3.91a3.5 3.5 0 0 0 1.75.7c1.64.19 3.3.23 4.95.33q1.63.15 3.27.13a4.9 4.9 0 0 0 3.77-2.77c-.01.02-1.31-.11-1.15-.1q-1.39-.1-2.77-.18l-2.77-.15c-.15 0-1.09-.14-1.15-.04M152.58 324.37c-2.73-.84-4.04-4.32-4.52-7.16-.67-4 .02-8.16.64-12.13 0 .02-3.62-.26-3.92-.28q-1.95-.2-3.92-.19c-.63 3.97-1.31 8.12-.64 12.13.47 2.84 1.79 6.32 4.52 7.16q.57.11 1.15.1 1.38.1 2.77.18l2.77.15q.58-.05 1.15.04"/>
    <path fill="#f4b041" d="M212.48 456.8c2.51-.08 4.38-2.64 5.04-5.16.76-2.77.3-5.73-1.28-8.13a4.4 4.4 0 0 0-2.79-1.75 51 51 0 0 0-5.36-.38 19 19 0 0 0-3.7-.09c-2.5.35-4.38 2.55-5.47 4.97a23 23 0 0 0-1.62 10.4q1.95.24 3.92.28c.29.02 3.92.14 3.92.19a23 23 0 0 1 1.53-10.19c1.15-2.68 3.26-5.08 6.05-5.21h-.14.33l-6.55-.37-.68-.05-.14-.02c3.22.48 4.59 4.41 4.47 7.67s-2.07 7.27-5.35 7.38c.36-.01.8.07 1.15.1l2.77.18c1.3.08 2.62.23 3.92.19"/>
  </g>
  <g id="f5">
    <path fill="#e7283b" d="M188.44 295.95a104 104 0 0 1 25.16-7.18c1.35-.2 2.94-.65 4.23-.15q.43.15.73.48.12.15.21.31c1.21 2.03-1.23-8.11-1.28-5.46-.03 1.6-1.18 3.24-2.12 4.57a93 93 0 0 1-8.59 9.83 214 214 0 0 1-4.45 4.59l-2.09 2.07-1.15 1.12q-.61.5-1.06 1.15-.21.4-.14.83c.15 1.08.46 2.16.71 3.21q.27 1.6.76 3.14.21.53.7.86c1.37.94 3.42.71 5 .24a34 34 0 0 0 5.96-2.78l6.43-3.39a43 43 0 0 1 5.92-2.96c1.57-.53 3.5-.62 4.08 1.04l-.12-.43.05.21-1.31-5.76a8 8 0 0 1-1.18 4.65 30 30 0 0 1-2.73 4.01c-1.87 2.44-4.09 5.04-4.47 8.04q-.13 1.27.17 2.52.53 2.47 1.13 4.95c.12.48.17 1.09.74 1.3q.73.18 1.47.08l1.89-.04q1.82-.04 3.62.11c2.16.12 4.27.72 6.17 1.76q1.19.69 2.11 1.72a6 6 0 0 1 1.01 1.67l.14.4q.45 1.5-.57-2.52-.86-4.04-.59-2.55c.18 1.13.28 2.27.51 3.39q.55 2.58 1.17 5.14a14 14 0 0 0 .51 1.82c.88 2.26 3.26 2.64 5.67 2.76a31 31 0 0 1-.68-3.16l-.52-2.22a5 5 0 0 0-.24-.92c-2.18-.1-4.48-.38-5.48-2.34a6 6 0 0 1-.29-.72c-.43-1.22 1.31 5.99 1.18 5.2l-.07-.39q-.12-.84-.22-1.68c-.28-2.07-.82-4.1-1.3-6.12a10 10 0 0 0-1.27-3.53 8 8 0 0 0-2.17-2.03 14 14 0 0 0-6.26-1.94 40 40 0 0 0-4.37-.13q-1.04.04-2.08.04c-.64 0-1.13-.14-1.33-.73l1.36 5.86-.04-.17.08.43c-.36-2.78 1.23-5.37 2.92-7.67 1.79-2.43 3.93-4.78 4.96-7.56a8 8 0 0 0 .49-2.01q.07-.63-.02-1.25c-.24-1.47-.63-2.91-.97-4.36-.24-1.05-.3-2.65-1.43-3.26a3.3 3.3 0 0 0-2.18-.18c-1.99.39-3.81 1.6-5.56 2.52l-6.8 3.59a43 43 0 0 1-6.73 3.23c-1.8.57-5.13.97-5.92-1.03l1.11 4.73-.04-.17.33 1.57c.03-.56.31-1.08.76-1.42l1.7-1.66a257 257 0 0 0 9.5-9.87c1.66-1.81 3.34-3.61 4.81-5.55a19 19 0 0 0 2.32-3.67q.36-.74.48-1.54.04-.31.01-.62a28 28 0 0 0-.72-3.37 22 22 0 0 0-.8-3.31 2 2 0 0 0-.32-.52 2.3 2.3 0 0 0-1.34-.6q-1.8-.11-3.57.32-2.32.34-4.63.81a104 104 0 0 0-20.54 6.36q.23 1.6.68 3.16c.06.24.84 3.1.76 3.14M140.83 197.42c-1.3-3.1-.46-6.8 1.32-9.48 1.96-2.97 4.94-4.81 7.77-6.55q-.6.01-1.2-.1l-2.91-.18-2.91-.16c-.28-.01-.97-.18-1.21-.04-2.83 1.74-5.8 3.58-7.76 6.55-1.77 2.69-2.62 6.39-1.32 9.48q.6.1 1.2.1l2.91.18 2.91.16q.6-.03 1.21.04M32.21 213.71a20.2 20.2 0 0 0-4.82-14.79q-.6-.12-1.2-.1l-2.91-.18-2.91-.16c-.2 0-1.09.09-1.21-.04a20.2 20.2 0 0 1 4.83 14.79c0 .03 8.22.59 8.23.48"/>
    <path fill="#f4b041" d="M312.41 94.67a7.4 7.4 0 0 0-2.78-3.72 5 5 0 0 0-1.87-.72 71 71 0 0 0-7.72-.51c-1.76-.09-3.32-.23-4.84.93a9 9 0 0 0-2.71 3.81 12.4 12.4 0 0 0 .62 10.24 9 9 0 0 0 2.9 3.31c1.89 1.24 4.23 1.12 6.35 1.25q3.34.34 6.7.3a8 8 0 0 0 2.53-.57 14 14 0 0 0 4.93-3.49q-.68 0-1.35-.12l-3.27-.21-3.27-.18c-.24-.01-1.2-.2-1.35-.04-2.1 2.18-4.68 3.92-7.59 4.07h.17q-1.74.02 2.5.14l5.68.37-.48-.05.16.02c-4.01-.67-6.58-5.06-6.82-9.38-.23-4.08 1.93-9.69 6.13-9.94h-.22l-8.44-.52.2.02-.16-.02c2.25.33 3.9 2.2 4.75 4.46q.68.12 1.35.12l3.27.21 3.27.18q.67-.02 1.35.04"/>
    <path fill="#e7283b" d="M118.6 35.08c.84 4.56-1.05 9.21-3.93 12.44-3.17 3.56-7.44 5.5-11.52 7.35q.52-.02 1.02.09l2.47.16q1.24.08 2.47.13.51.1 1.02.03c4.08-1.85 8.34-3.79 11.52-7.35 2.88-3.23 4.77-7.89 3.93-12.44a21 21 0 0 0-3.49-.25 102 102 0 0 0-3.49-.16"/>
    <path fill="#f4b041" d="M242.88 174.23a6.8 6.8 0 0 0-1.33-6.77 5 5 0 0 0-2.95-1.39c-1.8-.21-3.62-.26-5.42-.35q-1.36-.15-2.71-.02c-4.69.75-5.63 7.46-3.47 11.26a10.7 10.7 0 0 0 6.25 4.84q.51.09 1.02.09l2.47.16q1.24.08 2.47.13.51-.04 1.02.03c-3.44-1.08-6.79-3.87-7.32-8.07-.48-3.81 1.57-8.19 5.41-8.08l-5.84-.33c-.9-.07-.27 0-.05.06a5 5 0 0 1 1.69.84 5 5 0 0 1 1.53 1.99 7 7 0 0 1 .26 5.19q1.75.03 3.49.24 1.24.08 2.47.13.51.08 1.02.03"/>
    <path fill="#e7283b" d="M306.95 459.94a12.5 12.5 0 0 0-5.99-4.68 22 22 0 0 0-5.91-.74c-2.26-.14-4.65-.5-6.91-.02q.57 0 1.15.1l2.77.18q1.39.09 2.77.15.57.09 1.15.04.81-.17 1.65-.21h-.14.49l-6.74-.39.33.04-.14-.02c3.14.6 5.91 2.44 7.68 5.09q.57.12 1.15.1 1.39.1 2.77.18l2.77.15c.17 0 1.07-.07 1.15.04"/>
  </g>
  <g id="f6">
    <path fill="#9d80a7" d="M101.57 344.83c1.95-3.66.15-7.85-2.24-10.53a60 60 0 0 0-9.39-8.05 4 4 0 0 0-1.2-.1l-2.91-.18-2.91-.16c-.26-.01-1.01.1-1.21-.04a60 60 0 0 1 9.39 8.05c2.39 2.68 4.18 6.87 2.24 10.53.01-.02 1.38.12 1.2.1l2.91.18 2.91.16c.15 0 1.15.15 1.21.04"/>
    <path fill="#94c7c1" d="M165.47 271.25a9.4 9.4 0 0 1 2.11-9.61q-.6 0-1.2-.1l-2.91-.18-2.91-.16-.64-.03q-.29-.02-.56-.01a9.3 9.3 0 0 0-2.11 9.61q.6.1 1.2.1l2.91.18 2.91.16q.6-.02 1.21.04"/>
    <path fill="#27af9b" d="M286.15 499.99a45 45 0 0 0 .35-16.23c-.03-.22-3.77-.27-4.11-.29l-2.91-.16c-.12 0-1.2-.02-1.21-.04a45 45 0 0 1-.35 16.23c.01-.05 3.8.27 4.11.29q2.05.24 4.12.2"/>
    <path fill="#f4b041" d="M194.37 133.46a8 8 0 0 0 1.57 7.97 5.7 5.7 0 0 0 3.48 1.64c2.11.25 4.26.3 6.39.41q1.6.17 3.2.02c5.53-.88 6.63-8.79 4.09-13.27a12.7 12.7 0 0 0-7.36-5.7q-.6-.11-1.2-.1l-2.91-.18-2.91-.16q-.6.05-1.21-.04c4.05 1.28 8 4.56 8.63 9.51.57 4.49-1.85 9.65-6.37 9.52l6.88.39c1.07.08.32 0 .06-.08a6 6 0 0 1-1.99-.99 6.4 6.4 0 0 1-1.81-2.34 8.3 8.3 0 0 1-.3-6.11 40 40 0 0 1-4.11-.29l-2.91-.16a6 6 0 0 0-1.21-.04M68.14 53.62a7.4 7.4 0 0 0-2.78-3.72 5 5 0 0 0-1.87-.72 71 71 0 0 0-7.72-.51c-1.76-.09-3.32-.23-4.84.93a9 9 0 0 0-2.71 3.81 12.4 12.4 0 0 0 .62 10.24 9 9 0 0 0 2.9 3.31c1.89 1.24 4.23 1.12 6.36 1.25q3.34.34 6.7.3a8 8 0 0 0 2.53-.57 14 14 0 0 0 4.93-3.49q-.68 0-1.35-.12l-3.26-.21q-1.63-.1-3.27-.18c-.24-.01-1.2-.2-1.35-.04-2.1 2.18-4.68 3.92-7.59 4.07h.17q-1.74.03 2.5.14l5.68.37-.48-.05.16.02c-4-.67-6.58-5.06-6.82-9.38-.23-4.08 1.93-9.69 6.13-9.94h-.22l-8.44-.52.21.02-.16-.02c2.25.33 3.9 2.19 4.75 4.46q.68.12 1.35.12l3.27.21 3.27.18q.67-.03 1.35.04"/>
    <path fill="#9d80a7" d="M349.74 156.25c.77.64 1.07 1.68.76 2.63a2.4 2.4 0 0 1-2.39 1.85l5.07.3c-2.98-.26-4.07-4.45-4.02-7.27.04-2.57.98-5.6 3.33-6.57q.47-.18.95-.26l.2-.02-4.26-.26q.3.07.59.15 1.12.38 2 1.17a9.5 9.5 0 0 1 2.52 4.15q.8 2.54 1.12 5.19.44 2.69.18 5.4c-.37 3.2-2.08 5.87-4.86 6.9a8 8 0 0 1-2.28.46c-1.62.06-2.35-.8 4.02.26q-.59-.09-1.16-.24a8.5 8.5 0 0 1-3.53-2.17c-5.03-4.95-4.96-13.21-4.31-20.11q.28-1.65.05-3.31a6.5 6.5 0 0 0-1.27-2.5 11 11 0 0 0-3.66-3.04c-2.85-1.48-6.05-1.9-9.16-2.24-1.07-.12-2.16-.15-3.23-.21l-1.57-.08c-.05 0-.52-.02-.27 0 3.35.37 6.87.85 9.84 2.72 1.52.93 2.77 2.25 3.61 3.82 1.01 1.97.39 4.39.23 6.54-.33 4.48-.28 9.16 1.4 13.3 1.32 3.27 3.72 6.28 6.97 7.06q1.6.3 3.2.33 2.2.24 4.43.16a7.2 7.2 0 0 0 4.19-1.76c2.98-2.62 2.99-7.19 2.45-10.98-.54-3.85-1.49-8.61-5.05-10.28a8 8 0 0 0-2.86-.53q-1.7-.11-3.39-.19a6 6 0 0 0-1.57.04 4.7 4.7 0 0 0-3.23 2.79 10.3 10.3 0 0 0-.81 5.21c.17 1.98.86 4.31 2.4 5.46 1.05.77 2.39.68 3.59.76 1.14.07 2.29.19 3.43.17q.64 0 1.22-.29c1.39-.76 1.79-3.23.41-4.2a3 3 0 0 0-.77-.07l-1.86-.12-1.86-.1c-.17 0-.64.07-.77-.02"/>
    <path fill="#94c7c1" d="M267.41 57.26c1 2.84.3 6-1.79 8.15q.51 0 1.02.09l2.47.16q1.23.08 2.47.13l.55.02h.48a7.9 7.9 0 0 0 1.79-8.15 6 6 0 0 0-1.02-.09l-2.47-.16a102 102 0 0 0-3.49-.16"/>
    <path fill="#e7283b" d="M358.74 343.88c-2.72-.84-4.04-4.32-4.52-7.16-.66-4 .02-8.16.65-12.13 0 .02-3.62-.26-3.92-.28q-1.95-.2-3.92-.19c-.63 3.97-1.31 8.12-.65 12.13.47 2.84 1.79 6.32 4.52 7.16q.57.11 1.15.1 1.38.1 2.77.18l2.77.15q.58-.05 1.15.04"/>
  </g>
  <g id="f7">
    <path fill="#e7283b" d="M250.21 97.6c.45-8.31-4.15-16.65-11.24-19.34q-.6-.12-1.2-.1l-2.91-.18-2.91-.16q-.6.06-1.21-.04c7.09 2.69 11.69 11.04 11.24 19.34 0 .08 8.22.54 8.23.48M138.29 66.75q-.65-2.13-1.69-4.1a4.7 4.7 0 0 0-2.46-2.35 6 6 0 0 0-1.15-.16q-3.2-.25-6.41-.4-1.32-.14-2.64-.08-.36.03-.69.16a3.3 3.3 0 0 0-1.94 2.35l1.35.12 3.27.21a179 179 0 0 0 4.63.22 3.1 3.1 0 0 1 2.81-2.51h-.17.18l-4.46-.22h.09l-4.45-.29.17.02-.16-.02c1.17.3 2.15 1.1 2.68 2.19a22 22 0 0 1 1.83 4.33q.68.1 1.35.12l3.27.21 3.27.18q.67-.02 1.36.04M173.46 403.03l1.15-5.59-1.15-.1q-1.38-.1-2.77-.18l-2.77-.15a9 9 0 0 0-1.15-.04l-1.15 5.6 1.15.1q1.38.1 2.77.18l2.77.15q.57.06 1.15.04"/>
    <path fill="#27af9b" d="M283.21 336.4a10.2 10.2 0 0 1-6.77 3.28h.09-.37l4.18.24-.24-.03h.09c-3.93-.57-6.49-4.28-7.5-8.34-.55-2.21-.65-4.5-.29-6.75a30 30 0 0 1 2.6-7.45 14 14 0 0 1 1.96-3.36 4.2 4.2 0 0 1 3.18-1.49h-.09q1.24 0-1.91-.12-3.13-.25-1.92-.1h-.09a8 8 0 0 1 3.97 1.82 5 5 0 0 1 1.55 1.78c.16.79-.03 1.62-.51 2.27a7.5 7.5 0 0 1-6.28 4.11h.09-.16q-1.27-.02 1.92.12 3.15.24 2 .11-.12 0-.23-.03h.09q-2.46-.43-4.64-1.64a29 29 0 0 1-3.84-2.31 13.6 13.6 0 0 1-5.6-12.71c-.01.1-4.94-.47-4.97-.29-.39 3.24.39 6.51 2.19 9.23a18.4 18.4 0 0 0 7.1 5.71q2.25 1.27 4.79 1.73 2.7.31 5.41.36 1.07.07 2.13-.15a7 7 0 0 0 3.26-1.74 9 9 0 0 0 1.34-1.59q.7-.96.96-2.12c0-.78-.38-1.51-1.01-1.97a9 9 0 0 0-1.83-1.43c-1.9-1.12-4-1.09-6.11-1.22-1.87-.11-3.88-.44-5.42 1.04a12 12 0 0 0-2.38 3.91c-1.38 3.09-2.7 6.25-2.72 9.76a16 16 0 0 0 2.21 8.4 8.3 8.3 0 0 0 6.07 4.21c1.8.21 3.64.29 5.46.33a8 8 0 0 0 1.87-.17 10 10 0 0 0 3.68-1.66q.9-.65 1.68-1.45a5 5 0 0 1-.73-.06l-1.76-.11-1.76-.1c-.13 0-.64-.11-.73-.02"/>
    <path fill="#e7283b" d="M156.91 137.65a13 13 0 0 0-4.35-3.82 15 15 0 0 0-6.19-1.36q-3.46-.34-6.93-.33-1.32.05-2.6.43a12 12 0 0 0-4.88 2.89q.57 0 1.15.1 1.38.1 2.77.18l2.77.15c.21.01 1 .18 1.15.04a11.7 11.7 0 0 1 7.67-3.32h-.14.19q1.94.03-3.13-.19-5.01-.39-3.22-.18l.28.04-.14-.02c3.14.56 5.93 2.34 7.77 4.94q.57.12 1.15.1 1.38.1 2.77.18l2.77.15c.17 0 1.07-.07 1.15.04"/>
    <path fill="#f6931e" d="M73.59 261.22a33 33 0 0 0 3.21 6.4 6.3 6.3 0 0 0 4.26 3c1.96.21 3.94.27 5.9.38q1.26.12 2.51.06a5 5 0 0 0 2.07-.74 6 6 0 0 0 2.58-4.72c0-.02-7.84-.57-7.84-.46-.21 2.93-2.26 5.37-4.94 5.48h.14-.29l6.55.37.73.05.14.02c-1.76-.25-3.13-1.72-4.15-3.23q-1.82-2.92-3.03-6.14a6 6 0 0 0-1.15-.1q-1.39-.1-2.77-.18l-2.77-.15q-.58.02-1.15-.04"/>
    <path fill="#e7283b" d="M38.24 349.98q-.42-1.41-1.1-2.73a3.3 3.3 0 0 0-1.65-1.64 2 2 0 0 0-.49-.09c-1.54-.17-3.1-.22-4.64-.29q-.89-.09-1.79-.06-.23.01-.44.09a2.2 2.2 0 0 0-1.35 1.59l.91.08 2.2.14q1.1.07 2.21.12.45.06.92.03a2.1 2.1 0 0 1 1.91-1.68h-.31l-4.9-.29q-1.05-.1-.62-.04l-.11-.02c.79.21 1.45.76 1.8 1.5q.76 1.4 1.21 2.92.45.08.91.08l2.2.14q1.1.07 2.21.12.46-.01.92.03"/>
    <path fill="#f4b041" d="M350.39 242a6.3 6.3 0 0 0 2.36 3.16q.73.47 1.59.61 3.27.4 6.56.43c1.49.08 2.82.2 4.11-.79a7.6 7.6 0 0 0 2.3-3.23c1.09-2.84.9-6.01-.53-8.69a8 8 0 0 0-2.46-2.81c-1.6-1.05-3.59-.95-5.39-1.06q-2.84-.3-5.68-.26-1.11.08-2.15.48a12 12 0 0 0-4.19 2.97q.58 0 1.15.1 1.39.1 2.77.18l2.77.15c.2 0 1.02.17 1.15.04a10 10 0 0 1 6.44-3.45h-.14q1.47-.01-2.13-.12l-4.82-.32.41.04-.14-.02c3.4.57 5.58 4.29 5.79 7.96.2 3.46-1.64 8.22-5.2 8.43h.19l7.17.44-.17-.02.14.02a5.4 5.4 0 0 1-4.03-3.78 6 6 0 0 0-1.15-.1q-1.39-.1-2.77-.18l-2.77-.15q-.57.03-1.15-.04"/>
  </g>
  <g id="f8">
    <path fill="#94c7c1" d="m321.71 404.24.55-9.34c0-.07-8.22-.55-8.23-.48l-.55 9.34c0 .07 8.22.55 8.23.48"/>
    <path fill="#e7283b" d="M221.46 49.81c-.39 2.64 1.15 5.57 3.63 5.9 1.35.18 2.72.21 4.07.29 1.74.1 3.49.25 5.23.27q1.06.02 2.04-.36a15 15 0 0 0 3.99-2.65q-.68 0-1.35-.12l-3.27-.21-3.27-.18-.72-.03a4 4 0 0 0-.63-.01c-1.68 1.38-3.54 2.94-5.7 3h.17l1.81.08 6.78.43-.23-.03.16.02c-2.4-.44-3.84-3.31-3.46-5.88l-4.62-.32a45 45 0 0 0-4.62-.22M96.53 38.95l-.71 5.67 4.62.32 3.27.18q.68.06 1.35.04l.71-5.67-4.62-.32-3.27-.18q-.68-.06-1.35-.04"/>
    <path fill="#94c7c1" d="m77.44 363.19.55-9.34c0-.07-8.22-.55-8.23-.48l-.55 9.34c0 .07 8.22.55 8.23.48M191.35 363.07c-2.93-1.15-4.25-5.1-4.19-8.33 0-.08-3.62-.26-3.92-.28l-3.92-.19c-.07 3.23 1.26 7.17 4.19 8.33q.57.12 1.15.1 1.38.1 2.77.18l2.77.15.61.03q.27.02.54 0"/>
    <path fill="#f4b041" d="M158.96 229.65a6.3 6.3 0 0 0 2.36 3.16q.73.47 1.59.61 3.27.4 6.56.43c1.49.08 2.82.2 4.11-.79a7.6 7.6 0 0 0 2.3-3.23c1.09-2.84.9-6.01-.53-8.69a8 8 0 0 0-2.46-2.81c-1.6-1.05-3.59-.95-5.39-1.06q-2.84-.3-5.68-.26-1.11.08-2.15.48a12 12 0 0 0-4.19 2.97q.58 0 1.15.1 1.38.1 2.77.18l2.77.15c.2 0 1.02.17 1.15.04a10 10 0 0 1 6.44-3.45h-.14q1.47-.01-2.13-.12l-4.82-.32.41.04-.14-.02c3.4.57 5.58 4.3 5.79 7.96.2 3.46-1.64 8.22-5.2 8.43h.19l7.17.44-.17-.02.14.02a5.4 5.4 0 0 1-4.03-3.78 6 6 0 0 0-1.15-.1q-1.38-.1-2.77-.18l-2.77-.15q-.58.03-1.15-.04"/>
    <path fill="#e7283b" d="M290.48 230.85q.56 1.8 1.43 3.48c.42.9 1.17 1.62 2.09 1.99q.48.12.98.13 2.72.2 5.44.34 1.13.12 2.24.07.3-.03.59-.13a2.8 2.8 0 0 0 1.65-1.99l-1.15-.1q-1.38-.1-2.77-.18l-2.77-.15a6 6 0 0 0-1.15-.04 2.64 2.64 0 0 1-2.39 2.13h.14-.15l3.78.19h-.08l3.78.26s-.1 0-.15-.02l.14.02a3.5 3.5 0 0 1-2.27-1.86 18 18 0 0 1-1.55-3.67q-.57-.1-1.15-.1-1.38-.1-2.77-.18l-2.77-.15q-.57.02-1.15-.04"/>
  </g>
  <g id="f9">
    <path fill="#e7283b" d="M229.31 231.2c1.77-1.12 1.94-3.87 1.18-5.74-1-2.46-3.48-3.62-5.58-4.59a4 4 0 0 0-1.2-.1l-2.91-.18-2.91-.16-.64-.03q-.29-.02-.56-.01c2.1.96 4.59 2.12 5.58 4.59.76 1.87.6 4.62-1.18 5.74q.6-.01 1.2.1l2.91.18 2.91.16.64.03q.29.02.56.01M55.6 309.07l3.4-2.32-.35-.04-.85-.07-2.91-.18-2.91-.16-.64-.03q-.29-.02-.56-.01l-3.4 2.32.35.04.85.07 2.91.18 2.91.16.64.03q.29.02.56.01M288.33 119.93a8.9 8.9 0 0 1-1.12 8.05c-1.66 2.52-4.19 4.08-6.59 5.55q.51 0 1.02.09l2.47.16q1.23.08 2.47.13c.24.01.82.16 1.02.03 2.4-1.48 4.93-3.04 6.59-5.55a8.9 8.9 0 0 0 1.12-8.05 6 6 0 0 0-1.02-.09l-2.47-.16a102 102 0 0 0-3.49-.16M181.1 124.62c-6.24 3.98-10.52 11.29-11.54 19.18.02-.14 6.95.67 6.98.41 1.02-7.89 5.3-15.2 11.54-19.18q-.51 0-1.02-.09l-2.47-.16q-1.24-.08-2.47-.13c-.23-.01-.83-.16-1.02-.03"/>
    <path fill="#f6931e" d="M274.47 407.49a33.5 33.5 0 0 1-6.86-12.37q-.57-.1-1.15-.1-1.38-.1-2.77-.18l-2.77-.15q-.57.02-1.15-.04a34 34 0 0 0 6.86 12.37q.57.13 1.15.1 1.39.1 2.77.18l2.77.15c.2 0 1.04-.09 1.15.04M280.94 296.06a33 33 0 0 0 3.21 6.4 6.3 6.3 0 0 0 4.26 3c1.96.21 3.94.27 5.9.38q1.26.12 2.52.06a5 5 0 0 0 2.07-.74 6 6 0 0 0 2.58-4.72c0-.02-7.84-.57-7.84-.46-.21 2.93-2.26 5.37-4.94 5.48h.14-.28l6.55.37.72.05.14.02c-1.76-.25-3.13-1.72-4.15-3.23q-1.82-2.92-3.03-6.14a6 6 0 0 0-1.15-.1q-1.39-.1-2.77-.18l-2.77-.15q-.57.03-1.15-.04"/>
  </g>
</svg>
