<svg xmlns="http://www.w3.org/2000/svg" viewBox="0 0 1220 200">
  <g id="Vehicle">
    <rect width="1133.17" height="119.18" x="68.98" y="42.71" fill="#F9A01B"/>
    <g fill="#FFF">
      <path d="M116.4 129.42v-21.3L99.45 75.57h11.17L121.5 98h.15l11.62-22.42h10.8l-17.32 32.55v21.3H116.4z"/>
      <path d="M144.6 102.5c0-14.32 6.6-27.82 22.95-27.82 16.42 0 22.95 13.5 22.95 27.82 0 16.8-8.1 27.82-22.95 27.82-14.78 0-22.95-11.02-22.95-27.82zm35.62 0c0-12.3-4.5-19.57-12.67-19.57s-12.6 7.27-12.6 19.57c0 12.22 4.35 19.42 12.6 19.42s12.67-7.2 12.67-19.42z"/>
      <path d="M231.37 75.57h10.35v32.1c0 14.25-6.45 22.65-21.9 22.65s-20.77-8.4-20.77-22.65v-32.1h10.35v34.05c0 8.1 3.22 12 10.65 12 7.27 0 11.32-3.9 11.32-12V75.57z"/>
      <path d="M310.72 113.67c-3.67 13.2-11.55 16.65-21.37 16.65-14.25 0-21.82-10.42-21.82-28.27 0-17.47 8.7-27.37 22.5-27.37 10.87 0 17.4 4.87 19.95 16.35l-9.6 1.8c-1.88-7.05-5.4-9.6-10.5-9.6-7.42 0-12 6.75-12 18.82 0 13.27 3.97 19.57 11.77 19.57 5.17 0 9.3-2.77 11.25-10.2l9.82 2.25z"/>
      <path d="M315.75 102.5c0-14.32 6.6-27.82 22.95-27.82 16.42 0 22.95 13.5 22.95 27.82 0 16.8-8.1 27.82-22.95 27.82-14.78 0-22.95-11.02-22.95-27.82zm35.62 0c0-12.3-4.5-19.57-12.67-19.57s-12.6 7.27-12.6 19.57c0 12.22 4.35 19.42 12.6 19.42s12.67-7.2 12.67-19.42z"/>
      <path d="M402.52 75.57h10.35v32.1c0 14.25-6.45 22.65-21.9 22.65s-20.77-8.4-20.77-22.65v-32.1h10.35v34.05c0 8.1 3.22 12 10.65 12 7.27 0 11.32-3.9 11.32-12V75.57z"/>
      <path d="M424.35 129.42V75.57h10.35v45.15h22.72v8.7h-33.07z"/>
      <path d="M464.4 129.42V75.57h16.5c17.62 0 26.25 8.85 26.25 26.17 0 18.07-9.6 27.67-27.3 27.67H464.4zm16.12-9c11.25 0 16.27-6.38 16.27-18.45 0-11.55-4.88-17.4-15.22-17.4h-6.82v35.85h5.77z"/>
      <path d="m568.05 129.42-7.88-36.45h-.15l-8.1 36.45H541.5l-13.88-53.85h11.03l8.17 38.1h.15l8.17-38.1h10.35l7.5 37.72h.15l8.77-37.72h10.5l-14.25 53.85h-10.11z"/>
      <path d="M598.2 129.42V75.57h10.35v53.85H598.2z"/>
      <path d="m653.17 129.42-22.8-39.37h-.15v39.37h-9.75V75.57h12.82l20.25 36h.15v-36h9.67v53.85h-10.19z"/>
      <path d="M711.97 130.32c-11.62 0-16.5-7.87-17.77-20.47h-6.37v-5.62h6.07v-2.18c0-.97 0-1.88.08-2.85h-6.15v-5.62h6.67c1.88-11.7 7.88-18.9 18.22-18.9 8.92 0 13.57 3.67 16.12 12l-8.47 2.25c-1.5-4.12-3.37-6.22-7.57-6.22-4.88 0-7.5 4.2-8.55 10.87h15.6v5.62h-16.12v5.03h16.12v5.62h-15.9c.67 7.87 2.85 12.37 8.32 12.37 4.73 0 6.6-2.7 8.17-6.97l8.77 2.62c-3.96 10.5-10.49 12.45-17.24 12.45z"/>
      <path d="M749.92 130.32c-8.4 0-14.32-2.47-18.82-10.35l8.1-4.27c2.47 5.1 5.77 6.67 10.42 6.67 6.82 0 10.42-4.72 10.42-11.17s-3.53-10.42-9.75-10.42c-4.27 0-6.9 2.02-8.7 5.32l-8.03-1.5 2.1-29.02h30.45v8.1h-23.25l-.97 13.2h.15a16.2 16.2 0 0 1 10.88-3.75c10.72 0 16.95 6.97 16.95 18 0 12.07-8.1 19.19-19.95 19.19z"/>
      <path d="M775.2 102.8c0-17.7 6.45-28.12 18.97-28.12 12.45 0 18.97 10.42 18.97 28.12 0 17.92-6.9 27.52-18.97 27.52-12.07 0-18.97-9.6-18.97-27.52zm28.12 0c0-13.72-3-20.4-9.15-20.4s-9.15 6.67-9.15 20.4c0 13.2 3 19.72 9.15 19.72s9.15-6.52 9.15-19.72z"/>
      <path d="m819.07 141.2 4.65-11.77h-3.75V118.7h10.72v10.05l-5.92 12.45h-5.7z"/>
      <path d="M839.32 102.8c0-17.7 6.45-28.12 18.97-28.12 12.45 0 18.97 10.42 18.97 28.12 0 17.92-6.9 27.52-18.97 27.52-12.07 0-18.97-9.6-18.97-27.52zm28.13 0c0-13.72-3-20.4-9.15-20.4s-9.15 6.67-9.15 20.4c0 13.2 3 19.72 9.15 19.72s9.15-6.52 9.15-19.72z"/>
      <path d="M882.37 102.8c0-17.7 6.45-28.12 18.97-28.12 12.45 0 18.97 10.42 18.97 28.12 0 17.92-6.9 27.52-18.97 27.52-12.07 0-18.97-9.6-18.97-27.52zm28.13 0c0-13.72-3-20.4-9.15-20.4s-9.15 6.67-9.15 20.4c0 13.2 3 19.72 9.15 19.72s9.15-6.52 9.15-19.72z"/>
      <path d="M925.42 102.8c0-17.7 6.45-28.12 18.97-28.12 12.45 0 18.97 10.42 18.97 28.12 0 17.92-6.9 27.52-18.97 27.52-12.07 0-18.97-9.6-18.97-27.52zm28.13 0c0-13.72-3-20.4-9.15-20.4s-9.15 6.67-9.15 20.4c0 13.2 3 19.72 9.15 19.72s9.15-6.52 9.15-19.72z"/>
      <path d="M1029.37 113.67c-3.67 13.2-11.55 16.65-21.37 16.65-14.25 0-21.82-10.42-21.82-28.27 0-17.47 8.7-27.37 22.5-27.37 10.87 0 17.4 4.87 19.95 16.35l-9.6 1.8c-1.88-7.05-5.4-9.6-10.5-9.6-7.42 0-12 6.75-12 18.82 0 13.27 3.97 19.57 11.77 19.57 5.17 0 9.3-2.77 11.25-10.2l9.82 2.25z"/>
      <path d="m1068.07 129.42-3.9-14.17h-17.4l-3.9 14.17h-10.42l16.2-53.85h14.02l16.27 53.85h-10.87zm-18.9-22.8h12.6l-6.22-22.5h-.15l-6.23 22.5z"/>
      <path d="M1112.02 90.2c-1.95-4.95-5.02-7.27-10.05-7.27-4.65 0-8.1 2.32-8.1 6.45 0 10.95 28.2 4.8 28.2 24.6 0 10.72-8.1 16.35-19.65 16.35-10.42 0-16.87-4.13-20.17-14.32l9.6-3c1.5 5.77 4.8 8.92 11.17 8.92 5.4 0 9.3-2.48 9.3-7.2 0-11.85-28.42-5.25-28.42-25.27 0-9 7.5-14.77 17.92-14.77 9.75 0 15.9 3.9 18.9 12.37l-8.7 3.14z"/>
      <path d="M1163.32 129.42v-23.17h-21.9v23.17H1131V75.57h10.42v21.45h21.9V75.57h10.35v53.85h-10.35z"/>
    </g>
    <rect width="2.82" height="0" x="308.45" y="545.76" fill="none"/>
  </g>
</svg>
