<svg xmlns="http://www.w3.org/2000/svg" viewBox="0 0 695 200">
  <g id="Vehicle">
    <path fill="#00BCE4" d="M323.48.73c-1.55.73-1.22 2.09-.57 3.04.65.95 1.86 1.63 3.04.57s1.25-2.04.57-3.04c-.69-1-1.49-1.3-3.04-.57"/>
    <path fill="#00BCE4" d="M276.06 2.23c-1.55.73-1.22 2.09-.57 3.04s1.86 1.63 3.04.57 1.25-2.04.57-3.04-1.49-1.3-3.04-.57"/>
    <path fill="#00BCE4" d="M279.68 14.28c-1.55.73-1.22 2.09-.57 3.04.65.95 1.86 1.62 3.04.57 1.18-1.06 1.25-2.04.57-3.04s-1.48-1.31-3.04-.57"/>
    <path fill="#00BCE4" d="M286.13 27.12c-1.55.73-1.22 2.09-.57 3.04.65.95 1.86 1.62 3.04.57 1.18-1.06 1.25-2.04.57-3.04s-1.49-1.3-3.04-.57"/>
    <path fill="#00BCE4" d="M290.64 39.04c-1.55.73-1.22 2.09-.57 3.04.65.95 1.86 1.62 3.04.57 1.18-1.06 1.25-2.04.57-3.04s-1.49-1.3-3.04-.57"/>
    <path fill="#00BCE4" d="M292.54 16.96c-1.55.73-1.22 2.09-.57 3.04s1.86 1.62 3.04.57c1.18-1.06 1.25-2.04.57-3.04s-1.49-1.3-3.04-.57"/>
    <path fill="#00BCE4" d="M312.72 10.95c-1.55.73-1.22 2.09-.57 3.04.65.95 1.86 1.63 3.04.57s1.25-2.04.57-3.04c-.69-1-1.49-1.3-3.04-.57"/>
    <path fill="#00BCE4" d="M289.47 2.8c-1.55.73-1.22 2.09-.57 3.04.65.95 1.86 1.63 3.04.57s1.25-2.04.57-3.04c-.69-1-1.49-1.31-3.04-.57"/>
    <path fill="#00BCE4" d="M303.16 22.89c-1.55.73-1.22 2.09-.57 3.04.65.95 1.86 1.62 3.04.57 1.18-1.06 1.25-2.04.57-3.04s-1.48-1.31-3.04-.57"/>
    <path fill="#00BCE4" d="M301.64 7.14c-1.55.73-1.22 2.09-.57 3.04s1.86 1.63 3.04.57 1.25-2.04.57-3.04-1.48-1.3-3.04-.57"/>
    <path fill="#8DC63F" d="M422.37-2.77H24.83c-1.39 42.12 12.12 86.32 34.66 118.93 23.42 33.88 54.1 62.08 87.91 85.94h550.9v-79.09C600.21 98.73 509.09 51.44 422.37-2.77z"/>
    <path fill="#048162" d="M104.97 101.27c-.2-1.76-6.64-1.67-6.37.71.26 2.38 6.57 1.06 6.37-.71"/>
    <path fill="#048162" d="M129.79 117.98c-1.28 1.23 2.73 6.28 4.46 4.61 1.72-1.66-3.19-5.84-4.46-4.61"/>
    <path fill="#048162" d="M243.96 66.37c-1.7-.5-4.1 5.48-1.8 6.16 2.29.67 3.5-5.66 1.8-6.16"/>
    <path fill="#048162" d="M168.33 117.57c-1.34 1.16 2.37 6.42 4.18 4.86 1.81-1.56-2.84-6.01-4.18-4.86"/>
    <path fill="#048162" d="M157 116.84c.65-1.65-5.08-4.58-5.97-2.36-.87 2.22 5.32 4.01 5.97 2.36"/>
    <path fill="#048162" d="M218.66 39.3c-.76-1.6-6.82.61-5.79 2.77 1.03 2.15 6.55-1.17 5.79-2.77"/>
    <path fill="#048162" d="M201.66 50.21c.55-1.69-5.36-4.26-6.1-1.98-.73 2.28 5.56 3.67 6.1 1.98"/>
    <path fill="#048162" d="M279.39 35.99c.03 1.77 6.45 2.28 6.41-.11-.04-2.4-6.45-1.67-6.41.11"/>
    <path fill="#048162" d="M227.55 177.54c.42-1.72-5.67-3.84-6.23-1.51-.57 2.32 5.81 3.23 6.23 1.51"/>
    <path fill="#048162" d="M253.75 163.83c-.35 1.74 5.81 3.62 6.29 1.27.47-2.34-5.94-3-6.29-1.27"/>
    <path fill="#048162" d="M85.56 36.03c1.01-1.46-3.91-5.62-5.28-3.65-1.36 1.97 4.27 5.1 5.28 3.65"/>
    <path fill="#048162" d="M214.05 109.26c-1.77.06-2.17 6.49.22 6.41 2.39-.08 1.55-6.47-.22-6.41"/>
    <path fill="#048162" d="M100.28 21.29c-.97-1.48-6.68 1.51-5.36 3.52 1.31 1.99 6.33-2.04 5.36-3.52"/>
    <path fill="#048162" d="M291.9 18.3c.71 1.62 6.84-.36 5.88-2.56-.95-2.19-6.59.94-5.88 2.56"/>
    <path fill="#048162" d="M287.88 157.39c-.05 1.77 6.34 2.57 6.41.18.07-2.39-6.36-1.95-6.41-.18"/>
    <path fill="#048162" d="M223.65 66.1c-.23 1.76 6.06 3.2 6.36.82.31-2.37-6.13-2.58-6.36-.82"/>
    <path fill="#048162" d="M274.46 83.98c-1.49-.96-5.47 4.11-3.46 5.4s4.95-4.44 3.46-5.4"/>
    <path fill="#048162" d="M214 55c-1.39-1.09-5.85 3.56-3.97 5.04 1.89 1.48 5.36-3.95 3.97-5.04"/>
    <path fill="#048162" d="M261.62 53.71c1.28 1.22 6.15-3 4.42-4.65-1.74-1.65-5.71 3.43-4.42 4.65"/>
    <path fill="#048162" d="M178.36-1.29c-1.65-.64-4.55 5.11-2.32 5.98 2.23.86 3.97-5.34 2.32-5.98"/>
    <path fill="#048162" d="M527.75 187.2c1.74-.35 1.07-6.76-1.27-6.29-2.35.48-.47 6.64 1.27 6.29"/>
    <path fill="#048162" d="M142.46 134.67c-.31-1.75-6.73-1.25-6.32 1.11.42 2.36 6.63.64 6.32-1.11"/>
    <path fill="#048162" d="M264.54 139.94c-.65-1.65-6.85.13-5.96 2.36.88 2.22 6.61-.72 5.96-2.36"/>
    <path fill="#048162" d="M520.81 196.34c-1.74-.31-3.48 5.9-1.12 6.32 2.36.41 2.86-6.01 1.12-6.32"/>
    <path fill="#048162" d="M161.05 38.46c.8-1.58-4.66-5.02-5.73-2.88-1.08 2.14 4.94 4.46 5.73 2.88"/>
    <path fill="#048162" d="M202.14 122.37c1.35-1.15-2.33-6.44-4.16-4.88-1.82 1.55 2.81 6.03 4.16 4.88"/>
    <path fill="#048162" d="M302.93 172.26c1.61.74 4.85-4.83 2.68-5.83-2.18-1-4.29 5.09-2.68 5.83"/>
    <path fill="#048162" d="M159.62 168.56c1.56-.83-.91-6.78-3.02-5.66-2.11 1.13 1.46 6.5 3.02 5.66"/>
    <path fill="#048162" d="M99.34 37.89c.36 1.74 6.77 1.03 6.28-1.32-.49-2.34-6.64-.41-6.28 1.32"/>
    <path fill="#048162" d="M222.74 101.11c1.36 1.14 5.95-3.38 4.11-4.92-1.83-1.53-5.47 3.79-4.11 4.92"/>
    <path fill="#048162" d="M178.47 91.12c1.19-1.32-3.16-6.07-4.76-4.3-1.61 1.78 3.57 5.62 4.76 4.3"/>
    <path fill="#048162" d="M181.6 138.74c-.81 1.58 4.62 5.05 5.71 2.92 1.09-2.13-4.9-4.5-5.71-2.92"/>
    <path fill="#048162" d="M135.48 38.32c-1.65.65.13 6.85 2.36 5.97 2.22-.88-.71-6.62-2.36-5.97"/>
    <path fill="#048162" d="M256.3 78.3c1.55.85 5.19-4.47 3.09-5.62-2.1-1.16-4.65 4.77-3.09 5.62"/>
    <path fill="#048162" d="M178.22 170.71c1.41-1.07-1.98-6.55-3.88-5.11-1.91 1.45 2.47 6.18 3.88 5.11"/>
    <path fill="#048162" d="M116.72 18.54c1.77.08 2.66-6.31.27-6.41-2.39-.1-2.04 6.34-.27 6.41"/>
    <path fill="#048162" d="M238.21 98.83c-.76 1.6 4.78 4.9 5.8 2.74 1.03-2.17-5.04-4.35-5.8-2.74"/>
    <path fill="#048162" d="M151.92 128.58c-1.32 1.18 2.48 6.38 4.27 4.79 1.79-1.59-2.94-5.97-4.27-4.79"/>
    <path fill="#048162" d="M185.18 53.61c-1.73-.36-3.65 5.79-1.3 6.28 2.34.49 3.03-5.92 1.3-6.28"/>
    <path fill="#048162" d="M141.03 152.93c1.39-1.09-2.08-6.52-3.96-5.04-1.88 1.48 2.57 6.13 3.96 5.04"/>
    <path fill="#048162" d="M184.35 33.44c-1.6.77.61 6.82 2.77 5.78 2.16-1.03-1.17-6.55-2.77-5.78"/>
    <path fill="#048162" d="M189.08 120.17c-.76-1.6-6.82.57-5.8 2.73 1.02 2.17 6.56-1.13 5.8-2.73"/>
    <path fill="#048162" d="M643.85 198.02c-1.14-1.36-6.45 2.28-4.92 4.12 1.54 1.83 6.06-2.77 4.92-4.12"/>
    <path fill="#048162" d="M231.72 154.31c-1.15 1.35 3.32 5.99 4.87 4.17 1.56-1.81-3.72-5.51-4.87-4.17"/>
    <path fill="#048162" d="M287.65 175.49c-.4 1.73 5.71 3.77 6.25 1.44.53-2.33-5.86-3.17-6.25-1.44"/>
    <path fill="#048162" d="M83.49 19.14c.92-1.52-4.25-5.37-5.49-3.32-1.24 2.05 4.58 4.84 5.49 3.32"/>
    <path fill="#048162" d="M144.22 89.55c-.79-1.59-6.81.71-5.75 2.85 1.07 2.15 6.53-1.26 5.75-2.85"/>
    <path fill="#048162" d="M282.48 75.36c1.61.74 4.87-4.81 2.7-5.82-2.18-1.01-4.31 5.07-2.7 5.82"/>
    <path fill="#048162" d="M206.63 102.94c.6-1.66-5.21-4.44-6.03-2.19-.82 2.26 5.42 3.86 6.03 2.19"/>
    <path fill="#048162" d="M576.85 188.22c-1.61-.73-4.82 4.86-2.64 5.85 2.19.98 4.26-5.12 2.64-5.85"/>
    <path fill="#048162" d="M175.52 105.5c-.07 1.77 6.31 2.66 6.41.27.1-2.39-6.34-2.04-6.41-.27"/>
    <path fill="#048162" d="M151.84 50.67c-.51-1.7-6.83-.46-6.15 1.83.69 2.3 6.65-.13 6.15-1.83"/>
    <path fill="#048162" d="M172.96 47.1c1.08-1.41-3.63-5.81-5.09-3.91-1.45 1.9 4.01 5.32 5.09 3.91"/>
    <path fill="#048162" d="M129.65 105.28c1.45-1.02-1.74-6.62-3.69-5.24-1.96 1.38 2.24 6.26 3.69 5.24"/>
    <path fill="#048162" d="M192.02 178.32c1.27 1.23 6.18-2.95 4.46-4.61-1.72-1.66-5.73 3.38-4.46 4.61"/>
    <path fill="#048162" d="M234.56 16.22c-1.51.92 1.29 6.72 3.33 5.48 2.04-1.24-1.82-6.4-3.33-5.48"/>
    <path fill="#048162" d="M262.55 34.24c.51 1.7 6.83.44 6.14-1.85-.69-2.29-6.65.15-6.14 1.85"/>
    <path fill="#048162" d="M214.31 184.57c.19-1.76-6.12-3.07-6.38-.69-.26 2.37 6.19 2.45 6.38.69"/>
    <path fill="#048162" d="M540.25 175.75c.76 1.6 6.82-.57 5.8-2.73-1.02-2.17-6.55 1.13-5.8 2.73"/>
    <path fill="#048162" d="M156.53 151.61c1.37-1.13-2.23-6.47-4.07-4.95-1.85 1.52 2.7 6.08 4.07 4.95"/>
    <path fill="#048162" d="M276.87 188.83c1.46 1 5.6-3.94 3.63-5.29-1.98-1.36-5.09 4.29-3.63 5.29"/>
    <path fill="#048162" d="M166.28 61.65c.52 1.69 6.84.4 6.13-1.88-.7-2.29-6.65.19-6.13 1.88"/>
    <path fill="#048162" d="M174.28 153.17c-.52-1.69-6.84-.4-6.13 1.89.7 2.28 6.65-.2 6.13-1.89"/>
    <path fill="#048162" d="M84.05 46.79c-1.71-.47-4.01 5.55-1.71 6.18 2.31.64 3.42-5.71 1.71-6.18"/>
    <path fill="#048162" d="M585.81 166.35c-1.55.86 1.01 6.77 3.1 5.61 2.1-1.15-1.55-6.47-3.1-5.61"/>
    <path fill="#048162" d="M282.18 49.46c-1.02-1.45-6.62 1.75-5.24 3.71 1.39 1.95 6.27-2.26 5.24-3.71"/>
    <path fill="#048162" d="M207.5 146.61c-1.67.6-.07 6.85 2.18 6.03 2.25-.81-.52-6.63-2.18-6.03"/>
    <path fill="#048162" d="M216.43 201.07c.7-1.63-4.95-4.72-5.9-2.52-.94 2.2 5.2 4.15 5.9 2.52"/>
    <path fill="#048162" d="M152.55 68.42c.67 1.64 6.84-.23 5.93-2.44-.9-2.21-6.6.81-5.93 2.44"/>
    <path fill="#048162" d="M313.04 2.13c-1.23 1.28 2.95 6.18 4.62 4.45 1.65-1.71-3.39-5.72-4.62-4.45"/>
    <path fill="#048162" d="M85.5 70.59c.82 1.57 6.8-.84 5.69-2.96-1.11-2.13-6.51 1.39-5.69 2.96"/>
    <path fill="#048162" d="M243.45 133.7c1.17 1.33 6.4-2.42 4.83-4.22-1.57-1.81-5.99 2.88-4.83 4.22"/>
    <path fill="#048162" d="M232.03 50.79c.42-1.72-5.67-3.83-6.24-1.5-.55 2.32 5.83 3.22 6.24 1.5"/>
    <path fill="#048162" d="M104.42 70.52c1.72.4 3.79-5.7 1.46-6.25-2.33-.54-3.18 5.85-1.46 6.25"/>
    <path fill="#048162" d="M532.3 154c1.06 1.42 6.57-1.93 5.14-3.84-1.44-1.92-6.2 2.42-5.14 3.84"/>
    <path fill="#048162" d="M248.55 57.93c1.2-1.3-3.09-6.11-4.71-4.35-1.63 1.75 3.51 5.65 4.71 4.35"/>
    <path fill="#048162" d="M203.3 30.57c-1.18-1.32-6.37 2.51-4.77 4.28 1.59 1.79 5.95-2.96 4.77-4.28"/>
    <path fill="#048162" d="M270.89 10.89c-1.03-1.44-6.61 1.79-5.21 3.74 1.39 1.94 6.24-2.3 5.21-3.74"/>
    <path fill="#048162" d="M198.69 190.72c-1.6-.77-4.94 4.74-2.78 5.78 2.15 1.04 4.37-5.01 2.78-5.78"/>
    <path fill="#048162" d="M507.55 192.66c1.56.84 5.16-4.5 3.06-5.64-2.1-1.14-4.61 4.79-3.06 5.64"/>
    <path fill="#048162" d="M115.08 60.37c1.54.87 5.25-4.4 3.16-5.58-2.08-1.18-4.7 4.7-3.16 5.58"/>
    <path fill="#048162" d="M219.46 133.19c-1.57-.82-5.08 4.59-2.96 5.69 2.13 1.11 4.54-4.87 2.96-5.69"/>
    <path fill="#048162" d="M212.06 16.53c1.65-.64-.1-6.85-2.34-5.97-2.22.87.69 6.62 2.34 5.97"/>
    <path fill="#048162" d="M253.15 150.86c-.16-1.76-6.61-1.79-6.39.59.22 2.39 6.55 1.18 6.39-.59"/>
    <path fill="#048162" d="M144.6 71.48c-1.22-1.29-6.31 2.67-4.66 4.41 1.65 1.74 5.88-3.13 4.66-4.41"/>
    <path fill="#048162" d="M253.78 1.24c-1.67.59-.11 6.85 2.15 6.04 2.25-.79-.48-6.63-2.15-6.04"/>
    <path fill="#048162" d="M90.7 4.43c-1.24 1.26 2.89 6.21 4.57 4.5 1.68-1.71-3.33-5.77-4.57-4.5"/>
    <path fill="#048162" d="M157.86 88.65c1.77.02 2.48-6.38.09-6.42-2.4-.02-1.86 6.4-.09 6.42"/>
    <path fill="#048162" d="M263.23 179.93c1.36 1.13 5.95-3.39 4.11-4.93-1.84-1.53-5.47 3.8-4.11 4.93"/>
    <path fill="#048162" d="M277.46 124.74c-1.65.63.06 6.85 2.29 5.99 2.24-.86-.63-6.63-2.29-5.99"/>
    <path fill="#048162" d="M145.71 25.14c-.83 1.57 4.56 5.11 5.68 2.99 1.11-2.12-4.86-4.55-5.68-2.99"/>
    <path fill="#048162" d="M254.18 190.84c1.75-.27 1.4-6.7-.97-6.34-2.36.36-.78 6.61.97 6.34"/>
    <path fill="#048162" d="M264.71 105.22c1.32-1.18-2.52-6.37-4.3-4.76-1.77 1.6 2.99 5.95 4.3 4.76"/>
    <path fill="#048162" d="M222.75 158.86c-.9-1.52-6.74 1.2-5.52 3.26 1.21 2.07 6.42-1.73 5.52-3.26"/>
    <path fill="#048162" d="M197.78 136.42c.14 1.77 6.59 1.88 6.39-.51-.19-2.39-6.53-1.26-6.39.51"/>
    <path fill="#048162" d="M144.28 109.83c1.52-.9-1.22-6.74-3.28-5.52-2.05 1.23 1.75 6.43 3.28 5.52"/>
    <path fill="#048162" d="M267.14 198.36c.07 1.77 6.5 2.14 6.41-.25-.09-2.39-6.48-1.52-6.41.25"/>
    <path fill="#048162" d="M216.75 89.89c.97-1.48-4.06-5.52-5.37-3.51-1.31 2 4.4 4.99 5.37 3.51"/>
    <path fill="#048162" d="M540.58 189.38c-.85 1.55 4.47 5.19 5.62 3.09 1.16-2.1-4.76-4.64-5.62-3.09"/>
    <path fill="#048162" d="M170.03 139.59c1.68-.55.29-6.84-1.99-6.1-2.27.74.3 6.65 1.99 6.1"/>
    <path fill="#048162" d="M226.82 121.59c-1.26-1.25-6.21 2.88-4.51 4.56 1.7 1.68 5.77-3.32 4.51-4.56"/>
    <path fill="#048162" d="M250.39 22.96c.3 1.75 6.72 1.28 6.32-1.08-.39-2.36-6.61-.67-6.32 1.08"/>
    <path fill="#048162" d="M559.76 197.68c-1.46-1-5.59 3.95-3.61 5.3 1.97 1.35 5.07-4.31 3.61-5.3"/>
    <path fill="#048162" d="M590.13 184.17c-1.04 1.44 3.79 5.7 5.19 3.76 1.4-1.94-4.15-5.2-5.19-3.76"/>
    <path fill="#048162" d="M223.2 8.79c1.58-.8-.75-6.8-2.89-5.73-2.13 1.07 1.31 6.52 2.89 5.73"/>
    <path fill="#048162" d="M210.26 75.89c.81 1.58 6.8-.79 5.71-2.92-1.09-2.14-6.51 1.34-5.71 2.92"/>
    <path fill="#048162" d="M97 88.14c1.53-.89-1.15-6.75-3.22-5.55-2.07 1.2 1.68 6.44 3.22 5.55"/>
    <path fill="#048162" d="M303.01.74c.44-1.72-5.62-3.92-6.21-1.6-.6 2.32 5.77 3.32 6.21 1.6"/>
    <path fill="#048162" d="M110.45 112.89c-1.36 1.14 2.31 6.45 4.14 4.9 1.83-1.54-2.79-6.04-4.14-4.9"/>
    <path fill="#048162" d="M552.16 162.63c1.18-1.32-3.2-6.05-4.79-4.26-1.59 1.78 3.62 5.58 4.79 4.26"/>
    <path fill="#048162" d="M573.41 178.57c1.76.19 3.07-6.12.69-6.38-2.38-.26-2.45 6.19-.69 6.38"/>
    <path fill="#048162" d="M105.85 7.26c1.45 1.02 5.65-3.87 3.69-5.24-1.95-1.38-5.14 4.22-3.69 5.24"/>
    <path fill="#048162" d="M271.84 109.5c.26 1.75 6.7 1.43 6.35-.94-.36-2.37-6.61-.81-6.35.94"/>
    <path fill="#048162" d="M237.4 37.55c1.73-.4.9-6.79-1.44-6.25-2.33.53-.28 6.65 1.44 6.25"/>
    <path fill="#048162" d="M273.34 161.13c-1.49.96 1.48 6.68 3.49 5.38 2.01-1.3-2-6.34-3.49-5.38"/>
    <path fill="#048162" d="M124.44 76.41c-.84 1.56 4.5 5.16 5.64 3.05 1.14-2.11-4.8-4.61-5.64-3.05"/>
    <path fill="#048162" d="M530.53 167.11c-.11-1.77-6.55-1.99-6.4.4.15 2.39 6.51 1.36 6.4-.4"/>
    <path fill="#048162" d="M231.72 114.51c.06 1.77 6.5 2.16 6.41-.23-.09-2.39-6.47-1.54-6.41.23"/>
    <path fill="#048162" d="M122.53 30.45c1.03-1.44-3.81-5.69-5.21-3.75-1.39 1.95 4.18 5.19 5.21 3.75"/>
    <path fill="#048162" d="M195.39 64.95c-1.75.29-1.33 6.72 1.04 6.33 2.36-.38.71-6.61-1.04-6.33"/>
    <path fill="#048162" d="M248.42 116.95c.79 1.59 6.81-.72 5.74-2.86-1.07-2.14-6.53 1.28-5.74 2.86"/>
    <path fill="#048162" d="M284.15 3.12c1.54-.87-1.07-6.76-3.15-5.59-2.08 1.18 1.61 6.46 3.15 5.59"/>
    <path fill="#048162" d="M126.98-1c-1.77.1-2.02 6.54.37 6.4 2.39-.14 1.4-6.51-.37-6.4"/>
    <path fill="#048162" d="M275.52 144.47c-1.76-.15-2.91 6.2-.52 6.39 2.38.2 2.28-6.25.52-6.39"/>
    <path fill="#048162" d="M252.99 42.92c.98-1.48-4.03-5.53-5.35-3.54-1.33 2 4.37 5.02 5.35 3.54"/>
    <path fill="#048162" d="M231.8 142.65c1.41 1.08 5.81-3.63 3.91-5.09-1.9-1.45-5.31 4.02-3.91 5.09"/>
    <path fill="#048162" d="M606.45 188.5c-1.12 1.37 3.47 5.9 4.98 4.05s-3.86-5.42-4.98-4.05"/>
    <path fill="#048162" d="M217.4 25.37c-.86 1.55 4.43 5.22 5.6 3.13s-4.73-4.68-5.6-3.13"/>
    <path fill="#048162" d="M163.64 102.83c1.22-1.29-3-6.15-4.65-4.42-1.65 1.74 3.43 5.71 4.65 4.42"/>
    <path fill="#048162" d="M156.38-1.64c-1.74-.32-3.49 5.89-1.14 6.31 2.35.43 2.88-5.99 1.14-6.31"/>
    <path fill="#048162" d="M267.13 124.02c-.45-1.72-6.81-.69-6.21 1.62.61 2.32 6.65.09 6.21-1.62"/>
    <path fill="#048162" d="M269.23 69.83c1.77-.13 1.93-6.57-.46-6.4-2.38.17-1.3 6.53.46 6.4"/>
    <path fill="#048162" d="M560.71 164.98c.84 1.56 6.78-.95 5.64-3.06-1.14-2.11-6.48 1.5-5.64 3.06"/>
    <path fill="#048162" d="M187.41 153.26c-1.34 1.16 2.39 6.41 4.2 4.85 1.81-1.57-2.86-6.01-4.2-4.85"/>
    <path fill="#048162" d="M295.44 194.32c.02-1.77-6.38-2.48-6.41-.09-.03 2.4 6.39 1.86 6.41.09"/>
    <path fill="#048162" d="M113.02 93.96c-.31 1.74 5.9 3.47 6.32 1.12.41-2.36-6.01-2.87-6.32-1.12"/>
    <path fill="#048162" d="M117.57 40.65c-1.45 1.01 1.7 6.63 3.67 5.26 1.96-1.36-2.21-6.27-3.67-5.26"/>
    <path fill="#048162" d="M514.31 175.39c.71-1.62-4.92-4.76-5.88-2.57s5.17 4.19 5.88 2.57"/>
    <path fill="#048162" d="M174.64 23.48c-1.36-1.13-5.94 3.41-4.1 4.93 1.84 1.53 5.46-3.8 4.1-4.93"/>
    <path fill="#048162" d="M250.32 92c.81 1.58 6.8-.79 5.71-2.92-1.09-2.13-6.52 1.35-5.71 2.92"/>
    <path fill="#048162" d="M181.72 184.55c1.36-1.14-2.28-6.45-4.12-4.92-1.84 1.55 2.76 6.06 4.12 4.92"/>
    <path fill="#048162" d="M143.63 11.04c1.62-.71-.36-6.84-2.56-5.88-2.19.95.94 6.59 2.56 5.88"/>
    <path fill="#048162" d="M613.93 181.09c1.72.42 3.86-5.66 1.54-6.23-2.32-.57-3.25 5.81-1.54 6.23"/>
    <path fill="#048162" d="M236.75 189.33c1.7-.51.44-6.83-1.85-6.14-2.3.69.15 6.65 1.85 6.14"/>
    <path fill="#048162" d="M241.22 1.49c-1.48-.98-5.53 4.03-3.54 5.35 2 1.32 5.02-4.37 3.54-5.35"/>
    <path fill="#048162" d="M205.59 168.56c1.62-.72-.42-6.83-2.6-5.86-2.19.97.99 6.58 2.6 5.86"/>
    <path fill="#048162" d="M159.37 16.32c.94 1.5 6.7-1.38 5.43-3.41-1.27-2.03-6.37 1.91-5.43 3.41"/>
    <path fill="#048162" d="M176.99 76.47c.75-1.61-4.81-4.87-5.82-2.7-1.01 2.16 5.07 4.3 5.82 2.7"/>
    <path fill="#048162" d="M132.06 63.01c1.77.05 2.59-6.34.2-6.41-2.39-.07-1.97 6.36-.2 6.41"/>
    <path fill="#048162" d="M294.64 36.79c.96 1.49 6.69-1.45 5.4-3.46-1.29-2.02-6.35 1.97-5.4 3.46"/>
    <path fill="#048162" d="M236.84 198.24c-.96-1.49-6.68 1.48-5.38 3.49 1.3 2 6.34-2.01 5.38-3.49"/>
    <path fill="#048162" d="M313.24 21.37c1.08-1.41-3.64-5.8-5.09-3.9-1.46 1.9 4.01 5.31 5.09 3.9"/>
    <path fill="#048162" d="M109.03 80.8c.36 1.74 6.77 1.03 6.28-1.31-.49-2.34-6.64-.42-6.28 1.31"/>
    <path fill="#048162" d="M194.91 78.01c-1.75-.27-3.36 5.96-1 6.34 2.37.37 2.75-6.06 1-6.34"/>
    <path fill="#048162" d="M629.28 195.74c1.43-1.04-1.83-6.6-3.77-5.19-1.93 1.4 2.34 6.23 3.77 5.19"/>
    <path fill="#048162" d="M182.18 12.06c-1.51.93 1.33 6.72 3.37 5.46 2.03-1.26-1.86-6.39-3.37-5.46"/>
    <path fill="#048162" d="M95.12 52.99c.28 1.75 6.71 1.36 6.33-1-.37-2.37-6.61-.75-6.33 1"/>
    <path fill="#048162" d="M233.15 79.86c-1.63.7.31 6.84 2.52 5.9 2.2-.94-.89-6.59-2.52-5.9"/>
    <path fill="#048162" d="M191.17 99.27c1.77.15 2.92-6.19.53-6.39-2.39-.2-2.3 6.24-.53 6.39"/>
    <path fill="#048162" d="M307.15 189.82c1.55.85 5.18-4.47 3.09-5.62-2.1-1.15-4.64 4.77-3.09 5.62"/>
    <path fill="#048162" d="M243.26 168.35c-1.69-.54-4.23 5.39-1.95 6.11 2.28.73 3.63-5.57 1.95-6.11"/>
    <path fill="#048162" d="M277.62 20.07c.44 1.72 6.81.72 6.21-1.6-.59-2.32-6.65-.12-6.21 1.6"/>
    <path fill="#048162" d="M556.92 185.61c1.41 1.07 5.78-3.67 3.88-5.11-1.91-1.45-5.29 4.04-3.88 5.11"/>
    <path fill="#048162" d="M125.13 132.1c.38-1.73-5.75-3.71-6.26-1.38-.51 2.34 5.88 3.11 6.26 1.38"/>
    <path fill="#048162" d="M323.31 195.75c1.72-.42.8-6.8-1.52-6.23s-.2 6.66 1.52 6.23"/>
    <path fill="#048162" d="M135.85 19.83c-1.4-1.08-5.81 3.62-3.92 5.08 1.9 1.46 5.33-4 3.92-5.08"/>
    <path fill="#048162" d="M193.78 15.22c-.4 1.72 5.7 3.8 6.24 1.47.55-2.33-5.83-3.19-6.24-1.47"/>
    <path fill="#00BCE4" d="M697.49-2.71H420.48c1.85 41.27 23.57 83.41 54.15 111.44 25.9 23.74 57.16 40.32 90.66 50.49 3.79 1.15 7.63 2.13 11.52 2.99a91.26 91.26 0 0 1 33.56 14.76l.87.62c10.62 7.59 22.01 16.83 34.02 25.06h52.24V-2.71z"/>
    <path fill="#F1931C" d="M545.05-2.71c20.26 26.79 48.01 48.46 75.28 66.89 23.29 15.74 49.18 30 76.56 37.82V-2.71H545.05z"/>
    <path fill="#00BCE4" d="M224.68 199.28c-31.31-9.33-57.54-21.68-83.97-37.52-25.23-15.12-55.22-30.73-88.99-23.84-41.56 8.48-50.07 38.98-37.61 64.27h220.44l-9.87-2.91z"/>
    <rect width="2.82" height="0" x="-916.46" y="545.76" fill="none"/>
    <path fill="#FFF" d="M533.08 99.78c0-42.49-21.06-80.06-53.31-102.84H334.74a125.67 125.67 0 0 0-53.31 102.84c0 42.03 20.61 79.24 52.27 102.09h147.12a125.67 125.67 0 0 0 52.26-102.09z"/>
    <path fill="#008061" d="M405.15 123.92c-4.02 0-5.74 4.28-7.17 8.67-1.5 4.6-2.2 7.77-1.07 9.32.47.65 1.25.98 2.3.98 4.08 0 6.05-4.98 7.71-10.09 1.02-3.15 1.81-6.29.68-7.85-.5-.68-1.32-1.03-2.45-1.03m-9.57 29.47c-7.98 0-13.44-1.94-16.22-5.77-2.54-3.49-2.78-8.48-.71-14.82 4.18-12.86 14.32-19.38 30.14-19.38 8.43 0 14.09 1.91 16.82 5.67 2.31 3.18 2.53 7.72.65 13.5-4.36 13.41-15.25 20.8-30.68 20.8"/>
    <path fill="#008061" d="M456.07 125.27c-4.37 0-6.4 4.69-7.55 8.22-.99 3.06-1.75 6.12-.55 7.77.57.79 1.54 1.19 2.88 1.19 4.32 0 6.32-4.44 7.57-8.3 1.28-3.95 1.41-6.33.41-7.7-.55-.78-1.49-1.18-2.76-1.18m-33.63 40.94c-.53 0-.96-.19-1.21-.53s-.3-.81-.13-1.32l15.44-47.97a3.23 3.23 0 0 1 2.84-2.06h12.61c.53 0 .96.19 1.21.54s.3.81.13 1.32l-.8 2.48c-.78 2.4-.75 2.45-.63 2.61.07.09.17.14.28.14.15 0 .2 0 2.12-1.69.07-.06 7.17-6.29 13.09-6.29 4.56 0 7.83 1.32 9.73 3.93 3.2 4.4 1.88 11.45.22 16.58-3.96 12.18-12.42 19.46-22.63 19.46-5.03 0-8.04-1.8-9.47-5.67a.35.35 0 0 0-.32-.22c-.25 0-.4 0-1.23 2.54l-4.43 14.1a3.22 3.22 0 0 1-2.84 2.06h-13.98z"/>
    <path fill="#008061" d="m364.56 136.13 3.31-10.19.25-.78h6.08a3.55 3.55 0 0 0 3.17-2.3l.74-2.29 1.4-4.29c.41-1.27-.34-2.3-1.67-2.3h-6.08l1.33-4.09 2.7-8.3c.41-1.27-.3-2.01-1.59-1.65l-16 4.45a5.08 5.08 0 0 0-3.08 2.95l-.12.36-2.04 6.29h-4.22a3.57 3.57 0 0 0-3.17 2.3l-2.14 6.58c-.41 1.27.34 2.3 1.67 2.3h4.22l-.16.48-4.21 12.95c-3.34 10.3-.22 15.14 9.48 15.14 4.62 0 9.07-.82 13.56-2.01l3.63-11.19c-1.49.45-2.9.67-4.62.67-2.45-.01-3.51-1.8-2.44-5.08"/>
    <path fill="#00BCE4" d="M433.78 45.12a1.8 1.8 0 1 1 .94-3.5c1.59.43 3.22.71 4.85.89a3.6 3.6 0 0 1 3.53-3.37c1.3 0 2.59-.15 3.88-.33a3.6 3.6 0 0 1 2.6-4.2 24.79 24.79 0 0 0 11.17-6.45 5.42 5.42 0 1 1 7.67 7.67 35.79 35.79 0 0 1-34.64 9.29"/>
    <path fill="#8DC63F" d="M417.65 54.38a1.81 1.81 0 0 1 1.81-3.13 46.64 46.64 0 0 0 7.91 3.62 3.62 3.62 0 0 1 4.4-2.45c2.47.66 5 1.09 7.55 1.31.05-1.95 1.45-3.45 3.41-3.45l.82-.02a39.29 39.29 0 0 0 19.24-5.3 5.42 5.42 0 1 1 5.42 9.4 50.44 50.44 0 0 1-50.56.02"/>
    <path fill="#FD0" d="M459.81 73.66a65.26 65.26 0 0 1-63.09-16.93 1.83 1.83 0 0 1 2.58-2.58 61.8 61.8 0 0 0 9.73 7.9 3.62 3.62 0 0 1 4.89-1.25 57.81 57.81 0 0 0 10.48 4.74 3.62 3.62 0 0 1 4.92-2.32 54.05 54.05 0 0 0 27.66-.12 5.5 5.5 0 0 1 6.67 3.93 5.42 5.42 0 0 1-3.84 6.63"/>
    <path fill="#F9A01B" d="M373.57 50.56c-.5-.87-.17-1.99.7-2.49a1.8 1.8 0 0 1 2.47.66 77.17 77.17 0 0 0 9.68 13.21 3.62 3.62 0 0 1 5.06.05 73.49 73.49 0 0 0 11.93 9.64 3.61 3.61 0 0 1 5.37-.98 68.65 68.65 0 0 0 34.09 9.01 5.43 5.43 0 1 1 0 10.85 79.91 79.91 0 0 1-69.3-39.95"/>
    <path fill="#ED1B30" d="M351.51 35.04a1.83 1.83 0 0 1 1.32-2.22 1.8 1.8 0 0 1 2.21 1.28 91.37 91.37 0 0 0 7.4 18.82 3.6 3.6 0 0 1 4.88 1.35 87.88 87.88 0 0 0 11.35 15.45 3.54 3.54 0 0 1 5.03 0l.44.45a83.3 83.3 0 0 0 37.18 21.31 5.43 5.43 0 0 1-2.81 10.48 94.58 94.58 0 0 1-67-66.92"/>
  </g>
</svg>
