<svg xmlns="http://www.w3.org/2000/svg" viewBox="0 0 430 200">
  <rect width="369.94" height="81.42" x="50.2" y="86.63" fill="#F9A01B"/>
  <path fill="#F1931C" d="M79.15 69.89V56.94l-10.3-19.78h6.79l6.61 13.63h.09l7.06-13.63h6.56L85.44 56.94v12.94h-6.29z"/>
  <path fill="#F1931C" d="M96.28 53.52c0-8.71 4.01-16.91 13.95-16.91 9.98 0 13.95 8.2 13.95 16.91 0 10.21-4.92 16.91-13.95 16.91-8.98 0-13.95-6.7-13.95-16.91zm21.65 0c0-7.48-2.73-11.9-7.7-11.9-4.97 0-7.66 4.42-7.66 11.9 0 7.43 2.64 11.8 7.66 11.8 5.01.01 7.7-4.37 7.7-11.8z"/>
  <path fill="#F1931C" d="M149.01 37.16h6.29v19.51c0 8.66-3.92 13.76-13.31 13.76s-12.62-5.1-12.62-13.76V37.16h6.29v20.69c0 4.92 1.96 7.29 6.47 7.29 4.42 0 6.88-2.37 6.88-7.29V37.16z"/>
  <path fill="#F1931C" d="M197.23 60.31c-2.23 8.02-7.02 10.12-12.99 10.12-8.66 0-13.26-6.34-13.26-17.18 0-10.62 5.29-16.64 13.67-16.64 6.61 0 10.57 2.96 12.12 9.94l-5.83 1.09c-1.14-4.28-3.28-5.83-6.38-5.83-4.51 0-7.29 4.1-7.29 11.44 0 8.07 2.42 11.9 7.16 11.9 3.14 0 5.65-1.69 6.84-6.2l5.96 1.36z"/>
  <path fill="#F1931C" d="M200.28 53.52c0-8.71 4.01-16.91 13.95-16.91 9.98 0 13.95 8.2 13.95 16.91 0 10.21-4.92 16.91-13.95 16.91-8.99 0-13.95-6.7-13.95-16.91zm21.65 0c0-7.48-2.73-11.9-7.7-11.9-4.97 0-7.66 4.42-7.66 11.9 0 7.43 2.64 11.8 7.66 11.8 5.01.01 7.7-4.37 7.7-11.8z"/>
  <path fill="#F1931C" d="M253.01 37.16h6.29v19.51c0 8.66-3.92 13.76-13.31 13.76s-12.62-5.1-12.62-13.76V37.16h6.29v20.69c0 4.92 1.96 7.29 6.47 7.29 4.42 0 6.88-2.37 6.88-7.29V37.16z"/>
  <path fill="#F1931C" d="M266.26 69.89V37.16h6.29V64.6h13.81v5.29h-20.1z"/>
  <path fill="#F1931C" d="M290.6 69.89V37.16h10.03c10.71 0 15.95 5.38 15.95 15.91 0 10.98-5.83 16.82-16.59 16.82h-9.39zm9.8-5.47c6.84 0 9.89-3.87 9.89-11.21 0-7.02-2.96-10.57-9.25-10.57h-4.15v21.79h3.51z"/>
  <path fill="#F1931C" d="m353.58 69.89-4.79-22.15h-.09l-4.92 22.15h-6.34l-8.43-32.73h6.7l4.97 23.15h.09l4.97-23.15h6.29l4.56 22.93h.09l5.33-22.93h6.38l-8.66 32.73h-6.15z"/>
  <path fill="#F1931C" d="M371.9 69.89V37.16h6.29v32.73h-6.29z"/>
  <path fill="#F1931C" d="m405.31 69.89-13.86-23.93h-.09v23.93h-5.92V37.16h7.79l12.31 21.88h.09V37.16h5.88v32.73h-6.2z"/>
  <path fill="#FFF" d="M85.59 148.79c-7.94 0-11.27-5.38-12.14-13.99h-4.36v-3.84h4.15v-1.49c0-.67 0-1.28.05-1.95h-4.2v-3.84h4.56c1.28-7.99 5.38-12.91 12.45-12.91 6.1 0 9.27 2.51 11.02 8.2l-5.79 1.54c-1.02-2.82-2.31-4.25-5.17-4.25-3.33 0-5.12 2.87-5.84 7.43h10.66v3.84H79.95v3.44h11.02v3.84H80.11c.46 5.38 1.95 8.45 5.69 8.45 3.23 0 4.51-1.84 5.58-4.77l6 1.79c-2.72 7.18-7.18 8.51-11.79 8.51z"/>
  <path fill="#FFF" d="M111.52 148.79c-5.74 0-9.79-1.69-12.86-7.07l5.53-2.92c1.69 3.48 3.95 4.56 7.12 4.56 4.66 0 7.12-3.23 7.12-7.63 0-4.41-2.41-7.12-6.66-7.12-2.92 0-4.71 1.38-5.94 3.64l-5.48-1.02 1.43-19.83h20.8v5.53H106.7l-.67 9.02h.1a11.02 11.02 0 0 1 7.43-2.56c7.33 0 11.58 4.77 11.58 12.3.01 8.23-5.53 13.1-13.62 13.1z"/>
  <path fill="#FFF" d="M128.78 129.99c0-12.09 4.41-19.21 12.96-19.21 8.5 0 12.96 7.12 12.96 19.21 0 12.25-4.71 18.8-12.96 18.8-8.24 0-12.96-6.56-12.96-18.8zm19.22 0c0-9.38-2.05-13.94-6.25-13.94s-6.25 4.56-6.25 13.94c0 9.02 2.05 13.48 6.25 13.48 4.2-.01 6.25-4.47 6.25-13.48z"/>
  <path fill="#FFF" d="m158.76 156.22 3.18-8.04h-2.56v-7.33h7.33v6.87l-4.05 8.51h-3.9z"/>
  <path fill="#FFF" d="M172.59 129.99c0-12.09 4.41-19.21 12.96-19.21 8.5 0 12.96 7.12 12.96 19.21 0 12.25-4.71 18.8-12.96 18.8-8.24 0-12.96-6.56-12.96-18.8zm19.22 0c0-9.38-2.05-13.94-6.25-13.94s-6.25 4.56-6.25 13.94c0 9.02 2.05 13.48 6.25 13.48 4.2-.01 6.25-4.47 6.25-13.48z"/>
  <path fill="#FFF" d="M202 129.99c0-12.09 4.41-19.21 12.96-19.21 8.5 0 12.96 7.12 12.96 19.21 0 12.25-4.71 18.8-12.96 18.8-8.24 0-12.96-6.56-12.96-18.8zm19.22 0c0-9.38-2.05-13.94-6.25-13.94s-6.25 4.56-6.25 13.94c0 9.02 2.05 13.48 6.25 13.48 4.2-.01 6.25-4.47 6.25-13.48z"/>
  <path fill="#FFF" d="M231.41 129.99c0-12.09 4.41-19.21 12.96-19.21 8.5 0 12.96 7.12 12.96 19.21 0 12.25-4.71 18.8-12.96 18.8-8.24 0-12.96-6.56-12.96-18.8zm19.22 0c0-9.38-2.05-13.94-6.25-13.94s-6.25 4.56-6.25 13.94c0 9.02 2.05 13.48 6.25 13.48 4.2-.01 6.25-4.47 6.25-13.48z"/>
  <path fill="#FFF" d="M302.43 137.42c-2.51 9.02-7.89 11.38-14.6 11.38-9.74 0-14.91-7.12-14.91-19.32 0-11.94 5.94-18.7 15.37-18.7 7.43 0 11.89 3.33 13.63 11.17l-6.56 1.23c-1.28-4.82-3.69-6.56-7.17-6.56-5.07 0-8.2 4.61-8.2 12.86 0 9.07 2.72 13.37 8.04 13.37 3.54 0 6.35-1.9 7.69-6.97l6.71 1.54z"/>
  <path fill="#FFF" d="m328.87 148.18-2.66-9.68h-11.89l-2.66 9.68h-7.12l11.07-36.79h9.58l11.12 36.79h-7.44zm-12.91-15.58h8.61l-4.25-15.37h-.1l-4.26 15.37z"/>
  <path fill="#FFF" d="M358.9 121.38c-1.33-3.38-3.43-4.97-6.87-4.97-3.18 0-5.53 1.59-5.53 4.41 0 7.48 19.27 3.28 19.27 16.81 0 7.33-5.53 11.17-13.42 11.17-7.12 0-11.53-2.82-13.78-9.79l6.56-2.05c1.02 3.95 3.28 6.1 7.63 6.1 3.69 0 6.35-1.69 6.35-4.92 0-8.1-19.42-3.59-19.42-17.27 0-6.15 5.12-10.09 12.25-10.09 6.66 0 10.86 2.66 12.91 8.45l-5.95 2.15z"/>
  <path fill="#FFF" d="M393.94 148.18v-15.83h-14.96v15.83h-7.12v-36.79h7.12v14.65h14.96v-14.65h7.07v36.79h-7.07z"/>
  <rect width="1.65" height="0" x="-116.91" y="320.28" fill="none"/>
</svg>
