<svg xmlns="http://www.w3.org/2000/svg" viewBox="0 0 286 200">
  <path fill="#8DC63F" d="M286.34 64.09c-58.5 11.91-120 3.47-178.95-6.16-17.87-2.92-35.41-4.74-52.7 1.09-14.88 5.02-33.15 14.43-41.14 28.76-17.14 30.78 5.34 69.46 32.94 85.52 28.28 16.46 62.95 20.28 94.59 20.26 33.17-.02 65.56-5.27 97.19-14.54 16.27-4.77 32.19-10.54 48.07-16.39V64.09z"/>
  <path fill="#048162" d="M60.81 159.83c-.38-.62-2.76.54-2.25 1.38.51.83 2.63-.76 2.25-1.38"/>
  <path fill="#048162" d="M59.01 73.24c-.56-.47-2.44 1.4-1.68 2.03.76.63 2.24-1.56 1.68-2.03"/>
  <path fill="#048162" d="M274.73 132.62c-.24-.69-2.81-.05-2.49.87.33.93 2.73-.18 2.49-.87"/>
  <path fill="#048162" d="M32.54 119.4c.39.61 2.75-.59 2.22-1.42-.53-.82-2.62.81-2.22 1.42"/>
  <path fill="#048162" d="M72.95 161.71c-.26.68 2.11 1.86 2.46.94.35-.92-2.2-1.62-2.46-.94"/>
  <path fill="#048162" d="M225.53 148.53c-.67.28.1 2.81 1.01 2.43.91-.38-.34-2.71-1.01-2.43"/>
  <path fill="#048162" d="M208.02 167.08c.65.32 2.04-1.94 1.15-2.37-.88-.43-1.8 2.05-1.15 2.37"/>
  <path fill="#048162" d="M217.8 157.94c-.71.13-.48 2.77.48 2.59.97-.18.23-2.72-.48-2.59"/>
  <path fill="#048162" d="M205.11 158.22c.07-.72-2.53-1.22-2.62-.24-.09.98 2.55.96 2.62.24"/>
  <path fill="#048162" d="M249.86 153.34c.71.17 1.56-2.34.6-2.57-.96-.22-1.31 2.4-.6 2.57"/>
  <path fill="#048162" d="M87.21 154.83c-.3.66 2 1.97 2.4 1.08.41-.9-2.1-1.75-2.4-1.08"/>
  <path fill="#048162" d="M253.18 141.8c.5-.53-1.23-2.53-1.91-1.82-.67.72 1.41 2.35 1.91 1.82"/>
  <path fill="#048162" d="M82.87 156.53c-.04-.73-2.69-.82-2.63.16.06.98 2.68.57 2.63-.16"/>
  <path fill="#048162" d="M253.5 132.08c-.69-.24-1.81 2.15-.89 2.48.92.33 1.57-2.24.89-2.48"/>
  <path fill="#048162" d="M35.07 124.34c-.54-.48-2.48 1.32-1.75 1.97.73.65 2.29-1.49 1.75-1.97"/>
  <path fill="#048162" d="M261.91 156.39c.42.59 2.72-.72 2.15-1.52-.57-.8-2.57.93-2.15 1.52"/>
  <path fill="#048162" d="M234.33 136.46c.68.26 1.85-2.12.92-2.47-.92-.34-1.6 2.22-.92 2.47"/>
  <path fill="#048162" d="M208.96 173.55c.73-.02.91-2.66-.07-2.63-.99.02-.66 2.65.07 2.63"/>
  <path fill="#048162" d="M119.7 166.78c-.15-.71-2.78-.44-2.58.53.2.96 2.73.18 2.58-.53"/>
  <path fill="#048162" d="M219.5 151.64c-.38.62 1.75 2.2 2.26 1.36.51-.84-1.88-1.99-2.26-1.36"/>
  <path fill="#048162" d="M42.2 138.96c.12-.72-2.44-1.4-2.6-.43-.16.96 2.48 1.14 2.6.43"/>
  <path fill="#048162" d="M201.02 163.93c-.14-.72-2.77-.48-2.59.49.18.96 2.73.22 2.59-.49"/>
  <path fill="#048162" d="M256.43 145.87c.54-.49-1.06-2.6-1.78-1.94-.73.67 1.24 2.43 1.78 1.94"/>
  <path fill="#048162" d="M45.1 130.9c-.62-.38-2.22 1.73-1.38 2.24.83.52 2-1.85 1.38-2.24"/>
  <path fill="#048162" d="M245.75 123.88c-.18.7 2.31 1.61 2.55.65.25-.94-2.37-1.35-2.55-.65"/>
  <path fill="#048162" d="M53.29 111.69c-.39-.61-2.75.59-2.22 1.42.53.82 2.61-.81 2.22-1.42"/>
  <path fill="#048162" d="M260.48 145.5c0 .73 2.64.98 2.63 0 .01-.99-2.63-.73-2.63 0"/>
  <path fill="#048162" d="M265.07 149.76c-.28.67 2.04 1.93 2.43 1.03.38-.91-2.14-1.7-2.43-1.03"/>
  <path fill="#048162" d="M70.19 108.88c-.73.05-.8 2.7.18 2.63.98-.07.54-2.68-.18-2.63"/>
  <path fill="#048162" d="M64.05 75.4c-.71-.14-1.48 2.39-.52 2.58.97.2 1.24-2.44.52-2.58"/>
  <path fill="#048162" d="M80.58 165.7c-.42-.6-2.72.71-2.15 1.52.56.8 2.57-.93 2.15-1.52"/>
  <path fill="#048162" d="M198.36 175.39c.65.32 2.05-1.93 1.17-2.36-.88-.44-1.82 2.04-1.17 2.36"/>
  <path fill="#048162" d="M266.64 140.43c-.66.3.17 2.81 1.07 2.41.9-.4-.41-2.7-1.07-2.41"/>
  <path fill="#048162" d="M70.69 126.68c.02-.73-2.61-1.05-2.63-.07-.03.98 2.61.8 2.63.07"/>
  <path fill="#048162" d="M100.62 150.71c.3-.66-1.99-1.99-2.4-1.09-.41.89 2.1 1.75 2.4 1.09"/>
  <path fill="#048162" d="M172.84 161.39c-.44.58 1.51 2.37 2.1 1.59.6-.79-1.66-2.17-2.1-1.59"/>
  <path fill="#048162" d="M92.88 175.3c.44-.58-1.52-2.36-2.11-1.58-.59.8 1.67 2.17 2.11 1.58"/>
  <path fill="#048162" d="M47.65 137.24c.44.58 2.7-.8 2.1-1.59-.59-.78-2.54 1.01-2.1 1.59"/>
  <path fill="#048162" d="M86.36 143.22c.21-.7-2.24-1.71-2.52-.77-.29.95 2.31 1.47 2.52.77"/>
  <path fill="#048162" d="M95.84 160.38c-.03.73 2.6 1.07 2.63.09.04-.99-2.6-.82-2.63-.09"/>
  <path fill="#048162" d="M166.21 167.14c-.34.65 1.88 2.09 2.34 1.22.45-.87-2-1.86-2.34-1.22"/>
  <path fill="#048162" d="M185.23 175.18c-.04.73 2.58 1.11 2.63.13.05-.98-2.6-.86-2.63-.13"/>
  <path fill="#048162" d="M273.88 119.31c.04-.73-2.58-1.12-2.63-.13-.05.98 2.59.86 2.63.13"/>
  <path fill="#048162" d="M201.14 169.54c-.15.71 2.38 1.5 2.58.54.2-.97-2.43-1.25-2.58-.54"/>
  <path fill="#048162" d="M189.83 162.89c.33.65 2.79-.31 2.35-1.19-.44-.88-2.67.54-2.35 1.19"/>
  <path fill="#048162" d="M61.16 131.09c-.5.53 1.24 2.52 1.92 1.81.67-.72-1.42-2.34-1.92-1.81"/>
  <path fill="#048162" d="M100.16 172.85c.34-.65-1.88-2.09-2.34-1.22-.45.88 2.01 1.87 2.34 1.22"/>
  <path fill="#048162" d="M50.73 127.01c.67-.28-.11-2.81-1.02-2.43s.35 2.71 1.02 2.43"/>
  <path fill="#048162" d="M53.46 79.8c-.37-.63-2.77.48-2.27 1.33.49.85 2.63-.7 2.27-1.33"/>
  <path fill="#048162" d="M62.96 106.56c-.4.61 1.66 2.27 2.2 1.45.54-.82-1.8-2.05-2.2-1.45"/>
  <path fill="#048162" d="M268.43 134.67c-.69-.24-1.79 2.17-.86 2.49.93.33 1.55-2.25.86-2.49"/>
  <path fill="#048162" d="M261.18 138.94c.46-.56-1.41-2.43-2.04-1.67-.62.75 1.58 2.23 2.04 1.67"/>
  <path fill="#048162" d="M273.35 144.95c-.6-.41-2.31 1.61-1.5 2.17.81.56 2.1-1.76 1.5-2.17"/>
  <path fill="#048162" d="M227.35 142.14c.13.71 2.77.48 2.59-.49-.18-.96-2.72-.22-2.59.49"/>
  <path fill="#048162" d="M173.84 177.55c.71-.18.29-2.8-.66-2.55-.95.24-.05 2.73.66 2.55"/>
  <path fill="#048162" d="M69.05 101.91c-.53-.5-2.51 1.26-1.79 1.93.72.67 2.32-1.43 1.79-1.93"/>
  <path fill="#048162" d="M83.03 161.78c-.29.67 2.04 1.94 2.42 1.03.39-.9-2.13-1.7-2.42-1.03"/>
  <path fill="#048162" d="M70.42 96.08c.43-.59-1.56-2.34-2.14-1.54-.57.8 1.72 2.13 2.14 1.54"/>
  <path fill="#048162" d="M82.31 128.1c-.71.17-.34 2.79.61 2.56.96-.22.1-2.73-.61-2.56"/>
  <path fill="#048162" d="M241.64 135.23c.7-.18.29-2.8-.66-2.55s-.04 2.74.66 2.55"/>
  <path fill="#048162" d="M83.24 172.74c.33-.65-1.91-2.06-2.35-1.18-.45.87 2.02 1.83 2.35 1.18"/>
  <path fill="#048162" d="M78.48 120.74c-.46.56 1.42 2.43 2.04 1.67.62-.76-1.58-2.23-2.04-1.67"/>
  <path fill="#048162" d="M259.68 111.9c-.47-.56-2.65.93-2.02 1.69.63.75 2.49-1.13 2.02-1.69"/>
  <path fill="#048162" d="M212.64 153.28c-.43.59 1.54 2.35 2.12 1.56.59-.79-1.69-2.14-2.12-1.56"/>
  <path fill="#048162" d="M95.38 152.17c-.56-.46-2.44 1.4-1.68 2.03.76.62 2.24-1.57 1.68-2.03"/>
  <path fill="#048162" d="M61.13 99.33c.16.71 2.79.36 2.57-.6-.22-.95-2.73-.11-2.57.6"/>
  <path fill="#048162" d="M278.07 101.71c-.66-.31-2 1.98-1.11 2.39.89.41 1.77-2.09 1.11-2.39"/>
  <path fill="#048162" d="M233.6 160.53c.63.37 2.19-1.77 1.34-2.27-.85-.5-1.97 1.89-1.34 2.27"/>
  <path fill="#048162" d="M117.2 157.42c-.19.7 2.28 1.65 2.54.7.26-.95-2.35-1.4-2.54-.7"/>
  <path fill="#048162" d="M38.48 133.04c.08-.72-2.52-1.25-2.62-.27-.1.97 2.54.99 2.62.27"/>
  <path fill="#048162" d="M73.35 148.62c-.57-.45-2.41 1.45-1.64 2.06.77.61 2.21-1.61 1.64-2.06"/>
  <path fill="#048162" d="M216.63 147.72c.15-.71-2.38-1.5-2.58-.54-.21.96 2.43 1.25 2.58.54"/>
  <path fill="#048162" d="M160.74 171.8c-.48-.55-2.63 1-1.98 1.74.64.74 2.46-1.19 1.98-1.74"/>
  <path fill="#048162" d="M98.9 142.7c-.07-.72-2.71-.74-2.62.24.08.98 2.68.48 2.62-.24"/>
  <path fill="#048162" d="M251.45 109.76c-.73.01-.94 2.65.04 2.63.98-.01.69-2.64-.04-2.63"/>
  <path fill="#048162" d="M87.78 149.08c.28.67 2.81-.11 2.43-1.02-.39-.9-2.72.35-2.43 1.02"/>
  <path fill="#048162" d="M69.4 132.83c-.49-.54-2.62 1.02-1.97 1.76.66.73 2.45-1.22 1.97-1.76"/>
  <path fill="#048162" d="M76.63 127.81c.16-.71-2.36-1.53-2.57-.57-.22.97 2.41 1.28 2.57.57"/>
  <path fill="#048162" d="M70.68 157.01c.36-.63-1.8-2.16-2.29-1.3-.48.85 1.93 1.93 2.29 1.3"/>
  <path fill="#048162" d="M272.68 153.38c.69.24 1.81-2.16.88-2.48-.93-.33-1.57 2.24-.88 2.48"/>
  <path fill="#048162" d="M187.57 167.45c.08-.72-2.51-1.28-2.62-.3-.11.98 2.54 1.03 2.62.3"/>
  <path fill="#048162" d="M261.34 117.91c-.73.03-.88 2.67.1 2.63.99-.03.63-2.66-.1-2.63"/>
  <path fill="#048162" d="M106.63 173.28c.69.24 1.78-2.17.85-2.49-.93-.32-1.54 2.25-.85 2.49"/>
  <path fill="#048162" d="M274.89 124.3c-.71-.17-1.56 2.34-.6 2.57.95.21 1.31-2.41.6-2.57"/>
  <path fill="#048162" d="M242.33 142.34c.42-.59-1.57-2.33-2.15-1.53-.57.8 1.72 2.12 2.15 1.53"/>
  <path fill="#048162" d="M254.81 158.59c.63.37 2.19-1.76 1.35-2.26-.85-.51-1.97 1.89-1.35 2.26"/>
  <path fill="#048162" d="M116 171.71c-.24-.69-2.81-.07-2.49.86.32.92 2.73-.17 2.49-.86"/>
  <path fill="#048162" d="M56.86 101.27c-.73.05-.79 2.7.19 2.63.98-.07.53-2.68-.19-2.63"/>
  <path fill="#048162" d="M88.77 169.54c.31-.66-1.96-2.02-2.38-1.13-.43.89 2.06 1.79 2.38 1.13"/>
  <path fill="#048162" d="M76.68 134.39c.49.54 2.61-1.04 1.95-1.77-.66-.73-2.44 1.23-1.95 1.77"/>
  <path fill="#048162" d="M216.83 168.85c-.68-.25-1.84 2.13-.92 2.47.92.35 1.6-2.21.92-2.47"/>
  <path fill="#048162" d="M95.64 167.02c-.49-.54-2.61 1.05-1.95 1.77.66.73 2.44-1.23 1.95-1.77"/>
  <path fill="#048162" d="M257.43 132.21c.13.71 2.77.48 2.59-.48-.18-.97-2.72-.24-2.59.48"/>
  <path fill="#048162" d="M167.31 180.28c.59-.43-.75-2.71-1.54-2.13-.8.57.95 2.55 1.54 2.13"/>
  <path fill="#048162" d="M283.54 144.34c-.13.72 2.42 1.44 2.59.47.18-.97-2.46-1.18-2.59-.47"/>
  <path fill="#048162" d="M33.04 106.09c.39.62 2.75-.57 2.23-1.4-.53-.83-2.62.79-2.23 1.4"/>
  <path fill="#048162" d="M266.93 111.18c.59-.43-.77-2.7-1.57-2.12-.78.59.99 2.55 1.57 2.12"/>
  <path fill="#048162" d="M45.41 97.13c.43.58 2.7-.79 2.11-1.58-.59-.79-2.54.99-2.11 1.58"/>
  <path fill="#048162" d="M43.51 143.22c-.72.12-.52 2.76.45 2.6.97-.17.27-2.72-.45-2.6"/>
  <path fill="#048162" d="M250.96 100.07c-.43.59 1.56 2.34 2.13 1.55.58-.8-1.7-2.14-2.13-1.55"/>
  <path fill="#048162" d="M66.17 70.75c.06.73 2.71.76 2.63-.22-.09-.98-2.69-.5-2.63.22"/>
  <path fill="#048162" d="M281.41 149.16c.34-.65-1.88-2.09-2.34-1.22-.45.87 2.01 1.86 2.34 1.22"/>
  <path fill="#048162" d="M138.31 178.98c-.28.67 2.04 1.94 2.42 1.03.39-.91-2.14-1.7-2.42-1.03"/>
  <path fill="#048162" d="M106.85 158.78c-.51.52 1.17 2.56 1.86 1.86.69-.69-1.35-2.37-1.86-1.86"/>
  <path fill="#048162" d="M119.67 177.47c-.02-.73-2.67-.89-2.63.09.03.99 2.66.64 2.63-.09"/>
  <path fill="#048162" d="M72.76 139.3c.54.49 2.5-1.28 1.78-1.94-.72-.66-2.31 1.45-1.78 1.94"/>
  <path fill="#048162" d="M151.53 179.35c.71.17 1.59-2.32.63-2.56-.96-.23-1.34 2.39-.63 2.56"/>
  <path fill="#048162" d="M173.04 169.75c.53.5 2.51-1.26 1.79-1.93-.71-.67-2.32 1.44-1.79 1.93"/>
  <path fill="#048162" d="M48.21 151.82c.58.44 2.38-1.5 1.6-2.09-.79-.6-2.18 1.65-1.6 2.09"/>
  <path fill="#048162" d="M274.97 141.98c.17.71 2.79.35 2.56-.61-.22-.96-2.72-.1-2.56.61"/>
  <path fill="#048162" d="M282.75 113.57c.63-.36-.44-2.78-1.3-2.29-.85.48.67 2.64 1.3 2.29"/>
  <path fill="#048162" d="M280.87 118.96c-.71-.16-1.52 2.36-.56 2.57.96.22 1.27-2.41.56-2.57"/>
  <path fill="#048162" d="M55.23 148.49c.71-.15.41-2.78-.55-2.58-.96.21-.16 2.73.55 2.58"/>
  <path fill="#048162" d="M179.68 175.93c-.73 0-1 2.63-.01 2.63.98.01.74-2.62.01-2.63"/>
  <path fill="#048162" d="M111.27 176.72c-.73-.01-1.01 2.62-.03 2.63.99.02.76-2.62.03-2.63"/>
  <path fill="#048162" d="M236.03 142.54c.26-.68-2.12-1.85-2.47-.93-.34.93 2.21 1.62 2.47.93"/>
  <path fill="#048162" d="M31.35 112.91c.54.49 2.49-1.3 1.76-1.96-.73-.66-2.3 1.47-1.76 1.96"/>
  <path fill="#048162" d="M193.37 169.47c.7.19 1.64-2.29.69-2.54-.95-.27-1.39 2.35-.69 2.54"/>
  <path fill="#048162" d="M57.42 142.85c.73.06 1.18-2.55.2-2.63-.97-.07-.92 2.58-.2 2.63"/>
  <path fill="#048162" d="M108.95 151.7c-.73-.03-1.09 2.59-.11 2.63.99.05.84-2.6.11-2.63"/>
  <path fill="#048162" d="M240.84 123.54c.47-.56-1.39-2.44-2.02-1.69-.63.75 1.56 2.24 2.02 1.69"/>
  <path fill="#048162" d="M70.34 141.83c-.68-.27-1.88 2.09-.96 2.45.91.36 1.64-2.19.96-2.45"/>
  <path fill="#048162" d="M38.59 126.31c-.24.69 2.16 1.8 2.49.87.32-.92-2.25-1.56-2.49-.87"/>
  <path fill="#048162" d="M78.27 145.9c.66-.3-.19-2.81-1.09-2.4-.89.41.42 2.7 1.09 2.4"/>
  <path fill="#048162" d="M125.26 178.47c-.53-.5-2.51 1.26-1.79 1.93.72.67 2.33-1.43 1.79-1.93"/>
  <path fill="#048162" d="M62.66 124.41c-.03.73 2.59 1.1 2.63.12.05-.98-2.59-.85-2.63-.12"/>
  <path fill="#048162" d="M65.98 90.17c-.5-.52-2.58 1.12-1.9 1.83.68.7 2.4-1.31 1.9-1.83"/>
  <path fill="#048162" d="M191.09 174.09c-.25.68 2.15 1.82 2.48.89.34-.92-2.23-1.57-2.48-.89"/>
  <path fill="#048162" d="M131.93 167.08c.61-.4-.65-2.74-1.47-2.19-.82.55.86 2.59 1.47 2.19"/>
  <path fill="#048162" d="M143.8 172.13c-.1.72 2.47 1.34 2.61.37.14-.97-2.5-1.09-2.61-.37"/>
  <path fill="#048162" d="M267.9 116.86c.61-.39-.58-2.75-1.41-2.22-.83.53.8 2.62 1.41 2.22"/>
  <path fill="#048162" d="M246.69 136.19c-.71.15-.4 2.78.56 2.57.96-.2.15-2.72-.56-2.57"/>
  <path fill="#048162" d="M114.66 160.68c-.6-.41-2.3 1.62-1.48 2.18.8.55 2.08-1.77 1.48-2.18"/>
  <path fill="#048162" d="M101.45 156.69c.36.63 2.78-.45 2.29-1.31-.49-.85-2.65.68-2.29 1.31"/>
  <path fill="#048162" d="M43.42 107.18c-.73.04-.85 2.68.13 2.63.98-.05.6-2.67-.13-2.63"/>
  <path fill="#048162" d="M76.92 156.15c.41-.6-1.63-2.29-2.18-1.48-.56.81 1.77 2.08 2.18 1.48"/>
  <path fill="#048162" d="M138.06 167.61c.34.65 2.79-.34 2.34-1.21-.45-.87-2.68.56-2.34 1.21"/>
  <path fill="#048162" d="M228.81 163.85c-.5-.53-2.59 1.1-1.91 1.81.67.71 2.41-1.28 1.91-1.81"/>
  <path fill="#048162" d="M91.69 162.71c.53-.5-1.09-2.59-1.8-1.92-.72.68 1.27 2.42 1.8 1.92"/>
  <path fill="#048162" d="M38.21 94.87c-.45.58 1.48 2.39 2.08 1.62.6-.78-1.64-2.2-2.08-1.62"/>
  <path fill="#048162" d="M237.61 154.67c.34.64 2.79-.37 2.33-1.24-.46-.87-2.67.6-2.33 1.24"/>
  <path fill="#048162" d="M44.78 114.88c-.13.72 2.41 1.45 2.59.48.18-.97-2.45-1.2-2.59-.48"/>
  <path fill="#048162" d="M261.33 124.94c-.19-.7-2.8-.27-2.54.68.25.95 2.73.02 2.54-.68"/>
  <path fill="#048162" d="M246.74 116.27c-.72-.11-1.39 2.45-.42 2.6.98.15 1.14-2.49.42-2.6"/>
  <path fill="#048162" d="M255.67 105.94c-.14.72 2.4 1.46 2.59.49.19-.96-2.45-1.21-2.59-.49"/>
  <path fill="#048162" d="M55.55 156.34c.41-.6-1.61-2.31-2.17-1.5-.56.8 1.75 2.09 2.17 1.5"/>
  <path fill="#048162" d="M223.88 166.82c-.68-.26-1.85 2.12-.93 2.47.92.34 1.61-2.22.93-2.47"/>
  <path fill="#048162" d="M64.87 163.19c-.3.66 1.98 1.99 2.39 1.1.42-.89-2.08-1.76-2.39-1.1"/>
  <path fill="#048162" d="M266.35 129.2c-.55-.47-2.46 1.37-1.71 2.01.75.63 2.27-1.54 1.71-2.01"/>
  <path fill="#048162" d="M49.41 104.57c-.68.26.02 2.81.94 2.46.92-.34-.26-2.71-.94-2.46"/>
  <path fill="#048162" d="M39.55 117.4c-.59.42.71 2.72 1.52 2.15.8-.56-.92-2.57-1.52-2.15"/>
  <path fill="#048162" d="M233.56 149.8c.62-.38-.52-2.76-1.37-2.25-.83.51.75 2.63 1.37 2.25"/>
  <path fill="#048162" d="M246.87 131.3c.7.2 1.68-2.25.74-2.53-.94-.27-1.43 2.33-.74 2.53"/>
  <path fill="#048162" d="M248.48 106.78c.69-.24.07-2.81-.86-2.49-.93.32.17 2.72.86 2.49"/>
  <path fill="#048162" d="M44.72 124.72c.72.13 1.43-2.42.46-2.59-.97-.18-1.18 2.46-.46 2.59"/>
  <path fill="#048162" d="M266.91 125.23c.39.61 2.75-.6 2.22-1.43-.54-.83-2.62.82-2.22 1.43"/>
  <path fill="#048162" d="M147.62 167.14c-.42.59 1.56 2.34 2.14 1.54.57-.8-1.71-2.13-2.14-1.54"/>
  <path fill="#048162" d="M160.74 164.09c-.41-.6-2.73.68-2.17 1.49s2.58-.89 2.17-1.49"/>
  <path fill="#048162" d="M63.7 147.18c-.04.73 2.57 1.13 2.63.15.06-.98-2.59-.87-2.63-.15"/>
  <path fill="#048162" d="M233.26 165.87c.29.67 2.81-.16 2.41-1.06-.39-.9-2.7.4-2.41 1.06"/>
  <path fill="#048162" d="M132.3 170.94c-.71.15-.41 2.78.55 2.58.97-.21.16-2.73-.55-2.58"/>
  <path fill="#048162" d="M54.97 130.43c.13-.72-2.41-1.45-2.59-.48-.18.96 2.46 1.19 2.59.48"/>
  <path fill="#048162" d="M228.72 129.13c-.46.56 1.41 2.43 2.04 1.67.62-.76-1.58-2.23-2.04-1.67"/>
  <path fill="#048162" d="M279.22 127.1c-.7.21-.19 2.81.75 2.53.94-.29-.05-2.74-.75-2.53"/>
  <path fill="#048162" d="M51.13 117.96c-.64.35.39 2.78 1.26 2.32.86-.48-.62-2.67-1.26-2.32"/>
  <path fill="#048162" d="M56.95 95.1c.33.65 2.79-.31 2.35-1.19-.44-.87-2.68.54-2.35 1.19"/>
  <path fill="#048162" d="M277.62 114.72c.34-.65-1.88-2.09-2.33-1.22-.46.87 1.99 1.86 2.33 1.22"/>
  <path fill="#048162" d="M273.07 110.12c.62.39 2.24-1.71 1.4-2.23-.83-.52-2.02 1.85-1.4 2.23"/>
  <path fill="#048162" d="M139.88 173.8c.25-.68-2.15-1.82-2.48-.89-.33.93 2.24 1.58 2.48.89"/>
  <path fill="#048162" d="M153.19 170.34c-.44.58 1.52 2.37 2.11 1.58.59-.79-1.68-2.16-2.11-1.58"/>
  <path fill="#048162" d="M215.48 163.94c-.26.68 2.1 1.87 2.46.95.35-.92-2.2-1.63-2.46-.95"/>
  <path fill="#048162" d="M180.56 164.85c.67-.29-.13-2.81-1.04-2.42-.9.38.37 2.71 1.04 2.42"/>
  <path fill="#048162" d="M262.5 104.7c-.18.71 2.32 1.59 2.56.64s-2.38-1.34-2.56-.64"/>
  <path fill="#048162" d="M246.02 154.85c-.51-.52-2.57 1.15-1.88 1.85.69.7 2.39-1.33 1.88-1.85"/>
  <path fill="#048162" d="M281.79 104.16c-.37.62 1.75 2.2 2.26 1.36.51-.85-1.88-1.99-2.26-1.36"/>
  <path fill="#048162" d="M164.02 161.87c0 .73 2.63.98 2.63 0 0-.99-2.63-.73-2.63 0"/>
  <path fill="#048162" d="M58.68 82.26c.63-.36-.46-2.77-1.32-2.28-.85.49.69 2.65 1.32 2.28"/>
  <path fill="#048162" d="M253.42 125.53c.68.27 1.9-2.08.98-2.44-.91-.38-1.66 2.16-.98 2.44"/>
  <path fill="#048162" d="M227.35 135.18c-.61-.4-2.26 1.67-1.44 2.21.82.54 2.05-1.81 1.44-2.21"/>
  <path fill="#048162" d="M82.89 150.16c.23-.69-2.19-1.76-2.5-.83-.31.94 2.27 1.53 2.5.83"/>
  <path fill="#048162" d="M165.26 172.76c-.51.52 1.21 2.54 1.89 1.83.69-.7-1.38-2.35-1.89-1.83"/>
  <path fill="#048162" d="M236.35 127.91c-.25.68 2.15 1.82 2.48.89.33-.93-2.24-1.58-2.48-.89"/>
  <path fill="#048162" d="M240.94 160.84c-.7.22-.16 2.81.78 2.52.94-.3-.09-2.74-.78-2.52"/>
  <path fill="#048162" d="M61.95 112.59c-.7.19-.27 2.8.68 2.55.95-.26.03-2.74-.68-2.55"/>
  <path fill="#048162" d="M41.1 102.43c-.01.73 2.61 1.04 2.63.05.03-.98-2.61-.77-2.63-.05"/>
  <path fill="#048162" d="M56.33 108.85c-.09.72 2.49 1.31 2.61.33.13-.98-2.52-1.06-2.61-.33"/>
  <path fill="#048162" d="M47.24 83.87c.68-.26-.03-2.81-.95-2.46-.91.36.28 2.72.95 2.46"/>
  <path fill="#048162" d="M144.74 179.28c.08.72 2.72.7 2.62-.28-.1-.98-2.69-.44-2.62.28"/>
  <path fill="#048162" d="M39.26 88.35c-.66.3.19 2.81 1.08 2.4.9-.4-.42-2.7-1.08-2.4"/>
  <path fill="#048162" d="M100.54 164.76c-.3.67 2.01 1.97 2.41 1.07.39-.9-2.12-1.73-2.41-1.07"/>
  <path fill="#048162" d="M34.24 98.3c-.6.41.65 2.74 1.47 2.19.81-.55-.87-2.6-1.47-2.19"/>
  <path fill="#048162" d="M255.92 150.62c-.32.66 1.95 2.03 2.37 1.14.43-.89-2.05-1.8-2.37-1.14"/>
  <path fill="#048162" d="M181.31 169.84c-.59-.43-2.35 1.54-1.56 2.13.79.57 2.15-1.7 1.56-2.13"/>
  <path fill="#048162" d="M153.19 164.16c.68.26 1.86-2.11.94-2.46-.92-.36-1.62 2.2-.94 2.46"/>
  <path fill="#048162" d="M62.52 155.7c.19.7 2.8.26 2.54-.69-.25-.94-2.73-.01-2.54.69"/>
  <path fill="#048162" d="M54.91 135.09c-.36.63 1.79 2.17 2.28 1.32.49-.86-1.92-1.95-2.28-1.32"/>
  <path fill="#048162" d="M245.72 146.35c.06.73 2.7.78 2.63-.2-.08-.98-2.68-.52-2.63.2"/>
  <path fill="#048162" d="M73.13 118.74c-.7-.18-1.61 2.3-.66 2.55.95.24 1.36-2.37.66-2.55"/>
  <path fill="#048162" d="M103.88 177.39c.31-.66-1.98-2-2.39-1.11-.41.9 2.09 1.77 2.39 1.11"/>
  <path fill="#048162" d="M211.13 159.51c-.29-.67-2.81.16-2.41 1.06.4.9 2.7-.39 2.41-1.06"/>
  <path fill="#048162" d="M59.43 119.53c.48-.55-1.33-2.48-1.98-1.74-.65.73 1.5 2.28 1.98 1.74"/>
  <path fill="#048162" d="M231.31 155.91c.54-.48-1.02-2.62-1.75-1.97-.73.66 1.21 2.45 1.75 1.97"/>
  <path fill="#048162" d="M263.99 100.64c.71-.14.45-2.78-.52-2.58-.96.19-.19 2.72.52 2.58"/>
  <path fill="#048162" d="M37.14 112.38c.28.67 2.81-.09 2.44-1-.38-.92-2.72.32-2.44 1"/>
  <path fill="#048162" d="M52.92 99.38c.14-.71-2.39-1.49-2.58-.52-.2.96 2.44 1.23 2.58.52"/>
  <path fill="#048162" d="M125.18 169.56c.54-.49-1.03-2.62-1.76-1.96-.73.66 1.22 2.45 1.76 1.96"/>
  <path fill="#048162" d="M109.97 167.28c.48-.55-1.35-2.47-1.99-1.73-.65.74 1.51 2.28 1.99 1.73"/>
  <path fill="#048162" d="M66.2 118.74c.61.39 2.25-1.68 1.43-2.22-.83-.53-2.04 1.83-1.43 2.22"/>
  <path fill="#048162" d="M83.25 138.03c0-.73-2.64-.97-2.64.01.01.98 2.65.72 2.64-.01"/>
  <path fill="#048162" d="M64.2 140.87c.67-.29-.15-2.81-1.05-2.42-.9.39.38 2.71 1.05 2.42"/>
  <path fill="#048162" d="M132.23 180.62c.73-.01.96-2.64-.02-2.64-.98.01-.71 2.65.02 2.64"/>
  <path fill="#048162" d="M126.77 172.86c-.62-.38-2.23 1.72-1.39 2.24.83.51 2.01-1.86 1.39-2.24"/>
  <path fill="#048162" d="M58.74 151.51c.44.58 2.7-.8 2.11-1.58-.59-.79-2.55 1-2.11 1.58"/>
  <path fill="#048162" d="M90.19 135.47c-.7.2-.21 2.8.73 2.53.95-.27-.03-2.73-.73-2.53"/>
  <path fill="#048162" d="M55.69 88.73c.44.58 2.69-.82 2.09-1.6-.6-.78-2.54 1.03-2.09 1.6"/>
  <path fill="#048162" d="M272.25 103.41c.35-.64-1.83-2.13-2.31-1.27-.47.85 1.96 1.9 2.31 1.27"/>
  <path fill="#048162" d="M53 90.61c-.06-.72-2.71-.76-2.63.22.09.98 2.69.51 2.63-.22"/>
  <path fill="#048162" d="M73.94 113.17c-.4.61 1.67 2.26 2.21 1.44.53-.82-1.81-2.04-2.21-1.44"/>
  <path fill="#048162" d="M48.71 143.6c.41.6 2.73-.67 2.18-1.48-.55-.82-2.59.87-2.18 1.48"/>
  <path fill="#048162" d="M223.66 143.18c-.26-.68-2.81.02-2.46.94.35.91 2.72-.26 2.46-.94"/>
  <path fill="#048162" d="M92.51 144.03c.68-.25 0-2.81-.92-2.47-.92.34.23 2.73.92 2.47"/>
  <path fill="#048162" d="M47.15 88.16c-.36-.63-2.78.45-2.29 1.31.49.85 2.65-.67 2.29-1.31"/>
  <path fill="#048162" d="M285.82 137.12c-.7-.21-1.71 2.23-.77 2.52.94.29 1.47-2.3.77-2.52"/>
  <path fill="#048162" d="M123.94 160.62c-.72.09-.63 2.74.34 2.61.97-.12.38-2.7-.34-2.61"/>
  <path fill="#048162" d="M225.94 158.52c-.16-.71-2.79-.38-2.57.58.22.96 2.73.13 2.57-.58"/>
  <path fill="#048162" d="M243.58 112.27c.71.15 1.51-2.37.55-2.58-.96-.2-1.26 2.43-.55 2.58"/>
  <path fill="#048162" d="M62.31 86.01c.5.53 2.59-1.09 1.92-1.8-.67-.72-2.41 1.27-1.92 1.8"/>
  <path fill="#048162" d="M254.31 116.56c-.63-.37-2.18 1.77-1.34 2.27.85.5 1.96-1.9 1.34-2.27"/>
  <path fill="#048162" d="M73.69 167.77c-.16-.71-2.79-.38-2.57.58.21.96 2.73.13 2.57-.58"/>
  <path fill="#048162" d="M239.37 147.39c-.35.64 1.84 2.13 2.31 1.27.47-.86-1.96-1.91-2.31-1.27"/>
  <path fill="#048162" d="M279.78 135.3c-.63-.36-2.16 1.8-1.31 2.29.86.49 1.94-1.93 1.31-2.29"/>
  <path fill="#048162" d="M158.66 178.06c-.69-.22-1.73 2.22-.79 2.51.93.3 1.48-2.29.79-2.51"/>
  <path fill="#048162" d="M58.07 124.15c-.71-.16-1.53 2.36-.57 2.57.96.22 1.28-2.41.57-2.57"/>
  <path fill="#048162" d="M248.8 159.62c-.73-.04-1.14 2.57-.16 2.63.98.06.89-2.59.16-2.63"/>
  <path fill="#00BCE4" d="M285.93 0H181.09c-10.24 7.21-18.67 16.58-23.57 29.1-12.02 30.75 13.75 60.11 42.03 68.95 13.77 4.31 28.29 5.01 42.53 2.94a61.6 61.6 0 0 0 4.81-.9 37.63 37.63 0 0 1 15.06-.37l.43.08c7.22 1.32 15.51 3.54 23.55 4.19V0z"/>
  <path fill="#F1931C" d="M286.59 200.71v-48.63c-13.81 8.72-25.23 22.39-27.93 38.35a48.1 48.1 0 0 0-.61 10.28h28.54z"/>
  <path fill="#F1931C" d="M285.59 0h-78.77c-7.02 2.22-14.02 5.16-18.12 11.26-6.21 9.23-1.36 19.39 6.29 25.66 14.19 11.62 33.23 16.36 50.96 19.14 12.01 1.88 24.81 2.65 36.9.38l.42-.03c.78-.07 1.55-.17 2.31-.29V0z"/>
  <path fill="#00BCE4" d="M198.76 200c11.16-7.93 16.65-21.24 3.26-26.66-10.54-4.26-27.38-3.55-39.78-2.97-13.2.62-26.51 2.99-39.81 5-13.27 2-25.18 1.99-37.77.71-12.02-1.22-25.9-1.78-37.25 6.68-7.34 5.47-10.22 11.61-9.99 17.25h161.34z"/>
  <rect width="1.65" height="0" x="-581.18" y="320.28" fill="none"/>
  <path fill="#FFF" d="M216.26 0H103.68a93.17 93.17 0 0 0 56.29 167.41A93.17 93.17 0 0 0 216.26 0z"/>
  <path fill="#008061" d="M158.41 92.12c-2.97 0-4.25 3.17-5.31 6.42-1.11 3.41-1.63 5.75-.79 6.9.35.48.92.73 1.7.73 3.02 0 4.48-3.69 5.71-7.47.76-2.33 1.34-4.65.5-5.81-.36-.51-.97-.77-1.81-.77m-7.09 21.82c-5.91 0-9.95-1.44-12.01-4.27-1.88-2.58-2.06-6.28-.53-10.97 3.09-9.52 10.6-14.35 22.32-14.35 6.24 0 10.43 1.41 12.45 4.2 1.71 2.35 1.87 5.72.48 10-3.22 9.92-11.28 15.39-22.71 15.39"/>
  <path fill="#008061" d="M196.12 93.12c-3.24 0-4.74 3.48-5.59 6.09-.74 2.26-1.29 4.53-.4 5.75.42.58 1.14.88 2.14.88 3.2 0 4.68-3.28 5.61-6.14.95-2.93 1.04-4.68.31-5.7-.44-.59-1.13-.88-2.07-.88m-24.91 30.31c-.39 0-.71-.14-.9-.4-.19-.26-.22-.6-.1-.98l11.43-35.52a2.39 2.39 0 0 1 2.1-1.53h9.34c.39 0 .71.14.9.4.19.26.22.6.1.97l-.6 1.84c-.58 1.78-.55 1.81-.47 1.93.05.07.13.11.21.11.11 0 .15 0 1.57-1.25.05-.05 5.31-4.66 9.69-4.66 3.38 0 5.8.98 7.2 2.91 2.37 3.26 1.39 8.48.16 12.28-2.93 9.02-9.2 14.41-16.76 14.41-3.72 0-5.95-1.33-7.02-4.2a.26.26 0 0 0-.24-.17c-.18 0-.3 0-.91 1.88l-3.28 10.44a2.39 2.39 0 0 1-2.1 1.53h-10.32z"/>
  <path fill="#008061" d="m128.35 101.16 2.45-7.54.19-.58h4.5c.99 0 2.04-.77 2.35-1.7l.55-1.7 1.03-3.18c.31-.94-.25-1.7-1.24-1.7h-4.5l.98-3.03 2-6.15c.31-.94-.22-1.49-1.17-1.22l-11.85 3.29a3.72 3.72 0 0 0-2.28 2.19l-.09.27-1.51 4.65h-3.12c-.99 0-2.04.77-2.35 1.7l-1.58 4.88c-.3.94.25 1.7 1.24 1.7h3.12l-.11.36-3.12 9.59c-2.48 7.62-.16 11.21 7.02 11.21 3.42 0 6.72-.61 10.04-1.49l2.69-8.29c-1.1.33-2.15.5-3.42.5-1.82 0-2.6-1.33-1.82-3.76"/>
  <path fill="#00BCE4" d="M179.61 33.77a1.34 1.34 0 1 1 .69-2.59c1.18.31 2.38.53 3.59.66a2.68 2.68 0 0 1 2.62-2.5c.96 0 1.92-.11 2.87-.24a2.68 2.68 0 0 1 1.93-3.11c3.03-.81 5.89-2.4 8.27-4.77a4.01 4.01 0 1 1 5.68 5.68 26.52 26.52 0 0 1-25.65 6.87"/>
  <path fill="#8DC63F" d="M167.66 40.63a1.34 1.34 0 0 1 1.34-2.32 34.68 34.68 0 0 0 5.85 2.68 2.69 2.69 0 0 1 3.26-1.82c1.83.49 3.7.81 5.59.97.04-1.45 1.07-2.55 2.53-2.55l.61-.01a29.22 29.22 0 0 0 14.25-3.92 4.02 4.02 0 0 1 4.02 6.96 37.4 37.4 0 0 1-37.45.01"/>
  <path fill="#FD0" d="M198.88 54.9a48.34 48.34 0 0 1-46.72-12.53 1.36 1.36 0 0 1 .01-1.91 1.34 1.34 0 0 1 1.89 0 44.9 44.9 0 0 0 7.21 5.85 2.67 2.67 0 0 1 3.62-.92 43 43 0 0 0 7.76 3.51 2.69 2.69 0 0 1 3.64-1.72 40.06 40.06 0 0 0 20.48-.09 4.09 4.09 0 0 1 4.94 2.91 3.98 3.98 0 0 1-2.83 4.9"/>
  <path fill="#F9A01B" d="M135.03 37.8a1.36 1.36 0 0 1 .51-1.84 1.34 1.34 0 0 1 1.83.49 57.04 57.04 0 0 0 7.17 9.78 2.68 2.68 0 0 1 3.75.04 54.22 54.22 0 0 0 8.83 7.14 2.69 2.69 0 0 1 3.99-.73 50.86 50.86 0 0 0 25.24 6.67 4.02 4.02 0 0 1 0 8.04 59.2 59.2 0 0 1-51.32-29.59"/>
  <path fill="#ED1B30" d="M118.69 26.31c-.19-.71.26-1.46.98-1.65.72-.19 1.45.23 1.64.95a66.92 66.92 0 0 0 5.48 13.93 2.68 2.68 0 0 1 3.62 1 65.24 65.24 0 0 0 8.4 11.44 2.6 2.6 0 0 1 3.72 0l.33.33a61.68 61.68 0 0 0 27.53 15.78 4.01 4.01 0 1 1-2.08 7.76 70.01 70.01 0 0 1-49.62-49.54"/>
</svg>
