<?xml version="1.0" encoding="utf-8"?>
<!-- Generator: Adobe Illustrator 27.0.1, SVG Export Plug-In . SVG Version: 6.00 Build 0)  -->
<svg version="1.1" id="Layer_1" xmlns="http://www.w3.org/2000/svg" xmlns:xlink="http://www.w3.org/1999/xlink" x="0px" y="0px"
	 viewBox="0 0 1070 200" enable-background="new 0 0 1070 200" xml:space="preserve">
<path fill="#00BCE4" d="M567.34,5.03c-3,1.38-2.38,4-1.15,5.84c1.23,1.83,3.55,3.17,5.84,1.15c2.29-2.01,2.45-3.9,1.15-5.84
	C571.88,4.26,570.34,3.66,567.34,5.03"/>
<path fill="#00BCE4" d="M545.07,45.27c-3,1.38-2.38,4-1.15,5.84c1.23,1.83,3.55,3.16,5.84,1.15c2.29-2.01,2.45-3.9,1.15-5.84
	C549.62,44.5,548.08,43.9,545.07,45.27"/>
<path fill="#00BCE4" d="M580.24,85.1c-3,1.38-2.38,4-1.15,5.84c1.23,1.83,3.55,3.17,5.84,1.15c2.29-2.01,2.45-3.9,1.15-5.84
	C584.79,84.33,583.25,83.73,580.24,85.1"/>
<path fill="#00BCE4" d="M744.93,191.69c-3,1.38-2.38,4-1.15,5.84c1.23,1.83,3.55,3.17,5.84,1.15c2.29-2.01,2.45-3.9,1.15-5.84
	C749.47,190.92,747.93,190.31,744.93,191.69"/>
<path fill="#00BCE4" d="M592.94,39.58c-3,1.37-2.38,4-1.15,5.84c1.23,1.83,3.55,3.16,5.84,1.15s2.45-3.9,1.15-5.84
	C597.48,38.81,595.94,38.21,592.94,39.58"/>
<path fill="#00BCE4" d="M596.79,106.24c-3,1.38-2.38,4-1.15,5.84c1.23,1.83,3.55,3.17,5.84,1.15c2.29-2.01,2.45-3.9,1.15-5.84
	S599.79,104.86,596.79,106.24"/>
<path fill="#00BCE4" d="M618.42,49.09c-3,1.38-2.38,4-1.15,5.84c1.23,1.83,3.55,3.17,5.84,1.15c2.29-2.01,2.44-3.9,1.15-5.84
	C622.96,48.31,621.42,47.72,618.42,49.09"/>
<path fill="#00BCE4" d="M814.81,186.58c-3,1.38-2.38,4-1.15,5.84c1.23,1.83,3.55,3.16,5.84,1.15c2.29-2.01,2.45-3.9,1.15-5.84
	C819.36,185.81,817.81,185.21,814.81,186.58"/>
<path fill="#00BCE4" d="M620.8,120.53c-3,1.38-2.38,4-1.15,5.84c1.23,1.83,3.55,3.17,5.84,1.15c2.29-2.01,2.44-3.9,1.15-5.84
	C625.34,119.75,623.8,119.15,620.8,120.53"/>
<path fill="#00BCE4" d="M622.61,97.99c-3,1.38-2.38,4-1.15,5.84c1.23,1.83,3.55,3.17,5.84,1.15c2.29-2.01,2.45-3.9,1.15-5.84
	C627.15,97.21,625.61,96.61,622.61,97.99"/>
<path fill="#00BCE4" d="M629.69,141.95c-3,1.38-2.38,4-1.15,5.84c1.23,1.83,3.55,3.17,5.84,1.15c2.29-2.01,2.45-3.9,1.15-5.84
	C634.23,141.18,632.69,140.58,629.69,141.95"/>
<path fill="#00BCE4" d="M526.97,2.81c-3,1.38-2.38,4-1.15,5.84c1.23,1.83,3.55,3.17,5.84,1.15c2.29-2.01,2.45-3.9,1.15-5.84
	C531.51,2.03,529.97,1.43,526.97,2.81"/>
<path fill="#00BCE4" d="M808.64,165.02c-3,1.38-2.38,4-1.15,5.84c1.23,1.83,3.55,3.17,5.84,1.15c2.29-2.01,2.44-3.9,1.15-5.84
	C813.18,164.24,811.64,163.64,808.64,165.02"/>
<path fill="#00BCE4" d="M837.18,162.06c-3,1.38-2.38,4-1.15,5.84c1.23,1.83,3.55,3.16,5.84,1.15c2.29-2.01,2.45-3.9,1.15-5.84
	C841.72,161.29,840.18,160.69,837.18,162.06"/>
<path fill="#00BCE4" d="M668.12,90.87c-3,1.38-2.38,4-1.15,5.84c1.23,1.83,3.55,3.16,5.84,1.15c2.29-2.01,2.45-3.9,1.15-5.84
	C672.66,90.09,671.12,89.49,668.12,90.87"/>
<path fill="#00BCE4" d="M671.99,141.44c-3,1.38-2.38,4-1.15,5.84c1.23,1.83,3.55,3.17,5.84,1.15c2.29-2.01,2.45-3.9,1.15-5.84
	C676.53,140.66,674.99,140.06,671.99,141.44"/>
<path fill="#00BCE4" d="M635.7,193.01c-3,1.38-2.38,4-1.15,5.84c1.23,1.83,3.55,3.17,5.84,1.15c2.29-2.01,2.45-3.9,1.15-5.84
	C640.24,192.24,638.71,191.64,635.7,193.01"/>
<path fill="#00BCE4" d="M545.59,71.74c-3,1.38-2.38,4-1.15,5.84c1.23,1.83,3.55,3.17,5.84,1.15c2.29-2.01,2.45-3.9,1.15-5.84
	C550.13,70.97,548.59,70.37,545.59,71.74"/>
<path fill="#00BCE4" d="M651.42,153.02c-3,1.38-2.38,4-1.15,5.84c1.23,1.83,3.55,3.17,5.84,1.15c2.29-2.01,2.45-3.9,1.15-5.84
	C655.96,152.25,654.42,151.65,651.42,153.02"/>
<path fill="#00BCE4" d="M719.3,194.8c-3,1.38-2.38,4-1.15,5.84c1.23,1.83,3.55,3.17,5.84,1.15c2.29-2.01,2.45-3.9,1.15-5.84
	C723.85,194.02,722.31,193.42,719.3,194.8"/>
<path fill="#00BCE4" d="M623.23,164.2c-3,1.38-2.38,4-1.15,5.84c1.23,1.83,3.55,3.16,5.84,1.15c2.29-2.01,2.45-3.9,1.15-5.84
	C627.77,163.42,626.23,162.82,623.23,164.2"/>
<path fill="#00BCE4" d="M612.52,3.18c-3,1.38-2.38,4-1.15,5.84c1.23,1.83,3.55,3.16,5.84,1.15c2.29-2.01,2.45-3.9,1.15-5.84
	S615.52,1.8,612.52,3.18"/>
<path fill="#00BCE4" d="M691.66,124.35c-3,1.38-2.38,4-1.15,5.84c1.23,1.83,3.55,3.16,5.84,1.15s2.45-3.9,1.15-5.84
	C696.21,123.57,694.67,122.97,691.66,124.35"/>
<path fill="#00BCE4" d="M694.36,151.61c-3,1.38-2.38,4-1.15,5.84c1.23,1.83,3.55,3.17,5.84,1.15c2.29-2.01,2.45-3.9,1.15-5.84
	C698.9,150.83,697.36,150.23,694.36,151.61"/>
<path fill="#00BCE4" d="M566.95,62.39c-3,1.38-2.38,4-1.15,5.84c1.23,1.83,3.55,3.16,5.84,1.15c2.29-2.01,2.45-3.9,1.15-5.84
	C571.49,61.61,569.95,61.01,566.95,62.39"/>
<path fill="#00BCE4" d="M643.97,94.52c-3,1.38-2.38,4-1.15,5.84c1.23,1.83,3.55,3.17,5.84,1.15c2.29-2.01,2.45-3.9,1.15-5.84
	S646.97,93.14,643.97,94.52"/>
<path fill="#00BCE4" d="M608.53,184.51c-3,1.38-2.38,4-1.15,5.84c1.23,1.83,3.55,3.17,5.84,1.15c2.29-2.01,2.45-3.9,1.15-5.84
	C613.07,183.74,611.54,183.14,608.53,184.51"/>
<path fill="#00BCE4" d="M643.33,39.11c-3,1.38-2.38,4-1.15,5.84c1.23,1.83,3.55,3.17,5.84,1.15c2.29-2.01,2.45-3.9,1.15-5.84
	C647.88,38.33,646.33,37.73,643.33,39.11"/>
<path fill="#00BCE4" d="M840.53,184.36c-3,1.38-2.38,4-1.15,5.84c1.23,1.83,3.55,3.17,5.84,1.15c2.29-2.01,2.45-3.9,1.15-5.84
	C845.07,183.58,843.53,182.98,840.53,184.36"/>
<path fill="#00BCE4" d="M583.07,189.52c-3,1.38-2.38,4-1.15,5.84c1.23,1.83,3.55,3.17,5.84,1.15c2.29-2.01,2.45-3.9,1.15-5.84
	C587.61,188.75,586.07,188.15,583.07,189.52"/>
<path fill="#00BCE4" d="M648.32,176.65c-3,1.38-2.38,4-1.15,5.84c1.23,1.83,3.55,3.17,5.84,1.15c2.29-2.01,2.44-3.9,1.15-5.84
	C652.86,175.87,651.32,175.27,648.32,176.65"/>
<path fill="#00BCE4" d="M547.38,16.91c-3,1.38-2.38,4-1.15,5.84c1.23,1.83,3.55,3.16,5.84,1.15c2.29-2.01,2.45-3.9,1.15-5.84
	C551.93,16.14,550.39,15.54,547.38,16.91"/>
<path fill="#00BCE4" d="M673.63,170.08c-3,1.38-2.38,4-1.15,5.84c1.23,1.83,3.55,3.16,5.84,1.15s2.45-3.9,1.15-5.84
	C678.17,169.31,676.63,168.71,673.63,170.08"/>
<path fill="#00BCE4" d="M568.74,34.87c-3,1.38-2.38,4-1.15,5.84c1.23,1.83,3.55,3.17,5.84,1.15c2.29-2.01,2.44-3.9,1.15-5.84
	C573.29,34.1,571.75,33.5,568.74,34.87"/>
<path fill="#00BCE4" d="M525.43,30.27c-3,1.37-2.38,4-1.15,5.84c1.23,1.83,3.55,3.16,5.84,1.15c2.29-2.01,2.45-3.9,1.15-5.84
	S528.43,28.89,525.43,30.27"/>
<path fill="#00BCE4" d="M574.03,151.94c-3,1.38-2.38,4-1.15,5.84c1.23,1.83,3.55,3.17,5.84,1.15c2.29-2.01,2.44-3.9,1.15-5.84
	C578.57,151.16,577.04,150.56,574.03,151.94"/>
<path fill="#00BCE4" d="M653.06,67.6c-3,1.38-2.38,4-1.15,5.84c1.23,1.83,3.55,3.17,5.84,1.15c2.29-2.01,2.45-3.9,1.15-5.84
	C657.6,66.82,656.06,66.22,653.06,67.6"/>
<path fill="#00BCE4" d="M586.39,130.31c-3,1.38-2.38,4-1.15,5.84c1.23,1.83,3.55,3.16,5.84,1.15c2.29-2.01,2.45-3.9,1.15-5.84
	C590.94,129.53,589.39,128.93,586.39,130.31"/>
<path fill="#00BCE4" d="M559.67,98.6c-3,1.38-2.38,4-1.15,5.84c1.23,1.83,3.55,3.17,5.84,1.15c2.29-2.01,2.45-3.9,1.15-5.84
	C564.21,97.83,562.67,97.22,559.67,98.6"/>
<path fill="#00BCE4" d="M593.98,165.84c-3,1.38-2.38,4-1.15,5.84c1.23,1.83,3.55,3.17,5.84,1.15c2.29-2.01,2.45-3.9,1.15-5.84
	C598.53,165.06,596.99,164.46,593.98,165.84"/>
<path fill="#00BCE4" d="M638.97,13.04c-3,1.38-2.38,4-1.15,5.84c1.23,1.83,3.55,3.17,5.84,1.15c2.29-2.01,2.44-3.9,1.15-5.84
	C643.51,12.26,641.97,11.66,638.97,13.04"/>
<path fill="#00BCE4" d="M668.06,113.94c-3,1.38-2.38,4-1.15,5.84c1.23,1.83,3.55,3.17,5.84,1.15c2.29-2.01,2.45-3.9,1.15-5.84
	C672.6,113.16,671.06,112.56,668.06,113.94"/>
<path fill="#00BCE4" d="M720.4,158.07c-3,1.38-2.38,4-1.15,5.84c1.23,1.83,3.55,3.17,5.84,1.15c2.29-2.01,2.45-3.9,1.15-5.84
	C724.95,157.29,723.4,156.69,720.4,158.07"/>
<path fill="#00BCE4" d="M607.11,79.98c-3,1.38-2.38,4-1.15,5.84c1.23,1.83,3.55,3.17,5.84,1.15c2.29-2.01,2.45-3.9,1.15-5.84
	S610.11,78.6,607.11,79.98"/>
<path fill="#00BCE4" d="M685.88,189.77c-3,1.38-2.38,4-1.15,5.84c1.23,1.83,3.55,3.16,5.84,1.15c2.29-2.01,2.45-3.9,1.15-5.84
	C690.42,189,688.88,188.4,685.88,189.77"/>
<path fill="#00BCE4" d="M604.03,143.17c-3,1.38-2.38,4-1.15,5.84c1.23,1.83,3.55,3.17,5.84,1.15c2.29-2.01,2.45-3.9,1.15-5.84
	C608.58,142.39,607.04,141.79,604.03,143.17"/>
<path fill="#00BCE4" d="M858.6,154.15c-3,1.38-2.38,4-1.15,5.84c1.23,1.83,3.55,3.16,5.84,1.15s2.45-3.9,1.15-5.84
	C863.14,153.38,861.6,152.78,858.6,154.15"/>
<path fill="#00BCE4" d="M615.4,25.73c-3,1.38-2.38,4-1.15,5.84c1.23,1.83,3.55,3.17,5.84,1.15c2.29-2.01,2.45-3.9,1.15-5.84
	C619.94,24.95,618.4,24.35,615.4,25.73"/>
<path fill="#00BCE4" d="M593.18,61.77c-3,1.37-2.38,4-1.15,5.84c1.23,1.83,3.55,3.16,5.84,1.15s2.44-3.9,1.15-5.84
	C597.72,61,596.18,60.39,593.18,61.77"/>
<path fill="#00BCE4" d="M704.97,174.58c-3,1.38-2.38,4-1.15,5.84c1.23,1.83,3.55,3.17,5.84,1.15c2.29-2.01,2.45-3.9,1.15-5.84
	C709.52,173.8,707.98,173.2,704.97,174.58"/>
<path fill="#00BCE4" d="M588.39,15c-3,1.37-2.38,4-1.15,5.84c1.23,1.83,3.55,3.16,5.84,1.15c2.29-2.01,2.45-3.9,1.15-5.84
	S591.39,13.63,588.39,15"/>
<path fill="#00BCE4" d="M630.57,68.01c-3,1.38-2.38,4-1.15,5.84c1.23,1.83,3.55,3.17,5.84,1.15c2.29-2.01,2.45-3.9,1.15-5.84
	C635.11,67.24,633.58,66.64,630.57,68.01"/>
<path fill="#00BCE4" d="M570.58,116.88c-3,1.38-2.38,4-1.15,5.84c1.23,1.83,3.55,3.17,5.84,1.15c2.29-2.01,2.45-3.9,1.15-5.84
	S573.59,115.51,570.58,116.88"/>
<path fill="#00BCE4" d="M647.03,124.45c-3,1.38-2.38,4-1.15,5.84c1.23,1.83,3.55,3.17,5.84,1.15c2.29-2.01,2.45-3.9,1.15-5.84
	C651.58,123.67,650.03,123.07,647.03,124.45"/>
<path fill="#00BCE4" d="M0,205.42h569.39C569.04,134.45,544.7,63.65,510.9-1.91H0V205.42z"/>
<g>
	<polygon fill="#F1931C" points="67.76,202.27 67.76,202.27 67.76,202.27 	"/>
	<path fill="#F1931C" d="M0,120.24v82.03h67.76C58.33,191.43,49.07,180.44,40,169.3C26.71,152.94,13.45,136.51,0,120.24z"/>
</g>
<path fill="#8DC63F" d="M1071.47-1.58H648.26c27.18,73.33,59.83,142.16,99.23,202.59h323.98V-1.58z"/>
<path fill="#048162" d="M756.12,33.68c-0.06-0.74,0.7-1.03,1.56-1.09c0.33-0.03,5.1-0.18,6.6-0.37c2.29-0.3,10.2-0.89,10.73-0.93
	c0.88-0.07,2.02,0.27,2.06,0.82s-0.7,1.03-1.92,1.12c-0.97,0.07-6.81,0.4-8.12,0.5c-0.98,0.07-2.01,0.26-2.99,0.33l-6.22,0.47
	C757.21,34.58,756.18,34.42,756.12,33.68"/>
<path fill="#048162" d="M1035.18,29.87c0.57,0.48,0.24,1.22-0.31,1.88c-0.22,0.26-2.42,2.57-3.33,3.78c-1.39,1.85-7.9,9.6-8.24,10
	c-0.56,0.67-1.61,1.25-2.03,0.9c-0.42-0.36-0.25-1.22,0.53-2.15c0.63-0.75,4.47-5.15,5.32-6.16c0.63-0.75,2.63-3.29,3.26-4.05
	l3-3.57C1033.78,30.02,1034.61,29.4,1035.18,29.87"/>
<path fill="#048162" d="M817.16,190.25c-0.68,0.3-1.21-0.33-1.55-1.11c-0.13-0.31-1.85-4.76-2.53-6.11
	c-1.56-3.34-3.06-6.7-4.52-10.08c-0.35-0.8-0.4-1.99,0.1-2.21s1.2,0.32,1.69,1.43c0.39,0.9,1.86,4.54,2.38,5.74
	c0.39,0.91,1.79,3.82,2.18,4.72l2.49,5.72C817.65,188.93,817.84,189.95,817.16,190.25"/>
<path fill="#048162" d="M1055.76,166.14c0.09,0.74-0.65,1.07-1.5,1.18c-0.33,0.04-5.09,0.44-6.58,0.71
	c-2.28,0.41-8.44,1.2-8.96,1.26c-0.87,0.11-2.03-0.17-2.1-0.72c-0.07-0.54,0.64-1.06,1.85-1.22c0.97-0.12,5.08-0.53,6.39-0.7
	c0.97-0.12,1.99-0.36,2.97-0.49l6.18-0.79C1054.64,165.3,1055.67,165.4,1055.76,166.14"/>
<path fill="#048162" d="M809.15,31.95c-0.6-0.44-0.32-1.21,0.19-1.9c0.2-0.27,3.2-3.99,4.03-5.25c1.27-1.93,5.99-8.3,6.31-8.73
	c0.52-0.7,1.52-1.35,1.97-1.02c0.44,0.33,0.33,1.2-0.4,2.18c-0.59,0.78-4.15,5.42-4.93,6.48c-0.59,0.79-1.11,1.69-1.7,2.48
	l-3.71,5.02C810.54,31.72,809.75,32.39,809.15,31.95"/>
<path fill="#048162" d="M873.96,13.16c0.31,0.68-0.31,1.21-1.09,1.56c-0.31,0.14-4.73,1.93-6.07,2.63
	c-3.23,1.57-6.48,3.09-9.76,4.56c-0.8,0.36-1.99,0.43-2.22-0.07s0.3-1.21,1.41-1.71c0.89-0.4,6.26-2.72,7.46-3.26
	c0.9-0.41,1.8-0.94,2.69-1.35l5.68-2.58C872.63,12.69,873.65,12.48,873.96,13.16"/>
<path fill="#048162" d="M908.6,176.27c0.71-0.22,1.16,0.46,1.41,1.28c0.1,0.32,0.32,1.7,0.83,3.12c0.8,2.17,3.79,11.84,3.94,12.35
	c0.26,0.84,0.18,2.03-0.34,2.19c-0.53,0.16-1.16-0.45-1.52-1.62c-0.28-0.93-1.91-6.55-2.29-7.81c-0.29-0.94-1.35-3.99-1.64-4.94
	l-0.84-2.72C907.97,177.53,907.89,176.49,908.6,176.27"/>
<path fill="#048162" d="M953.94,160.83c0.6,0.44,0.34,1.2-0.17,1.9c-0.19,0.27-3.14,4.03-3.96,5.3c-1.25,1.95-5.87,8.38-6.18,8.82
	c-0.51,0.71-1.51,1.37-1.95,1.05c-0.45-0.32-0.34-1.2,0.37-2.19c0.57-0.8,4.07-5.48,4.84-6.55c0.57-0.8,1.09-1.71,1.67-2.51
	l3.64-5.07C952.56,161.08,953.34,160.39,953.94,160.83"/>
<path fill="#048162" d="M1003.88,132.21c-0.18-0.72,0.53-1.13,1.36-1.33c0.33-0.08,3.48-0.64,4.93-1.07
	c2.22-0.66,12.05-3.04,12.57-3.16c0.85-0.21,2.04-0.05,2.16,0.48c0.13,0.53-0.52,1.13-1.71,1.41c-0.95,0.23-6.65,1.5-7.93,1.81
	c-0.96,0.23-4.07,1.1-5.03,1.33c-1.51,0.36-3.02,0.73-4.53,1.1C1005.09,132.92,1004.06,132.93,1003.88,132.21"/>
<path fill="#048162" d="M939.64,37.25c0.74,0.1,0.86,0.9,0.75,1.76c-0.05,0.33-0.89,5.03-1.01,6.54c-0.19,2.31-1.23,9.96-1.3,10.49
	c-0.12,0.87-0.69,1.92-1.23,1.84c-0.55-0.07-0.86-0.9-0.7-2.1c0.13-0.97,1-6.55,1.18-7.85c0.13-0.97,0.17-2.02,0.3-2.99l0.84-6.18
	C938.54,38.12,938.9,37.15,939.64,37.25"/>
<path fill="#048162" d="M950-11.67c0.68-0.3,1.2,0.33,1.54,1.12c0.13,0.31,1.84,4.76,2.51,6.12c1.03,2.07,4.27,9.6,4.48,10.09
	c0.35,0.8,0.39,1.99-0.11,2.21s-1.2-0.32-1.68-1.44c-0.39-0.9-1.84-4.55-2.36-5.75c-0.39-0.91-1.77-3.83-2.16-4.73l-2.46-5.73
	C949.51-10.35,949.31-11.37,950-11.67"/>
<path fill="#048162" d="M987.9,162.52c0.6-0.44,1.25,0.05,1.76,0.75c0.2,0.27,2.85,4.24,3.8,5.41c1.46,1.8,6.13,8.2,6.45,8.63
	c0.51,0.71,0.83,1.86,0.39,2.19c-0.45,0.32-1.24-0.05-1.96-1.04c-0.58-0.79-3.94-5.58-4.71-6.64c-0.58-0.79-1.28-1.57-1.86-2.37
	l-3.68-5.04C987.71,163.92,987.3,162.96,987.9,162.52"/>
<path fill="#048162" d="M990.99,28.2c0.53,0.52,0.16,1.24-0.45,1.85c-0.23,0.24-3.71,3.51-4.71,4.65c-1.53,1.73-7.26,7.6-7.63,7.98
	c-0.61,0.63-1.69,1.13-2.09,0.75c-0.39-0.38-0.16-1.23,0.69-2.11c0.68-0.7,3.51-3.43,4.42-4.37c0.69-0.7,2.87-3.09,3.56-3.8
	l4.36-4.46C989.58,28.24,990.46,27.68,990.99,28.2"/>
<path fill="#048162" d="M908.41,53.64c-0.71,0.21-1.15-0.48-1.39-1.3c-0.09-0.32-1.22-4.96-1.71-6.39
	c-0.75-2.19-2.94-9.8-3.09-10.32c-0.24-0.84-0.15-2.03,0.38-2.18s1.15,0.47,1.49,1.65c0.27,0.94,1.78,6.59,2.14,7.85
	c0.27,0.94,0.66,1.91,0.94,2.86l1.72,6C909.07,52.4,909.13,53.43,908.41,53.64"/>
<path fill="#048162" d="M874.5,196.25c-0.55,0.5-1.24,0.09-1.83-0.54c-0.23-0.25-1.02-1.4-2.09-2.45c-1.65-1.62-8.5-9.07-8.87-9.46
	c-0.59-0.64-1.03-1.75-0.63-2.12s1.24-0.09,2.06,0.8c0.66,0.72,4.54,5.1,5.43,6.06c0.67,0.72,2.93,3.03,3.6,3.75l1.93,2.1
	C874.53,194.84,875.04,195.74,874.5,196.25"/>
<path fill="#048162" d="M1013.67,83.56c0.03-0.74,0.81-0.94,1.67-0.91c0.34,0.02,5.1,0.4,6.61,0.37c2.31-0.03,10.23,0.27,10.77,0.3
	c0.88,0.03,1.97,0.5,1.95,1.05s-0.81,0.94-2.03,0.9c-0.97-0.04-6.81-0.37-8.13-0.42c-0.98-0.04-2.02,0.03-3.01-0.01l-6.23-0.24
	C1014.64,84.58,1013.64,84.31,1013.67,83.56"/>
<path fill="#048162" d="M1069.01,196.21c0.41-0.62,1.19-0.39,1.91,0.08c0.28,0.19,4.16,2.97,5.46,3.73c2,1.17,7.19,4.57,7.64,4.86
	c0.73,0.48,1.43,1.44,1.13,1.91c-0.3,0.46-1.18,0.39-2.2-0.27c-0.82-0.54-4.21-2.89-5.31-3.61c-0.82-0.54-1.75-1.01-2.57-1.56
	l-5.22-3.42C1069.32,197.58,1068.6,196.83,1069.01,196.21"/>
<path fill="#048162" d="M1059.73,105.75c0.71,0.2,0.72,1.02,0.49,1.84c-0.09,0.32-1.57,4.86-1.91,6.33
	c-0.51,2.26-2.65,9.89-2.8,10.4c-0.23,0.84-0.95,1.8-1.48,1.66c-0.53-0.15-0.73-1.01-0.4-2.18c0.26-0.94,1.95-6.54,2.31-7.81
	c0.26-0.94,0.44-1.97,0.7-2.93l1.69-6C1058.52,106.46,1059.02,105.55,1059.73,105.75"/>
<path fill="#F1931C" d="M1071.47-3.96h-17.05c-19.25,35.45-8.11,76.57,17.05,105.82V-3.96z"/>
<rect x="49.04" y="53.97" fill="#F9A01B" width="971.61" height="92.07"/>
<g>
	<path fill="#FFFFFF" d="M113.62,116.38l-5-23.14h-0.1l-5.14,23.14h-6.62l-8.81-34.19h7l5.19,24.19h0.1l5.19-24.19H112l4.76,23.95
		h0.09l5.57-23.95h6.67l-9.05,34.19L113.62,116.38L113.62,116.38z"/>
	<path fill="#FFFFFF" d="M159.09,116.38l-2.48-9h-11.05l-2.48,9h-6.62l10.29-34.19h8.91L166,116.38H159.09z M147.09,101.91h8
		l-3.95-14.29h-0.1L147.09,101.91z"/>
	<path fill="#FFFFFF" d="M199.43,116.38l-14.48-25h-0.1v25h-6.19V82.19h8.14l12.86,22.86h0.1V82.19h6.14v34.19L199.43,116.38
		L199.43,116.38z"/>
	<path fill="#FFFFFF" d="M228.14,116.38V87.71h-9.24v-5.52H244v5.52h-9.29v28.67H228.14z"/>
	<path fill="#FFFFFF" d="M303.42,116.38V90.43h-0.09l-7.76,25.95h-5.48l-7.81-25.95h-0.1v25.95h-6.05V82.19h9.14l7.43,25.57h0.1
		l7.71-25.57h9.05v34.19C309.56,116.38,303.42,116.38,303.42,116.38z"/>
	<path fill="#FFFFFF" d="M323.47,99.29c0-9.1,4.19-17.67,14.57-17.67c10.43,0,14.57,8.57,14.57,17.67
		c0,10.67-5.14,17.67-14.57,17.67C328.66,116.96,323.47,109.95,323.47,99.29z M346.09,99.29c0-7.81-2.86-12.43-8.05-12.43
		s-8,4.62-8,12.43c0,7.76,2.76,12.33,8,12.33S346.09,107.05,346.09,99.29z"/>
	<path fill="#FFFFFF" d="M385.71,116.38l-6.24-13.72h-6.38v13.72h-6.57V82.19h11.67c9.05,0,13.29,3.33,13.29,9.86
		c0,4.48-2.33,7.33-5.95,8.81l7.48,15.52L385.71,116.38L385.71,116.38z M378.23,97.33c2.48,0,6.62-0.48,6.62-4.86
		c0-4.24-3.43-4.76-6.29-4.76h-5.48v9.62H378.23L378.23,97.33z"/>
	<path fill="#FFFFFF" d="M406.23,116.38V82.19h22.1v5.52H412.8v8.38h11.1v5.33h-11.1v9.43h16.05v5.52h-22.62V116.38z"/>
	<path fill="#FFFFFF" d="M486.85,106.38c-2.33,8.38-7.33,10.57-13.57,10.57c-9.05,0-13.86-6.62-13.86-17.95
		c0-11.1,5.52-17.38,14.29-17.38c6.91,0,11.05,3.1,12.67,10.38l-6.1,1.14c-1.19-4.48-3.43-6.1-6.67-6.1
		c-4.71,0-7.62,4.29-7.62,11.95c0,8.43,2.52,12.43,7.48,12.43c3.29,0,5.91-1.76,7.14-6.48L486.85,106.38z"/>
	<path fill="#FFFFFF" d="M520.66,116.38v-14.72h-13.91v14.72h-6.62V82.19h6.62v13.62h13.91V82.19h6.57v34.19
		C527.23,116.38,520.66,116.38,520.66,116.38z"/>
	<path fill="#FFFFFF" d="M562.56,116.38l-2.48-9h-11.05l-2.48,9h-6.62l10.29-34.19h8.91l10.33,34.19
		C569.46,116.38,562.56,116.38,562.56,116.38z M550.56,101.91h8l-3.95-14.29h-0.1L550.56,101.91z"/>
	<path fill="#FFFFFF" d="M602.89,116.38l-14.48-25h-0.1v25h-6.19V82.19h8.14l12.86,22.86h0.1V82.19h6.14v34.19L602.89,116.38
		L602.89,116.38z"/>
	<path fill="#FFFFFF" d="M650.7,106.38c-2.33,8.38-7.33,10.57-13.57,10.57c-9.05,0-13.86-6.62-13.86-17.95
		c0-11.1,5.52-17.38,14.29-17.38c6.91,0,11.05,3.1,12.67,10.38l-6.1,1.14c-1.19-4.48-3.43-6.1-6.67-6.1
		c-4.71,0-7.62,4.29-7.62,11.95c0,8.43,2.52,12.43,7.48,12.43c3.29,0,5.91-1.76,7.14-6.48L650.7,106.38L650.7,106.38z"/>
	<path fill="#FFFFFF" d="M663.98,116.38V82.19h22.1v5.52h-15.53v8.38h11.1v5.33h-11.1v9.43h16.05v5.52h-22.62V116.38z"/>
	<path fill="#FFFFFF" d="M716.41,91.48c-1.24-3.14-3.19-4.62-6.38-4.62c-2.95,0-5.14,1.48-5.14,4.1c0,6.95,17.91,3.05,17.91,15.62
		c0,6.81-5.14,10.38-12.48,10.38c-6.62,0-10.71-2.62-12.81-9.1l6.1-1.9c0.95,3.67,3.05,5.67,7.1,5.67c3.43,0,5.91-1.57,5.91-4.57
		c0-7.52-18.05-3.33-18.05-16.05c0-5.71,4.76-9.38,11.38-9.38c6.19,0,10.1,2.48,12,7.86L716.41,91.48L716.41,91.48z"/>
	<path fill="#FFFFFF" d="M762.36,116.38V87.71h-9.24v-5.52h25.1v5.52h-9.29v28.67H762.36z"/>
	<path fill="#FFFFFF" d="M787.88,99.29c0-9.1,4.19-17.67,14.57-17.67c10.43,0,14.57,8.57,14.57,17.67
		c0,10.67-5.14,17.67-14.57,17.67C793.07,116.96,787.88,109.95,787.88,99.29z M810.5,99.29c0-7.81-2.86-12.43-8.05-12.43
		c-5.19,0-8,4.62-8,12.43c0,7.76,2.76,12.33,8,12.33S810.5,107.05,810.5,99.29z"/>
	<path fill="#FFFFFF" d="M872.17,116.38l-5-23.14h-0.1l-5.14,23.14h-6.62l-8.81-34.19h7l5.19,24.19h0.1l5.19-24.19h6.57l4.76,23.95
		h0.1l5.57-23.95h6.67l-9.05,34.19L872.17,116.38L872.17,116.38z"/>
	<path fill="#FFFFFF" d="M899.55,116.38V82.19h6.57v34.19C906.12,116.38,899.55,116.38,899.55,116.38z"/>
	<path fill="#FFFFFF" d="M942.69,116.38l-14.48-25h-0.1v25h-6.19V82.19h8.14l12.86,22.86h0.1V82.19h6.14v34.19L942.69,116.38
		L942.69,116.38z"/>
	<path fill="#FFFFFF" d="M967.64,104.57v-2.33c0-5.38,6.33-7.76,6.33-12.67c0-1.86-1.19-3.05-3.1-3.05c-1.95,0-3.14,1.05-4.14,3.48
		l-5.05-1.71c1.52-4.81,5.14-6.67,9.81-6.67c5.57,0,8.71,2.95,8.71,7.67c0,6.43-7.76,9.52-7.76,13.52v1.76H967.64L967.64,104.57z
		 M966.64,116.38v-6.81h6.81v6.81H966.64z"/>
</g>
</svg>
