<svg xmlns="http://www.w3.org/2000/svg" viewBox="0 0 1920 200">
  <g id="Vehicle">
    <path fill="#00BCE4" d="M992.34 5.03c-3 1.38-2.38 4-1.15 5.84 1.23 1.83 3.55 3.17 5.84 1.15 2.29-2.01 2.45-3.9 1.15-5.84-1.3-1.92-2.84-2.52-5.84-1.15"/>
    <path fill="#00BCE4" d="M970.07 45.27c-3 1.38-2.38 4-1.15 5.84 1.23 1.83 3.55 3.16 5.84 1.15 2.29-2.01 2.45-3.9 1.15-5.84-1.29-1.92-2.83-2.52-5.84-1.15"/>
    <path fill="#00BCE4" d="M1005.24 85.1c-3 1.38-2.38 4-1.15 5.84 1.23 1.83 3.55 3.17 5.84 1.15 2.29-2.01 2.45-3.9 1.15-5.84-1.29-1.92-2.83-2.52-5.84-1.15"/>
    <path fill="#00BCE4" d="M1169.93 191.69c-3 1.38-2.38 4-1.15 5.84 1.23 1.83 3.55 3.17 5.84 1.15 2.29-2.01 2.45-3.9 1.15-5.84-1.3-1.92-2.84-2.53-5.84-1.15"/>
    <path fill="#00BCE4" d="M1017.94 39.58c-3 1.37-2.38 4-1.15 5.84 1.23 1.83 3.55 3.16 5.84 1.15 2.29-2.01 2.45-3.9 1.15-5.84-1.3-1.92-2.84-2.52-5.84-1.15"/>
    <path fill="#00BCE4" d="M1021.79 106.24c-3 1.38-2.38 4-1.15 5.84 1.23 1.83 3.55 3.17 5.84 1.15 2.29-2.01 2.45-3.9 1.15-5.84s-2.84-2.53-5.84-1.15"/>
    <path fill="#00BCE4" d="M1043.42 49.09c-3 1.38-2.38 4-1.15 5.84 1.23 1.83 3.55 3.17 5.84 1.15 2.29-2.01 2.44-3.9 1.15-5.84-1.3-1.93-2.84-2.52-5.84-1.15"/>
    <path fill="#00BCE4" d="M1239.81 186.58c-3 1.38-2.38 4-1.15 5.84 1.23 1.83 3.55 3.16 5.84 1.15 2.29-2.01 2.45-3.9 1.15-5.84-1.29-1.92-2.84-2.52-5.84-1.15"/>
    <path fill="#00BCE4" d="M1045.8 120.53c-3 1.38-2.38 4-1.15 5.84 1.23 1.83 3.55 3.17 5.84 1.15 2.29-2.01 2.44-3.9 1.15-5.84-1.3-1.93-2.84-2.53-5.84-1.15"/>
    <path fill="#00BCE4" d="M1047.61 97.99c-3 1.38-2.38 4-1.15 5.84 1.23 1.83 3.55 3.17 5.84 1.15 2.29-2.01 2.45-3.9 1.15-5.84-1.3-1.93-2.84-2.53-5.84-1.15"/>
    <path fill="#00BCE4" d="M1054.69 141.95c-3 1.38-2.38 4-1.15 5.84 1.23 1.83 3.55 3.17 5.84 1.15 2.29-2.01 2.45-3.9 1.15-5.84-1.3-1.92-2.84-2.52-5.84-1.15"/>
    <path fill="#00BCE4" d="M951.97 2.81c-3 1.38-2.38 4-1.15 5.84 1.23 1.83 3.55 3.17 5.84 1.15 2.29-2.01 2.45-3.9 1.15-5.84-1.3-1.93-2.84-2.53-5.84-1.15"/>
    <path fill="#00BCE4" d="M1233.64 165.02c-3 1.38-2.38 4-1.15 5.84 1.23 1.83 3.55 3.17 5.84 1.15 2.29-2.01 2.44-3.9 1.15-5.84-1.3-1.93-2.84-2.53-5.84-1.15"/>
    <path fill="#00BCE4" d="M1262.18 162.06c-3 1.38-2.38 4-1.15 5.84 1.23 1.83 3.55 3.16 5.84 1.15 2.29-2.01 2.45-3.9 1.15-5.84-1.3-1.92-2.84-2.52-5.84-1.15"/>
    <path fill="#00BCE4" d="M1093.12 90.87c-3 1.38-2.38 4-1.15 5.84 1.23 1.83 3.55 3.16 5.84 1.15 2.29-2.01 2.45-3.9 1.15-5.84-1.3-1.93-2.84-2.53-5.84-1.15"/>
    <path fill="#00BCE4" d="M1096.99 141.44c-3 1.38-2.38 4-1.15 5.84 1.23 1.83 3.55 3.17 5.84 1.15 2.29-2.01 2.45-3.9 1.15-5.84-1.3-1.93-2.84-2.53-5.84-1.15"/>
    <path fill="#00BCE4" d="M1060.7 193.01c-3 1.38-2.38 4-1.15 5.84 1.23 1.83 3.55 3.17 5.84 1.15 2.29-2.01 2.45-3.9 1.15-5.84-1.3-1.92-2.83-2.52-5.84-1.15"/>
    <path fill="#00BCE4" d="M970.59 71.74c-3 1.38-2.38 4-1.15 5.84 1.23 1.83 3.55 3.17 5.84 1.15 2.29-2.01 2.45-3.9 1.15-5.84-1.3-1.92-2.84-2.52-5.84-1.15"/>
    <path fill="#00BCE4" d="M1076.42 153.02c-3 1.38-2.38 4-1.15 5.84 1.23 1.83 3.55 3.17 5.84 1.15 2.29-2.01 2.45-3.9 1.15-5.84-1.3-1.92-2.84-2.52-5.84-1.15"/>
    <path fill="#00BCE4" d="M1144.3 194.8c-3 1.38-2.38 4-1.15 5.84 1.23 1.83 3.55 3.17 5.84 1.15 2.29-2.01 2.45-3.9 1.15-5.84-1.29-1.93-2.83-2.53-5.84-1.15"/>
    <path fill="#00BCE4" d="M1048.23 164.2c-3 1.38-2.38 4-1.15 5.84 1.23 1.83 3.55 3.16 5.84 1.15 2.29-2.01 2.45-3.9 1.15-5.84-1.3-1.93-2.84-2.53-5.84-1.15"/>
    <path fill="#00BCE4" d="M1037.52 3.18c-3 1.38-2.38 4-1.15 5.84 1.23 1.83 3.55 3.16 5.84 1.15 2.29-2.01 2.45-3.9 1.15-5.84s-2.84-2.53-5.84-1.15"/>
    <path fill="#00BCE4" d="M1116.66 124.35c-3 1.38-2.38 4-1.15 5.84 1.23 1.83 3.55 3.16 5.84 1.15s2.45-3.9 1.15-5.84c-1.29-1.93-2.83-2.53-5.84-1.15"/>
    <path fill="#00BCE4" d="M1119.36 151.61c-3 1.38-2.38 4-1.15 5.84 1.23 1.83 3.55 3.17 5.84 1.15 2.29-2.01 2.45-3.9 1.15-5.84-1.3-1.93-2.84-2.53-5.84-1.15"/>
    <path fill="#00BCE4" d="M991.95 62.39c-3 1.38-2.38 4-1.15 5.84 1.23 1.83 3.55 3.16 5.84 1.15 2.29-2.01 2.45-3.9 1.15-5.84-1.3-1.93-2.84-2.53-5.84-1.15"/>
    <path fill="#00BCE4" d="M1068.97 94.52c-3 1.38-2.38 4-1.15 5.84 1.23 1.83 3.55 3.17 5.84 1.15 2.29-2.01 2.45-3.9 1.15-5.84s-2.84-2.53-5.84-1.15"/>
    <path fill="#00BCE4" d="M1033.53 184.51c-3 1.38-2.38 4-1.15 5.84 1.23 1.83 3.55 3.17 5.84 1.15 2.29-2.01 2.45-3.9 1.15-5.84-1.3-1.92-2.83-2.52-5.84-1.15"/>
    <path fill="#00BCE4" d="M1068.33 39.11c-3 1.38-2.38 4-1.15 5.84 1.23 1.83 3.55 3.17 5.84 1.15 2.29-2.01 2.45-3.9 1.15-5.84-1.29-1.93-2.84-2.53-5.84-1.15"/>
    <path fill="#00BCE4" d="M1265.53 184.36c-3 1.38-2.38 4-1.15 5.84 1.23 1.83 3.55 3.17 5.84 1.15 2.29-2.01 2.45-3.9 1.15-5.84-1.3-1.93-2.84-2.53-5.84-1.15"/>
    <path fill="#00BCE4" d="M1008.07 189.52c-3 1.38-2.38 4-1.15 5.84 1.23 1.83 3.55 3.17 5.84 1.15 2.29-2.01 2.45-3.9 1.15-5.84-1.3-1.92-2.84-2.52-5.84-1.15"/>
    <path fill="#00BCE4" d="M1073.32 176.65c-3 1.38-2.38 4-1.15 5.84 1.23 1.83 3.55 3.17 5.84 1.15 2.29-2.01 2.44-3.9 1.15-5.84-1.3-1.93-2.84-2.53-5.84-1.15"/>
    <path fill="#00BCE4" d="M972.38 16.91c-3 1.38-2.38 4-1.15 5.84 1.23 1.83 3.55 3.16 5.84 1.15 2.29-2.01 2.45-3.9 1.15-5.84-1.29-1.92-2.83-2.52-5.84-1.15"/>
    <path fill="#00BCE4" d="M1098.63 170.08c-3 1.38-2.38 4-1.15 5.84 1.23 1.83 3.55 3.16 5.84 1.15s2.45-3.9 1.15-5.84c-1.3-1.92-2.84-2.52-5.84-1.15"/>
    <path fill="#00BCE4" d="M993.74 34.87c-3 1.38-2.38 4-1.15 5.84 1.23 1.83 3.55 3.17 5.84 1.15 2.29-2.01 2.44-3.9 1.15-5.84-1.29-1.92-2.83-2.52-5.84-1.15"/>
    <path fill="#00BCE4" d="M950.43 30.27c-3 1.37-2.38 4-1.15 5.84 1.23 1.83 3.55 3.16 5.84 1.15 2.29-2.01 2.45-3.9 1.15-5.84s-2.84-2.53-5.84-1.15"/>
    <path fill="#00BCE4" d="M999.03 151.94c-3 1.38-2.38 4-1.15 5.84 1.23 1.83 3.55 3.17 5.84 1.15 2.29-2.01 2.44-3.9 1.15-5.84-1.3-1.93-2.83-2.53-5.84-1.15"/>
    <path fill="#00BCE4" d="M1078.06 67.6c-3 1.38-2.38 4-1.15 5.84 1.23 1.83 3.55 3.17 5.84 1.15 2.29-2.01 2.45-3.9 1.15-5.84-1.3-1.93-2.84-2.53-5.84-1.15"/>
    <path fill="#00BCE4" d="M1011.39 130.31c-3 1.38-2.38 4-1.15 5.84 1.23 1.83 3.55 3.16 5.84 1.15 2.29-2.01 2.45-3.9 1.15-5.84-1.29-1.93-2.84-2.53-5.84-1.15"/>
    <path fill="#00BCE4" d="M984.67 98.6c-3 1.38-2.38 4-1.15 5.84 1.23 1.83 3.55 3.17 5.84 1.15 2.29-2.01 2.45-3.9 1.15-5.84-1.3-1.92-2.84-2.53-5.84-1.15"/>
    <path fill="#00BCE4" d="M1018.98 165.84c-3 1.38-2.38 4-1.15 5.84 1.23 1.83 3.55 3.17 5.84 1.15 2.29-2.01 2.45-3.9 1.15-5.84-1.29-1.93-2.83-2.53-5.84-1.15"/>
    <path fill="#00BCE4" d="M1063.97 13.04c-3 1.38-2.38 4-1.15 5.84 1.23 1.83 3.55 3.17 5.84 1.15 2.29-2.01 2.44-3.9 1.15-5.84-1.3-1.93-2.84-2.53-5.84-1.15"/>
    <path fill="#00BCE4" d="M1093.06 113.94c-3 1.38-2.38 4-1.15 5.84 1.23 1.83 3.55 3.17 5.84 1.15 2.29-2.01 2.45-3.9 1.15-5.84-1.3-1.93-2.84-2.53-5.84-1.15"/>
    <path fill="#00BCE4" d="M1145.4 158.07c-3 1.38-2.38 4-1.15 5.84 1.23 1.83 3.55 3.17 5.84 1.15 2.29-2.01 2.45-3.9 1.15-5.84-1.29-1.93-2.84-2.53-5.84-1.15"/>
    <path fill="#00BCE4" d="M1032.11 79.98c-3 1.38-2.38 4-1.15 5.84 1.23 1.83 3.55 3.17 5.84 1.15 2.29-2.01 2.45-3.9 1.15-5.84s-2.84-2.53-5.84-1.15"/>
    <path fill="#00BCE4" d="M1110.88 189.77c-3 1.38-2.38 4-1.15 5.84 1.23 1.83 3.55 3.16 5.84 1.15 2.29-2.01 2.45-3.9 1.15-5.84-1.3-1.92-2.84-2.52-5.84-1.15"/>
    <path fill="#00BCE4" d="M1029.03 143.17c-3 1.38-2.38 4-1.15 5.84 1.23 1.83 3.55 3.17 5.84 1.15 2.29-2.01 2.45-3.9 1.15-5.84-1.29-1.93-2.83-2.53-5.84-1.15"/>
    <path fill="#00BCE4" d="M1283.6 154.15c-3 1.38-2.38 4-1.15 5.84 1.23 1.83 3.55 3.16 5.84 1.15s2.45-3.9 1.15-5.84c-1.3-1.92-2.84-2.52-5.84-1.15"/>
    <path fill="#00BCE4" d="M1040.4 25.73c-3 1.38-2.38 4-1.15 5.84 1.23 1.83 3.55 3.17 5.84 1.15 2.29-2.01 2.45-3.9 1.15-5.84-1.3-1.93-2.84-2.53-5.84-1.15"/>
    <path fill="#00BCE4" d="M1018.18 61.77c-3 1.37-2.38 4-1.15 5.84 1.23 1.83 3.55 3.16 5.84 1.15 2.29-2.01 2.44-3.9 1.15-5.84-1.3-1.92-2.84-2.53-5.84-1.15"/>
    <path fill="#00BCE4" d="M1129.97 174.58c-3 1.38-2.38 4-1.15 5.84 1.23 1.83 3.55 3.17 5.84 1.15 2.29-2.01 2.45-3.9 1.15-5.84-1.29-1.93-2.83-2.53-5.84-1.15"/>
    <path fill="#00BCE4" d="M1013.39 15c-3 1.37-2.38 4-1.15 5.84 1.23 1.83 3.55 3.16 5.84 1.15 2.29-2.01 2.45-3.9 1.15-5.84s-2.84-2.52-5.84-1.15"/>
    <path fill="#00BCE4" d="M1055.57 68.01c-3 1.38-2.38 4-1.15 5.84 1.23 1.83 3.55 3.17 5.84 1.15 2.29-2.01 2.45-3.9 1.15-5.84-1.3-1.92-2.83-2.52-5.84-1.15"/>
    <path fill="#00BCE4" d="M995.58 116.88c-3 1.38-2.38 4-1.15 5.84 1.23 1.83 3.55 3.17 5.84 1.15 2.29-2.01 2.45-3.9 1.15-5.84s-2.83-2.52-5.84-1.15"/>
    <path fill="#00BCE4" d="M1072.03 124.45c-3 1.38-2.38 4-1.15 5.84 1.23 1.83 3.55 3.17 5.84 1.15 2.29-2.01 2.45-3.9 1.15-5.84-1.29-1.93-2.84-2.53-5.84-1.15"/>
    <path fill="#00BCE4" d="M236.45 205.42h757.94c-.35-70.97-24.69-141.77-58.49-207.33H166.61a708.73 708.73 0 0 0 21.88 89.14c12.3 38.9 27.44 80.32 47.96 118.19z"/>
    <path fill="#F1931C" d="M492.76 202.27A1316.96 1316.96 0 0 1 465 169.3C419.88 113.75 375.16 57.34 321.7 9.43a634.7 634.7 0 0 0-12.99-11.34H-2v204.18h494.76z"/>
    <path fill="#8DC63F" d="M1919.68 201V-1.58h-846.42c27.18 73.33 59.83 142.16 99.23 202.59h747.19z"/>
    <path fill="#048162" d="M1181.12 33.68c-.06-.74.7-1.03 1.56-1.09.33-.03 5.1-.18 6.6-.37 2.29-.3 10.2-.89 10.73-.93.88-.07 2.02.27 2.06.82.04.55-.7 1.03-1.92 1.12-.97.07-6.81.4-8.12.5-.98.07-2.01.26-2.99.33l-6.22.47c-.61.05-1.64-.11-1.7-.85"/>
    <path fill="#048162" d="M1460.18 29.87c.57.48.24 1.22-.31 1.88-.22.26-2.42 2.57-3.33 3.78-1.39 1.85-7.9 9.6-8.24 10-.56.67-1.61 1.25-2.03.9-.42-.36-.25-1.22.53-2.15.63-.75 4.47-5.15 5.32-6.16.63-.75 2.63-3.29 3.26-4.05l3-3.57c.4-.48 1.23-1.1 1.8-.63"/>
    <path fill="#048162" d="M1242.16 190.25c-.68.3-1.21-.33-1.55-1.11-.13-.31-1.85-4.76-2.53-6.11a361.56 361.56 0 0 1-4.52-10.08c-.35-.8-.4-1.99.1-2.21.5-.22 1.2.32 1.69 1.43.39.9 1.86 4.54 2.38 5.74.39.91 1.79 3.82 2.18 4.72l2.49 5.72c.25.58.44 1.6-.24 1.9"/>
    <path fill="#048162" d="M1480.76 166.14c.09.74-.65 1.07-1.5 1.18-.33.04-5.09.44-6.58.71-2.28.41-8.44 1.2-8.96 1.26-.87.11-2.03-.17-2.1-.72-.07-.54.64-1.06 1.85-1.22.97-.12 5.08-.53 6.39-.7.97-.12 1.99-.36 2.97-.49l6.18-.79c.63-.07 1.66.03 1.75.77"/>
    <path fill="#048162" d="M1234.15 31.95c-.6-.44-.32-1.21.19-1.9.2-.27 3.2-3.99 4.03-5.25 1.27-1.93 5.99-8.3 6.31-8.73.52-.7 1.52-1.35 1.97-1.02.44.33.33 1.2-.4 2.18-.59.78-4.15 5.42-4.93 6.48-.59.79-1.11 1.69-1.7 2.48l-3.71 5.02c-.37.51-1.16 1.18-1.76.74"/>
    <path fill="#048162" d="M1298.96 13.16c.31.68-.31 1.21-1.09 1.56-.31.14-4.73 1.93-6.07 2.63a360.96 360.96 0 0 1-9.76 4.56c-.8.36-1.99.43-2.22-.07-.23-.5.3-1.21 1.41-1.71.89-.4 6.26-2.72 7.46-3.26.9-.41 1.8-.94 2.69-1.35l5.68-2.58c.57-.25 1.59-.46 1.9.22"/>
    <path fill="#048162" d="M1333.6 176.27c.71-.22 1.16.46 1.41 1.28.1.32.32 1.7.83 3.12.8 2.17 3.79 11.84 3.94 12.35.26.84.18 2.03-.34 2.19-.53.16-1.16-.45-1.52-1.62-.28-.93-1.91-6.55-2.29-7.81-.29-.94-1.35-3.99-1.64-4.94l-.84-2.72c-.18-.59-.26-1.63.45-1.85"/>
    <path fill="#048162" d="M1378.94 160.83c.6.44.34 1.2-.17 1.9-.19.27-3.14 4.03-3.96 5.3-1.25 1.95-5.87 8.38-6.18 8.82-.51.71-1.51 1.37-1.95 1.05-.45-.32-.34-1.2.37-2.19.57-.8 4.07-5.48 4.84-6.55.57-.8 1.09-1.71 1.67-2.51l3.64-5.07c.36-.5 1.14-1.19 1.74-.75"/>
    <path fill="#048162" d="M1537.05 181.47c.14-.73.95-.81 1.79-.65.33.06 1.65.52 3.14.72 2.29.32 12.23 2.21 12.75 2.31.86.17 1.87.79 1.78 1.33-.11.54-.94.81-2.14.59-.96-.18-6.69-1.39-7.97-1.63-.97-.19-4.16-.68-5.13-.87l-2.8-.53c-.61-.12-1.56-.54-1.42-1.27"/>
    <path fill="#048162" d="M1428.88 132.21c-.18-.72.53-1.13 1.36-1.33.33-.08 3.48-.64 4.93-1.07 2.22-.66 12.05-3.04 12.57-3.16.85-.21 2.04-.05 2.16.48.13.53-.52 1.13-1.71 1.41-.95.23-6.65 1.5-7.93 1.81-.96.23-4.07 1.1-5.03 1.33a823.7 823.7 0 0 0-4.53 1.1c-.61.14-1.64.15-1.82-.57"/>
    <path fill="#048162" d="M1364.64 37.25c.74.1.86.9.75 1.76-.05.33-.89 5.03-1.01 6.54-.19 2.31-1.23 9.96-1.3 10.49-.12.87-.69 1.92-1.23 1.84-.55-.07-.86-.9-.7-2.1.13-.97 1-6.55 1.18-7.85.13-.97.17-2.02.3-2.99l.84-6.18c.07-.64.43-1.61 1.17-1.51"/>
    <path fill="#048162" d="M1375-11.67c.68-.3 1.2.33 1.54 1.12.13.31 1.84 4.76 2.51 6.12 1.03 2.07 4.27 9.6 4.48 10.09.35.8.39 1.99-.11 2.21-.5.22-1.2-.32-1.68-1.44-.39-.9-1.84-4.55-2.36-5.75-.39-.91-1.77-3.83-2.16-4.73l-2.46-5.73c-.25-.57-.45-1.59.24-1.89"/>
    <path fill="#048162" d="M1521.17 140.71c-.66.35-1.23-.23-1.63-.99-.16-.3-1.48-3.22-2.25-4.51-1.19-1.99-5.91-10.93-6.16-11.4-.41-.78-.55-1.96-.07-2.22.49-.26 1.22.23 1.79 1.3.46.86 3.09 6.08 3.7 7.24.46.87 2.07 3.68 2.53 4.55l2.18 4.12c.3.56.57 1.56-.09 1.91"/>
    <path fill="#048162" d="M1412.9 162.52c.6-.44 1.25.05 1.76.75.2.27 2.85 4.24 3.8 5.41 1.46 1.8 6.13 8.2 6.45 8.63.51.71.83 1.86.39 2.19-.45.32-1.24-.05-1.96-1.04-.58-.79-3.94-5.58-4.71-6.64-.58-.79-1.28-1.57-1.86-2.37l-3.68-5.04c-.38-.49-.79-1.45-.19-1.89"/>
    <path fill="#048162" d="M1415.99 28.2c.53.52.16 1.24-.45 1.85-.23.24-3.71 3.51-4.71 4.65-1.53 1.73-7.26 7.6-7.63 7.98-.61.63-1.69 1.13-2.09.75-.39-.38-.16-1.23.69-2.11.68-.7 3.51-3.43 4.42-4.37.69-.7 2.87-3.09 3.56-3.8l4.36-4.46c.44-.45 1.32-1.01 1.85-.49"/>
    <path fill="#048162" d="M1333.41 53.64c-.71.21-1.15-.48-1.39-1.3-.09-.32-1.22-4.96-1.71-6.39-.75-2.19-2.94-9.8-3.09-10.32-.24-.84-.15-2.03.38-2.18.53-.15 1.15.47 1.49 1.65.27.94 1.78 6.59 2.14 7.85.27.94.66 1.91.94 2.86l1.72 6c.18.59.24 1.62-.48 1.83"/>
    <path fill="#048162" d="M1299.5 196.25c-.55.5-1.24.09-1.83-.54-.23-.25-1.02-1.4-2.09-2.45-1.65-1.62-8.5-9.07-8.87-9.46-.59-.64-1.03-1.75-.63-2.12.4-.37 1.24-.09 2.06.8.66.72 4.54 5.1 5.43 6.06.67.72 2.93 3.03 3.6 3.75l1.93 2.1c.43.45.94 1.35.4 1.86"/>
    <path fill="#048162" d="M1438.67 83.56c.03-.74.81-.94 1.67-.91.34.02 5.1.4 6.61.37 2.31-.03 10.23.27 10.77.3.88.03 1.97.5 1.95 1.05s-.81.94-2.03.9c-.97-.04-6.81-.37-8.13-.42-.98-.04-2.02.03-3.01-.01l-6.23-.24c-.63-.02-1.63-.29-1.6-1.04"/>
    <path fill="#048162" d="M1494.01 196.21c.41-.62 1.19-.39 1.91.08.28.19 4.16 2.97 5.46 3.73 2 1.17 7.19 4.57 7.64 4.86.73.48 1.43 1.44 1.13 1.91-.3.46-1.18.39-2.2-.27-.82-.54-4.21-2.89-5.31-3.61-.82-.54-1.75-1.01-2.57-1.56l-5.22-3.42c-.53-.35-1.25-1.1-.84-1.72"/>
    <path fill="#048162" d="M1484.73 105.75c.71.2.72 1.02.49 1.84-.09.32-1.57 4.86-1.91 6.33-.51 2.26-2.65 9.89-2.8 10.4-.23.84-.95 1.8-1.48 1.66-.53-.15-.73-1.01-.4-2.18.26-.94 1.95-6.54 2.31-7.81.26-.94.44-1.97.7-2.93l1.69-6c.19-.6.69-1.51 1.4-1.31"/>
    <path fill="#F1931C" d="M1638.53 202.8h282.16V98.12c-43.4-29.46-89.04-56.18-135.96-79.07-16-7.81-32.33-15.61-48.93-23.01h-256.38c-19.25 35.45-8.11 76.57 17.05 105.82 37.28 43.36 91.11 76.02 142.06 100.94z"/>
    <rect width="971.61" height="92.07" x="474.04" y="53.97" fill="#F9A01B"/>
    <g fill="#FFF">
      <path d="m538.62 116.38-5-23.14h-.1l-5.14 23.14h-6.62l-8.81-34.19h7l5.19 24.19h.1l5.19-24.19H537l4.76 23.95h.09l5.57-23.95h6.67l-9.05 34.19h-6.42z"/>
      <path d="m584.09 116.38-2.48-9h-11.05l-2.48 9h-6.62l10.29-34.19h8.91L591 116.38h-6.91zm-12-14.47h8l-3.95-14.29h-.1l-3.95 14.29z"/>
      <path d="m624.43 116.38-14.48-25h-.1v25h-6.19V82.19h8.14l12.86 22.86h.1V82.19h6.14v34.19h-6.47z"/>
      <path d="M653.14 116.38V87.71h-9.24v-5.52H669v5.52h-9.29v28.67h-6.57z"/>
      <path d="M728.42 116.38V90.43h-.09l-7.76 25.95h-5.48l-7.81-25.95h-.1v25.95h-6.05V82.19h9.14l7.43 25.57h.1l7.71-25.57h9.05v34.19h-6.14z"/>
      <path d="M748.47 99.29c0-9.1 4.19-17.67 14.57-17.67 10.43 0 14.57 8.57 14.57 17.67 0 10.67-5.14 17.67-14.57 17.67-9.38 0-14.57-7.01-14.57-17.67zm22.62 0c0-7.81-2.86-12.43-8.05-12.43s-8 4.62-8 12.43c0 7.76 2.76 12.33 8 12.33s8.05-4.57 8.05-12.33z"/>
      <path d="m810.71 116.38-6.24-13.72h-6.38v13.72h-6.57V82.19h11.67c9.05 0 13.29 3.33 13.29 9.86 0 4.48-2.33 7.33-5.95 8.81l7.48 15.52h-7.3zm-7.48-19.05c2.48 0 6.62-.48 6.62-4.86 0-4.24-3.43-4.76-6.29-4.76h-5.48v9.62h5.15z"/>
      <path d="M831.23 116.38V82.19h22.1v5.52H837.8v8.38h11.1v5.33h-11.1v9.43h16.05v5.52h-22.62z"/>
      <path d="M911.85 106.38c-2.33 8.38-7.33 10.57-13.57 10.57-9.05 0-13.86-6.62-13.86-17.95 0-11.1 5.52-17.38 14.29-17.38 6.91 0 11.05 3.1 12.67 10.38l-6.1 1.14c-1.19-4.48-3.43-6.1-6.67-6.1-4.71 0-7.62 4.29-7.62 11.95 0 8.43 2.52 12.43 7.48 12.43 3.29 0 5.91-1.76 7.14-6.48l6.24 1.44z"/>
      <path d="M945.66 116.38v-14.72h-13.91v14.72h-6.62V82.19h6.62v13.62h13.91V82.19h6.57v34.19h-6.57z"/>
      <path d="m987.56 116.38-2.48-9h-11.05l-2.48 9h-6.62l10.29-34.19h8.91l10.33 34.19h-6.9zm-12-14.47h8l-3.95-14.29h-.1l-3.95 14.29z"/>
      <path d="m1027.89 116.38-14.48-25h-.1v25h-6.19V82.19h8.14l12.86 22.86h.1V82.19h6.14v34.19h-6.47z"/>
      <path d="M1075.7 106.38c-2.33 8.38-7.33 10.57-13.57 10.57-9.05 0-13.86-6.62-13.86-17.95 0-11.1 5.52-17.38 14.29-17.38 6.91 0 11.05 3.1 12.67 10.38l-6.1 1.14c-1.19-4.48-3.43-6.1-6.67-6.1-4.71 0-7.62 4.29-7.62 11.95 0 8.43 2.52 12.43 7.48 12.43 3.29 0 5.91-1.76 7.14-6.48l6.24 1.44z"/>
      <path d="M1088.98 116.38V82.19h22.1v5.52h-15.53v8.38h11.1v5.33h-11.1v9.43h16.05v5.52h-22.62z"/>
      <path d="M1141.41 91.48c-1.24-3.14-3.19-4.62-6.38-4.62-2.95 0-5.14 1.48-5.14 4.1 0 6.95 17.91 3.05 17.91 15.62 0 6.81-5.14 10.38-12.48 10.38-6.62 0-10.71-2.62-12.81-9.1l6.1-1.9c.95 3.67 3.05 5.67 7.1 5.67 3.43 0 5.91-1.57 5.91-4.57 0-7.52-18.05-3.33-18.05-16.05 0-5.71 4.76-9.38 11.38-9.38 6.19 0 10.1 2.48 12 7.86l-5.54 1.99z"/>
      <path d="M1187.36 116.38V87.71h-9.24v-5.52h25.1v5.52h-9.29v28.67h-6.57z"/>
      <path d="M1212.88 99.29c0-9.1 4.19-17.67 14.57-17.67 10.43 0 14.57 8.57 14.57 17.67 0 10.67-5.14 17.67-14.57 17.67-9.38 0-14.57-7.01-14.57-17.67zm22.62 0c0-7.81-2.86-12.43-8.05-12.43-5.19 0-8 4.62-8 12.43 0 7.76 2.76 12.33 8 12.33s8.05-4.57 8.05-12.33z"/>
      <path d="m1297.17 116.38-5-23.14h-.1l-5.14 23.14h-6.62l-8.81-34.19h7l5.19 24.19h.1l5.19-24.19h6.57l4.76 23.95h.1l5.57-23.95h6.67l-9.05 34.19h-6.43z"/>
      <path d="M1324.55 116.38V82.19h6.57v34.19h-6.57z"/>
      <path d="m1367.69 116.38-14.48-25h-.1v25h-6.19V82.19h8.14l12.86 22.86h.1V82.19h6.14v34.19h-6.47z"/>
      <path d="M1392.64 104.57v-2.33c0-5.38 6.33-7.76 6.33-12.67 0-1.86-1.19-3.05-3.1-3.05-1.95 0-3.14 1.05-4.14 3.48l-5.05-1.71c1.52-4.81 5.14-6.67 9.81-6.67 5.57 0 8.71 2.95 8.71 7.67 0 6.43-7.76 9.52-7.76 13.52v1.76h-4.8zm-1 11.81v-6.81h6.81v6.81h-6.81z"/>
    </g>
    <rect width="2.82" height="0" x="308.45" y="545.76" fill="none"/>
  </g>
</svg>
