<svg xmlns="http://www.w3.org/2000/svg" width="51" height="51" viewBox="0 0 51 51">
  <g id="Layer_1-2" stroke-width="0">
    <circle cx="25.5" cy="25.5" r="25.5"/>
    <path fill="#f8ef2b" d="M18.91 26.41h3.05v12.57c0 .25.2.45.45.45h5.18c.25 0 .45-.2.45-.45V26.47h3.51c.23 0 .42-.17.45-.4l.53-4.63a.5.5 0 0 0-.11-.35.45.45 0 0 0-.34-.15h-4.04v-2.9c0-.87.47-1.32 1.4-1.32h2.64c.25 0 .45-.2.45-.45v-4.25c0-.25-.2-.45-.45-.45h-3.81c-.63 0-2.83.12-4.57 1.72a4.78 4.78 0 0 0-1.59 4.26v3.39H18.9c-.25 0-.45.2-.45.45v4.57c0 .25.2.45.45.45Z"/>
  </g>
</svg>
