{
	"asset":{
		"generator":"Khronos glTF Blender I/O v4.0.44",
		"version":"2.0"
	},
	"scene":0,
	"scenes":[
		{
			"name":"Scene",
			"nodes":[
				0
			]
		}
	],
	"nodes":[
		{
			"mesh":0,
			"name":"can"
		}
	],
	"materials":[
		{
			"doubleSided":true,
			"name":"aluminium",
			"pbrMetallicRoughness":{
				"baseColorTexture":{
					"index":0
				},
				"metallicRoughnessTexture":{
					"index":1
				}
			}
		}
	],
	"meshes":[
		{
			"name":"Mesh",
			"primitives":[
				{
					"attributes":{
						"POSITION":0,
						"NORMAL":1,
						"TEXCOORD_0":2
					},
					"indices":3,
					"material":0
				}
			]
		}
	],
	"textures":[
		{
			"sampler":0,
			"source":0
		},
		{
			"sampler":0,
			"source":1
		}
	],
	"images":[
		{
			"mimeType":"image/jpeg",
			"name":"default",
			"uri":"default.jpg"
		},
		{
			"mimeType":"image/png",
			"name":"can_metall",
			"uri":"can_metall.png"
		}
	],
	"accessors":[
		{
			"bufferView":0,
			"componentType":5126,
			"count":267196,
			"max":[
				0.028249097988009453,
				0.15959787368774414,
				0.02834261767566204
			],
			"min":[
				-0.028277482837438583,
				1.492921819590265e-05,
				-0.028183965012431145
			],
			"type":"VEC3"
		},
		{
			"bufferView":1,
			"componentType":5126,
			"count":267196,
			"type":"VEC3"
		},
		{
			"bufferView":2,
			"componentType":5126,
			"count":267196,
			"type":"VEC2"
		},
		{
			"bufferView":3,
			"componentType":5125,
			"count":747732,
			"type":"SCALAR"
		}
	],
	"bufferViews":[
		{
			"buffer":0,
			"byteLength":3206352,
			"byteOffset":0,
			"target":34962
		},
		{
			"buffer":0,
			"byteLength":3206352,
			"byteOffset":3206352,
			"target":34962
		},
		{
			"buffer":0,
			"byteLength":2137568,
			"byteOffset":6412704,
			"target":34962
		},
		{
			"buffer":0,
			"byteLength":2990928,
			"byteOffset":8550272,
			"target":34963
		}
	],
	"samplers":[
		{
			"magFilter":9729,
			"minFilter":9987
		}
	],
	"buffers":[
		{
			"byteLength":11541200,
			"uri":"can.bin"
		}
	]
}
