<svg xmlns="http://www.w3.org/2000/svg" fill="none" viewBox="0 0 136 158">
  <g filter="url(#filter0_d_563_4005)">
    <path fill="#270002" d="m65 145-53-30.5v-61L65 23l53 30.5v61z"/>
    <path stroke="url(#paint0_linear_563_4005)" d="M12.5 53.79 65 23.576l52.5 30.212v60.422L65 144.424l-52.5-30.213z"/>
  </g>
  <path fill="#270002" stroke="url(#paint1_linear_563_4005)" d="M14.5 54.788 65 25.578l50.5 29.21v58.424L65 142.423l-50.5-29.211z"/>
  <g filter="url(#filter1_d_563_4005)">
    <path fill="url(#paint2_linear_563_4005)" d="M61.244 99.524q1.355 0 2.062.942.765.943.766 2.298 0 1.355-1.12 2.297-1.118.942-2.474.943-1.295 0-2.061-.943-.707-.942-.707-2.238t1.12-2.298q1.118-1.001 2.414-1.001m.59-5.184-1.768.117-.707-7.775q3.771-1.59 8.07-5.067a15.1 15.1 0 0 0 3.712-4.477q1.414-2.65 1.414-5.302 0-5.302-7.305-5.302-3.416 0-5.537 1.296-2.121 1.238-2.121 3.476v.295H56.06L55 65.239q3.947-2.24 7.776-2.239 4.772 0 9.13 2.297 2.18 1.179 3.535 3.358t1.355 5.067q0 8.365-8.247 12.488l-.707.236q-.707.294-.883.412t-.884.471q-.648.295-.943.59-.236.235-.824.707a3.9 3.9 0 0 0-.825 1q-.295.531-.648 1.238-.766 1.355-1.001 3.476"/>
    <path stroke="url(#paint3_linear_563_4005)" d="M61.244 99.023c1.027 0 1.87.364 2.45 1.128l.108.138c.518.7.77 1.533.77 2.475 0 1.063-.449 1.965-1.298 2.679-.828.698-1.765 1.061-2.796 1.061-1.002 0-1.837-.374-2.45-1.128l-.005-.007-.006-.008c-.543-.723-.807-1.578-.807-2.539 0-1.029.453-1.924 1.286-2.67.822-.735 1.742-1.129 2.748-1.129ZM62.776 62.5q4.593.002 8.804 2.07l.56.286.004.001c1.533.829 2.775 2.01 3.722 3.535.959 1.541 1.43 3.324 1.43 5.33 0 2.874-.71 5.407-2.145 7.58-1.433 2.17-3.57 3.95-6.379 5.355l-.03.016-.035.012-.686.227c-.476.198-.716.317-.785.362-.149.1-.475.271-.937.502l-.009.005-.008.003c-.41.187-.661.354-.796.488-.176.176-.465.42-.851.73-.317.282-.551.573-.715.868q-.288.518-.638 1.218l-.006.01-.006.012c-.467.827-.788 1.915-.94 3.284l-.046.416-.417.029-1.767.117-.488.033-.044-.486-.707-7.776-.033-.364.337-.142c2.457-1.037 5.106-2.697 7.947-4.993a14.6 14.6 0 0 0 3.416-4.019l.174-.31c.908-1.704 1.353-3.39 1.353-5.063 0-1.639-.556-2.8-1.62-3.571-1.094-.794-2.796-1.23-5.185-1.23-2.219 0-3.965.42-5.276 1.222l-.01.006c-1.277.745-1.872 1.749-1.872 3.044v.794h-2.455l-.07-.418-1.06-6.363-.058-.344.304-.172c2.693-1.527 5.37-2.304 8.023-2.304Z"/>
  </g>
  <path fill="#700306" d="m65.356 114.707 11.648 11.649-11.648 11.648-11.648-11.648z"/>
  <path stroke="#000" d="m65.356 114.707 11.648 11.649-11.648 11.648-11.648-11.648z"/>
  <path stroke="url(#paint4_linear_563_4005)" d="M65.356 114.707h16.473v16.473H65.356z" transform="rotate(45 65.3555 114.707)"/>
  <path fill="#ffe481" d="M62.5 131a.97.97 0 0 1-.706-.293.97.97 0 0 1-.294-.707v-5q0-.412.294-.706A.96.96 0 0 1 62.5 124h.5v-1q0-1.038.731-1.768a2.4 2.4 0 0 1 1.769-.732 2.4 2.4 0 0 1 1.769.732q.732.732.731 1.768v1h.5q.412 0 .707.294a.96.96 0 0 1 .293.706v5q0 .412-.293.707a.96.96 0 0 1-.707.293zm3.707-2.793a.97.97 0 0 0 .293-.707.96.96 0 0 0-.293-.706.96.96 0 0 0-.707-.294.96.96 0 0 0-.706.294.97.97 0 0 0-.294.706q0 .411.294.707a.96.96 0 0 0 .706.293.98.98 0 0 0 .707-.293M64 124h3v-1q0-.625-.437-1.062a1.45 1.45 0 0 0-1.063-.438q-.625 0-1.062.438A1.44 1.44 0 0 0 64 123z"/>
  <defs>
    <linearGradient id="paint0_linear_563_4005" x1="65" x2="65" y1="23" y2="145" gradientUnits="userSpaceOnUse">
      <stop stop-color="#e34c53"/>
      <stop offset="1" stop-color="#c6601b"/>
    </linearGradient>
    <linearGradient id="paint1_linear_563_4005" x1="14" x2="130.756" y1="143" y2="42.07" gradientUnits="userSpaceOnUse">
      <stop stop-color="#ce7142"/>
      <stop offset=".325" stop-color="#fbe67b"/>
      <stop offset=".535" stop-color="#fcfbe7"/>
      <stop offset=".77" stop-color="#f7d14e"/>
      <stop offset="1" stop-color="#d4a041"/>
    </linearGradient>
    <linearGradient id="paint2_linear_563_4005" x1="65.357" x2="61.14" y1="48.931" y2="112.789" gradientUnits="userSpaceOnUse">
      <stop offset=".471" stop-color="#dc2b50"/>
      <stop offset=".663" stop-color="#76172b"/>
    </linearGradient>
    <linearGradient id="paint3_linear_563_4005" x1="47.939" x2="101.997" y1="118.302" y2="100.537" gradientUnits="userSpaceOnUse">
      <stop stop-color="#f2b739"/>
      <stop offset=".183" stop-color="#fad350"/>
      <stop offset=".361" stop-color="#ffffa3"/>
      <stop offset=".558" stop-color="#deb444"/>
      <stop offset=".76" stop-color="#f2b739"/>
      <stop offset="1" stop-color="#fcd551"/>
    </linearGradient>
    <linearGradient id="paint4_linear_563_4005" x1="65.356" x2="82.829" y1="114" y2="131.473" gradientUnits="userSpaceOnUse">
      <stop stop-color="#ce7142"/>
      <stop offset=".325" stop-color="#fbe67b"/>
      <stop offset=".535" stop-color="#fcfbe7"/>
      <stop offset=".77" stop-color="#f7d14e"/>
      <stop offset="1" stop-color="#d4a041"/>
    </linearGradient>
    <filter id="filter0_d_563_4005" width="142" height="158" x="-6" y="0" color-interpolation-filters="sRGB" filterUnits="userSpaceOnUse">
      <feFlood flood-opacity="0" result="BackgroundImageFix"/>
      <feColorMatrix in="SourceAlpha" result="hardAlpha" values="0 0 0 0 0 0 0 0 0 0 0 0 0 0 0 0 0 0 127 0"/>
      <feOffset dy="-5"/>
      <feGaussianBlur stdDeviation="9"/>
      <feComposite in2="hardAlpha" operator="out"/>
      <feColorMatrix values="0 0 0 0 0.678431 0 0 0 0 0.0235294 0 0 0 0 0.0509804 0 0 0 1 0"/>
      <feBlend in2="BackgroundImageFix" result="effect1_dropShadow_563_4005"/>
      <feBlend in="SourceGraphic" in2="effect1_dropShadow_563_4005" result="shape"/>
    </filter>
    <filter id="filter1_d_563_4005" width="31.898" height="53.004" x="49.898" y="58" color-interpolation-filters="sRGB" filterUnits="userSpaceOnUse">
      <feFlood flood-opacity="0" result="BackgroundImageFix"/>
      <feColorMatrix in="SourceAlpha" result="hardAlpha" values="0 0 0 0 0 0 0 0 0 0 0 0 0 0 0 0 0 0 127 0"/>
      <feOffset/>
      <feGaussianBlur stdDeviation="2"/>
      <feComposite in2="hardAlpha" operator="out"/>
      <feColorMatrix values="0 0 0 0 0 0 0 0 0 0 0 0 0 0 0 0 0 0 1 0"/>
      <feBlend in2="BackgroundImageFix" result="effect1_dropShadow_563_4005"/>
      <feBlend in="SourceGraphic" in2="effect1_dropShadow_563_4005" result="shape"/>
    </filter>
  </defs>
</svg>