<svg xmlns="http://www.w3.org/2000/svg" width="22" height="22" viewBox="0 0 22 22">
  <defs>
    <linearGradient id="linear-gradient" x1="-528.5" x2="-528.5" y1="249.99" y2="228.43" gradientTransform="translate(539 249.99) scale(1 -1)" gradientUnits="userSpaceOnUse">
      <stop offset="0" stop-color="#7f1a2d"/>
      <stop offset=".62" stop-color="#4d0e18"/>
      <stop offset="1" stop-color="#2f070c"/>
    </linearGradient>
    <linearGradient id="linear-gradient-2" x1="-528.5" x2="-528.5" y1="249.99" y2="228.43" gradientTransform="translate(539 249.99) scale(1 -1)" gradientUnits="userSpaceOnUse">
      <stop offset="0" stop-color="#fff"/>
      <stop offset="1" stop-color="#fff"/>
    </linearGradient>
  </defs>
  <path fill="url(#linear-gradient)" d="M12.65.5h.04l.02.05.4 2.82.04.28.26.11q.92.38 1.71 1l.23.18.27-.11 2.67-1.08h.03q.01 0 .02.02l2.16 3.72v.03l-.01.02-2.27 1.78-.23.18.04.28q.05.38.07.75v.25q0 .5-.07.97l-.04.29.23.18L20.49 14l.01.03v.03l-2.16 3.72-.02.02h-.03l-2.68-1.08-.27-.11-.23.17q-.79.6-1.71 1l-.26.11-.04.28-.4 2.83s0 .03-.02.03l-.04.01h-4.3l-.04-.01-.02-.03-.4-2.82-.04-.28-.26-.11-.23-.1a7 7 0 0 1-1.48-.9l-.23-.18-.27.11-2.68 1.07h-.03l-.02-.02-2.16-3.72v-.06l2.29-1.78.23-.18-.04-.29a8.07 8.07 0 0 1 0-1.97L3 9.48l-.23-.18L.5 7.52.49 7.5v-.03l2.16-3.72.02-.02h.03l2.68 1.08.26.11.23-.17q.8-.6 1.71-1l.26-.11.04-.28.4-2.83s0-.02.02-.03h.04l4.3-.01Zm2.1 10.28a4.27 4.27 0 0 0-4.25-4.25 4.2 4.2 0 0 0-3.93 2.63 4.2 4.2 0 0 0 .92 4.64 4.2 4.2 0 0 0 4.64.92 4.25 4.25 0 0 0 2.63-3.93Z"/>
  <path fill="none" stroke="url(#linear-gradient-2)" d="M12.65.5h.04l.02.05.4 2.82.04.28.26.11q.92.38 1.71 1l.23.18.27-.11 2.67-1.08h.03q.01 0 .02.02l2.16 3.72v.03l-.01.02-2.27 1.78-.23.18.04.28q.05.38.07.75v.25q0 .5-.07.97l-.04.29.23.18L20.49 14l.01.03v.03l-2.16 3.72-.02.02h-.03l-2.68-1.08-.27-.11-.23.17q-.79.6-1.71 1l-.26.11-.04.28-.4 2.83s0 .03-.02.03l-.04.01h-4.3l-.04-.01-.02-.03-.4-2.82-.04-.28-.26-.11-.23-.1a7 7 0 0 1-1.48-.9l-.23-.18-.27.11-2.68 1.07h-.03l-.02-.02-2.16-3.72v-.06l2.29-1.78.23-.18-.04-.29a8.07 8.07 0 0 1 0-1.97L3 9.48l-.23-.18L.5 7.52.49 7.5v-.03l2.16-3.72.02-.02h.03l2.68 1.08.26.11.23-.17q.8-.6 1.71-1l.26-.11.04-.28.4-2.83s0-.02.02-.03h.04l4.3-.01Zm2.1 10.28a4.27 4.27 0 0 0-4.25-4.25 4.2 4.2 0 0 0-3.93 2.63 4.2 4.2 0 0 0 .92 4.64 4.2 4.2 0 0 0 4.64.92 4.25 4.25 0 0 0 2.63-3.93Z"/>
  <path fill="none" stroke="#ffe481" d="M12.65.5h.04l.02.05.4 2.82.04.28.26.11q.92.38 1.71 1l.23.18.27-.11 2.67-1.08h.03q.01 0 .02.02l2.16 3.72v.03l-.01.02-2.27 1.78-.23.18.04.28q.05.38.07.75v.25q0 .5-.07.97l-.04.29.23.18L20.49 14l.01.03v.03l-2.16 3.72-.02.02h-.03l-2.68-1.08-.27-.11-.23.17q-.79.6-1.71 1l-.26.11-.04.28-.4 2.83s0 .03-.02.03l-.04.01h-4.3l-.04-.01-.02-.03-.4-2.82-.04-.28-.26-.11-.23-.1a7 7 0 0 1-1.48-.9l-.23-.18-.27.11-2.68 1.07h-.03l-.02-.02-2.16-3.72v-.06l2.29-1.78.23-.18-.04-.29a8.07 8.07 0 0 1 0-1.97L3 9.48l-.23-.18L.5 7.52.49 7.5v-.03l2.16-3.72.02-.02h.03l2.68 1.08.26.11.23-.17q.8-.6 1.71-1l.26-.11.04-.28.4-2.83s0-.02.02-.03h.04l4.3-.01Zm2.1 10.28a4.27 4.27 0 0 0-4.25-4.25 4.2 4.2 0 0 0-3.93 2.63 4.2 4.2 0 0 0 .92 4.64 4.2 4.2 0 0 0 4.64.92 4.25 4.25 0 0 0 2.63-3.93Z"/>
</svg>
