<svg xmlns="http://www.w3.org/2000/svg" fill="none" viewBox="0 0 124 35">
  <rect width="110" height="28" x="6.5" y="6.5" fill="url(#paint0_linear_563_3998)" rx="3.5"/>
  <rect width="110" height="28" x="6.5" y="6.5" stroke="url(#paint1_linear_563_3998)" rx="3.5"/>
  <g filter="url(#filter0_d_563_3998)">
    <path fill="#270002" d="M19.47 26v-9.8h1.148l4.396 7.406h-.616l4.34-7.406h1.148L29.9 26h-1.344l-.014-7.686h.322L25 24.81h-.644l-3.892-6.496h.35V26zm13.497 2.8q-.532 0-1.036-.182a2.4 2.4 0 0 1-.868-.504l.574-1.008q.28.266.616.406t.714.14q.49 0 .812-.252t.602-.896l.462-1.022.14-.168 2.912-6.734h1.316l-3.598 8.162q-.322.784-.728 1.232-.391.448-.868.63-.475.196-1.05.196m1.764-2.562-3.388-7.658h1.4l2.884 6.608zm8.31-.154q-1.12 0-1.736-.602t-.616-1.722v-6.804h1.344v6.748q0 .602.294.924.307.322.868.322.63 0 1.05-.35l.42.966a1.95 1.95 0 0 1-.742.392q-.42.126-.882.126m-3.612-6.398V18.58h4.732v1.106zM46.289 26V15.612h1.345v4.97l-.266-.532a2.58 2.58 0 0 1 1.12-1.134q.756-.405 1.764-.406.909 0 1.596.35.699.35 1.092 1.064.392.714.392 1.806V26h-1.344v-4.116q0-1.078-.532-1.624-.519-.546-1.47-.546-.715 0-1.246.28a1.96 1.96 0 0 0-.826.826q-.28.546-.28 1.358V26zm9.53 0v-7.42h1.344V26zm.672-8.848a.92.92 0 0 1-.658-.252.84.84 0 0 1-.252-.616q0-.378.252-.63a.92.92 0 0 1 .658-.252q.392 0 .644.252.266.239.266.602a.9.9 0 0 1-.252.644q-.252.252-.658.252m6.472 8.932q-1.134 0-2.03-.49a3.6 3.6 0 0 1-1.386-1.344q-.504-.855-.504-1.96t.504-1.96A3.5 3.5 0 0 1 60.933 19q.896-.49 2.03-.49 1.008 0 1.792.406.798.391 1.232 1.176l-1.022.658a2.2 2.2 0 0 0-.896-.798 2.4 2.4 0 0 0-1.12-.266q-.728 0-1.302.322a2.37 2.37 0 0 0-.91.91q-.336.574-.336 1.372t.336 1.386.91.91 1.302.322q.602 0 1.12-.252.532-.266.896-.812l1.022.644q-.435.77-1.232 1.19-.784.405-1.792.406m9.37-.084v-1.568l-.07-.294v-2.674q0-.855-.504-1.316-.49-.476-1.484-.476a3.8 3.8 0 0 0-1.288.224 3.2 3.2 0 0 0-1.064.574l-.56-1.008q.574-.462 1.372-.7a5.7 5.7 0 0 1 1.694-.252q1.526 0 2.352.742t.826 2.268V26zm-2.436.084q-.826 0-1.456-.28-.615-.28-.952-.77a2 2 0 0 1-.336-1.134q0-.601.28-1.092.294-.49.938-.784.658-.294 1.764-.294h2.352v.966h-2.296q-1.007 0-1.358.336-.35.336-.35.812 0 .546.434.882.434.322 1.204.322.756 0 1.316-.336.574-.336.826-.98l.266.924q-.266.659-.938 1.05-.671.378-1.694.378M76.094 26V15.612h1.344V26zm11.072.112a3.7 3.7 0 0 1-2.058-.588q-.895-.588-1.428-1.708-.518-1.12-.518-2.716t.518-2.716q.532-1.12 1.428-1.708a3.7 3.7 0 0 1 2.058-.588q1.135 0 2.044.588.91.588 1.428 1.708.519 1.12.518 2.716 0 1.596-.518 2.716-.517 1.12-1.428 1.708a3.7 3.7 0 0 1-2.044.588m0-1.246q.771 0 1.344-.42.589-.42.91-1.26.336-.84.336-2.086t-.336-2.086q-.321-.84-.91-1.26-.573-.42-1.344-.42-.77 0-1.358.42t-.924 1.26q-.322.84-.322 2.086t.322 2.086q.336.84.924 1.26t1.358.42m3.997 2.534 4.62-13.188H97L92.38 27.4zm9.828-1.288q-1.302 0-2.226-.574t-1.414-1.652q-.476-1.092-.476-2.66 0-1.666.588-2.814t1.638-1.736 2.408-.588q.7 0 1.33.14.644.14 1.106.434l-.532 1.092a2.3 2.3 0 0 0-.868-.364 5 5 0 0 0-1.008-.098q-1.498 0-2.38.938-.882.924-.882 2.758 0 .294.028.7.029.406.14.798l-.476-.476q.21-.645.658-1.078a2.8 2.8 0 0 1 1.092-.658q.644-.224 1.386-.224.98 0 1.736.364t1.19 1.036q.434.658.434 1.568 0 .938-.462 1.638a3.04 3.04 0 0 1-1.246 1.078q-.784.378-1.764.378m-.056-1.134q.644 0 1.12-.238a1.9 1.9 0 0 0 .77-.658q.28-.434.28-1.008 0-.868-.602-1.372-.601-.518-1.638-.518-.672 0-1.176.252a2.05 2.05 0 0 0-.798.686q-.28.42-.28.966 0 .504.266.938.267.42.784.686.518.266 1.274.266"/>
    <path fill="url(#paint2_linear_563_3998)" d="M19.47 26v-9.8h1.148l4.396 7.406h-.616l4.34-7.406h1.148L29.9 26h-1.344l-.014-7.686h.322L25 24.81h-.644l-3.892-6.496h.35V26zm13.497 2.8q-.532 0-1.036-.182a2.4 2.4 0 0 1-.868-.504l.574-1.008q.28.266.616.406t.714.14q.49 0 .812-.252t.602-.896l.462-1.022.14-.168 2.912-6.734h1.316l-3.598 8.162q-.322.784-.728 1.232-.391.448-.868.63-.475.196-1.05.196m1.764-2.562-3.388-7.658h1.4l2.884 6.608zm8.31-.154q-1.12 0-1.736-.602t-.616-1.722v-6.804h1.344v6.748q0 .602.294.924.307.322.868.322.63 0 1.05-.35l.42.966a1.95 1.95 0 0 1-.742.392q-.42.126-.882.126m-3.612-6.398V18.58h4.732v1.106zM46.289 26V15.612h1.345v4.97l-.266-.532a2.58 2.58 0 0 1 1.12-1.134q.756-.405 1.764-.406.909 0 1.596.35.699.35 1.092 1.064.392.714.392 1.806V26h-1.344v-4.116q0-1.078-.532-1.624-.519-.546-1.47-.546-.715 0-1.246.28a1.96 1.96 0 0 0-.826.826q-.28.546-.28 1.358V26zm9.53 0v-7.42h1.344V26zm.672-8.848a.92.92 0 0 1-.658-.252.84.84 0 0 1-.252-.616q0-.378.252-.63a.92.92 0 0 1 .658-.252q.392 0 .644.252.266.239.266.602a.9.9 0 0 1-.252.644q-.252.252-.658.252m6.472 8.932q-1.134 0-2.03-.49a3.6 3.6 0 0 1-1.386-1.344q-.504-.855-.504-1.96t.504-1.96A3.5 3.5 0 0 1 60.933 19q.896-.49 2.03-.49 1.008 0 1.792.406.798.391 1.232 1.176l-1.022.658a2.2 2.2 0 0 0-.896-.798 2.4 2.4 0 0 0-1.12-.266q-.728 0-1.302.322a2.37 2.37 0 0 0-.91.91q-.336.574-.336 1.372t.336 1.386.91.91 1.302.322q.602 0 1.12-.252.532-.266.896-.812l1.022.644q-.435.77-1.232 1.19-.784.405-1.792.406m9.37-.084v-1.568l-.07-.294v-2.674q0-.855-.504-1.316-.49-.476-1.484-.476a3.8 3.8 0 0 0-1.288.224 3.2 3.2 0 0 0-1.064.574l-.56-1.008q.574-.462 1.372-.7a5.7 5.7 0 0 1 1.694-.252q1.526 0 2.352.742t.826 2.268V26zm-2.436.084q-.826 0-1.456-.28-.615-.28-.952-.77a2 2 0 0 1-.336-1.134q0-.601.28-1.092.294-.49.938-.784.658-.294 1.764-.294h2.352v.966h-2.296q-1.007 0-1.358.336-.35.336-.35.812 0 .546.434.882.434.322 1.204.322.756 0 1.316-.336.574-.336.826-.98l.266.924q-.266.659-.938 1.05-.671.378-1.694.378M76.094 26V15.612h1.344V26zm11.072.112a3.7 3.7 0 0 1-2.058-.588q-.895-.588-1.428-1.708-.518-1.12-.518-2.716t.518-2.716q.532-1.12 1.428-1.708a3.7 3.7 0 0 1 2.058-.588q1.135 0 2.044.588.91.588 1.428 1.708.519 1.12.518 2.716 0 1.596-.518 2.716-.517 1.12-1.428 1.708a3.7 3.7 0 0 1-2.044.588m0-1.246q.771 0 1.344-.42.589-.42.91-1.26.336-.84.336-2.086t-.336-2.086q-.321-.84-.91-1.26-.573-.42-1.344-.42-.77 0-1.358.42t-.924 1.26q-.322.84-.322 2.086t.322 2.086q.336.84.924 1.26t1.358.42m3.997 2.534 4.62-13.188H97L92.38 27.4zm9.828-1.288q-1.302 0-2.226-.574t-1.414-1.652q-.476-1.092-.476-2.66 0-1.666.588-2.814t1.638-1.736 2.408-.588q.7 0 1.33.14.644.14 1.106.434l-.532 1.092a2.3 2.3 0 0 0-.868-.364 5 5 0 0 0-1.008-.098q-1.498 0-2.38.938-.882.924-.882 2.758 0 .294.028.7.029.406.14.798l-.476-.476q.21-.645.658-1.078a2.8 2.8 0 0 1 1.092-.658q.644-.224 1.386-.224.98 0 1.736.364t1.19 1.036q.434.658.434 1.568 0 .938-.462 1.638a3.04 3.04 0 0 1-1.246 1.078q-.784.378-1.764.378m-.056-1.134q.644 0 1.12-.238a1.9 1.9 0 0 0 .77-.658q.28-.434.28-1.008 0-.868-.602-1.372-.601-.518-1.638-.518-.672 0-1.176.252a2.05 2.05 0 0 0-.798.686q-.28.42-.28.966 0 .504.266.938.267.42.784.686.518.266 1.274.266"/>
  </g>
  <g clip-path="url(#paint3_angular_563_3998_clip_path)" data-figma-skip-parse="true">
    <g transform="matrix(0 -0.0045 0.0045 0 117.036 20)">
      <foreignObject width="3311.05" height="3311.05" x="-1655.52" y="-1655.52">
        <div xmlns="http://www.w3.org/1999/xhtml" opacity="1" style="background:conic-gradient(from 90deg,#fff 0deg,#270202 34.5344deg,#720404 148.004deg,#600 234.802deg,#ff4f4f 329.987deg,#7b0505 360deg);height:100%;width:100%"/>
      </foreignObject>
    </g>
  </g>
  <rect width="7.536" height="7.536" x="111.707" y="20" stroke="url(#paint4_linear_563_3998)" data-figma-gradient-fill="{&quot;type&quot;:&quot;GRADIENT_ANGULAR&quot;,&quot;stops&quot;:[{&quot;color&quot;:{&quot;r&quot;:1.0,&quot;g&quot;:1.0,&quot;b&quot;:1.0,&quot;a&quot;:1.0},&quot;position&quot;:0.0},{&quot;color&quot;:{&quot;r&quot;:0.15294118225574493,&quot;g&quot;:0.0078431377187371254,&quot;b&quot;:0.0078431377187371254,&quot;a&quot;:1.0},&quot;position&quot;:0.095928899943828583},{&quot;color&quot;:{&quot;r&quot;:0.44711539149284363,&quot;g&quot;:0.017196744680404663,&quot;b&quot;:0.017196744680404663,&quot;a&quot;:1.0},&quot;position&quot;:0.41112345457077026},{&quot;color&quot;:{&quot;r&quot;:0.40384614467620850,&quot;g&quot;:0.0,&quot;b&quot;:0.0,&quot;a&quot;:1.0},&quot;position&quot;:0.65222871303558350},{&quot;color&quot;:{&quot;r&quot;:1.0,&quot;g&quot;:0.31250,&quot;b&quot;:0.31250,&quot;a&quot;:1.0},&quot;position&quot;:0.91663157939910889},{&quot;color&quot;:{&quot;r&quot;:0.48235294222831726,&quot;g&quot;:0.022969188168644905,&quot;b&quot;:0.022969188168644905,&quot;a&quot;:1.0},&quot;position&quot;:1.0}],&quot;stopsVar&quot;:[{&quot;color&quot;:{&quot;r&quot;:1.0,&quot;g&quot;:1.0,&quot;b&quot;:1.0,&quot;a&quot;:1.0},&quot;position&quot;:0.0},{&quot;color&quot;:{&quot;r&quot;:0.15294118225574493,&quot;g&quot;:0.0078431377187371254,&quot;b&quot;:0.0078431377187371254,&quot;a&quot;:1.0},&quot;position&quot;:0.095928899943828583},{&quot;color&quot;:{&quot;r&quot;:0.44711539149284363,&quot;g&quot;:0.017196744680404663,&quot;b&quot;:0.017196744680404663,&quot;a&quot;:1.0},&quot;position&quot;:0.41112345457077026},{&quot;color&quot;:{&quot;r&quot;:0.40384614467620850,&quot;g&quot;:0.0,&quot;b&quot;:0.0,&quot;a&quot;:1.0},&quot;position&quot;:0.65222871303558350},{&quot;color&quot;:{&quot;r&quot;:1.0,&quot;g&quot;:0.31250,&quot;b&quot;:0.31250,&quot;a&quot;:1.0},&quot;position&quot;:0.91663157939910889},{&quot;color&quot;:{&quot;r&quot;:0.48235294222831726,&quot;g&quot;:0.022969188168644905,&quot;b&quot;:0.022969188168644905,&quot;a&quot;:1.0},&quot;position&quot;:1.0}],&quot;transform&quot;:{&quot;m00&quot;:0.0,&quot;m01&quot;:9.0,&quot;m02&quot;:112.535644531250,&quot;m10&quot;:-9.0,&quot;m11&quot;:0.0,&quot;m12&quot;:24.50},&quot;opacity&quot;:1.0,&quot;blendMode&quot;:&quot;NORMAL&quot;,&quot;visible&quot;:true}" rx=".5" transform="rotate(-45 111.707 20)"/>
  <g clip-path="url(#paint5_angular_563_3998_clip_path)" data-figma-skip-parse="true">
    <g transform="matrix(0 -0.0045 0.0045 0 6.03564 20)">
      <foreignObject width="3311.05" height="3311.05" x="-1655.52" y="-1655.52">
        <div xmlns="http://www.w3.org/1999/xhtml" opacity="1" style="background:conic-gradient(from 90deg,#fff 0deg,#270202 34.5344deg,#720404 148.004deg,#600 234.802deg,#ff4f4f 329.987deg,#7b0505 360deg);height:100%;width:100%"/>
      </foreignObject>
    </g>
  </g>
  <rect width="7.536" height="7.536" x=".707" y="20" stroke="url(#paint6_linear_563_3998)" data-figma-gradient-fill="{&quot;type&quot;:&quot;GRADIENT_ANGULAR&quot;,&quot;stops&quot;:[{&quot;color&quot;:{&quot;r&quot;:1.0,&quot;g&quot;:1.0,&quot;b&quot;:1.0,&quot;a&quot;:1.0},&quot;position&quot;:0.0},{&quot;color&quot;:{&quot;r&quot;:0.15294118225574493,&quot;g&quot;:0.0078431377187371254,&quot;b&quot;:0.0078431377187371254,&quot;a&quot;:1.0},&quot;position&quot;:0.095928899943828583},{&quot;color&quot;:{&quot;r&quot;:0.44711539149284363,&quot;g&quot;:0.017196744680404663,&quot;b&quot;:0.017196744680404663,&quot;a&quot;:1.0},&quot;position&quot;:0.41112345457077026},{&quot;color&quot;:{&quot;r&quot;:0.40384614467620850,&quot;g&quot;:0.0,&quot;b&quot;:0.0,&quot;a&quot;:1.0},&quot;position&quot;:0.65222871303558350},{&quot;color&quot;:{&quot;r&quot;:1.0,&quot;g&quot;:0.31250,&quot;b&quot;:0.31250,&quot;a&quot;:1.0},&quot;position&quot;:0.91663157939910889},{&quot;color&quot;:{&quot;r&quot;:0.48235294222831726,&quot;g&quot;:0.022969188168644905,&quot;b&quot;:0.022969188168644905,&quot;a&quot;:1.0},&quot;position&quot;:1.0}],&quot;stopsVar&quot;:[{&quot;color&quot;:{&quot;r&quot;:1.0,&quot;g&quot;:1.0,&quot;b&quot;:1.0,&quot;a&quot;:1.0},&quot;position&quot;:0.0},{&quot;color&quot;:{&quot;r&quot;:0.15294118225574493,&quot;g&quot;:0.0078431377187371254,&quot;b&quot;:0.0078431377187371254,&quot;a&quot;:1.0},&quot;position&quot;:0.095928899943828583},{&quot;color&quot;:{&quot;r&quot;:0.44711539149284363,&quot;g&quot;:0.017196744680404663,&quot;b&quot;:0.017196744680404663,&quot;a&quot;:1.0},&quot;position&quot;:0.41112345457077026},{&quot;color&quot;:{&quot;r&quot;:0.40384614467620850,&quot;g&quot;:0.0,&quot;b&quot;:0.0,&quot;a&quot;:1.0},&quot;position&quot;:0.65222871303558350},{&quot;color&quot;:{&quot;r&quot;:1.0,&quot;g&quot;:0.31250,&quot;b&quot;:0.31250,&quot;a&quot;:1.0},&quot;position&quot;:0.91663157939910889},{&quot;color&quot;:{&quot;r&quot;:0.48235294222831726,&quot;g&quot;:0.022969188168644905,&quot;b&quot;:0.022969188168644905,&quot;a&quot;:1.0},&quot;position&quot;:1.0}],&quot;transform&quot;:{&quot;m00&quot;:0.0,&quot;m01&quot;:9.0,&quot;m02&quot;:1.5356444120407104,&quot;m10&quot;:-9.0,&quot;m11&quot;:0.0,&quot;m12&quot;:24.50},&quot;opacity&quot;:1.0,&quot;blendMode&quot;:&quot;NORMAL&quot;,&quot;visible&quot;:true}" rx=".5" transform="rotate(-45 0.707107 20)"/>
  <g clip-path="url(#paint7_angular_563_3998_clip_path)" data-figma-skip-parse="true">
    <g transform="matrix(0 -0.0045 0.0045 0 61.0356 6.03564)">
      <foreignObject width="3311.05" height="3311.05" x="-1655.52" y="-1655.52">
        <div xmlns="http://www.w3.org/1999/xhtml" opacity="1" style="background:conic-gradient(from 90deg,#fff 0deg,#270202 34.5344deg,#720404 148.004deg,#600 234.802deg,#ff4f4f 329.987deg,#7b0505 360deg);height:100%;width:100%"/>
      </foreignObject>
    </g>
  </g>
  <rect width="7.536" height="7.536" x="55.707" y="6.036" stroke="url(#paint8_linear_563_3998)" data-figma-gradient-fill="{&quot;type&quot;:&quot;GRADIENT_ANGULAR&quot;,&quot;stops&quot;:[{&quot;color&quot;:{&quot;r&quot;:1.0,&quot;g&quot;:1.0,&quot;b&quot;:1.0,&quot;a&quot;:1.0},&quot;position&quot;:0.0},{&quot;color&quot;:{&quot;r&quot;:0.15294118225574493,&quot;g&quot;:0.0078431377187371254,&quot;b&quot;:0.0078431377187371254,&quot;a&quot;:1.0},&quot;position&quot;:0.095928899943828583},{&quot;color&quot;:{&quot;r&quot;:0.44711539149284363,&quot;g&quot;:0.017196744680404663,&quot;b&quot;:0.017196744680404663,&quot;a&quot;:1.0},&quot;position&quot;:0.41112345457077026},{&quot;color&quot;:{&quot;r&quot;:0.40384614467620850,&quot;g&quot;:0.0,&quot;b&quot;:0.0,&quot;a&quot;:1.0},&quot;position&quot;:0.65222871303558350},{&quot;color&quot;:{&quot;r&quot;:1.0,&quot;g&quot;:0.31250,&quot;b&quot;:0.31250,&quot;a&quot;:1.0},&quot;position&quot;:0.91663157939910889},{&quot;color&quot;:{&quot;r&quot;:0.48235294222831726,&quot;g&quot;:0.022969188168644905,&quot;b&quot;:0.022969188168644905,&quot;a&quot;:1.0},&quot;position&quot;:1.0}],&quot;stopsVar&quot;:[{&quot;color&quot;:{&quot;r&quot;:1.0,&quot;g&quot;:1.0,&quot;b&quot;:1.0,&quot;a&quot;:1.0},&quot;position&quot;:0.0},{&quot;color&quot;:{&quot;r&quot;:0.15294118225574493,&quot;g&quot;:0.0078431377187371254,&quot;b&quot;:0.0078431377187371254,&quot;a&quot;:1.0},&quot;position&quot;:0.095928899943828583},{&quot;color&quot;:{&quot;r&quot;:0.44711539149284363,&quot;g&quot;:0.017196744680404663,&quot;b&quot;:0.017196744680404663,&quot;a&quot;:1.0},&quot;position&quot;:0.41112345457077026},{&quot;color&quot;:{&quot;r&quot;:0.40384614467620850,&quot;g&quot;:0.0,&quot;b&quot;:0.0,&quot;a&quot;:1.0},&quot;position&quot;:0.65222871303558350},{&quot;color&quot;:{&quot;r&quot;:1.0,&quot;g&quot;:0.31250,&quot;b&quot;:0.31250,&quot;a&quot;:1.0},&quot;position&quot;:0.91663157939910889},{&quot;color&quot;:{&quot;r&quot;:0.48235294222831726,&quot;g&quot;:0.022969188168644905,&quot;b&quot;:0.022969188168644905,&quot;a&quot;:1.0},&quot;position&quot;:1.0}],&quot;transform&quot;:{&quot;m00&quot;:0.0,&quot;m01&quot;:9.0,&quot;m02&quot;:56.535644531250,&quot;m10&quot;:-9.0,&quot;m11&quot;:0.0,&quot;m12&quot;:10.535644531250},&quot;opacity&quot;:1.0,&quot;blendMode&quot;:&quot;NORMAL&quot;,&quot;visible&quot;:true}" rx=".5" transform="rotate(-45 55.7071 6.03564)"/>
  <defs>
    <linearGradient id="paint0_linear_563_3998" x1="62.182" x2="61.683" y1="6" y2="34.991" gradientUnits="userSpaceOnUse">
      <stop stop-color="#b6060d"/>
      <stop offset="1" stop-color="#280002"/>
    </linearGradient>
    <linearGradient id="paint1_linear_563_3998" x1="6" x2="121.835" y1=".764" y2="6.45" gradientUnits="userSpaceOnUse">
      <stop stop-color="#8c421d"/>
      <stop offset=".325" stop-color="#fbe67b"/>
      <stop offset=".535" stop-color="#fcfbe7"/>
      <stop offset=".77" stop-color="#f7d14e"/>
      <stop offset="1" stop-color="#d4a041"/>
    </linearGradient>
    <linearGradient id="paint2_linear_563_3998" x1="-147.729" x2="188.757" y1="18.611" y2="13.045" gradientUnits="userSpaceOnUse">
      <stop stop-color="#bb9138"/>
      <stop offset=".175" stop-color="#fdf8d0"/>
      <stop offset=".505" stop-color="#edcd78"/>
      <stop offset=".725" stop-color="#fcf7cd"/>
      <stop offset="1" stop-color="#c49337"/>
    </linearGradient>
    <linearGradient id="paint4_linear_563_3998" x1="119.51" x2="111.025" y1="19.975" y2="28.46" gradientUnits="userSpaceOnUse">
      <stop offset=".15" stop-color="#fcfae5"/>
      <stop offset=".601" stop-color="#ddac44"/>
    </linearGradient>
    <linearGradient id="paint6_linear_563_3998" x1="8.51" x2=".025" y1="19.975" y2="28.46" gradientUnits="userSpaceOnUse">
      <stop offset=".15" stop-color="#fcfae5"/>
      <stop offset=".601" stop-color="#ddac44"/>
    </linearGradient>
    <linearGradient id="paint8_linear_563_3998" x1="63.511" x2="55.025" y1="6.01" y2="14.496" gradientUnits="userSpaceOnUse">
      <stop offset=".15" stop-color="#fcfae5"/>
      <stop offset=".601" stop-color="#ddac44"/>
    </linearGradient>
    <clipPath id="paint3_angular_563_3998_clip_path">
      <rect width="7.536" height="7.536" x="111.707" y="20" rx=".5" transform="rotate(-45 111.707 20)"/>
    </clipPath>
    <clipPath id="paint5_angular_563_3998_clip_path">
      <rect width="7.536" height="7.536" x=".707" y="20" rx=".5" transform="rotate(-45 0.707107 20)"/>
    </clipPath>
    <clipPath id="paint7_angular_563_3998_clip_path">
      <rect width="7.536" height="7.536" x="55.707" y="6.036" rx=".5" transform="rotate(-45 55.7071 6.03564)"/>
    </clipPath>
    <filter id="filter0_d_563_3998" width="92.993" height="22.588" x="15.47" y="11.212" color-interpolation-filters="sRGB" filterUnits="userSpaceOnUse">
      <feFlood flood-opacity="0" result="BackgroundImageFix"/>
      <feColorMatrix in="SourceAlpha" result="hardAlpha" values="0 0 0 0 0 0 0 0 0 0 0 0 0 0 0 0 0 0 127 0"/>
      <feOffset dy="1"/>
      <feGaussianBlur stdDeviation="2"/>
      <feComposite in2="hardAlpha" operator="out"/>
      <feColorMatrix values="0 0 0 0 0 0 0 0 0 0 0 0 0 0 0 0 0 0 0.25 0"/>
      <feBlend in2="BackgroundImageFix" result="effect1_dropShadow_563_3998"/>
      <feBlend in="SourceGraphic" in2="effect1_dropShadow_563_3998" result="shape"/>
    </filter>
  </defs>
</svg>