<svg xmlns="http://www.w3.org/2000/svg" viewBox="0 0 64 64">
<style>
/* <![CDATA[ */

#a1, #a2, #a3, #a4, #a5, #a6, #a7, #a8, #a9, #a10, #a11, #a12, #a13, #a14, #a15, #a16, #a17, #a18, #a19, #a20, #a21, #a22, #a23, #a24, #a25, #a26, #a27, #a28, #a29, #a30, #a31, #a32, #a33, #a34, #a35, #a36, #a37, #a38, #a39, #a40, #a41, #a42, #a43, #a44, #a45, #a46, #a47, #a48, #a49, #a50 {
visibility: hidden;
animation-duration: 1.4s;
animation-iteration-count: 1;
animation-fill-mode: forwards;
animation-timing-function: steps(1);
}

/* ]]> */
</style>
<g id="a1">
  <path d="M40.73 27.8v.38c0 5.55-4.57 10.12-10.12 10.12A10.17 10.17 0 0 1 20.5 27.8c.2-5.4 4.7-9.75 10.11-9.75 5.41 0 9.91 4.34 10.12 9.75Z"/>
  <path d="M32 3A26.31 26.31 0 0 0 5.82 29.18l.01.52-.01.04V61h12.76v-9.34c4.06 2.42 8.7 3.7 13.42 3.7a26.3 26.3 0 0 0 26.18-26.18A26.3 26.3 0 0 0 32 3Zm-1.45 24.26c-8.5 9.27-15.75 17.94-15.87 17.83-.13-.14 7.38-8.56 15.87-17.83a626.3 626.3 0 0 1 14.9-15.75c.03.02-6.4 6.48-14.9 15.75Z"/>
</g>
<g id="a2">
  <path d="M40.6 27.8v.37c0 5.48-4.5 9.99-9.99 9.99a10.04 10.04 0 0 1-9.98-10.37c.2-5.33 4.64-9.62 9.98-9.62 5.35 0 9.8 4.29 10 9.62Z"/>
  <path d="M32 3A26.31 26.31 0 0 0 5.82 29.18l.01.52-.01.04V61h12.76v-9.34c4.06 2.42 8.7 3.7 13.42 3.7a26.3 26.3 0 0 0 26.18-26.18A26.3 26.3 0 0 0 32 3Zm-.99 24.76c-8.5 9.27-15.95 17.68-16.33 17.33-.4-.37 6.86-8.94 15.36-18.21 8.5-9.28 15.14-15.63 15.42-15.37.28.26-5.95 6.98-14.45 16.25Z"/>
</g>
<g id="a3">
  <path d="M40.46 27.8v.37A9.9 9.9 0 0 1 30.61 38a9.9 9.9 0 0 1-9.84-10.21 9.9 9.9 0 0 1 9.85-9.48 9.9 9.9 0 0 1 9.84 9.48Z"/>
  <path d="M32 3A26.31 26.31 0 0 0 5.82 29.18l.01.52-.01.04V61h12.76v-9.34c4.06 2.42 8.7 3.7 13.42 3.7a26.3 26.3 0 0 0 26.18-26.18A26.3 26.3 0 0 0 32 3Zm-.47 25.33c-8.5 9.27-16.18 17.37-16.85 16.76-.69-.64 6.29-9.37 14.79-18.64 8.5-9.28 15.4-15.47 15.99-14.94.58.53-5.44 7.54-13.93 16.82Z"/>
</g>
<g id="a4">
  <path d="m40.3 27.79.01.36c0 5.32-4.38 9.7-9.7 9.7a9.74 9.74 0 0 1-9.69-10.06 9.74 9.74 0 0 1 9.7-9.34c5.18 0 9.5 4.16 9.69 9.34Z"/>
  <path d="M32 3A26.31 26.31 0 0 0 5.82 29.18l.01.52-.01.04V61h12.76v-9.34c4.06 2.42 8.7 3.7 13.42 3.7a26.3 26.3 0 0 0 26.18-26.18A26.3 26.3 0 0 0 32 3Zm.06 25.92c-8.5 9.27-16.4 17.07-17.38 16.17-.99-.92 5.69-9.82 14.19-19.1 8.5-9.27 15.7-15.3 16.59-14.48.9.82-4.9 8.13-13.4 17.4v.01Z"/>
</g>
<g id="a5">
  <path d="M40.15 27.8v.35c0 5.24-4.3 9.54-9.54 9.54a9.59 9.59 0 0 1-9.53-9.9 9.59 9.59 0 0 1 9.53-9.18c5.1 0 9.35 4.09 9.54 9.19Z"/>
  <path d="M32 3A26.31 26.31 0 0 0 5.82 29.18l.01.52-.01.04V61h12.76v-9.34c4.06 2.42 8.7 3.7 13.42 3.7a26.3 26.3 0 0 0 26.18-26.18A26.3 26.3 0 0 0 32 3Zm.6 26.5c-8.5 9.28-16.63 16.77-17.92 15.6-1.3-1.2 5.08-10.28 13.58-19.55 8.5-9.27 15.99-15.14 17.2-14.03 1.2 1.11-4.36 8.73-12.86 18v-.02Z"/>
</g>
<g id="a6">
  <path d="M40 27.8v.35a9.43 9.43 0 0 1-9.39 9.39 9.43 9.43 0 0 1-9.38-9.74 9.43 9.43 0 0 1 9.38-9.04c5.02 0 9.2 4.02 9.38 9.04Z"/>
  <path d="M32 3A26.31 26.31 0 0 0 5.82 29.18l.01.52-.01.04V61h12.76v-9.34c4.06 2.42 8.7 3.7 13.42 3.7a26.3 26.3 0 0 0 26.18-26.18A26.3 26.3 0 0 0 32 3Zm1.14 27.1c-8.5 9.28-16.87 16.45-18.46 14.99-1.6-1.48 4.48-10.74 12.98-20 8.5-9.28 16.27-14.98 17.8-13.58 1.52 1.4-3.82 9.32-12.32 18.6v-.01Z"/>
</g>
<g id="a7">
  <path d="M39.84 27.8v.34a9.28 9.28 0 0 1-9.22 9.24 9.28 9.28 0 0 1-9.23-9.58 9.27 9.27 0 0 1 9.23-8.89 9.27 9.27 0 0 1 9.22 8.9Z"/>
  <path d="M32 3A26.31 26.31 0 0 0 5.82 29.18l.01.52-.01.04V61h12.76v-9.34c4.06 2.42 8.7 3.7 13.42 3.7a26.3 26.3 0 0 0 26.18-26.18A26.3 26.3 0 0 0 32 3Zm1.68 27.7c-8.5 9.27-17.1 16.13-19 14.39-1.9-1.76 3.88-11.19 12.38-20.46 8.5-9.27 16.56-14.8 18.4-13.12 1.84 1.69-3.29 9.91-11.78 19.18v.01Z"/>
</g>
<g id="a8">
  <path d="M39.69 27.8v.34c0 4.98-4.1 9.07-9.08 9.07a9.12 9.12 0 0 1-9.07-9.41 9.12 9.12 0 0 1 9.07-8.74c4.86 0 8.9 3.89 9.08 8.74Z"/>
  <path d="M32 3A26.31 26.31 0 0 0 5.82 29.18l.01.52-.01.04V61h12.76v-9.34c4.06 2.42 8.7 3.7 13.42 3.7a26.3 26.3 0 0 0 26.18-26.18A26.3 26.3 0 0 0 32 3Zm2.2 28.27c-8.5 9.27-17.32 15.84-19.52 13.83-2.2-2.03 3.29-11.63 11.79-20.9 8.5-9.27 16.84-14.64 18.99-12.68 2.14 1.96-2.76 10.49-11.26 19.75Z"/>
</g>
<g id="a9">
  <path d="M39.54 27.8v.34c0 4.9-4.02 8.92-8.92 8.92a8.97 8.97 0 0 1-8.92-9.26 8.97 8.97 0 0 1 8.92-8.6 8.97 8.97 0 0 1 8.92 8.6Z"/>
  <path d="M32 3A26.31 26.31 0 0 0 5.82 29.18l.01.52-.01.04V61h12.76v-9.34c4.06 2.42 8.7 3.7 13.42 3.7a26.3 26.3 0 0 0 26.18-26.18A26.3 26.3 0 0 0 32 3Zm2.71 28.84c-8.5 9.27-17.54 15.54-20.03 13.25-2.5-2.3 2.72-12.06 11.21-21.33 8.5-9.28 17.13-14.49 19.57-12.25 2.44 2.24-2.26 11.06-10.76 20.33h.01Z"/>
</g>
<g id="a10">
  <path d="m39.38 27.8.01.32a8.82 8.82 0 0 1-8.78 8.78 8.82 8.82 0 0 1-8.77-9.1 8.81 8.81 0 0 1 8.77-8.45c4.7 0 8.6 3.76 8.77 8.45Z"/>
  <path d="M32 3A26.31 26.31 0 0 0 5.82 29.18l.01.52-.01.04V61h12.76v-9.34c4.06 2.42 8.7 3.7 13.42 3.7a26.3 26.3 0 0 0 26.18-26.18A26.3 26.3 0 0 0 32 3Zm3.21 29.38c-8.5 9.28-17.75 15.26-20.53 12.71-2.78-2.56 2.16-12.48 10.66-21.75S42.73 9 45.46 11.5c2.73 2.51-1.76 11.61-10.26 20.88h.01Z"/>
</g>
<g id="a11">
  <path d="M39.24 27.8v.32c0 4.74-3.9 8.63-8.63 8.63A8.67 8.67 0 0 1 22 27.8a8.67 8.67 0 0 1 8.62-8.3c4.62 0 8.46 3.7 8.63 8.3Z"/>
  <path d="M32 3A26.31 26.31 0 0 0 5.82 29.18l.01.52-.01.04V61h12.76v-9.34c4.06 2.42 8.7 3.7 13.42 3.7a26.3 26.3 0 0 0 26.18-26.18A26.3 26.3 0 0 0 32 3Zm3.7 29.9c-8.5 9.27-17.96 14.98-21 12.18-3.08-2.79 1.6-12.87 10.1-22.15 8.5-9.27 17.65-14.18 20.66-11.42 3.01 2.76-1.27 12.13-9.77 21.4l.01-.01Z"/>
</g>
<g id="a12">
  <path d="M39.1 27.8v.32a8.53 8.53 0 0 1-8.48 8.49 8.53 8.53 0 0 1-8.48-8.8 8.52 8.52 0 0 1 8.48-8.18 8.52 8.52 0 0 1 8.48 8.17Z"/>
  <path d="M32 3A26.31 26.31 0 0 0 5.82 29.18l.01.52-.01.04V61h12.76v-9.34c4.06 2.42 8.7 3.7 13.42 3.7a26.3 26.3 0 0 0 26.18-26.18A26.3 26.3 0 0 0 32 3Zm4.15 30.4c-8.5 9.28-18.16 14.72-21.47 11.68-3.31-3.04 1.11-13.27 9.6-22.54 8.5-9.27 17.9-14.05 21.18-11.04 3.28 3-.81 12.63-9.31 21.9Z"/>
</g>
<g id="a13">
  <path d="M38.96 27.8v.3a8.39 8.39 0 0 1-8.34 8.36 8.39 8.39 0 0 1-8.34-8.66 8.38 8.38 0 0 1 8.34-8.04 8.38 8.38 0 0 1 8.34 8.04Z"/>
  <path d="M32 3A26.31 26.31 0 0 0 5.82 29.18l.01.52-.01.04V61h12.76v-9.34c4.06 2.42 8.7 3.7 13.42 3.7a26.3 26.3 0 0 0 26.18-26.18A26.3 26.3 0 0 0 32 3Zm4.58 30.9c-8.5 9.26-18.34 14.45-21.9 11.19-3.56-3.27.62-13.63 9.12-22.9C32.3 12.9 41.93 8.26 45.46 11.5c3.53 3.24-.38 13.1-8.88 22.38v.02Z"/>
</g>
<g id="a14">
  <path d="M38.83 27.8v.3c0 4.51-3.7 8.22-8.21 8.22a8.25 8.25 0 0 1-8.2-8.52 8.25 8.25 0 0 1 8.2-7.9 8.25 8.25 0 0 1 8.2 7.9Z"/>
  <path d="M32 3A26.31 26.31 0 0 0 5.82 29.18l.01.52-.01.04V61h12.76v-9.34c4.06 2.42 8.7 3.7 13.42 3.7a26.3 26.3 0 0 0 26.18-26.18A26.3 26.3 0 0 0 32 3Zm5 31.34c-8.5 9.27-18.52 14.22-22.3 10.75-3.8-3.48.16-13.98 8.66-23.25S41.7 8.06 45.46 11.51c3.78 3.45.03 13.56-8.46 22.83Z"/>
</g>
<g id="a15">
  <path d="M38.7 27.8v.3a8.12 8.12 0 0 1-8.09 8.08 8.12 8.12 0 0 1-8.08-8.38A8.12 8.12 0 0 1 30.61 20a8.12 8.12 0 0 1 8.08 7.79Z"/>
  <path d="M32 3A26.31 26.31 0 0 0 5.82 29.18l.01.52-.01.04V61h12.76v-9.34c4.06 2.42 8.7 3.7 13.42 3.7a26.3 26.3 0 0 0 26.18-26.18A26.3 26.3 0 0 0 32 3Zm5.36 31.75c-8.5 9.27-18.67 14-22.68 10.34-4-3.67-.25-14.3 8.25-23.56 8.5-9.28 18.54-13.67 22.53-10.02 3.99 3.66.4 13.97-8.1 23.24Z"/>
</g>
<g id="a16">
  <path d="m38.56 27.8.01.3a8 8 0 0 1-7.96 7.96 8 8 0 0 1-7.96-8.26 8 8 0 0 1 7.96-7.67 8 8 0 0 1 7.95 7.67Z"/>
  <path d="M32 3A26.31 26.31 0 0 0 5.82 29.18l.01.52-.01.04V61h12.76v-9.34c4.06 2.42 8.7 3.7 13.42 3.7a26.3 26.3 0 0 0 26.18-26.18A26.3 26.3 0 0 0 32 3Zm5.7 32.12c-8.5 9.28-18.82 13.82-23.02 9.97-4.2-3.85-.63-14.58 7.87-23.85 8.5-9.27 18.72-13.57 22.9-9.73 4.2 3.84.75 14.34-7.75 23.61Z"/>
</g>
<g id="a17">
  <path d="M38.45 27.8v.29c0 4.3-3.53 7.84-7.84 7.84a7.88 7.88 0 0 1-7.84-8.13 7.88 7.88 0 0 1 7.84-7.55c4.2 0 7.68 3.36 7.84 7.55Z"/>
  <path d="M32 3A26.31 26.31 0 0 0 5.82 29.18l.01.52-.01.04V61h12.76v-9.34c4.06 2.42 8.7 3.7 13.42 3.7a26.3 26.3 0 0 0 26.18-26.18A26.3 26.3 0 0 0 32 3Zm6 32.45c-8.5 9.27-18.95 13.64-23.32 9.64-4.37-4-.96-14.83 7.54-24.1 8.5-9.27 18.88-13.47 23.24-9.48 4.36 4 1.04 14.67-7.46 23.94Z"/>
</g>
<g id="a18">
  <path d="M38.34 27.8v.3c0 4.23-3.48 7.72-7.72 7.72a7.77 7.77 0 0 1-7.73-8.02 7.77 7.77 0 0 1 7.73-7.44 7.77 7.77 0 0 1 7.72 7.44Z"/>
  <path d="M32 3A26.31 26.31 0 0 0 5.82 29.18l.01.52-.01.04V61h12.76v-9.34c4.06 2.42 8.7 3.7 13.42 3.7a26.3 26.3 0 0 0 26.18-26.18A26.3 26.3 0 0 0 32 3Zm6.25 32.73c-8.5 9.27-19.06 13.5-23.57 9.36-4.5-4.13-1.24-15.04 7.25-24.31 8.5-9.27 19.02-13.4 23.53-9.27 4.5 4.13 1.29 14.94-7.21 24.22Z"/>
</g>
<g id="a19">
  <path d="M38.24 27.8v.28a7.67 7.67 0 0 1-7.63 7.63A7.67 7.67 0 0 1 23 27.8a7.66 7.66 0 0 1 7.62-7.35 7.66 7.66 0 0 1 7.63 7.35Z"/>
  <path d="M32 3A26.31 26.31 0 0 0 5.82 29.18l.01.52-.01.04V61h12.76v-9.34c4.06 2.42 8.7 3.7 13.42 3.7a26.3 26.3 0 0 0 26.18-26.18A26.3 26.3 0 0 0 32 3Zm6.44 32.94c-8.5 9.27-19.14 13.38-23.76 9.15-4.62-4.24-1.46-15.2 7.04-24.48 8.5-9.27 19.12-13.33 23.74-9.1 4.62 4.23 1.48 15.16-7.02 24.43Z"/>
</g>
<g id="a20">
  <path d="m38.14 27.8.01.28c0 4.13-3.4 7.54-7.54 7.54a7.57 7.57 0 0 1-7.53-7.82 7.57 7.57 0 0 1 7.53-7.26 7.57 7.57 0 0 1 7.53 7.26Z"/>
  <path d="M32 3A26.31 26.31 0 0 0 5.82 29.18l.01.52-.01.04V61h12.76v-9.34c4.06 2.42 8.7 3.7 13.42 3.7a26.3 26.3 0 0 0 26.18-26.18A26.3 26.3 0 0 0 32 3Zm6.57 33.08c-8.5 9.27-19.2 13.31-23.89 9.01-4.7-4.3-1.6-15.31 6.9-24.58 8.5-9.28 19.18-13.3 23.88-9 4.7 4.3 1.6 15.3-6.89 24.57Z"/>
</g>
<g id="a21">
  <path d="M38.06 27.8v.28a7.49 7.49 0 0 1-7.44 7.45 7.49 7.49 0 0 1-7.45-7.73 7.49 7.49 0 0 1 7.45-7.17c3.98 0 7.3 3.2 7.44 7.17Z"/>
  <path d="M32 3A26.31 26.31 0 0 0 5.82 29.18l.01.52-.01.04V61h12.76v-9.34c4.06 2.42 8.7 3.7 13.42 3.7a26.3 26.3 0 0 0 26.18-26.18A26.3 26.3 0 0 0 32 3Zm6.62 33.13c-8.5 9.27-19.22 13.29-23.94 8.96-4.72-4.33-1.66-15.35 6.84-24.62 8.5-9.28 19.22-13.29 23.94-8.96 4.72 4.33 1.66 15.35-6.84 24.62Z"/>
</g>
<g id="a22">
  <path d="M37.99 27.8v.28a7.41 7.41 0 0 1-7.37 7.38 7.41 7.41 0 0 1-7.38-7.66 7.41 7.41 0 0 1 7.38-7.1 7.41 7.41 0 0 1 7.37 7.1Z"/>
  <path d="M32 3A26.31 26.31 0 0 0 5.82 29.18l.01.52-.01.04V61h12.76v-9.34c4.06 2.42 8.7 3.7 13.42 3.7a26.3 26.3 0 0 0 26.18-26.18A26.3 26.3 0 0 0 32 3Zm6.62 33.13c-8.5 9.27-19.22 13.29-23.94 8.96-4.72-4.33-1.66-15.35 6.84-24.62 8.5-9.28 19.22-13.29 23.94-8.96 4.72 4.33 1.66 15.35-6.84 24.62Z"/>
</g>
<g id="a23">
  <path d="M37.93 27.8v.27c0 4.01-3.3 7.32-7.31 7.32a7.35 7.35 0 0 1-7.31-7.6 7.35 7.35 0 0 1 7.3-7.04 7.35 7.35 0 0 1 7.32 7.05Z"/>
  <path d="M32 3A26.31 26.31 0 0 0 5.82 29.18l.01.52-.01.04V61h12.76v-9.34c4.06 2.42 8.7 3.7 13.42 3.7a26.3 26.3 0 0 0 26.18-26.18A26.3 26.3 0 0 0 32 3Zm6.62 33.13c-8.5 9.27-19.22 13.29-23.94 8.96-4.72-4.33-1.66-15.35 6.84-24.62 8.5-9.28 19.22-13.29 23.94-8.96 4.72 4.33 1.66 15.35-6.84 24.62Z"/>
</g>
<g id="a24">
  <path d="M37.89 27.8v.27a7.3 7.3 0 0 1-7.27 7.27 7.3 7.3 0 0 1-7.27-7.54 7.3 7.3 0 0 1 7.27-7 7.3 7.3 0 0 1 7.27 7Z"/>
  <path d="M32 3A26.31 26.31 0 0 0 5.82 29.18l.01.52-.01.04V61h12.76v-9.34c4.06 2.42 8.7 3.7 13.42 3.7a26.3 26.3 0 0 0 26.18-26.18A26.3 26.3 0 0 0 32 3Zm6.62 33.13c-8.5 9.27-19.22 13.29-23.94 8.96-4.72-4.33-1.66-15.35 6.84-24.62 8.5-9.28 19.22-13.29 23.94-8.96 4.72 4.33 1.66 15.35-6.84 24.62Z"/>
</g>
<g id="a25">
  <path d="M37.85 27.8a7.28 7.28 0 0 1-7.24 7.51 7.28 7.28 0 0 1-7.23-7.5 7.27 7.27 0 0 1 7.23-6.98c3.87 0 7.1 3.1 7.24 6.97Z"/>
  <path d="M32 3A26.31 26.31 0 0 0 5.82 29.18l.01.52-.01.04V61h12.76v-9.34c4.06 2.42 8.7 3.7 13.42 3.7a26.3 26.3 0 0 0 26.18-26.18A26.3 26.3 0 0 0 32 3Zm6.62 33.13c-8.5 9.27-19.22 13.29-23.94 8.96-4.72-4.33-1.66-15.35 6.84-24.62 8.5-9.28 19.22-13.29 23.94-8.96 4.72 4.33 1.66 15.35-6.84 24.62Z"/>
</g>
<g id="a26">
  <path d="M37.84 27.8v.27a7.26 7.26 0 0 1-7.22 7.23 7.26 7.26 0 0 1-7.23-7.5 7.26 7.26 0 0 1 7.23-6.96c3.86 0 7.08 3.1 7.22 6.96Z"/>
  <path d="M32 3A26.31 26.31 0 0 0 5.82 29.18l.01.52-.01.04V61h12.76v-9.34c4.06 2.42 8.7 3.7 13.42 3.7a26.3 26.3 0 0 0 26.18-26.18A26.3 26.3 0 0 0 32 3Zm6.62 33.13c-8.5 9.27-19.22 13.29-23.94 8.96-4.72-4.33-1.66-15.35 6.84-24.62 8.5-9.28 19.22-13.29 23.94-8.96 4.72 4.33 1.66 15.35-6.84 24.62Z"/>
</g>
<g id="a27">
  <path d="M37.84 27.8v.27a7.26 7.26 0 0 1-7.22 7.23 7.26 7.26 0 0 1-7.23-7.5 7.26 7.26 0 0 1 7.23-6.96c3.86 0 7.08 3.1 7.22 6.96Z"/>
  <path d="M32 3A26.31 26.31 0 0 0 5.82 29.18l.01.52-.01.04V61h12.76v-9.34c4.06 2.42 8.7 3.7 13.42 3.7a26.3 26.3 0 0 0 26.18-26.18A26.3 26.3 0 0 0 32 3Zm6.62 33.13c-8.5 9.27-19.22 13.29-23.94 8.96-4.72-4.33-1.66-15.35 6.84-24.62 8.5-9.28 19.22-13.29 23.94-8.96 4.72 4.33 1.66 15.35-6.84 24.62Z"/>
</g>
<g id="a28">
  <path d="M37.84 27.8v.27a7.26 7.26 0 0 1-7.22 7.23 7.26 7.26 0 0 1-7.23-7.5 7.26 7.26 0 0 1 7.23-6.96c3.86 0 7.08 3.1 7.22 6.96Z"/>
  <path d="M32 3A26.31 26.31 0 0 0 5.82 29.18l.01.52-.01.04V61h12.76v-9.34c4.06 2.42 8.7 3.7 13.42 3.7a26.3 26.3 0 0 0 26.18-26.18A26.3 26.3 0 0 0 32 3Zm6.62 33.13c-8.5 9.27-19.22 13.29-23.94 8.96-4.72-4.33-1.66-15.35 6.84-24.62 8.5-9.28 19.22-13.29 23.94-8.96 4.72 4.33 1.66 15.35-6.84 24.62Z"/>
</g>
<g id="a29">
  <path d="M37.84 27.8v.27a7.26 7.26 0 0 1-7.22 7.23 7.26 7.26 0 0 1-7.23-7.5 7.26 7.26 0 0 1 7.23-6.96c3.86 0 7.08 3.1 7.22 6.96Z"/>
  <path d="M32 3A26.31 26.31 0 0 0 5.82 29.18l.01.52-.01.04V61h12.76v-9.34c4.06 2.42 8.7 3.7 13.42 3.7a26.3 26.3 0 0 0 26.18-26.18A26.3 26.3 0 0 0 32 3Zm6.62 33.13c-8.5 9.27-19.22 13.29-23.94 8.96-4.72-4.33-1.66-15.35 6.84-24.62 8.5-9.28 19.22-13.29 23.94-8.96 4.72 4.33 1.66 15.35-6.84 24.62Z"/>
</g>
<g id="a30">
  <path d="M37.84 27.8v.27a7.26 7.26 0 0 1-7.22 7.23 7.26 7.26 0 0 1-7.23-7.5 7.26 7.26 0 0 1 7.23-6.96c3.86 0 7.08 3.1 7.22 6.96Z"/>
  <path d="M32 3A26.31 26.31 0 0 0 5.82 29.18l.01.52-.01.04V61h12.76v-9.34c4.06 2.42 8.7 3.7 13.42 3.7a26.3 26.3 0 0 0 26.18-26.18A26.3 26.3 0 0 0 32 3Zm6.62 33.13c-8.5 9.27-19.22 13.29-23.94 8.96-4.72-4.33-1.66-15.35 6.84-24.62 8.5-9.28 19.22-13.29 23.94-8.96 4.72 4.33 1.66 15.35-6.84 24.62Z"/>
</g>
<g id="a31">
  <path d="M37.84 27.8v.27a7.26 7.26 0 0 1-7.22 7.23 7.26 7.26 0 0 1-7.23-7.5 7.26 7.26 0 0 1 7.23-6.96c3.86 0 7.08 3.1 7.22 6.96Z"/>
  <path d="M32 3A26.31 26.31 0 0 0 5.82 29.18l.01.52-.01.04V61h12.76v-9.34c4.06 2.42 8.7 3.7 13.42 3.7a26.3 26.3 0 0 0 26.18-26.18A26.3 26.3 0 0 0 32 3Zm6.62 33.13c-8.5 9.27-19.22 13.29-23.94 8.96-4.72-4.33-1.66-15.35 6.84-24.62 8.5-9.28 19.22-13.29 23.94-8.96 4.72 4.33 1.66 15.35-6.84 24.62Z"/>
</g>
<g id="a32">
  <path d="M37.84 27.8v.27a7.26 7.26 0 0 1-7.22 7.23 7.26 7.26 0 0 1-7.23-7.5 7.26 7.26 0 0 1 7.23-6.96c3.86 0 7.08 3.1 7.22 6.96Z"/>
  <path d="M32 3A26.31 26.31 0 0 0 5.82 29.18l.01.52-.01.04V61h12.76v-9.34c4.06 2.42 8.7 3.7 13.42 3.7a26.3 26.3 0 0 0 26.18-26.18A26.3 26.3 0 0 0 32 3Zm6.62 33.13c-8.5 9.27-19.22 13.29-23.94 8.96-4.72-4.33-1.66-15.35 6.84-24.62 8.5-9.28 19.22-13.29 23.94-8.96 4.72 4.33 1.66 15.35-6.84 24.62Z"/>
</g>
<g id="a33">
  <path d="M37.84 27.8v.27a7.26 7.26 0 0 1-7.22 7.23 7.26 7.26 0 0 1-7.23-7.5 7.26 7.26 0 0 1 7.23-6.96c3.86 0 7.08 3.1 7.22 6.96Z"/>
  <path d="M32 3A26.31 26.31 0 0 0 5.82 29.18l.01.52-.01.04V61h12.76v-9.34c4.06 2.42 8.7 3.7 13.42 3.7a26.3 26.3 0 0 0 26.18-26.18A26.3 26.3 0 0 0 32 3Zm6.62 33.13c-8.5 9.27-19.22 13.29-23.94 8.96-4.72-4.33-1.66-15.35 6.84-24.62 8.5-9.28 19.22-13.29 23.94-8.96 4.72 4.33 1.66 15.35-6.84 24.62Z"/>
</g>
<g id="a34">
  <path d="M37.84 27.8v.27a7.26 7.26 0 0 1-7.22 7.23 7.26 7.26 0 0 1-7.23-7.5 7.26 7.26 0 0 1 7.23-6.96c3.86 0 7.08 3.1 7.22 6.96Z"/>
  <path d="M32 3A26.31 26.31 0 0 0 5.82 29.18l.01.52-.01.04V61h12.76v-9.34c4.06 2.42 8.7 3.7 13.42 3.7a26.3 26.3 0 0 0 26.18-26.18A26.3 26.3 0 0 0 32 3Zm4.53 30.83c-8.5 9.27-18.32 14.5-21.85 11.26-3.53-3.24.69-13.59 9.18-22.86 8.5-9.27 18.1-13.93 21.6-10.72 3.5 3.2-.44 13.05-8.93 22.32Z"/>
</g>
<g id="a35">
  <path d="M37.84 27.8v.27a7.26 7.26 0 0 1-7.22 7.23 7.26 7.26 0 0 1-7.23-7.5 7.26 7.26 0 0 1 7.23-6.96c3.86 0 7.08 3.1 7.22 6.96Z"/>
  <path d="M32 3A26.31 26.31 0 0 0 5.82 29.18l.01.52-.01.04V61h12.76v-9.34c4.06 2.42 8.7 3.7 13.42 3.7a26.3 26.3 0 0 0 26.18-26.18A26.3 26.3 0 0 0 32 3Zm.65 26.56c-8.5 9.27-16.66 16.74-17.97 15.54-1.32-1.23 5.03-10.33 13.53-19.6 8.5-9.27 16.01-15.12 17.25-13.99 1.24 1.13-4.32 8.78-12.81 18.05Z"/>
</g>
<g id="a36">
  <path d="M37.84 27.8v.27a7.26 7.26 0 0 1-7.22 7.23 7.26 7.26 0 0 1-7.23-7.5 7.26 7.26 0 0 1 7.23-6.96c3.86 0 7.08 3.1 7.22 6.96Z"/>
  <path d="M32 3A26.31 26.31 0 0 0 5.82 29.18l.01.52-.01.04V61h12.76v-9.34c4.06 2.42 8.7 3.7 13.42 3.7a26.3 26.3 0 0 0 26.18-26.18A26.3 26.3 0 0 0 32 3Zm-1.45 24.26c-8.5 9.27-15.75 17.94-15.87 17.83-.13-.14 7.38-8.56 15.87-17.83a626.3 626.3 0 0 1 14.9-15.75c.03.02-6.4 6.48-14.9 15.75Z"/>
</g>
<g id="a37">
  <path d="M37.84 27.8v.27a7.26 7.26 0 0 1-7.22 7.23 7.26 7.26 0 0 1-7.23-7.5 7.26 7.26 0 0 1 7.23-6.96c3.86 0 7.08 3.1 7.22 6.96Z"/>
  <path d="M32 3A26.31 26.31 0 0 0 5.82 29.18l.01.52-.01.04V61h12.76v-9.34c4.06 2.42 8.7 3.7 13.42 3.7a26.3 26.3 0 0 0 26.18-26.18A26.3 26.3 0 0 0 32 3Zm.65 26.56c-8.5 9.27-16.66 16.74-17.97 15.54-1.32-1.23 5.03-10.33 13.53-19.6 8.5-9.27 16.01-15.12 17.25-13.99 1.24 1.13-4.32 8.78-12.81 18.05Z"/>
</g>
<g id="a38">
  <path d="M37.84 27.8v.27a7.26 7.26 0 0 1-7.22 7.23 7.26 7.26 0 0 1-7.23-7.5 7.26 7.26 0 0 1 7.23-6.96c3.86 0 7.08 3.1 7.22 6.96Z"/>
  <path d="M32 3A26.31 26.31 0 0 0 5.82 29.18l.01.52-.01.04V61h12.76v-9.34c4.06 2.42 8.7 3.7 13.42 3.7a26.3 26.3 0 0 0 26.18-26.18A26.3 26.3 0 0 0 32 3Zm4.53 30.83c-8.5 9.27-18.32 14.5-21.85 11.26-3.53-3.24.69-13.59 9.18-22.86 8.5-9.27 18.1-13.93 21.6-10.72 3.5 3.2-.44 13.05-8.93 22.32Z"/>
</g>
<g id="a39">
  <path d="M37.84 27.8v.27a7.26 7.26 0 0 1-7.22 7.23 7.26 7.26 0 0 1-7.23-7.5 7.26 7.26 0 0 1 7.23-6.96c3.86 0 7.08 3.1 7.22 6.96Z"/>
  <path d="M32 3A26.31 26.31 0 0 0 5.82 29.18l.01.52-.01.04V61h12.76v-9.34c4.06 2.42 8.7 3.7 13.42 3.7a26.3 26.3 0 0 0 26.18-26.18A26.3 26.3 0 0 0 32 3Zm6.62 33.13c-8.5 9.27-19.22 13.29-23.94 8.96-4.72-4.33-1.66-15.35 6.84-24.62 8.5-9.28 19.22-13.29 23.94-8.96 4.72 4.33 1.66 15.35-6.84 24.62Z"/>
</g>
<g id="a40">
  <path d="M37.84 27.8v.27a7.26 7.26 0 0 1-7.22 7.23 7.26 7.26 0 0 1-7.23-7.5 7.26 7.26 0 0 1 7.23-6.96c3.86 0 7.08 3.1 7.22 6.96Z"/>
  <path d="M32 3A26.31 26.31 0 0 0 5.82 29.18l.01.52-.01.04V61h12.76v-9.34c4.06 2.42 8.7 3.7 13.42 3.7a26.3 26.3 0 0 0 26.18-26.18A26.3 26.3 0 0 0 32 3Zm6.62 33.13c-8.5 9.27-19.22 13.29-23.94 8.96-4.72-4.33-1.66-15.35 6.84-24.62 8.5-9.28 19.22-13.29 23.94-8.96 4.72 4.33 1.66 15.35-6.84 24.62Z"/>
</g>
<g id="a41">
  <path d="M37.84 27.8v.27a7.26 7.26 0 0 1-7.22 7.23 7.26 7.26 0 0 1-7.23-7.5 7.26 7.26 0 0 1 7.23-6.96c3.86 0 7.08 3.1 7.22 6.96Z"/>
  <path d="M32 3A26.31 26.31 0 0 0 5.82 29.18l.01.52-.01.04V61h12.76v-9.34c4.06 2.42 8.7 3.7 13.42 3.7a26.3 26.3 0 0 0 26.18-26.18A26.3 26.3 0 0 0 32 3Zm6.62 33.13c-8.5 9.27-19.22 13.29-23.94 8.96-4.72-4.33-1.66-15.35 6.84-24.62 8.5-9.28 19.22-13.29 23.94-8.96 4.72 4.33 1.66 15.35-6.84 24.62Z"/>
</g>
<g id="a42">
  <path d="M37.84 27.8v.27a7.26 7.26 0 0 1-7.22 7.23 7.26 7.26 0 0 1-7.23-7.5 7.26 7.26 0 0 1 7.23-6.96c3.86 0 7.08 3.1 7.22 6.96Z"/>
  <path d="M32 3A26.31 26.31 0 0 0 5.82 29.18l.01.52-.01.04V61h12.76v-9.34c4.06 2.42 8.7 3.7 13.42 3.7a26.3 26.3 0 0 0 26.18-26.18A26.3 26.3 0 0 0 32 3Zm6.62 33.13c-8.5 9.27-19.22 13.29-23.94 8.96-4.72-4.33-1.66-15.35 6.84-24.62 8.5-9.28 19.22-13.29 23.94-8.96 4.72 4.33 1.66 15.35-6.84 24.62Z"/>
</g>
<g id="a43">
  <path d="M37.84 27.8v.27a7.26 7.26 0 0 1-7.22 7.23 7.26 7.26 0 0 1-7.23-7.5 7.26 7.26 0 0 1 7.23-6.96c3.86 0 7.08 3.1 7.22 6.96Z"/>
  <path d="M32 3A26.31 26.31 0 0 0 5.82 29.18l.01.52-.01.04V61h12.76v-9.34c4.06 2.42 8.7 3.7 13.42 3.7a26.3 26.3 0 0 0 26.18-26.18A26.3 26.3 0 0 0 32 3Zm6.62 33.13c-8.5 9.27-19.22 13.29-23.94 8.96-4.72-4.33-1.66-15.35 6.84-24.62 8.5-9.28 19.22-13.29 23.94-8.96 4.72 4.33 1.66 15.35-6.84 24.62Z"/>
</g>
<g id="a44">
  <path d="M37.84 27.8v.27a7.26 7.26 0 0 1-7.22 7.23 7.26 7.26 0 0 1-7.23-7.5 7.26 7.26 0 0 1 7.23-6.96c3.86 0 7.08 3.1 7.22 6.96Z"/>
  <path d="M32 3A26.31 26.31 0 0 0 5.82 29.18l.01.52-.01.04V61h12.76v-9.34c4.06 2.42 8.7 3.7 13.42 3.7a26.3 26.3 0 0 0 26.18-26.18A26.3 26.3 0 0 0 32 3Zm6.62 33.13c-8.5 9.27-19.22 13.29-23.94 8.96-4.72-4.33-1.66-15.35 6.84-24.62 8.5-9.28 19.22-13.29 23.94-8.96 4.72 4.33 1.66 15.35-6.84 24.62Z"/>
</g>
<g id="a45">
  <path d="M37.84 27.8v.27a7.26 7.26 0 0 1-7.22 7.23 7.26 7.26 0 0 1-7.23-7.5 7.26 7.26 0 0 1 7.23-6.96c3.86 0 7.08 3.1 7.22 6.96Z"/>
  <path d="M32 3A26.31 26.31 0 0 0 5.82 29.18l.01.52-.01.04V61h12.76v-9.34c4.06 2.42 8.7 3.7 13.42 3.7a26.3 26.3 0 0 0 26.18-26.18A26.3 26.3 0 0 0 32 3Zm4.53 30.83c-8.5 9.27-18.32 14.5-21.85 11.26-3.53-3.24.69-13.59 9.18-22.86 8.5-9.27 18.1-13.93 21.6-10.72 3.5 3.2-.44 13.05-8.93 22.32Z"/>
</g>
<g id="a46">
  <path d="M37.84 27.8v.27a7.26 7.26 0 0 1-7.22 7.23 7.26 7.26 0 0 1-7.23-7.5 7.26 7.26 0 0 1 7.23-6.96c3.86 0 7.08 3.1 7.22 6.96Z"/>
  <path d="M32 3A26.31 26.31 0 0 0 5.82 29.18l.01.52-.01.04V61h12.76v-9.34c4.06 2.42 8.7 3.7 13.42 3.7a26.3 26.3 0 0 0 26.18-26.18A26.3 26.3 0 0 0 32 3Zm.65 26.56c-8.5 9.27-16.66 16.74-17.97 15.54-1.32-1.23 5.03-10.33 13.53-19.6 8.5-9.27 16.01-15.12 17.25-13.99 1.24 1.13-4.32 8.78-12.81 18.05Z"/>
</g>
<g id="a47">
  <path d="M37.84 27.8v.27a7.26 7.26 0 0 1-7.22 7.23 7.26 7.26 0 0 1-7.23-7.5 7.26 7.26 0 0 1 7.23-6.96c3.86 0 7.08 3.1 7.22 6.96Z"/>
  <path d="M32 3A26.31 26.31 0 0 0 5.82 29.18l.01.52-.01.04V61h12.76v-9.34c4.06 2.42 8.7 3.7 13.42 3.7a26.3 26.3 0 0 0 26.18-26.18A26.3 26.3 0 0 0 32 3Zm-1.45 24.26c-8.5 9.27-15.75 17.94-15.87 17.83-.13-.14 7.38-8.56 15.87-17.83a626.3 626.3 0 0 1 14.9-15.75c.03.02-6.4 6.48-14.9 15.75Z"/>
</g>
<g id="a48">
  <path d="M37.84 27.8v.27a7.26 7.26 0 0 1-7.22 7.23 7.26 7.26 0 0 1-7.23-7.5 7.26 7.26 0 0 1 7.23-6.96c3.86 0 7.08 3.1 7.22 6.96Z"/>
  <path d="M32 3A26.31 26.31 0 0 0 5.82 29.18l.01.52-.01.04V61h12.76v-9.34c4.06 2.42 8.7 3.7 13.42 3.7a26.3 26.3 0 0 0 26.18-26.18A26.3 26.3 0 0 0 32 3Zm.65 26.56c-8.5 9.27-16.66 16.74-17.97 15.54-1.32-1.23 5.03-10.33 13.53-19.6 8.5-9.27 16.01-15.12 17.25-13.99 1.24 1.13-4.32 8.78-12.81 18.05Z"/>
</g>
<g id="a49">
  <path d="M37.84 27.8v.27a7.26 7.26 0 0 1-7.22 7.23 7.26 7.26 0 0 1-7.23-7.5 7.26 7.26 0 0 1 7.23-6.96c3.86 0 7.08 3.1 7.22 6.96Z"/>
  <path d="M32 3A26.31 26.31 0 0 0 5.82 29.18l.01.52-.01.04V61h12.76v-9.34c4.06 2.42 8.7 3.7 13.42 3.7a26.3 26.3 0 0 0 26.18-26.18A26.3 26.3 0 0 0 32 3Zm4.53 30.83c-8.5 9.27-18.32 14.5-21.85 11.26-3.53-3.24.69-13.59 9.18-22.86 8.5-9.27 18.1-13.93 21.6-10.72 3.5 3.2-.44 13.05-8.93 22.32Z"/>
</g>
<g id="a50">
  <path d="M37.84 27.8v.27a7.26 7.26 0 0 1-7.22 7.23 7.26 7.26 0 0 1-7.23-7.5 7.26 7.26 0 0 1 7.23-6.96c3.86 0 7.08 3.1 7.22 6.96Z"/>
  <path d="M32 3A26.31 26.31 0 0 0 5.82 29.18l.01.52-.01.04V61h12.76v-9.34c4.06 2.42 8.7 3.7 13.42 3.7a26.3 26.3 0 0 0 26.18-26.18A26.3 26.3 0 0 0 32 3Zm6.62 33.13c-8.5 9.27-19.22 13.29-23.94 8.96-4.72-4.33-1.66-15.35 6.84-24.62 8.5-9.28 19.22-13.29 23.94-8.96 4.72 4.33 1.66 15.35-6.84 24.62Z"/>
</g>
<style>
/* <![CDATA[ */

#a1 {animation-name: a1}
#a2 {animation-name: a2}
#a3 {animation-name: a3}
#a4 {animation-name: a4}
#a5 {animation-name: a5}
#a6 {animation-name: a6}
#a7 {animation-name: a7}
#a8 {animation-name: a8}
#a9 {animation-name: a9}
#a10 {animation-name: a10}
#a11 {animation-name: a11}
#a12 {animation-name: a12}
#a13 {animation-name: a13}
#a14 {animation-name: a14}
#a15 {animation-name: a15}
#a16 {animation-name: a16}
#a17 {animation-name: a17}
#a18 {animation-name: a18}
#a19 {animation-name: a19}
#a20 {animation-name: a20}
#a21 {animation-name: a21}
#a22 {animation-name: a22}
#a23 {animation-name: a23}
#a24 {animation-name: a24}
#a25 {animation-name: a25}
#a26 {animation-name: a26}
#a27 {animation-name: a27}
#a28 {animation-name: a28}
#a29 {animation-name: a29}
#a30 {animation-name: a30}
#a31 {animation-name: a31}
#a32 {animation-name: a32}
#a33 {animation-name: a33}
#a34 {animation-name: a34}
#a35 {animation-name: a35}
#a36 {animation-name: a36}
#a37 {animation-name: a37}
#a38 {animation-name: a38}
#a39 {animation-name: a39}
#a40 {animation-name: a40}
#a41 {animation-name: a41}
#a42 {animation-name: a42}
#a43 {animation-name: a43}
#a44 {animation-name: a44}
#a45 {animation-name: a45}
#a46 {animation-name: a46}
#a47 {animation-name: a47}
#a48 {animation-name: a48}
#a49 {animation-name: a49}
#a50 {animation-name: a50}

@keyframes a1 {0.00%{visibility: visible} 2.00%{visibility: hidden}}
@keyframes a2 {2.00%{visibility: visible} 4.00%{visibility: hidden}}
@keyframes a3 {4.00%{visibility: visible} 6.00%{visibility: hidden}}
@keyframes a4 {6.00%{visibility: visible} 8.00%{visibility: hidden}}
@keyframes a5 {8.00%{visibility: visible} 10.00%{visibility: hidden}}
@keyframes a6 {10.00%{visibility: visible} 12.00%{visibility: hidden}}
@keyframes a7 {12.00%{visibility: visible} 14.00%{visibility: hidden}}
@keyframes a8 {14.00%{visibility: visible} 16.00%{visibility: hidden}}
@keyframes a9 {16.00%{visibility: visible} 18.00%{visibility: hidden}}
@keyframes a10 {18.00%{visibility: visible} 20.00%{visibility: hidden}}
@keyframes a11 {20.00%{visibility: visible} 22.00%{visibility: hidden}}
@keyframes a12 {22.00%{visibility: visible} 24.00%{visibility: hidden}}
@keyframes a13 {24.00%{visibility: visible} 26.00%{visibility: hidden}}
@keyframes a14 {26.00%{visibility: visible} 28.00%{visibility: hidden}}
@keyframes a15 {28.00%{visibility: visible} 30.00%{visibility: hidden}}
@keyframes a16 {30.00%{visibility: visible} 32.00%{visibility: hidden}}
@keyframes a17 {32.00%{visibility: visible} 34.00%{visibility: hidden}}
@keyframes a18 {34.00%{visibility: visible} 36.00%{visibility: hidden}}
@keyframes a19 {36.00%{visibility: visible} 38.00%{visibility: hidden}}
@keyframes a20 {38.00%{visibility: visible} 40.00%{visibility: hidden}}
@keyframes a21 {40.00%{visibility: visible} 42.00%{visibility: hidden}}
@keyframes a22 {42.00%{visibility: visible} 44.00%{visibility: hidden}}
@keyframes a23 {44.00%{visibility: visible} 46.00%{visibility: hidden}}
@keyframes a24 {46.00%{visibility: visible} 48.00%{visibility: hidden}}
@keyframes a25 {48.00%{visibility: visible} 50.00%{visibility: hidden}}
@keyframes a26 {50.00%{visibility: visible} 52.00%{visibility: hidden}}
@keyframes a27 {52.00%{visibility: visible} 54.00%{visibility: hidden}}
@keyframes a28 {54.00%{visibility: visible} 56.00%{visibility: hidden}}
@keyframes a29 {56.00%{visibility: visible} 58.00%{visibility: hidden}}
@keyframes a30 {58.00%{visibility: visible} 60.00%{visibility: hidden}}
@keyframes a31 {60.00%{visibility: visible} 62.00%{visibility: hidden}}
@keyframes a32 {62.00%{visibility: visible} 64.00%{visibility: hidden}}
@keyframes a33 {64.00%{visibility: visible} 66.00%{visibility: hidden}}
@keyframes a34 {66.00%{visibility: visible} 68.00%{visibility: hidden}}
@keyframes a35 {68.00%{visibility: visible} 70.00%{visibility: hidden}}
@keyframes a36 {70.00%{visibility: visible} 72.00%{visibility: hidden}}
@keyframes a37 {72.00%{visibility: visible} 74.00%{visibility: hidden}}
@keyframes a38 {74.00%{visibility: visible} 76.00%{visibility: hidden}}
@keyframes a39 {76.00%{visibility: visible} 78.00%{visibility: hidden}}
@keyframes a40 {78.00%{visibility: visible} 80.00%{visibility: hidden}}
@keyframes a41 {80.00%{visibility: visible} 82.00%{visibility: hidden}}
@keyframes a42 {82.00%{visibility: visible} 84.00%{visibility: hidden}}
@keyframes a43 {84.00%{visibility: visible} 86.00%{visibility: hidden}}
@keyframes a44 {86.00%{visibility: visible} 88.00%{visibility: hidden}}
@keyframes a45 {88.00%{visibility: visible} 90.00%{visibility: hidden}}
@keyframes a46 {90.00%{visibility: visible} 92.00%{visibility: hidden}}
@keyframes a47 {92.00%{visibility: visible} 94.00%{visibility: hidden}}
@keyframes a48 {94.00%{visibility: visible} 96.00%{visibility: hidden}}
@keyframes a49 {96.00%{visibility: visible} 98.00%{visibility: hidden}}
@keyframes a50 {98.00%, 100%{visibility: visible}}

/* ]]> */
</style>
</svg>
