<svg xmlns="http://www.w3.org/2000/svg" viewBox="0 0 700 264" style="background: #080B0D">
<style>
/* <![CDATA[ */

#bttn-glow-1, #bttn-glow-2, #bttn-glow-3, #bttn-glow-4,
#line-1-glow, #line-2-glow, #line-3-glow, #line-4-glow {
  opacity: 0;
}

#line-1-glow {
  animation: lglow 4s infinite;
}

#line-2-glow {
  animation: lglow 4s 1s infinite;
}

#line-3-glow {
  animation: lglow 4s 2s infinite;
}

#line-4-glow {
  animation: lglow 4s 3s infinite;
}

@keyframes lglow {
  0%, 50%, 100% {
    opacity: 0;
  }
  25% {
    opacity: 1;
  }
}

#line-1-dot, #line-4-dot,
#line-1-dot-glow, #line-4-dot-glow {
  opacity: 0;
  stroke-width: 6px;
  stroke-linecap: round;
  stroke-dasharray: 0 308;
  stroke-dashoffset: 308;
}

#line-1-dot-glow, #line-4-dot-glow {
  stroke-width: 10px;
}

#line-2-dot, #line-3-dot,
#line-2-dot-glow, #line-3-dot-glow {
  opacity: 0;
  stroke-width: 6px;
  stroke-linecap: round;
  stroke-dasharray: 0 163;
  stroke-dashoffset: 163;
}

#line-2-dot-glow, #line-3-dot-glow {
  stroke-width: 10px;
}

#line-1-dot {
  animation: dot1 5s 0s ease-in-out infinite;
}

#line-2-dot {
  animation: dot2 4.8s 1s ease-in-out infinite;
}

#line-3-dot {
  animation: dot2 5.2s 2s ease-in-out infinite;
}

#line-4-dot {
  animation: dot1 5.4s 3s ease-in-out infinite;
}

#line-1-dot-glow {
  animation: dot1g 5s 0s ease-in-out infinite;
}

#line-2-dot-glow {
  animation: dot2g 4.8s 1s ease-in-out infinite;
}

#line-3-dot-glow {
  animation: dot2g 5.2s 2s ease-in-out infinite;
}

#line-4-dot-glow {
  animation: dot1g 5.4s 3s ease-in-out infinite;
}

#bttn-glow-1 {
  animation: bglow 5s 0s infinite;
}

#bttn-glow-2 {
  animation: bglow 4.8s 1s infinite;
}

#bttn-glow-3 {
  animation: bglow 5.2s 2s infinite;
}

#bttn-glow-4 {
  animation: bglow 5.4s 3s infinite;
}

@keyframes dot1 {
  0% {
    stroke-dashoffset: 308;
  }
  60%, 100% {
    stroke-dashoffset: 0;
  }
  0%, 60%, 100% {
    opacity: 0;
  }
  3%, 57% {
    opacity: 1;
  }
}

@keyframes dot2 {
  0% {
    stroke-dashoffset: 163;
  }
  60%, 100% {
    stroke-dashoffset: 0;
  }
  0%, 60%, 100% {
    opacity: 0;
  }
  3%, 57% {
    opacity: 1;
  }
}

@keyframes dot1g {
  0% {
    stroke-dashoffset: 308;
  }
  60%, 100% {
    stroke-dashoffset: 0;
  }
  0%, 60%, 100% {
    opacity: 0;
  }
  13%, 23%, 33%, 43%, 53% {
    opacity: .2;
  }
  3%, 8%, 18%, 28%, 38%, 48%, 57% {
    opacity: .5;
  }
}

@keyframes dot2g {
  0% {
    stroke-dashoffset: 163;
  }
  60%, 100% {
    stroke-dashoffset: 0;
  }
  0%, 60%, 100% {
    opacity: 0;
  }
  13%, 23%, 33%, 43%, 53% {
    opacity: .2;
  }
  3%, 8%, 18%, 28%, 38%, 48%, 57% {
    opacity: .5;
  }
}

@keyframes bglow {
  0%, 55%, 75%, 100% {
    opacity: 0;
  }
  65% {
    opacity: .7;
  }
}

/* ]]> */
</style>
  <g id="bttn-glow-1" fill="none" stroke="#f9f9f9">
    <rect width="226" height="74" x="237" y="188.5" opacity=".05" rx="25" ry="25"/>
    <rect width="224" height="72" x="238" y="189.5" opacity=".1" rx="24" ry="24"/>
    <rect width="222" height="70" x="239" y="190.5" opacity=".2" rx="23" ry="23"/>
    <rect width="220" height="68" x="240" y="191.5" opacity=".3" rx="22" ry="22"/>
    <rect width="218" height="66" x="241" y="192.5" opacity=".4" rx="21" ry="21"/>
    <rect width="216" height="64" x="242" y="193.5" opacity=".6" rx="20" ry="20"/>
    <rect width="214" height="62" x="243" y="194.5" opacity=".8" rx="19" ry="19"/>
  </g>
  <g id="bttn-glow-2" fill="none" stroke="#f9f9f9">
    <rect width="226" height="74" x="237" y="188.5" opacity=".05" rx="25" ry="25"/>
    <rect width="224" height="72" x="238" y="189.5" opacity=".1" rx="24" ry="24"/>
    <rect width="222" height="70" x="239" y="190.5" opacity=".2" rx="23" ry="23"/>
    <rect width="220" height="68" x="240" y="191.5" opacity=".3" rx="22" ry="22"/>
    <rect width="218" height="66" x="241" y="192.5" opacity=".4" rx="21" ry="21"/>
    <rect width="216" height="64" x="242" y="193.5" opacity=".6" rx="20" ry="20"/>
    <rect width="214" height="62" x="243" y="194.5" opacity=".8" rx="19" ry="19"/>
  </g>
  <g id="bttn-glow-3" fill="none" stroke="#f9f9f9">
    <rect width="226" height="74" x="237" y="188.5" opacity=".05" rx="25" ry="25"/>
    <rect width="224" height="72" x="238" y="189.5" opacity=".1" rx="24" ry="24"/>
    <rect width="222" height="70" x="239" y="190.5" opacity=".2" rx="23" ry="23"/>
    <rect width="220" height="68" x="240" y="191.5" opacity=".3" rx="22" ry="22"/>
    <rect width="218" height="66" x="241" y="192.5" opacity=".4" rx="21" ry="21"/>
    <rect width="216" height="64" x="242" y="193.5" opacity=".6" rx="20" ry="20"/>
    <rect width="214" height="62" x="243" y="194.5" opacity=".8" rx="19" ry="19"/>
  </g>
  <g id="bttn-glow-4" fill="none" stroke="#f9f9f9">
    <rect width="226" height="74" x="237" y="188.5" opacity=".05" rx="25" ry="25"/>
    <rect width="224" height="72" x="238" y="189.5" opacity=".1" rx="24" ry="24"/>
    <rect width="222" height="70" x="239" y="190.5" opacity=".2" rx="23" ry="23"/>
    <rect width="220" height="68" x="240" y="191.5" opacity=".3" rx="22" ry="22"/>
    <rect width="218" height="66" x="241" y="192.5" opacity=".4" rx="21" ry="21"/>
    <rect width="216" height="64" x="242" y="193.5" opacity=".6" rx="20" ry="20"/>
    <rect width="214" height="62" x="243" y="194.5" opacity=".8" rx="19" ry="19"/>
  </g>
  <g id="bttn">
    <rect width="212" height="60" x="244" y="195.5" fill="#606bfa" fill-opacity=".25" stroke="#f9f9f9" rx="18" ry="18"/>
    <path fill="#f9f9f9" d="M274.94 231.5h-2.65l-1.04-2.57h-5.33l-1.06 2.57h-2.65l5.22-12.06h2.29l5.22 12.06Zm-4.61-4.79-1.75-4.3-1.76 4.3h3.51Zm16.86-4.46a3.49 3.49 0 0 1 3.49 3.64v5.62h-2.36v-5.13c0-1.21-.77-1.94-1.76-1.94-1.26 0-2.09.86-2.09 2.75v4.32h-2.38v-5.13c0-1.21-.77-1.94-1.76-1.94-1.26 0-2.05.86-2.05 2.75v4.32h-2.38v-8.98h2.38v.74c.63-.63 1.51-1.01 2.68-1.01s2.3.52 2.95 1.48a4.03 4.03 0 0 1 3.28-1.48Zm14.53.27v8.98h-2.38v-.7c-.76.61-1.75.97-2.97.97-2.29 0-4.41-1.93-4.41-4.75s2.12-4.77 4.41-4.77c1.22 0 2.21.36 2.97.99v-.72h2.38Zm-4.93 7.18c1.28 0 2.56-1.03 2.56-2.68s-1.28-2.7-2.56-2.7c-1.44 0-2.52 1.04-2.52 2.7s1.08 2.68 2.52 2.68Zm14.58-.14v1.94h-7.97v-1.55l4.82-5.49h-4.7v-1.94h7.63v1.58l-4.82 5.45h5.04Zm5.6-7.26c2.63 0 4.84 1.89 4.84 4.72s-2.21 4.72-4.84 4.72-4.9-1.89-4.9-4.72 2.21-4.72 4.9-4.72Zm0 7.4c1.24 0 2.54-1.01 2.54-2.68s-1.3-2.68-2.54-2.68-2.59 1.01-2.59 2.68 1.3 2.68 2.59 2.68Zm11.54-7.45c2.16 0 3.6 1.55 3.6 3.78v5.47h-2.38v-4.97c0-1.26-.72-2.11-1.82-2.11-1.35 0-2.23.9-2.23 3.1v3.98h-2.38v-8.98h2.38v.81c.7-.7 1.64-1.08 2.83-1.08Zm9.66-2.81h4.45c3.98 0 6.62 2.43 6.62 6.03s-2.65 6.03-6.62 6.03h-4.45v-12.06Zm2.45 9.85h2c2.5 0 4.16-1.48 4.16-3.82s-1.66-3.82-4.16-3.82h-2v7.63Zm19.33-6.77v8.98h-2.38v-.7c-.76.61-1.75.97-2.97.97-2.29 0-4.41-1.93-4.41-4.75s2.12-4.77 4.41-4.77c1.22 0 2.21.36 2.97.99v-.72h2.38Zm-4.93 7.18c1.28 0 2.56-1.03 2.56-2.68s-1.28-2.7-2.56-2.7c-1.44 0-2.52 1.04-2.52 2.7s1.08 2.68 2.52 2.68Zm13-.58.68 1.98c-.94.5-1.58.67-2.34.67-2.12 0-3.53-1.12-3.53-3.58v-3.73h-1.93v-1.94h1.93v-2.72h2.38v2.72h2.93v1.94h-2.93v3.55c0 1.08.52 1.55 1.31 1.55.41 0 1.03-.18 1.49-.43Zm10.51-6.6v8.98h-2.38v-.7c-.76.61-1.75.97-2.97.97-2.29 0-4.41-1.93-4.41-4.75s2.12-4.77 4.41-4.77c1.22 0 2.21.36 2.97.99v-.72h2.38Zm-4.93 7.18c1.28 0 2.56-1.03 2.56-2.68s-1.28-2.7-2.56-2.7c-1.44 0-2.52 1.04-2.52 2.7s1.08 2.68 2.52 2.68Zm13.67 1.8h-2.45v-12.06h2.45v12.06Zm7.43-9.25c2.16 0 3.6 1.55 3.6 3.78v5.47h-2.38v-4.97c0-1.26-.72-2.11-1.82-2.11-1.35 0-2.23.9-2.23 3.1v3.98h-2.38v-8.98h2.38v.81c.7-.7 1.64-1.08 2.83-1.08Zm11.44 6.87.68 1.98c-.94.5-1.58.67-2.34.67-2.12 0-3.53-1.12-3.53-3.58v-3.73h-1.93v-1.94h1.93v-2.72h2.38v2.72h2.93v1.94h-2.93v3.55c0 1.08.52 1.55 1.31 1.55.41 0 1.03-.18 1.49-.43Zm10.51-6.6v8.98h-2.38v-.7c-.76.61-1.75.97-2.97.97-2.29 0-4.41-1.93-4.41-4.75s2.12-4.77 4.41-4.77c1.22 0 2.21.36 2.97.99v-.72h2.38Zm-4.93 7.18c1.28 0 2.56-1.03 2.56-2.68s-1.28-2.7-2.56-2.7c-1.44 0-2.52 1.04-2.52 2.7s1.08 2.68 2.52 2.68Zm16.63 1.8h-3.17l-3.53-3.51h-.41v3.51h-2.38v-12.96h2.38v7.11h.43l3.22-3.13h2.99l-4.34 4.3 4.81 4.68Zm8.89-4.66v.81h-6.84c.23 1.3 1.15 2.09 2.25 2.09.7 0 1.58-.09 2.23-1.19l2.12.45c-.79 1.87-2.39 2.77-4.36 2.77-2.54 0-4.61-1.93-4.61-4.75a4.59 4.59 0 1 1 9.19-.18Zm-4.56-2.52c-.9 0-1.93.54-2.21 1.66h4.34a2.1 2.1 0 0 0-2.12-1.66Z"/>
  </g>
  <g id="line-1-glow" fill="#f9f9f9">
    <path d="M348.12 197.84c-.79-.63-79.31-63.5-134.12-88.02-27.05-12.1-63.51-21.61-89.33-27.46-27.88-6.31-49.93-9.86-50.15-9.9l-.99-.16.95-5.93.99.16c.88.14 88.5 14.33 140.98 37.8 55.73 24.93 134.64 88.19 135.43 88.82l.78.63-3.76 4.67-.78-.63Z" opacity=".2"/>
    <path d="M348.75 197.06c-.79-.63-79.38-63.56-134.34-88.15-27.12-12.13-63.65-21.66-89.51-27.52a881.34 881.34 0 0 0-50.21-9.91l.63-3.95c.88.14 88.28 14.27 140.73 37.73 55.43 24.8 134.42 88.05 135.21 88.69l-2.51 3.12Z" opacity=".2"/>
  </g>
  <path id="line-1" fill="none" stroke="#f9f9f9" d="M75 69.5s87.41 13.95 140.23 37.58C271.07 132.06 350 195.5 350 195.5"/>
  <path id="line-1-dot-glow" fill="none" stroke="#f9f9f9" d="M75 69.5s87.41 13.95 140.23 37.58C271.07 132.06 350 195.5 350 195.5"/>
  <path id="line-1-dot" fill="none" stroke="#f9f9f9" d="M75 69.5s87.41 13.95 140.23 37.58C271.07 132.06 350 195.5 350 195.5"/>
  <g id="line-2-glow" fill="#f9f9f9">
    <path d="M347.09 196.22c-.14-.59-14.65-59.12-35.35-84.9-17.13-21.33-53.66-38.93-54.03-39.1l-.9-.43 2.59-5.41.9.43c1.55.74 38.16 18.39 56.12 40.76 9.05 11.27 17.95 29.4 26.45 53.88a418.1 418.1 0 0 1 10.05 33.35l.24.97-.97.24-4.86 1.19-.24-.97Z" opacity=".2"/>
    <path d="M348.06 195.98c-.15-.59-14.77-59.41-35.54-85.29-17.25-21.48-54.01-39.2-54.38-39.38l1.72-3.61c1.54.74 37.95 18.29 55.77 40.49 8.98 11.18 17.82 29.21 26.28 53.58 6.28 18.08 9.99 33.11 10.03 33.26l-3.88.96Z" opacity=".2"/>
  </g>
  <path id="line-2" fill="none" stroke="#f9f9f9" d="M259 69.5s37.33 17.84 55.07 39.93C335.37 135.96 350 195.5 350 195.5"/>
  <path id="line-2-dot-glow" fill="none" stroke="#f9f9f9" d="M259 69.5s37.33 17.84 55.07 39.93C335.37 135.96 350 195.5 350 195.5"/>
  <path id="line-2-dot" fill="none" stroke="#f9f9f9" d="M259 69.5s37.33 17.84 55.07 39.93C335.37 135.96 350 195.5 350 195.5"/>
  <g id="line-3-glow" fill="#f9f9f9">
    <path d="m346.85 196.75.24-.97c.16-.63 3.88-15.55 10.05-33.35 8.5-24.48 17.4-42.61 26.45-53.88 17.96-22.37 54.57-40.02 56.12-40.76l.9-.43 2.59 5.41-.9.43c-.37.18-36.9 17.77-54.03 39.1-20.63 25.69-35.21 84.32-35.35 84.91l-.24.97-5.83-1.43Z" opacity=".2"/>
    <path d="m351.94 196.98-3.88-.96c.04-.15 3.75-15.18 10.03-33.26 8.46-24.37 17.3-42.4 26.28-53.58 17.82-22.2 54.23-39.75 55.77-40.49l1.72 3.61c-.37.18-37.13 17.9-54.38 39.38-20.78 25.88-35.4 84.7-35.54 85.29Z" opacity=".2"/>
  </g>
  <path id="line-3" fill="none" stroke="#f9f9f9" d="M441 70.5s-37.33 17.84-55.07 39.93C364.63 136.96 350 196.5 350 196.5"/>
  <path id="line-3-dot-glow" fill="none" stroke="#f9f9f9" d="M441 70.5s-37.33 17.84-55.07 39.93C364.63 136.96 350 196.5 350 196.5"/>
  <path id="line-3-dot" fill="none" stroke="#f9f9f9" d="M441 70.5s-37.33 17.84-55.07 39.93C364.63 136.96 350 196.5 350 196.5"/>
  <g id="line-4-glow" fill="#f9f9f9">
    <path d="m347.34 193.79.78-.63c.79-.64 79.7-63.89 135.43-88.82 27.5-12.3 64.38-21.93 90.48-27.84 27.84-6.3 49.58-9.82 50.5-9.97l.99-.16.95 5.93-.99.16c-.87.14-87.61 14.15-139.47 37.35-54.92 24.57-133.33 87.39-134.12 88.02l-.78.63-3.76-4.68Z" opacity=".2"/>
    <path d="m351.25 197.06-2.51-3.12c.79-.64 79.78-63.89 135.21-88.69 27.43-12.27 64.24-21.88 90.29-27.77a892.98 892.98 0 0 1 50.43-9.95l.63 3.95c-.87.14-87.76 14.18-139.72 37.43-54.96 24.59-133.55 87.52-134.34 88.15Z" opacity=".2"/>
  </g>
  <path id="line-4" fill="none" stroke="#f9f9f9" d="M625 69.5s-87.41 13.95-140.23 37.58C428.93 132.06 350 195.5 350 195.5"/>
  <path id="line-4-dot-glow" fill="none" stroke="#f9f9f9" d="M625 69.5s-87.41 13.95-140.23 37.58C428.93 132.06 350 195.5 350 195.5"/>
  <path id="line-4-dot" fill="none" stroke="#f9f9f9" d="M625 69.5s-87.41 13.95-140.23 37.58C428.93 132.06 350 195.5 350 195.5"/>
  <circle id="bttn-dot" cx="350" cy="195.5" r="3" fill="#f9f9f9"/>
  <g id="signal-1">
    <path fill="#606bfa" d="M37 1.5h80a35 35 0 1 1 0 70H37a35 35 0 1 1 0-70Z"/>
    <path fill="#f9f9f9" d="M56.75 35.75a4.51 4.51 0 0 0-4.5-4.5h-3.73c-.27-.02-5.03-.35-9.55-4.15-.22-.18-.49-.3-.77-.34a1.4 1.4 0 0 0-.83.13c-.26.12-.48.31-.63.55-.15.24-.24.52-.24.81v15a1.52 1.52 0 0 0 1.7 1.49c.28-.04.55-.15.77-.34a18.28 18.28 0 0 1 8.79-4.06v2.97a1.5 1.5 0 0 0 .67 1.25l1.03.69c.2.13.43.22.67.24.24.03.48 0 .7-.09a1.47 1.47 0 0 0 .91-1.03l1.1-4.16a4.52 4.52 0 0 0 3.92-4.47ZM38 43.24V28.25a19.4 19.4 0 0 0 9.75 4.43v6.14A19.44 19.44 0 0 0 38 43.25Zm12.28.75-1.03-.68v-3.07h2.03l-.99 3.74Zm1.97-5.24h-3v-6h3a3 3 0 0 1 0 6ZM71.98 40.5h-1.76l-.7-1.72h-3.55l-.71 1.72H63.5l3.48-8.04h1.52l3.48 8.04Zm-3.07-3.19-1.16-2.87-1.18 2.87h2.34Zm9.82-5.45v8.64h-1.58v-.47a3.04 3.04 0 0 1-4.92-2.52c0-1.89 1.42-3.18 2.94-3.18.82 0 1.48.24 1.98.66v-3.13h1.58Zm-3.29 7.44c.85 0 1.7-.68 1.7-1.79s-.85-1.8-1.7-1.8c-.96 0-1.68.7-1.68 1.8s.72 1.79 1.68 1.79Zm10.84-7.02c1.63 0 2.87.89 3.18 2.32l-1.63.34c-.12-.76-.78-1.25-1.58-1.25s-1.31.46-1.31 1c0 .41.18.7.8.82l1.73.35c1.31.28 2.11 1.06 2.11 2.3 0 1.56-1.28 2.53-3.19 2.53-1.68 0-3.16-.78-3.36-2.39l1.72-.35c.22.91.89 1.31 1.8 1.31s1.43-.44 1.43-1.02c0-.46-.22-.73-.94-.88l-1.7-.32c-.96-.2-2.11-.73-2.11-2.3 0-1.44 1.18-2.45 3.06-2.45Zm8.3 2.05c1.52 0 2.94 1.3 2.94 3.18s-1.42 3.17-2.94 3.17c-.82 0-1.48-.24-1.98-.65v2.51h-1.58v-8.03h1.58v.48c.5-.42 1.16-.66 1.98-.66Zm-.28 4.97c.96 0 1.68-.68 1.68-1.79s-.72-1.8-1.68-1.8c-.85 0-1.7.7-1.7 1.8s.85 1.79 1.7 1.79Zm10.06-1.91v.54H99.8c.16.86.77 1.39 1.5 1.39.47 0 1.06-.06 1.49-.79l1.42.3a2.96 2.96 0 0 1-2.9 1.85c-1.69 0-3.07-1.28-3.07-3.17s1.38-3.18 3.1-3.18c1.6 0 2.98 1.24 3.04 3.06Zm-3.03-1.68c-.6 0-1.28.36-1.48 1.1h2.89c-.2-.77-.78-1.1-1.42-1.1Zm7.71-1.38c1.44 0 2.4 1.03 2.4 2.52v3.65h-1.58v-3.31c0-.84-.48-1.4-1.21-1.4-.9 0-1.49.6-1.49 2.06v2.65h-1.58v-5.99h1.58v.54a2.54 2.54 0 0 1 1.88-.72Zm9.95-2.47v8.64h-1.58v-.47a3.04 3.04 0 0 1-4.92-2.52c0-1.89 1.42-3.18 2.94-3.18.82 0 1.48.24 1.98.66v-3.13h1.58Zm-3.29 7.44c.85 0 1.7-.68 1.7-1.79s-.85-1.8-1.7-1.8c-.96 0-1.68.7-1.68 1.8s.72 1.79 1.68 1.79Z"/>
  </g>
  <g id="signal-2">
    <path fill="#606bfa" d="M219 1.5h80a35 35 0 1 1 0 70h-80a35 35 0 1 1 0-70Z"/>
    <path fill="#f9f9f9" d="M233.5 29.75v6a.75.75 0 0 1-1.5 0v-4.19l-7.72 7.72a.63.63 0 0 1-.24.16.72.72 0 0 1-.58 0 .78.78 0 0 1-.24-.16L220 36.06l-6.22 6.22a.75.75 0 1 1-1.06-1.06l6.75-6.75a.63.63 0 0 1 .24-.16.72.72 0 0 1 .58 0c.09.04.17.09.24.16l3.22 3.22 7.19-7.19h-4.19a.75.75 0 0 1 0-1.5h6a.75.75 0 0 1 .75.75ZM247 28.35v.05c.66.08 1.4.73 1.4 1.87 0 1.31-.8 2.23-2.59 2.23h-3.97v-8.04h3.96c1.45 0 2.38.89 2.38 2.23 0 1.02-.7 1.57-1.18 1.66Zm-3.53-2.5v1.97h2.04c.65 0 1.08-.41 1.08-1.03 0-.56-.44-.94-.97-.94h-2.15Zm0 5.26h2.16c.73 0 1.1-.4 1.1-1s-.43-1-1.04-1h-2.22v1.99Zm11.93-1.72v.54h-4.56c.16.86.77 1.39 1.5 1.39.47 0 1.06-.06 1.49-.79l1.42.3a2.96 2.96 0 0 1-2.9 1.85c-1.69 0-3.07-1.28-3.07-3.17s1.38-3.18 3.1-3.18c1.6 0 2.98 1.24 3.04 3.06Zm-3.03-1.68c-.6 0-1.28.36-1.48 1.1h2.89c-.2-.77-.78-1.1-1.42-1.1Zm3.73 3.21 1.6-.32c.08.61.61.82 1.24.82.59 0 .94-.26.94-.6 0-.22-.14-.43-.66-.54l-1.22-.25c-1.08-.23-1.69-.84-1.69-1.7 0-1.15.94-1.98 2.45-1.98 1.42 0 2.4.73 2.6 1.78l-1.51.3c-.06-.48-.48-.83-1.14-.83s-.82.31-.82.59c0 .19.07.4.54.5l1.43.31c1.06.23 1.57.89 1.57 1.69 0 1.32-1.07 2-2.63 2-1.32 0-2.53-.52-2.69-1.76Zm10.44 0 .46 1.32a3 3 0 0 1-1.56.44c-1.42 0-2.35-.74-2.35-2.39v-2.48h-1.28v-1.3h1.28V24.7h1.58v1.81h1.96v1.3h-1.96v2.36c0 .72.35 1.03.88 1.03.28 0 .68-.12 1-.29Zm7.17-6.64c1.63 0 2.87.89 3.18 2.32l-1.63.34c-.12-.76-.78-1.25-1.58-1.25s-1.31.46-1.31 1c0 .41.18.7.8.82l1.73.35c1.31.28 2.11 1.06 2.11 2.3 0 1.56-1.28 2.53-3.19 2.53-1.68 0-3.16-.78-3.36-2.39l1.72-.35c.22.91.89 1.31 1.8 1.31s1.43-.44 1.43-1.02c0-.46-.22-.73-.94-.88l-1.7-.32c-.96-.2-2.11-.73-2.11-2.3 0-1.44 1.18-2.45 3.06-2.45Zm10.39 5.11v.54h-4.56c.16.86.77 1.39 1.5 1.39.47 0 1.06-.06 1.49-.79l1.42.3a2.96 2.96 0 0 1-2.9 1.85c-1.69 0-3.07-1.28-3.07-3.17s1.38-3.18 3.1-3.18c1.6 0 2.98 1.24 3.04 3.06Zm-3.03-1.68c-.6 0-1.28.36-1.48 1.1h2.89c-.2-.77-.78-1.1-1.42-1.1Zm5.82 4.79h-1.58v-8.64h1.58v8.64Zm3.27 0h-1.58v-8.64h1.58v8.64Zm7.34-3.11v.54h-4.56c.16.86.77 1.39 1.5 1.39.47 0 1.06-.06 1.49-.79l1.42.3a2.96 2.96 0 0 1-2.9 1.85c-1.69 0-3.07-1.28-3.07-3.17s1.38-3.18 3.1-3.18c1.6 0 2.98 1.24 3.04 3.06Zm-3.04-1.68c-.6 0-1.28.36-1.48 1.1h2.89c-.2-.77-.78-1.1-1.42-1.1Zm7.97-1.28c.16 0 .28 0 .42.05l-.08 1.52h-.35c-1.46 0-2.14.9-2.14 2.57v1.93h-1.58v-5.99h1.58v1.09a2.52 2.52 0 0 1 2.15-1.18ZM248.97 48.5h-1.99l-2.65-2.95h-.85v2.95h-1.63v-8.04h3.85c1.73 0 2.88 1.02 2.88 2.54 0 1.34-.9 2.3-2.3 2.51l2.7 2.99Zm-5.5-4.43h2.22c.76 0 1.26-.43 1.26-1.07s-.5-1.07-1.26-1.07h-2.22v2.14Zm12.25-1.56v5.99h-1.58v-.47a3.04 3.04 0 0 1-4.92-2.52c0-1.89 1.42-3.18 2.94-3.18.82 0 1.48.24 1.98.66v-.48h1.58Zm-3.29 4.79c.85 0 1.7-.68 1.7-1.79s-.85-1.8-1.7-1.8c-.96 0-1.68.7-1.68 1.8s.72 1.79 1.68 1.79Zm8.43-4.97c1.44 0 2.4 1.03 2.4 2.52v3.65h-1.58v-3.31c0-.84-.48-1.4-1.21-1.4-.9 0-1.49.6-1.49 2.06v2.65h-1.58v-5.99h1.58v.54a2.54 2.54 0 0 1 1.88-.72Zm10.25 6.17H269l-2.35-2.34h-.28v2.34h-1.58v-8.64h1.58v4.74h.29l2.15-2.09h1.99l-2.89 2.87 3.2 3.12Zm5.71-9.05 1.12.98c-1.32 1.39-1.73 2.54-1.73 4.04s.41 2.64 1.73 4.03l-1.12.97a6.6 6.6 0 0 1 0-10.03Zm7.6 4.9v.05c.66.08 1.4.73 1.4 1.87 0 1.31-.8 2.23-2.59 2.23h-3.97v-8.04h3.96c1.45 0 2.38.89 2.38 2.23 0 1.02-.7 1.57-1.18 1.66Zm-3.53-2.5v1.97h2.04c.65 0 1.08-.41 1.08-1.03 0-.56-.44-.94-.97-.94h-2.15Zm0 5.26h2.16c.73 0 1.1-.4 1.1-1s-.43-1-1.04-1h-2.22v1.99Zm9.23-6.83c1.63 0 2.87.89 3.18 2.32l-1.63.34c-.12-.76-.78-1.25-1.58-1.25s-1.31.46-1.31 1c0 .41.18.7.8.82l1.73.35c1.31.28 2.11 1.06 2.11 2.3 0 1.56-1.28 2.53-3.19 2.53-1.68 0-3.16-.78-3.36-2.39l1.72-.35c.22.91.89 1.31 1.8 1.31s1.43-.44 1.43-1.02c0-.46-.22-.73-.94-.88l-1.7-.32c-.96-.2-2.11-.73-2.11-2.3 0-1.44 1.18-2.45 3.06-2.45Zm11.86 8.22h-1.99l-2.65-2.95h-.85v2.95h-1.63v-8.04h3.85c1.73 0 2.88 1.02 2.88 2.54 0 1.34-.9 2.3-2.3 2.51l2.7 2.99Zm-5.49-4.43h2.22c.76 0 1.26-.43 1.26-1.07s-.5-1.07-1.26-1.07h-2.22v2.14Zm6.09-3.63 1.12-.98a6.57 6.57 0 0 1 0 10.03l-1.12-.97c1.32-1.39 1.73-2.54 1.73-4.03s-.41-2.65-1.73-4.04Z"/>
  </g>
  <g id="signal-3">
    <path fill="#606bfa" d="M401 1.5h80a35 35 0 1 1 0 70h-80a35 35 0 1 1 0-70Z"/>
    <path fill="#f9f9f9" d="M417 43.25h-.75v-15a.75.75 0 0 0-.75-.75h-5.25a.75.75 0 0 0-.75.75V32H405a.75.75 0 0 0-.75.75v3.75h-3.75a.75.75 0 0 0-.75.75v6H399a.75.75 0 0 0 0 1.5h18a.75.75 0 0 0 0-1.5ZM411 29h3.75v14.25H411V29Zm-5.25 4.5h3.75v9.75h-3.75V33.5Zm-4.5 4.5h3v5.25h-3V38ZM433.94 24.46v8.04h-1.63v-3.3h-3.84v3.3h-1.63v-8.04h1.63v3.26h3.84v-3.26h1.63Zm2.57-.68c.55 0 .96.44.96.95s-.41.92-.96.92-.96-.4-.96-.92.4-.95.96-.95Zm.79 8.72h-1.58v-5.99h1.58v5.99Zm1.26-1.58 1.6-.32c.08.61.61.82 1.24.82.59 0 .94-.26.94-.6 0-.22-.14-.43-.66-.54l-1.22-.25c-1.08-.23-1.69-.84-1.69-1.7 0-1.15.94-1.98 2.45-1.98 1.42 0 2.4.73 2.6 1.78l-1.51.3c-.06-.48-.48-.83-1.14-.83s-.82.31-.82.59c0 .19.07.4.54.5l1.43.31c1.06.23 1.57.89 1.57 1.69 0 1.32-1.07 2-2.63 2-1.32 0-2.53-.52-2.69-1.76Zm10.44 0 .46 1.32a3 3 0 0 1-1.56.44c-1.42 0-2.35-.74-2.35-2.39v-2.48h-1.28v-1.3h1.28V24.7h1.58v1.81h1.96v1.3h-1.96v2.36c0 .72.35 1.03.88 1.03.28 0 .68-.12 1-.29Zm3.97-4.55c1.75 0 3.23 1.26 3.23 3.14s-1.48 3.14-3.23 3.14-3.26-1.26-3.26-3.14 1.48-3.14 3.26-3.14Zm0 4.93c.83 0 1.69-.67 1.69-1.79s-.86-1.79-1.69-1.79-1.73.67-1.73 1.79.86 1.79 1.73 1.79Zm8.15-4.87c.16 0 .28 0 .42.05l-.08 1.52h-.35c-1.46 0-2.14.9-2.14 2.57v1.93h-1.58v-5.99h1.58v1.09a2.52 2.52 0 0 1 2.15-1.18Zm2.29-2.65c.55 0 .96.44.96.95s-.41.92-.96.92-.96-.4-.96-.92.4-.95.96-.95Zm.79 8.72h-1.58v-5.99h1.58v5.99Zm4.49-1.27c.7 0 1.26-.34 1.54-1.16l1.46.37a3 3 0 0 1-3 2.24c-1.75 0-3.2-1.28-3.2-3.17s1.45-3.18 3.2-3.18c1.39 0 2.6.86 3 2.21l-1.52.43c-.22-.84-.78-1.19-1.48-1.19-1 0-1.67.71-1.67 1.73s.67 1.72 1.67 1.72Zm10.23-4.72v5.99h-1.58v-.47a3.04 3.04 0 0 1-4.92-2.52c0-1.89 1.42-3.18 2.94-3.18.82 0 1.48.24 1.98.66v-.48h1.58Zm-3.29 4.79c.85 0 1.7-.68 1.7-1.79s-.85-1.8-1.7-1.8c-.96 0-1.68.7-1.68 1.8s.72 1.79 1.68 1.79Zm6.55 1.2h-1.58v-8.64h1.58v8.64Zm-48.42 7.96v4.44c0 2.26-1.38 3.78-3.46 3.78s-3.54-1.52-3.54-3.78v-4.44h1.63v4.44c0 1.34.76 2.22 1.91 2.22 1.09 0 1.82-.88 1.82-2.22v-4.44h1.63Zm5.03 1.87c1.44 0 2.4 1.03 2.4 2.52v3.65h-1.58v-3.31c0-.84-.48-1.4-1.21-1.4-.9 0-1.49.6-1.49 2.06v2.65h-1.58v-5.99h1.58v.54a2.54 2.54 0 0 1 1.88-.72Zm4.81-2.55c.55 0 .96.44.96.95s-.41.92-.96.92-.96-.4-.96-.92.4-.95.96-.95Zm.79 8.72h-1.58v-5.99h1.58v5.99Zm5.66-1.58.46 1.32a3 3 0 0 1-1.56.44c-1.42 0-2.35-.74-2.35-2.39v-2.48h-1.28v-1.3h1.28V40.7h1.58v1.81h1.96v1.3h-1.96v2.36c0 .72.35 1.03.88 1.03.28 0 .68-.12 1-.29Zm.8 0 1.6-.32c.08.61.61.82 1.24.82.59 0 .94-.26.94-.6 0-.22-.14-.43-.66-.54l-1.22-.25c-1.08-.23-1.69-.84-1.69-1.7 0-1.15.94-1.98 2.45-1.98 1.42 0 2.4.73 2.6 1.78l-1.51.3c-.06-.48-.48-.83-1.14-.83s-.82.31-.82.59c0 .19.07.4.54.5l1.43.31c1.06.23 1.57.89 1.57 1.69 0 1.32-1.07 2-2.63 2-1.32 0-2.53-.52-2.69-1.76Zm12.41-6.64c1.63 0 2.87.89 3.18 2.32l-1.63.34c-.12-.76-.78-1.25-1.58-1.25s-1.31.46-1.31 1c0 .41.18.7.8.82l1.73.35c1.31.28 2.11 1.06 2.11 2.3 0 1.56-1.28 2.53-3.19 2.53-1.68 0-3.16-.78-3.36-2.39l1.72-.35c.22.91.89 1.31 1.8 1.31s1.43-.44 1.43-1.02c0-.46-.22-.73-.94-.88l-1.7-.32c-.96-.2-2.11-.73-2.11-2.3 0-1.44 1.18-2.45 3.06-2.45Zm7.52 2.09c1.75 0 3.23 1.26 3.23 3.14s-1.48 3.14-3.23 3.14-3.26-1.26-3.26-3.14 1.48-3.14 3.26-3.14Zm0 4.93c.83 0 1.69-.67 1.69-1.79s-.86-1.79-1.69-1.79-1.73.67-1.73 1.79.86 1.79 1.73 1.79Zm6.01 1.2h-1.58v-8.64h1.58v8.64Zm7.71-8.64v8.64h-1.58v-.47a3.04 3.04 0 0 1-4.92-2.52c0-1.89 1.42-3.18 2.94-3.18.82 0 1.48.24 1.98.66v-3.13h1.58Zm-3.29 7.44c.85 0 1.7-.68 1.7-1.79s-.85-1.8-1.7-1.8c-.96 0-1.68.7-1.68 1.8s.72 1.79 1.68 1.79Z"/>
  </g>
  <g id="signal-4">
    <path fill="#606bfa" d="M583 1.5h80a35 35 0 1 1 0 70h-80a35 35 0 1 1 0-70Z"/>
    <path fill="#f9f9f9" d="M577.5 29.75a3.04 3.04 0 0 0-2.77 1.86 2.97 2.97 0 0 0 2.19 4.09 3.03 3.03 0 0 0 3.59-2.94 3 3 0 0 0-3-3Zm0 4.5a1.5 1.5 0 0 1-1.38-.92 1.61 1.61 0 0 1-.09-.87c.06-.29.2-.56.41-.77.21-.21.48-.35.77-.41a1.5 1.5 0 0 1 1.79 1.47 1.5 1.5 0 0 1-1.5 1.5Zm0 3a3.04 3.04 0 0 0-2.77 1.86 2.97 2.97 0 0 0 2.19 4.09 3.03 3.03 0 0 0 3.59-2.94 3 3 0 0 0-3-3Zm0 4.5a1.5 1.5 0 0 1-1.38-.92 1.61 1.61 0 0 1-.09-.87c.06-.29.2-.56.41-.77.21-.21.48-.35.77-.41a1.5 1.5 0 0 1 1.79 1.47 1.5 1.5 0 0 1-1.5 1.5Zm8.25-3.75h-1.5v-6h1.5a.75.75 0 0 0 0-1.5h-1.5v-2.25a1.5 1.5 0 0 0-1.5-1.5h-10.5a1.5 1.5 0 0 0-1.5 1.5v2.25h-1.5a.75.75 0 0 0 0 1.5h1.5v6h-1.5a.75.75 0 0 0 0 1.5h1.5v5.25a1.5 1.5 0 0 0 1.5 1.5h10.5a1.5 1.5 0 0 0 1.5-1.5V39.5h1.5a.75.75 0 0 0 0-1.5Zm-3 6.75h-10.5v-16.5h10.5v16.5ZM603.47 32.5h-1.99l-2.65-2.95h-.85v2.95h-1.63v-8.04h3.85c1.73 0 2.88 1.02 2.88 2.54 0 1.34-.9 2.3-2.3 2.51l2.7 2.99Zm-5.5-4.43h2.22c.76 0 1.26-.43 1.26-1.07s-.5-1.07-1.26-1.07h-2.22v2.14Zm11.87 1.32v.54h-4.56c.16.86.77 1.39 1.5 1.39.47 0 1.06-.06 1.49-.79l1.42.3a2.96 2.96 0 0 1-2.9 1.85c-1.69 0-3.07-1.28-3.07-3.17s1.38-3.18 3.1-3.18c1.6 0 2.98 1.24 3.04 3.06Zm-3.03-1.68c-.6 0-1.28.36-1.48 1.1h2.89c-.2-.77-.78-1.1-1.42-1.1Zm10.26-1.2v5.99h-1.58v-.47a3.04 3.04 0 0 1-4.92-2.52c0-1.89 1.42-3.18 2.94-3.18.82 0 1.48.24 1.98.66v-.48h1.58Zm-3.29 4.79c.85 0 1.7-.68 1.7-1.79s-.85-1.8-1.7-1.8c-.96 0-1.68.7-1.68 1.8s.72 1.79 1.68 1.79Zm6.55 1.2h-1.58v-8.64h1.58v8.64Zm5.5-2.38h-3.94v-1.37h3.94v1.37Zm6.99-4.18h-2.68v6.56h-1.63v-6.56h-2.68v-1.48h6.98v1.48Zm1.96-2.16c.55 0 .96.44.96.95s-.41.92-.96.92-.96-.4-.96-.92.4-.95.96-.95Zm.79 8.72h-1.58v-5.99h1.58v5.99Zm9.29-6.17c1.25 0 2.33.96 2.33 2.42v3.74h-1.57v-3.42c0-.8-.52-1.3-1.18-1.3-.84 0-1.39.58-1.39 1.84v2.88h-1.58v-3.42c0-.8-.52-1.3-1.18-1.3-.84 0-1.37.58-1.37 1.84v2.88h-1.58V26.5h1.58v.49c.42-.42 1.01-.67 1.79-.67s1.54.35 1.97.98a2.68 2.68 0 0 1 2.18-.98Zm9.52 3.06v.54h-4.56c.16.86.77 1.39 1.5 1.39.47 0 1.06-.06 1.49-.79l1.42.3a2.96 2.96 0 0 1-2.9 1.85c-1.69 0-3.07-1.28-3.07-3.17s1.38-3.18 3.1-3.18c1.6 0 2.98 1.24 3.04 3.06Zm-3.04-1.68c-.6 0-1.28.36-1.48 1.1h2.89c-.2-.77-.78-1.1-1.42-1.1Zm-48.62 14.23h-2.68v6.56h-1.63v-6.56h-2.68v-1.48h6.98v1.48Zm4.45.49c.16 0 .28 0 .42.05l-.08 1.52h-.35c-1.46 0-2.14.9-2.14 2.57v1.93h-1.58v-5.99h1.58v1.09a2.52 2.52 0 0 1 2.15-1.18Zm7.38.08v5.99h-1.58v-.47a3.04 3.04 0 0 1-4.92-2.52c0-1.89 1.42-3.18 2.94-3.18.82 0 1.48.24 1.98.66v-.48h1.58Zm-3.29 4.79c.85 0 1.7-.68 1.7-1.79s-.85-1.8-1.7-1.8c-.96 0-1.68.7-1.68 1.8s.72 1.79 1.68 1.79Zm6.86-4.79h1.81v1.3h-1.81v4.69h-1.58v-4.69h-.91v-1.3h.91v-.54c0-1.4.96-2.27 2.36-2.27.38 0 .73.07 1.07.23l-.36 1.28a2.07 2.07 0 0 0-.6-.11c-.52 0-.89.3-.89.86v.54Zm8.28 0v5.99h-1.58v-4.69h-2.5v4.69h-1.58v-4.69h-.91v-1.3h.91v-.54c0-1.4.96-2.27 2.4-2.27.38 0 .73.07 1.07.22l-.35 1.28c-.22-.06-.43-.1-.61-.1-.55 0-.92.3-.92.86v.54h4.08Zm-.79-.86c-.56 0-.96-.4-.96-.92s.4-.95.96-.95.96.44.96.95-.41.92-.96.92Zm5.27 5.58c.7 0 1.26-.34 1.54-1.16l1.46.37a3 3 0 0 1-3 2.24c-1.75 0-3.2-1.28-3.2-3.17s1.45-3.18 3.2-3.18c1.39 0 2.6.86 3 2.21l-1.52.43c-.22-.84-.78-1.19-1.48-1.19-1 0-1.67.71-1.67 1.73s.67 1.72 1.67 1.72Zm10.07-6.95c1.63 0 2.87.89 3.18 2.32l-1.63.34c-.12-.76-.78-1.25-1.58-1.25s-1.31.46-1.31 1c0 .41.18.7.8.82l1.73.35c1.31.28 2.11 1.06 2.11 2.3 0 1.56-1.28 2.53-3.19 2.53-1.68 0-3.16-.78-3.36-2.39l1.72-.35c.22.91.89 1.31 1.8 1.31s1.43-.44 1.43-1.02c0-.46-.22-.73-.94-.88l-1.7-.32c-.96-.2-2.11-.73-2.11-2.3 0-1.44 1.18-2.45 3.06-2.45Zm5.61-.5c.55 0 .96.44.96.95s-.41.92-.96.92-.96-.4-.96-.92.4-.95.96-.95Zm.8 8.72h-1.58v-5.99h1.58v5.99Zm7.59-5.99v5.41c.01 1.84-1.26 2.86-3.19 2.86-1.39 0-2.4-.49-2.92-1.32l1.28-.97c.47.59.85.86 1.63.86 1.01 0 1.67-.62 1.67-1.67v-.1c-.44.36-1.06.55-1.88.55-1.5 0-2.9-1.27-2.9-2.92s1.4-2.89 2.9-2.89c.83 0 1.44.2 1.88.55v-.37h1.52Zm-3.13 4.27c.84 0 1.61-.62 1.61-1.56s-.77-1.56-1.61-1.56c-.95 0-1.66.62-1.66 1.56s.71 1.56 1.66 1.56Zm8.29-4.45c1.44 0 2.4 1.03 2.4 2.52v3.65h-1.58v-3.31c0-.84-.48-1.4-1.21-1.4-.9 0-1.49.6-1.49 2.06v2.65h-1.58v-5.99h1.58v.54a2.54 2.54 0 0 1 1.88-.72Zm9.95.18v5.99h-1.58v-.47a3.04 3.04 0 0 1-4.92-2.52c0-1.89 1.42-3.18 2.94-3.18.82 0 1.48.24 1.98.66v-.48h1.58Zm-3.28 4.79c.85 0 1.7-.68 1.7-1.79s-.85-1.8-1.7-1.8c-.96 0-1.68.7-1.68 1.8s.72 1.79 1.68 1.79Zm6.54 1.2h-1.58v-8.64h1.58v8.64Zm1.18-1.58 1.6-.32c.08.61.61.82 1.24.82.59 0 .94-.26.94-.6 0-.22-.14-.43-.66-.54l-1.22-.25c-1.08-.23-1.69-.84-1.69-1.7 0-1.15.94-1.98 2.45-1.98 1.42 0 2.4.73 2.6 1.78l-1.51.3c-.06-.48-.48-.83-1.14-.83s-.82.31-.82.59c0 .19.07.4.54.5l1.43.31c1.06.23 1.57.89 1.57 1.69 0 1.32-1.07 2-2.63 2-1.32 0-2.53-.52-2.69-1.76Z"/>
  </g>
</svg>
