<?xml version="1.0" encoding="UTF-8"?>
<svg xmlns="http://www.w3.org/2000/svg" version="1.1" viewBox="0 0 700 264">
  <!-- Generator: Adobe Illustrator 29.0.0, SVG Export Plug-In . SVG Version: 2.1.0 Build 186)  -->
  <g id="bttn-glow">
    <rect x="237" y="188.5" width="226" height="74" rx="25" ry="25" fill="none" opacity=".05" stroke="#f9f9f9"/>
    <rect x="238" y="189.5" width="224" height="72" rx="24" ry="24" fill="none" opacity=".1" stroke="#f9f9f9"/>
    <rect x="239" y="190.5" width="222" height="70" rx="23" ry="23" fill="none" opacity=".2" stroke="#f9f9f9"/>
    <rect x="240" y="191.5" width="220" height="68" rx="22" ry="22" fill="none" opacity=".3" stroke="#f9f9f9"/>
    <rect x="241" y="192.5" width="218" height="66" rx="21" ry="21" fill="none" opacity=".4" stroke="#f9f9f9"/>
    <rect x="242" y="193.5" width="216" height="64" rx="20" ry="20" fill="none" opacity=".6" stroke="#f9f9f9"/>
    <rect x="243" y="194.5" width="214" height="62" rx="19" ry="19" fill="none" opacity=".8" stroke="#f9f9f9"/>
  </g>
  <g id="bttn">
    <rect x="244" y="195.5" width="212" height="60" rx="18" ry="18" fill="#606bfa" fill-opacity=".25" stroke="#f9f9f9"/>
    <path d="M274.94,231.5h-2.65l-1.04-2.57h-5.33l-1.06,2.57h-2.65l5.22-12.06h2.29l5.22,12.06ZM270.33,226.71l-1.75-4.3-1.76,4.3h3.51ZM287.19,222.25c1.87,0,3.49,1.44,3.49,3.64v5.62h-2.36v-5.13c0-1.21-.77-1.94-1.76-1.94-1.26,0-2.09.86-2.09,2.75v4.32h-2.38v-5.13c0-1.21-.77-1.94-1.76-1.94-1.26,0-2.05.86-2.05,2.75v4.32h-2.38v-8.98h2.38v.74c.63-.63,1.51-1.01,2.68-1.01s2.3.52,2.95,1.48c.74-.92,1.84-1.48,3.28-1.48ZM301.72,222.52v8.98h-2.38v-.7c-.76.61-1.75.97-2.97.97-2.29,0-4.41-1.93-4.41-4.75s2.12-4.77,4.41-4.77c1.22,0,2.21.36,2.97.99v-.72h2.38ZM296.79,229.7c1.28,0,2.56-1.03,2.56-2.68s-1.28-2.7-2.56-2.7c-1.44,0-2.52,1.04-2.52,2.7s1.08,2.68,2.52,2.68ZM311.37,229.56v1.94h-7.97v-1.55l4.82-5.49h-4.7v-1.94h7.63v1.58l-4.82,5.45h5.04ZM316.97,222.3c2.63,0,4.84,1.89,4.84,4.72s-2.21,4.72-4.84,4.72-4.9-1.89-4.9-4.72,2.21-4.72,4.9-4.72ZM316.97,229.7c1.24,0,2.54-1.01,2.54-2.68s-1.3-2.68-2.54-2.68-2.59,1.01-2.59,2.68,1.3,2.68,2.59,2.68ZM328.51,222.25c2.16,0,3.6,1.55,3.6,3.78v5.47h-2.38v-4.97c0-1.26-.72-2.11-1.82-2.11-1.35,0-2.23.9-2.23,3.1v3.98h-2.38v-8.98h2.38v.81c.7-.7,1.64-1.08,2.83-1.08ZM338.17,219.44h4.45c3.98,0,6.62,2.43,6.62,6.03s-2.65,6.03-6.62,6.03h-4.45v-12.06ZM340.62,229.29h2c2.5,0,4.16-1.48,4.16-3.82s-1.66-3.82-4.16-3.82h-2v7.63ZM359.95,222.52v8.98h-2.38v-.7c-.76.61-1.75.97-2.97.97-2.29,0-4.41-1.93-4.41-4.75s2.12-4.77,4.41-4.77c1.22,0,2.21.36,2.97.99v-.72h2.38ZM355.02,229.7c1.28,0,2.56-1.03,2.56-2.68s-1.28-2.7-2.56-2.7c-1.44,0-2.52,1.04-2.52,2.7s1.08,2.68,2.52,2.68ZM368.02,229.12l.68,1.98c-.94.5-1.58.67-2.34.67-2.12,0-3.53-1.12-3.53-3.58v-3.73h-1.93v-1.94h1.93v-2.72h2.38v2.72h2.93v1.94h-2.93v3.55c0,1.08.52,1.55,1.31,1.55.41,0,1.03-.18,1.49-.43ZM378.53,222.52v8.98h-2.38v-.7c-.76.61-1.75.97-2.97.97-2.29,0-4.41-1.93-4.41-4.75s2.12-4.77,4.41-4.77c1.22,0,2.21.36,2.97.99v-.72h2.38ZM373.6,229.7c1.28,0,2.56-1.03,2.56-2.68s-1.28-2.7-2.56-2.7c-1.44,0-2.52,1.04-2.52,2.7s1.08,2.68,2.52,2.68ZM387.27,231.5h-2.45v-12.06h2.45v12.06ZM394.7,222.25c2.16,0,3.6,1.55,3.6,3.78v5.47h-2.38v-4.97c0-1.26-.72-2.11-1.82-2.11-1.35,0-2.23.9-2.23,3.1v3.98h-2.38v-8.98h2.38v.81c.7-.7,1.64-1.08,2.83-1.08ZM406.14,229.12l.68,1.98c-.94.5-1.58.67-2.34.67-2.12,0-3.53-1.12-3.53-3.58v-3.73h-1.93v-1.94h1.93v-2.72h2.38v2.72h2.93v1.94h-2.93v3.55c0,1.08.52,1.55,1.31,1.55.41,0,1.03-.18,1.49-.43ZM416.65,222.52v8.98h-2.38v-.7c-.76.61-1.75.97-2.97.97-2.29,0-4.41-1.93-4.41-4.75s2.12-4.77,4.41-4.77c1.22,0,2.21.36,2.97.99v-.72h2.38ZM411.72,229.7c1.28,0,2.56-1.03,2.56-2.68s-1.28-2.7-2.56-2.7c-1.44,0-2.52,1.04-2.52,2.7s1.08,2.68,2.52,2.68ZM428.35,231.5h-3.17l-3.53-3.51h-.41v3.51h-2.38v-12.96h2.38v7.11h.43l3.22-3.13h2.99l-4.34,4.3,4.81,4.68ZM437.24,226.84v.81h-6.84c.23,1.3,1.15,2.09,2.25,2.09.7,0,1.58-.09,2.23-1.19l2.12.45c-.79,1.87-2.39,2.77-4.36,2.77-2.54,0-4.61-1.93-4.61-4.75s2.07-4.77,4.64-4.77c2.39,0,4.46,1.85,4.55,4.59ZM432.68,224.32c-.9,0-1.93.54-2.21,1.66h4.34c-.31-1.15-1.17-1.66-2.12-1.66Z" fill="#f9f9f9"/>
  </g>
  <g id="line-1-glow">
    <path d="M348.12,197.84c-.79-.63-79.31-63.5-134.12-88.02-27.05-12.1-63.51-21.61-89.33-27.46-27.88-6.31-49.93-9.86-50.15-9.9l-.99-.16.95-5.93.99.16c.88.14,88.5,14.33,140.98,37.8,55.73,24.93,134.64,88.19,135.43,88.82l.78.63-3.76,4.67-.78-.63Z" fill="#f9f9f9" opacity=".2"/>
    <path d="M348.75,197.06c-.79-.63-79.38-63.56-134.34-88.15-27.12-12.13-63.65-21.66-89.51-27.52-28.07-6.36-49.99-9.88-50.21-9.91l.63-3.95c.88.14,88.28,14.27,140.73,37.73,55.43,24.8,134.42,88.05,135.21,88.69l-2.51,3.12Z" fill="#f9f9f9" opacity=".2"/>
  </g>
  <path id="line-1" d="M75,69.5s87.41,13.95,140.23,37.58c55.84,24.98,134.77,88.42,134.77,88.42" fill="none" stroke="#f9f9f9"/>
  <g id="line-2-glow">
    <path d="M347.09,196.22c-.14-.59-14.65-59.12-35.35-84.9-17.13-21.33-53.66-38.93-54.03-39.1l-.9-.43,2.59-5.41.9.43c1.55.74,38.16,18.39,56.12,40.76,9.05,11.27,17.95,29.4,26.45,53.88,6.18,17.8,9.9,32.72,10.05,33.35l.24.97-.97.24-4.86,1.19-.24-.97Z" fill="#f9f9f9" opacity=".2"/>
    <path d="M348.06,195.98c-.15-.59-14.77-59.41-35.54-85.29-17.25-21.48-54.01-39.2-54.38-39.38l1.72-3.61c1.54.74,37.95,18.29,55.77,40.49,8.98,11.18,17.82,29.21,26.28,53.58,6.28,18.08,9.99,33.11,10.03,33.26l-3.88.96Z" fill="#f9f9f9" opacity=".2"/>
  </g>
  <path id="line-2" d="M259,69.5s37.33,17.84,55.07,39.93c21.3,26.53,35.93,86.07,35.93,86.07" fill="none" stroke="#f9f9f9"/>
  <g id="line-3-glow">
    <path d="M346.85,196.75l.24-.97c.16-.63,3.88-15.55,10.05-33.35,8.5-24.48,17.4-42.61,26.45-53.88,17.96-22.37,54.57-40.02,56.12-40.76l.9-.43,2.59,5.41-.9.43c-.37.18-36.9,17.77-54.03,39.1-20.63,25.69-35.21,84.32-35.35,84.91l-.24.97-5.83-1.43Z" fill="#f9f9f9" opacity=".2"/>
    <path d="M351.94,196.98l-3.88-.96c.04-.15,3.75-15.18,10.03-33.26,8.46-24.37,17.3-42.4,26.28-53.58,17.82-22.2,54.23-39.75,55.77-40.49l1.72,3.61c-.37.18-37.13,17.9-54.38,39.38-20.78,25.88-35.4,84.7-35.54,85.29Z" fill="#f9f9f9" opacity=".2"/>
  </g>
  <path id="line-3" d="M441,70.5s-37.33,17.84-55.07,39.93c-21.3,26.53-35.93,86.07-35.93,86.07" fill="none" stroke="#f9f9f9"/>
  <g id="line-4-glow">
    <path d="M347.34,193.79l.78-.63c.79-.64,79.7-63.89,135.43-88.82,27.5-12.3,64.38-21.93,90.48-27.84,27.84-6.3,49.58-9.82,50.5-9.97l.99-.16.95,5.93-.99.16c-.87.14-87.61,14.15-139.47,37.35-54.92,24.57-133.33,87.39-134.12,88.02l-.78.63-3.76-4.68Z" fill="#f9f9f9" opacity=".2"/>
    <path d="M351.25,197.06l-2.51-3.12c.79-.64,79.78-63.89,135.21-88.69,27.43-12.27,64.24-21.88,90.29-27.77,28.19-6.38,50.22-9.92,50.43-9.95l.63,3.95c-.87.14-87.76,14.18-139.72,37.43-54.96,24.59-133.55,87.52-134.34,88.15Z" fill="#f9f9f9" opacity=".2"/>
  </g>
  <path id="line-4" d="M625,69.5s-87.41,13.95-140.23,37.58c-55.84,24.98-134.77,88.42-134.77,88.42" fill="none" stroke="#f9f9f9"/>
  <circle id="bttn-dot" cx="350" cy="195.5" r="3" fill="#f9f9f9"/>
  <g id="signal-1">
    <path d="M37,1.5h80c19.33,0,35,15.67,35,35h0c0,19.33-15.67,35-35,35H37c-19.33,0-35-15.67-35-35h0C2,17.17,17.67,1.5,37,1.5Z" fill="#606bfa"/>
    <path d="M56.75,35.75c0-1.19-.48-2.34-1.32-3.18-.84-.84-1.99-1.32-3.18-1.32h-3.73c-.27-.02-5.03-.35-9.55-4.15-.22-.18-.49-.3-.77-.34-.28-.04-.57,0-.83.13-.26.12-.48.31-.63.55-.15.24-.24.52-.24.81v15c0,.29.08.57.24.81s.37.43.63.55c.26.12.55.16.83.13.28-.04.55-.15.77-.34,3.54-2.97,7.22-3.82,8.79-4.06v2.97c0,.25.06.49.18.71.12.22.28.4.49.54l1.03.69c.2.13.43.22.67.24.24.03.48,0,.7-.09.22-.09.42-.22.58-.4.16-.18.27-.39.33-.63l1.1-4.16c1.08-.14,2.08-.68,2.8-1.5s1.12-1.88,1.12-2.97ZM38,43.24v-14.99c4.01,3.37,8.12,4.22,9.75,4.43v6.14c-1.63.21-5.73,1.06-9.75,4.43ZM50.28,43.99h0s-1.03-.68-1.03-.68v-3.07h2.03l-.99,3.74ZM52.25,38.75h-3v-6h3c.8,0,1.56.32,2.12.88.56.56.88,1.33.88,2.12s-.32,1.56-.88,2.12-1.33.88-2.12.88Z" fill="#f9f9f9"/>
    <path d="M71.98,40.5h-1.76l-.7-1.72h-3.55l-.71,1.72h-1.76l3.48-8.04h1.52l3.48,8.04ZM68.91,37.31l-1.16-2.87-1.18,2.87h2.34ZM78.73,31.86v8.64h-1.58v-.47c-.5.41-1.16.65-1.98.65-1.52,0-2.94-1.28-2.94-3.17s1.42-3.18,2.94-3.18c.82,0,1.48.24,1.98.66v-3.13h1.58ZM75.44,39.3c.85,0,1.7-.68,1.7-1.79s-.85-1.8-1.7-1.8c-.96,0-1.68.7-1.68,1.8s.72,1.79,1.68,1.79ZM86.28,32.28c1.63,0,2.87.89,3.18,2.32l-1.63.34c-.12-.76-.78-1.25-1.58-1.25s-1.31.46-1.31,1c0,.41.18.7.8.82l1.73.35c1.31.28,2.11,1.06,2.11,2.3,0,1.56-1.28,2.53-3.19,2.53-1.68,0-3.16-.78-3.36-2.39l1.72-.35c.22.91.89,1.31,1.8,1.31s1.43-.44,1.43-1.02c0-.46-.22-.73-.94-.88l-1.7-.32c-.96-.2-2.11-.73-2.11-2.3,0-1.44,1.18-2.45,3.06-2.45ZM94.58,34.33c1.52,0,2.94,1.3,2.94,3.18s-1.42,3.17-2.94,3.17c-.82,0-1.48-.24-1.98-.65v2.51h-1.58v-8.03h1.58v.48c.5-.42,1.16-.66,1.98-.66ZM94.3,39.3c.96,0,1.68-.68,1.68-1.79s-.72-1.8-1.68-1.8c-.85,0-1.7.7-1.7,1.8s.85,1.79,1.7,1.79ZM104.36,37.39v.54h-4.56c.16.86.77,1.39,1.5,1.39.47,0,1.06-.06,1.49-.79l1.42.3c-.53,1.25-1.6,1.85-2.9,1.85-1.69,0-3.07-1.28-3.07-3.17s1.38-3.18,3.1-3.18c1.6,0,2.98,1.24,3.04,3.06ZM101.33,35.71c-.6,0-1.28.36-1.48,1.1h2.89c-.2-.77-.78-1.1-1.42-1.1ZM109.04,34.33c1.44,0,2.4,1.03,2.4,2.52v3.65h-1.58v-3.31c0-.84-.48-1.4-1.21-1.4-.9,0-1.49.6-1.49,2.06v2.65h-1.58v-5.99h1.58v.54c.47-.47,1.09-.72,1.88-.72ZM118.99,31.86v8.64h-1.58v-.47c-.5.41-1.16.65-1.98.65-1.52,0-2.94-1.28-2.94-3.17s1.42-3.18,2.94-3.18c.82,0,1.48.24,1.98.66v-3.13h1.58ZM115.7,39.3c.85,0,1.7-.68,1.7-1.79s-.85-1.8-1.7-1.8c-.96,0-1.68.7-1.68,1.8s.72,1.79,1.68,1.79Z" fill="#f9f9f9"/>
  </g>
  <g id="signal-2">
    <path d="M219,1.5h80c19.33,0,35,15.67,35,35h0c0,19.33-15.67,35-35,35h-80c-19.33,0-35-15.67-35-35h0c0-19.33,15.67-35,35-35Z" fill="#606bfa"/>
    <path d="M233.5,29.75v6c0,.2-.08.39-.22.53-.14.14-.33.22-.53.22s-.39-.08-.53-.22c-.14-.14-.22-.33-.22-.53v-4.19l-7.72,7.72c-.07.07-.15.13-.24.16-.09.04-.19.06-.29.06s-.2-.02-.29-.06c-.09-.04-.17-.09-.24-.16l-3.22-3.22-6.22,6.22c-.14.14-.33.22-.53.22s-.39-.08-.53-.22c-.14-.14-.22-.33-.22-.53s.08-.39.22-.53l6.75-6.75c.07-.07.15-.13.24-.16.09-.04.19-.06.29-.06s.2.02.29.06c.09.04.17.09.24.16l3.22,3.22,7.19-7.19h-4.19c-.2,0-.39-.08-.53-.22-.14-.14-.22-.33-.22-.53s.08-.39.22-.53c.14-.14.33-.22.53-.22h6c.2,0,.39.08.53.22.14.14.22.33.22.53Z" fill="#f9f9f9"/>
    <path d="M247,28.35v.05c.66.08,1.4.73,1.4,1.87,0,1.31-.8,2.23-2.59,2.23h-3.97v-8.04h3.96c1.45,0,2.38.89,2.38,2.23,0,1.02-.7,1.57-1.18,1.66ZM243.47,25.85v1.97h2.04c.65,0,1.08-.41,1.08-1.03,0-.56-.44-.94-.97-.94h-2.15ZM243.47,31.11h2.16c.73,0,1.1-.4,1.1-1s-.43-1-1.04-1h-2.22v1.99ZM255.4,29.39v.54h-4.56c.16.86.77,1.39,1.5,1.39.47,0,1.06-.06,1.49-.79l1.42.3c-.53,1.25-1.6,1.85-2.9,1.85-1.69,0-3.07-1.28-3.07-3.17s1.38-3.18,3.1-3.18c1.6,0,2.98,1.24,3.04,3.06ZM252.37,27.71c-.6,0-1.28.36-1.48,1.1h2.89c-.2-.77-.78-1.1-1.42-1.1ZM256.1,30.92l1.6-.32c.08.61.61.82,1.24.82.59,0,.94-.26.94-.6,0-.22-.14-.43-.66-.54l-1.22-.25c-1.08-.23-1.69-.84-1.69-1.7,0-1.15.94-1.98,2.45-1.98,1.42,0,2.4.73,2.6,1.78l-1.51.3c-.06-.48-.48-.83-1.14-.83s-.82.31-.82.59c0,.19.07.4.54.5l1.43.31c1.06.23,1.57.89,1.57,1.69,0,1.32-1.07,2-2.63,2-1.32,0-2.53-.52-2.69-1.76ZM266.54,30.92l.46,1.32c-.62.34-1.06.44-1.56.44-1.42,0-2.35-.74-2.35-2.39v-2.48h-1.28v-1.3h1.28v-1.81h1.58v1.81h1.96v1.3h-1.96v2.36c0,.72.35,1.03.88,1.03.28,0,.68-.12,1-.29ZM273.71,24.28c1.63,0,2.87.89,3.18,2.32l-1.63.34c-.12-.76-.78-1.25-1.58-1.25s-1.31.46-1.31,1c0,.41.18.7.8.82l1.73.35c1.31.28,2.11,1.06,2.11,2.3,0,1.56-1.28,2.53-3.19,2.53-1.68,0-3.16-.78-3.36-2.39l1.72-.35c.22.91.89,1.31,1.8,1.31s1.43-.44,1.43-1.02c0-.46-.22-.73-.94-.88l-1.7-.32c-.96-.2-2.11-.73-2.11-2.3,0-1.44,1.18-2.45,3.06-2.45ZM284.1,29.39v.54h-4.56c.16.86.77,1.39,1.5,1.39.47,0,1.06-.06,1.49-.79l1.42.3c-.53,1.25-1.6,1.85-2.9,1.85-1.69,0-3.07-1.28-3.07-3.17s1.38-3.18,3.1-3.18c1.6,0,2.98,1.24,3.04,3.06ZM281.07,27.71c-.6,0-1.28.36-1.48,1.1h2.89c-.2-.77-.78-1.1-1.42-1.1ZM286.89,32.5h-1.58v-8.64h1.58v8.64ZM290.16,32.5h-1.58v-8.64h1.58v8.64ZM297.5,29.39v.54h-4.56c.16.86.77,1.39,1.5,1.39.47,0,1.06-.06,1.49-.79l1.42.3c-.53,1.25-1.6,1.85-2.9,1.85-1.69,0-3.07-1.28-3.07-3.17s1.38-3.18,3.1-3.18c1.6,0,2.98,1.24,3.04,3.06ZM294.46,27.71c-.6,0-1.28.36-1.48,1.1h2.89c-.2-.77-.78-1.1-1.42-1.1ZM302.43,26.43c.16,0,.28,0,.42.05l-.08,1.52h-.35c-1.46,0-2.14.9-2.14,2.57v1.93h-1.58v-5.99h1.58v1.09c.48-.7,1.18-1.18,2.15-1.18ZM248.97,48.5h-1.99l-2.65-2.95h-.85v2.95h-1.63v-8.04h3.85c1.73,0,2.88,1.02,2.88,2.54,0,1.34-.9,2.3-2.3,2.51l2.7,2.99ZM243.47,44.07h2.22c.76,0,1.26-.43,1.26-1.07s-.5-1.07-1.26-1.07h-2.22v2.14ZM255.72,42.51v5.99h-1.58v-.47c-.5.41-1.16.65-1.98.65-1.52,0-2.94-1.28-2.94-3.17s1.42-3.18,2.94-3.18c.82,0,1.48.24,1.98.66v-.48h1.58ZM252.43,47.3c.85,0,1.7-.68,1.7-1.79s-.85-1.8-1.7-1.8c-.96,0-1.68.7-1.68,1.8s.72,1.79,1.68,1.79ZM260.86,42.33c1.44,0,2.4,1.03,2.4,2.52v3.65h-1.58v-3.31c0-.84-.48-1.4-1.21-1.4-.9,0-1.49.6-1.49,2.06v2.65h-1.58v-5.99h1.58v.54c.47-.47,1.09-.72,1.88-.72ZM271.11,48.5h-2.11l-2.35-2.34h-.28v2.34h-1.58v-8.64h1.58v4.74h.29l2.15-2.09h1.99l-2.89,2.87,3.2,3.12ZM276.82,39.45l1.12.98c-1.32,1.39-1.73,2.54-1.73,4.04s.41,2.64,1.73,4.03l-1.12.97c-1.62-1.46-2.32-3.16-2.32-5s.7-3.55,2.32-5.03ZM284.42,44.35v.05c.66.08,1.4.73,1.4,1.87,0,1.31-.8,2.23-2.59,2.23h-3.97v-8.04h3.96c1.45,0,2.38.89,2.38,2.23,0,1.02-.7,1.57-1.18,1.66ZM280.89,41.85v1.97h2.04c.65,0,1.08-.41,1.08-1.03,0-.56-.44-.94-.97-.94h-2.15ZM280.89,47.11h2.16c.73,0,1.1-.4,1.1-1s-.43-1-1.04-1h-2.22v1.99ZM290.12,40.28c1.63,0,2.87.89,3.18,2.32l-1.63.34c-.12-.76-.78-1.25-1.58-1.25s-1.31.46-1.31,1c0,.41.18.7.8.82l1.73.35c1.31.28,2.11,1.06,2.11,2.3,0,1.56-1.28,2.53-3.19,2.53-1.68,0-3.16-.78-3.36-2.39l1.72-.35c.22.91.89,1.31,1.8,1.31s1.43-.44,1.43-1.02c0-.46-.22-.73-.94-.88l-1.7-.32c-.96-.2-2.11-.73-2.11-2.3,0-1.44,1.18-2.45,3.06-2.45ZM301.98,48.5h-1.99l-2.65-2.95h-.85v2.95h-1.63v-8.04h3.85c1.73,0,2.88,1.02,2.88,2.54,0,1.34-.9,2.3-2.3,2.51l2.7,2.99ZM296.49,44.07h2.22c.76,0,1.26-.43,1.26-1.07s-.5-1.07-1.26-1.07h-2.22v2.14ZM302.58,40.44l1.12-.98c1.62,1.48,2.32,3.17,2.32,5.03s-.7,3.54-2.32,5l-1.12-.97c1.32-1.39,1.73-2.54,1.73-4.03s-.41-2.65-1.73-4.04Z" fill="#f9f9f9"/>
  </g>
  <g id="signal-3">
    <path d="M401,1.5h80c19.33,0,35,15.67,35,35h0c0,19.33-15.67,35-35,35h-80c-19.33,0-35-15.67-35-35h0c0-19.33,15.67-35,35-35Z" fill="#606bfa"/>
    <path d="M417,43.25h-.75v-15c0-.2-.08-.39-.22-.53-.14-.14-.33-.22-.53-.22h-5.25c-.2,0-.39.08-.53.22-.14.14-.22.33-.22.53v3.75h-4.5c-.2,0-.39.08-.53.22-.14.14-.22.33-.22.53v3.75h-3.75c-.2,0-.39.08-.53.22-.14.14-.22.33-.22.53v6h-.75c-.2,0-.39.08-.53.22-.14.14-.22.33-.22.53s.08.39.22.53c.14.14.33.22.53.22h18c.2,0,.39-.08.53-.22.14-.14.22-.33.22-.53s-.08-.39-.22-.53c-.14-.14-.33-.22-.53-.22ZM411,29h3.75v14.25h-3.75v-14.25ZM405.75,33.5h3.75v9.75h-3.75v-9.75ZM401.25,38h3v5.25h-3v-5.25Z" fill="#f9f9f9"/>
    <path d="M433.94,24.46v8.04h-1.63v-3.3h-3.84v3.3h-1.63v-8.04h1.63v3.26h3.84v-3.26h1.63ZM436.51,23.78c.55,0,.96.44.96.95s-.41.92-.96.92-.96-.4-.96-.92.4-.95.96-.95ZM437.3,32.5h-1.58v-5.99h1.58v5.99ZM438.56,30.92l1.6-.32c.08.61.61.82,1.24.82.59,0,.94-.26.94-.6,0-.22-.14-.43-.66-.54l-1.22-.25c-1.08-.23-1.69-.84-1.69-1.7,0-1.15.94-1.98,2.45-1.98,1.42,0,2.4.73,2.6,1.78l-1.51.3c-.06-.48-.48-.83-1.14-.83s-.82.31-.82.59c0,.19.07.4.54.5l1.43.31c1.06.23,1.57.89,1.57,1.69,0,1.32-1.07,2-2.63,2-1.32,0-2.53-.52-2.69-1.76ZM449,30.92l.46,1.32c-.62.34-1.06.44-1.56.44-1.42,0-2.35-.74-2.35-2.39v-2.48h-1.28v-1.3h1.28v-1.81h1.58v1.81h1.96v1.3h-1.96v2.36c0,.72.35,1.03.88,1.03.28,0,.68-.12,1-.29ZM452.97,26.37c1.75,0,3.23,1.26,3.23,3.14s-1.48,3.14-3.23,3.14-3.26-1.26-3.26-3.14,1.48-3.14,3.26-3.14ZM452.97,31.3c.83,0,1.69-.67,1.69-1.79s-.86-1.79-1.69-1.79-1.73.67-1.73,1.79.86,1.79,1.73,1.79ZM461.12,26.43c.16,0,.28,0,.42.05l-.08,1.52h-.35c-1.46,0-2.14.9-2.14,2.57v1.93h-1.58v-5.99h1.58v1.09c.48-.7,1.18-1.18,2.15-1.18ZM463.41,23.78c.55,0,.96.44.96.95s-.41.92-.96.92-.96-.4-.96-.92.4-.95.96-.95ZM464.2,32.5h-1.58v-5.99h1.58v5.99ZM468.69,31.23c.7,0,1.26-.34,1.54-1.16l1.46.37c-.34,1.37-1.57,2.24-3,2.24-1.75,0-3.2-1.28-3.2-3.17s1.45-3.18,3.2-3.18c1.39,0,2.6.86,3,2.21l-1.52.43c-.22-.84-.78-1.19-1.48-1.19-1,0-1.67.71-1.67,1.73s.67,1.72,1.67,1.72ZM478.92,26.51v5.99h-1.58v-.47c-.5.41-1.16.65-1.98.65-1.52,0-2.94-1.28-2.94-3.17s1.42-3.18,2.94-3.18c.82,0,1.48.24,1.98.66v-.48h1.58ZM475.63,31.3c.85,0,1.7-.68,1.7-1.79s-.85-1.8-1.7-1.8c-.96,0-1.68.7-1.68,1.8s.72,1.79,1.68,1.79ZM482.18,32.5h-1.58v-8.64h1.58v8.64ZM433.76,40.46v4.44c0,2.26-1.38,3.78-3.46,3.78s-3.54-1.52-3.54-3.78v-4.44h1.63v4.44c0,1.34.76,2.22,1.91,2.22,1.09,0,1.82-.88,1.82-2.22v-4.44h1.63ZM438.79,42.33c1.44,0,2.4,1.03,2.4,2.52v3.65h-1.58v-3.31c0-.84-.48-1.4-1.21-1.4-.9,0-1.49.6-1.49,2.06v2.65h-1.58v-5.99h1.58v.54c.47-.47,1.09-.72,1.88-.72ZM443.6,39.78c.55,0,.96.44.96.95s-.41.92-.96.92-.96-.4-.96-.92.4-.95.96-.95ZM444.39,48.5h-1.58v-5.99h1.58v5.99ZM450.05,46.92l.46,1.32c-.62.34-1.06.44-1.56.44-1.42,0-2.35-.74-2.35-2.39v-2.48h-1.28v-1.3h1.28v-1.81h1.58v1.81h1.96v1.3h-1.96v2.36c0,.72.35,1.03.88,1.03.28,0,.68-.12,1-.29ZM450.85,46.92l1.6-.32c.08.61.61.82,1.24.82.59,0,.94-.26.94-.6,0-.22-.14-.43-.66-.54l-1.22-.25c-1.08-.23-1.69-.84-1.69-1.7,0-1.15.94-1.98,2.45-1.98,1.42,0,2.4.73,2.6,1.78l-1.51.3c-.06-.48-.48-.83-1.14-.83s-.82.31-.82.59c0,.19.07.4.54.5l1.43.31c1.06.23,1.57.89,1.57,1.69,0,1.32-1.07,2-2.63,2-1.32,0-2.53-.52-2.69-1.76ZM463.26,40.28c1.63,0,2.87.89,3.18,2.32l-1.63.34c-.12-.76-.78-1.25-1.58-1.25s-1.31.46-1.31,1c0,.41.18.7.8.82l1.73.35c1.31.28,2.11,1.06,2.11,2.3,0,1.56-1.28,2.53-3.19,2.53-1.68,0-3.16-.78-3.36-2.39l1.72-.35c.22.91.89,1.31,1.8,1.31s1.43-.44,1.43-1.02c0-.46-.22-.73-.94-.88l-1.7-.32c-.96-.2-2.11-.73-2.11-2.3,0-1.44,1.18-2.45,3.06-2.45ZM470.78,42.37c1.75,0,3.23,1.26,3.23,3.14s-1.48,3.14-3.23,3.14-3.26-1.26-3.26-3.14,1.48-3.14,3.26-3.14ZM470.78,47.3c.83,0,1.69-.67,1.69-1.79s-.86-1.79-1.69-1.79-1.73.67-1.73,1.79.86,1.79,1.73,1.79ZM476.79,48.5h-1.58v-8.64h1.58v8.64ZM484.5,39.86v8.64h-1.58v-.47c-.5.41-1.16.65-1.98.65-1.52,0-2.94-1.28-2.94-3.17s1.42-3.18,2.94-3.18c.82,0,1.48.24,1.98.66v-3.13h1.58ZM481.21,47.3c.85,0,1.7-.68,1.7-1.79s-.85-1.8-1.7-1.8c-.96,0-1.68.7-1.68,1.8s.72,1.79,1.68,1.79Z" fill="#f9f9f9"/>
  </g>
  <g id="signal-4">
    <path d="M583,1.5h80c19.33,0,35,15.67,35,35h0c0,19.33-15.67,35-35,35h-80c-19.33,0-35-15.67-35-35h0c0-19.33,15.67-35,35-35Z" fill="#606bfa"/>
    <path d="M577.5,29.75c-.59,0-1.17.18-1.67.51-.49.33-.88.8-1.1,1.35-.23.55-.29,1.15-.17,1.73.11.58.4,1.12.82,1.54.42.42.95.71,1.54.82.58.12,1.18.06,1.73-.17.55-.23,1.02-.61,1.35-1.1.33-.49.51-1.07.51-1.67,0-.8-.32-1.56-.88-2.12-.56-.56-1.32-.88-2.12-.88ZM577.5,34.25c-.3,0-.59-.09-.83-.25-.25-.16-.44-.4-.55-.67-.11-.27-.14-.58-.09-.87.06-.29.2-.56.41-.77.21-.21.48-.35.77-.41.29-.06.59-.03.87.09.27.11.51.31.67.55.16.25.25.54.25.83,0,.4-.16.78-.44,1.06-.28.28-.66.44-1.06.44ZM577.5,37.25c-.59,0-1.17.18-1.67.51-.49.33-.88.8-1.1,1.35-.23.55-.29,1.15-.17,1.73.11.58.4,1.12.82,1.54.42.42.95.71,1.54.82.58.12,1.18.06,1.73-.17.55-.23,1.02-.61,1.35-1.1.33-.49.51-1.07.51-1.67,0-.8-.32-1.56-.88-2.12-.56-.56-1.32-.88-2.12-.88ZM577.5,41.75c-.3,0-.59-.09-.83-.25-.25-.16-.44-.4-.55-.67-.11-.27-.14-.58-.09-.87.06-.29.2-.56.41-.77.21-.21.48-.35.77-.41.29-.06.59-.03.87.09.27.11.51.31.67.55.16.25.25.54.25.83,0,.4-.16.78-.44,1.06-.28.28-.66.44-1.06.44ZM585.75,38h-1.5v-6h1.5c.2,0,.39-.08.53-.22.14-.14.22-.33.22-.53s-.08-.39-.22-.53c-.14-.14-.33-.22-.53-.22h-1.5v-2.25c0-.4-.16-.78-.44-1.06-.28-.28-.66-.44-1.06-.44h-10.5c-.4,0-.78.16-1.06.44-.28.28-.44.66-.44,1.06v2.25h-1.5c-.2,0-.39.08-.53.22-.14.14-.22.33-.22.53s.08.39.22.53c.14.14.33.22.53.22h1.5v6h-1.5c-.2,0-.39.08-.53.22-.14.14-.22.33-.22.53s.08.39.22.53c.14.14.33.22.53.22h1.5v5.25c0,.4.16.78.44,1.06.28.28.66.44,1.06.44h10.5c.4,0,.78-.16,1.06-.44.28-.28.44-.66.44-1.06v-5.25h1.5c.2,0,.39-.08.53-.22.14-.14.22-.33.22-.53s-.08-.39-.22-.53c-.14-.14-.33-.22-.53-.22ZM582.75,44.75h-10.5v-16.5h10.5v16.5Z" fill="#f9f9f9"/>
    <path d="M603.47,32.5h-1.99l-2.65-2.95h-.85v2.95h-1.63v-8.04h3.85c1.73,0,2.88,1.02,2.88,2.54,0,1.34-.9,2.3-2.3,2.51l2.7,2.99ZM597.97,28.07h2.22c.76,0,1.26-.43,1.26-1.07s-.5-1.07-1.26-1.07h-2.22v2.14ZM609.84,29.39v.54h-4.56c.16.86.77,1.39,1.5,1.39.47,0,1.06-.06,1.49-.79l1.42.3c-.53,1.25-1.6,1.85-2.9,1.85-1.69,0-3.07-1.28-3.07-3.17s1.38-3.18,3.1-3.18c1.6,0,2.98,1.24,3.04,3.06ZM606.81,27.71c-.6,0-1.28.36-1.48,1.1h2.89c-.2-.77-.78-1.1-1.42-1.1ZM617.07,26.51v5.99h-1.58v-.47c-.5.41-1.16.65-1.98.65-1.52,0-2.94-1.28-2.94-3.17s1.42-3.18,2.94-3.18c.82,0,1.48.24,1.98.66v-.48h1.58ZM613.78,31.3c.85,0,1.7-.68,1.7-1.79s-.85-1.8-1.7-1.8c-.96,0-1.68.7-1.68,1.8s.72,1.79,1.68,1.79ZM620.33,32.5h-1.58v-8.64h1.58v8.64ZM625.83,30.12h-3.94v-1.37h3.94v1.37ZM632.82,25.94h-2.68v6.56h-1.63v-6.56h-2.68v-1.48h6.98v1.48ZM634.78,23.78c.55,0,.96.44.96.95s-.41.92-.96.92-.96-.4-.96-.92.4-.95.96-.95ZM635.57,32.5h-1.58v-5.99h1.58v5.99ZM644.86,26.33c1.25,0,2.33.96,2.33,2.42v3.74h-1.57v-3.42c0-.8-.52-1.3-1.18-1.3-.84,0-1.39.58-1.39,1.84v2.88h-1.58v-3.42c0-.8-.52-1.3-1.18-1.3-.84,0-1.37.58-1.37,1.84v2.88h-1.58v-5.99h1.58v.49c.42-.42,1.01-.67,1.79-.67s1.54.35,1.97.98c.49-.61,1.22-.98,2.18-.98ZM654.38,29.39v.54h-4.56c.16.86.77,1.39,1.5,1.39.47,0,1.06-.06,1.49-.79l1.42.3c-.53,1.25-1.6,1.85-2.9,1.85-1.69,0-3.07-1.28-3.07-3.17s1.38-3.18,3.1-3.18c1.6,0,2.98,1.24,3.04,3.06ZM651.34,27.71c-.6,0-1.28.36-1.48,1.1h2.89c-.2-.77-.78-1.1-1.42-1.1ZM602.72,41.94h-2.68v6.56h-1.63v-6.56h-2.68v-1.48h6.98v1.48ZM607.17,42.43c.16,0,.28,0,.42.05l-.08,1.52h-.35c-1.46,0-2.14.9-2.14,2.57v1.93h-1.58v-5.99h1.58v1.09c.48-.7,1.18-1.18,2.15-1.18ZM614.55,42.51v5.99h-1.58v-.47c-.5.41-1.16.65-1.98.65-1.52,0-2.94-1.28-2.94-3.17s1.42-3.18,2.94-3.18c.82,0,1.48.24,1.98.66v-.48h1.58ZM611.26,47.3c.85,0,1.7-.68,1.7-1.79s-.85-1.8-1.7-1.8c-.96,0-1.68.7-1.68,1.8s.72,1.79,1.68,1.79ZM618.12,42.51h1.81v1.3h-1.81v4.69h-1.58v-4.69h-.91v-1.3h.91v-.54c0-1.4.96-2.27,2.36-2.27.38,0,.73.07,1.07.23l-.36,1.28c-.22-.07-.43-.11-.6-.11-.52,0-.89.3-.89.86v.54ZM626.4,42.51v5.99h-1.58v-4.69h-2.5v4.69h-1.58v-4.69h-.91v-1.3h.91v-.54c0-1.4.96-2.27,2.4-2.27.38,0,.73.07,1.07.22l-.35,1.28c-.22-.06-.43-.1-.61-.1-.55,0-.92.3-.92.86v.54h4.08ZM625.61,41.65c-.56,0-.96-.4-.96-.92s.4-.95.96-.95.96.44.96.95-.41.92-.96.92ZM630.88,47.23c.7,0,1.26-.34,1.54-1.16l1.46.37c-.34,1.37-1.57,2.24-3,2.24-1.75,0-3.2-1.28-3.2-3.17s1.45-3.18,3.2-3.18c1.39,0,2.6.86,3,2.21l-1.52.43c-.22-.84-.78-1.19-1.48-1.19-1,0-1.67.71-1.67,1.73s.67,1.72,1.67,1.72ZM640.95,40.28c1.63,0,2.87.89,3.18,2.32l-1.63.34c-.12-.76-.78-1.25-1.58-1.25s-1.31.46-1.31,1c0,.41.18.7.8.82l1.73.35c1.31.28,2.11,1.06,2.11,2.3,0,1.56-1.28,2.53-3.19,2.53-1.68,0-3.16-.78-3.36-2.39l1.72-.35c.22.91.89,1.31,1.8,1.31s1.43-.44,1.43-1.02c0-.46-.22-.73-.94-.88l-1.7-.32c-.96-.2-2.11-.73-2.11-2.3,0-1.44,1.18-2.45,3.06-2.45ZM646.56,39.78c.55,0,.96.44.96.95s-.41.92-.96.92-.96-.4-.96-.92.4-.95.96-.95ZM647.36,48.5h-1.58v-5.99h1.58v5.99ZM654.95,42.51v5.41c.01,1.84-1.26,2.86-3.19,2.86-1.39,0-2.4-.49-2.92-1.32l1.28-.97c.47.59.85.86,1.63.86,1.01,0,1.67-.62,1.67-1.67v-.1c-.44.36-1.06.55-1.88.55-1.5,0-2.9-1.27-2.9-2.92s1.4-2.89,2.9-2.89c.83,0,1.44.2,1.88.55v-.37h1.52ZM651.82,46.78c.84,0,1.61-.62,1.61-1.56s-.77-1.56-1.61-1.56c-.95,0-1.66.62-1.66,1.56s.71,1.56,1.66,1.56ZM660.11,42.33c1.44,0,2.4,1.03,2.4,2.52v3.65h-1.58v-3.31c0-.84-.48-1.4-1.21-1.4-.9,0-1.49.6-1.49,2.06v2.65h-1.58v-5.99h1.58v.54c.47-.47,1.09-.72,1.88-.72ZM670.06,42.51v5.99h-1.58v-.47c-.5.41-1.16.65-1.98.65-1.52,0-2.94-1.28-2.94-3.17s1.42-3.18,2.94-3.18c.82,0,1.48.24,1.98.66v-.48h1.58ZM666.78,47.3c.85,0,1.7-.68,1.7-1.79s-.85-1.8-1.7-1.8c-.96,0-1.68.7-1.68,1.8s.72,1.79,1.68,1.79ZM673.32,48.5h-1.58v-8.64h1.58v8.64ZM674.5,46.92l1.6-.32c.08.61.61.82,1.24.82.59,0,.94-.26.94-.6,0-.22-.14-.43-.66-.54l-1.22-.25c-1.08-.23-1.69-.84-1.69-1.7,0-1.15.94-1.98,2.45-1.98,1.42,0,2.4.73,2.6,1.78l-1.51.3c-.06-.48-.48-.83-1.14-.83s-.82.31-.82.59c0,.19.07.4.54.5l1.43.31c1.06.23,1.57.89,1.57,1.69,0,1.32-1.07,2-2.63,2-1.32,0-2.53-.52-2.69-1.76Z" fill="#f9f9f9"/>
  </g>
</svg>