<svg xmlns="http://www.w3.org/2000/svg" width="305" height="354" viewBox="0 0 305 354">
<g opacity=".6">
  <path fill="#7ED3F7" d="M136.84 196.39s4.4 106.01-30.83 95.38c-35.21-10.64 15.02-65.24 30.83-95.38z"/>
  <path fill="#4EC9F5" d="M126.65 213.14c-19.96 30.33-50 69.76-20.63 78.63.08.02.15.02.23.05-21.4-11.16 2.49-46.22 20.4-78.68z"/>
  <path fill="#94D9F8" d="M132.14 221.55c-.03-3.13-15.29 27.79-25.41 42.68-8.31 12.23-4.97 18.94 1 22.07 14.45 7.57 24.93-14.58 24.41-64.75z"/>
  <path fill="#C7EAFB" d="M130.75 241.41c3.81-27.85-.16-13.16-4.09-.94-9.14 28.38-16.05 36.65-12.98 39.88 1.67 1.76 4.36.42 5.95-1.32 2.38-2.26 4.18-5.99 5.74-10.27 2.98-8.6 4.28-19.43 5.38-27.35z"/>
  <path fill="#7ED3F7" d="M151.9 196.84S215.68 322.96 184.42 329c-31.26 6.05-32.52-132.16-32.52-132.16z"/>
  <path fill="#4EC9F5" d="m152.08 197.22-.19-.37c.26 28.81 4.88 138.98 33.04 131.99-25.07-4.79-31.73-109.75-32.85-131.62z"/>
  <path fill="#94D9F8" d="M159.44 220.63c17.71 38.46 37.57 78.05 29.5 102.43-.88 2.65-4.89 4.29-8.66.83-8.99-8.23-26.13-73.36-17.6-65.93 7.54 6.57-4.4-18.33-3.24-37.33z"/>
  <path fill="#C7EAFB" d="M173.27 251.9a440.35 440.35 0 0 0-7.71-18.2c-1.83-3.99-2.88-5.93-3.08-5.85-.21.09.42 2.19 1.78 6.36 1.35 4.17 3.43 10.4 6.02 18.75 11.23 35.92 14.12 58.52 14.56 61.09.36 1.68.65 6.98 2.35 7.21 2.96.4 3.18-8.42 3.16-11.43-1.08-17.56-10.15-40.69-17.08-57.93z"/>
  <path fill="#7ED3F7" d="M145.62 304.84s16.04 44.44-6.51 48.43c-22.55 3.99 4.8-34.19 6.51-48.43z"/>
  <path fill="#94D9F8" d="M145.11 320.3c6.04 12.52 5.99 31.05-6.47 31.05-2.64 0-3.8-2.52-3.8-2.53-1.82-3.35 8.21-23.86 10.27-28.52z"/>
  <path fill="#F3FAFD" d="M144.94 324.44c-.35.06-.16 2.18-.66 6.29-1 8.68-5.4 15.05-2.34 16.57 2.04 1.03 3.85-1.4 4.68-5.07 1.73-7.08-.99-17.97-1.68-17.79z"/>
  <path fill="#7ED3F7" d="M67.32 291.58s-5.78 20.31-15 15.87c-9.22-4.44 10.66-11.15 15-15.87z"/>
  <path fill="#94D9F8" d="M63.1 297.06c-1.08 6.12-5.93 12.83-10.45 9.58-.96-.69-.72-1.91-.72-1.91.22-1.69 9.21-6.52 11.17-7.67z"/>
  <path fill="#F3FAFD" d="M61.96 298.51s-2.04 2.65-5.43 5.17c-1.15.88-2.02 1.58-1.62 2.35.47.91 1.76.5 3.02-.62 2.45-2.1 4.32-6.78 4.03-6.9z"/>
  <path fill="#7ED3F7" d="M80.96 293.89s5.85 14.11-1.37 15.74c-7.22 1.62 1.03-11.12 1.37-15.74z"/>
  <path fill="#94D9F8" d="M81.03 298.89c4.47 8.24-1.55 11.94-2.88 9.36-.64-1.05 2.28-7.83 2.88-9.36z"/>
  <path fill="#F3FAFD" d="M81.04 300.23s.04 2.42-.75 5.37c-.25 1.02-.44 1.81.14 2.06.67.3 1.22-.51 1.43-1.71.44-2.3-.6-5.79-.82-5.72z"/>
  <path fill="#7ED3F7" d="M215.59 291.09s.48 47.75 18.14 39.4c17.67-8.36-18.14-39.4-18.14-39.4z"/>
  <path fill="#4EC9F5" d="M215.59 291.09s.48 47.75 18.14 39.4a9.34 9.34 0 0 0 2.99-2.16c-16.66 9.04-21.13-37.24-21.13-37.24z"/>
  <path fill="#94D9F8" d="M218.87 298.65c12.07 8.55 21.75 25.19 14.87 28.45-6.87 3.24-14.05-21.14-14.87-28.45z"/>
  <path fill="#F3FAFD" d="M226.96 308.56c-4.86-6.74-5.03-6.57-1.66.93 3.11 7.49 4.63 11.47 5.85 13.4 1.79 2.63 4.95 1.13 1.77-5.26-1.57-3.13-4.16-6.51-5.96-9.07z"/>
  <path fill="#7ED3F7" d="M118.98 302.51s-27.93 16.14-15.47 23.5c11.9 7.03 15.47-23.5 15.47-23.5z"/>
  <path fill="#94D9F8" d="M116.96 306.09c-1.01 10.61-8.62 22.37-12.67 18.46-4.05-3.91 8.77-15.96 12.67-18.46z"/>
  <path fill="#F3FAFD" d="M113.13 315.58c1.69-4.6 1.52-4.62-1.16-.62-1.04 1.51-2.54 3.44-3.65 4.97-1.13 1.62-1.77 2.4-1.27 3.31.28.54.96.61 1.62.22a5.7 5.7 0 0 0 1.88-2c1.11-1.77 1.92-4.16 2.58-5.88z"/>
  <path fill="#7ED3F7" d="M206.63 180.07s54.72 13.33 68.05-10.15c14.45-25.46-23.88 6.56-68.05 10.15z"/>
  <path fill="#4EC9F5" d="M274.88 160.22c-8.86.66-14.9 17.06-68.25 19.85 0 0 71.01-20.05 68.25-19.85z"/>
  <path fill="#C7EAFB" d="M249.59 177.06c-4.88 1.96-7.42 2.77-7.35 3.22.08.42 2.77.49 8.13-.15 16.67-1.98 21.4-7.24 19.26-9.82-3.3-4.06-9.35 2.47-20.04 6.75z"/>
  <path fill="#7ED3F7" d="M162.46 183.65s23.28 57.3 59.09 82.97 72.82 25.07 81.78 8.36c8.95-16.71-20.29-28.65-35.81-32.83-15.52-4.18-44.77-20.89-38.8-25.67 5.97-4.78 46.56 25.07 59.69 5.37 13.13-19.7-24.47-23.28-40.59-22.68-16.12.59-67.45-6.57-85.36-15.52z"/>
  <path fill="#4EC9F5" d="M286.64 224c-17.55 7.18-53.95-8.95-53.29-7.66 11.98 2.87 40.86 20.49 53.29 7.66z"/>
  <path fill="#94D9F8" d="M206.98 207.34c7.74 1.71 48.55 14.14 67.17 14.14 5.22 0 7.17-1.93 8.29-3.61 11.13-16.69-43.95-8.19-104.47-24.68.6 1.16 21.25 12.43 29.01 14.15z"/>
  <path fill="#94D9F8" d="M180.19 207.34c9.92 16.91 27.83 43.22 44.76 55.36 33.17 23.78 65.13 22.3 71.29 10.8 1.19-2.22.88-3.6.38-4.77-2.96-6.85-18.04-14.85-31.74-17.76-39.49-8.41-61.13-41.33-51.28-18.17 8.48 19.94-31.94-25.05-33.41-25.46z"/>
  <path fill="#4EC9F5" d="M267.52 242.14c-15.52-4.18-44.77-20.89-38.8-25.67-15.82 9.25 28.7 27.98 51.93 33.72 18.72 4.63 24.09 17.79 24.32 18.44-.18-13.37-23.98-22.86-37.45-26.49z"/>
  <g fill="#C7EAFB">
    <path d="M234.02 253.04c-12.27-5.51-18.15-8.99-18.7-8.23-.49.68 4.35 5.62 15.54 13.73 32.76 23.48 51.99 23.23 52.83 16.43.37-3.01-1.45-5.19-4.53-6.74-7.9-4.12-27.38-7.33-45.14-15.19z"/>
    <path d="M228.04 204.04c-19.75-1.92-30.36-3.2-.76 4.37 7.82 2 50.96 13.45 51.35 4.49.19-4.26-7.57-5.56-17.88-6.56-10.32-.92-23.2-1.38-32.71-2.3z"/>
  </g>
  <path fill="#7ED3F7" d="M135.35 181.51s-3.73 11.09-31.18 44.52c-30.02 36.55-74.81 90.73-101.08 65.06-22.51-22 85.95-65.41 70.43-70.18-17.06-5.25-37.6 21.04-49.54 10.15-11.55-10.54 18.9-16.79 46.56-26.86a3441.33 3441.33 0 0 1 64.81-22.69z"/>
  <path fill="#4EC9F5" d="M1.61 289.28c-.44-1.08-3.4-10.25 16.2-24.25 20.89-14.92 48.15-29.65 55.71-35.22 8.79-6.47 6.27-10.73-4.23-9.53 31.35 1.02-83.94 45.09-67.68 69z"/>
  <path fill="#94D9F8" d="M86.26 219.06c3.89 4.62 25.91-13.63 18.37-2.59-21.03 30.79-55.88 79.39-83.04 74.61-50.98-8.96 54-48.65 57.9-67.75s-46.83 12.47-51.63 5.07c-5.46-8.41 46.39-24.79 76.77-31.57 11.69-2.6-22.26 17.61-18.37 22.23z"/>
  <path fill="#C7EAFB" d="M82.03 239.81c-.75-.55-4.77 4.32-14.39 12.08-19.44 15.79-43 22.95-39.27 31.25 2.44 5.47 10.79 3.26 19.79-2.93 15.64-10.5 36.45-38.87 33.87-40.4z"/>
  <path fill="#F3FAFD" d="M57.36 217.98c13.83-8.69 6.45-5.33-1.15-2.26-17.2 6.92-22.97 7.47-22.97 10.13-.01 3.37 6.46 1.68 9.77.32 4.93-2.07 10.32-5.66 14.35-8.19z"/>
  <path fill="#7ED3F7" d="M255.61 300.67s10.31 17.78 17.76 9.47c7.45-8.3-17.76-9.47-17.76-9.47z"/>
  <path fill="#94D9F8" d="M258.92 302.55c8.09-.32 16.64 3.09 13.74 6.32-2.9 3.23-11.77-3.82-13.74-6.32z"/>
  <path fill="#F3FAFD" d="M265.04 303.85c-5.08-1.42-3.16-.72 3.9 3.37 1.41.76 2.09 1.19 2.71.76.81-.56-.3-1.9-1.77-2.51-1.5-.73-3.44-1.2-4.84-1.62z"/>
  <path fill="#7ED3F7" d="M127.6 80.17s-.51-54.11-24.18-51.09c-23.66 3.03 17.27 36 24.18 51.09z"/>
  <path fill="#94D9F8" d="M121.42 63.35c1.36-15.75-5.49-36.09-17.76-31.99-2.59.87-2.81 4.02-2.81 4.02-.56 4.27 16.83 23.52 20.57 27.97z"/>
  <path fill="#F3FAFD" d="M117.07 52.09c2.03 4.38 2.64 6.78 3.03 6.72.35-.05.48-2.59-.5-7.55-2.28-11.81-8.31-19.23-10.92-16.81-3.44 3.16 4.33 8.74 8.39 17.64z"/>
  <path fill="#7ED3F7" d="M196.37 45.22s.59-25.04 13.73-21.51c13.13 3.52-9.81 15.14-13.73 21.51z"/>
  <path fill="#94D9F8" d="M199.89 37.98c-.67-7.42 3.26-16.24 10.05-13.24a2.64 2.64 0 0 1 1.54 2.12c.3 2.03-9.48 9.39-11.59 11.12z"/>
  <path fill="#F3FAFD" d="M200.85 36.04c.19.05.53-1.02 1.64-2.87a25.97 25.97 0 0 1 3.42-4.23c1.14-1.23 2.01-2.2 1.37-3.07-.75-1.03-2.2-.33-3.45 1.23-2.47 2.98-3.43 8.88-2.98 8.94z"/>
  <path fill="#7ED3F7" d="M60.54 56.54s-4.96-24.55-17.29-18.78c-12.31 5.77 12.31 13.19 17.29 18.78z"/>
  <path fill="#94D9F8" d="M55.8 50.02c-.64-7.42-6.05-15.41-12.22-11.27-4.41 2.96 4.27 6.82 12.22 11.27z"/>
  <path fill="#F3FAFD" d="M52.55 45.64c1.43 1.64 1.95 2.65 2.14 2.58.47-.18-1.49-5.7-4.67-8.23-1.54-1.27-3.07-1.69-3.53-.76-.58 1.17.44 1.97 1.82 2.94a22.7 22.7 0 0 1 4.24 3.47z"/>
  <path fill="#7ED3F7" d="M187.93 51.26s10.83-49.4-2.4-51.22 2.4 51.22 2.4 51.22z"/>
  <path fill="#94D9F8" d="M188.72 42.08s7.17-38.45-2.75-39.81c-9.93-1.37 2.75 39.81 2.75 39.81z"/>
  <path fill="#F3FAFD" d="M187.75 25.64c.62 5.25 1.22 14.79 2.28-.06.33-4.48 1.24-22.13-3.17-21.28-3.95.76-.27 11.35.89 21.34z"/>
  <path fill="#4EC9F5" d="M51.71 102.7S32.52 86.71 18.88 78.12c-13.64-8.59 1.51-29.8 18.68-23.23 17.17 6.57 29.81 35.35 33.85 42.93 4.04 7.58 22.22 19.02 34.34 19.7 12.12.67 47.7-5.4 35.86-27.27-13.95-25.76-7.59-57.43 12.63-42.68s-4.4 49.68 11.74 55.14c30.4 10.27 20.88-31.68 36.01-50.34 9.83-12.12 28.01 1.52 20.44 10.1-7.58 8.59 33.84-28.29 49.49-18.44 15.66 9.85-3.54 30.06-21.21 40.66-17.68 10.61-41.92 40.4-63.63 46.46-21.74 6.06-122.32-13.39-135.37-28.45z"/>
  <path fill="#7ED3F7" d="M86.56 157.92c-13.64-13.36-10.61-37.37-32.83-41.41s-33.84 13.13-44.95 0c-15.25-18.03 7.07-41.92 29.29-33.84s26.26 31.31 40.91 27.27c14.65-4.04 15.15-25.76-1.52-33.84-16.67-8.08-8.59-31.31 15.66-19.19 24.24 12.12 12.63 36.87 24.75 46.46 12.12 9.6 35.86 8.59 31.82-9.09-4.04-17.68-14.65-68.68 13.13-65.15 27.78 3.54 5.56 42.42 7.58 56.06 2.02 13.64 15.87 25 25.97 12.88s-1.48-23.99 15.44-23.99c13.13 0-6.57 22.22 0 27.27s27.78-39.9 58.58-40.91c30.81-1.01 44.95 21.21 13.13 31.31-31.82 10.1-40.91 7.58-53.03 18.18-12.12 10.61-25.76 52.52-53.03 60.6s-66.66 11.13-90.9-12.61z"/>
  <path fill="#94D9F8" d="M297.78 84.07a51.8 51.8 0 0 0-7.92 3.24c-9.17 4.61-37.4 4.7-55.9 14.71-18.5 10.01-25.38 29.3-32.89 35.13-9.84 7.64-65.64.93-92.53 4.72-19.85 2.8-31.44-6.68-36.37-19.94-4.92-13.26-19.32-9.85-32.2-9.85s-13.3 7.95-26.36 0c-11.42-6.95-8.57-15.26-7.67-17.24-3.32 6.6-3.14 14.58 2.85 21.66 11.11 13.13 22.73-4.04 44.95 0 22.22 4.04 19.19 28.06 32.83 41.41 24.24 23.74 63.63 20.71 90.91 12.63s40.91-50 53.03-60.6c15.35-13.45 54.21-12.88 67.27-25.87z"/>
  <path fill="#4EC9F5" d="M149.98 100.15c-2.01 11.9-21.5 11.62-32.11 3.22-4.38-3.47-5.66-8.93-6.65-15.04-.75 11.25 3.41 28.42 20.54 27.33 14.47-.92 17.72-9.5 18.22-15.51z"/>
  <path fill="#C7EAFB" d="M226.52 108.34c8.1-8.05 12.77-20.57-5.29-3.17-6.52 6.28-7.11 8.42-21.79 25.08-4.7 5.33 5.05-19.56 3.03-23.35-2.02-3.79-9.85 0-13.89 6.82-4.04 6.82-11.36 33.08-20.71 24.24-9.34-8.84 1.52-38.63-7.07-28.79-8.59 9.85-9.6 25.25-26.26 26.01-22.22 1.01-24.75-34.43-34.85-30.3-10.1 4.13 15.29 32.33-3.55 27.4-11.09-2.9-13.87-19.06-19.43-13.76-5.56 5.3 7.45 30.15 19.19 41.41 2.86 2.75 7.15 5.23 12.36 7.29 3.57 1.41-4.53-16.59-.24-15.62 2.77.63 11.97 12.61 17.17 17.17 5.2 4.56 17.38-18.45 20.45-18.45 4.56 0-1.55 21.85 1.26 20.05 6.32-4.04 15.65-12.42 20.45-13.22 5.3-.88 2.21 12.76 6.86 10.81 23.85-9.99 41.17-48.53 52.31-59.62z"/>
  <path fill="#94D9F8" d="M283.52 91.76c31.82-10.1 17.68-32.32-13.13-31.31-14.42.47-26.73 10.57-36.43 20.66 0 .01 36.56-19.89 51.45-9.93 14.76 9.87-1.89 20.58-1.89 20.58z"/>
  <path fill="#4EC9F5" d="M283.52 91.76c31.82-10.1 17.68-32.32-13.13-31.31 0 0 15.4-.74 24.24 10.35 8.25 10.35-11.11 20.96-11.11 20.96z"/>
  <path fill="#94D9F8" d="M162.14 34.58c17.68-3.8 11.49 31.09 11.49 31.09 3.96-15.9 7.82-34.17-10.81-36.54-23.09-2.94-19.66 31.8-15.52 53.76 0-17.29-6.32-43.77 14.84-48.31z"/>
  <path fill="#94D9F8" d="M75.38 58.84c8.89-8.55 28.07 6.16 28.1 6.18a30.22 30.22 0 0 0-10.35-8.1C68.88 44.79 60.8 68.02 77.47 76.1c.69.34 1.32.73 1.95 1.11.09.02-12.94-9.82-4.04-18.37z"/>
  <path fill="#F3FAFD" d="M93.93 155.42c7.36 6.63 12.15 8.33 12.35 7.85.35-.5-3.71-3.15-9.38-10.57a80.34 80.34 0 0 1-6.23-9.99c-6.89-13.86-9.05-23.68-13.31-22.55-6.18 1.59-.43 19.64 16.57 35.26z"/>
  <path fill="#F3FAFD" d="M44.63 99.51c8.56 2.35 12.45 4.92 12.81 4.4.29-.38-2.92-3.95-11.4-8.17-6.34-3.23-16.12-6.07-24.29-5.21-8.18.66-13.75 4.03-12.56 6.83 1.49 3.67 6.61 2.33 13.36 1.4 6.71-1.12 15.61-1.06 22.08.75z"/>
  <path fill="#C7EAFB" d="M161.69 65.69c-.52 6.86-1.38 10.28-.83 10.5.5.19 2.46-2.87 4.78-9.7 5.9-17.09 3.59-29.47-1.3-28.56-3.83.7-3.88 4.88-3.46 10.27.5 5.39 1.22 12.31.81 17.49z"/>
  <path fill="#F3FAFD" d="M253.25 83.09c-6.28 3.64-9.18 5.83-8.93 6.32.26.52 3.65-.66 10.5-2.61 14.02-4.03 27.77-5.23 26.68-10.76-.74-3.76-5.61-3.65-11.36-1.61-5.75 2.01-12.18 5.92-16.89 8.66z"/>
</g>
</svg>
