<svg xmlns="http://www.w3.org/2000/svg" viewBox="0 0 1310 560">
  <rect width="1310" height="274" y="286"/>
  <g fill="#F2F2F2">
    <path d="M146.338 399.167c-6.697-2.095-12.868-3.146-18.513-3.146-5.324 0-9.559.93-12.705 2.783-3.146 1.856-4.719 4.719-4.719 8.591 0 4.034 1.974 7.139 5.929 9.317 3.951 2.178 10.202 4.477 18.755 6.897 9.033 2.745 16.456 5.445 22.264 8.107s10.848 6.617 15.125 11.858c4.272 5.245 6.413 12.142 6.413 20.691 0 12.584-4.84 22.265-14.52 29.04-9.68 6.776-21.863 10.164-36.542 10.164a92.682 92.682 0 01-29.282-4.719c-9.521-3.146-17.586-7.623-24.2-13.431l10.89-22.022c5.808 5.002 12.743 8.916 20.812 11.737 8.065 2.825 15.73 4.235 22.99 4.235 5.808 0 10.443-1.005 13.915-3.025 3.468-2.015 5.203-5.04 5.203-9.075 0-4.515-2.019-7.903-6.05-10.164-4.035-2.257-10.569-4.757-19.602-7.502-8.712-2.579-15.813-5.12-21.296-7.623-5.487-2.5-10.248-6.292-14.278-11.374-4.034-5.082-6.05-11.737-6.05-19.965 0-12.743 4.636-22.465 13.915-29.161 9.275-6.693 20.933-10.043 34.969-10.043 8.55 0 16.978 1.21 25.289 3.63 8.308 2.42 15.688 5.808 22.143 10.164l-11.374 22.748c-6.292-3.709-12.788-6.613-19.481-8.712z"/>
    <path d="M301.459 380.049c10.243 5.486 18.229 13.189 23.958 23.111 5.725 9.922 8.592 21.338 8.592 34.243 0 13.068-2.867 24.604-8.592 34.606-5.729 10.006-13.715 17.749-23.958 23.232-10.247 5.486-22.063 8.228-35.453 8.228-13.552 0-25.493-2.741-35.816-8.228-10.327-5.483-18.354-13.227-24.079-23.232-5.729-10.001-8.591-21.538-8.591-34.606 0-12.905 2.862-24.321 8.591-34.243 5.725-9.922 13.752-17.625 24.079-23.111 10.323-5.483 22.264-8.228 35.816-8.228 13.39 0 25.206 2.745 35.453 8.228zm-62.073 29.524c-6.776 7.26-10.164 16.698-10.164 28.314s3.388 21.054 10.164 28.314 15.647 10.89 26.62 10.89c10.648 0 19.36-3.63 26.136-10.89 6.776-7.26 10.164-16.698 10.164-28.314s-3.388-21.054-10.164-28.314c-6.776-7.26-15.488-10.89-26.136-10.89-10.973 0-19.844 3.63-26.62 10.89z"/>
    <path d="M393.691 320.967c3.416 3.58 5.124 8.136 5.124 13.664 0 5.368-1.708 9.844-5.124 13.42-3.415 3.58-7.728 5.368-12.932 5.368-5.208 0-9.516-1.788-12.932-5.368-3.416-3.576-5.124-8.052-5.124-13.42 0-5.528 1.708-10.084 5.124-13.664 3.416-3.576 7.724-5.368 12.932-5.368 5.205 0 9.517 1.792 12.932 5.368zm-28.547 50.752h31.721v130.54h-31.721v-130.54z"/>
    <path d="M440.852 322.695h31.461v179.564h-31.461V322.695z"/>
  </g>
  <path d="M706.496 160.136c9.845 5.612 17.466 13.462 22.86 23.546 5.394 10.087 8.091 21.716 8.091 34.892 0 13.016-2.656 24.484-7.963 34.404-5.31 9.924-12.843 17.652-22.604 23.18-9.76 5.532-21.062 8.296-33.905 8.296-10.274 0-19.353-1.91-27.227-5.734-7.879-3.82-14.384-9.394-19.521-16.714v68.564h-33.392V152.694h33.392v21.472c4.965-7.32 11.342-12.89 19.136-16.714 7.79-3.82 16.824-5.734 27.099-5.734 12.842 0 24.185 2.806 34.034 8.418zm-13.743 85.888c7.192-7.4 10.788-16.874 10.788-28.426 0-11.548-3.596-20.984-10.788-28.304s-16.438-10.98-27.74-10.98c-11.475 0-20.806 3.66-27.998 10.98s-10.788 16.756-10.788 28.304c0 11.712 3.596 21.228 10.788 28.548s16.523 10.98 27.998 10.98c11.302 0 20.548-3.698 27.74-11.102z"/>
  <path d="M767.756 102.186h33.392v181.048h-33.392V102.186z"/>
  <path d="M925.207 283.234v-15.86c-4.796 5.696-10.96 10.004-18.493 12.932-7.537 2.928-16.183 4.392-25.943 4.392-9.592 0-18.024-1.746-25.301-5.246-7.28-3.496-12.887-8.334-16.824-14.518-3.94-6.18-5.907-13.092-5.907-20.74 0-12.2 4.535-21.754 13.613-28.67 9.074-6.912 21.917-10.45 38.529-10.614h40.069v-3.416c0-7.644-2.656-13.58-7.962-17.812-5.311-4.229-13.016-6.344-23.118-6.344-13.015 0-26.629 4.068-40.84 12.2l-12.072-21.96c10.788-5.692 20.589-9.798 29.41-12.322 8.817-2.52 19.136-3.782 30.951-3.782 17.808 0 31.634 4.068 41.482 12.2 9.846 8.136 14.854 19.52 15.026 34.16l.257 85.4h-32.877zm-11.816-29.402c6.847-4.308 10.7-9.638 11.559-15.982v-11.712h-34.676c-8.905 0-15.455 1.262-19.649 3.782-4.198 2.524-6.293 6.63-6.293 12.322 0 5.532 2.183 9.924 6.55 13.176 4.366 3.256 10.314 4.88 17.852 4.88 9.587 0 17.807-2.154 24.657-6.466z"/>
  <path d="M1115.539 165.016c9.074 9.028 13.613 21.27 13.613 36.722v81.496h-33.648V211.01c0-9.108-2.741-16.306-8.22-21.594-5.482-5.284-12.931-7.93-22.347-7.93-11.133.164-19.906 3.744-26.328 10.736-6.421 6.996-9.632 15.944-9.632 26.84v64.172h-33.392v-130.54h33.392v24.4c9.415-16.752 25.854-25.292 49.316-25.62 15.753 0 28.167 4.514 37.246 13.542z"/>
  <path d="M1247.046 275.182c-10.96 6.344-22.435 9.516-34.419 9.516-11.815 0-21.492-3.294-29.025-9.882-7.537-6.588-11.302-16.306-11.302-29.158v-64.416h-19.264l-.257-23.18h19.521v-35.868h33.135v35.868h39.3v23.18h-39.3v58.804c0 6.02 1.196 10.29 3.597 12.81 2.396 2.524 5.992 3.782 10.788 3.782 5.137 0 11.643-1.788 19.521-5.368l7.705 23.912z"/>
  <rect width="33.35" height="44" x="592.92" y="286.687" fill="#FFF"/>
  <g id="a35">
    <path fill="#23751B" d="M435.695 286.487s-.975-246.909 85.56-232.973c0 0-86.535-13.936-81.77 232.973h-3.79z"/>
    <path fill="#1BAB24" d="M391.612 286.487s-.975-191.77-22.36-189.865c0 0 21.385-1.904 26.949 189.865h-4.589z"/>
    <path fill="#1FA022" d="M153.264 286.487s-.975-52 35.6-98.8c0 0-36.575 46.8-32.474 98.8h-3.126z"/>
    <path fill="#278319" d="M271.973 286.487s-.975-159.9-41.827-153.569c0 0 40.852-6.325 44.525 153.569h-2.698z"/>
    <path fill="#1F9521" d="M62.985 286.487s-.975-164.21 17.563-163.729c0 0-18.538-.481-12.526 163.729h-5.037z"/>
    <path fill="#1EB927" d="M273.332 286.487s-.975-233.883 156.76-177.04c0 0-157.735-56.842-152.828 177.04h-3.932z"/>
    <path fill="#19D225" d="M107.543 286.487s-.975-270.732 67.652-262.886c0 0-68.62-7.846-64.701 262.886h-2.951z"/>
    <path fill="#11B620" d="M293.423 286.487s-.975-77.571 51.109-147.55c0 0-52.085 69.979-47.957 147.55h-3.152z"/>
    <path fill="#21971C" d="M136.981 286.487s-.975-102.544-8.008-101.972c0 0 7.033-.572 10.822 101.972h-2.814z"/>
    <path fill="#189713" d="M512.428 286.487s-.975-130.156-33.215-257.608c0 0 32.234 127.452 37.427 257.608h-4.212z"/>
    <path fill="#28D617" d="M56.297 286.487s-.975-174.122-20.215-172.38c0 0 19.24-1.742 24.537 172.38h-4.322z"/>
    <path fill="#186F0F" d="M368.381 286.487s-.975-64.695-11.882-128.57c0 0 10.907 63.875 14.593 128.57h-2.711z"/>
    <path fill="#1FA817" d="M421.753 286.487s-.975-147.446 22.055-146.282c0 0-23.023-1.164-18.46 146.282h-3.595z"/>
    <path fill="#10C717" d="M148.116 286.487s-.975-99.04 89.745-178.789c0 0-90.721 79.755-85.26 178.789h-4.485z"/>
    <path fill="#136722" d="M535.776 286.487s-.975-94.594 124.748-144.995c0 0-125.723 50.401-121.531 144.995h-3.217z"/>
    <path fill="#1B9A0E" d="M175.312 286.487s-.975-291.59-73.47-281.171c0 0 72.494-10.426 77.272 281.171h-3.802z"/>
    <path fill="#11C521" d="M236.951 286.487s-.975-146.646 109.389-100.594c0 0-110.363-46.052-106.71 100.594h-2.679z"/>
    <path fill="#28B121" d="M121.914 286.487s-.975-92.801-81.673-164.69c0 0 80.697 71.89 85.598 164.69h-3.925z"/>
    <path fill="#1D781D" d="M442.722 286.487s-.975-139.126 28.834-136.695c0 0-29.809-2.431-25.902 136.695h-2.932z"/>
    <path fill="#1CAE20" d="M511.797 286.487s-.975-112.469 148.447-172.289c0 0-149.422 59.819-144.612 172.289h-3.835z"/>
    <path fill="#205E12" d="M464.88 286.487s-.975-210.359-134.719-157.547c0 0 133.744-52.812 139.399 157.547h-4.68z"/>
    <path fill="#207F28" d="M563.18 286.487s-.975-132.197-26.208-262.632c0 0 25.233 130.435 30.485 262.632h-4.277z"/>
    <path fill="#20D610" d="M295.906 286.487s-.975-108.303 24.732-215.624c0 0-25.707 107.322-20.521 215.624h-4.211z"/>
    <path fill="#22C112" d="M382.584 286.487s-.975-118.521-82.914-220.142c0 0 81.939 101.621 87.893 220.142h-4.979z"/>
    <path fill="#20991F" d="M307.236 286.487s-.975-102.199-30.719-201.396c0 0 29.744 99.19 34.918 201.396h-4.199z"/>
    <path fill="#14BA1F" d="M510.218 286.487s-.975-110.344 87.295-71.565c0 0-88.27-38.779-83.987 71.565h-3.308z"/>
    <path fill="#209D1C" d="M363.227 286.487S362.252-6.507 303.993.11c0 0 58.259-6.617 61.919 286.377h-2.685z"/>
    <path fill="#15841F" d="M520.787 286.487s-.975-210.255-59.878-200.239c0 0 58.903-10.017 64.129 200.239h-4.251z"/>
    <path fill="#0E5A1C" d="M448.143 286.487s-.975-119.665 120.38-208.52c0 0-121.355 88.855-117.481 208.52h-2.899z"/>
    <path fill="#24D618" d="M393.517 286.487s-.975-133.178 48.613-262.496c0 0-49.595 129.317-45.162 262.496h-3.451z"/>
    <path fill="#166E23" d="M518.765 286.487s-.975-224.568 164.281-156.325c0 0-165.256-68.243-161.232 156.325h-3.049z"/>
    <path fill="#235F10" d="M93.243 286.487s-.975-67.204 90.252-101.901c0 0-91.221 34.697-87.633 101.901h-2.619z"/>
    <path fill="#28851D" d="M199.921 286.487s-.975-145.314-124.04-261.137c0 0 123.064 115.823 127.556 261.137h-3.516z"/>
    <path fill="#139816" d="M94.965 286.487s-.975-75.556-17.797-149.396c0 0 16.822 73.84 22.698 149.396h-4.901z"/>
    <path fill="#128513" d="M435.143 286.487s-.975-135.662 145.268-231.965c0 0-146.237 96.304-140.738 231.965h-4.53z"/>
    <path fill="#1BB612" d="M113.445 286.487s-.975-98.449 126.373-154.31c0 0-127.348 55.861-122.31 154.31h-4.063z"/>
    <path fill="#26901D" d="M548.652 286.487s-.975-135.382 51.786-266.357c0 0-52.76 130.975-48.685 266.357h-3.101z"/>
    <path fill="#1A901D" d="M180.382 286.487s-.975-266.324-28.574-264.238c0 0 27.599-2.08 33.247 264.238h-4.673z"/>
    <path fill="#23C513" d="M519.942 286.487s-.975-58.143 68.673-97.26c0 0-69.648 39.117-63.739 97.26h-4.934z"/>
    <path fill="#208E12" d="M203.632 286.487s-.975-55.185 16.705-109.642c0 0-17.68 54.457-12.675 109.642h-4.03z"/>
  </g>
</svg>
