<svg xmlns="http://www.w3.org/2000/svg" width="130" height="32" viewBox="0 0 1640 407">
  <g id="Layer_1-2">
    <path fill="#dfbe5d" d="M59.34 57.45h43.29v.79c0 17.94-5.35 32.58-15.58 42.5-10.86 10.55-23.77 13.38-35.73 13.38-15.27 0-26.13-4.41-35.73-14.32C5.35 89.25 0 75.24 0 60.13c0-16.37 6.61-30.54 15.27-39.19C24.24 11.81 38.56 5.2 54.78 5.2c9.45 0 19.2 2.05 27.39 6.61 8.66 4.88 14.01 11.02 17 15.74l-12.75 8.97c-3.15-4.41-7.87-9.13-12.91-11.96C67.69 21.1 61.39 20 54.94 20c-13.69 0-22.51 5.67-27.7 10.86-6.93 6.93-11.18 18.1-11.18 29.43 0 10.55 3.93 21.09 10.86 28.49 7.24 7.71 16.21 10.55 26.29 10.55 9.13 0 16.68-2.68 23.45-9.29 5.82-5.67 8.18-11.8 8.81-17.79H59.34zM245.85 59.65c0 30.85-23.14 54.46-54.62 54.46s-54.62-23.61-54.62-54.46 23.14-54.46 54.62-54.46 54.62 23.61 54.62 54.46m-16.06 0c0-23.3-16.05-39.66-38.56-39.66s-38.57 16.37-38.57 39.66 16.06 39.67 38.57 39.67 38.56-16.37 38.56-39.67M294.63 7.08v89.88h30.85v15.11h-46.91V7.08zM378.36 7.08c14.64 0 27.39 1.57 39.04 10.23 12.75 9.6 20.15 24.87 20.15 42.34s-7.24 32.58-21.09 42.34c-12.28 8.66-23.77 10.07-38.41 10.07h-21.72V7.08h22.04Zm-5.98 89.88h6.92c7.87 0 18.73-.63 27.86-7.4 7.24-5.51 14.32-15.58 14.32-29.91s-6.61-24.71-14.16-30.22c-9.13-6.61-20.31-7.24-28.02-7.24h-6.92zM531.35 22.19h-41.87v26.6h40.61V63.9h-40.61v33.05h41.87v15.11h-57.92V7.08h57.92zM567.86 112.07V0l76.18 79.8V7.08h16.06v111.44l-76.18-79.8v73.35z"/>
    <path fill="#fff" d="M787.66 50h63.77v2.55c0 13.94-1.19 32.82-14.8 47.44-11.22 12.07-29.42 18.53-48.12 18.53-23.81 0-38.26-9.52-46.76-18.7-10.71-11.56-14.62-25.34-14.62-40.3 0-20.74 7.99-33.84 15.64-41.66C751.95 8.34 767.6 0 790.38 0c12.25 0 22.79 2.38 33.33 7.99 9.7 5.27 16.49 11.73 21.77 20.92l-38.43 14.28c-2.38-3.74-6.97-8.67-15.64-8.67-5.95 0-10.88 2.04-14.46 5.27-4.59 4.25-8.33 11.56-8.33 21.43 0 7.65 2.55 15.48 7.49 20.24 3.23 3.06 7.65 5.1 13.43 5.1 6.12 0 14.11-2.21 16.84-9.69h-18.71zM868.94 115.97V2.55h41.15v113.42zM921.48 2.55h43.02l15.81 53.4c1.36 4.42 2.21 11.05 2.55 15.13h1.02a68 68 0 0 1 2.38-15.13l15.48-53.4h43.02l-43.87 113.42h-35.37zM1056.15 115.97V2.55h76.52v31.12h-35.37v10.54h32.14v29.76h-32.14v10.88h36.39v31.12zM1189.98 101.86l-3.06 14.11h-43.53l39.28-113.42h45.57l40.47 113.42h-43.7l-3.74-14.11zm16.66-61.39h-1.53a59 59 0 0 1-1.87 12.75l-5.61 21.77h16.49l-5.27-21.77a126 126 0 0 1-2.21-12.75M1252.55 2.55h42.68l12.42 53.74c.85 3.91 1.87 7.31 1.87 13.94h1.02a92 92 0 0 1 2.89-19.05l12.41-48.64h31.63l13.1 51.69c1.02 4.08 2.04 11.56 2.38 15.99h.85c.17-7.31 1.19-12.24 2.55-18.2l11.73-49.48h42.85l-39.96 113.42h-35.88l-10.71-46.25a100 100 0 0 1-2.21-15.48h-1.36c-.17 3.74-.85 11.9-1.7 15.48l-11.73 46.25h-35.03zM1462.56 101.86l-3.06 14.11h-43.53l39.28-113.42h45.57l40.47 113.42h-43.7l-3.74-14.11zm16.66-61.39h-1.53a59 59 0 0 1-1.87 12.75l-5.61 21.77h16.49l-5.27-21.77a126 126 0 0 1-2.21-12.75M1520.53 2.55h46.59l9.7 20.75a52 52 0 0 1 3.06 9.01h1.19c.85-4.76 2.04-6.46 3.06-9.01l8.84-20.75h46.42l-38.77 64.62v48.8h-40.64v-48.8z"/>
    <path fill="#dfbe5d" d="m0 293.21 29.94-34.81c13.92 11.14 26.92 17.64 40.15 17.64s20.42-6.5 20.42-15.55v-.46c0-9.51-7.66-15.55-19.03-15.55-9.98 0-17.17 3.95-24.83 10.21l-32.72-16.24 4.64-84.47h117.2v42.93H58.95l-1.16 21.12c8.59-5.34 17.87-8.82 30.87-8.82 26.69 0 54.3 17.17 54.3 51.29v.46c0 37.6-30.63 58.95-72.17 58.95-31.57-.02-52.92-10.23-70.79-26.7"/>
    <path fill="#dfbe5d" d="M223.19 153.6c-49.49 0-87.74 37.11-87.74 83.61v.46c0 46.73 37.8 83.15 87.28 83.15s87.74-37.11 87.74-83.61v-.46c0-46.73-37.8-83.15-87.28-83.15m-2.16 77.42h-20.75v11.79h17.45v6.6h-17.45v13.68h20.75v6.6h-39.62l-12.03-18.86-4.48 4.95v13.91h-8.49v-45.75h8.49v20.75l15.56-20.75h10.85l-15.99 20.11 16.46 25.17v-45.28h29.24zm37.26 38.67h-8.96l-17.92-30.66v30.66h-8.49v-45.75h8.49l18.39 31.13v-31.13h8.49zm36.79-38.67H281.4v38.68h-8.49v-38.68H259.7v-7.08h35.37zm0-10.6c-.09.65.26.82-.69.69l-69.33-18.4-69.12 18.41v-6.6l69.57-19.38 69.34 19.37c.38.64.37 4.92.23 5.91"/>
    <polyline fill="#715f26" points="1639.12 317.42 1516.49 406.15 1512.94 317.42"/>
    <path fill="#dfbe5d" d="M767.37 192.72h-6.3v32.49h5.98c4.04 0 20.69-.48 20.69-16.33s-16.5-16.16-20.37-16.16M555.08 206.29c0-9.86-7.59-13.58-16.16-13.58h-6.14v27.64h5.98c3.23 0 16.32-.32 16.32-14.06M1206.31 200.8c-8.73-6.47-19.4-7.11-26.51-7.11h-6.46v71.61h6.46c5.33 0 16.98-.32 26.35-7.11 8.57-6.14 13.41-17.13 13.41-28.61s-4.68-22.31-13.25-28.77ZM554.92 238.62c-4.52-2.1-9.86-2.1-14.38-2.1h-7.76v29.74h9.05c3.88 0 9.7-.16 14.39-2.91 5.17-3.07 6.63-8.24 6.63-12.44 0-3.4-1.14-9.22-7.93-12.29"/>
    <polygon fill="#dfbe5d" points="1311.9 243.64 1342.61 243.64 1327.25 204.84 1311.9 243.64"/>
    <path fill="#dfbe5d" d="m342.17 149.91 29.93 84.29-29.93 84.29H1639.4V149.91zm233.12 124.76c-8.08 7.11-17.94 8.73-27.32 8.73h-36.21V175.58h26.67c5.98 0 17.62 0 26.35 6.79 6.3 4.85 10.02 13.25 10.02 22.3 0 13.9-9.21 19.56-12.12 21.18a25.3 25.3 0 0 1 14.07 6.79c6.46 6.15 7.76 14.55 7.76 20.21 0 6.31-1.78 15.19-9.22 21.82m94.91 8.73h-21.02V175.58h21.02zm122.23 0-28.77-43.32h-2.59v43.32h-21.02V175.58h31.2c14.88 0 22.47 3.88 27.48 8.08 8.25 6.95 10.67 16.16 10.67 24.25 0 10.51-4.2 19.72-12.61 25.38-2.75 1.94-6.63 3.72-11.8 4.69l33.62 45.42zm143.89-89.71h-24.25v89.71h-21.02v-89.71H866.8v-18.1h69.51zm146.14 89.71h-21.01v-48.01h-45.59v48.01h-21.02V175.58h21.02v41.71h45.59v-41.71h21.01zm137.11-10.35c-12.6 8.89-24.41 10.35-39.44 10.35h-27.8V175.58h28.13c15.03 0 28.13 1.62 40.08 10.51 13.1 9.86 20.69 25.54 20.69 43.48s-7.43 33.46-21.66 43.48m138.72 10.35-9.54-22.63h-43.48l-9.54 22.63h-22.8l46.39-107.82h16.49l45.11 107.82zm104.44-49.3v49.3h-21.01v-49.3l-37.02-58.52h24.89l23.11 37.5 23.12-37.5h24.9z"/>
  </g>
</svg>
