<svg xmlns="http://www.w3.org/2000/svg" width="48" height="48" viewBox="0 0 48 48">
  <g id="Layer_1-2" fill="#fff">
    <path d="M24 48C10.77 48 0 37.23 0 24S10.77 0 24 0s24 10.77 24 24-10.77 24-24 24m0-44.97C12.44 3.03 3.03 12.43 3.03 24S12.44 44.97 24 44.97 44.97 35.56 44.97 24 35.57 3.03 24 3.03"/>
    <path d="M34.77 21.78c-2.12 0-4.18-.65-5.91-1.89v8.59a7.8 7.8 0 0 1-5.07 7.32 7.92 7.92 0 0 1-8.64-2.19 7.82 7.82 0 0 1 6.96-12.89v4.32a3.55 3.55 0 0 0-3.99 1.33 3.6 3.6 0 0 0 .03 4.21 3.6 3.6 0 0 0 6.48-2.12V11.69h4.23q0 .54.09 1.07a5.96 5.96 0 0 0 5.81 4.83z"/>
  </g>
</svg>
