<svg xmlns="http://www.w3.org/2000/svg" width="48" height="48" viewBox="0 0 48 48">
  <g id="Layer_1-2" fill="#fff">
    <path d="M24 48C10.77 48 0 37.23 0 24S10.77 0 24 0s24 10.77 24 24-10.77 24-24 24m0-44.97C12.43 3.03 3.03 12.43 3.03 24S12.44 44.97 24 44.97 44.97 35.56 44.97 24 35.57 3.03 24 3.03"/>
    <path d="M16.48 37.62h-5.65V19.44h5.65zm-2.83-20.67a3.3 3.3 0 0 1-2.31-5.61c.61-.61 1.45-.96 2.31-.96a3.29 3.29 0 0 1 0 6.57m23.96 20.67h-5.64v-8.85c0-2.11-.04-4.81-2.94-4.81s-3.39 2.29-3.39 4.66v9H20V19.44h5.42v2.48h.08a5.9 5.9 0 0 1 5.34-2.94c5.71 0 6.77 3.76 6.77 8.65z"/>
  </g>
</svg>
