<svg xmlns="http://www.w3.org/2000/svg" width="48" height="48" viewBox="0 0 48 48">
  <g id="Layer_1-2" fill="#fff">
    <path d="M24 48C10.77 48 0 37.23 0 24S10.77 0 24 0s24 10.77 24 24-10.77 24-24 24m0-44.97C12.43 3.03 3.03 12.43 3.03 24S12.44 44.97 24 44.97 44.97 35.56 44.97 24 35.57 3.03 24 3.03"/>
    <path d="M24.65 10.38c-5.6 0-11.13 3.73-11.13 9.77 0 3.84 2.16 6.02 3.47 6.02.54 0 .85-1.51.85-1.93 0-.51-1.29-1.59-1.29-3.7 0-4.39 3.34-7.5 7.66-7.5 3.72 0 6.47 2.11 6.47 5.99 0 2.9-1.16 8.33-4.93 8.33-1.36 0-2.52-.98-2.52-2.39 0-2.06 1.44-4.06 1.44-6.19 0-3.61-5.12-2.96-5.12 1.41 0 .92.11 1.93.52 2.77-.75 3.24-2.29 8.07-2.29 11.41 0 1.03.15 2.05.25 3.08.19.21.09.19.38.08 2.75-3.77 2.65-4.5 3.9-9.43.67 1.28 2.41 1.96 3.78 1.96 5.79 0 8.4-5.65 8.4-10.74 0-5.42-4.68-8.95-9.82-8.95Z"/>
  </g>
</svg>
