<svg xmlns="http://www.w3.org/2000/svg" width="48" height="48" viewBox="0 0 48 48">
  <g id="Layer_1-2" fill="#fff">
    <path d="M24 48C10.77 48 0 37.23 0 24S10.77 0 24 0s24 10.77 24 24-10.77 24-24 24m0-44.97C12.43 3.03 3.03 12.43 3.03 24S12.44 44.97 24 44.97 44.97 35.56 44.97 24 35.56 3.03 24 3.03"/>
    <path d="M37.04 17.42A3.4 3.4 0 0 0 34.63 15c-2.12-.57-10.64-.57-10.64-.57s-8.52 0-10.64.57a3.4 3.4 0 0 0-2.41 2.42c-.57 2.14-.57 6.6-.57 6.6s0 4.46.57 6.6A3.4 3.4 0 0 0 13.35 33c2.12.57 10.64.57 10.64.57s8.52 0 10.64-.57a3.4 3.4 0 0 0 2.41-2.38c.57-2.14.57-6.6.57-6.6s0-4.46-.57-6.6M21.21 28.07v-8.1l7.12 4.05z"/>
  </g>
</svg>
