<svg xmlns="http://www.w3.org/2000/svg" viewBox="0 0 1100 400">
<style>
/* <![CDATA[ */

#h1, #h2, #h3, #h4, #h5 {
visibility: hidden;
animation-duration: 2s;
animation-iteration-count: infinite;
animation-timing-function: steps(1);
}

#ln1, #ln2 {
  animation: line 2s linear infinite;
}

@keyframes line {
  0% {
    stroke-dashoffset: 1170;
  }
  100% {
    stroke-dashoffset: 390;
  }
}

/* ]]> */
</style>
<defs>
<linearGradient id="grd" x2="0" y2="1">
  <stop offset="0" stop-color="#68ab07"/>
  <stop offset="1" stop-color="#7cc213"/>
</linearGradient>
</defs>
<g id="logo">
  <path fill="url(#grd)" d="M308.65 312.91c-13.69 19.92-31.96 28.91-52.51 32.61-28.08 5.07-54.8.71-77.97-17.32-13.4-10.42-21.07-24.94-21.85-41.43-1.27-26.82-2.34-53.9-.07-80.57 2.65-31.3 23.89-48.79 52.78-56.68 31.32-8.55 60.6-4.43 85.52 18.27 11.96 10.89 17.61 24.84 18.15 40.77.41 12.32-.19 24.65.19 36.97.32 9.82-4.26 13.18-13.57 13.1-29.5-.22-59.02-.15-88.51-.02-15.86.05-16.81 1.14-16.61 16.29.34 25.6 25.77 44.01 52.03 36.75 8.38-2.31 16.44-6.94 23.6-12.01 5.02-3.56 8.35-4.8 13.76-1.24 7.67 5.06 15.9 9.27 25.06 14.51zm-75.02-85.11c10.45 0 20.87-.17 31.32.05 6.5.15 9.23-2.34 9.5-9.13.8-19.36-9.77-30.69-33.05-34.49-24.19-3.95-46.52 11.76-46.94 32.78-.15 7.26 1.97 11.25 10.11 10.89 9.67-.41 19.36-.07 29.06-.1z"/>
  <path fill="url(#grd)" d="M655.56 246.17c0 8.96-.49 17.95.07 26.87 2.31 36.58-20.07 59.63-50.78 68.47-29.33 8.43-58.02 5.99-84.32-11.37-17.59-11.59-26.43-27.89-26.62-48.81-.22-20.9-.19-41.8-.24-62.69-.1-32.05 12.64-51.59 42.7-63.74 32.71-13.23 64.23-10.57 93.55 9.47 17.15 11.72 25.89 28.35 25.79 49.35-.05 10.81 0 21.65 0 32.47l-.15-.02zm-38.38.34h-.1c0-8.21.02-16.42 0-24.62-.07-20.22-8.43-31.44-28.42-35.07-9.3-1.68-19.53-1.75-28.77.22-12.52 2.68-25.87 8.26-26.96 23.09a492.9 492.9 0 00-.29 68.1c.46 7.31 6.5 15.91 12.5 20.87 10.62 8.82 24.14 11.35 38.02 9.09 23.29-3.8 34.05-16.73 34-40.43.02-7.07.02-14.16.02-21.25z"/>
  <path fill="url(#grd)" d="M942.78 246.95c0 8.96-.58 17.95.1 26.84 2.92 38.17-20.7 59.8-49.93 67.23-25.87 6.58-52.81 6.02-77.63-6.8-21.63-11.18-33.47-28.69-33.34-53.83.1-20.87-.66-41.75-1.1-62.62-.56-26.91 11.23-46.94 34.95-58.97 35.51-18.02 70.51-16.44 103.39 6.67 15.81 11.11 24.26 26.87 23.85 46.79-.24 11.57-.05 23.11-.05 34.68h-.24v.01zm-38.68-.32h-.07c0-8.57.02-17.15 0-25.72-.05-20.73-8.04-31.01-28.62-34.34a81.87 81.87 0 00-26.6.1c-20.34 3.48-29.28 15-29.37 35.61-.07 17.15-.02 34.29-.17 51.47-.1 10.94 4.36 19.36 13.3 25.57 12.28 8.52 25.87 11.37 40.41 8.57 21.48-4.17 31.18-16.17 31.15-37.75-.03-7.85-.03-15.69-.03-23.51z"/>
  <path fill="url(#grd)" d="M336.39 194.19c-5.85-11.25-11.25-21.73-17.05-32.91 55.29-15.25 111.16-15.54 167.02-.17-5.24 10.77-9.99 21-15.32 30.91-.73 1.39-4.46 1.95-6.63 1.63a543.7 543.7 0 01-28.59-4.94c-9.26-1.85-13.49.34-13.4 11.08.41 44.45-.29 88.9.15 133.35.1 10.69-2.87 14.39-13.83 14.01-28.55-1-24.28 3.29-24.48-24.41-.29-41.09-.49-82.18-.12-123.27.1-9.91-3.58-12.62-12.59-11.03-11.71 2.1-23.45 3.85-35.16 5.75z"/>
  <path fill="url(#grd)" d="M779.59 148.16c-8.67 12.57-16.59 24.89-25.53 36.44-2.41 3.12-7.87 3.87-11.96 5.65-12.71 5.53-19.83 13.79-19.53 29.06.76 38.07-.12 76.16.29 114.23.1 9.89-2.27 14.03-13.08 13.64-29.89-1.1-25.14 3.9-25.45-25.62-.39-33.61-.34-67.2-.46-100.81-.12-35.71 14.2-56.17 47.96-68.1 15.58-5.49 31.56-7.34 47.76-4.49z"/>
</g>
<g id="h5">
  <path fill="url(#grd)" d="M155.81 151.66c-21.7 20.41-28.42 44.38-26.91 71.22.32 5.65-1.97 8.82-7.84 7.72-22.36-4.19-43.48-11.37-58.75-29.37-14.54-17.15-15.69-36.71-6.09-56.36 5.02-10.28 11.76-19.92 18.85-28.98 18.85-24.06 38.22-47.74 57.63-71.37 2.36-2.87 6.24-4.48 9.4-6.67l3 2.7c-1.9 4.58-3.97 9.06-5.65 13.71-7.19 19.92-16.03 39.46-20.9 59.92-5.5 23.16 2.95 32.81 26.79 36.46 2.58.41 5.16.54 10.47 1.02z"/>
  <path fill="url(#grd)" d="M957.32 38.14c2.69-1.66 6.55 2.09 8.33 4.34 24.41 30.64 48.86 61.26 72.58 92.43 9.23 12.13 13.79 26.45 10.91 42.09-5.26 28.57-26.65 40.97-51.22 49.1-22.19 7.33-23.16 6.8-25.5-15.73-2.29-22.02-9.38-41.26-27.6-57.77 6.09-1.22 10.72-2.14 15.34-3.04 17.9-3.51 26.38-13.32 21.9-30.74-5.82-22.58-14.61-44.4-22.21-66.54-1.31-3.82-6-11.92-2.53-14.14z"/>
</g>
<g id="h4">
  <path fill="url(#grd)" d="M155.81 151.66c-21.7 20.41-28.42 44.38-26.91 71.22.32 5.65-1.97 8.82-7.84 7.72-22.36-4.19-43.48-11.37-58.75-29.37-14.54-17.15-15.69-36.71-6.09-56.36 5.02-10.28 11.76-17.92 18.85-26.98 18.85-24.06 32.14-39.47 51.55-63.1 2.36-2.87 5.56-6.92 9.4-6.67 1.01.06 2.67 1.75 3 2.7.74 2.14-15.6 44.9-20.47 65.36-5.5 23.16 2.95 30.81 26.79 34.46 2.58.41 5.16.54 10.47 1.02z"/>
  <path fill="url(#grd)" d="M945.35 152.59c20.08 18.28 28.22 41.26 29.27 70.24.2 5.66 2.32 8.77 8.15 7.47 22.2-4.95 41.4-11.93 56.05-30.44 13.95-17.63 14.43-37.22 4.17-56.54-5.36-10.1-10.7-18.43-18.09-27.24-19.66-23.41-31.66-36.59-52.5-62.05-2.46-2.79-4.69-6.44-8.52-6.07-1 .1-2.61 1.84-2.9 2.8-.67 2.17 14.85 44.81 20.41 65.09 6.29 22.96-1.9 30.89-25.61 35.35-2.57.51-5.14.72-10.43 1.39z"/>
</g>
<g id="h3">
  <path fill="url(#grd)" d="M155.81 151.66c-21.7 20.41-28.42 44.38-26.91 71.22.32 5.65-1.97 8.82-7.84 7.72-22.36-4.19-43.48-11.37-58.75-29.37-14.54-17.15-15.69-36.71-6.09-56.36 5.02-10.28 11.76-17.92 18.85-26.98 18.85-24.06 43.18-49.14 57.21-59.68.81-.61 2.67 1.75 3 2.7.74 2.14-11.86 34.82-16.73 55.28-5.5 23.16 2.95 30.81 26.79 34.46 2.58.4 5.16.53 10.47 1.01z"/>
  <path fill="url(#grd)" d="M945.35 152.59c20.13 18.33 28.33 41.43 29.27 70.24.18 5.66 2.32 8.77 8.15 7.47 22.2-4.95 41.4-11.93 56.05-30.44 13.95-17.63 14.43-37.22 4.17-56.54-5.36-10.1-10.7-18.43-18.09-27.24-19.66-23.41-56.31-56.79-59.39-57.06-1.01-.09-2.41 1.19-2.71 2.15-.67 2.17 13.03 34.39 18.59 54.68 6.29 22.96-1.9 30.89-25.61 35.35-2.57.51-5.14.72-10.43 1.39z"/>
</g>
<g id="h2">
  <path fill="url(#grd)" d="M155.81 151.66c-21.7 20.41-28.42 44.38-26.91 71.22.32 5.65-1.97 8.82-7.84 7.72-22.36-4.19-43.48-11.37-58.75-29.37-14.54-17.15-15.69-36.71-6.09-56.36 5.02-10.28 11.76-17.92 18.85-26.98 18.85-24.06 54.72-46.23 57.21-46.31 1.01-.03 2.47.62 2.8 1.58.74 2.14-11.66 22.57-16.53 43.03-5.5 23.16 2.95 30.81 26.79 34.46 2.58.4 5.16.53 10.47 1.01z"/>
  <path fill="url(#grd)" d="M945.35 152.59c20.05 18.47 28.03 41.33 29.27 70.24.24 5.65 2.32 8.77 8.15 7.47 22.2-4.95 41.4-11.93 56.05-30.44 13.95-17.63 14.43-37.22 4.17-56.54-5.36-10.1-10.7-18.43-18.09-27.24-19.66-23.41-56.26-44.34-58.75-44.34-1.01 0-2.45.71-2.75 1.67-.67 2.17 12.42 22.16 17.98 42.44 6.29 22.96-1.9 30.89-25.61 35.35-2.56.51-5.13.72-10.42 1.39z"/>
</g>
<g id="h1">
  <path fill="url(#grd)" d="M155.81 151.66c-21.7 20.41-28.42 44.38-26.91 71.22.32 5.65-1.97 8.82-7.84 7.72-22.36-4.19-43.48-11.37-58.75-29.37-14.54-17.15-15.69-36.71-6.09-56.36 5.02-10.28 11.9-15.94 19.84-24.26 25.31-26.49 55.71-38.94 58.2-39.02 1.01-.03 2.94-.13 2.8 1.58-.18 2.26-17.33 14.59-22.2 35.05-5.5 23.16 6.63 28.77 30.48 32.43 2.58.4 5.16.53 10.47 1.01z"/>
  <path fill="url(#grd)" d="M945.35 152.59c23.42 22 27.55 41.96 29.27 70.24.34 5.65 2.32 8.77 8.15 7.47 22.2-4.95 41.4-11.93 56.05-30.44 13.95-17.63 14.43-37.22 4.17-56.54-5.36-10.1-10.76-16.44-18.98-24.48-26.2-25.62-57-37.02-59.5-37.02-1.01 0-2.94-.03-2.75 1.67.26 2.25 17.82 13.99 23.38 34.27 6.29 22.96-5.65 28.98-29.36 33.44-2.57.51-5.14.72-10.43 1.39z"/>
</g>
<g id="lines">
  <line id="ln1" stroke-dasharray="390" stroke-dashoffset="390" x1="549.5" x2="159.88" y1="365.51" y2="365.51" fill="none" stroke="#68AB07" stroke-linecap="round" stroke-linejoin="round" stroke-miterlimit="10" stroke-width="5"/>
  <line id="ln2" stroke-dasharray="390" stroke-dashoffset="390" x1="549.08" x2="938.7" y1="365.51" y2="365.51" fill="none" stroke="#68AB07" stroke-linecap="round" stroke-linejoin="round" stroke-miterlimit="10" stroke-width="5"/>
</g>
<style>
/* <![CDATA[ */

#h1 {animation-name: h1}
#h2 {animation-name: h2}
#h3 {animation-name: h3}
#h4 {animation-name: h4}
#h5 {animation-name: h5}

@keyframes h1 {0%, 97.5%{visibility: visible} 2.5%, 100%{visibility: hidden}}
@keyframes h2 {2.5%, 95%{visibility: visible} 5%, 97.5%{visibility: hidden}}
@keyframes h3 {5%, 92.5%{visibility: visible} 7.5%, 95%{visibility: hidden}}
@keyframes h4 {7.5%, 90%{visibility: visible} 10%, 92.5%{visibility: hidden}}
@keyframes h5 {10%{visibility: visible} 90%{visibility: hidden}}

/* ]]> */
</style>
</svg>
