<svg xmlns="http://www.w3.org/2000/svg" xmlns:xlink="http://www.w3.org/1999/xlink" viewBox="0 0 1100 400">
<style>
/* <![CDATA[ */
#logo {
  animation: logo 4s ease-in-out infinite;
}

@keyframes logo {
  0%, 80% {
    opacity: 1;
  }
  90%, 100% {
    opacity: 0;
  }
}

#clp1 {
  animation: clp1 4s ease-in-out infinite;
}

@keyframes clp1 {
  0% {
    stroke-dashoffset: 1596;
  }
  50%, 100% {
    stroke-dashoffset: 0;
  }
  0%, 80% {
    stroke: #fff;
  }
  90%, 100% {
    stroke: #000;
  }
}

#clp2 {
  animation: clp2 4s ease-in-out infinite;
}

@keyframes clp2 {
  0% {
    stroke-dashoffset: 1343;
  }
  50%, 100% {
    stroke-dashoffset: 0;
  }
  0%, 80% {
    stroke: #fff;
  }
  90%, 100% {
    stroke: #000;
  }
}

#horn1 {
  animation: horn1 4s ease infinite;
}

@keyframes horn1 {
  0%, 40% {
    transform: translate(133px, 187px) scale(0) rotate(-90deg) translate(-133px, -187px);
  }
  55%, 100% {
    transform: translate(133px, 187px) scale(1) rotate(0deg) translate(-133px, -187px);
  }
  0%, 80% {
    opacity: 1;
  }
  90%, 100% {
    opacity: 0;
  }
}

#horn2 {
  animation: horn2 4s ease infinite;
}

@keyframes horn2 {
  0%, 40% {
    transform: translate(966px, 187px) scale(0) rotate(90deg) translate(-966px, -187px);
  }
  55%, 100% {
    transform: translate(966px, 187px) scale(1) rotate(0deg) translate(-966px, -187px);
  }
  0%, 80% {
    opacity: 1;
  }
  90%, 100% {
    opacity: 0;
  }
}

/* ]]> */
</style>
<defs>
<linearGradient id="grd" x2="0" y2="1">
  <stop offset="0" stop-color="#68ab07"/>
  <stop offset="1" stop-color="#7cc213"/>
</linearGradient>
<mask id="msk">
<path id="clp1" stroke-dasharray="1596" stroke-dashoffset="1596" fill="none" stroke="#fff" stroke-linecap="round" stroke-linejoin="round" stroke-miterlimit="10" stroke-width="44" d="M573.68 166.47s-47.83 0-57.44 33.04c-10.72 36.86-5.41 77.48 2.4 99.11 4.76 13.19 27.03 30.63 55.04 29.43-27.41 45.05-172.16 63.67-172.16 43.85s1.8-171.18 1.8-171.18c0-27.03 28.23-35.44 79.89-22.22s-42.04-31.83-149.56 0c1.2 34.84 27.03 96.7 7.21 105.11-19.82 8.41-35.44 18.62-67.87 37.24s-80.49 10.81-91.9-21.62c-11.41-32.43-6.61-74.48-4.81-91.9s22.82-42.04 58.26-42.04 58.86 21.62 58.86 42.04 2.4 33.04 0 33.04H149.85"/>
<path id="clp2" stroke-dasharray="1343" stroke-dashoffset="1343" fill="none" stroke="#fff" stroke-linecap="round" stroke-linejoin="round" stroke-miterlimit="10" stroke-width="44" d="M573.49 167.64s62.29 6.56 62.29 40.65v80.65c0 17.7-34.09 40.65-60.98 39.34s130.48 66.88 130.48 38.03-1.31-106.22-1.31-149.49 42.62-54.42 68.19-50.49c.66-50.49 30.82-50.49 30.82-50.49s113.43-1.31 118.02 66.88c4.66 69.3 1.97 87.2 1.31 108.19-.66 20.98-38.68 35.41-58.35 35.41s-62.94-17.05-62.94-41.31v-72.12c0-18.35 28.19-45.9 55.73-45.9 24.26 0 58.35 10.49 70.81 30.82"/>
</mask>
<path id="hrn1" fill="url(#grd)" d="M-9.94-148.22c2.83 1.41 6.55 2.09 8.33 4.34 24.41 30.64 48.86 61.26 72.58 92.43C80.2-39.32 84.76-24.99 81.88-9.36c-5.26 28.57-26.65 40.97-51.22 49.1-22.19 7.34-23.16 6.8-25.5-15.73-2.29-22.02-9.38-41.26-27.6-57.77 6.09-1.22 10.72-2.14 15.34-3.04 17.9-3.51 26.38-13.32 21.9-30.74C8.98-90.12.19-111.94-7.41-134.08c-1.32-3.8-3.07-7.43-4.63-11.13.69-1.01 1.39-2.01 2.1-3.01z"/>
<path id="hrn2" fill="url(#grd)" d="M22.84-35.04C1.14-14.63-5.59 9.34-4.08 36.18c.32 5.65-1.97 8.82-7.84 7.72-22.36-4.19-43.48-11.37-58.75-29.37-14.54-17.15-15.69-36.71-6.09-56.36C-71.74-52.11-65-61.75-57.91-70.81c18.85-24.06 38.22-47.74 57.63-71.37 2.36-2.87 6.24-4.48 9.4-6.67l3 2.7c-1.9 4.58-3.97 9.06-5.65 13.71-7.19 19.92-16.03 39.46-20.9 59.92-5.5 23.16 2.95 32.81 26.79 36.46 2.59.41 5.17.53 10.48 1.02z"/>
</defs>
<g id="logo" mask="url(#msk)">
<path fill="url(#grd)" d="M308.65 312.91c-13.69 19.92-31.96 28.91-52.51 32.61-28.08 5.07-54.8.71-77.97-17.32-13.4-10.42-21.07-24.94-21.85-41.43-1.27-26.82-2.34-53.9-.07-80.57 2.65-31.3 23.89-48.79 52.78-56.68 31.32-8.55 60.6-4.43 85.52 18.27 11.96 10.89 17.61 24.84 18.15 40.77.41 12.32-.19 24.65.19 36.97.32 9.82-4.26 13.18-13.57 13.1-29.5-.22-59.02-.15-88.51-.02-15.86.05-16.81 1.14-16.61 16.29.34 25.6 25.77 44.01 52.03 36.75 8.38-2.31 16.44-6.94 23.6-12.01 5.02-3.56 8.35-4.8 13.76-1.24 7.67 5.06 15.9 9.27 25.06 14.51zm-75.02-85.11c10.45 0 20.87-.17 31.32.05 6.5.15 9.23-2.34 9.5-9.13.8-19.36-9.77-30.69-33.05-34.49-24.19-3.95-46.52 11.76-46.94 32.78-.15 7.26 1.97 11.25 10.11 10.89 9.67-.41 19.36-.07 29.06-.1z"/>
<path fill="url(#grd)" d="M655.56 246.17c0 8.96-.49 17.95.07 26.87 2.31 36.58-20.07 59.63-50.78 68.47-29.33 8.43-58.02 5.99-84.32-11.37-17.59-11.59-26.43-27.89-26.62-48.81-.22-20.9-.19-41.8-.24-62.69-.1-32.05 12.64-51.59 42.7-63.74 32.71-13.23 64.23-10.57 93.55 9.47 17.15 11.72 25.89 28.35 25.79 49.35-.05 10.81 0 21.65 0 32.47l-.15-.02zm-38.38.34h-.1c0-8.21.02-16.42 0-24.62-.07-20.22-8.43-31.44-28.42-35.07-9.3-1.68-19.53-1.75-28.77.22-12.52 2.68-25.87 8.26-26.96 23.09a492.9 492.9 0 00-.29 68.1c.46 7.31 6.5 15.91 12.5 20.87 10.62 8.82 24.14 11.35 38.02 9.09 23.29-3.8 34.05-16.73 34-40.43.02-7.07.02-14.16.02-21.25z"/>
<path fill="url(#grd)" d="M942.78 246.95c0 8.96-.58 17.95.1 26.84 2.92 38.17-20.7 59.8-49.93 67.23-25.87 6.58-52.81 6.02-77.63-6.8-21.63-11.18-33.47-28.69-33.34-53.83.1-20.87-.66-41.75-1.1-62.62-.56-26.91 11.23-46.94 34.95-58.97 35.51-18.02 70.51-16.44 103.39 6.67 15.81 11.11 24.26 26.87 23.85 46.79-.24 11.57-.05 23.11-.05 34.68h-.24v.01zm-38.68-.32h-.07c0-8.57.02-17.15 0-25.72-.05-20.73-8.04-31.01-28.62-34.34a81.87 81.87 0 00-26.6.1c-20.34 3.48-29.28 15-29.37 35.61-.07 17.15-.02 34.29-.17 51.47-.1 10.94 4.36 19.36 13.3 25.57 12.28 8.52 25.87 11.37 40.41 8.57 21.48-4.17 31.18-16.17 31.15-37.75-.03-7.85-.03-15.69-.03-23.51z"/>
<path fill="url(#grd)" d="M336.39 194.19c-5.85-11.25-11.25-21.73-17.05-32.91 55.29-15.25 111.16-15.54 167.02-.17-5.24 10.77-9.99 21-15.32 30.91-.73 1.39-4.46 1.95-6.63 1.63a543.7 543.7 0 01-28.59-4.94c-9.26-1.85-13.49.34-13.4 11.08.41 44.45-.29 88.9.15 133.35.1 10.69-2.87 14.39-13.83 14.01-28.55-1-24.28 3.29-24.48-24.41-.29-41.09-.49-82.18-.12-123.27.1-9.91-3.58-12.62-12.59-11.03-11.71 2.1-23.45 3.85-35.16 5.75z"/>
<path fill="url(#grd)" d="M779.59 148.16c-8.67 12.57-16.59 24.89-25.53 36.44-2.41 3.12-7.87 3.87-11.96 5.65-12.71 5.53-19.83 13.79-19.53 29.06.76 38.07-.12 76.16.29 114.23.1 9.89-2.27 14.03-13.08 13.64-29.89-1.1-25.14 3.9-25.45-25.62-.39-33.61-.34-67.2-.46-100.81-.12-35.71 14.2-56.17 47.96-68.1 15.58-5.49 31.56-7.34 47.76-4.49z"/>
</g>
<use id="horn1" x="133" y="187" transform="translate(133 187) scale(0) translate(-133 -187) rotate(-90 133 187)" xlink:href="#hrn2"/>
<use id="horn2" x="966" y="187" transform="translate(966 187) scale(0) translate(-966 -187) rotate(90 966 187)" xlink:href="#hrn1"/>
</svg>
