<svg xmlns="http://www.w3.org/2000/svg" width="70" height="53" viewBox="0 0 70 53">
  <path fill="#fff" d="M69.73 32.65a15.13 15.13 0 000-5.73 14.93 14.93 0 00-2.2-5.4 15.12 15.12 0 00-1.93-2.35L48.34 1.91a6.55 6.55 0 00-9.25 0l-.47.47a6.5 6.5 0 00-.83 1l-.3.45-.43-.32a6.55 6.55 0 00-8.57.6l-.47.47a6.49 6.49 0 00-1.17 1.6l-.2.38-.41-.12a6.54 6.54 0 00-6.6 1.6l-.47.48a6.58 6.58 0 00-.79.95l-.34.5-6.4-6.4a6.48 6.48 0 00-2.1-1.4l-.07-.02a6.58 6.58 0 00-4.92 0 6.48 6.48 0 00-2.17 1.43l-.47.47A6.48 6.48 0 00.48 6.22a6.58 6.58 0 000 4.92l.03.08a6.47 6.47 0 001.4 2.1l20.5 20.5-4.91-.97h-.01a6.53 6.53 0 00-3.36.03 6.6 6.6 0 00-2.9 1.7 6.53 6.53 0 00-1.68 2.88l-.18.64a6.53 6.53 0 00.63 4.97 6.56 6.56 0 001.63 1.9 6.47 6.47 0 002.32 1.17l.09.02 28.02 5.51a6.77 6.77 0 00.83.16h.04l.04.02a15.01 15.01 0 0014.95-3.77l7.68-7.68a14.98 14.98 0 004.12-7.75z"/>
  <path fill="#222" d="M69.73 32.65a15.13 15.13 0 000-5.73 14.93 14.93 0 00-2.2-5.4 15.12 15.12 0 00-1.93-2.35L48.34 1.91a6.55 6.55 0 00-9.25 0l-.47.47a6.5 6.5 0 00-.83 1l-.3.45-.43-.32a6.55 6.55 0 00-8.57.6l-.47.47a6.49 6.49 0 00-1.17 1.6l-.2.38-.41-.12a6.54 6.54 0 00-6.6 1.6l-.47.48a6.58 6.58 0 00-.79.95l-.34.5-6.4-6.4a6.48 6.48 0 00-2.1-1.4l-.07-.02a6.58 6.58 0 00-4.92 0 6.48 6.48 0 00-2.17 1.43l-.47.47A6.48 6.48 0 00.48 6.22a6.58 6.58 0 000 4.92l.03.08a6.47 6.47 0 001.4 2.1l20.5 20.5-4.91-.97h-.01a6.53 6.53 0 00-3.36.03 6.6 6.6 0 00-2.9 1.7 6.53 6.53 0 00-1.68 2.88l-.18.64a6.53 6.53 0 00.63 4.97 6.56 6.56 0 001.63 1.9 6.47 6.47 0 002.32 1.17l.09.02 28.02 5.51a6.77 6.77 0 00.83.16h.04l.04.02a15.01 15.01 0 0014.95-3.77l7.68-7.68a14.98 14.98 0 004.12-7.75zm-5.97 5.9l-7.69 7.7a12.36 12.36 0 01-12.6 3.02h-.06a3.86 3.86 0 01-.78-.14l-28-5.5h-.02a3.95 3.95 0 01-2.73-4.84l.18-.64a3.94 3.94 0 014.84-2.76l13.43 2.64L3.75 11.47a3.94 3.94 0 010-5.57l.47-.47a3.94 3.94 0 015.56 0l13.93 13.92a1.69 1.69 0 102.38-2.38l-5.75-5.76.25-.35a3.92 3.92 0 01.41-.5l.48-.46a3.94 3.94 0 015.56 0l2.1 2.1.36.36 3.22 3.21a1.69 1.69 0 102.38-2.38L29.2 7.27l.25-.35a3.76 3.76 0 01.42-.5l.47-.46a3.94 3.94 0 015.57 0l3.83 3.83.36.36 2.61 2.61a1.69 1.69 0 002.39-2.38l-5.3-5.3.25-.36a4.06 4.06 0 01.42-.49l.47-.47a3.94 3.94 0 015.57 0l17.25 17.26a12.41 12.41 0 010 17.54z"/>
</svg>
