<svg xmlns="http://www.w3.org/2000/svg" width="200" height="30" viewBox="0 0 200 30">
  <g fill="#018448">
    <path d="M7.09 28.25v-8L1.97 1.75h3.68l3.3 13.28 3.36-13.28h3.65l-5.09 18.69v7.81H7.09zM17.65 7.8c0-4.58 2.59-6.59 6.72-6.59s6.75 2.02 6.75 6.59v14.53c0 4.58-2.59 6.46-6.72 6.46s-6.75-1.89-6.75-6.46V7.8zm9.7.58c0-2.11-.54-3.94-3.01-3.94-2.3 0-2.94 1.66-2.94 3.94v13.25c0 2.27.64 3.94 2.98 3.94 2.43 0 2.98-1.82 2.98-3.94V8.38zM44.82 28.25l-.16-1.98a5.06 5.06 0 0 1-4.51 2.46c-2.72 0-5.38-1.6-5.38-6.4V1.75h3.74v20.07c0 2.85 1.25 3.74 2.78 3.74 2.02 0 3.17-1.54 3.17-4.64V1.75h3.78v26.5h-3.42zM52.22 10.04h-.61l1.73-3.74h-1.86V1.75h4.19V6.3l-3.45 3.74zM61.05 28.25l-3.97-26.5h3.74l3.3 23.17 3.26-23.17h3.74l-3.9 26.5h-6.17zM86.85 22.33c0 4.58-2.59 6.46-6.72 6.46s-6.75-1.89-6.75-6.46V7.8c0-4.58 2.59-6.59 6.72-6.59s6.75 2.02 6.75 6.59v8.32h-9.73v5.5c0 2.27.64 3.94 2.98 3.94 2.43 0 2.98-1.82 2.98-3.94V19.1h3.78v3.23zM83.07 8.38c0-2.11-.54-3.94-3.01-3.94-2.3 0-2.94 1.66-2.94 3.94v4.51h5.95V8.38zM96.32 28.25V1.75h10.69v3.23h-6.94v7.94h6.78v3.23h-6.78v8.87h6.94v3.23H96.32zM120.07 28.25a8.9 8.9 0 0 1-.26-1.82 5.2 5.2 0 0 1-4.42 2.3c-3.01 0-5.41-2.08-5.41-6.11v-4.19c0-5.15 2.69-5.54 9.7-6.43V8.15c0-3.04-1.44-3.71-2.98-3.71-1.57 0-2.98.7-2.98 3.74v2.3h-3.74V7.67c0-4.35 2.59-6.46 6.72-6.46s6.75 2.08 6.75 6.5v17.83c0 1.15.06 2.21.26 2.72h-3.64zm-.39-12.93c-4.8.42-5.95 1.25-5.95 3.81v2.88c0 1.89.7 3.55 2.82 3.55 2.4 0 3.1-2.14 3.14-4.93v-5.31zM137.28 28.25c-.32-.83-.32-3.14-.32-4.83v-3.65c0-2.43-1.28-2.91-2.62-2.91h-3.33v11.39h-3.74V1.75h8.48c4.54 0 4.99 3.01 4.99 6.24v1.82c0 2.14-.22 4.74-3.52 5.41 3.42.48 3.52 2.94 3.52 5.31v3.97c0 1.47.03 3.07.26 3.74h-3.72zm-.32-19.71c0-2.56-.61-3.55-2.66-3.55H131v8.64h3.39c1.95 0 2.56-.83 2.56-2.88V8.54zM154.92 28.25l-7.1-18.21.06 18.21h-3.55V1.75h4l7.04 17.47-.07-17.47h3.55v26.5h-3.93zM162.86 28.25V1.75h10.69v3.23h-6.94v7.94h6.78v3.23h-6.78v8.87h6.94v3.23h-10.69zM177 28.25V1.75h8.48c4.61 0 4.99 2.98 4.99 6.72v13.06c0 3.74-.38 6.72-4.99 6.72H177zm9.7-19.23c0-2.98-.45-4.03-2.72-4.03h-3.23v20.03h3.23c2.27 0 2.72-1.06 2.72-4.03V9.02zM193.84 17.59v-4.54h4.19v4.54h-4.19zm0 10.66v-4.54h4.19v4.54h-4.19z"/>
  </g>
</svg>
