<svg xmlns="http://www.w3.org/2000/svg" width="90" height="52" viewBox="0 0 180 113">
  <defs>
    <clipPath id="clippath">
      <path fill="none" d="M12.21 32.43S33.57.68 90.71.68s81.81 31.57 86.03 46.64l-9.21 35.64S146.5 112 91.68 112 14.21 81.7 14.21 81.7l-1.99-49.27Z"/>
    </clipPath>
    <clipPath id="clippath-1">
      <path fill="none" d="M26.25 27.94s19-22.88 65.85-22.88c36.23 0 64.09 18.06 72.66 36.62.09.2.31.29.52.22.52-.17 1.61-.46 3.25-.46 2.37 0 10.36 4.02 10.36 13.71 0 3.68-.23 4.95-.81 6.15-.26.53-.13 1.16.31 1.56a5 5 0 0 1 1.62 3.7c0 2.87-.72 7.16-3.04 10.85-.25.39-.22.9.07 1.25.65.81 1.55 2.33.43 3.62-1.25 1.44-2.42 2.28-4.4 1.88-2.83-.57-13.9-3.09-13.9-3.09s-19.57 26.77-67.47 26.77-68.11-26.15-68.11-26.15-3.34 1.77-6.78 1.77S0 81.3 0 60.01s15.08-34.82 26.25-32.07"/>
    </clipPath>
  </defs>
  <path fill="#fff" d="M12.21 32.43S33.57.68 90.71.68s81.81 31.57 86.03 46.64l-9.21 35.64S146.5 112 91.68 112 14.21 81.7 14.21 81.7l-1.99-49.27Z"/>
  <g fill="#d9ba89" clip-path="url(#clippath)">
    <path d="M174 37.98s-12.35-15.61-12.09-16.07-25.07-15.12-25.07-15.12l-22.69-5.55L92 .01 75.87.69 49.95 4.33l-23.3 12.65L14.9 28.53c2.3-1.87 5.17-2.34 6.78-2.45.83-.06 1.61-.4 2.21-.97 4.93-4.63 26.3-22.49 66.78-22.49s69.2 20.72 77.79 35.68c.46.8 1.19 1.4 2.06 1.71a10.2 10.2 0 0 1 5.77 4.87l-2.28-6.9Z"/>
    <path d="m168.45 85.41-3.56-.78a4.2 4.2 0 0 0-3.91 1.17c-5.64 5.74-26.95 24.2-67.87 24.2C49.16 110 28.17 91.42 23 86.02a3.4 3.4 0 0 0-3.13-1c-1.33.25-3.11.42-4.33-.13-2.54-1.16 4.63 10.16 4.63 10.16L42.55 106l25.08 5.09 24.04 1.7 34.7-1.7 31.41-12.54z"/>
  </g>
  <path fill="#c70630" d="M26.25 27.94s19-22.88 65.85-22.88c36.23 0 64.09 18.06 72.66 36.62.09.2.31.29.52.22.52-.17 1.61-.46 3.25-.46 2.37 0 10.36 4.02 10.36 13.71 0 3.68-.23 4.95-.81 6.15-.26.53-.13 1.16.31 1.56a5 5 0 0 1 1.62 3.7c0 2.87-.72 7.16-3.04 10.85-.25.39-.22.9.07 1.25.65.81 1.55 2.33.43 3.62-1.25 1.44-2.42 2.28-4.4 1.88-2.83-.57-13.9-3.09-13.9-3.09s-19.57 26.77-67.47 26.77-68.11-26.15-68.11-26.15-3.34 1.77-6.78 1.77S0 81.3 0 60.01s15.08-34.82 26.25-32.07"/>
  <g fill="#93062b" clip-path="url(#clippath-1)">
    <path d="m23.57 81.69 1.32-.66s19.85 24.88 65.82 24.88 59.75-19.76 66.58-25.24l1.87.4.17 23.3-70.16 6.45-75.93-15.84z"/>
    <path d="m27.25 26.57 1.26-.22a6.3 6.3 0 0 0 3.06-1.47c4.76-4.19 23.62-18.45 60.11-18.45 42.25 0 64.96 22.2 71.69 35.64.14.29.48.41.78.29l1.12-.46-.98-5.96-18.1-17.73-28.08-11.78-30.44-3.24-29.4 3.71-22.94 9.76-8.09 9.92Z"/>
  </g>
  <path fill="#191919" d="M177.1 65.9a.72.72 0 0 0-.87-.65l-3.46.74c-.69.15-1.18.76-1.17 1.47l.08 5.47c.03 1.2-.58 1.44-1.34 1.44s-2.78-1.17-2.78-3.84-.24-7.24-.24-7.24 7.36-2.6 8.32-2.97 1.1-.81 1.1-1.77-.65-14.23-9.42-14.23c-5.48 0-6.79 7.1-6.79 14.54s3.05 18.36 11.65 18.36c3.18 0 5.46-4.2 4.91-11.31Zm-8.8-19.28c1.39 0 2.49 1.41 2.54 2.74.04 1 .16 5.89.22 8.32.02.81-.49 1.54-1.26 1.79l-2.35.77s-.33-9.96-.33-11.47.24-2.16 1.18-2.16Z"/>
  <path fill="#fffffd" d="M177.58 65.28a.72.72 0 0 0-.87-.65l-3.46.74c-.69.15-1.18.76-1.17 1.47l.08 5.47c.03 1.2-.58 1.44-1.34 1.44s-2.78-1.17-2.78-3.84-.24-7.24-.24-7.24 7.36-2.6 8.32-2.97 1.1-.81 1.1-1.77-.65-14.23-9.42-14.23c-5.48 0-6.79 7.1-6.79 14.54s3.05 18.36 11.65 18.36c3.18 0 5.46-4.2 4.91-11.31Zm-8.81-19.29c1.39 0 2.49 1.41 2.54 2.74.04 1 .16 5.89.22 8.32.02.81-.49 1.54-1.26 1.79l-2.35.77s-.33-9.96-.33-11.47.24-2.16 1.18-2.16Z"/>
  <path fill="#ddd" d="M170.21 45.3s2.98 1.46 2.98 3.33.14 6.96.15 8.13-.36 1.85-1.3 2.21c0 0 .36-.31.36-2.62s-.19-6.72-.31-7.97-.48-1.9-1.89-3.07Z"/>
  <path fill="#ddd" d="m173.43 66.22.54-.15s.03 4.9.02 6.05c-.02 1.15-.33 1.63-1.29 1.75 0 0 .48.21.45-1.82l-.13-5.3c0-.25.16-.48.4-.54Z"/>
  <path fill="#ddd" d="M163.39 51.38c-.27 2.3-1.42 12.07 2.06 18.31s7.61 5.64 7.61 5.64c-3.45.89-7.75-2.23-9.27-6.38s-2.16-10.73-1.56-16.15 2.98-7.2 3.77-7.78c0 0-2.13 2.27-2.61 6.36"/>
  <path fill="#191919" d="M70.74 53.53a.48.48 0 0 0-.73-.4l-3.51 2.11a2.8 2.8 0 0 0-1.38 2.44v4.28c0 1.58-.5 2.91-1.92 2.91-1.61 0-2.02-1.49-2.06-3.02l-.15-7.05 8.29-6.17c1.13-.84 1.22-1.53 1.22-2.69s-.03-10.62-7-10.62-9.26 9.54-9.26 16.64 1.13 15.48 8.64 15.48c5.8 0 8.09-6.63 7.86-13.92Zm-7.68-16.02c1.2 0 1.8.91 1.8 1.83v8.01c0 1.17-.24 1.89-.98 2.43s-2.86 2.02-2.86 2.02-.09-9.09-.09-11.14.93-3.15 2.13-3.15"/>
  <path fill="#fff" d="M71.25 52.84a.48.48 0 0 0-.73-.4l-3.51 2.11a2.8 2.8 0 0 0-1.38 2.44v4.28c0 1.58-.5 2.91-1.92 2.91-1.61 0-2.02-1.49-2.06-3.02l-.15-7.05 8.29-6.17c1.13-.84 1.22-1.53 1.22-2.69s-.03-10.62-7-10.62-9.26 9.54-9.26 16.64 1.13 15.48 8.64 15.48c5.8 0 8.09-6.63 7.86-13.92Zm-7.69-16.02c1.2 0 1.8.91 1.8 1.83v8.01c0 1.17-.24 1.89-.98 2.43s-2.86 2.02-2.86 2.02-.09-9.09-.09-11.14.93-3.15 2.13-3.15"/>
  <path fill="#ddd" d="M65.58 49.04s1.68-.96 1.68-3.9v-6.79c0-1.58-1.16-3.1-3.33-2.69 0 0 2.11.12 2.11 2.9v7.71c0 1.41-.46 2.76-.46 2.76Z"/>
  <path fill="#ddd" d="M65.88 63.63s.72-.87.72-2.2V56.1a.7.7 0 0 1 .38-.63l.24-.13c.19-.1.42.03.42.25v5.37c0 1.25-1.05 2.35-1.76 2.67"/>
  <path fill="#ddd" d="M66.34 64.78s-1.59 1.01-3.57 1.01-7.12-1.13-7.12-14.13c0-7.68 1.39-11.11 3.7-14 0 0-2.78 4.35-2.78 14.07s3.74 12.94 6.81 13.26c1.84.19 2.97-.21 2.97-.21Z"/>
  <path fill="#ddd" d="M83.82 62.11s.65-.86.65-2.64v-3.93c0-.45.21-.88.58-1.15l.73-.55s-.36.62-.36 1.56v4.03c0 1.17-.57 2.5-1.59 2.67Z"/>
  <path fill="#ddd" d="M83.62 47.32s.57-.51.57-2.21V38.8c0-1.66-.1-4.01-2.79-4.32 0 0 3.33-.91 3.63 2.88s.21 7.23.09 8.23-1.49 1.73-1.49 1.73Z"/>
  <path fill="#191919" d="M88.46 52.64a.55.55 0 0 0-.82-.46l-3.33 1.9c-.8.46-1.3 1.31-1.3 2.23v4.43c0 1.53-.6 2.76-1.88 2.76s-2.09-1.11-2.13-2.59l-.17-7.61s7.11-4.87 8.25-5.68 1.17-.93 1.17-2.95-.62-10.71-7.27-10.71c-5.22 0-8.82 6.02-8.82 17.67s5.25 14.39 9.1 14.39 7.44-3.32 7.19-13.37Zm-7.82-16.41c1.11 0 1.9.45 1.95 1.68s.14 7.08.14 8.13-.24 1.9-1.06 2.47-2.78 1.77-2.78 1.77-.09-8.85-.09-10.97.72-3.07 1.83-3.07Z"/>
  <path fill="#fff" d="M89.04 51.96a.55.55 0 0 0-.82-.46l-3.33 1.9c-.8.46-1.3 1.31-1.3 2.23v4.43c0 1.53-.6 2.76-1.88 2.76s-2.09-1.11-2.13-2.59l-.17-7.61s7.11-4.87 8.25-5.68 1.17-.93 1.17-2.95-.62-10.71-7.27-10.71c-5.22 0-8.82 6.02-8.82 17.67s5.25 14.39 9.1 14.39 7.44-3.32 7.19-13.37Zm-7.82-16.41c1.11 0 1.9.45 1.95 1.68s.14 7.08.14 8.13-.24 1.9-1.06 2.47-2.78 1.77-2.78 1.77-.09-8.85-.09-10.97.72-3.07 1.83-3.07Z"/>
  <path fill="#ddd" d="M83.73 63.63s-9.16 1.71-9.16-13.84c0-7.87.81-10.86 3.51-14.24 0 0-4.47 2.13-4.47 14.67s5.58 14.19 7.79 14.19c1.35 0 2.34-.78 2.34-.78Z"/>
  <path fill="#191919" d="M97.41 62.15c0 .45.29.85.71.99l.78.27c.35.12.58.45.58.81v.43c0 .33-.29.6-.62.57a74 74 0 0 0-9.29-.06.56.56 0 0 1-.6-.57v-.42c0-.44.29-.82.71-.94l.37-.11c.45-.13.75-.54.75-1.01l-.17-23.82c-.06-1.03-.56-1.5-1.26-1.5s-.69-.67-.69-1.04-.05-1.2.96-1.31l6.87-.81c.39-.05.73.25.73.64v1.47c.02.17.22.25.34.12a6.4 6.4 0 0 1 4.57-2.16c3 0 4.64 2.66 4.64 5.54s-2.26 4.27-3.86 4.27-3.39-1.39-3.39-3.7c0-1.66 1.22-2.94 1.83-3.48a.33.33 0 0 0-.08-.54q-.35-.18-.96-.2c-.88 0-3.03.46-3.03 6.41s.11 20.13.11 20.13Z"/>
  <path fill="#fff" d="M97.89 61.36c0 .45.29.85.71.99l.78.27c.35.12.58.45.58.81v.43c0 .33-.29.6-.62.57a74 74 0 0 0-9.29-.06.56.56 0 0 1-.6-.57v-.42c0-.44.29-.82.71-.94l.37-.11c.45-.13.75-.54.75-1.01l-.17-23.82c-.06-1.03-.56-1.5-1.26-1.5s-.69-.67-.69-1.04-.05-1.2.96-1.31l6.87-.81c.39-.05.73.25.73.64v1.47c.02.17.22.25.34.12a6.4 6.4 0 0 1 4.57-2.16c3 0 4.64 2.66 4.64 5.54s-2.26 4.27-3.86 4.27-3.39-1.39-3.39-3.7c0-1.66 1.22-2.94 1.83-3.48a.33.33 0 0 0-.08-.54q-.35-.18-.96-.2c-.88 0-3.03.46-3.03 6.41s.11 20.13.11 20.13Z"/>
  <path fill="#ddd" d="M90.82 63.42c1.37-.06 4.97-.19 7.49.07a.1.1 0 0 0 .05-.21 10 10 0 0 0-7.59-.07c-.11.05-.08.22.05.21"/>
  <path fill="#ddd" d="M92.03 61.62c0 .26.31.4.49.21.29-.29.59-.9.59-2.13 0-2.35-.12-21.09-.15-22.63-.03-1.46-.62-2.4-2.64-2.32-.07 0-.09.1-.02.13.53.22 1.54.86 1.55 2.55l.21 22.05c.01.91 0 1.67-.02 2.14Z"/>
  <path fill="#ddd" d="M104.4 40.89a2.77 2.77 0 0 1-2.46-3.72c.07-.19-.17-.35-.32-.21a2.77 2.77 0 0 0 3.66 4.11c.12-.1.03-.29-.13-.26q-.36.09-.76.07Z"/>
  <path fill="#191919" d="M129.8 67.62c7.09.72 16.31 2.69 19.51 3.41a.95.95 0 0 0 1.15-.93.9.9 0 0 0-.56-.85l-.85-.36a1.2 1.2 0 0 1-.73-1.08c-.09-3.67-.46-19.2-.46-21.27 0-2.35.79-2.83 1.63-2.83 1.37 0 2.3 1.42 2.3 2.95s.31 15.15.31 19.4 2.39 6.09 4.1 6.52l4.9 1.18c.42.1.82-.22.82-.65 0-.65-.39-1.24-.98-1.5h-.03c-1.18-.48-2.02-1.23-2.04-2.43s-.3-18.03-.3-21.41-1.78-6.53-5.07-7.1a7.6 7.6 0 0 0-4.76.79.57.57 0 0 1-.83-.55v-.05a1.3 1.3 0 0 0-1.16-1.44l-6.46-.75a.96.96 0 0 0-1.07.95c0 .63.42 1.19 1.03 1.36l.32.09c.32.09.54.38.55.71l.44 24.61a.9.9 0 0 1-.61.86l-.56.18c-.37.12-.77.09-1.12-.09l-1.13-.57a.9.9 0 0 1-.46-.74l-.31-26.06a1.8 1.8 0 0 0-1.52-1.73l-10.73-1.5a.86.86 0 0 0-.97.8l-.02.26c-.03.51.29.97.78 1.12l.69.21a.6.6 0 0 1 .42.68l-2.92 16.85c-.03.16-.26.16-.29 0l-3.27-19.37a1.55 1.55 0 0 0-1.39-1.29l-6.13-.55a.77.77 0 0 0-.84.78v.6c.02.36.27.67.62.74l1.76.35a.4.4 0 0 1 .32.47l-3.11 16.88c-.02.13-.21.13-.24 0l-2.25-12.75c-.03-.17-.26-.19-.33-.04-1.86 4.11-5.59 3.25-5.59 3.25s2.93 16.08 3.27 17.81 1.59 2.33 2.88 2.33 2.38-.19 2.81-2.14c.36-1.66 2.52-12.69 3.16-15.96.04-.2.33-.21.37 0 .72 3.38 3.23 15.08 3.61 16.64.45 1.83 1.68 2.57 3.03 2.57s2.47-.15 2.78-2.11c.28-1.78 3.85-21.24 4.51-24.79.06-.3.35-.5.65-.43l.75.16c.2.04.35.22.35.43l.36 24.53c0 .41-.28.77-.69.85l-.52.11a.8.8 0 0 0-.63.77v.29c0 .42.32.77.73.81Z"/>
  <path fill="#fff" d="M130.27 66.96c7.09.72 16.31 2.69 19.51 3.41a.95.95 0 0 0 1.15-.93.9.9 0 0 0-.56-.85l-.85-.36a1.2 1.2 0 0 1-.73-1.08c-.09-3.67-.46-19.2-.46-21.27 0-2.35.79-2.83 1.63-2.83 1.37 0 2.3 1.42 2.3 2.95s.31 15.15.31 19.4 2.39 6.09 4.1 6.52l4.9 1.18c.42.1.82-.22.82-.65 0-.65-.39-1.24-.98-1.5h-.03c-1.18-.48-2.02-1.23-2.04-2.43s-.3-18.03-.3-21.41-1.78-6.53-5.07-7.1a7.6 7.6 0 0 0-4.76.79.57.57 0 0 1-.83-.55v-.05a1.3 1.3 0 0 0-1.16-1.44l-6.46-.75a.96.96 0 0 0-1.07.95c0 .63.42 1.19 1.03 1.36l.32.09c.32.09.54.38.55.71l.44 24.61a.9.9 0 0 1-.61.86l-.56.18c-.37.12-.77.09-1.12-.09l-1.13-.57a.9.9 0 0 1-.46-.74l-.31-26.06a1.8 1.8 0 0 0-1.52-1.73l-10.73-1.5a.86.86 0 0 0-.97.8l-.02.26c-.03.51.29.97.78 1.12l.69.21a.6.6 0 0 1 .42.68L123.57 56c-.03.16-.26.16-.29 0l-3.27-19.37a1.55 1.55 0 0 0-1.39-1.29l-6.13-.55a.77.77 0 0 0-.84.78v.6c.02.36.27.67.62.74l1.76.35a.4.4 0 0 1 .32.47l-3.11 16.88c-.02.13-.21.13-.24 0l-2.25-12.75c-.03-.17-.26-.19-.33-.04-1.86 4.11-5.59 3.25-5.59 3.25s2.93 16.08 3.27 17.81 1.59 2.33 2.88 2.33 2.38-.19 2.81-2.14c.36-1.66 2.52-12.69 3.16-15.96.04-.2.33-.21.37 0 .72 3.38 3.23 15.08 3.61 16.64.45 1.83 1.68 2.57 3.03 2.57s2.47-.15 2.78-2.11c.28-1.78 3.85-21.24 4.51-24.79.06-.3.35-.5.65-.43l.75.16c.2.04.35.22.35.43l.36 24.53c0 .41-.28.77-.69.85l-.52.11a.8.8 0 0 0-.63.77v.29c0 .42.32.77.73.81Z"/>
  <ellipse cx="133.87" cy="31.06" fill="#191919" rx="4.07" ry="4.23"/>
  <ellipse cx="134.36" cy="30.55" fill="#fff" rx="4.07" ry="4.23"/>
  <path fill="#ddd" d="M135.72 33.27a3.59 3.59 0 0 1-2.95-5.62c.08-.11-.05-.24-.17-.17a3.56 3.56 0 0 0 1.96 6.56c.85 0 1.63-.29 2.25-.78.07-.05.01-.16-.07-.14q-.48.14-1.02.14Z"/>
  <path fill="#ddd" d="M103.91 45.94a.1.1 0 0 0-.11.13c.27 1.51 2.77 15.44 3 16.57.23 1.16 1.66 2.62 3.13 1.3.05-.04.01-.12-.05-.11-.48.07-1.64 0-2-2.17-.43-2.59-2.76-14.31-3.06-15.79-.01-.07-.09-.11-.16-.08q-.18.1-.76.14Z"/>
  <path fill="#ddd" d="M112.23 54.81c-.02.13.16.16.19.04 1.23-5.48 3.32-14.83 3.53-16.02.28-1.57.21-2.85-1.98-2.9-.05 0-.07.07-.02.09.51.2 1.46.82 1.09 2.6-.4 1.95-1.91 10.86-2.82 16.18Z"/>
  <path fill="#ddd" d="M115.25 46.06c-.07.01-.12-.08-.07-.13.19-.2.56-.5 1.16-.5.9 0 1.07 1.12 1.36 2.47s2.85 14.07 3.27 15.62c.34 1.28 1.04 1.6 1.71 1.57.06 0 .08.08.02.1-.73.24-2.22.51-2.67-1.06-.6-2.12-3.48-16.69-3.77-17.51-.2-.57-.72-.59-1.01-.55Z"/>
  <path fill="#ddd" d="M124.74 56.81a.35.35 0 0 1-.26-.4c.36-2.29 2.57-16.16 2.89-17.43.21-.82-.39-1.09-.91-1.16-.18-.03-.21-.28-.04-.34.37-.13.82-.21 1.15.03.67.48.93 1.07.54 2.8-.35 1.57-2.51 13.88-2.92 16.23a.35.35 0 0 1-.45.28Z"/>
  <path fill="#ddd" d="M131.22 66.05c-.17-.04-.16-.28 0-.32a7 7 0 0 1 2.59 0c1.93.32 3.71.46 4.71 1.11.13.08.06.28-.09.27-1.15-.07-4.3-.32-7.21-1.06"/>
  <path fill="#ddd" d="M141.69 67.79c-.17-.06-.16-.32.02-.35a7 7 0 0 1 2.77.12c2.05.45 3.93.7 4.97 1.47.13.1.05.31-.11.29a44 44 0 0 1-7.65-1.54Z"/>
  <path fill="#ddd" d="M132.25 64.29c0 .21.25.32.41.18.23-.2.47-.54.47-1.09.01-1.04-.13-22.89-.2-23.79-.06-.78-.67-1.47-1.96-1.47-.12 0-.15.16-.04.21.45.18.96.56.97 1.42l.35 24.55Z"/>
  <path fill="#ddd" d="M141.31 39.38s-.03-.05 0-.05c.73.02 2.12.28 2.18 1.9.09 2.21.39 22.82.39 23.74 0 .65-.59 1.07-.95 1.26-.09.05-.19-.03-.17-.13.07-.28.15-.86.12-1.94-.05-1.8-.49-22.75-.62-23.83-.08-.66-.58-.88-.97-.96Z"/>
  <path fill="#ddd" d="M160.92 72.05s-3.41-.72-4.83-1.27-2.49-1.92-2.55-4.58-.39-18.44-.46-20.21-.33-3.54-4.03-3.82c0 0 .39-.49 1.89-.49 1.69 0 3.3.86 3.3 4.38s.26 17.73.31 19.64.38 3.86 2.43 4.47 3.14.77 3.94 1.89Z"/>
  <path fill="#191919" d="m33.87 32.29-1.02.32a.57.57 0 0 1-.73-.58l.05-.51c.05-.52.35-.99.82-1.24l7-3.77a.9.9 0 0 1 1.31.78l-.02 12.54c0 .51.62.78.98.42 1.18-1.15 3.32-2.81 5.86-2.81 2.78 0 3.82 2.19 3.82 5.38 0 3.47.11 17.42.15 21.65 0 .69.53 1.27 1.22 1.33l.87.08a.9.9 0 0 1 .82.9v.23c0 .45-.33.83-.77.9l-5 .71c-1.94.26-3.91-.73-3.91-4.99V44.88c0-1.71-.45-2.91-1.65-2.91s-2.37 1.11-2.37 5.83c0 4.16.19 16.56.23 19.43 0 .33.27.61.6.62l.73.03c.34.01.6.29.6.63v.12c0 .6-.43 1.12-1.03 1.22-1.9.33-6.05 1.08-9.13 1.92a.77.77 0 0 1-.97-.74v-.02c0-.46.27-.87.68-1.06l.7-.32c.58-.27.98-.49.98-1.94l-.21-34.91a.5.5 0 0 0-.64-.47Z"/>
  <path fill="#fff" d="m34.44 31.53-1.02.32a.57.57 0 0 1-.73-.58l.05-.51c.05-.52.35-.99.82-1.24l7-3.77a.9.9 0 0 1 1.31.78l-.02 12.54c0 .51.62.78.98.42 1.18-1.15 3.32-2.81 5.86-2.81 2.78 0 3.82 2.19 3.82 5.38 0 3.47.11 17.42.15 21.65 0 .69.53 1.27 1.22 1.33l.87.08a.9.9 0 0 1 .82.9v.23c0 .45-.33.83-.77.9l-5 .71c-1.94.26-3.91-.73-3.91-4.99V44.12c0-1.71-.45-2.91-1.65-2.91s-2.37 1.11-2.37 5.83c0 4.16.19 16.56.23 19.43 0 .33.27.61.6.62l.73.03c.34.01.6.29.6.63v.12c0 .6-.43 1.12-1.03 1.22-1.9.33-6.05 1.08-9.13 1.92a.77.77 0 0 1-.97-.74v-.02c0-.46.27-.87.68-1.06l.7-.32c.58-.27.98-.49.98-1.94l-.21-34.91a.5.5 0 0 0-.64-.47Z"/>
  <path fill="#ddd" d="M34.4 69.99c1.26-.4 4.58-1.39 8.04-1.86.15-.02.14-.24-.01-.24-2.09-.06-5.99.1-8.15 1.89-.11.09-.01.26.12.22Z"/>
  <path fill="#ddd" d="M36.01 67.5c0 .21.26.3.39.14.29-.36.64-.95.64-1.72 0-1.34-.01-32.51-.1-34.22s-.94-1.85-1.82-1.85c-.5 0-.99.24-1.39.59-.24.22 0 .6.3.5q.53-.2 1.18-.21c.46 0 .7.58.7 1.95z"/>
  <path fill="#ddd" d="M43.46 40.47c-.16.03-.26-.18-.13-.28.49-.38 1.3-.89 2.15-.89 1.37 0 2.23 1.01 2.23 3.31v18.58c0 1.68-.07 5.07 2.64 4.8s4.69.02 3.89.26c-.17.05-2.36.3-4.61.52s-2.9-2.08-2.9-5.44V43.71c0-1.62-.48-3.34-2.13-3.34q-.65.01-1.15.11Z"/>
  <path fill="#191919" d="M4.07 59.11C4.07 42.99 13.84 30.6 23 30.6c1.98 0 2.31.28 3.48.28s1.82-1.58 3.65-1.58c.99 0 1.2.39 1.2 1.77s-.26 7.73-.29 9-.96 1.3-1.22 1.3-.75.12-.96-.79-1.32-7.78-5.91-7.78c-3.45 0-8.99 4.23-8.99 18.43z"/>
  <path fill="#191919" d="M3.59 57.98c0 16.14 5.8 22.09 13.27 22.09 6.33 0 11.4-4.19 13.12-7.98l-.49-.12-4.04 4.04-7.28 1.7-4.86-1.16-6.35-6.71z"/>
  <path fill="#fff" d="M30.55 64.87c.83.12 1.4.88 1.29 1.71l-.1.61c-.93 4.59-4.25 12.03-14.57 12.03-8.49 0-13.56-9.52-13.56-21.24 0-16.12 9.77-28.51 18.93-28.51 1.98 0 2.31.28 3.48.28s1.82-1.58 3.65-1.58c.99 0 1.2.39 1.2 1.77s-.26 7.73-.29 9-.96 1.3-1.22 1.3-.75.12-.96-.79-1.32-7.78-5.91-7.78c-3.45 0-8.52 3.7-8.52 16.67s.37 16.97.57 19.39 1.31 8.4 5.86 8.4c4.26 0 7.52-2.87 8.45-9.95.11-.84.89-1.42 1.72-1.3Z"/>
  <path fill="#ddd" d="M29.74 66.38a14 14 0 0 1-1.78 5.63c-.03.05.04.1.08.06.66-.73 2.05-2.57 2.67-5.53a.5.5 0 0 0-.35-.58.5.5 0 0 0-.63.42Z"/>
  <path fill="#ddd" d="M21.83 77.49c.16-.05.12-.29-.05-.28-4.02.3-15.91-.48-15.91-20.13 0-7.86 1.67-14.98 5.88-20.58.03-.04-.03-.09-.06-.05-1.99 2.33-7.15 9.48-7.15 20.74 0 13.39 7.12 23.43 17.3 20.31Z"/>
  <path fill="#ddd" d="M25.7 31.21c1.15.9 2.87 2.85 3.11 6.59.01.21.3.24.36.04.39-1.33.82-3.75-.46-5.41A4.7 4.7 0 0 0 26 30.6c-.36-.08-.59.38-.29.61Z"/>
  <path fill="#191919" d="m75.34 80.52.91-.06.03.58.02.21a.4.4 0 0 0 .2.3 1 1 0 0 0 .26.03q.17 0 .26-.07.09-.06.12-.16l.04-.24v-.3a1 1 0 0 0-.09-.4 1 1 0 0 0-.26-.25l-.9-.53a1.5 1.5 0 0 1-.5-.49 1.84 1.84 0 0 1-.16-.65v-.29a1 1 0 0 1 .12-.53 1 1 0 0 1 .18-.23q.14-.12.38-.23.25-.1.61-.12.2 0 .43.02t.42.15q.2.12.33.31a1 1 0 0 1 .15.52l.03.49-.92.05-.02-.36q0-.09-.02-.18a.3.3 0 0 0-.05-.16.2.2 0 0 0-.13-.11q-.1-.05-.23-.03a.4.4 0 0 0-.3.11q-.12.1-.1.4 0 .15.03.26l.06.17.09.11.14.09.94.56.28.21q.13.12.22.25.05.08.09.16l.05.16.02.2.02.26q.02.33 0 .56 0 .23-.12.43a1 1 0 0 1-.24.28q-.13.1-.3.16a2 2 0 0 1-.6.12q-.3.02-.54-.03a1 1 0 0 1-.44-.17 1 1 0 0 1-.31-.33 1 1 0 0 1-.14-.52l-.05-.72Z"/>
  <path fill="#191919" d="M81.72 80.89q.01.27-.04.47a1 1 0 0 1-.19.35 1 1 0 0 1-.24.2 2 2 0 0 1-.55.18l-.27.02q-.42.02-.69-.06a1 1 0 0 1-.43-.23 1 1 0 0 1-.23-.36 2 2 0 0 1-.08-.45l-.13-2.78v-.18q0-.11.02-.22l.07-.24a1 1 0 0 1 .14-.22q.14-.16.41-.29.28-.12.71-.14.34-.02.61.06t.45.21q.2.15.27.36.09.21.1.57l.1 2.76Zm-1.02-2.67q0-.1-.02-.21a.5.5 0 0 0-.2-.35q-.1-.06-.26-.05a.4.4 0 0 0-.27.08 1 1 0 0 0-.14.17 1 1 0 0 0-.04.21v.22l.11 2.51q0 .1.02.21t.06.19q.05.09.14.13t.27.04.26-.07q.09-.06.13-.15a.4.4 0 0 0 .04-.19v-.19l-.1-2.56Z"/>
  <path fill="#191919" d="m82.59 76.94 2.44-.07.02.77-1.52.04.04 1.25 1.42-.04.02.74-1.42.04.07 2.22-.91.03-.17-4.97Z"/>
  <path fill="#191919" d="m85.42 76.86 2.77-.05v.72l-.92.01.07 4.26c-.36 0-.54 0-.91.02l-.08-4.26-.92.02c0-.29 0-.43-.02-.72Z"/>
  <path fill="#191919" d="M91.06 76.79h1.72l.24.04q.13.03.25.1a1 1 0 0 1 .48.64q.05.25.04.55l-.02 2.33q0 .26-.04.5a1 1 0 0 1-.16.42 1 1 0 0 1-.38.3q-.25.1-.68.11h-1.46V76.8Zm.91 4.25h.51l.06-.01a.3.3 0 0 0 .19-.08l.1-.13.04-.16v-.15l.02-2.48q0-.16-.03-.27a.3.3 0 0 0-.09-.15.3.3 0 0 0-.17-.07l-.25-.02h-.36v3.52Z"/>
  <path fill="#191919" d="M94.82 76.81q.93 0 1.85.03.34 0 .52.11t.26.26q.07.16.09.34v.36l-.01.54q0 .24-.05.39a1 1 0 0 1-.12.23 1 1 0 0 1-.2.13l-.29.08.2.07q.12.05.22.14t.17.25.06.41l-.02 1.01q0 .2.03.37a.5.5 0 0 0 .17.3l-1-.02q-.07-.14-.1-.29c-.03-.15-.02-.19-.02-.26l.02-1.06v-.23a.4.4 0 0 0-.05-.18.3.3 0 0 0-.14-.12 1 1 0 0 0-.27-.05h-.44l-.04 2.19-.91-.01zm.89 2.09h.48q.15 0 .24-.03t.13-.1a.3.3 0 0 0 .05-.15l.01-.18v-.47q0-.15-.03-.24a.2.2 0 0 0-.1-.12l-.13-.05-.15-.01h-.48z"/>
  <path fill="#191919" d="m98.58 76.9.92.03-.16 4.97-.91-.03.14-4.98Z"/>
  <path fill="#191919" d="m103.17 82.05-1.14-.05-.73-3.76-.06 3.73-.85-.03.18-4.97 1.19.05.74 3.69.07-3.65.84.04-.23 4.97Z"/>
  <path fill="#191919" d="m104.47 77.13.94.05-.11 1.94 1.11-1.88.94.06-1.26 2.08.99 2.89-.98-.06-.83-2.48-.13 2.43-.92-.05.25-4.97Z"/>
  <path fill="#fff" d="m75.52 80.28.91-.06.03.58.02.21a.4.4 0 0 0 .2.3 1 1 0 0 0 .26.03q.17 0 .26-.07.09-.06.12-.16l.04-.24v-.3a1 1 0 0 0-.09-.4 1 1 0 0 0-.26-.25l-.9-.53a1.5 1.5 0 0 1-.5-.49 1.84 1.84 0 0 1-.16-.65v-.29a1 1 0 0 1 .12-.53 1 1 0 0 1 .18-.23q.14-.12.38-.23.25-.1.61-.12.2 0 .43.02t.42.15q.2.12.33.31a1 1 0 0 1 .15.52l.03.49-.92.05-.02-.36q0-.09-.02-.18a.3.3 0 0 0-.05-.16.2.2 0 0 0-.13-.11q-.1-.05-.23-.03a.4.4 0 0 0-.3.11q-.12.1-.1.4 0 .15.03.26l.06.17.09.11.14.09.94.56.28.21q.13.12.22.25.05.08.09.16l.05.16.02.2.02.26q.02.33 0 .56 0 .23-.12.43a1 1 0 0 1-.24.28q-.14.1-.3.16a2 2 0 0 1-.6.12q-.3.02-.54-.03a1 1 0 0 1-.44-.17 1 1 0 0 1-.31-.33 1 1 0 0 1-.14-.52l-.05-.72Z"/>
  <path fill="#fff" d="M81.9 80.65q.01.27-.04.47a1 1 0 0 1-.19.35 1 1 0 0 1-.24.2 2 2 0 0 1-.55.18l-.27.02q-.42.02-.69-.06a1 1 0 0 1-.43-.23 1 1 0 0 1-.23-.36 2 2 0 0 1-.08-.45l-.13-2.78v-.18q0-.11.02-.22l.07-.24a1 1 0 0 1 .14-.22q.14-.16.41-.29.28-.12.71-.14.34-.02.61.06t.45.21q.2.15.27.36.09.21.1.57l.1 2.76Zm-1.02-2.66q0-.1-.02-.21a.5.5 0 0 0-.2-.35q-.1-.06-.26-.05a.4.4 0 0 0-.27.08 1 1 0 0 0-.14.17 1 1 0 0 0-.04.21v.22l.11 2.51q0 .1.02.21t.06.19q.05.09.14.13t.27.04.26-.07q.09-.06.13-.15a.4.4 0 0 0 .04-.19v-.19l-.1-2.56Z"/>
  <path fill="#fff" d="m82.77 76.7 2.44-.07.02.77-1.52.04.04 1.25 1.42-.04.02.74-1.42.04.07 2.22-.91.03-.17-4.97Z"/>
  <path fill="#fff" d="m85.6 76.62 2.77-.05v.72l-.92.01.07 4.26c-.36 0-.54 0-.91.02l-.08-4.26-.92.02c0-.29 0-.43-.02-.72Z"/>
  <path fill="#fff" d="M91.24 76.55h1.72l.24.04q.13.03.25.1a1 1 0 0 1 .48.64q.05.25.04.55l-.02 2.33q0 .26-.04.5a1 1 0 0 1-.16.42 1 1 0 0 1-.38.3q-.25.1-.68.11h-1.46v-4.98Zm.91 4.26h.51l.06-.01a.3.3 0 0 0 .19-.08l.1-.13.04-.16v-.15l.02-2.48q0-.17-.03-.27a.3.3 0 0 0-.09-.15.3.3 0 0 0-.17-.07l-.25-.02h-.36v3.52Z"/>
  <path fill="#fff" d="M95 76.57q.93 0 1.85.03.34 0 .52.11t.26.26q.07.16.09.34v.36l-.01.54q0 .24-.05.39a1 1 0 0 1-.12.23 1 1 0 0 1-.2.13l-.29.08.2.07q.12.05.22.14t.17.25.06.41l-.02 1.01q0 .2.03.37a.5.5 0 0 0 .17.3l-1-.02q-.07-.14-.1-.29c-.03-.15-.02-.19-.02-.26l.02-1.06v-.23a.4.4 0 0 0-.05-.18.3.3 0 0 0-.14-.12 1 1 0 0 0-.27-.05h-.44l-.04 2.19-.91-.01zm.89 2.1h.48q.15 0 .24-.03t.13-.1a.3.3 0 0 0 .05-.15l.01-.18v-.47q0-.15-.03-.24a.2.2 0 0 0-.1-.12l-.13-.05-.15-.01h-.48z"/>
  <path fill="#fff" d="m98.76 76.66.92.03-.16 4.97-.91-.03.14-4.98Z"/>
  <path fill="#fff" d="m103.35 81.82-1.14-.05-.73-3.76-.06 3.73-.85-.03.18-4.97 1.19.05.74 3.69.07-3.65.84.04-.23 4.97Z"/>
  <path fill="#fff" d="m104.65 76.9.94.05-.11 1.94 1.11-1.88.94.06-1.26 2.08.99 2.89-.98-.06-.83-2.48-.13 2.43-.92-.05.25-4.97Z"/>
  <path fill="#191919" d="m70.85 14.56 3.72-.21.59-.02q.3 0 .62.06.31.06.63.2t.61.4q.52.47.67 1.07t.18 1.32l.23 5.63q.02.63-.04 1.21-.06.59-.35 1.05t-.89.77a4 4 0 0 1-1.64.35l-3.57.2zm2.88 10.14.63-.03.38-.02a1 1 0 0 0 .38-.05 1 1 0 0 0 .46-.21q.16-.15.22-.34t.07-.39v-.37l-.29-6a2 2 0 0 0-.1-.64.6.6 0 0 0-.25-.35 1 1 0 0 0-.44-.15 3 3 0 0 0-.63 0l-.89.05.48 8.52Z"/>
  <path fill="#191919" d="M80.22 14.04q2.3-.08 4.61-.12.85-.02 1.31.22.45.25.67.61.21.37.26.82.04.45.05.86c0 .52 0 .78.02 1.3q0 .58-.08.94t-.28.58a1.4 1.4 0 0 1-.48.34q-.3.12-.71.22.21.04.5.15a1.7 1.7 0 0 1 1 .92q.19.38.19.99l.03 2.46q0 .46.1.9t.44.72q-1.22 0-2.44.04a3 3 0 0 1-.27-.69 3 3 0 0 1-.08-.63l-.05-2.58q0-.3-.03-.56a1 1 0 0 0-.14-.44 1 1 0 0 0-.36-.28 2 2 0 0 0-.68-.09l-1.08.03.14 5.31-2.22.07-.41-12.06Zm2.44 4.97 1.19-.03q.38 0 .59-.11a1 1 0 0 0 .31-.26 1 1 0 0 0 .12-.37v-.44l-.02-1.14q0-.37-.11-.57a1 1 0 0 0-.25-.29 1 1 0 0 0-.34-.1h-.38l-1.2.03z"/>
  <path fill="#191919" d="M90.09 13.83h2.31q0 6.03-.03 12.05h-2.22z"/>
  <path fill="#191919" d="m101.7 26.09-2.8-.08q-.98-4.54-2-9.07l.06 9.03-2.08-.03.12-12.05q1.48 0 2.96.04 1.03 4.44 2.02 8.89v-8.85l2.11.06-.39 12.05Z"/>
  <path fill="#191919" d="m104.62 14.19 2.34.1-.22 4.69q1.35-2.3 2.72-4.56l2.36.14a379 379 0 0 0-3.11 5.03q1.25 3.5 2.45 7l-2.4-.14q-1.02-3.01-2.07-6l-.28 5.88-2.25-.1.49-12.04Z"/>
  <path fill="#fff" d="m71.3 14.16 3.72-.21.59-.02q.3 0 .62.06.31.06.63.2t.61.4q.51.48.67 1.07.15.6.18 1.32l.23 5.63q.03.63-.04 1.21-.06.58-.35 1.05t-.89.77a4 4 0 0 1-1.64.35l-3.57.2zm2.88 10.14.63-.03.38-.02a1 1 0 0 0 .38-.05 1 1 0 0 0 .46-.21q.16-.15.22-.34t.07-.39v-.37l-.29-6a2 2 0 0 0-.1-.64.6.6 0 0 0-.25-.35 1 1 0 0 0-.44-.15 3 3 0 0 0-.63 0l-.89.05.48 8.52Z"/>
  <path fill="#fff" d="M80.68 13.63q2.3-.08 4.61-.12.85-.02 1.31.22.45.24.67.61.21.37.26.82.04.45.05.86c0 .52 0 .78.02 1.3q0 .58-.08.94t-.28.58a1.4 1.4 0 0 1-.48.34q-.3.12-.71.22.21.04.5.15a1.75 1.75 0 0 1 1 .92q.19.38.19.99l.03 2.46q0 .46.1.9t.44.72q-1.22 0-2.44.04a3 3 0 0 1-.27-.69 3 3 0 0 1-.08-.63l-.05-2.58q0-.3-.03-.56a1 1 0 0 0-.14-.44 1 1 0 0 0-.36-.28 2 2 0 0 0-.68-.09l-1.08.03.14 5.31-2.22.07-.41-12.06Zm2.44 4.97 1.19-.03q.39 0 .59-.11a1 1 0 0 0 .31-.26 1 1 0 0 0 .12-.37v-.44l-.02-1.14q0-.37-.11-.57a1 1 0 0 0-.25-.29 1 1 0 0 0-.34-.1h-.38l-1.2.03z"/>
  <path fill="#fff" d="M90.55 13.42h2.31q0 6.02-.03 12.05h-2.22z"/>
  <path fill="#fff" d="m102.15 25.68-2.8-.08q-.98-4.54-2-9.07l.06 9.03-2.08-.03.12-12.05q1.48 0 2.96.04 1.03 4.44 2.02 8.89v-8.85l2.11.06z"/>
  <path fill="#fff" d="m105.07 13.78 2.34.1-.22 4.69q1.35-2.3 2.72-4.56l2.36.14a379 379 0 0 0-3.11 5.03q1.25 3.5 2.45 7l-2.4-.14q-1.02-3.02-2.07-6l-.28 5.88-2.25-.1.49-12.04Z"/>
  <path d="m62.16 95.88 1.99.12-.07 1.25-.01.46q0 .23.08.41t.27.3.56.14.58-.08a.7.7 0 0 0 .31-.31q.1-.2.13-.5l.05-.65q.03-.57-.1-.88a1.4 1.4 0 0 0-.5-.59l-1.82-1.38a4 4 0 0 1-.59-.57 2.3 2.3 0 0 1-.51-1.27 6.2 6.2 0 0 1 .18-1.97 2 2 0 0 1 .71-.98q.32-.24.86-.4t1.32-.11q.42.03.9.15t.86.41q.39.28.63.75t.21 1.15l-.05 1.07-1.97-.11.04-.78v-.39q0-.2-.07-.36a.5.5 0 0 0-.24-.27 1 1 0 0 0-.49-.13q-.39-.02-.66.17-.27.2-.3.85-.02.33 0 .56.03.22.09.37.07.15.18.26t.27.23l1.88 1.43q.28.23.55.51a2.5 2.5 0 0 1 .57.95q.06.17.07.36v.43q0 .23-.02.56-.03.72-.11 1.2-.07.49-.35.9-.25.36-.58.54-.33.2-.7.28-.37.1-.73.11h-.63a5 5 0 0 1-1.19-.2 3 3 0 0 1-.93-.48 2 2 0 0 1-.59-.79 3 3 0 0 1-.16-1.16l.1-1.57Z"/>
  <path d="m70.03 89.32 1.96.09-.46 10.76-2.01-.09z"/>
  <path d="m79.51 100.45-2.53-.08-1.66-8.13-.1 8.07-1.88-.07.43-10.76 2.52.09q.82 3.99 1.68 7.96l.04-7.91 1.8.05-.29 10.77Z"/>
  <path d="m84.71 93.73.02-1.37q0-.3-.03-.54a1 1 0 0 0-.14-.4 1 1 0 0 0-.3-.25q-.2-.09-.51-.09a1 1 0 0 0-.5.11 1 1 0 0 0-.28.28q-.09.18-.12.38l-.03.39-.11 5.77q0 .24.02.47t.12.39.29.27q.2.1.53.11.35 0 .54-.11a.6.6 0 0 0 .28-.3q.08-.2.11-.43l.02-.48.02-1.4 1.99.03-.02 1.53q0 .32-.05.79a2 2 0 0 1-1.22 1.63c-.52.25-1.15.29-1.72.28q-.43 0-1.03-.13a3 3 0 0 1-1.07-.43 1.73 1.73 0 0 1-.73-1 3 3 0 0 1-.08-.53v-.49l.14-5.86q.02-.65.11-1.13.1-.47.47-.86.3-.32.65-.47a4 4 0 0 1 1.31-.33h.44c.56 0 1.16.06 1.67.31q.58.28.85.69t.31.83q.04.43.04.72l-.02 1.66z"/>
  <path d="m88.34 89.81 5.17.02v1.65H90.3l-.01 2.53h3.03v1.63h-3.04l-.01 3.31h3.4v1.66q-2.72 0-5.42-.02z"/>
  <path d="M98.37 92.06q.15-.03.46-.16.31-.12.79-.52.3-.24.46-.46l.37-.53 1.19-.02.2 10.14-1.82.03-.13-7.75q-.13.12-.45.33-.31.2-1.06.34z"/>
  <path d="m103.94 97.73 1.77-.05.01.39v.24l.01.14.01.1a.7.7 0 0 0 .14.39q.09.1.24.18t.43.06q.33 0 .5-.11.18-.1.25-.25t.08-.35v-.41l-.06-1.92q-.31.26-.65.44-.33.18-.88.2c-.51.02-1.08-.08-1.45-.46a1.8 1.8 0 0 1-.48-1.26l-.06-2.5c.03-.67.08-1.35.58-1.82s1.31-.62 1.99-.63q.72-.01 1.22.14t.78.46.42.69q.13.4.14.84l.21 5.89q.03.7-.2 1.16-.23.47-.59.72-.37.27-.85.38a5 5 0 0 1-2.12.01 2 2 0 0 1-.79-.41 2 2 0 0 1-.47-.64 2 2 0 0 1-.17-.82l-.02-.81Zm1.67-3.45q0 .19.03.37.02.19.09.35a.6.6 0 0 0 .24.26q.17.1.47.09a1 1 0 0 0 .5-.12q.18-.11.25-.28t.08-.35v-.37l-.06-1.86-.03-.3a1 1 0 0 0-.12-.31q-.09-.14-.25-.23c-.16-.09-.25-.08-.43-.08a1 1 0 0 0-.49.12.6.6 0 0 0-.24.27 1 1 0 0 0-.08.34v.33z"/>
  <path d="M110.55 91.75a3 3 0 0 0 1.24-.71q.3-.24.45-.47l.36-.54 1.19-.05.46 10.14-1.82.08-.32-7.74q-.14.13-.44.34-.32.21-1.05.36l-.05-1.4Z"/>
  <path d="M115.2 89.86q2.7-.14 5.41-.31l.09 1.51q-.36.77-.69 1.55a20.72 20.72 0 0 0-1.18 4.96q-.1 1.12-.06 2.26l-1.93.11q0-.9.14-1.79.15-1.13.43-2.24a26 26 0 0 1 1.7-4.77l-2.36.14.06 1.19-1.47.08-.14-2.68Z"/>
  <path fill="#fff" d="m62.64 95.57 1.99.12-.07 1.25-.01.46q0 .23.08.41t.27.3.56.14.58-.08a.7.7 0 0 0 .31-.31q.1-.2.13-.5l.05-.65q.03-.57-.1-.88a1.4 1.4 0 0 0-.5-.59l-1.82-1.38a4 4 0 0 1-.59-.57 2.3 2.3 0 0 1-.51-1.27 6.2 6.2 0 0 1 .18-1.97 2 2 0 0 1 .71-.98q.32-.24.86-.4t1.32-.11q.42.03.9.15t.86.41q.39.28.63.75t.21 1.15l-.05 1.07-1.97-.11.04-.78v-.39q0-.2-.07-.36a.5.5 0 0 0-.24-.27 1 1 0 0 0-.49-.13q-.39-.02-.66.17-.27.2-.3.85-.02.33 0 .56.03.22.09.37.07.15.18.26t.27.23l1.88 1.43q.28.22.55.51a2.5 2.5 0 0 1 .57.95q.06.17.07.36v.43q0 .23-.02.56-.03.72-.11 1.2-.07.49-.35.9-.24.36-.58.54-.33.2-.7.28-.37.1-.73.11h-.63a5 5 0 0 1-1.19-.2 3 3 0 0 1-.93-.48 2 2 0 0 1-.59-.79 3 3 0 0 1-.16-1.16l.1-1.57Z"/>
  <path fill="#fff" d="m70.51 89 1.96.09-.46 10.76-2.01-.09z"/>
  <path fill="#fff" d="m79.99 100.13-2.53-.08-1.66-8.13-.1 8.07-1.88-.07.43-10.76 2.52.09q.83 3.99 1.68 7.96l.04-7.91 1.8.05-.29 10.77Z"/>
  <path fill="#fff" d="m85.19 93.41.02-1.37q0-.3-.03-.54a1 1 0 0 0-.14-.4 1 1 0 0 0-.3-.25q-.2-.09-.51-.09a1 1 0 0 0-.5.11 1 1 0 0 0-.28.28q-.09.17-.12.38l-.03.39-.11 5.77q0 .24.02.47t.12.39q.1.17.29.27.2.1.53.11.35 0 .54-.11a.6.6 0 0 0 .28-.3q.09-.2.11-.43l.02-.48.02-1.4 1.99.03-.02 1.53q0 .32-.05.79a2 2 0 0 1-1.22 1.63c-.52.25-1.15.29-1.72.28q-.43 0-1.03-.13a3 3 0 0 1-1.07-.43 1.73 1.73 0 0 1-.73-1 3 3 0 0 1-.08-.53v-.49l.14-5.86q.02-.66.11-1.13.1-.47.47-.86.3-.32.65-.47a4 4 0 0 1 1.31-.33h.44c.56 0 1.16.06 1.67.31q.58.28.85.69t.31.83q.04.43.04.72l-.02 1.66z"/>
  <path fill="#fff" d="m88.82 89.5 5.17.02v1.65h-3.21l-.01 2.53h3.03v1.63h-3.04l-.01 3.31h3.4v1.66q-2.72 0-5.42-.02z"/>
  <path fill="#fff" d="M98.85 91.75q.15-.03.46-.16.31-.12.79-.52.3-.24.46-.46l.37-.53 1.19-.02.2 10.14-1.82.03-.13-7.75q-.13.12-.45.33-.31.2-1.06.34z"/>
  <path fill="#fff" d="m104.42 97.42 1.77-.05.01.39V98l.01.14.01.1a.7.7 0 0 0 .14.39q.09.1.24.18t.43.06q.32 0 .5-.11t.25-.25q.08-.15.08-.35v-.41l-.06-1.92q-.31.26-.65.44-.33.18-.88.2c-.51.02-1.08-.08-1.45-.46a1.8 1.8 0 0 1-.48-1.26l-.06-2.5c.03-.67.08-1.35.58-1.82s1.31-.62 1.99-.63q.72-.01 1.22.14t.78.46.42.69q.13.4.14.84l.21 5.89q.03.7-.2 1.16-.23.47-.59.72-.37.27-.85.38a5 5 0 0 1-2.12.01 2 2 0 0 1-.79-.41 2 2 0 0 1-.47-.64 2 2 0 0 1-.17-.82l-.02-.81Zm1.67-3.45q0 .18.03.37t.09.35a.6.6 0 0 0 .24.26q.17.1.47.09a1 1 0 0 0 .5-.12q.18-.11.25-.28t.08-.35v-.37l-.06-1.86-.03-.3a1 1 0 0 0-.12-.31q-.09-.14-.25-.23c-.16-.09-.25-.08-.43-.08a1 1 0 0 0-.49.12.6.6 0 0 0-.24.27 1 1 0 0 0-.08.34v.33z"/>
  <path fill="#fff" d="M111.03 91.43a3 3 0 0 0 1.24-.71q.3-.24.45-.47l.36-.54 1.19-.05.46 10.14-1.82.08-.32-7.74q-.14.13-.44.34-.31.21-1.05.36l-.05-1.4Z"/>
  <path fill="#fff" d="M115.68 89.54q2.7-.14 5.41-.31l.09 1.51q-.36.77-.69 1.55a20.72 20.72 0 0 0-1.18 4.96q-.1 1.12-.06 2.26l-1.93.11q0-.9.14-1.79.15-1.14.43-2.24a26 26 0 0 1 1.7-4.77l-2.36.14.06 1.19-1.47.08-.14-2.68Z"/>
  <circle cx="125.68" cy="91.99" r="1.14"/>
  <circle cx="125.91" cy="91.83" r="1.14" fill="#fff"/>
  <circle cx="56.78" cy="91.99" r="1.14"/>
  <circle cx="57.01" cy="91.83" r="1.14" fill="#fff"/>
  <path fill="#191919" d="m32.77 76.84.3-.97c.17-.55.63-.96 1.2-1.08 5.13-1.05 30.99-6.02 59.6-6.02 31.64 0 68.58 7.53 80.64 11.59.2.07.31.29.23.5a.4.4 0 0 1-.46.23c-3.79-1.08-39.15-10.5-79.63-10.5a303 303 0 0 0-61.45 6.72.37.37 0 0 1-.43-.48Z"/>
  <path fill="#fff" d="m33.05 75.94.3-.97c.17-.55.63-.96 1.2-1.08 5.13-1.05 30.99-6.02 59.6-6.02 31.64 0 68.75 8.2 80.81 12.26.2.07.31.29.23.5a.4.4 0 0 1-.46.23c-3.79-1.08-39.32-10.87-79.8-10.87a313 313 0 0 0-61.45 6.42.37.37 0 0 1-.43-.48Z"/>
  <path fill="#93062b" d="M159.29 84.03v-1.52h.65q.24 0 .35.04c.11.04.13.08.18.15s.07.15.07.24q0 .17-.1.28c-.1.11-.17.12-.3.14q.1.06.16.13l.18.25.19.3h-.37l-.22-.33-.16-.22-.09-.06-.15-.02h-.06v.64h-.31Zm.31-.88h.23q.22 0 .28-.02.08-.02.09-.06.02-.05.03-.11 0-.08-.04-.12a.2.2 0 0 0-.12-.06h-.46v.39Z"/>
  <path fill="#93062b" d="M159.91 81.96a1.3 1.3 0 1 1 0 2.6 1.3 1.3 0 1 1 0-2.6m0-.25c-.86 0-1.55.69-1.55 1.55s.69 1.55 1.55 1.55 1.55-.69 1.55-1.55-.69-1.55-1.55-1.55"/>
</svg>
