<svg xmlns="http://www.w3.org/2000/svg" width="223" height="32" viewBox="0 0 223 32">
  <path fill="#3d879b" d="M17.4 6.2q0 .7-.2 1.3l-.8 1.2-1 1-1.1.3q-.5 0-.8-.2l-.8-.5-.9-.4-1.2-.2q-1.2 0-2.4.6-1 .7-1.8 1.8T5 13.7c-.5 1.4-.4 2-.4 3q0 1.4.3 2.6t1 2q.6 1 1.4 1.4 1 .6 2 .5 1.4 0 2.4-.3a4 4 0 0 0 2.3-2l.4-.9.4-.7.6-.2q.3 0 .5.2l.2.4q0 .5-.6 1.4-.5 1-1.5 1.7c-1 .7-1.5 1.1-2.4 1.5q-1.5.7-3.1.7-1.9 0-3.5-.6t-2.7-1.7a6 6 0 0 1-1.8-3 12 12 0 0 1-.6-4.1q0-3.1 1-5.8A12 12 0 0 1 3.5 5q1.7-1.9 3.9-3 2.1-1 4.6-1t4 1.2q1.4 1.4 1.4 3.9Z"/>
  <path fill="#3d879b" d="M24.5 12.2q.8 0 1.5.4t1 1.2c.4.8.6 1 .7 1.6q.2.9.2 1.7l-.2 1.8.4.1 1 .1h.5l.5.1h.3q.6 0 .5.3l-.2.2q-.2.3-.6.4a5 5 0 0 1-2 .4h-1a7 7 0 0 1-2 2.4q-1.4 1-3.3 1a5 5 0 0 1-4-1.8l-1-1.9q-.4-1-.4-2.3c0-1.3.2-1.7.5-2.6s.7-1.7 1.3-2.5q.8-1.2 2-1.9 1-.6 2.4-.7.8 0 1.2.4.5.3.5 1l-.1.6h.3Zm.8 7.7q-1.3-.7-2.2-1.7T22 16a8 8 0 0 0-.7 3v.9q0 .5.3.8 0 .4.5.7.3.3.8.3.8 0 1.4-.5t1-1.3Zm-.6-4.1q0 .5.3 1t.8 1l.1-.6v-1.1l-.1-.6-.2-.4q-.1-.2-.3-.2-.3 0-.5.2z"/>
  <path fill="#3d879b" d="M39.7 12.3q.6 0 1.2.4t.9 1.2l.5 1.7.3 2 .2 2.4.4 1q.3.4.7.4l.7-.4.9-.8.8-.7.6-.4.2.2q0 .4-.4 1a8 8 0 0 1-2.4 2.6 3 3 0 0 1-1.7.5A3 3 0 0 1 40 22q-.4-.5-.6-1.4l-.3-1.4q0-1-.5-1.5t-.8-.4q-.6 0-1 .4-.6.4-1 1.2l-.8 1.5-.7 1.6-.5 1-.6 1-.9.6-1 .2q-.6 0-.8-.2-.4-.2-.5-.5l-.2-.8-.1-.8.1-2a54 54 0 0 1 1.4-8.5q.3-1 1.2-1.7c.9-.7 1.1-.7 1.8-.7q.9 0 1.3.6l.3 1.2V13l-.1 1.4q1-1 2-1.5.7-.5 2-.5"/>
  <path fill="#3d879b" d="M54.7 20.8q-.9.8-2.1 1.5T50 23a4 4 0 0 1-3.3-1.5q-.6-.7-1-1.6-.3-1-.3-2a12 12 0 0 1 1.5-5.6q.9-1.2 2-2.1t2.7-.9q.8 0 1.5.3a4 4 0 0 1 1.8 1.6l.5.8q.3-.7.7-1 .5-.4 1.2-.4t.9.6l.2 1.2a28 28 0 0 1-.4 4.8l-.8 4.8.8-.6 3.4-2.1q.5 0 .5.4l-.6.7-3 2.5-1.5 1-2 4.8q-.5.9-1.2 1.6l-1.4 1.1q-.8.4-1.8.4-1.5 0-2.2-.8t-.8-2c0-1 .3-1.3.8-1.9q.7-1 1.8-1.7l2.2-1.3 2-.8zm-3.3-1.2q.5 0 1-.4.4-.3.8-1l.6-1.4.4-1.6-.7.2q-.3 0-.6-.2l-.5-.3-.5-.3-.5-.1q-.3 0-.6.3l-.4.7-.3 1v1.2q0 1 .3 1.5.4.4 1 .4m2.5 5.6-1.1.6-1 .5-.7.7-.3.6.2.5.5.2q.4 0 .8-.3l.7-.7z"/>
  <path fill="#3d879b" d="M60.5 14q0-1.3.3-2.4s.5-1.5.9-2c.3-1.1.8-1 1.2-1.4q.8-.5 1.5-.5.9 0 1.5.4t.6 1.2q0 .6-.2 1t-.2 1q-.2.3-.3.9l-.2 1.2q0 .5.2.6l.6.2q.4 0 .9-.2l1-.6 1-.5 1-.2q.5 0 .8.3t.4 1q0 .4-.5 1.3l-2.1 4q-.6 1-.5 1.7 0 .4.2.7t.8.3q.4 0 1-.2a6 6 0 0 0 2-1.3l.8-.8.7-.6q.3 0 .3.3l-.1.5-.4.5-2.6 2.4-1.6 1q-.9.2-1.9.3t-2-.8q-.7-.8-.7-2.4 0-1.2.5-2.4L67 16q-1.2.8-2.1 1-.9.4-1.8.4-1.2 0-1.9-1a4 4 0 0 1-.7-2.4Z"/>
  <path fill="#3d879b" d="M87.3 11q.4 0 .7.2l.5.4.2.6.1.5q0 .7-.2 1.6l-1.1 3.6q-.3 1-.3 2.2 0 .6.3 1t1 .4q.3 0 .8-.2l.9-.5.7-.7.6-.6.3-.3h.4q.3 0 .3.3l-.3.6-1 1.2q-.6.6-1.2 1l-1.4 1-1.8.3q-.4 0-1-.2l-.9-.6a3 3 0 0 1-.9-2.3l.3-2.5a23 23 0 0 1-3 3.9q-.8.9-2 1.4-1 .6-2 .6t-1.7-.4a4 4 0 0 1-2-2.4l-.2-1.6q0-2 .7-3.8c.7-1.8 1-2.2 1.8-3q1.1-1.4 2.5-2.1 1.5-.8 2.8-.8 1.6 0 2.6.7t1.5 1.8q.3-.8.9-1zM83.6 16 82.4 15q-.6-.4-1.2-.4T80 15a5 5 0 0 0-2 2.4l-.3 1.5q0 .4.4.9.3.4 1 .4.8 0 1.3-.4.7-.4 1.3-1l1.1-1.3z"/>
  <path fill="#3d879b" d="M101.5 4q.9-.1 1.3.4.3.4.3 1V6l-.4.9-.5 1-.6 1.2h3q.5.3.5.6 0 .1-.4.3l-.7.3-1 .3q-.5 0-.8.3l-1.7.7-.2.7q-.7 1.7-1.1 3.5-.5 1.7-.5 3.6 0 1.2.6 1.8.7.5 1.5.5t1.5-.4 1.5-1l1-1 .7-.4.3.1.2.2q0 .3-.4.8l-2.5 2.8-1.6 1q-.9.3-1.9.3-2.4 0-3.9-1.3-1.5-1.2-1.4-4 0-1.7.3-3.5-.4.4-1.2.7l-1.2.3q-.7 0-1-.4-.5-.5-.5-1.1 0-.9.4-1.5.4-.8.9-1.1.4-.5 1.2-.8l2.8-1.2.4-1.2q.8-2.4 2-3.7a4 4 0 0 1 3-1.4Z"/>
  <path fill="#3d879b" d="M116.6 10.5q1 0 1.4.6t.4 1.5l-.1 1.3-.5 2.1-.6 4.3.2.9q.3.4.8.4l1-.4 1-.8 1-.9.6-.3q.3 0 .3.2l-.4.8-1.1 1.4q-.7.8-1.7 1.3t-2 .6l-1-.2q-.5-.1-1-.6l-.7-1q-.3-.7-.3-1.6-1.2 2-2.4 3-1.3 1-2.7 1-1.7 0-2.5-1.3a7 7 0 0 1-1-3.5V16s.3-2.2.6-3.2q.4-1.4 1.2-2.4t1.6-1q1.2 0 1.9.5c.7.5.6.8.7 1.6l-.1 1.9-1 4.2q-.2 1-.1 1.6 0 .7.3 1 .2.5.7.5.8 0 1.4-1t1-2.5l1.2-4.5.8-1.6q.5-.6 1.2-.6Z"/>
  <path fill="#3d879b" d="M127.3 0q1.2 0 1.6.7t.4 2.2q0 .6-.3 1.9l-.6 2.7-.9 3.3-.8 3.4-1 5.7q0 .8.3 1.3t.9.4q.8 0 1.5-.4a8 8 0 0 0 2.2-1.7l.5-.3q.3 0 .3.2l-.5 1.1-1.2 1.7q-.8.8-2 1.4-1 .7-2.2.7-1.8 0-3-1.4-1-1.2-1-3.5a95 95 0 0 1 .8-11.4l.7-3.6q.2-1 .6-1.7l1-1.4 1.3-1z"/>
  <path fill="#3d879b" d="M144.7 11q.4 0 .7.2l.4.4.3.6v.5q0 .7-.2 1.6l-1 3.6q-.3 1-.3 2.2 0 .6.3 1t.9.4q.4 0 .9-.2l.8-.5.8-.7.6-.6.3-.3h.3q.4 0 .4.3l-.4.6-1 1.2q-.5.6-1.1 1l-1.5 1q-.7.3-1.7.3-.5 0-1-.2l-.9-.6a3 3 0 0 1-1-2.3l.4-2.5a23 23 0 0 1-3 3.9q-.8.9-2 1.4-1 .6-2 .6t-1.7-.4a4 4 0 0 1-2-2.4q-.2-.7-.2-1.6 0-2 .7-3.8c.7-1.8 1-2.2 1.8-3q1-1.4 2.5-2.1 1.4-.8 2.8-.8 1.5 0 2.5.7t1.5 1.8q.4-.8 1-1zM141 16l-1.2-1.1q-.6-.4-1.2-.4t-1.3.4a5 5 0 0 0-2 2.4l-.3 1.5q0 .4.4.9.3.4 1 .4t1.3-.4q.7-.4 1.3-1 .8-.7 1-1.3z"/>
  <path fill="#3d879b" d="M158.9 4q.9-.1 1.2.4.4.4.4 1l-.1.6-.4.9-.4 1-.6 1.2h3q.4.3.4.6 0 .1-.3.3l-.7.3-1 .3q-.5 0-.8.3l-1.7.7-.3.7q-.7 1.7-1 3.5-.6 1.7-.5 3.6 0 1.2.6 1.8.7.5 1.5.5t1.5-.4q.8-.4 1.5-1l1-1 .7-.4.3.1.2.2-.4.8-2.5 2.8-1.6 1q-.9.3-1.9.3-2.5 0-3.9-1.3-1.5-1.2-1.5-4 0-1.7.4-3.5l-1.2.7-1.2.3q-.8 0-1.1-.4t-.4-1.1q0-.9.4-1.5l.8-1.1 1.3-.8 2.8-1.2.4-1.2q.8-2.4 2-3.7a4 4 0 0 1 3-1.4Z"/>
  <path fill="#3d879b" d="M166 10.4q.9 0 1.6.5.6.4.7 1.3c0 .9 0 1.1-.2 1.8l-1 4-.2 1.7q0 1 .5 1.4.4.5 1.1.5t1.4-.4q.8-.3 1.5-1.1l.7-.7q.2-.3.5-.3h.2l.1.3q0 .3-.3.8l-2.4 2.6-1.5 1q-.7.2-1.8.3-1 0-1.9-.4c-.9-.4-1-.6-1.3-1q-.6-.7-.8-1.6t-.3-2l.4-5.5.3-1q.2-.6.6-1.1t.9-.8 1.2-.3Zm-1.7-5.2q0-.6.3-1.2l.8-1a4 4 0 0 1 2.4-.9q1.2 0 2 .6t.8 1.8q0 .7-.3 1.2l-.8 1q-.6.4-1.3.6l-1.4.2q-1.2 0-1.9-.7t-.6-1.6"/>
  <path fill="#3d879b" d="M179.9 12.2q.8 0 1.5.4t1 1.2c.4.8.6 1 .7 1.6q.3.9.2 1.7l-.2 1.8.4.1 1 .1h.5l.5.1h.3q.5 0 .5.3l-.2.2-.6.4a5 5 0 0 1-2 .4h-1a7 7 0 0 1-2.1 2.4q-1.4 1-3.2 1a5 5 0 0 1-4-1.8l-1-1.9q-.4-1-.4-2.3c0-1.3.1-1.7.4-2.6s.8-1.7 1.4-2.5q.8-1.2 2-1.9 1-.6 2.4-.7.8 0 1.2.4.5.3.5 1l-.2.6h.4Zm.7 7.7q-1.2-.7-2-1.7-1-1-1.2-2.2a8 8 0 0 0-.8 3l.1.9.2.8.5.7q.4.3.9.3.8 0 1.4-.5t1-1.3Zm-.5-4.1q0 .5.3 1t.8 1l.1-.6v-1.1l-.1-.6-.2-.4q-.1-.2-.3-.2-.3 0-.5.2z"/>
  <path fill="#3d879b" d="M195 12.3q.8 0 1.3.4l.9 1.2.5 1.7.3 2 .2 2.4q0 .6.4 1 .3.4.7.4l.7-.4.9-.8.8-.7.6-.4.2.2q0 .4-.4 1a8 8 0 0 1-2.4 2.6 3 3 0 0 1-1.7.5 3 3 0 0 1-2.6-1.4q-.4-.5-.6-1.4l-.3-1.4q0-1-.5-1.5t-.8-.4q-.6 0-1 .4-.6.4-1 1.2l-.8 1.5-.7 1.6-.5 1-.6 1-.9.6-1 .2q-.5 0-.8-.2t-.5-.5l-.3-.8v-.8l.1-2a54 54 0 0 1 1.4-8.5q.3-1 1.2-1.7c.8-.7 1-.7 1.8-.7q.9 0 1.2.6.4.6.4 1.2V13l-.1 1.4q1-1 2-1.5.6-.5 2-.5"/>
  <path fill="#3d879b" d="M204.6 10.3q1-.7 2-1c1-.3 1.3-.3 2-.3q.6 0 1 .2.3 0 .5.4l.3.6v.6q0 .4-.2 1l-.8.9-1 1-1.8 2a2 2 0 0 0 0 2.1l.9 1 1 .8 1 .7.9-.4q.6 0 1-.3l1.4-.4q.4 0 .4.3 0 0-.4.3l-.8.5-2 1.1.1.3v.3q0 1.1-.5 2.3c-.5 1.2-.8 1.3-1.4 2q-1 .8-2 1.3t-2 .5q-2 0-2.7-.7-.8-.8-.8-1.8t1.2-2.2a9 9 0 0 1 3.8-1.9l-1.6-.8-1.5-1.1-1.1-1.5q-.5-.8-.5-2 0-1.5 1-3 1-1.6 2.7-2.7Zm0 15.5 1-.1 1-.5.8-.7q.3-.4.3-1 0-.9-.8-1.4-2 .8-2.7 1.4-.9.8-.7 1.2.1.6.3.8.4.3.9.3Z"/>
  <path fill="#3d879b" d="M218.8 21q0 .8-.3 1.4t-.8 1l-1 .6-1.2.1q-.9 0-1.3-.5-.6-.7-.5-1.4t.3-1q.2-.6.6-1 .4-.6 1-.8t1-.3q.8 0 1.5.5t.7 1.4M220 .5q1.4 0 2 .7t.6 2.2l-.3 2.1a28 28 0 0 1-1.8 5.5l-2.3 4.5q-.6.7-1 .7-.2 0-.5-.6l-.3-1.7a28 28 0 0 1-.3-4.7l.2-3.3.7-2.8q.5-1.2 1.2-1.9.8-.6 1.8-.7Z"/>
</svg>