<svg xmlns="http://www.w3.org/2000/svg" width="20" height="26" viewBox="0 0 19.5 25.33">
  <path d="M19.5 8.33c0 4.72-2.44 9.95-7.82 9.95-1.27 0-2.89-.61-3.5-1.83-1.17 4.62-1.07 5.28-3.66 8.79-.25.1-.15.15-.3-.05-.1-.96-.25-1.93-.25-2.89 0-3.1 1.42-7.57 2.13-10.61a6 6 0 0 1-.51-2.54c0-4.06 4.77-4.67 4.77-1.32 0 1.98-1.32 3.81-1.32 5.74 0 1.32 1.07 2.23 2.34 2.23 3.5 0 4.57-5.08 4.57-7.77 0-3.61-2.54-5.59-5.99-5.59-4.01 0-7.11 2.89-7.11 7.01 0 1.98 1.17 2.95 1.17 3.45 0 .36-.25 1.78-.76 1.78-1.22 0-3.25-2.03-3.25-5.59C0 3.45 5.13 0 10.36 0c4.77 0 9.14 3.25 9.14 8.33"/>
</svg>
