<svg xmlns="http://www.w3.org/2000/svg" width="23" height="23" viewBox="0 0 22.75 22.79">
  <path d="M22.67 16.07c-.1 1.83-.51 3.45-1.83 4.77s-2.95 1.78-4.77 1.83c-1.88.15-7.52.15-9.39 0-1.83-.05-3.45-.51-4.77-1.83S.13 17.9.08 16.07c-.11-1.88-.11-7.51 0-9.39.1-1.78.51-3.4 1.83-4.72C3.22.58 4.85.18 6.68.08c1.88-.11 7.51-.11 9.39 0 1.83.1 3.4.51 4.77 1.88s1.73 2.95 1.83 4.77c.1 1.88.1 7.46 0 9.34m-1.98-4.67c0-1.68.15-5.23-.46-6.7a3.8 3.8 0 0 0-2.18-2.18c-1.47-.56-5.03-.46-6.7-.46s-5.18-.1-6.7.46A3.8 3.8 0 0 0 2.52 4.7c-.61 1.47-.46 5.03-.46 6.7s-.15 5.23.46 6.7a4 4 0 0 0 2.13 2.18c1.52.56 5.08.46 6.7.46s5.23.1 6.7-.46a3.8 3.8 0 0 0 2.18-2.18c.61-1.47.46-5.03.46-6.7m-3.5 0a5.84 5.84 0 1 1-11.68 0 5.84 5.84 0 0 1 11.68 0m-9.65 0a3.84 3.84 0 0 0 3.81 3.81 3.84 3.84 0 0 0 3.81-3.81 3.84 3.84 0 0 0-3.81-3.81 3.84 3.84 0 0 0-3.81 3.81m9.9-4.72c.76 0 1.37-.61 1.37-1.37s-.61-1.32-1.37-1.32-1.37.56-1.37 1.32.61 1.37 1.37 1.37"/>
</svg>
