<svg xmlns="http://www.w3.org/2000/svg" width="111" height="90" viewBox="0 0 110.58 90">
  <path fill="#3d879b" fill-rule="evenodd" d="M107.69 29.77c-.59.35-.96.69-1.41.98a5.2 5.2 0 0 1-3.46.73c-1.63-.2-3.14-.98-4.82-1.16a5.6 5.6 0 0 0-4.67 1.42v.04q.01.02.04.01c4.13-1.85 6.71.88 10.48 1.42 1.51.22 6.02.11 6.32-2 .2-1.37-1.23-2.19-2.48-1.44M93.5 30.99c.81-1.12 2.51-1.58 3.93-1.72 1.11-.11 1.34-.8 1.1-1.25-.74-1.39-4.58.59-5.09 2.95q0 .02.02.04zm6.53-1.12s-.03 0-.03.02l.01.04c.8.56 3.63.93 4.07-.2a.6.6 0 0 0-.64-.8q-.24.05-.47.21c-.5.34-1.21.94-2.94.73m.06-.66c.3.04.57-.16.62-.46a.55.55 0 0 0-.46-.62.55.55 0 0 0-.62.46c-.04.3.16.57.46.62m-6.24 3.13s-.02.02-.01.04l.03.02c2.55-.22 3.08.9 3.65 1.57q.32.37.73.45c.85.16 1.21-.83.67-1.49-.91-1.12-4-1.42-5.07-.59m7.16.78a.6.6 0 0 0-.7.53c-.05.34.19.66.53.7a.62.62 0 1 0 .17-1.23"/>
  <path fill="#3d879b" fill-rule="evenodd" d="M10.06 29.98s.02-.02.01-.04l-.03-.02c-1.64.2-2.31-.37-2.79-.69q-.22-.16-.45-.2c-.42-.07-.76.36-.61.76.42 1.07 3.11.72 3.86.19Zm-.09-.68c.28-.04.48-.3.44-.58a.5.5 0 0 0-.58-.44c-.28.04-.48.3-.44.58s.3.48.58.44m2.53.05c1.35.14 2.97.57 3.73 1.63q0 .02.04 0l.02-.03c-.48-2.23-4.13-4.11-4.83-2.8-.23.43-.01 1.08 1.04 1.19Zm3.89 2.35a5.3 5.3 0 0 0-4.43-1.35c-1.6.17-3.03.92-4.58 1.1a5 5 0 0 1-3.28-.7c-.43-.28-.77-.59-1.34-.93-1.19-.71-2.54.08-2.35 1.37.29 2 4.56 2.11 6 1.9 3.57-.52 6.03-3.11 9.94-1.35l.04-.01zm-5.31 1.12c-.51.63-.17 1.57.64 1.42q.39-.08.69-.43c.54-.64 1.04-1.7 3.46-1.49q.02 0 .03-.02l-.01-.04c-1.02-.79-3.95-.51-4.81.56m-1.97.19a.6.6 0 0 0-.5.67c.05.32.35.55.67.5s.55-.35.5-.67a.6.6 0 0 0-.67-.5"/>
  <path fill="#a2011f" d="M18.43 29.19c0-.95.2-3.5 3.62-3.5 3.07 0 3.54 2.06 3.6 3.17.01.2-.12.36-.32.4l-1.6.36c-.3.06-.53-.14-.58-.45-.07-.63-.33-1.01-1.11-1.01-1.07 0-1.14.68-1.14 1.79v2.07c0 1.11.07 1.79 1.14 1.79.79 0 1.01-.37 1.09-1.04.04-.3.27-.49.56-.42l1.63.36q.32.08.32.42c-.06 1.09-.53 3.15-3.6 3.15-3.41 0-3.62-2.55-3.62-3.5v-3.6Z"/>
  <path fill="#a2011f" d="M28.68 25.95q.42.01.43.43v3.6q.01.42.43.43h1.38q.43-.01.43-.43v-3.6q.01-.42.43-.43h1.61q.43 0 .43.43v9.22q0 .42-.43.43h-1.61q-.42-.01-.43-.43v-2.28q0-.43-.43-.43h-1.38q-.42 0-.43.43v2.28q0 .42-.43.43h-1.61q-.42-.01-.43-.43v-9.22q0-.43.43-.43z"/>
  <path fill="#a2011f" d="M41.76 25.95q.43 0 .43.43v1.61q0 .42-.43.43h-3.49q-.42 0-.43.43v.46q.01.42.43.43h2.23q.43 0 .43.43v1.61q0 .42-.43.43h-2.23q-.42 0-.43.43v.46q.01.42.43.43h3.49q.43 0 .43.43v1.61q0 .43-.43.43h-6.05q-.42-.01-.43-.43v-9.22q.01-.43.43-.43h6.05Z"/>
  <path fill="#a2011f" d="M49.78 25.95q.43 0 .43.43v1.61q0 .42-.43.43h-3.49q-.42 0-.43.43v.46q.01.42.43.43h2.23q.43 0 .43.43v1.61q0 .42-.43.43h-2.23q-.42 0-.43.43v.46q.01.42.43.43h3.49q.43 0 .43.43v1.61q0 .43-.43.43h-6.05q-.42-.01-.43-.43v-9.22q.01-.43.43-.43h6.05Z"/>
  <path fill="#a2011f" d="M58.92 35.26c.2.37-.03.78-.48.78H56.8a.4.4 0 0 1-.33-.2l-1.5-2.9s-.07-.07-.12-.07h-.58a.44.44 0 0 0-.45.45v2.28c0 .26-.19.45-.45.45h-1.61a.44.44 0 0 1-.45-.45v-9.19c0-.26.19-.45.45-.45h3.15c2.56 0 3.6 1.09 3.6 3.46 0 1.34-.33 2.28-1.09 2.82q-.09.07-.04.19zm-4.64-6.83a.44.44 0 0 0-.45.45v1.07c0 .26.19.45.45.45h.73c.69 0 1.04-.09 1.04-.98s-.35-.98-1.04-.98z"/>
  <path fill="#a2011f" d="M59.2 26.43q-.08-.47.39-.48h1.71c.26 0 .45.13.48.37l.82 6.01c.03.14.14.14.17 0l.97-6.01q.07-.37.48-.37h1.24q.4 0 .48.37l.97 6.01c.03.14.14.14.17 0l.82-6.01c.03-.24.22-.37.48-.37h1.71q.47 0 .39.48l-1.77 9.23q-.08.36-.48.37H66.2q-.39 0-.48-.37l-.79-3.54c-.03-.14-.14-.14-.17 0l-.79 3.54q-.09.36-.48.37h-2.03q-.4 0-.48-.37z"/>
  <path fill="#a2011f" d="M73.4 25.95q.43 0 .43.43v9.22q0 .42-.43.43h-1.58q-.42-.01-.43-.43v-9.22q.01-.43.43-.43z"/>
  <path fill="#a2011f" d="M77.83 25.95q.36 0 .5.33l1.96 4.8c.06.13.17.1.17-.04v-4.65q.01-.43.43-.43h1.61q.43 0 .43.43v9.22q0 .42-.43.43h-2.12q-.35 0-.5-.33l-1.96-4.8c-.06-.13-.17-.1-.17.04v4.65q0 .42-.43.43h-1.61q-.42-.01-.43-.43v-9.22q.01-.43.43-.43z"/>
  <path fill="#a2011f" d="M90.86 25.95q.43 0 .43.43v1.61q0 .42-.43.43h-3.49q-.42 0-.43.43v.46q.01.42.43.43h2.23q.43 0 .43.43v1.61q0 .42-.43.43h-2.23q-.42 0-.43.43v.46q.01.42.43.43h3.49q.43 0 .43.43v1.61q0 .43-.43.43h-6.05q-.42-.01-.43-.43v-9.22q.01-.43.43-.43h6.05Z"/>
  <path fill="#a2011f" d="M10.87 59.46q-.84.16-.94-.71c-.2-1.17-1.14-1.92-2.49-1.92-1.12 0-1.8.66-1.69 1.32.4 2.23 9.44 2.17 9.44 8.75 0 .86-.97 5.92-7.75 5.92-6.01 0-7.29-3.95-7.44-6.18q-.03-.77.74-.94l3.23-.71q.86-.16.94.74c.11 1.37 1.17 2.17 2.52 2.17s2.43-.83 2.26-1.6C9.15 63.87.54 64.41.54 57.83c-.03-.86.49-5.92 6.89-5.92 5.89 0 7.26 3.83 7.44 5.89q.03.77-.74.94z"/>
  <path fill="#a2011f" d="M21.14 52.37q.86 0 .86.86v11.21c0 2.2.14 3.55 2.26 3.55s2.26-1.34 2.26-3.55V53.23q.02-.86.86-.86h3.2q.86 0 .86.86v12.73c0 1.89-.4 6.95-7.18 6.95s-7.18-5.06-7.18-6.95V53.23q.02-.86.86-.86z"/>
  <path fill="#a2011f" d="M40.9 52.37c.51 0 .8.29.92.77l2.03 8.32c.06.29.29.29.34 0l2.03-8.32q.15-.75.92-.77h5.92q.86 0 .86.86v18.3c0 .54-.29.86-.86.86h-3.2c-.54 0-.86-.32-.86-.86V60.26c0-.2-.26-.23-.31-.03l-2.77 11.41q-.17.74-.94.74h-1.89q-.77-.01-.94-.74l-2.77-11.41c-.06-.2-.31-.17-.31.03v11.27c0 .54-.29.86-.86.86h-3.2c-.57 0-.86-.32-.86-.86v-18.3q0-.86.86-.86h5.92Z"/>
  <path fill="#a2011f" d="M63.56 52.37c.51 0 .8.29.92.77l2.03 8.32c.06.29.29.29.34 0l2.03-8.32q.15-.75.92-.77h5.92q.86 0 .86.86v18.3c0 .54-.29.86-.86.86h-3.2c-.54 0-.86-.32-.86-.86V60.26c0-.2-.26-.23-.31-.03l-2.77 11.41q-.17.74-.94.74h-1.89q-.77-.01-.94-.74l-2.77-11.41c-.06-.2-.31-.17-.31.03v11.27c0 .54-.29.86-.86.86h-3.2c-.57 0-.86-.32-.86-.86v-18.3q0-.86.86-.86h5.92Z"/>
  <path fill="#a2011f" d="M92.3 52.37q.86 0 .86.86v3.2c0 .54-.29.86-.86.86h-6.92c-.54 0-.86.29-.86.86v.91c0 .54.31.86.86.86h4.43q.86 0 .86.86v3.2c0 .54-.29.86-.86.86h-4.43c-.54 0-.86.29-.86.86v.92c0 .54.31.86.86.86h6.92q.86 0 .86.86v3.2q0 .86-.86.86H80.29c-.54 0-.86-.32-.86-.86v-18.3c0-.57.32-.86.86-.86H92.3Z"/>
  <path fill="#a2011f" d="M110.44 70.85c.4.74-.06 1.54-.94 1.54h-3.26a.7.7 0 0 1-.66-.4l-2.97-5.75q-.1-.14-.23-.14h-1.14a.86.86 0 0 0-.89.89v4.52c0 .51-.37.89-.89.89h-3.2a.86.86 0 0 1-.89-.89V53.26c0-.51.37-.89.89-.89h6.26c5.09 0 7.15 2.17 7.15 6.86 0 2.66-.66 4.52-2.17 5.61q-.16.15-.09.37l3.03 5.63Zm-9.21-13.56a.86.86 0 0 0-.89.89v2.12c0 .51.37.89.89.89h1.46c1.37 0 2.06-.17 2.06-1.94s-.69-1.94-2.06-1.94h-1.46Z"/>
  <path fill="#a2011f" d="M58.1 43.31q-.35.07-.39-.3c-.08-.48-.47-.79-1.03-.79-.46 0-.74.27-.7.54.17.92 3.9.9 3.9 3.61 0 .35-.4 2.44-3.2 2.44-2.48 0-3.01-1.63-3.07-2.55q-.02-.32.31-.39l1.33-.3q.36-.07.39.31c.05.57.48.9 1.04.9s1-.34.93-.66c-.22-1-3.78-.78-3.78-3.5-.01-.35.2-2.44 2.85-2.44 2.43 0 3 1.58 3.07 2.43q.02.31-.31.39l-1.35.3Z"/>
  <path fill="#a2011f" d="M66.55 45.99c0 .78-.17 2.87-2.96 2.87s-2.96-2.09-2.96-2.87v-2.95c0-.78.17-2.87 2.96-2.87s2.96 2.09 2.96 2.87zm-2.04-2.32c0-.91-.06-1.46-.93-1.46s-.93.55-.93 1.46v1.7c0 .91.06 1.46.93 1.46s.93-.55.93-1.46z"/>
  <path fill="#a2011f" d="M69.22 40.38q.35 0 .35.35v4.63c0 .91.06 1.46.93 1.46s.93-.55.93-1.46v-4.63q.01-.36.35-.35h1.32q.35 0 .35.35v5.25c0 .78-.17 2.87-2.96 2.87s-2.96-2.09-2.96-2.87v-5.25q.01-.36.35-.35h1.32Z"/>
  <path fill="#a2011f" d="M76.47 42.77q0-.36-.35-.35h-1.65q-.34-.01-.35-.35v-1.32q.01-.36.35-.35h6.05q.35 0 .35.35v1.32q0 .34-.35.35h-1.65q-.34 0-.35.35v5.53q0 .34-.35.35h-1.32q-.34-.01-.35-.35v-5.53Z"/>
  <path fill="#a2011f" d="M83.24 40.38q.34.01.35.35v2.95q.01.34.35.35h1.13q.36-.01.35-.35v-2.95q.01-.34.35-.35h1.32q.36 0 .35.35v7.56q0 .34-.35.35h-1.32q-.34-.01-.35-.35v-1.87q0-.35-.35-.35h-1.13q-.34 0-.35.35v1.87q0 .34-.35.35h-1.32q-.34-.01-.35-.35v-7.56q0-.36.35-.35z"/>
  <path fill="#a2011f" d="M93.97 40.38q.35 0 .35.35v1.32q0 .34-.35.35h-2.86q-.34 0-.35.35v.38q.01.34.35.35h1.83q.35 0 .35.35v1.32q0 .34-.35.35h-1.83q-.34 0-.35.35v.38q.01.34.35.35h2.86q.35 0 .35.35v1.32q0 .36-.35.35h-4.96q-.34-.01-.35-.35v-7.56q.01-.36.35-.35h4.96Z"/>
  <path fill="#a2011f" d="M101.45 48.01c.17.31-.02.64-.39.64h-1.35a.3.3 0 0 1-.27-.17l-1.23-2.37s-.06-.06-.09-.06h-.47a.36.36 0 0 0-.37.37v1.87c0 .21-.15.37-.37.37h-1.32a.36.36 0 0 1-.37-.37v-7.53c0-.21.15-.37.37-.37h2.59c2.1 0 2.95.9 2.95 2.83 0 1.1-.27 1.87-.9 2.31q-.08.06-.03.15zm-3.8-5.6a.36.36 0 0 0-.37.37v.87c0 .21.15.37.37.37h.6c.57 0 .85-.07.85-.8s-.28-.8-.85-.8z"/>
  <path fill="#a2011f" d="M104.32 40.38q.3 0 .41.27l1.61 3.93c.05.11.14.08.14-.03v-3.81q.01-.36.35-.35h1.32q.35 0 .35.35v7.56q0 .34-.35.35h-1.74q-.3 0-.41-.27l-1.61-3.93c-.05-.11-.14-.08-.14.04v3.81q0 .34-.35.35h-1.32q-.34-.01-.35-.35v-7.56q.01-.36.35-.35z"/>
  <path fill="#a2011f" d="M3.73 40.29q.35 0 .35.35v4.58c0 .9.06 1.45.92 1.45s.92-.55.92-1.45v-4.58q.01-.35.35-.35h1.31q.35 0 .35.35v5.2c0 .77-.16 2.84-2.93 2.84s-2.93-2.07-2.93-2.84v-5.2q.01-.35.35-.35z"/>
  <path fill="#a2011f" d="M11.11 40.29q.3 0 .41.27l1.59 3.89c.05.1.14.08.14-.03v-3.78q.01-.35.35-.35h1.31q.35 0 .35.35v7.48q0 .34-.35.35h-1.72q-.3 0-.41-.27l-1.59-3.89c-.05-.11-.14-.08-.14.03v3.78q0 .34-.35.35H9.39q-.34-.01-.35-.35v-7.48q.01-.35.35-.35z"/>
  <path fill="#a2011f" d="M18.07 40.29q.35 0 .35.35v7.48q0 .34-.35.35h-1.29q-.34-.01-.35-.35v-7.48q.01-.35.35-.35z"/>
  <path fill="#a2011f" d="M24.8 48.96q-.24.24-.49 0l-.44-.44s-.09-.06-.16-.03q-.52.2-1.3.2c-2.77 0-2.93-2.07-2.93-2.84v-2.92c0-.77.16-2.84 2.93-2.84s2.93 2.07 2.93 2.84v2.92c0 .23-.02.61-.13.99q-.02.1.03.16l.53.56q.22.25-.02.5zm-3.32-3.74c0 .9.06 1.45.92 1.45s.92-.55.92-1.45v-1.68c0-.9-.06-1.45-.92-1.45s-.92.55-.92 1.45z"/>
  <path fill="#a2011f" d="M28.02 40.29q.35 0 .35.35v4.58c0 .9.06 1.45.92 1.45s.92-.55.92-1.45v-4.58q.01-.35.35-.35h1.31q.35 0 .35.35v5.2c0 .77-.16 2.84-2.93 2.84s-2.93-2.07-2.93-2.84v-5.2q.01-.35.35-.35z"/>
  <path fill="#a2011f" d="M38.59 40.29q.35 0 .35.35v1.31q0 .34-.35.35h-2.83q-.34 0-.35.35v.37q.01.34.35.35h1.81q.35 0 .35.35v1.31q0 .34-.35.35h-1.81q-.34 0-.35.35v.37q.01.34.35.35h2.83q.35 0 .35.35v1.31q0 .35-.35.35h-4.91q-.34-.01-.35-.35v-7.48q.01-.35.35-.35z"/>
  <path fill="#a2011f" d="M41.5 40.29q.35 0 .35.35v5.47q.01.34.35.35h2.61q.35 0 .35.35v1.31q0 .35-.35.35h-4.62q-.34-.01-.35-.35v-7.48q.01-.35.35-.35z"/>
  <path fill="#a2011f" d="M46.19 40.29q.3 0 .4.27l.86 2.17q.09.15.16 0l.86-2.17q.1-.28.4-.27h1.67c.27 0 .39.16.27.41l-2.09 4.68-.02.14v2.61q0 .34-.35.35h-1.64q-.34-.01-.35-.35v-2.61s0-.09-.02-.14l-2.1-4.68c-.12-.25 0-.41.27-.41z"/>
  <path fill="#3d879b" d="M54.45 21.22c-.7-.62-2.98-2.4-3.62-3.08-1-1.06-1.24-.93-2.59-.28-1.1.53-2.11 1.22-3.19 1.78-.9.46-1.35-.07-2.36.27-.79.26-7.09 5.01-6.28 4.85.7-.14 3.77-2.01 5.54-2.76.4-.17 1.22-1.46 1.63-1.53.3-.05.15.03.48.21.86.49 1.41 2.08 1.89 2.91.91 1.55.89-.34 1.13-1.16.32-1.1 1.1-1.8 1.86-2.65.66-.73.59-1 1.41-.68.51.2 3.88 2.89 4.29 3.23.54.46 1.12.81 1.68 1.2.05.04 1.42.98.99.35-.27-.6-2.38-2.24-2.86-2.66"/>
  <path fill="#3d879b" d="m89.9 20.47-1.29-1.26a35 35 0 0 1-4.16-5.25c-.81-1.24-1.54-1.71-2.43-2.9-.43-.58-1.64-1.78-1.98-1.84-.31-.05-1.02.5-1.92 1.02-.83.48-1.54 1.13-2.38 1.64-1.83 1.1-3.7 2.16-5.29 3.63a7.5 7.5 0 0 1-2.69 1.68c-1.74.7-3.02-.59-4.01-1.94a11 11 0 0 0-3.5-3.37c-.6-.34-1.31-.47-1.84-.9-.37-.3-.66-.8-.95-1.19-.89-1.19-1.97-2.35-2.73-3.63-.5-.85-.87-1.57-1.72-2.16-.63-.44-1.2-.39-1.77-1.02q-.68-.78-1.33-1.59c-.3-.39-.98-1.4-1.5-1.39-.77.02-1.71 1-2.31 1.44-.95.69-1.93 1.32-2.89 1.99-.44.3-.54.36-.92.56-.76.39-1.02.67-1.68 1.28-.46.43-1 .77-1.51 1.11-.91.59-1.42.3-2.38.58-.74.22-1.21 1.48-2.39.88-.3-.15-.53-.4-.77-.62-.17-.16-1.31-.9-1.81-.28-.46.57-1.33 1.38-1.65 1.75-.58.66-3.15 3.15-3.68 3.84-1.33 1.75-3 3.39-4.26 5.21-.37.54-.48.95-.95 1.39-.36.34-1.32.86-.81 1.04.99.35 1.2-.23 2.06-.61a6 6 0 0 0 1.65-1.51c.55-.33 1.56-1.84 1.9-2.19.24.37.66 1.15 1.1.78.23-.19.85-.75 1.04-1 .2-.27.95-1.38 1.19-1.6.43-.39.87.78 1.33 1.12.43.32 1-.64.61-1.44-.14-.29-.37-.67-.41-1.02a5 5 0 0 1 .14-1.44c.05-.21.25-.68.49-1.16.49-.43.91-.77 1.05-.84.27.18 1.07 1.3 1.39 1.56.61.51.96 1.4 1.46 2.02 1.01 1.25 1.54 1.4 2.51 2.68.29.38.75 1.02 1.23 1.13.61.15.66-.44.96-.96.84-1.44 2.04-2.75 3.07-4.03.41-.5.88-.85 1.22-1.41.32-.54.44-1.25.85-1.73.48-.56.61-.15.74-1.11.22-1.5.3-2.47 1.01-3.87.13-.27.91-2.24 1.12-2.33.6-.25 1.42 1.14 1.68 1.53.37.57.68 1.32 1.28 1.65.53.29 1.09.17 1.58.6.78.68 1.55 2.12 2.14 2.99.65.96 1.33 1.88 1.96 2.85.26.4 1.04 2.34 1.09 2.39.26.73.29 1.33.7 1.95.23.36.55.66.84.95.26.26 1.38 1.67 1.67 1.58.5-.16-.36-1.06-.51-1.27-.82-1.15-.68-2.1-.73-3.55 2.04 1.36 3.8 3.32 5.52 5.09.54.55.91 1.17 1.36 1.81.33.47.98 1.6 1.51 1.71.73.15 1.91-1.39 2.61-1.83.27.63.35 1.75 1.14 1.39.41-.19.9-1.16 1.26-1.45.4-.32.89-.51 1.32-.74.77-.41 1.12-.86 1.74-.2.58.62.89 1.56 1.45 2.21.39.46.88.77 1.31 1.18.29.28.91 1.34 1.11.58.11-.44-.71-1.95-.86-2.36-.44-1.25-1.28-2.16-1.66-3.46-.14-.47-.38-1.11-.34-1.63.04-.6.45-1.14.73-1.72.32-.66.38-1.56 1.07-1.52.27.02.58.5.86.59.32.1.63-.02.94.04.9.18 1.39 1.31 1.93 2.02.47.61 1.04 1.11 1.52 1.7.83 1.02 3.59 4.39 6.1 6.95 0-.52-.39-2.68-.51-2.8Z"/>
  <path fill="#3d879b" d="M23.61 85.63a3.6 3.6 0 0 1-1.94-.15q-.04.54-.03 1.03 0 .5.09.94.21 1.03.59 1.42.38.4.64.34l.24-.06.26-.06h.15q.07.01.09.14.03.13-.21.39-.24.25-.75.35c-.51.1-.69.04-1.03-.1q-.51-.21-.93-.66a5.3 5.3 0 0 1-1.23-2.55 9 9 0 0 1-.06-3.59q.17-.72.47-1.2c.3-.48.46-.5.77-.57q.47-.1.77.11c.3.21.32.34.38.62q.1.45.02 1.2l-.16 1.58q.2 0 .53.05.32.03.8-.06.35-.07.63-.32.27-.25.45-.64c.18-.39.19-.56.23-.9s.01-.7-.07-1.09q-.2-1-.95-1.34a3 3 0 0 0-1.84-.11q-.77.16-1.31.46t-.97.61l-.83.58q-.39.27-.88.37-.3.06-.61.01a1.6 1.6 0 0 1-1.08-.66 2 2 0 0 1-.3-.71q-.15-.74.21-1.34t1.07-1.1c.71-.49 1.04-.61 1.69-.85s1.34-.44 2.06-.58a6 6 0 0 1 2.19-.06q1 .19 1.77.7t1.28 1.31q.5.8.71 1.77.18.85.05 1.63c-.13.78-.25.99-.5 1.41a3.5 3.5 0 0 1-2.44 1.67Z"/>
  <path fill="#3d879b" d="M27.46 83.37a5 5 0 0 1 .17-2.54q.21-.51.54-.86c.33-.35.48-.38.76-.44q.5-.1.86.05.35.15.44.59.06.3.04.55l-.06.52q-.04.27-.05.56 0 .3.06.66.04.23.16.32.11.1.37.04.2-.04.43-.22l.49-.4q.26-.22.51-.4t.46-.23q.32-.06.53.07c.21.13.24.25.29.49q.06.26-.11.8l-.36 1.16q-.2.62-.35 1.22t-.07.99q.05.22.2.37t.49.07q.23-.05.48-.21a3.78 3.78 0 0 0 .96-.9q.21-.28.38-.55.23-.4.3-.41.2-.05.22.1c.02.15 0 .2-.04.33s-.09.23-.14.31q-.2.36-.48.8a6 6 0 0 1-1.45 1.46q-.45.29-.97.4-.61.12-1.14-.2-.53-.33-.71-1.2-.14-.66.04-1.37t.53-1.54q-.58.55-1.04.82c-.46.27-.62.3-.93.36q-.64.14-1.14-.33a2.2 2.2 0 0 1-.65-1.23Z"/>
  <path fill="#3d879b" d="M39.08 79.98q.48-.1.88.06c.4.16.5.28.71.5q.32.33.53.8c.21.47.25.63.31.95q.09.45.06 1.01h.24l.23-.01.28-.03.32-.05.28-.05.16-.03q.28-.06.31.08 0 .05-.09.17-.1.12-.29.27a2.39 2.39 0 0 1-1.01.46q-.3.06-.57.06-.24.87-.88 1.57t-1.65.91a2.8 2.8 0 0 1-2.33-.55 3 3 0 0 1-.81-.93q-.33-.56-.47-1.23c-.14-.67-.1-.94-.04-1.47q.1-.78.44-1.5t.88-1.23c.54-.51.78-.57 1.27-.67q.38-.07.68.05t.37.5l.02.19-.01.19.08-.02.09-.03Zm1.27 4.1a4 4 0 0 1-1.34-.67q-.6-.46-.88-1.09-.11.44-.13.87a3.67 3.67 0 0 0 .2 1.33q.09.24.23.44c.14.2.21.24.35.32s.3.1.49.06q.44-.09.7-.43.27-.34.39-.82Zm-.75-2.17q.06.3.3.57t.57.46q0-.18-.02-.36l-.05-.35q-.03-.12-.08-.28t-.14-.29c-.08-.13-.11-.16-.17-.22s-.12-.08-.18-.07q-.18.03-.21.2a1 1 0 0 0 0 .35Z"/>
  <path fill="#3d879b" d="M50.83 78.61a4 4 0 0 1 1.06-1.16q.54-.36 1.32-.52.31-.06.61.03c.3.09.37.16.54.29q.25.2.42.48t.24.62q.1.51.1.99c0 .48-.02.62-.04.9l-.06.77q-.02.35.04.57.06.24.15.31.07.06.27.03.15-.03.35-.15t.38-.3a4 4 0 0 0 .67-.88q.16-.3.31-.34.05 0 .11.02t.08.1q0 .05-.17.45c-.17.4-.29.56-.52.88s-.5.62-.82.91-.68.48-1.08.56q-.66.14-1.02-.18a1.4 1.4 0 0 1-.46-.81l-.09-.6-.06-.63-.05-.59a2 2 0 0 0-.08-.47q-.07-.26-.19-.37c-.12-.11-.2-.1-.36-.06q-.4.09-.63.71a19 19 0 0 0-.69 2.52q-.09.42-.22.75t-.34.54c-.21.21-.33.24-.58.29q-.3.06-.5 0-.2-.07-.32-.21a1 1 0 0 1-.2-.36l-.14-.43a3 3 0 0 1-.09-.54l-.08-.77-.07-.74-.06-.46q-.03-.18-.23-.37a.5.5 0 0 0-.44-.15q-.26.06-.51.28c-.25.22-.33.38-.5.68q-.26.46-.51 1.19a26 26 0 0 0-.54 1.78q-.16.58-.39 1.05t-.62.55q-.45.1-.72-.11c-.27-.21-.32-.4-.43-.8q-.08-.27-.17-.93l-.19-1.42a68 68 0 0 1-.29-2.92q-.06-.9.26-1.55.31-.66 1.13-.82.4-.09.78.1.39.18.49.69.2.98.18 2.04.2-.53.42-1.01.23-.48.54-.87.32-.4.76-.68c.44-.28.66-.33 1.09-.42q.43-.09.79.03.35.12.62.36t.45.57.3.63Z"/>
  <path fill="#3d879b" d="M60.68 75.57q.48-.1.88.06c.4.16.5.28.71.5q.32.33.53.8c.21.47.25.63.31.95q.09.45.06 1.01h.24l.23-.01.28-.03.32-.05.28-.05.16-.03q.28-.06.31.08 0 .05-.09.17-.1.12-.29.27a2.39 2.39 0 0 1-1.01.46q-.3.06-.57.06-.24.87-.88 1.57t-1.65.91a2.8 2.8 0 0 1-2.33-.55 3 3 0 0 1-.81-.93q-.33-.56-.47-1.23c-.14-.67-.1-.94-.04-1.47q.1-.78.44-1.5t.88-1.23c.54-.51.78-.57 1.27-.67q.38-.07.68.05c.3.12.32.25.37.5l.02.19-.01.19.08-.02.09-.03Zm1.27 4.1a4 4 0 0 1-1.34-.67q-.6-.46-.88-1.09-.11.44-.13.87a3.67 3.67 0 0 0 .2 1.33q.08.24.23.44c.15.2.21.24.35.32s.3.1.49.06q.44-.09.7-.43.27-.34.39-.82Zm-.75-2.18q.06.3.3.57t.57.46q0-.18-.02-.36l-.05-.35q-.03-.12-.08-.28t-.14-.29c-.08-.13-.11-.16-.17-.22s-.12-.08-.18-.07q-.18.03-.21.2a1 1 0 0 0 0 .35Z"/>
  <path fill="#3d879b" d="M68.2 69.34q.51-.1.75.09.25.2.32.54v.32l-.09.52-.14.65-.17.71q.72-.2 1.16-.29.3-.06.51-.02c.21.04.23.1.26.23q.02.1-.14.22t-.39.24l-.48.25q-.25.12-.42.23-.4.27-.84.62l-.07.36q-.15 1.02-.2 2.03-.05 1.02.16 2.03.13.65.53.89t.88.15q.36-.08.76-.38c.4-.3.5-.45.72-.74l.43-.62q.17-.28.34-.32h.17q.09.03.1.1.03.15-.1.48-.21.47-.47.92a5 5 0 0 1-1.38 1.55q-.42.3-.96.41-1.32.27-2.27-.25c-.95-.52-1.05-1.03-1.26-2.05a10 10 0 0 1-.18-1.93q-.27.29-.58.52c-.31.23-.42.25-.66.3q-.39.08-.63-.12c-.24-.2-.27-.32-.32-.55q-.1-.47.02-.85.11-.37.36-.69c.25-.32.36-.4.58-.58q.33-.27.71-.51l.35-.23.36-.21.09-.73q.15-1.39.62-2.24.47-.84 1.56-1.06Z"/>
  <path fill="#3d879b" d="M73.27 71.98q.47-.09.91.09t.53.64q.1.44.08.99l-.03 1.13-.03 1.12q0 .55.08.97.11.54.4.75t.69.12q.35-.08.73-.36a3 3 0 0 0 .97-1.25q.08-.2.22-.22.09-.02.15.03a.2.2 0 0 1 .08.12q.03.18-.11.46l-.46.88q-.24.44-.55.82-.3.38-.7.66t-.92.39q-.61.12-1.1 0a2 2 0 0 1-.85-.42q-.36-.3-.61-.76a4 4 0 0 1-.37-1.03 20 20 0 0 1-.39-3.08q0-.27.05-.6a2 2 0 0 1 .6-1.16q.25-.23.64-.3Zm-1.52-2.64q-.07-.33.04-.67.1-.35.33-.63.22-.29.54-.5.31-.21.69-.29.61-.12 1.12.1.5.22.64.89.07.39-.03.72-.1.34-.35.62c-.25.28-.36.34-.59.47q-.36.2-.79.28a1.3 1.3 0 0 1-1.6-.98Z"/>
  <path fill="#3d879b" d="M81.47 71.32q.48-.1.88.06.4.17.71.5.32.33.53.8c.21.47.25.63.31.95q.09.45.06 1.01h.24l.23-.01.28-.03.32-.05.28-.05.16-.03q.28-.06.31.08 0 .05-.09.17-.1.12-.29.27a2.39 2.39 0 0 1-1.01.46q-.3.06-.57.06-.24.87-.88 1.57t-1.65.91a2.8 2.8 0 0 1-2.33-.55 3 3 0 0 1-.81-.93q-.33-.56-.47-1.23c-.14-.67-.1-.94-.04-1.47q.1-.78.44-1.5t.88-1.23c.54-.51.78-.57 1.27-.67q.39-.07.68.05c.29.12.32.25.37.5l.02.19-.01.19.08-.02.09-.03Zm1.28 4.1a4 4 0 0 1-1.34-.67q-.6-.46-.88-1.09-.11.44-.13.87a3.67 3.67 0 0 0 .2 1.33q.08.24.23.44c.15.2.21.24.35.32s.3.1.49.06q.44-.09.7-.43.27-.34.39-.82Zm-.76-2.17q.06.3.3.57t.57.46q0-.18-.02-.36l-.05-.35q-.03-.12-.08-.28t-.14-.29q-.08-.13-.17-.22c-.09-.09-.12-.08-.18-.07q-.18.03-.21.2a1 1 0 0 0 0 .35Z"/>
  <path fill="#3d879b" d="M90.22 69.59q.39-.08.73.1.35.19.62.55c.27.36.35.54.49.86q.21.5.33 1.01a9 9 0 0 0 .41 1.31q.15.3.33.5.19.19.43.14.18-.03.37-.28.2-.24.38-.51l.35-.51q.17-.23.29-.26c.12-.03.13.02.15.1q.04.18-.1.59-.13.42-.41.86-.27.45-.66.82c-.39.37-.54.4-.84.46q-.52.1-.92-.04t-.68-.44-.48-.68c-.2-.38-.23-.51-.3-.75q-.17-.58-.45-.76a.7.7 0 0 0-.52-.13.8.8 0 0 0-.5.35q-.21.29-.36.71-.16.42-.26.93l-.21.98a5 5 0 0 1-.42 1.16q-.15.24-.38.43-.24.18-.57.25a1 1 0 0 1-.46-.02.6.6 0 0 1-.32-.24 2 2 0 0 1-.21-.39q-.08-.22-.13-.46-.07-.35-.15-1.1t-.13-1.62-.07-1.73.03-1.43q.05-.65.42-1.08.36-.44.93-.54.48-.1.76.16.27.25.35.63.09.4.13.79l.1.8q.5-.68.89-1.04t1.05-.5Z"/>
</svg>
