<svg xmlns="http://www.w3.org/2000/svg" width="80" height="80" viewBox="0 0 80 80">
  <g fill="#CE153E">
    <g>
      <path d="M13.42 6.02h.73v5.18h-.73V6.02zM16.33 7.21v3.99h-.74V6.02h.79l2.87 4.02V6.02h.73v5.18h-.79l-2.86-3.99zM24.29 7.22A1.63 1.63 0 0 0 23 6.61c-.62 0-1.01.27-1.01.7 0 1.14 2.89.62 2.89 2.46 0 .91-.74 1.53-1.9 1.53-.97 0-1.6-.38-1.96-.88l.53-.49c.35.45.85.69 1.44.69.71 0 1.12-.31 1.12-.79 0-1.26-2.89-.7-2.89-2.49 0-.83.74-1.41 1.81-1.41.81 0 1.46.36 1.78.8l-.52.49zM29.66 7.14a2.05 2.05 0 0 0-1.37-.49c-1.03 0-1.87.88-1.87 1.97 0 1.08.83 1.96 1.93 1.96.51 0 .99-.17 1.31-.48l.48.53c-.48.47-1.07.66-1.83.66-1.5 0-2.66-1.2-2.66-2.68a2.66 2.66 0 0 1 2.64-2.69c.82 0 1.4.23 1.85.65l-.48.57zM31.12 6.02h1.81c1.14 0 1.89.61 1.89 1.56 0 .74-.46 1.28-1.2 1.48l1.29 2.14h-.84l-1.21-2.05h-1.01v2.05h-.73V6.02zm.72.66V8.5h1.15c.64 0 1.07-.36 1.07-.91s-.43-.91-1.07-.91h-1.15zM36.09 6.02h.73v5.18h-.73V6.02zM38.29 6.02h1.81c1.2 0 1.99.65 1.99 1.64 0 .99-.8 1.65-2 1.65h-1.07v1.89h-.73V6.02zm.73.66v1.98h1.15c.7 0 1.16-.4 1.16-.99s-.46-.99-1.16-.99h-1.15zM44.87 6.71v4.49h-.73V6.71H42.5v-.69h4.02v.69h-1.65zM47.37 6.02h.73v5.18h-.73V6.02zM54.59 8.62c0 1.48-1.2 2.68-2.66 2.68a2.67 2.67 0 0 1-2.65-2.68 2.67 2.67 0 0 1 2.65-2.69 2.68 2.68 0 0 1 2.66 2.69zm-.78 0c0-1.09-.84-1.98-1.88-1.98-1.03 0-1.88.88-1.88 1.97 0 1.08.84 1.96 1.88 1.96a1.9 1.9 0 0 0 1.88-1.95zM56.48 7.21v3.99h-.74V6.02h.79l2.87 4.02V6.02h.73v5.18h-.79l-2.86-3.99zM64.44 7.22a1.61 1.61 0 0 0-1.28-.61c-.62 0-1.01.27-1.01.7 0 1.14 2.89.62 2.89 2.46 0 .91-.74 1.53-1.9 1.53-.97 0-1.6-.38-1.96-.88l.53-.49c.35.45.85.69 1.44.69.71 0 1.12-.31 1.12-.79 0-1.26-2.89-.7-2.89-2.49 0-.83.74-1.41 1.81-1.41.81 0 1.46.36 1.78.8l-.53.49zM12.47 13.7h1.81c1.2 0 1.99.65 1.99 1.64 0 .99-.8 1.65-2 1.65H13.2v1.89h-.73V13.7zm.73.65v1.98h1.15c.7 0 1.16-.4 1.16-.99s-.46-.99-1.16-.99H13.2zM22.31 16.3c0 1.48-1.2 2.68-2.66 2.68A2.67 2.67 0 0 1 17 16.3a2.67 2.67 0 0 1 2.65-2.69 2.67 2.67 0 0 1 2.66 2.69zm-.78 0c0-1.09-.84-1.98-1.88-1.98-1.03 0-1.88.88-1.88 1.97 0 1.08.84 1.96 1.88 1.96s1.88-.88 1.88-1.95zM23.42 13.7h.74v3.16c0 .84.52 1.4 1.29 1.4.78 0 1.29-.56 1.29-1.4V13.7h.74v3.16c0 1.28-.82 2.12-2.04 2.12s-2.02-.84-2.02-2.12V13.7zM28.88 13.7h1.81c1.14 0 1.89.61 1.89 1.56 0 .74-.46 1.28-1.2 1.48l1.29 2.14h-.84l-1.21-2.05h-1.01v2.05h-.73V13.7zm.73.65v1.82h1.15c.64 0 1.07-.36 1.07-.91s-.43-.91-1.07-.91h-1.15zM38.07 18.97c-1.5 0-2.66-1.2-2.66-2.68a2.66 2.66 0 0 1 2.64-2.69c.82 0 1.4.23 1.85.65l-.48.57a2.05 2.05 0 0 0-1.37-.49c-1.03 0-1.87.88-1.87 1.97 0 1.08.83 1.96 1.93 1.96.4 0 .77-.09 1.08-.24v-1.68h.73v2.14c-.47.32-1.08.49-1.85.49zM44.4 17.55h-2.47l-.53 1.33h-.77l2.13-5.18h.86l2.13 5.18h-.82l-.53-1.33zm-1.23-3.08-.97 2.43h1.95l-.98-2.43zM48.75 18.97c-1.5 0-2.66-1.2-2.66-2.68a2.66 2.66 0 0 1 2.64-2.69c.82 0 1.4.23 1.85.65l-.48.57a2.05 2.05 0 0 0-1.37-.49c-1.03 0-1.87.88-1.87 1.97 0 1.08.83 1.96 1.93 1.96.4 0 .77-.09 1.08-.24v-1.68h.73v2.14a3.2 3.2 0 0 1-1.85.49zM52.62 14.88v3.99h-.74V13.7h.79l2.87 4.02V13.7h.73v5.18h-.79l-2.86-4zM57.72 13.7h3.29v.69h-2.56v1.55h2.24v.69h-2.24v1.57h2.56v.69h-3.29V13.7zM62.1 13.7h1.81c1.14 0 1.89.61 1.89 1.56 0 .74-.46 1.28-1.2 1.48l1.29 2.14h-.84l-1.21-2.05h-1.01v2.05h-.73V13.7zm.72.65v1.82h1.15c.64 0 1.07-.36 1.07-.91s-.43-.91-1.07-.91h-1.15z"/>
    </g>
    <g>
      <path d="M15.35 62.05a3.6 3.6 0 0 1-1.63-1.29 6.57 6.57 0 0 1-1.07-2.19c0-.17-.11-.17-.17-.17l-.96.95c-1.12.9-2.19 1.85-3.31 2.58a7.3 7.3 0 0 1-2.25 1.01c-.45.17-.9.22-1.4.22-.67.06-1.18-.28-1.46-1.01l-.45-.84a1.95 1.95 0 0 1-.06-1.46c.17-.56.56-1.12.79-1.63l.62-.79a18.39 18.39 0 0 1 3.48-3.14l.95-.56a3.46 3.46 0 0 1 1.68-.45c.28 0 .56.06.73.28.51.45.79.9.95 1.63 0 .11-.06.22-.11.34-.11.06-.17.11-.22 0l-.39-.34c-.11-.11-.28-.28-.51-.11-.56.11-1.24.22-1.8.56-.67.34-1.29.79-1.85 1.35-.11.06-.22.11-.39.34a9.01 9.01 0 0 0-2.08 2.47c-.34.39-.51.79-.62 1.29-.06.11.06.22.11.22.22.06.51.06.62.06.51-.11 1.12-.17 1.57-.45a9.75 9.75 0 0 0 2.92-1.91l1.35-1.12c.22-.11.39-.28.56-.39.56-.67 1.18-1.24 1.74-2.02a.54.54 0 0 1 .67-.17c.28.17.73.34.9.62.06.28.11.45.06.73-.06.45-.11 1.01-.11 1.52 0 .62.11 1.18.39 1.74.11.17.34.17.51.28 1.07.67 2.19.56 3.31.11.62-.22 1.01-.28 1.57-.62.95-.73 1.52-.9 2.36-1.85.22-.22 1.01-1.18 1.18-1.46l.17-.11c0-.06.51-.06.51 0l.22.34c.22.51-.62 1.57-.9 1.97-1.57 2.25-4.21 3.59-6.29 3.65-.11 0-.84.11-1.01 0-.37-.01-.6-.07-.88-.18zm-2.02-11.8a9.33 9.33 0 0 1-1.52-.73 18.69 18.69 0 0 1-2.75-2.42c-.28-.28-.5-.56-.73-.84-.11-.22-.11-.51 0-.67l.45-.45c.28-.22.62-.17.79.11.11.06.17.17.28.28.56.67 1.07 1.4 1.68 2.02.62.56 1.18 1.18 1.85 1.74.22.17.39.34.45.62.06.17-.06.34-.28.39-.05.01-.16.01-.22-.05zM32.87 60.76c.11-.22.17-.51.17-.84-.06-.17.06-.28.06-.45.23-.9.56-1.85.68-2.7l.51-1.52c.06-.11.11-.22.22-.28.06-.06.11-.06.17 0 .51.11.9.39 1.18.84.06.11.11.28.06.39a45.57 45.57 0 0 0-1.18 3.59c-.11.73-.34 1.63-.39 2.41 0 .06.11.11.11.11l.11.06c.06 0 .06 0 .06-.06.67-.51 1.29-1.07 1.91-1.8.39-.34.62-.79 1.07-1.07l1.12-1.4c.28-.34.51-.73.73-.95 0-.06 0-.06.06-.11.28-.39.67-.79.96-1.12.17-.22.34-.62.67-.84.34-.28.45-.62.73-.9.22-.34.56-.67.73-1.07 0-.11.17-.11.22-.22.67-.51.96-1.12 1.57-1.68.39-.28.84-.62 1.35-.79.06 0 .39-.06.34.06.06.11.11.17.22.22.17.11 0 .45-.11.62-.22.22-.39.56-.62.79-.51.56-.9 1.12-1.35 1.74l-1.01 1.29-1.85 2.36c-1.12 1.46-2.19 2.86-3.37 4.27-.39.34-.62.73-.95 1.12-.39.45-.9.79-1.4 1.12-.45.17-.79.17-1.18 0-.39-.17-.73-.51-.95-.73-.45-.56-.84-1.18-.67-1.91-.04-.16.02-.38.02-.55zM49.04 63.29c-1.12-.56-1.57-.84-1.91-2.13a3.22 3.22 0 0 1-.22-2.08l.51-1.8c.34-.67.79-1.46 1.01-2.13.06 0-.06-.11 0-.17.06-.11.39-.22.51-.17.28.17.51.22.73.39.06.06.06.11.17.17.45.45.5.73.11 1.35l-.96 2.19c-.22.67-.45 1.35-.34 2.02.11 1.29 1.63 1.29 2.7 1.12a17.24 17.24 0 0 0 6.74-2.97c.84-.79.11 0 1.24-.9.22-.22.79-.62 1.01-.84.62-.34 1.74-1.63 2.13-.95.11.28-.28.73-.06 1.12l-.11.34c-.11.34-.39.39-.73.45-.51.45-.95.79-1.4 1.29-1.46 1.12-1.57 1.18-2.7 1.91 0 .06-.56.17-.62.22-.51.56-1.12.67-2.25 1.18-1.12.28-2.7.95-4.16.73-.39 0-.84-.17-1.4-.34zm1.63-12.52c-.17-.06-.22-.17-.34-.28-.17-.28-.22-.67-.17-1.01.17-.62.22-1.18.67-1.8 0-.11.06-.22.11-.17.22-.11.39-.17.56-.17.34.11.62.28.95.62.34.22.22.45.17.84 0 .11-.11.22-.17.39-.22.28-.45.62-.67 1.07.11.06.11.11-.06.17a.84.84 0 0 1-.79.45.6.6 0 0 0-.26-.11z"/>
      <path d="M60.61 63.46c-.84-.84-1.74-1.8-1.57-2.98 0-.11.06-.79.17-.95l.11-.34c.39-.9.39-.9.9-1.74a12.36 12.36 0 0 1 4.72-4.15c.11 0 .28-.06.45-.17.56-.22 1.35.17 1.68.56l.22.56c.11.84-.11 1.63-.67 2.19-.84.95-1.74 1.91-2.81 2.69-.17.17-.45.28-.62.45-.22.22-.62.22-.95.28-.28.17-.56.11-.79-.17l-.22-.17s-.17 0-.17.06c-.34.51-.34 1.29-.34 1.8.06.22.17.39.39.62.28.39.73.51 1.12.51.22.06.39.06.62.06.62-.06 1.35 0 2.08-.28 2.75-.67 4.89-1.74 7.19-2.75 1.18-.56 2.13-1.18 3.2-1.68.67-.39.56-.34 1.29-.84.39-.34.22-.17.79-.39.11-.11.06 0 .11.22.06.28.28.79 0 1.01-.51.51-.17.34-.67.79-1.12.84-2.25 1.35-3.43 2.08-.79.39-1.52.79-2.19 1.07-1.52.62-3.03 1.29-4.66 1.68l-1.63.45c-.84.22-1.07.22-1.97.22-.78-.13-1.73-.18-2.35-.69zm5.05-8.42c-.06 0-.17.06-.22.06-1.4.62-2.47 1.35-3.03 2.64-.11.06-.11.22-.17.39a13.74 13.74 0 0 0 3.42-3.09z"/>
    </g>
    <g>
      <path d="M2.35 24.33h2.92c2.62 0 4.55 1.7 4.55 4.03 0 2.3-1.93 4-4.55 3.99H2.35v-8.02zm2.13 1.94v4.15h.76c1.42 0 2.36-.83 2.36-2.08 0-1.24-.94-2.07-2.37-2.07h-.75zM10.94 24.33h5.34v1.94h-3.27v1.05h2.77v1.94h-2.77v1.15h3.27v1.94h-5.34v-8.02zM19.91 24.33h2.07v6.09h3.64v1.94h-5.71v-8.03zM26.4 26.67h-1.47l.31-2.93h1.9l-.74 2.93zM28.21 24.33h5.34v1.94h-3.27v1.05h2.77v1.94h-2.77v1.15h3.27v1.94h-5.34v-8.02zM39.23 27.02c-.35-.5-.98-.93-1.75-.93-.51 0-.76.2-.76.49 0 1.04 3.92.56 3.92 3.37 0 1.49-1.32 2.61-3.21 2.6-1.82 0-2.76-.71-3.26-1.5l1.47-1.38c.46.64 1.09.94 1.83.94.63 0 .95-.2.95-.58 0-1.09-3.92-.58-3.92-3.41 0-1.44 1.29-2.48 3.07-2.48 1.39 0 2.47.6 3.07 1.47l-1.41 1.41zM46.26 27.02c-.35-.5-.98-.93-1.75-.93-.51 0-.76.2-.76.49 0 1.04 3.92.56 3.92 3.37 0 1.49-1.32 2.61-3.21 2.6-1.82 0-2.76-.71-3.26-1.5l1.47-1.38c.46.64 1.09.94 1.83.94.63 0 .95-.2.95-.58 0-1.09-3.92-.58-3.92-3.41 0-1.44 1.29-2.48 3.07-2.48 1.39 0 2.47.6 3.07 1.47l-1.41 1.41zM48.73 24.34h5.34v1.94H50.8v1.05h2.77v1.94H50.8v1.15h3.27v1.94h-5.34v-8.02zM57.25 27.8v4.57h-2.07v-8.03h2.22l2.94 4.65v-4.65h2.07v8.03h-2.22l-2.94-4.57zM69.4 26.92c-.38-.39-1-.7-1.68-.7-1.1 0-1.97.95-1.97 2.13s.86 2.14 2.07 2.14a2.1 2.1 0 0 0 1.58-.7l1.38 1.53c-.68.81-1.69 1.24-3.09 1.24a4.12 4.12 0 0 1-4.14-4.21c0-2.32 1.87-4.2 4.16-4.2 1.45 0 2.44.48 3.08 1.19l-1.39 1.58zM71.72 24.34h5.34v1.94h-3.27v1.05h2.77v1.94h-2.77v1.15h3.27v1.94h-5.34v-8.02z"/>
    </g>
    <g>
      <path d="M25.1 43.3c-1.5 0-2.66-1.2-2.66-2.68a2.66 2.66 0 0 1 2.64-2.69c.82 0 1.4.23 1.85.65l-.48.57a2.05 2.05 0 0 0-1.37-.49c-1.03 0-1.87.88-1.87 1.97 0 1.08.83 1.96 1.93 1.96.4 0 .77-.09 1.08-.24v-1.68h.73v2.14c-.46.32-1.07.49-1.85.49zM28.26 38.03h1.81c1.14 0 1.89.61 1.89 1.56 0 .74-.46 1.28-1.2 1.48l1.29 2.14h-.84L30 41.16h-1.01v2.05h-.73v-5.18zm.73.65v1.82h1.15c.64 0 1.07-.36 1.07-.91s-.43-.91-1.07-.91h-1.15zM36.45 41.88h-2.47l-.53 1.33h-.77l2.13-5.18h.86l2.13 5.18h-.82l-.53-1.33zm-1.24-3.08-.97 2.42h1.95l-.98-2.42zM39.91 38.72v4.49h-.73v-4.49h-1.64v-.69h4.02v.69h-1.65zM42.35 38.03h.74v3.16c0 .84.52 1.4 1.29 1.4.78 0 1.29-.56 1.29-1.4v-3.16h.74v3.16c0 1.28-.82 2.12-2.04 2.12-1.22 0-2.02-.84-2.02-2.12v-3.16zM47.81 38.03h.73v5.18h-.73v-5.18zM51.77 38.72v4.49h-.73v-4.49H49.4v-.69h4.02v.69h-1.65zM54.27 38.03h3.29v.69H55v1.55h2.24v.69H55v1.57h2.56v.69h-3.29v-5.19z"/>
    </g>
  </g>
</svg>
