<svg xmlns="http://www.w3.org/2000/svg" width="80" height="80" viewBox="0 0 80 80">
  <g fill="#CE153E">
    <g>
      <path d="M17.48 6.02h.73v5.18h-.73V6.02zM20.39 7.21v3.99h-.74V6.02h.79l2.87 4.02V6.02h.73v5.18h-.79l-2.86-3.99zM28.35 7.22a1.61 1.61 0 0 0-1.28-.61c-.62 0-1.01.27-1.01.7 0 1.14 2.89.62 2.89 2.46 0 .91-.74 1.53-1.9 1.53-.97 0-1.6-.38-1.96-.88l.53-.49c.35.45.85.69 1.44.69.71 0 1.12-.31 1.12-.79 0-1.26-2.89-.7-2.89-2.49 0-.83.74-1.41 1.81-1.41.81 0 1.46.36 1.78.8l-.53.49zM33.72 7.14a2.05 2.05 0 0 0-1.37-.49c-1.03 0-1.87.88-1.87 1.97 0 1.08.83 1.96 1.93 1.96.51 0 .99-.17 1.31-.48l.48.53c-.48.47-1.07.66-1.83.66-1.5 0-2.66-1.2-2.66-2.68a2.66 2.66 0 0 1 2.64-2.69c.82 0 1.4.23 1.85.65l-.48.57zM35.17 6.02h1.81c1.14 0 1.89.61 1.89 1.56 0 .74-.46 1.28-1.2 1.48l1.29 2.14h-.84l-1.21-2.05H35.9v2.05h-.73V6.02zm.73.66V8.5h1.15c.64 0 1.07-.36 1.07-.91s-.43-.91-1.07-.91H35.9zM40.15 6.02h.73v5.18h-.73V6.02zM42.35 6.02h1.81c1.2 0 1.99.65 1.99 1.64 0 .99-.8 1.65-2 1.65h-1.07v1.89h-.73V6.02zm.73.66v1.98h1.15c.7 0 1.16-.4 1.16-.99s-.46-.99-1.16-.99h-1.15zM48.93 6.71v4.49h-.73V6.71h-1.64v-.69h4.02v.69h-1.65zM51.43 6.02h.73v5.18h-.73V6.02zM58.65 8.62c0 1.48-1.2 2.68-2.66 2.68a2.67 2.67 0 0 1-2.65-2.68 2.67 2.67 0 0 1 2.65-2.69 2.68 2.68 0 0 1 2.66 2.69zm-.78 0c0-1.09-.84-1.98-1.88-1.98-1.03 0-1.88.88-1.88 1.97 0 1.08.84 1.96 1.88 1.96a1.9 1.9 0 0 0 1.88-1.95zM60.54 7.21v3.99h-.74V6.02h.79l2.87 4.02V6.02h.73v5.18h-.79l-2.86-3.99zM13.34 13.7h1.81c1.2 0 1.99.65 1.99 1.64 0 .99-.8 1.65-2 1.65h-1.07v1.89h-.73V13.7zm.72.65v1.98h1.15c.7 0 1.16-.4 1.16-.99s-.46-.99-1.16-.99h-1.15zM23.17 16.3c0 1.48-1.2 2.68-2.66 2.68a2.67 2.67 0 0 1-2.65-2.68 2.67 2.67 0 0 1 2.65-2.69 2.67 2.67 0 0 1 2.66 2.69zm-.78 0c0-1.09-.84-1.98-1.88-1.98-1.03 0-1.88.88-1.88 1.97 0 1.08.84 1.96 1.88 1.96s1.88-.88 1.88-1.95zM24.28 13.7h.74v3.16c0 .84.52 1.4 1.29 1.4.78 0 1.29-.56 1.29-1.4V13.7h.74v3.16c0 1.28-.82 2.12-2.04 2.12-1.22 0-2.02-.84-2.02-2.12V13.7zM29.75 13.7h1.81c1.14 0 1.89.61 1.89 1.56 0 .74-.46 1.28-1.2 1.48l1.29 2.14h-.84l-1.21-2.05h-1.01v2.05h-.73V13.7zm.72.65v1.82h1.15c.64 0 1.07-.36 1.07-.91s-.43-.91-1.07-.91h-1.15zM38.93 18.97c-1.5 0-2.66-1.2-2.66-2.68a2.66 2.66 0 0 1 2.64-2.69c.82 0 1.4.23 1.85.65l-.48.57a2.05 2.05 0 0 0-1.37-.49c-1.03 0-1.87.88-1.87 1.97 0 1.08.83 1.96 1.93 1.96.4 0 .77-.09 1.08-.24v-1.68h.73v2.14a3.2 3.2 0 0 1-1.85.49zM45.27 17.55H42.8l-.53 1.33h-.77l2.13-5.18h.86l2.13 5.18h-.82l-.53-1.33zm-1.24-3.08-.97 2.42h1.95l-.98-2.42zM49.61 18.97c-1.5 0-2.66-1.2-2.66-2.68a2.66 2.66 0 0 1 2.64-2.69c.82 0 1.4.23 1.85.65l-.48.57a2.05 2.05 0 0 0-1.37-.49c-1.03 0-1.87.88-1.87 1.97 0 1.08.83 1.96 1.93 1.96.4 0 .77-.09 1.08-.24v-1.68h.73v2.14c-.46.32-1.07.49-1.85.49zM53.48 14.88v3.99h-.74V13.7h.79l2.87 4.02V13.7h.73v5.18h-.79l-2.86-4zM58.58 13.7h3.29v.69h-2.56v1.55h2.24v.69h-2.24v1.57h2.56v.69h-3.29V13.7zM62.96 13.7h1.81c1.14 0 1.89.61 1.89 1.56 0 .74-.46 1.28-1.2 1.48l1.29 2.14h-.84l-1.21-2.05h-1.01v2.05h-.73V13.7zm.73.65v1.82h1.15c.64 0 1.07-.36 1.07-.91s-.43-.91-1.07-.91h-1.15z"/>
    </g>
    <g>
      <path d="M12.39 57.37a3.8 3.8 0 0 1-.65-1.77 7.94 7.94 0 0 1-.13-1.77l.17-1.34c0-.04-.04-.13-.04-.13s-.04-.04-.04 0h-.09c-.48.56-1.21 1.34-1.64 1.9-.09.17-.22.22-.3.3l-.57.52a6.3 6.3 0 0 1-1.08.95c-.26.17-.56.52-.95.6-.43.09-.82.09-1.21-.09-.43-.22-.69-.35-.95-.69-.17-.22-.26-.35-.26-.61 0-.3 0-.65.04-1.04.17-.82.65-2.25.78-3.07.09-.22.35-.3.48-.22l.82.65c.17.13.17.39.17.61l-.04.36c-.22.6-.56 1.99-.74 2.64-.04.09 0 .17 0 .3 0 .04.09.13.17.13.09 0 .13 0 .22-.04l.69-.48c.35-.3.69-.56.99-.91.3-.3.69-.61.95-.91.3-.39.61-.69.86-.99.39-.35.99-1.38 1.3-1.77l.78-.82c.22-.26.43-.26.69-.17.26.13.56.26.78.48.13.17.22.3.22.48.04.35 0 .65-.09.95-.22.52-.52 1.64-.61 2.07a4.98 4.98 0 0 0 0 2.85c.17.82.6 1.56 1.47 1.43a8.54 8.54 0 0 0 1.77-.65c.43-.26 1.25-.82 1.64-1.12a23.36 23.36 0 0 0 2.55-2.38c.22-.35.56-.47.86-.78.3-.43.95.22.69.61-.43.52-.73 1.04-1.3 1.43l-.91.86a11.02 11.02 0 0 1-3.2 2.29c-.78.48-1.6.69-2.55.47-.83-.18-1.09-.39-1.74-1.13z"/>
      <path d="M33.31 55.73c.73-.47 1.3-.91 1.95-1.51.22-.26.43-.3.65-.56l.35-.39c.09-.22.13-.09.3-.43v-.09c.04-.09.04-.04.17-.04.26-.22.82.3.56.61-.04.35 0 .09-.22.39-.13.3-.17.26-.43.65-.61.65-.99 1.04-1.73 1.64-.3.26-.69.52-1.04.78a5.1 5.1 0 0 1-1.73.78c-.35.09-.69.09-.99.13a4.52 4.52 0 0 1-2.68-.91 7.72 7.72 0 0 1-1.34-1.77c-.6-.82-.65-2.98-.69-4.06.04-.04-.04-.13-.09-.09-.35.13-.61.35-.82.52-.78.65-1.51 1.3-2.16 2.16-.22.22-.48.52-.69.82-.26.3-.56 1.47-.86 1.86-.09.17-.3.3-.48.48-.09.13-.26.13-.39.13-.22 0 .04-.04-.09-.17l-.56-.39c-.13-.17-.13-.39-.04-.52 0-.13.04-.3.09-.35.52-.82.61-2.59 1.08-3.46l.17-.48c.13-.26.39-1.34.48-1.64-.04-.22.09-.3.35-.35.39-.04.73.04.99.26.13.09-.22 1.25-.09 1.34.04.04.13.09.17.04.39-.35.91-.86 1.3-1.17.48-.3.91-.35 1.38-.39h.22c.43.09.82.3 1.12.56.17.09.22.22.26.43.09.39.17.73.13 1.08 0 .35-.09.56-.04.99v.3c-.04.61.26 1.12.35 1.69.13.22.22.52.39.65.22.35.39.61.65.82.82.82 2.07.69 2.9.35.46-.25.72-.34 1.15-.69zM55.18 56.47a2.81 2.81 0 0 1-1.25-.99 5 5 0 0 1-.82-1.69c0-.13-.09-.13-.13-.13l-.73.73c-.86.69-1.69 1.43-2.55 1.99-.56.35-1.12.65-1.73.78-.35.13-.69.17-1.08.17-.52.04-.91-.22-1.12-.78l-.35-.65a1.45 1.45 0 0 1-.04-1.12c.13-.43.43-.86.61-1.25l.48-.6c.82-.91 1.69-1.77 2.68-2.42l.73-.43a2.6 2.6 0 0 1 1.3-.35c.22 0 .43.04.56.22.39.35.6.69.73 1.25 0 .09-.04.17-.09.26-.09.04-.13.09-.17 0l-.3-.26c-.09-.09-.22-.22-.39-.09-.43.09-.95.17-1.38.43-.52.26-.99.6-1.43 1.04a.7.7 0 0 0-.3.26 6.94 6.94 0 0 0-1.6 1.9c-.26.3-.39.61-.48.99-.04.09.04.17.09.17.17.04.39.04.48.04.39-.09.86-.13 1.21-.35a7.53 7.53 0 0 0 2.25-1.47l1.04-.86c.17-.09.3-.22.43-.3.43-.52.91-.95 1.34-1.56a.41.41 0 0 1 .52-.13c.22.13.56.26.69.48.04.22.09.35.04.56-.04.35-.09.78-.09 1.17 0 .48.09.91.3 1.34.09.13.26.13.39.22.82.52 1.69.43 2.55.09.48-.17.78-.22 1.21-.48.73-.56 1.17-.69 1.82-1.43.17-.17.78-.91.91-1.12l.13-.09c0-.04.39-.04.39 0l.17.26c.17.39-.48 1.21-.69 1.51a6.58 6.58 0 0 1-4.84 2.81c-.09 0-.65.09-.78 0-.32.01-.49-.03-.71-.12z"/>
      <path d="M72.95 55.74c.73-.48 1.3-.91 1.95-1.51.22-.26.43-.3.65-.56l.35-.39c.09-.22.13-.09.3-.43v-.09c.04-.09.04-.04.17-.04.26-.22.82.3.56.6-.04.35 0 .09-.22.39-.13.3-.17.26-.43.65-.61.65-.99 1.04-1.73 1.64-.3.26-.69.52-1.04.78a5.1 5.1 0 0 1-1.73.78c-.35.09-.69.09-.99.13a4.52 4.52 0 0 1-2.68-.91 7.72 7.72 0 0 1-1.34-1.77c-.6-.82-.65-2.98-.69-4.06.04-.04-.04-.13-.09-.09-.35.13-.61.35-.82.52-.78.65-1.51 1.3-2.16 2.16-.22.22-.48.52-.69.82-.26.3-.56 1.47-.86 1.86-.09.17-.3.3-.48.48-.09.13-.26.13-.39.13-.22 0 .04-.04-.09-.17l-.56-.39c-.13-.17-.13-.39-.04-.52 0-.13.04-.3.09-.35.52-.82.61-2.59 1.08-3.46l.17-.48c.13-.26.39-1.34.48-1.64-.04-.22.09-.3.35-.35.39-.04.73.04.99.26.13.09-.22 1.25-.09 1.34.04.04.13.09.17.04.39-.35.91-.86 1.3-1.17.48-.3.91-.35 1.38-.39h.22c.43.09.82.3 1.12.56.17.09.22.22.26.43.09.39.17.73.13 1.08 0 .35-.09.56-.04.99v.3c-.04.61.26 1.12.35 1.69.13.22.22.52.39.65.22.35.39.61.65.82.82.82 2.07.69 2.9.35.46-.25.72-.33 1.15-.68z"/>
    </g>
    <g>
      <path d="M2.41 24.19h2.92c2.62 0 4.55 1.7 4.55 4.03 0 2.3-1.93 4-4.55 3.99H2.41v-8.02zm2.13 1.94v4.15h.76c1.42 0 2.35-.83 2.36-2.08 0-1.24-.94-2.07-2.37-2.07h-.75zM11 24.19h5.34v1.94h-3.27v1.05h2.77v1.94h-2.77v1.15h3.27v1.94H11v-8.02zM19.97 24.19h2.07v6.09h3.65v1.94h-5.71l-.01-8.03zM26.45 26.53h-1.47l.31-2.93h1.9l-.74 2.93zM28.27 24.19h5.34v1.94h-3.27v1.05h2.77v1.94h-2.77v1.15h3.27v1.94h-5.34v-8.02zM39.29 26.87c-.35-.5-.98-.93-1.75-.93-.51 0-.76.2-.76.49 0 1.04 3.92.56 3.92 3.37 0 1.49-1.32 2.61-3.21 2.61-1.82 0-2.76-.71-3.26-1.5l1.47-1.38c.46.64 1.09.94 1.83.94.63 0 .95-.2.95-.58 0-1.09-3.92-.58-3.92-3.41 0-1.44 1.29-2.48 3.07-2.48 1.39 0 2.47.6 3.07 1.47l-1.41 1.4zM46.31 26.88c-.35-.5-.98-.93-1.75-.93-.51 0-.76.2-.76.49 0 1.04 3.92.56 3.92 3.37 0 1.49-1.32 2.61-3.21 2.6-1.82 0-2.76-.71-3.26-1.5l1.47-1.38c.46.64 1.09.94 1.83.94.63 0 .95-.2.95-.58 0-1.09-3.92-.58-3.92-3.41 0-1.44 1.29-2.48 3.07-2.48 1.39 0 2.47.6 3.07 1.47l-1.41 1.41zM48.78 24.2h5.34v1.94h-3.27v1.05h2.77v1.94h-2.77v1.15h3.27v1.94h-5.34V24.2zM57.31 27.66v4.57h-2.07V24.2h2.22l2.94 4.65V24.2h2.07v8.03h-2.22l-2.94-4.57zM69.46 26.78c-.38-.39-1-.7-1.68-.7-1.1 0-1.97.95-1.97 2.13s.86 2.14 2.07 2.14a2.1 2.1 0 0 0 1.58-.7l1.38 1.53c-.68.81-1.69 1.24-3.09 1.24a4.13 4.13 0 0 1-4.15-4.21c0-2.32 1.87-4.2 4.16-4.2 1.45 0 2.44.48 3.08 1.19l-1.38 1.58zM71.77 24.2h5.34v1.94h-3.27v1.05h2.77v1.94h-2.77v1.15h3.27v1.94h-5.34V24.2z"/>
    </g>
    <g>
      <path d="M7.03 43.16c-1.5 0-2.66-1.2-2.66-2.68a2.66 2.66 0 0 1 2.64-2.69c.82 0 1.4.23 1.85.65l-.48.56a1.92 1.92 0 0 0-3.23 1.47c0 1.08.83 1.96 1.93 1.96.4 0 .77-.09 1.08-.24v-1.68h.73v2.14c-.47.34-1.08.51-1.86.51zM10.19 37.88H12c1.14 0 1.89.61 1.89 1.56 0 .74-.46 1.28-1.2 1.48l1.29 2.14h-.84l-1.21-2.05h-1.01v2.05h-.73v-5.18zm.73.66v1.82h1.15c.64 0 1.07-.36 1.07-.91s-.43-.91-1.07-.91h-1.15zM18.38 41.74h-2.47l-.53 1.33h-.78l2.13-5.18h.86l2.13 5.18h-.82l-.52-1.33zm-1.24-3.08-.97 2.42h1.95l-.98-2.42zM21.84 38.57v4.49h-.73v-4.49h-1.64v-.69h4.02v.69h-1.65zM24.28 37.88h.74v3.16c0 .84.52 1.4 1.29 1.4.78 0 1.29-.56 1.29-1.4v-3.16h.74v3.16c0 1.28-.82 2.12-2.04 2.12-1.22 0-2.02-.84-2.02-2.12v-3.16zM29.74 37.89h.73v5.18h-.73v-5.18zM33.7 38.57v4.49h-.73v-4.49h-1.64v-.69h4.02v.69H33.7zM36.2 37.89h3.29v.69h-2.56v1.55h2.24v.69h-2.24v1.57h2.56v.69H36.2v-5.19zM42.42 37.89h1.81c1.2 0 1.99.65 1.99 1.64 0 .99-.8 1.65-2 1.65h-1.07v1.89h-.73v-5.18zm.73.65v1.98h1.15c.7 0 1.16-.4 1.16-.99 0-.6-.46-.99-1.16-.99h-1.15zM47.32 37.89h3.29v.69h-2.56v1.55h2.24v.69h-2.24v1.57h2.56v.69h-3.29v-5.19zM52.41 39.08v3.99h-.74v-5.18h.79l2.87 4.02v-4.02h.73v5.18h-.79l-2.86-3.99zM57.51 37.9h1.58c1.72 0 2.92 1.06 2.92 2.59 0 1.53-1.16 2.59-2.85 2.59H57.5l.01-5.18zm.75.69v3.8h.85c1.28 0 2.13-.75 2.13-1.9s-.84-1.9-2.13-1.9h-.85zM66.12 41.75h-2.47l-.53 1.33h-.77l2.13-5.18h.86l2.13 5.18h-.82l-.53-1.33zm-1.24-3.08-.97 2.42h1.95l-.98-2.42zM69.09 39.08v3.99h-.74v-5.18h.79l2.87 4.02v-4.02h.73v5.18h-.79l-2.86-3.99zM75.95 38.58v4.49h-.73v-4.49h-1.64v-.69h4.02v.69h-1.65z"/>
    </g>
  </g>
</svg>
