<svg xmlns="http://www.w3.org/2000/svg" width="80" height="80" viewBox="0 0 80 80">
  <g fill="#CE153E">
    <g>
      <path d="M13.51 6.02h.73v5.18h-.73V6.02zM16.42 7.21v3.99h-.74V6.02h.79l2.87 4.02V6.02h.73v5.18h-.79l-2.86-3.99zM24.38 7.22a1.61 1.61 0 0 0-1.28-.61c-.62 0-1.01.27-1.01.7 0 1.14 2.89.62 2.89 2.46 0 .91-.74 1.53-1.9 1.53-.97 0-1.6-.38-1.96-.88l.53-.49c.35.45.85.69 1.44.69.71 0 1.12-.31 1.12-.79 0-1.26-2.89-.7-2.89-2.49 0-.83.74-1.41 1.81-1.41.81 0 1.46.36 1.78.8l-.53.49zM29.76 7.14a2.05 2.05 0 0 0-1.37-.49c-1.03 0-1.87.88-1.87 1.97 0 1.08.83 1.96 1.93 1.96.51 0 .99-.17 1.31-.48l.48.53c-.48.47-1.07.66-1.83.66-1.5 0-2.66-1.2-2.66-2.68a2.66 2.66 0 0 1 2.64-2.69c.82 0 1.4.23 1.85.65l-.48.57zM31.21 6.02h1.81c1.14 0 1.89.61 1.89 1.56 0 .74-.46 1.28-1.2 1.48L35 11.2h-.84l-1.21-2.05h-1.01v2.05h-.73V6.02zm.73.66V8.5h1.15c.64 0 1.07-.36 1.07-.91s-.43-.91-1.07-.91h-1.15zM36.19 6.02h.73v5.18h-.73V6.02zM38.38 6.02h1.81c1.2 0 1.99.65 1.99 1.64 0 .99-.8 1.65-2 1.65h-1.07v1.89h-.73V6.02zm.73.66v1.98h1.15c.7 0 1.16-.4 1.16-.99s-.46-.99-1.16-.99h-1.15zM44.96 6.71v4.49h-.73V6.71h-1.64v-.69h4.02v.69h-1.65zM47.47 6.02h.73v5.18h-.73V6.02zM54.68 8.62c0 1.48-1.2 2.68-2.66 2.68a2.67 2.67 0 0 1-2.65-2.68 2.67 2.67 0 0 1 2.65-2.69 2.67 2.67 0 0 1 2.66 2.69zm-.77 0c0-1.09-.84-1.98-1.88-1.98-1.03 0-1.88.88-1.88 1.97 0 1.08.84 1.96 1.88 1.96a1.9 1.9 0 0 0 1.88-1.95zM56.57 7.21v3.99h-.74V6.02h.79l2.87 4.02V6.02h.73v5.18h-.79l-2.86-3.99zM64.53 7.22a1.61 1.61 0 0 0-1.28-.61c-.62 0-1.01.27-1.01.7 0 1.14 2.89.62 2.89 2.46 0 .91-.74 1.53-1.9 1.53-.97 0-1.6-.38-1.96-.88l.53-.49c.35.45.85.69 1.44.69.71 0 1.12-.31 1.12-.79 0-1.26-2.89-.7-2.89-2.49 0-.83.74-1.41 1.81-1.41.81 0 1.46.36 1.78.8l-.53.49zM12.57 13.7h1.81c1.2 0 1.99.65 1.99 1.64 0 .99-.8 1.65-2 1.65H13.3v1.89h-.73V13.7zm.72.65v1.98h1.15c.7 0 1.16-.4 1.16-.99s-.46-.99-1.16-.99h-1.15zM22.4 16.3c0 1.48-1.2 2.68-2.66 2.68a2.67 2.67 0 0 1-2.65-2.68 2.67 2.67 0 0 1 2.65-2.69 2.67 2.67 0 0 1 2.66 2.69zm-.78 0c0-1.09-.84-1.98-1.88-1.98-1.03 0-1.88.88-1.88 1.97 0 1.08.84 1.96 1.88 1.96s1.88-.88 1.88-1.95zM23.51 13.7h.74v3.16c0 .84.52 1.4 1.29 1.4.78 0 1.29-.56 1.29-1.4V13.7h.74v3.16c0 1.28-.82 2.12-2.04 2.12-1.22 0-2.02-.84-2.02-2.12V13.7zM28.98 13.7h1.81c1.14 0 1.89.61 1.89 1.56 0 .74-.46 1.28-1.2 1.48l1.29 2.14h-.84l-1.21-2.05H29.7v2.05h-.73V13.7zm.72.65v1.82h1.15c.64 0 1.07-.36 1.07-.91s-.43-.91-1.07-.91H29.7zM38.16 18.97c-1.5 0-2.66-1.2-2.66-2.68a2.66 2.66 0 0 1 2.64-2.69c.82 0 1.4.23 1.85.65l-.48.57a2.05 2.05 0 0 0-1.37-.49c-1.03 0-1.87.88-1.87 1.97 0 1.08.83 1.96 1.93 1.96.4 0 .77-.09 1.08-.24v-1.68h.73v2.14a3.2 3.2 0 0 1-1.85.49zM44.5 17.55h-2.47l-.53 1.33h-.77l2.13-5.18h.86l2.13 5.18h-.82l-.53-1.33zm-1.24-3.08-.97 2.42h1.95l-.98-2.42zM48.84 18.97c-1.5 0-2.66-1.2-2.66-2.68a2.66 2.66 0 0 1 2.64-2.69c.82 0 1.4.23 1.85.65l-.48.57a2.05 2.05 0 0 0-1.37-.49c-1.03 0-1.87.88-1.87 1.97 0 1.08.83 1.96 1.93 1.96.4 0 .77-.09 1.08-.24v-1.68h.73v2.14c-.46.32-1.07.49-1.85.49zM52.71 14.88v3.99h-.74V13.7h.79l2.87 4.02V13.7h.73v5.18h-.79l-2.86-4zM57.81 13.7h3.29v.69h-2.56v1.55h2.24v.69h-2.24v1.57h2.56v.69h-3.29V13.7zM62.19 13.7H64c1.14 0 1.89.61 1.89 1.56 0 .74-.46 1.28-1.2 1.48l1.29 2.14h-.84l-1.21-2.05h-1.01v2.05h-.73V13.7zm.73.65v1.82h1.15c.64 0 1.07-.36 1.07-.91s-.43-.91-1.07-.91h-1.15z"/>
    </g>
    <g>
      <path d="M12.72 49.68c0-.97-.76-1.62-1.91-1.62-.97 0-1.68.29-2.25.63l-1.51-1.11 1.05-6.87h7.18v2.96h-4.41l-.27 1.62c.27-.06.74-.08.97-.08 2.73 0 4.54 1.81 4.54 4.54 0 2.84-2.08 4.75-5.23 4.75-2.27 0-3.93-1.01-4.77-2.4l2.46-2.18c.61.97 1.39 1.41 2.25 1.41 1.14-.01 1.9-.66 1.9-1.65zM21.69 47.46c0-4.08 2.31-7.06 5.46-7.06 3.3 0 5.67 2.98 5.63 7.04.04 4.08-2.27 7.06-5.46 7.06-3.26-.01-5.63-2.99-5.63-7.04zm7.71 0c0-2.33-.84-3.89-2.23-3.89-1.26 0-2.1 1.53-2.1 3.87 0 2.35.86 3.89 2.18 3.89 1.33-.01 2.15-1.54 2.15-3.87zM34.17 47.46c0-4.08 2.31-7.06 5.46-7.06 3.3 0 5.67 2.98 5.63 7.04.04 4.08-2.27 7.06-5.46 7.06-3.26 0-5.63-2.99-5.63-7.04zm7.71 0c0-2.33-.84-3.89-2.23-3.89-1.26 0-2.1 1.53-2.1 3.87 0 2.35.86 3.89 2.18 3.89 1.33 0 2.15-1.54 2.15-3.87zM46.65 47.46c0-4.08 2.31-7.06 5.46-7.06 3.3 0 5.67 2.98 5.63 7.04.04 4.08-2.27 7.06-5.46 7.06-3.26 0-5.63-2.98-5.63-7.04zm7.71 0c0-2.33-.84-3.89-2.23-3.89-1.26 0-2.1 1.53-2.1 3.87 0 2.35.86 3.89 2.18 3.89 1.33 0 2.15-1.53 2.15-3.87zM71.54 45.43a3.62 3.62 0 0 0-2.94-1.55c-.86 0-1.28.34-1.28.82 0 1.62 6.58.86 6.57 5.23 0 2.02-1.45 3.63-3.68 4.18v2.08H67.4v-1.95c-2.33-.25-3.61-1.3-4.35-2.46l2.46-2.31a3.64 3.64 0 0 0 3.07 1.58c1.05 0 1.6-.34 1.6-.97 0-1.7-6.58-.9-6.57-5.3 0-2.04 1.53-3.59 3.8-4.03v-2.02h2.81v2.04a5.76 5.76 0 0 1 3.68 2.31l-2.36 2.35z"/>
    </g>
    <g>
      <path d="M24.81 21.78h.74v3.16c0 .84.52 1.4 1.29 1.4.78 0 1.29-.56 1.29-1.4v-3.16h.74v3.16c0 1.28-.82 2.12-2.04 2.12-1.22 0-2.02-.84-2.02-2.12v-3.16zM30.98 22.97v3.99h-.74v-5.18h.79l2.87 4.02v-4.02h.73v5.18h-.79l-2.86-3.99zM37.92 21.79h2.05c.91 0 1.61.59 1.61 1.39 0 .61-.44.97-.79 1.11.52.15.96.57.96 1.24 0 .77-.63 1.43-1.65 1.43h-2.18v-5.17zm.73 2.84v1.68h1.37c.56 0 .98-.36.98-.84s-.42-.84-.97-.84h-1.38zm0-2.19v1.58h1.25c.53 0 .92-.34.92-.78s-.4-.79-.92-.79l-1.25-.01zM47.87 24.39c0 1.48-1.2 2.67-2.66 2.67a2.67 2.67 0 0 1-2.65-2.68 2.67 2.67 0 0 1 2.65-2.69 2.68 2.68 0 0 1 2.66 2.7zm-.77 0c0-1.09-.84-1.98-1.88-1.98-1.03 0-1.88.88-1.88 1.97 0 1.08.84 1.96 1.87 1.96 1.05 0 1.89-.88 1.89-1.95zM49.76 22.97v3.99h-.74v-5.18h.79l2.87 4.02v-4.02h.73v5.18h-.79l-2.86-3.99zM12.97 31.48h1.58c1.72 0 2.92 1.06 2.92 2.59 0 1.53-1.16 2.59-2.85 2.59h-1.66l.01-5.18zm.75.69v3.8h.85c1.28 0 2.13-.75 2.13-1.9s-.84-1.9-2.12-1.9h-.86zM18.65 31.48h3.29v.69h-2.56v1.55h2.24v.69h-2.24v1.57h2.56v.69h-3.29v-5.19zM26.74 35.85l1.62-4.37h.76l-1.97 5.18h-.86l-1.97-5.18h.82l1.6 4.37zM34.72 34.08c0 1.48-1.2 2.67-2.66 2.67a2.67 2.67 0 0 1-2.65-2.68 2.67 2.67 0 0 1 2.65-2.69 2.69 2.69 0 0 1 2.66 2.7zm-.78 0c0-1.09-.84-1.98-1.88-1.98-1.03 0-1.88.88-1.88 1.97 0 1.08.84 1.96 1.87 1.96a1.9 1.9 0 0 0 1.89-1.95zM36.83 34.91l-1.92-3.44h.82l1.49 2.67 1.5-2.67h.78l-1.92 3.43v1.75h-.74l-.01-1.74zM42.98 35.34h-2.47l-.53 1.33h-.77l2.13-5.18h.86l2.13 5.18h-.82l-.53-1.33zm-1.24-3.08-.97 2.42h1.95l-.98-2.42zM47.32 36.76c-1.5 0-2.66-1.2-2.66-2.68a2.66 2.66 0 0 1 2.64-2.69c.82 0 1.4.23 1.85.65l-.48.57a2.05 2.05 0 0 0-1.37-.49c-1.03 0-1.87.88-1.87 1.97 0 1.08.83 1.96 1.93 1.96.4 0 .77-.09 1.08-.24v-1.68h.73v2.14a3.2 3.2 0 0 1-1.85.49zM50.48 31.48h3.29v.69h-2.56v1.55h2.24v.69h-2.24v1.57h2.56v.69h-3.29v-5.19zM56.7 31.49h1.58c1.72 0 2.92 1.06 2.92 2.59 0 1.53-1.16 2.59-2.85 2.59h-1.66l.01-5.18zm.75.69v3.8h.85c1.28 0 2.13-.75 2.13-1.9s-.84-1.9-2.13-1.9h-.85zM62.38 31.49h3.29v.69h-2.56v1.55h2.24v.69h-2.24v1.57h2.56v.69h-3.29v-5.19z"/>
    </g>
  </g>
</svg>
