<svg xmlns="http://www.w3.org/2000/svg" width="80" height="80" viewBox="0 0 80 80">
  <g>
    <g fill="#CE153E">
      <path d="M12.77 71.89a3.76 3.76 0 0 1-.65-1.77 7.9 7.9 0 0 1-.13-1.77l.17-1.34c0-.04-.04-.13-.04-.13s-.04-.04-.04 0H12c-.47.56-1.21 1.34-1.64 1.9-.09.17-.22.22-.3.3l-.57.52a6.3 6.3 0 0 1-1.08.95c-.26.17-.56.52-.95.6-.43.09-.82.09-1.21-.09-.43-.22-.69-.35-.95-.69-.17-.22-.26-.35-.26-.6 0-.3 0-.65.04-1.04.17-.82.65-2.24.78-3.06.09-.22.35-.3.47-.22l.82.65c.17.13.17.39.17.6l-.02.36c-.22.6-.56 1.98-.73 2.63-.04.09 0 .17 0 .3 0 .04.09.13.17.13.09 0 .13 0 .22-.04l.69-.47c.34-.3.69-.56.99-.91.3-.3.69-.6.95-.91.3-.39.6-.69.86-.99.39-.34.99-1.38 1.29-1.77l.78-.82c.22-.26.43-.26.69-.17.26.13.56.26.78.47.13.17.22.3.21.47.04.34 0 .65-.09.95-.22.52-.52 1.64-.6 2.07a4.98 4.98 0 0 0 0 2.85c.17.82.6 1.55 1.47 1.42.6-.13 1.21-.39 1.77-.65.43-.26 1.25-.82 1.64-1.12a23.18 23.18 0 0 0 2.54-2.37c.22-.34.56-.47.86-.78.3-.43.95.22.69.6-.43.52-.73 1.03-1.29 1.42l-.91.86a10.86 10.86 0 0 1-3.19 2.28c-.78.47-1.6.69-2.54.47-.87-.14-1.13-.36-1.78-1.09z"/>
      <path d="M33.64 70.25c.73-.47 1.29-.9 1.94-1.51.22-.26.43-.3.65-.56l.34-.39c.09-.22.13-.09.3-.43v-.09c.04-.09.04-.04.17-.04.26-.22.82.3.56.6-.04.35 0 .09-.22.39-.13.3-.17.26-.43.65-.6.65-.99 1.03-1.73 1.64-.3.26-.69.52-1.03.78a5.3 5.3 0 0 1-1.73.78c-.34.09-.69.09-.99.13a4.49 4.49 0 0 1-2.67-.91 7.72 7.72 0 0 1-1.34-1.77c-.6-.82-.65-2.98-.69-4.05.04-.04-.04-.13-.09-.09-.34.13-.6.34-.82.52-.78.65-1.51 1.29-2.16 2.16-.22.22-.47.52-.69.82-.26.3-.56 1.47-.86 1.85-.09.17-.3.3-.47.47-.09.13-.26.13-.39.13-.22 0 .04-.04-.09-.17l-.56-.39c-.13-.17-.13-.39-.04-.52 0-.13.04-.3.09-.35.52-.82.6-2.59 1.08-3.45l.17-.47c.13-.26.39-1.34.47-1.64-.04-.22.09-.3.35-.34.39-.04.73.04.99.26.13.09-.22 1.25-.09 1.34.04.04.13.09.17.04.39-.35.91-.86 1.29-1.16.47-.3.91-.34 1.38-.39h.22c.43.09.82.3 1.12.56.17.09.22.22.26.43.09.39.17.73.13 1.08 0 .34-.09.56-.04.99v.3c-.04.6.26 1.12.34 1.68.13.22.22.52.39.65.22.34.39.6.65.82.82.82 2.07.69 2.89.35.49-.26.75-.35 1.18-.7zM55.47 70.99a2.87 2.87 0 0 1-1.25-.99 5.05 5.05 0 0 1-.82-1.68c0-.13-.09-.13-.13-.13l-.73.73c-.86.69-1.68 1.42-2.54 1.98-.56.35-1.12.65-1.73.78-.34.13-.69.17-1.08.17-.52.04-.91-.22-1.12-.78l-.35-.65a1.45 1.45 0 0 1-.04-1.12c.13-.43.43-.86.6-1.25l.47-.6c.82-.91 1.68-1.77 2.67-2.41l.73-.43c.39-.22.82-.34 1.29-.34.22 0 .43.04.56.22.39.35.6.69.73 1.25 0 .09-.04.17-.09.26-.09.04-.13.09-.17 0l-.3-.26c-.09-.09-.22-.22-.39-.09-.43.09-.95.17-1.38.43-.52.26-.99.6-1.42 1.03a.7.7 0 0 0-.3.26 6.99 6.99 0 0 0-1.6 1.9c-.26.3-.39.6-.47.99-.04.09.04.17.09.17.17.04.39.04.47.04.39-.09.86-.13 1.21-.34a7.49 7.49 0 0 0 2.24-1.47l1.04-.86c.17-.09.3-.22.43-.3.43-.52.91-.95 1.34-1.55a.41.41 0 0 1 .52-.13c.22.13.56.26.69.47.04.22.09.35.04.56-.04.34-.09.78-.09 1.16 0 .47.09.91.3 1.34.09.13.26.13.39.22.82.52 1.68.43 2.54.09.47-.17.78-.22 1.21-.47.73-.56 1.16-.69 1.81-1.42.17-.17.78-.91.91-1.12l.13-.09c0-.04.39-.04.39 0l.17.26c.17.39-.47 1.21-.69 1.51a6.6 6.6 0 0 1-4.83 2.8c-.09 0-.65.09-.78 0a1.7 1.7 0 0 1-.67-.14z"/>
      <path d="M73.19 70.26a13.3 13.3 0 0 0 1.94-1.51c.22-.26.43-.3.65-.56l.35-.39c.09-.22.13-.09.3-.43v-.09c.04-.09.04-.04.17-.04.26-.22.82.3.56.6-.04.35 0 .09-.22.39-.13.3-.17.26-.43.65-.6.65-.99 1.03-1.73 1.64-.3.26-.69.52-1.04.78a5.1 5.1 0 0 1-1.73.78c-.34.09-.69.09-.99.13a4.49 4.49 0 0 1-2.67-.91 7.72 7.72 0 0 1-1.34-1.77c-.6-.82-.65-2.98-.69-4.05.04-.04-.04-.13-.09-.09-.35.13-.6.34-.82.52-.78.65-1.51 1.29-2.16 2.16-.22.22-.47.52-.69.82-.26.3-.56 1.47-.86 1.85-.09.17-.3.3-.47.47-.09.13-.26.13-.39.13-.22 0 .04-.04-.09-.17l-.56-.39c-.13-.17-.13-.39-.04-.52 0-.13.04-.3.09-.35.52-.82.6-2.59 1.08-3.45l.17-.47c.13-.26.39-1.34.47-1.64-.04-.22.09-.3.35-.34.39-.04.73.04.99.26.13.09-.22 1.25-.09 1.34.04.04.13.09.17.04.39-.34.91-.86 1.29-1.16.47-.3.91-.34 1.38-.39h.22c.43.09.82.3 1.12.56.17.09.22.22.26.43.09.39.17.73.13 1.08 0 .34-.09.56-.04.99v.3c-.04.6.26 1.12.34 1.68.13.22.22.52.39.65.22.34.39.6.65.82.82.82 2.07.69 2.89.35.49-.27.75-.35 1.18-.7z"/>
    </g>
    <g fill="#CE153E">
      <path d="M21.69 53.31h1.81c1.19 0 1.98.65 1.98 1.64 0 .99-.8 1.64-2 1.64h-1.06v1.89h-.73v-5.17zm.72.66v1.98h1.15c.69 0 1.15-.39 1.15-.99s-.46-.98-1.15-.98l-1.15-.01zM26.57 53.31h3.28V54h-2.56v1.55h2.23v.69h-2.23v1.56h2.56v.69h-3.28v-5.18zM31.65 54.5v3.98h-.73v-5.17h.79l2.86 4.01v-4.01h.73v5.17h-.8l-2.85-3.98zM36.74 53.32h1.58c1.72 0 2.91 1.06 2.91 2.58s-1.16 2.58-2.84 2.58h-1.65v-5.16zm.75.69v3.79h.85c1.28 0 2.12-.75 2.12-1.89 0-1.15-.84-1.89-2.12-1.9h-.85zM45.33 57.17h-2.47l-.53 1.32h-.77l2.13-5.17h.85l2.13 5.17h-.81l-.53-1.32zm-1.23-3.08-.97 2.42h1.94l-.97-2.42zM48.29 54.5v3.98h-.73v-5.17h.79l2.86 4.01v-4.01h.73v5.17h-.79l-2.86-3.98zM55.13 54.01v4.48h-.73v-4.48h-1.64v-.69h4.01v.69h-1.64z"/>
    </g>
    <g fill="#CE153E">
      <path d="M17.37 6.81h.73v5.17h-.73V6.81zM20.27 7.99v3.98h-.73V6.81h.79l2.86 4.01V6.81h.73v5.17h-.79l-2.86-3.99zM28.21 8.01a1.61 1.61 0 0 0-1.28-.61c-.62 0-1.01.27-1.01.69 0 1.14 2.89.62 2.89 2.46 0 .91-.74 1.52-1.89 1.52-.97 0-1.6-.38-1.95-.88l.52-.49c.35.45.85.69 1.44.69.71 0 1.11-.31 1.11-.79 0-1.26-2.89-.7-2.89-2.48 0-.83.73-1.4 1.81-1.4.81 0 1.46.35 1.77.8l-.52.49zM33.57 7.92a2.04 2.04 0 0 0-1.36-.49c-1.03 0-1.86.88-1.86 1.97 0 1.08.83 1.96 1.93 1.96.51 0 .98-.17 1.31-.48l.48.53c-.48.47-1.06.66-1.83.66-1.5 0-2.65-1.2-2.65-2.68a2.66 2.66 0 0 1 2.64-2.68c.82 0 1.4.23 1.85.64l-.51.57zM35.02 6.81h1.81c1.14 0 1.89.61 1.89 1.56 0 .73-.46 1.27-1.2 1.48l1.29 2.14h-.84l-1.21-2.05h-1.01v2.05h-.73V6.81zm.73.65v1.81h1.14c.64 0 1.06-.36 1.06-.91s-.43-.9-1.06-.9h-1.14zM39.99 6.81h.73v5.17h-.73V6.81zM42.18 6.81h1.81c1.19 0 1.98.64 1.98 1.64 0 .99-.8 1.64-2 1.64h-1.06v1.89h-.73V6.81zm.73.65v1.98h1.14c.69 0 1.15-.39 1.15-.99s-.46-.98-1.15-.98h-1.14zM48.74 7.49v4.48h-.73V7.49h-1.64v-.68h4.01v.69h-1.64zM51.24 6.81h.73v5.17h-.73V6.81zM58.44 9.4a2.66 2.66 0 0 1-2.65 2.67 2.66 2.66 0 0 1-2.64-2.68 2.67 2.67 0 0 1 2.64-2.68 2.68 2.68 0 0 1 2.65 2.69zm-.77 0c0-1.09-.84-1.98-1.88-1.98-1.03 0-1.87.88-1.87 1.97 0 1.08.84 1.96 1.87 1.96 1.04 0 1.88-.88 1.88-1.95zM60.33 7.99v3.98h-.73V6.81h.79l2.86 4.01V6.81h.73v5.17h-.79l-2.86-3.99zM14.15 16.08h1.81c1.19 0 1.98.64 1.98 1.64 0 .99-.8 1.64-2 1.64h-1.06v1.89h-.73v-5.17zm.73.65v1.98h1.14c.69 0 1.15-.39 1.15-.99s-.46-.98-1.15-.98h-1.14zM23.97 18.67a2.66 2.66 0 0 1-2.65 2.67 2.66 2.66 0 0 1-2.64-2.68 2.67 2.67 0 0 1 2.64-2.68 2.68 2.68 0 0 1 2.65 2.69zm-.78 0c0-1.09-.84-1.98-1.88-1.98-1.03 0-1.87.88-1.87 1.97 0 1.08.84 1.96 1.87 1.96 1.04 0 1.88-.87 1.88-1.95zM25.08 16.08h.73v3.15c0 .84.52 1.4 1.29 1.4.78 0 1.29-.56 1.29-1.4v-3.15h.73v3.15c0 1.27-.81 2.11-2.03 2.11s-2.02-.84-2.02-2.11v-3.15zM30.53 16.08h1.81c1.14 0 1.89.61 1.89 1.56 0 .73-.46 1.27-1.2 1.48l1.29 2.14h-.84l-1.21-2.05h-1.01v2.05h-.73v-5.18zm.72.65v1.81h1.14c.64 0 1.06-.36 1.06-.91s-.43-.9-1.06-.9h-1.14zM39.69 21.34c-1.5 0-2.65-1.2-2.65-2.68a2.66 2.66 0 0 1 2.64-2.68c.82 0 1.4.23 1.85.64l-.48.56a2.04 2.04 0 0 0-1.36-.49c-1.03 0-1.86.88-1.86 1.97 0 1.08.83 1.96 1.93 1.96.4 0 .77-.09 1.08-.24V18.7h.73v2.14c-.5.33-1.1.5-1.88.5zM46.01 19.92h-2.47l-.53 1.32h-.77l2.13-5.17h.85l2.13 5.17h-.81l-.53-1.32zm-1.23-3.07-.97 2.42h1.94l-.97-2.42zM50.35 21.34c-1.5 0-2.65-1.2-2.65-2.68a2.66 2.66 0 0 1 2.64-2.68c.82 0 1.4.23 1.85.64l-.48.56a2.04 2.04 0 0 0-1.36-.49c-1.03 0-1.86.88-1.86 1.97 0 1.08.83 1.96 1.93 1.96.4 0 .77-.09 1.08-.24V18.7h.73v2.14c-.5.33-1.11.5-1.88.5zM54.21 17.26v3.98h-.73v-5.17h.79l2.86 4.01v-4.01h.73v5.17h-.79l-2.86-3.98zM59.3 16.08h3.28v.69h-2.56v1.55h2.23V19h-2.23v1.56h2.56v.69H59.3v-5.17zM63.67 16.08h1.81c1.14 0 1.89.61 1.89 1.56 0 .73-.46 1.27-1.2 1.48l1.29 2.14h-.84L65.4 19.2h-1.01v2.05h-.73v-5.17zm.72.65v1.81h1.14c.64 0 1.06-.36 1.06-.91s-.43-.9-1.06-.9h-1.14z"/>
    </g>
    <g fill="#CE153E">
      <path d="M2.73 26.28h2.91c2.61 0 4.54 1.7 4.54 4.03 0 2.3-1.93 3.99-4.54 3.99H2.73v-8.02zm2.13 1.94v4.14h.76c1.41 0 2.35-.82 2.35-2.07 0-1.24-.94-2.06-2.36-2.06h-.75zM11.31 26.28h5.32v1.94h-3.26v1.05h2.76v1.94h-2.76v1.15h3.26v1.94h-5.32v-8.02zM20.25 26.29h2.06v6.07h3.64v1.94h-5.7v-8.01zM26.72 28.62h-1.46l.31-2.92h1.9l-.75 2.92zM28.54 26.29h5.32v1.94H30.6v1.05h2.76v1.94H30.6v1.15h3.26v1.94h-5.32v-8.02zM39.53 28.97c-.35-.5-.97-.92-1.75-.93-.51 0-.76.2-.76.49 0 1.04 3.91.56 3.91 3.36 0 1.49-1.31 2.6-3.2 2.6-1.81 0-2.75-.71-3.25-1.5l1.46-1.37c.46.64 1.09.94 1.82.94.62 0 .95-.2.95-.57 0-1.09-3.91-.58-3.91-3.4 0-1.44 1.29-2.47 3.06-2.47 1.39 0 2.46.6 3.06 1.46l-1.39 1.39zM46.54 28.97c-.35-.5-.97-.92-1.75-.93-.51 0-.76.2-.76.49 0 1.04 3.91.56 3.91 3.36 0 1.49-1.31 2.6-3.2 2.6-1.81 0-2.75-.71-3.25-1.5l1.46-1.37c.46.64 1.09.94 1.82.94.62 0 .95-.2.95-.57 0-1.09-3.91-.58-3.91-3.4 0-1.44 1.29-2.47 3.06-2.47 1.39 0 2.46.6 3.06 1.46l-1.39 1.39zM49 26.29h5.32v1.94h-3.26v1.05h2.76v1.94h-2.76v1.15h3.26v1.94H49v-8.02zM57.51 29.74v4.56h-2.06v-8.01h2.21l2.94 4.64v-4.64h2.06v8.01h-2.21l-2.94-4.56zM69.63 28.87c-.37-.39-1-.7-1.67-.7-1.1 0-1.96.95-1.96 2.12 0 1.17.86 2.14 2.06 2.14.59 0 1.21-.26 1.57-.7L71 33.25c-.68.81-1.69 1.24-3.09 1.24a4.13 4.13 0 0 1-4.14-4.2 4.17 4.17 0 0 1 4.15-4.19c1.45 0 2.44.48 3.07 1.19l-1.36 1.58zM71.94 26.3h5.32v1.94H74v1.05h2.76v1.94H74v1.15h3.26v1.94h-5.32V26.3z"/>
    </g>
    <g>
      <g fill="#CE153E">
        <path d="M17.42 49.34a4.13 4.13 0 0 1-4.14-4.2 4.17 4.17 0 0 1 4.15-4.19c1.45 0 2.44.48 3.07 1.19l-1.38 1.57c-.37-.39-1-.7-1.67-.7-1.1 0-1.96.95-1.96 2.12 0 1.17.86 2.14 2.06 2.14.34 0 .67-.07.97-.22v-1.89h2.06v3.2c-.66.56-1.72.98-3.16.98zM21.97 41.14h2.91c2.04 0 3.39 1.05 3.39 2.65 0 1.04-.55 1.85-1.49 2.3l1.69 3.06h-2.39l-1.37-2.67h-.67v2.67h-2.06l-.01-8.01zm2.07 1.81v1.71h1.01c.62 0 1.04-.35 1.04-.87 0-.5-.41-.84-1.04-.84h-1.01zM34.82 47.64h-3.14l-.55 1.51h-2.16l3.13-8.01h2.42l3.12 8.01h-2.27l-.55-1.51zm-1.56-4.31-.91 2.49h1.81l-.9-2.49zM41.14 43.08v6.07h-2.06v-6.07h-2.19v-1.94h6.45v1.94h-2.2zM44.15 41.14h2.06v4.54c0 .96.55 1.6 1.39 1.6.81 0 1.35-.62 1.35-1.59v-4.55h2.06v4.59c0 2.17-1.38 3.61-3.45 3.61-2.05 0-3.41-1.44-3.41-3.61v-4.59zM52.45 41.15h2.06v8.01h-2.06v-8.01zM59.63 43.08v6.07h-2.06v-6.07h-2.19v-1.94h6.45v1.94h-2.2zM62.71 41.15h5.32v1.94h-3.26v1.05h2.76v1.94h-2.76v1.15h3.26v1.94h-5.32v-8.02z"/>
      </g>
    </g>
  </g>
</svg>
