<svg xmlns="http://www.w3.org/2000/svg" width="80" height="100" viewBox="0 0 80 100">
  <g>
    <g fill="#CE153E">
      <path d="M12.59 38.58a3.8 3.8 0 0 1-.65-1.78 7.99 7.99 0 0 1-.13-1.78l.17-1.34c0-.04-.04-.13-.04-.13s-.04-.04-.04 0h-.09c-.48.56-1.21 1.34-1.65 1.91-.09.17-.22.22-.3.3l-.56.52a6.3 6.3 0 0 1-1.08.95c-.26.17-.56.52-.95.61-.43.09-.82.09-1.21-.09-.43-.22-.69-.35-.95-.69-.17-.22-.26-.35-.26-.61 0-.3 0-.65.04-1.04.17-.82.65-2.25.78-3.08.09-.22.35-.3.48-.22l.82.65c.17.13.17.39.17.61l-.04.35c-.22.61-.56 1.99-.74 2.64-.04.09 0 .17 0 .3 0 .04.09.13.17.13.09 0 .13 0 .22-.04l.69-.48c.35-.3.69-.56 1-.91.3-.3.69-.61.95-.91.3-.39.61-.69.87-1 .39-.35 1-1.39 1.3-1.78l.78-.82c.22-.26.43-.26.69-.17.26.13.56.26.78.48.13.17.22.3.22.48.04.35 0 .65-.09.95-.22.52-.52 1.65-.61 2.08-.17.56-.3 1.39-.17 2.17 0 .13.13.56.17.69.17.82.61 1.56 1.47 1.43a8.84 8.84 0 0 0 1.78-.65c.43-.26 1.26-.82 1.65-1.13a24.52 24.52 0 0 0 2.56-2.38c.22-.35.56-.48.87-.78.3-.43.95.22.69.61-.43.52-.74 1.04-1.3 1.43l-.91.87a10.91 10.91 0 0 1-3.21 2.3c-.78.48-1.6.69-2.56.48-.87-.17-1.13-.39-1.78-1.13z"/>
      <path d="M33.57 36.94c.74-.48 1.3-.91 1.95-1.52.22-.26.43-.3.65-.56l.35-.39c.09-.22.13-.09.3-.43v-.09c.04-.09.04-.04.17-.04.26-.22.82.3.56.61-.04.35 0 .09-.22.39-.13.3-.17.26-.43.65-.61.65-1 1.04-1.73 1.65-.3.26-.69.52-1.04.78-.52.35-1.13.65-1.73.78-.35.09-.69.09-1 .13a4.57 4.57 0 0 1-2.69-.91 7.3 7.3 0 0 1-1.34-1.78c-.61-.82-.65-2.99-.69-4.08.04-.04-.04-.13-.09-.09-.35.13-.61.35-.82.52-.78.65-1.52 1.3-2.17 2.17-.22.22-.48.52-.69.82-.26.3-.56 1.47-.87 1.86-.09.17-.3.3-.48.48-.09.13-.26.13-.39.13-.22 0 .04-.04-.09-.17l-.56-.39c-.13-.17-.13-.39-.04-.52 0-.13.04-.3.09-.35.52-.82.61-2.6 1.09-3.47l.17-.48c.13-.26.39-1.34.48-1.65-.04-.22.09-.3.35-.35.39-.04.74.04 1 .26.13.09-.22 1.26-.09 1.34.04.04.13.09.17.04.39-.35.91-.87 1.3-1.17.48-.3.91-.35 1.39-.39h.22c.43.09.82.3 1.13.56.17.09.22.22.26.43.09.39.17.74.13 1.08 0 .35-.09.56-.04 1v.3c-.04.61.26 1.13.35 1.69.13.22.22.52.39.65.22.35.39.61.65.82.82.82 2.08.69 2.9.35.46-.23.72-.32 1.15-.66zM55.51 37.68a2.85 2.85 0 0 1-1.26-1 5 5 0 0 1-.82-1.69c0-.13-.09-.13-.13-.13l-.74.74c-.87.69-1.69 1.43-2.56 1.99a5.57 5.57 0 0 1-2.81.95c-.52.04-.91-.22-1.13-.78l-.35-.65a1.48 1.48 0 0 1-.04-1.13c.13-.43.43-.87.61-1.26l.48-.61c.82-.91 1.69-1.78 2.69-2.43l.74-.43a2.6 2.6 0 0 1 1.3-.35c.22 0 .43.04.56.22.39.35.61.69.74 1.26 0 .09-.04.17-.09.26-.09.04-.13.09-.17 0l-.3-.26c-.09-.09-.22-.22-.39-.09-.43.09-.95.17-1.39.43-.52.26-1 .61-1.43 1.04a.7.7 0 0 0-.3.26 6.84 6.84 0 0 0-1.6 1.91c-.26.3-.39.61-.48 1-.04.09.04.17.09.17.17.04.39.04.48.04.39-.09.87-.13 1.21-.35a7.7 7.7 0 0 0 2.26-1.47l1.04-.87c.17-.09.3-.22.43-.3.43-.52.91-.95 1.34-1.56a.41.41 0 0 1 .52-.13c.22.13.56.26.69.48.04.22.09.35.04.56-.04.35-.09.78-.09 1.17 0 .48.09.91.3 1.34.09.13.26.13.39.22.82.52 1.69.43 2.56.09.48-.17.78-.22 1.21-.48.74-.56 1.17-.69 1.82-1.43.17-.17.78-.91.91-1.13l.13-.09c0-.04.39-.04.39 0l.17.26c.17.39-.48 1.21-.69 1.52a6.65 6.65 0 0 1-4.86 2.82c-.09 0-.65.09-.78 0-.3.02-.47-.02-.69-.11z"/>
      <path d="M73.33 36.95c.74-.48 1.3-.91 1.95-1.52.22-.26.43-.3.65-.56l.35-.39c.09-.22.13-.09.3-.43v-.09c.04-.09.04-.04.17-.04.26-.22.82.3.56.61-.04.35 0 .09-.22.39-.13.3-.17.26-.43.65-.61.65-1 1.04-1.73 1.65-.3.26-.69.52-1.04.78-.52.35-1.13.65-1.73.78-.35.09-.69.09-1 .13a4.57 4.57 0 0 1-2.69-.91 7.3 7.3 0 0 1-1.34-1.78c-.61-.82-.65-2.99-.69-4.08.04-.04-.04-.13-.09-.09-.35.13-.61.35-.82.52-.78.65-1.52 1.3-2.17 2.17-.22.22-.48.52-.69.82-.26.3-.56 1.47-.87 1.86-.09.17-.3.3-.48.48-.09.13-.26.13-.39.13-.22 0 .04-.04-.09-.17l-.56-.39c-.13-.17-.13-.39-.04-.52 0-.13.04-.3.09-.35.52-.82.61-2.6 1.09-3.47l.17-.48c.13-.26.39-1.34.48-1.65-.04-.22.09-.3.35-.35.39-.04.74.04 1 .26.13.09-.22 1.26-.09 1.34.04.04.13.09.17.04.39-.35.91-.87 1.3-1.17.48-.3.91-.35 1.39-.39h.22c.43.09.82.3 1.13.56.17.09.22.22.26.43.09.39.17.74.13 1.08 0 .35-.09.56-.04 1v.3c-.04.61.26 1.13.35 1.69.13.22.22.52.39.65.22.35.39.61.65.82.82.82 2.08.69 2.9.35.46-.23.72-.32 1.15-.66z"/>
    </g>
    <g fill="#CE1F3F">
      <path d="M53.93 88.57a1 1 0 0 1-1-1V48.52a2.92 2.92 0 0 0-2.92-2.92H30.7a2.92 2.92 0 0 0-2.92 2.92v39.06a1 1 0 0 1-1 1 1 1 0 0 1-1-1V48.52c0-2.71 2.2-4.91 4.91-4.91h19.32c2.71 0 4.91 2.2 4.91 4.91v39.06a.98.98 0 0 1-.99.99z"/>
      <path d="M48.06 64.32h-15.4a1.6 1.6 0 0 1-1.6-1.6V50.35c0-.88.72-1.6 1.6-1.6h15.4c.88 0 1.6.72 1.6 1.6v12.37c0 .89-.72 1.6-1.6 1.6zm-15.01-1.99h14.61V50.75H33.05v11.58zm15.01-11.58zM55.54 97.53H25.18a3.45 3.45 0 0 1 0-6.88h30.37a3.45 3.45 0 0 1-.01 6.88zm-30.36-4.89a1.45 1.45 0 0 0 0 2.9h30.37a1.45 1.45 0 0 0 0-2.9H25.18zM60.28 84.57a3.46 3.46 0 0 1-3.45-3.45V66.59c0-.81-.66-1.46-1.46-1.46h-.91a1 1 0 0 1-1-1 1 1 0 0 1 1-1h.91c1.9 0 3.45 1.55 3.45 3.45v14.53a1.46 1.46 0 0 0 2.92 0V52.92L57 49.59a1 1 0 1 1 1.15-1.63l5.17 3.63c.27.19.42.49.42.82v28.71a3.47 3.47 0 0 1-3.46 3.45z"/>
      <path d="M61.98 57.04a.52.52 0 0 1-.31-.1l-2.15-1.6a.52.52 0 0 1-.21-.41v-3.31c0-.28.23-.51.51-.51s.51.23.51.51v3.06l1.94 1.45c.23.17.27.49.11.72a.5.5 0 0 1-.4.19z"/>
    </g>
    <g fill="#CE153E">
      <path d="M2.49 5.29h2.93c2.63 0 4.56 1.71 4.56 4.05 0 2.31-1.94 4.01-4.56 4.01H2.49V5.29zm2.14 1.95v4.16h.77c1.42 0 2.36-.83 2.36-2.08 0-1.24-.94-2.07-2.37-2.07l-.76-.01zM11.11 5.29h5.35v1.95h-3.28V8.3h2.78v1.95h-2.78v1.16h3.28v1.95h-5.35V5.29zM20.11 5.3h2.07v6.11h3.66v1.95h-5.73V5.3zM26.61 7.65h-1.47l.32-2.94h1.91l-.76 2.94zM28.43 5.3h5.35v1.95H30.5V8.3h2.78v1.95H30.5v1.16h3.28v1.95h-5.35V5.3zM39.49 7.99c-.35-.5-.98-.93-1.76-.93-.52 0-.77.2-.77.49 0 1.04 3.93.57 3.93 3.38 0 1.5-1.32 2.61-3.22 2.61-1.82 0-2.76-.72-3.27-1.51l1.47-1.38c.46.64 1.09.94 1.83.94.63 0 .95-.2.95-.58 0-1.09-3.93-.58-3.93-3.42 0-1.44 1.29-2.49 3.08-2.49 1.39 0 2.47.6 3.08 1.47l-1.39 1.42zM46.54 7.99c-.35-.5-.98-.93-1.76-.93-.52 0-.77.2-.77.49 0 1.04 3.93.57 3.93 3.38 0 1.5-1.32 2.61-3.22 2.61-1.82 0-2.76-.72-3.27-1.51l1.47-1.38c.46.64 1.09.94 1.83.94.63 0 .95-.2.95-.58 0-1.09-3.93-.58-3.93-3.42 0-1.44 1.29-2.49 3.08-2.49 1.39 0 2.47.6 3.08 1.47l-1.39 1.42zM49.01 5.3h5.35v1.95h-3.28v1.06h2.78v1.95h-2.78v1.16h3.28v1.95h-5.35V5.3zM57.57 8.77v4.59H55.5V5.31h2.22l2.95 4.66V5.31h2.07v8.05h-2.22l-2.95-4.59zM69.75 7.9a2.42 2.42 0 0 0-1.68-.7c-1.11 0-1.97.95-1.97 2.14 0 1.18.87 2.15 2.07 2.15a2.1 2.1 0 0 0 1.58-.7l1.38 1.53c-.68.82-1.7 1.24-3.1 1.24a4.15 4.15 0 0 1-4.16-4.22 4.2 4.2 0 0 1 4.17-4.21c1.46 0 2.45.48 3.09 1.19L69.75 7.9zM72.07 5.31h5.35v1.95h-3.28v1.06h2.78v1.95h-2.78v1.16h3.28v1.95h-5.35V5.31z"/>
    </g>
    <g fill="#CE153E">
      <path d="M6.73 24.32a2.66 2.66 0 0 1-2.67-2.69c0-1.49 1.18-2.7 2.65-2.7.83 0 1.4.24 1.86.65l-.49.57a2.07 2.07 0 0 0-1.37-.49c-1.04 0-1.87.88-1.87 1.98 0 1.09.83 1.97 1.94 1.97.41 0 .77-.09 1.09-.24v-1.69h.73v2.15c-.48.32-1.09.49-1.87.49zM9.9 19.03h1.82c1.14 0 1.9.62 1.9 1.56 0 .74-.46 1.28-1.21 1.48l1.3 2.15h-.84l-1.22-2.06h-1.01v2.06h-.73l-.01-5.19zm.73.66v1.82h1.15c.64 0 1.07-.36 1.07-.92 0-.55-.43-.91-1.07-.91l-1.15.01zM18.11 22.9h-2.48l-.54 1.33h-.77l2.14-5.2h.86l2.14 5.2h-.82l-.53-1.33zm-1.24-3.09-.97 2.43h1.95l-.98-2.43zM21.58 19.72v4.51h-.73v-4.51H19.2v-.69h4.03v.69h-1.65zM24.02 19.03h.74v3.17c0 .84.52 1.4 1.3 1.4.79 0 1.3-.56 1.3-1.4v-3.17h.74v3.17c0 1.28-.82 2.12-2.04 2.12-1.22 0-2.03-.84-2.03-2.12l-.01-3.17zM29.5 19.04h.73v5.2h-.73v-5.2zM33.47 19.73v4.51h-.73v-4.51h-1.65v-.69h4.03v.69h-1.65zM35.99 19.04h3.3v.69h-2.57v1.56h2.25v.69h-2.25v1.57h2.57v.69h-3.3v-5.2zM42.23 19.04h1.82c1.2 0 1.99.65 1.99 1.65 0 1-.8 1.65-2.01 1.65h-1.07v1.9h-.73v-5.2zm.73.66v1.99h1.15c.7 0 1.16-.4 1.16-1s-.46-.99-1.16-.99h-1.15zM47.14 19.04h3.3v.69h-2.57v1.56h2.25v.69h-2.25v1.57h2.57v.69h-3.3v-5.2zM52.24 20.23v4h-.74v-5.2h.79l2.88 4.03v-4.03h.73v5.2h-.79l-2.87-4zM57.36 19.05h1.59c1.73 0 2.93 1.06 2.93 2.59s-1.17 2.59-2.85 2.59h-1.66l-.01-5.18zm.75.69v3.81h.85c1.29 0 2.13-.75 2.13-1.9s-.84-1.91-2.13-1.91h-.85zM66 22.91h-2.48l-.54 1.33h-.77l2.14-5.2h.86l2.14 5.2h-.82L66 22.91zm-1.24-3.09-.97 2.43h1.95l-.98-2.43zM68.97 20.24v4h-.74v-5.2h.79l2.88 4.03v-4.03h.73v5.2h-.79l-2.87-4zM75.85 19.74v4.51h-.73v-4.51h-1.65v-.69h4.03v.69h-1.65z"/>
    </g>
  </g>
</svg>
