<svg xmlns="http://www.w3.org/2000/svg" width="80" height="100" viewBox="0 0 80 100">
  <g>
    <g fill="#CE153E">
      <path d="M12.78 33.07c0-.96-.75-1.61-1.91-1.61-.96 0-1.68.29-2.24.63l-1.51-1.11 1.05-6.85h7.17v2.96h-4.4l-.27 1.61c.27-.06.73-.08.96-.08 2.72 0 4.53 1.8 4.53 4.53 0 2.83-2.08 4.74-5.22 4.74-2.26 0-3.92-1.01-4.76-2.39l2.45-2.18c.61.96 1.38 1.4 2.24 1.4 1.16-.01 1.91-.66 1.91-1.65zM21.73 30.85c0-4.07 2.31-7.04 5.45-7.04 3.29 0 5.66 2.98 5.62 7.02.04 4.07-2.27 7.04-5.45 7.04-3.25.01-5.62-2.97-5.62-7.02zm7.7.01c0-2.33-.84-3.88-2.22-3.88-1.26 0-2.1 1.53-2.1 3.86 0 2.35.86 3.88 2.18 3.88 1.32-.01 2.14-1.54 2.14-3.86zM34.18 30.86c0-4.07 2.31-7.04 5.45-7.04 3.29 0 5.66 2.98 5.62 7.02.04 4.07-2.27 7.04-5.45 7.04-3.25 0-5.62-2.98-5.62-7.02zm7.7 0c0-2.33-.84-3.88-2.22-3.88-1.26 0-2.1 1.53-2.1 3.86 0 2.35.86 3.88 2.18 3.88 1.32 0 2.14-1.53 2.14-3.86zM46.63 30.86c0-4.07 2.31-7.04 5.45-7.04 3.29 0 5.66 2.98 5.62 7.02.04 4.07-2.27 7.04-5.45 7.04-3.25 0-5.62-2.98-5.62-7.02zm7.7 0c0-2.33-.84-3.88-2.22-3.88-1.26 0-2.1 1.53-2.1 3.86 0 2.35.86 3.88 2.18 3.88 1.32 0 2.14-1.53 2.14-3.86zM71.47 28.83a3.6 3.6 0 0 0-2.93-1.55c-.86 0-1.28.33-1.28.82 0 1.61 6.56.86 6.56 5.22 0 2.01-1.45 3.63-3.67 4.17v2.07h-2.81v-1.95c-2.33-.25-3.6-1.3-4.34-2.45l2.45-2.31a3.61 3.61 0 0 0 3.06 1.57c1.05 0 1.59-.33 1.59-.96 0-1.7-6.56-.9-6.56-5.28 0-2.03 1.53-3.58 3.79-4.02v-2.01h2.81v2.03a5.68 5.68 0 0 1 3.67 2.31l-2.34 2.34z"/>
    </g>
    <g>
      <path fill="none" stroke="#CE1F3F" stroke-linecap="round" stroke-linejoin="round" stroke-miterlimit="10" stroke-width="2.4" d="M71.2 60.14c-1.21-2.25-2.08-3.87-11.52-1.18a34.5 34.5 0 0 0-8.44 3.63L48.92 64l-24.69-7.13-6.85 3.68 16.57 12.53-10.22 6.2-10.66-3.15-4.42 2.38 10.59 10.66 40-18.86c2.78-1.34 13.95-6.47 11.96-10.17z"/>
    </g>
    <g fill="#CE153E">
      <path d="M24.84 4.83h.73v3.15c0 .84.52 1.39 1.29 1.4.78 0 1.29-.56 1.29-1.39V4.84h.73v3.15c0 1.27-.81 2.11-2.03 2.11-1.22 0-2.02-.84-2.02-2.11l.01-3.16zM31 6.02V10h-.73V4.83h.79l2.86 4.01V4.83h.73V10h-.79L31 6.02zM37.92 4.85h2.05c.9 0 1.6.59 1.6 1.39 0 .61-.44.97-.79 1.1.52.15.96.56.96 1.24 0 .77-.63 1.43-1.64 1.43h-2.18V4.85zm.73 2.83v1.68h1.36c.56 0 .98-.36.98-.84s-.42-.84-.97-.84h-1.37zm0-2.19v1.57h1.25c.52 0 .92-.34.92-.78s-.4-.79-.92-.79h-1.25zM47.86 7.44a2.66 2.66 0 0 1-2.65 2.67 2.66 2.66 0 0 1-2.64-2.68 2.67 2.67 0 0 1 2.65-2.68 2.67 2.67 0 0 1 2.64 2.69zm-.78 0c0-1.09-.84-1.98-1.88-1.98-1.03 0-1.87.88-1.87 1.97 0 1.08.84 1.96 1.87 1.96 1.04 0 1.88-.88 1.88-1.95zM49.74 6.03v3.98h-.73V4.84h.79l2.86 4.01V4.84h.73v5.17h-.79l-2.86-3.98zM13.03 14.51h1.58c1.72 0 2.91 1.06 2.91 2.58s-1.16 2.58-2.84 2.58h-1.65v-5.16zm.75.69v3.79h.85c1.28 0 2.12-.75 2.12-1.89 0-1.15-.84-1.9-2.12-1.9h-.85zM18.7 14.51h3.28v.69h-2.56v1.55h2.23v.69h-2.23V19h2.56v.69H18.7v-5.18zM26.77 18.87l1.61-4.36h.76l-1.97 5.17h-.85l-1.97-5.17h.81l1.61 4.36zM34.73 17.11a2.66 2.66 0 0 1-2.65 2.67 2.66 2.66 0 0 1-2.64-2.68 2.67 2.67 0 0 1 2.65-2.68 2.66 2.66 0 0 1 2.64 2.69zm-.77 0c0-1.09-.84-1.98-1.88-1.98-1.03 0-1.87.88-1.87 1.97 0 1.08.84 1.96 1.87 1.96 1.04 0 1.88-.88 1.88-1.95zM36.83 17.94l-1.92-3.43h.81l1.48 2.66 1.5-2.66h.77l-1.92 3.43v1.74h-.73l.01-1.74zM42.97 18.36H40.5l-.53 1.32h-.77l2.13-5.17h.85l2.13 5.17h-.81l-.53-1.32zm-1.23-3.07-.97 2.42h1.94l-.97-2.42zM47.31 19.78c-1.5 0-2.65-1.2-2.65-2.68a2.66 2.66 0 0 1 2.64-2.68c.82 0 1.4.23 1.85.65l-.48.56a2.04 2.04 0 0 0-1.36-.49c-1.03 0-1.86.88-1.86 1.97 0 1.08.83 1.96 1.93 1.96.4 0 .77-.09 1.08-.24v-1.68h.73v2.14a3.4 3.4 0 0 1-1.88.49zM50.46 14.51h3.28v.69h-2.56v1.55h2.23v.69h-2.23V19h2.56v.69h-3.28v-5.18zM56.66 14.52h1.58c1.72 0 2.91 1.06 2.91 2.58s-1.16 2.58-2.84 2.58h-1.65v-5.16zm.75.69V19h.85c1.28 0 2.12-.75 2.12-1.89 0-1.15-.84-1.9-2.12-1.9h-.85zM62.33 14.52h3.28v.69h-2.56v1.55h2.23v.69h-2.23v1.56h2.56v.69h-3.28v-5.18z"/>
    </g>
  </g>
</svg>
