<svg xmlns="http://www.w3.org/2000/svg" width="80" height="100" viewBox="0 0 80 100">
  <g>
    <g fill="#CE153E">
      <path d="M15.92 43.13a3.62 3.62 0 0 1-1.63-1.3 6.7 6.7 0 0 1-1.07-2.2c0-.17-.11-.17-.17-.17l-.96.96c-1.13.9-2.2 1.86-3.32 2.59a7.3 7.3 0 0 1-2.25 1.01c-.45.17-.9.23-1.41.22-.68.06-1.18-.28-1.46-1.01l-.45-.85a1.9 1.9 0 0 1-.06-1.46c.16-.55.56-1.12.78-1.62l.62-.79a18.5 18.5 0 0 1 3.49-3.15l.96-.56a3.47 3.47 0 0 1 1.69-.45c.28 0 .56.06.73.28.51.45.79.9.96 1.63 0 .11-.06.23-.11.34-.11.06-.17.11-.23 0l-.39-.34c-.11-.11-.28-.28-.51-.11-.56.11-1.24.22-1.8.56-.68.34-1.3.79-1.86 1.35-.11.06-.23.11-.39.34A8.92 8.92 0 0 0 5 40.88c-.34.39-.51.79-.62 1.3-.06.11.06.23.11.23.23.06.51.06.62.06.51-.11 1.13-.17 1.58-.45a9.8 9.8 0 0 0 2.93-1.91l1.35-1.13c.23-.11.39-.28.56-.39.56-.68 1.18-1.24 1.75-2.03a.54.54 0 0 1 .68-.17c.28.17.73.34.9.62.06.28.11.45.06.73-.06.45-.11 1.01-.11 1.52 0 .62.11 1.18.39 1.75.11.17.34.17.51.28 1.07.68 2.2.56 3.32.11.62-.23 1.01-.28 1.58-.62.96-.73 1.52-.9 2.37-1.86.23-.23 1.01-1.18 1.18-1.46l.17-.11c0-.06.51-.06.51 0l.23.34c.22.51-.62 1.58-.9 1.97-1.58 2.25-4.23 3.6-6.31 3.66-.11 0-.85.11-1.01 0a2.58 2.58 0 0 1-.93-.19zM13.89 31.3c-.56-.23-1.07-.45-1.52-.73a19.3 19.3 0 0 1-3.49-3.26c-.11-.23-.11-.51 0-.68l.45-.45c.28-.23.62-.17.79.11.11.06.17.17.28.28.56.68 1.07 1.41 1.69 2.03.62.56 1.18 1.18 1.86 1.75.23.17.39.34.45.62.06.17-.06.34-.28.39-.06 0-.17 0-.23-.06zM33.49 41.84c.11-.23.17-.51.17-.84-.06-.17.06-.28.06-.45.23-.9.56-1.86.68-2.7l.51-1.52c.06-.11.11-.23.23-.28.06-.06.11-.06.17 0 .51.11.9.39 1.18.85.06.11.11.28.06.39a41.97 41.97 0 0 0-1.18 3.6c-.11.73-.34 1.63-.39 2.42 0 .06.11.11.11.11l.11.06c.06 0 .06 0 .06-.06.68-.51 1.3-1.07 1.92-1.8.39-.34.62-.79 1.07-1.07l1.13-1.41c.28-.34.51-.73.73-.96 0-.06 0-.06.06-.11.28-.39.68-.79.96-1.13.17-.23.34-.62.68-.84.34-.28.45-.62.73-.9.23-.34.56-.68.73-1.07 0-.11.17-.11.23-.23.68-.51.96-1.13 1.58-1.69.39-.28.85-.62 1.35-.79.06 0 .39-.06.34.06.06.11.11.17.23.23.17.11 0 .45-.11.62-.23.23-.39.56-.62.79-.51.56-.9 1.13-1.35 1.75l-1.01 1.3L42 38.52c-1.13 1.46-2.2 2.87-3.38 4.28-.39.34-.62.73-.96 1.13-.39.45-.9.79-1.41 1.13-.45.17-.79.17-1.18 0s-.73-.51-.96-.73c-.45-.56-.84-1.18-.68-1.92.01-.18.06-.4.06-.57zM49.71 44.38c-1.13-.56-1.58-.85-1.91-2.14a3.29 3.29 0 0 1-.23-2.08l.51-1.8c.34-.68.79-1.46 1.01-2.14.06 0-.06-.11 0-.17.06-.11.39-.23.51-.17.28.17.51.23.73.39.06.06.06.11.17.17.45.45.51.73.11 1.35l-.96 2.2a4.27 4.27 0 0 0-.34 2.03c.11 1.3 1.63 1.3 2.7 1.13a17.28 17.28 0 0 0 6.76-2.98c.84-.79.11 0 1.24-.9.23-.23.79-.62 1.01-.84.62-.34 1.75-1.63 2.14-.96.11.28-.28.73-.06 1.13l-.11.34c-.11.34-.39.39-.73.45-.51.45-.96.79-1.41 1.3-1.46 1.13-1.58 1.18-2.7 1.91 0 .06-.56.17-.62.23-.51.56-1.13.68-2.25 1.18-1.13.28-2.7.96-4.17.73-.38-.03-.83-.19-1.4-.36zm1.64-12.56c-.17-.06-.23-.17-.34-.28-.17-.28-.23-.68-.17-1.01.17-.62.23-1.18.68-1.8 0-.11.06-.23.11-.17.23-.11.39-.17.56-.17.34.11.62.28.96.62.34.23.23.45.17.84 0 .11-.11.23-.17.39-.23.28-.45.62-.68 1.07.11.06.11.11-.06.17a.84.84 0 0 1-.79.45.7.7 0 0 0-.27-.11z"/>
      <path d="M61.31 44.55c-.84-.84-1.75-1.8-1.58-2.99 0-.11.06-.79.17-.96l.11-.34c.39-.9.39-.9.9-1.75a12.69 12.69 0 0 1 4.73-4.16c.11 0 .28-.06.45-.17.56-.22 1.35.17 1.69.56l.23.56c.11.85-.11 1.63-.68 2.2-.85.96-1.75 1.91-2.82 2.7-.17.17-.45.28-.62.45-.23.23-.62.23-.96.28-.28.17-.56.11-.79-.17l-.23-.17s-.17 0-.17.06c-.34.51-.34 1.3-.34 1.8.06.23.17.39.39.62.28.39.73.51 1.13.51.23.06.39.06.62.06.62-.06 1.35 0 2.08-.28 2.76-.68 4.9-1.75 7.21-2.76 1.18-.56 2.14-1.18 3.21-1.69.68-.39.56-.34 1.3-.84.39-.34.23-.17.79-.39.11-.11.06 0 .11.23.06.28.28.79 0 1.01-.51.51-.17.34-.68.79-1.13.84-2.25 1.35-3.44 2.08-.79.39-1.52.79-2.2 1.07-1.52.62-3.04 1.29-4.68 1.69l-1.59.45c-.84.23-1.07.23-1.97.22-.79-.11-1.75-.16-2.37-.67zm5.08-8.45c-.06 0-.17.06-.23.06-1.41.62-2.48 1.35-3.04 2.65-.11.06-.11.23-.17.39a13.67 13.67 0 0 0 3.44-3.1z"/>
    </g>
    <g fill="#CE153E">
      <path d="M1.59 5.29h2.93c2.63 0 4.56 1.71 4.56 4.05 0 2.31-1.94 4.01-4.56 4.01H1.59V5.29zm2.14 1.95v4.16h.77c1.42 0 2.36-.83 2.36-2.08 0-1.24-.94-2.07-2.37-2.07l-.76-.01zM10.21 5.29h5.35v1.95h-3.28V8.3h2.78v1.95h-2.78v1.16h3.28v1.95h-5.35V5.29zM19.2 5.3h2.07v6.11h3.66v1.95H19.2V5.3zM25.71 7.65h-1.47l.31-2.94h1.91l-.75 2.94zM27.53 5.3h5.35v1.95H29.6v1.06h2.78v1.95H29.6v1.16h3.28v1.95h-5.35V5.3zM38.59 7.99c-.35-.5-.98-.93-1.76-.93-.52 0-.77.2-.77.49 0 1.04 3.93.57 3.93 3.38 0 1.5-1.32 2.61-3.22 2.61-1.82 0-2.76-.72-3.27-1.51l1.47-1.38c.46.64 1.09.94 1.83.94.63 0 .95-.2.96-.58 0-1.09-3.93-.58-3.93-3.42 0-1.44 1.29-2.49 3.08-2.49 1.39 0 2.47.6 3.08 1.47l-1.4 1.42zM45.63 7.99c-.35-.5-.98-.93-1.76-.93-.51 0-.77.2-.77.49 0 1.04 3.93.57 3.93 3.38 0 1.5-1.32 2.61-3.22 2.61-1.82 0-2.76-.72-3.27-1.51l1.47-1.38c.46.64 1.09.94 1.83.94.63 0 .95-.2.96-.58 0-1.09-3.93-.58-3.93-3.42 0-1.44 1.29-2.49 3.08-2.49 1.39 0 2.47.6 3.08 1.47l-1.4 1.42zM48.11 5.3h5.35v1.95h-3.28v1.06h2.78v1.95h-2.78v1.16h3.28v1.95h-5.35V5.3zM56.66 8.77v4.59h-2.07V5.31h2.22l2.95 4.66V5.31h2.07v8.05h-2.22l-2.95-4.59zM68.85 7.9c-.38-.39-1-.7-1.68-.7-1.11 0-1.97.95-1.97 2.14 0 1.18.87 2.15 2.07 2.15a2.1 2.1 0 0 0 1.58-.7l1.38 1.53c-.68.82-1.7 1.24-3.1 1.24a4.15 4.15 0 0 1-4.16-4.22 4.2 4.2 0 0 1 4.17-4.21c1.46 0 2.45.48 3.09 1.19L68.85 7.9zM71.17 5.31h5.35v1.95h-3.28v1.06h2.78v1.95h-2.78v1.16h3.28v1.95h-5.35V5.31z"/>
    </g>
    <g fill="#CE153E">
      <path d="M24.82 24.33a2.66 2.66 0 0 1-2.67-2.69c0-1.49 1.18-2.7 2.65-2.7.83 0 1.4.24 1.86.65l-.49.57a2.07 2.07 0 0 0-1.37-.49c-1.04 0-1.87.88-1.87 1.98 0 1.09.83 1.97 1.94 1.97.41 0 .77-.09 1.09-.24v-1.69h.73v2.15c-.48.32-1.09.49-1.87.49zM27.99 19.04h1.82c1.14 0 1.9.62 1.9 1.56 0 .74-.46 1.28-1.21 1.48l1.3 2.15h-.84l-1.22-2.06h-1.01v2.06H28l-.01-5.19zm.73.65v1.82h1.15c.64 0 1.07-.36 1.07-.92 0-.55-.43-.91-1.07-.91l-1.15.01zM36.2 22.9h-2.48l-.54 1.33h-.77l2.14-5.2h.86l2.14 5.2h-.82l-.53-1.33zm-1.24-3.08-.97 2.43h1.95l-.98-2.43zM39.67 19.73v4.51h-.73v-4.51h-1.65v-.69h4.03v.69h-1.65zM42.11 19.04h.74v3.17c0 .84.52 1.4 1.3 1.4.79 0 1.3-.56 1.3-1.4v-3.17h.74v3.17c0 1.28-.82 2.12-2.04 2.12-1.22 0-2.03-.84-2.03-2.12l-.01-3.17zM47.59 19.04h.73v5.2h-.73v-5.2zM51.56 19.73v4.51h-.73v-4.51h-1.65v-.69h4.03v.69h-1.65zM54.08 19.04h3.3v.69h-2.57v1.56h2.25v.69h-2.25v1.57h2.57v.69h-3.3v-5.2z"/>
    </g>
    <g>
      <path fill="#CE1F3F" d="M35.27 82.79a5.19 5.19 0 1 0 4.88 6.91l.18-.51.53-.12c2.69-.59 5.91-1.33 8.47-1.93-2.63-.32-5.93-.71-8.68-1.01l-.52-.06-.24-.47-.15-.27a5.18 5.18 0 0 0-4.47-2.54zm.02 8.65a3.43 3.43 0 0 1-3-1.71 3.47 3.47 0 1 1 3 1.71z"/>
    </g>
    <g>
      <path fill="#CE1F3F" d="M63.93 91.79h7.87c.41 0 .74-.33.74-.73v-.02a32.6 32.6 0 0 0-9.61-23.21 32.6 32.6 0 0 0-23.21-9.61 32.6 32.6 0 0 0-23.21 9.61A32.6 32.6 0 0 0 6.9 91.04v.02c0 .4.33.73.74.73h8.82a.9.9 0 0 0 .26-.62v-.13a.87.87 0 0 0-.87-.87H8.63l.06-1.04a30.77 30.77 0 0 1 3.19-11.97l.47-.95 6.18 3.74c.2.12.44.15.66.1a.87.87 0 0 0 .53-.41l.04-.07a.86.86 0 0 0-.29-1.22l-6.27-3.62.58-.87a31.23 31.23 0 0 1 8.75-8.75l.88-.59 3.48 6.33c.11.2.3.35.53.42.22.06.47.03.67-.08l.11-.06a.87.87 0 0 0 .32-1.18l-3.62-6.27.93-.46a30.6 30.6 0 0 1 11.97-3.19l1.06-.06-.15 7.17c0 .19.04.37.12.51.16.26.44.42.74.42h.13c.48 0 .87-.39.87-.87v-7.22l1.04.06c4.16.25 8.15 1.3 11.85 3.13l.93.46-3.62 6.27a.86.86 0 0 0 1.49.88l3.76-6.21.85.56a31.6 31.6 0 0 1 8.68 8.65l.58.87-6.26 3.62a.87.87 0 0 0 .86 1.51l6.36-3.5.45.91a30.77 30.77 0 0 1 3.19 11.84l.07 1.04h-7.18c-.48 0-.89.37-.91.82a.85.85 0 0 0 .85.9h.37z"/>
    </g>
  </g>
</svg>
