<svg xmlns="http://www.w3.org/2000/svg" width="80" height="100" viewBox="0 0 80 100">
  <g>
    <g fill="#CE153E">
      <path d="M15.95 51.46a3.57 3.57 0 0 1-1.62-1.29c-.5-.67-.84-1.4-1.06-2.19 0-.17-.11-.17-.17-.17l-.95.95c-1.12.9-2.19 1.85-3.31 2.58-.73.45-1.46.84-2.24 1.01-.45.17-.9.22-1.4.22-.67.06-1.18-.28-1.46-1.01l-.45-.84a1.95 1.95 0 0 1-.06-1.46c.17-.56.56-1.12.78-1.62l.62-.78a18.34 18.34 0 0 1 3.47-3.14l.95-.56a3.4 3.4 0 0 1 1.68-.45c.28 0 .56.06.73.28.5.45.78.9.95 1.63 0 .11-.06.22-.11.34-.11.06-.17.11-.22 0l-.39-.34c-.11-.11-.28-.28-.5-.11-.56.11-1.23.22-1.79.56-.67.34-1.29.78-1.85 1.34-.11.06-.22.11-.39.34a9.11 9.11 0 0 0-2.07 2.46c-.34.39-.5.78-.62 1.29-.06.11.06.22.11.22.22.06.5.06.62.06.5-.11 1.12-.17 1.57-.45a9.67 9.67 0 0 0 2.91-1.9l1.35-1.12c.22-.11.39-.28.56-.39.56-.67 1.18-1.23 1.74-2.02a.54.54 0 0 1 .67-.17c.28.17.73.34.9.62.06.28.11.45.06.73-.06.45-.11 1.01-.11 1.51 0 .62.11 1.18.39 1.74.11.17.34.17.5.28 1.06.67 2.19.56 3.31.11.62-.22 1.01-.28 1.57-.62.95-.73 1.51-.9 2.35-1.85.22-.22 1.01-1.18 1.18-1.46l.17-.11c0-.06.5-.06.5 0l.22.34c.22.5-.62 1.57-.9 1.96-1.57 2.24-4.2 3.58-6.28 3.64-.11 0-.84.11-1.01 0-.39.01-.62-.05-.9-.16zm-2.01-11.77a9.21 9.21 0 0 1-1.51-.73 18.54 18.54 0 0 1-2.74-2.41c-.29-.27-.51-.55-.74-.83-.11-.22-.11-.5 0-.67l.45-.45c.28-.22.62-.17.78.11.11.06.17.17.28.28.56.67 1.06 1.4 1.68 2.02.62.56 1.18 1.18 1.85 1.74.22.17.39.34.45.62.06.17-.06.34-.28.39-.05-.01-.16-.01-.22-.07zM33.95 50.18c.11-.22.17-.5.17-.84-.06-.17.06-.28.06-.45.22-.9.56-1.85.67-2.69l.5-1.51c.06-.11.11-.22.22-.28.06-.06.11-.06.17 0 .5.11.9.39 1.18.84.06.11.11.28.06.39a45.57 45.57 0 0 0-1.18 3.59c-.11.73-.34 1.62-.39 2.41 0 .06.11.11.11.11l.11.06c.06 0 .06 0 .06-.06.67-.5 1.29-1.06 1.91-1.79.39-.34.62-.78 1.06-1.06l1.12-1.4c.28-.34.5-.73.73-.95 0-.06 0-.06.06-.11.28-.39.67-.78.95-1.12.17-.22.34-.62.67-.84.34-.28.45-.62.73-.9.22-.34.56-.67.73-1.06 0-.11.17-.11.22-.22.67-.5.95-1.12 1.57-1.68.39-.28.84-.62 1.35-.78.06 0 .39-.06.34.06.06.11.11.17.22.22.17.11 0 .45-.11.62-.22.22-.39.56-.62.78-.5.56-.9 1.12-1.35 1.74l-1.01 1.29-1.85 2.35c-1.12 1.46-2.19 2.86-3.36 4.26-.39.34-.62.73-.95 1.12-.39.45-.9.78-1.4 1.12-.45.17-.78.17-1.18 0-.39-.17-.73-.5-.95-.73-.45-.56-.84-1.18-.67-1.91 0-.19.05-.42.05-.58zM50.09 52.7c-1.12-.56-1.57-.84-1.9-2.13a3.2 3.2 0 0 1-.22-2.07l.5-1.79c.34-.67.78-1.46 1.01-2.13.06 0-.06-.11 0-.17.06-.11.39-.22.5-.17.28.17.5.22.73.39.06.06.06.11.17.17.45.45.5.73.11 1.34l-.95 2.19c-.22.67-.45 1.34-.34 2.02.11 1.29 1.62 1.29 2.69 1.12a17.1 17.1 0 0 0 6.72-2.97c.84-.78.11 0 1.23-.9.22-.22.78-.62 1.01-.84.62-.34 1.74-1.62 2.13-.95.11.28-.28.73-.06 1.12l-.11.34c-.11.34-.39.39-.73.45-.5.45-.95.78-1.4 1.29-1.46 1.12-1.57 1.18-2.69 1.9 0 .06-.56.17-.62.22-.5.56-1.12.67-2.24 1.18-1.12.28-2.69.95-4.15.73-.38 0-.83-.17-1.39-.34zm1.63-12.49c-.17-.06-.22-.17-.34-.28-.17-.28-.22-.67-.17-1.01.17-.62.22-1.18.67-1.79 0-.11.06-.22.11-.17.22-.11.39-.17.56-.17.34.11.62.28.95.62.34.22.22.45.17.84 0 .11-.11.22-.17.39a6.1 6.1 0 0 0-.67 1.06c.11.06.11.11-.06.17-.17.28-.39.45-.78.45a.83.83 0 0 0-.27-.11z"/>
      <path d="M61.63 52.87c-.84-.84-1.74-1.79-1.57-2.97 0-.11.06-.78.17-.95l.11-.34c.39-.9.39-.9.9-1.74a12.33 12.33 0 0 1 4.71-4.15c.11 0 .28-.06.45-.17.56-.22 1.34.17 1.68.56l.22.56c.11.84-.11 1.62-.67 2.19-.84.95-1.74 1.9-2.8 2.69-.17.17-.45.28-.62.45-.22.22-.62.22-.95.28-.28.17-.56.11-.78-.17l-.22-.17s-.17 0-.17.06c-.34.5-.34 1.29-.34 1.79.06.22.17.39.39.62.28.39.73.5 1.12.5.22.06.39.06.62.06.62-.06 1.34 0 2.07-.28 2.75-.67 4.88-1.74 7.17-2.74 1.18-.56 2.13-1.18 3.19-1.68.67-.39.56-.34 1.29-.84.39-.34.22-.17.78-.39.11-.11.06 0 .11.22.06.28.28.78 0 1.01-.5.5-.17.34-.67.78-1.12.84-2.24 1.34-3.42 2.07-.78.39-1.51.78-2.19 1.06-1.51.62-3.03 1.29-4.65 1.68l-1.63.45c-.84.22-1.06.22-1.96.22-.77-.1-1.73-.15-2.34-.66zm5.04-8.4c-.06 0-.17.06-.22.06-1.4.62-2.47 1.34-3.03 2.63-.11.06-.11.22-.17.39a13.53 13.53 0 0 0 3.42-3.08z"/>
    </g>
    <g>
      <path fill="#CE1F3F" d="M36.27 85.67a5.15 5.15 0 1 0 4.86 6.88l.18-.51.53-.12c2.67-.59 5.87-1.33 8.42-1.92-2.61-.32-5.9-.71-8.63-1.01l-.52-.06-.24-.47-.15-.27a5.18 5.18 0 0 0-4.45-2.52zm.02 8.61a3.46 3.46 0 0 1-2.98-1.7 3.46 3.46 0 1 1 2.98 1.7z"/>
    </g>
    <g>
      <path fill="#CE1F3F" d="M64.78 94.63h7.83c.41 0 .74-.33.74-.72v-.02c0-8.72-3.4-16.92-9.56-23.08a32.41 32.41 0 0 0-23.08-9.56c-8.72 0-16.92 3.4-23.08 9.56a32.41 32.41 0 0 0-9.56 23.08v.02c0 .4.33.72.74.72h8.77a.87.87 0 0 0 .26-.61v-.13a.87.87 0 0 0-.86-.86H9.77L9.83 92A30.68 30.68 0 0 1 13 80.09l.47-.94 6.15 3.72a.86.86 0 0 0 1.19-.3l.04-.07c.09-.16.14-.33.14-.49a.86.86 0 0 0-.43-.72l-6.23-3.6.57-.86a31.05 31.05 0 0 1 8.71-8.71l.88-.59 3.46 6.29c.11.2.3.35.52.41a.9.9 0 0 0 .66-.08l.11-.06a.88.88 0 0 0 .32-1.18l-3.6-6.24.92-.46a30.65 30.65 0 0 1 11.91-3.18l1.05-.06-.15 7.13c0 .19.04.37.12.5.16.26.43.42.74.42h.13c.47 0 .86-.39.86-.86v-7.19l1.03.06c4.14.25 8.11 1.3 11.79 3.12l.93.46-3.6 6.23c-.24.41-.1.93.31 1.17a.86.86 0 0 0 1.18-.3l3.74-6.18.84.56a31.31 31.31 0 0 1 8.64 8.6l.58.86-6.23 3.6a.86.86 0 0 0 .43 1.61c.15 0 .28-.04.41-.11l6.32-3.48.45.9a30.64 30.64 0 0 1 3.17 11.78l.07 1.03h-7.14a.89.89 0 0 0-.9.82.85.85 0 0 0 .84.9l.38.03z"/>
    </g>
    <g fill="#CE153E">
      <path d="M2.77 8.59h2.91c2.61 0 4.54 1.7 4.54 4.02 0 2.3-1.93 3.99-4.54 3.99H2.77V8.59zm2.12 1.93v4.14h.76c1.41 0 2.35-.82 2.35-2.07 0-1.24-.94-2.06-2.36-2.06l-.75-.01zM11.34 8.59h5.32v1.94H13.4v1.05h2.76v1.94H13.4v1.15h3.26v1.94h-5.32V8.59zM20.29 8.59h2.06v6.07h3.64v1.94h-5.7V8.59zM26.76 10.93H25.3L25.61 8h1.9l-.75 2.93zM28.57 8.59h5.32v1.94h-3.26v1.05h2.76v1.94h-2.76v1.15h3.26v1.94h-5.32V8.59zM39.57 11.27c-.35-.5-.97-.92-1.75-.93-.51 0-.76.2-.76.49 0 1.04 3.91.56 3.91 3.36 0 1.49-1.31 2.6-3.2 2.6-1.81 0-2.75-.71-3.25-1.5l1.46-1.37c.46.64 1.09.94 1.82.94.62 0 .95-.2.95-.57 0-1.09-3.91-.58-3.91-3.4 0-1.44 1.29-2.47 3.06-2.47 1.39 0 2.46.6 3.06 1.46l-1.39 1.39zM46.58 11.27c-.35-.5-.97-.92-1.75-.93-.51 0-.76.2-.76.49 0 1.04 3.91.56 3.91 3.36 0 1.49-1.31 2.6-3.2 2.6-1.81 0-2.75-.71-3.25-1.5l1.46-1.37c.46.64 1.09.94 1.82.94.62 0 .95-.2.95-.57 0-1.09-3.91-.58-3.91-3.4 0-1.44 1.29-2.47 3.06-2.47 1.39 0 2.46.6 3.06 1.46l-1.39 1.39zM49.04 8.6h5.32v1.94H51.1v1.05h2.76v1.94H51.1v1.15h3.26v1.94h-5.32V8.6zM57.55 12.05v4.56h-2.06V8.6h2.21l2.94 4.64V8.6h2.06v8.01h-2.21l-2.94-4.56zM69.67 11.18c-.37-.39-1-.7-1.67-.7-1.1 0-1.96.95-1.96 2.12 0 1.17.86 2.14 2.06 2.14.59 0 1.21-.26 1.57-.7l1.37 1.52c-.68.81-1.69 1.24-3.09 1.24a4.13 4.13 0 0 1-4.14-4.2 4.17 4.17 0 0 1 4.15-4.19c1.45 0 2.44.48 3.07 1.19l-1.36 1.58zM71.98 8.6h5.32v1.94h-3.26v1.05h2.76v1.94h-2.76v1.15h3.26v1.94h-5.32V8.6z"/>
    </g>
    <g>
      <g fill="#CE153E">
        <path d="M17.46 31.64a4.13 4.13 0 0 1-4.14-4.2 4.17 4.17 0 0 1 4.15-4.19c1.45 0 2.44.48 3.07 1.19l-1.38 1.57c-.37-.39-1-.7-1.67-.7-1.1 0-1.96.95-1.96 2.12 0 1.17.86 2.14 2.06 2.14.34 0 .67-.07.98-.22v-1.89h2.06v3.2c-.67.57-1.73.98-3.17.98zM22.01 23.44h2.91c2.04 0 3.39 1.05 3.39 2.65 0 1.04-.55 1.85-1.49 2.3l1.69 3.06h-2.39l-1.37-2.67h-.67v2.67h-2.06l-.01-8.01zm2.06 1.81v1.71h1.01c.62 0 1.04-.35 1.04-.87 0-.5-.41-.84-1.04-.84h-1.01zM34.85 29.94h-3.14l-.55 1.51H29l3.13-8.01h2.42l3.12 8.01H35.4l-.55-1.51zm-1.56-4.31-.91 2.49h1.81l-.9-2.49zM41.18 25.38v6.07h-2.06v-6.07h-2.19v-1.94h6.45v1.94h-2.2zM44.19 23.45h2.06v4.54c0 .96.55 1.6 1.39 1.6.81 0 1.35-.62 1.35-1.59v-4.55h2.06v4.59c0 2.17-1.38 3.61-3.45 3.61-2.05 0-3.41-1.44-3.41-3.61v-4.59zM52.48 23.45h2.06v8.01h-2.06v-8.01zM59.67 25.39v6.07h-2.06v-6.07h-2.19v-1.94h6.45v1.94h-2.2zM62.74 23.45h5.32v1.94H64.8v1.05h2.76v1.94H64.8v1.15h3.26v1.94h-5.32v-8.02z"/>
      </g>
    </g>
  </g>
</svg>
