<svg xmlns="http://www.w3.org/2000/svg" width="752" height="620" viewBox="0 0 752 620">
  <path fill="#3D3A39" d="M440.6 64c-1-.2-5.6 0-7 0l-12-.3h-9c-.3.1-.5 0-.3.3.1.1.9.4 2.7.5h18.4c5.4 0 8.3-.2 7.2-.5z" opacity=".8"/>
  <path fill="#3D3A39" d="M438 60.2c0-.9-17.5-1-23.9-.5-1.4.1-1.9 1-1.8 1.2 0 .7 2.4 1.3 4 1.3h17.5c1.8 0 4-1 4.1-2z"/>
  <path fill="#3D3A39" d="M434.3 56.7h3.2c.2 0 .3 1.8.3 4 0 2-.1 3.6-.3 3.6h-3.2c-.2 0-.4-1.9-.4-4 0-2 .2-3.7.4-3.6zm-22-.4h3.2c.2.1.4 1.9.4 4 0 2-.2 3.7-.4 3.7h-3.2c-.2-.1-.3-1.9-.3-4 0-2 0-3.7.3-3.7z"/>
  <path fill="#3D3A39" d="M413.3 56.7h3.2c.2 0 .4 1.8.4 4 0 2-.2 3.6-.4 3.6h-3.2c-.2 0-.4-1.9-.4-4 0-2 .2-3.7.4-3.6z"/>
  <linearGradient id="a" x1="698.9" x2="698.9" y1="576.3" y2="597.3" gradientTransform="matrix(-1 0 0 1 1123.8 -534)" gradientUnits="userSpaceOnUse">
    <stop offset="0" stop-color="#c5614c"/>
    <stop offset="1" stop-color="#620000"/>
  </linearGradient>
  <path fill="url(#a)" d="M438 58.5a27 27 0 0 0-1.1-8c-1-3-2-7.2-3.8-8.1-1.8-1-4.2-1.4-8.3-1.4s-7.4.9-8.7 2.2c-1.2 1.4-1.5 2.7-2.4 5.7 0 .2-1.3-.2-1.5.3-.3.6 1.1.7 1.1.7l-.5.9c-.6 2.2-.6 3.7-.7 4.2-.2 1.4 0 3.5.2 4.2 0 .7 2.4 1.3 4 1.3h17.5c1.8 0 4-1 4.1-2z"/>
  <linearGradient id="b" x1="698.2" x2="698.2" y1="576.9" y2="583" gradientTransform="matrix(-1 0 0 1 1123.8 -534)" gradientUnits="userSpaceOnUse">
    <stop offset="0" stop-color="#a0b6cc"/>
    <stop offset="1" stop-color="#5e768b"/>
  </linearGradient>
  <path fill="url(#b)" d="M435.2 49s-1.6-5.6-2.2-5.7c-.6-.2-5.1-.3-7.5-.3-2.4 0-7 0-7.5.4s-1.9 5.5-1.9 5.5 5.8.6 10.1.6 9-.5 9-.5z"/>
  <linearGradient id="c" x1="708.5" x2="708.5" y1="577.2" y2="582.6" gradientTransform="matrix(-1 0 0 1 1123.8 -534)" gradientUnits="userSpaceOnUse">
    <stop offset="0" stop-color="#a0b6cc"/>
    <stop offset="1" stop-color="#5e768b"/>
  </linearGradient>
  <path fill="url(#c)" d="m416.9 43.4-1.9 5.3-1.1.3s1.3-4.4 2-5 1-.6 1-.6z"/>
  <linearGradient id="d" x1="688.6" x2="688.6" y1="584.6" y2="586.2" gradientTransform="matrix(-1 0 0 1 1123.8 -534)" gradientUnits="userSpaceOnUse">
    <stop offset="0" stop-color="#eba868"/>
    <stop offset="1" stop-color="#dc5411"/>
  </linearGradient>
  <path fill="url(#d)" d="M434.4 51.5c0 .5.4.9.9.9s.8-.4.8-.9-.4-.9-.8-.9c-.5 0-.9.4-.9 1z"/>
  <linearGradient id="e" x1="688.5" x2="688.5" y1="586.9" y2="588.6" gradientTransform="matrix(-1 0 0 1 1123.8 -534)" gradientUnits="userSpaceOnUse">
    <stop offset="0" stop-color="#d81619"/>
    <stop offset="1" stop-color="#b2030e"/>
  </linearGradient>
  <path fill="url(#e)" d="M434.5 53.8c0 .5.4.9.9.9s.8-.4.8-.9-.4-.8-.8-.8c-.5 0-.9.4-.9.8z"/>
  <linearGradient id="f" x1="236.4" x2="236.4" y1="584.6" y2="586.2" gradientTransform="translate(180.1 -534)" gradientUnits="userSpaceOnUse">
    <stop offset="0" stop-color="#eba868"/>
    <stop offset="1" stop-color="#dc5411"/>
  </linearGradient>
  <path fill="url(#f)" d="M417.3 51.5c0 .5-.4.9-.8.9s-.9-.4-.9-.9.4-.9.9-.9.8.4.8 1z"/>
  <linearGradient id="g" x1="236.3" x2="236.3" y1="586.9" y2="588.6" gradientTransform="translate(180.1 -534)" gradientUnits="userSpaceOnUse">
    <stop offset="0" stop-color="#d81619"/>
    <stop offset="1" stop-color="#b2030e"/>
  </linearGradient>
  <path fill="url(#g)" d="M417.2 53.8c0 .5-.3.9-.8.9s-.9-.4-.9-.9.4-.8.9-.8.8.4.8.8z"/>
  <linearGradient id="h" x1="698.1" x2="698.1" y1="590.5" y2="586.2" gradientTransform="matrix(-1 0 0 1 1123.8 -534)" gradientUnits="userSpaceOnUse">
    <stop offset="0" stop-color="#c5614c"/>
    <stop offset="1" stop-color="#620000"/>
  </linearGradient>
  <path fill="url(#h)" d="M432 51.6c-1 0-3.4.3-6 .3s-6-.3-6.6-.4c-.5 0-1-.3-1 .3s.4 3 1.3 3c4.1.4 8.3.4 12.5.1.4 0 .8-2.5.7-3 0-.5-.8-.3-.8-.3z"/>
  <linearGradient id="i" x1="698.8" x2="698.8" y1="588.7" y2="595.5" gradientTransform="matrix(-1 0 0 1 1123.8 -534)" gradientUnits="userSpaceOnUse">
    <stop offset="0" stop-color="#c5614c"/>
    <stop offset="1" stop-color="#620000"/>
  </linearGradient>
  <path fill="url(#i)" d="M438 58.8c.2-.8 0-3.4-.3-3.7s-2 0-2.3.6c-.3.7-.8 1.7-1.3 1.8s-3.7.3-8.2.3-9.5-.1-9.8-.4c-.3-.3-.8-2.9-2-3-1-.2-2 0-2 0s-.1 2 0 3.4c0 1.3 0 1.8 1.1 2.2s5.2.5 13 .5 8.8.2 10.2-.5c1.5-.8 1.5-.6 1.6-1.2z"/>
  <path fill="#3D3A39" d="M315.8 66c.4 0 1.4-.4 1.5-.4h.7l2.7-.3a7 7 0 0 1 2-.2h1.8l3-.2 5.6.2.6.1h2.9c.3 0 2.3-1 2.7-1.1l3.2-1.6c.1-.2.6-2 .6-2.7l-.1-2.6-6.8-1.4h-23.5s-1 5.9-.8 6.2c0 .4 4 4 4 4z"/>
  <path fill="#3D3A39" d="M309.7 67.8a50.2 50.2 0 0 1 13.3-1.3h8.6l9 .1 1.9.4-4 1c-.7.2-1.9.1-3.9.1h-18.4c-4.6 0-6.6 0-6.5-.3z" opacity=".8"/>
  <path fill="#3D3A39" d="M338.4 58.7h-2.8c-.4 0-.7 2.2-.7 4.8 0 2.5.3 4.4.6 4.4h2.9c.3 0 .6-2.2.6-4.8 0-2.5-.2-4.5-.6-4.4zm-22.9 0h-3.1c-.4 0-.7 2.2-.7 4.8 0 2.5.3 4.4.6 4.4h3.2c.4 0 .7-2.2.7-4.8 0-2.5-.3-4.5-.7-4.4z"/>
  <linearGradient id="j" x1="325.1" x2="323.2" y1="596.8" y2="597.3" gradientTransform="translate(15.2 -534)" gradientUnits="userSpaceOnUse">
    <stop offset="0" stop-color="#dadbda"/>
    <stop offset="1" stop-color="#b3b3b3"/>
  </linearGradient>
  <path fill="url(#j)" d="M338.9 63.1c0 2-.2 3.6-.4 3.7-.2 0-.4-1.4-.4-3.4s.2-3.5.4-3.6.4 1.4.4 3.4z"/>
  <path fill="#3D3A39" d="M342.5 58.5h-2.6c-.3 0-.6 2-.6 4.4 0 2.3.3 4 .6 4h2.6c.3 0 .5-2 .5-4.4 0-2.3-.2-4-.5-4zm-21.2 0h-2.8c-.3 0-.6 2-.6 4.4 0 2.3.3 4 .6 4h2.8c.3 0 .6-2 .6-4.4 0-2.3-.3-4-.6-4z"/>
  <linearGradient id="k" x1="328.9" x2="327.2" y1="596.1" y2="596.8" gradientTransform="translate(15.2 -534)" gradientUnits="userSpaceOnUse">
    <stop offset="0" stop-color="#dadbda"/>
    <stop offset="1" stop-color="#b3b3b3"/>
  </linearGradient>
  <path fill="url(#k)" d="M343 62.6a10 10 0 0 1-.4 3.3c-.1.1-.3-1.3-.3-3 0-1.8.2-3.3.3-3.4.2 0 .3 1.3.3 3z"/>
  <linearGradient id="l" x1="312.2" x2="312.2" y1="580.1" y2="596.1" gradientTransform="translate(15.2 -534)" gradientUnits="userSpaceOnUse">
    <stop offset="0" stop-color="#a4a4a1"/>
    <stop offset="1" stop-color="#44423f"/>
  </linearGradient>
  <path fill="url(#l)" d="M315.9 47.8c.6-.6 1.2-1 2-1.4.8-.4 1.6-.5 2.1-.5a54.2 54.2 0 0 1 14.6 0c1 .2 2 .6 3 1.8 1 1.4 2 2.9 2.6 4.5.6 1.1.7 1.8 1 2s.7.8 1 1.4c.4.6.7 1 .8 1.5.2.5.1 1.2.2 1.9l-.2 2.2v-1.6c0-1.1 0-2.4-.2-2.2-.2.2-.3 1.4-.4 2.4l-.6 3.3-.3.6-1.7.4-.8.1.1-3.1v-2.9c-.1-.3-.3-.6-.4-.3-.2.2-.5.9-.7 2.5-.2.9-.4 1.8-.8 2.6-.1.2-.8 1-1.5 1.1h-20.2c-1.7 0-2.1 0-2.7-.4-.6-.5-.9-1-1-1.5l-.3-2.6c0-.6 0-.9.2-1.3l.3-.8.1-2.1c.1-.5.3-1.6.6-2.1l1-1 1.3-3 .9-1.5z"/>
  <linearGradient id="m" x1="309.5" x2="309.5" y1="596" y2="597.9" gradientTransform="translate(15.2 -534)" gradientUnits="userSpaceOnUse">
    <stop offset="0" stop-color="#a4a4a1"/>
    <stop offset="1" stop-color="#44423f"/>
  </linearGradient>
  <path fill="url(#m)" d="m337.3 62.9-14 .1h-11.2s.2.8 1.2 1.1c1 .3 1.8.3 2.9.2l7.6-.1h9.1c4.6 0 2.6.4 3.3-.1.8-.5 1-1 1-1.2z"/>
  <linearGradient id="n" x1="309" x2="309" y1="592" y2="589.3" gradientTransform="translate(15.2 -534)" gradientUnits="userSpaceOnUse">
    <stop offset="0" stop-color="#8f8f8c"/>
    <stop offset="1" stop-color="#3e3b39"/>
  </linearGradient>
  <path fill="url(#n)" d="M331.2 56.3s-1.1 1.5-7.5 1.3c-6.3 0-6.8-1.4-6.8-1.4v-1a57.1 57.1 0 0 0 14.6-.4s0 1.2-.3 1.5z"/>
  <path fill="#3D3A39" d="m313.8 52.2.8-2c.5-1.2 1-2 1.1-2s3.4-.8 9.2-.8c5.8-.1 9.3.5 9.5.7.1.2.7 1.8.9 2.8.1 1 .2 1.2 0 1.3a116.3 116.3 0 0 1-21.5 0z"/>
  <linearGradient id="o" x1="308.5" x2="311.5" y1="582.5" y2="592.4" gradientTransform="translate(15.2 -534)" gradientUnits="userSpaceOnUse">
    <stop offset="0" stop-color="#a0b6cc"/>
    <stop offset="1" stop-color="#5e768b"/>
  </linearGradient>
  <path fill="url(#o)" d="m314 52 .8-1.8 1-2c.2 0 3.4-.6 9-.6 5.8 0 9.2.5 9.4.7.2.1.8 1.7.9 2.6.1 1 .2 1.1 0 1.2a121.3 121.3 0 0 1-21.1 0z"/>
  <linearGradient id="p" x1="307.5" x2="312" y1="581.5" y2="581.5" gradientTransform="translate(15.2 -534)" gradientUnits="userSpaceOnUse">
    <stop offset="0" stop-color="#9b1f24"/>
    <stop offset="1" stop-color="#79171c"/>
  </linearGradient>
  <path fill="url(#p)" d="M322.6 47.4h4.6s-.8.3-2.4.3c-1.5 0-2.2-.3-2.2-.3z"/>
  <path fill="#3D3A39" d="M341 54s-.5-.6-2.2-1.1-1.9-1-2-1-1.4-3.5-1.4-3.9.8-1.2 1.5-.8c.8.4 1.6 1.5 2.6 3.4.6 1 1.1 2.2 1.5 3.3z"/>
  <linearGradient id="q" x1="321.1" x2="325.8" y1="581.4" y2="587.8" gradientTransform="translate(15.2 -534)" gradientUnits="userSpaceOnUse">
    <stop offset="0" stop-color="#a0b6cc"/>
    <stop offset="1" stop-color="#5e768b"/>
  </linearGradient>
  <path fill="url(#q)" d="M337.7 49.1c.6 1.3 1.1 2.5 1.5 3.8l1.2.5c.1 0 .2-.2.1-.4l-1.2-2.4c-.9-1.7-1.6-2.8-2.3-3.2h-.3l1 1.8z"/>
  <linearGradient id="r" x1="320.3" x2="325" y1="582" y2="588.3" gradientTransform="translate(15.2 -534)" gradientUnits="userSpaceOnUse">
    <stop offset="0" stop-color="#a0b6cc"/>
    <stop offset="1" stop-color="#5e768b"/>
  </linearGradient>
  <path fill="url(#r)" d="M338 50.6c-.5-1.1-1-2.2-1.7-3.2-.4.1-.6.5-.6.8 0 .4 1.2 3.5 1.3 3.6 0 .1.2.4 1.7.9l-.7-2z"/>
  <linearGradient id="s" x1="324" x2="324.1" y1="590" y2="588.9" gradientTransform="translate(15.2 -534)" gradientUnits="userSpaceOnUse">
    <stop offset="0" stop-color="#8f8f8c"/>
    <stop offset="1" stop-color="#3e3b39"/>
  </linearGradient>
  <path fill="url(#s)" d="M339 54.6v.5c0 .3.2.6.3.6s.4-.9.2-1l-.5-.1z"/>
  <linearGradient id="t" x1="325.7" x2="325.7" y1="590" y2="588.9" gradientTransform="translate(15.2 -534)" gradientUnits="userSpaceOnUse">
    <stop offset="0" stop-color="#8f8f8c"/>
    <stop offset="1" stop-color="#3e3b39"/>
  </linearGradient>
  <path fill="url(#t)" d="m340.6 55 .2 1c.1.1.2-.1.3-.4v-.3c-.1-.1-.4-.3-.5-.2z"/>
  <linearGradient id="u" x1="322.8" x2="322.8" y1="584.2" y2="596.3" gradientTransform="translate(15.2 -534)" gradientUnits="userSpaceOnUse">
    <stop offset="0" stop-color="#a4a4a1"/>
    <stop offset="1" stop-color="#44423f"/>
  </linearGradient>
  <path fill="url(#u)" d="m336.9 61.8.7-3.7c.2-1.2.4-1.6.7-1.7s.8.8.8 1-.4 0-.5.2l-1 3.1c-.3 1.2-.5 2-.6 1.8l-.1-.7z"/>
  <linearGradient id="v" x1="327.3" x2="327.3" y1="584.2" y2="596.3" gradientTransform="translate(15.2 -534)" gradientUnits="userSpaceOnUse">
    <stop offset="0" stop-color="#a4a4a1"/>
    <stop offset="1" stop-color="#44423f"/>
  </linearGradient>
  <path fill="url(#v)" d="m342.8 57-.4 1.2-.2 1.2.2-2.7c0-.3 0-.4.2-.2s.3.4.2.5z"/>
  <linearGradient id="w" x1="325.5" x2="325.6" y1="594.8" y2="593.8" gradientTransform="translate(15.2 -534)" gradientUnits="userSpaceOnUse">
    <stop offset="0" stop-color="#a4a4a1"/>
    <stop offset="1" stop-color="#44423f"/>
  </linearGradient>
  <path fill="url(#w)" d="m339.5 59.5.6.2 1.5.4.5-.1-.1.5h-1c-.7 0-1.4 0-1.5-.2v-.8z"/>
  <linearGradient id="x" x1="325.3" x2="325.3" y1="596.3" y2="597.8" gradientTransform="translate(15.2 -534)" gradientUnits="userSpaceOnUse">
    <stop offset="0" stop-color="#a4a4a1"/>
    <stop offset="1" stop-color="#5e5d5c"/>
  </linearGradient>
  <path fill="url(#x)" d="m339 63.1 1.7-.1 1.2-.1s-.1.6-.3.8l-2.2.5c-.4.1-.4 0-.4 0v-1z"/>
  <linearGradient id="y" x1="646.1" x2="646.1" y1="598.8" y2="593.4" gradientTransform="matrix(-1 0 0 1 969.9 -534)" gradientUnits="userSpaceOnUse">
    <stop offset="0" stop-color="#a4a4a1"/>
    <stop offset="1" stop-color="#44423f"/>
  </linearGradient>
  <path fill="url(#y)" d="M328.4 62.2h-9.6c-.3 0-.7-.6-.5-1.2.3-.7.6-1.3 1.7-1.3h8c.4 0 1.3.7 1.3 1.5.1.5-.3 1-.8 1h-.1z"/>
  <linearGradient id="z" x1="299.5" x2="299.5" y1="587.6" y2="590.4" gradientTransform="translate(15.2 -534)" gradientUnits="userSpaceOnUse">
    <stop offset="0" stop-color="#9f7347"/>
    <stop offset="1" stop-color="#8d3922"/>
  </linearGradient>
  <path fill="url(#z)" d="M312.8 53.8c.1-.2.5-.4.9-.3l3.2 1.6c.2.2.3 1 0 1l-3.6-.1c-.7-.2-1-.3-1-.5s0-1.2.4-1.7z"/>
  <linearGradient id="A" x1="319" x2="319" y1="587.6" y2="590.4" gradientTransform="translate(15.2 -534)" gradientUnits="userSpaceOnUse">
    <stop offset="0" stop-color="#9f7347"/>
    <stop offset="1" stop-color="#8d3922"/>
  </linearGradient>
  <path fill="url(#A)" d="M331.4 56.2c-.2 0 0-1.2 0-1.4l3.7-1.4h1.4l.5.5s0 1.4-.4 1.7c-.6.3-1.6.5-2.7.5h-2.5z"/>
  <path fill="#3D3A39" d="M341 53.8c-.2-.3-.4-.6-.4-1 0 0 .2-.3.6-.4.4 0 2 .2 2 .5s0 .7-.3.8c-.3 0-1.8.3-2 0z"/>
  <linearGradient id="B" x1="315.4" x2="318.1" y1="559.6" y2="559.6" gradientTransform="matrix(.88 0 0 .88 64.3 -439.3)" gradientUnits="userSpaceOnUse">
    <stop offset="0" stop-color="#a0b6cc"/>
    <stop offset="1" stop-color="#5e768b"/>
  </linearGradient>
  <path fill="url(#B)" d="m341.1 53.7-.3-.8c0-.1.2-.3.5-.4s1.8.2 1.9.5 0 .6-.4.7c-.3 0-1.6.2-1.7 0z"/>
  <linearGradient id="C" x1="237.4" x2="237.4" y1="576" y2="575.5" gradientTransform="matrix(.59 .17 -.13 .82 275.8 -457.7)" gradientUnits="userSpaceOnUse">
    <stop offset="0" stop-color="#9f7347"/>
    <stop offset="1" stop-color="#8d3922"/>
  </linearGradient>
  <path fill="url(#C)" d="M341.2 54.6s0 .1-.2 0c-.1 0-.2 0-.2-.2h.3c.2 0 .2 0 .1.2z"/>
  <path fill="#3D3A39" d="M286 62.7V43.4c0-1 .8-1.8 1.8-1.8h3.6c1 0 1.8.7 1.8 1.6v18.4a2 2 0 0 1-1.8 2l-3.6.6c-1 .1-1.8-.5-1.8-1.5zm1.8-20.4c-.6 0-1 .5-1 1v19.3c0 .6.4 1 1 .8l3.6-.5c.6-.1 1-.6 1-1.2V43.2c0-.5-.4-1-1-1l-3.6.1z"/>
  <linearGradient id="D" x1="686.9" x2="677" y1="610.1" y2="584.6" gradientTransform="matrix(-1 0 0 1 969.9 -534)" gradientUnits="userSpaceOnUse">
    <stop offset="0" stop-color="#336ba0"/>
    <stop offset="1" stop-color="#5574a0"/>
  </linearGradient>
  <path fill="url(#D)" d="M289 34.4s1.4.4 1.5 1.2l.3 49.5c0 2-.8 7-1 8s-.9 1.5-.9 1.5-.2-6.4-1.6-7.6l-1.4-1.2V34l3.2.4z"/>
  <linearGradient id="E" x1="680.9" x2="682.6" y1="573.8" y2="595.7" gradientTransform="matrix(-1 0 0 1 969.9 -534)" gradientUnits="userSpaceOnUse">
    <stop offset="0" stop-color="#a0b6cc"/>
    <stop offset="1" stop-color="#5e768b"/>
  </linearGradient>
  <path fill="url(#E)" d="M287 37.2c-.4 0-.7.3-.7.9v25.6c0 .5.3 1 .7 1l2.3.2c.4 0 .6-.4.6-1V39c0-.5-.3-1-.6-1.1l-2.3-.7z"/>
  <path fill="#3D3A39" d="M316.6 113.2c-2.3-.4-47.9.2-55.5 0-7.6-.3-25.5-.8-26.7-.7-1.2.2-7.1.9-7.8 1.1s-11 1.4-12.1 1.8-2.1 0-1.1.3c1 .4 45.5 1.1 61 1.1s33.4-.3 38-.7 7-2.6 4.2-3z" opacity=".8"/>
  <path fill="#3D3A39" d="M287.3 85h-8.6c-1 .2-1.8 7-1.8 15.2 0 7.9.8 14 1.7 14h8.7c1-.3 1.8-7.1 1.8-15.2 0-8-.8-14.2-1.8-14z"/>
  <linearGradient id="F" x1="293.4" x2="287.6" y1="631.9" y2="633.7" gradientTransform="translate(-.4 -534)" gradientUnits="userSpaceOnUse">
    <stop offset="0" stop-color="#dadbda"/>
    <stop offset="1" stop-color="#b3b3b3"/>
  </linearGradient>
  <path fill="url(#F)" d="M288.7 99.2c0 6.1-.5 11.3-1.1 11.6-.7.2-1.2-4.6-1.2-10.8s.5-11.3 1.2-11.6c.6-.2 1.1 4.6 1.1 10.8z"/>
  <path fill="#3D3A39" d="M278.8 86.8H270c-1 .3-1.8 7.2-1.8 15.2 0 8 .8 14.1 1.8 14.1h8.6c1-.3 1.8-7.1 1.8-15.2 0-8-.8-14.2-1.7-14z"/>
  <linearGradient id="G" x1="284.8" x2="279" y1="633.8" y2="635.6" gradientTransform="translate(-.4 -534)" gradientUnits="userSpaceOnUse">
    <stop offset="0" stop-color="#dadbda"/>
    <stop offset="1" stop-color="#b3b3b3"/>
  </linearGradient>
  <path fill="url(#G)" d="M280.2 101c0 6.2-.5 11.4-1.2 11.6-.6.3-1.2-4.5-1.2-10.7s.6-11.3 1.2-11.6c.7-.2 1.2 4.6 1.2 10.7z"/>
  <linearGradient id="H" x1="694.8" x2="704.2" y1="637.9" y2="637.9" gradientTransform="matrix(-1 0 0 1 969.9 -534)" gradientUnits="userSpaceOnUse">
    <stop offset="0" stop-color="#656361"/>
    <stop offset="1" stop-color="#3d3a39"/>
  </linearGradient>
  <path fill="url(#H)" d="m275.1 100.2-.3 7.6-9.1-.1.4-7.7 9 .2z"/>
  <path fill="#3D3A39" d="M236.7 85H225c-1.4.2-2.5 7-2.5 15.2 0 7.9 1.1 14 2.4 14h11.7c1.4-.3 2.5-7.1 2.5-15.2 0-8-1-14.2-2.4-14z"/>
  <path fill="#3D3A39" d="M226.1 86.8h-11.7c-1.3.3-2.4 7.2-2.4 15.2 0 8 1 14.1 2.3 14.1H226c1.4-.3 2.5-7.1 2.5-15.2 0-8-1-14.2-2.4-14z"/>
  <linearGradient id="I" x1="750.9" x2="760.3" y1="637.9" y2="637.9" gradientTransform="matrix(-1 0 0 1 969.9 -534)" gradientUnits="userSpaceOnUse">
    <stop offset="0" stop-color="#656361"/>
    <stop offset="1" stop-color="#3d3a39"/>
  </linearGradient>
  <path fill="url(#I)" d="m219 100.2-.3 7.6-9-.1.3-7.7 9 .2z"/>
  <linearGradient id="J" x1="722.5" x2="722.5" y1="615.5" y2="634.1" gradientTransform="matrix(-1 0 0 1 969.9 -534)" gradientUnits="userSpaceOnUse">
    <stop offset="0" stop-color="#656361"/>
    <stop offset="1" stop-color="#3d3a39"/>
  </linearGradient>
  <path fill="url(#J)" d="m286.5 81.8-.1 3.1c-2 .2-2.2 3.8-2.6 6.8s-.4 8.3-.7 9-1.3.9-1.3.9.6-14.4-2.7-14.7c-.6 0-2.5 0-3 .8-2 3.7-2.6 13.8-2.6 13.8h-63.6l-.1-12.3-1.5-1.3v-5.4l78.2-.7z"/>
  <linearGradient id="K" x1="698.8" x2="751.4" y1="524.4" y2="618.6" gradientTransform="matrix(-1 0 0 1 969.9 -534)" gradientUnits="userSpaceOnUse">
    <stop offset="0" stop-color="#cececa"/>
    <stop offset="1" stop-color="#a4a29c"/>
  </linearGradient>
  <path fill="url(#K)" d="m278.4 0-71.5.2-.4 83.3h71.3l.6-83.5z"/>
  <linearGradient id="L" x1="733.8" x2="733.5" y1="512.8" y2="516" gradientTransform="matrix(-1 0 0 1 969.9 -534)" gradientUnits="userSpaceOnUse">
    <stop offset="0" stop-color="#adadaa"/>
    <stop offset="1" stop-color="#7a7975"/>
  </linearGradient>
  <path fill="url(#L)" d="m207.6 83.4.5-79.9V3l69.2-.1-.6 80.6h-69zm1.7-79.2-.4 78h66.6L276 4l-66.7.2z"/>
  <linearGradient id="M" x1="733.9" x2="733.6" y1="512.8" y2="516" gradientTransform="matrix(-1 0 0 1 969.9 -534)" gradientUnits="userSpaceOnUse">
    <stop offset="0" stop-color="#adadaa"/>
    <stop offset="1" stop-color="#7a7975"/>
  </linearGradient>
  <path fill="url(#M)" d="m242.8 82.8.5-79.3H242l-.5 79.3h1.3z"/>
  <linearGradient id="N" x1="680.8" x2="692.1" y1="575.8" y2="575.8" gradientTransform="matrix(-1 0 0 1 969.9 -534)" gradientUnits="userSpaceOnUse">
    <stop offset="0" stop-color="#cececa"/>
    <stop offset="1" stop-color="#a4a29c"/>
  </linearGradient>
  <path fill="url(#N)" d="m278.4 0 10.5 12.4.2 69.7-11.3 1.4.6-83.5z"/>
  <linearGradient id="O" x1="727.1" x2="727.1" y1="625.4" y2="651.1" gradientTransform="matrix(-1 0 0 1 969.9 -534)" gradientUnits="userSpaceOnUse">
    <stop offset="0" stop-color="#cececa"/>
    <stop offset="1" stop-color="#a4a29c"/>
  </linearGradient>
  <path fill="url(#O)" d="M209.4 90.1h66.7V103h-66.7V90z"/>
  <linearGradient id="P" x1="727.1" x2="727.1" y1="623.1" y2="635.5" gradientTransform="matrix(-1 0 0 1 969.9 -534)" gradientUnits="userSpaceOnUse">
    <stop offset="0" stop-color="#cececa"/>
    <stop offset="1" stop-color="#a4a29c"/>
  </linearGradient>
  <path fill="url(#P)" d="M209.4 100.2h66.7v2.8h-66.7v-2.8z"/>
  <linearGradient id="Q" x1="727.3" x2="727.3" y1="630.5" y2="624.2" gradientTransform="matrix(-1 0 0 1 969.9 -534)" gradientUnits="userSpaceOnUse">
    <stop offset="0" stop-color="#cececa"/>
    <stop offset="1" stop-color="#a4a29c"/>
  </linearGradient>
  <path fill="url(#Q)" d="M258 90.1v3.3c0 .4-.2.7-.6.7h-29.7a.7.7 0 0 1-.7-.7V90h31z"/>
  <linearGradient id="R" x1="694.9" x2="707.2" y1="629.6" y2="629.6" gradientTransform="matrix(-1 0 0 1 969.9 -534)" gradientUnits="userSpaceOnUse">
    <stop offset="0" stop-color="#d81619"/>
    <stop offset="1" stop-color="#b2030e"/>
  </linearGradient>
  <path fill="url(#R)" d="M262.7 96.7c0 .4.3.7.7.7h11c.3 0 .6-.3.6-.7v-2.1c0-.4-.3-.7-.7-.7h-11c-.3 0-.6.3-.6.7v2.1z"/>
  <linearGradient id="S" x1="747.3" x2="759.6" y1="629.6" y2="629.6" gradientTransform="matrix(-1 0 0 1 969.9 -534)" gradientUnits="userSpaceOnUse">
    <stop offset="0" stop-color="#d81619"/>
    <stop offset="1" stop-color="#b2030e"/>
  </linearGradient>
  <path fill="url(#S)" d="M210.3 96.7c0 .4.3.7.7.7h11c.3 0 .6-.3.6-.7v-2.1c0-.4-.3-.7-.7-.7h-11c-.3 0-.6.3-.6.7v2.1z"/>
  <path fill="#3D3A39" d="M291.3 52.5c0 .4.3.6.6.6l2.7-.2c.4 0 .7-.4.7-.8V45c0-.3-.3-.6-.6-.7h-.1l-2.7.3c-.3 0-.6.3-.6.7v7.2z"/>
  <linearGradient id="T" x1="675.4" x2="679.9" y1="577.6" y2="596.6" gradientTransform="matrix(-1 0 0 1 969.9 -534)" gradientUnits="userSpaceOnUse">
    <stop offset="0" stop-color="#a0b6cc"/>
    <stop offset="1" stop-color="#5e768b"/>
  </linearGradient>
  <path fill="url(#T)" d="M291.6 52.1c0 .4.3.7.7.7l2-.2c.3 0 .6-.4.7-.8v-6.5c0-.3-.3-.6-.7-.6l-2 .2c-.4 0-.7.3-.7.7v6.5z"/>
  <path fill="#3D3A39" d="M291.1 57.6c0 1.5 1.2 2.7 2.6 2.7s2.5-1.2 2.5-2.7-1.1-2.7-2.5-2.7-2.6 1.2-2.6 2.7z"/>
  <linearGradient id="U" x1="672.6" x2="680.4" y1="588.6" y2="595.1" gradientTransform="matrix(-1 0 0 1 969.9 -534)" gradientUnits="userSpaceOnUse">
    <stop offset="0" stop-color="#a0b6cc"/>
    <stop offset="1" stop-color="#5e768b"/>
  </linearGradient>
  <path fill="url(#U)" d="M291.5 57.6c0 1.3 1 2.3 2.2 2.3 1.1 0 2-1 2-2.3s-.9-2.4-2-2.4c-1.2 0-2.2 1-2.2 2.4z"/>
  <linearGradient id="V" x1="751.8" x2="751" y1="607.3" y2="614.9" gradientTransform="matrix(-1 0 0 1 969.9 -534)" gradientUnits="userSpaceOnUse">
    <stop offset="0" stop-color="#afa53a"/>
    <stop offset="1" stop-color="#7b6a3d"/>
  </linearGradient>
  <path fill="url(#V)" d="M210.6 74h15.8v6.2h-15.8V74z"/>
  <linearGradient id="W" x1="704.5" x2="703.8" y1="607.3" y2="614.9" gradientTransform="matrix(-1 0 0 1 969.9 -534)" gradientUnits="userSpaceOnUse">
    <stop offset="0" stop-color="#afa53a"/>
    <stop offset="1" stop-color="#7b6a3d"/>
  </linearGradient>
  <path fill="url(#W)" d="M257.8 74h15.8v6.2h-15.8V74z"/>
  <path fill="#3D3A39" d="M588.8 121.7c-1.1 0-4.3-1.2-4.7-1.4s-1.3-.2-2-.1c-.9 0-7.5-.4-8.7-.8-1.3-.4-5.4-.8-6.3-.6-1 .3-4.3.1-5.8 0-1.6 0-7.6-.5-9.5-.6-2-.2-17.4.4-18 .5-.5 0-.7.4-1.9.5-1.2.2-8-.1-9-.1s-7.6-3.1-8.6-3.4-10-4.7-10.4-5.2-1.7-6.5-1.8-8.6.2-7.6.4-8c.2-.5 21.6-4.5 21.6-4.5h74.8s3 18.5 2.6 19.8c-.4 1.2-12.7 12.5-12.7 12.5z"/>
  <path fill="#3D3A39" d="M608.3 128.2c-.6-1.4-20-4.6-21.7-4.8a608 608 0 0 0-20.6-.7c-2.7 0-23.8-.3-27.4-.2l-28.4.6a28 28 0 0 0-6.2 1.6c.4 0 11 3.6 13 4.2 2 .5 5.7.7 12 .8 6.3 0 44 .3 58.6 0 14.8-.1 21.2-.4 20.7-1.5z" opacity=".8"/>
  <path fill="#3D3A39" d="M517 99.5h9c1.1.3 2 7.1 2 15.3 0 7.9-.8 14-1.9 14H517c-1-.3-2-7-2-15.2 0-8 .9-14.3 2-14.1zm72.8 0h10c1.2.3 2.1 7.1 2.1 15.3 0 7.9-.9 14.1-2 14h-10c-1.2-.3-2.1-7-2.1-15.2 0-8 .9-14.3 2-14.1z"/>
  <linearGradient id="X" x1="458.7" x2="452.9" y1="646.4" y2="648.3" gradientTransform="matrix(-1 0 0 1 969.9 -534)" gradientUnits="userSpaceOnUse">
    <stop offset="0" stop-color="#dadbda"/>
    <stop offset="1" stop-color="#b3b3b3"/>
  </linearGradient>
  <path fill="url(#X)" d="M515.4 113.7c0 6.2.6 11.4 1.3 11.6.7.3 1.2-4.5 1.2-10.7 0-6.2-.5-11.4-1.2-11.6-.7-.3-1.3 4.5-1.3 10.7z"/>
  <path fill="#3D3A39" d="M504 97.8h8.3c1 .3 1.8 6.6 1.8 14 0 7.3-.8 13-1.7 13H504c-1-.4-1.8-6.6-1.8-14s.8-13 1.8-13zm67.3 0h8.9c1 .3 1.9 6.6 1.9 14 0 7.3-.8 13-1.8 13h-9c-1-.4-1.8-6.6-1.8-14s.8-13 1.8-13z"/>
  <linearGradient id="Y" x1="470.8" x2="465.5" y1="643.3" y2="645.6" gradientTransform="matrix(-1 0 0 1 969.9 -534)" gradientUnits="userSpaceOnUse">
    <stop offset="0" stop-color="#dadbda"/>
    <stop offset="1" stop-color="#b3b3b3"/>
  </linearGradient>
  <path fill="url(#Y)" d="M502.6 110.9c0 5.6.4 10.4 1 10.6.5.2 1-4.2 1-9.8 0-5.7-.5-10.4-1-10.7-.6-.2-1 4.2-1 9.9z"/>
  <linearGradient id="Z" x1="417.6" x2="417.6" y1="592.5" y2="643.4" gradientTransform="matrix(-1 0 0 1 969.9 -534)" gradientUnits="userSpaceOnUse">
    <stop offset="0" stop-color="#f7f6f1"/>
    <stop offset="1" stop-color="#bdbbb3"/>
  </linearGradient>
  <path fill="url(#Z)" d="M588.6 63.9c-1-1.5-3.7-3.1-6.3-4.5s-5.1-1.6-6.9-1.7a184.5 184.5 0 0 0-46.4.1c-3 .7-6.3 2-9.5 5.8a76.2 76.2 0 0 0-8.3 14.2c-1.8 3.6-2.2 5.6-3.2 6.6a20.6 20.6 0 0 0-3.2 4.2c-1 1.9-2 3.4-2.5 4.8-.5 1.5-.4 3.9-.4 6s.4 7.1.4 7.1l.1-1.4v-3.9c-.2-3.4 0-7.6.5-7 .7.7 1.1 4.5 1.4 7.7.3 3.3 1.5 9.8 1.8 10.5s.7 1.7 1.2 2a33.8 33.8 0 0 0 7.8 1.7l-.4-10c-.1-3.2-.1-8.1.2-9.2.3-1 .8-1.7 1.3-1 .5.6 1.4 3 2.3 8 .9 5 2 7.7 2.4 8.4s2.7 3.2 4.7 3.4c2 .1 19.2-.3 32.5 0l31.6.1c5.6.1 7 0 8.9-1.4a7.9 7.9 0 0 0 3-4.6c.5-1.7.9-6.5 1-8.4a10 10 0 0 0-.5-4c-.4-1.3-1.2-2.7-1.2-2.7s0-5.1-.2-6.8-.8-5-2-6.6c-1.2-1.6-2.3-2.5-3-3.3s-2.8-6.1-4.3-9.3c-1.5-3.1-2.2-4-2.8-4.8z"/>
  <linearGradient id="aa" x1="409.2" x2="409.2" y1="643.1" y2="649.1" gradientTransform="matrix(-1 0 0 1 969.9 -534)" gradientUnits="userSpaceOnUse">
    <stop offset="0" stop-color="#f7f6f1"/>
    <stop offset="1" stop-color="#bdbbb3"/>
  </linearGradient>
  <path fill="url(#aa)" d="M520.6 111.8s19.7.5 44.2.4h36s-.9 2.5-3.9 3.5-5.7 1-9.2.7a736.9 736.9 0 0 0-53.2-.2c-3.2.2-8.3 1-10.6-.6s-3-3.1-3.3-3.8z"/>
  <linearGradient id="ab" x1="442.3" x2="442.3" y1="631.9" y2="642.1" gradientTransform="matrix(-1 0 0 1 969.9 -534)" gradientUnits="userSpaceOnUse">
    <stop offset="0" stop-color="#cececa"/>
    <stop offset="1" stop-color="#a4a29c"/>
  </linearGradient>
  <path fill="url(#ab)" d="M530.6 102c-1-.3-4.9-.3-6-.1-1 0-1.4 2.8.2 3l5.7-.1c1.1-.1 1.6-2.4.1-2.8z"/>
  <linearGradient id="ac" x1="372.6" x2="372.6" y1="631.9" y2="642.1" gradientTransform="matrix(-1 0 0 1 969.9 -534)" gradientUnits="userSpaceOnUse">
    <stop offset="0" stop-color="#cececa"/>
    <stop offset="1" stop-color="#a4a29c"/>
  </linearGradient>
  <path fill="url(#ac)" d="M599.6 102c-1-.2-4.5-.1-5.1.1s-1.2 2.7.3 2.9c1.5.3 3.8.4 5 .3 1.2-.2 1.6-3.1-.2-3.4z"/>
  <linearGradient id="ad" x1="407.6" x2="407.6" y1="633.7" y2="622.1" gradientTransform="matrix(-1 0 0 1 969.9 -534)" gradientUnits="userSpaceOnUse">
    <stop offset="0" stop-color="#cececa"/>
    <stop offset="1" stop-color="#a4a29c"/>
  </linearGradient>
  <path fill="url(#ad)" d="M539.8 92.3s3.7 6.2 23.9 5.7 21.6-5.9 21.6-5.9l.2-4.5s-6.4 1.1-22 1.1-24.5-2.4-24.5-2.4 0 4.9.8 6z"/>
  <path fill="#3D3A39" d="M595.3 77.7s-.9-2.6-2.5-6.4c-1.7-3.7-3-6.1-3.6-6.4-.6-.4-10.6-2.3-29-2.5-18.5-.2-29.7 1.7-30.3 2.3-.6.7-2.4 5.8-3 9s-.6 4-.2 4 18.8 2 36.3 2c17.5 0 32.3-1.5 32.3-2z"/>
  <linearGradient id="ae" x1="406" x2="415.5" y1="600" y2="631.5" gradientTransform="matrix(-1 0 0 1 969.9 -534)" gradientUnits="userSpaceOnUse">
    <stop offset="0" stop-color="#a0b6cc"/>
    <stop offset="1" stop-color="#5e768b"/>
  </linearGradient>
  <path fill="url(#ae)" d="m594.7 77.4-2.5-6c-1.6-3.6-3-5.7-3.5-6-.6-.3-10.5-2.1-28.6-2.3-18.1-.2-29.1 1.6-29.7 2.2s-2.3 5.4-2.8 8.4-.7 3.6-.3 3.8c.4 0 18.4 1.8 35.7 1.8s31.7-1.5 31.7-1.9z"/>
  <linearGradient id="af" x1="402.7" x2="417.1" y1="597" y2="597" gradientTransform="matrix(-1 0 0 1 969.9 -534)" gradientUnits="userSpaceOnUse">
    <stop offset="0" stop-color="#d81619"/>
    <stop offset="1" stop-color="#b2030e"/>
  </linearGradient>
  <path fill="url(#af)" d="M567.1 62.6s-3.2-.2-7-.2h-7.3s2.4 1.2 7.3 1.2 7-1 7-1z"/>
  <path fill="#3D3A39" d="M508.7 83.3s1.5-1.5 7-3.3 6-2.8 6.2-3.2c.2-.4 4.6-11 4.6-12.3 0-1.4-2.3-3.9-4.8-2.7-2.5 1.3-5 5-8.1 10.8a75.7 75.7 0 0 0-5 10.7z"/>
  <linearGradient id="ag" x1="446.1" x2="461" y1="596.7" y2="616.8" gradientTransform="matrix(-1 0 0 1 969.9 -534)" gradientUnits="userSpaceOnUse">
    <stop offset="0" stop-color="#a0b6cc"/>
    <stop offset="1" stop-color="#5e768b"/>
  </linearGradient>
  <path fill="url(#ag)" d="M519.2 68.1a89.7 89.7 0 0 0-4.8 12c-2 .7-3.1 1.3-3.9 1.6-.2.1-.4-.8-.2-1.2l3.7-7.9c2.9-5.4 5.1-8.8 7.4-10 .3-.2.7-.3 1-.3l-3.2 5.8z"/>
  <linearGradient id="ah" x1="443.6" x2="458.5" y1="598.5" y2="618.6" gradientTransform="matrix(-1 0 0 1 969.9 -534)" gradientUnits="userSpaceOnUse">
    <stop offset="0" stop-color="#a0b6cc"/>
    <stop offset="1" stop-color="#5e768b"/>
  </linearGradient>
  <path fill="url(#ah)" d="M518.4 72.8c1.5-3.6 3.2-7 5.2-10.3 1.3.4 2.1 1.7 2.1 2.6 0 1.2-4 11-4.2 11.4s-.7 1.3-5.4 3l2.3-6.7z"/>
  <linearGradient id="ai" x1="455.4" x2="455.6" y1="623.7" y2="620.2" gradientTransform="matrix(-1 0 0 1 969.9 -534)" gradientUnits="userSpaceOnUse">
    <stop offset="0" stop-color="#cececa"/>
    <stop offset="1" stop-color="#a4a29c"/>
  </linearGradient>
  <path fill="url(#ai)" d="m515.2 85.5-.2 1.7c-.2.6-.4 2-.8 1.7s-1.2-2.8-.6-3c.6-.4 1.7-.9 1.6-.4z"/>
  <linearGradient id="aj" x1="460.6" x2="460.8" y1="624" y2="620.5" gradientTransform="matrix(-1 0 0 1 969.9 -534)" gradientUnits="userSpaceOnUse">
    <stop offset="0" stop-color="#cececa"/>
    <stop offset="1" stop-color="#a4a29c"/>
  </linearGradient>
  <path fill="url(#aj)" d="M509.9 87c0 .4-.3 2.8-.6 3s-.6-.5-.8-1.3c-.1-.7-.2-.9 0-1.1.3-.3 1.3-1 1.4-.6z"/>
  <linearGradient id="ak" x1="448.7" x2="453" y1="631.5" y2="638.5" gradientTransform="matrix(-1 0 0 1 969.9 -534)" gradientUnits="userSpaceOnUse">
    <stop offset="0" stop-color="#f7f6f1"/>
    <stop offset="1" stop-color="#bdbbb3"/>
  </linearGradient>
  <path fill="url(#ak)" d="M522 108.2c-.1-1.2-1.3-7.9-2.3-11.6-1-3.7-1.6-5.2-2.3-5.4-.8-.2-2.5 2.6-2.5 3s1 0 1.5.7 2 6.3 3 10c1.1 3.7 1.8 6.2 2.1 5.7.3-.4.5-1 .4-2.4z"/>
  <linearGradient id="al" x1="465.3" x2="466.6" y1="626.4" y2="637.2" gradientTransform="matrix(-1 0 0 1 969.9 -534)" gradientUnits="userSpaceOnUse">
    <stop offset="0" stop-color="#f7f6f1"/>
    <stop offset="1" stop-color="#bdbbb3"/>
  </linearGradient>
  <path fill="url(#al)" d="m503 93.3 1.2 3.7c.4 1.5.8 4.6.9 3.8l-.7-8.6c-.2-1.2-.3-1.4-.8-.7s-.7 1.4-.5 1.8z"/>
  <linearGradient id="am" x1="460.2" x2="460.4" y1="639.2" y2="636" gradientTransform="matrix(-1 0 0 1 969.9 -534)" gradientUnits="userSpaceOnUse">
    <stop offset="0" stop-color="#f7f6f1"/>
    <stop offset="1" stop-color="#bdbbb3"/>
  </linearGradient>
  <path fill="url(#am)" d="M513.6 101.2c0-.3-1 .6-1.8.6-.9 0-4.3 1-5 1.1s-1.3-.4-1.4-.3c-.1.1.1 1.5.3 1.8.1.2.7 0 3.2-.2s4.4 0 4.5-.4c0-.5.3-2 .2-2.6z"/>
  <linearGradient id="an" x1="459.4" x2="459.4" y1="643.9" y2="648.6" gradientTransform="matrix(-1 0 0 1 969.9 -534)" gradientUnits="userSpaceOnUse">
    <stop offset="0" stop-color="#f7f6f1"/>
    <stop offset="1" stop-color="#d5d4d0"/>
  </linearGradient>
  <path fill="url(#an)" d="m515 112.5-5.2-.4c-2.5-.1-3.9-.4-3.9-.4s.5 2 1 2.6c.7.4 5.7 1.6 6.9 1.8 1.3.3 1.3 0 1.3 0l-.1-3.5z"/>
  <linearGradient id="ao" x1="406.5" x2="406.5" y1="645.6" y2="636" gradientTransform="matrix(-1 0 0 1 969.9 -534)" gradientUnits="userSpaceOnUse">
    <stop offset="0" stop-color="#f7f6f1"/>
    <stop offset="1" stop-color="#bdbbb3"/>
  </linearGradient>
  <path fill="url(#ao)" d="M578 101.6h-15.2c-5.4 0-14.2-.2-15.2 0s-2.3 2-1.6 4c.8 2 2 4 5.3 4s4.3.3 12 .3 12 0 13.5-.4 4.1-2 4.2-4.6c.1-2.6-2-3.3-3-3.3z"/>
  <linearGradient id="ap" x1="377.4" x2="377.4" y1="614.7" y2="627.3" gradientTransform="matrix(-1 0 0 1 969.9 -534)" gradientUnits="userSpaceOnUse">
    <stop offset="0" stop-color="#eba868"/>
    <stop offset="1" stop-color="#dc5411"/>
  </linearGradient>
  <path fill="url(#ap)" d="M598.6 81.6c-.6-.8-1.7-1.7-3-1.1-1.3.5-9.6 6.1-10.1 7-.5 1-.9 4.4-.2 4.6.7.2 9.2 0 11.5-.7s3.2-1.2 3.3-2.3c0-1.1 0-5.3-1.5-7.5z"/>
  <linearGradient id="aq" x1="439.4" x2="439.4" y1="614.7" y2="627.3" gradientTransform="matrix(-1 0 0 1 969.9 -534)" gradientUnits="userSpaceOnUse">
    <stop offset="0" stop-color="#eba868"/>
    <stop offset="1" stop-color="#dc5411"/>
  </linearGradient>
  <path fill="url(#aq)" d="M539.5 92.3c.6-.1 0-5.3-.5-6s-9.7-5.6-11.4-6.3c-1.4-.5-3-.5-4.5.1-.9.4-1.7 1.4-1.7 1.8-.1.4-.2 6.4 1.5 7.8 1.7 1.5 5 2.1 8.5 2.2 3.3 0 7.5.5 8 .4z"/>
  <path fill="#3D3A39" d="M509 82.9c.5-.9.9-1.9 1-3 0-.4-.5-1.2-1.8-1.3s-6.4.6-6.7 1.5c-.3 1 .1 2.3 1.2 2.6s5.9.8 6.3.2z"/>
  <linearGradient id="ar" x1="468.5" x2="477.1" y1="591.1" y2="591.1" gradientTransform="matrix(-.88 0 0 .88 920.7 -439.3)" gradientUnits="userSpaceOnUse">
    <stop offset="0" stop-color="#a0b6cc"/>
    <stop offset="1" stop-color="#5e768b"/>
  </linearGradient>
  <path fill="url(#ar)" d="M508.4 82.7c.4-.5 1-2.2 1-2.6s-.6-1.1-1.7-1.2c-1.1-.1-5.6.5-5.8 1.3-.3.8 0 2 1 2.3 1 .2 5.2.6 5.5.2z"/>
  <linearGradient id="as" x1="464.7" x2="464.7" y1="566.4" y2="565" gradientTransform="matrix(-.59 .17 .13 .82 709.3 -457.7)" gradientUnits="userSpaceOnUse">
    <stop offset="0" stop-color="#eba868"/>
    <stop offset="1" stop-color="#dc5411"/>
  </linearGradient>
  <path fill="url(#as)" d="M508 85.3c0 .4.4.5.7.4.4-.1.7-.4.6-.8 0-.3-.4-.5-.7-.3-.4 0-.7.4-.6.7z"/>
</svg>
