<svg xmlns="http://www.w3.org/2000/svg" viewBox="0 0 565 950">
<g opacity=".5">
  <g>
    <path d="M527.98 2.95A34.1 34.1 0 0 1 562.05 37v876a34.1 34.1 0 0 1-34.07 34.05H37.02A34.1 34.1 0 0 1 2.95 913V37A34.1 34.1 0 0 1 37.02 2.95h490.97m-.01-1H37.02A35.06 35.06 0 0 0 1.95 37v876a35.06 35.06 0 0 0 35.07 35.05h490.97A35.06 35.06 0 0 0 563.06 913V37a35.06 35.06 0 0 0-35.07-35.05Z"/>
  </g>
  <g opacity=".95">
    <path d="M527.98 3.78A33.27 33.27 0 0 1 561.22 37v876a33.27 33.27 0 0 1-33.24 33.23H37.02A33.27 33.27 0 0 1 3.78 913V37A33.27 33.27 0 0 1 37.02 3.78h490.97m-.01-1H37.02A34.27 34.27 0 0 0 2.78 37v876a34.28 34.28 0 0 0 34.24 34.23h490.97A34.27 34.27 0 0 0 562.23 913V37a34.27 34.27 0 0 0-34.24-34.22Z"/>
  </g>
  <g opacity=".9">
    <path d="M527.98 4.61A32.44 32.44 0 0 1 560.39 37v876a32.44 32.44 0 0 1-32.41 32.39H37.02A32.44 32.44 0 0 1 4.61 913V37A32.44 32.44 0 0 1 37.02 4.61h490.97m-.01-1H37.02A33.44 33.44 0 0 0 3.61 37v876a33.44 33.44 0 0 0 33.41 33.39h490.97A33.44 33.44 0 0 0 561.4 913V37a33.44 33.44 0 0 0-33.41-33.39Z"/>
  </g>
  <g opacity=".85">
    <path d="M527.98 5.44A31.6 31.6 0 0 1 559.56 37v876a31.6 31.6 0 0 1-31.58 31.56H37.02A31.6 31.6 0 0 1 5.44 913V37A31.6 31.6 0 0 1 37.02 5.44h490.97m-.01-1H37.02A32.6 32.6 0 0 0 4.44 37v876a32.6 32.6 0 0 0 32.58 32.56h490.97A32.61 32.61 0 0 0 560.57 913V37a32.6 32.6 0 0 0-32.58-32.56Z"/>
  </g>
  <g opacity=".8">
    <path d="M527.98 6.27A30.78 30.78 0 0 1 558.73 37v876a30.77 30.77 0 0 1-30.75 30.73H37.02A30.78 30.78 0 0 1 6.27 913V37A30.77 30.77 0 0 1 37.02 6.27h490.97m-.01-1H37.02A31.78 31.78 0 0 0 5.27 37v876a31.77 31.77 0 0 0 31.75 31.73h490.97A31.78 31.78 0 0 0 559.74 913V37a31.77 31.77 0 0 0-31.75-31.73Z"/>
  </g>
  <g opacity=".75">
    <path d="M527.98 7.1A29.94 29.94 0 0 1 557.9 37v876a29.94 29.94 0 0 1-29.92 29.9H37.02A29.95 29.95 0 0 1 7.1 913V37A29.94 29.94 0 0 1 37.02 7.1h490.97m-.01-1H37.02A30.94 30.94 0 0 0 6.1 37v876a30.94 30.94 0 0 0 30.92 30.9h490.97a30.94 30.94 0 0 0 30.92-30.9V37a30.94 30.94 0 0 0-30.92-30.9Z"/>
  </g>
  <g opacity=".7">
    <path d="M527.98 7.93A29.11 29.11 0 0 1 557.07 37v876a29.11 29.11 0 0 1-29.09 29.07H37.02A29.11 29.11 0 0 1 7.93 913V37A29.11 29.11 0 0 1 37.02 7.93h490.97m-.01-1H37.02A30.12 30.12 0 0 0 6.93 37v876a30.12 30.12 0 0 0 30.09 30.07h490.97A30.12 30.12 0 0 0 558.08 913V37a30.12 30.12 0 0 0-30.09-30.07Z"/>
  </g>
  <g opacity=".65">
    <path d="M527.98 8.76A28.28 28.28 0 0 1 556.24 37v876a28.28 28.28 0 0 1-28.26 28.24H37.02A28.28 28.28 0 0 1 8.76 913V37A28.28 28.28 0 0 1 37.02 8.76h490.97m-.01-1H37.02A29.29 29.29 0 0 0 7.76 37v876a29.27 29.27 0 0 0 29.26 29.24h490.97A29.29 29.29 0 0 0 557.25 913V37a29.28 29.28 0 0 0-29.26-29.24Z"/>
  </g>
  <g opacity=".6">
    <path d="M527.98 9.59A27.45 27.45 0 0 1 555.4 37v876a27.44 27.44 0 0 1-27.42 27.41H37.02A27.45 27.45 0 0 1 9.6 913V37A27.44 27.44 0 0 1 37.02 9.59h490.97m-.01-1H37.02A28.45 28.45 0 0 0 8.6 37v876a28.44 28.44 0 0 0 28.42 28.41h490.97A28.45 28.45 0 0 0 556.41 913V37a28.44 28.44 0 0 0-28.42-28.41Z"/>
  </g>
  <g opacity=".55">
    <path d="M527.98 10.42A26.62 26.62 0 0 1 554.57 37v876a26.61 26.61 0 0 1-26.59 26.58H37.02A26.62 26.62 0 0 1 10.43 913V37a26.61 26.61 0 0 1 26.59-26.58h490.97m-.01-1H37.02A27.61 27.61 0 0 0 9.43 37v876a27.62 27.62 0 0 0 27.59 27.58h490.97A27.61 27.61 0 0 0 555.58 913V37a27.62 27.62 0 0 0-27.59-27.58Z"/>
  </g>
  <g opacity=".5">
    <path d="M527.98 11.25A25.78 25.78 0 0 1 553.74 37v876a25.79 25.79 0 0 1-25.76 25.75H37.02A25.78 25.78 0 0 1 11.26 913V37a25.79 25.79 0 0 1 25.76-25.75h490.97m-.01-1H37.02c-14.76 0-26.76 12-26.76 26.75v876a26.79 26.79 0 0 0 26.76 26.75h490.97c14.76 0 26.76-12 26.76-26.75V37a26.79 26.79 0 0 0-26.76-26.75Z"/>
  </g>
  <g opacity=".45">
    <path d="M527.98 12.08A24.95 24.95 0 0 1 552.91 37v876a24.95 24.95 0 0 1-24.93 24.92H37.02A24.95 24.95 0 0 1 12.09 913V37a24.96 24.96 0 0 1 24.93-24.92h490.97m-.01-1H37.02A25.95 25.95 0 0 0 11.09 37v876a25.95 25.95 0 0 0 25.93 25.92h490.97A25.95 25.95 0 0 0 553.92 913V37a25.95 25.95 0 0 0-25.93-25.92Z"/>
  </g>
  <g opacity=".4">
    <path d="M527.98 12.91A24.12 24.12 0 0 1 552.08 37v876a24.12 24.12 0 0 1-24.1 24.09H37.02A24.12 24.12 0 0 1 12.92 913V37a24.12 24.12 0 0 1 24.1-24.09h490.97m-.01-1H37.02A25.13 25.13 0 0 0 11.92 37v876a25.12 25.12 0 0 0 25.1 25.09h490.97a25.13 25.13 0 0 0 25.1-25.09V37a25.12 25.12 0 0 0-25.1-25.09Z"/>
  </g>
  <g opacity=".35">
    <path d="M527.98 13.74A23.3 23.3 0 0 1 551.25 37v876a23.29 23.29 0 0 1-23.27 23.26H37.02A23.3 23.3 0 0 1 13.75 913V37a23.29 23.29 0 0 1 23.27-23.26h490.97m-.01-1H37.02A24.3 24.3 0 0 0 12.75 37v876a24.3 24.3 0 0 0 24.27 24.26h490.97A24.3 24.3 0 0 0 552.26 913V37a24.3 24.3 0 0 0-24.27-24.26Z"/>
  </g>
  <g opacity=".3">
    <path d="M527.98 14.57A22.46 22.46 0 0 1 550.42 37v876a22.46 22.46 0 0 1-22.44 22.43H37.02A22.46 22.46 0 0 1 14.58 913V37a22.46 22.46 0 0 1 22.44-22.43h490.97m-.01-1H37.02A23.46 23.46 0 0 0 13.58 37v876a23.46 23.46 0 0 0 23.44 23.43h490.97A23.46 23.46 0 0 0 551.43 913V37a23.46 23.46 0 0 0-23.44-23.43Z"/>
  </g>
  <g opacity=".25">
    <path d="M527.98 15.4A21.63 21.63 0 0 1 549.59 37v876c0 11.91-9.69 21.6-21.61 21.6H37.02A21.63 21.63 0 0 1 15.41 913V37c0-11.91 9.69-21.6 21.61-21.6h490.97m-.01-1H37.02A22.63 22.63 0 0 0 14.41 37v876a22.63 22.63 0 0 0 22.61 22.6h490.97A22.63 22.63 0 0 0 550.6 913V37a22.63 22.63 0 0 0-22.61-22.6Z"/>
  </g>
  <g opacity=".2">
    <path d="M527.98 16.23A20.8 20.8 0 0 1 548.76 37v876a20.8 20.8 0 0 1-20.78 20.77H37.02A20.8 20.8 0 0 1 16.24 913V37a20.8 20.8 0 0 1 20.78-20.77h490.97m-.01-1H37.02A21.8 21.8 0 0 0 15.24 37v876a21.8 21.8 0 0 0 21.78 21.77h490.97A21.8 21.8 0 0 0 549.77 913V37c0-12-9.77-21.77-21.78-21.77Z"/>
  </g>
  <g opacity=".15">
    <path d="M527.98 17.06c11 0 19.95 8.95 19.95 19.94v876c0 11-8.95 19.94-19.95 19.94H37.02c-11 0-19.95-8.95-19.95-19.94V37c0-11 8.95-19.94 19.95-19.94h490.97m-.01-1H37.02A20.97 20.97 0 0 0 16.07 37v876c0 11.55 9.4 20.94 20.95 20.94h490.97A20.97 20.97 0 0 0 548.94 913V37c0-11.55-9.4-20.94-20.95-20.94Z"/>
  </g>
  <g opacity=".1">
    <path d="M527.98 17.89A19.14 19.14 0 0 1 547.1 37v876a19.14 19.14 0 0 1-19.12 19.11H37.02A19.14 19.14 0 0 1 17.9 913V37a19.14 19.14 0 0 1 19.12-19.11h490.97m-.01-1H37.02A20.14 20.14 0 0 0 16.9 37v876a20.14 20.14 0 0 0 20.12 20.11h490.97A20.14 20.14 0 0 0 548.11 913V37a20.14 20.14 0 0 0-20.12-20.11Z"/>
  </g>
  <g opacity=".05">
    <path d="M527.98 18.72A18.3 18.3 0 0 1 546.27 37v876a18.3 18.3 0 0 1-18.29 18.28H37.02A18.3 18.3 0 0 1 18.73 913V37a18.3 18.3 0 0 1 18.29-18.28h490.97m-.01-1H37.02A19.3 19.3 0 0 0 17.73 37v876a19.3 19.3 0 0 0 19.29 19.28h490.97A19.3 19.3 0 0 0 547.28 913V37a19.3 19.3 0 0 0-19.29-19.28Z"/>
  </g>
</g>
<path fill="#a5a5a6" d="M527.98 0H37.02A37.05 37.05 0 0 0 0 37v876c0 20.4 16.61 37 37.02 37h490.97a37.05 37.05 0 0 0 37.02-37V37c0-20.4-16.61-37-37.02-37Zm33.12 913a33.15 33.15 0 0 1-33.12 33.11H37.02A33.15 33.15 0 0 1 3.9 913V37A33.15 33.15 0 0 1 37.02 3.89h490.97A33.15 33.15 0 0 1 561.11 37v876Z"/>
<path fill="#f1f1f1" d="M527.98 3.9H37.02A33.14 33.14 0 0 0 3.9 37v876a33.15 33.15 0 0 0 33.12 33.11h490.97A33.15 33.15 0 0 0 561.11 913V37a33.15 33.15 0 0 0-33.12-33.11ZM559.16 913a31.2 31.2 0 0 1-31.17 31.16H37.02A31.2 31.2 0 0 1 5.85 913V37A31.2 31.2 0 0 1 37.02 5.84h490.97A31.2 31.2 0 0 1 559.16 37v876Z"/>
</svg>