<svg xmlns="http://www.w3.org/2000/svg" viewBox="0 0 565 950">
  <g>
    <g fill="#fed643">
      <path d="M311.12 453.64h-10.08v5.04h5.04v5.04h10.07v-5.04h-5.03v-5.04zM326.23 428.46v5.03h-5.04v10.08h5.04v-5.04h5.04v-10.07h-5.04z"/>
    </g>
    <g fill="#f1a921">
      <path d="M336.31 478.83v-10.07h-5.04v-30.23h-5.04v5.04h-5.04v10.07h-10.07v5.04h5.03v5.04h5.04v5.04h-5.04v5.04h-10.07v5.03H296v-5.03h-5.04v-5.04H296v-5.04h10.08v-5.04h-5.04v-5.04h-10.08v5.04h-5.03v20.15h5.03v5.04h20.16v-5.04h10.07v-5.03h5.04v5.03h5.04v10.08h5.04v15.11h5.03v-25.19h-5.03zM301.04 418.38v5.04h15.11v10.07h10.08v-10.07h-5.04v-5.04h-15.11v-5.04h-15.12v5.04h10.08z"/>
    </g>
  </g>
</svg>