<svg xmlns="http://www.w3.org/2000/svg" viewBox="0 0 565 950">
  <path fill="#fbf173" d="M361.5 408.3v-5.03h-5.04v5.03h-5.04v5.04h5.04v5.04h5.04v-5.04h5.03v-5.04h-5.03z"/>
  <g fill="#fffbeb">
    <path d="M290.96 136.26H296v5.04h-5.04zM296 131.22h5.04v5.04H296zM285.93 131.22h5.04v5.04h-5.04zM290.96 126.18H296v5.04h-5.04z"/>
  </g>
  <g fill="#fed643">
    <path d="M200.28 116.1h5.04v5.04h-5.04zM190.21 116.1h5.04v5.04h-5.04z"/>
    <path d="M195.24 111.07h5.04v5.04h-5.04zM200.28 106.03h5.04v5.04h-5.04z"/>
    <path d="M190.21 106.03h5.04v5.04h-5.04z"/>
  </g>
  <path fill="#fed643" d="M432.03 100.99v-5.04h-5.04v5.04h-5.04v5.04h5.04v5.04h5.04v-5.04h5.03v-5.04h-5.03zM301.04 55.65v-5.04H296v5.04h-5.04v5.04H296v5.03h5.04v-5.03h5.04v-5.04h-5.04z"/>
</svg>