<svg xmlns="http://www.w3.org/2000/svg" viewBox="0 0 565 950">
  <path fill="#fed643" d="M275.85 493.95h5.04v5.04h-5.04zM185.17 478.83h5.04v5.04h-5.04z"/>
  <path fill="#f3d958" d="M215.4 398.23h5.04v5.04h-5.04zM361.5 373.04h5.04v5.04h-5.04z"/>
  <path fill="#fed643" d="M195.24 362.96h5.04V368h-5.04zM477.37 347.85h5.04v5.04h-5.04zM210.36 337.77h5.04v5.04h-5.04z"/>
  <path fill="#f3d958" d="M376.61 282.36h5.04v5.04h-5.04z"/>
  <path fill="#f1a921" d="M165.02 242.05h5.04v5.04h-5.04zM94.49 196.71h5.04v5.04h-5.04z"/>
  <path fill="#fbf173" d="M270.81 156.41h5.04v5.04h-5.04z"/>
  <path fill="#fed643" d="M457.22 106.03h5.04v5.04h-5.04zM109.6 106.03h5.04v5.04h-5.04z"/>
  <path fill="#f3d958" d="M311.12 100.99h5.04v5.04h-5.04z"/>
  <path fill="#fbf173" d="M220.43 95.95h5.04v5.04h-5.04z"/>
  <path fill="#fed643" d="M331.27 75.8h5.04v5.04h-5.04z"/>
  <path fill="#fbf173" d="M195.24 75.8h5.04v5.04h-5.04z"/>
  <path fill="#f3d958" d="M255.7 45.57h5.04v5.04h-5.04z"/>
</svg>