<svg xmlns="http://www.w3.org/2000/svg" viewBox="0 0 565 950">
  <g>
    <g fill="#eddfbe">
      <path d="M230.51 433.49v10.08h5.04v-5.04h5.04v-5.04h-10.08zM225.47 428.46v5.03h5.04v-5.03h-5.04zM255.7 423.42h-5.04v-5.04h-5.04v10.08h-5.03v5.03h5.03v5.04h5.04v-5.04h5.04v-5.03h5.04v-5.04h-5.04zM220.43 423.42v5.04h5.04v-5.04h-5.04z"/>
    </g>
    <g fill="#fffbeb">
      <path d="M250.66 438.53v5.04h5.04v-10.08h-5.04v5.04zM255.7 433.49h5.04v-5.03h-5.04v5.03zM260.74 423.42v5.04h5.04v-5.04h-5.04zM240.59 418.38h-5.04v5.04h-10.08v5.04h5.04v5.03h10.08v-5.03h5.03v-15.12h-5.03v5.04z"/>
    </g>
  </g>
  <g>
    <path fill="#fffbeb" d="M149.9 141.29v10.08h5.04v-10.08h-5.04z"/>
    <path fill="#eddfbe" d="M134.79 141.29h-5.04v10.08h5.04v-5.04h5.04v-5.04h-5.04zM124.71 141.29h5.04v-5.03h-5.04v5.03zM119.68 136.26h5.03v-5.04h-5.03v5.04zM159.98 131.22H149.9v-5.04h-5.04v10.08h-5.03v5.03h5.03v5.04h5.04v-5.04h10.08v-5.03h5.04v-5.04h-5.04z"/>
    <path fill="#fffbeb" d="M139.83 121.14v5.04h-5.04v5.04h-10.08v5.04h5.04v5.03h10.08v-5.03h5.03v-15.12h-5.03z"/>
  </g>
</svg>