<svg xmlns="http://www.w3.org/2000/svg" viewBox="0 0 565 950">
  <path fill="#fbf173" d="M255.7 473.8h-5.04v10.07h10.08V473.8h-5.04z"/>
  <path fill="#fed643" d="M139.83 463.72h-5.04v10.08h10.07v-10.08h-5.03zM386.69 438.53h-5.04v10.08h10.07v-10.08h-5.03z"/>
  <path fill="#f3d958" d="M467.29 393.19h-5.04v10.08h10.08v-10.08h-5.04z"/>
  <path fill="#fbf173" d="M170.05 388.15h-5.03v10.08h10.07v-10.08h-5.04zM447.14 362.96h-5.04v10.08h10.08v-10.08h-5.04z"/>
  <path fill="#fed643" d="M165.02 282.36h-5.04v10.07h10.07v-10.07h-5.03z"/>
  <path fill="#fbf173" d="M401.8 262.2h-5.04v10.08h10.08V262.2h-5.04z"/>
  <path fill="#fed643" d="M416.91 211.82h-5.03v10.08h10.07v-10.08h-5.04zM462.25 176.56h-5.03v10.07h10.07v-10.07h-5.04zM185.17 141.29h-5.04v10.08h10.08v-10.08h-5.04zM74.33 141.29H69.3v10.08h10.07v-10.08h-5.04zM366.53 60.69h-5.03v10.07h10.07V60.69h-5.04z"/>
  <path fill="#fbf173" d="M230.51 60.69h-5.04v10.07h10.08V60.69h-5.04z"/>
</svg>