<svg xmlns="http://www.w3.org/2000/svg" viewBox="0 0 565 950">
  <g>
    <g fill="#fed643">
      <path d="M104.56 262.2v-5.03H94.49v10.07h5.03v5.04h10.08V262.2h-5.04zM34.03 231.98v5.03h5.04v5.04h5.04v-10.07H34.03z"/>
    </g>
    <g fill="#f1a921">
      <path d="M134.79 262.2v-10.07h-5.04v-10.08h-5.04v-5.04h-10.07v-5.03H84.41v-5.04H69.3v-5.04H44.11v5.04h-5.04v5.04h5.04v5.03h5.03v-5.03h25.19v5.03H69.3v5.04h-5.04v5.04h-5.04v35.27h5.04v5.03h5.04v5.04h30.22v-5.04h5.04v-5.03h5.04v-10.08H99.52v-5.04h-5.03v10.08h-5.04v5.04H69.3v-5.04h-5.04v-25.19h5.04v-5.04h5.03v-5.04h15.12v5.04h5.04v10.08h10.07v5.03h5.04v-10.07h-5.04v-5.04h-5.04v-5.04h-5.03v-5.04h15.11v5.04h10.08v5.04h5.03v10.08h5.04v10.07h5.04v30.23h5.04V262.2h-5.04zM28.99 237.01v5.04h-5.04v15.12h5.04v-10.08h5.04v-5.04h5.04v-5.04H28.99z"/>
    </g>
  </g>
</svg>