<svg xmlns="http://www.w3.org/2000/svg" viewBox="0 0 565 950">
  <g>
    <g fill="#fed643">
      <path d="M421.95 423.42v15.11h5.04v-15.11h-5.04zM411.88 418.38v10.08h5.03v-15.12h-5.03v5.04zM401.8 408.3v10.08h5.04v-15.11h-5.04v5.03z"/>
    </g>
    <g fill="#f1a921">
      <path d="M416.91 423.42v15.11h5.04v-15.11h-5.04zM406.84 418.38v10.08h5.04v-15.12h-5.04v5.04zM396.76 408.3v10.08h5.04v-15.11h-5.04v5.03z"/>
    </g>
  </g>
  <g>
    <g fill="#f3d958">
      <path d="M89.45 393.19H79.37v10.08h20.15v-10.08H89.45zM114.64 388.15h-10.08v10.08h15.12v-10.08h-5.04z"/>
    </g>
    <path fill="#f1a921" d="M99.52 388.15v10.08h5.04v-10.08h-5.04z"/>
  </g>
  <g>
    <path fill="#eddfbe" d="M69.3 181.6h-5.04v15.11h10.07V181.6H69.3z"/>
    <path fill="#fffbeb" d="M59.22 171.52h-5.04v15.11h10.08v-15.11h-5.04z"/>
  </g>
</svg>