<svg xmlns="http://www.w3.org/2000/svg" viewBox="0 0 565 950">
  <g>
    <path fill="#fed643" d="M457.22 307.54h-5.04v5.04h-5.04v10.08h5.04v-5.04h10.07v-10.08h-5.03zM421.95 297.47v-5.04h-5.04v5.04h-5.03v5.04h5.03v5.03h5.04v-5.03h5.04v-5.04h-5.04z"/>
    <g fill="#f1a921">
      <path d="M411.88 307.54h-5.04v35.27h5.04v5.04h5.03v-10.08h-5.03v-20.15h5.03v-15.11h-5.03v5.03zM532.79 282.36v5.03h5.03v-5.03h-5.03z"/>
      <path d="M527.75 277.32v-5.04h-10.08v-5.04h-30.23v5.04h-5.03v5.04h-10.08v5.04h-40.3v5.03h-10.08v10.08h10.08v-5.04h10.07v-5.04h20.15v5.04h-5.03v5.04h-5.04v5.04h-5.04v10.07h5.04v-5.04h15.11v-10.07h5.04v-5.04h5.04v5.04h5.04v5.04h5.03v5.03h5.04v20.16h-5.04v5.03h-20.15v-10.07h-5.04v-5.04h-10.07v5.04h-5.04v5.04h5.04v5.03h5.04v5.04h35.26v-5.04h5.04v-30.22h-5.04v-5.04h-5.04v-5.04h-5.03v-5.04h-5.04v-5.03h10.07v-5.04h5.04v-5.04h20.15v5.04h10.08v5.04h10.08v-5.04h-5.04z"/>
    </g>
  </g>
</svg>