<svg xmlns="http://www.w3.org/2000/svg" viewBox="0 0 565 950">
  <path fill="#fed643" d="M376.61 468.76h-10.08v-15.12h-15.11v5.04h10.08v15.12h15.11v15.11h5.04v-20.15h-5.04z"/>
  <path fill="#eddfbe" d="M185.17 423.42v10.07h-5.04v15.12h5.04v-10.08h5.04v-15.11h-5.04zM492.48 378.08h-5.04v-5.04h-15.11v5.04h10.08v5.03h15.11v-5.03h-5.04z"/>
  <path fill="#fbf173" d="M416.91 378.08h-10.07V368h-15.12v-10.08h-5.03v15.12h15.11v10.07h15.11v10.08h5.04v-15.11h-5.04z"/>
  <g>
    <g fill="#f1a921">
      <path d="M149.9 357.92v5.04h5.04v-10.07h-5.04v5.03zM165.02 342.81v5.04h5.03v-5.04h-5.03z"/>
    </g>
    <g fill="#fed643">
      <path d="M139.83 357.92h-5.04v5.04h15.11v-5.04h-10.07zM159.98 347.85H149.9v5.04h20.15v-5.04h-10.07zM175.09 337.77h-10.07v5.04h15.11v-5.04h-5.04z"/>
    </g>
  </g>
  <path fill="#fbf173" d="M512.63 221.9h-10.07v10.08h-10.08v10.07h-10.07v5.04h15.11v-10.08h10.08v-10.07h10.07v-5.04h-5.04z"/>
  <g>
    <path fill="#f1a921" d="M154.94 216.86h5.04v-5.04h-5.04v5.04z"/>
    <g fill="#fed643">
      <path d="M165.02 216.86h-10.08v5.04h15.11v-5.04h-5.03zM159.98 211.82v-5.03h-15.12v5.03h15.12z"/>
    </g>
  </g>
  <g>
    <path fill="#eddfbe" d="M411.88 166.48v10.08h5.03v-10.08h-5.03z"/>
    <path fill="#fffbeb" d="M421.95 161.44h-10.07v5.04h15.11v-5.04h-5.04z"/>
    <path fill="#eddfbe" d="M421.95 151.37v10.07h5.04v-10.07h-5.04z"/>
    <path fill="#fffbeb" d="M432.03 146.33h-10.08v5.04h15.11v-5.04h-5.03z"/>
    <path fill="#eddfbe" d="M432.03 136.26v10.07h5.03v-10.07h-5.03z"/>
  </g>
  <path fill="#fbf173" d="M361.5 90.91h-10.08v10.08h-15.11v15.11h5.03v-10.07h15.12V95.95h10.07v-5.04h-5.03z"/>
  <path fill="#fed643" d="M159.98 90.91h-5.04V80.84h-15.11v5.04h10.07v10.07h10.08v10.08h5.04V90.91h-5.04z"/>
  <path fill="#f1a921" d="M406.84 55.65v10.07h-5.04V75.8h-5.04v15.11h5.04V80.84h5.04V70.76h5.04V55.65h-5.04z"/>
</svg>