<svg xmlns="http://www.w3.org/2000/svg" width="101" height="32" viewBox="0 0 101 32">
  <path fill="#e61d2b" d="M70.2 2.41s-1.88.75-4.06 3.16-3.46 5.12-2.52 5.84c.36.27 1.2.33 2.71-1.04a11.88 11.88 0 0 0 3.2-4.44c.98-2.38.67-3.48.67-3.5m11.95 4.32c-2.43-1.24-4.2-2.77-6.05-3.71-1.76-.9-2.9-1.28-4.32-1.09-.2.04-.39.08-.59.15 0 0 .73 2.5-2.18 6.71-2.96 4.27-5.64 4.24-6.4 3.06-.8-1.24.23-3.76 1.95-6 1.8-2.35 4.97-4.29 4.97-4.29s-1.01-.62-3.49.79c-2.42 1.37-6.58 4.62-10.45 10.12s-4.63 8.52-5.18 10.9-.05 4.93 2.59 4.93 5.71-4.03 6.58-5.42c1.61-2.61 2.66-6.6.47-6.06-1.08.27-1.95 1.47-2.51 2.62-.35.74-.62 1.52-.8 2.31-.77.32-1.49.73-2.14 1.24-.73.54-1.41 1.14-2.03 1.79 0 0 0-1.9 1.53-4.98s4.3-4.48 5.88-4.62c1.42-.11 3.27 1.09 1.7 5.54s-6.19 9.85-11.05 9.92c-4.48.06-7.41-5.66-1.18-15.64C56.37 3.99 64.47.61 67.1.23s3.48.78 3.48.78c1.58-.65 3.29-.93 5-.82 3.21.22 5.69 2.49 8.97 4.09-.85.81-1.66 1.67-2.4 2.47m14.43-3.72c-2.23 1.43-5.3 2.72-8.26 2.44-.75.77-1.55 1.67-2.35 2.65 5.13 1.01 9.62-2.16 12.01-4.87a16.1 16.1 0 0 0 2.23-3.2 20.36 20.36 0 0 1-3.63 2.98m-6.83 14.46a.95.95 0 0 0 .09-.21.52.52 0 0 0-.47-.45c-.49-.02-1.16.07-2.9 2.01a26.55 26.55 0 0 0-3.72 5.27c-1 1.83-1.41 3.19-.83 3.54.19.1.4.12.61.06.39-.09.83-.46 1.5-1.23.31-.36.66-.88 1.08-1.45 1.16-1.57 4.06-6.53 4.64-7.53m-18.16 2.09c.29-.76.66-2.26-.11-2.85-.83-.62-2.94.84-2.96 2.34-.01 1.54 1.49 2.23 1.85 2.33.21.06.28.05.38-.12.32-.55.6-1.12.84-1.71m-1.6 2.81a6.17 6.17 0 0 1-1.45-.93 4.78 4.78 0 0 1-1.09-1.32c-.03-.05-.06-.01-.09.03s-.16.16-1.29 1.81c-1.13 1.65-2.86 5.07-1.29 5.66 1 .37 2.67-1.38 3.58-2.55a21.7 21.7 0 0 0 1.68-2.56c.05-.1 0-.12-.05-.14m17.78 3.95c-.43.68-.91 1.99.49 1.17 1.71-.99 4.15-4.69 4.15-4.69h1.11a37.8 37.8 0 0 1-3.35 4.4c-1.74 1.92-3.85 3.67-5.34 3.5-1.74-.2-1.2-2.49-1.2-2.49s-2.49 2.65-4.21 2.46c-2.33-.26-1.62-3.13-1.62-3.13s-2.63 3.23-4.43 3.13c-2.81-.16-2.1-3.58-1.32-5.99.42-1.29.81-2.3.81-2.3s-.28.07-.88.16c-.31.04-.88.08-.88.08s-1.17 2.07-2.11 3.31-4.92 5.52-7.26 4.66c-2.17-.79-1.45-4.11-.19-6.74 1.84-3.84 7.02-9.36 10-8.63 3.1.75.07 6.4.07 6.4s0 .02.03.04c.06.02.22.04.6-.03.39-.08.77-.19 1.13-.34 0 0 3.11-6.52 6.55-10.78S90.21-1.09 92.9.69c.65.44.36 1.94-.53 3.76-.4.13-.8.24-1.22.33a9.7 9.7 0 0 0 1.1-2.62c.41-2.2-4.74 2.44-8.41 7.44a69.43 69.43 0 0 0-5.88 9.52c.66-.4 1.3-.86 1.9-1.35a53.43 53.43 0 0 0 4.67-4.36 52.32 52.32 0 0 0 3.97-4.58c.39-.02.78-.06 1.17-.12a51.48 51.48 0 0 1-4.38 5.18c-1.47 1.48-3.05 3.08-4.43 4.24a36.62 36.62 0 0 1-3.89 2.89s-3.21 6.48-1.47 6.9c1.03.25 3.06-2.88 3.06-2.88s2.65-4.04 4.25-5.86c2.18-2.48 4.05-3.91 5.93-3.94 1.09-.02 1.74 1.14 1.74 1.14l.51-.8h3.16s-5.9 10.02-6.37 10.77m8.8-23.32c-2.23 1.43-5.3 2.72-8.26 2.44-.75.77-1.55 1.67-2.35 2.65 5.13 1.01 9.62-2.16 12.01-4.87a16.1 16.1 0 0 0 2.23-3.2 20.36 20.36 0 0 1-3.63 2.98M52.19 7.95h-3.01l-1.7 2.75h3.01l1.7-2.75Zm-14.23 9.5c1.28-1.75 4.81-7.9 4.81-7.9a.52.52 0 0 0-.47-.45c-.49-.02-1.3.14-2.92 2.17s-2.87 3.64-3.79 5.31c-1 1.83-1.44 3.12-.87 3.47.19.09.4.12.6.06.37-.09.87-.47 1.54-1.24.32-.36.67-.85 1.09-1.42M21.83 9.14c-.83-.63-2.94.84-2.96 2.34-.01 1.54 1.9 2.01 2.15 2.02.07 0 .15 0 .21-.04a.27.27 0 0 0 .1-.11c.23-.44.43-.9.61-1.36.29-.76.66-2.26-.11-2.85m-1.25 5.3a7.08 7.08 0 0 1-1.63-.75 3.43 3.43 0 0 1-1.16-1.29c-.03-.05-.06-.01-.09.03s-.2.26-1.33 1.91-2.81 5.05-1.24 5.63c1 .38 2.69-1.39 3.61-2.55.69-.91 1.32-1.86 1.9-2.84.04-.1 0-.12-.06-.14m24.55 1.02h1.1s-5.52 7.98-8.63 7.61c-1.74-.2-1.22-2.35-1.22-2.35s-2.44 2.86-4.69 2.28c-2.04-.52-.72-3.91-.72-3.91-.23.09-4.64 5.06-7.74 3.87-3.24-1.25-1.56-5.41-.94-6.66.52-1.05 1.1-2.08 1.1-2.08s-.5.14-.81.21l-.78.16s-1.53 2.49-2.47 3.73-4.92 5.51-7.26 4.66-1.76-4.13-.45-6.74c2.14-4.23 7.21-9.42 10.26-8.63 3.09.79.53 5.79.53 5.79s.61.08 2.09-.92c2.12-1.45 4.91-5.33 7.94-4.88 1.43.22 2.76 1.67.94 4.44-.58.89-1.55 1.68-2.3.9-.46-.49-.06-1.38.43-1.99.38-.5 1-.78 1.63-.75 0 0 .5-1.14-.77-1.12-1.03.02-3.64 2.42-5.11 4.84-1.35 2.23-3.39 6.02-1.34 6.84 1.88.76 5.46-3.49 7.12-5.72s5.44-7.27 8.61-7.48c1.09-.07 1.74.92 1.74.92l.37-.58h3.17s-5.97 9.96-6.44 10.72c-.37.59-.85 1.92.49 1.17s4.16-4.36 4.16-4.36m-1.74 16a13.07 13.07 0 0 0-7.97-2.32c-1.56.04-3 .82-3.89 2.11-1.21-2.11-3.6-3.4-7.29-3.38-5.97.07-11.89 2.82-16.58 2.82-4.5 0-7.78-2.83-7.67-7.85C.2 14 7.64 6.07 13.2 2.5 16.4.45 19.08-.16 20.83.04c1.28.14 2.81 1.62 1.84 3.79-1.42 3.18-3.39 2.92-3.32 1.4.04-.99.7-1.61 1.19-1.95.31-.22.87-.28 1.16-.29.28-.24.49-1.98-1.79-1.41S14.86 4.4 12.23 7.3s-6.72 8.39-7.74 14.16c-.47 2.67-.16 7.55 6.18 7.49 5.38-.04 13.3-3.58 20.58-3.51 2.83.03 5.29.79 7.2 1.97 1.88 1.16 4.14 2.85 4.94 4.01"/>
</svg>
