<svg xmlns="http://www.w3.org/2000/svg" width="81" height="49" viewBox="0 0 81 49">
  <path fill="#bd3732" d="M19.77 15.68c-2.45 0-4.13-1.97-4.13-4.39s1.68-4.39 4.13-4.39 4.13 1.99 4.13 4.39-1.68 4.39-4.13 4.39m0-10.65c-3.42 0-6.11 2.8-6.11 6.28s2.72 6.23 6.11 6.23 6.11-2.75 6.11-6.23-2.7-6.28-6.11-6.28M74.56 15.66c-2.47 0-3.81-2.2-3.81-4.52s1.49-4.26 3.79-4.26c2.45 0 3.91 1.92 3.91 4.29s-1.34 4.49-3.89 4.49m-.25-10.65c-3.49 0-5.59 2.9-5.59 6.28s2.15 6.23 5.57 6.23c1.63 0 2.99-.66 4.01-1.97h.05v1.64h1.98V5.35s-.15-.03-.36-.03c-.57 0-1.62.2-1.62 1.71h-.05a5 5 0 0 0-3.98-2.02M6.67 34.95a5.21 5.21 0 0 0 8.43-.41c.63-.94 2.04 0 1.41.94a6.95 6.95 0 0 1-11.15.55c-.72-.88.6-1.95 1.31-1.08m14.79-3.32a10.72 10.72 0 1 1-3.33-7.77 23.6 23.6 0 0 1 3.93-3.48c1.59-1.06 3.62.26 2.21 1.31-1.86 1.18-3.67 2.27-5.1 3.32a10.68 10.68 0 0 1 2.29 6.62m-19.45 0a8.72 8.72 0 1 0 15.62-5.34 7.7 7.7 0 0 0-.63.68 4.95 4.95 0 0 1-2.02 4.06c-1.72 1.23-3.5 1.28-4.28.25-.78-1.03-.04-2.9 1.65-4.17 1.35-1.02 2.9-1.35 3.87-.91a27 27 0 0 1 .6-.81 8.7 8.7 0 0 0-14.81 6.24m10.14-1.57c.32.38 1.24.16 2.07-.49.83-.65 1.24-1.49.93-1.87-.31-.38-1.24-.16-2.07.49-.83.65-1.24 1.49-.93 1.86M67.92 45.11c.05-.74.45-1.24 1.2-1.24.67 0 1.06.49 1.06 1.24h-2.26Zm2.54 1.29a1.4 1.4 0 0 1-1.23.68c-.74 0-1.32-.62-1.32-1.5h2.9v-.37c0-1.28-.77-1.82-1.7-1.82-1.1 0-1.82.79-1.82 2.09 0 1.47.94 2.09 1.94 2.09s1.42-.48 1.72-.94l-.48-.22Zm-3.33-2.93h-.63l-1.13 3.32h-.02l-1.13-3.32h-.63l1.37 4.02h.82l1.34-4.02Zm-3.66 2.01c0-1.16-.61-2.09-1.83-2.09s-1.83.93-1.83 2.09.61 2.09 1.83 2.09 1.83-.93 1.83-2.09m-.62 0c0 1.03-.47 1.61-1.21 1.61s-1.21-.57-1.21-1.61.47-1.61 1.21-1.61 1.21.57 1.21 1.61m-4.36 2.01h.62v-5.58h-.62v5.58Zm-3.11 0v-4.02h-.62v3.01c-.28.27-.81.61-1.28.61s-.73-.18-.73-.71v-2.91h-.62v2.92c0 .87.63 1.17 1.29 1.17.51 0 .97-.26 1.32-.62h.02v.54h.62Zm-3.82-2.01c0-1.16-.61-2.09-1.83-2.09s-1.83.93-1.83 2.09.61 2.09 1.83 2.09 1.83-.93 1.83-2.09m-.62 0c0 1.03-.47 1.61-1.21 1.61s-1.21-.57-1.21-1.61.47-1.61 1.21-1.61 1.21.57 1.21 1.61m-3.82-2.01-1.05 3.07h-.02l-1.2-3.07h-.65l1.55 4.06c-.21.88-.79.96-1.17.96l-.33-.02v.46c.12.02.24.05.45.05.58 0 1.17-.23 1.5-1.13l1.57-4.37h-.65Zm-6 3.07c-.44.39-.73.54-1.12.54-.77 0-1.26-.56-1.26-1.58 0-1.21.54-1.64 1.26-1.64.37 0 .79.22 1.12.56v2.12Zm0-4.63v1.95l-.03-.02a1.98 1.98 0 0 0-1.18-.45c-.75 0-1.79.53-1.79 2.09s1.04 2.09 1.83 2.09c.53 0 .97-.22 1.17-.47l.09.39h.57c-.05-.29-.03-.59-.03-.88v-4.7h-.62Zm-3.39 3.57c0-1.16-.61-2.09-1.83-2.09s-1.83.93-1.83 2.09.61 2.09 1.83 2.09 1.83-.93 1.83-2.09m-.61 0c0 1.03-.47 1.61-1.21 1.61s-1.21-.57-1.21-1.61.47-1.61 1.21-1.61 1.21.57 1.21 1.61m-3.52 0c0-1.16-.61-2.09-1.83-2.09s-1.83.93-1.83 2.09.61 2.09 1.83 2.09 1.83-.93 1.83-2.09m-.62 0c0 1.03-.47 1.61-1.21 1.61s-1.21-.57-1.21-1.61.47-1.61 1.21-1.61 1.21.57 1.21 1.61m-6.25-3.57v5.58h.69v-2.66h2.21v-.53h-2.21v-1.87h2.98v-.53h-3.67ZM63.47 5.35V17.2h1.98v-5.6c0-4.7-.04-3.66 2.39-4.32a3.1 3.1 0 0 0 2.43-2.53c-3.64-.67-3.98 2.11-4.75 2.1h-.07v-.04c-.02-.55-.36-1.66-1.95-1.47h-.03Z"/>
  <path fill="#8d9437" d="M79.57 25.07v-.32h.21c.11 0 .22.02.22.15 0 .16-.12.17-.25.17h-.19Zm0 .13h.18l.27.45h.17l-.29-.45c.15-.02.27-.1.27-.28 0-.2-.12-.29-.36-.29h-.39v1.03h.16v-.45Zm-.54-.07c0-.42.32-.74.73-.74s.72.32.72.74-.32.74-.72.74-.73-.32-.73-.74m.73.89c.48 0 .9-.38.9-.89s-.42-.89-.9-.89-.9.38-.9.89.41.89.9.89"/>
  <path fill="#bd3732" d="M14.74 16.39a7.13 7.13 0 0 1-1.06-1.38c-.87.42-1.82.67-2.84.67-3.71 0-6.73-3.21-6.73-6.86s3-6.87 6.69-6.87c.99 0 1.73.2 2.21.37 1.86.65 2.02-1.27 2.02-1.27A8.25 8.25 0 0 0 10.91.01C6.03 0 2.03 4 2.03 8.88s4.07 8.75 8.88 8.75a8.6 8.6 0 0 0 4.04-1.03l-.21-.2Z"/>
  <path fill="#8d9437" d="M52.24 35.71c-2.45 0-4.13-1.97-4.13-4.39s1.68-4.39 4.13-4.39 4.13 1.99 4.13 4.39-1.68 4.39-4.13 4.39m0-10.65c-3.42 0-6.11 2.8-6.11 6.28s2.72 6.23 6.11 6.23 6.11-2.75 6.11-6.23-2.7-6.28-6.11-6.28M33.23 31.34c0-3.48 2.7-6.28 6.11-6.28s6.11 2.8 6.11 6.28-2.72 6.23-6.11 6.23-6.11-2.75-6.11-6.23Zm1.98-.03c0 2.42 1.68 4.39 4.13 4.39s4.13-1.97 4.13-4.39-1.68-4.39-4.13-4.39-4.13 1.99-4.13 4.39Z"/>
  <path fill="#bd3732" d="M56.34 15.66c-2.47 0-3.81-2.2-3.81-4.52s1.49-4.26 3.79-4.26c2.45 0 3.91 1.92 3.91 4.29s-1.34 4.49-3.88 4.49m-.26-10.65c-3.49 0-5.59 2.9-5.59 6.28s2.15 6.23 5.57 6.23c1.63 0 3-.66 4.01-1.97h.05v1.49c-.01 2.64-.85 4.89-3.89 4.89-1.58 0-3.01-.77-3.57-2.07H50.6c.66 2.46 2.94 3.94 5.66 3.94 1.73 0 3.57-.68 4.66-2.1 1.06-1.4 1.18-2.87 1.19-4.52V5.35s-.15-.03-.36-.03c-.57 0-1.62.2-1.62 1.71h-.05a5 5 0 0 0-3.98-2.02"/>
  <path fill="#8d9437" d="M70.28 19.63c-.57 0-1.62.2-1.62 1.71v5.73h-.05a5 5 0 0 0-3.98-2.02c-3.49 0-5.59 2.9-5.59 6.28s2.15 6.23 5.57 6.23c1.58 0 3.04-.68 4.01-1.97h.05v1.64h1.98V19.65s-.14-.03-.36-.03ZM64.87 35.7c-2.47 0-3.81-2.2-3.81-4.52s1.49-4.27 3.79-4.27c2.45 0 3.91 1.92 3.91 4.29s-1.34 4.49-3.89 4.49Z"/>
  <path fill="#bd3732" d="M44.33.15H43.3L36.52 16.4v-6.23c0-2.77-.75-5.14-4.03-5.14-1.46 0-2.84.63-3.72 1.76h-.05c-.11-1.28-1.07-1.46-1.61-1.46-.21 0-.36.03-.36.03v11.85h1.98v-5.62c0-2.12.52-4.69 3.3-4.69 2.34 0 2.49 1.71 2.49 3.63v5.1c0 1.18.56 1.58 1.05 1.58h2.86l2.05-5.02h6.66l2.02 5.02h2.23L44.33.15ZM41.2 10.34l2.6-6.39 2.57 6.39H41.2Z"/>
  <path fill="#8d9437" d="M33.86 22.09c.57 0 1.62-.21 1.61-1.72v-.07l-.01-.15h-8.73v17.09h2.06v-8.48h3.94c.26-.7.62-1.35 1.07-1.93h-5v-4.75h5.08ZM75.67 25.07a3.32 3.32 0 0 0-3.44 3.34c0 1.85 1.32 2.54 2.66 3.12 1.33.57 2.7 1.01 2.71 2.37 0 1.11-.9 1.85-1.99 1.85a2.18 2.18 0 0 1-1.95-.99 1.3 1.3 0 0 0-1.07-.57c-.25 0-.52.07-.82.21l-.3.18a4.21 4.21 0 0 0 4.12 2.97 3.9 3.9 0 0 0 4.02-3.83c0-1.98-1.4-2.82-2.78-3.41-1.37-.58-2.77-.96-2.78-2.09 0-.79.74-1.37 1.51-1.37.44 0 .82.21 1.02.42.43.45.78.72 1.22.72.29 0 .64-.12 1.08-.4a2.86 2.86 0 0 0-.67-1.26s-.24-.32-.67-.63a3.15 3.15 0 0 0-1.86-.63"/>
</svg>
