<svg xmlns="http://www.w3.org/2000/svg" width="125" height="22" viewBox="0 0 125 22">
  <g id="layer1">
    <g id="g30">
      <path id="path32" fill="#1d3c6d" d="M55.41 9.88v-3.5h-3V2.57h-3.98v3.81h-1.65v3.5h1.65v5.53c.03 1.68.64 3.48 2.06 4.46 1.24.89 2.79 1.06 4.28 1.04a9.64 9.64 0 0 1-2.25-4.63v-.04l-.01-.04c-.04-.33-.09-.86-.08-1.41l-.02-.35V9.9h3"/>
    </g>
    <g id="g34">
      <path id="path36" fill="#1d3c6d" d="M46.04 3.66V.15c-1.96-.33-4.22-.2-5.79 1.16-1.41 1.26-1.68 3.27-1.63 5.07H36.9v3.5h1.73v10.51h4.04V9.87h2.69v-3.5h-2.71c.04-.79-.05-1.73.59-2.32.78-.66 1.87-.44 2.81-.4"/>
    </g>
    <g id="g38">
      <path id="path40" fill="#1d3c6d" d="M31.41 20.39h3.94c-.02-3 .02-6-.02-9.01-.03-1.76-.7-3.72-2.38-4.54-2.4-1.19-5.22-.93-7.78-.51v3.83c1.65-.36 3.45-.73 5.08-.12.76.26 1.04 1.06 1.16 1.79-1.14-.14-2.3-.42-3.45-.18a4.86 4.86 0 0 0-3.49 2.01c-1.25 1.86-.89 4.68.95 6.03 1.73 1.32 4.25 1.18 6.01-.02l-.01.74m-.18-3.05c-1.02.32-2.27.66-3.21-.05-.86-.6-.75-2.06.18-2.53.95-.5 2.05-.33 3.06-.13.09.9.08 1.81-.03 2.71"/>
    </g>
    <g id="g42">
      <path id="path44" fill="#1d3c6d" d="M10.77 1.38h4.83c-2.36 3.17-4.66 6.38-7.03 9.53 2.11 3.15 4.19 6.33 6.32 9.47h-5l-5.57-8.46v8.46H.01L0 1.39h4.31v8.97c2.14-3 4.31-5.98 6.46-8.97"/>
    </g>
    <g id="g46">
      <path id="path48" fill="#1d3c6d" d="M15.88 6.42h4.07c0 .89 0 1.79-.02 2.68a4.78 4.78 0 0 1 3.65-2.7c0 1.33.02 2.66-.02 3.98-1.73.21-3.5 1.5-3.57 3.36-.05 2.22 0 4.44-.01 6.66h-4.1V6.43"/>
    </g>
    <g id="g50">
      <path id="path52" fill="#e32726" d="M88.06 17.55c-.57.23-.68.34-1.36.57-.68.23-1.47.23-2.16 0-2.15-.91-.79-4.2-.79-4.2 8.84-2.15 7.6-6.92 5.22-7.14-1.47 0-6.8.23-9.3 6.35-.34.91-2.72 7.37 2.61 7.82 1.13 0 2.38-.11 3.52-.68a7.64 7.64 0 0 0 2.49-2.16c.57-1.02-.23-.57-.23-.57m-1.25-9.06c.68.23-1.02 3.63-1.02 3.63-.68.23-1.36.45-1.81.45.23-.45 1.47-4.76 2.83-4.08"/>
    </g>
    <g id="g54">
      <path id="path56" fill="#e32726" d="M108.69 18.8c-.11-.11-.34-.11-.45-.23-.68-.45-.11-1.7 0-2.38l2.04-7.26c.11-.45.91-2.83-2.27-2.38a10.31 10.31 0 0 0-4.65 2.15c.23-.68.45-1.7 0-1.93-.57-.23-3.86.79-4.65 1.47-.23 0-.57.34-.23.68.34.45.45.79.23 1.59-.45 1.36-1.81 6.12-2.15 7.03-.34.91-.79 2.61 0 3.17.57.45 2.95-.57 3.29-.79.34-.11.68-.34.79-.45.45-.45-.23-.68.45-3.06 0-.11.79-2.49 1.36-4.54a3.83 3.83 0 0 1 2.61-2.61c.91-.11.68.68.57 1.25-.79 2.5-1.7 6.24-2.04 7.14-.34.91-.91 2.72 0 3.06.79.57 4.42-1.02 4.76-1.25.68-.45.68-.68.34-.68"/>
    </g>
    <g id="g58">
      <path id="path60" fill="#e32726" d="M94.86 18.8c-.23-.11-.34-.11-.45-.23-.68-.45-.23-1.7 0-2.38l2.16-7.26c.11-.79.57-1.81 0-2.16-.68-.23-3.97.79-4.76 1.47-.11 0-.45.34-.11.68.34.45.34.79.11 1.59-.34 1.36-1.93 6.24-2.27 7.14-.34.91-.79 2.72.23 3.06.79.57 4.2-.91 4.65-1.25.79-.34.79-.68.45-.68"/>
    </g>
    <g id="g62">
      <path id="path64" fill="#e32726" d="M94.18 5.08c.23.45 2.27-.45 3.29-1.02.11-.11.57-.45.68-.79.23-.79.34-1.13.45-1.7.11-.23.11-.57-.23-.68-.45-.11-3.18.23-3.86 1.36-.23.45-1.02 2.61-.34 2.83"/>
    </g>
    <g id="g66">
      <path id="path68" fill="#e32726" d="M124.57 13.02c-.34-1.25-2.38-1.59-3.17-.91-.45.45-.68 1.36-.57 1.59 1.93-.57 2.27 1.13 1.93 1.81-.68 1.02-.91 1.36-1.81 1.36h-6.01c-.11-.11-.23-.23 0-.45.34-.45 6.24-8.5 6.46-8.84.11-.23.45-.79-.34-.79h-6.58c-.68 0-1.02.23-1.59.79-.45.57-1.02 2.27-1.36 3.4 0 0 0 .45.68-.11.11-.11.34-.57.68-.57h3.97c1.25 0-5.33 6.24-7.37 9.53-.34.57.23.57.57.57h8.62c2.15 0 1.81.34 2.95-1.25 0 0 3.51-4.54 2.95-6.12"/>
    </g>
    <g id="g70">
      <path id="path72" fill="#e32726" d="m77.17 16.87 2.38-9.19c1.59-5.56 2.49-5.78 3.06-6.35h-3.74c-1.36 0-2.38 1.93-2.61 3.18l-1.59 5.78h-3.4l2.27-8.16c.11-.34.11-.79-.57-.79-.11 0-7.26-.23-9.53.57-1.02.34-2.49 1.25-2.95 2.61-.34.79-.79 2.27.23 4.99.11.34.34.57.45.68.34.23 3.29-.23 3.17-.23.23 0 .34-.11.11-.57-.23-.57-.91-1.59-1.02-2.61-.45-3.97 2.38-4.54 2.83-4.65a5.69 5.69 0 0 1 1.93 0c.23 0 .79.11.91.34.23.45-.11 1.25-.34 2.15-.23.68-2.15 7.71-2.72 9.64-.34 1.47-1.81 4.65-3.29 5.1a2.4 2.4 0 0 1-1.25 0 4.09 4.09 0 0 1-1.25-.57c-.91-.91-1.47-2.72-1.59-4.08-.11-1.7.23-2.95-.11-2.95a9.6 9.6 0 0 0-3.37 1.36 1.4 1.4 0 0 0-.35.28l-.04.05c-.21.36-.19 1.63-.1 2.4.34 1.7 1.25 3.63 2.61 4.54 3.63 2.49 9.98-2.04 10.66-2.5a6.6 6.6 0 0 0 1.93-3.06l.91-3.06h3.4l-1.7 6.35c-.34 1.02-.57 2.72.34 2.61 3.4 0 4.76-1.25 4.88-1.36.11-.11.11-.34 0-.45a1.68 1.68 0 0 1-.57-2.04"/>
    </g>
  </g>
</svg>
