<svg xmlns="http://www.w3.org/2000/svg" width="107" height="34" viewBox="0 0 107 34">
  <path fill="#003a80" fill-rule="evenodd" d="M76.93 10.76c-.76 0-1.38.48-1.38 1.06s.62 1.06 1.38 1.06 1.38-.48 1.38-1.06-.62-1.06-1.38-1.06ZM40.27 12.18c2.16.05 3.1.83 3.5 1.14l.56-.43c-1.23-1.34-3.34-1.7-4.55-1.72h-.42c-4.22.06-5.93 2.43-5.97 4.19-.06 2.72 2.45 4.32 5.7 4.39 3.92.08 5.02-1.77 5.17-2.01 0 0-.47-.16-.68-.21a4.72 4.72 0 0 1-3.49 1.22c-2.92-.06-4.17-1.81-4.14-3.42.03-1.57 1.56-3.21 4.32-3.15ZM83.14 13.45c.03-.9 1.12-1.33 2.88-1.27 1.08.04 2.11.34 2.84.93l.48-.49c-.6-.66-1.93-1.36-3.86-1.44h-.47c-2.31.02-4.3.86-4.3 2.48 0 3.28 6.43 1.62 6.43 3.78 0 .96-1.31 1.4-2.87 1.35-1.76-.05-3.11-.78-3.31-1.59a5.44 5.44 0 0 0-.8-.01c0 1.04 1.14 2.45 4.38 2.58 3.82.15 5.09-1.42 5.09-2.48 0-3.47-6.55-1.91-6.48-3.82ZM15.63 11.42h-2.46v8.1h5.79c1.06 0 1.89-.55 2.16-1.14h-5.48v-6.97ZM27.12 11.42l-5.77 8.1h.72c1.2-.03 1.81-.58 2.06-.95l.56-.84h5.03l.55.81c.52.8 1.52.98 2.06.98h1.21l-5.58-8.1h-.84Zm-1.7 5.25 1.76-2.63 1.81 2.63h-3.56ZM54.29 11.42H44.9v1.11h3.33v6.99h2.46v-6.99h1.47c1.06.02 1.94-.63 2.12-1.11ZM58.57 11.42l-5.77 8.1h.72c1.2-.03 1.81-.58 2.06-.95l.56-.84h5.03l.55.81c.52.8 1.52.98 2.06.98h1.21l-5.58-8.1h-.84Zm-1.71 5.25 1.76-2.63 1.81 2.63h-3.56ZM68.85 11.42h-2.46v8.1h5.79c1.06 0 1.89-.55 2.16-1.14h-5.48v-6.97ZM75.7 19.52h2.46v-6.24l-2.46.01v6.23z"/>
  <path id="path3099" fill="#84d0f0" fill-rule="evenodd" d="M50.11 0C22.2-.11 0 6.76 0 15.72c0 3.23 2.55 4.89 2.55 2.51 0-8.65 21.1-16.9 51.44-16.29C68 2.22 79.43 3.36 87.92 5.4c1.89.45 2.36.3.65-.24C79.16 2.23 66.61.31 52.83.03L50.11 0Zm54.12 14.58c-.34.03-.59.38-.59 1.12 0 8.65-21.1 16.89-51.44 16.29-14.01-.28-25.44-1.42-33.93-3.46-1.89-.45-2.36-.3-.65.24 9.41 2.93 21.96 4.85 35.74 5.13 29.18.58 52.83-6.44 52.83-15.68 0-2.22-1.21-3.7-1.96-3.63Z"/>
  <path fill="#003a80" d="M63.73 24.05a1.83 1.83 0 0 0 .46 1.26c.14.14.3.25.48.33.18.07.37.11.56.11.15 0 .29-.02.42-.07a1.58 1.58 0 0 0 .66-.49l.26-.35.36.27a2.66 2.66 0 0 1-1.25 1.07c-.18.06-.37.1-.57.1-.34 0-.66-.05-.95-.16a2.34 2.34 0 0 1-.75-.45 2.16 2.16 0 0 1-.67-1.62c0-.34.06-.62.17-.9.11-.27.27-.51.47-.71a2.3 2.3 0 0 1 1.67-.64 2.02 2.02 0 0 1 1.56.7c.12.14.24.3.33.47l-.36.26a2.24 2.24 0 0 0-.59-.62 1.42 1.42 0 0 0-1.35-.15c-.18.07-.33.18-.47.33-.13.14-.24.32-.32.53-.08.21-.12.46-.12.73ZM69.81 21.83l1.92 4.36h-.92l-.51-1.17h-1.7l-.54 1.17h-.57l2-4.36h.33Zm-1.02 2.8h1.34l-.61-1.38h-.11l-.62 1.38ZM72.42 21.92h.54l2.44 2.71v-2.71h.51v4.33h-.33l-2.64-3v2.94h-.52v-4.27ZM78.89 21.83l1.92 4.36h-.92l-.51-1.17h-1.7l-.54 1.17h-.57l2-4.36h.33Zm-1.02 2.8h1.34l-.61-1.38h-.11l-.62 1.38ZM81.5 21.92h1.43c.37 0 .72.05 1.03.14.31.09.58.23.81.41.22.18.4.4.53.66s.19.56.19.89a2.14 2.14 0 0 1-.62 1.54c-.2.2-.45.35-.75.47s-.64.17-1.02.17h-1.59v-4.27Zm.89 3.83h.59c.21 0 .4-.04.58-.11.18-.08.34-.19.48-.33.14-.15.24-.33.32-.54a2.13 2.13 0 0 0 .01-1.41c-.07-.2-.18-.38-.31-.53a1.35 1.35 0 0 0-.47-.35 1.47 1.47 0 0 0-.6-.13h-.59v3.4ZM88.01 21.83l1.92 4.36h-.92l-.51-1.17h-1.7l-.54 1.17h-.57l2-4.36h.33Zm-1.02 2.8h1.34l-.61-1.38h-.11l-.62 1.38Z"/>
</svg>
