<svg xmlns="http://www.w3.org/2000/svg" viewBox="0 0 565 950">
<g fill="#b3b3b3">
  <path d="M268.22 931.04h-6.16v6.16h-6.17v6.17h12.33v-6.17h6.17v-12.33h-6.17v6.17z"/>
  <path d="M274.39 918.71v6.16h6.16v-12.33h-6.16v6.17zM280.55 900.21v12.33h6.17v-18.49h-6.17v6.16zM286.72 875.55v18.5h6.16v-24.67h-6.16v6.17zM292.88 746.08v123.3h6.17v-123.3h-6.17z"/>
</g>
<path fill="#ffad3a" d="M299.05 739.91h-18.5v6.17h24.66v-6.17h-6.16z"/>
<g fill="#ffc94e">
  <path d="M231.23 746.08v6.16h12.33v-6.16h-12.33zM243.56 746.08h6.17v-6.17h-6.17v6.17zM249.73 733.74v6.17h12.33v-6.17h-12.33zM268.22 727.58h-6.16v6.16h12.33v-6.16h-6.17z"/>
</g>
<path fill="#ff9f3a" d="M329.88 733.74v-12.33h-6.17v-6.16h-6.16v6.16h-12.34v6.17h-18.49v12.33h12.33v-6.17h6.16v6.17h12.34v6.17h18.49v-12.34h-6.16zM268.22 721.41h-18.49v-6.16h-12.34v18.49h-6.16v12.34h12.33v-6.17h6.17v-6.17h12.33v-6.16h12.33v-6.17h-6.17z"/>
<path fill="#ffad3a" d="M317.55 702.92v6.16h-12.34v6.17h-36.99v-6.17h-18.49v-6.16h-6.17v12.33h6.17v6.16h24.66v6.17h30.82v-6.17h12.34v-6.16h6.16v-12.33h-6.16z"/>
<path fill="#ffc94e" d="M342.21 739.91v-12.33h-6.17v-30.83h-6.16v12.33h-6.17v12.33h6.17v12.33h6.16v12.34h-6.16v6.16h18.49v-12.33h-6.16z"/>
<path fill="#fff8a9" d="M336.04 684.42h-6.16v6.17h-6.17v18.49h6.17v-12.33h6.16v-6.16h6.17v-6.17h-6.17z"/>
<path fill="#ffffc7" d="M249.73 672.09h6.16v-6.17h-6.16v6.17zM280.55 653.59h-6.16v6.17h-12.33v12.33h18.49v-6.17h6.17v-12.33h-6.17zM286.72 647.43h6.16v-6.17h-6.16v6.17z"/>
<path fill="#ffeb3c" d="M292.88 653.59v-6.16h-6.16v-6.17h-6.17v12.33h6.17v12.33h-6.17v6.17h-18.49v-6.17h-6.17v6.17h-6.16v6.17h43.15v-6.17h6.17v-18.5h-6.17z"/>
<g fill="#fcee21">
  <path d="M274.39 727.58v6.16h-12.33v6.17h-12.33v6.17h-6.17v6.16h-12.33v6.17h18.5v-6.17h6.16v-6.16h12.33v-6.17h12.33v-6.17h6.17v-6.16h-12.33zM366.87 665.92v-6.16h-12.33v-6.17h-24.66v6.17h18.49v6.16h12.33v12.34h-6.16v6.16h-12.33v6.17h-6.17v36.99h6.17v12.33h6.16v12.33h-12.33v6.17h18.5v-24.67h-6.17v-18.49h-6.16v-18.5h6.16v-6.16h12.33v-6.17h6.17v-6.16h6.16v-12.34h-6.16zM323.71 647.43h-6.16v6.16h12.33v-6.16h-6.17zM317.55 635.1h-6.17v6.16h6.17v-6.16z"/>
</g>
<g fill="#ffd533">
  <path d="M317.55 665.92v-6.16h-12.34v-12.33h-6.16v-18.5h-12.33v6.17h-6.17v6.16h12.33v12.33h6.17v18.5h-6.17v6.17h-43.15v-12.34h12.33v-6.16h-18.5v6.16h-6.17v12.34h6.17v6.16h6.17v6.17h12.33v6.16h36.99v-6.16h18.5v-6.17h6.16v-18.5h-6.16z"/>
  <path d="M274.39 659.76v-6.17h-12.33v6.17h12.33zM280.55 647.43h-6.16v6.16h6.16v-6.16z"/>
</g>
<g fill="#ffc94e">
  <path d="M354.54 665.92h-6.17v-6.16h-18.49v6.16h12.33v12.34h-6.17v6.16h18.5v-6.16h6.16v-12.34h-6.16zM323.71 653.59v6.17h6.17v-6.17h-6.17zM311.38 647.43h6.17v-6.17h-6.17v6.17zM311.38 628.93v-6.16h-6.17v12.33h6.17v-6.17z"/>
</g>
<path fill="#ffc43a" d="M336.04 665.92h-6.17v-6.17h-6.17v-6.17h-6.17v-6.17h-6.17v-12.33h-6.17v-24.66h-6.17v-6.17h-12.33v6.17h-6.17v12.33h-6.17v12.33h-6.17v12.33h-12.33v6.17h-24.66v6.17h-12.33v6.17h-6.17v12.33h6.17v6.17h6.17v6.17h12.33v6.17h6.17v6.17h6.17v6.17h18.5v6.17h36.99v-6.17h12.33v-6.17h6.17V690.6h6.17v-6.17h6.17v-6.17h6.17v-12.33h-6.17Zm-18.49 18.5v6.17h-18.5v6.17h-36.99v-6.17h-12.33v-6.17h-6.17v-6.17h-6.17v-12.33h6.17v-6.17h18.5v-6.17h12.33v-6.17h6.17v-12.33h6.17v-6.17h12.33v18.5h6.17v12.33h12.33v6.17h6.17v18.5h-6.17Z"/>
</svg>