<svg xmlns="http://www.w3.org/2000/svg" viewBox="0 0 200 200">
<defs>
<clipPath id="clp">
<rect width="200" height="100"/>
</clipPath>
</defs>
<path id="Combined-Shape" fill-rule="evenodd" clip-rule="evenodd" fill="#004155" d="M63.389,77.567c7.813,0,14.148,5.434,14.148,12.139c0,3.777-2.01,7.15-5.162,9.376c3.711,2.346,6.117,6.106,6.117,10.346c0,7.109-6.762,12.873-15.103,12.873c-7.965,0-14.489-5.254-15.062-11.917l0,0h5.817c0.243,1.518,1.058,2.954,2.359,4.121c1.801,1.617,4.247,2.507,6.886,2.507c2.639,0,5.084-0.89,6.886-2.507c1.571-1.41,2.437-3.213,2.437-5.077c0-1.864-0.866-3.667-2.437-5.076c-1.801-1.617-4.247-2.507-6.886-2.507l0,0h-3.092v-5.289l3.113-0.001c2.376-0.005,4.574-0.814,6.192-2.28c1.404-1.272,2.177-2.895,2.177-4.57c0-1.675-0.773-3.298-2.177-4.57c-1.623-1.47-3.83-2.28-6.213-2.28c-2.384,0-4.591,0.81-6.213,2.28c-1.404,1.272-2.178,2.895-2.178,4.57l0,0h-5.757l0.002-0.221C49.38,82.883,55.661,77.567,63.389,77.567z M149.102,78.268v5.289h-21.019v11.668c2.078-1.525,4.765-2.938,8.624-2.938c8.385,0,15.183,6.719,15.183,15.007c0,8.288-6.798,15.007-15.183,15.007c-7.313,0-13.418-5.112-14.86-11.917l0,0h5.465c1.305,3.925,5.023,6.765,9.395,6.765c5.455,0,9.893-4.421,9.893-9.855c0-5.434-4.438-9.855-9.893-9.855c-3.697,0-6.926,2.108-8.624,5.107l0,0h-5.289V78.268H149.102z M109.168,78.268L98.761,92.33c0.381-0.028,0.766-0.043,1.154-0.043c8.386,0,15.183,6.719,15.183,15.007c0,8.288-6.797,15.007-15.183,15.007c-8.385,0-15.183-6.719-15.183-15.007c0-3.411,1.152-6.556,3.092-9.076l0,0l14.763-19.95H109.168z M99.916,97.439c-5.456,0-9.893,4.42-9.893,9.855c0,5.434,4.438,9.855,9.893,9.855s9.894-4.421,9.894-9.855C109.81,101.86,105.371,97.439,99.916,97.439z"/>
<g clip-path="url(#clp)">
<g transform="translate(100,100)">
<circle stroke-dasharray="502.6" stroke-dashoffset="758.9" fill="none" stroke="#004155" stroke-width="10.6" stroke-miterlimit="10" cx="0" cy="0" r="80">
<animateTransform attributeName="transform" type="rotate" values="0 0 0;360 0 0" times="0;1" dur="1.8s" calcMode="spline" keySplines="0.5 0 0.5 1" begin="0" repeatCount="indefinite"></animateTransform>
</circle>
</g>
</g>
</svg>
