{
    "asset" : {
        "generator" : "Khronos glTF Blender I/O v1.3.48",
        "version" : "2.0"
    },
    "scene" : 0,
    "scenes" : [
        {
            "name" : "Scene",
            "nodes" : [
                0
            ]
        }
    ],
    "nodes" : [
        {
            "mesh" : 0,
            "name" : "grass_tile"
        }
    ],
    "materials" : [
        {
            "doubleSided" : true,
            "emissiveFactor" : [
                0,
                0,
                0
            ],
            "name" : "grass",
            "pbrMetallicRoughness" : {
                "baseColorFactor" : [
                    0.37123775482177734,
                    0.6724432706832886,
                    0.006048833951354027,
                    1
                ],
                "metallicFactor" : 0,
                "roughnessFactor" : 0.800000011920929
            }
        },
        {
            "doubleSided" : true,
            "emissiveFactor" : [
                0,
                0,
                0
            ],
            "name" : "plate",
            "pbrMetallicRoughness" : {
                "baseColorFactor" : [
                    0.26200687885284424,
                    0.3031672239303589,
                    0.3031672239303589,
                    1
                ],
                "metallicFactor" : 0,
                "roughnessFactor" : 0
            }
        },
        {
            "doubleSided" : true,
            "emissiveFactor" : [
                0,
                0,
                0
            ],
            "name" : "bolt",
            "pbrMetallicRoughness" : {
                "baseColorFactor" : [
                    0.13286834955215454,
                    0.29177066683769226,
                    0.34191441535949707,
                    1
                ],
                "metallicFactor" : 0,
                "roughnessFactor" : 0
            }
        },
        {
            "doubleSided" : true,
            "emissiveFactor" : [
                0,
                0,
                0
            ],
            "name" : "wood_1",
            "pbrMetallicRoughness" : {
                "baseColorFactor" : [
                    0.39307940006256104,
                    0.10347320139408112,
                    0.005973887164145708,
                    1
                ],
                "metallicFactor" : 0,
                "roughnessFactor" : 0.800000011920929
            }
        },
        {
            "doubleSided" : true,
            "emissiveFactor" : [
                0,
                0,
                0
            ],
            "name" : "grass2",
            "pbrMetallicRoughness" : {
                "baseColorFactor" : [
                    0.25977736711502075,
                    0.4671596586704254,
                    0.004887118469923735,
                    1
                ],
                "metallicFactor" : 0,
                "roughnessFactor" : 0.800000011920929
            }
        }
    ],
    "meshes" : [
        {
            "name" : "grass_tile",
            "primitives" : [
                {
                    "attributes" : {
                        "POSITION" : 0,
                        "NORMAL" : 1
                    },
                    "indices" : 2,
                    "material" : 0
                },
                {
                    "attributes" : {
                        "POSITION" : 3,
                        "NORMAL" : 4
                    },
                    "indices" : 5,
                    "material" : 1
                },
                {
                    "attributes" : {
                        "POSITION" : 6,
                        "NORMAL" : 7
                    },
                    "indices" : 8,
                    "material" : 2
                },
                {
                    "attributes" : {
                        "POSITION" : 9,
                        "NORMAL" : 10
                    },
                    "indices" : 11,
                    "material" : 3
                },
                {
                    "attributes" : {
                        "POSITION" : 12,
                        "NORMAL" : 13
                    },
                    "indices" : 5,
                    "material" : 4
                }
            ]
        }
    ],
    "accessors" : [
        {
            "bufferView" : 0,
            "componentType" : 5126,
            "count" : 3368,
            "max" : [
                2.545097827911377,
                -0.18313226103782654,
                2.591073989868164
            ],
            "min" : [
                -2.564476490020752,
                -1.1534900665283203,
                -2.590411901473999
            ],
            "type" : "VEC3"
        },
        {
            "bufferView" : 1,
            "componentType" : 5126,
            "count" : 3368,
            "type" : "VEC3"
        },
        {
            "bufferView" : 2,
            "componentType" : 5123,
            "count" : 4644,
            "type" : "SCALAR"
        },
        {
            "bufferView" : 3,
            "componentType" : 5126,
            "count" : 288,
            "max" : [
                2.382882833480835,
                -0.667989194393158,
                2.4123857021331787
            ],
            "min" : [
                -2.4026691913604736,
                -1.5902820825576782,
                -2.381093978881836
            ],
            "type" : "VEC3"
        },
        {
            "bufferView" : 4,
            "componentType" : 5126,
            "count" : 288,
            "type" : "VEC3"
        },
        {
            "bufferView" : 5,
            "componentType" : 5123,
            "count" : 432,
            "type" : "SCALAR"
        },
        {
            "bufferView" : 6,
            "componentType" : 5126,
            "count" : 136,
            "max" : [
                2.39888596534729,
                -0.7522467970848083,
                2.4281561374664307
            ],
            "min" : [
                -2.4147067070007324,
                -1.543350100517273,
                -2.399155855178833
            ],
            "type" : "VEC3"
        },
        {
            "bufferView" : 7,
            "componentType" : 5126,
            "count" : 136,
            "type" : "VEC3"
        },
        {
            "bufferView" : 8,
            "componentType" : 5123,
            "count" : 576,
            "type" : "SCALAR"
        },
        {
            "bufferView" : 9,
            "componentType" : 5126,
            "count" : 212,
            "max" : [
                2.446413278579712,
                -0.5406847596168518,
                2.446237802505493
            ],
            "min" : [
                -2.4459869861602783,
                -1.9396531581878662,
                -2.4461770057678223
            ],
            "type" : "VEC3"
        },
        {
            "bufferView" : 10,
            "componentType" : 5126,
            "count" : 212,
            "type" : "VEC3"
        },
        {
            "bufferView" : 11,
            "componentType" : 5123,
            "count" : 360,
            "type" : "SCALAR"
        },
        {
            "bufferView" : 12,
            "componentType" : 5126,
            "count" : 288,
            "max" : [
                2.083059787750244,
                -0.07546775788068771,
                2.1183714866638184
            ],
            "min" : [
                -2.33449125289917,
                -0.4103448688983917,
                -2.137995719909668
            ],
            "type" : "VEC3"
        },
        {
            "bufferView" : 13,
            "componentType" : 5126,
            "count" : 288,
            "type" : "VEC3"
        }
    ],
    "bufferViews" : [
        {
            "buffer" : 0,
            "byteLength" : 40416,
            "byteOffset" : 0
        },
        {
            "buffer" : 0,
            "byteLength" : 40416,
            "byteOffset" : 40416
        },
        {
            "buffer" : 0,
            "byteLength" : 9288,
            "byteOffset" : 80832
        },
        {
            "buffer" : 0,
            "byteLength" : 3456,
            "byteOffset" : 90120
        },
        {
            "buffer" : 0,
            "byteLength" : 3456,
            "byteOffset" : 93576
        },
        {
            "buffer" : 0,
            "byteLength" : 864,
            "byteOffset" : 97032
        },
        {
            "buffer" : 0,
            "byteLength" : 1632,
            "byteOffset" : 97896
        },
        {
            "buffer" : 0,
            "byteLength" : 1632,
            "byteOffset" : 99528
        },
        {
            "buffer" : 0,
            "byteLength" : 1152,
            "byteOffset" : 101160
        },
        {
            "buffer" : 0,
            "byteLength" : 2544,
            "byteOffset" : 102312
        },
        {
            "buffer" : 0,
            "byteLength" : 2544,
            "byteOffset" : 104856
        },
        {
            "buffer" : 0,
            "byteLength" : 720,
            "byteOffset" : 107400
        },
        {
            "buffer" : 0,
            "byteLength" : 3456,
            "byteOffset" : 108120
        },
        {
            "buffer" : 0,
            "byteLength" : 3456,
            "byteOffset" : 111576
        }
    ],
    "buffers" : [
        {
            "byteLength" : 115032,
            "uri" : "data:application/octet-stream;base64,"
        }
    ]
}
