{
    "asset" : {
        "generator" : "Khronos glTF Blender I/O v1.3.48",
        "version" : "2.0"
    },
    "scene" : 0,
    "scenes" : [
        {
            "name" : "Scene",
            "nodes" : [
                0
            ]
        }
    ],
    "nodes" : [
        {
            "mesh" : 0,
            "name" : "wooden_trampoline"
        }
    ],
    "materials" : [
        {
            "doubleSided" : true,
            "emissiveFactor" : [
                0,
                0,
                0
            ],
            "name" : "plastic_sheet",
            "pbrMetallicRoughness" : {
                "baseColorFactor" : [
                    0.0071894265711307526,
                    0.0071894265711307526,
                    0.0071894265711307526,
                    1
                ],
                "metallicFactor" : 0,
                "roughnessFactor" : 0.5
            }
        },
        {
            "doubleSided" : true,
            "emissiveFactor" : [
                0,
                0,
                0
            ],
            "name" : "wood_1",
            "pbrMetallicRoughness" : {
                "baseColorFactor" : [
                    0.32634398341178894,
                    0.1785639226436615,
                    0.07605083286762238,
                    1
                ],
                "metallicFactor" : 0,
                "roughnessFactor" : 0.5
            }
        },
        {
            "doubleSided" : true,
            "emissiveFactor" : [
                0,
                0,
                0
            ],
            "name" : "wood_2",
            "pbrMetallicRoughness" : {
                "baseColorFactor" : [
                    0.7742145657539368,
                    0.4157073497772217,
                    0.17067359387874603,
                    1
                ],
                "metallicFactor" : 0,
                "roughnessFactor" : 0.5
            }
        }
    ],
    "meshes" : [
        {
            "name" : "wooden_trampoline",
            "primitives" : [
                {
                    "attributes" : {
                        "POSITION" : 0,
                        "NORMAL" : 1
                    },
                    "indices" : 2,
                    "material" : 0
                },
                {
                    "attributes" : {
                        "POSITION" : 3,
                        "NORMAL" : 4
                    },
                    "indices" : 5,
                    "material" : 1
                },
                {
                    "attributes" : {
                        "POSITION" : 6,
                        "NORMAL" : 7
                    },
                    "indices" : 8,
                    "material" : 2
                }
            ]
        }
    ],
    "accessors" : [
        {
            "bufferView" : 0,
            "componentType" : 5126,
            "count" : 296,
            "max" : [
                1.4571770429611206,
                0.9332794547080994,
                1.457176685333252
            ],
            "min" : [
                -1.4571770429611206,
                0.8809645771980286,
                -1.457176685333252
            ],
            "type" : "VEC3"
        },
        {
            "bufferView" : 1,
            "componentType" : 5126,
            "count" : 296,
            "type" : "VEC3"
        },
        {
            "bufferView" : 2,
            "componentType" : 5123,
            "count" : 480,
            "type" : "SCALAR"
        },
        {
            "bufferView" : 3,
            "componentType" : 5126,
            "count" : 360,
            "max" : [
                2.0023179054260254,
                0.9332794547080994,
                2.002317428588867
            ],
            "min" : [
                -2.0023179054260254,
                -0.021130410954356194,
                -2.0023179054260254
            ],
            "type" : "VEC3"
        },
        {
            "bufferView" : 4,
            "componentType" : 5126,
            "count" : 360,
            "type" : "VEC3"
        },
        {
            "bufferView" : 5,
            "componentType" : 5123,
            "count" : 1536,
            "type" : "SCALAR"
        },
        {
            "bufferView" : 6,
            "componentType" : 5126,
            "count" : 296,
            "max" : [
                1.8339474201202393,
                0.9332794547080994,
                1.8339471817016602
            ],
            "min" : [
                -1.8339474201202393,
                0.8908863067626953,
                -1.8339474201202393
            ],
            "type" : "VEC3"
        },
        {
            "bufferView" : 7,
            "componentType" : 5126,
            "count" : 296,
            "type" : "VEC3"
        },
        {
            "bufferView" : 8,
            "componentType" : 5123,
            "count" : 576,
            "type" : "SCALAR"
        }
    ],
    "bufferViews" : [
        {
            "buffer" : 0,
            "byteLength" : 3552,
            "byteOffset" : 0
        },
        {
            "buffer" : 0,
            "byteLength" : 3552,
            "byteOffset" : 3552
        },
        {
            "buffer" : 0,
            "byteLength" : 960,
            "byteOffset" : 7104
        },
        {
            "buffer" : 0,
            "byteLength" : 4320,
            "byteOffset" : 8064
        },
        {
            "buffer" : 0,
            "byteLength" : 4320,
            "byteOffset" : 12384
        },
        {
            "buffer" : 0,
            "byteLength" : 3072,
            "byteOffset" : 16704
        },
        {
            "buffer" : 0,
            "byteLength" : 3552,
            "byteOffset" : 19776
        },
        {
            "buffer" : 0,
            "byteLength" : 3552,
            "byteOffset" : 23328
        },
        {
            "buffer" : 0,
            "byteLength" : 1152,
            "byteOffset" : 26880
        }
    ],
    "buffers" : [
        {
            "byteLength" : 28032,
            "uri" : "data:application/octet-stream;base64,"
        }
    ]
}
