{
    "asset" : {
        "generator" : "Khronos glTF Blender I/O v1.3.48",
        "version" : "2.0"
    },
    "scene" : 0,
    "scenes" : [
        {
            "name" : "Scene",
            "nodes" : [
                0
            ]
        }
    ],
    "nodes" : [
        {
            "mesh" : 0,
            "name" : "wooden_swim"
        }
    ],
    "materials" : [
        {
            "doubleSided" : true,
            "emissiveFactor" : [
                0,
                0,
                0
            ],
            "name" : "wood_2",
            "pbrMetallicRoughness" : {
                "baseColorFactor" : [
                    0.7742145657539368,
                    0.4157073497772217,
                    0.17067359387874603,
                    1
                ],
                "metallicFactor" : 0,
                "roughnessFactor" : 0.5
            }
        },
        {
            "doubleSided" : true,
            "emissiveFactor" : [
                0,
                0,
                0
            ],
            "name" : "wood_1",
            "pbrMetallicRoughness" : {
                "baseColorFactor" : [
                    0.32634398341178894,
                    0.1785639226436615,
                    0.07605083286762238,
                    1
                ],
                "metallicFactor" : 0,
                "roughnessFactor" : 0.5
            }
        },
        {
            "doubleSided" : true,
            "emissiveFactor" : [
                0,
                0,
                0
            ],
            "name" : "wood_3",
            "pbrMetallicRoughness" : {
                "baseColorFactor" : [
                    0.5172885656356812,
                    0.31861409544944763,
                    0.11684674024581909,
                    1
                ],
                "metallicFactor" : 0,
                "roughnessFactor" : 0.5
            }
        }
    ],
    "meshes" : [
        {
            "name" : "wooden_swim",
            "primitives" : [
                {
                    "attributes" : {
                        "POSITION" : 0,
                        "NORMAL" : 1
                    },
                    "indices" : 2,
                    "material" : 0
                },
                {
                    "attributes" : {
                        "POSITION" : 3,
                        "NORMAL" : 4
                    },
                    "indices" : 5,
                    "material" : 1
                },
                {
                    "attributes" : {
                        "POSITION" : 6,
                        "NORMAL" : 7
                    },
                    "indices" : 8,
                    "material" : 2
                }
            ]
        }
    ],
    "accessors" : [
        {
            "bufferView" : 0,
            "componentType" : 5126,
            "count" : 1496,
            "max" : [
                2.043030023574829,
                3.2063426971435547,
                0.17313310503959656
            ],
            "min" : [
                -2.043030023574829,
                0.00890420377254486,
                -0.17313310503959656
            ],
            "type" : "VEC3"
        },
        {
            "bufferView" : 1,
            "componentType" : 5126,
            "count" : 1496,
            "type" : "VEC3"
        },
        {
            "bufferView" : 2,
            "componentType" : 5123,
            "count" : 2388,
            "type" : "SCALAR"
        },
        {
            "bufferView" : 3,
            "componentType" : 5126,
            "count" : 104,
            "max" : [
                2.043030023574829,
                3.2063426971435547,
                0.07373803853988647
            ],
            "min" : [
                -2.043030023574829,
                0.00890420377254486,
                -0.07353968173265457
            ],
            "type" : "VEC3"
        },
        {
            "bufferView" : 4,
            "componentType" : 5126,
            "count" : 104,
            "type" : "VEC3"
        },
        {
            "bufferView" : 5,
            "componentType" : 5123,
            "count" : 480,
            "type" : "SCALAR"
        },
        {
            "bufferView" : 6,
            "componentType" : 5126,
            "count" : 54,
            "max" : [
                2.043030023574829,
                3.2063426971435547,
                0.030612319707870483
            ],
            "min" : [
                -2.043030023574829,
                0.00890420377254486,
                -0.03041425161063671
            ],
            "type" : "VEC3"
        },
        {
            "bufferView" : 7,
            "componentType" : 5126,
            "count" : 54,
            "type" : "VEC3"
        },
        {
            "bufferView" : 8,
            "componentType" : 5123,
            "count" : 144,
            "type" : "SCALAR"
        }
    ],
    "bufferViews" : [
        {
            "buffer" : 0,
            "byteLength" : 17952,
            "byteOffset" : 0
        },
        {
            "buffer" : 0,
            "byteLength" : 17952,
            "byteOffset" : 17952
        },
        {
            "buffer" : 0,
            "byteLength" : 4776,
            "byteOffset" : 35904
        },
        {
            "buffer" : 0,
            "byteLength" : 1248,
            "byteOffset" : 40680
        },
        {
            "buffer" : 0,
            "byteLength" : 1248,
            "byteOffset" : 41928
        },
        {
            "buffer" : 0,
            "byteLength" : 960,
            "byteOffset" : 43176
        },
        {
            "buffer" : 0,
            "byteLength" : 648,
            "byteOffset" : 44136
        },
        {
            "buffer" : 0,
            "byteLength" : 648,
            "byteOffset" : 44784
        },
        {
            "buffer" : 0,
            "byteLength" : 288,
            "byteOffset" : 45432
        }
    ],
    "buffers" : [
        {
            "byteLength" : 45720,
            "uri" : "data:application/octet-stream;base64,"
        }
    ]
}
