{
    "asset" : {
        "generator" : "Khronos glTF Blender I/O v1.3.48",
        "version" : "2.0"
    },
    "scene" : 0,
    "scenes" : [
        {
            "name" : "Scene",
            "nodes" : [
                0
            ]
        }
    ],
    "nodes" : [
        {
            "mesh" : 0,
            "name" : "wooden_pool"
        }
    ],
    "materials" : [
        {
            "doubleSided" : true,
            "emissiveFactor" : [
                0,
                0,
                0
            ],
            "name" : "wood_2",
            "pbrMetallicRoughness" : {
                "baseColorFactor" : [
                    0.7742145657539368,
                    0.4157073497772217,
                    0.17067359387874603,
                    1
                ],
                "metallicFactor" : 0,
                "roughnessFactor" : 0.5
            }
        },
        {
            "doubleSided" : true,
            "emissiveFactor" : [
                0,
                0,
                0
            ],
            "name" : "pool_water",
            "pbrMetallicRoughness" : {
                "baseColorFactor" : [
                    0.5128417611122131,
                    0.5643254518508911,
                    0.8000000715255737,
                    1
                ],
                "metallicFactor" : 0,
                "roughnessFactor" : 0
            }
        },
        {
            "doubleSided" : true,
            "emissiveFactor" : [
                0,
                0,
                0
            ],
            "name" : "pool_walls",
            "pbrMetallicRoughness" : {
                "baseColorFactor" : [
                    0.2668299973011017,
                    0.31939658522605896,
                    0.8000000715255737,
                    1
                ],
                "metallicFactor" : 0,
                "roughnessFactor" : 0
            }
        }
    ],
    "meshes" : [
        {
            "name" : "wooden_pool",
            "primitives" : [
                {
                    "attributes" : {
                        "POSITION" : 0,
                        "NORMAL" : 1
                    },
                    "indices" : 2,
                    "material" : 0
                },
                {
                    "attributes" : {
                        "POSITION" : 3,
                        "NORMAL" : 4
                    },
                    "indices" : 5,
                    "material" : 1
                },
                {
                    "attributes" : {
                        "POSITION" : 6,
                        "NORMAL" : 7
                    },
                    "indices" : 8,
                    "material" : 2
                }
            ]
        }
    ],
    "accessors" : [
        {
            "bufferView" : 0,
            "componentType" : 5126,
            "count" : 2720,
            "max" : [
                1.5229231119155884,
                1.0038806200027466,
                2.8544695377349854
            ],
            "min" : [
                -1.527449607849121,
                -0.018738120794296265,
                -2.8544695377349854
            ],
            "type" : "VEC3"
        },
        {
            "bufferView" : 1,
            "componentType" : 5126,
            "count" : 2720,
            "type" : "VEC3"
        },
        {
            "bufferView" : 2,
            "componentType" : 5123,
            "count" : 4128,
            "type" : "SCALAR"
        },
        {
            "bufferView" : 3,
            "componentType" : 5126,
            "count" : 172,
            "max" : [
                1.6326862573623657,
                1.4279048442840576,
                2.184459924697876
            ],
            "min" : [
                -1.114158272743225,
                0.8427736759185791,
                -2.184459924697876
            ],
            "type" : "VEC3"
        },
        {
            "bufferView" : 4,
            "componentType" : 5126,
            "count" : 172,
            "type" : "VEC3"
        },
        {
            "bufferView" : 5,
            "componentType" : 5123,
            "count" : 966,
            "type" : "SCALAR"
        },
        {
            "bufferView" : 6,
            "componentType" : 5126,
            "count" : 56,
            "max" : [
                1.3497833013534546,
                0.9397155046463013,
                2.3683245182037354
            ],
            "min" : [
                -1.3497833013534546,
                0.08413872122764587,
                -2.3683245182037354
            ],
            "type" : "VEC3"
        },
        {
            "bufferView" : 7,
            "componentType" : 5126,
            "count" : 56,
            "type" : "VEC3"
        },
        {
            "bufferView" : 8,
            "componentType" : 5123,
            "count" : 84,
            "type" : "SCALAR"
        }
    ],
    "bufferViews" : [
        {
            "buffer" : 0,
            "byteLength" : 32640,
            "byteOffset" : 0
        },
        {
            "buffer" : 0,
            "byteLength" : 32640,
            "byteOffset" : 32640
        },
        {
            "buffer" : 0,
            "byteLength" : 8256,
            "byteOffset" : 65280
        },
        {
            "buffer" : 0,
            "byteLength" : 2064,
            "byteOffset" : 73536
        },
        {
            "buffer" : 0,
            "byteLength" : 2064,
            "byteOffset" : 75600
        },
        {
            "buffer" : 0,
            "byteLength" : 1932,
            "byteOffset" : 77664
        },
        {
            "buffer" : 0,
            "byteLength" : 672,
            "byteOffset" : 79596
        },
        {
            "buffer" : 0,
            "byteLength" : 672,
            "byteOffset" : 80268
        },
        {
            "buffer" : 0,
            "byteLength" : 168,
            "byteOffset" : 80940
        }
    ],
    "buffers" : [
        {
            "byteLength" : 81108,
            "uri" : "data:application/octet-stream;base64,"
        }
    ]
}
