<svg xmlns="http://www.w3.org/2000/svg" xml:space="preserve" viewBox="0 0 923 279">
  <path fill="#FFF" fill-rule="evenodd" d="M572.66 217.54c-53.64 39.54-131.39 60.63-198.33 60.63-93.86 0-178.36-34.72-242.29-92.46-5.02-4.54-.52-10.73 5.51-7.19 68.99 40.14 154.3 64.29 242.41 64.29 59.43 0 124.8-12.3 184.91-37.81 9.07-3.85 16.67 5.95 7.79 12.54" clip-rule="evenodd"/>
  <path fill="#FFF" fill-rule="evenodd" d="M594.96 192.02c-6.83-8.76-45.32-4.14-62.6-2.09-5.26.64-6.07-3.94-1.33-7.23 30.66-21.58 80.96-15.35 86.83-8.12 5.87 7.27-1.53 57.7-30.34 81.77-4.42 3.7-8.64 1.73-6.67-3.17 6.48-16.15 20.98-52.36 14.11-61.16" clip-rule="evenodd"/>
  <path fill="#FFF" fill-rule="evenodd" d="M533.56 30.38V9.4c0-3.17 2.41-5.3 5.3-5.3h93.9a5.23 5.23 0 0 1 5.42 5.3v17.96c-.04 3.01-2.57 6.95-7.07 13.18l-48.66 69.47c18.08-.44 37.17 2.25 53.56 11.49 3.7 2.09 4.7 5.14 4.98 8.16v22.38c0 3.05-3.38 6.63-6.91 4.78-28.89-15.15-67.26-16.8-99.21.16-3.25 1.77-6.67-1.77-6.67-4.82V130.9c0-3.42.04-9.24 3.46-14.42l56.37-80.84h-49.06c-3 0-5.41-2.13-5.41-5.26M191.02 161.25h-28.57a5.4 5.4 0 0 1-5.1-4.86V9.76a5.36 5.36 0 0 1 5.5-5.26h26.64a5.38 5.38 0 0 1 5.18 4.9v19.17h.52c6.95-18.52 20.01-27.16 37.61-27.16 17.88 0 29.05 8.64 37.09 27.16 6.91-18.52 22.62-27.16 39.46-27.16 11.97 0 25.07 4.94 33.07 16.03 9.04 12.34 7.19 30.26 7.19 45.97l-.04 92.54a5.4 5.4 0 0 1-5.5 5.3h-28.53a5.43 5.43 0 0 1-5.14-5.3V78.23c0-6.19.56-21.62-.8-27.48-2.13-9.84-8.52-12.62-16.8-12.62-6.91 0-14.14 4.62-17.08 12.01-2.93 7.39-2.65 19.77-2.65 28.09v77.71a5.4 5.4 0 0 1-5.51 5.3h-28.53a5.4 5.4 0 0 1-5.14-5.3l-.04-77.71c0-16.35 2.69-40.42-17.6-40.42-20.53 0-19.73 23.46-19.73 40.42v77.71a5.4 5.4 0 0 1-5.5 5.31M719.04 1.41c42.39 0 65.33 36.4 65.33 82.69 0 44.72-25.35 80.2-65.34 80.2-41.63 0-64.29-36.4-64.29-81.77.01-45.64 22.95-81.12 64.3-81.12m.24 29.93c-21.06 0-22.38 28.69-22.38 46.57 0 17.92-.28 56.17 22.14 56.17 22.14 0 23.18-30.86 23.18-49.66 0-12.38-.52-27.16-4.26-38.89-3.21-10.21-9.6-14.19-18.68-14.19m120.06 129.91h-28.45a5.43 5.43 0 0 1-5.14-5.3l-.04-146.67a5.4 5.4 0 0 1 5.5-4.78h26.48a5.46 5.46 0 0 1 5.1 4.1v22.42h.52c8-20.05 19.21-29.61 38.94-29.61 12.82 0 25.31 4.62 33.35 17.28 7.47 11.73 7.47 31.46 7.47 45.65v92.29a5.48 5.48 0 0 1-5.5 4.62h-28.65a5.4 5.4 0 0 1-5.06-4.62V76.99c0-16.03 1.85-39.5-17.88-39.5-6.95 0-13.34 4.66-16.51 11.73-4.02 8.96-4.54 17.88-4.54 27.77v78.95a5.5 5.5 0 0 1-5.59 5.31M458.71 91.21c0 11.13.28 20.41-5.34 30.3-4.54 8.04-11.77 12.98-19.77 12.98-10.97 0-17.4-8.36-17.4-20.69 0-24.35 21.82-28.77 42.51-28.77v6.18m28.8 69.63a5.95 5.95 0 0 1-6.75.68c-9.48-7.88-11.21-11.53-16.39-19.05-15.67 15.99-26.8 20.77-47.09 20.77-24.07 0-42.75-14.83-42.75-44.52 0-23.18 12.54-38.98 30.46-46.69 15.51-6.83 37.17-8.04 53.72-9.92v-3.7c0-6.79.52-14.83-3.5-20.69-3.46-5.26-10.13-7.43-16.03-7.43-10.89 0-20.57 5.58-22.94 17.16-.48 2.57-2.37 5.1-4.98 5.22l-27.68-2.97c-2.33-.52-4.94-2.41-4.26-5.99C385.66 10.13 416.03 0 443.2 0c13.9 0 32.06 3.7 43.03 14.22 13.9 12.98 12.58 30.3 12.58 49.14v44.52c0 13.38 5.55 19.25 10.77 26.48 1.81 2.57 2.21 5.67-.12 7.59-5.83 4.86-16.19 13.9-21.9 18.97l-.05-.08M84.18 91.21c0 11.13.28 20.41-5.34 30.3-4.54 8.04-11.73 12.98-19.77 12.98-10.97 0-17.36-8.36-17.36-20.69 0-24.35 21.82-28.77 42.47-28.77v6.18m28.81 69.63a5.95 5.95 0 0 1-6.75.68c-9.48-7.88-11.17-11.53-16.39-19.05-15.67 15.99-26.76 20.77-47.09 20.77C18.72 163.26 0 148.43 0 118.74c0-23.18 12.58-38.98 30.46-46.69 15.51-6.83 37.17-8.04 53.72-9.92v-3.7c0-6.79.52-14.83-3.46-20.69-3.5-5.26-10.16-7.43-16.03-7.43-10.89 0-20.61 5.58-22.98 17.16-.48 2.57-2.37 5.1-4.94 5.22L9.04 49.7c-2.33-.52-4.9-2.41-4.26-5.99C11.17 10.13 41.51 0 68.67 0c13.9 0 32.06 3.7 43.03 14.22 13.9 12.98 12.58 30.3 12.58 49.14v44.52c0 13.38 5.54 19.25 10.77 26.48 1.85 2.57 2.25 5.67-.08 7.59-5.83 4.86-16.19 13.9-21.9 18.97l-.08-.08" clip-rule="evenodd"/>
</svg>
