<svg xmlns="http://www.w3.org/2000/svg" xml:space="preserve" viewBox="0 0 800 640">
  <path fill="#FFF" d="M525.73 45.72c63.1 0 114.27 266.05 114.27 594.25h91.44C731.43 286.52 639.32 0 525.73 0c-64.63 0-122.3 86.11-160 220.76C328.03 86.11 270.34 0 205.72 0 92.12 0 0 286.52 0 639.97h91.45c0-328.2 51.17-594.25 114.27-594.25 63.12 0 114.3 245.59 114.3 548.55h91.42c0-302.96 51.16-548.55 114.29-548.55M777.2 594.27c12.4 0 22.8 9.82 22.8 22.74a22.71 22.71 0 0 1-22.8 22.95 22.8 22.8 0 0 1-22.93-22.95c0-12.92 10.49-22.74 22.93-22.74m0 42.36c10.5 0 18.66-8.44 18.66-19.61 0-10.97-8.16-19.4-18.66-19.4-10.63 0-18.78 8.43-18.78 19.4 0 11.16 8.15 19.61 18.78 19.61zm-8.89-32.89h10.3c6.3 0 9.28 2.51 9.28 7.63 0 4.83-3.01 6.85-6.96 7.26l7.58 11.81h-4.45l-7.23-11.49h-4.37v11.49h-4.15v-26.7zm4.15 11.87h4.32c3.64 0 6.99-.18 6.99-4.41 0-3.55-3.04-4.11-5.83-4.11h-5.47l-.01 8.52z"/>
</svg>
