<svg xmlns="http://www.w3.org/2000/svg" xmlns:xlink="http://www.w3.org/1999/xlink" viewBox="0 0 800 72">
<style>
/* <![CDATA[ */

#alink:hover #crcl1, #alink:hover #crcl4 {
  animation: st_move .4s linear infinite;
}

#alink:hover #crcl2, #alink:hover #crcl5 {
  animation: st_move .3s linear infinite;
}

#alink:hover #crcl3, #alink:hover #crcl6 {
  animation: st_move .2s linear infinite;
}

@keyframes st_move {
  0% {
    stroke-dashoffset: 24px;
  }
  100% {
    stroke-dashoffset: 12px;
  }
}

/* ]]> */
</style>
<defs>
  <linearGradient id="rect_bg" x2="0" y2="1">
    <stop offset="0" stop-color="#19506d"/>
    <stop offset="1" stop-color="#1f2d3c"/>
  </linearGradient>
  <linearGradient id="rect_st" x2="0" y2="1">
    <stop offset="0" stop-color="#9adbf5"/>
    <stop offset="1" stop-color="#00a1de"/>
  </linearGradient>
  <linearGradient id="circle_bg" x2="0" y2="1">
    <stop offset="0" stop-color="#00a1dd" stop-opacity=".37"/>
    <stop offset="0.15" stop-color="#9adbf5" stop-opacity="0"/>
  </linearGradient>
  <linearGradient id="circle_st" x2="0" y2="1">
    <stop offset="0" stop-color="#14a8e1"/>
    <stop offset="1" stop-color="#8ed7f5"/>
  </linearGradient>
  <linearGradient id="circle_bg2" x2="0" y1="1" y2="0" xlink:href="#circle_bg"/>
  <linearGradient id="circle_st2" x2="0" y1="1" y2="0" xlink:href="#circle_st"/>
  <clipPath id="clp">
    <path d="M10 1.5h780a8.5 8.5 0 0 1 8.5 8.5v52a8.5 8.5 0 0 1-8.5 8.5H10A8.5 8.5 0 0 1 1.5 62V10A8.5 8.5 0 0 1 10 1.5z"/>
  </clipPath>
</defs>
<a id="alink" href="javascript:;">
  <path fill="url(#rect_bg)" stroke="url(#rect_st)" stroke-width="3" d="M10 1.5h780a8.5 8.5 0 0 1 8.5 8.5v52a8.5 8.5 0 0 1-8.5 8.5H10A8.5 8.5 0 0 1 1.5 62V10A8.5 8.5 0 0 1 10 1.5z"/>
  <g stroke-dasharray="4 8" stroke-width="3" opacity=".3">
  <g clip-path="url(#clp)" fill="url(#circle_bg)" stroke="url(#circle_st)">
    <circle id="crcl1" cx="48" cy="180" r="198"/>
    <circle id="crcl2" cx="22" cy="150" r="163"/>
    <circle id="crcl3" cx="0" cy="102" r="115"/>
  </g>
  <g clip-path="url(#clp)" fill="url(#circle_bg2)" stroke="url(#circle_st2)">
    <circle id="crcl4" cx="740" cy="-110" r="197"/>
    <circle id="crcl5" cx="768" cy="-82" r="163"/>
    <circle id="crcl6" cx="794" cy="-35" r="115"/>
  </g>
  </g>
  <path fill="#FFF" d="M326 20h148a16 16 0 1 1 0 32H326a16 16 0 1 1 0-32z"/>
  <path fill="#00A1DF" d="M334 28a8.03 8.03 0 0 0-7.86 9.56 8.03 8.03 0 0 0 6.29 6.29 7.95 7.95 0 0 0 8.21-3.41A8 8 0 0 0 334 28zm3.22 8.6-4.92 2.46a.72.72 0 0 1-.33.07.75.75 0 0 1-.32-.1.59.59 0 0 1-.23-.24.62.62 0 0 1-.09-.32v-4.92a.6.6 0 0 1 .09-.32c.05-.1.13-.18.23-.24s.21-.09.32-.1c.11-.01.23.02.33.07l4.92 2.46c.11.06.21.14.27.25.07.11.1.23.1.35 0 .12-.04.25-.1.35a.87.87 0 0 1-.27.23z"/>
  <path fill="#2F5191" d="M362.48 32.63c0 .1-.01.18-.04.26l-1.94 6.77c-.08.27-.23.49-.46.66-.22.17-.46.25-.74.25h-.03c-.29 0-.54-.08-.75-.25a1.18 1.18 0 0 1-.43-.66l-1.31-5.12-1.3 5.12a1.2 1.2 0 0 1-.44.66c-.22.17-.46.25-.73.25h-.03c-.28 0-.53-.08-.75-.25a1.29 1.29 0 0 1-.46-.66l-1.95-6.79a.93.93 0 0 1 .23-.91c.18-.2.42-.3.72-.3.23 0 .42.07.6.21.18.14.3.32.36.55l1.38 5.67 1.48-5.67c.05-.2.16-.36.32-.48a.93.93 0 0 1 .59-.19c.2 0 .38.06.53.19a.9.9 0 0 1 .33.48l1.48 5.67 1.35-5.65a.93.93 0 0 1 .35-.55 1 1 0 0 1 .64-.22c.29 0 .53.1.72.3a.9.9 0 0 1 .28.66zm9.09 6.96c0 .24-.09.47-.27.68a.86.86 0 0 1-.71.31.98.98 0 0 1-.55-.16.9.9 0 0 1-.35-.46l-.34-.94h-3.72l-.35.94a.96.96 0 0 1-.36.46c-.16.1-.35.16-.55.16-.3 0-.53-.1-.72-.3a1.08 1.08 0 0 1-.26-.69c0-.14.02-.26.07-.35l2.54-6.51c.11-.29.3-.53.56-.7.27-.18.55-.27.86-.27.33-.03.64.05.94.23.3.17.52.42.64.74l2.52 6.51c.03.13.05.25.05.35zm-2.73-2.18-1.35-3.73-1.35 3.73h2.7zm10.43-4.76c0 .23-.08.42-.23.57s-.34.23-.56.23h-1.81v6.2a.9.9 0 0 1-.27.65.9.9 0 0 1-.66.27.9.9 0 0 1-.65-.27.9.9 0 0 1-.27-.65v-6.2H373a.78.78 0 0 1-.57-.23.82.82 0 0 1-.23-.6.79.79 0 0 1 .8-.79h5.47c.22 0 .4.08.56.25.16.15.24.34.24.57zm5.84-.96a3.94 3.94 0 0 1 3.16 1.43.83.83 0 0 1-.08 1.11.87.87 0 0 1-.62.23.94.94 0 0 1-.67-.3 3.01 3.01 0 0 0-.83-.61 2.1 2.1 0 0 0-.95-.22 2.66 2.66 0 0 0-2.52 1.72 3.2 3.2 0 0 0 .57 3.17c.24.25.53.45.86.6.34.14.7.21 1.09.21a2.45 2.45 0 0 0 1.78-.82c.1-.1.2-.17.33-.22a1 1 0 0 1 .38-.08c.23 0 .43.08.6.23.17.16.25.35.25.57 0 .1-.01.19-.04.27a.55.55 0 0 1-.14.23 3.88 3.88 0 0 1-3.15 1.45 4.95 4.95 0 0 1-3.29-1.24 4.42 4.42 0 0 1-1.32-3.25 4.47 4.47 0 0 1 1.32-3.24c.42-.4.91-.71 1.47-.92s1.16-.32 1.8-.32zm13.39 7.96a.9.9 0 0 1-.27.65.9.9 0 0 1-.66.27.9.9 0 0 1-.65-.27.9.9 0 0 1-.27-.65v-2.79h-4.1v2.81a.9.9 0 0 1-.27.65.93.93 0 0 1-.66.26.92.92 0 0 1-.65-.26.92.92 0 0 1-.26-.65v-7.01c0-.25.09-.46.27-.64a.9.9 0 0 1 .66-.27c.25 0 .46.09.64.27.18.17.27.39.27.64v2.57h4.1v-2.57a.93.93 0 0 1 .95-.91c.25 0 .46.09.64.27.18.17.27.39.27.64v6.99zm13.22-7c0 .23-.08.42-.23.57s-.34.23-.56.23h-1.81v6.2a.9.9 0 0 1-.27.65.9.9 0 0 1-.66.27.9.9 0 0 1-.65-.27.9.9 0 0 1-.27-.65v-6.2h-1.81a.78.78 0 0 1-.57-.23.82.82 0 0 1-.23-.6.79.79 0 0 1 .8-.79h5.47c.22 0 .4.08.56.25.15.15.23.34.23.57zm9.79 4.38c0 .54-.08 1.03-.25 1.48-.16.44-.4.82-.73 1.14-.32.32-.73.57-1.22.74-.48.17-1.06.26-1.72.26-.66 0-1.23-.09-1.73-.26a3.62 3.62 0 0 1-1.22-.74c-.32-.32-.56-.7-.73-1.14a4.28 4.28 0 0 1-.23-1.47v-4.37a.93.93 0 0 1 .95-.92.9.9 0 0 1 .65.27c.18.18.27.4.27.65v4.3c0 .61.17 1.1.51 1.48.35.37.86.56 1.53.56.68 0 1.18-.19 1.52-.56.34-.38.51-.88.51-1.48v-4.3a.9.9 0 0 1 .27-.65.93.93 0 0 1 .69-.27.9.9 0 0 1 .65.27c.18.18.27.4.27.65v4.36zm9.03-4.38c0 .23-.08.42-.23.57s-.34.23-.56.23h-1.81v6.2a.9.9 0 0 1-.27.65.9.9 0 0 1-.66.27.9.9 0 0 1-.65-.27.9.9 0 0 1-.27-.65v-6.2h-1.81a.78.78 0 0 1-.57-.23.82.82 0 0 1-.23-.6.79.79 0 0 1 .8-.79h5.47c.22 0 .4.08.56.25.15.15.23.34.23.57zm10.29 3.52a4.7 4.7 0 0 1-.34 1.81 4.22 4.22 0 0 1-2.38 2.36c-.55.22-1.16.33-1.82.33a4.9 4.9 0 0 1-1.81-.33 4.28 4.28 0 0 1-2.72-4.17 4.53 4.53 0 0 1 1.28-3.22 4.7 4.7 0 0 1 3.25-1.26 4.68 4.68 0 0 1 3.25 1.26 4.53 4.53 0 0 1 1.29 3.22zm-1.9 0a3.2 3.2 0 0 0-.73-2.03 2.51 2.51 0 0 0-1.91-.82c-.4 0-.76.07-1.09.22-.32.14-.59.34-.82.6a2.86 2.86 0 0 0-.71 2.03 2.86 2.86 0 0 0 .71 2.03c.23.25.5.45.82.6.33.15.69.22 1.09.22a2.51 2.51 0 0 0 2.44-1.72c.14-.34.2-.72.2-1.13zm11.03-1.55a2.85 2.85 0 0 1-.6 1.78c-.18.21-.39.38-.61.52-.23.13-.46.22-.69.27l1.2 2.03c.08.15.12.29.12.44a.9.9 0 0 1-.25.62.85.85 0 0 1-.66.29.93.93 0 0 1-.46-.12c-.14-.09-.25-.2-.34-.35l-1.48-2.69h-1.35v2.25a.9.9 0 0 1-.27.65.93.93 0 0 1-.66.26.92.92 0 0 1-.65-.26.92.92 0 0 1-.26-.65v-6.8c0-.29.1-.53.3-.73.21-.21.46-.31.74-.31h3.02c.45 0 .85.07 1.21.21a2.47 2.47 0 0 1 1.49 1.48c.13.35.2.72.2 1.11zm-3.19-1.17h-1.94v2.34h1.94c.37 0 .68-.1.92-.31.25-.21.38-.49.38-.86 0-.36-.13-.65-.38-.86a1.4 1.4 0 0 0-.92-.31zm7.28 6.22a.9.9 0 0 1-.27.65.93.93 0 0 1-.66.26.92.92 0 0 1-.65-.26.92.92 0 0 1-.26-.65v-7.01c0-.25.09-.46.27-.64a.9.9 0 0 1 .66-.27c.25 0 .46.09.64.27.18.17.27.39.27.64v7.01zm10.25-.08c0 .24-.09.47-.27.68a.87.87 0 0 1-.72.31.98.98 0 0 1-.55-.16.86.86 0 0 1-.35-.46l-.34-.94h-3.72l-.35.94a.96.96 0 0 1-.36.46c-.16.1-.35.16-.55.16a.91.91 0 0 1-.71-.3 1.08 1.08 0 0 1-.26-.69c0-.14.02-.26.07-.35l2.53-6.51c.11-.29.3-.53.56-.7.27-.18.55-.27.86-.27.33-.03.64.05.94.23.3.17.52.42.64.74l2.52 6.51c.04.13.06.25.06.35zm-2.73-2.18-1.35-3.73-1.35 3.73h2.7zm10.4 2.26c0 .23-.08.43-.23.6a.75.75 0 0 1-.56.23h-3.76a1.03 1.03 0 0 1-1.04-1.04v-6.8c0-.25.09-.46.27-.64a.9.9 0 0 1 .66-.27c.25 0 .46.09.64.27.18.17.27.39.27.64v6.21h2.95c.22 0 .4.08.56.23.16.16.24.35.24.57z"/>
</a>
</svg>
