<?xml version="1.0" encoding="utf-8"?>
<svg version="1.2" baseProfile="tiny-ps" xmlns="http://www.w3.org/2000/svg" xmlns:xlink="http://www.w3.org/1999/xlink" viewBox="0 0 1000 1000" xml:space="preserve">
<title>Global Fellowship</title>
<rect fill="#FFFFFF" width="1000" height="1000"/>
<path fill="#F8E411" d="M570.82,166.93v99.89C743.88,284.92,880.61,371.47,880.61,536c0,204.11-216.73,288.79-345.08,298.33c170.82,5.43,433.22-121.06,433.22-334.18C968.75,331.33,796.11,191.51,570.82,166.93z"/>
<polygon fill="#0F7CC1" points="466.91,351.11 466.91,166.93 378.6,250.85 378.6,351.11 "/>
<path fill="#0F7CC1" d="M466.91,455.31H301.54l0-107.22l-83.17,82.97v98.43h166.78l-6.81,196.34c-138.61-25.69-260.88-105.05-260.88-257.08c0-222.93,244.89-297.44,341.24-303.61C316.24,160.15,31.62,273.16,31.62,501.12c0,223.78,273.85,333.88,435.29,333.88V455.31z"/>
<polygon fill="#0F7CC1" points="569.69,455.31 569.69,529.5 689.86,529.5 760.3,455.31 "/>
</svg>
