<?xml version="1.0" encoding="utf-8"?>
<svg version="1.2" baseProfile="tiny-ps" id="Layer_1" xmlns="http://www.w3.org/2000/svg" xmlns:xlink="http://www.w3.org/1999/xlink" viewBox="0 0 1000 1000" xml:space="preserve">
<title>Mission Stream</title>
<rect fill="#FFFFFF" width="1000" height="1000"/>
<path fill="#1E407B" d="M157.9,503.56l35.78,28.9c0,0,0.42-126.72,121.62-333.15C226.62,255.48,92.23,422.6,92.23,422.6l28.7,37.96c-17.29,37.92-26.74,83.22-28.62,134.48c-2.71,73.9,28.99,142.58,78.09,190.4c-29.92-42.72-47.45-85.75-40.61-163.95C133.84,575.3,143.41,536.19,157.9,503.56z"/>
<path fill="#127FB6" d="M666.79,41.23l27.22,35.1c-145.15,48-311.51,189.3-387.07,305.67c-69.85,107.56-238.25,432.5,34.2,532.01C158.02,813.5,295.1,503.92,418.2,356.37c81.14-97.26,197.65-182.05,310.04-227.54l30.05,42.01c0,0,75.33-66.32,161.39-56.67C806.99,19.99,666.79,41.23,666.79,41.23z"/>
<path fill="#1E407B" d="M531.96,302.07l33.49,43.64c-56.27,43.6-124.44,129.09-156.77,184.79C312.6,695.99,247.64,942.72,519.65,954.6c-198.18-27.15-139.48-269.32-49.61-400.93c30.9-45.24,84.37-115.52,134.08-162.87l32.89,42.47c0,0,30.01-81.76,179.04-201.23C676.47,221.19,531.96,302.07,531.96,302.07z"/>
<path fill="#1E407B" d="M591.92,915.05l33.28-22.19c0,0-77.17-4.61-116.72-90.61c-30.33,51.07-21.89,125.17-21.89,125.17l47.48-0.7c150.42,71.23,347.57-106.74,389.72-188.69C868.33,822.58,704.86,964.13,591.92,915.05z"/>
<path fill="#1E407B" d="M710.04,832.92c-26.81-27.22-14.6-86.26,21.62-137.96l33.46,16.28c0,0-16.72-50.65,32.49-123.76c-90.79,2.39-153.87,58.3-153.87,58.3l37.19,26.68c-42.28,67.65-59.82,163.82-30.98,192.18c36.31,35.7,137.53,23.96,228.9-92.82C792.33,857.73,743.14,866.54,710.04,832.92z"/>
</svg>
