<?xml version="1.0" encoding="utf-8"?>
<!-- Generator: Adobe Illustrator 28.0.0, SVG Export Plug-In . SVG Version: 6.00 Build 0)  -->
<svg version="1.1" id="Layer_1" xmlns="http://www.w3.org/2000/svg" xmlns:xlink="http://www.w3.org/1999/xlink" x="0px" y="0px"
	 width="51px" height="51px" viewBox="0 0 51 51" enable-background="new 0 0 51 51" xml:space="preserve">
<path d="M41.12,11.77c-0.32-0.17-0.64-0.35-0.94-0.55c-0.89-0.59-1.7-1.28-2.43-2.06c-1.81-2.07-2.49-4.17-2.73-5.64h0.01
	C34.82,2.29,34.9,1.5,34.91,1.5h-8.24v31.88c0,0.43,0,0.85-0.02,1.27c0,0.05,0,0.1-0.01,0.16c0,0.02,0,0.05,0,0.07
	c0,0.01,0,0.01,0,0.02c-0.18,2.32-1.5,4.41-3.52,5.56c-1.04,0.59-2.21,0.9-3.41,0.9c-3.84,0-6.95-3.13-6.95-7s3.11-7,6.95-7
	c0.73,0,1.45,0.11,2.14,0.34l0.01-8.39c-4.24-0.55-8.52,0.7-11.8,3.45c-1.42,1.23-2.62,2.71-3.53,4.35
	c-0.35,0.6-1.66,3.01-1.82,6.92c-0.1,2.22,0.57,4.52,0.88,5.47v0.02c0.2,0.56,0.97,2.47,2.24,4.08c1.02,1.29,2.22,2.43,3.57,3.37
	v-0.02l0.02,0.02c3.99,2.71,8.42,2.53,8.42,2.53c0.77-0.03,3.33,0,6.25-1.38c3.23-1.53,5.07-3.81,5.07-3.81
	c1.18-1.36,2.11-2.92,2.76-4.59c0.75-1.96,0.99-4.31,0.99-5.25V17.55c0.1,0.06,1.43,0.94,1.43,0.94s1.92,1.23,4.91,2.03
	c2.15,0.57,5.04,0.69,5.04,0.69v-8.18C45.29,13.14,43.23,12.82,41.12,11.77z"/>
</svg>
