<?xml version="1.0" encoding="utf-8"?>
<!-- Generator: Adobe Illustrator 28.0.0, SVG Export Plug-In . SVG Version: 6.00 Build 0)  -->
<svg version="1.1" id="Layer_1" xmlns="http://www.w3.org/2000/svg" xmlns:xlink="http://www.w3.org/1999/xlink" x="0px" y="0px"
	 width="51px" height="51px" viewBox="0 0 51 51" enable-background="new 0 0 51 51" xml:space="preserve">
<g id="Page-1">
	<g id="Dribbble-Light-Preview">
		<g id="icons">
			<path id="instagram-_167_" fill-rule="evenodd" clip-rule="evenodd" fill="#010101" d="M15.59,1.8
				C11.67,1.98,8.29,2.93,5.56,5.65c-2.74,2.74-3.69,6.13-3.86,10C1.59,18.06,0.95,36.3,2.8,41.06c1.23,3.21,3.77,5.74,6.98,6.97
				c1.52,0.59,3.26,0.99,5.8,1.11c21.26,0.97,29.14,0.43,32.47-8.07c0.59-1.51,0.99-3.24,1.11-5.79
				c0.97-21.33-0.16-25.94-3.86-29.65c-2.95-2.93-6.39-4.92-29.71-3.85 M15.78,44.86c-1.51-0.02-3.01-0.29-4.44-0.81
				c-2.09-0.8-3.73-2.44-4.54-4.52c-1.42-3.64-0.95-20.9-0.81-23.68c0.12-2.74,0.68-5.23,2.62-7.16c2.39-2.39,5.48-3.55,26.47-2.6
				c2.74,0.12,5.25,0.68,7.17,2.6c2.39,2.39,3.57,5.49,2.62,26.42c-0.02,1.51-0.3,3-0.81,4.42C41.89,45.07,36.92,45.83,15.78,44.86
				 M35.31,12.75c0,1.58,1.28,2.86,2.86,2.86c1.58,0,2.86-1.28,2.86-2.86c0,0,0,0,0,0c0-1.58-1.28-2.86-2.86-2.86
				C36.59,9.9,35.31,11.18,35.31,12.75 M13.16,25.47c0.01,6.77,5.5,12.24,12.27,12.23c6.77-0.01,12.24-5.5,12.23-12.27
				S32.16,13.19,25.4,13.2C18.63,13.21,13.15,18.71,13.16,25.47L13.16,25.47 M17.46,25.47c0.01-4.39,3.58-7.94,7.97-7.94
				c4.39,0.01,7.94,3.58,7.94,7.97s-3.58,7.94-7.97,7.94C21,33.43,17.45,29.86,17.46,25.47L17.46,25.47"/>
		</g>
	</g>
</g>
</svg>
