<?xml version="1.0" encoding="utf-8"?>
<!-- Generator: Adobe Illustrator 28.0.0, SVG Export Plug-In . SVG Version: 6.00 Build 0)  -->
<svg version="1.1" id="Layer_1" xmlns="http://www.w3.org/2000/svg" xmlns:xlink="http://www.w3.org/1999/xlink" x="0px" y="0px"
	 width="51px" height="51px" viewBox="0 0 51 51" enable-background="new 0 0 51 51" xml:space="preserve">
<path fill="#010101" d="M14.63,27.62h5.04v20.75c0,0.41,0.33,0.74,0.74,0.74h8.55c0.41,0,0.74-0.33,0.74-0.74V27.72h5.8
	c0.38,0,0.69-0.28,0.74-0.66l0.88-7.64c0.01-0.21-0.05-0.42-0.18-0.58c-0.14-0.16-0.35-0.25-0.56-0.25H29.7V13.8
	c0-1.44,0.78-2.18,2.31-2.18h4.36c0.41,0,0.74-0.33,0.74-0.74V3.86c0-0.41-0.33-0.74-0.74-0.74h-6.29c-1.04,0-4.67,0.2-7.55,2.84
	c-2.01,1.75-2.99,4.4-2.63,7.03v5.6h-5.3c-0.41,0-0.74,0.33-0.74,0.74v7.55c0,0.41,0.33,0.74,0.74,0.74H14.63z"/>
</svg>
