<svg xmlns="http://www.w3.org/2000/svg" width="200" height="30" viewBox="0 0 200 30">
  <g fill="#018448">
    <path d="M27.3 28.2v-8L22.2 1.8h3.7l3.3 13.3 3.3-13.3h3.6l-5 18.7v7.8l-3.8-.1zM37.9 7.8c0-4.5 2.6-6.6 6.7-6.6s6.8 2 6.8 6.6v14.5c0 4.5-2.6 6.5-6.7 6.5s-6.8-1.9-6.8-6.5V7.8zm9.7.6c0-2.1-.6-3.9-3-3.9-2.3 0-2.9 1.6-2.9 3.9v13.2c0 2.3.6 3.9 3 3.9s3-1.8 3-3.9l-.1-13.2zM65.1 28.2l-.2-1.9a5.28 5.28 0 0 1-4.5 2.5c-2.7 0-5.4-1.6-5.4-6.4V1.8h3.8v20c0 2.8 1.3 3.8 2.8 3.8 2 0 3.2-1.6 3.2-4.6V1.8h3.8v26.5l-3.5-.1zM72.5 10h-.6l1.7-3.8h-1.8V1.7H76v4.5L72.5 10zM81.3 28.2l-4-26.4h3.8L84.3 25l3.3-23.2h3.8l-3.9 26.5-6.2-.1zM107 22.3c0 4.5-2.6 6.5-6.7 6.5s-6.8-1.9-6.8-6.5V7.8c0-4.5 2.6-6.6 6.7-6.6s6.8 2 6.8 6.6v8.3h-9.7v5.5c0 2.3.6 3.9 3 3.9s3-1.8 3-3.9V19h3.8v3.3h-.1zm-3.8-13.9c0-2.1-.6-3.9-3-3.9-2.3 0-2.9 1.6-2.9 3.9v4.5h6l-.1-4.5zM130.9 21.5l2.2-19.8h3.9l-3.2 26.5h-5.1l-2.6-18.6-2.6 18.6h-5.1L115 1.8h3.9l2.2 19.8 2.6-19.8h4.6l2.6 19.7zM139.4 7.8c0-4.5 2.6-6.6 6.7-6.6s6.8 2 6.8 6.6v14.5c0 4.5-2.6 6.5-6.8 6.5-4.1 0-6.8-1.9-6.8-6.5l.1-14.5zm9.8.6c0-2.1-.6-3.9-3-3.9-2.3 0-2.9 1.6-2.9 3.9v13.2c0 2.3.6 3.9 3 3.9s3-1.8 3-3.9l-.1-13.2zM160.1 1.8l.1 2c1.1-1.6 2.6-2.5 4.5-2.5 2.7 0 5.4 1.6 5.4 6.4v20.5h-3.8v-20c0-2.8-1.3-3.8-2.8-3.8-2 0-3.2 1.6-3.2 4.6v19.2h-3.8V1.8h3.6zM173.6 17.6v-4.5h4.2v4.5h-4.2zm0 10.6v-4.5h4.2v4.5h-4.2z"/>
  </g>
</svg>
