<svg xmlns="http://www.w3.org/2000/svg" width="1920" height="2800" viewBox="0 0 1920 2800">
  <rect width="1920" height="2800" fill="#dccce5"/>
  <path fill="#d0c0df" d="M0 0h122.4s-11.84 141.8-17.87 240.39 10.99 171.76 79.81 230.04c39.87 33.76 114.83 43.1 196.5 126.08 91.61 93.09 230.7 311.33 239 483.49 9.52 197.59-44.57 269.54-74.88 320-158.14 263.28 84.12 323.15 269.63 484.54 254.41 221.32 32.5 534.71-122.67 667.03C494.51 2719.9 147.56 2800 147.56 2800H0zm1172.9 0s3.63 84.96-60.5 134.56-223.84-2.42-251.06-8.47-167.57-62.31-180.28 48.4 159.71 295.22 220.81 322.45 163.35 71.46 268.61 9.14 131.87-137.16 214.75-89.6c36.9 21.17 21.17 64.73-19.36 119.18s-36.9 85.3 3.63 117.97 75.02 40.53 146.4 33.27 209.66-42.05 267.94-96.69 127.51-173.02 136.15-204.89c0-41.89-5.02-385.32-5.02-385.32zM1920 2800H778.99s161.06-376.77 394.85-321.1c216.01 51.43 386.36-253.66 288.61-441.02-160.36-307.36-236.2-501.17-194.82-637.87 18.56-61.31 65.95-167.56 141.52-271.46 39.91-54.88 148.14-177.9 262.18-217.15 129.43-51.77 195.1-39.18 248.67-11.19z"/>
</svg>
