<svg xmlns="http://www.w3.org/2000/svg" xmlns:xlink="http://www.w3.org/1999/xlink" viewBox="0 0 728 382" style="background: #02162d">
<style>
/* <![CDATA[ */

/* ]]> */
</style>
<defs>
<g id="paddle">
  <polygon points="88.5 -6 88.5 -8 87.5 -8 87.5 -10 86.5 -10 86.5 -11 85.5 -11 85.5 -12 84.5 -12 84.5 -13 83.5 -13 83.5 -14 82.5 -14 82.5 -15 81.5 -15 81.5 -16 80.5 -16 80.5 -17 79.5 -17 79.5 -18 78.5 -18 78.5 -19 77.5 -19 77.5 -20 63.5 -20 63.5 -19 62.5 -19 62.5 -18 -62.5 -18 -62.5 -19 -63.5 -19 -63.5 -20 -77.5 -20 -77.5 -19 -78.5 -19 -78.5 -18 -79.5 -18 -79.5 -17 -80.5 -17 -80.5 -16 -81.5 -16 -81.5 -15 -82.5 -15 -82.5 -14 -83.5 -14 -83.5 -13 -84.5 -13 -84.5 -12 -85.5 -12 -85.5 -11 -86.5 -11 -86.5 -10 -87.5 -10 -87.5 -8 -88.5 -8 -88.5 -6 -89.5 -6 -89.5 6 -88.5 6 -88.5 8 -87.5 8 -87.5 10 -86.5 10 -86.5 11 -85.5 11 -85.5 12 -84.5 12 -84.5 13 -83.5 13 -83.5 14 -82.5 14 -82.5 15 -81.5 15 -81.5 16 -80.5 16 -80.5 17 -79.5 17 -79.5 18 -78.5 18 -78.5 19 -77.5 19 -77.5 20 -63.5 20 -63.5 19 -62.5 19 -62.5 18 62.5 18 62.5 19 63.5 19 63.5 20 77.5 20 77.5 19 78.5 19 78.5 18 79.5 18 79.5 17 80.5 17 80.5 16 81.5 16 81.5 15 82.5 15 82.5 14 83.5 14 83.5 13 84.5 13 84.5 12 85.5 12 85.5 11 86.5 11 86.5 10 87.5 10 87.5 8 88.5 8 88.5 6 89.5 6 89.5 -6"/>
  <g fill="#5FF">
    <polygon points="-84.5 -4 -85.5 -4 -85.5 -3 -86.5 -3 -86.5 -2 -84.5 -2 -84.5 -1 -81.5 -1 -81.5 -2 -82.5 -2 -82.5 -3 -83.5 -3 -83.5 -5 -84.5 -5"/>
    <rect width="1" height="1" x="-83.5" y="-6"/>
    <rect width="1" height="1" x="-82.5" y="-7"/>
  </g>
  <g fill="#0AF">
    <polygon points="-86.5 -7 -86.5 -6 -87.5 -6 -87.5 -1 -86.5 -1 -86.5 0 -81.5 0 -81.5 -1 -84.5 -1 -84.5 -2 -86.5 -2 -86.5 -3 -85.5 -3 -85.5 -4 -84.5 -4 -84.5 -5 -83.5 -5 -83.5 -6 -82.5 -6 -82.5 -7"/>
    <rect width="1" height="1" x="-82.5" y="-8"/>
  </g>
  <g fill="#FA0">
    <rect width="1" height="1" x="-81.5" y="-9"/>
    <rect width="1" height="1" x="-81.5" y="-3"/>
    <polygon points="-78.5 -13 -78.5 -12 -79.5 -12 -79.5 -11 -80.5 -11 -80.5 -9 -79.5 -9 -79.5 -10 -78.5 -10 -78.5 -11 -63.5 -11 -63.5 -13"/>
    <polygon points="-65.5 -5 -65.5 -6 -77.5 -6 -77.5 -5 -79.5 -5 -79.5 -4 -80.5 -4 -80.5 -3 -66.5 -3 -66.5 -2 -64.5 -2 -64.5 -1 -63.5 -1 -63.5 -5"/>
  </g>
  <g fill="#FFA">
    <rect width="1" height="1" x="-80.5" y="-9"/>
    <rect width="1" height="1" x="-79.5" y="-10"/>
    <rect width="1" height="1" x="-81.5" y="-4"/>
    <rect width="1" height="1" x="-80.5" y="-5"/>
    <rect width="1" height="1" x="-81.5" y="-8"/>
    <rect width="2" height="1" x="-79.5" y="-6"/>
    <polygon points="-78.5 -11 -78.5 -10 -64.5 -10 -64.5 -9 -63.5 -9 -63.5 -11"/>
    <polygon points="-64.5 -7 -77.5 -7 -77.5 -6 -65.5 -6 -65.5 -5 -63.5 -5 -63.5 -8 -64.5 -8"/>
  </g>
  <polygon fill="#FFF" points="-64.5 -10 -78.5 -10 -78.5 -9 -79.5 -9 -79.5 -8 -80.5 -8 -80.5 -7 -81.5 -7 -81.5 -6 -82.5 -6 -82.5 -5 -83.5 -5 -83.5 -3 -82.5 -3 -82.5 -2 -81.5 -2 -81.5 -4 -80.5 -4 -80.5 -5 -79.5 -5 -79.5 -6 -77.5 -6 -77.5 -7 -64.5 -7 -64.5 -8 -63.5 -8 -63.5 -9 -64.5 -9"/>
  <g fill="#005">
    <rect width="1" height="2" x="-87.5" y="8"/>
    <rect width="1" height="1" x="-86.5" y="10"/>
    <rect width="1" height="1" x="-85.5" y="11"/>
    <rect width="1" height="2" x="-88.5" y="6"/>
    <rect width="1" height="1" x="-80.5" y="16"/>
    <rect width="1" height="1" x="-79.5" y="17"/>
    <rect width="1" height="1" x="-78.5" y="18"/>
    <rect width="1" height="1" x="-84.5" y="12"/>
    <rect width="1" height="1" x="-83.5" y="13"/>
    <rect width="1" height="1" x="-82.5" y="14"/>
    <rect width="1" height="1" x="-81.5" y="15"/>
  </g>
  <g fill="#05F">
    <polygon points="-83.5 -9 -83.5 -8 -85.5 -8 -85.5 -9 -84.5 -9 -84.5 -11 -85.5 -11 -85.5 -10 -87.5 -10 -87.5 -8 -88.5 -8 -88.5 0 -87.5 0 -87.5 1 -86.5 1 -86.5 2 -85.5 2 -85.5 4 -84.5 4 -84.5 3 -83.5 3 -83.5 2 -82.5 2 -82.5 0 -86.5 0 -86.5 -1 -87.5 -1 -87.5 -6 -86.5 -6 -86.5 -7 -82.5 -7 -82.5 -8 -81.5 -8 -81.5 -9"/>
    <rect width="1" height="1" x="-84.5" y="-12"/>
    <polygon points="-84.5 6 -86.5 6 -86.5 7 -85.5 7 -85.5 9 -84.5 9 -84.5 10 -83.5 10 -83.5 7 -84.5 7"/>
  </g>
  <g fill="#00A">
    <rect width="1" height="1" x="-86.5" y="-11"/>
    <rect width="1" height="1" x="-85.5" y="-12"/>
    <polygon points="-82.5 -14 -83.5 -14 -83.5 -13 -84.5 -13 -84.5 -12 -83.5 -12 -83.5 -11 -84.5 -11 -84.5 -9 -85.5 -9 -85.5 -8 -83.5 -8 -83.5 -9 -81.5 -9 -81.5 -15 -82.5 -15"/>
    <path d="M-82.5 2h-1v1h-1v1h-1V2h-1V1h-1V0h-1v-6h-1V6h2v2h1v2h1v1h1v1h1v1h1v1h1V0h-1v2zm-3 7V7h-1V6h2v1h1v3h-1V9h-1z"/>
  </g>
  <g fill="#F50">
    <polygon points="-64.5 -15 -77.5 -15 -77.5 -14 -79.5 -14 -79.5 -13 -80.5 -13 -80.5 -12 -81.5 -12 -81.5 -9 -80.5 -9 -80.5 -11 -79.5 -11 -79.5 -12 -78.5 -12 -78.5 -13 -63.5 -13 -63.5 -14 -64.5 -14"/>
    <polygon points="-64.5 -2 -66.5 -2 -66.5 -3 -80.5 -3 -80.5 -2 -81.5 -2 -81.5 -1 -79.5 -1 -79.5 0 -77.5 0 -77.5 1 -65.5 1 -65.5 2 -64.5 2 -64.5 0 -63.5 0 -63.5 -1 -64.5 -1"/>
  </g>
  <g fill="red">
    <polygon points="-64.5 -18 -76.5 -18 -76.5 -17 -78.5 -17 -78.5 -16 -79.5 -16 -79.5 -15 -80.5 -15 -80.5 -13 -79.5 -13 -79.5 -14 -77.5 -14 -77.5 -15 -64.5 -15"/>
    <rect width="1" height="1" x="-64.5" y="-15"/>
    <polygon points="-65.5 12 -78.5 12 -78.5 11 -79.5 11 -79.5 10 -80.5 10 -80.5 12 -79.5 12 -79.5 14 -77.5 14 -77.5 15 -64.5 15 -64.5 13 -65.5 13"/>
    <polygon points="-65.5 1 -77.5 1 -77.5 0 -79.5 0 -79.5 -1 -80.5 -1 -80.5 3 -79.5 3 -79.5 4 -78.5 4 -78.5 5 -74.5 5 -74.5 6 -65.5 6 -65.5 5 -64.5 5 -64.5 2 -65.5 2"/>
  </g>
  <g fill="#A00">
    <polygon points="-78.5 -19 -78.5 -18 -79.5 -18 -79.5 -17 -80.5 -17 -80.5 -16 -81.5 -16 -81.5 -12 -80.5 -12 -80.5 -15 -79.5 -15 -79.5 -16 -78.5 -16 -78.5 -17 -76.5 -17 -76.5 -18 -64.5 -18 -64.5 -15 -63.5 -15 -63.5 -18 -62.5 -18 -62.5 -19"/>
    <rect width="1" height="14" x="-63.5" y="-14"/>
    <polygon points="-64.5 5 -65.5 5 -65.5 6 -74.5 6 -74.5 5 -78.5 5 -78.5 4 -79.5 4 -79.5 3 -80.5 3 -80.5 -1 -81.5 -1 -81.5 13 -80.5 13 -80.5 15 -79.5 15 -79.5 16 -78.5 16 -78.5 17 -65.5 17 -65.5 16 -64.5 16 -64.5 15 -77.5 15 -77.5 14 -79.5 14 -79.5 12 -80.5 12 -80.5 10 -79.5 10 -79.5 11 -78.5 11 -78.5 12 -65.5 12 -65.5 13 -64.5 13 -64.5 15 -63.5 15 -63.5 0 -64.5 0"/>
  </g>
  <g fill="#500">
    <polygon points="-62.5 -18 -63.5 -18 -63.5 -14 -62.5 -14 -62.5 -16 -61.5 -16 -61.5 -17 -62.5 -17"/>
    <rect width="1" height="1" x="-79.5" y="16"/>
    <rect width="1" height="2" x="-81.5" y="13"/>
    <rect width="1" height="1" x="-80.5" y="15"/>
    <polygon points="-62.5 0 -63.5 0 -63.5 15 -64.5 15 -64.5 16 -65.5 16 -65.5 17 -78.5 17 -78.5 18 -77.5 18 -77.5 19 -62.5 19 -62.5 18 -61.5 18 -61.5 15 -62.5 15"/>
  </g>
  <rect width="1" height="2" x="-60.5" y="-7" fill="#AAA"/>
  <rect width="1" height="2" x="-61.5" y="-7" fill="#555"/>
  <rect width="14" height="1" x="-77.5" y="-20"/>
  <rect width="14" height="1" x="-77.5" y="19"/>
  <g fill="#5FF">
    <polygon points="84.5 -4 85.5 -4 85.5 -3 86.5 -3 86.5 -2 84.5 -2 84.5 -1 81.5 -1 81.5 -2 82.5 -2 82.5 -3 83.5 -3 83.5 -5 84.5 -5"/>
    <rect width="1" height="1" x="82.5" y="-6"/>
    <rect width="1" height="1" x="81.5" y="-7"/>
  </g>
  <g fill="#0AF">
    <polygon points="86.5 -7 86.5 -6 87.5 -6 87.5 -1 86.5 -1 86.5 0 81.5 0 81.5 -1 84.5 -1 84.5 -2 86.5 -2 86.5 -3 85.5 -3 85.5 -4 84.5 -4 84.5 -5 83.5 -5 83.5 -6 82.5 -6 82.5 -7"/>
    <rect width="1" height="1" x="81.5" y="-8"/>
  </g>
  <g fill="#FA0">
    <rect width="1" height="1" x="80.5" y="-9"/>
    <rect width="1" height="1" x="80.5" y="-3"/>
    <polygon points="78.5 -13 78.5 -12 79.5 -12 79.5 -11 80.5 -11 80.5 -9 79.5 -9 79.5 -10 78.5 -10 78.5 -11 63.5 -11 63.5 -13"/>
    <polygon points="65.5 -5 65.5 -6 77.5 -6 77.5 -5 79.5 -5 79.5 -4 80.5 -4 80.5 -3 66.5 -3 66.5 -2 64.5 -2 64.5 -1 63.5 -1 63.5 -5"/>
  </g>
  <g fill="#FFA">
    <rect width="1" height="1" x="79.5" y="-9"/>
    <rect width="1" height="1" x="78.5" y="-10"/>
    <rect width="1" height="1" x="80.5" y="-4"/>
    <rect width="1" height="1" x="79.5" y="-5"/>
    <rect width="1" height="1" x="80.5" y="-8"/>
    <rect width="2" height="1" x="77.5" y="-6"/>
    <polygon points="78.5 -11 78.5 -10 64.5 -10 64.5 -9 63.5 -9 63.5 -11"/>
    <polygon points="64.5 -7 77.5 -7 77.5 -6 65.5 -6 65.5 -5 63.5 -5 63.5 -8 64.5 -8"/>
  </g>
  <g fill="#FFF">
    <polygon points="82.5 -5 82.5 -6 81.5 -6 81.5 -7 80.5 -7 80.5 -8 79.5 -8 79.5 -9 78.5 -9 78.5 -10 64.5 -10 64.5 -9 63.5 -9 63.5 -8 64.5 -8 64.5 -7 77.5 -7 77.5 -6 79.5 -6 79.5 -5 80.5 -5 80.5 -4 81.5 -4 81.5 -2 82.5 -2 82.5 -3 83.5 -3 83.5 -5"/>
    <polygon points="58.5 -13 -58.5 -13 -58.5 -7 -59.5 -7 -59.5 -5 -58.5 -5 -58.5 -3 58.5 -3 58.5 -5 59.5 -5 59.5 -7 58.5 -7"/>
  </g>
  <g fill="#005">
    <rect width="1" height="2" x="86.5" y="8"/>
    <rect width="1" height="1" x="85.5" y="10"/>
    <rect width="1" height="1" x="84.5" y="11"/>
    <rect width="1" height="2" x="87.5" y="6"/>
    <rect width="1" height="1" x="79.5" y="16"/>
    <rect width="1" height="1" x="78.5" y="17"/>
    <rect width="1" height="1" x="77.5" y="18"/>
    <rect width="1" height="1" x="83.5" y="12"/>
    <rect width="1" height="1" x="82.5" y="13"/>
    <rect width="1" height="1" x="81.5" y="14"/>
    <rect width="1" height="1" x="80.5" y="15"/>
  </g>
  <g fill="#05F">
    <polygon points="83.5 -9 83.5 -8 85.5 -8 85.5 -9 84.5 -9 84.5 -11 85.5 -11 85.5 -10 87.5 -10 87.5 -8 88.5 -8 88.5 0 87.5 0 87.5 1 86.5 1 86.5 2 85.5 2 85.5 4 84.5 4 84.5 3 83.5 3 83.5 2 82.5 2 82.5 0 86.5 0 86.5 -1 87.5 -1 87.5 -6 86.5 -6 86.5 -7 82.5 -7 82.5 -8 81.5 -8 81.5 -9"/>
    <rect width="1" height="1" x="83.5" y="-12"/>
    <polygon points="84.5 6 86.5 6 86.5 7 85.5 7 85.5 9 84.5 9 84.5 10 83.5 10 83.5 7 84.5 7"/>
  </g>
  <g fill="#00A">
    <rect width="1" height="1" x="85.5" y="-11"/>
    <rect width="1" height="1" x="84.5" y="-12"/>
    <polygon points="82.5 -14 83.5 -14 83.5 -13 84.5 -13 84.5 -12 83.5 -12 83.5 -11 84.5 -11 84.5 -9 85.5 -9 85.5 -8 83.5 -8 83.5 -9 81.5 -9 81.5 -15 82.5 -15"/>
    <path d="M82.5 2h1v1h1v1h1V2h1V1h1V0h1v-6h1V6h-2v2h-1v2h-1v1h-1v1h-1v1h-1v1h-1V0h1v2zm3 7V7h1V6h-2v1h-1v3h1V9h1z"/>
  </g>
  <g fill="#F50">
    <polygon points="64.5 -15 77.5 -15 77.5 -14 79.5 -14 79.5 -13 80.5 -13 80.5 -12 81.5 -12 81.5 -9 80.5 -9 80.5 -11 79.5 -11 79.5 -12 78.5 -12 78.5 -13 63.5 -13 63.5 -14 64.5 -14"/>
    <polygon points="64.5 -2 66.5 -2 66.5 -3 80.5 -3 80.5 -2 81.5 -2 81.5 -1 79.5 -1 79.5 0 77.5 0 77.5 1 65.5 1 65.5 2 64.5 2 64.5 0 63.5 0 63.5 -1 64.5 -1"/>
  </g>
  <g fill="red">
    <polygon points="64.5 -18 76.5 -18 76.5 -17 78.5 -17 78.5 -16 79.5 -16 79.5 -15 80.5 -15 80.5 -13 79.5 -13 79.5 -14 77.5 -14 77.5 -15 64.5 -15"/>
    <rect width="1" height="1" x="63.5" y="-15"/>
    <polygon points="65.5 12 78.5 12 78.5 11 79.5 11 79.5 10 80.5 10 80.5 12 79.5 12 79.5 14 77.5 14 77.5 15 64.5 15 64.5 13 65.5 13"/>
    <polygon points="65.5 1 77.5 1 77.5 0 79.5 0 79.5 -1 80.5 -1 80.5 3 79.5 3 79.5 4 78.5 4 78.5 5 74.5 5 74.5 6 65.5 6 65.5 5 64.5 5 64.5 2 65.5 2"/>
  </g>
  <g fill="#A00">
    <polygon points="78.5 -19 78.5 -18 79.5 -18 79.5 -17 80.5 -17 80.5 -16 81.5 -16 81.5 -12 80.5 -12 80.5 -15 79.5 -15 79.5 -16 78.5 -16 78.5 -17 76.5 -17 76.5 -18 64.5 -18 64.5 -15 63.5 -15 63.5 -18 62.5 -18 62.5 -19"/>
    <rect width="1" height="14" x="62.5" y="-14"/>
    <polygon points="64.5 5 65.5 5 65.5 6 74.5 6 74.5 5 78.5 5 78.5 4 79.5 4 79.5 3 80.5 3 80.5 -1 81.5 -1 81.5 13 80.5 13 80.5 15 79.5 15 79.5 16 78.5 16 78.5 17 65.5 17 65.5 16 64.5 16 64.5 15 77.5 15 77.5 14 79.5 14 79.5 12 80.5 12 80.5 10 79.5 10 79.5 11 78.5 11 78.5 12 65.5 12 65.5 13 64.5 13 64.5 15 63.5 15 63.5 0 64.5 0"/>
  </g>
  <g fill="#500">
    <polygon points="62.5 -18 63.5 -18 63.5 -14 62.5 -14 62.5 -16 61.5 -16 61.5 -17 62.5 -17"/>
    <rect width="1" height="1" x="78.5" y="16"/>
    <rect width="1" height="2" x="80.5" y="13"/>
    <rect width="1" height="1" x="79.5" y="15"/>
    <polygon points="62.5 0 63.5 0 63.5 15 64.5 15 64.5 16 65.5 16 65.5 17 78.5 17 78.5 18 77.5 18 77.5 19 62.5 19 62.5 18 61.5 18 61.5 15 62.5 15"/>
  </g>
  <g fill="#AAA">
    <polygon points="-59.5 -15 -59.5 -7 -58.5 -7 -58.5 -13 58.5 -13 58.5 -7 59.5 -7 59.5 -15"/>
    <polygon points="58.5 -5 58.5 -3 -58.5 -3 -58.5 -5 -59.5 -5 -59.5 2 59.5 2 59.5 -5"/>
    <rect width="1" height="2" x="59.5" y="-7"/>
  </g>
  <g fill="#555">
    <rect width="1" height="2" x="60.5" y="-7"/>
    <polygon points="-62.5 -18 -62.5 -17 -61.5 -17 -61.5 -16 -60.5 -16 -60.5 -7 -59.5 -7 -59.5 -15 59.5 -15 59.5 -7 60.5 -7 60.5 -16 61.5 -16 61.5 -17 62.5 -17 62.5 -18"/>
    <polygon points="59.5 2 -59.5 2 -59.5 -5 -60.5 -5 -60.5 5 -59.5 5 -59.5 6 59.5 6 59.5 5 60.5 5 60.5 -5 59.5 -5"/>
    <polygon points="60.5 14 59.5 14 59.5 11 -59.5 11 -59.5 14 -60.5 14 -60.5 15 -61.5 15 -61.5 16 61.5 16 61.5 15 60.5 15"/>
  </g>
  <g>
    <rect width="14" height="1" x="63.5" y="-20"/>
    <rect width="14" height="1" x="63.5" y="19"/>
    <rect width="123" height="2" x="-61.5" y="16"/>
    <polygon points="60.5 -7 61.5 -7 61.5 -5 60.5 -5 60.5 5 59.5 5 59.5 6 -59.5 6 -59.5 5 -60.5 5 -60.5 -5 -61.5 -5 -61.5 -7 -60.5 -7 -60.5 -16 -62.5 -16 -62.5 15 -60.5 15 -60.5 14 -59.5 14 -59.5 11 59.5 11 59.5 14 60.5 14 60.5 15 62.5 15 62.5 -16 60.5 -16"/>
  </g>
</g>
<polygon id="ball" fill="#F5F5F5" points="11 -3 11 -5 10 -5 10 -7 9 -7 9 -8 8 -8 8 -9 7 -9 7 -10 5 -10 5 -11 3 -11 3 -12 -3 -12 -3 -11 -5 -11 -5 -10 -7 -10 -7 -9 -8 -9 -8 -8 -9 -8 -9 -7 -10 -7 -10 -5 -11 -5 -11 -3 -12 -3 -12 3 -11 3 -11 5 -10 5 -10 7 -9 7 -9 8 -8 8 -8 9 -7 9 -7 10 -5 10 -5 11 -3 11 -3 12 3 12 3 11 5 11 5 10 7 10 7 9 8 9 8 8 9 8 9 7 10 7 10 5 11 5 11 3 12 3 12 -3"/>
<g id="b1">
  <rect width="64" height="24" x="-32" y="-12" fill="#DEDEDE"/>
  <polygon fill="#545454" points="-31 11 -31 -12 -32 -12 -32 12 31 12 31 11"/>
  <polygon fill="#6B6B6B" points="-30 10 -30 -11 -31 -11 -31 11 30 11 30 10"/>
  <polygon fill="#C7C7C7" points="-28 8 -28 -9 -29 -9 -29 9 28 9 28 8"/>
  <polygon fill="#EDEDED" points="-26 6 -26 -7 -27 -7 -27 7 27 7 27 6"/>
  <g fill="#9D9D9D">
    <polygon points="-29 9 -29 -10 -30 -10 -30 10 29 10 29 9"/>
    <polygon points="27 -7 27 -6 27 7 28 7 28 -8 -27 -8 -27 -7"/>
  </g>
  <path fill="#DBDBDB" d="M-28-9V8h56v1h1V-9h-57zM28 7h-55V-8h55V7z"/>
  <polygon fill="#E6E6E6" points="-29 -10 -29 -9 29 -9 29 10 30 10 30 -10"/>
  <polygon fill="#EDEDED" points="-30 -11 -30 -10 30 -10 30 11 31 11 31 -11"/>
  <polygon fill="#F2F2F2" points="-31 -12 -31 -11 31 -11 31 12 32 12 32 -12"/>
</g>
<g id="b2">
  <rect width="64" height="24" x="-32" y="-12" fill="#ED4631"/>
  <polygon fill="#540900" points="-31 11 -31 -12 -32 -12 -32 12 31 12 31 11"/>
  <polygon fill="#6B0C00" points="-30 10 -30 -11 -31 -11 -31 11 30 11 30 10"/>
  <polygon fill="#C74231" points="-28 8 -28 -9 -29 -9 -29 9 28 9 28 8"/>
  <polygon fill="#E45A49" points="-26 6 -26 -7 -27 -7 -27 7 27 7 27 6"/>
  <g fill="#9D1200">
    <polygon points="-29 9 -29 -10 -30 -10 -30 10 29 10 29 9"/>
    <polygon points="27 -7 27 -6 27 7 28 7 28 -8 -27 -8 -27 -7"/>
  </g>
  <path fill="#FF7A69" d="M-28-9V8h56v1h1V-9h-57zM28 7h-55V-8h55V7z"/>
  <polygon fill="#FF8778" points="-29 -10 -29 -9 29 -9 29 10 30 10 30 -10"/>
  <polygon fill="#FF9385" points="-30 -11 -30 -10 30 -10 30 11 31 11 31 -11"/>
  <polygon fill="#FFB6AD" points="-31 -12 -31 -11 31 -11 31 12 32 12 32 -12"/>
</g>
<g id="b3">
  <rect width="64" height="24" x="-32" y="-12" fill="#006FEC"/>
  <polygon fill="#002854" points="-31 11 -31 -12 -32 -12 -32 12 31 12 31 11"/>
  <polygon fill="#00326B" points="-30 10 -30 -11 -31 -11 -31 11 30 11 30 10"/>
  <polygon fill="#3178C7" points="-28 8 -28 -9 -29 -9 -29 9 28 9 28 8"/>
  <polygon fill="#4992E4" points="-26 6 -26 -7 -27 -7 -27 7 27 7 27 6"/>
  <g fill="#004A9D">
    <polygon points="-29 9 -29 -10 -30 -10 -30 10 29 10 29 9"/>
    <polygon points="27 -7 27 -6 27 7 28 7 28 -8 -27 -8 -27 -7"/>
  </g>
  <path fill="#69B0FF" d="M-28-9V8h56v1h1V-9h-57zM28 7h-55V-8h55V7z"/>
  <polygon fill="#78B7FF" points="-29 -10 -29 -9 29 -9 29 10 30 10 30 -10"/>
  <polygon fill="#85BEFF" points="-30 -11 -30 -10 30 -10 30 11 31 11 31 -11"/>
  <polygon fill="#ADD4FF" points="-31 -12 -31 -11 31 -11 31 12 32 12 32 -12"/>
</g>
<g id="b4">
  <rect width="64" height="24" x="-32" y="-12" fill="#F2891F"/>
  <polygon fill="#542A00" points="-31 11 -31 -12 -32 -12 -32 12 31 12 31 11"/>
  <polygon fill="#6B3600" points="-30 10 -30 -11 -31 -11 -31 11 30 11 30 10"/>
  <polygon fill="#C76D14" points="-28 8 -28 -9 -29 -9 -29 9 28 9 28 8"/>
  <polygon fill="#F09335" points="-26 6 -26 -7 -27 -7 -27 7 27 7 27 6"/>
  <g fill="#9D4F00">
    <polygon points="-29 9 -29 -10 -30 -10 -30 10 29 10 29 9"/>
    <polygon points="27 -7 27 -6 27 7 28 7 28 -8 -27 -8 -27 -7"/>
  </g>
  <path fill="#FFA347" d="M-28-9V8h56v1h1V-9h-57zM28 7h-55V-8h55V7z"/>
  <polygon fill="#FFAE5C" points="-29 -10 -29 -9 29 -9 29 10 30 10 30 -10"/>
  <polygon fill="#FFBB78" points="-30 -11 -30 -10 30 -10 30 11 31 11 31 -11"/>
  <polygon fill="#FFD0A1" points="-31 -12 -31 -11 31 -11 31 12 32 12 32 -12"/>
</g>
<g id="b5">
  <rect width="64" height="24" x="-32" y="-12" fill="#EB52A8"/>
  <polygon fill="#54002F" points="-31 11 -31 -12 -32 -12 -32 12 31 12 31 11"/>
  <polygon fill="#6B003C" points="-30 10 -30 -11 -31 -11 -31 11 30 11 30 10"/>
  <polygon fill="#C73185" points="-28 8 -28 -9 -29 -9 -29 9 28 9 28 8"/>
  <polygon fill="#E449A0" points="-26 6 -26 -7 -27 -7 -27 7 27 7 27 6"/>
  <g fill="#9D0058">
    <polygon points="-29 9 -29 -10 -30 -10 -30 10 29 10 29 9"/>
    <polygon points="27 -7 27 -6 27 7 28 7 28 -8 -27 -8 -27 -7"/>
  </g>
  <path fill="#FF69BD" d="M-28-9V8h56v1h1V-9h-57zM28 7h-55V-8h55V7z"/>
  <polygon fill="#FF78C4" points="-29 -10 -29 -9 29 -9 29 10 30 10 30 -10"/>
  <polygon fill="#FF85CA" points="-30 -11 -30 -10 30 -10 30 11 31 11 31 -11"/>
  <polygon fill="#FFADDB" points="-31 -12 -31 -11 31 -11 31 12 32 12 32 -12"/>
</g>
<g id="b6">
  <rect width="64" height="24" x="-32" y="-12" fill="#7ECF16"/>
  <polygon fill="#2F5400" points="-31 11 -31 -12 -32 -12 -32 12 31 12 31 11"/>
  <polygon fill="#3C6B00" points="-30 10 -30 -11 -31 -11 -31 11 30 11 30 10"/>
  <polygon fill="#85C731" points="-28 8 -28 -9 -29 -9 -29 9 28 9 28 8"/>
  <polygon fill="#A0E449" points="-26 6 -26 -7 -27 -7 -27 7 27 7 27 6"/>
  <g fill="#589D00">
    <polygon points="-29 9 -29 -10 -30 -10 -30 10 29 10 29 9"/>
    <polygon points="27 -7 27 -6 27 7 28 7 28 -8 -27 -8 -27 -7"/>
  </g>
  <path fill="#A7F248" d="M-28-9V8h56v1h1V-9h-57zM28 7h-55V-8h55V7z"/>
  <polygon fill="#B0F755" points="-29 -10 -29 -9 29 -9 29 10 30 10 30 -10"/>
  <polygon fill="#C6FA82" points="-30 -11 -30 -10 30 -10 30 11 31 11 31 -11"/>
  <polygon fill="#DBFFAD" points="-31 -12 -31 -11 31 -11 31 12 32 12 32 -12"/>
</g>
</defs>

<use x="34" y="14" xlink:href="#b1"/>
<use x="100" y="14" xlink:href="#b1"/>
<use x="166" y="14" xlink:href="#b1"/>
<use x="232" y="14" xlink:href="#b1"/>
<use x="298" y="14" xlink:href="#b1"/>
<use x="364" y="14" xlink:href="#b1"/>
<use x="430" y="14" xlink:href="#b1"/>
<use x="496" y="14" xlink:href="#b1"/>
<use x="562" y="14" xlink:href="#b1"/>
<use x="628" y="14" xlink:href="#b1"/>
<use x="694" y="14" xlink:href="#b1"/>

<use x="34" y="40" xlink:href="#b2"/>
<use x="100" y="40" xlink:href="#b2"/>
<use x="166" y="40" xlink:href="#b2"/>
<use x="232" y="40" xlink:href="#b2"/>
<use x="298" y="40" xlink:href="#b2"/>
<use x="364" y="40" xlink:href="#b2"/>
<use x="430" y="40" xlink:href="#b2"/>
<use x="496" y="40" xlink:href="#b2"/>
<use x="562" y="40" xlink:href="#b2"/>
<use x="628" y="40" xlink:href="#b2"/>
<use x="694" y="40" xlink:href="#b2"/>

<use x="34" y="66" xlink:href="#b3"/>
<use x="100" y="66" xlink:href="#b3"/>
<use x="166" y="66" xlink:href="#b3"/>
<use x="232" y="66" xlink:href="#b3"/>
<use x="298" y="66" xlink:href="#b3"/>
<use x="364" y="66" xlink:href="#b3"/>
<use x="430" y="66" xlink:href="#b3"/>
<use x="496" y="66" xlink:href="#b3"/>
<use x="562" y="66" xlink:href="#b3"/>
<use x="628" y="66" xlink:href="#b3"/>
<use x="694" y="66" xlink:href="#b3"/>

<use x="34" y="92" xlink:href="#b4"/>
<use x="100" y="92" xlink:href="#b4"/>
<use x="166" y="92" xlink:href="#b4"/>
<use x="232" y="92" xlink:href="#b4"/>
<use x="298" y="92" xlink:href="#b4"/>
<use x="364" y="92" xlink:href="#b4"/>
<use x="430" y="92" xlink:href="#b4"/>
<use x="496" y="92" xlink:href="#b4"/>
<use x="562" y="92" xlink:href="#b4"/>
<use x="628" y="92" xlink:href="#b4"/>
<use x="694" y="92" xlink:href="#b4"/>

<use x="34" y="118" xlink:href="#b5"/>
<use x="100" y="118" xlink:href="#b5"/>
<use x="166" y="118" xlink:href="#b5"/>
<use x="232" y="118" xlink:href="#b5"/>
<use x="298" y="118" xlink:href="#b5"/>
<use x="364" y="118" xlink:href="#b5"/>
<use x="430" y="118" xlink:href="#b5"/>
<use x="496" y="118" xlink:href="#b5"/>
<use x="562" y="118" xlink:href="#b5"/>
<use x="628" y="118" xlink:href="#b5"/>
<use x="694" y="118" xlink:href="#b5"/>

<use x="34" y="144" xlink:href="#b6"/>
<use x="100" y="144" xlink:href="#b6"/>
<use x="166" y="144" xlink:href="#b6"/>
<use x="232" y="144" xlink:href="#b6"/>
<use x="298" y="144" xlink:href="#b6"/>
<use x="364" y="144" xlink:href="#b6"/>
<use x="430" y="144" xlink:href="#b6"/>
<use x="496" y="144" xlink:href="#b6"/>
<use x="562" y="144" xlink:href="#b6"/>
<use x="628" y="144" xlink:href="#b6"/>
<use x="694" y="144" xlink:href="#b6"/>

<use x="364" y="360" xlink:href="#paddle"/>
<use id="bl" x="364" y="310" xlink:href="#ball"/>

<script>
<![CDATA[

let ballRadius = 12;
let x = 364;
let y = 310;
let dx = 4;
let dy = -5;
let animation_id;

function $(sel) {
  return document.querySelector(sel);
}

function draw() {

  $("#bl").setAttribute("x", x);
  $("#bl").setAttribute("y", y);
  
  if(x + dx > 728-ballRadius || x + dx < ballRadius) {
      dx = -dx;
  }
  if(y + dy > 382-ballRadius || y + dy < ballRadius) {
      dy = -dy;
  }
  
  x += dx;
  y += dy;

  animation_id = requestAnimationFrame(draw);

}

animation_id = requestAnimationFrame(draw);

]]>
</script>

</svg>
