<svg xmlns="http://www.w3.org/2000/svg" width="228" height="162" viewBox="0 0 228 162">
  <g fill="#00745B">
    <path d="M83.67 84.55v-7.58h7.9V36.86l-9.24 1.5V31.8l11.53-3.95h6.63v49.11h7.74v7.58H83.67zM116.28 56.44c0-19.74 5.05-29.29 16.34-29.29s16.34 9.55 16.34 29.29c0 19.9-5.21 28.82-16.34 28.82-11.13 0-16.34-8.92-16.34-28.82zm23.53 0c0-15.24-2.13-21.79-7.19-21.79-5.05 0-7.26 6.55-7.26 21.79 0 15.32 2.13 21.4 7.26 21.4 5.05 0 7.19-6.08 7.19-21.4zM33.05 134.41v-35.2h18v5.3H38.88v9.17h9.07v5.1h-9.07v10.35h12.8v5.3H33.05zM72.42 134.41l-11.23-24.32h-.1v24.32h-5.2v-35.2h6.72l9.66 21.38h.1V99.21h5.3v35.21h-5.25zM88.7 134.41V104.5h-7.26v-5.3h20.3v5.3h-7.26v29.91H88.7zM120.91 134.41l-5.05-14.51h-4.46v14.51h-5.83v-35.2h9.32c7.55 0 11.18 2.89 11.18 9.76 0 4.46-1.91 7.21-4.95 8.58l6.13 16.87h-6.34zm-6.17-19.46c2.65 0 5.39-.93 5.39-5.44 0-4.95-2.79-5.25-5.44-5.25h-3.29v10.69h3.34zM131.36 134.41v-35.2h5.83v35.21h-5.83zM143.37 134.41v-35.2h18v5.3h-12.16v9.17h9.07v5.1h-9.07v10.35H162v5.3h-18.63zM179.16 108.52c-.74-2.99-2.01-4.85-4.76-4.85-2.45 0-3.97 1.37-3.97 3.63 0 7.36 14.42 6.47 14.42 18 0 6.13-4.02 9.56-10.3 9.56s-9.22-3.04-10.35-9.37l5.39-.93c.69 3.58 2.01 5.39 5.15 5.39 2.65 0 4.46-1.47 4.46-4.22 0-7.75-14.27-6.82-14.27-18.09 0-5.44 3.58-8.87 9.41-8.87 6.13 0 8.88 3.43 9.86 8.78l-5.04.97zM189.71 122.55l-1.37-23.34h6.62l-1.32 23.34h-3.93zm-.98 11.86v-6.62h5.88v6.62h-5.88z"/>
  </g>
</svg>
