<svg xmlns="http://www.w3.org/2000/svg" width="60" height="60" viewBox="0 0 60 60">
  <g id="fuel">
    <path fill="#CA2027" stroke="#FFF" stroke-width="3.3" d="M58 29.98c-.95 36.92-55.05 36.92-56 0 .95-36.87 55.05-36.87 56 0z"/>
    <path fill="#FFF" d="M46.27 23.54c-.54-1.07-2.23-3.43-2.23-3.43s-.62-.78-1.07-.25c0 0-1.12-1.65-3.1-2.73 0 0-.74.12-.83.87 0 0 2.02 1.07 2.89 2.85 0 0-1.03 2.56-.99 3.26.08.66.95 1.16 1.73 1.82.25.2.42.5.45.83v9.71c.17 1.57-1.9 2.73-3.39 1.61-.58-.62-.5-1.65-.5-1.65v-6.15c.04-1.61 0-3.3-1.65-3.96.25-.17.04-7.85.08-8.18a2.4 2.4 0 0 0-2.4-2.44H20.63a2.4 2.4 0 0 0-2.44 2.35v7.39c0 1.2.87 2.19 2.02 2.35v14.58h-1.36v1.94h18.34v-1.94h-1.32V27.92l.58-.25c.74.12 1.07 1.03 1.07 1.57v7.43c0 .21 0 1.65.99 2.64 2.4 2.06 6.61.29 6.4-2.6V26.8c0-.37.12-.91.54-1.16.58-.33 1.36-1.03.83-2.06v-.04zm-10.9.83c0 .91-.83 1.65-1.82 1.65H22.4c-1.03 0-1.86-.74-1.86-1.65v-4.91c0-.87.83-1.61 1.82-1.61h11.15c1.03 0 1.86.74 1.86 1.61v4.96-.05zm8.09.62s-.95-.66-1.12-.99c-.21-.29.54-2.02.54-2.02s1.28 1.65 1.24 1.9c-.08.24-.66 1.11-.66 1.11z"/>
  </g>
</svg>
