<svg xmlns="http://www.w3.org/2000/svg" xmlns:xlink="http://www.w3.org/1999/xlink" viewBox="0 0 1920 1080">
<defs>
<style>@import url('https://fonts.googleapis.com/css2?family=Roboto:wght@400;700;900');</style>
</defs>
<style>
/* <![CDATA[ */

@namespace svg url(http://www.w3.org/2000/svg);

svg|a {
  outline: none;
}

svg {
  background: linear-gradient(#4a6785, #dbedff);
}

text {
  font-family: 'Roboto', sans-serif;
  text-anchor: middle;
  font-size: 26px;
}

.bttn:hover use {
  filter: url(#h_color);
  transform: translate(0px, 0px);
}

.bttn:active use {
  filter: url(#a_color);
  transform: translate(0px, 2px);
}

.nav_button_bg {
  fill: #fff;
  fill-opacity: 0;
  stroke: #fff;
  transition: fill-opacity .1s linear;
}

.nav_button:hover .nav_button_bg {
  fill-opacity: .3;
}

.nav_button text {
  font-size: 32px;
  font-weight: 700;
  text-anchor: middle;
  fill: #fff;
}

#page_num text {
  font-size: 60px;
  font-weight: 900;
  text-anchor: middle;
}

.ttl {
  font-size: 54px;
  fill: #fff;
  font-weight: 900;
}

.text_body {
  font-size: 26px;
  fill: #fff;
}

.text_body.dark {
  fill: #000;
}

#alarm, #popup_demonstrate, #popup_restrictor, #info, #bubbles {
  opacity: 1;
  transition: opacity .2s linear;
}

#alarm.invis, #popup_demonstrate.invis, #popup_restrictor.invis, #info.invis, #bubbles.invis {
  opacity: 0;
}

#alarm_close:hover use, #demonstrate_close:hover use, #restrictor_close:hover use {
  filter: url(#c_color);
}

#info:hover #info_bg {
  fill-opacity: .3;
}

#info_labels text {
  font-size: 24px;
  text-anchor: start;
}

/* ]]> */
</style>
<defs>
  <linearGradient id="pipe_grd1" x2="0" y2="1">
    <stop offset="0" stop-color="#363636"/>
    <stop offset=".05" stop-color="#4e4e4e"/>
    <stop offset=".07" stop-color="#4d4d4d"/>
    <stop offset=".16" stop-color="#6a6a6a"/>
    <stop offset=".36" stop-color="#444"/>
    <stop offset=".6" stop-color="#aaa"/>
    <stop offset=".61" stop-color="#ccc"/>
    <stop offset="1" stop-color="#999"/>
  </linearGradient>
  <linearGradient id="pipe_grd2" x2="1">
    <stop offset="0" stop-color="#868686"/>
    <stop offset="1" stop-color="#000"/>
  </linearGradient>
  <linearGradient id="pipe_grd3" x2="1">
    <stop offset="0" stop-color="#878787"/>
    <stop offset="1" stop-color="#c3c3c3"/>
  </linearGradient>
  <linearGradient id="pipe_grd4" x1="1" x2="0">
    <stop offset="0" stop-color="#9f9f9f"/>
    <stop offset=".04" stop-color="#9b9b9b"/>
    <stop offset=".05" stop-color="#4e4e4e"/>
    <stop offset=".07" stop-color="#4d4d4d"/>
    <stop offset=".08" stop-color="#898989"/>
    <stop offset=".15" stop-color="#8a8a8a"/>
    <stop offset=".16" stop-color="#6a6a6a"/>
    <stop offset=".36" stop-color="#5d5d5d"/>
    <stop offset=".6" stop-color="#bdbdbd"/>
    <stop offset=".61" stop-color="#e6e6e6"/>
    <stop offset="1" stop-color="#b5b5b5"/>
  </linearGradient>
  <linearGradient id="pipe_grd5" x2="0" y1="1" y2="0">
    <stop offset="0" stop-color="#363636"/>
    <stop offset=".05" stop-color="#4e4e4e"/>
    <stop offset=".07" stop-color="#4d4d4d"/>
    <stop offset=".16" stop-color="#6a6a6a"/>
    <stop offset=".36" stop-color="#5d5d5d"/>
    <stop offset=".6" stop-color="#bdbdbd"/>
    <stop offset=".61" stop-color="#e6e6e6"/>
    <stop offset="1" stop-color="#b5b5b5"/>
  </linearGradient>
  <filter id="h_color">
    <feColorMatrix
      color-interpolation-filters="sRGB"
      type="matrix"
      values=".5 0 0 0 0
              0 .7 0 0 0
              0 0 1 0 0
              0 0 0 1 0 "/>
  </filter>
  <filter id="a_color">
    <feColorMatrix
      color-interpolation-filters="sRGB"
      type="matrix"
      values="1 0 0 0 0
              0 .7 0 0 0
              0 0 .5 0 0
              0 0 0 1 0 "/>
  </filter>
  <filter id="c_color">
    <feColorMatrix
      color-interpolation-filters="sRGB"
      type="matrix"
      values="0 0 0 0 0
              0 .5 0 0 0
              0 0 0 0 0
              0 0 0 1 0 "/>
  </filter>
  <g id="bttn_r">
    <path fill-opacity=".5" d="M80.32 30.36A169.1 169.1 0 008.82 4.31 5.93 5.93 0 002.2 9.68L.8 25.77a5.96 5.96 0 005.2 6.4c20.3 2.6 40.3 9.62 58.55 21.35a5.95 5.95 0 008.1-1.56l9.27-13.24a5.92 5.92 0 00-1.6-8.36z"/>
    <path fill="#e8e8e8" stroke="#757575" stroke-width="1" d="M79.55 26.1A169.1 169.1 0 008.05.05a5.93 5.93 0 00-6.62 5.38L.03 21.52a5.96 5.96 0 005.2 6.4c20.3 2.6 40.3 9.61 58.55 21.34a5.95 5.95 0 008.1-1.55l9.27-13.25a5.93 5.93 0 00-1.6-8.36z"/>
    <g fill="none" stroke="#000" stroke-linecap="round" stroke-linejoin="round" stroke-width="4">
      <path d="M19.53 15.85a129.58 129.58 0 0142.1 15.56"/>
      <path d="M58.64 22.14l3 9.27-9.28 2.99"/>
    </g>
  </g>
  <g id="bttn_l">
    <path fill-opacity=".5" d="M2.68 30.36a169.1 169.1 0 0171.5-26.05 5.93 5.93 0 016.62 5.38l1.4 16.09c.29 3.18-2.02 6-5.2 6.4a141.07 141.07 0 00-58.55 21.35 5.95 5.95 0 01-8.1-1.56L1.08 38.73a5.92 5.92 0 011.6-8.36z"/>
    <path fill="#e8e8e8" stroke="#757575" stroke-width="1" d="M3.46 26.1A169.1 169.1 0 0174.96.05a5.93 5.93 0 016.62 5.38l1.4 16.09c.29 3.19-2.02 6-5.2 6.4a141.07 141.07 0 00-58.55 21.34 5.95 5.95 0 01-8.1-1.55L1.86 34.45a5.92 5.92 0 011.6-8.36z"/>
    <g fill="none" stroke="#000" stroke-linecap="round" stroke-linejoin="round" stroke-width="4">
      <path d="M63.47 15.85a129.58 129.58 0 00-42.1 15.56"/>
      <path d="M24.36 22.14l-3 9.27 9.28 2.99"/>
    </g>
  </g>
  <path id="arrow_r" fill="#BC0000" d="M22.31 0L-.62-22.89v12.59h-21.69v20.6H-.62v12.59L22.31 0z"/>
  <path id="arrow_y" fill="#FFFF00" d="M22.31 0L-.62-22.89v12.59h-21.69v20.6H-.62v12.59L22.31 0z"/>
  <g id="popup_close">
    <rect fill-opacity="0" width="24" height="24" x="-12" y="-12" />
    <path fill="#555" d="M3.72 0L9.3 5.58 5.58 9.3 0 3.72-5.58 9.3-9.3 5.58-3.72 0-9.3-5.58l3.72-3.72L0-3.72 5.58-9.3 9.3-5.58 3.72 0z"/>
  </g>
  <g id="ring">
    <path fill="#333" d="M120 215.88a95.88 95.88 0 110-191.76A95.88 95.88 0 01215.88 120 95.88 95.88 0 01120 215.88M120 0C53.73 0 0 53.73 0 120c0 66.27 53.73 120 120 120 66.27 0 120-53.73 120-120C240 53.73 186.27 0 120 0"/>
    <path fill="#828282" d="M120 219.56c-54.98 0-99.56-44.58-99.56-99.56 0-54.98 44.58-99.56 99.56-99.56 54.98 0 99.56 44.58 99.56 99.56 0 54.98-44.58 99.56-99.56 99.56m0-209.34C59.37 10.22 10.22 59.37 10.22 120S59.37 229.78 120 229.78 229.78 180.63 229.78 120 180.63 10.22 120 10.22"/>
    <path fill="#707070" d="M214.8 50.5a117.98 117.98 0 00-48.16-38.43c-1.18-.47-2.46.23 5.71 4.65 7.28 3.93 17.74 10.7 21.65 13.86 8.75 7.04 13.68 14 17.62 18.75 4.28 5.17 4.23 2.62 3.18 1.16"/>
    <path fill="#e6e6e6" d="M205.4 181.66c-16.23 20.91-44.47 45.07-84.67 45.07-17.36 0-54.67-4.44-83.07-36.01-26.52-29.47-27.44-63.27-27.44-72.68C10.22 57.4 59.37 8.26 120 8.26S229.78 57.4 229.78 118.04c0 13.65-3.84 37.16-24.38 63.62M233.71 120C233.71 57.2 182.8 6.29 120 6.29S7.02 56.59 7.02 119.39c0 28.64 16.28 60.84 33.31 76.74 17.04 15.91 37.06 33.5 87.22 33.5 41 0 81.05-36.3 91.15-58.76 7.25-16.1 21.15-47.92 5.06-92.46 5.61 12.16 13.46 38.98 4.3 72.06-7.89 28.48-24.78 44.26-30.5 50.16 14.37-12.32 36.15-38.37 36.15-80.63"/>
    <path fill="#fff" d="M36.58 64.77c-4.89 6.51-9.14 13.45-10.22 7.13-1.07-6.32 4.44-13.71 8.81-21.32C19.91 69.2 11.4 92.85 11.4 118.96c0 24.08 8.93 46.84 22.12 64.9-4.9-9.54-8.68-16.18-5.6-16.28-1.2-3.27.5-5.85 2.48-2.78 1.98 3.08 11.1 17.55 17.8 22.81A98.28 98.28 0 0121.39 120c0-35.84 20.2-62.9 44.09-80.9-5.53 2.87-19.15 12.7-28.9 25.67"/>
    <path fill="#5e5e5e" d="M238.75 120.94c1.35 10.1-4.78 42.01-17.67 61.98-12.9 19.96-26.8 32.83-51.16 44.71-1.04-1.25-4.37.62-4.37.62s3.74-3.12-2.29-1.87-9.77 1.66-9.77 1.66 28.43-9.62 47.41-28.07c17.01-16.53 27.26-37 31-55.62 3.96-19.62 3.35-29.2 3.35-29.2s2.67-.45 3.5 5.8"/>
    <path fill="#5e5e5e" d="M64.74 224.38s-19.46-10.07-34.73-27.51c-15.27-17.45-25-48.16-25.17-53.02-.08-2.54 3.84 11.39 9.57 22.31 5.25 10 12.21 16.8 15.1 20.8 6.04 8.4 24.16 26.35 46.48 35.74-7.22-1.34-18.46-7.88-16.28-4.86 2.18 3.02 9.4 7.89 5.03 6.54"/>
    <path fill="#d9d9d9" d="M206.9 172.09c10.23-15.29 14.4-30.6 14.4-50.35 0-55.94-45.36-101.29-101.3-101.29-29.25 0-55.6 12.4-74.1 32.22 5.26-5.36 34-29.8 73.89-29.8a97.31 97.31 0 0197.55 97.5c0 16.7-3.5 31.57-10.62 45.46-16.2 31.56-46.33 51-86.72 51.99 47.82 1.13 73.63-25.93 86.9-45.73"/>
    <path fill="#fff" d="M119.6 216.35c-52.63 0-94.93-42.86-95.47-95.36v1a95.88 95.88 0 00191.75 0l-.02-1c-.53 52.5-43.65 95.36-96.27 95.36"/>
    <path fill="#707070" d="M70.52 24.34c10.19-6.93 40.03-15.1 42.23-9.18 1.5 4.06-10.96 4.17-18.46 6.16-13.44 3.55-16.55 6.84-20.23 6.41-3.08-.35-6.12-1.63-3.54-3.4"/>
    <path fill="#5c5c5c" d="M87.22 215.62s6.94 4.1 25.01 6.86c14.8 2.27 37.4 1.54 46.94-6.85 7.95-6.98-4.43-.8-9.47.57-18.23 4.97-34.26 6.14-62.48-.58"/>
  </g>
</defs>

<a href="page_01.svg" id="bttn_prev" class="nav_button">
  <path class="nav_button_bg" d="M184.5 119.66H63.98c-6.6 0-12-5.4-12-12V69.84c0-6.6 5.4-12 12-12H184.5c6.6 0 12 5.4 12 12v37.83c0 6.59-5.4 11.99-12 11.99z"/>
  <text x="126" y="100">PREV</text>
</a>
<a href="page_03.svg" id="bttn_next" class="nav_button">
  <path class="nav_button_bg" d="M1856.02 119.66H1735.5c-6.6 0-12-5.4-12-12V69.84c0-6.6 5.4-12 12-12h120.52c6.6 0 12 5.4 12 12v37.83c0 6.59-5.4 11.99-12 11.99z"/>
  <text x="1798" y="100">NEXT</text>
</a>
<a href="tofc.svg" id="bttn_tofc" class="nav_button">
  <path class="nav_button_bg" d="M184.5 217.16H63.98c-6.6 0-12-5.4-12-12v-37.83c0-6.6 5.4-12 12-12H184.5c6.6 0 12 5.4 12 12v37.83c0 6.6-5.4 12-12 12z"/>
  <text x="126" y="199">TofC</text>
</a>
<g id="page_num">
  <circle cx="1821.47" cy="984.85" r="41.88" fill="#fff"/>
  <text x="1821.47" y="1005.44">2</text>
</g>

<text x="960" y="110" class="ttl">STANDARD VALVE</text>
<a id="info" fill="#fff" href="javascript:;">
  <circle id="info_bg" cx="1224.88" cy="69.58" r="17" fill-opacity="0" stroke="#fff" stroke-width="3"/>
  <path d="M1227.26 69.88a2.58 2.58 0 00-5.15 0v7.13a2.58 2.58 0 005.15 0v-7.13z"/>
  <path d="M1227.26 62.42a2.58 2.58 0 00-5.15 0v.03a2.58 2.58 0 005.15 0v-.03z"/>
</a>
<text x="960" y="168" class="text_body">
  The rate of flow of a standard pressure dependent control valve is affected by any change in pressure across it,
  <tspan x="960" dy="32">requiring continual set point adjustments to maintain stable flow.</tspan>
</text>

<g id="graph">
  <path id="label_flow" d="M78.71 908.79v9h9.3v4.69H65.26v-14.81h3.8v10.12h5.88v-9h3.77zm9.3-8.31v4.53h-24v-4.53h24zm-8.61-3.02a9.94 9.94 0 01-4.48-.97 7.17 7.17 0 01-3.05-2.79 8.11 8.11 0 01-1.08-4.23c0-2.28.7-4.14 2.09-5.59a8.39 8.39 0 015.69-2.41l1.16-.03c2.59 0 4.67.72 6.24 2.17 1.57 1.45 2.35 3.39 2.35 5.83a7.6 7.6 0 01-2.34 5.84c-1.56 1.46-3.69 2.18-6.38 2.18h-.2zm.32-4.51c1.61 0 2.84-.3 3.69-.91a2.99 2.99 0 001.28-2.59 3 3 0 00-1.26-2.56c-.84-.61-2.18-.92-4.03-.92-1.58 0-2.8.31-3.66.92a2.98 2.98 0 00-1.3 2.59c0 1.1.43 1.96 1.29 2.56.85.61 2.19.91 3.99.91zm2.15-28.99l-10.77-2.22v-4.36l16.91 4.31v3.78l-10.64 3.2 10.64 3.2v3.77l-16.91 4.31v-4.36l10.75-2.2-10.75-3.09v-3.27l10.77-3.07z"/>
  <path id="label_pressure" d="M371.34 996.2c0 2.6-.59 4.69-1.77 6.26a5.68 5.68 0 01-4.79 2.35 5.25 5.25 0 01-4.14-1.78v7.97h-4.52v-23.41h4.19l.16 1.66a5.3 5.3 0 014.28-1.97c2.08 0 3.7.77 4.86 2.31 1.16 1.54 1.73 3.67 1.73 6.38v.23zm-143.52 3.63c0-.55-.27-.99-.82-1.3a9.24 9.24 0 00-2.63-.85c-4.02-.84-6.03-2.55-6.03-5.12 0-1.5.62-2.75 1.87-3.76a7.55 7.55 0 014.88-1.51c2.15 0 3.86.51 5.15 1.52a4.76 4.76 0 011.93 3.94h-4.52a2.2 2.2 0 00-.62-1.6c-.42-.42-1.07-.63-1.95-.63-.76 0-1.35.17-1.77.52a1.6 1.6 0 00-.62 1.31c0 .5.24.9.71 1.21.47.31 1.27.57 2.4.8 1.12.22 2.07.48 2.84.76 2.39.88 3.58 2.39 3.58 4.55a4.4 4.4 0 01-1.98 3.74 8.57 8.57 0 01-5.12 1.43 8.85 8.85 0 01-3.77-.76 6.33 6.33 0 01-2.59-2.08 4.86 4.86 0 01-.94-2.85h4.28c.04.8.34 1.42.89 1.84a3.5 3.5 0 002.22.64c.86 0 1.52-.16 1.96-.49.43-.35.65-.78.65-1.31zm16.46 0c0-.55-.27-.99-.82-1.3a9.24 9.24 0 00-2.63-.85c-4.02-.84-6.03-2.55-6.03-5.12 0-1.5.62-2.75 1.87-3.76a7.55 7.55 0 014.88-1.51c2.15 0 3.86.51 5.15 1.52a4.76 4.76 0 011.93 3.94h-4.52a2.2 2.2 0 00-.62-1.6c-.42-.42-1.07-.63-1.95-.63-.76 0-1.35.17-1.77.52a1.6 1.6 0 00-.62 1.31c0 .5.24.9.71 1.21.47.31 1.27.57 2.4.8 1.12.22 2.07.48 2.84.76 2.39.88 3.58 2.39 3.58 4.55a4.4 4.4 0 01-1.98 3.74 8.57 8.57 0 01-5.12 1.43 8.85 8.85 0 01-3.77-.76 6.33 6.33 0 01-2.59-2.08 4.86 4.86 0 01-.94-2.85h4.28c.04.8.34 1.42.89 1.84a3.5 3.5 0 002.22.64c.86 0 1.52-.16 1.96-.49.42-.35.65-.78.65-1.31zm93.04-3.94c0-1.68.32-3.17.97-4.48a7.17 7.17 0 012.79-3.05 8.11 8.11 0 014.23-1.08c2.28 0 4.14.7 5.59 2.09a8.39 8.39 0 012.41 5.69l.03 1.16c0 2.59-.72 4.67-2.17 6.24-1.45 1.57-3.39 2.35-5.83 2.35a7.6 7.6 0 01-5.84-2.34c-1.46-1.56-2.18-3.69-2.18-6.38v-.2zm-75.62 6.89a5.67 5.67 0 01-4.62 2.03c-1.81 0-3.2-.52-4.15-1.56-.95-1.04-1.44-2.57-1.46-4.58v-11.08h4.52v10.93c0 1.76.8 2.64 2.41 2.64 1.53 0 2.58-.53 3.16-1.6v-11.98h4.53v16.91h-4.25l-.14-1.71zm26.94 2.03c-2.48 0-4.5-.76-6.05-2.28-1.56-1.52-2.34-3.55-2.34-6.08v-.44c0-1.7.33-3.22.98-4.55a7.23 7.23 0 012.79-3.09 7.87 7.87 0 014.12-1.09c2.31 0 4.13.73 5.46 2.19s1.99 3.53 1.99 6.2v1.84h-10.77c.15 1.1.59 1.99 1.32 2.66.73.67 1.66 1 2.79 1 1.74 0 3.1-.63 4.08-1.89l2.22 2.48a6.7 6.7 0 01-2.75 2.24 9.14 9.14 0 01-3.84.81zm-79.49 0c-2.48 0-4.5-.76-6.05-2.28-1.56-1.52-2.34-3.55-2.34-6.08v-.44c0-1.7.33-3.22.98-4.55a7.23 7.23 0 012.79-3.09 7.87 7.87 0 014.12-1.09c2.31 0 4.13.73 5.46 2.19s1.99 3.53 1.99 6.2v1.84h-10.77c.15 1.1.59 1.99 1.32 2.66.73.67 1.66 1 2.79 1 1.74 0 3.1-.63 4.08-1.89l2.22 2.48a6.7 6.7 0 01-2.75 2.24 9.1 9.1 0 01-3.84.81zm-34.81-8.33v8.02h-4.69v-22.75h8.88c1.71 0 3.21.31 4.51.94a6.93 6.93 0 012.99 2.66 7.4 7.4 0 011.05 3.93 6.5 6.5 0 01-2.29 5.27c-1.53 1.29-3.64 1.93-6.34 1.93h-4.11zm132.08 8.02v-22.75h7c2 0 3.79.45 5.37 1.35a9.45 9.45 0 013.7 3.84 11.8 11.8 0 011.33 5.66v1.05c0 2.12-.44 4-1.3 5.64a9.37 9.37 0 01-3.68 3.83 10.66 10.66 0 01-5.36 1.38h-7.06zm-27.44-12.67c-.61-.08-1.16-.12-1.62-.12-1.71 0-2.83.58-3.36 1.73v11.06h-4.52v-16.91h4.27l.12 2.02c.91-1.55 2.16-2.33 3.77-2.33.5 0 .97.07 1.41.2l-.07 4.35zm57.44 0c-.61-.08-1.16-.12-1.62-.12-1.71 0-2.83.58-3.36 1.73v11.06h-4.52v-16.91h4.27l.12 2.02c.91-1.55 2.16-2.33 3.77-2.33.5 0 .97.07 1.41.2l-.07 4.35zm-136.92 0c-.61-.08-1.16-.12-1.62-.12-1.71 0-2.83.58-3.36 1.73v11.06H190v-16.91h4.27l.12 2.02c.91-1.55 2.16-2.33 3.77-2.33.5 0 .97.07 1.41.2l-.07 4.35zm142.34 4.38c0 1.61.3 2.84.91 3.69.6.85 1.47 1.28 2.59 1.28a3 3 0 002.56-1.26c.61-.84.92-2.18.92-4.03 0-1.58-.31-2.8-.92-3.66a2.98 2.98 0 00-2.59-1.3c-1.1 0-1.96.43-2.56 1.29-.61.85-.91 2.19-.91 3.99zm24.98-.33c0-1.57-.28-2.79-.84-3.64a2.74 2.74 0 00-2.43-1.28c-1.42 0-2.39.54-2.92 1.62v6.92c.55 1.12 1.54 1.67 2.95 1.67 2.17 0 3.24-1.76 3.24-5.29zm-55.72-10.33v15.19h2.27c1.83 0 3.23-.6 4.2-1.8.97-1.2 1.46-2.91 1.48-5.14v-1.2c0-2.31-.48-4.06-1.44-5.26-.96-1.19-2.36-1.79-4.2-1.79h-2.31zm-102.46 5.37c-.9 0-1.62.3-2.18.91a4.75 4.75 0 00-1.07 2.61h6.28v-.36c-.02-1-.29-1.78-.81-2.33a2.94 2.94 0 00-2.22-.83zm79.48 0c-.9 0-1.62.3-2.18.91a4.75 4.75 0 00-1.07 2.61h6.28v-.36c-.02-1-.29-1.78-.81-2.33a2.91 2.91 0 00-2.22-.83zm-113.77-5.37v7.14h4.18c1.24 0 2.18-.29 2.84-.88.65-.58.98-1.42.98-2.5 0-1.11-.33-2.02-.98-2.7a3.69 3.69 0 00-2.72-1.06h-4.3z"/>
  <g id="curve" fill="none" stroke="#000">
    <rect width="347.38" height="174.25" x="94.17" y="801.67"/>
    <path d="M94.17 819.3h347.38"/>
    <path d="M94.17 836.7h347.38"/>
    <path d="M94.17 854.1h347.38"/>
    <path d="M94.17 871.51h347.38"/>
    <path d="M94.17 888.91h347.38"/>
    <path d="M94.17 906.31h347.38"/>
    <path d="M94.17 923.71h347.38"/>
    <path d="M94.17 941.11h347.38"/>
    <path d="M94.17 958.51h347.38"/>
    <path d="M398.13 801.67v174.25"/>
    <path d="M354.71 801.67v174.25"/>
    <path d="M311.29 801.67v174.25"/>
    <path d="M267.86 801.67v174.25"/>
    <path d="M224.44 801.67v174.25"/>
    <path d="M181.02 801.67v174.25"/>
    <path d="M137.59 801.67v174.25"/>
    <path d="M94.17 975.92s10.94-45.36 57.8-73.4c46.39-27.76 168.61-84.12 283.42-97.56"/>
  </g>
  <g id="formula">
    <path d="M262.32 785.66a8.16 8.16 0 01-3.58 2.35 14.9 14.9 0 01-5.12.84c-1.97 0-3.7-.43-5.18-1.29a8.67 8.67 0 01-3.44-3.74 13.12 13.12 0 01-1.24-5.77v-1.55c0-2.27.38-4.24 1.15-5.9a8.53 8.53 0 013.31-3.81 9.53 9.53 0 015.07-1.32c2.7 0 4.81.64 6.33 1.93 1.52 1.29 2.42 3.16 2.7 5.62h-4.56a4.58 4.58 0 00-1.38-2.86c-.71-.6-1.7-.91-2.95-.91-1.59 0-2.81.6-3.64 1.8-.83 1.2-1.26 2.98-1.27 5.34v1.45c0 2.39.45 4.19 1.36 5.41a4.65 4.65 0 003.98 1.83c1.76 0 3.02-.38 3.77-1.12v-3.92h-4.27v-3.45h8.95v9.07h.01zm-25.88-3.1c0-.88-.31-1.56-.94-2.04-.62-.47-1.75-.97-3.38-1.5a24.68 24.68 0 01-3.86-1.55c-2.58-1.4-3.88-3.28-3.88-5.64a5.5 5.5 0 011.04-3.29 6.8 6.8 0 012.98-2.26c1.3-.54 2.75-.81 4.37-.81s3.07.29 4.34.88a6.54 6.54 0 014.01 6.15h-4.69a3.1 3.1 0 00-.98-2.43 4.03 4.03 0 00-2.77-.87c-1.15 0-2.04.24-2.67.73a2.27 2.27 0 00-.95 1.91c0 .74.37 1.36 1.12 1.86.74.5 1.84.97 3.29 1.41 2.67.8 4.61 1.8 5.83 2.98a5.94 5.94 0 011.83 4.44c0 1.97-.75 3.51-2.23 4.63-1.49 1.12-3.5 1.68-6.02 1.68-1.75 0-3.34-.32-4.78-.96a7.6 7.6 0 01-3.29-2.63 6.7 6.7 0 01-1.13-3.88h4.7c0 2.51 1.5 3.77 4.5 3.77 1.11 0 1.98-.23 2.61-.68.63-.45.95-1.09.95-1.9zm-124.72-25.49c0 2.12-.34 3.97-1.03 5.54a9.44 9.44 0 01-2.86 3.77l3.78 2.97-2.98 2.64-4.84-3.89c-.55.09-1.12.14-1.72.14a9.43 9.43 0 01-5.05-1.36 9.1 9.1 0 01-3.44-3.88 13.37 13.37 0 01-1.23-5.8v-1.12c0-2.24.4-4.21 1.21-5.91a9.06 9.06 0 013.42-3.92 9.42 9.42 0 015.05-1.37c1.9 0 3.58.46 5.05 1.37a9.06 9.06 0 013.42 3.92c.81 1.7 1.21 3.67 1.21 5.9v1h.01zm55.55 3.28a8.04 8.04 0 01-2.71 5.78c-1.63 1.41-3.78 2.11-6.45 2.11-2.92 0-5.21-.98-6.88-2.95-1.67-1.96-2.51-4.66-2.51-8.09v-1.39c0-2.19.39-4.11 1.16-5.78a8.65 8.65 0 013.3-3.84 9.27 9.27 0 014.99-1.34c2.62 0 4.74.7 6.34 2.11 1.6 1.41 2.53 3.38 2.78 5.92h-4.69c-.11-1.47-.52-2.53-1.23-3.2-.7-.66-1.77-.99-3.21-.99-1.56 0-2.73.56-3.51 1.68-.78 1.12-1.17 2.86-1.2 5.21v1.72c0 2.46.37 4.26 1.12 5.39.74 1.14 1.92 1.7 3.52 1.7 1.45 0 2.53-.33 3.24-.99.71-.66 1.12-1.68 1.23-3.07h4.71v.02zm9.11 2.06l3.14-11.39h4.72l-5.7 16.91h-4.31l-5.7-16.91h4.72l3.13 11.39zm-69.41-6.37c0-2.38-.43-4.2-1.28-5.44a4.17 4.17 0 00-3.66-1.86c-1.57 0-2.79.61-3.64 1.84-.85 1.22-1.29 3.02-1.3 5.38v1.11c0 2.32.43 4.12 1.28 5.41a4.16 4.16 0 003.69 1.92c1.57 0 2.78-.62 3.62-1.85.84-1.23 1.27-3.03 1.28-5.4v-1.11h.01zm30.22 7h-13.97v-3.69h13.97v3.69zm0-6.77h-13.97v-3.69h13.97v3.69zm87.47-6.14v-22.75h7c2 0 3.79.45 5.37 1.35a9.45 9.45 0 013.7 3.84 11.8 11.8 0 011.33 5.66v1.05c0 2.12-.44 4-1.3 5.64a9.37 9.37 0 01-3.68 3.83 10.66 10.66 0 01-5.36 1.38h-7.06zm25.49-8.02v8.02h-4.69v-22.75h8.88c1.71 0 3.21.31 4.51.94a6.93 6.93 0 012.99 2.66 7.4 7.4 0 011.05 3.93 6.5 6.5 0 01-2.29 5.27c-1.53 1.29-3.64 1.93-6.34 1.93h-4.11zm-20.8-10.93v15.19h2.27c1.83 0 3.23-.6 4.2-1.8.97-1.2 1.46-2.91 1.48-5.14v-1.2c0-2.31-.48-4.06-1.44-5.26-.96-1.19-2.36-1.79-4.2-1.79h-2.31zm20.81 0v7.14h4.18c1.24 0 2.18-.29 2.84-.88.65-.58.98-1.42.98-2.5 0-1.11-.33-2.02-.98-2.7a3.69 3.69 0 00-2.72-1.06h-4.3z"/>
    <path fill="none" stroke="#000" stroke-linecap="round" stroke-width="3" d="M262.94 757.92H222.2"/>
    <path fill="none" stroke="#000" stroke-linecap="round" stroke-linejoin="round" stroke-width="3" d="M270.94 716.91H217.2l-20.28 73.71-8.72-20.98"/>
  </g>
</g>

<g id="pipe">
  <rect fill="url(#pipe_grd1)" width="1180.89" height="83.83" x="451.15" y="632.9"/>
  <rect fill="#ccc" width="1180.89" height="10" x="451.15" y="631.9"/>
  <rect fill="url(#pipe_grd2)" width="18.78" height="10" x="632.09" y="631.9"/>
  <rect fill="url(#pipe_grd2)" width="18.78" height="10" x="1213.86" y="631.9"/>
  <rect fill="#555" width="1180.89" height="10" x="451.15" y="706.73"/>
  <rect fill="url(#pipe_grd3)" width="18.78" height="10" x="754.37" y="706.73"/>
  <rect fill="url(#pipe_grd3)" width="18.78" height="10" x="1052.03" y="706.73"/>
  <path fill="url(#pipe_grd4)" d="M654.48 631.9V540h-26v91.9s5.02 1 13 1 13-1 13-1z"/>
  <path fill="url(#pipe_grd4)" d="M1236.25 631.9V540h-26v91.9s5.02 1 13 1 13-1 13-1z"/>
  <path fill="url(#pipe_grd4)" d="M776.92 716.7v167.4h-26V716.7s5.02-1 13-1c7.99 0 13 1 13 1z"/>
  <path fill="url(#pipe_grd4)" d="M1074.58 716.7v167.4h-26V716.7s5.02-1 13-1 13 1 13 1z"/>
  <path fill="url(#pipe_grd5)" d="M795.93 884.43h-45l26-26h19s1 5.02 1 13-1 13-1 13z"/>
  <path fill="url(#pipe_grd5)" d="M1029.58 884.43h45l-26-26h-19s-1 5.02-1 13 1 13 1 13z"/>
</g>
<clipPath id="arrow_clip1">
  <rect x="451.2" y="632.9" width="464" height="83.8"/>
</clipPath>
<clipPath id="arrow_clip2">
  <rect x="915" y="632.9" width="717" height="83.8"/>
</clipPath>
<g clip-path="url(#arrow_clip1)">
  <g id="queue">
    <use x="298" y="674" xlink:href="#arrow_r"/>
    <use x="420" y="674" xlink:href="#arrow_r"/>
    <use x="542" y="674" xlink:href="#arrow_r"/>
    <use x="664" y="674" xlink:href="#arrow_r"/>
    <use x="786" y="674" xlink:href="#arrow_r"/>
    <use x="908" y="674" xlink:href="#arrow_r"/>
  </g>
</g>
<g clip-path="url(#arrow_clip2)">
  <g id="queue2">
    <use x="908" y="674" xlink:href="#arrow_y"/>
    <use x="1030" y="674" xlink:href="#arrow_y"/>
    <use x="1152" y="674" xlink:href="#arrow_y"/>
    <use x="1274" y="674" xlink:href="#arrow_y"/>
    <use x="1396" y="674" xlink:href="#arrow_y"/>
    <use x="1518" y="674" xlink:href="#arrow_y"/>
    <use x="1640" y="674" xlink:href="#arrow_y"/>
  </g>
</g>
<g id="lines" fill="none" stroke-linecap="round">
  <path stroke="#000" stroke-linejoin="round" stroke-width="5.6" d="M915.09 674.23l-54.33 26.33V647.9l54.33 26.33z"/>
  <path stroke="#000" stroke-linejoin="round" stroke-width="5.6" d="M969.43 700.56V647.9l-54.34 26.33 54.34 26.33z"/>
  <path stroke="#000" stroke-linejoin="round" stroke-width="5.6" d="M915.09 569.38v104.85"/>
  <path stroke="#000" stroke-linejoin="round" stroke-width="5.6" d="M873.16 569.38h83.87"/>
  <rect width="449.6" height="204.01" x="693.67" y="541.62" stroke="#fff" stroke-linejoin="round" stroke-width="5" opacity=".5"/>
</g>

<g id="gray_bar">
  <circle cx="912.68" cy="871.19" r="101" fill="#d4d4d4"/>
  <path fill="#757575" stroke="#4a4a4a" stroke-width=".84" d="M912.68 763.63c-59.4 0-107.56 48.15-107.56 107.56 0 59.41 48.15 107.56 107.56 107.56 59.4 0 107.56-48.15 107.56-107.56 0-59.41-48.16-107.56-107.56-107.56zm0 208.56c-55.78 0-101-45.22-101-101s45.22-101 101-101 101 45.22 101 101-45.22 101-101 101z"/>
  <g id="gray_dashes" fill="none" stroke="#000" stroke-linecap="round" stroke-width="1.68">
    <path d="M876.16 934.45l-8 13.85"/>
    <path d="M855.45 939.4l4.88-5.82"/>
    <path d="M844.47 928.42l5.82-4.88"/>
    <path d="M835.57 915.71l6.58-3.8"/>
    <path d="M829.01 901.64l7.14-2.6"/>
    <path d="M825 886.65l15.75-2.78"/>
    <path d="M823.64 871.19h7.6"/>
    <path d="M825 855.73l7.48 1.32"/>
    <path d="M829.01 840.74l7.14 2.6"/>
    <path d="M835.57 826.67l6.58 3.8"/>
    <path d="M844.47 813.96l12.26 10.28"/>
    <path d="M855.45 802.98l4.88 5.82"/>
    <path d="M868.16 794.08l3.8 6.58"/>
    <path d="M882.23 787.52l2.6 7.14"/>
    <path d="M897.22 783.5l1.32 7.49"/>
    <path d="M912.68 782.15v16"/>
    <path d="M928.14 783.5l-1.32 7.49"/>
    <path d="M943.13 787.52l-2.59 7.14"/>
    <path d="M957.2 794.08l-3.8 6.58"/>
    <path d="M969.91 802.98l-4.88 5.82"/>
    <path d="M980.89 813.96l-12.26 10.28"/>
    <path d="M989.79 826.67l-6.58 3.8"/>
    <path d="M996.35 840.74l-7.14 2.6"/>
    <path d="M1000.37 855.73l-7.49 1.32"/>
    <path d="M1001.72 871.19h-7.6"/>
    <path d="M1000.37 886.65l-15.76-2.78"/>
    <path d="M996.35 901.64l-7.14-2.6"/>
    <path d="M989.79 915.71l-6.58-3.8"/>
    <path d="M980.89 928.42l-5.82-4.88"/>
    <path d="M969.91 939.4l-4.88-5.82"/>
    <path d="M957.2 948.3l-8-13.85"/>
  </g>
  <path id="gray_ttl" d="M900.43 954.73v-9.56h3.35c1.16 0 2.04.22 2.64.67.6.44.9 1.09.9 1.95 0 .47-.12.88-.36 1.24s-.58.62-1 .78a2 2 0 011.16.74c.28.37.42.83.42 1.37 0 .92-.29 1.61-.88 2.09-.59.47-1.42.71-2.51.72h-3.72zm21.16-3.5h-1.57v3.5h-1.97v-9.55h3.55c1.13 0 2 .25 2.61.75.61.5.92 1.21.92 2.13 0 .65-.14 1.2-.42 1.63-.28.44-.71.78-1.28 1.04l2.07 3.9v.09h-2.11l-1.8-3.49zm-7.19 1.53h-3.45l-.66 1.97h-2.09l3.56-9.55h1.82l3.58 9.55h-2.09l-.67-1.97zm-12-2.2v2.58h1.69c.46 0 .83-.11 1.09-.33.26-.22.39-.53.39-.92 0-.88-.45-1.32-1.36-1.33h-1.81zm9.08.6h2.39l-1.2-3.58-1.19 3.58zm8.55-4.4v2.87h1.58c.49 0 .88-.12 1.15-.38.27-.25.41-.6.41-1.04 0-.45-.13-.8-.38-1.06-.26-.26-.65-.39-1.18-.39h-1.58zm-17.63 2.41h1.46c.99-.02 1.49-.41 1.49-1.19 0-.43-.13-.75-.38-.94-.25-.19-.65-.29-1.19-.29h-1.38v2.42zm29.93-16.18c-.81-1.4-1.12-2.66-.92-3.78a3.77 3.77 0 012-2.67 3.78 3.78 0 013.33-.4c1.07.4 2.01 1.29 2.81 2.68l1.09 1.89c.81 1.4 1.11 2.66.92 3.78a3.77 3.77 0 01-2 2.67 3.76 3.76 0 01-3.32.39c-1.07-.4-2.01-1.3-2.81-2.69l-1.1-1.87zm3.66.81c.43.74.85 1.24 1.25 1.5.41.25.82.26 1.24.02.41-.24.61-.58.6-1.03a4.06 4.06 0 00-.59-1.72l-1.53-2.64a4.43 4.43 0 00-1.27-1.53 1.1 1.1 0 00-1.23 0 1.1 1.1 0 00-.6 1.04c.01.46.22 1.06.65 1.81l1.48 2.55zm-58.58-9.84c.81-1.4 1.74-2.29 2.81-2.69a3.77 3.77 0 013.31.4 3.79 3.79 0 012.01 2.69c.19 1.13-.12 2.38-.92 3.77l-1.09 1.89c-.81 1.4-1.74 2.29-2.81 2.69a3.8 3.8 0 01-3.32-.4 3.76 3.76 0 01-2-2.68c-.19-1.13.12-2.38.92-3.78l1.09-1.89zm63.34 4.16c-.81-1.4-1.11-2.66-.93-3.78a3.77 3.77 0 012-2.67 3.78 3.78 0 013.33-.4c1.07.4 2.01 1.29 2.81 2.68l1.09 1.89c.81 1.4 1.12 2.66.92 3.78a3.77 3.77 0 01-2 2.67 3.76 3.76 0 01-3.32.39c-1.07-.4-2.01-1.3-2.81-2.69l-1.09-1.87zm3.66.82c.43.74.85 1.24 1.25 1.5s.82.26 1.24.02c.41-.24.61-.58.6-1.03a4.06 4.06 0 00-.59-1.72l-1.53-2.64a4.43 4.43 0 00-1.27-1.53 1.1 1.1 0 00-1.23 0 1.1 1.1 0 00-.6 1.04c.01.46.22 1.06.65 1.81l1.48 2.55zm-65.87-1.4a4.29 4.29 0 00-.67 1.83c-.02.48.19.84.61 1.08.41.24.81.24 1.19.01a4.1 4.1 0 001.2-1.37l1.53-2.64c.45-.77.67-1.39.69-1.86.01-.47-.19-.83-.61-1.07a1.13 1.13 0 00-1.2 0c-.4.24-.81.72-1.24 1.46l-1.5 2.56zm76.75-5.22l-1.13.65c-.9.52-1.09 1.21-.58 2.09.2.34.46.56.8.65.34.09.7.03 1.09-.2.32-.18.54-.43.67-.76a.96.96 0 00-.05-.89l2.39-1.38c.31.54.44 1.12.39 1.72a3.5 3.5 0 01-.68 1.73 4.9 4.9 0 01-1.57 1.38 4.9 4.9 0 01-3.17.78 3.02 3.02 0 01-2.24-1.6 2.54 2.54 0 01-.32-1.5c.04-.55.26-1.1.63-1.65-.66.12-1.27.07-1.82-.16a2.73 2.73 0 01-1.34-1.23 3.09 3.09 0 01-.21-2.83 5.12 5.12 0 012.32-2.45 5.37 5.37 0 012.11-.7c.73-.08 1.38.03 1.94.31a3.3 3.3 0 011.35 1.3l-2.41 1.39a1.22 1.22 0 00-.86-.6 1.58 1.58 0 00-1.15.2c-.42.24-.69.55-.81.93-.12.38-.07.75.14 1.12.3.52.65.81 1.03.88.39.07.81-.03 1.27-.3l1.17-.67 1.04 1.79zm17.36-26.46c-1.59-.28-2.75-.85-3.49-1.72a3.75 3.75 0 01-.76-3.25 3.76 3.76 0 011.84-2.81c.99-.56 2.28-.71 3.86-.43l2.15.38c1.59.28 2.75.85 3.49 1.72.74.87.99 1.95.76 3.25a3.77 3.77 0 01-1.83 2.8c-.99.56-2.28.71-3.87.43l-2.15-.37zm2.97-2.28c.85.15 1.5.15 1.95 0 .46-.15.73-.46.81-.94.08-.47-.05-.84-.4-1.12-.35-.28-.92-.5-1.7-.65l-3-.53a4.24 4.24 0 00-1.99-.01 1.1 1.1 0 00-.79.94c-.08.46.06.84.41 1.13.36.29.96.51 1.8.67l2.91.51zm-124.72-2.52l-6.14.34-1.21-6.88 2.12-.37.82 4.66 2.38-.15a3.01 3.01 0 01-.43-.71 3.5 3.5 0 01-.29-.9c-.21-1.17-.02-2.13.56-2.88a4.24 4.24 0 012.75-1.45 4.39 4.39 0 012.14.14c.67.23 1.22.62 1.66 1.17.44.55.73 1.24.87 2.07.13.74.1 1.46-.09 2.16-.19.7-.52 1.28-.98 1.74-.46.46-1.03.75-1.7.86l-.48-2.73c.42-.1.74-.3.95-.59.21-.29.28-.64.21-1.04-.16-.92-.92-1.25-2.27-1.01-1.25.22-1.78.89-1.58 2.01.11.64.4 1.07.86 1.31l-.15 2.25zm125.79-12.62l5.89 1.78-1.21 6.87-2.12-.37.82-4.66-2.29-.68a3.66 3.66 0 01.14 1.77c-.21 1.17-.71 2.01-1.51 2.51-.8.51-1.83.65-3.08.43a4.17 4.17 0 01-1.96-.87 3.5 3.5 0 01-1.16-1.67 4.5 4.5 0 01-.11-2.24c.13-.74.4-1.4.82-2 .42-.59.92-1.03 1.52-1.3a3.05 3.05 0 011.89-.22l-.48 2.73a1.6 1.6 0 00-1.1.23c-.3.2-.48.51-.55.91-.16.92.43 1.49 1.79 1.73 1.25.22 1.98-.23 2.17-1.35.11-.64-.01-1.15-.36-1.53l.89-2.07zm-127.96-5.14c1.59-.28 2.88-.14 3.86.42.99.56 1.6 1.49 1.82 2.79a3.76 3.76 0 01-.77 3.27c-.74.87-1.9 1.44-3.48 1.72l-2.15.38c-1.59.28-2.88.14-3.86-.42a3.75 3.75 0 01-1.83-2.8 3.77 3.77 0 01.77-3.26c.74-.87 1.9-1.44 3.49-1.72l2.15-.38zm-2.01 3.17a4.2 4.2 0 00-1.84.67 1.1 1.1 0 00-.44 1.16c.08.47.34.78.76.92s1.03.16 1.82.03l3.01-.53a4.4 4.4 0 001.87-.67c.37-.29.51-.68.42-1.16a1.11 1.11 0 00-.77-.92 4.16 4.16 0 00-1.92-.01l-2.91.51zm124.49-.58l1.45-8.21 1.78.31 3.31 4.48c.9 1.12 1.66 1.73 2.28 1.84.51.09.91.05 1.21-.13.3-.17.49-.47.57-.89.07-.41-.04-.78-.35-1.1a2.22 2.22 0 00-1.25-.62l.48-2.73a3.9 3.9 0 013.07 2.64c.23.7.28 1.45.14 2.24a4.42 4.42 0 01-1.4 2.78c-.71.58-1.61.78-2.71.58-.46-.08-.9-.25-1.31-.5-.41-.25-.82-.6-1.24-1.05-.42-.45-.96-1.15-1.62-2.1l-1.49-1.83-.82 4.63-2.1-.34zm-1.08-34.78c-1.24 1.04-2.42 1.56-3.56 1.57a3.72 3.72 0 01-2.97-1.5 3.78 3.78 0 01-.97-3.21 5.7 5.7 0 012.15-3.23l1.67-1.4c1.24-1.04 2.42-1.56 3.56-1.57 1.14-.01 2.13.5 2.98 1.51a3.76 3.76 0 01.96 3.21c-.21 1.12-.93 2.2-2.16 3.24l-1.66 1.38zm-107.21-1.57l-1.78 2.12-6.76-5.67-1.14 2.6-1.61-1.35 1.98-5.18.16-.19 9.15 7.67zm107.37-2.17a4.25 4.25 0 001.26-1.49c.18-.44.11-.85-.2-1.23-.31-.36-.68-.5-1.12-.42a3.9 3.9 0 00-1.59.88l-2.34 1.96a4.24 4.24 0 00-1.28 1.52c-.17.44-.1.84.21 1.21.3.36.68.5 1.13.41a4.1 4.1 0 001.67-.95l2.26-1.89zm-6.41-3.71c-1.24 1.04-2.42 1.56-3.56 1.57a3.72 3.72 0 01-2.97-1.5 3.78 3.78 0 01-.97-3.21 5.7 5.7 0 012.15-3.23l1.67-1.4c1.24-1.04 2.42-1.56 3.56-1.57 1.14-.01 2.13.5 2.98 1.51a3.76 3.76 0 01.96 3.21c-.21 1.12-.93 2.2-2.16 3.24l-1.66 1.38zm-97.05-6.37c1.24 1.04 1.96 2.11 2.16 3.23a3.75 3.75 0 01-.96 3.19 3.75 3.75 0 01-2.99 1.51c-1.14-.01-2.33-.53-3.55-1.56l-1.67-1.4c-1.24-1.04-1.96-2.11-2.16-3.23a3.8 3.8 0 01.97-3.2 3.75 3.75 0 012.99-1.51c1.14.01 2.33.53 3.56 1.56l1.65 1.41zm-3.72.49a4.29 4.29 0 00-1.69-.98c-.47-.1-.86.04-1.17.41a1.1 1.1 0 00-.22 1.17c.16.42.54.89 1.15 1.42l2.34 1.96c.68.57 1.25.91 1.72 1 .46.09.85-.05 1.16-.42.3-.36.37-.76.21-1.19a4.05 4.05 0 00-1.23-1.48l-2.27-1.89zm100.93 2.13a4.25 4.25 0 001.26-1.49c.18-.44.11-.85-.2-1.23-.31-.36-.68-.5-1.12-.42a3.9 3.9 0 00-1.59.88l-2.34 1.96a4.24 4.24 0 00-1.28 1.52c-.17.44-.1.84.21 1.21.3.36.68.5 1.13.41a4.1 4.1 0 001.67-.95l2.26-1.89zm-10.13-.53l-5.36-6.38 1.38-1.16 5.56.35c1.43.03 2.39-.16 2.88-.56.39-.33.62-.67.68-1.01.06-.34-.05-.68-.32-1.01a1.22 1.22 0 00-1.07-.44c-.44.03-.87.22-1.28.56l-1.78-2.12a3.89 3.89 0 014.01-.65c.69.27 1.29.72 1.8 1.33a4.44 4.44 0 011.23 2.86c-.01.92-.44 1.73-1.29 2.45-.36.3-.77.53-1.22.68-.45.15-.99.25-1.6.28-.61.03-1.5 0-2.65-.1l-2.35-.04 3.02 3.6-1.64 1.36zm-80.83-9.54c1.24 1.04 1.96 2.11 2.16 3.23a3.75 3.75 0 01-.96 3.19 3.75 3.75 0 01-2.99 1.51c-1.14-.01-2.33-.53-3.55-1.56l-1.67-1.4c-1.24-1.04-1.96-2.11-2.16-3.23a3.8 3.8 0 01.97-3.2 3.78 3.78 0 012.99-1.51c1.14.01 2.33.53 3.56 1.56l1.65 1.41zm-3.71.48a4.29 4.29 0 00-1.69-.98c-.47-.1-.86.04-1.17.41-.31.36-.38.75-.22 1.17.16.42.55.89 1.15 1.42l2.34 1.96c.68.57 1.25.91 1.72 1 .47.09.85-.05 1.16-.42.3-.36.37-.76.21-1.18a4.05 4.05 0 00-1.23-1.48l-2.27-1.9zm39.34-13.42l.73-6.11h6.98v2.15h-4.73l-.27 2.37a3.87 3.87 0 011.72-.43c1.19 0 2.1.35 2.74 1.05.64.7.96 1.69.96 2.96 0 .77-.17 1.46-.51 2.08-.34.62-.82 1.1-1.44 1.43a4.6 4.6 0 01-2.19.5c-.75 0-1.45-.15-2.11-.46a3.73 3.73 0 01-1.54-1.27 3.15 3.15 0 01-.55-1.82h2.77c.03.44.17.78.42 1.04.25.26.58.38.99.38.93 0 1.39-.69 1.39-2.06 0-1.27-.57-1.91-1.71-1.91-.65 0-1.13.21-1.44.62l-2.21-.52zm17.86.95c0 1.61-.36 2.86-1.09 3.73a3.78 3.78 0 01-3.06 1.31 3.76 3.76 0 01-3.08-1.32c-.73-.88-1.09-2.12-1.09-3.72v-2.18c0-1.61.36-2.86 1.09-3.73a3.79 3.79 0 013.07-1.31c1.32 0 2.35.44 3.08 1.32.73.88 1.09 2.12 1.09 3.73v2.17h-.01zm-21.63 4.88h-2.77v-8.83l-2.72.79v-2.1l5.24-1.81h.25v11.95zm18.86-7.41c0-.86-.11-1.5-.34-1.92a1.13 1.13 0 00-1.07-.64c-.48 0-.82.2-1.04.59a4 4 0 00-.35 1.79v3.05c0 .89.11 1.54.34 1.96.23.42.58.62 1.07.62.47 0 .82-.2 1.04-.6.22-.4.34-1.03.34-1.89v-2.96h.01z"/>
  <g id="gray_arrow" transform="rotate(-150 912.7 871.2)">
    <path d="M914.68 862.12a9.29 9.29 0 01.37 18.03l.29 14.33h-5.32l.29-14.33a9.29 9.29 0 01.37-18.03l1.44-71.25h1.12l1.44 71.25z"/>
    <circle cx="912.68" cy="871.18" r="4.98" fill="#fff"/>
  </g>
  <use x="792.7" y="751.2" xlink:href="#ring"/>
</g>
<g id="yellow_bar">
  <circle cx="1223.08" cy="424.68" r="101" fill="#ffff63"/>
  <path fill="#fcb500" stroke="#b08010" stroke-width=".84" d="M1223.08 317.13c-59.4 0-107.56 48.15-107.56 107.56 0 59.41 48.15 107.56 107.56 107.56 59.41 0 107.56-48.15 107.56-107.56 0-59.41-48.16-107.56-107.56-107.56zm0 208.55c-55.78 0-101-45.22-101-101s45.22-101 101-101 101 45.22 101 101-45.22 101-101 101z"/>
  <g id="yellow_dashes" fill="none" stroke="#000" stroke-linecap="round" stroke-width="1.68">
    <path d="M1186.56 487.94l-8 13.85"/>
    <path d="M1165.85 492.89l4.88-5.82"/>
    <path d="M1154.87 481.91l5.82-4.88"/>
    <path d="M1145.97 469.2l6.58-3.8"/>
    <path d="M1139.41 455.13l7.14-2.59"/>
    <path d="M1135.39 440.14l15.76-2.78"/>
    <path d="M1134.04 424.68h7.6"/>
    <path d="M1135.39 409.22l7.49 1.32"/>
    <path d="M1139.41 394.23l7.14 2.6"/>
    <path d="M1145.97 380.16l6.58 3.8"/>
    <path d="M1154.87 367.45l12.26 10.28"/>
    <path d="M1165.85 356.47l4.88 5.82"/>
    <path d="M1178.56 347.57l3.8 6.58"/>
    <path d="M1192.63 341.01l2.59 7.14"/>
    <path d="M1207.62 337l1.32 7.48"/>
    <path d="M1223.08 335.64v16"/>
    <path d="M1238.54 337l-1.32 7.48"/>
    <path d="M1253.53 341.01l-2.6 7.14"/>
    <path d="M1267.6 347.57l-3.8 6.58"/>
    <path d="M1280.31 356.47l-4.88 5.82"/>
    <path d="M1291.29 367.45l-12.26 10.28"/>
    <path d="M1300.19 380.16l-6.58 3.8"/>
    <path d="M1306.75 394.23l-7.14 2.6"/>
    <path d="M1310.76 409.22l-7.48 1.32"/>
    <path d="M1312.12 424.68h-7.6"/>
    <path d="M1310.76 440.14l-15.75-2.78"/>
    <path d="M1306.75 455.13l-7.14-2.59"/>
    <path d="M1300.19 469.2l-6.58-3.8"/>
    <path d="M1291.29 481.91l-5.82-4.88"/>
    <path d="M1280.31 492.89l-4.88-5.82"/>
    <path d="M1267.6 501.79l-8-13.85"/>
  </g>
  <path id="yellow_ttl" d="M1224.8 506.25h-3.45l-.66 1.97h-2.09l3.56-9.56h1.82l3.58 9.56h-2.09l-.67-1.97zm-13.97 1.97v-9.56h3.35c1.16 0 2.04.22 2.64.67.6.44.9 1.09.9 1.95 0 .47-.12.88-.36 1.24s-.58.62-1 .78a2 2 0 011.16.74c.28.37.42.83.42 1.37 0 .92-.29 1.61-.88 2.09-.59.47-1.42.71-2.51.72h-3.72zm21.16-3.5h-1.57v3.5h-1.97v-9.56h3.55c1.13 0 2 .25 2.61.75.61.5.92 1.21.92 2.13 0 .65-.14 1.2-.42 1.63-.28.44-.71.78-1.28 1.04l2.07 3.9v.09h-2.11l-1.8-3.48zm-19.19-.66v2.58h1.69c.46 0 .83-.11 1.09-.33.26-.22.39-.53.39-.92 0-.88-.45-1.32-1.36-1.33h-1.81zm9.08.59h2.39l-1.2-3.58-1.19 3.58zm8.55-4.4v2.87h1.58c.49 0 .88-.13 1.15-.38.27-.25.41-.6.41-1.04 0-.45-.13-.81-.38-1.06-.26-.26-.65-.39-1.18-.39h-1.58zm-17.63 2.42h1.46c.99-.02 1.49-.41 1.49-1.19 0-.43-.13-.74-.38-.94-.25-.19-.65-.29-1.19-.29h-1.38v2.42zm29.92-16.19c-.81-1.4-1.12-2.66-.92-3.78a3.8 3.8 0 012-2.67 3.78 3.78 0 013.33-.4c1.07.4 2.01 1.29 2.81 2.68l1.09 1.89c.81 1.4 1.11 2.66.92 3.78a3.77 3.77 0 01-2 2.67 3.8 3.8 0 01-3.32.4c-1.07-.4-2.01-1.3-2.81-2.69l-1.1-1.88zm3.67.81c.43.74.85 1.24 1.25 1.5.41.25.82.26 1.24.02.41-.24.61-.58.6-1.03a4.06 4.06 0 00-.59-1.72l-1.53-2.64a4.43 4.43 0 00-1.27-1.53 1.1 1.1 0 00-1.23 0 1.1 1.1 0 00-.6 1.04c.01.46.22 1.06.65 1.81l1.48 2.55zm-58.58-9.83c.81-1.4 1.74-2.29 2.81-2.69a3.77 3.77 0 013.31.39 3.79 3.79 0 012.01 2.69c.19 1.13-.12 2.38-.92 3.77l-1.09 1.89c-.81 1.4-1.74 2.29-2.81 2.69-1.06.4-2.17.26-3.32-.4a3.76 3.76 0 01-2-2.68c-.19-1.13.12-2.39.92-3.78l1.09-1.88zm63.34 4.15c-.81-1.4-1.12-2.66-.93-3.78a3.77 3.77 0 012-2.67 3.78 3.78 0 013.33-.4c1.07.4 2.01 1.29 2.81 2.68l1.09 1.89c.81 1.4 1.12 2.66.92 3.78a3.77 3.77 0 01-2 2.67 3.8 3.8 0 01-3.32.4c-1.07-.4-2.01-1.29-2.81-2.69l-1.09-1.88zm3.66.82c.43.74.85 1.24 1.25 1.5.41.26.82.26 1.24.02.41-.24.61-.58.6-1.03a4.06 4.06 0 00-.59-1.72l-1.53-2.64a4.43 4.43 0 00-1.27-1.53 1.1 1.1 0 00-1.23 0 1.1 1.1 0 00-.6 1.04c.01.46.22 1.06.65 1.81l1.48 2.55zm-65.88-1.4a4.25 4.25 0 00-.67 1.83c-.02.48.19.84.61 1.08.41.24.81.24 1.19.01a4.1 4.1 0 001.2-1.37l1.53-2.64c.45-.77.67-1.39.69-1.86.01-.47-.19-.83-.61-1.07a1.1 1.1 0 00-1.2 0c-.4.24-.81.72-1.24 1.47l-1.5 2.55zm76.76-5.22l-1.13.65c-.9.52-1.09 1.21-.58 2.09.2.34.46.56.8.65.34.09.7.03 1.09-.2.32-.18.54-.44.67-.75a.96.96 0 00-.05-.89l2.39-1.38c.31.54.44 1.12.39 1.72a3.6 3.6 0 01-.68 1.73 4.9 4.9 0 01-1.57 1.38 4.96 4.96 0 01-3.17.78 3.04 3.04 0 01-2.24-1.6 2.54 2.54 0 01-.32-1.5c.04-.55.26-1.1.63-1.65-.66.12-1.27.06-1.82-.16a2.78 2.78 0 01-1.34-1.23 3.09 3.09 0 01-.21-2.83 5.12 5.12 0 012.32-2.45 5.37 5.37 0 012.11-.7c.73-.08 1.38.03 1.94.31s1.01.72 1.35 1.3l-2.41 1.39a1.22 1.22 0 00-.86-.6 1.58 1.58 0 00-1.15.2c-.42.24-.69.56-.81.94-.12.38-.07.75.14 1.11.3.52.64.82 1.03.88.39.07.81-.03 1.27-.3l1.17-.67 1.04 1.78zM1202.12 463a7.7 7.7 0 01-.65 3.25 4.92 4.92 0 01-4.66 2.91 5.02 5.02 0 01-4.68-2.89 7.38 7.38 0 01-.68-3.2v-.62c0-1.23.22-2.32.67-3.26a4.94 4.94 0 014.68-2.91 4.94 4.94 0 014.68 2.91c.44.94.67 2.02.67 3.25v.56h-.03zm11.37 1.7c0 1.37-.43 2.46-1.29 3.26-.86.8-2.03 1.2-3.52 1.2a5.05 5.05 0 01-3.49-1.16 4.17 4.17 0 01-1.32-3.2v-8.35h2.58v8.28c0 .82.2 1.42.59 1.8.39.38.94.56 1.63.56 1.45 0 2.19-.76 2.21-2.29v-8.35h2.61v8.25zm15.62 2.21h5.49v2.08h-8.07v-12.54h2.58v10.46zm14.51-3.36h-4.96v3.36h5.82v2.08h-8.41v-12.54h8.39v2.09h-5.8v2.99h4.96v2.02zm-18.57-5.02h-3.84v10.45h-2.58v-10.45h-3.79v-2.09h10.21v2.09zm30.56 0h-3.84v10.45h-2.58v-10.45h-3.79v-2.09h10.21v2.09zm-56.1 3.9c0-1.31-.24-2.31-.71-3a2.3 2.3 0 00-2.02-1.02c-.87 0-1.54.34-2.01 1.01a5.17 5.17 0 00-.71 2.97v.61c0 1.28.24 2.27.71 2.98a2.29 2.29 0 002.03 1.06c.87 0 1.53-.34 2-1.02.47-.68.7-1.67.71-2.98v-.61zm83.53-13.08c-1.59-.28-2.75-.85-3.49-1.72a3.75 3.75 0 01-.76-3.25 3.79 3.79 0 011.83-2.81c1-.56 2.28-.71 3.86-.43l2.15.38c1.59.28 2.75.85 3.49 1.72.74.87.99 1.95.76 3.25a3.77 3.77 0 01-1.83 2.8c-.99.56-2.28.71-3.87.43l-2.14-.37zm2.98-2.28c.85.15 1.5.15 1.95 0 .46-.15.73-.46.81-.94.08-.47-.05-.84-.4-1.12-.35-.28-.92-.5-1.7-.65l-3-.53a4.37 4.37 0 00-1.99-.01 1.1 1.1 0 00-.79.94c-.08.46.06.84.41 1.13.36.29.96.51 1.8.67l2.91.51zm-124.73-2.52l-6.14.34-1.21-6.88 2.12-.37.82 4.66 2.38-.15a3.01 3.01 0 01-.43-.71 3.5 3.5 0 01-.29-.9c-.21-1.17-.02-2.13.56-2.88a4.3 4.3 0 012.75-1.46 4.39 4.39 0 012.14.14c.67.23 1.22.62 1.66 1.17.44.55.73 1.24.87 2.07.13.74.1 1.46-.09 2.16-.19.7-.52 1.28-.98 1.74-.47.46-1.03.75-1.7.86l-.48-2.73c.42-.1.74-.3.95-.59.21-.29.28-.64.21-1.04-.16-.92-.92-1.25-2.27-1.02-1.25.22-1.78.89-1.58 2.01.11.64.4 1.07.86 1.31l-.15 2.27zm125.79-12.62l5.89 1.78-1.21 6.88-2.12-.37.82-4.66-2.29-.68a3.66 3.66 0 01.14 1.77c-.21 1.17-.71 2.01-1.51 2.51s-1.83.65-3.08.43a4.17 4.17 0 01-1.96-.87 3.5 3.5 0 01-1.16-1.67 5.05 5.05 0 01.71-4.24c.42-.59.92-1.03 1.52-1.3s1.23-.35 1.89-.22l-.48 2.73c-.44-.05-.8.03-1.1.23-.3.2-.48.51-.55.91-.16.92.43 1.49 1.79 1.73 1.25.22 1.98-.23 2.18-1.35.11-.64-.01-1.15-.36-1.53l.88-2.08zm-127.95-5.14c1.59-.28 2.88-.14 3.86.42.99.56 1.6 1.49 1.82 2.79a3.79 3.79 0 01-.76 3.27c-.74.87-1.9 1.44-3.48 1.72l-2.15.38c-1.59.28-2.88.14-3.87-.42a3.75 3.75 0 01-1.83-2.8c-.23-1.3.03-2.39.77-3.26.74-.87 1.9-1.44 3.49-1.72l2.15-.38zm-2.01 3.17a4.2 4.2 0 00-1.84.67c-.38.29-.52.68-.44 1.16.08.47.34.78.76.92s1.03.16 1.82.03l3-.53c.88-.15 1.5-.38 1.87-.67.37-.29.51-.68.42-1.16a1.11 1.11 0 00-.77-.92 4.03 4.03 0 00-1.92-.01l-2.9.51zm124.49-.58l1.45-8.21 1.78.31 3.31 4.48c.9 1.12 1.66 1.73 2.28 1.84.51.09.91.05 1.21-.13.3-.17.49-.47.57-.89a1.2 1.2 0 00-.35-1.1 2.19 2.19 0 00-1.25-.62l.48-2.73c.72.13 1.36.43 1.9.89a3.8 3.8 0 011.17 1.76c.23.7.28 1.45.14 2.24a4.42 4.42 0 01-1.4 2.78c-.71.58-1.61.78-2.71.58-.46-.08-.9-.25-1.31-.5-.41-.25-.82-.6-1.24-1.05-.42-.45-.96-1.15-1.62-2.1l-1.49-1.83-.82 4.63-2.1-.35zm-1.08-34.78c-1.24 1.04-2.42 1.56-3.56 1.57a3.72 3.72 0 01-2.97-1.5 3.78 3.78 0 01-.97-3.21 5.7 5.7 0 012.15-3.23l1.67-1.4c1.24-1.04 2.42-1.56 3.56-1.57 1.14-.01 2.13.5 2.98 1.51a3.8 3.8 0 01.97 3.21c-.21 1.12-.93 2.2-2.16 3.24l-1.67 1.38zm-107.21-1.57l-1.78 2.12-6.76-5.67-1.14 2.6-1.61-1.35 1.98-5.18.16-.19 9.15 7.67zm107.37-2.17a4.25 4.25 0 001.26-1.49c.18-.44.11-.85-.2-1.23-.31-.36-.68-.5-1.12-.42-.44.09-.97.38-1.59.88l-2.34 1.96a4.24 4.24 0 00-1.28 1.52c-.17.44-.1.84.21 1.21.3.36.68.5 1.13.41a4.1 4.1 0 001.67-.95l2.26-1.89zm-6.42-3.71c-1.24 1.04-2.42 1.56-3.56 1.57a3.72 3.72 0 01-2.97-1.5 3.78 3.78 0 01-.97-3.21 5.7 5.7 0 012.15-3.23l1.67-1.4c1.24-1.04 2.42-1.56 3.56-1.57 1.14-.01 2.13.5 2.98 1.51a3.8 3.8 0 01.97 3.21c-.21 1.12-.93 2.2-2.16 3.24l-1.67 1.38zm-97.04-6.37c1.24 1.04 1.96 2.11 2.16 3.23a3.79 3.79 0 01-.96 3.19 3.75 3.75 0 01-2.99 1.51c-1.14-.01-2.33-.53-3.55-1.56l-1.67-1.4c-1.24-1.04-1.96-2.11-2.16-3.23a3.76 3.76 0 01.97-3.2 3.78 3.78 0 012.99-1.51c1.14.01 2.33.53 3.56 1.56l1.65 1.41zm-3.72.49a4.29 4.29 0 00-1.69-.98c-.47-.1-.86.04-1.17.41-.31.36-.38.76-.21 1.17.17.41.54.89 1.15 1.42l2.34 1.96c.68.57 1.25.91 1.71 1 .46.09.85-.05 1.16-.42.3-.36.37-.76.21-1.19a4.05 4.05 0 00-1.23-1.48l-2.27-1.89zm100.93 2.13a4.25 4.25 0 001.26-1.49c.18-.44.11-.85-.2-1.23-.31-.36-.68-.5-1.12-.42-.44.09-.97.38-1.59.88l-2.34 1.96a4.24 4.24 0 00-1.28 1.52c-.17.44-.1.84.21 1.21.3.36.68.5 1.13.41a4.1 4.1 0 001.67-.95l2.26-1.89zm-10.13-.53l-5.36-6.38 1.38-1.16 5.56.35c1.43.03 2.39-.16 2.88-.56.39-.33.62-.67.68-1.01.06-.34-.05-.68-.32-1.01a1.22 1.22 0 00-1.07-.44c-.44.03-.87.22-1.28.56l-1.78-2.12a3.89 3.89 0 014.01-.65c.69.27 1.29.72 1.8 1.33a4.44 4.44 0 011.23 2.86c-.01.92-.44 1.73-1.29 2.45-.36.3-.77.53-1.22.68-.45.15-.99.24-1.6.28-.61.03-1.5 0-2.65-.1l-2.35-.04 3.02 3.6-1.64 1.36zm-80.83-9.54c1.24 1.04 1.96 2.11 2.16 3.23a3.79 3.79 0 01-.96 3.19 3.76 3.76 0 01-3 1.51c-1.14-.01-2.33-.53-3.55-1.56l-1.67-1.4c-1.24-1.04-1.96-2.11-2.16-3.23a3.76 3.76 0 01.97-3.2 3.75 3.75 0 012.99-1.51c1.14.01 2.33.53 3.56 1.56l1.66 1.41zm-3.72.49a4.29 4.29 0 00-1.69-.98c-.47-.1-.86.04-1.17.41-.31.36-.38.76-.21 1.17.17.41.54.89 1.15 1.42l2.34 1.96c.68.57 1.25.91 1.72 1 .46.09.85-.05 1.16-.42.3-.36.37-.76.21-1.19a4.05 4.05 0 00-1.23-1.48l-2.28-1.89zm39.35-13.43l.73-6.11h6.98v2.15h-4.73l-.27 2.37c.2-.12.46-.22.77-.3.32-.09.63-.13.94-.13 1.19 0 2.1.35 2.74 1.05.64.7.96 1.69.96 2.96 0 .77-.17 1.46-.51 2.08-.34.62-.82 1.1-1.44 1.43a4.6 4.6 0 01-2.19.5c-.75 0-1.45-.15-2.11-.46a3.73 3.73 0 01-1.54-1.27 3.15 3.15 0 01-.55-1.82h2.77c.03.44.17.78.42 1.04.25.26.58.38.99.38.93 0 1.39-.69 1.39-2.06 0-1.27-.57-1.91-1.71-1.91-.65 0-1.13.21-1.44.62l-2.2-.52zm17.85.95c0 1.61-.36 2.86-1.09 3.73a3.78 3.78 0 01-3.06 1.31 3.76 3.76 0 01-3.08-1.32c-.73-.88-1.09-2.12-1.09-3.72v-2.18c0-1.61.36-2.86 1.09-3.73a3.79 3.79 0 013.07-1.31c1.32 0 2.35.44 3.08 1.32.73.88 1.09 2.12 1.09 3.73v2.17h-.01zm-21.62 4.88h-2.77v-8.83l-2.72.8v-2.1l5.24-1.81h.25v11.94zm18.86-7.41c0-.86-.11-1.5-.34-1.92a1.13 1.13 0 00-1.07-.64c-.48 0-.82.2-1.04.59a4 4 0 00-.35 1.79v3.05c0 .89.11 1.54.34 1.96.22.41.58.62 1.07.62.47 0 .82-.2 1.04-.6.22-.4.34-1.03.34-1.89v-2.96h.01z"/>
  <g id="yellow_arrow" transform="rotate(-150 1223.1 424.7)">
    <path d="M1225.08 415.6a9.29 9.29 0 01.37 18.04l.29 14.33h-5.32l.29-14.33a9.29 9.29 0 01.36-18.03l1.45-71.25h1.12l1.44 71.25z"/>
    <circle cx="1223.08" cy="424.67" r="4.98" fill="#ffff63"/>
  </g>
  <a id="yb_left" class="bttn" href="javascript:;">
    <use x="1133" y="270" xlink:href="#bttn_l"/>
  </a>
  <a id="yb_right" class="bttn" href="javascript:;">
    <use x="1230" y="270" xlink:href="#bttn_r"/>
  </a>
  <use x="1103.1" y="304.7" xlink:href="#ring"/>
</g>
<g id="red_bar">
  <circle cx="641.33" cy="424.68" r="101" fill="#ffb8b8"/>
  <path fill="#d16969" stroke="#994d4d" stroke-width="1.4" d="M641.33 317.13c-59.4 0-107.56 48.15-107.56 107.56 0 59.41 48.15 107.56 107.56 107.56 59.4 0 107.56-48.15 107.56-107.56 0-59.41-48.16-107.56-107.56-107.56zm0 208.55c-55.78 0-101-45.22-101-101s45.22-101 101-101 101 45.22 101 101-45.22 101-101 101z"/>
  <g id="red_dashes" fill="none" stroke="#000" stroke-linecap="round" stroke-width="1.68">
    <path d="M604.8 487.94l-7.99 13.85"/>
    <path d="M584.09 492.89l4.89-5.82"/>
    <path d="M573.12 481.91l5.82-4.88"/>
    <path d="M564.22 469.2l6.58-3.8"/>
    <path d="M557.66 455.13l7.14-2.59"/>
    <path d="M553.64 440.14l15.75-2.78"/>
    <path d="M552.29 424.68h7.59"/>
    <path d="M553.64 409.22l7.48 1.32"/>
    <path d="M557.66 394.23l7.14 2.6"/>
    <path d="M564.22 380.16l6.58 3.8"/>
    <path d="M573.12 367.45l12.25 10.28"/>
    <path d="M584.09 356.47l4.89 5.82"/>
    <path d="M596.81 347.57l3.79 6.58"/>
    <path d="M610.87 341.01l2.6 7.14"/>
    <path d="M625.86 337l1.32 7.48"/>
    <path d="M641.33 335.64v16"/>
    <path d="M656.79 337l-1.32 7.48"/>
    <path d="M671.78 341.01l-2.6 7.14"/>
    <path d="M685.84 347.57l-3.79 6.58"/>
    <path d="M698.56 356.47l-4.89 5.82"/>
    <path d="M709.53 367.45l-12.25 10.28"/>
    <path d="M718.43 380.16l-6.57 3.8"/>
    <path d="M724.99 394.23l-7.13 2.6"/>
    <path d="M729.01 409.22l-7.48 1.32"/>
    <path d="M730.36 424.68h-7.59"/>
    <path d="M729.01 440.14l-15.75-2.78"/>
    <path d="M724.99 455.13l-7.13-2.59"/>
    <path d="M718.43 469.2l-6.57-3.8"/>
    <path d="M709.53 481.91l-5.82-4.88"/>
    <path d="M698.56 492.89l-4.89-5.82"/>
    <path d="M685.84 501.79l-7.99-13.85"/>
  </g>
  <path id="red_ttl" d="M629.08 508.22v-9.56h3.35c1.16 0 2.04.22 2.64.67.6.44.9 1.09.9 1.95 0 .47-.12.88-.36 1.24s-.58.62-1 .78a2 2 0 011.16.74c.28.37.42.83.42 1.37 0 .92-.29 1.61-.88 2.09-.59.47-1.42.71-2.51.72h-3.72zm21.15-3.5h-1.57v3.5h-1.97v-9.56h3.55c1.13 0 2 .25 2.61.75.61.5.92 1.21.92 2.13 0 .65-.14 1.2-.42 1.63-.28.44-.71.78-1.28 1.04l2.07 3.9v.09h-2.11l-1.8-3.48zm-7.18 1.53h-3.45l-.66 1.97h-2.09l3.56-9.56h1.82l3.58 9.56h-2.09l-.67-1.97zm-12-2.19v2.58h1.69c.46 0 .83-.11 1.09-.33.26-.22.39-.53.39-.92 0-.88-.45-1.32-1.36-1.33h-1.81zm9.08.59h2.39l-1.2-3.58-1.19 3.58zm8.55-4.4v2.87h1.58c.49 0 .88-.13 1.15-.38.27-.25.41-.6.41-1.04 0-.45-.13-.81-.38-1.06-.26-.26-.65-.39-1.18-.39h-1.58zm-17.63 2.41h1.46c.99-.02 1.49-.41 1.49-1.19 0-.43-.13-.74-.38-.94-.25-.2-.65-.29-1.19-.29h-1.38v2.42zm29.92-16.18c-.81-1.4-1.11-2.66-.93-3.78a3.77 3.77 0 012-2.67 3.78 3.78 0 013.33-.4c1.07.4 2.01 1.29 2.81 2.68l1.09 1.89c.81 1.4 1.12 2.66.92 3.78a3.77 3.77 0 01-2 2.67 3.76 3.76 0 01-3.32.39c-1.07-.4-2.01-1.3-2.81-2.69l-1.09-1.87zm3.66.81c.43.74.85 1.24 1.25 1.5.41.25.82.26 1.24.02.41-.24.61-.58.6-1.03a4.06 4.06 0 00-.59-1.72l-1.53-2.64a4.43 4.43 0 00-1.27-1.53 1.1 1.1 0 00-1.23 0 1.1 1.1 0 00-.6 1.04c.01.46.22 1.06.65 1.81l1.48 2.55zm-58.58-9.83c.81-1.4 1.74-2.29 2.81-2.69a3.74 3.74 0 013.31.4 3.77 3.77 0 012.01 2.69c.19 1.13-.12 2.38-.92 3.77l-1.09 1.89c-.81 1.4-1.74 2.29-2.81 2.69-1.07.4-2.17.26-3.32-.4a3.76 3.76 0 01-2-2.68c-.19-1.13.12-2.39.92-3.78l1.09-1.89zm63.35 4.15c-.81-1.4-1.12-2.66-.92-3.78a3.77 3.77 0 012-2.67 3.78 3.78 0 013.33-.4c1.07.4 2.01 1.29 2.81 2.68l1.09 1.89c.81 1.4 1.11 2.66.92 3.78a3.77 3.77 0 01-2 2.67 3.76 3.76 0 01-3.32.39c-1.07-.4-2.01-1.3-2.81-2.69l-1.1-1.87zm-62.22-.57a4.25 4.25 0 00-.67 1.83c-.02.48.19.84.61 1.08.41.24.81.24 1.19.01a4.1 4.1 0 001.2-1.37l1.53-2.64c.45-.77.67-1.39.69-1.86.01-.47-.19-.83-.61-1.07a1.13 1.13 0 00-1.2 0c-.4.24-.81.72-1.24 1.46l-1.5 2.56zm65.88 1.39c.43.74.85 1.24 1.25 1.5.41.25.82.26 1.24.02.41-.24.61-.58.6-1.03a4.06 4.06 0 00-.59-1.72l-1.53-2.64a4.43 4.43 0 00-1.27-1.53 1.1 1.1 0 00-1.23 0 1.1 1.1 0 00-.6 1.04c.01.46.22 1.06.65 1.81l1.48 2.55zm10.88-6.62l-1.13.65c-.9.52-1.09 1.21-.58 2.09.2.34.46.56.8.65.34.09.7.03 1.09-.2.32-.18.54-.43.67-.76a.96.96 0 00-.05-.89l2.39-1.38c.31.54.44 1.12.39 1.72a3.6 3.6 0 01-.68 1.73 4.8 4.8 0 01-1.57 1.38 4.96 4.96 0 01-3.17.78 3.04 3.04 0 01-2.24-1.6 2.54 2.54 0 01-.32-1.5c.04-.55.26-1.1.63-1.65-.66.12-1.27.06-1.82-.16a2.78 2.78 0 01-1.34-1.23 3.09 3.09 0 01-.21-2.83 5.12 5.12 0 012.32-2.45 5.37 5.37 0 012.11-.7c.73-.08 1.38.03 1.94.31a3.3 3.3 0 011.35 1.3l-2.41 1.39a1.22 1.22 0 00-.86-.6 1.58 1.58 0 00-1.15.2c-.42.24-.69.55-.81.93-.12.38-.07.75.14 1.12.3.52.64.82 1.03.88.39.06.81-.03 1.27-.3l1.17-.67 1.04 1.79zm-45.14-8.9h5.49v2.08h-8.07v-12.54h2.58v10.46zm15.36-8.37h-5.81v2.99h4.96v2.02h-4.95v3.36h5.82v2.08h-8.41v-12.54h8.39v2.09zm-32.79 10.44h-2.58v-12.54h2.58v12.54zm12.6 0h-2.59l-5.03-8.25v8.25h-2.58v-12.54h2.58l5.04 8.27v-8.27h2.58v12.54zm31.35-10.45h-3.85v10.45h-2.58v-10.45h-3.79v-2.09h10.22v2.09zm35.97-9.18c-1.59-.28-2.75-.85-3.49-1.72a3.75 3.75 0 01-.76-3.25 3.77 3.77 0 011.84-2.81c.99-.56 2.28-.71 3.86-.43l2.15.38c1.59.28 2.75.85 3.49 1.72.74.87.99 1.95.76 3.25a3.77 3.77 0 01-1.83 2.8c-.99.56-2.28.71-3.87.43l-2.15-.37zm2.98-2.28c.84.15 1.5.15 1.95 0 .46-.15.73-.46.81-.94.08-.47-.05-.84-.4-1.12-.35-.28-.92-.5-1.7-.65l-3-.53a4.37 4.37 0 00-1.99-.01 1.1 1.1 0 00-.79.94c-.08.46.06.84.41 1.13.36.29.96.51 1.8.67l2.91.51zm-124.73-2.52l-6.14.34-1.21-6.88 2.12-.37.82 4.66 2.38-.15a3.01 3.01 0 01-.43-.71 3.5 3.5 0 01-.29-.9c-.21-1.17-.02-2.13.56-2.88a4.24 4.24 0 012.75-1.45 4.39 4.39 0 012.14.14c.67.23 1.22.62 1.66 1.17.44.55.73 1.24.87 2.07.13.74.1 1.46-.09 2.16-.19.7-.52 1.28-.98 1.74-.47.46-1.03.75-1.7.86l-.48-2.73c.43-.1.74-.3.95-.59.21-.29.28-.64.21-1.04-.16-.92-.92-1.25-2.27-1.01-1.25.22-1.78.89-1.58 2.01.11.64.4 1.07.86 1.31l-.15 2.25zm125.79-12.62l5.89 1.78-1.21 6.88-2.12-.37.82-4.66-2.29-.68a3.66 3.66 0 01.14 1.77c-.21 1.17-.71 2.01-1.51 2.51s-1.83.65-3.08.43a4.17 4.17 0 01-1.96-.87 3.5 3.5 0 01-1.16-1.67 4.5 4.5 0 01-.11-2.24c.13-.74.4-1.4.82-2 .42-.59.92-1.03 1.52-1.3a3.05 3.05 0 011.89-.22l-.48 2.73a1.6 1.6 0 00-1.1.23c-.3.2-.48.51-.55.91-.16.92.43 1.49 1.79 1.73 1.25.22 1.98-.23 2.18-1.35.11-.63-.01-1.15-.36-1.53l.88-2.08zm-127.95-5.14c1.59-.28 2.88-.14 3.86.42.99.56 1.6 1.49 1.82 2.79a3.79 3.79 0 01-.76 3.27c-.74.87-1.9 1.44-3.48 1.72l-2.15.38c-1.59.28-2.88.14-3.86-.42a3.77 3.77 0 01-1.83-2.8c-.23-1.3.03-2.39.77-3.26.74-.87 1.9-1.44 3.49-1.72l2.14-.38zm-2.02 3.17c-.85.15-1.46.37-1.84.66-.38.29-.52.68-.44 1.16.08.47.34.78.76.92a4.1 4.1 0 001.82.03l3.01-.53c.88-.15 1.5-.38 1.87-.67.37-.29.51-.68.42-1.16a1.11 1.11 0 00-.77-.92 4.16 4.16 0 00-1.92-.01l-2.91.52zm124.49-.58l1.45-8.21 1.78.31 3.31 4.48c.9 1.12 1.66 1.73 2.28 1.84.51.09.91.05 1.21-.13.3-.17.49-.47.57-.89a1.2 1.2 0 00-.35-1.1 2.19 2.19 0 00-1.25-.62l.48-2.73c.72.13 1.36.43 1.9.89a3.8 3.8 0 011.17 1.76c.23.7.28 1.45.14 2.24a4.42 4.42 0 01-1.4 2.78c-.71.58-1.61.78-2.71.58-.46-.08-.9-.25-1.31-.5-.41-.25-.82-.6-1.24-1.05a21.1 21.1 0 01-1.63-2.1l-1.49-1.83-.82 4.63-2.09-.35zm-1.08-34.78c-1.24 1.04-2.42 1.56-3.56 1.57a3.72 3.72 0 01-2.97-1.5 3.78 3.78 0 01-.97-3.21 5.7 5.7 0 012.15-3.23l1.67-1.4c1.24-1.04 2.42-1.56 3.56-1.57 1.14-.01 2.13.5 2.98 1.51a3.8 3.8 0 01.97 3.21c-.21 1.12-.93 2.2-2.16 3.23l-1.67 1.39zm-107.2-1.57l-1.78 2.12-6.76-5.67-1.14 2.6-1.61-1.35 1.98-5.18.16-.19 9.15 7.67zm107.37-2.17a4.25 4.25 0 001.26-1.49c.18-.44.11-.85-.2-1.23-.31-.36-.68-.5-1.12-.42-.44.09-.97.38-1.59.88l-2.34 1.96a4.24 4.24 0 00-1.28 1.52c-.17.44-.1.84.21 1.21.3.36.68.5 1.13.41a4.1 4.1 0 001.67-.95l2.26-1.89zm-6.42-3.71c-1.24 1.04-2.42 1.56-3.56 1.57a3.72 3.72 0 01-2.97-1.5 3.78 3.78 0 01-.97-3.21 5.7 5.7 0 012.15-3.23l1.67-1.4c1.24-1.04 2.42-1.56 3.56-1.57 1.14-.01 2.13.5 2.98 1.51a3.8 3.8 0 01.97 3.21c-.2 1.13-.93 2.2-2.16 3.23l-1.67 1.39zm-97.04-6.37c1.24 1.04 1.96 2.11 2.16 3.23a3.75 3.75 0 01-.96 3.19 3.75 3.75 0 01-2.99 1.51c-1.14-.01-2.33-.53-3.55-1.56l-1.67-1.4c-1.24-1.04-1.96-2.11-2.16-3.23a3.8 3.8 0 01.97-3.2 3.78 3.78 0 012.99-1.51c1.14.01 2.33.53 3.56 1.56l1.65 1.41zm-3.72.49a4.29 4.29 0 00-1.69-.98c-.47-.1-.86.04-1.17.41-.31.36-.38.76-.21 1.17.16.42.54.89 1.15 1.42l2.34 1.96c.68.57 1.25.91 1.71 1 .46.09.85-.05 1.16-.42.3-.36.37-.76.21-1.19a4.05 4.05 0 00-1.23-1.48l-2.27-1.89zm100.92 2.13a4.25 4.25 0 001.26-1.49c.18-.45.11-.85-.2-1.23-.31-.36-.68-.5-1.12-.42-.44.09-.97.38-1.59.88l-2.34 1.96a4.24 4.24 0 00-1.28 1.52c-.17.44-.1.84.21 1.21.3.36.68.5 1.13.41a4.1 4.1 0 001.67-.95l2.26-1.89zm-10.13-.53l-5.36-6.38 1.38-1.16 5.56.35c1.43.03 2.39-.16 2.88-.56.39-.33.62-.67.68-1.01.06-.34-.05-.68-.32-1.01a1.22 1.22 0 00-1.07-.44c-.44.03-.87.22-1.28.56l-1.78-2.12a3.89 3.89 0 014.01-.65c.69.27 1.29.72 1.8 1.33a4.44 4.44 0 011.23 2.86c-.01.92-.44 1.73-1.29 2.45-.36.3-.77.53-1.22.68-.45.15-.99.24-1.6.28-.61.03-1.5 0-2.65-.1l-2.35-.04 3.02 3.6-1.64 1.36zm-80.82-9.54c1.24 1.04 1.96 2.11 2.16 3.23a3.75 3.75 0 01-.96 3.19 3.75 3.75 0 01-2.99 1.51c-1.14-.01-2.33-.53-3.55-1.56l-1.67-1.4c-1.24-1.04-1.96-2.11-2.16-3.23a3.8 3.8 0 01.97-3.2 3.78 3.78 0 012.99-1.51c1.14.01 2.33.53 3.56 1.56l1.65 1.41zm-3.72.49a4.29 4.29 0 00-1.69-.98c-.47-.1-.86.04-1.17.41-.31.36-.38.76-.21 1.17.16.42.54.89 1.15 1.42l2.34 1.96c.68.57 1.25.91 1.72 1 .46.09.85-.05 1.16-.42.3-.36.37-.76.21-1.19a4.05 4.05 0 00-1.23-1.48l-2.28-1.89zm39.34-13.43l.73-6.11h6.98v2.15h-4.73l-.27 2.37a3.87 3.87 0 011.72-.43c1.19 0 2.1.35 2.74 1.05.64.7.96 1.69.96 2.96 0 .77-.17 1.46-.51 2.08-.34.62-.82 1.1-1.44 1.43a4.6 4.6 0 01-2.19.5c-.75 0-1.45-.15-2.11-.46a3.73 3.73 0 01-1.54-1.27 3.15 3.15 0 01-.55-1.82h2.77c.03.44.17.78.42 1.04.25.26.58.38.99.38.93 0 1.39-.69 1.39-2.06 0-1.27-.57-1.91-1.71-1.91-.65 0-1.13.21-1.44.62l-2.21-.52zm17.86.95c0 1.61-.36 2.86-1.09 3.73a3.78 3.78 0 01-3.06 1.31 3.76 3.76 0 01-3.08-1.32c-.73-.88-1.09-2.12-1.09-3.72v-2.18c0-1.61.36-2.86 1.09-3.73a3.79 3.79 0 013.07-1.31c1.32 0 2.35.44 3.08 1.32.73.88 1.09 2.12 1.09 3.73v2.17h-.01zm-21.62 4.88h-2.77v-8.83l-2.72.8v-2.1l5.24-1.81h.25v11.94zm18.86-7.41c0-.86-.11-1.5-.34-1.92a1.13 1.13 0 00-1.07-.64c-.48 0-.82.2-1.04.59a4 4 0 00-.35 1.79v3.05c0 .89.11 1.54.34 1.96.22.41.58.62 1.07.62.47 0 .82-.2 1.04-.6.22-.4.34-1.03.34-1.89v-2.96h.01z"/>
  <g id="red_arrow" transform="rotate(-150 641.3 424.7)">
    <path d="M643.33 415.61a9.29 9.29 0 01.37 18.03l.29 14.33h-5.32l.29-14.32a9.29 9.29 0 01.37-18.04l1.44-71.25h1.12l1.44 71.25z"/>
    <circle cx="641.32" cy="424.67" r="4.98" fill="#ffb8b8"/>
  </g>
  <a id="rb_left" class="bttn" href="javascript:;">
    <use x="551" y="270" xlink:href="#bttn_l"/>
  </a>
  <a id="rb_right" class="bttn" href="javascript:;">
    <use x="649" y="270" xlink:href="#bttn_r"/>
  </a>
  <use x="521.3" y="304.7" xlink:href="#ring"/>
</g>
<g id="white_bar">
  <circle cx="1456.01" cy="674.24" r="101" fill="#fff"/>
  <path fill="#696969" stroke="#383838" stroke-width=".84" d="M1456.01 566.69c-59.4 0-107.56 48.15-107.56 107.56 0 59.4 48.15 107.56 107.56 107.56 59.41 0 107.56-48.15 107.56-107.56-.01-59.41-48.16-107.56-107.56-107.56zm0 208.55c-55.78 0-101-45.22-101-101s45.22-101 101-101 101 45.22 101 101-45.22 101-101 101z"/>
  <g id="white_dashes" fill="none" stroke="#000" stroke-linecap="round" stroke-width="1.68">
    <path d="M1500.53 751.35l-6.6-11.43"/>
    <path d="M1411.49 597.13l6.6 11.43"/>
    <path d="M1524.21 731.47l-5.82-4.88"/>
    <path d="M1387.8 617.01l5.82 4.88"/>
    <path d="M1539.68 704.69l-7.14-2.59"/>
    <path d="M1372.34 643.79l7.14 2.6"/>
    <path d="M1545.05 674.24h-13.2"/>
    <path d="M1366.97 674.24h13.2"/>
    <path d="M1539.68 643.79l-7.14 2.6"/>
    <path d="M1372.34 704.69l7.14-2.59"/>
    <path d="M1524.21 617.01l-5.82 4.88"/>
    <path d="M1387.8 731.47l5.82-4.88"/>
    <path d="M1500.53 597.13l-6.6 11.43"/>
    <path d="M1411.49 751.35l6.6-11.43"/>
    <path d="M1471.47 586.56l-1.32 7.48"/>
    <path d="M1440.55 586.56l1.32 7.48"/>
  </g>
  <path id="white_ttl" d="M1453.99 754.43v3.36h-1.96v-9.53h3.71c.72 0 1.35.13 1.9.4.53.26.95.63 1.24 1.11.3.48.44 1.03.44 1.65 0 .93-.32 1.67-.96 2.2-.63.54-1.52.81-2.65.81H1454zm7.55 3.36v-9.53h2.94c.83 0 1.58.2 2.24.57.66.38 1.18.91 1.55 1.6.37.7.56 1.5.56 2.38v.44c0 .88-.19 1.67-.55 2.36a3.92 3.92 0 01-1.54 1.6c-.66.38-1.41.58-2.24.58h-2.96zm-15.68-1.58h4.17v1.58h-6.13v-9.53h1.96v7.95zm17.65-6.36v6.36h.95c.76 0 1.35-.25 1.76-.75.4-.5.6-1.22.62-2.15v-.5c0-.97-.2-1.7-.6-2.2-.4-.5-1-.76-1.76-.76h-.97zm-9.52 3h1.75c.52 0 .92-.13 1.2-.37.26-.25.4-.6.4-1.05 0-.47-.14-.84-.41-1.13a1.54 1.54 0 00-1.14-.45h-1.8v3zm23.75-22.93c-.81-1.4-1.12-2.66-.93-3.78a3.77 3.77 0 012-2.67 3.78 3.78 0 013.33-.4c1.07.4 2 1.29 2.8 2.68l1.1 1.89c.8 1.4 1.12 2.66.93 3.78a3.77 3.77 0 01-2 2.67 3.76 3.76 0 01-3.32.39c-1.07-.4-2.01-1.29-2.81-2.69l-1.1-1.87zm3.66.81c.43.74.85 1.24 1.25 1.5.4.25.82.26 1.24.02.4-.24.6-.58.6-1.03a4.06 4.06 0 00-.6-1.72l-1.52-2.64a4.43 4.43 0 00-1.27-1.53 1.1 1.1 0 00-1.23 0 1.1 1.1 0 00-.6 1.04c0 .46.22 1.06.65 1.81l1.48 2.55zm-58.54-7.4c.8-1.4 1.74-2.29 2.8-2.69a3.74 3.74 0 013.32.4 3.77 3.77 0 012 2.69c.2 1.13-.11 2.38-.91 3.77l-1.1 1.89c-.8 1.4-1.73 2.29-2.8 2.69-1.06.4-2.17.26-3.32-.4a3.76 3.76 0 01-2-2.68c-.2-1.13.12-2.39.92-3.78l1.09-1.89zm68.32 7.18l-1.1-1.88.12-.06a4.1 4.1 0 001.83-1.92c.33-.76.34-1.56.03-2.4-.23.84-.76 1.5-1.6 1.98-.88.52-1.8.6-2.7.25a4.56 4.56 0 01-2.27-2.11 4.21 4.21 0 01-.58-2.08c-.01-.73.18-1.41.56-2.04.38-.63.9-1.14 1.58-1.53a4.4 4.4 0 012.26-.63c.77 0 1.5.22 2.18.65a5.4 5.4 0 011.74 1.86l.55.96c.62 1.07.94 2.16.97 3.27a5.76 5.76 0 01-.8 3.13 6.45 6.45 0 01-2.4 2.35l-.37.2zm-67.2-3.6a4.25 4.25 0 00-.67 1.83c-.02.48.18.84.6 1.08.42.24.82.24 1.2.01a4.1 4.1 0 001.2-1.37l1.53-2.64c.45-.77.67-1.39.69-1.86 0-.47-.2-.83-.61-1.07a1.1 1.1 0 00-1.2 0c-.4.24-.81.72-1.24 1.46l-1.5 2.56zm66.27-2.99a1.56 1.56 0 00.83-1.5l-.41-.72c-.75-1.31-1.58-1.7-2.5-1.18-.36.21-.57.55-.62 1.02-.06.47.06.95.34 1.44.29.51.66.85 1.09 1.02.44.18.86.15 1.27-.08zm-27.3-14.72a7.7 7.7 0 01-.64 3.25 4.92 4.92 0 01-4.66 2.91 4.96 4.96 0 01-4.68-2.89 7.38 7.38 0 01-.68-3.2v-.62c0-1.24.22-2.32.67-3.26a4.94 4.94 0 014.68-2.91 5 5 0 014.68 2.91c.44.94.67 2.02.67 3.25v.56h-.03zm11.65 2.37l1.69-8.92h2.58l-2.78 12.54h-2.6l-2.04-8.39-2.04 8.39h-2.6l-2.78-12.54h2.58l1.7 8.91 2.07-8.91h2.19l2.03 8.92zm-28.36 1.54h5.49v2.08h-8.07v-12.54h2.58v10.46zm-4.7-3.05h-4.97v5.12h-2.58v-12.54h8.17v2.09h-5.58v3.24h4.96v2.09zm18.8-1.43c0-1.31-.24-2.31-.71-3a2.31 2.31 0 00-2.02-1.03c-.87 0-1.54.34-2.01 1.01a5.17 5.17 0 00-.71 2.97v.61c0 1.28.24 2.27.7 2.98a2.29 2.29 0 002.04 1.06c.87 0 1.53-.34 2-1.02.46-.68.7-1.67.7-2.98v-.6zm58.63-25.61c-.58 0-1.1-.14-1.53-.43-.44-.29-.8-.68-1.07-1.18a3.44 3.44 0 01-1.14 1.35c-.48.33-1.06.5-1.72.5a3.14 3.14 0 01-2.53-1.1 4.56 4.56 0 01-.93-3.04c0-1.3.3-2.32.93-3.07a3.1 3.1 0 012.52-1.12c.64 0 1.2.16 1.7.49.49.33.88.79 1.17 1.39.27-.51.62-.91 1.07-1.2.45-.29.95-.43 1.53-.43 1.04 0 1.86.35 2.46 1.06.6.71.9 1.66.9 2.85 0 1.21-.3 2.17-.9 2.87-.6.7-1.42 1.06-2.46 1.06zm-117.18-5.92v2.77h-8.83l.79 2.72h-2.1l-1.81-5.24v-.25h11.95zm111.94 3.38c.49 0 .87-.13 1.14-.38.26-.25.4-.59.4-1 0-.42-.13-.75-.4-1.01s-.64-.39-1.14-.39c-.48 0-.85.13-1.13.39-.28.26-.41.6-.41 1.02 0 .41.14.74.4.99.28.26.66.38 1.14.38zm6.47-1.39c0-.37-.12-.66-.37-.85a1.6 1.6 0 00-1.01-.29c-.43 0-.77.1-1.03.3-.26.2-.4.49-.4.87s.14.66.4.85c.26.19.6.28 1.03.28.43 0 .76-.1 1-.29.26-.19.38-.49.38-.87zm-118.41-13.93v8.34h-1.8l-4.04-3.84c-1.08-.95-1.93-1.42-2.57-1.42-.51 0-.91.11-1.17.34-.27.22-.4.55-.4.98 0 .42.18.76.54 1.03.36.26.8.39 1.34.39v2.77a3.9 3.9 0 01-3.5-2.08 4.54 4.54 0 01-.52-2.18c0-1.29.3-2.29.89-2.98.6-.7 1.45-1.05 2.57-1.05.47 0 .93.09 1.37.26.44.17.9.45 1.4.82.49.37 1.14.96 1.96 1.78l1.78 1.54v-4.7h2.15zm113.09 7.37v1.21h-2.13v-1.21h-2.54v-2.76h2.54v-4.62l1.69-.16 7.69 4.78h.02v2.76h-7.27zm0-4.91v2.15h3.67l-.28-.17-3.4-1.98zm-86.56-40.01l-7.22 4.17-.9-1.56 1.3-5.42c.29-1.41.27-2.38-.04-2.93-.26-.45-.55-.73-.88-.85-.33-.12-.68-.07-1.05.14-.36.21-.57.54-.62.98-.05.44.06.89.33 1.36l-2.4 1.39a3.84 3.84 0 01-.54-2.03c0-.72.2-1.4.59-2.02.39-.63.93-1.14 1.63-1.55a4.49 4.49 0 013.03-.72c.9.17 1.63.74 2.19 1.7.24.41.39.85.46 1.32.07.47.07 1.01 0 1.62-.08.61-.26 1.47-.56 2.59l-.45 2.31 4.07-2.35 1.06 1.85zm67.26-7.12l-1.1 1.88-.1-.06a4.1 4.1 0 00-2.58-.63c-.82.1-1.52.49-2.1 1.17a3.2 3.2 0 012.5.39c.9.52 1.43 1.25 1.58 2.21a4.6 4.6 0 01-.7 3.03 4.14 4.14 0 01-1.5 1.54c-.63.37-1.31.55-2.04.54a4.3 4.3 0 01-2.12-.6 4.49 4.49 0 01-1.68-1.64 3.98 3.98 0 01-.52-2.21c.04-.81.28-1.62.74-2.43l.55-.96a7 7 0 012.34-2.48 5.67 5.67 0 013.1-.87c1.14.01 2.22.31 3.25.9l.38.22zm-5.24 4.11a1.65 1.65 0 00-.92-.24c-.3.02-.56.11-.8.27l-.4.72c-.75 1.31-.68 2.22.23 2.74.37.21.76.22 1.2.04.43-.19.79-.53 1.07-1.02.29-.51.4-.99.34-1.46a1.38 1.38 0 00-.72-1.05zm-9.27-6.73l1.13.65c.9.52 1.6.34 2.1-.54.2-.34.25-.68.16-1.02a1.39 1.39 0 00-.72-.84 1.52 1.52 0 00-1-.2.97.97 0 00-.74.49l-2.4-1.38c.32-.54.76-.94 1.3-1.19a3.5 3.5 0 011.85-.27c.68.07 1.33.29 1.98.66a4.89 4.89 0 012.26 2.36c.35.91.27 1.82-.26 2.74-.26.45-.64.79-1.14 1.02a3.4 3.4 0 01-1.75.28c.43.52.69 1.07.77 1.65a2.7 2.7 0 01-.4 1.77 3.08 3.08 0 01-2.35 1.6 5.13 5.13 0 01-3.28-.79 5.16 5.16 0 01-1.66-1.48 3.48 3.48 0 01-.7-1.83c-.04-.62.12-1.24.45-1.82l2.4 1.39c-.17.32-.2.67-.08 1.05.12.38.37.68.74.89.42.24.83.32 1.2.23.4-.09.69-.32.9-.68.3-.52.38-.97.25-1.33a1.87 1.87 0 00-.9-.95l-1.15-.67 1.04-1.79zm-47.55 1.35l1.05-.61 1.07 1.85-1.05.61 1.27 2.2-2.4 1.38-1.26-2.2-4 2.31-1-1.38.3-9.05-.01-.02 2.39-1.38 3.64 6.29zm-4.26 2.46l1.86-1.07-1.84-3.18-.01.33-.01 3.92z"/>
  <g id="white_arrow" transform="rotate(-150 1456 674.2)">
    <path d="M1458.01 665.17a9.29 9.29 0 01.37 18.03l.29 14.33h-5.32l.29-14.32a9.29 9.29 0 01.36-18.05l1.45-71.24h1.12l1.44 71.25z"/>
    <circle cx="1456" cy="674.23" r="4.98" fill="#fff"/>
  </g>
  <use x="1336" y="554.3" xlink:href="#ring"/>
</g>

<g id="popup_restrictor" class="invis">
  <path fill="#fff" fill-opacity=".5" d="M1310.04 865.06h-240.11a22.18 22.18 0 01-22.17-22.17v-31.61L916.17 685.42l131.59 94.25a22.18 22.18 0 0122.17-22.17h240.11a22.18 22.18 0 0122.17 22.17v63.22a22.17 22.17 0 01-22.17 22.17z"/>
  <text x="1188" y="805">
    Restrictor consumes
    <tspan x="1188" dy="32">all pressure drop</tspan>
  </text>
  <a id="restrictor_close" href="javascript:;">
    <use x="1340" y="754.7" xlink:href="#popup_close"/>
  </a>
</g>

<g id="popup_demonstrate" class="invis">
  <path fill="#fff" fill-opacity=".5" d="M1057.45 440.74a22.18 22.18 0 0022.17-22.17v-52.35l50.66-42.54-50.66 10.93a22.18 22.18 0 00-22.17-22.17H805.61a22.18 22.18 0 00-22.17 22.17l-50.66-10.93 50.66 42.54v52.35a22.18 22.18 0 0022.17 22.17h251.84z"/>
  <text x="932" y="354">
    To demonstrate, click
    <tspan x="932" dy="32">the arrows to adjust</tspan>
    <tspan x="932" dy="32">field pressures</tspan>
  </text>
  <a id="demonstrate_close" href="javascript:;">
  <use x="1085" y="307" xlink:href="#popup_close"/>
</a>
</g>

<g id="alarm" class="invis">
<path fill="#fff" fill-opacity=".5" stroke="#c42100" stroke-opacity=".5" stroke-width="3" d="M1846.87 481.85h-470.11a22.18 22.18 0 01-22.17-22.17V356.46a22.18 22.18 0 0122.17-22.17h470.11a22.18 22.18 0 0122.17 22.17v103.22a22.17 22.17 0 01-22.17 22.17z"/>
<path fill="#c72b2b" stroke="#fff" stroke-linecap="round" stroke-width="2" d="M1411.77 371.2a6 6 0 0110.73 0l25.89 51.78a6 6 0 01-5.37 8.68h-51.77a6 6 0 01-5.37-8.68l25.89-51.78z"/>
<path fill="#fff" d="M1420.66 410.47h-6.93l-1.1-25.26h9.12l-1.09 25.26zm-8.28 7.87c0-1.25.45-2.28 1.36-3.08.9-.8 2.04-1.21 3.39-1.21s2.48.4 3.39 1.2c.9.81 1.36 1.84 1.36 3.1 0 1.24-.45 2.27-1.36 3.08-.9.8-2.04 1.2-3.39 1.2s-2.48-.4-3.39-1.2a3.94 3.94 0 01-1.36-3.09z"/>
<text x="1469" y="388">
  <tspan x="1469" dy="0" text-anchor="start" font-weight="700">INADEQUATE PRESSURE DROP</tspan>
  <tspan x="1469" dy="32" text-anchor="start">Please increate P1 or decrease</tspan>
  <tspan x="1469" dy="32" text-anchor="start">P2 pressure</tspan>
</text>
<a id="alarm_close" href="javascript:;">
  <use x="1875.2" y="331.4" xlink:href="#popup_close"/>
</a>
</g>

<g id="info_labels">
<rect x="51" y="300" width="30" height="30" fill="#ffb8b8" stroke="#fff"/>
<text id="red_label" x="94" y="322" font-size="24" fill="#fff">- 0 (BAR)</text>
<rect x="51" y="350" width="30" height="30" fill="#ffff63" stroke="#fff"/>
<text id="yellow_label" x="94" y="372" font-size="24" fill="#fff">- 0 (BAR)</text>
<rect x="51" y="400" width="30" height="30" fill="#d4d4d4" stroke="#fff"/>
<text id="gray_label" x="94" y="422" font-size="24" fill="#fff">- 0 (BAR)</text>
<rect x="51" y="450" width="30" height="30" fill="#fff" stroke="#fff"/>
<text id="white_label" x="94" y="472" font-size="24" fill="#fff">- 0 (LPD)</text>
</g>
<script>
<![CDATA[

let r_angle = 0;
let y_angle = 0;
let g_angle = 0;
let w_angle = 0;
let arrows_shift = 1;
let animation_id;
let allow_play = true;

let setint;

function $(sel) {
  return document.querySelector(sel);
}

function gw_upd() {
  $("#alarm").setAttribute("class", "invis");
  g_angle = r_angle - y_angle;
  w_angle = Math.sqrt(g_angle);
  $("#gray_arrow").setAttribute("transform", "rotate(" + (g_angle - 150) + " 912.7 871.2)");
  $("#white_arrow").setAttribute("transform", "rotate(" + (w_angle * 5 - 150) + " 1456 674.2)");

  $("#red_label").textContent = "- " + r_angle + " (BAR)";
  $("#yellow_label").textContent = "- " + y_angle + " (BAR)";
  $("#gray_label").textContent = "- " + g_angle + " (BAR)";
  $("#white_label").textContent = "- " + w_angle.toFixed(2) + " (LPD)";

  if (w_angle > 1) {
    if(allow_play) {
      animation_id = requestAnimationFrame(animate);
    }
    allow_play = false;
  } else {
    if(y_angle >= r_angle) {
      $("#alarm").setAttribute("class", "");
    }
    cancelAnimationFrame(animation_id);
    allow_play = true;
  }

  // console.log("r_angle = " + r_angle + "\r\ny_angle = " + y_angle + "\r\ng_angle = " + g_angle + "\r\nw_angle = " + w_angle);
}

function rarr_dwn() {
  if(r_angle > 0 && r_angle > y_angle) {
    r_angle -= 5;
    gw_upd();
    $("#red_arrow").setAttribute("transform", "rotate(" + (r_angle - 150) + " 641.3 424.7)");
  } else {
    $("#alarm").setAttribute("class", "");
  }
}

function rarr_up() {
  if(r_angle < 300) {
    r_angle += 5;
    gw_upd();
    $("#red_arrow").setAttribute("transform", "rotate(" + (r_angle - 150) + " 641.3 424.7)");
  }
}

function yarr_dwn() {
  if(y_angle > 0) {
    y_angle -= 5;
    gw_upd();
    $("#yellow_arrow").setAttribute("transform", "rotate(" + (y_angle - 150) + " 1223.1 424.7)");
  }
}

function yarr_up() {
  if(y_angle < 300 && r_angle > y_angle) {
    y_angle += 5;
    gw_upd();
    $("#yellow_arrow").setAttribute("transform", "rotate(" + (y_angle - 150) + " 1223.1 424.7)");
  } else {
    $("#alarm").setAttribute("class", "");
  }
}

function animate() {
  if(arrows_shift < 120) {
    arrows_shift += w_angle / 2;
    $("#queue").setAttribute("transform", "translate(" + arrows_shift + " 0)");
    $("#queue2").setAttribute("transform", "translate(" + arrows_shift + " 0)");
  } else {
    arrows_shift = 1;
    $("#queue").setAttribute("transform", "translate(" + arrows_shift + " 0)");
    $("#queue2").setAttribute("transform", "translate(" + arrows_shift + " 0)");
  }
  animation_id = requestAnimationFrame(animate);
}

$("#rb_left").onmousedown = function() {
  clearInterval(setint);
  setint = setInterval(function(){rarr_dwn()}, 200);
}
$("#rb_left").onclick = function() {rarr_dwn()};

$("#rb_right").onmousedown = function() {
  clearInterval(setint);
  setint = setInterval(function(){rarr_up()}, 200);
}
$("#rb_right").onclick = function() {rarr_up()};

$("#yb_left").onmousedown = function() {
  clearInterval(setint);
  setint = setInterval(function(){yarr_dwn()}, 200);
}
$("#yb_left").onclick = function() {yarr_dwn()};

$("#yb_right").onmousedown = function() {
  clearInterval(setint);
  setint = setInterval(function(){yarr_up()}, 200);
}
$("#yb_right").onclick = function() {yarr_up()};

window.onmouseup = function() {clearInterval(setint)};

$("#alarm_close").onclick = function() {
  $("#alarm").setAttribute("class", "invis");
};
$("#demonstrate_close").onclick = function() {
  $("#popup_demonstrate").setAttribute("class", "invis");
};
$("#restrictor_close").onclick = function() {
  $("#popup_restrictor").setAttribute("class", "invis");
};
$("#info").onclick = function() {
  if($("#popup_demonstrate").classList.contains("invis") || $("#popup_restrictor").classList.contains("invis")) {
    $("#popup_demonstrate").classList.remove("invis");
    $("#popup_restrictor").classList.remove("invis");
  } else {
    $("#popup_demonstrate").classList.toggle("invis");
    $("#popup_restrictor").classList.toggle("invis");
  }
}

setTimeout(function(){
  $("#popup_demonstrate").setAttribute("class", "");
  $("#popup_restrictor").setAttribute("class", "");
}, 400);

]]>
</script>
</svg>
