<svg xmlns="http://www.w3.org/2000/svg" xmlns:xlink="http://www.w3.org/1999/xlink" viewBox="0 0 1920 1080">

<defs>
<style>@import url('https://fonts.googleapis.com/css2?family=Roboto:wght@400;700;900');</style>
</defs>

<style>
/* <![CDATA[ */

@namespace svg url(http://www.w3.org/2000/svg);

svg|a {
  outline: none;
}

svg {
  background: linear-gradient(#4a6785, #dbedff);
}

text {
  font-family: 'Roboto', sans-serif;
}

.bttn:hover use {
  filter: url(#h_color);
  transform: translate(0px, 0px);
}

.bttn:active use {
  filter: url(#a_color);
  transform: translate(0px, 2px);
}

.nav_button_bg {
  fill: #fff;
  fill-opacity: 0;
  stroke: #fff;
  transition: fill-opacity .1s linear;
}

.nav_button:hover .nav_button_bg {
  fill-opacity: .3;
}

.nav_button text {
  font-size: 32px;
  font-weight: 700;
  text-anchor: middle;
  fill: #fff;
}

#page_num text {
  font-size: 60px;
  font-weight: 900;
  text-anchor: middle;
}

.ttl {
  font-size: 54px;
  fill: #fff;
  font-weight: 900;
}

.text_body {
  font-size: 26px;
  fill: #fff;
}

.text_body.dark {
  fill: #000;
}

.graph_label {
  font-size: 40px;
  font-weight: 700;
  text-anchor: middle;
}

/* ]]> */
</style>

<a href="javascript:;" id="bttn_prev" class="nav_button">
  <path class="nav_button_bg" d="M184.5 119.66H63.98c-6.6 0-12-5.4-12-12V69.84c0-6.6 5.4-12 12-12H184.5c6.6 0 12 5.4 12 12v37.83c0 6.59-5.4 11.99-12 11.99z"/>
  <text x="126" y="100">PREV</text>
</a>
<a href="page_02.svg" id="bttn_next" class="nav_button">
  <path class="nav_button_bg" d="M1856.02 119.66H1735.5c-6.6 0-12-5.4-12-12V69.84c0-6.6 5.4-12 12-12h120.52c6.6 0 12 5.4 12 12v37.83c0 6.59-5.4 11.99-12 11.99z"/>
  <text x="1798" y="100">NEXT</text>
</a>
<a href="javascript:;" id="bttn_tofc" class="nav_button">
  <path class="nav_button_bg" d="M184.5 217.16H63.98c-6.6 0-12-5.4-12-12v-37.83c0-6.6 5.4-12 12-12H184.5c6.6 0 12 5.4 12 12v37.83c0 6.6-5.4 12-12 12z"/>
  <text x="126" y="199">TofC</text>
</a>
<g id="page_num">
  <circle cx="1821.47" cy="984.85" r="41.88" fill="#fff"/>
  <text x="1821.47" y="1005.44">1</text>
</g>

<g fill="none" stroke="#000" stroke-miterlimit="10">
<rect width="562" height="281.89" x="535.64" y="637.73"/>
<line x1="535.64" x2="1097.64" y1="666.25" y2="666.25"/>
<line x1="535.64" x2="1097.64" y1="694.4" y2="694.4"/>
<line x1="535.64" x2="1097.64" y1="722.55" y2="722.55"/>
<line x1="535.64" x2="1097.64" y1="750.71" y2="750.71"/>
<line x1="535.64" x2="1097.64" y1="778.86" y2="778.86"/>
<line x1="535.64" x2="1097.64" y1="807.01" y2="807.01"/>
<line x1="535.64" x2="1097.64" y1="835.16" y2="835.16"/>
<line x1="535.64" x2="1097.64" y1="863.32" y2="863.32"/>
<line x1="535.64" x2="1097.64" y1="891.47" y2="891.47"/>
<line x1="1027.39" x2="1027.39" y1="637.73" y2="919.62"/>
<line x1="957.14" x2="957.14" y1="637.73" y2="919.62"/>
<line x1="886.89" x2="886.89" y1="637.73" y2="919.62"/>
<line x1="816.64" x2="816.64" y1="637.73" y2="919.62"/>
<line x1="746.39" x2="746.39" y1="637.73" y2="919.62"/>
<line x1="676.14" x2="676.14" y1="637.73" y2="919.62"/>
<line x1="605.89" x2="605.89" y1="637.73" y2="919.62"/>
</g>
<path d="M362.17 221.35c0 3.61-.58 6.75-1.75 9.41a16.2 16.2 0 01-4.86 6.41l6.42 5.04-5.07 4.49-8.23-6.61c-.94.16-1.91.24-2.92.24-3.2 0-6.06-.77-8.58-2.31a15.36 15.36 0 01-5.84-6.6 22.72 22.72 0 01-2.1-9.86v-1.91c0-3.81.69-7.16 2.06-10.05 1.37-2.89 3.31-5.11 5.81-6.66s5.37-2.32 8.59-2.32a16 16 0 018.59 2.32 15.35 15.35 0 015.81 6.66 23.14 23.14 0 012.06 10.02v1.73zm-8.07-1.75c0-4.05-.73-7.13-2.18-9.24s-3.52-3.16-6.21-3.16a7.1 7.1 0 00-6.19 3.12c-1.45 2.08-2.19 5.13-2.2 9.15v1.89c0 3.95.73 7.01 2.18 9.19a7.07 7.07 0 006.27 3.27 7.01 7.01 0 006.16-3.15c1.43-2.1 2.16-5.15 2.18-9.17v-1.9z"/>
<path d="M405.44 220H381.7v-6.27h23.74V220zm0 11.49H381.7v-6.27h23.74v6.27z"/>
<path d="M456.55 226.93c-.3 4.16-1.84 7.43-4.61 9.82-2.77 2.39-6.42 3.58-10.95 3.58-4.96 0-8.85-1.67-11.7-5-2.84-3.34-4.26-7.92-4.26-13.74v-2.36c0-3.72.65-6.99 1.96-9.82s3.18-5 5.62-6.52a15.74 15.74 0 018.48-2.27c4.46 0 8.05 1.19 10.78 3.58 2.73 2.39 4.3 5.74 4.73 10.06h-7.96c-.19-2.5-.89-4.31-2.08-5.43s-3.01-1.69-5.46-1.69c-2.65 0-4.64.95-5.96 2.85-1.32 1.9-2 4.85-2.03 8.85v2.92c0 4.18.63 7.23 1.9 9.16s3.26 2.89 5.99 2.89c2.46 0 4.3-.56 5.51-1.69 1.21-1.12 1.91-2.86 2.08-5.22h7.96z"/>
<path d="M472.02 230.43l5.34-19.35h8.02l-9.69 28.73h-7.33l-9.69-28.73h8.02l5.33 19.35z"/>
<g>
<path d="M554.07 209.56v-38.65h11.89c3.4 0 6.44.77 9.12 2.3s4.77 3.71 6.28 6.53a20.18 20.18 0 012.26 9.62v1.78c0 3.59-.74 6.79-2.22 9.58a15.85 15.85 0 01-6.25 6.5 18.24 18.24 0 01-9.11 2.34h-11.97zm7.97-32.2v25.81h3.85c3.12 0 5.5-1.02 7.14-3.05 1.65-2.04 2.49-4.95 2.52-8.73v-2.04c0-3.93-.81-6.91-2.44-8.93-1.63-2.03-4.01-3.04-7.14-3.04h-3.93z"/>
<path d="M597.37 195.94v13.62h-7.96v-38.65h15.08c2.9 0 5.46.53 7.66 1.59s3.9 2.57 5.08 4.53a12.6 12.6 0 011.78 6.68c0 3.79-1.3 6.77-3.89 8.96-2.59 2.19-6.18 3.28-10.77 3.28h-6.98zm0-6.45h7.12c2.11 0 3.71-.5 4.82-1.49s1.66-2.41 1.66-4.25a6.4 6.4 0 00-1.67-4.59c-1.11-1.17-2.65-1.77-4.62-1.81h-7.3v12.14z"/>
<path d="M574.09 264.67c0-1.5-.53-2.66-1.59-3.46-1.06-.81-2.97-1.65-5.73-2.55a40.13 40.13 0 01-6.56-2.64c-4.39-2.37-6.58-5.57-6.58-9.58 0-2.09.59-3.95 1.77-5.59a11.53 11.53 0 015.07-3.84c2.2-.92 4.68-1.38 7.42-1.38 2.76 0 5.22.5 7.38 1.5s3.84 2.41 5.03 4.23a11.02 11.02 0 011.79 6.21h-7.96c0-1.77-.56-3.15-1.67-4.13-1.12-.98-2.68-1.47-4.7-1.47-1.95 0-3.46.41-4.54 1.23a3.9 3.9 0 00-1.62 3.25c0 1.26.63 2.31 1.9 3.16 1.26.85 3.13 1.65 5.59 2.39 4.53 1.36 7.83 3.05 9.9 5.07a10.1 10.1 0 013.11 7.54c0 3.35-1.27 5.97-3.8 7.87-2.53 1.9-5.94 2.85-10.22 2.85a19.7 19.7 0 01-8.12-1.63 12.95 12.95 0 01-5.59-4.47 11.47 11.47 0 01-1.92-6.58h7.99c0 4.27 2.55 6.4 7.65 6.4 1.89 0 3.37-.38 4.43-1.15a3.81 3.81 0 001.57-3.23z"/>
<path d="M618.06 269.92a13.8 13.8 0 01-6.08 4 25.38 25.38 0 01-8.71 1.42c-3.35 0-6.28-.73-8.8-2.19a14.6 14.6 0 01-5.84-6.36 22.32 22.32 0 01-2.11-9.8v-2.63c0-3.86.65-7.2 1.95-10.02a14.49 14.49 0 015.63-6.48 16.17 16.17 0 018.62-2.24c4.58 0 8.17 1.09 10.75 3.28 2.58 2.19 4.12 5.37 4.59 9.54h-7.75c-.35-2.21-1.14-3.83-2.35-4.86s-2.88-1.54-5-1.54c-2.71 0-4.77 1.02-6.19 3.05-1.42 2.04-2.13 5.06-2.15 9.08v2.47c0 4.05.77 7.11 2.31 9.19 1.54 2.07 3.8 3.11 6.77 3.11 2.99 0 5.12-.64 6.4-1.91v-6.66h-7.25v-5.87h15.21v15.42z"/>
</g>
<g fill="none" stroke-linecap="round" stroke-width="4">
<line x1="619.1" x2="549.89" y1="222.79" y2="222.79" stroke="#000"/>
<polyline stroke="#000" points="632.7 153.11 541.39 153.11 506.94 278.36 492.12 242.71"/>
<path stroke="#0071BC" d="M535.64 919.62s17.7-73.38 93.5-118.74c75.06-44.92 275.96-137.36 461.7-159.1"/>
<path stroke="#009245" d="M535.61 919.74s6.06-147.91 14.55-198.83c8.49-50.92 29.1-73.95 87.29-75.17 58.19-1.21 453.4-3.96 453.4-3.96"/>
<line x1="1146.62" x2="1203.48" y1="736.58" y2="736.58" stroke="#009245"/>
<line x1="1146.62" x2="1203.48" y1="786.13" y2="786.13" stroke="#0071BC"/>
</g>

<text x="330" y="372" class="text_body dark">
  Q - volumetric flow rate
  <tspan x="330" dy="32">Cv - coefficient of velocity</tspan>
  <tspan x="330" dy="32">DP - pressure drop across restrictor</tspan>
  <tspan x="330" dy="32">SG - fluid specific gravity</tspan>
</text>

<text x="850" y="160" class="ttl">OPERATIONAL THEORY</text>
<text x="850" y="232" class="text_body">
  All standard pressure dependent valves are inherently unstable
  <tspan x="850" dy="32">when attempting to control flow in a system where the pressure</tspan>
  <tspan x="850" dy="32">drop across the valve is subject to change. For example, if the</tspan>
  <tspan x="850" dy="32">downstream pressure decreases, the flow will increase as the</tspan>
  <tspan x="850" dy="32">square root of the change.</tspan>

  <tspan x="850" dy="64">All Skoflo valves, being pressure independent, are not subject to</tspan>
  <tspan x="850" dy="32">this instability. The pressure drop is controlled within the valve,</tspan>
  <tspan x="850" dy="32">insulating the flow rate from system pressure changes. No set</tspan>
  <tspan x="850" dy="32">point adjustments are required to maintain constant flow.</tspan>
</text>

<text x="520" y="779" class="graph_label" transform="rotate(-90 520 779)">Flow</text>
<text x="815" y="968" class="graph_label">Pressure Drop</text>
<text x="1226" y="745" class="text_body dark" font-weight="700">Skoflo valve</text>
<text x="1226" y="796" class="text_body dark" font-weight="700">Standard valve</text>
<script>
<![CDATA[

]]>
</script>
</svg>
