<svg xmlns="http://www.w3.org/2000/svg" xmlns:xlink="http://www.w3.org/1999/xlink" viewBox="0 0 1920 1080">

<defs>
<style>@import url('https://fonts.googleapis.com/css2?family=Roboto:wght@400;700;900');</style>
</defs>

<style>
/* <![CDATA[ */

@namespace svg url(http://www.w3.org/2000/svg);

svg|a {
  outline: none;
}

svg {
  background: linear-gradient(#4a6785, #dbedff);
}

text {
  font-weight: 700;
  font-size: 18px;
  font-family: 'Roboto', sans-serif;
}

.bttn:hover use {
  filter: url(#h_color);
  transform: translate(0px, 0px);
}

.bttn:active use {
  filter: url(#a_color);
  transform: translate(0px, 2px);
}

.nav_button_bg {
  fill: #fff;
  fill-opacity: 0;
  stroke: #fff;
  transition: fill-opacity .1s linear;
}

.nav_button:hover .nav_button_bg {
  fill-opacity: .3;
}

.nav_button text {
  font-size: 32px;
  font-weight: 700;
  text-anchor: middle;
  fill: #fff;
}

#page_num text {
  font-size: 44px;
  font-weight: 900;
  text-anchor: middle;
}

.ttl {
  font-size: 54px;
  fill: #fff;
  font-weight: 900;
  text-anchor: middle;
}

.text_body {
  font-weight: 400;
  font-size: 26px;
  fill: #fff;
  text-anchor: middle;
}

.text_body2 {
  font-weight: 400;
  font-size: 26px;
  fill: #fff;
}

.text_body.dark {
  fill: #000;
}

.graph_label {
  font-size: 32px;
  font-weight: 700;
  text-anchor: middle;
}

/* ]]> */
</style>

<a href="page_10.svg" id="bttn_prev" class="nav_button">
  <path class="nav_button_bg" d="M184.5 119.66H63.98c-6.6 0-12-5.4-12-12V69.84c0-6.6 5.4-12 12-12H184.5c6.6 0 12 5.4 12 12v37.83c0 6.59-5.4 11.99-12 11.99z"/>
  <text x="126" y="100">PREV</text>
</a>
<a href="javascript:;" id="bttn_next" class="nav_button">
  <path class="nav_button_bg" d="M1856.02 119.66H1735.5c-6.6 0-12-5.4-12-12V69.84c0-6.6 5.4-12 12-12h120.52c6.6 0 12 5.4 12 12v37.83c0 6.59-5.4 11.99-12 11.99z"/>
  <text x="1798" y="100">NEXT</text>
</a>
<a href="javascript:;" id="bttn_tofc" class="nav_button">
  <path class="nav_button_bg" d="M184.5 217.16H63.98c-6.6 0-12-5.4-12-12v-37.83c0-6.6 5.4-12 12-12H184.5c6.6 0 12 5.4 12 12v37.83c0 6.6-5.4 12-12 12z"/>
  <text x="126" y="199">TofC</text>
</a>
<g id="page_num">
  <circle cx="1821.47" cy="984.85" r="41.88" fill="#fff"/>
  <text x="1820" y="1000">11</text>
</g>

<text x="960" y="150" class="ttl">HIGH FLOW GRAPH</text>
<text x="960" y="230" class="text_body">
  Flow rate as pressure across valve increases — High Flow
</text>

<text x="70" y="550" class="text_body2">Data from valve serial
  <tspan x="70" dy="32">#3085 12/4/06</tspan>
</text>

<text x="1468" y="545" class="text_body2">Notes in graph area are typical
  <tspan x="1468" dy="32">percent of reading change per</tspan>
  <tspan x="1468" dy="32">70 bar change in well pressure</tspan>
</text>

<g fill="none" stroke="#000">
<rect width="849.37" height="617.88" x="534.81" y="287.09"/>
<line stroke-dasharray="10 10" x1="534.81" x2="1384.18" y1="322.1" y2="322.1"/>
<line stroke-dasharray="10 10" x1="534.81" x2="1384.18" y1="423.07" y2="423.07"/>
<line stroke-dasharray="10 10" x1="534.81" x2="1384.18" y1="565.06" y2="565.06"/>
<line stroke-dasharray="10 10" x1="534.81" x2="1384.18" y1="809.62" y2="809.62"/>
<line stroke-dasharray="10 10" x1="534.81" x2="1384.18" y1="875.21" y2="875.21"/>
<line x1="696.81" x2="696.81" y1="904.98" y2="287.09"/>
<line x1="871.62" x2="871.62" y1="904.98" y2="287.09"/>
<line x1="1046.44" x2="1046.44" y1="904.98" y2="287.09"/>
<line x1="1221.25" x2="1221.25" y1="904.98" y2="287.09"/>
<path stroke-width="5" d="M534.81 904.98c.57-8.37 2.82-20.5 6.18-25.43 3.33-4.9 8.05-7.36 16.48-7.64 22.08-.72 57.25-.67 72.98-.8 17.28-.14 86.04.4 109.16.4 23.12 0 197.6.95 210.75.98 142.18.33 311.92 5.43 433.36 8.67"/>
<path stroke-width="5" d="M534.81 904.98c.57-8.37 7.81-62.37 11.53-79.64 2.97-13.8 19.17-13.7 27.61-13.98 22.08-.72 52.17-2.06 67.9-2.19 17.28-.14 91.52-.83 114.65-.83 23.12 0 189.97-2.68 203.12-2.75 146.7-.83 303-.76 424.43 2.48"/>
<path stroke-width="5" d="M534.81 904.98c.33-4.93 8.05-90.83 14.72-163 11.02-119.27 29.53-287.97 30.35-295.07 2.21-19.25 23.45-21.17 31.88-21.46 29.28-1 417.27-6.68 430.42-6.53 149.84 1.76 273.37 6.69 341.86 8.93"/>
<path stroke-width="5" d="M534.81 904.98c.33-4.93 4.55-147.51 7.44-219.93 2.02-50.59 5.44-87.25 6.19-94.35 2.06-19.53 17.03-24.06 25.31-25.68 21.29-4.15 46.56-4.64 62.28-4.77a22222 22222 0 01105.47-.48c23.12 0 537.11 5.32 642.53 6.97"/>
<path stroke-width="5" d="M534.81 904.98c.33-4.93 35.64-252.35 46.22-326.45 7.16-50.12 30.92-215.01 32.34-223.67 3.33-20.21 11.62-27.32 19.41-30.57 14.73-6.14 56.3-5.08 72.02-4.91 210.79 2.27 466.99 7.85 680.53-.91"/>
<line x1="1115.31" x2="1357.18" y1="323.09" y2="323.09"/>
<line x1="1082.01" x2="1307.98" y1="419.32" y2="419.32"/>
<line x1="828.5" x2="1190.88" y1="564.87" y2="564.87"/>
<line x1="743.52" x2="1030.58" y1="805.37" y2="805.37"/>
<line x1="1025.95" x2="1334.1" y1="872.85" y2="872.85"/>
<g stroke-linecap="round" stroke-linejoin="round">
<polyline points="1339.13 354.93 1349.61 354.93 1349.61 334.89"/>
<polyline points="1291.88 386.98 1302.37 386.98 1302.37 407.03"/>
<polyline points="830.22 597.26 840.7 597.26 840.7 577.21"/>
<polyline points="745.64 771.15 756.12 771.15 756.12 791.19"/>
<polyline points="1317.18 839.59 1327.67 839.59 1327.67 859.64"/>
</g>
</g>
<polygon points="1353.71 336.79 1345.66 336.79 1349.69 324.08"/>
<polygon points="1306.46 405.13 1298.41 405.13 1302.44 417.83"/>
<polygon points="844.8 579.11 836.75 579.11 840.77 566.41"/>
<polygon points="760.22 789.29 752.17 789.29 756.19 802"/>
<polygon points="1331.76 857.74 1323.71 857.74 1327.74 870.44"/>

<text x="450" y="578" class="graph_label" transform="rotate(-90 450 578)">Flow (% of full scale)</text>
<text x="975" y="1010" class="graph_label">Pressure Drop Across Valve (BAR)</text>

<text x="480" y="322">100%</text>
<text x="480" y="423">75%</text>
<text x="480" y="565">50%</text>
<text x="480" y="810">10%</text>
<text x="480" y="875">3.6%</text>
<text x="496" y="906">0%</text>

<text x="534" y="920" transform="rotate(90 534 920)">0</text>
<text x="696" y="920" transform="rotate(90 696 920)">100</text>
<text x="871" y="920" transform="rotate(90 871 920)">200</text>
<text x="1046" y="920" transform="rotate(90 1046 920)">300</text>
<text x="1221" y="920" transform="rotate(90 1221 920)">400</text>
<text x="1384" y="920" transform="rotate(90 1384 920)">500</text>

<text x="1286" y="361">0.06%</text>
<text x="1235" y="396">0.15%</text>
<text x="774" y="603">0.13%</text>
<text x="703" y="777">2.4%</text>
<text x="1271" y="846">4.0%</text>

<script>
<![CDATA[

]]>
</script>
</svg>
