<svg xmlns="http://www.w3.org/2000/svg" xmlns:xlink="http://www.w3.org/1999/xlink" viewBox="0 0 1920 1080">

<defs>
<style>@import url('https://fonts.googleapis.com/css2?family=Roboto:wght@400;700;900');</style>
</defs>

<style>
/* <![CDATA[ */

@namespace svg url(http://www.w3.org/2000/svg);

svg|a {
  outline: none;
}

svg {
  background: linear-gradient(#4a6785, #dbedff);
}

text {
  font-family: 'Roboto', sans-serif;
  text-anchor: middle;
  font-size: 26px;
}

.bttn:hover use {
  filter: url(#h_color);
  transform: translate(0px, 0px);
}

.bttn:active use {
  filter: url(#a_color);
  transform: translate(0px, 2px);
}

.nav_button_bg {
  fill: #fff;
  fill-opacity: 0;
  stroke: #fff;
  transition: fill-opacity .1s linear;
}

.nav_button:hover .nav_button_bg {
  fill-opacity: .3;
}

.nav_button text {
  font-size: 32px;
  font-weight: 700;
  fill: #fff;
}

#page_num text {
  font-size: 60px;
  font-weight: 900;
}

.ttl {
  font-size: 54px;
  fill: #fff;
  font-weight: 900;
}

.text_body {
  font-size: 26px;
  fill: #fff;
}

.text_body.dark {
  fill: #000;
}

.graph_label {
  font-size: 40px;
  font-weight: 700;
}

#bttn_surface text {
  font-size: 25px;
  font-weight: 700;
}

#bttn_surface:hover {
  filter: url(#h_color);
}

#bttn_surface:active {
  filter: url(#a_color);
  transform: translate(0px, 2px);
}

#surface.invis {
  display:none;
}

#surface #surface_labels text {
  font-size: 21px;
  font-weight: 700;
}

.bttn_close:hover use {
  filter: url(#c_color);
}

.popup_box {
  opacity: 1;
  transition: all .2s linear;
}

.popup_box.invis {
  opacity: 0;
}

#info:hover #info_bg {
  fill-opacity: .3;
}

#info_labels text {
  font-size: 24px;
  text-anchor: start;
}

/* ]]> */
</style>

<defs>
  <linearGradient id="pipe_grd1" x2="0" y2="1">
    <stop offset="0" stop-color="#363636"/>
    <stop offset=".05" stop-color="#4e4e4e"/>
    <stop offset=".07" stop-color="#4d4d4d"/>
    <stop offset=".16" stop-color="#6a6a6a"/>
    <stop offset=".36" stop-color="#444"/>
    <stop offset=".6" stop-color="#aaa"/>
    <stop offset=".61" stop-color="#ccc"/>
    <stop offset="1" stop-color="#999"/>
  </linearGradient>
  <linearGradient id="pipe_grd12" x1="1" x2="0" y2="0">
    <stop offset="0" stop-color="#363636"/>
    <stop offset=".05" stop-color="#4e4e4e"/>
    <stop offset=".07" stop-color="#4d4d4d"/>
    <stop offset=".16" stop-color="#6a6a6a"/>
    <stop offset=".36" stop-color="#444"/>
    <stop offset=".6" stop-color="#aaa"/>
    <stop offset=".61" stop-color="#ccc"/>
    <stop offset="1" stop-color="#999"/>
  </linearGradient>
  <linearGradient id="pipe_grd2" x2="1">
    <stop offset="0" stop-color="#868686"/>
    <stop offset="1" stop-color="#000"/>
  </linearGradient>
  <linearGradient id="pipe_grd3" x2="1">
    <stop offset="0" stop-color="#878787"/>
    <stop offset="1" stop-color="#c3c3c3"/>
  </linearGradient>
  <linearGradient id="pipe_grd4" x1="1" x2="0">
    <stop offset="0" stop-color="#9f9f9f"/>
    <stop offset=".04" stop-color="#9b9b9b"/>
    <stop offset=".05" stop-color="#4e4e4e"/>
    <stop offset=".07" stop-color="#4d4d4d"/>
    <stop offset=".08" stop-color="#898989"/>
    <stop offset=".15" stop-color="#8a8a8a"/>
    <stop offset=".16" stop-color="#6a6a6a"/>
    <stop offset=".36" stop-color="#5d5d5d"/>
    <stop offset=".6" stop-color="#bdbdbd"/>
    <stop offset=".61" stop-color="#e6e6e6"/>
    <stop offset="1" stop-color="#b5b5b5"/>
  </linearGradient>
  <linearGradient id="pipe_grd5" x2="0" y1="1" y2="0">
    <stop offset="0" stop-color="#363636"/>
    <stop offset=".05" stop-color="#4e4e4e"/>
    <stop offset=".07" stop-color="#4d4d4d"/>
    <stop offset=".16" stop-color="#6a6a6a"/>
    <stop offset=".36" stop-color="#5d5d5d"/>
    <stop offset=".6" stop-color="#bdbdbd"/>
    <stop offset=".61" stop-color="#e6e6e6"/>
    <stop offset="1" stop-color="#b5b5b5"/>
  </linearGradient>
  <filter id="h_color">
    <feColorMatrix
      color-interpolation-filters="sRGB"
      type="matrix"
      values=".5 0 0 0 0
              0 .7 0 0 0
              0 0 1 0 0
              0 0 0 1 0 "/>
  </filter>
  <filter id="a_color">
    <feColorMatrix
      color-interpolation-filters="sRGB"
      type="matrix"
      values="1 0 0 0 0
              0 .7 0 0 0
              0 0 .5 0 0
              0 0 0 1 0 "/>
  </filter>
  <filter id="c_color">
    <feColorMatrix
      color-interpolation-filters="sRGB"
      type="matrix"
      values="0 0 0 0 0
              0 .5 0 0 0
              0 0 0 0 0
              0 0 0 1 0 "/>
  </filter>
  <g id="bttn_r">
    <path fill-opacity=".5" d="M80.32 30.36A169.1 169.1 0 008.82 4.31 5.93 5.93 0 002.2 9.68L.8 25.77a5.96 5.96 0 005.2 6.4c20.3 2.6 40.3 9.62 58.55 21.35a5.95 5.95 0 008.1-1.56l9.27-13.24a5.92 5.92 0 00-1.6-8.36z"/>
    <path fill="#e8e8e8" stroke="#757575" stroke-width="1" d="M79.55 26.1A169.1 169.1 0 008.05.05a5.93 5.93 0 00-6.62 5.38L.03 21.52a5.96 5.96 0 005.2 6.4c20.3 2.6 40.3 9.61 58.55 21.34a5.95 5.95 0 008.1-1.55l9.27-13.25a5.93 5.93 0 00-1.6-8.36z"/>
    <g fill="none" stroke="#000" stroke-linecap="round" stroke-linejoin="round" stroke-width="4">
      <path d="M19.53 15.85a129.58 129.58 0 0142.1 15.56"/>
      <path d="M58.64 22.14l3 9.27-9.28 2.99"/>
    </g>
  </g>
  <g id="bttn_l">
    <path fill-opacity=".5" d="M2.68 30.36a169.1 169.1 0 0171.5-26.05 5.93 5.93 0 016.62 5.38l1.4 16.09c.29 3.18-2.02 6-5.2 6.4a141.07 141.07 0 00-58.55 21.35 5.95 5.95 0 01-8.1-1.56L1.08 38.73a5.92 5.92 0 011.6-8.36z"/>
    <path fill="#e8e8e8" stroke="#757575" stroke-width="1" d="M3.46 26.1A169.1 169.1 0 0174.96.05a5.93 5.93 0 016.62 5.38l1.4 16.09c.29 3.19-2.02 6-5.2 6.4a141.07 141.07 0 00-58.55 21.34 5.95 5.95 0 01-8.1-1.55L1.86 34.45a5.92 5.92 0 011.6-8.36z"/>
    <g fill="none" stroke="#000" stroke-linecap="round" stroke-linejoin="round" stroke-width="4">
      <path d="M63.47 15.85a129.58 129.58 0 00-42.1 15.56"/>
      <path d="M24.36 22.14l-3 9.27 9.28 2.99"/>
    </g>
  </g>
  <path id="arrow_r" fill="#BC0000" d="M22.31 0L-.62-22.89v12.59h-21.69v20.6H-.62v12.59L22.31 0z"/>
  <path id="arrow_o" fill="#F7931E" d="M22.31 0L-.62-22.89v12.59h-21.69v20.6H-.62v12.59L22.31 0z"/>
  <path id="arrow_y" fill="#FFFF00" d="M22.31 0L-.62-22.89v12.59h-21.69v20.6H-.62v12.59L22.31 0z"/>
  <g id="popup_close">
    <rect fill-opacity="0" width="24" height="24" x="-12" y="-12" />
    <path fill="#555" d="M3.72 0L9.3 5.58 5.58 9.3 0 3.72-5.58 9.3-9.3 5.58-3.72 0-9.3-5.58l3.72-3.72L0-3.72 5.58-9.3 9.3-5.58 3.72 0z"/>
  </g>
  <g id="ring">
    <path fill="#333" d="M120 215.88a95.88 95.88 0 110-191.76A95.88 95.88 0 01215.88 120 95.88 95.88 0 01120 215.88M120 0C53.73 0 0 53.73 0 120c0 66.27 53.73 120 120 120 66.27 0 120-53.73 120-120C240 53.73 186.27 0 120 0"/>
    <path fill="#828282" d="M120 219.56c-54.98 0-99.56-44.58-99.56-99.56 0-54.98 44.58-99.56 99.56-99.56 54.98 0 99.56 44.58 99.56 99.56 0 54.98-44.58 99.56-99.56 99.56m0-209.34C59.37 10.22 10.22 59.37 10.22 120S59.37 229.78 120 229.78 229.78 180.63 229.78 120 180.63 10.22 120 10.22"/>
    <path fill="#707070" d="M214.8 50.5a117.98 117.98 0 00-48.16-38.43c-1.18-.47-2.46.23 5.71 4.65 7.28 3.93 17.74 10.7 21.65 13.86 8.75 7.04 13.68 14 17.62 18.75 4.28 5.17 4.23 2.62 3.18 1.16"/>
    <path fill="#e6e6e6" d="M205.4 181.66c-16.23 20.91-44.47 45.07-84.67 45.07-17.36 0-54.67-4.44-83.07-36.01-26.52-29.47-27.44-63.27-27.44-72.68C10.22 57.4 59.37 8.26 120 8.26S229.78 57.4 229.78 118.04c0 13.65-3.84 37.16-24.38 63.62M233.71 120C233.71 57.2 182.8 6.29 120 6.29S7.02 56.59 7.02 119.39c0 28.64 16.28 60.84 33.31 76.74 17.04 15.91 37.06 33.5 87.22 33.5 41 0 81.05-36.3 91.15-58.76 7.25-16.1 21.15-47.92 5.06-92.46 5.61 12.16 13.46 38.98 4.3 72.06-7.89 28.48-24.78 44.26-30.5 50.16 14.37-12.32 36.15-38.37 36.15-80.63"/>
    <path fill="#fff" d="M36.58 64.77c-4.89 6.51-9.14 13.45-10.22 7.13-1.07-6.32 4.44-13.71 8.81-21.32C19.91 69.2 11.4 92.85 11.4 118.96c0 24.08 8.93 46.84 22.12 64.9-4.9-9.54-8.68-16.18-5.6-16.28-1.2-3.27.5-5.85 2.48-2.78 1.98 3.08 11.1 17.55 17.8 22.81A98.28 98.28 0 0121.39 120c0-35.84 20.2-62.9 44.09-80.9-5.53 2.87-19.15 12.7-28.9 25.67"/>
    <path fill="#5e5e5e" d="M238.75 120.94c1.35 10.1-4.78 42.01-17.67 61.98-12.9 19.96-26.8 32.83-51.16 44.71-1.04-1.25-4.37.62-4.37.62s3.74-3.12-2.29-1.87-9.77 1.66-9.77 1.66 28.43-9.62 47.41-28.07c17.01-16.53 27.26-37 31-55.62 3.96-19.62 3.35-29.2 3.35-29.2s2.67-.45 3.5 5.8"/>
    <path fill="#5e5e5e" d="M64.74 224.38s-19.46-10.07-34.73-27.51c-15.27-17.45-25-48.16-25.17-53.02-.08-2.54 3.84 11.39 9.57 22.31 5.25 10 12.21 16.8 15.1 20.8 6.04 8.4 24.16 26.35 46.48 35.74-7.22-1.34-18.46-7.88-16.28-4.86 2.18 3.02 9.4 7.89 5.03 6.54"/>
    <path fill="#d9d9d9" d="M206.9 172.09c10.23-15.29 14.4-30.6 14.4-50.35 0-55.94-45.36-101.29-101.3-101.29-29.25 0-55.6 12.4-74.1 32.22 5.26-5.36 34-29.8 73.89-29.8a97.31 97.31 0 0197.55 97.5c0 16.7-3.5 31.57-10.62 45.46-16.2 31.56-46.33 51-86.72 51.99 47.82 1.13 73.63-25.93 86.9-45.73"/>
    <path fill="#fff" d="M119.6 216.35c-52.63 0-94.93-42.86-95.47-95.36v1a95.88 95.88 0 00191.75 0l-.02-1c-.53 52.5-43.65 95.36-96.27 95.36"/>
    <path fill="#707070" d="M70.52 24.34c10.19-6.93 40.03-15.1 42.23-9.18 1.5 4.06-10.96 4.17-18.46 6.16-13.44 3.55-16.55 6.84-20.23 6.41-3.08-.35-6.12-1.63-3.54-3.4"/>
    <path fill="#5c5c5c" d="M87.22 215.62s6.94 4.1 25.01 6.86c14.8 2.27 37.4 1.54 46.94-6.85 7.95-6.98-4.43-.8-9.47.57-18.23 4.97-34.26 6.14-62.48-.58"/>
  </g>
</defs>

<a href="page_02.svg" id="bttn_prev" class="nav_button">
  <path class="nav_button_bg" d="M184.5 119.66H63.98c-6.6 0-12-5.4-12-12V69.84c0-6.6 5.4-12 12-12H184.5c6.6 0 12 5.4 12 12v37.83c0 6.59-5.4 11.99-12 11.99z"/>
  <text x="126" y="100">PREV</text>
</a>
<a href="page_04.svg" id="bttn_next" class="nav_button">
  <path class="nav_button_bg" d="M1856.02 119.66H1735.5c-6.6 0-12-5.4-12-12V69.84c0-6.6 5.4-12 12-12h120.52c6.6 0 12 5.4 12 12v37.83c0 6.59-5.4 11.99-12 11.99z"/>
  <text x="1798" y="100">NEXT</text>
</a>
<a href="javascript:;" id="bttn_tofc" class="nav_button">
  <path class="nav_button_bg" d="M184.5 217.16H63.98c-6.6 0-12-5.4-12-12v-37.83c0-6.6 5.4-12 12-12H184.5c6.6 0 12 5.4 12 12v37.83c0 6.6-5.4 12-12 12z"/>
  <text x="126" y="199">TofC</text>
</a>
<a href="javascript:;" id="bttn_surface">
  <path fill-opacity=".5" d="M184.5 1033.21H63.98c-6.6 0-12-5.4-12-12v-37.83c0-6.6 5.4-12 12-12H184.5c6.6 0 12 5.4 12 12v37.83c0 6.6-5.4 12-12 12z"/>
  <path fill="#FFF" stroke="#757575" d="M184.5 1029.43H63.98c-6.6 0-12-5.4-12-12V979.6c0-6.6 5.4-12 12-12H184.5c6.6 0 12 5.4 12 12v37.83c0 6.6-5.4 12-12 12z"/>
  <text x="126" y="1008">SURFACE</text>
</a>
<g id="page_num">
  <circle cx="1821.47" cy="984.85" r="41.88" fill="#fff"/>
  <text x="1821.47" y="1005.44">3</text>
</g>

<text x="960" y="106" class="ttl">LOW FLOW CORE - P&amp;ID</text>
<a id="info" class="popup_box" fill="#fff" href="javascript:;">
  <path id="info_bg" fill-opacity="0" stroke="#fff" stroke-width="3" d="M1291 53.55a17.01 17.01 0 010 34 17.01 17.01 0 010-34h0z"/>
  <path fill="#FFF" d="M1293.38 70.85a2.59 2.59 0 00-2.57-2.42 2.6 2.6 0 00-2.58 2.42v7.13a2.6 2.6 0 002.58 2.42 2.59 2.59 0 002.57-2.42v-7.13z"/>
  <path fill="#FFF" d="M1293.38 63.39a2.59 2.59 0 00-2.57-2.42 2.6 2.6 0 00-2.58 2.42v.03a2.6 2.6 0 002.58 2.42 2.59 2.59 0 002.57-2.42v-.03z"/>
</a>
<text x="960" y="159" class="text_body">
  The SkoFlo Low Flow series adjusts the flow set point by simultaneously varying a restrictor (Cv)
  <tspan x="960" dy="32">and controlling the internal pressure drop (DP) across that restrictor. As DP is independent of</tspan>
  <tspan x="960" dy="32">system pressure changes, flow is stable in all field conditions.</tspan>
</text>

<g id="pipes">
  <rect width="945.43" height="83.83" x="51.97" y="642.89" fill="url(#pipe_grd1)"/>
  <rect width="950.43" height="10" x="51.97" y="641.89" fill="#CCC"/>
  <rect width="875.6" height="10" x="51.97" y="716.72" fill="#555"/>
  <rect width="824.33" height="83.83" x="922.57" y="727.25" fill="url(#pipe_grd1)"/>
  <rect width="754.5" height="10" x="992.4" y="726.25" fill="#CCC"/>
  <rect width="18.78" height="10" x="550.87" y="716.72" fill="url(#pipe_grd3)"/>
  <rect width="18.78" height="10" x="848.53" y="716.72" fill="url(#pipe_grd3)"/>
  <rect width="18.78" height="10" x="162.76" y="641.89" fill="url(#pipe_grd2)"/>
  <path fill="url(#pipe_grd4)" d="M185.15 641.89v-91.9h-26v91.9s5.02 1 13 1 13-1 13-1z"/>
  <path fill="url(#pipe_grd4)" d="M572.98 725.92v167.4h-26v-167.4s5.02-1 13-1c7.99 0 13 1 13 1z"/>
  <path fill="url(#pipe_grd4)" d="M870.64 725.92v167.4h-26v-167.4s5.02-1 13-1 13 1 13 1z"/>
  <path fill="url(#pipe_grd5)" d="M591.99 893.65h-45l26-26h19s1 5.02 1 13-1 13-1 13z"/>
  <path fill="url(#pipe_grd5)" d="M825.64 893.65h45l-26-26h-19s-1 5.02-1 13 1 13 1 13z"/>
  <rect width="18.78" height="10" x="1445.86" y="726.25" fill="url(#pipe_grd2)"/>
  <path fill="url(#pipe_grd4)" d="M1468.25 726.25V549.99h-26v176.26s5.02 1 13 1 13-1 13-1z"/>
  <polygon points="992.4 651.89 992.4 736.25 927.57 801.08 927.57 716.72" fill="url(#pipe_grd12)"/>
  <rect width="10" height="94.36" x="992.4" y="641.89" fill="#CCC"/>
  <rect width="10" height="94.32" x="917.57" y="716.72" fill="#555"/>
  <rect width="829.33" height="10" x="917.57" y="801.08" fill="#555"/>
  <rect width="18.78" height="10" x="672.51" y="641.89" fill="url(#pipe_grd2)"/>
  <path fill="url(#pipe_grd4)" d="M694.62 642.7V435.3h-26v207.4s5.02 1 13 1c7.99 0 13-1 13-1z"/>
  <path fill="url(#pipe_grd4)" d="M973 435.3h-26v94.78s5.02 1 13 1 13-1 13-1V435.3z"/>
  <polygon fill="url(#pipe_grd5)" points="668.63 434.97 694.63 460.97 947 460.97 973 434.97"/>
  <g stroke-dasharray="30 20" fill="none" stroke-linecap="round" stroke-linejoin="round" stroke-miterlimit="10" stroke-width="4">
    <line x1="171.97" x2="171.97" y1="554.69" y2="643.27" stroke="#BC0000"/>
    <polyline stroke="#BC0000" points="681.62 643.7 681.62 448.32 959.46 448.32 959.46 527.93"/>
    <polyline stroke="#BC0000" points="559.98 724.92 559.98 879.64 588.72 879.64"/>
    <polyline stroke="#F7931E" points="857.64 724.92 857.64 879.64 828.6 879.64"/>
    <line x1="1455.25" x2="1455.25" y1="727.25" y2="554.47" stroke="#FF0"/>
  </g>
</g>

<clipPath id="arrow_clip1">
  <rect x="52" y="652" width="709" height="64"/>
</clipPath>
<clipPath id="arrow_clip2">
  <rect x="957" y="736" width="681" height="64"/>
</clipPath>
<clipPath id="arrow_clip3">
  <rect x="761" y="652" width="196" height="64"/>
</clipPath>
<g clip-path="url(#arrow_clip1)">
  <g id="queue">
    <use x="-70" y="685" xlink:href="#arrow_r"/>
    <use x="52" y="685" xlink:href="#arrow_r"/>
    <use x="174" y="685" xlink:href="#arrow_r"/>
    <use x="296" y="685" xlink:href="#arrow_r"/>
    <use x="418" y="685" xlink:href="#arrow_r"/>
    <use x="540" y="685" xlink:href="#arrow_r"/>
    <use x="662" y="685" xlink:href="#arrow_r"/>
    <use x="784" y="685" xlink:href="#arrow_r"/>
  </g>
</g>
<g clip-path="url(#arrow_clip3)">
  <g id="queue3">
    <use x="540" y="685" xlink:href="#arrow_o"/>
    <use x="662" y="685" xlink:href="#arrow_o"/>
    <use x="784" y="685" xlink:href="#arrow_o"/>
    <use x="906" y="685" xlink:href="#arrow_o"/>
    <use x="1028" y="685" xlink:href="#arrow_o"/>
  </g>
</g>
<g clip-path="url(#arrow_clip2)">
  <g id="queue2">
    <use x="784" y="771" xlink:href="#arrow_y"/>
    <use x="906" y="771" xlink:href="#arrow_y"/>
    <use x="1028" y="771" xlink:href="#arrow_y"/>
    <use x="1150" y="771" xlink:href="#arrow_y"/>
    <use x="1272" y="771" xlink:href="#arrow_y"/>
    <use x="1394" y="771" xlink:href="#arrow_y"/>
    <use x="1516" y="771" xlink:href="#arrow_y"/>
    <use x="1638" y="771" xlink:href="#arrow_y"/>
  </g>
</g>

<g id="red_bar">
  <circle cx="172" cy="434.67" r="101" fill="#FFB8B8" fill-rule="evenodd" clip-rule="evenodd"/>
  <path fill="#D16969" stroke="#994D4D" stroke-width="1.4" d="M172 327.12c-59.4 0-107.56 48.15-107.56 107.56S112.59 542.24 172 542.24c59.4 0 107.56-48.15 107.56-107.56S231.4 327.12 172 327.12zm0 208.55c-55.78 0-101-45.22-101-101s45.22-101 101-101 101 45.22 101 101-45.22 101-101 101z"/>
  <g id="red_dashes" fill="none" stroke="#000" stroke-linecap="round" stroke-width="1.68">
    <path d="M135.47 497.93l-7.99 13.85"/>
    <path d="M114.76 502.88l4.89-5.82"/>
    <path d="M103.79 491.9l5.82-4.88"/>
    <path d="M94.89 479.19l6.58-3.8"/>
    <path d="M88.33 465.12l7.14-2.59"/>
    <path d="M84.31 450.13l15.75-2.78"/>
    <path d="M82.96 434.67h7.59"/>
    <path d="M84.31 419.21l7.48 1.32"/>
    <path d="M88.33 404.22l7.14 2.6"/>
    <path d="M94.89 390.15l6.58 3.8"/>
    <path d="M103.79 377.44l12.25 10.28"/>
    <path d="M114.76 366.46l4.89 5.82"/>
    <path d="M127.48 357.56l3.79 6.58"/>
    <path d="M141.54 351l2.6 7.14"/>
    <path d="M156.53 346.99l1.32 7.48"/>
    <path d="M172 345.63v16"/>
    <path d="M187.46 346.99l-1.32 7.48"/>
    <path d="M202.45 351l-2.6 7.14"/>
    <path d="M216.51 357.56l-3.79 6.58"/>
    <path d="M229.23 366.46l-4.89 5.82"/>
    <path d="M240.2 377.44l-12.25 10.28"/>
    <path d="M249.1 390.15l-6.57 3.8"/>
    <path d="M255.66 404.22l-7.13 2.6"/>
    <path d="M259.68 419.21l-7.48 1.32"/>
    <path d="M261.03 434.67h-7.59"/>
    <path d="M259.68 450.13l-15.75-2.78"/>
    <path d="M255.66 465.12l-7.13-2.59"/>
    <path d="M249.1 479.19l-6.57-3.8"/>
    <path d="M240.2 491.9l-5.82-4.88"/>
    <path d="M229.23 502.88l-4.89-5.82"/>
    <path d="M216.51 511.78l-7.99-13.85"/>
  </g>
  <path id="red_ttl" d="M159.75 518.21v-9.56h3.35c1.16 0 2.04.22 2.64.67.6.44.9 1.09.9 1.95 0 .47-.12.88-.36 1.24s-.58.62-1 .78c.46.1.87.36 1.16.74.28.37.42.83.42 1.37 0 .92-.29 1.61-.88 2.09-.59.47-1.42.71-2.51.72h-3.72zm21.15-3.5h-1.57v3.5h-1.97v-9.56h3.55c1.13 0 2 .25 2.61.75s.92 1.21.92 2.13c0 .65-.14 1.2-.42 1.63-.28.44-.71.78-1.28 1.04l2.07 3.9v.09h-2.11l-1.8-3.48zm-7.18 1.53h-3.45l-.66 1.97h-2.09l3.56-9.56h1.82l3.58 9.56h-2.09l-.67-1.97zm-12-2.19v2.58h1.69c.46 0 .83-.11 1.09-.33s.39-.53.39-.92c0-.88-.45-1.32-1.36-1.33h-1.81zm9.08.59h2.39l-1.2-3.58-1.19 3.58zm8.55-4.4v2.87h1.58c.49 0 .88-.13 1.15-.38s.41-.6.41-1.04c0-.45-.13-.81-.38-1.06-.26-.26-.65-.39-1.18-.39h-1.58zm-17.63 2.41h1.46c.99-.02 1.49-.41 1.49-1.19 0-.43-.13-.74-.38-.94s-.65-.29-1.19-.29h-1.38v2.42zm29.92-16.18c-.81-1.4-1.11-2.66-.93-3.78a3.8 3.8 0 012-2.67 3.81 3.81 0 013.33-.4c1.07.4 2.01 1.29 2.81 2.68l1.09 1.89c.81 1.4 1.12 2.66.92 3.78a3.8 3.8 0 01-2 2.67c-.98.64-2.21.79-3.32.39-1.07-.4-2.01-1.3-2.81-2.69l-1.09-1.87zm3.66.81c.43.74.85 1.24 1.25 1.5.41.25.82.26 1.24.02.41-.24.61-.58.6-1.03a4.06 4.06 0 00-.59-1.72l-1.53-2.64c-.3-.6-.74-1.12-1.27-1.53a1.1 1.1 0 00-1.23 0c-.39.2-.62.61-.6 1.04.01.46.22 1.06.65 1.81l1.48 2.55zm-58.58-9.83c.81-1.4 1.74-2.29 2.81-2.69a3.77 3.77 0 013.31.4 3.78 3.78 0 012.01 2.69c.19 1.13-.12 2.38-.92 3.77l-1.09 1.89c-.81 1.4-1.74 2.29-2.81 2.69s-2.17.26-3.32-.4a3.75 3.75 0 01-2-2.68c-.19-1.13.12-2.39.92-3.78l1.09-1.89zm63.35 4.15c-.81-1.4-1.12-2.66-.92-3.78a3.8 3.8 0 012-2.67 3.81 3.81 0 013.33-.4c1.07.4 2.01 1.29 2.81 2.68l1.09 1.89c.81 1.4 1.11 2.66.92 3.78a3.8 3.8 0 01-2 2.67c-.98.64-2.21.79-3.32.39-1.07-.4-2.01-1.3-2.81-2.69l-1.1-1.87zm-62.22-.57a4.31 4.31 0 00-.67 1.83c-.02.48.19.84.61 1.08.41.24.81.24 1.19.01.5-.36.91-.83 1.2-1.37l1.53-2.64c.45-.77.67-1.39.69-1.86.01-.47-.19-.83-.61-1.07a1.13 1.13 0 00-1.2 0c-.4.24-.81.72-1.24 1.46l-1.5 2.56zm65.88 1.39c.43.74.85 1.24 1.25 1.5.41.25.82.26 1.24.02.41-.24.61-.58.6-1.03a4.06 4.06 0 00-.59-1.72l-1.53-2.64c-.3-.6-.74-1.12-1.27-1.53a1.1 1.1 0 00-1.23 0c-.39.2-.62.61-.6 1.04.01.46.22 1.06.65 1.81l1.48 2.55zm10.88-6.62l-1.13.65c-.9.52-1.09 1.21-.58 2.09.2.34.46.56.8.65.34.09.7.03 1.09-.2.32-.18.54-.43.67-.76a.97.97 0 00-.05-.89l2.39-1.38c.31.54.44 1.12.39 1.72a3.63 3.63 0 01-.68 1.73 4.84 4.84 0 01-1.57 1.38c-.94.61-2.06.89-3.17.78a3.03 3.03 0 01-2.24-1.6 2.53 2.53 0 01-.32-1.5c.04-.55.26-1.1.63-1.65-.66.12-1.27.06-1.82-.16a2.8 2.8 0 01-1.34-1.23 3.11 3.11 0 01-.21-2.83 5.1 5.1 0 012.32-2.45 5.32 5.32 0 012.11-.7c.73-.08 1.38.03 1.94.31.57.29 1.03.74 1.35 1.3l-2.41 1.39c-.18-.32-.5-.54-.86-.6-.4-.08-.81-.01-1.15.2-.42.24-.69.55-.81.93s-.07.75.14 1.12c.3.52.64.82 1.03.88s.81-.03 1.27-.3l1.17-.67 1.04 1.79zm-45.14-8.9h5.49v2.08h-8.07v-12.54h2.58v10.46zm15.36-8.37h-5.81v2.99h4.96v2.02h-4.95v3.36h5.82v2.08h-8.41v-12.54h8.39v2.09zm-32.79 10.44h-2.58v-12.54h2.58v12.54zm12.6 0h-2.59l-5.03-8.25v8.25h-2.58v-12.54h2.58l5.04 8.27v-8.27h2.58v12.54zm31.35-10.45h-3.85v10.45h-2.58v-10.45h-3.79v-2.09h10.22v2.09zm35.97-9.18c-1.59-.28-2.75-.85-3.49-1.72a3.74 3.74 0 01-.76-3.25 3.78 3.78 0 011.84-2.81c.99-.56 2.28-.71 3.86-.43l2.15.38c1.59.28 2.75.85 3.49 1.72s.99 1.95.76 3.25a3.78 3.78 0 01-1.83 2.8c-.99.56-2.28.71-3.87.43l-2.15-.37zm2.98-2.28c.84.15 1.5.15 1.95 0 .46-.15.73-.46.81-.94.08-.47-.05-.84-.4-1.12-.35-.28-.92-.5-1.7-.65l-3-.53a4.32 4.32 0 00-1.99-.01c-.43.12-.74.5-.79.94-.08.46.06.84.41 1.13.36.29.96.51 1.8.67l2.91.51zm-124.73-2.52l-6.14.34-1.21-6.88 2.12-.37.82 4.66 2.38-.15a3.64 3.64 0 01-.72-1.61c-.21-1.17-.02-2.13.56-2.88a4.26 4.26 0 012.75-1.45 4.44 4.44 0 012.14.14c.67.23 1.22.62 1.66 1.17.44.55.73 1.24.87 2.07.13.74.1 1.46-.09 2.16s-.52 1.28-.98 1.74c-.47.46-1.03.75-1.7.86l-.48-2.73c.43-.1.74-.3.95-.59s.28-.64.21-1.04c-.16-.92-.92-1.25-2.27-1.01-1.25.22-1.78.89-1.58 2.01.11.64.4 1.07.86 1.31l-.15 2.25zM236 441.92l5.89 1.78-1.21 6.88-2.12-.37.82-4.66-2.29-.68c.19.57.24 1.18.14 1.77-.21 1.17-.71 2.01-1.51 2.51s-1.83.65-3.08.43a4.1 4.1 0 01-1.96-.87 3.5 3.5 0 01-1.16-1.67 4.6 4.6 0 01-.11-2.24c.13-.74.4-1.4.82-2 .42-.59.92-1.03 1.52-1.3a3.07 3.07 0 011.89-.22l-.48 2.73c-.38-.06-.77.02-1.1.23-.3.2-.48.51-.55.91-.16.92.43 1.49 1.79 1.73 1.25.22 1.98-.23 2.18-1.35.11-.63-.01-1.15-.36-1.53l.88-2.08zm-127.95-5.14c1.59-.28 2.88-.14 3.86.42.99.56 1.6 1.49 1.82 2.79a3.78 3.78 0 01-.76 3.27c-.74.87-1.9 1.44-3.48 1.72l-2.15.38c-1.59.28-2.88.14-3.86-.42a3.78 3.78 0 01-1.83-2.8c-.23-1.3.03-2.39.77-3.26s1.9-1.44 3.49-1.72l2.14-.38zm-2.02 3.17c-.85.15-1.46.37-1.84.66s-.52.68-.44 1.16c.08.47.34.78.76.92a4 4 0 001.82.03l3.01-.53c.88-.15 1.5-.38 1.87-.67s.51-.68.42-1.16a1.11 1.11 0 00-.77-.92 4.15 4.15 0 00-1.92-.01l-2.91.52zm124.49-.58l1.45-8.21 1.78.31 3.31 4.48c.9 1.12 1.66 1.73 2.28 1.84.51.09.91.05 1.21-.13.3-.17.49-.47.57-.89.08-.4-.05-.82-.35-1.1a2.22 2.22 0 00-1.25-.62l.48-2.73c.72.13 1.36.43 1.9.89.55.46.95 1.08 1.17 1.76.23.7.28 1.45.14 2.24a4.39 4.39 0 01-1.4 2.78c-.71.58-1.61.78-2.71.58-.46-.08-.9-.25-1.31-.5s-.82-.6-1.24-1.05a21.85 21.85 0 01-1.63-2.1l-1.49-1.83-.82 4.63-2.09-.35zm-1.08-34.78c-1.24 1.04-2.42 1.56-3.56 1.57a3.74 3.74 0 01-2.97-1.5 3.79 3.79 0 01-.97-3.21 5.7 5.7 0 012.15-3.23l1.67-1.4c1.24-1.04 2.42-1.56 3.56-1.57s2.13.5 2.98 1.51c.8.86 1.16 2.05.97 3.21-.21 1.12-.93 2.2-2.16 3.23l-1.67 1.39zm-107.2-1.57l-1.78 2.12-6.76-5.67-1.14 2.6-1.61-1.35 1.98-5.18.16-.19 9.15 7.67zm107.37-2.17c.53-.39.96-.9 1.26-1.49.18-.44.11-.85-.2-1.23-.31-.36-.68-.5-1.12-.42-.44.09-.97.38-1.59.88l-2.34 1.96c-.54.4-.98.92-1.28 1.52-.17.44-.1.84.21 1.21.3.36.68.5 1.13.41.62-.18 1.2-.51 1.67-.95l2.26-1.89zm-6.42-3.71c-1.24 1.04-2.42 1.56-3.56 1.57a3.74 3.74 0 01-2.97-1.5 3.79 3.79 0 01-.97-3.21 5.7 5.7 0 012.15-3.23l1.67-1.4c1.24-1.04 2.42-1.56 3.56-1.57s2.13.5 2.98 1.51c.8.86 1.16 2.05.97 3.21-.2 1.13-.93 2.2-2.16 3.23l-1.67 1.39zm-97.04-6.37c1.24 1.04 1.96 2.11 2.16 3.23a3.74 3.74 0 01-.96 3.19 3.71 3.71 0 01-2.99 1.51c-1.14-.01-2.33-.53-3.55-1.56l-1.67-1.4c-1.24-1.04-1.96-2.11-2.16-3.23a3.8 3.8 0 01.97-3.2 3.78 3.78 0 012.99-1.51c1.14.01 2.33.53 3.56 1.56l1.65 1.41zm-3.72.49a4.3 4.3 0 00-1.69-.98c-.47-.1-.86.04-1.17.41-.31.36-.38.76-.21 1.17.16.42.54.89 1.15 1.42l2.34 1.96c.68.57 1.25.91 1.71 1s.85-.05 1.16-.42c.3-.36.37-.76.21-1.19a4.1 4.1 0 00-1.23-1.48l-2.27-1.89zm100.92 2.13c.53-.39.96-.9 1.26-1.49.18-.45.11-.85-.2-1.23-.31-.36-.68-.5-1.12-.42-.44.09-.97.38-1.59.88l-2.34 1.96c-.54.4-.98.92-1.28 1.52-.17.44-.1.84.21 1.21.3.36.68.5 1.13.41.62-.18 1.2-.51 1.67-.95l2.26-1.89zm-10.13-.53l-5.36-6.38 1.38-1.16 5.56.35c1.43.03 2.39-.16 2.88-.56.39-.33.62-.67.68-1.01s-.05-.68-.32-1.01a1.22 1.22 0 00-1.07-.44c-.44.03-.87.22-1.28.56l-1.78-2.12a3.9 3.9 0 014.01-.65c.69.27 1.29.72 1.8 1.33a4.44 4.44 0 011.23 2.86c-.01.92-.44 1.73-1.29 2.45-.36.3-.77.53-1.22.68-.45.15-.99.24-1.6.28-.61.03-1.5 0-2.65-.1l-2.35-.04 3.02 3.6-1.64 1.36zm-80.82-9.54c1.24 1.04 1.96 2.11 2.16 3.23a3.74 3.74 0 01-.96 3.19 3.71 3.71 0 01-2.99 1.51c-1.14-.01-2.33-.53-3.55-1.56l-1.67-1.4c-1.24-1.04-1.96-2.11-2.16-3.23a3.8 3.8 0 01.97-3.2 3.78 3.78 0 012.99-1.51c1.14.01 2.33.53 3.56 1.56l1.65 1.41zm-3.72.49a4.3 4.3 0 00-1.69-.98c-.47-.1-.86.04-1.17.41-.31.36-.38.76-.21 1.17.16.42.54.89 1.15 1.42l2.34 1.96c.68.57 1.25.91 1.72 1 .46.09.85-.05 1.16-.42.3-.36.37-.76.21-1.19a4.1 4.1 0 00-1.23-1.48l-2.28-1.89zm39.34-13.43l.73-6.11h6.98v2.15H171l-.27 2.37a3.94 3.94 0 011.72-.43c1.19 0 2.1.35 2.74 1.05.64.7.96 1.69.96 2.96 0 .77-.17 1.46-.51 2.08s-.82 1.1-1.44 1.43c-.68.35-1.43.52-2.19.5-.75 0-1.45-.15-2.11-.46a3.73 3.73 0 01-1.54-1.27 3.12 3.12 0 01-.55-1.82h2.77c.03.44.17.78.42 1.04s.58.38.99.38c.93 0 1.39-.69 1.39-2.06 0-1.27-.57-1.91-1.71-1.91-.65 0-1.13.21-1.44.62l-2.21-.52zm17.86.95c0 1.61-.36 2.86-1.09 3.73a3.76 3.76 0 01-3.06 1.31 3.74 3.74 0 01-3.08-1.32c-.73-.88-1.09-2.12-1.09-3.72v-2.18c0-1.61.36-2.86 1.09-3.73a3.8 3.8 0 013.07-1.31c1.32 0 2.35.44 3.08 1.32.73.88 1.09 2.12 1.09 3.73v2.17h-.01zm-21.62 4.88h-2.77v-8.83l-2.72.8v-2.1l5.24-1.81h.25v11.94zm18.86-7.41c0-.86-.11-1.5-.34-1.92-.2-.41-.62-.66-1.07-.64-.48 0-.82.2-1.04.59a4.06 4.06 0 00-.35 1.79v3.05c0 .89.11 1.54.34 1.96.22.41.58.62 1.07.62.47 0 .82-.2 1.04-.6s.34-1.03.34-1.89l.01-2.96z"/>
  <g id="red_arrow" transform="rotate(-150 171.933 434.709)">
    <circle cx="171.99" cy="434.68" r="9.28"/>
    <polygon points="169.34 457.98 174.66 457.98 172.56 354.37 171.44 354.37"/>
    <circle cx="171.99" cy="434.68" r="4.98" fill="#FFB8B8"/>
  </g>
  <a id="rb_left" class="bttn" href="javascript:;">
    <use x="81.667" y="280" xlink:href="#bttn_l"/>
  </a>
  <a id="rb_right" class="bttn" href="javascript:;">
    <use x="179.676" y="280" xlink:href="#bttn_r"/>
  </a>
  <use x="51.965" y="314.693" xlink:href="#ring"/>
</g>

<g id="gray_bar">
  <circle cx="708.72" cy="880.41" r="101" fill="#D4D4D4"/>
  <path fill="#696969" stroke="#383838" stroke-miterlimit="10" stroke-width=".84" d="M708.72 772.85c-59.4 0-107.56 48.15-107.56 107.56 0 59.4 48.15 107.56 107.56 107.56 59.4 0 107.56-48.15 107.56-107.56 0-59.4-48.16-107.56-107.56-107.56zm0 208.56c-55.78 0-101-45.22-101-101s45.22-101 101-101 101 45.22 101 101-45.22 101-101 101z"/>
  <g id="gray_ttl">
    <path d="M682.04 827.87l1.05-.61 1.07 1.85-1.05.61 1.27 2.2-2.39 1.38-1.27-2.2-4 2.31-.99-1.38.29-9.06-.01-.02 2.39-1.38 3.64 6.3zm-4.26 2.46l1.86-1.08-1.84-3.18-.01.33-.01 3.93z"/>
    <path d="M738.33 925.96l2.4-1.39 4.41 7.64 1.96-2.05 1.05 1.82-3.63 4.19-.22.13-5.97-10.34z"/>
    <path d="M730.47 936.14c-.81-1.4-1.12-2.66-.92-3.78a3.77 3.77 0 012-2.67 3.78 3.78 0 013.33-.4c1.07.4 2.01 1.29 2.81 2.68l1.09 1.89c.81 1.4 1.12 2.66.92 3.78s-.86 2.01-2 2.67a3.76 3.76 0 01-3.32.39c-1.07-.4-2.01-1.29-2.81-2.69l-1.1-1.87zm3.66.81c.43.74.85 1.24 1.25 1.5s.82.26 1.24.02c.41-.24.61-.58.6-1.03a4.06 4.06 0 00-.59-1.72l-1.53-2.64a4.43 4.43 0 00-1.27-1.53 1.1 1.1 0 00-1.23 0c-.41.24-.61.58-.6 1.04s.22 1.06.65 1.81l1.48 2.55z"/>
    <path d="M696.48 963.94v-9.55h3.35c1.16 0 2.04.22 2.64.67s.9 1.09.9 1.95c0 .47-.12.88-.36 1.24s-.58.62-1 .78c.49.12.88.37 1.16.74s.42.83.42 1.37c0 .92-.29 1.61-.88 2.09s-1.42.71-2.51.72h-3.72zm1.96-5.55h1.46c.99-.02 1.49-.41 1.49-1.19 0-.43-.13-.75-.38-.94-.25-.19-.65-.29-1.19-.29h-1.38v2.42zm0 1.39v2.58h1.69c.46 0 .83-.11 1.09-.33.26-.22.39-.53.39-.92 0-.88-.45-1.32-1.36-1.33h-1.81z"/>
    <path d="M710.45 961.97H707l-.66 1.97h-2.09l3.56-9.55h1.82l3.58 9.55h-2.09l-.67-1.97zm-2.92-1.59h2.39l-1.2-3.58-1.19 3.58z"/>
    <path d="M717.63 960.45h-1.57v3.5h-1.97v-9.55h3.55c1.13 0 2 .25 2.61.75.61.5.92 1.21.92 2.13 0 .65-.14 1.2-.42 1.63-.28.44-.71.78-1.28 1.04l2.07 3.9v.09h-2.11l-1.8-3.49zm-1.57-1.6h1.59c.49 0 .88-.12 1.15-.38s.41-.6.41-1.04c0-.45-.13-.8-.38-1.06-.26-.26-.65-.39-1.18-.39h-1.58v2.87z"/>
    <path d="M698.42 921.36v-12.54h3.86c1.1 0 2.09.25 2.96.75.87.5 1.55 1.2 2.04 2.12.49.92.73 1.96.73 3.12v.58c0 1.17-.24 2.2-.72 3.11s-1.16 1.61-2.03 2.11c-.87.5-1.86.75-2.96.76h-3.88zm2.58-10.45v8.37h1.25c1.01 0 1.78-.33 2.32-.99s.81-1.6.82-2.83v-.66c0-1.27-.26-2.24-.79-2.9-.53-.66-1.3-.99-2.32-.99H701z"/>
    <path d="M712.47 916.94v4.42h-2.58v-12.54h4.89c.94 0 1.77.17 2.49.52s1.26.83 1.65 1.47.58 1.36.58 2.17a3.6 3.6 0 01-1.26 2.91 5.25 5.25 0 01-3.49 1.06h-2.28zm0-2.1h2.31c.68 0 1.21-.16 1.56-.48.36-.32.54-.78.54-1.38 0-.61-.18-1.11-.54-1.49a2.05 2.05 0 00-1.5-.59h-2.37v3.94z"/>
    <path d="M654.51 876.2v8.33h-1.8l-4.04-3.84c-1.08-.95-1.93-1.42-2.57-1.42-.51 0-.91.11-1.17.34-.27.22-.4.55-.4.98 0 .42.18.76.54 1.03.36.26.81.39 1.34.39v2.77a3.9 3.9 0 01-3.49-2.08 4.54 4.54 0 01-.53-2.18c0-1.29.3-2.29.89-2.98.6-.7 1.45-1.05 2.57-1.05.47 0 .93.09 1.37.26s.91.45 1.4.82c.49.37 1.14.96 1.96 1.78l1.78 1.54v-4.7h2.15z"/>
    <path d="M771.68 884.32c-.58 0-1.09-.14-1.53-.43s-.8-.68-1.07-1.18a3.44 3.44 0 01-1.14 1.35c-.48.33-1.06.5-1.72.5-1.07 0-1.91-.37-2.53-1.1s-.93-1.75-.93-3.04c0-1.3.31-2.32.93-3.07a3.1 3.1 0 012.52-1.12c.64 0 1.21.16 1.7.49s.88.79 1.17 1.39c.27-.51.62-.91 1.07-1.2s.95-.43 1.53-.43c1.04 0 1.86.35 2.46 1.06.6.71.9 1.66.9 2.85 0 1.21-.3 2.17-.9 2.87a3.05 3.05 0 01-2.46 1.06zm-5.24-2.54c.49 0 .87-.13 1.14-.38.26-.25.4-.59.4-1 0-.42-.13-.75-.4-1.01s-.64-.39-1.14-.39c-.48 0-.85.13-1.13.39s-.41.6-.41 1.02c0 .41.14.74.41.99.27.26.65.38 1.13.38zm6.47-1.39c0-.37-.12-.66-.37-.85a1.6 1.6 0 00-1.01-.29c-.43 0-.77.1-1.03.3-.26.2-.39.49-.39.87s.13.66.39.85c.26.19.61.28 1.03.28.43 0 .76-.1 1.01-.29s.37-.49.37-.87z"/>
    <path d="M675.63 929.51c.81-1.4 1.74-2.29 2.81-2.69a3.77 3.77 0 013.31.39 3.79 3.79 0 012.01 2.69c.19 1.13-.12 2.38-.92 3.77l-1.09 1.89c-.81 1.4-1.74 2.29-2.81 2.69-1.07.4-2.17.26-3.32-.4a3.76 3.76 0 01-2-2.68c-.19-1.13.12-2.38.92-3.78l1.09-1.88zm1.12 3.58a4.25 4.25 0 00-.67 1.83c-.02.48.18.84.6 1.08.41.24.81.24 1.2.01a4.1 4.1 0 001.2-1.37l1.53-2.64c.45-.77.67-1.39.69-1.86.01-.47-.19-.83-.61-1.07-.41-.24-.81-.24-1.2 0s-.81.72-1.24 1.47l-1.5 2.55z"/>
    <path d="M744.14 824.24l-1.09 1.88-.11-.06a4.11 4.11 0 00-2.58-.63c-.82.1-1.52.49-2.09 1.17a3.23 3.23 0 012.5.38 3 3 0 011.57 2.22 4.6 4.6 0 01-.69 3.03 4.14 4.14 0 01-1.51 1.54c-.63.37-1.31.55-2.04.54a4.3 4.3 0 01-2.12-.6 4.49 4.49 0 01-1.68-1.64 3.9 3.9 0 01-.52-2.21c.04-.81.28-1.62.74-2.43l.55-.96a6.93 6.93 0 012.35-2.48 5.67 5.67 0 013.11-.87c1.13.01 2.21.31 3.24.9l.37.22zm-5.25 4.1a1.65 1.65 0 00-.92-.24c-.3.02-.56.11-.79.27l-.41.72c-.75 1.31-.68 2.22.22 2.74.37.21.76.22 1.2.04.43-.19.79-.53 1.07-1.02.29-.51.41-.99.34-1.46-.06-.46-.3-.81-.71-1.05z"/>
  </g>
  <g id="gray_dashes" fill="none" stroke="#000" stroke-linecap="round" stroke-width="1.68">
    <line x1="753.24" x2="746.64" y1="957.52" y2="946.09"/>
    <line x1="664.2" x2="670.8" y1="803.3" y2="814.73"/>
    <line x1="797.76" x2="784.56" y1="880.41" y2="880.41"/>
    <line x1="619.68" x2="632.88" y1="880.41" y2="880.41"/>
    <line x1="753.24" x2="746.64" y1="803.3" y2="814.73"/>
    <line x1="664.2" x2="670.8" y1="957.52" y2="946.09"/>
    <line x1="768.3" x2="763.22" y1="814.24" y2="819.89"/>
    <line x1="649.14" x2="654.23" y1="946.58" y2="940.93"/>
    <line x1="780.76" x2="774.61" y1="828.07" y2="832.54"/>
    <line x1="636.69" x2="642.84" y1="932.74" y2="928.28"/>
    <line x1="790.06" x2="783.12" y1="844.19" y2="847.28"/>
    <line x1="627.38" x2="634.32" y1="916.62" y2="913.53"/>
    <line x1="795.81" x2="788.38" y1="861.9" y2="863.48"/>
    <line x1="621.63" x2="629.06" y1="898.92" y2="897.34"/>
    <line x1="795.81" x2="788.38" y1="898.92" y2="897.34"/>
    <line x1="621.63" x2="629.06" y1="861.9" y2="863.48"/>
    <line x1="790.06" x2="783.12" y1="916.62" y2="913.53"/>
    <line x1="627.38" x2="634.32" y1="844.19" y2="847.28"/>
    <line x1="780.76" x2="774.61" y1="932.74" y2="928.28"/>
    <line x1="636.69" x2="642.84" y1="828.07" y2="832.54"/>
    <line x1="768.3" x2="763.22" y1="946.58" y2="940.93"/>
    <line x1="649.14" x2="654.23" y1="814.24" y2="819.89"/>
    <line x1="681.21" x2="683.56" y1="795.73" y2="802.95"/>
    <line x1="699.42" x2="700.21" y1="791.86" y2="799.41"/>
    <line x1="718.03" x2="717.24" y1="791.86" y2="799.41"/>
    <line x1="736.24" x2="733.89" y1="795.73" y2="802.95"/>
  </g>
  <g id="gray_arrow" transform="rotate(-150 708.719 880.397)">
    <circle cx="708.72" cy="880.4" r="9.28"/>
    <polygon points="706.06 903.7 711.38 903.7 709.28 800.09 708.16 800.09"/>
    <circle cx="708.72" cy="880.4" r="4.98" fill="#FFF"/>
  </g>
  <use x="588.723" y="760.408" xlink:href="#ring"/>
</g>

<g id="yellow_bar">
  <circle cx="1455.08" cy="434.67" r="101" fill="#FFFF63" fill-rule="evenodd" clip-rule="evenodd"/>
  <path fill="#FCB500" stroke="#B08010" stroke-width=".84" d="M1455.08 327.12c-59.4 0-107.56 48.15-107.56 107.56s48.15 107.56 107.56 107.56 107.56-48.15 107.56-107.56-48.16-107.56-107.56-107.56h0zm0 208.55c-55.78 0-101-45.22-101-101s45.22-101 101-101 101 45.22 101 101-45.22 101-101 101z"/>
  <g id="yellow_dashes" fill="none" stroke="#000" stroke-linecap="round" stroke-width="1.68">
    <path d="M1418.56 497.93l-8 13.85"/>
    <path d="M1397.85 502.88l4.88-5.82"/>
    <path d="M1386.87 491.9l5.82-4.88"/>
    <path d="M1377.97 479.19l6.58-3.8"/>
    <path d="M1371.41 465.12l7.14-2.59"/>
    <path d="M1367.39 450.13l15.76-2.78"/>
    <path d="M1366.04 434.67h7.6"/>
    <path d="M1367.39 419.21l7.49 1.32"/>
    <path d="M1371.41 404.22l7.14 2.6"/>
    <path d="M1377.97 390.15l6.58 3.8"/>
    <path d="M1386.87 377.44l12.26 10.28"/>
    <path d="M1397.85 366.46l4.88 5.82"/>
    <path d="M1410.56 357.56l3.8 6.58"/>
    <path d="M1424.63 351l2.59 7.14"/>
    <path d="M1439.62 346.99l1.32 7.48"/>
    <path d="M1455.08 345.63v16"/>
    <path d="M1470.54 346.99l-1.32 7.48"/>
    <path d="M1485.53 351l-2.6 7.14"/>
    <path d="M1499.6 357.56l-3.8 6.58"/>
    <path d="M1512.31 366.46l-4.88 5.82"/>
    <path d="M1523.29 377.44l-12.26 10.28"/>
    <path d="M1532.19 390.15l-6.58 3.8"/>
    <path d="M1538.75 404.22l-7.14 2.6"/>
    <path d="M1542.76 419.21l-7.48 1.32"/>
    <path d="M1544.12 434.67h-7.6"/>
    <path d="M1542.76 450.13l-15.75-2.78"/>
    <path d="M1538.75 465.12l-7.14-2.59"/>
    <path d="M1532.19 479.19l-6.58-3.8"/>
    <path d="M1523.29 491.9l-5.82-4.88"/>
    <path d="M1512.31 502.88l-4.88-5.82"/>
    <path d="M1499.6 511.78l-8-13.85"/>
  </g>
  <path id="yellow_ttl" d="M1456.8 516.24h-3.45l-.66 1.97h-2.09l3.56-9.56h1.82l3.58 9.56h-2.09l-.67-1.97zm-13.97 1.97v-9.56h3.35c1.16 0 2.04.22 2.64.67.6.44.9 1.09.9 1.95 0 .47-.12.88-.36 1.24s-.58.62-1 .78c.46.1.87.36 1.16.74.28.37.42.83.42 1.37 0 .92-.29 1.61-.88 2.09-.59.47-1.42.71-2.51.72h-3.72zm21.16-3.5h-1.57v3.5h-1.97v-9.56h3.55c1.13 0 2 .25 2.61.75s.92 1.21.92 2.13c0 .65-.14 1.2-.42 1.63-.28.44-.71.78-1.28 1.04l2.07 3.9v.09h-2.11l-1.8-3.48zm-19.19-.66v2.58h1.69c.46 0 .83-.11 1.09-.33s.39-.53.39-.92c0-.88-.45-1.32-1.36-1.33h-1.81zm9.08.59h2.39l-1.2-3.58-1.19 3.58zm8.55-4.4v2.87h1.58c.49 0 .88-.13 1.15-.38s.41-.6.41-1.04c0-.45-.13-.81-.38-1.06-.26-.26-.65-.39-1.18-.39h-1.58zm-17.63 2.42h1.46c.99-.02 1.49-.41 1.49-1.19 0-.43-.13-.74-.38-.94-.25-.19-.65-.29-1.19-.29h-1.38v2.42zm29.92-16.19c-.81-1.4-1.12-2.66-.92-3.78a3.8 3.8 0 012-2.67 3.81 3.81 0 013.33-.4c1.07.4 2.01 1.29 2.81 2.68l1.09 1.89c.81 1.4 1.11 2.66.92 3.78a3.75 3.75 0 01-2 2.67c-.98.64-2.21.79-3.32.4-1.07-.4-2.01-1.3-2.81-2.69l-1.1-1.88zm3.67.81c.43.74.85 1.24 1.25 1.5.41.25.82.26 1.24.02.41-.24.61-.58.6-1.03a4.06 4.06 0 00-.59-1.72l-1.53-2.64c-.3-.6-.74-1.12-1.27-1.53a1.1 1.1 0 00-1.23 0c-.39.2-.62.61-.6 1.04.01.46.22 1.06.65 1.81l1.48 2.55zm-58.58-9.83c.81-1.4 1.74-2.29 2.81-2.69a3.77 3.77 0 013.31.39 3.78 3.78 0 012.01 2.69c.19 1.13-.12 2.38-.92 3.77l-1.09 1.89c-.81 1.4-1.74 2.29-2.81 2.69-1.06.4-2.17.26-3.32-.4a3.75 3.75 0 01-2-2.68c-.19-1.13.12-2.39.92-3.78l1.09-1.88zm63.34 4.15c-.81-1.4-1.12-2.66-.93-3.78a3.75 3.75 0 012-2.67 3.81 3.81 0 013.33-.4c1.07.4 2.01 1.29 2.81 2.68l1.09 1.89c.81 1.4 1.12 2.66.92 3.78a3.75 3.75 0 01-2 2.67c-.98.64-2.21.79-3.32.4-1.07-.4-2.01-1.29-2.81-2.69l-1.09-1.88zm3.66.82c.43.74.85 1.24 1.25 1.5.41.26.82.26 1.24.02.41-.24.61-.58.6-1.03a4.06 4.06 0 00-.59-1.72l-1.53-2.64c-.3-.6-.74-1.12-1.27-1.53a1.1 1.1 0 00-1.23 0c-.39.2-.62.61-.6 1.04.01.46.22 1.06.65 1.81l1.48 2.55zm-65.88-1.4a4.31 4.31 0 00-.67 1.83c-.02.48.19.84.61 1.08.41.24.81.24 1.19.01.5-.36.91-.83 1.2-1.37l1.53-2.64c.45-.77.67-1.39.69-1.86.01-.47-.19-.83-.61-1.07a1.09 1.09 0 00-1.2 0c-.4.24-.81.72-1.24 1.47l-1.5 2.55zm76.76-5.22l-1.13.65c-.9.52-1.09 1.21-.58 2.09.2.34.46.56.8.65.34.09.7.03 1.09-.2.32-.18.54-.44.67-.75a.97.97 0 00-.05-.89l2.39-1.38c.31.54.44 1.12.39 1.72a3.63 3.63 0 01-.68 1.73 4.84 4.84 0 01-1.57 1.38c-.94.61-2.06.89-3.17.78a3.03 3.03 0 01-2.24-1.6 2.53 2.53 0 01-.32-1.5c.04-.55.26-1.1.63-1.65-.66.12-1.27.06-1.82-.16a2.8 2.8 0 01-1.34-1.23 3.11 3.11 0 01-.21-2.83 5.1 5.1 0 012.32-2.45 5.32 5.32 0 012.11-.7c.73-.08 1.38.03 1.94.31s1.01.72 1.35 1.3l-2.41 1.39c-.18-.32-.5-.54-.86-.6-.4-.08-.81-.01-1.15.2-.42.24-.69.56-.81.94-.12.38-.07.75.14 1.11.3.52.64.82 1.03.88.39.07.81-.03 1.27-.3l1.17-.67 1.04 1.78zm-63.57-12.81a7.71 7.71 0 01-.65 3.25 4.92 4.92 0 01-4.66 2.91 5.03 5.03 0 01-4.68-2.89c-.46-1-.7-2.1-.68-3.2v-.62c0-1.23.22-2.32.67-3.26a4.95 4.95 0 014.68-2.91c2-.07 3.86 1.08 4.68 2.91.44.94.67 2.02.67 3.25v.56h-.03zm11.37 1.7c0 1.37-.43 2.46-1.29 3.26-.86.8-2.03 1.2-3.52 1.2a5.04 5.04 0 01-3.49-1.16 4.2 4.2 0 01-1.32-3.2v-8.35h2.58v8.28c0 .82.2 1.42.59 1.8.39.38.94.56 1.63.56 1.45 0 2.19-.76 2.21-2.29v-8.35h2.61v8.25zm15.62 2.21h5.49v2.08h-8.07v-12.54h2.58v10.46zm14.51-3.36h-4.96v3.36h5.82v2.08h-8.41v-12.54h8.39v2.09h-5.8v2.99h4.96v2.02zm-18.57-5.02h-3.84v10.45h-2.58v-10.45h-3.79v-2.09h10.21v2.09zm30.56 0h-3.84v10.45h-2.58v-10.45h-3.79v-2.09h10.21v2.09zm-56.1 3.9c0-1.31-.24-2.31-.71-3a2.3 2.3 0 00-2.02-1.02c-.87 0-1.54.34-2.01 1.01-.53.9-.78 1.93-.71 2.97v.61c0 1.28.24 2.27.71 2.98.44.69 1.21 1.1 2.03 1.06.87 0 1.53-.34 2-1.02s.7-1.67.71-2.98v-.61zm83.53-13.08c-1.59-.28-2.75-.85-3.49-1.72a3.74 3.74 0 01-.76-3.25 3.8 3.8 0 011.83-2.81c1-.56 2.28-.71 3.86-.43l2.15.38c1.59.28 2.75.85 3.49 1.72s.99 1.95.76 3.25a3.78 3.78 0 01-1.83 2.8c-.99.56-2.28.71-3.87.43l-2.14-.37zm2.98-2.28c.85.15 1.5.15 1.95 0 .46-.15.73-.46.81-.94.08-.47-.05-.84-.4-1.12s-.92-.5-1.7-.65l-3-.53a4.32 4.32 0 00-1.99-.01c-.43.12-.74.5-.79.94-.08.46.06.84.41 1.13.36.29.96.51 1.8.67l2.91.51zm-124.73-2.52l-6.14.34-1.21-6.88 2.12-.37.82 4.66 2.38-.15a3.64 3.64 0 01-.72-1.61c-.21-1.17-.02-2.13.56-2.88a4.32 4.32 0 012.75-1.46 4.44 4.44 0 012.14.14c.67.23 1.22.62 1.66 1.17.44.55.73 1.24.87 2.07.13.74.1 1.46-.09 2.16s-.52 1.28-.98 1.74c-.47.46-1.03.75-1.7.86l-.48-2.73c.42-.1.74-.3.95-.59s.28-.64.21-1.04c-.16-.92-.92-1.25-2.27-1.02-1.25.22-1.78.89-1.58 2.01.11.64.4 1.07.86 1.31l-.15 2.27zm125.79-12.62l5.89 1.78-1.21 6.88-2.12-.37.82-4.66-2.29-.68c.19.57.24 1.18.14 1.77-.21 1.17-.71 2.01-1.51 2.51s-1.83.65-3.08.43a4.1 4.1 0 01-1.96-.87 3.5 3.5 0 01-1.16-1.67c-.41-1.45-.15-3 .71-4.24.42-.59.92-1.03 1.52-1.3s1.23-.35 1.89-.22l-.48 2.73c-.44-.05-.8.03-1.1.23-.3.2-.48.51-.55.91-.16.92.43 1.49 1.79 1.73 1.25.22 1.98-.23 2.18-1.35.11-.64-.01-1.15-.36-1.53l.88-2.08zm-127.95-5.14c1.59-.28 2.88-.14 3.86.42.99.56 1.6 1.49 1.82 2.79a3.78 3.78 0 01-.76 3.27c-.74.87-1.9 1.44-3.48 1.72l-2.15.38c-1.59.28-2.88.14-3.87-.42a3.74 3.74 0 01-1.83-2.8c-.23-1.3.03-2.39.77-3.26s1.9-1.44 3.49-1.72l2.15-.38zm-2.01 3.17c-.66.08-1.29.3-1.84.67-.38.29-.52.68-.44 1.16.08.47.34.78.76.92s1.03.16 1.82.03l3-.53c.88-.15 1.5-.38 1.87-.67s.51-.68.42-1.16a1.11 1.11 0 00-.77-.92 4.02 4.02 0 00-1.92-.01l-2.9.51zm124.49-.58l1.45-8.21 1.78.31 3.31 4.48c.9 1.12 1.66 1.73 2.28 1.84.51.09.91.05 1.21-.13.3-.17.49-.47.57-.89.08-.4-.05-.82-.35-1.1a2.22 2.22 0 00-1.25-.62l.48-2.73c.72.13 1.36.43 1.9.89.55.46.95 1.08 1.17 1.76.23.7.28 1.45.14 2.24a4.39 4.39 0 01-1.4 2.78c-.71.58-1.61.78-2.71.58-.46-.08-.9-.25-1.31-.5s-.82-.6-1.24-1.05c-.42-.45-.96-1.15-1.62-2.1l-1.49-1.83-.82 4.63-2.1-.35zm-1.08-34.78c-1.24 1.04-2.42 1.56-3.56 1.57a3.74 3.74 0 01-2.97-1.5 3.76 3.76 0 01-.97-3.21 5.7 5.7 0 012.15-3.23l1.67-1.4c1.24-1.04 2.42-1.56 3.56-1.57s2.13.5 2.98 1.51c.8.86 1.16 2.05.97 3.21-.21 1.12-.93 2.2-2.16 3.24l-1.67 1.38zm-107.21-1.57l-1.78 2.12-6.76-5.67-1.14 2.6-1.61-1.35 1.98-5.18.16-.19 9.15 7.67zm107.37-2.17c.53-.39.96-.9 1.26-1.49.18-.44.11-.85-.2-1.23-.31-.36-.68-.5-1.12-.42-.44.09-.97.38-1.59.88l-2.34 1.96c-.54.4-.98.92-1.28 1.52-.17.44-.1.84.21 1.21.3.36.68.5 1.13.41.62-.18 1.2-.51 1.67-.95l2.26-1.89zm-6.42-3.71c-1.24 1.04-2.42 1.56-3.56 1.57a3.74 3.74 0 01-2.97-1.5 3.76 3.76 0 01-.97-3.21 5.7 5.7 0 012.15-3.23l1.67-1.4c1.24-1.04 2.42-1.56 3.56-1.57s2.13.5 2.98 1.51c.8.86 1.16 2.05.97 3.21-.21 1.12-.93 2.2-2.16 3.24l-1.67 1.38zm-97.04-6.37c1.24 1.04 1.96 2.11 2.16 3.23a3.81 3.81 0 01-.96 3.19 3.71 3.71 0 01-2.99 1.51c-1.14-.01-2.33-.53-3.55-1.56l-1.67-1.4c-1.24-1.04-1.96-2.11-2.16-3.23a3.8 3.8 0 01.97-3.2 3.78 3.78 0 012.99-1.51c1.14.01 2.33.53 3.56 1.56l1.65 1.41zm-3.72.49a4.3 4.3 0 00-1.69-.98c-.47-.1-.86.04-1.17.41-.31.36-.38.76-.21 1.17s.54.89 1.15 1.42l2.34 1.96c.68.57 1.25.91 1.71 1s.85-.05 1.16-.42c.3-.36.37-.76.21-1.19a4.2 4.2 0 00-1.23-1.48l-2.27-1.89zm100.93 2.13c.53-.39.96-.9 1.26-1.49.18-.44.11-.85-.2-1.23-.31-.36-.68-.5-1.12-.42-.44.09-.97.38-1.59.88l-2.34 1.96c-.54.4-.98.92-1.28 1.52-.17.44-.1.84.21 1.21.3.36.68.5 1.13.41.62-.18 1.2-.51 1.67-.95l2.26-1.89zm-10.13-.53l-5.36-6.38 1.38-1.16 5.56.35c1.43.03 2.39-.16 2.88-.56.39-.33.62-.67.68-1.01s-.05-.68-.32-1.01a1.22 1.22 0 00-1.07-.44c-.44.03-.87.22-1.28.56l-1.78-2.12a3.9 3.9 0 014.01-.65c.69.27 1.29.72 1.8 1.33a4.44 4.44 0 011.23 2.86c-.01.92-.44 1.73-1.29 2.45-.36.3-.77.53-1.22.68s-.99.24-1.6.28c-.61.03-1.5 0-2.65-.1l-2.35-.04 3.02 3.6-1.64 1.36zm-80.83-9.54c1.24 1.04 1.96 2.11 2.16 3.23a3.81 3.81 0 01-.96 3.19 3.75 3.75 0 01-3 1.51c-1.14-.01-2.33-.53-3.55-1.56l-1.67-1.4c-1.24-1.04-1.96-2.11-2.16-3.23a3.8 3.8 0 01.97-3.2 3.71 3.71 0 012.99-1.51c1.14.01 2.33.53 3.56 1.56l1.66 1.41zm-3.72.49a4.3 4.3 0 00-1.69-.98c-.47-.1-.86.04-1.17.41-.31.36-.38.76-.21 1.17s.54.89 1.15 1.42l2.34 1.96c.68.57 1.25.91 1.72 1 .46.09.85-.05 1.16-.42.3-.36.37-.76.21-1.19a4.2 4.2 0 00-1.23-1.48l-2.28-1.89zm39.35-13.43l.73-6.11h6.98v2.15h-4.73l-.27 2.37c.2-.12.46-.22.77-.3.32-.09.63-.13.94-.13 1.19 0 2.1.35 2.74 1.05.64.7.96 1.69.96 2.96 0 .77-.17 1.46-.51 2.08s-.82 1.1-1.44 1.43c-.68.35-1.43.52-2.19.5-.75 0-1.45-.15-2.11-.46a3.73 3.73 0 01-1.54-1.27 3.12 3.12 0 01-.55-1.82h2.77c.03.44.17.78.42 1.04s.58.38.99.38c.93 0 1.39-.69 1.39-2.06 0-1.27-.57-1.91-1.71-1.91-.65 0-1.13.21-1.44.62l-2.2-.52zm17.85.95c0 1.61-.36 2.86-1.09 3.73a3.76 3.76 0 01-3.06 1.31 3.74 3.74 0 01-3.08-1.32c-.73-.88-1.09-2.12-1.09-3.72v-2.18c0-1.61.36-2.86 1.09-3.73a3.8 3.8 0 013.07-1.31c1.32 0 2.35.44 3.08 1.32s1.09 2.12 1.09 3.73l-.01 2.17zm-21.62 4.88h-2.77v-8.83l-2.72.8v-2.1l5.24-1.81h.25v11.94zm18.86-7.41c0-.86-.11-1.5-.34-1.92-.2-.41-.62-.66-1.07-.64-.48 0-.82.2-1.04.59a4.06 4.06 0 00-.35 1.79v3.05c0 .89.11 1.54.34 1.96.22.41.58.62 1.07.62.47 0 .82-.2 1.04-.6.22-.4.34-1.03.34-1.89v-2.96h.01z"/>
  <g id="yellow_arrow" transform="rotate(-150 1455.102 434.729)">
    <circle cx="1455.08" cy="434.68" r="9.28"/>
    <polygon points="1452.43 457.98 1457.74 457.98 1455.65 354.37 1454.52 354.37"/>
    <circle cx="1455.08" cy="434.68" r="4.98" fill="#FFFF63"/>
  </g>
  <a id="yb_left" class="bttn" href="javascript:;">
      <use x="1365" y="280" xlink:href="#bttn_l"/>
    </a>
    <a id="yb_right" class="bttn" href="javascript:;">
      <use x="1462" y="280" xlink:href="#bttn_r"/>
    </a>
  <use x="1335.102" y="314.693" xlink:href="#ring"/>
</g>

<g id="white_bar">
  <circle cx="1748.03" cy="763.27" r="101" fill="#FFF" fill-rule="evenodd" clip-rule="evenodd"/>
  <path fill="#696969" stroke="#383838" stroke-width=".84" d="M1748.03 655.72c-59.4 0-107.56 48.15-107.56 107.56 0 59.4 48.15 107.56 107.56 107.56s107.56-48.15 107.56-107.56c-.01-59.41-48.16-107.56-107.56-107.56zm0 208.55c-55.78 0-101-45.22-101-101s45.22-101 101-101 101 45.22 101 101-45.22 101-101 101z"/>
  <g id="white_dashes" fill="none" stroke="#000" stroke-linecap="round" stroke-width="1.68">
    <path d="M1792.55 840.38l-6.6-11.43"/>
    <path d="M1703.51 686.16l6.6 11.43"/>
    <path d="M1816.23 820.5l-5.82-4.88"/>
    <path d="M1679.82 706.04l5.82 4.88"/>
    <path d="M1831.7 793.72l-7.14-2.59"/>
    <path d="M1664.36 732.82l7.14 2.6"/>
    <path d="M1837.07 763.27h-13.2"/>
    <path d="M1658.99 763.27h13.2"/>
    <path d="M1831.7 732.82l-7.14 2.6"/>
    <path d="M1664.36 793.72l7.14-2.59"/>
    <path d="M1816.23 706.04l-5.82 4.88"/>
    <path d="M1679.82 820.5l5.82-4.88"/>
    <path d="M1792.55 686.16l-6.6 11.43"/>
    <path d="M1703.51 840.38l6.6-11.43"/>
    <path d="M1763.49 675.59l-1.32 7.48"/>
    <path d="M1732.57 675.59l1.32 7.48"/>
  </g>
  <path id="white_ttl" d="M1746.01 843.46v3.36h-1.96v-9.53h3.71c.72 0 1.35.13 1.9.4a2.91 2.91 0 011.68 2.76c0 .93-.32 1.67-.96 2.2-.63.54-1.52.81-2.65.81h-1.72zm7.55 3.36v-9.53h2.94c.83 0 1.58.2 2.24.57.66.38 1.18.91 1.55 1.6.37.7.56 1.5.56 2.38v.44c0 .88-.19 1.67-.55 2.36a3.9 3.9 0 01-1.54 1.6c-.66.38-1.41.58-2.24.58h-2.96zm-15.68-1.58h4.17v1.58h-6.13v-9.53h1.96v7.95zm17.65-6.36v6.36h.95c.76 0 1.35-.25 1.76-.75.4-.5.6-1.22.62-2.15v-.5c0-.97-.2-1.7-.6-2.2s-1-.76-1.76-.76h-.97zm-9.52 3h1.75c.52 0 .92-.13 1.2-.37.26-.25.4-.6.4-1.05 0-.47-.14-.84-.41-1.13-.3-.3-.71-.46-1.14-.45h-1.8v3zm23.75-22.93c-.81-1.4-1.12-2.66-.93-3.78a3.75 3.75 0 012-2.67 3.78 3.78 0 013.33-.4c1.07.4 2 1.29 2.8 2.68l1.1 1.89c.8 1.4 1.12 2.66.93 3.78a3.75 3.75 0 01-2 2.67c-.98.64-2.21.79-3.32.39-1.07-.4-2.01-1.29-2.81-2.69l-1.1-1.87zm3.66.81c.43.74.85 1.24 1.25 1.5.4.25.82.26 1.24.02.4-.24.6-.58.6-1.03a4.07 4.07 0 00-.6-1.72l-1.52-2.64c-.3-.6-.74-1.12-1.27-1.53a1.1 1.1 0 00-1.23 0c-.39.2-.62.61-.6 1.04 0 .46.22 1.06.65 1.81l1.48 2.55zm-58.54-7.4c.8-1.4 1.74-2.29 2.8-2.69a3.72 3.72 0 013.32.4 3.76 3.76 0 012 2.69c.2 1.13-.11 2.38-.91 3.77l-1.1 1.89c-.8 1.4-1.73 2.29-2.8 2.69-1.06.4-2.17.26-3.32-.4a3.75 3.75 0 01-2-2.68c-.2-1.13.12-2.39.92-3.78l1.09-1.89zm68.32 7.18l-1.1-1.88.12-.06a4.06 4.06 0 001.83-1.92c.33-.76.34-1.56.03-2.4-.23.84-.76 1.5-1.6 1.98-.88.52-1.8.6-2.7.25a4.57 4.57 0 01-2.27-2.11 4.23 4.23 0 01-.58-2.08c-.01-.73.18-1.41.56-2.04s.9-1.14 1.58-1.53a4.38 4.38 0 012.26-.63c.77 0 1.5.22 2.18.65a5.35 5.35 0 011.74 1.86l.55.96c.62 1.07.94 2.16.97 3.27a5.74 5.74 0 01-.8 3.13 6.52 6.52 0 01-2.4 2.35l-.37.2zm-67.2-3.6a4.31 4.31 0 00-.67 1.83c-.02.48.18.84.6 1.08.42.24.82.24 1.2.01.5-.36.91-.83 1.2-1.37l1.53-2.64c.45-.77.67-1.39.69-1.86 0-.47-.2-.83-.61-1.07a1.09 1.09 0 00-1.2 0c-.4.24-.81.72-1.24 1.46l-1.5 2.56zm66.27-2.99c.55-.29.88-.88.83-1.5l-.41-.72c-.75-1.31-1.58-1.7-2.5-1.18-.36.21-.57.55-.62 1.02-.06.47.06.95.34 1.44.29.51.66.85 1.09 1.02.44.18.86.15 1.27-.08zm-27.3-14.72a7.55 7.55 0 01-.64 3.25 4.92 4.92 0 01-4.66 2.91 4.95 4.95 0 01-4.68-2.89c-.46-1-.7-2.1-.68-3.2v-.62c0-1.24.22-2.32.67-3.26a4.95 4.95 0 014.68-2.91c2-.05 3.84 1.09 4.68 2.91.44.94.67 2.02.67 3.25v.56h-.04zm11.65 2.37l1.69-8.92h2.58l-2.78 12.54h-2.6l-2.04-8.39-2.04 8.39h-2.6l-2.78-12.54h2.58l1.7 8.91 2.07-8.91h2.19l2.03 8.92zm-28.36 1.54h5.49v2.08h-8.07v-12.54h2.58v10.46zm-4.7-3.05h-4.97v5.12h-2.58v-12.54h8.17v2.09h-5.58V797h4.96v2.09zm18.8-1.43c0-1.31-.24-2.31-.71-3a2.32 2.32 0 00-2.02-1.03c-.87 0-1.54.34-2.01 1.01-.53.9-.78 1.93-.71 2.97v.61c0 1.28.24 2.27.7 2.98a2.3 2.3 0 002.04 1.06c.87 0 1.53-.34 2-1.02.46-.68.7-1.67.7-2.98v-.6h.01zm58.63-25.61c-.58 0-1.1-.14-1.53-.43-.44-.29-.8-.68-1.07-1.18a3.47 3.47 0 01-1.14 1.35c-.48.33-1.06.5-1.72.5-.97.04-1.9-.36-2.53-1.1a4.62 4.62 0 01-.93-3.04c0-1.3.3-2.32.93-3.07a3.1 3.1 0 012.52-1.12 3 3 0 011.7.49c.49.33.88.79 1.17 1.39.27-.51.62-.91 1.07-1.2.45-.29.95-.43 1.53-.43 1.04 0 1.86.35 2.46 1.06s.9 1.66.9 2.85c0 1.21-.3 2.17-.9 2.87s-1.42 1.06-2.46 1.06zm-117.18-5.92v2.77h-8.83l.79 2.72h-2.1l-1.81-5.24v-.25h11.95zm111.94 3.38c.49 0 .87-.13 1.14-.38.26-.25.4-.59.4-1 0-.42-.13-.75-.4-1.01s-.64-.39-1.14-.39c-.48 0-.85.13-1.13.39s-.41.6-.41 1.02c0 .41.14.74.4.99.28.26.66.38 1.14.38zm6.47-1.39c0-.37-.12-.66-.37-.85a1.58 1.58 0 00-1.01-.29c-.43 0-.77.1-1.03.3s-.4.49-.4.87.14.66.4.85.6.28 1.03.28.76-.1 1-.29c.26-.19.38-.49.38-.87zm-118.41-13.93v8.34h-1.8l-4.04-3.84c-1.08-.95-1.93-1.42-2.57-1.42-.51 0-.91.11-1.17.34-.27.22-.4.55-.4.98 0 .42.18.76.54 1.03.36.26.8.39 1.34.39v2.77a3.91 3.91 0 01-3.5-2.08 4.58 4.58 0 01-.52-2.18c0-1.29.3-2.29.89-2.98.6-.7 1.45-1.05 2.57-1.05.47 0 .93.09 1.37.26s.9.45 1.4.82c.49.37 1.14.96 1.96 1.78l1.78 1.54v-4.7h2.15zm113.09 7.37v1.21h-2.13v-1.21h-2.54v-2.76h2.54v-4.62l1.69-.16 7.69 4.78h.02v2.76h-7.27zm0-4.91v2.15h3.67l-.28-.17-3.4-1.98h.01zm-86.56-40.01l-7.22 4.17-.9-1.56 1.3-5.42c.29-1.41.27-2.38-.04-2.93-.26-.45-.55-.73-.88-.85s-.68-.07-1.05.14c-.36.21-.57.54-.62.98s.06.89.33 1.36l-2.4 1.39a3.9 3.9 0 01.05-4.05c.39-.63.93-1.14 1.63-1.55a4.5 4.5 0 013.03-.72c.9.17 1.63.74 2.19 1.7.24.41.39.85.46 1.32.07.47.07 1.01 0 1.62-.08.61-.26 1.47-.56 2.59l-.45 2.31 4.07-2.35 1.06 1.85zm67.26-7.12l-1.1 1.88-.1-.06a4.12 4.12 0 00-2.58-.63 3.2 3.2 0 00-2.1 1.17 3.19 3.19 0 012.5.39 3 3 0 011.58 2.21 4.62 4.62 0 01-.7 3.03 4.1 4.1 0 01-1.5 1.54c-.63.37-1.31.55-2.04.54a4.26 4.26 0 01-2.12-.6 4.48 4.48 0 01-1.68-1.64 4.06 4.06 0 01-.52-2.21c.04-.81.28-1.62.74-2.43l.55-.96a6.95 6.95 0 012.34-2.48c.93-.58 2-.89 3.1-.87 1.14.01 2.22.31 3.25.9l.38.22zm-5.24 4.11c-.28-.17-.6-.25-.92-.24-.3.02-.56.11-.8.27l-.4.72c-.75 1.31-.68 2.22.23 2.74.37.21.76.22 1.2.04.43-.19.79-.53 1.07-1.02.29-.51.4-.99.34-1.46a1.35 1.35 0 00-.72-1.05zm-9.27-6.73l1.13.65c.9.52 1.6.34 2.1-.54.2-.34.25-.68.16-1.02a1.36 1.36 0 00-.72-.84c-.3-.18-.65-.25-1-.2a.96.96 0 00-.74.49l-2.4-1.38c.32-.54.76-.94 1.3-1.19a3.45 3.45 0 011.85-.27c.68.07 1.33.29 1.98.66 1 .5 1.8 1.34 2.26 2.36.35.91.27 1.82-.26 2.74-.26.45-.64.79-1.14 1.02a3.4 3.4 0 01-1.75.28c.43.52.69 1.07.77 1.65.07.62-.07 1.24-.4 1.77a3.08 3.08 0 01-2.35 1.6 5.12 5.12 0 01-3.28-.79 5.23 5.23 0 01-1.66-1.48 3.5 3.5 0 01-.7-1.83c-.04-.62.12-1.24.45-1.82l2.4 1.39c-.17.32-.2.67-.08 1.05s.37.68.74.89c.42.24.83.32 1.2.23.4-.09.69-.32.9-.68.3-.52.38-.97.25-1.33a1.9 1.9 0 00-.9-.95l-1.15-.67 1.04-1.79zm-47.55 1.35l1.05-.61 1.07 1.85-1.05.61 1.27 2.2-2.4 1.38-1.26-2.2-4 2.31-1-1.38.3-9.05-.01-.02 2.39-1.38 3.64 6.29zm-4.26 2.46l1.86-1.07-1.84-3.18-.01.33-.01 3.92z"/>
  <g id="white_arrow" transform="rotate(-150 1748.044 763.201)">
    <circle cx="1748.03" cy="763.27" r="9.28"/>
    <polygon points="1745.38 786.57 1750.7 786.57 1748.6 682.96 1747.48 682.96"/>
    <circle cx="1748.03" cy="763.27" r="4.98" fill="#FFF"/>
  </g>
  <use x="1628.024" y="643.327" xlink:href="#ring"/>
</g>

<g id="toggle">
  <line fill="none" stroke="#000" stroke-linecap="round" stroke-linejoin="round" stroke-miterlimit="10" stroke-width="5.6" x1="1142.66" x2="1142.66" y1="481.04" y2="498"/>
  <circle cx="1143.4" cy="408.4" r="62.4" fill="#474644"/>
  <circle cx="1143.4" cy="408.4" r="55.6" fill="#2E2D2C"/>
  <circle cx="1143.4" cy="408.4" r="49.4" fill="#7D7876"/>
  <path fill="#B3B3B3" d="M1095.7 408.4c0-27 21.7-49 48.6-49.4h-.9a49.4 49.4 0 100 98.8h.9a49.4 49.4 0 01-48.6-49.4z"/>
  <path d="M1143.4 359h-.7a49.4 49.4 0 010 98.8h.7a49.4 49.4 0 100-98.8z"/>
  <path fill="url(#pipe_grd5)" id="toggle_arrow" d="M1230.8 425.1s2-6.3 2-16.7c0-9-2-16.7-2-16.7H1056s-2 6.4-2 16.7 2 16.7 2 16.7h174.8z"/>
  <a id="tgl_left" class="bttn" href="javascript:;">
    <use x="1053.825" y="280" xlink:href="#bttn_l"/>
  </a>
  <a id="tgl_right" class="bttn" href="javascript:;">
    <use x="1150.833" y="280" xlink:href="#bttn_r"/>
  </a>
</g>

<g id="surface" class="">
  <rect width="18.78" height="10" x="383.02" y="641.89" fill="url(#pipe_grd2)"/>
  <rect width="18.78" height="10" x="590.68" y="641.89" fill="url(#pipe_grd2)"/>
  <path fill="url(#pipe_grd4)" d="M405.13 642.7V475.3h-26v167.4s5.02 1 13 1c7.99 0 13-1 13-1z"/>
  <path fill="url(#pipe_grd4)" d="M612.79 642.7V475.3h-26v167.4s5.02 1 13 1 13-1 13-1z"/>
  <path fill="url(#pipe_grd5)" d="M424.14 474.97h-45l26 26h19s1-5.02 1-13-1-13-1-13z"/>
  <path fill="url(#pipe_grd5)" d="M567.79 474.97h45l-26 26h-19s-1-5.02-1-13 1-13 1-13z"/>
  <g fill="none" stroke="#000" stroke-linecap="round" stroke-linejoin="round" stroke-miterlimit="10" stroke-width="5.6">
    <line x1="512.53" x2="521.28" y1="501.32" y2="474.61"/>
    <line x1="530.03" x2="521.28" y1="501.32" y2="474.61"/>
    <line x1="530.03" x2="538.78" y1="501.32" y2="474.61"/>
    <circle cx="1237.3" cy="768.83" r="22.93"/>
    <polyline points="1219.46 797 1191.62 769.17 1219.46 741.33"/>
    <rect width="141.65" height="66.29" x="425.14" y="454.82"/>
    <rect width="12.57" height="66.29" x="499.96" y="454.82"/>
    <line x1="431.79" x2="490.82" y1="573.31" y2="588.07"/>
    <line x1="431.79" x2="490.82" y1="602.83" y2="588.07"/>
    <line x1="461.31" x2="461.31" y1="573.31" y2="661.87"/>
    <path d="M488.13 674.18l-23.18 35.71a4.34 4.34 0 01-7.27 0l-23.18-35.71"/>
    <rect width="59.03" height="27.62" x="431.79" y="545.69"/>
    <polyline points="431.79 602.83 490.82 617.59 431.79 617.59"/>
    <rect width="52.91" height="52.91" x="236.21" y="657.85" transform="rotate(45 262.67 684.3)"/>
    <line x1="262.66" x2="262.66" y1="646.89" y2="721.72"/>
  </g>
  <path d="M459.45 693.52l-21.26-32.75a3.7 3.7 0 013.1-5.71h40.03a3.7 3.7 0 013.1 5.71l-21.26 32.75a2.2 2.2 0 01-3.71 0z"/>
  <g stroke="#000" stroke-linecap="round" stroke-linejoin="round" stroke-miterlimit="10" stroke-width="3">
    <circle cx="640.7" cy="588.36" r="21" fill="#FFF"/>
    <line x1="640.7" x2="640.7" y1="609.36" y2="651.89" fill="none"/>
    <circle cx="107.7" cy="588.36" r="21" fill="#FFF"/>
    <line x1="107.7" x2="107.7" y1="609.36" y2="651.89" fill="none"/>
    <circle cx="857.92" cy="588.36" r="21" fill="#FFF"/>
    <line x1="857.92" x2="857.92" y1="609.36" y2="651.89" fill="none"/>
    <circle cx="1550.98" cy="672.59" r="21" fill="#FFF"/>
    <line x1="1550.98" x2="1550.98" y1="693.59" y2="736.13" fill="none"/>
  </g>
  <g id="surface_labels">
    <text x="640.459" y="595.62">P1</text>
    <text x="857.535" y="595.62">P2</text>
    <text x="1551" y="680">P3</text>
    <text x="107.75" y="595.62">P4</text>
  </g>
  <g stroke-dasharray="30 20" fill="none" stroke-linecap="round" stroke-linejoin="round" stroke-miterlimit="10" stroke-width="4">
    <polyline stroke="#BC0000" points="392.13 643.7 392.13 488.21 425.14 488.21"/>
    <polyline stroke="#BC0000" points="599.79 643.7 599.79 487.75 566.79 487.75"/>
  </g>
  <g id="popup_flow_meter" class="popup_box invis">
    <path fill="#FFF" d="M77.01 866.93h250.11a22.18 22.18 0 0022.17-22.17v-54.22a22.18 22.18 0 00-22.17-22.17h-23.23l121.24-247.26-159.24 247.26H77.01a22.18 22.18 0 00-22.17 22.17v54.22a22.18 22.18 0 0022.17 22.17z" opacity=".5"/>
    <text x="202" y="813.122">
      Positive displacement
      <tspan x="202" dy="32">flow meter</tspan>
    </text>
    <a id="popup_flow_meter_close" class="bttn_close" href="javascript:;">
      <use x="355" y="762" xlink:href="#popup_close"/>
    </a>
  </g>
</g>

<g id="valve">
<g fill="none" stroke="#000" stroke-linecap="round" stroke-linejoin="round" stroke-miterlimit="10" stroke-width="5.6">
  <path id="valve_top" transform="translate(0 20)" d="M712.46 641.92a68 68 0 0048.19 19.95 68 68 0 0048.19-19.95"/>
  <path id="valve_bottom" transform="translate(0 -20)" d="M712.46 726.7a68 68 0 0148.19-19.95 68 68 0 0148.19 19.95"/>
  <line x1="737.47" x2="783.85" y1="736.25" y2="629.5"/>
  <polyline points="788.11 641.11 783.85 629.5 772.6 634.64"/>
  <polyline id="valve_line" transform="translate(0 20)" stroke-dasharray="30 20" stroke-dashoffset="10" points="957.43 630.91 1142.66 630.91 1142.66 501.44 760.66 501.44 760.66 660"/>
  <g id="spring">
    <line id="spring_1" x1="932.43" x2="982.43" y1="576" y2="597"/>
    <line id="spring_2" x1="932.43" x2="982.43" y1="618" y2="597"/>
    <line id="spring_3" x1="932.43" x2="982.43" y1="618" y2="639"/>
    <line id="spring_4" x1="957.43" x2="982.43" y1="650" y2="639"/>
  </g>
</g>

<g id="valve_body">
  <g fill="none" stroke="#000" stroke-linecap="round" stroke-linejoin="round" stroke-miterlimit="10" stroke-width="5.6">
    <line x1="957.43" x2="957.43" y1="575.42" y2="730.89"/>
    <path d="M912.51 575.42a47.49 47.49 0 1194.98 0h-94.98z"/>
  </g>
  <path d="M955.3 749.92l-13.81-21.28a2.55 2.55 0 012.14-3.94h27.63a2.55 2.55 0 012.14 3.94l-13.81 21.28a2.56 2.56 0 01-4.29 0z"/>
</g>
</g>

<g id="popup_warn" class="popup_box invis">
  <path fill="#FFF" stroke="#C72B2B" stroke-width="3" d="M1855.83 554.69h-257.88a12.23 12.23 0 01-12.19-12.19V262.99c0-6.71 5.49-12.19 12.19-12.19h257.88c6.71 0 12.19 5.49 12.19 12.19V542.5c0 6.71-5.48 12.19-12.19 12.19z" opacity=".5"/>
  <path fill="#C72B2B" stroke="#FFF" stroke-linecap="round" stroke-width="2" d="M1720.21 271.56a6 6 0 0110.72 0l25.89 51.78a6.03 6.03 0 01-5.37 8.68s0 0 0 0h-51.77s0 0 0 0a6.03 6.03 0 01-5.37-8.68l25.9-51.78h0z"/>
  <path fill="#FFF" d="M1729.1 310.83h-6.93l-1.1-25.26h9.12l-1.09 25.26zm-8.28 7.87c0-1.25.45-2.28 1.36-3.08.9-.8 2.04-1.21 3.39-1.21s2.48.4 3.39 1.2c.9.81 1.36 1.84 1.36 3.1 0 1.24-.45 2.27-1.36 3.08-.9.8-2.04 1.2-3.39 1.2s-2.48-.4-3.39-1.2a3.96 3.96 0 01-1.36-3.09z"/>
  <text x="1725.568" y="365.463">
    Pressure drop across
    <tspan x="1725.568" dy="32">valve is below</tspan>
    <tspan x="1725.568" dy="32">specifications -</tspan>
    <tspan x="1725.568" dy="32">please increase inlet</tspan>
    <tspan x="1725.568" dy="32">or decrease outlet</tspan>
    <tspan x="1725.568" dy="32">pressure</tspan>
  </text>
  <a id="popup_warn_close" class="bttn_close" href="javascript:;">
    <use x="1878.324" y="239.474" xlink:href="#popup_close"/>
  </a>
</g>

<g id="popup_intdifreg" class="popup_box invis">
  <circle cx="957.434" cy="575.885" r="126" fill="none" stroke="#fff" stroke-width="5"/>
  <path fill="#FFF" d="M1381.66 690.43h-210.11a22.18 22.18 0 01-22.17-22.17v-22.61l-67.96-43.76 67.96 12.15a22.18 22.18 0 0122.17-22.17h210.11a22.18 22.18 0 0122.17 22.17v54.22a22.18 22.18 0 01-22.17 22.17z" opacity=".5"/>
  <text x="1276.121" y="634.6">
    Internal differential
    <tspan x="1276.121" dy="32">regulation</tspan>
  </text>
  <a id="popup_intdifreg_close" class="bttn_close" href="javascript:;">
    <use x="1410.972" y="586.973" xlink:href="#popup_close"/>
  </a>
</g>

<g id="popup_demonstrate" class="popup_box invis">
  <path fill="#FFF" d="M998.58 357.51v-15.44a22.18 22.18 0 00-22.17-22.17h-532.5a22.18 22.18 0 00-22.17 22.17l-143.96-13.55 143.96 45.16v22.35a22.18 22.18 0 0022.17 22.17h532.5a22.18 22.18 0 0022.17-22.17v-7.09l359.16-63.52-319.75 28.57 17.42-26.29-56.83 29.81z" opacity=".5"/>
  <text x="705.216" y="361.295">
    To demonstrate, click the arrows to adjust
    <tspan x="705.216" dy="32">field pressures and valve setpoint</tspan>
  </text>
  <a id="popup_demonstrate_close" class="bttn_close" href="javascript:;">
    <use x="1007.749" y="313.584" xlink:href="#popup_close"/>
  </a>
</g>

<g id="popup_restrictor" class="popup_box invis">
  <path fill="#FFF" d="M1012.75 949.78H873.64a22.18 22.18 0 01-22.17-22.17v-52.22a22.18 22.18 0 0122.17-22.17h7.83L760.66 682.88l155.91 170.34h96.18a22.18 22.18 0 0122.17 22.17v52.22a22.18 22.18 0 01-22.17 22.17z" opacity=".5"/>
  <text x="940.283" y="895.431">
    Adjustable
    <tspan x="940.283" dy="32">restrictor</tspan>
  </text>
  <a id="popup_restrictor_close" class="bttn_close" href="javascript:;">
    <use x="1043.247" y="844.193" xlink:href="#popup_close"/>
  </a>
</g>

<g id="popup_throttling" class="popup_box invis">
  <path fill="#FFF" d="M1436.75 949.78h-325.11a22.18 22.18 0 01-22.17-22.17v-52.22a22.18 22.18 0 0122.17-22.17h7.83l-162.04-136.5 197.14 136.49h282.18a22.18 22.18 0 0122.17 22.17v52.22a22.17 22.17 0 01-22.17 22.18z" opacity=".5"/>
  <text x="1273.173" y="895.431">
    Throttling points consume
    <tspan x="1273.173" dy="32">majority of pressure drop</tspan>
  </text>
  <a id="popup_throttling_close" class="bttn_close" href="javascript:;">
    <use x="1473.548" y="844.481" xlink:href="#popup_close"/>
  </a>
</g>

<g id="popup_spring" class="popup_box invis">
  <path fill="#FFF" d="M620.41 457.4h210.11a22.18 22.18 0 0122.17 22.17v22.61l67.96 43.76-67.96-12.15a22.18 22.18 0 01-22.17 22.17H620.41a22.18 22.18 0 01-22.17-22.17v-54.22a22.17 22.17 0 0122.17-22.17z" opacity=".5"/>
  <text x="720.834" y="500">
    Spring balanced
    <tspan x="720.834" dy="32">piston</tspan>
  </text>
  <a id="popup_spring_close" class="bttn_close" href="javascript:;">
    <use x="862.152" y="450" xlink:href="#popup_close"/>
  </a>
</g>

<g id="popup_stem" class="popup_box invis">
  <path fill="#FFF" d="M1272.91 580.19H1062.8a22.18 22.18 0 01-22.17-22.17V503.8a22.18 22.18 0 0122.17-22.17h15.82l29.23-21.52-1.17 21.52h166.23a22.18 22.18 0 0122.17 22.17v54.22a22.16 22.16 0 01-22.17 22.17z" opacity=".5"/>
  <text x="1166.163" y="524.785">
    Adjustment stem
    <tspan x="1166.163" dy="32">powered by gear</tspan>
  </text>
  <a id="popup_stem_close" class="bttn_close" href="javascript:;">
    <use x="1304.294" y="473.933" xlink:href="#popup_close"/>
  </a>
</g>

<g id="info_labels">
<rect x="920" y="1000" width="30" height="30" fill="#ffb8b8" stroke="#fff"/>
<text id="red_label" x="960" y="1022">- 0 (BAR)</text>
<rect x="1110" y="1000" width="30" height="30" fill="#ffff63" stroke="#fff"/>
<text id="yellow_label" x="1150" y="1022">- 0 (BAR)</text>
<rect x="1300" y="1000" width="30" height="30" fill="#d4d4d4" stroke="#fff"/>
<text id="gray_label" x="1340" y="1022">- 0 (BAR)</text>
<rect x="1490" y="1000" width="30" height="30" fill="#fff" stroke="#fff"/>
<text id="white_label" x="1530" y="1022">- 0 (LPD)</text>
</g>

<script>
<![CDATA[

let r_angle = 0;
let y_angle = 0;
let t_angle = 0;
let g_angle = 0;
let w_angle = 0;
let arrows_shift = 1;
let animation_id;
let allow_play = true;
let setint;
let spring_pos;
let osc_pos = 0;
let osc_iter = 20;
let setint2;
let bttn_txt = true;

function $(sel) {
  return document.querySelector(sel);
}

// Popups

$("#bttn_surface").onclick = function() {
  $("#surface").classList.toggle("invis");
  if(bttn_txt) {
    $("#bttn_surface text").textContent = "SUBSEA";
    bttn_txt = false;
  } else {
    $("#bttn_surface text").textContent = "SURFACE";
    bttn_txt = true;
  }
};

$("#popup_flow_meter_close").onclick = function() {
  $("#popup_flow_meter").classList.toggle("invis");
};

$("#popup_warn_close").onclick = function() {
  $("#popup_warn").classList.toggle("invis");
};

$("#popup_intdifreg_close").onclick = function() {
  $("#popup_intdifreg").classList.toggle("invis");
};

$("#popup_demonstrate_close").onclick = function() {
  $("#popup_demonstrate").classList.toggle("invis");
};

$("#popup_restrictor_close").onclick = function() {
  $("#popup_restrictor").classList.toggle("invis");
};

$("#popup_throttling_close").onclick = function() {
  $("#popup_throttling").classList.toggle("invis");
};

$("#popup_spring_close").onclick = function() {
  $("#popup_spring").classList.toggle("invis");
};

$("#popup_stem_close").onclick = function() {
  $("#popup_stem").classList.toggle("invis");
};

function info_show() {
if($("#popup_flow_meter").classList.contains("invis") || $("#popup_demonstrate").classList.contains("invis") || $("#popup_restrictor").classList.contains("invis") || $("#popup_throttling").classList.contains("invis") || $("#popup_spring").classList.contains("invis") || $("#popup_stem").classList.contains("invis")) {
  $("#popup_flow_meter").classList.remove("invis");
  $("#popup_demonstrate").classList.remove("invis");
  $("#popup_restrictor").classList.remove("invis");
  $("#popup_throttling").classList.remove("invis");
  $("#popup_spring").classList.remove("invis");
  $("#popup_stem").classList.remove("invis");
} else {
  $("#popup_flow_meter").classList.toggle("invis");
  $("#popup_demonstrate").classList.toggle("invis");
  $("#popup_restrictor").classList.toggle("invis");
  $("#popup_throttling").classList.toggle("invis");
  $("#popup_spring").classList.toggle("invis");
  $("#popup_stem").classList.toggle("invis");
  }
}

$("#info").onclick = function() {
  info_show();
}

setTimeout(function(){
  info_show();
}, 400);

// Gauges

function gw_upd() {
  if(r_angle > y_angle) {
    $("#popup_warn").classList.add("invis");
  }
  g_angle = t_angle * 3;
  w_angle = t_angle * 2.35;
  spring_pos = $("#spring_3").getAttribute('y1');
  $("#gray_arrow").setAttribute("transform", "rotate(" + (g_angle - 150) + " 708.719 880.397)");
  $("#white_arrow").setAttribute("transform", "rotate(" + (w_angle - 150) + " 1748.044 763.201)");
  $("#valve_line").setAttribute("transform", "translate(0 " + (100 - t_angle) / 5 + ")");
  $("#valve_top").setAttribute("transform", "translate(0 " + (100 - t_angle) / 5 + ")");
  $("#valve_bottom").setAttribute("transform", "translate(0 " + (100 - t_angle) / -5 + ")");
  $("#spring_4").setAttribute("y1", 630 + (100 - t_angle) / 5);
  $("#spring_4").setAttribute("y2", 624 + (100 - t_angle) / 6.666);
  $("#spring_3").setAttribute("y2", 624 + (100 - t_angle) / 6.666);
  $("#spring_3").setAttribute("y1", 608 + (100 - t_angle) / 10);
  $("#spring_2").setAttribute("y1", 608 + (100 - t_angle) / 10);
  $("#spring_2").setAttribute("y2", 592 + (100 - t_angle) / 20);
  $("#spring_1").setAttribute("y2", 592 + (100 - t_angle) / 20);

  $("#red_label").textContent = "- " + r_angle + " (BAR)";
  $("#yellow_label").textContent = "- " + y_angle + " (BAR)";
  $("#gray_label").textContent = "- " + (g_angle / 30).toFixed(2) + " (BAR)";
  $("#white_label").textContent = "- " + (w_angle / 5).toFixed(2) + " (LPD)";

  //console.log(r_angle - y_angle);

  if (w_angle > 1 && r_angle > 0 && y_angle < r_angle && (r_angle - y_angle) <= 10) {
    if(allow_play) {
      animation_id = requestAnimationFrame(animate);
    }
    allow_play = false;
  } else {
    if(y_angle >= r_angle || (r_angle - y_angle) > 10) {
      $("#popup_warn").classList.remove("invis");
    }
    $("#gray_arrow").setAttribute("transform", "rotate(-150 708.719 880.397)");
    $("#white_arrow").setAttribute("transform", "rotate(-150 1748.044 763.201)");
    cancelAnimationFrame(animation_id);
    allow_play = true;
  }
}

function oscillate() {
  if(osc_iter > 0) {
    osc_iter--;
    if(osc_iter >= 10) {
      osc_pos++;
      $("#valve_body").setAttribute("transform", "translate(0 " + osc_pos + ")");
      $("#spring").setAttribute("transform", "translate(0 " + spring_pos * (1 + osc_pos/200) + ") scale(1 " + (1 - osc_pos / (spring_pos - 546)) + ") translate(0 " + (-1 * spring_pos * (1 + osc_pos/200)) + ")");
    } else {
      osc_pos--;
      $("#valve_body").setAttribute("transform", "translate(0 " + osc_pos + ")");
      $("#spring").setAttribute("transform", "translate(0 " + spring_pos * (1 + osc_pos/200) + ") scale(1 " + (1 - osc_pos / (spring_pos - 546)) + ") translate(0 " + (-1 * spring_pos * (1 + osc_pos/200)) + ")");
    }
  } else {
    clearInterval(setint2);
    osc_iter = 20;
    $("#popup_intdifreg").classList.add("invis");
  }
}

function start_oscillate() {
  clearInterval(setint2);
  $("#popup_intdifreg").classList.remove("invis");
  setint2 = setInterval(function(){oscillate()}, 80);
}

function rarr_dwn() {
  if(r_angle > 0 && r_angle > y_angle) {
    r_angle -= 5;
    $("#red_arrow").setAttribute("transform", "rotate(" + (r_angle - 150) + " 171.933 434.709)");
  } else {
    $("#popup_warn").classList.remove("invis");
  }
  gw_upd();
}

function rarr_up() {
  if(r_angle < 300) {
    r_angle += 5;
    $("#red_arrow").setAttribute("transform", "rotate(" + (r_angle - 150) + " 171.933 434.709)");
  }
  gw_upd();
}

function yarr_dwn() {
  if(y_angle > 0) {
    y_angle -= 5;
    $("#yellow_arrow").setAttribute("transform", "rotate(" + (y_angle - 150) + " 1455.102 434.729)");
  }
  gw_upd();
}

function yarr_up() {
  if(y_angle < 300 && r_angle > y_angle) {
    y_angle += 5;
    $("#yellow_arrow").setAttribute("transform", "rotate(" + (y_angle - 150) + " 1455.102 434.729)");
  } else {
    $("#popup_warn").classList.remove("invis");
  }
  gw_upd();
}

function tgl_dwn() {
  if(t_angle > 0) {
    t_angle -= 2;
    $("#toggle_arrow").setAttribute("transform", "rotate(" + ((100 - t_angle) * 1.8 - 180) + " 1143.412 408.396)");
  }
  gw_upd();
}

function tgl_up() {
  if(t_angle < 100) {
    t_angle += 2;
    $("#toggle_arrow").setAttribute("transform", "rotate(" + ((100 - t_angle) * 1.8 - 180) + " 1143.412 408.396)");
  }
  gw_upd();
}

$("#rb_left").onmousedown = function() {
  clearInterval(setint);
  setint = setInterval(function(){rarr_dwn()}, 200);
}
$("#rb_left").onclick = function() {rarr_dwn()};
$("#rb_left").onmouseup = function() {
  clearInterval(setint);
  start_oscillate();
};

$("#rb_right").onmousedown = function() {
  clearInterval(setint);
  setint = setInterval(function(){rarr_up()}, 200);
}
$("#rb_right").onclick = function() {rarr_up()};
$("#rb_right").onmouseup = function() {
  start_oscillate();
};

$("#tgl_left").onmousedown = function() {
  clearInterval(setint);
  setint = setInterval(function(){tgl_up()}, 200);
}
$("#tgl_left").onclick = function() {tgl_up()};

$("#tgl_right").onmousedown = function() {
  clearInterval(setint);
  setint = setInterval(function(){tgl_dwn()}, 200);
}
$("#tgl_right").onclick = function() {tgl_dwn()};

$("#yb_left").onmousedown = function() {
  clearInterval(setint);
  setint = setInterval(function(){yarr_dwn()}, 200);
}
$("#yb_left").onclick = function() {yarr_dwn()};
$("#yb_left").onmouseup = function() {
  start_oscillate();
};

window.onmouseup = function() {clearInterval(setint)};

$("#yb_right").onmousedown = function() {
  clearInterval(setint);
  setint = setInterval(function(){yarr_up()}, 200);
}
$("#yb_right").onclick = function() {yarr_up()};
$("#yb_right").onmouseup = function() {
  clearInterval(setint);
  start_oscillate();
};

function animate() {
  if(arrows_shift < 120) {
    arrows_shift += w_angle / 30;
    $("#queue").setAttribute("transform", "translate(" + arrows_shift + " 0)");
    $("#queue2").setAttribute("transform", "translate(" + arrows_shift + " 0)");
    $("#queue3").setAttribute("transform", "translate(" + arrows_shift + " 0)");
  } else {
    arrows_shift = 1;
    $("#queue").setAttribute("transform", "translate(" + arrows_shift + " 0)");
    $("#queue2").setAttribute("transform", "translate(" + arrows_shift + " 0)");
    $("#queue3").setAttribute("transform", "translate(" + arrows_shift + " 0)");
  }
    animation_id = requestAnimationFrame(animate);
}

]]>
</script>
</svg>
