<svg xmlns="http://www.w3.org/2000/svg" viewBox="0 0 1024 770">
  <rect width="1024" height="352.9" y="417.1" fill="#DF7A3C"/>
  <rect width="1024" height="249.4" y="189.7" fill="#439168"/>
  <g fill="#FFF">
    <polygon points="150.2 624.9 150.2 633.8 159.1 633.8 159.1 616 150.2 616 150.2 624.9"/>
    <polygon points="141.3 642.8 150.2 642.8 150.2 633.8 141.3 633.8 141.3 642.8"/>
    <polygon points="159.1 607.1 159.1 616 168.1 616 168.1 598.2 159.1 598.2 159.1 607.1"/>
    <polygon points="168.1 598.2 177 598.2 177 589.2 168.1 589.2 168.1 598.2"/>
    <polygon points="117.2 668.8 108.3 668.8 108.3 675.4 100.9 675.4 100.9 684.3 109.8 684.3 109.8 677.8 117.2 677.8 117.2 669.9 126.1 669.9 126.1 661 117.2 661 117.2 668.8"/>
    <polygon points="135.1 652.1 126.1 652.1 126.1 661 135.1 661 135.1 652.2 144 652.2 144 643.2 135.1 643.2 135.1 652.1"/>
    <polygon points="74.1 711 65.2 711 65.2 718.8 56.3 718.8 56.3 725.4 48.9 725.4 48.9 734.3 57.8 734.3 57.8 727.8 65.2 727.8 65.2 719.9 74.1 719.9 74.1 711.1 83.1 711.1 83.1 702.2 74.1 702.2 74.1 711"/>
    <polygon points="92 693.2 100.9 693.2 100.9 684.3 92 684.3 92 693.2"/>
    <polygon points="83.1 702.2 92 702.2 92 693.2 83.1 693.2 83.1 702.2"/>
    <polygon points="22.1 761.1 31.1 761.1 31.1 752.2 22.1 752.2 22.1 761.1"/>
    <polygon points="40 743.2 48.9 743.2 48.9 734.3 40 734.3 40 743.2"/>
    <polygon points="31.1 752.2 40 752.2 40 743.2 31.1 743.2 31.1 752.2"/>
    <polygon points="13.2 770 22.1 770 22.1 761.1 13.2 761.1 13.2 770"/>
    <polygon points="817.7 616 808.8 616 808.8 633.8 817.7 633.8 817.7 616"/>
    <polygon points="826.7 642.8 826.7 633.8 817.7 633.8 817.7 642.8 826.7 642.8"/>
    <polygon points="791 572.2 791 558.2 798 558.2 798 523.7 170 523.7 170 558.2 177 558.2 177 589.2 185.9 589.2 185.9 580.3 194.8 580.3 194.8 571.4 185.9 571.4 185.9 555.3 178.9 555.3 178.9 531.3 789.1 531.3 789.1 555.3 782.1 555.3 782.1 571.4 773.1 571.4 773.1 580.3 782.1 580.3 782.1 589.2 791 589.2 791 572.2"/>
    <polygon points="808.8 598.2 799.9 598.2 799.9 616 808.8 616 808.8 598.2"/>
    <polygon points="791 589.2 791 598.2 799.9 598.2 799.9 589.2 791 589.2"/>
    <polygon points="832.9 652.1 832.9 643.2 824 643.2 824 652.2 832.9 652.2 832.9 661 841.8 661 841.8 652.1 832.9 652.1"/>
    <polygon points="859.7 675.4 859.7 668.8 850.7 668.8 850.7 661 841.8 661 841.8 669.9 850.7 669.9 850.7 677.8 858.1 677.8 858.1 684.3 867.1 684.3 867.1 675.4 859.7 675.4"/>
    <polygon points="867.1 684.3 867.1 693.2 876 693.2 876 684.3 867.1 684.3"/>
    <polygon points="876 693.2 876 702.2 884.9 702.2 884.9 693.2 876 693.2"/>
    <polygon points="911.7 725.4 911.7 718.8 902.7 718.8 902.7 711 893.8 711 893.8 702.2 884.9 702.2 884.9 711.1 893.8 711.1 893.8 719.9 902.7 719.9 902.7 727.8 910.1 727.8 910.1 734.3 919.1 734.3 919.1 725.4 911.7 725.4"/>
    <polygon points="936.9 752.2 936.9 761.1 945.8 761.1 945.8 752.2 936.9 752.2"/>
    <polygon points="919.1 734.3 919.1 743.2 928 743.2 928 734.3 919.1 734.3"/>
    <polygon points="928 743.2 928 752.2 936.9 752.2 936.9 743.2 928 743.2"/>
    <polygon points="945.8 761.1 945.8 770 954.7 770 954.7 761.1 945.8 761.1"/>
    <polygon points="238.1 602.3 245.2 602.3 245.2 610.4 252.8 610.4 252.8 619.5 259.4 619.5 259.4 628.6 262.9 628.6 262.9 637.7 396.7 637.7 396.7 628.6 400.2 628.6 400.2 619.5 406.8 619.5 406.8 610.4 414.4 610.4 414.4 602.3 421.5 602.3 421.5 593.1 238.1 593.1 238.1 602.3"/>
  </g>
  <g fill="#111C4E">
    <rect width="15" height="49.6" x="90.8" y="285.4"/>
    <polygon points="196.2 318.4 188.8 318.4 188.8 301.8 184.8 301.8 184.7 293.7 181.4 293.8 181.4 285.4 166.5 285.4 166.5 302 173.9 302 173.9 318.5 177.5 318.5 177.6 326.1 181.3 326.1 181.3 335 196.4 335 196.4 328.6 202.3 328.5 202.3 318.5 203.8 318.5 203.8 309.8 209.8 309.8 209.8 302 211.2 302 211.2 285.4 196.2 285.4"/>
    <rect width="15" height="49.6" x="218.5" y="285.4"/>
    <polygon points="281.9 318.4 278.6 318.4 278.5 308.8 274.6 308.8 274.6 301.8 271.1 301.8 271 292.5 267.2 292.5 267.2 285.4 244.8 285.4 244.8 335 252.3 335 252.3 302 253.8 302 253.9 311.1 259.6 311 259.6 318.5 263.8 318.5 263.9 325.6 267 325.6 267 335 289.5 335 289.5 285.4 281.9 285.4"/>
    <polygon points="341.5 293.8 341.5 285.4 304.2 285.4 304.2 287.5 298.8 287.6 298.8 293.6 296.8 293.6 296.8 326.8 300.1 326.8 300.1 334.9 304.2 334.8 304.2 335 326.7 335 326.7 329.8 331.1 329.8 331.1 326.8 333.9 326.8 333.9 335 341.5 335 341.5 310.1 326.5 310.1 326.5 320.1 321.3 320.1 321.4 326.6 311.8 326.6 311.8 293.8"/>
    <path d="M159.7 285.4h-42.6V335h15v-16.5h7.3v8.3h7.4v8.2h15v-8.4h-4.5v-7.8h-3v-8.5h7.5v-16.7h-2v-8.2zm-13 24.8h-14.6v-16.4h14.7v16.3z"/>
  </g>
  <g fill="#C10230">
    <polygon points="167.4 267 196.7 266.8 196.6 257 206.3 256.9 206.3 247.2 225.8 247 225.9 256.7 235.6 256.6 235.7 266.4 265 266.1 264.9 256.4 255.1 256.5 255.1 246.7 245.3 246.8 245.3 237.2 232.8 237.2 232.8 228.5 225.6 228.6 225.6 227.5 223.2 227.5 223.1 221.2 213.3 221.3 213.4 227.6 206.1 227.7 206.1 231.1 199.2 231.1 199.3 237.5 196.4 237.5 196.4 238.5 186.7 238.6 186.8 247.3 177 247.4 177.1 256.7 168.1 256.7 168.1 257.3 167.3 257.3 167.4 267"/>
    <polygon points="264.9 351.3 235.6 351.5 235.7 361.3 226 361.4 226.1 371.1 206.5 371.3 206.4 361.6 196.7 361.7 196.6 351.9 167.3 352.2 167.4 361.9 177.2 361.9 177.3 371.6 187 371.5 187.1 380.9 199.5 380.9 199.6 389.7 206.7 389.7 206.7 390.8 209.2 390.8 209.2 397.1 219 397 218.9 390.7 226.2 390.7 226.2 387.3 233.1 387.2 233 380.8 235.9 380.8 235.9 379.8 245.6 379.7 245.5 371 255.3 370.9 255.2 361.6 264.2 361.6 264.2 361 265 361 264.9 351.3"/>
  </g>
  <g fill="#E21D38">
    <polygon points="839.5 245.3 839.5 239.2 833.3 239.2 833.3 251.5 839.5 251.5"/>
    <path d="M851.8 368.4h-6.2v-6.1h-6.1V356h-12.3v-18.4h-5.5v-6.2h5.5v-18.4h6.1v-18.5h6.2v-6.2h6.1v-30.7h6.2v-12.3h-6.2v6.1h-6.1v12.3h-6.2v6.2h-6.1v-6.2h6.1v-12.3h-6.1v6.2h-5.5v-6.2h5.5V233H821v12.3h-5.4v6.2h-6.2v6.1h-12.3V270H791v18.4h-6.2V307h-6.1v18.5h-6.2v12.3h-12.3v6.1h-6.1v30.8h6.1v6.1h12.3v-6.1h-6.1v-6.2h-6.2V350h6.2v-6.2h12.3v6.2h6.1v18.4h-6.1v12.3h6.1v6.2h12.3v6.1h12.3v6.2h11.7v6.1h6.1v6.2h12.3v6.1h43V393h-6V387h-6.2v-6.2H864v-6.1h-12.3v-6.2zM821 263.8h-5.4v-6.1h5.4v6.1zM870.3 393v6.2h6.1v12.3h-24.6V393h18.5z"/>
    <polygon points="931.4 362.3 925.3 362.3 925.3 356.1 937.5 356.1 937.5 350 943.7 350 943.7 343.8 937.5 343.8 937.5 337.7 906.8 337.7 906.8 331.5 894.5 331.5 894.5 325.4 888.7 325.4 888.7 319.2 882.5 319.2 882.5 270 876.4 270 876.4 251.5 870.3 251.5 870.3 239.2 864.1 239.2 864.1 220.7 827.2 220.7 827.2 226.9 833.3 226.9 833.3 233 839.5 233 839.5 226.9 845.6 226.9 845.6 239.2 851.8 239.2 851.8 226.9 857.9 226.9 857.9 251.5 864.1 251.5 864.1 257.6 857.9 257.6 857.9 270 851.8 270 851.8 288.4 845.6 288.4 845.6 294.6 839.5 294.6 839.5 313.1 833.3 313.1 833.3 331.5 827.2 331.5 827.2 337.7 839.5 337.7 839.5 343.8 857.9 343.8 857.9 368.4 864.1 368.4 864.1 374.6 870.3 374.6 870.3 368.4 882.5 368.4 882.5 374.6 900.6 374.6 900.6 380.7 955.3 380.7 955.3 374.6 931.4 374.6"/>
    <rect width="6.2" height="12.3" x="955.3" y="362.3"/>
  </g>
  <g fill="#FFF">
    <polygon points="821 226.9 809.4 226.9 809.4 239.2 803.3 239.2 803.3 251.5 797.1 251.5 797.1 257.6 809.4 257.6 809.4 251.5 815.5 251.5 815.5 245.3 821.7 245.3 821.7 233 827.2 233 827.2 251.5 833.3 251.5 833.3 239.2 839.5 239.2 839.5 251.5 845.6 251.4 845.5 245.3 851.8 245.3 851.8 257.6 845.6 257.6 845.6 288.4 851.8 288.4 851.8 270 857.9 270 857.9 257.6 864.1 257.6 864.1 251.5 857.9 251.5 857.9 226.9 851.8 226.9 851.8 239.2 845.6 239.2 845.6 226.9 839.5 226.9 839.5 233 833.3 233 833.3 226.9 827.2 226.9 827.2 220.7 821 220.7"/>
    <rect width="6.2" height="18.5" x="778.6" y="288.4"/>
    <polygon points="790.9 263.8 790.9 270 797.1 270 797.1 257.8 790.9 257.8"/>
    <polygon points="784.8 276.1 784.8 288.4 790.9 288.4 790.9 270 784.8 270"/>
    <polygon points="766.3 332.5 760.3 332.5 760.3 338.7 766.5 338.7 766.5 337.7 772.5 337.7 772.5 325.4 766.3 325.4"/>
    <rect width="6.2" height="6.2" x="754" y="337.7"/>
    <polygon points="772.5 325.4 778.6 325.4 778.6 319.2 778.6 306.9 772.5 306.9"/>
    <rect width="6.2" height="6.2" x="754" y="374.6"/>
    <polygon points="778.6 380.7 778.6 368.4 784.8 368.4 784.8 350 778.6 350 778.6 343.8 766.3 343.8 766.3 350 760.2 350 760.2 368.4 766.3 368.4 766.3 374.6 772.5 374.6 772.5 380.7 760.3 380.7 760.3 386.9 784.8 386.9 784.8 380.7"/>
    <polygon points="754.2 367.6 754.2 344.7 748 344.7 748 373.6 754.2 373.6"/>
    <polygon points="803.3 393 797.1 393 797.1 399.2 809.4 399.2 809.4 393"/>
    <rect width="12.3" height="6.2" x="784.8" y="386.9"/>
    <rect width="6.2" height="6.2" x="827.2" y="263.8"/>
    <polygon points="870.3 239.2 870.3 214.6 827.2 214.6 827.2 220.7 864.1 220.7 864.1 239.2 870.3 239.2 870.3 251.5 876.4 251.5 876.4 239.2"/>
    <polygon points="876.4 251.5 876.4 263.8 876.4 270 882.5 270 882.5 251.5"/>
    <rect width="6.2" height="6.2" x="839.5" y="288.4"/>
    <rect width="6.2" height="12.3" x="833.3" y="251.5"/>
    <polygon points="821 257.6 815.5 257.6 815.5 263.8 821.7 263.8 821.7 257.6 827.2 257.6 827.2 251.5 821 251.5"/>
    <rect width="6.2" height="6.2" x="821" y="331.5"/>
    <polygon points="833.3 325.4 833.3 313.1 827.2 313.1 827.2 331.5 833.3 331.5"/>
    <polygon points="857.9 368.4 857.9 362.3 857.9 362.3 857.9 356.1 857.9 356.1 857.9 343.8 839.7 343.8 839.7 337.7 827.2 337.7 827.2 343.8 827.2 343.8 827.2 350 827.2 350 827.2 356.1 839.5 356.1 839.5 362.3 845.6 362.3 845.6 368.4 851.8 368.4 851.8 374.6 864.1 374.6 864.1 368.4"/>
    <polygon points="876.4 368.4 870.3 368.4 870.3 374.6 864.1 374.6 864.1 380.7 870.3 380.7 870.3 386.9 876.4 386.9 876.4 380.7 870.3 380.7 870.3 374.6 882.5 374.6 882.5 368.4"/>
    <polygon points="839.5 417.6 839.5 423.8 882.5 423.8 882.5 417.6 870.3 417.6"/>
    <rect width="6.2" height="23.6" x="882.5" y="394"/>
    <polygon points="833.3 411.5 827.2 411.5 827.2 417.6 839.5 417.6 839.5 411.5"/>
    <polygon points="851.8 393 851.8 411.5 876.4 411.5 876.4 399.2 870.3 399.2 870.3 393"/>
    <polygon points="821.7 405.4 821.7 399.2 809.4 399.2 809.4 405.4 821 405.4 821 411.5 827.2 411.5 827.2 405.4"/>
    <rect width="6.2" height="6.2" x="876.4" y="386.9"/>
    <polygon points="839.5 306.9 839.5 294.6 833.3 294.6 833.3 313.1 839.5 313.1"/>
    <polygon points="931.4 331.5 906.8 331.5 906.8 337.7 937.5 337.7 937.5 331.5"/>
    <polygon points="900.6 325.4 894.5 325.4 894.5 331.5 906.8 331.5 906.8 325.4"/>
    <polygon points="888.7 319.2 888.7 270 882.5 270 882.5 319.2 888.3 319.2 888.3 325.4 894.5 325.4 894.5 319.2"/>
    <polygon points="894.5 374.6 882.5 374.6 882.5 380.7 900.6 380.7 900.6 374.6"/>
    <rect width="6.2" height="6.2" x="955.3" y="374.6"/>
    <rect width="54.7" height="6.2" x="900.6" y="380.7"/>
    <polygon points="961.5 357.3 961.5 350 955.3 350 955.3 343.8 943.7 343.8 943.7 337.7 937.5 337.7 937.5 343.8 943 343.8 943 350 937.5 350 937.5 356.1 925.3 356.1 925.3 362.3 931.4 362.3 931.4 374.6 955.3 374.6 955.3 362.3 961.5 362.3 961.5 374.6 967.6 374.6 967.6 357.3"/>
  </g>
  <polygon fill="#FFF" points="0 .4 0 196.6 1024 196.6 1024 .4"/>
  <polygon fill="#EF3B42" points="1015.8 180.2 0 180.2 0 188.4 1024 188.4 1024 180.2"/>
  <g fill="#545F72">
    <polygon points="876.5 180.2 884.7 180.2 884.7 172 876.5 172"/>
    <polygon points="720.9 172 720.9 180.2 737.3 180.2 737.3 172"/>
    <polygon points="655.4 172 655.4 163.8 639 163.8 639 172 647.2 172 647.2 180.2 671.7 180.2 671.7 172"/>
    <polygon points="622.6 172 622.6 180.2 639 180.2 639 172"/>
    <polygon points="507.9 172 507.9 180.2 524.3 180.2 524.3 172"/>
    <polygon points="393.2 172 393.2 180.2 409.6 180.2 409.6 172"/>
    <polygon points="376.8 180.2 376.8 172 368.6 172 368.6 180.2"/>
    <polygon points="303.1 180.2 311.3 180.2 311.3 172 303.1 172"/>
    <polygon points="286.7 180.2 286.7 172 278.5 172 278.5 180.2"/>
    <polygon points="221.2 180.2 229.4 180.2 229.4 172 237.6 172 237.6 163.8 221.2 163.8"/>
    <polygon points="0 180.2 8.2 180.2 8.2 172 0 172"/>
    <polygon points="1015.8 172 1024 172 1024 163.8 1015.8 163.8"/>
    <polygon points="770 163.8 770 172 786.4 172 786.4 163.8"/>
    <polygon points="499.7 163.8 499.7 147.5 491.5 147.5 491.5 180.2 499.7 180.2 499.7 172 507.9 172 507.9 163.8"/>
    <polygon points="385 163.8 385 172 393.2 172 393.2 163.8"/>
    <polygon points="245.8 163.8 245.8 172 253.9 172 253.9 180.2 262.1 180.2 262.1 163.8"/>
    <polygon points="8.2 172 16.4 172 16.4 163.8 8.2 163.8"/>
    <polygon points="950.3 155.7 950.3 172 966.7 172 966.7 155.7"/>
    <polygon points="802.8 155.7 786.4 155.7 786.4 163.8 794.6 163.8 794.6 172 802.8 172 802.8 180.2 811 180.2 811 163.8 802.8 163.8"/>
    <polygon points="720.9 155.7 720.9 147.5 712.7 147.5 712.7 139.3 696.3 139.3 696.3 155.7 688.1 155.7 688.1 139.3 671.7 139.3 671.7 147.5 663.5 147.5 663.5 163.8 671.7 163.8 671.7 155.7 679.9 155.7 679.9 163.8 671.7 163.8 671.7 172 704.5 172 704.5 180.2 712.7 180.2 712.7 163.8 720.9 163.8"/>
    <polygon points="507.9 163.8 524.3 163.8 524.3 147.5 507.9 147.5"/>
    <polygon points="106.5 155.7 106.5 163.8 114.7 163.8 114.7 155.7"/>
    <polygon points="942.1 147.5 942.1 155.7 950.3 155.7 950.3 147.5"/>
    <polygon points="778.2 155.7 778.2 139.3 770 139.3 770 122.9 761.9 122.9 761.9 106.5 753.7 106.5 753.7 122.9 745.5 122.9 745.5 139.3 753.7 139.3 753.7 147.5 745.5 147.5 745.5 163.8 753.7 163.8 753.7 180.2 761.9 180.2 761.9 163.8 770 163.8 770 155.7"/>
    <path d="M622.6 147.5h-16.4v-24.6h-24.6v16.4h-8.2v8.2h8.2v16.3h-8.2v8.2h-8.2v8.2h16.4V172h8.2v8.2h24.6V172h-8.2v-8.2h8.2v-8.2h8.2v-8.1zM589.8 131h8.2v8.2h-8.2V131zm0 16.4h8.2v8.2h-8.2v-8.2z"/>
    <polygon points="565.3 155.7 573.4 155.7 573.4 147.5 565.3 147.5"/>
    <polygon points="532.5 155.7 532.5 163.8 524.3 163.8 524.3 172 532.5 172 532.5 180.2 540.7 180.2 540.7 147.5 532.5 147.5"/>
    <polygon points="368.6 147.5 352.3 147.5 352.3 139.3 344.1 139.3 344.1 155.7 327.7 155.7 327.7 131.1 319.5 131.1 319.5 122.9 327.7 122.9 327.7 114.7 335.9 114.7 335.9 106.5 319.5 106.5 319.5 90.1 303.1 90.1 303.1 122.9 311.3 122.9 311.3 139.3 319.5 139.3 319.5 147.5 311.3 147.5 311.3 163.8 319.5 163.8 319.5 180.2 327.7 180.2 327.7 172 335.9 172 335.9 163.8 352.3 163.8 352.3 155.7 360.4 155.7 360.4 172 368.6 172 368.6 163.8 376.8 163.8 376.8 155.7 368.6 155.7"/>
    <polygon points="98.3 147.5 98.3 155.7 106.5 155.7 106.5 147.5"/>
    <polygon points="90.1 147.5 81.9 147.5 81.9 155.7 65.5 155.7 65.5 163.8 73.7 163.8 73.7 172 65.5 172 65.5 180.2 81.9 180.2 81.9 172 90.1 172 90.1 163.8 98.3 163.8 98.3 155.7 90.1 155.7"/>
    <polygon points="540.7 147.5 548.9 147.5 548.9 139.3 540.7 139.3"/>
    <polygon points="532.5 139.3 524.3 139.3 524.3 147.5 532.5 147.5"/>
    <polygon points="507.9 147.5 507.9 139.3 499.7 139.3 499.7 147.5"/>
    <polygon points="483.3 139.3 483.3 147.5 491.5 147.5 491.5 139.3"/>
    <path d="M65.5 139.3H82V131h-8.2v-8.2h-8.2v-16.4h8.2V81.9h-8.2v-8.2H82v-8.2h-8.2V49.1h-8.2V41h8.2v-8.2H82v-8.2H65.5v-8.2H82V8.2H65.5V0h-8.1v24.6h-8.2v8.2H41V41h16.4v24.5h-8.2v8.2H41V82h8.2v8.2H41v16.4h8.2v8.2h8.2V131h-8.2v16.3H41v8.2h8.2v8.2H41v8.2h8.2v8.2h8.2v-32.8h8.1v-8.1zm0-49.2v8.2h-8.1v-8.2h8.1z"/>
    <polygon points="1015.8 139.3 1007.6 139.3 1007.6 147.5 1015.8 147.5 1015.8 155.7 1024 155.7 1024 131.1 1015.8 131.1"/>
    <polygon points="999.4 131.1 999.4 122.9 991.2 122.9 991.2 139.3 1007.6 139.3 1007.6 131.1"/>
    <polygon points="696.3 131.1 688.1 131.1 688.1 139.3 696.3 139.3"/>
    <polygon points="663.5 131.1 663.5 139.3 671.7 139.3 671.7 131.1"/>
    <polygon points="540.7 131.1 532.5 131.1 532.5 139.3 540.7 139.3"/>
    <polygon points="499.7 131.1 491.5 131.1 491.5 139.3 499.7 139.3"/>
    <path d="M450.6 131h-8.2v8.3h-8.2V131H426v8.2h-8.2v8.1h-8.2v8.2h8.2v8.2h8.2v8.2h-8.2v8.2h24.6V172h8.2v8.2h16.3V172h-8.1v-8.2h-8.2v-16.4h8.2v-8.1h-8.2V131zm-8.2 24.7h-8.2v-8.2h8.2v8.2z"/>
    <polygon points="41 131.1 41 122.9 32.8 122.9 32.8 131.1 24.6 131.1 24.6 139.3 41 139.3"/>
    <polygon points="16.4 131.1 8.2 131.1 8.2 139.3 0 139.3 0 155.7 8.2 155.7 8.2 147.5 24.6 147.5 24.6 139.3 16.4 139.3"/>
    <polygon points="1015.8 131.1 1015.8 122.9 1007.6 122.9 1007.6 131.1"/>
    <polygon points="712.7 131.1 712.7 139.3 720.9 139.3 720.9 122.9 729.1 122.9 729.1 90.1 712.7 90.1 712.7 106.5 696.3 106.5 696.3 114.7 704.5 114.7 704.5 122.9 712.7 122.9"/>
    <polygon points="704.5 122.9 696.3 122.9 696.3 131.1 704.5 131.1"/>
    <polygon points="679.9 122.9 671.7 122.9 671.7 131.1 679.9 131.1"/>
    <path d="M573.4 122.9v-8.2h8.2v-8.2h-8.2v-8.2h8.2v-8.2h-8.2V82h-8.1V49.1h8.1V41h-8.1v-8.2H557v-8.2h-16.4v8.2h8.2V41h8.2v8.2h-8.2V41h-16.4v8.2h8.2v8.1h8.2v16.4h8.2V82h-8.2v8.2h-8.2v8.2h-8.2v8.2h8.2v16.4h8.2v8.1h8.2v8.2h16.3V123zM549 98.3h8.2v8.2h8.1v8.2h-8.1v-8.2h-8.2v-8.2z"/>
    <polygon points="442.4 122.9 434.2 122.9 434.2 131.1 442.4 131.1"/>
    <path d="M417.8 122.9v-16.4h8.2v-8.2h-8.2V81.9h-8.2V57.3h8.2v-8.1h8.2V32.8h-8.2V16.4h8.2V8.2h-24.6V0h-8.2v8.2H385v8.2h8.2v16.4h16.4V41h-8.2V49h-8.2V41H385v24.6h8.2v-8.2h8.2v8.2h-8.2v32.8h-24.6v8.2h-8.2v8.2h8.2v8.2h32.8v8.2h8.2v8.2h8.2v-16.4zm-16.4-98.3v-8.2h8.2v8.2h-8.2zm0 65.5h8.2v8.2h-8.2v-8.2zM385 114.7v-8.2h8.2v8.2H385zm16.4-8.2h8.2v8.2h-8.2v-8.2z"/>
    <polygon points="360.4 131.1 360.4 139.3 368.6 139.3 368.6 122.9 360.4 122.9"/>
    <path d="M147.5 122.9v-8.2h8.2v-8.2h-16.4v-8.2H131v8.2h-8.2v16.4h-8.2v-16.4h-8.2v16.4h-8.2v16.4h8.2v8.1h8.2v8.2h8.2v8.2h-8.2v8.2h8.2v8.2h16.3V172h8.2v-32.8h8.2v-8.1h8.2v-8.2h-16.3zm-16.4-8.2h8.2V131H131v-16.4zM114.7 131h8.2v8.2h-8.2V131zm24.6 16.4H131v-8.2h8.2v8.2z"/>
    <polygon points="24.6 122.9 16.4 122.9 16.4 131.1 24.6 131.1"/>
    <polygon points="1007.6 114.7 999.4 114.7 999.4 122.9 1007.6 122.9"/>
    <path d="M852 122.9h-8.2v-8.2h8.2v-8.2h8.2v-8.2h-16.4v-8.2h8.2V73.7h-8.2v-8.2h-8.2v-8.1h8.2v-8.2h8.2V41h-8.2v-8.2h24.6v-8.2h-8.2v-8.2H852V8.2h-8.2V0h-8.2v8.2h-8.2v8.2h8.2v8.2h-8.2v8.2h8.2V41h-8.2V49h-8.2v24.6h16.4V82h-8.2v8.2H811v16.4h8.2v-8.2h8.2v24.6h-8.2v-8.2H811v24.6h-8.2v16.3h8.2v8.2h8.2v16.4H852V172h-8.2v-32.7h8.2V131h8.2v-16.4H852v8.2zM835.6 172h-8.2v-8.2h8.2v8.2zm0-24.5h-8.2v-8.2h-8.2V131h8.2v8.2h8.2v8.2z"/>
    <polygon points="737.3 114.7 737.3 122.9 745.5 122.9 745.5 114.7"/>
    <polygon points="286.7 122.9 294.9 122.9 294.9 114.7 286.7 114.7"/>
    <path d="M278.5 114.7v-41h-8.2v-8.2h-8.2V49.1h8.2V41h-8.2V16.4h8.2V8.2h8.2V0h-16.4v8.2h-16.3v8.2h8.2v8.2h-16.4v16.3h-8.2v16.4h8.2v-8.2h8.2v16.4h8.2v8.2h8.1v16.4h-16.3v8.2h-8.2v8.2h-8.2v-8.2h-8.2v-8.2H213V65.5h8.2v-8.1H213v-8.2h-8.2V41h-8.2v-8.2h8.2v-8.2h-8.2v-8.2h8.2V8.2h-8.2V0h-8.2v8.2h-8.2v8.2h-8.1v8.2h-8.2v8.2h8.2V41h8.2v-8.2h8.1V41h-8.2v16.3h16.4v8.2h-24.5v8.2h8.1v16.4h8.2v8.2h-16.3v8.2h-8.2v8.2h8.2V131h8.1v8.2h8.2v41H213v-16.4h8.2v-8.2h8.2v-16.4h-8.2V123h8.2v-8.2h16.4v-8.2h8.2v16.4h8.1v-16.4h8.2v16.4h-8.2v16.4H254v16.3h8.1v8.2h8.2v8.2h8.2v-8.2h8.2v-16.4h-8.2v-8.1h8.2v-16.4h-8.2v-8.2zm-73.7-41V82h-8.2v-8.2h8.2zm-24.6 41h8.2v8.2h-8.2v-8.2zm24.6 57.3h-8.2v-8.2h8.2v8.2zm8.2-32.7h-8.2v8.1h-8.2v-8.1h8.2V131h8.2v8.2zm0-24.6v8.2h-8.2V98.3h8.2v8.2h8.2v8.2H213z"/>
    <polygon points="32.8 114.7 24.6 114.7 24.6 122.9 32.8 122.9"/>
    <polygon points="8.2 114.7 0 114.7 0 131.1 8.2 131.1"/>
    <path d="M917.5 114.7v8.2h-8.2v-16.4h-8.2v-8.2H893v16.4h8.2V131H893v-16.4h-8.2v8.2h-16.3v8.2h8.1v8.2h8.2V172h8.2v8.2h16.4V172h8.2v8.2h8.2v-41h8.2V123h-8.2v-16.4h-8.2v8.2zm-24.6 24.6h8.2v8.1H893v-8.1zm24.6 16.3h-8.2v8.2h-8.2v-8.2h8.2v-8.1h8.2v8.2zm-8.2-16.3V131h8.2v8.2h-8.2z"/>
    <polygon points="876.5 106.5 876.5 114.7 884.7 114.7 884.7 106.5"/>
    <polygon points="868.4 106.5 860.2 106.5 860.2 114.7 868.4 114.7"/>
    <polygon points="770 114.7 770 122.9 778.2 122.9 778.2 98.3 786.4 98.3 786.4 90.1 770 90.1 770 73.7 778.2 73.7 778.2 65.5 786.4 65.5 786.4 49.1 794.6 49.1 794.6 57.3 802.8 57.3 802.8 41 794.6 41 794.6 24.6 778.2 24.6 778.2 16.4 786.4 16.4 786.4 8.2 770 8.2 770 0 753.7 0 753.7 8.2 761.9 8.2 761.9 16.4 770 16.4 770 65.5 761.9 65.5 761.9 106.5 770 106.5"/>
    <polygon points="1007.6 106.5 1015.8 106.5 1015.8 98.3 1007.6 98.3"/>
    <polygon points="925.7 106.5 933.9 106.5 933.9 98.3 925.7 98.3"/>
    <path d="M909.3 106.5h8.2V90.1h-8.2V82h16.4v-8.2h8.2v-8.2h-8.2v-8.1h-8.2v-8.2h8.2V32.8H901v-8.2H893v-8.2h-8.2v8.2h-8.2v8.2H893V41h8.2v32.7H893v16.4h8.2v8.2h8.2v8.2zm0-41h8.2v8.2h-8.2v-8.2zM123 98.3h8.2v-8.2h8.2V73.7H131V41h8.2v-8.2h16.3v-8.2h-8.2v-8.2h-8.1v8.2H131v8.2h-24.6v16.4h8.2v8.1h-8.2v8.2h-8.2v8.2h8.2v16.4h8.2v-8.2h8.2v8.2h-8.2v16.4h8.2v-8.2zm-8.2-24.6v-8.2h8.2v8.2h-8.2z"/>
    <polygon points="98.3 98.3 98.3 106.5 106.5 106.5 106.5 98.3"/>
    <polygon points="16.4 106.5 24.6 106.5 24.6 90.1 16.4 90.1 16.4 81.9 8.2 81.9 8.2 73.7 16.4 73.7 16.4 65.5 8.2 65.5 8.2 57.3 0 57.3 0 90.1 8.2 90.1 8.2 98.3 16.4 98.3"/>
    <polygon points="8.2 98.3 0 98.3 0 106.5 8.2 106.5"/>
    <polygon points="942.1 90.1 933.9 90.1 933.9 98.3 942.1 98.3"/>
    <polygon points="745.5 98.3 745.5 90.1 737.3 90.1 737.3 98.3"/>
    <polygon points="286.7 98.3 294.9 98.3 294.9 90.1 286.7 90.1"/>
    <polygon points="598 90.1 606.2 90.1 606.2 81.9 598 81.9"/>
    <path d="M483.3 82h-8.2v-8.3h8.2V57.3h8.2v-8.1h8.2V41h-16.4v8.2h-8.2V41h8.2v-8.2h8.2v-8.2h-16.4v8.2H467V41h-8.1v8.2h8.1v32.7h-8.1v8.2h-8.2v8.2h8.2v8.2h-8.2v8.2h8.2v24.6H475V131h8.2v-8.2h8.2v-16.4h8.2v-8.2h-8.2v-8.2h-8.2V82zm0 24.5h-8.2v8.2H467v-8.2h8.2v-8.2h8.2v8.2z"/>
    <polygon points="442.4 81.9 442.4 90.1 450.6 90.1 450.6 81.9"/>
    <polygon points="360.4 90.1 385 90.1 385 81.9 360.4 81.9"/>
    <polygon points="98.3 81.9 90.1 81.9 90.1 98.3 98.3 98.3"/>
    <polygon points="1007.6 73.7 1007.6 81.9 1015.8 81.9 1015.8 98.3 1024 98.3 1024 65.5 1015.8 65.5 1015.8 73.7"/>
    <polygon points="778.2 81.9 786.4 81.9 786.4 73.7 778.2 73.7"/>
    <polygon points="720.9 81.9 729.1 81.9 729.1 90.1 737.3 90.1 737.3 65.5 712.7 65.5 712.7 73.7 704.5 73.7 704.5 65.5 696.3 65.5 696.3 73.7 688.1 73.7 688.1 81.9 696.3 81.9 696.3 90.1 712.7 90.1 712.7 81.9"/>
    <polygon points="671.7 81.9 679.9 81.9 679.9 73.7 671.7 73.7"/>
    <path d="M663.5 73.7h-8.1V82h-8.2v8.2h8.2v8.2H639V65.5h-8.2v-8.1h8.2v8.1h8.2V41H639v8.2h-8.2V41h-8.2v-8.2H639V16.4h8.2V8.2H639V0h-8.2v8.2h-24.6v8.2h8.2v16.4h-8.2V49h8.2v8.2h8.2V82h-8.2v16.4h-8.2v8.2h8.2v32.8h8.2V131h8.2v-8.2h32.7v-8.2h8.2v-8.2h-8.2V90.1h8.2V82h-8.2v-8.2zm-41-57.3h8.3v8.2h-8.2v-8.2zm0 73.7h8.3v8.2h-8.2v-8.2zm0 24.6v-8.2h8.3v8.2h-8.2zm16.5 0v-8.2h8.2v8.2H639z"/>
    <polygon points="606.2 73.7 606.2 81.9 614.4 81.9 614.4 73.7"/>
    <polygon points="548.9 81.9 548.9 73.7 532.5 73.7 532.5 65.5 499.7 65.5 499.7 73.7 483.3 73.7 483.3 81.9 491.5 81.9 491.5 90.1 499.7 90.1 499.7 81.9 507.9 81.9 507.9 73.7 524.3 73.7 524.3 81.9 532.5 81.9 532.5 90.1 540.7 90.1 540.7 81.9"/>
    <polygon points="417.8 81.9 426 81.9 426 73.7 417.8 73.7"/>
    <path d="M311.3 82h8.2V90h16.4V82h16.4V57.3H344v-8.1h8.1v8.1h8.2V41h-8.1V8.2h8.1V0H336v8.2h-8.2v8.2h8.2v8.2h8.2v16.3h-8.2v8.2h-8.2v8.2h-8.2v-8.2h-8.2V32.8h8.2v-8.2H303v8.2h-8.2V41h8.2v16.3h8.2v8.2h-16.4v24.6h8.2V82h8.2zm32.8-8.3h-8.2v-8.2h8.2v8.2zm-16.4-8.2v8.2h-8.2v-8.2h8.2z"/>
    <polygon points="245.8 81.9 253.9 81.9 253.9 73.7 245.8 73.7"/>
    <polygon points="24.6 81.9 24.6 73.7 16.4 73.7 16.4 81.9"/>
    <polygon points="794.6 73.7 794.6 65.5 786.4 65.5 786.4 73.7"/>
    <polygon points="671.7 65.5 663.5 65.5 663.5 73.7 671.7 73.7"/>
    <polygon points="589.8 65.5 581.6 65.5 581.6 73.7 589.8 73.7"/>
    <polygon points="450.6 65.5 442.4 65.5 442.4 73.7 450.6 73.7"/>
    <polygon points="434.2 73.7 434.2 65.5 426 65.5 426 73.7"/>
    <polygon points="376.8 65.5 368.6 65.5 368.6 73.7 376.8 73.7"/>
    <polygon points="237.6 65.5 229.4 65.5 229.4 73.7 245.8 73.7 245.8 65.5"/>
    <polygon points="1015.8 65.5 1015.8 57.3 1007.6 57.3 1007.6 65.5"/>
    <polygon points="983 65.5 991.2 65.5 991.2 57.3 983 57.3"/>
    <polygon points="974.9 57.3 974.9 41 983 41 983 24.6 974.9 24.6 974.9 0 958.5 0 958.5 8.2 950.3 8.2 950.3 0 942.1 0 942.1 24.6 950.3 24.6 950.3 16.4 966.7 16.4 966.7 24.6 950.3 24.6 950.3 41 958.5 41 958.5 65.5 950.3 65.5 950.3 81.9 958.5 81.9 958.5 73.7 966.7 73.7 966.7 81.9 958.5 81.9 958.5 106.5 966.7 106.5 966.7 122.9 958.5 122.9 958.5 131.1 950.3 131.1 950.3 139.3 966.7 139.3 966.7 147.5 974.9 147.5 974.9 180.2 983 180.2 983 172 991.2 172 991.2 163.8 983 163.8 983 155.7 991.2 155.7 991.2 147.5 983 147.5 983 131.1 974.9 131.1 974.9 106.5 983 106.5 983 90.1 974.9 90.1 974.9 98.3 966.7 98.3 966.7 90.1 974.9 90.1 974.9 73.7 983 73.7 983 65.5 974.9 65.5"/>
    <polygon points="860.2 65.5 868.4 65.5 868.4 57.3 860.2 57.3"/>
    <polygon points="704.5 65.5 712.7 65.5 712.7 57.3 704.5 57.3"/>
    <polygon points="696.3 65.5 696.3 57.3 704.5 57.3 704.5 49.1 696.3 49.1 696.3 41 688.1 41 688.1 24.6 696.3 24.6 696.3 16.4 704.5 16.4 704.5 8.2 696.3 8.2 696.3 0 671.7 0 671.7 8.2 679.9 8.2 679.9 41 671.7 41 671.7 57.3 679.9 57.3 679.9 49.1 688.1 49.1 688.1 57.3 679.9 57.3 679.9 73.7 688.1 73.7 688.1 65.5"/>
    <polygon points="614.4 65.5 614.4 57.3 598 57.3 598 73.7 606.2 73.7 606.2 65.5"/>
    <polygon points="426 65.5 426 57.3 417.8 57.3 417.8 65.5"/>
    <polygon points="41 57.3 41 65.5 49.1 65.5 49.1 57.3"/>
    <polygon points="24.6 65.5 24.6 57.3 16.4 57.3 16.4 65.5"/>
    <polygon points="720.9 57.3 729.1 57.3 729.1 41 737.3 41 737.3 32.8 729.1 32.8 729.1 24.6 712.7 24.6 712.7 32.8 720.9 32.8 720.9 49.1 712.7 49.1 712.7 57.3"/>
    <polygon points="172 49.1 172 41 163.8 41 163.8 57.3 147.5 57.3 147.5 49.1 139.3 49.1 139.3 65.5 172 65.5"/>
    <polygon points="16.4 49.1 16.4 41 32.8 41 32.8 32.8 24.6 32.8 24.6 24.6 16.4 24.6 16.4 16.4 8.2 16.4 8.2 24.6 0 24.6 0 32.8 8.2 32.8 8.2 41 0 41 0 49.1 8.2 49.1 8.2 57.3 16.4 57.3"/>
    <polygon points="991.2 49.1 991.2 57.3 1007.6 57.3 1007.6 49.1 999.4 49.1 999.4 41 991.2 41"/>
    <polygon points="712.7 41 704.5 41 704.5 49.1 712.7 49.1"/>
    <polygon points="319.5 49.1 327.7 49.1 327.7 41 335.9 41 335.9 24.6 327.7 24.6 327.7 32.8 319.5 32.8"/>
    <polygon points="155.7 41 147.5 41 147.5 49.1 155.7 49.1"/>
    <polygon points="999.4 41 1007.6 41 1007.6 32.8 999.4 32.8"/>
    <polygon points="925.7 32.8 933.9 32.8 933.9 16.4 925.7 16.4"/>
    <polygon points="704.5 32.8 704.5 24.6 696.3 24.6 696.3 32.8"/>
    <polygon points="573.4 24.6 565.3 24.6 565.3 32.8 573.4 32.8"/>
    <polygon points="458.8 24.6 458.8 32.8 466.9 32.8 466.9 24.6"/>
    <polygon points="1015.8 16.4 1015.8 24.6 1007.6 24.6 1007.6 32.8 1015.8 32.8 1015.8 49.1 1024 49.1 1024 16.4"/>
    <polygon points="901.1 24.6 917.5 24.6 917.5 16.4 925.7 16.4 925.7 8.2 917.5 8.2 917.5 0 901.1 0 901.1 8.2 892.9 8.2 892.9 16.4 901.1 16.4"/>
    <polygon points="106.5 16.4 98.3 16.4 98.3 32.8 106.5 32.8"/>
    <polygon points="737.3 8.2 737.3 0 729.1 0 729.1 16.4 753.7 16.4 753.7 8.2"/>
    <polygon points="548.9 16.4 557.1 16.4 557.1 8.2 540.7 8.2 540.7 16.4"/>
    <polygon points="483.3 16.4 491.5 16.4 491.5 8.2 475.1 8.2 475.1 16.4"/>
    <polygon points="286.7 16.4 303.1 16.4 303.1 0 294.9 0 294.9 8.2 278.5 8.2 278.5 16.4"/>
    <polygon points="139.3 16.4 139.3 8.2 131.1 8.2 131.1 0 122.9 0 122.9 8.2 114.7 8.2 114.7 24.6 131.1 24.6 131.1 16.4"/>
    <polygon points="0 8.2 0 16.4 8.2 16.4 8.2 8.2"/>
    <polygon points="712.7 0 704.5 0 704.5 8.2 712.7 8.2"/>
    <polygon points="663.5 8.2 663.5 0 647.2 0 647.2 8.2"/>
    <polygon points="589.8 0 581.6 0 581.6 8.2 589.8 8.2"/>
    <polygon points="565.3 0 557.1 0 557.1 8.2 565.3 8.2"/>
    <polygon points="507.9 8.2 540.7 8.2 540.7 0 491.5 0 491.5 8.2"/>
    <polygon points="475.1 0 466.9 0 466.9 8.2 475.1 8.2"/>
    <polygon points="450.6 0 442.4 0 442.4 8.2 450.6 8.2"/>
    <polygon points="376.8 0 368.6 0 368.6 8.2 385 8.2 385 0"/>
  </g>
  <g fill="#A59995">
    <polygon points="950.3 172 950.3 163.8 933.9 163.8 933.9 172 925.7 172 925.7 180.2 966.7 180.2 966.7 172"/>
    <polygon points="770 172 761.9 172 761.9 180.2 786.4 180.2 786.4 172"/>
    <polygon points="688.1 172 671.7 172 671.7 180.2 704.5 180.2 704.5 172"/>
    <polygon points="262.1 172 262.1 180.2 278.5 180.2 278.5 172"/>
    <polygon points="106.5 172 90.1 172 90.1 180.2 122.9 180.2 122.9 172"/>
    <polygon points="360.4 163.8 335.9 163.8 335.9 172 327.7 172 327.7 180.2 368.6 180.2 368.6 172 360.4 172"/>
    <polygon points="1015.8 155.7 1015.8 147.5 999.4 147.5 999.4 155.7 991.2 155.7 991.2 180.2 1015.8 180.2 1015.8 163.8 1024 163.8 1024 155.7"/>
    <polygon points="573.4 155.7 565.3 155.7 565.3 147.5 548.9 147.5 548.9 155.7 540.7 155.7 540.7 180.2 565.3 180.2 565.3 172 573.4 172 573.4 163.8 581.6 163.8 581.6 147.5 573.4 147.5"/>
    <polygon points="41 147.5 24.6 147.5 24.6 155.7 8.2 155.7 8.2 163.8 16.4 163.8 16.4 180.2 41 180.2 41 163.8 49.1 163.8 49.1 155.7 41 155.7"/>
    <polygon points="671.7 139.3 663.5 139.3 663.5 131.1 655.4 131.1 655.4 122.9 647.2 122.9 647.2 131.1 630.8 131.1 630.8 139.3 614.4 139.3 614.4 147.5 622.6 147.5 622.6 155.7 663.5 155.7 663.5 147.5 671.7 147.5"/>
    <polygon points="573.4 139.3 565.3 139.3 565.3 147.5 573.4 147.5"/>
    <polygon points="483.3 139.3 475.1 139.3 475.1 147.5 458.8 147.5 458.8 155.7 450.6 155.7 450.6 163.8 458.8 163.8 458.8 172 466.9 172 466.9 180.2 491.5 180.2 491.5 147.5 483.3 147.5"/>
    <polygon points="876.5 131.1 868.4 131.1 868.4 139.3 852 139.3 852 147.5 843.8 147.5 843.8 172 852 172 852 180.2 876.5 180.2 876.5 172 884.7 172 884.7 139.3 876.5 139.3"/>
    <polygon points="745.5 131.1 745.5 122.9 737.3 122.9 737.3 131.1 720.9 131.1 720.9 155.7 729.1 155.7 729.1 163.8 737.3 163.8 737.3 155.7 745.5 155.7 745.5 147.5 753.7 147.5 753.7 139.3 745.5 139.3"/>
    <polygon points="409.6 131.1 401.4 131.1 401.4 122.9 393.2 122.9 393.2 131.1 376.8 131.1 376.8 139.3 360.4 139.3 360.4 147.5 368.6 147.5 368.6 155.7 409.6 155.7 409.6 147.5 417.8 147.5 417.8 139.3 409.6 139.3"/>
    <polygon points="311.3 131.1 311.3 122.9 286.7 122.9 286.7 139.3 278.5 139.3 278.5 147.5 286.7 147.5 286.7 155.7 294.9 155.7 294.9 163.8 303.1 163.8 303.1 155.7 311.3 155.7 311.3 147.5 319.5 147.5 319.5 139.3 311.3 139.3"/>
    <polygon points="262.1 131.1 262.1 122.9 253.9 122.9 253.9 114.7 245.8 114.7 245.8 122.9 237.6 122.9 237.6 114.7 229.4 114.7 229.4 131.1 221.2 131.1 221.2 139.3 229.4 139.3 229.4 147.5 237.6 147.5 237.6 155.7 245.8 155.7 245.8 147.5 253.9 147.5 253.9 139.3 262.1 139.3"/>
    <polygon points="180.2 131.1 172 131.1 172 139.3 155.7 139.3 155.7 147.5 147.5 147.5 147.5 172 155.7 172 155.7 180.2 180.2 180.2 180.2 172 188.4 172 188.4 139.3 180.2 139.3"/>
    <polygon points="90.1 139.3 98.3 139.3 98.3 122.9 106.5 122.9 106.5 106.5 73.7 106.5 73.7 114.7 65.5 114.7 65.5 122.9 73.7 122.9 73.7 131.1 81.9 131.1 81.9 139.3"/>
    <polygon points="802.8 114.7 794.6 114.7 794.6 122.9 778.2 122.9 778.2 131.1 770 131.1 770 139.3 778.2 139.3 778.2 147.5 786.4 147.5 786.4 155.7 794.6 155.7 794.6 147.5 802.8 147.5 802.8 139.3 811 139.3 811 122.9 802.8 122.9"/>
    <polygon points="450.6 106.5 458.8 106.5 458.8 98.3 450.6 98.3 450.6 90.1 442.4 90.1 442.4 81.9 426 81.9 426 106.5 434.2 106.5 434.2 114.7 450.6 114.7"/>
    <polygon points="958.5 98.3 950.3 98.3 950.3 106.5 933.9 106.5 933.9 114.7 925.7 114.7 925.7 122.9 933.9 122.9 933.9 139.3 950.3 139.3 950.3 131.1 958.5 131.1 958.5 122.9 966.7 122.9 966.7 106.5 958.5 106.5"/>
    <polygon points="991.2 98.3 1007.6 98.3 1007.6 90.1 1015.8 90.1 1015.8 81.9 1007.6 81.9 1007.6 73.7 1015.8 73.7 1015.8 65.5 991.2 65.5 991.2 73.7 983 73.7 983 90.1 991.2 90.1"/>
    <polygon points="614.4 90.1 614.4 81.9 606.2 81.9 606.2 90.1 598 90.1 598 81.9 581.6 81.9 581.6 98.3 573.4 98.3 573.4 106.5 581.6 106.5 581.6 114.7 598 114.7 598 106.5 606.2 106.5 606.2 98.3 614.4 98.3"/>
    <polygon points="540.7 90.1 532.5 90.1 532.5 81.9 507.9 81.9 507.9 90.1 499.7 90.1 499.7 114.7 507.9 114.7 507.9 122.9 524.3 122.9 524.3 114.7 532.5 114.7 532.5 98.3 540.7 98.3"/>
    <polygon points="335.9 98.3 327.7 98.3 327.7 106.5 335.9 106.5 335.9 122.9 360.4 122.9 360.4 106.5 368.6 106.5 368.6 90.1 360.4 90.1 360.4 81.9 352.3 81.9 352.3 90.1 335.9 90.1"/>
    <polygon points="147.5 98.3 147.5 106.5 172 106.5 172 98.3 180.2 98.3 180.2 73.7 172 73.7 172 65.5 163.8 65.5 163.8 73.7 147.5 73.7 147.5 81.9 139.3 81.9 139.3 90.1 147.5 90.1"/>
    <polygon points="696.3 81.9 688.1 81.9 688.1 90.1 671.7 90.1 671.7 98.3 663.5 98.3 663.5 106.5 671.7 106.5 671.7 122.9 696.3 122.9 696.3 106.5 704.5 106.5 704.5 90.1 696.3 90.1"/>
    <polygon points="458.8 90.1 458.8 81.9 450.6 81.9 450.6 90.1"/>
    <polygon points="811 73.7 794.6 73.7 794.6 81.9 786.4 81.9 786.4 98.3 811 98.3 811 90.1 819.2 90.1 819.2 81.9 811 81.9"/>
    <polygon points="606.2 73.7 598 73.7 598 81.9 606.2 81.9"/>
    <polygon points="450.6 73.7 442.4 73.7 442.4 81.9 450.6 81.9"/>
    <polygon points="237.6 73.7 237.6 81.9 221.2 81.9 221.2 98.3 245.8 98.3 245.8 90.1 253.9 90.1 253.9 81.9 245.8 81.9 245.8 73.7"/>
    <polygon points="933.9 73.7 950.3 73.7 950.3 65.5 958.5 65.5 958.5 41 950.3 41 950.3 32.8 933.9 32.8 933.9 49.1 925.7 49.1 925.7 65.5 933.9 65.5"/>
    <polygon points="884.7 65.5 876.5 65.5 876.5 73.7 860.2 73.7 860.2 81.9 852 81.9 852 98.3 860.2 98.3 860.2 106.5 884.7 106.5 884.7 90.1 892.9 90.1 892.9 73.7 884.7 73.7"/>
    <polygon points="761.9 65.5 770 65.5 770 32.8 761.9 32.8 761.9 24.6 753.7 24.6 753.7 32.8 737.3 32.8 737.3 49.1 729.1 49.1 729.1 65.5 737.3 65.5 737.3 73.7 761.9 73.7"/>
    <polygon points="270.3 73.7 294.9 73.7 294.9 65.5 303.1 65.5 303.1 41 294.9 41 294.9 32.8 270.3 32.8 270.3 57.3 262.1 57.3 262.1 65.5 270.3 65.5"/>
    <polygon points="81.9 73.7 98.3 73.7 98.3 65.5 106.5 65.5 106.5 57.3 114.7 57.3 114.7 49.1 106.5 49.1 106.5 32.8 81.9 32.8 81.9 41 73.7 41 73.7 65.5 81.9 65.5"/>
    <polygon points="32.8 65.5 24.6 65.5 24.6 81.9 16.4 81.9 16.4 90.1 24.6 90.1 24.6 98.3 41 98.3 41 90.1 49.1 90.1 49.1 81.9 41 81.9 41 73.7 49.1 73.7 49.1 65.5"/>
    <polygon points="221.2 57.3 229.4 57.3 229.4 41 237.6 41 237.6 24.6 229.4 24.6 229.4 16.4 221.2 16.4 221.2 24.6 204.8 24.6 204.8 32.8 213 32.8 213 41 204.8 41 204.8 49.1 213 49.1 213 57.3"/>
    <polygon points="647.2 49.1 647.2 65.5 655.4 65.5 655.4 57.3 671.7 57.3 671.7 41 679.9 41 679.9 24.6 647.2 24.6 647.2 32.8 639 32.8 639 41 647.2 41"/>
    <polygon points="499.7 49.1 507.9 49.1 507.9 57.3 524.3 57.3 524.3 49.1 532.5 49.1 532.5 41 540.7 41 540.7 24.6 532.5 24.6 532.5 16.4 507.9 16.4 507.9 24.6 499.7 24.6 499.7 32.8 491.5 32.8 491.5 41 499.7 41"/>
    <polygon points="360.4 49.1 360.4 57.3 376.8 57.3 376.8 65.5 385 65.5 385 41 393.2 41 393.2 32.8 385 32.8 385 24.6 368.6 24.6 368.6 16.4 360.4 16.4 360.4 32.8 352.3 32.8 352.3 41 360.4 41"/>
    <polygon points="581.6 41 581.6 49.1 598 49.1 598 41 606.2 41 606.2 32.8 614.4 32.8 614.4 16.4 581.6 16.4 581.6 24.6 573.4 24.6 573.4 32.8 565.3 32.8 565.3 41"/>
    <polygon points="426 41 434.2 41 434.2 49.1 450.6 49.1 450.6 41 466.9 41 466.9 32.8 458.8 32.8 458.8 16.4 450.6 16.4 450.6 8.2 442.4 8.2 442.4 16.4 426 16.4 426 24.6 417.8 24.6 417.8 32.8 426 32.8"/>
    <polygon points="983 32.8 1007.6 32.8 1007.6 24.6 1015.8 24.6 1015.8 8.2 1007.6 8.2 1007.6 0 974.9 0 974.9 24.6 983 24.6"/>
    <polygon points="811 16.4 811 24.6 802.8 24.6 802.8 32.8 794.6 32.8 794.6 41 802.8 41 802.8 57.3 819.2 57.3 819.2 49.1 827.4 49.1 827.4 16.4"/>
    <polygon points="147.5 24.6 172 24.6 172 16.4 180.2 16.4 180.2 0 147.5 0 147.5 8.2 139.3 8.2 139.3 16.4 147.5 16.4"/>
    <polygon points="802.8 8.2 794.6 8.2 794.6 16.4 802.8 16.4"/>
    <polygon points="720.9 8.2 729.1 8.2 729.1 0 712.7 0 712.7 8.2 704.5 8.2 704.5 16.4 720.9 16.4"/>
    <polygon points="327.7 8.2 335.9 8.2 335.9 0 303.1 0 303.1 8.2 311.3 8.2 311.3 16.4 327.7 16.4"/>
    <polygon points="245.8 8.2 237.6 8.2 237.6 16.4 245.8 16.4"/>
    <polygon points="942.1 0 933.9 0 933.9 8.2 942.1 8.2"/>
    <polygon points="852 0 852 16.4 860.2 16.4 860.2 24.6 884.7 24.6 884.7 16.4 892.9 16.4 892.9 0"/>
    <polygon points="696.3 0 696.3 8.2 704.5 8.2 704.5 0"/>
    <polygon points="24.6 0 24.6 8.2 16.4 8.2 16.4 24.6 24.6 24.6 24.6 32.8 49.1 32.8 49.1 24.6 57.3 24.6 57.3 0"/>
  </g>
  <g fill="#CEB89B">
    <polygon points="81.9 180.2 90.1 180.2 90.1 172 81.9 172"/>
    <polygon points="925.7 172 933.9 172 933.9 163.8 925.7 163.8"/>
    <polygon points="98.3 163.8 90.1 163.8 90.1 172 114.7 172 114.7 163.8"/>
    <polygon points="983 163.8 991.2 163.8 991.2 155.7 983 155.7"/>
    <polygon points="933.9 155.7 933.9 163.8 950.3 163.8 950.3 155.7"/>
    <polygon points="540.7 155.7 548.9 155.7 548.9 147.5 540.7 147.5"/>
    <polygon points="450.6 155.7 458.8 155.7 458.8 147.5 450.6 147.5"/>
    <polygon points="8.2 147.5 8.2 155.7 24.6 155.7 24.6 147.5"/>
    <polygon points="991.2 139.3 991.2 155.7 999.4 155.7 999.4 147.5 1007.6 147.5 1007.6 139.3"/>
    <polygon points="843.8 147.5 852 147.5 852 139.3 843.8 139.3"/>
    <polygon points="712.7 147.5 720.9 147.5 720.9 139.3 712.7 139.3"/>
    <polygon points="548.9 139.3 548.9 147.5 565.3 147.5 565.3 139.3"/>
    <polygon points="458.8 139.3 458.8 147.5 475.1 147.5 475.1 139.3"/>
    <polygon points="147.5 147.5 155.7 147.5 155.7 139.3 147.5 139.3"/>
    <polygon points="24.6 139.3 24.6 147.5 41 147.5 41 139.3"/>
    <polygon points="852 131.1 852 139.3 868.4 139.3 868.4 131.1"/>
    <polygon points="622.6 139.3 630.8 139.3 630.8 131.1 622.6 131.1"/>
    <polygon points="368.6 139.3 376.8 139.3 376.8 131.1 368.6 131.1"/>
    <polygon points="155.7 131.1 155.7 139.3 172 139.3 172 131.1"/>
    <polygon points="770 131.1 778.2 131.1 778.2 122.9 770 122.9"/>
    <polygon points="720.9 122.9 720.9 131.1 737.3 131.1 737.3 122.9"/>
    <polygon points="630.8 122.9 630.8 131.1 647.2 131.1 647.2 122.9"/>
    <polygon points="376.8 122.9 376.8 131.1 393.2 131.1 393.2 122.9"/>
    <polygon points="221.2 131.1 229.4 131.1 229.4 122.9 221.2 122.9"/>
    <polygon points="778.2 114.7 778.2 122.9 794.6 122.9 794.6 114.7"/>
    <polygon points="237.6 122.9 245.8 122.9 245.8 114.7 237.6 114.7"/>
    <polygon points="925.7 114.7 933.9 114.7 933.9 106.5 925.7 106.5"/>
    <polygon points="65.5 114.7 73.7 114.7 73.7 106.5 65.5 106.5"/>
    <polygon points="933.9 98.3 933.9 106.5 950.3 106.5 950.3 98.3"/>
    <polygon points="90.1 106.5 98.3 106.5 98.3 98.3 73.7 98.3 73.7 106.5"/>
    <polygon points="991.2 98.3 991.2 90.1 983 90.1 983 98.3"/>
    <polygon points="663.5 98.3 671.7 98.3 671.7 90.1 663.5 90.1"/>
    <polygon points="491.5 98.3 499.7 98.3 499.7 90.1 491.5 90.1"/>
    <polygon points="327.7 98.3 335.9 98.3 335.9 90.1 327.7 90.1"/>
    <polygon points="778.2 90.1 786.4 90.1 786.4 81.9 778.2 81.9"/>
    <polygon points="671.7 81.9 671.7 90.1 688.1 90.1 688.1 81.9"/>
    <polygon points="573.4 90.1 581.6 90.1 581.6 81.9 573.4 81.9"/>
    <polygon points="499.7 90.1 507.9 90.1 507.9 81.9 499.7 81.9"/>
    <polygon points="417.8 90.1 417.8 98.3 426 98.3 426 81.9 417.8 81.9"/>
    <polygon points="335.9 81.9 335.9 90.1 352.3 90.1 352.3 81.9"/>
    <polygon points="213 90.1 221.2 90.1 221.2 81.9 213 81.9"/>
    <polygon points="974.9 81.9 974.9 90.1 983 90.1 983 73.7 974.9 73.7"/>
    <polygon points="852 81.9 860.2 81.9 860.2 73.7 852 73.7"/>
    <polygon points="786.4 81.9 794.6 81.9 794.6 73.7 786.4 73.7"/>
    <polygon points="581.6 73.7 581.6 81.9 598 81.9 598 73.7"/>
    <polygon points="507.9 73.7 507.9 81.9 524.3 81.9 524.3 73.7"/>
    <polygon points="426 73.7 426 81.9 442.4 81.9 442.4 73.7"/>
    <polygon points="237.6 73.7 221.2 73.7 221.2 81.9 237.6 81.9"/>
    <polygon points="147.5 73.7 139.3 73.7 139.3 81.9 147.5 81.9"/>
    <polygon points="8.2 81.9 16.4 81.9 16.4 73.7 8.2 73.7"/>
    <polygon points="983 73.7 991.2 73.7 991.2 65.5 983 65.5"/>
    <polygon points="860.2 65.5 860.2 73.7 876.5 73.7 876.5 65.5"/>
    <polygon points="163.8 73.7 163.8 65.5 147.5 65.5 147.5 73.7"/>
    <polygon points="16.4 73.7 24.6 73.7 24.6 65.5 16.4 65.5"/>
    <polygon points="991.2 57.3 991.2 65.5 1007.6 65.5 1007.6 57.3"/>
    <polygon points="24.6 57.3 24.6 65.5 41 65.5 41 57.3"/>
    <polygon points="925.7 49.1 917.5 49.1 917.5 57.3 925.7 57.3"/>
    <polygon points="262.1 57.3 270.3 57.3 270.3 49.1 262.1 49.1"/>
    <polygon points="933.9 41 933.9 32.8 925.7 32.8 925.7 49.1 933.9 49.1"/>
    <polygon points="729.1 49.1 737.3 49.1 737.3 41 729.1 41"/>
    <polygon points="73.7 41 65.5 41 65.5 49.1 73.7 49.1"/>
    <polygon points="262.1 41 270.3 41 270.3 32.8 262.1 32.8"/>
    <polygon points="213 32.8 204.8 32.8 204.8 41 213 41"/>
    <polygon points="81.9 32.8 73.7 32.8 73.7 41 81.9 41"/>
    <polygon points="942.1 24.6 933.9 24.6 933.9 32.8 942.1 32.8"/>
    <polygon points="794.6 32.8 802.8 32.8 802.8 24.6 794.6 24.6"/>
    <polygon points="737.3 24.6 737.3 32.8 753.7 32.8 753.7 24.6"/>
    <polygon points="639 32.8 647.2 32.8 647.2 24.6 639 24.6"/>
    <polygon points="491.5 32.8 499.7 32.8 499.7 24.6 491.5 24.6"/>
    <polygon points="385 32.8 393.2 32.8 393.2 24.6 385 24.6"/>
    <polygon points="352.3 32.8 360.4 32.8 360.4 24.6 352.3 24.6"/>
    <polygon points="278.5 24.6 270.3 24.6 270.3 32.8 294.9 32.8 294.9 24.6"/>
    <polygon points="98.3 24.6 90.1 24.6 90.1 32.8 98.3 32.8"/>
    <polygon points="802.8 24.6 811 24.6 811 16.4 802.8 16.4"/>
    <polygon points="671.7 24.6 671.7 16.4 655.4 16.4 655.4 24.6"/>
    <polygon points="573.4 24.6 581.6 24.6 581.6 16.4 573.4 16.4"/>
    <polygon points="499.7 24.6 507.9 24.6 507.9 16.4 499.7 16.4"/>
    <polygon points="417.8 24.6 426 24.6 426 16.4 417.8 16.4"/>
    <polygon points="376.8 16.4 368.6 16.4 368.6 24.6 376.8 24.6"/>
    <polygon points="221.2 24.6 221.2 16.4 204.8 16.4 204.8 24.6"/>
    <polygon points="794.6 8.2 786.4 8.2 786.4 16.4 794.6 16.4"/>
    <polygon points="589.8 8.2 581.6 8.2 581.6 16.4 606.2 16.4 606.2 8.2"/>
    <polygon points="507.9 8.2 507.9 16.4 524.3 16.4 524.3 8.2"/>
    <polygon points="426 8.2 426 16.4 442.4 16.4 442.4 8.2"/>
    <polygon points="237.6 8.2 229.4 8.2 229.4 16.4 237.6 16.4"/>
    <polygon points="1007.6 0 1007.6 8.2 1015.8 8.2 1015.8 0"/>
    <polygon points="147.5 0 139.3 0 139.3 8.2 147.5 8.2"/>
    <polygon points="24.6 0 16.4 0 16.4 8.2 24.6 8.2"/>
  </g>
  <g fill="#333F89">
    <polygon points="1015.8 180.2 1024 180.2 1024 172 1015.8 172"/>
    <polygon points="983 180.2 991.2 180.2 991.2 172 983 172"/>
    <polygon points="909.3 180.2 917.5 180.2 917.5 172 909.3 172"/>
    <polygon points="884.7 180.2 892.9 180.2 892.9 172 884.7 172"/>
    <polygon points="647.2 180.2 647.2 172 639 172 639 180.2"/>
    <polygon points="581.6 180.2 589.8 180.2 589.8 172 581.6 172"/>
    <polygon points="532.5 180.2 532.5 172 524.3 172 524.3 180.2"/>
    <polygon points="499.7 180.2 507.9 180.2 507.9 172 499.7 172"/>
    <polygon points="442.4 180.2 450.6 180.2 450.6 172 442.4 172"/>
    <polygon points="180.2 180.2 188.4 180.2 188.4 172 180.2 172"/>
    <polygon points="139.3 172 139.3 180.2 155.7 180.2 155.7 172"/>
    <polygon points="41 180.2 49.1 180.2 49.1 172 41 172"/>
    <polygon points="8.2 180.2 16.4 180.2 16.4 172 8.2 172"/>
    <polygon points="827.4 172 835.6 172 835.6 163.8 827.4 163.8"/>
    <polygon points="811 172 811 180.2 819.2 180.2 819.2 163.8 811 163.8"/>
    <polygon points="794.6 163.8 786.4 163.8 786.4 180.2 802.8 180.2 802.8 172 794.6 172"/>
    <polygon points="761.9 172 770 172 770 163.8 761.9 163.8"/>
    <polygon points="507.9 163.8 507.9 172 524.3 172 524.3 163.8"/>
    <polygon points="262.1 172 270.3 172 270.3 163.8 262.1 163.8"/>
    <polygon points="213 172 213 180.2 221.2 180.2 221.2 163.8 213 163.8"/>
    <polygon points="196.6 172 204.8 172 204.8 163.8 196.6 163.8"/>
    <polygon points="901.1 163.8 909.3 163.8 909.3 155.7 901.1 155.7"/>
    <polygon points="802.8 155.7 802.8 163.8 811 163.8 811 155.7"/>
    <polygon points="745.5 155.7 737.3 155.7 737.3 163.8 729.1 163.8 729.1 155.7 720.9 155.7 720.9 163.8 712.7 163.8 712.7 180.2 720.9 180.2 720.9 172 737.3 172 737.3 180.2 753.7 180.2 753.7 163.8 745.5 163.8"/>
    <polygon points="671.7 163.8 679.9 163.8 679.9 155.7 671.7 155.7"/>
    <polygon points="663.5 155.7 614.4 155.7 614.4 163.8 606.2 163.8 606.2 172 614.4 172 614.4 180.2 622.6 180.2 622.6 172 639 172 639 163.8 655.4 163.8 655.4 172 671.7 172 671.7 163.8 663.5 163.8"/>
    <polygon points="417.8 155.7 376.8 155.7 376.8 163.8 368.6 163.8 368.6 172 376.8 172 376.8 180.2 393.2 180.2 393.2 172 385 172 385 163.8 393.2 163.8 393.2 172 409.6 172 409.6 180.2 417.8 180.2 417.8 172 426 172 426 163.8 417.8 163.8"/>
    <polygon points="352.3 163.8 360.4 163.8 360.4 155.7 352.3 155.7"/>
    <polygon points="311.3 155.7 303.1 155.7 303.1 163.8 294.9 163.8 294.9 155.7 286.7 155.7 286.7 163.8 278.5 163.8 278.5 172 286.7 172 286.7 180.2 303.1 180.2 303.1 172 311.3 172 311.3 180.2 319.5 180.2 319.5 163.8 311.3 163.8"/>
    <polygon points="253.9 155.7 253.9 147.5 245.8 147.5 245.8 155.7 237.6 155.7 237.6 147.5 229.4 147.5 229.4 155.7 221.2 155.7 221.2 163.8 237.6 163.8 237.6 172 229.4 172 229.4 180.2 253.9 180.2 253.9 172 245.8 172 245.8 163.8 262.1 163.8 262.1 155.7"/>
    <polygon points="114.7 163.8 122.9 163.8 122.9 155.7 114.7 155.7"/>
    <polygon points="98.3 163.8 106.5 163.8 106.5 155.7 98.3 155.7"/>
    <polygon points="8.2 155.7 0 155.7 0 172 8.2 172"/>
    <polygon points="909.3 155.7 917.5 155.7 917.5 147.5 909.3 147.5"/>
    <polygon points="794.6 147.5 794.6 155.7 802.8 155.7 802.8 147.5"/>
    <polygon points="786.4 147.5 778.2 147.5 778.2 155.7 770 155.7 770 163.8 786.4 163.8"/>
    <polygon points="589.8 155.7 598 155.7 598 147.5 589.8 147.5"/>
    <polygon points="524.3 155.7 524.3 163.8 532.5 163.8 532.5 147.5 524.3 147.5"/>
    <polygon points="507.9 147.5 499.7 147.5 499.7 163.8 507.9 163.8"/>
    <polygon points="442.4 147.5 434.2 147.5 434.2 155.7 442.4 155.7"/>
    <polygon points="106.5 147.5 106.5 155.7 114.7 155.7 114.7 147.5"/>
    <polygon points="966.7 139.3 925.7 139.3 925.7 163.8 933.9 163.8 933.9 155.7 942.1 155.7 942.1 147.5 950.3 147.5 950.3 155.7 966.7 155.7 966.7 180.2 974.9 180.2 974.9 147.5 966.7 147.5"/>
    <polygon points="901.1 139.3 892.9 139.3 892.9 147.5 901.1 147.5"/>
    <polygon points="827.4 147.5 835.6 147.5 835.6 139.3 827.4 139.3"/>
    <polygon points="688.1 147.5 688.1 155.7 696.3 155.7 696.3 139.3 688.1 139.3"/>
    <polygon points="532.5 147.5 540.7 147.5 540.7 139.3 532.5 139.3"/>
    <polygon points="491.5 139.3 491.5 147.5 499.7 147.5 499.7 139.3"/>
    <polygon points="196.6 147.5 204.8 147.5 204.8 139.3 196.6 139.3"/>
    <polygon points="139.3 139.3 131.1 139.3 131.1 147.5 139.3 147.5"/>
    <polygon points="106.5 147.5 106.5 139.3 65.5 139.3 65.5 147.5 57.3 147.5 57.3 180.2 65.5 180.2 65.5 172 73.7 172 73.7 163.8 65.5 163.8 65.5 155.7 81.9 155.7 81.9 147.5 90.1 147.5 90.1 155.7 98.3 155.7 98.3 147.5"/>
    <polygon points="1007.6 139.3 1015.8 139.3 1015.8 131.1 1007.6 131.1"/>
    <polygon points="909.3 139.3 917.5 139.3 917.5 131.1 909.3 131.1"/>
    <polygon points="819.2 131.1 819.2 139.3 827.4 139.3 827.4 131.1"/>
    <polygon points="712.7 131.1 712.7 122.9 704.5 122.9 704.5 131.1 696.3 131.1 696.3 139.3 712.7 139.3"/>
    <polygon points="589.8 139.3 598 139.3 598 131.1 589.8 131.1"/>
    <polygon points="434.2 139.3 442.4 139.3 442.4 131.1 434.2 131.1"/>
    <polygon points="213 131.1 204.8 131.1 204.8 139.3 213 139.3"/>
    <polygon points="114.7 139.3 122.9 139.3 122.9 131.1 114.7 131.1"/>
    <polygon points="16.4 139.3 24.6 139.3 24.6 131.1 16.4 131.1"/>
    <polygon points="0 139.3 8.2 139.3 8.2 131.1 0 131.1"/>
    <polygon points="999.4 122.9 999.4 131.1 1007.6 131.1 1007.6 122.9"/>
    <polygon points="892.9 131.1 901.1 131.1 901.1 114.7 892.9 114.7"/>
    <polygon points="696.3 131.1 696.3 122.9 679.9 122.9 679.9 131.1 671.7 131.1 671.7 139.3 688.1 139.3 688.1 131.1"/>
    <polygon points="606.2 131.1 606.2 147.5 614.4 147.5 614.4 106.5 598 106.5 598 114.7 573.4 114.7 573.4 139.3 581.6 139.3 581.6 122.9 606.2 122.9"/>
    <polygon points="548.9 122.9 540.7 122.9 540.7 106.5 532.5 106.5 532.5 114.7 524.3 114.7 524.3 122.9 507.9 122.9 507.9 114.7 499.7 114.7 499.7 106.5 491.5 106.5 491.5 122.9 483.3 122.9 483.3 131.1 475.1 131.1 475.1 139.3 491.5 139.3 491.5 131.1 499.7 131.1 499.7 139.3 507.9 139.3 507.9 147.5 524.3 147.5 524.3 139.3 532.5 139.3 532.5 131.1 540.7 131.1 540.7 139.3 557.1 139.3 557.1 131.1 548.9 131.1"/>
    <polygon points="376.8 131.1 376.8 122.9 368.6 122.9 368.6 131.1"/>
    <polygon points="344.1 122.9 335.9 122.9 335.9 114.7 327.7 114.7 327.7 122.9 319.5 122.9 319.5 131.1 327.7 131.1 327.7 155.7 344.1 155.7 344.1 139.3 352.3 139.3 352.3 147.5 360.4 147.5 360.4 122.9"/>
    <polygon points="57.3 122.9 57.3 114.7 49.1 114.7 49.1 106.5 41 106.5 41 98.3 24.6 98.3 24.6 106.5 16.4 106.5 16.4 98.3 8.2 98.3 8.2 106.5 0 106.5 0 114.7 8.2 114.7 8.2 131.1 16.4 131.1 16.4 122.9 24.6 122.9 24.6 114.7 32.8 114.7 32.8 122.9 41 122.9 41 147.5 49.1 147.5 49.1 131.1 57.3 131.1"/>
    <polygon points="24.6 131.1 32.8 131.1 32.8 122.9 24.6 122.9"/>
    <polygon points="843.8 122.9 852 122.9 852 114.7 843.8 114.7"/>
    <polygon points="761.9 122.9 770 122.9 770 106.5 761.9 106.5"/>
    <polygon points="704.5 114.7 696.3 114.7 696.3 122.9 704.5 122.9"/>
    <polygon points="671.7 114.7 663.5 114.7 663.5 122.9 655.4 122.9 655.4 131.1 671.7 131.1"/>
    <polygon points="442.4 114.7 434.2 114.7 434.2 106.5 417.8 106.5 417.8 139.3 426 139.3 426 131.1 434.2 131.1 434.2 122.9 442.4 122.9 442.4 131.1 450.6 131.1 450.6 139.3 458.8 139.3 458.8 114.7"/>
    <polygon points="368.6 114.7 360.4 114.7 360.4 122.9 368.6 122.9"/>
    <polygon points="213 114.7 221.2 114.7 221.2 106.5 213 106.5 213 98.3 204.8 98.3 204.8 122.9 213 122.9"/>
    <polygon points="180.2 122.9 188.4 122.9 188.4 114.7 180.2 114.7"/>
    <polygon points="131.1 122.9 131.1 131.1 139.3 131.1 139.3 114.7 131.1 114.7"/>
    <polygon points="909.3 114.7 909.3 122.9 917.5 122.9 917.5 106.5 909.3 106.5"/>
    <polygon points="876.5 106.5 868.4 106.5 868.4 114.7 860.2 114.7 860.2 131.1 868.4 131.1 868.4 122.9 884.7 122.9 884.7 114.7 876.5 114.7"/>
    <polygon points="852 106.5 852 114.7 860.2 114.7 860.2 106.5"/>
    <polygon points="639 114.7 647.2 114.7 647.2 106.5 639 106.5"/>
    <polygon points="622.6 114.7 630.8 114.7 630.8 106.5 622.6 106.5"/>
    <polygon points="557.1 114.7 565.3 114.7 565.3 106.5 557.1 106.5"/>
    <polygon points="475.1 106.5 466.9 106.5 466.9 114.7 475.1 114.7"/>
    <polygon points="401.4 114.7 409.6 114.7 409.6 106.5 401.4 106.5"/>
    <polygon points="385 114.7 393.2 114.7 393.2 106.5 385 106.5"/>
    <polygon points="262.1 114.7 262.1 122.9 270.3 122.9 270.3 106.5 262.1 106.5"/>
    <polygon points="245.8 114.7 253.9 114.7 253.9 106.5 245.8 106.5"/>
    <polygon points="163.8 106.5 155.7 106.5 155.7 114.7 147.5 114.7 147.5 122.9 163.8 122.9 163.8 131.1 172 131.1 172 114.7 163.8 114.7"/>
    <polygon points="114.7 114.7 114.7 122.9 122.9 122.9 122.9 106.5 114.7 106.5"/>
    <polygon points="1015.8 106.5 1007.6 106.5 1007.6 98.3 983 98.3 983 106.5 974.9 106.5 974.9 131.1 983 131.1 983 147.5 991.2 147.5 991.2 122.9 999.4 122.9 999.4 114.7 1007.6 114.7 1007.6 122.9 1015.8 122.9 1015.8 131.1 1024 131.1 1024 98.3 1015.8 98.3"/>
    <polygon points="925.7 98.3 933.9 98.3 933.9 90.1 942.1 90.1 942.1 98.3 958.5 98.3 958.5 81.9 950.3 81.9 950.3 73.7 925.7 73.7 925.7 81.9 909.3 81.9 909.3 90.1 917.5 90.1 917.5 106.5 925.7 106.5"/>
    <polygon points="901.1 98.3 901.1 106.5 909.3 106.5 909.3 98.3"/>
    <polygon points="802.8 98.3 778.2 98.3 778.2 114.7 802.8 114.7 802.8 122.9 811 122.9 811 114.7 819.2 114.7 819.2 122.9 827.4 122.9 827.4 98.3 819.2 98.3 819.2 106.5 811 106.5 811 98.3"/>
    <polygon points="761.9 98.3 761.9 73.7 737.3 73.7 737.3 90.1 745.5 90.1 745.5 98.3 737.3 98.3 737.3 90.1 729.1 90.1 729.1 122.9 737.3 122.9 737.3 114.7 745.5 114.7 745.5 122.9 753.7 122.9 753.7 106.5 761.9 106.5"/>
    <polygon points="548.9 98.3 548.9 106.5 557.1 106.5 557.1 98.3"/>
    <polygon points="483.3 98.3 475.1 98.3 475.1 106.5 483.3 106.5"/>
    <polygon points="319.5 106.5 327.7 106.5 327.7 90.1 319.5 90.1"/>
    <polygon points="229.4 106.5 237.6 106.5 237.6 98.3 229.4 98.3"/>
    <polygon points="139.3 106.5 147.5 106.5 147.5 90.1 131.1 90.1 131.1 98.3 139.3 98.3"/>
    <polygon points="131.1 98.3 122.9 98.3 122.9 106.5 131.1 106.5"/>
    <polygon points="1015.8 90.1 1007.6 90.1 1007.6 98.3 1015.8 98.3"/>
    <polygon points="966.7 98.3 974.9 98.3 974.9 90.1 966.7 90.1"/>
    <polygon points="892.9 90.1 884.7 90.1 884.7 114.7 892.9 114.7 892.9 98.3 901.1 98.3 901.1 90.1"/>
    <polygon points="843.8 98.3 852 98.3 852 90.1 843.8 90.1"/>
    <polygon points="704.5 98.3 704.5 106.5 712.7 106.5 712.7 90.1 704.5 90.1"/>
    <polygon points="630.8 90.1 622.6 90.1 622.6 98.3 630.8 98.3"/>
    <polygon points="409.6 90.1 401.4 90.1 401.4 98.3 409.6 98.3"/>
    <polygon points="294.9 98.3 286.7 98.3 286.7 90.1 294.9 90.1 294.9 73.7 278.5 73.7 278.5 122.9 286.7 122.9 286.7 114.7 294.9 114.7 294.9 122.9 303.1 122.9 303.1 90.1 294.9 90.1"/>
    <polygon points="180.2 98.3 188.4 98.3 188.4 90.1 180.2 90.1"/>
    <polygon points="114.7 90.1 106.5 90.1 106.5 73.7 65.5 73.7 65.5 81.9 73.7 81.9 73.7 98.3 90.1 98.3 90.1 81.9 98.3 81.9 98.3 98.3 106.5 98.3 106.5 106.5 114.7 106.5"/>
    <polygon points="57.3 98.3 65.5 98.3 65.5 90.1 57.3 90.1"/>
    <polygon points="0 90.1 0 98.3 8.2 98.3 8.2 90.1"/>
    <polygon points="720.9 81.9 712.7 81.9 712.7 90.1 729.1 90.1 729.1 81.9"/>
    <polygon points="540.7 90.1 548.9 90.1 548.9 81.9 540.7 81.9"/>
    <polygon points="491.5 90.1 491.5 81.9 483.3 81.9 483.3 90.1"/>
    <polygon points="311.3 81.9 303.1 81.9 303.1 90.1 319.5 90.1 319.5 81.9"/>
    <polygon points="253.9 90.1 262.1 90.1 262.1 73.7 253.9 73.7"/>
    <polygon points="122.9 81.9 114.7 81.9 114.7 90.1 122.9 90.1"/>
    <polygon points="966.7 73.7 958.5 73.7 958.5 81.9 966.7 81.9"/>
    <polygon points="819.2 73.7 819.2 57.3 794.6 57.3 794.6 49.1 786.4 49.1 786.4 65.5 794.6 65.5 794.6 73.7 811 73.7 811 81.9 819.2 81.9 819.2 90.1 827.4 90.1 827.4 81.9 835.6 81.9 835.6 73.7"/>
    <polygon points="770 81.9 770 90.1 778.2 90.1 778.2 73.7 770 73.7"/>
    <polygon points="688.1 81.9 688.1 73.7 679.9 73.7 679.9 81.9"/>
    <polygon points="663.5 81.9 671.7 81.9 671.7 73.7 663.5 73.7"/>
    <polygon points="581.6 81.9 581.6 65.5 589.8 65.5 589.8 73.7 598 73.7 598 57.3 614.4 57.3 614.4 49.1 606.2 49.1 606.2 41 598 41 598 49.1 581.6 49.1 581.6 41 573.4 41 573.4 49.1 565.3 49.1 565.3 81.9"/>
    <polygon points="557.1 81.9 557.1 73.7 548.9 73.7 548.9 81.9"/>
    <polygon points="475.1 81.9 483.3 81.9 483.3 73.7 475.1 73.7"/>
    <polygon points="466.9 73.7 466.9 49.1 458.8 49.1 458.8 41 450.6 41 450.6 49.1 434.2 49.1 434.2 41 426 41 426 49.1 417.8 49.1 417.8 57.3 426 57.3 426 65.5 434.2 65.5 434.2 73.7 442.4 73.7 442.4 65.5 450.6 65.5 450.6 81.9 466.9 81.9"/>
    <polygon points="204.8 73.7 196.6 73.7 196.6 81.9 204.8 81.9"/>
    <polygon points="909.3 73.7 917.5 73.7 917.5 65.5 909.3 65.5"/>
    <polygon points="843.8 73.7 860.2 73.7 860.2 57.3 868.4 57.3 868.4 65.5 884.7 65.5 884.7 73.7 901.1 73.7 901.1 41 892.9 41 892.9 32.8 876.5 32.8 876.5 24.6 868.4 24.6 868.4 32.8 843.8 32.8 843.8 41 852 41 852 49.1 843.8 49.1 843.8 57.3 835.6 57.3 835.6 65.5 843.8 65.5"/>
    <polygon points="778.2 73.7 786.4 73.7 786.4 65.5 778.2 65.5"/>
    <polygon points="704.5 73.7 712.7 73.7 712.7 65.5 704.5 65.5"/>
    <polygon points="696.3 65.5 688.1 65.5 688.1 73.7 696.3 73.7"/>
    <polygon points="606.2 65.5 606.2 73.7 614.4 73.7 614.4 81.9 622.6 81.9 622.6 57.3 614.4 57.3 614.4 65.5"/>
    <polygon points="352.3 73.7 352.3 81.9 385 81.9 385 90.1 368.6 90.1 368.6 98.3 393.2 98.3 393.2 65.5 376.8 65.5 376.8 73.7 368.6 73.7 368.6 65.5 376.8 65.5 376.8 57.3 352.3 57.3"/>
    <polygon points="335.9 73.7 344.1 73.7 344.1 65.5 335.9 65.5"/>
    <polygon points="327.7 65.5 319.5 65.5 319.5 73.7 327.7 73.7"/>
    <polygon points="245.8 65.5 245.8 73.7 253.9 73.7 253.9 65.5"/>
    <polygon points="114.7 73.7 122.9 73.7 122.9 65.5 114.7 65.5"/>
    <polygon points="720.9 65.5 729.1 65.5 729.1 57.3 712.7 57.3 712.7 65.5"/>
    <polygon points="704.5 57.3 696.3 57.3 696.3 65.5 704.5 65.5"/>
    <polygon points="679.9 57.3 655.4 57.3 655.4 65.5 639 65.5 639 98.3 655.4 98.3 655.4 90.1 647.2 90.1 647.2 81.9 655.4 81.9 655.4 73.7 663.5 73.7 663.5 65.5 671.7 65.5 671.7 73.7 679.9 73.7"/>
    <polygon points="630.8 57.3 630.8 65.5 639 65.5 639 57.3"/>
    <polygon points="417.8 57.3 409.6 57.3 409.6 81.9 417.8 81.9 417.8 73.7 426 73.7 426 65.5 417.8 65.5"/>
    <polygon points="401.4 57.3 393.2 57.3 393.2 65.5 401.4 65.5"/>
    <polygon points="311.3 57.3 303.1 57.3 303.1 65.5 311.3 65.5"/>
    <polygon points="196.6 57.3 180.2 57.3 180.2 41 172 41 172 65.5 196.6 65.5"/>
    <polygon points="16.4 65.5 16.4 57.3 8.2 57.3 8.2 65.5"/>
    <polygon points="712.7 49.1 704.5 49.1 704.5 57.3 712.7 57.3"/>
    <polygon points="688.1 49.1 679.9 49.1 679.9 57.3 688.1 57.3"/>
    <polygon points="507.9 49.1 491.5 49.1 491.5 57.3 483.3 57.3 483.3 73.7 499.7 73.7 499.7 65.5 532.5 65.5 532.5 73.7 548.9 73.7 548.9 57.3 540.7 57.3 540.7 49.1 524.3 49.1 524.3 57.3 507.9 57.3"/>
    <polygon points="344.1 49.1 344.1 57.3 352.3 57.3 352.3 49.1"/>
    <polygon points="319.5 57.3 327.7 57.3 327.7 49.1 319.5 49.1"/>
    <polygon points="245.8 49.1 237.6 49.1 237.6 57.3 221.2 57.3 221.2 65.5 213 65.5 213 81.9 221.2 81.9 221.2 73.7 229.4 73.7 229.4 65.5 245.8 65.5"/>
    <polygon points="32.8 57.3 49.1 57.3 49.1 65.5 57.3 65.5 57.3 41 41 41 41 32.8 32.8 32.8 32.8 41 16.4 41 16.4 57.3"/>
    <polygon points="8.2 49.1 0 49.1 0 57.3 8.2 57.3"/>
    <polygon points="1015.8 41 1015.8 32.8 1007.6 32.8 1007.6 41 999.4 41 999.4 49.1 1007.6 49.1 1007.6 57.3 1015.8 57.3 1015.8 65.5 1024 65.5 1024 49.1 1015.8 49.1"/>
    <polygon points="557.1 49.1 557.1 41 548.9 41 548.9 49.1"/>
    <polygon points="483.3 41 475.1 41 475.1 49.1 483.3 49.1"/>
    <polygon points="327.7 49.1 335.9 49.1 335.9 41 327.7 41"/>
    <polygon points="991.2 32.8 983 32.8 983 41 974.9 41 974.9 65.5 983 65.5 983 57.3 991.2 57.3 991.2 41 999.4 41 999.4 32.8"/>
    <polygon points="827.4 41 835.6 41 835.6 32.8 827.4 32.8"/>
    <polygon points="712.7 41 712.7 49.1 720.9 49.1 720.9 32.8 712.7 32.8 712.7 24.6 729.1 24.6 729.1 32.8 737.3 32.8 737.3 24.6 761.9 24.6 761.9 32.8 770 32.8 770 16.4 761.9 16.4 761.9 8.2 753.7 8.2 753.7 16.4 729.1 16.4 729.1 8.2 720.9 8.2 720.9 16.4 696.3 16.4 696.3 24.6 704.5 24.6 704.5 32.8 696.3 32.8 696.3 24.6 688.1 24.6 688.1 41 696.3 41 696.3 49.1 704.5 49.1 704.5 41"/>
    <polygon points="622.6 32.8 622.6 41 630.8 41 630.8 49.1 639 49.1 639 32.8"/>
    <polygon points="540.7 32.8 540.7 41 548.9 41 548.9 32.8"/>
    <polygon points="491.5 32.8 483.3 32.8 483.3 41 491.5 41"/>
    <polygon points="393.2 41 393.2 49.1 401.4 49.1 401.4 41 409.6 41 409.6 32.8 393.2 32.8"/>
    <polygon points="335.9 41 344.1 41 344.1 24.6 335.9 24.6"/>
    <polygon points="319.5 32.8 311.3 32.8 311.3 49.1 319.5 49.1"/>
    <polygon points="204.8 32.8 196.6 32.8 196.6 41 204.8 41"/>
    <polygon points="188.4 32.8 180.2 32.8 180.2 41 188.4 41"/>
    <polygon points="163.8 32.8 163.8 24.6 155.7 24.6 155.7 32.8 139.3 32.8 139.3 41 131.1 41 131.1 73.7 147.5 73.7 147.5 65.5 139.3 65.5 139.3 49.1 147.5 49.1 147.5 41 155.7 41 155.7 49.1 147.5 49.1 147.5 57.3 163.8 57.3 163.8 41 172 41 172 32.8"/>
    <polygon points="8.2 32.8 0 32.8 0 41 8.2 41"/>
    <polygon points="950.3 32.8 950.3 24.6 942.1 24.6 942.1 32.8"/>
    <polygon points="909.3 32.8 925.7 32.8 925.7 16.4 917.5 16.4 917.5 24.6 901.1 24.6 901.1 32.8"/>
    <polygon points="966.7 24.6 966.7 16.4 950.3 16.4 950.3 24.6"/>
    <polygon points="933.9 24.6 942.1 24.6 942.1 8.2 933.9 8.2 933.9 0 917.5 0 917.5 8.2 925.7 8.2 925.7 16.4 933.9 16.4"/>
    <polygon points="901.1 16.4 892.9 16.4 892.9 24.6 901.1 24.6"/>
    <polygon points="835.6 24.6 835.6 16.4 827.4 16.4 827.4 24.6"/>
    <polygon points="786.4 16.4 778.2 16.4 778.2 24.6 802.8 24.6 802.8 16.4"/>
    <polygon points="655.4 24.6 655.4 16.4 671.7 16.4 671.7 24.6 679.9 24.6 679.9 8.2 671.7 8.2 671.7 0 663.5 0 663.5 8.2 647.2 8.2 647.2 16.4 639 16.4 639 24.6"/>
    <polygon points="630.8 16.4 622.6 16.4 622.6 24.6 630.8 24.6"/>
    <polygon points="532.5 24.6 557.1 24.6 557.1 32.8 565.3 32.8 565.3 24.6 573.4 24.6 573.4 16.4 581.6 16.4 581.6 0 565.3 0 565.3 8.2 557.1 8.2 557.1 16.4 540.7 16.4 540.7 8.2 524.3 8.2 524.3 16.4 532.5 16.4"/>
    <polygon points="458.8 24.6 466.9 24.6 466.9 32.8 475.1 32.8 475.1 24.6 499.7 24.6 499.7 16.4 507.9 16.4 507.9 8.2 491.5 8.2 491.5 16.4 475.1 16.4 475.1 8.2 466.9 8.2 466.9 0 450.6 0 450.6 16.4 458.8 16.4"/>
    <polygon points="409.6 16.4 401.4 16.4 401.4 24.6 409.6 24.6"/>
    <polygon points="360.4 16.4 376.8 16.4 376.8 24.6 393.2 24.6 393.2 16.4 385 16.4 385 8.2 368.6 8.2 368.6 0 360.4 0 360.4 8.2 352.3 8.2 352.3 24.6 360.4 24.6"/>
    <polygon points="286.7 24.6 294.9 24.6 294.9 32.8 303.1 32.8 303.1 24.6 319.5 24.6 319.5 32.8 327.7 32.8 327.7 24.6 335.9 24.6 335.9 16.4 311.3 16.4 311.3 8.2 303.1 8.2 303.1 16.4 278.5 16.4 278.5 8.2 270.3 8.2 270.3 16.4 262.1 16.4 262.1 32.8 270.3 32.8 270.3 24.6"/>
    <polygon points="237.6 24.6 253.9 24.6 253.9 16.4 229.4 16.4 229.4 24.6"/>
    <polygon points="204.8 16.4 196.6 16.4 196.6 24.6 204.8 24.6"/>
    <polygon points="139.3 16.4 131.1 16.4 131.1 24.6 139.3 24.6"/>
    <polygon points="81.9 24.6 81.9 32.8 90.1 32.8 90.1 24.6 98.3 24.6 98.3 16.4 106.5 16.4 106.5 32.8 131.1 32.8 131.1 24.6 114.7 24.6 114.7 8.2 122.9 8.2 122.9 0 65.5 0 65.5 8.2 81.9 8.2 81.9 16.4 65.5 16.4 65.5 24.6"/>
    <polygon points="8.2 16.4 0 16.4 0 24.6 8.2 24.6"/>
    <polygon points="221.2 16.4 229.4 16.4 229.4 8.2 262.1 8.2 262.1 0 196.6 0 196.6 8.2 204.8 8.2 204.8 16.4"/>
    <polygon points="16.4 8.2 16.4 0 0 0 0 8.2 8.2 8.2 8.2 16.4 16.4 16.4"/>
    <polygon points="1015.8 0 1015.8 16.4 1024 16.4 1024 0"/>
    <polygon points="958.5 0 950.3 0 950.3 8.2 958.5 8.2"/>
    <polygon points="901.1 0 892.9 0 892.9 8.2 901.1 8.2"/>
    <polygon points="852 0 843.8 0 843.8 8.2 852 8.2"/>
    <polygon points="786.4 8.2 802.8 8.2 802.8 16.4 827.4 16.4 827.4 8.2 835.6 8.2 835.6 0 770 0 770 8.2"/>
    <polygon points="745.5 0 737.3 0 737.3 8.2 753.7 8.2 753.7 0"/>
    <polygon points="639 0 639 8.2 647.2 8.2 647.2 0"/>
    <polygon points="606.2 8.2 630.8 8.2 630.8 0 589.8 0 589.8 8.2"/>
    <polygon points="557.1 8.2 557.1 0 540.7 0 540.7 8.2"/>
    <polygon points="491.5 8.2 491.5 0 475.1 0 475.1 8.2"/>
    <polygon points="417.8 8.2 442.4 8.2 442.4 0 401.4 0 401.4 8.2"/>
    <polygon points="393.2 0 385 0 385 8.2 393.2 8.2"/>
    <polygon points="294.9 8.2 294.9 0 278.5 0 278.5 8.2"/>
    <polygon points="188.4 0 180.2 0 180.2 8.2 188.4 8.2"/>
    <polygon points="139.3 0 131.1 0 131.1 8.2 139.3 8.2"/>
  </g>
</svg>
