<svg xmlns="http://www.w3.org/2000/svg" viewBox="0 0 118 113">
  <polygon fill="#231F20" points="78.7 108.1 78.7 113 73.8 113 73.8 108.1 78.7 108.1"/>
  <g fill="#F7F7F7">
    <polygon points="103.3 49.1 103.3 39.3 98.3 39.3 98.3 29.5 93.4 29.5 93.4 24.6 78.7 24.6 78.7 29.5 83.6 29.5 83.6 34.4 73.8 34.4 73.8 39.3 78.7 39.3 78.7 44.2 73.8 44.2 73.8 54 78.7 54 78.7 59 73.8 59 73.8 68.8 78.7 68.8 78.7 73.7 73.8 73.7 73.8 78.6 88.5 78.6 88.5 83.5 93.4 83.5 93.4 78.6 98.3 78.6 98.3 68.8 103.3 68.8 103.3 63.9 108.2 63.9 108.2 49.1 103.3 49.1"/>
    <polygon points="93.4 93.3 93.4 88.4 88.5 88.4 88.5 93.3 93.4 93.3"/>
    <polygon points="78.7 83.5 78.7 88.4 88.5 88.4 88.5 83.5 78.7 83.5"/>
    <polygon points="73.8 93.3 68.8 93.3 68.8 88.4 73.8 88.4 73.8 78.6 68.8 78.6 68.8 83.5 59 83.5 59 88.4 54.1 88.4 54.1 93.3 49.2 93.3 49.2 103.2 68.8 103.2 68.8 98.3 78.7 98.3 78.7 88.4 73.8 88.4 73.8 93.3"/>
    <polygon points="73.8 24.6 68.8 24.6 68.8 19.6 73.8 19.6 73.8 24.6 78.7 24.6 78.7 14.7 68.8 14.7 68.8 9.8 44.3 9.8 44.3 14.7 49.2 14.7 49.2 19.6 54.1 19.6 54.1 24.6 59 24.6 59 34.4 63.9 34.4 63.9 29.5 68.8 29.5 68.8 34.4 73.8 34.4 73.8 24.6"/>
    <polygon points="63.9 73.7 63.9 78.6 68.8 78.6 68.8 73.7 63.9 73.7"/>
    <polygon points="68.8 54 68.8 44.2 59 44.2 59 49.1 63.9 49.1 63.9 54 68.8 54"/>
    <polygon points="63.9 39.3 68.8 39.3 68.8 34.4 63.9 34.4 63.9 39.3"/>
    <polygon points="59 63.9 63.9 63.9 63.9 68.8 68.8 68.8 68.8 59 59 59 59 63.9"/>
  </g>
  <g fill="#F94646">
    <polygon points="88.5 24.6 88.5 19.6 83.6 19.6 83.6 14.7 78.7 14.7 78.7 24.6 88.5 24.6"/>
    <polygon points="78.7 98.3 83.6 98.3 83.6 93.3 88.5 93.3 88.5 88.4 78.7 88.4 78.7 98.3"/>
    <polygon points="73.8 103.2 78.7 103.2 78.7 98.3 73.8 98.3 73.8 103.2"/>
    <polygon points="73.8 88.4 78.7 88.4 78.7 83.5 83.6 83.5 83.6 78.6 73.8 78.6 73.8 88.4"/>
    <polygon points="73.8 24.6 73.8 34.4 83.6 34.4 83.6 29.5 78.7 29.5 78.7 24.6 73.8 24.6"/>
    <polygon points="73.8 9.8 73.8 14.7 78.7 14.7 78.7 9.8 73.8 9.8"/>
    <polygon points="68.8 93.3 73.8 93.3 73.8 88.4 68.8 88.4 68.8 93.3"/>
    <polygon points="68.8 39.3 63.9 39.3 63.9 44.2 68.8 44.2 68.8 54 63.9 54 63.9 59 68.8 59 68.8 68.8 63.9 68.8 63.9 73.7 68.8 73.7 68.8 78.6 73.8 78.6 73.8 73.7 78.7 73.7 78.7 68.8 73.8 68.8 73.8 59 78.7 59 78.7 54 73.8 54 73.8 44.2 78.7 44.2 78.7 39.3 73.8 39.3 73.8 34.4 68.8 34.4 68.8 39.3"/>
    <polygon points="68.8 19.6 68.8 24.6 73.8 24.6 73.8 19.6 68.8 19.6"/>
    <polygon points="63.9 83.5 68.8 83.5 68.8 78.6 63.9 78.6 63.9 83.5"/>
    <polygon points="63.9 29.5 63.9 34.4 68.8 34.4 68.8 29.5 63.9 29.5"/>
    <polygon points="54.1 83.5 54.1 78.6 49.2 78.6 49.2 83.5 54.1 83.5"/>
    <polygon points="49.2 34.4 54.1 34.4 54.1 29.5 49.2 29.5 49.2 34.4"/>
    <polygon points="49.2 93.3 49.2 88.4 44.3 88.4 44.3 93.3 49.2 93.3"/>
    <polygon points="44.3 39.3 39.3 39.3 39.3 44.2 44.3 44.2 44.3 54 39.3 54 39.3 59 44.3 59 44.3 68.8 39.3 68.8 39.3 73.7 44.3 73.7 44.3 78.6 49.2 78.6 49.2 73.7 54.1 73.7 54.1 68.8 49.2 68.8 49.2 59 54.1 59 54.1 54 49.2 54 49.2 44.2 54.1 44.2 54.1 39.3 49.2 39.3 49.2 34.4 44.3 34.4 44.3 39.3"/>
    <polygon points="49.2 19.6 44.3 19.6 44.3 24.6 49.2 24.6 49.2 19.6"/>
    <polygon points="44.3 103.2 44.3 98.3 39.3 98.3 39.3 103.2 44.3 103.2"/>
    <polygon points="44.3 24.6 39.3 24.6 39.3 29.5 34.4 29.5 34.4 34.4 44.3 34.4 44.3 24.6"/>
    <polygon points="44.3 9.8 39.3 9.8 39.3 14.7 44.3 14.7 44.3 9.8"/>
    <polygon points="34.4 78.6 34.4 83.5 39.3 83.5 39.3 88.4 44.3 88.4 44.3 78.6 34.4 78.6"/>
    <polygon points="39.3 14.7 34.4 14.7 34.4 19.6 29.5 19.6 29.5 24.6 39.3 24.6 39.3 14.7"/>
    <polygon points="29.5 88.4 29.5 93.3 34.4 93.3 34.4 98.3 39.3 98.3 39.3 88.4 29.5 88.4"/>
  </g>
  <g fill="#DDD">
    <polygon points="108.2 44.2 108.2 34.4 103.3 34.4 103.3 24.6 98.3 24.6 98.3 19.6 93.4 19.6 93.4 14.7 83.6 14.7 83.6 19.6 88.5 19.6 88.5 24.6 93.4 24.6 93.4 29.5 98.3 29.5 98.3 39.3 103.3 39.3 103.3 49.1 108.2 49.1 108.2 63.9 103.3 63.9 103.3 68.8 98.3 68.8 98.3 78.6 93.4 78.6 93.4 83.5 88.5 83.5 88.5 88.4 93.4 88.4 93.4 93.3 98.3 93.3 98.3 88.4 103.3 88.4 103.3 78.6 108.2 78.6 108.2 68.8 113.1 68.8 113.1 44.2 108.2 44.2"/>
    <polygon points="83.6 98.3 88.5 98.3 88.5 93.3 83.6 93.3 83.6 98.3"/>
    <polygon points="83.6 78.6 83.6 83.5 88.5 83.5 88.5 78.6 83.6 78.6"/>
    <polygon points="78.7 103.2 83.6 103.2 83.6 98.3 78.7 98.3 78.7 103.2"/>
    <polygon points="78.7 9.8 78.7 14.7 83.6 14.7 83.6 9.8 78.7 9.8"/>
    <polygon points="68.8 103.2 49.2 103.2 49.2 98.3 44.3 98.3 44.3 108.1 73.8 108.1 73.8 98.3 68.8 98.3 68.8 103.2"/>
    <polygon points="44.3 4.9 44.3 9.8 68.8 9.8 68.8 14.7 73.8 14.7 73.8 4.9"/>
    <polygon points="34.4 103.2 39.3 103.2 39.3 98.3 34.4 98.3 34.4 103.2"/>
    <polygon points="29.5 93.3 29.5 88.4 19.7 88.4 19.7 93.3 24.6 93.3 24.6 98.3 34.4 98.3 34.4 93.3 29.5 93.3"/>
    <polygon points="19.7 78.6 14.8 78.6 14.8 88.4 19.7 88.4 19.7 78.6"/>
    <polygon points="14.8 68.8 9.8 68.8 9.8 78.6 14.8 78.6 14.8 68.8"/>
    <polygon points="4.9 63.9 4.9 68.8 9.8 68.8 9.8 63.9 4.9 63.9"/>
  </g>
  <g fill="#FFF">
    <polygon points="59 34.4 59 24.6 54.1 24.6 54.1 19.6 49.2 19.6 49.2 24.6 44.3 24.6 44.3 34.4 49.2 34.4 49.2 29.5 54.1 29.5 54.1 34.4 49.2 34.4 49.2 39.3 54.1 39.3 54.1 44.2 49.2 44.2 49.2 54 54.1 54 54.1 59 49.2 59 49.2 68.8 54.1 68.8 54.1 73.7 49.2 73.7 49.2 78.6 54.1 78.6 54.1 83.5 49.2 83.5 49.2 78.6 44.3 78.6 44.3 88.4 49.2 88.4 49.2 93.3 54.1 93.3 54.1 88.4 59 88.4 59 83.5 63.9 83.5 63.9 63.9 59 63.9 59 59 63.9 59 63.9 49.1 59 49.1 59 44.2 63.9 44.2 63.9 34.4 59 34.4"/>
    <polygon points="44.3 88.4 39.3 88.4 39.3 98.3 49.2 98.3 49.2 93.3 44.3 93.3 44.3 88.4"/>
    <polygon points="39.3 24.6 44.3 24.6 44.3 19.6 49.2 19.6 49.2 14.7 39.3 14.7 39.3 24.6"/>
    <polygon points="34.4 83.5 34.4 78.6 44.3 78.6 44.3 73.7 39.3 73.7 39.3 68.8 44.3 68.8 44.3 59 39.3 59 39.3 54 44.3 54 44.3 44.2 39.3 44.2 39.3 39.3 44.3 39.3 44.3 34.4 34.4 34.4 34.4 29.5 39.3 29.5 39.3 24.6 29.5 24.6 29.5 19.6 34.4 19.6 34.4 14.7 24.6 14.7 24.6 19.6 19.7 19.6 19.7 24.6 14.8 24.6 14.8 34.4 9.8 34.4 9.8 44.2 4.9 44.2 4.9 63.9 9.8 63.9 9.8 68.8 14.8 68.8 14.8 78.6 19.7 78.6 19.7 88.4 39.3 88.4 39.3 83.5 34.4 83.5"/>
    <polygon points="39.3 9.8 34.4 9.8 34.4 14.7 39.3 14.7 39.3 9.8"/>
  </g>
  <polygon points="113.1 44.2 113.1 68.8 118 68.8 118 44.2 113.1 44.2"/>
  <rect width="4.9" height="9.8" x="108.2" y="68.8"/>
  <polygon points="108.2 44.2 113.1 44.2 113.1 34.4 108.2 34.4 108.2 44.2"/>
  <rect width="4.9" height="9.8" x="103.3" y="78.6"/>
  <polygon points="103.3 34.4 108.2 34.4 108.2 24.6 103.3 24.6 103.3 34.4"/>
  <polygon points="98.3 93.3 103.3 93.3 103.3 88.4 98.3 88.4 98.3 93.3"/>
  <polygon points="103.3 24.6 103.3 19.6 98.3 19.6 98.3 24.6 103.3 24.6"/>
  <polygon points="93.4 98.3 98.3 98.3 98.3 93.3 93.4 93.3 93.4 98.3"/>
  <polygon points="98.3 19.6 98.3 14.7 93.4 14.7 93.4 19.6 98.3 19.6"/>
  <polygon points="83.6 98.3 83.6 103.2 93.4 103.2 93.4 98.3 83.6 98.3"/>
  <rect width="9.8" height="4.9" x="83.6" y="9.8"/>
  <polygon points="73.8 103.2 73.8 108.1 83.6 108.1 83.6 103.2 73.8 103.2"/>
  <polygon points="78.7 9.8 83.6 9.8 83.6 4.9 73.8 4.9 73.8 9.8 78.7 9.8"/>
  <rect width="29.5" height="4.9" x="44.3" y="108.1"/>
  <rect width="29.5" height="4.9" x="44.3"/>
  <polygon points="39.3 103.2 34.4 103.2 34.4 108.1 44.3 108.1 44.3 103.2 39.3 103.2"/>
  <polygon points="44.3 9.8 44.3 4.9 34.4 4.9 34.4 9.8 44.3 9.8"/>
  <rect width="9.8" height="4.9" x="24.6" y="98.3"/>
  <polygon points="34.4 14.7 34.4 9.8 24.6 9.8 24.6 14.7 34.4 14.7"/>
  <polygon points="19.7 93.3 19.7 98.3 24.6 98.3 24.6 93.3 19.7 93.3"/>
  <polygon points="24.6 14.7 19.7 14.7 19.7 19.6 24.6 19.6 24.6 14.7"/>
  <polygon points="14.8 88.4 14.8 93.3 19.7 93.3 19.7 88.4 14.8 88.4"/>
  <polygon points="19.7 19.6 14.8 19.6 14.8 24.6 19.7 24.6 19.7 19.6"/>
  <polygon points="14.8 78.6 9.8 78.6 9.8 88.4 14.8 88.4 14.8 78.6"/>
  <rect width="4.9" height="9.8" x="9.8" y="24.6"/>
  <polygon points="9.8 68.8 4.9 68.8 4.9 78.6 9.8 78.6 9.8 68.8"/>
  <rect width="4.9" height="9.8" x="4.9" y="34.4"/>
  <rect width="4.9" height="24.6" y="44.2"/>
</svg>
