<svg xmlns="http://www.w3.org/2000/svg" viewBox="0 0 842 51">
  <g fill="#231F20">
    <polygon points="26.7 13.4 23.4 13.4 23.4 0 0 0 0 50.1 23.4 50.1 23.4 30.2 26.7 30.2 26.7 50.1 50.1 50.1 50.1 0 26.7 0"/>
    <polygon points="51.8 50.1 95.3 50.1 95.3 33.4 75.3 33.4 75.3 30.2 88.7 30.2 88.7 16.8 95.3 16.8 95.3 0 51.8 0"/>
    <path d="M140.5 0H97v50.1h23.5v-6.6h3.2V50h23.5V33.4h-6.7v-3.2h6.7V6.7h-6.7V0zm-16.8 16.8V20h-3.2v-3.2h3.2z"/>
    <polygon points="148.9 50.1 192.3 50.1 192.3 33.4 172.3 33.4 172.3 30.2 185.7 30.2 185.7 16.8 192.3 16.8 192.3 0 148.9 0"/>
    <polygon points="219.2 6.7 212.5 6.7 212.5 43.5 219.2 43.5 219.2 50.1 256 50.1 256 43.5 262.7 43.5 262.7 26.7 245.9 26.7 245.9 33.4 236 33.4 236 16.8 245.9 16.8 245.9 23.5 262.7 23.5 262.7 0 219.2 0"/>
    <path d="M307.8 0H271v6.7h-6.6v36.8h6.6V50h36.8v-6.6h6.7V6.7h-6.7V0zm-16.7 16.8v16.6h-3.3V16.8h3.3z"/>
    <polygon points="349.6 6.7 339.6 6.7 339.6 0 316.2 0 316.2 50.1 333 50.1 333 36.8 349.6 36.8 349.6 50.1 373 50.1 373 0 349.6 0"/>
    <polygon points="374.7 50.1 418.2 50.1 418.2 33.4 398.1 33.4 398.1 30.2 411.5 30.2 411.5 16.8 418.2 16.8 418.2 0 374.7 0"/>
    <polygon points="426.5 6.7 419.9 6.7 419.9 30.2 426.6 30.2 426.6 33.4 419.9 33.4 419.9 50.1 456.7 50.1 456.7 43.5 463.4 43.5 463.4 20 456.7 20 456.7 16.8 463.4 16.8 463.4 0 426.5 0"/>
    <polygon points="548.8 13.4 545.5 13.4 545.5 0 527 0 522.1 0 476.9 0 476.9 16.8 490.2 16.8 490.2 50.1 513.6 50.1 513.6 16.8 522.1 16.8 522.1 50.1 545.5 50.1 545.5 30.2 548.8 30.2 548.8 50.1 572.2 50.1 572.2 0 548.8 0"/>
    <polygon points="573.9 50.1 617.4 50.1 617.4 33.4 597.3 33.4 597.3 30.2 610.7 30.2 610.7 16.8 617.4 16.8 617.4 0 573.9 0"/>
    <path d="M681 0h-43.4v50.1H681v-6.6h6.7V6.7H681V0zm-16.7 30.2v3.2H661v-3.2h3.3z"/>
    <polygon points="732.9 13.3 726.3 13.3 726.3 0 702.7 0 702.7 13.3 696.1 13.3 696.1 26.7 689.4 26.7 689.4 50.1 712.8 50.1 712.8 43.5 716.1 43.5 716.1 50.1 739.5 50.1 739.5 26.7 732.9 26.7"/>
    <polygon points="818.3 0 818.3 33.4 803.2 33.4 803.2 0 779.8 0 779.8 33.4 764.7 33.4 764.7 0 741.2 0 741.2 50.1 779.8 50.1 784.7 50.1 818.3 50.1 823.2 50.1 841.7 50.1 841.7 0"/>
  </g>
  <path fill="#FFF" d="M31.7 45.1v-20H18.4v20H5V5h13.4v13.4h13.3V5h13.4v40.1H31.7z"/>
  <path fill="#FFF" d="M56.8 45.1V5h33.5v6.8h-20v6.6h13.4v6.8H70.3v13.2h20V45H56.8z"/>
  <path fill="#FFF" d="M128.7 45.1v-6.6H122v-6.7h-6.6v13.3H102V5h33.5v6.7h6.7v13.5h-6.7v13.2h6.7V45h-13.5zm0-33.3h-13.2V25h13.2V11.8z"/>
  <path fill="#FFF" d="M153.9 45.1V5h33.4v6.8h-20v6.6h13.4v6.8h-13.4v13.2h20V45H154z"/>
  <path fill="#FFF" d="M251 38.5V45h-26.8v-6.6h-6.7V11.7h6.7V5h33.5v13.5h-6.8v-6.7h-20v26.6h20v-6.7h6.8v6.8H251z"/>
  <path fill="#FFF" d="M302.8 38.5V45H276v-6.6h-6.6V11.7h6.6V5h26.8v6.7h6.7v26.8h-6.7zm-6.7-26.7h-13.3v26.6h13.3V11.8z"/>
  <path fill="#FFF" d="M354.6 45.1V18.4H348v13.4h-13.5V25H328v20h-6.8V5h13.4v6.7h6.7v6.6h6.5v-6.6h6.8V5H368v40.1h-13.4z"/>
  <path fill="#FFF" d="M379.7 45.1V5h33.5v6.8h-20v6.6h13.3v6.8h-13.4v13.2h20V45h-33.4z"/>
  <path fill="#FFF" d="M451.7 38.5V45h-26.8v-6.7h20v-6.6h-13.3v-6.6h-6.7V11.7h6.6V5h26.9v6.8h-20v6.5h13.3V25h6.7v13.5h-6.7z"/>
  <path fill="#FFF" d="M508.6 11.8V45h-13.4V11.8h-13.3V5h40v6.8h-13.3z"/>
  <path fill="#FFF" d="M553.8 45.1v-20h-13.3v20h-13.4V5h13.4v13.4h13.3V5h13.4v40.1h-13.4z"/>
  <path fill="#FFF" d="M578.9 45.1V5h33.5v6.8h-20v6.6h13.3v6.8h-13.4v13.2h20V45H579z"/>
  <path fill="#FFF" d="M676 38.5V45h-33.4V5H676v6.7h6.7v6.7H676V25h6.7v13.5H676zm-6.7-26.7H656v6.5h13.3v-6.5zm0 13.4H656v13.2h13.3V25.2z"/>
  <path fill="#FFF" d="M721.1 45.1v-6.6h-13.3V45h-13.4V31.7h6.7V18.3h6.6V5h13.6v13.3h6.6v13.4h6.6v13.4h-13.4zm0-20h-13.3v6.6h13.3v-6.5z"/>
  <path fill="#FFF" d="M746.2 45.1V5h13.5v33.4h20V45h-33.5z"/>
  <path fill="#FFF" d="M784.8 45.1V5h13.4v33.4h20V45h-33.4z"/>
  <path fill="#FFF" d="M823.3 31.8V5h13.4v26.8h-13.4zm0 13.3v-6.7h13.4V45h-13.4z"/>
</svg>
