<svg xmlns="http://www.w3.org/2000/svg" viewBox="0 0 553 64">
  <g fill="#231F20">
    <polygon points="35.6 17.8 27.9 17.8 27.9 0 0 0 0 63.5 27.9 63.5 27.9 36.9 35.6 36.9 35.6 63.5 63.5 63.5 63.5 0 35.6 0"/>
    <path d="M125.8 0H80v8.9h-8.9v45.7H80v9h45.8v-9h8.8V9h-8.8V0zm-19 19.1v25.4H99V19h7.7z"/>
    <polygon points="186.7 8.9 170.2 8.9 170.2 0 142.2 0 142.2 63.5 161.3 63.5 161.3 45.7 186.7 45.7 186.7 63.5 214.6 63.5 214.6 0 186.7 0"/>
    <polygon points="222.2 63.5 276.9 63.5 276.9 44.5 250.2 44.5 250.2 36.9 268 36.9 268 19 276.9 19 276.9 0 222.2 0"/>
    <path d="M365.8 0H311v63.5h28v-8.9h7.6v9h28V44.4h-9v-7.6h9v-28h-9V0zm-19.2 19.1v7.6H339v-7.6h7.6z"/>
    <polygon points="417.8 44.5 410.2 44.5 410.2 0 382.2 0 382.2 54.6 391.1 54.6 391.1 63.5 436.9 63.5 436.9 54.6 445.8 54.6 445.8 0 417.8 0"/>
    <polygon points="497.8 17.7 490.2 17.7 490.2 0 453.4 0 453.4 63.5 472.4 63.5 472.4 45.8 480 45.8 480 63.5 516.9 63.5 516.9 0 497.8 0"/>
    <rect width="27.9" height="63.5" x="524.5"/>
  </g>
  <path fill="#FFF" d="M40.6 58.5V32H22.9v26.6H5V5h18v17.8h17.6V5h18v53.5h-18z"/>
  <path fill="#FFF" d="M120.8 49.6v9H85v-9h-8.9V14H85V5h35.8v8.9h8.8v35.7h-8.8zm-9-35.5H94v35.4h17.7V14z"/>
  <path fill="#FFF" d="M191.7 58.5V23H183v17.8H165v-8.9h-8.7v26.7h-9V5h17.9v8.9h8.9v8.8h8.6v-8.8h9V5h18v53.5h-18z"/>
  <path fill="#FFF" d="M227.2 58.5V5H272v9h-26.7v8.8H263v9h-17.8v17.7h26.7v9h-44.7z"/>
  <path fill="#FFF" d="M351.7 58.5v-8.9h-8.9v-8.8H334v17.7h-17.9V5h44.7v8.9h8.8v18h-8.8v17.6h8.8v9h-18zm0-44.4H334v17.6h17.6V14.1z"/>
  <path fill="#FFF" d="M431.9 49.6v9H396v-9h-8.9V5h18v44.5h17.6V5h18v44.6h-9z"/>
  <path fill="#FFF" d="M485 58.5V40.8h-8.9V22.9h-8.7v35.6h-9V5h26.8v17.7h8.8v17.9h8.8V5h9v53.5H485z"/>
  <path fill="#FFF" d="M529.5 40.8V5h17.9v35.8h-18zm0 17.7v-9h17.9v9h-18z"/>
</svg>
