<svg xmlns="http://www.w3.org/2000/svg" width="40" height="40" viewBox="0 0 40 40">
  <circle cx="20" cy="20" r="20" fill="#BB2032"/>
  <path fill="#fff" d="M30.83 16.15c.02.22.02.45.02.67 0 6.83-5.2 14.7-14.7 14.7-2.93 0-5.65-.85-7.94-2.32a10.38 10.38 0 0 0 7.67-2.15 5.18 5.18 0 0 1-4.83-3.58 5.13 5.13 0 0 0 2.34-.1 5.16 5.16 0 0 1-4.14-5.07v-.06c.69.38 1.49.62 2.34.66a5.16 5.16 0 0 1-1.6-6.91 14.7 14.7 0 0 0 10.66 5.41 5.16 5.16 0 0 1 8.82-4.72 10.1 10.1 0 0 0 3.28-1.25 5.15 5.15 0 0 1-2.27 2.85c1.04-.11 2.05-.4 2.98-.8a10.95 10.95 0 0 1-2.59 2.67Z"/>
</svg>
