<svg xmlns="http://www.w3.org/2000/svg" width="40" height="40" viewBox="0 0 40 40">
  <circle cx="20" cy="20" r="20" fill="#BB2032"/>
  <path fill="#fff" d="M20 14.07a5.92 5.92 0 1 0-.01 11.85A5.92 5.92 0 0 0 20 14.07Zm0 9.78a3.86 3.86 0 0 1 0-7.7 3.86 3.86 0 0 1 0 7.7Zm7.56-10.03a1.38 1.38 0 1 1-1.38-1.38c.76 0 1.38.62 1.38 1.38Zm3.93 1.4c-.09-1.85-.51-3.49-1.87-4.85-1.35-1.35-2.99-1.78-4.85-1.87-1.91-.11-7.63-.11-9.54 0-1.85.09-3.49.51-4.85 1.86s-1.78 2.99-1.87 4.85c-.11 1.91-.11 7.63 0 9.54.09 1.85.51 3.49 1.87 4.85 1.36 1.35 2.99 1.78 4.85 1.87 1.91.11 7.63.11 9.54 0 1.85-.09 3.49-.51 4.85-1.87 1.35-1.35 1.78-2.99 1.87-4.85.11-1.91.11-7.63 0-9.54Zm-2.47 11.59a3.9 3.9 0 0 1-2.2 2.2c-1.52.6-5.13.46-6.82.46s-5.3.13-6.82-.46a3.9 3.9 0 0 1-2.2-2.2c-.6-1.52-.46-5.13-.46-6.82s-.13-5.3.46-6.82a3.9 3.9 0 0 1 2.2-2.2c1.52-.6 5.13-.46 6.82-.46s5.3-.13 6.82.46a3.9 3.9 0 0 1 2.2 2.2c.6 1.52.46 5.13.46 6.82s.14 5.3-.46 6.82Z"/>
</svg>
