<svg xmlns="http://www.w3.org/2000/svg" viewBox="0 0 103 61">
  <path fill="#1B1C4C" d="M65.8 28.1v1L66 38c0 .5 0 1-.2 1.5-.3 1.2-1.4 2-2.7 2-1.4 0-2.5-1-2.7-2.3V21.6c.3-1.4 1.2-2.2 2.6-2.3h1.4c1.2.1 1.8.8 2.4 1.8l6.7 11.4.3.4v-.5a1577.2 1577.2 0 0 1 0-11.2c.3-1 1.3-1.8 2.4-1.8 1.4 0 2.5.7 2.9 1.8l.2 1.5v15.2l-.1 1.2c-.4 1.8-1.7 2.3-3.2 2.3-1.1 0-2.2-.6-2.8-1.5l-2.1-3-5-8.4-.2-.4h-.1m-49.7.6 4.6-.1c.8 0 1.3-.6 1.6-1.4.5-1.4-.4-2.8-2-2.9h-4.2v4.4zm8.2 2h.4c1.5.2 2.7 1.2 3 2.6l.7 3.2c0 .5.3 1 .4 1.5.5 1 .3 2-.7 2.6-1.3 1-3.7 1.3-5.1-1-.4-.8-.7-1.7-.8-2.6l-.2-1.3c-.4-1.6-1.3-2.3-3-2.4h-2.5c-.4 0-.4.1-.4.4v4.6c0 .5-.2 1-.4 1.4a3 3 0 0 1-3.2 1.5 3.2 3.2 0 0 1-2.5-2.5V23l.1-1.5c.4-1.2 1.4-1.9 2.8-1.9l9.2.1c1.3 0 2.6.3 3.7 1 1.6 1 2.5 2.5 2.5 4.3.1 1 0 2-.5 3a4.5 4.5 0 0 1-3.2 2.5h-.3v.2zM97.4 33H95c-.5 0-1-.2-1.6-.5-.9-.4-1.3-1.4-1-2.4.2-.9 1-1.6 2-1.6h6.8c1 0 1.8.7 1.9 1.7a11 11 0 0 1-2.2 8 8.2 8.2 0 0 1-5 3A13 13 0 0 1 89 41a9.7 9.7 0 0 1-6.6-7c-.7-2.9-.7-5.8.5-8.6 1.2-3.5 4.5-6 8.3-6.3 2.2-.3 4.5-.1 6.6.7a8 8 0 0 1 3.8 2.7c.6.8.7 1.8.2 2.7-.5.9-1.6 1.4-2.6 1.2-.5 0-1-.2-1.5-.5l-.8-.7c-3-2.8-7.3-1.6-8.5 2.3-.7 2.2-.5 4.6.5 6.6 1.8 3.4 6 2.8 7.6 1 .5-.5.8-1.2 1-2M39 34.5l.7-3.2 2.8-9.5.3-.8a2.6 2.6 0 0 1 2.7-1.6c1.4.2 2.4 1 2.7 2.1l-.1 1.8-2.2 6.2-3.4 9.3v.1c-.7 1.8-1.4 2.4-3.4 2.4l-1.2-.1c-1 0-1.9-.8-2.2-1.7l-1.6-4.4-4-11.4c-.3-.7-.4-1.5-.3-2.2.3-1.2 1.3-2 2.7-2.1 1.1-.1 2.2.3 2.7 1.4l1 2.8 2.2 8.1.5 2.4v.4"/>
  <path fill="#BB2032" d="m73.9 47.9-1 .5L52 61c-.3.1-.5.2-.7 0l-21.8-13-.4-.2h10.5l.6.2L51 54.5c.4.2.7.2 1.1 0a1460.4 1460.4 0 0 1 11.4-6.7h10.4m.1-34.6H63.6c-.3 0-.6 0-1-.3L52.1 6.5c-.4-.2-.7-.3-1 0a2392.6 2392.6 0 0 1-11.4 6.7H29l.4-.2L51.2 0h.7L73.5 13l.4.3"/>
  <path fill="#1B1C4C" d="M50.1 30.3v-7.4l.1-1.3a3 3 0 0 1 2.8-2.4 3 3 0 0 1 3 2.4c.2.4.2.8.2 1.3v15c0 1.6-.7 2.8-2 3.2-2 .7-4-.8-4.1-3v-7.8m-50 0v-8.8c.3-1.2 1.3-2 2.5-2.3 1.3-.2 2.5.5 3 1.6.3.5.5 1.2.5 1.8v15.1c0 1-.2 2-1 2.8a3 3 0 0 1-5-1.7l-.1-1v-7.4z"/>
</svg>
