<svg xmlns="http://www.w3.org/2000/svg" viewBox="0 0 398 527">
  <g id="leg">
    <g fill="#B0BCC3">
      <polygon points="131.2 439.6 131.2 450.5 142.2 450.5 142.2 439.6 131.2 439.6"/>
      <polygon points="153.1 450.5 164.1 450.5 164.1 439.6 153.1 439.6 153.1 450.5"/>
      <polygon points="196.9 439.6 185.9 439.6 185.9 461.5 207.8 461.5 207.8 450.5 196.9 450.5 196.9 439.6"/>
      <polygon points="153.1 428.6 142.2 428.6 142.2 439.6 153.1 439.6 153.1 428.6"/>
      <polygon points="175 428.6 175 439.6 185.9 439.6 185.9 428.6 175 428.6"/>
      <polygon points="142.2 461.5 153.1 461.5 153.1 450.5 142.2 450.5 142.2 461.5"/>
      <polygon points="120.3 461.5 131.2 461.5 131.2 450.5 120.3 450.5 120.3 461.5"/>
      <rect width="131.2" height="10.9" x="109.4" y="384.9"/>
      <polygon points="251.5 384.9 251.5 395.8 262.5 395.8 262.5 384.9 251.5 384.9"/>
    </g>
    <g fill="#FFF">
      <polygon points="251.5 439.6 240.6 439.6 240.6 395.8 98.4 395.8 98.4 406.8 87.5 406.8 87.5 428.6 76.6 428.6 76.6 450.5 65.6 450.5 65.6 461.5 120.3 461.5 120.3 450.5 131.2 450.5 131.2 439.6 142.2 439.6 142.2 428.6 185.9 428.6 185.9 439.6 196.9 439.6 196.9 450.5 207.8 450.5 207.8 461.5 262.5 461.5 262.5 450.5 251.5 450.5 251.5 439.6"/>
      <polygon points="262.5 428.6 262.5 395.8 251.5 395.8 251.5 439.6 262.5 439.6 262.5 450.5 273.4 450.5 273.4 428.6 262.5 428.6"/>
    </g>
    <g fill="#EB6073">
      <polygon points="273.4 472.4 273.4 483.3 284.4 483.3 284.4 472.4 273.4 472.4"/>
      <polygon points="65.6 483.3 65.6 494.3 76.6 494.3 76.6 472.4 65.6 472.4 65.6 483.3"/>
      <polygon points="262.5 461.5 262.5 472.4 273.4 472.4 273.4 461.5 262.5 461.5"/>
    </g>
    <g fill="#E21D38">
      <polygon points="262.5 450.5 262.5 439.6 251.5 439.6 251.5 450.5 262.5 450.5"/>
      <rect width="10.9" height="43.8" x="240.6" y="395.8"/>
      <polygon points="262.5 472.4 218.7 472.4 218.7 483.3 229.7 483.3 229.7 494.3 273.4 494.3 273.4 472.4 262.5 472.4"/>
      <polygon points="76.6 472.4 76.6 494.3 120.3 494.3 120.3 483.3 131.2 483.3 131.2 472.4"/>
    </g>
    <g fill="#AF162E">
      <polygon points="218.7 472.4 196.9 472.4 196.9 483.3 207.8 483.3 207.8 494.3 229.7 494.3 229.7 483.3 218.7 483.3 218.7 472.4"/>
      <polygon points="131.2 472.4 131.2 483.3 120.3 483.3 120.3 494.3 142.2 494.3 142.2 483.3 153.1 483.3 153.1 472.4 131.2 472.4"/>
      <polygon points="240.6 384.9 240.6 395.8 251.5 395.8 251.5 384.9 240.6 384.9"/>
    </g>
    <rect width="21.9" height="10.9" x="120.3" y="505.2" fill="#755944"/>
    <g fill="#231F20">
      <rect width="10.9" height="21.9" x="65.6" y="428.6"/>
      <polygon points="153.1 439.6 142.2 439.6 142.2 450.5 153.1 450.5 153.1 439.6"/>
      <polygon points="185.9 439.6 175 439.6 175 428.6 153.1 428.6 153.1 439.6 164.1 439.6 164.1 450.5 175 450.5 175 461.5 185.9 461.5 185.9 439.6"/>
      <rect width="10.9" height="21.9" x="76.6" y="406.8"/>
      <polygon points="295.3 483.3 295.3 472.4 284.4 472.4 284.4 483.3 295.3 483.3"/>
      <polygon points="273.4 472.4 284.4 472.4 284.4 428.6 273.4 428.6 273.4 450.5 262.5 450.5 262.5 461.5 273.4 461.5 273.4 472.4"/>
      <polygon points="153.1 461.5 142.2 461.5 142.2 450.5 131.2 450.5 131.2 461.5 65.6 461.5 65.6 450.5 54.7 450.5 54.7 505.2 142.2 505.2 142.2 516.1 54.7 516.1 54.7 505.2 43.8 505.2 43.8 527.1 153.1 527.1 153.1 483.3 142.2 483.3 142.2 494.3 65.6 494.3 65.6 472.4 153.1 472.4 153.1 483.3 164.1 483.3 164.1 450.5 153.1 450.5 153.1 461.5"/>
      <polygon points="207.8 472.4 262.5 472.4 262.5 461.5 185.9 461.5 185.9 483.3 196.9 483.3 196.9 472.4 207.8 472.4"/>
      <polygon points="109.4 384.9 262.5 384.9 262.4 428.6 273.3 428.6 273.4 374 98.4 374 98.4 395.8 109.4 395.8 109.4 384.9"/>
      <polygon points="98.4 395.8 87.5 395.8 87.5 406.8 98.4 406.8 98.4 395.8"/>
      <polygon points="273.4 505.2 273.4 494.3 207.8 494.3 207.8 483.3 196.9 483.3 196.9 505.2"/>
      <polygon points="273.4 494.3 284.4 494.3 284.4 483.3 273.4 483.3 273.4 494.3"/>
      <polygon points="295.3 483.3 295.3 505.2 306.2 505.2 306.2 483.3 295.3 483.3"/>
      <polygon points="196.9 516.1 196.9 505.2 185.9 505.2 185.9 527.1 284.4 527.1 284.4 516.1"/>
      <polygon points="284.4 516.1 295.3 516.1 295.3 505.2 284.4 505.2 284.4 516.1"/>
    </g>
    <g fill="#916F57">
      <polygon points="284.4 483.3 284.4 494.3 273.4 494.3 273.4 505.2 196.9 505.2 196.9 516.1 284.4 516.1 284.4 505.2 295.3 505.2 295.3 483.3 284.4 483.3"/>
      <rect width="65.6" height="10.9" x="54.7" y="505.2"/>
    </g>
  </g>
  <g id="head">
    <polygon fill="#B0BCC3" points="153.1 111.5 120.3 111.5 120.3 122.4 164.1 122.4 164.1 111.5 153.1 111.5"/>
    <polygon fill="#630313" points="87.5 242.7 76.6 242.7 76.6 253.7 87.5 253.7 87.5 242.7"/>
    <polygon fill="#6D6E70" points="175 188.1 175 177.1 164.1 177.1 164.1 188.1 175 188.1"/>
    <polygon fill="#6D6E70" points="240.6 188.1 240.6 177.1 229.7 177.1 229.7 188.1 240.6 188.1"/>
    <g fill="#FCDCCE">
      <polygon points="240.6 209.9 229.7 209.9 229.7 220.9 251.6 220.9 251.6 209.9 240.6 209.9"/>
      <polygon points="196.9 209.9 207.8 209.9 207.8 199 196.9 199 196.9 209.9"/>
      <polygon points="131.3 209.9 131.3 220.9 153.1 220.9 153.1 209.9 131.3 209.9"/>
    </g>
    <polygon fill="#630313" points="273.4 133.4 262.5 133.4 262.5 144.3 284.4 144.3 284.4 133.4 273.4 133.4"/>
    <polygon fill="#630313" points="273.4 242.7 284.4 242.7 284.4 231.8 273.4 231.8 273.4 242.7"/>
    <g fill="#E19279">
      <polygon points="196.9 188.1 196.9 199 207.8 199 207.8 177.1 196.9 177.1 196.9 188.1"/>
      <polygon points="251.6 242.7 262.5 242.7 262.5 231.8 251.6 231.8 251.6 242.7"/>
      <polygon points="196.9 253.7 142.2 253.7 142.2 264.6 218.8 264.6 218.8 253.7 196.9 253.7"/>
      <polygon points="131.3 242.7 120.3 242.7 120.3 253.7 142.2 253.7 142.2 242.7 131.3 242.7"/>
      <polygon points="229.7 242.7 218.8 242.7 218.8 253.7 251.6 253.7 251.6 242.7 229.7 242.7"/>
      <polygon points="251.6 144.3 251.6 166.2 207.8 166.2 207.8 177.1 251.6 177.1 251.6 199 262.5 199 262.5 144.3 251.6 144.3"/>
      <polygon points="240.6 133.4 109.4 133.4 109.4 144.3 109.4 144.3 109.4 155.2 120.3 155.2 120.3 144.3 251.6 144.3 251.6 133.4 240.6 133.4"/>
      <polygon points="164.1 177.1 175 177.1 175 166.2 142.2 166.2 142.2 177.1 164.1 177.1"/>
    </g>
    <g fill="#AF162E">
      <polygon points="109.4 111.5 120.3 111.5 120.3 100.6 109.4 100.6 109.4 111.5"/>
      <polygon points="98.5 133.4 109.4 133.4 109.4 122.4 98.5 122.4 98.5 133.4"/>
      <polygon points="98.5 231.8 87.5 231.8 87.5 188.1 76.6 188.1 76.6 242.7 87.5 242.7 87.5 253.7 109.4 253.7 109.4 242.7 98.5 242.7 98.5 231.8"/>
      <polygon points="273.4 144.3 273.4 231.8 284.4 231.8 284.4 144.3 273.4 144.3"/>
      <polygon points="262.5 253.7 273.4 253.7 273.4 242.7 262.5 242.7 262.5 253.7"/>
    </g>
    <g fill="#FFF">
      <polygon points="306.2 111.5 164.1 111.5 164.1 122.4 317.2 122.4 317.2 111.5 306.2 111.5"/>
      <polygon points="131.3 177.1 131.3 188.1 142.2 188.1 142.2 199 153.1 199 153.1 177.1 131.3 177.1"/>
      <polygon points="207.8 188.1 207.8 199 218.8 199 218.8 177.1 207.8 177.1 207.8 188.1"/>
      <polygon points="229.7 56.8 218.8 56.8 218.8 67.8 229.7 67.8 229.7 56.8"/>
    </g>
    <g fill="#EB6073">
      <polygon points="262.5 89.6 273.4 89.6 273.4 78.7 262.5 78.7 262.5 89.6"/>
      <polygon points="98.5 209.9 109.4 209.9 109.4 199 98.5 199 98.5 209.9"/>
      <polygon points="284.4 188.1 284.4 199 295.3 199 295.3 188.1 284.4 188.1"/>
      <polygon points="229.7 56.8 229.7 67.8 240.6 67.8 240.6 56.8 229.7 56.8"/>
      <polygon points="196.9 56.8 109.4 56.8 109.4 67.8 131.3 67.8 131.3 78.7 142.2 78.7 142.2 67.8 218.8 67.8 218.8 56.8 196.9 56.8"/>
      <polygon points="98.5 78.7 109.4 78.7 109.4 67.8 98.5 67.8 98.5 78.7"/>
      <polygon points="251.6 67.8 240.6 67.8 240.6 78.7 262.5 78.7 262.5 67.8 251.6 67.8"/>
    </g>
    <g fill="#FABDA7">
      <path d="M251.6 199V177h-11V199h-32.8v21.9H186v-11h11v-32.8h11v-21.9h43.7v-10.9H153v11H175V199h-32.8v-11h-11v-10.9h11v-11h-21.9v-10.9h-11V199h11v43.7h21.9v-11h11v11h54.6v11h11v-11h32.8v-11h10.9V199h-11zM153 220.9h-21.8v-11H153v11zm98.5 0h-22v-11h22v11z"/>
      <polygon points="142.2 253.7 153.1 253.7 153.1 242.7 142.2 242.7 142.2 253.7"/>
      <polygon points="142.2 155.2 153.1 155.2 153.1 144.3 120.3 144.3 120.3 155.2 142.2 155.2"/>
    </g>
    <g fill="#231F20">
      <polygon points="142.2 111.5 317.2 111.5 317.2 100.6 284.4 100.6 284.4 78.7 273.4 78.7 273.4 100.6 120.3 100.6 120.3 111.5 142.2 111.5"/>
      <polygon points="295.3 122.4 120.3 122.4 120.3 111.5 109.4 111.5 109.4 133.4 98.5 133.4 98.5 144.3 98.5 144.3 98.5 199 109.4 199 109.4 144.3 109.4 144.3 109.4 133.4 251.6 133.4 251.6 144.3 262.5 144.3 262.5 133.4 284.4 133.4 284.4 188.1 295.3 188.1 295.3 133.4 317.2 133.4 317.2 122.4 295.3 122.4"/>
      <polygon points="87.5 122.7 87.5 68 76.5 68 76.5 133.6 87.5 133.6 87.5 122.7"/>
      <polygon points="317.2 111.5 317.2 122.4 328.1 122.4 328.1 111.5 317.2 111.5"/>
      <polygon points="76.5 133.4 65.5 133.4 65.6 253.7 76.6 253.7"/>
      <polygon points="164.1 177.1 153.1 177.1 153.1 199 175 199 175 188.1 164.1 188.1 164.1 177.1"/>
      <polygon points="229.7 177.1 218.8 177.1 218.8 199 240.6 199 240.6 188.1 229.7 188.1 229.7 177.1"/>
      <polygon points="142.2 231.8 142.2 242.7 153.1 242.7 153.1 231.8 142.2 231.8"/>
      <polygon points="196.9 264.6 142.2 264.6 142.2 275.5 218.8 275.5 218.8 264.6 196.9 264.6"/>
      <polygon points="131.3 253.7 120.3 253.7 120.3 199 109.4 199 109.4 253.6 84.3 253.6 84.3 253.7 76.6 253.7 76.6 264.6 142.2 264.6 142.2 253.7 131.3 253.7"/>
      <polygon points="196.9 242.7 153.1 242.7 153.1 253.7 207.8 253.7 207.8 242.7 196.9 242.7"/>
      <polygon points="196.9 209.9 185.9 209.9 185.9 220.9 207.8 220.9 207.8 209.9 196.9 209.9"/>
      <polygon points="284.4 253.7 295.3 253.7 295.3 242.7 284.4 242.7 284.4 253.7"/>
      <polygon points="295.3 209.9 295.3 242.7 306.2 242.7 306.2 188.1 295.3 188.1 295.3 209.9"/>
      <polygon points="262.5 253.7 262.5 242.7 251.6 242.7 251.6 253.7 218.8 253.7 218.8 264.6 284.4 264.6 284.4 253.7 262.5 253.7"/>
      <polygon points="262.5 166.2 262.5 242.7 273.4 242.7 273.4 144.3 262.5 144.3 262.5 166.2"/>
      <polygon points="153.1 166.2 164.1 166.2 164.1 155.2 120.3 155.2 120.3 166.2 153.1 166.2"/>
      <polygon points="229.7 166.2 251.6 166.2 251.6 155.2 207.8 155.2 207.8 166.2 229.7 166.2"/>
      <polygon points="175 155.2 164.1 155.2 164.1 166.2 175 166.2 175 155.2"/>
      <polygon points="251.6 56.8 240.6 56.8 240.6 67.8 262.5 67.8 262.5 56.8 251.6 56.8"/>
      <polygon points="87.5 56.8 87.5 67.8 109.4 67.8 109.4 56.8 87.5 56.8"/>
      <polygon points="262.5 67.8 262.5 78.7 273.4 78.7 273.4 67.8 262.5 67.8"/>
      <polygon points="229.7 45.9 109.4 45.9 109.4 56.8 240.6 56.8 240.6 45.9 229.7 45.9"/>
    </g>
    <g fill="#E21D38">
      <polygon points="273.4 89.6 262.5 89.6 262.5 78.7 240.6 78.7 240.6 67.8 142.2 67.8 142.2 78.7 131.3 78.7 131.3 67.8 109.4 67.8 109.4 78.7 98.5 78.7 98.5 78.5 98.5 78.5 98.5 67.4 87.5 67.4 87.5 78.5 87.5 78.5 87.5 133.5 76.5 133.5 76.5 179.3 76.5 179.3 76.5 188.1 87.5 188.1 87.5 231.8 98.5 231.8 98.5 242.7 109.4 242.7 109.4 209.9 98.5 209.9 98.5 122.4 109.4 122.4 109.4 100.6 273.4 100.6"/>
      <rect width="10.9" height="43.8" x="284.4" y="199"/>
      <rect width="10.9" height="10.9" x="273.4" y="242.7"/>
    </g>
  </g>
</svg>
