<svg xmlns="http://www.w3.org/2000/svg" viewBox="0 0 398 527">
  <g id="pose1">
    <polygon fill="#630313" points="98.4 330.2 87.5 330.2 87.5 341.2 98.4 341.2 98.4 330.2"/>
    <g fill="#AF162E">
      <polygon points="87.5 352.1 87.5 363 98.4 363 98.4 341.2 87.5 341.2 87.5 352.1"/>
      <polygon points="196.9 319.3 153.1 319.3 153.1 308.4 87.5 308.4 87.5 319.3 142.2 319.3 142.2 330.2 207.8 330.2 207.8 319.3 196.9 319.3"/>
    </g>
    <g fill="#EB6073">
      <polygon points="196.9 286.5 196.9 297.4 207.8 297.4 207.8 286.5 196.9 286.5"/>
      <polygon points="131.2 264.6 87.5 264.6 87.5 275.5 142.2 275.5 142.2 264.6 131.2 264.6"/>
      <polygon points="185.9 275.5 142.2 275.5 142.2 286.5 196.9 286.5 196.9 275.5 185.9 275.5"/>
    </g>
    <polygon fill="#FABDA7" points="43.8 231.8 21.9 231.8 21.9 242.7 43.8 242.7 43.8 231.8"/>
    <g fill="#E21D38">
      <polygon points="196.9 286.5 142.2 286.5 142.2 275.5 87.5 275.5 87.5 308.4 153.1 308.4 153.1 319.3 207.8 319.3 207.8 297.4 196.9 297.4 196.9 286.5"/>
      <polygon points="218.7 297.4 218.7 308.4 240.6 308.4 240.6 297.4 218.7 297.4"/>
      <rect width="32.8" height="10.9" x="240.6" y="286.5"/>
    </g>
    <g fill="#B0BCC3">
      <polygon points="240.6 308.4 240.6 319.3 262.5 319.3 262.5 308.4 240.6 308.4"/>
      <rect width="21.9" height="10.9" x="240.6" y="330.2"/>
      <polygon points="218.7 341.2 142.2 341.2 142.2 352.1 240.6 352.1 240.6 341.2 218.7 341.2"/>
      <polygon points="131.2 330.2 109.4 330.2 109.4 374 120.3 374 120.3 352.1 131.2 352.1 131.2 341.2 142.2 341.2 142.2 330.2 131.2 330.2"/>
      <polygon points="218.7 319.3 218.7 330.2 240.6 330.2 240.6 319.3 218.7 319.3"/>
      <polygon points="262.5 297.4 262.5 308.4 273.4 308.4 273.4 297.4 262.5 297.4"/>
    </g>
    <g fill="#FFF">
      <rect width="21.9" height="10.9" x="240.6" y="297.4"/>
      <polygon points="240.6 341.2 240.6 352.1 142.2 352.1 142.2 341.2 131.2 341.2 131.2 352.1 120.3 352.1 120.3 374 262.5 374 262.5 341.2 240.6 341.2"/>
      <polygon points="218.7 308.4 218.7 319.3 240.6 319.3 240.6 308.4 218.7 308.4"/>
      <polygon points="218.7 264.6 218.7 275.5 207.8 275.5 207.8 286.5 218.7 286.5 218.7 297.4 240.6 297.4 240.6 286.5 273.4 286.5 273.4 264.6"/>
    </g>
    <g fill="#E19279">
      <polygon points="21.9 286.5 21.9 275.5 10.9 275.5 10.9 297.4 21.9 297.4 21.9 286.5"/>
      <polygon points="21.9 253.7 10.9 253.7 10.9 264.6 21.9 264.6 21.9 253.7"/>
      <rect width="65.6" height="10.9" x="10.9" y="308.4"/>
    </g>
    <rect width="35.8" height="10.9" x="40.8" y="342.1" fill="#D18056"/>
    <rect width="21.9" height="10.9" x="21.9" y="210.8" fill="#FABDA7"/>
    <path fill="#FABDA7" d="M76.6 253.7H21.9v54.6h54.7v-54.6z"/>
    <g fill="#D18056">
      <polygon points="54.7 210.9 54.7 242.7 65.6 242.7 65.6 210.9 54.7 210.9"/>
      <rect width="10.9" height="32.8" x="21.9" y="133.4"/>
      <polygon points="21.9 21.9 32.8 21.9 32.8 10.9 21.9 10.9 21.9 21.9"/>
      <rect width="10.9" height="87.5" x="10.9" y="21.9"/>
    </g>
    <path fill="#F8A676" d="M76.6 21.9v-11H32.8v11h-11v111.5h11V199h11v11.9h21.8v-12h11v-65.5h10.9V21.9h-11zM65.6 188h-11v-11h11v11zm0-22h-11V32.9h11v133.4z"/>
    <g fill="#FDD2A4">
      <polygon points="65.6 166.2 65.6 32.8 54.7 32.8 54.7 166.2 65.6 166.2"/>
      <polygon points="54.7 177.1 54.7 188.1 65.6 188.1 65.6 177.1 54.7 177.1"/>
    </g>
    <g fill="#231F20">
      <polygon points="21.9 308.4 21.9 297.4 10.9 297.4 10.9 275.5 21.9 275.5 21.9 264.6 10.9 264.6 10.9 253.7 0 253.7 0 319.3 10.9 319.3 10.9 308.4"/>
      <polygon points="87.5 133.4 98.4 133.4 98.4 24 87.5 24 87.5 133.4 76.6 133.4 76.6 199 87.5 199"/>
      <path d="M131.2 319.3H87.5v-54.7h54.7v-11H76.6v65.7H10.9v11h22V342h-3V364h57.6v10h21.9v-43.8h32.8v-11h-11zM76.6 353H40.8v-10.9h35.8v11zm21.8-11.8V363h-11v-32.8h11v11z"/>
      <polygon points="153.1 275.5 196.9 275.5 196.9 286.5 207.8 286.5 207.8 275.5 218.7 275.5 218.7 264.6 142.2 264.6 142.2 275.5"/>
      <polygon points="218.7 286.5 207.8 286.5 207.8 330.2 142.2 330.2 142.2 341.2 240.6 341.2 240.6 330.2 218.7 330.2"/>
      <path d="M76.6 253.7V199h-11v43.7h-11v-31.9H43.8V199H32.9v-33h-11v-56.6H11V21.9H0v100.5h11v54.7h10.9v-.1 33.7h-11v43h65.7zm-54.7-43h21.8v11H22v-11zm0 32v-10.9h21.8v11l-21.8-.1z"/>
      <polygon points="262.5 319.3 240.6 319.3 240.6 330.2 262.5 330.2 262.5 374 273.4 374 273.4 308.4 262.5 308.4"/>
      <polygon points="218.7 253.7 218.7 264.6 273.4 264.6 273.4 308.4 284.4 308.4 284.4 253.7"/>
      <rect width="54.7" height="10.9" x="21.9"/>
      <rect width="10.9" height="10.9" x="76.6" y="10.9"/>
      <rect width="10.9" height="10.9" x="10.9" y="10.9"/>
    </g>
  </g>
</svg>
