<svg xmlns="http://www.w3.org/2000/svg" viewBox="0 0 398 527">
  <g id="pose3">
    <polygon fill="#A3A3A4" points="359.9 291.7 370.3 294.9 373.5 284.4 363 281.2 359.9 291.7"/>
    <rect width="10.9" height="21.9" x="345.5" y="272.4" fill="#C5C3C4" transform="rotate(-73.2 351 283.3)"/>
    <polygon fill="#FDD2A4" points="336.8 330.4 326.3 327.3 288.4 452.9 298.9 456.1 336.8 330.4"/>
    <g fill="#D18056">
      <rect width="87.5" height="10.9" x="301.3" y="430.3" transform="rotate(-73.2 345 435.7)"/>
      <polygon points="360.9 326.3 341.9 389.1 352.4 392.3 371.3 329.4 360.9 326.3"/>
      <polygon points="353.6 312.6 350.4 323.1 360.9 326.3 367.2 305.3 356.7 302.2 356.7 302.2 335.8 295.9 332.6 306.3 353.6 312.6"/>
      <polygon points="313.6 483.3 324 486.5 327.2 476 316.7 472.9 313.6 483.3"/>
    </g>
    <g fill="#231F20">
      <rect width="87.5" height="10.9" x="311.8" y="433.4" transform="rotate(-73.2 355.5 438.9)"/>
      <rect width="65.6" height="10.9" x="334.3" y="356.9" transform="rotate(-73.2 367.1 362.4)"/>
      <polygon points="332.6 306.3 335.8 295.9 356.7 302.2 356.7 302.2 367.2 305.3 370.3 294.9 338.9 285.4 342.1 274.9 331.6 271.8 319 313.6 329.5 316.8 332.6 306.3"/>
      <rect width="65.6" height="10.9" x="271.5" y="338" transform="rotate(-73.2 304.3 343.5)"/>
      <rect width="43.8" height="10.9" x="350.5" y="301.4" transform="rotate(-73.2 372.4 306.9)"/>
      <rect width="10.9" height="54.7" x="290.8" y="456.5" transform="rotate(-73.2 296.3 483.9)"/>
      <rect width="87.5" height="10.9" x="228" y="408.2" transform="rotate(-73.2 271.7 413.6)"/>
      <polygon points="264.4 457.1 261.2 467.6 271.7 470.7 274.8 460.3 264.4 457.1"/>
      <polygon points="324 486.5 334.5 489.6 337.7 479.2 327.2 476 324 486.5"/>
    </g>
    <path fill="#F8A676" d="m360.9 326.3-10.5-3.2 3.1-10.5-20.9-6.3-3.1 10.5-10.5-3.1-19 62.8-10.4-3.2-25.2 83.8 10.4 3.2-3.1 10.4 41.9 12.7 3.1-10.5 10.5 3.1 25.2-83.7L342 389l19-62.8zm-62 129.8-10.4-3.2 37.8-125.6 10.5 3.1-37.9 125.7z"/>
    <polygon fill="#B0BCC3" points="109 364.6 109 375.7 120.2 375.7 120.2 364.6 109 364.6"/>
    <polygon fill="#BF6F58" points="298 264.5 309.1 264.5 309.1 253.4 298 253.4 298 264.5"/>
    <polygon fill="#BF6F58" points="342.5 275.6 353.6 275.6 353.6 264.5 342.5 264.5 342.5 275.6"/>
    <polygon fill="#EB6073" points="97.9 264.5 86.8 264.5 86.8 275.6 97.9 275.6 97.9 264.5"/>
    <g fill="#E21D38">
      <rect width="11.1" height="33.4" x="86.8" y="275.6"/>
      <polygon points="109.1 320.1 109.1 309 97.9 309 97.9 331.2 120.2 331.2 120.2 320.1 109.1 320.1"/>
    </g>
    <g fill="#B0BCC3">
      <rect width="22.2" height="11.1" x="264.7" y="253.4"/>
      <polygon points="253.6 275.6 253.6 297.9 264.7 297.9 264.7 264.5 253.6 264.5 253.6 275.6"/>
      <polygon points="264.7 320.1 253.6 320.1 253.6 342.3 264.7 342.3 264.7 331.2 275.8 331.2 275.8 297.9 264.7 297.9 264.7 320.1"/>
    </g>
    <g fill="#FFF">
      <polygon points="253.6 353.4 253.6 375.7 264.7 375.7 264.7 342.3 253.6 342.3 253.6 353.4"/>
      <polygon points="120.2 375.7 131.3 375.7 131.3 364.6 120.2 364.6 120.2 375.7"/>
      <polygon points="231.3 264.5 231.3 275.6 220.2 275.6 220.2 286.7 186.9 286.7 186.9 275.6 175.8 275.6 175.8 264.5 97.9 264.5 97.9 309 109.1 309 109.1 320.1 131.3 320.1 131.3 309 142.4 309 142.4 297.9 153.5 297.9 153.5 286.7 142.4 286.7 142.4 275.6 153.5 275.6 153.5 286.7 164.6 286.7 164.6 297.9 175.8 297.9 175.8 309 198 309 198 320.1 209.1 320.1 209.1 309 242.4 309 242.4 320.1 264.7 320.1 264.7 297.9 253.6 297.9 253.6 264.5 231.3 264.5"/>
      <polygon points="264.7 220 264.7 231.2 253.6 231.2 253.6 264.5 264.7 264.5 264.7 253.4 286.9 253.4 286.9 220"/>
    </g>
    <g fill="#E19279">
      <rect width="33.4" height="11.1" x="186.9" y="264.5"/>
      <polygon points="220.2 364.5 164.6 364.5 164.6 353.4 142.4 353.4 142.4 342.3 131.3 342.3 131.3 331.2 120.2 331.2 120.2 353.4 131.3 353.4 131.3 364.5 153.5 364.5 153.5 375.7 242.4 375.7 242.4 364.5 220.2 364.5"/>
      <polygon points="353.6 253.4 353.6 242.3 298 242.3 298 253.4 309.1 253.4 309.1 264.5 364.7 264.5 364.7 275.6 387 275.6 387 253.4"/>
    </g>
    <g fill="#FABDA7">
      <polygon points="220.2 331.2 164.6 331.2 164.6 320.1 153.5 320.1 153.5 309 142.4 309 142.4 320.1 131.3 320.1 131.3 342.3 142.4 342.3 142.4 353.4 164.6 353.4 164.6 364.5 242.4 364.5 242.4 331.2 220.2 331.2"/>
      <polygon points="364.7 231.2 364.7 220 298 220 298 242.3 353.6 242.3 353.6 253.4 387 253.4 387 231.2"/>
    </g>
    <g fill="#FCDCCE">
      <polygon points="231.3 331.2 242.4 331.2 242.4 320.1 231.3 320.1 231.3 331.2"/>
      <polygon points="209.1 331.2 220.2 331.2 220.2 320.1 209.1 320.1 209.1 331.2"/>
      <polygon points="175.8 320.1 175.8 309 164.6 309 164.6 297.9 153.5 297.9 153.5 320.1 164.6 320.1 164.6 331.2 198 331.2 198 320.1 175.8 320.1"/>
      <rect width="22.2" height="11.1" x="364.7" y="220"/>
      <rect width="66.7" height="11.1" x="298" y="208.9"/>
    </g>
    <g fill="#231F20">
      <rect width="11.1" height="33.3" x="97.9" y="342.3"/>
      <polygon points="298 264.5 298 220 286.9 220 286.9 264.5 264.7 264.5 264.7 297.9 275.8 297.9 275.8 275.6 342.5 275.6 342.5 264.5"/>
      <rect width="11.1" height="44.5" x="75.7" y="264.5"/>
      <polygon points="120.2 353.4 120.2 331.2 97.9 331.2 97.9 342.3 109.1 342.3 109.1 364.5 131.3 364.5 131.3 353.4 120.2 353.4"/>
      <rect width="33.4" height="11.1" x="186.9" y="275.6"/>
      <polygon points="142.4 309 131.3 309 131.3 320.1 142.4 320.1 142.4 309"/>
      <rect width="22.2" height="11.1" x="175.8" y="309"/>
      <polygon points="164.6 286.7 153.5 286.7 153.5 297.9 164.6 297.9 164.6 286.7"/>
      <polygon points="142.4 275.6 142.4 286.7 153.5 286.7 153.5 275.6 142.4 275.6"/>
      <polygon points="175.8 309 175.8 297.9 164.6 297.9 164.6 309 175.8 309"/>
      <polygon points="153.5 297.9 142.4 297.9 142.4 309 153.5 309 153.5 297.9"/>
      <polygon points="186.9 264.5 175.8 264.5 175.8 275.6 186.9 275.6 186.9 264.5"/>
      <polygon points="97.9 309 86.8 309 86.8 331.2 97.9 331.2 97.9 309"/>
      <polygon points="231.3 264.5 220.2 264.5 220.2 275.6 231.3 275.6 231.3 264.5"/>
      <polygon points="220.2 331.2 231.3 331.2 231.3 320.1 242.4 320.1 242.4 309 209.1 309 209.1 320.1 220.2 320.1 220.2 331.2"/>
      <polygon points="131.3 320.1 120.2 320.1 120.2 331.2 131.3 331.2 131.3 320.1"/>
      <polygon points="209.1 331.2 209.1 320.1 198 320.1 198 331.2 209.1 331.2"/>
      <polygon points="275.8 320.1 275.8 331.2 264.7 331.2 264.7 375.7 275.8 375.7 275.8 331.2 286.9 331.2 286.9 297.9 275.8 297.9 275.8 320.1"/>
      <polygon points="253.6 375.3 253.6 320.1 242.4 320.1 242.4 375.4 153.5 375.6 153.5 364.5 131.3 364.5 131.3 375.7 153.5 375.7 153.6 387 253.6 386.7 253.6 375.3 253.6 375.3"/>
      <polygon points="264.7 220 253.6 220 253.6 231.2 264.7 231.2 264.7 220"/>
      <rect width="22.2" height="11.1" x="364.7" y="208.9"/>
      <rect width="66.7" height="11.1" x="298" y="197.8"/>
      <polygon points="364.7 275.6 364.7 264.5 353.6 264.5 353.6 275.6 342.5 275.6 342.5 286.7 387 286.7 387 275.6 364.7 275.6"/>
      <polygon points="387 220 387 275.6 398.1 275.6 398.1 220 387 220"/>
    </g>
  </g>
</svg>
