<svg xmlns="http://www.w3.org/2000/svg" viewBox="0 0 398 527">
  <g id="pose2">
    <g fill="#EB6073">
      <polygon points="323.7 273.6 313.7 273.6 313.7 283.6 323.7 283.6 323.7 273.6"/>
      <polygon points="323.7 293.5 323.7 313.5 333.7 313.5 333.7 293.5 323.7 293.5"/>
      <polygon points="84.3 323.4 94.3 323.4 94.3 313.5 84.3 313.5 84.3 323.4"/>
      <polygon points="74.3 333.4 84.3 333.4 84.3 323.4 74.3 323.4 74.3 333.4"/>
    </g>
    <g fill="#CDE0EE">
      <polygon points="233.9 353.4 243.9 353.4 243.9 343.4 233.9 343.4 233.9 353.4"/>
      <polygon points="243.9 303.5 243.9 343.4 253.9 343.4 253.9 303.5 243.9 303.5"/>
    </g>
    <polygon fill="#C5C3C4" points="253.9 383.3 253.9 393.3 263.9 393.3 263.9 383.3 253.9 383.3"/>
    <g fill="#E21D38">
      <polygon points="323.7 313.5 323.7 283.6 313.7 283.6 313.7 273.6 293.8 273.6 293.8 283.6 273.8 283.6 273.8 323.4 283.8 323.4 283.8 333.4 303.8 333.4 303.8 343.4 313.7 343.4 313.7 353.4 333.7 353.4 333.7 313.5 323.7 313.5"/>
      <polygon points="94.3 273.6 84.3 273.6 84.3 283.6 94.3 283.6 94.3 273.6"/>
      <polygon points="104.2 263.6 94.3 263.6 94.3 273.6 104.2 273.6 104.2 263.6"/>
      <polygon points="94.3 313.5 94.3 323.4 84.3 323.4 84.3 343.4 94.3 343.4 94.3 353.4 114.2 353.4 114.2 313.5 94.3 313.5"/>
    </g>
    <g fill="#FABDA7">
      <polygon points="323.7 363.4 313.7 363.4 313.7 353.4 303.8 353.4 303.8 343.4 293.8 343.4 293.8 363.4 303.8 363.4 303.8 373.3 333.7 373.3 333.7 363.4 323.7 363.4"/>
      <polygon points="84.3 343.4 74.3 343.4 74.3 373.3 84.3 373.3 84.3 363.4 94.3 363.4 94.3 353.4 84.3 353.4 84.3 343.4"/>
    </g>
    <polygon fill="#C5C3C4" points="214 363.4 214 373.3 223.9 373.3 223.9 363.4 214 363.4"/>
    <polygon fill="#B0BCC3" points="253.9 333.4 263.9 333.4 263.9 323.4 253.9 323.4 253.9 333.4"/>
    <polygon fill="#B0BCC3" points="253.9 343.4 263.9 343.4 263.9 333.4 253.9 333.4 253.9 343.4"/>
    <g fill="#E19279">
      <polygon points="313.7 373.3 303.8 373.3 303.8 363.4 293.8 363.4 293.8 343.4 283.8 343.4 283.8 333.4 273.8 333.4 273.8 353.4 283.8 353.4 283.8 363.4 273.8 363.4 273.8 373.3 283.8 373.3 283.8 383.3 323.7 383.3 323.7 373.3 313.7 373.3"/>
      <polygon points="84.3 363.4 84.3 373.3 74.3 373.3 74.3 383.3 94.3 383.3 94.3 373.3 104.2 373.3 104.2 363.4 84.3 363.4"/>
    </g>
    <g fill="#AF162E">
      <polygon points="114.2 353.4 104.2 353.4 104.2 363.4 124.2 363.4 124.2 343.4 114.2 343.4 114.2 353.4"/>
      <polygon points="263.9 293.5 263.9 323.4 273.8 323.4 273.8 293.5 263.9 293.5"/>
    </g>
    <g fill="#FFF">
      <polygon points="223.9 263.6 223.9 273.6 214 273.6 214 283.6 204 283.6 204 293.5 154.1 293.5 154.1 283.6 144.1 283.6 144.1 273.6 114.2 273.6 114.2 263.6 104.2 263.6 104.2 273.6 94.3 273.6 94.3 283.6 84.3 283.6 84.3 303.5 104.2 303.5 104.2 293.5 114.2 293.5 114.2 313.5 124.2 313.5 124.2 343.4 134.2 343.4 134.2 363.4 214 363.4 214 353.4 233.9 353.4 233.9 343.4 243.9 343.4 243.9 303.5 243.9 303.5 243.9 293.5 263.9 293.5 263.9 283.6 273.8 283.6 273.8 273.6 293.8 273.6 293.8 263.6"/>
      <polygon points="223.9 363.4 223.9 373.3 114.2 373.3 114.2 383.3 104.2 383.3 104.2 393.3 253.9 393.3 253.9 363.4"/>
    </g>
    <g fill="#231F20">
      <polygon points="293.8 333.4 283.8 333.4 283.8 343.4 303.8 343.4 303.8 333.4 293.8 333.4"/>
      <rect width="59.9" height="10" x="263.9" y="383.3"/>
      <polygon points="303.8 343.4 303.8 353.4 313.7 353.4 313.7 343.4 303.8 343.4"/>
      <polygon points="313.7 273.6 323.7 273.6 323.7 263.6 293.8 263.6 293.8 273.6 313.7 273.6"/>
      <polygon points="333.7 293.5 333.7 353.4 313.7 353.4 313.7 363.4 333.7 363.4 333.7 373.3 343.6 373.3 343.6 293.5 333.7 293.5"/>
      <polygon points="323.7 293.5 333.7 293.5 333.7 273.6 323.7 273.6 323.7 293.5"/>
      <polygon points="323.7 383.3 333.7 383.3 333.7 373.3 323.7 373.3 323.7 383.3"/>
      <polygon points="94.3 263.6 84.3 263.6 84.3 273.6 94.3 273.6 94.3 263.6"/>
      <polygon points="84.3 313.5 114.2 313.5 114.2 293.5 104.2 293.5 104.2 303.5 84.3 303.5 84.3 273.6 74.3 273.6 74.3 323.4 84.3 323.4 84.3 313.5"/>
      <polygon points="104.2 363.4 104.2 353.4 94.3 353.4 94.3 363.4 104.2 363.4"/>
      <polygon points="94.3 353.4 94.3 343.4 84.3 343.4 84.3 353.4 94.3 353.4"/>
      <polygon points="243.9 343.4 243.9 353.4 214 353.4 214 363.4 283.8 363.4 283.8 353.4 263.9 353.4 263.9 343.4 243.9 343.4"/>
      <rect width="29.9" height="10" x="114.2" y="263.6"/>
      <polygon points="214 273.6 204 273.6 204 283.6 214 283.6 214 273.6"/>
      <polygon points="154.1 283.6 154.1 273.6 144.1 273.6 144.1 283.6 154.1 283.6"/>
      <rect width="49.9" height="10" x="154.1" y="283.6"/>
      <rect width="10" height="29.9" x="114.2" y="313.5"/>
      <polygon points="223.9 263.6 214 263.6 214 273.6 223.9 273.6 223.9 263.6"/>
      <rect width="29.9" height="10" x="74.3" y="383.3"/>
      <polygon points="273.8 323.4 263.9 323.4 263.9 343.4 273.8 343.4 273.8 333.4 283.8 333.4 283.8 323.4 273.8 323.4"/>
      <polygon points="293.8 283.6 293.8 273.6 273.8 273.6 273.8 283.6 293.8 283.6"/>
      <polygon points="134.2 363.4 134.2 343.4 124.2 343.4 124.2 363.4 114.2 363.4 114.2 373.3 214 373.3 214 363.4"/>
      <polygon points="263.9 303.5 263.9 293.5 243.9 293.5 243.9 303.5 253.9 303.5 253.9 323.4 263.9 323.4 263.9 303.5"/>
      <polygon points="74.3 343.4 84.3 343.4 84.3 333.4 74.3 333.4 74.3 323.4 64.3 323.4 64.3 383.3 74.3 383.3"/>
      <polygon points="104.2 383.3 114.2 383.3 114.2 373.3 104.2 373.3 104.2 383.3"/>
      <polygon points="273.8 283.6 263.9 283.6 263.9 293.5 273.8 293.5 273.8 283.6"/>
      <polygon points="253.9 373.3 253.9 383.3 263.9 383.3 263.9 373.3 253.9 373.3"/>
    </g>
    <g fill="#BF6F58">
      <polygon points="104.2 373.3 114.2 373.3 114.2 363.4 104.2 363.4 104.2 373.3"/>
      <polygon points="273.8 343.4 263.9 343.4 263.9 353.4 273.8 353.4 273.8 343.4"/>
      <polygon points="94.3 383.3 104.2 383.3 104.2 373.3 94.3 373.3 94.3 383.3"/>
      <polygon points="273.8 373.3 273.8 363.4 253.9 363.4 253.9 373.3 263.9 373.3 263.9 383.3 283.8 383.3 283.8 373.3 273.8 373.3"/>
    </g>
    <rect width="49.9" height="10" x="154.1" y="273.6" fill="#BF6F58"/>
    <polygon fill="#A3A3A4" points="251.1 377.8 254.4 388.2 264.8 384.8 261.5 374.4 251.1 377.8"/>
    <rect width="10.9" height="21.9" x="247.5" y="354.7" fill="#C5C3C4" transform="rotate(-17.7 253 365.7)"/>
    <rect width="131.2" height="10.9" x="76.3" y="390" fill="#FDD2A4" transform="rotate(-17.7 142 395.4)"/>
    <g fill="#D18056">
      <rect width="87.5" height="10.9" x="80.2" y="441.6" transform="rotate(-17.7 124 447.1)"/>
      <polygon points="240.6 381.1 234 360.3 223.6 363.6 230.2 384.4 219.8 387.8 223.1 398.2 244 391.5 240.6 381.1"/>
      <rect width="65.6" height="10.9" x="160.8" y="407.9" transform="rotate(-17.7 193.6 413.4)"/>
      <polygon points="66.9 448.1 70.2 458.6 80.6 455.2 77.3 444.8 66.9 448.1"/>
    </g>
    <path fill="#F8A676" d="m219.8 387.8 10.4-3.4-6.6-20.8-10.5 3.3-3.3-10.4-62.5 20L144 366l-83.3 26.6 3.3 10.4-10.4 3.4L66.9 448l10.4-3.3 3.3 10.4 83.4-26.6-3.4-10.4 62.5-20-3.3-10.4zm-17-17.6 3.3 10.5-125 40-3.4-10.5 125-40z"/>
    <g fill="#231F20">
      <rect width="87.5" height="10.9" x="83.6" y="452.1" transform="rotate(-17.7 127.3 457.5)"/>
      <rect width="65.6" height="10.9" x="164.1" y="418.3" transform="rotate(-17.7 197 423.8)"/>
      <polygon points="223.6 363.6 234 360.3 244 391.5 254.4 388.2 244.4 356.9 254.8 353.6 251.5 343.2 209.8 356.5 213.2 366.9 223.6 363.6"/>
      <rect width="65.6" height="10.9" x="144.1" y="355.8" transform="rotate(-17.7 177 361.3)"/>
      <polygon points="264.8 384.8 223.1 398.2 226.5 408.6 268.1 395.3 264.8 384.8"/>
      <rect width="10.9" height="54.7" x="51.2" y="406.8" transform="rotate(-17.7 56.7 434.2)"/>
      <rect width="87.5" height="10.9" x="56.9" y="368.7" transform="rotate(-17.7 100.7 374.2)"/>
      <polygon points="60.6 392.7 50.2 396.1 53.6 406.5 64 403.1 60.6 392.7"/>
      <polygon points="70.2 458.6 73.5 469 84 465.6 80.6 455.2 70.2 458.6"/>
    </g>
  </g>
</svg>
