<svg xmlns="http://www.w3.org/2000/svg" viewBox="0 0 820 64">
  <g fill="#231f20">
    <path d="M54.6 0H0v63.5h28v-8.9h7.6v9h28V44.4h-9v-7.6h9v-28h-9V0Zm-19 19.1v7.6h-7.7v-7.6h7.6Z"/>
    <polygon points="71.1 63.5 125.8 63.5 125.8 44.5 99 44.5 99 36.9 116.9 36.9 116.9 19 125.8 19 125.8 0 71.1 0 71.1 63.5"/>
    <polygon points="188 17.8 179.2 17.8 179.2 0 151.1 0 151.1 17.8 142.2 17.8 142.2 35.6 133.4 35.6 133.4 63.5 161.3 63.5 161.3 54.6 169 54.6 169 63.5 196.9 63.5 196.9 35.6 188 35.6 188 17.8"/>
    <path d="M302.3 8.8h-7.7V0h-27.9v8.9h-7.6V0h-54.6v63.5H259v-8.9h8.9V28h7.6v8.9h8.9v26.6h28V28h8.9V19h8.8V0h-27.9v8.8Zm-62.2 10.3v25.4h-7.7V19h7.7Z"/>
    <path d="M463.6 0h-45.8v8.9h-7.6V0h-63.5v19h17.8v44.5h27.9V19H409v35.6h8.8v9h45.8v-9h8.9V9h-8.9V0Zm-19 19.1v25.4h-7.7V19h7.7Z"/>
    <path d="M561.4 0h-54.7v63.5h28V45.8h26.7v-9h8.8v-28h-8.8V0Zm-19 19.1v7.6h-7.8v-7.6h7.7Z"/>
    <polygon points="685.9 17.8 677 17.8 677 0 649 0 649 17.8 640.1 17.8 640.1 35.6 631.2 35.6 631.2 44.5 605.8 44.5 605.8 0 577.8 0 577.8 63.5 631.2 63.5 632.5 63.5 659.1 63.5 659.1 54.6 666.8 54.6 666.8 63.5 694.7 63.5 694.7 35.6 685.9 35.6 685.9 17.8"/>
    <polygon points="810.3 8.9 810.3 0 764.5 0 764.5 8.9 757 8.9 757 0 729 0 729 8.8 721.4 8.8 721.4 0 693.4 0 693.4 28 702.3 28 702.3 36.9 711.2 36.9 711.2 63.5 739.3 63.5 739.3 27.9 748.1 27.9 748.1 19 755.7 19 755.7 27.9 773.4 27.9 773.4 63.5 801.4 63.5 801.4 36.9 810.3 36.9 810.3 27.9 819.2 27.9 819.2 8.9 810.3 8.9"/>
  </g>
  <g fill="#fff">
    <path d="M40.6 58.5v-8.9h-8.9v-8.8H23v17.7H5V5h44.6v8.9h9v18h-9v17.6h9v9h-18Zm0-44.4H22.8v17.6h17.6V14.1Z"/>
    <path d="M76.1 58.5V5h44.7v9H94v8.8H112v9H94v17.7h26.8v9H76Z"/>
    <path d="M174 58.5v-8.9h-17.7v9h-18v-18h9V22.8h8.8V5h18.1v17.8h8.8v17.8h8.9v18h-18Zm0-26.6h-17.7v8.7H174v-8.7Z"/>
    <path d="M254.1 49.6v9h-44.6V5H254v8.9h8.9v35.7h-8.9Zm-9-35.5h-17.7v35.4h17.7V14Z"/>
    <path d="M316.4 14v9h-8.8v35.5h-18.1V32h-8.9V23h-8.9V5h18v8.8h8.9v8.9h8.7V5h18v9h-8.9Z"/>
    <path d="M387.4 14v44.5h-18V14h-17.7V5h53.5v9h-17.8Z"/>
    <path d="M458.6 49.6v9h-35.8v-9H414V14h8.8V5h35.8v8.9h8.9v35.7h-8.9Zm-9-35.5h-17.7v35.4h17.7V14Z"/>
    <path d="M556.4 31.9v8.9h-26.8v17.7h-17.9V5h44.7v8.9h8.8v18h-8.8Zm-9-17.8h-17.8v17.6h17.7V14.1Z"/>
    <path d="M582.8 58.5V5h18v44.5h26.7v9h-44.7Z"/>
    <path d="M671.8 58.5v-8.9H654v9h-18v-18h9V22.8h8.9V5h18v17.8h8.9v17.8h8.8v18h-18Zm0-26.6H654v8.7h17.7v-8.7Z"/>
    <path d="M743.1 14v9h-8.8v35.5h-18.1V32h-8.9V23h-8.9V5h18v8.8h8.9v8.9h8.7V5h18v9H743Z"/>
    <path d="M805.3 23v8.9h-8.9v8.9h-18v-9h9V14h-8.8V23h-18v-9h9V5h35.7v8.9h8.9v9h-8.9Zm-26.9 35.5v-9h18v9h-18Z"/>
  </g>
</svg>