<svg xmlns="http://www.w3.org/2000/svg" viewBox="0 0 891 64">
  <g fill="#231F20">
    <path d="M116.9 0H71v8.9h-7.6V0H35.6v8.8h-7.7V0H0v28h8.9v8.9h8.9v26.6h28V28h8.9V19h7.5v35.6h9v9h45.7v-9h8.9V9h-9V0zm-19 19.1v25.4h-7.7V19h7.6z"/>
    <polygon points="169 44.5 161.3 44.5 161.3 0 133.4 0 133.4 54.6 142.2 54.6 142.2 63.5 188 63.5 188 54.6 196.9 54.6 196.9 0 169 0"/>
    <polygon points="266.7 17.8 259 17.8 259 0 231.1 0 231.1 63.5 259 63.5 259 36.9 266.7 36.9 266.7 63.5 294.6 63.5 294.6 0 266.7 0"/>
    <polygon points="328.9 0 302.2 0 302.2 63.5 330.2 63.5 330.2 19 346.6 19 346.6 63.5 374.6 63.5 374.6 19 392.3 19 392.3 0 330.2 0"/>
    <polygon points="472.4 17.8 463.6 17.8 463.6 0 435.5 0 435.5 17.8 426.6 17.8 426.6 35.6 417.8 35.6 417.8 63.5 445.7 63.5 445.7 54.6 453.4 54.6 453.4 63.5 481.3 63.5 481.3 35.6 472.4 35.6"/>
    <path d="M623.5 0H506.6v19h17.8v44.5h28V19h16.5v44.5h27.9v-8.9h7.6v9h28V44.4h-8.9v-7.6h8.9v-28h-8.9V0zm-19.1 19.1v7.6h-7.6v-7.6h7.6z"/>
    <rect width="27.9" height="63.5" x="640"/>
    <path d="M730.1 0h-54.6v63.5h28V45.8H730v-9h9v-28h-9V0zm-19 19.1v7.6h-7.7v-7.6h7.7z"/>
    <polygon points="800 44.5 774.5 44.5 774.5 0 746.6 0 746.6 63.5 800 63.5 801.3 63.5 854.6 63.5 854.6 44.5 827.9 44.5 827.9 36.9 845.8 36.9 845.8 19 854.6 19 854.6 0 800 0"/>
    <rect width="27.9" height="63.5" x="862.2"/>
  </g>
  <path fill="#FFF" d="M49.7 13v9h-8.9v35.5h-18V31h-9V22H5V4h18v8.8h8.8v8.9h8.8V4h18v9h-9z"/>
  <path fill="#FFF" d="M111.9 48.6v9H76v-9h-8.9V13h9V4h35.7v8.9h8.9v35.7h-9zm-9-35.5H85.1v35.4h17.6V13z"/>
  <path fill="#FFF" d="M183 48.6v9h-35.8v-9h-8.8V4h17.9v44.5H174V4h17.9v44.6H183z"/>
  <path fill="#FFF" d="M271.7 57.5V31H254v26.6h-17.9V4h18v17.8h17.6V4h18v53.5h-18z"/>
  <path fill="#FFF" d="M307.2 57.5V4h18v53.5h-18z"/>
  <path fill="#FFF" d="M369.6 13v44.5h-18V13H334V4h53.4v9h-17.8z"/>
  <path fill="#FFF" d="M458.4 57.5v-8.9h-17.7v9h-18v-18h9V21.8h8.8V4h18.1v17.8h8.8v17.8h8.9v18h-18zm0-26.6h-17.7v8.7h17.7v-8.7z"/>
  <path fill="#FFF" d="M547.3 13v44.5h-18V13h-17.7V4h53.5v9h-17.8z"/>
  <path fill="#FFF" d="M609.4 57.5v-8.9h-8.8v-8.8h-8.8v17.7h-18V4h44.7v8.9h8.9v18h-8.9v17.6h8.9v9h-18zm0-44.4h-17.6v17.6h17.6V13.1z"/>
  <path fill="#FFF" d="M645 57.5V4h18v53.5h-18z"/>
  <path fill="#FFF" d="M725.1 30.9v8.9h-26.7v17.7h-17.9V4h44.6v8.9h9v18h-9zm-9-17.8h-17.7v17.6h17.7V13.1z"/>
  <path fill="#FFF" d="M751.6 57.5V4h18v44.5h26.7v9h-44.7z"/>
  <path fill="#FFF" d="M805 57.5V4h44.6v9H823v8.8h17.8v9H823v17.7h26.7v9H805z"/>
  <path fill="#FFF" d="M867.2 39.8V4h18v35.8h-18zm0 17.7v-9h18v9h-18z"/>
</svg>
