<svg xmlns="http://www.w3.org/2000/svg" viewBox="0 0 944 64">
  <g fill="#231F20">
    <path d="M116.9 0H71v8.9h-7.6V0H35.6v8.8h-7.7V0H0v28h8.9v8.9h8.9v26.6h28V28h8.9V19h7.5v35.6h9v9h45.7v-9h8.9V9h-9V0zm-19 19.1v25.4h-7.7V19h7.6z"/>
    <polygon points="169 44.5 161.3 44.5 161.3 0 133.4 0 133.4 54.6 142.2 54.6 142.2 63.5 188 63.5 188 54.6 196.9 54.6 196.9 0 169 0"/>
    <polygon points="266.7 17.8 259 17.8 259 0 231.1 0 231.1 63.5 259 63.5 259 36.9 266.7 36.9 266.7 63.5 294.6 63.5 294.6 0 266.7 0"/>
    <polygon points="328.9 0 302.2 0 302.2 63.5 330.2 63.5 330.2 19 346.6 19 346.6 63.5 374.6 63.5 374.6 19 392.3 19 392.3 0 330.2 0"/>
    <polygon points="472.4 17.8 463.6 17.8 463.6 0 435.5 0 435.5 17.8 426.6 17.8 426.6 35.6 417.8 35.6 417.8 63.5 445.7 63.5 445.7 54.6 453.4 54.6 453.4 63.5 481.3 63.5 481.3 35.6 472.4 35.6"/>
    <path d="M570.1 0h-54.6v63.5h54.6v-8.9h9V9h-9V0zm-19 19.1v25.4h-7.7V19h7.7z"/>
    <path d="M641.3 0h-45.8v8.9h-8.9v45.7h9v9h45.7v-9h8.9V9h-9V0zm-19 19.1v25.4h-7.7V19h7.6z"/>
    <polygon points="693.4 44.5 685.7 44.5 685.7 0 657.8 0 657.8 54.6 666.6 54.6 666.6 63.5 712.4 63.5 712.4 54.6 721.3 54.6 721.3 0 693.4 0"/>
    <path d="M783.5 0H729v63.5h54.6v-8.9h8.9V9h-8.9V0zm-19 36.9v7.6h-7.7v-7.6h7.7z"/>
    <polygon points="853.4 44.5 827.9 44.5 827.9 0 800 0 800 63.5 853.4 63.5 854.6 63.5 908 63.5 908 44.5 881.3 44.5 881.3 36.9 899.1 36.9 899.1 19 908 19 908 0 853.4 0"/>
    <rect width="27.9" height="63.5" x="915.6"/>
  </g>
  <path fill="#FFF" d="M49.7 14v9h-8.9v35.5h-18V32h-9V23H5V5h18v8.8h8.8v8.9h8.8V5h18v9h-9z"/>
  <path fill="#FFF" d="M111.9 49.6v9H76v-9h-8.9V14h9V5h35.7v8.9h8.9v35.7h-9zm-9-35.5H85.1v35.4h17.6V14z"/>
  <path fill="#FFF" d="M183 49.6v9h-35.8v-9h-8.8V5h17.9v44.5H174V5h17.9v44.6H183z"/>
  <path fill="#FFF" d="M271.7 58.5V32H254v26.6h-17.9V5h18v17.8h17.6V5h18v53.5h-18z"/>
  <path fill="#FFF" d="M307.2 58.5V5h18v53.5h-18z"/>
  <path fill="#FFF" d="M369.6 14v44.5h-18V14H334V5h53.4v9h-17.7z"/>
  <path fill="#FFF" d="M458.4 58.5v-8.9h-17.7v9h-18v-18h9V22.8h8.8V5h18.1v17.8h8.8v17.8h8.9v18h-18zm0-26.6h-17.7v8.7h17.7v-8.7z"/>
  <path fill="#FFF" d="M565.1 49.6v9h-44.6V5h44.6v8.9h9v35.7h-9zm-9-35.5h-17.7v35.4h17.7V14z"/>
  <path fill="#FFF" d="M636.3 49.6v9h-35.8v-9h-8.9V14h9V5h35.7v8.9h8.9v35.7h-9zm-9-35.5h-17.7v35.4h17.6V14z"/>
  <path fill="#FFF" d="M707.4 49.6v9h-35.8v-9h-8.9V5h18v44.5h17.6V5h18v44.6h-9z"/>
  <path fill="#FFF" d="M778.5 49.6v9H734V5h44.6v8.9h8.9v9h-8.9v8.8h8.9v18h-8.9zm-9-35.5h-17.7v8.6h17.7V14zm0 17.8h-17.7v17.6h17.7V31.9z"/>
  <path fill="#FFF" d="M805 58.5V5h18v44.5h26.6v9H805z"/>
  <path fill="#FFF" d="M858.4 58.5V5H903v9h-26.7v8.8H894v9h-17.8v17.7H903v9h-44.6z"/>
  <path fill="#FFF" d="M920.6 40.8V5h18v35.8h-18zm0 17.7v-9h18v9h-18z"/>
</svg>
