<svg xmlns="http://www.w3.org/2000/svg" viewBox="0 0 848 54">
  <g fill="#231F20">
    <path d="M96.8 0h-39v7.2h-4.3V0H28.9v7.2h-4.3V0H0v24.6h7.2v7.2h7.2v21.7h24.7v-29h7.2v-7.2h4.3v29h7.2v7.2h39v-7.2h7.2v-39h-7.2V0zM79.5 17.4v18.7h-4.4V17.4h4.4z"/>
    <polygon points="137.3 36.1 132.9 36.1 132.9 0 108.4 0 108.4 46.3 115.6 46.3 115.6 53.5 154.6 53.5 154.6 46.3 161.8 46.3 161.8 0 137.3 0"/>
    <polygon points="195 7.2 187.8 7.2 187.8 46.3 195 46.3 195 53.5 241.3 53.5 241.3 21.7 216.6 21.7 216.6 36.1 212.3 36.1 212.3 17.4 241.3 17.4 241.3 0 195 0"/>
    <path d="M291.8 0h-46.2v53.5H270v-7.2h4.4v7.2H299V36h-7.2v-4.3h7.2V7.2h-7.2V0zm-17.4 17.4v4.3h-4.3v-4.3h4.3z"/>
    <path d="M349.6 0h-39v7.2h-7.2v39h7.2v7.3h39v-7.2h7.2v-39h-7.2V0zm-17.3 17.4v18.7h-4.4V17.4h4.4z"/>
    <polygon points="390.1 36.1 385.7 36.1 385.7 0 361.1 0 361.1 46.3 368.4 46.3 368.4 53.5 407.4 53.5 407.4 46.3 414.6 46.3 414.6 0 390.1 0"/>
    <polygon points="455.1 14.4 450.7 14.4 450.7 0 418.9 0 418.9 53.5 436.3 53.5 436.3 39 440.6 39 440.6 53.5 472.4 53.5 472.4 0 455.1 0"/>
    <path d="M523 0h-46.3v53.5H523v-7.2h7.2v-39H523V0zm-17.4 17.4v18.7h-4.3V17.4h4.3z"/>
    <polygon points="534.5 53.5 580.8 53.5 580.8 36.1 559 36.1 559 31.8 573.5 31.8 573.5 17.4 580.8 17.4 580.8 0 534.5 0"/>
    <path d="M631.3 0h-46.2v53.5h46.2v-7.2h7.2v-39h-7.2V0zM614 17.4v18.7h-4.4V17.4h4.4z"/>
    <path d="M710.8 0h-39.1v7.2h-7.2v39h7.2v7.3h39v-7.2h7.3v-39h-7.2V0zm-17.4 17.4v18.7H689V17.4h4.4z"/>
    <polygon points="826.3 0 823.4 0 775.8 0 772.8 0 751.2 0 751.2 36.1 746.8 36.1 746.8 0 722.3 0 722.3 46.3 729.5 46.3 729.5 53.5 768.5 53.5 768.5 46.3 775.8 46.3 775.8 17.4 787.3 17.4 787.3 53.5 811.8 53.5 811.8 17.4 823.4 17.4 823.4 53.5 848 53.5 848 0"/>
  </g>
  <path fill="#FFF" d="M41.3 12.3v7.3h-7.2v28.9H19.4V26.8h-7.2v-7.2H5V5h14.6v7.2h7.2v7.2H34V5h14.6v7.3h-7.2z"/>
  <path fill="#FFF" d="M91.8 41.3v7.2h-29v-7.2h-7.2v-29h7.2V5h29v7.2H99v29h-7.2zm-7.3-28.9H70.1v28.7h14.4V12.4z"/>
  <path fill="#FFF" d="M149.6 41.3v7.2h-29v-7.2h-7.2V5h14.5v36.1h14.4V5h14.6v36.3h-7.3z"/>
  <path fill="#FFF" d="M229 48.5v-7.2h-7.2v7.2H200v-7.2h-7.2v-29h7.2V5h36.3v7.4h-29v28.7h14.4V26.7h14.6v21.8h-7.4z"/>
  <path fill="#FFF" d="M279.5 48.5v-7.2h-7.2V34H265v14.4h-14.5V5h36.2v7.2h7.2v14.6h-7.2v14.3h7.2v7.4h-14.5zm0-36H265v14.2h14.3V12.4z"/>
  <path fill="#FFF" d="M344.6 41.3v7.2h-29v-7.2h-7.2v-29h7.2V5h29v7.2h7.2v29h-7.2zm-7.3-28.9h-14.4v28.7h14.4V12.4z"/>
  <path fill="#FFF" d="M402.4 41.3v7.2h-29v-7.2h-7.2V5h14.5v36.1h14.4V5h14.5v36.3h-7.2z"/>
  <path fill="#FFF" d="M445.6 48.5V34h-7.3V19.6h-7v28.9h-7.4V5h21.8v14.4h7.2v14.5h7.2V5h7.3v43.5h-21.8z"/>
  <path fill="#FFF" d="M518 41.3v7.2h-36.3V5H518v7.2h7.2v29H518zm-7.4-28.9h-14.3v28.7h14.3V12.4z"/>
  <path fill="#FFF" d="M539.5 48.5V5h36.3v7.3H554v7.2h14.4v7.3H554v14.3h21.8v7.4h-36.3z"/>
  <path fill="#FFF" d="M626.3 41.3v7.2h-36.2V5h36.2v7.2h7.2v29h-7.2zM619 12.4h-14.4v28.7H619V12.4z"/>
  <path fill="#FFF" d="M705.8 41.3v7.2h-29.1v-7.2h-7.2v-29h7.2V5h29v7.2h7.3v29h-7.2zm-7.4-28.9H684v28.7h14.4V12.4z"/>
  <path fill="#FFF" d="M763.5 41.3v7.2h-29v-7.2h-7.2V5h14.5v36.1h14.4V5h14.6v36.3h-7.3z"/>
  <path fill="#FFF" d="M806.8 12.3v36.2h-14.5V12.4h-14.5V5h43.5v7.3h-14.5z"/>
  <path fill="#FFF" d="M828.4 34V5H843v29h-14.6zm0 14.5v-7.3H843v7.3h-14.6z"/>
</svg>
