<svg xmlns="http://www.w3.org/2000/svg" viewBox="0 0 900 64">
  <g fill="#231F20">
    <path d="M116.9 0H71v8.9h-7.6V0H35.6v8.8h-7.7V0H0v28h8.9v8.9h8.9v26.6h28V28h8.9V19h7.5v35.6h9v9h45.7v-9h8.9V9h-9V0zm-19 19.1v25.4h-7.7V19h7.6z"/>
    <polygon points="169 44.5 161.3 44.5 161.3 0 133.4 0 133.4 54.6 142.2 54.6 142.2 63.5 188 63.5 188 54.6 196.9 54.6 196.9 0 169 0"/>
    <polygon points="266.7 17.8 259 17.8 259 0 231.1 0 231.1 63.5 259 63.5 259 36.9 266.7 36.9 266.7 63.5 294.6 63.5 294.6 0 266.7 0"/>
    <polygon points="328.9 0 302.2 0 302.2 63.5 330.2 63.5 330.2 19 346.6 19 346.6 63.5 374.6 63.5 374.6 19 392.3 19 392.3 0 330.2 0"/>
    <polygon points="472.4 17.8 463.6 17.8 463.6 0 435.5 0 435.5 17.8 426.6 17.8 426.6 35.6 417.8 35.6 417.8 63.5 445.7 63.5 445.7 54.6 453.4 54.6 453.4 63.5 481.3 63.5 481.3 35.6 472.4 35.6"/>
    <polygon points="524.4 8.9 515.5 8.9 515.5 36.9 524.4 36.9 524.4 44.5 515.5 44.5 515.5 63.5 561.3 63.5 561.3 54.6 570.1 54.6 570.1 26.7 561.3 26.7 561.3 19.1 570.1 19.1 570.1 0 524.4 0"/>
    <rect width="27.9" height="63.5" x="577.8"/>
    <polygon points="657.8 17.7 650.1 17.7 650.1 0 613.3 0 613.3 63.5 632.3 63.5 632.3 45.8 639.9 45.8 639.9 63.5 676.8 63.5 676.8 0 657.8 0"/>
    <polygon points="693.3 8.9 684.4 8.9 684.4 54.6 693.3 54.6 693.3 63.5 747.9 63.5 747.9 26.7 719.9 26.7 719.9 44.5 712.3 44.5 712.3 19.1 747.9 19.1 747.9 0 693.3 0"/>
    <polygon points="808.9 44.5 783.4 44.5 783.4 0 755.5 0 755.5 63.5 808.9 63.5 810.1 63.5 863.5 63.5 863.5 44.5 836.8 44.5 836.8 36.9 854.6 36.9 854.6 19 863.5 19 863.5 0 808.9 0"/>
    <rect width="27.9" height="63.5" x="871.1"/>
  </g>
  <path fill="#FFF" d="M49.7 14v9h-8.9v35.5h-18V32h-9V23H5V5h18v8.8h8.8v8.9h8.8V5h18v9h-9z"/>
  <path fill="#FFF" d="M111.9 49.6v9H76v-9h-8.9V14h9V5h35.7v8.9h8.9v35.7h-9zm-9-35.5H85.1v35.4h17.6V14z"/>
  <path fill="#FFF" d="M183 49.6v9h-35.8v-9h-8.8V5h17.9v44.5H174V5h17.9v44.6H183z"/>
  <path fill="#FFF" d="M271.7 58.5V32H254v26.6h-17.9V5h18v17.8h17.6V5h18v53.5h-18z"/>
  <path fill="#FFF" d="M307.2 58.5V5h18v53.5h-18z"/>
  <path fill="#FFF" d="M369.6 14v44.5h-18V14H334V5h53.4v9h-17.8z"/>
  <path fill="#FFF" d="M458.4 58.5v-8.9h-17.7v9h-18v-18h9V22.8h8.8V5h18v17.8h9v17.8h8.8v18h-18zm0-26.6h-17.7v8.7h17.7v-8.7z"/>
  <path fill="#FFF" d="M556.3 49.6v9h-35.8v-9.1h26.7v-8.7h-17.8v-9h-8.9v-18h8.9V5h35.8v9.1h-26.8v8.7h17.9v9h8.9v17.8h-9z"/>
  <path fill="#FFF" d="M582.8 58.5V5h17.9v53.5h-18z"/>
  <path fill="#FFF" d="M645 58.5V40.8h-9V22.9h-8.7v35.6h-9V5H645v17.7h8.9v17.9h8.8V5h9v53.5h-26.9z"/>
  <path fill="#FFF" d="M733.9 58.5v-8.9h-8.7v9h-27v-9h-8.8V14h8.9V5h44.6v9.1h-35.6v35.4H725V31.7h18v26.8h-9z"/>
  <path fill="#FFF" d="M760.5 58.5V5h18v44.5H805v9h-44.6z"/>
  <path fill="#FFF" d="M813.9 58.5V5h44.6v9h-26.7v8.8h17.8v9h-17.8v17.7h26.7v9H814z"/>
  <path fill="#FFF" d="M876.1 40.8V5h18v35.8h-18zm0 17.7v-9h18v9h-18z"/>
</svg>
