<svg xmlns="http://www.w3.org/2000/svg" width="92" height="82" viewBox="0 0 92 82">
<path fill="#df001f" d="M69.188 30.75l-.081-28.091A2.57 2.57 0 0066.545.1L25.577 0a2.6 2.6 0 00-2.6 2.6l.08 28.155zM0 51.25v25.625A5.119 5.119 0 005.125 82h82a5.119 5.119 0 005.125-5.125V51.25zm92.042-5.125a1.335 1.335 0 00.128-.192l-8.889-22.2a5.135 5.135 0 00-4.756-3.219h-4.261l.032 10.25 2.563 5.125H15.3l2.562-5.125h.081l-.033-10.25h-4.18a5.135 5.135 0 00-4.756 3.219l-8.9 22.2c.048.08.08.112.128.192z"/>
</svg>
