<svg xmlns="http://www.w3.org/2000/svg" width="752" height="620" viewBox="0 0 752 620">
  <linearGradient id="a" x1="584.2" x2="584.2" y1="573.7" y2="676.3" gradientTransform="translate(0 -534)" gradientUnits="userSpaceOnUse">
    <stop offset="0" stop-color="#fffffa"/>
    <stop offset="1" stop-color="#d4d1c9"/>
  </linearGradient>
  <path fill="url(#a)" d="M752 88 416.5 48.9 752 107.3V88z"/>
  <linearGradient id="b" x1="584.2" x2="584.2" y1="580.3" y2="777.2" gradientTransform="translate(0 -534)" gradientUnits="userSpaceOnUse">
    <stop offset="0" stop-color="#fffffa"/>
    <stop offset="1" stop-color="#d4d1c9"/>
  </linearGradient>
  <path fill="url(#b)" d="M752 107.3 416.5 49V50l335.5 102v-44.8z"/>
  <linearGradient id="c" x1="167.8" x2="167.8" y1="575.3" y2="690" gradientTransform="translate(0 -534)" gradientUnits="userSpaceOnUse">
    <stop offset="0" stop-color="#fffffa"/>
    <stop offset="1" stop-color="#d4d1c9"/>
  </linearGradient>
  <path fill="url(#c)" d="M0 88v19.3L335.5 49 0 87.9z"/>
  <linearGradient id="d" x1="167.8" x2="167.8" y1="582.1" y2="780.2" gradientTransform="translate(0 -534)" gradientUnits="userSpaceOnUse">
    <stop offset="0" stop-color="#fffffa"/>
    <stop offset="1" stop-color="#d4d1c9"/>
  </linearGradient>
  <path fill="url(#d)" d="M0 107.3v44.8l335.5-102V49L0 107.3z"/>
  <linearGradient id="e" x1="376" x2="376" y1="580.1" y2="939.8" gradientTransform="translate(0 -534)" gradientUnits="userSpaceOnUse">
    <stop offset="0" stop-color="#cececa"/>
    <stop offset=".3" stop-color="#9f9f9d"/>
    <stop offset="1" stop-color="#7e7d79"/>
  </linearGradient>
  <path fill="url(#e)" d="M752 620V152L416.5 50h-81L0 152V620h752z"/>
  <path fill="#DEDEDE" d="M168.6 262h-11.4l49.3-49.7h9.1l-47 49.8zm82.3-87h-7.3l22-22.2h6.3l-21 22.2zm39-41.3h-5.3l12.4-12.4h4.8L290 133.8zm22.8-24h-4.3l8-8h3.9l-7.6 8zm15-15.8H324l5.5-5.6h3.3l-5.3 5.6zm10.5-11.1h-3l4-4.1h2.8l-3.8 4.1zm7.8-8.3h-2.6l3-3.1h2.6l-3 3.1zm6-6.4h-2.3l2.5-2.4h2.2L352 68zm4.9-5h-2.1l2-2h2l-2 2zm3.9-4.2h-2l1.7-1.7h1.8l-1.5 1.7zm3.2-3.4h-1.7l1.4-1.4h1.7l-1.4 1.4zm2.8-3h-1.6l1.2-1.2h1.5l-1.1 1.2zm216.6 209.6H595l-49.4-49.8h-9.1l47 49.8zM501.1 175h7.3l-22-22.2h-6.3l21 22.2zm-39-41.3h5.3L455 121.3h-4.8l11.8 12.5zm-22.8-24h4.3l-8-8h-3.9l7.6 8zm-15-15.8h3.6l-5.5-5.6H419l5.3 5.6zm-10.5-11.1h3l-4-4.1H410l3.8 4.1zm-7.8-8.3h2.6l-3-3.1H403l3 3.1zm-6-6.4h2.3l-2.5-2.4h-2.2L400 68zm-4.9-5h2.1l-2-2h-2l2 2zm-3.9-4.2h2l-1.7-1.7h-1.8l1.5 1.7zm-3.2-3.4h1.7l-1.4-1.4h-1.7l1.4 1.4zm-2.8-3h1.6l-1.2-1.2h-1.5l1.1 1.2zM752 420.3l-53.8-54H682l70 74v-20zm-752 20 70-74H53.7L0 420.2v20z"/>
</svg>
