<svg xmlns="http://www.w3.org/2000/svg" width="228" height="162" viewBox="0 0 228 162">
  <g fill="#00745B">
    <path d="M97.64 84.55V80.2c0-5.68 3.47-10.82 7.5-15.48 6.47-7.42 14.84-13.34 14.84-21.87 0-4.97-2.13-7.97-6.47-7.97-4.11 0-6.55 2.92-7.26 9.47l-8.13-.79c.95-10.9 6.16-16.42 15.79-16.42 10.26 0 15.08 5.84 15.08 15.32 0 11.37-11.13 19.34-16.98 26.45-2.37 2.68-4.11 5.37-4.26 7.66h21.32v7.97H97.64zM33.05 134.41v-35.2h18v5.3H38.88v9.17h9.07v5.1h-9.07v10.35h12.8v5.3H33.05zM72.42 134.41l-11.23-24.32h-.1v24.32h-5.2v-35.2h6.72l9.66 21.38h.1V99.21h5.3v35.21h-5.25zM88.7 134.41V104.5h-7.26v-5.3h20.3v5.3h-7.26v29.91H88.7zM120.91 134.41l-5.05-14.51h-4.46v14.51h-5.83v-35.2h9.32c7.55 0 11.18 2.89 11.18 9.76 0 4.46-1.91 7.21-4.95 8.58l6.13 16.87h-6.34zm-6.17-19.46c2.65 0 5.39-.93 5.39-5.44 0-4.95-2.79-5.25-5.44-5.25h-3.29v10.69h3.34zM131.36 134.41v-35.2h5.83v35.21h-5.83zM143.37 134.41v-35.2h18v5.3h-12.16v9.17h9.07v5.1h-9.07v10.35H162v5.3h-18.63zM179.16 108.52c-.74-2.99-2.01-4.85-4.76-4.85-2.45 0-3.97 1.37-3.97 3.63 0 7.36 14.42 6.47 14.42 18 0 6.13-4.02 9.56-10.3 9.56s-9.22-3.04-10.35-9.37l5.39-.93c.69 3.58 2.01 5.39 5.15 5.39 2.65 0 4.46-1.47 4.46-4.22 0-7.75-14.27-6.82-14.27-18.09 0-5.44 3.58-8.87 9.41-8.87 6.13 0 8.88 3.43 9.86 8.78l-5.04.97zM189.71 122.55l-1.37-23.34h6.62l-1.32 23.34h-3.93zm-.98 11.86v-6.62h5.88v6.62h-5.88z"/>
  </g>
</svg>
