<svg xmlns="http://www.w3.org/2000/svg" viewBox="0 0 24 24">
<style>
/* <![CDATA[ */

#a1, #a2, #a3, #a4, #a5, #a6, #a7, #a8, #a9, #a10, #a11, #a12, #a13 {
visibility: hidden;
animation-duration: .7s;
animation-iteration-count: 1;
animation-timing-function: steps(1);
animation-fill-mode: forwards;
}

/* ]]> */
</style>
<path id="a1" d="M18.3 5.71c-.39-.39-1.02-.39-1.41 0L12 10.59 7.11 5.7c-.39-.39-1.02-.39-1.41 0s-.39 1.02 0 1.41L10.59 12 5.7 16.89c-.39.39-.39 1.02 0 1.41s1.02.39 1.41 0L12 13.41l4.89 4.89c.39.39 1.02.39 1.41 0s.39-1.02 0-1.41L13.41 12l4.89-4.89c.38-.38.38-1.02 0-1.4z"/>
<path id="a2" d="M18.58 5.694c-.39-.39-1.02-.39-1.41 0l-5.202 5.192-4.753-4.752c-.39-.39-1.02-.39-1.41 0s-.39 1.02 0 1.41l4.752 4.752-4.619 4.619c-.39.39-.39 1.02 0 1.41s1.02.39 1.41 0l4.783-4.783 4.231 4.231c.39.39 1.02.39 1.41 0s.39-1.02 0-1.41l-4.231-4.231 5.038-5.038c.381-.38.381-1.02.001-1.4z"/>
<path id="a3" d="M18.896 5.704c-.39-.39-1.02-.39-1.41 0l-5.541 5.531-4.643-4.643c-.39-.39-1.02-.39-1.41 0s-.39 1.02 0 1.41l4.643 4.643-4.302 4.302c-.39.39-.39 1.02 0 1.41s1.02.39 1.41 0l4.651-4.651 3.5 3.5c.39.39 1.02.39 1.41 0s.39-1.02 0-1.41l-3.5-3.5 5.191-5.191c.381-.381.381-1.021.001-1.401z"/>
<path id="a4" d="M19.154 5.758c-.39-.39-1.02-.39-1.41 0l-5.847 5.837-4.61-4.61c-.39-.39-1.02-.39-1.41 0s-.39 1.02 0 1.41l4.61 4.61-3.957 3.957c-.39.39-.39 1.02 0 1.41s1.02.39 1.41 0l4.511-4.511 2.807 2.807c.39.39 1.02.39 1.41 0s.39-1.02 0-1.41l-2.807-2.807 5.293-5.293c.38-.38.38-1.02 0-1.4z"/>
<path id="a5" d="M19.459 5.777c-.39-.39-1.02-.39-1.41 0l-6.321 6.311-4.492-4.493c-.39-.39-1.02-.39-1.41 0s-.39 1.02 0 1.41l4.493 4.493-3.466 3.466c-.39.39-.39 1.02 0 1.41s1.02.39 1.41 0l4.35-4.35 2.128 2.128c.39.39 1.02.39 1.41 0s.39-1.02 0-1.41l-2.128-2.128 5.436-5.436c.38-.381.38-1.021 0-1.401z"/>
<path id="a6" d="M19.759 5.842c-.39-.39-1.02-.39-1.41 0l-6.767 6.757-4.395-4.396c-.39-.39-1.02-.39-1.41 0-.39.39-.39 1.02 0 1.41l4.395 4.395-2.945 2.945c-.39.39-.39 1.02 0 1.41s1.02.39 1.41 0l4.158-4.158 1.36 1.36c.39.39 1.02.39 1.41 0s.39-1.02 0-1.41l-1.36-1.36 5.553-5.553c.381-.38.381-1.02.001-1.4z"/>
<path id="a7" d="M19.978 5.97c-.39-.39-1.02-.39-1.41 0l-7.26 7.25-4.334-4.335c-.39-.39-1.02-.39-1.41 0-.39.39-.39 1.02 0 1.41l4.335 4.335-2.326 2.326c-.39.39-.39 1.02 0 1.41s1.02.39 1.41 0l3.987-3.987.729.729c.39.39 1.02.39 1.41 0s.39-1.02 0-1.41l-.729-.729 5.599-5.599c.379-.38.379-1.02-.001-1.4z"/>
<path id="a8" d="M20.153 6.144c-.39-.39-1.02-.39-1.41 0l-7.719 7.709-4.229-4.229c-.39-.39-1.02-.39-1.41 0-.39.39-.39 1.02 0 1.41l4.229 4.229-1.718 1.718c-.39.39-.39 1.02 0 1.41.39.39 1.02.39 1.41 0l3.838-3.838s.871.64 1.461.051c.603-.603-.051-1.461-.051-1.461l5.599-5.599c.38-.38.38-1.02 0-1.4z"/>
<path id="a9" d="M20.319 6.31c-.39-.39-1.02-.39-1.41 0l-8.175 8.165-4.154-4.153c-.39-.39-1.02-.39-1.41 0-.39.39-.39 1.02 0 1.41l4.154 4.154-1.134 1.133c-.39.39-.39 1.02 0 1.41.39.39 1.02.39 1.41 0L20.319 7.71c.38-.38.38-1.02 0-1.4z"/>
<path id="a10" d="M20.319 6.31c-.39-.39-1.02-.39-1.41 0l-8.643 8.633-3.995-3.995c-.39-.39-1.02-.39-1.41 0-.39.39-.39 1.02 0 1.41l3.995 3.995-.556.556c-.39.39-.39 1.02 0 1.41.39.39 1.02.39 1.41 0L20.319 7.71c.38-.38.38-1.02 0-1.4z"/>
<path id="a11" d="M20.319 6.31c-.39-.39-1.02-.39-1.41 0l-8.976 8.966-3.806-3.806c-.39-.39-1.02-.39-1.41 0-.39.39-.39 1.02 0 1.41l3.806 3.806-.223.223c-.39.39-.39 1.02 0 1.41.39.39 1.02.39 1.41 0L20.319 7.71c.38-.38.38-1.02 0-1.4z"/>
<path id="a12" d="M20.319 6.31c-.39-.39-1.02-.39-1.41 0l-9.54 9.53L5.73 12.2c-.39-.39-1.02-.39-1.41 0-.39.39-.39 1.02 0 1.41 0 0 3.59 4.319 3.98 4.709.39.39 1.02.39 1.41 0L20.319 7.71c.38-.38.38-1.02 0-1.4z"/>
<path id="a13" d="M20.319 6.31c-.39-.39-1.02-.39-1.41 0l-9.893 9.883-3.512-3.512c-.39-.39-1.02-.39-1.41 0-.39.39-.39 1.02 0 1.41 0 0 3.816 3.838 4.206 4.228.39.39 1.02.39 1.41 0L20.319 7.71c.38-.38.38-1.02 0-1.4z"/>
<style>
/* <![CDATA[ */

#a1 {animation-name: a1}
#a2 {animation-name: a2}
#a3 {animation-name: a3}
#a4 {animation-name: a4}
#a5 {animation-name: a5}
#a6 {animation-name: a6}
#a7 {animation-name: a7}
#a8 {animation-name: a8}
#a9 {animation-name: a9}
#a10 {animation-name: a10}
#a11 {animation-name: a11}
#a12 {animation-name: a12}
#a13 {animation-name: a13}

@keyframes a1 {0%{visibility: visible} 40%{visibility: hidden}}
@keyframes a2 {40%{visibility: visible} 45%{visibility: hidden}}
@keyframes a3 {45%{visibility: visible} 50%{visibility: hidden}}
@keyframes a4 {50%{visibility: visible} 55%{visibility: hidden}}
@keyframes a5 {55%{visibility: visible} 60%{visibility: hidden}}
@keyframes a6 {60%{visibility: visible} 65%{visibility: hidden}}
@keyframes a7 {65%{visibility: visible} 70%{visibility: hidden}}
@keyframes a8 {70%{visibility: visible} 75%{visibility: hidden}}
@keyframes a9 {75%{visibility: visible} 80%{visibility: hidden}}
@keyframes a10 {80%{visibility: visible} 85%{visibility: hidden}}
@keyframes a11 {85%{visibility: visible} 90%{visibility: hidden}}
@keyframes a12 {90%{visibility: visible} 95%{visibility: hidden}}
@keyframes a13 {95%, 100%{visibility: visible}}

/* ]]> */
</style>
</svg>
