<svg xmlns="http://www.w3.org/2000/svg" xmlns:xlink="http://www.w3.org/1999/xlink" viewBox="0 0 505 505">
  <defs>
    <linearGradient id="c" x1="400.67" x2="355.65" y1="226.82" y2="436.38" gradientUnits="userSpaceOnUse">
      <stop offset="0" stop-color="#d9f5ff"/>
      <stop offset=".18" stop-color="#d9f5ff" stop-opacity=".99"/>
      <stop offset=".31" stop-color="#d8f5ff" stop-opacity=".95"/>
      <stop offset=".43" stop-color="#d7f4fe" stop-opacity=".89"/>
      <stop offset=".54" stop-color="#d5f3fe" stop-opacity=".8"/>
      <stop offset=".64" stop-color="#d2f2fd" stop-opacity=".69"/>
      <stop offset=".74" stop-color="#cff0fc" stop-opacity=".54"/>
      <stop offset=".83" stop-color="#cbeffb" stop-opacity=".38"/>
      <stop offset=".92" stop-color="#c7edfa" stop-opacity=".19"/>
      <stop offset="1" stop-color="#c3ebf9" stop-opacity="0"/>
    </linearGradient>
    <linearGradient id="d" x1="29.61" x2="196.48" y1="252.42" y2="68.48" gradientUnits="userSpaceOnUse">
      <stop offset="0" stop-color="#d9f5ff"/>
      <stop offset=".1" stop-color="#d9f5ff" stop-opacity=".98"/>
      <stop offset=".22" stop-color="#d7f4fe" stop-opacity=".91"/>
      <stop offset=".36" stop-color="#d5f3fe" stop-opacity=".81"/>
      <stop offset=".51" stop-color="#d2f2fd" stop-opacity=".66"/>
      <stop offset=".67" stop-color="#cdf0fc" stop-opacity=".47"/>
      <stop offset=".84" stop-color="#c8edfa" stop-opacity=".25"/>
      <stop offset="1" stop-color="#c3ebf9" stop-opacity="0"/>
    </linearGradient>
    <linearGradient id="e" x1="387.81" x2="79.28" y1="155.49" y2="79.19" gradientUnits="userSpaceOnUse">
      <stop offset="0" stop-color="#fff"/>
      <stop offset="1" stop-color="#fff" stop-opacity="0"/>
    </linearGradient>
    <linearGradient id="f" x1="354.63" x2="46.09" y1="289.67" y2="213.37" xlink:href="#e"/>
    <linearGradient id="g" x1="491.84" x2="211.32" y1="231.97" y2="483.35" xlink:href="#e"/>
    <linearGradient id="h" x1="499.44" x2="218.92" y1="240.45" y2="491.83" xlink:href="#e"/>
    <linearGradient id="i" x1="497.42" x2="216.9" y1="238.2" y2="489.57" xlink:href="#e"/>
    <linearGradient id="j" x1="495.21" x2="214.69" y1="235.74" y2="487.11" xlink:href="#e"/>
    <linearGradient id="k" x1="492.98" x2="212.46" y1="233.25" y2="484.62" xlink:href="#e"/>
    <radialGradient id="a" cx="250.25" cy="252.29" r="250" gradientUnits="userSpaceOnUse">
      <stop offset="0" stop-color="#4b26c7" stop-opacity="0"/>
      <stop offset=".8" stop-color="#4b26c7" stop-opacity=".5"/>
      <stop offset="1" stop-color="#9943c3" stop-opacity=".9"/>
    </radialGradient>
    <radialGradient id="b" cx="254.25" cy="252.29" r="250" gradientUnits="userSpaceOnUse">
      <stop offset="0" stop-color="#03ac8f" stop-opacity=".5"/>
      <stop offset="1" stop-color="#03ac8f" stop-opacity="0"/>
    </radialGradient>
  </defs>
  <circle cx="250.25" cy="252.29" r="250" fill="url(#a)"/>
  <circle cx="254.25" cy="252.29" r="250" fill="url(#b)"/>
  <clipPath id="clp_bbl">
    <circle cx="250.5" cy="252.47" r="250"/>
  </clipPath>
  <filter id="bbl_blur">
    <feGaussianBlur in="SourceGraphic" stdDeviation="5" />
  </filter>
  <g clip-path="url(#clp_bbl)">
  <g filter="url(#bbl_blur)">
    <g opacity=".5">
      <path fill="#db1b6c" d="M243.25 79.62c-15.98 9.55-35-7-69 28s-56 69-66 59-6.16-48.37 15-74c52-63 161.27-37.68 120-13z" opacity=".5"/>
      <path fill="#db1b6c" d="M112.4 164.39a1.68 1.68 0 01-1.32-.6c-7.66-7.66-5.5-43.48 15.26-68.63 29.17-35.33 73.12-38.08 85.9-38.08 22.55 0 34.83 6.42 36.03 10.76.61 2.21-2.03 5.33-7.07 8.34-4.55 2.73-9.57 2.93-15.92 3.18-12.8.52-30.33 1.22-53.9 25.47-10.09 10.38-19.1 20.66-27.06 29.73-13.47 15.34-26.2 29.83-31.92 29.83z" opacity=".5"/>
      <path fill="#63e7fc" d="M360.25 56.62s-62-11-111-11-88 9-116 26 14-37 72-46 132 4 155 31z" opacity=".5"/>
      <path fill="#63e7fc" d="M134.41 66.3c11.46-11.63 38.02-31.54 71.45-36.73a248.44 248.44 0 0137.94-2.79c42.34 0 81.96 9.37 103.25 23.65-21.24-3.23-62.96-8.81-97.8-8.81-47.49 0-86.1 8.3-114.84 24.67z" opacity=".5"/>
      <path fill="#e01d76" d="M337.25 118.62c7.9-7.91 102 60 92 107s-98-101-92-107z" opacity=".5"/>
      <path fill="#e01d76" d="M421.22 230.82c-9.94 0-31.8-27.5-47.5-51.05-17.08-25.63-29.22-48.83-32.1-57.34 10.58 3.28 41.65 24.06 63.98 51.64 11.03 13.62 23.4 33.48 19.74 50.71-1.29 6.04-3.42 6.04-4.12 6.04z" opacity=".5"/>
      <path fill="#3c5dff" d="M356.25 176.62s40 36 47 70-5 80-15 79-15-22-10-47 4-69-22-102z" opacity=".5"/>
      <path fill="#3c5dff" d="M388.51 321.62a5.46 5.46 0 01-3.4-2.46c-5.9-7.96-5.65-26.2-2.94-39.76 4.05-20.22 3.83-48.9-6.23-75.6 10.01 12.55 20.26 28.41 23.4 43.62 2.91 14.19 2.66 32.01-.7 48.92-3.27 16.47-8.15 24.5-10.13 25.28z" opacity=".5"/>
      <path fill="#52b2c5" d="M442.25 187.62c1 24 14 50 4 101s-38 89-35 102 19 15 26 5 42.38-79 43-123c1-71-39.23-114.5-38-85z" opacity=".5"/>
      <path fill="#52b2c5" d="M425.16 397.94a10.12 10.12 0 01-10.01-8.22c-1.05-4.56 4.13-16 10.14-29.26 8.15-18 19.31-42.65 24.88-71.07 7.19-36.64 2.73-60.71-.85-80.05-1.5-8.08-2.79-15.07-3.07-21.9-.13-3.13.3-4.57.54-5.12 2.27.66 9.56 6.92 17 23.96 4.85 11.08 12.9 34.43 12.46 66.28-.62 43.85-36.38 112.33-42.28 120.76a10.64 10.64 0 01-8.81 4.62z" opacity=".5"/>
      <path fill="#40789c" d="M393.25 422.62s-20 30-55 47c-27 13.11-58 22-58 9s47-26 61-47 53-62 59-47 3 22-7 38z" opacity=".5"/>
      <path fill="#40789c" d="M289.88 480.98c-5.63 0-5.63-1.66-5.63-2.36 0-4.12 12.77-11.21 23.02-16.91 13.94-7.75 29.74-16.52 37.3-27.88 6.16-9.22 16.54-21.46 26.46-31.17 13-12.73 21.2-17.27 24.53-17.27.55 0 .7 0 .98.71 5.2 13.02 3.26 18.48-6.64 34.34-.84 1.23-20.42 29.56-53.4 45.58-19 9.23-36.86 14.96-46.62 14.96z" opacity=".5"/>
      <path fill="#417fb3" d="M371.25 351.62c-3.24 19.42-28 40-55 52s7-18 21-28 36-36 34-24z" opacity=".5"/>
      <path fill="#417fb3" d="M315.14 399.73a214.79 214.79 0 0124.43-20.86c5.16-3.68 11.09-9.2 16.82-14.53 3.03-2.81 6.72-6.25 9.66-8.7-5.55 15.2-25.5 32.69-50.91 44.1z" opacity=".5"/>
      <path fill="#56bafa" d="M278.25 422.62c2 14-89 22-90-2-.54-12.84 15.57-2.9 40 0 21.26 2.51 49.25-3.26 50 2z" opacity=".5"/>
      <path fill="#56bafa" d="M229.16 431.95c-21.45 0-36.63-4.73-36.91-11.5a4.03 4.03 0 01.22-2.01 4.18 4.18 0 011.69-.22c2.77 0 7.18 1.05 12.3 2.27a182.42 182.42 0 0021.32 4.1 115.67 115.67 0 0013.58.7c5.85 0 11.72-.3 16.9-.56 4.15-.2 8.07-.4 11.17-.4 1.33 0 2.37.03 3.18.09-5.28 3.25-21.72 7.53-43.45 7.53z" opacity=".5"/>
      <path fill="#ba4da3" d="M239.25 466.62c-19.97-1.54-63-9-82-18s-26-34-6-27 64 29 91 29 53 11 40 15-30 2-43 1z" opacity=".5"/>
      <path fill="#ba4da3" d="M262.86 464c-6.45 0-13.13-.54-19.03-1.03l-4.27-.34c-21.12-1.63-63.02-9.3-80.6-17.63-11.08-5.25-16.5-15.88-15.65-19.69.1-.43.2-.92 1.87-.92a14.8 14.8 0 014.75 1 407.7 407.7 0 0118.9 7.51c22.13 9.17 52.45 21.72 73.42 21.72a105 105 0 0126.73 3.5 48.26 48.26 0 0110.77 4.06 65.65 65.65 0 01-16.89 1.83z" opacity=".5"/>
      <path fill="#b1cbdb" d="M225.25 488.62c-19.96-1.18-65-11-86-22s-25-29 4-18 70 21 94 23 5 18-12 17z" opacity=".5"/>
      <path fill="#b1cbdb" d="M226.8 484.66c-.44 0-.88-.01-1.31-.04-19.16-1.12-64.03-10.89-84.38-21.55-10.49-5.49-14.55-11.67-14.62-13.56a5.86 5.86 0 012.26-.33c2.15 0 6.17.55 13.08 3.18 29.03 11 70.8 21.22 95.1 23.24 5.17.43 7.03 1.48 7.57 1.9-.98 2.3-8.79 7.16-17.7 7.16z" opacity=".5"/>
      <path fill="#4ca4dd" d="M130.25 411.62c-2.68-17-40-39-48-49s-20-3-5 17 56 51 53 32z" opacity=".5"/>
      <path fill="#4ca4dd" d="M126.4 413.54c-8.36-.34-34.34-20.84-45.95-36.33-6.53-8.7-6.48-13.12-6.3-14.26a1.54 1.54 0 01.27-.82.65.65 0 01.27-.03c.75 0 2.53.63 4.44 3.01 2.94 3.69 9 8.46 16 13.98 12.5 9.86 29.62 23.35 31.17 33.15a7.26 7.26 0 01.1 1.3z" opacity=".5"/>
      <path fill="#e11575" d="M42.25 256.62c0 29.15 20 68 27 83s-7 23-17 6-24-61-21-86 11-23 11-3z" opacity=".5"/>
      <path fill="#e11575" d="M64.48 351.17c-2.1 0-5.5-2-8.78-7.58-10.2-17.34-23.3-60.04-20.48-83.5a61.56 61.56 0 012.38-11.83 45.68 45.68 0 01.65 8.36c0 27.27 16.3 61.44 25.06 79.8a635.6 635.6 0 012.32 4.89c2 4.29 1.73 7.35.82 8.79a2.18 2.18 0 01-1.97 1.07z" opacity=".5"/>
      <path fill="#9e9e9e" d="M97.25 343.62c-16.24 1.16-57-64-38-113 9.5-24.5 3.13 11.75 12 46s33 66.5 26 67z" opacity=".5"/>
      <path fill="#9e9e9e" d="M93.34 338.4c-3.57-2.12-8.63-6.98-14.1-14.96a127.84 127.84 0 01-18.3-42.4c-3.75-16.56-3.47-32.19.79-45.46l.02.33c.65 10.47 1.63 26.3 5.63 41.7 4.7 18.2 13.52 35.63 19.95 48.36 2.22 4.37 4.63 9.13 6.01 12.42z" opacity=".5"/>
      <path fill="#8a8a8a" d="M79.25 112.62c-10.78 33.67-42 80-45 106s-14 4 0-41 53-90 45-65z" opacity=".5"/>
      <path fill="#8a8a8a" d="M31.5 211.44a144.04 144.04 0 016.57-32.64c8.95-28.75 27.38-55.51 36.72-65.43-4.76 14.05-13.02 30.44-21 46.32-9.63 19.11-18.79 37.3-22.28 51.75z" opacity=".5"/>
      <path fill="#5e92c5" d="M118.25 183.62c4 9-7 47-1 83s37 94 42 107c5.34 13.87-54.77-36.57-64-80-17-80 13.31-131.8 23-110z" opacity=".5"/>
      <path fill="#5e92c5" d="M152.33 367.8c-14.71-11.51-46.7-44.62-53.17-75.01-11.72-55.19-.6-94.89 9.18-106.96 2.06-2.54 3.58-3.21 4.15-3.21.45 0 1.3.82 2.1 2.62 1.23 2.76.2 12.52-.8 21.96-1.73 16.24-4.08 38.49-.48 60.07 4.62 27.77 23.49 67.65 34.76 91.47 1.6 3.38 3.05 6.44 4.26 9.06z" opacity=".5"/>
    </g>
    <g opacity=".3">
      <path fill="#4832f8" d="M379.25 209.19s26 54 9 111-71.5 77.5-94.5 85.5-7-5 7-17 38-45 51-62 30-33 27-65-7-63 .5-52.5z" opacity=".5"/>
      <path fill="#4832f8" d="M291.18 402.34c3.05-2.81 6.87-6.08 9.86-8.63l2.31-1.98c12.16-10.42 31.03-35.42 44.8-53.68 2.47-3.27 4.76-6.3 6.77-8.93a362.5 362.5 0 015.07-6.43c11.96-14.93 25.5-31.85 22.74-61.37-.39-4.13-.8-8.24-1.19-12.25-.98-10.05-2.12-21.65-2.5-29.75 6.27 17.1 17.86 57.84 5.37 99.72-16.93 56.77-73.42 76.41-91.98 82.87l-1.25.43z" opacity=".5"/>
      <path fill="#03ac8f" d="M403.75 321.69c-4.29 26.07-34 71-60 87-48.06 29.58-90 30-99 23s13-17 30-20 57-13 80-34 52.45-76.93 49-56z" opacity=".5"/>
      <path fill="#03ac8f" d="M262.7 431.42c-8.7 0-13.78-1.56-15.5-2.89a2.94 2.94 0 01-.5-.48c.9-2.81 12.97-9.64 28.75-12.42 9.04-1.6 55.49-10.78 82-34.99 10.98-10.02 23.06-27.31 32.77-41.2 2.6-3.74 5.38-7.7 7.8-11.02-7.53 24.67-32.8 62.36-56.37 76.86-9.96 6.13-45.1 26.14-78.95 26.14z" opacity=".5"/>
      <path fill="#5fa99e" d="M417.75 87.69c2-8-58-65-141-69-92.91-4.48-157 51-185 84s65.58-40.67 119-50c63-11 113 2 155 22s50.59 18.66 52 13z" opacity=".5"/>
      <path fill="#5fa99e" d="M97.2 102.5c22.98-26.18 81-80.06 169-80.06 3.42 0 6.9.08 10.36.25 42.3 2.03 76.52 17.85 97.79 30.75 26.54 16.1 37.9 30.23 39.33 33.62a4.86 4.86 0 01-1.97.28c-6.7 0-21.58-5.47-44.24-16.26-37.3-17.77-73.8-26.4-111.56-26.4a267.42 267.42 0 00-45.84 4.07c-29.23 5.1-69.77 28.76-96.6 44.42-5.73 3.33-11.54 6.72-16.27 9.33z" opacity=".5"/>
      <path fill="#467483" d="M157.75 445.69s72 28 120 19 94-30 116-46 11 30-47 55-117 16-142 10-72-44-47-38z" opacity=".5"/>
      <path fill="#467483" d="M262.15 486.32a248.4 248.4 0 01-56.47-6.52c-17.03-4.09-41.4-21.92-48.87-30.19 5.94 2.27 56.01 20.86 99.88 20.86a119.22 119.22 0 0021.8-1.85c49.44-9.27 95.62-30.7 117.61-46.7a16.17 16.17 0 014.24-2.38c.06 6.49-14.8 33.07-55.17 50.47-25.1 10.82-53.03 16.3-83.02 16.3z" opacity=".5"/>
      <path fill="#039b81" d="M189.75 415.69c2.3-20.75-87-59-105-151-10.77-55.05-10-93-23-71s-16.53 92.03 2 141c28 74 124 99 126 81z" opacity=".5"/>
      <path fill="#039b81" d="M177.93 417.29c-27.45 0-89.57-28.86-110.44-84.02-18.61-49.2-14.23-117.36-2.3-137.55a24.66 24.66 0 012.5-3.62c2.11 4.42 4.25 18.72 6.16 31.48a924.4 924.4 0 006.98 41.88c11.88 60.74 53.76 98.19 81.48 122.97 12.37 11.07 24.06 21.52 23.47 26.82-.07.64-2.15 2.04-7.84 2.04z" opacity=".5"/>
      <path fill="#3d743f" d="M62.75 135.69c-7 1-43 54-38 140s53 132 81 150 22-5 0-26a207.93 207.93 0 01-61-113c-18-96 26.4-152.2 18-151z" opacity=".5"/>
      <path fill="#3d743f" d="M120.6 428.17c-1.3-.06-4.86-.82-12.69-5.85-10.44-6.71-30.56-21.92-47.94-48.33-18.56-28.19-29.06-61.35-31.23-98.53-2.56-44.06 5.89-77.63 13.42-98.03a157.5 157.5 0 0111.44-24.69c-9.53 24.14-24.78 70.7-12.79 134.69a212.16 212.16 0 0062.17 115.15c12.9 12.32 17.53 22.55 17.61 25.59z" opacity=".5"/>
    </g>
    <g opacity=".3">
      <path fill="#5bb6aa" d="M21.44 168.5s-35 71-1 171 133 131 133 131-83-49-123-129-9-173-9-173z" opacity=".5"/>
      <path fill="#03a287" d="M236.94 483s113-10 161-72 61-115 63-140 23 22-4 88-118 114-151 121-70 11-69 3z" opacity=".5"/>
      <path fill="#3e7641" d="M427.94 413s-57 58-103 71-92 10-92 10 109 2 195-81z" opacity=".5"/>
      <path fill="#457381" d="M488.94 251s1-68-22-109-66-84-109-103c36 25 112 72 131 212z" opacity=".5"/>
      <path fill="#03a589" d="M458.94 198s-14-72-72-116-124-45-156-43c59 6 168 10 228 159z" opacity=".5"/>
      <path fill="#4530ef" d="M435.94 164s-24.69-57.72-76.84-88.36S244.94 42 217.94 45c59 5 147 14 218 119z" opacity=".5"/>
      <path fill="#773282" d="M356.94 124c-3.16 10.54-36-1-61-9s-82-3-101 11-23-18 17-39 76-16 98-8 53 25 47 45z" opacity=".5"/>
      <path fill="#324b39" d="M335.94 265c-10.76-18.58-28-45-15-72s46-19 62 22 17 63 10 78-46-9-57-28z" opacity=".5"/>
      <path fill="#813a8e" d="M316.94 386c-28.58 15.08-42-6-31-26s40-73 40-84 55 21 50 40-23 51-59 70z" opacity=".5"/>
    </g>
    <g opacity=".5">
      <path fill="#399a8d" d="M353.25 441.29s72-44 83-106-26-105-52-103-22 34-13 78 13 75-18 131z" opacity=".2"/>
      <path fill="#438146" d="M265.75 448.79c-57.4 17.47-146-57-155-80s62 36 104 36 143 16 51 44z" opacity=".2"/>
      <path fill="#03a78b" d="M235.75 480.79c-56.98-1.9-128-41-164-86s-41-148-21-103 50 96 85 119 130 71 100 70z" opacity=".2"/>
      <path fill="#416b79" d="M109.75 300.79c-36.75-8.17-20-83 13-138s110-80 88-55-84 72-84 122 1 75-17 71z" opacity=".2"/>
      <path fill="#039e83" d="M61.75 205.79c12-29 62-152 211-142-82 9-140 32-211 142z" opacity=".2"/>
      <path fill="#53245b" d="M375.75 68.79s-63-38-144-28-136 59-147 74c30-22 67.08-56.44 156-70 59-9 135 24 135 24z" opacity=".2"/>
      <path fill="#3625bb" d="M287.75 58.79s-57-16-122 17-95 86-95 86 41.8-52.64 113.58-87.14C227.75 53.8 287.75 58.8 287.75 58.8z" opacity=".2"/>
    </g>
    <g opacity=".8">
      <path fill="#c3ebf9" d="M449.25 192.29c-12.11 5.59-38 1-30 25s23 60 3 111-136 107-160 119 41 26 87 10 91-55 107-101 27-103 23-136-17-34-30-28z" opacity=".1"/>
      <path fill="url(#c)" d="M302.52 454.48a124.84 124.84 0 01-27.03-2.62c16.92-8.46 47.84-24.32 77.73-43.64 43.04-27.81 69.4-53.48 78.34-76.28 19.99-50.98 7.27-88.22-1.15-112.86l-1.67-4.96c-1.41-4.23-.91-5.66-.9-5.67 1.13-1.41 8.1-2.68 11.44-3.28 4.8-.88 9.77-1.78 14.16-3.8 3.45-1.6 5.54-1.93 6.7-1.93 4.8 0 7.9 11.4 9.18 22.05 3.54 29.16-5.72 83.23-22.51 131.51-14.15 40.67-54.67 78.78-100.84 94.84-12.31 4.28-27.74 6.64-43.45 6.64z"/>
      <path fill="#c3ebf9" d="M33.25 328.29c-9.98.58-27-20-13-102s85-161 145-186 124 23 87 57-67.5 42.5-96.5 52.5-86 25-94 66-3 111-28.5 112.5z" opacity=".1"/>
      <path fill="url(#d)" d="M33.21 318.2c-4.01-2.8-14.41-24-3.1-90.23 6.2-36.33 25.07-75.3 53.14-109.74 25.84-31.7 57.13-56.75 85.85-68.71a79.39 79.39 0 0130.68-6.18 73.37 73.37 0 0134.44 8.34c8.77 4.76 15.24 11.2 17.77 17.68 2.77 7.13.59 14.05-6.5 20.56-32.51 29.87-59.7 39.1-86.01 48.03l-6.99 2.38c-2.63.91-5.5 1.86-8.53 2.86-31.28 10.37-83.64 27.71-92.02 70.68-2.5 12.79-3.77 28.14-5 42.98-1.39 16.7-2.82 33.98-5.93 46.35-2.2 8.7-5.07 14.2-7.8 15z"/>
    </g>
    <g opacity=".5">
      <path fill="#70deff" d="M108.25 452.29s-58-46-64-127-1-140 44-137 163 68 223 36-30-108-8-122 42-80 10-92-138-32-243 65-87 318 38 377z" opacity=".3"/>
      <path fill="#70deff" d="M39.4 379.63c-16.07-25.5-27.28-56.7-32.43-90.24a276.96 276.96 0 016.58-115.81c10.77-38.54 29.96-71.37 55.49-94.95C134.02 18.6 198.28 6 240.74 6c32.72 0 54.96 7.39 61 9.65 2.12.8 8.58 3.22 9.97 16.47 1.02 9.82-1.16 22.35-6 34.38-5.27 13.14-11.63 20.68-15.83 23.35-10.64 6.77-8.5 18.99-6.29 25.67 2.44 7.34 7.15 15.87 12.14 24.9 9.83 17.82 22.07 39.99 17.53 55.28-1.87 6.33-6.69 11.48-14.71 15.76-9.53 5.08-21.79 7.66-36.43 7.66-35.5 0-78.28-14.42-116.03-27.15-26.41-8.9-49.23-16.6-65.17-17.66a58.23 58.23 0 00-3.89-.13c-13.07 0-23.95 4.57-32.34 13.6-18.4 19.82-23.91 59.97-18.41 134.24a191.83 191.83 0 0013.9 58.85l-.78-1.24z" opacity=".3"/>
      <path fill="#70deff" d="M6.3 256.67a264.4 264.4 0 018.87-88.4c10.28-36.75 28.49-67.97 52.65-90.3C130.42 20.15 192.06 8 232.74 8c31.04 0 51.85 6.9 57.49 9.01 1.85.7 3.04 3.44 3.53 8.15.85 8.13-1.14 19.2-5.32 29.61-4.9 12.18-10.27 17.59-11.93 18.64-11.78 7.5-15.67 21.43-10.4 37.26 2.72 8.22 7.65 17.14 12.86 26.59 8.46 15.33 20.05 36.32 16.7 47.6-.4 1.33-1.6 5.4-9.84 9.78-8.06 4.3-18.73 6.49-31.71 6.49-33.87 0-75.82-14.15-112.84-26.63-27.08-9.13-50.46-17.02-67.7-18.16-1.52-.1-3.06-.16-4.56-.16-15.74 0-29.46 5.81-39.66 16.8C14.49 189 7.14 214.62 6.3 256.68z" opacity=".3"/>
      <path fill="#b24eed" d="M103.25 437.29s-66-47-75-117 2-154 41-151 94 31 139 29 66.5 12.5 72.5-14.5 16-92 44-81 114 21 116 103-51 131-127 141-107 78-127 90-69 6-83.5.5z" opacity=".25"/>
      <path fill="#b24eed" d="M150.2 433.75c-18.02 0-35.1-3.07-42.2-5.4-8.22-6.24-62.11-49.31-69.83-109.34-7.32-56.9-.15-114.24 16.67-133.36 5.08-5.77 9.51-6.44 12.4-6.44.41 0 .82.01 1.25.05 15.62 1.2 34.63 6.88 54.74 12.89 26.72 7.98 54.34 16.24 80.34 16.24 1.73 0 3.46-.04 5.13-.11 2.8-.13 5.67-.2 8.53-.2 9.88 0 18.43.74 25.98 1.38 5.99.51 11.15.95 15.92.95 12.08 0 26.57-2.78 31.39-24.45.63-2.86 1.3-6.12 2.02-9.58 2.74-13.16 6.47-31.2 11.84-45.2 5.55-14.48 11-19.64 14.24-19.64a6.94 6.94 0 012.48.55c4.8 1.89 10.8 3.64 17.75 5.67 36 10.53 90.4 26.43 91.9 88.27.9 36.94-9.7 67.35-31.5 90.38-20.57 21.7-50.58 35.7-86.8 40.46-58.8 7.73-91.7 47.03-113.47 73.03-6.83 8.15-13.27 15.85-17.38 18.3-5.95 3.59-17.1 5.55-31.4 5.55z" opacity=".25"/>
      <path fill="#b24eed" d="M150.2 423.75c-15.38 0-30.44-2.45-37.53-4.43-10.24-8.07-57.7-48.1-64.58-101.58-3.44-26.72-3.7-54.54-.72-78.34 2.8-22.32 8.25-39.5 14.98-47.15 2.68-3.04 4.17-3.04 4.89-3.04.15 0 .3 0 .47.02 14.56 1.12 33.06 6.65 52.65 12.5 27.41 8.19 55.74 16.66 83.2 16.66 1.88 0 3.75-.04 5.58-.12 2.64-.12 5.36-.18 8.09-.18 9.43 0 17.75.7 25.1 1.33 6.24.53 11.6 1 16.8 1 22.54 0 36.39-10.87 41.15-32.3.64-2.9 1.32-6.17 2.04-9.63l.02-.1c2.66-12.83 6.3-30.39 11.38-43.62 2.68-7 4.94-10.63 6.3-12.4 4.66 1.68 9.99 3.23 16 5 35.21 10.28 83.4 24.37 84.74 78.9.83 34.22-8.85 62.23-28.78 83.27-18.96 20.01-46.92 32.96-80.84 37.42-62.65 8.24-97.06 49.33-119.83 76.52-4.85 5.8-12.19 14.56-14.85 16.16-3.32 1.99-11.96 4.11-26.25 4.11z" opacity=".25"/>
      <path fill="#b24eed" d="M150.2 413.75a155.33 155.33 0 01-32.96-3.58C105.4 400.52 64.1 363.8 58 316.46c-3.33-25.9-3.58-52.83-.7-75.82 2.84-22.75 8.01-36.06 12.08-41.21 13.2 1.45 30.19 6.52 48.1 11.88 28.1 8.4 57.15 17.08 86.08 17.08 2.02 0 4.04-.05 6.01-.13 2.5-.11 5.07-.17 7.65-.17 9.01 0 17.11.69 24.25 1.3 6.46.55 12.03 1.02 17.65 1.02 27.08 0 45.16-14.24 50.9-40.11.66-2.95 1.34-6.22 2.06-9.7l.04-.17c2.6-12.5 6.14-29.6 10.92-42.08a78.8 78.8 0 011.62-3.92c2.66.81 5.48 1.63 8.49 2.51 17.34 5.07 36.94 10.8 52.2 21.48 16.82 11.77 24.89 27.05 25.4 48.1.77 31.47-7.99 57.1-26.03 76.14-17.37 18.33-43.27 30.23-74.89 34.39-66.51 8.75-102.43 51.64-126.19 80.01-3.07 3.67-10.12 12.1-12.51 14.1-1.6.75-8.19 2.6-20.92 2.6z" opacity=".25"/>
    </g>
    <g fill="#85d877" opacity=".3">
      <path d="M368.75 465.99c39.48-20.66 90-57 116-141 28.76-92.92-1-167-29-206s-132-123-165-76-9 125 35 125 108 16 82 53-79 62-142 76-69 107-46 140 108.58 50.14 149 29z" opacity=".3"/>
      <path d="M332.55 465.29c-39.1 0-81.54-15.26-94.61-34.02-5.69-8.16-9.45-21.52-10.32-36.65a115.35 115.35 0 017.13-47.5c6-15.37 18.35-34.86 43.15-40.37 49.63-11.03 115.58-33.86 148.02-80.01 10.86-15.46 8.47-27.7 4.55-35.25-13.74-26.45-66.01-33.5-94.74-33.5-12.04 0-23.39-8.55-31.13-23.45-11.82-22.74-14.14-59.52 4.32-85.8 4.62-6.6 11.1-9.66 20.4-9.66 39.22 0 106.67 55.62 128.3 85.74 15.98 22.27 28.1 50.33 34.11 79 8.05 38.38 5.85 78.15-6.55 118.21-25.48 82.33-75.6 116.53-111.08 135.1-10.2 5.34-24.57 8.16-41.55 8.16z" opacity=".3"/>
      <path d="M342.55 455.29a162.75 162.75 0 01-53.68-9.39c-15.72-5.65-27.65-13.07-32.73-20.35-4.59-6.59-7.78-18.36-8.53-31.5a105.13 105.13 0 016.46-43.29c5.1-13.1 15.5-29.69 36-34.25 51.35-11.4 119.76-35.25 154.03-84.02 14.48-20.6 9.5-37.42 5.24-45.6-7.43-14.3-23.56-24.97-47.96-31.7-23.53-6.5-46.75-7.2-55.64-7.2-8.19 0-16.3-6.58-22.27-18.06-10.17-19.58-12.36-52.67 3.63-75.45 2.28-3.24 5.23-5.4 12.23-5.4 15.11 0 38.76 10.82 64.88 29.68 22.4 16.18 44.6 37.03 55.28 51.9 15.2 21.16 26.72 47.87 32.46 75.22 7.7 36.7 5.57 74.78-6.32 113.2-24.38 78.77-72.27 111.46-106.17 129.19-8.77 4.6-21.54 7.02-36.9 7.02z" opacity=".3"/>
    </g>
    <g fill="#fff" transform="rotate(-61.02 153.25 433.29)">
      <ellipse cx="153.25" cy="433.29" opacity=".05" rx="25" ry="53"/>
      <ellipse cx="153.25" cy="433.29" opacity=".1" rx="20" ry="48"/>
      <ellipse cx="153.25" cy="433.29" opacity=".2" rx="15" ry="43"/>
      <ellipse cx="153.25" cy="433.29" opacity=".5" rx="10" ry="37.52"/>
      <ellipse cx="153.25" cy="433.29" opacity=".5" rx="5" ry="28.24"/>
    </g>
    <g fill="#fff" transform="rotate(-51.18 365.8 97.88)">
      <ellipse cx="365.8" cy="97.88" opacity=".05" rx="36.35" ry="77.07"/>
      <ellipse cx="365.8" cy="97.88" opacity=".1" rx="29.08" ry="69.8"/>
      <ellipse cx="365.8" cy="97.88" opacity=".2" rx="21.81" ry="62.52"/>
      <ellipse cx="365.8" cy="97.88" opacity=".5" rx="14.54" ry="54.55"/>
      <ellipse cx="365.8" cy="97.88" opacity=".5" rx="7.27" ry="41.07"/>
    </g>
    <path fill="#fff" d="M64.25 92.29s-132 133-12 311c-62-117-59-210 12-311z" opacity=".8"/>
    <g fill="#fff">
      <ellipse cx="380.08" cy="119.54" opacity=".05" rx="21.01" ry="44.54" transform="rotate(-51.18 380.08 119.54)"/>
      <ellipse cx="380.08" cy="119.54" opacity=".1" rx="16.81" ry="40.34" transform="rotate(-51.18 380.08 119.54)"/>
      <ellipse cx="380.08" cy="119.54" opacity=".2" rx="12.61" ry="36.14" transform="rotate(-51.17 380.16 119.53)"/>
      <ellipse cx="380.08" cy="119.54" opacity=".5" rx="8.4" ry="31.53" transform="rotate(-51.18 380.08 119.54)"/>
      <ellipse cx="380.08" cy="119.54" opacity=".5" rx="4.2" ry="23.74" transform="rotate(-51.18 380.08 119.54)"/>
    </g>
    <g fill="#fff" opacity=".5">
      <ellipse cx="47.8" cy="256.88" opacity=".05" rx="77.07" ry="36.35" transform="rotate(-79.95 47.8 256.88)"/>
      <ellipse cx="47.8" cy="256.88" opacity=".1" rx="69.8" ry="29.08" transform="rotate(-79.95 47.8 256.88)"/>
      <ellipse cx="47.8" cy="256.88" opacity=".2" rx="62.52" ry="21.81" transform="rotate(-79.98 47.71 256.75)"/>
      <ellipse cx="47.8" cy="256.88" opacity=".5" rx="54.55" ry="14.54" transform="rotate(-79.98 47.71 256.75)"/>
      <ellipse cx="47.8" cy="256.88" opacity=".5" rx="41.07" ry="7.27" transform="rotate(-79.95 47.8 256.88)"/>
    </g>
    <g fill="#fff" opacity=".5" transform="rotate(-79.95 51.3 282.58)">
      <ellipse cx="51.3" cy="282.58" opacity=".05" rx="44.54" ry="21.01"/>
      <ellipse cx="51.3" cy="282.58" opacity=".1" rx="40.34" ry="16.81"/>
      <ellipse cx="51.3" cy="282.58" opacity=".2" rx="36.14" ry="12.61"/>
      <ellipse cx="51.3" cy="282.58" opacity=".5" rx="31.53" ry="8.4"/>
      <ellipse cx="51.3" cy="282.58" opacity=".5" rx="23.74" ry="4.2"/>
    </g>
    <g fill="#fff" opacity=".5">
      <ellipse cx="450.18" cy="230.59" opacity=".05" rx="27.23" ry="57.73" transform="rotate(-7.11 450.2 230.6)"/>
      <ellipse cx="450.18" cy="230.59" opacity=".1" rx="21.79" ry="52.29" transform="rotate(-7.11 450.2 230.6)"/>
      <ellipse cx="451.76" cy="229.37" opacity=".2" rx="16.34" ry="46.84" transform="rotate(-7.11 451.8 229.38)"/>
      <ellipse cx="455.79" cy="232.15" opacity=".5" rx="10.89" ry="40.87" transform="rotate(-7.11 455.82 232.16)"/>
      <ellipse cx="459.87" cy="233.63" opacity=".5" rx="5.45" ry="30.77" transform="rotate(-7.11 459.9 233.64)"/>
    </g>
  </g>
  </g>
  <g opacity="0.8">
    <path fill="url(#e)" d="M237.8 58.53c-22.52-4.09-45.22-2.23-67.37 4.81a316.64 316.64 0 00-74.05 74.92 133.13 133.13 0 0123.23 2.13 136.96 136.96 0 0152.93 22c28.72-37.16 61.57-68.76 96.83-93.9a132.32 132.32 0 00-31.58-9.96z"/>
    <path fill="url(#f)" d="M82.14 160.48a315.19 315.19 0 00-33.3 81.42c19.4 12.04 36.52 29 51.01 49.8q8.64-22.55 19.76-44.8a521.42 521.42 0 0136.46-61.95 136.38 136.38 0 00-53.44-22.37 132.24 132.24 0 00-20.5-2.1z"/>
    <path fill="url(#g)" d="M373.93 282.84s-31 52.08-51.86 73.93c3.83 6.29 40 44.24 40 44.24s39.53-28.66 70.1-67.12z"/>
    <polygon fill="url(#h)" points="281.43 410.06 304.66 437.35 337.48 415.85 306.05 383.48 281.43 410.06"/>
    <polygon fill="url(#i)" points="261.17 430.44 277.52 450.72 292.95 441.63 273.36 418.78 261.17 430.44"/>
    <polygon fill="url(#j)" points="247.17 442.37 259.53 457.28 269.63 453.6 254.97 435.3 247.17 442.37"/>
    <polygon fill="url(#k)" points="239.55 447.85 250.03 460.75 255.12 458.89 244.15 444.63 239.55 447.85"/>
    <circle cx="250.5" cy="252.47" r="250" fill="none" stroke="#ff00e5" opacity=".3"/>
  </g>
</svg>
