<svg xmlns="http://www.w3.org/2000/svg" width="66" height="27" viewBox="0 0 259 107">
  <path fill="#fff" d="M125.8 70.5h20.9a1.5 1.5 0 0 1 1.4 2c-.2.4-4.2 11.4-24.8 11.4S96.7 64.6 96.7 53.2c0-3.6.7-12.6 7-20.4C109.9 25 119.4 21 131.9 21c8.7 0 17.4 2.1 25.2 6V10a54.4 54.4 0 0 0-24.7-4.5H5.5v15.6h31.2c.9 0 1.5.7 1.5 1.5V100H58V22.6c0-.8.7-1.5 1.5-1.5h25.7c.5 0 1 .4 1.3.9.3.5.2 1.1-.1 1.5A53 53 0 0 0 75 56.1c0 12.4 5 24.2 13.7 32.3 9.6 9 23.2 13.3 39.4 12.3 12-.7 25.2-8.2 25.4-8.3.4-.2 1-.2 1.4 0s.8.8.8 1.3v6.1h17.8V52.2h-47.8v18.2Z"/>
  <path fill="#fff" d="M176.1 46.8h-52.8a3 3 0 0 0-3 3V73a3 3 0 0 0 3 3h13.5a32 32 0 0 1-13.5 2.4c-20.5 0-21.1-22.6-21.1-25.2 0-26 26.6-26.7 29.7-26.7 8.6.1 17 2.3 24.6 6.4l1.5 1c.5.2 1 .4 1.6.4a3 3 0 0 0 3-3V8.6c0-1-.5-2-1.3-2.5l-.4-.3c-1-.6-9.1-5.8-28.5-5.8H3a3 3 0 0 0-3 3v20.6a3 3 0 0 0 3 3h29.7v75.8a3 3 0 0 0 3 3h24.7a3 3 0 0 0 3-3V26.6h14.1a58 58 0 0 0-7.9 29.5c0 12.7 4.7 25 13.4 34.3a54 54 0 0 0 40.6 16l4.9-.2c8-.5 16.4-3.6 21.8-6v2.2a3 3 0 0 0 3 3H176a3 3 0 0 0 3-3V49.8a3 3 0 0 0-3-3Zm.5 54.6c0 .8-.6 1.5-1.5 1.5h-20.8c-.9 0-1.5-.7-1.5-1.5v-5.2a69 69 0 0 1-29.2 7.7c-15 0-27.6-4.6-36.9-13.3a47.4 47.4 0 0 1-14.6-34.5c0-11.4 3.5-22.6 10-32H61v77.3c0 .8-.6 1.5-1.5 1.5H36.7c-.8 0-1.5-.7-1.5-1.5V24H4c-.8 0-1.5-.6-1.5-1.5V4c0-.8.7-1.5 1.5-1.5h128.4c19 0 26.7 5.1 27 5.4.4.2.7.7.7 1.2v20.4c0 .5-.3 1-.7 1.3-.5.2-1 .2-1.5 0a55 55 0 0 0-26-6.8 29 29 0 0 0-32.2 29.2c0 10.3 5 27.7 23.6 27.7 13.1 0 18.7-4.7 20.8-7.4h-19.8c-.8 0-1.5-.7-1.5-1.5V50.8c0-.9.7-1.5 1.5-1.5h50.8c.9 0 1.5.6 1.5 1.5v50.6ZM218.2 0h-32.8a3 3 0 0 0-3 3v99.3a3 3 0 0 0 3 3H210a3 3 0 0 0 3-3V74a59 59 0 0 0 21.7-5c13-6.2 20-17.4 20-32.3A35.4 35.4 0 0 0 218.2 0Zm24.7 60.5c-10.7 10.2-27.2 11.1-32.4 11.1v29.7c0 .9-.7 1.5-1.5 1.5h-22.6c-.8 0-1.5-.6-1.5-1.5V4c0-.8.7-1.5 1.5-1.5h31.8c9 0 17.4 3.1 23.6 8.8 6.8 6.3 10.4 15.1 10.4 25.4s-3.1 17.9-9.3 23.8Z"/>
  <path fill="#fff" d="M212.4 24h-1.9v25.5h1.9c13 0 14.5-9 14.5-12.8 0-7.5-6-12.8-14.5-12.8Zm.6 23V26.4c7.8.3 11.4 5.5 11.4 10.3 0 8.5-6.8 10.2-11.4 10.3Z"/>
  <path fill="#fff" d="M218.2 5.5h-30.3v94.3h19.6V70.1c0-.4.2-.8.5-1.1.3-.3.7-.4 1-.4.3 0 20.2.8 31.8-10.3a28.5 28.5 0 0 0 8.4-21.6c0-21.4-16-31.2-31-31.2Zm-5.8 47H209c-.8 0-1.5-.6-1.5-1.5V22.4c0-.8.7-1.5 1.5-1.5h3.4c10.1 0 17.5 6.7 17.5 15.8 0 9.8-6.7 15.8-17.5 15.8ZM255.3 4.9l-.3-.3c.3 0 .6-.1.8-.3.2-.3.4-.5.4-.8l-.2-.7a1 1 0 0 0-.6-.4l-1-.1h-1.5v4.2h.7V4.7h.4c.2 0 .4 0 .5.2.3.3.6.6.7 1l.4.6h.9l-.6-.8a5 5 0 0 0-.6-.8Zm-.9-.8h-.8V3h1.4c.2 0 .2.1.3.2.2.3.2.7 0 .9-.3.1-.6.2-.9.1Z"/>
  <path fill="#fff" d="M256.6 1a4 4 0 1 0-3.8 6.9 4 4 0 0 0 3.8-7Zm.9 5a3.3 3.3 0 0 1-5.8 0 3.3 3.3 0 0 1 1.3-4.5c.5-.3 1-.4 1.6-.4.6 0 1.2.1 1.7.4.5.3.9.7 1.2 1.2.6 1 .6 2.3 0 3.3Z"/>
</svg>
