<svg xmlns="http://www.w3.org/2000/svg" width="302" height="326" viewBox="0 0 604 652">
<style>
/* <![CDATA[ */

#flame1, #flame2, #flame3, #flame4 {
visibility: hidden;
animation-duration: 0.5s;
animation-iteration-count: infinite;
animation-timing-function: steps(1);
}

#flames {
  transform: translate(0px, 100px);
  animation: flames 2s forwards;
}

@keyframes flames {
  0% {
    transform: translate(0px, 100px);
  }
  100% {
    transform: translate(0px, -800px);
  }
}

#bg {
  transform: translate(0px, 660px);
  animation: bg 1.9s forwards;
}

@keyframes bg {
  0% {
    transform: translate(0px, 660px);
  }
  0%, 50% {
    opacity: 1;
  }
  80%, 100% {
    transform: translate(0px, -50px);
  }
  100% {
    opacity: 0;
  }
}

/* ]]> */
</style>
<linearGradient id="grd_1" x1="0" x2="0" y1="0" y2="1">
  <stop offset="0" stop-color="#FFEE00" stop-opacity="1"/>
  <stop offset=".7" stop-color="#ffffff" stop-opacity="1"/>
  <stop offset="1" stop-color="#ffffff" stop-opacity="0"/>
</linearGradient>
<rect id="bg" width="604" height="800" x="0" y="0" fill="url(#grd_1)"/>
<g id="flames">
  <g id="flame1">
    <path fill="#FF8D00" d="M-4.93 657.07c-8.76-31.54-11.92-53.29-26.61-90.97-14.69-37.67 2.08-70.72 23.44-89.23 21.37-18.5 30.94-24.93 19.27-46.05 10.93 6.21 17.64 18.39 7.7 41.99-9.94 23.6-41.49 49.2 14.41 79.51-5.47-12.67-8.98-30.87 8.94-40.75 12.17-6.71 35.03-7.45 20.13-35.53 16.4 4.97 17.21 21.73 2.24 42.49-14.16 19.63 1.99 45.72 27.33 31.8s13.91-59.38-2.48-88.95c-16.4-29.57-19.13-59.13-5.71-79.76s34.54-25.34 53.92-25.1c-23.85 12.42-32.8 35.78-25.84 53.92 6.96 18.14 27.08 46.46 48.95 26.59 21.87-19.88 3.73-58.89 3.73-58.89s28.97 12.67 27.58 42.24c-1.74 37.02-32.8 55.66-37.27 69.57-4.47 13.91 2.98 37.52 28.82 31.56s31.06-39.26 15.16-64.35c13.17 3.23 14.16 15.65 15.65 34.54s15.9 25.34 27.08 24.1c-12.92-15.9-27.83-43.98-16.65-71.56s25.1-34.04 35.78-41.25c10.68-7.21 16.4-13.42 10.44-22.61 11.68 8.45 13.02 21.37 2.41 29.82s-22.78 7.45-16.08 19.38c6.71 11.93 29.07-11.93 34.04-19.13 4.97-7.21 35.88-44.48 4.71-84.45 23.38 11.25 25.98 39.45 20.78 62.46-5.2 23.01-21.23 55.3-9.69 84.99 11.54 29.69 30.47 40.82 51.62 45.65-13.73-18.93-25.78-42.83-28.28-67.97-2.49-25.14 11.43-43.22 21.2-47.17-11.22 22.65-15.59 42.39-4.99 60.68s27.64 8.52 26.6-1.66-15.59-29.3-11.01-44.47 12.47-28.89 39.9-51.33c22.68-18.56 32.63-54.65 2.91-68.99 18.7-1.66 39.05 9.78 39.9 35.53 1.04 31.38-25.35 47.38-33.25 63.17s-5.4 29.92 13.3 46.34c18.7 16.42 36.57 14.75 47.17 0 10.6-14.75 3.74-36.99-7.9-48 15.17 0 28.26 11.43 28.26 28.47s-12.26 42.18-16 55.07-8.94 49.04 16 59.85c24.94 10.81 41.15-4.57 40.73-25.35s-13.72-51.12-12.88-67.74c.83-16.62 13.09-32.21 34.7-42.81 21.61-10.6 55.48-22.24 55.48-56.94S584.52 290 584.52 290s42.6 13.8 42.6 57.23-40.11 70.86-51.74 96.42-15.52 63.19 9.97 65.46c18.65 1.66 18.65-30.13 16-46.13-2-12.11 9.77-30.96 29.3-38.65 19.53-7.69 37.41-16.21 41.98-32.42s1.04-28.47-8.52-37.61c14.55 5.82 29.72 23.48 26.81 42.39s-14.34 42.18-27.85 61.93c-13.51 19.74-19.94 40.77-14.34 63.17 14.61 58.46-29.45 129.06-44.74 135.29l-608.92-.01z"/>
    <path fill="#FFD000" d="M-4.93 657.07s-18.91-68.09-24.48-88.26c17.17 9.55 22.54 39.63 48.67 37.07s21-32.27 5.38-41.75c17.16 2.05 22.03 18.44 21.77 28.17s2.84 26.8 14.6 26.21 12.21-14.14 11.31-22.78-2.23-13.84 3.28-20.99c1.94 10.12 12.95 27.84 28.88 29.92-11.76-15.93-15.03-35.03 14.87-66.43-13.32 22.87-15.08 41.71 1.26 56.29-2.51-17.84 7.29-24.88 16.33-34.17s9.55-22.61 2.76-29.4c11.06 1.01 14.57 16.33 11.06 22.61-3.52 6.28-17.34 15.83-13.57 27.39s16.58 20.1 39.45 15.33 32.16-31.16 22.11-51.51c17.59 4.77 16.62 26.21 11.97 32.97-8.29 12.06-2.17 45.18 26.22 32.11-13.07-14.07-23.12-35.68-5.78-61.81-3.52 13.82 1.76 31.91 24.37 37.94-15.58-17.84-12.81-36.94-2.51-55.03 10.3-18.09 21.11-43.97 9.55-63.32 15.83 9.3 14.07 22.87 9.55 38.19-4.52 15.33-13.32 61.06 23.37 77.39s63.82-32.67 28.39-51.26c22.36 4.52 33.67 19.85 31.41 33.42-2.26 13.57-4.02 30.91 24.62 38.7-7.54-16.08-7.54-32.41 0-43.97 7.54-11.56 21.86-18.09 21.86-18.09s-24.12 26.63 1.76 50.51c-2.26-16.08-.25-25.63 16.33-36.18s32.16-32.92 11.31-62.57c15.58 3.02 25.13 14.83 27.14 42.72 2.01 27.89 21.61 63.32 33.42 58.04 11.81-5.28-20.35-6.28 0-38.95-1.51 17.84 5.28 24.12 15.33 24.12s22.87-7.78 16.33-23.37c14.07 2.76 7.33 21.61 1.78 28.65s-6.81 21.86 8.27 22.11c15.08.25 15.33-12.56 13.82-24.12-1.51-11.56 5.77-19.74 11.34-25.77 11.02-11.92 3.48-26.5 3.48-26.5s11.81 7.27 7.79 31.65c-4.02 24.38 5.78 29.66 21.86 28.15 16.08-1.51 37.69-26.13 27.39-56.29 19.85 10.55 43.24 69.67-15.13 122.86H-4.93z"/>
    <path fill="#FFD000" d="M9.58 578.04s-4.72-21.36-20.25-45.78c-15.54-24.41-4.85-38.37 10.67-45.5-17.17 23.3-6.23 48.55 3.48 61.04 9.71 12.49 9.43 25.8 6.1 30.24z"/>
    <path fill="#FF8D00" d="M57.79 433.13s-27.97-21.71-11.89-48.92c8.83-14.95 23.44-32.95 15.29-50.62 13.25 11.89 4.08 40.09-.34 49.77s-12.57 30.4-3.06 49.77zM230.71 399.16s11.63-8.28 9.17-29.89c-1.7-14.95 9.85-27.52 9.85-27.52s14.61 42.12-19.02 57.41zM402.26 317.28s5.44 25.82-14.95 35.67c-3.74-7.81 4.42-11.55 9.17-17.83s5.78-17.84 5.78-17.84z"/>
    <path fill="#FFD000" d="M42.66 543.73s-8.9-19.4 11.84-28.74c-6.81 10.3-12.08 17.49-11.84 28.74zM108.27 458.48s-33.29-33.17-5.03-79.74c-4.07 21.91-4.07 45.62 16.28 63.58s44.06 9.1 54.84-1.92c-10.54 15.8-45.26 40.23-72.56-5.75 1.2 10.06 6.47 23.83 6.47 23.83zM237.95 483.42c-13.55-28.72 1.83-58.22 7.79-57.43 7.62 1.01-2.99 22.58 0 35.21-4.22-7.95-3.94-18.98-3.94-18.98s-7.42 18.81-3.85 41.2zM325.29 512.26s-50.8-20.92-26.9-80.31c-4.1 28.76-8.59 51.18 26.9 80.31zM415.02 523.62s-2.31-13.88-12.5-21.98-10.64-18.02-8.79-28.1c2.55 13.29 14.58 17.46 18.98 26.95 4.4 9.48 4.16 17.58 2.31 23.13zM392.89 443.09s-18.8-17.46-8.41-43.94c8.41-21.44 36.1-26.06 47.9-52.1-2.08 14.46-6.71 20.25-21.75 35.29s-18.51 50.45 12.26 66.88c-13.65 3.01-31.32-8.64-33.55-38.65-4.86 10.42 3.55 32.52 3.55 32.52zM469.64 474.68s5.09-27.54 10.88-26.84c5.78.69-10.88 26.84-10.88 26.84zM554.82 483.42s-10.83-46.2 26.18-73.48c-18.24 9.92-27.65 22.01-27.65 22.01s6.24-19.23 23.69-28.36c17.45-9.12 33.71-22.61 33.71-22.61s-52.82 59.66-55.93 102.44zM610.74 471s-8.67-22.31 15.81-37.05c24.48-14.74 38.27-7.89 51.28-37.09 2.54 14.92-11.43 29.43-25.39 35.34-13.97 5.92-41.19 7.56-41.7 38.8zM643.69 539s-2.27-.91-10.76-15.83-6.27-35.51 10.76-53.26c-16.68 18.52 0 69.09 0 69.09zM594.34 571.79s20.07-9.78 11.06-44c11.07 16.99 11.84 40.66-11.06 44z"/>
    <path fill="#FE0" d="m-4.93 657.07-8.75-31.51s27.74 14.81 25.35-9.53c13.52 4.87 22.51 16.85 22.51 16.85s-1.87-13.29 3.56-24.53c.56 17.79 11.42 31.83 30.71 31.83s27.34-18.16 20.78-30.52c11.23 7.49 22.09 16.66 22.09 16.66s-2.06-9.17 6.55-22.28c-.75 13.85 7.49 19.85 16.1 15.17s4.49-16.29-3.74-21.91c14.23 3.74 15.35 13.67 19.47 21.16 4.12 7.49 23.59 17.23 32.76-8.43 3.37 2.25 3.18 7.86 3.18 7.86s.56-12.92 14.23-20.6c-5.06 18.91 6.37 31.64 26.77 31.64s26.4-21.53 14.98-35.01c9.17 4.49 22.84-.37 22.84-14.6s-9.74-23.78-9.74-23.78 12.54 3 12.36 14.79-5.99 36.51 11.98 39.88c17.97 3.37 13.48-22.84 3.56-24.34 11.8.56 12.73 7.3 13.29 14.6.56 7.3.75 17.04 12.54 17.04s16.29-10.86 19.1-17.79c2.81-6.93 8.05-9.74 14.6-13.11-7.18 7.73-10.42 28.42 3.94 32.36 14.36 3.94 11.68-16.19 8.59-20.55 8.31 6.62 7.46 12.11 7.32 21.26s3.52 14.22 13.94 13.94c10.42-.28 12.11-10.28 10.98-19.85-1.13-9.57-.42-18.86 5.91-23.23-2.67 12.81 2.39 30.97 15.48 38.43-4.36-17.03 1.27-24.35 7.04-30.83-3.8 15.34-2.53 23.93 7.32 25.48 9.85 1.55 13.56-13.81 7.07-29.2-6.48-15.39 1.08-29.37 21.6-32.1-11.88 17.79-8.64 28.05 0 29.67s9.45-11.28 3.24-20.22c10.8 8.61 8.1 18.06 7.83 30.76-.27 12.69 11.03 20.79 19.29 24.03 1.24-13.77 12.85-15.12 20.41-23.76s2.43-17.28 2.43-17.28 6.48 7.29 5.94 16.74-1.62 12.96 2.43 18.63a62.4 62.4 0 0 1 6.48-22.95s-.54 28.35 18.9 28.35 19.98-13.5 20.52-21.87c.54-8.37 9.72-15.66 9.72-15.66s-1.08 22.41 10.26 24.3c11.34 1.89 21.06-4.05 20.79-16.2 9.99 10.26-.81 21.6-7.29 24.57-6.48 2.97 15.97 9.47 40.68-2.8C618.3 650.38 604 657.07 604 657.07H-4.93z"/>
    <path fill="none" d="M321.02 567.17s-15.91 13.85-30.71 0c-14.79-13.85-5.62-31.45-5.62-31.45s-3.92 36.5 36.33 31.45z"/>
  </g>
  <g id="flame2">
    <path fill="#FF8D00" d="M575.38 440.81c-32.01-25.04 31.48-46 31.48-89.43s-80.69-57.93-80.69-57.93 43.45 22.81 43.45 57.52-69.93 38.48-81.51-12.83c-26.07 37.98 24.68 60.55 23.59 103.86-.42 16.64-17.34 57.12-38.85 38.59-20.59-17.74-22.17-75.49-8.43-88.19-23.7 2.29-40.95 22.16-39.28 48-18.7-16.42-21.2-30.55-13.3-46.34 7.9-15.79 12.08-14.22 11.04-45.6-.85-25.75-16.01-29.78-17.69-53.11-20.37 23.34-46.17 40.79-35.71 91.7 3.19 15.52 8.19 51.24-6.93 68.05-23.94-13.23 3.78-50.01-28.98-85.38 7.56 35.17-5.48 53.42-2.98 78.57 2.49 25.14-10.39 36.91-23.35 22.32-10.83-12.2 26.33-36.8 9.69-84.99-9.31-26.96-21.92-25.96-21.06-67.79-13.98 26.38-12.52 52.76-4.44 89.77 6.99 32.01-21.53 32.68-34.04 19.13-4.56-4.94-3.07-13.2 7.54-21.65s20.27-32.4 8.59-40.85c-18.48 28.36-49.4 23.98-60.59 51.56-11.18 27.58 11.6 56.04-.86 56.04-8.12 0-9.6-12.42-22.77-15.65 15.9 25.1 8.59 44.69-6.02 38.86-52.81-21.06-13.32-50.46-60.59-99.52-13.48-13.99-23.63-43.32-.43-79.85-19.38-.25-37.49 27.56-42.97 56.72-4.54 24.18-6.28 56.57 10.12 86.14s45.73 60.42 20.38 74.33c-25.34 13.91-49.34 3.91-38.67-17.82 11.6-23.63-.25-54.33-16.65-59.3 14.91 28.08-.04 50.97-13.73 48.55-12.16-2.15-19.8-21.39-12.59-45.96 12.74-43.41-16.42-95.65-34.37-101.42 11.68 21.12 6.63 61.19-3.87 94.92-8.4 26.99-36.17 73.72-21.48 111.4 14.7 37.68 17.86 59.44 26.61 90.97H604c15.29-6.23 69.61-80.41 44.74-135.29-32.42-71.53 6.58-124.52 19.14-138.95-36.26-3.11-69.3 79-92.5 60.85z"/>
    <path fill="#FF8D00" d="M192.05 385.89c1.39-29.57-27.58-42.24-27.58-42.24s14.8 34.28 2.5 56.25c-5.8 10.36-14.96 33.8-7.51 47.51 10.02-13.16 31.16-31.16 32.59-61.52z"/>
    <path fill="#FFD000" d="M-4.93 654.23s-18.91-68.09-24.48-88.26c17.17 9.55 22.54 39.63 48.67 37.07s13.84-68.11-1.79-77.59c17.16 2.05 33.1 35.31 32.85 45.04s4.94 26.26 16.7 25.67c2.48-26.25 19.21-17.82 5.29-46.21 27.28 8.44 17.54 35.35 45.65 36.47-11.76-15.93-11.25-36.24 18.65-67.64-13.32 22.87-19.3 62.04 0 51.72 15.89-8.5 6.13-67.03 20.05-80.12-5.01 30.62-3.77 49.75 0 61.31 3.77 11.56 17.72 20.25 19.98 41.76 22.87-4.77-5.23-62.42 19.55-81.07-4.09 47.32 22.83 33.96 23.66 68.2 11.63-4.41 27.28-11.97 20.6-32.01-5.29-15.87-7.47-32.42-3.62-43.7 5.12-15.03 17.82-31.01 45.06-42.31-34.49 37.8-15.21 70.8 21.47 87.13 36.69 16.33 50.39-32.57 22.55-50.11 22.36 4.52 35.35 23.94 30.34 44.54-3.25 13.37-13.89 28.4 14.75 36.19 5.85-5.29 9.94-12.71 5.85-25.89-6.68-21.52 13.36-47.04 13.36-47.04s2.68 52.16 18.37 63.13c13.31 9.31 15.5-11.47 15.31-31.12-.15-15.51-5.29-38.69 17.82-60.75-6.4 22.89-4 43.22 16.6 55.02 24.26 13.9 1.49 38.02 27.1 40.25 12.89 1.12 18.38-7.83 15.59-16.42-10.58-32.57-5.01-54.56 24.78-74.6-18.65 24.5-16.1 74.43 0 84.07 14.22 8.51 26.09 5.46 24.78-6.12-3.67-32.4 11.54-32.94 11.54-32.94s-.68 56.05 41.91 44.74c15.61-4.15 30.93-41.58 20.63-71.73 19.85 10.55 37.74 100.18-20.63 153.37-39.16-.05-608.94-.05-608.94-.05z"/>
    <path fill="#FFD000" d="M9.58 575.21s-4.72-21.36-20.25-45.78c-15.54-24.41-2.45-70.44 13.06-77.57-17.17 23.3-12.1 52.01-2.39 64.49 9.71 12.49 12.91 54.42 9.58 58.86z"/>
    <path fill="#FF8D00" d="M53.99 369.48c16.3-7.72 25.07-53.86 16.42-82.32 7.44 16.17 14.55 34.98 11.22 49.8-5.17 23.06-19.19 34.63-27.64 32.52zM254.94 307.94s3.34 28.69-11.84 44.27c-10.5 10.78-9.06 27.79-9.06 27.79s41.89-31.96 20.9-72.06zM470.66 298.11s20.72 26.72.02 50.11c-8.94-6.86-.55-15.98 2.16-26.05 2.69-10.08-2.18-24.06-2.18-24.06z"/>
    <path fill="#FFD000" d="M56.39 523.79s-8.9-19.4 11.84-28.74c-6.81 10.3-12.08 17.49-11.84 28.74zM123.03 484.43s-42.22-38.57-28.14-108.32c.96 45.29 28.14 108.32 28.14 108.32zM221.92 462.54c-13.55-28.72 1.83-58.22 7.79-57.43 7.62 1-11.36 35.04-7.79 57.43zM299.22 433.68s28.73-23.86 1.19-57.57c8.49 17.84 15.93 31.48-1.19 57.57zM403.33 510.04s-2.31-25.09-12.5-39.73c-10.18-14.64-10.64-32.57-8.79-50.78 2.55 24.02 14.58 31.55 18.98 48.69 4.39 17.15 4.16 31.79 2.31 41.82zM385.28 327.09s-15.81 15.46-12.74 43.15c2.49 22.41 17.52 36.93 9.41 20.21-8.1-16.72 1.18-53.11 25.16-66.24-9.03-4.5-23.14 5.25-29.4 35.1-1.75-10.97 7.57-32.22 7.57-32.22zM430.03 437.92s1.51-27.79 11.37-30.44c10.22-2.75-1.98 7-5.32 13.48-3.48 6.72-6.05 16.96-6.05 16.96zM493.99 376.12s15.05 21.92 22.71 37.97c7.65 16.04 12.33 39.99 12.33 39.99s7.97-44.21-35.04-77.96zM594.2 519.31s-20.57-29.71 19.1-81.39c-28.98 21.3-48.74 60.65-19.1 81.39z"/>
    <path fill="#FE0" d="m-6.97 654.23-14.6-59.93s18.43 24.39 32.43 13.6c13.52 4.87 8.62 12.97 14.53 14.94 5.88 1.95 29.11-.41 20.82-33.1 20.5 19.46 15.6 47.59 32.96 39.18 10.64-5.16-8.04-28.03 10.12-44.11-1.87 9.81 2.41 18.63 7.68 25.36a10.13 10.13 0 0 0 17.16-2.13c.94-2.12.04-14.58 1.62-17 9.08 9.08 7.29 22.84 18.23 25.35 9.55 2.19 24.26-32.71 16.02-38.32 14.23 3.74 2.11 29.62 6.23 37.11s8.99 11.38 18.16-14.27c3.37 2.25 4.67 12.46 4.67 12.46s12.2-4.41 24.65-32.96c-5.06 18.91-.95 32.96 19.46 32.96.78-16.35 19.98-11.94 21.54-46.45 5.45 14.53 15.57 14.75 15.57.52s-10.9-50.6-10.9-50.6 14.97 6.23 18.42 33.22c1.5 11.7-8.03 38.43 10.22 37.24 10.31-.67 2.44-25.56 23.97-27.58-10 10.33-9.89 32.29 3.72 39.91 10.29 5.76 18.11-2.27 20.92-9.19 2.81-6.93 9.14-28.66 15.7-32.03-7.18 7.73-13.24 44.45 1.12 48.4 14.36 3.94 14.08-20.97 10.99-25.34 18.61 4.08 5.98 49.16 34.98 42.15 19.51-4.71-13.45-40.36-3.36-65.21-.08 16.57 14.77 49.06 43.71 33.23 6.29-3.44 11.9-18.24 12.79-46.04 5.61 16.37.17 41.99 8.81 43.61 2.4-12.67 21.39-13.14 15.18-22.09 10.8 8.61 3.18 13.32 2.91 26.01-.27 12.69 2.02 28.48 12.26 30.64 13.53 2.86 7.31-20.33 8.37-31.76 1.12-12.11 19.28-21.3 19.28-21.3s-7.76 14.77-8.3 24.22c-.54 9.45.22 21.08 11.85 23.18-5.58-11.97-1.76-39.55 15.05-36.41-5.83 13.01-2.4 33.86 17.04 33.86-12.11-13.9-2.33-29.07-1.79-37.45 3.14 16.37 17.94 8.97 17.94 8.97s.32 16.27 11.66 18.16 5.16-17.04 38.79-21.53c-23.1 17.49-4.69 15.3 3.36 19.51 6.32 3.3-6.69 24.89 18.01 12.62-14.71 31.73-31.05 38.42-31.05 38.42H-6.97z"/>
    <path fill="#FFD000" d="M283.75 473.05s-20.45 16.37-6.68 37.46c6.68-10.74-.69-21.09 6.68-37.46z"/>
  </g>
  <g id="flame3">
    <path fill="#FF8D00" d="M610.34 651.01c8.76-31.54 11.92-53.29 26.61-90.97 14.69-37.67-2.08-70.72-23.44-89.23-21.37-18.5-16.49-52.94-4.81-74.06-10.93 6.21-32.1 46.4-22.16 70 9.94 23.6-5.43 48.64-23.36 38.76-12.17-6.71-20.32-35.67-5.41-63.75-16.4 4.97-39.85 59.22-24.88 79.97 14.16 19.63-48.09-15.53-16.92-66.41 17.66-28.83 25.45-71.6 10.24-90.93-33.09-42.06-40.44-31.43-53.93-75.86-11.01 15.38-14.42 44.43-.76 84.15 6.32 18.37-6.04 50.21-27.91 30.34s-14.81-67.34-14.81-67.34-21.46 49.65-15.46 78.64c6.26 30.22-1.11 52.96-12.06 68.65-6.71 9.62-21.71 1.8-17.75-9.24 5.67-15.84 8.31-33.37 2.55-47.58-11.18-27.58-27.19-66.42-21.23-75.62-11.68 8.45-27.71 2.81-24.91 34.26 1.2 13.51 11.41 29.12-2.28 29.12-33.73 0-2.28-108.29-50.69-113.15 21.07 52.14-3.7 58.63 1.49 81.64 5.2 23.01 21.23 55.3 9.69 84.99-11.54 29.69-22.35-11.32-19.85-36.46s-14.02-54.3-23.79-58.25c11.22 22.65 14.69 67.61 4.09 85.89-10.6 18.29-27.64 8.52-26.6-1.66 1.04-10.18-1.89-27.2-.84-43 4.09-61.92-38.73-102.59-42.04-136.77-16.1 18.8-27.96 24.77-28.81 50.52-1.04 31.38 35.76 83.09 23.57 95.86-23.97 25.11-34.97-13.16-45.57-27.91-10.6-14.75-14.65-30.41-18.74-61.46-15.17 0-6.85 66.45-6.85 83.49 0 17.04-8.49 18.11-4.75 31 3.74 12.88 27.46 42.64 2.52 53.45-24.94 10.81-37.73-9.48-37.32-30.26.42-20.78 12.53-15.74 11.7-32.37-.83-16.62-13.09-32.21-34.7-42.81s-14.82-30.32-14.82-65.02-14.48-47.69-14.48-47.69-35.45 52.17-35.45 95.6 29.21 43.54 40.85 69.1 16.31 22.89 1.01 31.26c-16.42 8.98-25.89-6.98-23.24-22.98 2-12.11-9.77-30.96-29.3-38.65s-37.41-16.21-41.98-32.42-1.04-28.47 8.52-37.61c-14.55 5.82-29.72 23.48-26.81 42.39s14.34 42.18 27.85 61.93c13.51 19.74 19.94 40.77 14.34 63.17-14.61 58.46 29.45 129.06 44.74 135.29h608.94z"/>
    <path fill="#FFD000" d="M173.22 543.29c-12.18-25.4-22.97-73.97-6.25-97.74-15.58 3.02-17.87 56.97-19.88 84.87-2.01 27.89-5.56 42.13-17.37 36.85s3.43-17.04-16.93-49.7c1.51 17.84-4.4 56.07-14.45 56.07s-22.87-7.78-16.33-23.37c-14.07 2.76-7.33 21.61-1.78 28.65s6.81 21.86-8.27 22.11-15.33-12.56-13.82-24.12c1.51-11.56.11-37.94-5.46-43.96-11.02-11.92-10.61-40.42-10.61-40.42s-10.56 39.39-6.54 63.77c4.02 24.38-5.78 29.66-21.86 28.15-16.08-1.51-31.47-42.4-21.17-72.55-19.85 10.55-49.46 85.94 8.9 139.13h608.93s18.91-68.09 24.48-88.26c-17.17 9.55-22.54 39.63-48.67 37.07-26.13-2.56-8.04-67.04 7.58-76.51-17.16 2.05-38.46 32.7-38.2 42.43.26 9.73-1.68 37.27-13.44 36.68s-5.65-16.83-4.76-25.46-10.24-26.07-15.75-33.22c-1.94 10.12-4.72 52.79-20.65 54.87 11.76-15.93 18.02-49.64-11.88-81.05 13.32 22.87 12.09 56.32-4.25 70.9 2.51-17.84-10.45-39.67-17.14-50.79-18.93-31.47.45-67.04 7.24-73.83-17.32-5.34-42.67 28.65-29 57.89 5.15 11.01 8.49 45.53-19.1 53.8-22.38 6.71-30.21-16.48-20.16-36.83-17.59 4.77-16.62 26.21-11.97 32.97 8.29 12.06 12.12 43.1-16.27 30.03 13.07-14.07 13.16-33.6-4.17-59.73 3.52 13.82-1.76 31.91-24.37 37.94 15.58-17.84 12.81-36.94 2.51-55.03-10.3-18.09-21.11-43.97-9.55-63.32-15.83 9.3-14.07 22.87-9.55 38.19 4.52 15.33.16 33.41-36.52 49.74-36.69 16.33-56.73-19.02-21.3-37.62-22.36 4.52-27.61 33.86-25.35 47.43 2.26 13.57-17.09 6.28-24.62-5.28-2.85-4.37-4.22-13.4-4.81-22.94-.59-9.53-12.98-12.81-18.23-4.84l-11.97 18.17a9.92 9.92 0 0 1-17.24-1.14z"/>
    <path fill="#FFD000" d="M595.83 571.98s4.72-21.36 20.25-45.78 4.85-38.37-10.67-45.5c17.17 23.3 6.23 48.55-3.48 61.04-9.71 12.48-9.43 25.8-6.1 30.24z"/>
    <path fill="#FF8D00" d="M547.62 400.29s27.97-21.71 11.89-48.92c-8.83-14.95-23.44-32.95-15.29-50.62-13.25 11.89-4.08 40.09.34 49.77 4.42 9.69 12.57 30.41 3.06 49.77zM389.51 346.89s-11.63-8.28-9.17-29.89c1.7-14.95-9.85-27.52-9.85-27.52s-14.61 42.12 19.02 57.41zM213.18 283.94s-5.44 45.57 14.95 62.95c3.74-13.79-4.42-20.39-9.17-31.48-4.76-11.09-5.78-31.47-5.78-31.47z"/>
    <path fill="#FFD000" d="M562.75 537.67s8.9-19.4-11.84-28.74c6.81 10.3 12.08 17.48 11.84 28.74zM483.4 359.82c19.1 25.36 4.79 63.98-15.56 81.94s-26.01 3.6-36.79-7.42c10.53 15.8 58.01-10.82 52.35-74.52zM367.46 442.63c13.55-28.72-1.83-58.22-7.79-57.43-7.62 1.01 2.99 22.58 0 35.21 4.22-7.95 3.94-18.98 3.94-18.98s7.42 18.81 3.85 41.2zM280.12 506.2s50.8-20.92 26.9-80.31c4.1 28.76 8.59 51.17-26.9 80.31zM190.39 517.56s2.31-13.88 12.5-21.98 10.64-18.02 8.79-28.1c-2.55 13.29-14.58 17.46-18.98 26.95-4.39 9.48-4.16 17.58-2.31 23.13zM174.37 306.88c2.08 14.46-.28 38.94 14.77 53.98s16.98 45 23.39 62.65c11.24-50.83-26.36-90.59-38.16-116.63zM135.78 468.62s-5.09-27.54-10.88-26.84c-5.79.69 10.88 26.84 10.88 26.84zM45.31 433.5c.93 2.3-2.01 4.18-3.7 2.38-9.76-10.4-26.02-26.64-37.5-32.64-14.03-7.33-2.57-41.98 2.46-55.29a2.24 2.24 0 0 1 4.17-.04l.15 17.34a65.44 65.44 0 0 0 12.39 37.74l22.03 30.51zM-5.33 464.94s8.67-22.31-15.81-37.05c-24.48-14.74-38.27-7.89-51.28-37.09-2.54 14.92 11.43 29.43 25.39 35.34s41.19 7.56 41.7 38.8zM-38.28 532.93s2.27-.91 10.76-15.83 6.27-35.51-10.76-53.26c16.68 18.53 0 69.09 0 69.09zM11.07 565.73S-9 555.95.01 521.73c-11.06 16.98-11.84 40.66 11.06 44z"/>
    <path fill="#FE0" d="m608.71 651.01 10.38-31.51s-27.74 14.81-25.35-9.53c-13.53 4.87-22.51 16.85-22.51 16.85s1.87-13.29-3.56-24.53c-.56 17.79-11.42 31.83-30.71 31.83s-27.34-18.16-20.78-30.52c-11.23 7.49-22.09 16.66-22.09 16.66s2.06-9.17-6.55-22.28c.75 13.85-7.49 19.85-16.1 15.17-8.61-4.68-4.49-16.29 3.74-21.91-14.23 3.74-15.35 13.67-19.47 21.16-4.12 7.49-23.59 17.23-32.77-8.43-3.37 2.25-3.18 7.86-3.18 7.86s-.56-12.92-14.23-20.6c5.06 18.91-6.37 31.64-26.77 31.64-20.41 0-26.4-21.53-14.98-35.01-9.17 4.49-22.84-.37-22.84-14.6s9.74-23.78 9.74-23.78-12.54 3-12.36 14.79 5.99 36.51-11.98 39.88c-17.97 3.37-13.48-22.84-3.56-24.34-11.8.56-12.73 7.3-13.29 14.6-.56 7.3-.75 17.04-12.54 17.04-11.8 0-16.29-10.86-19.1-17.79-2.81-6.93-8.05-9.74-14.6-13.11 7.18 7.73 10.42 28.42-3.94 32.36-14.36 3.94-11.68-16.19-8.59-20.55-8.31 6.62-7.46 12.11-7.32 21.26.14 9.15-3.52 14.22-13.94 13.94s-12.11-10.28-10.98-19.85c1.13-9.57.42-18.86-5.91-23.23 2.67 12.81-2.39 30.97-15.48 38.43 4.36-17.03 3.18-36.68-2.59-43.16 3.8 15.34-1.92 36.26-11.77 37.81-9.85 1.55-13.56-13.81-7.07-29.2 6.48-15.39-1.08-29.37-21.6-32.1 11.88 17.79 8.64 28.05 0 29.67s-9.45-11.28-3.24-20.22c-10.8 8.61-8.1 18.06-7.83 30.76.27 12.69-11.03 20.79-19.29 24.03-1.24-13.77-12.85-15.12-20.41-23.76-7.56-8.64-2.43-17.28-2.43-17.28s-6.48 7.29-5.94 16.74 1.62 12.96-2.43 18.63c-1.08-13.23-6.48-22.95-6.48-22.95s.54 28.35-18.9 28.35-19.98-13.5-20.52-21.87c-.54-8.37-9.72-15.66-9.72-15.66s1.08 22.41-10.26 24.3-21.06-4.05-20.79-16.2c-9.99 10.26.81 21.6 7.29 24.57s-15.97 9.47-40.68-2.8c14.71 31.73 20.1 38.42 20.1 38.42h616.18z"/>
    <path fill="none" d="M284.39 561.11s15.91 13.85 30.71 0c14.79-13.85 5.62-31.45 5.62-31.45s3.92 36.5-36.33 31.45z"/>
  </g>
  <g id="flame4">
    <path fill="#FF8D00" d="M575.38 438.46c-32.01-25.04 4.13-42.3 4.13-85.73s-53.34-61.63-53.34-61.63 22.24 18.51 22.24 53.21-48.72 42.78-60.31-8.53c-26.07 37.98 24.68 60.55 23.59 103.86-.42 16.64-24.51 39.07-46.02 20.54-20.59-17.74-15-57.45-1.26-70.15-23.7 2.29-40.95 22.16-39.28 48-18.7-16.42-29.5-26.13-7.08-79.73 9.94-23.77-11.19-41.98-12.87-65.32-20.37 23.34-46.17 40.79-35.71 91.7 3.19 15.52 8.19 51.24-6.93 68.05-23.94-13.23 3.78-50.01-28.98-85.38 7.56 35.17-5.48 53.42-2.98 78.57 2.49 25.14-10.39 36.91-23.35 22.32-10.83-12.2 26.33-36.8 9.69-84.99-9.31-26.96-21.92-25.96-21.06-67.79-13.98 26.38-12.52 52.76-4.44 89.77 6.99 32.01-21.53 32.68-34.04 19.13-4.56-4.94-3.07-13.2 7.54-21.65s20.27-32.4 8.59-40.85c-18.48 28.36-49.4 23.98-60.59 51.56-11.18 27.58 11.6 56.04-.86 56.04-8.12 0-9.6-12.42-22.77-15.65 15.9 25.1 8.59 44.69-6.02 38.86-52.81-21.06-13.32-50.46-60.59-99.52-13.48-13.99-23.63-43.32-.43-79.85-19.38-.25-37.49 27.56-42.97 56.72-4.54 24.18-16.82 28.3-.42 57.87 16.4 29.57 38.47 91.8 13.13 105.71-25.34 13.91-31.54.8-20.88-20.92 11.6-23.63-.25-54.33-16.65-59.3 14.91 28.08-.04 50.97-13.73 48.55-12.16-2.15-18.18-41.83-10.96-66.4 12.74-43.41-41.26-76.37-59.21-82.14 11.68 21.12 29.84 62.35 19.35 96.08-8.4 26.99-36.17 73.72-21.48 111.4 14.7 37.68 17.86 59.44 26.61 90.97H604c15.29-6.23 69.61-80.41 44.74-135.29-32.42-71.53 6.58-124.52 19.14-138.95-36.26-3.1-74.59-10.23-92.5 60.86z"/>
    <path fill="#FF8D00" d="M170.12 316.45c1.39-29.57-27.58-42.24-27.58-42.24s14.8 34.28 2.5 56.25c-5.8 10.36-14.96 33.8-7.51 47.51 10.03-13.17 31.17-31.16 32.59-61.52z"/>
    <path fill="#FFD000" d="M-4.93 651.88s-18.91-68.09-24.48-88.26c17.17 9.55 22.54 39.63 48.67 37.07s13.84-68.11-1.79-77.59c17.16 2.05 33.1 35.31 32.85 45.04s4.94 26.26 16.7 25.67c2.48-26.25 19.21-17.82 5.29-46.21 27.28 8.44 17.54 35.35 45.65 36.47-11.76-15.93-11.25-36.24 18.65-67.64-13.32 22.87-19.3 62.04 0 51.72 15.89-8.5 6.13-67.03 20.05-80.12-5.01 30.62-3.77 49.75 0 61.31 3.77 11.56 17.72 20.25 19.98 41.76 22.87-4.77-5.23-62.42 19.55-81.07-4.09 47.32 22.83 33.96 23.66 68.2 11.63-4.41 27.28-11.97 20.6-32.01-5.29-15.87-7.47-32.42-3.62-43.7 5.12-15.03 17.82-31.01 45.06-42.31-34.49 37.8-15.21 70.8 21.47 87.13 36.69 16.33 50.39-32.57 22.55-50.11 22.36 4.52 35.35 23.94 30.34 44.54-3.25 13.37-13.89 28.4 14.75 36.19 5.85-5.29 9.94-12.71 5.85-25.89-6.68-21.52 13.36-47.04 13.36-47.04s2.68 52.16 18.37 63.13c13.31 9.31 15.5-11.47 15.31-31.12-.15-15.51-5.29-38.69 17.82-60.75-6.4 22.89-2.35 62.16 23.26 64.38 12.89 1.12 18.92-17.59 16.13-26.18-10.58-32.57 32.62-37.92 62.41-57.96-18.65 24.5-51.16 65.39-35.06 75.03 14.22 8.51 34.27 4.57 32.96-7.01-3.67-32.4 16.83-48.26 16.83-48.26s3.18 105.29 45.77 93.98c15.61-4.15 30.93-41.58 20.63-71.73 19.85 10.55 37.74 100.18-20.63 153.37-39.16-.03-608.94-.03-608.94-.03z"/>
    <path fill="#FFD000" d="M9.58 572.85s-4.72-21.36-20.25-45.78c-15.54-24.41-2.45-70.44 13.06-77.57C-14.78 472.81-9.71 501.51 0 514c9.71 12.48 12.91 54.41 9.58 58.85z"/>
    <path fill="#FF8D00" d="M53.99 367.13c16.3-7.72 25.07-53.86 16.42-82.32 7.44 16.17 14.55 34.98 11.22 49.8-5.17 23.06-19.19 34.62-27.64 32.52zM224.04 322.28s3.34 28.69-11.84 44.27c-10.5 10.78-9.06 27.79-9.06 27.79s41.89-31.95 20.9-72.06zM428.96 295.02s30.39 42.62 5.42 75.75c-12.6-11.33-2.45-24.21.06-39.15 2.49-14.94-5.48-36.6-5.48-36.6z"/>
    <path fill="#FFD000" d="M56.39 521.44s-8.9-19.4 11.84-28.74c-6.81 10.3-12.08 17.49-11.84 28.74zM123.03 482.08s-42.22-38.57-28.14-108.32c.96 45.29 28.14 108.32 28.14 108.32zM221.92 460.19c-13.55-28.72 1.83-58.22 7.79-57.43 7.62 1-11.36 35.04-7.79 57.43zM299.22 431.33s28.73-23.86 1.19-57.57c8.49 17.84 15.93 31.47-1.19 57.57zM403.33 507.69s-2.31-25.09-12.5-39.73c-10.18-14.64-10.64-32.57-8.79-50.78 2.55 24.02 14.58 31.55 18.98 48.69 4.39 17.15 4.16 31.79 2.31 41.82zM372.54 367.88c2.49 22.41 17.52 36.93 9.41 20.21-8.1-16.72 1.18-53.11 25.16-66.24-9.02-4.5-37.65 18.35-34.57 46.03zM430.03 435.57s1.51-27.79 11.37-30.44c10.22-2.75-1.98 7-5.32 13.48-3.48 6.72-6.05 16.96-6.05 16.96zM493.99 373.76s15.05 21.92 22.71 37.97c7.65 16.04 12.33 39.99 12.33 39.99s7.97-44.2-35.04-77.96zM594.2 516.96s-20.57-29.71 19.1-81.39c-28.98 21.29-48.74 60.64-19.1 81.39z"/>
    <path fill="#FE0" d="m-17.65 652-3.92-60.05s18.43 24.39 32.43 13.6c13.52 4.87 8.62 12.97 14.53 14.94 5.88 1.95 29.11-.41 20.82-33.1 20.5 19.46 15.6 47.59 32.96 39.18 10.64-5.16-8.04-28.03 10.12-44.11-1.87 9.81 2.41 18.63 7.68 25.36a10.13 10.13 0 0 0 17.16-2.13c.94-2.12.04-14.58 1.62-17 9.08 9.08 7.29 22.84 18.23 25.35 9.55 2.19 24.26-32.71 16.02-38.32 14.23 3.74 2.11 29.62 6.23 37.11 4.12 7.49 8.99 11.38 18.16-14.27 3.37 2.25 4.67 12.46 4.67 12.46s12.2-4.41 24.65-32.96c-5.06 18.91-.95 32.96 19.46 32.96.78-16.35 19.98-11.94 21.54-46.45 5.45 14.53 15.57 14.75 15.57.52s-10.9-50.6-10.9-50.6 14.97 6.23 18.42 33.22c1.5 11.7-8.03 38.43 10.22 37.24 10.31-.67 2.44-25.56 23.97-27.58-10 10.33-9.89 32.29 3.72 39.91 10.29 5.76 18.11-2.27 20.92-9.19 2.81-6.93 9.14-28.66 15.7-32.03-7.18 7.73-13.24 44.45 1.12 48.4 14.36 3.94 14.08-20.97 10.99-25.34 18.61 4.08 5.98 49.16 34.98 42.15 19.51-4.71-13.45-40.36-3.36-65.21-.08 16.57 14.77 49.06 43.71 33.23 6.29-3.44 11.9-18.24 12.79-46.04 5.61 16.37.17 41.99 8.81 43.61 2.4-12.67 21.39-13.14 15.18-22.09 10.8 8.61 3.18 13.32 2.91 26.01-.27 12.69 2.02 28.48 12.26 30.64 13.53 2.86 7.31-20.33 8.37-31.76 1.12-12.11 19.28-21.3 19.28-21.3s-7.76 14.77-8.3 24.22c-.54 9.45.22 21.08 11.85 23.18-5.58-11.97-1.76-39.55 15.05-36.41-5.83 13.01-2.4 33.86 17.04 33.86-12.11-13.9-2.33-29.07-1.79-37.45 3.14 16.37 17.94 8.97 17.94 8.97s.32 16.27 11.66 18.16 5.16-17.04 38.79-21.53c-23.1 17.49-4.69 15.3 3.36 19.51 6.32 3.3-6.69 24.89 18.01 12.62-14.68 31.7-10.42 38.51-10.42 38.51H-17.65z"/>
    <path fill="#FFD000" d="M283.75 470.7s-20.45 16.37-6.68 37.46c6.68-10.75-.69-21.09 6.68-37.46z"/>
  </g>
</g>
<style>
/* <![CDATA[ */

#flame1 {animation-name: flame1}
#flame2 {animation-name: flame2}
#flame3 {animation-name: flame3}
#flame4 {animation-name: flame4}

@keyframes flame1 {0.00%{visibility: visible} 25.00%{visibility: hidden}}
@keyframes flame2 {25.00%{visibility: visible} 50.00%{visibility: hidden}}
@keyframes flame3 {50.00%{visibility: visible} 75.00%{visibility: hidden}}
@keyframes flame4 {75.00%{visibility: visible} 100.00%{visibility: hidden}}

/* ]]> */
</style>
</svg>
