<svg xmlns="http://www.w3.org/2000/svg" width="200" height="200" viewBox="0 0 240 240">
<style>
/* <![CDATA[ */

#flame1, #flame2, #flame3, #flame4 {
visibility: hidden;
animation-duration: 0.5s;
animation-iteration-count: infinite;
animation-timing-function: steps(1);
}

/* ]]> */
</style>
  <g id="flame1">
    <linearGradient id="grd_1" x1="132.26" x2="154.25" y1="70.2" y2="44.9" gradientTransform="rotate(-22.59 117.47 122.8)" gradientUnits="userSpaceOnUse">
      <stop offset="0" stop-color="#fdcf1f"/>
      <stop offset=".99" stop-color="#f37620"/>
    </linearGradient>
    <path fill="url(#grd_1)" d="M132.68 46.54c-12.74-3.32-16.65-15.43-17.33-27.57.07 1.22-2.82 4.45-3.46 5.62a43.27 43.27 0 0 0-2.79 6.07 51.32 51.32 0 0 0-2.78 13.31c-.77 9.31 1.19 18.46 4.8 27.04-2.48-5.95-1.55-14.24-.14-20.34 1-4.3 3.41-7.94 4.51-12.06 1.84 8.58 10.08 10.21 17.19 7.93z"/>
    <linearGradient id="grd_2" x1="3.51" x2="-5.49" y1="45.06" y2="-87.94" gradientTransform="matrix(.83 -.47 .15 .7 22.6 179.98)" gradientUnits="userSpaceOnUse">
      <stop offset="0" stop-color="#fdcf1f"/>
      <stop offset=".99" stop-color="#f37620"/>
    </linearGradient>
    <path fill="url(#grd_2)" d="M21.1 146.67c-.4 2.37-5.96 17.58-1.52 17.89-5.85-.41-12.76-4.79-15.15-9.84-2.57-5.44-1.95-13.41-.35-19.62 1.56-6.06 5.04-11.98 6.1-18.07 1.02-5.88-3.25-7.61-8.45-6.59 1.68-2.31 5.35-2.34 7.47-1.49 9.13 3.62 1.02 19.81.18 26.84-.37 3.12 1.49 12.47 6.72 7.56 2.32-2.18 1.13-5.03-1.09-5.99 1.09-1.55 2.75-1.16 3.96-.4 2.94 1.88 2.69 6.4 2.13 9.71z"/>
    <linearGradient id="grd_3" x1="10.94" x2="-13.06" y1="37.71" y2="-71.29" gradientTransform="matrix(.83 -.47 .15 .7 22.6 179.98)" gradientUnits="userSpaceOnUse">
      <stop offset="0" stop-color="#fcb514"/>
      <stop offset=".99" stop-color="#fce842"/>
    </linearGradient>
    <path fill="url(#grd_3)" d="M14.39 155.31c.29.21.56.43.78.64 1.55 1.54 2.6 8.48 4.4 8.61-8.57-.6-11.23-7.48-11.8-15.37.22 2.96 4.33 4.46 6.62 6.12z"/>
    <linearGradient id="grd_4" x1="488.12" x2="530.84" y1="122.39" y2="54.86" gradientTransform="matrix(.56 -.53 .69 .73 -145.9 250.23)" gradientUnits="userSpaceOnUse">
      <stop offset="0" stop-color="#fdcf1f"/>
      <stop offset=".99" stop-color="#f37620"/>
    </linearGradient>
    <path fill="url(#grd_4)" d="M206.41 58.99a19.23 19.23 0 0 0-.13 3.9c.54 3.47 3.58 17.8 7.81 19.03-7.68-2.24-17.63-10-21.86-17.33-4.56-7.9-5.54-18.2-4.86-25.89.46-5.17 2.92-9.18 1.74-14.41-.75-3.35-3.39-10.9-6.63-12.76 9.29 5.32 14.49 17.08 15.74 27.29.26 2.12-.53 5.58.28 7.55 3.32 8.17 9.98-3.86 14.88-2.97-4.04-.73-6.34 9.53-6.97 15.59z"/>
    <linearGradient id="grd_5" x1="480.6" x2="486.58" y1="172.05" y2="136.14" gradientTransform="matrix(.56 -.53 .69 .73 -145.9 250.23)" gradientUnits="userSpaceOnUse">
      <stop offset="0" stop-color="#fcb514"/>
      <stop offset=".99" stop-color="#fce842"/>
    </linearGradient>
    <path fill="url(#grd_5)" d="M205.3 68.27c.43.36.82.72 1.15 1.07 2.36 2.48 5.28 11.9 7.64 12.59-11.24-3.27-16.24-13.08-18.75-23.62.94 3.95 6.61 7.11 9.96 9.96z"/>
    <linearGradient id="grd_6" x1="120.37" x2="128.84" y1="95.17" y2="22.82" gradientTransform="rotate(-22.54 117.54 122.86)" gradientUnits="userSpaceOnUse">
      <stop offset="0" stop-color="#fdcf1f"/>
      <stop offset=".99" stop-color="#f37620"/>
    </linearGradient>
    <path fill="url(#grd_6)" d="M100.48 56.25c9.44 12.1 22.25 25.77 7.26 40.66 1.84-9.15-4.56-15.66-10.51-21.57-5.32-5.28-9.96-11.68-11.93-19.05-2.45-9.15 2.53-33.46 16.65-32.29-11.2 8.76-9.12 22.44-1.47 32.25z"/>
    <linearGradient id="grd_7" x1="125.9" x2="124.92" y1="55.55" y2="70.2" gradientTransform="rotate(-22.54 117.54 122.86)" gradientUnits="userSpaceOnUse">
      <stop offset="0" stop-color="#fcb514"/>
      <stop offset=".99" stop-color="#fce842"/>
    </linearGradient>
    <path fill="url(#grd_7)" d="M98.88 72.77c5.42 1.61 11.66 2.64 14.32 8.4 2.66 5.75-1.47 11.77-5.46 15.73 1.53-7.61.14-21.46-8.86-24.13z"/>
    <linearGradient id="grd_8" x1="230.21" x2="250.72" y1="76.33" y2="48.99" gradientTransform="rotate(-40.76 304.73 125.4)" gradientUnits="userSpaceOnUse">
      <stop offset="0" stop-color="#fdcf1f"/>
      <stop offset=".99" stop-color="#f37620"/>
    </linearGradient>
    <path fill="url(#grd_8)" d="M212.31 135.58c-2.28 1.82-4.86-16.42-4.44-18.53 1.65-8.23 5.59-16.01 7.65-24.17 5.53 13.57 12.61 30.1-3.21 42.7z"/>
    <linearGradient id="grd_9" x1="371.94" x2="392.45" y1="-17.87" y2="-45.21" gradientTransform="matrix(.34 -.3 .3 .34 93.05 250.75)" gradientUnits="userSpaceOnUse">
      <stop offset="0" stop-color="#fcb514"/>
      <stop offset=".99" stop-color="#fce842"/>
    </linearGradient>
    <path fill="url(#grd_9)" d="M212.36 135.85c-1.02.81-2.21-7.36-2.02-8.29.73-3.68 2.49-7.15 3.41-10.8 2.5 6.08 5.71 13.48-1.39 19.09z"/>
    <linearGradient id="grd_10" x1="126.43" x2="-100.88" y1="-70.84" y2="310.72" gradientTransform="rotate(-22.54 117.54 122.86)" gradientUnits="userSpaceOnUse">
      <stop offset="0" stop-color="#fcb514"/>
      <stop offset=".99" stop-color="#fce842"/>
    </linearGradient>
    <path fill="url(#grd_10)" d="M37.83 53.16a3.05 3.05 0 0 0-5.63 2.33 3.04 3.04 0 0 0 3.98 1.64 3.03 3.03 0 0 0 1.65-3.97z"/>
    <linearGradient id="grd_11" x1="240.5" x2="62.78" y1="-155.04" y2="143.28" gradientTransform="rotate(-22.54 117.54 122.86)" gradientUnits="userSpaceOnUse">
      <stop offset="0" stop-color="#fcb514"/>
      <stop offset=".99" stop-color="#fce842"/>
    </linearGradient>
    <path fill="url(#grd_11)" d="M93.87 45.34a2.39 2.39 0 0 0-3.11-1.29 2.39 2.39 0 0 0-1.29 3.11 2.38 2.38 0 1 0 4.4-1.82z"/>
    <linearGradient id="grd_12" x1="159.07" x2="-20.41" y1="32.35" y2="333.62" gradientTransform="rotate(-22.54 117.54 122.86)" gradientUnits="userSpaceOnUse">
      <stop offset="0" stop-color="#fcb514"/>
      <stop offset=".99" stop-color="#fce842"/>
    </linearGradient>
    <path fill="url(#grd_12)" d="M110.41 112.25a2.4 2.4 0 1 0-4.45 1.84 2.4 2.4 0 0 0 4.45-1.84z"/>
    <linearGradient id="grd_13" x1="114.7" x2="127.74" y1="249.47" y2="232.08" gradientTransform="matrix(1.21 -.22 1.2 1.45 -206.46 -247.18)" gradientUnits="userSpaceOnUse">
      <stop offset="0" stop-color="#fdcf1f"/>
      <stop offset=".99" stop-color="#f37620"/>
    </linearGradient>
    <path fill="url(#grd_13)" d="M226.01 86.45c-2.33.3-6.44-15.38-6.14-16.83 1.19-5.68 4.88-9.85 6.51-15.27 6.95 13.45 15.79 30.01-.37 32.1z"/>
    <linearGradient id="grd_14" x1="112.82" x2="125.86" y1="369.31" y2="351.92" gradientTransform="matrix(.54 -.1 .54 .65 -32.16 -141.8)" gradientUnits="userSpaceOnUse">
      <stop offset="0" stop-color="#fcb514"/>
      <stop offset=".99" stop-color="#fce842"/>
    </linearGradient>
    <path fill="url(#grd_14)" d="M226.09 86.7c-1.05.13-2.92-6.9-2.78-7.55.52-2.54 2.17-4.41 2.89-6.83 3.14 6.03 7.14 13.47-.11 14.38z"/>
    <path fill="#FFE35F" d="M108.91 147.51a.96.96 0 1 0-1.78.74.96.96 0 0 0 1.78-.74zM114.24 156.11a1.3 1.3 0 0 0-1.7-.7 1.3 1.3 0 1 0 1.7.7zM131.02 128.18a1.23 1.23 0 1 0-2.26.94 1.23 1.23 0 0 0 2.26-.94zM87.43 54.68a1.3 1.3 0 0 0-2.41 1 1.3 1.3 0 0 0 1.7.7 1.3 1.3 0 0 0 .71-1.7zM47.13 52.52a.96.96 0 1 0-1.78.74.96.96 0 0 0 1.78-.74zM52.46 61.13a1.3 1.3 0 0 0-1.7-.7 1.3 1.3 0 1 0 1.7.7zM69.24 33.2a1.23 1.23 0 1 0-2.26.94 1.23 1.23 0 0 0 2.26-.94zM101.22 79.98a1.3 1.3 0 0 0-1.7-.7 1.3 1.3 0 1 0 1.7.7zM116.2 95.24a.88.88 0 0 0-1.14-.47.88.88 0 0 0-.47 1.14c.18.44.69.65 1.14.47.44-.19.65-.7.47-1.14zM214.38 68.78a.96.96 0 1 0-.52 1.26c.5-.2.73-.77.52-1.26zM219.72 77.38a1.3 1.3 0 0 0-1.7-.7 1.3 1.3 0 1 0 1.7.7zM234.7 92.64a.88.88 0 0 0-1.14-.47.88.88 0 0 0-.47 1.14c.18.44.69.65 1.14.47.44-.19.65-.7.47-1.14zM205.1 146.95a1.5 1.5 0 0 0-.52-2.06 1.5 1.5 0 0 0-2.05.55 1.5 1.5 0 0 0 .52 2.06 1.5 1.5 0 0 0 2.05-.55zM237.89 111.31a1 1 0 0 0-.35-1.37 1 1 0 0 0-1.37.37 1 1 0 0 0 .34 1.37c.49.27 1.1.11 1.38-.37zM233.42 137.09a1.4 1.4 0 0 0-.48-1.93 1.4 1.4 0 0 0-1.92.52 1.4 1.4 0 0 0 .48 1.93 1.4 1.4 0 0 0 1.92-.52z"/>
    <linearGradient id="grd_15" x1="136.56" x2="123.56" y1="241.18" y2="125.68" gradientUnits="userSpaceOnUse">
      <stop offset="0" stop-color="#fcb514"/>
      <stop offset=".99" stop-color="#fff256"/>
    </linearGradient>
    <path fill="url(#grd_15)" d="M114.95 133.46c-1.29-6.51-.92-16.32 4.36-21.28-1.95 10.03 1.68 15.48 7.56 22.65 5.89 7.17 9.77 16.91 10.16 26.2-.73-6.21-8.03-11.41-12.6-14.87-5.09-3.86-8.12-5.83-9.48-12.7z"/>
    <linearGradient id="grd_16" x1="344.43" x2="335.44" y1="134.28" y2="54.39" gradientTransform="matrix(-1.35 .22 .16 .99 513.7 -89.17)" gradientUnits="userSpaceOnUse">
      <stop offset="0" stop-color="#fcb514"/>
      <stop offset=".99" stop-color="#fff256"/>
    </linearGradient>
    <path fill="url(#grd_16)" d="M77.25 41.43c.49-4.64-.93-11.29-6.41-13.88 2.92 6.56.12 10.82-4.6 16.6-4.72 5.78-7.29 13.02-6.64 19.42 0-4.35 6.26-9 10.16-12.05 4.36-3.4 6.98-5.19 7.49-10.09z"/>
    <linearGradient id="grd_17" x1="120.98" x2="130.99" y1="30.35" y2="17" gradientTransform="matrix(.52 -1.2 1.25 .5 -52.31 311.83)" gradientUnits="userSpaceOnUse">
      <stop offset="0" stop-color="#fdcf1f"/>
      <stop offset=".99" stop-color="#f37620"/>
    </linearGradient>
    <path fill="url(#grd_17)" d="M45.79 182.2c-.81 1.68-7.78-7.86-8.16-9.17-1.48-5.11-1.48-10.62-2.69-15.81 7.32 6.06 16.44 13.34 10.85 24.98z"/>
    <linearGradient id="grd_18" x1="128.75" x2="138.76" y1="-117.48" y2="-130.83" gradientTransform="matrix(.23 -.54 .56 .22 83.42 276.83)" gradientUnits="userSpaceOnUse">
      <stop offset="0" stop-color="#fcb514"/>
      <stop offset=".99" stop-color="#fce842"/>
    </linearGradient>
    <path fill="url(#grd_18)" d="M45.9 182.34c-.36.75-3.5-3.51-3.67-4.09-.67-2.28-.66-4.74-1.21-7.06 3.29 2.69 7.4 5.95 4.88 11.15z"/>
    <linearGradient id="grd_19" x1="43.39" x2="-136.05" y1="206.79" y2="507.99" gradientTransform="rotate(6.07 1025.75 488.53)" gradientUnits="userSpaceOnUse">
      <stop offset="0" stop-color="#fcb514"/>
      <stop offset=".99" stop-color="#fce842"/>
    </linearGradient>
    <path fill="url(#grd_19)" d="M26.66 177.19a2.4 2.4 0 1 0-4.76-.52 2.4 2.4 0 0 0 4.76.52z"/>
    <path fill="#FFE35F" d="M26.48 148.83a.96.96 0 0 0-.86-1.06.96.96 0 0 0-1.06.86.96.96 0 0 0 .86 1.06c.52.06 1-.33 1.06-.86zM27.04 158.94a1.3 1.3 0 0 0-2.58-.28 1.3 1.3 0 0 0 2.58.28zM32.88 179.51a.87.87 0 0 0-.77-.96.87.87 0 0 0-.96.77c-.05.48.3.91.77.96.48.05.91-.3.96-.77z"/>
  </g>
  <g id="flame2">
    <linearGradient id="grd_20" x1="153.65" x2="175.64" y1="38.63" y2="13.33" gradientTransform="matrix(.56 .02 -.02 .75 24.38 4.2)" gradientUnits="userSpaceOnUse">
      <stop offset="0" stop-color="#fdcf1f"/>
      <stop offset=".99" stop-color="#f37620"/>
    </linearGradient>
    <path fill="url(#grd_20)" d="M126.32 27c-5.73-6.11-4.88-15.57-2.36-24.08-.25.86-2.49 2.2-3.09 2.8a28.62 28.62 0 0 0-2.85 3.31 40.32 40.32 0 0 0-4.55 8.26c-2.58 6.13-3.74 12.98-3.91 19.93.13-4.82 2.56-10.21 4.72-13.95 1.52-2.64 3.61-4.4 5.15-6.88-1.11 6.42 2.71 10.03 6.89 10.61z"/>
    <linearGradient id="grd_21" x1="12.76" x2="10.29" y1="142.83" y2="106.32" gradientTransform="matrix(.68 -.4 .38 .66 -37.93 43.72)" gradientUnits="userSpaceOnUse">
      <stop offset="0" stop-color="#fdcf1f"/>
      <stop offset=".99" stop-color="#f37620"/>
    </linearGradient>
    <path fill="url(#grd_21)" d="M7.95 107.35c-1.76.28-4.25 1.73-4.51 3.91 3.15-2.71 6.71-3.25 8.25 1.03 1.26 3.49 1.46 7.49 2.09 11.29 1.29-.78 2.94-7.56 3.23-8.97 1.25-6.07-3.14-8.19-9.06-7.26z"/>
    <linearGradient id="grd_22" x1="19.33" x2="14.85" y1="189.99" y2="123.87" gradientTransform="rotate(-14 11.82 144.22)" gradientUnits="userSpaceOnUse">
      <stop offset="0" stop-color="#fdcf1f"/>
      <stop offset=".99" stop-color="#f37620"/>
    </linearGradient>
    <path fill="url(#grd_22)" d="M18.69 126.54c-1.35-.45-3.06-.42-3.74 1.34 2.39.4 4.24 2.87 2.51 5.55-3.89 6.03-7.96-2.59-8.35-5.71-.2-1.55-1.33-9.62-1.25-11.91-1.46 1.13-3.08 8.02-4.05 12.53-1.35 6.27 1.27 14.3 5.08 18.95 3.54 4.32 11.31 6.9 17.08 5.88-4.38.77-2.66-15.33-2.85-17.73-.26-3.33-1.11-7.79-4.43-8.9z"/>
    <linearGradient id="grd_23" x1="20.59" x2="-8.83" y1="39.27" y2="-94.35" gradientTransform="matrix(.7 -.66 .32 .64 30.92 176.32)" gradientUnits="userSpaceOnUse">
      <stop offset="0" stop-color="#fcb514"/>
      <stop offset=".99" stop-color="#fce842"/>
    </linearGradient>
    <path fill="url(#grd_23)" d="M18.7 145.46c.33.13-.73-5.82-.46-5.66 1.88 1.12 3.25 13.11 5.02 12.8-8.46 1.49-13.63-10.46-16.1-17.98.93 2.8 8.91 9.78 11.54 10.84z"/>
    <linearGradient id="grd_24" x1="173.46" x2="189.69" y1="35.28" y2="9.61" gradientTransform="rotate(-17.52 184.75 29.51)" gradientUnits="userSpaceOnUse">
      <stop offset="0" stop-color="#fdcf1f"/>
      <stop offset=".99" stop-color="#f37620"/>
    </linearGradient>
    <path fill="url(#grd_24)" d="M189.01 23.02C185.6 15.53 178.8 7.83 170.44 6c2.92.64 6.75 5.76 8.13 8.13 2.16 3.71 1.25 7.35 2.15 11.4 1.15 5.19 3.7 11.54 7.82 16.35 3.33-9.82 1.07-17.55.47-18.86z"/>
    <linearGradient id="grd_25" x1="43.94" x2="60.18" y1="167.01" y2="141.35" gradientTransform="rotate(-63.37 88.93 137.36)" gradientUnits="userSpaceOnUse">
      <stop offset="0" stop-color="#fdcf1f"/>
      <stop offset=".99" stop-color="#f37620"/>
    </linearGradient>
    <path fill="url(#grd_25)" d="M93.5 170.59c-7.75-2.77-18.01-3.26-25.14 1.47 2.49-1.65 8.83-.83 11.5-.17 4.16 1.03 6.15 4.22 9.68 6.4 4.52 2.79 10.86 5.39 17.18 5.78-4.74-9.23-11.86-12.99-13.22-13.48z"/>
    <linearGradient id="grd_26" x1="197.14" x2="220.68" y1="65.17" y2="27.95" gradientTransform="rotate(11.42 201.74 52.45)" gradientUnits="userSpaceOnUse">
      <stop offset="0" stop-color="#fdcf1f"/>
      <stop offset=".99" stop-color="#f37620"/>
    </linearGradient>
    <path fill="url(#grd_26)" d="M221.98 29.89c-4.63-1.84-19.24 17.42-20.87 8.75a4.57 4.57 0 0 1-.05-1.06c-4.27-9.73-13.09 5.31-9.69 17.68 2.24 8.16 10.91 17.6 17.99 21.31-3.9-2.04 8.82-48.19 12.62-46.68z"/>
    <linearGradient id="grd_27" x1="490.69" x2="497.56" y1="174.53" y2="133.31" gradientTransform="matrix(.65 -.4 .53 .85 -178.2 177.48)" gradientUnits="userSpaceOnUse">
      <stop offset="0" stop-color="#fcb514"/>
      <stop offset=".99" stop-color="#fce842"/>
    </linearGradient>
    <path fill="url(#grd_27)" d="M203.44 61.44c.35.44 3.22-8.89 3.48-8.47 1.82 2.89.26 22.47 2.44 23.61-10.37-5.44-12.31-21.1-12.68-31.93.14 4.06 4.04 13.34 6.76 16.79z"/>
    <linearGradient id="grd_28" x1="95.87" x2="100.94" y1="90.56" y2="47.32" gradientUnits="userSpaceOnUse">
      <stop offset="0" stop-color="#fdcf1f"/>
      <stop offset=".99" stop-color="#f37620"/>
    </linearGradient>
    <path fill="url(#grd_28)" d="M87.74 46.12c-8.86 14.05 2.88 18.95 9.69 24.39 6.55 5.24 12.36 12.42 10.51 21.57 17.95-30.92-18.6-36.57-20.2-45.96z"/>
    <linearGradient id="grd_29" x1="91.35" x2="96.16" y1="46.13" y2="5.03" gradientUnits="userSpaceOnUse">
      <stop offset="0" stop-color="#fdcf1f"/>
      <stop offset=".99" stop-color="#f37620"/>
    </linearGradient>
    <path fill="url(#grd_29)" d="M101.94 6.04c-12.86-.94-17.4 18.42-15.17 25.71 1.55 5.06 7.95 11.51 11.95 15.35.55-5.44 1.11-12.68-.07-17.84-1.96-8.64-5.88-16.95 3.29-23.22z"/>
    <linearGradient id="grd_30" x1="125.59" x2="124.42" y1="43.21" y2="60.72" gradientTransform="rotate(-22.54 117.54 122.86)" gradientUnits="userSpaceOnUse">
      <stop offset="0" stop-color="#fcb514"/>
      <stop offset=".99" stop-color="#fce842"/>
    </linearGradient>
    <path fill="url(#grd_30)" d="M94.29 64.29c5.42 1.61 11.44-.94 14.11 4.82 2.66 5.75 3.55 19.01-.45 22.98 1.53-7.62-4.65-25.13-13.66-27.8z"/>
    <linearGradient id="grd_31" x1="236.11" x2="256.58" y1="68.32" y2="41.02" gradientTransform="matrix(.57 -.6 .39 .57 48.22 226.2)" gradientUnits="userSpaceOnUse">
      <stop offset="0" stop-color="#fdcf1f"/>
      <stop offset=".99" stop-color="#f37620"/>
    </linearGradient>
    <path fill="url(#grd_31)" d="M207.41 122.38c-2.2.97-9.26-4.75-1.51-14.93 5.33-7.01 7.29-13.75 7.27-20.6 6.71 14.38 11.31 27.99-5.76 35.53z"/>
    <linearGradient id="grd_32" x1="388.5" x2="411.72" y1="-32.78" y2="-63.75" gradientTransform="matrix(.26 -.27 .17 .26 115.84 235.47)" gradientUnits="userSpaceOnUse">
      <stop offset="0" stop-color="#fcb514"/>
      <stop offset=".99" stop-color="#fce842"/>
    </linearGradient>
    <path fill="url(#grd_32)" d="M207.43 122.6c-.77.75-.91-5.89-.7-6.68.81-3.1 6.78-9.04 7.71-12.13 1.21 4.81-1.67 13.58-7.01 18.81z"/>
    <linearGradient id="grd_33" x1="114.37" x2="-112.95" y1="-69.35" y2="312.22" gradientTransform="rotate(-22.54 117.54 122.86)" gradientUnits="userSpaceOnUse">
      <stop offset="0" stop-color="#fcb514"/>
      <stop offset=".99" stop-color="#fce842"/>
    </linearGradient>
    <path fill="url(#grd_33)" d="M27.26 59.16a3.05 3.05 0 0 0-5.63 2.33 3.04 3.04 0 0 0 3.98 1.64 3.03 3.03 0 0 0 1.65-3.97z"/>
    <linearGradient id="grd_34" x1="226.34" x2="84.36" y1="-135.79" y2="102.53" gradientTransform="rotate(-22.54 117.54 122.86)" gradientUnits="userSpaceOnUse">
      <stop offset="0" stop-color="#fcb514"/>
      <stop offset=".99" stop-color="#fce842"/>
    </linearGradient>
    <path fill="url(#grd_34)" d="M94.59 23.04c-.46-.97-1.73-1.42-2.83-1.02-1.11.4-1.63 1.51-1.17 2.48.46.97 1.73 1.42 2.83 1.02 1.1-.4 1.63-1.51 1.17-2.48z"/>
    <linearGradient id="grd_35" x1="162.65" x2="-16.84" y1="5.31" y2="306.59" gradientTransform="rotate(-22.54 117.54 122.86)" gradientUnits="userSpaceOnUse">
      <stop offset="0" stop-color="#fcb514"/>
      <stop offset=".99" stop-color="#fce842"/>
    </linearGradient>
    <path fill="url(#grd_35)" d="M103.35 85.92a2.4 2.4 0 1 0-4.45 1.84 2.4 2.4 0 0 0 4.45-1.84z"/>
    <linearGradient id="grd_36" x1="114.31" x2="127.49" y1="250.39" y2="232.81" gradientTransform="matrix(1.15 -.39 .9 1.28 -131.56 -191.02)" gradientUnits="userSpaceOnUse">
      <stop offset="0" stop-color="#fdcf1f"/>
      <stop offset=".99" stop-color="#f37620"/>
    </linearGradient>
    <path fill="url(#grd_36)" d="M224.61 82.98c-2.2.62-9.75-2.38-3.36-15.92 2.68-5.68 5.88-10.49 8.15-16.12 4.57 12.45 10.47 27.72-4.79 32.04z"/>
    <linearGradient id="grd_37" x1="113.97" x2="127.02" y1="372.02" y2="354.63" gradientTransform="matrix(.52 -.17 .4 .57 15.32 -110.12)" gradientUnits="userSpaceOnUse">
      <stop offset="0" stop-color="#fcb514"/>
      <stop offset=".99" stop-color="#fce842"/>
    </linearGradient>
    <path fill="url(#grd_37)" d="M224.65 83.22c-.99.27-1.75-6.48-1.54-7.14.83-2.6 2.62-4.69 3.63-7.21 2.07 5.58 4.75 12.44-2.09 14.35z"/>
    <linearGradient id="grd_38" x1="65.15" x2="72.7" y1="275.48" y2="265.41" gradientTransform="matrix(1.27 .7 -.28 1.97 174.53 -439.05)" gradientUnits="userSpaceOnUse">
      <stop offset="0" stop-color="#fdcf1f"/>
      <stop offset=".99" stop-color="#f37620"/>
    </linearGradient>
    <path fill="url(#grd_38)" d="M181.62 145.96c-1.34-.83-3.56-6.28 5.75-9.9 3.91-1.52 7.66-2.32 11.34-4.03-3.57 8.76-7.8 19.65-17.09 13.93z"/>
    <linearGradient id="grd_39" x1="3.85" x2="11.32" y1="428.9" y2="418.94" gradientTransform="matrix(.57 .32 -.12 .89 231.99 -233.4)" gradientUnits="userSpaceOnUse">
      <stop offset="0" stop-color="#fcb514"/>
      <stop offset=".99" stop-color="#fce842"/>
    </linearGradient>
    <path fill="url(#grd_39)" d="M181.53 146.1c-.6-.37 2.15-4.23 2.56-4.46 1.6-.9 3.42-1.04 5.06-1.81-1.58 3.94-3.47 8.85-7.62 6.27z"/>
    <path fill="#FFE35F" d="M109.88 141.66a.96.96 0 1 0-1.78.74.96.96 0 0 0 1.78-.74zM122.42 142.83a1.3 1.3 0 0 0-1.7-.7 1.3 1.3 0 1 0 1.7.7zM122.35 118.31a1.23 1.23 0 1 0-2.26.94 1.23 1.23 0 0 0 2.26-.94zM87.43 36.73a1.3 1.3 0 0 0-2.41 1 1.3 1.3 0 0 0 1.7.7 1.3 1.3 0 0 0 .71-1.7zM38.9 53a.96.96 0 1 0-1.78.74.96.96 0 0 0 1.78-.74zM52.46 61.13a1.3 1.3 0 0 0-1.7-.7 1.3 1.3 0 1 0 1.7.7zM53.81 27.09c-.6-.3-1.34-.05-1.64.55a1.22 1.22 0 1 0 2.19 1.09 1.2 1.2 0 0 0-.55-1.64zM108.25 52.4a1.3 1.3 0 0 0-1.7-.7 1.3 1.3 0 1 0 1.7.7zM119.6 91.58a.88.88 0 0 0-1.14-.47.88.88 0 0 0-.47 1.14c.18.44.69.65 1.14.47a.86.86 0 0 0 .47-1.14zM218.11 53.98a.96.96 0 1 0-.52 1.26c.5-.2.73-.77.52-1.26zM212.82 69.9a1.3 1.3 0 0 0-1.7-.7 1.3 1.3 0 1 0 1.7.7zM228.27 92.45a.88.88 0 0 0-1.14-.47.88.88 0 0 0-.47 1.14c.18.44.69.65 1.14.47a.88.88 0 0 0 .47-1.14zM191.6 123.56a1.5 1.5 0 0 0-.52-2.06 1.5 1.5 0 0 0-2.05.55 1.5 1.5 0 0 0 .52 2.06 1.5 1.5 0 0 0 2.05-.55zM233.17 113.93a1 1 0 0 0-.35-1.37 1 1 0 0 0-1.37.37 1 1 0 0 0 .34 1.37c.48.28 1.1.11 1.38-.37zM224.28 137.47a1.4 1.4 0 0 0-.48-1.93 1.4 1.4 0 0 0-1.92.52 1.4 1.4 0 0 0 .48 1.93 1.4 1.4 0 0 0 1.92-.52z"/>
    <linearGradient id="grd_40" x1="112.16" x2="99.33" y1="221.93" y2="107.9" gradientTransform="matrix(-1 0 0 1 213.35 0)" gradientUnits="userSpaceOnUse">
      <stop offset="0" stop-color="#fcb514"/>
      <stop offset=".99" stop-color="#fff256"/>
    </linearGradient>
    <path fill="url(#grd_40)" d="M119.15 115.63c.87-6.51.62-16.32-2.94-21.28 1.32 10.03-1.13 15.48-5.11 22.65-3.98 7.17-6.6 16.91-6.86 26.2.49-6.21 5.42-11.41 8.51-14.87 3.44-3.86 5.49-5.83 6.4-12.7z"/>
    <linearGradient id="grd_41" x1="348.71" x2="338.47" y1="132.31" y2="41.36" gradientTransform="matrix(-.88 1.05 .77 .64 320.04 -355)" gradientUnits="userSpaceOnUse">
      <stop offset="0" stop-color="#fcb514"/>
      <stop offset=".99" stop-color="#fff256"/>
    </linearGradient>
    <path fill="url(#grd_41)" d="M65.26 28.04c-2.67-3.82-7.38-15.56-13.22-13.92 6.51 3.03 6.47 15.74 6.7 23.2.23 7.46 3.03 14.61 7.73 19.01-2.85-3.28-1.18-10.9-.24-15.76 1.06-5.42 1.86-8.49-.97-12.53z"/>
    <linearGradient id="grd_42" x1="132.5" x2="142.51" y1="23.88" y2="10.53" gradientTransform="matrix(1.03 -.8 .87 1.03 -108.7 250.02)" gradientUnits="userSpaceOnUse">
      <stop offset="0" stop-color="#fdcf1f"/>
      <stop offset=".99" stop-color="#f37620"/>
    </linearGradient>
    <path fill="url(#grd_42)" d="M45.55 166.87c-1.51 1.09-3.1-10.62-2.81-11.95 1.13-5.2 3.77-10.04 5.17-15.19 3.55 8.82 8.1 19.57-2.36 27.14z"/>
    <linearGradient id="grd_43" x1="154.55" x2="164.56" y1="-131.95" y2="-145.3" gradientTransform="matrix(.46 -.36 .4 .46 27.3 283.95)" gradientUnits="userSpaceOnUse">
      <stop offset="0" stop-color="#fcb514"/>
      <stop offset=".99" stop-color="#fce842"/>
    </linearGradient>
    <path fill="url(#grd_43)" d="M45.58 167.04c-.68.49-1.41-4.76-1.28-5.35.5-2.32 1.68-4.49 2.3-6.79 1.61 3.95 3.67 8.77-1.02 12.14z"/>
    <linearGradient id="grd_44" x1="25.38" x2="-154.05" y1="192.07" y2="493.27" gradientTransform="rotate(6.07 1025.75 488.53)" gradientUnits="userSpaceOnUse">
      <stop offset="0" stop-color="#fcb514"/>
      <stop offset=".99" stop-color="#fce842"/>
    </linearGradient>
    <path fill="url(#grd_44)" d="M10.32 160.65a2.4 2.4 0 1 0-4.76-.52 2.4 2.4 0 0 0 4.76.52z"/>
    <path fill="#FFE35F" d="M21.01 121.4a.96.96 0 0 0-.86-1.06.96.96 0 0 0-1.06.86.96.96 0 0 0 .86 1.06.95.95 0 0 0 1.06-.86zM28.79 148.66a1.3 1.3 0 0 0-2.58-.28 1.3 1.3 0 0 0 2.58.28zM28.36 167.99a.87.87 0 0 0-.77-.96.87.87 0 0 0-.96.77c-.05.48.3.91.77.96.48.05.91-.29.96-.77z"/>
  </g>
  <g id="flame3">
    <linearGradient id="grd_45" x1="17.7" x2="12.83" y1="187.61" y2="115.71" gradientUnits="userSpaceOnUse">
      <stop offset="0" stop-color="#fdcf1f"/>
      <stop offset=".99" stop-color="#f37620"/>
    </linearGradient>
    <path fill="url(#grd_45)" d="M9.1 127.73a651.5 651.5 0 0 1-.49-20.62c-1.45 1.13-11.61 29.66.28 40.19 4.18 3.7 11.31 4.31 17.08 3.29-2.13.38-15.63-8.56-16.87-22.86z"/>
    <linearGradient id="grd_46" x1="14" x2="9.95" y1="137.56" y2="77.76" gradientUnits="userSpaceOnUse">
      <stop offset="0" stop-color="#fdcf1f"/>
      <stop offset=".99" stop-color="#f37620"/>
    </linearGradient>
    <path fill="url(#grd_46)" d="M18.37 107.08c-5.54-14.02-3.66-17.44-2.98-19.65 2.51-8.2 1.15-14.36-5.13-16.44-2.55-.84-5.78-.79-7.07 2.51 4.51.74 6.48 4.68 4.74 10.38-4.23 13.8 2.92 18.29 10.44 23.2z"/>
    <linearGradient id="grd_47" x1="16.39" x2="-10.27" y1="25.98" y2="-95.06" gradientTransform="matrix(.7 -.66 .32 .64 30.92 176.32)" gradientUnits="userSpaceOnUse">
      <stop offset="0" stop-color="#fcb514"/>
      <stop offset=".99" stop-color="#fce842"/>
    </linearGradient>
    <path fill="url(#grd_47)" d="M20.05 149.33c-8.46 1.49-14.96-8.84-12.88-18.47.92 2.81 3.96 12.87 12.88 18.47z"/>
    <linearGradient id="grd_48" x1="133.53" x2="149.76" y1="14.37" y2="-11.3" gradientTransform="matrix(-.88 -.48 -.28 .52 260.83 88.8)" gradientUnits="userSpaceOnUse">
      <stop offset="0" stop-color="#fdcf1f"/>
      <stop offset=".99" stop-color="#f37620"/>
    </linearGradient>
    <path fill="url(#grd_48)" d="M127.23 18.74c3.17-3.74 9.45-6.6 17.17-5.26-2.7-.47-6.24 1.64-7.52 2.74-2 1.71-1.17 4.3-2.01 6.61a14.49 14.49 0 0 1-7.25 8.06c-3.05-7.26-.95-11.5-.39-12.15z"/>
    <linearGradient id="grd_49" x1="126.9" x2="150.44" y1="-11.88" y2="-49.1" gradientTransform="matrix(.48 .1 -.08 .4 95.5 7.68)" gradientUnits="userSpaceOnUse">
      <stop offset="0" stop-color="#fdcf1f"/>
      <stop offset=".99" stop-color="#f37620"/>
    </linearGradient>
    <path fill="url(#grd_49)" d="M170.37 1.42c-2.29-.84-9.13 6.96-10.06 3.33a2.12 2.12 0 0 1-.04-.44c-2.23-4.11-6.31 2.01-4.46 7.21 1.22 3.43 5.59 7.49 9.11 9.14-1.94-.91 3.57-19.92 5.45-19.24z"/>
    <linearGradient id="grd_50" x1="63.84" x2="68.91" y1="55.45" y2="12.21" gradientUnits="userSpaceOnUse">
      <stop offset="0" stop-color="#fdcf1f"/>
      <stop offset=".99" stop-color="#f37620"/>
    </linearGradient>
    <path fill="url(#grd_50)" d="M55.71 11.01c-8.86 14.05 2.88 18.95 9.69 24.39 6.55 5.24 12.36 12.42 10.51 21.57 17.95-30.93-18.6-36.57-20.2-45.96z"/>
    <linearGradient id="grd_51" x1="98.96" x2="102.78" y1="36.26" y2="3.7" gradientUnits="userSpaceOnUse">
      <stop offset="0" stop-color="#fdcf1f"/>
      <stop offset=".99" stop-color="#f37620"/>
    </linearGradient>
    <path fill="url(#grd_51)" d="M107.35 4.49c-10.19-.74-13.78 14.6-12.02 20.37 1.23 4.01 6.3 9.12 9.47 12.16.43-4.31.88-10.05-.05-14.13-1.56-6.85-4.66-13.42 2.6-18.4z"/>
    <linearGradient id="grd_52" x1="246.38" x2="266.85" y1="56" y2="28.7" gradientTransform="matrix(.74 -.96 .31 .73 14.15 298.98)" gradientUnits="userSpaceOnUse">
      <stop offset="0" stop-color="#fdcf1f"/>
      <stop offset=".99" stop-color="#f37620"/>
    </linearGradient>
    <path fill="url(#grd_52)" d="M211.33 103.27c-2.59 1.79-9.18-4.92 1.22-20.76 7.15-10.9 10.58-20.77 11.88-30.43 4.54 18.99 6.94 37.3-13.1 51.19z"/>
    <linearGradient id="grd_53" x1="411.54" x2="434.76" y1="-60.24" y2="-91.2" gradientTransform="matrix(.33 -.43 .14 .33 86.05 299.08)" gradientUnits="userSpaceOnUse">
      <stop offset="0" stop-color="#fcb514"/>
      <stop offset=".99" stop-color="#fce842"/>
    </linearGradient>
    <path fill="url(#grd_53)" d="M211.3 103.58c-.98 1.21.14-8.13.52-9.28 1.48-4.53 9.12-14.04 10.73-18.58.4 6.54-4.42 19.46-11.25 27.86z"/>
    <linearGradient id="grd_54" x1="182.4" x2="218.43" y1="-541.57" y2="-589.62" gradientTransform="matrix(-.32 -.2 -.1 .3 77.45 240.7)" gradientUnits="userSpaceOnUse">
      <stop offset="0" stop-color="#fcb514"/>
      <stop offset=".99" stop-color="#fce842"/>
    </linearGradient>
    <path fill="url(#grd_54)" d="M76.75 43.96c2.72 6.9 4.8-6.73-3.36-11.38-9.55-5.44-14.23-9.1-15.95-11.84-1.41 6.79 15.42 13.39 19.31 23.22z"/>
    <linearGradient id="grd_55" x1="103.48" x2="-123.84" y1="-82.45" y2="299.12" gradientTransform="rotate(-22.54 117.54 122.86)" gradientUnits="userSpaceOnUse">
      <stop offset="0" stop-color="#fcb514"/>
      <stop offset=".99" stop-color="#fce842"/>
    </linearGradient>
    <path fill="url(#grd_55)" d="M12.18 51.23a3.05 3.05 0 0 0-5.63 2.33 3.04 3.04 0 0 0 3.98 1.64 3.03 3.03 0 0 0 1.65-3.97z"/>
    <linearGradient id="56" x1="234.65" x2="92.67" y1="-105.97" y2="132.36" gradientTransform="rotate(-22.54 117.54 122.86)" gradientUnits="userSpaceOnUse">
      <stop offset="0" stop-color="#fcb514"/>
      <stop offset=".99" stop-color="#fce842"/>
    </linearGradient>
    <path fill="url(#56)" d="M113.7 47.4c-.46-.97-1.73-1.42-2.83-1.02-1.11.4-1.63 1.51-1.17 2.48.46.97 1.73 1.42 2.83 1.02 1.1-.4 1.63-1.51 1.17-2.48z"/>
    <linearGradient id="grd_57" x1="230.02" x2="50.54" y1="-32.09" y2="269.18" gradientTransform="rotate(-22.54 117.54 122.86)" gradientUnits="userSpaceOnUse">
      <stop offset="0" stop-color="#fcb514"/>
      <stop offset=".99" stop-color="#fce842"/>
    </linearGradient>
    <path fill="url(#grd_57)" d="M151.24 25.55a2.4 2.4 0 1 0-4.44 1.85 2.4 2.4 0 0 0 4.44-1.85z"/>
    <linearGradient id="grd_58" x1="109.82" x2="123.01" y1="219.65" y2="202.07" gradientTransform="matrix(1.15 -.39 .9 1.28 -131.56 -191.02)" gradientUnits="userSpaceOnUse">
      <stop offset="0" stop-color="#fdcf1f"/>
      <stop offset=".99" stop-color="#f37620"/>
    </linearGradient>
    <path fill="url(#grd_58)" d="M191.61 45.39c-2.2.62-9.75-2.38-3.36-15.92 2.68-5.68 5.88-10.49 8.15-16.12 4.57 12.44 10.47 27.71-4.79 32.04z"/>
    <path fill="#FFE35F" d="M138.76 141.87a.96.96 0 1 0-1.78.74.96.96 0 0 0 1.78-.74zM125.95 123.77a1.3 1.3 0 0 0-1.7-.7 1.3 1.3 0 1 0 1.7.7zM94.07 59.86a1.23 1.23 0 1 0-2.26.94 1.23 1.23 0 0 0 2.26-.94zM86.13 20.25a1.3 1.3 0 0 0-2.41 1 1.3 1.3 0 0 0 2.41-1zM37.93 60.44a.96.96 0 1 0-1.78.74.96.96 0 0 0 1.78-.74zM52.46 61.13a1.3 1.3 0 0 0-1.7-.7 1.3 1.3 0 1 0 1.7.7zM53.81 27.09c-.6-.3-1.34-.05-1.64.55a1.22 1.22 0 1 0 2.19 1.09 1.2 1.2 0 0 0-.55-1.64zM113.21 10.51a1.3 1.3 0 0 0-1.7-.7 1.3 1.3 0 1 0 1.7.7zM111.06 85.87a.88.88 0 0 0-1.14-.47.88.88 0 0 0-.47 1.14c.18.44.69.65 1.14.47a.86.86 0 0 0 .47-1.14zM230.81 42.01a.96.96 0 1 0-1.78.74.96.96 0 0 0 1.78-.74zM210.53 71.3a1.3 1.3 0 0 0-1.7-.7 1.3 1.3 0 1 0 1.7.7zM235.82 92.45a.88.88 0 0 0-1.14-.47.88.88 0 0 0-.47 1.14c.18.44.69.65 1.14.47a.88.88 0 0 0 .47-1.14zM192.02 120.75a1.5 1.5 0 0 0-.52-2.06 1.5 1.5 0 0 0-2.05.55 1.5 1.5 0 0 0 .52 2.06 1.5 1.5 0 0 0 2.05-.55zM230.77 117.32a1 1 0 0 0-.35-1.37 1 1 0 0 0-1.37.37 1 1 0 0 0 .34 1.37c.49.28 1.1.11 1.38-.37zM232.52 139.2a1.4 1.4 0 0 0-.48-1.93 1.4 1.4 0 0 0-1.92.52 1.4 1.4 0 0 0 .48 1.93c.66.38 1.52.15 1.92-.52z"/>
    <linearGradient id="grd_59" x1="119.88" x2="107.04" y1="229.61" y2="115.59" gradientTransform="matrix(-1.03 .66 .6 .95 145.84 -82.97)" gradientUnits="userSpaceOnUse">
      <stop offset="0" stop-color="#fdcf1f"/>
      <stop offset=".99" stop-color="#f37620"/>
    </linearGradient>
    <path fill="url(#grd_59)" d="M115.82 100.57c-3.04-6.73-9.23-15.86-15.88-18.21 7.42 8.64 8.2 15.4 8.45 24.79.26 9.4 3.45 20.33 8.8 29.3-3.25-6.2-1.33-14.36-.26-19.66 1.19-5.91 2.11-9.12-1.11-16.22z"/>
    <linearGradient id="grd_60" x1="366.38" x2="354.77" y1="101.29" y2="-1.9" gradientTransform="matrix(-.5 1.02 .79 .38 186.4 -333.77)" gradientUnits="userSpaceOnUse">
      <stop offset="0" stop-color="#fcb514"/>
      <stop offset=".99" stop-color="#fff256"/>
    </linearGradient>
    <path fill="url(#grd_60)" d="M21.1 24.28c-2.93-2.81-8.22-7.65-17.95-7.12 6.11 1.26 13.8 8.17 15.11 19.65.71 6.28 5.85 11.33 10.76 14.05-3.12-2.15-3.46-8.66-3.78-12.79-.35-4.6-1.17-10.94-4.14-13.79z"/>
    <linearGradient id="grd_61" x1="144.9" x2="154.89" y1="24.95" y2="11.63" gradientTransform="matrix(-1.3 .04 0 1.35 227.32 117.36)" gradientUnits="userSpaceOnUse">
      <stop offset="0" stop-color="#fdcf1f"/>
      <stop offset=".99" stop-color="#f37620"/>
    </linearGradient>
    <path fill="url(#grd_61)" d="M39.93 153.67c-2.54-3.52-2.09-4.72-6.36-9.94-3.37-4.12-8.45-6.35-12.82-9.4 2.92 9.05 6.3 20.22 19.18 19.34z"/>
    <linearGradient id="grd_62" x1="182.56" x2="193.39" y1="-129.22" y2="-143.67" gradientTransform="matrix(-.58 .02 0 .6 144.5 230.45)" gradientUnits="userSpaceOnUse">
      <stop offset="0" stop-color="#fcb514"/>
      <stop offset=".99" stop-color="#fce842"/>
    </linearGradient>
    <path fill="url(#grd_62)" d="M40.02 153.83c.83-.06-3.81-5.02-4.29-5.39-1.87-1.47-4.43-1.5-6.38-2.87 1.3 4.07 4.91 8.67 10.67 8.26z"/>
    <linearGradient id="grd_63" x1="49.52" x2="-129.92" y1="193.73" y2="494.93" gradientTransform="rotate(6.07 1025.75 488.53)" gradientUnits="userSpaceOnUse">
      <stop offset="0" stop-color="#fcb514"/>
      <stop offset=".99" stop-color="#fce842"/>
    </linearGradient>
    <path fill="url(#grd_63)" d="M34.15 164.86a2.4 2.4 0 1 0-4.76-.52 2.4 2.4 0 0 0 4.76.52z"/>
    <path fill="#FFE35F" d="M11.3 75.82a.96.96 0 0 0-.86-1.06.96.96 0 0 0-1.06.86.96.96 0 0 0 .86 1.06c.52.05 1-.33 1.06-.86zM14.71 121.64a1.3 1.3 0 0 0-2.58-.28 1.3 1.3 0 0 0 2.58.28zM7.64 160.2a.87.87 0 0 0-.77-.96.87.87 0 0 0-.96.77c-.05.48.3.91.77.96.48.05.91-.29.96-.77z"/>
    <linearGradient id="grd_64" x1="33.25" x2="28.33" y1="87.36" y2="14.6" gradientTransform="matrix(-.1 -.97 .83 .05 38.7 206.06)" gradientUnits="userSpaceOnUse">
      <stop offset="0" stop-color="#fdcf1f"/>
      <stop offset=".99" stop-color="#f37620"/>
    </linearGradient>
    <path fill="url(#grd_64)" d="M65.35 173.12c1.6.72 10.84 7.38 12.57 4.45-2.27 3.87-7.81 7.7-12.3 8.34-4.84.7-10.46-1.25-14.46-3.51-3.9-2.21-5.3-6.42-11.16-7.57 5.1-1.3 8.58 2.22 13.44 4.13 2.16.85 9.62 1.38 7.79-3.09a4.74 4.74 0 0 0-3.71-3.15c2.37-1.64 5.6-.61 7.83.4z"/>
    <linearGradient id="grd_65" x1="37.79" x2="21.64" y1="88.09" y2="14.76" gradientTransform="matrix(-.1 -.97 .83 .05 38.7 206.06)" gradientUnits="userSpaceOnUse">
      <stop offset="0" stop-color="#fcb514"/>
      <stop offset=".99" stop-color="#fce842"/>
    </linearGradient>
    <path fill="url(#grd_65)" d="M67.32 180.54c.25-.16.5-.29.73-.4 1.65-.75 7.08-.14 7.78-1.33-4.19 4.12-9.25 6.15-15.21 5.03 2.23.41 4.71-2.07 6.7-3.3z"/>
    <linearGradient id="grd_66" x1="79.81" x2="73.45" y1="244.67" y2="150.72" gradientTransform="matrix(-.4 -.88 -.7 .46 352.24 120.38)" gradientUnits="userSpaceOnUse">
      <stop offset="0" stop-color="#fdcf1f"/>
      <stop offset=".99" stop-color="#f37620"/>
    </linearGradient>
    <path fill="url(#grd_66)" d="M194.27 129.52c-1.31 1.85-7.24 15.31-11.08 13.17 5.06 2.82 13.72 3.46 19.15 1.24 5.85-2.4 10.83-8.23 13.8-13.38 2.9-5.02 1.7-10.61 7.47-15.73-6.53 1.89-8.1 8.08-12.26 13.39-1.84 2.35-9.8 7.83-10.7 1.66a6.11 6.11 0 0 1 2.06-5.94c-3.71-.26-6.61 3-8.44 5.59z"/>
    <linearGradient id="grd_67" x1="85.66" x2="64.81" y1="245.61" y2="150.93" gradientTransform="matrix(-.4 -.88 -.7 .46 352.24 120.38)" gradientUnits="userSpaceOnUse">
      <stop offset="0" stop-color="#fcb514"/>
      <stop offset=".99" stop-color="#fce842"/>
    </linearGradient>
    <path fill="url(#grd_67)" d="M196.93 139.06a9.4 9.4 0 0 0-1.08.03c-2.33.24-7.97 4.48-9.52 3.61 7.36 1.84 14.32.79 20.22-4.36-2.22 1.94-6.6.79-9.62.72z"/>
    <linearGradient id="grd_68" x1="172.97" x2="162.16" y1="166.21" y2="117.12" gradientTransform="matrix(-1.4 -.22 -.03 1.25 430.54 -94.23)" gradientUnits="userSpaceOnUse">
      <stop offset="0" stop-color="#fcb514"/>
      <stop offset=".99" stop-color="#fce842"/>
    </linearGradient>
    <path fill="url(#grd_68)" d="M188.6 38.23c-1.55 6.9 10.6 6.82 8.3-10.66.45 4.36-6.77 3.86-8.3 10.66z"/>
    <linearGradient id="grd_69" x1="209.97" x2="218.44" y1="109.94" y2="37.59" gradientTransform="matrix(-.92 -.38 -.38 .92 435.52 54.44)" gradientUnits="userSpaceOnUse">
      <stop offset="0" stop-color="#fdcf1f"/>
      <stop offset=".99" stop-color="#f37620"/>
    </linearGradient>
    <path fill="url(#grd_69)" d="M208.51 35.54c-9.44 12.1-22.25 25.77-7.26 40.66-1.84-9.15 4.56-15.66 10.51-21.57 5.32-5.28 9.96-11.68 11.93-19.05 2.45-9.15-2.53-33.46-16.65-32.29 11.2 8.77 9.12 22.45 1.47 32.25z"/>
    <linearGradient id="grd_70" x1="215.5" x2="214.52" y1="70.32" y2="84.97" gradientTransform="matrix(-.92 -.38 -.38 .92 435.52 54.44)" gradientUnits="userSpaceOnUse">
      <stop offset="0" stop-color="#fcb514"/>
      <stop offset=".99" stop-color="#fce842"/>
    </linearGradient>
    <path fill="url(#grd_70)" d="M210.11 52.07c-5.42 1.61-11.66 2.64-14.32 8.4-2.66 5.75 1.47 11.77 5.46 15.73-1.53-7.61-.14-21.46 8.86-24.13z"/>
    <path fill="#FFE35F" d="M192.79 74.54a.88.88 0 0 1 1.14-.47c.44.18.65.69.47 1.14a.88.88 0 0 1-1.14.47.87.87 0 0 1-.47-1.14z"/>
  </g>
  <g id="flame4">
    <linearGradient id="grd_71" x1="134.76" x2="148.21" y1="65.08" y2="49.61" gradientTransform="rotate(-29.03 119.92 106.8)" gradientUnits="userSpaceOnUse">
      <stop offset="0" stop-color="#fdcf1f"/>
      <stop offset=".99" stop-color="#f37620"/>
    </linearGradient>
    <path fill="url(#grd_71)" d="M124.37 48.25c-7.97-1.14-11.17-8.23-12.42-15.57.13.74-1.41 2.9-1.72 3.66a26.3 26.3 0 0 0-1.28 3.88c-.65 2.7-.86 5.51-.77 8.28.17 5.71 1.99 11.14 4.77 16.1-1.91-3.45 7.25-14.48 11.42-16.35z"/>
    <linearGradient id="grd_72" x1="7.49" x2="-.56" y1="42.56" y2="-76.4" gradientTransform="matrix(.92 -.26 -.02 .71 12.6 181.35)" gradientUnits="userSpaceOnUse">
      <stop offset="0" stop-color="#fdcf1f"/>
      <stop offset=".99" stop-color="#f37620"/>
    </linearGradient>
    <path fill="url(#grd_72)" d="M24.01 149.33c-1.04 2.38-10.86 16.85-6.3 18.34-6.02-1.97-12.11-8.37-13.29-14.29-1.27-6.37 1.48-14.56 4.79-20.65 3.23-5.94 8.42-11.22 11.13-17.33 2.61-5.89-3.04 12.29-5.77 19.44-1.21 3.17-1.72 13.46 5.06 9.68 3.01-1.67 3.62-7.06 4.68-5.94 2.61 2.76 1.15 7.43-.3 10.75z"/>
    <linearGradient id="grd_73" x1="14.82" x2="-11.1" y1="40.89" y2="-76.84" gradientTransform="matrix(.96 0 -.22 .68 5.85 181.56)" gradientUnits="userSpaceOnUse">
      <stop offset="0" stop-color="#fcb514"/>
      <stop offset=".99" stop-color="#fce842"/>
    </linearGradient>
    <path fill="url(#grd_73)" d="M14.38 154.2c.16.36.29.7.38 1.02.62 2.28-2.16 9.34-.54 10.43-7.68-5.2-6.45-13.06-2.71-20.75-1.41 2.88 1.62 6.5 2.87 9.3z"/>
    <linearGradient id="grd_74" x1="489.82" x2="518.44" y1="119.99" y2="74.74" gradientTransform="matrix(.74 -.19 .25 .97 -197.15 57.48)" gradientUnits="userSpaceOnUse">
      <stop offset="0" stop-color="#fdcf1f"/>
      <stop offset=".99" stop-color="#f37620"/>
    </linearGradient>
    <path fill="url(#grd_74)" d="M207.07 64.48c-.84 1.2-1.43 2.2-1.62 2.71-.98 2.67-4.44 13.99-1.94 16.52-4.55-4.59-8.55-13.98-8.66-20.82-.13-7.37 3.21-15.04 6.71-20.22 2.35-3.47 5.66-5.35 6.88-9.51.78-2.67 3.87 6.13.74 13.85-.65 1.6-2.56 3.74-2.76 5.45-.86 7.07 3.48 7.98.65 12.02z"/>
    <linearGradient id="grd_75" x1="488.22" x2="493.06" y1="162.94" y2="133.9" gradientTransform="matrix(.74 -.19 .25 .97 -197.15 57.48)" gradientUnits="userSpaceOnUse">
      <stop offset="0" stop-color="#fcb514"/>
      <stop offset=".99" stop-color="#fce842"/>
    </linearGradient>
    <path fill="url(#grd_75)" d="M202.66 70.6c.16.42.3.83.4 1.21.7 2.68-.93 10.49.47 11.9-6.67-6.72-6.36-15.62-4-24.06-.89 3.17 1.87 7.63 3.13 10.95z"/>
    <linearGradient id="grd_76" x1="120.86" x2="127.96" y1="95.26" y2="34.66" gradientTransform="rotate(-22.54 117.54 122.86)" gradientUnits="userSpaceOnUse">
      <stop offset="0" stop-color="#fdcf1f"/>
      <stop offset=".99" stop-color="#f37620"/>
    </linearGradient>
    <path fill="url(#grd_76)" d="M107.74 96.9c1.84-9.15-5.54-14.81-10.51-21.57-6.8-9.24-8.68-35.74-4.09-37.36-1.32 22.36 36.78 42.26 14.6 58.93z"/>
    <linearGradient id="grd_77" x1="125.9" x2="124.92" y1="55.55" y2="70.2" gradientTransform="rotate(-22.54 117.54 122.86)" gradientUnits="userSpaceOnUse">
      <stop offset="0" stop-color="#fcb514"/>
      <stop offset=".99" stop-color="#fce842"/>
    </linearGradient>
    <path fill="url(#grd_77)" d="M98.88 72.77c5.42 1.61 11.66 2.64 14.32 8.4 2.66 5.75-1.47 11.77-5.46 15.73 1.53-7.61.14-21.46-8.86-24.13z"/>
    <linearGradient id="grd_78" x1="217.84" x2="238.35" y1="82.79" y2="55.45" gradientTransform="matrix(.6 -.31 .72 .6 23.37 162.42)" gradientUnits="userSpaceOnUse">
      <stop offset="0" stop-color="#fdcf1f"/>
      <stop offset=".99" stop-color="#f37620"/>
    </linearGradient>
    <path fill="url(#grd_78)" d="M209.55 143.45c-1.82.83-7.12-11.61-7.07-12.93.21-5.17 2.62-9.66 3.23-14.72 7.27 9.83 16.46 21.86 3.84 27.65z"/>
    <linearGradient id="grd_79" x1="344.25" x2="364.76" y1="-3.42" y2="-30.77" gradientTransform="matrix(.27 -.14 .33 .27 120.26 192.65)" gradientUnits="userSpaceOnUse">
      <stop offset="0" stop-color="#fcb514"/>
      <stop offset=".99" stop-color="#fce842"/>
    </linearGradient>
    <path fill="url(#grd_79)" d="M209.64 143.64c-.82.37-3.22-5.2-3.2-5.79.09-2.31 1.16-4.32 1.43-6.58 3.29 4.4 7.44 9.79 1.77 12.37z"/>
    <linearGradient id="grd_80" x1="104.42" x2="-122.9" y1="-73.48" y2="308.09" gradientTransform="rotate(-22.54 117.54 122.86)" gradientUnits="userSpaceOnUse">
      <stop offset="0" stop-color="#fcb514"/>
      <stop offset=".99" stop-color="#fce842"/>
    </linearGradient>
    <path fill="url(#grd_80)" d="M16.49 59.16a3.05 3.05 0 0 0-5.63 2.33 3.04 3.04 0 0 0 3.98 1.64 3.03 3.03 0 0 0 1.65-3.97z"/>
    <linearGradient id="grd_81" x1="253.78" x2="76.05" y1="-161.84" y2="136.48" gradientTransform="rotate(-22.54 117.54 122.86)" gradientUnits="userSpaceOnUse">
      <stop offset="0" stop-color="#fcb514"/>
      <stop offset=".99" stop-color="#fce842"/>
    </linearGradient>
    <path fill="url(#grd_81)" d="M103.52 33.97a2.39 2.39 0 0 0-3.11-1.29 2.39 2.39 0 0 0-1.29 3.11 2.39 2.39 0 0 0 3.11 1.29 2.37 2.37 0 0 0 1.29-3.11z"/>
    <linearGradient id="grd_82" x1="162.4" x2="-17.08" y1="24.32" y2="325.6" gradientTransform="rotate(-22.54 117.54 122.86)" gradientUnits="userSpaceOnUse">
      <stop offset="0" stop-color="#fcb514"/>
      <stop offset=".99" stop-color="#fce842"/>
    </linearGradient>
    <path fill="url(#grd_82)" d="M110.41 103.57a2.4 2.4 0 1 0-4.45 1.84 2.4 2.4 0 0 0 4.45-1.84z"/>
    <linearGradient id="grd_83" x1="107.24" x2="117.58" y1="261.09" y2="247.29" gradientTransform="matrix(1.18 .36 .4 1.83 -14.05 -409.67)" gradientUnits="userSpaceOnUse">
      <stop offset="0" stop-color="#fdcf1f"/>
      <stop offset=".99" stop-color="#f37620"/>
    </linearGradient>
    <path fill="url(#grd_83)" d="M215.47 102.86c-2.21-.79-6.02-8.16 2.19-17.78 3.77-4.41 8.84 3.32 12.76-.77.06 15.14.39 24.03-14.95 18.55z"/>
    <linearGradient id="grd_84" x1="96.23" x2="109.27" y1="395.29" y2="377.9" gradientTransform="matrix(.53 .16 .18 .83 93.28 -236.57)" gradientUnits="userSpaceOnUse">
      <stop offset="0" stop-color="#fcb514"/>
      <stop offset=".99" stop-color="#fce842"/>
    </linearGradient>
    <path fill="url(#grd_84)" d="M215.43 103.11c-.99-.36.54-7.48.95-7.99 1.62-2.03 3.94-2.94 5.69-4.77.05 6.81.23 15.25-6.64 12.76z"/>
    <path fill="#FFE35F" d="M108.91 147.51a.96.96 0 1 0-1.78.74.96.96 0 0 0 1.78-.74zM114.24 156.11a1.3 1.3 0 0 0-1.7-.7 1.3 1.3 0 1 0 1.7.7zM147.77 139.32a1.23 1.23 0 1 0-2.26.94 1.23 1.23 0 0 0 2.26-.94zM72.59 50.78a1.3 1.3 0 0 0-2.41 1 1.3 1.3 0 0 0 1.7.7 1.3 1.3 0 0 0 .71-1.7zM35.83 52.21a.96.96 0 1 0-1.78.74.96.96 0 0 0 1.78-.74zM52.46 61.13a1.3 1.3 0 0 0-1.7-.7 1.3 1.3 0 1 0 1.7.7zM79.83 35.43a1.23 1.23 0 1 0-2.26.94 1.23 1.23 0 0 0 2.26-.94zM98.63 63.47a1.3 1.3 0 0 0-1.7-.7 1.3 1.3 0 1 0 1.7.7zM117.72 99.04a.88.88 0 0 0-1.14-.47.88.88 0 0 0-.47 1.14c.18.44.69.65 1.14.47.44-.19.65-.7.47-1.14zM220.45 67.34a.96.96 0 1 0-1.78.74.96.96 0 0 0 1.78-.74zM227.18 76.61a1.3 1.3 0 0 0-1.7-.7 1.3 1.3 0 1 0 1.7.7zM234.7 92.64a.88.88 0 0 0-1.14-.47.88.88 0 0 0-.47 1.14c.18.44.69.65 1.14.47.44-.19.65-.7.47-1.14zM192.02 147.25a1.5 1.5 0 0 0-.52-2.06 1.5 1.5 0 0 0-2.05.55 1.5 1.5 0 0 0 .52 2.06 1.5 1.5 0 0 0 2.05-.55zM226.83 111.73a1 1 0 0 0-.35-1.37 1 1 0 0 0-1.37.37 1 1 0 0 0 .34 1.37c.49.28 1.1.11 1.38-.37zM231.63 140.5a1.4 1.4 0 0 0-.48-1.93 1.4 1.4 0 0 0-1.92.52 1.4 1.4 0 0 0 .48 1.93c.66.39 1.52.15 1.92-.52z"/>
    <linearGradient id="grd_85" x1="133.26" x2="123.12" y1="213.94" y2="123.8" gradientUnits="userSpaceOnUse">
      <stop offset="0" stop-color="#fcb514"/>
      <stop offset=".99" stop-color="#fff256"/>
    </linearGradient>
    <path fill="url(#grd_85)" d="M114.03 129.84c-1.29-5.02-.92-12.59 4.36-16.41-1.95 7.74 1.68 11.94 7.56 17.47 5.89 5.53 9.77 13.04 10.16 20.21-.73-4.79-8.03-8.8-12.6-11.47-5.09-2.98-8.13-4.49-9.48-9.8z"/>
    <linearGradient id="grd_86" x1="342.16" x2="333.17" y1="117.74" y2="37.85" gradientTransform="matrix(-.9 1.04 .76 .65 321.8 -345.27)" gradientUnits="userSpaceOnUse">
      <stop offset="0" stop-color="#fcb514"/>
      <stop offset=".99" stop-color="#fff256"/>
    </linearGradient>
    <path fill="url(#grd_86)" d="M62.03 22.91c-2.62-3.86-7.99-8.03-13.85-6.47 6.47 3.13 7.08 8.19 7.2 15.65.12 7.46 2.82 14.65 7.46 19.12-2.8-3.33-1.02-10.92-.01-15.76 1.12-5.4 1.96-8.46-.8-12.54z"/>
    <linearGradient id="grd_87" x1="127.33" x2="137.34" y1="44.65" y2="31.3" gradientTransform="matrix(.33 -1.3 1.87 -.3 -41.3 351.84)" gradientUnits="userSpaceOnUse">
      <stop offset="0" stop-color="#fdcf1f"/>
      <stop offset=".99" stop-color="#f37620"/>
    </linearGradient>
    <path fill="url(#grd_87)" d="M80.95 175.12c-.58 1.87-13.12-2.25-14.05-3.13-3.64-3.47-5.36-8.11-8.66-11.8 11.93.99 26.7 1.99 22.71 14.93z"/>
    <linearGradient id="grd_88" x1="268.56" x2="278.57" y1="79.4" y2="66.05" gradientTransform="matrix(.52 -1.2 1.25 .5 -52.31 311.83)" gradientUnits="userSpaceOnUse">
      <stop offset="0" stop-color="#fdcf1f"/>
      <stop offset=".99" stop-color="#f37620"/>
    </linearGradient>
    <path fill="url(#grd_88)" d="M183.86 29.44c-.81 1.68-7.78-7.86-8.16-9.17-1.48-5.11-1.48-10.62-2.69-15.81 7.32 6.07 16.44 13.35 10.85 24.98z"/>
    <linearGradient id="grd_89" x1="175.82" x2="185.83" y1="-16.7" y2="-30.05" gradientTransform="matrix(.52 -1.2 1.25 .5 -52.31 311.83)" gradientUnits="userSpaceOnUse">
      <stop offset="0" stop-color="#fdcf1f"/>
      <stop offset=".99" stop-color="#f37620"/>
    </linearGradient>
    <path fill="url(#grd_89)" d="M15.19 93.37c-.81 1.68-7.78-7.86-8.16-9.17-1.48-5.11-1.48-10.62-2.69-15.81 7.32 6.06 16.45 13.34 10.85 24.98z"/>
    <linearGradient id="grd_90" x1="142.84" x2="152.86" y1="-85.73" y2="-99.08" gradientTransform="matrix(.15 -.58 .84 -.13 133.34 246.09)" gradientUnits="userSpaceOnUse">
      <stop offset="0" stop-color="#fcb514"/>
      <stop offset=".99" stop-color="#fce842"/>
    </linearGradient>
    <path fill="url(#grd_90)" d="M81.15 175.18c-.26.84-5.9-.99-6.31-1.38-1.63-1.55-2.4-3.62-3.88-5.27 5.36.43 12 .85 10.19 6.65z"/>
    <linearGradient id="grd_91" x1="46.14" x2="-133.3" y1="211.79" y2="512.99" gradientTransform="rotate(6.07 1025.75 488.53)" gradientUnits="userSpaceOnUse">
      <stop offset="0" stop-color="#fcb514"/>
      <stop offset=".99" stop-color="#fce842"/>
    </linearGradient>
    <path fill="url(#grd_91)" d="M28.87 182.46a2.4 2.4 0 1 0-4.76-.52 2.4 2.4 0 0 0 4.76.52z"/>
    <path fill="#FFE35F" d="M30.81 154.62a.96.96 0 0 0-.86-1.06.96.96 0 0 0-1.06.86.97.97 0 0 0 1.92.2zM39.3 162.15a1.3 1.3 0 0 0-2.58-.28 1.3 1.3 0 0 0 2.58.28zM43.81 174.83a.87.87 0 0 0-.77-.96.87.87 0 0 0-.96.77c-.05.48.3.91.77.96.48.06.91-.29.96-.77z"/>
  </g>
  <g id="strick">
    <path fill="#94571F" fill-rule="evenodd" stroke="#000" stroke-miterlimit="2.61" stroke-width=".1" d="m135.81 48.13-1.07-6.35-10.2-3.02-2.86-8.33-3.44-2.9 6.25.76 2.61 6.17 11.3 1.53 5.21 7.75z" clip-rule="evenodd"/>
    <path fill="#B5793E" fill-rule="evenodd" d="M140.33 46.85c-1.34-1.93-1.4-.66-2.58-4.27-.75-2.28 2.19-4.5-2.11-4.81 2.43.88 1.99.79 1.44 4.06-.75 4.49 1.53 3.74 2.9 5.38.79.94 1.44 1.91 1.91 2.94l.45-.05c-.61-1.27-1.41-2.39-2.01-3.25zm-19.92-18.58c7.92 5.53 3.33 6.81 11.71 11.45-1.87 0-4.04-.8-6.01-1.89-.07-1.43-.51-2.2-1.29-3.44a27.49 27.49 0 0 0-2.44-1.99l-.22-.65a18.3 18.3 0 0 1 2.98 2.34c.65 1.14 1.26 1.81 1.55 3.27 1.2.83 2.49 1.92 4.09 1.83-1.72-.76-3.34-2.07-3.93-3.3a12.7 12.7 0 0 0-1.69-2.69c-1.12-1.37-2.6-3.62-4.75-4.93zM135.2 39.7c-1.94.35-4.74-2.79-4.13-2.95.85.45 1.44.64 1.88.78.95.31 1.28.4 2.25 2.17zm.75.78c-2.46-.77-5.22-2.02-5.82-4.58 1.54.53 3.07 1 4.64 1.94a4.61 4.61 0 0 1 1.18 2.64z" clip-rule="evenodd"/>
    <path fill="#4A2805" fill-rule="evenodd" d="m136.54 49.92-2.54-8-12.51-4.04.69-.99 1.44.48-2.64-6.82-2.66-2.09-1.92-.7-1.15-1.29 9.81 1.68 2.42 5.71 8.85 1.88 1.19-.2 1.31-.46 5.57 8.29-1.78 1.16-4.02-7.39-12.16-2.25.03-.17-.15.04-1.88-5.91-4.62-.66 2.33 1.74 2.66 7.83 10.36 3.26 2.22 7.83z" clip-rule="evenodd"/>
    <linearGradient id="grd_92" x1="1921.05" x2="1973.14" y1="167.44" y2="261.42" gradientTransform="matrix(-.96 .27 .27 .96 1976.3 -648.73)" gradientUnits="userSpaceOnUse">
      <stop offset="0" stop-color="#e8d5ab"/>
      <stop offset=".63" stop-color="#fbf9f7"/>
      <stop offset="1" stop-color="#fff"/>
    </linearGradient>
    <path fill="url(#grd_92)" fill-rule="evenodd" d="M152.47 40.54a292.54 292.54 0 0 0-28.99 11.77c-3.22 2.42-6.34 5.11-8.19 11.41-3.05 9.87 1.65 20.6 5.38 29.53 6.06 14.53 14.13 29.5 16.07 28.84 1.84 3.97 16.43 2.79 29.58-2.63 7.72-1.82 32.91-12.99 37.08-22.94l-1.23-2.66a866.81 866.81 0 0 0-18.79-41.53c-5.76-8.29-7.3-14.37-12.65-14.32-6.04.06-10.02 2.12-18.26 2.53z" clip-rule="evenodd"/>
    <linearGradient id="grd_93" x1="1962.17" x2="1991" y1="244.91" y2="180.16" gradientTransform="matrix(-.96 .27 .27 .96 1976.3 -648.73)" gradientUnits="userSpaceOnUse">
      <stop offset="0" stop-color="#f8ecd6"/>
      <stop offset="1" stop-color="#e3c990"/>
    </linearGradient>
    <path fill="url(#grd_93)" fill-rule="evenodd" d="M122.89 53.37a22.34 22.34 0 0 0-4.76 6.88c-1.53 3.38-2.72 6.07-2.05 10.06 4.95 29.23 21.59 34.2 20.37 45.3 9.67-7.71 16.83-10.52 20.67-10.57-8.11 4.01-16.47 9.21-21.98 15.64-.91-.99-.83-1.12-1.74-2.11-10.44-17.63-18.18-34.58-19.33-49.9 2.45-12.41 5.66-13.47 8.82-15.3z" clip-rule="evenodd"/>
    <linearGradient id="grd_94" x1="1919.95" x2="1965.6" y1="222.38" y2="266.46" gradientTransform="matrix(-.96 .27 .27 .96 1976.3 -648.73)" gradientUnits="userSpaceOnUse">
      <stop offset="0" stop-color="#e1c082"/>
      <stop offset="1" stop-color="#fbf9f7"/>
    </linearGradient>
    <path fill="url(#grd_94)" fill-rule="evenodd" d="M142.26 123.87c-2.09.26-3.27-.51-2.87-1.77-.59-.64 11.97-9.77 21.57-12.55 1.12-1.51 1.13-2.53-2.31-2.02 9.46-4.33 33.74-12.67 44.21-11.32.38.95-.68 2.7-2.2 4.49-9.69 8.54-21.31 14.19-33.89 18.46-8 3.78-15.05 4.99-24.51 4.71z" clip-rule="evenodd"/>
    <linearGradient id="grd_95" x1="1995.55" x2="1902.61" y1="245.41" y2="182.71" gradientTransform="matrix(-.96 .27 .27 .96 1976.3 -648.73)" gradientUnits="userSpaceOnUse">
      <stop offset="0" stop-color="#e3c992"/>
      <stop offset=".03" stop-color="#e1c790"/>
      <stop offset=".26" stop-color="#cfb381"/>
      <stop offset="1" stop-color="#75624a"/>
    </linearGradient>
    <path fill="url(#grd_95)" fill-rule="evenodd" d="M177.77 114.7c11.34-5.56 18.82-10.35 23.24-15.29 5.27-5.89-3.4-4.41-6.81-3.98-7.05.9-15.01 3.06-22.77 5.67 10.13-5.21 20.54-8.22 29.09-7.5l1.07.26.13.04c-.65-1.58-1.3-3.16-1.97-4.74l-1.73-1.27c-4-9.04-5.9-11.14-9.62-19.55 4.11 7.47 5.13 9.25 9.65 16.89-3.38-7.73-17.32-39.1-23.25-43.94-3.02-2.46-7.71-3.06-12-1.3-4.48.92-7.84 1.56-10.96 2.29l-.09.79c-5.71 1.52-11.05 2.77-16.21 5.09a103.4 103.4 0 0 0-7.67 3.82c-6.02 3.32-8.47 4.35-10.7 10.79-3.4 9.84-1.1 15.6 2.25 25.09 3.49 9.89 8.91 18.75 13.98 27.73.84 1.48 1.93 3.55 3.57 4.44 9.06-9.41 18.38-13.3 28.04-16.51-9.16 4.31-17.62 8.8-24.33 14.84 6.27-4.76 12.44-7.73 18.28-9.11-6.93 2.62-15.58 7.7-19.22 11.31-2.05 2.03-2.19 2.55 1.01 2.68 10.1.43 18.6-1.61 26.36-4.8.24.43.6 1.18.84 1.61-8.97 3.38-18.03 5.46-27.28 4.82-1.72-.12-3.05-.37-3.72-1.88-2.57-.29-4.31-4.65-5.44-6.52a163.5 163.5 0 0 1-13.54-28.09c-3.28-9.06-6.43-16.79-2.87-26.38 2.74-7.39 4.99-8.09 11.84-11.82 2.58-1.41 5.21-2.31 7.82-3.49 5.76-2.6 11.41-4.96 17.28-6.42l-.04.28c3.3-.89 6.65-1.55 10.97-2.45 5.67-2.12 10.71-1.21 13.76 1.74 5.25 5.08 24.98 50.95 26.44 54.78 1.57 1.29 1.14 3.41-.35 5.2-3.87 4.63-13.48 10.59-23.77 16.21-.38-.27-.91-1.05-1.28-1.33z" clip-rule="evenodd"/>
    <path fill="#BA9E67" fill-rule="evenodd" d="M135.58 73.77c1.12-.52 1.87-.85 3.01-1.31a29.08 29.08 0 0 0-4.72 3.97c.66-.53 2.96-2.3 3.71-2.79.21.21.41.31.72.4a47.02 47.02 0 0 1 3.51-2.82 45.16 45.16 0 0 1 11.57-2.45c-2.44-.07-4.76.14-6.99.56.75-.23 1.47-.41 2.14-.54.07-.23.08-.49 0-.73-1.2.24-2.47.65-3.73 1.16a48.61 48.61 0 0 1 4.38-2.4c-2.18.64-4.7 1.76-7.24 3.67-1.54.5-3.04 1.1-4.51 1.75-.53.23-1.05.48-1.57.72-.21.18-.22.6-.28.81z" clip-rule="evenodd"/>
    <path fill="#FFF" fill-rule="evenodd" d="M145.75 69.29a1.1 1.1 0 0 1-.88-.48 7.37 7.37 0 0 1-.05-3.44c.37-.43.7-.54 1-.48.9.24 1.55.78 1.96 1.58.09.49.19.99-.14 1.45-.46.79-1.17 1.1-1.89 1.37zM138.49 71.96c-1.2-.14-1.23-1.27-1.09-2.17.09-.56.31-1.04.45-1.62.36-.38.66-.37.94-.29.82.26 1.25.79 1.6 1.55.06.46.21 1.08-.12 1.49-.47.71-1.1.81-1.78 1.04z" clip-rule="evenodd"/>
    <path fill="#957951" fill-rule="evenodd" d="M148.09 66.49c-.39-1.09-2.93-3.67-3.58-.85-.18.78-.2 1.63-.02 2.39.33 1.43.71 1.65 2.19.97 1.32-.62 1.75-1.58 1.41-2.51zm-1.54 1.7c-1.06.55-1.08.62-1.3-.51a3.91 3.91 0 0 1-.03-1.67c.13-.67.24-.61.59-.59.68.05 1.34.84 1.55 1.32.31.7.14.95-.81 1.45zM139.27 72.11c4.18-1.61-.79-6.59-1.88-3.31a5.1 5.1 0 0 0-.22 2.28c.25 1.2.62 1.39 2.1 1.03zm-1.42-1.29c-.07-.58.07-1.1.19-1.7.37-1.94 3.88 1.21 1.08 2.22-1 .25-1.05.36-1.27-.52z" clip-rule="evenodd"/>
    <radialGradient id="grd_96" cx="1965.87" cy="184.94" r="3.29" gradientTransform="matrix(-.96 .27 .27 .96 1976.3 -648.73)" gradientUnits="userSpaceOnUse">
      <stop offset="0" stop-color="#806a62"/>
      <stop offset="1" stop-color="#48290e"/>
    </radialGradient>
    <path fill="url(#grd_96)" fill-rule="evenodd" d="M129.98 59.12c1.13-1.01 2.27-1.92 3.49-2.26.88-.11 1.55-.01 1.94.41a8 8 0 0 0-.32.28c.2.83.17 1.16.02 1.21-1.69-.42-2.8.63-3.76 2.05l-1.37-1.69z" clip-rule="evenodd"/>
    <radialGradient id="grd_97" cx="1953.58" cy="185.41" r="2.97" gradientTransform="matrix(-.96 .27 .27 .96 1976.3 -648.73)" gradientUnits="userSpaceOnUse">
      <stop offset="0" stop-color="#806a62"/>
      <stop offset="1" stop-color="#48290e"/>
    </radialGradient>
    <path fill="url(#grd_97)" fill-rule="evenodd" d="M142.19 56.8c-.06-.38-.17-.7-.24-1.18 1.61-.62 3.15-1.01 4.38-.76.93.44.75 1.04-.14 1.73-1.58-.2-2.84-.06-4 .21z" clip-rule="evenodd"/>
    <linearGradient id="grd_98" x1="1945.56" x2="1950.35" y1="214.53" y2="228.44" gradientTransform="matrix(-.96 .27 .27 .96 1976.3 -648.73)" gradientUnits="userSpaceOnUse">
      <stop offset="0" stop-color="#b99f66"/>
      <stop offset="1" stop-color="#fff"/>
    </linearGradient>
    <path fill="url(#grd_98)" fill-rule="evenodd" d="M155.71 95.27c-3.14-4.68-3.38-8.48 2.7-9.36 1.61-2.43 4.87-2.69 7.73-1.15 1.1 3.4-1.14 6.84-4.37 8.5-1.6.83-3.76 1.45-6.06 2.01z" clip-rule="evenodd"/>
    <path fill="#FFF" fill-rule="evenodd" d="M156.14 86.48c.42-2.21-.32-4.57-3.53-7.27 2.41-1.61 4.01-3.69 4.4-6.45 1.35.78 2.18.63 3.1.65 2.84 3.78 5.47 7.6 6.3 11.69-4.63-2.59-6.95-1.17-7.79.9-.42-.13-1.23.01-2.48.48z" clip-rule="evenodd"/>
    <path fill="#957951" fill-rule="evenodd" d="M155.91 86.6c-.04-2.49-.72-5.07-3.61-7.01l.87-.58c3.03 2.24 3.87 4.9 3.64 7.32l-.9.27z" clip-rule="evenodd"/>
    <path fill="#2D1619" fill-rule="evenodd" d="M131.77 60.7c-.62 1.06-.22 1.1-.78.08a4.77 4.77 0 0 0-.79-1.03c-.63-.67-.67-.49.09-1.17 2.54-2.31 4.56-2.41 5.73-1.03.07.28-.79-.32-.83.27.26.51.25.94.12 1.51-1.2-1.28-2.73-.01-3.54 1.37zm-1.06-1.91c-.49.51-.43.37-.06.93l.61.91c-.81-1.81 1.41-3.68 3.38-3.01-1.18-.02-3 .61-3.21 1.86-.18 1.07.26.47.65.09.92-.91 1.69-1.12 2.3-1.06.4.04.64.33.63-.23-.01-.34-.25-.9.02-1.02-1.62-.63-3.08.25-4.32 1.53zM142.12 55.61c.95-.19 1.88-.69 2.85-.76.59-.04 2.06.08 1.57.93-.1.18-.36.39-.6.58a8.86 8.86 0 0 0-3.69.15c-.14-1.15 1.99-.95 3.28-1.06-.96-.17-2.16-.04-3.41.16zm.5 1.17a6.15 6.15 0 0 1 4.2.37l-.44-.65c1.56-1.33.35-2-1.16-1.95-.94.03-1.95.27-3.05.77-.37.14-.5.36-.37.66.09.15.14.29.16.44.14.64-.19.56.66.36z" clip-rule="evenodd"/>
    <path fill="#957951" fill-rule="evenodd" d="M136.95 81.8c2.1 2.58 7.09 1.29 11.62-.9 4.75-2.29 8.58-6.27 7.39-8.99.39.26.96.82 1.35 1.07.16 3.2-3.47 6.48-8 8.76-4.82 2.43-9.99 3.57-12.53 1.43.08-.3.1-1.05.17-1.37zM155.46 95.26c-3.31-4.19-3.41-8.9 3.27-9.8-.03.24-.15.86-.18 1.11-5.34.35-5.26 4.76-2.16 8.27-.21.11-.7.31-.93.42z" clip-rule="evenodd"/>
    <path fill="#957951" fill-rule="evenodd" d="M159.46 91.29c-1.52-2.33-2.56-6.39.89-7.71a6.6 6.6 0 0 1 6.11.71c0 .22.09.77.09.99a6.26 6.26 0 0 0-5.82-.74c-2.81 1.15-1.84 4.64-1.27 6.75z" clip-rule="evenodd"/>
    <path fill="#957951" fill-rule="evenodd" d="M160.57 73.32c4.67 6.79 11.39 14.66 1.37 20.42-2.5 1.18-5.18 2.35-8.16 2.67.04-.23-.03-.87.02-1.1a33.04 33.04 0 0 0 7.49-2.45c9.28-5.88 2.7-12.98-2.02-19.61.31-.01.98.08 1.3.07zM132.61 78.74c.13-.48.21-.38.33-.86 5.75 1.22 6.1 7.6.63 10.17 3.08-2.67 4.57-7.44-.96-9.31z" clip-rule="evenodd"/>
    <path fill="#957951" fill-rule="evenodd" d="M154.87 67.15c-.01.1.74.28 1.13.44-1.38 5.72 4.64 5.91 8.92 4.03-5.44 4.32-12.15 1.7-10.05-4.47z" clip-rule="evenodd"/>
    <path fill="#94571F" fill-rule="evenodd" stroke="#000" stroke-miterlimit="2.61" stroke-width=".1" d="m52.67 71.35-3.38-5.17 5.18-8.95-3.44-7.76.53-4.34-3.89 4.73 2.19 6.06-6.91 8.65 1.4 8.93z" clip-rule="evenodd"/>
    <path fill="#B5793E" fill-rule="evenodd" d="M48.68 73.48c-.32-2.25.55-1.4-.98-4.73-.96-2.1-4.47-1.69-1.65-4.79-1.13 2.24-.88 1.88 1.64 3.81 3.45 2.65 1.36 3.65 1.48 5.72.06 1.19.24 2.3.58 3.34l-.35.27c-.41-1.3-.58-2.62-.72-3.62zm1.84-26.38c-1.94 9.19 2.11 7-.74 15.87 1.31-1.26 2.31-3.27 2.97-5.35-.89-1.05-1.08-1.89-1.34-3.28.08-1.01.22-2.03.41-3.03l-.27-.6a17.9 17.9 0 0 0-.56 3.64c.29 1.23.29 2.11 1.05 3.33-.3 1.38-.5 3.01-1.67 4.02.71-1.69.99-3.69.61-4.95-.32-1.03-.5-1.95-.57-3.02-.12-1.7-.54-4.27.11-6.63zM47.6 65.03c1.58-1.06 1.5-5.13.97-4.83-.31.88-.59 1.41-.81 1.81-.45.84-.63 1.13-.16 3.02zm-.01 1.05c1.22-2.19 2.34-4.91 1.09-7.11-.73 1.4-1.5 2.76-1.99 4.47.08 1.26.43 2.05.9 2.64z" clip-rule="evenodd"/>
    <path fill="#4A2805" fill-rule="evenodd" d="m53.34 73.09-3.45-7.31 6.14-11.21-1.13-.24-.7 1.3-2.6-6.54.51-3.25.88-1.78-.03-1.68-5.78 7.76 2.03 5.62-4.97 7.25-.98.66-1.2.55 1.49 9.55 2-.38-2-7.87 7.06-9.74-.13-.09.13-.07-2.53-5.41 2.8-3.56-.5 2.78 3.24 7.27-5.13 9.23 3.55 6.98z" clip-rule="evenodd"/>
    <linearGradient id="grd_99" x1="47.12" x2="99.2" y1="35.86" y2="129.83" gradientTransform="rotate(-26.05 120.7 120.46)" gradientUnits="userSpaceOnUse">
      <stop offset="0" stop-color="#e8d5ab"/>
      <stop offset=".63" stop-color="#fbf9f7"/>
      <stop offset="1" stop-color="#fff"/>
    </linearGradient>
    <path fill="url(#grd_99)" fill-rule="evenodd" d="M38.64 72.28A291.49 291.49 0 0 1 68.12 61.8c4.01-.33 8.13-.4 13.71 3.08 8.84 5.34 12.46 16.48 15.62 25.63 5.13 14.89 9.06 31.42 7.17 32.22 1.26 4.19-10.42 13.01-23.85 17.7-6.97 3.77-33.22 12.17-42.95 7.52l-.85-2.8a868.34 868.34 0 0 1-13.58-43.52c-1.21-10.03-4.1-15.59-.07-19.1 4.54-3.97 8.89-5.07 15.32-10.25z" clip-rule="evenodd"/>
    <linearGradient id="grd_100" x1="88.24" x2="117.06" y1="113.33" y2="48.58" gradientTransform="rotate(-26.05 120.7 120.46)" gradientUnits="userSpaceOnUse">
      <stop offset="0" stop-color="#f8ecd6"/>
      <stop offset="1" stop-color="#e3c990"/>
    </linearGradient>
    <path fill="url(#grd_100)" fill-rule="evenodd" d="M69.26 62.2c2.65.12 5.36.74 8.13 1.98 3.39 1.51 6.07 2.73 8.22 6.15 15.74 25.12 6.62 39.9 14.91 47.38-12.35.67-19.56 3.33-22.46 5.84 8.72-2.4 18.42-4.07 26.82-2.93.03-1.34-.13-1.39-.1-2.73-3.93-20.11-9.42-37.92-18.74-50.12-10.1-7.65-13.2-6.31-16.78-5.57z" clip-rule="evenodd"/>
    <linearGradient id="grd_101" x1="46.02" x2="91.67" y1="90.8" y2="134.88" gradientTransform="rotate(-26.05 120.7 120.46)" gradientUnits="userSpaceOnUse">
      <stop offset="0" stop-color="#e1c082"/>
      <stop offset="1" stop-color="#fbf9f7"/>
    </linearGradient>
    <path fill="url(#grd_101)" fill-rule="evenodd" d="M101.67 127.74c1.74-1.2 2.1-2.55.97-3.24.02-.87-15.44.66-24.45 4.97-1.84-.38-2.52-1.14.38-3.05-9.94 3.06-33.62 12.97-40.55 20.94.35.96 2.3 1.57 4.63 1.89 12.92-.06 25.35-3.57 37.59-8.75 8.48-2.49 14.55-6.26 21.43-12.76z" clip-rule="evenodd"/>
    <linearGradient id="grd_102" x1="121.62" x2="28.67" y1="113.82" y2="51.13" gradientTransform="rotate(-26.05 120.7 120.46)" gradientUnits="userSpaceOnUse">
      <stop offset="0" stop-color="#e3c992"/>
      <stop offset=".03" stop-color="#e1c790"/>
      <stop offset=".26" stop-color="#cfb381"/>
      <stop offset="1" stop-color="#75624a"/>
    </linearGradient>
    <path fill="url(#grd_102)" fill-rule="evenodd" d="M69.05 144.5c-12.17 3.38-20.94 4.78-27.52 4.03-7.86-.9-.39-5.56 2.44-7.5 5.86-4.02 13.25-7.7 20.78-10.9-11.03 2.85-20.81 7.51-26.72 13.75l-.62.91-.07.12c-.57-1.61-1.13-3.23-1.68-4.85l.44-2.1c-3.02-9.41-3-12.25-5.82-21 1.9 8.31 2.31 10.32 4.02 19.03-2.62-8.02-13.06-40.72-11.85-48.28.61-3.85 3.73-7.41 8.1-8.95 3.96-2.29 6.89-4.05 9.71-5.57.24.22.45.42.6.53 5.28-2.66 10.1-5.28 15.49-6.97 2.88-.9 5.53-1.63 8.27-2.25 6.7-1.52 9.22-2.38 15.17.95 9.09 5.09 11.2 10.92 15.01 20.24 3.97 9.71 5.81 19.92 8 30.01.36 1.66.92 3.94.29 5.69-13.02-1-22.57 2.28-31.92 6.31 9.71-2.87 19.01-5.14 28.04-5.09-7.85.61-14.43 2.5-19.71 5.35 6.92-2.65 16.76-4.61 21.87-4.33 2.89.16 3.33.44 1.03 2.68-7.26 7.04-14.96 11.16-22.88 13.95.1.48.34 1.28.44 1.76 8.95-3.44 17.1-7.91 23.58-14.54 1.2-1.23 2.03-2.31 1.53-3.88 1.73-1.93.13-6.34-.28-8.49a162.64 162.64 0 0 0-8.57-29.98c-3.57-8.95-6.36-16.81-15.39-21.61-6.96-3.7-9.11-2.73-16.71-.96-2.86.67-5.43 1.74-8.16 2.59-6.03 1.89-11.83 3.88-17.17 6.69l.22.18c-3.05 1.53-6 3.27-9.82 5.46-5.64 2.19-8.81 6.22-9.12 10.45-.54 7.29 15.22 54.66 16.68 58.49-.32 2.01 1.42 3.31 3.72 3.65 5.97.89 17.11-1.05 28.53-3.69.08-.49-.04-1.43.05-1.88z" clip-rule="evenodd"/>
    <linearGradient id="grd_103" x1="81.91" x2="125.27" y1="235.84" y2="138.47" gradientTransform="rotate(-26.05 120.7 120.46)" gradientUnits="userSpaceOnUse">
      <stop offset="0" stop-color="#5c3a10"/>
      <stop offset="1" stop-color="#94571e"/>
    </linearGradient>
    <path fill="url(#grd_103)" fill-rule="evenodd" d="M174.93 239.18a70.1 70.1 0 0 1-2.75-7.23 142.49 142.49 0 0 0-21.28-13.25c-1.85.1-3.74.09-5.79-.22-5.53-9.21-10.31-19.66-15.75-29.31-7.93-6.51-15.87-13.26-23.06-22.68-8.22-4.06-19.62-6.56-30.02-9.55-4.72-5.71-7.74-11.54-10.44-17.71 1.78-1.4 4.06-3.04 5.02-4.03 2.56.19 3.89.82 5.39 1.03a118.25 118.25 0 0 0 12.02 16.18 77.94 77.94 0 0 0 25.2 2.18c5.9 7.76 12.07 13.09 18.71 17.94l10.21-1.94c.62-2.85 2.61-3.96 4.68-4.96a310.48 310.48 0 0 0 23.6-31.38 73.68 73.68 0 0 0-2.94-17.64l2.08-4.45 6.63-.95c2.9 4.4 5.56 9.59 7.75 15.86a32.06 32.06 0 0 1-2.91 5.24l1.48 3.85c-4.56 9.44-12.09 18.73-21.78 27.63a102.08 102.08 0 0 0-7.03 24.61c2.63 7.44 5.96 12.1 9.34 16.61 11.51 3.79 22.66 7.74 33.73 11.74 1.66 3.31 3.37 6.43 5.15 9.37l-1.33.5 2.42 4.95-4.88 1.57-2.45-4.12-4.24 2.89.69 4.97-4.12-5.75-1.79 7.01-6.96 1.77-2.61-4.45-1.97 3.72z" clip-rule="evenodd"/>
    <linearGradient id="grd_104" x1="65.78" x2="154.1" y1="253.91" y2="106.91" gradientTransform="rotate(-26.05 120.7 120.46)" gradientUnits="userSpaceOnUse">
      <stop offset="0" stop-color="#885d20"/>
      <stop offset="1" stop-color="#bc7c42"/>
    </linearGradient>
    <path fill="url(#grd_104)" fill-rule="evenodd" d="M71.19 138.53c1.44 5.05 3.66 10.53 7.4 11.85 1.42-5.52-4.04-12.45-7.4-11.85zm48.03 34.54c-2.14-1.41-4.45-3.37-4.3-6.05 1.33.93 2.67 1.79 3.92 3.13.51 1.22.54 2.14.38 2.92zm-.5-.97c-.43-2-.73-2.18-1.55-2.73-.39-.26-.9-.61-1.59-1.27-.63 0 1.18 3.83 3.14 4zm-5.16-5.81c1.52 3.72 3.67 7.72 6.64 8.45.65-4.3-4.11-9.15-6.64-8.45zm-.57-.23c2.88 5.51 3.05 7.84 8.65 10.23-1.23-10.66-8.21-11.08-8.65-10.23zm62.11-19.36c-13.97 12.77-14.36 20.29-14.31 19.87 5.74-11.4 6.31-9.59 15.2-19.41l-.89-.46zm-43.28 34.96c-3.65-2.25-6.15-6.1-8.02-8.45a22.34 22.34 0 0 1-2.84-4.6c-.99-2.1-3.73-4.35-6.65-5.66 2.71-.13 4.9 1.74 6.94 3.16.47 2.5 1.51 3.64 2.6 5.59 3.77 3.76 8.65 6.45 13.65 8.1a46.25 46.25 0 0 1-13.11-8.6c-1.32-2.11-2.06-3.44-2.16-5.88-3.33-1.89-7.02-3.27-10.2-3.3 14.2 8 6.37 10.12 19.79 19.64zm28.67-20.03c-3.31 5.22-9.05 14.62-16.52 16.75 7.17-4.08 11.82-9.77 15.8-16.76 2.42-4.25.48-6.49 8.39-11.66 5.77-3.77 5.74-3.01 6.55-7.72.7 6.62-3.94 5.47-7.63 9.73-5.86 6.74-3.67 5.05-6.59 9.66zm-34.26 21.93 1.12-.74c-5.27-4.43-11.1-5.56-20.37-22.4-.08-.53.76 9.04 19.25 23.14zm38.62-32.53c-2.62 1.62-5.06 3.36-8.73 4.31-2.45 2.18-4.13 4.88-6.27 7.2 1.4-2.63 3.61-4.68 5.83-7.96 2.81-2 4.61-5.17 6.9-8.09a81.04 81.04 0 0 1-5.41 7.54c2.07.11 5.93-2.31 7.68-3zm9.22-36.22c.2 2.56.46 5.43.48 8.37a47.33 47.33 0 0 1-3.26-6.94 28.57 28.57 0 0 0 3.25 8.29 35.42 35.42 0 0 1-.43 4.95c-.62 3.79 2.29 6.89 2.56 10.32-.78-4.74-2.98-7.92-1.73-10.98.28-.7.44-1.79.51-3.02.21.24.42.44.63.61.93 4.97 1.96 11.52 1.74 17.3.41.01.48.05.9.05.12-5.58-1.1-12.9-2.03-18.21-.4-.22-.79-.58-1.18-1.03.04-1.98-.05-4.04-.11-5.16 3.11 5.41 3.76 12.85 5.71 18.49-1.15-7.99-3.24-18.21-7.04-23.04zm-32.58 67.4c1.69 2.83 3.25 6.41 1.56 9.58-1.02-1.82-2.08-3.57-2.77-5.85.1-1.74.57-2.87 1.21-3.73zm.03 1.43c-.63 2.65-.39 3.02.25 4.11.3.52.69 1.2 1.12 2.37.73.34.81-5.25-1.37-6.48zm-1.78-3.22c.01 5.3.64 11.22 3.84 13.45 2.85-5.04-.47-13.2-3.84-13.45zm-.57-.55c.77 8.13-.16 11.09 5.37 16.57 3.7-13.77-4.43-17.43-5.37-16.57zm26.75-34.63c1-3.4 2.67-7.3 6.31-8.56-.69 2.14-1.29 4.26-2.57 6.53a7.63 7.63 0 0 1-3.74 2.03zm1.09-1.13c2.49-1.6 2.61-2.07 3-3.37.19-.62.44-1.43 1.04-2.65-.25-.79-4.62 3.5-4.04 6.02zm5.63-9.49c-4.35 3.87-8.79 8.66-8.54 12.73 6-1.5 10.52-9.97 8.54-12.73zm.08-.83c-6.17 6.51-9.21 7.97-10.1 16.17 13.71-7.22 11.41-16.08 10.1-16.17zm-13.64 70.58c-13.15-16.94-11.63-25.88-11.69-25.38 3.79 14.23 4.94 12.17 12.86 24.94l-1.17.44zm-15.88-28.09c2.98-2.09 6.14-4.88 7.68-6.93.96-1.28 1.32-2.57 2.17-3.94a23.16 23.16 0 0 1 4.54-4.99c-2.21.08-4.02 1.13-5.69 2.44-.4 2.07-1.25 3.07-2.15 4.74a32.29 32.29 0 0 1-11.17 7.56 43.03 43.03 0 0 0 10.73-7.93c1.09-1.82 1.7-2.95 1.8-4.94a18.6 18.6 0 0 1 8.35-2.78c-10.83 8.49-4.48 9.57-16.26 16.77zm2.33 31.79c1.74 2.89 4.05 6.64 6.04 10.78l-.93-.1a73.46 73.46 0 0 0-5.66-9.8c-3.79-5.62-8.2-4.65-9.1-17.58-.65-9.42.33-8.91-5.28-12.86 9.26 3.29 4.27 8.25 7.12 15.45 4.5 11.38 3.92 7.64 7.81 14.11zm-10.61-7.8c-4.33-12.75-2.19-18.52-2.32-18.1 1.03 15.42 2.59 14 7.87 27.73l-5.55-9.63zm43.01 30.51c-3.52-2.67-7.85-5.86-10.95-9.71-2.37-2.94-6.8-2.99-9.55-5.08 4.1 2.61 8.07 3.2 9.44 6.1.89 1.9 5.07 5.27 6.7 6.59-6.3-1.45-12.32-5.93-17.95-8.33 6.79 4.51 15.94 9.85 22.31 10.43zm-3.59-13.57c7.28 2.7 4.46.17 15.32 6.3 3 1.69 4.5 3.93 6.05 5.67l.2-.14.56.95c1.41 1.37 3.07 2.22 6.02 1.84l.75-.24-.15-.31c-4.82.05-4.58-.78-10.29-6.86-8.85-9.41-11.88-6.1-18.55-8.21-10.97-3.47-20.11-8.24-27.22-16.95 4.26 9.68 19.07 14.89 27.31 17.95zm-6.76-8.06c3.42.32 7.39 1.18 8.91 4.28-2.16-.26-4.29-.45-6.62-1.22a6.2 6.2 0 0 1-2.29-3.06zm1.2.8c2.43-.96 6.99 2.29 6.23 2.65-1.24-.34-2.06-.43-2.68-.5-1.31-.13-1.77-.16-3.55-2.15zm-3.81-.49c2.4-2.43 11.27-.31 13.58 4.75-3.92 1.17-9.2-1.72-13.58-4.75zm-.82.13c-.1-1.21 8.19-5.33 17.14 5.36-8.1 1.09-9.94-1.31-17.14-5.36zm38.45 15.79-.39.73-.19.07c-9.87-7.3-8.09-8.03-19.64-12.28-.42 0 7.21-.38 20.22 11.48zm-48.16-7.66-.89.13c-1.27-2.18-3.39-5.55-5.08-9.1-.94-1.99-1.13-3.75-1.65-5.15-.69-1.86-1.74-3.21-3.7-4.85-.31-.26-2.55-4.57-4.01-7.67a20.37 20.37 0 0 1-1.26-3.04c.5-.01.37-.63.87-.64-.16.49.09 1.95 1.03 3.44.52.81.58 1.93 1.01 2.87 1.05 2.32 2.21 4.45 2.55 4.74 3.77 3.22 3.33 5.34 5.68 10.05 1.77 3.55 4 6.93 5.45 9.22zm37.6 16.89-.37-2.68.52-.36a31.61 31.61 0 0 0-2.04-4.64c-6.26-4.84-34.74-12.43-35.37-15.75l-.58 1.04c1.02 4.23 30.48 9.79 34.86 15.75a38.36 38.36 0 0 1 2.98 6.64zm-5.5 3.22c-2.36-2.88-4.14-6.32-3.15-10.01 1.5 1.61 3.03 3.16 4.41 5.05l-.3 1.19c-.26-.44-.6-.79-1.04-1.25a18.8 18.8 0 0 1-2.3-2.83c-.93-.19.14 5.09 2.51 7.35l-.13.5zm-5.25-11.79c.76 4.36 1.89 8.98 3.76 12.47l-.85.22c-1.64-3.39-2.2-7.35-3.82-13.31.81-1.01 7.62.48 10.35 9.2l-2.49-3.47-.1.37c-1.85-3.31-4.56-5.66-6.85-5.48zm2.1 12.89-.68.17a39.4 39.4 0 0 1-2.02-4.16 10.38 10.38 0 0 0-.5 4.8l-.7.18-.2-.34a26.5 26.5 0 0 1 1.08-7.54 49.76 49.76 0 0 0 3.02 6.89zm-80.5-82.27c-4.97-.82-2.85.42-10.54-2.11-4.86-1.6-5.08-5.9-10.89-2.96 4.49-.99 3.8-.75 8.77 2.76 6.83 4.81 8.33 2.39 12.84 2.91 7.41.86 13.83 2.75 19.47 7.33-3.95-5.51-14.03-7-19.65-7.93zm1.62 5.66-.19.96c-11.95-4.12-10.39-5.31-22.93-6.04-.41.12 6.87-2.4 23.12 5.08zm-31.13-22.53c2.42 2.27 4.91 5.29 4.12 8.74-1.49-1.48-3-2.88-4.29-4.88a6.42 6.42 0 0 1 .17-3.86zm.42 1.36c2.46.62 3.91 5.97 3.1 5.83a13.67 13.67 0 0 0-1.74-1.98c-.92-.87-1.26-1.17-1.36-3.85zm-3.32-3c.69-1.05 9.63.39 9.74 14.44-6.89-3.84-6.78-6.9-9.74-14.44z" clip-rule="evenodd"/>
    <linearGradient id="grd_105" x1="173.22" x2="104.45" y1="282.31" y2="93.37" gradientTransform="rotate(-26.05 120.7 120.46)" gradientUnits="userSpaceOnUse">
      <stop offset="0" stop-color="#28160a"/>
      <stop offset="1" stop-color="#57320d"/>
    </linearGradient>
    <path fill="url(#grd_105)" fill-rule="evenodd" d="M89.52 151.82c-3.93-3.62-7.53-7.93-12.83-15.52-.58-.05-1.11-.16-1.68-.3 4.24 6.67 7.29 11.58 11.65 15.87l-1.19-.2.83 1.69c9.53 1.74 17.89 3.17 26.65 2.23 6.46 8.37 14.15 14.17 21.16 19.22l2.63.81c-.98-.73-1.95-1.47-2.92-2.24 3.77-.04 7.19-.78 10.16-2.44l-.83-1.69-.36.2c1.13-2 2-4.17 2.71-6.43a26.94 26.94 0 0 1-4.35 7.28 16.6 16.6 0 0 1-9.08 1.69 127.5 127.5 0 0 1-18.18-18.19c-8.05.31-15.49-.62-24.37-1.98zm103.36 60.67 1.45.06a53.87 53.87 0 0 1 3.21 4.1c1.11.42 2.23.86 3.35 1.3l-.78 1-1.4-.58c1.69 2.56 3.04 5.02 4.4 7.42l-1.56.59c-1.78-2.97-3.58-6.07-5.48-9.08a302.97 302.97 0 0 0-39.13-12.63l-.01.02-.03-.03-.33-.09.13-.12a80.28 80.28 0 0 1-10.89-13.79c4.04-11.38 8.77-21.34 13.61-31.07-4.26 9.42-8.51 19.07-12.64 30.98a57.05 57.05 0 0 0 10.64 13.24l.56-.5 4.01 1.2c-3.75-4.85-6.8-10.04-8.63-15.83.68-9.02 3.73-17.31 6.98-25.54 9.27-8.26 17.18-17.22 21.63-27.97-.21-.67-.39-1.36-.55-2.06a64.45 64.45 0 0 1-6.89 8.91 59.88 59.88 0 0 0 6.61-10.31c-.6-3.46-.63-7.18-.37-11.06a127.14 127.14 0 0 0-4.6-9.28c.71-.06.57.1 1.29.04 3.3 5.16 5.06 10.66 7.38 16.04-.97 1.7-1.9 3.27-2.84 4.75.2.97.46 1.92.77 2.84l.63.62c-4.3 10.06-12.29 19.48-22.12 28.18-3.41 8.57-6.43 16.39-6.38 24.29 1.5 6.17 5.46 11.45 9.28 16.54a471.6 471.6 0 0 1 30.16 10.45c-.7-1.12-.72-1.58-1.46-2.63zm-18.47 27.66a76.2 76.2 0 0 1-2.99-7.51c-6.23-4.9-12.62-9.4-20.44-13.12-3.28.32-6.3-.15-9.55-.86l.29-1.48c.7.12 1.4.23 2.08.31-4.38-7.39-10.32-17.71-14.57-27.32l-.45.56a158.74 158.74 0 0 1-22.97-23.6c-8.12-3.94-20.88-7.39-29.29-9.22l-.07.03-.04-.05-.44-.09.2-.26a89.15 89.15 0 0 1-10.96-17.82l1.15-.91a98.07 98.07 0 0 0 10.77 17.66l.01-.02c7.05 2.02 19.6 4.71 27.83 8.61-.95-1.27-1.88-2.56-2.79-3.87l2.57.27a99.46 99.46 0 0 0 3.59 5.27c1 .52 1.94 1.04 2.78 1.54l.12 1.08-1.62-.9a111.76 111.76 0 0 0 19.2 19.42c-1.38-3.19-2.58-6.2-3.51-8.85 5.88 11.75 14.55 29.09 20.66 38.67 1.92.14 3.77.15 5.56.02 7.7 3.84 14.2 8.05 19.88 12.51a74.1 74.1 0 0 1-.99-3.53c.56 1.39 1.14 2.76 1.73 4.12.91.73 1.81 1.47 2.68 2.21l-.13 1.4-1.49-1.21c.74 1.64 1.51 3.26 2.29 4.86l-1.09 2.08zm7.29-117.34c-.32 2.75-.31 5.34.04 7.76l1.56-3.01a31 31 0 0 0-1.6-4.75zm-14.65-5.86.76-1.14a62.88 62.88 0 0 1 3.61 16.88l.56-.89-.03 2.02-.44.66.02.97c-.12.51-.72 1.72-.84 2.22l-.15-1.75c-7.54 11.13-15.44 21.85-23.96 31.47-.16-.4-.62-1.41-.78-1.81 9.11-9.71 16.98-20.47 24.2-31.66-.56-5.84-1.01-11.53-2.95-16.97z" clip-rule="evenodd"/>
    <path fill="#C4A362" fill-rule="evenodd" d="M164.44 119.67c2.76-3 4.66-6.34 6.17-10.14.11.69.04 1.46-.16 2.26 3.65-.92 7.1-1.07 10.35-.41-3.69-.06-7.3.49-10.8 1.78a23.5 23.5 0 0 1-4.26 6.56c-.65-.04-.65-.04-1.3-.05zM80.19 135.58c-4.14.18-7.97-.53-11.92-1.85.46.54 1.11.99 1.86 1.35-3.11 2.24-6.38 5.61-7.99 8.58a37.1 37.1 0 0 1 9.35-8.03c2.79.93 6.29 1.08 7.88.98l.82-1.03z" clip-rule="evenodd"/>
    <path fill="#BA9E67" fill-rule="evenodd" d="M73.35 85.88a56.8 56.8 0 0 0-3.12 1.02c1.98-.3 4.29-.33 6.17-.17-.85.05-3.74.25-4.62.38-.02.29-.1.5-.28.78-1.48 0-2.97.07-4.5.22a45.23 45.23 0 0 0-10.27 5.86 32.13 32.13 0 0 1 5.59-4.23c-.71.33-1.37.67-1.95 1.02-.2-.12-.38-.31-.48-.55a21.55 21.55 0 0 1 3.56-1.61c-1.57.28-3.19.65-4.87 1.12 2.05-.97 4.68-1.8 7.85-2.07 1.48-.65 3-1.2 4.53-1.69l1.65-.5c.26-.01.55.3.74.42z" clip-rule="evenodd"/>
    <path fill="#FFF" fill-rule="evenodd" d="M62.77 89.29c.25-.26.38-.57.34-.95a7.27 7.27 0 0 0-2.25-2.6c-.56-.08-.88.06-1.07.31a3.02 3.02 0 0 0-.42 2.49c.26.43.52.86 1.07.99.88.28 1.61.04 2.33-.24zM69.97 86.45c.81-.9.07-1.77-.63-2.35-.44-.36-.92-.57-1.42-.91-.52-.05-.74.16-.9.4-.44.74-.41 1.42-.16 2.22.26.39.56.94 1.08 1.04.83.23 1.37-.11 2.03-.4z" clip-rule="evenodd"/>
    <path fill="#957951" fill-rule="evenodd" d="M59.16 88.75c.37.92 1.33 1.35 2.73.93 1.55-.47 1.69-.89.99-2.18a5.24 5.24 0 0 0-1.61-1.77c-2.36-1.67-2.54 1.95-2.11 3.02zm.71-.3c-.16-.5-.19-1.52.28-2.01.24-.25.29-.37.83.04.5.38.78.74 1.09 1.27.58.99.52.96-.64 1.25-1.03.26-1.32.19-1.56-.55zM69.49 87.09c1.34-.71 1.49-1.1.89-2.16a4.94 4.94 0 0 0-1.68-1.56c-3-1.73-3.4 5.3.79 3.72zm-.39-.67c-2.76 1.11-2.23-3.59-.67-2.38.48.37.93.66 1.27 1.14.41.8.31.75-.6 1.24z" clip-rule="evenodd"/>
    <radialGradient id="grd_106" cx="91.93" cy="53.36" r="3.29" gradientTransform="rotate(-26.05 120.7 120.46)" gradientUnits="userSpaceOnUse">
      <stop offset="0" stop-color="#806a62"/>
      <stop offset="1" stop-color="#48290e"/>
    </radialGradient>
    <path fill="url(#grd_106)" fill-rule="evenodd" d="M67.79 71.21c-1.51 0-2.97.07-4.11.63-.73.5-1.17 1.03-1.18 1.6l.42-.01c.41.75.64.97.79.92.98-1.44 2.51-1.39 4.17-.97l-.09-2.17z" clip-rule="evenodd"/>
    <radialGradient id="grd_107" cx="79.65" cy="53.82" r="2.97" gradientTransform="rotate(-26.05 120.7 120.46)" gradientUnits="userSpaceOnUse">
      <stop offset="0" stop-color="#806a62"/>
      <stop offset="1" stop-color="#48290e"/>
    </radialGradient>
    <path fill="url(#grd_107)" fill-rule="evenodd" d="M57.13 77.59c-.21-.32-.34-.63-.61-1.04-1.61.61-3.02 1.34-3.78 2.34-.4.95.13 1.27 1.25 1.19a11.23 11.23 0 0 1 3.14-2.49z" clip-rule="evenodd"/>
    <linearGradient id="grd_108" x1="71.63" x2="76.42" y1="82.95" y2="96.86" gradientTransform="rotate(-26.05 120.7 120.46)" gradientUnits="userSpaceOnUse">
      <stop offset="0" stop-color="#b99f66"/>
      <stop offset="1" stop-color="#fff"/>
    </linearGradient>
    <path fill="url(#grd_108)" fill-rule="evenodd" d="M72.61 115.32c-.76-5.58-3.11-8.58-8.24-5.19-2.82-.75-5.42 1.23-6.53 4.28 1.44 3.27 5.4 4.35 8.91 3.45a30.3 30.3 0 0 0 5.86-2.54z" clip-rule="evenodd"/>
    <path fill="#FFF" fill-rule="evenodd" d="M66.45 109.04c-1.78-1.37-2.8-3.62-2.19-7.78-2.87.4-5.45-.09-7.57-1.89-.49 1.47-1.21 1.92-1.88 2.55.39 4.71.97 9.31 3.07 12.92 1.74-5.02 4.41-5.49 6.42-4.51.2-.38.89-.81 2.15-1.29z" clip-rule="evenodd"/>
    <path fill="#957951" fill-rule="evenodd" d="M66.7 108.97c-1.62-1.88-2.84-4.26-1.96-7.64l-1.03.15c-.77 3.69.37 6.23 2.15 7.89l.84-.4z" clip-rule="evenodd"/>
    <path fill="#2D1619" fill-rule="evenodd" d="M67.5 73.58c-1.52-.49-3.5-.42-3.55 1.33-.47-.34-.77-.66-.91-1.21-.42-.42-.67.6-.8.35-.04-1.81 1.53-3.08 4.97-3.04 1.02.01.87-.1.84.82-.01.44-.01.83.1 1.29.24 1.13.52.84-.65.46zm-4.75-.41c.28-.09.47.49.69.75.36.43.36.05.63-.25.42-.45 1.13-.8 2.43-.74.55.03 1.28.18.43-.5-.98-.79-2.77-.05-3.63.75 1.03-1.81 3.94-1.89 4.53 0l-.15-1.08c-.09-.67.05-.6-.66-.65-1.78-.13-3.45.18-4.27 1.72zM56.39 76.66a11.07 11.07 0 0 0-2.66 2.15c1.03-.77 2.49-2.33 3.15-1.38a8.65 8.65 0 0 0-2.85 2.34c-.3.02-.64.03-.83-.04-.93-.31.09-1.38.56-1.74.76-.6 1.79-.83 2.63-1.33zm.64.5a1.75 1.75 0 0 1-.17-.44c-.1-.31-.34-.39-.71-.25a7.98 7.98 0 0 0-2.79 1.46c-1.16.97-1.61 2.28.44 2.23l.1.78a6.17 6.17 0 0 1 2.89-3.07c.77-.42.57-.14.24-.71z" clip-rule="evenodd"/>
    <path fill="#957951" fill-rule="evenodd" d="M77.66 92.79c.14 3.32-4.44 5.68-9.28 7.06-5.07 1.44-10.58 1.02-11.5-1.8-.12.45-.17 1.25-.29 1.7 2.01 2.5 6.9 2.53 11.8 1.23 5.21-1.39 9.83-3.97 10.31-7.26-.26-.2-.77-.75-1.04-.93zM72.78 115.15c-.32-5.33-3.36-8.92-8.96-5.14l.87.7c4.22-3.28 7.1.06 7.11 4.74.25-.06.74-.24.98-.3z" clip-rule="evenodd"/>
    <path fill="#957951" fill-rule="evenodd" d="M67.16 114.83c-.42-2.75-2.33-6.47-5.79-5.17a6.6 6.6 0 0 0-4.09 4.59c.15.17.44.63.59.8.38-1.93 2-3.77 3.86-4.42 2.85-1 4.46 2.25 5.43 4.2z" clip-rule="evenodd"/>
    <path fill="#957951" fill-rule="evenodd" d="M54.38 102.15c1.03 8.17 1.24 18.52 12.55 16.16 2.65-.78 5.43-1.69 7.87-3.43-.19-.14-.56-.67-.75-.81a32.97 32.97 0 0 1-7.22 3.15c-10.84 1.77-10.64-7.9-11.53-15.99-.24.21-.68.72-.92.92zM78.87 87.61c-.41-.27-.41-.15-.82-.42-3.48 4.74.5 9.73 6.28 8.01-4.06.06-8.35-2.52-5.46-7.59z" clip-rule="evenodd"/>
    <path fill="#957951" fill-rule="evenodd" d="M54.54 93.76c.07.07-.37.7-.55 1.08 4.83 3.36.46 7.51-3.98 8.94 6.93-.39 10.2-6.81 4.53-10.02z" clip-rule="evenodd"/>
  </g>
<style>
/* <![CDATA[ */

#flame1 {animation-name: flame1}
#flame2 {animation-name: flame2}
#flame3 {animation-name: flame3}
#flame4 {animation-name: flame4}

@keyframes flame1 {0.00%{visibility: visible} 25.00%{visibility: hidden}}
@keyframes flame2 {25.00%{visibility: visible} 50.00%{visibility: hidden}}
@keyframes flame3 {50.00%{visibility: visible} 75.00%{visibility: hidden}}
@keyframes flame4 {75.00%{visibility: visible} 100.00%{visibility: hidden}}

/* ]]> */
</style>
</svg>
