<svg xmlns="http://www.w3.org/2000/svg" width="200" height="200" viewBox="0 0 240 240">
  <g id="strick">
    <path fill="#94571F" fill-rule="evenodd" stroke="#000" stroke-miterlimit="2.61" stroke-width=".1" d="m135.81 48.13-1.07-6.35-10.2-3.02-2.86-8.33-3.44-2.9 6.25.76 2.61 6.17 11.3 1.53 5.21 7.75z" clip-rule="evenodd"/>
    <path fill="#B5793E" fill-rule="evenodd" d="M140.33 46.85c-1.34-1.93-1.4-.66-2.58-4.27-.75-2.28 2.19-4.5-2.11-4.81 2.43.88 1.99.79 1.44 4.06-.75 4.49 1.53 3.74 2.9 5.38.79.94 1.44 1.91 1.91 2.94l.45-.05c-.61-1.27-1.41-2.39-2.01-3.25zm-19.92-18.58c7.92 5.53 3.33 6.81 11.71 11.45-1.87 0-4.04-.8-6.01-1.89-.07-1.43-.51-2.2-1.29-3.44a27.49 27.49 0 0 0-2.44-1.99l-.22-.65a18.3 18.3 0 0 1 2.98 2.34c.65 1.14 1.26 1.81 1.55 3.27 1.2.83 2.49 1.92 4.09 1.83-1.72-.76-3.34-2.07-3.93-3.3a12.7 12.7 0 0 0-1.69-2.69c-1.12-1.37-2.6-3.62-4.75-4.93zM135.2 39.7c-1.94.35-4.74-2.79-4.13-2.95.85.45 1.44.64 1.88.78.95.31 1.28.4 2.25 2.17zm.75.78c-2.46-.77-5.22-2.02-5.82-4.58 1.54.53 3.07 1 4.64 1.94a4.61 4.61 0 0 1 1.18 2.64z" clip-rule="evenodd"/>
    <path fill="#4A2805" fill-rule="evenodd" d="m136.54 49.92-2.54-8-12.51-4.04.69-.99 1.44.48-2.64-6.82-2.66-2.09-1.92-.7-1.15-1.29 9.81 1.68 2.42 5.71 8.85 1.88 1.19-.2 1.31-.46 5.57 8.29-1.78 1.16-4.02-7.39-12.16-2.25.03-.17-.15.04-1.88-5.91-4.62-.66 2.33 1.74 2.66 7.83 10.36 3.26 2.22 7.83z" clip-rule="evenodd"/>
    <linearGradient id="grd_92" x1="1921.05" x2="1973.14" y1="167.44" y2="261.42" gradientTransform="matrix(-.96 .27 .27 .96 1976.3 -648.73)" gradientUnits="userSpaceOnUse">
      <stop offset="0" stop-color="#e8d5ab"/>
      <stop offset=".63" stop-color="#fbf9f7"/>
      <stop offset="1" stop-color="#fff"/>
    </linearGradient>
    <path fill="url(#grd_92)" fill-rule="evenodd" d="M152.47 40.54a292.54 292.54 0 0 0-28.99 11.77c-3.22 2.42-6.34 5.11-8.19 11.41-3.05 9.87 1.65 20.6 5.38 29.53 6.06 14.53 14.13 29.5 16.07 28.84 1.84 3.97 16.43 2.79 29.58-2.63 7.72-1.82 32.91-12.99 37.08-22.94l-1.23-2.66a866.81 866.81 0 0 0-18.79-41.53c-5.76-8.29-7.3-14.37-12.65-14.32-6.04.06-10.02 2.12-18.26 2.53z" clip-rule="evenodd"/>
    <linearGradient id="grd_93" x1="1962.17" x2="1991" y1="244.91" y2="180.16" gradientTransform="matrix(-.96 .27 .27 .96 1976.3 -648.73)" gradientUnits="userSpaceOnUse">
      <stop offset="0" stop-color="#f8ecd6"/>
      <stop offset="1" stop-color="#e3c990"/>
    </linearGradient>
    <path fill="url(#grd_93)" fill-rule="evenodd" d="M122.89 53.37a22.34 22.34 0 0 0-4.76 6.88c-1.53 3.38-2.72 6.07-2.05 10.06 4.95 29.23 21.59 34.2 20.37 45.3 9.67-7.71 16.83-10.52 20.67-10.57-8.11 4.01-16.47 9.21-21.98 15.64-.91-.99-.83-1.12-1.74-2.11-10.44-17.63-18.18-34.58-19.33-49.9 2.45-12.41 5.66-13.47 8.82-15.3z" clip-rule="evenodd"/>
    <linearGradient id="grd_94" x1="1919.95" x2="1965.6" y1="222.38" y2="266.46" gradientTransform="matrix(-.96 .27 .27 .96 1976.3 -648.73)" gradientUnits="userSpaceOnUse">
      <stop offset="0" stop-color="#e1c082"/>
      <stop offset="1" stop-color="#fbf9f7"/>
    </linearGradient>
    <path fill="url(#grd_94)" fill-rule="evenodd" d="M142.26 123.87c-2.09.26-3.27-.51-2.87-1.77-.59-.64 11.97-9.77 21.57-12.55 1.12-1.51 1.13-2.53-2.31-2.02 9.46-4.33 33.74-12.67 44.21-11.32.38.95-.68 2.7-2.2 4.49-9.69 8.54-21.31 14.19-33.89 18.46-8 3.78-15.05 4.99-24.51 4.71z" clip-rule="evenodd"/>
    <linearGradient id="grd_95" x1="1995.55" x2="1902.61" y1="245.41" y2="182.71" gradientTransform="matrix(-.96 .27 .27 .96 1976.3 -648.73)" gradientUnits="userSpaceOnUse">
      <stop offset="0" stop-color="#e3c992"/>
      <stop offset=".03" stop-color="#e1c790"/>
      <stop offset=".26" stop-color="#cfb381"/>
      <stop offset="1" stop-color="#75624a"/>
    </linearGradient>
    <path fill="url(#grd_95)" fill-rule="evenodd" d="M177.77 114.7c11.34-5.56 18.82-10.35 23.24-15.29 5.27-5.89-3.4-4.41-6.81-3.98-7.05.9-15.01 3.06-22.77 5.67 10.13-5.21 20.54-8.22 29.09-7.5l1.07.26.13.04c-.65-1.58-1.3-3.16-1.97-4.74l-1.73-1.27c-4-9.04-5.9-11.14-9.62-19.55 4.11 7.47 5.13 9.25 9.65 16.89-3.38-7.73-17.32-39.1-23.25-43.94-3.02-2.46-7.71-3.06-12-1.3-4.48.92-7.84 1.56-10.96 2.29l-.09.79c-5.71 1.52-11.05 2.77-16.21 5.09a103.4 103.4 0 0 0-7.67 3.82c-6.02 3.32-8.47 4.35-10.7 10.79-3.4 9.84-1.1 15.6 2.25 25.09 3.49 9.89 8.91 18.75 13.98 27.73.84 1.48 1.93 3.55 3.57 4.44 9.06-9.41 18.38-13.3 28.04-16.51-9.16 4.31-17.62 8.8-24.33 14.84 6.27-4.76 12.44-7.73 18.28-9.11-6.93 2.62-15.58 7.7-19.22 11.31-2.05 2.03-2.19 2.55 1.01 2.68 10.1.43 18.6-1.61 26.36-4.8.24.43.6 1.18.84 1.61-8.97 3.38-18.03 5.46-27.28 4.82-1.72-.12-3.05-.37-3.72-1.88-2.57-.29-4.31-4.65-5.44-6.52a163.5 163.5 0 0 1-13.54-28.09c-3.28-9.06-6.43-16.79-2.87-26.38 2.74-7.39 4.99-8.09 11.84-11.82 2.58-1.41 5.21-2.31 7.82-3.49 5.76-2.6 11.41-4.96 17.28-6.42l-.04.28c3.3-.89 6.65-1.55 10.97-2.45 5.67-2.12 10.71-1.21 13.76 1.74 5.25 5.08 24.98 50.95 26.44 54.78 1.57 1.29 1.14 3.41-.35 5.2-3.87 4.63-13.48 10.59-23.77 16.21-.38-.27-.91-1.05-1.28-1.33z" clip-rule="evenodd"/>
    <path fill="#BA9E67" fill-rule="evenodd" d="M135.58 73.77c1.12-.52 1.87-.85 3.01-1.31a29.08 29.08 0 0 0-4.72 3.97c.66-.53 2.96-2.3 3.71-2.79.21.21.41.31.72.4a47.02 47.02 0 0 1 3.51-2.82 45.16 45.16 0 0 1 11.57-2.45c-2.44-.07-4.76.14-6.99.56.75-.23 1.47-.41 2.14-.54.07-.23.08-.49 0-.73-1.2.24-2.47.65-3.73 1.16a48.61 48.61 0 0 1 4.38-2.4c-2.18.64-4.7 1.76-7.24 3.67-1.54.5-3.04 1.1-4.51 1.75-.53.23-1.05.48-1.57.72-.21.18-.22.6-.28.81z" clip-rule="evenodd"/>
    <path fill="#FFF" fill-rule="evenodd" d="M145.75 69.29a1.1 1.1 0 0 1-.88-.48 7.37 7.37 0 0 1-.05-3.44c.37-.43.7-.54 1-.48.9.24 1.55.78 1.96 1.58.09.49.19.99-.14 1.45-.46.79-1.17 1.1-1.89 1.37zM138.49 71.96c-1.2-.14-1.23-1.27-1.09-2.17.09-.56.31-1.04.45-1.62.36-.38.66-.37.94-.29.82.26 1.25.79 1.6 1.55.06.46.21 1.08-.12 1.49-.47.71-1.1.81-1.78 1.04z" clip-rule="evenodd"/>
    <path fill="#957951" fill-rule="evenodd" d="M148.09 66.49c-.39-1.09-2.93-3.67-3.58-.85-.18.78-.2 1.63-.02 2.39.33 1.43.71 1.65 2.19.97 1.32-.62 1.75-1.58 1.41-2.51zm-1.54 1.7c-1.06.55-1.08.62-1.3-.51a3.91 3.91 0 0 1-.03-1.67c.13-.67.24-.61.59-.59.68.05 1.34.84 1.55 1.32.31.7.14.95-.81 1.45zM139.27 72.11c4.18-1.61-.79-6.59-1.88-3.31a5.1 5.1 0 0 0-.22 2.28c.25 1.2.62 1.39 2.1 1.03zm-1.42-1.29c-.07-.58.07-1.1.19-1.7.37-1.94 3.88 1.21 1.08 2.22-1 .25-1.05.36-1.27-.52z" clip-rule="evenodd"/>
    <radialGradient id="grd_96" cx="1965.87" cy="184.94" r="3.29" gradientTransform="matrix(-.96 .27 .27 .96 1976.3 -648.73)" gradientUnits="userSpaceOnUse">
      <stop offset="0" stop-color="#806a62"/>
      <stop offset="1" stop-color="#48290e"/>
    </radialGradient>
    <path fill="url(#grd_96)" fill-rule="evenodd" d="M129.98 59.12c1.13-1.01 2.27-1.92 3.49-2.26.88-.11 1.55-.01 1.94.41a8 8 0 0 0-.32.28c.2.83.17 1.16.02 1.21-1.69-.42-2.8.63-3.76 2.05l-1.37-1.69z" clip-rule="evenodd"/>
    <radialGradient id="grd_97" cx="1953.58" cy="185.41" r="2.97" gradientTransform="matrix(-.96 .27 .27 .96 1976.3 -648.73)" gradientUnits="userSpaceOnUse">
      <stop offset="0" stop-color="#806a62"/>
      <stop offset="1" stop-color="#48290e"/>
    </radialGradient>
    <path fill="url(#grd_97)" fill-rule="evenodd" d="M142.19 56.8c-.06-.38-.17-.7-.24-1.18 1.61-.62 3.15-1.01 4.38-.76.93.44.75 1.04-.14 1.73-1.58-.2-2.84-.06-4 .21z" clip-rule="evenodd"/>
    <linearGradient id="grd_98" x1="1945.56" x2="1950.35" y1="214.53" y2="228.44" gradientTransform="matrix(-.96 .27 .27 .96 1976.3 -648.73)" gradientUnits="userSpaceOnUse">
      <stop offset="0" stop-color="#b99f66"/>
      <stop offset="1" stop-color="#fff"/>
    </linearGradient>
    <path fill="url(#grd_98)" fill-rule="evenodd" d="M155.71 95.27c-3.14-4.68-3.38-8.48 2.7-9.36 1.61-2.43 4.87-2.69 7.73-1.15 1.1 3.4-1.14 6.84-4.37 8.5-1.6.83-3.76 1.45-6.06 2.01z" clip-rule="evenodd"/>
    <path fill="#FFF" fill-rule="evenodd" d="M156.14 86.48c.42-2.21-.32-4.57-3.53-7.27 2.41-1.61 4.01-3.69 4.4-6.45 1.35.78 2.18.63 3.1.65 2.84 3.78 5.47 7.6 6.3 11.69-4.63-2.59-6.95-1.17-7.79.9-.42-.13-1.23.01-2.48.48z" clip-rule="evenodd"/>
    <path fill="#957951" fill-rule="evenodd" d="M155.91 86.6c-.04-2.49-.72-5.07-3.61-7.01l.87-.58c3.03 2.24 3.87 4.9 3.64 7.32l-.9.27z" clip-rule="evenodd"/>
    <path fill="#2D1619" fill-rule="evenodd" d="M131.77 60.7c-.62 1.06-.22 1.1-.78.08a4.77 4.77 0 0 0-.79-1.03c-.63-.67-.67-.49.09-1.17 2.54-2.31 4.56-2.41 5.73-1.03.07.28-.79-.32-.83.27.26.51.25.94.12 1.51-1.2-1.28-2.73-.01-3.54 1.37zm-1.06-1.91c-.49.51-.43.37-.06.93l.61.91c-.81-1.81 1.41-3.68 3.38-3.01-1.18-.02-3 .61-3.21 1.86-.18 1.07.26.47.65.09.92-.91 1.69-1.12 2.3-1.06.4.04.64.33.63-.23-.01-.34-.25-.9.02-1.02-1.62-.63-3.08.25-4.32 1.53zM142.12 55.61c.95-.19 1.88-.69 2.85-.76.59-.04 2.06.08 1.57.93-.1.18-.36.39-.6.58a8.86 8.86 0 0 0-3.69.15c-.14-1.15 1.99-.95 3.28-1.06-.96-.17-2.16-.04-3.41.16zm.5 1.17a6.15 6.15 0 0 1 4.2.37l-.44-.65c1.56-1.33.35-2-1.16-1.95-.94.03-1.95.27-3.05.77-.37.14-.5.36-.37.66.09.15.14.29.16.44.14.64-.19.56.66.36z" clip-rule="evenodd"/>
    <path fill="#957951" fill-rule="evenodd" d="M136.95 81.8c2.1 2.58 7.09 1.29 11.62-.9 4.75-2.29 8.58-6.27 7.39-8.99.39.26.96.82 1.35 1.07.16 3.2-3.47 6.48-8 8.76-4.82 2.43-9.99 3.57-12.53 1.43.08-.3.1-1.05.17-1.37zM155.46 95.26c-3.31-4.19-3.41-8.9 3.27-9.8-.03.24-.15.86-.18 1.11-5.34.35-5.26 4.76-2.16 8.27-.21.11-.7.31-.93.42z" clip-rule="evenodd"/>
    <path fill="#957951" fill-rule="evenodd" d="M159.46 91.29c-1.52-2.33-2.56-6.39.89-7.71a6.6 6.6 0 0 1 6.11.71c0 .22.09.77.09.99a6.26 6.26 0 0 0-5.82-.74c-2.81 1.15-1.84 4.64-1.27 6.75z" clip-rule="evenodd"/>
    <path fill="#957951" fill-rule="evenodd" d="M160.57 73.32c4.67 6.79 11.39 14.66 1.37 20.42-2.5 1.18-5.18 2.35-8.16 2.67.04-.23-.03-.87.02-1.1a33.04 33.04 0 0 0 7.49-2.45c9.28-5.88 2.7-12.98-2.02-19.61.31-.01.98.08 1.3.07zM132.61 78.74c.13-.48.21-.38.33-.86 5.75 1.22 6.1 7.6.63 10.17 3.08-2.67 4.57-7.44-.96-9.31z" clip-rule="evenodd"/>
    <path fill="#957951" fill-rule="evenodd" d="M154.87 67.15c-.01.1.74.28 1.13.44-1.38 5.72 4.64 5.91 8.92 4.03-5.44 4.32-12.15 1.7-10.05-4.47z" clip-rule="evenodd"/>
    <path fill="#94571F" fill-rule="evenodd" stroke="#000" stroke-miterlimit="2.61" stroke-width=".1" d="m52.67 71.35-3.38-5.17 5.18-8.95-3.44-7.76.53-4.34-3.89 4.73 2.19 6.06-6.91 8.65 1.4 8.93z" clip-rule="evenodd"/>
    <path fill="#B5793E" fill-rule="evenodd" d="M48.68 73.48c-.32-2.25.55-1.4-.98-4.73-.96-2.1-4.47-1.69-1.65-4.79-1.13 2.24-.88 1.88 1.64 3.81 3.45 2.65 1.36 3.65 1.48 5.72.06 1.19.24 2.3.58 3.34l-.35.27c-.41-1.3-.58-2.62-.72-3.62zm1.84-26.38c-1.94 9.19 2.11 7-.74 15.87 1.31-1.26 2.31-3.27 2.97-5.35-.89-1.05-1.08-1.89-1.34-3.28.08-1.01.22-2.03.41-3.03l-.27-.6a17.9 17.9 0 0 0-.56 3.64c.29 1.23.29 2.11 1.05 3.33-.3 1.38-.5 3.01-1.67 4.02.71-1.69.99-3.69.61-4.95-.32-1.03-.5-1.95-.57-3.02-.12-1.7-.54-4.27.11-6.63zM47.6 65.03c1.58-1.06 1.5-5.13.97-4.83-.31.88-.59 1.41-.81 1.81-.45.84-.63 1.13-.16 3.02zm-.01 1.05c1.22-2.19 2.34-4.91 1.09-7.11-.73 1.4-1.5 2.76-1.99 4.47.08 1.26.43 2.05.9 2.64z" clip-rule="evenodd"/>
    <path fill="#4A2805" fill-rule="evenodd" d="m53.34 73.09-3.45-7.31 6.14-11.21-1.13-.24-.7 1.3-2.6-6.54.51-3.25.88-1.78-.03-1.68-5.78 7.76 2.03 5.62-4.97 7.25-.98.66-1.2.55 1.49 9.55 2-.38-2-7.87 7.06-9.74-.13-.09.13-.07-2.53-5.41 2.8-3.56-.5 2.78 3.24 7.27-5.13 9.23 3.55 6.98z" clip-rule="evenodd"/>
    <linearGradient id="grd_99" x1="47.12" x2="99.2" y1="35.86" y2="129.83" gradientTransform="rotate(-26.05 120.7 120.46)" gradientUnits="userSpaceOnUse">
      <stop offset="0" stop-color="#e8d5ab"/>
      <stop offset=".63" stop-color="#fbf9f7"/>
      <stop offset="1" stop-color="#fff"/>
    </linearGradient>
    <path fill="url(#grd_99)" fill-rule="evenodd" d="M38.64 72.28A291.49 291.49 0 0 1 68.12 61.8c4.01-.33 8.13-.4 13.71 3.08 8.84 5.34 12.46 16.48 15.62 25.63 5.13 14.89 9.06 31.42 7.17 32.22 1.26 4.19-10.42 13.01-23.85 17.7-6.97 3.77-33.22 12.17-42.95 7.52l-.85-2.8a868.34 868.34 0 0 1-13.58-43.52c-1.21-10.03-4.1-15.59-.07-19.1 4.54-3.97 8.89-5.07 15.32-10.25z" clip-rule="evenodd"/>
    <linearGradient id="grd_100" x1="88.24" x2="117.06" y1="113.33" y2="48.58" gradientTransform="rotate(-26.05 120.7 120.46)" gradientUnits="userSpaceOnUse">
      <stop offset="0" stop-color="#f8ecd6"/>
      <stop offset="1" stop-color="#e3c990"/>
    </linearGradient>
    <path fill="url(#grd_100)" fill-rule="evenodd" d="M69.26 62.2c2.65.12 5.36.74 8.13 1.98 3.39 1.51 6.07 2.73 8.22 6.15 15.74 25.12 6.62 39.9 14.91 47.38-12.35.67-19.56 3.33-22.46 5.84 8.72-2.4 18.42-4.07 26.82-2.93.03-1.34-.13-1.39-.1-2.73-3.93-20.11-9.42-37.92-18.74-50.12-10.1-7.65-13.2-6.31-16.78-5.57z" clip-rule="evenodd"/>
    <linearGradient id="grd_101" x1="46.02" x2="91.67" y1="90.8" y2="134.88" gradientTransform="rotate(-26.05 120.7 120.46)" gradientUnits="userSpaceOnUse">
      <stop offset="0" stop-color="#e1c082"/>
      <stop offset="1" stop-color="#fbf9f7"/>
    </linearGradient>
    <path fill="url(#grd_101)" fill-rule="evenodd" d="M101.67 127.74c1.74-1.2 2.1-2.55.97-3.24.02-.87-15.44.66-24.45 4.97-1.84-.38-2.52-1.14.38-3.05-9.94 3.06-33.62 12.97-40.55 20.94.35.96 2.3 1.57 4.63 1.89 12.92-.06 25.35-3.57 37.59-8.75 8.48-2.49 14.55-6.26 21.43-12.76z" clip-rule="evenodd"/>
    <linearGradient id="grd_102" x1="121.62" x2="28.67" y1="113.82" y2="51.13" gradientTransform="rotate(-26.05 120.7 120.46)" gradientUnits="userSpaceOnUse">
      <stop offset="0" stop-color="#e3c992"/>
      <stop offset=".03" stop-color="#e1c790"/>
      <stop offset=".26" stop-color="#cfb381"/>
      <stop offset="1" stop-color="#75624a"/>
    </linearGradient>
    <path fill="url(#grd_102)" fill-rule="evenodd" d="M69.05 144.5c-12.17 3.38-20.94 4.78-27.52 4.03-7.86-.9-.39-5.56 2.44-7.5 5.86-4.02 13.25-7.7 20.78-10.9-11.03 2.85-20.81 7.51-26.72 13.75l-.62.91-.07.12c-.57-1.61-1.13-3.23-1.68-4.85l.44-2.1c-3.02-9.41-3-12.25-5.82-21 1.9 8.31 2.31 10.32 4.02 19.03-2.62-8.02-13.06-40.72-11.85-48.28.61-3.85 3.73-7.41 8.1-8.95 3.96-2.29 6.89-4.05 9.71-5.57.24.22.45.42.6.53 5.28-2.66 10.1-5.28 15.49-6.97 2.88-.9 5.53-1.63 8.27-2.25 6.7-1.52 9.22-2.38 15.17.95 9.09 5.09 11.2 10.92 15.01 20.24 3.97 9.71 5.81 19.92 8 30.01.36 1.66.92 3.94.29 5.69-13.02-1-22.57 2.28-31.92 6.31 9.71-2.87 19.01-5.14 28.04-5.09-7.85.61-14.43 2.5-19.71 5.35 6.92-2.65 16.76-4.61 21.87-4.33 2.89.16 3.33.44 1.03 2.68-7.26 7.04-14.96 11.16-22.88 13.95.1.48.34 1.28.44 1.76 8.95-3.44 17.1-7.91 23.58-14.54 1.2-1.23 2.03-2.31 1.53-3.88 1.73-1.93.13-6.34-.28-8.49a162.64 162.64 0 0 0-8.57-29.98c-3.57-8.95-6.36-16.81-15.39-21.61-6.96-3.7-9.11-2.73-16.71-.96-2.86.67-5.43 1.74-8.16 2.59-6.03 1.89-11.83 3.88-17.17 6.69l.22.18c-3.05 1.53-6 3.27-9.82 5.46-5.64 2.19-8.81 6.22-9.12 10.45-.54 7.29 15.22 54.66 16.68 58.49-.32 2.01 1.42 3.31 3.72 3.65 5.97.89 17.11-1.05 28.53-3.69.08-.49-.04-1.43.05-1.88z" clip-rule="evenodd"/>
    <linearGradient id="grd_103" x1="81.91" x2="125.27" y1="235.84" y2="138.47" gradientTransform="rotate(-26.05 120.7 120.46)" gradientUnits="userSpaceOnUse">
      <stop offset="0" stop-color="#5c3a10"/>
      <stop offset="1" stop-color="#94571e"/>
    </linearGradient>
    <path fill="url(#grd_103)" fill-rule="evenodd" d="M174.93 239.18a70.1 70.1 0 0 1-2.75-7.23 142.49 142.49 0 0 0-21.28-13.25c-1.85.1-3.74.09-5.79-.22-5.53-9.21-10.31-19.66-15.75-29.31-7.93-6.51-15.87-13.26-23.06-22.68-8.22-4.06-19.62-6.56-30.02-9.55-4.72-5.71-7.74-11.54-10.44-17.71 1.78-1.4 4.06-3.04 5.02-4.03 2.56.19 3.89.82 5.39 1.03a118.25 118.25 0 0 0 12.02 16.18 77.94 77.94 0 0 0 25.2 2.18c5.9 7.76 12.07 13.09 18.71 17.94l10.21-1.94c.62-2.85 2.61-3.96 4.68-4.96a310.48 310.48 0 0 0 23.6-31.38 73.68 73.68 0 0 0-2.94-17.64l2.08-4.45 6.63-.95c2.9 4.4 5.56 9.59 7.75 15.86a32.06 32.06 0 0 1-2.91 5.24l1.48 3.85c-4.56 9.44-12.09 18.73-21.78 27.63a102.08 102.08 0 0 0-7.03 24.61c2.63 7.44 5.96 12.1 9.34 16.61 11.51 3.79 22.66 7.74 33.73 11.74 1.66 3.31 3.37 6.43 5.15 9.37l-1.33.5 2.42 4.95-4.88 1.57-2.45-4.12-4.24 2.89.69 4.97-4.12-5.75-1.79 7.01-6.96 1.77-2.61-4.45-1.97 3.72z" clip-rule="evenodd"/>
    <linearGradient id="grd_104" x1="65.78" x2="154.1" y1="253.91" y2="106.91" gradientTransform="rotate(-26.05 120.7 120.46)" gradientUnits="userSpaceOnUse">
      <stop offset="0" stop-color="#885d20"/>
      <stop offset="1" stop-color="#bc7c42"/>
    </linearGradient>
    <path fill="url(#grd_104)" fill-rule="evenodd" d="M71.19 138.53c1.44 5.05 3.66 10.53 7.4 11.85 1.42-5.52-4.04-12.45-7.4-11.85zm48.03 34.54c-2.14-1.41-4.45-3.37-4.3-6.05 1.33.93 2.67 1.79 3.92 3.13.51 1.22.54 2.14.38 2.92zm-.5-.97c-.43-2-.73-2.18-1.55-2.73-.39-.26-.9-.61-1.59-1.27-.63 0 1.18 3.83 3.14 4zm-5.16-5.81c1.52 3.72 3.67 7.72 6.64 8.45.65-4.3-4.11-9.15-6.64-8.45zm-.57-.23c2.88 5.51 3.05 7.84 8.65 10.23-1.23-10.66-8.21-11.08-8.65-10.23zm62.11-19.36c-13.97 12.77-14.36 20.29-14.31 19.87 5.74-11.4 6.31-9.59 15.2-19.41l-.89-.46zm-43.28 34.96c-3.65-2.25-6.15-6.1-8.02-8.45a22.34 22.34 0 0 1-2.84-4.6c-.99-2.1-3.73-4.35-6.65-5.66 2.71-.13 4.9 1.74 6.94 3.16.47 2.5 1.51 3.64 2.6 5.59 3.77 3.76 8.65 6.45 13.65 8.1a46.25 46.25 0 0 1-13.11-8.6c-1.32-2.11-2.06-3.44-2.16-5.88-3.33-1.89-7.02-3.27-10.2-3.3 14.2 8 6.37 10.12 19.79 19.64zm28.67-20.03c-3.31 5.22-9.05 14.62-16.52 16.75 7.17-4.08 11.82-9.77 15.8-16.76 2.42-4.25.48-6.49 8.39-11.66 5.77-3.77 5.74-3.01 6.55-7.72.7 6.62-3.94 5.47-7.63 9.73-5.86 6.74-3.67 5.05-6.59 9.66zm-34.26 21.93 1.12-.74c-5.27-4.43-11.1-5.56-20.37-22.4-.08-.53.76 9.04 19.25 23.14zm38.62-32.53c-2.62 1.62-5.06 3.36-8.73 4.31-2.45 2.18-4.13 4.88-6.27 7.2 1.4-2.63 3.61-4.68 5.83-7.96 2.81-2 4.61-5.17 6.9-8.09a81.04 81.04 0 0 1-5.41 7.54c2.07.11 5.93-2.31 7.68-3zm9.22-36.22c.2 2.56.46 5.43.48 8.37a47.33 47.33 0 0 1-3.26-6.94 28.57 28.57 0 0 0 3.25 8.29 35.42 35.42 0 0 1-.43 4.95c-.62 3.79 2.29 6.89 2.56 10.32-.78-4.74-2.98-7.92-1.73-10.98.28-.7.44-1.79.51-3.02.21.24.42.44.63.61.93 4.97 1.96 11.52 1.74 17.3.41.01.48.05.9.05.12-5.58-1.1-12.9-2.03-18.21-.4-.22-.79-.58-1.18-1.03.04-1.98-.05-4.04-.11-5.16 3.11 5.41 3.76 12.85 5.71 18.49-1.15-7.99-3.24-18.21-7.04-23.04zm-32.58 67.4c1.69 2.83 3.25 6.41 1.56 9.58-1.02-1.82-2.08-3.57-2.77-5.85.1-1.74.57-2.87 1.21-3.73zm.03 1.43c-.63 2.65-.39 3.02.25 4.11.3.52.69 1.2 1.12 2.37.73.34.81-5.25-1.37-6.48zm-1.78-3.22c.01 5.3.64 11.22 3.84 13.45 2.85-5.04-.47-13.2-3.84-13.45zm-.57-.55c.77 8.13-.16 11.09 5.37 16.57 3.7-13.77-4.43-17.43-5.37-16.57zm26.75-34.63c1-3.4 2.67-7.3 6.31-8.56-.69 2.14-1.29 4.26-2.57 6.53a7.63 7.63 0 0 1-3.74 2.03zm1.09-1.13c2.49-1.6 2.61-2.07 3-3.37.19-.62.44-1.43 1.04-2.65-.25-.79-4.62 3.5-4.04 6.02zm5.63-9.49c-4.35 3.87-8.79 8.66-8.54 12.73 6-1.5 10.52-9.97 8.54-12.73zm.08-.83c-6.17 6.51-9.21 7.97-10.1 16.17 13.71-7.22 11.41-16.08 10.1-16.17zm-13.64 70.58c-13.15-16.94-11.63-25.88-11.69-25.38 3.79 14.23 4.94 12.17 12.86 24.94l-1.17.44zm-15.88-28.09c2.98-2.09 6.14-4.88 7.68-6.93.96-1.28 1.32-2.57 2.17-3.94a23.16 23.16 0 0 1 4.54-4.99c-2.21.08-4.02 1.13-5.69 2.44-.4 2.07-1.25 3.07-2.15 4.74a32.29 32.29 0 0 1-11.17 7.56 43.03 43.03 0 0 0 10.73-7.93c1.09-1.82 1.7-2.95 1.8-4.94a18.6 18.6 0 0 1 8.35-2.78c-10.83 8.49-4.48 9.57-16.26 16.77zm2.33 31.79c1.74 2.89 4.05 6.64 6.04 10.78l-.93-.1a73.46 73.46 0 0 0-5.66-9.8c-3.79-5.62-8.2-4.65-9.1-17.58-.65-9.42.33-8.91-5.28-12.86 9.26 3.29 4.27 8.25 7.12 15.45 4.5 11.38 3.92 7.64 7.81 14.11zm-10.61-7.8c-4.33-12.75-2.19-18.52-2.32-18.1 1.03 15.42 2.59 14 7.87 27.73l-5.55-9.63zm43.01 30.51c-3.52-2.67-7.85-5.86-10.95-9.71-2.37-2.94-6.8-2.99-9.55-5.08 4.1 2.61 8.07 3.2 9.44 6.1.89 1.9 5.07 5.27 6.7 6.59-6.3-1.45-12.32-5.93-17.95-8.33 6.79 4.51 15.94 9.85 22.31 10.43zm-3.59-13.57c7.28 2.7 4.46.17 15.32 6.3 3 1.69 4.5 3.93 6.05 5.67l.2-.14.56.95c1.41 1.37 3.07 2.22 6.02 1.84l.75-.24-.15-.31c-4.82.05-4.58-.78-10.29-6.86-8.85-9.41-11.88-6.1-18.55-8.21-10.97-3.47-20.11-8.24-27.22-16.95 4.26 9.68 19.07 14.89 27.31 17.95zm-6.76-8.06c3.42.32 7.39 1.18 8.91 4.28-2.16-.26-4.29-.45-6.62-1.22a6.2 6.2 0 0 1-2.29-3.06zm1.2.8c2.43-.96 6.99 2.29 6.23 2.65-1.24-.34-2.06-.43-2.68-.5-1.31-.13-1.77-.16-3.55-2.15zm-3.81-.49c2.4-2.43 11.27-.31 13.58 4.75-3.92 1.17-9.2-1.72-13.58-4.75zm-.82.13c-.1-1.21 8.19-5.33 17.14 5.36-8.1 1.09-9.94-1.31-17.14-5.36zm38.45 15.79-.39.73-.19.07c-9.87-7.3-8.09-8.03-19.64-12.28-.42 0 7.21-.38 20.22 11.48zm-48.16-7.66-.89.13c-1.27-2.18-3.39-5.55-5.08-9.1-.94-1.99-1.13-3.75-1.65-5.15-.69-1.86-1.74-3.21-3.7-4.85-.31-.26-2.55-4.57-4.01-7.67a20.37 20.37 0 0 1-1.26-3.04c.5-.01.37-.63.87-.64-.16.49.09 1.95 1.03 3.44.52.81.58 1.93 1.01 2.87 1.05 2.32 2.21 4.45 2.55 4.74 3.77 3.22 3.33 5.34 5.68 10.05 1.77 3.55 4 6.93 5.45 9.22zm37.6 16.89-.37-2.68.52-.36a31.61 31.61 0 0 0-2.04-4.64c-6.26-4.84-34.74-12.43-35.37-15.75l-.58 1.04c1.02 4.23 30.48 9.79 34.86 15.75a38.36 38.36 0 0 1 2.98 6.64zm-5.5 3.22c-2.36-2.88-4.14-6.32-3.15-10.01 1.5 1.61 3.03 3.16 4.41 5.05l-.3 1.19c-.26-.44-.6-.79-1.04-1.25a18.8 18.8 0 0 1-2.3-2.83c-.93-.19.14 5.09 2.51 7.35l-.13.5zm-5.25-11.79c.76 4.36 1.89 8.98 3.76 12.47l-.85.22c-1.64-3.39-2.2-7.35-3.82-13.31.81-1.01 7.62.48 10.35 9.2l-2.49-3.47-.1.37c-1.85-3.31-4.56-5.66-6.85-5.48zm2.1 12.89-.68.17a39.4 39.4 0 0 1-2.02-4.16 10.38 10.38 0 0 0-.5 4.8l-.7.18-.2-.34a26.5 26.5 0 0 1 1.08-7.54 49.76 49.76 0 0 0 3.02 6.89zm-80.5-82.27c-4.97-.82-2.85.42-10.54-2.11-4.86-1.6-5.08-5.9-10.89-2.96 4.49-.99 3.8-.75 8.77 2.76 6.83 4.81 8.33 2.39 12.84 2.91 7.41.86 13.83 2.75 19.47 7.33-3.95-5.51-14.03-7-19.65-7.93zm1.62 5.66-.19.96c-11.95-4.12-10.39-5.31-22.93-6.04-.41.12 6.87-2.4 23.12 5.08zm-31.13-22.53c2.42 2.27 4.91 5.29 4.12 8.74-1.49-1.48-3-2.88-4.29-4.88a6.42 6.42 0 0 1 .17-3.86zm.42 1.36c2.46.62 3.91 5.97 3.1 5.83a13.67 13.67 0 0 0-1.74-1.98c-.92-.87-1.26-1.17-1.36-3.85zm-3.32-3c.69-1.05 9.63.39 9.74 14.44-6.89-3.84-6.78-6.9-9.74-14.44z" clip-rule="evenodd"/>
    <linearGradient id="grd_105" x1="173.22" x2="104.45" y1="282.31" y2="93.37" gradientTransform="rotate(-26.05 120.7 120.46)" gradientUnits="userSpaceOnUse">
      <stop offset="0" stop-color="#28160a"/>
      <stop offset="1" stop-color="#57320d"/>
    </linearGradient>
    <path fill="url(#grd_105)" fill-rule="evenodd" d="M89.52 151.82c-3.93-3.62-7.53-7.93-12.83-15.52-.58-.05-1.11-.16-1.68-.3 4.24 6.67 7.29 11.58 11.65 15.87l-1.19-.2.83 1.69c9.53 1.74 17.89 3.17 26.65 2.23 6.46 8.37 14.15 14.17 21.16 19.22l2.63.81c-.98-.73-1.95-1.47-2.92-2.24 3.77-.04 7.19-.78 10.16-2.44l-.83-1.69-.36.2c1.13-2 2-4.17 2.71-6.43a26.94 26.94 0 0 1-4.35 7.28 16.6 16.6 0 0 1-9.08 1.69 127.5 127.5 0 0 1-18.18-18.19c-8.05.31-15.49-.62-24.37-1.98zm103.36 60.67 1.45.06a53.87 53.87 0 0 1 3.21 4.1c1.11.42 2.23.86 3.35 1.3l-.78 1-1.4-.58c1.69 2.56 3.04 5.02 4.4 7.42l-1.56.59c-1.78-2.97-3.58-6.07-5.48-9.08a302.97 302.97 0 0 0-39.13-12.63l-.01.02-.03-.03-.33-.09.13-.12a80.28 80.28 0 0 1-10.89-13.79c4.04-11.38 8.77-21.34 13.61-31.07-4.26 9.42-8.51 19.07-12.64 30.98a57.05 57.05 0 0 0 10.64 13.24l.56-.5 4.01 1.2c-3.75-4.85-6.8-10.04-8.63-15.83.68-9.02 3.73-17.31 6.98-25.54 9.27-8.26 17.18-17.22 21.63-27.97-.21-.67-.39-1.36-.55-2.06a64.45 64.45 0 0 1-6.89 8.91 59.88 59.88 0 0 0 6.61-10.31c-.6-3.46-.63-7.18-.37-11.06a127.14 127.14 0 0 0-4.6-9.28c.71-.06.57.1 1.29.04 3.3 5.16 5.06 10.66 7.38 16.04-.97 1.7-1.9 3.27-2.84 4.75.2.97.46 1.92.77 2.84l.63.62c-4.3 10.06-12.29 19.48-22.12 28.18-3.41 8.57-6.43 16.39-6.38 24.29 1.5 6.17 5.46 11.45 9.28 16.54a471.6 471.6 0 0 1 30.16 10.45c-.7-1.12-.72-1.58-1.46-2.63zm-18.47 27.66a76.2 76.2 0 0 1-2.99-7.51c-6.23-4.9-12.62-9.4-20.44-13.12-3.28.32-6.3-.15-9.55-.86l.29-1.48c.7.12 1.4.23 2.08.31-4.38-7.39-10.32-17.71-14.57-27.32l-.45.56a158.74 158.74 0 0 1-22.97-23.6c-8.12-3.94-20.88-7.39-29.29-9.22l-.07.03-.04-.05-.44-.09.2-.26a89.15 89.15 0 0 1-10.96-17.82l1.15-.91a98.07 98.07 0 0 0 10.77 17.66l.01-.02c7.05 2.02 19.6 4.71 27.83 8.61-.95-1.27-1.88-2.56-2.79-3.87l2.57.27a99.46 99.46 0 0 0 3.59 5.27c1 .52 1.94 1.04 2.78 1.54l.12 1.08-1.62-.9a111.76 111.76 0 0 0 19.2 19.42c-1.38-3.19-2.58-6.2-3.51-8.85 5.88 11.75 14.55 29.09 20.66 38.67 1.92.14 3.77.15 5.56.02 7.7 3.84 14.2 8.05 19.88 12.51a74.1 74.1 0 0 1-.99-3.53c.56 1.39 1.14 2.76 1.73 4.12.91.73 1.81 1.47 2.68 2.21l-.13 1.4-1.49-1.21c.74 1.64 1.51 3.26 2.29 4.86l-1.09 2.08zm7.29-117.34c-.32 2.75-.31 5.34.04 7.76l1.56-3.01a31 31 0 0 0-1.6-4.75zm-14.65-5.86.76-1.14a62.88 62.88 0 0 1 3.61 16.88l.56-.89-.03 2.02-.44.66.02.97c-.12.51-.72 1.72-.84 2.22l-.15-1.75c-7.54 11.13-15.44 21.85-23.96 31.47-.16-.4-.62-1.41-.78-1.81 9.11-9.71 16.98-20.47 24.2-31.66-.56-5.84-1.01-11.53-2.95-16.97z" clip-rule="evenodd"/>
    <path fill="#C4A362" fill-rule="evenodd" d="M164.44 119.67c2.76-3 4.66-6.34 6.17-10.14.11.69.04 1.46-.16 2.26 3.65-.92 7.1-1.07 10.35-.41-3.69-.06-7.3.49-10.8 1.78a23.5 23.5 0 0 1-4.26 6.56c-.65-.04-.65-.04-1.3-.05zM80.19 135.58c-4.14.18-7.97-.53-11.92-1.85.46.54 1.11.99 1.86 1.35-3.11 2.24-6.38 5.61-7.99 8.58a37.1 37.1 0 0 1 9.35-8.03c2.79.93 6.29 1.08 7.88.98l.82-1.03z" clip-rule="evenodd"/>
    <path fill="#BA9E67" fill-rule="evenodd" d="M73.35 85.88a56.8 56.8 0 0 0-3.12 1.02c1.98-.3 4.29-.33 6.17-.17-.85.05-3.74.25-4.62.38-.02.29-.1.5-.28.78-1.48 0-2.97.07-4.5.22a45.23 45.23 0 0 0-10.27 5.86 32.13 32.13 0 0 1 5.59-4.23c-.71.33-1.37.67-1.95 1.02-.2-.12-.38-.31-.48-.55a21.55 21.55 0 0 1 3.56-1.61c-1.57.28-3.19.65-4.87 1.12 2.05-.97 4.68-1.8 7.85-2.07 1.48-.65 3-1.2 4.53-1.69l1.65-.5c.26-.01.55.3.74.42z" clip-rule="evenodd"/>
    <path fill="#FFF" fill-rule="evenodd" d="M62.77 89.29c.25-.26.38-.57.34-.95a7.27 7.27 0 0 0-2.25-2.6c-.56-.08-.88.06-1.07.31a3.02 3.02 0 0 0-.42 2.49c.26.43.52.86 1.07.99.88.28 1.61.04 2.33-.24zM69.97 86.45c.81-.9.07-1.77-.63-2.35-.44-.36-.92-.57-1.42-.91-.52-.05-.74.16-.9.4-.44.74-.41 1.42-.16 2.22.26.39.56.94 1.08 1.04.83.23 1.37-.11 2.03-.4z" clip-rule="evenodd"/>
    <path fill="#957951" fill-rule="evenodd" d="M59.16 88.75c.37.92 1.33 1.35 2.73.93 1.55-.47 1.69-.89.99-2.18a5.24 5.24 0 0 0-1.61-1.77c-2.36-1.67-2.54 1.95-2.11 3.02zm.71-.3c-.16-.5-.19-1.52.28-2.01.24-.25.29-.37.83.04.5.38.78.74 1.09 1.27.58.99.52.96-.64 1.25-1.03.26-1.32.19-1.56-.55zM69.49 87.09c1.34-.71 1.49-1.1.89-2.16a4.94 4.94 0 0 0-1.68-1.56c-3-1.73-3.4 5.3.79 3.72zm-.39-.67c-2.76 1.11-2.23-3.59-.67-2.38.48.37.93.66 1.27 1.14.41.8.31.75-.6 1.24z" clip-rule="evenodd"/>
    <radialGradient id="grd_106" cx="91.93" cy="53.36" r="3.29" gradientTransform="rotate(-26.05 120.7 120.46)" gradientUnits="userSpaceOnUse">
      <stop offset="0" stop-color="#806a62"/>
      <stop offset="1" stop-color="#48290e"/>
    </radialGradient>
    <path fill="url(#grd_106)" fill-rule="evenodd" d="M67.79 71.21c-1.51 0-2.97.07-4.11.63-.73.5-1.17 1.03-1.18 1.6l.42-.01c.41.75.64.97.79.92.98-1.44 2.51-1.39 4.17-.97l-.09-2.17z" clip-rule="evenodd"/>
    <radialGradient id="grd_107" cx="79.65" cy="53.82" r="2.97" gradientTransform="rotate(-26.05 120.7 120.46)" gradientUnits="userSpaceOnUse">
      <stop offset="0" stop-color="#806a62"/>
      <stop offset="1" stop-color="#48290e"/>
    </radialGradient>
    <path fill="url(#grd_107)" fill-rule="evenodd" d="M57.13 77.59c-.21-.32-.34-.63-.61-1.04-1.61.61-3.02 1.34-3.78 2.34-.4.95.13 1.27 1.25 1.19a11.23 11.23 0 0 1 3.14-2.49z" clip-rule="evenodd"/>
    <linearGradient id="grd_108" x1="71.63" x2="76.42" y1="82.95" y2="96.86" gradientTransform="rotate(-26.05 120.7 120.46)" gradientUnits="userSpaceOnUse">
      <stop offset="0" stop-color="#b99f66"/>
      <stop offset="1" stop-color="#fff"/>
    </linearGradient>
    <path fill="url(#grd_108)" fill-rule="evenodd" d="M72.61 115.32c-.76-5.58-3.11-8.58-8.24-5.19-2.82-.75-5.42 1.23-6.53 4.28 1.44 3.27 5.4 4.35 8.91 3.45a30.3 30.3 0 0 0 5.86-2.54z" clip-rule="evenodd"/>
    <path fill="#FFF" fill-rule="evenodd" d="M66.45 109.04c-1.78-1.37-2.8-3.62-2.19-7.78-2.87.4-5.45-.09-7.57-1.89-.49 1.47-1.21 1.92-1.88 2.55.39 4.71.97 9.31 3.07 12.92 1.74-5.02 4.41-5.49 6.42-4.51.2-.38.89-.81 2.15-1.29z" clip-rule="evenodd"/>
    <path fill="#957951" fill-rule="evenodd" d="M66.7 108.97c-1.62-1.88-2.84-4.26-1.96-7.64l-1.03.15c-.77 3.69.37 6.23 2.15 7.89l.84-.4z" clip-rule="evenodd"/>
    <path fill="#2D1619" fill-rule="evenodd" d="M67.5 73.58c-1.52-.49-3.5-.42-3.55 1.33-.47-.34-.77-.66-.91-1.21-.42-.42-.67.6-.8.35-.04-1.81 1.53-3.08 4.97-3.04 1.02.01.87-.1.84.82-.01.44-.01.83.1 1.29.24 1.13.52.84-.65.46zm-4.75-.41c.28-.09.47.49.69.75.36.43.36.05.63-.25.42-.45 1.13-.8 2.43-.74.55.03 1.28.18.43-.5-.98-.79-2.77-.05-3.63.75 1.03-1.81 3.94-1.89 4.53 0l-.15-1.08c-.09-.67.05-.6-.66-.65-1.78-.13-3.45.18-4.27 1.72zM56.39 76.66a11.07 11.07 0 0 0-2.66 2.15c1.03-.77 2.49-2.33 3.15-1.38a8.65 8.65 0 0 0-2.85 2.34c-.3.02-.64.03-.83-.04-.93-.31.09-1.38.56-1.74.76-.6 1.79-.83 2.63-1.33zm.64.5a1.75 1.75 0 0 1-.17-.44c-.1-.31-.34-.39-.71-.25a7.98 7.98 0 0 0-2.79 1.46c-1.16.97-1.61 2.28.44 2.23l.1.78a6.17 6.17 0 0 1 2.89-3.07c.77-.42.57-.14.24-.71z" clip-rule="evenodd"/>
    <path fill="#957951" fill-rule="evenodd" d="M77.66 92.79c.14 3.32-4.44 5.68-9.28 7.06-5.07 1.44-10.58 1.02-11.5-1.8-.12.45-.17 1.25-.29 1.7 2.01 2.5 6.9 2.53 11.8 1.23 5.21-1.39 9.83-3.97 10.31-7.26-.26-.2-.77-.75-1.04-.93zM72.78 115.15c-.32-5.33-3.36-8.92-8.96-5.14l.87.7c4.22-3.28 7.1.06 7.11 4.74.25-.06.74-.24.98-.3z" clip-rule="evenodd"/>
    <path fill="#957951" fill-rule="evenodd" d="M67.16 114.83c-.42-2.75-2.33-6.47-5.79-5.17a6.6 6.6 0 0 0-4.09 4.59c.15.17.44.63.59.8.38-1.93 2-3.77 3.86-4.42 2.85-1 4.46 2.25 5.43 4.2z" clip-rule="evenodd"/>
    <path fill="#957951" fill-rule="evenodd" d="M54.38 102.15c1.03 8.17 1.24 18.52 12.55 16.16 2.65-.78 5.43-1.69 7.87-3.43-.19-.14-.56-.67-.75-.81a32.97 32.97 0 0 1-7.22 3.15c-10.84 1.77-10.64-7.9-11.53-15.99-.24.21-.68.72-.92.92zM78.87 87.61c-.41-.27-.41-.15-.82-.42-3.48 4.74.5 9.73 6.28 8.01-4.06.06-8.35-2.52-5.46-7.59z" clip-rule="evenodd"/>
    <path fill="#957951" fill-rule="evenodd" d="M54.54 93.76c.07.07-.37.7-.55 1.08 4.83 3.36.46 7.51-3.98 8.94 6.93-.39 10.2-6.81 4.53-10.02z" clip-rule="evenodd"/>
  </g>
</svg>
