<svg xmlns="http://www.w3.org/2000/svg" viewBox="0 0 235 86">
<path d="M15.871,75.116l208.84,9.905,9.905-72.09L5.14,0Z" opacity="0.1"/>
<path d="M234.616,74.507,23.663,67.078,0,13.921,227,5.942Z" fill="#4169b0"/>
<g fill="#5a93d0">
  <polygon points="64.565 11.651 62.121 11.737 25.965 67.159 28.299 67.242 64.565 11.651"/>
  <polygon points="209.575 53.495 223.562 6.063 221.456 6.137 209.3 47.357 207.479 6.628 205.48 6.699 207.562 53.252 201.636 73.346 203.699 73.418 207.836 59.39 208.471 73.587 210.476 73.657 209.575 53.495"/>
  <polygon points="150.098 8.645 147.241 8.746 89.495 69.397 92.167 69.491 150.098 8.645"/>
</g>
</svg>
