<svg xmlns="http://www.w3.org/2000/svg" width="156" viewBox="0 0 156 83">
  <g>
    <path fill="#f79821" d="m43.72 58.5-7.19-4.24a2.34 2.34 0 0 1-.74-3.3l4.68-7.01c1.25-1.88-.62-4.28-2.7-3.45l-7.74 3.09a2.26 2.26 0 0 1-2.99-1.47l-2.45-8.1a2.25 2.25 0 0 0-4.32 0l-2.46 8.1a2.26 2.26 0 0 1-2.99 1.47L7.08 40.5c-2.07-.83-3.95 1.57-2.7 3.45l4.68 7.01c.74 1.11.4 2.63-.74 3.3L1.13 58.5c-1.93 1.14-1.26 4.13.96 4.3l8.29.64a2.3 2.3 0 0 1 2.07 2.64l-1.23 8.38c-.33 2.24 2.38 3.58 3.9 1.91l5.66-6.21c.9-.98 2.42-.98 3.32 0l5.66 6.21c1.51 1.66 4.23.33 3.9-1.91l-1.23-8.38a2.3 2.3 0 0 1 2.07-2.64l8.28-.64c2.22-.17 2.89-3.16.96-4.3"/>
    <path fill="#f79821" d="m155.27 22.69-4.64-2.74a1.5 1.5 0 0 1-.48-2.13l3.02-4.52c.81-1.21-.4-2.76-1.74-2.22l-4.99 1.99a1.45 1.45 0 0 1-1.93-.95l-1.58-5.22a1.45 1.45 0 0 0-2.79 0l-1.58 5.22a1.46 1.46 0 0 1-1.93.95l-4.99-1.99c-1.34-.53-2.55 1.01-1.74 2.22l3.02 4.52a1.5 1.5 0 0 1-.48 2.13l-4.64 2.74c-1.24.73-.81 2.66.62 2.77l5.34.41c.85.06 1.46.85 1.33 1.7l-.8 5.41c-.21 1.45 1.54 2.31 2.51 1.23l3.65-4a1.45 1.45 0 0 1 2.14 0l3.65 4c.98 1.07 2.73.21 2.51-1.23l-.79-5.41a1.47 1.47 0 0 1 1.33-1.7l5.34-.41c1.43-.11 1.86-2.04.62-2.77"/>
    <path fill="#46a448" d="M63.02 0q.25 0 .52.09l.47.13c.78.21 1.84.35 1.77 1.07-.1 1.13-.39 4.7 0 6.23q.03.1.14.11h.11q.08 0 .13-.07c.33-.78.83-1.49 1.21-2.22A26 26 0 0 1 70.96.68c.22-.22.37-.49.74-.49.82.07 2.35.78 2.53 1.23q.12.3-.04.54s0 .01-.01.02a38 38 0 0 0-5.11 8.63c-1.37 3.16-2.55 5.95-2.74 9.75-.12 1.2-1.26 1.45-2.47 1.55h-.02l-.36.01q-.7 0-.89-.36c-1.41-2.4-1.6-5.39-1.79-8.27l-.03-.39q-.03-.2-.25-.25c-.12-.02-.26.1-.3.19-.25.59-1.82 4.19-2.36 8.01-.03.46-.55.52-.99.52-.34 0-.7-.09-1.03-.17l-.07-.02c-.9-.29-1.9-1.32-1.8-2.01.13-1.32.11-1.43.31-2.56 1.44-6.73 6.58-14.65 6.69-14.83.7-.93 1.09-1.8 2.03-1.8"/>
    <path fill="#46a448" d="M115.95 8.25c.55-1.02 1.94-1.75.51-2.67-.47-.34-1.23-.9-1.61-.57-3.52 2.7-5.08 6.67-7.78 9.91-.71.71-1.44 1.58-2.4 1.69-.29-.05-.39-.38-.4-.61a41 41 0 0 1 3.66-9.84c.75-1.49 1.56-2.48 2.18-3.97.42-.79-.82-1.08-1.42-1.24-.61-.19-1.56-.33-1.94.22a52 52 0 0 0-3.93 6.27c-1.16-.79-3.18-.57-4.54.1-3.06 1.79-3.31 4-5.66 7.12-1.27 1.84-4.09 3.95-6.34 3.28a2.7 2.7 0 0 1-1.57-1.47c-.23-.49 0-1.06.55-.95l.66.1c3.18.43 5.36-1.82 6.1-3.74.59-1.54.67-2.99-.64-4.17-1.02-.89-2.79-.96-4.28-.38-.59.23-1.15.52-1.59.82-2.31 1.57-2.78 3.11-3.9 5.08-1.39 2.46-3.96 4.82-6.54 4.87a2.7 2.7 0 0 1-2.24-1.31c-.33-.64-.17-1.43.51-1.27a5.7 5.7 0 0 0 4.26-.72c1.92-1.32 3.19-3.69 2.72-5.58a2.9 2.9 0 0 0-2.3-2.15c-2.36-.56-5.07 1.11-6.51 2.97-2.1 2.76-2.89 5.78-1.94 8.79.55 1.34 1.47 2.58 3.19 2.98 2.46.71 5.36-.86 7.54-3.32.62-.79 1.02-.35 1.1-.12.39 1.27 1.37 2.71 2.56 3.22 2.35.86 4.45.33 7.51-2.12.45-.36 1.03-.83 1.25-.46.47.95 1.3 2.32 2.79 2.64 1.79.28 2.9-.05 4.22-1.11 1.61-1.29 1.11.94 2.29 1.17 1.54.29 2.29-.57 3.35-1.48 1.95-1.98 3.1-4.41 5.19-6.24l.14.15c.27 1.28.28 2.98-.75 3.94-.58.29-.83-.54-1.36-.35-.52.28-.96.77-.97 1.38.04 1.1.98 1.99 1.87 2.56.77.43 1.7.46 2.6.17 4.15-1.95 2.42-6.9 2.71-10.58.15-1.3.6-1.97 1.14-2.97m-27.73 2.08c.42-.08.9-.11.96.36-.01.85-.82 1.41-1.51 1.72-.41.13-.88.28-1.32.2.06-.99.86-1.96 1.87-2.28m-12.01 0c.42-.08.9-.11.96.36-.01.85-.82 1.41-1.51 1.72-.41.13-.88.28-1.32.2.06-.99.86-1.96 1.87-2.28m24.11 4.8c-1.26 2.46-2.3 2.78-3.17 2.34s-.86-2.21.02-3.94 2.28-2.73 3.17-2.34c1.03.45 1.18 1.59-.02 3.94"/>
  </g>
  <g>
    <path fill="#7f003f" d="m49.76 49.64.03-.01q.51-.2.96-.42-.44-.22 0 0l.43-.24.2-.13 2.22 1.11h8.9v-1.67l.01-4.18 2.91 3.34.5.57 3.88 1.94h13.47l.38-1.15.89-2.7h1.34l.24.75.38 1.15 3.88 1.94h9.79l-.85-2.21 2.41 1.2c1.87.93 4.08 1.44 6.55 1.44 2.18 0 4.25-.42 6.11-1.23l1.57.78h8.9v-3.68l.92 1.13.5.61 3.88 1.94h12.2l-2.42-2.78-8.47-9.7 7.17-8.69 2.26-2.73-3.88-1.94h-11.57l-.5.65-.73.95-3.19-1.6h-8.9v1.53l-.83-.41q.42.21.82.45a15 15 0 0 0-7.68-2.01c-5.56 0-9.81 2.57-11.78 6.77l-1.28-3.33-.41-1.06-3.88-1.94h-8.23l-.41 1.06-1.86 4.8v-3.91l-3.88-1.94h-8.9v1.66l-.01 4.18-2.91-3.34-.5-.56-3.88-1.94h-6.76v1.57l-.23-.11a17 17 0 0 0-7.74-1.89c-6.9 0-9.38 4.08-9.39 7.89 0 2.05.64 3.85 1.87 5.26l-.75 1.56-2.56 5.35-.67 1.41 1.37.76 1.02.54-.1-.04 3.88 1.94A19 19 0 0 0 45 50.38c1.9 0 3.43-.27 4.67-.71l.08-.03Zm55.13-10.05q-.31-.66-.32-1.59c0-2.63 2.04-3.56 3.94-3.56q.37 0 .71.05l.38.26 2.52 1.26v2.6l-2.52-1.26-1.44 1a6 6 0 0 1-3.27 1.24m-70.95 7.42-.04-.02z"/>
    <path fill="#fff" d="M41.14 47.32c-3.14 0-6.07-.78-8.94-2.39l-.46-.26 3.08-6.42.54.39c2.34 1.67 4.22 2.42 6.08 2.42.54 0 1.17-.06 1.18-.35 0-.12 0-.25-.68-.59l-4.49-2.25a6.8 6.8 0 0 1-3.92-6.32c.01-4.24 3.1-6.78 8.27-6.78a16 16 0 0 1 7.25 1.79l.5.24-2.95 6.03-.53-.35a9 9 0 0 0-4.7-1.55c-.69 0-.7.15-.7.21 0 .07 0 .22.78.63l4.21 2.17c2.03 1.04 4.11 2.61 4.1 6.31-.01 4.56-3.08 7.07-8.63 7.07Z"/>
    <path fill="#fff" d="m66.43 46.88-8.84-10.12-.08 10.12h-6.68l.05-21.66h5.15l8.84 10.12.08-10.12h6.68l-.05 19.23-.94 2.43z"/>
    <path fill="#fff" d="m85.98 25.77 7.89 20.55h-6.15l-1.25-3.85h-7l-1.27 3.85h-6.16l7.99-20.55zm-.91 12.31-2.06-6.43-2.13 6.43z"/>
    <path fill="#fff" d="M104.41 47.32c-3.53 0-6.64-1.17-8.77-3.31-2-2.01-3.05-4.76-3.04-7.96.02-6.74 4.78-11.28 11.86-11.28q4.5.01 7.9 2.36l.43.3-3.53 5.73-.48-.33a7 7 0 0 0-4.16-1.45c-2.51 0-5.05 1.45-5.06 4.67 0 1.31.42 2.44 1.24 3.25a5.3 5.3 0 0 0 3.8 1.41c1.72 0 2.91-.58 4.17-1.45l.49-.34 3.5 5.73-.43.3a13.6 13.6 0 0 1-7.91 2.36Z"/>
    <path fill="#fff" d="m126.83 46.88-6.93-8.51-.02 8.51h-6.67l.05-21.66h6.67l-.02 7.95 6.11-7.95h8.66l-8.53 10.32 9.9 11.34z"/>
  </g>
  <g>
    <path fill="#a90658" d="m79.65 25.21-7.51 19.32v-.18l.05-18.58v-1.12H64.4v1.11l-.07 8.11-7.7-8.83-.33-.38h-5.96v1.11l-.04 13.96c-.19-3.61-2.29-5.21-4.37-6.28l-3.63-1.87c.99.16 2.27.58 3.47 1.37l1.06.7.56-1.14 2.42-4.96.49-1-1-.49a16.5 16.5 0 0 0-7.5-1.85c-5.44 0-8.82 2.81-8.83 7.33 0 3 1.49 5.42 4.22 6.82l4.26 2.14h-.02c-1.74 0-3.51-.71-5.76-2.32l-1.08-.77-.57 1.2-2.56 5.35-.45.94.91.51a18.5 18.5 0 0 0 9.21 2.46c5.48 0 8.76-2.45 9.15-6.77v5.21l-.02 1.12h7.79v-1.11l.07-8.1 7.7 8.82.33.38H71l.22-.56h7.37l1.27-3.85h6.19l1.25 3.85h7.37L86.35 25.2zm2 12.31L83 33.44l1.31 4.08z"/>
    <path fill="#a90658" d="m135.67 45.59-8.78-10.06 7.47-9.05 1.51-1.82h-10.11l-.33.44-4.94 6.43v-5.75l.02-1.12h-7.79v2.03h-.01a14.2 14.2 0 0 0-8.22-2.47c-7.41 0-12.4 4.75-12.42 11.83 0 3.35 1.1 6.24 3.21 8.36 2.23 2.24 5.49 3.47 9.16 3.47 3.06 0 5.9-.85 8.23-2.46s0 .9 0 .9v1.12h7.78v-1.11l.02-6.39 5.78 7.09.33.41h10.71zm-23.01-2.17-2.62-4.28-.62-1.01-.97.67a6.4 6.4 0 0 1-3.85 1.35 4.7 4.7 0 0 1-3.4-1.25 3.9 3.9 0 0 1-1.07-2.86c0-3.04 2.43-4.12 4.5-4.12a6.3 6.3 0 0 1 3.85 1.36l.97.66.61-1 2.64-4.28z"/>
    <path fill="#fff" stroke="#d71770" stroke-miterlimit="10" stroke-width=".56" d="M41.14 47.04c-3.1 0-5.97-.77-8.8-2.35l-.23-.13 2.82-5.88.27.19c2.39 1.71 4.32 2.47 6.24 2.47 1.45 0 1.45-.44 1.45-.62 0-.32-.2-.53-.83-.84l-4.49-2.25a6.5 6.5 0 0 1-3.77-6.07c0-4.07 3-6.5 7.99-6.5 2.41 0 4.68.56 7.13 1.76l.25.12-2.68 5.5-.26-.18a9.4 9.4 0 0 0-4.85-1.6c-.97 0-.97.31-.97.48 0 .21.07.43.93.87l4.21 2.17c2.05 1.05 3.96 2.52 3.95 6.06-.01 4.38-2.98 6.79-8.36 6.79Z"/>
    <path fill="#fff" stroke="#d71770" stroke-miterlimit="10" stroke-width=".56" d="m66.55 46.6-9.23-10.57-.09 10.57h-6.12l.05-21.11h4.74l9.24 10.59.08-10.59h6.13l-.05 18.86-.55 1.47-.3.78z"/>
    <path fill="#fff" stroke="#d71770" stroke-miterlimit="10" stroke-width=".56" d="m85.98 25.77 7.89 20.55h-6.15l-1.25-3.85h-7l-1.27 3.85h-6.16l7.99-20.55zm-.91 12.31-2.06-6.43-2.13 6.43z"/>
    <path fill="#fff" stroke="#d71770" stroke-miterlimit="10" stroke-width=".56" d="M104.41 47.04c-3.45 0-6.49-1.15-8.57-3.23-1.95-1.95-2.97-4.64-2.96-7.76.02-6.58 4.67-11 11.59-11q4.41 0 7.74 2.31l.22.15-3.23 5.25-.24-.17a7 7 0 0 0-4.32-1.5c-2.65 0-5.33 1.53-5.33 4.95 0 1.39.45 2.58 1.32 3.45a5.6 5.6 0 0 0 3.99 1.49c1.79 0 3.02-.6 4.33-1.5l.24-.17 3.21 5.26-.22.15a13.3 13.3 0 0 1-7.76 2.31Z"/>
    <path fill="#fff" stroke="#d71770" stroke-miterlimit="10" stroke-width=".56" d="m126.96 46.6-7.34-9.01-.02 9.01h-6.12l.06-21.11h6.11l-.02 8.51 6.53-8.51h7.93l-8.3 10.06 9.65 11.05z"/>
  </g>
  <g>
    <path fill="#328238" d="M134.69 51.5H36.38a5 5 0 0 0-5.01 5.01v21.37a5 5 0 0 0 5.01 5.01h98.3a5 5 0 0 0 5.01-5.01v-9.94h-2.78c-.41 0-.75-.33-.75-.75s.33-.75.75-.75h2.78V56.5a5 5 0 0 0-5.01-5.01Z"/>
    <path fill="#43a147" d="M36.38 82.06a4.2 4.2 0 0 1-4.18-4.18V56.51c0-2.3 1.87-4.18 4.18-4.18h98.3c2.3 0 4.18 1.87 4.18 4.18v9.1h-1.95a1.58 1.58 0 0 0 0 3.16h1.95v9.1c0 2.3-1.87 4.18-4.18 4.18h-98.3Z"/>
    <path fill="none" stroke="#8bc53f" stroke-miterlimit="10" stroke-width="1.11" d="M36.38 81.22a3.35 3.35 0 0 1-3.34-3.34V56.51c0-1.84 1.5-3.34 3.34-3.34h98.3c1.84 0 3.34 1.5 3.34 3.34v8.27h-1.11a2.42 2.42 0 0 0 0 4.84h1.11v8.27c0 1.84-1.5 3.34-3.34 3.34z"/>
  </g>
  <g fill="#fff" stroke="#328238" stroke-miterlimit="10" stroke-width=".5">
    <path d="M56.31 66.31a3.9 3.9 0 0 0 2.36-3.82c0-3.04-2.04-4.64-5.89-4.64h-7.96v18.01h7.98c4.23 0 6.56-1.86 6.56-5.24q0-3.4-3.06-4.31Zm-6.19-3.99h1.87q1.59 0 1.59 1.17c0 1.05-.87 1.27-1.59 1.27h-1.87v-2.43Zm1.91 9.07h-1.92v-2.78h1.92c1.73 0 1.97.66 1.97 1.37 0 .66-.22 1.42-1.97 1.42Z"/>
    <path d="M75.4 63.86c0-2.91-1.8-6.01-6.86-6.01h-7.73v18.01h5.3v-5.87l4.06 5.87h6.61l-4.94-6.63a5.5 5.5 0 0 0 3.57-5.37Zm-7.51 1.92H66.1V62.6h1.79c1.83 0 2.04.89 2.04 1.57q0 1.63-2.04 1.62Z"/>
    <path d="M82.73 68.93h5.61v-4.67h-5.61v-1.52h6.39v-4.89H77.44v18.01h12.05v-4.89h-6.76z"/>
    <path d="m96.53 57.85-6.97 18.01h5.84l1.07-3.27h5.56l1.07 3.27h5.84l-6.97-18.01zm1.32 10.45 1.41-4.29 1.39 4.29z"/>
    <path d="m119.68 66.43 7.08-8.58h-6.86l-5.47 7.14v-7.14h-5.3v18.01h5.3v-7.58l6.2 7.58h7.33z"/>
  </g>
</svg>
