<svg xmlns="http://www.w3.org/2000/svg" width="757" height="135" viewBox="0 0 757 135">
  <path fill="#010101" d="M479.63 0H689.4a67.35 67.35 0 0 1 67.35 67.35 67.35 67.35 0 0 1-67.35 67.35H479.63a67.35 67.35 0 1 1 0-134.7"/>
  <path fill="#FFF" d="M636.57 73.51v25.14h-10.56V74.82c0-5.57-3.36-8.43-8.1-8.43-5.16 0-9.01 3.03-9.01 10.15v22.11h-10.56V57.71h9.33l1.23 4.58c2.46-3.68 6.71-5.73 12.2-5.73 8.67 0 15.47 6.06 15.47 16.95M673.07 74.33c-1.31-5.9-5.73-8.27-10.15-8.27-5.65 0-9.5 3.03-10.73 8.27h20.88zm-9.17 15.88c2.76 0 5.15-.78 6.97-2.02a4.98 4.98 0 0 1 5.3-.29 4.87 4.87 0 0 1 .34 8.22c-3.46 2.37-7.77 3.67-12.77 3.67-13.76 0-22.44-9.42-22.44-21.61 0-12.2 8.76-21.62 21.62-21.62 12.12 0 20.71 9.58 20.71 21.62 0 1.56-.16 2.95-.41 4.34h-30.87c1.48 5.4 5.98 7.69 11.55 7.69"/>
  <path fill="#7D5BA6" d="M699.97 28.88a6 6 0 1 1-12.02 0 6 6 0 0 1 12.02 0"/>
  <path fill="#24B574" d="M699.97 45.94a6 6 0 1 1-12.02 0 6 6 0 0 1 12.02 0"/>
  <path fill="#F494AB" d="M699.97 63.01a6 6 0 1 1-12.02 0 6 6 0 0 1 12.02 0"/>
  <path fill="#4671B8" d="M711.02 51.95a6 6 0 1 1 0-12.02 6 6 0 0 1 0 12.02"/>
  <path fill="#EF414C" d="M676.89 51.95a6 6 0 1 1 0-12.02 6 6 0 0 1 0 12.02"/>
  <path fill="#FFF" d="M572.89 66.06c4.42 0 8.84 2.38 10.15 8.27h-20.88c1.23-5.24 5.08-8.27 10.73-8.27m9.73 20.54c-1.87 2.12-4.95 3.61-8.75 3.61-5.57 0-10.07-2.29-11.55-7.7h30.87c.25-1.39.41-2.78.41-4.34 0-12.04-8.6-21.62-20.72-21.62-12.86 0-21.62 9.41-21.62 21.62 0 12.2 8.68 21.61 22.43 21.61 7.63 0 13.63-3.02 17.5-8.28l-8.57-4.9zM485.83 64.91c-8.68-2.62-10.89-4.5-10.89-8.02 0-3.27 2.78-5.73 7.53-5.73 5.79 0 8.9 3.01 10.95 7.32l9.52-5.44c-3.85-8.02-11.05-12.85-20.47-12.85-9.83 0-18.83 6.22-18.83 17.03 0 10.89 8.52 14.58 17.28 17.11 8.52 2.45 12.36 4.09 12.36 8.35 0 3.19-2.93 6.74-9.28 6.47-5.74-.24-8.94-3.87-10.56-6.17-1.77-2.52-3.4-4.99-7.07-4.18-3.65.81-5.34 4.42-3.63 8.08 2.92 6.24 9.33 12.92 21.04 12.92 12.2 0 20.8-6.55 20.8-17.28 0-11.71-9.67-14.74-18.75-17.61M530.47 89.31c-6.31 0-10.97-4.67-10.97-11.13 0-6.55 4.67-11.22 10.97-11.22 4.13 0 7.62 2.09 9.28 5.39l9.15-5.23c-3.36-6.3-10.32-10.56-18.34-10.56-12.45 0-21.62 9.41-21.62 21.62 0 12.2 9.17 21.61 21.62 21.61 8.02 0 14.98-4.26 18.5-10.64l-9.17-5.24c-1.64 3.35-5.16 5.4-9.42 5.4"/>
  <g fill="#FFF">
    <path d="M690.92 95.37h-1.19v-.6h3.07v.6h-1.19v3.28h-.69zM693.25 94.77h1.08l1 2.75h.02l1-2.75h1.08v3.87h-.68v-3.11h-.01l-1.18 3.11h-.48l-1.16-3.11h-.02v3.11h-.65z"/>
  </g>
  <g fill="#FFF">
    <path d="m102.09 20.23-.1 2.3C80.88 48.9 70.08 80.17 63.3 113.18c-.78 6.38-8.24 6.6-12.93 8.3-2.28-.71-5.04.12-6.95-2.06-7.37-12.58-8.1-28.35-9.08-43.2l-.51-.54a20.98 20.98 0 0 0-4.88 9.15c-3.44 10.05-5.04 21.01-8.07 31.17-2.06 4.12-7.33 2.34-10.68 1.89-4.56-1.45-8.99-6.24-10.16-11.02-.47-9.36 3.83-17.17 6.38-25.46C12.39 60.65 23.1 41.97 33.94 23.3 37.57 18.92 41 9.51 48.98 12.04c4.59.6 9.27 2.05 11.6 6.55.77 9.69-2.31 21.02.03 30.77l.52.02c7.09-11.89 11.72-25.05 21.99-35.13 3.06-3.03 7.52-1.38 11.15-.82 3.22.96 6.27 3.71 7.82 6.8M282.82 24.43c-1.05 7.84-8.07 12.8-10.87 19.73a176.43 176.43 0 0 0-18.12 48.73c.06 1.16.52 2.75 1.98 3.02 4.75-.54 8.39-4.81 11.89-8.35 13.35-16.06 21.07-35.7 38.51-49.06 3.06-.51 5.62 1.17 7.97 2.83 7.06 4.59-2.03 8.63-2.52 13.24-3.11 4.39-3.96 9.72-5.63 14.69-1.46 18.21 7.1 42.71-13.43 52.38-4.04 1.21-9.08 1.32-12.88-.83-4.4-2.8-9.06-7.18-9.26-12.65.02-3.04 2.21-5.48 4.79-6.84 2.66-.94 3.86 3.2 6.76 1.74 5.12-4.73 5.03-13.13 3.72-19.49l-.7-.76c-10.34 9.04-16.07 21.09-25.69 30.88-5.21 4.51-10.75 8.91-17.93 7.37-5.76-.33-5.96-13.68-12.36-5.74-6.8 4.77-14.79 7.49-23.66 6.09-4.86-1.88-8.79-6.02-11.12-10.73-1.08-1.83-2.73-.22-3.81.58-11.64 7.52-24.6 11.41-38.7 9.47-6.43-1.62-11.85-8.14-13.8-14.41-.4-.44-1.15-.15-1.77-.28-10.77 12.17-26.29 19.52-42.38 14.9-6.35-1.3-12.78-6.29-14.39-12.86-3.51-17.26 5.76-31.06 14.15-44.05 7.93-9.23 18.12-17.23 30.86-15.67 5.54.75 9.98 5.33 11.44 10.54 2.26 11.74-4.55 21.86-14.04 28.41-6.07 4.49-13.89 6.17-21.32 5.24-2.05 1.28-.68 3.75-.54 5.55 1.23 3.41 4.73 4.92 8.2 5.05 33.89-2.11 31.67-43.67 61.74-52.45 6.27-2.06 15.74-4.83 21.39.64 6.73 4.89 4.5 13.72 2.76 20.26-3.35 7.42-9.88 15.89-18.18 18.59l-14.41 3.52c-1.51.99-1.19 3.2-1.02 4.69 1.34 3.41 4.73 5.02 7.85 5.88 10.69.32 18.2-8.83 25.84-16.29 8.52-13.31 15.11-28.79 30.27-37.63 6.41-2.9 15.32-2.33 21.04 1.58 9.11-9.82 11.1-22.86 20.72-32.45 2.5-2.21 6.6-2.05 9.6-1.08 2.97.71 5.8 3.23 7.05 6.02M174.63 65.24c-4.52 2.76-9.32 7.3-8.59 12.47 3.86.68 7.61-1.27 10.44-3.57 1.76-2.03 3.43-4.48 2.81-7.24a4 4 0 0 0-4.66-1.66zm-59.75-.18c-5 1.59-8.97 6.37-9.28 11.28 2.19.4 4.54-.35 6.56-1 3.42-1.54 7.41-4.32 7.48-8.52-.31-2.32-3.4-1.39-4.76-1.76zm114.64 5.85c-7.94 6.83-12.28 15.78-13.32 25.92.35 2 2.38 3.35 4.37 3.53 5.05-.43 8.99-4.26 11.88-8.14 2.66-6.09 6.37-12.34 5.39-19.42-.89-4.02-5.74-3.47-8.32-1.89z"/>
  </g>
  <path fill="none" stroke="#FFF" stroke-miterlimit="10" stroke-width="3" d="M360.94 134.7V0"/>
</svg>
