<svg xmlns="http://www.w3.org/2000/svg" xmlns:xlink="http://www.w3.org/1999/xlink" width="345" height="205" viewBox="0 0 345 205">
  <defs>
    <clipPath id="clip-path">
      <path id="Clip_10" data-name="Clip 10" d="M0,205H345V0H0Z" fill="none"/>
    </clipPath>
  </defs>
  <g id="Group_4" data-name="Group 4" style="mix-blend-mode: lighten;isolation: isolate">
    <g id="Group_71" data-name="Group 71">
      <path id="Fill_1" data-name="Fill 1" d="M120,4.159l-21.89-.74L87.516,3.107,75.7,2.843c-4.1-.086-8.333-.1-12.632-.131s-8.666.013-13.027.128c-4.36.09-8.717.254-12.984.568a115.707,115.707,0,0,0-12.418,1.46,40.2,40.2,0,0,0-5.678,1.448,16.7,16.7,0,0,0-2.5,1.1l-.543.343-.136.085c.076-.061,0,0,.009-.008l-.035.028-.071.056-.282.222c-.376.3-.749.589-1.119.881l-1.1.871-.949.919a21.938,21.938,0,0,0-1.82,1.859c-.555.663-1.16,1.268-1.652,1.947L7.3,16.608a45.529,45.529,0,0,0-4.1,7.843,49.312,49.312,0,0,0-2.115,6.558A39.065,39.065,0,0,0,0,36.953s-.012-.552.048-1.587a39.847,39.847,0,0,1,.5-4.469,44.012,44.012,0,0,1,1.661-6.811,42.376,42.376,0,0,1,3.756-8.337L7.383,13.59c.48-.737,1.08-1.408,1.632-2.135A20.955,20.955,0,0,1,10.9,9.367l1.012-1.04,1.07-.913,1.087-.922.274-.232.182-.15L14.688,6l.665-.453a18.8,18.8,0,0,1,2.816-1.369,38.148,38.148,0,0,1,5.993-1.7A101.865,101.865,0,0,1,36.849.738C41.179.388,45.577.187,49.973.068c4.4-.084,8.792-.086,13.113-.032s8.572.212,12.683.371,8.079.4,11.84.64,7.314.513,10.591.789C111.311,2.927,120,4.159,120,4.159" transform="translate(0.882 62.468)" fill="#b0b0b0"/>
      <path id="Fill_3" data-name="Fill 3" d="M86.471,44.871s-1.781-.037-4.895-.166c-1.556-.07-3.447-.148-5.613-.277s-4.61-.261-7.272-.459c-2.664-.182-5.549-.4-8.6-.668s-6.263-.542-9.582-.907l-5.055-.55c-1.708-.189-3.437-.377-5.175-.619-3.48-.44-7.011-.943-10.541-1.468l-5.276-.9c-1.752-.353-3.5-.667-5.227-1.046-1.732-.426-3.442-.746-5.136-1.336l-1.264-.4-.314-.1-.157-.049c.049.02-.11-.043-.108-.041l-.036-.017-.073-.031-.582-.256-.579-.256-.633-.361A8.641,8.641,0,0,1,9.168,34.2a15.321,15.321,0,0,1-3.657-3.769,25.092,25.092,0,0,1-2.326-4.3,36.02,36.02,0,0,1-1.464-4.3c-.354-1.416-.665-2.786-.877-4.113a57.213,57.213,0,0,1-.763-7.256C-.029,8.29-.009,6.4.034,4.854S.177,2.09.244,1.265L.369,0s0,1.769.215,4.845A80.746,80.746,0,0,0,2.4,17.4a41.157,41.157,0,0,0,2.67,7.9,17.24,17.24,0,0,0,5.506,6.931,6.513,6.513,0,0,0,.928.568l.463.261.585.24.589.24.074.03.037.015c.027.012-.106-.042-.033-.014l.149.041.3.084,1.191.337c.793.23,1.591.463,2.438.623l2.51.566c1.691.355,3.421.651,5.144.982l5.229.851c3.5.553,7,1.085,10.463,1.554l10.164,1.4,18.05,2.406,12.773,1.753,4.845.706" transform="translate(17.647 147.811)" fill="#b0b0b0"/>
      <path id="Fill_5" data-name="Fill 5" d="M1.036,16.712A10.949,10.949,0,0,1,.031,12.92,9.2,9.2,0,0,1,.558,9,9.106,9.106,0,0,1,2.77,5.7,13.384,13.384,0,0,1,6.015,3.417,26.908,26.908,0,0,1,9.666,1.93c1.246-.426,2.5-.789,3.785-1.09a27.352,27.352,0,0,1,7.879-.8,15.605,15.605,0,0,1,3.983.748,11.157,11.157,0,0,1,3.639,2A10.593,10.593,0,0,1,31.547,6.11,13.873,13.873,0,0,1,32.805,10.1c.068.342.106.684.141,1.027s.077.686.087,1.028.044.672.04,1.043l0,.984a34.086,34.086,0,0,1-.238,4.06,17.945,17.945,0,0,1-.995,4.086,8.845,8.845,0,0,1-1.068,1.992,5.969,5.969,0,0,1-.833.917,4.4,4.4,0,0,1-.545.406,2.511,2.511,0,0,1-.327.183,1.6,1.6,0,0,1-.193.086A1.953,1.953,0,0,1,28.59,26l.794-1.867,3.931,6.276a1.4,1.4,0,0,1-.428,1.924,1.373,1.373,0,0,1-1.905-.432c-.008-.014-.019-.034-.028-.048L27.27,25.431l.794-1.866c-.083.021-.058.016-.057.015s.015,0,.031-.012a.525.525,0,0,0,.1-.051,2.044,2.044,0,0,0,.244-.166,3.535,3.535,0,0,0,.5-.511,6.433,6.433,0,0,0,.83-1.427,15.634,15.634,0,0,0,.991-3.5,31.609,31.609,0,0,0,.37-3.775l.038-.983c.016-.284,0-.616,0-.923s-.018-.623-.042-.933-.04-.621-.09-.925a12.058,12.058,0,0,0-.954-3.518,8.955,8.955,0,0,0-2.077-2.9A11.665,11.665,0,0,0,21.23,1.278a26.294,26.294,0,0,0-7.587.472c-1.257.243-2.513.552-3.741.917A26.28,26.28,0,0,0,6.285,3.973a12.86,12.86,0,0,0-3.2,2.071A8.707,8.707,0,0,0,.843,9.118,8.949,8.949,0,0,0,.184,12.91a10.878,10.878,0,0,0,.852,3.8" transform="translate(6.176 33.433)" fill="#b0b0b0"/>
      <path id="Fill_7" data-name="Fill 7" d="M.034.946C-.049.922.04.857.084.857A1.5,1.5,0,0,1,.239.818C.344.8.448.781.553.765L1.185.688,2.452.575C3.3.507,4.143.451,4.988.412,6.681.327,8.374.26,10.068.2,13.454.084,16.842.008,20.229,0,27-.01,33.784-.005,40.558.248c6.777.216,13.55.6,20.315,1.2,3.383.307,6.76.7,10.132,1.2A59.956,59.956,0,0,1,81.062,4.864l1.623.544-1.432.97a3.273,3.273,0,0,0-.38.333,5.632,5.632,0,0,0-.4.446,8.6,8.6,0,0,0-.711,1.023,11.847,11.847,0,0,0-1.049,2.349,17.312,17.312,0,0,0-.64,2.553,22.907,22.907,0,0,0-.339,2.645q-.1,1.336-.084,2.689c0,.9.047,1.8.118,2.7s.167,1.8.282,2.7.264,1.8.42,2.693c.175.892.328,1.789.54,2.676.192.891.4,1.778.633,2.66q.321,1.33.695,2.649c.233.884.5,1.759.765,2.633s.539,1.749.831,2.615.572,1.739.888,2.6.6,1.731.926,2.587l.959,2.579-1.138-2.5c-.391-.831-.727-1.685-1.084-2.53s-.7-1.7-1.026-2.556-.666-1.713-.971-2.58-.627-1.73-.908-2.607S79,32.985,78.746,32.1c-.265-.883-.5-1.775-.727-2.671-.243-.891-.427-1.8-.634-2.7-.188-.906-.365-1.815-.516-2.73s-.283-1.834-.378-2.76-.178-1.854-.212-2.788-.042-1.872,0-2.812a24.7,24.7,0,0,1,.271-2.82,18.635,18.635,0,0,1,.651-2.789,13.414,13.414,0,0,1,1.148-2.68A10.3,10.3,0,0,1,79.182,6.1a7.3,7.3,0,0,1,.507-.581,4.325,4.325,0,0,1,.65-.568L80.53,6.47a43.4,43.4,0,0,0-4.825-1.2c-1.639-.327-3.3-.6-4.959-.841-3.327-.483-6.682-.829-10.04-1.149s-6.726-.578-10.1-.8-6.744-.43-10.12-.594L30.358,1.42q-5.068-.214-10.14-.353L10.071.816C8.38.783,6.688.759,5,.754H2.459L1.191.779.558.81C.452.818.347.826.243.84A1.288,1.288,0,0,0,.088.868C.044.869-.045.915.034.946" transform="translate(19.412 145.172)" fill="#b0b0b0"/>
      <path id="Clip_10-2" data-name="Clip 10" d="M0,205H345V0H0Z" fill="none"/>
      <g id="Group_71-2" data-name="Group 71" clip-path="url(#clip-path)">
        <path id="Fill_9" data-name="Fill 9" d="M0,27.275H.882V0H0Z" transform="translate(21.176 146.051)" fill="#b0b0b0"/>
        <path id="Fill_11" data-name="Fill 11" d="M0,32.554H.882V0H0Z" transform="translate(23.824 146.051)" fill="#b0b0b0"/>
        <path id="Fill_12" data-name="Fill 12" d="M0,35.193H.882V0H0Z" transform="translate(27.353 146.051)" fill="#b0b0b0"/>
        <path id="Fill_13" data-name="Fill 13" d="M0,36.953H.882V0H0Z" transform="translate(30 146.051)" fill="#b0b0b0"/>
        <path id="Fill_14" data-name="Fill 14" d="M0,37.833H.882V0H0Z" transform="translate(33.529 146.051)" fill="#b0b0b0"/>
        <path id="Fill_15" data-name="Fill 15" d="M0,38.712H.882V0H0Z" transform="translate(36.176 146.051)" fill="#b0b0b0"/>
        <path id="Fill_16" data-name="Fill 16" d="M0,38.712H.882V0H0Z" transform="translate(39.706 146.051)" fill="#b0b0b0"/>
        <path id="Fill_17" data-name="Fill 17" d="M0,39.592H.882V0H0Z" transform="translate(42.353 146.051)" fill="#b0b0b0"/>
        <path id="Fill_18" data-name="Fill 18" d="M0,41.352H.882V0H0Z" transform="translate(45.882 146.051)" fill="#b0b0b0"/>
        <path id="Fill_19" data-name="Fill 19" d="M0,41.352H.882V0H0Z" transform="translate(48.529 146.051)" fill="#b0b0b0"/>
        <path id="Fill_20" data-name="Fill 20" d="M0,41.352H.882V0H0Z" transform="translate(52.059 146.051)" fill="#b0b0b0"/>
        <path id="Fill_21" data-name="Fill 21" d="M0,41.352H.882V0H0Z" transform="translate(54.706 146.051)" fill="#b0b0b0"/>
        <path id="Fill_22" data-name="Fill 22" d="M0,41.352H.882V0H0Z" transform="translate(58.235 146.051)" fill="#b0b0b0"/>
        <path id="Fill_23" data-name="Fill 23" d="M0,42.232H.882V0H0Z" transform="translate(60.882 146.051)" fill="#b0b0b0"/>
        <path id="Fill_24" data-name="Fill 24" d="M0,42.232H.882V0H0Z" transform="translate(64.412 146.051)" fill="#b0b0b0"/>
        <path id="Fill_25" data-name="Fill 25" d="M0,43.112H.882V0H0Z" transform="translate(67.059 146.051)" fill="#b0b0b0"/>
        <path id="Fill_26" data-name="Fill 26" d="M0,42.232H.882V0H0Z" transform="translate(70.588 146.931)" fill="#b0b0b0"/>
        <path id="Fill_27" data-name="Fill 27" d="M0,42.232H.882V0H0Z" transform="translate(73.235 147.811)" fill="#b0b0b0"/>
        <path id="Fill_28" data-name="Fill 28" d="M0,42.232H.882V0H0Z" transform="translate(75.882 147.811)" fill="#b0b0b0"/>
        <path id="Fill_29" data-name="Fill 29" d="M0,42.232H.882V0H0Z" transform="translate(79.412 147.811)" fill="#b0b0b0"/>
        <path id="Fill_30" data-name="Fill 30" d="M0,42.232H.882V0H0Z" transform="translate(82.059 148.691)" fill="#b0b0b0"/>
        <path id="Fill_31" data-name="Fill 31" d="M0,42.232H.882V0H0Z" transform="translate(85.588 148.691)" fill="#b0b0b0"/>
        <path id="Fill_32" data-name="Fill 32" d="M0,43.112H.882V0H0Z" transform="translate(88.235 148.691)" fill="#b0b0b0"/>
        <path id="Fill_33" data-name="Fill 33" d="M0,43.112H.882V0H0Z" transform="translate(91.765 148.691)" fill="#b0b0b0"/>
        <path id="Fill_34" data-name="Fill 34" d="M0,42.232H.882V0H0Z" transform="translate(94.412 149.571)" fill="#b0b0b0"/>
        <path id="Fill_35" data-name="Fill 35" d="M.441,0V14.077" transform="translate(97.941 177.725)" fill="#b0b0b0"/>
        <path id="Fill_36" data-name="Fill 36" d="M0,4.159S8.689,2.927,21.8,1.836c3.277-.275,6.83-.558,10.591-.789S40.121.565,44.232.408,52.591.078,56.914.036,65.63-.015,70.027.068c4.4.119,8.794.32,13.124.669A101.9,101.9,0,0,1,95.839,2.472a38.12,38.12,0,0,1,5.992,1.7,18.8,18.8,0,0,1,2.816,1.369l.666.453.165.114.181.15.274.232,1.087.922c.359.306.715.611,1.07.913L109.1,9.368a20.957,20.957,0,0,1,1.884,2.087c.551.728,1.152,1.4,1.631,2.135s.956,1.453,1.418,2.159a42.381,42.381,0,0,1,3.757,8.337,44.09,44.09,0,0,1,1.661,6.811,39.976,39.976,0,0,1,.5,4.469c.059,1.035.048,1.587.048,1.587a39.065,39.065,0,0,0-1.084-5.944,49.351,49.351,0,0,0-2.113-6.558,45.535,45.535,0,0,0-4.1-7.843l-1.459-1.991c-.492-.678-1.1-1.284-1.652-1.946a22.052,22.052,0,0,0-1.82-1.86q-.471-.456-.95-.918l-1.1-.872L104.6,8.14l-.283-.223-.071-.056-.035-.028c.008.007-.066-.053.008.008l-.135-.085-.544-.342a16.743,16.743,0,0,0-2.5-1.1,40.194,40.194,0,0,0-5.678-1.448,115.708,115.708,0,0,0-12.418-1.46c-4.268-.315-8.624-.478-12.985-.568-4.36-.115-8.726-.15-13.027-.128S48.4,2.757,44.3,2.843l-11.819.265L21.89,3.419,0,4.159" transform="translate(224.118 62.468)" fill="#b0b0b0"/>
        <path id="Fill_37" data-name="Fill 37" d="M136.765,0,135.24.2c-.994.126-2.451.336-4.31.553l-6.718.712c-2.6.26-5.526.58-8.727.852-3.2.237-6.675.494-10.35.729s-7.549.533-11.563.721c-4.018.109-8.171.26-12.392.344L68.355,4.4,55.584,4.114c-4.212-.08-8.356-.234-12.368-.342-4.015-.189-7.9-.485-11.576-.72s-7.154-.491-10.36-.73c-3.2-.272-6.129-.591-8.726-.853L5.836.756C3.976.538,2.519.328,1.524.2L0,0,21.384.856c3.206.077,6.677.163,10.345.289l11.535.376c4.013.044,8.161.045,12.373.124l12.773.2,12.719-.2c4.2-.075,8.345-.081,12.351-.123,8.007-.263,15.484-.522,21.9-.664L136.765,0" transform="translate(104.118 131.094)" fill="#b0b0b0"/>
        <path id="Fill_38" data-name="Fill 38" d="M0,44.871l4.845-.706,12.774-1.753,18.05-2.406,10.163-1.4c3.461-.469,6.965-1,10.463-1.553l5.229-.851c1.723-.331,3.453-.627,5.145-.981l2.509-.567c.848-.16,1.646-.393,2.439-.623l1.191-.337.3-.084.148-.041c.074-.028-.059.026-.032.014l.037-.014.074-.03.589-.24.584-.24.464-.261a6.392,6.392,0,0,0,.928-.568A17.221,17.221,0,0,0,81.4,25.3a41.011,41.011,0,0,0,2.67-7.9A80.764,80.764,0,0,0,85.887,4.845C86.1,1.769,86.1,0,86.1,0s.043.44.125,1.265c.067.825.17,2.04.209,3.59s.064,3.436-.046,5.6a57.465,57.465,0,0,1-.763,7.256c-.212,1.327-.523,2.7-.877,4.113a36.069,36.069,0,0,1-1.464,4.3,25.057,25.057,0,0,1-2.325,4.3A15.312,15.312,0,0,1,77.3,34.2a8.679,8.679,0,0,1-1.189.765l-.633.361-.58.256-.581.256-.074.031-.036.017s-.156.06-.107.041l-.158.05-.314.1-1.265.4c-1.694.589-3.4.91-5.135,1.336-1.73.379-3.475.693-5.227,1.045l-5.276.9c-3.531.525-7.062,1.028-10.542,1.468-1.738.242-3.467.43-5.175.619l-5.055.55c-3.319.365-6.534.639-9.581.907s-5.933.486-8.6.668c-2.662.2-5.107.337-7.273.459s-4.056.207-5.612.277c-3.114.129-4.9.166-4.9.166" transform="translate(240.882 147.811)" fill="#b0b0b0"/>
        <path id="Fill_39" data-name="Fill 39" d="M32.494,16.712a10.862,10.862,0,0,0,.852-3.8,8.949,8.949,0,0,0-.659-3.792,8.7,8.7,0,0,0-2.24-3.075,12.856,12.856,0,0,0-3.2-2.071,26.157,26.157,0,0,0-3.618-1.306C22.4,2.3,21.144,1.993,19.887,1.75A26.3,26.3,0,0,0,12.3,1.278,11.665,11.665,0,0,0,5.584,3.962a8.955,8.955,0,0,0-2.077,2.9,12.079,12.079,0,0,0-.954,3.518,9.252,9.252,0,0,0-.089.925c-.025.309-.046.619-.042.933s-.017.639,0,.924l.038.983a31.637,31.637,0,0,0,.37,3.775,15.727,15.727,0,0,0,.99,3.5,6.454,6.454,0,0,0,.83,1.426,3.577,3.577,0,0,0,.5.511,1.987,1.987,0,0,0,.243.166.506.506,0,0,0,.1.051c.016.008.03.015.03.012s.027.006-.057-.015L6.26,25.43,2.574,31.857a1.372,1.372,0,0,1-1.885.508,1.4,1.4,0,0,1-.5-1.906l.028-.047,3.933-6.276L4.941,26a1.941,1.941,0,0,1-.288-.094,1.641,1.641,0,0,1-.192-.086,2.521,2.521,0,0,1-.327-.183,4.329,4.329,0,0,1-.545-.406,5.969,5.969,0,0,1-.833-.917,8.826,8.826,0,0,1-1.068-1.991,17.888,17.888,0,0,1-.995-4.087,33.8,33.8,0,0,1-.237-4.06V13.2c0-.371.029-.694.041-1.042s.047-.685.087-1.028S.656,10.44.724,10.1A13.894,13.894,0,0,1,1.983,6.11,10.593,10.593,0,0,1,4.577,2.785a11.167,11.167,0,0,1,3.64-2A15.6,15.6,0,0,1,12.2.039a27.358,27.358,0,0,1,7.879.8c1.281.3,2.538.664,3.784,1.09a26.756,26.756,0,0,1,3.652,1.487A13.357,13.357,0,0,1,30.76,5.7,9.106,9.106,0,0,1,32.971,9,9.187,9.187,0,0,1,33.5,12.92a10.963,10.963,0,0,1-1.005,3.792" transform="translate(305.294 33.433)" fill="#b0b0b0"/>
        <path id="Fill_40" data-name="Fill 40" d="M247.941,60.708l-1.866-2.748c-1.221-1.788-3.056-4.384-5.394-7.68s-5.243-7.254-8.687-11.7-7.437-9.387-12.081-14.491a91.505,91.505,0,0,0-7.641-7.514,38.1,38.1,0,0,0-4.473-3.3,16.318,16.318,0,0,0-2.46-1.234l-.314-.13c-.044-.018-.124-.054-.139-.056l-.176-.055L204,11.577l-1.422-.446a179.307,179.307,0,0,0-24.41-4.819c-8.582-1.218-17.518-2.019-26.6-2.649-9.085-.608-18.355-.929-27.584-.92l-6.958.056c-2.306.061-4.608.083-6.911.175-4.606.161-9.193.373-13.736.691-9.085.634-18.021,1.432-26.6,2.65A179.346,179.346,0,0,0,45.35,11.14l-1.4.438-.7.218-.174.054c-.04.012.044-.019-.032.012l-.085.035-.341.14a16.211,16.211,0,0,0-2.476,1.24,38.138,38.138,0,0,0-4.472,3.3,91.2,91.2,0,0,0-7.642,7.514c-4.646,5.1-8.625,10.053-12.08,14.49s-6.338,8.414-8.69,11.7S3.09,56.172,1.867,57.96L0,60.708l1.741-2.829c1.151-1.835,2.833-4.533,5.078-7.9s5-7.434,8.307-12.009,7.131-9.676,11.747-14.91A92.847,92.847,0,0,1,34.5,15.247a39.985,39.985,0,0,1,4.64-3.565A18.617,18.617,0,0,1,41.86,10.25L42.2,10.1l.085-.037c-.02.005.121-.05.14-.055l.178-.06.713-.24,1.435-.481A164.715,164.715,0,0,1,69.424,3.924c2.159-.339,4.345-.605,6.542-.914,2.2-.256,4.418-.548,6.653-.78,4.468-.481,9-.91,13.573-1.209,4.572-.336,9.188-.565,13.825-.744,2.317-.1,4.649-.131,6.977-.2L123.959,0C133.3.024,142.6.38,151.748,1.022s18.126,1.605,26.769,2.9A164.932,164.932,0,0,1,203.2,9.238l1.413.474.7.236.175.059a2.193,2.193,0,0,1,.2.082l.364.157a18.314,18.314,0,0,1,2.734,1.438,39.96,39.96,0,0,1,4.639,3.565,93.05,93.05,0,0,1,7.631,7.813c4.616,5.234,8.436,10.34,11.746,14.91s6.067,8.64,8.309,12.008,3.926,6.065,5.078,7.9l1.741,2.829" transform="translate(48.529)" fill="#b0b0b0"/>
        <path id="Fill_41" data-name="Fill 41" d="M84.672.946c.079-.031-.009-.077-.054-.079A1.265,1.265,0,0,0,84.463.84c-.1-.014-.21-.023-.316-.03L83.515.779,82.247.755H79.709c-1.691,0-3.384.029-5.075.062l-10.146.252q-5.072.139-10.14.353l-10.133.469c-3.376.164-6.749.383-10.12.594s-6.737.479-10.1.8-6.713.666-10.04,1.149c-1.663.241-3.32.514-4.959.841a43.426,43.426,0,0,0-4.824,1.2l.19-1.514a4.3,4.3,0,0,1,.65.568,7.3,7.3,0,0,1,.507.581A10.14,10.14,0,0,1,6.36,7.348a13.414,13.414,0,0,1,1.148,2.68,18.72,18.72,0,0,1,.651,2.789,24.7,24.7,0,0,1,.271,2.821q.06,1.409,0,2.812c-.034.934-.108,1.864-.212,2.788s-.23,1.844-.378,2.76-.327,1.824-.515,2.73c-.207.9-.391,1.807-.635,2.7-.224.9-.461,1.787-.727,2.67-.249.887-.539,1.762-.833,2.635s-.593,1.743-.908,2.607-.633,1.726-.971,2.58-.665,1.712-1.026,2.556-.694,1.7-1.085,2.53L0,47.511l.959-2.579c.327-.856.611-1.728.927-2.587s.6-1.728.887-2.6.573-1.737.831-2.615.532-1.749.765-2.633q.372-1.318.7-2.649c.234-.881.441-1.769.633-2.66.212-.887.364-1.783.54-2.676.156-.9.3-1.793.42-2.693s.219-1.8.282-2.7.114-1.8.118-2.7-.017-1.8-.084-2.689a22.91,22.91,0,0,0-.34-2.645,17.311,17.311,0,0,0-.639-2.553A11.807,11.807,0,0,0,4.946,8.18a8.517,8.517,0,0,0-.711-1.023,5.906,5.906,0,0,0-.4-.446,3.327,3.327,0,0,0-.38-.333l-1.433-.97,1.624-.544A59.926,59.926,0,0,1,13.7,2.649c3.371-.5,6.749-.893,10.131-1.2C30.6.848,37.372.464,44.148.248,50.923-.005,57.7-.01,64.477,0c3.388,0,6.775.079,10.161.2,1.692.058,3.386.124,5.079.209.846.039,1.692.1,2.537.163l1.267.114.632.077c.105.016.21.031.314.053.051.011.1.023.155.039.044,0,.133.065.05.09" transform="translate(240.882 145.172)" fill="#b0b0b0"/>
        <path id="Fill_42" data-name="Fill 42" d="M0,27.275H.882V0H0Z" transform="translate(322.941 146.051)" fill="#b0b0b0"/>
        <path id="Fill_43" data-name="Fill 43" d="M0,32.554H.882V0H0Z" transform="translate(319.412 146.051)" fill="#b0b0b0"/>
        <path id="Fill_44" data-name="Fill 44" d="M0,35.193H.882V0H0Z" transform="translate(316.765 146.051)" fill="#b0b0b0"/>
        <path id="Fill_45" data-name="Fill 45" d="M0,36.953H.882V0H0Z" transform="translate(314.118 146.051)" fill="#b0b0b0"/>
        <path id="Fill_46" data-name="Fill 46" d="M0,37.833H.882V0H0Z" transform="translate(310.588 146.051)" fill="#b0b0b0"/>
        <path id="Fill_47" data-name="Fill 47" d="M0,38.712H.882V0H0Z" transform="translate(307.941 146.051)" fill="#b0b0b0"/>
        <path id="Fill_48" data-name="Fill 48" d="M0,38.712H.882V0H0Z" transform="translate(304.412 146.051)" fill="#b0b0b0"/>
        <path id="Fill_49" data-name="Fill 49" d="M0,39.592H.882V0H0Z" transform="translate(301.765 146.051)" fill="#b0b0b0"/>
        <path id="Fill_50" data-name="Fill 50" d="M0,41.352H.882V0H0Z" transform="translate(298.235 146.051)" fill="#b0b0b0"/>
        <path id="Fill_51" data-name="Fill 51" d="M0,41.352H.882V0H0Z" transform="translate(295.588 146.051)" fill="#b0b0b0"/>
        <path id="Fill_52" data-name="Fill 52" d="M0,41.352H.882V0H0Z" transform="translate(292.059 146.051)" fill="#b0b0b0"/>
        <path id="Fill_53" data-name="Fill 53" d="M0,41.352H.882V0H0Z" transform="translate(289.412 146.051)" fill="#b0b0b0"/>
        <path id="Fill_54" data-name="Fill 54" d="M0,41.352H.882V0H0Z" transform="translate(285.882 146.051)" fill="#b0b0b0"/>
        <path id="Fill_55" data-name="Fill 55" d="M0,42.232H.882V0H0Z" transform="translate(283.235 146.051)" fill="#b0b0b0"/>
        <path id="Fill_56" data-name="Fill 56" d="M0,42.232H.882V0H0Z" transform="translate(279.706 146.051)" fill="#b0b0b0"/>
        <path id="Fill_57" data-name="Fill 57" d="M0,43.112H.882V0H0Z" transform="translate(277.059 146.051)" fill="#b0b0b0"/>
        <path id="Fill_58" data-name="Fill 58" d="M0,42.232H.882V0H0Z" transform="translate(273.529 146.931)" fill="#b0b0b0"/>
        <path id="Fill_59" data-name="Fill 59" d="M0,42.232H.882V0H0Z" transform="translate(270.882 147.811)" fill="#b0b0b0"/>
        <path id="Fill_60" data-name="Fill 60" d="M0,42.232H.882V0H0Z" transform="translate(267.353 147.811)" fill="#b0b0b0"/>
        <path id="Fill_61" data-name="Fill 61" d="M0,42.232H.882V0H0Z" transform="translate(264.706 147.811)" fill="#b0b0b0"/>
        <path id="Fill_62" data-name="Fill 62" d="M0,42.232H.882V0H0Z" transform="translate(262.059 148.691)" fill="#b0b0b0"/>
        <path id="Fill_63" data-name="Fill 63" d="M0,42.232H.882V0H0Z" transform="translate(258.529 148.691)" fill="#b0b0b0"/>
        <path id="Fill_64" data-name="Fill 64" d="M0,43.112H.882V0H0Z" transform="translate(255.882 148.691)" fill="#b0b0b0"/>
        <path id="Fill_65" data-name="Fill 65" d="M0,43.112H.882V0H0Z" transform="translate(252.353 148.691)" fill="#b0b0b0"/>
        <path id="Fill_66" data-name="Fill 66" d="M0,42.232H.882V0H0Z" transform="translate(249.706 149.571)" fill="#b0b0b0"/>
        <path id="Fill_67" data-name="Fill 67" d="M.441,0V14.077" transform="translate(246.176 177.725)" fill="#b0b0b0"/>
        <path id="Fill_68" data-name="Fill 68" d="M344.353,0a2.846,2.846,0,0,1,.452.913,4.014,4.014,0,0,1-.172,2.916,8.94,8.94,0,0,1-3.213,3.554,28.162,28.162,0,0,1-5.844,2.973,92.219,92.219,0,0,1-17.2,4.292c-6.758,1.132-14.447,2-22.854,2.612S277.993,18.284,268.34,18.5c-4.827.08-9.786.177-14.856.174l-3.822.014-.961,0c-.394,0-.66-.026-.993-.036l-1.921-.066q-3.858-.108-7.789-.051c-2.618.034-5.256.136-7.9.323s-5.3.453-7.941.883c-1.324.2-2.624.487-3.926.78l-1.917.536-1.987.573a55.933,55.933,0,0,1-8.251,1.505,144.945,144.945,0,0,1-16.766.613c-5.6-.041-11.21-.155-16.8-.144-5.613-.007-11.205.105-16.811.146a145.131,145.131,0,0,1-16.767-.613,56.194,56.194,0,0,1-8.235-1.5l-1.977-.571-1.968-.55c-1.295-.289-2.568-.576-3.9-.773-2.635-.43-5.292-.709-7.94-.884s-5.285-.289-7.9-.323-5.217-.021-7.789.052l-1.921.065-.478.021-.236.012-.283,0h-.961l-3.819-.014c-5.061,0-10.027-.094-14.854-.175-9.654-.214-18.779-.623-27.186-1.24s-16.1-1.478-22.855-2.612a92.239,92.239,0,0,1-17.2-4.293A28.2,28.2,0,0,1,3.581,7.383,8.927,8.927,0,0,1,.368,3.828,4.014,4.014,0,0,1,.2.913,2.882,2.882,0,0,1,.647,0,2.86,2.86,0,0,0,.22.92,3.954,3.954,0,0,0,.46,3.789,8.8,8.8,0,0,0,3.706,7.2a29.185,29.185,0,0,0,5.845,2.82,91.778,91.778,0,0,0,17.178,3.954c6.752,1,14.428,1.725,22.817,2.26s17.5.827,27.136.933c4.819.026,9.763.068,14.83.009l3.819-.028.961,0h.2l.245-.014.485-.022,1.943-.075q3.893-.125,7.859-.081c2.643.024,5.309.117,7.993.3s5.389.44,8.1.872c1.347.194,2.726.495,4.088.8l1.97.542,1.962.56a54.564,54.564,0,0,0,7.984,1.423,143.164,143.164,0,0,0,16.562.54c5.575-.059,11.206-.2,16.819-.2,5.631.01,11.245.146,16.826.206a143.151,143.151,0,0,0,16.561-.541,54.383,54.383,0,0,0,7.968-1.418l1.952-.556,2.022-.557c1.354-.3,2.7-.6,4.062-.792,2.708-.431,5.412-.7,8.1-.872s5.351-.273,7.995-.3,5.263,0,7.859.082l1.943.074c.31.009.685.042.932.037l.96.006,3.816.028c5.06.06,10.01.018,14.829-.009,9.637-.107,18.745-.414,27.137-.935s16.066-1.258,22.817-2.259a91.765,91.765,0,0,0,17.178-3.956,29.13,29.13,0,0,0,5.845-2.82,8.8,8.8,0,0,0,3.247-3.416,3.956,3.956,0,0,0,.24-2.87,2.886,2.886,0,0,0-.428-.92" transform="translate(0 181.245)" fill="#b0b0b0"/>
        <path id="Fill_69" data-name="Fill 69" d="M0,4.944s.133.742.384,2.135.682,3.421,1.243,6c.577,2.57,1.329,5.684,2.425,9.171a53.94,53.94,0,0,0,2.014,5.432,17.6,17.6,0,0,0,3.225,5.264,3.756,3.756,0,0,0,.564.487l.294.215a3.279,3.279,0,0,0,.309.156,2.158,2.158,0,0,0,.309.142l.315.078.15.041.219.028.425.049c1.14.121,2.342.208,3.554.291,2.432.163,4.951.321,7.544.46l16.321.789,17.458.7c5.942.218,11.988.424,18,.454,1.5.008,3,.012,4.467-.045.362-.016.726-.034,1.062-.066.176-.012.324-.034.473-.053l.148-.028a.084.084,0,0,0-.043.016c.027-.005-.027.007-.171.093a.978.978,0,0,0-.273.27c-.271.454-.058.089-.111.174.027-.051,0-.011-.039.077a.763.763,0,0,0-.053.213c-.005.072,0,.025-.005.042s0-.031-.005-.064a4.043,4.043,0,0,0-.079-.4c-.074-.3-.175-.637-.286-.97a70.268,70.268,0,0,0-3.519-8.035C75,25.432,73.609,22.867,72.142,20.4a54.038,54.038,0,0,0-4.772-6.922,11.409,11.409,0,0,0-2.762-2.531,2.841,2.841,0,0,0-.325-.153l-.455-.151-.986-.322-1.923-.576c-2.6-.74-5.174-1.435-7.687-2.062C48.2,6.418,43.427,5.3,39.005,4.331c-4.428-.935-8.5-1.756-12.12-2.392-1.812-.313-3.513-.575-5.087-.81-1.578-.186-3.025-.421-4.34-.52A59.872,59.872,0,0,0,11.343.27l-2.171.1L11.336.121A49.275,49.275,0,0,1,17.5.074c1.33.031,2.79.193,4.389.3,1.592.155,3.315.329,5.15.55,3.671.445,7.8,1.057,12.277,1.854s9.315,1.747,14.4,2.9q3.82.846,7.817,1.875l2.034.552.991.306.535.17a5.155,5.155,0,0,1,.625.276,13.4,13.4,0,0,1,3.5,3.034,56.322,56.322,0,0,1,5.127,7.173q2.338,3.764,4.366,7.794a72.672,72.672,0,0,1,3.711,8.37c.128.379.249.766.355,1.191a6.582,6.582,0,0,1,.138.7,3.343,3.343,0,0,1,.026.5,1.66,1.66,0,0,1-.011.183,2.159,2.159,0,0,1-.077.352,1.688,1.688,0,0,1-.079.211c-.075.125.128-.189-.176.3a1.839,1.839,0,0,1-.387.351,1.266,1.266,0,0,1-.3.156c-.1.039-.206.073-.311.1l-.407.084c-.224.031-.451.063-.651.079-.415.04-.806.061-1.2.081-1.559.067-3.08.075-4.6.069-6.087-.064-12.135-.3-18.094-.552s-11.814-.606-17.48-.943-11.14-.743-16.331-1.161c-2.595-.215-5.119-.42-7.562-.676-1.225-.131-2.417-.26-3.62-.431l-.45-.069-.217-.035c-.1-.023-.182-.048-.273-.074l-.528-.157a3.727,3.727,0,0,1-.474-.232,4.074,4.074,0,0,1-.843-.561,5.238,5.238,0,0,1-.7-.652A18.257,18.257,0,0,1,4.84,28.177a55.109,55.109,0,0,1-1.772-5.649c-.927-3.584-1.519-6.744-1.966-9.351S.41,8.506.236,7.1C.082,5.694,0,4.944,0,4.944" transform="translate(14.118 89.742)" fill="#b0b0b0"/>
        <path id="Fill_70" data-name="Fill 70" d="M82.941,4.944s-.083.751-.237,2.157c-.174,1.4-.415,3.469-.865,6.076s-1.04,5.768-1.967,9.351A55.109,55.109,0,0,1,78.1,28.177a18.245,18.245,0,0,1-3.323,5.869,5.231,5.231,0,0,1-.7.652,4.1,4.1,0,0,1-.844.561,3.773,3.773,0,0,1-.474.232l-.528.157c-.091.025-.171.05-.273.074l-.217.035-.45.069c-1.2.171-2.395.3-3.619.431-2.444.255-4.968.461-7.564.676-5.19.418-10.663.826-16.329,1.161s-11.523.7-17.481.943-12.008.488-18.094.552c-1.526.006-3.046,0-4.6-.069-.393-.02-.782-.041-1.2-.08-.2-.017-.427-.048-.65-.08l-.406-.084c-.105-.031-.21-.065-.312-.1a1.188,1.188,0,0,1-.292-.154,1.826,1.826,0,0,1-.39-.349c-.309-.493-.1-.174-.178-.3a1.485,1.485,0,0,1-.079-.208,2.092,2.092,0,0,1-.077-.352A1.459,1.459,0,0,1,0,37.625a3.369,3.369,0,0,1,.025-.5,6.746,6.746,0,0,1,.139-.7C.271,36,.393,35.61.521,35.23a72.389,72.389,0,0,1,3.712-8.37Q6.268,22.838,8.6,19.066a56.433,56.433,0,0,1,5.127-7.173,13.426,13.426,0,0,1,3.5-3.034,5.062,5.062,0,0,1,.625-.276l.535-.17.99-.306,2.035-.552q4-1.023,7.817-1.875c5.085-1.154,9.921-2.1,14.4-2.9S52.234,1.369,55.905.923C57.74.7,59.463.528,61.054.373c1.6-.106,3.058-.268,4.39-.3A49.26,49.26,0,0,1,71.6.121l2.164.251L71.6.27a59.88,59.88,0,0,0-6.115.339c-1.314.1-2.761.334-4.339.52-1.574.236-3.276.5-5.088.81-3.622.636-7.691,1.458-12.12,2.392-4.422.969-9.2,2.086-14.225,3.349C27.2,8.308,24.624,9,22.022,9.743l-1.923.576-.985.322-.454.151a2.8,2.8,0,0,0-.325.153,11.4,11.4,0,0,0-2.763,2.531A54.16,54.16,0,0,0,10.8,20.4c-1.466,2.469-2.858,5.035-4.18,7.658A70.232,70.232,0,0,0,3.1,36.092c-.111.332-.212.665-.286.969-.039.155-.063.292-.079.4,0,.034-.008.1,0,.065s0,.031-.005-.044a.777.777,0,0,0-.053-.213c-.038-.091-.065-.126-.038-.075-.054-.086.162.285-.113-.177a.987.987,0,0,0-.273-.269c-.146-.087-.192-.1-.168-.091a.084.084,0,0,0-.043-.016l.148.028c.15.019.3.041.473.053.337.032.7.05,1.064.066,1.461.057,2.966.053,4.466.045,6.014-.031,12.06-.236,18-.454l17.458-.7,16.32-.789c2.593-.139,5.113-.3,7.544-.46,1.212-.083,2.414-.17,3.554-.291l.426-.049.219-.028.15-.041.314-.078a2.158,2.158,0,0,0,.309-.142,3.2,3.2,0,0,0,.309-.156l.294-.215a3.727,3.727,0,0,0,.565-.487,17.578,17.578,0,0,0,3.225-5.265,53.694,53.694,0,0,0,2.013-5.431c1.1-3.487,1.848-6.6,2.425-9.171.562-2.575.987-4.606,1.244-6s.384-2.135.384-2.135" transform="translate(247.941 89.742)" fill="#b0b0b0"/>
      </g>
    </g>
  </g>
</svg>
