<svg xmlns="http://www.w3.org/2000/svg" width="236.767" height="70.14" viewBox="0 0 236.767 70.14">
  <g id="Group_936" data-name="Group 936" transform="translate(-17.749 -154.434)">
    <g id="Car" transform="translate(17.749 154.434)">
      <g id="Group_933" data-name="Group 933">
        <path id="Path_669" data-name="Path 669" d="M235.608,222.562l-4.556,4.017-7.092.456-34.3-.653-101.942-.9-2.705.9s-4.108-.111-5.783.01-25.642.643-25.642.643-5.022.248-6.565,1.271l-4.507-8.469L46.226,199.5s11.983-5.111,12.925-5.215,19.256-.626,19.256-.626l31.335,2.968,94.135-5.472,29.191.731Z" transform="translate(-24.84 -164.945)" fill="#119fda"/>
        <path id="Path_670" data-name="Path 670" d="M340.372,226.615a5.2,5.2,0,0,0-.083.752,6.079,6.079,0,0,1-2.272,3.831s-.939,1.937-2.474,1.937-11.623.308-11.623.308,13.017-13.852,17.649-12.4a8.9,8.9,0,0,0-.711,2.45,21.006,21.006,0,0,1-.486,3.118" transform="translate(-105.393 -173.472)" fill="#119fda"/>
        <path id="Path_671" data-name="Path 671" d="M102.423,176.323s9.592-3.372,14.816-5.766S140.467,158.5,147.247,157.4s5.04,5.253,5.04,5.432S104,186.318,102.423,176.323Z" transform="translate(-41.988 -155.248)" fill="#adafb1"/>
        <path id="Path_672" data-name="Path 672" d="M324.4,188.5h10.163l.789.482s3.523,2.59.79,8.456S319.886,196.916,324.4,188.5Z" transform="translate(-105.269 -164.187)" fill="#adafb1"/>
        <path id="Path_673" data-name="Path 673" d="M256.76,161.221l4.738-.18s23.007,5.385,37.478,12.808-8.686,4.25-8.686,4.25S254.7,165.231,256.76,161.221Z" transform="translate(-86.143 -156.325)" fill="#adafb1"/>
        <path id="Path_674" data-name="Path 674" d="M105.382,182.618s3.107-.939,4.261,0a2.076,2.076,0,0,1,.789,2.136Z" transform="translate(-42.835 -162.382)" fill="#adafb1"/>
        <path id="Path_675" data-name="Path 675" d="M115.031,215.871h-37.1S83.464,188.955,58.741,188s-18.8,29.8-18.8,29.8-21.88-1.552-22.184-5.442c0,0-.128-.837,1.026-1.375,0,0-.732-12.568,1.029-16.457s1.639-8.678,10.628-11.97,30.492-7.182,50.354-7.9c0,0,4.8,1.617,7.35,1.557,0,0,25.688-14.632,33.558-17.567a3.536,3.536,0,0,1,.518-1.765c.485-.6,17.068-3.412,38.025-2.095S193.1,159.15,193.1,159.15s-3.1,1.5-2.673,1.736,32.315,10.653,32.315,10.653,4.677.958,7.229-.12c0,0,5.649,1.5,7.228,1.616s9.6-.18,9.719.779-.122,2.693.3,3.052c.222.188,2.263,4.3,1.943,4.848l-1.336-2.514s-11.176.539-11.359,1.916a12.061,12.061,0,0,0,1.58,5.626c.607.659,10.934.24,10.934.24s.729,4.848,1.7,5.507,3.887,1.2,3.827,2.932c-.091,2.588.064,5.333-1,7.762a2.407,2.407,0,0,1-1.793,1.627c-.42.049-.863-.018-1.29.03a6.568,6.568,0,0,0-4.295,2.193c-2.248,2.633-4.8,6.344-9.415,7.421a104.519,104.519,0,0,1-12.756,1.615s2.066-25.984-19.8-26.583S183.2,215.871,183.2,215.871H118.135" transform="translate(-17.749 -154.434)" fill="#119fda"/>
        <line id="Line_20" data-name="Line 20" x1="3.104" transform="translate(97.281 61.437)" fill="#119fda"/>
        <g id="Group_921" data-name="Group 921" transform="translate(75.653 3.528)">
          <path id="Path_676" data-name="Path 676" d="M207.973,162.063c-8-1.892-34.236-4.1-46.794-1.5s-25.437,7.251-37.435,17.1l2.328-.046A80.207,80.207,0,0,1,147.1,166c14.638-5.6,24.316-6.069,35.756-5.439s22.477.946,29.676,4.414,15.118,8.669,14.558,9.221c-.492.485-32.631,1.881-40.452,2.214l39.732-.792s2.48-.081,2.48-1.106S215.972,163.954,207.973,162.063Z" transform="translate(-123.744 -159.376)" fill="#119fda"/>
          <path id="Path_677" data-name="Path 677" d="M125.089,185.6l60.233-2.286,1.7-.071-60.567,1.208C125.55,185.178,125.089,185.6,125.089,185.6Z" transform="translate(-124.129 -166.209)" fill="none"/>
          <path id="Path_678" data-name="Path 678" d="M213.466,165.37c-7.2-3.469-18.238-3.784-29.676-4.415s-21.118-.158-35.756,5.439a80.209,80.209,0,0,0-21.029,11.618l60.567-1.208c7.821-.333,39.96-1.729,40.452-2.214C228.584,174.039,220.665,168.837,213.466,165.37Z" transform="translate(-124.678 -159.767)" fill="#119fda"/>
        </g>
        <path id="Path_679" data-name="Path 679" d="M142.85,177.03s14.478-9.7,25.757-11.589,24.4-.866,24.4-.866-2.639,12.847-3.759,13.4-48.774.866-48.774.866Z" transform="translate(-52.879 -157.257)" fill="#adafb1"/>
        <path id="Path_680" data-name="Path 680" d="M223.262,165.33l-1.68,11.586,25.517-.867s2.639.079,2.639-.867S237.98,164.542,223.262,165.33Z" transform="translate(-76.098 -157.54)" fill="#adafb1"/>
        <path id="Path_681" data-name="Path 681" d="M102.633,213.3l0-.267c.168,0,5.132-.053,12.182-.123-1.718-2.579-1.552-8.12-1.544-8.361,0-.154-.462-16.285.647-20.889a10.6,10.6,0,0,1,4.948-6.626c.111-.066,11.924-7.165,15.31-8.982,8.059-4.325,15.85-7.021,21.937-7.593,8.783-.826,27.64-.471,27.829-.467.707.066,17.108,1.613,20.275,2.928s14.17,7.94,14.281,8.007c.161.079,4.172,2.083,4.395,3.5a.741.741,0,0,1-.238.68c-.96.922-3.765.887-7.317.843-1.51-.019-3.07-.038-4.63.016-4.9.172-27.2.687-29.11.731a3.677,3.677,0,0,0,.685,2.148c.111.148.23.3.352.455a5.47,5.47,0,0,1,1.575,4.07c-.037.375-.078,1.1-.134,2.107-.251,4.482-.774,13.808-2.417,17.594-2.064,4.755-3.21,6.556-5.927,7.845-2.75,1.3-7.72,1.916-11.207,1.849C161.175,212.7,103.217,213.294,102.633,213.3Zm81.17-27.837c.056-1.008.1-1.737.135-2.118a5.183,5.183,0,0,0-1.52-3.881c-.124-.158-.244-.31-.356-.46a3.876,3.876,0,0,1-.733-2.449l.01-.118.122,0c.24-.006,24.145-.556,29.234-.734,1.567-.055,3.131-.035,4.643-.016,3.351.042,6.245.078,7.125-.767a.485.485,0,0,0,.158-.449c-.167-1.066-3.13-2.75-4.257-3.309-.121-.072-11.116-6.691-14.254-7.994s-20.015-2.892-20.185-2.908c-.083,0-4.17-.078-9.406-.078-6.067,0-13.676.1-18.382.545-6.052.569-13.806,3.254-21.833,7.561-3.38,1.814-15.188,8.909-15.307,8.98a10.323,10.323,0,0,0-4.817,6.455c-1.1,4.57-.645,20.666-.64,20.828,0,.067-.178,5.924,1.6,8.357,17.392-.173,47.021-.455,49.389-.409,3.455.068,8.373-.536,11.084-1.823,2.639-1.252,3.761-3.023,5.8-7.71" transform="translate(-42.047 -156.002)" fill="#119fda"/>
        <g id="Group_922" data-name="Group 922" transform="translate(169.287 36.556)">
          <path id="Path_682" data-name="Path 682" d="M288.876,222.374A16.974,16.974,0,1,1,271.9,205.651,16.849,16.849,0,0,1,288.876,222.374Z" transform="translate(-254.932 -205.651)" fill="#333"/>
        </g>
        <path id="Path_683" data-name="Path 683" d="M340.754,189.213l.794,2.4s-1.505.749-1.505.4-.355-2.45-.355-2.45l.355-.35Z" transform="translate(-109.907 -164.39)" fill="#adafb1"/>
        <path id="Path_684" data-name="Path 684" d="M209.853,206.353a4.056,4.056,0,0,0-.45-.2h0A4.056,4.056,0,0,1,209.853,206.353Z" transform="translate(-72.612 -169.24)" fill="#b9cb33"/>
        <g id="Group_923" data-name="Group 923" transform="translate(235.473 50.085)">
          <path id="Path_685" data-name="Path 685" d="M347.665,224.607h0C347.664,224.616,347.664,224.614,347.665,224.607Z" transform="translate(-347.663 -224.607)" fill="#fff"/>
        </g>
        <g id="Group_928" data-name="Group 928" transform="translate(24.562 36.694)">
          <path id="Path_692" data-name="Path 692" d="M86.107,222.568a16.974,16.974,0,1,1-16.973-16.723A16.849,16.849,0,0,1,86.107,222.568Z" transform="translate(-52.162 -205.845)" fill="#333"/>
        </g>
      </g>
    </g>
    <g id="Connections" transform="translate(24.704 157.003)">
      <g id="Conncetions" transform="translate(0 0)">
        <g id="Green_Dots" data-name="Green Dots" transform="translate(54.93 31.687)">
          <circle id="Ellipse_125" data-name="Ellipse 125" cx="4.456" cy="4.456" r="4.456" transform="translate(2.136 3.563)" fill="#fff"/>
          <path id="Path_699" data-name="Path 699" d="M111.044,215.612a6.591,6.591,0,1,1,6.591-6.591A6.6,6.6,0,0,1,111.044,215.612Zm0-8.912a2.32,2.32,0,1,0,2.32,2.32A2.323,2.323,0,0,0,111.044,206.7Z" transform="translate(-104.453 -202.429)" fill="#bacc33"/>
        </g>
        <g id="Green_Dots-2" data-name="Green Dots" transform="translate(0 42.116)">
          <circle id="Ellipse_126" data-name="Ellipse 126" cx="4.456" cy="4.456" r="4.456" transform="translate(2.135 2.136)" fill="#fff"/>
          <path id="Path_700" data-name="Path 700" d="M34.084,230.223a6.591,6.591,0,1,1,6.591-6.591A6.6,6.6,0,0,1,34.084,230.223Zm0-8.912a2.32,2.32,0,1,0,2.32,2.32A2.323,2.323,0,0,0,34.084,221.311Z" transform="translate(-27.493 -217.04)" fill="#bacc33"/>
        </g>
        <circle id="Ellipse_127" data-name="Ellipse 127" cx="2.332" cy="2.332" r="2.332" transform="translate(59.189 35.946)" fill="#fff"/>
        <g id="Green_Dots-3" data-name="Green Dots" transform="translate(90.892 44.585)">
          <circle id="Ellipse_128" data-name="Ellipse 128" cx="4.456" cy="4.456" r="4.456" transform="translate(2.136 2.135)" fill="#fff"/>
          <path id="Path_701" data-name="Path 701" d="M161.43,233.683a6.591,6.591,0,1,1,6.592-6.591A6.6,6.6,0,0,1,161.43,233.683Zm0-8.912a2.32,2.32,0,1,0,2.32,2.32A2.322,2.322,0,0,0,161.43,224.771Z" transform="translate(-154.839 -220.5)" fill="#bacc33"/>
        </g>
        <g id="Green_Dots-4" data-name="Green Dots" transform="translate(155.741 21.381)">
          <circle id="Ellipse_129" data-name="Ellipse 129" cx="4.456" cy="4.456" r="4.456" transform="translate(2.135 2.136)" fill="#fff"/>
          <path id="Path_702" data-name="Path 702" d="M252.288,201.172a6.591,6.591,0,1,1,6.591-6.591A6.6,6.6,0,0,1,252.288,201.172Z" transform="translate(-245.697 -187.989)" fill="#bacc33"/>
        </g>
        <path id="Path_703" data-name="Path 703" d="M98.294,233.841" transform="translate(-47.76 -179.734)" fill="none" stroke="#fff" stroke-miterlimit="10" stroke-width="2.244"/>
        <path id="Path_704" data-name="Path 704" d="M135.03,194.918a4.473,4.473,0,0,0-3.074,7.729l-13.878,19.164H98l-.744,1.776h21.734l14.482-20a4.476,4.476,0,1,0,1.563-8.67Z" transform="translate(-47.462 -168.592)" fill="#fff"/>
        <circle id="Green_Dots-5" data-name="Green Dots" cx="9.055" cy="9.055" r="9.055" transform="translate(116.643 49.8) rotate(-67.5)" fill="#bacc33"/>
        <g id="Green_Dots-6" data-name="Green Dots" transform="translate(75.737 18.973)">
          <circle id="Ellipse_130" data-name="Ellipse 130" cx="9.055" cy="9.055" r="9.055" transform="translate(0 16.732) rotate(-67.5)" fill="#bacc33"/>
          <circle id="Ellipse_131" data-name="Ellipse 131" cx="4.456" cy="4.456" r="4.456" transform="translate(7.376 7.376)" fill="#fff"/>
        </g>
        <g id="Green_Dots-7" data-name="Green Dots" transform="translate(198.804 33.175)">
          <circle id="Ellipse_132" data-name="Ellipse 132" cx="9.055" cy="9.055" r="9.055" transform="translate(0 16.732) rotate(-67.5)" fill="#bacc33"/>
          <circle id="Ellipse_133" data-name="Ellipse 133" cx="4.456" cy="4.456" r="4.456" transform="translate(7.376 7.376)" fill="#fff"/>
        </g>
        <path id="Path_706" data-name="Path 706" d="M320.277,251.09" transform="translate(-111.305 -184.671)" fill="none" stroke="#0ca0db" stroke-miterlimit="10" stroke-width="2.362"/>
        <g id="Green_Dots-8" data-name="Green Dots" transform="translate(183.837 17.048)">
          <g id="Group_935" data-name="Group 935">
            <circle id="Ellipse_134" data-name="Ellipse 134" cx="4.456" cy="4.456" r="4.456" transform="translate(2.136 2.136)" fill="#fff"/>
            <path id="Path_707" data-name="Path 707" d="M291.652,195.1a6.591,6.591,0,1,1,6.591-6.591A6.6,6.6,0,0,1,291.652,195.1Zm0-8.911a2.32,2.32,0,1,0,2.32,2.32A2.323,2.323,0,0,0,291.652,186.19Z" transform="translate(-285.061 -181.918)" fill="#bacc33"/>
          </g>
        </g>
        <path id="Path_708" data-name="Path 708" d="M91.63,203.372v-10.83l-46.927.339-.69-2.681-1.719.443.769,2.986-8.154,13.265v6.864a2.321,2.321,0,1,0,1.775,0V207.4l7.83-12.739,45.34-.327v9.032a2.326,2.326,0,1,0,1.775.01Z" transform="translate(-29.206 -167.241)" fill="#fff"/>
        <path id="Path_709" data-name="Path 709" d="M227.993,194.017a2.407,2.407,0,0,0-2.184,1.4l-45.348.064-16.733,21.81a2.281,2.281,0,1,0,1.669,2.191,2.268,2.268,0,0,0-.283-1.082l16.224-21.147,44.379-.062a2.407,2.407,0,1,0,2.277-3.176Z" transform="translate(-65.66 -168.334)" fill="#fff"/>
        <path id="Path_710" data-name="Path 710" d="M267.661,179.448a2.284,2.284,0,0,0-.876.175l-31.4-19.527-21.916-2.063-7.806,40.446a4.453,4.453,0,1,0,1.743.335l7.5-38.864,19.9,1.874,30.724,19.108a2.263,2.263,0,0,0-.153.8,2.286,2.286,0,1,0,2.286-2.286Z" transform="translate(-77.233 -158.033)" fill="#fff"/>
        <path id="Path_711" data-name="Path 711" d="M339.406,218.416H325.188a4.456,4.456,0,1,0,0,1.775h14.218Z" transform="translate(-110.185 -174.297)" fill="#fff"/>
      </g>
      <g id="Tire" transform="translate(17.607 34.125)">
        <path id="Path_712" data-name="Path 712" d="M86.107,222.568a16.974,16.974,0,1,1-16.973-16.723A16.849,16.849,0,0,1,86.107,222.568Z" transform="translate(-52.162 -205.845)" fill="#333"/>
      </g>
    </g>
  </g>
</svg>
