<svg xmlns="http://www.w3.org/2000/svg" width="139.549" height="189.195" viewBox="0 0 139.549 189.195">
  <g id="Group_918" data-name="Group 918" transform="translate(-88.529 -60.858)">
    <g id="Group_916" data-name="Group 916" transform="translate(92.817 125.813)">
      <path id="Path_643" data-name="Path 643" d="M173.421,200.549h0Z" transform="translate(-114.452 -161.413)" fill="none"/>
      <path id="Path_644" data-name="Path 644" d="M162.355,267.058a3.078,3.078,0,0,0,3.075,3.074h8.547a3.077,3.077,0,0,0,3.075-3.074v-4.223l-14.7.066Z" transform="translate(-111.632 -177.287)" fill="#333"/>
      <path id="Path_645" data-name="Path 645" d="M175.708,253.65v-.007l0,.007a11.805,11.805,0,0,1-8.964,5.074l-4.385.209v.991l14.7-.066v-8.7a12.99,12.99,0,0,1-.583,1.3A9.807,9.807,0,0,1,175.708,253.65Z" transform="translate(-111.632 -174.31)" fill="#333"/>
      <path id="Path_646" data-name="Path 646" d="M185.191,239.086c-.045.252-.1.531-.162.823.061-.292.118-.572.164-.824a12.64,12.64,0,0,0,.039-2.084A12.511,12.511,0,0,1,185.191,239.086Z" transform="translate(-117.41 -170.703)" fill="#05a1dc"/>
      <path id="Path_647" data-name="Path 647" d="M129.234,252.738h0c-.148-3.12-.346-6.615-.48-8.789-8.532.785-18.466,1.531-28.42,2.042h-.015l-6.033.99v10.133c2.49-.12,4-.2,4.01-.2.042,0,16.512-.72,31.068-1.653C129.323,254.477,129.282,253.62,129.234,252.738Z" transform="translate(-94.284 -172.473)" fill="#333"/>
      <path id="Path_648" data-name="Path 648" d="M166.273,239.569c-1.477.678-8.924,1.736-19.246,2.781l-.8,11.565c9.578-.655,17.569-1.384,18.23-2.035a5.23,5.23,0,0,0,1.085-1.969C166.564,247.059,167.016,242.293,166.273,239.569Zm-5.876,11.3a4.454,4.454,0,1,1,2.192-.729A4.368,4.368,0,0,1,160.4,250.871Z" transform="translate(-107.521 -171.357)" fill="#333"/>
      <path id="Path_649" data-name="Path 649" d="M167.857,247.115a4.4,4.4,0,1,0-6.21,4.2,4.4,4.4,0,0,0,6.21-4.2Z" transform="translate(-110.79 -172.211)" fill="#bbcd32"/>
      <g id="Group_915" data-name="Group 915" transform="translate(32.581 1.787)">
        <path id="Path_650" data-name="Path 650" d="M138.067,150.441q.48.124.926.259Q138.546,150.565,138.067,150.441Z" transform="translate(-138.023 -150.43)" fill="#05a1dc"/>
        <path id="Path_651" data-name="Path 651" d="M139.408,150.819a15.408,15.408,0,0,1,1.706.624A15.352,15.352,0,0,0,139.408,150.819Z" transform="translate(-138.365 -150.526)" fill="#05a1dc"/>
        <path id="Path_652" data-name="Path 652" d="M141.767,151.689c.222.1.431.2.629.31C142.2,151.892,141.989,151.789,141.767,151.689Z" transform="translate(-138.966 -150.748)" fill="#05a1dc"/>
        <path id="Path_653" data-name="Path 653" d="M142.791,152.205q.26.146.489.3Q143.052,152.351,142.791,152.205Z" transform="translate(-139.227 -150.879)" fill="#05a1dc"/>
        <path id="Path_654" data-name="Path 654" d="M138.05,150.436h0l-.044-.011h0Z" transform="translate(-138.008 -150.426)" fill="#05a1dc"/>
        <path id="Path_655" data-name="Path 655" d="M139.382,150.811h0l-.073-.022h0Z" transform="translate(-138.34 -150.518)" fill="#05a1dc"/>
        <path id="Path_656" data-name="Path 656" d="M141.745,151.679l0,0-.052-.024h0Z" transform="translate(-138.948 -150.74)" fill="#05a1dc"/>
        <path id="Path_657" data-name="Path 657" d="M142.744,152.178h0l-.134-.075h0Z" transform="translate(-139.181 -150.854)" fill="#05a1dc"/>
        <path id="Path_658" data-name="Path 658" d="M143.554,152.682h0c-.034-.025-.072-.048-.108-.072h0C143.484,152.635,143.521,152.658,143.554,152.682Z" transform="translate(-139.394 -150.983)" fill="#05a1dc"/>
      </g>
      <path id="Path_659" data-name="Path 659" d="M142.463,174.271A1.973,1.973,0,0,0,143,174a.4.4,0,0,0,.13-.146c-.065-.136-.131-.262-.2-.4A73.241,73.241,0,0,0,129.588,153.9c-.147-.145-.244-.238-.244-.238s-26.958,2.086-34.757,2.457l-.3.013v22.44l1.37-.057S136.654,176.39,142.463,174.271Z" transform="translate(-94.284 -149.465)" fill="#a1a1a1"/>
      <path id="Path_660" data-name="Path 660" d="M166.571,208.8c-.079-.136-.8-.059-1.952.177-1.455.291-3.6.828-5.975,1.481q-.663.181-1.346.374c-.454.127-.914.259-1.376.393-6.015,1.739-12.472,3.887-13.227,4.691-.011.011-.029.025-.038.036-1.133,1.455.352,7.4.352,7.4a3.26,3.26,0,0,0,1.848.189,113.971,113.971,0,0,0,19.036-4.328,6.344,6.344,0,0,0,1.927-.958C167.731,216.357,167,209.579,166.571,208.8Z" transform="translate(-106.503 -163.499)" fill="#f4f4f4"/>
      <path id="Path_661" data-name="Path 661" d="M162.106,214.326c-.2-6.319-2.113-23.383-2.488-24.056-.44-.779-6.363-3.106-6.365-3.107l0,0-.008-.015c-.155-.346-2.424-5.223-5.715-11.395,3.076.123,10.113.272,11.153-.872a14.941,14.941,0,0,0,2.189-4.4c.5-1.466.751-2.789.458-3.142-.638-.769-9.869-.931-10.44-.3a25.2,25.2,0,0,0-1.6,2.626c-.864,1.532-1.732,3.143-1.732,3.143l-1.393.419q-.36-.657-.732-1.324c-4.123-7.4-9.283-15.615-13.9-19.975,0-.007,0-.007-.008-.015a4.9,4.9,0,0,0-.5-.4,4.79,4.79,0,0,1,.494.4h0a4.892,4.892,0,0,0-.495-.4c-.034-.024-.07-.046-.105-.07q-.23-.156-.493-.3l-.131-.072c-.2-.107-.41-.212-.634-.312l-.047-.022a15.578,15.578,0,0,0-1.709-.625l-.07-.021q-.448-.135-.93-.261l-.04-.01c-.272-.07-.57-.13-.857-.2.286.065.584.125.855.2-.477-.123-.984-.235-1.5-.343-.149-.031-.3-.059-.457-.089-.39-.075-.788-.148-1.2-.215l-.512-.082q-.664-.1-1.355-.194l-.388-.051a152.655,152.655,0,0,0-19.717-.785c-.428.006-.847.013-1.248.022-3.691.075-6.177.208-6.2.209V154.7l.3-.014c7.8-.371,34.757-2.457,34.757-2.457s.1.092.244.238h0a73.254,73.254,0,0,1,13.349,19.553c.065.135.13.26.2.4a.4.4,0,0,1-.13.146,48.5,48.5,0,0,1,4.226,7.712A48.536,48.536,0,0,0,143,172.562a1.95,1.95,0,0,1-.54.272c-5.809,2.118-46.809,4.248-46.809,4.248s-.494.022-1.37.057v25.3a35.753,35.753,0,0,0,5.2,1.309c13.615-.72,23.588-1.856,30.991-3.305.755-.8,7.212-2.952,13.227-4.691.462-.133,1.376-.393,1.376-.393q.684-.193,1.346-.374c2.38-.654,4.521-1.19,5.975-1.481,1.156-.235,1.873-.312,1.952-.177.434.779,1.159,7.557-.752,9.451a6.342,6.342,0,0,1-1.927.958,113.967,113.967,0,0,1-19.036,4.328h0c-9.349,1.373-21.305,2.539-35.558,3.218-.9.043-1.837.13-2.8.242v11.011l6.033-.99h.015c9.954-.512,19.888-1.257,28.42-2.042.134,2.174.332,5.669.48,8.789h0c.048.882.089,1.739.127,2.525-14.555.934-31.025,1.652-31.068,1.653-.013,0-1.52.079-4.01.2v2.4l50.723-2.417,4.385-.209a11.805,11.805,0,0,0,8.964-5.074l0-.007v.007a9.862,9.862,0,0,0,.761-1.2,13.024,13.024,0,0,0,.583-1.3,53.8,53.8,0,0,0,2.2-7.639c.061-.292.117-.572.162-.823A12.508,12.508,0,0,0,162.106,214.326Zm-9.8,12.255a5.231,5.231,0,0,1-1.085,1.969c-.661.651-8.652,1.38-18.23,2.035l.8-11.565c10.323-1.045,17.77-2.1,19.246-2.781C153.779,218.964,153.327,223.73,152.3,226.581Z" transform="translate(-94.284 -148.028)" fill="#05a1dc"/>
      <path id="Path_662" data-name="Path 662" d="M132.638,225.993a3.261,3.261,0,0,1-1.848-.189s-1.486-5.942-.352-7.4c.009-.011.027-.025.038-.036-7.4,1.449-17.377,2.586-30.991,3.306a35.753,35.753,0,0,1-5.2-1.309v9.085c.959-.112,1.9-.2,2.8-.242,14.252-.678,26.208-1.845,35.558-3.218Z" transform="translate(-94.284 -165.955)" fill="#303645"/>
    </g>
    <path id="Path_663" data-name="Path 663" d="M221.54,60.858H95.071a6.575,6.575,0,0,0-6.542,6.557v176.1a6.333,6.333,0,0,0,.13,1.285,6.55,6.55,0,0,0,6.386,5.256h126.5a6.554,6.554,0,0,0,6.537-6.542V67.415A6.568,6.568,0,0,0,221.54,60.858ZM158.3,66.371a1.784,1.784,0,1,1-1.778,1.781A1.786,1.786,0,0,1,158.3,66.371Zm0,179.817a3.563,3.563,0,1,1,3.562-3.559A3.562,3.562,0,0,1,158.3,246.188Zm64.083-11.046H94.222V75.382H222.385Z" transform="translate(0)" fill="#96999c"/>
    <path id="Path_664" data-name="Path 664" d="M180.946,300.01a3.563,3.563,0,1,0,3.562,3.567A3.567,3.567,0,0,0,180.946,300.01Z" transform="translate(-22.644 -60.948)" fill="none"/>
    <g id="Group_917" data-name="Group 917" transform="translate(166.103 161.154)">
      <path id="Path_665" data-name="Path 665" d="M192.634,198.524a3.071,3.071,0,0,0,3.073,3.076h38.55a3.072,3.072,0,1,0,0-6.143h-38.55A3.067,3.067,0,0,0,192.634,198.524Z" transform="translate(-192.634 -195.457)" fill="#bbcd32"/>
      <path id="Path_666" data-name="Path 666" d="M195.707,230.711a3.07,3.07,0,1,0,0,6.141h23.78a3.07,3.07,0,1,0,0-6.141Z" transform="translate(-192.634 -204.441)" fill="#bbcd32"/>
      <path id="Path_667" data-name="Path 667" d="M237.336,216.151a3.072,3.072,0,0,0-3.079-3.068h-38.55a3.069,3.069,0,1,0,0,6.139h38.55A3.076,3.076,0,0,0,237.336,216.151Z" transform="translate(-192.634 -199.949)" fill="#bbcd32"/>
    </g>
    <path id="Path_668" data-name="Path 668" d="M214.3,117.348a21.927,21.927,0,1,0,21.927,21.928A21.928,21.928,0,0,0,214.3,117.348Zm6.337,31.84a8.151,8.151,0,0,1-4.454,2.46v4.07h-3.957v-3.862a11.546,11.546,0,0,1-5.778-1.817l-.461-.31,1.493-4.132.756.5a9.6,9.6,0,0,0,5.355,1.607,4.43,4.43,0,0,0,2.869-.868,2.5,2.5,0,0,0,1.014-2.058,2.693,2.693,0,0,0-.81-1.971,8.954,8.954,0,0,0-3.135-1.768,14.481,14.481,0,0,1-5.384-3.148,6.028,6.028,0,0,1-1.667-4.262,6.505,6.505,0,0,1,1.78-4.557,7.91,7.91,0,0,1,4.235-2.279v-3.955h3.956v3.758a11.5,11.5,0,0,1,4.774,1.431l.522.3-1.446,4.045-.739-.418a9.543,9.543,0,0,0-4.744-1.287,3.782,3.782,0,0,0-2.529.746,2.216,2.216,0,0,0-.818,1.759,2.24,2.24,0,0,0,.791,1.741,12.664,12.664,0,0,0,3.584,1.887,12.677,12.677,0,0,1,5.039,3.148,6.7,6.7,0,0,1,1.581,4.528A6.917,6.917,0,0,1,220.635,149.188Z" transform="translate(-26.464 -14.397)" fill="#05a1dc"/>
  </g>
</svg>
