<svg xmlns="http://www.w3.org/2000/svg" fill="none" stroke="#000" stroke-linecap="round" stroke-linejoin="round" stroke-miterlimit="10" viewBox="0 0 1920 700">
<style>
/* <![CDATA[ */
#icn_mask path {
    animation: draw_line 20s linear infinite;
}
@keyframes draw_line {
    0%, 2%, 98%, 100% {
        stroke-dashoffset: 13652px;
    }
    48%, 52% {
        stroke-dashoffset: 0px;
    }
}
/* ]]> */
</style>
<defs>
<mask id="icn_mask">
<path stroke="#FFF" stroke-linejoin="round" stroke-width="4" stroke-dasharray="13652" stroke-dashoffset="13652" d="M713.832 132.456h6.501s.281-15.987.68-21.549c.398-5.562 3.277-10.071 15.542-11.57.443-2.096.686-3.366.686-3.366s-8.404-7.117-7.511-14.306c-1.379-3.259-1.38-8.413 2.735-9.29 3.199-9.6 11.637-7.119 13.549-6.647s5.69 1.759 8.326.155c1.604 5.27 2.406 11.572-2.635 13.749s-13.405 1.948-17.186-2.291c-.573 2.979-2.292 4.927-3.896 4.927 4.583 11.572 6.76 14.551 10.197 14.665 3.437.115 11.801-2.521 12.718-15.124.917-12.603-16.384 18.79-16.384 18.79s6.989 5.385 9.51-1.604c5.5 1.146 12.259 2.979 14.093 6.531 1.833 3.552 2.062 27.039 2.062 27.039h-8.364l-.458-19.707-1.031 19.592h-24.29l-.229-20.165-1.031 20.05h-6.187l35.862-45.6 5.5-4.583V49.196s0-5.001 6.027-5.001h35.649c3.975 0 5.258 1.154 5.258 6.283s3.334 7.181 6.796 7.181h7.053c2.95 0 3.975.641 3.975 8.976v20.774l5.386 4.36h-5.001v4.616c0 2.18-1.282 3.591-7.053 3.591h-34.879c-3.59 0-5.001-2.436-5.001-4.873v-4.36l-5.77-3.975h-15.26l21.03-10.387s-8.592 4.488-8.592-4.488 8.592-4.488 8.592-4.488v-9.874h9.746s-2.052-8.207 4.616-8.207 5.193 7.63 4.488 8.335h9.489v10.13s8.592-3.334 8.592 3.591-6.027 7.181-8.207 5.001v10.002h-10.387s3.462 8.848-3.847 8.848-4.36-8.72-4.36-8.72h-10.259v-9.104l5.258-1.154.256 3.975 3.719.256-2.18-1.923 7.053-7.309-8.079-7.822-.898 3.334 3.975-3.719h13.849l-.128 3.975-2.436-1.667-5.258 5.001.128 2.308 7.694 7.309.256-3.975-20.774 29.109-17.568 1.795 2.21 17.499 9.191 1.688.938-2.813s-6.004-.453-6.117-5.664 1.359-7.703 4.984-8.383c3.625-.68 8.609-.453 8.269 6.23-.34 6.683-3.512 4.418-3.512 4.418l-.906-6.91s-4.984-1.019-5.551 1.359c-.566 2.379-.227 4.758 4.191 4.305 4.418-.453 9.402-5.777 9.402-5.777s2.492-2.605 3.512-.793c1.02 1.812 3.172 5.211 5.211 5.664 2.039.453 3.398 3.851.113 4.078-3.285.227-8.156-7.59-8.156-7.59l-24.808 18.351h59.924l-13.707-9.629s-4.984-3.851-4.984-6.91 2.719-5.097 5.211-5.097c2.492 0 5.89.906 5.89 4.305 0 3.398-1.359 6.457-3.512 6.457-2.152 0-5.891-3.851-4.871-6.117 1.019-2.266 4.758-2.945 4.758.227 0 3.172-3.172 2.719.906 3.398 4.078.68 11.894 13.253 11.894 13.253l2.039-23.335s.34-7.363 15.179-9.968c.68-1.473.906-3.625.906-3.625s-6.797-6.57-7.59-12.687c3.512-.453 4.531-1.812 4.871-4.305 4.758 2.605 12.121 2.379 14.5-.34.793 2.039 2.719 4.078 4.305 1.359s.793-13.82-10.082-13.82-15.632 7.25-13.14 14.5c2.492 7.25 5.89 16.199 8.836 16.539 2.945.34 8.496 0 10.648-4.078 2.152-4.078 4.078-6.344 4.191-9.968.113-3.625-16.539 17.558-16.539 17.558s2.379 2.832 6.91 2.039c4.531-.793 2.379-4.644 2.379-4.644s3.965 2.152 7.476 3.172 8.383 3.512 8.383 10.988v20.277h-7.59V113.08l-2.152 19.144h-23.562v-19.597l-2.039 19.597h-6.683H1162.403l.963-19.808s-6.018 10.472-7.222 12.037c-1.204 1.565-3.611 1.444-6.741.361-3.13-1.083-13.602-4.815-13.602-4.815s-2.768-2.407-6.741-2.648-7.222-2.407-.361-3.25c6.861-.843 8.907.602 8.907.602v4.213l1.926-5.176 11.314 3.25s3.972-9.991 5.778-13.481 10.713-5.778 14.324-5.537c.361-1.444.722-3.852.722-3.852s-7.463-4.935-8.185-13.24c1.685-.963 3.611-.963 3.731-2.046.12-1.083 1.444-3.25 1.444-3.25s3.972 2.768 7.944 2.407c3.972-.361 6.741-1.444 7.463-2.407 0 1.926 2.407 4.694 3.972 2.528 1.565-2.167 1.806-10.111-4.333-13.361s-13.842-1.806-16.37.722c-2.528 2.528-5.537 8.305-3.37 12.639 2.167 4.333 9.148 16.972 9.148 16.972s5.176 1.204 8.065-.722c2.889-1.926 7.583-5.176 7.704-13.722-2.407 2.407-17.213 18.296-17.213 18.296s1.806 2.167 5.417 1.685c3.611-.481 4.333-2.167 4.333-4.333 1.444 1.083 3.972 2.407 7.463 3.13 3.491.722 8.907 4.092 8.907 10.352s.843 22.629.843 22.629h-9.028l-.361-20.222-1.806 20.101h-23.472l-15.527-23.231s4.574-11.555 4.213-18.055c-.361-6.5-4.333-16.611-4.333-16.611l-1.251-4.755s-3.378-.654-3.923 2.071c-2.615-1.526-5.449-.436-5.449.327-1.199-3.051-3.378-3.487-4.577-2.18 1.09-3.269.109-4.577-2.289-4.577 2.943-2.942.109-5.122.109-5.122s4.25-1.09 2.615-4.686c2.507.545 4.032.436 4.468-1.853 1.09.327 3.269 3.596 5.34-.327.218 1.853 2.18 2.942 3.923 2.289-1.308 3.051 1.308 4.686 2.724 4.468-2.397 1.962-2.18 4.359.109 5.013 0 0-3.596 0-3.596 3.269-2.507-1.308-3.705.109-6.43-.545-2.724-.654-6.321-3.814-3.814-7.956 2.507-4.141 7.956-1.417 8.282-.218.327 1.199 1.199 5.558-.327 6.212-1.526.654-12.097-8.609-14.93-10.244-2.833-1.635-12.315-7.411-34.765.109-6.43-8.609-10.353-6.321-10.353-3.487 0 2.833 2.289 5.667 3.16 3.16s1.853-1.635 3.705 1.199 4.686 7.084 2.289 8.718c-2.398 1.635-3.269 2.18-3.269 2.18s-3.051 3.378-6.321 3.923-5.885.981-6.866-.218c-.981-1.199-4.032-6.103-.545-9.808s5.013-5.013 5.013-6.757c1.962 3.269 5.558 7.193 5.885 8.936.327 1.744.763 3.596-.763 4.795-1.526 1.199-3.923-8.282-6.539-7.847-2.615.436-2.942 2.071-2.615 3.923.327 1.853 1.526 3.923 4.359 4.141-5.231 4.032-7.084 9.481-8.5 13.296-1.417 3.814-2.724 14.494 2.289 26.918 1.417 1.308 4.904 5.013 4.904 5.013l-2.833-.327 2.289-2.289 1.962 4.577 9.699 9.808-2.071-.218 2.289-2.18 2.398-4.686-.872-2.071-2.18 2.071-6.103-.654 6.648-5.994-.109 1.962-4.25-3.923-2.506 2.289-2.724-2.289 2.833-1.308-1.199 19.834 3.378-1.526-8.282-1.09 3.705-5.122-5.013 2.398-.654-2.071 5.013-2.616-7.193-.327 1.744-2.398 19.507-13.187.218-5.885s-5.122 2.616-7.847-1.199c-2.724-3.814-1.199-11.225 7.847-8.609-.218-5.994-.109-10.462-.109-10.462h11.443s-2.724-9.59 4.795-9.59c7.52 0 5.885 7.084 4.795 9.154h10.898v11.116s9.481-1.526 9.481 4.25-4.359 7.956-9.481 5.558v10.571h-10.898s3.269 9.699-4.577 9.699-5.34-9.59-5.34-9.59l-11.225-.109v-3.378l8.827-8.065s-3.596-1.635-3.596-3.051c0-1.417 2.943-3.16 2.943-3.16s-.109-3.269-.327-4.359c-.218-1.09 2.398-1.417 3.923-.981 1.526.436 3.16-3.378 4.468-3.378 1.308 0 2.506 1.962 2.615 2.942s3.378-.436 4.25.327c.872.763 0 5.231 1.853 5.667s2.506 4.032.654 4.141-1.199 4.577-1.526 5.122c-.327.545-2.071.436-4.141.436-2.071 0-2.289 3.269-3.487 3.269-1.199 0-1.308-1.635-2.724-2.398-1.417-.763-5.558.654-5.667-1.962-.109-2.616 4.468-3.051 4.468-3.051s-2.616-5.013 0-6.975c2.615-1.962 6.819-1.867 8.064 1.199 1.417 3.487-.654 8.065-6.539 6.539 2.833 10.026 90.895 35.916 90.895 35.916h255.546v-6.06s-2.193-1.495-4.832-2.727c-2.639-1.231-3.606-2.375-3.606-6.861s.264-10.203.264-10.203 1.759-5.893 6.069-7.652c4.31-1.759 8.532-2.815 8.532-2.815l-10.291 18.647 3.958 9.323 10.907-21.285-4.75-2.903 4.222-.088s2.903-2.903 2.375-4.046c-.528-1.143-2.463-1.671-2.199-3.782.264-2.111-1.231-4.31-1.935-1.847-.704 2.463-1.231 4.486-1.231 4.486l6.157-1.143s4.31-.088 5.277-.968c.968-.88 1.407 3.078 1.407 3.078s.088 5.014-7.916 3.694c-4.046-7.916-5.365-8.796-6.333-10.555s-4.662-6.949-4.662-9.499c0-2.551.792-2.463.792-2.463s3.518 1.495 4.662-4.574c3.782 2.287 10.643 4.75 15.656 3.606 5.014-1.143 8.092-11.083 6.421-17.064-3.782 1.407-9.939-.088-12.93-.352-2.99-.264-10.115 1.143-11.346 7.74-3.254.088-6.245 3.87-3.518 8.268s19.79 17.239 19.79 17.239 7.036-6.069 7.476-15.304l-2.902 2.375-3.782 17.943s5.365-.704 10.291 2.551c4.926 3.254 5.541 6.597 5.541 11.258s1.055 22.517 1.055 22.517h-9.323v-21.725l-2.991 21.373h-24.804l-38.58-30.819s-19.161-.235-24.451-18.573c-5.29-18.338 5.642-29.623 15.164-33.62 9.522-3.997 24.333-1.411 30.799 6.583 6.465 7.994 7.523 19.396 6.23 23.981s-5.642 13.166-10.345 16.105c-4.702 2.939-11.52 5.643-15.047 5.525-3.526-.118-15.87-11.638-15.87-11.638l30.799-1.176.118 1.881-30.916-1.881-.705-29.858 2.586-.235 6.113 23.628 6.701-.118s-1.411-7.053.705-9.522c2.116-2.469 5.878-5.995 2.939-10.697-2.939-4.702-8.111-.47-8.111-.47s112.721-35.353 117.459-29.708.706 19.355.706 19.355-11.29-6.552-22.883-1.512-16.834 13.609-17.943 25.907c-1.109 12.298 13.911 26.31 25.907 26.31s25.403-8.367 27.419-18.951.907-21.774-9.576-29.737c-2.319 6.855-4.738 9.879-4.738 9.879h-8.367s1.714-6.956-3.427-6.956-3.931 6.653-3.931 6.653h-7.863v8.367s-6.653-3.024-6.653 3.73 6.754 3.629 6.754 3.629v7.56h7.762s-1.915 7.258 3.831 7.258 3.629-7.46 3.629-7.46h8.266v-7.762s6.754 2.319 6.754-3.831-7.056-3.427-7.056-3.427v-6.149l-2.823 9.274-3.528.302s-.101 5.544-4.939 5.544-5.746-2.923-5.746-5.645-1.008-2.823-1.008-2.823l5.645 4.536 8.367-8.064-10.383 2.218-21.199 62.353h423.058L661.44 232.366-.37 460.129h404.261v-19.406h6.805s-.642-6.063 3.424-6.063 4.422 5.635 2.996 6.063h7.061v6.491s-5.991-1.783-5.991 3.138 5.492 3.281 5.492 3.281v6.491h-18.402l6.633-4.779s-.143-3.709.927-4.85c1.07-1.141 2.211-3.638.499-4.921-1.712-1.284-3.352.499-3.352.499l18.259 7.061s8.202 4.707 17.047 4.707c8.844 0 14.051-2.853 14.051-2.853l7.846 5.492v-6.776s-4.921.428-5.706-3.852c-.785-4.279 4.85-3.923 6.277-2.568v-6.419h6.205s-.071 5.563 3.638 5.563 4.137-3.923 3.067-5.706h6.348l-1.355 19.614h-16.405l3.994-4.707s3.424 1.213 4.921.713c1.498-.499 2.568-1.141 2.496-2.496-.071-1.355-.571-4.779-3.424-4.565-2.853.214-3.78 4.137-3.78 4.137l6.704-20.113s3.138-10.984 2.282-15.62c-.856-4.636-4.921-8.63-4.921-8.63s-5.064-1.07-3.067-6.633h-6.99v-6.847s5.92 2.853 5.92-3.495c0-6.348-5.777-2.282-5.777-2.282v-6.633h19.971v18.972h-6.776s.357 5.991-1.926 5.991-8.987-15.263-8.987-15.263l5.207-2.354 4.351 5.635 4.208-5.349-21.041-2.496s-9.7-4.065-15.049-4.065-13.195 1.498-14.835 2.354c-3.638-3.281-4.279 2.782-4.279 2.782s1.569 4.137 0 5.635c-1.569 1.498-3.638 1.783-4.636.927v6.562h-6.918s.713-5.492-2.782-5.492-2.924 5.635-2.924 5.635h-7.061v-19.757h19.115v7.061l3.852-.713-9.771 4.636-6.776-6.847 7.061-2.354-.214 2.354-7.275 6.776.071 16.975s-3.542 11.21 1.26 22.239c6.828-15.231 18.082-26.335 18.082-26.335v30.237c0 1.426 2.176 3.526 4.427 3.526s21.684.15 23.709.15c2.026 0 3.902-1.2 3.902-4.727v-28.811s1.125-3.226-5.477-3.226v3.001h-21.383l-4.802-1.576 4.727-1.276v-2.251h7.278l4.052-2.476 1.651 2.251h8.103l-16.807 10.654s-5.102-1.426-5.552 1.426c-.45 2.851 3.301 5.102 5.777.75 3.151-.45 18.082-.3 18.082-.3l-19.358 7.428s-3.827-.375-4.727 2.251 2.851 3.977 4.427 2.251 1.276-2.251 4.052-2.551c2.776-.3 15.831 0 15.831 0l-18.682 8.253s-2.251-2.176-3.827-1.426c-1.576.75-2.401 5.252.375 5.777s3.902-2.551 3.902-2.551l17.932-.3 30.589 27.268h251.054s9.875-3.912 9.875-11.167-5.643-10.413-9.808-10.413-12.227 3.695-12.227 8.868 3.292 10.682 5.374 11.555c2.083.873 2.62-6.315 2.62-6.315h6.92s2.754-.067 2.754-1.344c0-1.276-.336-2.687-.336-2.687l-2.822 1.075-1.545-1.612 3.628.202s-1.881-3.493-2.889-3.561c-1.008-.067-8.196 0-8.196 0l-.739 7.793.134-15.586s-3.426-11.286-2.553-17.735c.873-6.449 3.762-13.436 3.762-13.436s4.635.941 7.121.941 8.263-5.777 8.33-7.121c.067-1.344-.134-7.524-.806-9.338-.672-1.814-7.121-5.509-9.539-5.442-2.419.067-7.86.941-10.077 5.777-2.217 4.837-1.747 9.943 2.822 13.839.336-3.09.269-8.465.269-8.465l3.157-.605.336 1.814 3.426 1.814s-.134 3.359.47 3.426c.605.067 3.292.537 3.359-1.612.067-2.15 4.703-1.747 4.703-1.747l-4.837-3.762.806-2.62 1.478-3.359-6.248 2.486-.067-3.225-4.568-.873 18.071 1.68s6.584-3.023 14.914-3.023 16.593 4.098 16.593 4.098-1.209 5.71.537 9.674c1.747 3.964 6.852 7.39 10.547 6.516 3.695-.873 2.889-1.948 6.046-2.553s5.643-5.307 4.434-9.338-4.165-10.144-10.077-10.413c-5.912-.269-8.599 1.68-10.547 4.837-1.948 3.157 1.68 6.718 1.68 6.718l2.754-4.971s1.075-3.829 2.083-2.754c1.008 1.075.336 3.561.336 3.561l3.896 2.687-.403-4.098 4.367 2.62s1.545 4.635-3.426 3.359c-1.478 1.68-3.292 5.173-3.292 5.173l5.912-.067.134-2.217.739 8.062s7.064 16.243.277 29.484c-1.796-1.331-2.528-5.123-4.258-5.256s-.998 4.258-.998 4.258l-2.861-2.395-1.93 2.528s-3.127-1.73-4.391-.466 1.264 3.659 1.264 3.659l3.747.663 6.866-.312-3.199 3.043 5.852 1.248-1.404 5.461-3.589-4.525-4.447-3.277-.156 5.227s-3.199 6.398-3.823 7.724c-.624 1.326-2.029 4.837 2.653 4.993 4.681.156 8.192-.156 8.192-.156l2.809-1.482.702-2.575-3.433-4.213-8.036-.702.39 5.305 3.979-1.872 3.199 2.185h-16.15s-7.958 2.731-14.98 2.731-15.604-3.901-15.604-3.901l1.794-17.789v-9.987s-8.192 2.029-8.192-5.071 8.27-4.135 8.27-4.135v-9.597h9.597s-1.872-8.582 4.603-8.582 4.603 8.738 4.603 8.738h9.831v9.597s8.582-2.263 8.582 4.291-6.476 5.774-8.582 4.759c.468 3.745-.078 10.065-.078 10.065h-9.128l.078 3.121s-1.482 5.071-4.837 5.071c-3.355 0-6.632-2.653-4.759-8.348-5.305.156-8.348.312-8.348.312l8.192-4.291h8.27v-9.128h-7.88l.234 7.334 1.014-9.362s3.043-3.745 6.008.156c-2.809-.936-2.965-4.369-2.965-4.369v-3.823l-3.199 1.794h-5.305l1.326-4.213 2.341 2.653-1.872 5.149 8.66-3.667 32.409 28.471 11.706 2.778s3.654-10.562 4.282-12.76c.628-2.198 10.465-4.395 12.349-4.395.733-.837 1.047-2.616 1.047-2.616s-4.32-4.831-4.784-7.462c2.398 1.16 6.266 1.16 6.885-.077.619-1.238 1.934-5.106 3.017-2.166s3.017 2.862 4.951 2.708 4.951-2.553 5.415-3.404c.464-.851 1.16-4.332 1.16-4.332s-1.006-6.576-2.244-8.123c-1.238-1.547-4.797-5.415-10.908-5.415-6.112 0-9.902 4.332-10.289 7.117-.387 2.785-.155 6.189-.155 6.189l-1.006 3.404 1.393 2.476 2.244-5.338 1.702-4.719s9.051 2.862 13.229-.309c.619 1.779 3.404 5.106 3.404 5.106H825.82l16.401 7.582s-2.862 9.361-11.759 6.808c5.338.928 7.272 2.94 7.272 2.94s-3.791 3.791-8.897.696c4.1-.232 11.14-.696 15.937.309s6.866 6.044 7.226 10.543c.36 4.499 0 18.895 0 18.895h-7.108l-.45-18.265-2.159 17.995H816.73l4.229-3.059v-14.396l-5.578 10.977s-2.339 1.08-4.049.45c-1.71-.63-12.507-4.319-12.507-4.319l55.396 10.242h239.948v-20.797s.96-1.536 4.033-1.536 5.858 2.497 5.858 2.497l-.48 18.821-7.298 1.536 10.851-21.606s8.546-2.113 10.851-2.017c2.305.096 9.913 2.854 12.66 3.208s5.05.354 5.05.354l9.126-5.582 7.265-2.835-.532 2.304-13.113 7.797 3.455.975 14.796-10.543 3.544 1.24s3.81 2.392.886 5.139-22.504 17.543-22.504 17.543h-30.39l11.695-8.771 19.581-.266 3.81-3.367 12.138-18.695s7.15-8.339 6.601-21.23c-.549-12.891-9.509-21.851-9.509-21.851l4.529.098-5.12 4.726-3.249-7.68s-10.929-10.24-29.933-5.612-14.277 8.862-14.277 8.862l4.135-.197-4.628-4.529-3.171 8.309s-6.669 10.823-5.904 21.21c.765 10.386 9.73 22.303 9.73 22.303l-4.483.109 4.81-4.373 7.197-4.823v-9.423s-9.275 3.265-9.275-6.233 9.497-4.155 9.497-4.155l-.148-11.352h11.427s-1.781-9.349 4.452-9.349 6.529 6.752 5.342 9.052h11.427v11.575s8.013-3.265 8.978 4.897c.965 8.162-7.791 6.233-9.126 4.971v11.575l-11.427.148 1.039 3.71s.223 4.971-5.639 4.971-6.381-4.155-5.565-8.904c-3.339 0-9.72-.223-9.72-.223l10.685-4.303h9.052v-14.023h-7.642l-1.707 2.745v10.165l4.526-14.469v-6.01l-8.31-3.042 4.897 5.12-4.378 4.229-2.003-4.007 10.165.223-17.659-26.044-9.201-8.904 17.733 8.607-5.936-12.836 13.281 10.833v-14.172l7.271 14.543 4.749-10.388 3.413 13.281 8.978-9.423-41.469 96.151h323.682s.716-4.437.954-6.187c.239-1.75 7.714-5.09 9.941-5.09s1.034-2.863 1.034-2.863-5.567-3.34-5.09-9.782c.716.477 3.34-3.181 3.34-3.181s7.953 1.909 10.338-.318c1.829 2.942 3.499 2.942 3.658 1.352s-.239-10.179-7.953-10.179-11.452 8.032-9.384 10.895 17.893 1.67 17.893 1.67-1.272 10.1-10.656 10.338c-9.384.239-3.022 2.942-1.352 3.499s6.601-.159 6.601-1.909 7.316 1.829 7.316 1.829l-25.21 9.702h21.87s2.306-7.475 11.849-8.668c.875-1.352.875-2.227.875-2.227s-4.851-1.67-5.726-10.656c1.829.716 3.579-3.022 3.579-3.022s8.589 2.704 10.815.08c.477 2.068 2.465 2.942 3.499.954 1.034-1.988.239-9.464-8.509-10.736s-10.418 8.509-9.464 10.895c5.01 2.306 18.052 1.909 18.052 1.909s-1.113 10.895-10.736 10.895c-9.623 0-1.511 4.772 1.113 4.772 2.624 0 4.453-1.193 4.374-3.499 2.545 1.193 9.305.636 12.008 9.225-9.384.477-30.379 0-30.379 0s25.13-8.112 27.754-9.384 6.76-1.67 6.76-1.67l.239-3.102s-5.01-2.863-5.01-9.066c-1.352-3.34 1.272-12.167 7.475-12.724 6.203-.557 10.497 3.897 10.816 7.078s-1.909 5.328-1.909 5.328-1.988-1.591-2.068-3.261c-4.374 1.75-10.02 1.591-10.974-.318-.477 2.147-1.909 3.181-1.909 3.181l16.223.636s-1.511 9.384-11.213 10.02c-.875 2.624-.239 4.612 2.465 4.612s3.101-3.181 3.101-3.181 8.112 2.147 9.225 3.261c1.113 1.113 1.988 7.316 1.591 8.271-.398.954-20.597 0-20.597 0l33.56-34.435.318-21.631-7.635.239v8.191c0 1.829-2.227 3.658-6.123 3.658h-10.179l-3.658 4.692-2.545-4.772h-17.337l-3.658 7.555-3.42-7.953h-16.7l-3.817 5.408-2.783-5.01h-11.929c-1.59 0-5.09-1.272-5.09-5.646v-10.815l2.386.159-2.227-2.545-3.42 2.545 3.181-6.442v-5.885c0-2.227 1.75-5.09 5.964-5.09h76.265c2.386 0 5.01 1.75 5.01 5.805v7.157l-2.147 1.988 2.306 2.147 2.465-2.068h-16.303v11.134h-59.883v-19.802h59.962v7.634l-20.12 11.452v-5.805s-5.805 1.431-5.805-4.056 6.282-2.306 6.282-2.306v-5.964h-20.359v6.442s5.964-1.59 5.964 2.863-4.612 3.499-5.885 2.624v5.487l49.994 53.527h17.251"/>
</mask>
</defs>
<g mask="url(#icn_mask)">
<path d="M1466.308 101.739l1.6-3.115 1.034-2.439c.18-.687-.092-1.412-.679-1.811l-1.839-1.251 1.192-4.214c.11-.365-.069-.755-.418-.909-.007-.003-.013-.006-.02-.009-.396-.173-.857.02-1.01.425l-4.247 11.133"/>
<line x1="717.684" x2="765.585" y1="132.358" y2="132.358"/>
<path d="M859.528 82.062c0 8.658-4.844 15.108-10.839 15.179-5.996-.071-10.839-6.521-10.839-15.179"/>
<path d="M859.784 81.665c1.286.139 2.287.633 2.043 2.899-.158 1.462-1.328 2.535-2.614 2.396"/>
<path d="M837.594 81.665c-1.286.139-2.287.633-2.043 2.899.158 1.462 1.328 2.535 2.614 2.396"/>
<path d="M837.609 81.665c-1.286.139-2.287.633-2.043 2.899.158 1.462 1.328 2.535 2.614 2.396"/>
<path d="M860.566 80.284c.561-.631.666-2.521.666-3.478 0-6.458-5.616-11.132-12.543-11.132s-12.543 4.674-12.543 11.132c0 .957.105 2.847.666 3.478"/>
<path d="M855.947 78.037c-.607.669-2.768 2.397-7.258 2.387-4.49.01-6.651-1.718-7.258-2.387"/>
<path d="M855.947 78.037c.507 2.094 1.886 5.61 3.813 3.613"/>
<path d="M841.431 78.037c-.507 2.094-1.886 5.61-3.813 3.613"/>
<path d="M853.741 99.337c.613.045 2.44.271 3.031.352 7.189.986 12.5 4.649 12.5 11.218l.68 21.549"/>
<path d="M843.637 99.337c-.613.045-2.44.271-3.031.352-7.189.986-12.5 4.649-12.5 11.218l-.68 21.549"/>
<line x1="861.173" x2="861.74" y1="113.397" y2="132.456"/>
<line x1="836.205" x2="835.639" y1="113.397" y2="132.456"/>
<path d="M844.323 95.971c-.301 1.305-.266 1.901-.686 3.151l.034.378c.293 1.785 2.427 3.17 5.018 3.17s4.724-1.385 5.018-3.17l.034-.378c-.437-1.3-.386-1.789-.691-3.147"/>
<path d="M754.307 65.729c-.626.247-1.243.436-1.848.569-1.534.339-3.008.245-4.534-.096-1.411-.315-2.797-.763-4.232-.943-3.697-.463-7.972.902-10.123 4.085-.615.911-1.054 1.93-1.106 3.032"/>
<path d="M730.725 82.051c0 8.664 4.847 15.119 10.847 15.19 6-.072 10.847-6.526 10.847-15.19l.068-.444"/>
<path d="M752.487 81.607c1.287.139 2.477.681 2.233 2.948-.158 1.463-1.329 2.537-2.616 2.398"/>
<path d="M730.469 81.654c-1.287.139-2.289.634-2.044 2.901.158 1.463 1.329 2.537 2.616 2.398"/>
<path d="M730.484 81.654c-1.287.139-2.289.634-2.044 2.901.158 1.463 1.329 2.537 2.616 2.398"/>
<path d="M734.42 77.362c-.522 2.424-1.802 6.59-3.787 4.277"/>
<path d="M731.824 72.55c-2.459.007-3.586 2.45-3.465 4.619.057 1.025.423 2.045 1.106 2.811"/>
<path d="M754.307 65.729c1.015 2.486 1.086 5.414.825 8.103-.221 2.275-1.212 4.353-3.036 5.76-1.673 1.291-3.931 1.776-6 1.844-2.642.086-5.348-.47-7.761-1.544-1.433-.638-2.77-1.495-3.923-2.561"/>
<path d="M746.658 99.337c.613.045 2.429.271 3.019.352 7.189.986 12.5 4.649 12.5 11.218l.68 21.549"/>
<path d="M736.554 99.337c-.613.045-2.452.271-3.042.352-7.189.986-12.5 4.649-12.5 11.218l-.68 21.549"/>
<line x1="754.078" x2="754.645" y1="113.397" y2="132.456"/>
<line x1="729.11" x2="728.544" y1="113.397" y2="132.456"/>
<path d="M737.24 95.971c-.301 1.305-.266 1.901-.686 3.151l.034.378c.293 1.785 2.427 3.17 5.018 3.17 2.59 0 4.724-1.385 5.018-3.17l.034-.378c-.437-1.3-.386-1.789-.691-3.147"/>
<line x1="824.579" x2="869.951" y1="132.358" y2="132.358"/>
<polyline points="790.796 57.733 780.712 57.733 780.712 67.818"/>
<polyline points="809.452 76.389 809.452 86.474 799.368 86.474"/>
<polyline points="809.452 67.818 809.452 57.733 799.368 57.733"/>
<polyline points="780.712 76.389 780.712 86.474 790.796 86.474"/>
<path d="M790.458 57.64c-.589-.876-.934-1.93-.934-3.065 0-3.035 2.46-5.495 5.495-5.495s5.495 2.46 5.495 5.495c0 1.135-.344 2.189-.934 3.065"/>
<path d="M790.458 86.596c-.589.876-.934 1.93-.934 3.065 0 3.035 2.46 5.495 5.495 5.495s5.495-2.46 5.495-5.495c0-1.135-.344-2.189-.934-3.065"/>
<path d="M809.498 67.556c.876-.589 1.93-.934 3.065-.934 3.035 0 5.495 2.46 5.495 5.495s-2.46 5.495-5.495 5.495c-1.135 0-2.189-.344-3.065-.934"/>
<path d="M780.542 67.556c-.876-.589-1.93-.934-3.065-.934-3.035 0-5.495 2.46-5.495 5.495s2.46 5.495 5.495 5.495c1.135 0 2.189-.344 3.065-.934"/>
<line x1="803.517" x2="786.686" y1="63.461" y2="80.292"/>
<polyline points="799.872 63.28 803.906 63.28 803.906 67.313"/>
<polyline points="786.258 76.389 786.258 80.423 790.292 80.423"/>
<line x1="803.517" x2="786.686" y1="80.456" y2="63.625"/>
<polyline points="803.906 76.389 803.906 80.423 799.872 80.423"/>
<polyline points="790.292 63.28 786.258 63.28 786.258 67.313"/>
<circle cx="810.965" cy="116.223" r="6.555" stroke-width=".75"/>
<ellipse cx="810.965" cy="116.223" stroke-width=".75" rx="3.025" ry="6.555"/>
<path stroke-width=".75" d="M816.371 119.683c-1.102-.743-3.079-1.239-5.334-1.239-2.255 0-4.232.496-5.334 1.239"/>
<path stroke-width=".75" d="M805.702 112.76c1.102.743 3.079 1.239 5.334 1.239 2.256 0 4.232-.496 5.334-1.239"/>
<circle cx="777.939" cy="115.971" r="3.277"/>
<path d="M781.216 113.197v6.442c0 .341.276.617.617.617h1.057c.199 0 .39-.092.503-.256 1.464-2.115 1.73-5.122-.205-8.045-.256-.386-.593-.716-.98-.97-5.285-3.46-10.861.248-10.861 5.259 0 3.65 2.959 6.609 6.609 6.609"/>
<path d="M799.002 118.739c.626.37.792 1.208.335 1.773-.011.014-.023.028-.034.041-.794.967-2.193 1.189-3.253.526-2.547-1.595-4.987-3.999-6.642-6.528-.689-1.053-.477-2.46.485-3.273.005-.004.009-.008.014-.011.564-.474 1.417-.338 1.804.289.381.618.816 1.241 1.303 1.86.253.322.221.784-.075 1.067-.004.003-.007.007-.011.01-.31.297-.328.787-.041 1.107.641.715 1.333 1.396 2.056 2.026.322.28.806.257 1.1-.051.007-.007.014-.015.021-.023.279-.293.736-.331 1.058-.085.628.478 1.258.903 1.88 1.272z"/>
<line x1="765.585" x2="769.585" y1="132.358" y2="132.358"/>
<line x1="776.87" x2="816.937" y1="132.358" y2="132.358" stroke-dasharray="7.2848 7.2848"/>
<line x1="820.579" x2="824.579" y1="132.358" y2="132.358"/>
<path d="M809.452 53.195v-5.284c0-2.094-1.698-3.792-3.792-3.792h-39.308c-2.094 0-3.792 1.698-3.792 3.792v34.224l-5.106 4.339h18.217"/>
<path d="M780.712 91.012v5.284c0 2.094 1.698 3.792 3.792 3.792h39.308c2.094 0 3.792-1.698 3.792-3.792V92.02h5.075l-5.075-4.309V61.525c0-2.094-1.698-3.792-3.792-3.792h-10.326"/>
<polyline points="1107.061 76.012 1096 76.012 1096 87.073"/>
<polyline points="1128.13 96.554 1128.13 107.615 1117.069 107.615"/>
<polyline points="1128.13 87.073 1128.13 76.012 1117.069 76.012"/>
<polyline points="1096 96.554 1096 107.615 1107.061 107.615"/>
<path d="M1107.091 75.864c-.65-.965-1.029-2.127-1.029-3.377 0-3.345 2.711-6.056 6.056-6.056s6.056 2.711 6.056 6.056c0 1.251-.379 2.412-1.029 3.377"/>
<path d="M1107.091 107.774c-.65.965-1.029 2.127-1.029 3.377 0 3.345 2.711 6.056 6.056 6.056s6.056-2.711 6.056-6.056c0-1.251-.379-2.412-1.029-3.377"/>
<path d="M1128.073 86.792c.965-.649 2.127-1.029 3.377-1.029 3.345 0 6.056 2.711 6.056 6.056s-2.711 6.056-6.056 6.056c-1.25 0-2.412-.379-3.377-1.029"/>
<path d="M1096.163 86.792c-.965-.649-2.127-1.029-3.377-1.029-3.345 0-6.056 2.711-6.056 6.056s2.711 6.056 6.056 6.056c1.251 0 2.412-.379 3.377-1.029"/>
<line x1="1084.676" x2="1084.676" y1="108.931" y2="128.42" stroke-width=".75"/>
<polyline stroke-width=".75" points="1082.395 126.822 1084.725 124.492 1087.055 126.822"/>
<polyline stroke-width=".75" points="1082.395 110.266 1084.725 112.596 1087.055 110.266"/>
<line x1="1094.157" x2="1075.195" y1="118.412" y2="118.412" stroke-width=".75"/>
<polyline stroke-width=".75" points="1076.447 116.214 1078.776 118.544 1076.447 120.874"/>
<polyline stroke-width=".75" points="1093.003 116.214 1090.673 118.544 1093.003 120.874"/>
<line x1="1077.909" x2="1091.54" y1="111.728" y2="125.359" stroke-width=".75"/>
<polyline stroke-width=".75" points="1088.89 126.313 1088.89 123.153 1092.05 123.153"/>
<polyline stroke-width=".75" points="1077.302 114.199 1080.462 114.199 1080.462 111.038"/>
<line x1="1091.54" x2="1077.909" y1="111.728" y2="125.359" stroke-width=".75"/>
<polyline stroke-width=".75" points="1077.302 123.153 1080.462 123.153 1080.462 126.313"/>
<polyline stroke-width=".75" points="1088.89 111.038 1088.89 114.199 1092.05 114.199"/>
<path d="M1120.101 89.965c.524-.124 1.433.206 2.133.55.387.19.634.581.629 1.012l-.016 1.359c-.005.431-.261.816-.653.996-.708.327-1.625.636-2.145.499l-.807 1.885c.458.282.868 1.159 1.119 1.897.139.408.038.859-.271 1.16l-.973.95c-.308.301-.762.392-1.166.243-.732-.269-1.599-.699-1.87-1.164l-1.903.762c.125.524-.206 1.433-.55 2.133-.19.387-.581.634-1.012.629l-1.359-.016c-.431-.005-.816-.262-.996-.653-.327-.708-.636-1.625-.499-2.145l-1.885-.807c-.282.458-1.159.868-1.897 1.119-.408.139-.859.038-1.16-.271l-.95-.973c-.301-.309-.392-.762-.243-1.166.269-.732.699-1.598 1.164-1.87l-.762-1.903c-.524.124-1.433-.206-2.133-.55-.387-.19-.634-.581-.629-1.012l.016-1.359c.005-.431.262-.816.653-.996.708-.327 1.625-.636 2.145-.499l.807-1.885c-.458-.282-.868-1.159-1.119-1.897-.139-.408-.038-.859.271-1.16l.973-.95c.308-.301.762-.392 1.166-.243.732.269 1.599.699 1.87 1.164l1.903-.762c-.125-.524.206-1.433.55-2.133.19-.387.581-.634 1.012-.629l1.359.016c.431.005.816.262.996.653.327.708.636 1.625.499 2.145l1.885.807c.282-.458 1.159-.868 1.897-1.119.408-.139.859-.038 1.16.271l.95.973c.301.309.392.762.243 1.166-.269.732-.699 1.598-1.164 1.87l.762 1.903zm-7.923-3.132c-2.754-.033-5.013 2.173-5.047 4.927-.033 2.754 2.173 5.013 4.927 5.046 2.754.033 5.013-2.173 5.047-4.927.033-2.754-2.173-5.013-4.927-5.046z"/>
<path d="M1171.711 94.361c-.314 1.363-.278 1.985-.716 3.292l.036.395c.307 1.865 2.536 3.312 5.241 3.312 2.706 0 4.935-1.447 5.241-3.312l.036-.395c-.456-1.358-.403-1.868-.722-3.288"/>
<line x1="1113.278" x2="1202.922" y1="132.37" y2="132.37"/>
<path d="M1187.594 79.831c0 9.044-5.06 15.781-11.323 15.856-6.263-.075-11.323-6.812-11.323-15.856"/>
<path d="M1187.862 79.417c1.343.145 2.389.661 2.134 3.028-.165 1.527-1.387 2.648-2.731 2.503"/>
<path d="M1164.682 79.417c-1.343.145-2.389.661-2.134 3.028.165 1.527 1.387 2.648 2.731 2.503"/>
<path d="M1164.697 79.417c-1.343.145-2.389.661-2.134 3.028.165 1.527 1.387 2.648 2.731 2.503"/>
<path d="M1188.679 77.974c.586-.659.695-2.633.695-3.633 0-6.746-5.866-11.629-13.102-11.629s-13.102 4.883-13.102 11.629c0 1 .11 2.974.695 3.633"/>
<path d="M1183.854 75.627c-.634.698-2.891 2.504-7.582 2.494-4.691.011-6.948-1.795-7.582-2.494"/>
<path d="M1183.854 75.627c.53 2.187 1.97 5.861 3.983 3.774"/>
<path d="M1168.69 75.627c-.53 2.187-1.97 5.861-3.983 3.774"/>
<path d="M1181.53 97.86c.641.047 2.568.3 3.184.385 7.509 1.03 13.057 4.856 13.057 11.718l.71 22.51"/>
<path d="M1170.995 97.652c-.641.047-2.549.183-3.166.268-5.22.716-9.493 2.784-11.613 6.283"/>
<line x1="1189.313" x2="1189.904" y1="112.564" y2="132.472"/>
<line x1="1163.231" x2="1162.639" y1="112.564" y2="132.472"/>
<line x1="1156.216" x2="1151.061" y1="104.203" y2="117.296"/>
<path d="M1135.779 120.435l16.301 5.589c1.619.618 3.448-.012 4.345-1.495l6.775-11.212"/>
<line x1="1138.031" x2="1151.061" y1="113.766" y2="117.296"/>
<path d="M1137.272 114.345l-4.354-1.383-3.362.646-.841.975-4.706-.196.202 1.051c.039.204.171.381.363.487l3.34 1.697 3.194.002c.814.001 1.617.134 2.37.394l2.373.77"/>
<line x1="1138.031" x2="1135.779" y1="113.766" y2="120.435"/>
<path d="M1081.2 71.466c-3.525 0-6.382-2.857-6.382-6.382s4.387-5.784 6.382-10.902c1.994 5.119 6.382 7.378 6.382 10.902s-2.857 6.382-6.382 6.382z"/>
<path d="M1089.957 67.621c2.377-.592 4.138-2.74 4.138-5.3 0-3.017-3.755-4.95-5.462-9.331-.598 1.536-1.448 2.77-2.3 3.856"/>
<path d="M1081.585 68.773c-2.166 0-3.922-1.756-3.922-3.922"/>
<circle cx="1140.476" cy="62.702" r="5.004" stroke-width=".75"/>
<path stroke-width=".75" d="M1142.257 54.335l.802-1.271.059 1.501c.06 1.547 1.714 2.502 3.085 1.781l1.33-.7-.7 1.33c-.721 1.37.234 3.024 1.781 3.085l1.501.059-1.271.802c-1.31.826-1.31 2.736 0 3.562l1.271.802-1.501.059c-1.547.061-2.502 1.715-1.781 3.085l.7 1.33-1.33-.7c-1.37-.721-3.024.234-3.085 1.781l-.059 1.501-.802-1.271c-.826-1.31-2.736-1.31-3.562 0l-.802 1.271-.059-1.501c-.061-1.547-1.715-2.502-3.085-1.781l-1.33.7.7-1.33c.721-1.37-.234-3.024-1.781-3.085l-1.501-.059 1.271-.802c1.31-.826 1.31-2.736 0-3.562l-1.271-.802 1.501-.059c1.547-.061 2.502-1.715 1.781-3.085l-.7-1.33 1.33.7c1.37.721 3.024-.234 3.085-1.781l.059-1.501.802 1.271c.826 1.31 2.736 1.31 3.562 0z"/>
<path stroke-dasharray="7" stroke-linejoin="round" d="M1148.762 75.31c2.337 5.103 3.641 10.777 3.641 16.756s-1.304 11.654-3.641 16.756"/>
<path stroke-dasharray="7" stroke-linejoin="round" d="M1128.86 55.409c-5.103-2.337-10.777-3.642-16.756-3.642-5.98 0-11.654 1.304-16.756 3.642"/>
<path stroke-dasharray="7" stroke-linejoin="round" d="M1075.446 75.31c-2.337 5.103-3.641 10.777-3.641 16.756s1.304 11.654 3.641 16.756"/>
<line x1="1042.931" x2="1046.931" y1="132.37" y2="132.37"/>
<line x1="1054.012" x2="1107.12" y1="132.37" y2="132.37" stroke-dasharray="7.081 7.081"/>
<line x1="1110.66" x2="1114.66" y1="132.37" y2="132.37"/>
<line x1="874.327" x2="878.327" y1="132.37" y2="132.37"/>
<line x1="887.397" x2="901.003" y1="132.37" y2="132.37" stroke-dasharray="9.0707 9.0707"/>
<line x1="905.539" x2="909.539" y1="132.37" y2="132.37"/>
<line x1="909.539" x2="1045.271" y1="132.37" y2="132.37"/>
<path d="M1485.17 58.502c-.693.274-1.377.483-2.047.631-1.699.375-3.333.271-5.024-.107-1.564-.349-3.099-.845-4.689-1.045-4.096-.513-8.832.999-11.215 4.526-.682 1.009-1.167 2.139-1.225 3.359"/>
<path d="M1466.667 92.262c1.36.73 2.842 1.134 4.394 1.152 6.647-.079 12.018-7.231 12.018-16.829l.075-.492"/>
<path d="M1459.043 76.586c0 6.461 2.433 11.813 6.051 14.646"/>
<path d="M1483.153 76.094c1.426.154 2.745.754 2.474 3.266-.175 1.621-1.473 2.81-2.898 2.657"/>
<path d="M1458.76 76.146c-1.426.154-2.536.702-2.265 3.214.175 1.621 1.472 2.81 2.898 2.657"/>
<path d="M1458.776 76.146c-1.426.154-2.536.702-2.265 3.214.175 1.621 1.473 2.81 2.898 2.657"/>
<path d="M1463.137 71.391c-.578 2.686-1.997 7.301-4.195 4.739"/>
<path d="M1460.26 66.059c-2.725.007-3.973 2.715-3.839 5.117.063 1.135.469 2.266 1.226 3.114"/>
<path d="M1485.17 58.502c1.125 2.755 1.203 5.999.914 8.977-.244 2.521-1.342 4.822-3.364 6.382-1.854 1.43-4.355 1.968-6.648 2.043-2.927.095-5.925-.521-8.599-1.711-1.588-.707-3.069-1.656-4.346-2.838"/>
<path d="M1476.695 95.737c.68.05 2.691.3 3.344.39 7.964 1.093 13.848 5.151 13.848 12.428l.753 23.874"/>
<line x1="1484.916" x2="1485.544" y1="111.315" y2="132.43"/>
<line x1="1456.889" x2="1456.626" y1="123.6" y2="132.43"/>
<line x1="1202.922" x2="1925" y1="132.321" y2="132.321"/>
<path d="M1467.868 98.702c.912.459 2.027.729 3.23.729 2.87 0 5.234-1.535 5.559-3.513l.038-.419c-.484-1.44-.427-1.982-.766-3.487"/>
<path d="M1463.283 95.98c-.481.059-.911.114-1.152.147-7.964 1.093-13.848 5.151-13.848 12.428l-.343 10.872c-.06 1.9 1.213 3.585 3.058 4.046l2.793.698c1.783.446 3.63-.448 4.386-2.123l9.543-19.607-6.68-3.333-8.622 15.612"/>
<path d="M1437.329 53.09c.82.651 1.602 1.349 2.342 2.088.693.693 1.35 1.424 1.966 2.188"/>
<path d="M1443.8 60.467c2.453 4.093 3.862 8.883 3.862 14.002 0 15.067-12.215 27.282-27.282 27.282s-27.282-12.215-27.282-27.282 12.215-27.282 27.282-27.282c5.024 0 9.731 1.358 13.773 3.727"/>
<line x1="1406.422" x2="1436.589" y1="88.748" y2="88.748"/>
<line x1="1406.422" x2="1406.422" y1="88.748" y2="90.424"/>
<line x1="1412.009" x2="1412.009" y1="88.748" y2="90.424"/>
<line x1="1418.154" x2="1418.154" y1="88.748" y2="90.424"/>
<line x1="1424.299" x2="1424.299" y1="88.748" y2="90.424"/>
<line x1="1430.443" x2="1430.443" y1="88.748" y2="90.424"/>
<line x1="1436.589" x2="1436.589" y1="87.631" y2="90.424"/>
<line x1="1406.422" x2="1406.422" y1="88.748" y2="58.582"/>
<line x1="1406.422" x2="1404.746" y1="88.748" y2="88.748"/>
<line x1="1406.422" x2="1404.746" y1="82.603" y2="82.603"/>
<line x1="1406.422" x2="1404.746" y1="77.017" y2="77.017"/>
<line x1="1406.422" x2="1404.746" y1="70.872" y2="70.872"/>
<line x1="1406.422" x2="1404.746" y1="64.727" y2="64.727"/>
<line x1="1407.54" x2="1404.746" y1="58.582" y2="58.582"/>
<polyline points="1516.473 63.051 1508.652 63.051 1508.652 70.872"/>
<polyline points="1532.115 78.134 1532.115 85.955 1524.294 85.955"/>
<polyline points="1532.115 70.872 1532.115 63.051 1524.294 63.051"/>
<polyline points="1508.652 78.134 1508.652 85.955 1516.473 85.955"/>
<path d="M1516.821 62.793c-.475-.706-.753-1.556-.753-2.472 0-2.448 1.984-4.432 4.432-4.432s4.432 1.984 4.432 4.432c0 .915-.278 1.765-.753 2.472"/>
<path d="M1516.821 86.145c-.475.706-.753 1.556-.753 2.472 0 2.448 1.984 4.432 4.432 4.432s4.432-1.984 4.432-4.432c0-.915-.278-1.765-.753-2.472"/>
<path d="M1532.176 70.79c.706-.475 1.556-.753 2.472-.753 2.448 0 4.432 1.984 4.432 4.432 0 2.448-1.984 4.432-4.432 4.432-.915 0-1.766-.278-2.472-.753"/>
<path d="M1508.824 70.79c-.706-.475-1.556-.753-2.472-.753-2.448 0-4.432 1.984-4.432 4.432 0 2.448 1.984 4.432 4.432 4.432.915 0 1.766-.278 2.472-.753"/>
<path d="M1537.449 53.09c.82.651 1.602 1.349 2.342 2.088.693.693 1.35 1.424 1.966 2.188"/>
<path d="M1543.92 60.467c2.453 4.093 3.862 8.883 3.862 14.002 0 15.067-12.215 27.282-27.282 27.282s-27.282-12.215-27.282-27.282 12.215-27.282 27.282-27.282c5.024 0 9.731 1.358 13.773 3.727"/>
<polyline points="1514.302 71.69 1519.836 76.29 1527.776 67.932"/>
<path d="M1517.464 70.179c.84-.562 1.849-.89 2.935-.89 1.69 0 3.193.794 4.161 2.028"/>
<path d="M1515.464 72.678c-.227.589-.352 1.229-.352 1.898 0 2.92 2.367 5.287 5.287 5.287s5.287-2.367 5.287-5.287"/>
<line x1="1420.388" x2="1420.388" y1="82.045" y2="82.045"/>
<path d="M1416.205 61.643c.992-.992 2.363-1.606 3.877-1.606 3.029 0 5.484 2.455 5.484 5.484 0 1.514-.492 2.593-1.606 3.877-2.07 2.386-3.878 3.619-3.878 7.655"/>
<path stroke-dasharray="6" stroke-linejoin="round" d="M429.136 453.924c4.569 2.311 9.695 3.7 15.145 3.911 5.451.211 10.669-.777 15.403-2.728"/>
<path stroke-dasharray="6" stroke-linejoin="round" d="M462.272 388.277c-4.569-2.311-9.695-3.7-15.146-3.911-5.451-.211-10.669.777-15.403 2.728"/>
<path stroke-dasharray="6" stroke-linejoin="round" d="M481.934 414.957c1.297 7.148.085 14.489-2.743 21.116"/>
<path stroke-dasharray="6" stroke-linejoin="round" d="M410.343 411.074c-2.076 6.962-1.679 14.392.402 21.29"/>
<polyline points="480.564 402.603 487.247 402.603 487.247 395.921"/>
<polyline points="467.676 389.715 467.676 383.033 480.564 383.033"/>
<polyline points="467.676 395.921 467.676 402.603 474.359 402.603"/>
<polyline points="487.247 396.875 487.247 383.033 480.564 383.033"/>
<path d="M480.415 402.639c.402.597.636 1.315.636 2.089 0 2.069-1.677 3.746-3.746 3.746s-3.746-1.677-3.746-3.746c0-.773.235-1.492.636-2.089"/>
<path d="M467.491 395.88c.597.402 1.315.636 2.089.636 2.069 0 3.746-1.677 3.746-3.746s-1.677-3.746-3.746-3.746c-.773 0-1.492.235-2.089.636"/>
<polyline points="476.517 392.833 479.374 395.88 483.687 390.764"/>
<polyline points="410.874 440.789 404.192 440.789 404.192 447.472"/>
<polyline points="423.762 453.677 423.762 460.36 410.874 460.36"/>
<polyline points="423.762 447.472 423.762 440.789 417.079 440.789"/>
<polyline points="404.192 446.517 404.192 460.36 410.874 460.36"/>
<path d="M410.864 440.584c-.402-.597-.636-1.315-.636-2.089 0-2.069 1.677-3.746 3.746-3.746s3.746 1.677 3.746 3.746c0 .773-.235 1.492-.636 2.089"/>
<path d="M423.788 447.343c-.597-.402-1.315-.636-2.089-.636-2.069 0-3.746 1.677-3.746 3.746s1.677 3.746 3.746 3.746c.773 0 1.492-.235 2.089-.636"/>
<line x1="411.829" x2="411.829" y1="455.109" y2="455.109"/>
<path d="M410.227 445.828c.458-.458 1.09-.741 1.788-.741 1.397 0 2.529 1.132 2.529 2.529 0 .698-.227 1.196-.741 1.788-.955 1.101-1.788 1.669-1.788 3.53"/>
<polyline points="467.676 453.677 467.676 460.36 474.359 460.36"/>
<polyline points="480.564 440.789 487.247 440.789 487.247 453.677"/>
<polyline points="474.359 440.789 467.676 440.789 467.676 447.472"/>
<polyline points="473.404 460.36 487.247 460.36 487.247 453.677"/>
<path d="M467.438 453.562c-.597.402-1.315.636-2.089.636-2.069 0-3.746-1.677-3.746-3.746s1.677-3.746 3.746-3.746c.773 0 1.492.235 2.089.636"/>
<path d="M474.197 440.637c-.402.597-.636 1.315-.636 2.089 0 2.069 1.677 3.746 3.746 3.746s3.746-1.677 3.746-3.746c0-.773-.235-1.492-.636-2.089"/>
<polyline points="479.42 453.988 480.858 453.022 481.824 454.46"/>
<polyline points="472.775 451.501 473.746 452.936 475.181 451.965"/>
<path d="M473.738 452.835c0-1.947 1.578-3.525 3.525-3.525 1.385 0 2.584.799 3.16 1.962"/>
<path d="M480.788 453.137c0 1.947-1.578 3.525-3.525 3.525-1.441 0-2.679-.864-3.226-2.102"/>
<polyline points="423.762 389.715 423.762 383.033 417.079 383.033"/>
<polyline points="410.874 402.603 404.192 402.603 404.192 389.715"/>
<polyline points="417.079 402.603 423.762 402.603 423.762 395.921"/>
<polyline points="418.034 383.033 404.192 383.033 404.192 389.715"/>
<path d="M423.841 389.661c.597-.402 1.315-.636 2.089-.636 2.069 0 3.746 1.677 3.746 3.746s-1.677 3.746-3.746 3.746c-.773 0-1.492-.235-2.089-.636"/>
<path d="M417.082 402.586c.402-.597.636-1.315.636-2.089 0-2.069-1.677-3.746-3.746-3.746s-3.746 1.677-3.746 3.746c0 .773.235 1.492.636 2.089"/>
<line x1="410.793" x2="417.153" y1="387.342" y2="393.702"/>
<line x1="410.793" x2="417.153" y1="393.702" y2="387.342"/>
<line x1="445.242" x2="445.242" y1="401.171" y2="401.171"/>
<path d="M455.743 404.035h3.222c1.384 0 2.506 1.122 2.506 2.506v31.265c0 1.384-1.122 2.506-2.506 2.506h-26.969c-1.384 0-2.506-1.122-2.506-2.506v-31.265c0-1.384 1.122-2.506 2.506-2.506h2.745"/>
<path d="M447.972 401.648c.004-.067.008-.134.008-.201 0-1.604-1.283-2.905-2.866-2.905-1.583 0-2.866 1.3-2.866 2.905 0 .068.003.135.008.201h-7.515v5.251h21.002v-5.251h-7.771z"/>
<path d="M436.173 416.923h0c-1.582 0-2.864-1.282-2.864-2.864v0c0-1.582 1.282-2.864 2.864-2.864h0c1.582 0 2.864 1.282 2.864 2.864v0c0 1.582-1.283 2.864-2.864 2.864z"/>
<line x1="441.901" x2="457.175" y1="414.059" y2="414.059"/>
<path d="M436.173 426.47h0c-1.582 0-2.864-1.282-2.864-2.864h0c0-1.582 1.282-2.864 2.864-2.864h0c1.582 0 2.864 1.282 2.864 2.864h0c0 1.581-1.283 2.864-2.864 2.864z"/>
<line x1="441.901" x2="457.175" y1="423.606" y2="423.606"/>
<path d="M436.173 436.016h0c-1.582 0-2.864-1.282-2.864-2.864h0c0-1.582 1.282-2.864 2.864-2.864h0c1.582 0 2.864 1.282 2.864 2.864h0c0 1.582-1.283 2.864-2.864 2.864z"/>
<line x1="441.901" x2="457.175" y1="433.152" y2="433.152"/>
<line x2="404.192" y1="460.36" y2="460.36"/>
<line x1="487.247" x2="740.034" y1="460.36" y2="460.36"/>
<path stroke-dasharray="6" stroke-linejoin="round" d="M798.177 407.685c2.104 4.594 3.279 9.703 3.279 15.087s-1.174 10.493-3.279 15.087"/>
<path stroke-dasharray="6" stroke-linejoin="round" d="M750.083 455.779c4.594 2.105 9.703 3.279 15.087 3.279s10.493-1.174 15.087-3.279"/>
<path stroke-dasharray="6" stroke-linejoin="round" d="M780.258 389.766c-4.594-2.105-9.703-3.279-15.087-3.279s-10.493 1.174-15.087 3.279"/>
<path stroke-dasharray="6" stroke-linejoin="round" d="M732.164 407.685c-2.105 4.594-3.279 9.703-3.279 15.087s1.174 10.493 3.279 15.087"/>
<circle cx="734.063" cy="395.777" r="1.393"/>
<circle cx="741.495" cy="395.777" r="1.393"/>
<circle cx="737.779" cy="392.061" r="1.393"/>
<circle cx="737.779" cy="399.492" r="1.393"/>
<circle cx="737.547" cy="396.009" r="10.915"/>
<path d="M737.779 390.668v-1.482c0-.72-.584-1.305-1.305-1.305h-5.663"/>
<path d="M741.031 394.383v-1.018c0-.72.584-1.305 1.305-1.305h.178c.721 0 1.305-.584 1.305-1.305v-3.805"/>
<path d="M737.779 400.886v1.018c0 .72.584 1.305 1.305 1.305h1.107c.72 0 1.305-.584 1.305-1.305v-1.107c0-.72.584-1.305 1.305-1.305h5.198"/>
<path d="M733.135 395.777h-1.018c-.72 0-1.305.584-1.305 1.305v6.591"/>
<circle cx="792.819" cy="396.009" r="10.915"/>
<circle cx="789.335" cy="389.739" r="1.858"/>
<circle cx="796.535" cy="395.08" r="2.555"/>
<line x1="790.021" x2="792.866" y1="391.915" y2="394.26"/>
<line x1="797.252" x2="793.185" y1="392.834" y2="390.546"/>
<polyline points="788.785 391.834 786.553 395.215 785.633 394.733 787.561 390.015"/>
<line x1="786.101" x2="785.465" y1="394.978" y2="396.276"/>
<polyline points="794.277 396.996 791.487 401.815 797.252 401.815 797.581 399.78"/>
<path d="M829.159 426.692c-.277 1.202-.245 1.751-.632 2.903l.031.348c.27 1.644 2.236 2.921 4.622 2.921 2.386 0 4.352-1.276 4.622-2.921l.031-.348c-.402-1.197-.355-1.648-.637-2.899"/>
<line x1="817.204" x2="1094.98" y1="460.338" y2="460.338"/>
<path d="M842.462 419.18c-1.472 5.171-5.064 8.631-9.271 8.682-4.235-.05-7.846-3.556-9.3-8.783"/>
<path d="M844.132 412.242c.516-.581.613-2.322.613-3.204 0-5.949-5.173-10.254-11.554-10.254s-11.554 4.306-11.554 10.254c0 .882.097 2.623.613 3.204"/>
<path d="M839.877 407.892c-.559.616-2.55 2.208-6.686 2.199-4.136.009-6.127-1.583-6.686-2.199"/>
<path d="M839.877 407.892c.241.995.696 2.947 1.324 4.35"/>
<path d="M826.505 407.892c-.241.995-.696 2.947-1.324 4.35"/>
<path d="M837.818 429.777c.565.041 2.265.265 2.808.339 6.622.909 11.514 4.282 11.514 10.334l.626 19.85"/>
<path d="M828.527 429.595c-.565.042-2.248.161-2.792.236-4.604.632-8.371 2.455-10.24 5.541"/>
<line x1="844.68" x2="845.202" y1="442.744" y2="460.3"/>
<line x1="821.681" x2="821.159" y1="442.744" y2="460.3"/>
<line x1="815.495" x2="810.949" y1="435.371" y2="446.917"/>
<path d="M797.473 449.685l14.374 4.928c1.428.545 3.041-.01 3.831-1.318l5.974-9.887"/>
<line x1="799.459" x2="810.949" y1="443.805" y2="446.917"/>
<line x1="794.729" x2="797.537" y1="447.11" y2="448.083"/>
<path d="M789.335 443.153l-1.574.013.178 2.696c.035.18.151.336.32.43l1.127.608"/>
<line x1="798.789" x2="796.103" y1="444.165" y2="442.86"/>
<line x1="799.459" x2="797.473" y1="443.805" y2="449.685"/>
<path d="M833.276 415.671c.699 0 1.136.577 1.209 1.26v-.028c.08.64.231 1.226.565 1.768.321.52.76.947 1.262 1.258.896.557 1.978.71 3.009.412 2.572-.737 4.822-2.113 4.822-4.134v-2.4c0-.789-.6-1.352-1.342-1.27-6.517.723-13.094.723-19.61 0-.742-.082-1.342.48-1.342 1.27v2.294c0 2.139 2.381 3.595 5.102 4.375 1.091.315 2.236.153 3.183-.436.531-.33.996-.781 1.335-1.332.354-.574.513-1.194.598-1.871v.095c.074-.684.511-1.261 1.209-1.261z"/>
<path d="M844.719 416.213h-.111v-3.251h.111c.708 0 1.282.574 1.282 1.282v.687c0 .708-.574 1.282-1.282 1.282z"/>
<path d="M821.737 416.213h.111v-3.251h-.111c-.708 0-1.282.574-1.282 1.282v.687c0 .708.574 1.282 1.282 1.282z"/>
<path d="M794.445 442.688v-1.393h.284c.613 0 1.11-.497 1.11-1.11v-.103c0-.613-.497-1.11-1.11-1.11h-5.677c-.613 0-1.11.497-1.11 1.11v.103c0 .613.497 1.11 1.11 1.11h.284v6.029l-4.115 6.527c-1.268 2.011.177 4.63 2.554 4.63h7.765c2.377 0 3.822-2.619 2.554-4.63l-4.115-6.527v-2.777"/>
<line x1="786.549" x2="791.658" y1="451.513" y2="451.513"/>
<line x1="793.98" x2="796.767" y1="451.513" y2="451.513"/>
<circle stroke="none" cx="792.354" cy="454.068" r=".941" fill="#000"/>
<circle stroke="none" cx="788.639" cy="455.926" r=".941" fill="#000"/>
<circle stroke="none" cx="795.606" cy="455.926" r=".941" fill="#000"/>
<path d="M795.838 442.688h-3.827c-.292 0-.528.237-.528.528h0c0 .26.19.482.447.522l4.203.653"/>
<circle cx="794.212" cy="433.167" r="1.626"/>
<path d="M786.041 439.563c-1.333 0-2.413-1.08-2.413-2.413 0-1.333 1.08-2.413 2.413-2.413s2.413 1.08 2.413 2.413"/>
<line x1="790.906" x2="790.906" y1="434.023" y2="434.023"/>
<line x1="793.898" x2="793.898" y1="436.522" y2="436.522"/>
<polyline points="760.538 408.317 750.784 408.317 750.784 418.071"/>
<polyline points="779.582 427.361 779.582 437.115 769.828 437.115"/>
<polyline points="779.582 418.071 779.582 408.317 769.828 408.317"/>
<polyline points="750.784 427.361 750.784 437.115 760.538 437.115"/>
<path d="M760.585 408.271c-.584-.867-.924-1.911-.924-3.034 0-3.005 2.436-5.441 5.441-5.441s5.441 2.436 5.441 5.441c0 1.124-.341 2.168-.924 3.034"/>
<path d="M760.585 436.942c-.584.867-.924 1.911-.924 3.034 0 3.005 2.436 5.441 5.441 5.441s5.441-2.436 5.441-5.441c0-1.124-.341-2.168-.924-3.034"/>
<path d="M779.437 418.09c.867-.584 1.911-.924 3.034-.924 3.005 0 5.441 2.436 5.441 5.441s-2.436 5.441-5.441 5.441c-1.124 0-2.168-.341-3.034-.924"/>
<path d="M750.766 418.09c-.867-.584-1.911-.924-3.034-.924-3.005 0-5.441 2.436-5.441 5.441s2.436 5.441 5.441 5.441c1.124 0 2.168-.341 3.034-.924"/>
<path d="M762.126 422.2c0-1.254 1.017-2.271 2.271-2.271h1.409c1.254 0 2.271 1.017 2.271 2.271"/>
<path d="M766.576 417.607h-2.787v-2.788c0-.512.415-.927.927-.927h.932c.512 0 .927.415.927.927v2.788z"/>
<line x1="765.183" x2="765.183" y1="419.929" y2="417.607"/>
<rect width="7.896" height="10.683" x="761.003" y="422.716"/>
<line x1="760.074" x2="759.145" y1="415.749" y2="415.749"/>
<line x1="757.751" x2="756.823" y1="415.749" y2="415.749"/>
<line x1="762.126" x2="761.563" y1="415.757" y2="416.32"/>
<line x1="760.519" x2="759.956" y1="417.364" y2="417.926"/>
<line x1="758.912" x2="758.35" y1="418.97" y2="419.533"/>
<line x1="762.126" x2="761.563" y1="415.746" y2="415.183"/>
<line x1="760.519" x2="759.956" y1="414.139" y2="413.577"/>
<line x1="758.912" x2="758.35" y1="412.533" y2="411.97"/>
<circle cx="737.547" cy="449.423" r="10.915"/>
<line x1="738.244" x2="735.921" y1="452.907" y2="452.907"/>
<path d="M731.277 452.907v-5.92c0-1.091.885-1.976 1.976-1.976h6.417c.559 0 1.091.236 1.466.651l2.859 3.161c.185.205.288.471.288.747v2.141c0 .615-.514 1.114-1.147 1.114"/>
<circle cx="741.495" cy="452.907" r="1.393"/>
<circle cx="734.528" cy="452.907" r="1.393"/>
<polyline points="739.637 447.797 739.637 449.655 741.495 449.655"/>
<path d="M1103.697 440.109s8.037-3.265 13.058-3.198c5.021.066 7.892 2.446 12.026 3.198 4.134.752 10.706 1.075 10.706 1.075 1.785.179 3.106 1.743 2.984 3.533h0c-.117 1.718-1.526 3.062-3.248 3.098h-17.398"/>
<path d="M1100.776 460.338h-5.065c-.983 0-1.78-.797-1.78-1.78v-19.211c0-.983.797-1.78 1.78-1.78h5.065c1.565 0 2.833 1.268 2.833 2.833v17.104c0 1.566-1.268 2.834-2.833 2.834z"/>
<path d="M1108.163 458.061H1136.896c.706 0 1.39-.246 1.934-.696l23.816-19.673c.237-.196.365-.493.355-.8-.098-2.937-2.829-4.213-4.878-3.176-.074.037-.147.077-.219.12l-3.985 2.405-11.23 6.778"/>
<line x1="1148.089" x2="1153.551" y1="436.733" y2="433.437"/>
<line x1="1148.089" x2="1140.686" y1="436.733" y2="441.202"/>
<path d="M1153.551 433.437l.76-.458c1.244-.751 2.799-.592 3.863.315"/>
<path d="M1147.501 434.523l2.474-1.493c1.143-.69 2.55-.612 3.596.11"/>
<line x1="1136.912" x2="1147.501" y1="440.914" y2="434.523"/>
<path d="M1133.882 440.692l9.753-5.886c1.012-.611 2.23-.62 3.221-.114"/>
<polyline points="1122.963 389.752 1112.148 389.752 1112.148 400.568"/>
<polyline points="1144.594 411.383 1144.594 422.199 1133.779 422.199"/>
<polyline points="1144.594 400.568 1144.594 389.752 1133.779 389.752"/>
<polyline points="1112.148 411.383 1112.148 422.199 1122.963 422.199"/>
<path d="M1123.341 389.806c-.656-.975-1.039-2.148-1.039-3.412 0-3.378 2.739-6.117 6.117-6.117 3.379 0 6.117 2.739 6.117 6.117 0 1.263-.383 2.437-1.039 3.412"/>
<path d="M1123.341 422.039c-.656.975-1.039 2.148-1.039 3.412 0 3.379 2.739 6.117 6.117 6.117 3.379 0 6.117-2.739 6.117-6.117 0-1.263-.383-2.437-1.039-3.412"/>
<path d="M1144.536 400.844c.975-.656 2.148-1.039 3.411-1.039 3.379 0 6.117 2.739 6.117 6.117s-2.739 6.117-6.117 6.117c-1.263 0-2.437-.383-3.411-1.039"/>
<path d="M1112.302 400.844c-.975-.656-2.148-1.039-3.411-1.039-3.379 0-6.117 2.739-6.117 6.117s2.739 6.117 6.117 6.117c1.263 0 2.437-.383 3.411-1.039"/>
<path d="M1125.073 404.828c0-1.41 1.143-1.984 2.553-1.984h1.585c1.41 0 2.553.574 2.553 1.984"/>
<path d="M1129.794 399.998h-2.846v-3.014c0-.536.434-.97.97-.97h.905c.536 0 .97.435.97.97v3.014z"/>
<line x1="1128.656" x2="1128.656" y1="402.845" y2="400.568"/>
<rect width="9.108" height="12.523" x="1124.102" y="405.122"/>
<line x1="1122.394" x2="1121.825" y1="398.291" y2="398.291"/>
<line x1="1120.117" x2="1118.979" y1="398.291" y2="398.291"/>
<line x1="1125.073" x2="1124.441" y1="398.222" y2="398.854"/>
<line x1="1123.267" x2="1122.635" y1="400.028" y2="400.661"/>
<line x1="1121.461" x2="1120.828" y1="401.835" y2="402.467"/>
<line x1="1125.073" x2="1124.441" y1="398.21" y2="397.577"/>
<line x1="1123.267" x2="1122.635" y1="396.403" y2="395.771"/>
<line x1="1121.461" x2="1120.828" y1="394.597" y2="393.964"/>
<polyline points="1104.747 425.614 1104.747 430.168 1100.193 430.168"/>
<path d="M1104.795 430.028c-6.25-6.126-10.128-14.663-10.128-24.106 0-7.677 2.563-14.755 6.88-20.425"/>
<polyline points="1152.564 386.906 1152.564 382.352 1157.118 382.352"/>
<path d="M1152.285 382.057c6.108 6.108 9.886 14.546 9.886 23.866 0 7.414-2.391 14.27-6.443 19.839"/>
<path d="M1104.197 382.419c6.134-6.32 14.719-10.247 24.222-10.247 7.76 0 14.909 2.619 20.61 7.022"/>
<polyline points="1104.178 377.798 1104.178 382.352 1108.732 382.352"/>
<line x1="1126.948" x2="1126.948" y1="366.413" y2="356.736"/>
<line x1="1102.773" x2="1109.609" y1="364.587" y2="371.242"/>
<line x1="1150.992" x2="1144.156" y1="364.587" y2="371.242"/>
<line x1="1117.77" x2="1115.217" y1="367.931" y2="362.293"/>
<line x1="1135.996" x2="1138.548" y1="367.931" y2="362.293"/>
<line x1="1113.836" x2="1530.076" y1="460.338" y2="460.338"/>
<path d="M1481.099 438.471c0 6.563-3.672 11.453-8.217 11.507-4.545-.054-8.217-4.944-8.217-11.507"/>
<path d="M1481.293 438.171c.975.105 1.734.48 1.548 2.197-.12 1.108-1.007 1.922-1.982 1.816"/>
<path d="M1464.471 438.171c-.975.105-1.734.48-1.548 2.197.12 1.108 1.007 1.922 1.982 1.816"/>
<path d="M1464.482 438.171c-.975.105-1.734.48-1.548 2.197.12 1.108 1.007 1.922 1.982 1.816"/>
<path d="M1481.886 437.124c.425-.478.505-1.911.505-2.636 0-4.895-4.257-8.439-9.508-8.439s-9.508 3.544-9.508 8.439c0 .725.08 2.158.505 2.636"/>
<path d="M1478.384 435.42c-.46.507-2.098 1.817-5.502 1.81-3.404.008-5.042-1.303-5.502-1.81"/>
<path d="M1478.384 435.42c.384 1.587 1.43 4.253 2.891 2.739"/>
<path d="M1467.38 435.42c-.384 1.587-1.43 4.253-2.891 2.739"/>
<path d="M1476.712 451.567c.465.034 1.85.206 2.297.267 5.45.748 9.476 3.524 9.476 8.504"/>
<path d="M1469.052 451.567c-.465.034-1.85.206-2.297.267-5.45.748-9.476 3.524-9.476 8.504"/>
<path d="M1469.572 449.016c-.228.989-.201 1.441-.52 2.389l.026.286c.223 1.353 1.84 2.403 3.804 2.403s3.581-1.05 3.804-2.403l.026-.286c-.331-.985-.292-1.356-.524-2.386"/>
<path d="M1457.041 436.043c0 6.409-3.586 11.184-8.024 11.237-4.439-.053-8.024-4.828-8.024-11.237"/>
<path d="M1457.231 435.75c.952.103 1.693.469 1.512 2.146-.117 1.082-.983 1.877-1.935 1.774"/>
<path d="M1440.803 435.75c-.952.103-1.693.469-1.512 2.146.117 1.082.983 1.877 1.935 1.774"/>
<path d="M1440.814 435.75c-.952.103-1.693.469-1.512 2.146.117 1.082.983 1.877 1.935 1.774"/>
<path d="M1457.81 434.728c.415-.467.493-1.866.493-2.575 0-4.781-4.157-8.241-9.285-8.241s-9.285 3.46-9.285 8.241c0 .708.078 2.108.493 2.575"/>
<path d="M1454.39 433.064c-.449.495-2.049 1.775-5.373 1.767-3.324.007-4.924-1.272-5.373-1.767"/>
<path d="M1454.39 433.064c.375 1.55 1.396 4.153 2.823 2.675"/>
<path d="M1443.644 433.064c-.375 1.55-1.396 4.153-2.823 2.675"/>
<path d="M1452.757 448.832c2.091.131 4.205.456 6.151 1.263.54.224 1.065.486 1.565.789"/>
<path d="M1445.413 448.832c-.454.033-1.807.201-2.244.261-5.322.73-9.253 3.442-9.253 8.305v2.717"/>
<path d="M1445.785 446.341c-.223.966-.197 1.407-.508 2.333l.025.28c.217 1.321 1.797 2.347 3.715 2.347s3.497-1.026 3.715-2.347l.025-.28c-.323-.962-.286-1.324-.512-2.33"/>
<path d="M1488.627 436.043c0 6.409 3.586 11.184 8.024 11.237 4.438-.053 8.024-4.828 8.024-11.237"/>
<path d="M1488.437 435.75c-.952.103-1.693.469-1.512 2.146.117 1.082.983 1.877 1.935 1.774"/>
<path d="M1504.865 435.75c.952.103 1.693.469 1.512 2.146-.117 1.082-.983 1.877-1.935 1.774"/>
<path d="M1504.854 435.75c.952.103 1.693.469 1.512 2.146-.117 1.082-.983 1.877-1.935 1.774"/>
<path d="M1487.858 434.728c-.415-.467-.493-1.866-.493-2.575 0-4.781 4.157-8.241 9.285-8.241s9.285 3.46 9.285 8.241c0 .708-.078 2.108-.493 2.575"/>
<path d="M1491.278 433.064c.449.495 2.049 1.775 5.373 1.767 3.324.007 4.924-1.272 5.373-1.767"/>
<path d="M1491.278 433.064c-.375 1.55-1.396 4.153-2.823 2.675"/>
<path d="M1502.024 433.064c.375 1.55 1.396 4.153 2.823 2.675"/>
<path d="M1492.911 448.832c-2.091.131-4.205.456-6.151 1.263-.54.224-1.065.486-1.565.789"/>
<path d="M1500.386 448.832c.454.033 1.807.201 2.244.261 5.322.73 9.253 3.442 9.253 8.305v2.717"/>
<path d="M1499.883 446.341c.223.966.197 1.407.508 2.333l-.025.28c-.217 1.321-1.797 2.347-3.714 2.347-1.918 0-3.497-1.026-3.715-2.347l-.025-.28c.323-.962.286-1.324.512-2.33"/>
<polyline points="1462.972 401.519 1462.972 408.299 1456.193 408.299"/>
<polyline points="1455.708 388.444 1442.633 388.444 1442.633 401.519"/>
<polyline points="1456.193 388.444 1462.972 388.444 1462.972 395.224"/>
<polyline points="1456.677 408.299 1442.633 408.299 1442.633 401.519"/>
<path d="M1462.795 401.454c.605.408 1.335.646 2.119.646 2.099 0 3.8-1.701 3.8-3.8s-1.701-3.8-3.8-3.8c-.785 0-1.514.238-2.119.646"/>
<polyline points="1482.827 401.519 1482.827 408.299 1476.047 408.299"/>
<line x1="1476.047" x2="1462.972" y1="388.444" y2="388.444"/>
<polyline points="1476.047 388.444 1482.827 388.444 1482.827 395.224"/>
<line x1="1476.532" x2="1462.972" y1="408.299" y2="408.299"/>
<path d="M1482.818 401.454c-.605.408-1.334.646-2.119.646-2.099 0-3.8-1.701-3.8-3.8s1.701-3.8 3.8-3.8c.785 0 1.514.238 2.119.646"/>
<polyline points="1502.682 401.519 1502.682 408.299 1495.902 408.299"/>
<line x1="1495.902" x2="1482.827" y1="388.444" y2="388.444"/>
<polyline points="1495.902 388.444 1502.682 388.444 1502.682 401.519"/>
<line x1="1496.871" x2="1482.827" y1="408.299" y2="408.299"/>
<polyline points="1431.918 399.473 1429.161 396.716 1426.404 399.473"/>
<path d="M1429.074 396.677v14.312c0 2.526 2.048 4.574 4.574 4.574h13.121l2.19 4.905 1.963-4.905h18.638l3.285 7.357 2.944-7.357h18.484l2.19 4.905 1.963-4.905h13.242c2.526 0 4.574-2.048 4.574-4.574v-7.048"/>
<polyline points="1519.355 396.716 1516.598 399.473 1513.841 396.716"/>
<path d="M1516.241 399.582v-12.86c0-2.526-2.048-4.574-4.574-4.574h-78.02c-2.526 0-4.574 2.048-4.574 4.574v6.08"/>
</g>
</svg>
