<?xml version="1.0" encoding="utf-8"?>
<!-- Generator: Adobe Illustrator 23.0.2, SVG Export Plug-In . SVG Version: 6.00 Build 0)  -->
<svg version="1.1" id="Layer_1" xmlns="http://www.w3.org/2000/svg" xmlns:xlink="http://www.w3.org/1999/xlink" x="0px" y="0px"
	 viewBox="0 0 386.2 409" style="enable-background:new 0 0 386.2 409;" xml:space="preserve">
<style type="text/css">
	.st0{fill-rule:evenodd;clip-rule:evenodd;fill:#2F39ED;}
	.st1{fill-rule:evenodd;clip-rule:evenodd;fill:#1D1FE9;}
	.st2{fill:#2F39ED;}
</style>
<polygon class="st0" points="270.3,166.2 310.9,159.2 304.9,216.3 "/>
<polygon class="st0" points="50.6,23.9 193.9,55.9 180.7,192.8 "/>
<polygon class="st0" points="304.9,216.3 170,317.1 170,217.3 180.7,192.8 "/>
<polygon class="st1" points="310.9,159.2 361.3,190.7 306,206.5 "/>
<polygon class="st1" points="193.9,55.9 304.9,216.3 180.7,192.8 "/>
<polygon class="st1" points="170,217.3 99,378.4 170,345.2 "/>
<polygon class="st1" points="26.4,72.8 84.4,67.8 180.7,192.8 170.8,215.4 "/>
<path class="st2" d="M164.2,244.9l-54.6,124l54.6-25.6v-13.8v-10.9V244.9L164.2,244.9z M316.4,158l47.6,29.7l10.7,6.7l-12.1,3.2
	l-51.7,13.8l-0.2,2.1l-0.8,7.3l-6.4,4.9l-128.2,95.7v25.4v3.5l-3.2,1.5l-70.9,33.3L88,391.3l5.9-13.3l70.2-159.5L22.2,78.4l-8.5-8.5
	l11.9-1l48-4.2L46,28.8l-9.2-11.9l14.7,3.3l137.3,30.7l8.1,1.8l2.3,3.4l73.3,105.8l33.1-5.8l6.1-1.1L316.4,158L316.4,158z
	 M347.5,190.3L315.1,170l-3.1,29.8L347.5,190.3L347.5,190.3z M175.2,307.8L291.5,221l-107.7-20.4l-8.2,18.6l-0.4,1L175.2,307.8
	L175.2,307.8z M292.6,210.1l-16-23.1l-14.7-21.2l-1.2-1.9l-63-91.1L186.4,190l5.4,1L292.6,210.1L292.6,210.1z M304.4,167.4
	l-25.1,4.4l21.4,31L304.4,167.4L304.4,167.4z M176.4,180.1l6.5-67.7l4.9-50.7L63.9,34l22.7,29.5h0.1l1.9,2.4L176.4,180.1
	L176.4,180.1z M81.6,75.1l-43.1,3.8l130.2,128.5l5.4-12.2L81.6,75.1L81.6,75.1z"/>
</svg>
