<svg xmlns="http://www.w3.org/2000/svg" width="73" height="58" viewBox="0 0 73 58">
  <path fill="#FFF" d="M41.55 1.62a6.12 6.12 0 0 0-1.94 3.87 6.25 6.25 0 0 0-7.52.67 6.19 6.19 0 0 0-1.94 3.87 6.25 6.25 0 0 0-7.52.67 6.17 6.17 0 0 0-1.91 3.66L10.63 4.22a6.28 6.28 0 0 0-8.66-.24 6.16 6.16 0 0 0-.16 8.91l20.73 20.78a6.12 6.12 0 0 0-5.92 3.34 6.15 6.15 0 0 0 2.65 8.34l16.33 8.46a134.35 134.35 0 0 1 2.84 1.52 22.37 22.37 0 0 0 13.63 2.46c4.82-.67 9.2-2.85 12.65-6.31l1.78-1.78a22.35 22.35 0 0 0 0-31.52L50.21 1.85a6.28 6.28 0 0 0-8.66-.23z"/>
  <path d="M41.55 1.62a6.12 6.12 0 0 0-1.94 3.87 6.25 6.25 0 0 0-7.52.67 6.19 6.19 0 0 0-1.94 3.87 6.25 6.25 0 0 0-7.52.67 6.17 6.17 0 0 0-1.91 3.66L10.63 4.22a6.28 6.28 0 0 0-8.66-.24 6.16 6.16 0 0 0-.16 8.91l20.73 20.78a6.12 6.12 0 0 0-5.92 3.34 6.15 6.15 0 0 0 2.65 8.34l16.33 8.46a134.35 134.35 0 0 1 2.84 1.52 22.37 22.37 0 0 0 13.63 2.46c4.82-.67 9.2-2.85 12.65-6.31l1.78-1.78a22.35 22.35 0 0 0 0-31.52L50.21 1.85a6.28 6.28 0 0 0-8.66-.23zm23.2 18.31a19.85 19.85 0 0 1 0 28.01l-1.78 1.78a19.83 19.83 0 0 1-23.36 3.42l-.77-.42c-.69-.37-1.39-.76-2.1-1.13l-16.33-8.45a3.7 3.7 0 1 1 3.41-6.59l3.48 1.8c.53.28 1.19.13 1.55-.35l.03-.04c.35-.49.29-1.16-.14-1.59L3.56 11.14a3.72 3.72 0 0 1 .09-5.35 3.8 3.8 0 0 1 5.23.18l13.6 13.63 8.41 8.43c.48.48 1.26.48 1.75 0 .48-.48.48-1.27 0-1.75l-8.41-8.43a3.72 3.72 0 0 1 .09-5.35 3.79 3.79 0 0 1 5.23.18l2.38 2.39 7.68 7.7c.48.48 1.26.48 1.75 0 .48-.48.48-1.27 0-1.75l-7.68-7.7a3.72 3.72 0 0 1 .09-5.35 3.79 3.79 0 0 1 5.23.18l2.38 2.39 6.47 6.49c.48.48 1.26.48 1.75 0 .48-.48.48-1.27 0-1.75l-6.47-6.49a3.72 3.72 0 0 1 .09-5.35 3.79 3.79 0 0 1 5.23.18l16.3 16.31z"/>
</svg>
