<svg xmlns="http://www.w3.org/2000/svg" xmlns:xlink="http://www.w3.org/1999/xlink" width="34" height="32" viewBox="0 0 1000.09 939.78">
  <defs>
    <radialGradient id="radial-gradient" cx="556.91" cy="240.47" r="305.98" fx="556.91" fy="240.47" gradientUnits="userSpaceOnUse">
      <stop offset="0" stop-color="#2bb6ed"/>
      <stop offset="1" stop-color="#00a0dc"/>
    </radialGradient>
    <radialGradient xlink:href="#radial-gradient" id="radial-gradient1" cx="555.08" cy="240.81" r="305.98" fx="555.08" fy="240.81"/>
    <radialGradient xlink:href="#radial-gradient" id="radial-gradient2" cx="488.01" cy="671.95" r="342.97" fx="488.01" fy="671.95"/>
  </defs>
  <circle cx="357.86" cy="690.7" r="167.97" fill="#fde021"/>
  <g fill="#fde021">
    <path d="M84.58 900.87a42.44 42.44 0 0 1-42.39-42.39v-53.75c0-19.08 13.02-35.94 31.67-41.01 32.44-8.82 55.09-38.49 55.09-72.15s-22.65-63.33-55.09-72.15c-18.65-5.07-31.67-21.94-31.67-41.01v-92.96a42.44 42.44 0 0 1 42.39-42.39h806.87a42.44 42.44 0 0 1 42.39 42.39v92.96c0 19.08-13.02 35.94-31.67 41.01-32.44 8.82-55.09 38.49-55.09 72.15s22.66 63.33 55.09 72.15c18.65 5.07 31.67 21.93 31.67 41.01v53.75a42.44 42.44 0 0 1-42.39 42.39z"/>
    <path d="M891.45 455.04a30.4 30.4 0 0 1 30.39 30.39v92.96c0 13.87-9.44 25.79-22.82 29.43a86.8 86.8 0 0 0 0 167.46c13.38 3.64 22.82 15.56 22.82 29.43v53.75a30.4 30.4 0 0 1-30.39 30.39H84.58a30.4 30.4 0 0 1-30.39-30.39v-53.75c0-13.87 9.44-25.79 22.82-29.43a86.8 86.8 0 0 0 0-167.46c-13.38-3.64-22.82-15.56-22.82-29.43v-92.96a30.4 30.4 0 0 1 30.39-30.39zm0-24H84.58a54.45 54.45 0 0 0-54.39 54.39v92.96c0 24.48 16.66 46.1 40.53 52.59 27.23 7.4 46.24 32.31 46.24 60.57s-19.01 53.17-46.24 60.57c-23.86 6.49-40.53 28.11-40.53 52.59v53.75a54.45 54.45 0 0 0 54.39 54.39h806.87a54.45 54.45 0 0 0 54.39-54.39v-53.75c0-24.48-16.66-46.1-40.53-52.59-27.23-7.4-46.24-32.31-46.24-60.57s19.02-53.17 46.24-60.57c23.86-6.49 40.53-28.11 40.53-52.59v-92.96a54.45 54.45 0 0 0-54.39-54.39"/>
  </g>
  <path fill="url(#radial-gradient)" d="M646.22 429.01a15.33 15.33 0 0 1 27.43-11.8l8.62 11.8h209.19q5.44.02 10.6 1.01l31.38-22.92a30.4 30.4 0 0 0 6.62-42.47l-31.7-43.41c-8.18-11.2-22.84-15.26-35.79-10.31a86.8 86.8 0 0 1-98.77-135.23c8.66-10.83 9.25-26.03 1.07-37.23l-54.83-75.07a30.4 30.4 0 0 0-42.47-6.62L167.92 429.01zm-41.33-79.95a15.33 15.33 0 0 1 21.41 3.33l13.17 18.04a15.31 15.31 0 1 1-24.73 18.07l-13.17-18.04a15.3 15.3 0 0 1 3.33-21.4Zm-47.34-64.82a15.33 15.33 0 0 1 21.41 3.33l13.17 18.04a15.33 15.33 0 0 1-24.73 18.08l-13.17-18.04a15.3 15.3 0 0 1 3.33-21.4Zm-47.34-64.81a15.3 15.3 0 0 1 21.4 3.33l13.17 18.04a15.31 15.31 0 1 1-24.74 18.07l-13.17-18.04a15.3 15.3 0 0 1 3.33-21.4Z"/>
  <g fill="#fde021">
    <path d="M899.8 441.81c-2.78-.53-5.59-.8-8.35-.8H676.16l-12.21-16.72a3.31 3.31 0 0 0-5.92 2.57l2.59 14.16H131.14L670.47 47.08a42 42 0 0 1 24.98-8.16c13.5 0 26.31 6.5 34.26 17.39l54.83 75.07c11.25 15.4 10.68 36.71-1.39 51.8a74.9 74.9 0 0 0-1.93 90.76 75 75 0 0 0 60.45 30.67 74 74 0 0 0 26.6-4.9 43 43 0 0 1 15.51-2.88 42.5 42.5 0 0 1 34.25 17.31l31.7 43.41a42 42 0 0 1 7.65 31.53 42.1 42.1 0 0 1-16.88 27.71l-35.59 25.99zm-285.89-83.7q-1.07 0-1.94.64a3.2 3.2 0 0 0-1.32 2.17c-.1.62-.07 1.55.6 2.47l13.17 18.04a3.31 3.31 0 1 0 5.35-3.92l-13.17-18.04a3.3 3.3 0 0 0-2.69-1.36m-47.34-64.82q-1.07 0-1.94.64a3.2 3.2 0 0 0-1.32 2.17c-.1.62-.07 1.55.6 2.47l13.17 18.04a3.3 3.3 0 0 0 4.64.72 3.3 3.3 0 0 0 .72-4.64l-13.17-18.04a3.3 3.3 0 0 0-2.69-1.36Zm-47.34-64.81q-1.07 0-1.94.64a3.2 3.2 0 0 0-1.32 2.17c-.1.62-.07 1.55.6 2.47l13.17 18.04a3.3 3.3 0 0 0 4.64.72 3.3 3.3 0 0 0 .72-4.64l-13.17-18.04a3.3 3.3 0 0 0-2.69-1.36Z"/>
    <path d="M695.45 50.92c9.37 0 18.62 4.32 24.57 12.47l54.83 75.07c8.18 11.2 7.59 26.4-1.07 37.23a86.8 86.8 0 0 0 98.78 135.24 32 32 0 0 1 11.23-2.08c9.51 0 18.7 4.36 24.56 12.39l31.7 43.41a30.4 30.4 0 0 1-6.62 42.47l-31.38 22.92a56 56 0 0 0-10.6-1.01H682.26l-8.62-11.8a15.3 15.3 0 0 0-21.4-3.33 15.3 15.3 0 0 0-6.02 15.13h-478.3L677.55 56.77a30.3 30.3 0 0 1 17.9-5.85M532.43 265.15a15.31 15.31 0 0 0 12.35-24.35l-13.17-18.04a15.3 15.3 0 0 0-21.4-3.33 15.3 15.3 0 0 0-3.33 21.4l13.17 18.04c3 4.11 7.66 6.28 12.38 6.28m47.34 64.82a15.32 15.32 0 0 0 12.35-24.36l-13.17-18.04a15.3 15.3 0 0 0-21.4-3.33 15.3 15.3 0 0 0-3.33 21.4l13.17 18.04c3 4.11 7.66 6.28 12.38 6.28m47.34 64.82a15.32 15.32 0 0 0 12.35-24.36l-13.17-18.04a15.3 15.3 0 0 0-21.4-3.33 15.3 15.3 0 0 0-3.33 21.4l13.17 18.04c3 4.11 7.66 6.28 12.38 6.28m68.34-367.85v24za54 54 0 0 0-32.06 10.47L153.76 409.63l-59.39 43.38h797.08q3.03 0 6.1.59l10.24 1.95 8.42-6.15 31.38-22.92a54 54 0 0 0 21.66-35.55 54 54 0 0 0-9.82-40.46l-31.7-43.41a54.5 54.5 0 0 0-43.94-22.23 55 55 0 0 0-19.8 3.67 62 62 0 0 1-22.31 4.11c-20 0-38.98-9.63-50.76-25.75a62.9 62.9 0 0 1 1.61-76.19c15.44-19.31 16.14-46.61 1.71-66.37l-54.83-75.07a54.6 54.6 0 0 0-43.95-22.31Z"/>
  </g>
  <path fill="url(#radial-gradient1)" d="M644.39 429.35a15.33 15.33 0 0 1 27.43-11.8l8.62 11.8h209.19q5.44.02 10.6 1.01l31.38-22.92a30.4 30.4 0 0 0 6.62-42.47l-31.7-43.41c-8.18-11.2-22.84-15.26-35.79-10.31a86.8 86.8 0 0 1-98.77-135.23c8.66-10.83 9.25-26.03 1.07-37.23l-54.83-75.07a30.4 30.4 0 0 0-42.47-6.62L166.09 429.35zm-41.33-79.95a15.33 15.33 0 0 1 21.41 3.33l13.17 18.04a15.31 15.31 0 1 1-24.73 18.07l-13.17-18.04a15.3 15.3 0 0 1 3.33-21.4Zm-47.34-64.81a15.33 15.33 0 0 1 21.41 3.33l13.17 18.04a15.33 15.33 0 0 1-24.73 18.08L552.4 306a15.3 15.3 0 0 1 3.33-21.4Zm-47.34-64.82a15.3 15.3 0 0 1 21.4 3.33l13.17 18.04a15.31 15.31 0 1 1-24.74 18.07l-13.17-18.04a15.3 15.3 0 0 1 3.33-21.4Z"/>
  <path fill="url(#radial-gradient2)" d="M899.02 607.82c13.38-3.64 22.82-15.56 22.82-29.43v-92.96a30.4 30.4 0 0 0-30.39-30.39H84.58a30.4 30.4 0 0 0-30.39 30.39v92.96c0 13.87 9.44 25.79 22.82 29.43a86.8 86.8 0 0 1 0 167.46c-13.38 3.64-22.82 15.56-22.82 29.43v53.75a30.4 30.4 0 0 0 30.39 30.39h806.87a30.4 30.4 0 0 0 30.39-30.39v-53.75c0-13.87-9.44-25.79-22.82-29.43a86.8 86.8 0 0 1 0-167.46m-408.58 54.71-44.05 42.94a20.2 20.2 0 0 0-5.8 17.87l10.4 60.63c2.83 16.49-14.48 29.06-29.29 21.28l-54.45-28.62a20.2 20.2 0 0 0-18.78 0l-54.45 28.62c-14.81 7.78-32.11-4.79-29.29-21.28l10.4-60.63a20.2 20.2 0 0 0-5.8-17.87l-44.05-42.94c-11.98-11.68-5.37-32.02 11.19-34.43l60.87-8.85a20.2 20.2 0 0 0 15.2-11.04l27.22-55.16c7.4-15 28.8-15 36.2 0l27.22 55.16a20.2 20.2 0 0 0 15.2 11.04l60.87 8.85c16.56 2.41 23.17 22.75 11.19 34.43M675.7 846.4a15.32 15.32 0 0 1-30.64 0v-22.34a15.32 15.32 0 0 1 30.64 0zm0-80.27a15.32 15.32 0 0 1-30.64 0v-22.34a15.32 15.32 0 0 1 30.64 0zm0-80.26a15.32 15.32 0 0 1-30.64 0v-22.34a15.32 15.32 0 0 1 30.64 0zm0-80.27a15.32 15.32 0 0 1-30.64 0v-22.34a15.32 15.32 0 0 1 30.64 0zm0-80.26a15.32 15.32 0 0 1-30.64 0V503a15.32 15.32 0 0 1 30.64 0z"/>
</svg>
