<svg xmlns="http://www.w3.org/2000/svg" width="79" height="82" viewBox="0 0 79 82">
  <path fill="#fff" d="M54 78.2c-2.4 0-2.7-2.7-3.7-4.3-2.4-7-8.6-4-13.6-7-6.9-5-12.6-12.6-21.8-13.3-2.7-.6-6.6-.8-8.2-3.3C5 46 10.5 44 14 44.2c5 0 9.4 2.7 13 6 1 .8 2.4-.5 1.7-1.6-3.3-6.7-7.8-12.9-12-19-7-10.3-9.7-11.2-13-18.2C1.7 7.4 4 1.6 9 3c2.3.6 4.5 2.9 6.3 6.2 2 4 10.5 19.5 10.8 20.2.2.3.6.6 1 .6 2.5-.7.7-2.2-.5-4.7-2.8-4.8 4-9 7-4.2l3.7 6.6c.3.5 1 .7 1.6.4 2.8-1.6-5.3-6 .5-10 2.1-1.2 4.6.6 5.6 2.4l2.8 5.5c.3.5 1 .8 1.6.5.6-.3.8-1 .5-1.6l-2.5-5c.9-2.1 3.5-1.8 5.2-1 7.8 4.4 12.5 18 14.1 22.4 1.1 3 1.6 6.2 1.4 9.4a7 7 0 0 0 1.7 5c1.4 2 2.6 4 4.1 5.8 1 1.2 2.2 2.1 2 3.7a2 2 0 0 1-1 1.3L65.4 72c-5.7 3-8.3 5.5-11.5 6.2"/>
  <path d="M77.7 61.5c-10.3-12.3-4.2-8.7-8.1-21C66.8 32 57 9.4 46 17c-3-3.2-8.7-2.8-10.7 1.3A7.1 7.1 0 0 0 24 19.4C19.7 12 18.8 8 14.3 3 10.2-2 1.1-.6.1 6.3c-.6 3.6.9 8 4 11.7 6.5 8 12.6 16.5 18.1 25.4-16.2-8.6-29 10.4-7.8 13.1 11 .5 17.3 14.6 27 15 5.7 0 5.5 2.5 7.4 6 4.6 8.1 10.5.9 18.2-3 6.6-4.5 15.3-5.7 10.8-13m-2.4 3.7c-1.6 2-5.1 3-10.2 6.3l-9.8 5.7c-1.2.8-3 .3-3.4-1-2-5.1-4.4-8.4-10.4-8.3-5.3.5-12-9.1-17.9-12C19 53 13 53.6 8 51c-2-1.8-.8-4.6 2-5.5 4.8-1.8 11.1.2 16.5 5.1 1.4 1.4 3.7-.4 2.8-2-3.4-6.8-7.9-13-12.2-19.3-6.5-10.1-14.1-15-13.4-22.3 2-6.6 9-2.7 11.2 2.7l11 20.1c1 2 4.2.4 3-1.6l-1.5-2.9c-2.6-4 3.5-8 6-3.8l3.6 6.7c.5.8 1.6 1.1 2.5.6 3.4-2.3-5-6.4.4-10 3.9-1.9 6.2 5 7.6 7.6 1 2 4.2.5 3.2-1.5L48 20c7.4-6.3 18 19.8 18.2 21.6 1 3 1.5 6 1.3 9.2 0 4.4 3.7 7.7 6 11.1.8 1.1 2 1.9 1.9 3.3"/>
</svg>