<svg xmlns="http://www.w3.org/2000/svg" width="51" height="51" viewBox="0 0 51 51">
<path fill="#fff" d="M15.59 1.8c-3.92.18-7.3 1.13-10.03 3.85-2.74 2.74-3.69 6.13-3.86 10-.11 2.41-.75 20.65 1.1 25.41a12.1 12.1 0 0 0 6.98 6.97c1.52.59 3.26.99 5.8 1.11 21.26.97 29.14.43 32.47-8.07a17.5 17.5 0 0 0 1.11-5.79C50.13 13.95 49 9.34 45.3 5.63 42.35 2.7 38.91.71 15.59 1.78m.19 43.08a13.5 13.5 0 0 1-4.44-.81 7.9 7.9 0 0 1-4.54-4.52c-1.42-3.64-.95-20.9-.81-23.68.12-2.74.68-5.23 2.62-7.16C11 6.3 14.09 5.14 35.08 6.09c2.74.12 5.25.68 7.17 2.6 2.39 2.39 3.57 5.49 2.62 26.42-.02 1.51-.3 3-.81 4.42-2.17 5.54-7.14 6.3-28.28 5.33m19.53-32.11a2.86 2.86 0 1 0 5.72 0 2.86 2.86 0 1 0-5.72 0M13.16 25.47a12.24 12.24 0 1 0 24.49-.03 12.24 12.24 0 0 0-24.49.03m4.3 0a7.97 7.97 0 0 1 15.91.03 7.96 7.96 0 0 1-15.91-.03"/>
</svg>
