<svg xmlns="http://www.w3.org/2000/svg" width="27" height="24" viewBox="0 0 27 24"><path fill="#fff" d="M25.88 3H21V1.13a1.06 1.06 0 0 0-.33-.8 1.06 1.06 0 0 0-.8-.33H7.13a1 1 0 0 0-.8.33 1.06 1.06 0 0 0-.33.8V3H1.13A1.13 1.13 0 0 0 0 4.12v2.63a4.89 4.89 0 0 0 1.1 3 8.82 8.82 0 0 0 2.95 2.44 11.12 11.12 0 0 0 4 1.22 10.91 10.91 0 0 0 1.5 2 9.11 9.11 0 0 0 1.17 1.07l.52.38v3.37H9a3.33 3.33 0 0 0-2.13.7A2.36 2.36 0 0 0 6 22.88v.56a.56.56 0 0 0 .56.56h13.88a.56.56 0 0 0 .56-.55v-.56a2.33 2.33 0 0 0-.87-1.89 3.28 3.28 0 0 0-2.13-.75h-2.25v-3.37l.52-.38a9.11 9.11 0 0 0 1.17-1.07 11.38 11.38 0 0 0 1.5-2 11 11 0 0 0 4-1.24 9.27 9.27 0 0 0 2.96-2.46 4.84 4.84 0 0 0 1.1-3v-2.6A1.13 1.13 0 0 0 25.89 3ZM3 6.75V6h3a18.78 18.78 0 0 0 .61 4A6.32 6.32 0 0 1 4 8.49a2.7 2.7 0 0 1-1-1.74Zm21 0a2.7 2.7 0 0 1-1 1.74A6.32 6.32 0 0 1 20.39 10 18.78 18.78 0 0 0 21 6h3ZM18.05 7l-1.88 1.77.47 2.58a.55.55 0 0 1-.23.54.61.61 0 0 1-.61.07l-2.3-1.22-2.3 1.17a.5.5 0 0 1-.59 0 .46.46 0 0 1-.21-.54l.42-2.58L9 7a.5.5 0 0 1-.16-.59.52.52 0 0 1 .44-.41l2.58-.37L13 3.33a.53.53 0 0 1 .7-.29.55.55 0 0 1 .29.29l1.17 2.3 2.56.37a.52.52 0 0 1 .47.4.58.58 0 0 1-.14.6Z"/></svg>