<svg xmlns="http://www.w3.org/2000/svg" width="24" height="24" viewBox="0 0 24 24"><path fill="#fff" d="M23.25 11.62a11.32 11.32 0 0 1-1.57 5.82 11.73 11.73 0 0 1-4.24 4.24 11.57 11.57 0 0 1-11.63 0 11.8 11.8 0 0 1-4.24-4.24A11.32 11.32 0 0 1 0 11.62a11.31 11.31 0 0 1 1.57-5.81 11.62 11.62 0 0 1 20.11 0 11.31 11.31 0 0 1 1.57 5.81ZM12 3.84a6.27 6.27 0 0 0-3.23.8 6.58 6.58 0 0 0-2.25 2.2.49.49 0 0 0-.1.4.6.6 0 0 0 .24.36l1.59 1.21a.41.41 0 0 0 .38.11.48.48 0 0 0 .37-.21 9 9 0 0 1 1.17-1.22 2.51 2.51 0 0 1 1.5-.49 2.6 2.6 0 0 1 1.48.44 1.3 1.3 0 0 1 .68 1.1 1.17 1.17 0 0 1-.42.89 10.46 10.46 0 0 1-1.08.7l-.09.05a6.59 6.59 0 0 0-1.65 1.17 3 3 0 0 0-.84 2.11v.19a.56.56 0 0 0 .56.56h2.63a.56.56 0 0 0 .56-.56.79.79 0 0 1 .38-.65 7.48 7.48 0 0 1 .89-.57 8.47 8.47 0 0 0 1.73-1.33 3.58 3.58 0 0 0 .89-2.48 4 4 0 0 0-.8-2.41 5.48 5.48 0 0 0-2.06-1.73A5.79 5.79 0 0 0 12 3.84Zm-.32 11.63a2.16 2.16 0 1 0 2.15 2.16 2.2 2.2 0 0 0-.63-1.53 2.08 2.08 0 0 0-1.57-.63Z"/></svg>