<svg xmlns="http://www.w3.org/2000/svg" width="40" height="31" viewBox="0 0 40 31"><path fill="#fff" d="M33.33 19.21V29a1.64 1.64 0 0 1-1.63 1.65h-7.94a.82.82 0 0 1-.82-.82v-7.68a.82.82 0 0 0-.81-.82H17.2a.82.82 0 0 0-.82.81v7.66a.82.82 0 0 1-.82.82H7.63A1.64 1.64 0 0 1 6 29v-9.79a.9.9 0 0 1 .27-.68L19.11 8a.85.85 0 0 1 1.1 0l12.85 10.53a.9.9 0 0 1 .27.68ZM39.07 15l-5.74-4.72V.82a.82.82 0 0 0-.81-.82h-3.84a.82.82 0 0 0-.82.82v5L21.78.75A3.35 3.35 0 0 0 19.66 0a3.09 3.09 0 0 0-2.05.75L.24 15a.85.85 0 0 0-.23.55.8.8 0 0 0 .17.61l1.71 2.12a.62.62 0 0 0 .54.27 1.07 1.07 0 0 0 .62-.2L19.11 5.2a.83.83 0 0 1 1.1 0l16.06 13.19a1 1 0 0 0 .62.2.62.62 0 0 0 .54-.27l1.71-2.12a.79.79 0 0 0 .17-.61.87.87 0 0 0-.24-.59Z"/></svg>