<svg xmlns="http://www.w3.org/2000/svg" width="12" height="9" viewBox="0 0 12 9"><path d="M4.22 9h-2A2.24 2.24 0 0 1 0 6.77V2.25A2.24 2.24 0 0 1 2.23 0h2a.28.28 0 0 1 .27.28v.94a.28.28 0 0 1-.28.28h-2a.77.77 0 0 0-.75.75v4.5a.77.77 0 0 0 .75.75h2a.28.28 0 0 1 .28.28v.94a.28.28 0 0 1-.28.28ZM7 1.9l1.81 1.66h-4.5a.56.56 0 0 0-.56.56v.75a.56.56 0 0 0 .56.56h4.5L7 7.1a.5.5 0 0 0-.19.41.53.53 0 0 0 .19.41l.52.52a.57.57 0 0 0 .8 0l3.52-3.54a.57.57 0 0 0 0-.8L8.27.56a.57.57 0 0 0-.8 0L7 1.08a.58.58 0 0 0-.17.41.51.51 0 0 0 .17.41Z"/></svg>