<svg xmlns="http://www.w3.org/2000/svg" width="25" height="24" viewBox="0 0 25 24"><path fill="#fff" d="M11.18.84 8.13 7 1.29 8a1.39 1.39 0 0 0-1 .56 1.53 1.53 0 0 0-.33 1 1.45 1.45 0 0 0 .45 1l5 4.83-1.18 6.8a1.49 1.49 0 0 0 1.08 1.71 1.36 1.36 0 0 0 1.08-.12l6.14-3.19 6.14 3.19a1.41 1.41 0 0 0 1.08.14 1.36 1.36 0 0 0 .87-.63 1.49 1.49 0 0 0 .21-1.05l-1.17-6.85 5-4.83a1.41 1.41 0 0 0 .45-1 1.53 1.53 0 0 0-.33-1 1.43 1.43 0 0 0-1-.56L17 7 13.9.84a1.44 1.44 0 0 0-.82-.75 1.66 1.66 0 0 0-1.08 0 1.44 1.44 0 0 0-.82.75ZM11 7.5h3a.33.33 0 0 1 .28.12.45.45 0 0 1 .1.3L14 13.17a.3.3 0 0 1-.12.24.38.38 0 0 1-.25.09h-2.21a.39.39 0 0 1-.26-.09.3.3 0 0 1-.12-.24l-.37-5.25A.4.4 0 0 1 11 7.5Zm1.5 10.87a1.84 1.84 0 1 1 .07-3.68 1.85 1.85 0 0 1 1.81 1.88 1.9 1.9 0 0 1-.54 1.27 1.82 1.82 0 0 1-1.3.53Z"/></svg>
