<svg xmlns="http://www.w3.org/2000/svg" width="179" height="132" viewBox="0 0 179 132">
  <path fill="#ffea69" d="M65.76 11.99C18.37 19.92-3.1 51.59 1.81 80.91c4.91 29.33 54.36 71.63 109.55 38.93 40.99-24.29 66.95-38.31 62.04-67.64-4.91-29.33-60.26-48.14-107.64-40.21"/>
  <path fill="#cc0000" d="M29.69 73.32c-.03-.7.6-1.2 1.58-1.27 1.12.01 2.96.54 4.56 1.3.26.14.48.02.56-.3l1.83-4.67c.09-.17-.02-.41-.28-.55a13.57 13.57 0 0 0-7.22-1.72c-4.84.36-7.96 3.37-7.8 7.65.27 6.98 9.22 6.28 9.29 8.14.03.73-.62 1.26-1.64 1.34-1.22 0-2.99-.49-4.49-1.23-.26-.14-.48-.04-.56.29l-1.84 4.62c-.09.16.01.38.28.56 1.65 1.18 4.48 1.83 7.15 1.64 4.91-.36 8.08-3.5 7.92-7.74-.27-7-9.28-6.15-9.35-8.06M57.07 64.09l-5.47.6a.6.6 0 0 0-.52.59l.53 13.91c.05 1.43-.74 2.39-2.14 2.52-1.4.14-2.26-.63-2.32-2.1l-.53-13.88a.5.5 0 0 0-.56-.49l-5.48.52a.59.59 0 0 0-.52.59l.51 13.3c.28 5.64 3.41 8.35 9.12 7.77 5.76-.59 8.67-3.92 8.45-9.56l-.51-13.3a.5.5 0 0 0-.56-.49M84.39 60.8l-6.65.83c-.41.05-.88.4-1.06.77l-3.92 12.73-4.85-11.65a1.23 1.23 0 0 0-1.11-.51l-6.65.78c-.26.03-.44.27-.43.53l.8 21.09c0 .23.21.43.46.4l5.88-.69c.26-.03.47-.28.46-.5l-.36-9.38 3.57 8.96c.11.25.53.42.81.38l3.5-.43c.29-.04.69-.31.78-.58l2.85-9.75.36 9.38c0 .23.24.42.5.39l5.88-.74a.5.5 0 0 0 .43-.51l-.8-21.09c0-.26-.21-.46-.47-.42M111.81 57.46l-6.65.78a1.5 1.5 0 0 0-1.06.77l-3.93 12.72-2.61-6.28a4.48 4.48 0 0 1-2.48 1.19c-.45.07-.82 0-1.13-.18-.02 0-1.06-.67-1.08-.68a2.6 2.6 0 0 1-.33-.23 1.73 1.73 0 0 1-.55-1.28c-.04-1.17.53-2.71 1.74-4.64l-6.16.77c-.26.03-.44.28-.43.54l.8 21.09c0 .23.21.43.47.39l5.88-.74c.26-.03.47-.28.46-.51l-.36-9.38 3.57 8.95c.11.24.53.41.81.38l3.5-.43c.29-.04.69-.31.78-.57l2.85-9.74.36 9.38c0 .22.24.42.5.38l5.88-.68a.5.5 0 0 0 .43-.5l-.8-21.09c0-.26-.21-.46-.46-.43M130.4 71.84c-2.89.27-5.79.56-8.68.86l-.1-2.71c2.06-.21 4.11-.43 6.17-.62.29-.03.5-.28.53-.47.1-1.5.18-3.01.27-4.51.03-.2-.14-.4-.43-.37-2.25.21-4.5.44-6.74.68l-.1-2.52c2.77-.29 5.54-.57 8.31-.83a.5.5 0 0 0 .49-.53l-.18-4.82c0-.22-.24-.42-.52-.4-4.83.45-9.66.95-14.48 1.49-.29.04-.44.21-.43.5l.8 21.09c.07.22.3.45.52.43 4.93-.55 9.87-1.07 14.8-1.53.26-.02.47-.27.46-.49l-.19-4.89c0-.22-.24-.39-.5-.37M140.87 63.78l-1.88.14-.13-3.38 1.88-.15c1.08-.08 1.84.54 1.88 1.56.04 1.02-.67 1.74-1.75 1.83m10.19 11.74c-1.79-2.64-3.58-5.26-5.38-7.88a6.97 6.97 0 0 0 3.69-6.34c-.17-4.34-3.52-7.03-8.43-6.67-2.8.21-5.6.45-8.41.69a.52.52 0 0 0-.46.52l.8 21.09c0 .23.24.42.49.4 1.87-.16 3.74-.33 5.61-.47.29-.02.5-.27.49-.49l-.27-7.02.38-.03a1425 1425 0 0 1 3.58 6.71c.14.28.43.48.76.45 2.27-.16 4.55-.31 6.82-.44.29-.02.5-.25.33-.53M53.26 43.38c.63-.06 2.71-.09 6.23-.17h.09a.78.78 0 0 0 .61-.41c.14-.25.2-.53.18-.86-.04-.95-2.09-1.17-6.15-.78l-2.07.22c-2.17.2-4.12.6-5.84 1.22a12.37 12.37 0 0 0-4.1 2.28c-2.07 1.83-3.06 3.78-2.98 5.92a5.6 5.6 0 0 0 1.16 3.27c.33.45.87.65 1.64.61.77-.04 1.15-.2 1.14-.47 0-.06-.03-.13-.1-.23a5.27 5.27 0 0 1-1.28-3.2 5.36 5.36 0 0 1 1.88-4.18c1.31-1.25 3.16-2.1 5.55-2.56l-.44 2.06-.74 3.43-.61 2.86c-1.41.28-2.11.68-2.09 1.23.02.55.44.8 1.27.74l.43-.03c-.48 2.46-1.02 4.2-1.62 5.2-.69 1.12-1.6 1.72-2.73 1.78-.52.03-.93-.03-1.22-.17l-.76-.31-.43-.21a.42.42 0 0 0-.22-.05c-.29.01-.56.19-.8.54-.25.35-.37.64-.36.88 0 .24.03.39.07.45.29.47.82.85 1.59 1.15.77.29 1.53.42 2.28.38a5.3 5.3 0 0 0 4.62-3.07c.57-1.1 1.24-3.17 1.99-6.22.08-.33.13-.51.12-.53 1.19-.16 2.37-.33 3.56-.51.4-.04.59-.37.57-.99-.02-.62-.24-.92-.64-.88-1.06.1-2.11.19-3.17.27.51-2.34.98-5.12 1.41-8.36a17.7 17.7 0 0 1 1.95-.29"/>
  <path fill="#cc0000" d="M58.75 46.36a2.1 2.1 0 0 0-1.26.55 1.5 1.5 0 0 0-.46 1.19c.03.9.57 1.3 1.6 1.19.5-.05.89-.24 1.19-.56.29-.32.43-.73.42-1.23-.03-.86-.53-1.24-1.49-1.14M76.01 53.11a8.08 8.08 0 0 1-.68 2.89c-.32.55-.74.87-1.28.94-.67.09-1.05-.3-1.14-1.18l-.01-.32a4.82 4.82 0 0 1 .9-2.96 3.48 3.48 0 0 1 2.48-1.61l-.26 2.24m2.9-8.1c.19-.79.38-1.46.57-2.01.34-1.09.83-1.68 1.46-1.77.36-.05.56.28.59 1 .03.72-.13 1.6-.48 2.63a22.73 22.73 0 0 1-2.02 4.5c-.4.72-.61 1.1-.65 1.15l-.21.44c.3-3.17.55-5.15.74-5.94m4.83 8.73a.8.8 0 0 0-.61-.17c-.21.03-.36.1-.45.21-1.02 1.55-2.03 2.4-3.02 2.54-.88.12-1.35-.64-1.42-2.3v-.26l1.28-2.15a74.54 74.54 0 0 0 1.56-2.71c.3-.56.69-1.38 1.19-2.46a11.75 11.75 0 0 0 1.27-5.43c0-.27-.03-.47-.05-.6a1.81 1.81 0 0 0-.7-1.26c-.41-.33-.9-.45-1.47-.37-2.68.38-4.34 3.81-4.98 10.32a3.15 3.15 0 0 0-1.01-.04c-1.28.17-2.4.98-3.34 2.41a7.46 7.46 0 0 0-1.33 4.5 6 6 0 0 1-2.22 1.65l-.21.04c-.12.03-.19-.06-.2-.26 0-.2 0-.44.03-.71.03-.27.26-1.19.69-2.74.43-1.55.64-2.54.62-2.96-.01-.27-.16-.51-.46-.71-.3-.2-.64-.28-1.02-.23-.75.09-1.58.66-2.51 1.69a20.24 20.24 0 0 0-2.78 4.31c.21-1.61.51-3.07.9-4.39.02-.06.02-.17.02-.34 0-.16-.09-.31-.25-.45a.7.7 0 0 0-.58-.16c-.59.07-1 .46-1.23 1.18-.6 1.88-.93 3.67-1.01 5.4-.91 1.1-1.72 1.68-2.42 1.75-.67.07-1.02-.35-1.06-1.25-.03-.67.11-1.58.42-2.73.3-1.15.56-1.93.76-2.34.21-.41.31-.69.3-.84 0-.15-.11-.29-.32-.4a1.25 1.25 0 0 0-.73-.13c-.28.03-.53.11-.74.24-.22.13-.47.49-.75 1.07-.29.59-.56 1.47-.82 2.64a12.3 12.3 0 0 0-.35 3.03c.03.85.32 1.51.86 1.99a2.6 2.6 0 0 0 2.1.58c1-.1 1.97-.57 2.89-1.39.18.65.51.96.99.91.36-.04.62-.15.78-.34.16-.18.34-.57.55-1.18.21-.6.81-1.66 1.8-3.18.99-1.52 1.65-2.37 1.97-2.54h.03c.04 0 .06.04.06.12 0 .09-.16.75-.5 1.99a10.36 10.36 0 0 0-.47 2.81c.05 1.21.62 1.75 1.74 1.61a6.4 6.4 0 0 0 2.28-.93c.49-.29.93-.64 1.32-1.03.13.22.27.42.45.59.58.56 1.28.79 2.1.68a3.43 3.43 0 0 0 2.94-2.46c.64 1.24 1.61 1.78 2.89 1.6 1.65-.23 3.1-1.28 4.36-3.16.15-.23.21-.47.2-.7a.67.67 0 0 0-.31-.56M108.68 51.56c-.41.61-.86.94-1.36 1-.98.12-1.49-.45-1.54-1.72-.04-.92.19-1.84.67-2.76.48-.92 1.09-1.42 1.82-1.51.19-.02.34.02.45.12.11.1.18.28.21.53-.48.54-.71 1.05-.69 1.53.02.48.39.83 1.11 1.06a3.65 3.65 0 0 1-.67 1.76M95.27 62.93c-.33.53-.59.81-.78.83-.36.05-.56-.19-.58-.73-.04-1.06 1.23-3.17 3.8-6.32-.84 2.86-1.65 4.93-2.45 6.22m38.04-17.06c-.19-.2-.34-.3-.46-.3a.52.52 0 0 0-.23.04c-.92.6-1.59.91-2 .93-.41.02-.62-.11-.64-.4 0-.12.08-.45.26-1.01s.26-1.05.25-1.47c-.03-.65-.46-.96-1.31-.91-.6.03-1.34.78-2.24 2.24-.9 1.46-1.5 2.76-1.8 3.88l.93-5.15a.72.72 0 0 0-.25-.56.79.79 0 0 0-.61-.19c-.63.04-1.08.51-1.33 1.4a21.26 21.26 0 0 0-.66 4.8c-.93 1.15-1.71 1.77-2.32 1.86-.27.02-.41-.19-.43-.63l.02-.35a27.8 27.8 0 0 1 1.08-5.85l.02-.12c0-.21-.12-.39-.34-.55a1.13 1.13 0 0 0-.77-.19c-.3.03-.53.13-.71.32-.18.19-.35.61-.52 1.26l-.67 2.95a6.7 6.7 0 0 1-1.19 2.62c-.52.66-1.04 1.01-1.56 1.07-.65.07-1-.37-1.03-1.31v-.2c.04-.99.26-2.15.68-3.49.41-1.33.61-2.06.61-2.19 0-.12-.11-.25-.3-.37-.2-.12-.48-.17-.86-.13-.37.04-.67.27-.88.69a15.46 15.46 0 0 0-.88 2.72c-.6.46-1.2.78-1.81.97.06-.43.09-.74.08-.94a2.88 2.88 0 0 0-.9-2.1 2.52 2.52 0 0 0-2.06-.63 5.06 5.06 0 0 0-3.54 2.27c-.2.27-.37.55-.52.83-.93.82-1.98 1.81-3.16 2.98l2.29-11.22c.08-.44.12-.77.11-1-.02-.63-.44-.9-1.24-.8-.58.07-.94.57-1.1 1.48L99.3 49.24a12.86 12.86 0 0 1-2.63 2.92 5.7 5.7 0 0 1-2.66 1.34c-.8.11-1.45-.11-1.93-.66s-.75-1.47-.8-2.76c-.09-2.48.67-6.09 2.3-10.81.03-.12.05-.21.05-.27-.01-.33-.3-.45-.87-.37-.57.08-1.01.43-1.33 1.06-1.83 3.91-2.69 7.35-2.58 10.31.07 1.88.52 3.32 1.35 4.3a3.3 3.3 0 0 0 3.19 1.2c1.8-.25 3.65-1.5 5.55-3.75-.11.6-.24 1.16-.37 1.7-4.47 4.95-6.66 8.56-6.58 10.79.02.54.2.97.55 1.28.35.32.81.44 1.38.36 1.67-.23 2.97-1.3 3.92-3.21.95-1.91 1.9-5.02 2.85-9.34a67.16 67.16 0 0 1 2.89-2.94 7.6 7.6 0 0 0-.02.83 3.48 3.48 0 0 0 1.02 2.48c.64.61 1.44.86 2.4.75 2.24-.27 3.63-1.71 4.17-4.34a9.27 9.27 0 0 0 1.67-.84 12.7 12.7 0 0 0-.06 1.5c.03.88.27 1.58.7 2.1.43.51 1.06.73 1.89.64a3.17 3.17 0 0 0 2.1-1.08c.57-.63.95-1.26 1.14-1.87l-.05.9c.06 1.13.66 1.64 1.79 1.54.71-.06 1.64-.52 2.79-1.38l.21-.16c.16.76.55 1.13 1.16 1.08.58-.04.98-.32 1.21-.84a34.57 34.57 0 0 1 2.43-5.97c.27-.48.42-.72.43-.72a63.31 63.31 0 0 0-.39 1.9c.04 1.12.72 1.63 2.02 1.56 1.1-.06 2.2-.63 3.31-1.71.07-.08.11-.2.1-.36 0-.16-.1-.35-.3-.55M2.76 109.35c.05-.28.24-.38.47-.26 1.33.59 2.93 1 3.93.94.84-.05 1.4-.54 1.33-1.16-.17-1.59-7.82-.81-8.45-6.77-.39-3.66 2.11-6.29 6.25-6.61 1.94-.15 4.47.47 6.32 1.49.23.12.34.33.27.47l-1.31 3.94c-.05.28-.23.37-.47.26-1.42-.64-3.07-1.12-4-1.08-.81.03-1.35.49-1.29 1.09.17 1.6 7.88.85 8.51 6.71.38 3.54-2.17 6.18-6.37 6.62-2.29.24-4.77-.21-6.24-1.15-.24-.14-.34-.32-.27-.47l1.31-4ZM39.74 92.71c.27-.03.43.18.38.44-1.23 7.55-1.84 11.02-3.06 18.07a.7.7 0 0 1-.55.48l-4.74.47c-.25.02-.59-.13-.67-.35-1.4-3.58-2.1-5.39-3.5-9.03l-1.46 9.52c-.03.24-.34.46-.58.48l-4.74.47a.7.7 0 0 1-.65-.36c-2.75-6.72-4.12-9.97-6.86-17.09-.11-.24 0-.48.28-.5l6.11-.55c.27-.03.6.17.68.41.97 3.28 1.45 4.79 2.42 7.91.49-3.26.74-4.84 1.23-8.26.05-.29.36-.52.69-.55l3.93-.39c.33-.03.67.13.78.4 1.19 3.26 1.78 4.79 2.96 7.88.28-3.23.41-4.85.69-8.26.03-.26.31-.51.58-.54l6.11-.65ZM55.35 104.98c.22-.02.43.11.45.3l.44 4.04c.02.18-.15.39-.37.41l-12.68 1.29c-.19.02-.4-.17-.48-.35-.76-6.89-1.15-10.3-1.91-17.69-.03-.25.1-.41.34-.43 4.96-.54 7.44-.82 12.41-1.38.25-.03.46.15.48.34l.44 4.17c.03.25-.15.43-.39.46l-7.12.82.23 2.12 5.78-.64c.25-.03.4.15.39.31l.02 3.8c0 .16-.18.37-.43.4l-5.29.57.25 2.25 7.44-.79ZM70.35 103.27c.22-.03.43.11.45.3l.44 4.1c.02.19-.15.4-.37.42-5.07.58-7.61.88-12.68 1.41-.19.02-.41-.17-.48-.35-.76-6.95-1.15-10.49-1.91-17.83-.03-.25.1-.4.34-.43 4.96-.56 7.44-.87 12.41-1.48.25-.03.46.14.48.33l.44 4.16c.03.25-.15.43-.39.46l-7.12.86.23 2.16 5.78-.7c.25-.03.4.15.39.31l.02 3.84c0 .17-.18.38-.43.41l-5.29.63.25 2.28 7.44-.88ZM77.63 88.3c4.77-.58 7.91 1.68 8.32 5.57.41 3.9-2.17 6.83-6.95 7.41l-1.12.14.58 5.4c.02.19-.15.4-.4.43l-4.88.56c-.19.02-.4-.14-.42-.33-.76-7.07-1.15-10.64-1.91-17.94-.02-.22.15-.44.34-.46l6.43-.78Zm1.1 8.11a1.58 1.58 0 0 0 1.44-1.81c-.1-.96-.82-1.53-1.78-1.41l-1.42.18.34 3.22 1.42-.18ZM89.3 100.14c.05-.28.24-.39.47-.28 1.33.55 2.93.92 3.93.84.84-.07 1.4-.59 1.34-1.22-.17-1.61-7.82-.57-8.45-6.51-.39-3.65 2.11-6.42 6.25-6.91 1.94-.23 4.47.27 6.32 1.22.23.11.34.32.27.46l-1.31 4.02c-.05.28-.23.39-.47.28-1.42-.6-3.08-1.01-4-.94-.81.06-1.35.55-1.29 1.15.17 1.6 7.88.52 8.51 6.53.38 3.63-2.17 6.43-6.37 6.93-2.29.28-4.76-.15-6.24-1.07-.24-.14-.34-.32-.27-.46l1.31-4.05ZM115.07 83.92c.25-.03.43.14.42.33l.03 4.08c0 .22-.21.4-.4.42l-4.06.48c.57 5.32.86 8.01 1.43 13.5.02.19-.12.41-.34.43l-4.83.59c-.22.03-.43-.14-.45-.34l-1.43-13.52-4.53.55c-.19.02-.4-.12-.42-.33l-.44-4.07c-.02-.21.15-.43.34-.45 5.87-.68 8.8-1.02 14.67-1.67ZM133.45 100.34c.1.16 0 .37-.21.39l-5.4.6a.62.62 0 0 1-.61-.3l-1.12-2.82-5.13.59-.51 2.99a.65.65 0 0 1-.54.43l-5.4.65c-.22.03-.35-.15-.28-.33 1.7-7.65 2.55-11.4 4.24-18.66.06-.17.34-.38.62-.41l5.56-.58c.27-.03.59.12.69.27 3.23 6.7 4.85 10.04 8.08 17.17ZM122.58 89.5l-.92 5.27 2.94-.34-2.02-4.93ZM150.09 98.6c.16.18.06.33-.16.35l-6.33.66a.75.75 0 0 1-.61-.27 305.46 305.46 0 0 0-4.1-6.48l.72 6.78a.4.4 0 0 1-.37.44l-4.83.53c-.19.02-.4-.15-.42-.35-.76-7.38-1.15-10.82-1.91-17.72a.4.4 0 0 1 .34-.43l4.83-.49c.25-.02.43.14.45.35l.65 5.88c1.05-2.53 1.57-3.79 2.62-6.28.09-.19.35-.35.59-.38l5.97-.6c.22-.02.31.1.23.29-1.79 3.53-2.69 5.29-4.48 8.87 2.73 3.46 4.09 5.18 6.82 8.84ZM163.7 92.7c.22-.02.43.13.45.31.18 1.64.27 2.45.44 4.15.02.19-.15.41-.37.43-5.07.45-7.61.69-12.68 1.2-.19.02-.41-.19-.48-.38-.76-7.39-1.15-10.71-1.91-17.61-.03-.24.1-.38.34-.4l12.41-1.24c.25-.02.46.14.48.33l.44 4c.03.24-.15.42-.39.44l-7.12.68.23 2.09 5.78-.54c.25-.02.4.15.39.31l.02 3.77c0 .16-.18.37-.43.39l-5.29.48.25 2.27c2.98-.27 4.47-.41 7.44-.66ZM167.06 91.6c.05-.28.24-.37.47-.26 1.33.59 2.93 1.02 3.93.98.84-.03 1.4-.52 1.33-1.15-.17-1.6-7.82-.88-8.45-6.69-.39-3.57 2.11-6.2 6.25-6.63 1.94-.2 4.47.32 6.32 1.31.23.11.34.32.27.47l-1.31 4c-.05.28-.23.38-.47.26-1.42-.64-3.07-1.09-4-1.04-.81.04-1.35.51-1.29 1.1.17 1.58 7.88.77 8.51 6.79.38 3.64-2.17 6.26-6.37 6.59-2.29.18-4.77-.36-6.24-1.33-.24-.14-.34-.33-.27-.47l1.31-3.94ZM107.64 32.53H64.77c-1.1 0-1.98-.89-1.98-1.98V1.98c0-1.1.89-1.98 1.98-1.98h42.87c1.1 0 1.98.89 1.98 1.98v28.56c0 1.1-.89 1.98-1.98 1.98"/>
  <path fill="#fff" d="M101.47 7.74c.4 0 .73.33.73.73s-.33.73-.73.73-.73-.33-.73-.73.33-.73.73-.73m0 1.61a.88.88 0 1 0 0-1.76.88.88 0 0 0 0 1.76"/>
  <path fill="#fff" d="M101.37 8.22h.12c.1 0 .13.03.13.08 0 .08-.07.08-.11.08h-.14v-.17Zm0 .35h.14c.1 0 .11.08.12.16 0 .04 0 .09.02.13h.26l-.03-.18c0-.1-.05-.18-.12-.21.09-.03.13-.12.13-.21 0-.16-.13-.24-.27-.24h-.49v.84h.26v-.29ZM100.85 18.03l-14.64 4.21-14.64-4.21c-1.03-.33-.99-1.37-.76-2.05l2.28-6.23c.28-.77.9-1.1 1.32-1.1h23.6c.42 0 1.04.33 1.32 1.1l2.28 6.23c.23.68.27 1.72-.76 2.05m1.42-1.6-2.1-7.22c-.54-1.62-2.14-1.61-2.31-1.61h-23.3c-.17 0-1.77 0-2.31 1.61 0 0-1.89 6.43-2.1 7.22-.22.79 0 1.94 1.07 2.49l15 6.52 15-6.52a2.14 2.14 0 0 0 1.07-2.49"/>
  <path fill="#fff" d="M85.46 13.31h1.48v1.41h-1.48zM96.7 14.5h-.95v-1.61h.95c.44 0 .8.36.8.8s-.36.8-.8.8m-.09-3.02h-2.29v5.55h1.42v-1.1h.87a2.22 2.22 0 0 0 0-4.44M90.55 15.57a1.32 1.32 0 1 1 0-2.64 1.32 1.32 0 0 1 0 2.64m0-4.1a2.77 2.77 0 1 0 0 5.54 2.77 2.77 0 0 0 0-5.54M81.86 15.57a1.32 1.32 0 1 1 0-2.64 1.32 1.32 0 0 1 0 2.64m0-4.1a2.77 2.77 0 1 0 0 5.54 2.77 2.77 0 0 0 0-5.54M76.37 12.93c.46 0 .86.24 1.1.59l.96-1.13a2.77 2.77 0 1 0-.06 3.77l-.96-1.11a1.32 1.32 0 1 1-1.04-2.13"/>
</svg>
