<svg xmlns="http://www.w3.org/2000/svg" width="300.572" height="300.572" viewBox="0 0 300.572 300.572">
  <g id="Layer_2" data-name="Layer 2">
    <g id="Layer_1-2" data-name="Layer 1">
      <circle cx="150.286" cy="150.286" r="150.286" fill="#fff6de"/>
      <path d="M93.1,91.154c22.226,113.011,154.492,95.822,154.492,95.822s1.621.759,2.267,9.117-1.533,8.744-1.533,8.744c-110.364,70.626-209.2-50.369-181.7-109.108l7.617-10.207,9.787-8.013,3,.273c2.08,9.115-1.1,7.691-1.1,7.691Z" fill="#f6bb42"/>
      <path d="M245.773,192.883a4.508,4.508,0,0,1,3.36-2.209,41.633,41.633,0,0,1,.721,5.419,34.665,34.665,0,0,1,.11,3.575,4.521,4.521,0,0,1-4.191-6.785Z" fill="#434a54"/>
      <path d="M99.842,93.436c-4.906,115.073,119.62,128.888,119.62,128.888s1.4,1.12.067,9.393-3.544,8.14-3.544,8.14C92.132,282.627,24.438,141.816,64.95,91.168c0,0,7.147-7.228,9.8-8.137S87.372,55.85,87.372,55.85l24.094,4.916C103.45,72.626,96.923,84.473,97.9,86.809A52.479,52.479,0,0,1,99.842,93.436Z" fill="#ffce54"/>
      <path d="M218.731,235.446a4.477,4.477,0,0,1-1.719-.7,4.519,4.519,0,0,1,3.073-8.231,42.02,42.02,0,0,1-.556,5.2A33.078,33.078,0,0,1,218.731,235.446Z" fill="#434a54"/>
      <path d="M111.465,60.767C103.45,72.627,96.922,84.473,97.9,86.809c-8.591-5.123-23.152-3.777-23.152-3.777,2.658-.906,12.623-27.182,12.623-27.182Z" fill="#f6bb42"/>
      <g opacity="0.2">
        <path d="M74.749,83.031c2.658-.905,12.623-27.181,12.623-27.181l10.756,2.193c-2.993,7.585-8.875,21.894-10.82,22.561-2.66.908-9.8,8.137-9.8,8.137C40.037,135.589,95.135,259.567,201.626,244.068,86.969,271.68,26.032,139.825,64.95,91.168,64.95,91.168,72.1,83.941,74.749,83.031Z" fill="#fff"/>
      </g>
    </g>
  </g>
</svg>
