<svg xmlns="http://www.w3.org/2000/svg" width="100" height="100" viewBox="0 0 100 100">
<rect x="0.5" y="0.5" width="99" height="99" rx="11.5" fill="#fff"/>
<path d="M88,1A11.013,11.013,0,0,1,99,12V88A11.013,11.013,0,0,1,88,99H12A11.013,11.013,0,0,1,1,88V12A11.013,11.013,0,0,1,12,1H88m0-1H12A12.035,12.035,0,0,0,0,12V88a12.035,12.035,0,0,0,12,12H88a12.035,12.035,0,0,0,12-12V12A12.035,12.035,0,0,0,88,0Z"/>
<polygon points="50 46.924 70.256 67.18 77.308 60.128 50 32.82 22.692 60.128 29.744 67.18 50 46.924"/>
</svg>
