<svg xmlns="http://www.w3.org/2000/svg" width="171.446" height="171.449" viewBox="0 0 171.446 171.449">
  <g id="Layer_2" data-name="Layer 2">
    <g id="Layer_1-2" data-name="Layer 1">
      <g>
        <path d="M85.726,0A85.732,85.732,0,0,0,73.191,170.541L170.6,73.6A85.746,85.746,0,0,0,85.726,0Z" fill="#fee187"/>
        <path d="M146.342,146.343a85.6,85.6,0,0,0,24.126-73.565l-35.81-35.81L37.144,134.483l36.05,36.05A85.6,85.6,0,0,0,146.342,146.343Z" fill="#ffc61b"/>
        <path d="M154.8,85.6A68.952,68.952,0,0,1,85.85,154.555L37.582,85.6,85.85,16.648A68.952,68.952,0,0,1,154.8,85.6Z" fill="#d48b07"/>
        <path d="M16.9,85.6A68.952,68.952,0,0,0,85.85,154.555V16.648A68.951,68.951,0,0,0,16.9,85.6Z" fill="#e0a300"/>
        <path d="M85.85,143.373,49.742,85.6,85.85,27.83a57.772,57.772,0,0,1,0,115.543Z" fill="#fee187"/>
        <path d="M28.078,85.6A57.837,57.837,0,0,0,85.85,143.373V27.83A57.837,57.837,0,0,0,28.078,85.6Z" fill="#ffedb5"/>
        <path d="M85.85,135.919,54.4,85.6,85.85,35.284a50.318,50.318,0,0,1,0,100.635Z" fill="#ffedb5"/>
        <path d="M35.532,85.6A50.375,50.375,0,0,0,85.85,135.919V35.284A50.374,50.374,0,0,0,35.532,85.6Z" fill="#fff"/>
        <path d="M92.238,83.711l-2.662-.841V54.065A13.758,13.758,0,0,1,99.585,67.283h7.455A21.221,21.221,0,0,0,89.576,46.427V38.638H82.122v7.789A21.221,21.221,0,0,0,64.659,67.283c0,10.162,5.118,17.15,14.8,20.208l2.661.841v28.8a13.756,13.756,0,0,1-10.009-13.217H64.659a21.22,21.22,0,0,0,17.463,20.855v7.789h7.454v-7.789a21.22,21.22,0,0,0,17.464-20.855C107.04,93.758,101.921,86.77,92.238,83.711ZM81.706,80.384c-6.544-2.067-9.592-6.23-9.592-13.1A13.756,13.756,0,0,1,82.122,54.066V80.515Zm7.871,36.753V90.687l.416.132c6.544,2.067,9.592,6.23,9.592,13.1A13.758,13.758,0,0,1,89.577,117.137Z" fill="#ffc61b"/>
      </g>
    </g>
  </g>
</svg>
