<svg xmlns="http://www.w3.org/2000/svg" width="56" height="56" viewBox="0 0 310 310">
<circle cx="154.79" cy="154.79" r="150.29" fill="#fff" stroke="#4a89dc" stroke-miterlimit="10" stroke-width="9"/>
<path fill="#5d9cec" d="M147.34 138.21l-79.7 79.69a17.87 17.87 0 0025.27 25.27l79.7-79.7z"/>
<polygon fill="#ccd1d9" points="203.46 119.99 190.83 107.36 153.65 144.53 166.29 157.16 203.46 119.99"/>
<g fill="#e6e9ed">
  <path d="M201.05 128.75l-18.95-18.96 18.95-18.95c10.86-10.86-30.82-41.99-31.61-44.23-.53-1.52 87.72 1.91 75.83 63.18l-12.64 12.64s-16.77-8.6-31.58 6.32z"/>
  <polygon points="251.58 154.01 238.95 141.38 264.22 116.11 276.85 128.75 251.58 154.01"/>
</g>
<polygon fill="#ccd1d9" points="245.26 135.06 232.63 122.43 245.26 109.79 257.9 122.43 245.26 135.06"/>
<path fill="#4a89dc" d="M159.96 150.84l-6.31-6.32-76.53 76.53a4.47 4.47 0 106.31 6.32z"/>
</svg>
