<svg xmlns="http://www.w3.org/2000/svg" width="134.398" height="101.46" viewBox="0 0 134.398 101.46">
  <g id="Layer_2" data-name="Layer 2">
    <g id="Layer_1-2" data-name="Layer 1">
      <g>
        <polygon points="37.934 0.414 108.686 0 134.398 32.214 134.398 35.9 74.183 46.451 42.848 4.118 8.656 37.145 0 37.08 37.934 0.414" fill="#c2615f"/>
        <path d="M72.02,49.461l59.123-10.612-.021,41.642L96.552,92.537V65.874L79.316,70.046v28.5l-8.232,2.873v.045L12.15,80.929V37.706L42.583,8.355ZM107.531,76.64l14.649-4.148v-10l-14.649,3.674ZM106.754,60.3l14.716-3.42V46.855L106.754,49.8ZM79.311,66.674l17.237-4.005V51.845L79.311,55.292ZM42.255,79.332,59.967,84.38V72.687L42.255,68.234ZM35.363,49.947,20,46.869V57.218l15.363,3.6Zm.131,16.594L20.113,62.673V73.025l15.381,4.381Zm6.61-4.149,17.707,4.142V54.851L42.1,51.3Z" fill="#6d4646"/>
      </g>
    </g>
  </g>
</svg>
