<svg xmlns="http://www.w3.org/2000/svg" viewBox="0 0 140.98 140.98">
  <g id="Layer_2" data-name="Layer 2">
    <g id="Layer_1-2" data-name="Layer 1">
      <circle cx="70.49" cy="70.49" r="70.49" fill="#b9004a"/>
      <path fill="#fff" d="M76.04 34l7.76 15.72a6.19 6.19 0 004.66 3.39l17.36 2.52a6.19 6.19 0 013.43 10.55L96.69 78.43a6.19 6.19 0 00-1.78 5.47l2.96 17.29a6.19 6.19 0 01-8.97 6.52l-15.53-8.16a6.19 6.19 0 00-5.76 0l-15.52 8.16a6.19 6.19 0 01-8.98-6.52l2.97-17.29a6.19 6.19 0 00-1.78-5.47L31.74 66.18a6.19 6.19 0 013.43-10.55l17.35-2.52a6.19 6.19 0 004.66-3.39L64.94 34a6.19 6.19 0 0111.1 0z"/>
    </g>
  </g>
</svg>
