<svg xmlns="http://www.w3.org/2000/svg" width="90" height="83.127" viewBox="0 0 90 83.127">
  <g id="Group_1110" data-name="Group 1110" transform="translate(-53.67 -555.219)">
    <g id="Group_1123" data-name="Group 1123" transform="translate(53.67 555.219)">
      <g id="Group_1118" data-name="Group 1118" transform="translate(0)">
        <g id="Group_1112" data-name="Group 1112" transform="translate(5.777)">
          <g id="Group_1111" data-name="Group 1111">
            <g id="Group_1110-2" data-name="Group 1110">
              <path id="Path_847" data-name="Path 847" d="M154.185,587.591l-4.5,4.328.253.424a2.881,2.881,0,0,1,.41,1.477,3.139,3.139,0,1,1-3.135-2.989,3.231,3.231,0,0,1,1.354.293l.384.175,4.209-4.046.027-.026V575.388l-20.01-19.23-.026-.025h-45.6L75.609,567.611l-.051.049.257.424a2.88,2.88,0,0,1,.418,1.491,3.139,3.139,0,1,1-3.135-2.989,3.235,3.235,0,0,1,1.337.285l.383.172,12.3-11.825h46.455l20.608,19.8Z" transform="translate(-69.963 -555.219)" fill="#0ca0db"/>
            </g>
          </g>
        </g>
        <g id="Group_1114" data-name="Group 1114" transform="translate(38.625 15.09)">
          <g id="Group_1113" data-name="Group 1113">
            <path id="Path_848" data-name="Path 848" d="M182.261,603.788l-.379.114v4.8L168.564,620.07l.18.37a2.933,2.933,0,0,1,.3,1.3,3.228,3.228,0,1,1-3.224-3.078,3.336,3.336,0,0,1,1.627.421l.322.18L180.7,608.3v-4.4l-.379-.114a3.084,3.084,0,0,1-2.256-2.936,3.228,3.228,0,0,1,6.448,0A3.084,3.084,0,0,1,182.261,603.788Z" transform="translate(-162.596 -597.774)" fill="#bacc33"/>
          </g>
        </g>
        <g id="Group_1115" data-name="Group 1115" transform="translate(0 19.825)">
          <path id="Path_849" data-name="Path 849" d="M67.435,638.712H83.928l.151.465a3.055,3.055,0,0,0,2.945,2.067,2.939,2.939,0,1,0,0-5.872,3.055,3.055,0,0,0-2.945,2.067l-.151.466H67.821l-.041-.04L57.144,627.643V617.016l.49-.139a2.976,2.976,0,0,0,2.2-2.813,3.086,3.086,0,0,0-6.165,0,2.948,2.948,0,0,0,2.109,2.786l.47.149v10.963Z" transform="translate(-53.67 -611.128)" fill="#09a2dd"/>
        </g>
        <g id="Group_1116" data-name="Group 1116" transform="translate(41.036 49.349)">
          <path id="Path_850" data-name="Path 850" d="M173.923,699.947l9.376,9.011v6.087l-.51.128a2.965,2.965,0,0,0-2.293,2.839,3.086,3.086,0,0,0,6.164,0,2.958,2.958,0,0,0-2.016-2.756l-.45-.158v-6.458l-9.535-9.163.348-.476a2.821,2.821,0,0,0,.554-1.677,3.086,3.086,0,1,0-3.083,2.936,3.208,3.208,0,0,0,1.054-.176Z" transform="translate(-169.397 -694.387)" fill="#09a2dd"/>
        </g>
        <g id="Group_1117" data-name="Group 1117" transform="translate(60.434 45.322)">
          <path id="Path_851" data-name="Path 851" d="M247.594,688.776l-.485.141v1.749l-6.449,6.2h-7.568l-5.52,5.3V714.95l.49.139a2.975,2.975,0,0,1,2.2,2.813,3.086,3.086,0,0,1-6.164,0,2.948,2.948,0,0,1,2.108-2.786l.47-.149V701.85l6.028-5.793h7.568l5.941-5.709v-1.439l-.475-.146a2.946,2.946,0,0,1-2.132-2.793,3.086,3.086,0,0,1,6.165,0A2.941,2.941,0,0,1,247.594,688.776Z" transform="translate(-224.099 -683.033)" fill="#09a2dd"/>
        </g>
      </g>
      <g id="Group_1120" data-name="Group 1120" transform="translate(50.2 31.105)">
        <g id="Group_1119" data-name="Group 1119">
          <path id="Path_852" data-name="Path 852" d="M216.594,649.093a3.207,3.207,0,0,1-3.064-2.119l-.123-.359h-2.976l-9.213,8.854.17.348a2.94,2.94,0,0,1,.3,1.3,3.228,3.228,0,1,1-3.224-3.078,3.341,3.341,0,0,1,1.627.421l.344.193,9.5-9.126h3.455l.115-.376a3.225,3.225,0,0,1,3.093-2.21,3.081,3.081,0,1,1,0,6.155Z" transform="translate(-195.24 -642.938)" fill="#bacc33"/>
        </g>
      </g>
      <g id="Group_1122" data-name="Group 1122" transform="translate(13.498 21.327)">
        <g id="Group_1121" data-name="Group 1121">
          <path id="Path_853" data-name="Path 853" d="M111.554,626.582a3.231,3.231,0,0,1-3.032-2.028l-.13-.343H99.7l-3.181-3.057-.318.127a3.332,3.332,0,0,1-1.24.237,3.081,3.081,0,1,1,3.224-3.078,2.967,2.967,0,0,1-.5,1.651l-.248.37,2.767,2.659h8.127l.106-.392a3.2,3.2,0,0,1,3.121-2.3,3.081,3.081,0,1,1,0,6.155Z" transform="translate(-91.736 -615.362)" fill="#bacc33"/>
        </g>
      </g>
    </g>
    <g id="Group_1124" data-name="Group 1124" transform="translate(78.635 561.361)">
      <path id="Path_854" data-name="Path 854" d="M131.171,576.709h30.324l6.889,6.621-.263.457a2.833,2.833,0,0,0-.377,1.408,3.086,3.086,0,1,0,3.082-2.936,3.178,3.178,0,0,0-1.378.31l-.42.2-.071-.068-7.075-6.8H131.227l-.112-.536a3.559,3.559,0,1,0-.093,1.812Z" transform="translate(-124.074 -572.54)" fill="#bacc33"/>
    </g>
  </g>
</svg>
