<svg xmlns="http://www.w3.org/2000/svg" width="227" height="67" viewBox="0 0 227 67">
  <path fill="#a6a6a6" d="M218.92 67H7.95A7.95 7.95 0 010 59.07V7.92A7.95 7.95 0 017.95 0h210.97A8.05 8.05 0 01227 7.92v51.15a8.06 8.06 0 01-8.08 7.93z"/>
  <path d="M225.37 59.07a6.42 6.42 0 01-6.44 6.42H7.95a6.43 6.43 0 01-6.45-6.42V7.91a6.44 6.44 0 016.45-6.42h210.97a6.43 6.43 0 016.45 6.42v51.16z"/>
  <g fill="#fff">
    <path d="M50.66 33.14a9.72 9.72 0 014.64-8.15 9.99 9.99 0 00-7.86-4.23c-3.31-.35-6.52 1.97-8.2 1.97-1.72 0-4.31-1.94-7.11-1.88a10.47 10.47 0 00-8.81 5.35c-3.81 6.57-.97 16.23 2.68 21.54 1.83 2.6 3.96 5.5 6.75 5.4 2.74-.11 3.76-1.73 7.05-1.73 3.27 0 4.23 1.73 7.08 1.67 2.93-.05 4.78-2.62 6.54-5.24a21.31 21.31 0 002.99-6.07 9.39 9.39 0 01-5.75-8.63z"/>
    <path d="M45.28 17.26a9.52 9.52 0 002.19-6.85 9.81 9.81 0 00-6.31 3.26 9.07 9.07 0 00-2.26 6.6 8.12 8.12 0 006.38-3.01z"/>
  </g>
  <g fill="#fff">
    <path fill-rule="evenodd" d="M90.2 52.77h-3.82l-2.09-6.55h-7.27l-1.99 6.55h-3.72l7.21-22.29h4.44zm-8.43-15.12c-.2-.59-.57-1.99-1.13-4.2h-.07c-.22.95-.57 2.35-1.06 4.2l-1.86 5.82h6.01z"/>
    <path fill-rule="evenodd" d="M108.73 44.53a9.1 9.1 0 01-2.23 6.49 6.5 6.5 0 01-4.94 2.11 4.96 4.96 0 01-4.59-2.28h-.06v8.47h-3.59V41.99c0-1.72-.04-3.49-.13-5.29h3.15l.2 2.54h.07a6.4 6.4 0 0110.21-.63 8.87 8.87 0 011.91 5.92zm-3.65.14a6.58 6.58 0 00-1.07-3.87 3.66 3.66 0 00-3.12-1.59 3.71 3.71 0 00-2.4.87 4.1 4.1 0 00-1.41 2.3 4.34 4.34 0 00-.17 1.09v2.68a4.27 4.27 0 001.08 2.96 3.56 3.56 0 002.8 1.21 3.7 3.7 0 003.16-1.55 6.86 6.86 0 001.13-4.1z"/>
    <path fill-rule="evenodd" d="M127.29 44.53a9.15 9.15 0 01-2.23 6.49 6.53 6.53 0 01-4.95 2.11 4.96 4.96 0 01-4.58-2.28h-.06v8.47h-3.59V41.99c0-1.72-.04-3.49-.13-5.29h3.15l.2 2.54h.07a6.4 6.4 0 0110.21-.63 8.87 8.87 0 011.91 5.92zm-3.66.14a6.57 6.57 0 00-1.06-3.87 3.67 3.67 0 00-3.12-1.59 3.74 3.74 0 00-2.41.87 4.1 4.1 0 00-1.41 2.3 4.75 4.75 0 00-.16 1.09v2.68a4.3 4.3 0 001.07 2.96 3.58 3.58 0 002.81 1.21 3.68 3.68 0 003.15-1.55 6.8 6.8 0 001.13-4.1z"/>
    <path d="M148.04 46.52a5.93 5.93 0 01-1.99 4.63 8.85 8.85 0 01-6.1 1.95 10.69 10.69 0 01-5.8-1.39l.83-2.98a9.89 9.89 0 005.19 1.43 4.92 4.92 0 003.15-.91 2.98 2.98 0 001.13-2.44 3.08 3.08 0 00-.93-2.28 8.64 8.64 0 00-3.09-1.73q-5.88-2.17-5.87-6.39a5.63 5.63 0 012.06-4.5 8.14 8.14 0 015.48-1.76 10.94 10.94 0 015.07 1.06l-.89 2.91a8.89 8.89 0 00-4.29-1.02 4.38 4.38 0 00-2.95.92 2.64 2.64 0 00-.89 2.02 2.72 2.72 0 001.02 2.18 11.4 11.4 0 003.26 1.72 11.25 11.25 0 014.25 2.71 5.71 5.71 0 011.36 3.87z"/>
    <path d="M159.89 39.38h-3.95v7.8c0 1.98.69 2.98 2.09 2.98a6.38 6.38 0 001.59-.17l.1 2.71a8 8 0 01-2.79.4 4.32 4.32 0 01-3.32-1.29c-.79-.86-1.19-2.31-1.19-4.34v-8.1h-2.36v-2.68h2.36v-2.94l3.52-1.06v4h3.95z"/>
    <path fill-rule="evenodd" d="M177.72 44.6a8.8 8.8 0 01-2.13 6.09 7.6 7.6 0 01-5.91 2.44 7.25 7.25 0 01-5.66-2.34 8.57 8.57 0 01-2.11-5.92 8.73 8.73 0 012.18-6.12 7.53 7.53 0 015.86-2.38 7.38 7.38 0 015.71 2.35 8.45 8.45 0 012.06 5.88zm-3.72.12a7.25 7.25 0 00-.96-3.82 3.56 3.56 0 00-3.22-1.92 3.6 3.6 0 00-3.29 1.92 7.4 7.4 0 00-.96 3.88 7.25 7.25 0 00.96 3.82 3.63 3.63 0 003.26 1.92 3.59 3.59 0 003.21-1.96 7.13 7.13 0 001-3.84z"/>
    <path d="M189.37 39.84a5.8 5.8 0 00-1.13-.1 3.38 3.38 0 00-2.92 1.42 5.34 5.34 0 00-.9 3.18v8.43h-3.58l.03-11.01c0-1.85-.04-3.54-.13-5.06h3.12l.13 3.07h.1a5.58 5.58 0 011.79-2.54 4.3 4.3 0 012.59-.86 6.08 6.08 0 01.9.06z"/>
    <path fill-rule="evenodd" d="M205.4 43.97a8.28 8.28 0 01-.13 1.62h-10.75a4.64 4.64 0 001.56 3.64 5.33 5.33 0 003.52 1.13 12.11 12.11 0 004.35-.76l.56 2.47a13.4 13.4 0 01-5.41 1 7.89 7.89 0 01-5.9-2.2 8.14 8.14 0 01-2.14-5.9 9.2 9.2 0 012-6.06 6.89 6.89 0 015.64-2.57 6.04 6.04 0 015.28 2.57 8.67 8.67 0 011.42 5.06zm-3.42-.92a4.84 4.84 0 00-.69-2.75 3.15 3.15 0 00-2.86-1.49 3.41 3.41 0 00-2.85 1.46 5.3 5.3 0 00-1.06 2.77h7.46z"/>
  </g>
  <g fill="#fff">
    <path fill-rule="evenodd" d="M82.48 16.77a5.5 5.5 0 01-1.78 4.45 7.1 7.1 0 01-4.68 1.38 23.53 23.53 0 01-2.58-.13V11.69a19.3 19.3 0 013.04-.22 6.53 6.53 0 014.35 1.25 5.03 5.03 0 011.65 4.05zm-1.86.04a4.01 4.01 0 00-1.02-2.94 4.03 4.03 0 00-2.98-1.02 8.2 8.2 0 00-1.42.11v8.19a8.25 8.25 0 001.19.05 4.2 4.2 0 003.13-1.12 4.5 4.5 0 001.1-3.27z"/>
    <path fill-rule="evenodd" d="M92.33 18.49a4.31 4.31 0 01-1.05 2.99 3.73 3.73 0 01-2.9 1.2 3.55 3.55 0 01-2.78-1.15 4.2 4.2 0 01-1.03-2.91 4.29 4.29 0 011.06-3.01 3.72 3.72 0 012.88-1.17 3.63 3.63 0 012.81 1.16 4.16 4.16 0 011.01 2.89zm-1.83.05a3.6 3.6 0 00-.47-1.87 1.75 1.75 0 00-1.58-.95 1.78 1.78 0 00-1.62.95 3.68 3.68 0 00-.47 1.91 3.6 3.6 0 00.47 1.87 1.8 1.8 0 003.18-.02 3.5 3.5 0 00.49-1.89z"/>
    <path d="M105.54 14.6l-2.48 7.9h-1.62l-1.02-3.43a24.38 24.38 0 01-.64-2.55h-.03a19.81 19.81 0 01-.64 2.55l-1.09 3.43h-1.63l-2.34-7.9h1.81l.9 3.76c.22.89.4 1.73.54 2.53h.03c.13-.66.35-1.5.65-2.52l1.13-3.76h1.44l1.07 3.68c.26.9.48 1.77.64 2.6h.05a25.23 25.23 0 01.54-2.6l.96-3.68h1.73z"/>
    <path d="M114.67 22.5h-1.76v-4.52c0-1.4-.53-2.09-1.6-2.09a1.6 1.6 0 00-1.27.57 2.08 2.08 0 00-.49 1.36v4.68h-1.76v-5.64c0-.69-.02-1.44-.06-2.26h1.54l.09 1.24h.05a2.53 2.53 0 01.91-.96 3.03 3.03 0 011.6-.44 2.55 2.55 0 011.84.71 3.48 3.48 0 01.91 2.62v4.73z"/>
    <path d="M119.53 22.5h-1.76V10.98h1.76z"/>
    <path fill-rule="evenodd" d="M129.91 18.49a4.31 4.31 0 01-1.05 2.99 3.73 3.73 0 01-2.9 1.2 3.53 3.53 0 01-2.78-1.15 4.2 4.2 0 01-1.04-2.91 4.3 4.3 0 011.07-3.01 3.72 3.72 0 012.88-1.17 3.65 3.65 0 012.81 1.16 4.16 4.16 0 011.01 2.89zm-1.83.05a3.6 3.6 0 00-.47-1.87 1.75 1.75 0 00-1.58-.95 1.78 1.78 0 00-1.62.95 3.68 3.68 0 00-.47 1.91 3.6 3.6 0 00.47 1.87 1.8 1.8 0 003.18-.02 3.5 3.5 0 00.49-1.89z"/>
    <path fill-rule="evenodd" d="M138.44 22.5h-1.59l-.13-.91h-.05a2.7 2.7 0 01-2.31 1.09 2.39 2.39 0 01-1.81-.72 2.24 2.24 0 01-.62-1.6 2.45 2.45 0 011.21-2.21 6.38 6.38 0 013.42-.75v-.15c0-1.04-.54-1.56-1.64-1.56a3.72 3.72 0 00-2.07.59l-.36-1.15a5.07 5.07 0 012.72-.69q3.1 0 3.11 3.27v2.91a11.64 11.64 0 00.12 1.88zm-1.83-2.71v-1.22c-1.95-.03-2.92.5-2.92 1.59a1.2 1.2 0 00.34.93 1.27 1.27 0 00.86.3 1.8 1.8 0 001.08-.36 1.5 1.5 0 00.61-.94 1.26 1.26 0 00.03-.3z"/>
    <path fill-rule="evenodd" d="M148.45 22.5h-1.56l-.09-1.27h-.05a2.62 2.62 0 01-2.54 1.45 2.97 2.97 0 01-2.38-1.12 4.37 4.37 0 01-.95-2.91 4.53 4.53 0 011.03-3.1 3.16 3.16 0 012.45-1.11 2.38 2.38 0 012.23 1.07h.03v-4.53h1.77v9.39q0 1.15.06 2.13zm-1.83-3.33v-1.32a2.15 2.15 0 00-.05-.55 1.93 1.93 0 00-.63-1.06 1.74 1.74 0 00-1.18-.43 1.81 1.81 0 00-1.55.78 3.3 3.3 0 00-.57 2 3.12 3.12 0 00.54 1.9 1.83 1.83 0 001.55.78 1.72 1.72 0 001.39-.65 2.17 2.17 0 00.5-1.45z"/>
    <path fill-rule="evenodd" d="M163.52 18.49a4.35 4.35 0 01-1.04 2.99 3.75 3.75 0 01-2.91 1.2 3.55 3.55 0 01-2.78-1.15 4.2 4.2 0 01-1.03-2.91 4.25 4.25 0 011.07-3.01 3.7 3.7 0 012.88-1.17 3.63 3.63 0 012.8 1.16 4.16 4.16 0 011.01 2.89zm-1.83.05a3.51 3.51 0 00-.47-1.87 1.74 1.74 0 00-1.58-.95 1.79 1.79 0 00-1.62.95 3.68 3.68 0 00-.47 1.91 3.6 3.6 0 00.47 1.87 1.8 1.8 0 001.6.94 1.77 1.77 0 001.59-.96 3.59 3.59 0 00.48-1.89z"/>
    <path d="M173 22.5h-1.76v-4.52c0-1.4-.54-2.09-1.6-2.09a1.57 1.57 0 00-1.27.57 2.03 2.03 0 00-.49 1.36v4.68h-1.77v-5.64c0-.69-.02-1.44-.06-2.26h1.55l.08 1.24h.05a2.53 2.53 0 01.91-.96 3.03 3.03 0 011.6-.44 2.55 2.55 0 011.84.71 3.48 3.48 0 01.92 2.62v4.73z"/>
    <path d="M184.86 15.92h-1.95v3.83c0 .98.35 1.47 1.03 1.47a3.43 3.43 0 00.79-.08l.04 1.33a4 4 0 01-1.37.19 2.14 2.14 0 01-1.63-.63 3.1 3.1 0 01-.58-2.13v-3.98h-1.16V14.6h1.16v-1.44l1.72-.52v1.96h1.94v1.32z"/>
    <path d="M194.18 22.5h-1.76v-4.49c0-1.41-.53-2.12-1.6-2.12a1.69 1.69 0 00-1.68 1.23 2.25 2.25 0 00-.08.63v4.75h-1.76V10.98h1.76v4.76h.03a2.67 2.67 0 012.39-1.3 2.45 2.45 0 011.81.72 3.61 3.61 0 01.89 2.65v4.69z"/>
    <path fill-rule="evenodd" d="M203.81 18.18a4.28 4.28 0 01-.07.79h-5.28a2.29 2.29 0 00.76 1.79 2.64 2.64 0 001.73.55 5.86 5.86 0 002.14-.37l.28 1.22a6.63 6.63 0 01-2.67.49 3.85 3.85 0 01-2.89-1.08 3.99 3.99 0 01-1.05-2.9 4.51 4.51 0 01.98-2.98 3.37 3.37 0 012.77-1.26 2.95 2.95 0 012.59 1.26 4.23 4.23 0 01.71 2.49zm-1.68-.46a2.35 2.35 0 00-.35-1.34 1.53 1.53 0 00-1.4-.74 1.68 1.68 0 00-1.4.72 2.6 2.6 0 00-.52 1.36z"/>
  </g>
</svg>
