<svg xmlns="http://www.w3.org/2000/svg" width="279" height="60" viewBox="0 0 279 60">
  <defs>
    <linearGradient id="a" x1="252.99" x2="252.99" y1="13.39" y2="43.14" gradientUnits="userSpaceOnUse">
      <stop offset="0" stop-color="#ff8f99"/>
      <stop offset="1" stop-color="#9e98fc"/>
    </linearGradient>
    <linearGradient id="b" x1="261.04" x2="261.04" y1="21.51" y2="40.41" gradientUnits="userSpaceOnUse">
      <stop offset="0" stop-color="#e791b1"/>
      <stop offset="1" stop-color="#7fbffc" stop-opacity=".7"/>
    </linearGradient>
    <linearGradient id="c" x1="-638.86" x2="-638.83" y1="1461.26" y2="1461.26" gradientTransform="matrix(0 474.786 474.786 0 -693644.69 303343.57)" gradientUnits="userSpaceOnUse">
      <stop offset="0" stop-color="#fff"/>
      <stop offset="1" stop-color="#fff" stop-opacity=".95"/>
    </linearGradient>
  </defs>
  <path fill="none" stroke="#8394b0" stroke-dasharray="6 6" stroke-linecap="square" stroke-miterlimit="10" stroke-width="1.2" d="M110.21 29.25H47.78"/>
  <path fill="none" stroke="#8394b0" stroke-dasharray="6 6" stroke-linecap="square" stroke-miterlimit="10" stroke-width="1.2" d="M230.1 29.25h-62.43"/>
  <g id="spotify">
    <path d="M23.93 54.32a23.57 23.57 0 01-9.31-1.9 23.82 23.82 0 01-7.6-5.17 24.27 24.27 0 010-34.15 23.75 23.75 0 0133.82 0 24.27 24.27 0 010 34.15 23.84 23.84 0 01-7.6 5.17 23.58 23.58 0 01-9.3 1.9zm-3.7-16.31a23.65 23.65 0 0112.62 3.35 1.48 1.48 0 002.04-.47l.01-.03a1.51 1.51 0 00-.5-2.07A26.52 26.52 0 0020.27 35a40.68 40.68 0 00-9.09 1.1 1.5 1.5 0 00.33 2.97 1.45 1.45 0 00.34-.04 37.65 37.65 0 018.4-1.02zm-.37-7.11a30 30 0 0115.4 4 1.85 1.85 0 002.55-.6l.02-.02a1.9 1.9 0 00-.62-2.59 29.65 29.65 0 00-8.13-3.41 36.26 36.26 0 00-9.16-1.16 32.7 32.7 0 00-9.58 1.37 1.9 1.9 0 00-1.24 2.35 1.86 1.86 0 002.3 1.26h.03a28.83 28.83 0 018.43-1.2zm.56-7.58c6.86 0 13.3 1.5 17.66 4.12a2.2 2.2 0 001.14.32 2.25 2.25 0 001.92-1.1 2.27 2.27 0 00-.78-3.1c-5.03-3.02-12.3-4.75-19.94-4.75a40.4 40.4 0 00-11.43 1.51 2.26 2.26 0 00.65 4.42 2.18 2.18 0 00.65-.1 35.95 35.95 0 0110.14-1.32z" opacity=".1" style="isolation:isolate"/>
    <path fill="#55d686" d="M23.93 53.62a23.57 23.57 0 01-9.31-1.9 23.82 23.82 0 01-7.6-5.18 24.27 24.27 0 010-34.14 23.75 23.75 0 0133.82 0 24.27 24.27 0 010 34.14 23.84 23.84 0 01-7.6 5.18 23.58 23.58 0 01-9.3 1.9zm-3.7-16.32a23.65 23.65 0 0112.62 3.36 1.48 1.48 0 002.04-.48l.01-.02a1.51 1.51 0 00-.5-2.07 26.52 26.52 0 00-14.14-3.79 40.68 40.68 0 00-9.09 1.1 1.5 1.5 0 00.33 2.97 1.45 1.45 0 00.34-.04 37.65 37.65 0 018.4-1.02zm-.37-7.11a29.99 29.99 0 0115.4 4.01 1.85 1.85 0 002.55-.6l.02-.02a1.9 1.9 0 00-.62-2.59 29.62 29.62 0 00-8.13-3.41 36.26 36.26 0 00-9.16-1.16 32.7 32.7 0 00-9.58 1.37 1.9 1.9 0 00-1.24 2.35 1.86 1.86 0 002.3 1.26h.03a28.8 28.8 0 018.43-1.2zm.57-7.58c6.85 0 13.28 1.5 17.65 4.12a2.2 2.2 0 001.14.32 2.25 2.25 0 001.92-1.1 2.27 2.27 0 00-.78-3.1c-5.03-3.02-12.3-4.75-19.94-4.75a40.36 40.36 0 00-11.43 1.52 2.26 2.26 0 00.65 4.42 2.21 2.21 0 00.65-.1 35.91 35.91 0 0110.14-1.32z"/>
  </g>
  <g id="app_music">
    <path d="M278.92 20.46v-1.73c0-.5 0-.98-.02-1.47a21.44 21.44 0 00-.28-3.19 10.75 10.75 0 00-1-3.03 10.18 10.18 0 00-4.45-4.45 10.74 10.74 0 00-3.03-1 21.2 21.2 0 00-3.2-.28c-.48-.02-.97-.02-1.46-.02h-21.64c-.5 0-.98 0-1.47.02a21.17 21.17 0 00-3.19.28 10.75 10.75 0 00-3.03 1 10.18 10.18 0 00-4.45 4.45 10.75 10.75 0 00-1 3.03 21.3 21.3 0 00-.28 3.2c-.02.48-.02.97-.02 1.46v21.64c0 .49 0 .98.02 1.47a21.3 21.3 0 00.28 3.18 10.76 10.76 0 001 3.03 10.19 10.19 0 004.45 4.46 10.75 10.75 0 003.03 1 21.3 21.3 0 003.2.28l1.46.02h21.64c.49 0 .98 0 1.47-.02a21.32 21.32 0 003.18-.28 10.74 10.74 0 003.03-1 10.2 10.2 0 004.46-4.46 10.76 10.76 0 001-3.03 21.44 21.44 0 00.28-3.18l.02-1.47v-1.74z" opacity=".1"/>
    <path fill="#fff" d="M278.36 19.94v-1.7c0-.47 0-.95-.02-1.43a20.85 20.85 0 00-.27-3.11 10.51 10.51 0 00-.98-2.96 9.96 9.96 0 00-4.35-4.36 10.53 10.53 0 00-2.96-.97 20.85 20.85 0 00-3.12-.27c-.47-.02-.95-.02-1.43-.02H244.1c-.48 0-.96 0-1.44.02a20.87 20.87 0 00-3.11.27 10.53 10.53 0 00-2.96.97 9.96 9.96 0 00-4.35 4.36 10.54 10.54 0 00-.98 2.96 20.85 20.85 0 00-.27 3.11l-.02 1.43V39.4c0 .47 0 .95.02 1.43a20.84 20.84 0 00.27 3.11 10.53 10.53 0 00.98 2.96 9.95 9.95 0 004.35 4.35 10.5 10.5 0 002.96.98 20.74 20.74 0 003.11.27l1.43.02h21.15c.48 0 .96 0 1.43-.02a20.72 20.72 0 003.12-.27 10.5 10.5 0 002.96-.98 9.95 9.95 0 004.35-4.35 10.5 10.5 0 00.97-2.96 20.84 20.84 0 00.28-3.11l.02-1.43v-1.7z"/>
    <path fill="url(#a)" d="M264.47 12.36c-.12 0-1.13.19-1.26.21l-14.08 2.84h-.01a1.96 1.96 0 00-.88.4 1.43 1.43 0 00-.47.91 3.17 3.17 0 00-.03.48v17.63a1.7 1.7 0 01-.32 1.16 1.6 1.6 0 01-1.02.52l-.92.19a16.17 16.17 0 00-2.61.66 4.11 4.11 0 00-1.54.99 3.75 3.75 0 00.19 5.29 3.55 3.55 0 001.7.88 6.3 6.3 0 002.55-.13 5.2 5.2 0 001.65-.6 4.13 4.13 0 001.3-1.2 4.4 4.4 0 00.69-1.64 8.2 8.2 0 00.15-1.74V23.9c0-.82.24-1.03.9-1.2 0 0 11.7-2.36 12.25-2.46.77-.15 1.13.07 1.13.87v10.44a1.74 1.74 0 01-.3 1.18 1.6 1.6 0 01-1.02.52l-.92.19a16.14 16.14 0 00-2.6.66 4.12 4.12 0 00-1.54.99 3.69 3.69 0 00.18 5.29 3.54 3.54 0 001.71.87 6.31 6.31 0 002.55-.13 5.17 5.17 0 001.64-.6 4.14 4.14 0 001.3-1.2 4.4 4.4 0 00.7-1.63 8.1 8.1 0 00.12-1.74V13.6c0-.81-.43-1.31-1.2-1.24z"/>
    <path fill="url(#b)" d="M263.83 21.67v9.9a1.74 1.74 0 01-.28 1.17 1.6 1.6 0 01-1.03.52l-.92.19a16.14 16.14 0 00-2.6.66 4.12 4.12 0 00-1.55.99 3.69 3.69 0 00.19 5.29 3.54 3.54 0 001.71.87 6.31 6.31 0 002.54-.13 5.17 5.17 0 001.65-.6 4.14 4.14 0 001.3-1.2 4.4 4.4 0 00.69-1.63 8.1 8.1 0 00.13-1.74V20.85z"/>
  </g>
  <g id="bttm_logo">
    <circle cx="139.92" cy="30.34" r="29.26" opacity=".1"/>
    <circle cx="139.92" cy="29.26" r="29.26" fill="#007aff"/>
    <path fill="url(#c)" d="M132.46 24.35h1.46a.73.73 0 01.73.73V37.8a.73.73 0 01-.73.72h-1.46a2.18 2.18 0 01-2.17-2.17v-9.84a2.18 2.18 0 012.17-2.17zm3.64 0h2.92a.73.73 0 01.72.73V37.8a.73.73 0 01-.73.72h-2.91a.73.73 0 01-.72-.72V25.08a.73.73 0 01.72-.73zm5.09 0h2.91a.73.73 0 01.72.73V37.8a.73.73 0 01-.72.72h-2.91a.73.73 0 01-.73-.72V25.08a.73.73 0 01.73-.73zm5.09 0h1.47a2.18 2.18 0 012.17 2.17v9.84a2.18 2.18 0 01-2.17 2.17h-1.47a.73.73 0 01-.72-.72V25.08a.73.73 0 01.72-.73z"/>
    <path fill="#2f343c" d="M144.53 20.33h-9.44a1.08 1.08 0 00-.24.02h-.56a1.1 1.1 0 00-1.08 1.09v9.82a1.1 1.1 0 001.08 1.09h1.46a1.1 1.1 0 001.09-1.09v-6.21a.72.72 0 011.45 0v6.21a1.1 1.1 0 001.08 1.09h1.47a1.1 1.1 0 001.08-1.09v-6.21a.72.72 0 111.45 0v6.21a1.1 1.1 0 001.09 1.09h1.46a1.1 1.1 0 001.09-1.09v-9.83a1.1 1.1 0 00-1.09-1.08h-1.14a1.1 1.1 0 00-.24-.03v.01z"/>
    <path fill="#444950" d="M147 21.45v-.01a1.1 1.1 0 00-1.08-1.09h-1.14a1.1 1.1 0 00-.25-.03h-9.44a1.09 1.09 0 00-.24.03h-.56a1.1 1.1 0 00-1.08 1.09v8.22l3.63-2.02v-2.6a.73.73 0 111.45 0v1.8l3.69-2.05a.73.73 0 01.67-.47.62.62 0 01.13.03l4.23-2.35v-.56z"/>
  </g>
</svg>
