<svg xmlns="http://www.w3.org/2000/svg" width="51" height="51" viewBox="0 0 51 51">
  <g id="Layer_1-2">
    <circle cx="25.5" cy="25.5" r="25.5" stroke-width="0"/>
    <g id="Page-1">
      <g id="Dribbble-Light-Preview">
        <g id="icons">
          <path id="youtube-_168_" fill="#f8ef2b" fill-rule="evenodd" stroke-width="0" d="M22.77 29.01v-7.62c2.71 1.27 4.8 2.5 7.28 3.83-2.04 1.13-4.58 2.41-7.28 3.79m15.08-11.42a3.5 3.5 0 0 0-2.11-1.25c-2.49-.47-18.02-.47-20.51 0-.68.13-1.28.44-1.8.91-2.19 2.03-1.5 12.93-.98 14.7.22.76.51 1.32.87 1.68.47.48 1.1.81 1.83.96 2.05.42 12.61.66 20.54.06a3.58 3.58 0 0 0 1.89-.97c2.02-2.02 1.89-13.53.27-16.09"/>
        </g>
      </g>
    </g>
  </g>
</svg>
