<svg xmlns="http://www.w3.org/2000/svg" viewBox="0 0 1000 1000">
<style>
/* <![CDATA[ */

#small_circle {
  animation: small_circle 20s linear infinite;
}

@keyframes small_circle {
  0% {
    transform: translate(500px, 500px) rotate(0deg) translate(-500px, -500px)
  }
  100% {
    transform: translate(500px, 500px) rotate(360deg) translate(-500px, -500px)
  }
}

#big_circle {
  animation: big_circle 20s linear infinite;
}

@keyframes big_circle {
  0% {
    transform: translate(500px, 500px) rotate(0deg) translate(-500px, -500px)
  }
  100% {
    transform: translate(500px, 500px) rotate(-360deg) translate(-500px, -500px)
  }
}

#icn_fb {
  animation: fb_rotate 20s linear infinite;
}

@keyframes fb_rotate {
  0% {
    transform: translate(590.4px, 322px) rotate(0deg) translate(-590.4px, -322px)
  }
  100% {
    transform: translate(590.4px, 322px) rotate(-360deg) translate(-590.4px, -322px)
  }
}

#icn_ms {
  animation: ms_rotate 20s linear infinite;
}

@keyframes ms_rotate {
  0% {
    transform: translate(305px, 454.28px) rotate(0deg) translate(-305px, -454.28px)
  }
  100% {
    transform: translate(305px, 454.28px) rotate(-360deg) translate(-305px, -454.28px)
  }
}

#icn_in {
  animation: in_rotate 20s linear infinite;
}

@keyframes in_rotate {
  0% {
    transform: translate(588.64px, 838.76px) rotate(0deg) translate(-588.64px, -838.76px)
  }
  100% {
    transform: translate(588.64px, 838.76px) rotate(360deg) translate(-588.64px, -838.76px)
  }
}

#icn_wb {
  animation: wb_rotate 20s linear infinite;
}

@keyframes wb_rotate {
  0% {
    transform: translate(831.1px, 386.3px) rotate(0deg) translate(-831.1px, -386.3px)
  }
  100% {
    transform: translate(831.1px, 386.3px) rotate(360deg) translate(-831.1px, -386.3px)
  }
}

#icn_ch {
  animation: ch_rotate 20s linear infinite;
}

@keyframes ch_rotate {
  0% {
    transform: translate(239.59px, 734.14px) rotate(0deg) translate(-239.59px, -734.14px)
  }
  100% {
    transform: translate(239.59px, 734.14px) rotate(360deg) translate(-239.59px, -734.14px)
  }
}

#icn_wp {
  animation: wp_rotate 20s linear infinite;
}

@keyframes wp_rotate {
  0% {
    transform: translate(245.39px, 259.7px) rotate(0deg) translate(-245.39px, -259.7px)
  }
  100% {
    transform: translate(245.39px, 259.7px) rotate(360deg) translate(-245.39px, -259.7px)
  }
}

/* ]]> */
</style>
  <g id="small_circle">
    <circle cx="500" cy="500" r="200" fill="none" stroke="#E7E0E0" stroke-miterlimit="10" stroke-width="3"/>
    <g id="icn_fb">
      <circle cx="590.419" cy="322" r="75" opacity=".01"/>
      <circle cx="590.419" cy="322" r="72" opacity=".01"/>
      <circle cx="590.419" cy="322" r="69" opacity=".01"/>
      <circle cx="590.419" cy="322" r="66" opacity=".01"/>
      <circle cx="590.419" cy="322" r="63" opacity=".01"/>
      <circle cx="590.419" cy="322" r="60" fill="#FFF"/>
      <path fill="#3B5999" d="M601.609 301.348h6.18v-10.764c-1.066-.147-4.733-.477-9.004-.477-19.553 0-14.233 22.143-15.012 25.387h-9.836v12.033h9.833v30.278h12.056V327.53h9.435l1.498-12.033h-10.936c.531-7.966-2.146-14.149 5.786-14.149z"/>
    </g>
    <g id="icn_ms">
      <circle cx="305.087" cy="454.283" r="75" opacity=".01"/>
      <circle cx="305.087" cy="454.283" r="72" opacity=".01"/>
      <circle cx="305.087" cy="454.283" r="69" opacity=".01"/>
      <circle cx="305.087" cy="454.283" r="66" opacity=".01"/>
      <circle cx="305.087" cy="454.283" r="63" opacity=".01"/>
      <circle cx="305.087" cy="454.283" r="60" fill="#FFF"/>
      <path fill="#2196F3" d="M270.107 454.352c0 10.242 5.109 19.38 13.098 25.347v12.413l11.97-6.568a37.84 37.84 0 0010.084 1.362c19.415 0 35.156-14.572 35.156-32.551.003-17.979-15.738-32.554-35.153-32.554s-35.155 14.572-35.155 32.551zm31.447-9.117l9.17 9.548 17.247-9.548-19.218 20.396-8.95-9.545-17.469 9.548 19.22-20.399z"/>
    </g>
  </g>
  <g id="big_circle">
    <circle cx="500" cy="500" r="350" fill="none" stroke="#E7E0E0" stroke-miterlimit="10" stroke-width="3"/>
    <g id="icn_wb">
      <circle cx="831.106" cy="386.332" r="90" opacity=".01"/>
      <circle cx="831.106" cy="386.332" r="86.4" opacity=".01"/>
      <circle cx="831.106" cy="386.332" r="82.8" opacity=".01"/>
      <circle cx="831.106" cy="386.332" r="79.2" opacity=".01"/>
      <circle cx="831.106" cy="386.332" r="75.6" opacity=".01"/>
      <circle cx="831.106" cy="386.332" r="72" fill="#FFF"/>
      <linearGradient id="SVGID_1_" x1="91.15" x2="91.15" y1="560.169" y2="550.392" gradientTransform="matrix(8 0 0 8 101.87 -4055.813)" gradientUnits="userSpaceOnUse">
        <stop offset="0" stop-color="#006df0"/>
        <stop offset="1" stop-color="#00e7f0"/>
      </linearGradient>
      <path fill="url(#SVGID_1_)" d="M870.135 386.428c0-21.599-17.51-39.108-39.108-39.108-1.4 0-2.8.075-4.192.225a36.59 36.59 0 00-3.78.604 39.068 39.068 0 00-21.426 12.495c-14.186 16.287-12.484 40.99 3.803 55.176 15.592 13.582 39.063 12.678 53.565-2.062a39.054 39.054 0 0011.138-27.33zm-12.881 25.375c-.206.212-.418.417-.628.624-.242.239-.485.48-.734.712-.216.202-.439.391-.661.593-.253.224-.504.448-.763.665-.228.19-.46.374-.692.559-.261.209-.521.417-.79.618-.237.179-.478.352-.721.521-.27.193-.541.391-.816.571a30.82 30.82 0 01-.746.488c-.279.18-.56.354-.843.521-.261.153-.51.301-.766.448a39.04 39.04 0 01-1.653.889 37.174 37.174 0 01-1.698.802l-.927.391c-.27.109-.538.219-.81.322-.318.121-.637.235-.958.345-.271.095-.542.19-.817.279-.326.106-.652.202-.984.297-.272.081-.546.162-.821.236-.106.027-.211.05-.317.077a32.344 32.344 0 008.331-13.529 43.777 43.777 0 018.932 3.438c-.044.048-.08.094-.118.133zm-36.44 9.657c-.33-.096-.661-.193-.987-.299a35.642 35.642 0 01-.817-.279 32.11 32.11 0 01-.958-.345 34.712 34.712 0 01-.807-.321l-.932-.391a47.302 47.302 0 01-1.706-.803c-.261-.13-.521-.261-.782-.403a36.053 36.053 0 01-2.489-1.462 35.987 35.987 0 01-.739-.482 33.88 33.88 0 01-.825-.579 29.425 29.425 0 01-1.51-1.145c-.231-.184-.46-.366-.686-.555-.261-.216-.512-.442-.765-.666-.222-.197-.445-.391-.661-.592-.249-.232-.49-.473-.733-.712-.21-.207-.424-.412-.63-.624-.038-.04-.074-.082-.112-.121a43.78 43.78 0 018.932-3.439 32.354 32.354 0 008.331 13.529c-.106-.027-.213-.05-.318-.078-.262-.068-.535-.154-.806-.233zm-17.889-58.308a45.28 45.28 0 009.893 3.937 67.655 67.655 0 00-2.632 18.035h-15.63a36.423 36.423 0 018.369-21.972zm1.874-2.099c.206-.214.42-.418.63-.626.242-.239.484-.478.731-.709.218-.203.442-.399.665-.597.252-.223.502-.446.76-.661.227-.192.46-.375.692-.561.261-.209.521-.417.79-.618.237-.179.478-.352.721-.521.27-.193.541-.391.816-.571.246-.167.495-.329.746-.489.279-.179.559-.355.842-.521a39.44 39.44 0 013.319-1.774c.261-.124.532-.248.8-.365l.927-.391c.27-.111.538-.219.811-.323.315-.12.635-.232.954-.344.272-.095.545-.19.821-.28.325-.104.652-.201.98-.296.275-.08.548-.162.824-.236.106-.027.211-.05.317-.077a32.344 32.344 0 00-8.331 13.529 43.777 43.777 0 01-8.932-3.438c.043-.046.079-.092.117-.131zm36.44-9.657c.33.096.661.193.987.299.275.089.546.184.817.279.321.111.641.224.958.345.271.103.538.211.807.321l.932.391c.266.117.531.238.794.362.304.143.606.289.913.441.261.13.521.261.782.403a36.053 36.053 0 012.489 1.462c.248.158.495.318.739.482.278.188.551.382.824.577.24.171.478.343.714.521.269.202.532.412.797.623.229.183.46.365.686.555.261.216.512.442.765.666.222.197.445.391.661.592.249.232.49.473.733.712.21.207.424.412.63.624.038.04.074.082.112.121a43.78 43.78 0 01-8.932 3.439 32.351 32.351 0 00-8.342-13.527c.106.027.213.05.318.078.272.069.545.155.816.234zm10.628 33.728a67.65 67.65 0 00-2.632-18.035 45.35 45.35 0 009.893-3.937 36.423 36.423 0 018.369 21.972h-15.63zm-22.144-18.288a66.226 66.226 0 01-13.544-1.594c3.076-8.597 7.966-14.419 13.544-15.212v16.806zm-14.363.894a68.695 68.695 0 0014.363 1.713v15.681h-16.93a65.193 65.193 0 012.567-17.394zm14.363 20.002v15.681a68.687 68.687 0 00-14.363 1.713 65.233 65.233 0 01-2.567-17.394h16.93zm0 18.288v16.806c-5.578-.793-10.468-6.615-13.544-15.212a66.226 66.226 0 0113.544-1.594zm2.607 0c4.558.064 9.097.598 13.544 1.594-3.076 8.597-7.966 14.419-13.544 15.212V406.02zm14.363-.894a68.695 68.695 0 00-14.363-1.713v-15.681h16.93a65.193 65.193 0 01-2.567 17.394zm-14.363-20.002v-15.681a68.687 68.687 0 0014.363-1.713 65.233 65.233 0 012.567 17.394h-16.93zm0-18.288V350.03c5.578.793 10.468 6.614 13.544 15.212a66.226 66.226 0 01-13.544 1.594zm-22.144 20.896a67.65 67.65 0 002.632 18.035 45.35 45.35 0 00-9.893 3.937 36.423 36.423 0 01-8.369-21.972h15.63zm39.049 18.035a67.655 67.655 0 002.632-18.035h15.63a36.42 36.42 0 01-8.369 21.972 45.28 45.28 0 00-9.893-3.937z"/>
    </g>
    <g id="icn_ch">
      <circle cx="239.598" cy="734.142" r="90" opacity=".01"/>
      <circle cx="239.598" cy="734.142" r="86.4" opacity=".01"/>
      <circle cx="239.598" cy="734.142" r="82.8" opacity=".01"/>
      <circle cx="239.598" cy="734.142" r="79.2" opacity=".01"/>
      <circle cx="239.598" cy="734.142" r="75.6" opacity=".01"/>
      <circle cx="239.598" cy="734.142" r="72" fill="#FFF"/>
      <g>
        <path fill="#4CAF50" d="M257.254 718.946c-3.823-10.938-15.346-18.283-28.673-18.283-16.514 0-29.947 11.513-29.947 25.669a24.154 24.154 0 0010.562 19.542l-3.535 7.071a1.711 1.711 0 002.395 2.252l9.056-5.178a34.119 34.119 0 007.595 1.739 1.711 1.711 0 001.862-2.091 19.813 19.813 0 01-.554-4.511c0-13.207 13.05-23.957 29.091-23.957l.503.024a1.807 1.807 0 001.417-.708 1.72 1.72 0 00.228-1.569z"/>
        <g fill="#FAFAFA">
          <path d="M217.457 710.931a5.134 5.134 0 100 10.268 5.134 5.134 0 000-10.268z"/>
          <path d="M237.992 710.931a5.134 5.134 0 100 10.268 5.134 5.134 0 000-10.268z"/>
        </g>
        <path fill="#4CAF50" d="M280.773 745.156c0-11.325-11.513-20.535-25.669-20.535-14.155 0-25.669 9.21-25.669 20.535s11.513 20.535 25.669 20.535a31.63 31.63 0 007.872-.999l8.484 4.24a1.711 1.711 0 002.354-2.166l-2.324-5.818a19.302 19.302 0 009.283-15.792z"/>
        <g fill="#FAFAFA">
          <path d="M246.548 734.888a3.422 3.422 0 100 6.844 3.422 3.422 0 000-6.844z"/>
          <path d="M263.66 734.888a3.422 3.422 0 100 6.844 3.422 3.422 0 000-6.844z"/>
        </g>
      </g>
    </g>
    <g id="icn_wp">
      <circle cx="245.398" cy="259.7" r="90" opacity=".01"/>
      <circle cx="245.398" cy="259.7" r="86.4" opacity=".01"/>
      <circle cx="245.398" cy="259.7" r="82.8" opacity=".01"/>
      <circle cx="245.398" cy="259.7" r="79.2" opacity=".01"/>
      <circle cx="245.398" cy="259.7" r="75.6" opacity=".01"/>
      <circle cx="245.398" cy="259.7" r="72" fill="#FFF"/>
      <path fill="#E5E5E5" d="M205.229 302.289a1.785 1.785 0 01-1.723-2.257l5.457-19.928a41.654 41.654 0 01-5.186-20.148c.01-22.943 18.681-41.609 41.622-41.609 11.127.004 21.583 4.339 29.442 12.203 7.857 7.865 12.183 18.32 12.18 29.439-.01 22.944-18.681 41.611-41.621 41.611h-.018a41.714 41.714 0 01-19.259-4.729l-20.441 5.36c-.15.039-.302.058-.453.058z"/>
      <path fill="#FFF" d="M205.229 300.503l5.651-20.637a39.757 39.757 0 01-5.317-19.91c.009-21.958 17.878-39.823 39.836-39.823 10.655.004 20.657 4.152 28.178 11.679 7.521 7.528 11.661 17.534 11.657 28.176-.01 21.958-17.881 39.825-39.835 39.825-.001 0 .001 0 0 0h-.017a39.808 39.808 0 01-19.035-4.848l-21.118 5.538zm22.096-12.747l1.21.717a33.067 33.067 0 0016.852 4.615h.013c18.248 0 33.101-14.85 33.109-33.102.003-8.845-3.437-17.162-9.688-23.419-6.252-6.256-14.564-9.704-23.408-9.708-18.263 0-33.115 14.848-33.122 33.099a33.01 33.01 0 005.062 17.616l.788 1.253-3.346 12.214 12.53-3.285z"/>
      <path fill="#64B161" d="M206.615 299.113l5.456-19.923a38.373 38.373 0 01-5.134-19.221c.008-21.198 17.26-38.444 38.456-38.444 10.288.004 19.944 4.008 27.203 11.275 7.261 7.267 11.257 16.926 11.254 27.199-.009 21.199-17.261 38.447-38.454 38.447-.002 0 .001 0 0 0h-.017a38.454 38.454 0 01-18.376-4.679l-20.388 5.346z"/>
      <path fill="#FFF" d="M205.229 300.503l5.651-20.637a39.757 39.757 0 01-5.317-19.91c.009-21.958 17.878-39.823 39.836-39.823 10.655.004 20.657 4.152 28.178 11.679 7.521 7.528 11.661 17.534 11.657 28.176-.01 21.958-17.881 39.825-39.835 39.825-.001 0 .001 0 0 0h-.017a39.808 39.808 0 01-19.035-4.848l-21.118 5.538zm22.096-12.747l1.21.717a33.067 33.067 0 0016.852 4.615h.013c18.248 0 33.101-14.85 33.109-33.102.003-8.845-3.437-17.162-9.688-23.419-6.252-6.256-14.564-9.704-23.408-9.708-18.263 0-33.115 14.848-33.122 33.099a33.01 33.01 0 005.062 17.616l.788 1.253-3.346 12.214 12.53-3.285z"/>
      <path fill="#FFF" fill-rule="evenodd" d="M235.443 243.308c-.745-1.657-1.531-1.691-2.24-1.72-.58-.025-1.244-.024-1.907-.024s-1.742.25-2.654 1.246c-.913.996-3.485 3.404-3.485 8.301 0 4.898 3.567 9.63 4.065 10.295.498.664 6.886 11.035 17.003 15.025 8.408 3.316 10.119 2.656 11.944 2.491 1.825-.166 5.889-2.408 6.718-4.732.83-2.324.83-4.316.581-4.733-.249-.414-.913-.663-1.908-1.161-.995-.498-5.889-2.906-6.801-3.238-.913-.332-1.576-.498-2.24.499-.664.995-2.57 3.237-3.151 3.9-.581.665-1.162.749-2.157.25-.995-.499-4.201-1.549-8.004-4.94-2.959-2.638-4.957-5.896-5.538-6.893-.58-.995-.01-1.487.437-2.031.805-.979 2.156-2.74 2.487-3.403.332-.665.166-1.246-.083-1.744-.247-.497-2.182-5.42-3.067-7.388z" clip-rule="evenodd"/>
    </g>
    <g id="icn_in">
      <circle cx="588.641" cy="838.763" r="90" opacity=".01"/>
      <circle cx="588.641" cy="838.763" r="86.4" opacity=".01"/>
      <circle cx="588.641" cy="838.763" r="82.8" opacity=".01"/>
      <circle cx="588.641" cy="838.763" r="79.2" opacity=".01"/>
      <circle cx="588.641" cy="838.763" r="75.6" opacity=".01"/>
      <circle cx="588.641" cy="838.763" r="72" fill="#FFF"/>
      <g>
        <linearGradient id="SVGID_2_" x1="588.711" x2="588.711" y1="1402.567" y2="1328.345" gradientTransform="translate(0 -526)" gradientUnits="userSpaceOnUse">
          <stop offset="0" stop-color="#e09b3d"/>
          <stop offset=".3" stop-color="#c74c4d"/>
          <stop offset=".6" stop-color="#c21975"/>
          <stop offset="1" stop-color="#7024c4"/>
        </linearGradient>
        <path fill="url(#SVGID_2_)" d="M603.873 801.762H573.55c-12.324 0-22.35 10.026-22.35 22.35v30.323c0 12.324 10.026 22.35 22.35 22.35h30.323c12.324 0 22.35-10.026 22.35-22.35v-30.323c-.001-12.324-10.027-22.35-22.35-22.35zm14.802 52.674c0 8.175-6.627 14.802-14.802 14.802H573.55c-8.175 0-14.802-6.627-14.802-14.802v-30.323c0-8.175 6.627-14.802 14.802-14.802h30.323c8.175 0 14.802 6.627 14.802 14.802v30.323z"/>
        <linearGradient id="SVGID_3_" x1="588.711" x2="588.711" y1="1402.567" y2="1328.345" gradientTransform="translate(0 -526)" gradientUnits="userSpaceOnUse">
          <stop offset="0" stop-color="#e09b3d"/>
          <stop offset=".3" stop-color="#c74c4d"/>
          <stop offset=".6" stop-color="#c21975"/>
          <stop offset="1" stop-color="#7024c4"/>
        </linearGradient>
        <path fill="url(#SVGID_3_)" d="M588.711 819.87c-10.699 0-19.404 8.704-19.404 19.404 0 10.699 8.704 19.404 19.404 19.404s19.404-8.704 19.404-19.404c0-10.699-8.705-19.404-19.404-19.404zm0 31.26c-6.548 0-11.856-5.308-11.856-11.856s5.308-11.856 11.856-11.856 11.856 5.308 11.856 11.856-5.308 11.856-11.856 11.856z"/>
        <linearGradient id="SVGID_4_" x1="608.152" x2="608.152" y1="1402.567" y2="1328.345" gradientTransform="translate(0 -526)" gradientUnits="userSpaceOnUse">
          <stop offset="0" stop-color="#e09b3d"/>
          <stop offset=".3" stop-color="#c74c4d"/>
          <stop offset=".6" stop-color="#c21975"/>
          <stop offset="1" stop-color="#7024c4"/>
        </linearGradient>
        <circle cx="608.152" cy="820.016" r="4.65" fill="url(#SVGID_4_)"/>
      </g>
    </g>
  </g>
  <g id="logo">
    <circle cx="500" cy="500" r="79.753" fill="#001529"/>
    <path fill="#FFF" d="M531.424 460.163h-66.881c-2.386 0-4.375 1.988-4.375 4.375v11.202c0 2.386 1.989 4.375 4.375 4.375h29.563c3.115 0 4.971 3.513 3.182 6.032l-32.413 46.863c-1.989 2.917.066 6.827 3.579 6.827h67.013c2.386 0 4.375-1.989 4.375-4.375V524.26c0-2.386-1.989-4.375-4.375-4.375h-30.225c-3.115 0-4.971-3.513-3.182-6.098l32.877-46.797c2.121-2.783.066-6.827-3.513-6.827"/>
  </g>
</svg>
