<svg xmlns="http://www.w3.org/2000/svg" viewBox="0 0 900 900">

<style>
/* <![CDATA[ */

#small_circle {
  animation: small_circle 10s linear infinite;
}

@keyframes small_circle {
  0% {
    transform: translate(450px, 450px) rotate(0deg) translate(-450px, -450px)
  }
  100% {
    transform: translate(450px, 450px) rotate(-360deg) translate(-450px, -450px)
  }
}

#big_circle {
  animation: big_circle 10s linear infinite;
}

@keyframes big_circle {
  0% {
    transform: translate(450px, 450px) rotate(0deg) translate(-450px, -450px)
  }
  100% {
    transform: translate(450px, 450px) rotate(360deg) translate(-450px, -450px)
  }
}

#icn_fb {
  animation: fb_rotate 10s linear infinite;
}

@keyframes fb_rotate {
  0% {
    transform: translate(450px, 250px) rotate(0deg) translate(-450px, -250px)
  }
  100% {
    transform: translate(450px, 250px) rotate(360deg) translate(-450px, -250px)
  }
}

#icn_ms {
  animation: ms_rotate 10s linear infinite;
}

@keyframes ms_rotate {
  0% {
    transform: translate(623.2px, 550px) rotate(0deg) translate(-623.2px, -550px)
  }
  100% {
    transform: translate(623.2px, 550px) rotate(360deg) translate(-623.2px, -550px)
  }
}

#icn_in {
  animation: in_rotate 10s linear infinite;
}

@keyframes in_rotate {
  0% {
    transform: translate(276.7px, 550px) rotate(0deg) translate(-276.7px, -550px)
  }
  100% {
    transform: translate(276.7px, 550px) rotate(360deg) translate(-276.7px, -550px)
  }
}

#icn_wb {
  animation: wb_rotate 10s linear infinite;
}

@keyframes wb_rotate {
  0% {
    transform: translate(753.2px, 274px) rotate(0deg) translate(-753.2px, -274px)
  }
  100% {
    transform: translate(753.2px, 274px) rotate(-360deg) translate(-753.2px, -274px)
  }
}

#icn_ch {
  animation: ch_rotate 10s linear infinite;
}

@keyframes ch_rotate {
  0% {
    transform: translate(450px, 800px) rotate(0deg) translate(-450px, -800px)
  }
  100% {
    transform: translate(450px, 800px) rotate(-360deg) translate(-450px, -800px)
  }
}

#icn_wp {
  animation: wp_rotate 10s linear infinite;
}

@keyframes wp_rotate {
  0% {
    transform: translate(146.8px, 275px) rotate(0deg) translate(-146.8px, -275px)
  }
  100% {
    transform: translate(146.8px, 275px) rotate(-360deg) translate(-146.8px, -275px)
  }
}

/* ]]> */
</style>

<path fill="#001529" d="M497.405 389.9h-100.9c-3.6 0-6.6 3-6.6 6.6v16.9c0 3.6 3 6.6 6.6 6.6h44.6c4.7 0 7.5 5.3 4.8 9.1l-48.9 70.7c-3 4.4.1 10.3 5.4 10.3h101.1c3.6 0 6.6-3 6.6-6.6v-16.9c0-3.6-3-6.6-6.6-6.6h-45.6c-4.7 0-7.5-5.3-4.8-9.2l49.6-70.6c3.2-4.2.1-10.3-5.3-10.3"/>
<g id="small_circle">
  <circle cx="450" cy="450" r="200" fill="none" stroke="#211558" opacity=".5" stroke-miterlimit="10"/>
  <g id="icn_fb">
    <circle cx="450" cy="250" r="80" opacity=".01"/>
    <circle cx="450" cy="250" r="76.8" opacity=".01"/>
    <circle cx="450" cy="250" r="73.6" opacity=".01"/>
    <circle cx="450" cy="250" r="70.4" opacity=".01"/>
    <circle cx="450" cy="250" r="67.2" opacity=".01"/>
    <circle cx="450" cy="250" r="64" fill="#FFF"/>
    <path fill="#3C5A9A" d="M455.906 290.769v-35.172h11.806l1.768-13.707h-13.574v-8.752c0-3.968 1.102-6.673 6.793-6.673l7.259-.003v-12.26c-1.256-.166-5.564-.54-10.577-.54-10.465 0-17.63 6.388-17.63 18.119v10.109h-11.837v13.707h11.836v35.172h14.156z"/>
  </g>
  <g id="icn_ms">
    <circle cx="623.232" cy="549.986" r="80" opacity=".01"/>
    <circle cx="623.232" cy="549.986" r="76.8" opacity=".01"/>
    <circle cx="623.232" cy="549.986" r="73.6" opacity=".01"/>
    <circle cx="623.232" cy="549.986" r="70.4" opacity=".01"/>
    <circle cx="623.232" cy="549.986" r="67.2" opacity=".01"/>
    <circle cx="623.232" cy="549.986" r="64" fill="#FFF"/>
    <radialGradient id="SVGID_1_" cx="102.975" cy="271.235" r=".033" gradientTransform="matrix(2479.8511 0 0 2479.8464 -254760.234 -672031.25)" gradientUnits="userSpaceOnUse">
      <stop offset="0" stop-color="#09f"/>
      <stop offset=".61" stop-color="#a033ff"/>
      <stop offset=".935" stop-color="#ff5280"/>
      <stop offset="1" stop-color="#ff7061"/>
    </radialGradient>
    <path fill="url(#SVGID_1_)" d="M624.513 514.284c-21.165 0-37.576 15.509-37.576 36.449 0 10.953 4.49 20.422 11.799 26.961a2.969 2.969 0 011.005 2.142l.207 6.689c.066 2.132 2.264 3.523 4.218 2.659l7.459-3.288a3.014 3.014 0 012.01-.15 41.123 41.123 0 0010.878 1.447c21.165 0 37.576-15.51 37.576-36.449 0-20.941-16.411-36.46-37.576-36.46z"/>
    <path fill="#FFF" d="M601.949 561.395l11.038-17.51c1.757-2.79 5.514-3.476 8.154-1.503l8.783 6.585a2.256 2.256 0 002.715-.009l11.855-8.999c1.578-1.202 3.645.695 2.593 2.377l-11.047 17.501c-1.757 2.79-5.514 3.476-8.154 1.503l-8.783-6.585a2.256 2.256 0 00-2.715.009l-11.855 8.999c-1.579 1.202-3.646-.686-2.584-2.368z"/>
  </g>
  <g id="icn_in">
    <circle cx="276.726" cy="549.809" r="80" opacity=".01"/>
    <circle cx="276.726" cy="549.809" r="76.8" opacity=".01"/>
    <circle cx="276.726" cy="549.809" r="73.6" opacity=".01"/>
    <circle cx="276.726" cy="549.809" r="70.4" opacity=".01"/>
    <circle cx="276.726" cy="549.809" r="67.2" opacity=".01"/>
    <circle cx="276.726" cy="549.809" r="64" fill="#FFF"/>
    <radialGradient id="SVGID_2_" cx="248.062" cy="500.183" r="80.834" gradientTransform="matrix(1.0001 0 0 -1.0001 0 1082.096)" gradientUnits="userSpaceOnUse">
      <stop offset=".09" stop-color="#fa8f21"/>
      <stop offset=".78" stop-color="#d82d7e"/>
    </radialGradient>
    <path fill="url(#SVGID_2_)" d="M260.109 583.038c-3.787-.172-5.844-.802-7.212-1.336-1.813-.706-3.105-1.546-4.466-2.905-1.361-1.359-2.203-2.651-2.905-4.464-.534-1.368-1.164-3.425-1.336-7.212-.189-4.093-.227-5.321-.227-15.692 0-10.37.042-11.596.225-15.694.172-3.787.806-5.84 1.336-7.212.706-1.813 1.548-3.105 2.905-4.468 1.359-1.359 2.651-2.203 4.466-2.905 1.368-.534 3.425-1.164 7.212-1.336 4.095-.187 5.325-.225 15.692-.225 10.37 0 11.597.042 15.694.225 3.787.172 5.84.806 7.212 1.336 1.813.702 3.105 1.546 4.466 2.905 1.361 1.359 2.199 2.653 2.905 4.466.534 1.368 1.164 3.425 1.336 7.212.187 4.097.225 5.323.225 15.694 0 10.367-.038 11.597-.225 15.694-.172 3.787-.806 5.844-1.336 7.212-.706 1.813-1.546 3.105-2.905 4.464-1.359 1.359-2.653 2.199-4.466 2.905-1.368.534-3.425 1.164-7.212 1.336-4.093.187-5.323.225-15.694.225-10.367 0-11.597-.036-15.69-.225"/>
    <radialGradient id="SVGID_3_" cx="288.042" cy="502.228" r="71.135" gradientTransform="matrix(1.0001 0 0 -1.0001 0 1082.096)" gradientUnits="userSpaceOnUse">
      <stop offset=".64" stop-color="#8c3aaa" stop-opacity="0"/>
      <stop offset="1" stop-color="#8c3aaa"/>
    </radialGradient>
    <path fill="url(#SVGID_3_)" d="M260.109 583.038c-3.787-.172-5.844-.802-7.212-1.336-1.813-.706-3.105-1.546-4.466-2.905-1.361-1.359-2.203-2.651-2.905-4.464-.534-1.368-1.164-3.425-1.336-7.212-.189-4.093-.227-5.321-.227-15.692 0-10.37.042-11.596.225-15.694.172-3.787.806-5.84 1.336-7.212.706-1.813 1.548-3.105 2.905-4.468 1.359-1.359 2.651-2.203 4.466-2.905 1.368-.534 3.425-1.164 7.212-1.336 4.095-.187 5.325-.225 15.692-.225 10.37 0 11.597.042 15.694.225 3.787.172 5.84.806 7.212 1.336 1.813.702 3.105 1.546 4.466 2.905 1.361 1.359 2.199 2.653 2.905 4.466.534 1.368 1.164 3.425 1.336 7.212.187 4.097.225 5.323.225 15.694 0 10.367-.038 11.597-.225 15.694-.172 3.787-.806 5.844-1.336 7.212-.706 1.813-1.546 3.105-2.905 4.464-1.359 1.359-2.653 2.199-4.466 2.905-1.368.534-3.425 1.164-7.212 1.336-4.093.187-5.323.225-15.694.225-10.367 0-11.597-.036-15.69-.225"/>
    <path fill="#FFF" d="M267.982 551.563a7.885 7.885 0 1115.77 0 7.886 7.886 0 11-15.77 0m-4.263 0c0 6.708 5.438 12.146 12.146 12.146s12.146-5.438 12.146-12.146-5.438-12.146-12.146-12.146-12.145 5.437-12.146 12.146m21.936-12.628a2.839 2.839 0 102.84-2.837h-.001a2.838 2.838 0 00-2.839 2.837m-19.346 31.882c-2.306-.105-3.56-.489-4.393-.814-1.104-.43-1.892-.942-2.721-1.769s-1.341-1.615-1.769-2.719c-.325-.833-.709-2.086-.814-4.393-.115-2.493-.138-3.242-.138-9.559s.025-7.064.138-9.559c.105-2.306.492-3.558.814-4.393.43-1.104.942-1.892 1.769-2.721s1.615-1.341 2.721-1.769c.833-.325 2.087-.709 4.393-.814 2.493-.115 3.242-.138 9.557-.138 6.314 0 7.064.024 9.559.138 2.306.105 3.558.492 4.393.814 1.104.428 1.892.942 2.721 1.769s1.339 1.616 1.769 2.721c.325.833.709 2.087.814 4.393.115 2.495.138 3.242.138 9.559 0 6.317-.023 7.064-.138 9.559-.105 2.306-.491 3.56-.814 4.393-.43 1.104-.942 1.892-1.769 2.719s-1.616 1.339-2.721 1.769c-.833.325-2.087.709-4.393.814-2.493.115-3.242.138-9.559.138-6.317 0-7.064-.023-9.557-.138m-.196-42.766c-2.518.115-4.239.514-5.742 1.099-1.555.604-2.874 1.414-4.19 2.728s-2.125 2.633-2.728 4.19c-.585 1.504-.984 3.223-1.099 5.742-.117 2.522-.143 3.328-.143 9.752s.027 7.23.143 9.752c.115 2.518.514 4.238 1.099 5.742.604 1.555 1.412 2.876 2.728 4.19s2.633 2.123 4.19 2.728c1.506.585 3.223.984 5.742 1.099 2.523.115 3.329.143 9.752.143s7.23-.027 9.752-.143c2.518-.115 4.238-.514 5.742-1.099 1.555-.606 2.874-1.414 4.19-2.728s2.123-2.635 2.728-4.19c.585-1.504.986-3.224 1.099-5.742.115-2.524.141-3.328.141-9.752s-.027-7.23-.141-9.752c-.115-2.518-.514-4.239-1.099-5.742-.606-1.555-1.414-2.874-2.728-4.19s-2.635-2.125-4.188-2.728c-1.506-.585-3.225-.986-5.742-1.099-2.523-.115-3.329-.143-9.751-.143s-7.23.027-9.755.143"/>
  </g>
</g>
<g id="big_circle">
  <circle cx="450" cy="450" r="350" fill="none" stroke="#211558" opacity=".5" stroke-miterlimit="10"/>
  <g id="icn_wb">
    <circle cx="753.185" cy="274.95" r="80" opacity=".01"/>
    <circle cx="753.185" cy="274.95" r="76.8" opacity=".01"/>
    <circle cx="753.185" cy="274.95" r="73.6" opacity=".01"/>
    <circle cx="753.185" cy="274.95" r="70.4" opacity=".01"/>
    <circle cx="753.185" cy="274.95" r="67.2" opacity=".01"/>
    <circle cx="753.185" cy="274.95" r="64" fill="#FFF"/>
    <g>
      <path d="M777.782 243.95h-49.518a4.957 4.957 0 00-4.952 4.952v49.518a4.958 4.958 0 004.952 4.952h49.518a4.958 4.958 0 004.952-4.952v-49.518a4.957 4.957 0 00-4.952-4.952zm2.971 54.47a2.97 2.97 0 01-2.971 2.971h-49.518a2.97 2.97 0 01-2.971-2.971v-44.566h55.46v44.566zm0-46.547h-55.46v-2.971a2.97 2.97 0 012.971-2.971h49.518a2.97 2.97 0 012.971 2.971v2.971z"/>
      <path d="M730.245 247.911h-.99a.99.99 0 100 1.98h.99a.99.99 0 100-1.98z"/>
      <path d="M734.583 247.991a.908.908 0 00-.753 0c-.12.05-.231.121-.327.208a1.004 1.004 0 000 1.406c.096.087.207.158.327.208.24.106.513.106.753 0 .12-.05.23-.121.327-.208a1.004 1.004 0 000-1.406 1.136 1.136 0 00-.327-.208z"/>
      <path d="M738.547 247.981a.992.992 0 00-1.083.217 1.144 1.144 0 00-.208.327.931.931 0 000 .753c.05.12.121.23.208.327a1.004 1.004 0 001.406 0c.087-.096.158-.207.208-.327a.829.829 0 00.079-.376.99.99 0 00-.61-.921z"/>
      <path d="M776.792 247.911H743.12a.99.99 0 100 1.98h33.672a.99.99 0 100-1.98z"/>
      <path d="M738.517 291.111a.939.939 0 00.147.11 19.72 19.72 0 0028.734-.008.973.973 0 00.139-.099.917.917 0 00.085-.145c6.95-7.539 6.95-19.149 0-26.688l-.004-.002a1 1 0 00-.085-.145.894.894 0 00-.148-.111 19.719 19.719 0 00-28.72 0 .937.937 0 00-.148.111.917.917 0 00-.085.145c-6.95 7.539-6.95 19.149 0 26.688.024.05.053.098.085.144zm19.908 3.493a18.197 18.197 0 003.372-6.239v-.003a18.142 18.142 0 013.499 2.153 17.827 17.827 0 01-6.871 4.089zm8.238-5.528a20.087 20.087 0 00-4.304-2.639 35.292 35.292 0 001.037-7.824h7.403a17.732 17.732 0 01-4.136 10.463zm4.136-12.444h-7.403a35.3 35.3 0 00-1.037-7.824 20.119 20.119 0 004.304-2.637 17.72 17.72 0 014.136 10.461zm-5.502-11.905a18.142 18.142 0 01-3.499 2.153 18.21 18.21 0 00-3.372-6.242 17.83 17.83 0 016.871 4.089zm-11.284-4.793c2.427.636 4.574 3.554 5.927 7.686a21.024 21.024 0 01-5.927 1.128v-8.814zm0 10.796a22.942 22.942 0 006.473-1.188c.562 2.323.874 4.7.93 7.09h-7.403v-5.902zm0 7.883h7.403a33.543 33.543 0 01-.93 7.088 22.87 22.87 0 00-6.473-1.186v-5.902zm0 7.883c2.02.089 4.016.47 5.927 1.129-1.353 4.132-3.5 7.05-5.927 7.686v-8.815zm-13.264 4.016a18.114 18.114 0 013.499-2.147v-.003a18.197 18.197 0 003.372 6.239 17.842 17.842 0 01-6.871-4.089zm11.284 4.798c-2.427-.636-4.574-3.554-5.927-7.686a21.024 21.024 0 015.927-1.128v8.814zm0-10.796a22.942 22.942 0 00-6.473 1.188 33.489 33.489 0 01-.93-7.09h7.403v5.902zm0-7.882h-7.403c.057-2.389.368-4.765.93-7.088a22.87 22.87 0 006.473 1.186v5.902zm0-16.699v8.815a21.019 21.019 0 01-5.927-1.129c1.352-4.131 3.499-7.05 5.927-7.686zm-4.412.701a18.19 18.19 0 00-3.372 6.245v-.003a18.142 18.142 0 01-3.499-2.153 17.84 17.84 0 016.871-4.089zm-8.238 5.535a20.087 20.087 0 004.304 2.639 35.292 35.292 0 00-1.037 7.824h-7.403a17.727 17.727 0 014.136-10.463zm3.267 12.444a35.3 35.3 0 001.037 7.824 20.119 20.119 0 00-4.304 2.637 17.732 17.732 0 01-4.136-10.461h7.403z"/>
    </g>
  </g>
  <g id="icn_ch">
    <circle cx="450" cy="800" r="80" opacity=".01"/>
    <circle cx="450" cy="800" r="76.8" opacity=".01"/>
    <circle cx="450" cy="800" r="73.6" opacity=".01"/>
    <circle cx="450" cy="800" r="70.4" opacity=".01"/>
    <circle cx="450" cy="800" r="67.2" opacity=".01"/>
    <circle cx="450" cy="800" r="64" fill="#FFF"/>
    <path fill="#00D2B4" d="M488.643 809.781c0-10.143-9.81-18.416-21.888-18.416-12.079 0-21.821 8.273-21.821 18.416s9.81 18.416 21.888 18.416c2.336 0 4.538-.266 6.606-.867a3.014 3.014 0 011.869.202l5.406 2.935c.333.201.8-.134.666-.534l-1.069-4.337c-.134-.666.067-1.335.666-1.735 4.675-3.403 7.677-8.409 7.677-14.08zm-29.695-2.401c-1.668 0-3.002-1.335-3.002-3.002s1.335-3.002 3.002-3.002 3.002 1.335 3.002 3.002-1.334 3.002-3.002 3.002zm14.748 0c-1.668 0-3.002-1.335-3.002-3.002s1.335-3.002 3.002-3.002c1.668 0 3.002 1.335 3.002 3.002s-1.401 3.002-3.002 3.002z"/>
    <path fill="#00D2B4" d="M443.134 809.848c0-11.276 10.677-20.419 23.889-20.419h1.002c-2.138-10.21-12.946-18.016-25.959-18.016-14.614 0-26.424 9.742-26.424 21.821 0 6.673 3.671 12.677 9.41 16.681.4.266.534.733.467 1.2l-2 7.073c-.134.467.4.935.867.666l7.806-4.67a1.997 1.997 0 011.735-.201c2.602.666 5.338 1.069 8.142 1.069.602 0 1.2 0 1.869-.067a16.736 16.736 0 01-.804-5.137zm7.807-26.891c1.936 0 3.537 1.6 3.537 3.537s-1.6 3.537-3.537 3.537-3.537-1.6-3.537-3.537 1.603-3.537 3.537-3.537zm-17.751 7.073c-1.936 0-3.537-1.6-3.537-3.537s1.6-3.537 3.537-3.537 3.537 1.6 3.537 3.537-1.533 3.537-3.537 3.537z"/>
  </g>
  <g id="icn_wp">
    <circle cx="146.815" cy="274.95" r="80" opacity=".01"/>
    <circle cx="146.815" cy="274.95" r="76.8" opacity=".01"/>
    <circle cx="146.815" cy="274.95" r="73.6" opacity=".01"/>
    <circle cx="146.815" cy="274.95" r="70.4" opacity=".01"/>
    <circle cx="146.815" cy="274.95" r="67.2" opacity=".01"/>
    <circle cx="146.815" cy="274.95" r="64" fill="#FFF"/>
    <path fill="#E0E0E0" d="M173.175 249.408c-6.949-6.953-16.188-10.785-26.032-10.789-20.285 0-36.793 16.503-36.802 36.787a36.725 36.725 0 004.912 18.392l-5.221 19.064 19.509-5.116a36.787 36.787 0 0017.586 4.479h.016c20.282 0 36.793-16.506 36.801-36.789.003-9.831-3.822-19.074-10.769-26.028zm-26.032 56.604h-.012a30.55 30.55 0 01-15.568-4.263l-1.117-.662-11.577 3.035 3.091-11.283-.728-1.157a30.49 30.49 0 01-4.676-16.273c.007-16.86 13.728-30.576 30.6-30.576 8.17.003 15.85 3.188 21.625 8.968 5.775 5.779 8.953 13.462 8.951 21.633-.009 16.86-13.731 30.578-30.589 30.578z"/>
    <linearGradient id="SVGID_4_" x1="72.495" x2="72.495" y1="929.222" y2="963.939" gradientTransform="matrix(2.0408 0 0 -2.0408 -.96 2207.093)" gradientUnits="userSpaceOnUse">
      <stop offset="0" stop-color="#20b038"/>
      <stop offset="1" stop-color="#60d66a"/>
    </linearGradient>
    <path fill="url(#SVGID_4_)" d="M111.721 310.747l4.982-18.193a35.038 35.038 0 01-4.688-17.552c.008-19.357 15.762-35.106 35.119-35.106 9.395.004 18.213 3.66 24.842 10.296 6.631 6.636 10.281 15.456 10.277 24.837-.008 19.358-15.763 35.108-35.118 35.108-.001 0 .001 0 0 0h-.016a35.109 35.109 0 01-16.782-4.273l-18.616 4.883z"/>
    <path fill="#FFF" fill-rule="evenodd" d="M138.048 259.788c-.681-1.514-1.398-1.544-2.045-1.571-.53-.023-1.136-.021-1.742-.021-.606 0-1.591.228-2.424 1.137-.833.91-3.182 3.108-3.182 7.58 0 4.473 3.258 8.794 3.712 9.401.455.606 6.288 10.077 15.527 13.72 7.678 3.028 9.241 2.426 10.908 2.274 1.667-.152 5.378-2.198 6.135-4.321.758-2.122.758-3.941.53-4.322-.227-.379-.833-.606-1.742-1.061-.909-.455-5.378-2.654-6.211-2.957-.833-.303-1.439-.455-2.045.456-.606.909-2.347 2.956-2.877 3.562-.53.607-1.061.683-1.97.229-.909-.456-3.837-1.415-7.31-4.511-2.702-2.409-4.527-5.384-5.057-6.294-.53-.909-.057-1.402.399-1.855.408-.407.909-1.061 1.364-1.592.454-.531.605-.91.908-1.516.303-.607.152-1.138-.076-1.592-.227-.453-1.993-4.948-2.802-6.746z" clip-rule="evenodd"/>
    <path fill="#FFF" d="M172.874 249.291c-6.869-6.874-16.002-10.661-25.733-10.665-20.053 0-36.371 16.313-36.379 36.365a36.293 36.293 0 004.856 18.181l-5.161 18.845 19.285-5.057a36.345 36.345 0 0017.384 4.427h.015c20.049 0 36.37-16.316 36.379-36.367.003-9.718-3.778-18.855-10.646-25.729zm-25.733 55.954h-.012a30.204 30.204 0 01-15.39-4.214l-1.105-.655-11.444 3 3.055-11.154-.72-1.143a30.15 30.15 0 01-4.623-16.086c.007-16.666 13.57-30.225 30.249-30.225 8.077.003 15.668 3.152 21.377 8.865s8.85 13.308 8.848 21.385c-.006 16.667-13.57 30.227-30.235 30.227z"/>
  </g>
</g>
</svg>
