<svg xmlns="http://www.w3.org/2000/svg" viewBox="0 0 1000 1000">
<style>
/* <![CDATA[ */

#small_circle {
  animation: small_circle 20s linear infinite;
}

@keyframes small_circle {
  0% {
    transform: translate(500px, 500px) rotate(0deg) translate(-500px, -500px)
  }
  100% {
    transform: translate(500px, 500px) rotate(360deg) translate(-500px, -500px)
  }
}

#big_circle {
  animation: big_circle 20s linear infinite;
}

@keyframes big_circle {
  0% {
    transform: translate(500px, 500px) rotate(0deg) translate(-500px, -500px)
  }
  100% {
    transform: translate(500px, 500px) rotate(-360deg) translate(-500px, -500px)
  }
}

#icn_fb {
  animation: fb_rotate 20s linear infinite;
}

@keyframes fb_rotate {
  0% {
    transform: translate(590.4px, 322px) rotate(0deg) translate(-590.4px, -322px)
  }
  100% {
    transform: translate(590.4px, 322px) rotate(-360deg) translate(-590.4px, -322px)
  }
}

#icn_ms {
  animation: ms_rotate 20s linear infinite;
}

@keyframes ms_rotate {
  0% {
    transform: translate(305px, 454.28px) rotate(0deg) translate(-305px, -454.28px)
  }
  100% {
    transform: translate(305px, 454.28px) rotate(-360deg) translate(-305px, -454.28px)
  }
}

#icn_in {
  animation: in_rotate 20s linear infinite;
}

@keyframes in_rotate {
  0% {
    transform: translate(588.64px, 838.76px) rotate(0deg) translate(-588.64px, -838.76px)
  }
  100% {
    transform: translate(588.64px, 838.76px) rotate(360deg) translate(-588.64px, -838.76px)
  }
}

#icn_wb {
  animation: wb_rotate 20s linear infinite;
}

@keyframes wb_rotate {
  0% {
    transform: translate(831.1px, 386.3px) rotate(0deg) translate(-831.1px, -386.3px)
  }
  100% {
    transform: translate(831.1px, 386.3px) rotate(360deg) translate(-831.1px, -386.3px)
  }
}

#icn_ch {
  animation: ch_rotate 20s linear infinite;
}

@keyframes ch_rotate {
  0% {
    transform: translate(239.59px, 734.14px) rotate(0deg) translate(-239.59px, -734.14px)
  }
  100% {
    transform: translate(239.59px, 734.14px) rotate(360deg) translate(-239.59px, -734.14px)
  }
}

#icn_wp {
  animation: wp_rotate 20s linear infinite;
}

@keyframes wp_rotate {
  0% {
    transform: translate(245.39px, 259.7px) rotate(0deg) translate(-245.39px, -259.7px)
  }
  100% {
    transform: translate(245.39px, 259.7px) rotate(360deg) translate(-245.39px, -259.7px)
  }
}

/* ]]> */
</style>
  <g id="small_circle">
    <circle cx="500" cy="500" r="200" fill="none" stroke="#E7E0E0" stroke-miterlimit="10" stroke-width="3"/>
    <g id="icn_fb">
      <circle cx="590.419" cy="322" r="75" opacity=".01"/>
      <circle cx="590.419" cy="322" r="72" opacity=".01"/>
      <circle cx="590.419" cy="322" r="69" opacity=".01"/>
      <circle cx="590.419" cy="322" r="66" opacity=".01"/>
      <circle cx="590.419" cy="322" r="63" opacity=".01"/>
      <circle cx="590.419" cy="322" r="60" fill="#FFF"/>
      <path fill="#2C3740" d="M600.277 299.565h6.664v-11.607c-1.15-.158-5.104-.514-9.709-.514-9.609 0-16.191 6.044-16.191 17.153v10.223h-10.604v12.976h10.604v32.65h13v-32.647h10.175l1.615-12.976h-11.793v-8.94c.003-3.75 1.013-6.318 6.239-6.318z"/>
    </g>
    <g id="icn_ms">
      <circle cx="305.087" cy="454.283" r="75" opacity=".01"/>
      <circle cx="305.087" cy="454.283" r="72" opacity=".01"/>
      <circle cx="305.087" cy="454.283" r="69" opacity=".01"/>
      <circle cx="305.087" cy="454.283" r="66" opacity=".01"/>
      <circle cx="305.087" cy="454.283" r="63" opacity=".01"/>
      <circle cx="305.087" cy="454.283" r="60" fill="#FFF"/>
      <path fill="#2C3740" d="M283.922 496.348a6.134 6.134 0 01-6.133-5.942l-.199-6.528c-8.187-7.341-12.699-17.648-12.699-29.02 0-10.854 4.161-20.836 11.714-28.106 7.475-7.194 17.654-11.155 28.663-11.155s21.189 3.962 28.663 11.155c7.553 7.271 11.714 17.252 11.714 28.106 0 10.853-4.161 20.835-11.714 28.106-7.475 7.194-17.654 11.156-28.663 11.156-3.969 0-7.853-.513-11.545-1.525l-7.329 3.233a6.129 6.129 0 01-2.472.52zm21.347-74.442c-19.422 0-34.068 14.166-34.068 32.953 0 9.569 3.779 18.219 10.64 24.357 1.266 1.14 1.992 2.684 2.053 4.355l.001.02.195 6.361 7.145-3.153a6.161 6.161 0 014.089-.307c3.175.876 6.519 1.319 9.947 1.319 19.422 0 34.068-14.166 34.068-32.952-.002-18.786-14.648-32.953-34.07-32.953zm-19.852 45.839l11.789-9.089a2.25 2.25 0 012.697-.007l8.723 6.781c2.615 1.951 6.357 1.263 8.1-1.488l10.965-17.388c1.059-1.66-.999-3.536-2.57-2.347l-11.784 8.929a2.25 2.25 0 01-2.697.007l-8.723-6.623c-2.615-1.951-6.357-1.264-8.1 1.487l-10.97 17.39c-1.059 1.66 1 3.537 2.57 2.348z"/>
    </g>
  </g>
  <g id="big_circle">
    <circle cx="500" cy="500" r="350" fill="none" stroke="#E7E0E0" stroke-miterlimit="10" stroke-width="3"/>
    <g id="icn_wb">
      <circle cx="831.106" cy="386.332" r="90" opacity=".01"/>
      <circle cx="831.106" cy="386.332" r="86.4" opacity=".01"/>
      <circle cx="831.106" cy="386.332" r="82.8" opacity=".01"/>
      <circle cx="831.106" cy="386.332" r="79.2" opacity=".01"/>
      <circle cx="831.106" cy="386.332" r="75.6" opacity=".01"/>
      <circle cx="831.106" cy="386.332" r="72" fill="#FFF"/>
      <g>
        <path fill="#2C3740" d="M858.837 360.393c-7.271-7.271-16.938-11.276-27.221-11.276s-19.95 4.004-27.221 11.275c-7.271 7.271-11.276 16.939-11.276 27.222s4.004 19.95 11.276 27.221c7.271 7.271 16.938 11.275 27.221 11.275 10.283 0 19.95-4.004 27.222-11.276 7.271-7.271 11.275-16.938 11.275-27.221s-4.004-19.949-11.276-27.22zm-51.249 3.193a33.89 33.89 0 0111.691-7.652c-1.154 1.44-2.233 3.096-3.223 4.958-1.149 2.162-2.14 4.537-2.966 7.074-2.861-.475-5.511-1.059-7.879-1.744a34.668 34.668 0 012.377-2.636zm-5.111 6.522c2.77.887 5.937 1.635 9.393 2.227-.962 4.085-1.529 8.481-1.664 13.021h-12.495a33.675 33.675 0 014.766-15.248zm-.246 34.595a33.674 33.674 0 01-4.52-14.831h12.503c.148 4.41.703 8.682 1.633 12.66-3.527.572-6.774 1.301-9.616 2.171zm5.357 6.94a34.594 34.594 0 01-2.681-3.016c2.455-.681 5.199-1.257 8.153-1.719.832 2.572 1.834 4.978 2.997 7.167 1.078 2.029 2.264 3.812 3.535 5.339a33.9 33.9 0 01-12.004-7.771zm21.77 9.373c-3.43-.961-6.674-4.093-9.314-9.06a39.316 39.316 0 01-2.429-5.652c3.719-.409 7.676-.651 11.742-.708v15.42zm0-19.937c-4.51.061-8.905.345-13.021.828-.908-3.754-1.454-7.816-1.604-12.034h14.626l-.001 11.206zm0-15.723h-14.634c.137-4.336.692-8.512 1.628-12.361 4.09.511 8.476.822 13.006.911v11.45zm0-15.966a121.668 121.668 0 01-11.723-.783 39.238 39.238 0 012.409-5.596c2.639-4.967 5.884-8.099 9.314-9.06v15.439zm31.539.958a33.679 33.679 0 014.624 15.008h-12.495c-.134-4.488-.689-8.835-1.632-12.879 3.48-.562 6.686-1.277 9.503-2.129zm-5.253-6.762a34.56 34.56 0 012.544 2.844c-2.417.66-5.109 1.22-8.001 1.671-.834-2.588-1.841-5.008-3.011-7.209-.989-1.862-2.069-3.518-3.223-4.958a33.89 33.89 0 0111.691 7.652zm-21.77 26.286H848.5c-.151 4.251-.705 8.345-1.626 12.122-4.089-.508-8.474-.817-13-.903v-11.219zm0-4.516v-11.435c4.512-.059 8.911-.34 13.031-.822.921 3.82 1.467 7.96 1.603 12.257h-14.634zm0-31.405c3.43.961 6.674 4.093 9.314 9.06a39.226 39.226 0 012.442 5.692c-3.724.408-7.686.648-11.756.703v-15.455zm0 67.065v-15.407c4.078.08 8.024.344 11.715.775a39.233 39.233 0 01-2.401 5.572c-2.639 4.967-5.884 8.099-9.314 9.06zm21.77-9.373a33.883 33.883 0 01-12.003 7.771c1.272-1.527 2.457-3.31 3.535-5.339 1.146-2.157 2.135-4.525 2.959-7.054 2.927.483 5.635 1.081 8.048 1.783a34.596 34.596 0 01-2.539 2.839zm5.237-6.734c-2.802-.901-6.015-1.659-9.523-2.257.947-4.012 1.511-8.325 1.66-12.78h12.503a33.682 33.682 0 01-4.64 15.037z"/>
      </g>
    </g>
    <g id="icn_ch">
      <circle cx="239.598" cy="734.142" r="90" opacity=".01"/>
      <circle cx="239.598" cy="734.142" r="86.4" opacity=".01"/>
      <circle cx="239.598" cy="734.142" r="82.8" opacity=".01"/>
      <circle cx="239.598" cy="734.142" r="79.2" opacity=".01"/>
      <circle cx="239.598" cy="734.142" r="75.6" opacity=".01"/>
      <circle cx="239.598" cy="734.142" r="72" fill="#FFF"/>
      <g>
        <path fill="#2C3740" d="M231.931 701.84c-16.131 0-29.205 10.898-29.205 24.338 0 7.749 4.371 14.622 11.152 19.071l-3.85 7.7 10.49-4.493c2.249.798 4.585 1.455 7.082 1.762a20.366 20.366 0 01-.535-4.571c0-13.42 13.099-24.338 29.205-24.338 1.475 0 2.916.122 4.337.297-2.571-11.253-14.424-19.766-28.676-19.766zm-9.735 18.253a3.652 3.652 0 010-7.302 3.652 3.652 0 010 7.302zm19.47 0a3.652 3.652 0 010-7.302 3.652 3.652 0 010 7.302z"/>
      </g>
      <g>
        <path fill="#2C3740" d="M280.607 745.648c0-10.752-10.898-19.47-24.338-19.47-13.439 0-24.338 8.718-24.338 19.47s10.898 19.47 24.338 19.47c2.21 0 4.313-.312 6.352-.754l13.118 5.622-4.537-9.068c5.686-3.564 9.405-9.045 9.405-15.27zm-31.639-1.217a3.652 3.652 0 010-7.302 3.652 3.652 0 010 7.302zm14.602 0a3.652 3.652 0 010-7.302 3.652 3.652 0 010 7.302z"/>
      </g>
    </g>
    <g id="icn_wp">
      <circle cx="245.398" cy="259.7" r="90" opacity=".01"/>
      <circle cx="245.398" cy="259.7" r="86.4" opacity=".01"/>
      <circle cx="245.398" cy="259.7" r="82.8" opacity=".01"/>
      <circle cx="245.398" cy="259.7" r="79.2" opacity=".01"/>
      <circle cx="245.398" cy="259.7" r="75.6" opacity=".01"/>
      <circle cx="245.398" cy="259.7" r="72" fill="#FFF"/>
      <path fill="#2C3740" fill-rule="evenodd" d="M272.689 233.383c-7.155-7.163-16.67-11.11-26.807-11.114-20.888 0-37.888 17-37.897 37.893a37.83 37.83 0 005.058 18.946l-5.376 19.637 20.09-5.27a37.85 37.85 0 0018.109 4.613h.016c20.886 0 37.888-17.001 37.896-37.896.005-10.125-3.934-19.646-11.089-26.809zm-26.807 58.306h-.013a31.445 31.445 0 01-16.031-4.391l-1.15-.683-11.921 3.127 3.182-11.623-.749-1.192a31.417 31.417 0 01-4.815-16.763c.007-17.366 14.137-31.495 31.511-31.495 8.413.003 16.322 3.283 22.268 9.237 5.947 5.954 9.22 13.867 9.217 22.284-.008 17.369-14.137 31.499-31.499 31.499zm17.278-23.591c-.947-.474-5.602-2.764-6.47-3.081-.867-.316-1.499-.473-2.13.474-.632.948-2.446 3.081-2.999 3.712-.553.632-1.104.711-2.051.237-.947-.474-3.998-1.474-7.615-4.7-2.815-2.511-4.715-5.612-5.268-6.559-.552-.949-.005-1.412.415-1.932 1.025-1.273 2.051-2.607 2.367-3.239.316-.632.158-1.185-.079-1.659-.236-.474-2.13-5.135-2.919-7.031-.769-1.846-1.549-1.596-2.131-1.625a37.264 37.264 0 00-1.815-.033c-.631 0-1.657.237-2.525 1.185-.868.948-3.314 3.238-3.314 7.899s3.393 9.163 3.866 9.795 6.677 10.196 16.176 14.297a54.25 54.25 0 005.398 1.995c2.269.721 4.332.619 5.964.375 1.819-.272 5.602-2.291 6.392-4.503.789-2.212.789-4.108.552-4.503-.236-.393-.868-.629-1.814-1.104z" clip-rule="evenodd"/>
    </g>
    <g id="icn_in">
      <circle cx="588.641" cy="838.763" r="90" opacity=".01"/>
      <circle cx="588.641" cy="838.763" r="86.4" opacity=".01"/>
      <circle cx="588.641" cy="838.763" r="82.8" opacity=".01"/>
      <circle cx="588.641" cy="838.763" r="79.2" opacity=".01"/>
      <circle cx="588.641" cy="838.763" r="75.6" opacity=".01"/>
      <circle cx="588.641" cy="838.763" r="72" fill="#FFF"/>
      <path fill="#2C3740" d="M622.522 824.674c-.16-3.637-.749-6.138-1.591-8.304a16.703 16.703 0 00-3.958-6.071 16.854 16.854 0 00-6.058-3.945c-2.179-.843-4.667-1.431-8.304-1.591-3.664-.174-4.828-.214-14.121-.214-9.294 0-10.457.04-14.108.201-3.637.16-6.138.749-8.304 1.591-2.3.869-4.36 2.206-6.071 3.958a16.854 16.854 0 00-3.945 6.058c-.843 2.18-1.431 4.667-1.591 8.304-.174 3.664-.214 4.828-.214 14.121 0 9.294.04 10.457.201 14.108.16 3.637.749 6.138 1.592 8.304a16.872 16.872 0 003.958 6.071 16.854 16.854 0 006.058 3.945c2.18.843 4.667 1.431 8.304 1.591 3.65.161 4.814.201 14.108.201s10.457-.04 14.108-.201c3.637-.16 6.138-.749 8.304-1.591a17.51 17.51 0 0010.016-10.016c.842-2.18 1.431-4.667 1.591-8.304.16-3.651.201-4.814.201-14.108-.002-9.294-.016-10.457-.176-14.108zm-6.164 27.948c-.147 3.343-.709 5.148-1.177 6.352a11.354 11.354 0 01-6.499 6.499c-1.203.468-3.022 1.03-6.352 1.176-3.611.161-4.693.201-13.827.201s-10.23-.04-13.827-.201c-3.343-.147-5.148-.708-6.352-1.176a10.53 10.53 0 01-3.931-2.554 10.63 10.63 0 01-2.554-3.931c-.468-1.204-1.03-3.022-1.176-6.352-.161-3.611-.201-4.694-.201-13.827s.04-10.23.201-13.827c.147-3.343.708-5.148 1.176-6.352a10.4 10.4 0 012.568-3.932 10.622 10.622 0 013.931-2.554c1.203-.468 3.022-1.03 6.352-1.177 3.61-.16 4.694-.201 13.827-.201 9.147 0 10.23.04 13.827.201 3.343.147 5.148.709 6.352 1.177a10.518 10.518 0 013.931 2.554 10.626 10.626 0 012.554 3.932c.468 1.203 1.03 3.022 1.177 6.352.16 3.611.201 4.693.201 13.827-.001 9.133-.041 10.203-.201 13.813z"/>
      <path fill="#2C3740" d="M588.49 821.197c-9.708 0-17.585 7.876-17.585 17.585s7.877 17.585 17.585 17.585c9.708 0 17.585-7.876 17.585-17.585s-7.877-17.585-17.585-17.585zm0 28.992c-6.298 0-11.407-5.108-11.407-11.407s5.109-11.407 11.407-11.407c6.299 0 11.407 5.108 11.407 11.407-.001 6.299-5.109 11.407-11.407 11.407z"/>
      <path fill="#2C3740" d="M610.875 820.502a4.105 4.105 0 11-8.21 0 4.105 4.105 0 018.21 0z"/>
    </g>
  </g>
  <g id="logo">
    <circle cx="500" cy="500" r="79.753" fill="#001529"/>
    <path fill="#FFF" d="M531.424 460.163h-66.881c-2.386 0-4.375 1.988-4.375 4.375v11.202c0 2.386 1.989 4.375 4.375 4.375h29.563c3.115 0 4.971 3.513 3.182 6.032l-32.413 46.863c-1.989 2.917.066 6.827 3.579 6.827h67.013c2.386 0 4.375-1.989 4.375-4.375V524.26c0-2.386-1.989-4.375-4.375-4.375h-30.225c-3.115 0-4.971-3.513-3.182-6.098l32.877-46.797c2.121-2.783.066-6.827-3.513-6.827"/>
  </g>
</svg>
