<svg xmlns="http://www.w3.org/2000/svg" viewBox="0 0 430 290">
  <path id="cloud" fill="#C1F1FF" d="M329.57 95.33c-3.39 0-6.73.26-9.99.73a83.75 83.75 0 00-157.72-23.23 37.33 37.33 0 00-42.97 53.61 54.29 54.29 0 008.78 107.86h201.92a69.48 69.48 0 10-.02-138.97z"/>
  <g id="logo1">
    <path fill="#FFF" stroke="#EE6513" d="M210.38 139.54h-38.41c-4.4 0-8-3.6-8-8V93.13c0-4.4 3.6-8 8-8h38.41c4.4 0 8 3.6 8 8v38.41c0 4.4-3.6 8-8 8z"/>
    <g id="layer1" transform="translate(-446.8 535.91)">
      <path id="path25030" fill="#014185" d="M617.89-412.15h21.7l21.28-21.27h-42.99v21.27"/>
      <path id="path25032" fill="#FFF" fill-rule="evenodd" d="M643.38-429.42h-4.21v10.06l-3.7-10.06h-3.62l-3.2 8.42c-.34-2.12-2.52-2.85-4.29-3.4-1.09-.37-2.36-.91-2.27-1.5 0-.49.59-.94 1.85-.87.84.04 1.6.11 3.11.83l1.51-2.56a11.83 11.83 0 00-4.79-1.13c-1.85 0-3.36.58-4.29 1.55a3.76 3.76 0 00-1.01 2.47c0 1.3.5 2.22 1.43 2.96.93.62 1.93 1.02 2.94 1.32 1.18.36 2.1.68 2.1 1.36 0 .25-.08.48-.25.66-.34.3-.76.42-1.43.43a5.84 5.84 0 01-3.45-1l-1.35 2.6a9.94 9.94 0 004.79 1.28h.25a5.8 5.8 0 003.62-1.22c.08-.05.08-.09.17-.13l-.42 1.13h3.87l.59-1.96a7.09 7.09 0 004.46.02l.67 1.94h6.23v-4.06h1.43c3.28 0 5.22-1.68 5.22-4.51.01-3.19-1.84-4.63-5.96-4.63zm-9.76 8.61c-.5 0-.93-.09-1.35-.24l1.35-4.23 1.35 4.25a4.1 4.1 0 01-1.35.22zm10.01-2.43h-.93v-3.41h.93c1.26 0 2.27.41 2.27 1.69 0 1.31-1.01 1.72-2.27 1.72" clip-rule="evenodd"/>
      <path id="path25034" fill="#014185" d="M644.89-413.51c0-.65.5-1.15 1.09-1.15s1.09.5 1.09 1.15c0 .67-.5 1.16-1.09 1.16s-1.09-.48-1.09-1.16zm1.1 1.39a1.4 1.4 0 001.43-1.39 1.4 1.4 0 00-1.43-1.37 1.4 1.4 0 00-1.43 1.37c0 .8.67 1.39 1.43 1.39zm-.26-1.27h.25l.42.69h.25l-.42-.7c.17-.03.42-.15.42-.43 0-.32-.25-.46-.59-.46h-.59v1.59h.25v-.69zm0-.21v-.5h.34c.08 0 .34.04.34.24 0 .24-.25.26-.42.26h-.26"/>
    </g>
  </g>
  <g id="logo2">
    <path fill="#FFF" stroke="#EE6513" d="M288.17 139.54h-38.41c-4.4 0-8-3.6-8-8V93.13c0-4.4 3.6-8 8-8h38.41c4.4 0 8 3.6 8 8v38.41c0 4.4-3.6 8-8 8z"/>
    <path fill="#EC6737" d="M270.82 105.51v20.67l-2.03 1.24-2.03-1.25v-20.64l-5.27 3.24v17.67l7.3 4.47 7.36-4.5v-17.65l-5.33-3.25zm-2.03-10.88l-15.35 9.3v17.68l3.99 2.35v-17.68l11.37-6.91 11.38 6.9.05.03-.01 17.64 3.95-2.32v-17.68l-15.38-9.31z"/>
  </g>
  <g id="logo3">
    <path fill="#FFF" stroke="#EE6513" d="M210.38 217.4h-38.41c-4.4 0-8-3.6-8-8v-38.41c0-4.4 3.6-8 8-8h38.41c4.4 0 8 3.6 8 8v38.41c0 4.4-3.6 8-8 8z"/>
    <path fill="#95BF46" d="M204.22 178.91a.37.37 0 00-.33-.31l-3.07-.23-2.26-2.25c-.22-.22-.66-.16-.83-.11l-1.14.35c-.68-1.96-1.88-3.76-4-3.76l-.18.01c-.6-.8-1.35-1.14-1.99-1.14-4.93 0-7.28 6.16-8.02 9.29l-3.45 1.07c-1.07.34-1.1.37-1.24 1.38-.11.76-2.9 22.38-2.9 22.38l21.78 4.08 11.8-2.55-4.17-28.21zm-8.84-2.17l-1.84.57v-.4a9.1 9.1 0 00-.44-2.98c1.09.15 1.81 1.39 2.28 2.81zm-3.64-2.56c.3.76.5 1.85.5 3.32v.21l-3.81 1.18c.74-2.83 2.11-4.19 3.31-4.71zm-1.46-1.38c.21 0 .43.07.63.21-1.58.74-3.27 2.61-3.98 6.35l-3.01.93c.84-2.85 2.82-7.49 6.36-7.49z"/>
    <path fill="#5E8E3E" d="M203.89 178.6l-3.07-.23-2.26-2.25a.52.52 0 00-.31-.14l-1.65 33.68 11.8-2.55-4.17-28.2a.38.38 0 00-.34-.31"/>
    <path fill="#FFF" d="M192.58 185.12l-1.46 4.33s-1.27-.68-2.84-.68c-2.29 0-2.41 1.44-2.41 1.8 0 1.98 5.15 2.73 5.15 7.36 0 3.64-2.31 5.99-5.43 5.99a7.54 7.54 0 01-5.65-2.33l1-3.31s1.97 1.69 3.62 1.69c1.08 0 1.52-.85 1.52-1.48 0-2.58-4.23-2.69-4.23-6.93 0-3.57 2.56-7.02 7.73-7.02 2.02.01 3 .58 3 .58"/>
  </g>
  <g id="logo4">
    <path fill="#FFF" stroke="#EE6513" d="M288.17 217.4h-38.41c-4.4 0-8-3.6-8-8v-38.41c0-4.4 3.6-8 8-8h38.41c4.4 0 8 3.6 8 8v38.41c0 4.4-3.6 8-8 8z"/>
    <g fill="#34313F">
      <path d="M269.79 193.11h4.52c1.29 0 2.1-.71 2.1-1.84 0-1.07-.81-1.84-2.1-1.84h-4.52c-.15 0-.28.13-.28.26v3.17c.02.14.13.25.28.25zm0 7.31h4.67c1.44 0 2.29-.73 2.29-2.02 0-1.12-.81-2.02-2.29-2.02h-4.67c-.15 0-.28.13-.28.26v3.5c.02.17.13.28.28.28z"/>
      <path d="M286.34 172.78l-13.38 13.34h2.19c3.41 0 5.42 2.14 5.42 4.48a4.22 4.22 0 01-2.57 3.79.25.25 0 00.02.47 4.34 4.34 0 012.64 4.09c0 2.66-1.78 4.78-5.23 4.78h-9.48c-.15 0-.28-.13-.28-.26v-10.1l-14.69 14.62c-.19.19-.06.54.21.54h35.31c.13 0 .24-.11.24-.24v-35.33c.07-.22-.23-.35-.4-.18z"/>
    </g>
  </g>
  <g id="logo-z">
    <circle cx="349.81" cy="151.26" r="25.39" fill="#EE6513"/>
    <path fill="#FFF" d="M357.89 141.02h-17.2c-.61 0-1.13.51-1.13 1.13v2.88c0 .61.51 1.13 1.13 1.13h7.6c.8 0 1.28.9.82 1.55l-8.34 12.05c-.51.75.02 1.76.92 1.76h17.23c.61 0 1.13-.51 1.13-1.13v-2.88c0-.61-.51-1.13-1.13-1.13h-7.77a1 1 0 01-.82-1.57l8.46-12.03c.55-.72.02-1.76-.9-1.76"/>
  </g>
  <path id="path-1" fill="none" stroke="#EE6513" d="M52.24 45.74s47.6-7.45 62.52 30.89c12.17 31.27-15.07 45.2 16.12 74.64"/>
  <circle id="c1" cx="52.24" cy="45.76" r="3" fill="#EE6513"/>
  <path id="path-2" fill="none" stroke="#3B0078" d="M44.57 54.58s78.51-.34 81.68 38.96c2.28 28.3-34.12 45.55 4.64 57.72"/>
  <circle id="c2" cx="45.16" cy="54.58" r="3" fill="#3B0078"/>
  <path id="path-3" fill="none" stroke="#00D2B4" d="M33.95 65.2s72.83-5.73 84.84 34.12c7.36 24.41-22.67 30.66 12.09 51.93"/>
  <circle id="c3" cx="33.95" cy="64.92" r="3" fill="#00D2B4"/>
  <path id="path-4" fill="none" stroke="#3B0078" d="M45.16 77.59s53.31-.06 63.08 26.5c5.56 15.13-7.17 33.2 22.65 47.17"/>
  <circle id="c4" cx="45.16" cy="77.59" r="3" fill="#3B0078"/>
  <path id="path-5" fill="none" stroke="#EE6513" d="M36.31 97.06s44.09-6.92 69.54 16.91c15.86 14.85 1.79 25.72 25.03 37.29"/>
  <circle id="c5" cx="36.95" cy="96.83" r="3" fill="#EE6513"/>
  <path id="path-6" fill="none" stroke="#00D2B4" d="M41.4 110.1s42.42-3.98 58.75 14.32c9.84 11.02 7.16 22.63 30.73 26.84"/>
  <circle id="c6" cx="41.4" cy="110.06" r="3" fill="#00D2B4"/>
  <path id="path-7" fill="none" stroke="#3B0078" d="M35.72 128.33s29.6-7.08 53.24 4.33c15.93 7.69 22.17 17.69 41.93 18.6"/>
  <circle id="c7" cx="36.31" cy="128.75" r="3" fill="#3B0078"/>
  <path id="path-8" fill="none" stroke="#EE6513" d="M41.4 142.9s20.75-1.99 40.55 2.96c9.79 2.45 22.27 7.01 48.94 5.4"/>
  <circle id="c8" cx="41.4" cy="142.51" r="3" fill="#EE6513"/>
  <path id="path-9" fill="none" stroke="#00D2B4" d="M35.13 157.24s36.99 10.31 62.6 2.26c15.56-4.89 17.04-6.48 33.15-8.24"/>
  <circle id="c9" cx="35.72" cy="156.92" r="3" fill="#00D2B4"/>
  <path id="path-10" fill="none" stroke="#3B0078" d="M38.67 170.22s41.02 12.46 62.92-1.27c15.71-9.85 12.44-15.43 29.3-17.69"/>
  <circle id="c10" cx="38.72" cy="169.8" r="3" fill="#3B0078"/>
  <path id="path-11" fill="none" stroke="#EE6513" d="M36.59 180.11s45.74 17.83 82.13-12.12c7.73-6.37 1.75-12.61 12.17-16.73"/>
  <circle id="c11" cx="36.95" cy="180.29" r="3" fill="#EE6513"/>
  <path id="path-12" fill="none" stroke="#00D2B4" d="M36.59 196.59s54.55 7.95 72.96-12.7c10-11.21.25-24.88 21.34-32.62"/>
  <circle id="c12" cx="36.95" cy="196.04" r="3" fill="#00D2B4"/>
  <path id="path-13" fill="none" stroke="#3B0078" d="M40.39 215.48s70.58-.77 81.59-25.13c8.22-18.18-13.69-18.91 8.89-39.09"/>
  <circle id="c13" cx="40.39" cy="215.48" r="3" fill="#3B0078"/>
  <path id="path-14" fill="none" stroke="#00D2B4" d="M36.75 232.18s66.89 6.4 76.82-30.3c6.01-22.21-12.23-41.89 17.31-50.62"/>
  <circle id="c14" cx="36.95" cy="232.51" r="3" fill="#00D2B4"/>
  <path id="path-15" fill="none" stroke="#3B0078" d="M44.79 246.75s55.57 3.11 72.46-31.44c12.73-26.05-14.78-45.75 13.64-64.04"/>
  <circle id="c15" cx="45.16" cy="246.82" r="3" fill="#3B0078"/>
  <path id="path-16" fill="none" stroke="#EE6513" d="M63.24 256.32s53.43-1.65 61.34-41c5.25-26.1-22.12-47.39 6.3-64.05"/>
  <circle id="c16" cx="63.24" cy="256.32" r="3" fill="#EE6513"/>
  <line id="path-hor" x1="130.88" x2="324.41" y1="151.26" y2="151.26" fill="none" stroke="#EE6513"/>
  <line id="path-x1" x1="215.88" x2="230.07" y1="165.23" y2="151.26" fill="none" stroke="#EE6513"/>
  <line id="path-x2" x1="215.88" x2="230.07" y1="137.3" y2="151.26" fill="none" stroke="#EE6513"/>
  <line id="path-x3" x1="244.26" x2="230.07" y1="137.3" y2="151.26" fill="none" stroke="#EE6513"/>
  <line id="path-x4" x1="244.26" x2="230.07" y1="165.23" y2="151.26" fill="none" stroke="#EE6513"/>
  <circle id="circle-x" cx="230.07" cy="151.26" r="4.69" fill="#EE6513"/>
  <circle id="circle-0" cx="129.24" cy="151.26" r="4.69" fill="#EE6513"/>
  <circle id="circle-big" cx="129.24" cy="151.26" r="4.69" fill="#EE6513"/>

<style>
/* <![CDATA[ */

#circle-big {
  animation: circle-big 4s -.2s linear infinite;
}
@keyframes circle-big {
0% {cx:129.24px}
100% {cx:349.81px}
}

#c1 {
  animation: path-1 2s -.2s linear infinite;
}
@keyframes path-1 {
0% {cx:52.24px; cy:45.74px;}
5% {cx:59.99px; cy:45.17px;}
10% {cx:67.76px; cy:45.38px;}
15% {cx:75.47px; cy:46.33px;}
20% {cx:83.04px; cy:48.11px;}
25% {cx:90.32px; cy:50.82px;}
30% {cx:97.13px; cy:54.55px;}
35% {cx:103.24px; cy:59.35px;}
40% {cx:108.43px; cy:65.12px;}
45% {cx:112.54px; cy:71.71px;}
50% {cx:115.57px; cy:78.86px;}
55% {cx:117.48px; cy:86.39px;}
60% {cx:118.12px; cy:94.13px;}
65% {cx:117.61px; cy:101.88px;}
70% {cx:116.44px; cy:109.57px;}
75% {cx:115.41px; cy:117.27px;}
80% {cx:115.45px; cy:125.03px;}
85% {cx:117.27px; cy:132.57px;}
90% {cx:120.79px; cy:139.49px;}
95% {cx:125.48px; cy:145.68px;}
100% {cx:130.88px; cy:151.27px;}
}

#c2 {
  animation: path-2 2s -1s linear infinite;
}
@keyframes path-2 {
0% {cx:44.57px; cy:54.58px;}
5% {cx:52.99px; cy:54.87px;}
10% {cx:61.38px; cy:55.54px;}
15% {cx:69.74px; cy:56.57px;}
20% {cx:78.04px; cy:57.98px;}
25% {cx:86.25px; cy:59.83px;}
30% {cx:94.33px; cy:62.22px;}
35% {cx:102.17px; cy:65.28px;}
40% {cx:109.62px; cy:69.2px;}
45% {cx:116.36px; cy:74.23px;}
50% {cx:121.84px; cy:80.59px;}
55% {cx:125.31px; cy:88.23px;}
60% {cx:126.35px; cy:96.56px;}
65% {cx:125.22px; cy:104.88px;}
70% {cx:122.47px; cy:112.83px;}
75% {cx:118.81px; cy:120.42px;}
80% {cx:115.1px; cy:127.97px;}
85% {cx:112.93px; cy:136.06px;}
90% {cx:116.05px; cy:143.62px;}
95% {cx:123.03px; cy:148.26px;}
100% {cx:130.89px; cy:151.26px;}
}

#c3 {
  animation: path-3 2s -.2s linear infinite;
}
@keyframes path-3 {
0% {cx:33.95px; cy:65.2px;}
5% {cx:41.87px; cy:64.92px;}
10% {cx:49.79px; cy:65.03px;}
15% {cx:57.7px; cy:65.49px;}
20% {cx:65.57px; cy:66.34px;}
25% {cx:73.39px; cy:67.6px;}
30% {cx:81.12px; cy:69.36px;}
35% {cx:88.68px; cy:71.71px;}
40% {cx:95.99px; cy:74.77px;}
45% {cx:102.86px; cy:78.69px;}
50% {cx:109.05px; cy:83.62px;}
55% {cx:114.18px; cy:89.64px;}
60% {cx:117.86px; cy:96.64px;}
65% {cx:119.83px; cy:104.29px;}
70% {cx:119.51px; cy:112.17px;}
75% {cx:117.15px; cy:119.72px;}
80% {cx:114.36px; cy:127.13px;}
85% {cx:114.23px; cy:134.94px;}
90% {cx:118.35px; cy:141.63px;}
95% {cx:124.3px; cy:146.84px;}
100% {cx:130.88px; cy:151.25px;}
}

#c4 {
  animation: path-4 2s -.5s linear infinite;
}
@keyframes path-4 {
0% {cx:45.16px; cy:77.59px;}
5% {cx:51.58px; cy:77.85px;}
10% {cx:57.99px; cy:78.4px;}
15% {cx:64.36px; cy:79.24px;}
20% {cx:70.69px; cy:80.37px;}
25% {cx:76.94px; cy:81.84px;}
30% {cx:83.09px; cy:83.72px;}
35% {cx:89.07px; cy:86.08px;}
40% {cx:94.77px; cy:89.04px;}
45% {cx:100.01px; cy:92.76px;}
50% {cx:104.47px; cy:97.37px;}
55% {cx:107.75px; cy:102.87px;}
60% {cx:109.47px; cy:109.05px;}
65% {cx:109.92px; cy:115.46px;}
70% {cx:109.99px; cy:121.89px;}
75% {cx:110.5px; cy:128.29px;}
80% {cx:112.2px; cy:134.47px;}
85% {cx:115.45px; cy:139.99px;}
90% {cx:119.95px; cy:144.57px;}
95% {cx:125.21px; cy:148.26px;}
100% {cx:130.89px; cy:151.26px;}
}

#c5 {
  animation: path-5 2s -.8s linear infinite;
}
@keyframes path-5 {
0% {cx:36.31px; cy:97.06px;}
5% {cx:42.3px; cy:96.44px;}
10% {cx:48.32px; cy:96.16px;}
15% {cx:54.35px; cy:96.17px;}
20% {cx:60.37px; cy:96.48px;}
25% {cx:66.36px; cy:97.11px;}
30% {cx:72.31px; cy:98.08px;}
35% {cx:78.18px; cy:99.42px;}
40% {cx:83.95px; cy:101.17px;}
45% {cx:89.56px; cy:103.37px;}
50% {cx:94.95px; cy:106.06px;}
55% {cx:100.05px; cy:109.26px;}
60% {cx:104.78px; cy:112.99px;}
65% {cx:108.99px; cy:117.3px;}
70% {cx:112.26px; cy:122.34px;}
75% {cx:114.31px; cy:128px;}
80% {cx:115.61px; cy:133.88px;}
85% {cx:117.51px; cy:139.59px;}
90% {cx:120.98px; cy:144.48px;}
95% {cx:125.65px; cy:148.27px;}
100% {cx:130.88px; cy:151.26px;}
}

#c6 {
  animation: path-6 2s -.3s linear infinite;
}
@keyframes path-6 {
0% {cx:41.4px; cy:110.1px;}
5% {cx:46.65px; cy:109.81px;}
10% {cx:51.9px; cy:109.74px;}
15% {cx:57.16px; cy:109.86px;}
20% {cx:62.4px; cy:110.19px;}
25% {cx:67.63px; cy:110.74px;}
30% {cx:72.82px; cy:111.55px;}
35% {cx:77.96px; cy:112.65px;}
40% {cx:83.01px; cy:114.1px;}
45% {cx:87.92px; cy:115.97px;}
50% {cx:92.61px; cy:118.35px;}
55% {cx:96.92px; cy:121.34px;}
60% {cx:100.67px; cy:125.02px;}
65% {cx:103.78px; cy:129.25px;}
70% {cx:106.41px; cy:133.8px;}
75% {cx:109.01px; cy:138.37px;}
80% {cx:112.15px; cy:142.58px;}
85% {cx:116.14px; cy:145.98px;}
90% {cx:120.77px; cy:148.44px;}
95% {cx:125.75px; cy:150.12px;}
100% {cx:130.88px; cy:151.26px;}
}

#c7 {
  animation: path-7 2s -.9s linear infinite;
}
@keyframes path-7 {
0% {cx:35.72px; cy:128.33px;}
5% {cx:40.68px; cy:127.41px;}
10% {cx:45.68px; cy:126.76px;}
15% {cx:50.7px; cy:126.34px;}
20% {cx:55.74px; cy:126.17px;}
25% {cx:60.78px; cy:126.23px;}
30% {cx:65.81px; cy:126.57px;}
35% {cx:70.81px; cy:127.19px;}
40% {cx:75.76px; cy:128.13px;}
45% {cx:80.64px; cy:129.42px;}
50% {cx:85.39px; cy:131.09px;}
55% {cx:89.99px; cy:133.16px;}
60% {cx:94.42px; cy:135.57px;}
65% {cx:98.71px; cy:138.21px;}
70% {cx:102.93px; cy:140.97px;}
75% {cx:107.17px; cy:143.7px;}
80% {cx:111.54px; cy:146.21px;}
85% {cx:116.13px; cy:148.29px;}
90% {cx:120.93px; cy:149.83px;}
95% {cx:125.87px; cy:150.8px;}
100% {cx:130.89px; cy:151.26px;}
}

#c8 {
  animation: path-8 2s -.1s linear infinite;
}
@keyframes path-8 {
0% {cx:41.4px; cy:142.9px;}
5% {cx:45.91px; cy:142.62px;}
10% {cx:50.42px; cy:142.51px;}
15% {cx:54.94px; cy:142.54px;}
20% {cx:59.45px; cy:142.7px;}
25% {cx:63.96px; cy:143px;}
30% {cx:68.46px; cy:143.44px;}
35% {cx:72.93px; cy:144.05px;}
40% {cx:77.38px; cy:144.84px;}
45% {cx:81.79px; cy:145.82px;}
50% {cx:86.16px; cy:146.96px;}
55% {cx:90.53px; cy:148.1px;}
60% {cx:94.93px; cy:149.12px;}
65% {cx:99.37px; cy:149.96px;}
70% {cx:103.83px; cy:150.62px;}
75% {cx:108.33px; cy:151.1px;}
80% {cx:112.83px; cy:151.41px;}
85% {cx:117.35px; cy:151.57px;}
90% {cx:121.86px; cy:151.59px;}
95% {cx:126.38px; cy:151.48px;}
100% {cx:130.89px; cy:151.26px;}
}

#c9 {
  animation: path-9 2s -1.8s linear infinite;
}
@keyframes path-9 {
0% {cx:35.13px; cy:157.24px;}
5% {cx:39.87px; cy:158.41px;}
10% {cx:44.64px; cy:159.42px;}
15% {cx:49.44px; cy:160.3px;}
20% {cx:54.27px; cy:161.05px;}
25% {cx:59.11px; cy:161.66px;}
30% {cx:63.97px; cy:162.13px;}
35% {cx:68.84px; cy:162.44px;}
40% {cx:73.72px; cy:162.57px;}
45% {cx:78.6px; cy:162.5px;}
50% {cx:83.47px; cy:162.2px;}
55% {cx:88.31px; cy:161.62px;}
60% {cx:93.11px; cy:160.73px;}
65% {cx:97.82px; cy:159.47px;}
70% {cx:102.47px; cy:157.98px;}
75% {cx:107.1px; cy:156.43px;}
80% {cx:111.74px; cy:154.91px;}
85% {cx:116.43px; cy:153.59px;}
90% {cx:121.21px; cy:152.58px;}
95% {cx:126.03px; cy:151.84px;}
100% {cx:130.88px; cy:151.26px;}
}

#c10 {
  animation: path-10 2s -.2s linear infinite;
}
@keyframes path-10 {
0% {cx:38.67px; cy:170.22px;}
5% {cx:43.48px; cy:171.5px;}
10% {cx:48.33px; cy:172.58px;}
15% {cx:53.22px; cy:173.51px;}
20% {cx:58.13px; cy:174.27px;}
25% {cx:63.07px; cy:174.85px;}
30% {cx:68.03px; cy:175.24px;}
35% {cx:73px; cy:175.4px;}
40% {cx:77.97px; cy:175.3px;}
45% {cx:82.93px; cy:174.89px;}
50% {cx:87.84px; cy:174.13px;}
55% {cx:92.67px; cy:172.93px;}
60% {cx:97.33px; cy:171.2px;}
65% {cx:101.72px; cy:168.87px;}
70% {cx:105.83px; cy:166.08px;}
75% {cx:109.72px; cy:162.97px;}
80% {cx:113.36px; cy:159.58px;}
85% {cx:117.03px; cy:156.23px;}
90% {cx:121.27px; cy:153.65px;}
95% {cx:125.99px; cy:152.13px;}
100% {cx:130.89px; cy:151.26px;}
}

#c11 {
  animation: path-11 2s -.6s linear infinite;
}
@keyframes path-11 {
0% {cx:36.59px; cy:180.11px;}
5% {cx:41.75px; cy:181.76px;}
10% {cx:47.01px; cy:183.06px;}
15% {cx:52.33px; cy:184.07px;}
20% {cx:57.69px; cy:184.8px;}
25% {cx:63.09px; cy:185.24px;}
30% {cx:68.5px; cy:185.38px;}
35% {cx:73.91px; cy:185.21px;}
40% {cx:79.31px; cy:184.71px;}
45% {cx:84.66px; cy:183.87px;}
50% {cx:89.94px; cy:182.68px;}
55% {cx:95.13px; cy:181.12px;}
60% {cx:100.19px; cy:179.21px;}
65% {cx:105.1px; cy:176.93px;}
70% {cx:109.83px; cy:174.29px;}
75% {cx:114.36px; cy:171.32px;}
80% {cx:118.66px; cy:168.04px;}
85% {cx:122.11px; cy:163.91px;}
90% {cx:123.8px; cy:158.78px;}
95% {cx:126.29px; cy:154.05px;}
100% {cx:130.89px; cy:151.26px;}
}

#c12 {
  animation: path-12 2s -1.4s linear infinite;
}
@keyframes path-12 {
0% {cx:36.59px; cy:196.59px;}
5% {cx:42.43px; cy:197.25px;}
10% {cx:48.29px; cy:197.71px;}
15% {cx:54.16px; cy:198px;}
20% {cx:60.04px; cy:198.09px;}
25% {cx:65.92px; cy:197.99px;}
30% {cx:71.79px; cy:197.67px;}
35% {cx:77.64px; cy:197.08px;}
40% {cx:83.45px; cy:196.18px;}
45% {cx:89.19px; cy:194.91px;}
50% {cx:94.8px; cy:193.17px;}
55% {cx:100.2px; cy:190.85px;}
60% {cx:105.22px; cy:187.79px;}
65% {cx:109.57px; cy:183.86px;}
70% {cx:112.77px; cy:178.96px;}
75% {cx:114.58px; cy:173.37px;}
80% {cx:115.75px; cy:167.61px;}
85% {cx:117.52px; cy:162.02px;}
90% {cx:120.85px; cy:157.21px;}
95% {cx:125.54px; cy:153.7px;}
100% {cx:130.89px; cy:151.27px;}
}

#c13 {
  animation: path-13 2s -1.1s linear infinite;
}
@keyframes path-13 {
0% {cx:40.39px; cy:215.48px;}
5% {cx:46.99px; cy:215.25px;}
10% {cx:53.58px; cy:214.84px;}
15% {cx:60.15px; cy:214.28px;}
20% {cx:66.71px; cy:213.56px;}
25% {cx:73.25px; cy:212.66px;}
30% {cx:79.76px; cy:211.57px;}
35% {cx:86.23px; cy:210.25px;}
40% {cx:92.64px; cy:208.65px;}
45% {cx:98.94px; cy:206.71px;}
50% {cx:105.1px; cy:204.33px;}
55% {cx:110.99px; cy:201.35px;}
60% {cx:116.37px; cy:197.55px;}
65% {cx:120.74px; cy:192.63px;}
70% {cx:123.34px; cy:186.59px;}
75% {cx:123.77px; cy:180.05px;}
80% {cx:121.85px; cy:173.75px;}
85% {cx:120.3px; cy:167.38px;}
90% {cx:122.18px; cy:161.13px;}
95% {cx:126.15px; cy:155.87px;}
100% {cx:130.87px; cy:151.26px;}
}

#c14 {
  animation: path-14 2s -.1s linear infinite;
}
@keyframes path-14 {
0% {cx:36.75px; cy:232.18px;}
5% {cx:44.18px; cy:232.56px;}
10% {cx:51.62px; cy:232.57px;}
15% {cx:59.05px; cy:232.23px;}
20% {cx:66.45px; cy:231.51px;}
25% {cx:73.81px; cy:230.37px;}
30% {cx:81.06px; cy:228.73px;}
35% {cx:88.14px; cy:226.47px;}
40% {cx:94.94px; cy:223.45px;}
45% {cx:101.25px; cy:219.52px;}
50% {cx:106.73px; cy:214.51px;}
55% {cx:110.99px; cy:208.43px;}
60% {cx:113.67px; cy:201.51px;}
65% {cx:114.8px; cy:194.17px;}
70% {cx:114.72px; cy:186.73px;}
75% {cx:114px; cy:179.33px;}
80% {cx:113.41px; cy:171.92px;}
85% {cx:114.2px; cy:164.55px;}
90% {cx:117.88px; cy:158.17px;}
95% {cx:123.94px; cy:153.91px;}
100% {cx:130.88px; cy:151.26px;}
}

#c15 {
  animation: path-15 2s -.7s linear infinite;
}
@keyframes path-15 {
0% {cx:44.79px; cy:246.75px;}
5% {cx:52.45px; cy:246.75px;}
10% {cx:60.09px; cy:246.25px;}
15% {cx:67.69px; cy:245.3px;}
20% {cx:75.22px; cy:243.87px;}
25% {cx:82.62px; cy:241.89px;}
30% {cx:89.82px; cy:239.3px;}
35% {cx:96.73px; cy:235.99px;}
40% {cx:103.18px; cy:231.88px;}
45% {cx:108.98px; cy:226.89px;}
50% {cx:113.89px; cy:221.02px;}
55% {cx:117.69px; cy:214.38px;}
60% {cx:120.08px; cy:207.12px;}
65% {cx:120.84px; cy:199.51px;}
70% {cx:120.23px; cy:191.88px;}
75% {cx:118.9px; cy:184.33px;}
80% {cx:117.68px; cy:176.77px;}
85% {cx:117.68px; cy:169.13px;}
90% {cx:120.08px; cy:161.91px;}
95% {cx:124.83px; cy:155.94px;}
100% {cx:130.89px; cy:151.27px;}
}

#c16 {
  animation: path-16 2s -.7s linear infinite;
}
@keyframes path-16 {
0% {cx:63.24px; cy:256.32px;}
5% {cx:70.69px; cy:255.6px;}
10% {cx:78.06px; cy:254.29px;}
15% {cx:85.31px; cy:252.45px;}
20% {cx:92.39px; cy:250.02px;}
25% {cx:99.21px; cy:246.94px;}
30% {cx:105.64px; cy:243.12px;}
35% {cx:111.5px; cy:238.48px;}
40% {cx:116.57px; cy:232.98px;}
45% {cx:120.6px; cy:226.69px;}
50% {cx:123.45px; cy:219.77px;}
55% {cx:125.03px; cy:212.47px;}
60% {cx:125.14px; cy:205px;}
65% {cx:124px; cy:197.6px;}
70% {cx:122.1px; cy:190.37px;}
75% {cx:119.96px; cy:183.19px;}
80% {cx:118.23px; cy:175.92px;}
85% {cx:117.86px; cy:168.46px;}
90% {cx:120.06px; cy:161.36px;}
95% {cx:124.8px; cy:155.61px;}
100% {cx:130.88px; cy:151.27px;}
}

/* ]]> */
</style>
</svg>
