<svg xmlns="http://www.w3.org/2000/svg" viewBox="0 0 117 28">
  <g>
    <g>
      <path fill="#7ac143" d="M3.85 23.84a17.2 17.2 0 0 0 7.06 2.76C18 27.75 24.38 24.73 26 19.71l-5.35-.89C11 17.21 5.55 22 3.85 23.84"/>
      <path fill="#7ac143" d="M3.05 22.82A14.32 14.32 0 0 1 .2 16C-.9 9.05 2.67 2.25 8.27 0l.81 5.31a19.49 19.49 0 0 1-6 17.51"/>
      <g fill="#7ac143">
        <path d="M64.78 19.08c.21 0 .3.21.3.46a1.29 1.29 0 0 1-.08.39l-.38 1.06v6.07a.61.61 0 0 1-.22.51 1 1 0 0 1-.59.17.78.78 0 0 1-.6-.17c-.17-.08-.21-.25-.21-.51v-3.48a.73.73 0 0 1-.55.17 1 1 0 0 1-.72-.21.51.51 0 0 1-.26-.47.74.74 0 0 1 .17-.42 10.44 10.44 0 0 0 1.91-3.45.51.51 0 0 1 .51-.38 2.08 2.08 0 0 1 .72.26Zm3.22.72v-.21a.52.52 0 0 1 .21-.51 1.1 1.1 0 0 1 .68-.17 1.33 1.33 0 0 1 .68.12.63.63 0 0 1 .21.51v.22h1.83a1.14 1.14 0 0 1 .6.12.73.73 0 0 1 .17.47.61.61 0 0 1-.13.43.93.93 0 0 1-.64.21h-1.94v.89h2.08a1.15 1.15 0 0 1 .6.13.53.53 0 0 1 .17.46.65.65 0 0 1-.13.43.89.89 0 0 1-.64.21h-2.34a.66.66 0 0 1 .21.51v.51h1.82a1.12 1.12 0 0 1 .6.13.68.68 0 0 1 0 .85.86.86 0 0 1-.64.21h-1.73v.94h2.17a1.11 1.11 0 0 1 .59.13.53.53 0 0 1 .17.46.73.73 0 0 1-.13.43.85.85 0 0 1-.63.21h-6.08a1.15 1.15 0 0 1-.6-.13.55.55 0 0 1-.21-.46c0-.26 0-.38.21-.47a1.06 1.06 0 0 1 .6-.13H68v-.93h-1.77a1.15 1.15 0 0 1-.6-.13.74.74 0 0 1 0-.93 1 1 0 0 1 .6-.13H68v-.51a.53.53 0 0 1 .21-.51h-2.37a1.11 1.11 0 0 1-.59-.13.52.52 0 0 1-.17-.47c0-.25 0-.38.17-.46a1 1 0 0 1 .59-.13h2.09v-.89h-1.79a1.11 1.11 0 0 1-.59-.13.73.73 0 0 1 0-.94 1 1 0 0 1 .59-.12H68Z"/>
        <path d="M82.84 19a1.22 1.22 0 0 1 .26.38h3.48a.54.54 0 0 1 .59.48c0 .3-.21.47-.59.51h-1.49l-.26.51h1.62a.8.8 0 0 1 .47.13c.08 0 .12.17.12.34a.31.31 0 0 1-.12.3.73.73 0 0 1-.47.13h-2.21v.42h1.4c.55 0 .85.26.85.73v.46h.21a1.27 1.27 0 0 1 .47.09.43.43 0 0 1 .13.34.55.55 0 0 1-.09.3.74.74 0 0 1-.46.12h-.22v.68c0 .39-.3.6-.89.6h-.46a10.09 10.09 0 0 0 1.65.81 1.11 1.11 0 0 1 .3.17.46.46 0 0 1 .13.3.35.35 0 0 1-.17.34.85.85 0 0 1-.68.3 1.86 1.86 0 0 1-.47-.09 9.91 9.91 0 0 1-1.65-1.07v.85a.44.44 0 0 1-.17.42.86.86 0 0 1-.55.17.69.69 0 0 1-.56-.17.44.44 0 0 1-.17-.42v-1.6h-1.1v1.62a.42.42 0 0 1-.17.42.84.84 0 0 1-.55.17.66.66 0 0 1-.55-.17.42.42 0 0 1-.17-.42v-.64a7.79 7.79 0 0 1-1 .73.82.82 0 0 1-.55.17 1 1 0 0 1-.59-.22.58.58 0 0 1-.22-.42.57.57 0 0 1 .17-.26 4.62 4.62 0 0 0 .51-.3 8.06 8.06 0 0 0 .9-.63h-.48c-.34 0-.51-.13-.51-.47s.13-.43.34-.43h1.36v-.38h-2.06a12.09 12.09 0 0 1-.56 2.85.71.71 0 0 1-.3.34.68.68 0 0 1-.46.12 1 1 0 0 1-.6-.12.55.55 0 0 1-.21-.43v-.3a11.14 11.14 0 0 0 .6-2.55v-3.9c0-.6.42-.9 1.23-.9h3.19a.75.75 0 0 1 .25-.38 1.18 1.18 0 0 1 .64-.12 1.49 1.49 0 0 1 .89.09Zm-2.51 2.85h-2v.34a10.78 10.78 0 0 1 0 1.27h2v-.34h-1.19c-.21 0-.3-.12-.34-.38s.13-.47.38-.47h1.15Zm-.17-.94-.25-.51h-1.28c-.21 0-.34.09-.34.17v.34Zm3.15 0 .25-.51h-2.12l.25.51Zm-.47.94h-1.1v.42h1.1Zm-1.1 1.61h1.1v-.34h-1.1Zm0 1.28h1.1v-.38h-1.1Zm2.55-1.28h.93v-.26s0-.08-.12-.08h-.77v.34Zm0 1.28h.88v-.34h-.93v.38Z"/>
        <path d="M100.52 19.33a1.48 1.48 0 0 1 .85.17.82.82 0 0 1 .3.64 4 4 0 0 1-.26 1.87.59.59 0 0 1-.47.46 1.47 1.47 0 0 1-.72.09h-.43a3.31 3.31 0 0 1-.55 0 .72.72 0 0 1-.51-.17.67.67 0 0 1-.13-.39 1.21 1.21 0 0 1 .08-.34.84.84 0 0 1 .39-.22h.85c.21 0 .3-.3.3-.93 0-.09-.09-.13-.22-.13h-1.23v.09a3.57 3.57 0 0 1-.55 1.06 4.56 4.56 0 0 1-.81.89.6.6 0 0 1-.55.21.78.78 0 0 1-.6-.17s0 0-.08-.08v.08c0 .22 0 .34-.13.39a.73.73 0 0 1-.55.17h-.89v.76h.59a.72.72 0 0 1 .51.13.69.69 0 0 1 0 .85.76.76 0 0 1-.56.17h-.59v1.4a13.87 13.87 0 0 0 2 .08c1.44 0 2.55 0 3.4-.08h1.1a.84.84 0 0 1 .59.17.59.59 0 0 1 .26.51.7.7 0 0 1-.13.42.54.54 0 0 1-.3.21 2.28 2.28 0 0 1-.64 0h-4.02a14.46 14.46 0 0 1-3.15-.25 3.42 3.42 0 0 1-1.31-.68 2.15 2.15 0 0 1-.34.81.79.79 0 0 1-.64.21.72.72 0 0 1-.51-.13.41.41 0 0 1-.17-.38.36.36 0 0 1 .09-.21 6.23 6.23 0 0 0 .46-2v-1.13a.4.4 0 0 1 .17-.34 1.27 1.27 0 0 1 .47-.09 1.86 1.86 0 0 1 .47.09.44.44 0 0 1 .21.38v1.28a2.25 2.25 0 0 0 .64.55v-2.68h-1.66a.66.66 0 0 1-.47-.13.46.46 0 0 1-.21-.42c0-.26 0-.38.21-.47a.72.72 0 0 1 .47-.13h1.36V21h-1.19a.9.9 0 0 1-.51-.13.43.43 0 0 1-.21-.47.55.55 0 0 1 .17-.47.77.77 0 0 1 .51-.13h1.19v-.47a.68.68 0 0 1 .21-.42 1.25 1.25 0 0 1 1.1 0 .49.49 0 0 1 .21.42v.47h1a.9.9 0 0 1 .51.13c.13.08.17.21.17.46s0 .34-.12.39a.75.75 0 0 1-.55.17h-1.09v1h1.15a.73.73 0 0 1 .47.13c0-.08 0-.12.12-.21a5 5 0 0 0 .85-.81 3.35 3.35 0 0 0 .39-.59h-.68c-.34 0-.51-.21-.51-.6a.5.5 0 0 1 .44-.55h3.94Zm-.09 3.61c.64 0 1 .26 1 .77v1.44c0 .51-.34.77-1 .77h-3.27c-.64 0-.94-.26-.94-.77v-1.44c0-.51.3-.77.94-.77Zm-.64 1.87v-.76a.19.19 0 0 0-.21-.17h-1.66c-.12 0-.17 0-.17.17v.76c0 .09 0 .13.17.13h1.66c.13 0 .21-.04.21-.13Z"/>
        <path d="M110.16 19.93v-.3a.75.75 0 0 1 .21-.47 1.45 1.45 0 0 1 1.19 0 .53.53 0 0 1 .26.42v.3h3.91a1.21 1.21 0 0 1 .59.13.44.44 0 0 1 .17.43.54.54 0 0 1-.13.42.85.85 0 0 1-.63.21h-9.48a1.08 1.08 0 0 1-.59-.12.53.53 0 0 1-.17-.47c0-.21 0-.38.17-.43a1 1 0 0 1 .59-.12Zm0 2.29v-.34a.56.56 0 0 1 .21-.47.81.81 0 0 1 .6-.17.84.84 0 0 1 .59.17.56.56 0 0 1 .26.47v.34h2.72a1 1 0 0 1 1.19.87 1.71 1.71 0 0 1 0 .32v3.06a.71.71 0 0 1-.39.72 2.68 2.68 0 0 1-1.19.21 3.65 3.65 0 0 1-.93-.12c-.3-.13-.47-.3-.47-.56a.64.64 0 0 1 .64-.68h.13a.77.77 0 0 0 .46.13c.13 0 .21-.13.21-.34v-2.16c0-.17 0-.26-.17-.26h-2.16v3.78a.57.57 0 0 1-.17.43 1.06 1.06 0 0 1-.68.21.89.89 0 0 1-.64-.21.54.54 0 0 1-.17-.43v-3.78h-2c-.22 0-.3.09-.3.26v3.1a.53.53 0 0 1-.22.46 1.45 1.45 0 0 1-1.19 0 .59.59 0 0 1-.17-.42v-3.36c0-.76.34-1.19 1.07-1.19h2.72Z"/>
      </g>
      <g fill="#00a5e3">
        <path d="m83.69 16.1 1-6.59h-1.17l.25-1.87h1.15v-.25a3.72 3.72 0 0 1 1.28-2.51 3.29 3.29 0 0 1 2.25-.8 5.36 5.36 0 0 1 1.44.17l-.55 2a1.58 1.58 0 0 0-.68-.09 1.17 1.17 0 0 0-1.1 1.1v.34H89l-.3 1.91h-1.4l-1 6.59Z"/>
        <path d="M91.47 16.23c-2.21 0-3.19-1.66-2.8-4.29.42-3 2.33-4.38 4.07-4.38 2.21 0 3.1 1.79 2.72 4.29-.51 3.61-2.72 4.38-4 4.38Zm.34-2c.55 0 .89-1.19 1.06-2.38s.17-2.34-.43-2.34-1 1.24-1.14 2.34c-.22 1.45-.13 2.38.51 2.38Z"/>
        <path d="M99 16.23c-2.21 0-3.19-1.66-2.8-4.29.42-3 2.34-4.38 4.08-4.38 2.21 0 3.1 1.79 2.72 4.29-.47 3.61-2.72 4.38-4 4.38Zm.34-2c.55 0 .89-1.19 1.06-2.38s.17-2.34-.42-2.34-1 1.24-1.15 2.34c-.18 1.45-.1 2.38.54 2.38Z"/>
        <path d="m111.77 4.25-1.36 9.13c-.12.9-.21 1.79-.34 2.68h-2.29v-.89a2.5 2.5 0 0 1-1.91 1.06c-2 0-2.38-2.17-2-4.33.42-2.89 1.95-4.38 3.4-4.38a1.2 1.2 0 0 1 1.27.81l.6-4.08Zm-3.61 6.67v-.47c0-.34-.13-.72-.51-.72-.64 0-1.07 1-1.24 2.21-.21 1.53.13 2.12.6 2.12a.73.73 0 0 0 .64-.42 1.8 1.8 0 0 0 .17-.51Z"/>
        <path d="M111.69 13.81a2.94 2.94 0 0 0 1.53.42c.51 0 .81-.17.85-.55s-.17-.55-.81-.93a2.3 2.3 0 0 1-1.36-2.43 3.28 3.28 0 0 1 3.36-2.8 4.05 4.05 0 0 1 1.74.39l-.68 1.91a2.33 2.33 0 0 0-1.15-.34c-.51 0-.76.25-.8.55s.12.47.8.89a2.32 2.32 0 0 1 1.32 2.51c-.25 1.74-1.66 2.72-3.57 2.72a3.59 3.59 0 0 1-2-.47Z"/>
        <path d="M20.13 10.41c.12-.89.25-1.83.34-2.68h2.29l-.08 1.19h.08a2.31 2.31 0 0 1 1.83-1.31 1.71 1.71 0 0 1 .55 0l-.38 2.59a2.43 2.43 0 0 0-.6 0 1.58 1.58 0 0 0-1.4 1 2.88 2.88 0 0 0-.25.9l-.6 4.08h-2.63Z"/>
        <path d="M27.65 6.88a1.08 1.08 0 0 1-1.1-1.07 1 1 0 0 1 0-.29 1.58 1.58 0 0 1 1.49-1.4 1.11 1.11 0 0 1 1.14 1.06 1.27 1.27 0 0 1 0 .34 1.63 1.63 0 0 1-1.53 1.36ZM25 16.15l1.24-8.42h2.63l-1.23 8.42Z"/>
        <path d="M33.77 16.06a4.75 4.75 0 0 1-1.49.21c-2.25 0-3.48-1.49-3.1-4.2a4.81 4.81 0 0 1 4.76-4.42 3.42 3.42 0 0 1 1.23.21l-.6 2a2.75 2.75 0 0 0-.76-.13c-1 0-1.74.81-2 2.17s.3 2.17 1.28 2.17a1.76 1.76 0 0 0 .81-.17Z"/>
        <path d="M37.29 13c-.09.77.51 1.24 1.53 1.24a6.85 6.85 0 0 0 1.74-.24v1.87a8.75 8.75 0 0 1-2.55.38c-2.42 0-3.57-1.44-3.14-4.12.42-2.89 2.29-4.55 4.25-4.55s2.89 1.28 2.46 4.08a6.23 6.23 0 0 1-.3 1.36Zm2-1.82c.13-.81.13-1.7-.55-1.7s-1.07 1-1.15 1.7Z"/>
        <path d="M12.73 4.38a16.06 16.06 0 0 1 2.68-.22c1.53 0 2.68.17 3.4.94a3.06 3.06 0 0 1 .68 2.72 4.85 4.85 0 0 1-1.61 3.1A5.11 5.11 0 0 1 14.73 12h-.42l-.64 4.33h-2.76Zm2 5.35H15A1.74 1.74 0 0 0 16.77 8c.13-1-.13-1.7-1.06-1.7a1.75 1.75 0 0 0-.51.08Z"/>
        <path d="M50.08 10.41c.13-.89.21-1.83.34-2.68h2.3v1A3.15 3.15 0 0 1 55 7.61a1.55 1.55 0 0 1 1.7 1.1 4 4 0 0 1 1-.81 3.05 3.05 0 0 1 1.23-.3c1.66 0 2 1.36 1.74 3.31l-.76 5.23h-2.65L58 11.3c.13-.89.13-1.53-.38-1.53a.81.81 0 0 0-.77.55 1.28 1.28 0 0 0-.13.51l-.85 5.31h-2.64L54 11c.08-.47.17-1.19-.43-1.19a.86.86 0 0 0-.72.51 1.16 1.16 0 0 0-.17.6l-.81 5.27h-2.64Z"/>
        <path d="M67.84 14.23a11.67 11.67 0 0 0-.13 2h-2.37v-.81a2.85 2.85 0 0 1-2.08.94c-1.32 0-2.13-1.1-1.92-2.64.34-2.25 2.51-3.14 4.42-3.14l.05-.17c.08-.47-.3-.81-1-.81a3.67 3.67 0 0 0-1.91.51l-.21-1.74a7.09 7.09 0 0 1 3-.68c2.93 0 2.89 2.08 2.68 3.7Zm-2.34-2a1.6 1.6 0 0 0-1.74 1.24c-.08.72.3 1 .55 1a1 1 0 0 0 .85-.51.67.67 0 0 0 .09-.34Z"/>
        <path d="M69.59 10.41c.13-.89.25-1.83.34-2.68h2.29v1.19h.08a2.31 2.31 0 0 1 1.83-1.31 1.71 1.71 0 0 1 .55 0l-.38 2.59a2.43 2.43 0 0 0-.6 0 1.58 1.58 0 0 0-1.4 1 2.88 2.88 0 0 0-.25.9l-.6 4.12h-2.67Z"/>
        <path d="m79.27 5.48-.34 2.29h1.66l-.26 1.83h-1.65l-.51 3.4c-.13.93.25 1.14.68 1.14a2.67 2.67 0 0 0 .63 0l-.3 2.08a6.35 6.35 0 0 1-1.57.17 2.39 2.39 0 0 1-1.7-.55c-.47-.46-.64-1.14-.42-2.55L76 9.6h-1l.25-1.82h1l.21-1.49Z"/>
        <path d="M42.35 13.38a4.14 4.14 0 0 0 2 .47c1.06 0 1.57-.47 1.66-1.06.12-.77-.34-1.1-1.32-1.74a3.34 3.34 0 0 1-1.79-3.4 4.35 4.35 0 0 1 4.64-3.74 4.39 4.39 0 0 1 2 .42l-.77 2.38a2.66 2.66 0 0 0-1.53-.42c-.93 0-1.44.46-1.53 1.06s.13.85 1.36 1.66a3.28 3.28 0 0 1 1.75 3.44A4.52 4.52 0 0 1 44 16.23a5 5 0 0 1-2.38-.47Z"/>
      </g>
    </g>
  </g>
</svg>
