<?xml version="1.0" encoding="UTF-8"?>
<svg id="Layer_1" xmlns="http://www.w3.org/2000/svg" version="1.1" viewBox="0 0 520 232">
  <!-- Generator: Adobe Illustrator 29.0.0, SVG Export Plug-In . SVG Version: 2.1.0 Build 186)  -->
  <g>
    <g>
      <path d="M228.93,128.08c-5.87,5.14-13.66-3.47-7.97-8.8,5.87-5.14,13.66,3.47,7.97,8.8Z" fill="#fff" stroke="#fff" stroke-miterlimit="10" stroke-width="13.86"/>
      <path d="M227.4,142.46c-4.02,3.6-9.53-2.48-5.54-6.12,4.02-3.61,9.53,2.48,5.54,6.12Z" fill="#fff" stroke="#fff" stroke-miterlimit="10" stroke-width="13.86"/>
      <path d="M223.41,156.77c-3.62,3.25-8.58-2.23-4.99-5.51,3.61-3.25,8.58,2.23,4.99,5.51Z" fill="#fff" stroke="#fff" stroke-miterlimit="10" stroke-width="13.86"/>
      <path d="M191.61,31.77s11.56-1.31,12.49,1.39c.92,2.69-1.38,7.09-9.27,6.76-7.89-.32-12.11-2.75-11.23-6.07,2.3-8.69-.23-7.23-.23-7.23,0,0-3.32,2.32-6.97,2.37-3.64.05-10.21,1.35-9.93-7.33.2-6-2-3.66-2-3.66,0,0-10.02,10.62-13.59,7.5-3.58-3.12-3.85-9.84-1.75-13,2.1-3.16,3.4-1.36,3.14.19-.25,1.56-.42,9.27,2.19,7.16,2.62-2.13,8.4-10.94,12.48-10.92,4.08.03,4.18,3.63,4.31,8.42.13,4.79.83,7.45,4.13,6.71,3.3-.74,13.26-8.98,14.27-4.05,1.01,4.93-1.94,11.93,1.95,11.76Z" fill="#fff" stroke="#fff" stroke-miterlimit="10" stroke-width="15.94"/>
      <path d="M223.8,88.48c.17-25.55-22.64-45.91-47.99-42.92C112.96-10.47,6.3,37.91,8.24,123.16c3.9,137.18,205.79,132.54,203.4-4.65,7.53-7.77,12.17-18.36,12.17-30.03Z" fill="none" stroke="#fff" stroke-miterlimit="10" stroke-width="13.86"/>
      <path d="M223.8,88.48c.17-25.55-22.64-45.91-47.99-42.92C112.96-10.47,6.3,37.91,8.24,123.16c3.9,137.18,205.79,132.54,203.4-4.65,7.53-7.77,12.17-18.36,12.17-30.03Z" fill="#f7941d"/>
      <path d="M21.45,119.04c-1.99,0-3.6-1.7-3.46-3.69,2.2-33.93,22.92-63.58,54.06-77.38,1.75-.78,3.8.01,4.57,1.76s-.01,3.8-1.76,4.57c-28.78,12.75-47.92,40.15-49.96,71.5-.12,1.83-1.64,3.24-3.45,3.24Z" fill="#fff"/>
      <path d="M191.79,32.21s11.56-1.31,12.49,1.39c.92,2.69-1.38,7.09-9.27,6.76-7.89-.32-12.11-2.75-11.23-6.07,2.3-8.69-.23-7.23-.23-7.23,0,0-3.32,2.32-6.97,2.37-3.64.05-10.21,1.35-9.93-7.33.2-6-2-3.66-2-3.66,0,0-10.02,10.62-13.59,7.5-3.58-3.12-3.85-9.84-1.75-13,2.1-3.16,3.4-1.36,3.14.19-.25,1.56-.42,9.27,2.19,7.16,2.62-2.13,8.4-10.94,12.48-10.92,4.08.03,4.18,3.63,4.31,8.42.13,4.79.83,7.45,4.13,6.71,3.3-.74,13.26-8.98,14.27-4.05,1.01,4.93-1.94,11.93,1.95,11.76Z" fill="#ffc938"/>
      <path d="M228.84,127.69c-5.87,5.14-13.66-3.47-7.97-8.8,5.87-5.14,13.66,3.47,7.97,8.8Z" fill="#bf2126"/>
      <path d="M227.31,142.08c-4.02,3.6-9.53-2.48-5.54-6.12,4.02-3.61,9.53,2.48,5.54,6.12Z" fill="#bf2126"/>
      <path d="M223.32,156.39c-3.62,3.25-8.58-2.23-4.99-5.51,3.61-3.25,8.58,2.23,4.99,5.51Z" fill="#bf2126"/>
    </g>
    <g>
      <path d="M76.19,83.54l-6.23,1.21c-.75.15-1.48-.34-1.63-1.1l-.99-5.07c-.15-.75.34-1.48,1.1-1.62l7.2-1.4c.75-.15,1.24-.87,1.1-1.62l-1.78-9.14c-.15-.75-.87-1.24-1.62-1.1l-19.66,3.82c-.75.15-1.24.87-1.1,1.62l9.57,49.24c.15.75.87,1.24,1.62,1.1l9.73-1.89c.75-.15,1.24-.87,1.1-1.62l-3.44-17.72c-.15-.75.34-1.48,1.1-1.62l6.23-1.21c.75-.15,1.24-.87,1.1-1.62l-1.78-9.14c-.15-.75-.87-1.24-1.63-1.1Z" fill="#203b4c"/>
      <path d="M110.89,72.45c-3.27-17.25-19.19-12.42-31.47-9.93-.75.15-1.24.87-1.1,1.62l9.57,49.24c.15.75.87,1.24,1.62,1.1l9.73-1.89c.75-.15,1.24-.87,1.1-1.62l-2.63-13.51c-.08-.42.48-.64.71-.28l8.06,13.09c.3.49.88.74,1.44.63l10.25-1.99c.95-.19,1.43-1.27.91-2.09l-11.73-18.84c-.32-.51-.28-1.18.13-1.64,3.24-3.61,4.44-8.46,3.39-13.88ZM95.03,81.51l-.39.06-2.03-10.46c2.31-.37,4.91-1.14,6.11,3.77,1.11,5.69-2.54,6.4-3.68,6.62Z" fill="#203b4c"/>
      <path d="M132.65,92.37l-1.1-5.66c-.15-.75.34-1.48,1.1-1.63l5.96-1.16c.75-.15,1.24-.87,1.1-1.62l-1.78-9.14c-.15-.75-.87-1.24-1.62-1.1l-5.96,1.16c-.75.15-1.48-.34-1.62-1.1l-1.02-5.27c-.15-.75.34-1.48,1.1-1.63l7.14-1.39c.75-.15,1.24-.87,1.1-1.62l-1.78-9.14c-.15-.75-.87-1.24-1.62-1.1l-19.59,3.81c-.75.15-1.24.87-1.1,1.62l9.57,49.24c.15.75.87,1.24,1.62,1.1l19.72-3.83c.75-.15,1.24-.87,1.1-1.62l-1.78-9.14c-.15-.75-.87-1.24-1.62-1.1l-7.27,1.41c-.75.15-1.48-.34-1.62-1.1Z" fill="#203b4c"/>
      <path d="M167.15,87.07l-7.27,1.41c-.75.15-1.48-.34-1.62-1.1l-1.1-5.66c-.15-.75.34-1.48,1.1-1.62l5.96-1.16c.75-.15,1.24-.87,1.1-1.62l-1.78-9.14c-.15-.75-.87-1.24-1.62-1.1l-5.96,1.16c-.75.15-1.48-.34-1.62-1.1l-1.02-5.27c-.15-.75.34-1.48,1.1-1.63l7.14-1.39c.75-.15,1.24-.87,1.1-1.62l-1.78-9.14c-.15-.75-.87-1.24-1.62-1.1l-19.59,3.81c-.75.15-1.24.87-1.1,1.62l9.57,49.24c.15.75.87,1.24,1.62,1.1l19.72-3.83c.75-.15,1.24-.87,1.1-1.62l-1.78-9.14c-.15-.75-.87-1.24-1.62-1.1Z" fill="#203b4c"/>
    </g>
    <g>
      <polygon points="76.45 84.9 67.51 86.64 65.46 76.13 75.39 74.2 73.61 65.06 53.96 68.88 63.53 118.12 73.26 116.22 69.28 95.79 78.23 94.05 76.45 84.9" fill="#fff"/>
      <path d="M109.53,72.71c-4.32-17.87-19.62-10.04-29.84-8.84l9.57,49.24,9.73-1.89-4.42-22.72.13-.03,12.97,21.06,10.25-1.99-12.91-20.74c4.31-3.62,5.56-8.67,4.51-14.09ZM95.24,82.88l-1.71.26-2.55-13.12c5.16-1.49,8.27.12,9.09,4.6.79,4.05-.39,7.39-4.83,8.26Z" fill="#fff"/>
      <polygon points="131.82 95.35 129.66 84.25 138.35 82.56 136.57 73.42 127.89 75.11 125.81 64.4 135.67 62.48 133.89 53.34 114.3 57.15 123.87 106.39 143.59 102.55 141.81 93.41 131.82 95.35" fill="#fff"/>
      <polygon points="167.41 88.43 157.42 90.38 155.26 79.28 163.95 77.59 162.17 68.45 153.49 70.13 151.4 59.42 161.27 57.51 159.49 48.37 139.9 52.17 149.47 101.41 169.19 97.58 167.41 88.43" fill="#fff"/>
    </g>
    <g>
      <path d="M89.74,147.31l-7.2-11.56c4.74-5.04,1.2-15.62-6.42-14.93-2.75-.01-7.53,1.25-10.17,1.67l2.21,11.36-10.98,2.14,1.45,7.48,3.14-.61c.13,1.27-.23,3.05-1.41,2.85-.85,0-2.45-.87-3.59-6.72-.52-3.57-1.02-6.99,1.02-7.65,1.13-.35,1.8,2.48,2.28,3.5l7.06-4.43c-1.98-4.61-6.14-7.52-10.82-6.47-7.86,1.14-9.12,10.85-7.65,16.77,1.13,5.82,4.78,12.61,11.37,12.61,7.1-.18,10.46-5.58,9.06-14.63l2.37,12.17,7.79-1.51-1.15-5.9,3.37,5.47,8.26-1.6ZM76.73,131.32c-.06.13-.24.47-.84.68l-.8-4.11c1.48-.44,2.25,2.13,1.64,3.43Z" fill="#fff"/>
      <path d="M97.18,146.11c5.56-.22,9.95-3.79,9.89-12.36,3.12,6.79,11.31,10.44,17.49,6.21l.11.56,12.99-2.53-1.45-7.48-5.2,1.01-.6-3.06,4.52-.88-1.46-7.48-4.52.88-.56-2.86,5.14-1-1.46-7.48-12.92,2.51.1.53c-7.58-1.66-13.69,5.28-13.93,12.19-4.32-10.94-14.49-10.26-18.55-3.2-4.56,10.07,2,25.14,10.4,24.44ZM117.44,120.04c.9-.2,2.32-.01,3.25.03l2.39,12.31c-.84.41-2.11,1.27-3,1.44-6.34,1.13-9.79-12.29-2.64-13.78ZM94.8,124.16c2.82-1.04,5.85,14.01,2.79,14.35-2.94.93-5.78-14.3-2.79-14.35Z" fill="#fff"/>
      <path d="M145.79,136.42l-1.15-5.9,3.37,5.47,8.26-1.61h0s7.55-1.47,7.55-1.47l-5.51-28.37-7.79,1.51,5.39,27.73-6.83-10.97c4.74-5.05,1.2-15.62-6.42-14.93-2.7-.02-7.55,1.25-10.17,1.67l5.51,28.37,7.79-1.51ZM141.86,114.95c1.42-.41,2.51,3.6.56,4.12l-.8-4.11c.08,0,.16-.01.24-.01Z" fill="#fff"/>
      <path d="M191.06,118.33c-1.37-7.34-8.43-6.37-9.94-9.89-.22-.66.28-1.35.97-1.39,1.7-.42,4.14,1.48,5.67,2.27l-1.69-8.69c-5.75-2.65-12.94.72-12.74,7.46l-1.21-6.23-12.92,2.51,5.51,28.37,12.99-2.53-1.45-7.48-5.2,1.01-.6-3.06,4.52-.88-1.46-7.48-4.52.88-.56-2.86,4.95-.96c.99,9.01,8.75,7.64,10.08,10.89.3,1.29-1.05,1.87-2.14,1.82-1.24.1-3.59-1.14-4.86-1.66l1.58,8.1c6.71,3.5,15.03-2.18,13.02-10.2Z" fill="#fff"/>
      <polygon points="97.87 177.9 95.8 167.25 100.46 166.35 99 158.86 94.34 159.77 93.81 157.01 98.98 156.01 97.52 148.53 84.56 151.05 90.08 179.41 97.87 177.9" fill="#fff"/>
      <path d="M141.54,169.41l-7.2-11.56c4.74-5.05,1.2-15.62-6.42-14.93-2.75-.01-7.53,1.25-10.17,1.67l2.48,12.78c-4.74-18.94-24.65-12.59-20.44,5.43,3.82,20.03,24.24,14.86,20.93-2.92l2.54,13.08,7.79-1.51-1.15-5.9,3.37,5.47,8.26-1.61ZM112.84,165.14c-.09,1.26-.35,2.82-1.47,2.84-2.7.43-5.6-14.21-2.58-14.38,1.37-.16,2.63,1.95,3.64,6.74.2,1.03.52,3.02.42,4.79ZM128.53,153.42c-.07.13-.24.47-.84.68l-.8-4.11c1.48-.44,2.25,2.13,1.64,3.43Z" fill="#fff"/>
      <path d="M147.75,168.2l7.85-1.53.08-4.5,2.94-.57,1.79,4.14,8.23-1.6-12.32-27.04-7.49,1.46-1.07,29.65ZM156.01,155.12l-.34.07-.03-.99.37.93Z" fill="#fff"/>
      <path d="M159.17,177.99c-1.91-10.02-11.54-6.79-18.53-5.43l4.67,24.01-10.43-22.89-7.49,1.46-.82,22.7-.16-.83-5.2,1.01-.6-3.06,4.52-.88-1.45-7.48-4.52.88-.56-2.86,5.14-1-1.45-7.48-11.4,2.22h0s-8.74,1.7-8.74,1.7l-.91,5.86-3.15-5.07-8.64,1.68,9.84,13.68,2.59,13.34,7.79-1.51-2.59-13.35,2.94-12.63,4.85,24.97,11.45-2.23h0l7.85-1.53.08-4.5,2.94-.57,1.79,4.13,7.18-1.4h0c.25-.05.8-.15,1.05-.2h0s6.74-1.31,6.74-1.31l-1.15-5.9,3.37,5.47,8.26-1.61-7.2-11.56c1.85-2.04,2.54-4.77,1.94-7.82ZM134.24,191.77l-.03-.99.37.93-.34.06ZM151.42,181.39c-.07.13-.24.47-.84.68l-.8-4.11c1.48-.44,2.25,2.13,1.64,3.43Z" fill="#fff"/>
      <path d="M169.39,188.43l.92-.18-4.02-20.68-7.72,1.5,4.02,20.68.88-.17c-2.75,3.16.39,8.47,4.54,7.52,4.18-.66,5.14-6.78,1.38-8.67Z" fill="#fff"/>
    </g>
    <g>
      <path d="M67.11,135.47l-8.3,1.61.93,4.76,3.23-.63c.34,1.77.61,5.32-1.97,5.82-3.74.73-5.06-5.12-5.57-7.78-.47-2.41-1.36-8.81,2.12-9.27,1.94-.38,2.74,1.55,3.23,2.8l4.56-2.86c-1.8-3.43-4.82-5.38-8.73-4.62-7.25,1.41-7.7,9.23-6.55,15.15,1.1,5.68,4.79,12.66,11.7,11.32,7.76-1.6,6.65-10.44,5.38-16.29Z" fill="#203b4c"/>
      <path d="M82.16,147.37l5.34-1.04-6.72-10.8c2.25-1.88,2.9-4.52,2.35-7.34-1.36-7.01-7.21-6.22-10.44-5.59l-5.1.99,4.98,25.65,5.07-.99-2.3-11.84h.07s6.76,10.96,6.76,10.96ZM74.79,133.63l-1.33-6.84c2.6-.8,4.38.13,4.74,2.4.61,2.5-.81,4.34-3.41,4.44Z" fill="#203b4c"/>
      <path d="M98.77,144.57c12.2-1.75,6.82-29.42-5.14-26.46-12.2,1.75-6.82,29.42,5.14,26.46ZM94.54,122.8c4.81-1.32,8.28,16.36,3.32,17.08-4.85,1.21-8.28-16.49-3.32-17.08Z" fill="#203b4c"/>
      <path d="M120.89,140.13c.82-.16,1.57-.45,2.26-.9l-.93-4.8c-10.22,5.34-14.89-16.87-3.08-15.85l-.91-4.66c-17.38-.86-13.74,29.25,2.66,26.21Z" fill="#203b4c"/>
      <polygon points="136.04 136.9 135.11 132.14 129.91 133.15 128.78 127.37 133.31 126.49 132.38 121.73 127.86 122.61 126.77 117.03 131.91 116.03 130.98 111.27 120.78 113.25 125.76 138.9 136.04 136.9" fill="#203b4c"/>
      <path d="M144.17,135.32l-2.3-11.84h.07s6.76,10.96,6.76,10.96l5.34-1.04-6.72-10.8c2.25-1.88,2.9-4.52,2.35-7.34-1.36-7.01-7.21-6.22-10.44-5.59l-5.1.99,4.98,25.65,5.07-.99ZM140.67,113.72c4.72-1.44,5.81,6.24,1.54,6.83,0,0-.89.14-.89.14l-1.33-6.84.68-.13Z" fill="#203b4c"/>
      <rect x="154.58" y="106.42" width="5.16" height="26.13" transform="translate(-19.91 32.19) rotate(-11)" fill="#203b4c"/>
      <polygon points="169.94 125.37 168.81 119.59 173.34 118.71 172.41 113.94 167.89 114.82 166.81 109.24 171.94 108.25 171.02 103.48 160.81 105.47 165.8 131.11 176.07 129.12 175.14 124.36 169.94 125.37" fill="#203b4c"/>
      <path d="M189.7,118.6c-1.35-6.94-9.12-5.68-9.94-9.89-.67-3.56,3.97-3.63,6.05-2.09l-.96-4.93c-5.87-2.23-11.42,2.24-9.97,8.47,1.27,7.4,8.75,5.55,9.93,9.86.61,3.68-4.1,4.09-6.49,2.74l.94,4.83c5.99,2.44,12.07-2.61,10.43-8.98Z" fill="#203b4c"/>
      <polygon points="94.17 166.16 98.83 165.25 97.91 160.49 93.25 161.39 92.18 155.92 97.35 154.91 96.43 150.15 86.19 152.14 91.17 177.79 96.24 176.8 94.17 166.16" fill="#203b4c"/>
      <path d="M107.6,147.55c-12.2,1.75-6.82,29.42,5.14,26.46,12.2-1.75,6.82-29.42-5.14-26.46ZM111.84,169.32c-4.85,1.21-8.28-16.49-3.32-17.08,4.81-1.32,8.28,16.37,3.32,17.08Z" fill="#203b4c"/>
      <path d="M133.96,169.47l5.34-1.04-6.72-10.8c2.25-1.88,2.9-4.52,2.35-7.34-1.36-7.01-7.21-6.22-10.44-5.6l-5.1.99,4.98,25.65,5.07-.99-2.3-11.84h.07s6.76,10.96,6.76,10.96ZM126.59,155.72l-1.33-6.84c2.6-.8,4.38.13,4.74,2.4.61,2.5-.81,4.34-3.41,4.44Z" fill="#203b4c"/>
      <path d="M150.16,139.71l-.97,26.8,5.03-.98.08-4.5,5.14-1,1.79,4.14,5.41-1.05-11.14-24.45-5.34,1.04ZM154.35,156.86c-.08-2.55-.29-8.56-.45-11.03h.07c.75,2.34,3,7.99,3.95,10.34l-3.57.69Z" fill="#203b4c"/>
      <path d="M103.36,181.22c-.22,1.48-1.19,7.41-1.26,8.79h-.07c-.23-.66-4.16-6.85-4.63-7.63l-5.58,1.08,8.75,12.17,2.39,12.28,5.07-.99-2.39-12.28,3.39-14.53-5.68,1.1Z" fill="#203b4c"/>
      <polygon points="120.1 199.64 118.98 193.86 123.5 192.98 122.58 188.21 118.05 189.09 116.97 183.52 122.11 182.52 121.18 177.76 110.98 179.74 115.96 205.39 126.23 203.39 125.31 198.63 120.1 199.64" fill="#203b4c"/>
      <path d="M128.73,176.29l-.97,26.8,5.03-.98.08-4.5,5.14-1,1.79,4.13,5.41-1.05-11.14-24.45-5.34,1.04ZM132.91,193.44c-.08-2.55-.29-8.56-.45-11.03h.07c.75,2.34,3,7.99,3.95,10.34l-3.57.69Z" fill="#203b4c"/>
      <path d="M157.81,178.26c-2.25-9.31-10.22-5.23-15.54-4.6l4.99,25.65,5.07-.99-2.3-11.84h.07s6.76,10.96,6.76,10.96l5.34-1.04-6.72-10.8c2.25-1.88,2.9-4.52,2.35-7.34ZM150.37,183.55l-.89.14-1.33-6.84c2.6-.8,4.38.13,4.74,2.4.41,2.11-.2,3.85-2.52,4.3Z" fill="#203b4c"/>
      <path d="M166.48,189.28c-4.21.86-2.97,7.25,1.26,6.46,4.21-.86,2.97-7.25-1.26-6.46Z" fill="#203b4c"/>
      <rect x="161.89" y="169.52" width="5.09" height="18.3" transform="translate(-31.07 34.66) rotate(-11)" fill="#203b4c"/>
    </g>
  </g>
  <g>
    <g>
      <path d="M509.8,127.4c-5.87,5.14-13.66-3.47-7.97-8.8,5.87-5.14,13.66,3.47,7.97,8.8Z" fill="#fff" stroke="#fff" stroke-miterlimit="10" stroke-width="13.86"/>
      <path d="M508.27,141.79c-4.02,3.6-9.53-2.48-5.54-6.12,4.02-3.61,9.53,2.48,5.54,6.12Z" fill="#fff" stroke="#fff" stroke-miterlimit="10" stroke-width="13.86"/>
      <path d="M504.28,156.1c-3.62,3.25-8.58-2.23-4.99-5.51,3.61-3.25,8.58,2.23,4.99,5.51Z" fill="#fff" stroke="#fff" stroke-miterlimit="10" stroke-width="13.86"/>
      <path d="M472.48,31.09s11.56-1.31,12.49,1.39c.92,2.69-1.38,7.09-9.27,6.76-7.89-.32-12.11-2.75-11.23-6.07,2.3-8.69-.23-7.23-.23-7.23,0,0-3.32,2.32-6.97,2.37-3.64.05-10.21,1.35-9.93-7.33.2-6-2-3.66-2-3.66,0,0-10.02,10.62-13.59,7.5-3.58-3.12-3.85-9.84-1.75-13,2.1-3.16,3.4-1.36,3.14.19-.25,1.56-.42,9.27,2.19,7.16,2.62-2.13,8.4-10.94,12.48-10.92,4.08.03,4.18,3.63,4.31,8.42.13,4.79.83,7.45,4.13,6.71,3.3-.74,13.26-8.98,14.27-4.05,1.01,4.93-1.94,11.93,1.95,11.76Z" fill="#fff" stroke="#fff" stroke-miterlimit="10" stroke-width="15.94"/>
      <path d="M504.68,87.8c.17-25.55-22.64-45.91-47.99-42.92-62.85-56.03-169.51-7.65-167.57,77.6,3.9,137.18,205.79,132.54,203.4-4.65,7.53-7.77,12.17-18.36,12.17-30.03Z" fill="none" stroke="#fff" stroke-miterlimit="10" stroke-width="13.86"/>
      <path d="M504.68,87.8c.17-25.55-22.64-45.91-47.99-42.92-62.85-56.03-169.51-7.65-167.57,77.6,3.9,137.18,205.79,132.54,203.4-4.65,7.53-7.77,12.17-18.36,12.17-30.03Z" fill="#f7941d"/>
      <path d="M307.72,137.51c-.14,8.12-12.22,8.12-12.36,0,.14-8.12,12.22-8.12,12.36,0Z" fill="#fff"/>
      <path d="M302.33,118.37c-1.99,0-3.6-1.7-3.46-3.69,2.2-33.93,22.92-63.58,54.06-77.38,1.75-.78,3.8.01,4.57,1.76.78,1.75-.01,3.8-1.76,4.57-28.78,12.75-47.92,40.15-49.96,71.5-.12,1.83-1.64,3.24-3.45,3.24Z" fill="#fff"/>
      <path d="M472.66,31.53s11.56-1.31,12.49,1.39c.92,2.69-1.38,7.09-9.27,6.76-7.89-.32-12.11-2.75-11.23-6.07,2.3-8.69-.23-7.23-.23-7.23,0,0-3.32,2.32-6.97,2.37-3.64.05-10.21,1.35-9.93-7.33.2-6-2-3.66-2-3.66,0,0-10.02,10.62-13.59,7.5-3.58-3.12-3.85-9.84-1.75-13,2.1-3.16,3.4-1.36,3.14.19-.25,1.56-.42,9.27,2.19,7.16,2.62-2.13,8.4-10.94,12.48-10.92,4.08.03,4.18,3.63,4.31,8.42.13,4.79.83,7.45,4.13,6.71,3.3-.74,13.26-8.98,14.27-4.05,1.01,4.93-1.94,11.93,1.95,11.76Z" fill="#ffc938"/>
      <path d="M509.72,127.02c-5.87,5.14-13.66-3.47-7.97-8.8,5.87-5.14,13.66,3.47,7.97,8.8Z" fill="#bf2126"/>
      <path d="M508.19,141.4c-4.02,3.6-9.53-2.48-5.54-6.12,4.02-3.61,9.53,2.48,5.54,6.12Z" fill="#bf2126"/>
      <path d="M504.2,155.71c-3.62,3.25-8.58-2.23-4.99-5.51,3.61-3.25,8.58,2.23,4.99,5.51Z" fill="#bf2126"/>
    </g>
    <path d="M367.87,67.51l-.16-5.54,10.86-2.11c.75-.15,1.24-.87,1.1-1.62,0,0-1.65-8.49-1.65-8.49-.13-.73-.9-1.25-1.62-1.1,0,0-18.81,3.66-18.81,3.66-.67.13-1.14.73-1.12,1.41l.86,24.98c.53,2.76,3.58.27,5.3.2,7.14-1.85,12.25,3.87,9.44,11.42-1.43,3.63-7.21,3.88-9.78,2.13-.43-.23-.95-.21-1.37.04-.42.25-.67.7-.67,1.19l.03,8.87c.24,2.83,9.48,2.23,11.55,1.74,21.93-2.55,17.64-39.31-3.95-36.76Z" fill="#203b4c"/>
    <path d="M417.14,67.69c-.7-3.58-2.37-10.42-5.77-15.94-7.21-12.86-23.39-9.72-25.25,4.91-2.01,12.76,3.01,40.47,18.57,40.99,14.9.06,14.66-20.48,12.46-29.96ZM398.77,70.44c-4.3-18.94,2.92-20.38,6.04-1.18.36,1.89,4.03,18.15-.84,16.32-2.95-2.22-4.38-11.06-5.04-14.35h0s-.16-.79-.16-.79Z" fill="#203b4c"/>
    <g>
      <path d="M357.84,53.67l18.81-3.66,1.65,8.49-12.01,2.34.24,8.22c10.09-1.42,15.98,3.74,17.85,13.4,3.69,14.73-9.16,23.74-22.73,20.07l-.03-8.87c17.5,7.67,17.12-23.67-2.92-15.02l-.86-24.98Z" fill="#fff"/>
      <path d="M415.78,67.95c1.69,8.69,2.91,25.8-8.91,28.09-18.6,4.25-28.72-47.75-9.88-50.8,11.82-2.3,17.09,14.03,18.78,22.71ZM397.56,71.49c.62,3.2,2.75,16.61,7.59,15.67,4.83-.94,1.79-14.17,1.16-17.37-.62-3.2-2.75-16.61-7.59-15.67-4.83.94-1.79,14.17-1.16,17.37Z" fill="#fff"/>
    </g>
    <g>
      <path d="M349.67,128.66c5.35,1.68,2.7,5.47-1.64,3.37-.98-.46-2.15.48-1.91,1.54,0,0,.94,4.83.94,4.83.87,2.08,4.43,1.76,6.23,1.54,5.39-.99,8.02-5.77,6.92-11.05-.89-4.59-4.28-6.18-6.75-7.35-5.05-1.79-3.66-5.68.82-3.18.98.61,2.31-.34,2.05-1.47,0,0-.96-4.93-.96-4.93-.79-2.03-4.64-1.72-6.36-1.48-9.7,2.13-7.94,15.71.66,18.18Z" fill="#fff"/>
      <path d="M361.89,136.44c.14.76.89,1.24,1.62,1.1.46-.24,11.39-1.8,11.16-2.58.67-.62-.7-5.03-.71-5.8-.13-.73-.9-1.25-1.63-1.1,0,0-3.84.75-3.84.75l-.6-3.06c.74-.27,3.65-.36,4.05-1.2.67-.61-.7-5.04-.71-5.8-.15-.75-.87-1.24-1.63-1.1l-3.16.61-.56-2.86,3.78-.73c.73-.13,1.25-.9,1.1-1.63,0,0-.93-4.76-.93-4.76-.15-.75-.87-1.24-1.62-1.1l-10.2,1.98c-.73.13-1.25.9-1.1,1.63,0,0,4.99,25.65,4.99,25.65Z" fill="#fff"/>
      <path d="M384.9,133.42c1.81-.11,5.85-.32,5.8-2.76,0,0-.93-4.8-.93-4.8-.08-.43-.37-.8-.77-.99-.95-.49-1.84.54-2.72.64-3.67.71-5.83-3.3-6.39-6.17-.59-3.06.03-6.89,3.74-7.61.78-.26,2.08.25,2.74-.54.28-.32.4-.76.32-1.18l-.91-4.66c-.48-1.75-3.01-1.19-4.3-1.07-15.52,3.24-11.67,29,3.42,29.14Z" fill="#fff"/>
      <path d="M387.18,118.21c3.1,18.78,23.94,16.29,20.93-2.93l2.28,11.73c.13.73.9,1.25,1.62,1.1,0,0,5.07-.99,5.07-.99.75-.15,1.24-.87,1.1-1.63l-1.55-7.98,5.08,7.82c.31.47.87.72,1.43.61l4.8-.93c.73-.13,1.25-.9,1.1-1.63,0,0-4.99-25.65-4.99-25.65-.13-.73-.89-1.25-1.62-1.1,0,0-5.07.99-5.07.99-.75.15-1.24.87-1.1,1.63l1.5,7.72-4.97-7.58c-.31-.47-.87-.71-1.42-.6l-4.86.95c-.73.13-1.25.9-1.1,1.63,0,0,2.22,11.43,2.22,11.43-4.32-18.27-24.51-13.49-20.44,5.42ZM396.16,109.02c2.95-.45,5.86,13.12,2.79,14.35-2.85.98-5.83-14.23-2.79-14.35Z" fill="#fff"/>
      <path d="M429.88,123.22c.14.76.89,1.24,1.62,1.1,0,0,4.52-.88,4.52-.88,4.22-.82,7.15-2.82,8.69-5.95,3.04-5.58.13-18.14-5.37-21.12-3.61-2.66-8.97-1.39-13.36-.42-.75.15-1.24.87-1.1,1.62l4.99,25.65ZM433.89,102.29c3.7,1.53,5.61,10.31,2.58,13.26l-2.58-13.26Z" fill="#fff"/>
      <path d="M343.09,155.9c-5.03-1.74-3.64-5.69.82-3.18.98.61,2.31-.34,2.05-1.47,0,0-.96-4.93-.96-4.93-.79-2.03-4.64-1.72-6.36-1.48-9.7,2.13-7.94,15.71.67,18.18,1.29.55,2.91,1.16,2.94,2.16.19.91-.4,1.56-1.29,1.73-1.04.2-1.96.05-3.29-.52-.98-.46-2.15.48-1.91,1.54,0,0,.94,4.83.94,4.83.87,2.08,4.43,1.76,6.23,1.54,10.22-2.16,8.86-15.7.17-18.4Z" fill="#fff"/>
      <path d="M368.42,168.92c.75-.15,1.24-.87,1.1-1.63l-2.25-11.6c2.74,16.23,23.62,15.72,20.66-4.13l2.28,11.71c.13.73.9,1.25,1.62,1.1,0,0,5.07-.99,5.07-.99.73-.13,1.25-.9,1.1-1.63,0,0-1.78-9.15-1.78-9.15,4.79-1.02,7.54-4.41,7.38-8.89,0,0,3.18,16.34,3.18,16.34.11.64.72,1.13,1.36,1.12.09,0,.18,0,.26-.03l5.07-.99c.75-.15,1.24-.87,1.1-1.63l-1.78-9.15c4.79-1.02,7.54-4.41,7.38-8.89l3.18,16.34c.13.73.9,1.25,1.62,1.1,0,0,5.07-.99,5.07-.99.75-.15,1.24-.87,1.1-1.63l-4.99-25.65c-.15-.75-.87-1.24-1.62-1.1l-5.07.99c-.73.13-1.25.9-1.1,1.63,0,0,1.11,5.7,1.11,5.7-2.88-8.15-11.18-5.11-16.58-4.11-.75.15-1.24.87-1.1,1.63l1.11,5.7c-2.88-8.15-11.18-5.1-16.58-4.11-.75.15-1.24.87-1.1,1.63l2.25,11.56c-2.77-16.21-23.64-15.65-20.64,4.2l-2.28-11.74c-.15-.75-.87-1.24-1.62-1.1l-5.07.99c-.75.15-1.24.87-1.1,1.62l1.69,8.67-2.42.47-1.69-8.67c-.15-.75-.87-1.24-1.62-1.1l-5.07.99c-.73.13-1.25.9-1.1,1.63,0,0,4.99,25.65,4.99,25.65.13.73.9,1.25,1.62,1.1,0,0,5.07-.99,5.07-.99.75-.15,1.24-.87,1.1-1.63l-1.84-9.49,2.42-.47,1.85,9.49c.13.73.9,1.25,1.62,1.1,0,0,5.07-.99,5.07-.99ZM412.01,141.93c-.13.18-.33.33-.6.46l-.76-3.92c1.56-.13,1.85,2.59,1.36,3.46ZM395.44,145.15c-.13.18-.33.33-.6.46l-.76-3.92c1.56-.14,1.85,2.59,1.36,3.46ZM375.97,145.28c2.95-.97,5.75,14.25,2.79,14.35-2.86.98-5.83-14.23-2.79-14.35Z" fill="#fff"/>
      <path d="M468.28,135.35c-.26-1.12-.26-3.45-2.02-3.1-.62.28-9.12,1.35-9.18,2.2-.67.62.7,5.04.71,5.8.32,1.67,2.3.96,3.4.75.07,1.15-.05,2.62-1.05,2.82-3.49.94-6.18-13.85-2.93-14.33,1.46-.5,1.34,3.87,3.7,2.61,0,0,4.56-2.86,4.56-2.86.61-.38.83-1.18.49-1.82-2.21-4.23-5.94-6.17-10.23-5.34-6.86.93-9,9.04-7.96,14.82l-2.14-11.02c-.15-.75-.87-1.24-1.62-1.1l-5.07.99c-.73.13-1.25.9-1.1,1.63,0,0,1.5,7.72,1.5,7.72l-4.97-7.58c-.31-.47-.87-.71-1.42-.6l-4.86.95c-.73.13-1.25.9-1.1,1.63,0,0,4.99,25.65,4.99,25.65.14.76.89,1.24,1.62,1.1,0,0,5.07-.99,5.07-.99.73-.13,1.25-.9,1.1-1.63,0,0-1.55-7.98-1.55-7.98l5.08,7.82c.31.47.87.71,1.43.61l4.8-.93c.75-.15,1.24-.87,1.1-1.63l-2.12-10.9c3.65,16.01,24.1,14.36,19.77-5.27Z" fill="#fff"/>
      <path d="M374.08,182.15c-5.03-1.74-3.64-5.69.82-3.18.98.61,2.31-.34,2.05-1.47,0,0-.96-4.93-.96-4.93-.79-2.03-4.64-1.72-6.36-1.48-9.7,2.14-7.94,15.71.67,18.18,1.29.55,2.91,1.16,2.94,2.16.19.91-.4,1.56-1.29,1.73-1.04.2-1.96.05-3.29-.52-.98-.46-2.15.48-1.91,1.54,0,0,.94,4.83.94,4.83.87,2.08,4.43,1.76,6.23,1.54,10.22-2.16,8.86-15.7.17-18.4Z" fill="#fff"/>
      <path d="M410.41,180.07c1.85-2.04,2.54-4.77,1.94-7.82-1.69-8.71-9.5-7.19-12.07-6.69-8.35,1.57-6.28.52-5.09,8.33-2.87-8.15-11.18-5.12-16.58-4.12-.73.13-1.25.9-1.1,1.63,0,0,4.99,25.65,4.99,25.65.13.73.9,1.25,1.62,1.1,0,0,5.07-.99,5.07-.99.75-.15,1.24-.87,1.1-1.63l-1.78-9.15c4.59-.94,7.59-4.28,7.38-8.89l3.18,16.33c.13.73.9,1.25,1.62,1.1,6.83-1.56,6.83.29,5.28-7.15,4.24,6.64,1.9,5.64,9.65,4.25.93-.15,1.43-1.31.91-2.09,0,0-6.13-9.85-6.13-9.85ZM386.4,175.45c1.65-.17,2.22,3.5.76,3.92l-.76-3.92ZM403.76,176.33l-.8-4.12c2.34-.37,2.24,4.08.8,4.12Z" fill="#fff"/>
      <path d="M429.17,183.03c-.13-.73-.9-1.25-1.62-1.1,0,0-3.84.75-3.84.75l-.6-3.06c.74-.27,3.65-.36,4.05-1.2.67-.61-.7-5.04-.71-5.8-.15-.75-.87-1.24-1.63-1.1,0,0-3.16.61-3.16.61l-.56-2.86c.73-.26,4.29-.49,4.66-1.32.67-.63-.7-5-.71-5.8-.15-.75-.87-1.24-1.63-1.1,0,0-10.2,1.98-10.2,1.98-.73.13-1.25.9-1.1,1.63,0,0,4.99,25.65,4.99,25.65.13.66.71,1.12,1.36,1.12.09,0,.18,0,.27-.03l10.27-2c.36-.07.68-.28.88-.59.67-.58-.71-5.06-.71-5.8Z" fill="#fff"/>
      <path d="M449.57,177.71c-.13-.09-.27-.17-.41-.25.54-.27.85-.91.73-1.5,0,0-3.49-17.96-3.49-17.96-.15-.75-.87-1.24-1.62-1.1l-5,.97c-.73.13-1.25.9-1.1,1.63,0,0,3.49,17.96,3.49,17.96.12.61.62,1.05,1.21,1.11-.42.5-.74,1.11-.92,1.73-.2-.68-.88-1.11-1.59-.97l-3.84.75-.6-3.06,3.16-.62c.75-.15,1.24-.87,1.1-1.63-.28-.73-.67-5.34-1.51-5.65-.67-.63-3.43.38-4.2.4l-.56-2.86s3.78-.73,3.78-.73c.73-.13,1.25-.9,1.1-1.63,0,0-.93-4.76-.93-4.76-.15-.75-.87-1.24-1.62-1.1-.45.24-11.31,1.79-11.09,2.57-.21.3-.28.68-.21,1.04l4.99,25.65c.14.76.89,1.24,1.62,1.1,0,0,10.27-2,10.27-2,1.14-.21,1.27-1.46.95-2.38,4.59,5.47,12.06-2.51,6.29-6.74Z" fill="#fff"/>
    </g>
    <g>
      <path d="M354.96,117.17c-2.08-1.54-6.73-1.46-6.05,2.09.82,4.22,8.59,2.96,9.94,9.89,1.64,6.37-4.45,11.43-10.43,8.98l-.94-4.83c2.39,1.35,7.1.93,6.49-2.74-1.16-4.29-8.67-2.48-9.93-9.86-1.46-6.22,4.1-10.71,9.97-8.47l.96,4.93Z" fill="#203b4c"/>
      <path d="M368.46,108.54l.93,4.76-5.14,1,1.08,5.58,4.52-.88.93,4.76-4.52.88,1.12,5.78,5.2-1.01.93,4.76-10.27,2-4.99-25.65,10.2-1.98Z" fill="#203b4c"/>
      <path d="M385.32,110.28c-11.81-1.01-7.14,21.19,3.08,15.85l.93,4.8c-7.5,3.91-15.01-2.78-16.21-10.23-1.59-7.12,3.14-16.08,11.29-15.08l.91,4.66Z" fill="#203b4c"/>
      <path d="M406.57,114.44c3.71,17.8-14.8,21.4-18.03,3.5-3.71-17.8,14.8-21.4,18.03-3.5ZM399.21,124.73c4.95-.7,1.5-18.39-3.32-17.08-4.95.57-1.55,18.27,3.32,17.08Z" fill="#203b4c"/>
      <path d="M411.63,100.15l9.34,14.25.05-.08c-1.26-2.46-2.73-12.52-3.4-15.33l5.07-.99,4.99,25.65-4.8.93-9.27-14.26-.05.08c.91,2.36,2.71,12.71,3.27,15.36l-5.07.99-4.99-25.65,4.86-.95Z" fill="#203b4c"/>
      <path d="M431.24,122.96l-4.99-25.65c4.31-.32,14.12-5.96,17.87,10.04,2.03,10.68-2.81,14.36-12.89,15.6ZM439.05,108.3c-.63-3.27-2.66-8.24-6.84-7.42l3.21,16.53c4.12-.59,4.25-5.91,3.63-9.11Z" fill="#203b4c"/>
      <path d="M344.6,151.52c-2.08-1.54-6.73-1.46-6.05,2.09.82,4.22,8.59,2.96,9.94,9.89,1.64,6.37-4.45,11.43-10.43,8.98l-.94-4.83c2.39,1.34,7.11.93,6.49-2.74-1.16-4.29-8.67-2.48-9.93-9.86-1.46-6.22,4.1-10.71,9.97-8.47l.96,4.93Z" fill="#203b4c"/>
      <path d="M352.96,143.89l1.95,10.03,5.14-1-1.95-10.03,5.07-.99,4.99,25.65-5.07.99-2.11-10.85-5.14,1,2.11,10.85-5.07.99-4.99-25.65,5.07-.99Z" fill="#203b4c"/>
      <path d="M386.38,150.71c3.71,17.8-14.8,21.4-18.03,3.5-3.71-17.8,14.8-21.4,18.03-3.5ZM379.02,161c4.95-.7,1.5-18.39-3.32-17.08-4.95.57-1.55,18.28,3.32,17.08Z" fill="#203b4c"/>
      <path d="M391.55,163.01l-4.99-25.65,5.27-1.02c11.22-3.63,15.25,13.96,2.73,15.11l2.06,10.58-5.07.99ZM393.77,147.33c2.47-.37,3.69-1.56,3.18-4.18-.38-2.42-2.08-3.34-4.49-2.59l1.32,6.77Z" fill="#203b4c"/>
      <path d="M408.12,159.79l-4.99-25.65,5.27-1.02c11.22-3.63,15.25,13.96,2.73,15.11l2.06,10.58-5.07.99ZM410.33,144.11c2.47-.37,3.69-1.56,3.18-4.18-.38-2.42-2.08-3.34-4.49-2.59l1.32,6.77Z" fill="#203b4c"/>
      <path d="M424.76,129.94l4.99,25.65-5.07.99-4.99-25.65,5.07-.99Z" fill="#203b4c"/>
      <path d="M433.23,128.29l9.34,14.25.05-.08c-1.26-2.46-2.73-12.52-3.4-15.33l5.07-.99,4.99,25.65-4.8.93-9.27-14.26-.05.08c.91,2.36,2.71,12.71,3.27,15.36l-5.07.99-4.99-25.65,4.86-.95Z" fill="#203b4c"/>
      <path d="M466.53,133.61c1.28,5.85,2.38,14.7-5.37,16.29-6.9,1.34-10.59-5.64-11.7-11.32-1.15-5.92-.69-13.74,6.55-15.15,3.91-.76,6.94,1.19,8.73,4.62l-4.56,2.86c-.49-1.25-1.29-3.17-3.23-2.8-3.47.46-2.59,6.86-2.12,9.27.52,2.65,1.83,8.5,5.57,7.78,2.58-.5,2.32-4.05,1.97-5.82l-3.23.63-.93-4.76,8.3-1.61Z" fill="#203b4c"/>
      <path d="M375.59,177.77c-2.08-1.54-6.73-1.46-6.05,2.09.82,4.22,8.59,2.96,9.94,9.89,1.64,6.37-4.45,11.43-10.43,8.98l-.94-4.83c2.39,1.34,7.1.93,6.49-2.74-1.16-4.29-8.67-2.48-9.93-9.86-1.46-6.22,4.1-10.71,9.97-8.47l.96,4.93Z" fill="#203b4c"/>
      <path d="M383.87,196.77l-4.99-25.65,5.27-1.02c11.21-3.63,15.25,13.96,2.72,15.11l2.06,10.58-5.07.99ZM386.08,181.1c2.47-.37,3.69-1.56,3.18-4.18-.38-2.42-2.08-3.34-4.49-2.59l1.32,6.77Z" fill="#203b4c"/>
      <path d="M400.43,193.55l-4.99-25.65,5.1-.99c3.23-.63,9.08-1.41,10.44,5.59.55,2.82-.1,5.46-2.35,7.34l6.72,10.8-5.34,1.04-6.76-10.97h-.07s2.3,11.85,2.3,11.85l-5.07.99ZM402.66,177.94c2.6-.1,4.02-1.94,3.41-4.44-.36-2.27-2.13-3.2-4.74-2.4l1.33,6.84Z" fill="#203b4c"/>
      <path d="M423.68,162.42l.93,4.76-5.14,1,1.08,5.58,4.52-.88.93,4.76-4.52.88,1.12,5.78,5.2-1.01.93,4.76-10.27,2-4.99-25.65,10.2-1.98Z" fill="#203b4c"/>
      <path d="M437.01,159.83l.93,4.76-5.14,1,1.08,5.58,4.52-.88.93,4.76-4.52.88,1.12,5.78,5.2-1.01.93,4.76-10.27,2-4.99-25.65,10.2-1.98Z" fill="#203b4c"/>
      <path d="M448.53,176.23l-5,.97-3.49-17.96,5-.97,3.49,17.96ZM450.19,180.95c.78,4.23-5.61,5.47-6.46,1.26-.78-4.23,5.61-5.47,6.46-1.26Z" fill="#203b4c"/>
    </g>
  </g>
</svg>