{
    "asset" : {
        "generator" : "Khronos glTF Blender I/O v1.5.9",
        "version" : "2.0"
    },
    "scene" : 0,
    "scenes" : [
        {
            "name" : "Scene",
            "nodes" : [
                0
            ]
        }
    ],
    "nodes" : [
        {
            "mesh" : 0,
            "name" : "Curve",
            "rotation" : [
                -0.30046746134757996,
                -0.640093207359314,
                0.640093207359314,
                -0.30046743154525757
            ],
            "scale" : [
                120.06857299804688,
                3.54774808883667,
                120.06856536865234
            ],
            "translation" : [
                10.97057056427002,
                -15.850082397460938,
                -7.5283122062683105
            ]
        }
    ],
    "materials" : [
        {
            "doubleSided" : true,
            "emissiveFactor" : [
                0.0012139678001403809,
                0.8387992978096008,
                0.9911020398139954
            ],
            "name" : "logo",
            "pbrMetallicRoughness" : {}
        }
    ],
    "meshes" : [
        {
            "name" : "Curve",
            "primitives" : [
                {
                    "attributes" : {
                        "POSITION" : 0,
                        "NORMAL" : 1,
                        "TEXCOORD_0" : 2
                    },
                    "indices" : 3,
                    "material" : 0
                }
            ]
        }
    ],
    "accessors" : [
        {
            "bufferView" : 0,
            "componentType" : 5126,
            "count" : 1662,
            "max" : [
                0.09220772981643677,
                0.1485305279493332,
                0.014085094444453716
            ],
            "min" : [
                -0.08517932891845703,
                0,
                -0.022606950253248215
            ],
            "type" : "VEC3"
        },
        {
            "bufferView" : 1,
            "componentType" : 5126,
            "count" : 1662,
            "type" : "VEC3"
        },
        {
            "bufferView" : 2,
            "componentType" : 5126,
            "count" : 1662,
            "type" : "VEC2"
        },
        {
            "bufferView" : 3,
            "componentType" : 5123,
            "count" : 3444,
            "type" : "SCALAR"
        }
    ],
    "bufferViews" : [
        {
            "buffer" : 0,
            "byteLength" : 19944,
            "byteOffset" : 0
        },
        {
            "buffer" : 0,
            "byteLength" : 19944,
            "byteOffset" : 19944
        },
        {
            "buffer" : 0,
            "byteLength" : 13296,
            "byteOffset" : 39888
        },
        {
            "buffer" : 0,
            "byteLength" : 6888,
            "byteOffset" : 53184
        }
    ],
    "buffers" : [
        {
            "byteLength" : 60072,
            "uri" : "data:application/octet-stream;base64,"
        }
    ]
}
