<svg xmlns="http://www.w3.org/2000/svg" width="130" height="40" viewBox="0 0 130 39.12">
  <path fill="#4c96d1" d="m25.3.96 10.11 17.51c.31.54 1.12.37 1.2-.25l1.21-10.38a.62.62 0 0 1 .25-.44l8.39-6.24A.64.64 0 0 0 46.08 0H25.87c-.5 0-.81.54-.56.96Z"/>
  <path fill="#11172e" d="M21.93 38.8.09.96A.64.64 0 0 1 .65 0h17.96c.23 0 .44.12.56.32l15.27 26.45c.15.25.1.57-.1.78L22.96 38.94c-.3.3-.8.23-1.01-.13ZM49.79 38.8 71.64.96a.64.64 0 0 0-.56-.96H53.12a.65.65 0 0 0-.56.32L37.29 26.77c-.15.25-.1.57.1.78l11.38 11.39c.3.3.8.23 1.01-.13ZM82.08 13.15c.11 0 .17.09.13.19l-2.03 7.32a.27.27 0 0 1-.24.18H78c-.1 0-.23-.08-.26-.18l-1.01-3.92-1.01 3.92c-.02.1-.16.18-.26.18h-1.94a.27.27 0 0 1-.24-.18l-2.03-7.32c-.03-.1.02-.19.13-.19h2.49a.3.3 0 0 1 .26.19l.63 3.33.86-3.33c.03-.11.17-.19.3-.19h1.6c.13 0 .27.08.3.19l.86 3.33.63-3.33c.02-.1.14-.19.26-.19h2.49ZM88.76 18.83c.09 0 .17.07.17.14v1.7c0 .08-.08.16-.17.16h-5.18c-.08 0-.16-.09-.18-.17V13.3c0-.1.06-.16.16-.16h5.07c.1 0 .18.08.18.16v1.68c0 .1-.08.17-.18.17h-2.91v.88h2.36c.1 0 .16.08.14.14l-.16 1.56c-.01.07-.09.14-.19.14h-2.16v.95h3.04ZM91.16 18.49c.03-.11.11-.14.2-.09.51.29 1.12.5 1.55.53.36 0 .59-.17.59-.42 0-.66-3.13-.62-3.13-3.05 0-1.49 1.12-2.48 2.82-2.48.79 0 1.79.32 2.49.8.09.06.12.14.09.2l-.7 1.57c-.03.11-.11.14-.2.09a4.5 4.5 0 0 0-1.57-.58c-.35 0-.57.16-.57.4 0 .66 3.15.61 3.15 3.06 0 1.48-1.15 2.47-2.86 2.47-.94 0-1.92-.29-2.47-.74-.09-.07-.12-.14-.09-.2l.7-1.57ZM103.11 13.15c.1 0 .17.08.16.16L103.1 15a.2.2 0 0 1-.18.16h-1.66v5.52c0 .08-.07.16-.16.16h-1.97c-.09 0-.17-.08-.17-.16v-5.52h-1.85a.16.16 0 0 1-.16-.16v-1.68c0-.09.08-.17.16-.17h5.99ZM115.2 13.15c.11 0 .17.09.13.19l-2.03 7.32a.27.27 0 0 1-.24.18h-1.94c-.1 0-.23-.08-.26-.18l-1.01-3.92-1.01 3.92c-.02.1-.16.18-.26.18h-1.94a.27.27 0 0 1-.24-.18l-2.03-7.32c-.03-.1.02-.19.13-.19h2.49a.3.3 0 0 1 .26.19l.63 3.33.86-3.33c.03-.11.17-.19.3-.19h1.6c.13 0 .27.08.3.19l.86 3.33.63-3.33c.02-.1.14-.19.26-.19h2.49ZM123.15 20.69c.03.07-.01.14-.1.14h-2.21a.26.26 0 0 1-.23-.14l-.33-1.17h-2.09l-.33 1.17a.24.24 0 0 1-.23.14h-2.21c-.09 0-.13-.08-.1-.14l2.52-7.39c.03-.07.16-.14.27-.14h2.27c.11 0 .23.08.27.14l2.52 7.39Zm-3.92-4.88-.6 2.12h1.2l-.6-2.12ZM129.86 13.15c.1 0 .18.08.12.18l-2.46 4.43v2.92c0 .08-.08.16-.17.16h-1.96c-.09 0-.17-.08-.17-.16v-2.92l-2.46-4.43c-.06-.1.02-.18.12-.18h2.32c.11 0 .21.08.26.18l.91 2 .91-2c.04-.1.14-.18.26-.18h2.32Z"/>
  <path fill="#4c96d1" d="M76.56 28.63c.04.07-.01.12-.08.12h-1.57a.2.2 0 0 1-.17-.12l-.76-1.6h-.09v1.62c0 .05-.05.1-.12.1h-1.29c-.06 0-.11-.05-.11-.1v-4.86c0-.06.05-.11.11-.11h1.94c1.13 0 1.88.66 1.88 1.66 0 .58-.35 1.17-.9 1.4l1.17 1.89Zm-2.24-2.85c.25 0 .42-.15.42-.39s-.17-.39-.42-.39h-.43v.78h.43ZM81 27.43c.06 0 .11.04.11.1v1.12c0 .05-.05.1-.11.1h-3.42c-.05 0-.1-.06-.12-.11v-4.86c0-.07.04-.1.1-.1h3.34c.07 0 .12.05.12.1v1.11c0 .07-.05.11-.12.11h-1.92v.58h1.56c.07 0 .1.05.1.1l-.1 1.03s-.06.1-.12.1h-1.43v.63H81ZM88.97 23.68c.07 0 .11.06.09.12l-1.34 4.83a.18.18 0 0 1-.16.12h-1.28c-.07 0-.15-.05-.17-.12l-.67-2.59-.67 2.59c-.01.07-.1.12-.17.12h-1.28a.17.17 0 0 1-.16-.12l-1.34-4.83c-.02-.07.02-.12.09-.12h1.65a.2.2 0 0 1 .17.12l.42 2.2.57-2.2c.02-.07.11-.12.2-.12h1.06c.09 0 .18.05.2.12l.57 2.2.42-2.2c.01-.07.1-.12.17-.12h1.65ZM94.41 28.66s0 .1-.07.1h-1.46c-.07 0-.12-.04-.15-.1l-.22-.77h-1.38l-.22.77a.18.18 0 0 1-.15.1H89.3c-.06 0-.09-.05-.07-.1l1.66-4.88s.1-.1.18-.1h1.5c.07 0 .15.05.18.1l1.66 4.88Zm-2.58-3.22-.4 1.4h.79l-.4-1.4ZM99.4 28.63c.04.07-.02.12-.08.12h-1.57a.2.2 0 0 1-.17-.12l-.76-1.6h-.09v1.62c0 .05-.05.1-.12.1h-1.29c-.06 0-.11-.05-.11-.1v-4.86c0-.06.05-.11.11-.11h1.94c1.13 0 1.88.66 1.88 1.66 0 .58-.35 1.17-.9 1.4l1.17 1.89Zm-2.24-2.85c.25 0 .42-.15.42-.39s-.17-.39-.42-.39h-.43v.78h.43ZM102.12 23.68c1.56 0 2.59 1.01 2.59 2.54s-1.04 2.54-2.59 2.54h-1.71c-.05 0-.1-.05-.1-.11V23.8c0-.06.05-.11.1-.11h1.71Zm.09 3.75c.57 0 .95-.49.95-1.21s-.38-1.21-.95-1.21h-.38v2.43h.38ZM106.07 27.21c.02-.07.07-.1.13-.06.34.19.74.33 1.02.35.24 0 .39-.11.39-.28 0-.43-2.07-.41-2.07-2.01 0-.99.74-1.64 1.86-1.64.52 0 1.18.21 1.65.53.06.04.08.1.06.13l-.46 1.04c-.02.07-.07.1-.13.06a2.83 2.83 0 0 0-1.04-.38c-.23 0-.37.1-.37.26 0 .43 2.08.4 2.08 2.02 0 .98-.76 1.63-1.89 1.63-.62 0-1.26-.19-1.63-.49-.06-.04-.08-.1-.06-.13l.46-1.04ZM109.98 24.56c0-.54.38-.95.93-.95s.94.41.94.95a.93.93 0 1 1-1.87 0Zm1.62 0c0-.41-.29-.74-.69-.74s-.69.33-.69.74.29.74.69.74.69-.33.69-.74Zm-1.04-.53h.34c.06 0 .11 0 .16.02.14.04.21.14.21.26 0 .17-.13.25-.24.28.07.03.18.25.3.47h-.26c-.13-.25-.21-.41-.25-.41h-.02v.41h-.23v-1.03Zm.27.45c.1 0 .19-.04.19-.14 0-.06-.03-.11-.08-.12l-.11-.01h-.05v.27h.04Z"/>
</svg>
