<svg xmlns="http://www.w3.org/2000/svg" width="185.366" height="193.278" viewBox="0 0 185.366 193.278">
  <g id="Group_886" data-name="Group 886" transform="translate(-37.671 -23.479)">
    <path id="Brain" d="M141.695,205.078V37.7a14.213,14.213,0,0,0-26.486-7.179A24.8,24.8,0,0,0,77.879,49.795,18.764,18.764,0,0,0,56.632,74.332a40.02,40.02,0,0,0-.128,67.983,35.323,35.323,0,0,0,30.018,54.021c.9,0,1.782-.068,2.665-.135,0,.047-.006.09-.006.137a18.214,18.214,0,0,0,30.287,13.654,11.65,11.65,0,0,0,22.226-4.906Z" fill="#119fda"/>
    <circle id="Ellipse_100" data-name="Ellipse 100" cx="8.615" cy="8.615" r="8.615" transform="translate(61.605 71.265) rotate(-67.5)" fill="#bacc33"/>
    <circle id="Ellipse_101" data-name="Ellipse 101" cx="8.615" cy="8.615" r="8.615" transform="translate(71.725 167.54) rotate(-67.5)" fill="#bacc33"/>
    <g id="Group_886-2" data-name="Group 886" transform="translate(109.257 101.905)">
      <circle id="Ellipse_102" data-name="Ellipse 102" cx="4.239" cy="4.239" r="4.239" transform="translate(2.032 2.032)" fill="#fff"/>
      <path id="Path_573" data-name="Path 573" d="M154.922,157.6a6.271,6.271,0,1,1,6.271-6.271A6.279,6.279,0,0,1,154.922,157.6Zm0-8.478a2.207,2.207,0,1,0,2.207,2.207A2.21,2.21,0,0,0,154.922,149.125Z" transform="translate(-148.65 -145.061)" fill="#bacc33"/>
    </g>
    <g id="Group_887" data-name="Group 887" transform="translate(118.831 55.329)">
      <circle id="Ellipse_103" data-name="Ellipse 103" cx="2.208" cy="2.208" r="2.208" transform="translate(4.064 4.064)" fill="#fff"/>
      <path id="Path_574" data-name="Path 574" d="M169.762,85.4a6.271,6.271,0,1,1,6.271-6.271A6.278,6.278,0,0,1,169.762,85.4Zm0-8.479a2.208,2.208,0,1,0,2.207,2.208A2.21,2.21,0,0,0,169.762,76.919Z" transform="translate(-163.491 -72.855)" fill="#bacc33"/>
    </g>
    <g id="Group_888" data-name="Group 888" transform="translate(118.831 135.272)">
      <circle id="Ellipse_104" data-name="Ellipse 104" cx="4.239" cy="4.239" r="4.239" transform="translate(2.032 2.032)" fill="#fff"/>
      <path id="Path_575" data-name="Path 575" d="M169.762,209.333a6.271,6.271,0,1,1,6.271-6.272A6.279,6.279,0,0,1,169.762,209.333Zm0-8.479a2.208,2.208,0,1,0,2.207,2.207A2.21,2.21,0,0,0,169.762,200.854Z" transform="translate(-163.491 -196.79)" fill="#bacc33"/>
    </g>
    <g id="Group_889" data-name="Group 889" transform="translate(101.618 188.541)">
      <circle id="Ellipse_105" data-name="Ellipse 105" cx="4.239" cy="4.239" r="4.239" transform="translate(2.031 2.032)" fill="#fff"/>
      <path id="Path_576" data-name="Path 576" d="M143.077,291.913a6.271,6.271,0,1,1,6.272-6.271A6.278,6.278,0,0,1,143.077,291.913Zm0-8.478a2.208,2.208,0,1,0,2.208,2.207A2.21,2.21,0,0,0,143.077,283.435Z" transform="translate(-136.807 -279.371)" fill="#bacc33"/>
    </g>
    <path id="Path_577" data-name="Path 577" d="M90.656,112.31V92.167a4.24,4.24,0,1,0-1.524,0v21.666H131.8v14.978H119.007L99.252,150.337v29.771a4.239,4.239,0,1,0,1.524,0V150.93l18.9-20.595h13.647V112.31Z" transform="translate(-17.032 -21.397)" fill="#fff"/>
    <path id="Path_578" data-name="Path 578" d="M163.288,159.289V83.532a2.215,2.215,0,1,0-1.524.035v75.722a2.178,2.178,0,0,0-1.143,3.153l-16,19.145v30.94a2.172,2.172,0,1,0,1.524.058V182.14l15.642-18.721a2.181,2.181,0,0,0,.736.135,2.2,2.2,0,0,0,.762-4.266Z" transform="translate(-37.425 -19.806)" fill="#fff"/>
    <g id="Group_894" data-name="Group 894" transform="translate(138.743 45.796)">
      <circle id="Ellipse_106" data-name="Ellipse 106" cx="8.616" cy="8.616" r="8.616" transform="translate(37.462 57.718) rotate(-22.5)" fill="#bacc33"/>
      <circle id="Ellipse_107" data-name="Ellipse 107" cx="8.616" cy="8.616" r="8.616" transform="translate(57.155 112.419) rotate(-22.5)" fill="#bacc33"/>
      <circle id="Ellipse_108" data-name="Ellipse 108" cx="4.239" cy="4.239" r="4.239" transform="translate(64.172 112.842)" fill="#fff"/>
      <circle id="Ellipse_109" data-name="Ellipse 109" cx="4.239" cy="4.239" r="4.239" transform="translate(44.48 58.141)" fill="#fff"/>
      <g id="Group_890" data-name="Group 890" transform="translate(20.02)">
        <circle id="Ellipse_110" data-name="Ellipse 110" cx="4.239" cy="4.239" r="4.239" transform="translate(2.032 2.032)" fill="#fff"/>
        <path id="Path_579" data-name="Path 579" d="M231.668,70.619a6.271,6.271,0,1,1,6.271-6.271A6.278,6.278,0,0,1,231.668,70.619Zm0-8.479a2.208,2.208,0,1,0,2.207,2.208A2.21,2.21,0,0,0,231.668,62.14Z" transform="translate(-225.397 -58.076)" fill="#bacc33"/>
      </g>
      <g id="Group_891" data-name="Group 891" transform="translate(20.02 89.477)">
        <circle id="Ellipse_111" data-name="Ellipse 111" cx="4.239" cy="4.239" r="4.239" transform="translate(2.032 2.032)" fill="#fff"/>
        <path id="Path_580" data-name="Path 580" d="M231.668,209.333a6.271,6.271,0,1,1,6.271-6.272A6.279,6.279,0,0,1,231.668,209.333Zm0-8.479a2.208,2.208,0,1,0,2.207,2.207A2.21,2.21,0,0,0,231.668,200.854Z" transform="translate(-225.397 -196.79)" fill="#bacc33"/>
      </g>
      <g id="Group_892" data-name="Group 892" transform="translate(37.173 143.083)">
        <circle id="Ellipse_112" data-name="Ellipse 112" cx="4.239" cy="4.239" r="4.239" transform="translate(2.032 2.032)" fill="#fff"/>
        <path id="Path_581" data-name="Path 581" d="M258.26,292.437a6.271,6.271,0,1,1,6.271-6.271A6.278,6.278,0,0,1,258.26,292.437Zm0-8.479a2.207,2.207,0,1,0,2.207,2.207A2.21,2.21,0,0,0,258.26,283.959Z" transform="translate(-251.989 -279.895)" fill="#bacc33"/>
      </g>
      <path id="Path_582" data-name="Path 582" d="M223.664,66.6a2.235,2.235,0,1,0-3.021,2.086v37.234l-24.161,20.091.975,1.172,24.71-20.547V68.7A2.23,2.23,0,0,0,223.664,66.6Z" transform="translate(-195.113 -60.307)" fill="#0ca0db"/>
      <g id="Group_893" data-name="Group 893" transform="translate(72.768 15.044)">
        <circle id="Ellipse_113" data-name="Ellipse 113" cx="4.239" cy="4.239" r="4.239" transform="translate(1.524 1.524)" fill="#fff"/>
        <path id="Path_583" data-name="Path 583" d="M312.934,92.925a5.763,5.763,0,1,1,5.764-5.763A5.77,5.77,0,0,1,312.934,92.925Zm0-8.479a2.715,2.715,0,1,0,2.716,2.716A2.718,2.718,0,0,0,312.934,84.446Z" transform="translate(-307.171 -81.398)" fill="#bacc33"/>
      </g>
      <path id="Path_584" data-name="Path 584" d="M297.293,86.074a2.7,2.7,0,0,0-2.594,1.985h-28v37.966a4.394,4.394,0,1,0,3.318,7.884l16.374,17.843V180.76a4.393,4.393,0,1,0,1.524.008v-29.61l-16.834-18.343a4.395,4.395,0,0,0-2.859-6.783V89.583h26.509a2.7,2.7,0,1,0,2.567-3.509Z" transform="translate(-218.737 -68.014)" fill="#0ca0db"/>
      <path id="Path_585" data-name="Path 585" d="M235.155,67.826" transform="translate(-208.84 -61.537)" fill="none" stroke="#0ca0db" stroke-miterlimit="10" stroke-width="2.362"/>
      <path id="Path_586" data-name="Path 586" d="M238.552,256.848V225.526L222.56,206.385a2.211,2.211,0,0,0,.292-1.083,2.23,2.23,0,0,0-4.341-.723H194.36V206.1h24.175a2.211,2.211,0,0,0,2.875,1.283l15.618,18.693v30.755a2.231,2.231,0,1,0,1.524.014Z" transform="translate(-194.36 -109.541)" fill="#0ca0db"/>
    </g>
  </g>
</svg>
