<svg xmlns="http://www.w3.org/2000/svg" width="96" height="69.198" viewBox="0 0 96 69.198">
  <g id="Group_1136" data-name="Group 1136" transform="translate(-21.454 -19.414)">
    <path id="Path_935" data-name="Path 935" d="M112.525,19.414H26.382a4.928,4.928,0,0,0-4.928,4.928V83.685a4.928,4.928,0,0,0,4.928,4.927h86.143a4.927,4.927,0,0,0,4.929-4.927V24.342A4.928,4.928,0,0,0,112.525,19.414Zm3.994,63.514a4.755,4.755,0,0,1-4.756,4.756H27.142a4.754,4.754,0,0,1-4.754-4.756V25.1a4.753,4.753,0,0,1,4.754-4.754h84.621a4.753,4.753,0,0,1,4.756,4.754Z" fill="#adafb2"/>
    <path id="Path_936" data-name="Path 936" d="M113.5,22.122H28.921a4.75,4.75,0,0,0-4.752,4.751V84.659a4.751,4.751,0,0,0,4.752,4.752H113.5a4.752,4.752,0,0,0,4.753-4.752V26.873A4.751,4.751,0,0,0,113.5,22.122ZM78.322,23.354a.763.763,0,1,1-.763.763A.763.763,0,0,1,78.322,23.354Zm-14.987.223h13.64v1.078H63.335Zm50.718,61.391H28.365v-58.4h85.688Z" transform="translate(-1.757 -1.752)" fill="#bbcd32"/>
    <path id="Path_937" data-name="Path 937" d="M36.375,93.21H121.84V35.044H36.375ZM77.369,70.6a6.6,6.6,0,0,1-4.581-4.573l.826-.228A5.734,5.734,0,0,0,77.6,69.771Zm10.864,2.576H85.3v-.939h2V70.091h.94Zm14.788-34.984h15.624v15.6h-.865V39.051H103.021Zm-.215,51.477h14.759V74.929h.865v15.6H102.806ZM85.3,55.371h2.938v3.081h-.94V56.31h-2Zm-4.418,2.576a6.6,6.6,0,0,1,4.581,4.573l-.827.228a5.734,5.734,0,0,0-3.983-3.977Zm3.755,7.848.827.228A6.6,6.6,0,0,1,80.877,70.6l-.228-.825A5.734,5.734,0,0,0,84.632,65.795Zm-7.263-7.848.228.825a5.735,5.735,0,0,0-3.983,3.977l-.826-.228A6.6,6.6,0,0,1,77.369,57.947Zm-7.356-2.576h2.938v.939h-2v2.142h-.94Zm0,14.72h.94v2.142h2v.939H70.013Zm-30.122-31.9H55.514v.863H40.756V53.788h-.865Zm-.215,36.741h.865V89.665H55.3v.863H39.676Z" transform="translate(-9.655 -10.114)" fill="#05a1dc"/>
    <rect id="Rectangle_153" data-name="Rectangle 153" width="14.003" height="1.107" transform="translate(61.401 21.863)" fill="#adafb2"/>
    <path id="Path_938" data-name="Path 938" d="M180.249,27.273a.783.783,0,1,0-.783-.784A.784.784,0,0,0,180.249,27.273Z" transform="translate(-103.683 -4.071)" fill="#fff"/>
    <path id="Path_939" data-name="Path 939" d="M245.926,60.311h.89V44.228h-16.08v.89h15.19Z" transform="translate(-137.92 -16.056)" fill="#fff"/>
    <path id="Path_940" data-name="Path 940" d="M47.519,45.118h15.19v-.89H46.628V60.311h.89Z" transform="translate(-16.29 -16.056)" fill="#fff"/>
    <path id="Path_941" data-name="Path 941" d="M246.189,151.555h-.89v15.193H230.108v.89h16.081Z" transform="translate(-137.514 -87.306)" fill="#fff"/>
    <path id="Path_942" data-name="Path 942" d="M62.083,166.747H46.893V151.555H46v16.083h16.08Z" transform="translate(-15.885 -87.306)" fill="#fff"/>
    <path id="Path_943" data-name="Path 943" d="M169.591,106.9l.851-.235a6.794,6.794,0,0,0-4.716-4.715l-.235.85A5.907,5.907,0,0,1,169.591,106.9Z" transform="translate(-94.561 -54.2)" fill="#fff"/>
    <path id="Path_944" data-name="Path 944" d="M143.416,124.873l-.85.235a6.793,6.793,0,0,0,4.715,4.715l.235-.851A5.907,5.907,0,0,1,143.416,124.873Z" transform="translate(-79.51 -69.255)" fill="#fff"/>
    <path id="Path_945" data-name="Path 945" d="M170.442,125.108l-.851-.235a5.907,5.907,0,0,1-4.1,4.1l.235.851A6.8,6.8,0,0,0,170.442,125.108Z" transform="translate(-94.561 -69.255)" fill="#fff"/>
    <path id="Path_946" data-name="Path 946" d="M143.416,106.9a5.908,5.908,0,0,1,4.1-4.1l-.235-.85a6.793,6.793,0,0,0-4.715,4.715Z" transform="translate(-79.51 -54.2)" fill="#fff"/>
    <path id="Path_947" data-name="Path 947" d="M135.441,95.391H137.5v-.968h-3.024V97.6h.968Z" transform="translate(-74.176 -49.24)" fill="#fff"/>
    <path id="Path_948" data-name="Path 948" d="M181.1,139.632h-2.056v.968h3.024v-3.176H181.1Z" transform="translate(-103.426 -77.467)" fill="#fff"/>
    <path id="Path_949" data-name="Path 949" d="M181.1,97.6h.968V94.423h-3.024v.968H181.1Z" transform="translate(-103.426 -49.24)" fill="#fff"/>
    <path id="Path_950" data-name="Path 950" d="M137.5,139.632h-2.056v-2.209h-.968V140.6H137.5Z" transform="translate(-74.176 -77.467)" fill="#fff"/>
  </g>
</svg>
