<svg xmlns="http://www.w3.org/2000/svg" width="95.804" height="74.881" viewBox="0 0 95.804 74.881">
  <g id="Group_1125" data-name="Group 1125" transform="translate(-43.668 -73.972)">
    <path id="Path_855" data-name="Path 855" d="M139.24,171.832a6.718,6.718,0,0,0-4.7-4.619,5.594,5.594,0,0,0-4.719.754c-1.143.722-2.247,1.537-3.315,2.325-.541.4-1.083.8-1.631,1.189q-2.736,1.943-5.477,3.88-2.1,1.486-4.2,2.974c-2.163,1.535-4.323,3.071-6.523,4.637l-2.542,1.809.667.4c.127.078.23.142.337.2a6.109,6.109,0,0,1,3.127,7.7,6.184,6.184,0,0,1-7.623,3.933c-1.17-.376-2.35-.794-3.491-1.2q-.832-.295-1.665-.586l-2.818-.977q-3.689-1.278-7.379-2.563c-.056-.02-.117-.036-.178-.053s-.191-.052-.207-.054a.3.3,0,0,1,.021-.123c.135-.44.25-.687.342-.734.029-.014.113-.026.353.057l2.284.8q6.388,2.224,12.777,4.444a5.039,5.039,0,0,0,2.926.167,5.33,5.33,0,0,0,1.742-9.562,27.446,27.446,0,0,0-3.675-1.5l-.391-.138c-1.953-.691-3.943-1.373-5.868-2.032q-1.643-.562-3.284-1.128-2.59-.9-5.179-1.795-4.008-1.391-8.019-2.773c-.183-.063-.366-.13-.55-.2a8.178,8.178,0,0,0-2.186-.578,20.584,20.584,0,0,0-7.759.891l-.387.124c-3.074.98-6.253,1.994-9.259,3.3-3.8,1.647-7.614,3.438-11.3,5.17q-2.551,1.2-5.108,2.387a1.036,1.036,0,0,0-.574,1.535c.952,2.189,1.873,4.384,2.726,6.429q2.012,4.837,4.005,9.683a1.081,1.081,0,0,0,.567.644,1.034,1.034,0,0,0,.822-.06q1.44-.627,2.884-1.244,1.28-.55,2.559-1.1,1.757-.762,3.514-1.527c2.909-1.266,5.918-2.575,8.886-3.841a1.419,1.419,0,0,1,.927,0c3.977,1.444,8.011,2.934,11.913,4.375l2.87,1.06,2.2.816c1.77.657,3.6,1.336,5.4,1.987.468.17.934.348,1.4.526a19.839,19.839,0,0,0,6.15,1.617c.233.011.481.019.741.019a7.488,7.488,0,0,0,5.282-1.82c3.612-3.366,7.258-6.816,10.784-10.153l1.454-1.375q6.97-6.594,13.926-13.2c.466-.443.939-.88,1.412-1.317,1.177-1.088,2.394-2.212,3.49-3.42A6.541,6.541,0,0,0,139.24,171.832Z" transform="translate(0 -60.422)" fill="#09a2dd"/>
    <g id="Group_1125-2" data-name="Group 1125" transform="translate(79.729 73.972)">
      <path id="Path_856" data-name="Path 856" d="M185.106,111.437a.3.3,0,0,0-.3.3v2.58a1.613,1.613,0,0,1-1.611,1.611h-2.723a1.613,1.613,0,0,1-1.61-1.611v-7.609h-3.754v3.213l.045.013a2,2,0,0,1,1.483,1.9,1.945,1.945,0,0,1-3.875.243,1.987,1.987,0,0,1,1.469-2.143l.045-.012v-3.213H170.49l-.012.045a2,2,0,0,1-1.9,1.483,1.945,1.945,0,0,1-.244-3.875,1.981,1.981,0,0,1,2.144,1.469l.013.045h8.42l0-6.914a.855.855,0,0,0-.868-.758H176.8l-.012.045a2,2,0,0,1-1.9,1.485,1.946,1.946,0,0,1-.244-3.877,1.99,1.99,0,0,1,2.144,1.469l.012.045h1.241a1.661,1.661,0,0,1,1.658,1.66v15.191a.779.779,0,0,0,.777.779H183.2a.731.731,0,0,0,.779-.73v-3.026a.736.736,0,0,1,.735-.735h3.851V108.25l-.045-.013a2,2,0,0,1-1.484-1.9,1.945,1.945,0,1,1,3.89,0,2,2,0,0,1-1.483,1.9l-.045.013v2.259h1.9V93.566a.541.541,0,0,0-.54-.54H166.138a.541.541,0,0,0-.54.54v24.612a.542.542,0,0,0,.54.542H190.75a.542.542,0,0,0,.54-.542v-6.741h-6.184Z" transform="translate(-158.938 -86.35)" fill="#b0bc22"/>
      <path id="Path_857" data-name="Path 857" d="M182.349,73.972H149.958a3.369,3.369,0,0,0-3.369,3.37v32.391a3.369,3.369,0,0,0,3.369,3.369h32.391a3.369,3.369,0,0,0,3.369-3.369V77.342A3.369,3.369,0,0,0,182.349,73.972ZM181.23,105.8a2.832,2.832,0,0,1-2.829,2.829H153.79a2.831,2.831,0,0,1-2.827-2.829V81.188a2.831,2.831,0,0,1,2.827-2.827H178.4a2.831,2.831,0,0,1,2.829,2.827Z" transform="translate(-146.589 -73.972)" fill="#b0bc22"/>
      <path id="Path_858" data-name="Path 858" d="M187.809,88.5H163.2a2.129,2.129,0,0,0-2.127,2.126v24.612a2.13,2.13,0,0,0,2.127,2.128h24.612a2.131,2.131,0,0,0,2.128-2.128V90.625A2.13,2.13,0,0,0,187.809,88.5Zm1.273,20h-.032v6.741a1.243,1.243,0,0,1-1.241,1.242H163.2a1.243,1.243,0,0,1-1.241-1.242V90.625a1.242,1.242,0,0,1,1.241-1.241h24.612a1.242,1.242,0,0,1,1.241,1.241v16.943h.032Z" transform="translate(-155.996 -83.409)" fill="#fff"/>
      <path id="Path_859" data-name="Path 859" d="M190.685,110.788h-.044v6.741a.542.542,0,0,1-.54.542H165.489a.542.542,0,0,1-.54-.542V92.917a.541.541,0,0,1,.54-.54H190.1a.541.541,0,0,1,.54.54V109.86h.35V92.917a.892.892,0,0,0-.891-.891H165.489a.892.892,0,0,0-.891.891v24.612a.892.892,0,0,0,.891.892H190.1a.892.892,0,0,0,.891-.892v-6.741h-.307Z" transform="translate(-158.288 -85.7)" fill="#b0bc22"/>
      <path id="Path_860" data-name="Path 860" d="M186.509,86.5H161.9a2.831,2.831,0,0,0-2.827,2.827v24.612a2.831,2.831,0,0,0,2.827,2.829h24.612a2.832,2.832,0,0,0,2.829-2.829V89.326A2.831,2.831,0,0,0,186.509,86.5Zm2.478,27.439a2.481,2.481,0,0,1-2.478,2.479H161.9a2.48,2.48,0,0,1-2.477-2.479V89.326a2.48,2.48,0,0,1,2.477-2.477h24.612a2.48,2.48,0,0,1,2.478,2.477Z" transform="translate(-154.697 -82.11)" fill="#b0bc22"/>
      <path id="Path_861" data-name="Path 861" d="M190.342,110.138v6.741a.892.892,0,0,1-.891.892H164.839a.892.892,0,0,1-.891-.892V92.267a.892.892,0,0,1,.891-.891h24.612a.892.892,0,0,1,.891.891V109.21h.35V92.267a1.242,1.242,0,0,0-1.241-1.241H164.839a1.242,1.242,0,0,0-1.241,1.241v24.612a1.243,1.243,0,0,0,1.241,1.242h24.612a1.243,1.243,0,0,0,1.241-1.242v-6.741h-.35Z" transform="translate(-157.639 -85.051)" fill="#b0bc22"/>
      <path id="Path_862" data-name="Path 862" d="M187.159,87.5H162.547a2.48,2.48,0,0,0-2.477,2.477v24.612a2.48,2.48,0,0,0,2.477,2.479h24.612a2.481,2.481,0,0,0,2.478-2.479V89.976A2.48,2.48,0,0,0,187.159,87.5Zm2.128,27.089a2.131,2.131,0,0,1-2.128,2.128H162.547a2.13,2.13,0,0,1-2.127-2.128V89.976a2.129,2.129,0,0,1,2.127-2.126h24.612a2.13,2.13,0,0,1,2.128,2.126Z" transform="translate(-155.347 -82.76)" fill="#b0bc22"/>
      <path id="Path_863" data-name="Path 863" d="M191.388,113.567l.109-.03a1.911,1.911,0,0,0,1.419-1.815,1.857,1.857,0,0,0-3.715,0,1.911,1.911,0,0,0,1.419,1.815l.109.03v2.414h-3.939a.648.648,0,0,0-.648.647v3.026a.815.815,0,0,1-.866.817h-2.723a.866.866,0,0,1-.865-.866V104.415a1.573,1.573,0,0,0-1.571-1.572h-1.308l-.03-.109a1.9,1.9,0,0,0-2.049-1.406,1.859,1.859,0,0,0,.234,3.7,1.912,1.912,0,0,0,1.816-1.421l.03-.109h1.308a.943.943,0,0,1,.956.842l0,7h-8.574l-.03-.109a1.893,1.893,0,0,0-2.049-1.406,1.858,1.858,0,0,0,.234,3.7,1.912,1.912,0,0,0,1.816-1.419l.03-.109h3.94v3.367l-.109.03a1.9,1.9,0,0,0-1.406,2.048,1.858,1.858,0,0,0,3.7-.233,1.909,1.909,0,0,0-1.419-1.815l-.109-.03V112h3.929v7.7a1.525,1.525,0,0,0,1.522,1.524h2.723A1.526,1.526,0,0,0,186.8,119.7v-2.58a.387.387,0,0,1,.387-.387h6.14v-.753h-1.94Z" transform="translate(-161.02 -91.734)" fill="#fff"/>
      <path id="Path_864" data-name="Path 864" d="M186.683,116.958v2.58a1.569,1.569,0,0,1-1.568,1.568h-2.723a1.569,1.569,0,0,1-1.566-1.568v-7.653h-3.841v3.29l.077.021a1.953,1.953,0,0,1,1.451,1.858,1.9,1.9,0,0,1-3.788.238,1.943,1.943,0,0,1,1.438-2.1l.077-.021v-3.29h-3.863l-.021.077a1.956,1.956,0,0,1-1.858,1.452,1.9,1.9,0,0,1-.239-3.788,1.938,1.938,0,0,1,2.1,1.437l.021.077h8.5l0-6.957a.9.9,0,0,0-.912-.8h-1.275l-.021.077a1.955,1.955,0,0,1-1.858,1.453,1.9,1.9,0,0,1-.239-3.789,1.944,1.944,0,0,1,2.1,1.438l.021.077h1.275a1.617,1.617,0,0,1,1.615,1.616v15.191a.823.823,0,0,0,.821.822h2.723a.773.773,0,0,0,.822-.774v-3.026a.692.692,0,0,1,.692-.691h3.9v-2.337l-.077-.021A1.955,1.955,0,0,1,189,111.559a1.9,1.9,0,1,1,3.8,0,1.955,1.955,0,0,1-1.452,1.857l-.077.021v2.337h1.9v-.044h-1.853v-2.259l.045-.013a2,2,0,0,0,1.483-1.9,1.945,1.945,0,0,0-3.89,0,2,2,0,0,0,1.484,1.9l.045.013v2.259h-3.851a.736.736,0,0,0-.735.735v3.026a.731.731,0,0,1-.779.73h-2.723a.779.779,0,0,1-.777-.779V104.252a1.661,1.661,0,0,0-1.658-1.66h-1.241l-.012-.045a1.99,1.99,0,0,0-2.144-1.469,1.946,1.946,0,0,0,.244,3.877,2,2,0,0,0,1.9-1.485l.012-.045h1.241a.855.855,0,0,1,.868.758l0,6.914h-8.42l-.013-.045a1.981,1.981,0,0,0-2.144-1.469,1.946,1.946,0,0,0,.244,3.875,2,2,0,0,0,1.9-1.483l.012-.045H176.2v3.213l-.045.012a1.987,1.987,0,0,0-1.469,2.143,1.946,1.946,0,0,0,3.875-.243,2,2,0,0,0-1.483-1.9l-.045-.013V111.93h3.754v7.609a1.613,1.613,0,0,0,1.61,1.611h2.723a1.613,1.613,0,0,0,1.611-1.611v-2.58a.3.3,0,0,1,.3-.3h6.14v-.044h-6.14A.344.344,0,0,0,186.683,116.958Z" transform="translate(-160.857 -91.571)" fill="#fff"/>
      <path id="Path_865" data-name="Path 865" d="M187.107,116.652a.387.387,0,0,0-.387.387v2.58a1.526,1.526,0,0,1-1.524,1.524h-2.723a1.525,1.525,0,0,1-1.522-1.524v-7.7h-3.929v3.367l.109.03a1.909,1.909,0,0,1,1.419,1.815,1.858,1.858,0,0,1-3.7.233,1.9,1.9,0,0,1,1.406-2.048l.109-.03v-3.367h-3.94l-.03.109a1.912,1.912,0,0,1-1.816,1.419,1.858,1.858,0,0,1-.234-3.7,1.893,1.893,0,0,1,2.049,1.406l.03.109H181l0-7a.943.943,0,0,0-.956-.842h-1.308l-.03.109a1.912,1.912,0,0,1-1.816,1.421,1.858,1.858,0,0,1-.234-3.7,1.9,1.9,0,0,1,2.049,1.406l.03.109h1.308a1.573,1.573,0,0,1,1.571,1.572v15.191a.866.866,0,0,0,.865.866H185.2a.815.815,0,0,0,.866-.817v-3.026a.648.648,0,0,1,.648-.647h3.939v-2.414l-.109-.03a1.911,1.911,0,0,1-1.419-1.815,1.857,1.857,0,1,1,3.715,0,1.911,1.911,0,0,1-1.419,1.815l-.109.03V115.9h1.94v-.044h-1.9v-2.337l.077-.021a1.955,1.955,0,0,0,1.452-1.857,1.9,1.9,0,1,0-3.8,0,1.955,1.955,0,0,0,1.452,1.857l.077.021v2.337h-3.9a.692.692,0,0,0-.692.691v3.026a.773.773,0,0,1-.822.774h-2.723a.823.823,0,0,1-.821-.822V104.333a1.617,1.617,0,0,0-1.615-1.616h-1.275l-.021-.077a1.944,1.944,0,0,0-2.1-1.438,1.9,1.9,0,0,0,.239,3.789,1.955,1.955,0,0,0,1.858-1.453l.021-.077h1.275a.9.9,0,0,1,.912.8l0,6.957h-8.5l-.021-.077a1.938,1.938,0,0,0-2.1-1.437,1.9,1.9,0,0,0,.239,3.788,1.956,1.956,0,0,0,1.858-1.452l.021-.077h3.863v3.29l-.077.021a1.943,1.943,0,0,0-1.438,2.1,1.9,1.9,0,0,0,3.788-.238,1.953,1.953,0,0,0-1.451-1.858l-.077-.021v-3.29h3.841v7.653a1.569,1.569,0,0,0,1.566,1.568H185.2a1.569,1.569,0,0,0,1.568-1.568v-2.58a.344.344,0,0,1,.343-.343h6.14v-.044Z" transform="translate(-160.938 -91.652)" fill="#fff"/>
      <rect id="Rectangle_132" data-name="Rectangle 132" width="0.263" height="0.753" transform="translate(32.396 24.247)" fill="#fff"/>
      <rect id="Rectangle_133" data-name="Rectangle 133" width="0.263" height="0.044" transform="translate(32.396 24.159)" fill="#fff"/>
      <rect id="Rectangle_134" data-name="Rectangle 134" width="0.263" height="0.044" transform="translate(32.396 25.044)" fill="#fff"/>
      <rect id="Rectangle_135" data-name="Rectangle 135" width="0.044" height="0.044" transform="translate(32.309 25.044)" fill="#fff"/>
      <rect id="Rectangle_136" data-name="Rectangle 136" width="0.044" height="0.044" transform="translate(32.309 24.159)" fill="#fff"/>
      <rect id="Rectangle_137" data-name="Rectangle 137" width="0.044" height="0.044" transform="translate(32.353 24.159)" fill="#fff"/>
      <rect id="Rectangle_138" data-name="Rectangle 138" width="0.044" height="0.044" transform="translate(32.353 25.044)" fill="#fff"/>
      <path id="Path_866" data-name="Path 866" d="M238.8,143.05v.841h.044v-.841Z" transform="translate(-206.493 -118.847)" fill="#fff"/>
      <rect id="Rectangle_139" data-name="Rectangle 139" width="0.263" height="0.044" transform="translate(32.396 24.203)" fill="#fff"/>
      <rect id="Rectangle_140" data-name="Rectangle 140" width="0.263" height="0.044" transform="translate(32.396 25)" fill="#fff"/>
      <path id="Path_867" data-name="Path 867" d="M238.971,143.05h-.044v.841h.044v-.841Z" transform="translate(-206.574 -118.847)" fill="#fff"/>
      <rect id="Rectangle_141" data-name="Rectangle 141" width="0.25" height="0.753" transform="translate(32.747 24.247)" fill="#fff"/>
      <rect id="Rectangle_142" data-name="Rectangle 142" width="0.031" height="0.928" transform="translate(33.053 24.159)" fill="#fff"/>
      <path id="Path_868" data-name="Path 868" d="M240.052,142.925v.044h.294v.841h-.294v.044h.307v-.928Z" transform="translate(-207.305 -118.766)" fill="#fff"/>
      <rect id="Rectangle_143" data-name="Rectangle 143" width="0.044" height="0.044" transform="translate(32.659 24.159)" fill="#fff"/>
      <rect id="Rectangle_144" data-name="Rectangle 144" width="0.044" height="0.044" transform="translate(32.659 25.044)" fill="#fff"/>
      <rect id="Rectangle_145" data-name="Rectangle 145" width="0.044" height="0.044" transform="translate(32.703 24.159)" fill="#fff"/>
      <rect id="Rectangle_146" data-name="Rectangle 146" width="0.044" height="0.044" transform="translate(32.703 25.044)" fill="#fff"/>
      <path id="Path_869" data-name="Path 869" d="M239.8,143.094v.8h.044v-.841H239.8Z" transform="translate(-207.143 -118.847)" fill="#fff"/>
      <path id="Path_870" data-name="Path 870" d="M240.3,143.094v.753h-.25v.044h.294v-.841h-.294v.044Z" transform="translate(-207.305 -118.847)" fill="#fff"/>
      <path id="Path_871" data-name="Path 871" d="M239.927,143.891h.044v-.841h-.044Z" transform="translate(-207.224 -118.847)" fill="#fff"/>
    </g>
  </g>
</svg>
