<svg xmlns="http://www.w3.org/2000/svg" width="80" height="80" viewBox="0 0 80 80">
  <g fill="#CE153E">
    <g>
      <path d="M22.21 49.71c-.04.31-.27 1.02.04.66.53-.27.84-.49 1.33-.75.35-.13.71-.31 1.06-.53.4-.13.8-.31 1.19-.49.4-.18.84-.35 1.24-.44 1.02-.35 1.24-.44 1.99-.53.18 0 .27-.04.35-.04.4 0 .97-.18.97.22.09 0 .13.31-.04.4-.04 0-.22.04-.27.09l-1.55.44c-.49.13-1.02.35-1.5.53l-.35.18a25.48 25.48 0 0 0-4.2 2.21c-.13 0-.35.22-.4.31a.47.47 0 0 0-.31.44l-.13.53c-.04.4-.13.71-.22 1.02-.09.35-.04.75-.22 1.06-.04.04-.04.09-.04.13 0 .62-.27 1.11-.35 1.64l-.22.66a32.25 32.25 0 0 1-1.02 2.96c-.31.66-.53 1.33-.89 1.99a51.7 51.7 0 0 1-1.73 3.23c-.49.53-.89 1.19-1.42 1.77-.58.75-1.24 1.37-2.08 1.99-.4.31-.93.66-1.5.84-.71.27-1.46.35-2.12.18l-.85-.31c-.04 0-.04-.04-.09-.04a4.62 4.62 0 0 1-.84-1.02 6.86 6.86 0 0 1-.27-1.64c.04-.18 0-.35 0-.58.04-.49.04-.97.22-1.46 0-.09.09-.22.09-.31.04-.49.27-1.02.44-1.5a18.29 18.29 0 0 1 1.68-2.88c.44-.66.93-1.19 1.42-1.81.35-.35.62-.8 1.02-1.15.09-.09.13-.22.22-.27.53-.4.93-.88 1.42-1.28.53-.62 1.24-1.11 1.9-1.68.93-.66 1.77-1.37 2.74-1.99.4-.31.89-.71 1.28-.97.18-.13.4-.27.4-.53.09-.49.04-.8.22-1.33 0-.13.04-.31.04-.49l.27-2.12v-.09c-.04 0-.09.04-.13.04l-.53.62c-.71.75-1.33 1.55-2.12 2.26-.04.04-.13.09-.18.18-.53.44-.97.8-1.55 1.06-.4.22-.8.31-1.28.27-.13 0-.22-.04-.35-.04-.35 0-.66-.22-.84-.49-.4-.58-.4-1.06-.27-1.73.13-.4.18-.8.31-1.15.22-.53.58-1.46.8-1.9.13-.18.4-.27.62-.22.13.09.31.13.44.18.22.13.4.53.27.8l-.53 1.24c-.13.35-.27.66-.35.97-.18.31-.18.75-.22 1.06 0 .09.13.18.22.13l.62-.31c.71-.53 1.37-1.06 1.99-1.81l1.64-1.81.44-.66c.31-.31.53-.66.84-.93.18-.22.44-.27.75-.09.18 0 .35.09.44.13.27.18.49.4.53.75 0 .4.04.75 0 1.24-.09.31-.04.62-.09 1.02-.13.61-.17 1.27-.39 1.94zM9.1 68.03c.04.35.13.66.27.93.04.18.22.35.49.58.13.09.31.13.49.13.22-.04.4-.09.58-.18l1.15-.58c.71-.44 1.24-1.02 1.86-1.68.66-.71 1.28-1.64 1.86-2.57.49-.75.84-1.5 1.2-2.21.8-1.37 1.28-2.74 1.73-4.16.4-.93.71-1.9.89-2.83 0-.04.09-.13.09-.22.22-.44.31-1.28.44-1.77.04-.09.13-.35.13-.49 0-.04-.04-.09-.09-.09 0-.04-.04 0-.04 0l-.53.53c-.62.4-1.24 1.02-1.81 1.42l-.58.44c-.04.13-.18.22-.31.31-.66.49-1.2 1.02-1.68 1.5-.66.57-1.15 1.02-1.68 1.59a24.57 24.57 0 0 0-3.32 4.56 7.98 7.98 0 0 0-1.02 3.23 3.48 3.48 0 0 0-.12 1.56z"/>
      <path d="M29.33 52.45c-.66-.66-1.37-1.42-1.24-2.35 0-.09.04-.62.13-.75l.09-.27c.31-.71.31-.71.71-1.37a9.55 9.55 0 0 1 4.07-3.4c.44-.18 1.06.13 1.33.44l.18.44c.09.66-.09 1.28-.53 1.73-.66.75-1.37 1.5-2.21 2.12-.13.13-.35.22-.49.35-.18.18-.49.18-.75.22-.22.13-.44.09-.62-.13l-.18-.13s-.13 0-.13.04c-.27.4-.27 1.02-.27 1.42.04.18.13.31.31.49.22.31.58.4.88.4.18.04.31.04.49.04.49-.04 1.06 0 1.64-.22 2.17-.53 3.85-1.37 5.66-2.17.93-.44 1.68-.93 2.52-1.33.53-.31.44-.27 1.02-.66.31-.27.18-.13.62-.31.09-.09.04 0 .09.18.04.22.22.62 0 .8-.4.4-.13.27-.53.62-.89.66-1.77 1.06-2.7 1.64-.62.31-1.19.62-1.73.84-1.19.49-2.39 1.02-3.67 1.33l-1.28.35c-.66.18-.84.18-1.55.18-.62-.09-1.37-.14-1.86-.54zm3.98-6.63c-.04 0-.13.04-.18.04-1.11.49-1.95 1.06-2.39 2.08-.09.04-.09.18-.13.31.98-.57 1.91-1.46 2.7-2.43z"/>
      <path d="M50.83 51.35a2.82 2.82 0 0 1-1.28-1.02 5.24 5.24 0 0 1-.84-1.73c0-.13-.09-.13-.13-.13l-.75.75c-.89.71-1.73 1.46-2.61 2.03a6.09 6.09 0 0 1-2.88.98c-.53.04-.93-.22-1.15-.8l-.35-.66c-.18-.35-.18-.8-.04-1.15.13-.44.44-.88.62-1.28l.49-.62a14.9 14.9 0 0 1 2.74-2.48l.75-.44c.4-.22.84-.35 1.33-.35.22 0 .44.04.58.22.4.35.62.71.75 1.28 0 .09-.04.18-.09.27-.09.04-.13.09-.18 0l-.31-.27c-.09-.09-.22-.22-.4-.09-.44.09-.97.18-1.42.44-.53.27-1.02.62-1.46 1.06a.7.7 0 0 0-.31.27 7 7 0 0 0-1.64 1.95c-.27.31-.4.62-.49 1.02-.04.09.04.18.09.18.18.04.4.04.49.04.4-.09.88-.13 1.24-.35a7.66 7.66 0 0 0 2.3-1.5l1.06-.88c.18-.09.31-.22.44-.31.44-.53.93-.97 1.37-1.59a.41.41 0 0 1 .53-.13c.22.13.58.27.71.49.04.22.09.35.04.58-.04.35-.09.8-.09 1.19 0 .49.09.93.31 1.37.09.13.27.13.4.22.84.53 1.73.44 2.61.09.49-.18.8-.22 1.24-.49.75-.58 1.19-.71 1.86-1.46.18-.18.8-.93.93-1.15l.13-.09c0-.04.4-.04.4 0l.18.25c.18.4-.49 1.24-.71 1.55a6.74 6.74 0 0 1-4.96 2.87c-.09 0-.66.09-.8 0-.3.01-.47-.04-.7-.13z"/>
      <path d="M64.24 45.51c-.04-.04-.13 0-.31-.04a1.67 1.67 0 0 0-.75.04c-.27.09-.62.31-.93.49-.53.31-.93.8-1.42 1.19-.4.26-.75.66-1.42 1.5-.18.35-.49.75-.71 1.11a.52.52 0 0 1-.22.31c-.35.58-.49 1.19-.71 1.86 0 .09-.04.22-.04.35-.09.22-.44.35-.62.27a2.2 2.2 0 0 1-.84-.44c-.22-.13-.22-.27-.13-.49.13-.31.22-.62.4-.93.18-.35.31-.8.4-1.24.31-1.06.49-2.17.75-3.23.09-.31.09-.62.13-.88.13-.49.18-.93.18-1.37 0-.18.09-.31.27-.35.18-.04.31-.04.44.04.22.09.44.22.62.35.22.13.35.27.27.49-.04.62-.18 1.24-.27 1.86-.04 0 0 .04 0 .09 0 0 .04.04.04 0 .35-.27.49-.35.71-.62a5.03 5.03 0 0 1 2.21-1.11c.35-.18.75-.18 1.15-.09.35.09.71.18.97.49.04.04.04.13.09.22.04.04-.09.13-.18.13h-.08z"/>
    </g>
    <g>
      <path d="M.11 20.5h7.42v2.76H3.05v1.81h3.77v2.76H3.05v4.07H.12L.11 20.5zM9.12 20.5h4.14c2.9 0 4.82 1.49 4.82 3.77a3.5 3.5 0 0 1-2.12 3.27l2.4 4.36h-3.4L13 28.09h-.96v3.81H9.11l.01-11.4zm2.94 2.58v2.44h1.44c.89 0 1.48-.5 1.48-1.24 0-.71-.59-1.19-1.48-1.19l-1.44-.01zM19.97 20.5h7.58v2.76h-4.64v1.49h3.93v2.76h-3.93v1.64h4.64v2.76h-7.58V20.5zM29.15 20.5h7.58v2.76h-4.64v1.49h3.93v2.76h-3.93v1.64h4.64v2.76h-7.58V20.5zM41.88 20.51h7.42v2.76h-4.48v1.81h3.77v2.76h-3.77v4.07h-2.93l-.01-11.4zM50.81 20.51h2.93v6.46c0 1.37.78 2.28 1.97 2.28 1.16 0 1.92-.89 1.92-2.26v-6.47h2.93v6.53c0 3.09-1.96 5.14-4.91 5.14-2.92 0-4.85-2.05-4.85-5.14l.01-6.54zM62.61 20.51h7.58v2.76h-4.64v1.49h3.93v2.76h-3.93v1.64h4.64v2.76h-7.58V20.51zM71.79 20.51h2.93v8.64h5.17v2.76h-8.11l.01-11.4z"/>
    </g>
    <g>
      <path d="M24.21 35.23h3.28v.7h-2.54v1.66h2.21v.7h-2.21v2.23h-.74v-5.29zM33.52 37.89a2.73 2.73 0 0 1-2.72 2.74 2.73 2.73 0 0 1-2.71-2.75 2.73 2.73 0 0 1 2.71-2.75 2.73 2.73 0 0 1 2.72 2.76zm-.79 0c0-1.12-.86-2.03-1.93-2.03-1.06 0-1.92.9-1.92 2.02 0 1.11.86 2.01 1.92 2.01 1.07 0 1.93-.9 1.93-2zM34.73 35.22h1.85c1.17 0 1.94.63 1.94 1.6 0 .75-.47 1.31-1.23 1.51l1.32 2.19h-.86l-1.24-2.1h-1.03v2.1h-.74l-.01-5.3zm.75.67v1.86h1.17c.65 0 1.09-.37 1.09-.93s-.44-.93-1.09-.93h-1.17zM45 39.17h-2.53l-.55 1.36h-.79l2.19-5.3h.88l2.18 5.3h-.84L45 39.17zm-1.27-3.15-.99 2.48h1.99l-1-2.48z"/>
    </g>
    <g>
      <path d="M7.95 10.32h2.1c.93 0 1.65.6 1.65 1.42 0 .63-.46.99-.81 1.13.53.16.98.58.98 1.27 0 .79-.65 1.46-1.69 1.46H7.95v-5.28zm.74.66v1.61h1.28c.54 0 .94-.35.94-.8 0-.45-.41-.81-.94-.81H8.69zm0 2.24v1.72h1.4c.57 0 1-.37 1-.86s-.43-.86-.99-.86H8.69zM16.2 14.26h-2.53l-.55 1.36h-.79l2.18-5.3h.88l2.18 5.3h-.84l-.53-1.36zm-1.26-3.16-.99 2.48h1.99l-1-2.48zM18.51 10.31h.74v4.6H22v.7h-3.49v-5.3zM22.93 10.31h.74v4.6h2.75v.7h-3.49v-5.3zM32.01 12.97a2.73 2.73 0 0 1-2.72 2.74 2.73 2.73 0 0 1-2.71-2.75 2.73 2.73 0 0 1 2.71-2.75c1.5 0 2.72 1.24 2.72 2.76zm-.79 0c0-1.12-.86-2.03-1.93-2.03-1.06 0-1.92.9-1.92 2.02 0 1.11.86 2.01 1.92 2.01 1.07.01 1.93-.9 1.93-2zM34.77 11.01v4.6h-.74v-4.6h-1.68v-.7h4.11v.7h-1.69zM40.27 11.54a1.65 1.65 0 0 0-1.32-.63c-.64 0-1.03.28-1.03.71 0 1.17 2.96.64 2.96 2.52 0 .93-.76 1.56-1.94 1.56-.99 0-1.64-.39-2-.9l.54-.5c.36.46.87.7 1.47.7.73 0 1.14-.31 1.14-.81 0-1.29-2.96-.72-2.96-2.55 0-.85.75-1.44 1.85-1.44.83 0 1.5.36 1.82.82l-.53.52zM45.68 11.01v4.6h-.74v-4.6h-1.68v-.7h4.11v.7h-1.69zM53.14 12.97a2.73 2.73 0 0 1-2.72 2.74 2.73 2.73 0 0 1-2.71-2.75 2.73 2.73 0 0 1 2.71-2.75 2.75 2.75 0 0 1 2.72 2.76zm-.8 0c0-1.12-.86-2.03-1.93-2.03-1.06 0-1.92.9-1.92 2.02 0 1.11.86 2.01 1.92 2.01 1.07.01 1.93-.9 1.93-2zM63.47 10.31l-1.7 5.3h-.93l-1.25-4.37-1.26 4.37h-.89l-1.7-5.3h.83l1.33 4.39 1.26-4.39h.93l1.27 4.4 1.33-4.4h.78zM64.47 10.31h.74v5.3h-.74v-5.3zM67.45 11.53v4.09h-.75v-5.3h.81l2.94 4.11v-4.11h.74v5.3h-.81l-2.93-4.09z"/>
    </g>
  </g>
</svg>
