<svg xmlns="http://www.w3.org/2000/svg" width="80" height="100" viewBox="0 0 268 330">
  <g fill="#CE153E">
    <path d="M75.5 99.62c-.15 1.02-.88 3.35.15 2.19 1.75-.87 2.77-1.6 4.37-2.48a19.71 19.71 0 0 0 3.5-1.75c1.31-.44 2.62-1.02 3.94-1.6a22.97 22.97 0 0 1 4.08-1.46c3.35-1.16 4.08-1.46 6.56-1.75.58 0 .87-.15 1.17-.15 1.31 0 3.21-.58 3.21.73.29 0 .44 1.02-.15 1.31-.15 0-.73.15-.87.29l-5.1 1.46c-1.6.44-3.35 1.17-4.96 1.75l-1.17.58a84.3 84.3 0 0 0-13.85 7.28c-.44 0-1.17.73-1.31 1.02-.73.29-1.02.87-1.02 1.46l-.44 1.75c-.15 1.31-.44 2.33-.73 3.35-.29 1.17-.15 2.48-.73 3.5-.15.15-.15.29-.15.44 0 2.04-.88 3.64-1.17 5.39l-.73 2.19a109.95 109.95 0 0 1-3.35 9.76c-1.02 2.19-1.75 4.37-2.92 6.56a180.4 180.4 0 0 1-5.69 10.64c-1.6 1.75-2.92 3.93-4.67 5.83a32.76 32.76 0 0 1-6.85 6.56 16.11 16.11 0 0 1-4.96 2.77 11.73 11.73 0 0 1-7 .58l-2.77-1.02c-.15 0-.15-.15-.29-.15-1.02-1.02-2.04-2.04-2.77-3.35-.44-1.6-.87-3.64-.87-5.39.15-.58 0-1.17 0-1.89.15-1.6.15-3.21.73-4.81 0-.29.29-.73.29-1.02.15-1.6.88-3.35 1.46-4.96 1.6-3.35 3.5-6.7 5.54-9.47 1.46-2.19 3.06-3.93 4.67-5.97 1.17-1.17 2.04-2.62 3.35-3.79.29-.29.44-.73.73-.87 1.75-1.31 3.06-2.91 4.67-4.23 1.75-2.04 4.08-3.64 6.27-5.54 3.06-2.19 5.83-4.52 9.04-6.56 1.31-1.02 2.92-2.33 4.23-3.21.58-.44 1.31-.87 1.31-1.75.29-1.6.15-2.62.73-4.37 0-.44.15-1.02.15-1.6l.88-7v-.29c-.15 0-.29.14-.44.14l-1.75 2.04c-2.33 2.48-4.37 5.1-7 7.43-.15.15-.44.29-.58.58a22.97 22.97 0 0 1-5.1 3.5 6.91 6.91 0 0 1-4.23.87c-.44 0-.73-.15-1.17-.15a3.45 3.45 0 0 1-2.77-1.6c-1.31-1.9-1.31-3.5-.87-5.68.44-1.31.58-2.62 1.02-3.79.73-1.75 1.9-4.81 2.62-6.27a2.16 2.16 0 0 1 2.04-.73c.44.29 1.02.44 1.46.58.73.44 1.31 1.75.87 2.62l-1.75 4.08c-.44 1.17-.87 2.19-1.17 3.21-.58 1.02-.58 2.48-.73 3.5 0 .29.44.58.73.44l2.04-1.02a36.16 36.16 0 0 0 6.56-5.97l5.39-5.97 1.46-2.19c1.02-1.02 1.75-2.18 2.77-3.06.58-.73 1.46-.87 2.48-.29.58 0 1.17.29 1.46.44.87.58 1.6 1.31 1.75 2.48 0 1.31.14 2.48 0 4.08-.29 1.02-.15 2.04-.29 3.35-.44 2.04-.59 4.23-1.31 6.42zm-43.16 60.33c.15 1.17.44 2.19.87 3.06.15.58.73 1.17 1.6 1.9.44.29 1.02.44 1.6.44a7.35 7.35 0 0 0 1.89-.58l3.79-1.89c2.33-1.46 4.08-3.35 6.12-5.54 2.19-2.33 4.23-5.39 6.12-8.45 1.6-2.48 2.77-4.95 3.94-7.29 2.62-4.52 4.23-9.04 5.69-13.7a46.48 46.48 0 0 0 2.92-9.33c0-.15.29-.44.29-.73.73-1.46 1.02-4.23 1.46-5.83.15-.29.44-1.17.44-1.6 0-.15-.15-.29-.29-.29 0-.15-.15 0-.15 0l-1.75 1.75c-2.04 1.31-4.08 3.35-5.98 4.66l-1.89 1.46c-.15.44-.58.73-1.02 1.02-2.19 1.6-3.94 3.35-5.54 4.95a62.66 62.66 0 0 0-5.54 5.25 80.46 80.46 0 0 0-10.93 15.01c-1.75 3.35-3.21 7-3.35 10.64-.43 2.02-.58 3.63-.29 5.09z"/>
    <path d="M98.96 108.66c-2.19-2.19-4.52-4.67-4.08-7.73 0-.29.15-2.04.44-2.48l.29-.87c1.02-2.33 1.02-2.33 2.33-4.52a32.67 32.67 0 0 1 12.24-10.78c.29 0 .73-.15 1.17-.44 1.46-.58 3.5.44 4.37 1.46l.58 1.46a6.58 6.58 0 0 1-1.75 5.68 47.42 47.42 0 0 1-7.29 6.99c-.44.44-1.17.73-1.6 1.17-.58.58-1.6.58-2.48.73-.73.44-1.46.29-2.04-.44l-.58-.44s-.44 0-.44.15c-.88 1.31-.88 3.35-.88 4.66.15.58.44 1.02 1.02 1.6.73 1.02 1.89 1.31 2.91 1.31a5.8 5.8 0 0 0 1.6.15c1.6-.15 3.5 0 5.39-.73 7.14-1.75 12.68-4.52 18.66-7.14 3.06-1.46 5.54-3.06 8.31-4.37 1.75-1.02 1.46-.87 3.35-2.19 1.02-.87.58-.44 2.04-1.02.29-.29.15 0 .29.58.15.73.73 2.04 0 2.62-1.31 1.31-.44.87-1.75 2.04-2.92 2.19-5.83 3.5-8.89 5.39-2.04 1.02-3.94 2.04-5.68 2.77-3.94 1.6-7.87 3.35-12.1 4.37l-4.23 1.17c-2.19.58-2.77.58-5.1.58-2.02-.27-4.5-.42-6.1-1.73zm13.12-21.86c-.15 0-.44.15-.58.15-3.64 1.6-6.41 3.5-7.87 6.85-.29.15-.29.58-.44 1.02 3.21-1.9 6.27-4.82 8.89-8.02z"/>
    <path d="M169.79 105.03a9.5 9.5 0 0 1-4.23-3.35 17.14 17.14 0 0 1-2.77-5.68c0-.44-.29-.44-.44-.44l-2.48 2.48c-2.92 2.33-5.69 4.81-8.6 6.7-1.9 1.17-3.79 2.19-5.83 2.62a10 10 0 0 1-3.64.58c-1.75.15-3.06-.73-3.79-2.62l-1.16-2.19a4.94 4.94 0 0 1-.15-3.79c.44-1.46 1.46-2.92 2.04-4.23l1.6-2.04c2.77-3.06 5.69-5.97 9.04-8.16l2.48-1.46a8.78 8.78 0 0 1 4.37-1.16c.73 0 1.46.15 1.89.73a7.36 7.36 0 0 1 2.48 4.23c0 .29-.15.58-.29.87-.29.15-.44.29-.58 0l-1.02-.87c-.29-.29-.73-.73-1.31-.29-1.46.29-3.21.58-4.66 1.46a18.33 18.33 0 0 0-4.81 3.5c-.29.15-.58.29-1.02.87a23.14 23.14 0 0 0-5.39 6.41 7.2 7.2 0 0 0-1.6 3.35c-.15.29.15.58.29.58.58.15 1.31.15 1.6.15 1.31-.29 2.91-.44 4.08-1.17a25.35 25.35 0 0 0 7.58-4.95l3.5-2.91c.58-.29 1.02-.73 1.46-1.02 1.46-1.75 3.06-3.21 4.52-5.25a1.4 1.4 0 0 1 1.75-.44c.73.44 1.89.87 2.33 1.6.15.73.29 1.17.15 1.89a32.38 32.38 0 0 0-.29 3.93c0 1.6.29 3.06 1.02 4.52.29.44.87.44 1.31.73 2.77 1.75 5.68 1.46 8.6.29 1.6-.58 2.62-.73 4.08-1.6 2.48-1.89 3.94-2.33 6.12-4.81.58-.58 2.62-3.06 3.06-3.79l.44-.29c0-.15 1.31-.15 1.31 0l.58.87c.58 1.31-1.6 4.08-2.33 5.1-4.08 5.83-10.93 9.33-16.33 9.47-.29 0-2.19.29-2.62 0a5.33 5.33 0 0 1-2.34-.42z"/>
    <path d="M213.96 85.8c-.15-.15-.44 0-1.02-.15a4.97 4.97 0 0 0-2.48.14c-.87.29-2.04 1.02-3.06 1.6-1.75 1.02-3.06 2.62-4.67 3.93-1.31.87-2.48 2.19-4.67 4.95-.58 1.17-1.6 2.48-2.33 3.64-.15.44-.29.73-.73 1.02-1.17 1.89-1.6 3.93-2.33 6.12 0 .29-.15.73-.15 1.17-.29.73-1.46 1.17-2.04.87a7.27 7.27 0 0 1-2.77-1.46c-.73-.44-.73-.88-.44-1.6.44-1.02.73-2.04 1.31-3.06a16.83 16.83 0 0 0 1.31-4.08c1.02-3.5 1.6-7.14 2.48-10.64.29-1.02.29-2.04.44-2.91.44-1.6.58-3.06.58-4.52 0-.58.29-1.02.87-1.17.58-.15 1.02-.15 1.46.15.73.29 1.46.73 2.04 1.17.73.44 1.17.87.87 1.6-.15 2.04-.58 4.08-.88 6.12-.15 0 0 .15 0 .29 0 0 .15.15.15 0 1.17-.87 1.6-1.17 2.33-2.04 1.75-1.89 4.81-2.91 7.29-3.64a5.65 5.65 0 0 1 3.79-.29c1.17.29 2.33.58 3.21 1.6.15.15.15.44.29.73.15.15-.29.44-.58.44h-.27z"/>
  </g>
  <g fill="#CE153E">
    <path d="M2.71 3.4h24.42v9.08H12.37v5.97h12.42v9.08H12.37v13.41H2.71V3.4zM32.4 3.4h13.65c9.55 0 15.87 4.92 15.87 12.42 0 4.86-2.58 8.67-6.97 10.78l7.9 14.35H51.66l-6.44-12.54h-3.16v12.53H32.4V3.4zm9.66 8.5v8.02h4.74c2.93 0 4.86-1.64 4.86-4.1 0-2.34-1.93-3.92-4.86-3.92h-4.74zM68.13 3.41l24.95.01v9.08H77.79v4.92h12.94v9.08H77.79v5.39h15.29v9.08l-24.95-.01V3.41zM98.35 3.42l24.95.01v9.08h-15.29v4.92h12.94v9.08h-12.94v5.39h15.29v9.08l-24.95-.01V3.42zM140.29 3.43l24.42.01v9.08h-14.76v5.97h12.42v9.08h-12.42v13.41h-9.66V3.43zM169.7 3.44h9.66V24.7c0 4.51 2.57 7.5 6.5 7.5 3.81 0 6.33-2.93 6.33-7.44V3.44h9.66v21.5c0 10.19-6.45 16.93-16.17 16.92-9.61 0-15.99-6.74-15.99-16.93l.01-21.49zM208.59 3.45l24.95.01v9.08h-15.29v4.92h12.94v9.08h-12.94v5.39h15.29v9.08L208.59 41V3.45zM238.81 3.45h9.66l-.01 28.47h17.04V41h-26.7l.01-37.55z"/>
  </g>
  <g fill="#CE153E">
    <path d="M82.1 51.92h10.82v2.32h-8.37v5.48h7.28v2.32h-7.28v7.33H82.1V51.92zM112.78 60.68a9 9 0 0 1-8.97 9.02 9 9 0 0 1-8.94-9.05 9.01 9.01 0 0 1 8.94-9.07 9.04 9.04 0 0 1 8.97 9.1zm-2.62-.01c0-3.68-2.83-6.68-6.35-6.68-3.49 0-6.32 2.97-6.32 6.65 0 3.65 2.83 6.62 6.32 6.62a6.46 6.46 0 0 0 6.35-6.59zM116.75 51.9h6.1c3.84 0 6.38 2.07 6.38 5.26 0 2.48-1.55 4.31-4.06 4.99l4.36 7.22h-2.83l-4.09-6.92h-3.41v6.92h-2.45V51.9zm2.46 2.21v6.13h3.87c2.15 0 3.6-1.22 3.6-3.08 0-1.85-1.44-3.05-3.6-3.05h-3.87zM150.56 64.91h-8.34l-1.8 4.47h-2.59l7.2-17.46h2.89l7.19 17.47h-2.75l-1.8-4.48zm-4.16-10.39-3.27 8.17h6.57l-3.3-8.17z"/>
  </g>
  <g fill="#CE1F3F">
    <path d="M177.4 293.82a3.35 3.35 0 0 1-3.35-3.35v-131.3c0-5.41-4.4-9.81-9.81-9.81H99.29a9.82 9.82 0 0 0-9.81 9.81v131.3a3.35 3.35 0 0 1-6.7 0v-131.3c0-9.1 7.4-16.51 16.51-16.51h64.95c9.1 0 16.51 7.4 16.51 16.51v131.3a3.36 3.36 0 0 1-3.35 3.35z"/>
    <path d="M157.65 212.3h-51.77a5.38 5.38 0 0 1-5.37-5.37v-41.59a5.38 5.38 0 0 1 5.37-5.37h51.77a5.38 5.38 0 0 1 5.37 5.37v41.59a5.38 5.38 0 0 1-5.37 5.37zm-50.44-6.7h49.11v-38.93h-49.11v38.93zm50.44-38.93zM182.8 323.94H80.73a11.6 11.6 0 0 1-11.58-11.58 11.6 11.6 0 0 1 11.58-11.58H182.8a11.59 11.59 0 0 1 0 23.16zM80.73 307.48a4.89 4.89 0 0 0 0 9.76H182.8a4.89 4.89 0 0 0 0-9.76H80.73zM198.73 280.35c-6.4 0-11.61-5.21-11.61-11.61V219.9c0-2.71-2.2-4.91-4.91-4.91h-3.07a3.35 3.35 0 0 1 0-6.7h3.07c6.4 0 11.61 5.21 11.61 11.61v48.84a4.91 4.91 0 0 0 9.82 0v-94.77l-15.95-11.19a3.35 3.35 0 0 1 3.84-5.48l17.38 12.19a3.37 3.37 0 0 1 1.43 2.74v96.51a11.63 11.63 0 0 1-11.61 11.61z"/>
    <path d="M204.45 187.82c-.36 0-.72-.11-1.03-.34l-7.23-5.38a1.7 1.7 0 0 1-.69-1.38v-11.14a1.72 1.72 0 1 1 3.44 0v10.27l6.53 4.86c.76.57.92 1.65.35 2.41-.33.46-.84.7-1.37.7z"/>
  </g>
</svg>
