<svg xmlns="http://www.w3.org/2000/svg" width="80" height="100" viewBox="0 0 80 100">
  <g fill="#CE153E">
    <path d="M19.74 6.39a3.05 3.05 0 0 0-2.48-1.31c-.72 0-1.08.28-1.08.69 0 1.36 5.53.73 5.53 4.4 0 1.7-1.22 3.06-3.09 3.52v1.75h-2.37V13.8c-1.96-.21-3.04-1.1-3.66-2.07l2.07-1.94c.65.9 1.54 1.33 2.58 1.33.88 0 1.34-.28 1.34-.81 0-1.43-5.53-.76-5.53-4.46 0-1.71 1.29-3.02 3.2-3.39V.76h2.37v1.71a4.8 4.8 0 0 1 3.09 1.95l-1.97 1.97zM28.08 9.98c0-.81-.64-1.36-1.61-1.36-.81 0-1.41.25-1.89.53l-1.27-.94.89-5.78h6.05v2.49h-3.71l-.24 1.37c.23-.05.62-.07.81-.07 2.3 0 3.82 1.52 3.82 3.82 0 2.39-1.75 4-4.4 3.99-1.91 0-3.31-.85-4.01-2.02l2.07-1.84c.51.81 1.17 1.18 1.89 1.18.97.01 1.6-.54 1.6-1.37zM33.83 15.75h-2.39l1.06-5.07h2.92l-1.59 5.07zM36.85 8.11c0-3.43 1.95-5.94 4.6-5.94 2.78 0 4.77 2.51 4.74 5.92.03 3.43-1.91 5.94-4.6 5.94-2.74 0-4.74-2.51-4.74-5.92zm6.49 0c0-1.96-.71-3.27-1.87-3.27-1.06 0-1.77 1.29-1.77 3.25 0 1.98.72 3.27 1.84 3.27 1.11 0 1.8-1.29 1.8-3.25zM47.35 8.11c0-3.43 1.95-5.94 4.6-5.94 2.78 0 4.77 2.51 4.74 5.92.03 3.43-1.91 5.94-4.6 5.94-2.74 0-4.74-2.51-4.74-5.92zm6.49 0c0-1.96-.71-3.27-1.87-3.27-1.06 0-1.77 1.29-1.77 3.25 0 1.98.72 3.27 1.84 3.27 1.11.01 1.8-1.28 1.8-3.25zM57.86 8.11c0-3.43 1.95-5.94 4.6-5.94 2.78 0 4.77 2.51 4.74 5.92.03 3.43-1.91 5.94-4.6 5.94-2.75.01-4.74-2.5-4.74-5.92zm6.48.01c0-1.96-.71-3.27-1.87-3.27-1.06 0-1.77 1.29-1.77 3.25 0 1.98.72 3.27 1.84 3.27 1.11 0 1.8-1.29 1.8-3.25z"/>
  </g>
  <g>
    <path fill="none" stroke="#CE1F3F" stroke-linecap="round" stroke-linejoin="round" stroke-miterlimit="10" stroke-width="2.45" d="M71.67 58.17c-1.23-2.3-2.12-3.95-11.75-1.21a35.49 35.49 0 0 0-8.61 3.7l-2.37 1.44-25.18-7.28-6.98 3.75 16.91 12.78-10.43 6.35-10.87-3.21-4.51 2.42 10.8 10.87 40.8-19.24c2.82-1.36 14.22-6.59 12.19-10.37z"/>
  </g>
  <g fill="#CE153E">
    <path d="M11.95 24.49h-4.4l-.95 2.36H5.23l3.8-9.22h1.53l3.8 9.23h-1.45l-.96-2.37zm-2.2-5.48-1.73 4.32h3.47l-1.74-4.32zM15.97 17.63h1.29v9.23h-1.3l.01-9.23zM19.88 17.63h3.22c2.03 0 3.37 1.09 3.37 2.78 0 1.31-.82 2.27-2.14 2.63l2.3 3.81h-1.5l-2.16-3.66h-1.8v3.66h-1.3l.01-9.22zm1.29 1.17v3.24h2.04c1.14 0 1.9-.65 1.9-1.63 0-.98-.76-1.61-1.9-1.61h-2.04zM33.32 19.71v7.15h-1.3v-9.23h1.5l3.32 5.28 3.31-5.28h1.32v9.23h-1.3v-7.15l-3.43 5.34-3.42-5.34zM44.1 17.64h1.3v9.23h-1.29l-.01-9.23zM48.01 17.64h1.3v8h4.78v1.22h-6.07l-.01-9.22zM55.7 17.64h5.86v1.22H57v2.76h3.99v1.22H57v2.79h4.56v1.22H55.7v-9.21zM68.59 19.79a2.89 2.89 0 0 0-2.29-1.09c-1.11 0-1.8.49-1.8 1.24 0 2.03 5.15 1.11 5.15 4.39 0 1.63-1.32 2.72-3.38 2.72-1.73 0-2.85-.68-3.48-1.57l.94-.88a3.1 3.1 0 0 0 2.56 1.22c1.27 0 1.99-.55 1.99-1.41 0-2.25-5.15-1.25-5.15-4.43 0-1.48 1.31-2.5 3.22-2.5 1.44 0 2.6.63 3.17 1.43l-.93.88zM74.56 18.11c0 1.13-.86 2.01-1.99 2.01a2 2 0 0 1-2-2.01 2 2 0 0 1 2-2.02 2 2 0 0 1 1.99 2.02zm-3.55 0c0 .87.69 1.59 1.56 1.59.9 0 1.56-.7 1.56-1.59 0-.88-.69-1.6-1.56-1.6-.87 0-1.56.72-1.56 1.6zm.78-1.05h.84c.39 0 .8.13.8.61 0 .35-.23.51-.5.57l.6.88h-.54l-.56-.85h-.16v.85h-.48v-2.06zm.48.38v.49h.33c.19 0 .34-.05.34-.25 0-.19-.14-.24-.34-.24h-.33zM19.33 31.19v8h-1.29v-8h-2.92v-1.22h7.15v1.22h-2.94zM23.79 29.97h3.22c2.03 0 3.37 1.09 3.37 2.78 0 1.31-.82 2.27-2.14 2.63l2.3 3.81h-1.5l-2.16-3.66h-1.8v3.66h-1.3l.01-9.22zm1.29 1.16v3.24h2.04c1.14 0 1.9-.65 1.9-1.63 0-.98-.76-1.61-1.9-1.61h-2.04zM38.36 36.84h-4.4l-.95 2.36h-1.37l3.8-9.22h1.53l3.8 9.23h-1.45l-.96-2.37zm-2.2-5.49-1.73 4.32h3.47l-1.74-4.32zM44.83 37.76l2.88-7.79h1.35l-3.51 9.22h-1.53l-3.51-9.23h1.45l2.87 7.8zM50.71 29.97h5.86v1.22h-4.56v2.76H56v1.22h-3.99v2.79h4.56v1.22h-5.86v-9.21zM58.51 29.97h1.29v8h4.78v1.22h-6.07v-9.22zM23.83 46.18l1.65-4.45h.77L24.24 47h-.87l-2.01-5.27h.83l1.64 4.45zM31.95 44.38a2.71 2.71 0 0 1-2.71 2.72 2.72 2.72 0 0 1-2.7-2.73 2.72 2.72 0 0 1 2.7-2.74 2.75 2.75 0 0 1 2.71 2.75zm-.79 0c0-1.11-.85-2.01-1.92-2.02-1.05 0-1.91.9-1.91 2.01 0 1.1.85 2 1.91 2s1.92-.89 1.92-1.99zM33.08 41.73h.75v3.22c0 .86.53 1.42 1.32 1.42.8 0 1.32-.57 1.32-1.42v-3.22h.75v3.22c0 1.3-.83 2.15-2.07 2.15-1.24 0-2.06-.86-2.06-2.16l-.01-3.21zM42.42 42.87c-.35-.3-.8-.5-1.39-.5-1.05 0-1.9.9-1.9 2.01 0 1.1.85 2 1.97 2 .52 0 1-.17 1.33-.49l.49.54a2.5 2.5 0 0 1-1.87.67 2.7 2.7 0 0 1-2.71-2.73c0-1.51 1.2-2.74 2.69-2.74.84 0 1.42.24 1.88.66l-.49.58zM47.58 44.69h-2.94v2.32h-.74v-5.27h.74v2.25h2.94v-2.25h.75v5.27h-.75v-2.32zM49.81 41.74h3.35v.7h-2.61v1.58h2.28v.7h-2.28v1.6h2.61v.7h-3.35v-5.28zM54.27 41.74h1.84c1.16 0 1.92.63 1.92 1.59 0 .75-.47 1.3-1.23 1.5l1.32 2.18h-.86l-1.23-2.09H55v2.09h-.74l.01-5.27zm.74.67v1.85h1.17c.65 0 1.09-.37 1.09-.93s-.44-.92-1.09-.92h-1.17z"/>
  </g>
</svg>
