<svg xmlns="http://www.w3.org/2000/svg" width="750" height="850" viewBox="0 0 750 850">
<style>
  /* <![CDATA[ */
    #c1, #c2, #c3, #c4, #c5, #c6, #c7, #c8, #c9, #c10, #c11, #c12, #c13, #c14, #c15, #c16, #c17, #c18, #c19, #c20, #c21, #c22, #c23, #c24, #c25, #c26, #c27, #c28, #c29, #c30, #c31, #c32, #c33, #c34, #c35, #c36, #c37, #c38, #c39, #c40, #c41, #c46 {
      transform: translate(376px, 580px) scale(0) translate(-376px, -580px);
    }

    #c1, #c6, #c8, #c11, #c15, #c18, #c26, #c32, #c36, #c41 {
      animation: circles 1s .2a ease-out forwards;
    }

    #c3, #c5, #c9, #c13, #c20, #c23, #c29, #c34, #c38, #c39 {
      animation: circles 1.1s ease-out forwards;
    }

    #c2, #c7, #c12, #c17, #c22, #c25, #c27, #c31, #c35, #c40, #c46 {
      animation: circles .9s .3s ease-out forwards;
    }

    #c4, #c10, #c14, #c16, #c19, #c21, #c24, #c28, #c30, #c33, #c37 {
      animation: circles .8s .5s ease-out forwards;
    }

    @keyframes circles {
      0% {
        transform: translate(376px, 580px) rotate(0deg) scale(0) translate(-376px, -580px);
      }
      100% {
        transform: translate(376px, 580px) rotate(-15deg) scale(1) translate(-376px, -580px);
      }
      0%, 100% {
        opacity: 0;
      }
      5%, 70% {
        opacity: 1;
      }
    }

    #c42, #c43, #c44, #c45, #c47, #c48, #c49, #c50, #c51, #c52, #c53, #c54, #c55, #c56, #c57, #c58, #c59, #c60, #c61 {
      transform: translate(376px, 580px) scale(0) rotate(0deg) translate(-376px, -580px);
    }

    #c42, #c43, #c44 {
      animation: birds 1.2s ease-out forwards;
    }

    #c45, #c47, #c48 {
      animation: birds .6s .4s ease-out forwards;
    }

    #c49, #c50, #c51 {
      animation: birds .9s .1s ease-out forwards;
    }

    #c52, #c53, #c54, #c55 {
      animation: birds 1s .2s ease-out forwards;
    }

    #c56, #c57, #c58, #c59, #c60, #c61 {
      animation: birds .8s .4s ease-out forwards;
    }

    @keyframes birds {
      0% {
        transform: translate(376px, 580px) rotate(0deg) scale(0) translate(-376px, -580px);
      }
      100% {
        transform: translate(376px, 580px) rotate(15deg) scale(1) translate(-376px, -580px);
      }
      0%, 100% {
        opacity: 0;
      }
      5%, 70% {
        opacity: 1;
      }
    }


  /* ]]> */
  </style>
  <path id="c1" fill="#FFF" d="M142.8 83a4.4 4.4 0 0 0 8.5-2.6 4.4 4.4 0 0 0-8.5 2.5"/>
  <path id="c2" fill="#FFA31D" d="M44.8 205.7c1-.2 1.7-1 1.6-2-.2-1-1-1.7-2-1.5-1 0-1.7 1-1.5 2 0 .9 1 1.6 2 1.5"/>
  <path id="c3" fill="#FFF" d="M91.8 207.9c2 .8 4.3 0 5.1-2 .9-2 0-4.2-2-5-1.9-1-4.2 0-5 1.9-.9 2 0 4.2 2 5"/>
  <path id="c4" fill="#C10230" d="M110.8 294.1a4.4 4.4 0 1 0 .2-8.9 4.4 4.4 0 0 0-.2 9M33.6 41.6a12.2 12.2 0 1 0 24.1-3.2 12.2 12.2 0 0 0-24 3.2"/>
  <path id="c5" fill="#CD153E" d="M298.8 36.8a6.4 6.4 0 1 0 5.2-11.6 6.4 6.4 0 0 0-5.2 11.6"/>
  <path id="c6" fill="#FFA31D" d="M113.3 267a2 2 0 1 0 4.2-.4 2 2 0 0 0-4.2.4"/>
  <path id="c7" fill="#CD153E" d="M388 410a17 17 0 1 0-26.3 21.2A17 17 0 0 0 388 410"/>
  <path id="c8" fill="#0D0047" d="M67.2 143.7a11 11 0 1 0 5.1-21.4 11 11 0 0 0-5.1 21.4"/>
  <path id="c9" fill="#C10230" d="M266.8 62.8a6.5 6.5 0 1 0 1-13 6.5 6.5 0 0 0-1 13M234.3 275.1a5 5 0 1 0 9.5-3 5 5 0 0 0-9.5 3"/>
  <path id="c10" fill="#CD153E" d="M291.3 374.6a3.3 3.3 0 1 0 4-5.2 3.3 3.3 0 0 0-4 5.2"/>
  <path id="c11" fill="#FFF" d="M249.6 232.8a8.2 8.2 0 1 0 8.6-14 8.2 8.2 0 0 0-8.6 14M141.4 38.9a3 3 0 1 0 5.9-1.2 3 3 0 0 0-5.9 1.2"/>
  <g id="c12">
    <path fill="#FFF" d="M310.8 306.6a5 5 0 1 0-.8 10.1 5 5 0 0 0 .8-10"/>
    <path fill="#FFA31D" d="M295.7 323a1.9 1.9 0 1 0 2.6 2.6 1.9 1.9 0 0 0-2.6-2.7"/>
  </g>
  <path id="c13" fill="#C10230" d="M198.3 181.3a25.4 25.4 0 1 0 41.9-28.7 25.4 25.4 0 0 0-41.9 28.8"/>
  <g id="c14">
    <path fill="#CD153E" d="M98.3 485.5A12.1 12.1 0 0 1 84 466a19.7 19.7 0 1 0 17 17.1c-.8 1-1.7 1.8-2.8 2.5"/>
    <path fill="#0D0047" d="M87.4 468.8A7.9 7.9 0 1 0 96 482a7.9 7.9 0 0 0-8.6-13.3M106.8 445.5a7 7 0 1 0-10-10 7 7 0 0 0 10 10"/>
  </g>
  <path id="c15" fill="#FFA31D" d="M372 447.3a2.6 2.6 0 1 0-3.4 3.9 2.6 2.6 0 0 0 3.4-3.9"/>
  <path id="c16" fill="#CD153E" d="M483 504.1a5.3 5.3 0 1 0 10.3-2.7 5.3 5.3 0 0 0-10.2 2.8"/>
  <path id="c17" fill="#FFF" d="M481.8 272.5a7.7 7.7 0 1 0 14.1-6.2 7.7 7.7 0 0 0-14 6.2M523.3 31a4.7 4.7 0 1 0 6.2-7 4.7 4.7 0 0 0-6.2 7M695.8 493.5a3.7 3.7 0 1 0-5.3 5.3 3.7 3.7 0 0 0 5.3-5.3"/>
  <path id="c18" fill="#FFA31D" d="m474.1 225.3.3-.1-.3-.2zM567.6 7h-1l.5.9zM650 289a2 2 0 1 0 3.3 2 2 2 0 1 0-3.2-2"/>
  <path id="c19" fill="#CD153E" d="m629.8 488.7.4-.7-.4-.2v.9z"/>
  <path id="c20" fill="#FFF" d="M664.6 444.8z"/>
  <path id="c21" fill="#C10230" d="M654.9 462.1a8.4 8.4 0 1 0 11.8-11.8 8.4 8.4 0 0 0-11.8 11.8"/>
  <g id="c22">
    <path fill="#FFA31D" d="M551.2 496.2a2.8 2.8 0 0 0-5.4-1.4c-.1.7 0 1.4.3 2l1 1.1.7.3c1.5.4 3-.5 3.4-2"/>
    <path fill="#FFF" d="M546 500.3a4.9 4.9 0 1 0-9 4 4.9 4.9 0 0 0 9-4"/>
  </g>
  <path id="c23" fill="#FFF" d="M455.5 111.8a4.2 4.2 0 1 0-3.7-7.6 4.2 4.2 0 0 0 3.7 7.6"/>
  <path id="c24" fill="#FFA31D" d="M575.6 55.1a7.7 7.7 0 1 0 7.6-13.3 7.7 7.7 0 0 0-7.6 13.3"/>
  <path id="c25" fill="#0D0047" d="M633.5 187.9a9.4 9.4 0 1 0 2.8-18.5 9.4 9.4 0 0 0-2.8 18.5"/>
  <g id="c26">
    <path fill="#FFF" d="M515.3 179.7a2.2 2.2 0 0 0 3.4-2.7 6.9 6.9 0 0 1-4.3.5c-.1.8.2 1.7.9 2.2"/>
    <path fill="#CD153E" d="M511.1 161a7.7 7.7 0 1 0 2-15.1 7.7 7.7 0 0 0-2 15.2"/>
    <path fill="#FFF" d="M515.8 167a3.7 3.7 0 1 0-.2 7.4 3.7 3.7 0 0 0 .2-7.5"/>
  </g>
  <g id="c27">
    <path fill="#FFF" d="M623.4 435c-.5.5-1 .8-1.6 1.2a7.5 7.5 0 1 0 14-2.9 7.5 7.5 0 0 0-7.2-4c-1.4 2.1-3.2 4-5.2 5.7M640.4 395.2a2.3 2.3 0 1 0 .3-4.6 2.3 2.3 0 0 0-.3 4.6"/>
    <path fill="#C10230" d="M590.6 429.1a21.8 21.8 0 1 0 34-27.3 21.8 21.8 0 0 0-34 27.3"/>
  </g>
  <path id="c28" fill="#0D0047" d="M438.7 98.4a6.7 6.7 0 1 0 4.6-12.6 6.7 6.7 0 0 0-4.6 12.6"/>
  <g id="c29">
    <path fill="#CD153E" d="m684.5 344.7 12.2-4.5a3.2 3.2 0 0 1 4.3 3.7l-.4 2.4a22.8 22.8 0 1 0-17.4-.7c.3-.4.8-.7 1.3-1"/>
    <path fill="#FFF" d="m697.8 343.3-12.1 4.4 9.9 8.3z"/>
  </g>
  <path id="c30" fill="#FFF" d="M519.6 413.4a4.5 4.5 0 1 0-8.8 1.4 4.5 4.5 0 0 0 8.8-1.4"/>
  <path id="c31" fill="#0D0047" d="M155.3 577.8a28.6 28.6 0 1 0 57.1-4.6 28.6 28.6 0 0 0-57 4.6"/>
  <path id="c32" fill="#CD153E" d="M334 487.7a22.1 22.1 0 1 0 35.7-26 22.1 22.1 0 0 0-35.7 26"/>
  <g id="c33">
    <path fill="#FFF" d="m231.4 526.6 10.7.9-.1-7a8 8 0 0 1-.6-5.5l-.9-1.7-9 13.4z"/>
    <path fill="#0D0047" d="m244.6 527.9 5.2-3.2a8 8 0 0 1-5.3-1.4v4.6z"/>
    <path fill="#FFF" d="M262.9 524a2 2 0 1 0 3.1 2.8 2 2 0 0 0-3.1-2.9"/>
    <path fill="#FFA31D" d="M252.6 521.1a5.5 5.5 0 1 0-7-8.5 5.5 5.5 0 0 0 7 8.5"/>
  </g>
  <path id="c34" fill="#FFA31D" d="M714.1 527.1a6.3 6.3 0 1 0-9.5 8.3 6.3 6.3 0 0 0 9.5-8.3"/>
  <path id="c35" fill="#CD153E" d="M506.3 560a4.8 4.8 0 1 0 7.6-5.7 4.8 4.8 0 0 0-7.6 5.8"/>
  <path id="c36" fill="#FFF" d="M648.5 491.6a8.8 8.8 0 1 0-16 7.2 8.8 8.8 0 0 0 16-7.2"/>
  <path id="c37" fill="#0D0047" d="M633.8 621a5.1 5.1 0 1 0-8 6.4 5.1 5.1 0 0 0 8-6.4"/>
  <path id="c38" fill="#C10230" d="M679.9 616.3a7.8 7.8 0 1 0 7.8-13.6 7.8 7.8 0 0 0-7.8 13.6"/>
  <path id="c39" fill="#CD153E" d="M581.8 584.7a5.4 5.4 0 1 0-10.5 2 5.4 5.4 0 0 0 10.5-2"/>
  <path id="c40" fill="#FFA31D" d="M692 650.8a2.7 2.7 0 1 0-4.1 3.3 2.7 2.7 0 0 0 4.2-3.3"/>
  <path id="c41" fill="#FFF" d="M638.5 647.8a5.3 5.3 0 1 0 3.8-10 5.3 5.3 0 0 0-3.8 10M607.2 682.6a3.5 3.5 0 1 0 6.8-1.4 3.5 3.5 0 0 0-6.8 1.4"/>
  <path id="c42" fill="#C10230" d="m603.8 110.2 12.7 2.6 15-5.6 11.8 11 12.6 2.4-21-19.1a4 4 0 0 0-4.2-.9l-26.9 9.6z"/>
  <path id="c43" fill="#FFF" d="m87.2 167.4-12.7-2.3-15 5.8L47.6 160 35 157.8l21.3 18.9a4 4 0 0 0 4.2.8l26.7-10z"/>
  <path id="c44" fill="#FFA31D" d="m60.9 225.4 8.6 4.5 12.1-.7 6.2 10.4 8.6 4.5-11.2-18.4a3 3 0 0 0-2.8-1.5L61 225.4zM223.1 255.8l-9-3.9-12 1.9-7-10-9-3.8 12.7 17.5a3 3 0 0 0 3 1.3l21.3-3z"/>
  <path id="c45" fill="#C10230" d="m274.5 227.8 9.8-1 9.5-7.5 11 5.1 9.7-1-19.6-9a3 3 0 0 0-3.2.3l-17.2 13.1zM226.7 322.6l15.2-5 12.9-15.4 19.3 4.6 15.2-5-34.5-7.8a5 5 0 0 0-5 1.6l-23.1 27zM625.3 295.2 610 290l-19.4 4.4-12.7-15.5-15.1-5.1 22.8 27.1a5 5 0 0 0 4.9 1.7l34.7-7.4z"/>
  <circle id="c46" cx="91.7" cy="355.1" r="18.6" fill="#FFF"/>
  <path id="c47" fill="#FFA31D" d="m4.3 92.6 9.7-1.1 9.5-7.5 11 5.2 9.7-1.1-19.6-9a3 3 0 0 0-3.2.3L4.3 92.6z"/>
  <path id="c48" fill="#C10230" d="m260.5 624.3 15.2-5 12.9-15.3 19.3 4.5 15.2-5-34.5-7.8a5 5 0 0 0-5 1.7l-23.1 26.9z"/>
  <path id="c49" fill="#FFA31D" d="m240.5 668-15.2-5.2-19.4 4.3-12.7-15.4-15.1-5.2 22.8 27.2a5 5 0 0 0 4.9 1.7l34.7-7.4z"/>
  <path id="c50" fill="#C10230" d="M669.2 253.7h19.7l20.8-12.8 20.7 12.8H750l-37.1-22.3a6.2 6.2 0 0 0-6.4 0l-37.3 22.3zM543.5 160.5l7.4 10.5 14.8 6.4 1 16 7.4 10.4-2.1-28.3a4 4 0 0 0-2.4-3.5l-26.1-11.5zM411.4 415.4l9.4 2.8 11.7-3 8 9 9.3 2.9-14.4-16a3 3 0 0 0-3-1l-21 5.3zM443 266.5l-8.5-4.7-12.2.6-6-10.6-8.5-4.7 10.8 18.7a3 3 0 0 0 2.8 1.5l21.6-.8zM424.6 234.8l15-5.6 12.3-15.7 19.5 3.9 15-5.6-34.7-6.5a5 5 0 0 0-5 1.8l-22.1 27.7zM121.5 143l9.3 3 11.8-3.1 8 9 9.3 2.9-14.4-16a3 3 0 0 0-3-1l-21 5.3zM360.4 140.8l-8.6-4.7-11.4-.6-6.7-9.3-8.6-4.7 12.1 16.4c.6.9 1.7 1.5 2.8 1.5l20.4 1.4zM0 633.3l19.2-4.4 17.4-17.2 23 7.8 19.1-4.5-41.2-13.4a6.2 6.2 0 0 0-6.2 1.5L0 633.3zM550.9 433.8l-18.7-6.1-23.8 5.6-15.8-18.7-18.6-6 28.4 32.8a6.2 6.2 0 0 0 6 2l42.5-9.6z"/>
  <path id="c51" fill="#0D0047" d="M412.7 587.5H403l-10.3 6.3-10.4-6.4h-9.7l18.5 11.2c1 .5 2.2.5 3.2 0l18.5-11.1zM544 291l-14.2 7.6-10 17.3-19.9-1.1-14 7.6 35.4 1.6a5 5 0 0 0 4.6-2.5l18-30.5zM357.8 292.2l8 5.6 12.2.6 4.9 11.1 8 5.5-8.9-19.6a3 3 0 0 0-2.6-1.8l-21.6-1.4zM238 247.6l9.5 1.7 11.3-4.5 9 8 9.7 1.8-16.3-14.2a3 3 0 0 0-3-.6l-20.3 7.8zM309 158.4l4.3 8.8 10.2 6.6-1.2 12 4.2 8.8 2-21.4a3 3 0 0 0-1.4-3l-18-11.8zM278.6 76.8l9.2 3.3 11.9-2.6 7.6 9.4 9.2 3.1-13.8-16.5a3 3 0 0 0-3-1l-21.1 4.3zM644.8 64.4l9 3.7 12-2 7.2 9.8 9 3.6-12.9-17.2a3 3 0 0 0-3-1.2l-21.3 3.3z"/>
  <path id="c52" fill="#FFF" d="m172.6 38.4 17.8 8.3 24.3-2.8 13.5 20.3 17.7 8.2-24.3-35.9a6.2 6.2 0 0 0-5.8-2.7l-43.2 4.6zM222 199.2l-19.3 3.6-18 16.4-23-8.7-19.1 3.6 40.7 15.2c2.1.7 4.5.3 6.3-1.2l32.4-29zM646.9 0l10.8 7 16 .3 7 14.4 10.8 7L679 3a4 4 0 0 0-3.5-2.3L646.9 0zM318.5 270.5l9.3-3 8-9.2 11.7 3 9.3-3-21-5a3 3 0 0 0-3 1l-14.3 16.2zM422.6 77.5l-9.4 2.5-8.4 8.7-11.7-3.6-9.4 2.5 20.7 6.1a3 3 0 0 0 3-.8l15.3-15.4z"/>
  <path id="c53" fill="#C10230" d="m376.8 155.4 18.3 7.1 24-4.5 14.8 19.4 18.3 7-26.6-34.1a6.2 6.2 0 0 0-6-2.4l-42.8 7.5z"/>
  <path id="c54" fill="#FFF" d="m645.2 170.1 9.3-3 8-9.1 11.7 3 9.3-3-21-5a3 3 0 0 0-3 1L645.2 170z"/>
  <path id="c55" fill="#C10230" d="m409.8 500 17.8 8.3 24.3-2.9 13.4 20.3 17.8 8.2-24.3-35.8a6.2 6.2 0 0 0-5.8-2.7l-43.2 4.6z"/>
  <path id="c56" fill="#FFF" d="m459.2 660.8-19.3 3.6-18.1 16.4-22.9-8.8-19.2 3.7 40.7 15.1c2.2.8 4.6.4 6.3-1.2l32.5-28.9zM277.1 419l-9.4 2.4-8.4 8.7-11.7-3.6-9.4 2.4 20.7 6.2a3 3 0 0 0 3-.8l15.3-15.4z"/>
  <path id="c57" fill="#C10230" d="m300 573.9 14.9 6 19.6-3.5 12 16 14.8 6-21.4-28.3a5 5 0 0 0-4.9-1.9l-35 5.7z"/>
  <path id="c58" fill="#0D0047" d="m216.2 377-19.1 4.3-17.4 17.2-23.1-7.7-19 4.4 41.1 13.4c2.2.7 4.6.1 6.3-1.5l31.2-30.2z"/>
  <path id="c59" fill="#C10230" d="m552.4 696.4 18.7 6.1 23.8-5.7 15.7 18.7 18.7 6.1-28.4-32.9a6.2 6.2 0 0 0-6.1-2l-42.4 9.7z"/>
  <path id="c60" fill="#0D0047" d="M690.6 542.7h9.8l10.3-6.4 10.3 6.4h9.8l-18.5-11.1c-1-.6-2.2-.6-3.2 0l-18.5 11z"/>
  <path id="c61" fill="#C10230" d="m125.8 661.5-19.3 3.6-18.1 16.4-22.9-8.8-19.2 3.7L87 691.5c2.2.8 4.6.4 6.3-1.2l32.5-28.8z"/>
</svg>
