<svg xmlns="http://www.w3.org/2000/svg" width="123" height="82" viewBox="0 0 252 167">
  <g fill="none" stroke="#fff" stroke-linecap="round" stroke-linejoin="round" stroke-width="7">
    <path d="m67.57 143.9 13.94-19.38a269.9 269.9 0 0 0 27-46.81l9.2-20.44 25.01 43.32 25.14 43.32M117.72 96.69v10.15"/>
    <path d="M202.31 100.59a278.53 278.53 0 0 1-18.06-38.32l-1.85-4.85h0a91.18 91.18 0 0 1-55.98 2.28l-8.71-2.42M67.57 163.53V143.9M167.87 143.9v19.63M167.87 143.9h64.68v19.63M142.43 163.53h0a107.74 107.74 0 0 1-23.73-51.54l-.98-5.88M93 163.53h0a107.74 107.74 0 0 0 23.73-51.54l.98-5.88M51.61 50.61l-.12 112.92M51.61 82.97l15.82-21.32M36.84 48.97 51.49 66.1M62.71 100.07a19.14 19.14 0 0 0 24.01-18.5c0-2.99-.71-5.82-1.93-8.34a19.13 19.13 0 0 0-1.12-36.1 19.13 19.13 0 0 0-17.78-26.17c-4.34 0-8.34 1.46-11.55 3.9a19.12 19.12 0 1 0-33.56 18.1C11.08 33.89 3.5 42.06 3.5 52s7.26 17.74 16.66 18.96a19.13 19.13 0 0 0 17.5 31.85M224.87 48.82l-.08 78.34M235.21 86.16c7.49-1.03 13.3-8.66 13.3-17.91 0-4.1-1.15-7.89-3.07-10.92a11.92 11.92 0 0 0-2.87-18.32c-1.78-8.31-9.17-14.54-18.01-14.54s-16.6 6.56-18.13 15.19a11.67 11.67 0 0 0-1.39 20.33 20.95 20.95 0 0 0-1.67 8.25c0 7.47 3.79 13.88 9.19 16.62M243.52 163.53H40.63"/>
  </g>
</svg>
