<svg xmlns="http://www.w3.org/2000/svg" width="117" height="109" viewBox="0 0 250 233">
  <g fill="none" stroke="#fff" stroke-linecap="round" stroke-linejoin="round" stroke-width="7">
    <path d="m123.18 93.6-2.19 6.43a4.73 4.73 0 0 0 2.39 5.78l18.02 8.6a24.41 24.41 0 0 1 12.32 13.38l14.83 39.05a9.98 9.98 0 0 1-4.19 12.09h0a9.96 9.96 0 0 1-14.53-5.29l-11.79-34.03-51.28-13.4a12.56 12.56 0 0 1-7.85-15.92l18.17-53.48c.14-.4.28-.8.44-1.19 5.96-15 25.39-19.06 37.4-8.27l13.38 12.03a9.28 9.28 0 0 0 6.74 2.9h11.61a9.28 9.28 0 0 1 9.28 9.28h0a9.28 9.28 0 0 1-9.28 9.28H143.9a9.27 9.27 0 0 1-6.27-2.44l-10.54-10.14"/>
    <path d="M78.24 116.27v25.66l-3.53 55.99a10.86 10.86 0 0 0 10.48 11.55h0c5.89.2 10.86-4.32 11.22-10.2l3.26-53.34"/>
    <path d="m3.5 229.53 30.15-11.65 62.64-6.87 36.66-15.76h14.73l46.6-43.18h21.59l30.63-36.96"/>
    <circle cx="127.86" cy="21.52" r="18.02" transform="rotate(-22 127.87 21.51)"/>
    <path d="m188.7 157.24-21.51-76.4M161.97 62.29l-4.73-16.81"/>
    <rect width="40.11" height="62.24" x="46.91" y="50.04" rx="12" ry="12" transform="rotate(19 66.94 81.14)"/>
    <rect width="40.11" height="31.12" x="62" y="21.42" rx="12" ry="12" transform="rotate(19 82.05 36.98)"/>
    <path d="m122.7 82.5-.99 1.07a77.18 77.18 0 0 1-42.49 27.19h0"/>
  </g>
</svg>
