<svg xmlns="http://www.w3.org/2000/svg" width="97" height="197" viewBox="0 0 97 197">
  <g id="car-red" stroke-width="0">
    <path fill="#d7282c" d="m93.68 152.08-2.78-12.59V76.13l2.51-15.56a76.56 76.56 0 0 0-9.07-50.14l-2.91-5.1a10.58 10.58 0 0 0-9.19-5.34h-47.9c-3.8 0-7.31 2.04-9.19 5.34l-2.91 5.1a76.56 76.56 0 0 0-9.07 50.14l2.51 15.56v63.36L2.9 152.08a56.55 56.55 0 0 0 2.95 34.14c1.78 4.23 3.77 7.52 5.52 9.26h73.85c1.75-1.74 3.74-5.03 5.52-9.26a56.61 56.61 0 0 0 2.95-34.14Z"/>
    <path fill="#252829" d="M10.96 59.07h5.95v3.7h-5.95z"/>
    <path fill="#3c4142" d="M11.04 59.07a9.94 9.94 0 0 0-8.24 4.38l-.93 1.38a9.92 9.92 0 0 0-1.41 3.13 6.18 6.18 0 0 0 .54 4.3v.02L11.05 67v-7.93Z"/>
    <path fill="#252829" d="M86.18 62.76h-5.95v-3.7h5.95z"/>
    <path fill="#3c4142" d="M86.09 59.07c3.3 0 6.39 1.64 8.24 4.38l.93 1.38a9.92 9.92 0 0 1 1.41 3.13 6.18 6.18 0 0 1-.54 4.3v.02L86.08 67v-7.93Z"/>
    <path fill="#e6e2e2" d="m14.33 12.38-1.89 3.73a2.16 2.16 0 0 0 2.67 3l7.71-14.23c.31-.57-.34-1.17-.89-.83a20.99 20.99 0 0 0-7.61 8.33ZM82.25 12.38l1.89 3.73a2.16 2.16 0 0 1-2.67 3L73.76 4.88c-.31-.57.34-1.17.89-.83a20.99 20.99 0 0 1 7.61 8.33Z"/>
    <path fill="#863399" d="M33.17 0h8.09v42.44h-8.09zM36.66 139.39h8.09v42.44h-8.09zM59.93 181.83h-8.09v-42.44h8.09zM63.41 42.44h-8.09V0h8.09z"/>
    <path fill="#fff" d="M76.59 48.4a9.18 9.18 0 0 0-9.19-9.14H29.18a9.18 9.18 0 0 0-9.19 9.14c-.04 14.5-.02 56.63 0 85.3a28.32 28.32 0 0 0 27.78 28.26h1a28.32 28.32 0 0 0 27.81-28.27c.02-28.66.04-70.8 0-85.3Z"/>
    <path fill="#274969" d="m69.14 134.15-1.85-3.2a6.16 6.16 0 0 0-5.34-3.08h-27.3a6.16 6.16 0 0 0-5.34 3.08l-1.85 3.2a12.57 12.57 0 0 0-1.26 9.56l.25.94s2.94 14.74 19.38 14.74h4.95c16.44 0 19.38-14.74 19.38-14.74l.25-.94c.86-3.23.4-6.67-1.26-9.56ZM22.48 67.32l3.37 15.94v31.61c0 2.88-3.74 4.02-5.34 1.62a2.91 2.91 0 0 1-.49-1.62V67.58c0-1.49 2.15-1.72 2.46-.26ZM74.1 67.32l-3.37 15.94v31.61c0 2.88 3.74 4.02 5.34 1.62.32-.48.49-1.04.49-1.62V67.58c0-1.49-2.15-1.72-2.46-.26ZM67.52 39.26H29.06a7.62 7.62 0 0 0-7.45 9.19l6.17 29.21a7.05 7.05 0 0 0 6.91 5.6h27.2a7.06 7.06 0 0 0 6.91-5.6l6.17-29.21a7.61 7.61 0 0 0-7.45-9.19Z"/>
    <path fill="#863399" d="M41.47 108.58v.45c0 .37.23.57.51.57.15 0 .29-.06.4-.19l.17.17a.79.79 0 0 1-.57.25c-.41 0-.75-.29-.75-.8v-.45c0-.52.34-.8.75-.8.21 0 .42.09.57.25l-.17.17a.54.54 0 0 0-.4-.19c-.28 0-.51.2-.51.57ZM44.43 108.45h.58v.72c0 .43-.27.66-.61.66s-.61-.23-.61-.66v-.05c0-.43.29-.66.64-.66Zm-.4.72c0 .29.16.44.37.44s.38-.16.38-.44v-.5h-.35c-.22 0-.4.16-.4.44v.05ZM46.52 109.53v-1.6h.23v1.58l.09.28h-.24l-.09-.26ZM48.57 108.15h-.25v-.25h.25v.25Zm-.24.3h.23v1.34h-.23v-1.34ZM50.33 108.45h.51v.22h-.51v1.12h-.23v-1.37c0-.43.27-.66.61-.66.1 0 .2.02.3.08l-.11.2a.38.38 0 0 0-.19-.06c-.21 0-.37.16-.37.44v.03ZM52.08 109.08c0-.43.29-.66.64-.66s.64.24.64.66v.09c0 .43-.29.66-.64.66s-.64-.24-.64-.66v-.09Zm.23.09c0 .29.19.44.4.44s.4-.16.4-.44v-.09c0-.29-.19-.44-.4-.44s-.4.16-.4.44v.09ZM55.53 108.45v.22h-.23c-.21 0-.35.15-.35.44v.68h-.24v-.68c0-.44.25-.66.58-.66h.23ZM57.16 109.79h-.23v-.72c0-.43.26-.66.59-.66s.59.24.59.66v.72h-.23v-.72c0-.29-.15-.44-.36-.44s-.36.16-.36.44v.72ZM59.82 108.15h-.25v-.25h.25v.25Zm-.24.3h.23v1.34h-.23v-1.34ZM61.78 108.45h.58v.72c0 .43-.27.66-.61.66s-.61-.23-.61-.66v-.05c0-.43.29-.66.64-.66Zm-.4.72c0 .29.16.44.37.44s.38-.16.38-.44v-.5h-.35c-.22 0-.4.16-.4.44v.05Z"/>
    <path fill="#d7282f" d="m34.24 103.16-.55-.06-.36-.43.25-.21.27.33.43.05-.04.32z"/>
    <path fill="#ec7700" d="M30.14 106.66c.35-.02.71-.36.93-.86.07-.16.12-.34.15-.49v-.05l-.05-.02a2.78 2.78 0 0 0-.5-.11l-.25-.01c-.45 0-.81.15-.96.39a.45.45 0 0 0-.03.16v.02l-.08.65.62.26s.12.05.16.05ZM30.43 103.26l.25-.01c.17-.02.35-.06.5-.11l.05-.02v-.05a2.77 2.77 0 0 0-.15-.49c-.22-.51-.58-.85-.93-.86-.04 0-.12.04-.16.05h-.02l-.6.27.08.67s.01.13.03.16c.16.25.52.39.96.39ZM36.05 106.66l.16-.05h.02l.6-.26-.08-.67s-.01-.13-.03-.16c-.18-.29-.66-.44-1.21-.38a2.6 2.6 0 0 0-.5.11l-.05.02v.05c.03.16.09.34.15.49.22.51.58.85.93.86ZM36.2 101.76l-.15-.05c-.35.02-.71.36-.93.86a2.3 2.3 0 0 0-.15.49v.05a2.45 2.45 0 0 0 .55.13c.55.06 1.03-.09 1.21-.38a.45.45 0 0 0 .03-.16v-.02l.08-.65-.62-.27ZM33.76 107.97c.16-.31.05-.79-.28-1.24-.1-.14-.23-.27-.35-.38l-.04-.03-.04.03c-.12.11-.25.24-.35.38-.33.44-.44.93-.28 1.24l.13.11h.02l.52.4.54-.4.13-.11ZM33.48 101.63c.33-.44.44-.93.28-1.24l-.12-.11h-.02l-.52-.41-.54.41s-.11.08-.12.11c-.16.31-.05.79.28 1.24a2.13 2.13 0 0 0 .39.41l.04-.03c.12-.1.24-.24.35-.38Z"/>
    <path fill="#863399" d="M32.37 102.34c.17.21.37.4.57.57l.04.46h.22l.04-.46c.2-.16.4-.36.57-.57.53-.66.71-1.31.66-1.81a.61.61 0 0 1-.12-.05l-.4-.3v.02c.27.4.16 1.03-.26 1.6a2.3 2.3 0 0 1-.54.54l-.05.03-.05-.04a2.5 2.5 0 0 1-.54-.54c-.42-.57-.53-1.2-.27-1.6v-.02l-.39.3-.12.05c-.05.5.13 1.15.66 1.81Z"/>
    <path fill="#d7282f" d="m34.81 103.84-.32-.08-.16.43.18.42a3 3 0 0 1 .32-.08l-.15-.34.13-.34ZM34.18 105.21l-.5.06-.28.33.23.23.21-.25.41-.05-.09-.32ZM32.54 105.83l.23-.23-.28-.33-.5-.06c-.02.11-.05.21-.09.32l.41.05.21.26ZM31.38 104.53l.32.08.16-.43-.18-.42a3 3 0 0 1-.32.08l.15.35-.12.34ZM32.54 102.53l-.21.25-.41.05.09.32.49-.06.28-.33a2.5 2.5 0 0 1-.23-.23Z"/>
    <path fill="#d7282f" d="M37.82 103.29a.17.17 0 0 1-.11-.16v-.01l.19-1.48a.32.32 0 0 0-.2-.33l-1.37-.54a.18.18 0 0 1-.08-.18.95.95 0 0 0-.45-1 .96.96 0 0 0-.49-.14 1 1 0 0 0-.6.21.18.18 0 0 1-.2.01l-1.22-.97a.33.33 0 0 0-.38 0l-1.22.96c-.06.04-.14.03-.2-.01a.93.93 0 0 0-1.09-.07.96.96 0 0 0-.45 1 .18.18 0 0 1-.08.18l-1.38.55a.34.34 0 0 0-.2.33l.19 1.48v.01c0 .07-.05.14-.11.16a.92.92 0 0 0-.63.88v.02c0 .4.26.75.63.88.07.03.11.09.11.16v.01l-.19 1.49c-.01.13.07.27.18.32l1.38.55c.06.04.09.11.08.18-.08.39.1.79.45 1 .15.09.32.14.49.14a1 1 0 0 0 .6-.21.18.18 0 0 1 .2-.01l1.22.97c.11.08.27.08.38 0l1.22-.96c.06-.04.14-.03.2.01a.93.93 0 0 0 1.09.07.95.95 0 0 0 .45-1 .18.18 0 0 1 .08-.18l1.38-.55c.12-.05.2-.19.19-.32l-.19-1.48v-.01c0-.07.05-.14.11-.16a.92.92 0 0 0 .63-.88v-.02c0-.4-.26-.75-.63-.88Zm-.7 3.22-1.43.59c-.23.14-.25.39-.21.6l-1.02-1.37-.18.11.7 1.53c-.17-.12-.39-.21-.61-.08l-1.26.94-1.26-.94c-.22-.13-.44-.05-.61.08l.7-1.53-.18-.11-1.02 1.37c.04-.21.02-.47-.21-.61l-1.43-.59.19-1.56c0-.28-.22-.42-.43-.5l1.73-.16v-.21l-1.63-.19c.17-.08.32-.22.33-.45l-.19-1.56 1.43-.59c.23-.14.25-.39.21-.61l1.02 1.38.19-.11-.7-1.53c.17.12.38.21.61.08l1.26-.94 1.26.94c.22.13.44.05.61-.08l-.7 1.53.18.11 1.02-1.38c-.04.21-.02.47.21.61l1.43.59-.19 1.56c0 .23.16.37.33.45l-1.63.19v.21l1.74.16c-.21.07-.43.22-.44.5l.19 1.56Z"/>
    <path fill="#863399" d="m30.5 101.27-.41.17c.47 0 .94.4 1.22 1.04.11.25.18.54.2.74v.06l-.05.03c-.17.09-.47.17-.74.2-.71.08-1.3-.14-1.52-.56s.06.48.06.48c0 .05 0 .09-.02.13.41.29 1.06.46 1.89.33.27-.04.53-.11.78-.21l.42.19.11-.19-.38-.27a3.76 3.76 0 0 0-.21-.78 2.55 2.55 0 0 0-1.22-1.47l-.12.11ZM31.85 105.72c.1-.26.17-.52.21-.78l.38-.27-.11-.19-.42.19a4.7 4.7 0 0 0-.78-.21 2.57 2.57 0 0 0-1.89.33.5.5 0 0 1 .02.13l-.06.48c.22-.42.81-.64 1.52-.57.27.03.56.11.74.19l.06.03v.07c-.01.19-.09.49-.2.74-.28.64-.75 1.05-1.22 1.04l.41.17s.09.06.12.1c.45-.21.92-.69 1.22-1.48ZM33.81 106.02a3.84 3.84 0 0 0-.57-.57l-.04-.46h-.22l-.04.46c-.2.16-.4.36-.57.57a2.57 2.57 0 0 0-.66 1.81l.12.05.4.3v-.02c-.27-.4-.16-1.03.26-1.6.16-.22.37-.43.54-.54l.05-.04.05.04c.16.11.38.32.54.54.42.57.53 1.2.27 1.6v.02l.39-.3.12-.05c.05-.5-.13-1.15-.66-1.81ZM35.68 107.09l.41-.17c-.47 0-.94-.39-1.22-1.04a2.42 2.42 0 0 1-.2-.74v-.07l.06-.03c.18-.09.47-.16.74-.19.71-.08 1.3.14 1.52.56l-.06-.48s0-.09.02-.13a2.57 2.57 0 0 0-1.89-.33c-.27.04-.53.11-.78.21l-.42-.19-.11.19.38.27c.04.26.11.52.21.78.3.79.77 1.27 1.22 1.48a.4.4 0 0 1 .12-.1ZM34.33 102.64c-.1.26-.17.52-.21.78l-.38.27.11.19.42-.19c.24.09.51.16.78.21.83.13 1.48-.04 1.89-.33a.5.5 0 0 1-.02-.13l.06-.49c-.21.43-.81.65-1.52.57a2.33 2.33 0 0 1-.74-.2l-.06-.03v-.06c.02-.2.1-.49.2-.74.28-.64.75-1.04 1.22-1.04l-.41-.17a.43.43 0 0 1-.12-.11c-.45.21-.92.69-1.22 1.47Z"/>
    <path fill="#d7282f" d="M68.78 101.67h-.72a.32.32 0 0 0-.32.32l.04 2.35-.01.35c-.01.13-.04.24-.05.28a.87.87 0 0 1-.87.58c-.96 0-1.11-.62-1.11-1.44v-1.26c0-.76-.28-1.17-1.03-1.17h-.37c-.31 0-.37.08-.37.34v.33c0 .2.08.24.2.24h.1c.1 0 .14.08.14.47v1.31a2.12 2.12 0 0 0 2.12 2.25 1.9 1.9 0 0 0 1.29-.53v.63c0 .91-.04 2.07-1.5 1.94a1.63 1.63 0 0 1-.89-.44.29.29 0 0 0-.35-.04l-.47.31c-.13.09-.16.26-.07.4.29.46 1.01.89 1.81.96 2.11.18 2.75-1.33 2.74-3.33v-4.5a.32.32 0 0 0-.32-.32ZM58.6 104.67c-.89.11-1.32.84-1.94 1.02-.35.11-1.01.15-1.6-.28a1.4 1.4 0 0 1-.52-1.13c0-.78.6-1.42 1.34-1.42.34 0 .67.14.92.39l.13.13c.07.05.17.04.23-.03l.6-.7c.07-.08.06-.18-.02-.25l-.09-.08a2.6 2.6 0 0 0-1.8-.73 2.68 2.68 0 0 0-2.64 2.7c0 .58.2 1.24.6 1.74.48.61 1.34.96 2.21.96 1.35 0 1.96-.99 2.63-1.18a.1.1 0 0 0 .08-.1v-.93a.1.1 0 0 0-.12-.1ZM53.27 105.81a.2.2 0 0 0-.27-.05 1.1 1.1 0 0 1-.58.23c-.48 0-.48-.42-.48-1.07v-2.89a.32.32 0 0 0-.32-.32h-.72a.32.32 0 0 0-.32.31v2.53c0 .72-.36 1.2-1.04 1.2-.82 0-1.04-.48-1.04-1.3v-1.58c0-.76-.28-1.17-1.03-1.17h-.66c-.31 0-.37.08-.37.34v.34c0 .2.08.24.2.24h.2c.27 0 .33.07.33.5v1.68c0 1.55 1.11 2.19 2.22 2.19.73 0 1.36-.5 1.57-.87.21.61.87.79 1.42.79.29 0 .56-.09.8-.21.12-.06.24-.17.31-.23.08-.06.15-.19.07-.31l-.29-.35ZM61.88 103.61l.73-.67c.18-.18.34-.33.62-.33h.05c.13 0 .24-.11.24-.24v-.36c0-.21-.1-.35-.34-.35h-.36c-.36 0-.61.09-1.06.46-.1.08-.82.77-1.38 1.3V99.7c0-.59-.41-1.18-1.1-1.18h-.76c-.23 0-.32.07-.32.27v.55c0 .1.06.16.13.16h.3c.29 0 .39.1.39.46v6.6c0 .17.14.32.32.32h.72c.17 0 .32-.14.32-.32V105a3.58 3.58 0 0 1 .48-.46c.08-.06.19-.05.25.03l1.35 2.12c.1.15.25.19.46.19h.7c.21 0 .28-.13.19-.26l-1.92-3.01ZM46.5 104.26h-.61c-.17 0-.32.09-.32.31v.12c0 .71.11.93-.41.93h-2.44c-.21 0-.3-.11-.3-.31v-5.56c0-.54.07-1.03-.52-1.03h-1.2c-.47 0-1.39.46-1.39 1.58 0 .88.49 1.37.99 1.52.48.15.77 0 .77 0v4.35c0 .45.38.68.68.68h3.87c.75 0 1.21-.55 1.21-1.18v-1.11c0-.24-.17-.33-.35-.33Zm-5.42-3.4s-.05.1-.34.09c-.17-.01-.43-.18-.41-.59.02-.39.22-.58.76-.54v1.05Z"/>
    <path fill="#252829" d="M71.98 178.79h-6.23v-11.55h6.23zM22.73 167.24h6.23v11.55h-6.23z"/>
    <path fill="#3c4142" d="M0 174.24h94.72v19.05H0z"/>
    <path d="M0 174.24h3.89l5.87 21.8H0v-21.8zM94.72 174.24h-3.9l-5.86 21.8h9.76v-21.8z"/>
  </g>
</svg>
