<svg xmlns="http://www.w3.org/2000/svg" width="97" height="197" viewBox="0 0 97 197">
  <g id="car-orange" stroke-width="0">
    <path fill="#e26b29" d="m93.68 152.08-2.78-12.59V76.13l2.51-15.56a76.56 76.56 0 0 0-9.07-50.14l-2.9-5.1a10.58 10.58 0 0 0-9.18-5.34H24.32c-3.8 0-7.3 2.04-9.18 5.34l-2.9 5.1a76.56 76.56 0 0 0-9.07 50.14l2.51 15.56v63.36L2.9 152.08a56.62 56.62 0 0 0 2.94 34.14c1.78 4.23 3.77 7.52 5.52 9.26h73.86c1.75-1.74 3.74-5.03 5.52-9.26a56.61 56.61 0 0 0 2.94-34.14Z"/>
    <path fill="#252829" d="M10.68 59.07h5.95v3.7h-5.95z"/>
    <path fill="#3c4142" d="M10.77 59.07a9.94 9.94 0 0 0-8.24 4.38l-.93 1.38a9.92 9.92 0 0 0-1.41 3.13 6.18 6.18 0 0 0 .54 4.3v.02L10.78 67v-7.93Z"/>
    <path fill="#252829" d="M85.91 62.76h-5.95v-3.7h5.95z"/>
    <path fill="#3c4142" d="M85.82 59.07c3.3 0 6.39 1.64 8.24 4.38l.93 1.38a9.92 9.92 0 0 1 1.41 3.13 6.18 6.18 0 0 1-.54 4.3v.02L85.81 67v-7.93Z"/>
    <path fill="#e6e2e2" d="m14.33 12.38-1.89 3.73a2.16 2.16 0 0 0 2.67 3l7.71-14.23c.31-.57-.34-1.17-.89-.83a20.99 20.99 0 0 0-7.61 8.33ZM82.25 12.38l1.89 3.73a2.16 2.16 0 0 1-2.68 3L73.75 4.88c-.31-.57.34-1.17.89-.83a20.99 20.99 0 0 1 7.61 8.33Z"/>
    <path fill="#abac37" d="M33.17 0h8.09v42.44h-8.09zM36.66 139.39h8.09v42.44h-8.09zM59.93 181.83h-8.09v-42.44h8.09zM63.41 42.44h-8.09V0h8.09z"/>
    <path fill="#fff" d="M76.59 48.4a9.19 9.19 0 0 0-9.19-9.14H29.1a9.17 9.17 0 0 0-9.19 9.14c-.04 14.5-.02 56.63 0 85.3a28.33 28.33 0 0 0 28.04 28.27h.59a28.33 28.33 0 0 0 28.04-28.27c.02-28.66.04-70.8 0-85.3Z"/>
    <path fill="#274969" d="m69.14 134.15-1.85-3.2a6.16 6.16 0 0 0-5.34-3.08h-27.3a6.16 6.16 0 0 0-5.34 3.08l-1.85 3.2a12.57 12.57 0 0 0-1.26 9.56l.25.94s2.94 14.74 19.38 14.74h4.95c16.44 0 19.38-14.74 19.38-14.74l.25-.94c.86-3.23.4-6.67-1.26-9.56ZM22.48 67.32l3.37 15.94v31.61c0 2.88-3.74 4.02-5.34 1.62a2.91 2.91 0 0 1-.49-1.62V67.58c0-1.49 2.15-1.72 2.46-.26ZM74.1 67.32l-3.37 15.94v31.61c0 2.88 3.74 4.02 5.34 1.62.32-.48.49-1.04.49-1.62V67.58c0-1.49-2.15-1.72-2.46-.26ZM67.52 39.26H29.06a7.62 7.62 0 0 0-7.45 9.19l6.17 29.21a7.05 7.05 0 0 0 6.91 5.6h27.2a7.06 7.06 0 0 0 6.91-5.6l6.17-29.21a7.61 7.61 0 0 0-7.45-9.19Z"/>
    <path fill="#aaac24" d="M38.38 104.84a.37.37 0 0 0-.36-.08l-.22.07c-1.34.53-3.98 3.21-5.39 4.98-.34.43-.61.8-.78 1.07.52.4 1.06.69 1.5.79.43.13.89.19 1.39.19a4.8 4.8 0 0 0 4.83-4.69c0-.86-.47-1.87-.97-2.33Z"/>
    <path fill="#638c1c" d="M32.74 105.35a7.26 7.26 0 0 0-2.36-1.02c-.14-.04-.22.04-.27.16a5.3 5.3 0 0 0-.05 4.5c.25.61.72 1.15.9 1.32l1.22-1.38c.41-.45.95-1.04 1.55-1.63s.16-.15.32-.3a4.73 4.73 0 0 0-1.33-1.64Z"/>
    <path fill="#df6a2e" d="M28.88 104.26c-1.76 3.1-.7 7.42 2.86 8.98 3.43 1.5 6.6.2 8.1-1.15 1.76-1.59 2.21-2.97 2.27-4.58a7.1 7.1 0 0 0-.78-3.47c-.3-.55-1-.74-1.53-.42h-.01l-.7.42a4.78 4.78 0 0 1 1.23 4.3c-.42 2.15-2.62 4.83-6.8 4.36a5.58 5.58 0 0 1-4.03-2.65 6.5 6.5 0 0 1-.18-5.55s.13-.29.22-.42h-.02c-.22-.09-.51-.04-.63.16Z"/>
    <path fill="#aaac24" d="M34.22 106.22s.05-.03.08-.07l.59-.64-.06.05a.2.2 0 0 1-.15.04c-.09 0-.17-.07-.21-.19a4.03 4.03 0 0 1-.1-1.14c.05-.53.16-1.73-.63-2.74l-.01-.01a3.86 3.86 0 0 0-1.89-1.23c-1.49-.49-2.37-.93-2.69-1.44-.09-.14-.5.52-.55 1.36-.26 4.17 3.69 4.01 4.62 4.39.23.1.42.23.57.38.2.23.3.51.36.75.03.12.04.23.05.32v.16Z"/>
    <path fill="#df6a2e" d="M50.91 103.42c.49 0 1.66-.25 2.07-1.99 0 0 .11-.08.11.02s-.15 1.97 1.4 1.97c.63 0 1.13-.42 1.39-.86v-.01l.02-.04.1-.2.06-.11c.28.69.74 1.22 1.48 1.22s2.27-1.15 2.43-4.73c.01-.28.03-1.56-.92-1.56-.25 0-.79.46-.76.51.03.05.66.94.66 2.09 0 .82-.36 3.04-1.2 3.04-.21 0-.38-2.6-.38-2.97s-.15-1.76-1.1-1.76c-.44 0-.51.1-.51.1 0 .05-.15.82-.15 1.35 0 .49.04 1.32.23 2.09-.06.13-.17.31-.21.38-.16.27-.46.9-.87.9-.23 0-.36-.15-.36-1.33 0-.46.2-2.17.71-3.17.03-.05-.23-.38-.85-.38-.76 0-.88.39-1.02.87-.16.58-.62 3.76-1.77 3.76-.23 0-.49-.2-.49-.9 0-.89.47-1.82.86-2.19.24-.23.66-.52 1.35-.52.07-.12.32-1.17-.62-1.33-.8-.14-1.56.36-2 .83a4.83 4.83 0 0 0-1.24 3c0 .44.12 1.94 1.56 1.94ZM45.86 103.42c1.17 0 2.99-.66 2.99-2.66 0-1.49-1.28-2.45-1.66-2.78-.38-.33-1.15-.99-1.15-1.87 0-.44.21-1.13.97-1.13.34 0 .87.18.87 1.23 0 .26-.12.74-.12.74.15.1 1.58.35 1.58-.79 0-.35-.3-1.87-2.42-1.87-1.11 0-2.71.71-2.71 2.17 0 1.77 1.69 2.65 2.34 3.52.3.39.52.62.52 1.36 0 .49-.22 1.4-1.36 1.4-.44 0-1.06-.27-1.06-.99 0-.3.12-.69.54-1.08a.95.95 0 0 0-.83-.5c-.54 0-1.08.46-1.08 1.31 0 1 .97 1.94 2.58 1.94ZM62.3 103.42c1.36 0 2.66-1 2.96-1.94.13-.42-.3-.55-.33-.41-.16.76-1.08 1.71-2.1 1.71s-1.1-1.15-1.1-1.15c1.51-.28 2.84-1.27 2.84-2.53s-1.23-1.35-1.61-1.35c-1.91 0-2.91 2.17-2.91 3.38 0 2.23 1.97 2.28 2.25 2.28Zm-.66-2.68c.12-.85.79-2.31 1.34-2.29.39.01.35.46.35.59-.05 1.18-1.35 2.09-1.7 2.17 0 0-.03-.18.01-.47ZM52.8 104.51c-.13-.13-.34-.36-.76-.34-1.45 0-1.99 2.43-2.18 3.32-.3 1.35-.53 4.47-.53 4.47-1.41-3.4-.84-7.47-.84-7.47s-.54-.3-.74-.3c-.54 0-.79.51-.85.77-.07.26-.54 2.66-1.03 3.79-.95 2.17-1.77 3.01-2.94 3.75.03.94.74.97 1.05.97 1.49 0 2.02-3.4 2.69-5.54.04-.14.11-.18.11-.18 0 2.76.64 5.6 1.96 5.6 1.15 0 1.48-2.86 1.58-4.32.07-1.05.53-3.06.89-3.55.03.48.03 1.26.03 1.63 0 3.73.72 6.24 1.58 6.24.48 0 .97-.53 1.12-.67.09-.09.2-.16.13-.33a21.03 21.03 0 0 1-1.26-7.84ZM68.8 111.26c-.11.16-.48 1.36-1.68 1.56-.16.03-.43-.08-.43-.67 0-.22.36-1.87.55-3.32l1.42-.03s.15-.61-.59-.74c-.06 0-.36 0-.75.04l.03-.46c.02-.48-.18-1.02-1.05-1.02h-.41c-.06.33-.14.95-.23 1.63l-.29.03a.82.82 0 0 0-.3.09c-.06-.32-.28-.83-1.03-.83-.85 0-1.5 1.08-1.5 1.58l-.08-.02s.07-1.4-.95-1.4h-.31s-.4 3.19-.44 3.94l-.01.31c-.17.3-.45.83-.83.83-.23 0-.36-.15-.36-1.33 0-.46.2-2.17.71-3.17.03-.05-.23-.38-.85-.38-.76 0-.88.39-1.02.87-.16.57-.62 3.76-1.77 3.76-.23 0-.49-.2-.49-.9 0-.89.47-1.82.86-2.19.24-.23.66-.52 1.35-.52.07-.12.32-1.17-.62-1.33-.8-.14-1.56.36-2 .83a4.83 4.83 0 0 0-1.24 3c0 .44.12 1.94 1.56 1.94.49 0 1.66-.25 2.07-1.99 0 0 .12-.08.12.02s-.15 1.97 1.4 1.97c.54 0 .98-.3 1.25-.66.17.35.53.64 1.31.64 0 0 .56-4.88 1.23-4.88.16 0 .23.15.23.39s-.2.87-.2.87.25.18.46.18c.16 0 1-.09 1.16-1.02l.52-.01a55.98 55.98 0 0 0-.26 2.43c-.03.54 0 2.05 1.46 2.05 1.2 0 2.15-.89 2.42-1.94.05-.19-.25-.35-.39-.15Z"/>
    <path fill="#638c1c" d="M39 98.6c-.09-.29-1.05-2.92-.99-3.95 0-.12.02-.23.04-.32.02-.14.06-.25.09-.35.15-.39-.21-.28-.29-.25a6.4 6.4 0 0 0-4.13 5.41c-.19 1.73 1.23 3.41 1.6 4.71a2.02 2.02 0 0 1-.26 1.43l-.15.23-.02.02-.59.64-.08.07c.01.12.18.35.24.41l.85-.81c.53-.51 1.15-1.02 1.6-1.4.26-.2.47-.42.69-.6 1.67-1.37 2.16-2.83 1.4-5.22Z"/>
    <path fill="#252829" d="M71.98 178.79h-6.23v-11.55h6.23zM22.73 167.24h6.23v11.55h-6.23z"/>
    <path fill="#3c4142" d="M0 174.24h94.72v19.05H0z"/>
    <path d="M0 174.24h3.89l5.87 21.8H0v-21.8zM94.72 174.24h-3.9l-5.86 21.8h9.76v-21.8z"/>
  </g>
</svg>
