<svg id="game" xmlns="http://www.w3.org/2000/svg" xmlns:xlink="http://www.w3.org/1999/xlink" width="732" height="792" viewBox="0 0 732 792">
<defs>
<g id="checks">
  <path d="M274.5 345.7v45.75h-45.75V345.7zM228.75 299.95v45.75H183v-45.75z"/>
  <path d="M366 345.7v45.75h-45.75V345.7zM320.25 299.95v45.75H274.5v-45.75z"/>
  <path d="M183 345.7v45.75h-45.75V345.7zM137.25 299.95v45.75H91.5v-45.75z"/>
  <path d="M91.5 345.7v45.75H45.75V345.7zM45.75 299.95v45.75H0v-45.75z"/>
  <path d="M274.5 437.18v45.75h-45.75v-45.75zM228.75 391.43v45.75H183v-45.75z"/>
  <path d="M366 437.18v45.75h-45.75v-45.75zM320.25 391.43v45.75H274.5v-45.75z"/>
  <path d="M183 437.18v45.75h-45.75v-45.75zM137.25 391.43v45.75H91.5v-45.75z"/>
  <path d="M91.5 437.18v45.75H45.75v-45.75zM45.75 391.43v45.75H.02v-45.74z"/>
  <g fill="#fff">
    <path fill="#FFF" d="M274.5 299.95v45.75h-45.75v-45.75z"/>
    <path fill="#FFF" d="M228.75 345.7v45.75H183V345.7zM366 299.95v45.75h-45.75v-45.75z"/>
    <path fill="#FFF" d="M320.25 345.7v45.75H274.5V345.7zM183 299.95v45.75h-45.75v-45.75z"/>
    <path fill="#FFF" d="M137.25 345.7v45.75H91.5V345.7zM91.5 299.95v45.75H45.75v-45.75z"/>
    <path fill="#FFF" d="M45.75 345.7v45.75H0V345.7zM274.5 391.43v45.75h-45.75v-45.75z"/>
    <path fill="#FFF" d="M228.75 437.18v45.75H183v-45.75zM366 391.43v45.75h-45.75v-45.75z"/>
    <path fill="#FFF" d="M320.25 437.18v45.75H274.5v-45.75zM183 391.43v45.75h-45.75v-45.75z"/>
    <path fill="#FFF" d="M137.25 437.18v45.75H91.5v-45.75zM91.5 391.43v45.75H45.75v-45.75z"/>
    <path fill="#FFF" d="M45.75 437.18v45.75H.02v-45.75z"/>
  </g>
</g>
</defs>
<use x="0" xlink:href="#checks"/>
<use x="366" xlink:href="#checks"/>
</svg>