<?xml version="1.0" encoding="UTF-8"?><svg xmlns="http://www.w3.org/2000/svg" xmlns:xlink="http://www.w3.org/1999/xlink" width="183" height="93" viewBox="0 0 183 93.14"><defs><linearGradient id="linear-gradient" x1="-7991.04" y1="20.32" x2="-7951.41" y2="-24.11" gradientTransform="translate(-5891.84 -4701.62) rotate(-141.89) scale(.96 1)" gradientUnits="userSpaceOnUse"><stop offset="0" stop-color="#adadad"/><stop offset=".12" stop-color="#fff"/><stop offset=".19" stop-color="#c0c0c1"/><stop offset=".22" stop-color="#a1a0a2"/><stop offset=".24" stop-color="#abaaac"/><stop offset=".28" stop-color="#c6c6c7"/><stop offset=".32" stop-color="#f2f2f2"/><stop offset=".33" stop-color="#fff"/><stop offset=".35" stop-color="#fafafa"/><stop offset=".37" stop-color="#ececec"/><stop offset=".39" stop-color="#d5d4d5"/><stop offset=".41" stop-color="#b5b3b5"/><stop offset=".44" stop-color="#8c8a8c"/><stop offset=".45" stop-color="#696669"/><stop offset=".68" stop-color="#fff"/><stop offset="1" stop-color="#928d90"/></linearGradient><linearGradient id="linear-gradient-2" x1="1172.36" y1="-291.65" x2="1174.16" y2="-291.65" gradientTransform="translate(-593.39 -971.01) rotate(36.9) scale(1 -1.34)" gradientUnits="userSpaceOnUse"><stop offset="0" stop-color="#adadad"/><stop offset=".31" stop-color="#f1f9fd"/><stop offset=".59" stop-color="#525254"/><stop offset="1" stop-color="#948f92"/></linearGradient><linearGradient id="linear-gradient-3" x1="-5957.4" y1="-1518.86" x2="-5917.77" y2="-1563.29" gradientTransform="translate(3582.34 -4701.62) rotate(-38.11) scale(.96 -1)" xlink:href="#linear-gradient"/><linearGradient id="linear-gradient-4" x1="-820.14" y1="-1408.55" x2="-818.34" y2="-1408.55" gradientTransform="translate(-1716.11 -971.01) rotate(143.1) scale(1 1.34)" xlink:href="#linear-gradient-2"/></defs><g id="Layer_1-2"><path d="m183,51.67l-.51,3.94-.69,5.8-.76,4.55s-.99,4.01-1.49,5.94c-.51,1.93-.55,6.8.13,7.99-4.62-2.1-8.25-1.34-8.25-1.34,0,0-2.72.88-5.03.09-1.21-.42-7.7-1.1-7.7-1.1-1.5.2-4.3-1.04-6.43-2.09-1.28-2.44-4.03-3.95-4.03-3.95,0,0-3.98-3.97-7.73-3.42-3.74.55-11.63-1.92-11.63-1.92,0,0-6.32-1.39-9.82-6.45-3.49-5.06-7.9-6.76-7.9-6.76l-4.44-2.14L143.82,2.21s1.86,4.6,5.98,9.1c4.13,4.5,3.71,7.49,4.43,8.45,1.82,2.35,4.84,3.64,5.9,4.25s4.5,1.2,6.2,3.59c1.7,2.4,3.05,4.02,3.34,8s3.34,4,4.65,4.41,4.45,1.41,5.47,3.04.92,2.14,1.71,4.35c.78,2.23,1.5,4.27,1.5,4.27Z" fill="url(#linear-gradient)" fill-rule="evenodd" stroke-width="0"/><path d="m140.95,6.01s3.83,3.83,6.36,9.24c-.66.98-3.07,4.64-3.07,4.64,0,0-6.19-5.21-9.37-5.95.61-.85,6.08-7.93,6.08-7.93Z" fill-rule="evenodd" stroke-width="0"/><path d="m137.65,30.2c-3.55-1.65-4.99-5.62-9.01-8.13l-7.67,10.08s3.17,2.26,5.72,5.03c2.45,2.65,4.07,4.53,4.07,4.53,0,0,6.43-10.63,6.89-11.51Z" fill-rule="evenodd" stroke-width="0"/><path d="m125,50.54s-1.69-4.55-10.38-9.97c-3,3.82-7.9,10.25-7.9,10.25,0,0,4.48,1.8,8.32,4.84,3.1,2.46,3.98,3.99,3.98,3.99l5.98-9.11Z" fill-rule="evenodd" stroke-width="0"/><path d="m141.06,44.55s-6.91.52-10.3-2.85c-2.53,3.88-5.8,8.87-5.8,8.87,0,0,1.16,3.26,9.88,5.08l6.22-11.1Z" fill-rule="evenodd" stroke-width="0"/><path d="m150.95,27.02l-3.47,6.56s-3.91-2.77-9.83-3.38c5.14-8.12,6.59-10.3,6.59-10.3,0,0,4.46,2.49,6.71,7.12Z" fill-rule="evenodd" stroke-width="0"/><path d="m147.31,15.25s2.77,4.39,4.53,9.76c.6-1.18,2.38-5.24,2.38-5.24,0,0-.94-5.42-4.43-8.45-.3.43-2.48,3.93-2.48,3.93Z" fill-rule="evenodd" stroke-width="0"/><path d="m155.96,31.53l-2.13,5.88s-2.78-9.38-2.88-10.39c.55-1.26.89-2.11.89-2.11,0,0,3,5.7,4.12,6.62Z" fill-rule="evenodd" stroke-width="0"/><path d="m153.27,40.69s-.7-4.03-5.8-7.12l-6.55,10.99s1.92-.42,5.59.58c2.25.61,4.31,2.42,4.31,2.42l2.45-6.87Z" fill-rule="evenodd" stroke-width="0"/><path d="m146.05,57.18s-1.63-1.35-4.97-1.29c-3.52.06-6.24-.24-6.24-.24l-6.06,10.5s8.28,2.55,11.68,1.95c4.58-8.73,5.59-10.92,5.59-10.92Z" fill-rule="evenodd" stroke-width="0"/><path d="m154.24,55.05s-.29-2.58-1.37-4.75c-1.07-2.17-2.03-2.73-2.03-2.73,0,0-4.02,8.34-4.78,9.62,1.86.61,4.08,1.74,5.83,4.87,1.77-4.25,2.35-7.01,2.35-7.01Z" fill-rule="evenodd" stroke-width="0"/><path d="m153.25,40.68s2.15,4.87,1.95,7.99c2.68-5.36,2.76-6.13,2.76-6.13,0,0-1.64-1.52-2.78-3.04-1.16-1.53-1.35-2.08-1.35-2.08l-.58,3.26Z" fill-rule="evenodd" stroke-width="0"/><path d="m155.96,31.53s1.36-2.51,2.03-3.7c.79-1.42,2.08-3.85,2.08-3.85,0,0,4.43.96,6.28,3.64-.65,1.22-3.77,7.07-3.77,7.07,0,0-5.21-1.15-6.62-3.16Z" fill-rule="evenodd" stroke-width="0"/><path d="m168.08,38.74s-2.74-4.08-5.5-4.05c-4.05,6.78-4.34,7.32-4.62,7.84,3.76.42,7.13,1.97,7.13,1.97l2.99-5.76Z" fill-rule="evenodd" stroke-width="0"/><path d="m160.64,52.64s-3.38.29-5.43-3.97l-.97,6.38s.31,4.33,3.06,5.73c2.1-5.41,3.34-8.14,3.34-8.14Z" fill-rule="evenodd" stroke-width="0"/><path d="m154.52,68.18s-.86-1.26-1.66-2.63c-.79-1.35-.97-3.5-.97-3.5l-3.7,9.41s3.34,2.64,3.99,3.9c1.34-2.3,2.31-5.72,2.34-7.18Z" fill-rule="evenodd" stroke-width="0"/><path d="m164.85,62.04s-6.65-.34-7.55-1.27c-2.53,6.78-2.78,7.41-2.78,7.41,0,0,1.51,1.31,4.22,1.78.93.16,2.96.04,2.96.04l3.15-7.96Z" fill-rule="evenodd" stroke-width="0"/><path d="m170.77,47.94s-.81-1.67-2.45-2.5-3.23-.94-3.23-.94l-4.45,8.13s1.64-.14,4.31.24c2.7.39,3.42,1.16,3.42,1.16l2.4-6.09Z" fill-rule="evenodd" stroke-width="0"/><path d="m178.53,45.15s-1.36-1.48-3.57-1.61c-1.98-.12-2.09-.36-2.09-.36l-2.1,4.76s2.21,2.7,4.91,2.94c1.98-3.42,2.85-5.73,2.85-5.73Z" fill-rule="evenodd" stroke-width="0"/><path d="m172.93,57.41s-1.62-.93-2.21-1.36c-1.27-.93-2.36-2-2.36-2l-3.51,8s1.66-.01,2.85.5c1.91.82,2.61,2.04,2.61,2.04l2.62-7.18Z" fill-rule="evenodd" stroke-width="0"/><path d="m161.7,70s1.48-.61,3.68-.21c1.85.33,3.02,1.44,3.02,1.44l-2.06,7.41s-2.41-.54-4.1-.7c-1.73-.16-3.56-.39-3.56-.39l3.02-7.55Z" fill-rule="evenodd" stroke-width="0"/><path d="m180.78,51.58l-5.1-.7-2.75,6.53s.89.64,2.83.35c1.95-.29,2.77.2,2.77.2,0,0,2.13-5.6,2.25-6.38Z" fill-rule="evenodd" stroke-width="0"/><path d="m180.78,51.58s1.21,1.49,1.7,3.94c.64-4.12.51-3.94.51-3.94l-1.53-4.23s.12,2.83-.68,4.23Z" fill-rule="evenodd" stroke-width="0"/><path d="m178.53,57.96s2.59.45,3.34,2.75c-.23,1.6-.83,5.2-.83,5.2,0,0-3.23-1.47-5.34-1.17,1.37-3.14,2.83-6.78,2.83-6.78Z" fill-rule="evenodd" stroke-width="0"/><path d="m179.55,71.85c-.47,2.99-.52,4.6.12,8.01,0,0-4.82-1.72-8.27-1.3,1.08-3.81,2.04-7.45,2.04-7.45,0,0,3.34.91,6.11.74Z" fill-rule="evenodd" stroke-width="0"/><path d="m170.24,64.47s-1.49,5.18-1.84,6.75c3.44.73,5.05-.11,5.05-.11l2.24-6.38s-3.48-1.52-5.45-.26Z" fill-rule="evenodd" stroke-width="0"/><path d="m169.69,36.41l-1.6,2.34s1.18,1.5,2.54,3.02c1.36,1.52,2.25,1.42,2.25,1.42l1.45-3.15s-3.85-.39-4.64-3.63Z" fill-rule="evenodd" stroke-width="0"/><path d="m178.53,45.15s1.84.67,2.93,2.29c-.02-.02,0-.09,0-.09,0,0-.64-2.93-1.84-4.5-.18.38-1.09,2.3-1.09,2.3Z" fill-rule="evenodd" stroke-width="0"/><path d="m76.66,92.08s-.33.2-.92-.15c-.59-.35-.51-.93-.51-.93L143.48.12s.37-.34,1.01.14.43.94.43.94l-68.26,90.88Z" fill="url(#linear-gradient-2)" fill-rule="evenodd" stroke-width="0"/><path d="m0,52.68l.51,3.94.69,5.8.76,4.55s.99,4.01,1.49,5.94c.51,1.93.55,6.8-.13,7.99,4.62-2.1,8.25-1.34,8.25-1.34,0,0,2.72.88,5.03.09,1.21-.42,7.7-1.1,7.7-1.1,1.5.2,4.3-1.04,6.43-2.09,1.28-2.44,4.03-3.95,4.03-3.95,0,0,3.98-3.97,7.73-3.42,3.74.55,11.63-1.92,11.63-1.92,0,0,6.32-1.39,9.82-6.45,3.49-5.06,7.9-6.76,7.9-6.76l4.44-2.14L39.18,3.22s-1.86,4.6-5.98,9.1c-4.13,4.5-3.71,7.49-4.43,8.45-1.82,2.35-4.84,3.64-5.9,4.25s-4.5,1.2-6.2,3.59c-1.7,2.4-3.05,4.02-3.34,8s-3.34,4-4.65,4.41-4.45,1.41-5.47,3.04-.92,2.14-1.71,4.35C.72,50.64,0,52.68,0,52.68Z" fill="url(#linear-gradient-3)" fill-rule="evenodd" stroke-width="0"/><path d="m42.05,7.02s-3.83,3.83-6.36,9.24c.66.98,3.07,4.64,3.07,4.64,0,0,6.19-5.21,9.37-5.95-.61-.85-6.08-7.93-6.08-7.93Z" fill-rule="evenodd" stroke-width="0"/><path d="m45.35,31.21c3.55-1.65,4.99-5.62,9.01-8.13l7.67,10.08s-3.17,2.26-5.72,5.03c-2.45,2.65-4.07,4.53-4.07,4.53,0,0-6.44-10.63-6.89-11.51Z" fill-rule="evenodd" stroke-width="0"/><path d="m58,51.55s1.69-4.55,10.38-9.97c3,3.82,7.9,10.25,7.9,10.25,0,0-4.48,1.8-8.32,4.84-3.1,2.46-3.98,3.99-3.98,3.99l-5.98-9.11Z" fill-rule="evenodd" stroke-width="0"/><path d="m41.94,45.56s6.91.52,10.3-2.85c2.53,3.88,5.8,8.87,5.8,8.87,0,0-1.16,3.26-9.88,5.08l-6.22-11.1Z" fill-rule="evenodd" stroke-width="0"/><path d="m32.05,28.03l3.47,6.56s3.91-2.77,9.83-3.38c-5.14-8.12-6.59-10.3-6.59-10.3,0,0-4.46,2.49-6.71,7.12Z" fill-rule="evenodd" stroke-width="0"/><path d="m35.69,16.26s-2.77,4.39-4.53,9.76c-.6-1.18-2.38-5.24-2.38-5.24,0,0,.94-5.42,4.43-8.45.3.43,2.48,3.93,2.48,3.93Z" fill-rule="evenodd" stroke-width="0"/><path d="m27.04,32.54l2.13,5.88s2.78-9.38,2.88-10.39c-.55-1.26-.89-2.11-.89-2.11,0,0-3.01,5.7-4.12,6.62Z" fill-rule="evenodd" stroke-width="0"/><path d="m29.72,41.71s.7-4.03,5.8-7.12l6.55,10.99s-1.92-.42-5.59.58c-2.25.61-4.31,2.42-4.31,2.42l-2.45-6.87Z" fill-rule="evenodd" stroke-width="0"/><path d="m36.95,58.19s1.63-1.35,4.97-1.29c3.52.06,6.24-.24,6.24-.24l6.06,10.5s-8.28,2.55-11.68,1.95c-4.59-8.73-5.59-10.92-5.59-10.92Z" fill-rule="evenodd" stroke-width="0"/><path d="m28.76,56.06s.29-2.58,1.37-4.75c1.07-2.17,2.03-2.73,2.03-2.73,0,0,4.02,8.34,4.78,9.62-1.86.61-4.08,1.74-5.83,4.87-1.78-4.25-2.35-7.01-2.35-7.01Z" fill-rule="evenodd" stroke-width="0"/><path d="m29.74,41.69s-2.15,4.87-1.95,7.99c-2.68-5.36-2.76-6.13-2.76-6.13,0,0,1.64-1.52,2.78-3.04,1.16-1.53,1.35-2.08,1.35-2.08l.58,3.26Z" fill-rule="evenodd" stroke-width="0"/><path d="m27.04,32.54s-1.36-2.51-2.03-3.7c-.79-1.42-2.08-3.85-2.08-3.85,0,0-4.43.96-6.28,3.64.65,1.22,3.77,7.07,3.77,7.07,0,0,5.21-1.15,6.62-3.16Z" fill-rule="evenodd" stroke-width="0"/><path d="m14.91,39.75s2.74-4.08,5.5-4.05c4.05,6.78,4.34,7.32,4.62,7.84-3.76.42-7.13,1.97-7.13,1.97l-2.99-5.76Z" fill-rule="evenodd" stroke-width="0"/><path d="m22.36,53.65s3.38.29,5.43-3.97l.97,6.38s-.31,4.33-3.06,5.73c-2.11-5.41-3.34-8.14-3.34-8.14Z" fill-rule="evenodd" stroke-width="0"/><path d="m28.48,69.19s.86-1.26,1.66-2.63c.79-1.35.97-3.5.97-3.5l3.7,9.41s-3.34,2.64-3.99,3.9c-1.35-2.3-2.31-5.72-2.34-7.18Z" fill-rule="evenodd" stroke-width="0"/><path d="m18.15,63.06s6.65-.34,7.55-1.27c2.53,6.78,2.78,7.41,2.78,7.41,0,0-1.51,1.31-4.22,1.78-.93.16-2.96.04-2.96.04l-3.15-7.96Z" fill-rule="evenodd" stroke-width="0"/><path d="m12.22,48.95s.81-1.67,2.45-2.5,3.23-.94,3.23-.94l4.45,8.13s-1.64-.14-4.31.24c-2.7.39-3.42,1.16-3.42,1.16l-2.4-6.09Z" fill-rule="evenodd" stroke-width="0"/><path d="m4.47,46.16s1.36-1.48,3.57-1.61c1.98-.12,2.09-.36,2.09-.36l2.09,4.76s-2.21,2.7-4.91,2.94c-1.97-3.42-2.84-5.73-2.84-5.73Z" fill-rule="evenodd" stroke-width="0"/><path d="m10.07,58.42s1.62-.93,2.21-1.36c1.27-.93,2.36-2,2.36-2l3.51,8s-1.66-.01-2.85.5c-1.91.82-2.61,2.04-2.61,2.04l-2.62-7.18Z" fill-rule="evenodd" stroke-width="0"/><path d="m21.3,71.01s-1.48-.61-3.68-.21c-1.85.33-3.02,1.44-3.02,1.44l2.06,7.41s2.41-.54,4.1-.7c1.73-.16,3.56-.39,3.56-.39l-3.02-7.55Z" fill-rule="evenodd" stroke-width="0"/><path d="m2.22,52.59l5.1-.7,2.75,6.53s-.89.64-2.83.35c-1.95-.29-2.77.2-2.77.2,0,0-2.13-5.6-2.25-6.38Z" fill-rule="evenodd" stroke-width="0"/><path d="m2.22,52.59s-1.21,1.49-1.7,3.94C-.12,52.41.01,52.59.01,52.59l1.53-4.23s-.12,2.83.68,4.23Z" fill-rule="evenodd" stroke-width="0"/><path d="m4.46,58.97s-2.59.45-3.34,2.75c.23,1.6.83,5.2.83,5.2,0,0,3.23-1.47,5.34-1.17-1.36-3.14-2.83-6.78-2.83-6.78Z" fill-rule="evenodd" stroke-width="0"/><path d="m3.44,72.86c.47,2.99.52,4.6-.12,8.01,0,0,4.82-1.72,8.27-1.3-1.08-3.81-2.04-7.45-2.04-7.45,0,0-3.33.91-6.11.74Z" fill-rule="evenodd" stroke-width="0"/><path d="m12.76,65.48s1.49,5.18,1.84,6.75c-3.44.73-5.05-.11-5.05-.11l-2.24-6.38s3.47-1.52,5.45-.26Z" fill-rule="evenodd" stroke-width="0"/><path d="m13.31,37.42l1.6,2.34s-1.18,1.5-2.54,3.02c-1.36,1.52-2.25,1.42-2.25,1.42l-1.45-3.15s3.85-.39,4.64-3.63Z" fill-rule="evenodd" stroke-width="0"/><path d="m4.47,46.16s-1.84.67-2.93,2.29c.02-.02,0-.09,0-.09,0,0,.64-2.93,1.84-4.5.17.38,1.09,2.3,1.09,2.3Z" fill-rule="evenodd" stroke-width="0"/><path d="m106.34,93.09s.33.2.92-.15c.59-.35.51-.93.51-.93L39.52,1.13s-.37-.34-1.01.14-.43.94-.43.94l68.26,90.88Z" fill="url(#linear-gradient-4)" fill-rule="evenodd" stroke-width="0"/></g></svg>