<?xml version="1.0" encoding="utf-8"?>
<!-- Generator: Adobe Illustrator 16.0.0, SVG Export Plug-In . SVG Version: 6.00 Build 0)  -->
<!DOCTYPE svg PUBLIC "-//W3C//DTD SVG 1.1//EN" "http://www.w3.org/Graphics/SVG/1.1/DTD/svg11.dtd">
<svg version="1.1" id="Layer_1" xmlns="http://www.w3.org/2000/svg" xmlns:xlink="http://www.w3.org/1999/xlink" x="0px" y="0px"
	 width="494.1px" height="177px" viewBox="0 0 494.1 177" style="enable-background:new 0 0 494.1 177;" preserveAspectRatio="xMidYMid meet" xml:space="preserve">
<style type="text/css">
<![CDATA[
	.st0{fill:#466DAB;}
	.st1{fill:#ABAC37;}
	.st2{fill:#E1CC20;}
	.st3{fill:#E26B29;}
	.st4{fill:#883694;}
	.st5{fill:#EC7B24;}
	.st6{fill:#FFFFFF;}
	.st7{fill:#668E3D;}
	.st8{fill:#D9282D;}
]]>
</style>
<g>
	<path class="st4" d="M191.9,130.3c0,5,3.5,7.3,7,7.3c1.8,0,3.5-0.7,4.9-1.9l-0.1-0.1c0.1,0,0.1-0.1,0.2-0.2
		c0.1-0.1,0.2-0.1,0.3-0.2l0,0l-1.7-1.7l-0.1,0.1c-0.9,1-2.2,1.6-3.5,1.6c-2.7,0-4.5-2-4.5-5v-4c0-3.1,1.7-5,4.5-5
		c1.4,0,2.6,0.6,3.5,1.6l0.1,0.1l1.7-1.7l0,0l-0.1-0.1c-1.4-1.4-3.2-2.2-5.2-2.2c-3.4,0-7,2.3-7,7.3V130.3L191.9,130.3z"/>
	<path class="st4" d="M223.1,131.6c0,2.4-1.3,3.9-3.2,3.9s-3.2-1.5-3.2-3.9v-0.5c0-2.6,1.8-3.9,3.5-3.9h3L223.1,131.6L223.1,131.6z
		 M225.5,125h-5.4c-3.5,0-5.9,2.4-5.9,6.1v0.5c0,3.6,2.3,6.1,5.6,6.1s5.6-2.4,5.6-6.1L225.5,125L225.5,125z"/>
	<polygon class="st4" points="237.9,120.4 237.9,134.9 238.7,137.3 241.1,137.3 240.3,134.6 240.3,120.4 	"/>
	<polygon class="st4" points="253.2,120.2 253.2,122.6 255.7,122.6 255.7,120.2 	"/>
	<rect x="253.3" y="125" class="st4" width="2.3" height="12.2"/>
	<path class="st4" d="M276.6,119.5c-0.8-0.4-1.7-0.7-2.7-0.7c-3.4,0-5.6,2.4-5.6,6v12.4h2.3v-10h4.6V125H272h-1.4v-0.1
		c0-2.3,1.2-3.9,3.2-3.9c0.5,0,1,0.1,1.6,0.5l0.1,0l0,0L276.6,119.5z"/>
	<path class="st4" d="M295.2,131.6c0,2.6-1.8,3.9-3.5,3.9c-1.7,0-3.5-1.2-3.5-3.9v-0.8c0-2.6,1.8-3.9,3.5-3.9c1.8,0,3.5,1.2,3.5,3.9
		V131.6z M297.6,130.7c0-4.2-3-6.1-5.9-6.1c-2.9,0-5.9,1.9-5.9,6.1v0.8c0,3.6,2.3,6.1,5.9,6.1c3.5,0,5.9-2.4,5.9-6.1V130.7z"/>
	<path class="st4" d="M314.1,127.2h2.2V125h-2.2c-3.4,0-5.4,2.3-5.4,6.1v6.2h2.4v-6.2C311.1,128.7,312.1,127.2,314.1,127.2"/>
	<path class="st4" d="M332.4,126.9c2,0,3.1,1.4,3.1,3.9v6.5h2.3v-6.6c0-3.7-2.2-6.1-5.5-6.1c-3.3,0-5.5,2.4-5.5,6.1v6.5h2.4v-6.5
		C329.3,128.4,330.5,126.9,332.4,126.9"/>
	<rect x="350" y="125" class="st4" width="2.3" height="12.2"/>
	<polygon class="st4" points="349.9,120.2 349.9,122.6 352.4,122.6 352.4,120.2 	"/>
	<path class="st4" d="M372.1,131.6c0,2.4-1.3,3.9-3.2,3.9c-2,0-3.3-1.5-3.3-3.9v-0.5c0-2.6,1.8-3.9,3.5-3.9h3V131.6z M374.4,125
		h-5.4c-3.5,0-5.9,2.4-5.9,6.1v0.5c0,3.6,2.3,6.1,5.6,6.1c3.4,0,5.6-2.4,5.6-6.1L374.4,125L374.4,125z"/>
	<path class="st8" d="M189.3,53.5h-1.4c-2.4,0-3.5-3-3.5-5.3c0-3.8,1.5-5.5,5-5.5L189.3,53.5z M430.3,61.2h-7.4
		c-1.7,0-3.7,1.3-4.2,2.8l-11.2,29.4l-11.9-26.2c-2.5-5.4-6-7.3-11-7.3h-12.9c-4.3,0-6.6,1.3-8.8,3.3l-6.8,6.3V42.2
		c0-5.6-3.9-11.3-10.6-11.3h-7c-2,0-3.1,1.5-3.1,2.6l0,7.3c0,0.9,0.5,1.5,1.2,1.5h2.9c2.8,0,3.4,0.9,3.4,4.4v34.8
		c-3.2,3.2-16.2,15-18.8,16.2c-1.9,1.1-4.1,1.7-6.3,1.7c-7.1,0-13-6.1-13-13.6c0-7.5,5.8-13.6,13-13.6c3.3,0,6.5,1.3,8.9,3.7
		l1.3,1.3c0.7,0.5,1.6,0.4,2.2-0.3l5.8-6.7c0.7-0.8,0.6-1.7-0.2-2.4l-0.8-0.8c-4.7-4.5-11-7-17.4-7c-14.1,0-25.5,11.6-25.5,25.8
		c0,4.3,1.1,7.9,2.6,11.2c-0.1,0.1-2,2.4-5.5,2.6c-4.1,0.3-5.9-3.7-5.9-6c0-2.1,0-29.4,0-29.4c0-1.6-1.4-3.1-3.1-3.1l-7-0.1
		c-1.7,0-3.1,1.4-3.1,3v4.1v21.3c0,6.6-3.5,9.9-10,9.9c-7.9,0-10-5.4-10-12.3c0-1.5,0-15.7,0-15.7c0-4.8-3.9-10.2-10.5-10.2H233
		c-1.6,0-2.9,1.2-2.9,2.6v6.9c0,1.4,0.5,2,1.6,2h1.9c3,0,3.1,0.8,3.1,4.4v13.9h-5.3c-1.1,0-2,0.9-2,2V95c-0.1,1.9-1.4,3.5-4.8,3.5
		h-19.6c-2,0-2.9-1-2.9-2.9V40.1v-4.2c0-1.7-1.4-3.1-3.1-3.1l-12.8,0c-2.7,0.1-5.3,1.2-7.3,2.9c-0.3,0.3-0.7,0.6-1,0.9
		c-0.7,0.7-1.2,1.4-1.8,2.1c-1.9,2.7-3,6.1-3,9.8c0,8.7,6.1,16.1,13.6,16.1h2.3v41.3c0,3.4,2.6,4.8,5,4.8l33.6,0
		c6.6,0,12.1-2.6,13.1-7.7c1.8,4.7,9.2,8.6,18.3,8.6c10,0,15.8-4.8,16.9-6.4c2,3.1,8,6.2,13.3,5.6c5.7-0.6,9-2.8,11.9-5.1
		c3.8,3.5,10.6,5.9,16,5.9c6.7,0,12.5-2.8,17.7-7.5c1.8-1.6,7.7-7.1,7.7-7.1v10.7c0,1.6,1.4,3.1,3.1,3.1h7c1.7,0,3.1-1.4,3.1-3.1
		c0-0.8,0-15.1,0-22.2l17.4,22.8c1.1,1.3,2.6,2.4,4.6,2.4l10.2,0c1.7,0,2.3-1.3,1.2-2.5L365.1,77l4.4-3.9c1.2-1.1,1.8-1.7,4-1.7h6
		c2.7,0,4.1,0.9,4.9,2.7l16.3,34.6c0.4,0.8,0.2,1.6,0,2.1c-1.2,3.1-2.7,7.3-3.3,8.8c-0.9,2.3-1.8,5.1-5.1,5.1h-2.5
		c-1.6,0-2.4,1.1-2.4,2.6v6.9c0,1.2,1,2.1,2.2,2.1h5.4c4.6,0,9.8-1.2,13.2-9.3c0.7-1.7,19.5-50.9,23.2-60.4c0.4-1.1,0.8-2.2,1.1-3
		C432.9,62.4,432,61.2,430.3,61.2"/>
	<path class="st5" d="M71.1,96.3v0.2l-0.7,5.6l5.5,2.3c0.8,0.3,1,0.4,1.1,0.5c3-0.2,6.3-3.3,8.3-7.9c0.6-1.3,1-2.8,1.4-4.2
		c-1.3-0.4-2.9-0.8-4.3-0.9c-0.8-0.1-1.6-0.1-2.4-0.1c-4,0-7.3,1.2-8.7,3.3C71.3,95.2,71.2,95.5,71.1,96.3"/>
	<path class="st5" d="M85.3,66c-2-4.6-5.3-7.7-8.3-7.9c-0.1,0-0.3,0.1-1,0.4l-0.3,0.1l-5.3,2.2l0.7,5.8c0,0.8,0.1,1.1,0.1,1.2
		c1.4,2.1,4.6,3.3,8.6,3.3c0.8,0,1.6,0,2.4-0.1c1.4-0.2,3-0.5,4.3-0.9C86.4,68.7,85.9,67.2,85.3,66"/>
	<path class="st5" d="M128.3,97c2,4.6,5.2,7.7,8.3,7.9c0.1,0,0.3-0.1,1-0.4l0.2-0.1l5.3-2.2l-0.7-5.8c0-0.8-0.1-1.1-0.1-1.2
		c-1.4-2.1-4.7-3.3-8.7-3.3c-0.8,0-1.6,0-2.3,0.1c-1.5,0.2-3,0.5-4.3,0.9C127.2,94.2,127.6,95.7,128.3,97"/>
	<path class="st5" d="M142.4,66.7l0-0.2l0.7-5.6l-5.5-2.3c-0.8-0.3-1-0.4-1.1-0.5c-3,0.2-6.3,3.3-8.3,7.9c-0.6,1.3-1.1,2.8-1.4,4.2
		c1.3,0.4,2.9,0.8,4.3,0.9c0.8,0.1,1.6,0.1,2.3,0.1c4.1,0,7.3-1.2,8.7-3.3C142.3,67.7,142.3,67.4,142.4,66.7"/>
	<path class="st5" d="M109.7,107.6c-0.8-1.2-1.9-2.3-3-3.2c-1,0.9-2.1,2.1-3,3.2c-3.1,4-4.1,8.4-2.8,11c0,0,0.3,0.3,0.9,0.7l0.2,0.1
		l4.6,3.4l4.7-3.5c0.6-0.4,0.9-0.7,0.9-0.8C113.8,115.9,112.7,111.6,109.7,107.6"/>
	<path class="st5" d="M103.8,55.4c0.8,1.1,1.9,2.3,3,3.2c1-0.9,2.1-2.1,3-3.2c3.1-4,4.1-8.4,2.8-11c0,0-0.3-0.2-0.9-0.7l-0.2-0.1
		l-4.6-3.4l-4.7,3.5c-0.7,0.5-0.9,0.7-0.9,0.7C99.7,47.1,100.8,51.4,103.8,55.4"/>
	<path class="st8" d="M101.2,65.1l-2.2,2.5l-4.2,0.5c0.3,1,0.7,2.1,0.9,3.1l5-0.6l2.8-3.3C102.8,66.6,102,65.9,101.2,65.1"/>
	<path class="st8" d="M89.5,84.9c1.1,0.2,2.2,0.5,3.2,0.8l1.6-4.3l-1.8-4.2c-1,0.3-2.1,0.6-3.2,0.8l1.5,3.5L89.5,84.9z"/>
	<path class="st8" d="M101.2,97.9c0.8-0.8,1.6-1.5,2.3-2.3l-2.8-3.3l-5-0.6c-0.2,1.1-0.5,2.1-0.9,3.1l4.2,0.5L101.2,97.9z"/>
	<path class="st8" d="M117.8,91.7l-5,0.6l-2.8,3.3c0.8,0.8,1.6,1.5,2.4,2.3l2.2-2.6l4.2-0.5C118.3,93.8,118.1,92.7,117.8,91.7"/>
	<path class="st8" d="M124,78c-1.1-0.2-2.2-0.5-3.2-0.8l-1.6,4.4l1.8,4.2c1-0.3,2.1-0.6,3.2-0.8l-1.5-3.4L124,78z"/>
	<path class="st8" d="M149.7,84.5L149.7,84.5c0,0-0.7,0-0.8,0.1c-2,0.3-3.5,2.1-3.5,4.5l1.9,15.6l-14.4,5.8c-2.1,1.2-2.9,3.2-2.1,5
		c0.1,0.2,0.3,0.7,0.3,0.7c0.1,0.2,0.1,0.5-0.1,0.6c-0.2,0.1-0.5,0.1-0.6-0.1l-10-12l5.7,14.2c0.1,0.2,0,0.5-0.2,0.6
		c0,0-0.1,0-0.1,0c-0.2,0-0.4-0.1-0.5-0.3c0,0-0.3-0.5-0.5-0.6c-1.2-1.4-3.3-1.5-5.2-0.3l-12.6,9.3h0l-12.6-9.3
		c-1.9-1.1-4-1-5.3,0.4c-0.1,0.1-0.4,0.6-0.4,0.6c0,0.2-0.2,0.3-0.4,0.3c0,0-0.1,0-0.2,0c-0.2-0.1-0.3-0.4-0.2-0.6l5.6-14.2
		l-10,12.1c-0.1,0.2-0.4,0.2-0.6,0c-0.2-0.1-0.2-0.4-0.1-0.6c0,0,0.3-0.6,0.4-0.8c0.7-1.8-0.1-3.9-2.2-5l-14.4-5.8L68.2,89
		c0-2.4-1.5-4.2-3.4-4.5c-0.2,0-0.8,0-0.8,0h0c-0.2,0-0.4-0.1-0.4-0.4c0-0.2,0.1-0.5,0.4-0.5l15.9-2.2l-14.9-2.6
		c-0.2,0-0.4-0.3-0.4-0.5c0-0.2,0.3-0.4,0.5-0.4c0,0,0.5,0,0.6,0c1.6-0.3,2.6-2,2.6-4l-1.9-15.6l14.4-5.8c2.1-1.2,2.9-3.3,2.2-5.1
		c-0.1-0.2-0.4-0.6-0.4-0.6c-0.1-0.2-0.1-0.5,0.1-0.6c0.2-0.1,0.5-0.1,0.6,0.1l10,12l-5.7-14.2c-0.1-0.2,0-0.5,0.2-0.6
		s0.5,0,0.6,0.2c0,0,0.2,0.4,0.4,0.6c1.2,1.4,3.4,1.5,5.3,0.4l12.6-9.3h0l12.7,9.3c1.9,1.1,4.2,1,5.4-0.3c0.1-0.1,0.3-0.6,0.3-0.6
		c0.1-0.2,0.4-0.3,0.6-0.2c0.2,0.1,0.3,0.3,0.2,0.6l-5.6,14.2l10-12.1c0.1-0.2,0.4-0.2,0.6,0c0.2,0.1,0.2,0.4,0,0.6
		c0,0-0.3,0.4-0.4,0.6c-0.8,1.8,0.1,3.9,2.2,5.2l14.4,5.8L145.3,74c0,2,1.1,3.7,2.7,4c0.1,0,0.5,0.1,0.5,0.1c0.2,0,0.5,0.1,0.5,0.4
		c0,0.2-0.1,0.5-0.4,0.5l-14.9,2.5l15.9,2.2c0.2,0,0.4,0.2,0.4,0.5C150.1,84.4,149.9,84.5,149.7,84.5 M154.3,72.6L154.3,72.6
		c-0.7-0.2-1.2-0.9-1.2-1.6c0,0,0-0.1,0-0.1l1.9-14.7c0.2-1.3-0.7-2.8-2-3.3l-13.8-5.4l0,0c-0.6-0.4-0.9-1.1-0.8-1.8
		c0.8-3.9-1-7.9-4.5-9.9c-1.5-0.9-3.2-1.4-5-1.4c-2.2,0-4.3,0.8-6.1,2.1l0,0c-0.6,0.4-1.3,0.5-2,0.1l-12.2-9.6
		c-1.1-0.8-2.8-0.8-3.8,0l-12.3,9.6c-0.6,0.4-1.4,0.3-2-0.1l0,0c-1.7-1.4-3.9-2.1-6.1-2.1c-1.7,0-3.4,0.5-5,1.4
		c-3.5,2.1-5.3,6.1-4.5,9.9c0.1,0.7-0.1,1.4-0.8,1.8l-13.9,5.5c-1.3,0.5-2.2,2-2,3.3l2,14.7c0,0,0,0.1,0,0.1c0,0.8-0.5,1.4-1.1,1.6
		h0c-3.8,1.3-6.3,4.8-6.3,8.8v0.2c0,4,2.6,7.5,6.4,8.8h0c0.7,0.2,1.1,0.9,1.1,1.6c0,0,0,0.1,0,0.1l-2,14.8c-0.1,1.3,0.7,2.6,1.9,3.1
		l13.9,5.5c0,0,0,0,0,0c0.7,0.4,0.9,1.1,0.8,1.8c-0.8,3.9,1,7.8,4.5,9.9c1.6,0.9,3.2,1.4,5,1.4c2.2,0,4.3-0.8,6.1-2.1l0,0
		c0.6-0.4,1.4-0.5,2-0.1l12.3,9.6c1.1,0.8,2.8,0.8,3.8,0l12.3-9.6c0.7-0.4,1.4-0.3,2,0.1l0,0c1.7,1.4,3.9,2.1,6.1,2.1
		c1.7,0,3.4-0.5,5-1.4c3.5-2.1,5.3-6,4.5-9.9c-0.1-0.7,0.2-1.4,0.8-1.8l0,0l13.9-5.5c1.2-0.5,2-1.9,1.9-3.2L153.2,92
		c0,0,0-0.1,0-0.1c0-0.8,0.5-1.4,1.1-1.6h0c3.8-1.3,6.3-4.8,6.4-8.8v-0.1C160.6,77.4,158.1,73.9,154.3,72.6"/>
	<path class="st8" d="M112.3,65.1c-0.8,0.8-1.5,1.5-2.4,2.3l2.8,3.3l5,0.6c0.2-1.1,0.5-2.1,0.9-3.1l-4.2-0.5L112.3,65.1z"/>
	<path class="st4" d="M76.6,54.3c4.7-0.1,9.5,3.9,12.3,10.3c1.1,2.4,1.9,5.4,2,7.4l0,0.7l-0.6,0.3c-1.7,0.8-4.7,1.6-7.5,1.9
		c-7.1,0.8-13.2-1.4-15.3-5.6l0.6,4.8c0,0.5-0.1,0.9-0.2,1.3c4.1,2.9,10.6,4.6,19,3.3c2.5-0.4,4.9-1,7.2-1.8l5,2.3l1.5-2.6l-4.5-3.2
		c-0.4-2.4-1.1-4.7-2-7.1c-3-7.8-7.8-12.5-12.3-14.6c-0.3,0.4-0.8,0.7-1.2,1L76.6,54.3z"/>
	<path class="st4" d="M94.3,96.8c0.9-2.4,1.6-4.7,1.9-7l4.5-3.2L99.2,84l-5,2.3c-2.3-0.8-4.7-1.5-7.2-1.8c-8.4-1.3-14.9,0.5-19,3.3
		c0.1,0.4,0.2,0.8,0.2,1.3l-0.6,4.8c2.2-4.2,8.1-6.4,15.2-5.6c2.7,0.3,5.6,1.1,7.5,1.9l0.6,0.3l0,0.7C90.8,93,90,96,89,98.5
		c-2.8,6.4-7.6,10.4-12.3,10.3l4.1,1.7c0.5,0.3,0.9,0.6,1.2,1C86.5,109.3,91.3,104.6,94.3,96.8"/>
	<path class="st4" d="M114,99.8c-1.6-2-3.4-3.7-5.3-5.3l-0.5-5.4h-3l-0.5,5.4c-1.9,1.6-3.7,3.3-5.3,5.3c-5.4,6.5-7.1,13-6.6,18
		c0.4,0.1,0.8,0.3,1.2,0.5l4.1,3l-0.1-0.2c-2.6-4-1.5-10.2,2.7-15.9c1.6-2.2,3.8-4.3,5.5-5.4l0.5-0.4l0.6,0.3c1.6,1,3.8,3.2,5.5,5.4
		c4.3,5.7,5.4,11.9,2.7,15.9l-0.1,0.2l4-3c0.4-0.2,0.8-0.4,1.2-0.5C121.1,112.8,119.4,106.4,114,99.8"/>
	<path class="st4" d="M136.9,108.8c-4.7,0.1-9.5-3.9-12.3-10.3c-1.1-2.5-1.9-5.5-2-7.4l0-0.7l0.6-0.3c1.8-0.9,4.7-1.6,7.5-1.9
		c7.1-0.8,13.1,1.4,15.2,5.6l-0.6-4.8c0-0.5,0.1-0.8,0.2-1.3c-4.1-2.9-10.6-4.7-19-3.3c-2.5,0.4-4.9,1-7.2,1.8l-5-2.3l-1.5,2.6
		l4.5,3.1c0.4,2.3,1.1,4.7,2,7.1c3,7.8,7.8,12.5,12.3,14.6c0.3-0.4,0.8-0.7,1.2-1L136.9,108.8z"/>
	<path class="st4" d="M119.3,66.2c-0.9,2.4-1.6,4.7-2,7.1l-4.5,3.1l1.5,2.6l5-2.3c2.3,0.8,4.7,1.5,7.2,1.8c8.4,1.3,14.9-0.4,19-3.3
		c-0.1-0.4-0.2-0.8-0.2-1.3l0.6-4.8v0c-2.2,4.2-8.2,6.4-15.3,5.6c-2.7-0.3-5.8-1.1-7.5-1.9l-0.6-0.3l0-0.7c0.1-2,0.9-4.9,2-7.4
		c2.8-6.4,7.6-10.4,12.3-10.3l-4.1-1.6c-0.5-0.3-0.9-0.6-1.2-1C127,53.6,122.3,58.3,119.3,66.2"/>
	<path class="st4" d="M99.5,63.2c1.6,2,3.4,3.7,5.3,5.3l0.5,5.4h3l0.5-5.4c1.8-1.5,3.6-3.3,5.2-5.2c5.4-6.6,7.1-13,6.6-18
		c-0.4-0.1-0.8-0.3-1.2-0.5l-4-3l0.1,0.2c2.6,3.9,1.6,10.2-2.7,15.9c-1.6,2.2-3.9,4.4-5.5,5.4l-0.6,0.3l-0.5-0.4
		c-1.7-1.1-3.8-3.2-5.5-5.4c-4.3-5.7-5.4-12-2.8-15.9l0.1-0.2l-4.1,3c-0.4,0.2-0.8,0.4-1.2,0.5C92.4,50.2,94.1,56.6,99.5,63.2"/>
</g>
</svg>
