<svg xmlns="http://www.w3.org/2000/svg" width="110" height="110" viewBox="0 0 110 110">
  <path fill="#eb1e30" d="M54.81 108.61a53.66 53.66 0 0 0 53.8-53.41c.11-29.56-23.85-53.69-53.41-53.8S1.5 25.25 1.39 54.81s23.86 53.69 53.42 53.8"/>
  <path fill="#fff" d="M55 110h-.2a54.6 54.6 0 0 1-38.81-16.27A54.6 54.6 0 0 1 0 54.8a54.6 54.6 0 0 1 16.27-38.82A54.6 54.6 0 0 1 55 0h.2A55.06 55.06 0 0 1 110 55.2 55.06 55.06 0 0 1 55 110M55 2.79c-28.7 0-52.1 23.3-52.21 52.02a52.27 52.27 0 0 0 52.02 52.4H55c28.7 0 52.1-23.3 52.21-52.02a52.27 52.27 0 0 0-52.02-52.4z"/>
  <path fill="#fff" d="M32.09 16.44h3.57q.85.01 1.26.4c.41.39.43.62.47 1.08q.05.7-.09 1.78a4 4 0 0 1-.48 1.54q-.33.56-1 .77a.9.9 0 0 1 .69.53q.18.42.07 1.14l-.66 4.4h-2.28l.66-4.56q.06-.48-.1-.62-.17-.14-.67-.14l-.77 5.31H30.4zm2.3 4.32q.5 0 .64-1.05.06-.46.06-.69t-.1-.32-.3-.09h-.54l-.31 2.15zm2.62 7.33 1.68-11.63 4.66.02-.32 2.25h-2.29l-.33 2.25h2.19l-.32 2.2h-2.19l-.38 2.66h2.44l-.33 2.27zm6.62.02.43-11.63h2.27l-.41 7.35 1.71-7.33h2.17l-.44 7.35 1.68-7.33h2.3L50.4 28.14h-2.79l.23-5.62-1.36 5.6zm8.28.03 2.8-11.62h3.94l-.57 11.64h-2.21l.11-1.89h-1.41l-.41 1.87zm3.12-3.72h1.06l.34-5.92h-.11zm5.57-7.88h3.57q.85.01 1.26.4c.41.39.43.62.47 1.08q.06.7-.09 1.78a4 4 0 0 1-.48 1.54q-.33.56-1 .77a.9.9 0 0 1 .69.53q.18.42.07 1.14l-.66 4.4h-2.28l.66-4.56q.06-.48-.1-.62-.17-.14-.67-.14l-.77 5.31h-2.36zm2.31 4.32q.48 0 .64-1.05.06-.46.06-.69t-.1-.32-.3-.09h-.54l-.31 2.15zm4.29-4.29h3.21q1.25.02 1.77.71t.34 2.05l-.76 5.44a5 5 0 0 1-.97 2.58q-.73.86-2.14.86h-3.13zm1.37 9.58q.63 0 .73-.62l.86-6q.06-.4.02-.59-.03-.2-.19-.26a1 1 0 0 0-.49-.07h-.26l-1.09 7.54zm4.32 1.39q-.59-.79-.34-2.53l.16-1.14H75l-.21 1.46q-.12.87.43.87.31 0 .46-.18c.15-.18.17-.33.21-.62q.08-.57 0-.94a2 2 0 0 0-.26-.62q-.3-.4-.64-.78l-.86-1.01a3 3 0 0 1-.8-2.52q.21-1.49 1.01-2.26a3 3 0 0 1 2.11-.77q1.57 0 2.14.84c.57.84.49 1.43.31 2.61h-2.37l.1-.81q.03-.23-.08-.37t-.34-.14a.7.7 0 0 0-.43.15q-.16.15-.19.41-.08.57.48 1.18l1.17 1.3q.4.46.66.88t.36.98 0 1.33a5 5 0 0 1-1.01 2.6q-.76.88-2.21.88-1.56-.01-2.15-.8M18.27 41.05l1.68-11.63h3.55l-.05 7.11 2-7.09h3.57l-1.68 11.64h-2.13l1.21-8.39-2.55 8.37h-2.09l-.21-8.39-1.21 8.38zm10.23.04 1.68-11.63 4.66.02-.32 2.25h-2.29l-.33 2.25h2.19l-.32 2.2h-2.19l-.38 2.66h2.44l-.33 2.27zm5.72.02 1.68-11.63h3.55l-.05 7.11 2-7.09h3.57l-1.68 11.64h-2.13l1.21-8.39-2.55 8.37h-2.09l-.21-8.39-1.21 8.38zm11.91-11.59h3.16q1.27.01 1.76.64.48.63.28 2.03l-.07.51q-.24 1.66-1.48 1.99.7.2.9.88c.2.68.14 1.07.03 1.83q-.15 1.52-.96 2.81-.7.95-2.14.95h-3.16zm2.15 8.73.21-1.45q.08-.53-.04-.8c-.12-.27-.25-.27-.51-.27h-.43l-.49 3.37h.23q.91.01 1.03-.85m-.03-4.35q.3 0 .44-.22.14-.23.2-.63l.17-1.16q.07-.57-.42-.57h-.49l-.37 2.59zm2.82 7.27 1.68-11.63 4.66.02-.32 2.25H54.8l-.33 2.25h2.19l-.32 2.2h-2.19l-.38 2.66h2.44l-.33 2.27zm7.4-11.6h3.57q.85.01 1.26.4c.41.39.43.62.47 1.08q.05.7-.09 1.78-.14.99-.48 1.54-.33.56-1 .77a.9.9 0 0 1 .69.53q.18.42.07 1.14l-.66 4.4h-2.27l.66-4.56q.06-.48-.1-.62-.17-.14-.67-.14l-.77 5.31h-2.36zm2.3 4.31q.5 0 .64-1.05.06-.47.06-.69 0-.23-.1-.32-.09-.09-.3-.09h-.54l-.31 2.15zm3.18 6.66q-.59-.79-.34-2.53l.16-1.14h2.29l-.21 1.46q-.12.87.43.87.31 0 .46-.18c.15-.18.17-.33.21-.62q.08-.57 0-.94a2 2 0 0 0-.26-.62q-.3-.4-.64-.78l-.86-1.01a3 3 0 0 1-.8-2.52q.21-1.49 1.01-2.26a3 3 0 0 1 2.11-.77q1.57 0 2.14.84c.57.84.49 1.43.31 2.61h-2.37l.1-.81q.03-.23-.08-.37t-.34-.14a.7.7 0 0 0-.43.15q-.16.15-.19.41-.08.57.48 1.18l1.17 1.3q.4.46.66.88.26.41.36.98c.1.57.07.82 0 1.33a5 5 0 0 1-1.01 2.6q-.76.88-2.21.88-1.55 0-2.15-.8m9.61-.07q-.49-.89-.23-2.69l.72-5.01c.08-.91.45-1.76 1.07-2.43a3 3 0 0 1 2.26-.82q1.15 0 1.72.47a2 2 0 0 1 .69 1.34q.12.88-.08 2.26h-2.28l.15-1.05q.06-.42-.02-.65t-.38-.23q-.66 0-.79.86l-.81 5.63q-.07.53.02.8c.09.27.21.27.43.27s.4-.09.51-.27q.18-.27.25-.8l.24-1.66h-.62l.29-2h2.84l-.98 6.78h-.93l-.25-.98a2.4 2.4 0 0 1-2.08 1.08q-1.24 0-1.74-.9m6.07.8 1.68-11.63 4.66.02-.32 2.25h-2.29l-.33 2.25h2.19l-.32 2.2h-2.19l-.38 2.66h2.44l-.33 2.27zm6.72.03 1.35-9.39h-1.38l.32-2.24 5.09.02-.32 2.23h-1.38l-1.35 9.38zM51.49 79.03l6.6-19.06-.62-16.91 7.03.03.1 12.39 3.42-12.38 7.07.03-5.53 16.89 1.1 19.09-7.28-.03-.23-14.06-4.33 14.05zm-10.05 0 1.47-8.41H28.15l1.12-6.19 17.39-21.37h8.23l-3.65 20.89h3.6l-1.22 6.67h-3.54l-1.47 8.41zm-3.63-15.08h7.27l2.16-12.37zm-3.32 29.37 1.68-11.63 4.66.02-.32 2.25h-2.29l-.33 2.25h2.19l-.32 2.2h-2.19l-.38 2.66h2.44l-.33 2.27zm5.72.02 1.68-11.63h2.4l.27 5.58.8-5.56h2.25l-1.68 11.64h-2.27l-.33-5.83-.84 5.82zm7.88.03 1.35-9.39h-1.38l.32-2.24 5.09.02-.32 2.23h-1.38l-1.35 9.39h-2.33Zm6.17-11.61h3.57q.86.01 1.26.4c.4.39.43.62.47 1.08q.05.7-.09 1.78a4 4 0 0 1-.48 1.54q-.34.56-1 .77a.9.9 0 0 1 .69.53q.18.42.07 1.14l-.66 4.4h-2.28l.66-4.56q.06-.48-.1-.62-.17-.14-.67-.14l-.77 5.31h-2.36zm2.31 4.31q.5 0 .64-1.05.06-.47.06-.69 0-.23-.1-.32-.09-.09-.3-.09h-.54l-.31 2.15zm2.5 7.34 1.68-11.63H63l-1.68 11.64h-2.25Zm3.32.01 1.68-11.63 4.66.02-.32 2.25h-2.29l-.33 2.25h2.19l-.32 2.2h-2.19l-.38 2.66h2.44l-.33 2.27zm6.28-.65q-.59-.78-.34-2.53l.16-1.14h2.29l-.21 1.46q-.12.87.43.87.31 0 .46-.18c.15-.18.17-.33.21-.62q.08-.57 0-.94a2 2 0 0 0-.26-.62q-.3-.4-.64-.78l-.86-1a3 3 0 0 1-.8-2.52q.21-1.49 1.01-2.26a3 3 0 0 1 2.11-.77q1.57 0 2.14.84c.57.84.49 1.43.31 2.61h-2.37l.1-.81q.03-.23-.08-.37t-.34-.14a.7.7 0 0 0-.43.15q-.16.14-.19.41-.08.57.48 1.18l1.17 1.3q.4.46.66.88.26.41.36.98c.1.57.07.82 0 1.33a5 5 0 0 1-1.01 2.6q-.76.88-2.21.88-1.55-.03-2.15-.81"/>
</svg>
