<svg xmlns="http://www.w3.org/2000/svg" width="242" height="68" viewBox="0 0 242 68">
  <defs>
    <linearGradient id="linear-gradient" x1="-2.11" x2="239.29" y1="37.6" y2="37.6" gradientTransform="translate(2.12 71.7) scale(1 -1)" gradientUnits="userSpaceOnUse">
      <stop offset="0" stop-color="#e5e2df"/>
      <stop offset="0" stop-color="#ded9d6"/>
      <stop offset=".06" stop-color="#cfcac8"/>
      <stop offset=".18" stop-color="#a8a4a6"/>
      <stop offset=".26" stop-color="#8b878d"/>
      <stop offset=".52" stop-color="#f3f4f4"/>
      <stop offset=".58" stop-color="#e4e5e5"/>
      <stop offset=".7" stop-color="#bfbec0"/>
      <stop offset=".86" stop-color="#847f84"/>
      <stop offset=".88" stop-color="#807b80"/>
      <stop offset="1" stop-color="#d1d3d4"/>
      <stop offset="1" stop-color="#a7a9ac"/>
    </linearGradient>
  </defs>
  <path fill="#d7282c" stroke="url(#linear-gradient)" stroke-miterlimit="10.03" stroke-width="4.56" d="M2.29 2.53h237.44v62.95H2.29z"/>
  <g fill="#fff">
    <path d="M24.86 37.48a6.6 6.6 0 0 1 2.66-2.11l13.02-5.5q.57-.27.84-.68t.4-1.12q.04 0 .04-.04l.18-.84q.18-.8-.15-1.17t-1.12-.37H27.57l1.06-4.97h15.14q1.4 0 2.42.53 1.01.53 1.36 1.58t.04 2.51l-.75 3.61a8 8 0 0 1-1.14 2.77 7 7 0 0 1-2.11 1.98q-.35.13-.66.31l-12.98 5.41q-.57.22-.92.81t-.53 1.34l-.35 1.76h15.4l-1.06 4.97H21.94l1.58-7.35a8.5 8.5 0 0 1 1.34-3.43M50 20.4h2.77l-.21.9.13-.1q.29-.26.54-.44t.62-.29q.36-.12.77-.12h3.36q1.38 0 1.98.8.59.8.28 2.28l-2.18 10.18h-2.85l1.92-9.11q.13-.64-.12-.99a.8.8 0 0 0-.73-.35h-2.85q-.59 0-1.01.36t-.55 1l-1.92 9.08h-2.77zM61.31 32.81q-.59-.8-.26-2.28l1.51-7.13q.3-1.44 1.26-2.24a3.6 3.6 0 0 1 2.41-.81h5.08l.59-2.77 3.03-1.1-3.64 17.14h-2.8l.18-.9q-.33.4-.9.65c-.57.25-.79.24-1.23.24h-3.21q-1.44 0-2.03-.8Zm7.22-2.12q.31-.17.54-.45.22-.28.27-.67l1.39-6.44H66.7q-.7 0-1.06.33-.38.33-.5.92l-1.1 5.34q-.1.39-.03.64c.07.25.16.29.32.37q.24.12.6.12h2.87q.41 0 .73-.17ZM92.92 20.67h15.49q1.76 0 2.88.7c1.12.7 1.25 1.14 1.5 2q.37 1.3-.02 3.1l-1.32 6.38a8 8 0 0 1-2.44 4.42 7 7 0 0 1-4.73 1.52h-9.9l-2.02 9.46h-5.28zm12.65 12.52q.63-.51.86-1.47l.88-4.09q.17-.88-.33-1.43-.51-.55-1.47-.55h-8.36l-1.72 8.05h8.36q1.15 0 1.78-.51M118.49 20.67h5.28l-4.8 22.62h14.08l-1.06 4.97h-19.36zM149.77 20.67h6.03l3.48 27.59h-5.54l-2.46-21.21h.53l-11.53 21.21h-5.68zm-7.61 17.42h13.86l.66 5.02h-17.2zM164.16 47.6q-1.18-.65-1.63-1.94c-.45-1.29-.31-1.88-.04-3.08l3.39-16.06q.4-1.8 1.39-3.12a6.6 6.6 0 0 1 2.46-2.02 8 8 0 0 1 3.32-.7h12.94l-1.06 4.97h-11.04q-1.32 0-2.11.64a3 3 0 0 0-1.06 1.78l-2.73 12.85q-.22 1.19.29 1.78t1.74.59h11.18l-1.06 4.97h-12.89a6.3 6.3 0 0 1-3.08-.66ZM189.9 20.67h19.58l-1.06 4.97h-14.26l-1.23 5.94h12.5l-1.1 5.02h-12.5l-1.41 6.69h14.26l-1.06 4.97h-19.58zM209 43.07h5.63l-1.1 5.19h-5.63zm4.4-22.4h6.25l-4.97 19.14h-4.36z"/>
  </g>
</svg>
