<svg xmlns="http://www.w3.org/2000/svg" width="242" height="68" viewBox="0 0 242 68">
  <defs>
    <linearGradient id="linear-gradient" x1="-2.11" x2="239.29" y1="37.6" y2="37.6" gradientTransform="translate(2.12 71.7) scale(1 -1)" gradientUnits="userSpaceOnUse">
      <stop offset="0" stop-color="#e5e2df"/>
      <stop offset="0" stop-color="#ded9d6"/>
      <stop offset=".06" stop-color="#cfcac8"/>
      <stop offset=".18" stop-color="#a8a4a6"/>
      <stop offset=".26" stop-color="#8b878d"/>
      <stop offset=".52" stop-color="#f3f4f4"/>
      <stop offset=".58" stop-color="#e4e5e5"/>
      <stop offset=".7" stop-color="#bfbec0"/>
      <stop offset=".86" stop-color="#847f84"/>
      <stop offset=".88" stop-color="#807b80"/>
      <stop offset="1" stop-color="#d1d3d4"/>
      <stop offset="1" stop-color="#a7a9ac"/>
    </linearGradient>
  </defs>
  <path fill="#d7282c" stroke="url(#linear-gradient)" stroke-miterlimit="10.03" stroke-width="4.56" d="M2.29 2.53h237.44v62.95H2.29z"/>
  <g fill="#fff">
    <path d="M23.98 43.29h13.38q.92 0 1.67-.55t.88-1.39l.57-2.46q.09-.57-.11-1.03a1.5 1.5 0 0 0-.68-.73 2 2 0 0 0-1.1-.26h-9.81l1.1-5.06h9.81q.62 0 1.19-.29t.95-.77q.37-.48.46-1.06l.53-2.29q.17-.84-.31-1.3t-1.5-.46H27.72l1.06-4.97h15.71q1.55 0 2.55.57 1.01.57 1.36 1.67t.04 2.55l-1.01 4.66a5.9 5.9 0 0 1-2.81 3.9q-1.05.6-2.33.73l.04-1.23q1.4.27 2.29.86.88.6 1.19 1.56t.04 2.29l-1.14 5.19a5.3 5.3 0 0 1-1.17 2.53 6.6 6.6 0 0 1-5.04 2.31H22.92zM50.98 20.4h2.77l-.21.95q.48-.46.99-.73c.51-.27.7-.27 1.09-.27h4.67l-.59 2.77h-4.77q-.8 0-1.37.51t-.78 1.44l-1.82 8.54h-2.8zM59.75 32.81q-.59-.8-.26-2.28L61 23.4q.3-1.44 1.26-2.24a3.6 3.6 0 0 1 2.41-.81h5.08l.59-2.77 3.03-1.1-3.64 17.14h-2.8l.18-.9q-.33.4-.9.65c-.57.25-.79.24-1.23.24h-3.21q-1.44 0-2.03-.8Zm7.23-2.12q.31-.17.54-.45.22-.28.27-.67l1.39-6.44h-4.03q-.7 0-1.06.33-.38.33-.5.92l-1.1 5.34q-.1.39-.03.64c.07.25.16.29.32.37q.24.12.6.12h2.87q.41 0 .73-.17ZM91.37 20.67h15.49q1.75 0 2.88.7c1.13.7 1.25 1.14 1.5 2q.37 1.3-.02 3.1l-1.32 6.38a8 8 0 0 1-2.44 4.42 7 7 0 0 1-4.73 1.52h-9.9l-2.02 9.46h-5.28zm12.65 12.52q.63-.51.86-1.47l.88-4.09q.17-.88-.33-1.43-.51-.55-1.47-.55H95.6l-1.72 8.05h8.36q1.14 0 1.78-.51M116.93 20.67h5.28l-4.79 22.62h14.08l-1.06 4.97h-19.36zM148.22 20.67h6.03l3.48 27.59h-5.54l-2.46-21.21h.53l-11.53 21.21h-5.68zm-7.62 17.42h13.86l.66 5.02h-17.2zM162.6 47.6q-1.18-.65-1.63-1.94c-.45-1.29-.31-1.88-.04-3.08l3.39-16.06q.4-1.8 1.39-3.12a6.6 6.6 0 0 1 2.46-2.02 8 8 0 0 1 3.32-.7h12.94l-1.06 4.97h-11.04q-1.32 0-2.11.64a3 3 0 0 0-1.06 1.78l-2.73 12.85q-.22 1.19.29 1.78t1.74.59h11.18l-1.06 4.97h-12.89a6.3 6.3 0 0 1-3.08-.66ZM188.34 20.67h19.58l-1.06 4.97H192.6l-1.23 5.94h12.5l-1.1 5.02h-12.5l-1.41 6.69h14.26l-1.06 4.97h-19.58zM207.44 43.07h5.63l-1.1 5.19h-5.63zm4.4-22.4h6.25l-4.97 19.14h-4.36z"/>
  </g>
</svg>
