<svg xmlns="http://www.w3.org/2000/svg" width="242" height="68" viewBox="0 0 242 68">
  <defs>
    <linearGradient id="linear-gradient" x1="-2.11" x2="239.29" y1="426.41" y2="426.41" gradientTransform="translate(2.12 -393.48)" gradientUnits="userSpaceOnUse">
      <stop offset="0" stop-color="#e5e2df"/>
      <stop offset="0" stop-color="#ded9d6"/>
      <stop offset=".06" stop-color="#cfcbc9"/>
      <stop offset=".18" stop-color="#a8a4a7"/>
      <stop offset=".26" stop-color="#8b878d"/>
      <stop offset=".52" stop-color="#f3f4f4"/>
      <stop offset=".58" stop-color="#e5e5e6"/>
      <stop offset=".7" stop-color="#c0bec0"/>
      <stop offset=".87" stop-color="#847f84"/>
      <stop offset=".88" stop-color="#807b80"/>
      <stop offset="1" stop-color="#d1d3d4"/>
      <stop offset="1" stop-color="#a7a9ac"/>
    </linearGradient>
  </defs>
  <path fill="#d7282c" stroke="url(#linear-gradient)" stroke-miterlimit="10.03" stroke-width="4.56" d="M2.29 2.53h237.44v62.95H2.29z"/>
  <g fill="#fff">
    <path d="M36.1 25.73h-4.31l2.9-5.06h7.61l-5.85 27.59H31.3zM42.08 30.71h7.7q.57 0 .91-.32c.34-.32.39-.51.47-.89l.21-.92q.05-.3-.04-.54c-.09-.24-.18-.27-.37-.33h-.03l-5.95-1.51-.33-.1a2.2 2.2 0 0 1-1.26-.95q-.36-.64-.13-1.72l.64-2.92q.18-.98.68-1.64t1.26-1q.75-.33 1.78-.33h8.41l-.62 2.9h-7.34q-.54 0-.91.29-.38.3-.47.81l-.21 1.03a1 1 0 0 0 .04.58q.12.24.45.32H47l6 1.51h.05q1 .28 1.4.97.4.7.17 1.82l-.64 2.95a4 4 0 0 1-.72 1.58q-.51.66-1.31.99t-1.8.33h-8.7zM61.45 20.42h-4.31l.62-2.9h11.93l-.62 2.9h-4.54l-2.8 13.19h-3.08zM87.29 20.67h15.49q1.76 0 2.88.7c1.12.7 1.25 1.14 1.5 2q.37 1.3-.02 3.1l-1.32 6.38a8 8 0 0 1-2.44 4.42 7 7 0 0 1-4.73 1.52h-9.9l-2.02 9.46h-5.28zm12.65 12.52q.63-.51.86-1.47l.88-4.09q.17-.88-.33-1.43-.51-.55-1.47-.55h-8.36L89.8 33.7h8.36q1.15 0 1.78-.51M112.86 20.67h5.28l-4.8 22.62h14.08l-1.06 4.97H107l5.85-27.59ZM144.14 20.67h6.03l3.48 27.59h-5.54l-2.46-21.21h.53l-11.53 21.21h-5.68zm-7.61 17.42h13.86l.66 5.02h-17.2zM158.53 47.6q-1.18-.65-1.63-1.94c-.45-1.29-.31-1.88-.04-3.08l3.39-16.06q.4-1.8 1.39-3.12a6.6 6.6 0 0 1 2.46-2.02 8 8 0 0 1 3.32-.7h12.94l-1.06 4.97h-11.04q-1.32 0-2.11.64a3 3 0 0 0-1.06 1.78l-2.73 12.85q-.22 1.19.29 1.78t1.74.59h11.18l-1.06 4.97h-12.89a6.3 6.3 0 0 1-3.08-.66ZM184.27 20.67h19.58l-1.06 4.97h-14.26l-1.23 5.94h12.5l-1.1 5.02h-12.5l-1.41 6.69h14.26l-1.06 4.97h-19.58zM203.37 43.07H209l-1.1 5.19h-5.63zm4.4-22.4h6.25l-4.97 19.14h-4.36z"/>
  </g>
</svg>
