<svg xmlns="http://www.w3.org/2000/svg" with="332" height="260" viewBox="0 0 332 260">
  <defs>
    <linearGradient id="linear-gradient" x1="-982.04" x2="-953.4" y1="1147.82" y2="1218.38" gradientTransform="translate(-911.25 -957.72) rotate(-180) scale(1 -1)" gradientUnits="userSpaceOnUse">
      <stop offset="0" stop-color="#e5e2df"/>
      <stop offset="0" stop-color="#ded9d6"/>
      <stop offset=".06" stop-color="#cfcbc9"/>
      <stop offset=".18" stop-color="#a8a4a7"/>
      <stop offset=".26" stop-color="#8b878d"/>
      <stop offset=".52" stop-color="#f3f4f4"/>
      <stop offset=".58" stop-color="#e5e5e6"/>
      <stop offset=".7" stop-color="#c0bec0"/>
      <stop offset=".87" stop-color="#847f84"/>
      <stop offset=".88" stop-color="#807b80"/>
      <stop offset="1" stop-color="#d1d3d4"/>
      <stop offset="1" stop-color="#a7a9ac"/>
    </linearGradient>
    <linearGradient id="linear-gradient1" x1="-994.7" x2="-966.06" y1="1151.41" y2="1221.96" gradientTransform="translate(-911.25 -957.72) rotate(-180) scale(1 -1)" gradientUnits="userSpaceOnUse">
      <stop offset="0" stop-color="#e5e2df"/>
      <stop offset="0" stop-color="#ded9d6"/>
      <stop offset=".06" stop-color="#cfcbc9"/>
      <stop offset=".18" stop-color="#a8a4a7"/>
      <stop offset=".26" stop-color="#8b878d"/>
      <stop offset=".52" stop-color="#f3f4f4"/>
      <stop offset=".58" stop-color="#e5e5e6"/>
      <stop offset=".7" stop-color="#c0bec0"/>
      <stop offset=".87" stop-color="#847f84"/>
      <stop offset=".88" stop-color="#807b80"/>
      <stop offset="1" stop-color="#d1d3d4"/>
      <stop offset="1" stop-color="#a7a9ac"/>
    </linearGradient>
    <linearGradient id="linear-gradient2" x1="-1003.75" x2="-975.11" y1="1155.12" y2="1225.68" gradientTransform="translate(-911.25 -957.72) rotate(-180) scale(1 -1)" gradientUnits="userSpaceOnUse">
      <stop offset="0" stop-color="#e5e2df"/>
      <stop offset="0" stop-color="#ded9d6"/>
      <stop offset=".06" stop-color="#cfcbc9"/>
      <stop offset=".18" stop-color="#a8a4a7"/>
      <stop offset=".26" stop-color="#8b878d"/>
      <stop offset=".52" stop-color="#f3f4f4"/>
      <stop offset=".58" stop-color="#e5e5e6"/>
      <stop offset=".7" stop-color="#c0bec0"/>
      <stop offset=".87" stop-color="#847f84"/>
      <stop offset=".88" stop-color="#807b80"/>
      <stop offset="1" stop-color="#d1d3d4"/>
      <stop offset="1" stop-color="#a7a9ac"/>
    </linearGradient>
    <linearGradient id="linear-gradient3" x1="-1014.69" x2="-986.05" y1="1158.74" y2="1229.3" gradientTransform="translate(-911.25 -957.72) rotate(-180) scale(1 -1)" gradientUnits="userSpaceOnUse">
      <stop offset="0" stop-color="#e5e2df"/>
      <stop offset="0" stop-color="#ded9d6"/>
      <stop offset=".06" stop-color="#cfcbc9"/>
      <stop offset=".18" stop-color="#a8a4a7"/>
      <stop offset=".26" stop-color="#8b878d"/>
      <stop offset=".52" stop-color="#f3f4f4"/>
      <stop offset=".58" stop-color="#e5e5e6"/>
      <stop offset=".7" stop-color="#c0bec0"/>
      <stop offset=".87" stop-color="#847f84"/>
      <stop offset=".88" stop-color="#807b80"/>
      <stop offset="1" stop-color="#d1d3d4"/>
      <stop offset="1" stop-color="#a7a9ac"/>
    </linearGradient>
    <linearGradient id="linear-gradient4" x1="-1023.65" x2="-995.01" y1="1162.55" y2="1233.1" gradientTransform="translate(-911.25 -957.72) rotate(-180) scale(1 -1)" gradientUnits="userSpaceOnUse">
      <stop offset="0" stop-color="#e5e2df"/>
      <stop offset="0" stop-color="#ded9d6"/>
      <stop offset=".06" stop-color="#cfcbc9"/>
      <stop offset=".18" stop-color="#a8a4a7"/>
      <stop offset=".26" stop-color="#8b878d"/>
      <stop offset=".52" stop-color="#f3f4f4"/>
      <stop offset=".58" stop-color="#e5e5e6"/>
      <stop offset=".7" stop-color="#c0bec0"/>
      <stop offset=".87" stop-color="#847f84"/>
      <stop offset=".88" stop-color="#807b80"/>
      <stop offset="1" stop-color="#d1d3d4"/>
      <stop offset="1" stop-color="#a7a9ac"/>
    </linearGradient>
    <linearGradient id="linear-gradient5" x1="-712.88" x2="-684.4" y1="1147.92" y2="1218.1" gradientTransform="translate(969.94 -957.72)" gradientUnits="userSpaceOnUse">
      <stop offset="0" stop-color="#e5e2df"/>
      <stop offset="0" stop-color="#ded9d6"/>
      <stop offset=".06" stop-color="#cfcbc9"/>
      <stop offset=".18" stop-color="#a8a4a7"/>
      <stop offset=".26" stop-color="#8b878d"/>
      <stop offset=".52" stop-color="#f3f4f4"/>
      <stop offset=".58" stop-color="#e5e5e6"/>
      <stop offset=".7" stop-color="#c0bec0"/>
      <stop offset=".87" stop-color="#847f84"/>
      <stop offset=".88" stop-color="#807b80"/>
      <stop offset="1" stop-color="#d1d3d4"/>
      <stop offset="1" stop-color="#a7a9ac"/>
    </linearGradient>
    <linearGradient id="linear-gradient6" x1="-725.48" x2="-696.99" y1="1151.49" y2="1221.68" gradientTransform="translate(969.94 -957.72)" gradientUnits="userSpaceOnUse">
      <stop offset="0" stop-color="#e5e2df"/>
      <stop offset="0" stop-color="#ded9d6"/>
      <stop offset=".06" stop-color="#cfcbc9"/>
      <stop offset=".18" stop-color="#a8a4a7"/>
      <stop offset=".26" stop-color="#8b878d"/>
      <stop offset=".52" stop-color="#f3f4f4"/>
      <stop offset=".58" stop-color="#e5e5e6"/>
      <stop offset=".7" stop-color="#c0bec0"/>
      <stop offset=".87" stop-color="#847f84"/>
      <stop offset=".88" stop-color="#807b80"/>
      <stop offset="1" stop-color="#d1d3d4"/>
      <stop offset="1" stop-color="#a7a9ac"/>
    </linearGradient>
    <linearGradient id="linear-gradient7" x1="-734.48" x2="-705.99" y1="1155.18" y2="1225.36" gradientTransform="translate(969.94 -957.72)" gradientUnits="userSpaceOnUse">
      <stop offset="0" stop-color="#e5e2df"/>
      <stop offset="0" stop-color="#ded9d6"/>
      <stop offset=".06" stop-color="#cfcbc9"/>
      <stop offset=".18" stop-color="#a8a4a7"/>
      <stop offset=".26" stop-color="#8b878d"/>
      <stop offset=".52" stop-color="#f3f4f4"/>
      <stop offset=".58" stop-color="#e5e5e6"/>
      <stop offset=".7" stop-color="#c0bec0"/>
      <stop offset=".87" stop-color="#847f84"/>
      <stop offset=".88" stop-color="#807b80"/>
      <stop offset="1" stop-color="#d1d3d4"/>
      <stop offset="1" stop-color="#a7a9ac"/>
    </linearGradient>
    <linearGradient id="linear-gradient8" x1="-745.36" x2="-716.87" y1="1158.78" y2="1228.97" gradientTransform="translate(969.94 -957.72)" gradientUnits="userSpaceOnUse">
      <stop offset="0" stop-color="#e5e2df"/>
      <stop offset="0" stop-color="#ded9d6"/>
      <stop offset=".06" stop-color="#cfcbc9"/>
      <stop offset=".18" stop-color="#a8a4a7"/>
      <stop offset=".26" stop-color="#8b878d"/>
      <stop offset=".52" stop-color="#f3f4f4"/>
      <stop offset=".58" stop-color="#e5e5e6"/>
      <stop offset=".7" stop-color="#c0bec0"/>
      <stop offset=".87" stop-color="#847f84"/>
      <stop offset=".88" stop-color="#807b80"/>
      <stop offset="1" stop-color="#d1d3d4"/>
      <stop offset="1" stop-color="#a7a9ac"/>
    </linearGradient>
    <linearGradient id="linear-gradient9" x1="-754.27" x2="-725.79" y1="1162.56" y2="1232.74" gradientTransform="translate(969.94 -957.72)" gradientUnits="userSpaceOnUse">
      <stop offset="0" stop-color="#e5e2df"/>
      <stop offset="0" stop-color="#ded9d6"/>
      <stop offset=".06" stop-color="#cfcbc9"/>
      <stop offset=".18" stop-color="#a8a4a7"/>
      <stop offset=".26" stop-color="#8b878d"/>
      <stop offset=".52" stop-color="#f3f4f4"/>
      <stop offset=".58" stop-color="#e5e5e6"/>
      <stop offset=".7" stop-color="#c0bec0"/>
      <stop offset=".87" stop-color="#847f84"/>
      <stop offset=".88" stop-color="#807b80"/>
      <stop offset="1" stop-color="#d1d3d4"/>
      <stop offset="1" stop-color="#a7a9ac"/>
    </linearGradient>
    <linearGradient id="linear-gradient10" x1="2.68" x2="331.59" y1="1082.41" y2="1082.41" gradientTransform="translate(-.98 -957.72)" gradientUnits="userSpaceOnUse">
      <stop offset="0" stop-color="#e5e2df"/>
      <stop offset="0" stop-color="#ded9d6"/>
      <stop offset=".06" stop-color="#cfcbc9"/>
      <stop offset=".18" stop-color="#a8a4a7"/>
      <stop offset=".26" stop-color="#8b878d"/>
      <stop offset=".52" stop-color="#f3f4f4"/>
      <stop offset=".58" stop-color="#e5e5e6"/>
      <stop offset=".7" stop-color="#c0bec0"/>
      <stop offset=".87" stop-color="#847f84"/>
      <stop offset=".88" stop-color="#807b80"/>
      <stop offset="1" stop-color="#d1d3d4"/>
      <stop offset="1" stop-color="#a7a9ac"/>
    </linearGradient>
    <linearGradient id="linear-gradient11" x1="2.68" x2="331.59" y1="1082.41" y2="1082.41" gradientTransform="translate(-.98 -957.72)" gradientUnits="userSpaceOnUse">
      <stop offset="0" stop-color="#e5e2df"/>
      <stop offset="0" stop-color="#ded9d6"/>
      <stop offset=".06" stop-color="#cfcbc9"/>
      <stop offset=".18" stop-color="#a8a4a7"/>
      <stop offset=".26" stop-color="#8b878d"/>
      <stop offset=".52" stop-color="#f3f4f4"/>
      <stop offset=".58" stop-color="#e5e5e6"/>
      <stop offset=".7" stop-color="#c0bec0"/>
      <stop offset=".87" stop-color="#847f84"/>
      <stop offset=".88" stop-color="#807b80"/>
      <stop offset="1" stop-color="#d1d3d4"/>
      <stop offset="1" stop-color="#a7a9ac"/>
    </linearGradient>
  </defs>
  <path fill="#ffcb05" d="M41.02.38h249.87v46.14H41.02z"/>
  <path fill="url(#linear-gradient)" stroke="#fff" stroke-miterlimit="9.99" stroke-width="1.01" d="M91.31 205.05H30.38l4.99 4.99h58.08l-2.15-4.99Z"/>
  <path fill="url(#linear-gradient1)" stroke="#fff" stroke-miterlimit="9.99" stroke-width="1.01" d="M103.31 210.2H42.39l4.99 4.99h58.08z"/>
  <path fill="url(#linear-gradient2)" stroke="#fff" stroke-miterlimit="9.99" stroke-width="1.01" d="M111.78 215.3H50.87l4.99 4.99h58.07z"/>
  <path fill="url(#linear-gradient3)" stroke="#fff" stroke-miterlimit="9.99" stroke-width="1.01" d="M122.09 220.46H61.17l4.99 4.99h58.08z"/>
  <path fill="url(#linear-gradient4)" stroke="#fff" stroke-miterlimit="9.99" stroke-width="1.01" d="M130.58 225.39H69.66l4.99 4.99h58.08l-2.15-4.99Z"/>
  <path fill="url(#linear-gradient5)" stroke="#fff" stroke-miterlimit="9.99" stroke-width="1.01" d="M236.33 205.06h60.6l-4.97 4.96H234.2l2.14-4.96Z"/>
  <path fill="url(#linear-gradient6)" stroke="#fff" stroke-miterlimit="9.99" stroke-width="1.01" d="M224.38 210.18h60.6l-4.96 4.97h-57.77l2.14-4.97Z"/>
  <path fill="url(#linear-gradient7)" stroke="#fff" stroke-miterlimit="9.99" stroke-width="1.01" d="M215.95 215.25h60.6l-4.96 4.96h-57.77l2.14-4.96Z"/>
  <path fill="url(#linear-gradient8)" stroke="#fff" stroke-miterlimit="9.99" stroke-width="1.01" d="M205.71 220.39h60.6l-4.96 4.96h-57.77z"/>
  <path fill="url(#linear-gradient9)" stroke="#fff" stroke-miterlimit="9.99" stroke-width="1.01" d="M197.27 225.29h60.6l-4.96 4.96h-57.77z"/>
  <path fill="url(#linear-gradient10)" stroke="#fff" stroke-miterlimit="9.99" stroke-width="3.01" d="m315.06 71.94 5.74-29.08H10.59l3.61 29.08H1.7l16.36 131.9h288.68l23.46-131.9h-15.14Z"/>
  <path fill="url(#linear-gradient11)" d="m315.06 71.94 5.74-29.08H10.59l3.61 29.08H1.7l16.36 131.9h288.68l23.46-131.9z"/>
  <path d="m308.41 77.4 5.74-29.08H16.77l3.61 29.08H7.88L24 198.18h279.18L323.83 77.4z"/>
  <path fill="#fff" stroke="#fff" stroke-miterlimit="9.99" stroke-width="2.5" d="M248.34 194.76H76.43l8.25 35.12h6.34l1.86 7.9h6.63l1.86 7.88H108l1.85 7.88h32.65l3.4-3.53 2.76 3.53h18.66l3.88-3.78 3.25 3.78h39.79l1.85-7.88h6.64l1.85-7.88h6.63l1.86-7.9h7.05l8.25-35.12Z"/>
  <path d="m197.93 237.78-1.86 7.88h6.63l1.86-7.88z"/>
  <path fill="#ced0d1" d="m204.56 237.78-1.86 7.88h6.63l1.86-7.88z"/>
  <path d="m211.21 237.78-1.86 7.88h6.63l1.86-7.88z"/>
  <path fill="#ced0d1" d="m217.84 237.78-1.86 7.88h6.64l1.85-7.88z"/>
  <path d="m189.5 245.66-1.85 7.88h6.63l1.85-7.88z"/>
  <path fill="#ced0d1" d="m196.14 245.66-1.86 7.88h6.63l1.86-7.88z"/>
  <path d="m202.72 245.66-1.85 7.88h6.63l1.85-7.88z"/>
  <path fill="#ced0d1" d="m209.35 245.66-1.85 7.88h6.63l1.85-7.88zm-22.8-15.76-1.86 7.88h6.64l1.85-7.88z"/>
  <path d="m193.2 229.9-1.85 7.88h6.63l1.85-7.88z"/>
  <path fill="#ced0d1" d="m199.83 229.9-1.85 7.88h6.63l1.85-7.88z"/>
  <path d="m184.72 237.78-1.86 7.88h6.63l1.86-7.88z"/>
  <path fill="#ced0d1" d="m191.35 237.78-1.86 7.88h6.63l1.86-7.88zm-8.51 7.88-1.85 7.88h6.63l1.85-7.88z"/>
  <path d="m206.41 229.9-1.85 7.88h6.63l1.85-7.88z"/>
  <path fill="#ced0d1" d="m213.04 229.9-1.85 7.88h6.63l1.85-7.88z"/>
  <path d="m219.7 229.9-1.86 7.88h6.63l1.86-7.88z"/>
  <path fill="#ced0d1" d="m226.33 229.9-1.86 7.88h6.63l1.86-7.88z"/>
  <path d="m125.98 237.78 1.86 7.88h-6.64l-1.85-7.88z"/>
  <path fill="#ced0d1" d="m119.35 237.78 1.85 7.88h-6.63l-1.85-7.88z"/>
  <path d="m112.7 237.78 1.85 7.88h-6.63l-1.85-7.88z"/>
  <path fill="#ced0d1" d="m106.06 237.78 1.86 7.88h-6.63l-1.86-7.88z"/>
  <path d="m134.4 245.66 1.86 7.88h-6.63l-1.86-7.88z"/>
  <path fill="#ced0d1" d="m127.77 245.66 1.86 7.88h-6.64l-1.85-7.88z"/>
  <path d="m121.18 245.66 1.86 7.88h-6.63l-1.86-7.88z"/>
  <path fill="#ced0d1" d="m114.55 245.66 1.86 7.88h-6.63l-1.86-7.88zm22.8-15.76 1.86 7.88h-6.63l-1.86-7.88z"/>
  <path d="m130.7 229.9 1.86 7.88h-6.63l-1.86-7.88z"/>
  <path fill="#ced0d1" d="m124.07 229.9 1.86 7.88h-6.63l-1.86-7.88z"/>
  <path d="m139.19 237.78 1.86 7.88h-6.64l-1.85-7.88z"/>
  <path fill="#ced0d1" d="m132.56 237.78 1.85 7.88h-6.63l-1.85-7.88zm8.5 7.88 1.86 7.88h-6.63l-1.86-7.88z"/>
  <path d="m117.49 229.9 1.86 7.88h-6.63l-1.86-7.88z"/>
  <path fill="#ced0d1" d="m110.86 229.9 1.86 7.88h-6.63l-1.86-7.88z"/>
  <path d="m104.21 229.9 1.86 7.88h-6.64l-1.85-7.88z"/>
  <path fill="#ced0d1" d="m97.58 229.9 1.85 7.88H92.8l-1.85-7.88z"/>
  <path fill="#ed1b2f" d="M248.26 194.76H76.43l8.26 35.12h45.38a11.8 11.8 0 0 0-7.52 8.94l-.51 2.39H130l-1.07 5.04-.17.82h-8.35l-.33 1.57q-1 4.72 1.26 7.51c1.92 2.38 5.34 3.48 10.76 3.48 6.39 0 11.23-2.32 13.57-6.35a7 7 0 0 0 1.55 3.11c1.9 2.19 5.15 3.25 9.95 3.25 3.64 0 6.95-.99 9.58-2.87a13.4 13.4 0 0 0 4.33-5.14 10 10 0 0 0 2 4.38q2.94 3.62 9.02 3.63c4.4 0 8.1-1.44 11-4.26q4-3.92 5.47-10.82c1.14-5.34.56-9.47-1.71-12.27a9 9 0 0 0-3.03-2.4h46.18l8.25-35.11Z"/>
  <path d="M132.1 258.01c-4.82 0-7.94-.94-9.51-2.89-1.2-1.48-1.51-3.5-.94-6.17l.06-.29h9.34l-.07.43q-.21 1.3.27 1.88.4.47 1.34.47c1.33 0 2.3-.82 2.59-2.2q.21-.97-.21-1.48-.6-.74-2.6-.74h-1.95l1.32-6.21h2.19q2.8 0 3.26-2.16.2-1-.14-1.44-.32-.39-1.19-.39c-.97 0-1.94.3-2.4 2.48l-.06.29h-9.36l.1-.45c1.56-7.35 8.05-8.9 13.21-8.9 4.51 0 7.59.97 9.15 2.89q1.53 1.9.93 4.74c-.59 2.79-2.5 4.72-5.44 5.58q1.9.51 2.81 1.74 1.2 1.63.62 4.35c-1.14 5.29-6.11 8.46-13.31 8.46Z"/>
  <path fill="#fff" d="M137.34 230.62c8.04 0 10.58 3.13 9.71 7.18-.58 2.74-2.61 5.08-6.89 5.65l-.02.07c4.61.39 5.52 2.96 4.89 5.94-1.16 5.44-6.32 8.18-12.94 8.18-8.18 0-11.34-2.71-10.09-8.61h8.61c-.34 2.1.62 2.78 1.97 2.78 1.6 0 2.64-1.03 2.95-2.49.37-1.74-.57-2.67-3.17-2.67h-1.5l1.17-5.47h1.89c2.07 0 3.29-.89 3.62-2.46.26-1.25 0-2.28-1.69-2.28-1.42 0-2.32.71-2.76 2.78h-8.61c1.37-6.36 6.71-8.61 12.86-8.61m0-.73c-7.49 0-12.31 3.27-13.57 9.19l-.19.9h10.13l.12-.59c.43-2.02 1.24-2.19 2.04-2.19.31 0 .72.04.9.26.16.19.18.59.06 1.12q-.4 1.87-2.89 1.87h-2.49l-.12.59-1.17 5.47-.19.9h2.42c1.51 0 2.09.33 2.31.6.07.09.3.37.13 1.17-.26 1.21-1.07 1.9-2.22 1.9q-.76 0-1.06-.34-.37-.44-.19-1.58l.14-.86h-10.08l-.12.59c-.59 2.79-.26 4.9 1.01 6.48 1.65 2.03 4.85 3.02 9.8 3.02 7.39 0 12.49-3.28 13.66-8.77q.61-2.9-.69-4.64a5 5 0 0 0-1.97-1.51 7.5 7.5 0 0 0 4.67-5.5c.42-1.98.07-3.73-1-5.05q-2.47-3.01-9.45-3.02Z"/>
  <path d="M157.17 258.01c-4.3 0-7.16-.88-8.74-2.7q-1.74-2.02-1.26-5.48l.04-.32h9.86l-.06.42q-.13.9.17 1.26.21.24.69.24c.82 0 1.84-.38 2.47-3.3q.47-2.2.04-2.75c-.15-.18-.42-.26-.94-.26-.9 0-1.47.29-1.94 1.8l-.08.26h-9.21l3.99-16.28h20.55l-1.44 6.78h-11.65l-.88 2.95a9 9 0 0 1 4.85-1.31c2.67 0 4.74.82 6 2.38 1.21 1.5 1.58 3.61 1.04 6.1-1.33 6.31-6.5 10.21-13.51 10.21Z"/>
  <path fill="#fff" d="m172.3 231.29-1.29 6.04h-11.63l-1.26 4.23a8.5 8.5 0 0 1 5.51-1.85c4.76 0 7.8 2.78 6.68 8.04-1.38 6.51-6.83 9.89-13.16 9.89-6.75 0-10.41-2.24-9.63-7.75h9.1c-.16 1.07.09 1.92 1.23 1.92 1.25 0 2.24-.82 2.83-3.6.65-3.06 0-3.45-1.26-3.45s-1.83.57-2.29 2.07h-8.46l3.8-15.54zm.91-.73h-21.3l-.14.57-3.8 15.54-.22.92h9.96l.16-.52c.41-1.32.82-1.54 1.58-1.54.45 0 .6.07.65.12.08.09.29.54-.11 2.44-.64 3.01-1.67 3.01-2.1 3.01-.14 0-.33-.02-.41-.11-.05-.05-.19-.28-.09-.96l.12-.85h-10.6l-.09.64q-.51 3.63 1.35 5.77c1.65 1.9 4.59 2.83 9.02 2.83 7.19 0 12.51-4.02 13.88-10.48.56-2.61.17-4.82-1.12-6.41-1.33-1.65-3.51-2.52-6.29-2.52q-2.34 0-4.24.92l.54-1.82h11.68l.12-.59 1.29-6.04z"/>
  <path d="M182.1 258.01q-5.31 0-7.77-3.04c-1.95-2.41-2.42-6.08-1.39-10.93 1.89-8.91 7.18-13.8 14.9-13.8q5.31 0 7.77 3.04 2.93 3.63 1.39 10.93c-1.9 8.9-7.19 13.8-14.9 13.8m4.41-20.76c-1.08 0-1.94.5-3.32 6.96-.52 2.46-1.14 5.8-.52 6.58.13.16.34.23.75.23 1.08 0 1.94-.5 3.32-6.96.52-2.46 1.14-5.8.52-6.58-.14-.17-.35-.23-.75-.23"/>
  <path fill="#fff" d="M187.84 230.62c8 0 10.53 5.37 8.79 13.51-1.73 8.14-6.53 13.51-14.53 13.51s-10.53-5.37-8.79-13.51c1.73-8.14 6.53-13.51 14.53-13.51m-4.42 20.77c1.35 0 2.27-.64 3.68-7.25s.76-7.25-.59-7.25-2.27.64-3.68 7.25c-1.41 6.6-.76 7.25.59 7.25m4.42-21.51c-7.91 0-13.32 5-15.26 14.1-1.06 4.96-.56 8.74 1.46 11.24q2.57 3.17 8.06 3.17c7.91 0 13.32-5 15.26-14.1 1.06-4.96.56-8.74-1.46-11.24q-2.58-3.16-8.06-3.17m-4.42 20.76c-.38 0-.44-.07-.46-.09-.27-.33-.38-1.69.59-6.27 1.42-6.67 2.23-6.67 2.95-6.67.38 0 .44.07.46.09.27.33.38 1.69-.59 6.27-1.41 6.67-2.23 6.67-2.95 6.67m-11.96-49.78h-.69a.2.2 0 0 0-.2.2v21.52q.02.18.2.2h.69a.2.2 0 0 0 .2-.2v-21.52a.2.2 0 0 0-.2-.2m6.9 13.88c-.72 0-1.31-.41-1.63-.63-.12-.08-.3-.08-.39.07l-.53.93q-.11.22.05.34c.26.26 1.09.89 2.59.89 1.69 0 2.71-1.2 2.71-2.38 0-1.56-1.31-2.13-2.32-2.62-.81-.39-1.25-.69-1.25-1.07 0-.33.22-.63.7-.63.61 0 1.29.44 1.55.62.23.14.43.05.51-.08l.59-.89c.05-.08.07-.29-.07-.37a4.2 4.2 0 0 0-2.46-.86c-1.77 0-2.66 1.15-2.66 2.29 0 1.38 1.12 2 2.23 2.54.76.37 1.18.68 1.18 1.16 0 .41-.34.69-.8.69m3.31 1.48h1.26c.23 0 .36-.14.41-.28l.41-.92h3.13l.41.91c.1.22.2.29.4.29h1.28c.17 0 .26-.15.2-.3l-3.6-7.73a.2.2 0 0 0-.19-.13h-.12q-.13.01-.2.13l-3.6 7.73c-.06.15.03.3.21.3m3.63-4.65.87 1.9h-1.75zm6.55 4.64q.05.12.19.13h.12q.14-.01.2-.13l3.61-7.73c.07-.15-.02-.3-.2-.3h-1.53c-.09 0-.17.07-.2.13l-1.9 4.19h-.07l-1.9-4.19c-.02-.06-.1-.13-.2-.13h-1.53c-.17 0-.26.15-.2.3zm10.34-1.46q-.02-.2-.22-.22h-3.19v-1.55h2.62q.2-.01.22-.22v-1.25q-.02-.2-.22-.22h-2.62v-1.43h3.19q.2-.02.22-.22v-1.25q-.02-.2-.22-.22h-4.75q-.2.02-.22.22v7.6q.01.2.22.22h4.75q.2-.02.22-.22v-1.25Zm11.72-6.5c0-.1-.12-.18-.21-.18h-.18q-.12 0-.2.12l-2.67 4.96h-.02l-2.67-4.96c-.03-.07-.14-.12-.2-.12h-.18c-.09 0-.2.08-.21.18l-1.3 7.72c-.02.15.08.25.22.25h1.36c.12 0 .21-.09.22-.18l.51-3.55h.02l1.94 3.73c.03.07.13.13.19.13h.21c.06 0 .16-.06.2-.13l1.93-3.73h.02l.52 3.55c0 .09.12.18.22.18h1.36c.14 0 .24-.1.22-.25zm5.79-.06a.2.2 0 0 0-.2-.13h-.12q-.13.01-.2.13l-3.6 7.73c-.07.15.02.3.2.3h1.26c.23 0 .36-.14.41-.28l.41-.92h3.13l.41.91c.1.22.2.29.4.29h1.28c.17 0 .26-.15.2-.3zm-1.12 5.28.86-1.9.87 1.9zm11.93-2.81a2.45 2.45 0 0 0-2.42-2.48h-3.53c-.13 0-.22.1-.22.22v7.6q.01.2.22.22h1.37q.2-.02.22-.22v-2.93h.79l1.53 3.05s.09.1.18.1h1.53c.19 0 .28-.18.19-.33l-1.57-2.92c1.08-.41 1.71-1.26 1.71-2.32Zm-2.66.95h-1.7v-1.79h1.7c.47 0 .87.33.87.87s-.4.92-.87.92m8.96-3.43h-5.1c-.13 0-.22.1-.22.22v1.25q.01.2.22.22h1.64V216q.02.2.22.22h1.38q.2-.02.22-.22v-6.13h1.64q.2-.02.22-.22v-1.25c0-.12-.08-.22-.21-.22Zm-58.83 11.21q.44 0 .81.3.07.07.14 0l.47-.48s.05-.12 0-.17a2 2 0 0 0-1.45-.55 2.15 2.15 0 1 0 1.45 3.72q.07-.08 0-.16l-.47-.5s-.11-.04-.16 0q-.31.29-.8.29c-.68 0-1.18-.55-1.18-1.21s.5-1.23 1.18-1.23Zm4.18-.9c-1.19 0-2.15.96-2.15 2.16s.95 2.14 2.15 2.14 2.15-.95 2.15-2.14-.96-2.16-2.15-2.16m0 3.35c-.65 0-1.19-.54-1.19-1.19s.54-1.2 1.19-1.2 1.19.54 1.19 1.2a1.2 1.2 0 0 1-1.19 1.19m6.61-3.25s-.06-.1-.11-.1h-.09s-.08.02-.1.06l-1.39 2.58-1.39-2.58s-.07-.06-.1-.06h-.1s-.1.04-.11.1l-.68 4.01q0 .12.11.13h.7q.1-.01.11-.1l.26-1.85 1.01 1.93s.07.07.1.07h.11s.08-.03.1-.07l1-1.93.27 1.85s.06.1.11.1h.7q.12 0 .11-.13zm3.06-.04h-1.44q-.1.01-.11.11v3.95q.01.1.11.11h.7q.1-.01.11-.11v-1.4h.63c.78 0 1.33-.6 1.33-1.34a1.3 1.3 0 0 0-1.26-1.32zm0 1.79h-.6v-.91h.6c.26 0 .44.19.44.44 0 .27-.19.47-.44.47m3.39-1.78s-.06-.07-.1-.07h-.06s-.08.03-.1.07l-1.87 4.02c-.04.08 0 .16.1.16h.66q.18-.02.22-.14l.21-.48h1.63l.22.47q.06.16.21.15h.66c.09 0 .14-.08.1-.16zm-.58 2.74.45-.99.45.99h-.91Zm6.38-2.75h-.72q-.1.01-.11.11v2.12l-2.29-2.2s-.09-.09-.15-.09h-.09a.1.1 0 0 0-.11.11v4.02q.02.1.12.11h.71q.1-.01.11-.11v-2.23l2.32 2.34s.09.07.15.07h.06q.1 0 .11-.11v-4.02q-.01-.1-.11-.12m2 0h-.72a.1.1 0 0 0-.11.11v3.95q.01.1.11.11h.72q.1-.01.11-.11v-3.95s-.05-.11-.11-.11m3.76 0h-2.47q-.1.01-.11.11v3.95q.01.1.11.11h2.47q.1-.01.11-.11v-.65a.1.1 0 0 0-.11-.11h-1.66v-.81h1.36q.1-.01.11-.11v-.65a.1.1 0 0 0-.11-.11h-1.36v-.74h1.66q.1-.01.11-.11v-.65q-.01-.1-.11-.12m2.37 1.64q-.64-.28-.65-.55c0-.17.11-.33.36-.33.32 0 .67.23.81.32.12.07.22.02.26-.04l.3-.46s.04-.15-.04-.19a2.2 2.2 0 0 0-1.28-.45c-.92 0-1.38.6-1.38 1.19 0 .72.58 1.04 1.16 1.32.4.19.62.35.62.6 0 .21-.17.36-.41.36-.38 0-.68-.22-.85-.33-.06-.04-.16-.04-.2.04l-.27.48q-.05.11.02.18c.14.14.57.46 1.34.46.88 0 1.41-.62 1.41-1.24 0-.81-.67-1.1-1.2-1.36m-32.24-14.1c0-1.42 1.1-3.24 2.02-4.32.49 0 1-.07 1.37-.19-.74.92-1.91 2.95-1.91 3.58 0 .33.29.58.73.58.39-1.14 1.3-2.31 1.63-2.31q.09 0 .09.13c0 .41-.63 1.12-.63 1.7 0 .46.39.75.86.75.12-1.04.89-1.92.89-2.72 0-.32-.22-.5-.54-.5-.45 0-.88.26-1.21.55.45-.72 1.15-1.71 1.66-2.21 0 0-.12-.15-.52-.15q-.2 0-.39.08l-.78.15q-.5.1-1.09.1a5.5 5.5 0 0 1-2.64-.58s-.05.11-.05.23c0 .51.65.75 1.26.81-.74.94-1.8 2.62-1.8 3.51.02.5.51.82 1.05.82Zm5.66-.34c.94 0 1.84-.46 1.84-1.02 0-.23-.26-.36-.26-.36-.25.42-.74.97-1.1.97q-.15 0-.13-.19c0-.22.07-.42.22-.7.98-.1 1.9-.68 1.9-1.3q-.01-.37-.55-.39c-1.12 0-2.75 1.19-2.75 2.32 0 .4.27.67.83.67m1.8-2.64q.08.01.08.1c0 .39-.6.77-1.12.87.31-.48.78-.97 1.04-.97m-23.88 9.56 1.19-3.12 1.19 3.12zm2.42-4.9h-2.47l-3.46 8.46h2.14l.79-2.07h3.53l.79 2.07h2.14zm-17.43 7c-1.4 0-2.53-1.26-2.53-2.81s1.13-2.81 2.53-2.81 2.53 1.26 2.53 2.81-1.13 2.81-2.53 2.81m0-7.29a4.47 4.47 0 1 0-.42 8.94h.42a4.48 4.48 0 0 0 0-8.94m-17.63 7.29c-1.39 0-2.52-1.26-2.52-2.81s1.13-2.81 2.52-2.81 2.53 1.26 2.53 2.81-1.14 2.81-2.53 2.81m0-7.29a4.46 4.46 0 1 0 0 8.92 4.46 4.46 0 0 0 0-8.92m11.05.29-2.19 3.43-2.19-3.43h-2.14l3.39 5.3v3.16h1.89v-3.16l3.39-5.3zm18.54 0h-7.23v1.62h2.68v6.84h1.89v-6.84h2.67zm-41.68 1.63h2.68v6.84h1.89v-6.84H123v-1.62h-7.23v1.62Zm-16.97 1.35c.16-1.61.63-2.67 1.22-3.06-1.84.11-4.02.76-4.02 1.66 0 .67 1.08 1.19 2.8 1.4m1.78.1q.56 0 1.05-.03c-.16-1.08-.57-1.96-1.05-1.96s-.89.89-1.05 1.96q.5.03 1.05.03m1.76-.1c1.72-.21 2.8-.73 2.8-1.4 0-.9-2.18-1.55-4.02-1.66.59.39 1.06 1.45 1.22 3.06m-3.6 1.29v-.07c-2.15-.3-3.56-1.14-3.72-2.1a3.3 3.3 0 0 0-.65 1.97c0 2.38 2.5 4.33 5.66 4.53-.75-.47-1.3-1.99-1.3-4.33Z"/>
  <path fill="#fff" d="M90.38 201.88v20.3h20.3v-20.3zm10.19 15.23c-4.21 0-7.47-2.15-7.47-5.07s3.26-5.07 7.47-5.07 7.47 2.15 7.47 5.07-3.26 5.07-7.47 5.07"/>
  <path fill="#fff" d="M102.39 211.97v.07c0 2.35-.55 3.87-1.3 4.33 3.18-.2 5.66-2.17 5.66-4.53q-.02-1.11-.65-1.97c-.16.96-1.57 1.79-3.72 2.1Zm-1.82.12q-.59 0-1.13-.04c.04 1.8.53 2.74 1.13 2.74s1.09-.93 1.13-2.74q-.55.04-1.13.04"/>
  <g>
    <path d="M95.9 24.06 94.01 12.4h3.05l1.27 8.91h-.95l4.94-8.91h3.08l-6.72 11.66-1.48 6.9h-2.78zM104.07 30.58q-.68-.37-.87-1.07a4 4 0 0 1 .04-1.73l2.58-12.17q.24-1.07.75-1.79.52-.72 1.32-1.08c.8-.36 1.16-.36 1.89-.36h3.4q1.04 0 1.73.37t.9 1.08-.03 1.78l-2.58 12.17a5 5 0 0 1-.75 1.69q-.55.73-1.35 1.11-.8.37-1.86.37h-3.46q-1.03 0-1.72-.37Zm5.95-2.57q.33-.32.47-.96l2.31-10.74q.14-.62-.04-.96-.2-.34-.78-.34h-2.1q-.6 0-.92.31-.33.32-.47.99l-2.31 10.74q-.12.64.1.96t.78.31h2.19q.45 0 .77-.31M116.37 30.58a2 2 0 0 1-.95-1.11 3.4 3.4 0 0 1-.01-1.83l3.23-15.24h2.75l-3.05 14.44q-.18.73.09 1.11.27.37.89.37h2.07q.65 0 1.02-.35.37-.36.55-1.12l3.05-14.44h2.78l-3.23 15.18q-.2 1.13-.8 1.86t-1.42 1.12-1.95.38h-3.26q-1.07 0-1.76-.37M132.6 11.54h2.96l-4.17 6.25h-1.83l3.05-6.25ZM136.68 12.39h2.9l.03 15.33h-.65l6.6-15.33h2.93l-8.2 18.56h-3.31zM150.27 12.39h9.09l-.56 2.63h-6.25l-1.04 5h5.36l-.59 2.66h-5.36l-1.18 5.59h6.25l-.56 2.66h-9.09l3.94-18.56ZM167.61 12.39h9.09l-.56 2.63h-6.25l-1.04 5h5.36l-.59 2.66h-5.36l-1.18 5.59h6.25l-.56 2.66h-9.09l3.94-18.56ZM181.67 12.39h3.61l.15 18.56h-2.87l.12-15.63h.44l-6.57 15.63h-2.93zm-4.05 12.05h6.63l.18 2.66h-8.11zM191.14 12.39h6.66q1.07 0 1.76.33.7.33.92 1.01a3 3 0 0 1-.01 1.66l-1.01 4.88q-.23 1.1-.74 1.82-.5.72-1.26 1.08-.75.36-1.82.36h-4.03l-1.6 7.43h-2.81l3.94-18.56Zm5.11 8.25q.37-.29.49-.81l.8-3.7a2 2 0 0 0 0-.62.5.5 0 0 0-.33-.35 2 2 0 0 0-.65-.12h-3.17l-1.24 5.89h3.17q.57 0 .93-.28Zm-2.44 1.4 2.84-.21.56 9.12h-2.87zM203.37 12.39h2.75l2.87 12.64h-.65l2.58-12.64h2.78l-3.94 18.56h-2.49l-3.02-12.61h.62l-2.69 12.61h-2.75zM216.04 12.39h9.09l-.56 2.63h-6.25l-1.04 5h5.36l-.59 2.66h-5.36l-1.18 5.59h6.25l-.56 2.66h-9.09l3.94-18.56ZM227.02 12.39h6.75q1.1 0 1.76.38.67.39.84 1.15a3.6 3.6 0 0 1-.09 1.92l-2.49 11.57a7 7 0 0 1-.75 1.98q-.5.8-1.3 1.17-.81.37-1.91.37h-6.75l3.94-18.56Zm3.58 15.59q.33-.32.47-.93l2.31-10.83q.14-.62-.07-.9-.23-.28-.84-.28h-3.14l-2.84 13.26h3.17q.62 0 .95-.31ZM235.87 28.08h2.78l-.59 2.87h-2.78zm1.77-8.38h2.78l-.56 2.87h-2.78z"/>
  </g>
</svg>
