<svg xmlns="http://www.w3.org/2000/svg" width="360" height="260" viewBox="0 0 360 260">
<style>
/* <![CDATA[ */

#smoke1 {
  animation: smoke1 1.4s -.29s ease-in-out infinite;
}

#smoke4 {
  animation: smoke4 1.7s -1.1s ease-in-out infinite;
}

@keyframes smoke1 {
  0% {
    opacity: 1;
    transform: translate(147px, 119px) rotate(0deg) scale(0) translate(-147px, -119px);
  }
  100% {
    opacity: 0;
    transform: translate(147px, 119px) rotate(80deg) scale(2) translate(-147px, -119px);
  }
}

@keyframes smoke4 {
  0% {
    opacity: 1;
    transform: translate(147px, 119px) rotate(0deg) scale(0) translate(-147px, -119px);
  }
  100% {
    opacity: 0;
    transform: translate(147px, 119px) rotate(-50deg) scale(2) translate(-147px, -119px);
  }
}

#smoke2 {
  animation: smoke2 1.2s -.5s ease-in-out infinite;
}

#smoke5 {
  animation: smoke5 1.6s -.2s ease-in-out infinite;
}

@keyframes smoke2 {
  0% {
    opacity: 1;
    transform: translate(210px, 130px) rotate(0deg) scale(0) translate(-210px, -130px);
  }
  100% {
    opacity: 0;
    transform: translate(210px, 130px) rotate(80deg) scale(2) translate(-210px, -130px);
  }
}

@keyframes smoke5 {
  0% {
    opacity: 1;
    transform: translate(210px, 130px) rotate(0deg) scale(0) translate(-210px, -130px);
  }
  100% {
    opacity: 0;
    transform: translate(210px, 130px) rotate(-110deg) scale(2) translate(-210px, -130px);
  }
}

#smoke3 {
  animation: smoke3 1.2s -.8s ease-in-out infinite;
}

#smoke6 {
  animation: smoke6 1.5s -.4s ease-in-out infinite;
}

@keyframes smoke3 {
  0% {
    opacity: 1;
    transform: translate(181px, 107px) rotate(0deg) scale(0) translate(-181px, -107px);
  }
  100% {
    opacity: 0;
    transform: translate(181px, 107px) rotate(-70deg) scale(2) translate(-181px, -107px);
  }
}

@keyframes smoke6 {
  0% {
    opacity: 1;
    transform: translate(181px, 107px) rotate(0deg) scale(0) translate(-181px, -107px);
  }
  100% {
    opacity: 0;
    transform: translate(181px, 107px) rotate(50deg) scale(2) translate(-181px, -107px);
  }
}

/* ]]> */
</style>

<path id="smoke1" fill="#D9D9D9" d="M129.95 165.89a15.62 15.62 0 0 1-16.02-21.8 12.5 12.5 0 0 1-7.35-18.42 15.55 15.55 0 0 1-4.07-30.79 12.7 12.7 0 0 1 12.04-15.36 15.6 15.6 0 0 1 21.39-5.38l.24.14a11.77 11.77 0 0 1 10.89-.78 15.96 15.96 0 0 1 24.14 13.6l.18-.02a12.9 12.9 0 0 1 13.81 9.2 15 15 0 1 1 2.35 29.56 14.52 14.52 0 1 1-26.7-3.76 13.66 13.66 0 0 1-3.87-4.51l-.96.15c-.97.11-1.93.1-2.86-.02a15.54 15.54 0 0 1-23.96 10.53c.69 2.13.8 4.41.31 6.59a15.62 15.62 0 0 1 .44 31.1v-.03zm-12.13-46.39-.05.07h.17l-.11-.08-.01.01z"/>
<path id="smoke2" fill="#BFBFBF" d="M199.89 194.44a15.58 15.58 0 0 0 11.42-23.88 15.32 15.32 0 0 0 15.41-17v-.03c.33-.02.66-.04 1-.08a16.32 16.32 0 0 0 13.65-10.9 20.92 20.92 0 1 0 14.02-39.36c.2-4.76-2.76-9.09-7.27-10.63a17.87 17.87 0 0 0-27.93-21.03 22.7 22.7 0 0 0-37.62 11.86 21.28 21.28 0 0 0-17.93 31.04 21.58 21.58 0 1 0 23.43 33.5c2.66 1.6 5.58 2.7 8.64 3.24a15.3 15.3 0 0 0 1.8 12.21 15.58 15.58 0 1 0 1.39 31.06z"/>
<path id="smoke3" fill="#F1F2F2" d="M146.99 127.55a15.53 15.53 0 0 0 23.96-10.53c.93.12 1.89.13 2.86.02.32-.04.65-.08.96-.15a13.66 13.66 0 0 0 3.87 4.51c-1.49 2.59-.1 7.71.62 6.73 2.66 1.6 5.58 2.7 8.64 3.24a15.31 15.31 0 0 0 1.49 11.71 14.53 14.53 0 0 0 15.95-17.91 15 15 0 1 0-2.35-29.54 12.93 12.93 0 0 0-13.81-9.2l-.18.02a15.95 15.95 0 0 0-24.14-13.6 11.82 11.82 0 0 0-7.19-.7 21.24 21.24 0 0 0-1.85 22.51 21.58 21.58 0 0 0-15.39 23.07c.61 5.54 6.8 10.61 6.56 9.82z"/>
<path id="smoke4" fill="#D9D9D9" d="M129.95 165.89a15.62 15.62 0 0 1-16.02-21.8 12.5 12.5 0 0 1-7.35-18.42 15.55 15.55 0 0 1-4.07-30.79 12.7 12.7 0 0 1 12.04-15.36 15.6 15.6 0 0 1 21.39-5.38l.24.14a11.77 11.77 0 0 1 10.89-.78 15.96 15.96 0 0 1 24.14 13.6l.18-.02a12.9 12.9 0 0 1 13.81 9.2 15 15 0 1 1 2.35 29.56 14.52 14.52 0 1 1-26.7-3.76 13.66 13.66 0 0 1-3.87-4.51l-.96.15c-.97.11-1.93.1-2.86-.02a15.54 15.54 0 0 1-23.96 10.53c.69 2.13.8 4.41.31 6.59a15.62 15.62 0 0 1 .44 31.1v-.03zm-12.13-46.39-.05.07h.17l-.11-.08-.01.01z"/>
<path id="smoke5" fill="#BFBFBF" d="M199.89 194.44a15.58 15.58 0 0 0 11.42-23.88 15.32 15.32 0 0 0 15.41-17v-.03c.33-.02.66-.04 1-.08a16.32 16.32 0 0 0 13.65-10.9 20.92 20.92 0 1 0 14.02-39.36c.2-4.76-2.76-9.09-7.27-10.63a17.87 17.87 0 0 0-27.93-21.03 22.7 22.7 0 0 0-37.62 11.86 21.28 21.28 0 0 0-17.93 31.04 21.58 21.58 0 1 0 23.43 33.5c2.66 1.6 5.58 2.7 8.64 3.24a15.3 15.3 0 0 0 1.8 12.21 15.58 15.58 0 1 0 1.39 31.06z"/>
<path id="smoke6" fill="#F1F2F2" d="M146.99 127.55a15.53 15.53 0 0 0 23.96-10.53c.93.12 1.89.13 2.86.02.32-.04.65-.08.96-.15a13.66 13.66 0 0 0 3.87 4.51c-1.49 2.59-.1 7.71.62 6.73 2.66 1.6 5.58 2.7 8.64 3.24a15.31 15.31 0 0 0 1.49 11.71 14.53 14.53 0 0 0 15.95-17.91 15 15 0 1 0-2.35-29.54 12.93 12.93 0 0 0-13.81-9.2l-.18.02a15.95 15.95 0 0 0-24.14-13.6 11.82 11.82 0 0 0-7.19-.7 21.24 21.24 0 0 0-1.85 22.51 21.58 21.58 0 0 0-15.39 23.07c.61 5.54 6.8 10.61 6.56 9.82z"/>

</svg>