<svg xmlns="http://www.w3.org/2000/svg" width="360" height="260" viewBox="0 0 360 260">
<style>
/* <![CDATA[ */

#smoke1 {
  animation: smoke1 1.3s -.9s ease-in-out infinite;
}

#smoke4 {
  animation: smoke4 1.1s -1.33s ease-in-out infinite;
}

@keyframes smoke1 {
  0% {
    opacity: 1;
    transform: translate(137px, 132px) rotate(0deg) scale(0) translate(-137px, -132px);
  }
  100% {
    opacity: 0;
    transform: translate(137px, 132px) rotate(-60deg) scale(2) translate(-137px, -132px);
  }
}

@keyframes smoke4 {
  0% {
    opacity: 1;
    transform: translate(137px, 132px) rotate(0deg) scale(0) translate(-137px, -132px);
  }
  100% {
    opacity: 0;
    transform: translate(137px, 132px) rotate(60deg) scale(2) translate(-137px, -132px);
  }
}

#smoke2 {
  animation: smoke2 1.5s -.66s ease-in-out infinite;
}

#smoke5 {
  animation: smoke5 1.2s ease-in-out infinite;
}

@keyframes smoke2 {
  0% {
    opacity: 1;
    transform: translate(209px, 130px) rotate(0deg) scale(0) translate(-209px, -130px);
  }
  100% {
    opacity: 0;
    transform: translate(209px, 130px) rotate(-90deg) scale(2) translate(-209px, -130px);
  }
}

@keyframes smoke5 {
  0% {
    opacity: 1;
    transform: translate(209px, 130px) rotate(0deg) scale(0) translate(-209px, -130px);
  }
  100% {
    opacity: 0;
    transform: translate(209px, 130px) rotate(90deg) scale(2) translate(-209px, -130px);
  }
}

#smoke3 {
  animation: smoke3 1s -1s ease-in-out infinite;
}

#smoke6 {
  animation: smoke6 1.4s -.66s ease-in-out infinite;
}

@keyframes smoke3 {
  0% {
    opacity: 1;
    transform: translate(177px, 121px) rotate(0deg) scale(0) translate(-177px, -121px);
  }
  100% {
    opacity: 0;
    transform: translate(177px, 121px) rotate(60deg) scale(2) translate(-177px, -121px);
  }
}

@keyframes smoke6 {
  0% {
    opacity: 1;
    transform: translate(177px, 121px) rotate(0deg) scale(0) translate(-177px, -121px);
  }
  100% {
    opacity: 0;
    transform: translate(177px, 121px) rotate(-60deg) scale(2) translate(-177px, -121px);
  }
}

/* ]]> */
</style>
<path id="smoke1" fill="#D9D9D9" d="M109.44 86.92a15.62 15.62 0 0 1 26.75 4.09 12.5 12.5 0 0 1 18.22 7.83 15.54 15.54 0 0 1 24.65 18.88 12.7 12.7 0 0 1 2.34 19.38c1.13 4.57.2 9.6-2.98 13.56a15.59 15.59 0 0 1-8.61 5.45 11.77 11.77 0 0 1-7.15 8.25 15.95 15.95 0 0 1-26.68 7.45l-.11.14a12.9 12.9 0 0 1-16.27 3.26 15 15 0 1 1-25.55-15.73 15 15 0 0 1 2.99-3.51 14.53 14.53 0 1 1 21.54-16.22c1.97-.28 3.99-.13 5.93.46.72-1.06 1.61-2 2.62-2.79a15.52 15.52 0 0 1 9.49-24.39 12.44 12.44 0 0 1-4.86-4.44 15.63 15.63 0 0 1-22.3-21.68h-.02zm41.38 24.23v-.09l-.14.11.14-.02z"/>
<path id="smoke2" fill="#BFBFBF" d="M218.58 65.1a15.58 15.58 0 0 0-11.42 23.88 15.32 15.32 0 0 0-15.41 17v.03c-.33.02-.66.04-1 .08a16.32 16.32 0 0 0-13.65 10.9 20.92 20.92 0 1 0-14.02 39.36 10.76 10.76 0 0 0 7.27 10.63 17.87 17.87 0 0 0 27.93 21.03 22.7 22.7 0 0 0 37.61-11.86 21.28 21.28 0 0 0 17.93-31.04 21.58 21.58 0 1 0-23.43-33.5 25.26 25.26 0 0 0-8.64-3.24 15.3 15.3 0 0 0-1.8-12.21 15.58 15.58 0 1 0-1.39-31.06h.02z"/>
<path id="smoke3" fill="#F1F2F2" d="M184.3 86.05a15.55 15.55 0 0 0-9.49 24.39 12.4 12.4 0 0 0-2.62 2.79 13.67 13.67 0 0 0-5.93-.46c-.77-2.88-5.38-5.52-5.2-4.33a25.28 25.28 0 0 0-8.4 3.82 15.25 15.25 0 0 0-9.32-7.23 14.55 14.55 0 0 0 1.39 23.96 14.99 14.99 0 1 0 22.56 19.22c5.5 3 12.35 1.62 16.27-3.26l.11-.14a15.96 15.96 0 0 0 26.68-7.45c2.3-.91 4.25-2.51 5.58-4.59a21.21 21.21 0 0 0-14.61-17.23 21.59 21.59 0 0 0-5.44-27.2c-4.36-3.49-12.32-2.7-11.58-2.32v.03z"/>
<path id="smoke4" fill="#D9D9D9" d="M109.44 86.92a15.62 15.62 0 0 1 26.75 4.09 12.5 12.5 0 0 1 18.22 7.83 15.54 15.54 0 0 1 24.65 18.88 12.7 12.7 0 0 1 2.34 19.38c1.13 4.57.2 9.6-2.98 13.56a15.59 15.59 0 0 1-8.61 5.45 11.77 11.77 0 0 1-7.15 8.25 15.95 15.95 0 0 1-26.68 7.45l-.11.14a12.9 12.9 0 0 1-16.27 3.26 15 15 0 1 1-25.55-15.73 15 15 0 0 1 2.99-3.51 14.53 14.53 0 1 1 21.54-16.22c1.97-.28 3.99-.13 5.93.46.72-1.06 1.61-2 2.62-2.79a15.52 15.52 0 0 1 9.49-24.39 12.44 12.44 0 0 1-4.86-4.44 15.63 15.63 0 0 1-22.3-21.68h-.02zm41.38 24.23v-.09l-.14.11.14-.02z"/>
<path id="smoke5" fill="#BFBFBF" d="M218.58 65.1a15.58 15.58 0 0 0-11.42 23.88 15.32 15.32 0 0 0-15.41 17v.03c-.33.02-.66.04-1 .08a16.32 16.32 0 0 0-13.65 10.9 20.92 20.92 0 1 0-14.02 39.36 10.76 10.76 0 0 0 7.27 10.63 17.87 17.87 0 0 0 27.93 21.03 22.7 22.7 0 0 0 37.61-11.86 21.28 21.28 0 0 0 17.93-31.04 21.58 21.58 0 1 0-23.43-33.5 25.26 25.26 0 0 0-8.64-3.24 15.3 15.3 0 0 0-1.8-12.21 15.58 15.58 0 1 0-1.39-31.06h.02z"/>
<path id="smoke6" fill="#F1F2F2" d="M184.3 86.05a15.55 15.55 0 0 0-9.49 24.39 12.4 12.4 0 0 0-2.62 2.79 13.67 13.67 0 0 0-5.93-.46c-.77-2.88-5.38-5.52-5.2-4.33a25.28 25.28 0 0 0-8.4 3.82 15.25 15.25 0 0 0-9.32-7.23 14.55 14.55 0 0 0 1.39 23.96 14.99 14.99 0 1 0 22.56 19.22c5.5 3 12.35 1.62 16.27-3.26l.11-.14a15.96 15.96 0 0 0 26.68-7.45c2.3-.91 4.25-2.51 5.58-4.59a21.21 21.21 0 0 0-14.61-17.23 21.59 21.59 0 0 0-5.44-27.2c-4.36-3.49-12.32-2.7-11.58-2.32v.03z"/>
</svg>