{
    "asset" : {
        "generator" : "Khronos glTF Blender I/O v1.5.9",
        "version" : "2.0"
    },
    "scene" : 0,
    "scenes" : [
        {
            "name" : "Scene",
            "nodes" : [
                0,
                1,
                2
            ]
        }
    ],
    "nodes" : [
        {
            "name" : "Light",
            "rotation" : [
                0.16907575726509094,
                0.7558803558349609,
                -0.27217137813568115,
                0.570947527885437
            ],
            "translation" : [
                4.076245307922363,
                5.903861999511719,
                -1.0054539442062378
            ]
        },
        {
            "name" : "Camera",
            "rotation" : [
                0.483536034822464,
                0.33687159419059753,
                -0.20870360732078552,
                0.7804827094078064
            ],
            "translation" : [
                7.358891487121582,
                4.958309173583984,
                6.925790786743164
            ]
        },
        {
            "mesh" : 0,
            "name" : "test_tube01",
            "rotation" : [
                0.7071068286895752,
                0,
                0,
                0.7071067094802856
            ]
        }
    ],
    "materials" : [
        {
            "doubleSided" : true,
            "name" : "labtube_glass",
            "pbrMetallicRoughness" : {
                "baseColorFactor" : [
                    0.9294000267982483,
                    0.9294000267982483,
                    0.9294000267982483,
                    0.25
                ],
                "metallicFactor" : 0,
                "roughnessFactor" : 0.8625631332397461
            }
        }
    ],
    "meshes" : [
        {
            "name" : "test_tube01",
            "primitives" : [
                {
                    "attributes" : {
                        "POSITION" : 0,
                        "NORMAL" : 1,
                        "TEXCOORD_0" : 2
                    },
                    "indices" : 3,
                    "material" : 0
                }
            ]
        }
    ],
    "accessors" : [
        {
            "bufferView" : 0,
            "componentType" : 5126,
            "count" : 271,
            "max" : [
                6.735300064086914,
                6.735300064086914,
                -2.84689998626709
            ],
            "min" : [
                -6.735300064086914,
                -6.735300064086914,
                -95.8677978515625
            ],
            "type" : "VEC3"
        },
        {
            "bufferView" : 1,
            "componentType" : 5126,
            "count" : 271,
            "type" : "VEC3"
        },
        {
            "bufferView" : 2,
            "componentType" : 5126,
            "count" : 271,
            "type" : "VEC2"
        },
        {
            "bufferView" : 3,
            "componentType" : 5123,
            "count" : 1368,
            "type" : "SCALAR"
        }
    ],
    "bufferViews" : [
        {
            "buffer" : 0,
            "byteLength" : 3252,
            "byteOffset" : 0
        },
        {
            "buffer" : 0,
            "byteLength" : 3252,
            "byteOffset" : 3252
        },
        {
            "buffer" : 0,
            "byteLength" : 2168,
            "byteOffset" : 6504
        },
        {
            "buffer" : 0,
            "byteLength" : 2736,
            "byteOffset" : 8672
        }
    ],
    "buffers" : [
        {
            "byteLength" : 11408,
            "uri" : "data:application/octet-stream;base64,"
        }
    ]
}
