<svg xmlns="http://www.w3.org/2000/svg" width="768" height="90" viewBox="0 0 768 90">
  <path fill="#fff" d="M0 0v62.6s2.5.2 2.8-.3c.3-.5 3.8 0 6.5.4 2.6.4 4 4.6 4 4.6l4.3-4s2-.9 2-.3 2.3.9 2.3.9.6-.9.6-1.2 12.3 5.1 12.3 5.4.3-3.8 2.1-4.9c1.9-1.1 3 .1 5.2-.2 2.1-.3 5 1 7.1.2 2-.8 11 3.3 11 3.3s9.7-1.2 11.8-1.3c2.1-.2 3.1.9 3.1.9l.5 1.1 2.1-1.4s3.7 3.4 7.5 2.4c.8-.2 1.6-3.4 1.8-3.4 2 0 7.8-.2 9.4.9 7.6 5.5 11.7 0 13.9-.3 2.1-.3 9.7.5 10.5.5s6.9 3.2 7.9 3c1-.2 4.9-3.4 5.7-3.4s5.3 2.2 5.8 1.8c.6-.3 4.4-1 6.4-.7 2 .4 19.2 3.9 20.4 3.9.3 0 .5 0 .8.1 4.6.6 8.2 1.8 14.4 1.3 1.8-.2 5 .9 7 1.5 1.7.5 2.7 1.2 3.9 1.9 2.2 1.3 5.5 1.8 10.3 1.5 3.2-.2 6.6-.2 9.9-.2 2.6 0 5.1 0 7.1.5.4.3.7.7 1 1.2 2.3-.6 4.4-1.2 6.5-1.7.4 0 .9 0 1.3.3.3.1.6.6.7.6 1.3-1 1.6.6 2.4 1 1-.6 2-1.1 3.1-1.8.8 1.2 1.7 2.3 3.3 1.4.1 0 .5.1.6.3.8 1.4 1.8.6 2.6.1.7-.5 1.4-.7 2.3-.6.5 0 1.2-.3 1.7-.7 1.1-.7 2.2-.9 3.6-.7 1.9.4 3.7.6 5.3 1.7.9.6 2.1.9 1.5 2.6 1-.2 1.5-.4 2-.5 1.4-.1 2.8 0 3.7 1.4.7 1.1 1.5 1.3 2.8.6.8-.4 1.7-.4 2.6-.6 1.9-.3 3.9-.5 5.9-.8.2 1 .3 1.7.4 2.5.3 0 .7 0 .7-.2.9-1.5 1.9-2.8 4-1.9 1.7-1.4 3.8.1 5.8-.9-.2 1.2-.4 2-.5 3 1.2-.6 2.3-1.2 3.5-1.6.6-.2 1.3-.3 1.9-.1 1.7.5 3.3 1 4.9 1.6 2 .8 4 1.9 6 .1.2-.1.5-.2.7-.1 1.7.9 3.1-.3 4.6-.6 1.6-.4 3.2-.9 4.8-1.3.7 1.4 1.3 2.8 2 4.1.7 0 1.3-.2 1.8 0 1.1.6 2 .2 3.1-.3 1.4-.6 2.9-1.1 4.4-1.6.4-.1.9 0 1.2.2 2.4 1.5 4.4.2 6.3-.9 1.3-.8 2.3-2 3.8-.3.2.2.9 0 1.4 0 .9-.1 1.8-.3 2.7-.4 2.3-.4 4 1.1 6.1 1.9-1.2 2 2.5 2 1.4 3.8.8.2 1.5.5 2.2.5 1.3.1 2.9.7 3.8.2 2.2-1.2 4.2.3 6.3-.2.4 0 1 .8 1.5 1.2h.4c2.3-1.3 4.7-1.9 7.4-1.7.9 0 1.8-.3 2.7-.5 3-.7 6.1-1.5 9.1-2.3h.2c2.7 1.1 5.1-1.2 7.8-.6 1.7-1.1 3.2-.1 4.9.3 1.4.3 3.1-.2 4.6-.4.8 0 1.6-.3 2.4-.3 2.5 0 5.1-.2 7.2-1.7 1.2-.8 2.1-.7 2.8.5 1.5-1 2.7-2.2 4.6-1.7 2.4-1.6 5-.3 7.5-.4 1.1 0 2.1 0 3.1-.6.4-.3 1-.5 1.4-.4 1.5.2 2.5-.7 3.4-1.5.9-.7 1.8-1.1 3-.8.5.1 1.3-.2 1.7-.5.1 0 .2-.2.3-.3.8.2 1.7.4 2.6.7.8.2 1.7.5 2.5.6.6 0 1.4 0 1.9.6 0 .2.4.2.6.2.8-.3 1.3 0 1.9.4.4.2.8.7 1.4.2 0 0 .3 0 .5.1 1.1.8 2.5.6 3.8.4.5 0 1.1-.3 1.6-.2.9 0 2 0 2.4 1.1 0 0 .1.2.2.2.8 0 1.4.5 2.1 1 .7.5 1.5.6 2.3.9l1.8.7h.9c.8-.1 1.4-.2 2.2.2.9.6 2.1.6 3 0 .8-.4 1.4 0 1.9.5.2-1.3.3-1.4 1.6-1.4.3 0 .7.2 1 .2h.8c0 .1 3.9.1 3.9.1 1.1-.7 2.2-1.4 3.5-.3.2.1.5 0 .7 0q.5 1 1.5.7c.8-.2 1.6-.6 2.4-.6.6 0 .8-.3 1.1-.5.9.2 1.7.5 2.5.6.8 0 1.4.2 1.6 1 .2.5.5.7 1.1.6 1-.2 2.1-.3 3 .4.2 0 .4.1.5.1.9 0 1.7.2 2.4.7.2.1.4.2.6.2l2.2.5.3 1.2h.2l.3-1.4 1.4.3c.8 0 1.6-1.1 1.9-1.1s1.4.7 1.8.7 2.4-.6 2.5-.7c0 0 .3-.6.7-.3.4.3 2 .3 2.5.3s2.7-2.2 3.4-1.8c.8.4 1.5.6 1.5.6l2.2-.6s1.9.3 1.9 1 2.1-1.9 2.1-2.6 3.5-1 4.9-.8c1.4.2 5.1 1.9 5.4 1.6.3-.2 2.2-1.6 3.1-1.6h3.8s1 .7 1-1 3.1-1 3.1-1 1.5.9 2.3.9c.9 0 1.5-.2 1.6-.5.4-1.4 4.1-1.4 7.5-1 3.5.5 8.9 1.8 8.9 1.1s6.9-.5 6.9-.5-.4-1.6 4.1-1.8c4.4-.2 7.2 1 7.2 1s3-1.4 4.3-.3c1.4 1.1 3.5-.8 5.2-.8s9.4-1.4 15.2-1.8h2c1.3-.2 2.3-.1 2.9 0 3.5.9 14.4.3 14.4 0s8.3-.7 11.7 1.1c3.4 1.8 4.7-2.8 9.5-2.8s12.5 4.6 12.5 4.6l6.3-2.9s11.2-3.7 11.2-1.8 7.8 1.8 9.9 1.8 8.5-2.5 10.3-1.6c1.7.8 6.7 2.7 6.7 1.6s10.2-1.1 10.2-1.1 4.1-1.3 6.9-1.6c2.8-.3 7 1.9 9.3 2 2.4.1 15.6-1.2 19.7-1.2s8.9-1.9 10.8-.9c2.2 1.1 9.9-.4 9.9-.4V0H0Z"/>
  <path fill="#ca2027" d="M0 0v60.7s8-.7 6.2.1c-1.9.8 11.4 1.6 11.8.4 1-3.4 13.6-1 24.2.2 10.5 1.2 8.4-4.5 16.8-4.5s12.7 4.8 15.4 5.3c2.7.5 4.3.2 4.3.2l2.1-2.2h5c5 0 3.1 1.1 7.2 2.1s6.2-.9 6.2-.9 2.7-.6 4.1.5c1.4 1.1 4.3-.2 10.5-.2s3.3 0 7.4-.1c4.1 0 .8 1.3 10.1 1.4 9.3 0 14.3-7.3 16.6-3.1s9.6 3.3 14.7 2.2c7.8.2 8 .3 10.7 2.5 4.7 0 9.8-.1 14.8-.3 6-.2 10.4.7 13.1 2.3 3.9 2.4 8.9 4.4 19.1 4.4h.1c.6 0 1.1.3 1.7.4.4 0 .9.2 1.2 0 1.8-1.1 3.7-2.3 5.4-3.5 1.4-.9 2.6-2 4-2.9 2.4-1.5 4.6-.5 5.3 2.2.1.5.5 1.3.9 1.4 1.3.2 2.8.4 4.1 0 3.1-1 5.9.7 8.8.7.1 0 .3.2.4.3a5.4 5.4 0 0 0 7.5-1.2c.2-.3.4-.9.7-1l7.3-2.1c1.3 1.7 2.8.6 4.3.3.6-.1 1.2 0 1.7 0 .7 0 1.4-.2 2.2-.3 2.5-.3 5.1-1.9 7.4.7.5.6 1.8.6 2.8.8 1.2.2 2.5.3 3.7.3 2.3 0 3.9 1.1 5 3 .5.9 1 1.7 1.2 2.2 1.4.5 2.5.6 3.4 1.2 1.8 1.1 2.4 1.2 3.9 0 1-.8 1.9-1.3 3.1-1.3.5 0 1-.2 1.4-.4 1.2-.6 2.3-.6 3.6-.2 1.4.5 2.8.4 4-.5 1.6-1.2 3.3-1.8 5.4-.6 1.4-3.3 5.5-3.2 7.1-6.2 3.2-1.1 5.7-3.9 9.2-4.2 1.8-.2 3.9-.5 5.4 1.2.4.4 1 .6 1.4 1.1 1.4 1.4 2.7 1.4 4.5.4 2.3-1.3 4.8-1.8 6.7.8.2.2.6.3.9.4 1.5.4 2.4 1.3 2.7 2.9.3 1.3.8 1.5 2.2 1.1.7-.2 1.5-.4 2.1-.2 1.2.4 2.4 1 3.5 1.7.8.5 1.7 1.1 2.3 1.8 2.1 2.5 3.4 2.9 6.3 2 .6-.2 1.3-.4 1.9-.5 1-.2 1.7 0 1.9 1.1.3 1.7 1.6 2.1 3 2.6 2.1.8 4 .8 5.9-.6.6-.4 1.4-.5 2.1-.6 1.5-.1 2.7-.6 3.7-1.9.4-.5.9-1 1.5-1.3 1.9-.7 3.9-1.3 6-1.9.3.5.6.9.8 1.3 1.4 1.9 3.5 2.9 5.8 1.3.6-.4 1.2-1 1.8-1.3 1.7-.9 3.4-2.2 5.3-1.7 2.1.5 3.9.5 5.8-.6.5-.3 1.1-.2 1.7-.4.7-.2 1.4-.4 2-.8 2.2-1.3 2.8-1.1 4.1 1.1.1.2.4.3.1.1 1.8.2 3.1.3 4.3.5.5 0 1 .3 1.5.1 2.4-.7 4.8-1.5 7.2-2.3.4.2.7.4 1.1.6 1.3.7 2.4.9 3.8-.2s3.4-1.6 5.1-2.3c.4-.1.9.2 1.4.3 1.7.6 3.4.8 5.2.3 1.8-.5 3.8.1 5.6-1 .3-.2.8 0 1.2.2 1.3.5 2.6.5 3.9.2.5-.1 1.4-.2 1.6 0 1 1.6 2.1.7 3 0 1-.8 2.1-1.3 3.4-1.4.5 0 .9-.3 1.4-.5 1.3-.4 2.7-.9 4-1.3 1.7-.5 3.5-.7 5-2 1.5-1.2 3.3-2.3 5.4-1.9.3.8.6 1.5.9 2.4.9-.2 1.7-.4 2.5-.7 1.8-.5 2.6-.2 3.3 1.6.2.5.3 1.1.5 1.7.3.9.8 1.8 1.1 2.6 4.4-.8 8.4-1.5 12.4-2.3.5.5.8 1.3 1.3 1.5 2.1.7 4.3 1.4 6.5 1.6 1.1 0 2 .2 2.6 1 .9 1.2 1.9 1.2 3.1.6.4-.2 1.1-.5 1.4-.3 1.9 1.1 4.2.8 6 2.2 1.6 1.2 3.6 1 5.5.4 1-.3 2-.5 3-.6 6.2-.2 16.9-2.8 22.6-1.8 6.3 1.2 7.9 4.6 14.9 3.9 1.2-.1 2.8-.3 3.8-.1 4.9.7 7.5-4.1 11.9-4.6 1.9-.2 5.8 3.9 7.8 3.8l3.1-.2c4.5 0 14.6-5.9 18.3-1s17.8-2.6 21.8-2.6 11.3 3.7 20.1 3c8.8-.8 18.5-1.8 19.9-.9 1.3.9 8.4-1.9 10.9-2.8 2.5-.9 27 3 27.8-2.7s3.9 2.9 9.8 3.7c5.9.7 9.7-6.7 12.6-5.4 2.9 1.3 8.8 6.4 10.8 5.6 2-.7 8.7-1.6 8.7-1.6V0H0Z"/>
</svg>
