<svg xmlns="http://www.w3.org/2000/svg" width="30" height="30" viewBox="0 0 51 51">
<path d="M41.12 11.77a13.67 13.67 0 0 1-3.37-2.61 11.34 11.34 0 0 1-2.73-5.64h.01a7.38 7.38 0 0 1-.12-2.02h-8.24v31.88c0 .43 0 .85-.02 1.27l-.01.16V34.9a7.03 7.03 0 0 1-3.52 5.56 6.97 6.97 0 0 1-10.36-6.1 6.97 6.97 0 0 1 9.09-6.66l.01-8.39a15.3 15.3 0 0 0-11.8 3.45 15.06 15.06 0 0 0-5.35 11.27c-.1 2.22.57 4.52.88 5.47v.02c.2.56.97 2.47 2.24 4.08a16.8 16.8 0 0 0 3.57 3.37v-.02l.02.02c3.99 2.71 8.42 2.53 8.42 2.53.77-.03 3.33 0 6.25-1.38 3.23-1.53 5.07-3.81 5.07-3.81a15.69 15.69 0 0 0 2.76-4.59c.75-1.96.99-4.31.99-5.25V17.55l1.43.94s1.92 1.23 4.91 2.03c2.15.57 5.04.69 5.04.69v-8.18c-1 .11-3.06-.21-5.17-1.26z"/>
</svg>
