<svg xmlns="http://www.w3.org/2000/svg" width="60" height="60" viewBox="0 0 60 60">
  <ellipse cx="30" cy="30" fill="#cc2028" stroke="#fff" stroke-miterlimit="10" stroke-width="3.3" rx="28" ry="27.67"/>
  <g fill="#fff">
    <path d="M47.8 23.27a1 1 0 0 0 1.01-1.01 1 1 0 0 0-1.01-1.01 1 1 0 0 0-1.01 1.01 1 1 0 0 0 1.01 1.01Zm0-1.85c.47 0 .85.38.85.84s-.38.85-.85.85-.85-.38-.85-.85.38-.84.85-.84Z"/>
    <path d="M47.68 22.37h.16c.12 0 .13.09.13.18l.03.15h.3l-.03-.21c0-.12-.07-.21-.14-.24.1-.04.14-.14.14-.24 0-.18-.15-.28-.32-.28h-.58v.96h.3v-.33Zm0-.4h.14c.12 0 .15.03.15.09 0 .08-.08.09-.13.09h-.16v-.18Zm1.06 9.47c-.26-.92-2.46-8.33-2.46-8.33-.63-1.86-2.49-1.86-2.7-1.86H16.41c-.2 0-2.07 0-2.7 1.86 0 0-2.2 7.41-2.46 8.33a2.44 2.44 0 0 0 1.25 2.86l17.48 7.52 17.49-7.52c1.26-.63 1.51-1.95 1.26-2.86Zm-1.67 1.84L30 38.14l-17.07-4.86c-1.2-.38-1.15-1.58-.89-2.36l2.66-7.18c.33-.89 1.05-1.26 1.55-1.26h27.53c.48 0 1.21.38 1.55 1.26l2.66 7.18c.26.78.3 1.98-.9 2.36Z"/>
    <path d="M29.13 27.84h1.72v1.63h-1.72v-1.63Zm13.01-2.12h-2.67v6.39h1.66v-1.26h1.01a2.58 2.58 0 0 0 2.59-2.56 2.58 2.58 0 0 0-2.58-2.57Zm.09 3.49h-1.11v-1.86h1.11a.93.93 0 1 1 0 1.86Zm-7.16-3.49a3.24 3.24 0 0 0-3.24 3.19 3.24 3.24 0 0 0 6.47 0 3.22 3.22 0 0 0-3.24-3.19Zm0 4.72c-.85 0-1.53-.68-1.54-1.52 0-.84.69-1.52 1.54-1.52s1.54.69 1.54 1.52-.69 1.52-1.54 1.52Zm-10.14-4.72a3.24 3.24 0 0 0-3.24 3.19 3.24 3.24 0 0 0 6.47 0 3.22 3.22 0 0 0-3.24-3.19Zm0 4.72c-.85 0-1.53-.68-1.54-1.52 0-.84.69-1.52 1.54-1.52s1.54.69 1.54 1.52c0 .84-.69 1.52-1.54 1.52Zm-6.4-3.04c.54 0 1 .28 1.28.69l1.12-1.3a3.24 3.24 0 0 0-5.64 2.14 3.26 3.26 0 0 0 5.57 2.21l-1.11-1.28c-.28.36-.72.59-1.22.59-.85 0-1.53-.68-1.54-1.52 0-.84.67-1.53 1.51-1.53h.03Z"/>
  </g>
</svg>
