<svg xmlns="http://www.w3.org/2000/svg" viewBox="0 0 211.4 32.8">
  <path fill="#fff" d="M48.29 28.59c1.77-1.72 1.43-4.62-.33-6.19-1.91-1.71-5.12-1.14-6.18 1.25-1.76 3.96 3.15 8.32 6.51 4.94Zm-1.6-4.77c2.15 1.95-.22 5.47-2.55 3.48-1.84-1.9.09-5.34 2.55-3.48ZM106.65 8.95c-.02-.5-1.36.03-1.85.06.03-.14.89-1.68.77-1.79-.03-.19-.83-.46-.96-.55a.29.29 0 0 0-.38.13L103 9.36l-.38.07c.06-.25.68-.98.24-1.17-.16-.05-.61-.37-.79-.28-.17-.03-.84 1.63-.93 1.74l-3.17.61 1.04-2.99 1.86-.37a.28.28 0 0 0 .22-.34c-.06-.15-.07-.72-.24-.8-.12-.15-1.22.19-1.38.19l.16-.47c.07-.04 3.23-.57 3.14-.72.14-.13-.13-.94-.13-1.1a.28.28 0 0 0-.12-.18c-.02-.17-2.22.39-2.32.38l.56-1.62a.3.3 0 0 0-.18-.37l-.85-.29a.3.3 0 0 0-.37.18l-.51 1.46-.99-1.44a.29.29 0 0 0-.4-.07c-.12.12-.86.5-.86.69-.19 0 1.65 2.5 1.65 2.56l-.13.37c-.19-.18-.51-1.08-.89-.79-.12.11-.63.35-.64.54-.11.13.99 1.54 1.04 1.67l-1.06 3.05-2.07-2.39.61-1.79a.3.3 0 0 0-.18-.37l-.59-.2c-.45-.2-.6 1.06-.74 1.3l-.33-.38.96-2.86a.28.28 0 0 0-.18-.36c-.16-.02-.92-.4-1.07-.27-.15-.07-.77 2.12-.83 2.2l-1.12-1.3a.3.3 0 0 0-.41-.03l-.68.59c-.42.27.74 1.19.98 1.57l-1.74.13a.3.3 0 0 0-.27.31c.08.25-.1 1.21.38 1.17l2.83-.22.25.3c-.25.08-1.19-.1-1.13.38l.05.63c.01.16.15.26.31.26l1.75-.14 2.11 2.44-3.11.6-1.25-1.42a.3.3 0 0 0-.41-.03c-.1.12-.58.42-.57.61-.06.18.77.96.85 1.1l-.49.1-1.99-2.27a.3.3 0 0 0-.41-.03c-.1.13-.8.6-.77.79-.13.1 1.45 1.73 1.49 1.82l-1.68.32a.3.3 0 0 0-.23.34c.06.15.11.99.29 1.07.1.15 1.58-.25 1.73-.25l-.75 1.57c-.07.14 0 .31.13.38.16.04.86.5 1.03.4.1.17 1.35-2.68 1.39-2.71l.38-.07c-.06.25-.68.98-.24 1.17l.57.27c.14.07.32 0 .38-.13l.76-1.59 3.17-.61-1.04 2.99c-.12.06-2.04.32-2.04.5-.13.14.07.67.08.83.04.49 1.21-.01 1.5 0l-.16.47c-.07.04-3.23.57-3.14.72-.14.13.13.94.13 1.1.01.07.06.14.12.18.02.17 2.22-.39 2.32-.38l-.56 1.62a.3.3 0 0 0 .18.37l.85.29.09.02c.34.11.65-1.46.78-1.65.1.1 1 1.61 1.17 1.56.18.07.81-.49.96-.56a.29.29 0 0 0 .07-.4l-1.6-2.34.13-.37c.19.18.51 1.08.89.79.12-.11.63-.35.64-.54.11-.13-.99-1.54-1.04-1.67l1.06-3.05 2.07 2.39-.61 1.79a.3.3 0 0 0 .18.37l.59.2c.45.2.6-1.06.74-1.3l.33.38-.97 2.86c-.05.15.03.31.18.36.16.02.92.39 1.07.27.16.07.77-2.11.83-2.2.12.09 1.15 1.46 1.32 1.39.18.05.76-.57.89-.66.42-.27-.74-1.19-.98-1.57l1.74-.13a.3.3 0 0 0 .27-.31l-.07-.9c-.01-.16-.16-.26-.31-.27l-2.83.22-.26-.29c.25-.08 1.19.1 1.13-.38-.04-.16.01-.72-.15-.82-.05-.17-1.83.09-1.97.07l-2.11-2.44 3.11-.6 1.25 1.42a.3.3 0 0 0 .41.03c.1-.12.58-.42.57-.61.06-.18-.77-.96-.85-1.1l.49-.09 1.99 2.26a.3.3 0 0 0 .41.03c.1-.13.8-.6.77-.79.13-.1-1.45-1.73-1.49-1.82.13-.06 1.84-.27 1.87-.44.14-.14-.12-.94-.13-1.1ZM24.19 10.67c1.77-1.72 1.43-4.62-.33-6.19-1.91-1.71-5.12-1.14-6.18 1.25-1.76 3.96 3.15 8.32 6.51 4.94Zm-1.6-4.77c2.15 1.95-.22 5.47-2.55 3.48-1.84-1.9.09-5.34 2.55-3.48Z"/>
  <path fill="#ffd8aa" d="M194.11 1.49c-.79.09-1.82-.95-2.32-1.49h-1.83c1.28 2.4 6.47 5.03 5.69.15-.47-.06-.96-.09-1.44-.11.23.69.28 1.28-.09 1.45ZM183.86 2.16A6.57 6.57 0 0 0 187.42 0h-2.11c-.68.52-1.99 1.33-1.84 0h-1.34c-.07 1.2.27 2.43 1.73 2.16Z"/>
  <path fill="#fff" d="M208.37 7.96c-.17-.25-.35-.48-.53-.72-.09-.09-.2-.19-.33-.19-.17-.06-1.08 1.09-1.2 1.17-.07-.12-.5-1.96-.68-1.95-.15-.12-.83.19-.99.21a.29.29 0 0 0-.19.36l.77 2.56-.25.27c-.13-.24-.19-1.3-.65-1.15-.14.07-.64.12-.7.3-.15.1.45 1.67.46 1.82l-1.87 2.02-.83-2.68.92-1.25c.09-.13.07-.31-.06-.4-.78-.66-.76-.37-1.27.31l-.08-.26 1.49-2.03c.09-.13.07-.31-.06-.4-.15-.07-.68-.59-.86-.53-.18-.04-.96 1.22-1.07 1.32-.16-.31-.3-1.64-.75-1.44l-.77.24c-.49.08.18 1.34.25 1.77-.14 0-1.95-.55-2.03-.39-.18.07-.25.81-.31.96a.3.3 0 0 0 .21.35l2.6.61.11.36c-.17 0-1.05-.32-1.19-.19-.17.07-.2.58-.26.72a.3.3 0 0 0 .21.35l1.62.38.82 2.63-2.74-.62-.62-1.42c-.06-.15-.24-.22-.38-.15-.96.34-.71.47-.37 1.26l-.26-.06c-.08-.09-1.01-2.52-1.17-2.45-.16-.1-.8.29-.96.33-.48.14.33 1.3.45 1.74-.16 0-1.37-.39-1.5-.25-.18.07-.24.81-.3.96-.17.47 1.22.5 1.65.67l-1.27 1.35a.3.3 0 0 0 .01.41c.13.1.6.65.79.63.1.14 1.95-2 2.03-2.04l.36.08c-.09.14-.81.74-.76.93-.02.19.4.46.5.58.12.11.3.1.41-.01l1.14-1.21 2.68.6-1.9 2.06-1.54-.17c-.17-.03-.3.1-.32.25-.19 1.01.06.85.9.95l-.18.2c-.11.02-2.69-.38-2.71-.21-.17.09-.15.84-.19.99-.12.48 1.26.36 1.74.48-.16.27-1.27 1.07-.87 1.37.13.08.62.68.8.62.17.06 1.08-1.09 1.2-1.17.07.12.5 1.96.68 1.95.15.12.83-.19.99-.21a.29.29 0 0 0 .19-.36l-.77-2.56.25-.27c.13.24.18 1.3.65 1.15.14-.07.64-.12.71-.3.15-.1-.45-1.67-.46-1.81l1.87-2.02.83 2.68-.92 1.25c-.09.13-.07.31.06.4.78.66.76.38 1.28-.31l.08.26-1.49 2.03c-.09.13-.07.31.06.4.15.08.67.58.86.53.18.04.96-1.22 1.07-1.32.12.2.3 1.52.66 1.45l.09-.01.77-.24c.49-.08-.18-1.33-.25-1.77l1.81.43a.3.3 0 0 0 .35-.21c0-.16.28-.85.15-1 .08-.15-2.7-.69-2.78-.74l-.11-.36c.27 0 1.22.49 1.32.01.01-.16.21-.62.09-.76-.01-.18-1.68-.45-1.8-.51l-.82-2.63 2.74.62.63 1.42a.3.3 0 0 0 .38.15c.97-.35.7-.46.37-1.26l.26.06c.08.09 1.01 2.52 1.17 2.45.16.1.8-.29.95-.33.48-.14-.31-1.27-.45-1.74.4.02 1.57.56 1.62.07l.18-.78c.18-.47-1.26-.51-1.65-.67.07-.12 1.45-1.42 1.35-1.56.03-.19-.58-.62-.68-.75a.3.3 0 0 0-.41.01l-1.83 1.95-.37-.08c.13-.23 1.05-.81.67-1.13-.13-.08-.44-.51-.61-.46-.16-.08-1.23 1.23-1.34 1.3l-2.68-.6 1.91-2.06 1.54.17c.17.02.3-.1.32-.25.19-1-.06-.85-.9-.95l.18-.2 2.5.27c.46.07.33-.81.41-1.05.12-.48-1.26-.36-1.74-.48.03-.05 1.01-1.03.93-1.08Z"/>
  <path fill="#ffd8aa" d="m200.83 26.83-1.12.27.9 5.7h1.8c-.42-2.05-.64-4.2-1.58-5.97ZM195.39 23.97c-2.19 1.84-.49 3.77-.9 5.58l-3.54-2.6-.76.81 4.42 5.04h3.43c-1.85-2.29-1.75-5.71-2.64-8.84ZM205.85 32.8h1.78c-.23-1.43-.56-2.8-1.22-4.09l-1.09.3.54 3.8ZM211.13 32.57l.03.24h.24v-.3l-.27.06Z"/>
  <path fill="#fff" d="m148.81 10.52 1.51-.29c-.03.14-.89 1.67-.77 1.79.03.19.83.46.96.55.14.07.32 0 .38-.13l1.23-2.56.38-.07c-.06.25-.68.98-.24 1.17l.57.27c.14.07.32 0 .38-.13l.76-1.59 3.17-.61-1.04 2.99-1.86.37a.27.27 0 0 0-.22.34c.06.15.07.72.25.8.12.15 1.22-.19 1.38-.19l-.16.47-2.96.6a.27.27 0 0 0-.22.34c.11.24.05 1.22.52 1.11l2.11-.42-.56 1.62a.3.3 0 0 0 .18.37l.85.29a.3.3 0 0 0 .09.02c.34.11.65-1.46.78-1.65.1.1 1 1.61 1.17 1.56.18.07.81-.49.96-.56a.29.29 0 0 0 .07-.4l-1.6-2.34.13-.37c.19.18.51 1.08.89.79l.52-.35a.29.29 0 0 0 .07-.4l-.99-1.45 1.06-3.05 2.07 2.4c-.01.13-.74 1.93-.59 2.01.05.18.62.27.76.35.45.2.6-1.07.74-1.3l.33.38-.96 2.86c-.05.15.03.31.18.36.26.03 1.08.57 1.22.11l.69-2.03 1.12 1.3a.3.3 0 0 0 .41.03c.1-.13.8-.59.78-.79.08-.16-1.01-1.25-1.08-1.37l1.74-.13a.3.3 0 0 0 .27-.31c-.07-.25.09-1.2-.38-1.16l-2.83.22-.25-.29c.16-.04.96 0 1.06-.17.14-.12 0-.68.02-.84-.01-.16-.17-.26-.31-.26l-1.75.14-2.11-2.44 3.11-.6c.11.08 1.3 1.6 1.45 1.52.2.04.54-.4.68-.49.4-.3-.63-1.06-.76-1.29l.49-.09c.06.03 2.11 2.52 2.19 2.36.19.04.74-.58.88-.67a.3.3 0 0 0 .03-.41l-1.42-1.61 1.68-.32a.3.3 0 0 0 .23-.34l-.17-.88c-.02-.5-1.42.05-1.85.06l.75-1.57c.07-.14 0-.31-.13-.38-.16-.04-.86-.5-1.03-.4-.1-.17-1.35 2.68-1.39 2.71l-.38.07c.06-.26.68-.98.24-1.17-.15-.05-.62-.37-.79-.28-.17-.03-.84 1.63-.92 1.74l-3.17.61 1.04-2.99 1.86-.37a.28.28 0 0 0 .22-.34c-.06-.15-.07-.72-.24-.8-.13-.14-1.22.19-1.38.19l.16-.47 2.96-.6a.27.27 0 0 0 .22-.34c-.06-.15-.12-.99-.3-1.06-.02-.17-2.22.39-2.32.38l.2-.57h-3.28l1.14 1.66-.13.37c-.19-.18-.51-1.08-.89-.79-.12.11-.63.35-.64.54-.11.13.99 1.54 1.04 1.67l-1.06 3.05-2.07-2.39.61-1.79a.3.3 0 0 0-.18-.37l-.59-.2c-.45-.21-.6 1.07-.74 1.3l-.33-.38.87-2.75h-1.56l-.46 1.37c-.08-.05-1.16-1.43-1.26-1.37h-.14c-.1-.04-.73.58-.81.63-.42.27.74 1.19.98 1.57-.14.04-1.9.06-1.94.23-.15.12.02.95 0 1.11.01.16.15.27.31.26l2.83-.22.26.3c-.25.08-1.19-.1-1.13.37.04.16-.01.72.15.82.06.16 1.83-.09 1.97-.07l2.11 2.44-3.11.6-1.25-1.42a.3.3 0 0 0-.41-.03c-.1.12-.58.42-.57.61-.06.18.77.96.85 1.1l-.49.09-1.99-2.27a.3.3 0 0 0-.41-.03c-.1.13-.8.6-.77.79-.13.1 1.45 1.73 1.49 1.82l-1.68.32a.3.3 0 0 0-.23.34c.11.24.04 1.22.51 1.12Z"/>
  <path fill="#faaf40" d="M170.89 31.38a43.93 43.93 0 0 0 6.72-2.19c.93-.2 1.58-1.1.62-1.69-2.79.88-4.76 1.81-8.43 2.6 2.56-3.59 6.86-5.42 11.13-5.69.35-.02.95-.06.95-.66.02-.62-.53-.74-1.07-.71-1.97-.04-3.63.63-5.46 1.01 2.33-4.13 6.96-3.94 10.01-6.69.23-.2.57-.5.3-.92-.36-.55-.84-.23-1.13-.04a16.54 16.54 0 0 1-4.85 2.24c.65-1.14 7.45-9.71 5.86-10.49-.25-.15-.62-.22-.95.31a68.75 68.75 0 0 1-6.18 9.13c-.05-1.72.63-3.45 1.17-5.04.21-.51.18-.91-.3-1.12-.58-.22-.84.31-.98.6-1.83 3.26-.73 7.91-3.93 10.42.13-1.56 1.21-7.33-.4-7.51-.83.03-.56 1.18-.59 1.75.04 4.98-.47 8.99-4.62 11.78 1-3 1.51-6.1 2.73-8.97.15-.34.38-.85-.22-1.13-2.47-.66-3.01 12.4-6.82 14.43h2.71a16.2 16.2 0 0 1 3.75-1.42ZM162.94 32.8c.7-1.41 4.19-9.41 2.37-9.76-.57-.04-.7.49-.75.69a32.1 32.1 0 0 1-3.16 9.07h1.54Z"/>
  <path fill="#fff" d="M151.3 32.8h2.63a4.4 4.4 0 0 0-1.02-5.25c-3.6-3.01-8.28 1.28-5.92 5.25h2.55c-2.49-1.48-.65-5.91 2.09-3.83 1.13 1.1 1.24 3.07-.34 3.83ZM110 6.39c1.53 4.48 2.67 10.16 7.6 12.17 1.56.42 3.24.04 3.96-1.43 1.29 1.82 2.92 4.05 5.33 4.27 2.36.24 4-1.88 3.57-4.14 2.45 2.01 5.38 4.83 8.77 4.1 5.88-2.57.13-8.39-3.22-10.49 2.94-.34 3.6-3.8 1.63-5.68-1.68-1.63-4.45-2.19-6.94-2.51.59-.77.74-1.84.26-2.67h-21.08c-.1.27-.13.55-.04.82l.19.86c-1.8.79-.22 3.11-.04 4.7Z"/>
  <path fill="#faaf40" d="M110.48 5.62c1.33 4.54 2.22 10.44 7 12.71 1.68.58 3.5-.04 3.94-1.8 1.12 1.85 2.05 3.44 3.89 4.64 3.26 1.82 5.7-1.14 4.73-4.36 2.62 2.42 5.43 5.86 9.24 5.36 6.09-2.64-.63-8.76-3.8-11 3.27.26 4.78-2.87 2.69-5.25-1.77-1.87-4.89-2.51-7.54-2.91.96-.7 1.38-1.95.83-2.99h-4.34a32.04 32.04 0 0 0-10.35 2.89c-1.96-.66-3.88-1.48-5.91-1.69-2.02-.18-.44 3.1-.36 4.42Zm28.16 14.89c-3.31-.34-5.4-3.1-7.94-5.52l-1.55-1.69c-.52-.55-1.21-1.63-2.03-.91a.85.85 0 0 0-.15 1.03 13.11 13.11 0 0 1 1.51 4.29s.05 0 .05 0l-.05.02c.04.41.04.75.02 1.07-.03.19-.08.38-.14.53l-.14.24-.15.15h-.02a25.4 25.4 0 0 1-1.72-3.06c-1.16-2.67-1.84-5.01-1.81-7.86 5.61 3.17 10.64 6.67 14.42 11.64l-.29.08Zm-1.22-11.98.11.03v.04l-.07.26-.09.15-.16.15c-.11.07-.23.13-.32.17-1.56.47-3.56 0-4.98-.63-.96-.52-1.77.86-.87 1.44a61.31 61.31 0 0 1 4.38 3.14s.06.06.1.08c1.59 1.45 4.37 3.43 4.45 5.91l-.05.17a48.25 48.25 0 0 0-13.14-11.67c2.45-.51 5.71-.65 7.9-.26 1.12.23 1.88.44 2.75 1Zm-14.64-6.37c2.55-.64 4.67-.98 7.15-.94l-.1.18-.26.26c-1.19.82-2.68.95-4.15.97-1.05.01-1.06 1.62 0 1.64 1.7-.04 3.44.08 5.09.31 1.97.29 3.42.66 4.71 1.21.55.26 1.03.5 1.42.85-3.47-1.13-7.39-.77-10.86-.04a.63.63 0 0 0-.44.34 58.65 58.65 0 0 0-6.85-3.36 40.15 40.15 0 0 1 4.3-1.41Zm-6.88 3.12c.01-.18.04-.36.06-.53 2.5.99 4.87 2.1 7.19 3.31-.17 4.25 1.19 8.22 3.31 11.7a3.97 3.97 0 0 1-.65-.42c-2.14-1.88-3.55-4.95-4.77-7.67-.51-1.08-.7-3.77-2.3-3.19a.88.88 0 0 0-.43 1.02c.26.79.65 1.81 1.08 2.83.34 1.26.68 2.7.28 3.91l-.15.26-.11.11-.15.09c-1.61-3.63-3.58-7.45-3.34-11.43Zm-1.23-1.04c-.68 4.4 1.25 8.33 3.01 12.31-3.96-2.77-4.87-8.8-5.97-13.39.93.33 1.94.69 2.96 1.08ZM111.68.43l1.34-.43h-2.36c.18.35.64.57 1.01.43ZM134.78 31.02c-.05-.41-.17-.62-.68-.73-6.2-.23-6.49 1.4-11.39 1.97l-.49-.07c2.12-1.45 4.54-2.15 6.81-3.32 2.09-3.26-7.78 1.37-9.64 2.77l-1.79-.28a25.8 25.8 0 0 1 7.15-4.59c.73-.32.26-1.46-.51-1.27-3.17.74-6.42 2.77-8.93 5.59l-1.05-.09c.96-1.86 3.39-3.17 4.42-4.98.31-.59-.25-1.55-1.03-1.01-1.99 1.76-4.26 3.53-5.36 5.89l-2.37-.03c1.94-3.69 3.85-5.35 7.01-7.53.32-.12.84-1.14.39-1.54-.23-.28-.68-.43-1.03-.15-3.24 2.58-6.66 5.17-8.2 9.28l-1.45.09c.8-1.99 1.94-3.69 3.14-5.45.27-.41-.2-.99-.66-.81-2.54 1.23-3.33 4.11-4.44 6.44-1.43.15-2.93.39-4.45.69.2.3.42.64.58.94h4.76l.29-.04.01.04h1.81l-.09-.17 1.61-.07.14.24h2.15a4.61 4.61 0 0 0-.18-.23l1.16.02.16.21H127.19c2.39-.55 4.72-.86 6.92-1.08a.7.7 0 0 0 .66-.71Z"/>
  <path fill="#fffffb" d="M92.75 32.47c-1.98-4.24-4.38-10.84-9.55-11.95-1.4-.12-2.78.46-3.18 1.83-1.38-1.36-3.12-3.02-5.22-2.84-2.06.14-3.14 2.23-2.42 4.09-2.41-1.34-5.34-3.32-8.14-2.17-4.64 3.11 1.17 7.21 4.36 8.49-1.21.42-2.22 1.56-1.92 2.88h26.15a1 1 0 0 0-.08-.33Z"/>
  <path fill="#faaf40" d="M91.28 30.52c-1.86-3.74-3.45-8.55-7.94-9.81-1.52-.24-3 .57-3.1 2.15-1.25-1.42-2.28-2.63-4.04-3.38-3.07-1.06-4.71 1.85-3.38 4.46-2.62-1.68-5.54-4.18-8.74-3.18-4.81 3.2 1.88 7.41 4.95 8.84-1.67.19-3.21 1.47-2.62 3.21h9.47c.8-.36 1.98-.4 2.49-1.14 1.2.43 2.42.8 3.64 1.14h8.56c-.83-.14-1.74-.29-2.66-.47-.08-3.87-2.35-6.96-4.46-10.08.22.06.43.15.64.26 3.26 2.19 5.01 6.63 6.51 10.29h1.57c-.25-.7-.54-1.44-.89-2.29ZM75.1 31.8c-1.76.5-3.38.76-4.83.78a6.66 6.66 0 0 1-2.61-.46v-.03l.02-.23.06-.15.11-.15c.08-.08.17-.15.25-.2 1.27-.65 3.05-.54 4.37-.22.9.3 1.39-1.01.52-1.37-3.09-1.54-7.99-3.16-9.04-6.46l.02-.15a41.84 41.84 0 0 0 13.04 7.99c-.58.23-1.2.44-1.9.65Zm-4.47-5.39a29.17 29.17 0 0 1-5.99-4.24l.24-.11c2.9-.21 5.08 1.82 7.65 3.51l1.52 1.16c.55.4 1.33 1.28 1.94.52a.72.72 0 0 0-.03-.9 11.47 11.47 0 0 1-1.95-3.46 5.1 5.1 0 0 1-.17-.91c0-.17.01-.33.04-.48.02-.09.06-.17.08-.22l.11-.15.01-.01c.71.76 1.37 1.55 1.94 2.36a15.93 15.93 0 0 1 2.75 6.46c-2.93-1-5.66-2.18-8.15-3.53Zm13.58-.89c1.28 2.08 2.2 3.81 2.49 6.16l.01.41a64.99 64.99 0 0 1-6.66-1.74 18.17 18.17 0 0 0-4.63-9.52c.2.07.41.15.63.26 2.11 1.27 3.81 3.71 5.25 5.84.62.86 1.13 3.08 2.46 2.38a.78.78 0 0 0 .21-.94 27 27 0 0 0-1.36-2.25c-.49-1.05-.99-2.21-.84-3.31l.09-.25a.63.63 0 0 1 .2-.21c.71 1.05 1.45 2.08 2.12 3.17ZM35.31 5.66c5.53.32 10.21-3.77 16.14-1.35-.69.62-1.5.66-2.28 1-.98.57-6.07 2.65-4.85 4.14.48.6 1.09.17 1.49-.12C50.55 6.02 56.62 4.35 62.35 6a83.22 83.22 0 0 1-9.17 3.72c-.79.22-2.33.14-1.98 1.35.26 1.02 1.26.78 2.08.48a53.25 53.25 0 0 0 7.87-2.9c3.09-1.4 6.13-2.58 9.74-2.18-.33.64-.92.7-1.46.95-1.28.7-7.11 3.23-5.96 5.14.75.73 1.53-.41 2.14-.8 3.09-2.45 8.11-4.5 12.77-5.22.58-.69 1.13-1.27 1.71-1.8l-.67-.89-.03-.03c-3.35-.58-6.83-2.21-9.76-3.82h-3.5a47.82 47.82 0 0 0 6.76 3.6c.38.14.78.28 1.13.77-5.86.49-9.04-.78-13.61-4.37h-3.16c1.58 1.16 3.13 2.34 4.83 3.44-4.04.42-7.38-.91-10.18-3.44h-2.65c.6.6 1.23 1.21 1.91 1.85A6.9 6.9 0 0 1 46 0h-3.24l.07.17L42.1 0h-7.49c2.86.96 5.19 1.45 7.81 2.28a22.34 22.34 0 0 1-7.04 1.75c-1.39-.08-1.6 1.69-.07 1.63Z"/>
  <path fill="#fff" d="m29.79 32.49-.15-.48c.17 0 1.24.38 1.37.24.17-.07.21-.64.27-.79a.3.3 0 0 0-.21-.35l-1.84-.43-.94-3.02 3.15.71c.09.11.69 1.79.87 1.76.16.09.64-.22.79-.26.44-.17-.15-.92-.2-1.18l.38.09 1.14 2.6a.3.3 0 0 0 .38.15c.14-.09.94-.33.98-.52.14-.11-.68-1.69-.71-1.82l1.5.34c.16.04.31-.06.34-.22l.2-.88c.04-.15-.07-.31-.22-.34l-1.67-.38c.05-.1 1.68-1.66 1.55-1.77.03-.19-.65-.69-.75-.82a.3.3 0 0 0-.41.01l-2.07 2.2-.49-.11c.13-.24 1.18-.95.8-1.27-.13-.08-.49-.56-.66-.51-.14-.1-1.39 1.4-1.5 1.47l-3.09-.7 2.19-2.37 1.75.19c.18.02.3-.1.32-.25 0-.16.15-.7 0-.83-.09-.17-.9-.16-1.06-.2l.26-.29 2.82.31c.17.02.3-.1.32-.25-.01-.17.19-.98.04-1.11-.03-.17-1.8-.25-1.93-.3.26-.38 1.44-1.25 1.03-1.54-.14-.1-.68-.72-.87-.69-.16-.08-1.25 1.28-1.36 1.35-.06-.09-.6-2.28-.76-2.23-.15-.13-.92.22-1.08.24a.29.29 0 0 0-.19.36l.87 2.89-.34.37c-.14-.26-.24-1.5-.7-1.33-.15.07-.71.14-.77.32-.15.07.52 1.9.52 2.03l-2.15 2.33-.96-3.08 1.04-1.42c.09-.13.07-.31-.06-.4l-.51-.37c-.37-.3-.72.59-.92.76l-.12-.37c0-.06 1.92-2.48 1.73-2.5 0-.19-.73-.6-.84-.72a.28.28 0 0 0-.4.06l-1.03 1.41c-.07-.13-.42-1.62-.6-1.64-.15-.12-.92.23-1.08.25a.29.29 0 0 0-.19.36l.51 1.64c-.11 0-2.28-.62-2.31-.46-.18.07-.27.91-.33 1.06a.3.3 0 0 0 .04.22c-.11.15 3.06.77 3.12.82l.15.48c-.17 0-1.23-.37-1.37-.24-.17.07-.21.64-.27.79a.3.3 0 0 0 .21.35l1.84.43.94 3.02-3.15-.71-.71-1.61c-.06-.15-.24-.22-.38-.15-.14.09-.68.23-.73.41-.11.16.32.86.35 1.02l-.38-.09-1.14-2.6c-.06-.15-.23-.21-.38-.15-.14.09-.94.33-.98.52-.14.11.68 1.69.71 1.82-.15 0-1.61-.45-1.72-.3-.18.07-.26.91-.33 1.06-.04.15.07.31.22.34l1.67.38-1.47 1.56a.3.3 0 0 0 .01.41c.15.09.66.74.86.7.08.16 2.2-2.26 2.27-2.29l.49.11c-.13.24-1.18.95-.8 1.27.13.1.48.53.66.51.14.1 1.39-1.4 1.5-1.47l3.09.7-2.19 2.37c-.14.02-1.89-.29-1.96-.13-.16.09-.13.66-.17.82-.07.47.88.33 1.12.41l-.26.29-2.82-.31a.3.3 0 0 0-.32.25c.01.17-.19.98-.04 1.11.03.17 1.8.25 1.93.3l-.56.6h3.22l-.3-.99.34-.37c.14.26.24 1.5.7 1.33.15-.07.71-.14.77-.32.15-.07-.52-1.91-.52-2.03l2.15-2.33.96 3.08c-.05.12-1.2 1.5-1.09 1.62h1.39l.14-.2.06.2h2.77l-1.32-.31Z"/>
  <path fill="#faaf40" d="M0 18v2.22c3.16-.07 6.55-1.96 9.64-2.07 1.42-.11 3.2 1.22 4-.57a1.5 1.5 0 0 0-.39-1.61c-.28-.31-.69-.67-.87-.99-.22-.39-.33-.8-.34-1.22a4.51 4.51 0 0 1 .16-1.14c.65-2.36 2.26-4.65 2.09-7.26-.17-1.55-.61-3.68-2.23-4.35A17.9 17.9 0 0 0 0 18Z"/>
  <path fill="#fff" d="M1.87 14.1c-.5.09-1.01.21-1.52.33-.09.48-.16.96-.22 1.45a20.1 20.1 0 0 1 5.13-.76s.1 0 .1 0c.92-.06 1.84.23 2.72.24.8.37 1.81 1.94 2.69 1.13.6-1.13-1.34-1.59-1.95-2.27.05-.22 0-.34-.02-.51-.44-3.29 1.82-6.22 2.23-9.39.12-.6-.58-1.03-1.07-.68-.62.96-.53 2.29-1.1 3.38-.73 2.01-1.57 3.9-1.5 6.13-1.12-.84-2.14-1.62-3.08-2.37-.01-.4-.19-.78-.24-1.18a11.4 11.4 0 0 1-.09-2.9c-.51.63-.96 1.3-1.38 1.99.01.26.03.5.07.77l-.36-.3c-.23.4-.43.82-.63 1.24 1.4 1.15 2.83 2.28 4.29 3.38a19.4 19.4 0 0 0-4.1.32ZM0 24.59v5.81c4 4.36 9.67-2.17 5.41-5.98a4 4 0 0 0-5.41.17Zm4.14 1.25c2.15 1.95-.22 5.47-2.55 3.48-1.84-1.91.09-5.35 2.55-3.48Z"/>
</svg>
