<svg xmlns="http://www.w3.org/2000/svg" width="189" height="52" viewBox="0 0 189 52">
  <g fill="#EF3B42">
    <polygon points="46 16 46 24 54 24 62 24 62 16 54 16"/>
    <polygon points="38 8 38 0 30 0 22 0 14 0 14 8 22 8 30 8 30 16 38 16 46 16 46 8"/>
    <polygon points="32 44 32 52 40 52 48 52 48 44 40 44"/>
    <polygon points="24 36 24 28 16 28 8 28 0 28 0 36 8 36 16 36 16 44 24 44 32 44 32 36"/>
    <polygon points="143 16 135 16 127 16 127 24 135 24 143 24"/>
    <polygon points="159 16 159 8 167 8 175 8 175 0 167 0 159 0 151 0 151 8 143 8 143 16 151 16"/>
    <polygon points="141 44 141 52 149 52 157 52 157 44 149 44"/>
    <polygon points="181 28 173 28 165 28 165 36 157 36 157 44 165 44 173 44 173 36 181 36 189 36 189 28"/>
  </g>
</svg>