<svg xmlns="http://www.w3.org/2000/svg" viewBox="0 0 915 1575">

<style>
/* <![CDATA[ */

#row1 {
  animation: row1 16s ease-out forwards;
}

@keyframes row1 {
  0% {
    opacity: 0;
    transform: translate(0px, 30px);
  }
  2%, 100% {
    opacity: 1;
    transform: translate(0px, 0px);
  }
}

#row2 {
  animation: row2 16s ease-out forwards;
}

@keyframes row2 {
  0%, 1% {
    opacity: 0;
    transform: translate(0px, 30px);
  }
  3%, 100% {
    opacity: 1;
    transform: translate(0px, 0px);
  }
}

#row3 {
  animation: row3 16s ease-out forwards;
}

@keyframes row3 {
  0%, 2% {
    opacity: 0;
    transform: translate(0px, 30px);
  }
  4%, 100% {
    opacity: 1;
    transform: translate(0px, 0px);
  }
}

#row4 {
  animation: row4 16s ease-out forwards;
}

@keyframes row4 {
  0%, 3% {
    opacity: 0;
    transform: translate(0px, 30px);
  }
  5%, 100% {
    opacity: 1;
    transform: translate(0px, 0px);
  }
}

#content {
  animation: content 16s ease-out forwards;
}

@keyframes content {
  0%, 10% {
    transform: translate(0px, 0px);
  }
  16%, 20% {
    transform: translate(0px, -700px);
  }
  26%, 100% {
    transform: translate(0px, -1163px);
  }
}

#row6 {
  animation: row6 16s ease-out forwards;
}

@keyframes row6 {
  0%, 30% {
    transform: translate(0px, 0px);
  }
  34%, 100% {
    transform: translate(-465px, 0px);
  }
}

#play_bttn {
  animation: play_bttn 16s ease-out forwards;
}

@keyframes play_bttn {
  0%, 40% {
    opacity: 0;
    transform: translate(0px, 30px);
  }
  44%, 100% {
    opacity: 1;
    transform: translate(0px, 0px);
  }
}

#play_bg {
  animation: play_bg 16s ease-out forwards;
}

@keyframes play_bg {
  0%, 40% {
    opacity: 0;
  }
  44%, 100% {
    opacity: .5;
  }
}

#play_preview {
  animation: play_preview 16s ease-out forwards;
}

@keyframes play_preview {
  0%, 41% {
    opacity: 0;
    transform: translate(901px, 1692px) scale(.3) translate(-901px, -1692px);
  }
  43% {
    opacity: 1;
    transform: translate(901px, 1692px) scale(1.1) translate(-901px, -1692px);
  }
  44%, 100% {
    opacity: 1;
    transform: translate(901px, 1692px) scale(1) translate(-901px, -1692px);
  }
}

#play_pause {
  animation: play_pause 16s ease-out forwards;
}

@keyframes play_pause {
  0%, 41% {
    opacity: 0;
    transform: translate(900px, 1819px) scale(.3) translate(-900px, -1819px);
  }
  43% {
    opacity: 1;
    transform: translate(900px, 1819px) scale(1.1) translate(-900px, -1819px);
  }
  44%, 100% {
    opacity: 1;
    transform: translate(900px, 1819px) scale(1) translate(-900px, -1819px);
  }
}

#play_circle {
  animation: play_circle 16s linear forwards;
}

@keyframes play_circle {
  0%, 46% {
    stroke-dashoffset: 326.2px;
  }
  90%, 100% {
    stroke-dashoffset: 652.4px;
  }
}

#icn_like {
  animation: icn_like 16s ease-out forwards;
}

@keyframes icn_like {
  0%, 96% {
    transform: translate(1067.9px, 2092.4px) scale(0) translate(-1067.9px, -2092.4px);
  }
  98% {
    transform: translate(1067.9px, 2092.4px) scale(1.2) translate(-1067.9px, -2092.4px);
  }
  99%, 100% {
    transform: translate(1067.9px, 2092.4px) scale(1) translate(-1067.9px, -2092.4px);
  }
}

#swipe1 {
  animation: swipe1 16s ease-out forwards;
}

@keyframes swipe1 {
  0%, 9%, 12%, 100% {
    opacity: 0;
  }
  10%, 11% {
    opacity: 1;
  }
}

#swipe1_circle {
  animation: swipe1_circle 16s ease-out forwards;
}

@keyframes swipe1_circle {
  0%, 10% {
    transform: translate(0px, 0px);
  }
  11%, 100% {
    transform: translate(0px, -120px);
  }
}

#swipe1_stroke rect {
  animation: swipe1_stroke 16s ease-out forwards;
}

@keyframes swipe1_stroke {
  0%, 10% {
    height: 80px;
    transform: translate(0px, 0px);
  }
  11% {
    height: 200px;
    transform: translate(0px, -120px);
  }
  12%, 100% {
    height: 80px;
    transform: translate(0px, -120px);
  }
}

#swipe2 {
  animation: swipe2 16s ease-out forwards;
}

@keyframes swipe2 {
  0%, 19%, 22%, 100% {
    opacity: 0;
  }
  20%, 21% {
    opacity: 1;
  }
}

#swipe2_circle {
  animation: swipe2_circle 16s ease-out forwards;
}

@keyframes swipe2_circle {
  0%, 20% {
    transform: translate(0px, 0px);
  }
  21%, 100% {
    transform: translate(0px, -120px);
  }
}

#swipe2_stroke rect {
  animation: swipe2_stroke 16s ease-out forwards;
}

@keyframes swipe2_stroke {
  0%, 20% {
    height: 80px;
    transform: translate(0px, 0px);
  }
  21% {
    height: 200px;
    transform: translate(0px, -120px);
  }
  22%, 100% {
    height: 80px;
    transform: translate(0px, -120px);
  }
}

#swipe3 {
  animation: swipe3 16s ease-out forwards;
}

@keyframes swipe3 {
  0%, 29%, 32%, 100% {
    opacity: 0;
  }
  30%, 31% {
    opacity: 1;
  }
}

#swipe3_circle {
  animation: swipe3_circle 16s ease-out forwards;
}

@keyframes swipe3_circle {
  0%, 30% {
    transform: translate(0px, 0px);
  }
  31%, 100% {
    transform: translate(-120px, 0px);
  }
}

#swipe3_stroke rect {
  animation: swipe3_stroke 16s ease-out forwards;
}

@keyframes swipe3_stroke {
  0%, 30% {
    width: 80px;
    transform: translate(0px, 0px);
  }
  31% {
    width: 200px;
    transform: translate(-120px, 0px);
  }
  32%, 100% {
    width: 80px;
    transform: translate(-120px, 0px);
  }
}

#tap1 {
  animation: tap1 16s ease-out forwards;
}

@keyframes tap1 {
  0%, 36% {
    opacity: 0;
    transform: translate(404px, 659px) scale(1) translate(-404px, -659px);
  }
  37%, 38% {
    opacity: 1;
    transform: translate(404px, 659px) scale(1) translate(-404px, -659px);
  }
  39% {
    opacity: 1;
    transform: translate(404px, 659px) scale(.8) translate(-404px, -659px);
  }
  40%, 100% {
    opacity: 0;
    transform: translate(404px, 659px) scale(1) translate(-404px, -659px);
  }
}

#tap1_circle {
  animation: tap1_circle 16s ease-in forwards;
}

@keyframes tap1_circle {
  0%, 38% {
    opacity: 0;
    transform: translate(404px, 659px) scale(.3) translate(-404px, -659px);
  }
  39% {
    opacity: 1;
    transform: translate(404px, 659px) scale(1) translate(-404px, -659px);
  }
  40%, 100% {
    opacity: 0;
    ransform: translate(404px, 659px) scale(1) translate(-404px, -659px);
  }
}

#tap2 {
  animation: tap2 16s ease-out forwards;
}

@keyframes tap2 {
  0%, 94% {
    opacity: 0;
    transform: translate(611px, 943px) scale(1) translate(-611px, -943px);
  }
  95%, 96% {
    opacity: 1;
    transform: translate(611px, 943px) scale(1) translate(-611px, -943px);
  }
  97% {
    opacity: 1;
    transform: translate(611px, 943px) scale(.8) translate(-611px, -943px);
  }
  98%, 100% {
    opacity: 0;
    transform: translate(611px, 943px) scale(1) translate(-611px, -943px);
  }
}

#tap2_circle {
  animation: tap2_circle 16s ease-in forwards;
}

@keyframes tap2_circle {
  0%, 96% {
    opacity: 0;
    transform: translate(611px, 943px) scale(.3) translate(-611px, -943px);
  }
  97% {
    opacity: 1;
    transform: translate(611px, 943px) scale(1) translate(-611px, -943px);
  }
  98%, 100% {
    opacity: 0;
    ransform: translate(611px, 943px) scale(1) translate(-611px, -943px);
  }
}

/* ]]> */
</style>

<path d="M640.88 159.32l-3.08-3.11a.49.49 0 01-.01-.68l.02-.02a5.28 5.28 0 016.81 0c.1.09.16.21.16.35a.5.5 0 01-.15.36l-3.08 3.11a.48.48 0 01-.67-.01c.01 0 .01 0 0 0zm5.43-5.44a7.57 7.57 0 00-10.16 0 .48.48 0 01-.67 0l-1.77-1.8a.47.47 0 01-.14-.36c0-.13.05-.26.15-.35a11.05 11.05 0 0115.04 0c.2.19.2.5.01.7l-.01.01-1.77 1.8a.5.5 0 01-.68 0zm4.1-4.14a13.32 13.32 0 00-18.36 0 .48.48 0 01-.67 0l-1.78-1.81a.5.5 0 01-.14-.35c0-.13.05-.26.15-.35a16.82 16.82 0 0123.25 0c.19.19.2.5 0 .7l-1.78 1.8a.47.47 0 01-.33.14.48.48 0 01-.34-.13z"/>
<path d="M620.67 159.46c-.85 0-1.54-.69-1.54-1.54v-13.31c0-.85.69-1.54 1.54-1.54h1.53c.85 0 1.54.69 1.54 1.54v13.31c0 .85-.69 1.54-1.54 1.54h-1.53zm-7.17 0c-.85 0-1.54-.69-1.54-1.54v-9.73c0-.85.69-1.54 1.54-1.54h1.54c.85 0 1.53.69 1.54 1.54v9.73c0 .85-.69 1.53-1.54 1.54h-1.54zm-7.17 0c-.85 0-1.53-.69-1.53-1.54v-6.15c0-.85.69-1.53 1.53-1.53h1.54c.85 0 1.53.69 1.54 1.53v6.14c0 .85-.69 1.54-1.54 1.54l-1.54.01zm-7.17 0c-.85 0-1.53-.69-1.53-1.54v-3.07c0-.85.69-1.54 1.53-1.54h1.54c.85 0 1.54.69 1.54 1.54v3.07c0 .85-.69 1.54-1.54 1.54h-1.54z"/>
<path d="M234.67 164.46c.41.43.92.64 1.54.64.64 0 1.17-.19 1.59-.56.41-.37.74-.83.99-1.36.25-.54.42-1.11.53-1.72.11-.61.18-1.16.21-1.64l-.05-.05a4.25 4.25 0 01-1.69 1.49c-.64.3-1.39.45-2.23.45-.74 0-1.47-.16-2.18-.49a5.4 5.4 0 01-1.81-1.3 5.14 5.14 0 01-1.02-1.81 7.23 7.23 0 01.11-4.55 5.9 5.9 0 015.64-3.86c1.32 0 2.41.26 3.26.78a6 6 0 012.04 2.06c.51.85.87 1.81 1.07 2.89s.3 2.16.3 3.25c0 1.07-.12 2.15-.37 3.22a9.53 9.53 0 01-1.19 2.91 6.64 6.64 0 01-2.11 2.11 5.8 5.8 0 01-3.15.81c-.74 0-1.44-.1-2.08-.31a4.83 4.83 0 01-2.92-2.44 6.1 6.1 0 01-.62-2.03h3.35c.11.58.37 1.08.79 1.51zm2.97-5.66c.35-.17.64-.41.87-.71.23-.3.4-.64.52-1.03a4.16 4.16 0 00-.02-2.41 3.14 3.14 0 00-.55-1.04 2.6 2.6 0 00-2.07-1c-.41 0-.78.09-1.12.27-.33.18-.61.42-.84.72-.23.3-.41.64-.52 1.02a4.4 4.4 0 00-.01 2.37c.11.39.27.74.48 1.04a2.37 2.37 0 002.01 1.03c.49 0 .91-.09 1.25-.26z"/>
<path d="M245.01 158.64v-3.82h3.89v3.82h-3.89zm3.89 4.95v3.82h-3.89v-3.82h3.89z"/>
<path d="M250.78 163.39v-3.22l7.54-10.11h3.15v10.44h2.31v2.9h-2.31v4.02h-3.35v-4.02h-7.34zm7.26-8.92l-4.49 6.02h4.56v-6.02h-.07z"/>
<path d="M270.36 167.41v-11.25H266v-2.65c.61.02 1.2-.03 1.77-.14.57-.11 1.08-.3 1.54-.57s.84-.63 1.15-1.08c.31-.45.52-1 .62-1.66h2.8v17.35h-3.52z"/>
<g id="explore" fill="#304768">
  <path d="M377.97 257.72v-.06c0-4.9 3.49-8.93 8.48-8.93 5.73 0 8.35 4.45 8.35 9.31 0 .38-.03.83-.06 1.28H382.8c.48 2.21 2.02 3.36 4.19 3.36 1.63 0 2.82-.51 4.16-1.76l2.78 2.46a8.59 8.59 0 01-7.01 3.2c-5.14.01-8.95-3.61-8.95-8.86zm12.1-1.43c-.29-2.18-1.57-3.65-3.62-3.65-2.02 0-3.33 1.44-3.71 3.65h7.33z"/>
  <path d="M404.56 260.86l-3.46 5.34h-5.09l6.02-8.7-5.79-8.45h5.22l3.2 5.02 3.23-5.02h5.09l-5.79 8.38 6.05 8.77h-5.22l-3.46-5.34z"/>
  <path d="M415.15 249.05h4.86v2.46a6.3 6.3 0 015.34-2.78c4 0 7.81 3.14 7.81 8.86v.06c0 5.73-3.74 8.86-7.81 8.86a6.57 6.57 0 01-5.34-2.56v7.36h-4.86v-22.26zm13.15 8.61v-.06c0-2.85-1.92-4.74-4.19-4.74s-4.16 1.89-4.16 4.74v.06c0 2.85 1.89 4.74 4.16 4.74s4.19-1.86 4.19-4.74z"/>
  <path d="M435.97 242.85h4.86v23.36h-4.86v-23.36z"/>
  <path d="M442.58 257.72v-.06c0-4.93 3.97-8.93 9.31-8.93 5.31 0 9.25 3.94 9.25 8.86v.06c0 4.93-3.97 8.93-9.31 8.93-5.32.01-9.25-3.93-9.25-8.86zm13.76 0v-.06c0-2.53-1.82-4.74-4.51-4.74-2.78 0-4.45 2.14-4.45 4.67v.06c0 2.53 1.82 4.74 4.51 4.74 2.78.01 4.45-2.14 4.45-4.67z"/>
  <path d="M463.66 249.05h4.86v3.46c.99-2.37 2.59-3.9 5.47-3.78v5.09h-.26c-3.23 0-5.22 1.95-5.22 6.05v6.34h-4.86v-17.16z"/>
  <path d="M474.72 257.72v-.06c0-4.9 3.49-8.93 8.48-8.93 5.73 0 8.35 4.45 8.35 9.31 0 .38-.03.83-.06 1.28h-11.93c.48 2.21 2.02 3.36 4.19 3.36 1.63 0 2.82-.51 4.16-1.76l2.78 2.46a8.59 8.59 0 01-7.01 3.2c-5.15.01-8.96-3.61-8.96-8.86zm12.1-1.43c-.29-2.18-1.57-3.65-3.62-3.65-2.02 0-3.33 1.44-3.71 3.65h7.33z"/>
</g>

<clipPath id="clp">
  <path id="clp" d="M146.5 1310.06c0 28.79 2.99 39.23 8.63 49.76a58.73 58.73 0 0024.42 24.42c10.53 5.63 20.97 8.63 49.76 8.63h411.4c28.79 0 39.23-3 49.76-8.63a58.73 58.73 0 0024.42-24.42c5.63-10.53 8.63-20.97 8.63-49.76V293.18h-577v1016.88z"/>
</clipPath>

<g clip-path="url(#clp)">
<g id="content">
<g id="row1" opacity="0">
  <image href="icon_01.jpg" x="166" y="320" width="80" height="80"/>
  <g fill="#6D7C91">
    <path d="M264.39 334.44h5.65c1.44 0 2.57.4 3.29 1.12.56.56.85 1.24.85 2.09v.04c0 1.51-.86 2.32-1.8 2.81 1.48.5 2.5 1.35 2.5 3.06v.04c0 2.25-1.85 3.46-4.66 3.46h-5.83v-12.62zm7.58 3.56c0-.99-.79-1.6-2.21-1.6h-3.19v3.35h3.02c1.42 0 2.38-.56 2.38-1.71V338zm-1.89 3.62h-3.51v3.46h3.67c1.51 0 2.43-.59 2.43-1.73v-.04c0-1.06-.84-1.69-2.59-1.69z"/>
    <path d="M276.5 344.3v-.04c0-2.05 1.6-3.06 3.93-3.06 1.06 0 1.82.16 2.56.4v-.23c0-1.35-.83-2.07-2.36-2.07-1.06 0-1.85.23-2.72.59l-.58-1.71a8.07 8.07 0 013.58-.77c1.42 0 2.48.38 3.15 1.06.7.68 1.03 1.69 1.03 2.93v5.64h-2.12v-1.19a3.89 3.89 0 01-3.1 1.39c-1.78 0-3.37-1.03-3.37-2.94zm6.52-.68v-.65a5.97 5.97 0 00-2.16-.38c-1.4 0-2.23.59-2.23 1.58v.04c0 .92.81 1.44 1.85 1.44 1.44 0 2.54-.82 2.54-2.03z"/>
    <path d="M286.93 345.8l.97-1.48a5.4 5.4 0 003.12 1.17c.94 0 1.48-.4 1.48-1.03v-.04c0-.74-1.01-.99-2.12-1.33-1.4-.4-2.97-.97-2.97-2.79v-.04c0-1.8 1.49-2.9 3.38-2.9 1.19 0 2.48.41 3.49 1.08l-.86 1.55a5.5 5.5 0 00-2.68-.9c-.85 0-1.33.4-1.33.94v.04c0 .7 1.03.99 2.14 1.35 1.39.43 2.95 1.06 2.95 2.77v.04c0 2-1.55 2.99-3.53 2.99a6.63 6.63 0 01-4.04-1.42z"/>
    <path d="M296.2 342.32v-.04c0-2.72 1.93-4.95 4.64-4.95 3.03 0 4.56 2.38 4.56 5.11 0 .2-.02.4-.04.61h-6.99c.23 1.55 1.33 2.41 2.74 2.41a3.5 3.5 0 002.58-1.13l1.28 1.13a4.8 4.8 0 01-3.89 1.78 4.72 4.72 0 01-4.88-4.92zm7.04-.7c-.14-1.4-.97-2.5-2.41-2.5-1.33 0-2.27 1.03-2.47 2.5h4.88z"/>
    <path d="M307.1 342.31v-.04c0-3.15 2.14-4.93 4.41-4.93 1.57 0 2.56.77 3.24 1.67v-5.11h2.18v13.14h-2.18v-1.58a3.8 3.8 0 01-3.24 1.78c-2.23 0-4.41-1.78-4.41-4.93zm7.69 0v-.04c0-1.84-1.3-3.04-2.75-3.04-1.49 0-2.74 1.15-2.74 3.04v.04c0 1.84 1.26 3.04 2.74 3.04 1.46 0 2.75-1.23 2.75-3.04z"/>
    <path d="M324.55 342.34v-.04c0-2.72 2.16-4.97 5.08-4.97s5.06 2.21 5.06 4.93v.04c0 2.7-2.16 4.95-5.1 4.95a4.9 4.9 0 01-5.04-4.91zm7.95 0v-.04c0-1.67-1.21-3.06-2.92-3.06-1.75 0-2.86 1.37-2.86 3.02v.04c0 1.66 1.21 3.04 2.9 3.04 1.77.01 2.88-1.36 2.88-3z"/>
    <path d="M336.89 337.53h2.18v1.46a3.46 3.46 0 012.97-1.66c2.14 0 3.39 1.44 3.39 3.64v6.07h-2.18v-5.4c0-1.48-.74-2.32-2.04-2.32-1.26 0-2.14.88-2.14 2.36v5.37h-2.18v-9.52z"/>
    <path d="M360.04 337.53h2.27l-3.78 9.78c-.76 1.94-1.6 2.66-3.13 2.66a4.5 4.5 0 01-2.25-.58l.74-1.62c.4.22.83.36 1.28.36.61 0 .99-.27 1.35-1.08l-3.96-9.52h2.34l2.68 7.06 2.46-7.06z"/>
    <path d="M363.12 342.34v-.04c0-2.72 2.16-4.97 5.08-4.97s5.06 2.21 5.06 4.93v.04c0 2.7-2.16 4.95-5.1 4.95a4.9 4.9 0 01-5.04-4.91zm7.96 0v-.04c0-1.67-1.21-3.06-2.92-3.06-1.75 0-2.86 1.37-2.86 3.02v.04c0 1.66 1.21 3.04 2.9 3.04 1.76.01 2.88-1.36 2.88-3z"/>
    <path d="M375.36 343.58v-6.05h2.18v5.4c0 1.48.74 2.3 2.03 2.3 1.26 0 2.14-.86 2.14-2.34v-5.37h2.2v9.51h-2.2v-1.48a3.4 3.4 0 01-2.97 1.67c-2.14.02-3.38-1.42-3.38-3.64z"/>
    <path d="M386.63 337.53h2.18v2.14c.59-1.42 1.69-2.39 3.37-2.32v2.3h-.13c-1.91 0-3.24 1.24-3.24 3.76v3.62h-2.18v-9.5z"/>
    <path d="M399.5 334h2.34v2.07h-2.34V334zm.09 3.53h2.18v9.51h-2.18v-9.51z"/>
    <path d="M404.61 337.53h2.18v1.46a3.46 3.46 0 012.97-1.66c2.14 0 3.39 1.44 3.39 3.64v6.07h-2.18v-5.4c0-1.48-.74-2.32-2.04-2.32-1.26 0-2.14.88-2.14 2.36v5.37h-2.18v-9.52z"/>
    <path d="M416.22 344.41v-5h-1.21v-1.87h1.21v-2.61h2.18v2.61h2.56v1.87h-2.56v4.66c0 .85.43 1.19 1.17 1.19.49 0 .92-.11 1.35-.32v1.78c-.54.31-1.13.49-1.96.49-1.61-.01-2.74-.71-2.74-2.8z"/>
    <path d="M422.38 342.32v-.04c0-2.72 1.93-4.95 4.64-4.95 3.03 0 4.56 2.38 4.56 5.11 0 .2-.02.4-.04.61h-6.99c.23 1.55 1.33 2.41 2.74 2.41a3.5 3.5 0 002.58-1.13l1.28 1.13a4.8 4.8 0 01-3.89 1.78 4.72 4.72 0 01-4.88-4.92zm7.04-.7c-.14-1.4-.97-2.5-2.41-2.5-1.33 0-2.27 1.03-2.47 2.5h4.88z"/>
    <path d="M433.77 337.53h2.18v2.14c.59-1.42 1.69-2.39 3.37-2.32v2.3h-.13c-1.91 0-3.24 1.24-3.24 3.76v3.62h-2.18v-9.5z"/>
    <path d="M440.36 342.32v-.04c0-2.72 1.93-4.95 4.64-4.95 3.03 0 4.56 2.38 4.56 5.11 0 .2-.02.4-.04.61h-6.99c.23 1.55 1.33 2.41 2.74 2.41a3.5 3.5 0 002.58-1.13l1.28 1.13a4.8 4.8 0 01-3.89 1.78 4.72 4.72 0 01-4.88-4.92zm7.04-.7c-.14-1.4-.97-2.5-2.41-2.5-1.33 0-2.27 1.03-2.47 2.5h4.88z"/>
    <path d="M450.98 345.8l.97-1.48a5.4 5.4 0 003.12 1.17c.94 0 1.48-.4 1.48-1.03v-.04c0-.74-1.01-.99-2.12-1.33-1.4-.4-2.97-.97-2.97-2.79v-.04c0-1.8 1.49-2.9 3.38-2.9 1.19 0 2.48.41 3.49 1.08l-.86 1.55a5.5 5.5 0 00-2.68-.9c-.85 0-1.33.4-1.33.94v.04c0 .7 1.03.99 2.14 1.35 1.39.43 2.95 1.06 2.95 2.77v.04c0 2-1.55 2.99-3.53 2.99a6.63 6.63 0 01-4.04-1.42z"/>
    <path d="M461.04 344.41v-5h-1.21v-1.87h1.21v-2.61h2.18v2.61h2.56v1.87h-2.56v4.66c0 .85.43 1.19 1.17 1.19.49 0 .92-.11 1.35-.32v1.78c-.54.31-1.13.49-1.96.49-1.61-.01-2.74-.71-2.74-2.8z"/>
    <path d="M473.42 334h2.34v2.07h-2.34V334zm.09 3.53h2.18v9.51h-2.18v-9.51z"/>
    <path d="M478.53 337.53h2.18v1.46a3.44 3.44 0 012.97-1.66c2.14 0 3.39 1.44 3.39 3.64v6.07h-2.18v-5.4c0-1.48-.74-2.32-2.04-2.32-1.26 0-2.14.88-2.14 2.36v5.37h-2.18v-9.52z"/>
  </g>
  <g fill="#007BFF">
    <path d="M269.9 362.88h3.12l6.6 15.51h-3.54l-1.41-3.45h-6.51l-1.41 3.45h-3.45l6.6-15.51zm3.56 9.06l-2.05-4.99-2.05 4.99h4.1z"/>
    <path d="M281.65 366.59h3.34v2.38c.68-1.63 1.78-2.68 3.76-2.6v3.5h-.18c-2.22 0-3.59 1.34-3.59 4.16v4.36h-3.34v-11.8z"/>
    <path d="M290.91 362.33h3.52v2.97h-3.52v-2.97zm.09 4.26h3.34v11.79H291v-11.79z"/>
    <path d="M296.78 375v-.04c0-2.57 1.96-3.76 4.75-3.76 1.19 0 2.05.2 2.88.48v-.2c0-1.39-.86-2.16-2.53-2.16-1.28 0-2.18.24-3.26.64l-.84-2.55c1.3-.57 2.57-.95 4.58-.95 1.83 0 3.15.48 3.98 1.32.88.88 1.28 2.18 1.28 3.76v6.84h-3.23v-1.28c-.81.9-1.94 1.5-3.56 1.5-2.22.01-4.05-1.27-4.05-3.6zm7.68-.77v-.59a5.24 5.24 0 00-2.13-.44c-1.43 0-2.31.57-2.31 1.63v.04c0 .9.75 1.43 1.83 1.43 1.56 0 2.61-.86 2.61-2.07z"/>
    <path d="M310.51 366.59h3.34v1.67c.77-.99 1.76-1.89 3.45-1.89 2.53 0 4 1.67 4 4.38v7.63h-3.34v-6.58c0-1.58-.75-2.4-2.02-2.4-1.28 0-2.09.81-2.09 2.4v6.58h-3.34v-11.79z"/>
    <path d="M323.51 375v-.04c0-2.57 1.96-3.76 4.75-3.76 1.19 0 2.05.2 2.88.48v-.2c0-1.39-.86-2.16-2.53-2.16-1.28 0-2.18.24-3.26.64l-.84-2.55c1.3-.57 2.57-.95 4.58-.95 1.83 0 3.15.48 3.98 1.32.88.88 1.28 2.18 1.28 3.76v6.84h-3.23v-1.28c-.81.9-1.94 1.5-3.56 1.5-2.22.01-4.05-1.27-4.05-3.6zm7.68-.77v-.59a5.24 5.24 0 00-2.13-.44c-1.43 0-2.31.57-2.31 1.63v.04c0 .9.75 1.43 1.83 1.43 1.55 0 2.61-.86 2.61-2.07z"/>
    <path d="M343.51 370.73v-.04a7.9 7.9 0 018.08-7.96c2.77 0 4.44.75 6.05 2.11l-2.13 2.57a5.67 5.67 0 00-4.03-1.56c-2.46 0-4.42 2.18-4.42 4.8v.04c0 2.82 1.94 4.88 4.66 4.88 1.23 0 2.33-.31 3.19-.92v-2.2h-3.41v-2.93h6.69v6.69a10 10 0 01-6.58 2.44c-4.8 0-8.1-3.36-8.1-7.92z"/>
    <path d="M361.09 366.59h3.34v2.38c.68-1.63 1.78-2.68 3.76-2.6v3.5h-.18c-2.22 0-3.59 1.34-3.59 4.16v4.36h-3.34v-11.8z"/>
    <path d="M369.03 375v-.04c0-2.57 1.96-3.76 4.75-3.76 1.19 0 2.05.2 2.88.48v-.2c0-1.39-.86-2.16-2.53-2.16-1.28 0-2.18.24-3.26.64l-.84-2.55c1.3-.57 2.57-.95 4.58-.95 1.83 0 3.15.48 3.98 1.32.88.88 1.28 2.18 1.28 3.76v6.84h-3.23v-1.28c-.81.9-1.94 1.5-3.56 1.5-2.22.01-4.05-1.27-4.05-3.6zm7.68-.77v-.59a5.24 5.24 0 00-2.13-.44c-1.43 0-2.31.57-2.31 1.63v.04c0 .9.75 1.43 1.83 1.43 1.55 0 2.61-.86 2.61-2.07z"/>
    <path d="M382.76 366.59h3.34v1.67c.77-.99 1.76-1.89 3.45-1.89 2.53 0 4 1.67 4 4.38v7.63h-3.34v-6.58c0-1.58-.75-2.4-2.02-2.4-1.28 0-2.09.81-2.09 2.4v6.58h-3.34v-11.79z"/>
    <path d="M395.93 372.51v-.04c0-3.94 2.58-6.09 5.37-6.09a4.5 4.5 0 013.67 1.76v-5.81h3.34v16.06h-3.34v-1.69a4.33 4.33 0 01-3.67 1.91c-2.75 0-5.37-2.16-5.37-6.1zm9.09 0v-.04c0-1.96-1.3-3.26-2.86-3.26-1.56 0-2.88 1.28-2.88 3.26v.04c0 1.96 1.32 3.26 2.88 3.26 1.56 0 2.86-1.3 2.86-3.26z"/>
    <path d="M410.74 372.56v-.04c0-3.37 2.4-6.14 5.83-6.14 3.94 0 5.74 3.06 5.74 6.4 0 .26-.02.57-.04.88h-8.21c.33 1.52 1.39 2.31 2.88 2.31 1.12 0 1.94-.35 2.86-1.21l1.91 1.69a5.9 5.9 0 01-4.82 2.2c-3.53 0-6.15-2.48-6.15-6.09zm8.32-.99c-.2-1.5-1.08-2.51-2.49-2.51-1.39 0-2.29.99-2.55 2.51h5.04z"/>
  </g>
</g>
<g id="row2" opacity="0">
  <image href="cover_01.jpg" x="148" y="403" width="512" height="512"/>
  <image href="cover_02.jpg" x="644" y="403" width="512" height="512"/>
  <path fill="#8394B0" d="M581.9 939.55h-14.54a3.23 3.23 0 01-3.23-3.23v-16.16c-.01-.86.34-1.68.95-2.28l10.63-10.65 1.71 1.7c.45.45.71 1.07.71 1.71l-.05.52-1.53 7.38h10.19a3.23 3.23 0 013.23 3.23V925c0 .4-.08.8-.23 1.18l-4.88 11.39a3.18 3.18 0 01-2.96 1.98zm-21.65 0h-6.46v-19.39h6.46v19.39z"/>
  <path d="M203.46 904.36h2.71v6.4h7.35v-6.4h2.71v15.4h-2.71v-6.49h-7.35v6.49h-2.71v-15.4z"/>
  <path d="M219.1 916.42v-.04c0-2.51 1.96-3.74 4.8-3.74 1.3 0 2.22.2 3.12.48v-.29c0-1.65-1.01-2.53-2.88-2.53-1.3 0-2.27.29-3.32.73l-.7-2.09a9.95 9.95 0 014.38-.95c1.74 0 3.04.46 3.85 1.3.86.84 1.25 2.07 1.25 3.59v6.89H227v-1.45a4.7 4.7 0 01-3.79 1.69c-2.17-.01-4.11-1.26-4.11-3.59zm7.97-.84v-.79a7.45 7.45 0 00-2.64-.46c-1.72 0-2.73.73-2.73 1.94v.04c0 1.12.99 1.76 2.27 1.76 1.75 0 3.1-1.02 3.1-2.49z"/>
  <path d="M232.94 903.7h2.66v16.06h-2.66V903.7z"/>
  <path d="M238.44 914.02v-.04c0-3.32 2.64-6.07 6.21-6.07s6.18 2.71 6.18 6.03v.04c0 3.3-2.64 6.05-6.23 6.05a6.02 6.02 0 01-6.16-6.01zm9.73 0v-.04c0-2.05-1.47-3.74-3.56-3.74-2.13 0-3.5 1.67-3.5 3.7v.04c0 2.02 1.47 3.72 3.54 3.72 2.15-.01 3.52-1.68 3.52-3.68z"/>
  <g fill="#6D7C91">
    <path d="M203.1 939.36h5.65c1.44 0 2.57.4 3.29 1.12.56.56.85 1.24.85 2.09v.04c0 1.51-.86 2.32-1.8 2.81 1.48.5 2.5 1.35 2.5 3.06v.04c0 2.25-1.85 3.46-4.66 3.46h-5.83v-12.62zm7.58 3.56c0-.99-.79-1.6-2.21-1.6h-3.19v3.35h3.02c1.42 0 2.38-.56 2.38-1.71v-.04zm-1.89 3.62h-3.51V950h3.67c1.51 0 2.43-.59 2.43-1.73v-.04c0-1.06-.84-1.69-2.59-1.69z"/>
    <path d="M215.32 947.25v-.04c0-2.72 1.93-4.95 4.65-4.95 3.02 0 4.56 2.38 4.56 5.11 0 .2-.02.4-.04.61h-6.99c.23 1.55 1.33 2.41 2.74 2.41 1.06 0 1.82-.4 2.57-1.13l1.28 1.13a4.8 4.8 0 01-3.89 1.78 4.73 4.73 0 01-4.88-4.92zm7.04-.71c-.14-1.4-.97-2.5-2.41-2.5-1.33 0-2.27 1.03-2.47 2.5h4.88z"/>
    <path d="M232.86 942.46h2.27l-3.78 9.78c-.76 1.94-1.6 2.66-3.13 2.66a4.5 4.5 0 01-2.25-.58l.74-1.62c.4.22.83.36 1.28.36.61 0 .99-.27 1.35-1.08l-3.96-9.52h2.34l2.68 7.06 2.46-7.06z"/>
    <path d="M235.93 947.26v-.04c0-2.72 2.16-4.97 5.08-4.97s5.06 2.21 5.06 4.93v.04c0 2.7-2.16 4.95-5.1 4.95a4.9 4.9 0 01-5.04-4.91zm7.96 0v-.04c0-1.67-1.21-3.06-2.92-3.06-1.75 0-2.86 1.37-2.86 3.02v.04c0 1.66 1.21 3.04 2.9 3.04 1.76.01 2.88-1.36 2.88-3z"/>
    <path d="M248.17 948.51v-6.05h2.18v5.4c0 1.48.74 2.3 2.03 2.3 1.26 0 2.14-.86 2.14-2.34v-5.37h2.2v9.51h-2.2v-1.48a3.4 3.4 0 01-2.97 1.67c-2.14.01-3.38-1.43-3.38-3.64z"/>
    <path d="M259.44 942.46h2.18v1.46a3.44 3.44 0 012.97-1.66c2.14 0 3.39 1.44 3.39 3.64v6.07h-2.18v-5.4c0-1.48-.74-2.32-2.04-2.32-1.26 0-2.14.88-2.14 2.36v5.37h-2.18v-9.52z"/>
    <path d="M270.08 947.26v-.04a4.9 4.9 0 014.95-4.97c1.78 0 2.9.67 3.8 1.64l-1.37 1.46c-.67-.7-1.37-1.19-2.45-1.19-1.58 0-2.75 1.37-2.75 3.02v.04c0 1.69 1.17 3.04 2.85 3.04 1.03 0 1.78-.47 2.47-1.17l1.31 1.3a4.83 4.83 0 01-3.89 1.78 4.85 4.85 0 01-4.92-4.91z"/>
    <path d="M280.09 947.25v-.04c0-2.72 1.93-4.95 4.64-4.95 3.03 0 4.56 2.38 4.56 5.11 0 .2-.02.4-.04.61h-6.99c.23 1.55 1.33 2.41 2.74 2.41a3.5 3.5 0 002.58-1.13l1.28 1.13a4.8 4.8 0 01-3.89 1.78 4.73 4.73 0 01-4.88-4.92zm7.04-.71c-.14-1.4-.97-2.5-2.41-2.5-1.33 0-2.27 1.03-2.47 2.5h4.88z"/>
  </g>
</g>
<g id="row3" opacity="0">
  <image href="icon_02.jpg" x="166" y="1020" width="80" height="80"/>
  <g fill="#6D7C91">
    <path d="M264.39 1035.3h5.65c1.44 0 2.57.4 3.29 1.12.56.56.85 1.24.85 2.09v.04c0 1.51-.86 2.32-1.8 2.81 1.48.5 2.5 1.35 2.5 3.06v.04c0 2.25-1.85 3.46-4.66 3.46h-5.83v-12.62zm7.58 3.57c0-.99-.79-1.6-2.21-1.6h-3.19v3.35h3.02c1.42 0 2.38-.56 2.38-1.71v-.04zm-1.89 3.62h-3.51v3.46h3.67c1.51 0 2.43-.59 2.43-1.73v-.04c0-1.06-.84-1.69-2.59-1.69z"/>
    <path d="M276.5 1045.17v-.04c0-2.05 1.6-3.06 3.93-3.06 1.06 0 1.82.16 2.56.4v-.23c0-1.35-.83-2.07-2.36-2.07-1.06 0-1.85.23-2.72.59l-.58-1.71a8.07 8.07 0 013.58-.77c1.42 0 2.48.38 3.15 1.06.7.68 1.03 1.69 1.03 2.93v5.64h-2.12v-1.19a3.89 3.89 0 01-3.1 1.39c-1.78 0-3.37-1.03-3.37-2.94zm6.52-.68v-.65a5.97 5.97 0 00-2.16-.38c-1.4 0-2.23.59-2.23 1.58v.04c0 .92.81 1.44 1.85 1.44 1.44 0 2.54-.83 2.54-2.03z"/>
    <path d="M286.93 1046.67l.97-1.48a5.4 5.4 0 003.12 1.17c.94 0 1.48-.4 1.48-1.03v-.04c0-.74-1.01-.99-2.12-1.33-1.4-.4-2.97-.97-2.97-2.79v-.04c0-1.8 1.49-2.9 3.38-2.9 1.19 0 2.48.41 3.49 1.08l-.86 1.55a5.5 5.5 0 00-2.68-.9c-.85 0-1.33.4-1.33.94v.04c0 .7 1.03.99 2.14 1.35 1.39.43 2.95 1.06 2.95 2.77v.04c0 2-1.55 2.99-3.53 2.99a6.7 6.7 0 01-4.04-1.42z"/>
    <path d="M296.2 1043.19v-.04c0-2.72 1.93-4.95 4.64-4.95 3.03 0 4.56 2.38 4.56 5.11 0 .2-.02.4-.04.61h-6.99c.23 1.55 1.33 2.41 2.74 2.41a3.5 3.5 0 002.58-1.13l1.28 1.13a4.8 4.8 0 01-3.89 1.78 4.73 4.73 0 01-4.88-4.92zm7.04-.7c-.14-1.4-.97-2.5-2.41-2.5-1.33 0-2.27 1.03-2.47 2.5h4.88z"/>
    <path d="M307.1 1043.17v-.04c0-3.15 2.14-4.93 4.41-4.93 1.57 0 2.56.77 3.24 1.67v-5.11h2.18v13.14h-2.18v-1.58a3.8 3.8 0 01-3.24 1.78c-2.23.01-4.41-1.78-4.41-4.93zm7.69 0v-.04c0-1.84-1.3-3.04-2.75-3.04-1.49 0-2.74 1.15-2.74 3.04v.04c0 1.84 1.26 3.04 2.74 3.04 1.46 0 2.75-1.22 2.75-3.04z"/>
    <path d="M324.55 1043.21v-.04c0-2.72 2.16-4.97 5.08-4.97s5.06 2.21 5.06 4.93v.04c0 2.7-2.16 4.95-5.1 4.95a4.91 4.91 0 01-5.04-4.91zm7.95 0v-.04c0-1.67-1.21-3.06-2.92-3.06-1.75 0-2.86 1.37-2.86 3.02v.04c0 1.66 1.21 3.04 2.9 3.04 1.77 0 2.88-1.36 2.88-3z"/>
    <path d="M336.89 1038.4h2.18v1.46a3.46 3.46 0 012.97-1.66c2.14 0 3.39 1.44 3.39 3.64v6.07h-2.18v-5.4c0-1.48-.74-2.32-2.04-2.32-1.26 0-2.14.88-2.14 2.36v5.37h-2.18v-9.52z"/>
    <path d="M360.04 1038.4h2.27l-3.78 9.78c-.76 1.94-1.6 2.66-3.13 2.66a4.5 4.5 0 01-2.25-.58l.74-1.62c.4.22.83.36 1.28.36.61 0 .99-.27 1.35-1.08l-3.96-9.52h2.34l2.68 7.06 2.46-7.06z"/>
    <path d="M363.12 1043.21v-.04c0-2.72 2.16-4.97 5.08-4.97s5.06 2.21 5.06 4.93v.04c0 2.7-2.16 4.95-5.1 4.95a4.91 4.91 0 01-5.04-4.91zm7.96 0v-.04c0-1.67-1.21-3.06-2.92-3.06-1.75 0-2.86 1.37-2.86 3.02v.04c0 1.66 1.21 3.04 2.9 3.04 1.76 0 2.88-1.36 2.88-3z"/>
    <path d="M375.36 1044.45v-6.05h2.18v5.4c0 1.48.74 2.3 2.03 2.3 1.26 0 2.14-.86 2.14-2.34v-5.37h2.2v9.51h-2.2v-1.48a3.4 3.4 0 01-2.97 1.67c-2.14.02-3.38-1.42-3.38-3.64z"/>
    <path d="M386.63 1038.4h2.18v2.14c.59-1.42 1.69-2.39 3.37-2.32v2.3h-.13c-1.91 0-3.24 1.24-3.24 3.76v3.62h-2.18v-9.5z"/>
    <path d="M399.5 1034.87h2.34v2.07h-2.34v-2.07zm.09 3.53h2.18v9.51h-2.18v-9.51z"/>
    <path d="M404.61 1038.4h2.18v1.46a3.46 3.46 0 012.97-1.66c2.14 0 3.39 1.44 3.39 3.64v6.07h-2.18v-5.4c0-1.48-.74-2.32-2.04-2.32-1.26 0-2.14.88-2.14 2.36v5.37h-2.18v-9.52z"/>
    <path d="M416.22 1045.28v-5h-1.21v-1.87h1.21v-2.61h2.18v2.61h2.56v1.87h-2.56v4.66c0 .85.43 1.19 1.17 1.19.49 0 .92-.11 1.35-.32v1.78c-.54.31-1.13.49-1.96.49-1.61-.01-2.74-.71-2.74-2.8z"/>
    <path d="M422.38 1043.19v-.04c0-2.72 1.93-4.95 4.64-4.95 3.03 0 4.56 2.38 4.56 5.11 0 .2-.02.4-.04.61h-6.99c.23 1.55 1.33 2.41 2.74 2.41a3.5 3.5 0 002.58-1.13l1.28 1.13a4.8 4.8 0 01-3.89 1.78 4.73 4.73 0 01-4.88-4.92zm7.04-.7c-.14-1.4-.97-2.5-2.41-2.5-1.33 0-2.27 1.03-2.47 2.5h4.88z"/>
    <path d="M433.77 1038.4h2.18v2.14c.59-1.42 1.69-2.39 3.37-2.32v2.3h-.13c-1.91 0-3.24 1.24-3.24 3.76v3.62h-2.18v-9.5z"/>
    <path d="M440.36 1043.19v-.04c0-2.72 1.93-4.95 4.64-4.95 3.03 0 4.56 2.38 4.56 5.11 0 .2-.02.4-.04.61h-6.99c.23 1.55 1.33 2.41 2.74 2.41a3.5 3.5 0 002.58-1.13l1.28 1.13a4.8 4.8 0 01-3.89 1.78 4.73 4.73 0 01-4.88-4.92zm7.04-.7c-.14-1.4-.97-2.5-2.41-2.5-1.33 0-2.27 1.03-2.47 2.5h4.88z"/>
    <path d="M450.98 1046.67l.97-1.48a5.4 5.4 0 003.12 1.17c.94 0 1.48-.4 1.48-1.03v-.04c0-.74-1.01-.99-2.12-1.33-1.4-.4-2.97-.97-2.97-2.79v-.04c0-1.8 1.49-2.9 3.38-2.9 1.19 0 2.48.41 3.49 1.08l-.86 1.55a5.5 5.5 0 00-2.68-.9c-.85 0-1.33.4-1.33.94v.04c0 .7 1.03.99 2.14 1.35 1.39.43 2.95 1.06 2.95 2.77v.04c0 2-1.55 2.99-3.53 2.99a6.7 6.7 0 01-4.04-1.42z"/>
    <path d="M461.04 1045.28v-5h-1.21v-1.87h1.21v-2.61h2.18v2.61h2.56v1.87h-2.56v4.66c0 .85.43 1.19 1.17 1.19.49 0 .92-.11 1.35-.32v1.78c-.54.31-1.13.49-1.96.49-1.61-.01-2.74-.71-2.74-2.8z"/>
    <path d="M473.42 1034.87h2.34v2.07h-2.34v-2.07zm.09 3.53h2.18v9.51h-2.18v-9.51z"/>
    <path d="M478.53 1038.4h2.18v1.46a3.44 3.44 0 012.97-1.66c2.14 0 3.39 1.44 3.39 3.64v6.07h-2.18v-5.4c0-1.48-.74-2.32-2.04-2.32-1.26 0-2.14.88-2.14 2.36v5.37h-2.18v-9.52z"/>
  </g>
  <g fill="#007BFF">
    <path d="M263.94 1070.73v-.04a7.9 7.9 0 018.08-7.96c2.77 0 4.44.75 6.05 2.11l-2.13 2.57a5.67 5.67 0 00-4.03-1.56c-2.46 0-4.42 2.18-4.42 4.8v.04c0 2.82 1.94 4.88 4.67 4.88 1.23 0 2.33-.31 3.19-.92v-2.2h-3.41v-2.93h6.69v6.69a10 10 0 01-6.58 2.44c-4.81 0-8.11-3.36-8.11-7.92z"/>
    <path d="M280.94 1072.56v-.04c0-3.37 2.4-6.14 5.83-6.14 3.94 0 5.74 3.06 5.74 6.4 0 .26-.02.57-.04.88h-8.21c.33 1.52 1.39 2.31 2.88 2.31 1.12 0 1.94-.35 2.86-1.21l1.91 1.69a5.9 5.9 0 01-4.82 2.2c-3.53 0-6.15-2.48-6.15-6.09zm8.32-.99c-.2-1.5-1.08-2.51-2.49-2.51-1.39 0-2.29.99-2.55 2.51h5.04z"/>
    <path d="M294.43 1072.56v-.04c0-3.39 2.73-6.14 6.4-6.14 3.65 0 6.36 2.71 6.36 6.09v.04c0 3.39-2.73 6.14-6.4 6.14-3.66 0-6.36-2.7-6.36-6.09zm9.46 0v-.04c0-1.74-1.25-3.26-3.1-3.26-1.91 0-3.06 1.47-3.06 3.21v.04c0 1.74 1.25 3.26 3.1 3.26 1.92 0 3.06-1.48 3.06-3.21z"/>
    <path d="M309.61 1066.59h3.34v2.38c.68-1.63 1.78-2.68 3.76-2.6v3.5h-.18c-2.22 0-3.59 1.34-3.59 4.16v4.36h-3.34v-11.8z"/>
    <path d="M318.65 1080.72l1.14-2.51a7.71 7.71 0 003.98 1.08c2.29 0 3.37-1.1 3.37-3.21v-.57a4.61 4.61 0 01-3.85 1.92c-2.75 0-5.24-2-5.24-5.5v-.04c0-3.52 2.53-5.5 5.24-5.5 1.83 0 2.9.77 3.81 1.76v-1.54h3.34v9.13c0 2.11-.51 3.65-1.5 4.64-1.1 1.1-2.79 1.58-5.08 1.58a11.35 11.35 0 01-5.21-1.24zm8.49-8.8v-.04c0-1.61-1.25-2.73-2.88-2.73s-2.86 1.12-2.86 2.73v.04c0 1.63 1.23 2.73 2.86 2.73s2.88-1.12 2.88-2.73z"/>
    <path d="M332.86 1072.56v-.04c0-3.37 2.4-6.14 5.83-6.14 3.94 0 5.74 3.06 5.74 6.4 0 .26-.02.57-.04.88h-8.21c.33 1.52 1.39 2.31 2.88 2.31 1.12 0 1.94-.35 2.86-1.21l1.91 1.69a5.9 5.9 0 01-4.82 2.2c-3.53 0-6.15-2.48-6.15-6.09zm8.32-.99c-.2-1.5-1.08-2.51-2.49-2.51-1.39 0-2.29.99-2.55 2.51h5.04z"/>
    <path d="M353.87 1062.99h3.65l4.05 6.51 4.05-6.51h3.65v15.4h-3.37v-10.06l-4.33 6.58h-.09l-4.29-6.51v9.99h-3.32v-15.4z"/>
    <path d="M372.68 1062.33h3.52v2.97h-3.52v-2.97zm.09 4.26h3.34v11.79h-3.34v-11.79z"/>
    <path d="M378.69 1072.56v-.04a6.05 6.05 0 016.18-6.14c2.22 0 3.61.75 4.71 1.98l-2.05 2.2c-.75-.79-1.5-1.3-2.68-1.3-1.67 0-2.86 1.47-2.86 3.21v.04c0 1.8 1.17 3.26 2.99 3.26 1.12 0 1.89-.48 2.71-1.25l1.96 1.98a5.94 5.94 0 01-4.82 2.16 6.03 6.03 0 01-6.14-6.1z"/>
    <path d="M391.82 1062.33h3.34v5.94c.77-.99 1.76-1.89 3.45-1.89 2.53 0 4 1.67 4 4.38v7.63h-3.34v-6.58c0-1.58-.75-2.4-2.02-2.4-1.28 0-2.09.81-2.09 2.4v6.58h-3.34v-16.06z"/>
    <path d="M404.82 1075v-.04c0-2.57 1.96-3.76 4.75-3.76 1.19 0 2.05.2 2.88.48v-.2c0-1.39-.86-2.16-2.53-2.16-1.28 0-2.18.24-3.26.64l-.84-2.55c1.3-.57 2.57-.95 4.58-.95 1.83 0 3.15.48 3.98 1.32.88.88 1.28 2.18 1.28 3.76v6.84h-3.23v-1.28c-.81.9-1.94 1.5-3.56 1.5-2.22.01-4.05-1.27-4.05-3.6zm7.68-.77v-.59a5.24 5.24 0 00-2.13-.44c-1.43 0-2.31.57-2.31 1.63v.04c0 .9.75 1.43 1.83 1.43 1.56 0 2.61-.86 2.61-2.07z"/>
    <path d="M417.98 1072.56v-.04c0-3.37 2.4-6.14 5.83-6.14 3.94 0 5.74 3.06 5.74 6.4 0 .26-.02.57-.04.88h-8.21c.33 1.52 1.39 2.31 2.88 2.31 1.12 0 1.94-.35 2.86-1.21l1.91 1.69a5.9 5.9 0 01-4.82 2.2c-3.53 0-6.15-2.48-6.15-6.09zm8.32-.99c-.2-1.5-1.08-2.51-2.49-2.51-1.39 0-2.29.99-2.55 2.51h5.04z"/>
    <path d="M432.19 1062.33h3.34v16.06h-3.34v-16.06z"/>
  </g>
</g>
<g id="row4" fill="#6D7C91" opacity="0">
  <image href="icon_mdl_01.jpg" x="160" y="1132" width="240" height="240"/>
  <image href="icon_mdl_02.jpg" x="423" y="1132" width="240" height="240"/>
  <image href="icon_mdl_03.jpg" x="684" y="1132" width="240" height="240"/>
  <path d="M252.65 1379.88h6.28c1.6 0 2.86.44 3.66 1.24.62.62.94 1.38.94 2.32v.04c0 1.68-.96 2.58-2 3.12 1.64.56 2.78 1.5 2.78 3.4v.04c0 2.5-2.06 3.84-5.18 3.84h-6.48v-14zm8.42 3.96c0-1.1-.88-1.78-2.46-1.78h-3.54v3.72h3.36c1.58 0 2.64-.62 2.64-1.9v-.04zm-2.1 4.02h-3.9v3.84h4.08c1.68 0 2.7-.66 2.7-1.92v-.04c0-1.18-.94-1.88-2.88-1.88z"/>
  <path d="M266.81 1383.32h2.42v2.38c.66-1.58 1.88-2.66 3.74-2.58v2.56h-.14c-2.12 0-3.6 1.38-3.6 4.18v4.02h-2.42v-10.56z"/>
  <path d="M274.95 1390.04v-6.72h2.42v6c0 1.64.82 2.56 2.26 2.56 1.4 0 2.38-.96 2.38-2.6v-5.96h2.44v10.56h-2.44v-1.64a3.8 3.8 0 01-3.3 1.86c-2.38 0-3.76-1.6-3.76-4.06z"/>
  <path d="M286.89 1388.66v-.04c0-3 2.32-5.52 5.5-5.52 1.98 0 3.22.74 4.22 1.82l-1.52 1.62c-.74-.78-1.52-1.32-2.72-1.32-1.76 0-3.06 1.52-3.06 3.36v.04c0 1.88 1.3 3.38 3.16 3.38a3.7 3.7 0 002.74-1.3l1.46 1.44a5.34 5.34 0 01-4.32 1.98 5.4 5.4 0 01-5.46-5.46z"/>
  <path d="M298.01 1388.64v-.04c0-3.02 2.14-5.5 5.16-5.5 3.36 0 5.06 2.64 5.06 5.68 0 .22-.02.44-.04.68h-7.76c.26 1.72 1.48 2.68 3.04 2.68 1.18 0 2.02-.44 2.86-1.26l1.42 1.26a5.34 5.34 0 01-4.32 1.98 5.27 5.27 0 01-5.42-5.48zm7.82-.78c-.16-1.56-1.08-2.78-2.68-2.78-1.48 0-2.52 1.14-2.74 2.78h5.42z"/>
  <path d="M220.7 1411.84l1.48-1.76a6.48 6.48 0 004.42 1.82c1.52 0 2.48-.72 2.48-1.76v-.04c0-1-.56-1.54-3.16-2.14-2.98-.72-4.66-1.6-4.66-4.18v-.04c0-2.4 2-4.06 4.78-4.06 2.04 0 3.66.62 5.08 1.76l-1.32 1.86a6.36 6.36 0 00-3.8-1.44c-1.44 0-2.28.74-2.28 1.66v.04c0 1.08.64 1.56 3.34 2.2 2.96.72 4.48 1.78 4.48 4.1v.04c0 2.62-2.06 4.18-5 4.18a8.62 8.62 0 01-5.84-2.24z"/>
  <path d="M234.16 1403.32h2.42v1.76a4.23 4.23 0 013.6-1.98c2.48 0 4.9 1.96 4.9 5.48v.04c0 3.5-2.4 5.48-4.9 5.48a4.31 4.31 0 01-3.6-1.86v4.84h-2.42v-13.76zm8.46 5.3v-.04c0-2.04-1.38-3.38-3.02-3.38-1.64 0-3.08 1.36-3.08 3.38v.04c0 2.02 1.44 3.38 3.08 3.38 1.66 0 3.02-1.3 3.02-3.38z"/>
  <path d="M247.58 1403.32H250v2.38c.66-1.58 1.88-2.66 3.74-2.58v2.56h-.14c-2.12 0-3.6 1.38-3.6 4.18v4.02h-2.42v-10.56z"/>
  <path d="M255.88 1399.4h2.6v2.3h-2.6v-2.3zm.1 3.92h2.42v10.56h-2.42v-10.56z"/>
  <path d="M261.56 1403.32h2.42v1.62a3.83 3.83 0 013.3-1.84c2.38 0 3.76 1.6 3.76 4.04v6.74h-2.42v-6c0-1.64-.82-2.58-2.26-2.58-1.4 0-2.38.98-2.38 2.62v5.96h-2.42v-10.56z"/>
  <path d="M273.94 1415.86l.9-1.82a6.92 6.92 0 003.76 1.12c2.16 0 3.34-1.12 3.34-3.24v-.82a4.42 4.42 0 01-3.72 1.94 4.75 4.75 0 01-4.8-4.94v-.04a4.76 4.76 0 014.8-4.96c1.78 0 2.88.82 3.7 1.8v-1.58h2.42v8.4c0 1.78-.46 3.1-1.34 3.98-.96.96-2.44 1.42-4.34 1.42a9.1 9.1 0 01-4.72-1.26zm8.02-7.78v-.04c0-1.72-1.42-2.9-3.1-2.9s-3 1.16-3 2.9v.04c0 1.72 1.34 2.9 3 2.9 1.68 0 3.1-1.18 3.1-2.9z"/>
  <path d="M286.52 1412.5l1.08-1.64a5.97 5.97 0 003.46 1.3c1.04 0 1.64-.44 1.64-1.14v-.04c0-.82-1.12-1.1-2.36-1.48-1.56-.44-3.3-1.08-3.3-3.1v-.04c0-2 1.66-3.22 3.76-3.22 1.32 0 2.76.46 3.88 1.2l-.96 1.72c-1.02-.62-2.1-1-2.98-1-.94 0-1.48.44-1.48 1.04v.04c0 .78 1.14 1.1 2.38 1.5 1.54.48 3.28 1.18 3.28 3.08v.04c0 2.22-1.72 3.32-3.92 3.32-1.5 0-3.16-.54-4.48-1.58z"/>
  <path d="M297.7 1410.96v-5.56h-1.34v-2.08h1.34v-2.9h2.42v2.9h2.84v2.08h-2.84v5.18c0 .94.48 1.32 1.3 1.32.54 0 1.02-.12 1.5-.36v1.98c-.6.34-1.26.54-2.18.54-1.78 0-3.04-.78-3.04-3.1z"/>
  <path d="M304.54 1408.64v-.04c0-3.02 2.14-5.5 5.16-5.5 3.36 0 5.06 2.64 5.06 5.68 0 .22-.02.44-.04.68h-7.76c.26 1.72 1.48 2.68 3.04 2.68 1.18 0 2.02-.44 2.86-1.26l1.42 1.26a5.34 5.34 0 01-4.32 1.98 5.27 5.27 0 01-5.42-5.48zm7.82-.78c-.16-1.56-1.08-2.78-2.68-2.78-1.48 0-2.52 1.14-2.74 2.78h5.42z"/>
  <path d="M316.62 1408.64v-.04c0-3.02 2.14-5.5 5.16-5.5 3.36 0 5.06 2.64 5.06 5.68 0 .22-.02.44-.04.68h-7.76c.26 1.72 1.48 2.68 3.04 2.68 1.18 0 2.02-.44 2.86-1.26l1.42 1.26a5.34 5.34 0 01-4.32 1.98 5.27 5.27 0 01-5.42-5.48zm7.82-.78c-.16-1.56-1.08-2.78-2.68-2.78-1.48 0-2.52 1.14-2.74 2.78h5.42z"/>
  <path d="M329.28 1403.32h2.42v1.62a3.83 3.83 0 013.3-1.84c2.38 0 3.76 1.6 3.76 4.04v6.74h-2.42v-6c0-1.64-.82-2.58-2.26-2.58-1.4 0-2.38.98-2.38 2.62v5.96h-2.42v-10.56z"/>
  <g>
    <path d="M487.76 1390.29h5.52c3.28 0 5.32 1.86 5.32 4.68v.04c0 3.14-2.52 4.78-5.6 4.78h-2.78v4.5h-2.46v-14zm5.32 7.28c1.86 0 3.02-1.04 3.02-2.5v-.04c0-1.64-1.18-2.5-3.02-2.5h-2.86v5.04h2.86z"/>
    <path d="M499.94 1401.25v-.04c0-2.28 1.78-3.4 4.36-3.4 1.18 0 2.02.18 2.84.44v-.26c0-1.5-.92-2.3-2.62-2.3-1.18 0-2.06.26-3.02.66l-.64-1.9a9.01 9.01 0 013.98-.86c1.58 0 2.76.42 3.5 1.18.78.76 1.14 1.88 1.14 3.26v6.26h-2.36v-1.32a4.3 4.3 0 01-3.44 1.54c-1.98 0-3.74-1.13-3.74-3.26zm7.24-.76v-.72a6.7 6.7 0 00-2.4-.42c-1.56 0-2.48.66-2.48 1.76v.04c0 1.02.9 1.6 2.06 1.6 1.6 0 2.82-.92 2.82-2.26z"/>
    <path d="M512.26 1400.45v-6.72h2.42v6c0 1.64.82 2.56 2.26 2.56 1.4 0 2.38-.96 2.38-2.6v-5.96h2.44v10.56h-2.44v-1.64a3.8 3.8 0 01-3.3 1.86c-2.38 0-3.76-1.59-3.76-4.06z"/>
    <path d="M524.92 1389.69h2.42v14.6h-2.42v-14.6z"/>
    <path d="M535.84 1402.25l1.48-1.76a6.48 6.48 0 004.42 1.82c1.52 0 2.48-.72 2.48-1.76v-.04c0-1-.56-1.54-3.16-2.14-2.98-.72-4.66-1.6-4.66-4.18v-.04c0-2.4 2-4.06 4.78-4.06 2.04 0 3.66.62 5.08 1.76l-1.32 1.86a6.36 6.36 0 00-3.8-1.44c-1.44 0-2.28.74-2.28 1.66v.04c0 1.08.64 1.56 3.34 2.2 2.96.72 4.48 1.78 4.48 4.1v.04c0 2.62-2.06 4.18-5 4.18a8.58 8.58 0 01-5.84-2.24z"/>
    <path d="M549.34 1389.81h2.6v2.3h-2.6v-2.3zm.1 3.92h2.42v10.56h-2.42v-10.56z"/>
    <path d="M555.02 1393.73h2.42v1.6c.68-.94 1.6-1.82 3.22-1.82 1.52 0 2.6.74 3.16 1.86a4.25 4.25 0 013.56-1.86c2.3 0 3.7 1.46 3.7 4.04v6.74h-2.42v-6c0-1.68-.78-2.58-2.14-2.58-1.32 0-2.26.92-2.26 2.62v5.96h-2.42v-6.02c0-1.64-.8-2.56-2.14-2.56s-2.26 1-2.26 2.62v5.96h-2.42v-10.56z"/>
    <path d="M573.44 1399.07v-.04c0-3.02 2.4-5.52 5.64-5.52a5.47 5.47 0 015.62 5.48v.04c0 3-2.4 5.5-5.66 5.5a5.46 5.46 0 01-5.6-5.46zm8.84 0v-.04c0-1.86-1.34-3.4-3.24-3.4-1.94 0-3.18 1.52-3.18 3.36v.04c0 1.84 1.34 3.38 3.22 3.38 1.96 0 3.2-1.52 3.2-3.34z"/>
    <path d="M587.16 1393.73h2.42v1.62a3.83 3.83 0 013.3-1.84c2.38 0 3.76 1.6 3.76 4.04v6.74h-2.42v-6c0-1.64-.82-2.58-2.26-2.58-1.4 0-2.38.98-2.38 2.62v5.96h-2.42v-10.56z"/>
  </g>
  <g>
    <path d="M745.59 1397.33v-.04a7.08 7.08 0 017.22-7.24c2.58 0 4.14.9 5.48 2.18l-1.58 1.82a5.57 5.57 0 00-3.92-1.74c-2.66 0-4.62 2.2-4.62 4.94v.04c0 2.74 1.94 4.96 4.62 4.96 1.72 0 2.82-.68 4.02-1.8l1.58 1.6a7.22 7.22 0 01-5.68 2.48 7.04 7.04 0 01-7.12-7.2z"/>
    <path d="M759.99 1401.25v-.04c0-2.28 1.78-3.4 4.36-3.4 1.18 0 2.02.18 2.84.44v-.26c0-1.5-.92-2.3-2.62-2.3-1.18 0-2.06.26-3.02.66l-.64-1.9a9.01 9.01 0 013.98-.86c1.58 0 2.76.42 3.5 1.18.78.76 1.14 1.88 1.14 3.26v6.26h-2.36v-1.32a4.3 4.3 0 01-3.44 1.54c-1.98 0-3.74-1.13-3.74-3.26zm7.24-.76v-.72a6.7 6.7 0 00-2.4-.42c-1.56 0-2.48.66-2.48 1.76v.04c0 1.02.9 1.6 2.06 1.6 1.6 0 2.82-.92 2.82-2.26z"/>
    <path d="M772.83 1401.37v-5.56h-1.34v-2.08h1.34v-2.9h2.42v2.9h2.84v2.08h-2.84v5.18c0 .94.48 1.32 1.3 1.32.54 0 1.02-.12 1.5-.36v1.98c-.6.34-1.26.54-2.18.54-1.78 0-3.04-.78-3.04-3.1z"/>
    <path d="M785.89 1402.25l1.48-1.76a6.48 6.48 0 004.42 1.82c1.52 0 2.48-.72 2.48-1.76v-.04c0-1-.56-1.54-3.16-2.14-2.98-.72-4.66-1.6-4.66-4.18v-.04c0-2.4 2-4.06 4.78-4.06 2.04 0 3.66.62 5.08 1.76l-1.32 1.86a6.36 6.36 0 00-3.8-1.44c-1.44 0-2.28.74-2.28 1.66v.04c0 1.08.64 1.56 3.34 2.2 2.96.72 4.48 1.78 4.48 4.1v.04c0 2.62-2.06 4.18-5 4.18a8.58 8.58 0 01-5.84-2.24z"/>
    <path d="M799.75 1401.37v-5.56h-1.34v-2.08h1.34v-2.9h2.42v2.9h2.84v2.08h-2.84v5.18c0 .94.48 1.32 1.3 1.32.54 0 1.02-.12 1.5-.36v1.98c-.6.34-1.26.54-2.18.54-1.78 0-3.04-.78-3.04-3.1z"/>
    <path d="M806.59 1399.05v-.04c0-3.02 2.14-5.5 5.16-5.5 3.36 0 5.06 2.64 5.06 5.68 0 .22-.02.44-.04.68h-7.76c.26 1.72 1.48 2.68 3.04 2.68 1.18 0 2.02-.44 2.86-1.26l1.42 1.26a5.34 5.34 0 01-4.32 1.98 5.26 5.26 0 01-5.42-5.48zm7.82-.78c-.16-1.56-1.08-2.78-2.68-2.78-1.48 0-2.52 1.14-2.74 2.78h5.42z"/>
    <path d="M817.75 1393.73h2.6l2.84 7.76 2.86-7.76h2.54l-4.32 10.64h-2.18l-4.34-10.64z"/>
    <path d="M829.47 1399.05v-.04c0-3.02 2.14-5.5 5.16-5.5 3.36 0 5.06 2.64 5.06 5.68 0 .22-.02.44-.04.68h-7.76c.26 1.72 1.48 2.68 3.04 2.68 1.18 0 2.02-.44 2.86-1.26l1.42 1.26a5.34 5.34 0 01-4.32 1.98 5.26 5.26 0 01-5.42-5.48zm7.82-.78c-.16-1.56-1.08-2.78-2.68-2.78-1.48 0-2.52 1.14-2.74 2.78h5.42z"/>
    <path d="M842.13 1393.73h2.42v1.62a3.83 3.83 0 013.3-1.84c2.38 0 3.76 1.6 3.76 4.04v6.74h-2.42v-6c0-1.64-.82-2.58-2.26-2.58-1.4 0-2.38.98-2.38 2.62v5.96h-2.42v-10.56z"/>
    <path d="M853.67 1402.92l1.08-1.64a5.97 5.97 0 003.46 1.3c1.04 0 1.64-.44 1.64-1.14v-.04c0-.82-1.12-1.1-2.36-1.48-1.56-.44-3.3-1.08-3.3-3.1v-.04c0-2 1.66-3.22 3.76-3.22 1.32 0 2.76.46 3.88 1.2l-.96 1.72c-1.02-.62-2.1-1-2.98-1-.94 0-1.48.44-1.48 1.04v.04c0 .78 1.14 1.1 2.38 1.5 1.54.48 3.28 1.18 3.28 3.08v.04c0 2.22-1.72 3.32-3.92 3.32-1.5 0-3.16-.54-4.48-1.58z"/>
  </g>
</g>
<g id="row5">
  <image href="icon_03.jpg" x="166" y="1483" width="80" height="80"/>
  <g fill="#6D7C91">
    <path d="M264.39 1496.86h5.65c1.44 0 2.57.4 3.29 1.12.56.56.85 1.24.85 2.09v.04c0 1.51-.86 2.32-1.8 2.81 1.48.5 2.5 1.35 2.5 3.06v.04c0 2.25-1.85 3.46-4.66 3.46h-5.83v-12.62zm7.58 3.56c0-.99-.79-1.6-2.21-1.6h-3.19v3.35h3.02c1.42 0 2.38-.56 2.38-1.71v-.04zm-1.89 3.62h-3.51v3.46h3.67c1.51 0 2.43-.59 2.43-1.73v-.04c0-1.06-.84-1.69-2.59-1.69z"/>
    <path d="M276.5 1506.72v-.04c0-2.05 1.6-3.06 3.93-3.06 1.06 0 1.82.16 2.56.4v-.23c0-1.35-.83-2.07-2.36-2.07-1.06 0-1.85.23-2.72.59l-.58-1.71a8.07 8.07 0 013.58-.77c1.42 0 2.48.38 3.15 1.06.7.68 1.03 1.69 1.03 2.93v5.64h-2.12v-1.19a3.89 3.89 0 01-3.1 1.39c-1.78 0-3.37-1.03-3.37-2.94zm6.52-.68v-.65a5.97 5.97 0 00-2.16-.38c-1.4 0-2.23.59-2.23 1.58v.04c0 .92.81 1.44 1.85 1.44 1.44 0 2.54-.83 2.54-2.03z"/>
    <path d="M286.93 1508.22l.97-1.48a5.4 5.4 0 003.12 1.17c.94 0 1.48-.4 1.48-1.03v-.04c0-.74-1.01-.99-2.12-1.33-1.4-.4-2.97-.97-2.97-2.79v-.04c0-1.8 1.49-2.9 3.38-2.9 1.19 0 2.48.41 3.49 1.08l-.86 1.55a5.5 5.5 0 00-2.68-.9c-.85 0-1.33.4-1.33.94v.04c0 .7 1.03.99 2.14 1.35 1.39.43 2.95 1.06 2.95 2.77v.04c0 2-1.55 2.99-3.53 2.99a6.7 6.7 0 01-4.04-1.42z"/>
    <path d="M296.2 1504.74v-.04c0-2.72 1.93-4.95 4.64-4.95 3.03 0 4.56 2.38 4.56 5.11 0 .2-.02.4-.04.61h-6.99c.23 1.55 1.33 2.41 2.74 2.41a3.5 3.5 0 002.58-1.13l1.28 1.13a4.8 4.8 0 01-3.89 1.78 4.72 4.72 0 01-4.88-4.92zm7.04-.7c-.14-1.4-.97-2.5-2.41-2.5-1.33 0-2.27 1.03-2.47 2.5h4.88z"/>
    <path d="M307.1 1504.72v-.04c0-3.15 2.14-4.93 4.41-4.93 1.57 0 2.56.77 3.24 1.67v-5.11h2.18v13.14h-2.18v-1.58a3.8 3.8 0 01-3.24 1.78c-2.23.01-4.41-1.78-4.41-4.93zm7.69 0v-.04c0-1.84-1.3-3.04-2.75-3.04-1.49 0-2.74 1.15-2.74 3.04v.04c0 1.84 1.26 3.04 2.74 3.04 1.46.01 2.75-1.22 2.75-3.04z"/>
    <path d="M324.55 1504.76v-.04c0-2.72 2.16-4.97 5.08-4.97s5.06 2.21 5.06 4.93v.04c0 2.7-2.16 4.95-5.1 4.95a4.91 4.91 0 01-5.04-4.91zm7.95 0v-.04c0-1.67-1.21-3.06-2.92-3.06-1.75 0-2.86 1.37-2.86 3.02v.04c0 1.66 1.21 3.04 2.9 3.04 1.77.01 2.88-1.36 2.88-3z"/>
    <path d="M336.89 1499.95h2.18v1.46a3.46 3.46 0 012.97-1.66c2.14 0 3.39 1.44 3.39 3.64v6.07h-2.18v-5.4c0-1.48-.74-2.32-2.04-2.32-1.26 0-2.14.88-2.14 2.36v5.37h-2.18v-9.52z"/>
    <path d="M360.04 1499.95h2.27l-3.78 9.78c-.76 1.94-1.6 2.66-3.13 2.66a4.5 4.5 0 01-2.25-.58l.74-1.62c.4.22.83.36 1.28.36.61 0 .99-.27 1.35-1.08l-3.96-9.52h2.34l2.68 7.06 2.46-7.06z"/>
    <path d="M363.12 1504.76v-.04c0-2.72 2.16-4.97 5.08-4.97s5.06 2.21 5.06 4.93v.04c0 2.7-2.16 4.95-5.1 4.95a4.91 4.91 0 01-5.04-4.91zm7.96 0v-.04c0-1.67-1.21-3.06-2.92-3.06-1.75 0-2.86 1.37-2.86 3.02v.04c0 1.66 1.21 3.04 2.9 3.04 1.76.01 2.88-1.36 2.88-3z"/>
    <path d="M375.36 1506v-6.05h2.18v5.4c0 1.48.74 2.3 2.03 2.3 1.26 0 2.14-.86 2.14-2.34v-5.37h2.2v9.51h-2.2v-1.48a3.4 3.4 0 01-2.97 1.67c-2.14.02-3.38-1.42-3.38-3.64z"/>
    <path d="M386.63 1499.95h2.18v2.14c.59-1.42 1.69-2.39 3.37-2.32v2.3h-.13c-1.91 0-3.24 1.24-3.24 3.76v3.62h-2.18v-9.5z"/>
    <path d="M399.5 1496.42h2.34v2.07h-2.34v-2.07zm.09 3.53h2.18v9.51h-2.18v-9.51z"/>
    <path d="M404.61 1499.95h2.18v1.46a3.46 3.46 0 012.97-1.66c2.14 0 3.39 1.44 3.39 3.64v6.07h-2.18v-5.4c0-1.48-.74-2.32-2.04-2.32-1.26 0-2.14.88-2.14 2.36v5.37h-2.18v-9.52z"/>
    <path d="M416.22 1506.83v-5h-1.21v-1.87h1.21v-2.61h2.18v2.61h2.56v1.87h-2.56v4.66c0 .85.43 1.19 1.17 1.19.49 0 .92-.11 1.35-.32v1.78c-.54.31-1.13.49-1.96.49-1.61-.01-2.74-.71-2.74-2.8z"/>
    <path d="M422.38 1504.74v-.04c0-2.72 1.93-4.95 4.64-4.95 3.03 0 4.56 2.38 4.56 5.11 0 .2-.02.4-.04.61h-6.99c.23 1.55 1.33 2.41 2.74 2.41a3.5 3.5 0 002.58-1.13l1.28 1.13a4.8 4.8 0 01-3.89 1.78 4.72 4.72 0 01-4.88-4.92zm7.04-.7c-.14-1.4-.97-2.5-2.41-2.5-1.33 0-2.27 1.03-2.47 2.5h4.88z"/>
    <path d="M433.77 1499.95h2.18v2.14c.59-1.42 1.69-2.39 3.37-2.32v2.3h-.13c-1.91 0-3.24 1.24-3.24 3.76v3.62h-2.18v-9.5z"/>
    <path d="M440.36 1504.74v-.04c0-2.72 1.93-4.95 4.64-4.95 3.03 0 4.56 2.38 4.56 5.11 0 .2-.02.4-.04.61h-6.99c.23 1.55 1.33 2.41 2.74 2.41a3.5 3.5 0 002.58-1.13l1.28 1.13a4.8 4.8 0 01-3.89 1.78 4.72 4.72 0 01-4.88-4.92zm7.04-.7c-.14-1.4-.97-2.5-2.41-2.5-1.33 0-2.27 1.03-2.47 2.5h4.88z"/>
    <path d="M450.98 1508.22l.97-1.48a5.4 5.4 0 003.12 1.17c.94 0 1.48-.4 1.48-1.03v-.04c0-.74-1.01-.99-2.12-1.33-1.4-.4-2.97-.97-2.97-2.79v-.04c0-1.8 1.49-2.9 3.38-2.9 1.19 0 2.48.41 3.49 1.08l-.86 1.55a5.5 5.5 0 00-2.68-.9c-.85 0-1.33.4-1.33.94v.04c0 .7 1.03.99 2.14 1.35 1.39.43 2.95 1.06 2.95 2.77v.04c0 2-1.55 2.99-3.53 2.99a6.7 6.7 0 01-4.04-1.42z"/>
    <path d="M461.04 1506.83v-5h-1.21v-1.87h1.21v-2.61h2.18v2.61h2.56v1.87h-2.56v4.66c0 .85.43 1.19 1.17 1.19.49 0 .92-.11 1.35-.32v1.78c-.54.31-1.13.49-1.96.49-1.61-.01-2.74-.71-2.74-2.8z"/>
    <path d="M473.42 1496.42h2.34v2.07h-2.34v-2.07zm.09 3.53h2.18v9.51h-2.18v-9.51z"/>
    <path d="M478.53 1499.95h2.18v1.46a3.44 3.44 0 012.97-1.66c2.14 0 3.39 1.44 3.39 3.64v6.07h-2.18v-5.4c0-1.48-.74-2.32-2.04-2.32-1.26 0-2.14.88-2.14 2.36v5.37h-2.18v-9.52z"/>
  </g>
  <g fill="#007BFF">
    <path d="M264.62 1525.62h11.62v3.01h-8.25v3.12h7.26v3.01h-7.26v3.23h8.36v3.01h-11.73v-15.38z"/>
    <path d="M278.26 1535.15v-.04c0-3.94 2.57-6.09 5.37-6.09a4.5 4.5 0 013.67 1.76v-5.81h3.34v16.06h-3.34v-1.69a4.33 4.33 0 01-3.67 1.91c-2.75-.01-5.37-2.17-5.37-6.1zm9.09 0v-.04c0-1.96-1.3-3.26-2.86-3.26-1.56 0-2.88 1.28-2.88 3.26v.04c0 1.96 1.32 3.26 2.88 3.26 1.56-.01 2.86-1.31 2.86-3.26z"/>
    <path d="M299.53 1538.78l2-2.4c1.39 1.14 2.84 1.87 4.6 1.87 1.39 0 2.22-.55 2.22-1.45v-.04c0-.86-.53-1.3-3.1-1.96-3.1-.79-5.1-1.65-5.1-4.71v-.04c0-2.79 2.24-4.64 5.39-4.64 2.24 0 4.16.7 5.72 1.96l-1.76 2.55c-1.36-.95-2.71-1.52-4-1.52s-1.98.59-1.98 1.34v.04c0 1.01.66 1.34 3.32 2.02 3.12.81 4.88 1.94 4.88 4.62v.04c0 3.06-2.33 4.77-5.65 4.77a9.76 9.76 0 01-6.54-2.45z"/>
    <path d="M314.32 1524.96h3.34v5.94c.77-.99 1.76-1.89 3.45-1.89 2.53 0 4 1.67 4 4.38v7.63h-3.34v-6.58c0-1.58-.75-2.4-2.02-2.4-1.28 0-2.09.81-2.09 2.4v6.58h-3.34v-16.06z"/>
    <path d="M327.45 1535.19v-.04c0-3.37 2.4-6.14 5.83-6.14 3.94 0 5.74 3.06 5.74 6.4 0 .26-.02.57-.04.88h-8.21c.33 1.52 1.39 2.31 2.88 2.31 1.12 0 1.94-.35 2.86-1.21l1.91 1.69a5.9 5.9 0 01-4.82 2.2c-3.53 0-6.15-2.48-6.15-6.09zm8.32-.99c-.2-1.5-1.08-2.51-2.49-2.51-1.39 0-2.29.99-2.55 2.51h5.04z"/>
    <path d="M340.94 1535.19v-.04c0-3.37 2.4-6.14 5.83-6.14 3.94 0 5.74 3.06 5.74 6.4 0 .26-.02.57-.04.88h-8.21c.33 1.52 1.39 2.31 2.88 2.31 1.12 0 1.94-.35 2.86-1.21l1.91 1.69a5.9 5.9 0 01-4.82 2.2c-3.54 0-6.15-2.48-6.15-6.09zm8.31-.99c-.2-1.5-1.08-2.51-2.49-2.51-1.39 0-2.29.99-2.55 2.51h5.04z"/>
    <path d="M354.99 1529.23h3.34v2.38c.68-1.63 1.78-2.68 3.76-2.6v3.5h-.18c-2.22 0-3.59 1.34-3.59 4.16v4.36h-3.34v-11.8z"/>
    <path d="M362.94 1537.63v-.04c0-2.57 1.96-3.76 4.75-3.76 1.19 0 2.05.2 2.88.48v-.2c0-1.39-.86-2.16-2.53-2.16-1.28 0-2.18.24-3.26.64l-.84-2.55c1.3-.57 2.57-.95 4.58-.95 1.83 0 3.15.48 3.98 1.32.88.88 1.28 2.18 1.28 3.76v6.84h-3.23v-1.28c-.81.9-1.94 1.5-3.56 1.5-2.23.01-4.05-1.27-4.05-3.6zm7.68-.77v-.59a5.24 5.24 0 00-2.13-.44c-1.43 0-2.31.57-2.31 1.63v.04c0 .9.75 1.43 1.83 1.43 1.55 0 2.61-.86 2.61-2.07z"/>
    <path d="M376.66 1529.23H380v1.67c.77-.99 1.76-1.89 3.45-1.89 2.53 0 4 1.67 4 4.38v7.63h-3.34v-6.58c0-1.58-.75-2.4-2.02-2.4-1.28 0-2.09.81-2.09 2.4v6.58h-3.34v-11.79z"/>
  </g>
</g>
<g id="row6">
  <image href="cover_03.jpg" x="148" y="1572" width="512" height="512"/>
  <image href="cover_04.jpg" x="644" y="1572" width="512" height="512"/>
  <image href="cover_01.jpg" x="1140" y="1572" width="512" height="512"/>
  <path fill="#8394B0" d="M581.9 2108.55h-14.54a3.23 3.23 0 01-3.23-3.23v-16.16c-.01-.86.34-1.68.95-2.28l10.63-10.65 1.71 1.7c.45.45.71 1.07.71 1.71l-.05.52-1.53 7.38h10.19a3.23 3.23 0 013.23 3.23v3.23c0 .4-.08.8-.23 1.18l-4.88 11.39a3.18 3.18 0 01-2.96 1.98zm-21.65 0h-6.46v-19.39h6.46v19.39z"/>
  <path d="M202.78 2081.1v-.04a7.79 7.79 0 017.94-7.96c2.84 0 4.55.99 6.03 2.4l-1.74 2c-1.23-1.14-2.55-1.91-4.31-1.91-2.93 0-5.08 2.42-5.08 5.43v.04c0 3.01 2.13 5.46 5.08 5.46 1.89 0 3.1-.75 4.42-1.98l1.74 1.76a7.97 7.97 0 01-6.25 2.73 7.75 7.75 0 01-7.83-7.93z"/>
  <path d="M218.62 2085.42v-.04c0-2.51 1.96-3.74 4.8-3.74 1.3 0 2.22.2 3.12.48v-.29c0-1.65-1.01-2.53-2.88-2.53-1.3 0-2.27.29-3.32.73l-.7-2.09a9.95 9.95 0 014.38-.95c1.74 0 3.04.46 3.85 1.3.86.84 1.25 2.07 1.25 3.59v6.89h-2.6v-1.45a4.7 4.7 0 01-3.78 1.69c-2.19-.01-4.12-1.26-4.12-3.59zm7.96-.84v-.79a7.45 7.45 0 00-2.64-.46c-1.72 0-2.73.73-2.73 1.94v.04c0 1.12.99 1.76 2.27 1.76 1.76 0 3.1-1.02 3.1-2.49z"/>
  <path d="M231.36 2087.24l1.19-1.8a6.56 6.56 0 003.81 1.43c1.14 0 1.8-.48 1.8-1.25v-.04c0-.9-1.23-1.21-2.6-1.63-1.72-.48-3.63-1.19-3.63-3.41v-.04c0-2.2 1.83-3.54 4.14-3.54a8.1 8.1 0 014.27 1.32l-1.06 1.89a6.76 6.76 0 00-3.28-1.1c-1.03 0-1.63.48-1.63 1.14v.04c0 .86 1.25 1.21 2.62 1.65 1.69.53 3.61 1.3 3.61 3.39v.04c0 2.44-1.89 3.65-4.31 3.65a8.1 8.1 0 01-4.93-1.74z"/>
  <path d="M243.65 2085.55v-6.12h-1.47v-2.29h1.47v-3.19h2.66v3.19h3.12v2.29h-3.12v5.7c0 1.03.53 1.45 1.43 1.45.59 0 1.12-.13 1.65-.4v2.18c-.66.37-1.39.59-2.4.59-1.95.01-3.34-.85-3.34-3.4z"/>
  <path d="M252.3 2072.7h2.66v16.06h-2.66v-16.06z"/>
  <path d="M257.8 2083v-.04c0-3.32 2.35-6.05 5.68-6.05 3.7 0 5.57 2.9 5.57 6.25 0 .24-.02.48-.04.75h-8.54c.29 1.89 1.63 2.95 3.34 2.95a4.2 4.2 0 003.15-1.39l1.56 1.39a5.88 5.88 0 01-4.75 2.18 5.82 5.82 0 01-5.97-6.04zm8.6-.86c-.18-1.72-1.19-3.06-2.95-3.06-1.63 0-2.77 1.25-3.01 3.06h5.96z"/>
  <path d="M277.69 2083.02v-.04c0-3.32 2.64-6.07 6.21-6.07s6.18 2.71 6.18 6.03v.04c0 3.3-2.64 6.05-6.23 6.05a6.01 6.01 0 01-6.16-6.01zm9.72 0v-.04c0-2.05-1.47-3.74-3.56-3.74-2.13 0-3.5 1.67-3.5 3.7v.04c0 2.02 1.47 3.72 3.54 3.72 2.16-.01 3.52-1.68 3.52-3.68z"/>
  <path d="M292.78 2077.14h2.66v1.78a4.21 4.21 0 013.63-2.02c2.62 0 4.14 1.76 4.14 4.44v7.42h-2.66v-6.6c0-1.8-.9-2.84-2.49-2.84-1.54 0-2.62 1.08-2.62 2.88v6.56h-2.66v-11.62z"/>
  <path d="M313.57 2085.55v-6.12h-1.47v-2.29h1.47v-3.19h2.66v3.19h3.12v2.29h-3.12v5.7c0 1.03.53 1.45 1.43 1.45.59 0 1.12-.13 1.65-.4v2.18c-.66.37-1.39.59-2.4.59-1.96.01-3.34-.85-3.34-3.4z"/>
  <path d="M322.06 2072.7h2.66v6.23a4.21 4.21 0 013.63-2.02c2.62 0 4.14 1.76 4.14 4.44v7.42h-2.66v-6.6c0-1.8-.9-2.84-2.49-2.84-1.54 0-2.62 1.08-2.62 2.88v6.56h-2.66v-16.07z"/>
  <path d="M335.06 2083v-.04c0-3.32 2.35-6.05 5.68-6.05 3.7 0 5.57 2.9 5.57 6.25 0 .24-.02.48-.04.75h-8.54c.29 1.89 1.63 2.95 3.34 2.95a4.2 4.2 0 003.15-1.39l1.56 1.39a5.88 5.88 0 01-4.75 2.18 5.82 5.82 0 01-5.97-6.04zm8.61-.86c-.18-1.72-1.19-3.06-2.95-3.06-1.63 0-2.77 1.25-3.01 3.06h5.96z"/>
  <path d="M355.9 2073.36h2.71v6.4h7.35v-6.4h2.71v15.4h-2.71v-6.49h-7.35v6.49h-2.71v-15.4z"/>
  <path d="M372.35 2072.83h2.86v2.53h-2.86v-2.53zm.11 4.31h2.66v11.62h-2.66v-11.62z"/>
  <path d="M378.75 2072.7h2.66v16.06h-2.66v-16.06z"/>
  <path d="M385.04 2072.7h2.66v16.06h-2.66v-16.06z"/>
  <g fill="#6D7C91">
    <path d="M203.1 2108.36h9.34v1.98h-7.13v3.28h6.32v1.98h-6.32v3.38h7.22v1.98h-9.43v-12.6z"/>
    <path d="M214.24 2116.23v-.04c0-3.15 2.14-4.93 4.41-4.93 1.57 0 2.56.77 3.24 1.67v-5.11h2.18v13.14h-2.18v-1.58a3.8 3.8 0 01-3.24 1.78c-2.23 0-4.41-1.78-4.41-4.93zm7.69 0v-.04c0-1.84-1.3-3.04-2.75-3.04-1.49 0-2.74 1.15-2.74 3.04v.04c0 1.84 1.26 3.04 2.74 3.04 1.45 0 2.75-1.22 2.75-3.04z"/>
    <path d="M231.61 2119.13l1.33-1.58a5.86 5.86 0 003.98 1.64c1.37 0 2.23-.65 2.23-1.58v-.04c0-.9-.5-1.39-2.84-1.93-2.68-.65-4.2-1.44-4.2-3.76v-.04c0-2.16 1.8-3.66 4.3-3.66a7 7 0 014.57 1.58l-1.19 1.67a5.7 5.7 0 00-3.42-1.3c-1.3 0-2.05.67-2.05 1.49v.04c0 .97.58 1.4 3.01 1.98 2.67.65 4.03 1.6 4.03 3.69v.04c0 2.36-1.85 3.76-4.5 3.76a7.69 7.69 0 01-5.25-2z"/>
    <path d="M243.73 2107.82h2.18v5.09a3.46 3.46 0 012.97-1.66c2.14 0 3.39 1.44 3.39 3.64v6.07h-2.18v-5.4c0-1.48-.74-2.32-2.04-2.32-1.26 0-2.14.88-2.14 2.36v5.37h-2.18v-13.15z"/>
    <path d="M254.36 2116.25v-.04c0-2.72 1.93-4.95 4.64-4.95 3.03 0 4.56 2.38 4.56 5.11 0 .2-.02.4-.04.61h-6.99c.23 1.55 1.33 2.41 2.74 2.41a3.5 3.5 0 002.58-1.13l1.28 1.13a4.8 4.8 0 01-3.89 1.78 4.73 4.73 0 01-4.88-4.92zm7.04-.71c-.14-1.4-.97-2.5-2.41-2.5-1.33 0-2.27 1.03-2.47 2.5h4.88z"/>
    <path d="M265.24 2116.25v-.04c0-2.72 1.93-4.95 4.64-4.95 3.03 0 4.56 2.38 4.56 5.11 0 .2-.02.4-.04.61h-6.99c.23 1.55 1.33 2.41 2.74 2.41a3.5 3.5 0 002.58-1.13l1.28 1.13a4.8 4.8 0 01-3.89 1.78 4.73 4.73 0 01-4.88-4.92zm7.04-.71c-.14-1.4-.97-2.5-2.41-2.5-1.33 0-2.27 1.03-2.47 2.5h4.88z"/>
    <path d="M276.63 2111.46h2.18v2.14c.59-1.42 1.69-2.39 3.37-2.32v2.3h-.13c-1.91 0-3.24 1.24-3.24 3.76v3.62h-2.18v-9.5z"/>
    <path d="M282.98 2118.23v-.04c0-2.05 1.6-3.06 3.92-3.06 1.06 0 1.82.16 2.56.4v-.23c0-1.35-.83-2.07-2.36-2.07-1.06 0-1.85.23-2.72.59l-.58-1.71a8.07 8.07 0 013.58-.77c1.42 0 2.49.38 3.15 1.06.7.68 1.03 1.69 1.03 2.93v5.64h-2.12v-1.19a3.89 3.89 0 01-3.1 1.39c-1.77-.01-3.36-1.04-3.36-2.94zm6.52-.69v-.65a5.97 5.97 0 00-2.16-.38c-1.4 0-2.23.59-2.23 1.58v.04c0 .92.81 1.44 1.85 1.44 1.44.01 2.54-.82 2.54-2.03z"/>
    <path d="M294.18 2111.46h2.18v1.46a3.46 3.46 0 012.97-1.66c2.14 0 3.39 1.44 3.39 3.64v6.07h-2.18v-5.4c0-1.48-.74-2.32-2.04-2.32-1.26 0-2.14.88-2.14 2.36v5.37h-2.18v-9.52z"/>
  </g>
  <g id="play">
    <path id="play_bg" fill="#6D7C91" d="M700 1601h400a18 18 0 0118 18v400a18 18 0 01-18 18H700a18 18 0 01-18-18v-400a18 18 0 0118-18z" opacity="0"/>
    <g id="play_preview" transform="translate(901 1692) scale(.3) translate(-901 -1692)" fill="#FFF" opacity="0">
      <path d="M848.88 1684.55h4.26v2.16a5.52 5.52 0 014.68-2.44c3.5 0 6.83 2.74 6.83 7.76v.06c0 5.01-3.28 7.76-6.83 7.76a5.78 5.78 0 01-4.68-2.24v6.44h-4.26v-19.5zm11.51 7.53v-.06c0-2.49-1.68-4.14-3.67-4.14s-3.64 1.65-3.64 4.14v.06c0 2.49 1.65 4.14 3.64 4.14s3.67-1.62 3.67-4.14z"/>
      <path d="M866.83 1684.55h4.26v3.02c.87-2.07 2.27-3.42 4.79-3.3v4.45h-.22c-2.83 0-4.56 1.71-4.56 5.29v5.54h-4.26v-15z"/>
      <path d="M876.43 1692.14v-.06c0-4.28 3.05-7.81 7.42-7.81 5.01 0 7.31 3.89 7.31 8.15 0 .34-.03.73-.06 1.12h-10.44c.42 1.93 1.76 2.94 3.67 2.94 1.43 0 2.46-.45 3.64-1.54l2.44 2.16a7.5 7.5 0 01-6.13 2.8c-4.51-.01-7.85-3.17-7.85-7.76zm10.59-1.26c-.25-1.9-1.37-3.19-3.16-3.19-1.76 0-2.91 1.26-3.25 3.19h6.41z"/>
      <path d="M891.33 1684.55h4.51l3.36 10.05 3.39-10.05h4.42l-5.91 15.12h-3.86l-5.91-15.12z"/>
      <path d="M908.61 1679.12h4.48v3.78h-4.48v-3.78zm.11 5.43h4.26v15.01h-4.26v-15.01z"/>
      <path d="M915.3 1692.14v-.06c0-4.28 3.05-7.81 7.42-7.81 5.01 0 7.31 3.89 7.31 8.15 0 .34-.03.73-.06 1.12h-10.44c.42 1.93 1.76 2.94 3.67 2.94 1.43 0 2.46-.45 3.64-1.54l2.44 2.16a7.5 7.5 0 01-6.13 2.8c-4.52-.01-7.85-3.17-7.85-7.76zm10.58-1.26c-.25-1.9-1.37-3.19-3.16-3.19-1.76 0-2.91 1.26-3.25 3.19h6.41z"/>
      <path d="M930.31 1684.55h4.31l2.41 9.1 2.83-9.16h3.67l2.86 9.18 2.46-9.13h4.23l-4.68 15.12h-3.84l-2.88-9.21-2.94 9.21h-3.81l-4.62-15.11z"/>
    </g>
    <g id="play_pause" transform="translate(900 1819) scale(.3) translate(-900 -1819)" opacity="0">
      <circle id="play_circle" stroke-dasharray="326.2" stroke-dashoffset="326.2" cx="900" cy="1819" r="52" fill="none" stroke="#FFF" stroke-miterlimit="10" stroke-width="10" transform="translate(900 1819) scale(1 -1) translate(-900 -1819) rotate(-180 900 1819)"/>
      <path fill="#FFF" d="M892.47 1835.53a5.24 5.24 0 01-5.22-5.22v-21.88a5.24 5.24 0 015.22-5.22 5.24 5.24 0 015.22 5.22v21.88a5.24 5.24 0 01-5.22 5.22z"/>
      <path fill="#FFF" d="M907.23 1835.53a5.24 5.24 0 01-5.22-5.22v-21.88a5.24 5.24 0 015.22-5.22 5.24 5.24 0 015.22 5.22v21.88a5.24 5.24 0 01-5.22 5.22z"/>
    </g>
    <g id="play_bttn" transform="translate(0 30)" opacity="0">
      <path fill="#FFF" d="M712 1963h376a30 30 0 0130 30v24a30 30 0 01-30 30H712a30 30 0 01-30-30v-24a30 30 0 0130-30z"/>
      <path d="M805.57 1998.37h4.56v2.31a5.9 5.9 0 015.01-2.61c3.75 0 7.32 2.94 7.32 8.31v.06c0 5.37-3.51 8.31-7.32 8.31a6.18 6.18 0 01-5.01-2.4v6.9h-4.56v-20.88zm12.32 8.07v-.06c0-2.67-1.8-4.44-3.93-4.44s-3.9 1.77-3.9 4.44v.06c0 2.67 1.77 4.44 3.9 4.44s3.93-1.74 3.93-4.44z"/>
      <path d="M825 1992.55h4.56v21.9H825v-21.9z"/>
      <path d="M831.88 2009.83v-.06c0-3.51 2.67-5.13 6.48-5.13 1.62 0 2.79.27 3.93.66v-.27c0-1.89-1.17-2.94-3.45-2.94-1.74 0-2.97.33-4.44.87l-1.14-3.48a14.19 14.19 0 016.24-1.29c2.49 0 4.29.66 5.43 1.8 1.2 1.2 1.74 2.97 1.74 5.13v9.33h-4.41v-1.74a6.18 6.18 0 01-4.86 2.04c-3.03 0-5.52-1.74-5.52-4.92zm10.46-1.05v-.81c-.78-.36-1.8-.6-2.91-.6-1.95 0-3.15.78-3.15 2.22v.06c0 1.23 1.02 1.95 2.49 1.95 2.13 0 3.57-1.17 3.57-2.82z"/>
      <path d="M848.76 2018.23l1.53-3.3c.6.36 1.35.63 1.95.63.78 0 1.2-.24 1.59-1.05l-6.3-16.14h4.83l3.66 10.95 3.51-10.95h4.74l-6.18 16.47c-1.23 3.27-2.55 4.5-5.28 4.5a7.55 7.55 0 01-4.05-1.11z"/>
      <path d="M873.93 1998.37h4.56v2.28c1.05-1.35 2.4-2.58 4.71-2.58 3.45 0 5.46 2.28 5.46 5.97v10.41h-4.56v-8.97c0-2.16-1.02-3.27-2.76-3.27-1.74 0-2.85 1.11-2.85 3.27v8.97h-4.56v-16.08z"/>
      <path d="M890.82 2006.5v-.06c0-4.62 3.72-8.37 8.73-8.37 4.98 0 8.67 3.69 8.67 8.31v.06c0 4.62-3.72 8.37-8.73 8.37-4.98 0-8.67-3.69-8.67-8.31zm12.9 0v-.06c0-2.37-1.71-4.44-4.23-4.44-2.61 0-4.17 2.01-4.17 4.38v.06c0 2.37 1.71 4.44 4.23 4.44 2.61 0 4.17-2.01 4.17-4.38z"/>
      <path d="M908.43 1998.37h4.62l2.58 9.75 3.03-9.81h3.93l3.06 9.84 2.64-9.78h4.53l-5.01 16.2h-4.11l-3.09-9.87-3.15 9.87h-4.08l-4.95-16.2z"/>
      <circle cx="980" cy="2006.13" r="22" fill="#007BFF"/>
      <path fill="#FFF" d="M973.49 2013.36v-14.46a2.01 2.01 0 013.1-1.69l11.22 7.23a2 2 0 010 3.38l-11.22 7.23c-1.34.86-3.1-.1-3.1-1.69z"/>
    </g>
  </g>

  <path fill="#8394B0" d="M1077.9 2108.55h-14.54a3.23 3.23 0 01-3.23-3.23v-16.16c-.01-.86.34-1.68.95-2.28l10.63-10.65 1.71 1.7c.45.45.71 1.07.71 1.71l-.05.52-1.53 7.38h10.19a3.23 3.23 0 013.23 3.23v3.23c0 .4-.08.8-.23 1.18l-4.88 11.39a3.18 3.18 0 01-2.96 1.98zm-21.65 0h-6.46v-19.39h6.46v19.39z"/>
  <path id="icn_like" fill="#007bff" transform="translate(1067.9 2092.4) scale(0) translate(-1067.9 -2092.4)" d="M1077.9 2108.55h-14.54a3.23 3.23 0 01-3.23-3.23v-16.16c-.01-.86.34-1.68.95-2.28l10.63-10.65 1.71 1.7c.45.45.71 1.07.71 1.71l-.05.52-1.53 7.38h10.19a3.23 3.23 0 013.23 3.23v3.23c0 .4-.08.8-.23 1.18l-4.88 11.39a3.18 3.18 0 01-2.96 1.98zm-21.65 0h-6.46v-19.39h6.46v19.39z"/>
  
  <g>
    <path d="M698.27 2073.36h2.93l3.67 11.42 3.79-11.46h2.29l3.78 11.46 3.67-11.42h2.84l-5.35 15.51h-2.35l-3.79-11.07-3.78 11.07h-2.33l-5.37-15.51z"/>
    <path d="M722.93 2077.14h2.66v2.62c.73-1.74 2.07-2.93 4.11-2.84v2.82h-.15c-2.33 0-3.96 1.52-3.96 4.6v4.42h-2.66v-11.62z"/>
    <path d="M732.06 2072.83h2.86v2.53h-2.86v-2.53zm.11 4.31h2.66v11.62h-2.66v-11.62z"/>
    <path d="M738.86 2085.55v-6.12h-1.47v-2.29h1.47v-3.19h2.66v3.19h3.12v2.29h-3.12v5.7c0 1.03.53 1.45 1.43 1.45.59 0 1.12-.13 1.65-.4v2.18c-.66.37-1.39.59-2.4.59-1.95.01-3.34-.85-3.34-3.4z"/>
    <path d="M746.39 2083v-.04c0-3.32 2.35-6.05 5.68-6.05 3.7 0 5.57 2.9 5.57 6.25 0 .24-.02.48-.04.75h-8.54c.29 1.89 1.63 2.95 3.34 2.95a4.2 4.2 0 003.15-1.39l1.56 1.39a5.88 5.88 0 01-4.75 2.18 5.82 5.82 0 01-5.97-6.04zm8.6-.86c-.18-1.72-1.19-3.06-2.95-3.06-1.63 0-2.77 1.25-3.01 3.06h5.96z"/>
    <path d="M760.31 2077.14h2.66v2.62c.73-1.74 2.07-2.93 4.11-2.84v2.82h-.15c-2.33 0-3.96 1.52-3.96 4.6v4.42h-2.66v-11.62z"/>
    <path d="M776.04 2072.83h2.86v2.53h-2.86v-2.53zm.11 4.31h2.66v11.62h-2.66v-11.62z"/>
    <path d="M782.29 2077.14h2.66v1.78a4.21 4.21 0 013.63-2.02c2.62 0 4.14 1.76 4.14 4.44v7.42h-2.66v-6.6c0-1.8-.9-2.84-2.49-2.84-1.54 0-2.62 1.08-2.62 2.88v6.56h-2.66v-11.62z"/>
    <path d="M803.08 2085.55v-6.12h-1.47v-2.29h1.47v-3.19h2.66v3.19h3.12v2.29h-3.12v5.7c0 1.03.53 1.45 1.43 1.45.59 0 1.12-.13 1.65-.4v2.18c-.66.37-1.39.59-2.4.59-1.96.01-3.34-.85-3.34-3.4z"/>
    <path d="M811.57 2072.7h2.66v6.23a4.21 4.21 0 013.63-2.02c2.62 0 4.14 1.76 4.14 4.44v7.42h-2.66v-6.6c0-1.8-.9-2.84-2.49-2.84-1.54 0-2.62 1.08-2.62 2.88v6.56h-2.66v-16.07z"/>
    <path d="M824.57 2083v-.04c0-3.32 2.35-6.05 5.68-6.05 3.7 0 5.57 2.9 5.57 6.25 0 .24-.02.48-.04.75h-8.54c.29 1.89 1.63 2.95 3.34 2.95a4.2 4.2 0 003.15-1.39l1.56 1.39a5.88 5.88 0 01-4.75 2.18 5.82 5.82 0 01-5.97-6.04zm8.61-.86c-.18-1.72-1.19-3.06-2.95-3.06-1.63 0-2.77 1.25-3.01 3.06h5.96z"/>
    <path d="M845.41 2073.36h5.74c4.84 0 8.19 3.32 8.19 7.66v.04c0 4.33-3.34 7.7-8.19 7.7h-5.74v-15.4zm2.7 2.46v10.47h3.04c3.24 0 5.35-2.18 5.35-5.19v-.04c0-3.01-2.11-5.24-5.35-5.24h-3.04z"/>
    <path d="M861.53 2085.42v-.04c0-2.51 1.96-3.74 4.8-3.74 1.3 0 2.22.2 3.12.48v-.29c0-1.65-1.01-2.53-2.88-2.53-1.3 0-2.27.29-3.32.73l-.7-2.09a9.95 9.95 0 014.38-.95c1.74 0 3.04.46 3.85 1.3.86.84 1.25 2.07 1.25 3.59v6.89h-2.6v-1.45a4.7 4.7 0 01-3.78 1.69c-2.18-.01-4.12-1.26-4.12-3.59zm7.97-.84v-.79a7.45 7.45 0 00-2.64-.46c-1.72 0-2.73.73-2.73 1.94v.04c0 1.12.99 1.76 2.27 1.76 1.76 0 3.1-1.02 3.1-2.49z"/>
    <path d="M875.21 2077.14h2.66v2.62c.73-1.74 2.07-2.93 4.11-2.84v2.82h-.15c-2.33 0-3.96 1.52-3.96 4.6v4.42h-2.66v-11.62z"/>
    <path d="M884.3 2072.7h2.66v9.59l4.82-5.15h3.23l-4.62 4.73 4.77 6.89h-3.12l-3.43-5.04-1.65 1.72v3.32h-2.66v-16.06z"/>
  </g>
  <g fill="#6D7C91">
    <path d="M699.1 2108.36h2.21v10.59h6.63v2.02h-8.84v-12.61z"/>
    <path d="M709.29 2116.26v-.04c0-2.72 2.16-4.97 5.08-4.97s5.06 2.21 5.06 4.93v.04c0 2.7-2.16 4.95-5.1 4.95a4.9 4.9 0 01-5.04-4.91zm7.96 0v-.04c0-1.67-1.21-3.06-2.92-3.06-1.75 0-2.86 1.37-2.86 3.02v.04c0 1.66 1.21 3.04 2.9 3.04 1.76.01 2.88-1.36 2.88-3z"/>
    <path d="M721.64 2111.46h2.18v2.14c.59-1.42 1.69-2.39 3.37-2.32v2.3h-.13c-1.91 0-3.24 1.24-3.24 3.76v3.62h-2.18v-9.5z"/>
    <path d="M728.31 2116.23v-.04c0-3.15 2.14-4.93 4.41-4.93 1.57 0 2.56.77 3.24 1.67v-5.11h2.18v13.14h-2.18v-1.58a3.8 3.8 0 01-3.24 1.78c-2.23 0-4.41-1.78-4.41-4.93zm7.69 0v-.04c0-1.84-1.3-3.04-2.75-3.04-1.49 0-2.74 1.15-2.74 3.04v.04c0 1.84 1.26 3.04 2.74 3.04 1.46 0 2.75-1.22 2.75-3.04z"/>
    <path d="M740.36 2116.25v-.04c0-2.72 1.93-4.95 4.64-4.95 3.03 0 4.56 2.38 4.56 5.11 0 .2-.02.4-.04.61h-6.99c.23 1.55 1.33 2.41 2.74 2.41a3.5 3.5 0 002.58-1.13l1.28 1.13a4.8 4.8 0 01-3.89 1.78 4.73 4.73 0 01-4.88-4.92zm7.04-.71c-.14-1.4-.97-2.5-2.41-2.5-1.33 0-2.27 1.03-2.47 2.5h4.88z"/>
  </g>
  <path fill="#8394B0" d="M1573.9 2108.55h-14.54a3.23 3.23 0 01-3.23-3.23v-16.16c-.01-.86.34-1.68.95-2.28l10.63-10.65 1.71 1.7c.45.45.71 1.07.71 1.71l-.05.52-1.53 7.38h10.19a3.23 3.23 0 013.23 3.23v3.23c0 .4-.08.8-.23 1.18l-4.88 11.39a3.18 3.18 0 01-2.96 1.98zm-21.65 0h-6.46v-19.39h6.46v19.39z"/>
  <g>
    <path d="M1195.61 2073.36h2.71v15.4h-2.71v-15.4z"/>
    <path d="M1202.72 2079.43h-1.47v-2.22h1.47v-.86c0-1.28.33-2.24.95-2.86s1.47-.92 2.62-.92c.92 0 1.56.13 2.16.31v2.25a4.59 4.59 0 00-1.56-.29c-1.01 0-1.54.55-1.54 1.76v.64h3.08v2.2h-3.04v9.33h-2.66v-9.34z"/>
    <path d="M1217.46 2073.36h2.71v15.4h-2.71v-15.4z"/>
    <path d="M1229.69 2073.36h2.93l3.67 11.42 3.78-11.46h2.29l3.79 11.46 3.67-11.42h2.84l-5.35 15.51h-2.35l-3.79-11.07-3.78 11.07h-2.33l-5.37-15.51z"/>
    <path d="M1253.05 2083v-.04c0-3.32 2.35-6.05 5.68-6.05 3.7 0 5.57 2.9 5.57 6.25 0 .24-.02.48-.04.75h-8.54c.29 1.89 1.63 2.95 3.34 2.95a4.2 4.2 0 003.15-1.39l1.56 1.39a5.88 5.88 0 01-4.75 2.18 5.82 5.82 0 01-5.97-6.04zm8.61-.86c-.18-1.72-1.19-3.06-2.95-3.06-1.63 0-2.77 1.25-3.01 3.06h5.96z"/>
    <path d="M1266.98 2077.14h2.66v2.62c.73-1.74 2.07-2.93 4.11-2.84v2.82h-.15c-2.33 0-3.96 1.52-3.96 4.6v4.42h-2.66v-11.62z"/>
    <path d="M1275.03 2083v-.04c0-3.32 2.35-6.05 5.68-6.05 3.7 0 5.57 2.9 5.57 6.25 0 .24-.02.48-.04.75h-8.54c.29 1.89 1.63 2.95 3.34 2.95a4.2 4.2 0 003.15-1.39l1.56 1.39a5.88 5.88 0 01-4.75 2.18 5.82 5.82 0 01-5.97-6.04zm8.61-.86c-.18-1.72-1.19-3.06-2.95-3.06-1.63 0-2.77 1.25-3.01 3.06h5.96z"/>
    <path d="M1294.79 2085.42v-.04c0-2.51 1.96-3.74 4.8-3.74 1.3 0 2.22.2 3.12.48v-.29c0-1.65-1.01-2.53-2.88-2.53-1.3 0-2.27.29-3.32.73l-.7-2.09a9.95 9.95 0 014.38-.95c1.74 0 3.04.46 3.85 1.3.86.84 1.25 2.07 1.25 3.59v6.89h-2.6v-1.45a4.7 4.7 0 01-3.78 1.69c-2.19-.01-4.12-1.26-4.12-3.59zm7.96-.84v-.79a7.45 7.45 0 00-2.64-.46c-1.72 0-2.73.73-2.73 1.94v.04c0 1.12.99 1.76 2.27 1.76 1.76 0 3.1-1.02 3.1-2.49z"/>
    <path d="M1317.73 2086.96v1.8h-2.66v-16.06h2.66v6.38a4.66 4.66 0 013.96-2.18c2.73 0 5.39 2.16 5.39 6.03v.04c0 3.85-2.64 6.03-5.39 6.03a4.78 4.78 0 01-3.96-2.04zm6.65-3.99v-.04c0-2.24-1.52-3.72-3.32-3.72-1.8 0-3.39 1.5-3.39 3.72v.04c0 2.22 1.58 3.72 3.39 3.72 1.82 0 3.32-1.43 3.32-3.72z"/>
    <path d="M1329.2 2083.02v-.04c0-3.32 2.64-6.07 6.21-6.07s6.18 2.71 6.18 6.03v.04c0 3.3-2.64 6.05-6.23 6.05a6.01 6.01 0 01-6.16-6.01zm9.72 0v-.04c0-2.05-1.47-3.74-3.56-3.74-2.13 0-3.5 1.67-3.5 3.7v.04c0 2.02 1.47 3.72 3.54 3.72 2.16-.01 3.52-1.68 3.52-3.68z"/>
    <path d="M1351.68 2077.14h2.77l-4.62 11.95c-.92 2.38-1.96 3.26-3.83 3.26-1.1 0-1.94-.26-2.75-.7l.9-1.98a3.3 3.3 0 001.56.44c.75 0 1.21-.33 1.65-1.32l-4.84-11.64h2.86l3.28 8.63 3.02-8.64z"/>
  </g>
  <g fill="#6D7C91">
    <path d="M1195.1 2108.36h5.65c1.44 0 2.57.4 3.29 1.12.56.56.85 1.24.85 2.09v.04c0 1.51-.86 2.32-1.8 2.81 1.48.5 2.5 1.35 2.5 3.06v.04c0 2.25-1.85 3.46-4.66 3.46h-5.83v-12.62zm7.58 3.56c0-.99-.79-1.6-2.21-1.6h-3.19v3.35h3.03c1.42 0 2.38-.56 2.38-1.71v-.04zm-1.89 3.62h-3.51v3.46h3.67c1.51 0 2.43-.59 2.43-1.73v-.04c0-1.06-.84-1.69-2.59-1.69z"/>
    <path d="M1207.32 2116.25v-.04c0-2.72 1.93-4.95 4.65-4.95 3.02 0 4.56 2.38 4.56 5.11 0 .2-.02.4-.04.61h-6.99c.23 1.55 1.33 2.41 2.74 2.41a3.5 3.5 0 002.58-1.13l1.28 1.13a4.8 4.8 0 01-3.89 1.78 4.73 4.73 0 01-4.89-4.92zm7.04-.71c-.14-1.4-.97-2.5-2.41-2.5-1.33 0-2.27 1.03-2.47 2.5h4.88z"/>
    <path d="M1224.86 2111.46h2.27l-3.78 9.78c-.76 1.94-1.6 2.66-3.13 2.66a4.5 4.5 0 01-2.25-.58l.74-1.62c.4.22.83.36 1.28.36.61 0 .99-.27 1.35-1.08l-3.96-9.52h2.34l2.68 7.06 2.46-7.06z"/>
    <path d="M1227.93 2116.26v-.04c0-2.72 2.16-4.97 5.08-4.97s5.06 2.21 5.06 4.93v.04c0 2.7-2.16 4.95-5.1 4.95a4.9 4.9 0 01-5.04-4.91zm7.96 0v-.04c0-1.67-1.21-3.06-2.92-3.06-1.75 0-2.86 1.37-2.86 3.02v.04c0 1.66 1.21 3.04 2.9 3.04 1.76.01 2.88-1.36 2.88-3z"/>
    <path d="M1240.17 2117.51v-6.05h2.18v5.4c0 1.48.74 2.3 2.03 2.3 1.26 0 2.14-.86 2.14-2.34v-5.37h2.2v9.51h-2.2v-1.48a3.4 3.4 0 01-2.97 1.67c-2.14.01-3.38-1.43-3.38-3.64z"/>
    <path d="M1250.92 2116.26v-.04a4.9 4.9 0 014.95-4.97c1.78 0 2.9.67 3.8 1.64l-1.37 1.46c-.67-.7-1.37-1.19-2.45-1.19-1.58 0-2.75 1.37-2.75 3.02v.04c0 1.69 1.17 3.04 2.84 3.04 1.03 0 1.78-.47 2.47-1.17l1.31 1.3a4.82 4.82 0 01-3.89 1.78 4.84 4.84 0 01-4.91-4.91z"/>
    <path d="M1260.93 2116.25v-.04c0-2.72 1.93-4.95 4.64-4.95 3.03 0 4.56 2.38 4.56 5.11 0 .2-.02.4-.04.61h-6.99c.23 1.55 1.33 2.41 2.74 2.41a3.5 3.5 0 002.58-1.13l1.28 1.13a4.8 4.8 0 01-3.89 1.78 4.73 4.73 0 01-4.88-4.92zm7.04-.71c-.14-1.4-.97-2.5-2.41-2.5-1.33 0-2.27 1.03-2.47 2.5h4.88z"/>
  </g>
</g>
<g id="row7">
  <image href="icon_04.jpg" x="166" y="2184" width="80" height="80"/>
  <g fill="#6D7C91">
    <path d="M264.39 2197.86h5.65c1.44 0 2.57.39 3.29 1.12.56.56.85 1.24.85 2.09v.04c0 1.51-.86 2.32-1.8 2.81 1.48.5 2.5 1.35 2.5 3.06v.04c0 2.25-1.85 3.46-4.66 3.46h-5.83v-12.62zm7.58 3.56c0-.99-.79-1.6-2.21-1.6h-3.19v3.35h3.02c1.42 0 2.38-.56 2.38-1.71v-.04zm-1.89 3.62h-3.51v3.46h3.67c1.51 0 2.43-.59 2.43-1.73v-.04c0-1.06-.84-1.69-2.59-1.69z"/>
    <path d="M276.5 2207.72v-.04c0-2.05 1.6-3.06 3.93-3.06 1.06 0 1.82.16 2.56.4v-.23c0-1.35-.83-2.07-2.36-2.07-1.06 0-1.85.23-2.72.59l-.58-1.71a8.07 8.07 0 013.58-.77c1.42 0 2.48.38 3.15 1.06.7.68 1.03 1.69 1.03 2.93v5.64h-2.12v-1.19a3.86 3.86 0 01-3.1 1.39c-1.78 0-3.37-1.03-3.37-2.94zm6.52-.68v-.65a6.2 6.2 0 00-2.16-.38c-1.4 0-2.23.59-2.23 1.58v.04c0 .92.81 1.44 1.85 1.44 1.44 0 2.54-.83 2.54-2.03z"/>
    <path d="M286.93 2209.22l.97-1.48a5.4 5.4 0 003.12 1.17c.94 0 1.48-.4 1.48-1.03v-.04c0-.74-1.01-.99-2.12-1.33-1.4-.4-2.97-.97-2.97-2.79v-.04c0-1.8 1.49-2.9 3.38-2.9 1.19 0 2.48.41 3.49 1.08l-.86 1.55a5.5 5.5 0 00-2.68-.9c-.85 0-1.33.4-1.33.94v.04c0 .7 1.03.99 2.14 1.35 1.39.43 2.95 1.06 2.95 2.77v.04c0 2-1.55 2.99-3.53 2.99a6.7 6.7 0 01-4.04-1.42z"/>
    <path d="M296.2 2205.74v-.04c0-2.72 1.93-4.95 4.64-4.95 3.03 0 4.56 2.38 4.56 5.11 0 .2-.02.4-.04.61h-6.99c.23 1.55 1.33 2.41 2.74 2.41a3.5 3.5 0 002.58-1.13l1.28 1.13a4.8 4.8 0 01-3.89 1.78 4.72 4.72 0 01-4.88-4.92zm7.04-.7c-.14-1.4-.97-2.5-2.41-2.5-1.33 0-2.27 1.03-2.47 2.5h4.88z"/>
    <path d="M307.1 2205.72v-.04c0-3.15 2.14-4.93 4.41-4.93 1.57 0 2.56.77 3.24 1.67v-5.11h2.18v13.14h-2.18v-1.59a3.8 3.8 0 01-3.24 1.78c-2.23.02-4.41-1.77-4.41-4.92zm7.69 0v-.04c0-1.84-1.3-3.04-2.75-3.04-1.49 0-2.74 1.15-2.74 3.04v.04c0 1.84 1.26 3.04 2.74 3.04 1.46.01 2.75-1.22 2.75-3.04z"/>
    <path d="M324.55 2205.76v-.04c0-2.72 2.16-4.97 5.08-4.97s5.06 2.21 5.06 4.93v.04c0 2.7-2.16 4.95-5.1 4.95a4.91 4.91 0 01-5.04-4.91zm7.95 0v-.04c0-1.67-1.21-3.06-2.92-3.06-1.75 0-2.86 1.37-2.86 3.03v.04c0 1.66 1.21 3.04 2.9 3.04 1.77 0 2.88-1.37 2.88-3.01z"/>
    <path d="M336.89 2200.95h2.18v1.46a3.46 3.46 0 012.97-1.66c2.14 0 3.39 1.44 3.39 3.64v6.07h-2.18v-5.4c0-1.48-.74-2.32-2.04-2.32-1.26 0-2.14.88-2.14 2.36v5.37h-2.18v-9.52z"/>
    <path d="M360.04 2200.95h2.27l-3.78 9.78c-.76 1.95-1.6 2.66-3.13 2.66a4.4 4.4 0 01-2.25-.58l.74-1.62c.4.21.83.36 1.28.36.61 0 .99-.27 1.35-1.08l-3.96-9.53h2.34l2.68 7.06 2.46-7.05z"/>
    <path d="M363.12 2205.76v-.04c0-2.72 2.16-4.97 5.08-4.97s5.06 2.21 5.06 4.93v.04c0 2.7-2.16 4.95-5.1 4.95a4.91 4.91 0 01-5.04-4.91zm7.96 0v-.04c0-1.67-1.21-3.06-2.92-3.06-1.75 0-2.86 1.37-2.86 3.03v.04c0 1.66 1.21 3.04 2.9 3.04 1.76 0 2.88-1.37 2.88-3.01z"/>
    <path d="M375.36 2207v-6.05h2.18v5.4c0 1.48.74 2.3 2.03 2.3 1.26 0 2.14-.87 2.14-2.34v-5.37h2.2v9.51h-2.2v-1.48a3.4 3.4 0 01-2.97 1.67c-2.14.02-3.38-1.42-3.38-3.64z"/>
    <path d="M386.63 2200.95h2.18v2.14c.59-1.42 1.69-2.39 3.37-2.32v2.3h-.13c-1.91 0-3.24 1.24-3.24 3.76v3.62h-2.18v-9.5z"/>
    <path d="M399.5 2197.42h2.34v2.07h-2.34v-2.07zm.09 3.53h2.18v9.51h-2.18v-9.51z"/>
    <path d="M404.61 2200.95h2.18v1.46a3.46 3.46 0 012.97-1.66c2.14 0 3.39 1.44 3.39 3.64v6.07h-2.18v-5.4c0-1.48-.74-2.32-2.04-2.32-1.26 0-2.14.88-2.14 2.36v5.37h-2.18v-9.52z"/>
    <path d="M416.22 2207.83v-5.01h-1.21v-1.87h1.21v-2.61h2.18v2.61h2.56v1.87h-2.56v4.66c0 .85.43 1.19 1.17 1.19.49 0 .92-.11 1.35-.32v1.78c-.54.31-1.13.49-1.96.49-1.61 0-2.74-.7-2.74-2.79z"/>
    <path d="M422.38 2205.74v-.04c0-2.72 1.93-4.95 4.64-4.95 3.03 0 4.56 2.38 4.56 5.11 0 .2-.02.4-.04.61h-6.99c.23 1.55 1.33 2.41 2.74 2.41a3.5 3.5 0 002.58-1.13l1.28 1.13a4.8 4.8 0 01-3.89 1.78 4.72 4.72 0 01-4.88-4.92zm7.04-.7c-.14-1.4-.97-2.5-2.41-2.5-1.33 0-2.27 1.03-2.47 2.5h4.88z"/>
    <path d="M433.77 2200.95h2.18v2.14c.59-1.42 1.69-2.39 3.37-2.32v2.3h-.13c-1.91 0-3.24 1.24-3.24 3.76v3.62h-2.18v-9.5z"/>
    <path d="M440.36 2205.74v-.04c0-2.72 1.93-4.95 4.64-4.95 3.03 0 4.56 2.38 4.56 5.11 0 .2-.02.4-.04.61h-6.99c.23 1.55 1.33 2.41 2.74 2.41a3.5 3.5 0 002.58-1.13l1.28 1.13a4.8 4.8 0 01-3.89 1.78 4.72 4.72 0 01-4.88-4.92zm7.04-.7c-.14-1.4-.97-2.5-2.41-2.5-1.33 0-2.27 1.03-2.47 2.5h4.88z"/>
    <path d="M450.98 2209.22l.97-1.48a5.4 5.4 0 003.12 1.17c.94 0 1.48-.4 1.48-1.03v-.04c0-.74-1.01-.99-2.12-1.33-1.4-.4-2.97-.97-2.97-2.79v-.04c0-1.8 1.49-2.9 3.38-2.9 1.19 0 2.48.41 3.49 1.08l-.86 1.55a5.5 5.5 0 00-2.68-.9c-.85 0-1.33.4-1.33.94v.04c0 .7 1.03.99 2.14 1.35 1.39.43 2.95 1.06 2.95 2.77v.04c0 2-1.55 2.99-3.53 2.99a6.7 6.7 0 01-4.04-1.42z"/>
    <path d="M461.04 2207.83v-5.01h-1.21v-1.87h1.21v-2.61h2.18v2.61h2.56v1.87h-2.56v4.66c0 .85.43 1.19 1.17 1.19.49 0 .92-.11 1.35-.32v1.78c-.54.31-1.13.49-1.96.49-1.61 0-2.74-.7-2.74-2.79z"/>
    <path d="M473.42 2197.42h2.34v2.07h-2.34v-2.07zm.09 3.53h2.18v9.51h-2.18v-9.51z"/>
    <path d="M478.53 2200.95h2.18v1.46a3.44 3.44 0 012.97-1.66c2.14 0 3.39 1.44 3.39 3.64v6.07h-2.18v-5.4c0-1.48-.74-2.32-2.04-2.32-1.26 0-2.14.88-2.14 2.36v5.37h-2.18v-9.52z"/>
  </g>
  <path d="M264.62 2226.62h7.04c1.96 0 3.48.55 4.49 1.56a4.83 4.83 0 011.32 3.52v.04a4.77 4.77 0 01-3.3 4.77l3.76 5.5h-3.96l-3.3-4.93h-2.66v4.93h-3.39v-15.39zm6.82 7.48c1.65 0 2.6-.88 2.6-2.18v-.04c0-1.45-1.01-2.2-2.66-2.2h-3.37v4.42h3.43z"/>
  <path d="M279.38 2236.19v-.04c0-3.39 2.73-6.14 6.4-6.14 3.65 0 6.36 2.71 6.36 6.09v.04c0 3.39-2.73 6.14-6.4 6.14-3.65 0-6.36-2.7-6.36-6.09zm9.46 0v-.04c0-1.74-1.25-3.26-3.1-3.26-1.91 0-3.06 1.47-3.06 3.21v.04c0 1.74 1.25 3.26 3.1 3.26 1.92 0 3.06-1.47 3.06-3.21z"/>
  <path d="M293.99 2236.19v-.04a6.05 6.05 0 016.18-6.14c2.22 0 3.61.75 4.71 1.98l-2.05 2.2c-.75-.79-1.5-1.3-2.68-1.3-1.67 0-2.86 1.47-2.86 3.21v.04c0 1.8 1.17 3.26 2.99 3.26 1.12 0 1.89-.48 2.71-1.25l1.96 1.98a5.94 5.94 0 01-4.82 2.16 6.03 6.03 0 01-6.14-6.1z"/>
  <path d="M307.12 2225.96h3.34v8.56l3.92-4.29h4l-4.49 4.64 4.64 7.15h-3.83l-3.08-4.82-1.17 1.23v3.59h-3.34v-16.06z"/>
  <path d="M319.02 2236.19v-.04c0-3.37 2.4-6.14 5.83-6.14 3.94 0 5.74 3.06 5.74 6.4 0 .26-.02.57-.04.88h-8.21c.33 1.52 1.39 2.31 2.88 2.31 1.12 0 1.94-.35 2.86-1.21l1.91 1.69a5.9 5.9 0 01-4.82 2.2c-3.53 0-6.15-2.48-6.15-6.09zm8.32-.99c-.2-1.5-1.08-2.51-2.49-2.51-1.39 0-2.29.99-2.55 2.51h5.04z"/>
  <path d="M333.63 2238.68v-5.59h-1.41v-2.86h1.41v-3.01h3.34v3.01h2.77v2.86h-2.77v5.04c0 .77.33 1.14 1.08 1.14.62 0 1.17-.15 1.65-.42v2.68a4.9 4.9 0 01-2.64.68c-2.04.01-3.43-.81-3.43-3.53z"/>
  <path d="M349.16 2226.62h3.65l4.05 6.51 4.05-6.51h3.65v15.4h-3.37v-10.06l-4.33 6.58h-.09l-4.29-6.51v9.99h-3.32v-15.4z"/>
  <path d="M367.2 2238.63v-.04c0-2.57 1.96-3.76 4.75-3.76 1.19 0 2.05.2 2.88.48v-.2c0-1.39-.86-2.16-2.53-2.16-1.28 0-2.18.24-3.26.64l-.84-2.55c1.3-.57 2.57-.95 4.58-.95 1.83 0 3.15.48 3.98 1.32.88.88 1.28 2.18 1.28 3.76v6.84h-3.23v-1.28c-.81.9-1.94 1.5-3.56 1.5-2.22.01-4.05-1.27-4.05-3.6zm7.68-.77v-.59a5.24 5.24 0 00-2.13-.44c-1.43 0-2.31.57-2.31 1.63v.04c0 .9.75 1.43 1.83 1.43 1.56 0 2.61-.86 2.61-2.07z"/>
  <path d="M380.93 2230.23h3.34v1.67c.77-.99 1.76-1.89 3.45-1.89 2.53 0 4 1.67 4 4.38v7.63h-3.34v-6.58c0-1.58-.75-2.4-2.02-2.4-1.28 0-2.09.81-2.09 2.4v6.58h-3.34v-11.79z"/>
  <path d="M400.84 2233.59h6.78v3.21h-6.78v-3.21z"/>
  <path fill="#007BFF" d="M417.17 2226.62h11.62v3.01h-8.25v3.12h7.26v3.01h-7.26v3.23h8.36v3.01h-11.73v-15.38z"/>
  <path fill="#007BFF" d="M431.71 2225.96h3.34v16.06h-3.34v-16.06z"/>
  <path fill="#007BFF" d="M438.75 2238.68v-5.59h-1.41v-2.86h1.41v-3.01h3.34v3.01h2.77v2.86h-2.77v5.04c0 .77.33 1.14 1.08 1.14.62 0 1.17-.15 1.65-.42v2.68a4.9 4.9 0 01-2.64.68c-2.05.01-3.43-.81-3.43-3.53z"/>
  <path fill="#007BFF" d="M446.42 2236.19v-.04c0-3.39 2.73-6.14 6.4-6.14 3.65 0 6.36 2.71 6.36 6.09v.04c0 3.39-2.73 6.14-6.4 6.14-3.65 0-6.36-2.7-6.36-6.09zm9.47 0v-.04c0-1.74-1.25-3.26-3.1-3.26-1.91 0-3.06 1.47-3.06 3.21v.04c0 1.74 1.25 3.26 3.1 3.26 1.91 0 3.06-1.47 3.06-3.21z"/>
  <path fill="#007BFF" d="M461.6 2230.23h3.34v1.67c.77-.99 1.76-1.89 3.45-1.89 2.53 0 4 1.67 4 4.38v7.63h-3.34v-6.58c0-1.58-.75-2.4-2.02-2.4-1.28 0-2.09.81-2.09 2.4v6.58h-3.34v-11.79z"/>
  <path fill="#007BFF" d="M480.72 2239.93l2.13-2.38c.88.97 1.74 1.54 2.82 1.54 1.28 0 2.07-.77 2.07-2.55v-9.92h3.48v10.08c0 1.83-.53 3.19-1.45 4.12a5.48 5.48 0 01-4 1.43 6.36 6.36 0 01-5.05-2.32z"/>
  <path fill="#007BFF" d="M493.75 2236.19v-.04c0-3.39 2.73-6.14 6.4-6.14 3.65 0 6.36 2.71 6.36 6.09v.04c0 3.39-2.73 6.14-6.4 6.14-3.66 0-6.36-2.7-6.36-6.09zm9.46 0v-.04c0-1.74-1.25-3.26-3.1-3.26-1.91 0-3.06 1.47-3.06 3.21v.04c0 1.74 1.25 3.26 3.1 3.26 1.91 0 3.06-1.47 3.06-3.21z"/>
  <path fill="#007BFF" d="M508.99 2244.35l1.14-2.51a7.71 7.71 0 003.98 1.08c2.29 0 3.37-1.1 3.37-3.21v-.57a4.61 4.61 0 01-3.85 1.92c-2.75 0-5.24-2-5.24-5.5v-.04c0-3.52 2.53-5.5 5.24-5.5 1.83 0 2.9.77 3.81 1.76v-1.54h3.34v9.13c0 2.11-.51 3.65-1.5 4.64-1.1 1.1-2.79 1.58-5.08 1.58a11.35 11.35 0 01-5.21-1.24zm8.49-8.8v-.04c0-1.61-1.25-2.73-2.88-2.73s-2.86 1.12-2.86 2.73v.04c0 1.63 1.23 2.73 2.86 2.73s2.88-1.12 2.88-2.73z"/>
  <path fill="#007BFF" d="M523.77 2230.23h3.34v1.67c.77-.99 1.76-1.89 3.45-1.89 2.53 0 4 1.67 4 4.38v7.63h-3.34v-6.58c0-1.58-.75-2.4-2.02-2.4-1.28 0-2.09.81-2.09 2.4v6.58h-3.34v-11.79z"/>
</g>
<g id="row8">
  <image href="cover_02.jpg" x="148" y="2280" width="512" height="512"/>
  <image href="cover_05.jpg" x="644" y="2280" width="512" height="512"/>
</g>
</g>
</g>
<g id="bttm">
  <path fill="#304768" d="M146.5 1310.06c0 28.79 2.99 39.23 8.63 49.76a58.73 58.73 0 0024.42 24.42c10.53 5.63 20.97 8.63 49.76 8.63h411.4c28.79 0 39.23-3 49.76-8.63a58.73 58.73 0 0024.42-24.42c5.63-10.53 8.63-20.97 8.63-49.76v-35.61h-577v35.61z"/>
  <path id="Rectangle-2" fill="#FFF" d="M347.86 1374.05h178.48c1.87 0 3.39 1.67 3.39 3.73s-1.52 3.73-3.39 3.73H347.86c-1.87 0-3.39-1.67-3.39-3.73s1.52-3.73 3.39-3.73z"/>
  <path id="ic_search_tabBar_1_" fill="#FFF" fill-opacity=".65" fill-rule="evenodd" d="M253.31 1336.99a17.27 17.27 0 113.52-3.52l7.58 7.58c.97.99.97 2.55 0 3.54-.97.97-2.51.97-3.47 0l-7.63-7.6zm-10.34-1.5a12.33 12.33 0 10.01-24.67 12.33 12.33 0 00-.01 24.67z" clip-rule="evenodd"/>
  <path id="ic_explore_tabBar_2_" fill="#FFF" fill-opacity=".65" fill-rule="evenodd" d="M643.29 1345.15a4.83 4.83 0 110-9.67 4.83 4.83 0 010 9.67zm0-14.49a4.83 4.83 0 110-9.67 4.83 4.83 0 010 9.67zm0-14.5a4.83 4.83 0 110-9.67 4.83 4.83 0 010 9.67zm-14.49 28.99a4.83 4.83 0 110-9.67 4.83 4.83 0 010 9.67zm0-14.49a4.83 4.83 0 110-9.67 4.83 4.83 0 010 9.67zm0-14.5a4.83 4.83 0 110-9.67 4.83 4.83 0 010 9.67zm-14.52 28.99a4.83 4.83 0 110-9.66 4.82 4.82 0 110 9.66zm0-14.49a4.83 4.83 0 110-9.66 4.83 4.83 0 110 9.66zm0-14.5a4.83 4.83 0 110-9.66 4.83 4.83 0 110 9.66z" clip-rule="evenodd"/>
  <line x1="418.53" x2="418.53" y1="1341.65" y2="1328.65" fill="none" stroke="#FFF" stroke-miterlimit="10" stroke-width="8.68"/>
  <line x1="429.45" x2="429.45" y1="1341.65" y2="1310.53" fill="none" stroke="#FFF" stroke-miterlimit="10" stroke-width="8.68"/>
  <line x1="440.37" x2="440.37" y1="1341.65" y2="1315.45" fill="none" stroke="#FFF" stroke-miterlimit="10" stroke-width="8.68"/>
  <line x1="451.28" x2="451.28" y1="1341.65" y2="1319.13" fill="none" stroke="#FFF" stroke-miterlimit="10" stroke-width="8.68"/>
</g>

<g id="swipe1">
  <circle id="swipe1_circle" cx="480" cy="780" r="24" fill="#fff" opacity="1"/>
  <g id="swipe1_stroke">
    <rect x="440" y="740" width="80" height="80" rx="40" fill="none" stroke="#000" stroke-width="9" opacity=".05"/>
    <rect x="440" y="740" width="80" height="80" rx="40" fill="none" stroke="#000" stroke-width="7" opacity=".05"/>
    <rect x="440" y="740" width="80" height="80" rx="40" fill="none" stroke="#fff" stroke-width="3"/>
  </g>
</g>

<g id="swipe2">
  <circle id="swipe2_circle" cx="480" cy="780" r="24" fill="#fff" opacity="1"/>
  <g id="swipe2_stroke">
    <rect x="440" y="740" width="80" height="80" rx="40" fill="none" stroke="#000" stroke-width="9" opacity=".05"/>
    <rect x="440" y="740" width="80" height="80" rx="40" fill="none" stroke="#000" stroke-width="7" opacity=".05"/>
    <rect x="440" y="740" width="80" height="80" rx="40" fill="none" stroke="#fff" stroke-width="3"/>
  </g>
</g>

<g id="swipe3">
  <circle id="swipe3_circle" cx="480" cy="780" r="24" fill="#fff" opacity="1"/>
  <g id="swipe3_stroke">
    <rect x="440" y="740" width="80" height="80" rx="40" fill="none" stroke="#000" stroke-width="9" opacity=".05"/>
    <rect x="440" y="740" width="80" height="80" rx="40" fill="none" stroke="#000" stroke-width="7" opacity=".05"/>
    <rect x="440" y="740" width="80" height="80" rx="40" fill="none" stroke="#fff" stroke-width="3"/>
  </g>
</g>

<g id="tap1">
  <circle id="tap1_circle" cx="404" cy="659" r="34" fill="#fff" opacity="0"/>
  <g id="tap1_stroke">
    <rect x="364" y="619" width="80" height="80" rx="40" fill="none" stroke="#000" stroke-width="9" opacity=".05"/>
    <rect x="364" y="619" width="80" height="80" rx="40" fill="none" stroke="#000" stroke-width="7" opacity=".05"/>
    <rect x="364" y="619" width="80" height="80" rx="40" fill="none" stroke="#fff" stroke-width="3"/>
  </g>
</g>

<g id="tap2">
  <circle id="tap2_circle" cx="611" cy="943" r="34" fill="#fff" opacity="0"/>
  <g id="tap2_stroke">
    <rect x="571" y="903" width="80" height="80" rx="40" fill="none" stroke="#000" stroke-width="9" opacity=".05"/>
    <rect x="571" y="903" width="80" height="80" rx="40" fill="none" stroke="#000" stroke-width="7" opacity=".05"/>
    <rect x="571" y="903" width="80" height="80" rx="40" fill="none" stroke="#fff" stroke-width="3"/>
  </g>
</g>
</svg>
