<svg xmlns="http://www.w3.org/2000/svg" viewBox="0 0 150 150">
<style>
/* <![CDATA[ */

#left_hand {
  transform: translate(63.2px, 50px) rotate(-120deg) translate(-63.2px, -50px);
  animation: left_hand 5s ease-in-out infinite;
}

@keyframes left_hand {
  0%, 95%, 100% {
    transform: translate(63.2px, 50px) rotate(-120deg) translate(-63.2px, -50px);
  }
  10%, 20%, 80% {
    transform: translate(63.2px, 50px) rotate(0deg) translate(-63.2px, -50px);
  }
  15% {
    transform: translate(63.2px, 50px) rotate(-10deg) translate(-63.2px, -50px);
  }
}

#right_hand {
  transform: translate(86.7px, 50px) rotate(120deg) translate(-86.7px, -50px);
  animation: right_hand 5s ease-in-out infinite;
}

@keyframes right_hand {
  0%, 95%, 100% {
    transform: translate(86.7px, 50px) rotate(120deg) translate(-86.7px, -50px);
  }
  10%, 20%, 80% {
    transform: translate(86.7px, 50px) rotate(0deg) translate(-86.7px, -50px);
  }
  15% {
    transform: translate(86.7px, 50px) rotate(10deg) translate(-86.7px, -50px);
  }
}

#left_part {
opacity: 0;
  transform: translate(50px, 132px) scale(.1) translate(-50px, -132px);
  animation: left_part 2.5s ease-out infinite;
}

@keyframes left_part {
  0%, 5% {
    transform: translate(50px, 132px) scale(.1) translate(-50px, -132px);
  }
  30% {
    transform: translate(50px, 125px) scale(1.02) rotate(-5deg) translate(-50px, -132px);
  }
  100% {
    transform: translate(50px, 132px) scale(.8) rotate(-15deg) translate(-50px, -132px);
  }
  0%, 5%, 100% {
    opacity: 0;
  }
  15%, 75% {
    opacity: 1;
  }
}

#right_part {
  transform: translate(102px, 137px) scale(.1) translate(-102px, -137px);
  animation: right_part 2.5s ease-out infinite;
}

@keyframes right_part {
  0%, 5% {
    transform: translate(102px, 137px) scale(.1) translate(-102px, -137px);
  }
  30% {
    transform: translate(102px, 130px) scale(1.02) rotate(5deg) translate(-102px, -137px);
  }
  100% {
    transform: translate(102px, 137px) scale(.8) rotate(15deg) translate(-102px, -137px);
  }
  0%, 5%, 100% {
    opacity: 0;
  }
  15%, 75% {
    opacity: 1;
  }
}

/* ]]> */
</style>
  <ellipse cx="75.07" cy="20.06" fill="#76BC43" rx="14.8" ry="15"/>
  <path id="left_hand" fill="#76BC43" d="M68.44 59.41a6.28 6.28 0 0 0 2.55-8.05L50.77 7.26c-1.4-3.1-5-4.4-8-2.9-3 1.4-4.5 5.1-3.1 8.2l19.9 44a6.27 6.27 0 0 0 8.87 2.85z"/>
  <path id="right_hand" fill="#76BC43" d="M81.39 59.41a6.28 6.28 0 0 1-2.55-8.05l20.23-44.1c1.4-3.1 5-4.4 8-2.9 3 1.4 4.5 5.1 3.1 8.2l-19.9 44a6.28 6.28 0 0 1-8.88 2.85z"/>
  <path fill="#76BC43" d="M90.67 84.76V47.64c0-6.01-4.87-10.88-10.88-10.88h-9.33a10.88 10.88 0 0 0-10.88 10.88v37.12l-3.4 53.3a7.7 7.7 0 0 0 7.1 8.2h.6c3.9 0 7.2-3.2 7.5-7.3l2.8-40.8h1.6l2.8 40.8c.3 4 3.6 7.3 7.5 7.3h.6a7.8 7.8 0 0 0 7.2-8.2l-3.21-53.3z"/>
  <g id="left_part" fill="#005DA6">
    <path d="M11.1 28.36c1.1-.7 2.2-1.3 3.4-1.8s2.4-1 3.7-1.3c.7-.2 1.4-.3 2.3-.2.9 0 2 .3 2.9 1.1.5.4.8.9 1 1.5s.3 1.2.3 1.7c0 1.1-.4 1.8-.7 2.5-.6 1.3-1.4 2.3-2.1 3.3s-1.4 1.9-1.9 2.7c-.2.4-.4.8-.4.9h-.1s0 .1.1.1c.2.1.6.2 1.1.1.5 0 1-.1 1.6-.2 1.1-.2 2.2-.5 3.4-.8.6-.1 1.2-.2 1.9-.3.7 0 1.4-.1 2.2.3.4.2.8.6 1 1s.3 1 .3 1.4c-.1.8-.4 1.4-.7 2-.6 1.1-1.4 2-2.1 3-.6.9-1.3 1.9-1.3 2.9 0 .2.1.4.2.6.1.2.3.3.5.5.4.2.9.4 1.5.3 1.1-.1 2.2-.5 3.2-1s2-1.2 3-1.9c-.9.8-1.8 1.5-2.8 2.1s-2.1 1.2-3.3 1.4c-.6.1-1.3 0-1.9-.3-.3-.2-.6-.4-.8-.7-.2-.3-.4-.7-.4-1-.1-.7.1-1.4.4-2 .2-.6.5-1.1.8-1.7.6-1 1.3-2 1.7-3 .2-.5.4-1 .4-1.3s-.1-.4-.4-.5c-.2-.1-.7-.1-1.2 0s-1 .2-1.6.4c-1.1.3-2.2.8-3.3 1.1-.6.2-1.2.3-1.9.5-.7.1-1.4.2-2.4-.1-.5-.2-1-.4-1.3-.9-.4-.4-.7-1.1-.7-1.7-.1-1.1.3-1.8.5-2.5.6-1.3 1.2-2.3 1.8-3.3s1.2-2 1.5-2.8c.2-.4.2-.8.2-1 0-.1 0 0 0 0 .1.1 0 0-.3 0s-.7.1-1.1.3c-1.8.6-3.8 1.8-5.4 3.1l-2.8-4.5zM26.4 75.96l6.5 4.7 7.5-2.8-2.4 7.7 4.9 6.4-7.9.1-4.4 6.7-2.6-7.7-7.6-2.2 6.3-4.8zM42 109.46c0-2.1 1.6-3.7 3.7-3.7 2 0 3.7 1.7 3.7 3.7 0 2.1-1.6 3.7-3.7 3.7-2.1.1-3.7-1.6-3.7-3.7zM31 128.86c0-2.1 1.6-3.7 3.7-3.7a3.7 3.7 0 1 1 0 7.4c-2.1.1-3.7-1.6-3.7-3.7zM42 61.56c0-2.1 1.6-3.7 3.7-3.7 2 0 3.7 1.7 3.7 3.7 0 2.1-1.6 3.7-3.7 3.7s-3.7-1.7-3.7-3.7zM16.9 13.56c0-2.1 1.6-3.7 3.7-3.7 2 0 3.7 1.7 3.7 3.7 0 2.1-1.6 3.7-3.7 3.7s-3.7-1.7-3.7-3.7z"/>
  </g>
  <g id="right_part" fill="#005DA6">
    <path d="M129.4 54.56c-1.9-.7-4.2-1.4-6-1.5-.5 0-.9 0-1.2.1s-.4.1-.3.1c0 0 0-.1 0 0s.2.5.4.9c.5.7 1.4 1.5 2.2 2.3s1.8 1.6 2.6 2.7c.4.6.9 1.2 1.2 2.3.1.5 0 1.3-.2 1.8-.3.5-.7.9-1.1 1.2-.8.5-1.6.7-2.2.7-.7.1-1.3.1-1.9.1-1.2 0-2.4-.1-3.5-.2h-1.6c-.5.1-1 .2-1.2.3-.2.2-.3.3-.2.6.1.3.4.8.7 1.2.7.8 1.6 1.6 2.5 2.5.4.4.9.9 1.2 1.4.4.5.8 1.1.9 1.8.1.4 0 .8-.1 1.1-.1.4-.4.6-.6.9-.5.5-1.2.7-1.8.8-1.2.1-2.4-.1-3.6-.4-1.1-.3-2.2-.8-3.3-1.3 1.1.4 2.2.8 3.4 1 1.1.2 2.3.4 3.4.1.5-.1 1-.4 1.3-.7.1-.2.3-.4.3-.6.1-.2.1-.4 0-.6-.2-.9-1.2-1.7-2-2.4-.9-.7-1.8-1.4-2.8-2.3-.4-.5-.9-.9-1.2-1.7-.1-.4-.2-.9-.1-1.4.1-.5.4-.9.7-1.2.7-.6 1.4-.8 2.1-.9.7-.1 1.3-.2 1.9-.2 1.2-.1 2.4-.1 3.5-.2.6 0 1.1-.1 1.6-.2s.9-.3 1-.4l.1-.1s0 .1-.1.1c0-.1-.3-.4-.6-.8-.7-.7-1.6-1.4-2.5-2.1-.9-.7-1.9-1.5-2.9-2.6-.5-.6-1-1.2-1.3-2.2-.2-.5-.2-1.1-.2-1.7.1-.6.3-1.2.6-1.7a4.8 4.8 0 0 1 2.5-1.9c.8-.3 1.6-.4 2.3-.4 1.4-.1 2.7.1 4 .3s2.4.5 3.7.8l-1.6 4.6zM109.7 96.96l5.7 5.8 7.7 1.7-5.6 5.7-1.7 8-5.6-5.8-7.8-1.7 5.6-5.7zM115.2 133.96c0-2.1 1.6-3.7 3.7-3.7 2 0 3.7 1.7 3.7 3.7 0 2.1-1.6 3.7-3.7 3.7-2.1.1-3.7-1.6-3.7-3.7zM124.2 20.66c0-2.1 1.6-3.7 3.7-3.7a3.7 3.7 0 1 1 0 7.4c-2.1.1-3.7-1.6-3.7-3.7zM105.2 50.26c0-2.1 1.6-3.7 3.7-3.7 2 0 3.7 1.7 3.7 3.7 0 2.1-1.6 3.7-3.7 3.7-2.1.1-3.7-1.6-3.7-3.7zM126.2 88.06c0-2.1 1.6-3.7 3.7-3.7 2 0 3.7 1.7 3.7 3.7 0 2.1-1.6 3.7-3.7 3.7s-3.7-1.6-3.7-3.7z"/>
  </g>
</svg>
