<svg xmlns="http://www.w3.org/2000/svg" width="50" height="50" viewBox="0 0 50 50">
  <rect width="50" height="50" fill="#005ea5" rx="10" ry="10"/>
  <path fill="#fff" stroke-width="0" d="M25 15.99a9.97 9.97 0 1 0 0 19.94c.64 0 1.15.51 1.15 1.15s-.51 1.15-1.15 1.15a12.27 12.27 0 1 1 12.27-12.27v1.34a4.42 4.42 0 0 1-8.02 2.53 5.74 5.74 0 1 1-.62-8.33 1.15 1.15 0 0 1 2.12.62v5.18a2.11 2.11 0 0 0 4.22 0v-1.34A9.97 9.97 0 0 0 25 15.99Zm3.45 9.97a3.46 3.46 0 0 0-6.91 0 3.46 3.46 0 0 0 6.91 0Z"/>
</svg>