<svg xmlns="http://www.w3.org/2000/svg" width="30" height="30" viewBox="0 0 30 30">
  <path fill="#fff" fill-rule="evenodd" d="M26.67 0H3.33A3.33 3.33 0 0 0 0 3.33v23.33a3.33 3.33 0 0 0 3.33 3.33h23.33a3.33 3.33 0 0 0 3.33-3.33V3.33A3.33 3.33 0 0 0 26.66 0ZM9.07 25.83H4.6V11.39h4.47v14.44ZM6.81 9.49c-1.46 0-2.65-1.19-2.65-2.67s1.18-2.67 2.65-2.67 2.64 1.19 2.64 2.67-1.18 2.67-2.64 2.67Zm19.02 16.34h-4.45v-7.58c0-2.08-.79-3.24-2.44-3.24-1.79 0-2.73 1.21-2.73 3.24v7.58h-4.29V11.39h4.29v1.95s1.29-2.39 4.36-2.39 5.26 1.87 5.26 5.74v9.15Z"/>
</svg>