<svg xmlns="http://www.w3.org/2000/svg" width="50" height="50" viewBox="0 0 50 50">
  <rect width="50" height="50" fill="#005ea5" rx="10" ry="10"/>
  <path fill="#fff" stroke-width="0" d="m30.74 26.89 5.37 2.3a1.92 1.92 0 0 1 1.12 2.16l-1.15 5.37a1.92 1.92 0 0 1-1.87 1.51c-.29 0-.58 0-.87-.02a21.48 21.48 0 0 1-20.6-21.46c0-.91.63-1.69 1.51-1.87l5.37-1.15c.9-.19 1.8.28 2.16 1.12l2.3 5.37c.34.79.11 1.7-.55 2.24l-1.94 1.59a14.72 14.72 0 0 0 5.33 5.33l1.59-1.95a1.93 1.93 0 0 1 2.24-.55Zm4.18 4.28-4.81-2.06-1.41 1.72a2.3 2.3 0 0 1-2.93.53 17 17 0 0 1-6.16-6.16 2.3 2.3 0 0 1 .53-2.93l1.72-1.41-2.06-4.81-4.75 1.02a19.18 19.18 0 0 0 18.86 18.86l1.03-4.76Z"/>
</svg>