<svg xmlns="http://www.w3.org/2000/svg" width="16" height="16" viewBox="0 0 91.75 91.75">
  <path fill="#fff" stroke-width="0" d="M68.82 55.92v14.73c0 4.55-2.4 8.78-6.33 11.09l-15.86 9.41a4.28 4.28 0 0 1-6.49-3.7V66.9a15.28 15.28 0 0 0-15.28-15.28H4.31a4.3 4.3 0 0 1-3.7-6.49l9.41-15.86a12.91 12.91 0 0 1 11.09-6.33h14.73C50.49-.69 73.26-1.53 86.72.94a5.09 5.09 0 0 1 4.09 4.09c2.47 13.46 1.63 36.23-21.99 50.89ZM5.08 91.72a4.87 4.87 0 0 1-5.05-5.05c.16-6.76 1.36-18.64 7.51-24.76a15.78 15.78 0 0 1 22.31 22.31c-6.13 6.15-18.01 7.35-24.76 7.51Zm9-11.56c2.29-.13 5.59-.66 7.4-2.46 2.04-2.04 2.04-5.38 0-7.42s-5.38-2.04-7.42 0c-1.81 1.81-2.33 5.11-2.45 7.4a2.34 2.34 0 0 0 2.49 2.49l-.02-.02Zm21.39-34.67a23.35 23.35 0 0 1 6.27 4.52 24.46 24.46 0 0 1 4.52 6.27C65.22 50.9 74.34 42.03 78.78 33.7c4.48-8.39 4.89-17.49 3.94-24.67-7.19-.95-16.29-.54-24.67 3.94-8.33 4.44-17.2 13.58-22.58 32.52ZM58.78 25.8a7.18 7.18 0 0 1 10.75-6.21 7.16 7.16 0 1 1-10.75 6.21Z"/>
</svg>