<svg xmlns="http://www.w3.org/2000/svg" width="244" height="89" viewBox="0 0 244 89">
  <g fill="#FFF">
    <path d="M44.08 0C19.77 0 0 19.77 0 44.08s19.77 44.08 44.08 44.08 44.08-19.77 44.08-44.08S68.38 0 44.08 0zm0 86.61a42.54 42.54 0 1 1 0-85.08 42.54 42.54 0 0 1 0 85.08z"/>
    <g>
      <path d="M64.56 39.7c-1.47 0-2.68.5-3.65 1.5a5.43 5.43 0 0 0-1.45 3.93c0 1.65.48 2.98 1.45 4a4.84 4.84 0 0 0 3.65 1.53c1.42 0 2.61-.52 3.59-1.55a5.53 5.53 0 0 0 1.46-3.95 5.5 5.5 0 0 0-1.43-3.91 4.75 4.75 0 0 0-3.62-1.55z"/>
      <path d="M44.08 6.37a37.7 37.7 0 1 0-.01 75.41h.01a37.7 37.7 0 1 0 0-75.41zM30.82 54.44l-3.95-10.57-4.08 10.57h-2.92l-6.69-18.55h4.56l3.73 10.55 4.01-10.55h2.79l3.94 10.44 3.74-10.44h4.58l-6.77 18.55h-2.94zm20.49-1.18c-1.21 1.1-2.84 1.65-4.87 1.65a7.72 7.72 0 0 1-6.48-3.17l2.86-3.12a6.86 6.86 0 0 0 1.92 1.55c.73.4 1.38.59 1.96.59a2.4 2.4 0 0 0 1.49-.44c.38-.3.56-.64.56-1.02 0-.72-.68-1.42-2.03-2.1l-1.57-.79c-3-1.51-4.5-3.41-4.5-5.68 0-1.47.56-2.72 1.69-3.76a6.18 6.18 0 0 1 4.34-1.56 7.59 7.59 0 0 1 6.1 3.07l-2.88 2.88c-1.17-1.16-2.23-1.74-3.19-1.74-.52 0-.93.11-1.23.34a1 1 0 0 0-.16 1.52c.19.21.65.5 1.39.86l1.71.85c1.79.89 3.03 1.79 3.7 2.71.67.92 1.01 2 1.01 3.24a5.35 5.35 0 0 1-1.82 4.12zm14.08 1.65a7.72 7.72 0 0 1-5.72-2.44v7.33l-4.62 1.42V35.89h4.62v2.04a8.94 8.94 0 0 1 2.73-1.9 7.86 7.86 0 0 1 3.14-.63c2.42 0 4.48.91 6.18 2.74 1.69 1.83 2.54 4.18 2.54 7.04 0 2.76-.87 5.07-2.62 6.93a8.3 8.3 0 0 1-6.25 2.8z"/>
    </g>
  </g>
  <g>
    <path fill="#FFF" d="M140.13 19.93a247.63 247.63 0 0 0-13.35 19.7c-3.74.05-7.64.25-11.57.49 3.57-6.01 7.3-11.92 11.18-17.73l-2.81-2.46a268.15 268.15 0 0 0-13.94 20.63c-1.04.1-2.12.25-3.15.34l.99 3.3a224.27 224.27 0 0 0-6.6 11.97l3.25 3.94a369.61 369.61 0 0 1 9.11-16.7c3.79-.44 7.78-.84 11.92-1.08-2.72 4.53-5.3 9.15-7.73 13.84l3.3 3.94c6.06-12.11 15.08-26.99 22.26-37.73l-2.86-2.45zm22.36 28.62c2.86-3.39 4.63-6.94 4.63-9.51 0-1.67-1.04-2.71-2.46-2.71-.59 0-2.07.25-4.97 2.56 1-1.54 2.08-3.02 3.25-4.44l-2.76-2.12a216.87 216.87 0 0 0-6.7 9.23c-2.15 2.84-7.54 8.8-9.01 8.8-.25 0-.4-.15-.4-.44 0-1.63 2.91-6.45 8.23-13.54l-2.51-2.32c-.44.54-.84 1.04-1.23 1.57-.34-.99-1.23-1.53-2.41-1.53-2.56 0-6.3 2.12-9.5 5.46-3.99 4.09-6.01 8.52-6.01 11.87 0 2.02 1.04 3.3 2.66 3.3 1.88 0 4.44-2.36 7.04-5.61a7.9 7.9 0 0 0-.3 2.02c0 1.67.93 2.51 2.36 2.51 1.55 0 3.56-1.32 5.52-3.05a94.52 94.52 0 0 0-5.97 12.31l3.11 1.92c1.83-4.16 3.75-8.28 5.76-12.36v.15c0 1.43 1.08 2.22 2.81 2.22 2.46.01 5.75-2.7 8.86-6.29zM135.5 51.3c-.44 0-.59-.24-.59-.74 0-1.72 2.07-5.71 5.71-9.8 2.16-2.41 4.48-4.14 5.81-4.14.44 0 .74.25.84.59l-.15.19-1.38 1.92c-1.67 2.38-8.66 11.98-10.24 11.98zm17.24.84c-.4 0-.65-.25-.65-.79 0-.4.1-.89.3-1.23.99-1.67 2.22-3.7 3.99-6.3 2.36-3.35 5.76-5.37 6.8-5.37.54 0 .79.19.79.65 0 1.33-2.66 4.97-5.76 8.57-1.88 2.26-4.39 4.47-5.47 4.47zm28.07-10.1c0-1.67-1.04-2.71-2.46-2.71-.59 0-2.07.3-4.97 2.61a52.21 52.21 0 0 1 3.45-4.78L174.12 35c-7.04 9.26-13.69 18.81-17.63 27.63-.49 1.14-.93 2.32-1.38 3.5l3.15 1.97c2.08-4.61 4.31-9.14 6.7-13.6-.05.2-.05.4-.05.59 0 1.43 1.08 2.22 2.81 2.22 2.46 0 5.76-2.71 8.87-6.3 2.65-3.15 4.22-6.55 4.22-8.97zm-8.52 8.08c-1.88 2.27-4.38 4.48-5.46 4.48-.4 0-.65-.25-.65-.79 0-.4.1-.89.3-1.28.89-1.48 2.07-3.35 3.69-5.71 2.37-3.35 5.67-5.37 6.7-5.37.54 0 .79.2.79.65 0 1.23-2.46 4.67-5.37 8.02zm20.14-15.76c2.22-.05 5.12-3.15 5.07-5.57-.05-1.77-1.08-2.46-2.56-2.41-2.22.05-5.07 3.3-5.03 5.57.06 1.72 1.09 2.46 2.52 2.41zm47.13 14.83c.93-3.11 1.92-6.5 3-9.31l-3.25-2.56a116.92 116.92 0 0 1-12.46 15.27l.1-.24c1.63-3.94 3.05-10.34 5.03-15.17l-3.05-3.11a85.42 85.42 0 0 1-5.22 7.43l-.05.06c-2.27 2.96-9.53 12.21-12.76 12.21-.93 0-1.48-.65-1.48-2.07 0-.84.2-1.72.54-2.66 6.06-2.12 12.56-7.19 12.56-10.74 0-1.38-.79-2.41-2.71-2.41-2.51 0-6.2 2.22-9.36 5.61a27.59 27.59 0 0 0-2.9 3.66c-3.35 4.03-7.87 9.09-9.07 9.09-.15 0-.3-.15-.3-.34 0-.15 0-.34.3-.79 1.43-2.22 2.81-3.99 4.14-5.81 2.16-3 5.12-7.04 5.12-8.52 0-1.08-1.08-2.22-1.97-2.22-.54 0-1.23.34-2.32 1.33-1.72 1.67-5.76 6.36-10.05 11.04-.1.1-.19.05-.19 0 1.81-3.36 3.73-6.66 5.76-9.9l-2.51-2.02a68.82 68.82 0 0 0-2.84 4.73c-2.32 3.12-7.58 9.65-9.02 9.65-.3 0-.44-.15-.44-.54 0-.49.4-1.82 1.63-4.38a48.14 48.14 0 0 1 4.44-7.09l-2.41-2.41c-.49.49-1.18 1.28-1.67 1.88-4.63 5.76-6.16 9.65-6.16 12.46 0 2.32 1.28 3.3 2.86 3.3 1.72 0 4.05-1.93 6.26-4.25-.38.77-.74 1.55-1.08 2.34l2.61 1.72c4.14-4.58 9.26-10.39 11.33-12.61.1 0 .15.15.05.3a189.86 189.86 0 0 0-5.71 8.37c-1.53 2.61-1.88 3.94-1.88 4.63 0 1.53.93 2.37 2.22 2.37.93 0 1.92-.54 3.15-1.48a45.27 45.27 0 0 0 5.29-5.02c-.07.46-.12.9-.12 1.32 0 3 1.77 4.68 4.14 4.68 4.97 0 10.81-7.39 15.75-13.75v.01l.09-.12.05-.07c.64-.84 1.48-2.02 1.82-2.56.1 0 .15.15.1.3-1.33 3.79-1.82 6.94-3.45 11.28-.89 2.32-1.48 3.35-2.02 3.35-.4 0-.65-.4-.65-1.38 0-1.08.25-2.16.69-3.64l-3.15 1.23a6.8 6.8 0 0 0-.34 2.16c0 2.71 1.67 3.74 3.35 3.74 2.27 0 5.03-1.92 8.03-4.93a5.14 5.14 0 0 0-.59 2.66c0 3.11 1.48 4.63 3.3 4.63 2.02 0 4.14-1.48 5.47-4.73.44-1.08.84-2.18 1.18-3.3 1.14-.05 2.46-.1 4.04-.1L244 48.8c-1.58.09-3.06.24-4.44.39zm-26.64-5.37c2.46-3.25 5.37-5.81 6.2-5.81.2 0 .3.1.3.34 0 1.82-4.24 6.16-8.42 8.42.54-.98 1.18-2.02 1.92-2.95zm21.13 11.03c-.89 2.41-1.48 2.96-2.07 2.96-.54 0-.89-.59-.89-1.57 0-1.33.54-3 1.63-3.55a6.46 6.46 0 0 1 2.32-.59c-.3.88-.64 1.81-.99 2.75zm3.69-11.67c-.74 2.12-1.33 4.23-1.97 6.5-2.22.34-3.74.74-4.48 1.14-.2.1-.34.19-.49.3 2.16-2.37 4.48-5.22 6.85-8.23.09-.01.14.14.09.29zm-99.86 30.88-5.09 10.38-5.14-10.38h-.21l-1.81 12.65h1.22l1.24-9.11 4.53 9.11h.32l4.48-9.05 1.24 9.05h1.24l-1.82-12.65h-.2zm9.37 0-5.98 12.65h1.41l1.97-4.16h5.45l1.99 4.16h1.36l-5.9-12.65h-.3zm-2.02 7.27 2.16-4.58 2.16 4.58h-4.32zm16.3-.9a3.11 3.11 0 0 0 1.88-3 3.18 3.18 0 0 0-2.54-3.2c-.94-.15-1.9-.21-2.86-.17h-2.52v12.65h1.26v-5.87h.71l4.55 5.87h1.57l-4.55-5.87a6.43 6.43 0 0 0 2.5-.41zm-4.77-.83v-4.3h2.23c.87 0 1.49.07 1.86.22a2 2 0 0 1 .91.75c.46.71.46 1.63 0 2.34-.23.35-.54.61-.95.77-.4.16-1.03.24-1.88.24l-2.17-.02zm17.4-5.54h-1.7l-5.05 4.75v-4.75h-1.29v12.65h1.29v-5.89l5.55 5.89h1.69l-6.55-6.97 6.06-5.68zm2.36 12.65h7.21v-1.24h-5.93V80.5h5.93v-1.24h-5.93V75.3h5.99v-1.24h-7.26l-.01 12.65zm8.19-11.41h2.82v11.41h1.29V75.3h2.82v-1.24h-6.93v1.24zm8.58-1.24h1.26v12.65h-1.26V74.06zm12.86 9.7-8.42-9.7h-.28v12.65h1.3v-9.58l8.35 9.58h.28V74.06h-1.24v9.7zm11.83-1.89h4.03a4.35 4.35 0 0 1-1.6 2.86 5 5 0 0 1-3.3 1.1 6.12 6.12 0 0 1-2.96-.73 5.41 5.41 0 0 1-2.88-4.74 5.29 5.29 0 0 1 2.82-4.63c1.63-.9 3.6-.97 5.29-.19.84.36 1.61.88 2.32 1.58l.98-.93a8.94 8.94 0 0 0-2.77-1.86 7.85 7.85 0 0 0-3.03-.58c-1.32 0-2.51.29-3.56.87a6.56 6.56 0 0 0-1.81 10.02 6.95 6.95 0 0 0 5.56 2.39 6.2 6.2 0 0 0 4.61-1.72 6.34 6.34 0 0 0 1.74-4.66h-5.46l.02 1.22z"/>
  </g>
</svg>
