<svg xmlns="http://www.w3.org/2000/svg" width="200" height="63" viewBox="0 0 280 63">
  <g fill="#005da5">
    <path d="M31.06 0C13.93 0 0 13.93 0 31.06s13.93 31.06 31.06 31.06 31.06-13.93 31.06-31.06S48.18 0 31.06 0Zm0 61.03c-16.56 0-29.98-13.42-29.98-29.97S14.5 1.08 31.06 1.08 61.03 14.5 61.03 31.05 47.61 61.02 31.06 61.02Z"/>
    <path d="M45.49 27.98c-1.03 0-1.89.35-2.57 1.06-.68.7-1.02 1.63-1.02 2.76s.34 2.1 1.02 2.82c.68.72 1.54 1.08 2.57 1.08s1.84-.36 2.53-1.09c.68-.73 1.03-1.66 1.03-2.79s-.34-2.04-1.01-2.76c-.67-.72-1.52-1.08-2.55-1.08Z"/>
    <path d="M31.06 4.49c-14.67 0-26.57 11.9-26.57 26.57s11.9 26.57 26.57 26.57 26.57-11.9 26.57-26.57S45.73 4.49 31.06 4.49Zm-9.34 33.87-2.79-7.45-2.87 7.45h-2.05L9.3 25.29h3.21l2.63 7.44 2.83-7.44h1.96l2.78 7.35 2.63-7.35h3.23L23.8 38.36h-2.08Zm14.44-.83c-.85.78-2 1.17-3.43 1.17-1.91 0-3.43-.74-4.57-2.24l2.02-2.2c.38.45.84.81 1.35 1.09.52.28.98.41 1.38.41.43 0 .78-.1 1.05-.31.26-.21.4-.45.4-.72 0-.5-.48-1-1.43-1.48l-1.11-.55c-2.11-1.07-3.17-2.4-3.17-4 0-1.03.4-1.92 1.2-2.65.8-.73 1.82-1.1 3.06-1.1a5.308 5.308 0 0 1 4.3 2.16l-2.03 2.03c-.83-.82-1.57-1.23-2.25-1.23-.37 0-.66.08-.87.23-.21.16-.31.35-.31.58 0 .18.07.34.2.49.13.15.46.35.98.61l1.2.6c1.27.62 2.13 1.26 2.61 1.91.47.65.71 1.41.71 2.28 0 1.16-.43 2.13-1.28 2.91Zm9.93 1.17c-.75 0-1.45-.13-2.1-.4-.65-.27-1.29-.71-1.93-1.32v5.17l-3.26 1V25.29h3.26v1.44c.59-.59 1.23-1.04 1.92-1.33.69-.3 1.43-.44 2.21-.44 1.71 0 3.16.64 4.35 1.93 1.19 1.29 1.79 2.94 1.79 4.96s-.62 3.57-1.85 4.88-2.7 1.96-4.39 1.96ZM98.75 14.04c-3.02 3.96-6.35 8.92-9.41 13.88-2.64.03-5.38.17-8.16.35 2.67-4.48 5.41-8.82 7.88-12.49l-1.98-1.74c-3.12 4.13-6.63 9.34-9.82 14.54-.73.07-1.49.17-2.22.24l.69 2.33c-1.73 2.95-3.33 5.83-4.65 8.43l2.29 2.78c1.87-3.68 4.1-7.74 6.42-11.77 2.67-.31 5.48-.59 8.4-.76-2.05 3.44-3.92 6.77-5.45 9.75l2.33 2.78c4.27-8.54 10.62-19.02 15.69-26.59l-2.01-1.74ZM114.5 34.21c2.01-2.4 3.26-4.89 3.26-6.7 0-1.18-.73-1.91-1.74-1.91-.42 0-1.46.17-3.51 1.8.76-1.15 1.6-2.33 2.29-3.12l-1.94-1.49c-1.62 2.11-3.25 4.34-4.72 6.5-1.52 2-5.32 6.2-6.35 6.2-.17 0-.28-.1-.28-.31 0-1.15 2.05-4.55 5.8-9.54l-1.77-1.63c-.31.38-.59.73-.87 1.11-.24-.69-.87-1.08-1.7-1.08-1.8 0-4.44 1.49-6.7 3.85-2.81 2.88-4.23 6-4.23 8.36 0 1.42.73 2.33 1.87 2.33 1.32 0 3.12-1.67 4.96-3.96-.14.56-.21.97-.21 1.42 0 1.18.66 1.77 1.67 1.77 1.09 0 2.5-.93 3.89-2.15-1.43 2.57-3.05 5.59-4.2 8.68l2.19 1.35c1.35-3.05 2.88-6.35 4.06-8.71v.1c0 1.01.76 1.56 1.98 1.56 1.74 0 4.06-1.91 6.25-4.44Zm-19.02 1.94c-.31 0-.42-.17-.42-.52 0-1.21 1.46-4.03 4.03-6.91 1.53-1.7 3.16-2.92 4.1-2.92.31 0 .52.17.59.42l-.1.14-.97 1.35c-1.18 1.67-6.11 8.43-7.22 8.43Zm12.15.59c-.28 0-.45-.17-.45-.56 0-.28.07-.62.21-.87.69-1.18 1.56-2.6 2.81-4.44 1.67-2.36 4.06-3.78 4.79-3.78.38 0 .56.14.56.45 0 .94-1.87 3.5-4.06 6.04-1.32 1.6-3.09 3.16-3.85 3.16ZM127.41 29.63c0-1.18-.73-1.91-1.74-1.91-.42 0-1.46.21-3.5 1.84.8-1.22 1.67-2.46 2.43-3.37l-1.91-1.53c-4.96 6.52-9.65 13.26-12.43 19.47-.35.8-.66 1.63-.97 2.46l2.22 1.39c1.53-3.37 3.33-7.05 4.72-9.58-.03.14-.03.28-.03.42 0 1.01.76 1.56 1.98 1.56 1.73 0 4.06-1.91 6.25-4.44 1.87-2.22 2.98-4.62 2.98-6.32Zm-6 5.69c-1.32 1.6-3.09 3.16-3.85 3.16-.28 0-.45-.17-.45-.56 0-.28.07-.62.21-.9a79.08 79.08 0 0 1 2.6-4.03c1.67-2.36 3.99-3.78 4.72-3.78.38 0 .55.14.55.45 0 .87-1.74 3.3-3.78 5.66ZM135.6 24.21c1.56-.04 3.61-2.22 3.57-3.92-.03-1.25-.76-1.74-1.8-1.7-1.56.03-3.57 2.33-3.54 3.92.03 1.21.76 1.74 1.77 1.7ZM168.81 34.66c.66-2.19 1.35-4.58 2.12-6.56l-2.29-1.8c-2.57 3.71-5.83 7.81-8.78 10.76l.07-.17c1.15-2.78 2.15-7.29 3.54-10.69l-2.15-2.19c-.97 1.6-2.43 3.64-3.68 5.24l-.03.04c-1.6 2.09-6.71 8.6-8.99 8.6-.66 0-1.04-.45-1.04-1.46 0-.59.14-1.22.38-1.87 4.27-1.49 8.85-5.07 8.85-7.57 0-.97-.56-1.7-1.91-1.7-1.77 0-4.37 1.56-6.59 3.96-.79.85-1.47 1.72-2.04 2.58-2.36 2.84-5.55 6.41-6.39 6.41-.1 0-.21-.1-.21-.24 0-.1 0-.24.21-.56 1.01-1.56 1.98-2.81 2.92-4.1 1.53-2.12 3.61-4.96 3.61-6 0-.76-.76-1.56-1.39-1.56-.38 0-.87.24-1.63.94-1.21 1.18-4.06 4.48-7.08 7.77-.07.07-.14.03-.14 0 1.25-2.29 2.85-5.1 4.06-6.98l-1.77-1.42c-.48.7-1.21 1.92-2.01 3.33-1.63 2.2-5.34 6.8-6.36 6.8-.21 0-.31-.1-.31-.38 0-.35.28-1.28 1.15-3.09.62-1.28 1.7-3.05 3.12-5l-1.7-1.7c-.35.35-.83.9-1.18 1.32-3.26 4.06-4.34 6.8-4.34 8.78 0 1.63.9 2.33 2.01 2.33 1.21 0 2.85-1.36 4.41-3-.31.63-.57 1.2-.76 1.65l1.84 1.21c2.92-3.23 6.53-7.32 7.98-8.89.07 0 .1.1.04.21-1.25 1.74-2.88 4.1-4.03 5.9-1.08 1.84-1.32 2.78-1.32 3.26 0 1.08.66 1.67 1.56 1.67.66 0 1.35-.38 2.22-1.04 1.08-.81 2.41-2.13 3.73-3.54-.05.32-.08.63-.08.94 0 2.12 1.25 3.3 2.92 3.3 3.5 0 7.62-5.2 11.1-9.68s.07-.09.07-.09c.01-.02.03-.03.04-.05.45-.59 1.04-1.42 1.28-1.8.07 0 .1.1.07.21-.94 2.67-1.28 4.89-2.43 7.95-.62 1.63-1.04 2.36-1.42 2.36-.28 0-.45-.28-.45-.97 0-.76.17-1.53.49-2.57l-2.22.87c-.14.42-.24.94-.24 1.53 0 1.91 1.18 2.64 2.36 2.64 1.6 0 3.54-1.35 5.66-3.47-.31.52-.42 1.18-.42 1.87 0 2.19 1.04 3.26 2.33 3.26 1.42 0 2.92-1.04 3.85-3.33.28-.66.55-1.46.83-2.33.8-.03 1.74-.07 2.85-.07l.87-2.08c-1.11.07-2.15.17-3.12.28Zm-18.78-3.78c1.74-2.29 3.78-4.1 4.37-4.1.14 0 .21.07.21.24 0 1.28-2.99 4.34-5.94 5.94.38-.69.83-1.42 1.35-2.08Zm14.89 7.77c-.62 1.7-1.04 2.08-1.46 2.08-.38 0-.62-.42-.62-1.11 0-.94.38-2.12 1.15-2.5.35-.17.76-.31 1.63-.42-.21.62-.45 1.28-.69 1.94Zm2.6-8.23c-.52 1.49-.94 2.98-1.39 4.58-1.56.24-2.64.52-3.16.8-.14.07-.24.14-.35.21 1.53-1.67 3.16-3.68 4.82-5.8.07 0 .1.1.07.21ZM193.85 25.86l-5.13 10.46-5.18-10.46h-.2l-1.83 12.74h1.23l1.26-9.18 4.55 9.18h.33l4.5-9.11 1.26 9.11h1.25l-1.83-12.74h-.21zM203.29 25.86l-6.02 12.74h1.42l1.99-4.19h5.49l2 4.19h1.38l-5.94-12.74h-.31Zm-2.03 7.32 2.18-4.61 2.17 4.61h-4.35ZM217.67 32.28c.61-.27 1.07-.67 1.4-1.19.33-.53.49-1.14.49-1.83 0-.83-.24-1.53-.71-2.1-.47-.57-1.09-.94-1.85-1.11-.5-.12-1.46-.17-2.88-.17h-2.54v12.74h1.27V32.7h.72l4.58 5.92h1.58l-4.58-5.92c1.07 0 1.9-.14 2.51-.41Zm-4.81-.84v-4.33h2.25c.87 0 1.5.07 1.87.23s.68.4.91.75c.23.35.35.74.35 1.16s-.11.84-.34 1.19c-.23.36-.55.61-.95.77s-1.04.24-1.89.24l-2.19-.02ZM230.39 25.86h-1.72l-5.09 4.78v-4.78h-1.3V38.6h1.3v-5.93l5.59 5.93h1.69l-6.59-7.02 6.12-5.72zM232.77 38.6h7.25v-1.24h-5.98v-5.01h5.98V31.1h-5.98v-3.99h6.03v-1.25h-7.3V38.6zM241.01 27.11h2.84V38.6h1.3V27.11h2.84v-1.25h-6.98v1.25zM249.64 25.86h1.27V38.6h-1.27zM262.6 35.63l-8.48-9.77h-.28V38.6h1.32v-9.64l8.41 9.64h.29V25.86h-1.26v9.77zM274.51 33.73h4.06c-.17 1.18-.7 2.14-1.61 2.88-.91.74-2.01 1.11-3.33 1.11a6.18 6.18 0 0 1-2.98-.74 5.364 5.364 0 0 1-2.13-2.04c-.51-.86-.77-1.77-.77-2.73s.25-1.82.75-2.66c.5-.84 1.2-1.51 2.1-2 .9-.49 1.85-.74 2.85-.74.8 0 1.63.18 2.47.54.85.36 1.62.89 2.33 1.59l.99-.94c-.91-.86-1.84-1.49-2.79-1.87-.95-.39-1.97-.59-3.05-.59-1.33 0-2.53.29-3.59.88-1.06.59-1.89 1.4-2.49 2.44s-.91 2.16-.91 3.37c0 1.62.53 3.05 1.59 4.29 1.37 1.61 3.24 2.41 5.6 2.41 1.94 0 3.49-.58 4.65-1.74 1.16-1.16 1.74-2.72 1.75-4.69h-5.49v1.23Z"/>
  </g>
</svg>
