<svg xmlns="http://www.w3.org/2000/svg" width="363" height="132" viewBox="0 0 363 132">
  <circle cx="65.26" cy="65.8" r="52.33" fill="#FFF"/>
  <g fill="#005DA6">
    <path d="M65.58 0C29.42 0 0 29.42 0 65.58s29.42 65.58 65.58 65.58 65.58-29.42 65.58-65.58S101.74 0 65.58 0zm0 128.86a63.3 63.3 0 1 1 .01-126.6 63.3 63.3 0 0 1-.01 126.6z"/>
    <g>
      <path d="M96.05 59.07c-2.18 0-3.99.74-5.43 2.23a8.06 8.06 0 0 0-2.16 5.84c0 2.45.72 4.44 2.16 5.95a7.2 7.2 0 0 0 5.43 2.27c2.12 0 3.89-.77 5.34-2.31a8.23 8.23 0 0 0 2.17-5.88c0-2.37-.71-4.31-2.13-5.82a7.04 7.04 0 0 0-5.38-2.28z"/>
      <path d="M65.58 9.48a56.1 56.1 0 1 0 0 112.2 56.1 56.1 0 0 0 0-112.2zM45.85 80.99l-5.88-15.73-6.07 15.73h-4.34l-9.95-27.6h6.78l5.55 15.7 5.97-15.7h4.15l5.86 15.53 5.56-15.53h6.82l-10.07 27.6h-4.38zm30.49-1.75c-1.8 1.64-4.22 2.46-7.24 2.46a11.5 11.5 0 0 1-9.64-4.72l4.26-4.64a9.89 9.89 0 0 0 2.85 2.3c1.09.59 2.06.88 2.91.88.91 0 1.65-.22 2.21-.66.56-.44.84-.95.84-1.52 0-1.07-1.01-2.11-3.02-3.12l-2.33-1.17c-4.46-2.25-6.7-5.07-6.7-8.45 0-2.18.84-4.05 2.52-5.59a9.16 9.16 0 0 1 6.46-2.32 11.3 11.3 0 0 1 9.08 4.57l-4.29 4.29c-1.74-1.73-3.32-2.59-4.74-2.59-.78 0-1.39.16-1.83.5-.44.33-.66.74-.66 1.23 0 .37.14.71.42 1.03.28.31.97.74 2.07 1.28l2.54 1.27c2.67 1.32 4.51 2.66 5.5 4.03 1 1.37 1.5 2.98 1.5 4.82a8 8 0 0 1-2.71 6.12zm20.95 2.46c-1.59 0-3.07-.28-4.44-.85a13.29 13.29 0 0 1-4.08-2.78v10.91l-6.88 2.11v-37.7h6.88v3.04a13.17 13.17 0 0 1 4.06-2.82c1.46-.63 3.01-.94 4.67-.94 3.6 0 6.66 1.36 9.19 4.08 2.52 2.72 3.78 6.22 3.78 10.48 0 4.11-1.3 7.55-3.9 10.31a12.33 12.33 0 0 1-9.28 4.16z"/>
    </g>
  </g>
  <g fill="#005DA6">
    <path d="M208.49 29.65a369.9 369.9 0 0 0-19.86 29.31c-5.57.07-11.36.37-17.22.73a605.73 605.73 0 0 1 16.63-26.38l-4.18-3.66a398.68 398.68 0 0 0-20.74 30.7c-1.54.15-3.15.37-4.69.51l1.47 4.91a336.35 336.35 0 0 0-9.82 17.81l4.84 5.86a551.13 551.13 0 0 1 13.56-24.84c5.64-.66 11.58-1.25 17.73-1.61a376.01 376.01 0 0 0-11.5 20.59l4.91 5.86c9.01-18.02 22.43-40.15 33.12-56.13l-4.25-3.66zM241.75 72.23c4.25-5.05 6.89-10.33 6.89-14.15 0-2.49-1.54-4.03-3.66-4.03-.88 0-3.08.37-7.4 3.81a69.83 69.83 0 0 1 4.84-6.6l-4.11-3.15a320.71 320.71 0 0 0-9.97 13.73c-3.2 4.22-11.22 13.09-13.41 13.09-.37 0-.59-.22-.59-.66 0-2.42 4.33-9.6 12.24-20.15l-3.74-3.45c-.66.81-1.25 1.54-1.83 2.34-.51-1.47-1.83-2.27-3.59-2.27-3.81 0-9.38 3.15-14.14 8.13-5.94 6.08-8.94 12.68-8.94 17.66 0 3 1.54 4.91 3.96 4.91 2.79 0 6.6-3.51 10.48-8.35-.3 1.17-.44 2.05-.44 3.01 0 2.49 1.39 3.74 3.51 3.74 2.31 0 5.29-1.96 8.21-4.54-3.01 5.42-6.44 11.81-8.88 18.31l4.62 2.86a479.1 479.1 0 0 1 8.57-18.39v.22c0 2.13 1.61 3.3 4.18 3.3 3.68.01 8.58-4.02 13.2-9.37zm-40.15 4.1c-.66 0-.88-.36-.88-1.1 0-2.56 3.08-8.5 8.5-14.58 3.22-3.59 6.67-6.16 8.65-6.16.66 0 1.1.37 1.25.88l-.22.29-2.05 2.86c-2.51 3.52-12.91 17.81-15.25 17.81zm25.64 1.25c-.59 0-.96-.37-.96-1.17 0-.59.15-1.32.44-1.83 1.47-2.49 3.3-5.5 5.94-9.38 3.51-4.98 8.57-7.99 10.11-7.99.81 0 1.17.29 1.17.96 0 1.98-3.96 7.4-8.57 12.75-2.78 3.36-6.52 6.66-8.13 6.66zM269.01 62.55c0-2.49-1.54-4.03-3.66-4.03-.88 0-3.08.44-7.4 3.88a77.14 77.14 0 0 1 5.13-7.11l-4.03-3.22c-10.48 13.78-20.37 27.99-26.23 41.11-.73 1.69-1.39 3.45-2.05 5.2l4.69 2.93a323.6 323.6 0 0 1 9.97-20.23c-.07.3-.07.59-.07.88 0 2.13 1.61 3.3 4.18 3.3 3.66 0 8.57-4.03 13.19-9.38 3.94-4.68 6.28-9.74 6.28-13.33zm-12.68 12.02c-2.79 3.37-6.52 6.67-8.13 6.67-.59 0-.96-.37-.96-1.17 0-.59.15-1.32.44-1.9 1.32-2.2 3.08-4.98 5.49-8.5 3.52-4.98 8.43-7.99 9.97-7.99.81 0 1.17.3 1.17.96.01 1.82-3.65 6.95-7.98 11.93zM286.3 51.12c3.3-.07 7.62-4.69 7.55-8.28-.07-2.64-1.61-3.66-3.81-3.59-3.3.07-7.55 4.91-7.48 8.28.07 2.57 1.61 3.66 3.74 3.59zM356.42 73.18c1.39-4.62 2.86-9.67 4.47-13.85l-4.84-3.81c-5.42 7.84-12.31 16.49-18.54 22.72l.15-.36c2.42-5.86 4.54-15.39 7.48-22.57l-4.54-4.62a126.19 126.19 0 0 1-7.77 11.06l-.07.09C329.39 66.25 318.58 80 313.78 80c-1.39 0-2.2-.96-2.2-3.08 0-1.25.3-2.56.81-3.96 9.01-3.15 18.68-10.7 18.68-15.98 0-2.05-1.17-3.59-4.03-3.59-3.74 0-9.23 3.3-13.92 8.35a40.77 40.77 0 0 0-4.31 5.45c-4.99 6-11.71 13.53-13.5 13.53-.22 0-.44-.22-.44-.51 0-.22 0-.51.44-1.17 2.13-3.3 4.18-5.94 6.16-8.65 3.22-4.47 7.62-10.48 7.62-12.68 0-1.61-1.61-3.3-2.93-3.3-.81 0-1.83.51-3.45 1.98-2.56 2.49-8.57 9.46-14.95 16.42-.15.15-.29.07-.29 0a259.01 259.01 0 0 1 8.57-14.73l-3.74-3a108.11 108.11 0 0 0-4.23 7.04c-3.45 4.64-11.28 14.36-13.42 14.36-.44 0-.66-.22-.66-.81 0-.73.59-2.71 2.42-6.52a73.2 73.2 0 0 1 6.6-10.55l-3.59-3.59c-.73.73-1.76 1.9-2.49 2.79-6.89 8.57-9.16 14.36-9.16 18.54 0 3.45 1.9 4.91 4.25 4.91 2.56 0 6.02-2.87 9.31-6.33a72.23 72.23 0 0 0-1.61 3.48l3.88 2.56c6.16-6.81 13.78-15.46 16.85-18.76.15 0 .22.22.07.44a284.85 284.85 0 0 0-8.5 12.46c-2.27 3.88-2.79 5.86-2.79 6.89 0 2.27 1.39 3.52 3.3 3.52 1.39 0 2.86-.81 4.69-2.2 2.27-1.71 5.1-4.49 7.87-7.47-.11.68-.18 1.34-.18 1.97 0 4.47 2.64 6.96 6.16 6.96 7.4 0 16.09-10.99 23.44-20.45v.01l.14-.18.08-.11c.95-1.25 2.2-3 2.71-3.81.15 0 .22.22.15.44-1.98 5.64-2.71 10.33-5.13 16.78-1.32 3.45-2.2 4.98-3.01 4.98-.59 0-.96-.59-.96-2.05 0-1.61.37-3.22 1.03-5.42l-4.69 1.83c-.3.88-.51 1.98-.51 3.22 0 4.03 2.49 5.57 4.98 5.57 3.37 0 7.48-2.86 11.95-7.33a7.7 7.7 0 0 0-.88 3.96c0 4.62 2.2 6.89 4.91 6.89 3.01 0 6.16-2.2 8.14-7.03a60.9 60.9 0 0 0 1.76-4.91c1.69-.07 3.66-.15 6.01-.15l1.83-4.4c-2.35.13-4.55.35-6.6.57zm-39.64-7.99c3.66-4.84 7.99-8.65 9.23-8.65.3 0 .44.15.44.51 0 2.71-6.31 9.16-12.53 12.53.81-1.46 1.76-3 2.86-4.39zm31.44 16.42c-1.32 3.59-2.2 4.4-3.08 4.4-.81 0-1.32-.88-1.32-2.34 0-1.98.81-4.47 2.42-5.28a9.67 9.67 0 0 1 3.45-.88c-.45 1.31-.96 2.7-1.47 4.1zm5.49-17.37c-1.1 3.15-1.98 6.3-2.93 9.67-3.3.51-5.57 1.1-6.67 1.69-.3.15-.51.29-.73.44 3.22-3.52 6.67-7.77 10.19-12.24.14 0 .21.22.14.44zM205.14 110.19l-7.58 15.44-7.65-15.44h-.31l-2.69 18.82h1.81l1.85-13.56 6.74 13.56h.48l6.66-13.46 1.85 13.46h1.85l-2.71-18.82zM219.08 110.19l-8.9 18.82h2.1l2.93-6.19h8.11l2.96 6.19h2.03l-8.78-18.82h-.45zM216.07 121l3.22-6.81 3.21 6.81h-6.43zM240.32 119.67a4.6 4.6 0 0 0 2.79-4.47 4.72 4.72 0 0 0-3.78-4.76 22.7 22.7 0 0 0-4.25-.26h-3.75V129h1.88v-8.74h1.06l6.77 8.74h2.33l-6.77-8.74c1.59 0 2.82-.2 3.72-.59zm-7.1-1.24v-6.4h3.32c1.29 0 2.21.11 2.77.33.55.22 1 .59 1.35 1.11a3.18 3.18 0 0 1 0 3.48c-.34.52-.81.91-1.41 1.15-.6.24-1.53.36-2.79.36l-3.24-.03zM259.11 110.19h-2.53l-7.52 7.07v-7.07h-1.92v18.82h1.92v-8.76l8.25 8.76h2.51l-9.75-10.37zM262.63 129.01h10.72v-1.84h-8.83v-7.4h8.83v-1.84h-8.83v-5.9h8.91v-1.84h-10.8zM274.81 112.03H279v16.98h1.92v-16.98h4.2v-1.84h-10.31zM287.57 110.19h1.88v18.82h-1.88zM306.71 124.62l-12.53-14.43h-.41v18.82h1.94v-14.25l12.43 14.25h.42v-18.82h-1.85zM324.31 121.81h6a6.47 6.47 0 0 1-2.38 4.25 7.54 7.54 0 0 1-4.91 1.64 9.03 9.03 0 0 1-4.4-1.09 8.08 8.08 0 0 1-4.29-7.05 7.87 7.87 0 0 1 4.2-6.89 8.76 8.76 0 0 1 7.87-.29c1.25.53 2.4 1.31 3.45 2.35l1.46-1.38a13.34 13.34 0 0 0-4.12-2.77 11.73 11.73 0 0 0-4.51-.87c-1.97 0-3.74.43-5.3 1.3a9.57 9.57 0 0 0-3.68 3.6 9.68 9.68 0 0 0-1.35 4.98c0 2.4.78 4.51 2.34 6.33 2.03 2.37 4.79 3.56 8.27 3.56 2.87 0 5.16-.85 6.86-2.56 1.71-1.71 2.57-4.02 2.59-6.93h-8.12l.02 1.82z"/>
  </g>
</svg>
