<svg xmlns="http://www.w3.org/2000/svg" xmlns:xlink="http://www.w3.org/1999/xlink" width="366" height="792" viewBox="0 0 366 792">
<defs>
<path id="path" transform="translate(0 20)" fill="#1C222A" d="M26.26 557.19c.56-.08 1.12.03 1.67.27.08.04.17-.02.17-.11v-1.78c0-.04-.02-.07-.05-.1a1.86 1.86 0 0 0-1.86-.36.12.12 0 0 0-.08.12v1.84c.01.07.08.13.15.12zM26.26 554.53c.56-.08 1.12.03 1.67.27.08.04.17-.02.17-.11v-1.78c0-.04-.02-.07-.05-.1a1.86 1.86 0 0 0-1.86-.36.12.12 0 0 0-.08.12v1.84c.01.08.08.13.15.12zM28.56 557.78c.4.31.72.58 1 .83.08.07.21.01.21-.09v-1.86a.16.16 0 0 0-.03-.09 5.67 5.67 0 0 0-1.03-.87c-.08-.05-.19.01-.19.11v1.87a.1.1 0 0 0 .04.1zM28.56 555.1c.4.31.72.58 1 .83.08.07.21.01.21-.09v-1.86a.16.16 0 0 0-.03-.09 5.67 5.67 0 0 0-1.03-.87c-.08-.05-.19.01-.19.11V555a.1.1 0 0 0 .04.1zM31.76 562.08c-.5-1.11-1-2.08-1.51-2.64a.11.11 0 0 1-.03-.08v-1.78c0-.12.16-.17.22-.07a19.45 19.45 0 0 1 1.6 2.83l-.05 1.7c0 .12-.18.16-.23.04zM31.76 559.44c-.5-1.11-1-2.08-1.51-2.64a.11.11 0 0 1-.03-.08v-1.78c0-.12.16-.17.22-.07a19.45 19.45 0 0 1 1.6 2.83l-.05 1.7c0 .13-.18.16-.23.04zM26.26 562.51c.56-.08 1.12.03 1.67.27.08.04.17-.02.17-.11v-1.78c0-.04-.02-.07-.05-.1a1.86 1.86 0 0 0-1.86-.36.12.12 0 0 0-.08.12v1.84c.01.07.08.13.15.12zM26.26 559.85c.56-.08 1.12.03 1.67.27.08.04.17-.02.17-.11v-1.78c0-.04-.02-.07-.05-.1a1.86 1.86 0 0 0-1.86-.36.12.12 0 0 0-.08.12v1.84c.01.07.08.13.15.12zM28.56 563.1c.4.31.72.58 1 .83.08.07.21.01.21-.09v-1.86a.16.16 0 0 0-.03-.09 5.67 5.67 0 0 0-1.03-.87c-.08-.05-.19.01-.19.11V563c-.01.04.01.07.04.1zM28.56 560.42c.4.31.72.58 1 .83.08.07.21.01.21-.09v-1.86a.16.16 0 0 0-.03-.09 5.67 5.67 0 0 0-1.03-.87c-.08-.05-.19.01-.19.11v1.87a.1.1 0 0 0 .04.1zM31.76 567.4c-.5-1.11-1-2.08-1.51-2.64a.11.11 0 0 1-.03-.08v-1.78c0-.12.16-.17.22-.07a19.45 19.45 0 0 1 1.6 2.83l-.05 1.7c0 .12-.18.16-.23.04zM31.76 564.76c-.5-1.11-1-2.08-1.51-2.64a.11.11 0 0 1-.03-.08v-1.78c0-.12.16-.17.22-.07a19.45 19.45 0 0 1 1.6 2.83l-.05 1.7c0 .12-.18.16-.23.04zM38.49 557.09a3.06 3.06 0 0 0-1.67.27c-.08.04-.17-.02-.17-.11v-1.78c0-.04.02-.07.05-.1.56-.44 1.17-.6 1.86-.36.05.02.08.06.08.12v1.84c-.01.07-.07.13-.15.12zM38.49 554.43a3.06 3.06 0 0 0-1.67.27c-.08.04-.17-.02-.17-.11v-1.78c0-.04.02-.07.05-.1.56-.44 1.17-.6 1.86-.36.05.02.08.06.08.12v1.84c-.01.07-.07.13-.15.12zM36.19 557.67c-.4.31-.72.58-1 .83-.08.07-.21.01-.21-.09v-1.86l.03-.09c.34-.36.69-.65 1.03-.87.08-.05.19.01.19.11v1.87c.01.05-.01.08-.04.1zM36.19 555c-.4.31-.72.58-1 .83-.08.07-.21.01-.21-.09v-1.86l.03-.09c.34-.36.69-.65 1.03-.87.08-.05.19.01.19.11v1.87c.01.04-.01.07-.04.1zM32.99 561.97c.5-1.11 1-2.08 1.51-2.64a.11.11 0 0 0 .03-.08v-1.78c0-.12-.16-.17-.22-.07-.53.75-1.06 1.67-1.59 2.77l-.01.06.05 1.7c0 .13.18.17.23.04zM32.99 559.34c.5-1.11 1-2.08 1.51-2.64a.11.11 0 0 0 .03-.08v-1.78c0-.12-.16-.17-.22-.07-.53.75-1.06 1.67-1.59 2.77l-.01.06.05 1.7c0 .12.18.16.23.04zM38.49 562.4a3.06 3.06 0 0 0-1.67.27c-.08.04-.17-.02-.17-.11v-1.78c0-.04.02-.07.05-.1.56-.44 1.17-.6 1.86-.36.05.02.08.06.08.12v1.84c-.01.08-.07.13-.15.12zM38.49 559.74a3.06 3.06 0 0 0-1.67.27c-.08.04-.17-.02-.17-.11v-1.78c0-.04.02-.07.05-.1.56-.44 1.17-.6 1.86-.36.05.02.08.06.08.12v1.84c-.01.08-.07.13-.15.12zM36.19 562.99c-.4.31-.72.58-1 .83-.08.07-.21.01-.21-.09v-1.86l.03-.09c.34-.36.69-.65 1.03-.87.08-.05.19.01.19.11v1.87a.1.1 0 0 1-.04.1zM36.19 560.31c-.4.31-.72.58-1 .83-.08.07-.21.01-.21-.09v-1.86l.03-.09c.34-.36.69-.65 1.03-.87.08-.05.19.01.19.11v1.87a.1.1 0 0 1-.04.1zM32.99 567.29c.5-1.11 1-2.08 1.51-2.64a.11.11 0 0 0 .03-.08v-1.78c0-.12-.16-.17-.22-.07-.53.75-1.06 1.67-1.59 2.77l-.01.06.05 1.7c0 .13.18.16.23.04zM32.99 564.65c.5-1.11 1-2.08 1.51-2.64a.11.11 0 0 0 .03-.08v-1.78c0-.12-.16-.17-.22-.07-.53.75-1.06 1.67-1.59 2.77l-.01.06.05 1.7c0 .13.18.16.23.04zM26.26 546.41c.56-.08 1.12.03 1.67.27.08.04.17-.02.17-.11v-1.78c0-.04-.02-.07-.05-.1a1.86 1.86 0 0 0-1.86-.36.12.12 0 0 0-.08.12v1.84c.01.07.08.13.15.12zM26.26 543.75c.56-.08 1.12.03 1.67.27.08.04.17-.02.17-.11v-1.78c0-.04-.02-.07-.05-.1a1.86 1.86 0 0 0-1.86-.36.12.12 0 0 0-.08.12v1.84c.01.07.08.13.15.12zM28.56 547c.4.31.72.58 1 .83.08.07.21.01.21-.09v-1.86a.16.16 0 0 0-.03-.09 5.67 5.67 0 0 0-1.03-.87c-.08-.05-.19.01-.19.11v1.87c-.01.04.01.07.04.1zM28.56 544.32c.4.31.72.58 1 .83.08.07.21.01.21-.09v-1.86a.16.16 0 0 0-.03-.09 5.67 5.67 0 0 0-1.03-.87c-.08-.05-.19.01-.19.11v1.87a.1.1 0 0 0 .04.1zM31.76 551.3c-.5-1.11-1-2.08-1.51-2.64a.11.11 0 0 1-.03-.08v-1.78c0-.12.16-.17.22-.07a19.45 19.45 0 0 1 1.6 2.83l-.05 1.7c0 .12-.18.16-.23.04zM31.76 548.66c-.5-1.11-1-2.08-1.51-2.64a.11.11 0 0 1-.03-.08v-1.78c0-.12.16-.17.22-.07a19.45 19.45 0 0 1 1.6 2.83l-.05 1.7c0 .12-.18.16-.23.04zM26.26 551.72c.56-.08 1.12.03 1.67.27.08.04.17-.02.17-.11v-1.78c0-.04-.02-.07-.05-.1a1.86 1.86 0 0 0-1.86-.36.12.12 0 0 0-.08.12v1.84c.01.08.08.14.15.12zM26.26 549.07c.56-.08 1.12.03 1.67.27.08.04.17-.02.17-.11v-1.78c0-.04-.02-.07-.05-.1a1.86 1.86 0 0 0-1.86-.36.12.12 0 0 0-.08.12v1.84c.01.07.08.13.15.12zM28.56 552.31c.4.31.72.58 1 .83.08.07.21.01.21-.09v-1.86a.16.16 0 0 0-.03-.09 5.67 5.67 0 0 0-1.03-.87c-.08-.05-.19.01-.19.11v1.87a.1.1 0 0 0 .04.1zM28.56 549.64c.4.31.72.58 1 .83.08.07.21.01.21-.09v-1.86a.16.16 0 0 0-.03-.09 5.67 5.67 0 0 0-1.03-.87c-.08-.05-.19.01-.19.11v1.87c-.01.04.01.07.04.1zM31.76 556.61c-.5-1.11-1-2.08-1.51-2.64a.11.11 0 0 1-.03-.08v-1.78c0-.12.16-.17.22-.07a19.45 19.45 0 0 1 1.6 2.83l-.05 1.7c0 .13-.18.16-.23.04zM31.76 553.98c-.5-1.11-1-2.08-1.51-2.64a.11.11 0 0 1-.03-.08v-1.78c0-.12.16-.17.22-.07a19.45 19.45 0 0 1 1.6 2.83l-.05 1.7c0 .12-.18.16-.23.04zM38.49 546.3a3.06 3.06 0 0 0-1.67.27c-.08.04-.17-.02-.17-.11v-1.78c0-.04.02-.07.05-.1.56-.44 1.17-.6 1.86-.36.05.02.08.06.08.12v1.84c-.01.08-.07.13-.15.12zM38.49 543.65a3.06 3.06 0 0 0-1.67.27c-.08.04-.17-.02-.17-.11v-1.78c0-.04.02-.07.05-.1.56-.44 1.17-.6 1.86-.36.05.02.08.06.08.12v1.84c-.01.07-.07.13-.15.12zM36.19 546.89c-.4.31-.72.58-1 .83-.08.07-.21.01-.21-.09v-1.86l.03-.09c.34-.36.69-.65 1.03-.87.08-.05.19.01.19.11v1.87a.1.1 0 0 1-.04.1zM36.19 544.22c-.4.31-.72.58-1 .83-.08.07-.21.01-.21-.09v-1.86l.03-.09c.34-.36.69-.65 1.03-.87.08-.05.19.01.19.11v1.87c.01.04-.01.07-.04.1zM32.99 551.19c.5-1.11 1-2.08 1.51-2.64a.11.11 0 0 0 .03-.08v-1.78c0-.12-.16-.17-.22-.07-.53.75-1.06 1.67-1.59 2.77l-.01.06.05 1.7c0 .13.18.16.23.04zM32.99 548.56c.5-1.11 1-2.08 1.51-2.64a.11.11 0 0 0 .03-.08v-1.78c0-.12-.16-.17-.22-.07-.53.75-1.06 1.67-1.59 2.77l-.01.06.05 1.7c0 .12.18.16.23.04zM38.49 551.62a3.06 3.06 0 0 0-1.67.27c-.08.04-.17-.02-.17-.11V550c0-.04.02-.07.05-.1.56-.44 1.17-.6 1.86-.36.05.02.08.06.08.12v1.84c-.01.07-.07.13-.15.12zM38.49 548.96a3.06 3.06 0 0 0-1.67.27c-.08.04-.17-.02-.17-.11v-1.78c0-.04.02-.07.05-.1.56-.44 1.17-.6 1.86-.36.05.02.08.06.08.12v1.84c-.01.08-.07.13-.15.12zM36.19 552.21c-.4.31-.72.58-1 .83-.08.07-.21.01-.21-.09v-1.86l.03-.09c.34-.36.69-.65 1.03-.87.08-.05.19.01.19.11v1.87a.1.1 0 0 1-.04.1zM36.19 549.53c-.4.31-.72.58-1 .83-.08.07-.21.01-.21-.09v-1.86l.03-.09c.34-.36.69-.65 1.03-.87.08-.05.19.01.19.11v1.87a.1.1 0 0 1-.04.1zM32.99 556.51c.5-1.11 1-2.08 1.51-2.64a.11.11 0 0 0 .03-.08V552c0-.12-.16-.17-.22-.07-.53.75-1.06 1.67-1.59 2.77l-.01.06.05 1.7c0 .13.18.17.23.05zM32.99 553.87c.5-1.11 1-2.08 1.51-2.64a.11.11 0 0 0 .03-.08v-1.78c0-.12-.16-.17-.22-.07-.53.75-1.06 1.67-1.59 2.77l-.01.06.05 1.7c0 .13.18.16.23.04zM26.26 578.52c.56-.08 1.12.03 1.67.27.08.04.17-.02.17-.11v-1.78c0-.04-.02-.07-.05-.1a1.86 1.86 0 0 0-1.86-.36.12.12 0 0 0-.08.12v1.84c.01.07.08.13.15.12zM26.26 575.86c.56-.08 1.12.03 1.67.27.08.04.17-.02.17-.11v-1.78c0-.04-.02-.07-.05-.1a1.86 1.86 0 0 0-1.86-.36.12.12 0 0 0-.08.12v1.84c.01.08.08.13.15.12zM28.56 579.11c.4.31.72.58 1 .83.08.07.21.01.21-.09v-1.86a.16.16 0 0 0-.03-.09 5.67 5.67 0 0 0-1.03-.87c-.08-.05-.19.01-.19.11v1.87a.1.1 0 0 0 .04.1zM28.56 576.43c.4.31.72.58 1 .83.08.07.21.01.21-.09v-1.86a.16.16 0 0 0-.03-.09 5.67 5.67 0 0 0-1.03-.87c-.08-.05-.19.01-.19.11v1.87a.1.1 0 0 0 .04.1zM31.76 583.41c-.5-1.11-1-2.08-1.51-2.64a.11.11 0 0 1-.03-.08v-1.78c0-.12.16-.17.22-.07a19.45 19.45 0 0 1 1.6 2.83l-.05 1.7c0 .12-.18.16-.23.04zM31.76 580.77c-.5-1.11-1-2.08-1.51-2.64a.11.11 0 0 1-.03-.08v-1.78c0-.12.16-.17.22-.07a19.45 19.45 0 0 1 1.6 2.83l-.05 1.7c0 .13-.18.16-.23.04zM26.26 583.84c.56-.08 1.12.03 1.67.27.08.04.17-.02.17-.11v-1.78c0-.04-.02-.07-.05-.1a1.86 1.86 0 0 0-1.86-.36.12.12 0 0 0-.08.12v1.84c.01.07.08.13.15.12zM26.26 581.18c.56-.08 1.12.03 1.67.27.08.04.17-.02.17-.11v-1.78c0-.04-.02-.07-.05-.1a1.86 1.86 0 0 0-1.86-.36.12.12 0 0 0-.08.12v1.84c.01.07.08.13.15.12zM28.56 584.43c.4.31.72.58 1 .83.08.07.21.01.21-.09v-1.86a.16.16 0 0 0-.03-.09 5.67 5.67 0 0 0-1.03-.87c-.08-.05-.19.01-.19.11v1.87c-.01.04.01.07.04.1zM28.56 581.75c.4.31.72.58 1 .83.08.07.21.01.21-.09v-1.86a.16.16 0 0 0-.03-.09 5.67 5.67 0 0 0-1.03-.87c-.08-.05-.19.01-.19.11v1.87c-.01.04.01.07.04.1zM31.76 588.73c-.5-1.11-1-2.08-1.51-2.64a.11.11 0 0 1-.03-.08v-1.78c0-.12.16-.17.22-.07a19.45 19.45 0 0 1 1.6 2.83l-.05 1.7c0 .12-.18.16-.23.04zM31.76 586.09c-.5-1.11-1-2.08-1.51-2.64a.11.11 0 0 1-.03-.08v-1.78c0-.12.16-.17.22-.07a19.45 19.45 0 0 1 1.6 2.83l-.05 1.7c0 .12-.18.16-.23.04zM38.49 578.42a3.06 3.06 0 0 0-1.67.27c-.08.04-.17-.02-.17-.11v-1.78c0-.04.02-.07.05-.1.56-.44 1.17-.6 1.86-.36.05.02.08.06.08.12v1.84c-.01.07-.07.13-.15.12zM38.49 575.76a3.06 3.06 0 0 0-1.67.27c-.08.04-.17-.02-.17-.11v-1.78c0-.04.02-.07.05-.1.56-.44 1.17-.6 1.86-.36.05.02.08.06.08.12v1.84c-.01.07-.07.13-.15.12zM36.19 579c-.4.31-.72.58-1 .83-.08.07-.21.01-.21-.09v-1.86l.03-.09c.34-.36.69-.65 1.03-.87.08-.05.19.01.19.11v1.87c.01.05-.01.08-.04.1zM36.19 576.33c-.4.31-.72.58-1 .83-.08.07-.21.01-.21-.09v-1.86l.03-.09c.34-.36.69-.65 1.03-.87.08-.05.19.01.19.11v1.87c.01.04-.01.07-.04.1zM32.99 583.3c.5-1.11 1-2.08 1.51-2.64a.11.11 0 0 0 .03-.08v-1.78c0-.12-.16-.17-.22-.07-.53.75-1.06 1.67-1.59 2.77l-.01.06.05 1.7c0 .13.18.17.23.04zM32.99 580.67c.5-1.11 1-2.08 1.51-2.64a.11.11 0 0 0 .03-.08v-1.78c0-.12-.16-.17-.22-.07-.53.75-1.06 1.67-1.59 2.77l-.01.06.05 1.7c0 .12.18.16.23.04zM38.49 583.73a3.06 3.06 0 0 0-1.67.27c-.08.04-.17-.02-.17-.11v-1.78c0-.04.02-.07.05-.1.56-.44 1.17-.6 1.86-.36.05.02.08.06.08.12v1.84c-.01.08-.07.13-.15.12zM38.49 581.07a3.06 3.06 0 0 0-1.67.27c-.08.04-.17-.02-.17-.11v-1.78c0-.04.02-.07.05-.1.56-.44 1.17-.6 1.86-.36.05.02.08.06.08.12v1.84c-.01.08-.07.13-.15.12zM36.19 584.32c-.4.31-.72.58-1 .83-.08.07-.21.01-.21-.09v-1.86l.03-.09c.34-.36.69-.65 1.03-.87.08-.05.19.01.19.11v1.87a.1.1 0 0 1-.04.1zM36.19 581.64c-.4.31-.72.58-1 .83-.08.07-.21.01-.21-.09v-1.86l.03-.09c.34-.36.69-.65 1.03-.87.08-.05.19.01.19.11v1.87a.1.1 0 0 1-.04.1zM32.99 588.62c.5-1.11 1-2.08 1.51-2.64a.11.11 0 0 0 .03-.08v-1.78c0-.12-.16-.17-.22-.07-.53.75-1.06 1.67-1.59 2.77l-.01.06.05 1.7c0 .13.18.16.23.04zM32.99 585.98c.5-1.11 1-2.08 1.51-2.64a.11.11 0 0 0 .03-.08v-1.78c0-.12-.16-.17-.22-.07-.53.75-1.06 1.67-1.59 2.77l-.01.06.05 1.7c0 .13.18.16.23.04zM26.26 567.91c.56-.08 1.12.03 1.67.27.08.04.17-.02.17-.11v-1.78c0-.04-.02-.07-.05-.1a1.86 1.86 0 0 0-1.86-.36.12.12 0 0 0-.08.12v1.84c.01.07.08.13.15.12zM26.26 565.25c.56-.08 1.12.03 1.67.27.08.04.17-.02.17-.11v-1.78c0-.04-.02-.07-.05-.1a1.86 1.86 0 0 0-1.86-.36.12.12 0 0 0-.08.12v1.84c.01.07.08.13.15.12zM28.56 568.5c.4.31.72.58 1 .83.08.07.21.01.21-.09v-1.86a.16.16 0 0 0-.03-.09 5.67 5.67 0 0 0-1.03-.87c-.08-.05-.19.01-.19.11v1.87c-.01.04.01.07.04.1zM28.56 565.82c.4.31.72.58 1 .83.08.07.21.01.21-.09v-1.86a.16.16 0 0 0-.03-.09 5.67 5.67 0 0 0-1.03-.87c-.08-.05-.19.01-.19.11v1.87a.1.1 0 0 0 .04.1zM31.76 572.8c-.5-1.11-1-2.08-1.51-2.64a.11.11 0 0 1-.03-.08v-1.78c0-.12.16-.17.22-.07a19.45 19.45 0 0 1 1.6 2.83l-.05 1.7c0 .12-.18.16-.23.04zM31.76 570.16c-.5-1.11-1-2.08-1.51-2.64a.11.11 0 0 1-.03-.08v-1.78c0-.12.16-.17.22-.07a19.45 19.45 0 0 1 1.6 2.83l-.05 1.7c0 .13-.18.16-.23.04zM26.26 573.23c.56-.08 1.12.03 1.67.27.08.04.17-.02.17-.11v-1.78c0-.04-.02-.07-.05-.1a1.86 1.86 0 0 0-1.86-.36.12.12 0 0 0-.08.12v1.84c.01.07.08.13.15.12zM26.26 570.57c.56-.08 1.12.03 1.67.27.08.04.17-.02.17-.11v-1.78c0-.04-.02-.07-.05-.1a1.86 1.86 0 0 0-1.86-.36.12.12 0 0 0-.08.12v1.84c.01.07.08.13.15.12zM28.56 573.81c.4.31.72.58 1 .83.08.07.21.01.21-.09v-1.86a.16.16 0 0 0-.03-.09 5.67 5.67 0 0 0-1.03-.87c-.08-.05-.19.01-.19.11v1.87a.1.1 0 0 0 .04.1zM28.56 571.14c.4.31.72.58 1 .83.08.07.21.01.21-.09v-1.86a.16.16 0 0 0-.03-.09 5.67 5.67 0 0 0-1.03-.87c-.08-.05-.19.01-.19.11v1.87c-.01.04.01.07.04.1zM31.76 578.11c-.5-1.11-1-2.08-1.51-2.64a.11.11 0 0 1-.03-.08v-1.78c0-.12.16-.17.22-.07a19.45 19.45 0 0 1 1.6 2.83l-.05 1.7c0 .13-.18.16-.23.04zM31.76 575.48c-.5-1.11-1-2.08-1.51-2.64a.11.11 0 0 1-.03-.08v-1.78c0-.12.16-.17.22-.07a19.45 19.45 0 0 1 1.6 2.83l-.05 1.7c0 .12-.18.16-.23.04zM38.49 567.8a3.06 3.06 0 0 0-1.67.27c-.08.04-.17-.02-.17-.11v-1.78c0-.04.02-.07.05-.1.56-.44 1.17-.6 1.86-.36.05.02.08.06.08.12v1.84c-.01.08-.07.14-.15.12zM38.49 565.15a3.06 3.06 0 0 0-1.67.27c-.08.04-.17-.02-.17-.11v-1.78c0-.04.02-.07.05-.1.56-.44 1.17-.6 1.86-.36.05.02.08.06.08.12v1.84c-.01.07-.07.13-.15.12zM36.19 568.39c-.4.31-.72.58-1 .83-.08.07-.21.01-.21-.09v-1.86l.03-.09c.34-.36.69-.65 1.03-.87.08-.05.19.01.19.11v1.87a.1.1 0 0 1-.04.1zM36.19 565.72c-.4.31-.72.58-1 .83-.08.07-.21.01-.21-.09v-1.86l.03-.09c.34-.36.69-.65 1.03-.87.08-.05.19.01.19.11v1.87c.01.04-.01.07-.04.1zM32.99 572.69c.5-1.11 1-2.08 1.51-2.64a.11.11 0 0 0 .03-.08v-1.78c0-.12-.16-.17-.22-.07-.53.75-1.06 1.67-1.59 2.77l-.01.06.05 1.7c0 .13.18.16.23.04zM32.99 570.06c.5-1.11 1-2.08 1.51-2.64a.11.11 0 0 0 .03-.08v-1.78c0-.12-.16-.17-.22-.07-.53.75-1.06 1.67-1.59 2.77l-.01.06.05 1.7c0 .12.18.16.23.04zM38.49 573.12a3.06 3.06 0 0 0-1.67.27c-.08.04-.17-.02-.17-.11v-1.78c0-.04.02-.07.05-.1.56-.44 1.17-.6 1.86-.36.05.02.08.06.08.12V573c-.01.07-.07.13-.15.12zM38.49 570.46a3.06 3.06 0 0 0-1.67.27c-.08.04-.17-.02-.17-.11v-1.78c0-.04.02-.07.05-.1.56-.44 1.17-.6 1.86-.36.05.02.08.06.08.12v1.84c-.01.08-.07.13-.15.12zM36.19 573.71c-.4.31-.72.58-1 .83-.08.07-.21.01-.21-.09v-1.86l.03-.09c.34-.36.69-.65 1.03-.87.08-.05.19.01.19.11v1.87a.1.1 0 0 1-.04.1zM36.19 571.03c-.4.31-.72.58-1 .83-.08.07-.21.01-.21-.09v-1.86l.03-.09c.34-.36.69-.65 1.03-.87.08-.05.19.01.19.11v1.87a.1.1 0 0 1-.04.1zM32.99 578.01c.5-1.11 1-2.08 1.51-2.64a.11.11 0 0 0 .03-.08v-1.78c0-.12-.16-.17-.22-.07-.53.75-1.06 1.67-1.59 2.77l-.01.06.05 1.7c0 .12.18.16.23.04zM32.99 575.37c.5-1.11 1-2.08 1.51-2.64a.11.11 0 0 0 .03-.08v-1.78c0-.12-.16-.17-.22-.07-.53.75-1.06 1.67-1.59 2.77l-.01.06.05 1.7c0 .13.18.16.23.04zM26.26 599.89c.56-.08 1.12.03 1.67.27.08.04.17-.02.17-.11v-1.78c0-.04-.02-.07-.05-.1a1.86 1.86 0 0 0-1.86-.36.12.12 0 0 0-.08.12v1.84c.01.07.08.13.15.12zM26.26 597.23c.56-.08 1.12.03 1.67.27.08.04.17-.02.17-.11v-1.78c0-.04-.02-.07-.05-.1a1.86 1.86 0 0 0-1.86-.36.12.12 0 0 0-.08.12v1.84c.01.08.08.13.15.12zM28.56 600.48c.4.31.72.58 1 .83.08.07.21.01.21-.09v-1.86a.16.16 0 0 0-.03-.09 5.67 5.67 0 0 0-1.03-.87c-.08-.05-.19.01-.19.11v1.87a.1.1 0 0 0 .04.1zM28.56 597.8c.4.31.72.58 1 .83.08.07.21.01.21-.09v-1.86a.16.16 0 0 0-.03-.09 5.67 5.67 0 0 0-1.03-.87c-.08-.05-.19.01-.19.11v1.87a.1.1 0 0 0 .04.1zM31.76 604.78c-.5-1.11-1-2.08-1.51-2.64a.11.11 0 0 1-.03-.08v-1.78c0-.12.16-.17.22-.07a19.45 19.45 0 0 1 1.6 2.83l-.05 1.7c0 .12-.18.16-.23.04zM31.76 602.14c-.5-1.11-1-2.08-1.51-2.64a.11.11 0 0 1-.03-.08v-1.78c0-.12.16-.17.22-.07a19.45 19.45 0 0 1 1.6 2.83l-.04 1.7c-.01.13-.19.16-.24.04zM26.26 605.21c.56-.08 1.12.03 1.67.27.08.04.17-.02.17-.11v-1.78c0-.04-.02-.07-.05-.1a1.86 1.86 0 0 0-1.86-.36.12.12 0 0 0-.08.12v1.84c.01.07.08.13.15.12zM26.26 602.55c.56-.08 1.12.03 1.67.27.08.04.17-.02.17-.11v-1.78c0-.04-.02-.07-.05-.1a1.86 1.86 0 0 0-1.86-.36.12.12 0 0 0-.08.12v1.84c.01.07.08.13.15.12zM28.56 605.8c.4.31.72.58 1 .83.08.07.21.01.21-.09v-1.86a.16.16 0 0 0-.03-.09 5.67 5.67 0 0 0-1.03-.87c-.08-.05-.19.01-.19.11v1.87c-.01.04.01.07.04.1zM28.56 603.12c.4.31.72.58 1 .83.08.07.21.01.21-.09V602a.16.16 0 0 0-.03-.09 5.67 5.67 0 0 0-1.03-.87c-.08-.05-.19.01-.19.11v1.87a.1.1 0 0 0 .04.1zM31.76 610.1c-.5-1.11-1-2.08-1.51-2.64a.11.11 0 0 1-.03-.08v-1.78c0-.12.16-.17.22-.07a19.45 19.45 0 0 1 1.6 2.83l-.05 1.7c0 .12-.18.16-.23.04zM31.76 607.46c-.5-1.11-1-2.08-1.51-2.64a.11.11 0 0 1-.03-.08v-1.78c0-.12.16-.17.22-.07a19.45 19.45 0 0 1 1.6 2.83l-.05 1.7c0 .12-.18.16-.23.04zM38.49 599.79a3.06 3.06 0 0 0-1.67.27c-.08.04-.17-.02-.17-.11v-1.78c0-.04.02-.07.05-.1.56-.44 1.17-.6 1.86-.36.05.02.08.06.08.12v1.84c-.01.07-.07.13-.15.12zM38.49 597.13a3.06 3.06 0 0 0-1.67.27c-.08.04-.17-.02-.17-.11v-1.78c0-.04.02-.07.05-.1.56-.44 1.17-.6 1.86-.36.05.02.08.06.08.12v1.84c-.01.07-.07.13-.15.12zM36.19 600.38c-.4.31-.72.58-1 .83-.08.07-.21.01-.21-.09v-1.86l.03-.09c.34-.36.69-.65 1.03-.87.08-.05.19.01.19.11v1.87c.01.04-.01.07-.04.1zM36.19 597.7c-.4.31-.72.58-1 .83-.08.07-.21.01-.21-.09v-1.86l.03-.09c.34-.36.69-.65 1.03-.87.08-.05.19.01.19.11v1.87a.1.1 0 0 1-.04.1zM32.99 604.68c.5-1.11 1-2.08 1.51-2.64a.11.11 0 0 0 .03-.08v-1.78c0-.12-.16-.17-.22-.07-.53.75-1.06 1.67-1.59 2.77l-.01.06.05 1.7c0 .12.18.16.23.04zM32.99 602.04c.5-1.11 1-2.08 1.51-2.64a.11.11 0 0 0 .03-.08v-1.78c0-.12-.16-.17-.22-.07-.53.75-1.06 1.67-1.59 2.77l-.01.06.05 1.7c0 .12.18.16.23.04zM38.49 605.1a3.06 3.06 0 0 0-1.67.27c-.08.04-.17-.02-.17-.11v-1.78c0-.04.02-.07.05-.1.56-.44 1.17-.6 1.86-.36.05.02.08.06.08.12v1.84c-.01.08-.07.13-.15.12zM38.49 602.45a3.06 3.06 0 0 0-1.67.27c-.08.04-.17-.02-.17-.11v-1.78c0-.04.02-.07.05-.1.56-.44 1.17-.6 1.86-.36.05.02.08.06.08.12v1.84c-.01.07-.07.13-.15.12zM36.19 605.69c-.4.31-.72.58-1 .83-.08.07-.21.01-.21-.09v-1.86l.03-.09c.34-.36.69-.65 1.03-.87.08-.05.19.01.19.11v1.87a.1.1 0 0 1-.04.1zM36.19 603.02c-.4.31-.72.58-1 .83-.08.07-.21.01-.21-.09v-1.86l.03-.09c.34-.36.69-.65 1.03-.87.08-.05.19.01.19.11v1.87c.01.04-.01.07-.04.1zM32.99 609.99c.5-1.11 1-2.08 1.51-2.64a.11.11 0 0 0 .03-.08v-1.78c0-.12-.16-.17-.22-.07-.53.75-1.06 1.67-1.59 2.77l-.01.06.05 1.7c0 .13.18.16.23.04zM32.99 607.36c.5-1.11 1-2.08 1.51-2.64a.11.11 0 0 0 .03-.08v-1.78c0-.12-.16-.17-.22-.07-.53.75-1.06 1.67-1.59 2.77l-.01.06.05 1.7c0 .12.18.16.23.04zM26.26 589.11c.56-.08 1.12.03 1.67.27.08.04.17-.02.17-.11v-1.78c0-.04-.02-.07-.05-.1a1.86 1.86 0 0 0-1.86-.36.12.12 0 0 0-.08.12v1.84c.01.07.08.13.15.12zM26.26 586.45c.56-.08 1.12.03 1.67.27.08.04.17-.02.17-.11v-1.78c0-.04-.02-.07-.05-.1a1.86 1.86 0 0 0-1.86-.36.12.12 0 0 0-.08.12v1.84c.01.07.08.13.15.12zM28.56 589.7c.4.31.72.58 1 .83.08.07.21.01.21-.09v-1.86a.16.16 0 0 0-.03-.09 5.67 5.67 0 0 0-1.03-.87c-.08-.05-.19.01-.19.11v1.87a.1.1 0 0 0 .04.1zM28.56 587.02c.4.31.72.58 1 .83.08.07.21.01.21-.09v-1.86a.16.16 0 0 0-.03-.09 5.67 5.67 0 0 0-1.03-.87c-.08-.05-.19.01-.19.11v1.87a.1.1 0 0 0 .04.1zM31.76 594c-.5-1.11-1-2.08-1.51-2.64a.11.11 0 0 1-.03-.08v-1.78c0-.12.16-.17.22-.07a19.45 19.45 0 0 1 1.6 2.83l-.05 1.7c0 .12-.18.16-.23.04zM31.76 591.36c-.5-1.11-1-2.08-1.51-2.64a.11.11 0 0 1-.03-.08v-1.78c0-.12.16-.17.22-.07a19.45 19.45 0 0 1 1.6 2.83l-.05 1.7c0 .13-.18.16-.23.04zM26.26 594.43c.56-.08 1.12.03 1.67.27.08.04.17-.02.17-.11v-1.78c0-.04-.02-.07-.05-.1a1.86 1.86 0 0 0-1.86-.36.12.12 0 0 0-.08.12v1.84c.01.07.08.13.15.12zM26.26 591.77c.56-.08 1.12.03 1.67.27.08.04.17-.02.17-.11v-1.78c0-.04-.02-.07-.05-.1a1.86 1.86 0 0 0-1.86-.36.12.12 0 0 0-.08.12v1.84c.01.07.08.13.15.12zM28.56 595.02c.4.31.72.58 1 .83.08.07.21.01.21-.09v-1.86a.16.16 0 0 0-.03-.09 5.67 5.67 0 0 0-1.03-.87c-.08-.05-.19.01-.19.11v1.87c-.01.04.01.07.04.1zM28.56 592.34c.4.31.72.58 1 .83.08.07.21.01.21-.09v-1.86a.16.16 0 0 0-.03-.09 5.67 5.67 0 0 0-1.03-.87c-.08-.05-.19.01-.19.11v1.87c-.01.04.01.07.04.1zM31.76 599.32c-.5-1.11-1-2.08-1.51-2.64a.11.11 0 0 1-.03-.08v-1.78c0-.12.16-.17.22-.07a19.45 19.45 0 0 1 1.6 2.83l-.05 1.7c0 .12-.18.16-.23.04zM31.76 596.68c-.5-1.11-1-2.08-1.51-2.64a.11.11 0 0 1-.03-.08v-1.78c0-.12.16-.17.22-.07a19.45 19.45 0 0 1 1.6 2.83l-.05 1.7c0 .12-.18.16-.23.04zM38.49 589.01a3.06 3.06 0 0 0-1.67.27c-.08.04-.17-.02-.17-.11v-1.78c0-.04.02-.07.05-.1.56-.44 1.17-.6 1.86-.36.05.02.08.06.08.12v1.84c-.01.07-.07.13-.15.12zM38.49 586.35a3.06 3.06 0 0 0-1.67.27c-.08.04-.17-.02-.17-.11v-1.78c0-.04.02-.07.05-.1.56-.44 1.17-.6 1.86-.36.05.02.08.06.08.12v1.84c-.01.07-.07.13-.15.12zM36.19 589.59c-.4.31-.72.58-1 .83-.08.07-.21.01-.21-.09v-1.86l.03-.09c.34-.36.69-.65 1.03-.87.08-.05.19.01.19.11v1.87a.1.1 0 0 1-.04.1zM36.19 586.92c-.4.31-.72.58-1 .83-.08.07-.21.01-.21-.09v-1.86l.03-.09c.34-.36.69-.65 1.03-.87.08-.05.19.01.19.11v1.87c.01.04-.01.07-.04.1zM32.99 593.89c.5-1.11 1-2.08 1.51-2.64a.11.11 0 0 0 .03-.08v-1.78c0-.12-.16-.17-.22-.07-.53.75-1.06 1.67-1.59 2.77l-.01.06.05 1.7c0 .13.18.16.23.04zM32.99 591.26c.5-1.11 1-2.08 1.51-2.64a.11.11 0 0 0 .03-.08v-1.78c0-.12-.16-.17-.22-.07-.53.75-1.06 1.67-1.59 2.77l-.01.06.05 1.7c0 .12.18.16.23.04zM38.49 594.32a3.06 3.06 0 0 0-1.67.27c-.08.04-.17-.02-.17-.11v-1.78c0-.04.02-.07.05-.1.56-.44 1.17-.6 1.86-.36.05.02.08.06.08.12v1.84c-.01.08-.07.13-.15.12zM38.49 591.66a3.06 3.06 0 0 0-1.67.27c-.08.04-.17-.02-.17-.11v-1.78c0-.04.02-.07.05-.1.56-.44 1.17-.6 1.86-.36.05.02.08.06.08.12v1.84c-.01.08-.07.13-.15.12zM36.19 594.91c-.4.31-.72.58-1 .83-.08.07-.21.01-.21-.09v-1.86l.03-.09c.34-.36.69-.65 1.03-.87.08-.05.19.01.19.11v1.87a.1.1 0 0 1-.04.1zM36.19 592.23c-.4.31-.72.58-1 .83-.08.07-.21.01-.21-.09v-1.86l.03-.09c.34-.36.69-.65 1.03-.87.08-.05.19.01.19.11v1.87a.1.1 0 0 1-.04.1zM32.99 599.21c.5-1.11 1-2.08 1.51-2.64a.11.11 0 0 0 .03-.08v-1.78c0-.12-.16-.17-.22-.07-.53.75-1.06 1.67-1.59 2.77l-.01.06.05 1.7c0 .13.18.16.23.04zM32.99 596.57c.5-1.11 1-2.08 1.51-2.64a.11.11 0 0 0 .03-.08v-1.78c0-.12-.16-.17-.22-.07-.53.75-1.06 1.67-1.59 2.77l-.01.06.05 1.7c0 .13.18.16.23.04zM26.26 621.22c.56-.08 1.12.03 1.67.27.08.04.17-.02.17-.11v-1.78c0-.04-.02-.07-.05-.1a1.86 1.86 0 0 0-1.86-.36.12.12 0 0 0-.08.12v1.84c.01.07.08.13.15.12zM26.26 618.56c.56-.08 1.12.03 1.67.27.08.04.17-.02.17-.11v-1.78c0-.04-.02-.07-.05-.1a1.86 1.86 0 0 0-1.86-.36.12.12 0 0 0-.08.12v1.84c.01.08.08.13.15.12zM28.56 621.81c.4.31.72.58 1 .83.08.07.21.01.21-.09v-1.86a.16.16 0 0 0-.03-.09 5.67 5.67 0 0 0-1.03-.87c-.08-.05-.19.01-.19.11v1.87a.1.1 0 0 0 .04.1zM28.56 619.13c.4.31.72.58 1 .83.08.07.21.01.21-.09v-1.86a.16.16 0 0 0-.03-.09 5.67 5.67 0 0 0-1.03-.87c-.08-.05-.19.01-.19.11v1.87a.1.1 0 0 0 .04.1zM31.76 626.11c-.5-1.11-1-2.08-1.51-2.64a.11.11 0 0 1-.03-.08v-1.78c0-.12.16-.17.22-.07a19.45 19.45 0 0 1 1.6 2.83l-.05 1.7c0 .12-.18.16-.23.04zM31.76 623.47c-.5-1.11-1-2.08-1.51-2.64a.11.11 0 0 1-.03-.08v-1.78c0-.12.16-.17.22-.07a19.45 19.45 0 0 1 1.6 2.83l-.05 1.7c0 .13-.18.16-.23.04zM26.26 626.54c.56-.08 1.12.03 1.67.27.08.04.17-.02.17-.11v-1.78c0-.04-.02-.07-.05-.1a1.86 1.86 0 0 0-1.86-.36.12.12 0 0 0-.08.12v1.84c.01.07.08.13.15.12zM26.26 623.88c.56-.08 1.12.03 1.67.27.08.04.17-.02.17-.11v-1.78c0-.04-.02-.07-.05-.1a1.86 1.86 0 0 0-1.86-.36.12.12 0 0 0-.08.12v1.84c.01.07.08.13.15.12zM28.56 627.13c.4.31.72.58 1 .83.08.07.21.01.21-.09v-1.86a.16.16 0 0 0-.03-.09 5.67 5.67 0 0 0-1.03-.87c-.08-.05-.19.01-.19.11v1.87c-.01.04.01.07.04.1zM28.56 624.45c.4.31.72.58 1 .83.08.07.21.01.21-.09v-1.86a.16.16 0 0 0-.03-.09 5.67 5.67 0 0 0-1.03-.87c-.08-.05-.19.01-.19.11v1.87a.1.1 0 0 0 .04.1zM31.76 631.43c-.5-1.11-1-2.08-1.51-2.64a.11.11 0 0 1-.03-.08v-1.78c0-.12.16-.17.22-.07a19.45 19.45 0 0 1 1.6 2.83l-.05 1.7c0 .12-.18.16-.23.04zM31.76 628.79c-.5-1.11-1-2.08-1.51-2.64a.11.11 0 0 1-.03-.08v-1.78c0-.12.16-.17.22-.07a19.45 19.45 0 0 1 1.6 2.83l-.05 1.7c0 .12-.18.16-.23.04zM38.49 621.12a3.06 3.06 0 0 0-1.67.27c-.08.04-.17-.02-.17-.11v-1.78c0-.04.02-.07.05-.1.56-.44 1.17-.6 1.86-.36.05.02.08.06.08.12V621c-.01.07-.07.13-.15.12zM38.49 618.46a3.06 3.06 0 0 0-1.67.27c-.08.04-.17-.02-.17-.11v-1.78c0-.04.02-.07.05-.1.56-.44 1.17-.6 1.86-.36.05.02.08.06.08.12v1.84c-.01.07-.07.13-.15.12zM36.19 621.71c-.4.31-.72.58-1 .83-.08.07-.21.01-.21-.09v-1.86l.03-.09c.34-.36.69-.65 1.03-.87.08-.05.19.01.19.11v1.87c.01.04-.01.07-.04.1zM36.19 619.03c-.4.31-.72.58-1 .83-.08.07-.21.01-.21-.09v-1.86l.03-.09c.34-.36.69-.65 1.03-.87.08-.05.19.01.19.11v1.87a.1.1 0 0 1-.04.1zM32.99 626.01c.5-1.11 1-2.08 1.51-2.64a.11.11 0 0 0 .03-.08v-1.78c0-.12-.16-.17-.22-.07-.53.75-1.06 1.67-1.59 2.77l-.01.06.05 1.7c0 .12.18.16.23.04zM32.99 623.37c.5-1.11 1-2.08 1.51-2.64a.11.11 0 0 0 .03-.08v-1.78c0-.12-.16-.17-.22-.07-.53.75-1.06 1.67-1.59 2.77l-.01.06.05 1.7c0 .12.18.16.23.04zM38.49 626.43a3.06 3.06 0 0 0-1.67.27c-.08.04-.17-.02-.17-.11v-1.78c0-.04.02-.07.05-.1.56-.44 1.17-.6 1.86-.36.05.02.08.06.08.12v1.84c-.01.08-.07.13-.15.12zM38.49 623.77a3.06 3.06 0 0 0-1.67.27c-.08.04-.17-.02-.17-.11v-1.78c0-.04.02-.07.05-.1.56-.44 1.17-.6 1.86-.36.05.02.08.06.08.12v1.84c-.01.08-.07.14-.15.12zM36.19 627.02c-.4.31-.72.58-1 .83-.08.07-.21.01-.21-.09v-1.86l.03-.09c.34-.36.69-.65 1.03-.87.08-.05.19.01.19.11v1.87a.1.1 0 0 1-.04.1zM36.19 624.35c-.4.31-.72.58-1 .83-.08.07-.21.01-.21-.09v-1.86l.03-.09c.34-.36.69-.65 1.03-.87.08-.05.19.01.19.11v1.87c.01.04-.01.07-.04.1zM32.99 631.32c.5-1.11 1-2.08 1.51-2.64a.11.11 0 0 0 .03-.08v-1.78c0-.12-.16-.17-.22-.07-.53.75-1.06 1.67-1.59 2.77l-.01.06.05 1.7c0 .13.18.16.23.04zM32.99 628.68c.5-1.11 1-2.08 1.51-2.64a.11.11 0 0 0 .03-.08v-1.78c0-.12-.16-.17-.22-.07-.53.75-1.06 1.67-1.59 2.77l-.01.06.05 1.7c0 .13.18.17.23.04zM26.26 610.61c.56-.08 1.12.03 1.67.27.08.04.17-.02.17-.11v-1.78c0-.04-.02-.07-.05-.1a1.86 1.86 0 0 0-1.86-.36.12.12 0 0 0-.08.12v1.84c.01.07.08.13.15.12zM26.26 607.95c.56-.08 1.12.03 1.67.27.08.04.17-.02.17-.11v-1.78c0-.04-.02-.07-.05-.1a1.86 1.86 0 0 0-1.86-.36.12.12 0 0 0-.08.12v1.84c.01.08.08.13.15.12zM28.56 611.2c.4.31.72.58 1 .83.08.07.21.01.21-.09v-1.86a.16.16 0 0 0-.03-.09 5.67 5.67 0 0 0-1.03-.87c-.08-.05-.19.01-.19.11v1.87a.1.1 0 0 0 .04.1zM28.56 608.52c.4.31.72.58 1 .83.08.07.21.01.21-.09v-1.86a.16.16 0 0 0-.03-.09 5.67 5.67 0 0 0-1.03-.87c-.08-.05-.19.01-.19.11v1.87a.1.1 0 0 0 .04.1zM31.76 615.5c-.5-1.11-1-2.08-1.51-2.64a.11.11 0 0 1-.03-.08V611c0-.12.16-.17.22-.07a19.45 19.45 0 0 1 1.6 2.83l-.05 1.7c0 .12-.18.16-.23.04zM31.76 612.86c-.5-1.11-1-2.08-1.51-2.64a.11.11 0 0 1-.03-.08v-1.78c0-.12.16-.17.22-.07a19.45 19.45 0 0 1 1.6 2.83l-.05 1.7c0 .13-.18.16-.23.04zM26.26 615.93c.56-.08 1.12.03 1.67.27.08.04.17-.02.17-.11v-1.78c0-.04-.02-.07-.05-.1a1.86 1.86 0 0 0-1.86-.36.12.12 0 0 0-.08.12v1.84c.01.07.08.13.15.12zM26.26 613.27c.56-.08 1.12.03 1.67.27.08.04.17-.02.17-.11v-1.78c0-.04-.02-.07-.05-.1a1.86 1.86 0 0 0-1.86-.36.12.12 0 0 0-.08.12v1.84c.01.07.08.13.15.12zM28.56 616.52c.4.31.72.58 1 .83.08.07.21.01.21-.09v-1.86a.16.16 0 0 0-.03-.09 5.67 5.67 0 0 0-1.03-.87c-.08-.05-.19.01-.19.11v1.87c-.01.04.01.07.04.1zM28.56 613.84c.4.31.72.58 1 .83.08.07.21.01.21-.09v-1.86a.16.16 0 0 0-.03-.09 5.67 5.67 0 0 0-1.03-.87c-.08-.05-.19.01-.19.11v1.87c-.01.04.01.07.04.1zM31.76 620.82c-.5-1.11-1-2.08-1.51-2.64a.11.11 0 0 1-.03-.08v-1.78c0-.12.16-.17.22-.07a19.45 19.45 0 0 1 1.6 2.83l-.05 1.7c0 .12-.18.16-.23.04zM31.76 618.18c-.5-1.11-1-2.08-1.51-2.64a.11.11 0 0 1-.03-.08v-1.78c0-.12.16-.17.22-.07a19.45 19.45 0 0 1 1.6 2.83l-.05 1.7c0 .12-.18.16-.23.04zM38.49 610.51a3.06 3.06 0 0 0-1.67.27c-.08.04-.17-.02-.17-.11v-1.78c0-.04.02-.07.05-.1.56-.44 1.17-.6 1.86-.36.05.02.08.06.08.12v1.84c-.01.07-.07.13-.15.12zM38.49 607.85a3.06 3.06 0 0 0-1.67.27c-.08.04-.17-.02-.17-.11v-1.78c0-.04.02-.07.05-.1.56-.44 1.17-.6 1.86-.36.05.02.08.06.08.12v1.84c-.01.07-.07.13-.15.12zM36.19 611.09c-.4.31-.72.58-1 .83-.08.07-.21.01-.21-.09v-1.86l.03-.09c.34-.36.69-.65 1.03-.87.08-.05.19.01.19.11v1.87c.01.05-.01.08-.04.1zM36.19 608.42c-.4.31-.72.58-1 .83-.08.07-.21.01-.21-.09v-1.86l.03-.09c.34-.36.69-.65 1.03-.87.08-.05.19.01.19.11v1.87c.01.04-.01.07-.04.1zM32.99 615.39c.5-1.11 1-2.08 1.51-2.64a.11.11 0 0 0 .03-.08v-1.78c0-.12-.16-.17-.22-.07-.53.75-1.06 1.67-1.59 2.77l-.01.06.05 1.7c0 .13.18.17.23.04zM32.99 612.76c.5-1.11 1-2.08 1.51-2.64a.11.11 0 0 0 .03-.08v-1.78c0-.12-.16-.17-.22-.07-.53.75-1.06 1.67-1.59 2.77l-.01.06.05 1.7c0 .12.18.16.23.04zM38.49 615.82a3.06 3.06 0 0 0-1.67.27c-.08.04-.17-.02-.17-.11v-1.78c0-.04.02-.07.05-.1.56-.44 1.17-.6 1.86-.36.05.02.08.06.08.12v1.84c-.01.08-.07.13-.15.12zM38.49 613.16a3.06 3.06 0 0 0-1.67.27c-.08.04-.17-.02-.17-.11v-1.78c0-.04.02-.07.05-.1.56-.44 1.17-.6 1.86-.36.05.02.08.06.08.12v1.84c-.01.08-.07.13-.15.12zM36.19 616.41c-.4.31-.72.58-1 .83-.08.07-.21.01-.21-.09v-1.86l.03-.09c.34-.36.69-.65 1.03-.87.08-.05.19.01.19.11v1.87a.1.1 0 0 1-.04.1zM36.19 613.73c-.4.31-.72.58-1 .83-.08.07-.21.01-.21-.09v-1.86l.03-.09c.34-.36.69-.65 1.03-.87.08-.05.19.01.19.11v1.87a.1.1 0 0 1-.04.1zM32.99 620.71c.5-1.11 1-2.08 1.51-2.64a.11.11 0 0 0 .03-.08v-1.78c0-.12-.16-.17-.22-.07-.53.75-1.06 1.67-1.59 2.77l-.01.06.05 1.7c0 .13.18.16.23.04zM32.99 618.07c.5-1.11 1-2.08 1.51-2.64a.11.11 0 0 0 .03-.08v-1.78c0-.12-.16-.17-.22-.07-.53.75-1.06 1.67-1.59 2.77l-.01.06.05 1.7c0 .13.18.16.23.04zM26.26 471.46c.56-.08 1.12.03 1.67.27.08.04.17-.02.17-.11v-1.78c0-.04-.02-.07-.05-.1a1.86 1.86 0 0 0-1.86-.36.12.12 0 0 0-.08.12v1.84c.01.07.08.13.15.12zM26.26 468.8c.56-.08 1.12.03 1.67.27.08.04.17-.02.17-.11v-1.78c0-.04-.02-.07-.05-.1a1.86 1.86 0 0 0-1.86-.36.12.12 0 0 0-.08.12v1.84c.01.07.08.13.15.12zM28.56 472.05c.4.31.72.58 1 .83.08.07.21.01.21-.09v-1.86a.16.16 0 0 0-.03-.09 5.67 5.67 0 0 0-1.03-.87c-.08-.05-.19.01-.19.11v1.87c-.01.04.01.07.04.1zM28.56 469.37c.4.31.72.58 1 .83.08.07.21.01.21-.09v-1.86a.16.16 0 0 0-.03-.09 5.67 5.67 0 0 0-1.03-.87c-.08-.05-.19.01-.19.11v1.87c-.01.04.01.07.04.1zM31.76 476.35c-.5-1.11-1-2.08-1.51-2.64a.11.11 0 0 1-.03-.08v-1.78c0-.12.16-.17.22-.07a19.45 19.45 0 0 1 1.6 2.83L32 476.3c-.01.13-.19.17-.24.05zM31.76 473.71c-.5-1.11-1-2.08-1.51-2.64a.11.11 0 0 1-.03-.08v-1.78c0-.12.16-.17.22-.07a19.45 19.45 0 0 1 1.6 2.83l-.05 1.7c0 .12-.18.16-.23.04zM26.26 476.77c.56-.08 1.12.03 1.67.27.08.04.17-.02.17-.11v-1.78c0-.04-.02-.07-.05-.1a1.86 1.86 0 0 0-1.86-.36.12.12 0 0 0-.08.12v1.84c.01.08.08.13.15.12zM26.26 474.11c.56-.08 1.12.03 1.67.27.08.04.17-.02.17-.11v-1.78c0-.04-.02-.07-.05-.1a1.86 1.86 0 0 0-1.86-.36.12.12 0 0 0-.08.12v1.84c.01.08.08.14.15.12zM28.56 477.36c.4.31.72.58 1 .83.08.07.21.01.21-.09v-1.86a.16.16 0 0 0-.03-.09 5.67 5.67 0 0 0-1.03-.87c-.08-.05-.19.01-.19.11v1.87a.1.1 0 0 0 .04.1zM28.56 474.68c.4.31.72.58 1 .83.08.07.21.01.21-.09v-1.86a.16.16 0 0 0-.03-.09 5.67 5.67 0 0 0-1.03-.87c-.08-.05-.19.01-.19.11v1.87c-.01.05.01.08.04.1zM31.76 481.66c-.5-1.11-1-2.08-1.51-2.64a.11.11 0 0 1-.03-.08v-1.78c0-.12.16-.17.22-.07a19.45 19.45 0 0 1 1.6 2.83l-.05 1.7c0 .13-.18.16-.23.04zM31.76 479.02c-.5-1.11-1-2.08-1.51-2.64a.11.11 0 0 1-.03-.08v-1.78c0-.12.16-.17.22-.07a19.45 19.45 0 0 1 1.6 2.83l-.05 1.7c0 .13-.18.17-.23.04zM38.49 471.35a3.06 3.06 0 0 0-1.67.27c-.08.04-.17-.02-.17-.11v-1.78c0-.04.02-.07.05-.1.56-.44 1.17-.6 1.86-.36.05.02.08.06.08.12v1.84c-.01.08-.07.13-.15.12zM38.49 468.69a3.06 3.06 0 0 0-1.67.27c-.08.04-.17-.02-.17-.11v-1.78c0-.04.02-.07.05-.1.56-.44 1.17-.6 1.86-.36.05.02.08.06.08.12v1.84c-.01.08-.07.13-.15.12zM36.19 471.94c-.4.31-.72.58-1 .83-.08.07-.21.01-.21-.09v-1.86l.03-.09c.34-.36.69-.65 1.03-.87.08-.05.19.01.19.11v1.87a.1.1 0 0 1-.04.1zM36.19 469.26c-.4.31-.72.58-1 .83-.08.07-.21.01-.21-.09v-1.86l.03-.09c.34-.36.69-.65 1.03-.87.08-.05.19.01.19.11v1.87a.1.1 0 0 1-.04.1zM32.99 476.24c.5-1.11 1-2.08 1.51-2.64a.11.11 0 0 0 .03-.08v-1.78c0-.12-.16-.17-.22-.07-.53.75-1.06 1.67-1.59 2.77l-.01.06.05 1.7c0 .13.18.16.23.04zM32.99 473.6c.5-1.11 1-2.08 1.51-2.64a.11.11 0 0 0 .03-.08v-1.78c0-.12-.16-.17-.22-.07-.53.75-1.06 1.67-1.59 2.77l-.01.06.05 1.7c0 .13.18.16.23.04zM38.49 476.67a3.06 3.06 0 0 0-1.67.27c-.08.04-.17-.02-.17-.11v-1.78c0-.04.02-.07.05-.1.56-.44 1.17-.6 1.86-.36.05.02.08.06.08.12v1.84c-.01.07-.07.13-.15.12zM38.49 474.01a3.06 3.06 0 0 0-1.67.27c-.08.04-.17-.02-.17-.11v-1.78c0-.04.02-.07.05-.1.56-.44 1.17-.6 1.86-.36.05.02.08.06.08.12v1.84c-.01.07-.07.13-.15.12zM36.19 477.26c-.4.31-.72.58-1 .83-.08.07-.21.01-.21-.09v-1.86l.03-.09c.34-.36.69-.65 1.03-.87.08-.05.19.01.19.11v1.87c.01.04-.01.07-.04.1zM36.19 474.58c-.4.31-.72.58-1 .83-.08.07-.21.01-.21-.09v-1.86l.03-.09c.34-.36.69-.65 1.03-.87.08-.05.19.01.19.11v1.87a.1.1 0 0 1-.04.1zM32.99 481.56c.5-1.11 1-2.08 1.51-2.64a.11.11 0 0 0 .03-.08v-1.78c0-.12-.16-.17-.22-.07-.53.75-1.06 1.67-1.59 2.77l-.01.06.05 1.7c0 .12.18.16.23.04zM32.99 478.92c.5-1.11 1-2.08 1.51-2.64a.11.11 0 0 0 .03-.08v-1.78c0-.12-.16-.17-.22-.07-.53.75-1.06 1.67-1.59 2.77l-.01.06.05 1.7c0 .12.18.16.23.04zM26.26 460.67c.56-.08 1.12.03 1.67.27.08.04.17-.02.17-.11v-1.78c0-.04-.02-.07-.05-.1a1.86 1.86 0 0 0-1.86-.36.12.12 0 0 0-.08.12v1.84c.01.08.08.14.15.12zM26.26 458.02c.56-.08 1.12.03 1.67.27.08.04.17-.02.17-.11v-1.78c0-.04-.02-.07-.05-.1a1.86 1.86 0 0 0-1.86-.36.12.12 0 0 0-.08.12v1.84c.01.07.08.13.15.12zM28.56 461.26c.4.31.72.58 1 .83.08.07.21.01.21-.09v-1.86a.16.16 0 0 0-.03-.09 5.67 5.67 0 0 0-1.03-.87c-.08-.05-.19.01-.19.11v1.87a.1.1 0 0 0 .04.1zM28.56 458.59c.4.31.72.58 1 .83.08.07.21.01.21-.09v-1.86a.16.16 0 0 0-.03-.09 5.67 5.67 0 0 0-1.03-.87c-.08-.05-.19.01-.19.11v1.87c-.01.04.01.07.04.1zM31.76 465.56c-.5-1.11-1-2.08-1.51-2.64a.11.11 0 0 1-.03-.08v-1.78c0-.12.16-.17.22-.07a19.45 19.45 0 0 1 1.6 2.83l-.05 1.7c0 .13-.18.16-.23.04zM31.76 462.93c-.5-1.11-1-2.08-1.51-2.64a.11.11 0 0 1-.03-.08v-1.78c0-.12.16-.17.22-.07a19.45 19.45 0 0 1 1.6 2.83l-.05 1.7c0 .12-.18.16-.23.04zM26.26 465.99c.56-.08 1.12.03 1.67.27.08.04.17-.02.17-.11v-1.78c0-.04-.02-.07-.05-.1a1.86 1.86 0 0 0-1.86-.36.12.12 0 0 0-.08.12v1.84c.01.07.08.13.15.12zM26.26 463.33c.56-.08 1.12.03 1.67.27.08.04.17-.02.17-.11v-1.78c0-.04-.02-.07-.05-.1a1.86 1.86 0 0 0-1.86-.36.12.12 0 0 0-.08.12v1.84c.01.08.08.13.15.12zM28.56 466.58c.4.31.72.58 1 .83.08.07.21.01.21-.09v-1.86a.16.16 0 0 0-.03-.09 5.67 5.67 0 0 0-1.03-.87c-.08-.05-.19.01-.19.11v1.87a.1.1 0 0 0 .04.1zM28.56 463.9c.4.31.72.58 1 .83.08.07.21.01.21-.09v-1.86a.16.16 0 0 0-.03-.09 5.67 5.67 0 0 0-1.03-.87c-.08-.05-.19.01-.19.11v1.87a.1.1 0 0 0 .04.1zM31.76 470.88c-.5-1.11-1-2.08-1.51-2.64a.11.11 0 0 1-.03-.08v-1.78c0-.12.16-.17.22-.07a19.45 19.45 0 0 1 1.6 2.83l-.05 1.7c0 .12-.18.16-.23.04zM31.76 468.24c-.5-1.11-1-2.08-1.51-2.64a.11.11 0 0 1-.03-.08v-1.78c0-.12.16-.17.22-.07a19.45 19.45 0 0 1 1.6 2.83l-.04 1.7c-.01.13-.19.16-.24.04zM38.49 460.57a3.06 3.06 0 0 0-1.67.27c-.08.04-.17-.02-.17-.11v-1.78c0-.04.02-.07.05-.1.56-.44 1.17-.6 1.86-.36.05.02.08.06.08.12v1.84c-.01.07-.07.13-.15.12zM38.49 457.91a3.06 3.06 0 0 0-1.67.27c-.08.04-.17-.02-.17-.11v-1.78c0-.04.02-.07.05-.1.56-.44 1.17-.6 1.86-.36.05.02.08.06.08.12v1.84c-.01.08-.07.13-.15.12zM36.19 461.16c-.4.31-.72.58-1 .83-.08.07-.21.01-.21-.09v-1.86l.03-.09c.34-.36.69-.65 1.03-.87.08-.05.19.01.19.11v1.87a.1.1 0 0 1-.04.1zM36.19 458.48c-.4.31-.72.58-1 .83-.08.07-.21.01-.21-.09v-1.86l.03-.09c.34-.36.69-.65 1.03-.87.08-.05.19.01.19.11v1.87a.1.1 0 0 1-.04.1zM32.99 465.46c.5-1.11 1-2.08 1.51-2.64a.11.11 0 0 0 .03-.08v-1.78c0-.12-.16-.17-.22-.07-.53.75-1.06 1.67-1.59 2.77l-.01.06.05 1.7c0 .12.18.16.23.04zM32.99 462.82c.5-1.11 1-2.08 1.51-2.64a.11.11 0 0 0 .03-.08v-1.78c0-.12-.16-.17-.22-.07-.53.75-1.06 1.67-1.59 2.77l-.01.06.05 1.7c0 .13.18.16.23.04zM38.49 465.89a3.06 3.06 0 0 0-1.67.27c-.08.04-.17-.02-.17-.11v-1.78c0-.04.02-.07.05-.1.56-.44 1.17-.6 1.86-.36.05.02.08.06.08.12v1.84c-.01.07-.07.13-.15.12zM38.49 463.23a3.06 3.06 0 0 0-1.67.27c-.08.04-.17-.02-.17-.11v-1.78c0-.04.02-.07.05-.1.56-.44 1.17-.6 1.86-.36.05.02.08.06.08.12v1.84c-.01.07-.07.13-.15.12zM36.19 466.48c-.4.31-.72.58-1 .83-.08.07-.21.01-.21-.09v-1.86l.03-.09c.34-.36.69-.65 1.03-.87.08-.05.19.01.19.11v1.87c.01.04-.01.07-.04.1zM36.19 463.8c-.4.31-.72.58-1 .83-.08.07-.21.01-.21-.09v-1.86l.03-.09c.34-.36.69-.65 1.03-.87.08-.05.19.01.19.11v1.87a.1.1 0 0 1-.04.1zM32.99 470.78c.5-1.11 1-2.08 1.51-2.64a.11.11 0 0 0 .03-.08v-1.78c0-.12-.16-.17-.22-.07-.53.75-1.06 1.67-1.59 2.77l-.01.06.05 1.7c0 .12.18.16.23.04zM32.99 468.14c.5-1.11 1-2.08 1.51-2.64a.11.11 0 0 0 .03-.08v-1.78c0-.12-.16-.17-.22-.07-.53.75-1.06 1.67-1.59 2.77l-.01.06.05 1.7c0 .12.18.16.23.04zM26.26 492.79c.56-.08 1.12.03 1.67.27.08.04.17-.02.17-.11v-1.78c0-.04-.02-.07-.05-.1a1.86 1.86 0 0 0-1.86-.36.12.12 0 0 0-.08.12v1.84c.01.07.08.13.15.12zM26.26 490.13c.56-.08 1.12.03 1.67.27.08.04.17-.02.17-.11v-1.78c0-.04-.02-.07-.05-.1a1.86 1.86 0 0 0-1.86-.36.12.12 0 0 0-.08.12v1.84c.01.07.08.13.15.12zM28.56 493.38c.4.31.72.58 1 .83.08.07.21.01.21-.09v-1.86a.16.16 0 0 0-.03-.09 5.67 5.67 0 0 0-1.03-.87c-.08-.05-.19.01-.19.11v1.87c-.01.04.01.07.04.1zM28.56 490.7c.4.31.72.58 1 .83.08.07.21.01.21-.09v-1.86a.16.16 0 0 0-.03-.09 5.67 5.67 0 0 0-1.03-.87c-.08-.05-.19.01-.19.11v1.87c-.01.04.01.07.04.1zM31.76 497.68c-.5-1.11-1-2.08-1.51-2.64a.11.11 0 0 1-.03-.08v-1.78c0-.12.16-.17.22-.07a19.45 19.45 0 0 1 1.6 2.83l-.05 1.7c0 .12-.18.16-.23.04zM31.76 495.04c-.5-1.11-1-2.08-1.51-2.64a.11.11 0 0 1-.03-.08v-1.78c0-.12.16-.17.22-.07a19.45 19.45 0 0 1 1.6 2.83l-.05 1.7c0 .12-.18.16-.23.04zM26.26 498.1c.56-.08 1.12.03 1.67.27.08.04.17-.02.17-.11v-1.78c0-.04-.02-.07-.05-.1a1.86 1.86 0 0 0-1.86-.36.12.12 0 0 0-.08.12v1.84c.01.08.08.13.15.12zM26.26 495.44c.56-.08 1.12.03 1.67.27.08.04.17-.02.17-.11v-1.78c0-.04-.02-.07-.05-.1a1.86 1.86 0 0 0-1.86-.36.12.12 0 0 0-.08.12v1.84c.01.08.08.14.15.12zM28.56 498.69c.4.31.72.58 1 .83.08.07.21.01.21-.09v-1.86a.16.16 0 0 0-.03-.09 5.67 5.67 0 0 0-1.03-.87c-.08-.05-.19.01-.19.11v1.87a.1.1 0 0 0 .04.1zM28.56 496.01c.4.31.72.58 1 .83.08.07.21.01.21-.09v-1.86a.16.16 0 0 0-.03-.09 5.67 5.67 0 0 0-1.03-.87c-.08-.05-.19.01-.19.11v1.87a.1.1 0 0 0 .04.1zM31.76 502.99c-.5-1.11-1-2.08-1.51-2.64a.11.11 0 0 1-.03-.08v-1.78c0-.12.16-.17.22-.07a19.45 19.45 0 0 1 1.6 2.83l-.05 1.7c0 .13-.18.16-.23.04zM31.76 500.35c-.5-1.11-1-2.08-1.51-2.64a.11.11 0 0 1-.03-.08v-1.78c0-.12.16-.17.22-.07a19.45 19.45 0 0 1 1.6 2.83l-.05 1.7c0 .13-.18.16-.23.04zM38.49 492.68a3.06 3.06 0 0 0-1.67.27c-.08.04-.17-.02-.17-.11v-1.78c0-.04.02-.07.05-.1.56-.44 1.17-.6 1.86-.36.05.02.08.06.08.12v1.84c-.01.08-.07.13-.15.12zM38.49 490.02a3.06 3.06 0 0 0-1.67.27c-.08.04-.17-.02-.17-.11v-1.78c0-.04.02-.07.05-.1.56-.44 1.17-.6 1.86-.36.05.02.08.06.08.12v1.84c-.01.08-.07.13-.15.12zM36.19 493.27c-.4.31-.72.58-1 .83-.08.07-.21.01-.21-.09v-1.86l.03-.09c.34-.36.69-.65 1.03-.87.08-.05.19.01.19.11v1.87a.1.1 0 0 1-.04.1zM36.19 490.59c-.4.31-.72.58-1 .83-.08.07-.21.01-.21-.09v-1.86l.03-.09c.34-.36.69-.65 1.03-.87.08-.05.19.01.19.11v1.87a.1.1 0 0 1-.04.1zM32.99 497.57c.5-1.11 1-2.08 1.51-2.64a.11.11 0 0 0 .03-.08v-1.78c0-.12-.16-.17-.22-.07-.53.75-1.06 1.67-1.59 2.77l-.01.06.05 1.7c0 .13.18.16.23.04zM32.99 494.93c.5-1.11 1-2.08 1.51-2.64a.11.11 0 0 0 .03-.08v-1.78c0-.12-.16-.17-.22-.07-.53.75-1.06 1.67-1.59 2.77l-.01.06.05 1.7c0 .13.18.16.23.04zM38.49 498a3.06 3.06 0 0 0-1.67.27c-.08.04-.17-.02-.17-.11v-1.78c0-.04.02-.07.05-.1.56-.44 1.17-.6 1.86-.36.05.02.08.06.08.12v1.84c-.01.07-.07.13-.15.12zM38.49 495.34a3.06 3.06 0 0 0-1.67.27c-.08.04-.17-.02-.17-.11v-1.78c0-.04.02-.07.05-.1.56-.44 1.17-.6 1.86-.36.05.02.08.06.08.12v1.84c-.01.07-.07.13-.15.12zM36.19 498.59c-.4.31-.72.58-1 .83-.08.07-.21.01-.21-.09v-1.86l.03-.09c.34-.36.69-.65 1.03-.87.08-.05.19.01.19.11v1.87c.01.04-.01.07-.04.1zM36.19 495.91c-.4.31-.72.58-1 .83-.08.07-.21.01-.21-.09v-1.86l.03-.09c.34-.36.69-.65 1.03-.87.08-.05.19.01.19.11v1.87a.1.1 0 0 1-.04.1zM32.99 502.89c.5-1.11 1-2.08 1.51-2.64a.11.11 0 0 0 .03-.08v-1.78c0-.12-.16-.17-.22-.07-.53.75-1.06 1.67-1.59 2.77l-.01.06.05 1.7c0 .12.18.16.23.04zM32.99 500.25c.5-1.11 1-2.08 1.51-2.64a.11.11 0 0 0 .03-.08v-1.78c0-.12-.16-.17-.22-.07-.53.75-1.06 1.67-1.59 2.77l-.01.06.05 1.7c0 .12.18.16.23.04zM26.26 482.17c.56-.08 1.12.03 1.67.27.08.04.17-.02.17-.11v-1.78c0-.04-.02-.07-.05-.1a1.86 1.86 0 0 0-1.86-.36.12.12 0 0 0-.08.12v1.84c.01.08.08.14.15.12zM26.26 479.52c.56-.08 1.12.03 1.67.27.08.04.17-.02.17-.11v-1.78c0-.04-.02-.07-.05-.1a1.86 1.86 0 0 0-1.86-.36.12.12 0 0 0-.08.12v1.84c.01.07.08.13.15.12zM28.56 482.76c.4.31.72.58 1 .83.08.07.21.01.21-.09v-1.86a.16.16 0 0 0-.03-.09 5.67 5.67 0 0 0-1.03-.87c-.08-.05-.19.01-.19.11v1.87a.1.1 0 0 0 .04.1zM28.56 480.09c.4.31.72.58 1 .83.08.07.21.01.21-.09v-1.86a.16.16 0 0 0-.03-.09 5.67 5.67 0 0 0-1.03-.87c-.08-.05-.19.01-.19.11v1.87c-.01.04.01.07.04.1zM31.76 487.06c-.5-1.11-1-2.08-1.51-2.64a.11.11 0 0 1-.03-.08v-1.78c0-.12.16-.17.22-.07a19.45 19.45 0 0 1 1.6 2.83l-.05 1.7c0 .13-.18.16-.23.04zM31.76 484.43c-.5-1.11-1-2.08-1.51-2.64a.11.11 0 0 1-.03-.08v-1.78c0-.12.16-.17.22-.07a19.45 19.45 0 0 1 1.6 2.83l-.05 1.7c0 .12-.18.16-.23.04zM26.26 487.49c.56-.08 1.12.03 1.67.27.08.04.17-.02.17-.11v-1.78c0-.04-.02-.07-.05-.1a1.86 1.86 0 0 0-1.86-.36.12.12 0 0 0-.08.12v1.84c.01.07.08.13.15.12zM26.26 484.83c.56-.08 1.12.03 1.67.27.08.04.17-.02.17-.11v-1.78c0-.04-.02-.07-.05-.1a1.86 1.86 0 0 0-1.86-.36.12.12 0 0 0-.08.12v1.84c.01.08.08.13.15.12zM28.56 488.08c.4.31.72.58 1 .83.08.07.21.01.21-.09v-1.86a.16.16 0 0 0-.03-.09 5.67 5.67 0 0 0-1.03-.87c-.08-.05-.19.01-.19.11v1.87a.1.1 0 0 0 .04.1zM28.56 485.4c.4.31.72.58 1 .83.08.07.21.01.21-.09v-1.86a.16.16 0 0 0-.03-.09 5.67 5.67 0 0 0-1.03-.87c-.08-.05-.19.01-.19.11v1.87a.1.1 0 0 0 .04.1zM31.76 492.38c-.5-1.11-1-2.08-1.51-2.64a.11.11 0 0 1-.03-.08v-1.78c0-.12.16-.17.22-.07a19.45 19.45 0 0 1 1.6 2.83l-.05 1.7c0 .12-.18.16-.23.04zM31.76 489.74c-.5-1.11-1-2.08-1.51-2.64a.11.11 0 0 1-.03-.08v-1.78c0-.12.16-.17.22-.07a19.45 19.45 0 0 1 1.6 2.83l-.04 1.7c-.01.13-.19.16-.24.04zM38.49 482.07a3.06 3.06 0 0 0-1.67.27c-.08.04-.17-.02-.17-.11v-1.78c0-.04.02-.07.05-.1.56-.44 1.17-.6 1.86-.36.05.02.08.06.08.12v1.84c-.01.07-.07.13-.15.12zM38.49 479.41a3.06 3.06 0 0 0-1.67.27c-.08.04-.17-.02-.17-.11v-1.78c0-.04.02-.07.05-.1.56-.44 1.17-.6 1.86-.36.05.02.08.06.08.12v1.84c-.01.08-.07.13-.15.12zM36.19 482.66c-.4.31-.72.58-1 .83-.08.07-.21.01-.21-.09v-1.86l.03-.09c.34-.36.69-.65 1.03-.87.08-.05.19.01.19.11v1.87a.1.1 0 0 1-.04.1zM36.19 479.98c-.4.31-.72.58-1 .83-.08.07-.21.01-.21-.09v-1.86l.03-.09c.34-.36.69-.65 1.03-.87.08-.05.19.01.19.11v1.87a.1.1 0 0 1-.04.1zM32.99 486.96c.5-1.11 1-2.08 1.51-2.64a.11.11 0 0 0 .03-.08v-1.78c0-.12-.16-.17-.22-.07-.53.75-1.06 1.67-1.59 2.77l-.01.06.05 1.7c0 .12.18.16.23.04zM32.99 484.32c.5-1.11 1-2.08 1.51-2.64a.11.11 0 0 0 .03-.08v-1.78c0-.12-.16-.17-.22-.07-.53.75-1.06 1.67-1.59 2.77l-.01.06.05 1.7c0 .13.18.16.23.04zM38.49 487.39a3.06 3.06 0 0 0-1.67.27c-.08.04-.17-.02-.17-.11v-1.78c0-.04.02-.07.05-.1.56-.44 1.17-.6 1.86-.36.05.02.08.06.08.12v1.84c-.01.07-.07.13-.15.12zM38.49 484.73a3.06 3.06 0 0 0-1.67.27c-.08.04-.17-.02-.17-.11v-1.78c0-.04.02-.07.05-.1.56-.44 1.17-.6 1.86-.36.05.02.08.06.08.12v1.84c-.01.07-.07.13-.15.12zM36.19 487.98c-.4.31-.72.58-1 .83-.08.07-.21.01-.21-.09v-1.86l.03-.09c.34-.36.69-.65 1.03-.87.08-.05.19.01.19.11v1.87c.01.04-.01.07-.04.1zM36.19 485.3c-.4.31-.72.58-1 .83-.08.07-.21.01-.21-.09v-1.86l.03-.09c.34-.36.69-.65 1.03-.87.08-.05.19.01.19.11v1.87a.1.1 0 0 1-.04.1zM32.99 492.28c.5-1.11 1-2.08 1.51-2.64a.11.11 0 0 0 .03-.08v-1.78c0-.12-.16-.17-.22-.07-.53.75-1.06 1.67-1.59 2.77l-.01.06.05 1.7c0 .12.18.16.23.04zM32.99 489.64c.5-1.11 1-2.08 1.51-2.64a.11.11 0 0 0 .03-.08v-1.78c0-.12-.16-.17-.22-.07-.53.75-1.06 1.67-1.59 2.77l-.01.06.05 1.7c0 .12.18.16.23.04zM26.26 514.37c.56-.08 1.12.03 1.67.27.08.04.17-.02.17-.11v-1.78c0-.04-.02-.07-.05-.1a1.86 1.86 0 0 0-1.86-.36.12.12 0 0 0-.08.12v1.84c.01.07.08.13.15.12zM26.26 511.71c.56-.08 1.12.03 1.67.27.08.04.17-.02.17-.11v-1.78c0-.04-.02-.07-.05-.1a1.86 1.86 0 0 0-1.86-.36.12.12 0 0 0-.08.12v1.84c.01.07.08.13.15.12zM28.56 514.96c.4.31.72.58 1 .83.08.07.21.01.21-.09v-1.86a.16.16 0 0 0-.03-.09 5.67 5.67 0 0 0-1.03-.87c-.08-.05-.19.01-.19.11v1.87c-.01.04.01.07.04.1zM28.56 512.28c.4.31.72.58 1 .83.08.07.21.01.21-.09v-1.86a.16.16 0 0 0-.03-.09 5.67 5.67 0 0 0-1.03-.87c-.08-.05-.19.01-.19.11v1.87a.1.1 0 0 0 .04.1zM31.76 519.26c-.5-1.11-1-2.08-1.51-2.64a.11.11 0 0 1-.03-.08v-1.78c0-.12.16-.17.22-.07a19.45 19.45 0 0 1 1.6 2.83l-.05 1.7c0 .12-.18.16-.23.04zM31.76 516.62c-.5-1.11-1-2.08-1.51-2.64a.11.11 0 0 1-.03-.08v-1.78c0-.12.16-.17.22-.07a19.45 19.45 0 0 1 1.6 2.83l-.05 1.7c0 .13-.18.16-.23.04zM26.26 519.69c.56-.08 1.12.03 1.67.27.08.04.17-.02.17-.11v-1.78c0-.04-.02-.07-.05-.1a1.86 1.86 0 0 0-1.86-.36.12.12 0 0 0-.08.12v1.84c.01.07.08.13.15.12zM26.26 517.03c.56-.08 1.12.03 1.67.27.08.04.17-.02.17-.11v-1.78c0-.04-.02-.07-.05-.1a1.86 1.86 0 0 0-1.86-.36.12.12 0 0 0-.08.12v1.84c.01.07.08.13.15.12zM28.56 520.27c.4.31.72.58 1 .83.08.07.21.01.21-.09v-1.86a.16.16 0 0 0-.03-.09 5.67 5.67 0 0 0-1.03-.87c-.08-.05-.19.01-.19.11v1.87a.1.1 0 0 0 .04.1zM28.56 517.6c.4.31.72.58 1 .83.08.07.21.01.21-.09v-1.86a.16.16 0 0 0-.03-.09 5.67 5.67 0 0 0-1.03-.87c-.08-.05-.19.01-.19.11v1.87c-.01.04.01.07.04.1zM31.76 524.57c-.5-1.11-1-2.08-1.51-2.64a.11.11 0 0 1-.03-.08v-1.78c0-.12.16-.17.22-.07a19.45 19.45 0 0 1 1.6 2.83l-.05 1.7c0 .13-.18.16-.23.04zM31.76 521.94c-.5-1.11-1-2.08-1.51-2.64a.11.11 0 0 1-.03-.08v-1.78c0-.12.16-.17.22-.07a19.45 19.45 0 0 1 1.6 2.83l-.05 1.7c0 .12-.18.16-.23.04zM38.49 514.26a3.06 3.06 0 0 0-1.67.27c-.08.04-.17-.02-.17-.11v-1.78c0-.04.02-.07.05-.1.56-.44 1.17-.6 1.86-.36.05.02.08.06.08.12v1.84c-.01.08-.07.14-.15.12zM38.49 511.61a3.06 3.06 0 0 0-1.67.27c-.08.04-.17-.02-.17-.11v-1.78c0-.04.02-.07.05-.1.56-.44 1.17-.6 1.86-.36.05.02.08.06.08.12v1.84c-.01.07-.07.13-.15.12zM36.19 514.85c-.4.31-.72.58-1 .83-.08.07-.21.01-.21-.09v-1.86l.03-.09c.34-.36.69-.65 1.03-.87.08-.05.19.01.19.11v1.87a.1.1 0 0 1-.04.1zM36.19 512.18c-.4.31-.72.58-1 .83-.08.07-.21.01-.21-.09v-1.86l.03-.09c.34-.36.69-.65 1.03-.87.08-.05.19.01.19.11v1.87c.01.04-.01.07-.04.1zM32.99 519.15c.5-1.11 1-2.08 1.51-2.64a.11.11 0 0 0 .03-.08v-1.78c0-.12-.16-.17-.22-.07-.53.75-1.06 1.67-1.59 2.77l-.01.06.05 1.7c0 .13.18.16.23.04zM32.99 516.52c.5-1.11 1-2.08 1.51-2.64a.11.11 0 0 0 .03-.08v-1.78c0-.12-.16-.17-.22-.07-.53.75-1.06 1.67-1.59 2.77l-.01.06.05 1.7c0 .12.18.16.23.04zM38.49 519.58a3.06 3.06 0 0 0-1.67.27c-.08.04-.17-.02-.17-.11v-1.78c0-.04.02-.07.05-.1.56-.44 1.17-.6 1.86-.36.05.02.08.06.08.12v1.84c-.01.07-.07.13-.15.12zM38.49 516.92a3.06 3.06 0 0 0-1.67.27c-.08.04-.17-.02-.17-.11v-1.78c0-.04.02-.07.05-.1.56-.44 1.17-.6 1.86-.36.05.02.08.06.08.12v1.84c-.01.08-.07.13-.15.12zM36.19 520.17c-.4.31-.72.58-1 .83-.08.07-.21.01-.21-.09v-1.86l.03-.09c.34-.36.69-.65 1.03-.87.08-.05.19.01.19.11v1.87a.1.1 0 0 1-.04.1zM36.19 517.49c-.4.31-.72.58-1 .83-.08.07-.21.01-.21-.09v-1.86l.03-.09c.34-.36.69-.65 1.03-.87.08-.05.19.01.19.11v1.87a.1.1 0 0 1-.04.1zM32.99 524.47c.5-1.11 1-2.08 1.51-2.64a.11.11 0 0 0 .03-.08v-1.78c0-.12-.16-.17-.22-.07-.53.75-1.06 1.67-1.59 2.77l-.01.06.05 1.7c0 .12.18.16.23.04zM32.99 521.83c.5-1.11 1-2.08 1.51-2.64a.11.11 0 0 0 .03-.08v-1.78c0-.12-.16-.17-.22-.07-.53.75-1.06 1.67-1.59 2.77l-.01.06.05 1.7c0 .13.18.16.23.04zM26.26 503.59c.56-.08 1.12.03 1.67.27.08.04.17-.02.17-.11v-1.78c0-.04-.02-.07-.05-.1a1.86 1.86 0 0 0-1.86-.36.12.12 0 0 0-.08.12v1.84c.01.07.08.13.15.12zM26.26 500.93c.56-.08 1.12.03 1.67.27.08.04.17-.02.17-.11v-1.78c0-.04-.02-.07-.05-.1a1.86 1.86 0 0 0-1.86-.36.12.12 0 0 0-.08.12v1.84c.01.07.08.13.15.12zM28.56 504.18c.4.31.72.58 1 .83.08.07.21.01.21-.09v-1.86a.16.16 0 0 0-.03-.09 5.67 5.67 0 0 0-1.03-.87c-.08-.05-.19.01-.19.11v1.87c-.01.04.01.07.04.1zM28.56 501.5c.4.31.72.58 1 .83.08.07.21.01.21-.09v-1.86a.16.16 0 0 0-.03-.09 5.67 5.67 0 0 0-1.03-.87c-.08-.05-.19.01-.19.11v1.87a.1.1 0 0 0 .04.1zM31.76 508.48c-.5-1.11-1-2.08-1.51-2.64a.11.11 0 0 1-.03-.08v-1.78c0-.12.16-.17.22-.07a19.45 19.45 0 0 1 1.6 2.83l-.05 1.7c0 .12-.18.16-.23.04zM31.76 505.84c-.5-1.11-1-2.08-1.51-2.64a.11.11 0 0 1-.03-.08v-1.78c0-.12.16-.17.22-.07a19.45 19.45 0 0 1 1.6 2.83l-.05 1.7c0 .12-.18.16-.23.04zM26.26 508.9c.56-.08 1.12.03 1.67.27.08.04.17-.02.17-.11v-1.78c0-.04-.02-.07-.05-.1a1.86 1.86 0 0 0-1.86-.36.12.12 0 0 0-.08.12v1.84c.01.08.08.13.15.12zM26.26 506.25c.56-.08 1.12.03 1.67.27.08.04.17-.02.17-.11v-1.78c0-.04-.02-.07-.05-.1a1.86 1.86 0 0 0-1.86-.36.12.12 0 0 0-.08.12v1.84c.01.07.08.13.15.12zM28.56 509.49c.4.31.72.58 1 .83.08.07.21.01.21-.09v-1.86a.16.16 0 0 0-.03-.09 5.67 5.67 0 0 0-1.03-.87c-.08-.05-.19.01-.19.11v1.87a.1.1 0 0 0 .04.1zM28.56 506.82c.4.31.72.58 1 .83.08.07.21.01.21-.09v-1.86a.16.16 0 0 0-.03-.09 5.67 5.67 0 0 0-1.03-.87c-.08-.05-.19.01-.19.11v1.87c-.01.04.01.07.04.1zM31.76 513.79c-.5-1.11-1-2.08-1.51-2.64a.11.11 0 0 1-.03-.08v-1.78c0-.12.16-.17.22-.07a19.45 19.45 0 0 1 1.6 2.83l-.05 1.7c0 .13-.18.16-.23.04zM31.76 511.16c-.5-1.11-1-2.08-1.51-2.64a.11.11 0 0 1-.03-.08v-1.78c0-.12.16-.17.22-.07a19.45 19.45 0 0 1 1.6 2.83l-.05 1.7c0 .12-.18.16-.23.04zM38.49 503.48a3.06 3.06 0 0 0-1.67.27c-.08.04-.17-.02-.17-.11v-1.78c0-.04.02-.07.05-.1.56-.44 1.17-.6 1.86-.36.05.02.08.06.08.12v1.84c-.01.08-.07.13-.15.12zM38.49 500.82a3.06 3.06 0 0 0-1.67.27c-.08.04-.17-.02-.17-.11v-1.78c0-.04.02-.07.05-.1.56-.44 1.17-.6 1.86-.36.05.02.08.06.08.12v1.84c-.01.08-.07.14-.15.12zM36.19 504.07c-.4.31-.72.58-1 .83-.08.07-.21.01-.21-.09v-1.86l.03-.09c.34-.36.69-.65 1.03-.87.08-.05.19.01.19.11v1.87a.1.1 0 0 1-.04.1zM36.19 501.39c-.4.31-.72.58-1 .83-.08.07-.21.01-.21-.09v-1.86l.03-.09c.34-.36.69-.65 1.03-.87.08-.05.19.01.19.11v1.87c.01.05-.01.08-.04.1zM32.99 508.37c.5-1.11 1-2.08 1.51-2.64a.11.11 0 0 0 .03-.08v-1.78c0-.12-.16-.17-.22-.07-.53.75-1.06 1.67-1.59 2.77l-.01.06.05 1.7c0 .13.18.16.23.04zM32.99 505.73c.5-1.11 1-2.08 1.51-2.64a.11.11 0 0 0 .03-.08v-1.78c0-.12-.16-.17-.22-.07-.53.75-1.06 1.67-1.59 2.77l-.01.06.05 1.7c0 .13.18.17.23.04zM38.49 508.8a3.06 3.06 0 0 0-1.67.27c-.08.04-.17-.02-.17-.11v-1.78c0-.04.02-.07.05-.1.56-.44 1.17-.6 1.86-.36.05.02.08.06.08.12v1.84c-.01.07-.07.13-.15.12zM38.49 506.14a3.06 3.06 0 0 0-1.67.27c-.08.04-.17-.02-.17-.11v-1.78c0-.04.02-.07.05-.1.56-.44 1.17-.6 1.86-.36.05.02.08.06.08.12v1.84c-.01.07-.07.13-.15.12zM36.19 509.39c-.4.31-.72.58-1 .83-.08.07-.21.01-.21-.09v-1.86l.03-.09c.34-.36.69-.65 1.03-.87.08-.05.19.01.19.11v1.87c.01.04-.01.07-.04.1zM36.19 506.71c-.4.31-.72.58-1 .83-.08.07-.21.01-.21-.09v-1.86l.03-.09c.34-.36.69-.65 1.03-.87.08-.05.19.01.19.11v1.87a.1.1 0 0 1-.04.1zM32.99 513.69c.5-1.11 1-2.08 1.51-2.64a.11.11 0 0 0 .03-.08v-1.78c0-.12-.16-.17-.22-.07-.53.75-1.06 1.67-1.59 2.77l-.01.06.05 1.7c0 .12.18.16.23.04zM32.99 511.05c.5-1.11 1-2.08 1.51-2.64a.11.11 0 0 0 .03-.08v-1.78c0-.12-.16-.17-.22-.07-.53.75-1.06 1.67-1.59 2.77l-.01.06.05 1.7c0 .13.18.16.23.04zM26.26 535.7c.56-.08 1.12.03 1.67.27.08.04.17-.02.17-.11v-1.78c0-.04-.02-.07-.05-.1a1.86 1.86 0 0 0-1.86-.36.12.12 0 0 0-.08.12v1.84c.01.07.08.13.15.12zM26.26 533.04c.56-.08 1.12.03 1.67.27.08.04.17-.02.17-.11v-1.78c0-.04-.02-.07-.05-.1a1.86 1.86 0 0 0-1.86-.36.12.12 0 0 0-.08.12v1.84c.01.07.08.13.15.12zM28.56 536.29c.4.31.72.58 1 .83.08.07.21.01.21-.09v-1.86a.16.16 0 0 0-.03-.09 5.67 5.67 0 0 0-1.03-.87c-.08-.05-.19.01-.19.11v1.87c-.01.04.01.07.04.1zM28.56 533.61c.4.31.72.58 1 .83.08.07.21.01.21-.09v-1.86a.16.16 0 0 0-.03-.09 5.67 5.67 0 0 0-1.03-.87c-.08-.05-.19.01-.19.11v1.87a.1.1 0 0 0 .04.1zM31.76 540.59c-.5-1.11-1-2.08-1.51-2.64a.11.11 0 0 1-.03-.08v-1.78c0-.12.16-.17.22-.07a19.45 19.45 0 0 1 1.6 2.83l-.05 1.7c0 .12-.18.16-.23.04zM31.76 537.95c-.5-1.11-1-2.08-1.51-2.64a.11.11 0 0 1-.03-.08v-1.78c0-.12.16-.17.22-.07a19.45 19.45 0 0 1 1.6 2.83L32 537.9c-.01.14-.19.17-.24.05zM26.26 541.01c.56-.08 1.12.03 1.67.27.08.04.17-.02.17-.11v-1.78c0-.04-.02-.07-.05-.1a1.86 1.86 0 0 0-1.86-.36.12.12 0 0 0-.08.12v1.84c.01.08.08.14.15.12zM26.26 538.36c.56-.08 1.12.03 1.67.27.08.04.17-.02.17-.11v-1.78c0-.04-.02-.07-.05-.1a1.86 1.86 0 0 0-1.86-.36.12.12 0 0 0-.08.12v1.84c.01.07.08.13.15.12zM28.56 541.6c.4.31.72.58 1 .83.08.07.21.01.21-.09v-1.86a.16.16 0 0 0-.03-.09 5.67 5.67 0 0 0-1.03-.87c-.08-.05-.19.01-.19.11v1.87a.1.1 0 0 0 .04.1zM28.56 538.93c.4.31.72.58 1 .83.08.07.21.01.21-.09v-1.86a.16.16 0 0 0-.03-.09 5.67 5.67 0 0 0-1.03-.87c-.08-.05-.19.01-.19.11v1.87c-.01.04.01.07.04.1zM31.76 545.9c-.5-1.11-1-2.08-1.51-2.64a.11.11 0 0 1-.03-.08v-1.78c0-.12.16-.17.22-.07a19.45 19.45 0 0 1 1.6 2.83l-.05 1.7c0 .13-.18.16-.23.04zM31.76 543.27c-.5-1.11-1-2.08-1.51-2.64a.11.11 0 0 1-.03-.08v-1.78c0-.12.16-.17.22-.07a19.45 19.45 0 0 1 1.6 2.83l-.05 1.7c0 .12-.18.16-.23.04zM38.49 535.59a3.06 3.06 0 0 0-1.67.27c-.08.04-.17-.02-.17-.11v-1.78c0-.04.02-.07.05-.1.56-.44 1.17-.6 1.86-.36.05.02.08.06.08.12v1.84c-.01.08-.07.13-.15.12zM38.49 532.94a3.06 3.06 0 0 0-1.67.27c-.08.04-.17-.02-.17-.11v-1.78c0-.04.02-.07.05-.1.56-.44 1.17-.6 1.86-.36.05.02.08.06.08.12v1.84c-.01.07-.07.13-.15.12zM36.19 536.18c-.4.31-.72.58-1 .83-.08.07-.21.01-.21-.09v-1.86l.03-.09c.34-.36.69-.65 1.03-.87.08-.05.19.01.19.11v1.87a.1.1 0 0 1-.04.1zM36.19 533.51c-.4.31-.72.58-1 .83-.08.07-.21.01-.21-.09v-1.86l.03-.09c.34-.36.69-.65 1.03-.87.08-.05.19.01.19.11v1.87c.01.04-.01.07-.04.1zM32.99 540.48c.5-1.11 1-2.08 1.51-2.64a.11.11 0 0 0 .03-.08v-1.78c0-.12-.16-.17-.22-.07-.53.75-1.06 1.67-1.59 2.77l-.01.06.05 1.7c0 .13.18.16.23.04zM32.99 537.85c.5-1.11 1-2.08 1.51-2.64a.11.11 0 0 0 .03-.08v-1.78c0-.12-.16-.17-.22-.07-.53.75-1.06 1.67-1.59 2.77l-.01.06.05 1.7c0 .12.18.16.23.04zM38.49 540.91a3.06 3.06 0 0 0-1.67.27c-.08.04-.17-.02-.17-.11v-1.78c0-.04.02-.07.05-.1.56-.44 1.17-.6 1.86-.36.05.02.08.06.08.12v1.84c-.01.07-.07.13-.15.12zM38.49 538.25a3.06 3.06 0 0 0-1.67.27c-.08.04-.17-.02-.17-.11v-1.78c0-.04.02-.07.05-.1.56-.44 1.17-.6 1.86-.36.05.02.08.06.08.12v1.84c-.01.08-.07.13-.15.12zM36.19 541.5c-.4.31-.72.58-1 .83-.08.07-.21.01-.21-.09v-1.86l.03-.09c.34-.36.69-.65 1.03-.87.08-.05.19.01.19.11v1.87a.1.1 0 0 1-.04.1zM36.19 538.82c-.4.31-.72.58-1 .83-.08.07-.21.01-.21-.09v-1.86l.03-.09c.34-.36.69-.65 1.03-.87.08-.05.19.01.19.11v1.87a.1.1 0 0 1-.04.1zM32.99 545.8c.5-1.11 1-2.08 1.51-2.64a.11.11 0 0 0 .03-.08v-1.78c0-.12-.16-.17-.22-.07-.53.75-1.06 1.67-1.59 2.77l-.01.06.05 1.7c0 .12.18.16.23.04zM32.99 543.16c.5-1.11 1-2.08 1.51-2.64a.11.11 0 0 0 .03-.08v-1.78c0-.12-.16-.17-.22-.07-.53.75-1.06 1.67-1.59 2.77l-.01.06.05 1.7c0 .13.18.16.23.04zM26.26 525.09c.56-.08 1.12.03 1.67.27.08.04.17-.02.17-.11v-1.78c0-.04-.02-.07-.05-.1a1.86 1.86 0 0 0-1.86-.36.12.12 0 0 0-.08.12v1.84c.01.07.08.13.15.12zM26.26 522.43c.56-.08 1.12.03 1.67.27.08.04.17-.02.17-.11v-1.78c0-.04-.02-.07-.05-.1a1.86 1.86 0 0 0-1.86-.36.12.12 0 0 0-.08.12v1.84c.01.07.08.13.15.12zM28.56 525.68c.4.31.72.58 1 .83.08.07.21.01.21-.09v-1.86a.16.16 0 0 0-.03-.09 5.67 5.67 0 0 0-1.03-.87c-.08-.05-.19.01-.19.11v1.87c-.01.04.01.07.04.1zM28.56 523c.4.31.72.58 1 .83.08.07.21.01.21-.09v-1.86a.16.16 0 0 0-.03-.09 5.67 5.67 0 0 0-1.03-.87c-.08-.05-.19.01-.19.11v1.87a.1.1 0 0 0 .04.1zM31.76 529.98c-.5-1.11-1-2.08-1.51-2.64a.11.11 0 0 1-.03-.08v-1.78c0-.12.16-.17.22-.07a19.45 19.45 0 0 1 1.6 2.83l-.05 1.7c0 .12-.18.16-.23.04zM31.76 527.34c-.5-1.11-1-2.08-1.51-2.64a.11.11 0 0 1-.03-.08v-1.78c0-.12.16-.17.22-.07a19.45 19.45 0 0 1 1.6 2.83l-.05 1.7c0 .12-.18.16-.23.04zM26.26 530.4c.56-.08 1.12.03 1.67.27.08.04.17-.02.17-.11v-1.78c0-.04-.02-.07-.05-.1a1.86 1.86 0 0 0-1.86-.36.12.12 0 0 0-.08.12v1.84c.01.08.08.13.15.12zM26.26 527.75c.56-.08 1.12.03 1.67.27.08.04.17-.02.17-.11v-1.78c0-.04-.02-.07-.05-.1a1.86 1.86 0 0 0-1.86-.36.12.12 0 0 0-.08.12v1.84c.01.07.08.13.15.12zM28.56 530.99c.4.31.72.58 1 .83.08.07.21.01.21-.09v-1.86a.16.16 0 0 0-.03-.09 5.67 5.67 0 0 0-1.03-.87c-.08-.05-.19.01-.19.11v1.87a.1.1 0 0 0 .04.1zM28.56 528.32c.4.31.72.58 1 .83.08.07.21.01.21-.09v-1.86a.16.16 0 0 0-.03-.09 5.67 5.67 0 0 0-1.03-.87c-.08-.05-.19.01-.19.11v1.87c-.01.04.01.07.04.1zM31.76 535.29c-.5-1.11-1-2.08-1.51-2.64a.11.11 0 0 1-.03-.08v-1.78c0-.12.16-.17.22-.07a19.45 19.45 0 0 1 1.6 2.83l-.05 1.7c0 .13-.18.16-.23.04zM31.76 532.66c-.5-1.11-1-2.08-1.51-2.64a.11.11 0 0 1-.03-.08v-1.78c0-.12.16-.17.22-.07a19.45 19.45 0 0 1 1.6 2.83l-.05 1.7c0 .12-.18.16-.23.04zM38.49 524.98a3.06 3.06 0 0 0-1.67.27c-.08.04-.17-.02-.17-.11v-1.78c0-.04.02-.07.05-.1.56-.44 1.17-.6 1.86-.36.05.02.08.06.08.12v1.84c-.01.08-.07.13-.15.12zM38.49 522.32a3.06 3.06 0 0 0-1.67.27c-.08.04-.17-.02-.17-.11v-1.78c0-.04.02-.07.05-.1.56-.44 1.17-.6 1.86-.36.05.02.08.06.08.12v1.84c-.01.08-.07.14-.15.12zM36.19 525.57c-.4.31-.72.58-1 .83-.08.07-.21.01-.21-.09v-1.86l.03-.09c.34-.36.69-.65 1.03-.87.08-.05.19.01.19.11v1.87a.1.1 0 0 1-.04.1zM36.19 522.9c-.4.31-.72.58-1 .83-.08.07-.21.01-.21-.09v-1.86l.03-.09c.34-.36.69-.65 1.03-.87.08-.05.19.01.19.11v1.87c.01.04-.01.07-.04.1zM32.99 529.87c.5-1.11 1-2.08 1.51-2.64a.11.11 0 0 0 .03-.08v-1.78c0-.12-.16-.17-.22-.07-.53.75-1.06 1.67-1.59 2.77l-.01.06.05 1.7c0 .13.18.16.23.04zM32.99 527.23c.5-1.11 1-2.08 1.51-2.64a.11.11 0 0 0 .03-.08v-1.78c0-.12-.16-.17-.22-.07-.53.75-1.06 1.67-1.59 2.77l-.01.06.05 1.7c0 .13.18.17.23.04zM38.49 530.3a3.06 3.06 0 0 0-1.67.27c-.08.04-.17-.02-.17-.11v-1.78c0-.04.02-.07.05-.1.56-.44 1.17-.6 1.86-.36.05.02.08.06.08.12v1.84c-.01.07-.07.13-.15.12zM38.49 527.64a3.06 3.06 0 0 0-1.67.27c-.08.04-.17-.02-.17-.11v-1.78c0-.04.02-.07.05-.1.56-.44 1.17-.6 1.86-.36.05.02.08.06.08.12v1.84c-.01.07-.07.13-.15.12zM36.19 530.89c-.4.31-.72.58-1 .83-.08.07-.21.01-.21-.09v-1.86l.03-.09c.34-.36.69-.65 1.03-.87.08-.05.19.01.19.11v1.87a.1.1 0 0 1-.04.1zM36.19 528.21c-.4.31-.72.58-1 .83-.08.07-.21.01-.21-.09v-1.86l.03-.09c.34-.36.69-.65 1.03-.87.08-.05.19.01.19.11v1.87a.1.1 0 0 1-.04.1zM32.99 535.19c.5-1.11 1-2.08 1.51-2.64a.11.11 0 0 0 .03-.08v-1.78c0-.12-.16-.17-.22-.07-.53.75-1.06 1.67-1.59 2.77l-.01.06.05 1.7c0 .12.18.16.23.04zM32.99 532.55c.5-1.11 1-2.08 1.51-2.64a.11.11 0 0 0 .03-.08v-1.78c0-.12-.16-.17-.22-.07-.53.75-1.06 1.67-1.59 2.77l-.01.06.05 1.7c0 .13.18.16.23.04zM31.46 454.17l.3.64c.05.12.23.08.24-.05l.02-.6h-.56zM26.12 454.17v.95c0 .08.07.13.14.12.56-.08 1.12.03 1.67.27.08.04.17-.02.17-.11v-1.23h-1.98zM28.51 454.17v1.56c0 .04.02.07.05.1.4.31.72.58 1 .83.08.07.21.01.21-.09v-1.86a.16.16 0 0 0-.03-.09c-.16-.17-.32-.31-.47-.45h-.76zM31.76 460.13c-.5-1.11-1-2.08-1.51-2.64a.11.11 0 0 1-.03-.08v-1.78c0-.12.16-.17.22-.07a19.45 19.45 0 0 1 1.6 2.83l-.05 1.7c0 .12-.18.16-.23.04zM30.22 454.17v.6c0 .03.01.06.03.08.51.56 1.01 1.52 1.51 2.64.05.12.23.08.24-.05l.05-1.7-.01-.06c-.26-.55-.53-1.05-.79-1.51h-1.03zM32.74 454.17l.01.49c0 .13.18.17.24.05a13 13 0 0 1 .25-.54h-.5zM36.65 454.17v1.12c0 .09.09.15.17.11a3.06 3.06 0 0 1 1.67-.27c.07.01.14-.05.14-.12v-.84h-1.98zM35.37 454.17l-.36.35c-.02.02-.03.05-.03.09v1.86c0 .11.13.16.21.09.28-.25.61-.52 1-.83a.12.12 0 0 0 .05-.1v-1.46h-.87zM32.99 460.02c.5-1.11 1-2.08 1.51-2.64a.11.11 0 0 0 .03-.08v-1.78c0-.12-.16-.17-.22-.07-.53.75-1.06 1.67-1.59 2.77l-.01.06.05 1.7c0 .13.18.16.23.04zM33.46 454.17c-.24.43-.49.9-.73 1.41l-.01.06.05 1.7c0 .13.18.17.24.05.5-1.11 1-2.08 1.51-2.64a.11.11 0 0 0 .03-.08v-.49h-1.09z"/>
</defs>
  <use x="0" xlink:href="#path"/>
  <use x="72" xlink:href="#path"/>
  <use x="118" xlink:href="#path"/>
  <use x="190" xlink:href="#path"/>
  <use x="234" xlink:href="#path"/>
  <use x="306" xlink:href="#path"/>
</svg>
