<svg xmlns="http://www.w3.org/2000/svg" width="340" height="244" viewBox="0 0 340 244">
<style>
/* <![CDATA[ */

#smoke1 {
  animation: smoke1 1.2s -.6s ease-in-out infinite;
}

#smoke4 {
  animation: smoke4 1.5s -1s ease-in-out infinite;
}

@keyframes smoke1 {
  0% {
    opacity: 1;
    transform: translate(142px, 117px) rotate(0deg) scale(0) translate(-142px, -117px);
  }
  100% {
    opacity: 0;
    transform: translate(142px, 117px) rotate(80deg) scale(2) translate(-142px, -117px);
  }
}

@keyframes smoke4 {
  0% {
    opacity: 1;
    transform: translate(142px, 117px) rotate(0deg) scale(0) translate(-142px, -117px);
  }
  100% {
    opacity: 0;
    transform: translate(142px, 117px) rotate(-50deg) scale(2) translate(-142px, -117px);
  }
}

#smoke2 {
  animation: smoke2 1.7s -.3s ease-in-out infinite;
}

#smoke5 {
  animation: smoke5 1.3s -.8s ease-in-out infinite;
}

@keyframes smoke2 {
  0% {
    opacity: 1;
    transform: translate(190px, 122px) rotate(0deg) scale(0) translate(-190px, -122px);
  }
  100% {
    opacity: 0;
    transform: translate(190px, 122px) rotate(80deg) scale(2) translate(-190px, -122px);
  }
}

@keyframes smoke5 {
  0% {
    opacity: 1;
    transform: translate(190px, 122px) rotate(0deg) scale(0) translate(-190px, -122px);
  }
  100% {
    opacity: 0;
    transform: translate(190px, 122px) rotate(-110deg) scale(2) translate(-190px, -122px);
  }
}

#smoke3 {
  animation: smoke3 1.5s -1.1s ease-in-out infinite;
}

#smoke6 {
  animation: smoke6 1.1s -.7s ease-in-out infinite;
}

@keyframes smoke3 {
  0% {
    opacity: 1;
    transform: translate(152px, 119px) rotate(0deg) scale(0) translate(-152px, -119px);
  }
  100% {
    opacity: 0;
    transform: translate(152px, 119px) rotate(-70deg) scale(2) translate(-152px, -119px);
  }
}

@keyframes smoke6 {
  0% {
    opacity: 1;
    transform: translate(152px, 119px) rotate(0deg) scale(0) translate(-152px, -119px);
  }
  100% {
    opacity: 0;
    transform: translate(152px, 119px) rotate(50deg) scale(2) translate(-152px, -119px);
  }
}

/* ]]> */
</style>

<path id="smoke1" fill="#D9D9D9" d="M125.11 164.63a15.62 15.62 0 0 1-16.02-21.8 12.5 12.5 0 0 1-7.35-18.42 15.55 15.55 0 0 1-4.07-30.79 12.7 12.7 0 0 1 12.04-15.36 15.6 15.6 0 0 1 21.39-5.38l.24.14a11.77 11.77 0 0 1 10.89-.78 15.96 15.96 0 0 1 24.14 13.6l.18-.02a12.9 12.9 0 0 1 13.81 9.2 15 15 0 1 1 2.35 29.56 14.52 14.52 0 1 1-26.7-3.76 13.66 13.66 0 0 1-3.87-4.51l-.96.15c-.97.11-1.93.1-2.86-.02a15.54 15.54 0 0 1-23.96 10.53c.69 2.13.8 4.41.31 6.59a15.62 15.62 0 0 1 .44 31.1v-.03zm-12.13-46.39-.05.07h.17l-.11-.08-.01.01z"/>
<path id="smoke2" fill="#BFBFBF" d="M254.79 131.29a15.58 15.58 0 0 0-23.88-11.42 15.32 15.32 0 0 0-17-15.41h-.03c-.02-.33-.04-.66-.08-1a16.32 16.32 0 0 0-10.9-13.65 20.92 20.92 0 1 0-39.36-14.02 10.76 10.76 0 0 0-10.63 7.27 17.87 17.87 0 0 0-21.03 27.93 22.7 22.7 0 0 0 11.86 37.61 21.28 21.28 0 0 0 31.04 17.93 21.58 21.58 0 1 0 33.5-23.43c1.6-2.66 2.7-5.58 3.24-8.64a15.3 15.3 0 0 0 12.21-1.8 15.58 15.58 0 1 0 31.06-1.39v.02z"/>
<path id="smoke3" fill="#F1F2F2" d="M131.26 85.1a15.53 15.53 0 0 0 10.53 23.96c-.12.93-.13 1.89-.02 2.86.04.32.08.65.15.96a13.66 13.66 0 0 0-4.51 3.87c-2.59-1.49-7.71-.1-6.73.62a25.26 25.26 0 0 0-3.24 8.64 15.31 15.31 0 0 0-11.71 1.49 14.53 14.53 0 0 0 17.91 15.95 15 15 0 1 0 29.54-2.35c5.9-1.73 9.9-7.49 9.2-13.81l-.02-.18a15.95 15.95 0 0 0 13.6-24.14c.98-2.26 1.22-4.78.7-7.19a21.24 21.24 0 0 0-22.51-1.85 21.58 21.58 0 0 0-23.07-15.39c-5.55.61-10.62 6.8-9.83 6.55l.01.01z"/>
<path id="smoke4" fill="#D9D9D9" d="M125.11 164.63a15.62 15.62 0 0 1-16.02-21.8 12.5 12.5 0 0 1-7.35-18.42 15.55 15.55 0 0 1-4.07-30.79 12.7 12.7 0 0 1 12.04-15.36 15.6 15.6 0 0 1 21.39-5.38l.24.14a11.77 11.77 0 0 1 10.89-.78 15.96 15.96 0 0 1 24.14 13.6l.18-.02a12.9 12.9 0 0 1 13.81 9.2 15 15 0 1 1 2.35 29.56 14.52 14.52 0 1 1-26.7-3.76 13.66 13.66 0 0 1-3.87-4.51l-.96.15c-.97.11-1.93.1-2.86-.02a15.54 15.54 0 0 1-23.96 10.53c.69 2.13.8 4.41.31 6.59a15.62 15.62 0 0 1 .44 31.1v-.03zm-12.13-46.39-.05.07h.17l-.11-.08-.01.01z"/>
<path id="smoke5" fill="#BFBFBF" d="M254.79 131.29a15.58 15.58 0 0 0-23.88-11.42 15.32 15.32 0 0 0-17-15.41h-.03c-.02-.33-.04-.66-.08-1a16.32 16.32 0 0 0-10.9-13.65 20.92 20.92 0 1 0-39.36-14.02 10.76 10.76 0 0 0-10.63 7.27 17.87 17.87 0 0 0-21.03 27.93 22.7 22.7 0 0 0 11.86 37.61 21.28 21.28 0 0 0 31.04 17.93 21.58 21.58 0 1 0 33.5-23.43c1.6-2.66 2.7-5.58 3.24-8.64a15.3 15.3 0 0 0 12.21-1.8 15.58 15.58 0 1 0 31.06-1.39v.02z"/>
<path id="smoke6" fill="#F1F2F2" d="M131.26 85.1a15.53 15.53 0 0 0 10.53 23.96c-.12.93-.13 1.89-.02 2.86.04.32.08.65.15.96a13.66 13.66 0 0 0-4.51 3.87c-2.59-1.49-7.71-.1-6.73.62a25.26 25.26 0 0 0-3.24 8.64 15.31 15.31 0 0 0-11.71 1.49 14.53 14.53 0 0 0 17.91 15.95 15 15 0 1 0 29.54-2.35c5.9-1.73 9.9-7.49 9.2-13.81l-.02-.18a15.95 15.95 0 0 0 13.6-24.14c.98-2.26 1.22-4.78.7-7.19a21.24 21.24 0 0 0-22.51-1.85 21.58 21.58 0 0 0-23.07-15.39c-5.55.61-10.62 6.8-9.83 6.55l.01.01z"/>

</svg>
