<svg xmlns="http://www.w3.org/2000/svg" xmlns:xlink="http://www.w3.org/1999/xlink" viewBox="0 0 1260 900" style="background: linear-gradient(#1e90ff, #61b1ff)">
<style>
/* <![CDATA[ */
#cloud {
  animation: cloud 2s linear 3;
}
@keyframes cloud {
  0% {
    transform: translate(0px, 0px);
  }
  100% {
    transform: translate(1551px, 391px);
  }
}

.cld {
  animation: cloud_hide 6s linear forwards;
}
@keyframes cloud_hide {
  0%, 90% {
    opacity: 1;
  }
  100% {
    opacity: 0;
  }
}

#plane {
  animation: plane 8s linear forwards;
}
@keyframes plane {
  0%, 100% {
    transform: translate(0px, 0px) rotate(0deg);
  }
  20% {
    transform: translate(20px, 20px) rotate(5deg);
  }
  50% {
    transform: translate(-20px, -20px) rotate(-5deg);
  }
  68% {
    transform: translate(845px, 453px) scale(1) translate(-845px, -453px);
  }
  100% {
    transform: translate(845px, 453px) scale(.3) translate(-845px, -453px);
  }
}

#plane1 {
  animation: plane1 8s linear forwards;
}
@keyframes plane1 {
  0%, 60% {
    opacity: 1;
  }
  65%, 100% {
    opacity: 0;
  }
  0%, 55% {
    transform: translate(697px, 424px) rotate(0deg) translate(-697px, -424px);
  }
  65%, 100% {
    transform: translate(697px, 424px) rotate(10deg) translate(-697px, -424px);
  }
}
#plane2 {
  animation: plane2 8s linear forwards;
}
@keyframes plane2 {
  0%, 60%, 80%, 100% {
    opacity: 0;
  }
  65%, 75% {
    opacity: 1;
  }
  0%, 65% {
    transform: translate(697px, 424px) rotate(-10deg) translate(-697px, -424px);
  }
  85%, 100% {
    transform: translate(697px, 424px) rotate(0deg) translate(-697px, -424px);
  }
}
#plane3 {
  animation: plane3 8s linear forwards;
}
@keyframes plane3 {
  0%, 75%, 95%, 100% {
    opacity: 0;
  }
  80%, 90% {
    opacity: 1;
  }
  0%, 75% {
    transform: translate(697px, 424px) rotate(-10deg) translate(-697px, -424px);
  }
  95%, 100% {
    transform: translate(697px, 424px) rotate(0deg) translate(-697px, -424px);
  }
}
#plane4 {
  animation: plane4 8s linear forwards;
}
@keyframes plane4 {
  0%, 90%, 100% {
    opacity: 0;
  }
  95% {
    opacity: 1;
  }
  0%, 85% {
    transform: translate(697px, 424px) rotate(-10deg) translate(-697px, -424px);
  }
  95%, 100% {
    transform: translate(697px, 424px) rotate(0deg) translate(-697px, -424px);
  }
}

#globe {
  animation: globe 8s ease-out forwards;
}

@keyframes globe {
  0%, 40% {
    transform: scale(1) translate(-800px, 1000px);
    opacity: 0;
  }
  100% {
    transform: scale(3) translate(-220px, -370px);
    opacity: .5;
  }
}

/* ]]> */
</style>
<defs>
  <linearGradient id="grd" x1="0" x2="0" y1="0" y2="1">
    <stop offset="0" stop-color="#e2e2eb"/>
    <stop offset="1" stop-color="#f7f8fa"/>
  </linearGradient>
  <linearGradient id="grd1" x1="1" x2="0" y1=".7" y2=".3" xlink:href="#grd"/>
  <linearGradient id="grd2" x1="1" x2="0" y1="1" y2="0">
    <stop offset="0" stop-color="#d5d5de"/>
    <stop offset="1" stop-color="#f7f8fa"/>
  </linearGradient>
  <linearGradient id="grd3" x1="0" x2="0" y2="1" y1=".5">
    <stop offset="0" stop-color="#f4f5f5"/>
    <stop offset="1" stop-color="#e0e0eb"/>
  </linearGradient>
  <linearGradient id="grd4" x1="0" x2="0" y1=".2" y2=".7">
    <stop offset="0" stop-color="#e2e2eb"/>
    <stop offset="1" stop-color="#f7f8fa"/>
  </linearGradient>
</defs>

<g id="globe" opacity=".5" transform="scale(1) translate(-800 1000)">
  <g fill="none" stroke="#fff" stroke-miterlimit="10">
    <circle cx="436.02" cy="436.02" r="435.52"/>
    <path d="M160.444 98.761c85.047-27.523 174.856-39.41 275.576-39.41 106.809 0 239.806 17.159 294.461 55.778"/>
    <path d="M160.444 169.345c85.047-27.523 174.852-39.41 275.576-39.41 106.809 0 303.8 16.189 368.233 73.426"/>
    <path d="M16.454 318.821c44.854-81.078 301.209-97.012 401.913-99 115.431-2.282 389.724 16.635 436.116 95.1"/>
    <path d="M.5 433.205C26.519 345.7 327.487 325.617 418.367 325.617c112.075 0 276.294 4.733 391.837 53.88 32.67 13.9 61.336 35.915 61.336 56.523"/>
    <path d="M675.129 800.1c-69.035 41.232-151.384 65.178-239.81 65.178-82.256 0-159.255-20.722-225.168-56.8"/>
    <path d="M839.9 599.3c-68.192 153.211-223.014 260.177-403.09 260.177-195.99 0-362.066-126.708-419.1-301.84"/>
    <path d="M786.252 177.109c44.53 74.706 70.842 137.737 70.842 217.26 0 123.5-41.139 228.77-116.148 313.1-78.723 88.5-187 144.363-300.145 144.363-169.535 0-317.676-110.3-387.435-266.456-27.191-60.871-36.912-119.699-36.912-190.686 0-58.675 20.063-124.177 46.117-182.794"/>
    <path d="M428.8 851.828s-194.621-4.895-318.373-252.4 16.8-456.209 16.8-456.209"/>
    <path d="M393.127 841.235S210.151 774.4 144.967 497.523C71.944 187.349 252.649 40.873 252.649 40.873"/>
    <path d="M445.459 856.8c102.971-19.98 188.689-73.359 261.668-167.136C771.861 606.482 813.4 503.282 813.4 382.916c0-100.293-31.487-182.657-70.829-237.384C694.328 78.421 629.43 45.7 629.43 45.7"/>
    <path d="M407.561 841.235S268.273 761.7 226.186 452.059 333.408 25.175 333.408 25.175"/>
    <path d="M365.474 20.165S321.383 158.451 322.385 326.8s36.075 393.814 85.176 493.02"/>
    <line x1="436.02" x2="436.02" y1="832.685" y2=".5"/>
    <path d="M482.717 8.14s48.1 28.058 63.13 214.444-21 506.047-86.156 597.236"/>
    <path d="M517.66 8.14s67.467 19.66 107.351 135.079c38.229 110.631 41.283 270.761 0 420.07-19.535 70.656-47.035 138.51-79.885 190.086-27.844 43.717-63.742 83.646-97.683 95.767"/>
    <path d="M551.141 15.879s97.429 22.186 151.67 142.245 57 270.99 0 421.005S547.02 819.82 461.17 851.3"/>
    <path d="M455 15.879s86.97 1.229 167.742 26.573"/>
    <path d="M16.454 553.223S9.328 535.03 33.7 514.469s95.052-51.081 192.491-62.41c96.249-11.191 236.948-26.849 421.372 0 174.606 25.419 211.887 72.912 209.176 96.968"/>
    <path d="M60.148 656.151s-10.385-33.629 50.282-56.723S266.828 550.9 436.02 550.9s288.474 28.786 327.837 48.18 51.505 34.08 49.543 54.48"/>
    <path d="M132.924 748.764s-22.619-27.171 36.8-53.9 170.244-38.708 266.3-38.708 215.788 13.485 270.185 40.7c54.571 27.307 35.007 49.864 35.007 49.864"/>
    <path d="M225.344 816.413s-24.525-19.948 21.715-42.276 140.025-28.48 189.418-28.48 171.592 5.177 210.9 42.458c14.771 14.009 0 28.789 0 28.789"/>
    <path d="M476.749 816.9s33.5 3.752 51.283 10.266c27.831 10.2 26.729 24.131.7 34.48"/>
  </g>
  <g fill="#fff">
    <path d="M184.514 277.615c6.029-.228 5.925 4.049 6.344 7.425.547 4.4 1.853 7.087 6.771 8.408 7.437 2 11.378 10.022 10.924 18.012-.18 3.167 1.5 6.456 2.436 9.66.286.982 1.172 1.832 1.306 2.807a54.8 54.8 0 01.24 5.727c-2.084-.3-4.62.044-6.169-1.03-4.834-3.352-10.916-5.492-12.815-12.075-1.273-4.413-4.074-8.773-3.972-13.1.167-7.077-3.9-11.5-7.541-16.383-.6-.8-2.33-.749-4.378-1.329 8.2-17.966 5.421-37.219 3.561-56.81-6.489 2.239-9.157 11.18-18.051 8.722.863-2.247 1.706-4.249 2.406-6.3 2.273-6.656.683-12.5-3.1-18.306-1.544-2.367-1.338-5.852-2.036-8.8-.481-2.037-1.148-4.029-1.732-6.042-1.574 1.213-3.165 2.4-4.715 3.647-1.162.932-2.128 2.23-3.427 2.846-4.141 1.963-8.429 3.614-12.588 5.542a9.67 9.67 0 00-3.15 2.492c-3.522 4.141-6.912 8.393-10.387 12.575-6.865 8.259-13.709 16.536-20.661 24.721-1.785 2.1-4.226 3.675-5.862 5.867-2.286 3.063-4.941 6.239-5.952 9.79-2.7 9.5-4.143 19.36-7.024 28.791-1.568 5.134-5.065 9.675-7.658 14.5a31.962 31.962 0 01-4.951 7.523c-5.2-27.154-5.573-54 4.866-81.876l-8.113 6.6 1.028-22.938-15.54 12.651-1.548-1.844Q129.01 91.56 274.713 31.531C380.65-11.889 502.587-5.058 571.377 24.8c-8.8-.532-17.6-1.119-26.412-1.532-1.263-.06-2.566.717-3.85 1.107.988.882 1.938 1.811 2.972 2.634 1.5 1.194 4.513 2.642 4.339 3.4-.6 2.627-1.779 5.669-3.773 7.233-1.278 1-3.46.682-3.112 3.269-1.844.194-4.338 1.247-5.418.43a140.6 140.6 0 01-12.553-11.03c-2.059-1.983-2.43-4.42.779-5.774 3.922-1.657 7.977-3 11.975-4.478l.086-1.7c-1.566-.116-3.131-.284-4.7-.335-2.626-.087-5.328.278-7.866-.223-5.087-1-9.868-3.778-14.589 1.849-1.319 1.572-6.2.239-9.433.057-.762-.043-1.5-1.233-2.22-1.2-12.6.626-25.308-3.48-37.815.707-6.881 2.3-13.7 4.8-20.544 7.206q.046.854.094 1.705c5.017.3 10.076.3 15.036 1a43.556 43.556 0 019.806 3.066c.644.257 1.167 2.079.951 2.991a81.7 81.7 0 01-2.6 8.074c-.451 1.287-.7 2.957-1.633 3.713-9.427 7.621-18.606 15.733-30.47 19.453-2.274.713-4.986 0-7.5-.006-1.472 0-3.257-.433-4.362.23-4.633 2.776-11.131 2.364-13.731 8.962-.762 1.936-5.122 2.41-7.787 3.655-1.733.81-3.382 1.8-2.848 1.692 2.142 3.159 4.243 6.347 6.434 9.472 3.913 5.583 1.893 11.032-4.617 12.611-3.535.857-7 2-10.516 2.935a7.327 7.327 0 01-2.138-.134l.49-10.542 3.053-1.85c-2.075-1.453-3.547-3-5.333-3.588-1.685-.559-3.7-.12-6.16-.12l4.611-6.66c-8.034-4.315-14.694.625-21.667 2.423l-.84-1.242 4.5-5.016c-.541-.45-1.356-1.5-1.7-1.362-8.564 3.41-17.078 6.944-25.67 10.486 3.555 5.713 8.5 6.937 13.81 5.247 3.741-1.19 8-.749 12.031-1.036l.09 1.326-20.924 10.432c4.483 6.246 8.583 11.343 11.818 16.94.723 1.251-1.588 4.255-2.5 6.453l-2.761 1.334 5.371 2.72c-1.549 4.143-2.655 7.79-7.453 9.918-3.327 1.475-5.7 5.518-8.023 8.759-7.877 11.008-19 17.841-30.72 23.69-4.407 2.2-9.778 2.382-14.539 3.987-2.9.977-5.4 3.062-8.207 4.379a33.42 33.42 0 01-7.823 2.869c-3.4.64-5.663 2.045-7.006 5.361-.595 1.469-2.288 2.493-3.482 3.719l-1.226-.63v-6.18c-8.541-3.631-13.982 2.381-19.54 6.674-10.088 7.791-9.851 17.272.023 25.623a2.07 2.07 0 00.435.289c8.868 4.238 8.333 12.551 8.413 20.3.084 8.01-3.435 14.1-10.693 18.265-3.68 2.11-6.586 5.584-9.807 8.48-3.092 2.782-6.138 5.614-10.17 9.309-.372-2.65-1.275-4.593-.72-5.931 2.006-4.839-1.212-6.293-4.53-6.566-3.58-.3-5.231-1.849-6.442-4.91-2.673-6.756-4.234-7.6-11.629-6.756l.408-4.488c-3.6-.588-4.9.861-5.863 4.2-1.729 5.99-4.388 11.707-6.489 17.6-.848 2.377-1.255 4.915-1.984 7.87z"/>
    <path d="M502.832 615.028l-8.447-6.431.866-1.157c-.333-.037-.838-.234-.974-.088-7.637 8.191-15.329 2.058-22.52-.537-2.627-.948-4.8-5.275-5.674-8.472-1.386-5.093-3.364-8.73-9.045-8.958v-7.8l-8.113 5.829 6.671-16.965-16.5 9.638 2.13 3.813c-1.145-1.784-2.776-3.427-3.345-5.38-1.735-5.954-10.944-14.311-16.973-15.371-4.32-.759-8.567-2.96-12.81-2.865-5.086.114-10.131 2-15.2 3.089-3.862.832-8 1.011-11.534 2.578-5.374 2.387-12.023 2.925-14.653 9.933-1.9 5.064-7.677 4.124-11.009 3.551-8.785-1.51-14.981 2.546-21.01 7.44-4.23 3.434-8.517 3.221-13.078 1.441-1.933-.755-3.663-2.013-5.57-2.847-3.26-1.424-3.238-2.445-1.67-6.069 1.585-3.666 1.064-9.419-.767-13.167-5.856-11.99-12.831-23.429-19.156-35.2-1.013-1.885-.91-4.37-1.4-7l4.649 2.528c-2.618-5.43-5.973-10.025-6.944-15.077-.948-4.932.539-10.331 1.026-16.371l1.517 2.476c4.417-3.906 8.5-8.345 13.383-11.563 3.732-2.459 8.482-3.371 12.778-4.973 4.134-1.541 8.254-3.121 12.4-4.62 6.616-2.39 12.839-11.169 13.486-18.1.272-2.9 1.933-5.676 3.112-8.918l5.677 5.545.982-1.126c-2.2-5.585-1.771-6.481 3.2-6.782 1.831-9.93 9.15-14.76 17.555-18.021 1.888-.733 5.749.779 7.273 2.514 3.576 4.071 7.716 4.859 13.045 4.179-1-4.515.612-8.139 4.192-11.04.579-.47.427-1.756.8-2.579 1.8-3.971 4.208-7.178 9.231-6.821a6.6 6.6 0 002.559.057c1.832-.678 3.568-1.617 5.342-2.451l-3.688-5.873c1.975.4 4.5.221 6.072 1.353 7.54 5.414 15.766 6.477 24.662 5.065 1.326-.211 3.648.427 4.076 1.342.56 1.2.26 3.855-.653 4.506-4.277 3.052-4.806 8.332-7.794 12.05-2.038 2.539-1.553 4.471.961 6.041 7.017 4.384 14.114 8.638 21.127 13.027 2.728 1.707 5.179 3.893 8 5.409 3.822 2.055 6.872.337 8.488-3.214 3.517-7.73 5.825-15.55 5.4-24.465-.395-8.227 2.116-16.4 7.6-25.073 3.353 11.116 6.244 20.7 9.192 30.468l4.288-1.812c3.91 2.991 5.826 6.4 5.673 11.485-.1 3.181 2.155 6.384 3.053 9.66a22.931 22.931 0 011.174 7.578c-.353 4.541 1.053 7.752 5.148 9.827 1.546.783 2.939 1.864 4.42 2.778 7.768 4.794 10.653 12.546 12.591 20.831 4.026.682 6.888 2.064 7.545 6.882a15.985 15.985 0 004.205 7.952c6.152 6.692 9.863 13.823 7 23.215-.448 1.468.517 3.343.732 5.042.213 1.681.864 3.573.354 5.035-3.074 8.817-5.795 17.851-9.92 26.174-2.5 5.054-7.943 8.58-10.956 13.474-4.235 6.878-7.326 14.452-11.179 21.581-.866 1.6-2.971 3.8-4.316 3.67-7.735-.718-13.282 3.325-18.737 8.13z"/>
    <path d="M315.855 821.052l-10.128-8.752 1.414-.539-4.494-13.268c2-3.185 8.018-1.957 7.142-7.149 9.927 3.106 19.207-1.789 29.011-3.333.663-2.778 1.3-5.424 2.075-8.69 3.2 1.121 6.24 1.854 8.971 3.215 5.955 2.969 11.046 1.527 15.888-2.375 3.15-2.539 6.175-3.217 10.416-1.573 4.889 1.9 10.385 2.251 15.635 3.176a3.5 3.5 0 002.534-.435c6.632-5.466 14.414-2.808 21.775-3.328a147.562 147.562 0 0017.5-2.412c1.444-.278 2.563-2.245 4.419-3.987 1.259 8.789 7.573 7.424 13.569 7.1a84.7 84.7 0 0110.954.227c2.71.207 6.215-.484 6.2 4.2 0 .682 1.742 1.72 2.83 2 5.581 1.417 11.381 2.165 16.766 4.093a25.732 25.732 0 0110.047 6.515 16.347 16.347 0 009.623 5.3c3.183.634 6.149 2.359 10.384 4.074-6.671 5.412-12.875 7.538-19.308 9.6a60.933 60.933 0 00-14.258 7.222c-1.95 1.269-2.807 4.218-4.382 6.762-3.816 1.457-9.3 2.342-13.011 5.385-2.577 2.112-3.206 7.155-3.53 10.987-.063.757 5.24 1.966 8.217 3.019l-2.38 2.493c2.38 3.309 3.9 3.339 7.394 2.03 6.934-2.6 14.048-4.723 21.126-6.921.635-.2 1.542.519 2.332.782 5.713 1.907 9.738.246 13.751-4.54 1.669-1.99 4.605-2.94 7.009-4.283 2.631-1.47 4.211-.8 6.56 1.474 1.574 1.521 6.055 1.439 8.5.378 6.2-2.689 11.369.044 17.259 1.911-2.618 4.906-4.133 10.16-10.747 11.835-3.716.942-6.708 4.658-10.425 5.691-10.694 2.972-21.475 5.994-32.426 7.613a428.308 428.308 0 01-173.66-9.457 126.453 126.453 0 01-23.8-9.112c-6.723-3.343-12.713-8.157-19.508-12.64l1.1-.592-24.223-21.456q.5-.889 1.007-1.779l18.528 2.434c.44-3.394 4.815-6.018 8.528-4.564 4.1 1.6 7.714 4.391 11.676 6.4 5.031 2.543 10.2 4.817 15.309 7.207z"/>
    <path d="M414.266 343.8l12.186-2.917c-9.33.627-15.545-6.011-23.2-9.722 7.211-.954 13.274-6.6 21.227-3.263 3.349 1.4 5.362 2.616 5.631 6.267.47 6.371 1.986 12.089 8.91 13.334 4.257-3.387 8.112-6.79 12.31-9.7 4.052-2.807 8.56-2.257 13-.613 13.679 5.061 27.409 9.984 41.036 15.18a23.535 23.535 0 0113.287 11.689c1.234 2.427 5.191 3.445 7.868 5.169 2.126 1.37 4.189 2.839 6.28 4.264l-.683 1.363-5.43.8c.432 5.821 9.512 16.146 25.565 30.538a38 38 0 01-5.671-.555c-1.966-.478-3.777-1.919-5.727-2.081-9.817-.817-15.53-7.018-20.006-14.85-4.217-7.377-14.873-8.629-21.2-3.275-1.164.985-.833 3.736-1.225 5.854-5.468 2.921-15.734 1.657-20.214-2.738-3.863-3.79-7.86-5.687-13.421-3.064-2.115 1-5.094.162-8.671.162 1.619-2.384 2.473-5.18 4.109-5.756 4.572-1.611 3.3-4.418 2.515-7.49-1.35-5.315-3.787-9.478-9.4-11.477-9.064-3.23-17.99-6.845-27.313-10.428-4.1 3.851-3.941 3.772-6.84-1.954-.862-1.703-2.877-2.825-4.923-4.737z"/>
    <path d="M314.946 321.157c-8.1-.092-10.42 4.459-9.68 11.511a3.215 3.215 0 01-1.242 2.618c-5.319 2.775-5.907 7.48-5.96 12.766-.028 2.889-1.131 5.766-1.6 7.929-3.509 1.484-6.438 2.723-9.367 3.958-4.471-4.768-10.606-6.063-17-3.622-.951.363-2.045 1.006-2.909.806-2-.461-3.845-1.665-5.848-2a45.484 45.484 0 00-7.092-.083 19.684 19.684 0 00-5.621-13.289c-4.749-4.94-4.478-14.982-.569-19.347a6.679 6.679 0 015.006-1.663c4.089.417 6.868-.183 8.5-4.658a9.26 9.26 0 015.486-5.124c4.9-1.244 8.094-4.071 11.259-7.748 4.044-4.7 8.848-8.738 13.2-13.178a68.569 68.569 0 007.579-8.555c2.481-3.568 5.562-3.367 6.859-.226 1.974 4.78 5.793 5.329 9.689 6.468a12.081 12.081 0 012.193 1.161c-3.952 4.315-7.745 8.422-11.5 12.566-2.08 2.3-1.971 4.336.221 6.76 1.193 1.32 1.035 3.783 2.071 5.342a93.24 93.24 0 006.325 7.608z"/>
    <path d="M159.046 309.876c7.476-1.306 13.53-2.9 18.343 4.381 3.078 4.656 8.028 8.1 12.266 11.941a4.171 4.171 0 003.242.967c4.754-1.2 7.478 1.642 10.213 4.671 2.265 2.51 4.582 4.973 7.271 7.884l-1.748 5.067 1.245-.546c2.215 3.056 4.276 6.243 6.719 9.105.979 1.147 3.012 1.338 4.186 2.388 1.865 1.666 4.789 3.651 4.84 5.566.169 6.359-.744 12.747-1.246 19.179-4.03 2.066-7.191 1.241-10.567-2.064-4.517-4.423-10.1-7.773-14.525-12.272-3.471-3.529-5.861-8.115-8.77-12.2-2.191-3.081-4.433-6.127-6.679-9.169-.407-.552-1.3-.967-1.367-1.517-.969-8.173-7.27-13.009-11.865-18.853-2.546-3.238-5.862-5.86-8.576-8.981-1.233-1.423-1.848-3.379-2.982-5.547z"/>
    <path d="M446.551 92c8.687 3.134 18.887-4.577 18.661-13.5-.035-1.392 2.631-3.422 4.452-4.166 3.427-1.4 4.651 1.822 5.529 4.051.707 1.8 1.027 5.292.087 5.932-4.8 3.273-2.517 8.634-4.44 12.611-.917 1.9-1.854 4.375-3.485 5.2a18.653 18.653 0 01-8.555 1.866c-5.572-.127-10.658.587-15.1 4.289-2.547 2.122-5.478 1.372-6.474-1.342-1.515-4.128-3.725-2.186-6.94-1.791 1.905 1.047 2.973 1.635 4.611 2.537-1.385 1.227-2.236 2.589-3.354 2.861-3.779.921-7.653 1.456-11.49 2.138l-.756-1.5c1.4-1.251 2.632-2.834 4.25-3.655 1.476-.749 3.37-.673 5.08-.96l-.233-1.418-15.84 3.407 4.337 3.447c-1.235 2.359-2.048 5-3.74 6.813-1.429 1.535-3.878 2.121-5.875 3.126l-1.378-5.936-4.57-3.888c6.635-3.755 12.37-7.718 18.667-10.324a30.96 30.96 0 0114.625-2.456c5.094.57 7.817-.97 10.035-4.976A17.09 17.09 0 01446.551 92z"/>
    <path d="M361.469 313.441c-3.486 8.574-6.532 9.974-14.563 9.61-6.027-.274-12.133.526-18.155 1.252-1.515.182-3.851 1.77-4.023 2.968-.266 1.854.707 4.1 1.719 5.855a10.447 10.447 0 002.864 2.711l18.166-5.816.614 1.227-12.748 9.252c3.674 6.274 7.376 12.444 10.885 18.721a6.719 6.719 0 01.85 4.388c-.3 1.241-1.671 2.347-2.8 3.2-.393.3-2.066-.2-2.159-.586a9.4 9.4 0 01-.015-3.631 12.414 12.414 0 011.209-2.708c-3.08-.507-8.206 5.421-8.518-3.1-.115-3.12-3.637-6.115-6.066-9.883-1.634.144-2.913 1.728-2.55 5 .459 4.15.736 8.335.781 12.508.014 1.285-.655 3.176-1.614 3.715a4.479 4.479 0 01-4.173-.234c-.8-.709-.764-2.75-.573-4.132.6-4.32 2.36-8.716-3.422-11.32-1.1-.5-1.964-3.51-1.563-4.989 1.81-6.669 4.063-13.221 6.273-19.776a13.645 13.645 0 012.5-5.092c2.926-3.054 5.453-5.467 11.076-4.194 8.815 1.993 18.354 2.724 26.005-4.946z"/>
    <path d="M292.276 393.847c-3.89 0-7.78.031-11.669-.015-1.7-.02-3.407-.331-5.1-.279-3.3.1-6.6.673-9.874.508-9.593-.484-19.207-.926-28.74-2.015-4.5-.515-8.835-2.472-13.256-3.779 1.548-7.427 4.166-8.877 13.359-6.9 4.835 1.038 8.925 5.25 14.4 3.5 2.432-.778 4.846-2.738 7.148-2.565a78.757 78.757 0 0114.086 2.848c2.264.6 4.236 2.319 6.5 2.893 4.4 1.114 8.914 1.778 13.381 2.629z"/>
    <path d="M638.694 641.43l.351 5.037 4.051-.225c-.57 6.2-5.917 7.768-9.185 11.082-6.164 6.25-15.163 8.538-20.779 15.949-3.849 5.079-8.53 4.537-14.429 1.119a31.526 31.526 0 00-4.306-1.663c3.3-6.366 8.906-9.708 14.876-11.571 9.811-3.061 17.622-8.659 24.541-15.934a44.644 44.644 0 014.88-3.794z"/>
    <path d="M333.12 225.353c-2.157-1.566-4.8-2.5-5.072-3.9-.448-2.292.544-4.909 1.133-7.34.248-1.027 1.243-1.872 1.5-2.9.6-2.355.749-4.832 1.44-7.152 1.241-4.166 3.489-6.732 8.419-4.736 1.287.521 2.91.213 4.043.27.318 1.979 1.265 4.2.84 6.117-.611 2.754-2.232 5.282-3.4 7.915-1.181 2.658-2.889 5.232-3.364 8.013-.541 3.163 1.583 4.6 4.86 4.329a31.567 31.567 0 015.61.211c5.76.568 6.043 5.054 6.972 9.558-4.734.147-6.621-5.149-11.638-4.5-3.932.51-8.2-1.561-12.808-2.6z"/>
    <path d="M350.506 265.218c2.364-.272 4.942-.05 7.035-.951 2.3-.988 4.146-3.013 7.131-3.908l.887-4.282c6.614 2.432 8.993 13.509 4.473 21.742l-2.475-4.882-1.672-.2c-.278 1.942-.653 3.875-.805 5.826-.137 1.749-.029 3.517-.029 5.627-9.329-2.5-13.273-4.953-9.552-12.426-6.543-3.9-10.7 1.969-15.7 3.8-.553-4.915-.422-5.068 9.965-11.726z"/>
    <path d="M655.174 600.273c7.658 5.9 5.124 12.919 5.214 20.122l2.567-2.01c.416 2.717.008 6.2 1.543 8.176 1.289 1.658 4.842 1.556 7.648 2.3-.213 3.641-3.549 7.215-7.9 8.109-1.41.29-2.646 1.782-3.8 2.891-4.041 3.883-8.012 7.838-12.01 11.765l-1.963-1.077c.162-1.324-.176-3.289.566-3.866 4.755-3.7 4.605-7.339-.444-11.6 16.29-7.883 9.878-21.576 8.579-34.81z"/>
    <path d="M13.448 524.6c8.926 28.167 18.825 59.4 28.725 90.644-15.373-29.561-26.05-60.602-28.725-90.644z"/>
    <path d="M511.462 628.815c.7 7.91-3.388 13.086-9.811 16.483-1.211.64-4.94-.685-5.392-1.895-1.96-5.243-3.138-10.779-4.606-16.232z"/>
    <path d="M472.7 59.232c6.909 1.451 12.847 2.594 18.713 4.031.974.238 1.633 1.76 2.1 2.3-3.869 1.9-7.161 4.313-10.791 5.043-2.761.556-5.951-1.027-8.075-1.474-2.806 1.363-4.983 2.77-7.365 3.4-.894.236-3.184-1.294-3.219-2.089-.062-1.441 1.18-4.242 1.721-4.2 6.002.408 6.916-3.663 6.916-7.011z"/>
    <path d="M536.226 367.63c4.456-1.446 9.625 3.627 12.138-1.853 1.786.762 4.37 2.607 5.1 2.044 2.958-2.279 8.19-2.98 6.75-10.064 2.434 1.474 5.124 2.634 5.008 3.109a22.989 22.989 0 01-3.207 7.659c-.924 1.322-3.182 1.656-4.734 2.606-6.911 4.231-14.493 3.159-21.055-3.501z"/>
    <path d="M469.555 28.474l12.173 15.842c-1.635.529-4.693.565-5.741 2.035-3.326 4.664 4.379 4.193 4.221 7.483l-7.142.511a56.61 56.61 0 01-1.594-7.331c-.41-4.272-.262-8.493-3.9-11.874-.65-.606 1.066-3.757 1.983-6.666z"/>
    <path d="M24.124 293.693l21.984-52.4 1.853.517c-.282 2.326 0 4.912-.936 6.935-7.045 15.237-14.331 30.355-21.541 45.516z"/>
    <path d="M82.978 326.6c-2.859-9.026-.365-17.071 2.458-25.238 7.246 6.588 6.064 20.324-2.458 25.238z"/>
    <path d="M377.6 387.8c-2.37 1.244-4.688 2.6-7.121 3.709-4.533 2.06-9.177 3.63-12.239 8.22-1.157 1.737-4.391 2.09-7.03 3.225 1.024-9.56 11.49-15.733 26.39-15.154z"/>
    <path d="M337.11 176.523c-4.8-6.227-4.512-8.973 1.908-14.8 1.86-1.688 4.528-2.487 6.825-3.694a46.762 46.762 0 01-1.86 6.963 80.048 80.048 0 01-4.477 8.22c-.606 1.04-1.406 1.962-2.396 3.311z"/>
    <path d="M253.649 206.118c.14-7.358 7.535-12.189 15.218-9.943-3.867 8.997-9.243 12.509-15.218 9.943z"/>
    <path d="M384.968 329.791c-6.032-3.607-7.583-13.6-3.352-19.91 2.015 1.171 4.783 1.86 5.719 3.559 1.127 2.043.7 4.944.929 7.362-5.564 1.639-6.158 2.345-3.296 8.989z"/>
    <path d="M650.579 506.215c-5.692.419-14.088-9.954-15.17-18.495 7.319 4.851 10.542 11.942 15.17 18.495z"/>
    <path d="M358.23 236.694c7.166-.751 7.739-.2 8.925 8.576l-4.609-.291.306 6.7c-5.713-7.011-5.713-7.011-1.115-8.949z"/>
    <path d="M347.592 261.724l-4.633-5.09c6.361-8.84 6.361-8.84 8.354-5.827l2.388-3.554c.593.559 1.02.869.983.94-2.222 4.299-4.484 8.58-7.092 13.531z"/>
    <path d="M403.313 349.929l-21.407-1.569c2.579-1.576 4.008-3.118 5.6-3.311 9.194-1.112 14.023.661 15.807 4.88z"/>
    <path d="M324.157 390.546c2.032-.7 4.035-1.874 6.1-2 4.871-.3 9.773-.1 14.448-.1-.692 3.448-9.91 5.7-19.9 3.691z"/>
    <path d="M318.184 392.348l-15.975 4.183c2.545-6.639 11.33-8.791 15.975-4.183z"/>
    <path d="M348.854 245.2l-8.53 6.961v-9.2l7.394.915z"/>
    <path d="M555.823 347.113c6.813.687 16.387 11.022 14.557 14.784l-14.557-14.784z"/>
    <path d="M322.084 248.623c1.212 3.709-4.331 10.611-14.28 16.3z"/>
    <path d="M581.83 367.916l9.241 11.771c-4.002 2.618-8.101-2.287-9.241-11.771z"/>
    <path d="M329.86 403.784l-11.36-4.353c5.776-3.435 9.2-1.6 12.111 2.189z"/>
    <path d="M718.343 482.094l4.416 3.858c-1.27 1.1-2.423 2.811-3.852 3.085-.918.176-2.925-1.619-3.171-2.8-.208-.992 1.414-2.369 2.607-4.143z"/>
    <path d="M334.48 239.091l-4.768-6.323.554-1.043c2.014.451 4.644.308 5.839 1.548.907.941-.012 3.643-.119 5.561z"/>
    <path d="M434.325 365.049l-2.3 8.172-2.145-.485 1.584-8.329z"/>
    <path d="M369.1 348.521h8.358c-3.177 4.585-5.965 4.344-8.358 0z"/>
  </g>
</g>

<g id="cloud">
  <path class="cld" fill="url(#grd)" d="M418.82 795.17L115.1 718.49s-7.01-41.3 24.16-64.68c24.28-18.21 56.89-10.91 72.48 9.35 22.6-34.29 63.12-35.85 86.5-27.28s44.42 34.29 46.76 57.67c31.17-8.57 65.46 26.5 42.08 64.68 20.26-3.12 37.4 16.37 31.74 36.94z"/>
  <path class="cld" fill="url(#grd)" d="M-1132.39 403.49l-303.73-76.68s-7.01-41.3 24.16-64.68c24.28-18.21 56.89-10.91 72.48 9.35 22.6-34.29 63.12-35.85 86.5-27.28 23.38 8.57 44.42 34.29 46.76 57.67 31.17-8.57 65.46 26.5 42.08 64.68 20.27-3.12 37.41 16.37 31.75 36.94z"/>
  <path class="cld" fill="url(#grd)" d="M1229.03 496.5l-224.06-56.57s-5.17-30.47 17.82-47.72c17.91-13.44 41.97-8.05 53.47 6.9 16.67-25.3 46.57-26.45 63.81-20.12s32.77 25.3 34.49 42.54c23-6.32 48.29 19.55 31.04 47.72 14.96-2.3 27.61 12.07 23.43 27.25z"/>
  <path class="cld" fill="url(#grd)" d="M-322.18 104.82l-224.06-56.57s-5.17-30.47 17.82-47.72c17.91-13.44 41.97-8.05 53.47 6.9 16.67-25.3 46.57-26.45 63.81-20.12 17.25 6.32 32.77 25.3 34.49 42.54 23-6.32 48.29 19.55 31.04 47.72 14.96-2.3 27.61 12.07 23.43 27.25z"/>
  <path class="cld" fill="url(#grd)" d="M560.04 96.12L315.43 34.36s-5.65-33.26 19.46-52.09c19.56-14.67 45.82-8.79 58.37 7.53 18.2-27.62 50.84-28.87 69.67-21.97s35.77 27.62 37.66 46.44c25.1-6.9 52.72 21.34 33.89 52.09 16.31-2.5 30.11 13.19 25.56 29.76z"/>
  <path class="cld" fill="url(#grd)" d="M-991.17-295.56l-244.61-61.76s-5.65-33.26 19.46-52.09c19.56-14.67 45.82-8.79 58.37 7.53 18.2-27.62 50.84-28.87 69.67-21.97 18.83 6.9 35.77 27.62 37.66 46.44 25.1-6.9 52.72 21.34 33.89 52.09 16.3-2.5 30.11 13.19 25.56 29.76z"/>
</g>

<g id="plane">
  <g id="plane1">
    <polygon fill="url(#grd1)" points="419.92 322.26 738.91 487 818.49 434.64"/>
    <polygon fill="url(#grd2)" points="716.58 577.74 738.91 487 419.92 322.26"/>
    <polygon fill="url(#grd3)" points="701.92 511.43 716.58 577.74 419.92 322.26"/>
    <polygon fill="url(#grd4)" points="602.8 567.27 701.92 511.43 419.92 322.26"/>
  </g>
  <g id="plane2">
    <polygon fill="url(#grd1)" points="778.93,436.13 753.11,538.46 518.81,309.89"/>
    <polygon fill="url(#grd2)" points="753.11,538.46 702.42,461 518.81,309.89"/>
    <polygon fill="url(#grd3)" points="875.52,417.96 778.93,436.13 518.81,309.89"/>
    <polygon fill="url(#grd4)" points="596.27,538.46 702.42,461 518.81,309.89"/>
  </g>
  <g id="plane3">
    <polygon fill="url(#grd1)" points="842.14,477.21 796.52,554.81 702.42,306.54"/>
    <polygon fill="url(#grd2)" points="796.52,554.81 761.71,478.74 702.42,306.54"/>
    <polygon fill="url(#grd3)" points="939.84,487.93 842.14,477.21 702.42,306.54"/>
    <polygon fill="url(#grd4)" points="648.87,518.05 761.71,478.74 702.42,306.54"/>
  </g>
  <g id="plane4">
    <polygon fill="url(#grd1)" points="811.11,523 691.25,564.07 844.83,324.28"/>
    <polygon fill="url(#grd2)" points="844.83,581.73 844.83,324.28 811.11,523"/>
    <polygon fill="url(#grd3)" points="878.55,523 998.41,564.07 844.83,324.28"/>
    <polygon fill="url(#grd4)" points="844.83,581.73 844.83,324.28 878.55,523"/>
  </g>
</g>
</svg>
