<svg xmlns="http://www.w3.org/2000/svg" xmlns:xlink="http://www.w3.org/1999/xlink" viewBox="0 0 2000 2000">

<style>
/* <![CDATA[ */

#ray.animated path {
  animation: ray_move 1s linear infinite;
}

@keyframes ray_move {
  0% {
    transform: translate(0px, 0px);
  }
  100% {
    transform: translate(32.86px, 30.24px);
  }
}

#sun.animated {
  animation: sun_rotate 15s linear infinite;
}

@keyframes sun_rotate {
  0% {
    transform: translate(646.06px, 381.351px) rotate(0deg) translate(-646.06px, -381.351px);
  }
  100% {
    transform: translate(646.06px, 381.351px) rotate(-360deg) translate(-646.06px, -381.351px);
  }
}

#carbon1.animated {
  animation: carbon1 2.4s linear infinite;
}

@keyframes carbon1 {
  0% {
    transform: translate(709px, 600px);
    opacity: 0;
  }
  25% {
    transform: translate(760px, 621px);
    opacity: 1;
  }
  50% {
    transform: translate(797px, 608px);
  }
  75% {
    transform: translate(847px, 618px);
    opacity: 1;
  }
  100% {
    transform: translate(883px, 603px);
    opacity: 0;
  }
}

#carbon2.animated {
  animation: carbon2 2.4s -1.4s linear infinite;
}

@keyframes carbon2 {
  0% {
    transform: translate(887px, 401px);
    opacity: 0;
  }
  25% {
    transform: translate(901px, 445px);
    opacity: 1;
  }
  50% {
    transform: translate(892px, 501px);
  }
  75% {
    transform: translate(901px, 550px);
    opacity: 1;
  }
  100% {
    transform: translate(888px, 601px);
    opacity: 0;
  }
}

#arrows.animated #ard1 {
  animation: ard1 8s -8s linear infinite;
}

#arrows_down.animated #art1 {
  animation: ard1 8s -8s linear reverse infinite;
}

@keyframes ard1 {
  0% {
    opacity: 0;
    transform: matrix(-0.98,-0.21,0.21,-0.98,797.42,832);
  }
  10% {
    opacity: 1;
  }
  18% {
    transform: matrix(-0.98,-0.21,0.21,-0.98,929.371,859.908);
  }
  20% {
    transform: matrix(-0.35,-0.94,0.94,-0.35,927.821,864.551);
  }
  40% {
    transform: matrix(-0.35,-0.94,0.94,-0.35,982.261,1011.245);
  }
  42% {
    transform: matrix(0.00,-1.00,1.00,0.00,989.953,1029.615);
  }
  60% {
    transform: matrix(0.00,-1.00,1.00,0.00,989.953,1164.631);
  }
  62% {
    transform: matrix(0.98,-0.21,0.21,0.98,982.389,1174.862);
  }
  72% {
    transform: matrix(0.80,-0.60,0.60,0.80,920.722,1203.533);
  }
  80% {
    transform: matrix(0.71,-0.70,0.70,0.71,877.903,1241.633);
  }
  90% {
    opacity: 1;
    transform: matrix(0.62,-0.78,0.78,0.62,838.162,1287.065);
  }
  100% {
    opacity: 0;
    transform: matrix(0.54,-0.84,0.84,0.54,792.205,1351.883);
  }
}

#arrows.animated #ard2 {
  animation: ard2 8s -4s linear infinite;
}
#arrows_down.animated #art2 {
  animation: ard2 8s -4s linear reverse infinite;
}

@keyframes ard2 {
  0% {
    opacity: 0;
    transform: matrix(-0.98,-0.21,0.21,-0.98,797.42,832);
  }
  10% {
    opacity: 1;
  }
  18% {
    transform: matrix(-0.98,-0.21,0.21,-0.98,929.371,859.908);
  }
  20% {
    transform: matrix(-0.35,-0.94,0.94,-0.35,927.821,864.551);
  }
  40% {
    transform: matrix(-0.35,-0.94,0.94,-0.35,982.261,1011.245);
  }
  42% {
    transform: matrix(0.00,-1.00,1.00,0.00,989.953,1029.615);
  }
  60% {
    transform: matrix(0.00,-1.00,1.00,0.00,989.953,1164.631);
  }
  62% {
    transform: matrix(0.98,-0.21,0.21,0.98,982.389,1174.862);
  }
  72% {
    transform: matrix(0.79,-0.61,0.61,0.79,929.215,1198.326);
  }
  74% {
    transform: matrix(0.23,-0.97,0.97,0.23,926.077,1207.998);
  }
  78% {
    transform: matrix(0.55,-0.84,0.84,0.55,916.22,1232.223);
  }
  86% {
    transform: matrix(0.39,-0.92,0.92,0.39,894.937,1266.983);
  }
  93% {
    opacity: 1;
    transform: matrix(0.14,-0.99,0.99,0.14,883.245,1298.449);
  }
  100% {
    opacity: 0;
    transform: matrix(-0.02,-1.00,1.00,-0.02,879.255,1335.166);
  }
}

#arrows.animated #ard3 {
  animation: ard3 9s -9s linear infinite;
}

#arrows_down.animated #art3 {
  animation: ard3 9s -9s linear reverse infinite;
}

@keyframes ard3 {
  0% {
    opacity: 0;
    transform: matrix(-0.58,-0.81,0.81,-0.58,884.2,628.932);
  }
  10% {
    opacity: 1;
  }
  18% {
    transform: matrix(-0.58,-0.81,0.81,-0.58,979.122,760.853);
  }
  20% {
    transform: matrix(0.00,-1.00,1.00,0.00,989.953,779.581);
  }
  60% {
    transform: matrix(0.00,-1.00,1.00,0.00,989.953,1164.631);
  }
  62% {
    transform: matrix(0.71,-0.71,0.71,0.71,989.13,1175.706);
  }
  73% {
    transform: matrix(0.38,-0.93,0.93,0.38,962.585,1218.538);
  }
  86% {
    transform: matrix(0.17,-0.98,0.98,0.17,943.479,1287.946);
  }
  92% {
    opacity: 1;
    transform: matrix(0.40,-0.92,0.92,0.40,934.64,1329.242);
  }
  100% {
    opacity: 0;
    transform: matrix(0.76,-0.65,0.65,0.76,915.66,1352.984);
  }
}

#arrows.animated #ard4 {
  animation: ard4 9s -6s linear infinite;
}

#arrows_down.animated #art4 {
  animation: ard4 9s -6s linear reverse infinite;
}

@keyframes ard4 {
  0% {
    opacity: 0;
    transform: matrix(-0.48,-0.88,0.88,-0.48,889.642,598.936);
  }
  10% {
    opacity: 1;
  }
  24% {
    transform: matrix(-0.48,-0.88,0.88,-0.48,979.563,759.086);
  }
  26% {
    transform: matrix(0.00,-1.00,1.00,0.00,989.953,779.581);
  }
  70% {
    transform: matrix(0.00,-1.00,1.00,0.00,989.953,1164.631);
  }
  72% {
    transform: matrix(0.57,-0.82,0.82,0.57,990.172,1178.705);
  }
  80% {
    transform: matrix(0.35,-0.94,0.94,0.35,972.887,1211.841);
  }
  88% {
    transform: matrix(0.09,-1.00,1.00,0.09,960.599,1252.368);
  }
  95% {
    opacity: 1;
    transform: matrix(-0.10,-1.00,1.00,-0.10,958.711,1294.685);
  }
  100% {
    opacity: 0;
    transform: matrix(-0.22,-0.98,0.98,-0.22,961.382,1320.582);
  }
}

#arrows.animated #ard5 {
  animation: ard5 9s -3s linear infinite;
}

#arrows_down.animated #art5 {
  animation: ard5 9s -3s linear reverse infinite;
}

@keyframes ard5 {
  0% {
    opacity: 0;
    transform: matrix(-0.29,-0.96,0.96,-0.29,935.052,633.01);
  }
  10% {
    opacity: 1;
  }
  16% {
    transform: matrix(-0.34,-0.94,0.94,-0.34,981.946,760.214);
  }
  18% {
    transform: matrix(0.00,-1.00,1.00,0.00,989.953,779.581);
  }
  60% {
    transform: matrix(0.00,-1.00,1.00,0.00,989.953,1164.631);
  }
  62% {
    transform: matrix(-0.09,-1.00,1.00,-0.09,990.022,1183.608);
  }
  72% {
    transform: matrix(-0.32,-0.95,0.95,-0.32,999.738,1235.513);
  }
  82% {
    transform: matrix(-0.32,-0.95,0.95,-0.32,1020.322,1286.205);
  }
  91% {
    opacity: 1;
    transform: matrix(-0.01,-1.00,1.00,-0.01,1031.41,1335.47);
  }
  100% {
    opacity: 0;
    transform: matrix(0.14,-0.99,0.99,0.14,1030.386,1379.007);
  }
}

#arrows.animated #ard6 {
  animation: ard6 10s linear infinite;
}

#arrows_down.animated #art6 {
  animation: ard6 10s linear reverse infinite;
}

@keyframes ard6 {
  0% {
    opacity: 0;
    transform: matrix(0.37,-0.93,0.93,0.37,1084.11,475.483);
  }
  10% {
    opacity: 1;
  }
  13% {
    transform: matrix(0.37,-0.93,0.93,0.37,1037.042,586.213);
  }
  15% {
    transform: matrix(0.21,-0.98,0.98,0.21,1032.464,602.293);
  }
  30% {
    transform: matrix(0.21,-0.98,0.98,0.21,995.316,759.223);
  }
  32% {
    transform: matrix(0.00,-1.00,1.00,0.00,989.868,776.559);
  }
  70% {
    transform: matrix(0.00,-1.00,1.00,0.00,989.868,1164.283);
  }
  72% {
    transform: matrix(-0.70,-0.71,0.71,-0.70,991.11,1174.647);
  }
  78% {
    transform: matrix(-0.54,-0.84,0.84,-0.54,1020.187,1209.625);
  }
  86% {
    transform: matrix(-0.25,-0.97,0.97,-0.25,1046.194,1266.913);
  }
  93% {
    opacity: 1;
    transform: matrix(-0.23,-0.97,0.97,-0.23,1059.699,1321.007);
  }
  100% {
    opacity: 0;
    transform: matrix(-0.23,-0.97,0.97,-0.23,1070.419,1365.316);
  }
}

#arrows.animated #ard7 {
  animation: ard7 9s -5s linear infinite;
}

#arrows_down.animated #art7 {
  animation: ard7 9s -5s linear reverse infinite;
}

@keyframes ard7 {
  0% {
    opacity: 0;
    transform: matrix(0.90,-0.43,0.43,0.90,1141.004,696.79);
  }
  10% {
    opacity: 1;
  }
  10% {
    transform: matrix(0.90,-0.43,0.43,0.90,1090.077,720.925);
  }
  12% {
    transform: matrix(0.50,-0.87,0.87,0.50,1078.755,732.337);
  }
  30% {
    transform: matrix(0.50,-0.87,0.87,0.50,997.093,890.606);
  }
  32% {
    transform: matrix(0.00,-1.00,1.00,0.00,989.997,905.558);
  }
  60% {
    transform: matrix(0.00,-1.00,1.00,0.00,989.997,1171.288);
  }
  62% {
    transform: matrix(-0.92,-0.40,0.40,-0.92,992.738,1172.594);
  }
  72% {
    transform: matrix(-0.74,-0.67,0.67,-0.74,1040.737,1204.214);
  }
  82% {
    transform: matrix(-0.66,-0.75,0.75,-0.66,1088.284,1251.18);
  }
  91% {
    opacity: 1;
    transform: matrix(-0.74,-0.67,0.67,-0.74,1139.279,1302.007);
  }
  100% {
    opacity: 0;
    transform: matrix(-0.83,-0.56,0.56,-0.83,1186.751,1338.176);
  }
}

#arrows.animated #ard8 {
  animation: ard8 9s -1s linear infinite;
}

#arrows_down.animated #art8 {
  animation: ard8 9s -1s linear reverse infinite;
}

@keyframes ard8 {
  0% {
    opacity: 0;
    transform: matrix(0.90,-0.43,0.43,0.90,1141.004,696.79);
  }
  10% {
    opacity: 1;
  }
  10% {
    transform: matrix(0.90,-0.43,0.43,0.90,1090.077,720.925);
  }
  12% {
    transform: matrix(0.50,-0.87,0.87,0.50,1078.755,732.337);
  }
  30% {
    transform: matrix(0.50,-0.87,0.87,0.50,997.093,890.606);
  }
  32% {
    transform: matrix(0.00,-1.00,1.00,0.00,989.997,905.558);
  }
  60% {
    transform: matrix(0.00,-1.00,1.00,0.00,989.997,1171.288);
  }
  62% {
    transform: matrix(-0.92,-0.40,0.40,-0.92,992.738,1172.594);
  }
  72% {
    transform: matrix(-0.74,-0.67,0.67,-0.74,1040.737,1204.214);
  }
  74% {
    transform: matrix(-0.98,-0.17,0.17,-0.98,1054.247,1210.975);
  }
  80% {
    transform: matrix(-0.87,-0.49,0.49,-0.87,1081.67,1218.703);
  }
  90% {
    opacity: 1;
  }
  100% {
    opacity: 0;
    transform: matrix(-0.87,-0.49,0.49,-0.87,1177.617,1278.81);
  }
}

#z1_sun.animated #z1_rays {
  animation: z1_rays 1s linear infinite;
}

@keyframes z1_rays {
  0% {
    transform: translate(0px, 0px);
  }
  100% {
    transform: translate(0px, 37px);
  }
}

#z1_arrows.animated #z1_ar1 {
  animation: z1_ar1 1.2s linear infinite;
}

@keyframes z1_ar1 {
  0% {
    transform: translate(-10px, -10px);
  }
  100% {
    transform: translate(0px, 0px);
  }
  0%, 80%, 100% {
    opacity: 0;
  }
  20%, 60% {
    opacity: 1;
  }
}

#z1_arrows.animated #z1_ar2 {
  animation: z1_ar2 1.2s linear infinite;
}

@keyframes z1_ar2 {
  0% {
    transform: translate(10px, -10px);
  }
  100% {
    transform: translate(0px, 0px);
  }
  0%, 80%, 100% {
    opacity: 0;
  }
  20%, 60% {
    opacity: 1;
  }
}

#z1_arrows.animated #z1_ar3 {
  animation: z1_ar3 1.2s -.6s linear infinite;
}

@keyframes z1_ar3 {
  0% {
    transform: translate(-5px, -5px);
  }
  100% {
    transform: translate(5px, 5px);
  }
  0%, 80%, 100% {
    opacity: 0;
  }
  20%, 60% {
    opacity: 1;
  }
}

#z1_arrows.animated #z1_ar4 {
  animation: z1_ar4 1.2s -.6s linear infinite;
}

@keyframes z1_ar4 {
  0% {
    transform: translate(0px, -5px);
  }
  100% {
    transform: translate(0px, 5px);
  }
  0%, 80%, 100% {
    opacity: 0;
  }
  20%, 60% {
    opacity: 1;
  }
}

#z1_arrows.animated #z1_ar5 {
  animation: z1_ar5 1.2s -.6s linear infinite;
}

@keyframes z1_ar5 {
  0% {
    transform: translate(5px, -5px);
  }
  100% {
    transform: translate(-5px, 5px);
  }
  0%, 80%, 100% {
    opacity: 0;
  }
  20%, 60% {
    opacity: 1;
  }
}

#micros.animated #mic1 {
  animation: mic 1.4s linear infinite;
}
#micros.animated #mic2 {
  animation: mic 1.4s -.2s linear infinite;
}
#micros.animated #mic3 {
  animation: mic 1.4s -.4s linear infinite;
}
#micros.animated #mic4 {
  animation: mic 1.4s -.6s linear infinite;
}
#micros.animated #mic5 {
  animation: mic 1.4s -.8s linear infinite;
}

#micros2.animated #micro_1_1 {
  animation: mic 1.4s -1.4s linear infinite;
}
#micros2.animated #micro_1_2 {
  animation: mic 1.4s -1.3s linear infinite;
}
#micros2.animated #micro_1_3 {
  animation: mic 1.4s -1.2s linear infinite;
}
#micros2.animated #micro_2_1 {
  animation: mic 1.4s -1.1s linear infinite;
}
#micros2.animated #micro_2_2 {
  animation: mic 1.4s -1s linear infinite;
}
#micros2.animated #micro_2_3 {
  animation: mic 1.4s -.9s linear infinite;
}
#micros2.animated #micro_3_1 {
  animation: mic 1.4s -.8s linear infinite;
}
#micros2.animated #micro_3_2 {
  animation: mic 1.4s -.7s linear infinite;
}
#micros2.animated #micro_3_3 {
  animation: mic 1.4s -.6s linear infinite;
}
#micros2.animated #micro_3_4 {
  animation: mic 1.4s -.5s linear infinite;
}
#micros2.animated #micro_3_5 {
  animation: mic 1.4s -.4s linear infinite;
}
#micros2.animated #micro_4_1 {
  animation: mic 1.4s -.3s linear infinite;
}
#micros2.animated #micro_4_2 {
  animation: mic 1.4s -.2s linear infinite;
}
#micros2.animated #micro_4_3 {
  animation: mic 1.4s -.1s linear infinite;
}
#micros2.animated #micro_5_1 {
  animation: mic 1.4s -1.4s linear infinite;
}
#micros2.animated #micro_5_2 {
  animation: mic 1.4s -1.3s linear infinite;
}
#micros2.animated #micro_5_3 {
  animation: mic 1.4s -1.2s linear infinite;
}
#micros2.animated #micro_5_4 {
  animation: mic 1.4s -1.1s linear infinite;
}
#micros2.animated #micro_5_5 {
  animation: mic 1.4s -1s linear infinite;
}
#micros2.animated #micro_5_6 {
  animation: mic 1.4s -.9s linear infinite;
}

@keyframes mic {
  0%, 100% {
    transform: translate(0px, 0px);
  }
  20% {
    transform: translate(2px, 2px);
  }
  40% {
    transform: translate(2px, 0px);
  }
  60% {
    transform: translate(0px, -2px);
  }
  80% {
    transform: translate(-2px, -2px);
  }
}

/* ]]> */
</style>

<defs>
<g id="mol1">
  <circle cx="-12.8" cy="-12.8" r="12.2" fill="#324550"/>
  <circle cx="12.8" cy="12.8" r="12.2" fill="#324550"/>
  <path fill="#FFF" stroke="#000" d="M12.89-12.69a18.04 18.04 0 00-14.73-5.19L-17.89-1.83A18.09 18.09 0 001.78 18.12L18.11 1.78a18.05 18.05 0 00-5.22-14.47z"/>
</g>
<g id="co2">
  <path d="M-3.53-4.51A3.83 3.83 0 00-8.35.92a3.91 3.91 0 003.34 1.92 3.93 3.93 0 002.75-1.11l.55.59c-.46.41-.98.74-1.56.98a4.66 4.66 0 01-5.88-1.96 4.43 4.43 0 01-.63-2.33c0-.84.21-1.62.64-2.32a4.8 4.8 0 017.41-.99l-.53.63a4.02 4.02 0 00-1.27-.84z"/>
  <path d="M6.29-4.99a4.65 4.65 0 012.37 4c0 .84-.21 1.62-.64 2.33a4.78 4.78 0 01-6.52 1.7 4.78 4.78 0 01-1.73-1.7A4.42 4.42 0 01-.87-.99c0-.84.21-1.62.64-2.32a4.8 4.8 0 016.52-1.68zm-4.31.7c-.59.34-1.06.8-1.41 1.38A3.64 3.64 0 00.05-.99C.05-.29.22.35.57.94c.34.59.81 1.06 1.41 1.4A3.8 3.8 0 007.22.94c.35-.59.52-1.24.52-1.93 0-.7-.17-1.33-.52-1.92a3.94 3.94 0 00-1.4-1.38 3.77 3.77 0 00-1.91-.51c-.7 0-1.34.17-1.93.51z"/>
  <path d="M12.54 4.06v.72H9.35v-.6l1.63-1.68c.16-.16.28-.31.38-.46a.8.8 0 00.14-.39c0-.16-.06-.28-.19-.37s-.29-.13-.51-.13c-.19 0-.39.05-.6.14-.21.09-.42.23-.6.39l-.33-.63c.25-.2.52-.35.8-.46a2.29 2.29 0 011.6-.02c.22.09.39.22.51.38.12.17.18.36.18.58 0 .21-.07.43-.22.67a4.9 4.9 0 01-.6.75l-1.1 1.11h2.1z"/>
</g>
<g id="crb1">
  <use xlink:href="#mol1"/>
  <use xlink:href="#co2"/>
</g>
<g id="crb2">
  <use xlink:href="#mol1" transform="rotate(90 0 0)"/>
  <use xlink:href="#co2"/>
</g>
<path id="ard" fill="#37ff00" d="M-11.22 0l22.15 10.7L6.47 0l4.46-10.71L-11.22-.01z"/>
<path id="art" fill="#136100" stroke="#37ff00" d="M-5.35 0l-3.82 9.13L9.17 0-9.17-9.13-5.35 0z"/>
<g id="cell">
  <path fill="url(#grd_cell1)" d="M1516.08 490.93c2.3 27.94-30.58 52.2-73.42 54.18-42.85 1.98-79.44-19.07-81.73-47.01-2.3-27.94 30.57-52.2 73.42-54.18 42.84-1.98 79.43 19.07 81.73 47.01z"/>
  <path fill="url(#grd_cell2)" d="M1434.35 443.92c-22.99 1.06-43.09 8.53-56.45 19.55 5.22 15.71 27.48 66.43 97.73 43.36 10.25-2.8 33.14-16.26 33.1-2.74-.02 6.06-3.78 10.08-6.68 13.01-16.05 16.26-37.47 22.62-57.21 25.7-6.6 1-13.27 1.52-19.95 1.55l-.1.25c5.78.61 11.76.79 17.87.51 42.84-1.98 75.72-26.24 73.42-54.18-2.3-27.94-38.89-48.99-81.73-47.01z"/>
  <path fill="url(#grd_cell3)" d="M1505.23 474.14c1.38 17.55-27.49 32.9-64.46 34.3-36.97 1.4-68.06-11.7-69.43-29.24-1.38-17.55 27.49-32.9 64.46-34.3 36.98-1.4 68.06 11.69 69.43 29.24z"/>
  <path fill="url(#grd_cell4)" d="M1492.41 470.4c1.13 14.4-22.55 26.99-52.89 28.14-30.34 1.15-55.85-9.6-56.97-23.99-1.13-14.4 22.55-26.99 52.89-28.14 30.34-1.14 55.85 9.6 56.97 23.99z"/>
  <path fill="url(#grd_cell5)" d="M1383.58 506.5s36.01 22.68 99.12 1.6c27.66-11.54 14.04 44.5-67.73 31.42-42.1-6.69-48.33-38.62-31.39-33.02z"/>
  <path fill="url(#grd_cell6)" d="M1386.3 510.91s14.61 7.88 44.47 9.92 13.04 19.5-12.37 15.32c-39.61-6.51-48.33-33.35-32.1-25.24z"/>
  <radialGradient id="grd_cell1" cx="0" cy="0" r="1" gradientTransform="matrix(127.808 -23.7612 27.712 189.596 1422.9 404.77)" gradientUnits="userSpaceOnUse">
    <stop offset="0" stop-color="#92c83e"/>
    <stop offset=".2" stop-color="#71b83f"/>
    <stop offset=".46" stop-color="#42a240"/>
    <stop offset="1" stop-color="#244025"/>
  </radialGradient>
  <radialGradient id="grd_cell2" cx="0" cy="0" r="1" gradientTransform="matrix(127.808 -23.7612 27.712 189.596 1422.9 404.77)" gradientUnits="userSpaceOnUse">
    <stop offset="0" stop-color="#92c83e"/>
    <stop offset=".2" stop-color="#71b83f"/>
    <stop offset=".46" stop-color="#42a240"/>
    <stop offset="1" stop-color="#244025"/>
  </radialGradient>
  <radialGradient id="grd_cell3" cx="0" cy="0" r="1" gradientTransform="matrix(122.795 -24.7845 27.9777 180.435 1410.35 384.97)" gradientUnits="userSpaceOnUse">
    <stop offset="0" stop-color="#d0dd28"/>
    <stop offset=".38" stop-color="#92c83e"/>
    <stop offset=".55" stop-color="#71b83f"/>
    <stop offset=".77" stop-color="#42a240"/>
    <stop offset="1" stop-color="#42a240"/>
  </radialGradient>
  <radialGradient id="grd_cell5" cx="0" cy="0" r="1" gradientTransform="matrix(94.722 -11.3737 16.257 139.947 1391.8 518.04)" gradientUnits="userSpaceOnUse">
    <stop offset="0" stop-color="#92c83e"/>
    <stop offset=".27" stop-color="#77a738"/>
    <stop offset=".87" stop-color="#345429"/>
    <stop offset="1" stop-color="#244025"/>
  </radialGradient>
  <linearGradient id="grd_cell4" x1="0" x2="1" y1="0" y2="0" gradientTransform="scale(77.74488) rotate(87.21 6.38 12.4)" gradientUnits="userSpaceOnUse">
    <stop offset="0" stop-color="#d0dd28"/>
    <stop offset=".77" stop-color="#42a240"/>
    <stop offset="1" stop-color="#42a240"/>
  </linearGradient>
  <linearGradient id="grd_cell6" x1="0" x2="1" y1="0" y2="0" gradientTransform="rotate(11.54 -1866.11 6985.53) scale(80.8448)" gradientUnits="userSpaceOnUse">
    <stop offset="0" stop-color="#d0dd28"/>
    <stop offset=".77" stop-color="#42a240"/>
    <stop offset="1" stop-color="#42a240"/>
  </linearGradient>
</g>
</defs>

<clipPath id="soil_clip">
  <rect width="822" height="0" x="580" y="1155"/>
</clipPath>
<g id="soil" clip-path="url(#soil_clip)">
<linearGradient id="soil_grd1" x1="991" x2="991" y1="602.6" y2="454" gradientTransform="matrix(1 0 0 -1 0 2000)" gradientUnits="userSpaceOnUse">
  <stop offset="0" stop-color="#6c391c"/>
  <stop offset=".6" stop-color="#452a0f"/>
  <stop offset="1" stop-color="#3f270f"/>
</linearGradient>
<path fill="url(#soil_grd1)" d="M1387.1 1162.2c-4.3-.9-14.5 9.9-14.5 9.9-16.7-4.6-27.3 2.6-30.7 3.5-3.6 2-39.7-16-52.6-11.7-8.3-12.3-27.3 4.8-39.8.7-21.6 4.4-8 5.5-38.1 3-5.4-9.3-49.5-14.6-56.7-5-2.7 2-4.3 1.8-18.2 2.7-31 5.6-29.8-11.3-58.5.6-17.7 5.7-39-.4-56.7-3.3-31.3-2.8-15.8 10.8-44.6 5-59-20.4-45.6 7.3-104.6 4.5-17.7 1-30.4.4-51.1-1a43.7 43.7 0 00-33.5-1.4c-15.5 4-41-.9-55-1.8-6.6-2-18.7-2.6-31.7 0a67.3 67.3 0 00-71.5.9c-.6-4-12-5.7-16.4-6.6-4.3-.9-14.5 9.9-14.5 9.9-6.5-1.8-12-1.8-16.6-1.1v387.5h818.4v-392.9c-3.9-1.8-10.1-2.8-13-3.4z"/>
<path fill="#2F1A0A" d="M1365.5 1529c-69.6.5-129.1-21.7-198.7 2a365.7 365.7 0 01-79 1.2c-31.3-3.5-61.7 3.9-92.8 6.1-44.3 4.4-88.6-.6-132.6-4.6-45 1.8-89.3 14.4-134.6 6.7-47.6-14.2-96.7-12.5-146-10.9v29h818.4v-29.3c-11.6.6-23.2.9-34.7-.2z"/>
<linearGradient id="soil_grd2" x1="991" x2="991" y1="680.8" y2="552" gradientTransform="matrix(1 0 0 -1 0 2000)" gradientUnits="userSpaceOnUse">
  <stop offset=".1" stop-color="#7b4626"/>
  <stop offset=".5" stop-color="#6c391e"/>
  <stop offset=".9" stop-color="#6e3b1c"/>
</linearGradient>
<path fill="url(#soil_grd2)" d="M1387.1 1162.2c-4.3-.9-14.5 9.9-14.5 9.9-16.7-4.6-27.3 2.6-30.7 3.5-3.6 2-39.7-16-52.6-11.7-8.3-12.3-27.3 4.8-39.8.7-21.6 4.4-8 5.5-38.1 3-5.4-9.3-49.5-14.6-56.7-5-2.7 2-4.3 1.8-18.2 2.7-31 5.6-29.8-11.3-58.5.6-17.7 5.7-39-.4-56.7-3.3-31.3-2.8-15.8 10.8-44.6 5-59-20.4-45.6 7.3-104.6 4.5-17.7 1-30.4.4-51.1-1a43.7 43.7 0 00-33.5-1.4c-15.5 4-41-.9-55-1.8-6.6-2-18.7-2.6-31.7 0a67.3 67.3 0 00-71.5.9c-.6-4-12-5.7-16.4-6.6-4.3-.9-14.5 9.9-14.5 9.9-6.5-1.8-12-1.8-16.6-1.1v262.3c12.8-.6 13.5-9.6 31.8-6.1 22 2.3 40.7 5.6 61 7.8 8 1.7 12.9-5.1 30.6-4.8s46 2.4 53.3-.3c7.2-2.7 9-4.8 25-3.4 23.8 5.7 99 .1 122.2 0 48.3 7.4 101-4.3 148.3.7 26.7 4.7 43-1.8 68-.7 12.5 2 32.7 7.1 45.2 4 12.4-3 18.7-4 26.3-3a1066 1066 0 01135.9 5.8c15.3 0 31.1 1 35-1.7 4.4-6.4 25.6-4.8 35.8-3v-263c-3.9-1.8-10.1-2.8-13-3.4z"/>
<linearGradient id="soil_grd3" x1="991" x2="991" y1="814.6" y2="686.6" gradientTransform="matrix(1 0 0 -1 0 2000)" gradientUnits="userSpaceOnUse">
  <stop offset=".2" stop-color="#9c673f"/>
  <stop offset=".7" stop-color="#8b5531"/>
</linearGradient>
<path fill="url(#soil_grd3)" d="M1387.1 1163.2c-4.3-1-14.5 11.8-14.5 11.8-16.7-5.5-27.3 3.1-30.7 4.2-3.6 2.6-39.4-19.1-52.6-14-7.4-14.6-27.2 5.5-39.8.9-23.7 5.3-3.8 6.7-38.1 3.7-5.5-11.3-49.3-17.6-56.7-6-2.7 2.3-4.3 2-18.2 3-31.4 6.7-30.1-13.6-58.5.8-17.7 6.9-39-.5-56.7-3.9-31.3-3.7-14.8 12.7-44.6 6-62.4-24.8-41.4 8.2-104.6 5.3-17.7 1.3-30.4.5-51.1-1a37 37 0 00-33.5-1.9c-15.4 4.9-41-1-55-2.1a60 60 0 00-31.7 0c-19.2-13.8-44.6-18-71.5 1-.6-4.7-12-6.8-16.4-7.8-4.3-1-14.5 11.8-14.5 11.8-6.5-2.1-12-2.1-16.6-1.3v152.9c14.3-10.3 31.4 1.4 46.8 3.2 7.6 0 10.4 2.4 15.6 3.7 4.2 2 46.6-9 53.2-2.7 10.3 6 30-5 38.7-2.7 26 9.4 84.3-8.3 108 3.4 8.1-9 54-3.4 62.7-6.4 13.8-5.2 35 3.5 51.2 3.4 11.6-1 19.2-.7 33.2-.4 14 .4 35.5-6.4 46.3-7.8 16.5-3.8 29 7.4 43.2 4.4 9.4-2.3 72.7 4.4 78.7.4 12.9-7.8 30.6 1.3 42-4.1 34.4-5 82.4 13.8 117.9 9.5 10.8-11.9 33 1.3 42.8-6.4 9.7-6.7 27.7 4.2 38.2 5.6v-162.4c-4-2.2-10.2-3.4-13.2-4.1z"/>
<path fill="#A67248" d="M1387.1 1162.2c-4.3-.9-14.5 9.9-14.5 9.9-16.7-4.6-27.3 2.6-30.7 3.5-3.6 2-39.7-16-52.6-11.7-8.3-12.3-27.3 4.8-39.8.7-21.6 4.4-8 5.5-38.1 3-5.4-9.3-49.5-14.6-56.7-5-2.7 2-4.3 1.8-18.2 2.7-31 5.6-29.8-11.3-58.5.6-17.7 5.7-39-.4-56.7-3.3-31.3-2.8-15.8 10.8-44.6 5-59-20.4-45.6 7.3-104.6 4.5-17.7 1-30.4.4-51.1-1a43.7 43.7 0 00-33.5-1.4c-15.5 4-41-.9-55-1.8-6.6-2-18.7-2.6-31.7 0a67.3 67.3 0 00-71.5.9c-.6-4-12-5.7-16.4-6.6-4.3-.9-14.5 9.9-14.5 9.9-6.5-1.8-12-1.8-16.6-1.1v73.6c104.1-4.2 108.5 15.8 242.8-2 123-19.2 106.6-18.5 213.7 1.8s70.4-17 153.5-10.2c45 3.7 79.7-5.5 98.6.3 25 13.1 65.4 14 109.8 10.6v-79.5c-3.9-1.8-10.1-2.8-13-3.4z"/>
<path fill="#9A3E1D" d="M676.6 1194.2c58-16.5 115.1-2.2 174-9.4 40.4-5.1 79.5 14.2 120 5.1 34.4-13.7 69.8 6.2 104.7 1.4 36.4-12.5 72.1-2.4 109.4-1.2 37-1.2 75.1-9.4 111.7-1 33 12.3 73.2 23 103.8 5.5v-29c-12.6-6.5-21-1.5-27.6 6.4-16.7-4.6-27.3 2.7-30.7 3.5-3.6 2.2-39.7-16-52.6-11.6-8.3-12.4-27.3 4.8-39.8.7-21.6 4.4-8 5.5-38.1 3-5.4-9.3-49.5-14.6-56.7-5-2.8 2-4.3 1.8-18.2 2.7-31 5.5-29.8-11.4-58.5.6-17.7 5.7-39-.4-56.7-3.3-31.3-2.8-15.8 10.7-44.6 5-59-20.4-45.6 7.2-104.7 4.5-17.6 1-30.3.4-51-1a43.7 43.7 0 00-33.5-1.5c-15.5 4.1-41-.8-55-1.7-6.6-2-18.7-2.6-31.7 0a67.3 67.3 0 00-71.5.9c-.6-4-12-5.7-16.4-6.6-4.3-.9-14.6 9.8-14.6 9.8-6.4-1.7-12-1.7-16.5-1v26.4c31.7.6 63.8 1 94.8-3.2z"/>
<path fill="#8B5531" d="M747.5 1169.4c-10.7.6 4.5-10.2 6.5-7.2 10.3 5.8.4 8.3-6.5 7.2z"/>
<linearGradient id="soil_grd4" x1="611.9" x2="615" y1="840" y2="823.1" gradientTransform="matrix(1 0 0 -1 0 2000)" gradientUnits="userSpaceOnUse">
  <stop offset=".2" stop-color="#9c673f"/>
  <stop offset=".7" stop-color="#8b5531"/>
</linearGradient>
<path fill="url(#soil_grd4)" d="M629.3 1168.8c-.6-4-12.1-5.7-16.4-6.6-4.4-.9-14.6 9.9-14.6 9.9 2.4 3.5 22.2 2.4 31-3.3z"/>
<path fill="#522D14" d="M786.4 1235.4c-15 7.3 13.5 13.3 16.5 5 4-6.8-13.4-8.6-16.5-5z"/>
<path fill="#A77956" d="M786 1233.5c-15 7.2 13.5 13.3 16.5 4.9 4-6.7-13.4-8.6-16.5-4.9z"/>
<path fill="#6D3A1E" d="M789 1238.6c-1.9-.2-4.2.5-5.8 1 3.7 3.1 12.1 4.4 16.1 1.6a40 40 0 00-10.4-2.6z"/>
<path fill="#8B5532" d="M790.8 1231.6c-2.4 1-13 4-7.6 8 4-.6 7-3 7.6-8z"/>
<path fill="#C79D79" d="M790.6 1232.7s-1.2 3.7-3.8 5.6c2.8-1.5 4-3.9 3.8-5.6z"/>
<path fill="#3F270F" d="M1224 1230.1c11-13.1-16-15-18.5-3.3 0 0-2 6.8 1.3 6.8 5.7 1.2 12.8.6 17.2-3.5z"/>
<path fill="#A47551" d="M1205.3 1225.7c-6.8 13.4 25.7 6.9 20.6-4.3-1.5-7.2-20.6-2.6-20.6 4.3z"/>
<path fill="#6D3A1D" d="M1213.5 1228.8a9.5 9.5 0 00-4.2 4.1c5.4.7 15.2-1.5 16.6-7.2-4.3.3-9.5 2-12.4 3.1z"/>
<path fill="#9C673F" d="M1207.8 1221.4c-2.3 2.9-6.6 11.6 1.5 11.5.6-1 1.4-2 2.4-3a13 13 0 00-3.9-8.5z"/>
<path fill="#C79D79" d="M1208.8 1222.4s2.8 4.2 2.5 7.3c1-2.9-.5-5.8-2.5-7.3z"/>
<path fill="#68220F" d="M1387.1 1162.2c-4.3-.9-14.5 9.9-14.5 9.9-16.7-4.6-27.3 2.6-30.7 3.5-3.6 2-39.7-16-52.6-11.7-8.4-12.3-27.3 4.8-39.8.7-21.6 4.4-8 5.5-38.1 3.1-5.4-9.4-49.5-14.7-56.7-5-2.7 2-4.3 1.7-18.2 2.6-31 5.6-29.8-11.3-58.5.7-17.7 5.6-39-.5-56.7-3.3-31.3-2.9-15.8 10.7-44.6 5-59-20.5-45.6 7.2-104.6 4.4-17.7 1-30.4.4-51.1-.9a43.7 43.7 0 00-33.5-1.5c-15.5 4-41-.9-55-1.8-6.6-2-18.7-2.6-31.7 0a67.3 67.3 0 00-71.5.9c-.6-4-12-5.7-16.4-6.6-4.3-.9-14.5 9.9-14.5 9.9-6.5-1.8-12-1.8-16.6-1.1v26c10-.1 19.3-1.8 23-5.7 7.3-7.8 11.6-13.7 22.3-9.5 10.8 4.2 42.6 8 56.6 3.6S701 1174 707 1176c6 2 17.2.6 25-3.2 7.9-3.8 27.3-.8 35.3-.6 8.1.2 3.5 6.7 9.2 9.6 5.7 2.8 24.5 12.4 36.6 11.4 28.5-4.6 5.9-22.3 36.7-19.2 13.2.7 32.6.5 40.7.3s0 6 22 11.4c57.9 16.3 67.4-21 89.5-8.3 13.6 6.5 23.2 13 43.6 9s16-16 25.2-10.4c9.2 5.7 32 10.8 43.6-1.1 23-17.8 66 28.3 88.3 6 6-4.6 15.2.2 21.6-2 6.4-2.3 3.2 6.7 16.7 9.6 22.1 3.5 21.8-11.2 38.1-13.3-5.3 26.5 44 9.2 51.5 18.3 52.9 15.6 47.3-16.8 69.7-12.1v-15.8c-3.9-1.8-10.1-2.8-13-3.4z"/>
<g fill="#2A1609">
<path d="M787.3 1462.5c-19.1-20.7-34.1 24.3-3.2 7.8 6.7-4.2 5.9-5.6 3.1-7.8z"/>
<path d="M647 1466c-8.2 4.7 7.7 8.8 7.7 2 .4-3.6-4.3-4.5-7.7-2z"/>
<path d="M586.2 1498.2c-1.5 2 3.2 4.9 5.3 4.4 3.4-4.2-1.5-10-5.3-4.4z"/>
<path d="M639.8 1510.4c-3.5 7.4 11 8.2 8.3-.2-1.6-3-7.7-2.7-8.4.2z"/>
<path d="M940.8 1508.4c-8-7.7-14.3-4.5-16.3 7.8 1 10.8 33.6 4.1 16.3-7.8z"/>
<path d="M840.8 1470.7c-10 .8 5.6 8.6 4.6 2.5-.3-2.6-4.6-2.5-4.6-2.5z"/>
<path d="M897.1 1465.5c-4.3-2.3-6.7 3.6-1.8 5 3.7.5 4.3-3.9 1.8-5z"/>
<path d="M1037.5 1513.2c-4.3 5.8 10.7 6.3 6.1 0-2.1-2.3-5.3-2-6.1 0z"/>
<path d="M1248.9 1472.8s-8.3 1.8-9.8 6c-1.5 4 9.2 7.2 14 4 5-3.4 5.7-11.3-4.2-10z"/>
<path d="M1187.6 1434.8c-7.5 1.7-7.3 10.4 4.2 7.7 5.4-1.2 1-9.2-4.2-7.7z"/>
<path d="M1305 1521c-6.3 3.3-6 6.6-4.3 13.8-1.2 9.5 40 3.8 27.4-8.7-5.7-6.8-10.9-16-23-5.2z"/>
<path d="M1366.2 1497.3c-1-2.9-4.3-1-5.8 1-.6 4.8 9.3 6.8 5.8-1z"/>
</g>
<g fill="#F0B176" opacity=".5">
<path d="M657 1258.9c-7.6 2.8-10 14.7 4.9 11 7.5-1.3.4-15.3-5-11z"/>
<path d="M618.7 1190.3s-10.9 3-11.8 9.2c-2.5 10.8 29.6 4 21-5.5-2.8-4.2-5-5-9.2-3.7z"/>
<path d="M692.1 1279.5s-4.4 1-4 4c4.3 8 12-5.5 4-4z"/>
<path d="M822.8 1251.5c-13.1 9.5 8 15.8 8.7 5.9-2.2-3.6-4.3-10.4-8.7-6z"/>
<path d="M875.8 1272.6c-13.3 8.5 5.4 12 9.5 6-.1-3.4-1-11-9.5-6z"/>
<path d="M879.3 1195c-11.4 3.6-12.5 10.2 6 8.5 15.7-1.4 4.8-15-6-8.5z"/>
<path d="M987.7 1213.4s-7.9 2.7-7.4 5 8.4 3.1 14.6 1.6c6.1-1.6 0-9.6-7.2-6.6z"/>
<path d="M1183.1 1223c-5.6-1-9.6 3.1-9.6 3.1-2.5 6.1 22.6 2 9.6-3.2z"/>
<path d="M1393 1190.3c-18 4-14.2 22.4 7.2 11.6-.1-5.2 2-15-7.3-11.6z"/>
</g>
<g fill="#4F2413">
<path d="M648 1330.7c3.7-10.7-9.5-7.8-9.8.1.3 1.7 9 3 9.9-.1z"/>
<path d="M881.3 1390.1c-13.2-3.2-18.7 11-3 14.2 13.9-1 18.2-11.6 3-14.2z"/>
<path d="M724.3 1373.3c-13.3-3.2-18.8 11-3 14.1 13.9-1 18.2-11.5 3-14z"/>
<path d="M747.7 1338.3s-11.4-1.1-12.2 3.6c-2.8 21.6 41 2.9 12.2-3.6z"/>
<path d="M1161.5 1408.5s-11.5-1.1-12.3 3.6c-2.7 21.6 41.1 2.9 12.3-3.6z"/>
<path d="M769.7 1402.9c-3.6-5.6-19.5 5.2-9.5 7.4 2.2 1.2 20.4 1.8 9.5-7.4z"/>
<path d="M636.9 1402.4s-5 4.9-3.9 7c10.6 7 18.5-15 3.9-7z"/>
<path d="M582.1 1378.3c-.6-.2-.2 8-.3 8.1 10.2 1.2 11.4-15.6.3-8z"/>
<path d="M940.5 1405.2c-6.1-2.2-7.7 4.6-2.5 8.3 7.5 1.8 14-8 2.5-8.3z"/>
<path d="M1266.8 1418.4c-6 2 5.6 7 4.8 2-.5-2-3.5-2.5-4.8-2z"/>
<path d="M1095 1397.3c-11.9-2.2-7 6 2.5 6.4 3.6-.2 2-5.6-2.6-6.4z"/>
<path d="M986.4 1353.7s2.4 1.6 4.3 1.5c4.8-2-7.6-5.7-4.3-1.5z"/>
<path d="M1112.3 1355.5s2.5 1.5 4.3 1.4c4.9-2-7.5-5.7-4.3-1.4z"/>
<path d="M855.5 1355.8c-5.9-1.1-3.5 3 1.3 3.2 1.8-.1 1-2.8-1.3-3.2z"/>
<path d="M941.4 1389c4.9-2.1-7.5-5.8-4.3-1.5 0 0 2.5 1.5 4.3 1.4z"/>
<path d="M616 1382.3c-6-1-3.6 3 1.2 3.2 1.8 0 1-2.8-1.3-3.2z"/>
<path d="M1147 1391.8c-5.9-1-3.5 3 1.2 3.2 1.9 0 1-2.8-1.2-3.2z"/>
<path d="M649.6 1368.8c-6-1-3.5 3 1.2 3.2 1.8 0 1-2.8-1.2-3.2z"/>
<path d="M665.5 1384.5c-5.9-1-3.5 3 1.3 3.2 1.8 0 1-2.8-1.3-3.2z"/>
<path d="M737 1326.7c5-2-7.5-5.7-4.2-1.5 0 0 2.4 1.6 4.3 1.5z"/>
<path d="M831.2 1403.2c-6-1-3.5 3 1.3 3.2 1.8 0 1-2.8-1.3-3.2z"/>
<path d="M764.7 1379.4c4.9-2-7.5-5.7-4.3-1.5 0 0 2.5 1.6 4.3 1.5z"/>
<path d="M865.7 1371.8c-5.9-1-3.5 3 1.3 3.2 1.8 0 1-2.8-1.3-3.2z"/>
<path d="M931 1341.9c-6-1.1-3.5 3 1.2 3.2 1.8-.1 1-2.8-1.2-3.2z"/>
<path d="M896.8 1372c-6-1-3.5 3 1.2 3.2 1.8 0 1-2.8-1.2-3.2z"/>
<path d="M1152.5 1326.1c4.9-2-7.5-5.7-4.3-1.4 0 0 2.5 1.5 4.3 1.4z"/>
<path d="M904 1305.2c-3.8 3.3-.4 5.3 4.8 6 8.6-.7 4-15-4.8-6z"/>
<path d="M840 1329.5c-3.9 3.3-.4 5.3 4.8 6 8.6-.8 4-15-4.8-6z"/>
<path d="M959.6 1365c-3.8 3.2-.4 5.2 4.9 6 8.6-.8 4-15.1-4.9-6z"/>
<path d="M959.6 1333.5c-3.8 3.3-.4 5.3 4.9 6 8.6-.7 4-15-4.9-6z"/>
<path d="M1040.4 1403.6c-3.9 3.3-.4 5.3 4.8 6 8.6-.7 4-15-4.8-6z"/>
<path d="M1088 1357c-.6-4.5-5.2-3.2-9 0-6.6 6.3 12.1 9.5 9 0z"/>
<path d="M1233 1382.7c-3.8 3.2-.4 5.2 4.8 6 8.6-.8 4-15-4.8-6z"/>
<path d="M780.4 1366.3s-4.7 2.8-.7 3.3 5-5.2.7-3.3z"/>
<path d="M1011.8 1409.5s-4.7 2.7-.7 3.3c4 .5 5-5.3.7-3.3z"/>
<path d="M1018.9 1365.5s-4.7 2.8-.7 3.3 5-5.2.7-3.3z"/>
<path d="M864.2 1314c4 .5 5-5.2.7-3.3 0 0-4.6 2.8-.7 3.3z"/>
<path d="M1111.2 1324.7c4 .5 5-5.2.7-3.3 0 0-4.7 2.8-.7 3.3z"/>
<path d="M1053 1335.1s-4.6 2.8-.7 3.3c4 .5 5-5.2.8-3.3z"/>
<path d="M1223.1 1363.7s-4.7 2.8-.7 3.3 5-5.2.7-3.3z"/>
<path d="M1211.8 1333s-4.7 2.8-.7 3.3 5-5.2.7-3.3z"/>
<path d="M1194.5 1363.3s-4.6 2.8-.7 3.3c4 .5 5-5.2.7-3.3z"/>
<path d="M1131 1341.7s-4.7 2.8-.7 3.3 5-5.2.7-3.3z"/>
<path d="M1118.8 1306s-4.7 2.8-.7 3.3 5-5.2.7-3.3z"/>
<path d="M1142.1 1306.9s-4.6 2.8-.7 3.3c4 .5 5-5.2.7-3.3z"/>
<path d="M1074.4 1303.6s-4.7 2.8-.7 3.3 5-5.2.7-3.3z"/>
<path d="M985 1314.6c4 .5 5-5.2.8-3.3 0 0-4.7 2.8-.8 3.3z"/>
<path d="M815.5 1317.5s-4.7 2.7-.7 3.3c4 .5 5-5.3.7-3.3z"/>
<path d="M1225.6 1303.8c2-5-7.7-6-7.8-.4 1 2.3 7.3 3.3 7.8.3z"/>
<path d="M1172.3 1337c-7.8 2.3 3.3 8.6 5.2 3.6.5-3-1-5-5.2-3.7z"/>
<path d="M1112.4 1375.6c-7.8 2.4 3.2 8.8 5.2 3.7.4-3-1-5-5.2-3.7z"/>
<path d="M894 1351.8c-7.7 2.4 3.3 8.8 5.2 3.7.5-3-1-5-5.1-3.7z"/>
<path d="M810.2 1391.1c-7.8 2.4 3.2 8.7 5.1 3.7.5-3-1-5-5.1-3.7z"/>
<path d="M1021 1328.7c-.1 2.6 5.5 2.6 5.5 0 0-2.5-5.6-2.5-5.5 0z"/>
<path d="M1062.3 1378.2c-3.6 0-3.6 4 0 3.9 3.5 0 3.5-4 0-3.9z"/>
<path d="M682 1309.5c-3.5 0-3.5 4 0 3.9 3.6 0 3.6-4 0-3.9z"/>
<path d="M925.9 1324.4c3.6 0 3.6-4 0-4s-3.6 4 0 4z"/>
<path d="M1172.5 1316c3.6.1 3.6-3.9 0-3.8-3.6 0-3.6 4 0 3.9z"/>
<path d="M1043 1308.8c3.6 0 3.6-4 0-4s-3.6 4 0 4z"/>
<path d="M1195.2 1386.7c-3.6 0-3.6 4 0 4s3.6-4 0-4z"/>
<path d="M715.1 1331c3.6 0 3.6-4 0-4s-3.6 4 0 4z"/>
<path d="M621.4 1310.2c-3.6 0-3.6 4 0 4s3.6-4 0-4z"/>
<path d="M736.1 1312c3.6 0 3.6-4 0-4s-3.6 4 0 4z"/>
<path d="M636.6 1348c0-2.5-5.6-2.5-5.5 0-.1 2.5 5.5 2.5 5.5 0z"/>
<path d="M690.3 1373c-3.6 0-3.6 4 0 4s3.6-4 0-4z"/>
<path d="M923.8 1357c-3.6 0-3.6 4 0 4s3.6-4 0-4z"/>
<path d="M985.1 1333.9c0 2.5 5.6 2.5 5.5 0 .1-2.6-5.5-2.6-5.5 0z"/>
<path d="M1021 1320c3.5 0 3.5-4 0-4-3.6 0-3.6 4 0 4z"/>
<path d="M946.5 1308.8c-3.5 0-3.5 4 0 3.9 3.6 0 3.6-4 0-4z"/>
<path d="M1093.3 1331c3.6 0 3.6-4 0-4s-3.6 4 0 4z"/>
<path d="M820.5 1382.3c-3.6 0-3.6 4 0 4s3.6-4 0-4z"/>
<path d="M714.4 1359c0-2.6-5.6-2.6-5.5 0 0 2.5 5.6 2.5 5.5 0z"/>
<path d="M806 1416.2c-3.6 0-3.6 4 0 3.9 3.6 0 3.6-4 0-3.9z"/>
<path d="M767.5 1323.4c3.5 0 3.5-4 0-4-3.6 0-3.6 4 0 4z"/>
<path d="M606.3 1356c0-2.5-5.6-2.5-5.5 0 0 2.6 5.5 2.6 5.5 0z"/>
<path d="M607.6 1411.8c-3.5 0-3.5 4 0 4 3.6 0 3.6-4 0-4z"/>
<path d="M727.5 1412.5c-3.6 0-3.6 4 0 4s3.6-4 0-4z"/>
<path d="M905.2 1405.7c-3.6 0-3.6 4 0 4s3.6-4 0-4z"/>
<path d="M1098.8 1414c-3.6 0-3.6 4 0 4s3.6-4 0-4z"/>
<path d="M983.8 1379.4c-3.6 0-3.6 4 0 4 3.5 0 3.5-4 0-4z"/>
<path d="M1025 1385c-3.5 0-3.5 4 0 4 3.7 0 3.7-4 0-4z"/>
<path d="M989 1393c-3.7 0-3.7 4 0 4 3.5 0 3.5-4 0-4z"/>
<path d="M871.1 1412c-3.6 0-3.6 4 0 4s3.6-4 0-4z"/>
<path d="M978.6 1412.8c-3.6 0-3.6 4 0 3.9 3.6 0 3.6-4 0-3.9z"/>
<path d="M1204.9 1407.7c-3.6 0-3.6 4 0 3.9 3.5 0 3.5-4 0-4z"/>
<path d="M1251.7 1357.5c-3.6 0-3.6 4 0 3.9 3.6 0 3.6-4 0-4z"/>
<path d="M1227.6 1328.7c-3.6 0-3.6 4 0 4s3.6-4 0-4z"/>
<path d="M1297.3 1365.4c-25.2 1.3-15.7 22.3 1.1 21.7 14.6 2.1 13.5-22.1-1-21.7z"/>
<path d="M1356.4 1378.3s-5 4.8-3.9 7c10.6 7 18.5-15 3.9-7z"/>
<path d="M1390.2 1382.3c-6-1-3.5 3 1.2 3.2 1.8 0 1-2.8-1.2-3.2z"/>
<path d="M1314.7 1418.2c-5.9-1.2-3.5 3 1.3 3.1 1.8 0 1-2.8-1.3-3.1z"/>
<path d="M1317.5 1321.3s-4.7 2.8-.7 3.3 5-5.2.7-3.3z"/>
<path d="M1291 1317.3c4 .5 5-5.2.7-3.3 0 0-4.7 2.8-.7 3.3z"/>
<path d="M1302 1401s-4.7 2.8-.7 3.3 5-5.2.7-3.3z"/>
<path d="M1341.5 1366.5s-4.7 2.8-.7 3.3 5-5.2.7-3.3z"/>
<path d="M1323 1308c-3.6 0-3.6 4 0 4s3.6-4 0-4z"/>
<path d="M1290.3 1347.3c0 2.5 5.6 2.5 5.5 0 0-2.6-5.6-2.6-5.5 0z"/>
<path d="M1395.7 1310.2c-3.6 0-3.6 4 0 4s3.6-4 0-4z"/>
<path d="M1315.8 1356c-3.6 0-3.6 4 0 4 3.5 0 3.5-4 0-4z"/>
<path d="M1380.5 1356c0-2.5-5.6-2.5-5.5 0 0 2.6 5.6 2.5 5.5 0z"/>
<path d="M1339.2 1398.4c-3.6 0-3.6 4 0 4s3.6-4 0-4z"/>
<path d="M1381.9 1411.8c-3.6 0-3.6 4 0 4s3.6-4 0-4z"/>
</g>
<g fill="#7F4E2C">
<path d="M655.3 1205.7c3.6-10.6-9.6-7.8-9.9.1.3 1.7 9 3 10 0z"/>
<path d="M731.5 1248.3c-13.3-3.2-18.7 11-3 14.2 13.9-1 18.2-11.6 3-14.2z"/>
<path d="M755 1213.3c-13.3-3.2-18.8 11-3 14.1 13.8-1 18.1-11.5 3-14z"/>
<path d="M777 1277.9c-3.6-5.6-19.6 5.2-9.6 7.5 2.2 1.1 20.5 1.7 9.5-7.5z"/>
<path d="M644.1 1277.5s-5 4.8-3.9 7c10.6 6.9 18.6-15 4-7z"/>
<path d="M589.4 1253.3s-5.1 4.9-4 7c10.6 7 18.6-15 4-7z"/>
<path d="M947.7 1280.2c-6-2.1-7.7 4.6-2.4 8.4 7.5 1.7 14-8 2.4-8.4z"/>
<path d="M1274 1293.4s-3.2.7-.8 3c6.9 4.8 7-4.9.9-3z"/>
<path d="M1102.2 1272.3c-11.8-2.2-7 6.1 2.5 6.4 3.6-.2 2-5.6-2.5-6.4z"/>
<path d="M993.6 1228.8s2.5 1.5 4.3 1.4c4.9-2-7.5-5.7-4.3-1.5z"/>
<path d="M1119.5 1230.5s2.5 1.5 4.3 1.4c4.9-2-7.5-5.7-4.3-1.4z"/>
<path d="M862.8 1230.8c-6-1.1-3.5 3 1.2 3.2 1.8-.1 1-2.8-1.2-3.2z"/>
<path d="M948.6 1264c4.9-2-7.5-5.8-4.3-1.5 0 0 2.5 1.5 4.3 1.5z"/>
<path d="M623.1 1257.4c-5.9-1.1-3.5 3 1.3 3.2 1.8-.1 1-2.8-1.3-3.2z"/>
<path d="M1154.2 1266.9c-5.9-1.1-3.5 3 1.3 3.2 1.8-.1 1-2.8-1.3-3.2z"/>
<path d="M656.8 1243.9c-6-1.1-3.5 3 1.2 3.2 1.9-.1 1-2.8-1.2-3.2z"/>
<path d="M672.7 1259.6c-5.9-1.1-3.5 3 1.3 3.2 1.8-.1 1-2.8-1.3-3.2z"/>
<path d="M744.3 1201.7c4.9-2-7.5-5.7-4.3-1.5 0 0 2.5 1.6 4.3 1.5z"/>
<path d="M838.4 1278.2c-5.9-1-3.5 3 1.3 3.2 1.8 0 1-2.8-1.3-3.2z"/>
<path d="M772 1254.4c4.8-2-7.6-5.7-4.3-1.4 0 0 2.4 1.5 4.2 1.4z"/>
<path d="M873 1246.9c-6-1.2-3.5 3 1.2 3.1 1.8 0 1-2.7-1.2-3.1z"/>
<path d="M938.2 1216.9c-6-1.1-3.5 3 1.3 3.2 1.8-.1 1-2.8-1.3-3.2z"/>
<path d="M904 1247c-6-1-3.5 3.1 1.2 3.3 1.9-.1 1-2.8-1.2-3.2z"/>
<path d="M821.5 1222c-5.9-1.1-3.5 3 1.3 3.2 1.8-.1 1-2.8-1.3-3.2z"/>
<path d="M1158.5 1198c-6-1.2-3.5 3 1.2 3.2 1.8-.2 1-2.9-1.2-3.3z"/>
<path d="M906.8 1207.3c-3.8 3.2-.4 5.2 4.8 6 8.6-.8 4-15.1-4.8-6z"/>
<path d="M847.2 1204.5c-3.8 3.3-.4 5.3 4.8 6 8.6-.7 4-15-4.8-6z"/>
<path d="M966.9 1240c-3.8 3.2-.4 5.2 4.8 6 8.6-.8 4-15.1-4.8-6z"/>
<path d="M966.9 1208.5c-3.8 3.3-.4 5.3 4.8 6 8.6-.7 4-15-4.8-6z"/>
<path d="M1047.6 1278.7c-3.8 3.2-.4 5.2 4.8 6 8.6-.8 4-15-4.8-6z"/>
<path d="M1095.3 1232c-.6-4.5-5.2-3.2-9 0-6.7 6.3 12 9.5 9 0z"/>
<path d="M1262.4 1249.5c-3.9 3.2-.4 5.2 4.8 6 8.6-.8 4-15.1-4.8-6z"/>
<path d="M787.6 1241.3s-4.6 2.8-.7 3.3c4 .5 5-5.2.8-3.3z"/>
<path d="M1019 1284.5s-4.7 2.8-.7 3.3 5-5.2.7-3.3z"/>
<path d="M1026.1 1240.6s-4.6 2.8-.7 3.3c4 .5 5-5.2.7-3.3z"/>
<path d="M871.4 1189c4 .5 5-5.2.8-3.3 0 0-4.7 2.8-.8 3.3z"/>
<path d="M1118.4 1199.7c4 .5 5-5.2.7-3.3 0 0-4.6 2.8-.7 3.3z"/>
<path d="M1060.3 1210.1s-4.7 2.8-.7 3.3 5-5.2.7-3.3z"/>
<path d="M1230.3 1238.7s-4.6 2.8-.7 3.3c4 .5 5-5.2.8-3.3z"/>
<path d="M1219 1208s-4.6 2.8-.7 3.3c4 .5 5-5.2.7-3.3z"/>
<path d="M1201.8 1238.4s-4.7 2.7-.7 3.3c3.9.5 5-5.2.7-3.3z"/>
<path d="M1138.2 1216.7s-4.6 2.8-.7 3.3c4 .5 5-5.2.7-3.3z"/>
</g>
<path fill="#68220F" d="M1126 1181s-4.6 2.8-.7 3.3c4 .5 5-5.2.7-3.3z"/>
<g fill="#7F4E2C">
<path d="M1149.4 1181.9s-4.7 2.8-.8 3.3c4 .5 5-5.2.8-3.3z"/>
<path d="M1081.6 1178.6s-4.6 2.8-.7 3.3c4 .5 5-5.2.7-3.3z"/>
<path d="M992.3 1189.6c4 .5 5-5.2.7-3.3 0 0-4.7 2.8-.7 3.3z"/>
<path d="M822.7 1192.5s-4.6 2.8-.7 3.3c4 .5 5-5.2.7-3.3z"/>
<path d="M1232.8 1178.8c2-4.9-7.7-5.9-7.7-.4 1 2.3 7.2 3.3 7.7.4z"/>
<path d="M1179.6 1212c-7.8 2.3 3.2 8.7 5.1 3.6.5-3-1-5-5.1-3.7z"/>
<path d="M1265.5 1214.8c2-4.9-7.7-5.9-7.7-.3 1 2.2 7.3 3.3 7.7.3z"/>
<path d="M1119.6 1250.7c-7.8 2.3 3.3 8.7 5.2 3.6.5-3-1-5-5.2-3.6z"/>
<path d="M901.3 1226.9c-7.8 2.3 3.2 8.7 5.1 3.6.5-3-1-5-5.1-3.6z"/>
<path d="M1051 1224.3c1.9-5-7.8-6-7.8-.4 1 2.3 7.3 3.3 7.7.3z"/>
<path d="M817.4 1266.1c-7.8 2.4 3.3 8.8 5.2 3.7.4-3-1-5-5.2-3.7z"/>
<path d="M1028.2 1203.8c0 2.5 5.6 2.5 5.5 0 0-2.6-5.6-2.6-5.5 0z"/>
<path d="M1069.5 1253.2c-3.6 0-3.6 4 0 4s3.6-4 0-4z"/>
<path d="M689.3 1184.5c-3.6 0-3.6 4 0 4 3.5 0 3.5-4 0-4z"/>
<path d="M933.1 1199.4c3.6 0 3.6-4 0-4s-3.6 4 0 4z"/>
<path d="M1179.7 1191.1c3.6 0 3.6-4 0-3.9-3.5 0-3.5 4 0 3.9z"/>
<path d="M1050.2 1183.8c3.6 0 3.6-4 0-3.9-3.6 0-3.5 4 0 3.9z"/>
<path d="M1202.5 1261.8c-3.6 0-3.6 3.9 0 3.9 3.5 0 3.5-4 0-4z"/>
<path d="M722.3 1206c3.6 0 3.6-4 0-4-3.5 0-3.5 4 0 4z"/>
<path d="M628.7 1185.3c-3.6 0-3.6 3.9 0 3.9 3.5 0 3.5-4 0-4z"/>
<path d="M743.4 1187c3.5 0 3.5-4 0-4-3.6 0-3.6 4 0 4z"/>
<path d="M643.8 1223c0-2.5-5.6-2.5-5.5 0 0 2.5 5.6 2.5 5.5 0z"/>
<path d="M697.5 1248.1c-3.5 0-3.5 4 0 3.9 3.6 0 3.6-4 0-3.9z"/>
<path d="M931 1232c-3.5 0-3.5 4 0 4 3.6 0 3.6-4 0-4z"/>
<path d="M992.4 1208.9c-.1 2.5 5.5 2.5 5.5 0s-5.6-2.5-5.5 0z"/>
<path d="M1028.2 1195c3.6 0 3.6-4 0-3.9-3.6 0-3.6 4 0 3.9z"/>
<path d="M953.8 1183.8c-3.6 0-3.6 4 0 3.9 3.6 0 3.6-4 0-4z"/>
<path d="M1100.5 1206c3.6 0 3.6-4 0-4s-3.6 4 0 4z"/>
<path d="M827.7 1257.4c-3.6 0-3.6 3.9 0 3.9s3.6-4 0-4z"/>
<path d="M721.6 1234c.1-2.5-5.5-2.5-5.5 0s5.6 2.5 5.5 0z"/>
<path d="M813.3 1291.2c-3.6 0-3.6 4 0 4 3.5 0 3.5-4 0-4z"/>
<path d="M774.7 1198.4c3.6 0 3.6-4 0-3.9-3.6 0-3.6 4 0 4z"/>
<path d="M613.5 1231c0-2.5-5.6-2.5-5.5 0 0 2.6 5.6 2.6 5.5 0z"/>
<path d="M614.9 1286.8c-3.6 0-3.6 4 0 4s3.6-4 0-4z"/>
<path d="M734.7 1287.6c-3.5 0-3.5 3.9 0 3.9 3.6 0 3.6-4 0-4z"/>
<path d="M912.5 1280.8c-3.6 0-3.6 3.9 0 3.9 3.5 0 3.5-4 0-4z"/>
<path d="M1106 1289c-3.6 0-3.6 4 0 4s3.6-4 0-4z"/>
<path d="M991 1254.4c-3.6 0-3.6 4 0 4s3.6-4 0-4z"/>
<path d="M1032.3 1260c-3.6 0-3.6 4 0 4s3.6-4 0-4z"/>
<path d="M996.1 1268c-3.5 0-3.5 4 0 4 3.6 0 3.6-4 0-4z"/>
<path d="M878.4 1287c-3.6 0-3.6 4 0 4 3.5 0 3.5-4 0-4z"/>
<path d="M985.8 1287.8c-3.6 0-3.6 4 0 4s3.6-4 0-4z"/>
<path d="M1212.1 1282.7c-3.6 0-3.6 4 0 3.9 3.6 0 3.6-4 0-3.9z"/>
<path d="M1261.7 1234.5c0-2.6-5.6-2.6-5.5 0 0 2.5 5.6 2.5 5.5 0z"/>
<path d="M1275.5 1195.7c3.6 0 3.6-3.9 0-3.9s-3.6 4 0 4z"/>
<path d="M1214 1194.2c0-2.5-5.5-2.5-5.5 0s5.6 2.5 5.5 0z"/>
<path d="M1234.8 1203.8c-3.6 0-3.6 4 0 3.9 3.6 0 3.6-4 0-4z"/>
<path d="M1304.6 1240.4c-25.3 1.3-15.7 22.4 1 21.7 14.6 2.1 13.5-22.1-1-21.7z"/>
<path d="M1363.6 1253.3c-10 7.8 2 12.5 7.8 3.4 1.6-5-3.8-7.3-7.8-3.4z"/>
<path d="M1397.4 1257.4c-6-1.1-3.5 3 1.3 3.2 1.8-.1 1-2.8-1.3-3.2z"/>
<path d="M1322 1293.2c-6-1.1-3.5 3 1.2 3.2 1.8-.1 1-2.8-1.2-3.2z"/>
<path d="M1324.8 1196.3s-4.7 2.8-.8 3.3c4 .5 5-5.2.8-3.3z"/>
<path d="M1298.2 1192.3c4 .5 5-5.2.7-3.3 0 0-4.6 2.8-.7 3.3z"/>
<path d="M1309.3 1276s-4.7 2.8-.8 3.3c4 .5 5-5.2.8-3.3z"/>
<path d="M1348.7 1241.5s-4.6 2.8-.7 3.3 5-5.2.7-3.3z"/>
<path d="M1330.2 1183c-3.5 0-3.6 4 0 4s3.6-4 0-4z"/>
<path d="M1297.5 1222.3c0 2.5 5.6 2.5 5.5 0 0-2.5-5.5-2.5-5.5 0z"/>
<path d="M1323 1231c-3.6 0-3.6 4 0 4s3.6-4 0-4z"/>
<path d="M1387.8 1231c0-2.5-5.6-2.5-5.6 0 0 2.6 5.6 2.6 5.5 0z"/>
<path d="M1346.4 1273.5c-3.6 0-3.6 3.9 0 3.9s3.6-4 0-4z"/>
<path d="M1389.1 1286.8c-3.5 0-3.5 4 0 4 3.6 0 3.6-4 0-4z"/>
</g>
<g fill="#250F04">
<path d="M649.5 1460c3.5-10.7-9.6-7.9-10 0 .3 1.8 9.1 3 10 0z"/>
<path d="M882.7 1519.4s-11.5-1.2-12.3 3.5c-2.7 21.7 41.1 3 12.3-3.5z"/>
<path d="M749.1 1467.5c-13.3-3.2-18.7 11-3 14.2 13.9-1 18.2-11.6 3-14.2z"/>
<path d="M1162.9 1537.7c-13.3-3.1-18.8 11-3 14.2 13.8-1 18.1-11.6 3-14.2z"/>
<path d="M771 1532.1c-3.5-5.6-19.5 5.3-9.4 7.5 2.2 1.1 20.4 1.8 9.5-7.5z"/>
<path d="M638.3 1531.7s-5.1 4.8-4 7c10.6 6.9 18.6-15 4-7z"/>
<path d="M589 1513.9s-5 4.8-3.8 7c10.5 7 18.5-15 3.8-7z"/>
<path d="M941.9 1534.4c-6.1-2.1-7.8 4.7-2.5 8.4 7.5 1.8 14-8 2.5-8.4z"/>
<path d="M1268.2 1547.6s-3.3.7-.8 3c6.8 4.9 7-4.9.8-3z"/>
<path d="M1274.5 1475.3c-6 2 5.5 7 4.8 2-.5-2-3.5-2.5-4.8-2z"/>
<path d="M1096.3 1526.6c-11.8-2.2-7 6 2.5 6.3 3.7-.1 2-5.6-2.5-6.3z"/>
<path d="M990.8 1481.2c-6-1-3.5 3 1.2 3.2 1.9 0 1-2.8-1.2-3.2z"/>
<path d="M617.3 1511.6c-6-1.1-3.5 3 1.2 3.2 1.9-.1 1-2.8-1.2-3.2z"/>
<path d="M1148.4 1521c-6-1-3.5 3.1 1.2 3.3 1.9-.1 1-2.8-1.2-3.2z"/>
<path d="M1274 1519.5c-6-1.1-3.5 3 1.3 3.2 1.8-.1 1-2.8-1.3-3.2z"/>
<path d="M651 1498.1c-6-1.1-3.6 3 1.2 3.2 1.8-.1 1-2.8-1.3-3.2z"/>
<path d="M737.2 1452.7c-6-1-3.5 3 1.2 3.2 1.9 0 1-2.8-1.2-3.2z"/>
<path d="M832.6 1532.5c-6-1.2-3.6 3 1.2 3.2 1.8-.1 1-2.8-1.2-3.2z"/>
<path d="M806 1540.7c-6-1.1-3.6 3 1.2 3.2 1.8-.1 1-2.8-1.3-3.2z"/>
<path d="M898.1 1501.3c-5.9-1.1-3.5 3 1.3 3.2 1.8-.1 1-2.8-1.3-3.2z"/>
<path d="M1153.9 1455.4c4.9-2-7.6-5.7-4.3-1.5 0 0 2.5 1.5 4.3 1.5z"/>
<path d="M905.4 1434.4c-3.9 3.3-.5 5.3 4.8 6 8.6-.7 4-15-4.9-6z"/>
<path d="M850.4 1458.6c-.6-4.4-5.2-3.1-9 .1-6.6 6.3 12 9.4 9-.1z"/>
<path d="M938.3 1466.6c-.6-4.4-5.3-3.1-9.1.2-6.6 6.2 12.1 9.4 9-.2z"/>
<path d="M845.3 1497.8c-3.8 3.3-.4 5.3 4.8 6 8.6-.7 4-15-4.8-6z"/>
<path d="M867 1544.6c-3.8 3.3-.4 5.3 4.8 6 8.6-.8 4-15-4.8-6z"/>
<path d="M674.8 1497.8c-3.8 3.3-.4 5.3 4.8 6 8.6-.7 4-15-4.8-6z"/>
<path d="M961 1494.2c-3.8 3.2-.4 5.2 4.9 6 8.5-.8 4-15-4.9-6z"/>
<path d="M1041.7 1532.9c-3.8 3.3-.4 5.3 4.9 6 8.6-.8 4-15-4.9-6z"/>
<path d="M1089.4 1486.2c-.6-4.5-5.2-3.2-9 .1-6.6 6.2 12.1 9.4 9-.1z"/>
<path d="M1234.3 1511.9c-3.8 3.3-.4 5.3 4.9 6 8.6-.8 4-15-4.9-6z"/>
<path d="M1170.8 1500c-3.9 3.3-.4 5.3 4.8 6 8.6-.7 4-15-4.8-6z"/>
<path d="M1269.7 1441.4c-.6-4.4-5.2-3.1-9 .1-6.6 6.3 12.1 9.5 9-.1z"/>
<path d="M1098.7 1437.3c-3.9 3.3-.4 5.3 4.8 6 8.6-.8 4-15-4.8-6z"/>
<path d="M781.8 1495.5s-4.7 2.8-.7 3.3 5-5.2.7-3.3z"/>
<path d="M1013.1 1538.7s-4.6 2.8-.7 3.3c4 .5 5-5.2.8-3.3z"/>
<path d="M1113.3 1450.6s-4.7 2.8-.7 3.3c3.9.5 5-5.2.7-3.3z"/>
<path d="M1054.5 1464.3s-4.7 2.8-.8 3.3c4 .5 5-5.2.8-3.3z"/>
<path d="M1224.5 1493s-4.7 2.7-.7 3.2 5-5.2.7-3.3z"/>
<path d="M1132.4 1470.9s-4.7 2.8-.8 3.3c4 .5 5-5.2.8-3.3z"/>
<path d="M1208.7 1456.5s-4.7 2.8-.7 3.3 5-5.2.7-3.3z"/>
<path d="M1143.5 1436.1s-4.7 2.8-.7 3.3 5-5.2.7-3.3z"/>
<path d="M1075.8 1432.8s-4.7 2.8-.7 3.3 5-5.2.7-3.3z"/>
<path d="M986.4 1443.9c4 .5 5-5.2.7-3.3 0 0-4.6 2.8-.7 3.3z"/>
<path d="M816.9 1446.7s-4.7 2.8-.7 3.3c3.9.5 5-5.2.7-3.3z"/>
<path d="M1227 1433c1.9-4.9-7.8-5.9-7.8-.3 1 2.2 7.3 3.3 7.7.3z"/>
<path d="M1178.8 1469.8c2-4.9-7.7-5.9-7.7-.3 1 2.2 7.3 3.3 7.8.3z"/>
<path d="M953.3 1436.8c-7.8 2.4 3.2 8.7 5.1 3.6.5-3-1-5-5.1-3.6z"/>
<path d="M1117.9 1487.3c-7.8 2.4 3.3 8.8 5.2 3.7.4-3-1-5-5.2-3.7z"/>
<path d="M1027.8 1458c.1-2.5-5.5-2.5-5.5 0s5.6 2.5 5.5 0z"/>
<path d="M1063.7 1507.4c-3.6 0-3.6 4 0 4 3.5 0 3.5-4 0-4z"/>
<path d="M683.4 1438.8c-3.6 0-3.6 3.9 0 3.9s3.6-4 0-4z"/>
<path d="M927.3 1453.6c3.5 0 3.5-4 0-3.9-3.6 0-3.6 4 0 4z"/>
<path d="M871.1 1446.4c3.6 0 3.6-4 0-3.9-3.6 0-3.6 4 0 4z"/>
<path d="M1014.8 1432.8c0-2.6-5.6-2.6-5.6 0 0 2.5 5.6 2.5 5.5 0z"/>
<path d="M742.3 1437.6c3.6 0 3.6-3.9 0-3.9s-3.6 4 0 4z"/>
<path d="M699 1459.3c-3.7 0-3.7 4 0 4 3.5 0 3.5-4 0-4z"/>
<path d="M866 1483.2c0-2.5-5.6-2.5-5.5 0-.1 2.5 5.5 2.5 5.5 0z"/>
<path d="M807 1478.8c.1-2.5-5.5-2.5-5.4 0-.1 2.5 5.5 2.5 5.5 0z"/>
<path d="M787.8 1436.7c-3.6 0-3.6 3.9 0 3.9s3.6-4 0-4z"/>
<path d="M675.5 1475.2c0-2.6-5.6-2.6-5.5 0 0 2.5 5.5 2.5 5.5 0z"/>
<path d="M689.3 1529.5c-3.6 0-3.6 4 0 3.9 3.5 0 3.5-4 0-4z"/>
<path d="M615.2 1438.6c0-2.5-5.6-2.5-5.5 0 0 2.6 5.6 2.5 5.5 0z"/>
<path d="M1029.2 1497.6c-3.6 0-3.6 3.9 0 3.9s3.6-4 0-4z"/>
<path d="M1138.7 1501.2c-3.5 0-3.5 4 0 4 3.6 0 3.6-4 0-4z"/>
<path d="M1044.4 1482c0-2.5-5.6-2.5-5.6 0s5.6 2.5 5.6 0z"/>
<path d="M1087 1468.6c3.6 0 3.6-4 0-4-3.5 0-3.5 4 0 4z"/>
<path d="M1173.9 1445.3c3.5 0 3.5-4 0-3.9-3.6 0-3.6 4 0 4z"/>
<path d="M1044.4 1438c3.5 0 3.5-4 0-3.9-3.6 0-3.6 4 0 4z"/>
<path d="M1196.6 1516c-3.6 0-3.6 4 0 3.9 3.6 0 3.6-4 0-4z"/>
<path d="M925.2 1486.3c-3.6 0-3.6 3.9 0 3.9s3.6-4 0-4z"/>
<path d="M821.9 1511.6c-3.6 0-3.6 4 0 3.9 3.5 0 3.5-4 0-4z"/>
<path d="M713 1486.3c-3.6 0-3.6 3.9 0 3.9s3.6-4 0-4z"/>
<path d="M768.8 1452.6c3.6 0 3.6-3.9 0-3.9s-3.5 4 0 4z"/>
<path d="M604.9 1483.3c-3.6 0-3.6 4 0 4s3.6-4 0-4z"/>
<path d="M599.7 1544.8c-3.6 0-3.6 4 0 4s3.6-4 0-4z"/>
<path d="M728.9 1541.8c-3.6 0-3.6 4 0 3.9 3.6 0 3.5-4 0-4z"/>
<path d="M906.6 1535c-3.6 0-3.6 4 0 3.9 3.6 0 3.6-4 0-4z"/>
<path d="M1100.2 1543.3c-3.6 0-3.6 3.9 0 3.8 3.5 0 3.5-3.9 0-3.8z"/>
<path d="M985.1 1508.7c-3.6 0-3.6 3.9 0 3.9s3.6-4 0-4z"/>
<path d="M1206.2 1537c-3.5-.1-3.5 3.9 0 3.8 3.6 0 3.6-4 0-3.9z"/>
<path d="M1253 1486.7c-3.5 0-3.5 4 0 4 3.7 0 3.7-4 0-4z"/>
<path d="M1229 1458c-3.6 0-3.6 4 0 3.9 3.5 0 3.5-4 0-4z"/>
<path d="M1298.7 1494.6c-25.3 1.3-15.7 22.4 1 21.7 14.6 2.1 13.6-22.1-1-21.7z"/>
<path d="M1363.3 1513.9c-10 7.8 2 12.5 7.8 3.3 1.6-4.9-3.8-7.2-7.8-3.3z"/>
<path d="M1391.5 1511.6c-5.9-1.1-3.5 3 1.3 3.2 1.8-.1 1-2.8-1.3-3.2z"/>
<path d="M1342.9 1495.7s-4.7 2.8-.7 3.3c3.9.5 5-5.2.7-3.3z"/>
<path d="M1324.4 1437.3c-3.6 0-3.6 4 0 3.9 3.6 0 3.5-4 0-4z"/>
<path d="M1311 1468c-3.6 0-3.6 4 0 3.9 3.5 0 3.5-4 0-4z"/>
<path d="M1301.6 1545.6c-3.5 0-3.5 4 0 3.9 3.6 0 3.6-4 0-4z"/>
<path d="M1389.5 1438.6c0-2.5-5.6-2.5-5.5 0-.1 2.5 5.5 2.6 5.5 0z"/>
<path d="M1379.1 1483.3c-3.5 0-3.5 4 0 4 3.6 0 3.6-4 0-4z"/>
<path d="M1340.6 1527.7c-3.6 0-3.6 3.9 0 3.9 3.5 0 3.5-4 0-4z"/>
<path d="M1374 1544.8c-3.6 0-3.6 4 0 4 3.5 0 3.5-4 0-4z"/>
</g>
<path fill="#8B5531" d="M1400.2 1165.6c-12.6-6.4-21-1.5-27.6 6.5 2.1 3 18 2.6 27.6-1.6v-4.9z"/>
<path fill="#A16E48" d="M1211.4 1167.7s11-.4 20.4 1.6c7.5 6.6-31.6 13.2-20.4-1.6z"/>
<path fill="#9C673F" d="M1264.9 1163.4c-9 13.6 24.8 11 25.2 2.5 1.2-10-23.3-5-25.2-2.5z"/>
<path fill="#8B5531" d="M629.3 1168.8c-.6-4-12.1-5.7-16.4-6.6-4.4-.9-14.6 9.9-14.6 9.9 2.4 3.5 22.2 2.4 31-3.3z"/>
<path fill="#AE8163" d="M906.7 1170.5c-21 13.7 27.2 16 41 16.6 14.8.4 39.6-12.4 28.8-18.2-18.7-14.8-57.4-8.1-69.8 1.6z"/>
<path fill="#6E3B1D" d="M901 1176.5c6.2 10.3 34.8 10 51.3 10.3-15.5-10.4-32.2-12.4-51.3-10.3z"/>
<path fill="#8B5532" d="M960.4 1173.3c-12.9 0-23.5 2.3-29 3.8 5.6 1.7 15.5 6.8 20.9 9.7 12.3-1.5 27.8-9.4 26.8-15-3.4.7-9 1.4-18.7 1.5z"/>
<path fill="#C79D79" d="M921.2 1176c3.9 1.6 26.1-1.3 29-2.2 1.3-.3-27.1 2.7-29 2.3z"/>
<path fill="#B38B6C" d="M629.3 1168.8c-21 13.7 27.2 16 41 16.6 14.8.4 39.5-12.4 28.8-18.2-18.8-14.8-53.2-10.5-69.8 1.6z"/>
<path fill="#6C391E" d="M624 1174.8c1.7 11.7 42.3 12.4 51.4 10.3-15.5-10.4-32.2-12.4-51.3-10.3z"/>
<path fill="#94623C" d="M683 1171.6c-12.9 0-26.8 2.3-32.3 3.7 5.6 1.7 18.8 6.9 24.2 9.8 12.3-1.5 27.8-9.4 26.8-15-3.4.7-9 1.4-18.7 1.5z"/>
<path fill="#C79D79" d="M643.8 1174.4c4.9 2.9 27-1.5 28.9-2.3-8.2.1-21.3 2-28.9 2.3z"/>
<path fill="#AE8163" d="M1004 1164.4c-19.6 4.7 11.2 16.2 21.9 19.5 33.3 5.4 35-11 6.7-20.2-10.1-3-28.6.7-28.6.7z"/>
<path fill="#6E3B1D" d="M997.7 1167.5c.1 8.2 20.6 13.9 31.4 17.1-7.2-11-18-14.9-31.4-17.1z"/>
<path fill="#8B5532" d="M1040 1176.8c-8.9-2.4-17.1-3-21.5-3 3.3 2.3 8 7.7 10.6 10.8 9.1 1.4 23-1 24.4-5.1-2.5-.2-6.8-.8-13.5-2.7z"/>
<path fill="#C79D79" d="M1011.9 1171.1c2.6 2 18.8 4.1 20.8 4 1.4.2-19.4-3.2-20.8-4z"/>
<path fill="#A87855" d="M786.6 1170c-26.4 7.4 2 17.5 19.6 21.6 45.6-4.7 7.6-34.7-19.6-21.5z"/>
<path fill="#9C673F" d="M798.4 1167.5c-8.1 2-16.1 1-23 9.5 3.2 10 18.5-6.6 23-9.5z"/>
<path fill="#6C391E" d="M790.3 1174a30 30 0 01-12.4 6.6c7.3 4.8 22.9 11.4 33 11.1a106.5 106.5 0 01-20.6-17.6z"/>
<path fill="#C79D79" d="M795 1170.4l-4.7 3.7c3 3.4 6 6.2 6 6.2s-4.8-4.8-5.4-6.2c2.4-1.9 4-3.7 4-3.7z"/>
<path fill="#C79D79" d="M783 1179s5.5-3.2 7.3-5c-2 2.4-7.3 5-7.3 5z"/>
<path fill="#AE8163" d="M1085.8 1162.8c-29.3 8 15.1 26.1 24.7 13.1 10.5-10.4-17.8-18.2-24.7-13z"/>
<path fill="#6E3B1D" d="M1087.7 1172.2c-3-.9-7.2-.4-10.3.1 4.8 6.7 18.4 10.6 26.1 7.3a58 58 0 00-15.8-7.4z"/>
<path fill="#8B5532" d="M1095 1161.1c-3.6.6-24.7 3-17.6 11.2 7.3 0 13.6-3.4 17.5-11.2z"/>
<path fill="#C79D79" d="M1094 1162.8s-4.3 5.9-9.7 8.3c5.5-1.6 9.1-5.3 9.8-8.3z"/>
<path fill="#9C673F" d="M1234.8 1174c-13.2 18.6 34.6 13.1 30.6-3.2-.5-11-29.3-6-30.6 3.1z"/>
<path fill="#6C391E" d="M1245.5 1179.6c-3 .8-5.5 3.3-7.2 5.2 7.8 1.9 22.4-.1 25.8-7.9a72.3 72.3 0 00-18.6 2.7z"/>
<path fill="#8B5532" d="M1239.6 1168.2c-3.8 3.4-13.2 15.3-1.3 16.6 5.5-4 6-9.3 1.3-16.6z"/>
<path fill="#C79D79" d="M1240.6 1169.7s2.8 6.4 1.4 10.8a9 9 0 00-1.4-10.8z"/>
<path fill="#AE8163" d="M1155.9 1162c-7 4.7 9.6 19.2 15.7 21 6.8 2.5 42.6-5.3 38.8-16.9.8-4.4-47.7-14.1-54.5-4.2z"/>
<path fill="#8B5532" d="M1180.5 1157.6c-13.2-1.1-34.5 1.6-23.2 13.5 8.2 1 19.2-7.7 23.2-13.5z"/>
<path fill="#6E3B1D" d="M1167.3 1169c-3.4 1.5-7.3 2-10 2 8 10.9 15 14.6 28.6 11.3a51.2 51.2 0 01-18.6-13.4z"/>
<path fill="#C79D79" d="M1178.5 1159.8s-7 8.1-16.5 10.8a26.3 26.3 0 0016.5-10.8z"/>
<path fill="#C79D79" d="M1167.3 1169s5.5 6.2 11.3 9.3a17.5 17.5 0 01-11.3-9.4z"/>
<path fill="#A47551" d="M1337.2 1178.8c-21.4 14.7 14 15.4 29.5 14.8 40.1-16.5-11.7-34-29.5-14.8z"/>
<path fill="#8B5532" d="M1346.8 1173.3c-6.3 3.8-14.5 5.1-16.3 14.9 6.8 8.7 13.9-10.2 16.3-15z"/>
<path fill="#7B4626" d="M1342.8 1181.5c-1.7 3.6-5.1 8-8.2 9.4 9.4 2.4 26.6 4.6 36.5 1.6-16-4.8-24.6-8.9-28.3-11z"/>
<path fill="#D99964" d="M1345.1 1176.9l-2.3 4.6c4.5 2.4 8.7 4.2 8.7 4.2s-6.9-3.2-8.2-4.3c1.2-2.4 1.8-4.5 1.8-4.5z"/>
<path fill="#D99964" d="M1338.5 1188s3.4-4.4 4.3-6.5c-.7 2.7-4.3 6.5-4.3 6.5z"/>
<path fill="#A47551" d="M1322.7 1172.4c21.4 14.7-14 15.4-29.5 14.8-40.1-16.5 11.7-34 29.5-14.8z"/>
<path fill="#9C673F" d="M1313.1 1166.9c6.3 3.8 14.5 5.1 16.3 14.9-6.8 8.7-14-10.2-16.3-15z"/>
<path fill="#6C391E" d="M1317 1175.1c1.8 3.6 5.2 8 8.2 9.4-9.3 2.4-26.5 4.6-36.4 1.6 16-4.8 24.5-9 28.3-11z"/>
<path fill="#D99964" d="M1314.8 1170.5s1.5 3.3 2.3 4.6c-4.5 2.4-8.8 4.3-8.8 4.3s7-3.3 8.2-4.4c-1.2-2.4-1.7-4.5-1.7-4.5z"/>
<path fill="#D99964" d="M1321.3 1181.6s-3.4-4.4-4.2-6.5c.6 2.7 4.3 6.5 4.3 6.5z"/>
<path fill="#9C673F" d="M713.4 1166.3s-13.3.1-11.7 4.4c4.6 11.9 55.4-3.3 11.7-4.4z"/>
</g>



<path id="hemishpere" stroke-dasharray="2432" stroke-dashoffset="2432" fill="none" stroke="#3AEAFF" stroke-width="3" d="M217 1076a774 774 0 011548 0"/>


<linearGradient id="sun_msk_grd" x2="0" y2="1">
  <stop offset="0" stop-color="#fff"/>
  <stop offset="0.7" stop-color="#fff"/>
  <stop offset="1" stop-color="#000"/>
</linearGradient>
<mask id="sun_msk">
  <rect x="0" y="176" width="2000" height="900" fill="url(#sun_msk_grd)"/>
</mask>
<g mask="url(#sun_msk)">
  <g id="sun" transform="rotate(-80 991 1076)">
    <radialGradient id="sun_grd">
      <stop offset="0" stop-color="#fef505"/>
      <stop offset="1" stop-color="#ea9603"/>
    </radialGradient>
    <path fill="url(#sun_grd)" d="M663.7 314.6S685 286 708.8 284c-14.6 15.8-6 37.9-13.8 48.8-18.7-3.7-31.3-18-31.3-18z"/>
    <path fill="url(#sun_grd)" d="M628.4 448s-21.3 28.7-45.1 30.8c14.7-15.8 6-37.9 13.9-48.8a62.5 62.5 0 0131.2 18z"/>
    <path fill="url(#sun_grd)" d="M579.3 363.7s-28.6-21.3-30.7-45.1c15.8 14.6 37.9 6 48.8 13.9-3.7 18.6-18 31.2-18 31.2z"/>
    <path fill="url(#sun_grd)" d="M712.8 399s28.6 21.3 30.7 45.1c-15.8-14.6-37.8-6-48.8-13.9 3.7-18.6 18-31.2 18-31.2z"/>
    <path fill="url(#sun_grd)" d="M694.7 332.4s32.7-14.2 54.5-4c-20.6 6.3-24.1 29.7-36.4 35.3-14.4-12.6-18.1-31.3-18.1-31.3z"/>
    <path fill="url(#sun_grd)" d="M597.4 430.3s-32.7 14.2-54.4 4c20.5-6.3 24-29.7 36.4-35.3a62.5 62.5 0 0118 31.3z"/>
    <path fill="url(#sun_grd)" d="M597 332.7s-14-32.7-4-54.4c6.4 20.5 29.9 24 35.4 36.4-12.6 14.3-31.3 18-31.3 18z"/>
    <path fill="url(#sun_grd)" d="M695 430s14.2 32.7 4 54.4c-6.3-20.5-29.7-24-35.2-36.4 12.5-14.3 31.2-18 31.2-18z"/>
    <path fill="url(#sun_grd)" d="M712.7 363.3s35.4 4 49.1 23.7c-21-4.8-35.7 13.8-49.1 12.4-6.2-18 0-36.1 0-36.1z"/>
    <path fill="url(#sun_grd)" d="M579.5 399.4s-35.5-4-49.2-23.7c21 4.8 35.8-13.8 49.2-12.4 6 18 0 36.1 0 36.1z"/>
    <path fill="url(#sun_grd)" d="M628 314.8s4.1-35.5 23.7-49.2c-4.8 21 13.8 35.7 12.4 49.2-18 6-36.1 0-36.1 0z"/>
    <path fill="url(#sun_grd)" d="M664.1 448s-4 35.4-23.7 49.1c4.8-21-13.7-35.7-12.4-49.2 18-6 36.1 0 36.1 0z"/>
    <circle cx="646.1" cy="381.4" r="69.9" fill="#EE8C04"/>
    <circle cx="646.1" cy="381.4" r="68.3" fill="#EFB617"/>
    <circle cx="646.1" cy="381.4" r="57.4" fill="#EB802D"/>
    <circle cx="646.1" cy="381.4" r="54.5" fill="url(#sun_grd)"/>
  </g>
</g>


<path id="root" transform="translate(989 1178) scale(0) translate(-989 -1178)" fill="#C5B79D" d="M1006.1 1180a113.3 113.3 0 0142 25.9c31.1 2.4 88.6 51.5 97 56.3-20.4-9.6-68.3-44.4-86.2-45.6 51.5 54 94.6 103 129.3 123.4-37.1-21.6-58-43.7-98.8-84.4s-59.9-55.1-71.8-60c22.7 30 28.1 53.1 32.8 69 4.7 16 16.4 78.3 16.4 78.3s-18.3-69.4-25.8-89.5c-7.5-20.2-24.3-51.6-40.2-62.3 2.8 33.7 7 52 19.6 80.6 12.7 28.5 16.4 62.3 9 107.7 1.3-32.8 3.7-67.4-9.4-92.3-13.2-24.8-30-69.8-31-97.4-15.9 8.9-33.7 63.2-27.6 120-8-32-5.1-62.4 1.4-91.4-17.8 39.3-17.3 113.3-47.3 135.8 23.9-31.4 23.9-67 26.7-88 2.8-21.1 13-59 29-76.8-22.7 4.6-40.7 15.8-40.7 15.8-7 25.3-19.2 34.7-31.4 52.5a95.2 95.2 0 00-18.3 53.4c1-29 5.7-47.3 25.3-70.7 14.1-16.4 14.1-28.6 14.1-28.6s-25.8 9.1-87.6 80.6c26.7-38 83-106.1 145.5-114 14-1.7 21.2-.2 28 1.6z"/>


<g id="plant" transform="translate(989 1178) scale(0) translate(-989 -1178)">
  <path fill="#54A53E" d="M983.3 762.7s5.7-39.9-3.2-65.7-35-79-51.9-102.8-28.7-33.6-37.4-25.2l-12.2 11.6s93.2 172.3 104.7 182.1z"/>
  <path fill="#3F8822" d="M1119 423.6s-38.7 26-72.5 78.5c-33.8 52.4-40 84.7-47.2 102.6s-20.2 96.2-19.2 117.8c1 21.7 14.4 23.8 14.4 23.8s19.5-102.7 46.2-175.4c26.7-72.8 78.4-147.3 78.4-147.3z"/>
  <path fill="#54A53E" d="M983.3 946.7s-7.9-34.2-20.9-61.9c-13-27.7-14.3-47.6-35.9-55.4-21.5-7.8-29.3-2.3-64.2-11s-58.9-11-88.3-1.6c45.6 15.9 139.6 12.6 164 82.7s29 95.2 39.4 113.7l5.9-66.5z"/>
  <path fill="#3F8D23" d="M990.8 838.9s16.3-23.5 18.2-33c2-9.4-5.5-21.8 5.5-29s26.4-17.6 26.8-40.4 4.5-32 24.1-40.7c19.6-8.8 28.3-20.9 48.9-23.8s49.2-8.8 106.9 30.3c-57-5.5-96.8-8.5-128.8 16-31.9 24.4-95.8 167.5-95.8 167.5l-5.8-47z"/>
  <path fill="#3F8822" d="M849.2 599.3s1.1 9-.3 15.3c-1.7 7.2 2 28.4-4.7 44.7-6.7 16.3-22 72.2-26.7 119.5 9.9-22.6 35.4-86 64.3-108.1 8-23-21-69.4-32.6-71.4z"/>
  <path fill="#54A53E" d="M994.5 746.3c10.4 3.7 26.4-19.6 34-50.7 7.5-31.1 49.3-198.6 90.6-272-32.6 31.7-71.8 69.7-94 138.5-22 68.8-29.5 108.2-33.4 129.8s-12 49.2 2.8 54.4z"/>
  <path fill="#73B959" d="M975.5 1179.5l5.3-438 17.9-10.9 5.8 448.1s-1.4 7.6-13.4 7.6-15.6-6.8-15.6-6.8z"/>
  <path fill="#69AC50" d="M999.8 1184.4l-4.3-451.9 3.2-1.9 5.7 448.1s-.6 3.5-4.6 5.7z"/>
  <path fill="#3F8822" d="M988.1 1025.6c14.2 2.4 19-5.5 5-15.6s-22.6-35.9-30.4-69.5c-7.8-33.5-17.2-69.7-36.5-85.4s-75.6-37.8-109.5-41.3c-33.9-3.6-74.3 10.4-88.3 21.8 48.9 10.1 122.9 24.4 146.7 30.6 23.8 6.2 37.4 20.9 46.6 39.8s21.5 38.5 28 63.5c6.5 25.1 17.3 52.5 38.4 56.1z"/>
  <path fill="#54A43E" d="M988.8 905.3c8.8.5 16.6-11.7 30-36.5 13.4-24.7 33.2-68.7 63.2-107.2s91-55.4 139.2-59.3c-27.7-11-71.7-30-96.2-18.3s-60.6 18.3-72 40.1c-11.4 21.9-11.4 52.2-22.8 70.7-11.4 18.6-24.1 32-33.6 53.5S976 893 977.4 898.2c1.6 5.2 4.9 6.8 11.4 7.1z"/>
  <path fill="#54A53E" d="M980.6 786.3s16 3.4 16-7.1c0-10.6-14.3-17-16-26.5-1.7-9.6-14-26.2-28.2-53.1-14.3-26.9-60.8-110.2-73.8-119-9.9 2.7-26.9.6-29.6 13.9s37.4 87 55.8 115c18.4 27.8 51 67.3 75.8 76.8z"/>
  <path fill="#73B959" d="M878.6 580.5s31.7 42.6 57.5 89.3c25.8 46.8 44 80.7 44 80.7S937 674 922.8 649.8c-20.5-34.9-44.2-69.3-44.2-69.3z"/>
</g>

<g id="ray" opacity="0">
  <g transform="translate(756 433)">
    <polygon fill="#FB8906" points="82.6 97.6 116.4 108.1 103.11 75.11 97.81 90.73"/>
    <clipPath id="sun_clip">
      <rect width="24.98" height="121.7" x="40.84" y="-10.57" transform="rotate(-47.55 53.33 50.28)"/>
    </clipPath>
    <g clip-path="url(#sun_clip)">
      <path fill="none" stroke="#FB8906" stroke-linecap="round" stroke-width="4" d="M-58.24-52.93c-1.02 10.19 6.49 17.1 16.76 15.43h0c10.27-1.66 17.78 5.25 16.76 15.43h0c-1.02 10.19 6.49 17.1 16.76 15.43h0C2.32-8.29 9.82-1.38 8.81 8.81h0C7.79 19 15.29 25.91 25.57 24.24h0c10.27-1.66 17.77 5.25 16.75 15.44h0c-1.02 10.19 6.49 17.1 16.76 15.43h0c10.27-1.66 17.78 5.25 16.76 15.43h0c-1.02 10.19 6.49 17.1 16.76 15.43h0c5.14-.83 9.58.48 12.61 3.27"/>
    </g>
  </g>
  <g transform="translate(728 462)">
    <polygon fill="#FB8906" points="82.6 97.6 116.4 108.1 103.11 75.11 97.81 90.73"/>
    <clipPath id="sun_clip">
      <rect width="24.98" height="121.7" x="40.84" y="-10.57" transform="rotate(-47.55 53.33 50.28)"/>
    </clipPath>
    <g clip-path="url(#sun_clip)">
      <path fill="none" stroke="#FB8906" stroke-linecap="round" stroke-width="4" d="M-58.24-52.93c-1.02 10.19 6.49 17.1 16.76 15.43h0c10.27-1.66 17.78 5.25 16.76 15.43h0c-1.02 10.19 6.49 17.1 16.76 15.43h0C2.32-8.29 9.82-1.38 8.81 8.81h0C7.79 19 15.29 25.91 25.57 24.24h0c10.27-1.66 17.77 5.25 16.75 15.44h0c-1.02 10.19 6.49 17.1 16.76 15.43h0c10.27-1.66 17.78 5.25 16.76 15.43h0c-1.02 10.19 6.49 17.1 16.76 15.43h0c5.14-.83 9.58.48 12.61 3.27"/>
    </g>
  </g>
  <g transform="translate(702 491)">
    <polygon fill="#FB8906" points="82.6 97.6 116.4 108.1 103.11 75.11 97.81 90.73"/>
    <clipPath id="sun_clip">
      <rect width="24.98" height="121.7" x="40.84" y="-10.57" transform="rotate(-47.55 53.33 50.28)"/>
    </clipPath>
    <g clip-path="url(#sun_clip)">
      <path fill="none" stroke="#FB8906" stroke-linecap="round" stroke-width="4" d="M-58.24-52.93c-1.02 10.19 6.49 17.1 16.76 15.43h0c10.27-1.66 17.78 5.25 16.76 15.43h0c-1.02 10.19 6.49 17.1 16.76 15.43h0C2.32-8.29 9.82-1.38 8.81 8.81h0C7.79 19 15.29 25.91 25.57 24.24h0c10.27-1.66 17.77 5.25 16.75 15.44h0c-1.02 10.19 6.49 17.1 16.76 15.43h0c10.27-1.66 17.78 5.25 16.76 15.43h0c-1.02 10.19 6.49 17.1 16.76 15.43h0c5.14-.83 9.58.48 12.61 3.27"/>
    </g>
  </g>
</g>

<g id="arr_path" opacity="0">
  <g fill="none" stroke="#37FF00">
    <polyline points="880.66 621.28 989.95 773.09 989.95 1174.86"/>
    <line x1="886.17" x2="989.95" y1="591.01" y2="773.09"/>
    <line x1="931.86" x2="989.95" y1="624.79" y2="773.09"/>
    <path d="M781.7 1364.38s103.24-174.18 208.27-189.13"/>
    <path d="M924.84 1203.02s0 16.56-16.56 38.25-31.97 45.67-28.55 105.05"/>
    <path d="M965.87 1331.11s-12.34-43.83-5.19-87.65c7.14-43.83 29.24-67.75 29.24-67.75-36.85 30.37-40.91 75.18-50.53 125.87-9.62 50.68-35.51 62.52-35.51 62.52"/>
    <path d="M1027.22 1389.87s13.38-65.84-4.22-104.21c-19.8-43.18-28.54-66.45-33.11-110.7 0 0 13.76 10.74 27.84 27.59s25.72 43.39 34.42 78.67c8.7 35.27 21.53 90.7 21.53 90.7"/>
    <path d="M1195.94 1346.91s-34.78-18.12-93.48-80.91c-58.7-62.79-80.61-78.43-112.57-91.04"/>
    <path d="M1174.5 1280.82s-41.83-26.2-67.52-43.59c-25.69-17.39-39.57-24.18-59.34-25.76"/>
    <polyline points="787.77 829.98 929.45 860.23 989.53 1022.33"/>
    <polyline points="1086.79 468.13 1031.33 598.52 989.93 772.97"/>
    <polyline points="1150.52 696.16 1077.98 730.54 989.95 899.85"/>
  </g>
  <g fill="#37FF00">
    <circle cx="886.35" cy="591.26" r="3.79"/>
    <circle cx="1086.64" cy="468.35" r="3.79"/>
    <circle cx="1150.04" cy="696.16" r="3.79"/>
    <circle cx="880.78" cy="621.32" r="3.79"/>
    <circle cx="787.86" cy="829.95" r="3.79"/>
    <circle cx="931.94" cy="624.69" r="3.79"/>
  </g>
</g>

<g id="arrows_down" opacity="0">
<use id="art1" opacity="0" xlink:href="#art"/>
<use id="art2" opacity="0" xlink:href="#art"/>
<use id="art3" opacity="0" xlink:href="#art"/>
<use id="art4" opacity="0" xlink:href="#art"/>
<use id="art5" opacity="0" xlink:href="#art"/>
<use id="art6" opacity="0" xlink:href="#art"/>
<use id="art7" opacity="0" xlink:href="#art"/>
<use id="art8" opacity="0" xlink:href="#art"/>
</g>

<g id="arrows" opacity="0">
<use id="ard1" opacity="0" xlink:href="#ard"/>
<use id="ard2" opacity="0" xlink:href="#ard"/>
<use id="ard3" opacity="0" xlink:href="#ard"/>
<use id="ard4" opacity="0" xlink:href="#ard"/>
<use id="ard5" opacity="0" xlink:href="#ard"/>
<use id="ard6" opacity="0" xlink:href="#ard"/>
<use id="ard7" opacity="0" xlink:href="#ard"/>
<use id="ard8" opacity="0" xlink:href="#ard"/>
</g>

<use id="carbon1" opacity="0" xlink:href="#crb1"/>
<use id="carbon2" opacity="0" xlink:href="#crb2"/>

<g id="zoom1_bg" opacity="0">
<circle id="zoom1_bg_circle" cx="1439.07" cy="457.8" r="187.85" fill="#fff" stroke="#3aeaff" stroke-width="10"/>
<path id="zoom1_bg_line" stroke-dasharray="356.5" stroke-dashoffset="356.5" fill="none" stroke="#3aeaff" stroke-width="10" d="M1256.71 502.54l-346.16 84.94"/>
<path id="zoom1_bg_arrow" transform="translate(292 -71.5)" fill="#3aeaff" d="M965.75 601.29l-63.78-11.89 49.86-41.51-1.3 28.85 15.22 24.55z"/>
</g>

<g id="zoom1" opacity="0">
<path id="conversion" d="M1269.99 220.37a8.19 8.19 0 00-3.19-.64 8.16 8.16 0 00-8.27 8.2c0 1.49.37 2.87 1.11 4.12a8.35 8.35 0 0010.32 3.46c1.02-.42 1.94-1 2.74-1.75l1.18 1.26c-.97.9-2.08 1.61-3.33 2.13a10.06 10.06 0 01-13.98-9.21c0-1.81.46-3.47 1.37-4.98a10.35 10.35 0 0115.91-2.13l-1.15 1.34a8.3 8.3 0 00-2.71-1.8zm241.13 17.39h-1.88v-3.36a6.14 6.14 0 01-2.35 2.56c-1.01.6-2.18.91-3.53.91-1.3.02-2.57-.3-3.7-.95a6.53 6.53 0 01-2.52-2.66 8.17 8.17 0 01-.9-3.86c0-1.43.3-2.72.91-3.84.61-1.12 1.45-2 2.52-2.63a7.07 7.07 0 013.65-.95c1.34 0 2.52.31 3.54.92a6.24 6.24 0 012.37 2.58v-9.49h1.89v20.77zm-88.36-1.01a6.02 6.02 0 01-3.25 1.09c-1 .05-1.96-.33-2.66-1.04-.65-.69-.98-1.73-.98-3.11v-8.74h-2.1l-.03-1.46h2.13v-3.78h1.88v3.78l4.76-.03v1.48h-4.76v8.43c0 1.81.67 2.72 2.02 2.72.75 0 1.56-.26 2.44-.78l.55 1.44zm125.74 1l-.03-2.46a5.3 5.3 0 01-2.27 1.92c-.93.42-2.01.63-3.22.63-.99 0-1.86-.19-2.62-.57a4.2 4.2 0 01-2.37-3.85c0-1.27.49-2.27 1.47-3s2.33-1.09 4.05-1.09h4.93v-1.12c0-1.16-.35-2.05-1.04-2.69-.69-.63-1.7-.95-3.02-.95-1.57 0-3.15.59-4.73 1.76l-.84-1.29c.87-.63 1.83-1.14 2.83-1.53.9-.33 1.92-.49 3.08-.49 1.77 0 3.15.44 4.12 1.33 1 .96 1.54 2.3 1.48 3.68l.03 9.72h-1.85zm-190.59-12.89c-.66-.2-1.35-.3-2.04-.29-.93 0-1.69.18-2.25.55a1.8 1.8 0 00-.85 1.64c0 .5.15.91.46 1.23.31.32.69.57 1.15.77.46.2 1.1.42 1.92.66.84.24 1.66.53 2.46.88.63.29 1.18.71 1.62 1.26.45.55.67 1.27.67 2.17 0 1.33-.5 2.34-1.51 3.04a6.48 6.48 0 01-3.78 1.05c-1.05 0-2.1-.18-3.08-.53a6.75 6.75 0 01-2.49-1.51l.76-1.34a7 7 0 002.25 1.37c.87.34 1.75.5 2.65.5.99 0 1.8-.21 2.42-.62.62-.41.94-1.01.94-1.79 0-.54-.16-.98-.48-1.33a3.16 3.16 0 00-1.19-.81c-.48-.2-1.13-.42-1.97-.69-.99-.3-1.79-.59-2.41-.87a4.26 4.26 0 01-1.57-1.22 3.22 3.22 0 01-.64-2.09c0-1.29.48-2.26 1.44-2.91a6.28 6.28 0 013.6-.98c1.6 0 3.17.43 4.54 1.26l-.73 1.43a7.34 7.34 0 00-1.89-.83zm219.22-.9a6.56 6.56 0 012.51 2.63c.6 1.13.9 2.41.9 3.85 0 1.42-.3 2.69-.9 3.81a6.63 6.63 0 01-6.13 3.56 6.25 6.25 0 01-5.88-3.44v3.39h-1.88v-20.78h1.88v9.49a5.96 5.96 0 012.34-2.53 6.8 6.8 0 013.51-.91c1.36 0 2.58.31 3.65.93zm-84.93 1.24c1.19 1.45 1.75 3.39 1.65 5.84h-12.24a5.6 5.6 0 001.74 3.79 5.38 5.38 0 003.81 1.44c.93 0 1.8-.17 2.6-.5a6 6 0 002.07-1.43l1.06 1.06a7.24 7.24 0 01-2.56 1.78c-1 .42-2.1.63-3.29.63a7.48 7.48 0 01-3.78-.94 6.8 6.8 0 01-2.59-2.62 7.8 7.8 0 01-.94-3.84c0-1.42.31-2.69.94-3.82.6-1.1 1.5-2.01 2.59-2.63a7.45 7.45 0 013.72-.94c2.29.01 4.02.73 5.22 2.18zm-155.82 0c1.19 1.45 1.75 3.39 1.65 5.84h-12.24a5.6 5.6 0 001.74 3.79 5.38 5.38 0 003.81 1.44c.93 0 1.8-.17 2.6-.5a6 6 0 002.07-1.43l1.06 1.06a7.24 7.24 0 01-2.56 1.78c-1 .42-2.09.63-3.29.63a7.48 7.48 0 01-3.78-.94 6.8 6.8 0 01-2.59-2.62 7.7 7.7 0 01-.94-3.84c0-1.42.31-2.69.94-3.82.6-1.1 1.5-2.02 2.59-2.63a7.45 7.45 0 013.72-.94c2.29.01 4.02.73 5.22 2.18zm193.9-.52a5.5 5.5 0 00-2.83.73 5.1 5.1 0 00-1.96 2.03c-.47.87-.7 1.86-.7 2.98 0 1.12.23 2.12.7 3a5 5 0 001.96 2.04 5.6 5.6 0 002.83.73c.9 0 1.79-.16 2.62-.5a5.33 5.33 0 002-1.46l1.06 1.12c-.67.8-1.5 1.42-2.46 1.82a8.2 8.2 0 01-3.3.64 7.4 7.4 0 01-3.75-.94 6.75 6.75 0 01-2.59-2.63 7.8 7.8 0 01-.94-3.82c0-1.42.31-2.69.94-3.82.6-1.1 1.5-2.01 2.59-2.63a8.45 8.45 0 016.87-.38c.94.37 1.75.9 2.42 1.57l-1.06 1.26a6.1 6.1 0 00-4.4-1.74zm63.92-.72c1.12.63 2 1.5 2.63 2.62.63 1.12.95 2.39.95 3.81 0 1.44-.32 2.72-.95 3.85a6.72 6.72 0 01-2.63 2.63 7.74 7.74 0 01-3.81.94 7.63 7.63 0 01-3.81-.94c-1.12-.63-2-1.5-2.63-2.63a7.76 7.76 0 01-.95-3.85c0-1.42.32-2.69.95-3.81a6.76 6.76 0 012.63-2.62 7.75 7.75 0 013.81-.94c1.42.01 2.69.32 3.81.94zm-212.41 0c1.12.63 2 1.5 2.63 2.62.63 1.12.95 2.39.95 3.81 0 1.44-.32 2.72-.95 3.85a6.65 6.65 0 01-2.63 2.63 7.63 7.63 0 01-3.81.94 7.63 7.63 0 01-3.81-.94c-1.12-.63-2-1.5-2.63-2.63a7.76 7.76 0 01-.95-3.85c0-1.42.32-2.69.95-3.81.62-1.1 1.53-2 2.63-2.62a7.74 7.74 0 013.81-.94c1.42 0 2.69.32 3.81.94zm-94.83 0c1.12.63 2 1.5 2.63 2.62.63 1.12.95 2.39.95 3.81 0 1.44-.32 2.72-.95 3.85a6.65 6.65 0 01-2.63 2.63 7.74 7.74 0 01-3.81.94 7.63 7.63 0 01-3.81-.94c-1.12-.63-2-1.5-2.63-2.63a7.76 7.76 0 01-.95-3.85c0-1.42.32-2.69.95-3.81a6.76 6.76 0 012.63-2.62 7.75 7.75 0 013.81-.94c1.42.01 2.69.32 3.81.94zm148.65 0c1.12.63 2 1.5 2.63 2.62.63 1.12.95 2.39.95 3.81 0 1.44-.32 2.72-.95 3.85a6.65 6.65 0 01-2.63 2.63 7.74 7.74 0 01-3.81.94 7.63 7.63 0 01-3.81-.94c-1.12-.63-2-1.5-2.63-2.63a7.76 7.76 0 01-.95-3.85c0-1.42.32-2.69.95-3.81a6.76 6.76 0 012.63-2.62 7.75 7.75 0 013.81-.94c1.42.01 2.69.32 3.81.94zm-34.45.59c1 1.02 1.5 2.41 1.5 4.19v9.02h-1.9v-8.57c0-1.38-.38-2.46-1.15-3.25a4.28 4.28 0 00-3.19-1.18 5 5 0 00-3.63 1.4 5.71 5.71 0 00-1.55 3.7v7.9h-1.88v-14.67h1.88v3.42c.5-1.14 1.25-2 2.23-2.58a7.1 7.1 0 013.57-.9c1.74 0 3.12.51 4.12 1.52zm158.17-.61c.98-.6 2.1-.93 3.26-.91v1.76a5 5 0 00-3.74 1.36 5.73 5.73 0 00-1.61 3.77v7.84h-1.88v-14.67h1.88v3.42a5.5 5.5 0 012.09-2.57zm-213.42 0c.98-.6 2.1-.93 3.26-.91v1.76a4.99 4.99 0 00-3.74 1.36 5.75 5.75 0 00-1.61 3.77v7.84h-1.88v-14.67h1.88v3.42a5.62 5.62 0 012.09-2.57zm267.65.61c1 1.02 1.5 2.41 1.5 4.19v9.02h-1.9v-8.57c0-1.38-.38-2.46-1.15-3.25a4.28 4.28 0 00-3.19-1.18 5 5 0 00-3.63 1.4 5.71 5.71 0 00-1.55 3.7v7.9h-1.88v-14.67h1.88v3.42c.5-1.14 1.25-2 2.23-2.58a7.1 7.1 0 013.57-.9c1.74 0 3.12.51 4.12 1.52zm-307.24 0c1 1.02 1.5 2.41 1.5 4.19v9.02h-1.9v-8.57c0-1.38-.38-2.46-1.15-3.25a4.28 4.28 0 00-3.19-1.18 5 5 0 00-3.63 1.4 5.71 5.71 0 00-1.55 3.7v7.9h-1.88v-14.67h1.88v3.42c.5-1.14 1.25-2 2.23-2.58a7.1 7.1 0 013.57-.9c1.74 0 3.12.51 4.12 1.52zm147.61-5.3c-.53.54-.8 1.26-.8 2.16v2.07h4.31v1.48h-4.31v12.8h-1.88v-12.8h-1.88v-1.48h1.88v-1.85c0-.97.21-1.82.62-2.56.41-.74.96-1.3 1.65-1.69.68-.39 1.46-.6 2.24-.59.92 0 1.77.22 2.58.67l-.48 1.51a4.26 4.26 0 00-1.96-.53 2.63 2.63 0 00-1.97.81zm11.67 3.83h2.18l4.09 5.82 4.12-5.82h2.1l-4.98 7.11 5.35 7.56h-2.21l-4.4-6.27-4.51 6.27h-2.13l5.4-7.56-5.01-7.11zm-156.02 0h2.02l4.87 12.8 4.82-12.8h1.96l-5.82 14.67h-1.99l-5.86-14.67zm150.39 0h1.88v14.67h-1.88v-14.67zm-95.2 0h1.88v14.67h-1.88v-14.67zm181.87 12.28a4.4 4.4 0 001.83-2.56v-2.02h-4.73c-1.29 0-2.27.21-2.94.64a2.14 2.14 0 00-1.01 1.93c0 .88.32 1.58.97 2.11.64.53 1.5.8 2.56.8a5.7 5.7 0 003.32-.9zm-40.08.14a5.13 5.13 0 001.97-2.06c.48-.88.71-1.88.71-3s-.24-2.12-.71-3.01a5.37 5.37 0 00-4.83-2.85 5.42 5.42 0 00-4.85 2.85 6.12 6.12 0 00-.73 3.01c0 1.12.24 2.12.71 3a5.26 5.26 0 001.99 2.06c.85.5 1.81.74 2.87.74 1.08 0 2.03-.24 2.87-.74zm-77.62-10.12a5.13 5.13 0 00-1.96 2.04c-.47.88-.7 1.88-.7 3 0 1.14.23 2.15.7 3.02a5 5 0 001.96 2.04c.84.49 1.79.73 2.86.73 1.06 0 2.02-.24 2.86-.73a5.13 5.13 0 001.96-2.04c.47-.88.7-1.89.7-3.02 0-1.12-.23-2.12-.7-3a5 5 0 00-1.96-2.04 5.55 5.55 0 00-2.86-.73c-1.06 0-2.02.24-2.86.73zm158.59 0a5.13 5.13 0 00-1.96 2.04c-.47.88-.7 1.88-.7 3 0 1.14.23 2.15.7 3.02a5 5 0 001.96 2.04c.84.49 1.79.73 2.86.73 1.07 0 2.02-.24 2.86-.73a5.13 5.13 0 001.96-2.04c.47-.88.7-1.89.7-3.02 0-1.12-.23-2.12-.7-3a5 5 0 00-1.96-2.04 5.56 5.56 0 00-2.86-.73c-1.07 0-2.01.24-2.86.73zm-307.24 0a5.13 5.13 0 00-1.96 2.04c-.47.88-.7 1.88-.7 3 0 1.14.23 2.15.7 3.02a5 5 0 001.96 2.04c.84.49 1.79.73 2.86.73 1.06 0 2.02-.24 2.86-.73a5.13 5.13 0 001.96-2.04c.47-.88.7-1.89.7-3.02 0-1.12-.23-2.12-.7-3a5 5 0 00-1.96-2.04 5.55 5.55 0 00-2.86-.73c-1.06 0-2.02.24-2.86.73zm94.84 0a5.13 5.13 0 00-1.96 2.04c-.47.88-.7 1.88-.7 3 0 1.14.23 2.15.7 3.02a5 5 0 001.96 2.04c.84.49 1.79.73 2.86.73 1.06 0 2.02-.24 2.86-.73a5.13 5.13 0 001.96-2.04c.47-.88.7-1.89.7-3.02 0-1.12-.23-2.12-.7-3a5 5 0 00-1.96-2.04 5.55 5.55 0 00-2.86-.73c-1.07 0-2.02.24-2.86.73zm200.84 10.06a5.12 5.12 0 001.96-2.06c.47-.88.7-1.88.7-3a6.2 6.2 0 00-.7-2.97 5.17 5.17 0 00-1.96-2.06 5.5 5.5 0 00-2.83-.74 5.33 5.33 0 00-4.8 2.8 6.1 6.1 0 00-.71 2.97c0 1.12.23 2.12.7 3a5.17 5.17 0 001.96 2.06c.84.49 1.79.74 2.86.74a5.3 5.3 0 002.82-.74zm-83.8-5.86a5.3 5.3 0 00-1.53-3.65 4.93 4.93 0 00-3.63-1.36c-1.48 0-2.71.46-3.7 1.37a5.5 5.5 0 00-1.71 3.64h10.57zm-155.82 0a5.3 5.3 0 00-1.53-3.65 4.93 4.93 0 00-3.63-1.36c-1.47 0-2.71.46-3.7 1.37a5.5 5.5 0 00-1.71 3.64h10.57zm125.49-11.66c.24.25.36.56.36.94 0 .37-.13.69-.38.95s-.56.39-.91.39c-.37 0-.69-.13-.94-.39-.25-.25-.39-.6-.38-.95v-.03c0-.7.58-1.29 1.29-1.29h.03c.38 0 .69.12.93.38zm-95.19 0c.24.25.36.56.36.94 0 .37-.13.69-.38.95s-.56.39-.91.39c-.37 0-.69-.13-.94-.39-.25-.25-.39-.6-.38-.95v-.03c0-.7.58-1.29 1.29-1.29h.03c.37 0 .68.12.93.38z"/>

<use xlink:href="#cell"/>
<use transform="translate(0 -42)" xlink:href="#cell"/>

<g id="z1_arrows" class="">
<path id="z1_ar1" d="M1393.08 380.02l-4.66 11.37-11.37 4.65 24.12 8.1-8.09-24.12z"/>
<path id="z1_ar2" d="M1484.67 380.02l4.66 11.37 11.37 4.65-24.11 8.1 8.08-24.12z"/>
<path id="z1_ar3" d="M1533.11 505.83l-4.66 11.37-11.37 4.66 24.11 8.09-8.08-24.12z"/>
<path id="z1_ar4" d="M1449.82 550.66l-11.16 5.15-11.49-4.33 12.14 22.35 10.51-23.17z"/>
<path id="z1_ar5" d="M1344.52 505.83l4.65 11.37 11.38 4.66-24.12 8.09 8.09-24.12z"/>
</g>

<g id="z1_h2o">
  <circle cx="1523.49" cy="336.47" r="16.36" fill="#00a9f9"/>
  <circle cx="1537.31" cy="373.78" r="16.36" fill="#00a9f9"/>
  <path fill="#fff" stroke="#000" d="M1523.64 382.77l15.46-25.24a22.53 22.53 0 00-3.94-9.59l-27.59-7.66a22.78 22.78 0 00-13.68 20.86 22.85 22.85 0 0022.74 22.74c2.38 0 4.75-.38 7.01-1.11z"/>
  <path d="M1502.2 354.37h1.22v5.64h7.71v-5.64h1.22v12.33h-1.22v-5.59h-7.71v5.59h-1.22v-12.33z"/>
  <path d="M1528.22 355.1a6.37 6.37 0 012.34 2.27 6.12 6.12 0 010 6.3 6.43 6.43 0 01-5.58 3.14 6.43 6.43 0 01-5.58-3.14 6 6 0 01-.86-3.16 6 6 0 01.86-3.14 6.42 6.42 0 015.58-3.11c1.18 0 2.26.28 3.24.84zm-5.83.94a5.17 5.17 0 002.5 9.67h.11c.93 0 1.79-.23 2.58-.7a5.33 5.33 0 002.61-4.51 5.18 5.18 0 00-5.16-5.15h-.03c-.94.01-1.81.23-2.61.69z"/>
  <path d="M1518.63 369.13v.99h-4.31v-.81l2.2-2.27c.21-.21.38-.42.51-.62.13-.21.19-.38.19-.53 0-.2-.09-.39-.25-.5-.17-.12-.4-.18-.69-.18-.25 0-.53.06-.82.19-.29.13-.56.31-.82.53l-.44-.86c.34-.27.71-.47 1.09-.62.7-.27 1.46-.29 2.16-.04.29.12.52.3.69.52.16.23.25.48.25.78 0 .28-.1.58-.29.9-.19.32-.47.66-.82 1.02l-1.48 1.5h2.83z"/>
</g>
<g id="z1_co2">
  <circle cx="1335.15" cy="377.06" r="16.49" fill="#324550"/>
  <circle cx="1369.77" cy="342.45" r="16.49" fill="#324550"/>
  <path fill="#fff" stroke="#000" d="M1335.3 342.32a24.42 24.42 0 00-7.02 19.91l21.71 21.71a24.42 24.42 0 0026.97-26.6l-22.08-22.08c-7-.64-14.23 1.71-19.58 7.06z"/>
  <path d="M1347.69 353.65a5.2 5.2 0 00-6.52 7.35 5.17 5.17 0 004.51 2.58 5.6 5.6 0 003.72-1.5l.74.79a7.16 7.16 0 01-2.1 1.34 6.28 6.28 0 01-5.63-.36 6.3 6.3 0 01-3.18-5.45 6 6 0 01.86-3.14 6.52 6.52 0 0110.03-1.34l-.72.85a5.5 5.5 0 00-1.71-1.12z"/>
  <path d="M1360.96 353.01a6.37 6.37 0 012.34 2.27 6.12 6.12 0 010 6.3 6.43 6.43 0 01-5.58 3.14 6.43 6.43 0 01-5.58-3.14 6 6 0 01-.86-3.16 6 6 0 01.86-3.14 6.42 6.42 0 015.58-3.11c1.18 0 2.26.28 3.24.84zm-5.83.94a5.17 5.17 0 002.5 9.67h.11c.93 0 1.79-.23 2.58-.7a5.33 5.33 0 002.61-4.51 5.18 5.18 0 00-5.16-5.15h-.03c-.94.01-1.81.23-2.61.69z"/>
  <path d="M1369.42 365.22v.99h-4.31v-.81l2.2-2.27c.21-.21.38-.42.51-.62.13-.21.19-.38.19-.53 0-.2-.09-.39-.25-.5-.17-.12-.4-.18-.69-.18-.25 0-.53.06-.82.19-.29.13-.56.31-.82.53l-.44-.86c.34-.27.71-.47 1.09-.62.7-.27 1.46-.29 2.16-.04.29.12.52.3.69.52.16.23.25.48.25.78 0 .28-.1.58-.29.9-.19.32-.47.66-.82 1.02l-1.48 1.5h2.83z"/>
</g>
<g id="z1_sun">
  <clipPath id="z1_sun_clp">
    <path d="M1468.67 287.96h-58.81v82.22l11.1 5.61 10-5.06v-1.33l9.79 3.72 9.07-3.95 1.32 2.6 8.86 3.67 8.67-3.87v-83.6z"/>
  </clipPath>
  <g clip-path="url(#z1_sun_clp)">
    <g id="z1_rays" fill="none" stroke="#fb8906" stroke-linecap="round" stroke-width="3.33">
      <path d="M1419.09 195.78c-6.78 5.15-6.74 13.63.1 18.94 6.82 5.31 6.86 13.8.09 18.94-6.78 5.15-6.74 13.63.1 18.94 6.82 5.33 6.86 13.8.08 18.96-6.78 5.15-6.74 13.63.1 18.94 6.82 5.31 6.86 13.8.08 18.94-6.79 5.15-6.74 13.63.09 18.94 6.83 5.31 6.87 13.8.1 18.94-6.79 5.15-6.74 13.63.09 18.94 3.41 2.66 5.13 6.1 5.15 9.53"/>
      <path d="M1438.81 193.89c-6.78 5.15-6.74 13.63.1 18.94 6.82 5.31 6.86 13.8.09 18.94-6.78 5.14-6.74 13.63.1 18.94 6.82 5.32 6.86 13.8.08 18.96-6.78 5.14-6.74 13.62.1 18.94 6.82 5.3 6.86 13.79.08 18.94-6.79 5.14-6.74 13.63.09 18.94 6.83 5.31 6.87 13.8.1 18.94-6.79 5.14-6.74 13.63.09 18.94 3.41 2.66 5.13 6.1 5.15 9.53"/>
      <path d="M1458.52 196.06c-6.78 5.15-6.74 13.63.1 18.94 6.82 5.31 6.86 13.8.09 18.94-6.78 5.15-6.74 13.63.1 18.94 6.82 5.33 6.86 13.8.08 18.96-6.78 5.15-6.74 13.63.1 18.94 6.82 5.31 6.86 13.8.08 18.94-6.78 5.15-6.74 13.63.09 18.94 6.83 5.31 6.87 13.8.1 18.94-6.79 5.15-6.74 13.63.09 18.94 3.41 2.66 5.13 6.1 5.15 9.53"/>
    </g>
  </g>
  <g fill="#fb8906">
    <path d="M1450.16 373.8l8.8 18.4 8.73-18.54-8.67 3.88-8.86-3.74z"/>
    <path d="M1410.84 373.8l8.8 18.4 8.74-18.54-8.68 3.88-8.86-3.74z"/>
    <path d="M1430.5 371.65l8.81 18.39 8.73-18.53-8.68 3.87-8.86-3.73z"/>
  </g>
</g>
<path id="carbohydrates" fill="#2cc900" d="M1445.25 606.97c-.81.58-1.76.87-2.87.87a5.24 5.24 0 01-3.45-1.25l1.46-2.57c.33.24.63.42.91.53.28.11.57.17.88.17.92 0 1.59-.47 2.03-1.4l.42-.91-5.75-13.68h3.51l3.95 10.11 3.61-10.11h3.41l-6.24 15.65a5.47 5.47 0 01-1.87 2.59zm-88.08-19.02a6.1 6.1 0 00-5.76.19 6.17 6.17 0 00-3.02 5.33 6.17 6.17 0 003.02 5.35 6 6 0 003.09.82c.87 0 1.74-.19 2.61-.57a7.54 7.54 0 002.33-1.59l2.05 2.29c-.95.97-2.06 1.74-3.33 2.3a9.57 9.57 0 01-8.66-.41 9.3 9.3 0 01-4.68-8.14 9.05 9.05 0 014.74-8.08 9.9 9.9 0 014.88-1.22 9.86 9.86 0 017.02 2.94l-2.03 2.55a6.66 6.66 0 00-2.26-1.76zm148.86 13.84c-1.04.66-2.25 1-3.48 1.01-1.2 0-2.17-.35-2.94-1.05-.76-.7-1.14-1.74-1.14-3.11v-6.86h-1.95l-.03-2.47h1.98v-3.82h3.35v3.82h3.98v2.47h-3.98v6.27c0 .64.12 1.1.36 1.37s.61.4 1.09.4c.52 0 1.18-.19 1.98-.57l.78 2.54zm-37.8-18.45v19.3h-3.38v-2.24a5.03 5.03 0 01-1.94 1.78c-.79.41-1.7.61-2.74.61a6.18 6.18 0 01-5.8-3.42 8.13 8.13 0 01-.83-3.73c0-1.39.27-2.61.82-3.68a6.02 6.02 0 012.31-2.48 6.57 6.57 0 013.42-.88 6 6 0 012.78.62 5.3 5.3 0 011.98 1.79v-7.67h3.38zm-95.81 19.31v-1.7a4.56 4.56 0 01-1.87 1.38 6.93 6.93 0 01-5.19-.09 4.07 4.07 0 01-2.3-3.76c0-1.3.46-2.32 1.38-3.05.92-.73 2.22-1.11 3.9-1.13h4.06v-.36c0-.81-.27-1.45-.81-1.9-.68-.5-1.5-.73-2.34-.68-1.32 0-2.7.43-4.13 1.3l-1.22-2.34c.94-.54 1.94-.98 2.98-1.31.89-.27 1.94-.4 3.13-.4 1.8 0 3.2.43 4.2 1.3 1 .87 1.5 2.08 1.52 3.64l.03 9.1h-3.34zm118.35 0v-1.7a4.56 4.56 0 01-1.87 1.38 6.93 6.93 0 01-5.19-.09 4.07 4.07 0 01-2.3-3.76c0-1.3.46-2.32 1.38-3.05.92-.73 2.22-1.11 3.9-1.13h4.06v-.36c0-.81-.27-1.45-.81-1.9-.68-.5-1.5-.73-2.34-.68-1.32 0-2.7.43-4.13 1.3l-1.22-2.34c.94-.54 1.94-.98 2.98-1.31.89-.27 1.94-.4 3.13-.4 1.8 0 3.2.43 4.2 1.3 1 .87 1.5 2.08 1.52 3.64l.03 9.1h-3.34zm-89.12-13.12c1 .6 1.77 1.43 2.31 2.51.54 1.08.82 2.31.82 3.72 0 1.39-.27 2.61-.81 3.67a5.94 5.94 0 01-2.29 2.47c-.99.59-2.13.88-3.43.88-1.04 0-1.96-.2-2.76-.61a5.2 5.2 0 01-1.98-1.78v2.26h-3.38v-19.29h3.38v7.67a5.02 5.02 0 011.94-1.78c.79-.41 1.7-.61 2.74-.61a6.44 6.44 0 013.46.89zm117.7 1c1.12 1.27 1.68 3.04 1.68 5.33 0 .45-.01.79-.03 1.01h-10.27c.22.99.69 1.76 1.39 2.33.7.57 1.56.84 2.59.84 1.4 0 2.75-.56 3.74-1.56l1.82 1.9a7.09 7.09 0 01-2.54 1.77c-1 .42-2.1.62-3.31.62a7.76 7.76 0 01-3.76-.88 6.18 6.18 0 01-2.51-2.48 7.47 7.47 0 01-.88-3.68c0-1.39.3-2.62.9-3.69a6.38 6.38 0 012.51-2.51 7.4 7.4 0 013.67-.9c2.22 0 3.89.63 5 1.9zm-101.73-1.02a6.4 6.4 0 012.57 2.48c.61 1.06.92 2.29.92 3.68 0 1.4-.31 2.64-.92 3.72a6.31 6.31 0 01-2.57 2.5c-1.1.59-2.37.88-3.81.88a8.07 8.07 0 01-3.85-.88 6.36 6.36 0 01-2.59-2.5 7.3 7.3 0 01-.92-3.72c0-1.39.31-2.61.92-3.68a6.32 6.32 0 012.59-2.48 8.07 8.07 0 013.85-.88c1.44 0 2.71.29 3.81.88zm112.47 2.06a6.57 6.57 0 00-1.99-.34c-.57 0-1.03.1-1.36.3a1 1 0 00-.51.92c0 .43.21.77.64 1 .42.23 1.1.48 2.01.74.97.29 1.77.58 2.39.87.63.3 1.19.73 1.62 1.27.46.56.69 1.3.69 2.22 0 1.35-.52 2.39-1.56 3.12a6.68 6.68 0 01-3.93 1.09 9.98 9.98 0 01-3.15-.51c-.95-.3-1.84-.8-2.6-1.44l1.17-2.37c1.33 1.09 3 1.7 4.71 1.71.62 0 1.12-.11 1.49-.32.37-.21.56-.54.56-.98 0-.48-.22-.85-.65-1.09-.43-.24-1.14-.51-2.11-.81-.78-.22-1.55-.5-2.29-.82-.6-.28-1.12-.7-1.53-1.22a3.38 3.38 0 01-.65-2.15c0-1.37.5-2.41 1.5-3.13 1-.72 2.25-1.08 3.76-1.08.92 0 1.82.13 2.72.39.89.26 1.69.62 2.38 1.09l-1.22 2.44c-.67-.37-1.37-.68-2.09-.9zm-145.26-2.23a5.63 5.63 0 012.82-.74v3.28a4.57 4.57 0 00-3.44 1 3.85 3.85 0 00-1.29 3.06v6.71h-3.38v-13.91h3.38v2.68a5.08 5.08 0 011.91-2.08zm93.03 0a5.63 5.63 0 012.82-.74v3.28a4.57 4.57 0 00-3.44 1 3.85 3.85 0 00-1.29 3.06v6.71h-3.38v-13.91h3.38v2.68c.47-.91 1.1-1.6 1.91-2.08zm-41.51.71a5.43 5.43 0 011.38 3.91v8.68h-3.41v-7.7c0-.97-.28-1.74-.83-2.3a3.03 3.03 0 00-2.26-.84 3.5 3.5 0 00-2.68 1.14c-.66.75-.99 1.7-.99 2.86v6.84h-3.38v-19.29h3.38v8.03c.95-1.82 2.63-2.75 5.02-2.78 1.59 0 2.85.48 3.77 1.45zm53.22 9.46a2.42 2.42 0 001.17-1.7v-1.25h-3.51c-.9 0-1.56.13-1.99.4-.42.27-.64.71-.64 1.31 0 .59.22 1.06.66 1.4.44.35 1.04.52 1.81.52.98.01 1.81-.22 2.5-.68zm-118.35 0a2.42 2.42 0 001.17-1.7v-1.25h-3.51c-.9 0-1.56.13-1.99.4-.42.27-.64.71-.64 1.31 0 .59.22 1.06.66 1.4.44.35 1.04.52 1.81.52.98.01 1.81-.22 2.5-.68zm92.52-.73a4.29 4.29 0 001.1-3.06c0-1.25-.37-2.27-1.1-3.06a3.73 3.73 0 00-2.85-1.18c-1.16 0-2.11.39-2.83 1.18a4.44 4.44 0 00-1.12 3.06 4.44 4.44 0 001.12 3.06 3.67 3.67 0 002.83 1.18c1.16 0 2.11-.39 2.85-1.18zm-52.79-6.09a4.26 4.26 0 00-1.09 3.04c0 1.25.36 2.26 1.09 3.04a3.73 3.73 0 002.86 1.17c1.14 0 2.08-.39 2.81-1.17a4.26 4.26 0 001.09-3.04c0-1.25-.36-2.26-1.09-3.04a3.67 3.67 0 00-2.81-1.17c-1.18 0-2.13.39-2.86 1.17zm-10.69 5.99a4.29 4.29 0 001.09-3.03c0-1.23-.36-2.24-1.09-3.02a3.67 3.67 0 00-2.81-1.17c-1.16 0-2.11.39-2.83 1.17a4.24 4.24 0 00-1.09 3.02c0 1.25.36 2.26 1.09 3.04a3.7 3.7 0 002.83 1.17c1.15 0 2.08-.39 2.81-1.18zm117.68-4.07c0-.92-.36-1.8-1.01-2.44a3.54 3.54 0 00-2.55-.91c-.99 0-1.82.3-2.48.9a4 4 0 00-1.24 2.46h7.28v-.01z"/>
<path id="o2l" d="M1341.33 560.43v2.04h-8.99v-1.68l4.58-4.72c.44-.44.79-.87 1.06-1.3.27-.43.4-.8.4-1.11 0-.44-.17-.78-.52-1.03-.43-.27-.93-.4-1.44-.37-.53 0-1.1.13-1.7.4-.6.27-1.17.64-1.7 1.11l-.92-1.79a8.68 8.68 0 012.26-1.29 6.5 6.5 0 012.39-.46c.8 0 1.5.13 2.12.38.57.22 1.06.6 1.43 1.08.34.47.51 1.01.51 1.62 0 .59-.2 1.21-.61 1.87-.41.66-.97 1.37-1.7 2.13l-3.09 3.12h5.92zm-18-25.47a13.29 13.29 0 014.87 4.72 12.4 12.4 0 011.8 6.54c0 2.38-.6 4.57-1.8 6.58a13.3 13.3 0 01-11.61 6.54 13.34 13.34 0 01-11.61-6.54 12.6 12.6 0 01-1.8-6.58c0-2.38.6-4.56 1.8-6.54a13.44 13.44 0 0111.61-6.47c2.45 0 4.69.58 6.74 1.75zm-12.15 1.96a10.77 10.77 0 00-5.44 9.3v.02c0 5.94 4.88 10.82 10.82 10.82h.06c1.94 0 3.73-.48 5.38-1.45a10.93 10.93 0 005.42-9.39c0-1.96-.49-3.76-1.47-5.4a10.94 10.94 0 00-3.95-3.9 10.52 10.52 0 00-5.38-1.43c-1.96 0-3.77.48-5.44 1.43z"/>
<path id="o2r" d="M1580.07 560.43v2.04h-8.99v-1.68l4.58-4.72c.44-.44.79-.87 1.06-1.3.27-.43.4-.8.4-1.11 0-.44-.17-.78-.52-1.03-.43-.27-.93-.4-1.44-.37-.53 0-1.1.13-1.7.4-.6.27-1.17.64-1.7 1.11l-.92-1.79a8.68 8.68 0 012.26-1.29 6.5 6.5 0 012.39-.46c.8 0 1.5.13 2.12.38.57.22 1.06.6 1.43 1.08.34.47.51 1.01.51 1.62 0 .59-.2 1.21-.61 1.87-.41.66-.97 1.37-1.7 2.13l-3.09 3.12h5.92zm-18-25.47a13.29 13.29 0 014.87 4.72 12.4 12.4 0 011.8 6.54c0 2.38-.6 4.57-1.8 6.58a13.3 13.3 0 01-11.61 6.54 13.34 13.34 0 01-11.61-6.54 12.6 12.6 0 01-1.8-6.58c0-2.38.6-4.56 1.8-6.54a13.44 13.44 0 0111.61-6.47c2.44 0 4.69.58 6.74 1.75zm-12.15 1.96a10.77 10.77 0 00-5.44 9.3v.02c0 5.94 4.88 10.82 10.82 10.82h.06c1.94 0 3.73-.48 5.38-1.45a10.93 10.93 0 005.42-9.39c0-1.96-.49-3.76-1.47-5.4a10.94 10.94 0 00-3.95-3.9 10.52 10.52 0 00-5.38-1.43c-1.96 0-3.77.48-5.44 1.43z"/>
</g>

<g id="micros" opacity="0">
<path id="mic1" fill="#ebded3" stroke="#54a53e" stroke-width="3" d="M1169.18 1246.78c.48.67.81 1.45.95 2.28.39 2.43-1.09 4.37-3.33 4.33-.95-.02-23.37-.64-39.58-22.5-1.54-2.08-1.43-4.79.25-6.07 1.68-1.27 4.29-.62 5.83 1.46 13.08 17.64 31.29 18.27 32.06 18.29a5 5 0 013.82 2.21z"/>
<path id="mic2" fill="none" stroke="#866e96" stroke-linecap="round" stroke-linejoin="round" stroke-width="4" d="M1084.51 1317.02c5.74 1.61 8.8 8.58 6.83 15.57-1.04 3.72-3.17 6.37-4.75 5.93-1.58-.44-2.01-3.82-.96-7.53 1.96-6.98 8.21-11.34 13.94-9.73 5.74 1.61 8.8 8.58 6.83 15.57-1.04 3.72-3.17 6.37-4.75 5.93-1.58-.44-2.01-3.82-.96-7.53 1.96-6.98 8.21-11.34 13.94-9.73 5.74 1.61 8.8 8.58 6.83 15.57-1.04 3.72-3.17 6.37-4.75 5.93-1.58-.44-2.01-3.82-.96-7.53 1.96-6.98 8.21-11.34 13.94-9.73 5.74 1.61 8.8 8.58 6.83 15.57-1.04 3.72-3.17 6.37-4.75 5.93-1.58-.44-2.01-3.82-.96-7.53 1.96-6.98 8.21-11.34 13.94-9.73"/>
<circle id="mic3" cx="989.74" cy="1357.06" r="12.51" fill="#ebded3" stroke="#6a87af" stroke-linecap="round" stroke-linejoin="round" stroke-width="3"/>
<path id="mic4" fill="#ebded3" stroke="#000" stroke-linecap="round" stroke-linejoin="round" stroke-width="3" d="M850.96 1362.25h-26.47a5.3 5.3 0 01-5.27-5.27c0-2.9 2.37-5.27 5.27-5.27h26.47c2.9 0 5.27 2.37 5.27 5.27 0 2.9-2.37 5.27-5.27 5.27z"/>
<ellipse id="mic5" cx="842.6" cy="1233.06" fill="#ebded3" stroke="#eea262" stroke-linecap="round" stroke-linejoin="round" stroke-width="3" rx="16.44" ry="9.29"/>
</g>

<g id="micros2" opacity="0">
<g fill="#ebded3" fill-rule="nonzero" stroke="#54a53e" stroke-width="3">
  <path id="micro_1_1" d="M1231.83 1290.91a3.9 3.9 0 01-4.12-5.37c.18-.43 18.09-43.84-5.58-76.56a3.9 3.9 0 116.3-4.56c26.28 36.32 7.26 82.22 6.44 84.16a3.87 3.87 0 01-3.04 2.33z"/>
  <path id="micro_1_2" d="M1182.77 1251.01c-.82 0-1.65-.18-2.41-.55-2.21-1.08-2.93-3.42-1.61-5.22.56-.76 14.05-18.68 41.26-19.25 2.59-.06 4.74 1.61 4.8 3.71.07 2.1-1.98 3.86-4.56 3.91-21.96.46-33.01 14.94-33.47 15.56a5 5 0 01-4.01 1.84z"/>
  <path id="micro_1_3" d="M1216.08 1310.52a4.4 4.4 0 01-5.38-4.82c4.41-33.89-8.48-55.65-8.61-55.86a4.39 4.39 0 017.47-4.56c.6.98 14.65 24.43 9.82 61.56a4.36 4.36 0 01-3.3 3.68z"/>
</g>
<g fill="none" fill-rule="nonzero" stroke="#866e96" stroke-linecap="round" stroke-linejoin="round" stroke-width="4">
  <path id="micro_2_1" d="M1113.87 1344.7c5.74 1.61 8.8 8.58 6.83 15.57-1.04 3.72-3.17 6.37-4.75 5.93-1.58-.44-2.01-3.82-.96-7.53 1.96-6.98 8.21-11.34 13.94-9.73 5.74 1.61 8.8 8.58 6.83 15.57-1.04 3.72-3.17 6.37-4.75 5.93-1.58-.44-2.01-3.82-.96-7.53 1.96-6.98 8.21-11.34 13.94-9.73 5.74 1.61 8.8 8.58 6.83 15.57-1.04 3.72-3.17 6.37-4.75 5.93-1.58-.44-2.01-3.82-.96-7.53 1.96-6.98 8.21-11.34 13.94-9.73 5.74 1.61 8.8 8.58 6.83 15.57-1.04 3.72-3.17 6.37-4.75 5.93-1.58-.44-2.01-3.82-.96-7.53 1.96-6.98 8.21-11.34 13.94-9.73"/>
  <path id="micro_2_2" d="M1170 1383.11c-1.44 5.78-8.31 9.05-15.35 7.3-3.75-.93-6.46-2.98-6.07-4.57.4-1.59 3.75-2.12 7.5-1.19 7.04 1.75 11.58 7.86 10.14 13.65-1.44 5.78-8.31 9.05-15.35 7.3-3.75-.93-6.46-2.98-6.07-4.57.4-1.59 3.75-2.12 7.5-1.19 7.04 1.75 11.58 7.86 10.14 13.65-1.44 5.78-8.31 9.05-15.35 7.3-3.75-.93-6.46-2.98-6.07-4.57.4-1.59 3.75-2.12 7.5-1.19 7.04 1.75 11.58 7.86 10.14 13.65-1.44 5.78-8.31 9.05-15.35 7.3-3.75-.93-6.46-2.98-6.07-4.57.4-1.59 3.75-2.12 7.5-1.19 7.04 1.75 11.58 7.86 10.14 13.65"/>
  <path id="micro_2_3" d="M1102.65 1442.22c1.44-5.78 8.31-9.05 15.35-7.3 3.75.93 6.46 2.98 6.07 4.57-.4 1.59-3.75 2.12-7.5 1.19-7.04-1.75-11.58-7.86-10.14-13.65 1.44-5.78 8.31-9.05 15.35-7.3 3.75.93 6.46 2.98 6.07 4.57-.4 1.59-3.75 2.12-7.5 1.19-7.04-1.75-11.58-7.86-10.14-13.65 1.44-5.78 8.31-9.05 15.35-7.3 3.75.93 6.46 2.98 6.07 4.57-.4 1.59-3.75 2.12-7.5 1.19-7.04-1.75-11.58-7.86-10.14-13.65 1.44-5.78 8.31-9.05 15.35-7.3 3.75.93 6.46 2.98 6.07 4.57-.4 1.59-3.75 2.12-7.5 1.19-7.04-1.75-11.58-7.86-10.14-13.65"/>
</g>
<g fill="#ebded3" stroke="#6a87af" stroke-linecap="round" stroke-linejoin="round" stroke-width="3">
  <circle id="micro_3_1" cx="949.43" cy="1394.91" r="12.51"/>
  <circle id="micro_3_2" cx="978.35" cy="1386.44" r="12.51"/>
  <circle id="micro_3_3" cx="991.18" cy="1413.07" r="12.51"/>
  <circle id="micro_3_4" cx="945.08" cy="1424.12" r="12.51"/>
  <circle id="micro_3_5" cx="972.52" cy="1435.71" r="12.51"/>
</g>
<g fill="#ebded3" fill-rule="nonzero" stroke="#000" stroke-linecap="round" stroke-linejoin="round" stroke-width="3">
  <path id="micro_4_1" d="M854.11 1371.53h-45.29a6.52 6.52 0 01-6.47-6.47 6.52 6.52 0 016.47-6.47h45.29a6.52 6.52 0 016.47 6.47 6.52 6.52 0 01-6.47 6.47z"/>
  <path id="micro_4_2" d="M883.9 1392.56h-45.29a6.52 6.52 0 01-6.47-6.47 6.52 6.52 0 016.47-6.47h45.29a6.52 6.52 0 016.47 6.47 6.52 6.52 0 01-6.47 6.47z"/>
  <path id="micro_4_3" d="M856.69 1413.59H811.4a6.52 6.52 0 01-6.47-6.47 6.52 6.52 0 016.47-6.47h45.29a6.52 6.52 0 016.47 6.47 6.52 6.52 0 01-6.47 6.47z"/>
</g>
<g fill="#ebded3" stroke="#eea262" stroke-linecap="round" stroke-linejoin="round" stroke-width="3">
  <ellipse id="micro_5_1" cx="737.09" cy="1248.63" rx="12.25" ry="6.93"/>
  <ellipse id="micro_5_2" cx="809.01" cy="1229.98" rx="12.25" ry="6.93"/>
  <ellipse id="micro_5_3" cx="778.11" cy="1281.37" rx="12.25" ry="6.93"/>
  <ellipse id="micro_5_4" cx="781.49" cy="1242.24" rx="20.96" ry="11.85"/>
  <ellipse id="micro_5_5" cx="756.99" cy="1264.61" rx="20.96" ry="11.85"/>
  <ellipse id="micro_5_6" cx="801.2" cy="1265.68" rx="20.96" ry="11.85"/>
</g>
</g>

<clipPath id="to_micro_clp">
  <rect id="to_micro_rect" transform="translate(896 910) scale(1 0) translate(-896 -910)" x="886" y="910" width="20" height="200"/>
</clipPath>
<path clip-path="url(#to_micro_clp)" fill="#2cc900" d="M891.79 1094.42a4.93 4.93 0 00.15 4.65 5.02 5.02 0 008.63 0 4.8 4.8 0 00.66-2.5c0-.7-.15-1.4-.46-2.11-.3-.7-.74-1.34-1.28-1.88l1.85-1.66c.78.77 1.4 1.67 1.86 2.69a7.73 7.73 0 01-3.07 9.76 7.47 7.47 0 01-3.83 1.01 7.44 7.44 0 01-6.53-3.83c-.67-1.2-1-2.56-.99-3.94 0-2.13.85-4.17 2.37-5.67l2.06 1.64c-.6.5-1.09 1.13-1.42 1.84zm11.86-16.56l-3.11 1.3v7.18l3.11 1.3v2.92l-14.7-6.45v-2.92l14.7-6.36v3.03zm-5.52 7.48v-5.17l-6.17 2.56 6.17 2.61zm5.52-21.49l-4.35 2.54.02.52v3.32h4.33v2.81h-14.7v-6.13c0-1.9.44-3.37 1.32-4.41a4.63 4.63 0 013.74-1.55 5.5 5.5 0 012.94.75c.81.5 1.42 1.22 1.83 2.17l4.87-3.23v3.21zm-6.8 6.39v-3.32c0-1.06-.23-1.88-.69-2.44-.46-.56-1.15-.84-2.06-.84-.9 0-1.57.28-2.02.84-.45.56-.67 1.37-.67 2.44v3.32h5.44zm-6.91-22.61a3.15 3.15 0 012.69-1.35c.81 0 1.51.23 2.09.68.58.46.97 1.08 1.17 1.88.18-.98.6-1.75 1.26-2.3a3.72 3.72 0 012.46-.83 3.5 3.5 0 012.97 1.46c.72.97 1.08 2.3 1.08 3.98v6.72h-14.7v-6.53a6.1 6.1 0 01.98-3.71zm4.53 2.14a1.61 1.61 0 00-1.34-.62c-.56 0-.99.21-1.3.62-.31.41-.45.98-.44 1.71v3.57h3.57v-3.57a2.7 2.7 0 00-.49-1.71zm6.24-.39a1.7 1.7 0 00-1.47-.76c-.6 0-1.07.25-1.42.76-.34.5-.51 1.2-.49 2.1v3.57h3.88v-3.57a3.53 3.53 0 00-.5-2.1zm-10.96-17.06a7.38 7.38 0 016.53-3.86 7.46 7.46 0 016.57 3.86 8 8 0 011.01 3.98c0 1.46-.34 2.78-1.01 3.98a7.43 7.43 0 01-6.57 3.85 7.28 7.28 0 01-6.53-3.85 8.1 8.1 0 01-.99-3.98c0-1.45.33-2.78.99-3.98zm2.19 6.44a4.9 4.9 0 004.34 2.5 4.97 4.97 0 10.1-9.92h-.1a4.96 4.96 0 00-4.34 7.42zm-2.99-12.77v-2.81h6.28v-7.33h-6.28v-2.81h14.7v2.81h-5.96v7.33h5.96v2.81h-14.7zm0-28.41l9.89 5.35h4.81v2.81h-4.7l-10 5.48v-2.86l6.91-4.01-6.91-3.95v-2.82zm.93-11.87a6.86 6.86 0 012.61-2.73 7.35 7.35 0 013.8-.99 7.09 7.09 0 016.4 3.76c.63 1.18.94 2.51.94 4.01v6.01h-14.7v-6.11c.02-1.47.33-2.78.95-3.95zm10.67 1.46c-.4-.71-1-1.3-1.72-1.69a5.06 5.06 0 00-2.51-.61c-.94 0-1.78.21-2.53.63-.75.42-1.33 1-1.74 1.73-.42.76-.63 1.6-.62 2.47v3.25h9.74v-3.36c0-.89-.2-1.7-.62-2.42zm3.1-16.83l-4.35 2.54.02.52v3.32h4.33v2.81h-14.7v-6.13c0-1.9.44-3.37 1.32-4.41a4.63 4.63 0 013.74-1.55 5.5 5.5 0 012.94.75c.81.5 1.42 1.22 1.83 2.17l4.87-3.23v3.21zm-6.8 6.38v-3.32c0-1.06-.23-1.88-.69-2.44-.46-.56-1.15-.84-2.06-.84-.9 0-1.57.28-2.02.84-.45.56-.67 1.37-.67 2.44v3.32h5.44zm6.8-23.24l-3.11 1.3v7.18l3.11 1.3v2.92l-14.7-6.45v-2.92l14.7-6.36v3.03zm-5.52 7.47v-5.17l-6.17 2.56 6.17 2.61zm-9.18-9.15v-11.99h2.5v4.58h12.2v2.83h-12.2v4.58h-2.5zm0-13.99v-10.77h2.46V935h3.63v-7.14h2.46V935h3.7v-8.21h2.46v11.02h-14.71zm2.71-20.8a7.09 7.09 0 00-.38 2.09c0 .67.13 1.2.38 1.6.25.39.6.59 1.05.59.41 0 .75-.14 1.02-.41.27-.27.5-.62.67-1.03.18-.41.37-.98.58-1.69.29-.99.59-1.81.88-2.45.29-.64.73-1.18 1.3-1.63a3.57 3.57 0 012.27-.67c.9 0 1.68.24 2.34.72a4.55 4.55 0 011.52 2c.35.85.52 1.82.52 2.91a9.84 9.84 0 01-2.35 6.22l-2.39-1.18a8.4 8.4 0 001.62-2.5c.39-.92.59-1.78.59-2.58 0-.78-.15-1.4-.45-1.85a1.4 1.4 0 00-1.23-.67c-.42 0-.77.14-1.04.41a3.1 3.1 0 00-.66 1.04c-.17.42-.36.99-.57 1.72-.29.99-.58 1.81-.86 2.44-.28.63-.7 1.17-1.27 1.62a3.5 3.5 0 01-2.24.67 3.8 3.8 0 01-2.24-.68 4.35 4.35 0 01-1.48-1.93 7.41 7.41 0 01-.53-2.89c0-1.88.53-3.73 1.55-5.31l2.46 1.13c-.45.75-.81 1.52-1.06 2.31z"/>
<path id="to_micro" transform="translate(0 -210)" opacity="0" fill="#33eb00" d="M924.14 1116.94l-26.83 36.82-26.83-36.82h53.66z"/>

<clipPath id="from_micro_clp">
  <rect id="from_micro_rect" transform="translate(1078 1119) scale(1 0) translate(-1078 -1119)" x="1068" y="994" width="20" height="125"/>
</clipPath>
<path clip-path="url(#from_micro_clp)" fill="#136100" d="M1070.45 1105.67v-2.73h14.7v2.67l-10.12 7.56h10.12v2.75h-14.7v-2.67l10.14-7.58h-10.14zm11.38-9.87c.66-.66.99-1.54.99-2.65 0-1.11-.33-1.98-.99-2.62a3.76 3.76 0 00-2.73-.96h-8.65v-2.81h8.65c1.27 0 2.38.26 3.33.78a5.25 5.25 0 012.17 2.21c.5.96.76 2.09.76 3.39 0 1.32-.25 2.46-.76 3.43a5.27 5.27 0 01-2.17 2.24c-.94.52-2.05.78-3.33.78h-8.65v-2.81h8.65c1 .07 2-.29 2.73-.98zm-11.38-10.71v-11.99h2.5v4.58h12.2v2.83h-12.2v4.58h-2.5zm14.7-23.18l-4.35 2.54.02.52v3.32h4.33v2.81h-14.7v-6.13c0-1.9.44-3.37 1.32-4.41a4.63 4.63 0 013.74-1.55 5.5 5.5 0 012.94.75c.81.5 1.42 1.22 1.83 2.17l4.87-3.23v3.21zm-6.81 6.38v-3.32c0-1.06-.23-1.88-.69-2.44-.46-.56-1.15-.84-2.06-.84-.9 0-1.57.28-2.02.84-.45.56-.67 1.37-.67 2.44v3.32h5.44zm-7.89-12.37v-2.81h14.7v2.81h-14.7zm0-6.42v-10.77h2.46v7.96h3.63v-7.14h2.46v7.14h3.7v-8.21h2.46v11.02h-14.71zm0-24.13v-2.73h14.7v2.67l-10.12 7.56h10.12v2.75h-14.7v-2.67l10.14-7.58h-10.14zm0-4.71v-11.99h2.5v4.58h12.2v2.83h-12.2v4.58h-2.5zm2.71-20.9a7.09 7.09 0 00-.38 2.09c0 .67.13 1.21.38 1.6.25.39.6.59 1.05.59.41 0 .75-.14 1.02-.41.27-.27.5-.62.67-1.03.18-.41.37-.98.58-1.69.29-.99.59-1.81.88-2.45.29-.64.73-1.18 1.3-1.63a3.57 3.57 0 012.27-.67c.9 0 1.68.24 2.34.72a4.55 4.55 0 011.52 2c.35.85.53 1.82.53 2.91a9.84 9.84 0 01-2.35 6.22l-2.39-1.18a8.53 8.53 0 001.62-2.5c.39-.92.59-1.79.59-2.58 0-.78-.15-1.4-.45-1.85a1.4 1.4 0 00-1.23-.67c-.42 0-.77.14-1.04.41a3.1 3.1 0 00-.66 1.04c-.17.42-.36.99-.57 1.72-.29.99-.58 1.81-.86 2.44-.28.63-.7 1.17-1.27 1.62a3.5 3.5 0 01-2.24.67 3.8 3.8 0 01-2.24-.68 4.42 4.42 0 01-1.48-1.93 7.4 7.4 0 01-.53-2.89c0-1.88.53-3.73 1.55-5.31l2.46 1.13c-.46.74-.82 1.52-1.07 2.31z"/>
<path id="from_micro" transform="translate(0 135)" opacity="0" fill="#136100" d="M1049.79 981.53l26.83-36.83 26.83 36.83h-53.66z"/>

<script>
<![CDATA[

let start;
let total_time = 30000;
let timeframe = [2000, 3000, 8000, 9000, 13000, 18000];
let lock = [true, true, true, true, true, true];

function $(sel) {
  return document.querySelector(sel);
}

var anim_easing = function (t) { return t<.5 ? 2*t*t : -1+(4-2*t)*t };

function animate(timestamp) {
  if (!start) {
    start = timestamp;
  }
  const progress = timestamp - start;
  if (progress < total_time) {
    requestAnimationFrame(animate);
  } else {
    start = timestamp;
  }

  if(progress < timeframe[0]) {
    let local_progress = progress / timeframe[0];
    if(local_progress > .99) {
      local_progress = 1;
    }
    $("#soil_clip rect").setAttribute("height", 405*anim_easing(local_progress));
    $("#root").setAttribute("transform", "translate(989 1178) scale(" + anim_easing(local_progress) + ") translate(-989 -1178)");
    $("#plant").setAttribute("transform", "translate(989 1178) scale(" + anim_easing(local_progress) + ") translate(-989 -1178)");
    $("#hemishpere").setAttribute("stroke-dashoffset", 2432*anim_easing(1 - local_progress));
    $("#sun").setAttribute("transform", "rotate(-" + 80 * anim_easing(1 - local_progress) + " 991 1076)");
  }
  if(progress > timeframe[0] && progress < timeframe[1]) {
    let local_progress = (progress - timeframe[0]) / 1000;
    if(local_progress > .98) {
      local_progress = 1;
    }

    if(lock[1]) {
      $("#sun").setAttribute("transform", "");
      $("#sun").setAttribute("class", "animated");
      $("#ray").setAttribute("class", "animated");
      $("#carbon1").setAttribute("class", "animated");
      $("#carbon2").setAttribute("class", "animated");
      $("#arrows").setAttribute("class", "animated");
      lock[1] = false;
    }
    $("#carbon1").setAttribute("opacity", local_progress);
    $("#carbon2").setAttribute("opacity", local_progress);
    $("#ray").setAttribute("opacity", local_progress);
    $("#arr_path").setAttribute("opacity", local_progress);
    $("#arrows").setAttribute("opacity", local_progress);
  }
  if(progress > timeframe[1] && progress < timeframe[2]) {
    let local_progress = (progress - timeframe[1]) / 1000;
    if(local_progress > .98) {
      local_progress = 1;
    }
    $("#zoom1_bg").setAttribute("opacity", local_progress);
    $("#zoom1_bg_arrow").setAttribute("transform", "translate(" + (292 * (1 - local_progress)) + " -" + (71.5 * (1 - local_progress)) + ")");
    $("#zoom1_bg_line").setAttribute("stroke-dashoffset", 356.5 * (1 - local_progress));
    
    let local_progress2 = (progress - timeframe[1] - 1000) / 1000;
    if(local_progress2 > .98) {
      local_progress2 = 1;
    }
    
    if(local_progress > .98) {
      $("#zoom1").setAttribute("opacity", local_progress2);
    }
    
    if(local_progress > .98 && lock[2]) {
      $("#z1_arrows").setAttribute("class", "animated");
      $("#z1_sun").setAttribute("class", "animated");
      lock[2] = false;
    }
  }
  if(progress > timeframe[2] && progress < timeframe[3]) {
    let local_progress = (progress - timeframe[2]) / 1000;
    if(local_progress > .98) {
      local_progress = 1;
    }

    $("#zoom1_bg").setAttribute("opacity", (1 - local_progress));
    $("#zoom1").setAttribute("opacity", (1 - local_progress));

    if(local_progress > .98) {
      $("#z1_arrows").setAttribute("class", "");
      $("#z1_sun").setAttribute("class", "");
    }
  }
  if(progress > timeframe[3] && progress < timeframe[4]) {
    let local_progress = (progress - timeframe[3]) / 1000;
    if(local_progress > .98) {
      local_progress = 1;
    }
    $("#to_micro").setAttribute("transform", "translate(0 -" + (210 * (1 - anim_easing(local_progress))) + ")");
    $("#to_micro").setAttribute("opacity", local_progress);
    $("#to_micro_rect").setAttribute("transform", "translate(896 910) scale(1 " + anim_easing(local_progress) + ") translate(-896 -910)");

    let local_progress2 = (progress - timeframe[3] - 1000) / 1000;
    if(local_progress2 > .98) {
      local_progress2 = 1;
    }

    if(local_progress > .98) {
      $("#micros").setAttribute("opacity", local_progress2);
    }
    if(local_progress > .98 && lock[3]) {
      $("#micros").setAttribute("class", "animated");
      $("#arrows_down").setAttribute("class", "animated");
      lock[4] = false;
    }

    let local_progress3 = (progress - timeframe[3] - 2000) / 1000;
    if(local_progress3 > .98) {
      local_progress3 = 1;
    }

    if(local_progress2 > .98) {
      $("#from_micro").setAttribute("transform", "translate(0 " + (135 * (1 - anim_easing(local_progress3))) + ")");
      $("#from_micro").setAttribute("opacity", local_progress3);
      $("#arrows_down").setAttribute("opacity", local_progress3);
      $("#from_micro_rect").setAttribute("transform", "translate(1078 1119) scale(1 " + anim_easing(local_progress3) + ") translate(-1078 -1119)");
    }
  }
  if(progress > timeframe[4] && progress < timeframe[5]) {
    let local_progress = (progress - timeframe[4]) / 1000;
    if(local_progress > .98) {
      local_progress = 1;
    }
    $("#micros").setAttribute("opacity", (1 - local_progress));
    $("#micros2").setAttribute("opacity", local_progress);
    if(lock[5]) {
      $("#micros").setAttribute("class", "");
      $("#micros2").setAttribute("class", "animated");
      lock[5] = false;
    }
  }
}

requestAnimationFrame(animate);

]]>
</script>
</svg>
