<svg xmlns="http://www.w3.org/2000/svg" viewBox="0 0 1420 620">
<style>
/* <![CDATA[ */

#a1, #a2, #a3, #a4, #a5, #a6, #a7, #a8, #a9, #a10, #a11, #a12, #a13, #a14, #a15, #a16, #a17, #a18, #a19, #a20, #a21, #a22, #a23, #a24, #a25, #a26, #a27, #a28, #a29, #a30 {
visibility: hidden;
animation-duration: 5s;
animation-iteration-count: infinite;
animation-timing-function: steps(1);
}

/* ]]> */
</style>

<g transform="scale(.65) translate(150 -68)">
<g id="a1">
<path d="M784 600s-1.5-379.9 94.4-369.4c0 0-95.8-10.5-88.5 369.4z"/>
<path d="M716.2 600s-1.5-295-16.5-294c0 0 15-1 23.6 294z"/>
<path d="M349.5 600s-1.5-80 39-156.3c0 0-40.5 76.3-34.2 156.3z"/>
<path d="M532.2 600s-1.5-246-91.1-226.8c0 0 89.6-19.2 95.2 226.8z"/>
<path d="M210.7 600s-1.5-252.6 18.3-252.4c0 0-19.9-.2-10.6 252.4z"/>
<path d="M534.3 600s-1.5-359.8 200.6-302.7c0 0-202.1-57.1-194.6 302.7z"/>
<path d="M279.2 600S277.7 183.5 474 229.5c0 0-196.3-46-190.3 370.5z"/>
<path d="M565.2 600s-1.5-119.3 59.9-232.2c0 0-61.4 112.9-55 232.2z"/>
<path d="M324.5 600s-1.5-157.8-20.3-155.8c0 0 18.8-2 24.6 155.8z"/>
<path d="M902.1 600s-1.5-200.2-117.5-380.8c0 0 116 180.6 124 380.8z"/>
<path d="M200.4 600s-1.5-267.9-76-254.8c0 0 74.5-13 82.6 254.8z"/>
<path d="M680.5 600s-1.5-99.5-40.2-194c0 0 38.7 94.5 44.4 194z"/>
<path d="M762.6 600s-1.5-226.8 12.6-226.7c0 0-14-.1-7 226.7z"/>
<path d="M341.6 600s-1.5-152.4 118.6-283.5c0 0-120 131.1-111.7 283.5z"/>
<path d="M938 600s-1.5-145.5 153.3-250.4c0 0-154.8 104.9-148.3 250.4z"/>
<path d="M383.5 600s-1.5-448.6-190-403.6c0 0 188.5-45 195.8 403.6z"/>
<path d="M478.3 600s-1.5-225.6 142-178.6c0 0-143.5-47-137.9 178.6z"/>
<path d="M301.3 600S299.8 457.2 145 365c0 0 154.8 92.2 162.3 235z"/>
<path d="M794.9 600s-1.5-214 13-213.9c0 0-14.5-.1-8.5 213.9z"/>
<path d="M901.1 600s-1.5-173 209.3-280c0 0-210.8 107-203.4 280z"/>
<path d="M829 600s-1.5-323.6-183-261.8c0 0 181.5-61.8 190.2 261.8z"/>
<path d="M980.2 600s-1.5-203.4-75.9-398.3c0 0 74.4 195 82.5 398.3z"/>
<path d="M569 600s-1.5-166.6-14.6-332.6c0 0 13 166 21 332.6z"/>
<path d="M702.3 600s-1.5-182.3-157.7-325c0 0 156.2 142.7 165.4 325z"/>
<path d="M586.4 600s-1.5-157.2-77.9-303c0 0 76.4 145.8 84.4 303z"/>
<path d="M898.7 600s-1.5-169.8 116.9-127.8c0 0-118.4-42-111.8 127.8z"/>
<path d="M672.6 600S671 149.2 523.9 176c0 0 147.2-26.8 152.8 424z"/>
<path d="M915 600s-1.5-323.5 18-323.3c0 0-19.5-.2-11.5 323.3z"/>
<path d="M803.2 600s-1.5-184.1 190.5-317.8c0 0-192 133.7-186 317.8z"/>
<path d="M719.2 600s-1.5-204.9 35.5-408.6c0 0-37 203.7-30.2 408.6z"/>
<path d="M911.9 600s-1.5-345.5 241-252c0 0-242.6-93.5-236.4 252z"/>
<path d="M257.2 600s-1.5-103.4 131.6-162.8c0 0-133 59.4-127.6 162.8z"/>
<path d="M421.3 600s-1.5-223.6-239.7-374c0 0 238.2 150.4 245.1 374z"/>
<path d="M259.9 600s-1.5-116.2-24.8-230.2c0 0 23.3 114 32.3 230.2z"/>
<path d="M783.2 600S781.7 391.3 975 225.8c0 0-193.3 165.5-184.8 374.2z"/>
<path d="M288.3 600S286.8 448.5 461 346.9c0 0-174.2 101.6-166.5 253.1z"/>
<path d="M957.8 600s-1.5-208.3 13.1-416.5c0 0-14.6 208.2-8.3 416.5z"/>
<path d="M391.3 600s-1.5-409.7-82-400c0 0 80.5-9.7 89.2 400z"/>
<path d="M913.7 600s-1.5-89.5 102-151.9c0 0-103.5 62.5-94.5 151.9z"/>
<path d="M427 600s-1.5-84.9 5.5-169.8c0 0-7 84.9.7 169.8z"/>
</g>
<g id="a2">
<path d="M784 600s-1.5-379.9 94.4-369.4c0 0-95.9-10.5-88.5 369.4z"/>
<path d="M716.2 600s-1.5-295-16.2-294.1c0 0 14.7-1 23.3 294.1z"/>
<path d="M349.5 600s-1.5-80 38.8-156.3c0 0-40.3 76.3-34 156.3z"/>
<path d="M532.2 600s-1.5-246-91.3-226.7c0 0 89.8-19.3 95.4 226.7z"/>
<path d="M210.7 600s-1.5-252.6 18.4-252.4c0 0-20-.2-10.7 252.4z"/>
<path d="M534.3 600s-1.5-359.8 200.3-302.9c0 0-201.8-57-194.3 302.9z"/>
<path d="M279.2 600s-1.5-416.5 195.4-370.2c0 0-196.9-46.3-190.9 370.2z"/>
<path d="M565.2 600s-1.5-119.3 59.7-232.3c0 0-61.2 113-54.9 232.3z"/>
<path d="M324.5 600s-1.5-157.8-20.3-155.8c0 0 18.8-2 24.6 155.8z"/>
<path d="M902.1 600s-1.5-200.2-118-380.7c0 0 116.5 180.5 124.5 380.7z"/>
<path d="M200.4 600s-1.5-267.9-76.2-254.8c0 0 74.7-13 82.8 254.8z"/>
<path d="M680.5 600s-1.5-99.5-40.3-194c0 0 38.8 94.5 44.5 194z"/>
<path d="M762.6 600s-1.5-226.8 12.5-226.7c0 0-14-.1-7 226.7z"/>
<path d="M341.6 600S340.1 447.6 460 316.4c0 0-119.9 131.2-111.5 283.6z"/>
<path d="M938 600s-1.5-145.5 153-250.6c0 0-154.5 105-148 250.6z"/>
<path d="M383.5 600S382 151.4 193 196.6c0 0 188.9-45.2 196.2 403.4z"/>
<path d="M478.3 600s-1.5-225.6 141.9-178.7c0 0-143.4-47-137.8 178.7z"/>
<path d="M301.3 600S299.8 457.2 145 365.1c0 0 155 92.1 162.4 234.9z"/>
<path d="M794.9 600s-1.5-214 12.8-213.9c0 0-14.3-.1-8.3 213.9z"/>
<path d="M901.1 600s-1.5-173 209.3-280c0 0-210.8 107-203.4 280z"/>
<path d="M829 600s-1.5-323.6-182.8-262c0 0 181.3-61.6 190 262z"/>
<path d="M980.2 600s-1.5-203.4-76.1-398.3c0 0 74.6 195 82.7 398.3z"/>
<path d="M569 600s-1.5-166.6-15-332.5c0 0 13.5 165.9 21.5 332.5z"/>
<path d="M702.3 600s-1.5-182.3-157.8-325c0 0 156.3 142.7 165.5 325z"/>
<path d="M586.4 600s-1.5-157.2-78-303c0 0 76.5 145.8 84.5 303z"/>
<path d="M898.7 600s-1.5-169.8 116.7-128c0 0-118.2-41.8-111.6 128z"/>
<path d="M672.6 600S671 149.2 523.3 176.1c0 0 147.8-26.9 153.4 423.9z"/>
<path d="M915 600s-1.5-323.5 19-323.2c0 0-20.5-.3-12.5 323.2z"/>
<path d="M803.2 600s-1.5-184.1 191-317.4c0 0-192.5 133.3-186.6 317.4z"/>
<path d="M719.2 600s-1.5-204.9 35.4-408.7c0 0-37 203.8-30.1 408.7z"/>
<path d="M911.9 600s-1.5-345.5 240.9-252c0 0-242.4-93.5-236.3 252z"/>
<path d="M257.2 600s-1.5-103.4 131.5-162.8c0 0-133 59.4-127.5 162.8z"/>
<path d="M421.3 600s-1.5-223.6-240-373.7c0 0 238.5 150.1 245.4 373.7z"/>
<path d="M259.9 600s-1.5-116.2-24.6-230.3c0 0 23 114 32 230.3z"/>
<path d="M783.2 600s-1.5-208.7 192-374.2c0 0-193.5 165.5-185 374.2z"/>
<path d="M288.3 600s-1.5-151.5 172.6-253.1c0 0-174.1 101.6-166.4 253.1z"/>
<path d="M957.8 600s-1.5-208.3 12.5-416.5c0 0-14 208.2-7.7 416.5z"/>
<path d="M391.3 600s-1.5-409.7-82.4-399.8c0 0 80.9-10 89.6 399.8z"/>
<path d="M913.7 600s-1.5-89.5 102.2-151.8c0 0-103.7 62.4-94.6 151.8z"/>
<path d="M427 600s-1.5-84.9 5.3-169.8c0 0-6.8 84.9 1 169.8z"/>
</g>
<g id="a3">
<path d="M784 600s-1.5-379.9 94.5-369.4c0 0-96-10.5-88.6 369.4z"/>
<path d="M716.2 600s-1.5-295-15.6-294.2c0 0 14.1-.8 22.7 294.2z"/>
<path d="M349.5 600s-1.5-80 38.7-156.4c0 0-40.2 76.4-33.8 156.4z"/>
<path d="M532.2 600s-1.5-246-91.6-226.6c0 0 90-19.4 95.7 226.6z"/>
<path d="M210.7 600s-1.5-252.6 18.7-252.4c0 0-20.2-.2-11 252.4z"/>
<path d="M534.3 600S532.8 240.2 734 296.9c0 0-201.3-56.7-193.8 303.1z"/>
<path d="M279.2 600s-1.5-416.5 196.4-369.7c0 0-197.9-46.8-191.9 369.7z"/>
<path d="M565.2 600s-1.5-119.3 59.5-232.3c0 0-61 113-54.7 232.3z"/>
<path d="M324.5 600S323 442.2 304 444.2c0 0 18.9-2 24.7 155.8z"/>
<path d="M902.1 600s-1.5-200.2-118.6-380.4c0 0 117.1 180.2 125 380.4z"/>
<path d="M200.4 600s-1.5-267.9-76.4-254.7c0 0 74.9-13.2 83 254.7z"/>
<path d="M680.5 600S679 500.5 640 406c0 0 38.9 94.5 44.6 194z"/>
<path d="M762.6 600s-1.5-226.8 12.4-226.7c0 0-13.9-.1-6.9 226.7z"/>
<path d="M341.6 600s-1.5-152.4 118.1-283.7c0 0-119.6 131.3-111.2 283.7z"/>
<path d="M938 600s-1.5-145.5 152.6-250.9c0 0-154 105.4-147.6 250.9z"/>
<path d="M383.5 600S382 151.4 192.4 197c0 0 189.6-45.6 197 403z"/>
<path d="M478.3 600S476.8 374.4 620 421.2c0 0-143.2-46.8-137.6 178.8z"/>
<path d="M301.3 600s-1.5-142.8-156.5-234.8c0 0 155 92 162.5 234.8z"/>
<path d="M794.9 600s-1.5-214 12.4-213.9c0 0-14-.1-8 213.9z"/>
<path d="M901.1 600s-1.5-173 209.2-280c0 0-210.7 107-203.3 280z"/>
<path d="M829 600s-1.5-323.6-182.4-262.3c0 0 180.9-61.3 189.6 262.3z"/>
<path d="M980.2 600s-1.5-203.4-76.7-398.2c0 0 75.2 194.8 83.3 398.2z"/>
<path d="M569 600s-1.5-166.6-15.6-332.5c0 0 14 165.9 22 332.5z"/>
<path d="M702.3 600s-1.5-182.3-157.8-325c0 0 156.3 142.7 165.5 325z"/>
<path d="M586.4 600s-1.5-157.2-78-302.9c0 0 76.5 145.7 84.5 302.9z"/>
<path d="M898.7 600s-1.5-169.8 116.3-128.2c0 0-117.8-41.6-111.2 128.2z"/>
<path d="M672.6 600S671 149.2 522.5 176.4c0 0 148.6-27.2 154.2 423.6z"/>
<path d="M915 600s-1.5-323.5 20.4-323.2c0 0-22-.3-13.9 323.2z"/>
<path d="M803.2 600S801.7 415.9 995 283c0 0-193.3 132.9-187.3 317z"/>
<path d="M719.2 600s-1.5-204.9 35.3-408.7c0 0-36.8 203.8-30 408.7z"/>
<path d="M911.9 600s-1.5-345.5 240.7-252.3c0 0-242.2-93.2-236 252.3z"/>
<path d="M257.2 600s-1.5-103.4 131.3-163c0 0-132.8 59.6-127.3 163z"/>
<path d="M421.3 600s-1.5-223.6-240.5-373.4c0 0 239 149.8 246 373.4z"/>
<path d="M259.9 600s-1.5-116.2-24.2-230.3c0 0 22.7 114 31.7 230.3z"/>
<path d="M783.2 600s-1.5-208.7 192-374.1c0 0-193.5 165.4-185 374.1z"/>
<path d="M288.3 600s-1.5-151.5 172.6-253.2c0 0-174.1 101.7-166.4 253.2z"/>
<path d="M957.8 600s-1.5-208.3 11.8-416.5c0 0-13.3 208.2-7 416.5z"/>
<path d="M391.3 600s-1.5-409.7-83.2-399.6c0 0 81.7-10.1 90.3 399.6z"/>
<path d="M913.7 600s-1.5-89.5 102.4-151.7c0 0-104 62.3-94.9 151.7z"/>
<path d="M427 600s-1.5-84.9 5-169.8c0 0-6.5 84.9 1.2 169.8z"/>
</g>
<g id="a4">
<path d="M784 600s-1.5-379.9 94.7-369.3c0 0-96.2-10.6-88.8 369.3z"/>
<path d="M716.2 600s-1.5-295-14.7-294.2c0 0 13.2-.8 21.8 294.2z"/>
<path d="M349.5 600S348 520 388 443.6c0 0-40 76.4-33.6 156.4z"/>
<path d="M532.2 600s-1.5-246-92-226.4c0 0 90.5-19.6 96.1 226.4z"/>
<path d="M210.7 600s-1.5-252.6 19-252.4c0 0-20.5-.2-11.3 252.4z"/>
<path d="M534.3 600s-1.5-359.8 199.2-303.6c0 0-200.7-56.2-193.2 303.6z"/>
<path d="M279.2 600S277.7 183.5 477 231c0 0-199.3-47.5-193.3 369z"/>
<path d="M565.2 600s-1.5-119.3 59-232.4c0 0-60.5 113-54.2 232.4z"/>
<path d="M324.5 600s-1.5-157.8-20.6-155.8c0 0 19-2 25 155.8z"/>
<path d="M902.1 600s-1.5-200.2-119.6-380.1c0 0 118.1 179.9 126 380.1z"/>
<path d="M200.4 600s-1.5-267.9-76.7-254.6c0 0 75.2-13.3 83.3 254.6z"/>
<path d="M680.5 600s-1.5-99.5-40.6-194c0 0 39 94.5 44.8 194z"/>
<path d="M762.6 600s-1.5-226.8 12.3-226.7c0 0-13.8-.1-6.8 226.7z"/>
<path d="M341.6 600s-1.5-152.4 117.7-283.9c0 0-119.2 131.5-110.8 283.9z"/>
<path d="M938 600s-1.5-145.5 151.9-251.3c0 0-153.4 105.8-147 251.3z"/>
<path d="M383.5 600S382 151.4 191.3 197.4c0 0 190.7-46 198 402.6z"/>
<path d="M478.3 600s-1.5-225.6 141.4-179c0 0-143-46.6-137.3 179z"/>
<path d="M301.3 600s-1.5-142.8-156.7-234.7c0 0 155.2 92 162.8 234.7z"/>
<path d="M794.9 600s-1.5-214 12-213.9c0 0-13.5-.1-7.5 213.9z"/>
<path d="M901.1 600s-1.5-173 209.2-280c0 0-210.7 107-203.3 280z"/>
<path d="M829 600s-1.5-323.6-181.8-262.7c0 0 180.3-61 189 262.7z"/>
<path d="M980.2 600s-1.5-203.4-77.4-398c0 0 75.9 194.6 84 398z"/>
<path d="M569 600s-1.5-166.6-16.6-332.4c0 0 15 165.8 23 332.4z"/>
<path d="M702.3 600s-1.5-182.3-157.9-324.9c0 0 156.4 142.6 165.6 324.9z"/>
<path d="M586.4 600s-1.5-157.2-78.1-302.9c0 0 76.6 145.7 84.6 302.9z"/>
<path d="M898.7 600s-1.5-169.8 116.1-128.4c0 0-117.6-41.4-111 128.4z"/>
<path d="M672.6 600S671 149.2 521.9 176.6c0 0 149.2-27.4 154.8 423.4z"/>
<path d="M915 600s-1.5-323.5 21.4-323.1c0 0-23-.4-14.9 323.1z"/>
<path d="M803.2 600s-1.5-184.1 192.3-316.7c0 0-193.8 132.6-187.8 316.7z"/>
<path d="M719.2 600s-1.5-204.9 35.3-408.7c0 0-36.8 203.8-30 408.7z"/>
<path d="M911.9 600s-1.5-345.5 240.5-252.5c0 0-242-93-235.9 252.5z"/>
<path d="M257.2 600s-1.5-103.4 131.2-163c0 0-132.7 59.6-127.2 163z"/>
<path d="M421.3 600s-1.5-223.6-240.7-373.3c0 0 239.2 149.7 246.1 373.3z"/>
<path d="M259.9 600s-1.5-116.2-24-230.3c0 0 22.5 114 31.5 230.3z"/>
<path d="M783.2 600s-1.5-208.7 192.2-374c0 0-193.7 165.3-185.2 374z"/>
<path d="M288.3 600s-1.5-151.5 172.5-253.2c0 0-174 101.7-166.3 253.2z"/>
<path d="M957.8 600s-1.5-208.3 11.3-416.5c0 0-12.8 208.2-6.5 416.5z"/>
<path d="M391.3 600s-1.5-409.7-83.7-399.5c0 0 82.2-10.2 90.8 399.5z"/>
<path d="M913.7 600s-1.5-89.5 102.6-151.6c0 0-104.1 62.1-95 151.6z"/>
<path d="M427 600s-1.5-84.9 4.8-169.8c0 0-6.3 84.9 1.4 169.8z"/>
</g>
<g id="a5">
<path d="M784 600s-1.5-379.9 95-369.3c0 0-96.5-10.6-89.1 369.3z"/>
<path d="M716.2 600s-1.5-295-14-294.3c0 0 12.5-.7 21 294.3z"/>
<path d="M349.5 600s-1.5-80 38.3-156.5c0 0-39.8 76.5-33.5 156.5z"/>
<path d="M532.2 600s-1.5-246-92.3-226.3c0 0 90.8-19.7 96.4 226.3z"/>
<path d="M210.7 600s-1.5-252.6 19.3-252.4c0 0-20.8-.2-11.6 252.4z"/>
<path d="M534.3 600S532.8 240.2 733 296.1c0 0-200.2-56-192.7 303.9z"/>
<path d="M279.2 600S277.7 183.5 478 231.6c0 0-200.3-48.1-194.3 368.4z"/>
<path d="M565.2 600s-1.5-119.3 58.8-232.5c0 0-60.3 113.2-54 232.5z"/>
<path d="M324.5 600s-1.5-157.8-20.7-155.8c0 0 19.2-2 25 155.8z"/>
<path d="M902.1 600s-1.5-200.2-120.2-379.9c0 0 118.7 179.7 126.7 379.9z"/>
<path d="M200.4 600s-1.5-267.9-76.9-254.5c0 0 75.4-13.4 83.5 254.5z"/>
<path d="M680.5 600s-1.5-99.5-40.8-194c0 0 39.3 94.5 45 194z"/>
<path d="M762.6 600s-1.5-226.8 12.3-226.7c0 0-13.8-.1-6.8 226.7z"/>
<path d="M341.6 600S340.1 447.6 459 316c0 0-118.9 131.6-110.5 284z"/>
<path d="M938 600s-1.5-145.5 151.4-251.6c0 0-152.9 106-146.4 251.6z"/>
<path d="M383.5 600S382 151.4 190.6 197.8c0 0 191.4-46.4 198.7 402.2z"/>
<path d="M478.3 600s-1.5-225.6 141.2-179.2c0 0-142.7-46.4-137 179.2z"/>
<path d="M301.3 600s-1.5-142.8-156.8-234.6c0 0 155.3 91.8 162.8 234.6z"/>
<path d="M794.9 600s-1.5-214 11.6-214c0 0-13.1 0-7.1 214z"/>
<path d="M901.1 600s-1.5-173 209.3-280c0 0-210.8 107-203.4 280z"/>
<path d="M829 600s-1.5-323.6-181.4-263c0 0 179.9-60.6 188.6 263z"/>
<path d="M980.2 600s-1.5-203.4-78-397.9c0 0 76.5 194.5 84.6 397.9z"/>
<path d="M569 600s-1.5-166.6-17.2-332.4c0 0 15.7 165.8 23.7 332.4z"/>
<path d="M702.3 600s-1.5-182.3-158-324.9c0 0 156.5 142.6 165.7 324.9z"/>
<path d="M586.4 600s-1.5-157.2-78.2-302.9c0 0 76.7 145.7 84.7 302.9z"/>
<path d="M898.7 600s-1.5-169.8 115.8-128.7c0 0-117.3-41-110.7 128.7z"/>
<path d="M672.6 600S671 149.2 521.2 177c0 0 149.9-27.8 155.5 423z"/>
<path d="M915 600s-1.5-323.5 22.7-323c0 0-24.2-.5-16.2 323z"/>
<path d="M803.2 600s-1.5-184.1 193-316.3c0 0-194.5 132.2-188.5 316.3z"/>
<path d="M719.2 600s-1.5-204.9 35.2-408.7c0 0-36.7 203.8-30 408.7z"/>
<path d="M911.9 600s-1.5-345.5 240.2-252.7c0 0-241.8-92.8-235.6 252.7z"/>
<path d="M257.2 600s-1.5-103.4 131-163.2c0 0-132.5 59.8-127 163.2z"/>
<path d="M421.3 600s-1.5-223.6-241-373c0 0 239.5 149.4 246.4 373z"/>
<path d="M259.9 600s-1.5-116.2-23.7-230.4c0 0 22.2 114.2 31.2 230.4z"/>
<path d="M783.2 600s-1.5-208.7 192.4-374c0 0-193.9 165.3-185.4 374z"/>
<path d="M288.3 600s-1.5-151.5 172.5-253.2c0 0-174 101.7-166.3 253.2z"/>
<path d="M957.8 600s-1.5-208.3 10.6-416.5c0 0-12 208.2-5.8 416.5z"/>
<path d="M391.3 600s-1.5-409.7-84.4-399.4c0 0 82.9-10.3 91.6 399.4z"/>
<path d="M913.7 600s-1.5-89.5 102.8-151.4c0 0-104.3 62-95.2 151.4z"/>
<path d="M427 600s-1.5-84.9 4.6-169.8c0 0-6 84.9 1.6 169.8z"/>
</g>
<g id="a6">
<path d="M784 600s-1.5-379.9 95.2-369.2c0 0-96.7-10.7-89.3 369.2z"/>
<path d="M716.2 600s-1.5-295-13-294.3c0 0 11.5-.7 20 294.3z"/>
<path d="M349.5 600s-1.5-80 38-156.5c0 0-39.5 76.5-33.1 156.5z"/>
<path d="M532.2 600s-1.5-246-92.7-226.1c0 0 91.2-19.9 96.8 226.1z"/>
<path d="M210.7 600s-1.5-252.6 19.7-252.3c0 0-21.3-.3-12 252.3z"/>
<path d="M534.3 600s-1.5-359.8 198-304.3c0 0-199.5-55.5-192 304.3z"/>
<path d="M279.2 600s-1.5-416.5 200.2-367.7c0 0-201.7-48.8-195.7 367.7z"/>
<path d="M565.2 600s-1.5-119.3 58.3-232.6c0 0-59.8 113.3-53.5 232.6z"/>
<path d="M324.5 600s-1.5-157.8-21-155.7c0 0 19.5-2 25.3 155.7z"/>
<path d="M902.1 600S900.6 399.8 781 220.4c0 0 119.6 179.4 127.6 379.6z"/>
<path d="M200.4 600s-1.5-267.9-77.1-254.5c0 0 75.6-13.4 83.7 254.5z"/>
<path d="M680.5 600s-1.5-99.5-41-193.9c0 0 39.5 94.4 45.2 193.9z"/>
<path d="M762.6 600s-1.5-226.8 12.2-226.7c0 0-13.7-.1-6.7 226.7z"/>
<path d="M341.6 600s-1.5-152.4 116.9-284.2c0 0-118.4 131.8-110 284.2z"/>
<path d="M938 600s-1.5-145.5 150.7-252c0 0-152.2 106.5-145.7 252z"/>
<path d="M383.5 600S382 151.4 189.6 198.3c0 0 192.3-47 199.7 401.7z"/>
<path d="M478.3 600s-1.5-225.6 141-179.3c0 0-142.5-46.3-136.9 179.3z"/>
<path d="M301.3 600s-1.5-142.8-157-234.5c0 0 155.5 91.7 163 234.5z"/>
<path d="M794.9 600s-1.5-214 11.1-214c0 0-12.6 0-6.6 214z"/>
<path d="M901.1 600s-1.5-173 209.3-280c0 0-210.8 107-203.4 280z"/>
<path d="M829 600s-1.5-323.6-180.7-263.5c0 0 179.2-60.1 187.9 263.5z"/>
<path d="M980.2 600s-1.5-203.4-78.7-397.7c0 0 77.2 194.3 85.3 397.7z"/>
<path d="M569 600s-1.5-166.6-18.2-332.3c0 0 16.7 165.7 24.7 332.3z"/>
<path d="M702.3 600s-1.5-182.3-158-324.9c0 0 156.5 142.6 165.7 324.9z"/>
<path d="M586.4 600s-1.5-157.2-78.2-302.8c0 0 76.7 145.6 84.7 302.8z"/>
<path d="M898.7 600s-1.5-169.8 115.7-128.8c0 0-117.2-41-110.6 128.8z"/>
<path d="M672.6 600S671 149.2 520.9 177c0 0 150.2-27.8 155.8 423z"/>
<path d="M915 600s-1.5-323.5 23.3-323c0 0-24.8-.5-16.8 323z"/>
<path d="M803.2 600s-1.5-184.1 193.2-316.2c0 0-194.7 132-188.7 316.2z"/>
<path d="M719.2 600s-1.5-204.9 35.2-408.7c0 0-36.7 203.8-30 408.7z"/>
<path d="M911.9 600s-1.5-345.5 240-252.8c0 0-241.6-92.7-235.4 252.8z"/>
<path d="M257.2 600s-1.5-103.4 131-163.3c0 0-132.5 60-127 163.3z"/>
<path d="M421.3 600s-1.5-223.6-241.2-373c0 0 239.7 149.4 246.6 373z"/>
<path d="M259.9 600s-1.5-116.2-23.6-230.4c0 0 22 114.2 31 230.4z"/>
<path d="M783.2 600s-1.5-208.7 192.5-374c0 0-194 165.3-185.5 374z"/>
<path d="M288.3 600s-1.5-151.5 172.5-253.2c0 0-174 101.7-166.3 253.2z"/>
<path d="M957.8 600s-1.5-208.3 10.3-416.5c0 0-11.8 208.2-5.5 416.5z"/>
<path d="M391.3 600s-1.5-409.7-84.7-399.3c0 0 83.2-10.4 91.9 399.3z"/>
<path d="M913.7 600s-1.5-89.5 102.9-151.4c0 0-104.4 62-95.4 151.4z"/>
<path d="M427 600s-1.5-84.9 4.5-169.8c0 0-6 84.9 1.7 169.8z"/>
</g>
<g id="a7">
<path d="M784 600s-1.5-379.9 95.3-369.2c0 0-96.8-10.7-89.4 369.2z"/>
<path d="M716.2 600s-1.5-295-12.7-294.4c0 0 11.2-.6 19.8 294.4z"/>
<path d="M349.5 600s-1.5-80 38-156.5c0 0-39.5 76.5-33.1 156.5z"/>
<path d="M532.2 600s-1.5-246-92.9-226c0 0 91.4-20 97 226z"/>
<path d="M210.7 600s-1.5-252.6 19.9-252.3c0 0-21.4-.3-12.2 252.3z"/>
<path d="M534.3 600S532.8 240.2 732 295.5c0 0-199.3-55.3-191.8 304.5z"/>
<path d="M279.2 600S277.7 183.5 480 232.6c0 0-202.3-49.1-196.3 367.4z"/>
<path d="M565.2 600s-1.5-119.3 58.1-232.7c0 0-59.6 113.4-53.3 232.7z"/>
<path d="M324.5 600s-1.5-157.8-21-155.7c0 0 19.5-2 25.3 155.7z"/>
<path d="M902.1 600s-1.5-200.2-121.5-379.5c0 0 120 179.3 128 379.5z"/>
<path d="M200.4 600s-1.5-267.9-77.2-254.4c0 0 75.7-13.5 83.8 254.4z"/>
<path d="M680.5 600s-1.5-99.5-41-193.9c0 0 39.5 94.4 45.2 193.9z"/>
<path d="M762.6 600s-1.5-226.8 12.2-226.7c0 0-13.7-.1-6.7 226.7z"/>
<path d="M341.6 600s-1.5-152.4 116.7-284.3c0 0-118.2 132-109.8 284.3z"/>
<path d="M938 600s-1.5-145.5 150.4-252.1c0 0-151.9 106.6-145.4 252.1z"/>
<path d="M383.5 600S382 151.4 189.2 198.5c0 0 192.8-47.1 200.1 401.5z"/>
<path d="M478.3 600s-1.5-225.6 140.9-179.4c0 0-142.4-46.2-136.8 179.4z"/>
<path d="M301.3 600s-1.5-142.8-157-234.4c0 0 155.5 91.6 163 234.4z"/>
<path d="M794.9 600s-1.5-214 11-214c0 0-12.5 0-6.5 214z"/>
<path d="M901.1 600s-1.5-173 209.3-280c0 0-210.8 107-203.4 280z"/>
<path d="M829 600s-1.5-323.6-180.5-263.7c0 0 179-60 187.7 263.7z"/>
<path d="M980.2 600s-1.5-203.4-79-397.6c0 0 77.5 194.2 85.6 397.6z"/>
<path d="M569 600s-1.5-166.6-18.6-332.3c0 0 17 165.7 25 332.3z"/>
<path d="M702.3 600s-1.5-182.3-158-324.9c0 0 156.5 142.6 165.7 324.9z"/>
<path d="M586.4 600s-1.5-157.2-78.2-302.8c0 0 76.7 145.6 84.7 302.8z"/>
<path d="M898.7 600s-1.5-169.8 115.5-129c0 0-117-40.7-110.4 129z"/>
<path d="M672.6 600S671 149.2 520.4 177.2c0 0 150.7-28 156.3 422.8z"/>
<path d="M915 600s-1.5-323.5 24.1-323c0 0-25.6-.5-17.6 323z"/>
<path d="M803.2 600s-1.5-184.1 193.6-316c0 0-195.1 131.9-189.1 316z"/>
<path d="M719.2 600s-1.5-204.9 35.2-408.7c0 0-36.7 203.8-30 408.7z"/>
<path d="M911.9 600s-1.5-345.5 239.9-253c0 0-241.4-92.5-235.3 253z"/>
<path d="M257.2 600S255.7 496.6 388 436.7c0 0-132.3 60-126.8 163.3z"/>
<path d="M421.3 600S419.8 376.4 180 227.2c0 0 240 149.2 246.8 372.8z"/>
<path d="M259.9 600s-1.5-116.2-23.5-230.4c0 0 22 114.2 31 230.4z"/>
<path d="M783.2 600s-1.5-208.7 192.6-373.9c0 0-194 165.2-185.6 373.9z"/>
<path d="M288.3 600s-1.5-151.5 172.5-253.2c0 0-174 101.7-166.3 253.2z"/>
<path d="M957.8 600s-1.5-208.3 9.9-416.5c0 0-11.4 208.2-5.1 416.5z"/>
<path d="M391.3 600s-1.5-409.7-85.2-399.2c0 0 83.7-10.5 92.3 399.2z"/>
<path d="M913.7 600s-1.5-89.5 103-151.3c0 0-104.5 61.9-95.5 151.3z"/>
<path d="M427 600s-1.5-84.9 4.3-169.8c0 0-5.8 84.9 2 169.8z"/>
</g>
<g id="a8">
<path d="M784 600s-1.5-379.9 95.5-369.1c0 0-97-10.8-89.6 369.1z"/>
<path d="M716.2 600s-1.5-295-12-294.4c0 0 10.5-.6 19 294.4z"/>
<path d="M349.5 600s-1.5-80 37.9-156.6c0 0-39.4 76.6-33 156.6z"/>
<path d="M532.2 600s-1.5-246-93.1-226c0 0 91.6-20 97.2 226z"/>
<path d="M210.7 600s-1.5-252.6 20.1-252.3c0 0-21.6-.3-12.4 252.3z"/>
<path d="M534.3 600s-1.5-359.8 197.4-304.7c0 0-199-55.1-191.4 304.7z"/>
<path d="M279.2 600s-1.5-416.5 201.6-367c0 0-203-49.5-197 367z"/>
<path d="M565.2 600s-1.5-119.3 57.9-232.7c0 0-59.4 113.4-53 232.7z"/>
<path d="M324.5 600s-1.5-157.8-21.1-155.7c0 0 19.6-2 25.4 155.7z"/>
<path d="M902.1 600S900.6 399.8 780 220.7c0 0 120.6 179 128.6 379.3z"/>
<path d="M200.4 600s-1.5-267.9-77.3-254.4c0 0 75.8-13.5 84 254.4z"/>
<path d="M680.5 600s-1.5-99.5-41.2-193.8c0 0 39.7 94.3 45.4 193.8z"/>
<path d="M762.6 600s-1.5-226.8 12.1-226.7c0 0-13.6-.1-6.6 226.7z"/>
<path d="M341.6 600S340.1 447.6 458 315.6c0 0-117.9 132-109.5 284.4z"/>
<path d="M938 600s-1.5-145.5 150-252.4c0 0-151.5 106.9-145 252.4z"/>
<path d="M383.5 600S382 151.4 188.6 198.8c0 0 193.4-47.4 200.7 401.2z"/>
<path d="M478.3 600S476.8 374.4 619 420.5c0 0-142.3-46.1-136.7 179.5z"/>
<path d="M301.3 600s-1.5-142.8-157-234.4c0 0 155.5 91.6 163 234.4z"/>
<path d="M794.9 600s-1.5-214 10.7-214c0 0-12.2 0-6.2 214z"/>
<path d="M901.1 600s-1.5-173 209.4-280c0 0-210.9 107-203.5 280z"/>
<path d="M829 600s-1.5-323.6-180-264c0 0 178.5-59.6 187.2 264z"/>
<path d="M980.2 600s-1.5-203.4-79.5-397.6c0 0 78 194.2 86 397.6z"/>
<path d="M569 600s-1.5-166.6-19.2-332.2c0 0 17.7 165.6 25.7 332.2z"/>
<path d="M702.3 600s-1.5-182.3-158-324.9c0 0 156.5 142.6 165.7 324.9z"/>
<path d="M586.4 600s-1.5-157.2-78.3-302.8c0 0 76.8 145.6 84.8 302.8z"/>
<path d="M898.7 600s-1.5-169.8 115.2-129.2c0 0-116.7-40.6-110.1 129.2z"/>
<path d="M672.6 600s-1.5-450.8-153-422.5c0 0 151.5-28.3 157 422.5z"/>
<path d="M915 600s-1.5-323.5 25.6-323c0 0-27.1-.5-19.1 323z"/>
<path d="M803.2 600s-1.5-184.1 194.2-315.6c0 0-195.7 131.5-189.7 315.6z"/>
<path d="M719.2 600s-1.5-204.9 35.2-408.7c0 0-36.7 203.8-30 408.7z"/>
<path d="M911.9 600s-1.5-345.5 239.5-253.4c0 0-241-92-234.9 253.4z"/>
<path d="M257.2 600s-1.5-103.4 130.6-163.5c0 0-132 60.1-126.6 163.5z"/>
<path d="M421.3 600s-1.5-223.6-241.8-372.6c0 0 240.3 149 247.2 372.6z"/>
<path d="M259.9 600s-1.5-116.2-23.2-230.4c0 0 21.7 114.1 30.7 230.4z"/>
<path d="M783.2 600s-1.5-208.7 193-373.7c0 0-194.5 165-186 373.7z"/>
<path d="M288.3 600s-1.5-151.5 172.6-253.2c0 0-174.1 101.7-166.4 253.2z"/>
<path d="M957.8 600s-1.5-208.3 9.2-416.6c0 0-10.7 208.3-4.4 416.6z"/>
<path d="M391.3 600s-1.5-409.7-86-399c0 0 84.5-10.7 93.1 399z"/>
<path d="M913.7 600s-1.5-89.5 103.3-151.1c0 0-104.8 61.6-95.8 151.1z"/>
<path d="M427 600s-1.5-84.9 4-169.8c0 0-5.5 84.9 2.2 169.8z"/>
</g>
<g id="a9">
<path d="M784 600s-1.5-379.9 96-369c0 0-97.4-10.9-90.1 369z"/>
<path d="M716.2 600s-1.5-295-11-294.5c0 0 9.5-.5 18 294.5z"/>
<path d="M349.5 600s-1.5-80 37.6-156.6c0 0-39 76.6-32.7 156.6z"/>
<path d="M532.2 600s-1.5-246-93.6-225.8c0 0 92-20.2 97.7 225.8z"/>
<path d="M210.7 600s-1.5-252.6 20.6-252.3c0 0-22.2-.3-12.9 252.3z"/>
<path d="M534.3 600S532.8 240.2 731 294.9c0 0-198.2-54.7-190.7 305.1z"/>
<path d="M279.2 600s-1.5-416.5 203.1-366.1c0 0-204.6-50.4-198.6 366.1z"/>
<path d="M565.2 600s-1.5-119.3 57.4-232.8c0 0-59 113.5-52.6 232.8z"/>
<path d="M324.5 600S323 442.2 303 444.3c0 0 19.9-2 25.7 155.7z"/>
<path d="M902.1 600s-1.5-200.2-123-379c0 0 121.5 178.8 129.5 379z"/>
<path d="M200.4 600s-1.5-267.9-77.5-254.3c0 0 76-13.6 84.1 254.3z"/>
<path d="M680.5 600S679 500.5 639 406.2c0 0 39.9 94.3 45.6 193.8z"/>
<path d="M762.6 600s-1.5-226.8 12-226.7c0 0-13.5-.1-6.5 226.7z"/>
<path d="M341.6 600s-1.5-152.4 115.8-284.6c0 0-117.3 132.2-108.9 284.6z"/>
<path d="M938 600s-1.5-145.5 149.2-252.8c0 0-150.7 107.3-144.2 252.8z"/>
<path d="M383.5 600S382 151.4 187.6 199.3c0 0 194.4-48 201.7 400.7z"/>
<path d="M478.3 600s-1.5-225.6 140.6-179.7c0 0-142.1-46-136.5 179.7z"/>
<path d="M301.3 600s-1.5-142.8-157.1-234.3c0 0 155.6 91.5 163.2 234.3z"/>
<path d="M794.9 600s-1.5-214 10.2-214c0 0-11.7 0-5.7 214z"/>
<path d="M901.1 600s-1.5-173 209.4-279.9c0 0-210.9 106.9-203.5 279.9z"/>
<path d="M829 600s-1.5-323.6-179.4-264.5c0 0 177.9-59.1 186.6 264.5z"/>
<path d="M980.2 600s-1.5-203.4-80.4-397.4c0 0 78.9 194 87 397.4z"/>
<path d="M569 600s-1.5-166.6-20.2-332.2c0 0 18.7 165.6 26.7 332.2z"/>
<path d="M702.3 600s-1.5-182.3-157.9-325c0 0 156.4 142.7 165.6 325z"/>
<path d="M586.4 600s-1.5-157.2-78.2-302.8c0 0 76.7 145.6 84.7 302.8z"/>
<path d="M898.7 600s-1.5-169.8 115-129.3c0 0-116.5-40.5-110 129.3z"/>
<path d="M672.6 600S671 149.2 519.3 177.6c0 0 151.8-28.4 157.4 422.4z"/>
<path d="M915 600s-1.5-323.5 26.1-322.9c0 0-27.6-.6-19.6 322.9z"/>
<path d="M803.2 600s-1.5-184.1 194.4-315.4c0 0-195.9 131.3-190 315.4z"/>
<path d="M719.2 600s-1.5-204.9 35.3-408.7c0 0-36.8 203.8-30 408.7z"/>
<path d="M911.9 600s-1.5-345.5 239.4-253.5c0 0-241-92-234.8 253.5z"/>
<path d="M257.2 600s-1.5-103.4 130.5-163.6c0 0-132 60.2-126.5 163.6z"/>
<path d="M421.3 600s-1.5-223.6-241.9-372.5c0 0 240.4 149 247.3 372.5z"/>
<path d="M259.9 600s-1.5-116.2-23.1-230.5c0 0 21.6 114.3 30.6 230.5z"/>
<path d="M783.2 600s-1.5-208.7 193.1-373.6c0 0-194.6 164.9-186.1 373.6z"/>
<path d="M288.3 600s-1.5-151.5 172.6-253.2c0 0-174.1 101.7-166.4 253.2z"/>
<path d="M957.8 600s-1.5-208.3 9-416.6c0 0-10.5 208.3-4.2 416.6z"/>
<path d="M391.3 600s-1.5-409.7-86.4-399c0 0 84.9-10.7 93.6 399z"/>
<path d="M913.7 600s-1.5-89.5 103.5-151c0 0-105 61.6-96 151z"/>
<path d="M427 600s-1.5-84.9 4-169.8c0 0-5.5 84.9 2.2 169.8z"/>
</g>
<g id="a10">
<path d="M784 600s-1.5-379.9 96.2-369c0 0-97.7-10.9-90.3 369z"/>
<path d="M716.2 600s-1.5-295-10.5-294.5c0 0 9-.5 17.6 294.5z"/>
<path d="M349.5 600s-1.5-80 37.6-156.6c0 0-39 76.6-32.7 156.6z"/>
<path d="M532.2 600s-1.5-246-93.7-225.7c0 0 92.2-20.3 97.8 225.7z"/>
<path d="M210.7 600s-1.5-252.6 20.8-252.3c0 0-22.3-.3-13.1 252.3z"/>
<path d="M534.3 600s-1.5-359.8 196.4-305.3c0 0-198-54.5-190.4 305.3z"/>
<path d="M279.2 600S277.7 183.5 483 234.2c0 0-205.3-50.7-199.3 365.8z"/>
<path d="M565.2 600s-1.5-119.3 57.2-232.9c0 0-58.7 113.6-52.4 232.9z"/>
<path d="M324.5 600S323 442.2 303 444.4c0 0 20-2.2 25.8 155.6z"/>
<path d="M902.1 600s-1.5-200.2-123.4-378.8c0 0 121.9 178.6 129.9 378.8z"/>
<path d="M200.4 600s-1.5-267.9-77.6-254.3c0 0 76-13.6 84.2 254.3z"/>
<path d="M680.5 600S679 500.5 639 406.2c0 0 39.9 94.3 45.6 193.8z"/>
<path d="M762.6 600s-1.5-226.8 12-226.7c0 0-13.5-.1-6.5 226.7z"/>
<path d="M341.6 600s-1.5-152.4 115.6-284.7c0 0-117 132.3-108.7 284.7z"/>
<path d="M938 600s-1.5-145.5 149-253c0 0-150.5 107.5-144 253z"/>
<path d="M383.5 600S382 151.4 187.2 199.5c0 0 194.8-48.1 202.1 400.5z"/>
<path d="M478.3 600s-1.5-225.6 140.5-179.7c0 0-142-46-136.4 179.7z"/>
<path d="M301.3 600s-1.5-142.8-157.2-234.3c0 0 155.7 91.5 163.3 234.3z"/>
<path d="M794.9 600s-1.5-214 10-214c0 0-11.5 0-5.5 214z"/>
<path d="M901.1 600s-1.5-173 209.5-279.9c0 0-211 106.9-203.6 279.9z"/>
<path d="M829 600s-1.5-323.6-179-264.7c0 0 177.5-59 186.2 264.7z"/>
<path d="M980.2 600s-1.5-203.4-80.8-397.3c0 0 79.3 194 87.4 397.3z"/>
<path d="M569 600s-1.5-166.6-20.6-332.1c0 0 19 165.5 27 332.1z"/>
<path d="M702.3 600s-1.5-182.3-157.8-325c0 0 156.3 142.7 165.5 325z"/>
<path d="M586.4 600s-1.5-157.2-78.2-302.8c0 0 76.7 145.6 84.7 302.8z"/>
<path d="M898.7 600s-1.5-169.8 114.8-129.5c0 0-116.3-40.3-109.7 129.5z"/>
<path d="M672.6 600S671 149.2 518.8 177.8c0 0 152.3-28.6 157.9 422.2z"/>
<path d="M915 600s-1.5-323.5 27-322.8c0 0-28.5-.7-20.5 322.8z"/>
<path d="M803.2 600S801.7 415.9 998 284.8c0 0-196.3 131-190.3 315.2z"/>
<path d="M719.2 600s-1.5-204.9 35.3-408.7c0 0-36.8 203.8-30 408.7z"/>
<path d="M911.9 600s-1.5-345.5 239.1-253.8c0 0-240.7-91.7-234.5 253.8z"/>
<path d="M257.2 600s-1.5-103.4 130.4-163.7c0 0-131.9 60.3-126.4 163.7z"/>
<path d="M421.3 600s-1.5-223.6-242-372.4c0 0 240.5 148.8 247.4 372.4z"/>
<path d="M259.9 600s-1.5-116.2-23-230.5c0 0 21.5 114.3 30.5 230.5z"/>
<path d="M783.2 600s-1.5-208.7 193.4-373.5c0 0-194.9 164.8-186.4 373.5z"/>
<path d="M288.3 600s-1.5-151.5 172.6-253.1c0 0-174.1 101.6-166.4 253.1z"/>
<path d="M957.8 600s-1.5-208.3 8.5-416.6c0 0-10 208.3-3.7 416.6z"/>
<path d="M391.3 600s-1.5-409.7-87-398.8c0 0 85.5-11 94.1 398.8z"/>
<path d="M913.7 600s-1.5-89.5 103.7-150.9c0 0-105.2 61.4-96.1 150.9z"/>
<path d="M427 600s-1.5-84.9 3.8-169.8c0 0-5.3 84.9 2.4 169.8z"/>
</g>
<g id="a11">
<path d="M784 600s-1.5-379.9 96.5-368.9c0 0-98-11-90.6 368.9z"/>
<path d="M716.2 600s-1.5-295-9.7-294.6c0 0 8.2-.4 16.8 294.6z"/>
<path d="M349.5 600S348 520 387 443.3c0 0-38.9 76.7-32.5 156.7z"/>
<path d="M532.2 600s-1.5-246-94-225.6c0 0 92.5-20.4 98.1 225.6z"/>
<path d="M210.7 600s-1.5-252.6 21.2-252.3c0 0-22.7-.3-13.5 252.3z"/>
<path d="M534.3 600s-1.5-359.8 196-305.6c0 0-197.5-54.2-190 305.6z"/>
<path d="M279.2 600S277.7 183.5 484 234.8c0 0-206.3-51.3-200.3 365.2z"/>
<path d="M565.2 600s-1.5-119.3 56.8-233c0 0-58.3 113.7-52 233z"/>
<path d="M324.5 600s-1.5-157.8-21.7-155.6c0 0 20.2-2.2 26 155.6z"/>
<path d="M902.1 600s-1.5-200.2-124-378.6c0 0 122.5 178.4 130.5 378.6z"/>
<path d="M200.4 600s-1.5-267.9-77.7-254.3c0 0 76.2-13.6 84.3 254.3z"/>
<path d="M680.5 600S679 500.5 639 406.3c0 0 40 94.2 45.7 193.7z"/>
<path d="M762.6 600s-1.5-226.8 12-226.7c0 0-13.5-.1-6.5 226.7z"/>
<path d="M341.6 600s-1.5-152.4 115.1-284.9c0 0-116.6 132.5-108.2 284.9z"/>
<path d="M938 600s-1.5-145.5 148.4-253.2c0 0-149.9 107.7-143.4 253.2z"/>
<path d="M383.5 600s-1.5-448.6-197-400.2c0 0 195.5-48.4 202.8 400.2z"/>
<path d="M478.3 600s-1.5-225.6 140.3-179.8c0 0-141.8-45.8-136.2 179.8z"/>
<path d="M301.3 600s-1.5-142.8-157.2-234.3c0 0 155.7 91.5 163.3 234.3z"/>
<path d="M794.9 600s-1.5-214 9.7-214c0 0-11.2 0-5.2 214z"/>
<path d="M901.1 600s-1.5-173 209.6-279.8c0 0-211 106.8-203.7 279.8z"/>
<path d="M829 600s-1.5-323.6-178.6-265c0 0 177-58.6 185.8 265z"/>
<path d="M980.2 600s-1.5-203.4-81.4-397.1c0 0 79.9 193.7 88 397.1z"/>
<path d="M569 600s-1.5-166.6-21.3-332c0 0 19.8 165.4 27.8 332z"/>
<path d="M702.3 600s-1.5-182.3-157.8-325c0 0 156.3 142.7 165.5 325z"/>
<path d="M586.4 600s-1.5-157.2-78.2-302.9c0 0 76.7 145.7 84.7 302.9z"/>
<path d="M898.7 600s-1.5-169.8 114.5-129.8c0 0-116-40-109.4 129.8z"/>
<path d="M672.6 600S671 149.2 518.2 178c0 0 152.9-28.8 158.5 422z"/>
<path d="M915 600s-1.5-323.5 28.4-322.7c0 0-30-.8-21.9 322.7z"/>
<path d="M803.2 600s-1.5-184.1 195.3-314.9c0 0-196.8 130.8-190.8 314.9z"/>
<path d="M719.2 600s-1.5-204.9 35.4-408.7c0 0-37 203.8-30.1 408.7z"/>
<path d="M911.9 600s-1.5-345.5 238.7-254.1c0 0-240.2-91.4-234 254.1z"/>
<path d="M257.2 600s-1.5-103.4 130.2-163.8c0 0-131.7 60.4-126.2 163.8z"/>
<path d="M421.3 600S419.8 376.4 179 227.8c0 0 240.8 148.6 247.7 372.2z"/>
<path d="M259.9 600s-1.5-116.2-22.8-230.5c0 0 21.3 114.3 30.3 230.5z"/>
<path d="M783.2 600S781.7 391.3 977 226.7c0 0-195.3 164.6-186.8 373.3z"/>
<path d="M288.3 600S286.8 448.5 461 346.9c0 0-174.2 101.6-166.5 253.1z"/>
<path d="M957.8 600s-1.5-208.3 8-416.6c0 0-9.5 208.3-3.2 416.6z"/>
<path d="M391.3 600s-1.5-409.7-87.7-398.6c0 0 86.2-11.1 94.8 398.6z"/>
<path d="M913.7 600s-1.5-89.5 104-150.7c0 0-105.5 61.3-96.5 150.7z"/>
<path d="M427 600s-1.5-84.9 3.5-169.8c0 0-5 84.9 2.7 169.8z"/>
</g>
<g id="a12">
<path d="M784 600s-1.5-379.9 97-368.8c0 0-98.5-11-91.1 368.8z"/>
<path d="M716.2 600s-1.5-295-8.7-294.6c0 0 7.2-.4 15.8 294.6z"/>
<path d="M349.5 600s-1.5-80 37.2-156.7c0 0-38.7 76.7-32.3 156.7z"/>
<path d="M532.2 600s-1.5-246-94.4-225.4c0 0 92.9-20.6 98.5 225.4z"/>
<path d="M210.7 600s-1.5-252.6 21.7-252.2c0 0-23.3-.4-14 252.2z"/>
<path d="M534.3 600s-1.5-359.8 195.4-306c0 0-197-53.8-189.4 306z"/>
<path d="M279.2 600s-1.5-416.5 206.1-364.5c0 0-207.6-52-201.6 364.5z"/>
<path d="M565.2 600s-1.5-119.3 56.4-233c0 0-58 113.7-51.6 233z"/>
<path d="M324.5 600s-1.5-157.8-22-155.6c0 0 20.5-2.1 26.3 155.6z"/>
<path d="M902.1 600s-1.5-200.2-124.8-378.3c0 0 123.3 178 131.3 378.3z"/>
<path d="M200.4 600s-1.5-267.9-77.8-254.3c0 0 76.3-13.6 84.4 254.3z"/>
<path d="M680.5 600s-1.5-99.5-41.7-193.7c0 0 40.2 94.2 45.9 193.7z"/>
<path d="M762.6 600s-1.5-226.8 12-226.7c0 0-13.5-.1-6.5 226.7z"/>
<path d="M341.6 600s-1.5-152.4 114.6-285c0 0-116 132.6-107.7 285z"/>
<path d="M938 600s-1.5-145.5 147.8-253.6c0 0-149.3 108-142.8 253.6z"/>
<path d="M383.5 600S382 151.4 185.8 200.2c0 0 196.2-48.8 203.5 399.8z"/>
<path d="M478.3 600s-1.5-225.6 140.2-180c0 0-141.7-45.6-136 180z"/>
<path d="M301.3 600s-1.5-142.8-157.2-234.3c0 0 155.7 91.5 163.3 234.3z"/>
<path d="M794.9 600s-1.5-214 9.2-214c0 0-10.7 0-4.7 214z"/>
<path d="M901.1 600s-1.5-173 209.7-279.7c0 0-211.2 106.7-203.8 279.7z"/>
<path d="M829 600s-1.5-323.6-178-265.5c0 0 176.5-58.1 185.2 265.5z"/>
<path d="M980.2 600s-1.5-203.4-82.2-397c0 0 80.7 193.6 88.8 397z"/>
<path d="M569 600s-1.5-166.6-22.1-332c0 0 20.6 165.4 28.6 332z"/>
<path d="M702.3 600s-1.5-182.3-157.7-325c0 0 156.2 142.7 165.4 325z"/>
<path d="M586.4 600s-1.5-157.2-78.1-302.9c0 0 76.6 145.7 84.6 302.9z"/>
<path d="M898.7 600s-1.5-169.8 114.4-129.9c0 0-115.9-39.9-109.3 129.9z"/>
<path d="M672.6 600S671 149.2 517.9 178.1c0 0 153.2-28.9 158.8 421.9z"/>
<path d="M915 600s-1.5-323.5 29-322.7c0 0-30.5-.8-22.5 322.7z"/>
<path d="M803.2 600s-1.5-184.1 195.5-314.8c0 0-197 130.7-191 314.8z"/>
<path d="M719.2 600s-1.5-204.9 35.5-408.6c0 0-37 203.7-30.2 408.6z"/>
<path d="M911.9 600s-1.5-345.5 238.6-254.3c0 0-240.1-91.2-234 254.3z"/>
<path d="M257.2 600s-1.5-103.4 130.1-163.9c0 0-131.6 60.5-126 163.9z"/>
<path d="M421.3 600S419.8 376.4 179 227.8c0 0 241 148.6 247.8 372.2z"/>
<path d="M259.9 600s-1.5-116.2-22.7-230.5c0 0 21.2 114.3 30.2 230.5z"/>
<path d="M783.2 600s-1.5-208.7 194-373.2c0 0-195.5 164.5-187 373.2z"/>
<path d="M288.3 600S286.8 448.5 461 347c0 0-174.2 101.5-166.5 253z"/>
<path d="M957.8 600s-1.5-208.3 7.8-416.6c0 0-9.3 208.3-3 416.6z"/>
<path d="M391.3 600s-1.5-409.7-88-398.5c0 0 86.5-11.2 95.1 398.5z"/>
<path d="M913.7 600s-1.5-89.5 104.1-150.6c0 0-105.6 61.2-96.5 150.6z"/>
<path d="M427 600s-1.5-84.9 3.4-169.8c0 0-4.9 84.9 2.8 169.8z"/>
</g>
<g id="a13">
<path d="M784 600s-1.5-379.9 97.2-368.7c0 0-98.7-11.2-91.3 368.7z"/>
<path d="M716.2 600s-1.5-295-8.2-294.6c0 0 6.7-.4 15.3 294.6z"/>
<path d="M349.5 600s-1.5-80 37.2-156.7c0 0-38.6 76.7-32.3 156.7z"/>
<path d="M532.2 600s-1.5-246-94.6-225.3c0 0 93-20.7 98.7 225.3z"/>
<path d="M210.7 600s-1.5-252.6 22-252.2c0 0-23.5-.4-14.3 252.2z"/>
<path d="M534.3 600s-1.5-359.8 195.1-306.1c0 0-196.6-53.7-189 306.1z"/>
<path d="M279.2 600s-1.5-416.5 206.7-364.1c0 0-208.2-52.4-202.2 364.1z"/>
<path d="M565.2 600s-1.5-119.3 56.1-233.1c0 0-57.6 113.8-51.3 233.1z"/>
<path d="M324.5 600s-1.5-157.8-22.1-155.5c0 0 20.6-2.3 26.4 155.5z"/>
<path d="M902.1 600s-1.5-200.2-125.2-378.2c0 0 123.7 178 131.7 378.2z"/>
<path d="M200.4 600s-1.5-267.9-77.8-254.2c0 0 76.3-13.7 84.4 254.2z"/>
<path d="M680.5 600s-1.5-99.5-41.7-193.7c0 0 40.2 94.2 45.9 193.7z"/>
<path d="M762.6 600s-1.5-226.8 12-226.7c0 0-13.5-.1-6.5 226.7z"/>
<path d="M341.6 600S340.1 447.6 456 314.8c0 0-115.8 132.8-107.4 285.2z"/>
<path d="M938 600s-1.5-145.5 147.5-253.8c0 0-149 108.3-142.5 253.8z"/>
<path d="M383.5 600S382 151.4 185.4 200.4c0 0 196.6-49 204 399.6z"/>
<path d="M478.3 600s-1.5-225.6 140.1-180c0 0-141.6-45.6-136 180z"/>
<path d="M301.3 600s-1.5-142.8-157.2-234.3c0 0 155.7 91.5 163.3 234.3z"/>
<path d="M794.9 600s-1.5-214 9-214c0 0-10.5 0-4.5 214z"/>
<path d="M901.1 600s-1.5-173 209.8-279.7c0 0-211.3 106.7-203.9 279.7z"/>
<path d="M829 600s-1.5-323.6-177.6-265.7c0 0 176-58 184.8 265.7z"/>
<path d="M980.2 600s-1.5-203.4-82.5-396.9c0 0 81 193.5 89 396.9z"/>
<path d="M569 600s-1.5-166.6-22.5-332c0 0 21 165.4 29 332z"/>
<path d="M702.3 600s-1.5-182.3-157.6-325c0 0 156.1 142.7 165.3 325z"/>
<path d="M586.4 600s-1.5-157.2-78-302.9c0 0 76.5 145.7 84.5 302.9z"/>
<path d="M898.7 600s-1.5-169.8 114.2-130c0 0-115.7-39.8-109.1 130z"/>
<path d="M672.6 600S671 149.2 517.4 178.3c0 0 153.7-29 159.3 421.7z"/>
<path d="M915 600s-1.5-323.5 29.8-322.6c0 0-31.3-.9-23.3 322.6z"/>
<path d="M803.2 600S801.7 415.9 999 285.4c0 0-197.3 130.5-191.3 314.6z"/>
<path d="M719.2 600s-1.5-204.9 35.6-408.6c0 0-37.1 203.7-30.3 408.6z"/>
<path d="M911.9 600s-1.5-345.5 238.3-254.5c0 0-239.8-91-233.6 254.5z"/>
<path d="M257.2 600s-1.5-103.4 130-164c0 0-131.5 60.6-126 164z"/>
<path d="M421.3 600s-1.5-223.6-242.5-372c0 0 241 148.4 248 372z"/>
<path d="M259.9 600s-1.5-116.2-22.6-230.5c0 0 21 114.3 30 230.5z"/>
<path d="M783.2 600s-1.5-208.7 194.3-373c0 0-195.8 164.3-187.3 373z"/>
<path d="M288.3 600S286.8 448.5 461 347c0 0-174.3 101.5-166.6 253z"/>
<path d="M957.8 600s-1.5-208.3 7.4-416.6c0 0-8.9 208.3-2.6 416.6z"/>
<path d="M391.3 600s-1.5-409.7-88.5-398.4c0 0 87-11.3 95.7 398.4z"/>
<path d="M913.7 600s-1.5-89.5 104.3-150.5c0 0-105.8 61-96.8 150.5z"/>
<path d="M427 600s-1.5-84.9 3.3-169.8c0 0-4.8 84.9 3 169.8z"/>
</g>
<g id="a14">
<path d="M784 600s-1.5-379.9 97.6-368.6c0 0-99-11.3-91.7 368.6z"/>
<path d="M716.2 600s-1.5-295-7.4-294.7c0 0 6-.3 14.5 294.7z"/>
<path d="M349.5 600s-1.5-80 37-156.7c0 0-38.5 76.7-32.1 156.7z"/>
<path d="M532.2 600s-1.5-246-94.8-225.2c0 0 93.3-20.8 99 225.2z"/>
<path d="M210.7 600s-1.5-252.6 22.3-252.2c0 0-23.8-.4-14.6 252.2z"/>
<path d="M534.3 600S532.8 240.2 729 293.6c0 0-196.2-53.4-188.7 306.4z"/>
<path d="M279.2 600s-1.5-416.5 207.7-363.6c0 0-209.2-53-203.2 363.6z"/>
<path d="M565.2 600s-1.5-119.3 55.8-233.2c0 0-57.3 113.9-51 233.2z"/>
<path d="M324.5 600s-1.5-157.8-22.3-155.5c0 0 20.8-2.3 26.6 155.5z"/>
<path d="M902.1 600s-1.5-200.2-125.8-378c0 0 124.3 177.8 132.3 378z"/>
<path d="M200.4 600s-1.5-267.9-77.8-254.2c0 0 76.3-13.7 84.4 254.2z"/>
<path d="M680.5 600s-1.5-99.5-41.8-193.7c0 0 40.3 94.2 46 193.7z"/>
<path d="M762.6 600s-1.5-226.8 12.1-226.7c0 0-13.6-.1-6.6 226.7z"/>
<path d="M341.6 600s-1.5-152.4 114-285.3c0 0-115.5 133-107 285.3z"/>
<path d="M938 600s-1.5-145.5 147-254c0 0-148.5 108.5-142 254z"/>
<path d="M383.5 600S382 151.4 184.8 200.7c0 0 197.2-49.3 204.5 399.3z"/>
<path d="M478.3 600s-1.5-225.6 140-180c0 0-141.5-45.6-135.9 180z"/>
<path d="M301.3 600s-1.5-142.8-157.2-234.3c0 0 155.7 91.5 163.3 234.3z"/>
<path d="M794.9 600s-1.5-214 8.8-214c0 0-10.3 0-4.3 214z"/>
<path d="M901.1 600s-1.5-173 209.9-279.6c0 0-211.4 106.6-204 279.6z"/>
<path d="M829 600s-1.5-323.6-177.1-266c0 0 175.6-57.6 184.3 266z"/>
<path d="M980.2 600s-1.5-203.4-83.2-396.7c0 0 81.7 193.3 89.8 396.7z"/>
<path d="M569 600s-1.5-166.6-23.2-331.9c0 0 21.7 165.3 29.7 331.9z"/>
<path d="M702.3 600s-1.5-182.3-157.5-325.1c0 0 156 142.8 165.2 325.1z"/>
<path d="M586.4 600s-1.5-157.2-78-302.9c0 0 76.5 145.7 84.5 302.9z"/>
<path d="M898.7 600s-1.5-169.8 114-130.3c0 0-115.5-39.5-109 130.3z"/>
<path d="M672.6 600S671 149.2 516.9 178.5c0 0 154.2-29.3 159.8 421.5z"/>
<path d="M915 600s-1.5-323.5 31-322.6c0 0-32.5-.9-24.5 322.6z"/>
<path d="M803.2 600s-1.5-184.1 196.2-314.4c0 0-197.7 130.3-191.7 314.4z"/>
<path d="M719.2 600s-1.5-204.9 35.8-408.6c0 0-37.3 203.7-30.5 408.6z"/>
<path d="M911.9 600s-1.5-345.5 237.9-254.9c0 0-239.4-90.6-233.3 254.9z"/>
<path d="M257.2 600S255.7 496.6 387 435.8c0 0-131.3 60.8-125.8 164.2z"/>
<path d="M421.3 600s-1.5-223.6-242.6-372c0 0 241.1 148.4 248 372z"/>
<path d="M259.9 600s-1.5-116.2-22.4-230.6c0 0 20.9 114.4 29.9 230.6z"/>
<path d="M783.2 600s-1.5-208.7 194.7-372.8c0 0-196.2 164-187.7 372.8z"/>
<path d="M288.3 600s-1.5-151.5 173-253c0 0-174.5 101.5-166.8 253z"/>
<path d="M957.8 600s-1.5-208.3 7-416.6c0 0-8.5 208.3-2.2 416.6z"/>
<path d="M391.3 600s-1.5-409.7-89.2-398.2c0 0 87.7-11.5 96.3 398.2z"/>
<path d="M913.7 600s-1.5-89.5 104.6-150.3c0 0-106.1 60.9-97 150.3z"/>
<path d="M427 600s-1.5-84.9 3.1-169.8c0 0-4.6 84.9 3.1 169.8z"/>
</g>
<g id="a15">
<path d="M784 600s-1.5-379.9 98.2-368.5c0 0-99.7-11.4-92.3 368.5z"/>
<path d="M716.2 600s-1.5-295-6.4-294.7c0 0 5-.3 13.5 294.7z"/>
<path d="M349.5 600s-1.5-80 36.9-156.8c0 0-38.4 76.8-32 156.8z"/>
<path d="M532.2 600s-1.5-246-95.1-225c0 0 93.6-21 99.2 225z"/>
<path d="M210.7 600s-1.5-252.6 22.8-252.2c0 0-24.3-.4-15.1 252.2z"/>
<path d="M534.3 600s-1.5-359.8 194.2-306.7c0 0-195.7-53.1-188.2 306.7z"/>
<path d="M279.2 600s-1.5-416.5 208.9-363c0 0-210.4-53.5-204.4 363z"/>
<path d="M565.2 600s-1.5-119.3 55.4-233.3c0 0-57 114-50.6 233.3z"/>
<path d="M324.5 600s-1.5-157.8-22.6-155.4c0 0 21-2.4 27 155.4z"/>
<path d="M902.1 600s-1.5-200.2-126.4-377.8c0 0 124.9 177.6 132.9 377.8z"/>
<path d="M200.4 600s-1.5-267.9-77.8-254.2c0 0 76.3-13.7 84.4 254.2z"/>
<path d="M680.5 600s-1.5-99.5-42-193.7c0 0 40.5 94.2 46.2 193.7z"/>
<path d="M762.6 600s-1.5-226.8 12.2-226.7c0 0-13.7-.1-6.7 226.7z"/>
<path d="M341.6 600S340.1 447.6 455 314.5c0 0-114.9 133.1-106.5 285.5z"/>
<path d="M938 600s-1.5-145.5 146.5-254.3c0 0-148 108.8-141.5 254.3z"/>
<path d="M383.5 600S382 151.4 184 201c0 0 197.9-49.6 205.2 399z"/>
<path d="M478.3 600s-1.5-225.6 140-180.2c0 0-141.5-45.4-135.9 180.2z"/>
<path d="M301.3 600s-1.5-142.8-157.2-234.3c0 0 155.7 91.5 163.3 234.3z"/>
<path d="M794.9 600s-1.5-214 8.4-214c0 0-10 0-4 214z"/>
<path d="M901.1 600s-1.5-173 210-279.5c0 0-211.5 106.5-204 279.5z"/>
<path d="M829 600s-1.5-323.6-176.5-266.4c0 0 175-57.2 183.7 266.4z"/>
<path d="M980.2 600s-1.5-203.4-83.9-396.6c0 0 82.4 193.2 90.5 396.6z"/>
<path d="M569 600s-1.5-166.6-24-331.8c0 0 22.5 165.2 30.5 331.8z"/>
<path d="M702.3 600S700.8 417.7 545 274.8c0 0 156 142.9 165.1 325.2z"/>
<path d="M586.4 600s-1.5-157.2-77.9-303c0 0 76.4 145.8 84.4 303z"/>
<path d="M898.7 600s-1.5-169.8 113.7-130.5c0 0-115.2-39.3-108.6 130.5z"/>
<path d="M672.6 600S671 149.2 516.3 178.7c0 0 154.8-29.4 160.4 421.3z"/>
<path d="M915 600s-1.5-323.5 32.1-322.4c0 0-33.6-1-25.6 322.4z"/>
<path d="M803.2 600s-1.5-184.1 196.6-314.1c0 0-198.1 130-192.1 314.1z"/>
<path d="M719.2 600s-1.5-204.9 36-408.6c0 0-37.5 203.7-30.7 408.6z"/>
<path d="M911.9 600s-1.5-345.5 237.4-255.3c0 0-239-90.2-232.8 255.3z"/>
<path d="M257.2 600s-1.5-103.4 129.5-164.3c0 0-131 61-125.5 164.3z"/>
<path d="M421.3 600s-1.5-223.6-242.8-371.9c0 0 241.3 148.3 248.2 371.9z"/>
<path d="M259.9 600s-1.5-116.2-22.3-230.6c0 0 20.8 114.4 29.8 230.6z"/>
<path d="M783.2 600s-1.5-208.7 195.2-372.6c0 0-196.7 163.9-188.2 372.6z"/>
<path d="M288.3 600s-1.5-151.5 173-252.8c0 0-174.5 101.3-166.8 252.8z"/>
<path d="M957.8 600s-1.5-208.3 6.6-416.6c0 0-8 208.3-1.8 416.6z"/>
<path d="M391.3 600s-1.5-409.7-90-398c0 0 88.5-11.7 97.1 398z"/>
<path d="M913.7 600s-1.5-89.5 105-150c0 0-106.5 60.5-97.5 150z"/>
<path d="M427 600s-1.5-84.9 3-169.8c0 0-4.5 84.9 3.2 169.8z"/>
</g>
<g id="a16">
<path d="M784 600s-1.5-379.9 98.8-368.3c0 0-100.3-11.6-93 368.3z"/>
<path d="M716.2 600s-1.5-295-5.2-294.8c0 0 3.7-.2 12.3 294.8z"/>
<path d="M349.5 600s-1.5-80 36.7-156.8c0 0-38.2 76.8-31.8 156.8z"/>
<path d="M532.2 600s-1.5-246-95.5-225c0 0 94-21 99.6 225z"/>
<path d="M210.7 600s-1.5-252.6 23.4-252.1c0 0-25-.5-15.7 252.1z"/>
<path d="M534.3 600S532.8 240.2 728 293c0 0-195.2-52.8-187.7 307z"/>
<path d="M279.2 600s-1.5-416.5 210.3-362.2c0 0-211.8-54.3-205.8 362.2z"/>
<path d="M565.2 600s-1.5-119.3 54.8-233.4c0 0-56.3 114-50 233.4z"/>
<path d="M324.5 600s-1.5-157.8-23-155.4c0 0 21.5-2.4 27.3 155.4z"/>
<path d="M902.1 600s-1.5-200.2-127.2-377.5c0 0 125.7 177.3 133.7 377.5z"/>
<path d="M200.4 600s-1.5-267.9-77.8-254.2c0 0 76.3-13.7 84.4 254.2z"/>
<path d="M680.5 600s-1.5-99.5-42-193.6c0 0 40.5 94 46.2 193.6z"/>
<path d="M762.6 600s-1.5-226.8 12.2-226.7c0 0-13.7-.1-6.7 226.7z"/>
<path d="M341.6 600s-1.5-152.4 112.8-285.8c0 0-114.3 133.4-105.9 285.8z"/>
<path d="M938 600s-1.5-145.5 145.8-254.7c0 0-147.3 109.2-140.8 254.7z"/>
<path d="M383.5 600S382 151.4 183.4 201.4c0 0 198.6-50 206 398.6z"/>
<path d="M478.3 600S476.8 374.4 618 419.8c0 0-141.3-45.4-135.7 180.2z"/>
<path d="M301.3 600s-1.5-142.8-157.2-234.3c0 0 155.7 91.5 163.3 234.3z"/>
<path d="M794.9 600s-1.5-214 8-214c0 0-9.5 0-3.5 214z"/>
<path d="M901.1 600s-1.5-173 210.2-279.3c0 0-211.7 106.3-204.3 279.3z"/>
<path d="M829 600s-1.5-323.6-175.8-267c0 0 174.3-56.6 183 267z"/>
<path d="M980.2 600s-1.5-203.4-84.8-396.4c0 0 83.3 193 91.4 396.4z"/>
<path d="M569 600s-1.5-166.6-24.9-331.8c0 0 23.4 165.2 31.4 331.8z"/>
<path d="M702.3 600s-1.5-182.3-157.2-325.3c0 0 155.7 143 164.9 325.3z"/>
<path d="M586.4 600s-1.5-157.2-77.7-303c0 0 76.2 145.8 84.2 303z"/>
<path d="M898.7 600s-1.5-169.8 113.5-130.6c0 0-115-39.2-108.4 130.6z"/>
<path d="M672.6 600S671 149.2 516 178.8c0 0 155-29.6 160.6 421.2z"/>
<path d="M915 600s-1.5-323.5 32.7-322.4c0 0-34.2-1-26.2 322.4z"/>
<path d="M803.2 600s-1.5-184.1 196.7-314c0 0-198.2 129.9-192.2 314z"/>
<path d="M719.2 600s-1.5-204.9 36.1-408.6c0 0-37.6 203.7-30.8 408.6z"/>
<path d="M911.9 600s-1.5-345.5 237.2-255.5c0 0-238.8-90-232.6 255.5z"/>
<path d="M257.2 600s-1.5-103.4 129.4-164.4c0 0-130.9 61-125.4 164.4z"/>
<path d="M421.3 600s-1.5-223.6-242.8-371.9c0 0 241.3 148.3 248.2 371.9z"/>
<path d="M259.9 600s-1.5-116.2-22.3-230.6c0 0 20.8 114.4 29.8 230.6z"/>
<path d="M783.2 600s-1.5-208.7 195.4-372.4c0 0-196.9 163.7-188.4 372.4z"/>
<path d="M288.3 600s-1.5-151.5 173.1-252.8c0 0-174.6 101.3-166.9 252.8z"/>
<path d="M957.8 600s-1.5-208.3 6.4-416.6c0 0-7.9 208.3-1.6 416.6z"/>
<path d="M391.3 600s-1.5-409.7-90.3-398c0 0 88.8-11.7 97.4 398z"/>
<path d="M913.7 600s-1.5-89.5 105.1-150c0 0-106.6 60.5-97.5 150z"/>
<path d="M427 600s-1.5-84.9 2.8-169.8c0 0-4.3 84.9 3.4 169.8z"/>
</g>
<g id="a17">
<path d="M784 600s-1.5-379.9 99.1-368.2c0 0-100.6-11.7-93.2 368.2z"/>
<path d="M716.2 600s-1.5-295-4.7-294.8c0 0 3.2-.2 11.8 294.8z"/>
<path d="M349.5 600s-1.5-80 36.6-156.8c0 0-38 76.8-31.7 156.8z"/>
<path d="M532.2 600s-1.5-246-95.6-224.9c0 0 94-21 99.7 224.9z"/>
<path d="M210.7 600s-1.5-252.6 23.7-252.1c0 0-25.3-.5-16 252.1z"/>
<path d="M534.3 600s-1.5-359.8 193.5-307.1c0 0-195-52.7-187.5 307.1z"/>
<path d="M279.2 600S277.7 183.5 490 238.2c0 0-212.3-54.7-206.3 361.8z"/>
<path d="M565.2 600s-1.5-119.3 54.6-233.4c0 0-56.1 114-49.8 233.4z"/>
<path d="M324.5 600s-1.5-157.8-23-155.4c0 0 21.5-2.4 27.3 155.4z"/>
<path d="M902.1 600s-1.5-200.2-127.5-377.4c0 0 126 177.2 134 377.4z"/>
<path d="M200.4 600s-1.5-267.9-77.8-254.2c0 0 76.3-13.7 84.4 254.2z"/>
<path d="M680.5 600s-1.5-99.5-42-193.6c0 0 40.5 94 46.2 193.6z"/>
<path d="M762.6 600s-1.5-226.8 12.3-226.7c0 0-13.8-.1-6.8 226.7z"/>
<path d="M341.6 600s-1.5-152.4 112.5-285.9c0 0-114 133.5-105.6 285.9z"/>
<path d="M938 600s-1.5-145.5 145.6-254.8c0 0-147 109.3-140.6 254.8z"/>
<path d="M383.5 600S382 151.4 183 201.6c0 0 198.9-50.2 206.2 398.4z"/>
<path d="M478.3 600S476.8 374.4 618 419.7c0 0-141.3-45.3-135.7 180.3z"/>
<path d="M301.3 600s-1.5-142.8-157.1-234.3c0 0 155.6 91.5 163.2 234.3z"/>
<path d="M794.9 600s-1.5-214 7.9-214c0 0-9.4 0-3.4 214z"/>
<path d="M901.1 600s-1.5-173 210.3-279.3c0 0-211.8 106.3-204.4 279.3z"/>
<path d="M829 600s-1.5-323.6-175.5-267.1c0 0 174-56.5 182.7 267.1z"/>
<path d="M980.2 600s-1.5-203.4-85.1-396.3c0 0 83.6 193 91.7 396.3z"/>
<path d="M569 600s-1.5-166.6-25.2-331.7c0 0 23.7 165 31.7 331.7z"/>
<path d="M702.3 600s-1.5-182.3-157-325.3c0 0 155.5 143 164.7 325.3z"/>
<path d="M586.4 600s-1.5-157.2-77.6-303c0 0 76.1 145.8 84 303z"/>
<path d="M898.7 600s-1.5-169.8 113.4-130.7c0 0-115-39-108.3 130.7z"/>
<path d="M672.6 600s-1.5-450.8-157-421c0 0 155.5-29.8 161 421z"/>
<path d="M915 600s-1.5-323.5 33.5-322.3c0 0-35-1.2-27 322.3z"/>
<path d="M803.2 600s-1.5-184.1 197-313.9c0 0-198.5 129.8-192.5 313.9z"/>
<path d="M719.2 600s-1.5-204.9 36.3-408.6c0 0-37.8 203.7-31 408.6z"/>
<path d="M911.9 600s-1.5-345.5 237-255.8c0 0-238.6-89.7-232.4 255.8z"/>
<path d="M257.2 600s-1.5-103.4 129.3-164.5c0 0-130.8 61.1-125.3 164.5z"/>
<path d="M421.3 600s-1.5-223.6-242.9-371.8c0 0 241.4 148.2 248.3 371.8z"/>
<path d="M259.9 600s-1.5-116.2-22.2-230.6c0 0 20.7 114.4 29.7 230.6z"/>
<path d="M783.2 600S781.7 391.3 979 227.8c0 0-197.3 163.5-188.8 372.2z"/>
<path d="M288.3 600s-1.5-151.5 173.3-252.7c0 0-174.8 101.2-167 252.7z"/>
<path d="M957.8 600s-1.5-208.3 6.2-416.6c0 0-7.7 208.3-1.4 416.6z"/>
<path d="M391.3 600s-1.5-409.7-90.8-397.9c0 0 89.3-11.8 98 397.9z"/>
<path d="M913.7 600s-1.5-89.5 105.3-149.8c0 0-106.8 60.4-97.8 149.8z"/>
<path d="M427 600s-1.5-84.9 2.7-169.8c0 0-4.2 84.9 3.5 169.8z"/>
</g>
<g id="a18">
<path d="M784 600s-1.5-379.9 99.6-368.1c0 0-101-11.8-93.7 368.1z"/>
<path d="M716.2 600s-1.5-295-4-294.8c0 0 2.5-.2 11 294.8z"/>
<path d="M349.5 600S348 520 386 443.2c0 0-38 76.8-31.6 156.8z"/>
<path d="M532.2 600s-1.5-246-95.9-224.8c0 0 94.4-21.2 100 224.8z"/>
<path d="M210.7 600s-1.5-252.6 24.1-252.1c0 0-25.6-.5-16.4 252.1z"/>
<path d="M534.3 600s-1.5-359.8 193-307.4c0 0-194.5-52.4-187 307.4z"/>
<path d="M279.2 600S277.7 183.5 491 238.7c0 0-213.3-55.2-207.3 361.3z"/>
<path d="M565.2 600s-1.5-119.3 54.3-233.5c0 0-55.8 114.2-49.5 233.5z"/>
<path d="M324.5 600s-1.5-157.8-23.3-155.3c0 0 21.8-2.5 27.6 155.3z"/>
<path d="M902.1 600s-1.5-200.2-128-377.2c0 0 126.5 177 134.5 377.2z"/>
<path d="M200.4 600s-1.5-267.9-77.8-254.3c0 0 76.3-13.6 84.4 254.3z"/>
<path d="M680.5 600s-1.5-99.5-42.1-193.6c0 0 40.6 94 46.3 193.6z"/>
<path d="M762.6 600s-1.5-226.8 12.3-226.7c0 0-13.8-.1-6.8 226.7z"/>
<path d="M341.6 600s-1.5-152.4 112.1-286c0 0-113.6 133.6-105.2 286z"/>
<path d="M938 600s-1.5-145.5 145.2-255c0 0-146.7 109.5-140.2 255z"/>
<path d="M383.5 600s-1.5-448.6-201-398.1c0 0 199.5-50.5 206.8 398.1z"/>
<path d="M478.3 600S476.8 374.4 618 419.7c0 0-141.3-45.3-135.7 180.3z"/>
<path d="M301.3 600s-1.5-142.8-157-234.4c0 0 155.5 91.6 163 234.4z"/>
<path d="M794.9 600s-1.5-214 7.6-214c0 0-9.1 0-3.1 214z"/>
<path d="M901.1 600s-1.5-173 210.5-279.1c0 0-212 106-204.6 279.1z"/>
<path d="M829 600s-1.5-323.6-175-267.5c0 0 173.5-56.1 182.2 267.5z"/>
<path d="M980.2 600s-1.5-203.4-85.7-396.1c0 0 84.2 192.7 92.3 396.1z"/>
<path d="M569 600s-1.5-166.6-25.8-331.7c0 0 24.3 165 32.3 331.7z"/>
<path d="M702.3 600s-1.5-182.3-156.9-325.4c0 0 155.4 143 164.6 325.4z"/>
<path d="M586.4 600S585 442.8 509 297c0 0 76 145.8 84 303z"/>
<path d="M898.7 600s-1.5-169.8 113-131c0 0-114.5-38.8-108 131z"/>
<path d="M672.6 600S671 149.2 515 179.2c0 0 156-30 161.6 420.8z"/>
<path d="M915 600s-1.5-323.5 34.7-322.2c0 0-36.2-1.3-28.2 322.2z"/>
<path d="M803.2 600s-1.5-184.1 197.3-313.7c0 0-198.8 129.6-192.8 313.7z"/>
<path d="M719.2 600s-1.5-204.9 36.7-408.6c0 0-38.2 203.7-31.4 408.6z"/>
<path d="M911.9 600s-1.5-345.5 236.4-256.2c0 0-238-89.3-231.8 256.2z"/>
<path d="M257.2 600s-1.5-103.4 129-164.7c0 0-130.5 61.3-125 164.7z"/>
<path d="M421.3 600s-1.5-223.6-243-371.8c0 0 241.5 148.2 248.4 371.8z"/>
<path d="M259.9 600s-1.5-116.2-22.1-230.6c0 0 20.6 114.4 29.6 230.6z"/>
<path d="M783.2 600s-1.5-208.7 196.5-372c0 0-198 163.3-189.5 372z"/>
<path d="M288.3 600s-1.5-151.5 173.5-252.6c0 0-175 101.1-167.3 252.6z"/>
<path d="M957.8 600s-1.5-208.3 5.8-416.6c0 0-7.3 208.3-1 416.6z"/>
<path d="M391.3 600s-1.5-409.7-91.6-397.6c0 0 90-12.1 98.7 397.6z"/>
<path d="M913.7 600s-1.5-89.5 105.7-149.6c0 0-107.2 60.1-98.2 149.6z"/>
<path d="M427 600s-1.5-84.9 2.5-169.8c0 0-4 84.9 3.7 169.8z"/>
</g>
<g id="a19">
<path d="M784 600s-1.5-379.9 100.4-368c0 0-101.8-11.9-94.5 368z"/>
<path d="M716.2 600s-1.5-295-2.7-294.9c0 0 1.2-.1 9.8 294.9z"/>
<path d="M349.5 600S348 520 386 443.1c0 0-37.9 76.9-31.5 156.9z"/>
<path d="M532.2 600s-1.5-246-96.2-224.6c0 0 94.7-21.4 100.3 224.6z"/>
<path d="M210.7 600s-1.5-252.6 24.8-252c0 0-26.4-.6-17.1 252z"/>
<path d="M534.3 600s-1.5-359.8 192.6-307.7c0 0-194.1-52.1-186.6 307.7z"/>
<path d="M279.2 600s-1.5-416.5 213.1-360.5c0 0-214.6-56-208.6 360.5z"/>
<path d="M565.2 600s-1.5-119.3 53.7-233.6c0 0-55.2 114.3-48.9 233.6z"/>
<path d="M324.5 600s-1.5-157.8-23.6-155.3c0 0 22-2.5 28 155.3z"/>
<path d="M902.1 600s-1.5-200.2-128.7-377c0 0 127.2 176.8 135.2 377z"/>
<path d="M200.4 600s-1.5-267.9-77.7-254.3c0 0 76.2-13.6 84.3 254.3z"/>
<path d="M680.5 600s-1.5-99.5-42.2-193.6c0 0 40.7 94 46.4 193.6z"/>
<path d="M762.6 600s-1.5-226.8 12.4-226.7c0 0-13.9-.1-6.9 226.7z"/>
<path d="M341.6 600S340.1 447.6 453 313.7c0 0-112.9 134-104.5 286.3z"/>
<path d="M938 600s-1.5-145.5 144.5-255.4c0 0-146 109.9-139.5 255.4z"/>
<path d="M383.5 600S382 151.4 181.9 202.2c0 0 200-50.8 207.4 397.8z"/>
<path d="M478.3 600S476.8 374.4 618 419.7c0 0-141.2-45.3-135.6 180.3z"/>
<path d="M301.3 600s-1.5-142.8-157-234.4c0 0 155.5 91.6 163 234.4z"/>
<path d="M794.9 600s-1.5-214 7.3-214c0 0-8.8 0-2.8 214z"/>
<path d="M901.1 600s-1.5-173 210.7-279c0 0-212.2 106-204.8 279z"/>
<path d="M829 600s-1.5-323.6-174.3-268c0 0 172.8-55.6 181.5 268z"/>
<path d="M980.2 600s-1.5-203.4-86.6-396c0 0 85 192.6 93.2 396z"/>
<path d="M569 600s-1.5-166.6-26.7-331.6c0 0 25.2 165 33.2 331.6z"/>
<path d="M702.3 600s-1.5-182.3-156.6-325.6c0 0 155.1 143.3 164.3 325.6z"/>
<path d="M586.4 600s-1.5-157.2-77.3-303.1c0 0 75.8 145.9 83.8 303.1z"/>
<path d="M898.7 600s-1.5-169.8 112.9-131.2c0 0-114.4-38.6-107.8 131.2z"/>
<path d="M672.6 600s-1.5-450.8-158-420.6c0 0 156.5-30.2 162 420.6z"/>
<path d="M915 600s-1.5-323.5 35.7-322.1c0 0-37.2-1.4-29.2 322.1z"/>
<path d="M803.2 600s-1.5-184.1 197.5-313.5c0 0-199 129.4-193 313.5z"/>
<path d="M719.2 600s-1.5-204.9 37-408.5c0 0-38.5 203.6-31.7 408.5z"/>
<path d="M911.9 600s-1.5-345.5 236-256.6c0 0-237.6-88.9-231.4 256.6z"/>
<path d="M257.2 600S255.7 496.6 386 435.1c0 0-130.3 61.5-124.8 164.9z"/>
<path d="M421.3 600s-1.5-223.6-243-371.8c0 0 241.5 148.2 248.4 371.8z"/>
<path d="M259.9 600s-1.5-116.2-22-230.6c0 0 20.5 114.4 29.5 230.6z"/>
<path d="M783.2 600s-1.5-208.7 197-371.6c0 0-198.5 162.9-190 371.6z"/>
<path d="M288.3 600s-1.5-151.5 173.6-252.5c0 0-175.1 101-167.4 252.5z"/>
<path d="M957.8 600s-1.5-208.3 5.6-416.6c0 0-7 208.3-.8 416.6z"/>
<path d="M391.3 600s-1.5-409.7-92.3-397.5c0 0 90.8-12.2 99.4 397.5z"/>
<path d="M913.7 600s-1.5-89.5 106-149.3c0 0-107.5 59.8-98.5 149.3z"/>
<path d="M427 600s-1.5-84.9 2.4-169.8c0 0-3.9 84.9 3.8 169.8z"/>
</g>
<g id="a20">
<path d="M784 600s-1.5-379.9 101.1-367.7c0 0-102.6-12.2-95.2 367.7z"/>
<path d="M716.2 600s-1.5-295-1.6-294.9c0 0 .1-.1 8.7 294.9z"/>
<path d="M349.5 600s-1.5-80 36.3-156.9c0 0-37.8 76.9-31.5 156.9z"/>
<path d="M532.2 600s-1.5-246-96.5-224.5c0 0 95-21.5 100.6 224.5z"/>
<path d="M210.7 600s-1.5-252.6 25.4-252c0 0-27-.6-17.7 252z"/>
<path d="M534.3 600s-1.5-359.8 192.1-308c0 0-193.6-51.8-186 308z"/>
<path d="M279.2 600s-1.5-416.5 214.3-359.8c0 0-215.8-56.7-209.8 359.8z"/>
<path d="M565.2 600s-1.5-119.3 53.3-233.7c0 0-54.8 114.4-48.5 233.7z"/>
<path d="M324.5 600s-1.5-157.8-24-155.2c0 0 22.5-2.6 28.3 155.2z"/>
<path d="M902.1 600s-1.5-200.2-129.2-376.8c0 0 127.7 176.6 135.7 376.8z"/>
<path d="M200.4 600s-1.5-267.9-77.5-254.3c0 0 76-13.6 84.1 254.3z"/>
<path d="M680.5 600s-1.5-99.5-42.2-193.6c0 0 40.7 94 46.4 193.6z"/>
<path d="M762.6 600s-1.5-226.8 12.5-226.7c0 0-14-.1-7 226.7z"/>
<path d="M341.6 600s-1.5-152.4 110.8-286.5c0 0-112.3 134.1-103.9 286.5z"/>
<path d="M938 600s-1.5-145.5 144-255.7c0 0-145.5 110.2-139 255.7z"/>
<path d="M383.5 600S382 151.4 181.3 202.5c0 0 200.7-51.1 208 397.5z"/>
<path d="M478.3 600S476.8 374.4 618 419.6c0 0-141.2-45.2-135.6 180.4z"/>
<path d="M301.3 600s-1.5-142.8-156.9-234.5c0 0 155.4 91.7 163 234.5z"/>
<path d="M794.9 600s-1.5-214 7-214c0 0-8.5 0-2.5 214z"/>
<path d="M901.1 600s-1.5-173 211-278.8c0 0-212.5 105.8-205 278.8z"/>
<path d="M829 600s-1.5-323.6-173.7-268.4c0 0 172.2-55.2 180.9 268.4z"/>
<path d="M980.2 600s-1.5-203.4-87.4-395.8c0 0 85.9 192.4 94 395.8z"/>
<path d="M569 600s-1.5-166.6-27.5-331.5c0 0 26 164.9 34 331.5z"/>
<path d="M702.3 600S700.8 417.7 546 274.3c0 0 155 143.4 164.1 325.7z"/>
<path d="M586.4 600s-1.5-157.2-77-303.2c0 0 75.5 146 83.5 303.2z"/>
<path d="M898.7 600s-1.5-169.8 112.8-131.3c0 0-114.3-38.4-107.7 131.3z"/>
<path d="M672.6 600S671 149.2 514.5 179.4c0 0 156.6-30.2 162.2 420.6z"/>
<path d="M915 600s-1.5-323.5 36.2-322.1c0 0-37.7-1.4-29.7 322.1z"/>
<path d="M803.2 600s-1.5-184.1 197.6-313.5c0 0-199.1 129.4-193.1 313.5z"/>
<path d="M719.2 600s-1.5-204.9 37.1-408.5c0 0-38.7 203.6-31.8 408.5z"/>
<path d="M911.9 600s-1.5-345.5 235.7-256.8c0 0-237.3-88.7-231 256.8z"/>
<path d="M257.2 600s-1.5-103.4 128.7-165c0 0-130.2 61.6-124.7 165z"/>
<path d="M421.3 600s-1.5-223.6-243-371.8c0 0 241.5 148.2 248.4 371.8z"/>
<path d="M259.9 600s-1.5-116.2-22-230.6c0 0 20.5 114.4 29.5 230.6z"/>
<path d="M783.2 600s-1.5-208.7 197.3-371.5c0 0-198.8 162.8-190.3 371.5z"/>
<path d="M288.3 600S286.8 448.5 462 347.6c0 0-175.2 101-167.5 252.4z"/>
<path d="M957.8 600s-1.5-208.3 5.5-416.6c0 0-7 208.3-.7 416.6z"/>
<path d="M391.3 600s-1.5-409.7-92.6-397.4c0 0 91-12.3 99.8 397.4z"/>
<path d="M913.7 600s-1.5-89.5 106.2-149.2c0 0-107.7 59.7-98.7 149.2z"/>
<path d="M427 600s-1.5-84.9 2.3-169.8c0 0-3.8 84.9 4 169.8z"/>
</g>
<g id="a21">
<path d="M784 600s-1.5-379.9 101.4-367.6c0 0-102.9-12.3-95.5 367.6z"/>
<path d="M716.2 600s-1.5-295-1-295c0 0-.5 0 8 295z"/>
<path d="M349.5 600s-1.5-80 36.2-156.9c0 0-37.7 76.9-31.3 156.9z"/>
<path d="M532.2 600s-1.5-246-96.6-224.4c0 0 95-21.6 100.7 224.4z"/>
<path d="M210.7 600s-1.5-252.6 25.6-252c0 0-27.2-.6-17.9 252z"/>
<path d="M534.3 600s-1.5-359.8 192-308c0 0-193.5-51.8-186 308z"/>
<path d="M279.2 600S277.7 183.5 494 240.5c0 0-216.3-57-210.3 359.5z"/>
<path d="M565.2 600s-1.5-119.3 53-233.8c0 0-54.5 114.5-48.2 233.8z"/>
<path d="M324.5 600s-1.5-157.8-24.1-155.2c0 0 22.6-2.6 28.4 155.2z"/>
<path d="M902.1 600s-1.5-200.2-129.5-376.7c0 0 128 176.5 136 376.7z"/>
<path d="M200.4 600s-1.5-267.9-77.5-254.3c0 0 76-13.6 84.1 254.3z"/>
<path d="M680.5 600s-1.5-99.5-42.3-193.6c0 0 40.8 94 46.5 193.6z"/>
<path d="M762.6 600s-1.5-226.8 12.6-226.7c0 0-14-.1-7 226.7z"/>
<path d="M341.6 600s-1.5-152.4 110.6-286.6c0 0-112 134.2-103.7 286.6z"/>
<path d="M938 600s-1.5-145.5 143.8-255.8c0 0-145.3 110.3-138.8 255.8z"/>
<path d="M383.5 600S382 151.4 181 202.6c0 0 200.9-51.2 208.2 397.4z"/>
<path d="M478.3 600S476.8 374.4 618 419.6c0 0-141.2-45.2-135.6 180.4z"/>
<path d="M301.3 600s-1.5-142.8-156.8-234.5c0 0 155.3 91.7 162.8 234.5z"/>
<path d="M794.9 600s-1.5-214 6.8-214c0 0-8.3 0-2.3 214z"/>
<path d="M901.1 600s-1.5-173 211-278.7c0 0-212.5 105.7-205 278.7z"/>
<path d="M829 600s-1.5-323.6-173.4-268.6c0 0 171.9-55 180.6 268.6z"/>
<path d="M980.2 600s-1.5-203.4-87.8-395.7c0 0 86.3 192.3 94.4 395.7z"/>
<path d="M569 600s-1.5-166.6-27.8-331.5c0 0 26.3 164.9 34.3 331.5z"/>
<path d="M702.3 600s-1.5-182.3-156.2-325.8c0 0 154.7 143.5 163.9 325.8z"/>
<path d="M586.4 600s-1.5-157.2-77-303.2c0 0 75.5 146 83.5 303.2z"/>
<path d="M898.7 600s-1.5-169.8 112.5-131.4c0 0-114-38.4-107.4 131.4z"/>
<path d="M672.6 600S671 149.2 514 179.6c0 0 157-30.4 162.6 420.4z"/>
<path d="M915 600s-1.5-323.5 37.1-322c0 0-38.6-1.5-30.6 322z"/>
<path d="M803.2 600s-1.5-184.1 197.8-313.4c0 0-199.3 129.3-193.3 313.4z"/>
<path d="M719.2 600s-1.5-204.9 37.5-408.5c0 0-39 203.6-32.2 408.5z"/>
<path d="M911.9 600s-1.5-345.5 235.3-257.2c0 0-236.8-88.3-230.7 257.2z"/>
<path d="M257.2 600s-1.5-103.4 128.5-165.1c0 0-130 61.7-124.5 165.1z"/>
<path d="M421.3 600s-1.5-223.6-242.9-371.8c0 0 241.4 148.2 248.3 371.8z"/>
<path d="M259.9 600s-1.5-116.2-22-230.6c0 0 20.5 114.4 29.5 230.6z"/>
<path d="M783.2 600s-1.5-208.7 198-371.2c0 0-199.5 162.5-191 371.2z"/>
<path d="M288.3 600s-1.5-151.5 174-252.3c0 0-175.5 100.8-167.8 252.3z"/>
<path d="M957.8 600s-1.5-208.3 5.3-416.6c0 0-6.8 208.3-.5 416.6z"/>
<path d="M391.3 600s-1.5-409.7-93.2-397.3c0 0 91.7-12.4 100.3 397.3z"/>
<path d="M913.7 600s-1.5-89.5 106.6-149c0 0-108.1 59.5-99 149z"/>
<path d="M427 600s-1.5-84.9 2.2-169.8c0 0-3.7 84.9 4 169.8z"/>
</g>
<g id="a22">
<path d="M784 600s-1.5-379.9 102.2-367.4c0 0-103.7-12.4-96.3 367.4z"/>
<path d="M716.2 600s-1.5-295 0-295c0 0-1.5 0 7 295z"/>
<path d="M349.5 600s-1.5-80 36-157c0 0-37.5 77-31.1 157z"/>
<path d="M532.2 600s-1.5-246-96.9-224.3c0 0 95.4-21.7 101 224.3z"/>
<path d="M210.7 600s-1.5-252.6 26.2-252c0 0-27.8-.6-18.5 252z"/>
<path d="M534.3 600s-1.5-359.8 191.5-308.3c0 0-193-51.5-185.5 308.3z"/>
<path d="M279.2 600s-1.5-416.5 216-358.9c0 0-217.5-57.6-211.5 358.9z"/>
<path d="M565.2 600s-1.5-119.3 52.6-233.8c0 0-54.1 114.5-47.8 233.8z"/>
<path d="M324.5 600S323 442.2 300 444.9c0 0 22.9-2.7 28.7 155.1z"/>
<path d="M902.1 600s-1.5-200.2-130-376.5c0 0 128.5 176.3 136.5 376.5z"/>
<path d="M200.4 600s-1.5-267.9-77.3-254.4c0 0 75.8-13.5 84 254.4z"/>
<path d="M680.5 600s-1.5-99.5-42.3-193.6c0 0 40.8 94 46.5 193.6z"/>
<path d="M762.6 600s-1.5-226.8 12.7-226.7c0 0-14.2-.1-7.2 226.7z"/>
<path d="M341.6 600s-1.5-152.4 110-286.8c0 0-111.5 134.4-103 286.8z"/>
<path d="M938 600s-1.5-145.5 143.3-256.1c0 0-144.8 110.6-138.3 256.1z"/>
<path d="M383.5 600S382 151.4 180.6 202.9c0 0 201.4-51.5 208.7 397.1z"/>
<path d="M478.3 600s-1.5-225.6 139.6-180.4c0 0-141.1-45.2-135.5 180.4z"/>
<path d="M301.3 600s-1.5-142.8-156.7-234.6c0 0 155.2 91.8 162.8 234.6z"/>
<path d="M794.9 600s-1.5-214 6.5-214c0 0-8 0-2 214z"/>
<path d="M901.1 600s-1.5-173 211.3-278.5c0 0-212.8 105.5-205.4 278.5z"/>
<path d="M829 600s-1.5-323.6-172.8-269c0 0 171.3-54.6 180 269z"/>
<path d="M980.2 600s-1.5-203.4-88.5-395.5c0 0 87 192.1 95 395.5z"/>
<path d="M569 600s-1.5-166.6-28.5-331.4c0 0 27 164.8 35 331.4z"/>
<path d="M702.3 600s-1.5-182.3-156-325.9c0 0 154.6 143.6 163.7 325.9z"/>
<path d="M586.4 600s-1.5-157.2-76.7-303.3c0 0 75.2 146 83.2 303.3z"/>
<path d="M898.7 600s-1.5-169.8 112.4-131.5c0 0-114-38.3-107.3 131.5z"/>
<path d="M672.6 600S671 149.2 513.9 179.7c0 0 157.2-30.5 162.8 420.3z"/>
<path d="M915 600s-1.5-323.5 37.6-322c0 0-39.1-1.5-31.1 322z"/>
<path d="M803.2 600s-1.5-184.1 197.9-313.3c0 0-199.4 129.2-193.4 313.3z"/>
<path d="M719.2 600s-1.5-204.9 37.7-408.5c0 0-39.2 203.6-32.4 408.5z"/>
<path d="M911.9 600s-1.5-345.5 235-257.4c0 0-236.6-88-230.4 257.4z"/>
<path d="M257.2 600s-1.5-103.4 128.4-165.2c0 0-129.9 61.8-124.4 165.2z"/>
<path d="M421.3 600s-1.5-223.6-242.9-371.8c0 0 241.4 148.2 248.3 371.8z"/>
<path d="M259.9 600s-1.5-116.2-22-230.6c0 0 20.5 114.4 29.5 230.6z"/>
<path d="M783.2 600s-1.5-208.7 198.3-371c0 0-199.8 162.3-191.3 371z"/>
<path d="M288.3 600s-1.5-151.5 174-252.2c0 0-175.5 100.7-167.8 252.2z"/>
<path d="M957.8 600s-1.5-208.3 5.2-416.6c0 0-6.7 208.3-.4 416.6z"/>
<path d="M391.3 600s-1.5-409.7-93.5-397.2c0 0 92-12.5 100.6 397.2z"/>
<path d="M913.7 600s-1.5-89.5 106.7-148.9c0 0-108.2 59.4-99.2 148.9z"/>
<path d="M427 600s-1.5-84.9 2.1-169.8c0 0-3.6 84.9 4.1 169.8z"/>
</g>
<g id="a23">
<path d="M784 600s-1.5-379.9 102.6-367.3c0 0-104-12.6-96.7 367.3z"/>
<path d="M716.2 600s-1.5-295 .5-295c0 0-2 0 6.6 295z"/>
<path d="M349.5 600s-1.5-80 36-157c0 0-37.5 77-31.1 157z"/>
<path d="M532.2 600s-1.5-246-97-224.3c0 0 95.5-21.7 101.1 224.3z"/>
<path d="M210.7 600s-1.5-252.6 26.6-252c0 0-28.2-.6-18.9 252z"/>
<path d="M534.3 600s-1.5-359.8 191.3-308.4c0 0-192.8-51.4-185.3 308.4z"/>
<path d="M279.2 600s-1.5-416.5 216.5-358.6c0 0-218-58-212 358.6z"/>
<path d="M565.2 600s-1.5-119.3 52.4-233.9c0 0-54 114.6-47.6 233.9z"/>
<path d="M324.5 600s-1.5-157.8-24.6-155c0 0 23-2.8 29 155z"/>
<path d="M902.1 600s-1.5-200.2-130.3-376.4c0 0 128.8 176.2 136.8 376.4z"/>
<path d="M200.4 600s-1.5-267.9-77.3-254.4c0 0 75.8-13.5 84 254.4z"/>
<path d="M680.5 600s-1.5-99.5-42.3-193.6c0 0 40.8 94 46.5 193.6z"/>
<path d="M762.6 600s-1.5-226.8 12.8-226.7c0 0-14.3-.1-7.3 226.7z"/>
<path d="M341.6 600s-1.5-152.4 109.7-286.9c0 0-111.2 134.5-102.8 286.9z"/>
<path d="M938 600s-1.5-145.5 143-256.2c0 0-144.5 110.7-138 256.2z"/>
<path d="M383.5 600S382 151.4 180.4 203c0 0 201.6-51.6 209 397z"/>
<path d="M478.3 600S476.8 374.4 618 419.6c0 0-141.2-45.2-135.6 180.4z"/>
<path d="M301.3 600s-1.5-142.8-156.6-234.7c0 0 155.1 92 162.7 234.7z"/>
<path d="M794.9 600s-1.5-214 6.4-214c0 0-8 0-2 214z"/>
<path d="M901.1 600s-1.5-173 211.4-278.4c0 0-212.9 105.4-205.5 278.4z"/>
<path d="M829 600s-1.5-323.6-172.5-269.2c0 0 171-54.4 179.6 269.2z"/>
<path d="M980.2 600s-1.5-203.4-88.9-395.4c0 0 87.4 192 95.5 395.4z"/>
<path d="M569 600s-1.5-166.6-28.9-331.4c0 0 27.4 164.8 35.4 331.4z"/>
<path d="M702.3 600s-1.5-182.3-155.8-326c0 0 154.3 143.7 163.5 326z"/>
<path d="M586.4 600s-1.5-157.2-76.6-303.3c0 0 75.1 146 83 303.3z"/>
<path d="M898.7 600s-1.5-169.8 112.2-131.7c0 0-113.7-38-107.1 131.7z"/>
<path d="M672.6 600s-1.5-450.8-159-420.2c0 0 157.5-30.6 163 420.2z"/>
<path d="M915 600s-1.5-323.5 38.5-321.9c0 0-40-1.6-32 321.9z"/>
<path d="M803.2 600s-1.5-184.1 198-313.2c0 0-199.5 129-193.5 313.2z"/>
<path d="M719.2 600s-1.5-204.9 38-408.5c0 0-39.5 203.6-32.7 408.5z"/>
<path d="M911.9 600s-1.5-345.5 234.6-257.8c0 0-236.2-87.7-230 257.8z"/>
<path d="M257.2 600s-1.5-103.4 128.2-165.3c0 0-129.7 62-124.2 165.3z"/>
<path d="M421.3 600s-1.5-223.6-242.8-371.9c0 0 241.3 148.3 248.2 371.9z"/>
<path d="M259.9 600s-1.5-116.2-22-230.6c0 0 20.5 114.4 29.5 230.6z"/>
<path d="M783.2 600s-1.5-208.7 198.9-370.7c0 0-200.4 162-192 370.7z"/>
<path d="M288.3 600s-1.5-151.5 174.3-252c0 0-175.8 100.5-168 252z"/>
<path d="M957.8 600s-1.5-208.3 5-416.6c0 0-6.5 208.3-.2 416.6z"/>
<path d="M391.3 600s-1.5-409.7-94.1-397c0 0 92.6-12.7 101.3 397z"/>
<path d="M913.7 600s-1.5-89.5 107-148.7c0 0-108.5 59.2-99.5 148.7z"/>
<path d="M427 600s-1.5-84.9 2-169.8c0 0-3.5 84.9 4.2 169.8z"/>
</g>
<g id="a24">
<path d="M784 600s-1.5-379.9 103.3-367.1c0 0-104.8-12.8-97.4 367.1z"/>
<path d="M716.2 600s-1.5-295 1.6-295c0 0-3 0 5.5 295z"/>
<path d="M349.5 600s-1.5-80 36-157c0 0-37.5 77-31.2 157z"/>
<path d="M532.2 600s-1.5-246-97.2-224.2c0 0 95.7-21.8 101.3 224.2z"/>
<path d="M210.7 600s-1.5-252.6 27.2-251.9c0 0-28.8-.7-19.5 251.9z"/>
<path d="M534.3 600s-1.5-359.8 191-308.6c0 0-192.5-51.2-185 308.6z"/>
<path d="M279.2 600s-1.5-416.5 217.5-358c0 0-219-58.5-213 358z"/>
<path d="M565.2 600s-1.5-119.3 52-234c0 0-53.5 114.7-47.2 234z"/>
<path d="M324.5 600s-1.5-157.8-25-155c0 0 23.5-2.8 29.3 155z"/>
<path d="M902.1 600s-1.5-200.2-130.7-376.3c0 0 129.2 176 137.2 376.3z"/>
<path d="M200.4 600s-1.5-267.9-77-254.5c0 0 75.5-13.4 83.6 254.5z"/>
<path d="M680.5 600s-1.5-99.5-42.3-193.6c0 0 40.8 94 46.5 193.6z"/>
<path d="M762.6 600s-1.5-226.8 13-226.7c0 0-14.5-.1-7.5 226.7z"/>
<path d="M341.6 600s-1.5-152.4 109.2-287c0 0-110.7 134.6-102.3 287z"/>
<path d="M938 600s-1.5-145.5 142.6-256.5c0 0-144 111-137.6 256.5z"/>
<path d="M383.5 600S382 151.4 179.9 203.2c0 0 202-51.8 209.4 396.8z"/>
<path d="M478.3 600S476.8 374.4 618 419.7c0 0-141.2-45.3-135.6 180.3z"/>
<path d="M301.3 600s-1.5-142.8-156.5-234.8c0 0 155 92 162.6 234.8z"/>
<path d="M794.9 600s-1.5-214 6.2-214c0 0-7.7 0-1.7 214z"/>
<path d="M901.1 600s-1.5-173 211.7-278.3c0 0-213.2 105.3-205.8 278.3z"/>
<path d="M829 600S827.5 276.4 657 330.4c0 0 170.3-54 179 269.6z"/>
<path d="M980.2 600s-1.5-203.4-89.6-395.2c0 0 88 191.8 96.2 395.2z"/>
<path d="M569 600s-1.5-166.6-29.5-331.3c0 0 28 164.7 36 331.3z"/>
<path d="M702.3 600s-1.5-182.3-155.5-326.1c0 0 154 143.8 163.2 326.1z"/>
<path d="M586.4 600s-1.5-157.2-76.3-303.4c0 0 74.8 146.2 82.8 303.4z"/>
<path d="M898.7 600s-1.5-169.8 112-131.8c0 0-113.5-38-107 131.8z"/>
<path d="M672.6 600S671 149.2 513.3 179.9c0 0 157.8-30.7 163.4 420.1z"/>
<path d="M915 600s-1.5-323.5 39.3-321.8c0 0-40.8-1.7-32.8 321.8z"/>
<path d="M803.2 600s-1.5-184.1 198.2-313.1c0 0-199.7 129-193.7 313.1z"/>
<path d="M719.2 600s-1.5-204.9 38.4-408.4c0 0-40 203.5-33.1 408.4z"/>
<path d="M911.9 600s-1.5-345.5 234.2-258.2c0 0-235.7-87.3-229.6 258.2z"/>
<path d="M257.2 600s-1.5-103.4 128-165.5c0 0-129.5 62.1-124 165.5z"/>
<path d="M421.3 600s-1.5-223.6-242.7-372c0 0 241.2 148.4 248.1 372z"/>
<path d="M259.9 600s-1.5-116.2-22-230.6c0 0 20.5 114.4 29.5 230.6z"/>
<path d="M783.2 600s-1.5-208.7 199.5-370.4c0 0-201 161.7-192.5 370.4z"/>
<path d="M288.3 600s-1.5-151.5 174.5-251.9c0 0-176 100.4-168.3 251.9z"/>
<path d="M957.8 600s-1.5-208.3 5-416.6c0 0-6.5 208.3-.2 416.6z"/>
<path d="M391.3 600s-1.5-409.7-94.7-396.9c0 0 93.2-12.8 101.8 396.9z"/>
<path d="M913.7 600s-1.5-89.5 107.4-148.4c0 0-109 59-99.9 148.4z"/>
<path d="M427 600s-1.5-84.9 2-169.8c0 0-3.5 84.9 4.2 169.8z"/>
</g>
<g id="a25">
<path d="M784 600s-1.5-379.9 104-367c0 0-105.5-12.8-98.1 367z"/>
<path d="M716.2 600s-1.5-295 2.6-295c0 0-4 0 4.5 295z"/>
<path d="M349.5 600s-1.5-80 35.9-157c0 0-37.4 77-31 157z"/>
<path d="M532.2 600s-1.5-246-97.4-224c0 0 95.9-22 101.5 224z"/>
<path d="M210.7 600s-1.5-252.6 27.7-251.8c0 0-29.3-.8-20 251.8z"/>
<path d="M534.3 600S532.8 240.2 725 291.2c0 0-192.2-51-184.7 308.8z"/>
<path d="M279.2 600s-1.5-416.5 218.5-357.4c0 0-220-59.1-214 357.4z"/>
<path d="M565.2 600s-1.5-119.3 51.6-234c0 0-53.1 114.7-46.8 234z"/>
<path d="M324.5 600s-1.5-157.8-25.2-155c0 0 23.7-2.8 29.5 155z"/>
<path d="M902.1 600S900.6 399.8 771 223.9c0 0 129.6 175.9 137.6 376.1z"/>
<path d="M200.4 600s-1.5-267.9-76.9-254.5c0 0 75.4-13.4 83.5 254.5z"/>
<path d="M680.5 600s-1.5-99.5-42.3-193.6c0 0 40.8 94 46.5 193.6z"/>
<path d="M762.6 600s-1.5-226.8 13-226.7c0 0-14.5-.1-7.5 226.7z"/>
<path d="M341.6 600s-1.5-152.4 108.7-287.3c0 0-110.2 135-101.8 287.3z"/>
<path d="M938 600s-1.5-145.5 142.2-256.7c0 0-143.7 111.2-137.2 256.7z"/>
<path d="M383.5 600s-1.5-448.6-204-396.6c0 0 202.5-52 209.8 396.6z"/>
<path d="M478.3 600S476.8 374.4 618 419.7c0 0-141.2-45.3-135.6 180.3z"/>
<path d="M301.3 600S299.8 457.2 145 365.1c0 0 154.8 92.1 162.3 234.9z"/>
<path d="M794.9 600s-1.5-214 6-214c0 0-7.5 0-1.5 214z"/>
<path d="M901.1 600s-1.5-173 212-278c0 0-213.5 105-206 278z"/>
<path d="M829 600s-1.5-323.6-171.3-270c0 0 169.8-53.6 178.5 270z"/>
<path d="M980.2 600s-1.5-203.4-90.3-395c0 0 88.8 191.6 96.9 395z"/>
<path d="M569 600s-1.5-166.6-30.1-331.2c0 0 28.6 164.6 36.6 331.2z"/>
<path d="M702.3 600s-1.5-182.3-155.2-326.3c0 0 153.7 144 162.9 326.3z"/>
<path d="M586.4 600s-1.5-157.2-76-303.4c0 0 74.5 146.2 82.5 303.4z"/>
<path d="M898.7 600s-1.5-169.8 111.8-132c0 0-113.3-37.8-106.7 132z"/>
<path d="M672.6 600S671 149.2 512.9 180c0 0 158.2-30.8 163.8 420z"/>
<path d="M915 600s-1.5-323.5 40.3-321.7c0 0-41.8-1.8-33.8 321.7z"/>
<path d="M803.2 600s-1.5-184.1 198.3-313c0 0-199.8 128.9-193.8 313z"/>
<path d="M719.2 600s-1.5-204.9 39-408.4c0 0-40.5 203.5-33.7 408.4z"/>
<path d="M911.9 600s-1.5-345.5 233.6-258.7c0 0-235.2-86.8-229 258.7z"/>
<path d="M257.2 600S255.7 496.6 385 434.3c0 0-129.3 62.3-123.8 165.7z"/>
<path d="M421.3 600s-1.5-223.6-242.6-372c0 0 241.1 148.4 248 372z"/>
<path d="M259.9 600s-1.5-116.2-22-230.6c0 0 20.5 114.4 29.5 230.6z"/>
<path d="M783.2 600s-1.5-208.7 200.3-370c0 0-201.8 161.3-193.3 370z"/>
<path d="M288.3 600S286.8 448.5 463 348.3c0 0-176.3 100.2-168.6 251.7z"/>
<path d="M957.8 600s-1.5-208.3 4.9-416.6c0 0-6.4 208.3-.1 416.6z"/>
<path d="M391.3 600s-1.5-409.7-95.4-396.7c0 0 93.9-13 102.6 396.7z"/>
<path d="M913.7 600s-1.5-89.5 107.8-148.2c0 0-109.3 58.7-100.3 148.2z"/>
<path d="M427 600s-1.5-84.9 1.8-169.8c0 0-3.3 84.9 4.4 169.8z"/>
</g>
<g id="a26">
<path d="M784 600s-1.5-379.9 105-366.7c0 0-106.5-13.2-99.1 366.7z"/>
<path d="M716.2 600s-1.5-295 3.8-295c0 0-5.3 0 3.3 295z"/>
<path d="M349.5 600s-1.5-80 35.8-157c0 0-37.3 77-31 157z"/>
<path d="M532.2 600s-1.5-246-97.7-224c0 0 96.2-22 101.8 224z"/>
<path d="M210.7 600s-1.5-252.6 28.5-251.8c0 0-30-.8-20.8 251.8z"/>
<path d="M534.3 600s-1.5-359.8 190.3-309c0 0-191.8-50.8-184.3 309z"/>
<path d="M279.2 600s-1.5-416.5 219.7-356.6c0 0-221.2-60-215.2 356.6z"/>
<path d="M565.2 600s-1.5-119.3 51-234.2c0 0-52.5 114.9-46.2 234.2z"/>
<path d="M324.5 600s-1.5-157.8-25.6-154.9c0 0 24-2.9 30 154.9z"/>
<path d="M902.1 600s-1.5-200.2-131.6-376c0 0 130.1 175.8 138 376z"/>
<path d="M200.4 600s-1.5-267.9-76.6-254.6c0 0 75-13.3 83.2 254.6z"/>
<path d="M680.5 600s-1.5-99.5-42.3-193.6c0 0 40.8 94 46.5 193.6z"/>
<path d="M762.6 600s-1.5-226.8 13.3-226.7c0 0-14.8-.1-7.8 226.7z"/>
<path d="M341.6 600s-1.5-152.4 108-287.5c0 0-109.5 135.1-101 287.5z"/>
<path d="M938 600s-1.5-145.5 141.7-257c0 0-143.2 111.5-136.7 257z"/>
<path d="M383.5 600S382 151.4 179 203.7c0 0 202.9-52.3 210.2 396.3z"/>
<path d="M478.3 600S476.8 374.4 618 419.7c0 0-141.3-45.3-135.7 180.3z"/>
<path d="M301.3 600s-1.5-142.8-156-235c0 0 154.5 92.2 162 235z"/>
<path d="M794.9 600s-1.5-214 5.7-214c0 0-7.2 0-1.2 214z"/>
<path d="M901.1 600s-1.5-173 212.3-277.8c0 0-213.8 104.8-206.4 277.8z"/>
<path d="M829 600s-1.5-323.6-170.6-270.4c0 0 169-53.2 177.8 270.4z"/>
<path d="M980.2 600s-1.5-203.4-91.1-394.9c0 0 89.6 191.5 97.7 394.9z"/>
<path d="M569 600s-1.5-166.6-30.8-331.1c0 0 29.3 164.5 37.3 331.1z"/>
<path d="M702.3 600s-1.5-182.3-154.8-326.5c0 0 153.3 144.2 162.5 326.5z"/>
<path d="M586.4 600s-1.5-157.2-75.7-303.6c0 0 74.2 146.4 82.2 303.6z"/>
<path d="M898.7 600s-1.5-169.8 111.7-132.1c0 0-113.2-37.7-106.6 132.1z"/>
<path d="M672.6 600s-1.5-450.8-160-419.8c0 0 158.5-31 164 419.8z"/>
<path d="M915 600s-1.5-323.5 41.2-321.6c0 0-42.7-1.9-34.7 321.6z"/>
<path d="M803.2 600s-1.5-184.1 198.3-313c0 0-199.8 128.9-193.8 313z"/>
<path d="M719.2 600s-1.5-204.9 39.5-408.3c0 0-41 203.4-34.2 408.3z"/>
<path d="M911.9 600s-1.5-345.5 233-259.2c0 0-234.6-86.3-228.4 259.2z"/>
<path d="M257.2 600s-1.5-103.4 127.5-165.8c0 0-129 62.4-123.5 165.8z"/>
<path d="M421.3 600S419.8 376.4 179 227.9c0 0 241 148.5 247.8 372.1z"/>
<path d="M259.9 600s-1.5-116.2-22-230.6c0 0 20.5 114.4 29.5 230.6z"/>
<path d="M783.2 600s-1.5-208.7 201-369.6c0 0-202.5 160.9-194 369.6z"/>
<path d="M288.3 600s-1.5-151.5 175.1-251.5c0 0-176.6 100-168.9 251.5z"/>
<path d="M957.8 600s-1.5-208.3 4.8-416.6c0 0-6.3 208.3 0 416.6z"/>
<path d="M391.3 600s-1.5-409.7-96-396.5c0 0 94.5-13.2 103.1 396.5z"/>
<path d="M913.7 600s-1.5-89.5 108.2-147.9c0 0-109.7 58.5-100.7 147.9z"/>
<path d="M427 600s-1.5-84.9 1.7-169.8c0 0-3.2 84.9 4.5 169.8z"/>
</g>
<g id="a27">
<path d="M784 600s-1.5-379.9 106-366.4c0 0-107.4-13.5-100.1 366.4z"/>
<path d="M716.2 600s-1.5-295 5-295c0 0-6.5 0 2 295z"/>
<path d="M349.5 600s-1.5-80 35.7-157c0 0-37.2 77-30.8 157z"/>
<path d="M532.2 600s-1.5-246-97.9-223.8c0 0 96.4-22.2 102 223.8z"/>
<path d="M210.7 600s-1.5-252.6 29.2-251.7c0 0-30.8-1-21.5 251.7z"/>
<path d="M534.3 600s-1.5-359.8 190-309.3c0 0-191.5-50.5-184 309.3z"/>
<path d="M279.2 600S277.7 183.5 500 244c0 0-222.3-60.5-216.3 356z"/>
<path d="M565.2 600s-1.5-119.3 50.6-234.3c0 0-52.1 115-45.8 234.3z"/>
<path d="M324.5 600s-1.5-157.8-26-154.8c0 0 24.5-3 30.3 154.8z"/>
<path d="M902.1 600s-1.5-200.2-132-375.8c0 0 130.5 175.6 138.5 375.8z"/>
<path d="M200.4 600s-1.5-267.9-76.3-254.7c0 0 74.8-13.2 83 254.7z"/>
<path d="M680.5 600s-1.5-99.5-42.3-193.6c0 0 40.8 94 46.5 193.6z"/>
<path d="M762.6 600s-1.5-226.8 13.5-226.7c0 0-15-.1-8 226.7z"/>
<path d="M341.6 600S340.1 447.6 449 312.3c0 0-108.9 135.3-100.5 287.7z"/>
<path d="M938 600s-1.5-145.5 141.2-257.2c0 0-142.7 111.7-136.2 257.2z"/>
<path d="M383.5 600S382 151.4 178.8 203.9c0 0 203.2-52.5 210.5 396.1z"/>
<path d="M478.3 600S476.8 374.4 618 419.8c0 0-141.3-45.4-135.7 180.2z"/>
<path d="M301.3 600s-1.5-142.8-155.9-235.2c0 0 154.4 92.4 162 235.2z"/>
<path d="M794.9 600s-1.5-214 5.5-214c0 0-7 0-1 214z"/>
<path d="M901.1 600s-1.5-173 212.6-277.6c0 0-214 104.6-206.7 277.6z"/>
<path d="M829 600s-1.5-323.6-170-270.9c0 0 168.4-52.7 177.2 270.9z"/>
<path d="M980.2 600s-1.5-203.4-91.9-394.7c0 0 90.4 191.3 98.5 394.7z"/>
<path d="M569 600s-1.5-166.6-31.5-331c0 0 30 164.4 38 331z"/>
<path d="M702.3 600S700.8 417.7 548 273.3c0 0 153 144.4 162.1 326.7z"/>
<path d="M586.4 600s-1.5-157.2-75.3-303.6c0 0 73.8 146.4 81.8 303.6z"/>
<path d="M898.7 600s-1.5-169.8 111.5-132.3c0 0-113-37.5-106.4 132.3z"/>
<path d="M672.6 600S671 149.2 512.4 180.2c0 0 158.7-31 164.3 419.8z"/>
<path d="M915 600s-1.5-323.5 42-321.5c0 0-43.5-2-35.5 321.5z"/>
<path d="M803.2 600s-1.5-184.1 198.4-313c0 0-199.9 128.9-194 313z"/>
<path d="M719.2 600s-1.5-204.9 40-408.3c0 0-41.6 203.4-34.7 408.3z"/>
<path d="M911.9 600s-1.5-345.5 232.6-259.6c0 0-234.2-85.9-228 259.6z"/>
<path d="M257.2 600s-1.5-103.4 127.3-166c0 0-128.8 62.6-123.3 166z"/>
<path d="M421.3 600s-1.5-223.6-242.2-372.3c0 0 240.7 148.7 247.6 372.3z"/>
<path d="M259.9 600s-1.5-116.2-22-230.6c0 0 20.5 114.4 29.5 230.6z"/>
<path d="M783.2 600S781.7 391.3 985 230.8c0 0-203.3 160.5-194.8 369.2z"/>
<path d="M288.3 600s-1.5-151.5 175.4-251.3c0 0-177 99.8-169.2 251.3z"/>
<path d="M957.8 600s-1.5-208.3 4.8-416.6c0 0-6.3 208.3 0 416.6z"/>
<path d="M391.3 600s-1.5-409.7-96.6-396.4c0 0 95-13.3 103.8 396.4z"/>
<path d="M913.7 600s-1.5-89.5 108.6-147.6c0 0-110.1 58.2-101 147.6z"/>
<path d="M427 600s-1.5-84.9 1.7-169.8c0 0-3.2 84.9 4.5 169.8z"/>
</g>
<g id="a28">
<path d="M784 600S782.5 220.1 891 233.8c0 0-108.4-13.7-101 366.2z"/>
<path d="M716.2 600s-1.5-295 6.1-295c0 0-7.6 0 1 295z"/>
<path d="M349.5 600s-1.5-80 35.6-157c0 0-37 77-30.8 157z"/>
<path d="M532.2 600s-1.5-246-98-223.8c0 0 96.5-22.2 102.1 223.8z"/>
<path d="M210.7 600s-1.5-252.6 29.8-251.7c0 0-31.4-1-22.1 251.7z"/>
<path d="M534.3 600s-1.5-359.8 189.6-309.4c0 0-191.1-50.4-183.6 309.4z"/>
<path d="M279.2 600S277.7 183.5 501 244.6c0 0-223.3-61.1-217.3 355.4z"/>
<path d="M565.2 600s-1.5-119.3 50.1-234.3c0 0-51.6 115-45.3 234.3z"/>
<path d="M324.5 600S323 442.2 298 445.2c0 0 24.9-3 30.7 154.8z"/>
<path d="M902.1 600s-1.5-200.2-132.3-375.7c0 0 130.8 175.5 138.8 375.7z"/>
<path d="M200.4 600s-1.5-267.9-76-254.8c0 0 74.5-13 82.6 254.8z"/>
<path d="M680.5 600s-1.5-99.5-42.2-193.6c0 0 40.7 94 46.4 193.6z"/>
<path d="M762.6 600s-1.5-226.8 13.7-226.7c0 0-15.2-.1-8.2 226.7z"/>
<path d="M341.6 600s-1.5-152.4 106.8-287.9c0 0-108.3 135.5-99.9 287.9z"/>
<path d="M938 600s-1.5-145.5 140.8-257.4c0 0-142.3 111.9-135.8 257.4z"/>
<path d="M383.5 600s-1.5-448.6-205-396c0 0 203.5-52.6 210.8 396z"/>
<path d="M478.3 600s-1.5-225.6 139.9-180.2c0 0-141.4-45.4-135.8 180.2z"/>
<path d="M301.3 600s-1.5-142.8-155.6-235.4c0 0 154.1 92.6 161.7 235.4z"/>
<path d="M794.9 600s-1.5-214 5.3-214c0 0-6.8 0-.8 214z"/>
<path d="M901.1 600s-1.5-173 212.9-277.3c0 0-214.4 104.3-207 277.3z"/>
<path d="M829 600s-1.5-323.6-169.4-271.2c0 0 167.8-52.4 176.6 271.2z"/>
<path d="M980.2 600s-1.5-203.4-92.6-394.5c0 0 91 191.1 99.2 394.5z"/>
<path d="M569 600s-1.5-166.6-32-331c0 0 30.5 164.4 38.5 331z"/>
<path d="M702.3 600s-1.5-182.3-154-326.9c0 0 152.5 144.6 161.7 326.9z"/>
<path d="M586.4 600s-1.5-157.2-75-303.7c0 0 73.5 146.5 81.5 303.7z"/>
<path d="M898.7 600s-1.5-169.8 111.3-132.4c0 0-112.8-37.4-106.2 132.4z"/>
<path d="M672.6 600S671 149.2 512.2 180.3c0 0 158.9-31 164.5 419.7z"/>
<path d="M915 600s-1.5-323.5 42.6-321.4c0 0-44.1-2-36.1 321.4z"/>
<path d="M803.2 600s-1.5-184.1 198.4-313c0 0-199.9 128.9-194 313z"/>
<path d="M719.2 600s-1.5-204.9 40.4-408.3c0 0-42 203.4-35.1 408.3z"/>
<path d="M911.9 600s-1.5-345.5 232.2-260c0 0-233.7-85.5-227.6 260z"/>
<path d="M257.2 600s-1.5-103.4 127.1-166.1c0 0-128.6 62.7-123 166.1z"/>
<path d="M421.3 600s-1.5-223.6-242-372.4c0 0 240.5 148.8 247.4 372.4z"/>
<path d="M259.9 600s-1.5-116.2-22.1-230.6c0 0 20.6 114.4 29.6 230.6z"/>
<path d="M783.2 600s-1.5-208.7 202.4-368.8c0 0-203.9 160-195.4 368.8z"/>
<path d="M288.3 600S286.8 448.5 464 348.9c0 0-177.2 99.6-169.5 251.1z"/>
<path d="M957.8 600s-1.5-208.3 4.9-416.6c0 0-6.4 208.3-.1 416.6z"/>
<path d="M391.3 600s-1.5-409.7-97-396.3c0 0 95.5-13.4 104.1 396.3z"/>
<path d="M913.7 600s-1.5-89.5 108.9-147.4c0 0-110.4 58-101.4 147.4z"/>
<path d="M427 600s-1.5-84.9 1.6-169.7c0 0-3 84.8 4.6 169.7z"/>
</g>
<g id="a29">
<path d="M784 600s-1.5-379.9 107.6-366c0 0-109-13.9-101.7 366z"/>
<path d="M716.2 600s-1.5-295 7-295c0 0-8.5 0 0 295z"/>
<path d="M349.5 600s-1.5-80 35.6-157c0 0-37 77-30.7 157z"/>
<path d="M532.2 600s-1.5-246-98.3-223.7c0 0 96.8-22.3 102.4 223.7z"/>
<path d="M210.7 600s-1.5-252.6 30.4-251.6c0 0-32-1-22.7 251.6z"/>
<path d="M534.3 600s-1.5-359.8 189.4-309.6c0 0-191-50.2-183.4 309.6z"/>
<path d="M279.2 600s-1.5-416.5 222.6-354.9c0 0-224-61.6-218 354.9z"/>
<path d="M565.2 600s-1.5-119.3 49.8-234.4c0 0-51.3 115-45 234.4z"/>
<path d="M324.5 600s-1.5-157.8-26.7-154.7c0 0 25.2-3 31 154.7z"/>
<path d="M902.1 600s-1.5-200.2-132.6-375.6c0 0 131.1 175.4 139 375.6z"/>
<path d="M200.4 600s-1.5-267.9-75.8-254.9c0 0 74.3-13 82.4 254.9z"/>
<path d="M680.5 600s-1.5-99.5-42.2-193.6c0 0 40.7 94 46.4 193.6z"/>
<path d="M762.6 600s-1.5-226.8 13.8-226.7c0 0-15.3-.1-8.3 226.7z"/>
<path d="M341.6 600S340.1 447.6 448 312c0 0-107.8 135.6-99.4 288z"/>
<path d="M938 600s-1.5-145.5 140.5-257.6c0 0-142 112-135.5 257.6z"/>
<path d="M383.5 600S382 151.4 178.3 204.1c0 0 203.7-52.7 211 395.9z"/>
<path d="M478.3 600s-1.5-225.6 140-180.1c0 0-141.5-45.5-135.9 180.1z"/>
<path d="M301.3 600S299.8 457.2 146 364.5c0 0 154 92.7 161.4 235.5z"/>
<path d="M794.9 600s-1.5-214 5.1-214c0 0-6.6 0-.6 214z"/>
<path d="M901.1 600s-1.5-173 213.2-277.1c0 0-214.7 104-207.3 277.1z"/>
<path d="M829 600S827.5 276.4 660 328.4c0 0 167.3-52 176 271.6z"/>
<path d="M980.2 600s-1.5-203.4-93.2-394.3c0 0 91.7 191 99.8 394.3z"/>
<path d="M569 600s-1.5-166.6-32.6-331c0 0 31 164.4 39 331z"/>
<path d="M702.3 600s-1.5-182.3-153.7-327c0 0 152.2 144.7 161.4 327z"/>
<path d="M586.4 600s-1.5-157.2-74.6-303.8c0 0 73.1 146.6 81 303.8z"/>
<path d="M898.7 600s-1.5-169.8 111.2-132.5c0 0-112.7-37.3-106.1 132.5z"/>
<path d="M672.6 600S671 149.2 512 180.4c0 0 159-31.2 164.7 419.6z"/>
<path d="M915 600s-1.5-323.5 43.5-321.4c0 0-45-2-37 321.4z"/>
<path d="M803.2 600s-1.5-184.1 198.4-313c0 0-199.9 128.9-194 313z"/>
<path d="M719.2 600s-1.5-204.9 41-408.2c0 0-42.5 203.3-35.7 408.2z"/>
<path d="M911.9 600s-1.5-345.5 231.6-260.5c0 0-233.1-85-227 260.5z"/>
<path d="M257.2 600s-1.5-103.4 126.9-166.3c0 0-128.4 63-122.9 166.3z"/>
<path d="M421.3 600s-1.5-223.6-241.8-372.6c0 0 240.3 149 247.2 372.6z"/>
<path d="M259.9 600s-1.5-116.2-22.2-230.6c0 0 20.7 114.4 29.7 230.6z"/>
<path d="M783.2 600s-1.5-208.7 203.4-368.3c0 0-204.9 159.6-196.4 368.3z"/>
<path d="M288.3 600s-1.5-151.5 176-250.9c0 0-177.5 99.4-169.8 250.9z"/>
<path d="M957.8 600s-1.5-208.3 5-416.6c0 0-6.5 208.3-.2 416.6z"/>
<path d="M391.3 600s-1.5-409.7-97.7-396.1c0 0 96.2-13.6 104.8 396.1z"/>
<path d="M913.7 600s-1.5-89.5 109.4-147.1c0 0-111 57.7-101.9 147.1z"/>
<path d="M427 600s-1.5-84.9 1.5-169.7c0 0-3 84.8 4.7 169.7z"/>
</g>
<g id="a30">
<path d="M784 600s-1.5-379.9 108.8-365.7c0 0-110.2-14.2-103 365.7z"/>
<path d="M716.2 600s-1.5-295 8.4-295c0 0-9.9 0-1.3 295z"/>
<path d="M349.5 600S348 520 385 443c0 0-37 77-30.7 157z"/>
<path d="M532.2 600s-1.5-246-98.5-223.6c0 0 97-22.4 102.6 223.6z"/>
<path d="M210.7 600s-1.5-252.6 31.2-251.5c0 0-32.8-1.1-23.5 251.5z"/>
<path d="M534.3 600s-1.5-359.8 189.1-309.8c0 0-190.6-50-183.1 309.8z"/>
<path d="M279.2 600s-1.5-416.5 223.7-354.2c0 0-225.2-62.3-219.2 354.2z"/>
<path d="M565.2 600s-1.5-119.3 49.3-234.5c0 0-50.8 115.2-44.5 234.5z"/>
<path d="M324.5 600s-1.5-157.8-27-154.6c0 0 25.5-3.2 31.3 154.6z"/>
<path d="M902.1 600s-1.5-200.2-133-375.4c0 0 131.5 175.2 139.5 375.4z"/>
<path d="M200.4 600s-1.5-267.9-75.4-255c0 0 73.9-12.9 82 255z"/>
<path d="M680.5 600s-1.5-99.5-42.1-193.6c0 0 40.6 94 46.3 193.6z"/>
<path d="M762.6 600s-1.5-226.8 14.1-226.7c0 0-15.6-.1-8.6 226.7z"/>
<path d="M341.6 600s-1.5-152.4 105.6-288.3c0 0-107 136-98.7 288.3z"/>
<path d="M938 600s-1.5-145.5 140-257.8c0 0-141.5 112.3-135 257.8z"/>
<path d="M383.5 600S382 151.4 178 204.3c0 0 204-53 211.3 395.7z"/>
<path d="M478.3 600s-1.5-225.6 140.1-180c0 0-141.6-45.6-136 180z"/>
<path d="M301.3 600s-1.5-142.8-155.1-235.7c0 0 153.6 93 161.2 235.7z"/>
<path d="M794.9 600s-1.5-214 5-214c0 0-6.5 0-.5 214z"/>
<path d="M901.1 600s-1.5-173 213.6-276.8c0 0-215 103.8-207.7 276.8z"/>
<path d="M829 600s-1.5-323.6-168.2-272c0 0 166.7-51.6 175.4 272z"/>
<path d="M980.2 600s-1.5-203.4-94-394.1c0 0 92.5 190.7 100.6 394.1z"/>
<path d="M569 600s-1.5-166.6-33.2-330.9c0 0 31.7 164.3 39.7 330.9z"/>
<path d="M702.3 600s-1.5-182.3-153.1-327.3c0 0 151.6 145 160.8 327.3z"/>
<path d="M586.4 600s-1.5-157.2-74.2-304c0 0 72.7 146.8 80.7 304z"/>
<path d="M898.7 600s-1.5-169.8 111-132.6c0 0-112.5-37.2-106 132.6z"/>
<path d="M672.6 600S671 149.2 511.9 180.4c0 0 159.2-31.2 164.8 419.6z"/>
<path d="M915 600s-1.5-323.5 43.8-321.3c0 0-45.3-2.2-37.3 321.3z"/>
<path d="M803.2 600s-1.5-184.1 198.4-313c0 0-199.9 128.9-194 313z"/>
<path d="M719.2 600s-1.5-204.9 41.3-408.2c0 0-42.8 203.3-36 408.2z"/>
<path d="M911.9 600s-1.5-345.5 231.3-260.7c0 0-232.9-84.8-226.7 260.7z"/>
<path d="M257.2 600S255.7 496.6 384 433.6c0 0-128.3 63-122.8 166.4z"/>
<path d="M421.3 600s-1.5-223.6-241.7-372.6c0 0 240.2 149 247.1 372.6z"/>
<path d="M259.9 600s-1.5-116.2-22.2-230.6c0 0 20.7 114.4 29.7 230.6z"/>
<path d="M783.2 600S781.7 391.3 987 231.9c0 0-205.3 159.4-196.8 368.1z"/>
<path d="M288.3 600s-1.5-151.5 176.2-250.7c0 0-177.7 99.2-170 250.7z"/>
<path d="M957.8 600s-1.5-208.3 5-416.6c0 0-6.5 208.3-.2 416.6z"/>
<path d="M391.3 600s-1.5-409.7-98-396c0 0 96.5-13.7 105.2 396z"/>
<path d="M913.7 600s-1.5-89.5 109.6-147c0 0-111.1 57.5-102 147z"/>
<path d="M427 600s-1.5-84.9 1.5-169.7c0 0-3 84.8 4.7 169.7z"/>
</g>
</g>

<rect width="1248" height="274" x="172" y="346"/>
<g fill="#fff">
  <path d="M317.775 458.48c-6.697-2.095-12.868-3.146-18.513-3.146-5.324 0-9.559.93-12.705 2.783-3.146 1.856-4.719 4.719-4.719 8.591 0 4.034 1.974 7.139 5.929 9.317 3.951 2.178 10.202 4.477 18.755 6.897 9.033 2.745 16.456 5.445 22.264 8.107 5.808 2.662 10.848 6.617 15.125 11.858 4.272 5.245 6.413 12.142 6.413 20.691 0 12.584-4.84 22.265-14.52 29.04-9.68 6.776-21.863 10.164-36.542 10.164-10.005 0-19.764-1.572-29.282-4.719-9.521-3.146-17.586-7.623-24.2-13.431l10.89-22.022c5.808 5.002 12.743 8.916 20.812 11.737 8.065 2.825 15.73 4.235 22.99 4.235 5.808 0 10.443-1.005 13.915-3.025 3.468-2.015 5.203-5.04 5.203-9.075 0-4.515-2.019-7.903-6.05-10.164-4.035-2.257-10.569-4.757-19.602-7.502-8.712-2.579-15.813-5.12-21.296-7.623-5.487-2.5-10.248-6.292-14.278-11.374-4.034-5.082-6.05-11.737-6.05-19.965 0-12.743 4.636-22.465 13.915-29.161 9.275-6.693 20.933-10.043 34.969-10.043 8.55 0 16.978 1.21 25.289 3.63 8.308 2.42 15.688 5.808 22.143 10.164l-11.374 22.748c-6.292-3.709-12.788-6.613-19.481-8.712z"/>
  <path d="M472.896 439.362c10.243 5.486 18.229 13.189 23.958 23.111 5.725 9.922 8.592 21.338 8.592 34.243 0 13.068-2.867 24.604-8.592 34.606-5.729 10.006-13.715 17.749-23.958 23.232-10.247 5.486-22.063 8.228-35.453 8.228-13.552 0-25.493-2.741-35.816-8.228-10.327-5.483-18.354-13.227-24.079-23.232-5.729-10.001-8.591-21.538-8.591-34.606 0-12.905 2.862-24.321 8.591-34.243 5.725-9.922 13.752-17.625 24.079-23.111 10.323-5.483 22.264-8.228 35.816-8.228 13.39 0 25.206 2.745 35.453 8.228zm-62.073 29.524c-6.776 7.26-10.164 16.698-10.164 28.314s3.388 21.054 10.164 28.314c6.776 7.26 15.647 10.89 26.62 10.89 10.648 0 19.36-3.63 26.136-10.89 6.776-7.26 10.164-16.698 10.164-28.314s-3.388-21.054-10.164-28.314c-6.776-7.26-15.488-10.89-26.136-10.89-10.973 0-19.844 3.63-26.62 10.89z"/>
  <path d="M565.128 380.28c3.416 3.58 5.124 8.136 5.124 13.664 0 5.368-1.708 9.844-5.124 13.42-3.415 3.58-7.728 5.368-12.932 5.368-5.208 0-9.516-1.788-12.932-5.368-3.416-3.576-5.124-8.052-5.124-13.42 0-5.528 1.708-10.084 5.124-13.664 3.416-3.576 7.724-5.368 12.932-5.368 5.205 0 9.517 1.792 12.932 5.368zm-28.547 50.752h31.721v130.54h-31.721v-130.54z"/>
  <path d="M612.289 382.008h31.461v179.564h-31.461V382.008z"/>
</g>
<path d="M877.469 224.573c9.761 5.452 17.422 12.974 22.988 22.57 5.562 9.6 8.348 20.416 8.348 32.452 0 12.04-2.785 22.814-8.348 32.33-5.566 9.516-13.228 17-22.988 22.448-9.761 5.452-20.806 8.174-33.135 8.174-13.702 0-25.814-3.332-36.346-10.004-10.531-6.668-18.197-15.696-22.989-27.084v84.424h-5.137V216.399h5.137v37.088c4.792-11.384 12.458-20.412 22.989-27.084 10.531-6.668 22.644-10.004 36.346-10.004 12.329 0 23.374 2.726 33.135 8.174zm-2.698 105.652c8.99-4.96 16.054-11.873 21.19-20.74 5.138-8.864 7.706-18.826 7.706-29.89 0-11.06-2.568-21.022-7.706-29.89-5.137-8.864-12.2-15.818-21.19-20.862-8.99-5.04-19.136-7.564-30.438-7.564s-21.448 2.524-30.438 7.564c-8.99 5.044-16.054 11.998-21.19 20.862-5.138 8.868-7.706 18.83-7.706 29.89 0 11.064 2.568 21.026 7.706 29.89 5.137 8.868 12.2 15.78 21.19 20.74 8.99 4.964 19.137 7.442 30.438 7.442s21.448-2.478 30.438-7.442z"/>
<path d="M951.698 161.499h5.137v181.048h-5.137V161.499z"/>
<path d="M1101.704 342.547l-.258-28.548c-5.823 9.6-13.484 16.756-22.988 21.472-9.504 4.72-20.42 7.076-32.75 7.076-12.674 0-23.032-3.416-31.079-10.248-8.052-6.832-12.073-15.532-12.073-26.108 0-10.248 4.407-18.216 13.229-23.912 8.817-5.692 20.846-8.54 36.089-8.54h49.316v-15.372c-.172-11.872-3.812-21.022-10.916-27.45-7.107-6.424-17.511-9.638-31.208-9.638-8.393 0-16.311 1.506-23.76 4.514-7.449 3.012-15.026 7.362-22.732 13.054l-3.082-3.904c16.439-12.36 32.962-18.544 49.574-18.544 15.066 0 26.669 3.744 34.804 11.224 8.132 7.484 12.285 17.732 12.458 30.744l.514 84.18h-5.138zm-21.833-13.176c9.246-5.528 16.438-14.312 21.575-26.352l-.257-24.4h-49.316c-14.043 0-24.915 2.402-32.621 7.198-7.706 4.8-11.559 11.59-11.559 20.374 0 9.436 3.468 17.042 10.402 22.814 6.936 5.776 16.223 8.662 27.869 8.662 13.358 0 24.66-2.764 33.907-8.296z"/>
<path d="M1258.515 229.575c9.159 8.784 13.742 20.984 13.742 36.6v76.372h-5.138v-76.372c0-14.152-4.153-25.17-12.457-33.062-8.308-7.888-19.822-11.834-34.548-11.834-16.438.328-29.539 5.124-39.299 14.396-9.761 9.272-15.328 22.044-16.696 38.308v68.564h-5.137V216.399h5.137v35.624c4.278-11.224 11.214-19.924 20.806-26.108 9.588-6.18 21.319-9.352 35.189-9.516 16.44 0 29.239 4.392 38.401 13.176z"/>
<path d="M1382.963 333.519c-8.564 6.02-17.467 9.028-26.714 9.028-9.078 0-15.969-2.928-20.677-8.784-4.712-5.856-7.063-14.476-7.063-25.864v-84.18h-19.521v-4.88h19.521v-30.012h5.137v30.012h46.749v4.88h-46.749v84.18c0 9.76 1.927 17.164 5.779 22.204 3.854 5.044 9.46 7.564 16.824 7.564 8.562 0 16.439-2.684 23.632-8.052l3.082 3.904z"/>
<rect width="5" height="44" x="780" y="346" fill="#FFF"/>

<style>
/* <![CDATA[ */

#a1 {animation-name: a1}
#a2 {animation-name: a2}
#a3 {animation-name: a3}
#a4 {animation-name: a4}
#a5 {animation-name: a5}
#a6 {animation-name: a6}
#a7 {animation-name: a7}
#a8 {animation-name: a8}
#a9 {animation-name: a9}
#a10 {animation-name: a10}
#a11 {animation-name: a11}
#a12 {animation-name: a12}
#a13 {animation-name: a13}
#a14 {animation-name: a14}
#a15 {animation-name: a15}
#a16 {animation-name: a16}
#a17 {animation-name: a17}
#a18 {animation-name: a18}
#a19 {animation-name: a19}
#a20 {animation-name: a20}
#a21 {animation-name: a21}
#a22 {animation-name: a22}
#a23 {animation-name: a23}
#a24 {animation-name: a24}
#a25 {animation-name: a25}
#a26 {animation-name: a26}
#a27 {animation-name: a27}
#a28 {animation-name: a28}
#a29 {animation-name: a29}
#a30 {animation-name: a30}

@keyframes a1 {0.00%{visibility: visible} 1.72%{visibility: hidden}}
@keyframes a2 {1.72%, 98.28%{visibility: visible} 3.45%, 100%{visibility: hidden}}
@keyframes a3 {3.45%, 96.55%{visibility: visible} 5.17%, 98.28%{visibility: hidden}}
@keyframes a4 {5.17%, 94.83%{visibility: visible} 6.90%, 96.55%{visibility: hidden}}
@keyframes a5 {6.90%, 93.10%{visibility: visible} 8.62%, 94.83%{visibility: hidden}}
@keyframes a6 {8.62%, 91.38%{visibility: visible} 10.34%, 93.10%{visibility: hidden}}
@keyframes a7 {10.34%, 89.66%{visibility: visible} 12.07%, 91.38%{visibility: hidden}}
@keyframes a8 {12.07%, 87.93%{visibility: visible} 13.79%, 89.66%{visibility: hidden}}
@keyframes a9 {13.79%, 86.21%{visibility: visible} 15.52%, 87.93%{visibility: hidden}}
@keyframes a10 {15.52%, 84.48%{visibility: visible} 17.24%, 86.21%{visibility: hidden}}
@keyframes a11 {17.24%, 82.76%{visibility: visible} 18.97%, 84.48%{visibility: hidden}}
@keyframes a12 {18.97%, 81.03%{visibility: visible} 20.69%, 82.76%{visibility: hidden}}
@keyframes a13 {20.69%, 79.31%{visibility: visible} 22.41%, 81.03%{visibility: hidden}}
@keyframes a14 {22.41%, 77.59%{visibility: visible} 24.14%, 79.31%{visibility: hidden}}
@keyframes a15 {24.14%, 75.86%{visibility: visible} 25.86%, 77.59%{visibility: hidden}}
@keyframes a16 {25.86%, 74.14%{visibility: visible} 27.59%, 75.86%{visibility: hidden}}
@keyframes a17 {27.59%, 72.41%{visibility: visible} 29.31%, 74.14%{visibility: hidden}}
@keyframes a18 {29.31%, 70.69%{visibility: visible} 31.03%, 72.41%{visibility: hidden}}
@keyframes a19 {31.03%, 68.97%{visibility: visible} 32.76%, 70.69%{visibility: hidden}}
@keyframes a20 {32.76%, 67.24%{visibility: visible} 34.48%, 68.97%{visibility: hidden}}
@keyframes a21 {34.48%, 65.52%{visibility: visible} 36.21%, 67.24%{visibility: hidden}}
@keyframes a22 {36.21%, 63.79%{visibility: visible} 37.93%, 65.52%{visibility: hidden}}
@keyframes a23 {37.93%, 62.07%{visibility: visible} 39.66%, 63.79%{visibility: hidden}}
@keyframes a24 {39.66%, 60.34%{visibility: visible} 41.38%, 62.07%{visibility: hidden}}
@keyframes a25 {41.38%, 58.62%{visibility: visible} 43.10%, 60.34%{visibility: hidden}}
@keyframes a26 {43.10%, 56.90%{visibility: visible} 44.83%, 58.62%{visibility: hidden}}
@keyframes a27 {44.83%, 55.17%{visibility: visible} 46.55%, 56.90%{visibility: hidden}}
@keyframes a28 {46.55%, 53.45%{visibility: visible} 48.28%, 55.17%{visibility: hidden}}
@keyframes a29 {48.28%, 51.72%{visibility: visible} 50.00%, 53.45%{visibility: hidden}}
@keyframes a30 {50.00%{visibility: visible} 51.72%{visibility: hidden}}

/* ]]> */
</style>
</svg>
