<svg xmlns="http://www.w3.org/2000/svg" xmlns:xlink="http://www.w3.org/1999/xlink" viewBox="0 0 900 540">

<style>
/* <![CDATA[ */

@namespace svg url(http://www.w3.org/2000/svg);

svg|a {
  outline: none;
}

#l_path, #r_path, #m_path {
  transition: stroke-dashoffset .3s ease;
}

#click_left:hover #l_path, #click_right:hover #r_path, #click_middle:hover #m_path {
  stroke-dashoffset: 0;
}

#bttn_bg, #bttn_text {
  transition: stroke .2s easy, fill .2s easy;
}

#click_middle:hover #bttn_bg {
  stroke: #333;
  fill: #fff;
}

#click_middle:hover #bttn_text path {
  fill: #333;
}

#logo_starbucks, #logo_tim {
  transition: transform .2s ease;
}

#logo_starbucks {
  transform: translate(178.175px, 270.188px) scale(1) translate(-178.175px, -270.188px);
}

#click_left:hover #logo_starbucks {
  transform: translate(178.175px, 270.188px) scale(1.04) translate(-178.175px, -270.188px);
}

#logo_tim {
  transform: translate(721.506px, 272.942px) scale(1) translate(-721.506px, -272.942px);
}
#click_right:hover #logo_tim {
  transform: translate(721.506px, 272.942px) scale(1.04) translate(-721.506px, -272.942px);
}

/* ]]> */
</style>

<defs>
  <g id="middle_part" fill="none" stroke="#231F20" stroke-linecap="round" stroke-miterlimit="10" stroke-width="3">
    <path d="M491.09 424.06c66.81-76.67 76.1-181.28 19.66-271.87"/>
    <path d="M404.93 122.51c-62.51 92.08-74.09 207.63-9.69 299.67"/>
  </g>
  <g id="left_part">
    <path fill="none" stroke="#231F20" stroke-linecap="round" stroke-miterlimit="10" stroke-width="3" d="M209.21 526.45c66.32 11.93 135.53-2.56 194.84-34.47"/>
    <path fill="none" stroke="#231F20" stroke-linecap="round" stroke-miterlimit="10" stroke-width="3" d="M314.93 17.09C224.36-6.68 135.65 31.34 78.61 101.04 2.58 196.1-16.44 322.83 53.08 422.19"/>
    <g>
      <path fill="#231F20" d="M413.38 73.11c-.54 7.99-12.76 9.14-19.54 5.3-5.08-10.4 3.91-20.38 14.94-15.91 1.88 3.22 5.06 5.23 4.6 10.61z"/>
      <path fill="none" stroke="#231F20" stroke-miterlimit="10" stroke-width=".997" d="M399.35 61.45c-4.04-3.62-2.21-11.56-.31-15.77 7.31-6.68 7.06 10.65 8.08 13.57-.33.56-.64 1.13-.95 1.77 1.08-3.29 8.74-13.5 13.43-9.38 4.57 4.03-6.8 10.31-8.63 13.35.13-.22.42-.33.11-.62 2.3-2.68 11.94-6.93 15.23-3.54 5.83 6.02-7.73 8.21-10.58 9.53 3.85-1.28 12-.53 12.54 4.04.38.12 1.31.52 1.65.7-.46.68-1.22 1.96-1.81 2.61-5.62 1.46-10.2 2.19-14.53-.76.48.75 1.12 1.01 1.78 1.65.95 2.44 9.46 11.11 1.82 12.85-5.87 1.34-9.89-7.2-11.78-10.72 1.22 4.04-.34 14.29-6.56 13.38-7.36-1.07-.71-10.74-1.99-14.78-.87 3.99-8.53 7.33-12.65 5.94-9.34-3.15 3.99-8.26 6.51-10.65-3.31-.06-25.08-3.1-17.88-8.95 1.52-3.03 8.21-3.12 11.36-2.36 3.74.92 6.03 2.65 8.4 5.54-2.12-2.63-9.8-11.53-7.28-14.77 4.16-5.32 10.78 5.12 12.72 6.53-.04.94.16 1.09.33 1.92.19-.53.4.14.5.32"/>
    </g>
    <g>
      <path fill="#231F20" d="M138.29 469.42c-2.6 7.58-14.7 5.5-20.25.02-2.19-11.37 9.09-18.65 18.58-11.46.97 3.61 3.52 6.37 1.67 11.44z"/>
      <path fill="none" stroke="#231F20" stroke-miterlimit="10" stroke-width=".997" d="M127.8 454.51c-2.96-4.55.87-11.73 3.81-15.31 8.8-4.53 4.03 12.12 4.26 15.2-.46.45-.92.92-1.38 1.47 1.89-2.9 11.96-10.75 15.41-5.55 3.36 5.09-9.25 8.18-11.81 10.64.18-.18.49-.21.27-.57 2.92-2 13.34-3.58 15.63.55 4.06 7.34-9.61 5.91-12.71 6.44 4.06-.24 11.73 2.63 11.05 7.17.35.21 1.14.83 1.41 1.1-.61.54-1.68 1.58-2.42 2.05-5.81-.05-10.43-.55-13.83-4.53.26.86.81 1.27 1.29 2.07.28 2.59 6.23 13.2-1.61 12.87-6.01-.23-7.67-9.52-8.57-13.41.12 4.22-4.06 13.7-9.83 11.2-6.82-2.96 2.11-10.56 1.93-14.79-1.88 3.63-10.14 4.85-13.77 2.42-8.19-5.46 6.01-6.92 9.06-8.58-3.17-.91-23.39-9.52-14.93-13.29 2.26-2.54 8.75-.88 11.58.68 3.38 1.86 5.13 4.14 6.67 7.55-1.36-3.1-6.46-13.69-3.18-16.16 5.4-4.05 9.07 7.76 10.58 9.62-.3.9-.13 1.1-.19 1.94.32-.46.35.24.4.44"/>
    </g>
    <g fill="none" stroke="#231F20" stroke-miterlimit="10" stroke-width="1.309">
      <path d="M377.53 47.62c-23.29-.1-27.41-14.92-38.66-31.01 15.15 8.33 47.87 6.09 41.54 31.23"/>
      <path d="M379.62 48.5c-4.5-6.62-8.91-10.68-16.25-14.3"/>
    </g>
    <g fill="none" stroke="#231F20" stroke-miterlimit="10" stroke-width="1.309">
      <path d="M457.41 111.65c23.2-2.18 28.73 12.16 41.5 27.08-15.89-6.81-48.24-1.38-44.39-27.02"/>
      <path d="M455.22 110.98c5.13 6.14 9.92 9.75 17.58 12.64"/>
    </g>
    <g stroke="#231F20" stroke-miterlimit="10" stroke-width="1.309">
      <path fill="#231F20" d="M422.54 104.29c-5.43 1.56-8.65-6.2-7.22-10.75 4.65-4.58 10.09-1.56 13.06 2.39-2.52-9.52 5.78-13.87 12.8-7.3.27 1.9-.11 1.71-1.07 2.88.35.08.67.26.91.53-1.81 1.39-3.29 2.87-5.04 4.43 6.44-6.92 18.39 2.01 10.65 9.75-2.78.43-6.19.06-8.81-1.22 1.17.7 2.23 1.73 3.41 2.48 2.84 5.89-1.08 13.27-7.85 8.87-.62-1.95-1.41-2.96-1.06-5.05.42 9.21-18.76 7.58-10.55-4.01"/>
      <path fill="#FFF" d="M434.32 99.23c-3.19-1.72-7.54 3.25-4.18 6.11 3.72 3.17 8.05-3.34 4.53-6.53-.72.24-1.32-.41-1.78-.53"/>
    </g>
    <g stroke="#231F20" stroke-miterlimit="10" stroke-width="1.309">
      <path fill="#231F20" d="M67.09 450.54c-5.64.09-6.72-8.25-4.16-12.26 5.69-3.2 10.14 1.13 11.99 5.72.05-9.85 9.2-11.89 14.27-3.7-.25 1.9-.55 1.62-1.79 2.5.32.17.57.43.73.76-2.1.86-3.91 1.91-6.01 2.96 8.02-5.01 17.23 6.75 7.74 12.19-2.8-.32-6-1.56-8.19-3.47.95.98 1.7 2.24 2.65 3.27 1.21 6.43-4.5 12.53-9.89 6.52-.09-2.06-.58-3.23.29-5.17-2 9.01-20.09 2.42-9.14-6.61"/>
      <path fill="#FFF" d="M79.79 448.72c-2.64-2.5-8.13 1.17-5.64 4.81 2.77 4.03 8.64-1.14 6.09-5.12-.76.04-1.17-.75-1.59-.99"/>
    </g>
    <g fill="none" stroke="#231F20" stroke-miterlimit="10" stroke-width="1.096">
      <path d="M456.69 80.71c-4.29-3.53-10.45-5.33-11.28-11.8-.75-5.78 4.77-10 3.13-16.24.56.66.33.51.29 1.06 3.75 2.41 6.93 5.15 10.96 7.31 4.12 2.2 7.72 3.75 7.96 8.38-2.7 3.31-4.82 7.8-8.37 10.28-.26.25-.24.27.03.07.35-.62.51-1.24.72-1.9 5.32-4.56 8.5-7.78 15.44-10.63 5.13 1.56 11.25 4.02 16.18 6.07-8.03.34-5.32 6.93-9.02 11.34-4.25 5.05-12.98 7.71-16.94 2.67-2.55-.73-5.16-3.12-7.12-5.04 1.51 1.65 2.49 2.64 4.16 3.87 2.21 3.65 8.23 5.44 12.53 6.68 4.18 8.06-.49 10.77-2.42 17.55-1.72-1.26-3.68-2.89-5.81-3.7-2.43-.93-6.73-.35-8.59-1.84-4.69-3.69-1.67-12.52.23-17.07-.14-.5-.33-.66-.34-1.36-.33.57-2.11 3.75-3.24 5.26.12.36.38.54.79.53-4.43 1.89-8.66 5.23-13.91 4.64-4.88-.52-8.14-3.12-13.22-2.61 3.52-.67 6.23-9.38 9.34-12.16 4.73-4.22 8.99-3.43 13.66-4.29 1.39 1.99 3.13 3.72 5.46 4.21"/>
      <path d="M455.78 68.57c1.76 3.57 4.78 9.66 1.54 12.79"/>
      <path d="M457.24 83.9c.58-.73.7-1.3 1.86-1.38.05-.24-.05-.42-.28-.48 3.46-2.42 7.52-2.81 11.27-1.58"/>
      <path d="M461.03 85.29c-1.63 1.03 1.29 8.87 3.48 11.58"/>
      <path d="M455.97 83.87c-3.2.34-7.33 2.54-8.46 5.49"/>
    </g>
    <g fill="none" stroke="#231F20" stroke-miterlimit="10" stroke-width="1.295">
      <path d="M194.05 521.39c-2.41-2.87-13.73-1.42-19.66-1.7-7.66-.37-14.34-2.27-21.59-5.24-12.38-5.1-36.12-17.46-45.76-29.03"/>
      <path d="M185.01 518.58c-12.2-10.24-14.27-25.04-34.38-35.12 6.38 14.37.69 33.8 22.15 36.58"/>
      <path d="M160.39 517.23c-7.64-4.17-15.17-5.59-23.15-4.73-4.55.48-8.69 2.31-13.11 3.17-2.04.41-4.34.89-6.54.58-1.93-.27-4.18-1.96-5.96-1.41 2.27-.72 12.33 7.75 14.73 9.13 16.59 9.53 27.33.76 41.64-3.93"/>
      <path d="M109.24 487.31c-8.63-9.8-24.44-5.57-32.72-2.77-.97-.69.72.13-.32-.45 5.55 2.24 7.56 4.36 13.01 6.82 5.01 2.29 11.18 3.5 16.4 4.84 5.39 1.39 10.36-.45 15.7.27"/>
    </g>
  </g>
  <g id="right_part">
    <path fill="none" stroke="#231F20" stroke-linecap="round" stroke-miterlimit="10" stroke-width="3" d="M551.38 526.45c91.06 16.38 187.58-17.05 256.44-77.01 89.23-77.7 108.05-196.2 45.1-297.26"/>
    <path fill="none" stroke="#231F20" stroke-linecap="round" stroke-miterlimit="10" stroke-width="3" d="M657.09 17.09C593.02.28 529.87 14.39 478.21 48.77"/>
    <g>
      <path fill="#231F20" d="M755.54 73.11c-.54 7.99-12.76 9.14-19.54 5.3-5.08-10.4 3.91-20.38 14.94-15.91 1.88 3.22 5.06 5.23 4.6 10.61z"/>
      <path fill="none" stroke="#231F20" stroke-miterlimit="10" stroke-width=".997" d="M741.52 61.45c-4.04-3.62-2.21-11.56-.31-15.77 7.31-6.68 7.06 10.65 8.08 13.57-.33.56-.64 1.13-.95 1.77 1.08-3.29 8.74-13.5 13.43-9.38 4.57 4.03-6.8 10.31-8.63 13.35.13-.22.42-.33.11-.62 2.3-2.68 11.94-6.93 15.23-3.54 5.83 6.02-7.73 8.21-10.58 9.53 3.85-1.28 12-.53 12.54 4.04.38.12 1.31.52 1.65.7-.46.68-1.22 1.96-1.81 2.61-5.62 1.46-10.2 2.19-14.53-.76.48.75 1.12 1.01 1.78 1.65.95 2.44 9.46 11.11 1.82 12.85-5.87 1.34-9.89-7.2-11.78-10.72 1.22 4.04-.34 14.29-6.56 13.38-7.36-1.07-.71-10.74-1.99-14.78-.87 3.99-8.53 7.33-12.65 5.94-9.34-3.15 3.99-8.26 6.51-10.65-3.31-.06-25.08-3.1-17.88-8.95 1.52-3.03 8.21-3.12 11.36-2.36 3.74.92 6.03 2.65 8.4 5.54-2.12-2.63-9.8-11.53-7.28-14.77 4.16-5.32 10.78 5.12 12.72 6.53-.04.94.16 1.09.33 1.92.19-.53.4.14.5.32"/>
    </g>
    <g>
      <path fill="#231F20" d="M480.45 469.42c-2.6 7.58-14.7 5.5-20.25.02-2.19-11.37 9.09-18.65 18.58-11.46.97 3.61 3.52 6.37 1.67 11.44z"/>
      <path fill="none" stroke="#231F20" stroke-miterlimit="10" stroke-width=".997" d="M469.96 454.51c-2.96-4.55.87-11.73 3.81-15.31 8.8-4.53 4.03 12.12 4.26 15.2-.46.45-.92.92-1.38 1.47 1.89-2.9 11.96-10.75 15.41-5.55 3.36 5.09-9.25 8.18-11.81 10.64.18-.18.49-.21.27-.57 2.92-2 13.34-3.58 15.63.55 4.06 7.34-9.61 5.91-12.71 6.44 4.06-.24 11.73 2.63 11.05 7.17.35.21 1.14.83 1.41 1.1-.61.54-1.68 1.58-2.42 2.05-5.81-.05-10.43-.55-13.83-4.53.26.86.81 1.27 1.29 2.07.28 2.59 6.23 13.2-1.61 12.87-6.01-.23-7.67-9.52-8.57-13.41.12 4.22-4.06 13.7-9.83 11.2-6.82-2.96 2.11-10.56 1.93-14.79-1.88 3.63-10.14 4.85-13.77 2.42-8.19-5.46 6.01-6.92 9.06-8.58-3.17-.91-23.39-9.52-14.93-13.29 2.26-2.54 8.75-.88 11.58.68 3.38 1.86 5.13 4.14 6.67 7.55-1.36-3.1-6.46-13.69-3.18-16.16 5.4-4.05 9.07 7.76 10.58 9.62-.3.9-.13 1.1-.19 1.94.32-.46.35.24.4.44"/>
    </g>
    <g fill="none" stroke="#231F20" stroke-miterlimit="10" stroke-width="1.309">
      <path d="M719.69 47.62c-23.29-.1-27.41-14.92-38.66-31.01 15.15 8.33 47.87 6.09 41.54 31.23"/>
      <path d="M721.79 48.5c-4.5-6.62-8.91-10.68-16.25-14.3"/>
    </g>
    <g fill="none" stroke="#231F20" stroke-miterlimit="10" stroke-width="1.309">
      <path d="M799.57 111.65c23.2-2.18 28.73 12.16 41.5 27.08-15.89-6.81-48.24-1.38-44.39-27.02"/>
      <path d="M797.39 110.98c5.13 6.14 9.92 9.75 17.58 12.64"/>
    </g>
    <g stroke="#231F20" stroke-miterlimit="10" stroke-width="1.309">
      <path fill="#231F20" d="M764.71 104.29c-5.43 1.56-8.65-6.2-7.22-10.75 4.65-4.58 10.09-1.56 13.06 2.39-2.52-9.52 5.78-13.87 12.8-7.3.27 1.9-.11 1.71-1.07 2.88.35.08.67.26.91.53-1.81 1.39-3.29 2.87-5.04 4.43 6.44-6.92 18.39 2.01 10.65 9.75-2.78.43-6.19.06-8.81-1.22 1.17.7 2.23 1.73 3.41 2.48 2.84 5.89-1.08 13.27-7.85 8.87-.62-1.95-1.41-2.96-1.06-5.05.42 9.21-18.76 7.58-10.55-4.01"/>
      <path fill="#FFF" d="M776.48 99.23c-3.19-1.72-7.54 3.25-4.18 6.11 3.72 3.17 8.05-3.34 4.53-6.53-.72.24-1.32-.41-1.78-.53"/>
    </g>
    <g stroke="#231F20" stroke-miterlimit="10" stroke-width="1.309">
      <path fill="#231F20" d="M409.25 450.54c-5.64.09-6.72-8.25-4.16-12.26 5.69-3.2 10.14 1.13 11.99 5.72.05-9.85 9.2-11.89 14.27-3.7-.25 1.9-.55 1.62-1.79 2.5.32.17.57.43.73.76-2.1.86-3.91 1.91-6.01 2.96 8.02-5.01 17.23 6.75 7.74 12.19-2.8-.32-6-1.56-8.19-3.47.95.98 1.7 2.24 2.65 3.27 1.21 6.43-4.5 12.53-9.89 6.52-.09-2.06-.58-3.23.29-5.17-2 9.01-20.09 2.42-9.14-6.61"/>
      <path fill="#FFF" d="M421.95 448.72c-2.64-2.5-8.13 1.17-5.64 4.81 2.77 4.03 8.64-1.14 6.09-5.12-.76.04-1.17-.75-1.59-.99"/>
    </g>
    <g fill="none" stroke="#231F20" stroke-miterlimit="10" stroke-width="1.096">
      <path d="M798.86 80.71c-4.29-3.53-10.45-5.33-11.28-11.8-.75-5.78 4.77-10 3.13-16.24.56.66.33.51.29 1.06 3.75 2.41 6.93 5.15 10.96 7.31 4.12 2.2 7.72 3.75 7.96 8.38-2.7 3.31-4.82 7.8-8.37 10.28-.26.25-.24.27.03.07.36-.62.51-1.24.72-1.9 5.32-4.56 8.5-7.78 15.44-10.63 5.13 1.56 11.25 4.02 16.18 6.07-8.03.34-5.32 6.93-9.02 11.34-4.25 5.05-12.98 7.71-16.94 2.67-2.55-.73-5.16-3.12-7.12-5.04 1.51 1.65 2.49 2.64 4.16 3.87 2.21 3.65 8.23 5.44 12.53 6.68 4.18 8.06-.49 10.77-2.42 17.55-1.72-1.26-3.68-2.89-5.81-3.7-2.43-.93-6.73-.35-8.59-1.84-4.69-3.69-1.67-12.52.23-17.07-.14-.5-.33-.66-.34-1.36-.33.57-2.11 3.75-3.24 5.26.12.36.38.54.79.53-4.43 1.89-8.66 5.23-13.91 4.64-4.88-.52-8.14-3.12-13.22-2.61 3.52-.67 6.23-9.38 9.34-12.16 4.73-4.22 8.99-3.43 13.66-4.29 1.39 1.99 3.13 3.72 5.46 4.21"/>
      <path d="M797.95 68.57c1.76 3.57 4.78 9.66 1.54 12.79"/>
      <path d="M799.41 83.9c.58-.73.7-1.3 1.86-1.38.05-.24-.05-.42-.28-.48 3.46-2.42 7.52-2.81 11.27-1.58"/>
      <path d="M803.2 85.29c-1.63 1.03 1.29 8.87 3.48 11.58"/>
      <path d="M798.13 83.87c-3.2.34-7.33 2.54-8.46 5.49"/>
    </g>
    <g fill="none" stroke="#231F20" stroke-miterlimit="10" stroke-width="1.295">
      <path d="M536.21 521.39c-2.41-2.87-13.73-1.42-19.66-1.7-7.66-.37-14.34-2.27-21.59-5.24-12.38-5.1-36.12-17.46-45.76-29.03"/>
      <path d="M527.18 518.58c-12.2-10.24-14.27-25.04-34.38-35.12 6.38 14.37.69 33.8 22.15 36.58"/>
      <path d="M502.56 517.23c-7.64-4.17-15.17-5.59-23.15-4.73-4.55.48-8.69 2.31-13.11 3.17-2.04.41-4.34.89-6.54.58-1.93-.27-4.18-1.96-5.96-1.41 2.27-.72 12.33 7.75 14.73 9.13 16.59 9.53 27.33.76 41.64-3.93"/>
      <path d="M451.4 487.31c-8.63-9.8-24.44-5.57-32.72-2.77-.97-.69.72.13-.32-.45 5.55 2.24 7.56 4.36 13.01 6.82 5.01 2.29 11.18 3.5 16.4 4.84 5.39 1.39 10.36-.45 15.7.27"/>
    </g>
  </g>
</defs>

<use xlink:href="#left_part" opacity=".1"/>
<use xlink:href="#right_part" opacity=".1"/>
<use xlink:href="#middle_part" opacity=".1"/>

<a id="click_left" href="javascript:;">
  <g id="logo_starbucks">
    <path fill="#FFF" d="M266.98 270.19c0 49.3-39.76 89.26-88.8 89.26s-88.8-39.96-88.8-89.26c0-49.3 39.76-89.26 88.8-89.26s88.8 39.96 88.8 89.26z"/>
    <path fill="#007042" d="M177.43 212.66c3.13 1.8 6.44 4.12 8.97 6.58l-.99 1c-4.98-.53-10.23.13-14.95.2-.53-.53-1.59-1.33-.6-2l7.57-5.78zm88.08 61.88c.07 2.25.28 4.18-.6 6.48-9.1 2.59-15.08-7.05-23.91-5.59l1 4.99c8.17.27 13.27 8.1 21.71 7.77-1.2 2.39.53 8.7-4.78 6.18-5.51-1.32-9.5-6.18-15.54-6.18-.73 1.34-.27 3.19-.4 4.78 6.37 1 10.96 6.39 17.33 7.38-.6 2.19-1.19 4.64-2.99 5.98-5.18-1.26-9.23-5.92-14.75-5.78l-.98 4.59c5.24.13 8.63 4.78 13.35 6.17.13 1.93-1.6 3.66-2.6 5.39-4.18-1.26-7.38-4.85-12.16-4.59-.07-1.8 1-3.85.6-5.77-5.37 1.6-8.97-3.39-12.95-6.39-.11-9.79-10.43-16.22-10.97-25.4-.1-1.83.17-3.78 1.01-5.88 3.39-7.84 2.32-18.01-1.39-25.31-1.13-1.92-3.13-3.44-4.99-4.57 2.73 5.78 6.05 12.61 4.39 19.72-.19 5.49-3.43 10.76-3.47 16.05-.01 1.89.39 3.77 1.47 5.68 4.32 7.78 12.09 15.15 9.17 24.9-.8 3-3.2 5.31-3.79 8.37 5.05 4.19 9.83 8.9 16.54 9.17 2.39-1.53 1.06-8.29 5.98-5.17l7.18 3.59c-.52 1.92-2.13 3.64-3.59 4.97-2.72-1.33-5.38-2.91-8.77-2.78-1 1.06-1.86 2.25-1.79 3.78 2.39.39 4.58 1.4 6.58 2.8-.93 2-2.73 3.25-4.39 4.78l-5.57-1.99c-.93 1.33-2.86 2.73-2.18 4.19 1.26.54 2.65 1.27 3.57 2.2-2.46 2.66-5.57 4.36-8.57 6.17-2.58-8.44-11.09-14.35-10.36-24.11l-.4-.39c-2 2.25-1.33 5.84-1.2 8.76 2.39 6.11 8.1 10.83 8.97 17.54-1 1.72-3.25 2.07-4.98 2.8.2-12.08-18.13-21.25-6.37-33.47 3.92-5.99 10.49-11.7 8.16-19.94-2.39-7.96-10.84-12.89-10.77-21.81l.01-.7c1.92-9.3 7.77-19.2 2.99-29.09-1.33-3.98-4.31-8.5-8.36-10.17 6.04 6.91 8.43 18.19 4.98 27.5-1.74 3.7-4.14 8.11-4.38 12.46h-.01c-.13 2.27.34 4.53 1.8 6.67 4.59 7.44 12.55 15.62 7.97 25.31-5.18 7.77-14.21 15.67-9.17 25.9 3.65 6.11 9.3 12.21 7.78 19.72l-5.98 1.99c3.99-14.01-15.54-22.24-7.37-36.26 5.05-7.5 14.07-14.55 8.96-24.51-3.06-6.17-9.37-9.82-9.17-17.54l.22-1.29c2.06-10.94 10.37-21.29 4.56-32.98-1.53-3.45-4.58-6.97-7.97-8.96l-.2.2c6.78 6.58 8.84 17.39 5.19 26.09-1.71 5.1-5.45 10.18-6.21 15.65-.36 2.58-.06 5.25 1.43 8.06 4.32 6.84 11.89 14.09 7.16 22.92-4.97 7.3-13.28 14.4-9.96 23.89 3.65 8.3 11.28 16.22 7.16 26.51l-6.17 1.39c4.91-10.04-2.45-19.99-6.77-28.7-5.25-12.49 11.28-18.47 11.54-29.88-.06-7.37-7.9-11.55-9.55-18.33-3.39-2.86-6.9 1.14-10.96.4-2.99.6-7.59-4.12-9.37 1-2.13 7.5-11.82 13.02-7.56 21.91 4.05 7.91 13.81 13.69 10.55 23.92-2.92 9.56-12.55 18.66-6.58 29.68-2.46-.8-7.04.73-6.97-3.19-3.78-13.35 12.35-21.13 7.37-34.47-2.32-8.17-12.89-12.69-10.56-22.52 1.72-8.09 10.8-13.75 9.53-22.61-.1-.74-.29-1.5-.55-2.29-3.39-9.56-10.3-19.13-6.18-30.29 1.13-3.19 3.39-5.91 5.38-8.76-6.58 3.52-9.89 10.96-9.76 18.53-.29 8.23 5.79 15.28 6.66 22.82.34 3.04-.16 6.15-2.28 9.46-4.31 5.85-9.96 12.02-7.37 19.73 2.46 7.77 12.16 12.48 11.56 21.52-.07 10.69-12.49 17.34-8.97 29.3l-6.18-2.01c-2.45-10.62 8.83-16.06 8.96-25.89 1.6-11.3-12.82-15.5-11.95-26.51-.06-8.37 7.31-13.67 10.56-20.71.56-1.71.74-3.33.67-4.88-.4-7.79-7.41-13.87-6.25-22.63.39-6.44 2.58-12.09 6.77-16.93-5.78 2.32-8.16 8.97-9.76 14.55-2.77 8.95 3.84 17 4.5 25.01.29 3.54-.57 7.06-3.9 10.66-4.78 5.64-9.64 12.75-6.18 20.33 3.66 8.36 15.15 14.87 10.17 25.3-2.72 6.58-9.23 11.55-8.96 19.32-1.73-.73-3.52-1.46-4.98-2.78 0-9.89 14.07-16.07 7.37-26.5-.59 2.06-.72 4.85-1.19 7.18-2.33 6.05-7.31 10.89-9.17 17.14-3.12-1.2-6.37-3.73-8.97-6.39l3.59-2.2c-.4-1.33-1.46-2.46-2.39-3.59-2.33-.33-3.86 1.2-5.78 1.8-1.66-1.46-3.26-2.79-4.59-4.59 1.19-3.39 10.5-.59 5.79-6.17-3.18-1.99-6.38.85-9.17 2.18l-3.78-4.78c3.25-1.99 6.5-4.79 10.55-3.98 1 1.8 1.07 4.44 2.99 5.38 6.84-.13 11.69-5.31 16.94-9.36-3.66-5.44-6.63-12.95-3.38-19.53 2.6-6.59 9.38-12.14 9.69-19.43.07-1.66-.19-3.4-.91-5.28-3.58-9.23-4.85-21.71 1.99-29.88-3.72 1-5.91 5.64-7.18 9.16-4.11 9.02 1.09 17.37 1.27 26.01.02 1.55-.1 3.11-.48 4.68-3.52 7.11-9.23 13.34-10.15 21.52-4.05 2.59-7.38 7.11-13.15 5.58-.2 1.53.26 3.85.79 5.58-4.58-.19-7.7 3.18-11.56 4.78-2.05-.66-2.59-3.31-3.38-5.17 4.51-1.52 7.77-6.05 12.95-5.98.6-1.67-.34-3.2-.6-4.79-6.45-2.86-16.66 14.14-17.52-.6 6.44-.4 10.56-6.38 16.94-6.97l.19-4.78c-7.24-.73-11.9 6.71-19.13 5.98l-1.6-6.37c8.37.52 13.36-6.98 21.33-7.38 1.06-1.39 1.19-3.45 1.39-5.38-8.7-1.13-14.67 8.51-23.91 5.58 0 0-.32-4.01-.49-6.28h.01c-.06-.88-.12-1.5-.12-1.5 8.23 3.2 15.47-2.72 22.52-5.77 1.79-.54 4.59.39 5.39-1.6-.07-1.53 2.72-3.31.4-4.38-10.3-1.4-17.14 11.02-27.7 5.38l-.79-1.6c2.2-30.02 19.13-59.04 47.22-73.32 11.38-6.5 25.51-9.82 39.77-9.93 17.2-.14 34.58 4.37 47.52 13.52 12.56 7.7 24.57 20.4 31.09 33.28 6.23 11.29 9.1 23.96 9.96 37.45-10.89 8.23-18.2-7.76-29.3-4.18.6 1.73.93 3.52 2.2 4.98 9.83-.07 16.6 10.23 26.9 6.17l-.05 1.45zm-125.15-36.97c-6.91-4.52-15.67-.26-22.11 2.2-.6-6.05-3.05-11.56-8.17-15.54-.5-.25-1.18-.77-1.8-.81-.37-.02-.72.13-1 .6 2.32 14.28-6.96 24.24-13.54 35.07 2.19 1.79 5.71 1.52 8.36 1 6.97-2.79 13.61-7.64 21.92-5.98 2.46-4.18 6.58-8.24 9.96-11.56 2.08-1.79 4.92-2.92 6.38-4.98zm21.13 8.97c-.13.86.07 2.39 1.39 1.8 2.06-2.86 5.71-.6 7.97-.4v-.8c-1.24-1.94-3.79-2.92-6.37-2.82-.6.02-1.2.11-1.79.24-.87.19-1.47.98-1.2 1.98zm32.47-8.56c-1.85-4.12-6.11-5.79-9.96-6.78-1.89-.23-3.85-.39-5.8-.41-.36 0-.73-.01-1.09 0-5.44.11-10.65 1.51-13.82 5.99-.46 1.27-2.46 3.04-.6 4.18 4.18-.27 8.96-.79 11.75 2.8 0 3.19 2.06 7.44-1.39 8.96-2.86-2.65-6.25 1.13-9.36-1-1.46-.86-2.39.14-2.99 1.41-.87 8.23 3.45 17.32 11.15 21.9 3.12 1.13 7.32 2.2 10.58.6 7.84-3.65 11.08-12.01 12.54-19.72-.2-1.47-.13-4.32-2.18-4.39-2.32 1.47-5.71.6-8.17 0-1.46.47-1.52 2.6-3.18 3l-1.01-.81c-.86-3.65-1.4-8.83 1.99-11.35 3.79-1.53 8.24-2.2 12.16-1 .72-1.26-.41-2.25-.62-3.38zm-3.99 6.55l-.78.03c-1.39.93-5.45.26-3.98 3.38 2.53-2 6.05-.6 8.57.4.93-.46.73-1.39.79-2.2-.82-1.51-2.75-1.65-4.6-1.61zm28.91-28.08c-4.92-.26-9.03 2.53-13.55 3.79-.39-3.84 2.53-7.9 3.19-11.76-7.3.47-13.09 4.87-19.13 8.38-1.4-3.38-2.8-6.77-4.19-10.17l7.97-7.57.2-1-10.77-.6c-1.85-3.25-2.59-7.16-4.78-10.15-1.79 3.39-3 6.97-4.79 10.36l-10.75.6v.79l8.16 7.37c-1 3.79-1.92 7.9-4.38 10.77-4.78-2.86-9.5-5.98-14.74-7.97-1.26-.41-3.06-1.07-4.19-.2 1.66 3.65 3.98 7.58 3.59 11.57-2.19-.4-3.92-1.81-5.98-2.4-2.46-.67-5.39-1.99-7.78-1.19 3.99 5.58 7.24 11.41 8.36 18.12 13.22-6.38 28.64-9.89 44.65-7.16 7.5 1.19 14.4 4.25 21.11 6.77.29-7.05 4.74-12.7 7.8-18.35zm22.71 38.26c6.77 1.79 13.56 9.17 20.73 4.38-6.24-10.36-15.53-19.93-12.95-33.47.27-.92-.33-1.86-1.19-1.99-4.05 1.65-7.19 5.65-8.79 9.57-.66 2.32-1.05 4.79-1.98 6.97-4.85-2.52-10.03-4.97-15.94-4.38-2.13.27-5.19.41-5.58 2.59 6.71 3.58 12.22 9.57 16.33 15.94 2.87-.47 6.38-.07 9.37.39zm-70.93 9.36l.19 1.2c2.6 1.73 3.39 4.66 6.99 4.39 3.19.19 5.58-2.8 7.16-5.19-4.31-.59-9.56.34-14.34-.4zm3.59-5.37c.13.53-.33 1.33.4 1.6 2.13-.46 5.98 1.13 7.16-1.39-.83-.93-2.18-1.35-3.6-1.35-1.43-.01-2.9.4-3.96 1.14z"/>
    <path id="rect3815" fill="#FFF" d="M170.66 256.39h14.56v5.98h-14.56v-5.98z" opacity=".99"/>
    <path id="path3032-6" fill="#007042" d="M173.35 259.59c1.88.45 2.35 1.11 3.83 1.3 1.58-.03 1.35-.35 4.11-1.3.18-.06.43-.46.12-.77-1.71-1.7-2.9-.49-3.97-.45-1.42.02-2.76-1.22-4.15.39-.23.32-.35.64.06.83z"/>
    <path fill="#007042" d="M242.15 357.76v-8.52h-3.04v-1.73h8.15v1.73h-3.04v8.52h-2.07z"/>
    <path fill="#007042" d="M248.58 357.76V347.5h3.1l1.86 7 1.84-7h3.11v10.26h-1.92v-8.07l-2.04 8.07h-1.99l-2.03-8.07v8.07h-1.93z"/>
  </g>
  <use xlink:href="#left_part" mask="url(#msk_left)"/>
  <path d="M435.82 471.33s-69.76 57.97-185.71 57.97S5.45 438.9 11.34 263.02 174.45 22.29 225.55 13.44s135.01-2.21 211.19 72.93c-50.01 41.39-73.38 102.52-81.24 143.79-7.86 41.27-26.87 140.16 80.32 241.17z" opacity="0"/>
  <mask id="msk_left">
    <path id="l_path" stroke-dasharray="1224" stroke-dashoffset="1224" stroke="#fff" stroke-width="100" d="M404.53 490.74s-63.55 48.43-141.99 39.91c-85.38-9.28-140.13-21.34-213.45-127.14S33.31 160.36 79.71 100.97 231.91-3.9 302.44 14.66s153.13 72.39 198.6 127.14"/>
  </mask>
</a>

<a id="click_right" href="javascript:;">
  <g id="logo_tim" fill="#DD0F2D">
    <path d="M653.23 251.14c.88 1.24.79 2.82 1.23 4.23l-.71.62c-10.5.26-19.85.79-30.35 1.59.53 2.03 3.35 3.53 2.56 6.09-5.12 10.5-9.35 21.44-13.85 32.3-.7.62-1.68.26-2.29-.27-1.32-1.5-4.59-2.47-3.53-4.94 4.68-11.03 9.36-21.97 15-32.56-5.91.18-11.47.97-17.47 1.41l-.26-.17 2.12-4.77c15.52-2.29 31.22-3.7 47.55-3.53"/>
    <path d="M641.23 263.14c.35 1.15.27 2.74-.35 3.79-.88 1.24-2.21 2.21-3.71 2.29-1.68.26-3.26-.53-3.97-2.12-.53-1.32-.88-3.27-.09-4.68.53-1.15 1.85-1.77 3-2.12 2.12-.07 4.23.73 5.12 2.84"/>
    <path d="M631.79 270.82c1.15 1.59 3.97 2.91 3.44 5.12-2.47 4.77-4.94 9.44-6.62 14.47 2.82-1.41 5.47-4.14 7.94-6.53 3.88-3.97 7.5-8.03 10.94-12.17 1.76.44 3.35 2.03 4.41 3.26-1.94 3.97-4.15 7.94-5.91 12l13.85-13.59c1.59.97 4.06 2.47 4.15 4.41-2.29 3.17-4.06 6.62-5.47 10.06l13.76-12.27c1.77-.18 3.18 2.03 4.32 3.44-2.47 4.32-6.18 8.2-5.91 13.5.44 1.14 1.67 1.14 2.47 1.06-.62 1.23-1.86 2.3-3.18 2.56-1.68.44-3.09-.26-4.41-1.06-3.44-4.5 1.15-8.91 3-12.88-4.94 3.17-9.27 8.29-13.23 12.53-1.77-.79-3.18-2.3-4.68-3.35l.09-1.41c1.85-3.09 3.53-6.27 5.47-9.27l-.53.09c-4.5 4.14-9.17 8.47-12.97 13.32-1.94.35-3.35-1.23-4.85-2.12l-.27-.53c1.5-3.62 3.44-7.06 4.85-10.59-4.94 4.59-9.62 9.88-15.18 12.97-2.12.27-3.18-2.03-4.77-3.17l-.35-.71c2.38-6.62 4.68-13.41 8.82-19.24l.82.1"/>
    <path d="M780.02 280.35c-2.82 3-5.56 6.36-4.23 10.59.44 1.24 1.67 2.12 3 2.03 4.23-.62 6.18-5.38 7.05-8.82-1.15.18-2.12-.18-3.09-.53-1.32-.62-2.2-2.12-2.73-3.27m-52.41-2.03c-2.64 2.03-4.68 4.68-5.29 7.68-.27 1.58 0 3.08 1.06 4.23.71.8 1.76 1.06 2.91.97 4.24-.8 6.7-5.47 7.41-9.27l-1.77-.09c-1.94.19-3.7-2.02-4.32-3.52zm-28.15-3c3.18 1.94 4.85 5.38 6.17 8.29 1.24-3 2.47-6.18 3.44-9.18-3.17.27-6.61.27-9.61.89zm6.88-22.15l-8.29 19.15c3.97.18 8.21-.27 12.35-.44 3.09-6.62 5.82-13.41 9.53-19.85 1.85-1.41 3.18 1.41 4.59 2.29l.26.71c-2.73 5.47-5.47 10.94-7.85 16.58 6.7.8 16.77-2.47 20.03 4.85.26.53-.09 1.23.26 1.68 4.59-2.47 8.21-7.15 10.94-11.2 1.94.53.35 2.29.97 3.79.09 1.06.97 2.03 1.85 2.47.79.27 2.03-.18 2.29.79-1.59 3.98-4.23 7.5-5.82 11.38-.79 1.94-2.21 3.97-1.32 6.18.71.97 2.03.62 2.91.26 7.68-5.74 9.88-14.56 13.94-22.23.09-.17-.18-.26-.18-.35l-5.2.26c-.36-.97.62-1.76 1.32-2.38l5.29-.53c1.76-3.26 3-6.71 5.03-9.97 1.86.62 3.71 2.65 4.23 4.5-.44 1.77-1.76 3.26-2.12 4.85 5.92-.18 12.09-.89 18.27-.62.62.88.71 1.94.88 2.91-7.06.26-13.77.44-20.74.71-3.53 7.06-6.88 14.29-9.61 21.71-.18.89 0 1.94 1.06 2.21 3.26-.26 5.91-2.91 7.94-5.56 1.95-5.56 5.21-12.79 11.92-14.29 2.73-.44 5.11.53 6.97 2.47 1.41 1.68 2.21 3.53 2.03 5.83 3.88-1.15 6.97-4.23 10.14-7.06 1.85.36 2.83 2.47 3.97 3.71l-.35 1.58c-1.59 2.56-2.91 5.38-4.15 8.12 4.5-3.8 9.35-8.38 13.77-12.35 1.68.62 3 2.56 3 4.23-2.3 3.71-4.15 7.59-4.95 11.92 0 1.06-.35 2.2.71 2.91l1.06-.27c6-7.32 10.06-15.62 17.29-22.24 1.24 1.59 2.82 3.71 2.48 5.82-5.04 5.74 4.5 11.65-1.77 17.03-2.21 2.21-5.56 2.21-8.38 1.32-1.06-.44-2.29-.88-2.91-1.94.53-1.41 1.15-3 2.38-3.97.27 1.67.36 3.7 2.21 4.59 1.14.44 2.38-.18 2.91-1.24 1.41-3.79-2.65-6-1.86-9.97.18-1.68.89-3.35 1.23-4.85-4.76 5.2-8.03 11.03-12 16.59-1.32 1.33-3.09 1.76-4.85 1.5-1.5-.18-2.82-1.06-3.44-2.38-1.32-3.71-.44-8.21 1.76-11.47l-.71.18c-4.15 3.97-8.39 8.12-12.18 12.17-1.76-.26-3.17-2.03-4.24-3.44 1.5-4.23 3.71-8.12 6-12-2.38 1.23-4.94 2.56-7.59 3.53-1.5 5.56-5.65 11.91-11.73 13.32-2.38.62-5.38 0-7.15-2.21-1.06-1.14-1.32-2.65-1.94-3.97-3.35 3.26-7.5 6.27-12.18 4.41-2.03-1.23-2.21-3.62-2.03-5.73-2.65 3.62-6.36 6.09-10.85 5.82-1.68-.18-3.53-.71-4.24-2.47-1.15-6.45 3.26-11.65 6.71-16.68-.26-.71-.44-1.41-.79-2.03-2.73 2.38-5.38 5.29-8.56 6.79-.88 6.36-5.03 13.86-11.91 15.36-2.39.08-4.5-.36-6.27-1.77-2.82-2.38-3.35-6.35-2.38-9.88 1.15-3.97 4.06-7.68 7.59-10.23l-.27-.26-7.85.17c-3.35 7.15-6.71 14.29-9.27 21.71-.26.62-.97.62-1.41.44-4.59-1.24-.97-5.82-2.38-8.82-.71-3.97-2.65-7.94-6.53-10.06l-.35.18c-2.65 6.09-5.2 12.35-8.03 18.26h-.71c-1.68-1.59-5.12-3.26-3.88-6.09l6.09-13.94c-.79-.53-2.91.09-2.56-1.68 1.06-1.41 3.53-.17 4.15-1.85l9.97-22.76c.53-.53 1.23-.53 1.77 0 1.27 1.24 3.12 2.03 3.73 3.79z"/>
    <path d="M835.06 294.38a1.985 1.985 0 113.971.009 1.985 1.985 0 01-3.971-.009m-.43 0c0 1.33 1.08 2.42 2.42 2.42 1.33 0 2.41-1.08 2.41-2.42 0-1.33-1.09-2.41-2.41-2.41-1.34 0-2.42 1.08-2.42 2.41zm1.99-.96h.37c.31-.01.66.01.66.38s-.35.39-.66.39h-.37v-.77zm-.5 2.33h.51v-1.13h.37l.69 1.13h.54l-.72-1.17c.38-.04.66-.28.66-.76 0-.53-.31-.83-.98-.83h-1.06l-.01 2.76z"/>
  </g>
  <use xlink:href="#right_part" mask="url(#msk_right)"/>
  <path d="M441.2 86.37s43.57-68.27 143.07-75.53 218.59 55.92 278.15 158.32 27.6 214.24-66.81 289.04-249.1 109.66-353.67 13.07c47.93-35.59 108.93-90.05 108.21-194.63-.92-130.03-89.35-176.48-108.95-190.27z" opacity="0"/>
  <mask id="msk_right">
    <path id="r_path" stroke-dasharray="1208" stroke-dashoffset="1208" stroke="#fff" stroke-width="100" d="M476.91 49.93s62.18-43.62 137.35-38.98 122.5 37.12 180.04 87.23c57.54 50.11 112.29 109.51 91.88 219.02-20.42 109.51-127.14 176.33-205.09 201.38-77.95 25.06-197.67.93-276.55-87.23"/>
  </mask>
</a>

<a id="click_middle" href="javascript:;">
  <g id="bttn_coffee_shop">
    <path id="bttn_bg" stroke="#333" stroke-width="2" fill="#333" d="M488.29 296.79h-80.97c-14.86 0-27.02-12.16-27.02-27.02s12.16-27.02 27.02-27.02h80.97c14.86 0 27.02 12.16 27.02 27.02s-12.16 27.02-27.02 27.02z"/>
    <g id="bttn_text" fill="#FFF">
      <path d="M423.1 258.48c-.49-.27-.96-.41-1.42-.41-.5 0-.95.13-1.36.38s-.73.61-.96 1.06c-.23.45-.35.96-.35 1.53 0 .57.12 1.07.35 1.53.23.45.55.81.96 1.07.41.26.86.39 1.36.39.43 0 .88-.12 1.37-.35.49-.23.92-.55 1.3-.96l1.92 2.05c-.61.66-1.34 1.19-2.2 1.58s-1.71.59-2.55.59c-1.12 0-2.13-.25-3.03-.76-.9-.51-1.61-1.21-2.12-2.1-.51-.9-.77-1.9-.77-3.01 0-1.09.26-2.07.78-2.95s1.24-1.57 2.16-2.07c.92-.5 1.95-.75 3.09-.75.84 0 1.69.18 2.53.54.84.36 1.55.85 2.11 1.46l-1.92 2.29c-.35-.47-.77-.84-1.25-1.11z"/>
      <path d="M435.71 256.06c.93.5 1.66 1.19 2.19 2.07.53.88.79 1.87.79 2.97 0 1.11-.26 2.11-.79 3-.53.89-1.26 1.59-2.19 2.1-.93.51-1.98.76-3.13.76-1.16 0-2.21-.25-3.14-.76a5.577 5.577 0 01-2.18-2.1c-.53-.89-.79-1.89-.79-3 0-1.1.26-2.09.79-2.97.53-.88 1.26-1.57 2.18-2.07.93-.5 1.97-.75 3.14-.75 1.15 0 2.19.25 3.13.75zm-4.45 2.41c-.42.27-.76.63-1.01 1.1-.25.46-.38.98-.38 1.54 0 .57.13 1.08.38 1.55s.59.84 1.01 1.11c.42.27.88.41 1.37.41.48 0 .93-.14 1.34-.41s.73-.64.97-1.1c.23-.46.35-.98.35-1.56 0-.56-.12-1.08-.35-1.54-.23-.46-.55-.83-.96-1.1-.41-.27-.85-.4-1.34-.4s-.96.14-1.38.4z"/>
      <path d="M439.94 255.51h8.7v2.56h-5.38v2.24h4.99v2.56h-4.99v3.86h-3.33v-11.22z"/>
      <path d="M449.84 255.51h8.7v2.56h-5.38v2.24h4.99v2.56h-4.99v3.86h-3.33v-11.22z"/>
      <path d="M459.75 255.51h9.17v2.56h-5.84v1.76h5.3v2.56h-5.3v1.78h6v2.56h-9.33v-11.22z"/>
      <path d="M470.67 255.51h9.17v2.56H474v1.76h5.3v2.56H474v1.78h6v2.56h-9.33v-11.22z"/>
      <path d="M431.63 275.23c-.71-.25-1.3-.37-1.76-.37-.29 0-.51.06-.68.17-.17.11-.25.27-.25.49 0 .3.16.53.48.7.32.17.83.34 1.52.54.79.22 1.44.45 1.95.68.51.23.96.58 1.34 1.05.38.47.57 1.09.57 1.86 0 .78-.21 1.44-.62 1.98s-.97.94-1.66 1.21c-.7.27-1.48.4-2.34.4-.96 0-1.92-.16-2.89-.49s-1.8-.77-2.5-1.34l1.25-2.53c.57.49 1.26.9 2.07 1.24.82.34 1.52.5 2.1.5.36 0 .65-.07.85-.21s.3-.34.3-.59c0-.31-.17-.55-.5-.71-.33-.17-.84-.34-1.54-.52-.78-.2-1.42-.41-1.94-.63-.51-.22-.95-.56-1.33-1.02-.37-.46-.56-1.06-.56-1.81 0-.73.19-1.36.58-1.9.38-.54.93-.95 1.62-1.24s1.51-.43 2.44-.43c.84 0 1.68.12 2.51.36.83.24 1.56.56 2.18.95l-1.23 2.56c-.59-.35-1.24-.65-1.96-.9z"/>
      <path d="M436.02 272.51h3.33v4.46h3.98v-4.46h3.33v11.22h-3.33v-4.18h-3.98v4.18h-3.33v-11.22z"/>
      <path d="M457.15 273.06c.93.5 1.66 1.19 2.19 2.07.53.88.79 1.87.79 2.97 0 1.11-.26 2.11-.79 3-.53.89-1.26 1.59-2.19 2.1-.93.51-1.98.76-3.13.76-1.16 0-2.21-.25-3.14-.76a5.577 5.577 0 01-2.18-2.1c-.53-.89-.79-1.89-.79-3 0-1.1.26-2.09.79-2.97.53-.88 1.26-1.57 2.18-2.07.93-.5 1.97-.75 3.14-.75 1.15 0 2.19.25 3.13.75zm-4.45 2.41c-.42.27-.76.63-1.01 1.1-.25.46-.38.98-.38 1.54 0 .57.12 1.08.38 1.55s.59.84 1.01 1.11c.42.27.88.41 1.37.41.48 0 .93-.14 1.34-.41.41-.27.73-.64.97-1.1.24-.46.35-.98.35-1.56 0-.56-.12-1.08-.35-1.54-.23-.46-.55-.83-.96-1.1s-.85-.4-1.34-.4-.96.14-1.38.4z"/>
      <path d="M469.83 273.55c.79.69 1.19 1.67 1.19 2.94 0 1.33-.4 2.37-1.19 3.1-.79.74-1.92 1.1-3.37 1.1l-1.76.02v3.01h-3.33V272.5h5.09c1.46.01 2.58.36 3.37 1.05zm-2.36 4.2c.27-.27.41-.65.41-1.15 0-.49-.14-.87-.41-1.13-.27-.26-.66-.39-1.16-.39h-1.6v3.07h1.6c.5 0 .88-.14 1.16-.4z"/>
    </g>
  </g>
  <use xlink:href="#middle_part" mask="url(#msk_mdl)"/>
  <path d="M436.23 466.61s-94.19-61.28-82.17-204.77c10.27-122.61 84.09-171.39 84.09-171.39 22.47 11.55 96.93 48.14 109.13 172.68S454.2 460.19 436.23 466.61z" opacity="0"/>
  <mask id="msk_mdl">
    <path id="m_path" stroke-dasharray="759" stroke-dashoffset="759" stroke="#fff" stroke-width="20" d="M498.26 138.09s51.16 46.44 49.68 143.04c-1.26 82.63-47.83 151.15-100.72 175.28-52.46-16.01-87.35-68.8-94.66-167.97-6.35-86.25 56.82-173.33 56.82-173.33"/>
  </mask>
</a>

<script>
<![CDATA[

]]>
</script>

</svg>
