<?xml version="1.0" encoding="utf-8"?>
<!-- Generator: Adobe Illustrator 25.0.0, SVG Export Plug-In . SVG Version: 6.00 Build 0)  -->
<svg version="1.1" id="Layer_1" xmlns="http://www.w3.org/2000/svg" xmlns:xlink="http://www.w3.org/1999/xlink" x="0px" y="0px"
	 viewBox="0 0 500 2570" style="enable-background:new 0 0 500 2570;" xml:space="preserve">
<style type="text/css">
	.st0{opacity:0.1;fill:#666666;enable-background:new    ;}
	.st1{fill:#33323C;}
	.st2{fill:#9BCD7B;}
	.st3{opacity:0.1;enable-background:new    ;}
	.st4{opacity:0.2;enable-background:new    ;}
	.st5{fill:#3D4543;}
	.st6{fill:#2E6AA0;}
</style>
<circle class="st0" cx="251.5" cy="1055.5" r="169.5"/>
<circle class="st0" cx="261.5" cy="1055.5" r="169.5"/>
<g>
	<path class="st1" d="M312.8,1019.9v-3.8c0-5.8-4.7-10.5-10.5-10.5H152.9c-5.8,0-10.5,4.7-10.5,10.5v7L312.8,1019.9z"/>
	<path class="st2" d="M194.4,1001.2c0,0-0.4,26.5,4.3,35.2s6.7,46.6,6.7,46.6s49.2,5.1,83.4-6.1s107.2-15.8,107.2-15.8l-12.3-82.8
		c0,0-60.7-3.9-95.2,12.6S194.4,1001.2,194.4,1001.2z"/>
	<path class="st3" d="M194.4,1001.2c0,0-0.4,26.5,4.3,35.2s6.7,46.6,6.7,46.6s49.2,5.1,83.4-6.1s107.2-15.8,107.2-15.8l-12.3-82.8
		c0,0-60.7-3.9-95.2,12.6S194.4,1001.2,194.4,1001.2z"/>
	<path class="st2" d="M205.3,1010.9c0,0-1.5,21.8,2.3,28.8s4,38.1,4,38.1s44.2,2.1,75.7-8.7s97.6-17.7,97.6-17.7l-7.5-67.7
		c0,0-54.7-0.6-86.7,14.5S205.3,1010.9,205.3,1010.9z"/>
	
		<ellipse transform="matrix(0.9923 -0.1236 0.1236 0.9923 -125.3868 43.427)" class="st3" cx="287.3" cy="1032.2" rx="11.5" ry="24.6"/>
	<path class="st4" d="M350.4,938c0,0-59,14.9-86.8,41.2s-86.3,38.7-86.3,38.7s7.7,25.3,14.8,32.1s20.7,42.3,20.7,42.3
		s48.4-10.2,77.5-31.4s97.2-47.9,97.2-47.9L350.4,938z"/>
	<path class="st2" d="M176.4,1014.1c0,0,7.7,25.3,14.8,32.1s20.7,42.3,20.7,42.3s48.4-10.2,77.5-31.4s97.2-47.9,97.2-47.9l-37.1-75
		c0,0-59,14.9-86.8,41.2S176.4,1014.1,176.4,1014.1z"/>
	<path class="st3" d="M176.4,1014.1c0,0,7.7,25.3,14.8,32.1s20.7,42.3,20.7,42.3s48.4-10.2,77.5-31.4s97.2-47.9,97.2-47.9l-37.1-75
		c0,0-59,14.9-86.8,41.2S176.4,1014.1,176.4,1014.1z"/>
	<path class="st2" d="M189.8,1019.9c0,0,5.2,21.2,11.1,26.7s15.5,35,15.5,35s42.7-11.6,69.4-31.5s87.5-46.7,87.5-46.7l-27.9-62.2
		c0,0-52.3,16.2-78,40.4S189.8,1019.9,189.8,1019.9z"/>
	
		<ellipse transform="matrix(0.9065 -0.4221 0.4221 0.9065 -402.8659 210.6644)" class="st3" cx="274.3" cy="1015.1" rx="11.5" ry="24.6"/>
	<path class="st3" d="M316.8,1023.6v105.1c0,5-4.1,9.1-9.1,9.1l0,0H151.5c-5,0-9.1-4.1-9.1-9.1V1013c4.5,1.7,4.5,1.7,9.1,1.5h156.2
		C312.7,1014.6,316.8,1018.6,316.8,1023.6z"/>
	<path class="st5" d="M316.8,1025V1130c0,5-4.1,9.1-9.1,9.1H151.5c-5,0-9.1-4.1-9.1-9.1v-115.7c4.5,1.7,4.5,1.7,9.1,1.5h156.2
		C312.7,1015.9,316.8,1020,316.8,1025z"/>
	<path class="st3" d="M316.4,1063.8v33.6h-32.6c-9.3,0-16.8-7.5-16.8-16.8c0-9.3,7.5-16.8,16.8-16.8H316.4z"/>
	<path class="st1" d="M316.8,1062.9v33.6h-32.6c-9.3,0-16.8-7.5-16.8-16.8c0-9.3,7.5-16.8,16.8-16.8L316.8,1062.9z"/>
	<circle class="st3" cx="285.8" cy="1080.6" r="6.6"/>
	<circle class="st6" cx="286.2" cy="1079.7" r="6.6"/>
</g>
</svg>
