<svg xmlns="http://www.w3.org/2000/svg" fill-rule="evenodd" clip-rule="evenodd" viewBox="0 0 200 200" style="background: #000">
<style>
/* <![CDATA[ */

#a1, #a2, #a3, #a4, #a5, #a6, #a7, #a8, #a9, #a10, #a11, #a12, #a13, #a14, #a15, #a16, #a17, #a18, #a19, #a20, #a21, #a22, #a23, #a24, #a25, #a26, #a27, #a28, #a29, #a30, #a31, #a32, #a33, #a34, #a35, #a36, #a37, #a38, #a39, #a40, #a41, #a42, #a43, #a44, #a45, #a46, #a47, #a48 {
visibility: hidden;
animation-duration: 3s;
animation-iteration-count: infinite;
animation-timing-function: steps(1);
}

#a49 {
  animation: disap 3s ease-in infinite;
}
@keyframes disap {
  0%, 65.28% {
    visibility: hidden;
  }
  66.67%, 100% {
    visibility: visible;
    opacity: 1;
    transform: translate(100px, 100px) scale(1) rotate(0deg) translate(-100px, -100px);
  }
  95%, 100% {
    opacity: 0;
  }
  100% {
    transform: translate(100px, 100px) scale(0.5) rotate(200deg) translate(-100px, -100px);
  }
}

/* ]]> */
</style>
<defs>
    <linearGradient id="lnr1" x2="1">
      <stop offset="0" stop-color="#fdff00"/>
      <stop offset=".5" stop-color="#fee200"/>
      <stop offset="1" stop-color="#ffc600"/>
    </linearGradient>
    <linearGradient id="lnr2" x2="1">
      <stop offset="0" stop-color="#00dac6"/>
      <stop offset=".5" stop-color="#00c6ad"/>
      <stop offset="1" stop-color="#00b395"/>
    </linearGradient>
    <linearGradient id="lnr3" x2="1">
      <stop offset="0" stop-color="#182245"/>
      <stop offset=".5" stop-color="#233460"/>
      <stop offset="1" stop-color="#2f457b"/>
    </linearGradient>
    <linearGradient id="lnr4" x2="1">
      <stop offset="0" stop-color="#ff5126"/>
      <stop offset=".5" stop-color="#fd4852"/>
      <stop offset="1" stop-color="#fb407e"/>
    </linearGradient>
  </defs>
<path id="a1" fill="#8bc34a" d="M101.562 97.23c.999.563 1.618 1.624 1.618 2.77 0 1.744-1.435 3.18-3.18 3.18-1.744 0-3.18-1.436-3.18-3.18 0-1.731 1.412-3.16 3.142-3.18.58 0 1.13.14 1.6.4v.01zm-.58 1.03c.636.352 1.032 1.023 1.032 1.75 0 1.097-.903 2-2 2-1.098 0-2-.903-2-2 0-1.086.883-1.983 1.968-2 .36 0 .7.09 1 .25z"/>
<path id="a2" fill="#8bc34a" d="M105.002 91.111c3.207 1.804 5.198 5.209 5.198 8.889 0 5.596-4.604 10.2-10.2 10.2-5.595 0-10.2-4.604-10.2-10.2 0-5.551 4.532-10.135 10.082-10.199 1.86-.02 3.6.46 5.12 1.31zm-1.42 2.53c2.293 1.292 3.716 3.728 3.716 6.359 0 4.005-3.295 7.3-7.3 7.3s-7.3-3.295-7.3-7.3c0-3.972 3.242-7.253 7.214-7.299 1.285-.017 2.552.308 3.67.94z"/>
<path id="a3" fill="#8bc34a" d="M109.221 83.651c5.892 3.323 9.549 9.584 9.549 16.349 0 10.297-8.473 18.77-18.77 18.77-10.296 0-18.77-8.473-18.77-18.77 0-10.222 8.35-18.661 18.571-18.769 3.42-.03 6.64.85 9.42 2.42zm-2.09 3.7c4.57 2.567 7.408 7.417 7.408 12.659 0 7.965-6.554 14.52-14.52 14.52-7.965 0-14.52-6.555-14.52-14.52 0-7.902 6.451-14.428 14.352-14.519 2.64-.03 5.13.65 7.28 1.86z"/>
<path id="a4" fill="#8bc34a" d="M113.53 75.925c8.709 4.876 14.122 14.11 14.122 24.091 0 15.056-12.316 27.479-27.372 27.609-15.152.16-27.755-12.168-27.93-27.32-.16-15.156 12.175-27.761 27.33-27.93 4.849-.06 9.628 1.165 13.85 3.55zm-2.6 4.61c7.024 3.947 11.386 11.402 11.386 19.458 0 12.245-10.075 22.32-22.32 22.32-12.244 0-22.32-10.075-22.32-22.32 0-12.144 9.911-22.173 22.054-22.318 4.07-.05 7.9 1 11.2 2.86z"/>
<path id="a5" fill="#8bc34a" d="M117.315 69.19c11.134 6.245 18.051 18.056 18.051 30.822 0 19.254-15.737 35.147-34.991 35.338-19.389.204-35.516-15.572-35.74-34.96-.204-19.389 15.572-35.517 34.96-35.74 6.207-.079 12.325 1.488 17.73 4.54h-.01zm-3.01 5.36c9.184 5.164 14.888 14.915 14.888 25.451 0 15.901-12.988 29.029-28.888 29.199-16.015.165-29.334-12.865-29.52-28.88-.165-16.015 12.866-29.335 28.88-29.52 5.122-.062 10.17 1.232 14.63 3.75h.01z"/>
<path id="a6" fill="#8bc34a" d="M120.37 63.781c12.928 7.268 21.02 20.929 21.18 35.76.238 22.792-18.308 41.748-41.1 42.01-22.788.231-41.738-18.312-42-41.1-.237-22.79 18.31-41.744 41.1-42 7.288-.091 14.472 1.748 20.82 5.33zm-3.44 6.13c10.876 6.097 17.633 17.633 17.633 30.101 0 18.808-15.375 34.331-34.183 34.509-18.933.198-34.681-15.207-34.9-34.14-.198-18.934 15.207-34.682 34.14-34.9 6.056-.076 12.026 1.453 17.3 4.43h.01z"/>
<g id="a7">
  <path fill="none" stroke="url(#lnr1)" stroke-width="8" d="M45.785 87.802c.2-.9.43-1.82.68-2.72"/>
  <path fill="#8bc34a" d="M91.16 55.792c2.911-.583 5.872-.876 8.84-.876 24.708 0 45.04 20.332 45.04 45.04s-20.332 45.04-45.04 45.04-45.04-20.332-45.04-45.04c0-12.948 5.584-25.287 15.31-33.834 5.93-5.226 13.138-8.79 20.89-10.33zm1.5 7.48c2.417-.484 4.875-.727 7.339-.727 20.517 0 37.4 16.883 37.4 37.4s-16.883 37.4-37.4 37.4-37.4-16.883-37.4-37.4c0-10.751 4.636-20.996 12.711-28.093 4.925-4.341 10.912-7.301 17.35-8.58z"/>
</g>
<g id="a8">
  <path fill="none" stroke="url(#lnr1)" stroke-width="8" d="M44.665 105.432c-.215-2.113-.308-4.237-.28-6.36"/>
  <path fill="#8bc34a" d="M80.057 59.152c6.211-3.033 13.032-4.609 19.943-4.609 24.933 0 45.45 20.517 45.45 45.45 0 24.933-20.517 45.45-45.45 45.45-24.933 0-45.45-20.517-45.45-45.45 0-9.054 2.705-17.905 7.767-25.411 4.449-6.617 10.57-11.941 17.74-15.43zm3.46 7.08c5.133-2.506 10.77-3.808 16.482-3.808 20.61 0 37.57 16.959 37.57 37.57 0 20.61-16.96 37.57-37.57 37.57s-37.57-16.96-37.57-37.57c0-7.483 2.235-14.798 6.418-21.002 3.679-5.472 8.741-9.875 14.67-12.76z"/>
</g>
<g id="a9">
  <path fill="none" stroke="url(#lnr1)" stroke-width="8" d="M50.715 125.752c-1.788-3.38-3.222-6.936-4.28-10.61"/>
  <path fill="#8bc34a" d="M69.405 66.96C77.727 59.254 88.659 54.97 100 54.97c24.703 0 45.03 20.327 45.03 45.03s-20.327 45.03-45.03 45.03S54.97 124.703 54.97 100c0-4.516.679-9.006 2.015-13.32 2.325-7.552 6.607-14.357 12.41-19.72h.01zm5.44 5.88c6.843-6.343 15.837-9.87 25.167-9.87 20.309 0 37.02 16.711 37.02 37.02 0 20.308-16.711 37.02-37.02 37.02-20.309 0-37.02-16.712-37.02-37.02 0-3.709.557-7.397 1.653-10.94 1.99-6.44 5.58-11.94 10.2-16.21z"/>
</g>
<g id="a10">
  <path fill="none" stroke="url(#lnr1)" stroke-width="8" d="M66.405 144.232c-4.84-3.61-9.07-8-12.5-13"/>
  <path fill="#8bc34a" d="M61.361 78.828c7.723-14.094 22.568-22.888 38.64-22.888 24.17 0 44.06 19.89 44.06 44.06 0 24.171-19.89 44.06-44.06 44.06-23.806 0-43.527-19.293-44.05-43.092-.183-7.727 1.68-15.366 5.4-22.14h.01zm7.3 4c6.268-11.422 18.304-18.545 31.332-18.545 19.607 0 35.74 16.133 35.74 35.74 0 19.606-16.133 35.74-35.74 35.74-19.317 0-35.318-15.662-35.732-34.975-.143-6.27 1.375-12.467 4.4-17.96z"/>
</g>
<g id="a11">
  <path fill="none" stroke="url(#lnr1)" stroke-width="8" d="M90.855 154.652c-8.698-1.37-16.946-4.791-24.06-9.98"/>
  <path fill="#8bc34a" d="M58.196 93.117c3.356-20.382 21.151-35.487 41.808-35.487 23.243 0 42.37 19.126 42.37 42.37 0 23.243-19.127 42.37-42.37 42.37-17.607 0-33.459-10.974-39.658-27.453-2.625-6.95-3.367-14.472-2.15-21.8zm8.54 1.4c2.675-16.205 16.826-28.211 33.25-28.211 18.488 0 33.7 15.213 33.7 33.7 0 18.487-15.212 33.7-33.7 33.7-14.001 0-26.608-8.726-31.54-21.829-2.092-5.534-2.682-11.524-1.71-17.36z"/>
</g>
<g id="a12">
  <path fill="none" stroke="url(#lnr1)" stroke-width="8" d="M118.925 151.872c-11.323 4.273-23.741 4.715-35.34 1.26"/>
  <path fill="#8bc34a" d="M60.798 107.047c-.418-2.326-.628-4.684-.628-7.047 0-21.851 17.98-39.83 39.83-39.83 21.85 0 39.83 17.979 39.83 39.83 0 21.85-17.98 39.83-39.83 39.83-11.723 0-22.868-5.176-30.432-14.133-4.513-5.335-7.536-11.77-8.76-18.65h-.01zm9.24-1.66c-.319-1.777-.479-3.578-.479-5.383 0-16.709 13.75-30.46 30.46-30.46s30.46 13.751 30.46 30.46c0 16.71-13.75 30.46-30.46 30.46-8.97 0-17.496-3.962-23.281-10.817-3.451-4.079-5.763-9-6.7-14.26z"/>
</g>
<g id="a13">
  <path fill="none" stroke="url(#lnr1)" stroke-width="8" d="M142.505 134.852c-9.939 12.424-24.784 19.96-40.68 20.65"/>
  <path fill="#8bc34a" d="M68.048 117.954c-3.08-5.482-4.698-11.666-4.698-17.954 0-20.105 16.544-36.65 36.65-36.65 20.105 0 36.65 16.545 36.65 36.65 0 20.106-16.545 36.65-36.65 36.65-6.585 0-13.05-1.774-18.712-5.136-5.532-3.276-10.101-7.959-13.24-13.57v.01zm8.97-5.04c-2.205-3.936-3.363-8.373-3.363-12.885 0-14.461 11.899-26.36 26.36-26.36 14.46 0 26.36 11.899 26.36 26.36s-11.9 26.36-26.36 26.36c-4.744 0-9.4-1.28-13.477-3.705-3.979-2.36-7.264-5.731-9.52-9.77z"/>
</g>
<g id="a14">
  <path fill="none" stroke="#e24538" stroke-width="9" d="M128.295 111.032c-.2.57-.43 1.13-.67 1.68"/>
  <path fill="none" stroke="url(#lnr2)" stroke-width="19" d="M160.145 102.342c-.119 3.782-.591 7.545-1.41 11.24"/>
  <path fill="none" stroke="url(#lnr1)" stroke-width="8" d="M151.705 118.332c-5.312 15.542-17.299 27.925-32.66 33.74"/>
  <path fill="#8bc34a" d="M77.556 124.56c-6.894-6.3-10.826-15.221-10.826-24.56 0-18.251 15.019-33.27 33.27-33.27 18.251 0 33.27 15.019 33.27 33.27 0 18.252-15.019 33.27-33.27 33.27-2.409 0-4.811-.261-7.164-.78-5.703-1.249-10.976-3.985-15.28-7.93zm7.48-8.18c-4.593-4.2-7.213-10.146-7.213-16.37 0-12.167 10.012-22.18 22.18-22.18 12.167 0 22.18 10.013 22.18 22.18 0 12.168-10.013 22.18-22.18 22.18-1.607 0-3.208-.174-4.777-.52-3.805-.836-7.321-2.665-10.19-5.3v.01z"/>
</g>
<g id="a15">
  <path fill="none" stroke="#e24538" stroke-width="9" d="M130.265 100.202c.02 1.26-.04 2.5-.18 3.72"/>
  <path fill="none" stroke="url(#lnr2)" stroke-width="19" d="M152.845 71.472c4.076 7.442 6.537 15.662 7.22 24.12"/>
  <path fill="none" stroke="url(#lnr1)" stroke-width="8" d="M154.745 102.202c-.496 16.409-8.294 31.768-21.25 41.85"/>
  <path fill="#8bc34a" d="M87.14 127.247c-10.525-4.968-17.27-15.609-17.27-27.248 0-16.529 13.601-30.13 30.13-30.13 16.529 0 30.13 13.601 30.13 30.13 0 15.595-12.108 28.744-27.65 30.028-5.47.45-10.72-.59-15.34-2.78zm5.15-10.9c-6.319-2.977-10.37-9.362-10.37-16.348 0-9.913 8.157-18.07 18.07-18.07s18.07 8.157 18.07 18.07c0 9.348-7.254 17.232-16.57 18.008-3.28.27-6.43-.35-9.2-1.67v.01z"/>
</g>
<g id="a16">
  <path fill="none" stroke="#e24538" stroke-width="9" d="M128.235 89.302l.18.47c.7 1.87 1.21 3.77 1.54 5.67"/>
  <path fill="none" stroke="url(#lnr2)" stroke-width="19" d="M131.245 48.772c11.588 7.017 20.482 17.736 25.24 30.42"/>
  <path fill="none" stroke="url(#lnr1)" stroke-width="8" d="M153.185 87.002c4.037 15.917.759 32.832-8.93 46.09"/>
  <path fill="#8bc34a" d="M95.549 127.085c-13.208-2.17-22.999-13.701-22.999-27.087 0-15.059 12.391-27.45 27.45-27.45s27.45 12.391 27.45 27.45c0 11.401-7.102 21.667-17.771 25.687-4.503 1.704-9.379 2.188-14.13 1.4zm2.06-12.59c-7.072-1.163-12.315-7.338-12.315-14.505 0-8.065 6.636-14.7 14.7-14.7 8.065 0 14.7 6.635 14.7 14.7 0 6.104-3.802 11.602-9.515 13.755-2.5.95-5.1 1.16-7.56.75h-.01z"/>
</g>
<g id="a17">
  <path fill="none" stroke="#e24538" stroke-width="9" d="M122.375 79.792c2.214 2.404 4.03 5.145 5.38 8.12"/>
  <path fill="none" stroke="url(#lnr2)" stroke-width="19" d="M101.835 39.972c18.912.604 36.488 10.04 47.44 25.47"/>
  <path fill="none" stroke="url(#lnr1)" stroke-width="8" d="M148.085 73.842c7.947 14.366 9.078 31.556 3.08 46.84"/>
  <path fill="#8bc34a" d="M102.367 125.089c-.787.074-1.577.111-2.367.111-13.825 0-25.2-11.375-25.2-25.2 0-13.824 11.375-25.2 25.2-25.2 13.824 0 25.2 11.376 25.2 25.2 0 8.158-3.961 15.827-10.613 20.549-3.601 2.564-7.818 4.131-12.22 4.54zm-1.25-13.25c-.369.035-.741.052-1.112.052-6.528 0-11.9-5.372-11.9-11.9 0-6.528 5.372-11.9 11.9-11.9 6.528 0 11.9 5.372 11.9 11.9 0 3.855-1.873 7.478-5.018 9.708-1.7 1.21-3.691 1.948-5.77 2.14z"/>
</g>
<g id="a18">
  <path fill="none" stroke="#e24538" stroke-width="9" d="M113.425 73.012c4.169 2.041 7.819 5.007 10.67 8.67"/>
  <path fill="none" stroke="url(#lnr2)" stroke-width="19" d="M72.695 46.342c21.954-11.024 48.528-7.675 67.06 8.45"/>
  <path fill="none" stroke="url(#lnr1)" stroke-width="8" d="M140.555 63.242c11.098 12.1 16.233 28.545 13.99 44.81"/>
  <path fill="#8bc34a" d="M107.577 122.087c-2.438.836-4.999 1.263-7.577 1.263-12.809 0-23.35-10.54-23.35-23.35 0-12.809 10.541-23.35 23.35-23.35 12.809 0 23.35 10.541 23.35 23.35 0 5.637-2.041 11.087-5.743 15.337-2.686 3.094-6.143 5.423-10.02 6.75h-.01zm-4.5-13.1c-.994.341-2.037.516-3.088.516-5.212 0-9.5-4.289-9.5-9.5 0-5.212 4.288-9.5 9.5-9.5 5.211 0 9.5 4.288 9.5 9.5 0 2.29-.829 4.505-2.332 6.234-1.094 1.257-2.502 2.203-4.08 2.74v.01z"/>
</g>
<g id="a19">
  <path fill="none" stroke="#e24538" stroke-width="9" d="M102.515 69.932c6.25.505 12.195 2.925 17.02 6.93"/>
  <path fill="none" stroke="url(#lnr2)" stroke-width="19" d="M50.785 65.072c17.777-24.692 51.517-32.385 78.24-17.84"/>
  <path fill="none" stroke="url(#lnr1)" stroke-width="8" d="M131.625 55.302c13.45 9.42 22.013 24.372 23.33 40.74"/>
  <path fill="#8bc34a" d="M111.375 118.609c-3.424 2.093-7.361 3.201-11.375 3.201-11.964 0-21.81-9.845-21.81-21.81 0-11.964 9.846-21.81 21.81-21.81 11.965 0 21.81 9.846 21.81 21.81 0 3.643-.913 7.229-2.655 10.429-1.825 3.365-4.51 6.188-7.78 8.18zm-7.38-12.08c-1.199.73-2.577 1.116-3.981 1.116-4.202 0-7.66-3.458-7.66-7.66s3.458-7.66 7.66-7.66 7.66 3.458 7.66 7.66c0 1.284-.323 2.547-.939 3.674-.643 1.182-1.589 2.172-2.74 2.87z"/>
</g>
<g id="a20">
  <path fill="none" stroke="#e24538" stroke-width="9" d="M91.155 71.102c7.782-2.386 16.203-1.557 23.37 2.3"/>
  <path fill="none" stroke="url(#lnr3)" stroke-width="30" d="M34.045 96.392c.04-.72.1-1.44.17-2.15"/>
  <path fill="none" stroke="url(#lnr2)" stroke-width="19" d="M40.545 88.792c5.544-28.361 30.626-49.015 59.524-49.015 6.06 0 12.086.909 17.876 2.695"/>
  <path fill="none" stroke="url(#lnr1)" stroke-width="8" d="M122.095 49.872c15.052 6.564 26.411 19.519 30.95 35.3"/>
  <path fill="#8bc34a" d="M113.995 115.068c-3.798 3.523-8.792 5.482-13.973 5.482-11.274 0-20.55-9.277-20.55-20.55 0-11.273 9.276-20.55 20.55-20.55 11.273 0 20.55 9.277 20.55 20.55 0 2.057-.309 4.102-.917 6.068-1.059 3.446-3.012 6.552-5.66 9zm-9.98-10.76c-1.084 1.003-2.509 1.561-3.986 1.561-3.22 0-5.87-2.65-5.87-5.87s2.65-5.87 5.87-5.87 5.87 2.65 5.87 5.87c0 .59-.089 1.176-.264 1.739-.303.984-.862 1.871-1.62 2.57z"/>
</g>
<g id="a21">
  <path fill="none" stroke="#e24538" stroke-width="9" d="M81.015 76.392c7.981-6.377 18.652-8.34 28.38-5.22"/>
  <path fill="none" stroke="url(#lnr3)" stroke-width="30" d="M39.085 125.832c-2.617-6.231-4.256-12.829-4.86-19.56"/>
  <path fill="none" stroke="url(#lnr2)" stroke-width="19" d="M39.465 99.772c.329-33.042 27.604-60.047 60.647-60.047 2.344 0 4.685.136 7.013.407"/>
  <path fill="none" stroke="url(#lnr1)" stroke-width="8" d="M112.565 46.642c15.992 3.718 29.516 14.391 36.85 29.08"/>
  <path fill="#8bc34a" d="M115.675 111.636c-3.676 4.944-9.486 7.864-15.648 7.864-10.697 0-19.5-8.803-19.5-19.5s8.803-19.5 19.5-19.5c10.698 0 19.5 8.803 19.5 19.5 0 .757-.044 1.514-.132 2.266-.391 3.396-1.675 6.63-3.72 9.37zm-12.08-9c-.835 1.127-2.157 1.793-3.559 1.793-2.431 0-4.43-2-4.43-4.43 0-2.43 1.999-4.43 4.43-4.43 2.43 0 4.43 2 4.43 4.43 0 .173-.011.345-.031.517-.1.8-.4 1.53-.84 2.13v-.01z"/>
</g>
<g id="a22">
  <path fill="none" stroke="#e24538" stroke-width="9" d="M73.545 85.062c6.212-10.861 18.483-16.867 30.87-15.11"/>
  <path fill="none" stroke="url(#lnr3)" stroke-width="30" d="M55.445 149.012c-9.17-8.4-16-19.39-19.28-31.87"/>
  <path fill="none" stroke="url(#lnr2)" stroke-width="19" d="M40.245 109.852c-.504-3.159-.757-6.354-.757-9.553 0-32.079 25.452-58.894 57.487-60.567"/>
  <path fill="none" stroke="url(#lnr1)" stroke-width="8" d="M103.435 45.252c16.39.987 31.511 9.245 41.2 22.5"/>
  <path fill="#8bc34a" d="M116.635 108.449c-3.174 6.237-9.605 10.181-16.604 10.181-10.22 0-18.63-8.41-18.63-18.63 0-10.22 8.41-18.63 18.63-18.63 9.85 0 18.085 7.812 18.604 17.649.18 3.39-.56 6.61-2 9.43zm-13.4-6.84c-.609 1.207-1.852 1.972-3.205 1.972-1.969 0-3.59-1.621-3.59-3.59 0-1.969 1.621-3.59 3.59-3.59 1.897 0 3.484 1.504 3.585 3.398.03.65-.1 1.27-.39 1.81h.01z"/>
</g>
<g id="a23">
  <path fill="none" stroke="url(#lnr1)" stroke-width="9" d="M69.695 103.652c-.05-.47-.1-.94-.12-1.4"/>
  <path fill="none" stroke="#e24538" stroke-width="9" d="M69.965 94.892c2.559-14.419 15.108-25.091 29.75-25.3"/>
  <path fill="none" stroke="url(#lnr3)" stroke-width="30" d="M78.545 162.722c-17.451-6.039-31.607-19.107-39.02-36.02"/>
  <path fill="none" stroke="url(#lnr2)" stroke-width="19" d="M42.445 118.872c-1.942-6.018-2.93-12.303-2.93-18.627 0-28.605 20.233-53.512 48.23-59.373"/>
  <path fill="none" stroke="url(#lnr1)" stroke-width="8" d="M94.945 45.332c16.35-1.539 32.562 4.304 44.17 15.92"/>
  <path fill="#8bc34a" d="M117.065 105.583c-2.407 7.347-9.307 12.347-17.038 12.347-9.837 0-17.93-8.094-17.93-17.93s8.093-17.93 17.93-17.93c8.453 0 15.814 5.979 17.548 14.253.67 3.2.44 6.37-.51 9.26zm-14.61-4.8c-.34 1.048-1.323 1.763-2.425 1.763-1.399 0-2.55-1.151-2.55-2.55 0-1.399 1.151-2.55 2.55-2.55 1.202 0 2.249.85 2.495 2.027.1.45.07.9-.07 1.31z"/>
</g>
<g id="a24">
  <path fill="none" stroke="url(#lnr1)" stroke-width="9" d="M74.805 117.392c-2.24-3.297-3.816-7-4.64-10.9"/>
  <path fill="none" stroke="#e24538" stroke-width="9" d="M69.525 99.142c.497-14.635 11.415-26.97 25.88-29.24"/>
  <path fill="none" stroke="url(#lnr3)" stroke-width="30" d="M103.615 166.202c-24.093 1.235-47.03-10.775-59.74-31.28"/>
  <path fill="none" stroke="url(#lnr2)" stroke-width="19" d="M45.645 126.762c-4.036-8.279-6.134-17.369-6.134-26.58 0-25.467 16.041-48.343 39.984-57.02"/>
  <path fill="none" stroke="url(#lnr1)" stroke-width="8" d="M87.265 46.552c15.97-3.825 32.841-.324 45.97 9.54"/>
  <path fill="#8bc34a" d="M117.105 103.039c-1.467 8.246-8.706 14.311-17.082 14.311-9.517 0-17.35-7.832-17.35-17.35s7.833-17.35 17.35-17.35c7.286 0 13.83 4.589 16.312 11.439 1.042 2.863 1.308 5.951.77 8.95zm-15.28-2.72c-.157.867-.919 1.503-1.8 1.503-1.004 0-1.83-.826-1.83-1.83s.826-1.83 1.83-1.83c.768 0 1.459.484 1.72 1.207.11.32.14.64.08.95z"/>
</g>
<g id="a25">
  <path fill="none" stroke="url(#lnr1)" stroke-width="9" d="M85.615 127.072c-6.731-3.602-11.869-9.604-14.39-16.81"/>
  <path fill="none" stroke="#e24538" stroke-width="9" d="M69.645 103.062c-1.404-14.579 7.827-28.227 21.88-32.35"/>
  <path fill="none" stroke="url(#lnr3)" stroke-width="30" d="M126.715 160.662c-27.153 11.9-59.146 4.177-77.88-18.8"/>
  <path fill="none" stroke="url(#lnr2)" stroke-width="19" d="M49.545 133.542C43 123.628 39.51 112.006 39.51 100.127c0-22.636 12.672-43.462 32.775-53.865"/>
  <path fill="none" stroke="url(#lnr1)" stroke-width="8" d="M80.435 48.622c15.337-5.86 32.516-4.576 46.81 3.5"/>
  <path fill="#8bc34a" d="M116.895 100.761c-.404 8.975-7.898 16.139-16.883 16.139-9.271 0-16.9-7.628-16.9-16.9 0-9.271 7.629-16.9 16.9-16.9 6.303 0 12.102 3.526 15.003 9.121 1.42 2.73 2.01 5.67 1.88 8.54zm-15.63-.72c-.03.674-.593 1.212-1.268 1.212-.697 0-1.27-.573-1.27-1.27 0-.697.573-1.27 1.27-1.27.474 0 .911.266 1.128.688.11.2.15.43.14.64z"/>
</g>
<g id="a26">
  <path fill="none" stroke="url(#lnr2)" stroke-width="9" d="M103.385 130.512c-2.3.25-4.63.23-6.91-.05"/>
  <path fill="none" stroke="url(#lnr1)" stroke-width="9" d="M89.325 128.722c-7.296-2.729-13.275-8.153-16.7-15.15"/>
  <path fill="none" stroke="#e24538" stroke-width="9" d="M70.195 106.612c-3.121-14.305 4.421-28.947 17.88-34.71"/>
  <path fill="none" stroke="url(#lnr3)" stroke-width="30" d="M145.205 148.452c-25.601 23.819-65.887 23.452-91.05-.83"/>
  <path fill="none" stroke="url(#lnr2)" stroke-width="19" d="M53.865 139.272c-9.27-10.95-14.361-24.842-14.361-39.19 0-20.074 9.966-38.891 26.571-50.17"/>
  <path fill="none" stroke="url(#lnr1)" stroke-width="8" d="M74.445 51.272c14.534-7.642 31.747-8.405 46.9-2.08"/>
  <path fill="#8bc34a" d="M116.495 98.339c.056.552.084 1.106.084 1.661 0 9.084-7.476 16.56-16.56 16.56-8.806 0-16.151-7.024-16.544-15.821-.011-.246-.016-.493-.016-.739 0-9.085 7.475-16.56 16.56-16.56 8.459 0 15.628 6.482 16.476 14.899zm-15.75 1.613c.001.016.002.033.002.05 0 .418-.344.761-.762.761-.399 0-.733-.313-.76-.711-.001-.017-.001-.034-.001-.05 0-.418.344-.762.761-.762.399 0 .734.314.76.712z"/>
</g>
<g id="a27">
  <path fill="none" stroke="url(#lnr2)" stroke-width="9" d="M113.415 127.612c-4.245 2.046-8.907 3.083-13.62 3.03"/>
  <path fill="none" stroke="url(#lnr1)" stroke-width="9" d="M92.495 129.682c-7.544-1.918-14.074-6.654-18.24-13.23"/>
  <path fill="none" stroke="#e24538" stroke-width="9" d="M71.075 109.792c-4.655-13.881 1.25-29.255 14-36.45"/>
  <path fill="none" stroke="url(#lnr3)" stroke-width="30" d="M157.915 132.152c-11.67 20.946-33.844 33.975-57.821 33.975-14.657 0-28.906-4.868-40.499-13.835"/>
  <path fill="none" stroke="url(#lnr2)" stroke-width="19" d="M58.395 144.032c-12.066-11.447-18.908-27.369-18.908-44.001 0-17.754 7.796-34.643 21.308-46.159"/>
  <path fill="none" stroke="url(#lnr1)" stroke-width="8" d="M69.275 54.322c13.614-9.179 30.639-11.814 46.39-7.18"/>
  <path fill="#8bc34a" d="M115.995 97.032c.179.972.269 1.958.269 2.946 0 8.942-7.358 16.3-16.3 16.3s-16.3-7.358-16.3-16.3 7.358-16.3 16.3-16.3c4.775 0 9.316 2.098 12.411 5.734 1.858 2.176 3.107 4.805 3.62 7.62"/>
</g>
<g id="a28">
  <path fill="none" stroke="url(#lnr2)" stroke-width="9" d="M121.575 121.812c-5.047 4.98-11.677 8.047-18.74 8.67"/>
  <path fill="none" stroke="url(#lnr1)" stroke-width="9" d="M95.485 130.262c-7.702-1.154-14.677-5.218-19.48-11.35"/>
  <path fill="none" stroke="#e24538" stroke-width="9" d="M72.175 112.612c-6.024-13.347-1.683-29.239 10.29-37.67"/>
  <path fill="none" stroke="url(#lnr4)" stroke-width="43" d="M172.135 107.992c-.37 3.36-.98 6.7-1.81 10"/>
  <path fill="none" stroke="url(#lnr3)" stroke-width="30" d="M162.165 122.792c-9.564 25.961-34.442 43.308-62.109 43.308-12.396 0-24.546-3.482-35.061-10.048"/>
  <path fill="none" stroke="url(#lnr2)" stroke-width="19" d="M62.985 147.942c-14.816-11.481-23.503-29.205-23.503-47.949 0-15.65 6.057-30.709 16.893-42.001"/>
  <path fill="none" stroke="url(#lnr1)" stroke-width="8" d="M64.845 57.592c12.63-10.489 29.306-14.808 45.44-11.77"/>
  <path fill="#8bc34a" d="M115.445 95.472c.422 1.456.635 2.965.635 4.482 0 8.848-7.281 16.13-16.13 16.13-8.848 0-16.13-7.282-16.13-16.13 0-8.849 7.282-16.13 16.13-16.13 4.165 0 8.172 1.613 11.175 4.498 2.041 1.958 3.528 4.422 4.31 7.14"/>
</g>
<g id="a29">
  <path fill="none" stroke="url(#lnr2)" stroke-width="9" d="M127.235 114.112c-4.349 8.378-12.351 14.279-21.64 15.96"/>
  <path fill="none" stroke="url(#lnr1)" stroke-width="9" d="M98.245 130.522c-7.773-.446-15.088-3.855-20.43-9.52"/>
  <path fill="none" stroke="#e24538" stroke-width="9" d="M73.435 115.072c-7.218-12.739-4.35-28.96 6.8-38.45"/>
  <path fill="none" stroke="url(#lnr4)" stroke-width="43" d="M171.595 88.192c1.267 7.703 1.287 15.56.06 23.27"/>
  <path fill="none" stroke="url(#lnr3)" stroke-width="30" d="M163.975 116.992c-7.722 28.856-34.068 49.078-63.939 49.078-10.343 0-20.544-2.425-29.781-7.078"/>
  <path fill="none" stroke="url(#lnr2)" stroke-width="19" d="M67.505 151.102c-17.448-11.129-28.039-30.447-28.039-51.143 0-13.742 4.67-27.084 13.239-37.827"/>
  <path fill="none" stroke="url(#lnr1)" stroke-width="8" d="M61.095 60.972c11.617-11.608 27.832-17.44 44.18-15.89"/>
  <path fill="#8bc34a" d="M114.921 94.143c.733 1.866 1.109 3.852 1.109 5.857 0 8.794-7.237 16.03-16.03 16.03-8.794 0-16.03-7.236-16.03-16.03S91.206 83.97 100 83.97c3.634 0 7.162 1.236 10.001 3.503 2.203 1.749 3.904 4.051 4.93 6.67"/>
</g>
<g id="a30">
  <path fill="none" stroke="url(#lnr2)" stroke-width="9" d="M130.165 105.542c-.761 4.088-2.351 7.978-4.67 11.43-4.104 6.138-10.3 10.581-17.43 12.5"/>
  <path fill="none" stroke="url(#lnr1)" stroke-width="9" d="M100.795 130.542c-7.786.207-15.362-2.579-21.16-7.78"/>
  <path fill="none" stroke="#e24538" stroke-width="9" d="M74.765 117.222c-8.258-12.093-6.756-28.497 3.56-38.89"/>
  <path fill="none" stroke="url(#lnr4)" stroke-width="43" d="M166.385 70.692c4.794 10.911 6.841 22.834 5.96 34.72"/>
  <path fill="none" stroke="url(#lnr3)" stroke-width="30" d="M165.145 111.562c-5.645 31.405-33.237 54.479-65.145 54.479-8.48 0-16.88-1.629-24.745-4.799"/>
  <path fill="none" stroke="url(#lnr2)" stroke-width="19" d="M71.875 153.612c-19.916-10.467-32.436-31.189-32.436-53.688 0-12.009 3.567-23.752 10.246-33.732"/>
  <path fill="none" stroke="url(#lnr1)" stroke-width="8" d="M57.955 64.332c10.609-12.535 26.28-19.699 42.7-19.52"/>
  <path fill="#8bc34a" d="M114.36 92.94c1.08 2.196 1.642 4.612 1.642 7.06 0 8.778-7.223 16.001-16.002 16.001-6.09 0-11.673-3.476-14.36-8.941-1.08-2.197-1.641-4.612-1.641-7.06 0-8.778 7.223-16.002 16.001-16.002 6.09 0 11.673 3.477 14.36 8.942"/>
</g>
<g id="a31">
  <path fill="none" stroke="url(#lnr2)" stroke-width="9" d="M130.515 97.022c.603 6.228-.728 12.494-3.81 17.94-3.623 6.436-9.464 11.342-16.43 13.8"/>
  <path fill="none" stroke="url(#lnr1)" stroke-width="9" d="M103.105 130.372c-7.749.804-15.52-1.395-21.7-6.14"/>
  <path fill="none" stroke="#e24538" stroke-width="9" d="M76.145 119.072c-9.156-11.424-8.912-27.893.58-39.04"/>
  <path fill="none" stroke="url(#lnr4)" stroke-width="43" d="M157.875 56.182c9.481 12.589 14.626 27.92 14.66 43.68"/>
  <path fill="none" stroke="url(#lnr3)" stroke-width="30" d="M165.835 106.542c-3.42 33.616-32.06 59.491-65.85 59.491-6.782 0-13.524-1.043-19.99-3.091"/>
  <path fill="none" stroke="url(#lnr2)" stroke-width="19" d="M76.025 155.582c-22.18-9.574-36.613-31.526-36.613-55.684 0-10.439 2.695-20.704 7.823-29.796"/>
  <path fill="none" stroke="url(#lnr1)" stroke-width="8" d="M55.345 67.622c9.622-13.309 24.703-21.647 41.09-22.72"/>
  <path fill="#8bc34a" d="M113.78 91.86c1.456 2.465 2.224 5.277 2.224 8.14 0 8.78-7.225 16.004-16.005 16.004-5.654 0-10.904-2.996-13.78-7.864-1.456-2.465-2.224-5.277-2.224-8.14 0-8.78 7.224-16.005 16.004-16.005 5.655 0 10.905 2.997 13.78 7.865"/>
</g>
<g id="a32">
  <path fill="none" stroke="url(#lnr2)" stroke-width="9" d="M128.715 89.232c2.892 7.751 2.513 16.353-1.05 23.82-3.168 6.669-8.654 11.966-15.43 14.9"/>
  <path fill="none" stroke="url(#lnr1)" stroke-width="9" d="M105.195 130.072c-7.675 1.334-15.578-.324-22.07-4.63"/>
  <path fill="none" stroke="#e24538" stroke-width="9" d="M77.505 120.672c-9.931-10.766-10.826-27.221-2.12-39"/>
  <path fill="none" stroke="url(#lnr4)" stroke-width="43" d="M147.395 44.992c14.591 12.633 23.57 30.568 24.94 49.82"/>
  <path fill="none" stroke="url(#lnr3)" stroke-width="30" d="M166.115 101.942c-1.139 35.491-30.646 64.066-66.156 64.066-5.243 0-10.467-.623-15.564-1.856"/>
  <path fill="none" stroke="url(#lnr2)" stroke-width="19" d="M79.925 157.092c-24.224-8.518-40.531-31.538-40.531-57.216 0-9.014 2.009-17.915 5.881-26.054"/>
  <path fill="none" stroke="url(#lnr1)" stroke-width="8" d="M53.195 70.772c8.676-13.935 23.135-23.293 39.4-25.5"/>
  <path fill="#8bc34a" d="M113.185 90.931c1.835 2.668 2.819 5.831 2.819 9.07-.001 8.778-7.225 16.002-16.005 16.002-5.263.001-10.202-2.596-13.185-6.933-1.835-2.668-2.818-5.831-2.818-9.069 0-8.779 7.224-16.004 16.003-16.004 5.264 0 10.202 2.597 13.185 6.934"/>
</g>
<g id="a33">
  <path fill="none" stroke="url(#lnr3)" stroke-width="9" d="M120.035 76.702c1.347 1.169 2.588 2.454 3.71 3.84"/>
  <path fill="none" stroke="url(#lnr2)" stroke-width="9" d="M127.905 87.292c3.433 7.586 3.618 16.255.51 23.98-2.738 6.856-7.875 12.491-14.45 15.85"/>
  <path fill="none" stroke="url(#lnr1)" stroke-width="9" d="M107.065 129.672c-7.575 1.81-15.563.65-22.31-3.24"/>
  <path fill="none" stroke="#e24538" stroke-width="9" d="M78.845 122.032c-10.587-10.116-12.52-26.476-4.58-38.78"/>
  <path fill="none" stroke="url(#lnr4)" stroke-width="43" d="M135.955 36.912c19.6 11.213 32.888 30.951 35.9 53.33"/>
  <path fill="none" stroke="url(#lnr3)" stroke-width="30" d="M166.095 97.752c.022.683.032 1.367.032 2.051 0 36.311-29.879 66.19-66.19 66.19-3.846 0-7.684-.335-11.472-1.001"/>
  <path fill="none" stroke="url(#lnr2)" stroke-width="19" d="M83.555 158.232c-26.052-7.357-44.174-31.306-44.174-58.377 0-7.722 1.475-15.374 4.344-22.543"/>
  <path fill="none" stroke="url(#lnr1)" stroke-width="8" d="M51.435 73.772c7.777-14.463 21.621-24.721 37.72-27.95"/>
  <path fill="#8bc34a" d="M112.58 90.11c2.217 2.819 3.422 6.303 3.422 9.89 0 8.778-7.223 16.002-16.002 16.002-4.905 0-9.548-2.256-12.58-6.112-2.216-2.82-3.422-6.304-3.422-9.89 0-8.779 7.224-16.002 16.002-16.002 4.906 0 9.549 2.255 12.58 6.112"/>
</g>
<g id="a34">
  <path fill="none" stroke="url(#lnr3)" stroke-width="9" d="M114.325 72.802c3.106 1.639 5.904 3.805 8.27 6.4"/>
  <path fill="none" stroke="url(#lnr2)" stroke-width="9" d="M127.125 85.702c3.861 7.376 4.54 16.02 1.88 23.91-2.344 7.003-7.154 12.922-13.53 16.65"/>
  <path fill="none" stroke="url(#lnr1)" stroke-width="9" d="M108.745 129.202c-7.461 2.246-15.507 1.548-22.47-1.95"/>
  <path fill="none" stroke="#e24538" stroke-width="9" d="M80.125 123.182c-11.143-9.496-14.003-25.716-6.78-38.45"/>
  <path fill="none" stroke="url(#lnr4)" stroke-width="43" d="M124.455 31.612c24.081 8.644 41.871 29.416 46.71 54.54"/>
  <path fill="none" stroke="url(#lnr3)" stroke-width="30" d="M165.845 93.972c.171 1.937.257 3.88.257 5.825 0 36.31-29.879 66.19-66.19 66.19-2.589 0-5.176-.152-7.747-.455"/>
  <path fill="none" stroke="url(#lnr2)" stroke-width="19" d="M86.895 159.052c-27.67-6.129-47.534-30.875-47.534-59.215 0-6.563 1.065-13.083 3.154-19.305"/>
  <path fill="none" stroke="url(#lnr1)" stroke-width="8" d="M50.005 76.572c6.939-14.885 20.178-25.918 36.07-30.06"/>
  <path fill="#8bc34a" d="M112 89.415c2.578 2.922 4.001 6.688 4.001 10.585 0 8.778-7.224 16.001-16.002 16.001-4.589 0-8.964-1.974-12-5.416-2.577-2.923-4.001-6.688-4.001-10.585 0-8.778 7.223-16.002 16.001-16.002 4.59 0 8.964 1.975 12 5.417"/>
</g>
<g id="a35">
  <path fill="none" stroke="url(#lnr3)" stroke-width="9" d="M108.215 70.352c5.008 1.393 9.576 4.044 13.27 7.7"/>
  <path fill="none" stroke="url(#lnr2)" stroke-width="9" d="M126.345 84.312c4.234 7.172 5.354 15.772 3.1 23.79-1.98 7.112-6.477 13.269-12.65 17.32"/>
  <path fill="none" stroke="url(#lnr1)" stroke-width="9" d="M110.215 128.702c-7.333 2.621-15.4 2.335-22.53-.8"/>
  <path fill="none" stroke="#e24538" stroke-width="9" d="M81.335 124.162c-11.622-8.911-15.313-24.968-8.75-38.06"/>
  <path fill="none" stroke="url(#lnr4)" stroke-width="43" d="M113.425 28.602c27.843 5.263 50.154 26.386 56.93 53.9"/>
  <path fill="none" stroke="url(#lnr3)" stroke-width="30" d="M165.445 90.592c.427 3.046.642 6.117.642 9.193 0 36.311-29.879 66.19-66.19 66.19-1.452 0-2.903-.048-4.352-.143"/>
  <path fill="none" stroke="url(#lnr2)" stroke-width="19" d="M89.935 159.642c-29.081-4.892-50.59-30.32-50.59-59.81 0-5.52.754-11.014 2.24-16.33"/>
  <path fill="none" stroke="url(#lnr1)" stroke-width="8" d="M48.865 79.152c6.168-15.215 18.818-26.907 34.47-31.86"/>
  <path fill="#8bc34a" d="M111.44 88.81c2.924 2.989 4.563 7.008 4.563 11.19-.001 8.779-7.225 16.003-16.004 16.003-4.302 0-8.43-1.737-11.439-4.813-2.925-2.989-4.563-7.009-4.563-11.19.001-8.779 7.224-16.003 16.002-16.003 4.305 0 8.432 1.736 11.441 4.813"/>
</g>
<g id="a36">
  <path fill="none" stroke="url(#lnr3)" stroke-width="9" d="M102.615 69.322c6.624.597 12.88 3.319 17.83 7.76"/>
  <path fill="none" stroke="url(#lnr2)" stroke-width="9" d="M125.585 83.112c4.559 6.965 6.077 15.5 4.2 23.61-1.651 7.195-5.86 13.551-11.84 17.88"/>
  <path fill="none" stroke="url(#lnr1)" stroke-width="9" d="M111.515 128.182c-7.203 2.959-15.273 3.049-22.54.25"/>
  <path fill="none" stroke="#e24538" stroke-width="9" d="M82.455 124.982c-12.015-8.367-16.44-24.232-10.49-37.61"/>
  <path fill="none" stroke="url(#lnr4)" stroke-width="43" d="M103.225 27.402c30.804 1.397 57.498 22.3 66.24 51.87"/>
  <path fill="none" stroke="url(#lnr3)" stroke-width="30" d="M164.935 87.572c.755 4.024 1.135 8.109 1.135 12.203 0 36.31-29.879 66.19-66.19 66.19-.435 0-.87-.005-1.305-.013"/>
  <path fill="none" stroke="url(#lnr2)" stroke-width="19" d="M92.685 160.032c-30.303-3.675-53.349-29.684-53.349-60.209 0-4.584.52-9.154 1.549-13.621"/>
  <path fill="none" stroke="url(#lnr1)" stroke-width="8" d="M47.945 81.512c5.465-15.484 17.569-27.746 32.98-33.41"/>
  <path fill="#8bc34a" d="M110.805 88.172c3.245 3.025 5.09 7.268 5.09 11.705 0 8.778-7.223 16.001-16.001 16.001-4.048 0-7.949-1.536-10.91-4.296-3.118-3.014-4.88-7.169-4.88-11.505 0-8.777 7.222-16 16-16 3.95 0 7.764 1.463 10.7 4.105"/>
</g>
<g id="a37">
  <path fill="none" stroke="url(#lnr3)" stroke-width="9" d="M97.215 69.312c8.042-.712 16.048 1.784 22.26 6.94"/>
  <path fill="none" stroke="url(#lnr2)" stroke-width="9" d="M124.865 82.062c4.84 6.773 6.705 15.24 5.16 23.42-1.354 7.26-5.3 13.787-11.1 18.36"/>
  <path fill="none" stroke="url(#lnr1)" stroke-width="9" d="M112.655 127.672c-7.074 3.255-15.134 3.678-22.51 1.18"/>
  <path fill="none" stroke="#e24538" stroke-width="9" d="M83.485 125.672c-12.348-7.868-17.418-23.54-12.02-37.15"/>
  <path fill="none" stroke="url(#lnr4)" stroke-width="43" d="M94.095 27.552c32.969-2.659 63.777 17.564 74.45 48.87"/>
  <path fill="none" stroke="url(#lnr3)" stroke-width="30" d="M164.355 84.902c1.124 4.875 1.691 9.862 1.691 14.865 0 35.779-29.01 65.413-64.781 66.175"/>
  <path fill="none" stroke="url(#lnr2)" stroke-width="19" d="M95.145 160.272c-31.361-2.501-55.837-29.007-55.837-60.468 0-3.748.347-7.488 1.037-11.172"/>
  <path fill="none" stroke="url(#lnr1)" stroke-width="8" d="M47.225 83.652c4.82-15.695 16.406-28.445 31.57-34.74"/>
  <path fill="#8bc34a" d="M110.424 87.856c3.541 3.038 5.581 7.478 5.581 12.144 0 8.78-7.225 16.005-16.006 16.005-3.823 0-7.523-1.37-10.425-3.86-3.54-3.039-5.58-7.479-5.58-12.145 0-8.781 7.225-16.006 16.005-16.006 3.824 0 7.524 1.37 10.425 3.861"/>
</g>
<g id="a38">
  <path fill="none" stroke="url(#lnr3)" stroke-width="9" d="M92.355 70.142c3.962-1.011 8.088-1.215 12.13-.6 5.32.8 10.12 2.93 14.11 6"/>
  <path fill="none" stroke="url(#lnr2)" stroke-width="9" d="M124.195 81.162c5.081 6.595 7.25 14.989 6 23.22-1.088 7.303-4.792 13.969-10.42 18.75"/>
  <path fill="none" stroke="url(#lnr1)" stroke-width="9" d="M113.645 127.192c-6.954 3.509-14.996 4.221-22.46 1.99"/>
  <path fill="none" stroke="#e24538" stroke-width="9" d="M84.425 126.242c-12.629-7.412-18.27-22.891-13.37-36.69"/>
  <path fill="none" stroke="url(#lnr4)" stroke-width="43" d="M86.145 28.622c34.42-6.655 68.98 12.561 81.49 45.31"/>
  <path fill="none" stroke="url(#lnr3)" stroke-width="30" d="M163.765 82.572c1.51 5.609 2.274 11.392 2.274 17.2 0 34.872-27.559 64.069-62.374 66.08"/>
  <path fill="none" stroke="url(#lnr2)" stroke-width="19" d="M97.325 160.392c-32.254-1.394-58.032-28.309-58.032-60.594 0-3.014.225-6.025.672-9.006"/>
  <path fill="none" stroke="url(#lnr1)" stroke-width="8" d="M46.665 85.572c4.25-15.859 15.366-29.019 30.29-35.86"/>
  <path fill="#8bc34a" d="M109.975 87.485c3.808 3.034 6.029 7.646 6.029 12.515 0 8.779-7.224 16.004-16.004 16.004-3.623 0-7.141-1.231-9.975-3.489-3.807-3.035-6.029-7.647-6.029-12.515 0-8.78 7.225-16.004 16.004-16.004 3.624 0 7.142 1.23 9.975 3.489"/>
</g>
<g id="a39">
  <path fill="none" stroke="url(#lnr3)" stroke-width="9" d="M88.105 71.552c4.7-1.97 9.97-2.8 15.4-2.15 5.163.603 10.086 2.517 14.3 5.56"/>
  <path fill="none" stroke="url(#lnr2)" stroke-width="9" d="M123.575 80.392c5.29 6.43 7.727 14.752 6.74 23.02-.856 7.334-4.347 14.113-9.82 19.07"/>
  <path fill="none" stroke="url(#lnr1)" stroke-width="9" d="M114.495 126.732c-6.838 3.726-14.851 4.693-22.38 2.7"/>
  <path fill="none" stroke="#e24538" stroke-width="9" d="M85.265 126.722c-12.86-7.007-18.99-22.301-14.53-36.25"/>
  <path fill="none" stroke="url(#lnr4)" stroke-width="43" d="M79.295 30.292c35.299-10.461 73.246 7.542 87.47 41.5"/>
  <path fill="none" stroke="url(#lnr3)" stroke-width="30" d="M163.175 80.542c1.892 6.232 2.854 12.71 2.854 19.224 0 34.087-26.332 62.884-60.284 65.926"/>
  <path fill="none" stroke="url(#lnr2)" stroke-width="19" d="M99.245 160.442c-33.011-.372-59.966-27.633-59.966-60.646 0-2.371.139-4.74.416-7.094"/>
  <path fill="none" stroke="url(#lnr1)" stroke-width="8" d="M46.225 87.272c3.74-15.987 14.43-29.497 29.13-36.81"/>
  <path fill="#8bc34a" d="M109.575 87.175c4.044 3.019 6.43 7.779 6.43 12.825 0 8.78-7.225 16.005-16.005 16.005-3.45 0-6.81-1.116-9.575-3.18-4.043-3.019-6.43-7.779-6.43-12.825 0-8.78 7.225-16.005 16.005-16.005 3.451 0 6.81 1.116 9.575 3.18"/>
</g>
<g id="a40">
  <path fill="none" stroke="url(#lnr3)" stroke-width="9" d="M84.465 73.362c5.31-3.1 11.6-4.65 18.19-4.05 5.178.459 10.153 2.235 14.45 5.16"/>
  <path fill="none" stroke="url(#lnr2)" stroke-width="9" d="M123.025 79.742c5.463 6.281 8.127 14.53 7.37 22.82-.654 7.358-3.961 14.234-9.3 19.34"/>
  <path fill="none" stroke="url(#lnr1)" stroke-width="9" d="M115.225 126.322c-6.735 3.911-14.719 5.096-22.3 3.31"/>
  <path fill="none" stroke="#e24538" stroke-width="9" d="M85.995 127.112c-13.045-6.655-19.589-21.775-15.51-35.84"/>
  <path fill="none" stroke="url(#lnr4)" stroke-width="43" d="M73.605 32.232c35.708-13.888 76.576 2.804 92.35 37.72"/>
  <path fill="none" stroke="url(#lnr3)" stroke-width="30" d="M162.605 78.802c2.257 6.758 3.407 13.837 3.407 20.962 0 33.406-25.289 61.84-58.467 65.738"/>
  <path fill="none" stroke="url(#lnr2)" stroke-width="19" d="M100.905 160.432c-.324.005-.649.008-.973.008-33.277 0-60.66-27.383-60.66-60.66 0-1.812.081-3.623.243-5.428"/>
  <path fill="none" stroke="url(#lnr1)" stroke-width="8" d="M45.885 88.752c3.298-16.086 13.615-29.886 28.11-37.6"/>
  <path fill="#8bc34a" d="M109.215 86.915c4.253 2.995 6.789 7.883 6.789 13.085 0 8.779-7.224 16.004-16.004 16.004-3.298 0-6.518-1.02-9.215-2.919-4.253-2.995-6.789-7.883-6.789-13.085 0-8.78 7.225-16.004 16.004-16.004 3.299 0 6.518 1.019 9.215 2.919"/>
</g>
<g id="a41">
  <path fill="none" stroke="url(#lnr3)" stroke-width="9" d="M81.445 75.372c5.864-4.443 13.141-6.617 20.48-6.12 5.188.337 10.205 1.996 14.57 4.82"/>
  <path fill="none" stroke="url(#lnr2)" stroke-width="9" d="M122.535 79.202c5.4 5.95 8.49 14 7.91 22.64-.481 7.37-3.624 14.32-8.84 19.55"/>
  <path fill="none" stroke="url(#lnr1)" stroke-width="9" d="M115.845 125.952c-6.645 4.072-14.605 5.443-22.23 3.83"/>
  <path fill="none" stroke="#e24538" stroke-width="9" d="M86.645 127.422c-13.204-6.338-20.111-21.299-16.37-35.46"/>
  <path fill="none" stroke="url(#lnr4)" stroke-width="43" d="M71.395 33.132c35.469-15.164 77.147.5 93.85 35.27"/>
  <path fill="none" stroke="url(#lnr3)" stroke-width="30" d="M162.085 77.332c2.592 7.195 3.918 14.785 3.918 22.433 0 32.824-24.417 60.938-56.918 65.537"/>
  <path fill="none" stroke="url(#lnr2)" stroke-width="19" d="M102.325 160.392c-.8.032-1.601.047-2.402.047-33.277 0-60.66-27.383-60.66-60.66 0-1.337.044-2.673.132-4.007"/>
  <path fill="none" stroke="url(#lnr1)" stroke-width="8" d="M45.635 90.022c2.919-16.157 12.905-30.194 27.21-38.25"/>
  <path fill="#8bc34a" d="M108.912 86.698c4.432 2.968 7.099 7.965 7.099 13.299 0 8.782-7.227 16.008-16.009 16.008-3.172 0-6.274-.943-8.91-2.708-4.434-2.968-7.103-7.964-7.103-13.3 0-8.779 7.224-16.003 16.003-16.003 3.169 0 6.267.941 8.9 2.703"/>
</g>
<g id="a42">
  <path fill="none" stroke="url(#lnr3)" stroke-width="9" d="M78.955 77.452c6.027-5.66 14.102-8.636 22.36-8.24 5.194.237 10.242 1.8 14.66 4.54"/>
  <path fill="none" stroke="url(#lnr2)" stroke-width="9" d="M122.115 78.752c5.736 6.039 8.758 14.17 8.36 22.49-.34 7.375-3.348 14.382-8.46 19.71"/>
  <path fill="none" stroke="url(#lnr1)" stroke-width="9" d="M116.345 125.622c-6.559 4.202-14.486 5.734-22.14 4.28"/>
  <path fill="none" stroke="#e24538" stroke-width="9" d="M87.175 127.672c-13.317-6.085-20.509-20.903-17.05-35.13"/>
  <path fill="none" stroke="url(#lnr4)" stroke-width="43" d="M70.075 33.702c35.163-15.854 77.138-1.013 94.52 33.42"/>
  <path fill="none" stroke="url(#lnr3)" stroke-width="30" d="M161.625 76.112c2.891 7.552 4.373 15.571 4.373 23.657 0 32.342-23.705 60.184-55.633 65.343"/>
  <path fill="none" stroke="url(#lnr2)" stroke-width="19" d="M103.505 160.322c-1.2.071-2.403.107-3.606.107-33.271 0-60.65-27.378-60.65-60.65 0-.943.022-1.885.066-2.827"/>
  <path fill="none" stroke="url(#lnr1)" stroke-width="8" d="M45.445 91.082c2.605-16.209 12.315-30.438 26.46-38.77"/>
  <path fill="#8bc34a" d="M108.644 86.531c4.583 2.941 7.361 8.025 7.361 13.469 0 8.781-7.225 16.005-16.006 16.005-3.064.001-6.065-.879-8.645-2.534-4.582-2.941-7.36-8.025-7.36-13.47 0-8.781 7.225-16.006 16.005-16.006 3.065 0 6.066.88 8.645 2.536"/>
</g>
<g id="a43">
  <path fill="none" stroke="url(#lnr3)" stroke-width="9" d="M76.945 79.502c9.701-10.995 26.016-13.536 38.6-6.01"/>
  <path fill="none" stroke="url(#lnr2)" stroke-width="9" d="M121.775 78.402c5.828 5.948 8.977 14.027 8.71 22.35-.219 7.377-3.109 14.43-8.13 19.84"/>
  <path fill="none" stroke="url(#lnr1)" stroke-width="9" d="M116.745 125.362c-6.49 4.3-14.389 5.955-22.06 4.62"/>
  <path fill="none" stroke="#e24538" stroke-width="9" d="M87.615 127.872c-13.415-5.868-20.843-20.57-17.61-34.85"/>
  <path fill="none" stroke="url(#lnr4)" stroke-width="43" d="M69.015 34.192c34.904-16.414 77.108-2.248 95.04 31.9"/>
  <path fill="none" stroke="url(#lnr3)" stroke-width="30" d="M161.235 75.122c3.141 7.833 4.756 16.195 4.756 24.635 0 31.949-23.132 59.563-54.586 65.165"/>
  <path fill="none" stroke="url(#lnr2)" stroke-width="19" d="M104.465 160.252c-1.52.115-3.044.172-4.568.172-33.272 0-60.65-27.378-60.65-60.65 0-.617.009-1.235.028-1.852"/>
  <path fill="none" stroke="url(#lnr1)" stroke-width="8" d="M45.305 91.952c2.342-16.254 11.826-30.641 25.84-39.2"/>
  <path fill="#8bc34a" d="M108.218 86.272C113.04 89.158 116 94.381 116 100c0 8.777-7.222 16-16 16-3.059 0-6.056-.878-8.632-2.528C86.782 110.533 84 105.447 84 100c0-8.777 7.223-16 16-16 2.895 0 5.735.785 8.218 2.272"/>
</g>
<g id="a44">
  <path fill="none" stroke="url(#lnr3)" stroke-width="9" d="M75.365 81.442c9.25-12.369 26.487-15.895 39.85-8.15"/>
  <path fill="none" stroke="url(#lnr2)" stroke-width="9" d="M121.495 78.122c5.907 5.872 9.161 13.912 9 22.24-.13 7.385-2.938 14.478-7.9 19.95"/>
  <path fill="none" stroke="url(#lnr1)" stroke-width="9" d="M117.055 125.142c-6.435 4.383-14.312 6.137-22 4.9"/>
  <path fill="none" stroke="#e24538" stroke-width="9" d="M87.965 128.022c-13.488-5.701-21.101-20.308-18.05-34.63"/>
  <path fill="none" stroke="url(#lnr4)" stroke-width="43" d="M68.195 34.572c34.696-16.848 77.073-3.211 95.43 30.71"/>
  <path fill="none" stroke="url(#lnr3)" stroke-width="30" d="M160.915 74.352c3.347 8.052 5.07 16.686 5.07 25.406 0 31.642-22.69 59.076-53.77 65.014"/>
  <path fill="none" stroke="url(#lnr2)" stroke-width="19" d="M105.225 160.192c-1.772.156-3.55.234-5.33.234-33.271 0-60.65-27.378-60.65-60.65 0-.364.004-.729.01-1.094"/>
  <path fill="none" stroke="url(#lnr1)" stroke-width="8" d="M45.205 92.642c2.138-16.283 11.442-30.788 25.35-39.52"/>
  <path fill="#8bc34a" d="M108.111 86.172C112.993 89.043 116 94.3 116 99.963c0 8.777-7.223 16-16 16-2.966 0-5.874-.825-8.399-2.381C86.882 110.671 84 105.508 84 99.963c0-8.777 7.222-16 16-16 2.852 0 5.653.763 8.111 2.209"/>
</g>
<g id="a45">
  <path fill="none" stroke="url(#lnr3)" stroke-width="9" d="M74.135 83.202c8.745-13.565 26.789-18.006 40.83-10.05"/>
  <path fill="none" stroke="url(#lnr2)" stroke-width="9" d="M121.295 77.932c5.957 5.817 9.283 13.824 9.2 22.15-.058 7.383-2.795 14.5-7.7 20.02"/>
  <path fill="none" stroke="url(#lnr1)" stroke-width="9" d="M117.285 124.982c-6.397 4.442-14.259 6.268-21.96 5.1"/>
  <path fill="none" stroke="#e24538" stroke-width="9" d="M88.225 128.132c-13.546-5.574-21.297-20.117-18.37-34.47"/>
  <path fill="none" stroke="url(#lnr4)" stroke-width="43" d="M67.595 34.872c34.539-17.167 77.041-3.921 95.71 29.83"/>
  <path fill="none" stroke="url(#lnr3)" stroke-width="30" d="M160.675 73.792c3.5 8.207 5.304 17.038 5.304 25.96 0 31.422-22.375 58.725-53.184 64.9"/>
  <path fill="none" stroke="url(#lnr2)" stroke-width="19" d="M105.775 160.142c-1.951.19-3.911.285-5.872.285-33.277 0-60.66-27.383-60.66-60.66 0-.175.001-.35.002-.525"/>
  <path fill="none" stroke="url(#lnr1)" stroke-width="8" d="M45.145 93.142c1.989-16.3 11.157-30.888 24.98-39.75"/>
  <path fill="#8bc34a" d="M108.13 86.215c4.874 2.874 7.874 8.127 7.874 13.785 0 8.779-7.224 16.004-16.004 16.004-2.859 0-5.667-.767-8.13-2.219-4.873-2.874-7.874-8.127-7.874-13.785 0-8.78 7.225-16.004 16.004-16.004 2.86 0 5.667.766 8.13 2.219"/>
</g>
<g id="a46">
  <path fill="none" stroke="url(#lnr3)" stroke-width="9" d="M73.175 84.772c8.23-14.605 26.998-19.879 41.63-11.7"/>
  <path fill="none" stroke="url(#lnr2)" stroke-width="9" d="M121.165 77.802c5.988 5.785 9.357 13.774 9.32 22.1-.015 7.382-2.709 14.513-7.58 20.06"/>
  <path fill="none" stroke="url(#lnr1)" stroke-width="9" d="M117.445 124.872c-6.371 4.487-14.228 6.364-21.94 5.24"/>
  <path fill="none" stroke="#e24538" stroke-width="9" d="M88.385 128.202c-13.577-5.495-21.412-19.992-18.57-34.36"/>
  <path fill="none" stroke="url(#lnr4)" stroke-width="43" d="M67.205 35.072c34.438-17.375 77.02-4.382 95.89 29.26"/>
  <path fill="none" stroke="url(#lnr3)" stroke-width="30" d="M160.515 73.432c3.603 8.31 5.463 17.272 5.463 26.33 0 31.274-22.166 58.49-52.793 64.82"/>
  <path fill="none" stroke="url(#lnr2)" stroke-width="19" d="M106.125 160.102c-2.073.214-4.156.322-6.24.322-33.272 0-60.65-27.379-60.65-60.65v-.172"/>
  <path fill="none" stroke="url(#lnr1)" stroke-width="8" d="M45.105 93.472c1.889-16.312 10.969-30.956 24.74-39.9"/>
  <path fill="#8bc34a" d="M108.05 86.165c4.92 2.863 7.957 8.142 7.957 13.835 0 8.782-7.226 16.007-16.007 16.007-2.828-.001-5.605-.749-8.05-2.172-4.92-2.863-7.956-8.143-7.956-13.835 0-8.781 7.225-16.007 16.006-16.007 2.828.001 5.606.751 8.05 2.172"/>
</g>
<g id="a47">
  <path fill="none" stroke="url(#lnr3)" stroke-width="9" d="M72.475 86.092c5.187-10.351 15.816-16.913 27.393-16.913 5.198 0 10.311 1.322 14.857 3.843"/>
  <path fill="none" stroke="url(#lnr2)" stroke-width="9" d="M121.095 77.732c5.8 5.58 9.4 13.41 9.4 22.08.004 7.382-2.673 14.52-7.53 20.08"/>
  <path fill="none" stroke="url(#lnr1)" stroke-width="9" d="M117.505 124.822c-6.355 4.501-14.2 6.399-21.91 5.3"/>
  <path fill="none" stroke="#e24538" stroke-width="9" d="M88.475 128.232c-13.595-5.451-21.476-19.923-18.68-34.3"/>
  <path fill="none" stroke="url(#lnr4)" stroke-width="43" d="M67.015 35.162c34.388-17.479 77.012-4.609 95.98 28.98"/>
  <path fill="none" stroke="url(#lnr3)" stroke-width="30" d="M160.445 73.252c3.655 8.36 5.541 17.386 5.541 26.51 0 31.202-22.063 58.374-52.601 64.78"/>
  <path fill="none" stroke="url(#lnr2)" stroke-width="19" d="M106.305 160.082c-2.132.227-4.275.341-6.42.341-33.268 0-60.645-27.373-60.65-60.641"/>
  <path fill="none" stroke="url(#lnr1)" stroke-width="8" d="M45.085 93.622c1.843-16.316 10.878-30.985 24.62-39.97"/>
  <path fill="#8bc34a" d="M108.011 86.139c4.944 2.857 7.998 8.15 7.998 13.86 0 8.782-7.226 16.008-16.008 16.008-2.812 0-5.575-.741-8.01-2.148-4.944-2.856-8-8.15-8-13.86 0-8.781 7.225-16.006 16.005-16.006 2.811 0 5.572.74 8.005 2.146"/>
</g>
<g id="a48">
  <path fill="none" stroke="url(#lnr3)" stroke-width="9" d="M71.675 86.652c5.071-10.657 15.866-17.475 27.668-17.475 5.192 0 10.3 1.32 14.842 3.835"/>
  <path fill="none" stroke="url(#lnr2)" stroke-width="9" d="M120.555 77.732c5.8 5.57 9.4 13.4 9.4 22.07.009 7.379-2.66 14.517-7.51 20.08"/>
  <path fill="none" stroke="url(#lnr1)" stroke-width="9" d="M116.985 124.822c-6.353 4.497-14.193 6.395-21.9 5.3"/>
  <path fill="none" stroke="#e24538" stroke-width="9" d="M87.945 128.232c-13.586-5.454-21.462-19.919-18.67-34.29"/>
  <path fill="none" stroke="url(#lnr4)" stroke-width="43" d="M66.465 35.172c34.38-17.492 77.008-4.64 95.99 28.94"/>
  <path fill="none" stroke="url(#lnr3)" stroke-width="30" d="M159.895 73.232c3.659 8.364 5.548 17.395 5.548 26.525 0 31.193-22.051 58.36-52.578 64.775"/>
  <path fill="none" stroke="url(#lnr2)" stroke-width="19" d="M105.795 160.072c-2.139.228-4.288.343-6.44.343-33.261 0-60.635-27.362-60.65-60.623"/>
  <path fill="none" stroke="url(#lnr1)" stroke-width="8" d="M44.545 93.642c1.843-16.316 10.878-30.985 24.62-39.97"/>
  <path fill="#8bc34a" d="M108 86.14c4.946 2.855 8.003 8.149 8.003 13.86 0 8.779-7.224 16.003-16.003 16.003-2.808 0-5.567-.739-8-2.143-4.946-2.855-8.003-8.149-8.003-13.86 0-8.779 7.224-16.003 16.003-16.003 2.809 0 5.568.739 8 2.143"/>
</g>
<g id="a49">
  <path fill="none" stroke="url(#lnr3)" stroke-width="9" d="M71.675 86.652c5.071-10.657 15.866-17.475 27.668-17.475 5.192 0 10.3 1.32 14.842 3.835"/>
  <path fill="none" stroke="url(#lnr2)" stroke-width="9" d="M120.555 77.732c5.8 5.57 9.4 13.4 9.4 22.07.009 7.379-2.66 14.517-7.51 20.08"/>
  <path fill="none" stroke="url(#lnr1)" stroke-width="9" d="M116.985 124.822c-6.353 4.497-14.193 6.395-21.9 5.3"/>
  <path fill="none" stroke="#e24538" stroke-width="9" d="M87.945 128.232c-13.586-5.454-21.462-19.919-18.67-34.29"/>
  <path fill="none" stroke="url(#lnr4)" stroke-width="43" d="M66.465 35.172c34.38-17.492 77.008-4.64 95.99 28.94"/>
  <path fill="none" stroke="url(#lnr3)" stroke-width="30" d="M159.895 73.232c3.659 8.364 5.548 17.395 5.548 26.525 0 31.193-22.051 58.36-52.578 64.775"/>
  <path fill="none" stroke="url(#lnr2)" stroke-width="19" d="M105.795 160.072c-2.139.228-4.288.343-6.44.343-33.261 0-60.635-27.362-60.65-60.623"/>
  <path fill="none" stroke="url(#lnr1)" stroke-width="8" d="M44.545 93.642c1.843-16.316 10.878-30.985 24.62-39.97"/>
  <path fill="#8bc34a" d="M108 86.14c4.946 2.855 8.003 8.149 8.003 13.86 0 8.779-7.224 16.003-16.003 16.003-2.808 0-5.567-.739-8-2.143-4.946-2.855-8.003-8.149-8.003-13.86 0-8.779 7.224-16.003 16.003-16.003 2.809 0 5.568.739 8 2.143"/>
</g>
<style>
/* <![CDATA[ */

#a1 {animation-name: a1}
#a2 {animation-name: a2}
#a3 {animation-name: a3}
#a4 {animation-name: a4}
#a5 {animation-name: a5}
#a6 {animation-name: a6}
#a7 {animation-name: a7}
#a8 {animation-name: a8}
#a9 {animation-name: a9}
#a10 {animation-name: a10}
#a11 {animation-name: a11}
#a12 {animation-name: a12}
#a13 {animation-name: a13}
#a14 {animation-name: a14}
#a15 {animation-name: a15}
#a16 {animation-name: a16}
#a17 {animation-name: a17}
#a18 {animation-name: a18}
#a19 {animation-name: a19}
#a20 {animation-name: a20}
#a21 {animation-name: a21}
#a22 {animation-name: a22}
#a23 {animation-name: a23}
#a24 {animation-name: a24}
#a25 {animation-name: a25}
#a26 {animation-name: a26}
#a27 {animation-name: a27}
#a28 {animation-name: a28}
#a29 {animation-name: a29}
#a30 {animation-name: a30}
#a31 {animation-name: a31}
#a32 {animation-name: a32}
#a33 {animation-name: a33}
#a34 {animation-name: a34}
#a35 {animation-name: a35}
#a36 {animation-name: a36}
#a37 {animation-name: a37}
#a38 {animation-name: a38}
#a39 {animation-name: a39}
#a40 {animation-name: a40}
#a41 {animation-name: a41}
#a42 {animation-name: a42}
#a43 {animation-name: a43}
#a44 {animation-name: a44}
#a45 {animation-name: a45}
#a46 {animation-name: a46}
#a47 {animation-name: a47}
#a48 {animation-name: a48}

@keyframes a1 {0.00%{visibility: visible} 1.39%{visibility: hidden}}
@keyframes a2 {1.39%{visibility: visible} 2.78%{visibility: hidden}}
@keyframes a3 {2.78%{visibility: visible} 4.17%{visibility: hidden}}
@keyframes a4 {4.17%{visibility: visible} 5.56%{visibility: hidden}}
@keyframes a5 {5.56%{visibility: visible} 6.94%{visibility: hidden}}
@keyframes a6 {6.94%{visibility: visible} 8.33%{visibility: hidden}}
@keyframes a7 {8.33%{visibility: visible} 9.72%{visibility: hidden}}
@keyframes a8 {9.72%{visibility: visible} 11.11%{visibility: hidden}}
@keyframes a9 {11.11%{visibility: visible} 12.50%{visibility: hidden}}
@keyframes a10 {12.50%{visibility: visible} 13.89%{visibility: hidden}}
@keyframes a11 {13.89%{visibility: visible} 15.28%{visibility: hidden}}
@keyframes a12 {15.28%{visibility: visible} 16.67%{visibility: hidden}}
@keyframes a13 {16.67%{visibility: visible} 18.06%{visibility: hidden}}
@keyframes a14 {18.06%{visibility: visible} 19.44%{visibility: hidden}}
@keyframes a15 {19.44%{visibility: visible} 20.83%{visibility: hidden}}
@keyframes a16 {20.83%{visibility: visible} 22.22%{visibility: hidden}}
@keyframes a17 {22.22%{visibility: visible} 23.61%{visibility: hidden}}
@keyframes a18 {23.61%{visibility: visible} 25.00%{visibility: hidden}}
@keyframes a19 {25.00%{visibility: visible} 26.39%{visibility: hidden}}
@keyframes a20 {26.39%{visibility: visible} 27.78%{visibility: hidden}}
@keyframes a21 {27.78%{visibility: visible} 29.17%{visibility: hidden}}
@keyframes a22 {29.17%{visibility: visible} 30.56%{visibility: hidden}}
@keyframes a23 {30.56%{visibility: visible} 31.94%{visibility: hidden}}
@keyframes a24 {31.94%{visibility: visible} 33.33%{visibility: hidden}}
@keyframes a25 {33.33%{visibility: visible} 34.72%{visibility: hidden}}
@keyframes a26 {34.72%{visibility: visible} 36.11%{visibility: hidden}}
@keyframes a27 {36.11%{visibility: visible} 37.50%{visibility: hidden}}
@keyframes a28 {37.50%{visibility: visible} 38.89%{visibility: hidden}}
@keyframes a29 {38.89%{visibility: visible} 40.28%{visibility: hidden}}
@keyframes a30 {40.28%{visibility: visible} 41.67%{visibility: hidden}}
@keyframes a31 {41.67%{visibility: visible} 43.06%{visibility: hidden}}
@keyframes a32 {43.06%{visibility: visible} 44.44%{visibility: hidden}}
@keyframes a33 {44.44%{visibility: visible} 45.83%{visibility: hidden}}
@keyframes a34 {45.83%{visibility: visible} 47.22%{visibility: hidden}}
@keyframes a35 {47.22%{visibility: visible} 48.61%{visibility: hidden}}
@keyframes a36 {48.61%{visibility: visible} 50.00%{visibility: hidden}}
@keyframes a37 {50.00%{visibility: visible} 51.39%{visibility: hidden}}
@keyframes a38 {51.39%{visibility: visible} 52.78%{visibility: hidden}}
@keyframes a39 {52.78%{visibility: visible} 54.17%{visibility: hidden}}
@keyframes a40 {54.17%{visibility: visible} 55.56%{visibility: hidden}}
@keyframes a41 {55.56%{visibility: visible} 56.94%{visibility: hidden}}
@keyframes a42 {56.94%{visibility: visible} 58.33%{visibility: hidden}}
@keyframes a43 {58.33%{visibility: visible} 59.72%{visibility: hidden}}
@keyframes a44 {59.72%{visibility: visible} 61.11%{visibility: hidden}}
@keyframes a45 {61.11%{visibility: visible} 62.50%{visibility: hidden}}
@keyframes a46 {62.50%{visibility: visible} 63.89%{visibility: hidden}}
@keyframes a47 {63.89%{visibility: visible} 65.28%{visibility: hidden}}
@keyframes a48 {65.28%{visibility: visible} 66.67%{visibility: hidden}}

/* ]]> */
</style>
</svg>
