<?xml version="1.0" encoding="UTF-8"?>
<svg id="Layer_1" data-name="Layer 1" xmlns="http://www.w3.org/2000/svg" xmlns:xlink="http://www.w3.org/1999/xlink" viewBox="0 0 199.15 195.51">
  <defs>
    <style>
      .cls-1 {
        fill: none;
      }

      .cls-2 {
        fill: url(#linear-gradient);
      }

      .cls-3 {
        fill: #fff;
      }

      .cls-4 {
        fill: #fedf00;
      }

      .cls-5 {
        fill: #00589d;
      }

      .cls-6 {
        clip-path: url(#clippath);
      }
    </style>
    <linearGradient id="linear-gradient" x1="0" y1="97.75" x2="199.15" y2="97.75" gradientUnits="userSpaceOnUse">
      <stop offset="0" stop-color="#1f5799"/>
      <stop offset=".06" stop-color="#1f5799"/>
      <stop offset="1" stop-color="#78c3e9"/>
      <stop offset="1" stop-color="#78c3e9"/>
    </linearGradient>
    <clipPath id="clippath">
      <path class="cls-1" d="M31.66,103.4c0,36.92,29.93,66.85,66.85,66.85s66.85-29.93,66.85-66.85-29.93-66.85-66.85-66.85S31.66,66.49,31.66,103.4"/>
    </clipPath>
  </defs>
  <path class="cls-3" d="M165.21,183.12H34c-14.36,0-26-14-26-31.28V43.57c0-17.27,11.64-31.28,26-31.28h131.21c14.36,0,26,14,26,31.28v108.27c0,17.27-11.64,31.28-26,31.28Z"/>
  <path class="cls-4" d="M42.42,189.98h113.51c17.12,0,31-13.88,31-31v-56.07c-25.38-5.4-52.62-8.34-80.97-8.34-33.48,0-65.4,4.09-94.53,11.5v52.9c0,17.12,13.88,31,31,31Z"/>
  <path class="cls-2" d="M168.15,15.36c8.48,0,15.64,10.05,15.64,21.94v120.92c0,11.89-7.16,21.94-15.64,21.94H31c-8.48,0-15.64-10.05-15.64-21.94V37.29c0-11.89,7.16-21.94,15.64-21.94h137.15M168.15,0H31C13.88,0,0,16.7,0,37.29v120.92c0,20.6,13.88,37.29,31,37.29h137.15c17.12,0,31-16.7,31-37.29V37.29c0-20.6-13.88-37.29-31-37.29h0Z"/>
  <g class="cls-6">
    <polygon class="cls-5" points="98.75 71.97 103.89 66.49 96.45 65.43 92.89 58.45 89.83 65.48 82.47 66.65 88.02 72.08 87.08 79.75 93.56 76.07 100.35 79.64 98.75 71.97"/>
    <polygon class="cls-5" points="107.78 57.72 111.82 53.41 105.97 52.57 103.17 47.09 100.76 52.61 94.97 53.54 99.34 57.81 98.6 63.84 103.69 60.95 109.03 63.75 107.78 57.72"/>
    <path class="cls-5" d="M128.5,124.67l-50.88.54-13.75-40.59,73.89-1.81c2.08-.05,3.59,1.97,2.95,3.95l-12.21,37.92ZM83.42,121.06l39.56-.42c1.52-.02,2.85-1,3.32-2.44l10.07-31.27-66.84,1.64,10.09,29.79c.55,1.63,2.09,2.72,3.81,2.7"/>
    <path class="cls-5" d="M128.93,141.18l-59.37,1.04c-1.94.03-3.22-2.01-2.33-3.74l7.99-15.63-14.06-43.47c-4.85-1.3-16.76-4.53-19-5.38l.98-2.59c.87-2.28,3.33-3.52,5.67-2.85,4.45,1.27,11.36,3.15,16.07,4.41l1.88.5,16.17,49.98-5.86,11.47,48.83-.85c1.61-.03,2.93,1.25,2.96,2.86l.07,4.24Z"/>
    <path class="cls-5" d="M84.43,158.67c-6.62,1.21-12.41-4.37-11.42-11.03.6-4.03,3.78-7.33,7.79-8.07,6.62-1.21,12.4,4.37,11.42,11.03-.59,4.03-3.78,7.33-7.79,8.07M83.78,144.66c-3.52-.86-6.58,2.31-5.59,5.79.43,1.53,1.7,2.76,3.25,3.14,3.52.87,6.59-2.31,5.6-5.8-.44-1.53-1.7-2.75-3.25-3.13"/>
    <path class="cls-5" d="M120.24,158.05c-6.62,1.21-12.4-4.37-11.42-11.03.6-4.03,3.78-7.33,7.79-8.07,6.62-1.21,12.41,4.37,11.42,11.03-.59,4.03-3.78,7.33-7.79,8.07M119.6,144.03c-3.52-.86-6.58,2.31-5.59,5.8.43,1.53,1.7,2.75,3.25,3.14,3.52.87,6.59-2.31,5.6-5.8-.44-1.53-1.7-2.75-3.25-3.13"/>
    <rect class="cls-5" x="70.97" y="94.64" width="63.73" height="5.11" transform="translate(-1.68 1.81) rotate(-1)"/>
    <rect class="cls-5" x="85.41" y="84.9" width="5.11" height="38.27" transform="translate(-16.34 16.4) rotate(-9.75)"/>
    <rect class="cls-5" x="101.48" y="84.62" width="5.11" height="38.27" transform="translate(-1.79 1.83) rotate(-1)"/>
    <rect class="cls-5" x="100.97" y="100.92" width="38.27" height="5.11" transform="translate(2.18 209.42) rotate(-82.68)"/>
    <rect class="cls-5" x="73.53" y="107.42" width="57.6" height="5.11" transform="translate(-1.9 1.8) rotate(-1)"/>
  </g>
  <polygon class="cls-5" points="119.71 72.87 121.47 69.12 117.39 69.83 114.34 66.78 113.94 70.98 110.28 72.85 114.11 74.75 114.92 78.92 117.69 75.9 121.85 76.61 119.71 72.87"/>
</svg>