<?xml version="1.0" encoding="UTF-8"?>
<svg id="Layer_1" data-name="Layer 1" xmlns="http://www.w3.org/2000/svg" xmlns:xlink="http://www.w3.org/1999/xlink" viewBox="0 0 199.15 195.51">
  <defs>
    <style>
      .cls-1 {
        fill: none;
      }

      .cls-2 {
        fill: url(#linear-gradient);
      }

      .cls-3 {
        fill: #fff;
      }

      .cls-4 {
        fill: #fedf00;
      }

      .cls-5 {
        fill: #00589d;
      }

      .cls-6 {
        clip-path: url(#clippath);
      }
    </style>
    <linearGradient id="linear-gradient" x1="0" y1="97.75" x2="199.15" y2="97.75" gradientUnits="userSpaceOnUse">
      <stop offset="0" stop-color="#1f5799"/>
      <stop offset=".06" stop-color="#1f5799"/>
      <stop offset="1" stop-color="#78c3e9"/>
      <stop offset="1" stop-color="#78c3e9"/>
    </linearGradient>
    <clipPath id="clippath">
      <rect class="cls-1" x="56.26" y="45.18" width="94.63" height="117"/>
    </clipPath>
  </defs>
  <path class="cls-3" d="M165.21,183.12H34c-14.36,0-26-14-26-31.28V43.57c0-17.27,11.64-31.28,26-31.28h131.21c14.36,0,26,14,26,31.28v108.27c0,17.27-11.64,31.28-26,31.28Z"/>
  <path class="cls-4" d="M42.42,189.98h113.51c17.12,0,31-13.88,31-31v-56.07c-25.38-5.4-52.62-8.34-80.97-8.34-33.48,0-65.4,4.09-94.53,11.5v52.9c0,17.12,13.88,31,31,31Z"/>
  <path class="cls-2" d="M168.15,15.36c8.48,0,15.64,10.05,15.64,21.94v120.92c0,11.89-7.16,21.94-15.64,21.94H31c-8.48,0-15.64-10.05-15.64-21.94V37.29c0-11.89,7.16-21.94,15.64-21.94h137.15M168.15,0H31C13.88,0,0,16.7,0,37.29v120.92c0,20.6,13.88,37.29,31,37.29h137.15c17.12,0,31-16.7,31-37.29V37.29c0-20.6-13.88-37.29-31-37.29h0Z"/>
  <g>
    <polygon class="cls-5" points="136.79 110.88 135.98 107.72 133.85 110.2 130.47 109.87 132.33 112.63 131.05 115.6 134.33 114.83 136.92 116.96 137.08 113.73 139.97 112.08 136.79 110.88"/>
    <polygon class="cls-5" points="112.85 120.56 111.92 118.2 110.52 120.31 107.88 120.38 109.58 122.33 108.87 124.74 111.32 123.84 113.52 125.23 113.34 122.73 115.41 121.18 112.85 120.56"/>
    <polygon class="cls-5" points="133.51 124.42 127.42 118.2 125.82 126.76 117.56 130.53 125.54 134.42 126.54 143 133.1 136.84 141.93 138.31 138 130.63 142.46 122.95 133.51 124.42"/>
    <polygon class="cls-5" points="106.54 132.52 102.24 132.77 104.92 136.16 103.64 140.47 107.69 138.75 111.23 141.17 111.06 136.71 114.47 133.89 110.32 132.86 108.9 128.69 106.54 132.52"/>
    <g class="cls-6">
      <path class="cls-5" d="M106.47,95.25c7.36,4.08,13.19,10.89,15.86,19.48.18-.01.29,1.88-1.23,2.36-3.22,1-4.29-5.19-11.96-3.13-8.1,2.17-4.86,7.63-9.08,8.77-2.33.62-3.62-5.03-10.92-3.41h0s-.09.02-.13.03h-.04v.02c-.06.02-.12.03-.17.04l-.12.03c-7.54,2.02-5.27,7.74-9.08,8.77-2.38.64-3.74-5.34-11.4-3.29-7.77,2.08-5.71,8.02-8.32,8.57-1.16.32-2.34.12-2.7-1.22-2.13-7.98-.29-17.67,3.88-24.71,9.32-15.72,29.46-21.18,45.44-12.31"/>
      <path class="cls-5" d="M87.59,121.79l6.04,23.43c.27,1.04,1.3,1.66,2.3,1.38,1-.28,1.6-1.35,1.33-2.39l-6.01-23.3c-.42.02-.86.07-1.3.16l-.42.1s-.06.01-.09.02c-.06.02-.13.03-.2.05l-.1.03c-.55.15-1.07.32-1.55.54M82.81,88.15c-.27-1.04-1.3-1.66-2.3-1.38-1,.28-1.6,1.35-1.33,2.39l.4,1.57c1.2-.37,2.42-.68,3.66-.92l-.43-1.66Z"/>
      <path class="cls-5" d="M133.84,148.86c8.09,2.57,13.85,6.31,15.83,10.66l1.21,2.66H60.4l1.21-2.66c1.98-4.35,7.74-8.09,15.83-10.66,7.66-2.43,17.5-3.9,28.2-3.9s20.54,1.47,28.2,3.9"/>
      <path class="cls-5" d="M120.6,55.87c2.88,0,5.49,1.17,7.38,3.06,1.89,1.89,3.06,4.5,3.06,7.38s-1.17,5.49-3.06,7.38c-1.89,1.89-4.5,3.06-7.38,3.06s-5.49-1.17-7.38-3.06c-1.89-1.89-3.06-4.5-3.06-7.38s1.17-5.49,3.06-7.38c1.89-1.89,4.5-3.06,7.38-3.06"/>
      <path class="cls-5" d="M122.22,47.07c0-1.04-.84-1.88-1.88-1.88s-1.88.84-1.88,1.88v6.47c0,1.04.84,1.88,1.88,1.88s1.88-.84,1.88-1.88v-6.47Z"/>
      <path class="cls-5" d="M131.62,50.45c.52-.9.21-2.04-.69-2.56-.9-.52-2.04-.21-2.56.69l-3.23,5.6c-.51.9-.21,2.04.69,2.56.9.52,2.04.21,2.56-.69l3.23-5.6Z"/>
      <path class="cls-5" d="M138.07,58.08c.9-.52,1.21-1.66.69-2.56-.52-.9-1.66-1.21-2.56-.69l-5.6,3.23c-.9.51-1.21,1.66-.69,2.56.52.9,1.66,1.21,2.56.69l5.6-3.23Z"/>
      <path class="cls-5" d="M139.84,67.93c1.04,0,1.88-.84,1.88-1.88s-.84-1.88-1.88-1.88h-6.47c-1.04,0-1.88.84-1.88,1.88s.84,1.88,1.88,1.88h6.47Z"/>
      <path class="cls-5" d="M136.46,77.33c.9.52,2.05.21,2.57-.68.52-.9.21-2.05-.68-2.57l-5.6-3.23c-.9-.52-2.05-.21-2.57.68-.52.9-.21,2.05.68,2.57l5.6,3.23Z"/>
      <path class="cls-5" d="M128.83,83.78c.52.9,1.66,1.21,2.56.69.9-.52,1.21-1.66.69-2.56l-3.23-5.6c-.51-.9-1.66-1.21-2.56-.69-.9.52-1.21,1.66-.69,2.56l3.23,5.6Z"/>
      <path class="cls-5" d="M118.98,85.55c0,1.04.84,1.88,1.88,1.88s1.88-.84,1.88-1.88v-6.47c0-1.04-.84-1.88-1.88-1.88s-1.88.84-1.88,1.88v6.47Z"/>
      <path class="cls-5" d="M109.58,82.18c-.52.9-.21,2.04.69,2.56.9.52,2.04.21,2.56-.69l3.23-5.6c.51-.9.21-2.04-.69-2.56-.9-.52-2.04-.21-2.56.69l-3.23,5.6Z"/>
      <path class="cls-5" d="M103.13,74.54c-.9.52-1.21,1.66-.69,2.56.52.9,1.66,1.21,2.56.69l5.6-3.23c.9-.51,1.21-1.66.69-2.56-.52-.9-1.66-1.21-2.56-.69l-5.6,3.23Z"/>
      <path class="cls-5" d="M101.36,64.69c-1.04,0-1.88.84-1.88,1.88s.84,1.88,1.88,1.88h6.47c1.04,0,1.88-.84,1.88-1.88s-.84-1.88-1.88-1.88h-6.47Z"/>
      <path class="cls-5" d="M104.74,55.29c-.9-.52-2.05-.21-2.57.68-.52.9-.21,2.05.68,2.57l5.6,3.23c.9.52,2.05.21,2.57-.68.52-.9.21-2.05-.68-2.57l-5.6-3.23Z"/>
      <path class="cls-5" d="M112.37,48.84c-.52-.9-1.67-1.2-2.57-.68-.9.52-1.2,1.67-.68,2.57l3.23,5.6c.52.9,1.67,1.2,2.57.68.9-.52,1.2-1.67.68-2.57l-3.23-5.6Z"/>
    </g>
    <polygon class="cls-4" points="90.77 107.14 94.61 101.24 87.57 101.47 83.15 95.62 81.47 102.61 74.88 104.9 80.89 109 81.28 116.23 86.66 111.77 93.5 113.95 90.77 107.14"/>
  </g>
</svg>