<?xml version="1.0" encoding="UTF-8"?>
<svg xmlns="http://www.w3.org/2000/svg" xmlns:xlink="http://www.w3.org/1999/xlink" viewBox="0 0 199.15 195.51">
  <defs>
    <style>
      .cls-1, .cls-2 {
        fill: #4e803b;
      }

      .cls-3 {
        fill: #085a9c;
      }

      .cls-4 {
        fill: #487d3a;
      }

      .cls-5 {
        fill: url(#linear-gradient-8);
      }

      .cls-6 {
        fill: url(#linear-gradient-7);
      }

      .cls-7 {
        fill: url(#linear-gradient-5);
      }

      .cls-8 {
        fill: url(#linear-gradient-6);
      }

      .cls-9 {
        fill: url(#linear-gradient-9);
      }

      .cls-10 {
        fill: url(#linear-gradient-4);
      }

      .cls-11 {
        fill: url(#linear-gradient-3);
      }

      .cls-12 {
        fill: url(#linear-gradient-2);
      }

      .cls-13 {
        fill: #57873d;
      }

      .cls-14 {
        fill: url(#linear-gradient);
      }

      .cls-15 {
        fill: #e6dbad;
      }

      .cls-16 {
        isolation: isolate;
      }

      .cls-2 {
        mix-blend-mode: multiply;
        opacity: .3;
      }

      .cls-17 {
        fill: #ad6539;
      }

      .cls-18 {
        fill: #c9c094;
      }

      .cls-19 {
        fill: #fff;
      }

      .cls-20 {
        fill: url(#linear-gradient-43);
      }

      .cls-21 {
        fill: url(#linear-gradient-40);
      }

      .cls-22 {
        fill: url(#linear-gradient-41);
      }

      .cls-23 {
        fill: url(#linear-gradient-42);
      }

      .cls-24 {
        fill: url(#linear-gradient-49);
      }

      .cls-25 {
        fill: url(#linear-gradient-48);
      }

      .cls-26 {
        fill: url(#linear-gradient-45);
      }

      .cls-27 {
        fill: url(#linear-gradient-47);
      }

      .cls-28 {
        fill: url(#linear-gradient-44);
      }

      .cls-29 {
        fill: url(#linear-gradient-46);
      }

      .cls-30 {
        fill: url(#linear-gradient-10);
      }

      .cls-31 {
        fill: url(#linear-gradient-11);
      }

      .cls-32 {
        fill: url(#linear-gradient-12);
      }

      .cls-33 {
        fill: url(#linear-gradient-13);
      }

      .cls-34 {
        fill: url(#linear-gradient-19);
      }

      .cls-35 {
        fill: url(#linear-gradient-14);
      }

      .cls-36 {
        fill: url(#linear-gradient-21);
      }

      .cls-37 {
        fill: url(#linear-gradient-20);
      }

      .cls-38 {
        fill: url(#linear-gradient-22);
      }

      .cls-39 {
        fill: url(#linear-gradient-23);
      }

      .cls-40 {
        fill: url(#linear-gradient-28);
      }

      .cls-41 {
        fill: url(#linear-gradient-25);
      }

      .cls-42 {
        fill: url(#linear-gradient-32);
      }

      .cls-43 {
        fill: url(#linear-gradient-31);
      }

      .cls-44 {
        fill: url(#linear-gradient-33);
      }

      .cls-45 {
        fill: url(#linear-gradient-30);
      }

      .cls-46 {
        fill: url(#linear-gradient-15);
      }

      .cls-47 {
        fill: url(#linear-gradient-16);
      }

      .cls-48 {
        fill: url(#linear-gradient-17);
      }

      .cls-49 {
        fill: url(#linear-gradient-18);
      }

      .cls-50 {
        fill: url(#linear-gradient-35);
      }

      .cls-51 {
        fill: url(#linear-gradient-34);
      }

      .cls-52 {
        fill: url(#linear-gradient-36);
      }

      .cls-53 {
        fill: url(#linear-gradient-38);
      }

      .cls-54 {
        fill: url(#linear-gradient-27);
      }

      .cls-55 {
        fill: url(#linear-gradient-24);
      }

      .cls-56 {
        fill: url(#linear-gradient-26);
      }

      .cls-57 {
        fill: url(#linear-gradient-29);
      }

      .cls-58 {
        fill: url(#linear-gradient-37);
      }

      .cls-59 {
        fill: url(#linear-gradient-39);
      }

      .cls-60 {
        fill: url(#linear-gradient-53);
      }

      .cls-61 {
        fill: url(#linear-gradient-54);
      }

      .cls-62 {
        fill: url(#linear-gradient-55);
      }

      .cls-63 {
        fill: url(#linear-gradient-50);
      }

      .cls-64 {
        fill: url(#linear-gradient-51);
      }

      .cls-65 {
        fill: url(#linear-gradient-52);
      }

      .cls-66 {
        fill: #7d9f41;
      }

      .cls-67 {
        fill: #cede7e;
      }

      .cls-68 {
        fill: #406630;
      }

      .cls-69 {
        fill: #5e8b3e;
      }

      .cls-70 {
        fill: #a7c25a;
      }

      .cls-71 {
        fill: #fedf00;
      }
    </style>
    <linearGradient id="linear-gradient" x1="0" y1="97.75" x2="199.15" y2="97.75" gradientUnits="userSpaceOnUse">
      <stop offset="0" stop-color="#1f5799"/>
      <stop offset=".06" stop-color="#1f5799"/>
      <stop offset="1" stop-color="#78c3e9"/>
      <stop offset="1" stop-color="#78c3e9"/>
    </linearGradient>
    <linearGradient id="linear-gradient-2" x1="-480.29" y1="-112.86" x2="-429.67" y2="-112.86" gradientTransform="translate(550.74 336.31) rotate(14.08)" gradientUnits="userSpaceOnUse">
      <stop offset="0" stop-color="#a1be52"/>
      <stop offset="1" stop-color="#c6da6d"/>
    </linearGradient>
    <linearGradient id="linear-gradient-3" x1="-478.09" y1="-112.69" x2="-431.12" y2="-112.69" gradientTransform="translate(550.74 336.31) rotate(14.08)" gradientUnits="userSpaceOnUse">
      <stop offset="0" stop-color="#457a3a"/>
      <stop offset="1" stop-color="#6a943e"/>
    </linearGradient>
    <linearGradient id="linear-gradient-4" x1="-473.69" y1="-112.23" x2="-433.81" y2="-112.23" xlink:href="#linear-gradient-2"/>
    <linearGradient id="linear-gradient-5" x1="-459.3" y1="-110.2" x2="-443.55" y2="-110.2" xlink:href="#linear-gradient-3"/>
    <linearGradient id="linear-gradient-6" x1="-3144.37" y1="550.97" x2="-3093.76" y2="550.97" gradientTransform="translate(-3089.22 336.31) rotate(165.92) scale(1 -1)" xlink:href="#linear-gradient-2"/>
    <linearGradient id="linear-gradient-7" x1="-3142.18" y1="551.14" x2="-3095.21" y2="551.14" gradientTransform="translate(-3089.22 336.31) rotate(165.92) scale(1 -1)" xlink:href="#linear-gradient-3"/>
    <linearGradient id="linear-gradient-8" x1="-3137.78" y1="551.6" x2="-3097.9" y2="551.6" gradientTransform="translate(-3089.22 336.31) rotate(165.92) scale(1 -1)" xlink:href="#linear-gradient-2"/>
    <linearGradient id="linear-gradient-9" x1="-3123.39" y1="553.63" x2="-3107.64" y2="553.63" gradientTransform="translate(-3089.22 336.31) rotate(165.92) scale(1 -1)" xlink:href="#linear-gradient-3"/>
    <linearGradient id="linear-gradient-10" x1="-818.37" y1="-54.62" x2="-760.61" y2="-54.62" gradientTransform="translate(938.96 306.7) rotate(8.17) scale(1.23 1) skewX(-65.9)" gradientUnits="userSpaceOnUse">
      <stop offset="0" stop-color="#aac360"/>
      <stop offset="1" stop-color="#d1df7c"/>
    </linearGradient>
    <linearGradient id="linear-gradient-11" x1="-789.35" y1="-46.23" x2="-789.35" y2="-62.73" gradientTransform="translate(938.96 306.7) rotate(8.17) scale(1.23 1) skewX(-65.9)" gradientUnits="userSpaceOnUse">
      <stop offset="0" stop-color="#4b803b"/>
      <stop offset="1" stop-color="#72983e"/>
    </linearGradient>
    <linearGradient id="linear-gradient-12" x1="-789.52" y1="-46.97" x2="-789.52" y2="-61.04" xlink:href="#linear-gradient-10"/>
    <linearGradient id="linear-gradient-13" x1="-786.61" y1="-48.25" x2="-786.61" y2="-57.5" xlink:href="#linear-gradient-11"/>
    <linearGradient id="linear-gradient-14" x1="-2353.65" y1="-19.26" x2="-2353.65" y2="-30.79" gradientTransform="translate(-2203.42 -133.48) rotate(-172.77) scale(1 -1)" xlink:href="#linear-gradient-11"/>
    <linearGradient id="linear-gradient-15" x1="483.3" y1="-25.35" x2="534.3" y2="-25.35" gradientTransform="translate(635.8 33.52) rotate(167.53) scale(1 -1)" xlink:href="#linear-gradient-2"/>
    <linearGradient id="linear-gradient-16" x1="485.69" y1="-25.25" x2="532.9" y2="-25.25" gradientTransform="translate(635.8 33.52) rotate(167.53) scale(1 -1)" xlink:href="#linear-gradient-3"/>
    <linearGradient id="linear-gradient-17" x1="490.32" y1="-25.23" x2="530.93" y2="-25.23" gradientTransform="translate(635.8 33.52) rotate(167.53) scale(1 -1)" xlink:href="#linear-gradient-2"/>
    <linearGradient id="linear-gradient-18" x1="-713.24" y1="94.12" x2="-713.24" y2="87.99" gradientTransform="translate(1220.22 428.47) rotate(22.33) scale(1.23 1.42) skewX(-65.9)" xlink:href="#linear-gradient-11"/>
    <linearGradient id="linear-gradient-19" x1="-171.17" y1="254.82" x2="-171.17" y2="248.55" gradientTransform="translate(398.16 -194.08) rotate(9.12) scale(1.01 1.4) skewX(-9.11)" xlink:href="#linear-gradient-11"/>
    <linearGradient id="linear-gradient-20" x1="70.81" y1="57.31" x2="101.01" y2="57.31" gradientTransform="translate(47.06 62.34) rotate(3.02)" gradientUnits="userSpaceOnUse">
      <stop offset="0" stop-color="#c0703f"/>
      <stop offset="1" stop-color="#e3914c"/>
    </linearGradient>
    <linearGradient id="linear-gradient-21" x1="-1902.52" y1="461.8" x2="-1844.52" y2="461.8" gradientTransform="translate(-3517.58 479.72) rotate(167.09) scale(1.23 -1) skewX(-65.9)" xlink:href="#linear-gradient-10"/>
    <linearGradient id="linear-gradient-22" x1="-1873.39" y1="470.19" x2="-1873.39" y2="453.69" gradientTransform="translate(-3517.58 479.72) rotate(167.09) scale(1.23 -1) skewX(-65.9)" xlink:href="#linear-gradient-11"/>
    <linearGradient id="linear-gradient-23" x1="-1873.57" y1="469.46" x2="-1873.57" y2="455.39" gradientTransform="translate(-3517.58 479.72) rotate(167.09) scale(1.23 -1) skewX(-65.9)" xlink:href="#linear-gradient-10"/>
    <linearGradient id="linear-gradient-24" x1="-1870.67" y1="468.16" x2="-1870.67" y2="458.98" gradientTransform="translate(-3517.58 479.72) rotate(167.09) scale(1.23 -1) skewX(-65.9)" xlink:href="#linear-gradient-11"/>
    <linearGradient id="linear-gradient-25" x1="-2235.95" y1="-44.51" x2="-2235.95" y2="-54.04" gradientTransform="translate(-2149.98 -188.87) rotate(-170.42) scale(1 -1)" xlink:href="#linear-gradient-11"/>
    <linearGradient id="linear-gradient-26" x1="-1111.75" y1="-128.92" x2="-1053.79" y2="-128.92" gradientTransform="translate(990.25 458.17) rotate(12.38) scale(1.23 1) skewX(-65.9)" xlink:href="#linear-gradient-10"/>
    <linearGradient id="linear-gradient-27" x1="-1082.64" y1="-120.52" x2="-1082.64" y2="-137.03" gradientTransform="translate(990.25 458.17) rotate(12.38) scale(1.23 1) skewX(-65.9)" xlink:href="#linear-gradient-11"/>
    <linearGradient id="linear-gradient-28" x1="-1082.81" y1="-121.25" x2="-1082.81" y2="-135.33" gradientTransform="translate(990.25 458.17) rotate(12.38) scale(1.23 1) skewX(-65.9)" xlink:href="#linear-gradient-10"/>
    <linearGradient id="linear-gradient-29" x1="-1079.91" y1="-122.55" x2="-1079.91" y2="-131.74" gradientTransform="translate(990.25 458.17) rotate(12.38) scale(1.23 1) skewX(-65.9)" xlink:href="#linear-gradient-11"/>
    <linearGradient id="linear-gradient-30" x1="-2359.06" y1="65.54" x2="-2359.06" y2="56.15" gradientTransform="translate(-2288.49 -60.22) rotate(-176.98) scale(1 -1)" xlink:href="#linear-gradient-11"/>
    <linearGradient id="linear-gradient-31" x1="2936.84" y1="-715.72" x2="2987.89" y2="-715.72" gradientTransform="translate(-2955.36 -155.23) rotate(18.51)" xlink:href="#linear-gradient-2"/>
    <linearGradient id="linear-gradient-32" x1="2939.24" y1="-715.62" x2="2986.48" y2="-715.62" gradientTransform="translate(-2955.36 -155.23) rotate(18.51)" xlink:href="#linear-gradient-3"/>
    <linearGradient id="linear-gradient-33" x1="2943.88" y1="-715.61" x2="2984.52" y2="-715.61" gradientTransform="translate(-2955.36 -155.23) rotate(18.51)" xlink:href="#linear-gradient-2"/>
    <linearGradient id="linear-gradient-34" x1="-1010.58" y1="-114.09" x2="-954.18" y2="-114.09" gradientTransform="translate(963.14 363.64) rotate(9.9) scale(1.23 1) skewX(-65.9)" xlink:href="#linear-gradient-10"/>
    <linearGradient id="linear-gradient-35" x1="-982.35" y1="-106.2" x2="-982.35" y2="-121.76" gradientTransform="translate(963.14 363.64) rotate(9.9) scale(1.23 1) skewX(-65.9)" xlink:href="#linear-gradient-11"/>
    <linearGradient id="linear-gradient-36" x1="-982.13" y1="-106.96" x2="-982.13" y2="-120.25" gradientTransform="translate(963.14 363.64) rotate(9.9) scale(1.23 1) skewX(-65.9)" xlink:href="#linear-gradient-10"/>
    <linearGradient id="linear-gradient-37" x1="-980.94" y1="-108.02" x2="-980.94" y2="-116.94" gradientTransform="translate(963.14 363.64) rotate(9.9) scale(1.23 1) skewX(-65.9)" xlink:href="#linear-gradient-11"/>
    <linearGradient id="linear-gradient-38" x1="-2167.72" y1="-190.72" x2="-2167.72" y2="-203.92" gradientTransform="translate(-2044.57 -270.02) rotate(-165.04) scale(1 -1)" xlink:href="#linear-gradient-11"/>
    <linearGradient id="linear-gradient-39" x1="98.02" y1="175.3" x2="140.35" y2="175.3" gradientTransform="translate(-23.96 -17.39) rotate(-.86)" gradientUnits="userSpaceOnUse">
      <stop offset="0" stop-color="#4e803b"/>
      <stop offset="1" stop-color="#7d9f41"/>
    </linearGradient>
    <linearGradient id="linear-gradient-40" x1="920.81" y1="-167.8" x2="868.82" y2="-167.93" gradientTransform="translate(-98.12 -598.91) rotate(88.95) scale(.82 1.08)" xlink:href="#linear-gradient-2"/>
    <linearGradient id="linear-gradient-41" x1="919.52" y1="-167.89" x2="870.15" y2="-168.01" gradientTransform="translate(-98.12 -598.91) rotate(88.95) scale(.82 1.08)" xlink:href="#linear-gradient-3"/>
    <linearGradient id="linear-gradient-42" x1="918.43" y1="-167.81" x2="871.05" y2="-167.93" gradientTransform="translate(-98.12 -598.91) rotate(88.95) scale(.82 1.08)" xlink:href="#linear-gradient-2"/>
    <linearGradient id="linear-gradient-43" x1="894.44" y1="-156.76" x2="894.44" y2="-180.35" gradientTransform="translate(-98.12 -598.91) rotate(88.95) scale(.82 1.08)" xlink:href="#linear-gradient-3"/>
    <linearGradient id="linear-gradient-44" x1="104.11" y1="150.57" x2="136.84" y2="150.57" gradientTransform="translate(-23.96 -17.39) rotate(-.86)" gradientUnits="userSpaceOnUse">
      <stop offset="0" stop-color="#e5daaa"/>
      <stop offset="1" stop-color="#f6f3c0"/>
    </linearGradient>
    <linearGradient id="linear-gradient-45" x1="-2330.99" y1="-14.82" x2="-2297.73" y2="-14.82" gradientTransform="translate(-2200.18 -131.71) rotate(-173.11) scale(1 -1)" xlink:href="#linear-gradient-20"/>
    <linearGradient id="linear-gradient-46" x1="-1696.65" y1="170.8" x2="-1645.61" y2="170.8" gradientTransform="translate(2619.17 290.25) rotate(8.52) scale(1.23 1) skewX(-65.9)" xlink:href="#linear-gradient-10"/>
    <linearGradient id="linear-gradient-47" x1="-1671.03" y1="178.19" x2="-1671.03" y2="163.57" gradientTransform="translate(2619.17 290.25) rotate(8.52) scale(1.23 1) skewX(-65.9)" xlink:href="#linear-gradient-11"/>
    <linearGradient id="linear-gradient-48" x1="-1670.75" y1="177.44" x2="-1670.75" y2="165.05" gradientTransform="translate(2619.17 290.25) rotate(8.52) scale(1.23 1) skewX(-65.9)" xlink:href="#linear-gradient-10"/>
    <linearGradient id="linear-gradient-49" x1="-1669.04" y1="176.47" x2="-1669.04" y2="168.19" gradientTransform="translate(2619.17 290.25) rotate(8.52) scale(1.23 1) skewX(-65.9)" xlink:href="#linear-gradient-11"/>
    <linearGradient id="linear-gradient-50" x1="-2138.58" y1="-227" x2="-2138.58" y2="-240.13" gradientTransform="translate(-2016.88 -290.17) rotate(-163.66) scale(1 -1)" xlink:href="#linear-gradient-11"/>
    <linearGradient id="linear-gradient-51" x1="-2543.69" y1="732.78" x2="-2492.33" y2="732.78" gradientTransform="translate(-5001.51 812) rotate(163.63) scale(1.23 -1) skewX(-65.9)" xlink:href="#linear-gradient-10"/>
    <linearGradient id="linear-gradient-52" x1="-2517.92" y1="740.16" x2="-2517.92" y2="725.57" gradientTransform="translate(-5001.51 812) rotate(163.63) scale(1.23 -1) skewX(-65.9)" xlink:href="#linear-gradient-11"/>
    <linearGradient id="linear-gradient-53" x1="-2517.65" y1="739.42" x2="-2517.65" y2="727.06" gradientTransform="translate(-5001.51 812) rotate(163.63) scale(1.23 -1) skewX(-65.9)" xlink:href="#linear-gradient-10"/>
    <linearGradient id="linear-gradient-54" x1="-2515.98" y1="738.45" x2="-2515.98" y2="730.27" gradientTransform="translate(-5001.51 812) rotate(163.63) scale(1.23 -1) skewX(-65.9)" xlink:href="#linear-gradient-11"/>
    <linearGradient id="linear-gradient-55" x1="383.65" y1="1107.78" x2="383.65" y2="1089.54" gradientTransform="translate(-896.36 -521.79) rotate(-39.68)" xlink:href="#linear-gradient-11"/>
  </defs>
  <g class="cls-16">
    <g id="Layer_1" data-name="Layer 1">
      <rect class="cls-19" x="8" y="10.22" width="183.21" height="175" rx="26" ry="26"/>
      <path class="cls-71" d="M42.42,189.98h113.51c17.12,0,31-13.88,31-31v-56.07c-25.38-5.4-52.62-8.34-80.97-8.34-33.48,0-65.4,4.09-94.53,11.5v52.9c0,17.12,13.88,31,31,31Z"/>
      <path class="cls-14" d="M168.15,14c9.37,0,17,7.63,17,17v133.51c0,9.37-7.63,17-17,17H31c-9.37,0-17-7.63-17-17V31c0-9.37,7.63-17,17-17h137.15M168.15,0H31C13.88,0,0,13.88,0,31v133.51c0,17.12,13.88,31,31,31h137.15c17.12,0,31-13.88,31-31V31c0-17.12-13.88-31-31-31h0Z"/>
      <g>
        <g>
          <path class="cls-66" d="M163.5,114l.85,1.16.16.89-.24.75.43,1.62.49.17-.28,2.41s-11.04,15.04-38.22,20.06c-.55-3.55.34-10.97.34-10.97l36.48-16.1Z"/>
          <path class="cls-1" d="M128.61,136.63s10.92-1.99,17.89-5.41c-4.99,3.05-18.61,6.41-18.61,6.41l.72-1Z"/>
          <polygon class="cls-1" points="134.01 137.6 146.65 132.8 146.11 133.85 134.01 137.6"/>
          <polygon class="cls-1" points="110.64 116.68 110.26 117.98 110.7 119.08 110.43 119.93 109.65 119.86 109.02 121.83 109.67 122.59 108.8 123.43 108.52 126.47 126.68 141.07 127.89 137.63 128.61 136.63 128.08 135.49 128.59 134.53 129.43 134.4 128.81 133.55 129.14 133.15 110.64 116.68"/>
          <path class="cls-12" d="M110.64,116.68c5.86,5.93,12.59,11.39,18.83,16.71,9.71-.21,24.42-8.14,34.03-19.38-4.75-4.63-9.93-9.32-15.56-14.08-9.2,9.9-24.01,16.61-37.3,16.76Z"/>
          <path class="cls-11" d="M112.65,117.71c5.13,5.21,12.23,9.55,16.55,14.67,11.73-1.27,23.52-7.91,32.77-18.26-4.22-4.24-8.79-8.52-13.72-12.85-8.91,9.4-23.06,15.94-35.6,16.43Z"/>
          <path class="cls-10" d="M145.79,104.74c-7.52,6.82-19.02,12.07-28.7,13.33,1.39,1.63,2.2,2.94.98,3.43,2.64,2.7,6.79,5.87,9.2,7.46.03,0,.05-.01.08-.02,1.81-.25,4.29.76,5.77,2.45,8.98-2.01,17.84-7.1,25.38-14.5-.81-1.36-.68-3.09.34-4.46-2.39-2.47-4.88-4.95-7.49-7.44-1.47,1.09-3.8.96-5.56-.25Z"/>
          <path class="cls-7" d="M145.47,116.21c2.84,2.78,2.49,7.03-.84,8.93-3.2,1.91-8,.45-10.64-2.7-2.79-3.17-2.5-6.61.55-8.18,3.16-1.55,8.03-.9,10.94,1.95Z"/>
          <path class="cls-4" d="M145.89,126.64c-4.12,2.45-10.21.46-13.53-3.6-3.56-4.08-3.2-8.35.63-10.3,4.02-1.91,10.22-1.16,14.01,2.38,3.6,3.5,3.16,8.99-1.11,11.53ZM133.46,113.2c-3.63,1.8-3.95,5.87-.62,9.67,3.12,3.78,8.85,5.64,12.68,3.32,4.01-2.31,4.4-7.46,1.04-10.74-3.53-3.32-9.35-4.1-13.1-2.24Z"/>
          <path class="cls-4" d="M151.79,114.07c-.81.69-2.15.61-2.98-.17-.84-.77-.87-1.92-.08-2.58.8-.66,2.13-.62,2.99.12.85.74.89,1.92.08,2.62ZM149.38,111.9c-.47.39-.45,1.06.05,1.51.49.45,1.27.49,1.74.09.47-.4.45-1.09-.05-1.53-.5-.44-1.28-.47-1.74-.08Z"/>
          <path class="cls-4" d="M130.5,125.59c-.89.24-2.24-.35-2.98-1.27-.76-.92-.65-1.83.24-2.05.9-.22,2.25.3,3.01,1.2.75.91.63,1.87-.27,2.12ZM128.34,122.96c-.52.13-.59.67-.14,1.21.44.54,1.22.87,1.74.73.53-.14.59-.7.15-1.23-.44-.53-1.23-.84-1.75-.71Z"/>
          <g>
            <path class="cls-68" d="M110.69,119.11c1.12,1.13,2.26,2.24,3.36,3.37,2.09,2.15,4.26,4.21,6.53,6.15.07.06.18-.06.11-.13-2.15-2.06-8.92-8.68-10.18-9.9l.19.47v.03Z"/>
            <path class="cls-68" d="M115.24,127.78c1.71,1.27,3.33,2.69,5.06,3.94,1.91,1.38,3.87,2.67,5.79,4.04.03.02.06-.03.03-.05-3.42-2.64-6.97-5.09-10.29-7.88-1.65-1.39-3.38-2.67-5.03-4.05-.42-.35-.84-.71-1.25-1.08l-.15.14c1.88,1.72,3.78,3.41,5.83,4.93Z"/>
            <path class="cls-68" d="M116.79,130.81s.1-.04.05-.08c-2.65-2.45-5.39-4.81-8.05-7.26l-.02.21c.91.89,1.87,1.72,2.79,2.56,1.71,1.56,3.46,3.07,5.22,4.57Z"/>
          </g>
          <path class="cls-66" d="M112.76,123.53s9.52,8.36,12.5,11.65c.49.04,2.13.13,2.13.13l-14.63-11.78Z"/>
          <path class="cls-1" d="M164.49,115.71s-6.78,6.62-10.49,9.63c4.03-2.98,10.26-8.53,10.26-8.53l.23-1.1Z"/>
          <path class="cls-1" d="M165.15,118.68s-4.35,4.08-5.57,5.33c1.5-.83,5.54-4.91,5.54-4.91l.03-.42Z"/>
          <polygon class="cls-1" points="164.51 117.74 159.93 121.93 164.69 118.42 164.51 117.74"/>
        </g>
        <g>
          <path class="cls-66" d="M43.63,110l-.85,1.16-.16.89.24.75-.43,1.62-.49.17.28,2.41s11.04,15.04,38.23,20.06c.55-3.55-.34-10.97-.34-10.97l-36.48-16.1Z"/>
          <path class="cls-1" d="M78.52,132.63s-10.92-1.99-17.89-5.41c4.99,3.05,18.61,6.41,18.61,6.41l-.72-1Z"/>
          <polygon class="cls-1" points="73.12 133.61 60.48 128.8 61.02 129.85 73.12 133.61"/>
          <polygon class="cls-1" points="96.48 112.68 96.87 113.99 96.43 115.09 96.7 115.93 97.48 115.87 98.11 117.84 97.46 118.6 98.33 119.44 98.61 122.48 80.45 137.08 79.24 133.63 78.52 132.63 79.05 131.5 78.54 130.53 77.7 130.41 78.32 129.56 77.99 129.15 96.48 112.68"/>
          <path class="cls-8" d="M96.48,112.68c-5.86,5.93-12.59,11.39-18.83,16.71-9.71-.21-24.42-8.14-34.03-19.38,4.75-4.63,9.93-9.32,15.56-14.08,9.2,9.9,24.01,16.61,37.3,16.76Z"/>
          <path class="cls-6" d="M94.48,113.72c-5.13,5.21-12.23,9.55-16.55,14.67-11.73-1.27-23.52-7.91-32.77-18.26,4.22-4.24,8.79-8.52,13.72-12.85,8.91,9.4,23.06,15.94,35.6,16.43Z"/>
          <path class="cls-5" d="M61.34,100.74c7.52,6.83,19.02,12.07,28.7,13.33-1.39,1.63-2.2,2.94-.98,3.43-2.64,2.7-6.79,5.87-9.2,7.46-.03,0-.05-.01-.08-.02-1.81-.25-4.29.76-5.77,2.45-8.98-2.01-17.84-7.1-25.38-14.5.81-1.36.68-3.09-.34-4.46,2.39-2.47,4.88-4.95,7.49-7.44,1.47,1.09,3.8.96,5.56-.25Z"/>
          <path class="cls-9" d="M61.66,112.22c-2.84,2.78-2.49,7.03.84,8.93,3.2,1.91,8,.45,10.65-2.7,2.79-3.17,2.5-6.61-.55-8.18-3.16-1.55-8.03-.9-10.94,1.95Z"/>
          <path class="cls-4" d="M61.24,122.64c4.12,2.45,10.21.46,13.53-3.6,3.57-4.08,3.21-8.35-.63-10.3-4.02-1.91-10.22-1.16-14.01,2.38-3.6,3.5-3.16,8.99,1.11,11.53ZM73.67,109.21c3.63,1.8,3.95,5.87.62,9.67-3.12,3.78-8.85,5.64-12.68,3.32-4.01-2.31-4.4-7.46-1.04-10.74,3.53-3.32,9.35-4.1,13.1-2.24Z"/>
          <path class="cls-4" d="M55.34,110.08c.81.69,2.15.61,2.98-.17.84-.77.87-1.92.08-2.58-.8-.66-2.13-.62-2.99.12-.85.74-.89,1.92-.08,2.62ZM57.75,107.91c.47.39.45,1.06-.05,1.51-.49.45-1.27.49-1.74.09-.47-.4-.45-1.09.05-1.53.5-.44,1.28-.47,1.74-.08Z"/>
          <path class="cls-4" d="M76.63,121.6c.89.24,2.23-.35,2.98-1.27.76-.92.65-1.83-.24-2.05-.9-.22-2.25.3-3.01,1.2-.75.91-.64,1.87.27,2.12ZM78.79,118.97c.52.13.59.67.14,1.21-.44.54-1.22.87-1.74.73-.53-.14-.59-.7-.15-1.23.44-.53,1.23-.84,1.75-.71Z"/>
          <g>
            <path class="cls-68" d="M96.44,115.12c-1.12,1.13-2.26,2.24-3.36,3.37-2.09,2.15-4.26,4.21-6.53,6.15-.07.06-.18-.06-.11-.13,2.15-2.06,8.92-8.68,10.18-9.9l-.19.48v.03Z"/>
            <path class="cls-68" d="M91.89,123.78c-1.71,1.27-3.33,2.69-5.06,3.94-1.91,1.38-3.87,2.67-5.79,4.04-.03.02-.06-.03-.03-.05,3.42-2.64,6.97-5.09,10.29-7.88,1.65-1.38,3.38-2.67,5.03-4.05.42-.36.84-.71,1.25-1.08l.15.14c-1.88,1.72-3.78,3.41-5.83,4.93Z"/>
            <path class="cls-68" d="M90.34,126.82s-.1-.04-.05-.08c2.65-2.45,5.39-4.81,8.05-7.26l.02.21c-.91.89-1.87,1.71-2.79,2.56-1.71,1.56-3.46,3.07-5.22,4.56Z"/>
          </g>
          <path class="cls-66" d="M94.37,119.53s-9.52,8.36-12.5,11.65c-.49.04-2.13.13-2.13.13l14.63-11.78Z"/>
          <path class="cls-1" d="M42.64,111.72s6.77,6.62,10.49,9.63c-4.03-2.98-10.26-8.53-10.26-8.53l-.23-1.1Z"/>
          <path class="cls-1" d="M41.98,114.69s4.35,4.08,5.56,5.33c-1.5-.83-5.54-4.91-5.54-4.91l-.03-.42Z"/>
          <polygon class="cls-1" points="42.61 113.74 47.2 117.94 42.44 114.43 42.61 113.74"/>
        </g>
        <g>
          <path class="cls-66" d="M145.46,145.64l3.32,11.77s20.74-10.18,21.73-12.06c.1-.53.83-2.89,1.44-4.96l-.19-.35s.53-1.95.74-2.67l.33-.09c.48-1.6.84-2.79.84-2.79l-28.21,11.13Z"/>
          <path class="cls-1" d="M99.92,134.45l.61,2.79-.26.29.72,2.89.24.19.51,2.19-.21.14.69,2.06s11.91,5.26,18.84,7.11c6.94,1.85,27.7,5.3,27.7,5.3l-.4-1.8.43-.37.15-2.41-.73-.32.38-2.99.32-.73.04-2.94-49.04-11.4Z"/>
          <polygon class="cls-68" points="124.76 147.53 138.01 149.76 125.03 148.34 124.76 147.53"/>
          <path class="cls-30" d="M127.13,125.63c-9.05,3.18-18.14,6.14-27.21,8.82,12.14,7.57,28.65,11.39,49.04,11.4,8.36-3.74,16.61-7.53,24.7-11.35-19.1.16-34.74-2.85-46.53-8.87Z"/>
          <path class="cls-31" d="M126.48,126.62c-7.94,2.82-15.92,5.48-23.89,7.93,11.55,6.85,26.91,10.44,45.71,10.7,7.72-3.34,15.36-6.73,22.87-10.16-18.19.04-33.2-2.82-44.69-8.48Z"/>
          <path class="cls-32" d="M164.39,135.48c-13.82-.46-25.64-2.73-35.27-6.77-2.51.79-5.72.91-7.71.32-3.75,1.42-7.51,2.81-11.28,4.17.03.02.07.03.09.04,1.84,1,1.37,2.39-1.06,3.31,9.37,4.52,20.9,7.2,34.41,7.99,2.42-.81,5.57-1.38,8.08-1.47,4.38-1.83,8.74-3.69,13.06-5.55-2.13-.15-2.24-1.02-.3-2.04Z"/>
          <path class="cls-33" d="M142.96,139.07c-4.61,2-12.36,3.1-16.85,2.09-4.45-1.05-3.8-3.54,1.02-5.28,4.83-1.72,11.88-2.31,16.15-1.55,4.25.75,4.29,2.74-.32,4.74Z"/>
          <path class="cls-35" d="M123.73,142.09c-5.74-1.37-4.75-4.69,1.42-6.84,6.2-2.13,15.11-2.82,20.48-1.88,5.37.91,5.53,3.39-.3,5.96-5.82,2.61-15.88,4.13-21.61,2.76ZM144.92,133.66c-5.06-.88-13.41-.23-19.2,1.77-5.75,2.03-6.63,5.08-1.26,6.38,5.37,1.24,14.72-.12,20.18-2.55,5.46-2.39,5.31-4.72.28-5.6Z"/>
          <path class="cls-69" d="M148.07,140.86c-1.38-.08-1.44-.64-.16-1.21,1.27-.57,3.39-.96,4.75-.88,1.36.08,1.46.59.21,1.17-1.25.58-3.42,1.01-4.8.92ZM151.71,139.2c-.8-.04-2.04.18-2.79.52-.74.33-.71.65.1.7.81.05,2.06-.19,2.8-.53.74-.34.68-.64-.11-.69Z"/>
          <path class="cls-69" d="M119.05,134.71c-1.01-.42-.68-1.14.72-1.59,1.4-.44,3.34-.47,4.33-.09,1.01.39.71,1.08-.66,1.56-1.39.48-3.38.54-4.39.13ZM123.06,133.38c-.59-.23-1.73-.21-2.53.06-.82.26-1.01.68-.42.92.58.24,1.74.21,2.55-.07.82-.27.99-.68.4-.91Z"/>
          <path class="cls-67" d="M135.58,139.38c4.4-1.66-1.87-2.12.46-2.99,2.61-.96,4.25.2,4.26.19.71-.15,1.41-.3,2.12-.46,0-.24-.46-.49-1.21-.67.35-.14.71-.28,1.07-.43-.42-.04-.84-.07-1.27-.11-.28.12-.57.24-.86.35-1.4-.15-3.27-.08-5.22.59-3.88,1.34.69,2.43-.98,3.06-2.58.99-4.85-.31-4.83-.32-.71.13-1.41.25-2.12.37.07.09.8.5,1.99.8-.41.15-.81.29-1.22.44.31.06.62.11.93.17.37-.14.74-.29,1.11-.43,1.55.26,3.62.24,5.77-.57Z"/>
          <g>
            <polygon class="cls-18" points="126.02 153.71 126.35 144.23 149.16 135.1 134.87 135.53 117.39 142.15 117.52 151.62 126.02 153.71"/>
            <path class="cls-17" d="M126.02,154.07s-.05,0-.08,0l-8.51-2.09c-.15-.04-.26-.18-.26-.35l-.13-9.47c0-.15.09-.29.23-.34l17.49-6.62s.07-.02.11-.02l14.29-.43c.15,0,.31.12.35.29.03.17-.06.34-.21.41l-22.6,9.05-.32,9.24c0,.11-.05.21-.13.27-.06.05-.13.07-.21.07ZM117.85,151.33l7.84,1.93.31-9.04c0-.14.09-.27.22-.32l20.92-8.37-12.21.37-17.21,6.51.12,8.93Z"/>
          </g>
          <path class="cls-68" d="M100.28,137.54s9.5,4.72,14.37,5.33c-2.71-1.32-13.9-5.87-13.9-5.87l-.47.54Z"/>
          <polygon class="cls-68" points="101 140.43 115.45 145.67 101.41 141.24 101 140.43"/>
          <polygon class="cls-68" points="101.54 142.95 101.74 143.69 114.01 147.8 101.54 142.95"/>
          <polygon class="cls-68" points="148.36 149.51 127.95 147.31 148.93 148.8 148.36 149.51"/>
          <polygon class="cls-68" points="148.23 152.53 129.78 150.09 148.96 153.39 149 153.03 148.23 152.53"/>
          <polygon class="cls-1" points="148.77 147.19 167.07 139.6 148.53 148.01 148.77 147.19"/>
          <polygon class="cls-1" points="148.31 153.86 159.86 148.03 148.23 154.58 148.31 153.86"/>
          <polygon class="cls-1" points="171.08 142.84 154.45 152.01 170.93 143.74 171.08 142.84"/>
          <polygon class="cls-1" points="171.75 140.05 160.57 144.87 171.94 140.4 171.75 140.05"/>
          <polygon class="cls-2" points="134.99 143.04 113.43 142.13 108.93 129.34 113.43 125.34 134.99 143.04"/>
        </g>
        <g>
          <path class="cls-1" d="M135.22,143.36s-24.07-14.33-28.24-22.92c-.17-3.55-.66-6.7-.66-6.7,0,0,22.93,15.38,29.92,18.63,3.13.68,2.28,5.63,2.28,5.63l-3.3,5.36Z"/>
          <g>
            <path class="cls-68" d="M136.64,139.98c-4.62-2.18-9.02-4.32-13.21-7.35-.12-.09-.24.11-.12.2,4.08,3.2,8.31,5.94,13.23,7.47.2.06.29-.23.1-.32Z"/>
            <path class="cls-68" d="M129.96,132.07c-3.3-1.03-6.32-2.87-9.25-4.74-.07-.04-.13.06-.07.11,5.33,3.69,11.16,6.66,17.63,6.84-.06-.17-.13-.32-.21-.48-2.71-.56-5.44-.89-8.11-1.73Z"/>
            <path class="cls-68" d="M138.63,136.5c-3.79-.73-7.3-1.79-10.78-3.59-3.41-1.77-6.51-3.95-9.67-6.16-.05-.04-.11.05-.06.09,5.96,4.51,12.8,9.79,20.5,9.83,0-.06,0-.11,0-.17Z"/>
          </g>
          <path class="cls-66" d="M136.25,132.38l-.31,3.57,1.02.42-.29,2.35-1.1,1.12-.35,3.52,22.29-8.88.42-3.25,1.15-.82.76-3.57-.64-.24s1.59-3.29,1.41-3.56c-3.55,1.26-24.37,9.33-24.37,9.33Z"/>
          <path class="cls-46" d="M160.62,123.04c-7.4,4.09-16.01,6.97-24.37,9.33-10.96-3-24.41-11.36-29.92-18.63,6.53-2.21,13.29-4.81,20.26-7.85,6.08,7.24,19.79,14.45,34.04,17.14Z"/>
          <path class="cls-47" d="M158.29,123.59c-6.53,3.5-15.34,5.33-21.47,8.12-12.86-4.18-23.44-10.91-29.01-17.78,5.85-2.05,11.87-4.41,18.06-7.12,5.94,6.9,19.02,13.88,32.43,16.78Z"/>
          <path class="cls-48" d="M127.15,109.15c5.5,5.29,16.14,10.92,26.26,13.83-1.81,1.15-2.94,2.1-1.71,2.8-3.45,1.68-8.76,3.23-11.84,3.84-.03-.01-.06-.02-.09-.04-1.97-.68-5.01-.59-7.14.25-9.42-3.75-17.32-8.82-22.42-14.12,1.35-.67,1.88-1.64,1.39-2.48,3.3-1.25,6.65-2.6,10.06-4.06,1.07.73,3.39.73,5.49-.01Z"/>
          <path class="cls-49" d="M135.57,123.19c-3.59,1.21-9.04,1.18-11.77-.34-2.7-1.55-1.62-3.73,2.04-4.68,3.67-.93,8.52-.53,11.16.74,2.64,1.24,2.15,3.07-1.44,4.28Z"/>
          <path class="cls-34" d="M121.97,123.39c-3.47-2.01-1.95-4.9,2.72-6.05,4.68-1.12,10.8-.56,14.14,1.01,3.34,1.54,2.81,3.83-1.74,5.39-4.55,1.61-11.65,1.65-15.11-.36ZM138.27,118.53c-3.14-1.47-8.88-1.99-13.25-.94-4.36,1.09-5.73,3.74-2.49,5.64,3.26,1.84,9.84,1.84,14.11.36,4.26-1.45,4.76-3.6,1.63-5.06Z"/>
          <path class="cls-4" d="M137.12,126.2c.93.4,2.55.27,3.6-.28,1.05-.55,1.15-1.3.23-1.67-.92-.37-2.52-.26-3.58.27-1.06.52-1.18,1.28-.25,1.68ZM140.15,124.67c.54.22.48.66-.14.98-.62.32-1.56.39-2.1.16-.54-.23-.47-.67.14-.98.62-.31,1.56-.38,2.09-.16Z"/>
          <polygon class="cls-1" points="136.17 133.58 136 134.32 153.25 128.73 136.17 133.58"/>
          <path class="cls-1" d="M136.67,138.72s12.63-3.73,16.6-5.22c-1.81,1.2-17.89,6.58-17.89,6.58l1.28-1.36Z"/>
          <polygon class="cls-1" points="135.39 141.24 143.82 139.25 135.29 142.05 135.39 141.24"/>
          <polygon class="cls-1" points="159.85 126.84 150.86 130.98 159.6 127.85 159.85 126.84"/>
          <path class="cls-1" d="M143.35,134.86s15.72-4.86,18.07-5.07c-.49-.54-2.11-.66-2.11-.66l-15.96,5.73Z"/>
          <g>
            <polygon class="cls-15" points="114.68 129.66 115.15 122.05 137.93 114.11 145.07 117 121.31 125.98 120.33 133.99 114.68 129.66"/>
            <path class="cls-18" d="M115.15,122.05l-.47,7.61,5.65,4.33.97-8.01.34-.13c-2.16-1.1-4.2-2.4-6.1-3.94l-.4.14Z"/>
            <path class="cls-37" d="M120.33,134.26c-.05,0-.11-.02-.15-.05l-5.65-4.33c-.07-.06-.11-.14-.11-.24l.47-7.61c0-.11.08-.21.18-.24l22.78-7.94c.06-.02.12-.02.18,0l7.14,2.88c.1.04.17.14.17.26,0,.11-.07.22-.17.25l-23.62,8.93-.95,7.84c-.01.1-.07.18-.16.22-.03.01-.07.02-.1.02ZM114.95,129.53l5.18,3.97.92-7.55c.01-.1.08-.19.17-.22l23.11-8.74-6.4-2.58-22.53,7.85-.45,7.27Z"/>
          </g>
        </g>
        <g>
          <path class="cls-66" d="M53.12,143.57l-2.38,12.02s-21.48-8.35-22.6-10.14c-.14-.52-1.05-2.81-1.82-4.81l.16-.37s-.68-1.9-.95-2.6l-.33-.06c-.6-1.55-1.06-2.71-1.06-2.71l28.98,8.66Z"/>
          <path class="cls-1" d="M97.62,128.48l-.39,2.83.28.27-.49,2.94-.23.21-.33,2.23.22.12-.53,2.11s-11.45,6.27-18.22,8.71c-6.77,2.44-27.19,7.67-27.19,7.67l.26-1.83-.46-.33-.34-2.39.71-.38-.61-2.95-.38-.7-.27-2.93,47.98-15.6Z"/>
          <polygon class="cls-68" points="73.9 143.66 60.87 147.03 73.69 144.49 73.9 143.66"/>
          <path class="cls-36" d="M69.81,122.04c9.27,2.39,18.56,4.56,27.81,6.44-11.5,8.6-27.65,13.83-47.98,15.6-8.63-3.01-17.14-6.07-25.51-9.18,19.05-1.49,34.4-5.84,45.67-12.87Z"/>
          <path class="cls-38" d="M70.54,122.98c8.13,2.13,16.3,4.09,24.43,5.84-10.97,7.83-26,12.73-44.71,14.62-7.96-2.66-15.83-5.38-23.59-8.15,18.13-1.53,32.87-5.68,43.87-12.31Z"/>
          <path class="cls-39" d="M33.45,135.07c13.74-1.65,25.34-4.94,34.62-9.79,2.56.57,5.77.42,7.71-.35,3.85,1.09,7.71,2.15,11.57,3.18-.03.02-.06.03-.09.05-1.75,1.15-1.18,2.5,1.32,3.21-8.98,5.32-20.26,8.98-33.66,10.94-2.47-.6-5.66-.89-8.17-.77-4.51-1.44-9-2.92-13.45-4.41,2.11-.34,2.15-1.21.14-2.06Z"/>
          <path class="cls-55" d="M55.1,136.81c4.75,1.6,12.56,2.02,16.95.62,4.36-1.43,3.51-3.86-1.43-5.18-4.95-1.3-12.02-1.28-16.21-.14-4.17,1.11-4.06,3.1.69,4.7Z"/>
          <path class="cls-41" d="M74.49,138.15c5.61-1.86,4.36-5.08-1.95-6.7-6.35-1.59-15.28-1.5-20.56-.1-5.28,1.37-5.25,3.86.77,5.92,6,2.1,16.15,2.74,21.75.88ZM52.71,131.59c4.97-1.31,13.35-1.39,19.27.11,5.89,1.53,7.01,4.49,1.76,6.24-5.25,1.7-14.68,1.15-20.31-.8-5.63-1.91-5.67-4.25-.72-5.55Z"/>
          <path class="cls-69" d="M50.14,139.03c1.37-.2,1.38-.76.06-1.22-1.31-.46-3.46-.66-4.8-.47-1.34.19-1.4.71-.11,1.18,1.29.47,3.49.71,4.85.51ZM46.38,137.69c.8-.11,2.05,0,2.82.28.77.27.75.59-.04.71-.8.12-2.07-.02-2.83-.29-.77-.27-.73-.58.05-.69Z"/>
          <path class="cls-69" d="M78.58,130.39c.97-.5.58-1.2-.84-1.53-1.43-.32-3.36-.18-4.32.28-.98.47-.62,1.13.78,1.49,1.42.36,3.41.25,4.38-.25ZM74.49,129.41c.57-.28,1.7-.36,2.53-.16.84.19,1.06.59.49.88-.56.29-1.72.36-2.54.15-.84-.2-1.04-.59-.48-.87Z"/>
          <path class="cls-67" d="M62.48,136.47c-4.52-1.27,1.7-2.28-.69-2.94-2.68-.73-4.22.56-4.23.56-.72-.09-1.43-.18-2.15-.27-.02-.24.42-.53,1.15-.78-.36-.11-.73-.22-1.1-.33.42-.07.84-.15,1.25-.22.29.09.59.19.88.28,1.38-.28,3.26-.36,5.25.14,3.97,1-.49,2.48,1.22,2.96,2.64.76,4.81-.73,4.79-.74.71.06,1.43.13,2.14.19-.07.09-.76.57-1.92.97.42.11.83.22,1.25.33-.3.08-.6.17-.91.25-.38-.11-.76-.23-1.14-.34-1.53.39-3.59.56-5.8-.07Z"/>
          <g>
            <polygon class="cls-18" points="73.13 149.93 72.06 140.51 48.6 133.38 62.88 132.58 80.83 137.66 81.44 147.11 73.13 149.93"/>
            <path class="cls-17" d="M73.13,150.29c-.06,0-.13-.02-.18-.06-.09-.06-.14-.15-.16-.26l-1.05-9.18-23.24-7.06c-.16-.05-.26-.21-.25-.39.02-.17.16-.31.32-.32l14.28-.81s.07,0,.11.01l17.95,5.08c.14.04.24.17.25.32l.62,9.45c.01.16-.09.32-.24.37l-8.31,2.82s-.07.02-.11.02ZM50.64,133.63l21.51,6.54c.13.04.23.16.25.3l1.02,8.99,7.66-2.6-.58-8.91-17.66-5-12.2.69Z"/>
          </g>
          <path class="cls-68" d="M97.51,131.58s-9.1,5.52-13.91,6.56c2.6-1.55,13.39-7.05,13.39-7.05l.51.5Z"/>
          <polygon class="cls-68" points="97.02 134.53 83.03 141 96.68 135.37 97.02 134.53"/>
          <polygon class="cls-68" points="96.68 137.09 96.54 137.84 84.64 143 96.68 137.09"/>
          <polygon class="cls-68" points="50.53 147.67 70.7 143.72 49.92 147.02 50.53 147.67"/>
          <polygon class="cls-68" points="50.9 150.67 69.1 146.65 50.25 151.6 50.17 151.24 50.9 150.67"/>
          <polygon class="cls-1" points="49.94 145.4 31.11 139.41 50.25 146.19 49.94 145.4"/>
          <polygon class="cls-1" points="50.93 152 38.96 147.19 51.06 152.71 50.93 152"/>
          <polygon class="cls-1" points="27.37 142.99 44.67 150.7 27.59 143.88 27.37 142.99"/>
          <polygon class="cls-1" points="26.48 140.27 38 144.1 26.32 140.64 26.48 140.27"/>
        </g>
        <g>
          <path class="cls-66" d="M74.13,133.28l2.49,12s21.4-8.56,22.51-10.35c.14-.52,1.03-2.82,1.78-4.83l-.16-.36s.66-1.91.93-2.61l.33-.06c.59-1.56,1.04-2.72,1.04-2.72l-28.91,8.93Z"/>
          <path class="cls-1" d="M29.5,118.63l.41,2.83-.28.27.52,2.94.23.21.35,2.22-.22.13.55,2.11s11.51,6.16,18.29,8.54c6.79,2.37,27.26,7.41,27.26,7.41l-.27-1.82.46-.33.32-2.39-.71-.37.59-2.96.37-.71.25-2.93-48.11-15.14Z"/>
          <polygon class="cls-68" points="53.35 133.58 66.41 136.83 53.56 134.41 53.35 133.58"/>
          <path class="cls-56" d="M57.25,111.92c-9.24,2.48-18.52,4.73-27.75,6.71,11.57,8.48,27.77,13.57,48.11,15.14,8.6-3.09,17.09-6.24,25.42-9.42-19.06-1.31-34.45-5.51-45.78-12.43Z"/>
          <path class="cls-54" d="M56.53,112.86c-8.12,2.21-16.26,4.24-24.38,6.08,11.04,7.72,26.11,12.48,44.84,14.19,7.94-2.74,15.79-5.53,23.52-8.37-18.14-1.35-32.92-5.36-43.98-11.89Z"/>
          <path class="cls-40" d="M93.72,124.61c-13.76-1.52-25.38-4.7-34.71-9.46-2.56.59-5.77.47-7.72-.27-3.84,1.13-7.69,2.23-11.54,3.29.03.02.06.03.09.05,1.76,1.14,1.2,2.49-1.29,3.22,9.03,5.23,20.34,8.79,33.76,10.62,2.47-.62,5.66-.95,8.16-.85,4.5-1.49,8.97-3,13.41-4.53-2.12-.32-2.16-1.19-.16-2.06Z"/>
          <path class="cls-57" d="M72.09,126.55c-4.74,1.64-12.54,2.14-16.95.79-4.37-1.39-3.54-3.83,1.39-5.19,4.94-1.35,12.01-1.39,16.21-.3,4.18,1.07,4.09,3.06-.65,4.7Z"/>
          <path class="cls-45" d="M52.71,128.08c-5.63-1.81-4.41-5.04,1.9-6.71,6.34-1.65,15.27-1.65,20.56-.3,5.29,1.32,5.28,3.81-.71,5.92-5.98,2.16-16.12,2.9-21.74,1.09ZM74.43,121.3c-4.98-1.26-13.36-1.26-19.27.29-5.88,1.58-6.97,4.55-1.71,6.26,5.27,1.65,14.69,1.01,20.31-.99,5.62-1.97,5.63-4.3.67-5.56Z"/>
          <path class="cls-69" d="M77.07,128.72c-1.37-.19-1.39-.75-.07-1.22,1.31-.47,3.45-.69,4.79-.52,1.35.18,1.41.7.13,1.18-1.29.48-3.48.74-4.85.55ZM80.82,127.35c-.8-.11-2.05.03-2.82.3-.76.28-.75.6.05.7.8.11,2.07-.04,2.83-.32.76-.28.72-.59-.06-.69Z"/>
          <path class="cls-69" d="M48.56,120.35c-.98-.5-.59-1.19.83-1.53,1.43-.33,3.36-.22,4.33.24.98.46.63,1.13-.77,1.5-1.42.37-3.41.28-4.38-.21ZM52.64,119.34c-.57-.27-1.71-.34-2.53-.14-.84.2-1.05.6-.48.89.57.28,1.72.34,2.54.12.84-.21,1.03-.6.47-.88Z"/>
          <path class="cls-67" d="M64.71,126.28c4.51-1.32-1.72-2.26.66-2.94,2.67-.75,4.23.52,4.24.52.72-.09,1.43-.19,2.15-.29.02-.24-.43-.52-1.16-.77.36-.11.73-.23,1.09-.34-.42-.07-.84-.14-1.25-.21-.29.09-.59.19-.88.29-1.39-.26-3.26-.33-5.25.19-3.96,1.04.52,2.47-1.19,2.97-2.64.79-4.81-.68-4.8-.69-.71.07-1.43.14-2.14.21.07.09.76.56,1.93.95-.41.11-.83.23-1.24.34.3.08.61.16.91.24.38-.12.76-.23,1.14-.35,1.53.38,3.59.52,5.79-.12Z"/>
          <g>
            <polygon class="cls-18" points="54.18 139.84 55.17 130.41 78.56 123.06 64.28 122.39 46.37 127.64 45.84 137.1 54.18 139.84"/>
            <path class="cls-17" d="M54.18,140.2s-.07,0-.1-.02l-8.34-2.74c-.15-.05-.25-.2-.24-.36l.53-9.45c0-.15.11-.28.25-.32l17.9-5.25s.07-.01.11-.01l14.28.67c.17,0,.3.14.33.32.02.17-.08.34-.24.39l-23.17,7.28-.96,9.19c-.01.11-.07.2-.15.26-.06.04-.12.06-.19.06ZM46.2,136.84l7.68,2.53.94-9c.01-.14.11-.26.24-.3l21.45-6.74-12.21-.57-17.61,5.17-.5,8.92Z"/>
          </g>
          <path class="cls-68" d="M29.64,121.73s9.14,5.44,13.96,6.42c-2.61-1.53-13.45-6.93-13.45-6.93l-.51.5Z"/>
          <polygon class="cls-68" points="30.15 124.67 44.2 131.01 30.5 125.51 30.15 124.67"/>
          <polygon class="cls-68" points="30.52 127.23 30.67 127.98 42.61 133.02 30.52 127.23"/>
          <polygon class="cls-68" points="76.75 137.37 56.55 133.61 77.36 136.7 76.75 137.37"/>
          <polygon class="cls-68" points="76.41 140.37 58.18 136.52 77.07 141.29 77.15 140.93 76.41 140.37"/>
          <polygon class="cls-1" points="77.33 135.09 96.11 128.92 77.03 135.88 77.33 135.09"/>
          <polygon class="cls-1" points="76.39 141.7 88.32 136.78 76.27 142.41 76.39 141.7"/>
          <polygon class="cls-1" points="99.88 132.46 82.65 140.33 99.66 133.35 99.88 132.46"/>
          <polygon class="cls-1" points="100.74 129.73 89.25 133.68 100.91 130.1 100.74 129.73"/>
        </g>
        <g>
          <path class="cls-1" d="M76.94,130.97s25.38-11.59,30.38-19.68c.52-3.52,1.33-6.59,1.33-6.59,0,0-24.35,12.77-31.62,15.23-3.18.33-2.83,5.34-2.83,5.34l2.75,5.7Z"/>
          <g>
            <path class="cls-68" d="M75.87,127.45c4.81-1.66,9.4-3.3,13.87-5.85.13-.07.22.13.1.21-4.38,2.73-8.86,5-13.9,5.97-.21.04-.26-.27-.07-.33Z"/>
            <path class="cls-68" d="M83.31,120.31c3.38-.67,6.58-2.16,9.67-3.7.07-.03.13.08.06.11-5.67,3.08-11.77,5.4-18.22,4.86.08-.16.16-.31.26-.45,2.75-.26,5.5-.28,8.23-.82Z"/>
            <path class="cls-68" d="M74.24,123.76c3.84-.31,7.44-.97,11.08-2.38,3.57-1.38,6.87-3.21,10.24-5.06.06-.03.1.06.05.1-6.38,3.83-13.71,8.33-21.38,7.52,0-.06.01-.11.02-.18Z"/>
          </g>
          <path class="cls-66" d="M77.02,119.93l-.05,3.59-1.06.31.05,2.37.98,1.24v3.54s-21.28-11.29-21.28-11.29l-.1-3.28-1.06-.94-.4-3.63.66-.17s-1.25-3.44-1.05-3.7c3.4,1.65,23.3,11.97,23.3,11.97Z"/>
          <path class="cls-43" d="M53.72,107.96c6.95,4.88,15.22,8.7,23.3,11.97,11.2-1.78,25.41-8.6,31.62-15.23-6.28-2.92-12.74-6.24-19.36-10.04-6.77,6.53-21.13,12.19-35.57,13.3Z"/>
          <path class="cls-42" d="M55.99,108.76c6.15,4.2,14.72,6.99,20.54,10.44,13.2-2.74,24.4-8.26,30.64-14.49-5.61-2.68-11.36-5.69-17.24-9.07-6.6,6.21-20.31,11.71-33.93,13.12Z"/>
          <path class="cls-44" d="M88.4,97.83c-6,4.66-17.14,9.08-27.51,10.86,1.68,1.34,2.72,2.41,1.42,2.97,3.26,2.05,8.39,4.18,11.39,5.12.03,0,.06-.02.09-.02,2.02-.46,5.04-.03,7.07,1.03,9.75-2.69,18.11-6.86,23.72-11.57-1.27-.81-1.7-1.84-1.13-2.62-3.16-1.61-6.36-3.32-9.59-5.15-1.14.61-3.44.35-5.46-.62Z"/>
          <path class="cls-4" d="M76.77,113.69c-.96.29-2.56-.02-3.55-.67-.99-.67-1.01-1.42-.06-1.69.95-.27,2.53.02,3.53.67,1,.63,1.05,1.4.08,1.69ZM73.92,111.83c-.56.16-.54.6.04.99.58.38,1.51.56,2.07.39.56-.17.54-.61-.05-.99-.58-.38-1.51-.55-2.07-.39Z"/>
          <polygon class="cls-1" points="76.98 121.13 77.07 121.88 60.48 114.43 76.98 121.13"/>
          <path class="cls-1" d="M75.97,126.19s-12.18-5.1-15.99-7.02c1.69,1.39,17.13,8.51,17.13,8.51l-1.14-1.49Z"/>
          <polygon class="cls-1" points="76.98 128.83 68.81 125.93 77.01 129.65 76.98 128.83"/>
          <polygon class="cls-1" points="54.1 111.82 62.63 116.93 54.25 112.85 54.1 111.82"/>
          <path class="cls-1" d="M69.7,121.61s-15.14-6.56-17.46-7.03c.54-.48,2.17-.43,2.17-.43l15.29,7.46Z"/>
        </g>
        <g>
          <path class="cls-66" d="M112.19,107.05c1.4,3.89,2.94,7.83,4.6,11.8.59-.13,21.16-7.09,21.04-8.75-.04-.52.11-2.8.17-4.82-.09-.13-.18-.26-.27-.39,0,0,.01-1.91.03-2.61.09-.01.19-.02.28-.03.04-1.56.07-2.72.07-2.72-7.57,2.29-16.21,4.74-25.93,7.51Z"/>
          <path class="cls-1" d="M65.11,97.02c-.07.83-.13,1.66-.18,2.49-.12.1-.24.2-.36.29-.03.86-.04,1.72-.05,2.58.07.05.14.1.21.15-.02.65-.04,1.3-.05,1.96-.09.05-.18.1-.27.15.07.61.14,1.22.22,1.83-.09-.07,12.37,3.85,20.35,5.68,7.81,1.33,31.83,6.43,31.83,6.7-.21-.6-.42-1.2-.63-1.81.15-.1.3-.2.45-.31-.03-.78-.05-1.56-.07-2.33-.28-.13-.56-.26-.84-.39.05-.96.1-1.92.14-2.88.09-.23.19-.45.28-.68-.07-.95-.15-1.91-.22-2.87-17.5-5.34-34.52-8.8-50.8-10.56Z"/>
          <path class="cls-51" d="M94.34,87.36c-8.9,3.07-18.73,6.26-29.23,9.66,10.54,5.64,29.28,8.48,50.8,10.56,8.46-2.81,15.86-5.45,22.22-8.05-17.31-2.95-33.37-6.67-43.78-12.18Z"/>
          <path class="cls-50" d="M93.61,88.29c-7.9,2.73-16.52,5.56-25.69,8.56,10.24,5.18,27.46,7.99,47.24,10.09,7.82-2.5,14.77-4.87,20.84-7.19-16.7-2.8-32.13-6.31-42.39-11.46Z"/>
          <path class="cls-52" d="M129.81,99.15c-13.04-2.31-24.97-5.13-33.88-8.91-2.49.73-5.68.89-7.55.4-3.9,1.42-7.97,2.88-12.19,4.37.03.01.06.02.08.04,1.68.81.93,2.11-1.88,3.12,8.92,3.53,21.46,5.86,35.75,7.68,2.52-.59,5.73-.87,8.28-.69,4.29-1.33,8.32-2.63,12.06-3.9-2.06-.45-2.3-1.32-.67-2.09Z"/>
          <path class="cls-58" d="M109.31,100.53c-4.56,1.6-12.86,2.32-17.59,1.38-4.68-.98-3.55-3.3,1.56-4.95,5.14-1.62,12.04-1.97,16.21-.97,4.13.98,4.4,2.93-.18,4.54Z"/>
          <path class="cls-53" d="M89.08,102.78c-6.08-1.21-4.32-4.31,2.25-6.41,6.62-2.06,15.23-2.45,20.42-1.16,5.16,1.26,5.69,3.72-.02,5.73-5.67,2.04-16.57,3.05-22.65,1.84ZM111.07,95.45c-4.91-1.2-13.02-.83-19.18,1.1-6.12,1.96-7.67,4.8-2,5.97,5.69,1.11,15.78.22,21.13-1.69,5.38-1.88,4.91-4.19.05-5.38Z"/>
          <path class="cls-69" d="M114.58,102.64c-1.41-.2-1.49-.74-.24-1.19,1.24-.45,3.31-.63,4.66-.42,1.34.21,1.51.73.33,1.17-1.18.44-3.34.64-4.74.44ZM118.1,101.37c-.8-.12-2.01-.01-2.74.25-.72.26-.66.57.15.69.82.12,2.06,0,2.76-.25.71-.26.61-.56-.18-.68Z"/>
          <path class="cls-69" d="M85.13,95.97c-.97-.36-.5-1.04.98-1.5,1.5-.45,3.45-.52,4.4-.17.97.35.6,1-.87,1.46-1.48.46-3.55.57-4.52.21ZM89.41,94.65c-.56-.21-1.72-.16-2.58.11-.87.26-1.13.66-.57.87.57.21,1.76.15,2.62-.12.87-.27,1.09-.65.53-.85Z"/>
          <path class="cls-67" d="M101.76,100.43c4.54-1.4-1.85-2.09.54-2.82,2.64-.82,4.26.37,4.28.37.71-.12,1.41-.21,2.11-.32,0-.23-.47-.5-1.21-.71.35-.12.7-.23,1.05-.35-.42-.06-.83-.11-1.25-.17-.28.1-.56.2-.84.29-1.39-.22-3.24-.22-5.23.35-3.99,1.16.61,2.32-1.11,2.86-2.71.85-5.02-.41-4.99-.41-.75.11-1.49.22-2.24.33.07.08.79.48,2.02.77-.44.13-.88.26-1.31.4.32.06.64.11.96.17.4-.13.8-.26,1.2-.39,1.61.27,3.79.32,6.03-.37Z"/>
          <path class="cls-68" d="M64.56,99.81c-.08-.05,21.59,6.84,26.96,7.3-2.86-1.22-26.37-7.92-26.29-7.84-.22.18-.45.36-.67.54Z"/>
          <path class="cls-68" d="M64.51,102.39c4.85,1.13,9.84,2.41,14.95,3.87-5.01-1.21-9.92-2.26-14.73-3.17-.08-.23-.15-.47-.22-.7Z"/>
          <path class="cls-68" d="M64.4,104.65c0,.22.01.44.02.66,4.26.87,8.61,1.86,13.04,2.98-4.46-1.34-8.82-2.55-13.05-3.63Z"/>
          <path class="cls-68" d="M115.58,111.08c-7.41-1.43-14.86-2.55-22.36-3.38,7.72.6,15.36,1.52,22.9,2.75-.18.21-.36.42-.54.63Z"/>
          <path class="cls-68" d="M115.7,114.01c-6.85-1.47-13.72-2.68-20.61-3.64,7.14,1.24,14.31,2.76,21.49,4.57,0-.12.01-.23.02-.35-.3-.19-.6-.39-.9-.58Z"/>
          <path class="cls-1" d="M115.82,108.87c6.25-1.84,12.03-3.56,17.34-5.19-5.33,1.89-11.18,3.86-17.53,5.96.06-.26.12-.51.19-.77Z"/>
          <path class="cls-1" d="M115.91,115.32c4.1-1.46,7.99-2.87,11.66-4.25-3.66,1.61-7.55,3.25-11.67,4.94,0-.23,0-.46.01-.69Z"/>
          <path class="cls-1" d="M137.78,107.63c-4.64,2.16-9.75,4.36-15.34,6.64,5.57-1.99,10.71-3.89,15.41-5.74-.02-.3-.05-.6-.07-.89Z"/>
          <path class="cls-1" d="M137.74,104.9c-3.15,1.01-6.47,2.05-9.98,3.12,3.59-.95,7-1.86,10.24-2.73-.09-.13-.18-.26-.27-.39Z"/>
        </g>
        <g>
          <polygon class="cls-59" points="76.61 152.38 77.57 155.04 78.01 155.24 78.37 156.46 78.13 156.87 78.44 157.84 79.22 158.13 80.19 161.08 116.6 159.64 118.14 156.63 117.72 156.2 118.18 154.31 118.72 154.24 118.95 153.27 118.59 152.41 118.94 151.07 76.61 152.38"/>
          <path class="cls-21" d="M109.86,110.15c-7.37.09-14.75.17-22.11.26-.78,14.07-6.51,28.08-11.13,41.97,14.21,1.12,28.38.61,42.32-1.3-3.21-13.72-8.43-27.14-9.08-40.92Z"/>
          <path class="cls-22" d="M108.58,111.15c-6.55.13-13.09.25-19.63.38-.91,13.3-5.46,26.57-9.76,39.9,12.58.84,24.92.51,37.33-.92-3.01-13.28-7.2-26.18-7.94-39.36Z"/>
          <path class="cls-23" d="M113.94,146.37c-2.31-10.51-4.94-20.78-5.93-31.16-2.17-.18-4.01-1.53-4.51-3.24-3.44.15-6.89.31-10.34.46,0,.03,0,.06,0,.1-.06,2.09-1.96,3.73-4.33,3.85-1.21,10.27-4.21,20.54-7.36,30.89,2.98.47,5.02,1.81,5.16,3.5,6.92.28,13.78.22,20.68-.18.34-1.9,3.03-3.61,6.63-4.23Z"/>
          <path class="cls-1" d="M98.24,138.27c-6.25.26-10.75-3.01-9.89-6.98.86-3.99,5.21-7.14,9.91-7.1,4.69.05,9.12,3.03,9.91,6.72.78,3.67-3.69,7.11-9.93,7.36Z"/>
          <path class="cls-20" d="M97.32,140.27c-4.75,0-8.88-1.63-10.77-4.26-1.05-1.46-1.36-3.12-.9-4.81,1.38-5.03,6.83-8.97,12.41-8.97h.19c5.79.11,11.32,3.84,12.6,8.49.4,1.48.1,3-.85,4.4-2,2.91-6.5,4.87-11.76,5.13-.31.01-.62.02-.93.02ZM98.07,122.85c-5.34,0-10.54,3.74-11.85,8.52-.41,1.5-.13,2.97.8,4.27,1.78,2.48,5.73,4.02,10.3,4.02.3,0,.6,0,.9-.02,5.08-.25,9.42-2.12,11.31-4.87.85-1.24,1.12-2.58.77-3.87-1.19-4.33-6.6-7.94-12.05-8.04h-.18Z"/>
          <path class="cls-13" d="M97.61,146.43c-1.09,0-2.04-.33-2.52-.88-.26-.3-.39-.64-.36-1.01.08-1.1,1.46-2,3.21-2.09,1.79-.09,3.15.69,3.2,1.79.05,1.11-1.35,2.07-3.2,2.18-.11,0-.22,0-.32,0ZM98.21,143.3c-.08,0-.15,0-.23,0-1.38.07-2.39.74-2.43,1.3,0,.12.04.24.14.36.36.41,1.24.65,2.21.6,1.39-.08,2.45-.75,2.42-1.28-.02-.47-.87-.98-2.11-.98Z"/>
          <path class="cls-13" d="M98.4,120.49h-.07c-1.24-.04-2.23-.93-2.21-2,.02-1.04.95-1.85,2.12-1.85h.11c1.21.05,2.18.92,2.21,1.98.01.44-.15.86-.46,1.19-.4.44-1.02.69-1.69.69ZM98.23,117.49c-.72,0-1.29.45-1.3,1.02-.01.59.63,1.1,1.41,1.13h.05c.45,0,.86-.16,1.11-.43.11-.12.23-.31.23-.57-.02-.59-.67-1.11-1.42-1.15h-.08Z"/>
          <g>
            <polygon class="cls-28" points="84.25 128.11 82.44 134.95 115.18 134.98 113.1 127.27 84.25 128.11"/>
            <path class="cls-26" d="M115.56,135.28l-33.5-.02,1.96-7.45,29.29-.85,2.25,8.32ZM82.83,134.65l31.96.02-1.92-7.08-28.41.82-1.64,6.24Z"/>
          </g>
          <g>
            <polygon class="cls-68" points="79.18 158.12 79.22 158.13 79.67 159.49 110.48 157.44 79.18 158.12"/>
            <path class="cls-68" d="M77.63,155.07l.38.17.32,1.08,31.24-1.73s-24.2.54-31.94.48Z"/>
          </g>
          <path class="cls-70" d="M97.75,156.16s9.45.21,19.15.16c0-.36-.26-1.27-.26-1.27l-18.88,1.11Z"/>
          <path class="cls-70" d="M103.34,158.83s12.72.21,14.47.39c0-.41-.46-1.27-.46-1.27l-14.02.88Z"/>
        </g>
        <g>
          <path class="cls-66" d="M111.2,93.86c1.21,3.38,2.48,6.76,3.81,10.13.3-.33,19.95-7.4,20.23-8.49.01-.42.31-2.28.52-3.9-.08-.1-.16-.21-.24-.31,0,0,.15-1.54.22-2.1.1,0,.19-.02.29-.03.16-1.25.27-2.18.27-2.18-7.83,1.7-16.21,3.97-25.1,6.89Z"/>
          <path class="cls-1" d="M69.91,86.03c.01.85.03,1.7.05,2.54-.09.1-.19.2-.28.31.04.88.09,1.75.14,2.62.06.05.12.1.19.15.03.66.06,1.32.09,1.98-.07.05-.14.11-.22.16.09.61.19,1.22.29,1.83-.08-.02,10.4,3.34,17.18,4.5,6.5.85,27.54,3.66,27.65,3.86-.17-.51-.33-1.03-.5-1.54.14-.1.28-.2.42-.3,0-.68.01-1.36.02-2.04-.25-.1-.5-.2-.75-.29-.04-.99-.08-1.98-.12-2.98.2-.06.41-.11.61-.17-.04-.83-.08-1.67-.12-2.5-15.93-3.88-30.84-6.5-44.67-8.13Z"/>
          <g>
            <polygon class="cls-15" points="116.81 83.98 96.57 92.72 97.31 101.88 86.7 99.8 86.39 92.23 109.46 82.38 116.81 83.98"/>
            <path class="cls-18" d="M96.59,92.92l.72,8.96-10.62-2.08-.31-7.57,1.49-.64c2.92.38,5.83.8,8.71,1.33Z"/>
            <path class="cls-17" d="M97.32,102.2c.07,0,.14-.03.2-.08.07-.07.11-.16.1-.26l-.72-8.93,20.03-8.65c.12-.05.2-.19.19-.32-.01-.14-.11-.26-.24-.28l-7.35-1.59c-.06-.01-.12,0-.18.02l-23.07,9.85c-.12.05-.2.17-.19.31l.31,7.57c0,.15.11.27.25.3l10.62,2.08s.04,0,.06,0ZM115.77,84.08l-19.32,8.34c-.12.05-.2.18-.19.32l.71,8.75-9.98-1.95-.29-7.09,22.79-9.73,6.28,1.36Z"/>
          </g>
          <path class="cls-2" d="M69.91,86.03c.01.85.03,1.7.05,2.54-.09.1-.19.2-.28.31.04.88.09,1.75.14,2.62.06.05.12.1.19.15.03.66.06,1.32.09,1.98-.07.05-.14.11-.22.16.09.61.19,1.22.29,1.83-.07-.02,9.2,2.95,15.95,4.27,7.33-.48,14.22-3.39,20.55-7.57-12.98-2.89-25.25-4.94-36.76-6.3Z"/>
          <path class="cls-29" d="M94.68,76.32c-7.9,2.87-16.23,6.12-24.77,9.71,9.34,5.71,24.98,7.34,44.67,8.13,7.84-2.85,15.1-5.21,21.72-7.19-17.3-2.61-31.86-5.39-41.62-10.65Z"/>
          <path class="cls-27" d="M94.07,77.2c-6.99,2.58-14.3,5.46-21.8,8.62,9.07,5.16,23.56,6.89,41.64,7.81,7.23-2.55,13.99-4.7,20.24-6.51-16.55-2.4-30.52-5.02-40.08-9.92Z"/>
          <path class="cls-25" d="M128.04,86.6c-12.66-1.89-23.55-4.08-31.78-7.58-2.22.7-5.05.89-6.75.43-3.38,1.39-6.83,2.86-10.36,4.4.02.01.06.02.07.04,1.5.77.93,2.06-1.39,3.13,7.82,3.32,18.58,4.9,31.51,5.86,2.28-.64,5.24-1.01,7.61-.95,4.02-1.32,7.91-2.51,11.63-3.59-1.99-.35-2.18-1.09-.56-1.73Z"/>
          <path class="cls-24" d="M108.63,88.17c-4.2,1.56-11.56,2.6-15.69,1.91-4.09-.73-3.23-3.03,1.22-4.71,4.47-1.67,10.76-2.09,14.63-1.26,3.85.82,4.05,2.49-.16,4.06Z"/>
          <path class="cls-63" d="M90.67,91.01c-5.27-.89-3.94-4,1.75-6.14,5.73-2.12,13.61-2.56,18.48-1.49,4.84,1.06,5.26,3.14-.04,5.08-5.28,1.96-14.91,3.43-20.18,2.54ZM110.26,83.6c-4.58-1-11.99-.56-17.34,1.42-5.31,2-6.48,4.84-1.55,5.7,4.94.81,13.87-.5,18.84-2.34,4.97-1.83,4.6-3.79.05-4.78Z"/>
          <path class="cls-69" d="M113.46,89.87c-1.3-.13-1.37-.61-.21-1.04,1.16-.43,3.09-.64,4.35-.49,1.26.15,1.4.59.28,1-1.12.41-3.13.66-4.43.53ZM116.76,88.65c-.75-.09-1.88.04-2.56.29-.67.25-.62.52.13.6.76.08,1.92-.06,2.58-.3.67-.24.59-.5-.15-.59Z"/>
          <path class="cls-69" d="M86.96,84.64c-.87-.32-.5-1,.78-1.46,1.29-.46,3.01-.56,3.87-.25.87.32.57.93-.7,1.41-1.28.47-3.08.62-3.95.3ZM90.65,83.28c-.51-.18-1.52-.12-2.26.15-.75.27-.96.66-.45.84.5.19,1.55.1,2.29-.17.75-.27.93-.64.43-.83Z"/>
          <polygon class="cls-68" points="114.7 96.66 98.29 96.27 114.09 97.63 114.7 96.66"/>
          <polygon class="cls-68" points="114.21 99.12 114.21 99.81 100.41 98.21 114.21 99.12"/>
          <polygon class="cls-68" points="114.67 102.42 105.08 101.08 114.88 102.95 114.67 102.42"/>
          <polygon class="cls-1" points="135.76 91.59 123.88 95.35 135.53 90.85 135.76 91.59"/>
          <polygon class="cls-1" points="135.75 89.18 135.66 89.78 128.01 92.24 135.75 89.18"/>
          <polygon class="cls-1" points="114.7 96.66 124.43 94.11 114.68 95.91 114.7 96.66"/>
          <polygon class="cls-1" points="114.93 100.53 131.43 95.19 114.94 101.35 114.93 100.53"/>
          <polygon class="cls-68" points="69.92 87.27 80.34 91.72 69.96 88.25 69.92 87.27"/>
        </g>
        <g>
          <path class="cls-1" d="M91.13,86.88c-.76,3.52-1.57,7.05-2.45,10.58-.34-.28-20.72-4.48-21.14-5.52-.06-.42-.61-2.21-1.03-3.79.06-.11.13-.23.19-.34,0,0-.35-1.5-.49-2.05-.1,0-.19,0-.29.02-.32-1.22-.55-2.12-.55-2.12,7.97.56,16.58,1.61,25.76,3.23Z"/>
          <path class="cls-66" d="M131.01,73.21c.1.84.19,1.68.28,2.53.11.09.21.18.32.26.07.87.14,1.75.2,2.62-.06.06-.11.12-.17.17.06.66.12,1.32.17,1.98.08.04.16.09.23.13-.01.62-.03,1.24-.05,1.86.07-.03-9.87,4.8-16.44,6.92-6.32,1.77-26.81,7.56-26.89,7.78.1-.53.2-1.07.29-1.6-.15-.08-.3-.16-.46-.24-.1-.67-.19-1.35-.29-2.02.23-.13.47-.26.7-.4-.09-.99-.18-1.98-.27-2.97-.21-.03-.42-.05-.63-.08-.07-.83-.14-1.66-.21-2.5,15.27-6.13,29.71-10.85,43.19-14.45Z"/>
          <path class="cls-64" d="M105.22,67.14c8.2,1.71,16.88,3.74,25.8,6.07-8.51,6.99-23.79,10.84-43.19,14.45-8.14-1.7-15.64-3-22.45-4.01,16.8-5.06,30.86-9.9,39.84-16.51Z"/>
          <path class="cls-65" d="M105.94,67.92c7.26,1.56,14.88,3.36,22.72,5.42-8.32,6.41-22.44,10.19-40.24,13.69-7.49-1.49-14.47-2.65-20.89-3.55,16.08-4.74,29.58-9.34,38.41-15.56Z"/>
          <path class="cls-60" d="M73.51,82.1c12.3-3.69,22.8-7.41,30.5-12.06,2.29.38,5.12.16,6.74-.54,3.53.9,7.14,1.86,10.83,2.88-.02.02-.05.03-.07.04-1.38.98-.66,2.18,1.79,2.9-7.31,4.41-17.77,7.51-30.45,10.32-2.35-.31-5.33-.25-7.66.15-4.16-.73-8.16-1.36-11.99-1.9,1.92-.64,2.02-1.39.33-1.79Z"/>
          <path class="cls-61" d="M92.93,80.87c4.37.95,11.79.93,15.79-.35,3.96-1.31,2.81-3.46-1.82-4.49-4.65-1.01-10.93-.53-14.66.84-3.7,1.36-3.69,3.05.69,3.99Z"/>
          <path class="cls-62" d="M111.1,81.11c5.11-1.63,3.39-4.53-2.53-5.83-5.96-1.28-13.81-.59-18.5,1.17-4.66,1.74-4.81,3.86.7,5.03,5.48,1.19,15.22,1.27,20.33-.37ZM90.73,76.58c4.41-1.64,11.8-2.27,17.36-1.07,5.52,1.22,7.05,3.86,2.28,5.43-4.79,1.5-13.81,1.49-18.96.37-5.17-1.1-5.05-3.09-.68-4.73Z"/>
          <path class="cls-69" d="M88.37,83.25c1.27-.31,1.28-.8.07-1.06-1.2-.26-3.15-.19-4.37.13-1.23.33-1.31.78-.15,1.03,1.16.25,3.19.2,4.45-.11ZM84.95,82.51c.73-.19,1.87-.23,2.57-.08.7.15.69.43-.05.61-.74.19-1.91.21-2.59.07-.69-.14-.65-.41.07-.6Z"/>
          <path class="cls-69" d="M113.95,74.27c.82-.44.36-1.06-.96-1.34-1.34-.28-3.05-.12-3.86.31-.82.44-.44,1.01.87,1.29,1.33.28,3.14.18,3.95-.26ZM110.11,73.45c.48-.26,1.49-.34,2.26-.17.78.16,1.03.51.56.77-.47.26-1.52.33-2.29.16-.78-.17-1.01-.5-.53-.76Z"/>
          <g>
            <polygon class="cls-15" points="84.18 77.32 105.36 83.08 105.83 92.27 116.07 88.69 115.39 81.15 91.25 74.69 84.18 77.32"/>
            <path class="cls-18" d="M105.38,83.29l.45,8.98,10.25-3.58-.68-7.54-1.56-.42c-2.84.79-5.67,1.62-8.46,2.56Z"/>
            <path class="cls-17" d="M105.86,92.58c-.07,0-.15,0-.21-.05-.08-.06-.13-.15-.13-.25l-.45-8.95-20.97-5.7c-.13-.03-.22-.15-.23-.3,0-.14.08-.27.2-.32l7.08-2.63c.06-.02.12-.02.18,0l24.14,6.46c.13.03.22.15.23.28l.68,7.54c.01.15-.07.29-.21.34l-10.25,3.57s-.04.01-.06.01ZM85.22,77.27l20.22,5.5c.13.03.22.15.23.29l.44,8.77,9.64-3.36-.64-7.07-23.84-6.38-6.05,2.25Z"/>
          </g>
          <polygon class="cls-1" points="88.03 90.15 104.23 87.42 88.76 91.02 88.03 90.15"/>
          <polygon class="cls-1" points="88.83 92.52 88.93 93.2 102.39 89.65 88.83 92.52"/>
          <polygon class="cls-1" points="88.81 95.85 98.14 93.15 88.67 96.41 88.81 95.85"/>
          <polygon class="cls-68" points="66.51 88.14 78.76 90.16 66.64 87.37 66.51 88.14"/>
          <polygon class="cls-68" points="66.21 85.75 66.37 86.33 74.27 87.68 66.21 85.75"/>
          <polygon class="cls-68" points="88.03 90.15 78.06 89.02 87.95 89.41 88.03 90.15"/>
          <polygon class="cls-68" points="88.3 94.01 71.27 91.09 88.4 94.83 88.3 94.01"/>
          <polygon class="cls-1" points="131.17 74.44 121.43 80.34 131.26 75.42 131.17 74.44"/>
        </g>
      </g>
      <polygon class="cls-3" points="69.2 73.51 69.57 71.78 70.78 73.08 72.62 72.83 71.66 74.37 72.42 75.96 70.62 75.61 69.26 76.83 69.1 75.07 67.5 74.23 69.2 73.51"/>
      <polygon class="cls-3" points="57.84 72.4 53.98 68.45 52.96 73.89 47.72 76.28 52.79 78.75 53.42 84.19 57.58 80.28 63.19 81.22 60.69 76.34 63.53 71.46 57.84 72.4"/>
      <polygon class="cls-3" points="86.14 64.26 87.44 60.91 83.96 61.76 81.14 59.3 81.03 62.96 77.98 64.79 81.4 66.21 82.35 69.78 84.57 67 88.22 67.37 86.14 64.26"/>
      <polygon class="cls-3" points="65.36 59.05 62.62 59.21 64.32 61.36 63.51 64.1 66.09 63.01 68.33 64.54 68.22 61.71 70.39 59.92 67.76 59.27 66.85 56.62 65.36 59.05"/>
      <polygon class="cls-3" points="102.77 49.85 101.13 44.58 97.75 48.95 91.99 48.69 95.38 53.2 93.46 58.33 98.95 56.75 103.51 60.14 103.51 54.66 108.26 51.61 102.77 49.85"/>
    </g>
  </g>
</svg>