<?xml version="1.0" encoding="UTF-8"?>
<svg id="Layer_1" data-name="Layer 1" xmlns="http://www.w3.org/2000/svg" xmlns:xlink="http://www.w3.org/1999/xlink" viewBox="0 0 199.15 195.51">
  <defs>
    <style>
      .cls-1 {
        fill: #085a9c;
      }

      .cls-2 {
        fill: url(#linear-gradient);
      }

      .cls-3 {
        fill: #fff;
      }

      .cls-4 {
        fill: #0c51a3;
      }

      .cls-5 {
        fill: #fedf00;
      }
    </style>
    <linearGradient id="linear-gradient" x1="0" y1="97.75" x2="199.15" y2="97.75" gradientUnits="userSpaceOnUse">
      <stop offset="0" stop-color="#1f5799"/>
      <stop offset=".06" stop-color="#1f5799"/>
      <stop offset="1" stop-color="#78c3e9"/>
      <stop offset="1" stop-color="#78c3e9"/>
    </linearGradient>
  </defs>
  <path class="cls-3" d="M165.21,183.12H34c-14.36,0-26-14-26-31.28V43.57c0-17.27,11.64-31.28,26-31.28h131.21c14.36,0,26,14,26,31.28v108.27c0,17.27-11.64,31.28-26,31.28Z"/>
  <path class="cls-5" d="M42.42,189.98h113.51c17.12,0,31-13.88,31-31v-56.07c-25.38-5.4-52.62-8.34-80.97-8.34-33.48,0-65.4,4.09-94.53,11.5v52.9c0,17.12,13.88,31,31,31Z"/>
  <path class="cls-2" d="M168.15,15.36c8.48,0,15.64,10.05,15.64,21.94v120.92c0,11.89-7.16,21.94-15.64,21.94H31c-8.48,0-15.64-10.05-15.64-21.94V37.29c0-11.89,7.16-21.94,15.64-21.94h137.15M168.15,0H31C13.88,0,0,16.7,0,37.29v120.92c0,20.6,13.88,37.29,31,37.29h137.15c17.12,0,31-16.7,31-37.29V37.29c0-20.6-13.88-37.29-31-37.29h0Z"/>
  <g>
    <polygon class="cls-1" points="99.09 55.02 99.36 52.04 101.65 53.97 104.67 53.18 103.39 55.96 105 58.46 101.9 58.25 99.87 60.56 99.24 57.66 96.38 56.58 99.09 55.02"/>
    <polygon class="cls-1" points="101.89 81.96 102.38 79.69 103.97 81.4 106.37 81.07 105.12 83.09 106.12 85.17 103.76 84.72 101.97 86.31 101.77 84.01 99.66 82.91 101.89 81.96"/>
    <polygon class="cls-1" points="118.79 47.73 123.4 41.19 126.12 48.72 134.17 50.92 127.5 55.63 127.86 63.56 121 58.94 113.2 61.58 115.64 54.03 110.45 47.72 118.79 47.73"/>
    <polygon class="cls-1" points="88.07 72.04 85.43 67.56 90.61 67.97 94.07 63.79 95.07 69 99.87 70.9 95.3 73.73 94.77 79.05 90.96 75.59 85.83 76.97 88.07 72.04"/>
    <polygon class="cls-1" points="123.83 71.6 127.78 71.19 125.85 74.66 127.64 78.39 123.71 77.42 120.86 80.14 120.36 76.07 116.84 74.01 120.45 72.47 121.13 68.47 123.83 71.6"/>
    <path class="cls-4" d="M87.18,154.66c0,2.8,2.62,5.09,5.82,5.09h31.48c3.2,0,5.82-2.29,5.82-5.09,0-1.99-1.32-3.72-3.24-4.56-1.2,1.6-3.09,2.55-5.1,2.55h-26.45c-2,0-3.89-.95-5.1-2.55-1.91.84-3.24,2.57-3.24,4.56M74.83,113.77c.93-1.32.97-3.72.18-6.6l-3.89,2.84-.02,5.5c1.53-.18,2.97-.66,3.73-1.74M64.99,140.11l.11-31.65c0-.96.46-1.86,1.24-2.42l15.98-11.66c1.35-.98,3.23-.69,4.21.66.98,1.35.69,3.23-.66,4.21l-6.74,4.92c1.28,3.68,2.21,8.73-.35,12.37-1.58,2.26-4.16,3.54-7.7,3.83l-.07,19.82s0,.08,0,.12c-.02.57.13,3.12,1.28,4.32.3.31.83.72,2,.72,3.11,0,3.78-4.41,3.8-4.58,0-.07.02-.15.04-.22l.21-1.02c1.18-5.76,2.6-12.7,10.78-14.81v6.36c-3.21,1.52-3.88,4.82-4.87,9.65l-.19.95c-.49,3.43-3.13,9.71-9.77,9.71-2.54,0-4.73-.89-6.35-2.58-2.99-3.12-2.98-7.87-2.96-8.68M119.44,101.11c0-2.04-1.66-3.7-3.7-3.7h-14c-2.04,0-3.7,1.66-3.7,3.7v9.07c0,2.04,1.66,3.7,3.7,3.7h14c2.04,0,3.7-1.66,3.7-3.7v-9.07ZM121.96,150.87h-26.45c-2.53,0-4.6-2.07-4.6-4.6v-50.58c0-2.53,2.07-4.6,4.6-4.6h26.45c2.53,0,4.6,2.07,4.6,4.6v50.58c0,2.53-2.07,4.6-4.6,4.6"/>
  </g>
</svg>