<?xml version="1.0" encoding="UTF-8"?>
<svg id="Layer_1" data-name="Layer 1" xmlns="http://www.w3.org/2000/svg" xmlns:xlink="http://www.w3.org/1999/xlink" viewBox="0 0 199.15 195.51">
  <defs>
    <style>
      .cls-1 {
        fill: #085a9c;
      }

      .cls-2 {
        fill: url(#linear-gradient);
      }

      .cls-3 {
        fill: #fff;
      }

      .cls-4 {
        fill: #0c51a3;
      }

      .cls-5 {
        fill: #fedf00;
      }

      .cls-6 {
        fill: #00589d;
      }
    </style>
    <linearGradient id="linear-gradient" x1="0" y1="97.75" x2="199.15" y2="97.75" gradientUnits="userSpaceOnUse">
      <stop offset="0" stop-color="#1f5799"/>
      <stop offset=".06" stop-color="#1f5799"/>
      <stop offset="1" stop-color="#78c3e9"/>
      <stop offset="1" stop-color="#78c3e9"/>
    </linearGradient>
  </defs>
  <rect class="cls-3" x="8" y="10.22" width="183.21" height="175" rx="26" ry="26"/>
  <path class="cls-5" d="M42.42,189.98h113.51c17.12,0,31-13.88,31-31v-56.07c-25.38-5.4-52.62-8.34-80.97-8.34-33.48,0-65.4,4.09-94.53,11.5v52.9c0,17.12,13.88,31,31,31Z"/>
  <path class="cls-2" d="M168.15,14c9.37,0,17,7.63,17,17v133.51c0,9.37-7.63,17-17,17H31c-9.37,0-17-7.63-17-17V31c0-9.37,7.63-17,17-17h137.15M168.15,0H31C13.88,0,0,13.88,0,31v133.51c0,17.12,13.88,31,31,31h137.15c17.12,0,31-13.88,31-31V31c0-17.12-13.88-31-31-31h0Z"/>
  <g>
    <polygon class="cls-1" points="75.02 62.93 75.27 60.22 77.35 61.98 80.1 61.25 78.93 63.78 80.39 66.05 77.58 65.86 75.73 67.96 75.17 65.32 72.57 64.35 75.02 62.93"/>
    <polygon class="cls-1" points="77.57 87.39 78.02 85.33 79.45 86.88 81.64 86.58 80.5 88.42 81.41 90.3 79.27 89.89 77.64 91.34 77.46 89.25 75.54 88.25 77.57 87.39"/>
    <polygon class="cls-1" points="92.91 56.31 97.1 50.37 99.57 57.21 106.87 59.2 100.82 63.48 101.15 70.68 94.92 66.49 87.84 68.89 90.05 62.03 85.34 56.3 92.91 56.31"/>
    <polygon class="cls-1" points="65.02 78.38 62.63 74.31 67.33 74.68 70.47 70.89 71.38 75.62 75.73 77.35 71.58 79.92 71.11 84.75 67.64 81.6 62.99 82.86 65.02 78.38"/>
    <polygon class="cls-1" points="97.49 77.98 101.07 77.61 99.32 80.76 100.95 84.14 97.38 83.27 94.79 85.73 94.34 82.04 91.14 80.17 94.42 78.77 95.03 75.14 97.49 77.98"/>
    <path class="cls-4" d="M64.21,153.4c0,2.54,2.38,4.62,5.28,4.62h28.58c2.9,0,5.28-2.08,5.28-4.62,0-1.81-1.2-3.38-2.94-4.14-1.09,1.46-2.81,2.31-4.63,2.32h-24.01c-1.82,0-3.53-.86-4.63-2.32-1.74.76-2.94,2.33-2.94,4.14M53,116.27c.84-1.2.88-3.38.16-5.99l-3.53,2.58-.02,5c1.39-.16,2.7-.6,3.39-1.58M44.06,140.19l.1-28.74c0-.87.42-1.69,1.12-2.2l14.51-10.58c1.22-.89,2.93-.62,3.83.6.89,1.22.62,2.93-.6,3.83l-6.12,4.46c1.16,3.34,2,7.93-.31,11.23-1.44,2.05-3.78,3.21-6.99,3.47l-.06,17.99s0,.07,0,.1c-.02.52.12,2.83,1.16,3.92.27.28.75.65,1.81.65,2.82,0,3.43-4.01,3.45-4.16,0-.07.02-.13.03-.2l.19-.93c1.07-5.23,2.36-11.53,9.79-13.44v5.78c-2.91,1.38-3.53,4.37-4.42,8.76l-.18.86c-.45,3.11-2.84,8.81-8.87,8.81-2.3,0-4.3-.81-5.77-2.34-2.72-2.83-2.71-7.15-2.68-7.88M93.5,104.78c0-1.85-1.51-3.36-3.36-3.36h-12.71c-1.86,0-3.36,1.51-3.36,3.36v8.24c0,1.85,1.51,3.36,3.36,3.36h12.71c1.85,0,3.36-1.51,3.36-3.36v-8.24ZM95.79,149.95h-24.01c-2.3,0-4.18-1.88-4.18-4.18v-45.92c0-2.3,1.88-4.18,4.18-4.18h24.01c2.3,0,4.18,1.88,4.18,4.18v45.92c0,2.3-1.88,4.18-4.18,4.18"/>
    <polygon class="cls-1" points="140.25 64.08 139.64 61.69 138.03 63.56 135.48 63.32 136.88 65.4 135.91 67.65 138.39 67.06 140.35 68.67 140.47 66.24 142.66 64.98 140.25 64.08"/>
    <polygon class="cls-1" points="141.53 86.3 140.84 84.52 139.78 86.12 137.78 86.17 139.06 87.64 138.53 89.46 140.38 88.78 142.04 89.84 141.91 87.95 143.47 86.77 141.53 86.3"/>
    <polygon class="cls-1" points="131.66 72.62 127.05 67.92 125.84 74.39 119.6 77.24 125.63 80.18 126.39 86.66 131.35 82.01 138.02 83.12 135.05 77.32 138.42 71.51 131.66 72.62"/>
    <polygon class="cls-1" points="151.44 76.42 152.99 72.44 148.84 73.46 145.48 70.52 145.35 74.88 141.72 77.06 145.8 78.75 146.93 83 149.57 79.69 153.91 80.13 151.44 76.42"/>
    <polygon class="cls-1" points="114.87 82.01 111.62 82.2 113.64 84.76 112.68 88.02 115.74 86.72 118.41 88.55 118.28 85.18 120.86 83.05 117.73 82.27 116.65 79.12 114.87 82.01"/>
    <g>
      <path class="cls-6" d="M110.52,106.54c0,9.39,0,32.73,0,41.77,0,5.88,3.74,9.66,9.64,9.69,7.78.04,15.55.03,23.33,0,6.05-.02,9.72-3.74,9.74-9.85.02-8.41,0-31.12,0-39.53,0-.59-.09-1.19-.17-2.17-.93.61-1.69.92-2.17,1.47-1.52,1.73-2.91,1.5-4.35-.06-1.36-1.48-2.73-1.34-4.07.05-1.35,1.4-2.66,1.76-4.15.1-1.42-1.58-2.96-1.64-4.45.01-1.42,1.59-2.78,1.39-4.15-.12-1.31-1.44-2.75-1.5-4.08-.05-1.58,1.73-3.02,1.52-4.54-.07-.96-.99-2.19-1.62-3.3-.37-2.1,2.36-3.95,1.95-5.85-.19-.23-.26-.68-.33-1.42-.67"/>
      <path class="cls-6" d="M110.52,106.54c.74.34,1.19.41,1.42.67,1.9,2.14,3.75,2.55,5.85.19,1.11-1.25,2.34-.62,3.3.37,1.52,1.59,2.96,1.8,4.54.07,1.33-1.45,2.77-1.39,4.08.05,1.37,1.51,2.73,1.71,4.15.12,1.48-1.66,3.02-1.6,4.45-.01,1.49,1.66,2.8,1.3,4.15-.1,1.34-1.39,2.71-1.53,4.07-.05,1.44,1.56,2.83,1.79,4.35.06.48-.55,1.24-.86,2.17-1.47.08.99.17,1.58.17,2.17.01,8.41.03,31.12,0,39.53-.02,6.11-3.69,9.82-9.74,9.85-7.78.03-15.55.04-23.33,0-5.9-.03-9.63-3.8-9.64-9.69-.01-9.03,0-32.37,0-41.77"/>
      <path class="cls-6" d="M148.79,107.53c-3.94-2.76-4.56-2.75-8.57.01-2.59-2.55-5.39-2.95-8.27.13-2.74-2.57-5.56-3.25-8.39.03-2.51-2.26-5.09-3.29-8.08-.45-2.03-2.76-3.97-5.4-6.23-8.47,1.81-.75,3.28-1.36,4.84-2.01-.32-.92-.64-1.85-1.2-3.48,3.04-.22,5.73-.49,8.43-.51.42,0,1.04,1.07,1.25,1.74.84,2.63,1.55,5.3,2.31,7.96,2.93-1.41,4.21-3.6,3.75-6.92-.27-1.94.06-3.96-.08-5.94-.11-1.63.65-2.41,2.08-2.58,1.17-.14,2.38-.14,3.54.04,1.3.19,2.05.93,1.97,2.46-.12,2.21.11,4.45-.05,6.65-.19,2.57.23,4.67,3.18,5.66.97-2.17,1.92-4.56,3.08-6.84,1.25-2.46,2.59-4.9,4.09-7.21.71-1.09,1.77-2.06,2.88-2.75,2.2-1.37,4.76-.24,4.94,2.31.15,2.25.03,4.65-.62,6.78-1.35,4.44-3.14,8.74-4.84,13.38"/>
    </g>
    <polygon class="cls-5" points="140.42 135.4 145.1 128.2 136.51 128.5 131.11 121.35 129.07 129.87 121.03 132.67 128.36 137.67 128.84 146.49 135.39 141.05 143.75 143.71 140.42 135.4"/>
  </g>
</svg>