<svg xmlns="http://www.w3.org/2000/svg" id="Layer_1" version="1.1" viewBox="0 0 199.15 305.51">
  <defs>
    <linearGradient id="linear-gradient" x1="0" x2="199.15" y1="874.76" y2="874.76" gradientTransform="translate(0 -722)" gradientUnits="userSpaceOnUse">
      <stop offset="0" stop-color="#1f5799"/>
      <stop offset=".06" stop-color="#1f5799"/>
      <stop offset="1" stop-color="#78c3e9"/>
      <stop offset="1" stop-color="#78c3e9"/>
    </linearGradient>
    <clipPath id="clippath">
      <path fill="none" d="M31.66 213.4a66.85 66.85 0 1 0 133.7 0 66.85 66.85 0 0 0-133.7 0Z"/>
    </clipPath>
  </defs>
  <rect width="183.21" height="285" x="8" y="10.22" fill="#fff" rx="26" ry="26"/>
  <path fill="#fedf00" d="M42.42 299.98h113.51a31 31 0 0 0 31-31v-56.07a389.92 389.92 0 0 0-80.97-8.34c-33.48 0-65.4 4.09-94.53 11.5v52.9a31 31 0 0 0 31 31Z"/>
  <path fill="url(#linear-gradient)" d="M168.15 14c9.37 0 17 7.63 17 17v243.51c0 9.37-7.63 17-17 17H31c-9.37 0-17-7.63-17-17V31c0-9.37 7.63-17 17-17h137.15m0-14H31A31 31 0 0 0 0 31v243.51a31 31 0 0 0 31 31h137.15a31 31 0 0 0 31-31V31a31 31 0 0 0-31-31Z"/>
  <g clip-path="url(#clippath)">
    <g fill="#00589d">
      <path d="m98.75 181.97 5.14-5.48-7.44-1.06-3.56-6.98-3.06 7.03-7.36 1.17 5.55 5.43-.94 7.67 6.48-3.68 6.79 3.57-1.6-7.67Z"/>
      <path d="m107.78 167.72 4.04-4.31-5.85-.84-2.8-5.48-2.41 5.52-5.79.93 4.37 4.27-.74 6.03 5.09-2.89 5.34 2.8-1.25-6.03Z"/>
      <path d="m128.5 234.67-50.88.54-13.75-40.59 73.89-1.81a3.02 3.02 0 0 1 2.95 3.95l-12.21 37.92Zm-45.08-3.61 39.56-.42c1.52-.02 2.85-1 3.32-2.44l10.07-31.27-66.84 1.64 10.09 29.79a3.97 3.97 0 0 0 3.81 2.7"/>
      <path d="m128.93 251.18-59.37 1.04a2.57 2.57 0 0 1-2.33-3.74l7.99-15.63-14.06-43.47c-4.85-1.3-16.76-4.53-19-5.38l.98-2.59a4.7 4.7 0 0 1 5.67-2.85c4.45 1.27 11.36 3.15 16.07 4.41l1.88.5 16.17 49.98-5.86 11.47 48.83-.85a2.9 2.9 0 0 1 2.96 2.84v.02l.07 4.24Z"/>
      <path d="M84.43 268.67a9.73 9.73 0 0 1-3.63-19.1 9.73 9.73 0 0 1 3.63 19.1m-.65-14.01a4.62 4.62 0 0 0-2.34 8.93 4.63 4.63 0 0 0 2.35-8.93"/>
      <path d="M120.24 268.05a9.73 9.73 0 0 1-3.63-19.1 9.73 9.73 0 0 1 3.63 19.1m-.64-14.02a4.63 4.63 0 0 0-2.34 8.94 4.63 4.63 0 0 0 2.35-8.93"/>
      <path d="m70.93 205.2 63.72-1.12.1 5.11-63.73 1.11-.09-5.1Z"/>
      <path d="m82.21 195.6 5.04-.86 6.48 37.72-5.04.87-6.48-37.73Z"/>
      <path d="m101.15 194.66 5.11-.09.67 38.27-5.1.09-.68-38.27Z"/>
      <path d="m115.14 232.13 4.88-37.96 5.06.65-4.87 37.96-5.07-.65Z"/>
      <path d="m73.49 217.93 57.59-1 .09 5.1-57.6 1-.08-5.1Z"/>
    </g>
  </g>
  <path fill="#00589d" d="m119.71 182.87 1.76-3.75-4.08.71-3.05-3.05-.4 4.2-3.66 1.87 3.83 1.9.81 4.17 2.77-3.02 4.16.71-2.14-3.74Z"/>
</svg>
