<svg xmlns="http://www.w3.org/2000/svg" id="Layer_1" version="1.1" viewBox="0 0 199.15 305.51">
  <defs>
    <linearGradient id="linear-gradient" x1="0" x2="199.15" y1="874.76" y2="874.76" gradientTransform="translate(0 -722)" gradientUnits="userSpaceOnUse">
      <stop offset="0" stop-color="#1f5799"/>
      <stop offset=".06" stop-color="#1f5799"/>
      <stop offset="1" stop-color="#78c3e9"/>
      <stop offset="1" stop-color="#78c3e9"/>
    </linearGradient>
  </defs>
  <rect width="183.21" height="285" x="8" y="10.22" fill="#fff" rx="26" ry="26"/>
  <path fill="#fedf00" d="M42.42 299.98h113.51a31 31 0 0 0 31-31v-56.07a389.92 389.92 0 0 0-80.97-8.34c-33.48 0-65.4 4.09-94.53 11.5v52.9a31 31 0 0 0 31 31Z"/>
  <path fill="url(#linear-gradient)" d="M168.15 14c9.37 0 17 7.63 17 17v243.51c0 9.37-7.63 17-17 17H31c-9.37 0-17-7.63-17-17V31c0-9.37 7.63-17 17-17h137.15m0-14H31A31 31 0 0 0 0 31v243.51a31 31 0 0 0 31 31h137.15a31 31 0 0 0 31-31V31a31 31 0 0 0-31-31Z"/>
  <g>
    <path fill="#085a9c" d="m75.02 172.93.25-2.71 2.08 1.76 2.75-.73-1.17 2.53 1.46 2.27-2.81-.19-1.85 2.1-.56-2.64-2.6-.97 2.45-1.42Z"/>
    <path fill="#085a9c" d="m77.57 197.39.45-2.06 1.43 1.55 2.19-.3-1.14 1.84.91 1.88-2.14-.41-1.63 1.45-.18-2.09-1.92-1 2.03-.86Z"/>
    <path fill="#085a9c" d="m92.91 166.31 4.19-5.94 2.47 6.84 7.3 1.99-6.05 4.28.33 7.2-6.23-4.19-7.08 2.4 2.21-6.86-4.71-5.73h7.57Z"/>
    <path fill="#085a9c" d="m65.02 188.38-2.39-4.07 4.7.37 3.14-3.79.91 4.73 4.35 1.73-4.15 2.57-.47 4.83-3.47-3.15-4.65 1.26 2.03-4.48Z"/>
    <path fill="#085a9c" d="m97.49 187.98 3.58-.37-1.75 3.15 1.63 3.38-3.57-.87-2.59 2.46-.45-3.69-3.2-1.87 3.28-1.4.61-3.63 2.46 2.84Z"/>
    <path fill="#0c51a3" d="M64.21 263.4c0 2.54 2.38 4.62 5.28 4.62h28.58c2.9 0 5.28-2.08 5.28-4.62 0-1.81-1.2-3.38-2.94-4.14a5.78 5.78 0 0 1-4.63 2.32H71.77a5.78 5.78 0 0 1-4.63-2.32 4.63 4.63 0 0 0-2.94 4.14M53 226.27c.84-1.2.88-3.38.16-5.99l-3.53 2.58-.02 5c1.39-.16 2.7-.6 3.39-1.58m-8.94 23.91.1-28.74c0-.87.42-1.69 1.12-2.2l14.51-10.58a2.75 2.75 0 0 1 3.23 4.43l-6.12 4.46c1.16 3.34 2 7.93-.31 11.23-1.44 2.05-3.78 3.21-6.99 3.47l-.06 17.99v.1c-.02.52.12 2.83 1.16 3.92.27.28.75.65 1.81.65 2.82 0 3.43-4.01 3.45-4.16 0-.07.02-.13.03-.2l.19-.93c1.07-5.23 2.36-11.53 9.79-13.44v5.78c-2.91 1.38-3.53 4.37-4.42 8.76l-.18.86c-.45 3.11-2.84 8.81-8.87 8.81a7.82 7.82 0 0 1-5.77-2.34c-2.72-2.83-2.71-7.15-2.68-7.88m49.45-35.4a3.37 3.37 0 0 0-3.36-3.36H77.43a3.35 3.35 0 0 0-3.36 3.36v8.24a3.37 3.37 0 0 0 3.36 3.36h12.71a3.37 3.37 0 0 0 3.36-3.36v-8.24Zm2.29 45.17H71.78a4.2 4.2 0 0 1-4.18-4.18v-45.92a4.2 4.2 0 0 1 4.18-4.18h24.01a4.2 4.2 0 0 1 4.18 4.18v45.92a4.2 4.2 0 0 1-4.18 4.18"/>
    <path fill="#085a9c" d="m140.25 174.08-.61-2.39-1.61 1.87-2.55-.24 1.4 2.08-.97 2.25 2.48-.59 1.96 1.61.12-2.43 2.19-1.26-2.41-.9Z"/>
    <path fill="#085a9c" d="m141.53 196.3-.69-1.78-1.06 1.6-2 .05 1.28 1.47-.53 1.82 1.85-.68 1.66 1.06-.13-1.89 1.56-1.18-1.94-.47Z"/>
    <path fill="#085a9c" d="m131.66 182.62-4.61-4.7-1.21 6.47-6.24 2.85 6.03 2.94.76 6.48 4.96-4.65 6.67 1.11-2.97-5.8 3.37-5.81-6.76 1.11Z"/>
    <path fill="#085a9c" d="m151.44 186.42 1.55-3.98-4.15 1.02-3.36-2.94-.13 4.36-3.63 2.18 4.08 1.69 1.13 4.25 2.64-3.31 4.34.44-2.47-3.71Z"/>
    <path fill="#085a9c" d="m114.87 192.01-3.25.19 2.02 2.56-.96 3.26 3.06-1.3 2.67 1.83-.13-3.37 2.58-2.13-3.13-.78-1.08-3.15-1.78 2.89Z"/>
    <g fill="#00589d">
      <path d="M110.52 216.54v41.77c0 5.88 3.74 9.66 9.64 9.69 7.78.04 15.55.03 23.33 0 6.05-.02 9.72-3.74 9.74-9.85.02-8.41 0-31.12 0-39.53 0-.59-.09-1.19-.17-2.17-.93.61-1.69.92-2.17 1.47-1.52 1.73-2.91 1.5-4.35-.06-1.36-1.48-2.73-1.34-4.07.05-1.35 1.4-2.66 1.76-4.15.1-1.42-1.58-2.96-1.64-4.45.01-1.42 1.59-2.78 1.39-4.15-.12-1.31-1.44-2.75-1.5-4.08-.05-1.58 1.73-3.02 1.52-4.54-.07-.96-.99-2.19-1.62-3.3-.37-2.1 2.36-3.95 1.95-5.85-.19-.23-.26-.68-.33-1.42-.67"/>
      <path d="M110.52 216.54c.74.34 1.19.41 1.42.67 1.9 2.14 3.75 2.55 5.85.19 1.11-1.25 2.34-.62 3.3.37 1.52 1.59 2.96 1.8 4.54.07 1.33-1.45 2.77-1.39 4.08.05 1.37 1.51 2.73 1.71 4.15.12 1.48-1.66 3.02-1.6 4.45-.01 1.49 1.66 2.8 1.3 4.15-.1 1.34-1.39 2.71-1.53 4.07-.05 1.44 1.56 2.83 1.79 4.35.06.48-.55 1.24-.86 2.17-1.47.08.99.17 1.58.17 2.17 0 8.41.03 31.12 0 39.53-.02 6.11-3.69 9.82-9.74 9.85-7.78.03-15.55.04-23.33 0-5.9-.03-9.63-3.8-9.64-9.69v-41.77"/>
      <path d="M148.79 217.53c-3.94-2.76-4.56-2.75-8.57.01-2.59-2.55-5.39-2.95-8.27.13-2.74-2.57-5.56-3.25-8.39.03-2.51-2.26-5.09-3.29-8.08-.45l-6.23-8.47 4.84-2.01-1.2-3.48c3.04-.22 5.73-.49 8.43-.51.42 0 1.04 1.07 1.25 1.74.84 2.63 1.55 5.3 2.31 7.96 2.93-1.41 4.21-3.6 3.75-6.92-.27-1.94.06-3.96-.08-5.94-.11-1.63.65-2.41 2.08-2.58 1.17-.14 2.38-.14 3.54.04 1.3.19 2.05.93 1.97 2.46-.12 2.21.11 4.45-.05 6.65-.19 2.57.23 4.67 3.18 5.66.97-2.17 1.92-4.56 3.08-6.84a80 80 0 0 1 4.09-7.21 9.45 9.45 0 0 1 2.88-2.75c2.2-1.37 4.76-.24 4.94 2.31.15 2.25.03 4.65-.62 6.78-1.35 4.44-3.14 8.74-4.84 13.38"/>
    </g>
    <path fill="#fedf00" d="m140.42 245.4 4.68-7.2-8.59.3-5.4-7.15-2.04 8.52-8.04 2.8 7.33 5 .48 8.82 6.55-5.44 8.36 2.66-3.33-8.31Z"/>
  </g>
</svg>
