<svg xmlns="http://www.w3.org/2000/svg" id="Layer_1" version="1.1" viewBox="0 0 199.15 305.51">
  <defs>
    <linearGradient id="linear-gradient" x1="0" x2="199.15" y1="874.76" y2="874.76" gradientTransform="translate(0 -722)" gradientUnits="userSpaceOnUse">
      <stop offset="0" stop-color="#1f5799"/>
      <stop offset=".06" stop-color="#1f5799"/>
      <stop offset="1" stop-color="#78c3e9"/>
      <stop offset="1" stop-color="#78c3e9"/>
    </linearGradient>
    <linearGradient id="linear-gradient1" x1="-459.75" x2="-409.13" y1="292.35" y2="292.35" gradientTransform="translate(629.37 48.32) rotate(14.08)" gradientUnits="userSpaceOnUse">
      <stop offset="0" stop-color="#a1be52"/>
      <stop offset="1" stop-color="#c6da6d"/>
    </linearGradient>
    <linearGradient id="linear-gradient2" x1="-457.55" x2="-410.59" y1="292.51" y2="292.51" gradientTransform="translate(629.37 48.32) rotate(14.08)" gradientUnits="userSpaceOnUse">
      <stop offset="0" stop-color="#457a3a"/>
      <stop offset="1" stop-color="#6a943e"/>
    </linearGradient>
    <linearGradient id="linear-gradient3" x1="-453.16" x2="-413.28" y1="292.98" y2="292.98" gradientTransform="translate(629.37 48.32) rotate(14.08)" gradientUnits="userSpaceOnUse">
      <stop offset="0" stop-color="#a1be52"/>
      <stop offset="1" stop-color="#c6da6d"/>
    </linearGradient>
    <linearGradient id="linear-gradient4" x1="-438.76" x2="-423.02" y1="295" y2="295" gradientTransform="translate(629.37 48.32) rotate(14.08)" gradientUnits="userSpaceOnUse">
      <stop offset="0" stop-color="#457a3a"/>
      <stop offset="1" stop-color="#6a943e"/>
    </linearGradient>
    <linearGradient id="linear-gradient5" x1="-6456.61" x2="-6405.99" y1="1792.31" y2="1792.31" gradientTransform="translate(-6603.85 48.32) rotate(165.92) scale(1 -1)" gradientUnits="userSpaceOnUse">
      <stop offset="0" stop-color="#a1be52"/>
      <stop offset="1" stop-color="#c6da6d"/>
    </linearGradient>
    <linearGradient id="linear-gradient6" x1="-6454.42" x2="-6407.45" y1="1792.48" y2="1792.48" gradientTransform="translate(-6603.85 48.32) rotate(165.92) scale(1 -1)" gradientUnits="userSpaceOnUse">
      <stop offset="0" stop-color="#457a3a"/>
      <stop offset="1" stop-color="#6a943e"/>
    </linearGradient>
    <linearGradient id="linear-gradient7" x1="-6450.03" x2="-6410.15" y1="1792.94" y2="1792.94" gradientTransform="translate(-6603.85 48.32) rotate(165.92) scale(1 -1)" gradientUnits="userSpaceOnUse">
      <stop offset="0" stop-color="#a1be52"/>
      <stop offset="1" stop-color="#c6da6d"/>
    </linearGradient>
    <linearGradient id="linear-gradient8" x1="-6435.61" x2="-6419.86" y1="1794.98" y2="1794.98" gradientTransform="translate(-6603.85 48.32) rotate(165.92) scale(1 -1)" gradientUnits="userSpaceOnUse">
      <stop offset="0" stop-color="#457a3a"/>
      <stop offset="1" stop-color="#6a943e"/>
    </linearGradient>
    <linearGradient id="linear-gradient9" x1="-1009.36" x2="-951.64" y1="530.01" y2="530.01" gradientTransform="translate(2842.96 99.36) rotate(8.17) scale(1.23 1) skewX(-65.9)" gradientUnits="userSpaceOnUse">
      <stop offset="0" stop-color="#aac360"/>
      <stop offset="1" stop-color="#d1df7c"/>
    </linearGradient>
    <linearGradient id="linear-gradient10" x1="-976.53" x2="-976.53" y1="538.59" y2="522.09" gradientTransform="translate(2842.96 99.36) rotate(8.17) scale(1.23 1) skewX(-65.9)" gradientUnits="userSpaceOnUse">
      <stop offset="0" stop-color="#4b803b"/>
      <stop offset="1" stop-color="#72983e"/>
    </linearGradient>
    <linearGradient id="linear-gradient11" x1="-976.67" x2="-976.67" y1="537.85" y2="523.78" gradientTransform="translate(2842.96 99.36) rotate(8.17) scale(1.23 1) skewX(-65.9)" gradientUnits="userSpaceOnUse">
      <stop offset="0" stop-color="#aac360"/>
      <stop offset="1" stop-color="#d1df7c"/>
    </linearGradient>
    <linearGradient id="linear-gradient12" x1="-973.75" x2="-973.75" y1="536.57" y2="527.32" gradientTransform="translate(2842.96 99.36) rotate(8.17) scale(1.23 1) skewX(-65.9)" gradientUnits="userSpaceOnUse">
      <stop offset="0" stop-color="#4b803b"/>
      <stop offset="1" stop-color="#72983e"/>
    </linearGradient>
    <linearGradient id="linear-gradient13" x1="-5813.43" x2="-5813.43" y1="594.17" y2="582.65" gradientTransform="translate(-5558.4 -1067.46) rotate(-172.77) scale(1 -1)" gradientUnits="userSpaceOnUse">
      <stop offset="0" stop-color="#4b803b"/>
      <stop offset="1" stop-color="#72983e"/>
    </linearGradient>
    <linearGradient id="linear-gradient14" x1="-2848.2" x2="-2797.18" y1="1170.66" y2="1170.66" gradientTransform="translate(-2875.34 -304.89) rotate(167.53) scale(1 -1)" gradientUnits="userSpaceOnUse">
      <stop offset="0" stop-color="#a1be52"/>
      <stop offset="1" stop-color="#c6da6d"/>
    </linearGradient>
    <linearGradient id="linear-gradient15" x1="-2845.8" x2="-2798.59" y1="1170.77" y2="1170.77" gradientTransform="translate(-2875.34 -304.89) rotate(167.53) scale(1 -1)" gradientUnits="userSpaceOnUse">
      <stop offset="0" stop-color="#457a3a"/>
      <stop offset="1" stop-color="#6a943e"/>
    </linearGradient>
    <linearGradient id="linear-gradient16" x1="-2841.16" x2="-2800.55" y1="1170.78" y2="1170.78" gradientTransform="translate(-2875.34 -304.89) rotate(167.53) scale(1 -1)" gradientUnits="userSpaceOnUse">
      <stop offset="0" stop-color="#a1be52"/>
      <stop offset="1" stop-color="#c6da6d"/>
    </linearGradient>
    <linearGradient id="linear-gradient17" x1="-1635.63" x2="-1635.63" y1="363.63" y2="357.5" gradientTransform="translate(3105.35 898.07) rotate(22.33) scale(1.23 1.42) skewX(-65.9)" gradientUnits="userSpaceOnUse">
      <stop offset="0" stop-color="#4b803b"/>
      <stop offset="1" stop-color="#72983e"/>
    </linearGradient>
    <linearGradient id="linear-gradient18" x1="-161.42" x2="-161.42" y1="805.73" y2="799.46" gradientTransform="translate(598.51 -834.26) rotate(9.12) scale(1.01 1.4) skewX(-9.11)" gradientUnits="userSpaceOnUse">
      <stop offset="0" stop-color="#4b803b"/>
      <stop offset="1" stop-color="#72983e"/>
    </linearGradient>
    <linearGradient id="linear-gradient19" x1="84.09" x2="114.3" y1="798.36" y2="798.36" gradientTransform="translate(72.85 -568.4) rotate(3.02)" gradientUnits="userSpaceOnUse">
      <stop offset="0" stop-color="#c0703f"/>
      <stop offset="1" stop-color="#e3914c"/>
    </linearGradient>
    <linearGradient id="linear-gradient20" x1="-3424.14" x2="-3366.17" y1="1670.42" y2="1670.42" gradientTransform="translate(-8846.87 571.54) rotate(167.09) scale(1.23 -1) skewX(-65.9)" gradientUnits="userSpaceOnUse">
      <stop offset="0" stop-color="#aac360"/>
      <stop offset="1" stop-color="#d1df7c"/>
    </linearGradient>
    <linearGradient id="linear-gradient21" x1="-3384.87" x2="-3384.87" y1="1678.47" y2="1661.96" gradientTransform="translate(-8846.87 571.54) rotate(167.09) scale(1.23 -1) skewX(-65.9)" gradientUnits="userSpaceOnUse">
      <stop offset="0" stop-color="#4b803b"/>
      <stop offset="1" stop-color="#72983e"/>
    </linearGradient>
    <linearGradient id="linear-gradient22" x1="-3385.06" x2="-3385.06" y1="1677.75" y2="1663.67" gradientTransform="translate(-8846.87 571.54) rotate(167.09) scale(1.23 -1) skewX(-65.9)" gradientUnits="userSpaceOnUse">
      <stop offset="0" stop-color="#aac360"/>
      <stop offset="1" stop-color="#d1df7c"/>
    </linearGradient>
    <linearGradient id="linear-gradient23" x1="-3382.16" x2="-3382.16" y1="1676.44" y2="1667.25" gradientTransform="translate(-8846.87 571.54) rotate(167.09) scale(1.23 -1) skewX(-65.9)" gradientUnits="userSpaceOnUse">
      <stop offset="0" stop-color="#4b803b"/>
      <stop offset="1" stop-color="#72983e"/>
    </linearGradient>
    <linearGradient id="linear-gradient24" x1="-5697.44" x2="-5697.44" y1="497.45" y2="487.92" gradientTransform="translate(-5472.91 -1189.35) rotate(-170.42) scale(1 -1)" gradientUnits="userSpaceOnUse">
      <stop offset="0" stop-color="#4b803b"/>
      <stop offset="1" stop-color="#72983e"/>
    </linearGradient>
    <linearGradient id="linear-gradient25" x1="-1589.89" x2="-1531.96" y1="327.69" y2="327.69" gradientTransform="translate(2886.01 516.74) rotate(12.38) scale(1.23 1) skewX(-65.9)" gradientUnits="userSpaceOnUse">
      <stop offset="0" stop-color="#aac360"/>
      <stop offset="1" stop-color="#d1df7c"/>
    </linearGradient>
    <linearGradient id="linear-gradient26" x1="-1556.57" x2="-1556.57" y1="336.26" y2="319.76" gradientTransform="translate(2886.01 516.74) rotate(12.38) scale(1.23 1) skewX(-65.9)" gradientUnits="userSpaceOnUse">
      <stop offset="0" stop-color="#4b803b"/>
      <stop offset="1" stop-color="#72983e"/>
    </linearGradient>
    <linearGradient id="linear-gradient27" x1="-1556.73" x2="-1556.73" y1="335.53" y2="321.45" gradientTransform="translate(2886.01 516.74) rotate(12.38) scale(1.23 1) skewX(-65.9)" gradientUnits="userSpaceOnUse">
      <stop offset="0" stop-color="#aac360"/>
      <stop offset="1" stop-color="#d1df7c"/>
    </linearGradient>
    <linearGradient id="linear-gradient28" x1="-1553.84" x2="-1553.84" y1="334.23" y2="325.04" gradientTransform="translate(2886.01 516.74) rotate(12.38) scale(1.23 1) skewX(-65.9)" gradientUnits="userSpaceOnUse">
      <stop offset="0" stop-color="#4b803b"/>
      <stop offset="1" stop-color="#72983e"/>
    </linearGradient>
    <linearGradient id="linear-gradient29" x1="-5808.31" x2="-5808.31" y1="806.61" y2="797.22" gradientTransform="translate(-5693.94 -871.98) rotate(-176.98) scale(1 -1)" gradientUnits="userSpaceOnUse">
      <stop offset="0" stop-color="#4b803b"/>
      <stop offset="1" stop-color="#72983e"/>
    </linearGradient>
    <linearGradient id="linear-gradient30" x1="2942.1" x2="2993.15" y1="-444.42" y2="-444.42" gradientTransform="translate(-2874.22 -304.14) rotate(18.51)" gradientUnits="userSpaceOnUse">
      <stop offset="0" stop-color="#a1be52"/>
      <stop offset="1" stop-color="#c6da6d"/>
    </linearGradient>
    <linearGradient id="linear-gradient31" x1="2944.5" x2="2991.74" y1="-444.32" y2="-444.32" gradientTransform="translate(-2874.22 -304.14) rotate(18.51)" gradientUnits="userSpaceOnUse">
      <stop offset="0" stop-color="#457a3a"/>
      <stop offset="1" stop-color="#6a943e"/>
    </linearGradient>
    <linearGradient id="linear-gradient32" x1="2949.13" x2="2989.77" y1="-444.31" y2="-444.31" gradientTransform="translate(-2874.22 -304.14) rotate(18.51)" gradientUnits="userSpaceOnUse">
      <stop offset="0" stop-color="#a1be52"/>
      <stop offset="1" stop-color="#c6da6d"/>
    </linearGradient>
    <linearGradient id="linear-gradient33" x1="-1318.64" x2="-1262.27" y1="418.09" y2="418.09" gradientTransform="translate(2866.08 265.53) rotate(9.9) scale(1.23 1) skewX(-65.9)" gradientUnits="userSpaceOnUse">
      <stop offset="0" stop-color="#aac360"/>
      <stop offset="1" stop-color="#d1df7c"/>
    </linearGradient>
    <linearGradient id="linear-gradient34" x1="-1286.02" x2="-1286.02" y1="425.99" y2="410.43" gradientTransform="translate(2866.08 265.53) rotate(9.9) scale(1.23 1) skewX(-65.9)" gradientUnits="userSpaceOnUse">
      <stop offset="0" stop-color="#4b803b"/>
      <stop offset="1" stop-color="#72983e"/>
    </linearGradient>
    <linearGradient id="linear-gradient35" x1="-1285.77" x2="-1285.77" y1="425.24" y2="411.95" gradientTransform="translate(2866.08 265.53) rotate(9.9) scale(1.23 1) skewX(-65.9)" gradientUnits="userSpaceOnUse">
      <stop offset="0" stop-color="#aac360"/>
      <stop offset="1" stop-color="#d1df7c"/>
    </linearGradient>
    <linearGradient id="linear-gradient36" x1="-1284.59" x2="-1284.59" y1="424.17" y2="415.25" gradientTransform="translate(2866.08 265.53) rotate(9.9) scale(1.23 1) skewX(-65.9)" gradientUnits="userSpaceOnUse">
      <stop offset="0" stop-color="#4b803b"/>
      <stop offset="1" stop-color="#72983e"/>
    </linearGradient>
    <linearGradient id="linear-gradient37" x1="-5622.03" x2="-5622.03" y1="187.75" y2="174.55" gradientTransform="translate(-5284.08 -1417.37) rotate(-165.04) scale(1 -1)" gradientUnits="userSpaceOnUse">
      <stop offset="0" stop-color="#4b803b"/>
      <stop offset="1" stop-color="#72983e"/>
    </linearGradient>
    <linearGradient id="linear-gradient38" x1="93.37" x2="135.72" y1="1033.06" y2="1033.06" gradientTransform="translate(-32.2 -765.12) rotate(-.86)" gradientUnits="userSpaceOnUse">
      <stop offset="0" stop-color="#4e803b"/>
      <stop offset="1" stop-color="#7d9f41"/>
    </linearGradient>
    <linearGradient id="linear-gradient39" x1="-397.16" x2="-449.16" y1="-1216.13" y2="-1216.27" gradientTransform="translate(-1209.44 612.4) rotate(88.95) scale(.82 1.08)" gradientUnits="userSpaceOnUse">
      <stop offset="0" stop-color="#a1be52"/>
      <stop offset="1" stop-color="#c6da6d"/>
    </linearGradient>
    <linearGradient id="linear-gradient40" x1="-398.44" x2="-447.83" y1="-1216.22" y2="-1216.35" gradientTransform="translate(-1209.44 612.4) rotate(88.95) scale(.82 1.08)" gradientUnits="userSpaceOnUse">
      <stop offset="0" stop-color="#457a3a"/>
      <stop offset="1" stop-color="#6a943e"/>
    </linearGradient>
    <linearGradient id="linear-gradient41" x1="-399.53" x2="-446.92" y1="-1216.14" y2="-1216.27" gradientTransform="translate(-1209.44 612.4) rotate(88.95) scale(.82 1.08)" gradientUnits="userSpaceOnUse">
      <stop offset="0" stop-color="#a1be52"/>
      <stop offset="1" stop-color="#c6da6d"/>
    </linearGradient>
    <linearGradient id="linear-gradient42" x1="-423.34" x2="-423.34" y1="-1206.69" y2="-1230.29" gradientTransform="translate(-1209.44 612.4) rotate(88.95) scale(.82 1.08)" gradientUnits="userSpaceOnUse">
      <stop offset="0" stop-color="#457a3a"/>
      <stop offset="1" stop-color="#6a943e"/>
    </linearGradient>
    <linearGradient id="linear-gradient43" x1="99.47" x2="132.2" y1="1008.33" y2="1008.33" gradientTransform="translate(-32.2 -765.12) rotate(-.86)" gradientUnits="userSpaceOnUse">
      <stop offset="0" stop-color="#e5daaa"/>
      <stop offset="1" stop-color="#f6f3c0"/>
    </linearGradient>
    <linearGradient id="linear-gradient44" x1="-5790.14" x2="-5756.87" y1="609.03" y2="609.03" gradientTransform="translate(-5559.51 -1055.95) rotate(-173.11) scale(1 -1)" gradientUnits="userSpaceOnUse">
      <stop offset="0" stop-color="#c0703f"/>
      <stop offset="1" stop-color="#e3914c"/>
    </linearGradient>
    <linearGradient id="linear-gradient45" x1="-1911.19" x2="-1860.19" y1="744.72" y2="744.72" gradientTransform="translate(4523.24 105.01) rotate(8.52) scale(1.23 1) skewX(-65.9)" gradientUnits="userSpaceOnUse">
      <stop offset="0" stop-color="#aac360"/>
      <stop offset="1" stop-color="#d1df7c"/>
    </linearGradient>
    <linearGradient id="linear-gradient46" x1="-1878.79" x2="-1878.79" y1="752.38" y2="737.76" gradientTransform="translate(4523.24 105.01) rotate(8.52) scale(1.23 1) skewX(-65.9)" gradientUnits="userSpaceOnUse">
      <stop offset="0" stop-color="#4b803b"/>
      <stop offset="1" stop-color="#72983e"/>
    </linearGradient>
    <linearGradient id="linear-gradient47" x1="-1878.51" x2="-1878.51" y1="751.62" y2="739.22" gradientTransform="translate(4523.24 105.01) rotate(8.52) scale(1.23 1) skewX(-65.9)" gradientUnits="userSpaceOnUse">
      <stop offset="0" stop-color="#aac360"/>
      <stop offset="1" stop-color="#d1df7c"/>
    </linearGradient>
    <linearGradient id="linear-gradient48" x1="-1876.81" x2="-1876.81" y1="750.66" y2="742.38" gradientTransform="translate(4523.24 105.01) rotate(8.52) scale(1.23 1) skewX(-65.9)" gradientUnits="userSpaceOnUse">
      <stop offset="0" stop-color="#4b803b"/>
      <stop offset="1" stop-color="#72983e"/>
    </linearGradient>
    <linearGradient id="linear-gradient49" x1="-5588.58" x2="-5588.58" y1="109.67" y2="96.54" gradientTransform="translate(-5232.85 -1473.88) rotate(-163.66) scale(1 -1)" gradientUnits="userSpaceOnUse">
      <stop offset="0" stop-color="#4b803b"/>
      <stop offset="1" stop-color="#72983e"/>
    </linearGradient>
    <linearGradient id="linear-gradient50" x1="-3815.58" x2="-3764.25" y1="2036.96" y2="2036.96" gradientTransform="translate(-10307.46 1121.32) rotate(163.63) scale(1.23 -1) skewX(-65.9)" gradientUnits="userSpaceOnUse">
      <stop offset="0" stop-color="#aac360"/>
      <stop offset="1" stop-color="#d1df7c"/>
    </linearGradient>
    <linearGradient id="linear-gradient51" x1="-3777.58" x2="-3777.58" y1="2044.36" y2="2029.78" gradientTransform="translate(-10307.46 1121.32) rotate(163.63) scale(1.23 -1) skewX(-65.9)" gradientUnits="userSpaceOnUse">
      <stop offset="0" stop-color="#4b803b"/>
      <stop offset="1" stop-color="#72983e"/>
    </linearGradient>
    <linearGradient id="linear-gradient52" x1="-3777.29" x2="-3777.29" y1="2043.62" y2="2031.26" gradientTransform="translate(-10307.46 1121.32) rotate(163.63) scale(1.23 -1) skewX(-65.9)" gradientUnits="userSpaceOnUse">
      <stop offset="0" stop-color="#aac360"/>
      <stop offset="1" stop-color="#d1df7c"/>
    </linearGradient>
    <linearGradient id="linear-gradient53" x1="-3775.62" x2="-3775.62" y1="2042.65" y2="2034.47" gradientTransform="translate(-10307.46 1121.32) rotate(163.63) scale(1.23 -1) skewX(-65.9)" gradientUnits="userSpaceOnUse">
      <stop offset="0" stop-color="#4b803b"/>
      <stop offset="1" stop-color="#72983e"/>
    </linearGradient>
    <linearGradient id="linear-gradient54" x1="-201.51" x2="-201.51" y1="2968.41" y2="2950.17" gradientTransform="translate(-1634.07 -2217.4) rotate(-39.68)" gradientUnits="userSpaceOnUse">
      <stop offset="0" stop-color="#4b803b"/>
      <stop offset="1" stop-color="#72983e"/>
    </linearGradient>
  </defs>
  <g id="Layer_11" data-name="Layer_1">
    <rect width="183.21" height="285" x="8" y="10.22" fill="#fff" rx="26" ry="26"/>
    <path fill="#fedf00" d="M42.42 299.98h113.51a31 31 0 0 0 31-31v-56.07a389.92 389.92 0 0 0-80.97-8.34c-33.48 0-65.4 4.09-94.53 11.5v52.9a31 31 0 0 0 31 31Z"/>
    <path fill="url(#linear-gradient)" d="M168.15 14c9.37 0 17 7.63 17 17v243.51c0 9.37-7.63 17-17 17H31c-9.37 0-17-7.63-17-17V31c0-9.37 7.63-17 17-17h137.15m0-14H31A31 31 0 0 0 0 31v243.51a31 31 0 0 0 31 31h137.15a31 31 0 0 0 31-31V31a31 31 0 0 0-31-31Z"/>
    <g>
      <g>
        <path fill="#7d9f41" d="m163.5 224 .85 1.16.16.89-.24.75.43 1.62.49.17-.28 2.41s-11.04 15.04-38.22 20.06c-.55-3.55.34-10.97.34-10.97l36.48-16.1Z"/>
        <path fill="#4e803b" d="M128.61 246.63s10.92-1.99 17.89-5.41c-4.99 3.05-18.61 6.41-18.61 6.41l.72-1Z"/>
        <path fill="#4e803b" d="m134.01 247.6 12.64-4.8-.54 1.05-12.1 3.75Z"/>
        <path fill="#4e803b" d="m110.64 226.68-.38 1.3.44 1.1-.27.85-.78-.07-.63 1.97.65.76-.87.84-.28 3.04 18.16 14.6 1.21-3.44.72-1-.53-1.14.51-.96.84-.13-.62-.85.33-.4-18.5-16.47Z"/>
        <path fill="url(#linear-gradient1)" d="M110.64 226.68c5.86 5.93 12.59 11.39 18.83 16.71 9.71-.21 24.42-8.14 34.03-19.38a296.17 296.17 0 0 0-15.56-14.08c-9.2 9.9-24.01 16.61-37.3 16.76Z"/>
        <path fill="url(#linear-gradient2)" d="M112.65 227.71c5.13 5.21 12.23 9.55 16.55 14.67 11.73-1.27 23.52-7.91 32.77-18.26-4.43-4.44-9-8.72-13.72-12.85-8.91 9.4-23.06 15.94-35.6 16.43Z"/>
        <path fill="url(#linear-gradient3)" d="M145.79 214.74c-7.52 6.82-19.02 12.07-28.7 13.33 1.39 1.63 2.2 2.94.98 3.43a64.67 64.67 0 0 0 9.2 7.46l.08-.02c1.81-.25 4.29.76 5.77 2.45 8.98-2.01 17.84-7.1 25.38-14.5a4 4 0 0 1 .34-4.46 262.73 262.73 0 0 0-7.49-7.44c-1.47 1.09-3.8.96-5.56-.25Z"/>
        <path fill="url(#linear-gradient4)" d="M145.47 226.21c2.84 2.78 2.49 7.03-.84 8.93-3.2 1.91-8 .45-10.64-2.7-2.79-3.17-2.5-6.61.55-8.18 3.16-1.55 8.03-.9 10.94 1.95h-.01Z"/>
        <path fill="#487d3a" d="M145.89 236.64c-4.12 2.45-10.21.46-13.53-3.6-3.56-4.08-3.2-8.35.63-10.3 4.02-1.91 10.22-1.16 14.01 2.38 3.6 3.5 3.16 8.99-1.11 11.53Zm-12.43-13.44c-3.63 1.8-3.95 5.87-.62 9.67 3.12 3.78 8.85 5.64 12.68 3.32 4.01-2.31 4.4-7.46 1.04-10.74-3.53-3.32-9.35-4.1-13.1-2.24Z"/>
        <path fill="#487d3a" d="M151.79 224.07c-.81.69-2.15.61-2.98-.17-.84-.77-.87-1.92-.08-2.58.8-.66 2.13-.62 2.99.12.85.74.89 1.92.08 2.62h-.01Zm-2.41-2.17c-.47.39-.45 1.06.05 1.51.49.45 1.27.49 1.74.09s.45-1.09-.05-1.53-1.28-.47-1.74-.08Z"/>
        <path fill="#487d3a" d="M130.5 235.59c-.89.24-2.24-.35-2.98-1.27-.76-.92-.65-1.83.24-2.05.9-.22 2.25.3 3.01 1.2.75.91.63 1.87-.27 2.12Zm-2.16-2.63c-.52.13-.59.67-.14 1.21.44.54 1.22.87 1.74.73.53-.14.59-.7.15-1.23s-1.23-.84-1.75-.71Z"/>
        <g fill="#406630">
          <path d="M110.69 229.11c1.12 1.13 2.26 2.24 3.36 3.37a97.28 97.28 0 0 0 6.53 6.15c.07.06.18-.06.11-.13-2.15-2.06-8.92-8.68-10.18-9.9l.19.47v.03h-.01Z"/>
          <path d="M115.24 237.78c1.71 1.27 3.33 2.69 5.06 3.94 1.91 1.38 3.87 2.67 5.79 4.04.03.02.06-.03.03-.05-3.42-2.64-6.97-5.09-10.29-7.88-1.65-1.39-3.38-2.67-5.03-4.05-.42-.35-.84-.71-1.25-1.08l-.15.14a74.08 74.08 0 0 0 5.83 4.93h.01Z"/>
          <path d="M116.79 240.81s.1-.04.05-.08c-2.65-2.45-5.39-4.81-8.05-7.26l-.02.21c.91.89 1.87 1.72 2.79 2.56 1.71 1.55 3.45 3.08 5.22 4.57Z"/>
        </g>
        <path fill="#7d9f41" d="M112.76 233.53s9.52 8.36 12.5 11.65c.49.04 2.13.13 2.13.13l-14.63-11.78Z"/>
        <path fill="#4e803b" d="M164.49 225.71s-6.78 6.62-10.49 9.63c4.03-2.98 10.26-8.53 10.26-8.53l.23-1.1Z"/>
        <path fill="#4e803b" d="M165.15 228.68s-4.35 4.08-5.57 5.33c1.5-.83 5.54-4.91 5.54-4.91l.03-.42Z"/>
        <path fill="#4e803b" d="m164.51 227.74-4.58 4.19 4.76-3.51-.18-.68Z"/>
      </g>
      <g>
        <path fill="#7d9f41" d="m43.63 220-.85 1.16-.16.89.24.75-.43 1.62-.49.17.28 2.41s11.04 15.04 38.23 20.06c.55-3.55-.34-10.97-.34-10.97l-36.48-16.1Z"/>
        <path fill="#4e803b" d="M78.52 242.63s-10.92-1.99-17.89-5.41c4.99 3.05 18.61 6.41 18.61 6.41l-.72-1Z"/>
        <path fill="#4e803b" d="m73.12 243.61-12.64-4.81.54 1.05 12.1 3.76Z"/>
        <path fill="#4e803b" d="m96.48 222.68.39 1.31-.44 1.1.27.84.78-.06.63 1.97-.65.76.87.84.28 3.04-18.16 14.6-1.21-3.45-.72-1 .53-1.13-.51-.97-.84-.12.62-.85-.33-.41 18.49-16.47Z"/>
        <path fill="url(#linear-gradient5)" d="M96.48 222.68c-5.86 5.93-12.59 11.39-18.83 16.71-9.71-.21-24.42-8.14-34.03-19.38a296.17 296.17 0 0 1 15.56-14.08c9.2 9.9 24.01 16.61 37.3 16.76Z"/>
        <path fill="url(#linear-gradient6)" d="M94.48 223.72c-5.13 5.21-12.23 9.55-16.55 14.67-11.73-1.27-23.52-7.91-32.77-18.26 4.43-4.44 9-8.72 13.72-12.85 8.91 9.4 23.06 15.94 35.6 16.43Z"/>
        <path fill="url(#linear-gradient7)" d="M61.34 210.74c7.52 6.83 19.02 12.07 28.7 13.33-1.39 1.63-2.2 2.94-.98 3.43a64.67 64.67 0 0 1-9.2 7.46l-.08-.02c-1.81-.25-4.29.76-5.77 2.45-8.98-2.01-17.84-7.1-25.38-14.5a4 4 0 0 0-.34-4.46c2.39-2.47 4.88-4.95 7.49-7.44 1.47 1.09 3.8.96 5.56-.25Z"/>
        <path fill="url(#linear-gradient8)" d="M61.66 222.22c-2.84 2.78-2.49 7.03.84 8.93 3.2 1.91 8 .45 10.65-2.7 2.79-3.17 2.5-6.61-.55-8.18-3.16-1.55-8.03-.9-10.94 1.95Z"/>
        <path fill="#487d3a" d="M61.24 232.64c4.12 2.45 10.21.46 13.53-3.6 3.57-4.08 3.21-8.35-.63-10.3-4.02-1.91-10.22-1.16-14.01 2.38-3.6 3.5-3.16 8.99 1.11 11.53Zm12.43-13.43c3.63 1.8 3.95 5.87.62 9.67-3.12 3.78-8.85 5.64-12.68 3.32-4.01-2.31-4.4-7.46-1.04-10.74 3.53-3.32 9.35-4.1 13.1-2.24Z"/>
        <path fill="#487d3a" d="M55.34 220.08c.81.69 2.15.61 2.98-.17.84-.77.87-1.92.08-2.58-.8-.66-2.13-.62-2.99.12-.85.74-.89 1.92-.08 2.62h.01Zm2.41-2.17c.47.39.45 1.06-.05 1.51-.49.45-1.27.49-1.74.09s-.45-1.09.05-1.53 1.28-.47 1.74-.08Z"/>
        <path fill="#487d3a" d="M76.63 231.6c.89.24 2.23-.35 2.98-1.27.76-.92.65-1.83-.24-2.05-.9-.22-2.25.3-3.01 1.2-.75.91-.64 1.87.27 2.12Zm2.16-2.63c.52.13.59.67.14 1.21-.44.54-1.22.87-1.74.73-.53-.14-.59-.7-.15-1.23.44-.53 1.23-.84 1.75-.71Z"/>
        <g fill="#406630">
          <path d="M96.44 225.12c-1.12 1.13-2.26 2.24-3.36 3.37a97.28 97.28 0 0 1-6.53 6.15c-.07.06-.18-.06-.11-.13 2.15-2.06 8.92-8.68 10.18-9.9l-.19.48v.03h.01Z"/>
          <path d="M91.89 233.78c-1.71 1.27-3.33 2.69-5.06 3.94-1.91 1.38-3.87 2.67-5.79 4.04-.03.02-.06-.03-.03-.05 3.42-2.64 6.97-5.09 10.29-7.88 1.65-1.38 3.38-2.67 5.03-4.05.42-.36.84-.71 1.25-1.08l.15.14a74.08 74.08 0 0 1-5.83 4.93h-.01Z"/>
          <path d="M90.34 236.82s-.1-.04-.05-.08c2.65-2.45 5.39-4.81 8.05-7.26l.02.21c-.91.89-1.87 1.71-2.79 2.56a189.17 189.17 0 0 1-5.22 4.56Z"/>
        </g>
        <path fill="#7d9f41" d="M94.37 229.53s-9.52 8.36-12.5 11.65c-.49.04-2.13.13-2.13.13l14.63-11.78Z"/>
        <path fill="#4e803b" d="M42.64 221.72s6.77 6.62 10.49 9.63c-4.03-2.98-10.26-8.53-10.26-8.53l-.23-1.1Z"/>
        <path fill="#4e803b" d="M41.98 224.69s4.35 4.08 5.56 5.33c-1.5-.83-5.54-4.91-5.54-4.91l-.03-.42Z"/>
        <path fill="#4e803b" d="m42.61 223.74 4.59 4.2-4.76-3.51.17-.69Z"/>
      </g>
      <g>
        <path fill="#7d9f41" d="m145.46 255.64 3.32 11.77s20.74-10.18 21.73-12.06c.1-.53.83-2.89 1.44-4.96l-.19-.35s.53-1.95.74-2.67l.33-.09.84-2.79-28.21 11.13v.02Z"/>
        <path fill="#4e803b" d="m99.92 244.45.61 2.79-.26.29.72 2.89.24.19.51 2.19-.21.14.69 2.06s11.91 5.26 18.84 7.11c6.94 1.85 27.7 5.3 27.7 5.3l-.4-1.8.43-.37.15-2.41-.73-.32.38-2.99.32-.73.04-2.94-49.04-11.4h.01Z"/>
        <path fill="#406630" d="m124.76 257.53 13.25 2.23-12.98-1.42-.27-.81Z"/>
        <path fill="url(#linear-gradient9)" d="M127.13 235.63a563.76 563.76 0 0 1-27.21 8.82c12.14 7.57 28.65 11.39 49.04 11.4 8.36-3.74 16.61-7.53 24.7-11.35-19.1.16-34.74-2.85-46.53-8.87Z"/>
        <path fill="url(#linear-gradient10)" d="M126.48 236.62a591.11 591.11 0 0 1-23.89 7.93c11.55 6.85 26.91 10.44 45.71 10.7 7.72-3.34 15.36-6.73 22.87-10.16-18.19.04-33.2-2.82-44.69-8.48Z"/>
        <path fill="url(#linear-gradient11)" d="M164.39 245.48c-13.82-.46-25.64-2.73-35.27-6.77-2.51.79-5.72.91-7.71.32a762.66 762.66 0 0 1-11.28 4.17l.09.04c1.84 1 1.37 2.39-1.06 3.31 9.37 4.52 20.9 7.2 34.41 7.99a31.28 31.28 0 0 1 8.08-1.47c4.38-1.83 8.74-3.69 13.06-5.55-2.13-.15-2.24-1.02-.3-2.04h-.02Z"/>
        <path fill="url(#linear-gradient12)" d="M142.96 249.07c-4.61 2-12.36 3.1-16.85 2.09-4.45-1.05-3.8-3.54 1.02-5.28 4.83-1.72 11.88-2.31 16.15-1.55 4.25.75 4.29 2.74-.32 4.74Z"/>
        <path fill="url(#linear-gradient13)" d="M123.73 252.09c-5.74-1.37-4.75-4.69 1.42-6.84 6.2-2.13 15.11-2.82 20.48-1.88 5.37.91 5.53 3.39-.3 5.96-5.82 2.61-15.88 4.13-21.61 2.76h.01Zm21.19-8.43c-5.06-.88-13.41-.23-19.2 1.77-5.75 2.03-6.63 5.08-1.26 6.38 5.37 1.24 14.72-.12 20.18-2.55 5.46-2.39 5.31-4.72.28-5.6Z"/>
        <path fill="#5e8b3e" d="M148.07 250.86c-1.38-.08-1.44-.64-.16-1.21 1.27-.57 3.39-.96 4.75-.88s1.46.59.21 1.17a11.8 11.8 0 0 1-4.8.92Zm3.64-1.66c-.8-.04-2.04.18-2.79.52-.74.33-.71.65.1.7.81.05 2.06-.19 2.8-.53s.68-.64-.11-.69Z"/>
        <path fill="#5e8b3e" d="M119.05 244.71c-1.01-.42-.68-1.14.72-1.59a7.78 7.78 0 0 1 4.33-.09c1.01.39.71 1.08-.66 1.56-1.39.48-3.38.54-4.39.13Zm4.01-1.33a4.36 4.36 0 0 0-2.53.06c-.82.26-1.01.68-.42.92.84.24 1.73.21 2.55-.07.82-.27.99-.68.4-.91Z"/>
        <path fill="#cede7e" d="M135.58 249.38c4.4-1.66-1.87-2.12.46-2.99 2.61-.96 4.25.2 4.26.19l2.12-.46c0-.24-.46-.49-1.21-.67l1.07-.43-1.27-.11-.86.35c-1.4-.15-3.27-.08-5.22.59-3.88 1.34.69 2.43-.98 3.06a5.95 5.95 0 0 1-4.83-.32l-2.12.37c.07.09.8.5 1.99.8l-1.22.44.93.17 1.11-.43c1.55.26 3.62.24 5.77-.57Z"/>
        <g>
          <path fill="#c9c094" d="m126.02 263.71.33-9.48 22.81-9.13-14.29.43-17.48 6.62.13 9.47 8.5 2.09Z"/>
          <path fill="#ad6539" d="M126.02 264.07h-.08l-8.51-2.09a.35.35 0 0 1-.26-.35l-.13-9.47c0-.15.09-.29.23-.34l17.49-6.62.11-.02 14.29-.43c.15 0 .31.12.35.29a.38.38 0 0 1-.21.41l-22.6 9.05-.32 9.24c0 .19-.15.34-.34.34h-.02Zm-8.17-2.74 7.84 1.93.31-9.04c0-.14.09-.27.22-.32l20.92-8.37-12.21.37-17.21 6.51.12 8.93h.01Z"/>
        </g>
        <path fill="#406630" d="M100.28 247.54s9.5 4.72 14.37 5.33a458.8 458.8 0 0 0-13.9-5.87l-.47.54Z"/>
        <path fill="#406630" d="m101 250.43 14.45 5.24-14.04-4.43-.41-.81Z"/>
        <path fill="#406630" d="m101.54 252.95.2.74 12.27 4.11-12.47-4.85Z"/>
        <path fill="#406630" d="m148.36 259.51-20.41-2.2 20.98 1.49-.57.71Z"/>
        <path fill="#406630" d="m148.23 262.53-18.45-2.44 19.17 3.3.05-.36-.77-.5Z"/>
        <path fill="#4e803b" d="m148.77 257.19 18.3-7.59-18.54 8.41.24-.82Z"/>
        <path fill="#4e803b" d="m148.31 263.86 11.55-5.83-11.63 6.55.08-.72Z"/>
        <path fill="#4e803b" d="m171.08 252.84-16.63 9.17 16.48-8.27.15-.9Z"/>
        <path fill="#4e803b" d="m171.75 250.05-11.18 4.82 11.37-4.47-.19-.35Z"/>
        <path fill="#4e803b" d="m134.99 253.04-21.56-.91-4.5-12.79 4.5-4 21.56 17.7Z" opacity=".3"/>
      </g>
      <g>
        <path fill="#4e803b" d="M135.22 253.36s-24.07-14.33-28.24-22.92c-.17-3.55-.66-6.7-.66-6.7s22.93 15.38 29.92 18.63c3.13.68 2.28 5.63 2.28 5.63l-3.3 5.36Z"/>
        <g fill="#406630">
          <path d="M136.64 249.98c-4.62-2.18-9.02-4.32-13.21-7.35-.12-.09-.24.11-.12.2 4.08 3.2 8.31 5.94 13.23 7.47.2.06.29-.23.1-.32Z"/>
          <path d="M129.96 242.07c-3.3-1.03-6.32-2.87-9.25-4.74-.07-.04-.13.06-.07.11 5.33 3.69 11.16 6.66 17.63 6.84a5 5 0 0 0-.21-.48c-2.71-.56-5.44-.89-8.11-1.73h.01Z"/>
          <path d="M138.63 246.5a38.76 38.76 0 0 1-10.78-3.59c-3.41-1.77-6.51-3.95-9.67-6.16-.05-.04-.11.05-.06.09 5.96 4.51 12.8 9.79 20.5 9.83v-.17Z"/>
        </g>
        <path fill="#7d9f41" d="m136.25 242.38-.31 3.57 1.02.42-.29 2.35-1.1 1.12-.35 3.52 22.29-8.88.42-3.25 1.15-.82.76-3.57-.64-.24s1.59-3.29 1.41-3.56a2656.7 2656.7 0 0 0-24.37 9.33Z"/>
        <path fill="url(#linear-gradient14)" d="M160.62 233.04c-7.4 4.09-16.01 6.97-24.37 9.33-10.96-3-24.41-11.36-29.92-18.63a257.67 257.67 0 0 0 20.26-7.85c6.08 7.24 19.79 14.45 34.04 17.14h-.01Z"/>
        <path fill="url(#linear-gradient15)" d="M158.29 233.59c-6.53 3.5-15.34 5.33-21.47 8.12-12.86-4.18-23.44-10.91-29.01-17.78a254.4 254.4 0 0 0 18.06-7.12c5.94 6.9 19.02 13.88 32.43 16.78Z"/>
        <path fill="url(#linear-gradient16)" d="M127.15 219.15c5.5 5.29 16.14 10.92 26.26 13.83-1.81 1.15-2.94 2.1-1.71 2.8a57.47 57.47 0 0 1-11.84 3.84l-.09-.04a11.47 11.47 0 0 0-7.14.25c-9.42-3.75-17.32-8.82-22.42-14.12 1.35-.67 1.88-1.64 1.39-2.48 3.3-1.25 6.65-2.6 10.06-4.06 1.07.73 3.39.73 5.49-.01Z"/>
        <path fill="url(#linear-gradient17)" d="M135.57 233.19c-3.59 1.21-9.04 1.18-11.77-.34-2.7-1.55-1.62-3.73 2.04-4.68 3.67-.93 8.52-.53 11.16.74 2.64 1.24 2.15 3.07-1.44 4.28h.01Z"/>
        <path fill="url(#linear-gradient18)" d="M121.97 233.39c-3.47-2.01-1.95-4.9 2.72-6.05 4.68-1.12 10.8-.56 14.14 1.01 3.34 1.54 2.81 3.83-1.74 5.39-4.55 1.61-11.65 1.65-15.11-.36Zm16.3-4.86c-3.14-1.47-8.88-1.99-13.25-.94-4.36 1.09-5.73 3.74-2.49 5.64 3.26 1.84 9.84 1.84 14.11.36 4.26-1.45 4.76-3.6 1.63-5.06Z"/>
        <path fill="#487d3a" d="M137.12 236.2c.93.4 2.55.27 3.6-.28s1.15-1.3.23-1.67a4.98 4.98 0 0 0-3.58.27c-1.06.52-1.18 1.28-.25 1.68Zm3.03-1.53c.54.22.48.66-.14.98s-1.56.39-2.1.16-.47-.67.14-.98a2.9 2.9 0 0 1 2.09-.16h.01Z"/>
        <path fill="#4e803b" d="m136.17 243.58-.17.74 17.25-5.59-17.08 4.85Z"/>
        <path fill="#4e803b" d="M136.67 248.72s12.63-3.73 16.6-5.22c-1.81 1.2-17.89 6.58-17.89 6.58l1.28-1.36Z"/>
        <path fill="#4e803b" d="m135.39 251.24 8.43-1.99-8.53 2.8.1-.81Z"/>
        <path fill="#4e803b" d="m159.85 236.84-8.99 4.14 8.74-3.13.25-1.01Z"/>
        <path fill="#4e803b" d="M143.35 244.86s15.72-4.86 18.07-5.07c-.49-.54-2.11-.66-2.11-.66l-15.96 5.73Z"/>
        <g>
          <path fill="#e6dbad" d="m114.68 239.66.47-7.61 22.78-7.94 7.14 2.89-23.76 8.98-.98 8.01-5.65-4.33Z"/>
          <path fill="#c9c094" d="m115.15 232.05-.47 7.61 5.65 4.33.97-8.01.34-.13c-2.16-1.1-4.2-2.4-6.1-3.94l-.4.14h.01Z"/>
          <path fill="url(#linear-gradient19)" d="M120.33 244.26a.27.27 0 0 1-.15-.05l-5.65-4.33a.32.32 0 0 1-.11-.24l.47-7.61c0-.11.08-.21.18-.24l22.78-7.94a.28.28 0 0 1 .18 0l7.14 2.88c.1.04.17.14.17.26 0 .11-.07.22-.17.25l-23.62 8.93-.95 7.84c0 .1-.07.18-.16.22a.36.36 0 0 1-.1.02Zm-5.38-4.73 5.18 3.97.92-7.55c.01-.1.08-.19.17-.22l23.11-8.74-6.4-2.58-22.53 7.85-.45 7.27Z"/>
        </g>
      </g>
      <g>
        <path fill="#7d9f41" d="m53.12 253.57-2.38 12.02s-21.48-8.35-22.6-10.14c-.14-.52-1.05-2.81-1.82-4.81l.16-.37s-.68-1.9-.95-2.6l-.33-.06-1.06-2.71 28.98 8.66Z"/>
        <path fill="#4e803b" d="m97.62 238.48-.39 2.83.28.27-.49 2.94-.23.21-.33 2.23.22.12-.53 2.11s-11.45 6.27-18.22 8.71c-6.77 2.44-27.19 7.67-27.19 7.67l.26-1.83-.46-.33-.34-2.39.71-.38-.61-2.95-.38-.7-.27-2.93 47.98-15.6v.02Z"/>
        <path fill="#406630" d="m73.9 253.66-13.03 3.37 12.82-2.54.21-.83Z"/>
        <path fill="url(#linear-gradient20)" d="M69.81 232.04a551.68 551.68 0 0 0 27.81 6.44c-11.5 8.6-27.65 13.83-47.98 15.6-8.63-3.01-17.14-6.07-25.51-9.18 19.05-1.49 34.4-5.84 45.67-12.87h.01Z"/>
        <path fill="url(#linear-gradient21)" d="M70.54 232.98c8.1 2.13 16.24 4.07 24.43 5.84-10.97 7.83-26 12.73-44.71 14.62-7.89-2.64-15.75-5.35-23.59-8.15 18.13-1.53 32.87-5.68 43.87-12.31Z"/>
        <path fill="url(#linear-gradient22)" d="M33.45 245.07c13.74-1.65 25.34-4.94 34.62-9.79 2.56.57 5.77.42 7.71-.35 3.85 1.09 7.71 2.15 11.57 3.18l-.09.05c-1.75 1.15-1.18 2.5 1.32 3.21-8.98 5.32-20.26 8.98-33.66 10.94-2.47-.6-5.66-.89-8.17-.77-4.51-1.44-9-2.92-13.45-4.41 2.11-.34 2.15-1.21.14-2.06h.01Z"/>
        <path fill="url(#linear-gradient23)" d="M55.1 246.81c4.75 1.6 12.56 2.02 16.95.62 4.36-1.43 3.51-3.86-1.43-5.18-4.95-1.3-12.02-1.28-16.21-.14-4.17 1.11-4.06 3.1.69 4.7Z"/>
        <path fill="url(#linear-gradient24)" d="M74.49 248.15c5.61-1.86 4.36-5.08-1.95-6.7-6.35-1.59-15.28-1.5-20.56-.1-5.28 1.37-5.25 3.86.77 5.92 6 2.1 16.15 2.74 21.75.88h-.01Zm-21.78-6.56c4.97-1.31 13.35-1.39 19.27.11 5.89 1.53 7.01 4.49 1.76 6.24-5.25 1.7-14.68 1.15-20.31-.8-5.63-1.91-5.67-4.25-.72-5.55Z"/>
        <path fill="#5e8b3e" d="M50.14 249.03c1.37-.2 1.38-.76.06-1.22-1.31-.46-3.46-.66-4.8-.47s-1.4.71-.11 1.18 3.49.71 4.85.51Zm-3.76-1.34c.8-.11 2.05 0 2.82.28.77.27.75.59-.04.71-.8.12-2.07-.02-2.83-.29-.77-.27-.73-.58.05-.69Z"/>
        <path fill="#5e8b3e" d="M78.58 240.39c.97-.5.58-1.2-.84-1.53a7.85 7.85 0 0 0-4.32.28c-.98.47-.62 1.13.78 1.49 1.42.36 3.41.25 4.38-.25Zm-4.09-.98c.81-.3 1.69-.36 2.53-.16.84.19 1.06.59.49.88-.56.29-1.72.36-2.54.15-.84-.2-1.04-.59-.48-.87Z"/>
        <path fill="#cede7e" d="M62.48 246.47c-4.52-1.27 1.7-2.28-.69-2.94-2.68-.73-4.22.56-4.23.56l-2.15-.27c-.02-.24.42-.53 1.15-.78l-1.1-.33 1.25-.22.88.28c1.38-.28 3.26-.36 5.25.14 3.97 1-.49 2.48 1.22 2.96 1.63.44 3.37.17 4.79-.74l2.14.19c-.07.09-.76.57-1.92.97l1.25.33-.91.25-1.14-.34c-1.53.39-3.59.56-5.8-.07Z"/>
        <g>
          <path fill="#c9c094" d="m73.13 259.93-1.07-9.42-23.46-7.13 14.28-.8 17.95 5.08.61 9.45-8.31 2.82Z"/>
          <path fill="#ad6539" d="M73.13 260.29a.3.3 0 0 1-.18-.06.35.35 0 0 1-.16-.26l-1.05-9.18-23.24-7.06c-.16-.05-.26-.21-.25-.39.02-.17.15-.3.32-.32l14.28-.81h.11l17.95 5.09c.14.04.24.17.25.32l.62 9.45a.38.38 0 0 1-.24.37l-8.31 2.82-.11.02h.01Zm-22.49-16.66 21.51 6.54c.13.04.23.16.25.3l1.02 8.99 7.66-2.6-.58-8.91-17.66-5-12.2.69Z"/>
        </g>
        <path fill="#406630" d="M97.51 241.58s-9.1 5.52-13.91 6.56c2.6-1.55 13.39-7.05 13.39-7.05l.51.5Z"/>
        <path fill="#406630" d="M97.02 244.53 83.03 251l13.65-5.63.34-.84Z"/>
        <path fill="#406630" d="m96.68 247.09-.14.75-11.9 5.16 12.04-5.91Z"/>
        <path fill="#406630" d="m50.53 257.67 20.17-3.95-20.78 3.3.61.65Z"/>
        <path fill="#406630" d="m50.9 260.67 18.2-4.02-18.85 4.95-.08-.36.73-.57Z"/>
        <path fill="#4e803b" d="m49.94 255.4-18.83-5.99 19.14 6.78-.31-.79Z"/>
        <path fill="#4e803b" d="m50.93 262-11.97-4.81 12.1 5.52-.13-.71Z"/>
        <path fill="#4e803b" d="m27.36 252.99 17.31 7.71-17.08-6.82-.23-.89Z"/>
        <path fill="#4e803b" d="M26.48 250.27 38 254.1l-11.68-3.46.16-.37Z"/>
      </g>
      <g>
        <path fill="#7d9f41" d="m74.13 243.28 2.49 12s21.4-8.56 22.51-10.35c.14-.52 1.03-2.82 1.78-4.83l-.16-.36s.66-1.91.93-2.61l.33-.06 1.04-2.72-28.91 8.93h-.01Z"/>
        <path fill="#4e803b" d="m29.5 228.63.41 2.83-.28.27.52 2.94.23.21.35 2.22-.22.13.55 2.11s11.51 6.16 18.29 8.54c6.79 2.37 27.26 7.41 27.26 7.41l-.27-1.82.46-.33.32-2.39-.71-.37.59-2.96.37-.71.25-2.93-48.11-15.14h-.01Z"/>
        <path fill="#406630" d="m53.35 243.58 13.06 3.25-12.85-2.42-.21-.83Z"/>
        <path fill="url(#linear-gradient25)" d="M57.25 221.92a560.24 560.24 0 0 1-27.75 6.71c11.57 8.48 27.77 13.57 48.11 15.14 8.6-3.09 17.09-6.24 25.42-9.42-19.06-1.31-34.45-5.51-45.78-12.43Z"/>
        <path fill="url(#linear-gradient26)" d="M56.53 222.86a582.42 582.42 0 0 1-24.38 6.08c11.04 7.72 26.11 12.48 44.84 14.19 7.87-2.71 15.71-5.5 23.52-8.37-18.14-1.35-32.92-5.36-43.98-11.89Z"/>
        <path fill="url(#linear-gradient27)" d="M93.72 234.61c-13.76-1.52-25.38-4.7-34.71-9.46-2.56.59-5.77.47-7.72-.27a659.32 659.32 0 0 1-11.54 3.29l.09.05c1.76 1.14 1.2 2.49-1.29 3.22 9.03 5.23 20.34 8.79 33.76 10.62 2.47-.62 5.66-.95 8.16-.85 4.5-1.49 8.97-3 13.41-4.53-2.12-.32-2.16-1.19-.16-2.06Z"/>
        <path fill="url(#linear-gradient28)" d="M72.09 236.55c-4.74 1.64-12.54 2.14-16.95.79-4.37-1.39-3.54-3.83 1.39-5.19 4.94-1.35 12.01-1.39 16.21-.3 4.18 1.07 4.09 3.06-.65 4.7Z"/>
        <path fill="url(#linear-gradient29)" d="M52.71 238.08c-5.63-1.81-4.41-5.04 1.9-6.71 6.34-1.65 15.27-1.65 20.56-.3 5.29 1.32 5.28 3.81-.71 5.92-5.98 2.16-16.12 2.9-21.74 1.09h-.01Zm21.72-6.78c-4.98-1.26-13.36-1.26-19.27.29-5.88 1.58-6.97 4.55-1.71 6.26 5.27 1.65 14.69 1.01 20.31-.99 5.62-1.97 5.63-4.3.67-5.56Z"/>
        <path fill="#5e8b3e" d="M77.07 238.72c-1.37-.19-1.39-.75-.07-1.22 1.31-.47 3.45-.69 4.79-.52 1.35.18 1.41.7.13 1.18-1.56.52-3.21.7-4.85.55Zm3.75-1.37a7.09 7.09 0 0 0-2.82.3c-.76.28-.75.6.05.7.8.11 2.07-.04 2.83-.32s.72-.59-.06-.69Z"/>
        <path fill="#5e8b3e" d="M48.56 230.35c-.98-.5-.59-1.19.83-1.53 1.43-.33 3.36-.22 4.33.24.98.46.63 1.13-.77 1.5-1.42.37-3.41.28-4.38-.21Zm4.08-1.01a4.45 4.45 0 0 0-2.53-.14c-.84.2-1.05.6-.48.89.82.3 1.7.34 2.54.12.84-.21 1.03-.6.47-.88Z"/>
        <path fill="#cede7e" d="M64.71 236.28c4.51-1.32-1.72-2.26.66-2.94 2.67-.75 4.23.52 4.24.52l2.15-.29c.02-.24-.43-.52-1.16-.77l1.09-.34-1.25-.21-.88.29a12.24 12.24 0 0 0-5.25.19c-3.96 1.04.52 2.47-1.19 2.97a5.96 5.96 0 0 1-4.8-.69l-2.14.21c.07.09.76.56 1.93.95l-1.24.34.91.24 1.14-.35c1.53.38 3.59.52 5.79-.12Z"/>
        <g>
          <path fill="#c9c094" d="m54.18 249.84.99-9.43 23.39-7.35-14.28-.67-17.91 5.25-.53 9.46 8.34 2.74Z"/>
          <path fill="#ad6539" d="M54.18 250.2s-.07 0-.1-.02l-8.34-2.74a.36.36 0 0 1-.24-.36l.53-9.45c0-.15.11-.28.25-.32l17.9-5.25h.11l14.28.66c.17 0 .3.14.33.32a.37.37 0 0 1-.24.39l-23.17 7.28-.96 9.19c0 .11-.07.2-.15.26a.33.33 0 0 1-.19.06v-.02h-.01Zm-7.98-3.36 7.68 2.53.94-9c0-.14.11-.26.24-.3l21.45-6.74-12.21-.57-17.61 5.17-.5 8.92Z"/>
        </g>
        <path fill="#406630" d="M29.64 231.73s9.14 5.44 13.96 6.42c-4.44-2.38-8.93-4.7-13.45-6.93l-.51.5Z"/>
        <path fill="#406630" d="m30.15 234.67 14.05 6.34-13.7-5.5-.35-.84Z"/>
        <path fill="#406630" d="m30.52 237.23.15.75 11.94 5.04-12.09-5.79Z"/>
        <path fill="#406630" d="m76.75 247.37-20.2-3.76 20.81 3.09-.61.67Z"/>
        <path fill="#406630" d="m76.41 250.37-18.23-3.85 18.89 4.77.08-.36-.74-.56Z"/>
        <path fill="#4e803b" d="m77.33 245.09 18.78-6.17-19.08 6.96.3-.79Z"/>
        <path fill="#4e803b" d="m76.39 251.7 11.93-4.92-12.05 5.63.12-.71Z"/>
        <path fill="#4e803b" d="m99.88 242.46-17.23 7.87 17.01-6.98.22-.89Z"/>
        <path fill="#4e803b" d="m100.74 239.73-11.49 3.95 11.66-3.58-.17-.37Z"/>
      </g>
      <g>
        <path fill="#4e803b" d="M76.94 240.97s25.38-11.59 30.38-19.68c.52-3.52 1.33-6.59 1.33-6.59s-24.35 12.77-31.62 15.23c-3.18.33-2.83 5.34-2.83 5.34l2.75 5.7Z"/>
        <g fill="#406630">
          <path d="M75.87 237.45c4.81-1.66 9.4-3.3 13.87-5.85.13-.07.22.13.1.21-4.38 2.73-8.86 5-13.9 5.97-.21.04-.26-.27-.07-.33Z"/>
          <path d="M83.31 230.31c3.38-.67 6.58-2.16 9.67-3.7.07-.03.13.08.06.11-5.67 3.08-11.77 5.4-18.22 4.86.08-.16.16-.31.26-.45 2.75-.26 5.5-.28 8.23-.82Z"/>
          <path d="M74.24 233.76c3.84-.31 7.44-.97 11.08-2.38 3.57-1.38 6.87-3.21 10.24-5.06.06-.03.1.06.05.1-6.38 3.83-13.71 8.33-21.38 7.52l.02-.18h-.01Z"/>
        </g>
        <path fill="#7d9f41" d="m77.02 229.93-.05 3.59-1.06.31.05 2.37.98 1.24v3.54l-21.28-11.29-.1-3.28-1.06-.94-.4-3.63.66-.17s-1.25-3.44-1.05-3.7c3.4 1.65 23.3 11.97 23.3 11.97Z"/>
        <path fill="url(#linear-gradient30)" d="M53.72 217.96c6.95 4.88 15.22 8.7 23.3 11.97 11.2-1.78 25.41-8.6 31.62-15.23a257 257 0 0 1-19.36-10.04c-6.77 6.53-21.13 12.19-35.57 13.3Z"/>
        <path fill="url(#linear-gradient31)" d="M55.99 218.76c6.15 4.2 14.72 6.99 20.54 10.44 13.2-2.74 24.4-8.26 30.64-14.49a254.87 254.87 0 0 1-17.24-9.07c-6.6 6.21-20.31 11.71-33.93 13.12Z"/>
        <path fill="url(#linear-gradient32)" d="M88.4 207.83c-6 4.66-17.14 9.08-27.51 10.86 1.68 1.34 2.72 2.41 1.42 2.97a57.37 57.37 0 0 0 11.39 5.12l.09-.02c2.41-.41 4.88-.05 7.07 1.03 9.75-2.69 18.11-6.86 23.72-11.57-1.27-.81-1.7-1.84-1.13-2.62a252.47 252.47 0 0 1-9.59-5.15c-1.14.61-3.44.35-5.46-.62Z"/>
        <path fill="#487d3a" d="M76.77 223.69c-1.23.24-2.5 0-3.55-.67-.99-.67-1.01-1.42-.06-1.69s2.53.02 3.53.67c1 .63 1.05 1.4.08 1.69Zm-2.85-1.86c-.56.16-.54.6.04.99.58.38 1.51.56 2.07.39.56-.17.54-.61-.05-.99a2.95 2.95 0 0 0-2.07-.39h.01Z"/>
        <path fill="#4e803b" d="m76.98 231.13.09.75-16.59-7.45 16.5 6.7Z"/>
        <path fill="#4e803b" d="M75.97 236.19s-12.18-5.1-15.99-7.02c1.69 1.39 17.13 8.51 17.13 8.51l-1.14-1.49Z"/>
        <path fill="#4e803b" d="m76.98 238.83-8.17-2.9 8.2 3.72-.03-.82Z"/>
        <path fill="#4e803b" d="m54.1 221.82 8.53 5.11-8.38-4.08-.15-1.03Z"/>
        <path fill="#4e803b" d="M69.7 231.61s-15.14-6.56-17.46-7.03c.54-.48 2.17-.43 2.17-.43l15.29 7.46Z"/>
      </g>
      <g>
        <path fill="#7d9f41" d="M112.19 217.05c1.4 3.89 2.94 7.83 4.6 11.8.59-.13 21.16-7.09 21.04-8.75-.04-.52.11-2.8.17-4.82l-.27-.39s0-1.91.03-2.61l.28-.03.07-2.72c-7.57 2.29-16.21 4.74-25.93 7.51h.01Z"/>
        <path fill="#4e803b" d="m65.11 207.02-.18 2.49-.36.29a111 111 0 0 0-.05 2.58l.21.15-.05 1.96-.27.15.22 1.83c-.09-.07 12.37 3.85 20.35 5.68 7.81 1.33 31.83 6.43 31.83 6.7l-.63-1.81.45-.31-.07-2.33-.84-.39.14-2.88.28-.68-.22-2.87a275.92 275.92 0 0 0-50.8-10.56Z"/>
        <path fill="url(#linear-gradient33)" d="M94.34 197.36c-8.9 3.07-18.73 6.26-29.23 9.66 10.54 5.64 29.28 8.48 50.8 10.56a359.1 359.1 0 0 0 22.22-8.05c-17.31-2.95-33.37-6.67-43.78-12.18h-.01Z"/>
        <path fill="url(#linear-gradient34)" d="M93.61 198.29c-7.9 2.73-16.52 5.56-25.69 8.56 10.24 5.18 27.46 7.99 47.24 10.09 7.01-2.21 13.96-4.6 20.84-7.19-16.7-2.8-32.13-6.31-42.39-11.46Z"/>
        <path fill="url(#linear-gradient35)" d="M129.81 209.15c-13.04-2.31-24.97-5.13-33.88-8.91-2.49.73-5.68.89-7.55.4-3.9 1.42-7.97 2.88-12.19 4.37.03 0 .06.02.08.04 1.68.81.93 2.11-1.88 3.12 8.92 3.53 21.46 5.86 35.75 7.68 2.52-.59 5.73-.87 8.28-.69 4.29-1.33 8.32-2.63 12.06-3.9-2.06-.45-2.3-1.32-.67-2.09v-.02Z"/>
        <path fill="url(#linear-gradient36)" d="M109.31 210.53c-4.56 1.6-12.86 2.32-17.59 1.38-4.68-.98-3.55-3.3 1.56-4.95 5.14-1.62 12.04-1.97 16.21-.97 4.13.98 4.4 2.93-.18 4.54Z"/>
        <path fill="url(#linear-gradient37)" d="M89.08 212.78c-6.08-1.21-4.32-4.31 2.25-6.41 6.62-2.06 15.23-2.45 20.42-1.16 5.16 1.26 5.69 3.72-.02 5.73-5.67 2.04-16.57 3.05-22.65 1.84Zm21.99-7.33c-4.91-1.2-13.02-.83-19.18 1.1-6.12 1.96-7.67 4.8-2 5.97 5.69 1.11 15.78.22 21.13-1.69 5.38-1.88 4.91-4.19.05-5.38Z"/>
        <path fill="#5e8b3e" d="M114.58 212.64c-1.41-.2-1.49-.74-.24-1.19 1.24-.45 3.31-.63 4.66-.42 1.34.21 1.51.73.33 1.17s-3.34.64-4.74.44h-.01Zm3.52-1.27a6.7 6.7 0 0 0-2.74.25c-.72.26-.66.57.15.69.82.12 2.06 0 2.76-.25.71-.26.61-.56-.18-.68Z"/>
        <path fill="#5e8b3e" d="M85.13 205.97c-.97-.36-.5-1.04.98-1.5 1.5-.45 3.45-.52 4.4-.17.97.35.6 1-.87 1.46-1.48.46-3.55.57-4.52.21Zm4.28-1.32a4.81 4.81 0 0 0-2.58.11c-.87.26-1.13.66-.57.87.57.21 1.76.15 2.62-.12.87-.27 1.09-.65.53-.85Z"/>
        <path fill="#cede7e" d="M101.76 210.43c4.54-1.4-1.85-2.09.54-2.82 2.64-.82 4.26.37 4.28.37.71-.12 1.41-.21 2.11-.32 0-.23-.47-.5-1.21-.71l1.05-.35-1.25-.17-.84.29a12.33 12.33 0 0 0-5.23.35c-3.99 1.16.61 2.32-1.11 2.86-1.66.5-3.44.35-4.99-.41l-2.24.33c.07.08.79.48 2.02.77l-1.31.4.96.17 1.2-.39c1.61.27 3.79.32 6.03-.37h-.01Z"/>
        <path fill="#406630" d="M64.56 209.81c-.08-.05 21.59 6.84 26.96 7.3-2.86-1.22-26.37-7.92-26.29-7.84l-.67.54Z"/>
        <path fill="#406630" d="M64.51 212.39c4.85 1.13 9.84 2.41 14.95 3.87a294.47 294.47 0 0 0-14.73-3.17l-.22-.7Z"/>
        <path fill="#406630" d="m64.4 214.65.02.66c4.26.87 8.61 1.86 13.04 2.98-4.32-1.3-8.68-2.51-13.05-3.63Z"/>
        <path fill="#406630" d="M115.58 221.08a280.39 280.39 0 0 0-22.36-3.38c7.72.6 15.36 1.52 22.9 2.75l-.54.63Z"/>
        <path fill="#406630" d="M115.7 224.01a287.5 287.5 0 0 0-20.61-3.64 290.99 290.99 0 0 1 21.49 4.57l.02-.35-.9-.58Z"/>
        <path fill="#4e803b" d="M115.82 218.87c6.25-1.84 12.03-3.56 17.34-5.19a903.46 903.46 0 0 1-17.53 5.96l.19-.77Z"/>
        <path fill="#4e803b" d="M115.91 225.32c4.1-1.46 7.99-2.87 11.66-4.25-3.87 1.7-7.76 3.34-11.67 4.94v-.69Z"/>
        <path fill="#4e803b" d="M137.78 217.63a341.05 341.05 0 0 1-15.34 6.64c5.17-1.83 10.3-3.75 15.41-5.74l-.07-.89Z"/>
        <path fill="#4e803b" d="M137.74 214.9c-3.32 1.06-6.65 2.1-9.98 3.12l10.24-2.73-.27-.39Z"/>
      </g>
      <g>
        <path fill="url(#linear-gradient38)" d="m76.61 262.38.96 2.66.44.2.36 1.22-.24.41.31.97.78.29.97 2.95 36.41-1.44 1.54-3.01-.42-.43.46-1.89.54-.07.23-.97-.36-.86.35-1.34-42.33 1.31Z"/>
        <path fill="url(#linear-gradient39)" d="m109.86 220.15-22.11.26c-.78 14.07-6.51 28.08-11.13 41.97 14.21 1.12 28.38.61 42.32-1.3-3.21-13.72-8.43-27.14-9.08-40.92Z"/>
        <path fill="url(#linear-gradient40)" d="m108.58 221.15-19.63.38c-.91 13.3-5.46 26.57-9.76 39.9 12.58.84 24.92.51 37.33-.92-3.01-13.28-7.2-26.18-7.94-39.36Z"/>
        <path fill="url(#linear-gradient41)" d="M113.94 256.37c-2.31-10.51-4.94-20.78-5.93-31.16-2.17-.18-4.01-1.53-4.51-3.24l-10.34.46v.1c-.06 2.09-1.96 3.73-4.33 3.85-1.21 10.27-4.21 20.54-7.36 30.89 2.98.47 5.02 1.81 5.16 3.5 6.92.28 13.78.22 20.68-.18.34-1.9 3.03-3.61 6.63-4.23Z"/>
        <path fill="#4e803b" d="M98.24 248.27c-6.25.26-10.75-3.01-9.89-6.98.86-3.99 5.21-7.14 9.91-7.1 4.69.05 9.12 3.03 9.91 6.72.78 3.67-3.69 7.11-9.93 7.36Z"/>
        <path fill="url(#linear-gradient42)" d="M97.32 250.27c-4.75 0-8.88-1.63-10.77-4.26a5.51 5.51 0 0 1-.9-4.81c1.38-5.03 6.83-8.97 12.41-8.97h.19c5.79.11 11.32 3.84 12.6 8.49.4 1.48.1 3-.85 4.4-2 2.91-6.5 4.87-11.76 5.13l-.93.02h.01Zm.75-17.42c-5.34 0-10.54 3.74-11.85 8.52a4.9 4.9 0 0 0 .8 4.27c1.78 2.48 5.73 4.02 10.3 4.02.3 0 .6 0 .9-.02 5.08-.25 9.42-2.12 11.31-4.87a4.58 4.58 0 0 0 .77-3.87c-1.19-4.33-6.6-7.94-12.05-8.04h-.18Z"/>
        <path fill="#57873d" d="M97.61 256.43c-1.09 0-2.04-.33-2.52-.88-.26-.3-.39-.64-.36-1.01.08-1.1 1.46-2 3.21-2.09 1.79-.09 3.15.69 3.2 1.79.05 1.11-1.35 2.07-3.2 2.18h-.33Zm.6-3.13h-.23c-1.38.07-2.39.74-2.43 1.3 0 .12.04.24.14.36.36.41 1.24.65 2.21.6 1.39-.08 2.45-.75 2.42-1.28-.02-.47-.87-.98-2.11-.98Z"/>
        <path fill="#57873d" d="M98.4 230.49h-.07c-1.24-.04-2.23-.93-2.21-2 .02-1.04.95-1.85 2.12-1.85h.11c1.21.05 2.18.92 2.21 1.98.01.44-.15.86-.46 1.19-.4.44-1.02.69-1.69.69h-.01Zm-.17-3c-.72 0-1.29.45-1.3 1.02-.01.59.63 1.1 1.41 1.13h.05c.45 0 .86-.16 1.11-.43a.81.81 0 0 0 .23-.57c-.02-.59-.67-1.11-1.42-1.15h-.08Z"/>
        <g>
          <path fill="url(#linear-gradient43)" d="m84.25 238.11-1.81 6.84 32.74.03-2.08-7.71-28.85.84Z"/>
          <path fill="url(#linear-gradient44)" d="m115.56 245.28-33.5-.02 1.96-7.45 29.29-.85 2.25 8.32Zm-32.73-.63 31.96.02-1.92-7.08-28.41.82-1.64 6.24Z"/>
        </g>
        <g fill="#406630">
          <path d="M79.18 268.12h.04l.45 1.37 30.81-2.05-31.3.68Z"/>
          <path d="m77.63 265.07.38.17.32 1.08 31.24-1.73s-24.2.54-31.94.48Z"/>
        </g>
        <path fill="#a7c25a" d="M97.75 266.16s9.45.21 19.15.16c0-.36-.26-1.27-.26-1.27l-18.88 1.11h-.01Z"/>
        <path fill="#a7c25a" d="M103.34 268.83s12.72.21 14.47.39c0-.41-.46-1.27-.46-1.27l-14.02.88Z"/>
      </g>
      <g>
        <path fill="#7d9f41" d="M111.2 203.86c1.21 3.38 2.48 6.76 3.81 10.13.3-.33 19.95-7.4 20.23-8.49 0-.42.31-2.28.52-3.9l-.24-.31s.15-1.54.22-2.1c.1 0 .19-.02.29-.03l.27-2.18a250.4 250.4 0 0 0-25.1 6.89Z"/>
        <path fill="#4e803b" d="m69.91 196.03.05 2.54-.28.31.14 2.62.19.15.09 1.98-.22.16.29 1.83c-.08-.02 10.4 3.34 17.18 4.5 6.5.85 27.54 3.66 27.65 3.86l-.5-1.54.42-.3.02-2.04-.75-.29-.12-2.98.61-.17-.12-2.5a373.84 373.84 0 0 0-44.67-8.13h.02Z"/>
        <g>
          <path fill="#e6dbad" d="m116.81 193.98-20.24 8.74.74 9.16-10.61-2.08-.31-7.57 23.07-9.85 7.35 1.6Z"/>
          <path fill="#c9c094" d="m96.59 202.92.72 8.96-10.62-2.08-.31-7.57 1.49-.64c2.92.38 5.83.8 8.71 1.33h.01Z"/>
          <path fill="#ad6539" d="M97.32 212.2c.07 0 .14-.03.2-.08a.32.32 0 0 0 .1-.26l-.72-8.93 20.03-8.65c.12-.05.2-.19.19-.32-.01-.14-.11-.26-.24-.28l-7.35-1.59c-.06 0-.12 0-.18.02l-23.07 9.85a.3.3 0 0 0-.19.31l.31 7.57c0 .15.11.27.25.3l10.62 2.08h.06v-.02Zm18.45-18.12-19.32 8.34a.32.32 0 0 0-.19.32l.71 8.75-9.98-1.95-.29-7.09 22.79-9.73 6.28 1.36Z"/>
        </g>
        <path fill="#4e803b" d="m69.91 196.03.05 2.54-.28.31.14 2.62.19.15.09 1.98-.22.16.29 1.83c-.07-.02 9.2 2.95 15.95 4.27 7.33-.48 14.22-3.39 20.55-7.57a368.9 368.9 0 0 0-36.76-6.3Z" opacity=".3"/>
        <path fill="url(#linear-gradient45)" d="M94.68 186.32a536.18 536.18 0 0 0-24.77 9.71c9.34 5.71 24.98 7.34 44.67 8.13 7.17-2.61 14.41-5 21.72-7.19-17.3-2.61-31.86-5.39-41.62-10.65Z"/>
        <path fill="url(#linear-gradient46)" d="M94.07 187.2a516.53 516.53 0 0 0-21.8 8.62c9.07 5.16 23.56 6.89 41.64 7.81 7.23-2.55 13.99-4.7 20.24-6.51-16.55-2.4-30.52-5.02-40.08-9.92Z"/>
        <path fill="url(#linear-gradient47)" d="M128.04 196.6c-12.66-1.89-23.55-4.08-31.78-7.58-2.22.7-5.05.89-6.75.43-3.47 1.43-6.92 2.9-10.36 4.4.02 0 .06.02.07.04 1.5.77.93 2.06-1.39 3.13 7.82 3.32 18.58 4.9 31.51 5.86 2.48-.67 5.04-.99 7.61-.95 4.02-1.32 7.91-2.51 11.63-3.59-1.99-.35-2.18-1.09-.56-1.73h.02Z"/>
        <path fill="url(#linear-gradient48)" d="M108.63 198.17c-4.2 1.56-11.56 2.6-15.69 1.91-4.09-.73-3.23-3.03 1.22-4.71 4.47-1.67 10.76-2.09 14.63-1.26 3.85.82 4.05 2.49-.16 4.06Z"/>
        <path fill="url(#linear-gradient49)" d="M90.67 201.01c-5.27-.89-3.94-4 1.75-6.14 5.73-2.12 13.61-2.56 18.48-1.49 4.84 1.06 5.26 3.14-.04 5.08-5.28 1.96-14.91 3.43-20.18 2.54Zm19.59-7.41c-4.58-1-11.99-.56-17.34 1.42-5.31 2-6.48 4.84-1.55 5.7 4.94.81 13.87-.5 18.84-2.34 4.97-1.83 4.6-3.79.05-4.78Z"/>
        <path fill="#5e8b3e" d="M113.46 199.87c-1.3-.13-1.37-.61-.21-1.04s3.09-.64 4.35-.49 1.4.59.28 1-3.13.66-4.43.53h.01Zm3.3-1.22a6.37 6.37 0 0 0-2.56.29c-.67.25-.62.52.13.6.76.08 1.92-.06 2.58-.3.67-.24.59-.5-.15-.59Z"/>
        <path fill="#5e8b3e" d="M86.96 194.64c-.87-.32-.5-1 .78-1.46 1.29-.46 3.01-.56 3.87-.25.87.32.57.93-.7 1.41-1.28.47-3.08.62-3.95.3Zm3.69-1.36a3.96 3.96 0 0 0-2.26.15c-.75.27-.96.66-.45.84.5.19 1.55.1 2.29-.17.75-.27.93-.64.43-.83h-.01Z"/>
        <path fill="#406630" d="m114.7 206.66-16.41-.39 15.8 1.36.61-.97Z"/>
        <path fill="#406630" d="M114.21 209.12v.69l-13.8-1.6 13.8.91Z"/>
        <path fill="#406630" d="m114.67 212.42-9.59-1.34 9.8 1.87-.21-.53Z"/>
        <path fill="#4e803b" d="m135.76 201.59-11.88 3.76 11.65-4.5.23.74Z"/>
        <path fill="#4e803b" d="m135.75 199.18-.09.6-7.65 2.46 7.74-3.06Z"/>
        <path fill="#4e803b" d="m114.7 206.66 9.73-2.55-9.75 1.8.02.75Z"/>
        <path fill="#4e803b" d="m114.93 210.53 16.5-5.34-16.49 6.16v-.82Z"/>
        <path fill="#406630" d="m69.92 197.27 10.42 4.45-10.38-3.47-.04-.98Z"/>
      </g>
      <g>
        <path fill="#4e803b" d="M91.13 196.88c-.76 3.52-1.57 7.05-2.45 10.58-.34-.28-20.72-4.48-21.14-5.52-.06-.42-.61-2.21-1.03-3.79l.19-.34-.49-2.05c-.1 0-.19 0-.29.02l-.55-2.12c8.64.63 17.24 1.71 25.76 3.23Z"/>
        <path fill="#7d9f41" d="m131.01 183.21.28 2.53.32.26.2 2.62-.17.17.17 1.98.23.13c0 .62-.03 1.24-.05 1.86.07-.03-9.87 4.8-16.44 6.92-6.32 1.77-26.81 7.56-26.89 7.78l.29-1.6-.46-.24-.29-2.02.7-.4-.27-2.97-.63-.08-.21-2.5a377.3 377.3 0 0 1 43.19-14.45h.03Z"/>
        <path fill="url(#linear-gradient50)" d="M105.22 177.14c8.2 1.71 16.88 3.74 25.8 6.07-8.51 6.99-23.79 10.84-43.19 14.45-8.14-1.7-15.64-3-22.45-4.01 16.8-5.06 30.86-9.9 39.84-16.51Z"/>
        <path fill="url(#linear-gradient51)" d="M105.94 177.92a520.73 520.73 0 0 1 22.72 5.42c-8.32 6.41-22.44 10.19-40.24 13.69a368.64 368.64 0 0 0-20.89-3.55c16.08-4.74 29.58-9.34 38.41-15.56Z"/>
        <path fill="url(#linear-gradient52)" d="M73.51 192.1c12.3-3.69 22.8-7.41 30.5-12.06 2.29.38 5.12.16 6.74-.54 3.53.9 7.14 1.86 10.83 2.88l-.07.04c-1.38.98-.66 2.18 1.79 2.9-7.31 4.41-17.77 7.51-30.45 10.32a27.68 27.68 0 0 0-7.66.15c-4.16-.73-8.16-1.36-11.99-1.9 1.92-.64 2.02-1.39.33-1.79h-.02Z"/>
        <path fill="url(#linear-gradient53)" d="M92.93 190.87c4.37.95 11.79.93 15.79-.35 3.96-1.31 2.81-3.46-1.82-4.49-4.65-1.01-10.93-.53-14.66.84-3.7 1.36-3.69 3.05.69 3.99Z"/>
        <path fill="url(#linear-gradient54)" d="M111.1 191.11c5.11-1.63 3.39-4.53-2.53-5.83-5.96-1.28-13.81-.59-18.5 1.17-4.66 1.74-4.81 3.86.7 5.03 5.48 1.19 15.22 1.27 20.33-.37Zm-20.37-4.53c4.41-1.64 11.8-2.27 17.36-1.07 5.52 1.22 7.05 3.86 2.28 5.43-4.79 1.5-13.81 1.49-18.96.37-5.17-1.1-5.05-3.09-.68-4.73Z"/>
        <path fill="#5e8b3e" d="M88.37 193.25c1.27-.31 1.28-.8.07-1.06-1.45-.25-2.94-.2-4.37.13-1.23.33-1.31.78-.15 1.03 1.16.25 3.19.2 4.45-.11Zm-3.42-.74c.73-.19 1.87-.23 2.57-.08s.69.43-.05.61c-.74.19-1.91.21-2.59.07-.69-.14-.65-.41.07-.6Z"/>
        <path fill="#5e8b3e" d="M113.95 184.27c.82-.44.36-1.06-.96-1.34a6.7 6.7 0 0 0-3.86.31c-.82.44-.44 1.01.87 1.29 1.33.28 3.14.18 3.95-.26Zm-3.84-.82a3.88 3.88 0 0 1 2.26-.17c.78.16 1.03.51.56.77s-1.52.33-2.29.16c-.78-.17-1.01-.5-.53-.76Z"/>
        <g>
          <path fill="#e6dbad" d="m84.18 187.32 21.18 5.76.47 9.19 10.24-3.58-.68-7.54-24.14-6.46-7.07 2.63Z"/>
          <path fill="#c9c094" d="m105.38 193.29.45 8.98 10.25-3.58-.68-7.54-1.56-.42c-2.84.78-5.66 1.63-8.46 2.56Z"/>
          <path fill="#ad6539" d="M105.86 202.58c-.07 0-.15 0-.21-.05a.31.31 0 0 1-.13-.25l-.45-8.95-20.97-5.7c-.13-.03-.22-.15-.23-.3 0-.14.08-.27.2-.32l7.08-2.63a.28.28 0 0 1 .18 0l24.14 6.46a.3.3 0 0 1 .23.28l.68 7.54a.33.33 0 0 1-.21.34l-10.25 3.57h-.06Zm-20.64-15.31 20.22 5.5c.13.03.22.15.23.29l.44 8.77 9.64-3.36-.64-7.07-23.84-6.38-6.05 2.25Z"/>
        </g>
        <path fill="#4e803b" d="m88.03 200.15 16.2-2.73-15.47 3.6-.73-.87Z"/>
        <path fill="#4e803b" d="m88.83 202.52.1.68 13.46-3.55-13.56 2.87Z"/>
        <path fill="#4e803b" d="m88.81 205.85 9.33-2.7-9.47 3.26.14-.56Z"/>
        <path fill="#406630" d="m66.51 198.14 12.25 2.02-12.12-2.79-.13.77Z"/>
        <path fill="#406630" d="m66.21 195.75.16.58 7.9 1.35-8.06-1.93Z"/>
        <path fill="#406630" d="m88.03 200.15-9.97-1.13 9.89.39.08.74Z"/>
        <path fill="#406630" d="m88.3 204.01-17.03-2.92 17.13 3.74-.1-.82Z"/>
        <path fill="#4e803b" d="m131.17 184.44-9.74 5.9 9.83-4.92-.09-.98Z"/>
      </g>
    </g>
    <path fill="#085a9c" d="m69.2 183.51.37-1.73 1.21 1.3 1.84-.25-.96 1.54.76 1.59-1.8-.35-1.36 1.22-.16-1.76-1.6-.84 1.7-.72Z"/>
    <path fill="#085a9c" d="m57.84 182.4-3.86-3.95-1.02 5.44-5.24 2.39 5.07 2.47.63 5.44 4.16-3.91 5.61.94-2.5-4.88 2.84-4.88-5.69.94Z"/>
    <path fill="#085a9c" d="m86.14 174.26 1.3-3.35-3.48.85-2.82-2.46-.11 3.66-3.05 1.83 3.42 1.42.95 3.57 2.22-2.78 3.65.37-2.08-3.11Z"/>
    <path fill="#085a9c" d="m65.36 169.05-2.74.16 1.7 2.15-.81 2.74 2.58-1.09 2.24 1.53-.11-2.83 2.17-1.79-2.63-.65-.91-2.65-1.49 2.43Z"/>
    <path fill="#085a9c" d="m102.77 159.85-1.64-5.27-3.38 4.37-5.76-.26 3.39 4.51-1.92 5.13 5.49-1.58 4.56 3.39v-5.48l4.75-3.05-5.49-1.76Z"/>
  </g>
</svg>
