<svg xmlns="http://www.w3.org/2000/svg" viewBox="0 0 243.74 67.28">
  <defs>
    <clipPath id="clippath">
      <path fill="none" d="M0 .72 243.55 0l.2 66.56L.2 67.28z"/>
    </clipPath>
  </defs>
  <g clip-path="url(#clippath)">
    <g fill="#fff">
      <path d="M81.03 59.65v2.66c.01 2.21 1.38 3.37 3.02 3.36.88 0 1.71-.37 2.34-1.1l1.02 1.01a4.63 4.63 0 0 1-3.35 1.45c-2.44 0-4.44-1.68-4.45-4.72v-2.66c-.02-3.04 1.97-4.74 4.41-4.74 1.26 0 2.46.51 3.36 1.43l-1.01 1.02a3.04 3.04 0 0 0-2.34-1.09c-1.64 0-3 1.17-2.99 3.38"/>
      <path d="M98.48 58.85h3.42v4.21c.01 2.52-1.57 3.91-3.56 3.91s-3.59-1.37-3.6-3.89v-.32c0-2.51 1.68-3.91 3.74-3.91m-2.36 4.22c0 1.69.97 2.6 2.21 2.6s2.21-.92 2.2-2.61v-2.92h-2.05c-1.29 0-2.37.92-2.36 2.61v.32Z"/>
      <path d="m110.8 65.18-.03-9.44h1.38l.02 9.29.54 1.66h-1.39l-.52-1.51z"/>
      <path d="M122.84 57.02h-1.48v-1.47h1.48v1.47Zm-1.42 1.76h1.38l.02 7.88h-1.38l-.02-7.88Z"/>
      <path d="M133.22 58.74h3v1.29h-3l.02 6.6h-1.38l-.02-8.05c0-2.51 1.58-3.9 3.57-3.91.61 0 1.19.13 1.76.44l-.63 1.2c-.4-.21-.76-.35-1.13-.35-1.26 0-2.2.92-2.2 2.61v.17h.01Z"/>
      <path d="M143.54 62.38c0-2.51 1.68-3.9 3.74-3.91s3.76 1.38 3.76 3.89v.55c0 2.51-1.68 3.91-3.74 3.91s-3.75-1.38-3.76-3.89v-.55Zm1.38.55c0 1.69 1.1 2.6 2.38 2.6s2.37-.92 2.37-2.61v-.55c0-1.69-1.11-2.6-2.38-2.6s-2.37.92-2.36 2.61v.55Z"/>
      <path d="M163.83 58.65v1.29h-1.36c-1.24 0-2.04.9-2.03 2.61v3.98h-1.38v-3.98c-.02-2.61 1.42-3.9 3.41-3.91h1.36Z"/>
      <path d="M173.43 66.51h-1.38V62.3c0-2.51 1.5-3.91 3.48-3.91s3.51 1.39 3.51 3.89v4.22h-1.37v-4.22c-.02-1.69-.88-2.6-2.15-2.6s-2.12.92-2.12 2.61v4.22h.03Z"/>
      <path d="M189.07 56.82h-1.48v-1.47h1.48v1.47Zm-1.42 1.76h1.38l.02 7.88h-1.38l-.02-7.88Z"/>
      <path d="M200.61 58.55h3.42v4.21c0 2.52-1.57 3.91-3.56 3.91s-3.59-1.37-3.6-3.89v-.32c0-2.51 1.68-3.9 3.74-3.91m-2.36 4.22c0 1.69.97 2.6 2.21 2.6s2.21-.92 2.2-2.61v-2.92h-2.05c-1.3 0-2.37.92-2.37 2.61v.32Z"/>
      <path d="m38.41 27.88-3.27-.38-2.11-2.52 1.47-1.23 1.62 1.93 2.51.29-.22 1.91z"/>
      <path d="M14.3 48.52c2.03-.1 4.17-2.11 5.45-5.11.39-.92.72-1.98.89-2.9l.05-.29-.28-.1a15.38 15.38 0 0 0-4.42-.72c-2.63 0-4.75.88-5.66 2.33-.11.18-.16.76-.17.96v.13l-.45 3.83 3.67 1.55c.19.09.69.32.91.32h.01Z"/>
      <path d="M15.95 28.5a15.4 15.4 0 0 0 4.43-.75l.28-.1a15.68 15.68 0 0 0-.96-3.18c-1.3-2.99-3.45-4.98-5.48-5.07-.23 0-.73.24-.92.32l-.12.06-3.55 1.52.48 3.96c.01.2.07.78.17.96.93 1.44 3.05 2.3 5.67 2.29"/>
      <path d="M49.1 48.41c.22 0 .73-.24.91-.33l.11-.05 3.55-1.52-.47-3.96c-.02-.19-.07-.78-.18-.96-1.09-1.7-3.9-2.59-7.14-2.21-1 .12-2.08.36-2.96.66l-.27.1.05.28c.18.92.51 1.98.91 2.9 1.29 2.99 3.44 4.98 5.48 5.08h.01Z"/>
      <path d="M49.93 19.6a3.29 3.29 0 0 0-.91-.32c-2.05.1-4.19 2.1-5.46 5.1-.39.9-.72 1.98-.9 2.9l-.05.29.32.12c.85.28 1.93.52 2.92.63 3.26.36 6.05-.53 7.13-2.24.11-.18.16-.76.17-.96v-.13l.45-3.83-3.67-1.55Z"/>
      <path d="M35.65 56.22c.93-1.81.27-4.67-1.68-7.28-.6-.8-1.35-1.61-2.05-2.23l-.23-.19-.22.19a15.2 15.2 0 0 0-2.05 2.24c-1.94 2.62-2.58 5.49-1.63 7.29.1.19.59.53.75.64l.1.07 3.1 2.3 3.18-2.39c.16-.11.65-.45.74-.64"/>
      <path d="M33.88 18.87c1.94-2.62 2.58-5.48 1.63-7.29-.09-.18-.58-.52-.73-.63l-.11-.08-3.09-2.3-3.2 2.41a3.1 3.1 0 0 0-.72.63c-.93 1.81-.27 4.67 1.68 7.28a15.25 15.25 0 0 0 2.28 2.41l.24-.19c.69-.61 1.43-1.43 2.03-2.24"/>
      <path d="M27.38 23.08a22.98 22.98 0 0 0 3.35 3.34l.26 2.7h1.28l.24-2.71a23.01 23.01 0 0 0 3.33-3.36c3.14-3.89 4.16-7.73 3.86-10.66a2.7 2.7 0 0 1-.71-.3l-2.38-1.76.07.11c1.53 2.34.91 6.04-1.58 9.4a14.94 14.94 0 0 1-3.18 3.22l-.32.21-.31-.21a15.03 15.03 0 0 1-3.2-3.19c-2.51-3.35-3.15-7.04-1.63-9.39l.07-.11-2.37 1.77c-.24.14-.48.24-.71.31-.28 2.94.77 6.77 3.93 10.64"/>
      <path d="M41.74 31.84c-.63-.14-1.26-.3-1.87-.49l-.93 2.55 1.07 2.46c.61-.19 1.24-.36 1.87-.5L41 33.84l.73-2h.01Z"/>
      <path d="m38.1 39.94-2.92.35-1.62 1.96c.47.43.93.88 1.37 1.36l1.24-1.5 2.44-.29c-.2-.62-.37-1.25-.52-1.87"/>
      <path d="M28.43 43.63c.44-.48.89-.94 1.36-1.37l-1.63-1.95-2.92-.34c-.14.63-.31 1.25-.51 1.88l2.44.28 1.25 1.5Z"/>
      <path d="M21.57 35.96c.63.14 1.26.3 1.86.49l.93-2.53-1.07-2.48c-.61.19-1.24.36-1.88.5l.88 2.04-.73 1.98Z"/>
      <path d="m28.38 24.21-1.24 1.5-2.42.29c.2.62.37 1.25.52 1.87l2.9-.35 1.62-1.96c-.47-.43-.93-.88-1.37-1.36"/>
      <path d="M59.46 28.56h-.02a1.04 1.04 0 0 1-.66-.96v-.08l1.11-8.7c.1-.78-.42-1.66-1.16-1.95l-8.09-3.17-.04-.02a1 1 0 0 1-.46-1.06 5.67 5.67 0 0 0-9.1-5.4c-.32.25-.78.29-1.16.07l-7.2-5.67a1.9 1.9 0 0 0-2.22.03L23.3 7.34c-.37.23-.83.19-1.16-.06a5.6 5.6 0 0 0-6.44-.44 5.58 5.58 0 0 0-2.62 5.89c.08.4-.09.83-.46 1.06l-8.11 3.24a1.95 1.95 0 0 0-1.15 1.96l1.16 8.7v.08c0 .44-.27.81-.66.96a5.56 5.56 0 0 0-3.72 5.21v.14a5.55 5.55 0 0 0 3.75 5.18c.39.15.66.52.67.96v.08l-1.12 8.76c-.07.75.41 1.56 1.09 1.87l8.16 3.2.04.02c.37.23.54.65.47 1.06a5.58 5.58 0 0 0 2.66 5.87 5.7 5.7 0 0 0 6.45-.46 1 1 0 0 1 1.16-.07l7.21 5.67c.62.46 1.61.45 2.22-.03l7.15-5.69a1 1 0 0 1 1.16.06 5.62 5.62 0 0 0 9.07-5.46c-.08-.4.09-.83.46-1.06l.04-.02 8.13-3.25A1.94 1.94 0 0 0 60 48.86l-1.16-8.72v-.08c0-.44.27-.81.65-.96h.02a5.56 5.56 0 0 0 3.72-5.21v-.14a5.52 5.52 0 0 0-3.75-5.18m-4.11 18.94L46.93 51c-1.37.82-1.48 2.31-1.26 3.56l-6.04-8.06-1.05.63 4.12 8.98c-.99-.73-2.27-1.23-3.57-.45l-7.39 5.53h-.02l-7.43-5.49c-1.31-.78-2.59-.26-3.57.47l4.08-9.01-1.06-.63-6 8.11c.21-1.26.11-2.76-1.27-3.58l-8.46-3.44 1.07-9.21c-.02-1.64-1.33-2.48-2.55-2.91l10.2-.99v-1.25l-9.59-1.1c1.01-.49 1.91-1.3 1.92-2.67l-1.13-9.21 8.44-3.49c1.38-.83 1.47-2.32 1.25-3.58l6.04 8.09 1.09-.66-4.14-8.97c.99.72 2.27 1.22 3.57.44l7.39-5.53h.02l7.43 5.49c1.3.77 2.58.26 3.57-.46l-4.09 9.01 1.06.63 6.01-8.11c-.21 1.27-.11 2.76 1.28 3.58l8.46 3.44-1.07 9.21c.02 1.37.92 2.18 1.93 2.66l-9.59 1.17.02 1.24 10.22.92h.02c-1.24.44-2.56 1.28-2.57 2.94l1.13 9.21h-.04Z"/>
      <path d="m16.37 16.82-2.39.99c2.74-.05 5.54 2.31 7.18 6.08.64 1.46 1.1 3.17 1.19 4.36l.03.38-.34.17c-1.02.51-2.77.98-4.38 1.17-4.16.49-7.67-.8-8.94-3.3l.35 2.85c0 .28-.04.54-.11.77 2.41 1.69 6.23 2.69 11.13 1.91 1.59-.25 3.14-.67 4.57-1.22l2.47 1.13.64-1.11-2.22-1.57a22.48 22.48 0 0 0-1.24-4.57c-1.77-4.62-4.55-7.42-7.21-8.66-.19.23-.42.44-.72.62"/>
      <path d="M24.35 42.98a22.6 22.6 0 0 0 1.2-4.58l2.21-1.58-.65-1.11-2.46 1.15a23.51 23.51 0 0 0-4.58-1.2c-4.9-.75-8.72.28-11.11 1.98.08.24.12.5.12.78l-.33 2.84c1.26-2.5 4.75-3.81 8.91-3.36 1.59.18 3.3.62 4.37 1.13l.34.16-.02.39a14.42 14.42 0 0 1-1.15 4.37c-1.61 3.79-4.4 6.17-7.16 6.13l2.42.98c.29.17.53.38.72.61 2.66-1.25 5.42-4.08 7.16-8.71"/>
      <path d="M35.92 44.74a22.56 22.56 0 0 0-3.36-3.34l-.26-2.7h-1.28l-.24 2.71a23.01 23.01 0 0 0-3.33 3.36c-3.13 3.88-4.15 7.72-3.86 10.66.23.06.47.16.71.3l2.38 1.76-.07-.11c-1.53-2.34-.91-6.03 1.58-9.4.95-1.28 2.2-2.54 3.18-3.21l.31-.22.32.21c.95.62 2.24 1.9 3.2 3.2 2.51 3.36 3.15 7.04 1.64 9.39l-.07.11 2.37-1.77c.24-.14.48-.24.71-.31.27-2.94-.77-6.77-3.92-10.64"/>
      <path d="m46.94 51 2.41-1c-2.75.06-5.56-2.31-7.19-6.09a14.56 14.56 0 0 1-1.18-4.37l-.02-.38.34-.16c1.07-.52 2.78-.97 4.37-1.16 4.15-.48 7.65.81 8.93 3.3l-.35-2.83c0-.29.05-.55.12-.78-2.4-1.69-6.22-2.7-11.12-1.92-1.59.26-3.14.67-4.58 1.22l-2.46-1.14-.64 1.11 2.22 1.57c.24 1.51.65 3.07 1.23 4.57 1.77 4.63 4.55 7.43 7.22 8.67.19-.23.42-.43.71-.61"/>
      <path d="M38.95 24.81c-.57 1.5-.98 3.06-1.21 4.58l-2.21 1.58.65 1.11 2.46-1.15c1.43.54 2.99.95 4.58 1.2 4.91.76 8.73-.27 11.12-1.97a3.1 3.1 0 0 1-.12-.77l.33-2.86c-1.26 2.51-4.76 3.83-8.92 3.36-1.6-.18-3.37-.64-4.38-1.14l-.34-.17.03-.38c.08-1.19.53-2.9 1.16-4.37 1.61-3.78 4.4-6.15 7.14-6.12l-2.39-.97a2.6 2.6 0 0 1-.72-.62c-2.66 1.25-5.42 4.07-7.16 8.7"/>
      <path d="M241.73 18.48h-4.25a1.89 1.89 0 0 0-1.86 1.89l.26 13.85c0 .38.02 1.27-.06 2.04s-.23 1.41-.32 1.63c-.93 2.38-2.76 3.41-5.09 3.42-5.67.02-6.53-3.65-6.55-8.45v-7.42c0-4.49-1.69-6.89-6.1-6.88h-2.18c-1.81.01-2.18.47-2.17 1.99v1.95c.02 1.2.5 1.43 1.18 1.43h.6c.59 0 .85.47.86 2.75l.02 7.7c.03 9.14 6.84 13.2 12.54 13.18 3.18 0 6.21-1.66 7.57-3.12.02.91 0 3.02 0 3.7.03 5.33-.23 12.16-8.78 11.45-2.11-.18-3.95-1.44-5.24-2.57-.59-.52-1.42-.66-2.08-.22l-2.76 1.82c-.78.51-.93 1.54-.43 2.33 1.69 2.7 5.98 5.22 10.69 5.6 12.45 1.02 16.18-7.88 16.1-19.68l-.08-26.5c0-1.03-.85-1.87-1.87-1.87"/>
      <path d="M181.86 36.32c-5.23.64-7.78 4.95-11.43 6.07-2.05.63-5.93.93-9.39-1.64a8.22 8.22 0 0 1-3.11-6.63c0-4.62 3.52-8.39 7.88-8.41 2.02 0 3.94.8 5.42 2.26l.78.77c.44.31.98.25 1.36-.18l3.51-4.12c.39-.5.36-1.05-.13-1.48l-.52-.5a15.26 15.26 0 0 0-10.64-4.28c-8.56.03-15.54 7.18-15.47 15.95a17.03 17.03 0 0 0 3.54 10.25c2.83 3.56 7.91 5.63 13.01 5.61 7.94-.02 11.53-5.88 15.43-7a.63.63 0 0 0 .46-.59l-.02-5.47a.61.61 0 0 0-.68-.61"/>
      <path d="M150.47 43.14a1.14 1.14 0 0 0-1.61-.3c-.77.53-2.06 1.34-3.41 1.34-2.82 0-2.83-2.49-2.84-6.32l-.05-17.02c0-1.03-.85-1.88-1.88-1.87h-4.25c-1.03 0-1.87.84-1.86 1.87v2.52l.04 12.39c0 4.26-2.1 7.09-6.07 7.1-4.83 0-6.12-2.82-6.13-7.62l-.02-9.31c-.01-4.49-1.7-6.89-6.1-6.88h-3.87c-1.81.02-2.18.48-2.17 1.99v1.98c.02 1.2.5 1.43 1.18 1.43h1.19c1.59-.03 1.96.39 1.96 2.91l.02 9.9c.03 9.14 6.6 12.87 13.11 12.85 4.32 0 8.01-2.94 9.21-5.17 1.26 3.58 5.13 4.64 8.35 4.63 1.72 0 3.31-.52 4.69-1.23.72-.37 1.41-.99 1.85-1.35.45-.37.88-1.13.39-1.81l-1.72-2.03Z"/>
      <path d="m201.13 30.05 4.29-3.95c1.06-1.07 1.98-1.95 3.66-1.96h.31c.77 0 1.4-.63 1.39-1.4v-2.13c0-1.25-.62-2.05-2.01-2.04h-2.11c-2.13.01-3.61.52-6.24 2.75-.58.49-4.79 4.53-8.09 7.7l-.06-21.92c0-3.47-2.43-6.93-6.48-6.92h-4.49c-1.38.02-1.87.41-1.87 1.63l.02 3.22c0 .57.32.92.76.91h1.78c1.69-.01 2.28.56 2.29 2.72l.12 38.86c0 1.03.85 1.87 1.87 1.86h4.26a1.9 1.9 0 0 0 1.86-1.9l-.03-9.2c.78-.87 1.58-1.69 2.27-2.32l.51-.41c.45-.36 1.1-.3 1.48.18l7.96 12.44c.61.87 1.47 1.12 2.7 1.12h4.11c1.25 0 1.63-.76 1.1-1.57l-11.36-17.67Z"/>
      <path d="m110.6 34.13-3.56.02c-1.01 0-1.86.51-1.86 1.85v.69c.01 4.18.65 5.5-2.41 5.51l-14.34.04c-1.23-.03-1.74-.67-1.75-1.84l-.1-32.75c0-3.15.39-6.04-3.08-6.03l-7.07.02c-2.77 0-8.19 2.73-8.17 9.34.02 5.16 2.9 8.04 5.83 8.94 2.82.87 4.55.02 4.55.02l.08 25.64a3.99 3.99 0 0 0 4.03 4.01l22.78-.05a6.81 6.81 0 0 0 7.1-6.98l.02-6.52c0-1.41-1-1.92-2.04-1.91M78.62 14.22s-.29.61-2.02.51c-1.01-.06-2.55-1.07-2.43-3.45.12-2.32 1.28-3.41 4.45-3.22v6.15Z"/>
    </g>
  </g>
</svg>
