<svg xmlns="http://www.w3.org/2000/svg" viewBox="0 0 700 1300">

<style>
/* <![CDATA[ */

#body-shape {
  pointer-events: none;
}

.msl:hover, .msl.active {
  fill: #744fc9;
  stroke: #c600ff;
  stroke-width: 4px;
  cursor: pointer;
  opacity: 1;
}

.msl.semi {
  opacity: .5;
}

.msl.semi:hover {
  opacity: 1;
}

text {
  font-family: sans-serif;
  font-size: 24px;
  text-transform: capitalize;
}

/* ]]> */
</style>

<path id="body-shape" fill="none" stroke="#000" stroke-miterlimit="10" d="M370.706 7.883c6.61 1.677 23.351 7.944 34.665 25.758 11.255 17.721 11.074 41.165 9.388 62.108 1.685 0 9.388 2.889 8.666 6.259s-7.944 22.388-9.629 25.758c-1.685 3.37-3.611 3.37-3.611 3.37s-2.407 16.129-2.407 21.184-9.148 9.629-9.148 9.629v16.37c4.092 7.463 33.676 21.082 44.269 28.063 10.592 6.981 40.041 31.201 62.867 29.359 31.395-2.534 51.657 16.645 62.581 30.983 16.139 21.183 17.25 64.19 13.183 73.479.45 4.552 22.959 34.438 16.988 98.813 35.465 47.429 24.509 92.861 26.29 126.948.304 5.828 1.019 22.938 10.971 29.219 2.857 1.803 13.459 1.068 20.082 7.477s20.402 24.261 25.102 26.611c4.7 2.35 15.169 6.623 8.118 14.1-7.05 7.477-25.514-3.579-37.956-11.827 2.516 2.656 6.85 12.862 8.388 20.271.656 3.16 17.28 37.377 19.936 47.163s-9.171 10.855-11.827 6.381c-2.656-4.474-22.368-45.296-22.368-45.296s19.816 44.334 23.487 52.286c5.033 10.905-7.744 13.828-12.497 6.418-2.062-3.214-22.928-48.791-22.928-48.791s16.636 38.166 19.712 45.296c3.076 7.13-7.702 12.302-12.315 4.193-2.566-4.511-19.983-42.518-19.983-42.518s8.435 19.216 10.271 25.027c1.835 5.811-1.428 8.188-4.54 9.442-3.653 1.472-7.234-1.653-17.633-25.51-10.399-23.857-12.582-32.574-14.788-46.367-2.027-12.678 2.021-32.187-2.873-40.445-4.894-8.258-22.263-36.768-37.186-53.987-29.47-34.004-18.639-53.787-23.533-84.373-8.564-16.822-25.494-22.06-30.693-49.588-4.341 24.6-15.195 50.473-30.388 59.329-7.932 4.623-4.732 39.384-2.909 45.583 1.823 6.199-5.466 30.187-4.327 41.963s28.941 20.259 16.644 63.547c15.915 22.552 13.039 63.379 13.799 85.792s23.821 73.506 11.922 114.848c-5.889 20.46-19.935 52.716-41.195 68.379-9.501 7-12.218 24.313-10.698 31.91s18.877 51.284 20.396 60.401 2.279 41.407-8.737 69.139-35.123 95.694-38.818 115.647c-3.695 19.953-.71 41.876-.71 41.876s4.68 6.897 4.68 13.055c0 6.158-1.724 12.809 3.941 19.214 5.666 6.405 10.592 14.533 13.302 21.923s11.331 14.041 16.011 16.75c4.68 2.71.985 13.794-5.419 13.794h-72.7c-8.868 0-12.809-4.188-14.78-11.578s9.232-27.589 10.217-34.979 2.463-15.272 2.463-15.272c-1.266-2.571-2.022-13.163-.617-17.27 1.405-4.107 1.945-10.052 1.837-14.807-.108-4.756-1.286-62.158-3.95-73.633-2.664-11.474-19.835-49.674-19.835-73.969 0-57.174 12.122-69.564 15.196-83.497 3.073-13.933.327-26.842.737-31.76.41-4.918-6.517-13.728-6.517-22.744s-.82-27.866-2.869-39.136c-2.049-11.269-7.991-42.824-9.221-63.314-1.229-20.49-7.212-28.513-7.212-28.513s-5.982 8.023-7.212 28.513c-1.229 20.49-7.172 52.045-9.221 63.314-2.049 11.27-2.869 30.12-2.869 39.136 0 9.016-6.927 17.826-6.517 22.744.41 4.918-2.336 17.826.737 31.76 3.074 13.933 15.196 26.323 15.196 83.497 0 24.295-17.172 62.495-19.835 73.969-2.664 11.474-3.842 68.877-3.95 73.633-.108 4.755.432 10.7 1.837 14.807 1.405 4.107.648 14.699-.617 17.27 0 0 1.478 7.882 2.463 15.272s12.188 27.589 10.217 34.979-5.912 11.578-14.78 11.578h-72.7c-6.405 0-10.1-11.085-5.419-13.794s13.302-9.36 16.011-16.75c2.71-7.39 7.636-15.519 13.302-21.923 5.666-6.405 3.941-13.055 3.941-19.214 0-6.158 4.68-13.055 4.68-13.055s2.985-21.923-.71-41.876-27.801-87.916-38.818-115.647-10.257-60.021-8.737-69.139 18.877-52.804 20.396-60.401-1.197-24.91-10.698-31.91c-21.26-15.663-35.306-47.919-41.195-68.379-11.9-41.342 11.162-92.435 11.922-114.848s-2.116-63.24 13.799-85.792c-12.297-43.288 15.504-51.771 16.644-63.547s-4.223-22.028-3.796-39.976c.531-22.309 4.493-42.947-3.439-47.57-15.193-8.855-26.047-34.729-30.388-59.329-5.2 27.527-22.129 32.765-30.693 49.588-4.894 30.586 5.938 50.369-23.533 84.373-14.923 17.219-32.292 45.729-37.186 53.987-4.894 8.258-.846 27.767-2.873 40.445-2.205 13.793-4.388 22.51-14.788 46.367-10.399 23.857-13.98 26.982-17.633 25.51-3.113-1.254-6.376-3.631-4.54-9.442s10.271-25.027 10.271-25.027-17.417 38.007-19.983 42.518c-4.613 8.109-15.391 2.937-12.315-4.193 3.076-7.13 19.712-45.296 19.712-45.296s-20.866 45.577-22.928 48.791c-4.753 7.409-17.53 4.486-12.497-6.418 3.67-7.952 23.487-52.286 23.487-52.286s-19.712 40.822-22.368 45.296c-2.656 4.474-14.484 3.405-11.827-6.381s19.28-44.003 19.936-47.163c1.538-7.409 5.872-17.615 8.388-20.271-12.442 8.248-30.906 19.305-37.956 11.827-7.05-7.477 3.418-11.75 8.118-14.1s18.48-20.202 25.102-26.611 17.226-5.674 20.082-7.477c9.952-6.281 10.667-23.392 10.971-29.219 1.781-34.086-9.175-79.519 26.29-126.948-5.971-64.375 16.538-94.261 16.988-98.813-4.068-9.289-2.956-52.296 13.183-73.479 10.924-14.338 31.186-33.517 62.581-30.983 22.825 1.842 52.275-22.378 62.867-29.359 10.592-6.981 40.176-20.6 44.269-28.063v-16.37s-9.148-4.574-9.148-9.629-2.407-21.184-2.407-21.184-1.926 0-3.611-3.37c-1.685-3.37-8.907-22.388-9.629-25.758s6.981-6.259 8.666-6.259c-1.685-20.943-1.867-44.387 9.388-62.108 11.314-17.814 28.055-24.083 34.665-25.758 11.483-2.91 29.945-2.91 41.415 0z"/>
<g id="left-foot" fill="#CCC">
<path d="M300.91 1267.213c5.189 0 9.296 8.944 10.593 13.229 1.297 4.286.649 9.689-3.675 9.689h-8.864c-1.946 0-4.972-2.236-3.891-10.435 1.081-8.197 2.595-12.483 5.837-12.483z"/>
<path d="M274.536 1249.512s14.052 7.826 16.646 11.366c2.594 3.54 3.027 8.944.865 17.142-2.162 8.198-4.54 12.298-4.54 12.298s-20.613 1.167-37.617-2.05c-8.864-1.677 0-10.248 3.675-14.347s20.971-24.409 20.971-24.409z"/>
<path d="M314.746 1274.853s-13.62-16.77-21.835-23.105c-8.215-6.335-15.133-9.689-15.566-12.298-.432-2.609 3.027-8.012 4.324-14.534 1.297-6.521 0-23.478 5.405-23.478s15.998 10.248 22.7 24.409c6.702 14.162 7.567 24.783 4.972 49.006z"/>
<path d="M311.936 1220.817s-9.512-17.888-14.701-24.223-8.648-10.248-5.621-14.347c3.027-4.099 7.783-.932 9.296 0 1.513.932 10.809 6.708 10.809 11.18s.217 27.39.217 27.39z"/>
</g>
<g id="left-knee" fill="#CCC">
<path d="M298.884 985.163s-3.567-27.636 1.646-40.893c5.213-13.256 11.524-28.535 13.17-36.399 1.646-7.864 2.744-22.019 2.744-22.019s4.939 13.032 4.664 28.086c-.274 15.054-7.683 37.522-12.073 46.285-4.389 8.763-9.876 16.402-10.151 24.94z"/>
<path d="M293.945 928.543c-2.195 0-12.621-19.548-15.091-26.738-2.469-7.19-1.646-14.38 11.524-14.38s16.188 2.921 15.365 10.336c-.822 7.414-7.408 30.782-11.798 30.782z"/>
<path d="M282.421 935.508s-13.17-6.291-18.658-8.763c-5.488-2.472-6.036-9.437-6.311-13.481-.274-4.044-6.311-38.646-6.036-45.162 6.036 13.706 15.64 33.253 20.304 40.219 4.665 6.965 10.701 21.12 10.701 27.187z"/>
</g>
<path class="msl" id="left-vastus-lateralis" fill="#B4A7C7" d="M241.869 871.527c-15.817 12.755-29.896-22.118-34.724-34.045-10.175-25.139-12.833-44.587-6.093-75.65 3.999-18.43 6.5-29.807 9.042-38.712.875-3.065 5.259-2.934 5.973.172 10.619 46.188 28.876 72.275 31.387 78.735 2.708 6.965 14.588 23.341 13.479 38.314-.647 8.739-12.93 26.239-19.064 31.186z"/>
<path class="msl" id="left-rectus-femoris" fill="#7EACD8" d="M266.643 822.574c-6.98-4.442-29.932-57.928-34.264-69.162-4.332-11.234-23.882-50.26-8.235-75.789 11.955-19.506 15.962-26.775 23.685-49.43 6.519-19.122 7.799-20.056 13.847 3.383 5.034 19.506 18.565 50.978 23.226 64.069 8.846 24.846 12.169 48.204 11.776 69.552-.847 45.956-27.659 58.889-30.035 57.377z"/>
<path class="msl" id="left-vastus-medialis" fill="#644899" d="M312.329 880.315c-12.69 3.807-48.587-6.428-46.32-26.65 2.268-20.222 23.945-39.311 27.284-45.685 5.494-10.488 12.69-32.36 7.665-69.486-.457-3.379 4.704-4.288 5.911-1.099 6.748 17.828 16.686 40.69 19.419 52.184 3.685 15.503 6.912 21.775 6.345 39.974-.567 18.2-5.369 46.282-20.304 50.762z"/>
<path class="msl" id="left-sartorius" fill="#388BC0" d="M335.171 797.828s-16.291-52.492-32.868-83.635c-11.479-21.567-55.403-129.922-41.255-141.135 8.09 20.05 21.874 44.598 32.118 61.612 10.245 17.014 25.419 52.059 36.173 82.77 19.488 55.648 14.133 79.059 5.832 80.388z"/>
<g class="msl" id="left-external-oblique" fill="#99005A">
<path d="M253.205 560.344c-5.541-2.281-8.09-5.176-9.782-9.278-3.839-9.308-5.347-27.643-5.347-35.461 0-7.818-1.193-40.86 7.798-38.515s31.068 22.116 31.068 25.712 3.597 36.589 3.956 42.53c.36 5.942 3.646 22.963 2.208 25.152-1.439 2.191-12.102-2.812-29.901-10.14z"/>
<path d="M242.508 431.408c8.637 9.013 26.066 21.507 31.211 23.066 5.145 1.559 5.06 10.328 5.317 13.891s0 10.02 0 13.805-5.403 3.34-9.004 1.559c-3.602-1.781-27.449-14.637-28.992-21.317-1.543-6.681-4.852-37.599 1.468-31.004z"/>
<path d="M275.388 446.606c-3.869-.178-28.638-14.607-31.869-22.4-3.232-7.793-8.517-29.252 2.391-19.837 7.229 6.239 30.124 16.186 31.417 19.749s2.909 22.711-1.939 22.488z"/>
<path d="M275.168 415.754c-4.473-1.243-20.818-8.847-29.383-19.239s-4.966-18.777.635-17.622c5.6 1.155 34.665 12.697 35.983 17.316s1.228 21.897-7.235 19.545z"/>
</g>
<path class="msl" id="left-latissimus-dorsi" fill="#AA759B" d="M201.864 399.603c1.197.898 5.262-25.268 6.602-17.606 1.341 7.661 23.273 80.628 21.274 79.961-17.606-5.869-28.642-62.93-27.876-62.355z"/>
<path class="msl" id="left-stemocleidomastoid" fill="#912836" d="M318.477 178.402c2.496 4.743 25.211 47.428 25.96 50.423.749 2.995 2.038 19.688.54 19.938s-15.944-2.822-17.441-6.067-22.543-77.763-23.292-80.009c-.749-2.247 11.737 10.972 14.233 15.715z"/>
<path class="msl" id="left-omohyoid" fill="#DECB71" d="M314.206 218.769c2.399.8 7.177 13.966 5.237 15.712-1.94 1.746-13.578 1.746-13.772-2.328s6.79-13.966 8.535-13.384z"/>
<path class="msl" id="left-trapezius" fill="#BB7B63" d="M282.976 230.602c-3.298 0-48.642 1.569-48.642-1.341s24.57-19.173 32.135-23.247c7.565-4.074 34.788-21.758 36.921-18.461 2.134 3.298 4.997 21.711.147 27.142-3.937 4.411-15.905 15.907-20.561 15.907z"/>
<path class="msl" id="left-deltoid-middle-head" fill="#EBBF84" d="M209.011 242.579s-28.892 16.962-45.56 39.377c-11.48 15.437-25.57 39.428-31.114 54.824-18.249-5.86-9.735-35.344-.989-57.067 10.001-24.837 44.302-47.179 77.663-37.134z"/>
<path class="msl" id="left-deltoid-anterior-head" fill="#EBBF84" d="M138.088 337.281s11.011-34.969 41.014-66.774c20.781-22.029 37.339-25.368 53.004-31.828 7.755-3.198 16.916 4.735 12.98 12.143-6.417 12.079-28.831 35.637-35.154 46.733-17.955 31.51-48.878 42.755-71.844 39.726z"/>
<path class="msl" id="left-brachioradialis" fill="#E2713B" d="M79.129 580.81c-2.121-.53.493-13.195 2.586-21.919 3.104-12.932-2.966-52.176 2.586-72.939 5.553-20.763 15.019-48.091 38.197-57.506 9.329 11.923 12.296 33.807 7.262 55.921-4.449 19.542-14.966 35.69-21.485 44.623s-15.151 46.898-17.807 52.692c-2.655 5.794-9.407-.39-11.339-.872z"/>
<path class="msl" id="left-flexor-carpi-radialis" fill="#93591E" d="M98.458 588.118c-1.43-1.022 2.827-39.4 19.245-62.094s21.082-63.615 25.213-57.004c6.154 9.846 4.715 38.257-7.126 57.004-13.155 20.828-35.642 63.301-37.332 62.094z"/>
<path class="msl" id="left-palmus-longus" fill="#88A638" d="M111.673 580.835c-1.004-3.563 10.949-27.589 23.021-41.109 12.072-13.52 15.265-42.637 17.921-48.19 2.656-5.553 15.455 11.081 8.937 22.428-6.519 11.347-5.692 14.044-26.31 37.82-15.372 17.727-23.029 30.967-23.569 29.051z"/>
<path class="msl" id="left-pronator-teres" fill="#AD2466" d="M168.808 455.4c.608 1.507 1.026 3.825-1.97 12.214s.788 13.002-6.304 14.184c-4.554.759-16.865-9.401-8.668-19.306 9.456-11.426 16.177-8.989 16.942-7.092z"/>
<g id="left-palm" fill="#CCC">
<path d="M21.166 641.779c-5.023-.008-10.701-3.931-7.207-5.897s26.928-19.238 32.318-24.555c6.388-6.301 15.25-9.518 17.87-9.082 2.621.437 6.593 7.867 2.443 12.016-4.149 4.15-35.84 27.534-45.424 27.518z"/>
<path d="M53.558 649.53c-2.64-3.172 1.68-11.103 8.641-20.846s17.282-23.112 19.442-24.019c2.16-.906 10.093-.396 12.974.51 2.88.906 7.564 1.046 7.324 7.617-.24 6.571 2.265 19.064.105 28.127-2.16 9.064-7.921 25.378-12.962 30.816-5.041 5.438-12.241 1.133-16.322-2.492-1.837-1.633-4.327-6.413-7.441-9.517-3.801-3.788-8.368-6.12-11.761-10.196z"/>
<path d="M71.396 707.631c-1.306-.688-.549-7.142 2.564-14.65s8.973-17.58 10.255-15.565c1.282 2.014-.916 12.635-2.747 17.213-1.831 4.579-6.592 14.833-10.072 13.002z"/>
<path d="M53.743 717.044c-2.543-1.271-2.014-6.592-.549-9.522s11.72-28.933 13.551-32.779c1.831-3.846 3.479-4.761 4.944-2.93 1.465 1.831 2.747 5.494.183 12.635-2.564 7.142-9.156 23.622-11.537 28.017-2.38 4.396-4.76 5.494-6.592 4.579z"/>
<path d="M36.931 717.503c-2.73-1.403-1.774-9.429.876-15.358 2.651-5.93 15.846-34.297 18.015-37.681s3.774-2.396 4.822-1.249c1.048 1.147 4.059 3.483 1.774 9.429s-13.685 31.095-16.685 36.642c-2.999 5.546-4.502 10.427-8.802 8.217z"/>
<path d="M26.678 702.194c-1.839-.714-2.076-7.298.976-14.434 3.052-7.135 15.596-29.78 17.292-33.152 1.696-3.373 7.079-1.54 7.076 1.213-.003 2.753-1.163 6.345-2.689 9.913-1.526 3.568-11.741 24.351-13.852 28.429s-5.941 9.142-8.803 8.031z"/>
</g>
<path class="msl" id="left-sternohyoid" fill="#DECB71" d="M348.734 187.125c-1.512-.136-12.302-5.815-16.222-6.958-4.329-1.263.543 11.38 1.625 14.627.798 2.394 8.126 27.628 14.597 27.934v-35.603z"/>
<path class="msl" id="left-perctoralis-major" fill="#D37C3D" d="M235.759 332.381c17.378-4.442 27.991-8.526 44.031-18.431 18.645-11.514 40.148-20.962 62.528-20.76a664.905 664.905 0 00-.603-24.473c-.749-16.556-27.443-21.404-43.483-24.391-16.039-2.987-42.087.69-64.491 32.231-22.119 31.14-37.631 52.093-39.869 60.723 6.408.169 25.419-.689 41.887-4.899z"/>
<path class="msl" id="left-perctoralis-minor" fill="#D37C3D" d="M286.518 317.262c-14.541 7.732-29.578 15.727-47.585 20.33-14.559 3.722-21.077 2.923-28.156 3.07 16.097 12.747 58.176 56.994 96.404 44.312 23.021-7.637 36.738-13.597 36.738-18.824 0-3.437.338-35.478.236-62.976-21.059-.203-38.853 4.101-57.637 14.088z"/>
<path class="msl" id="left-peroneus-longus" fill="#537C45" d="M294.795 1172.412c-3.042 1.234-11.446-16.195-14.752-25.531-3.307-9.336-22.659-53.38-28.764-69.766s-15.158-38.436-16.618-44.442c-6.495-26.725-2.187-51.352-1.932-54.877s3.518 1.088 6.57 9.661 12.802 46.335 16.618 57.195c3.815 10.86 17.767 45.165 20.057 56.596 2.289 11.432 7.631 38.296 13.226 50.3 5.595 12.004 8.648 19.626 5.595 20.864z"/>
<path class="msl" id="left-soleus" fill="#A8AD0E" d="M301.656 1023.939c.024-.527.303-1.036.784-1.251 7.165-3.195 29.703 56.805 24.844 74.217-9.313 21.866-14.348 63.949-16.136 63.599-1.309-.256-6.287-33.724-7.24-44.012-.953-10.289-2.667-55.063-2.286-77.164.067-3.88-.135-11.622.034-15.389z"/>
<path class="msl" id="left-gastrocnemius" fill="#708A39" d="M305.19 1017.162c-1.03-.977-1.573-2.361-1.431-3.774 1.104-10.976 1.971-17.241 3.959-25.313 3.239-13.146 6.478-22.863 8.193-22.673 1.715.19 7.367 10.412 11.777 22.173 4.859 12.958 9.218 36.817 9.218 50.344 0 10.277.673 25.056-5.553 41.048-.493 1.266-2.143 1.326-2.351-.017-4.956-32.078-16.742-55.082-23.812-61.788z"/>
<path class="msl" id="left-tibialis-anterior" fill="#5EAA84" d="M269.058 1028.718c-13.205-33.667-18.145-60.56-16.032-75.187.203-1.403.974-4.806 1.824-3.616 7.577 10.62 21.529 45.505 25.563 62.042 4.833 19.815 9.54 53.411 11.575 69.987.369 3.002.717 6.139 1.068 9.353.177 1.622-2.964 1.995-3.453.41-7.429-24.092-16.302-52.172-20.545-62.989z"/>
<path class="msl" id="left-extensor-digitorum-longus" fill="#86AF79" d="M242.653 947.148c.47-3.197 2.385-3.16 4.262-1.36 1.9 1.821 4.202 4.026 3.392 6.237-2.423 6.608-1.312 17.746.322 26.946 2.764 15.555 6.965 31.38 15.722 53.315 6.028 15.1 31.556 98.721 32.977 103.111 4.324 13.355 8.711 28.67 10.729 35.625 2.798 9.645-5.85 10.202-7.122 5.75-1.148-4.02-15.715-35.892-18.42-53.282-1.719-11.049-12.61-52.048-17.391-62.606-9.275-20.482-11.98-29.757-16.231-44.442-2.646-9.141-8.39-27.099-9.661-37.486-1.272-10.387.658-26.614 1.421-31.808z"/>
<path id="left-ilium" fill="#CCC" d="M325.674 619.128c.923-1.15.706-2.653-.531-3.6-6.74-5.161-15.709-11.729-25.68-19.325-8.52-6.49-15.492-11.14-20.835-14.402-3.11-1.899-7.266.949-5.353 3.666 9.356 13.29 25.003 35.818 31.634 47.121 1.054 1.796 4.028 2.218 5.805.825 4.878-3.827 10.6-8.854 14.96-14.285z"/>
<path class="msl" id="left-pectineus" fill="#7A6A97" d="M326.995 622.999c-5.442 6.193-12.195 11.631-17.167 15.27-1.07.783-1.597 1.918-1.41 3.063 1.233 7.538 3.335 21.136 6.431 21.497 12.848 1.496 24.588-32.482 25.443-35.192.254-.805-3.728-2.676-6.301-4.97-1.914-1.707-5.349-1.541-6.996.332z"/>
<path class="msl" id="left-gluteus-medius" fill="#B42C46" d="M224.145 616.865s-4.634-20.081.515-31.409 16.477-24.2 16.477-24.2 3.604 5.664 2.06 11.328c-1.546 5.663-15.963 48.4-19.052 44.281z"/>
<path class="msl" id="left-tensor-fasciae-latae" fill="#3A417D" d="M244.741 587.515l8.238-6.694s-6.179 51.49-39.647 102.98c-2.06-20.081 4.361-44.475 7.723-50.975 7.724-14.932 21.626-41.191 23.686-45.311z"/>
<path class="msl" id="left-triceps-brachii-lateral-head" fill="#DE816A" d="M120.358 343.063s6.504 6.876 5.291 14.761-11.356 59.234-11.356 64.693-8.491 9.098-9.704 4.246c-1.213-4.852-1.213-49.128 15.769-83.7z"/>
<path class="msl" id="left-brachialis" fill="#E2713B" d="M119.145 423.124s9.915-64.208 12.947-75.731c3.033-11.524 13.158-2.091 10.125 2.761-3.033 4.852-14.735 43.875-15.341 69.956-3.032 3.639-7.731 3.014-7.731 3.014z"/>
<g class="msl" id="left-serratus-anterior" fill="#E6678D">
<path d="M219.213 405.44c.86-.66 11.63 9.502 14.02 10.794 2.39 1.293 2.35 8.566 2.47 11.52.12 2.955 0 8.31 0 11.449s-2.51 2.77-4.183 1.293-7.14-9.625-7.857-15.165c-.717-5.539-7.362-17.656-4.45-19.891z"/>
<path d="M233.012 409.076c-2.321-.147-17.176-12.114-19.115-18.578-1.938-6.463-4.187-19.038 1.434-16.452 5.621 2.585 18.068 13.424 18.843 16.379s1.745 18.836-1.162 18.651z"/>
<path d="M231.345 379.024c-3.235-1.031-15.059-7.337-21.254-15.956-6.196-8.619-3.592-15.573.459-14.615s24.438 18.206 25.392 22.037 1.525 10.485-4.597 8.534z"/>
<path d="M235.703 445.747s1.385 15.016-1.309 13.872c-2.694-1.144-5.197-10.275-5.496-12.563-.3-2.289-1.575-5.505 6.805-1.309z"/>
</g>
<g id="rightfoot" fill="#CCC">
<path d="M399.447 1267.213c-5.189 0-9.296 8.944-10.593 13.229-1.297 4.286-.649 9.689 3.675 9.689h8.864c1.946 0 4.972-2.236 3.891-10.435-1.081-8.197-2.594-12.483-5.837-12.483z"/>
<path d="M425.822 1249.512s-14.052 7.826-16.646 11.366c-2.594 3.54-3.027 8.944-.865 17.142 2.162 8.198 4.54 12.298 4.54 12.298s20.613 1.167 37.617-2.05c8.864-1.677 0-10.248-3.675-14.347s-20.971-24.409-20.971-24.409z"/>
<path d="M385.611 1274.853s13.62-16.77 21.835-23.105c8.215-6.335 15.133-9.689 15.566-12.298.432-2.609-3.027-8.012-4.324-14.534-1.297-6.521 0-23.478-5.405-23.478s-15.998 10.248-22.7 24.409c-6.702 14.162-7.566 24.783-4.972 49.006z"/>
<path d="M388.421 1220.817s9.512-17.888 14.701-24.223 8.648-10.248 5.621-14.347-7.783-.932-9.296 0-10.809 6.708-10.809 11.18-.217 27.39-.217 27.39z"/>
</g>
<g id="right-knee" fill="#CCC">
<path d="M401.473 985.163s3.567-27.636-1.646-40.893c-5.213-13.256-11.524-28.535-13.17-36.399-1.646-7.864-2.744-22.019-2.744-22.019s-4.939 13.032-4.664 28.086 7.683 37.522 12.073 46.285c4.389 8.763 9.877 16.402 10.151 24.94z"/>
<path d="M406.412 928.543c2.195 0 12.621-19.548 15.091-26.738 2.469-7.19 1.646-14.38-11.524-14.38-13.17 0-16.188 2.921-15.365 10.336.823 7.414 7.408 30.782 11.798 30.782z"/>
<path d="M417.936 935.508s13.17-6.291 18.658-8.763c5.488-2.472 6.036-9.437 6.311-13.481.274-4.044 6.311-38.646 6.036-45.162-6.036 13.706-15.64 33.253-20.304 40.219-4.665 6.965-10.701 21.12-10.701 27.187z"/>
</g>
<path class="msl" id="right-vastus-lateralis" fill="#B4A7C7" d="M458.489 871.527c15.817 12.755 29.896-22.118 34.724-34.045 10.175-25.139 12.833-44.587 6.093-75.65-3.999-18.43-6.5-29.807-9.042-38.712-.875-3.065-5.259-2.934-5.973.172-10.619 46.188-28.876 72.275-31.387 78.735-2.708 6.965-14.588 23.341-13.479 38.314.646 8.739 12.929 26.239 19.064 31.186z"/>
<path class="msl" id="right-rectus-femoris" fill="#7EACD8" d="M433.714 822.574c6.98-4.442 29.932-57.928 34.264-69.162 4.332-11.234 23.882-50.26 8.235-75.789-11.955-19.506-15.962-26.775-23.685-49.43-6.519-19.122-7.799-20.056-13.847 3.383-5.034 19.506-18.565 50.978-23.226 64.069-8.846 24.846-12.169 48.204-11.776 69.552.847 45.956 27.659 58.889 30.035 57.377z"/>
<path class="msl" id="right-vastus-medialis" fill="#644899" d="M388.029 880.315c12.69 3.807 48.587-6.428 46.32-26.65s-23.945-39.311-27.284-45.685c-5.494-10.488-12.69-32.36-7.666-69.486.457-3.379-4.704-4.288-5.911-1.099-6.748 17.828-16.686 40.69-19.419 52.184-3.685 15.503-6.912 21.775-6.345 39.974.567 18.2 5.37 46.282 20.305 50.762z"/>
<path class="msl" id="right-sartorius" fill="#388BC0" d="M365.186 797.828s16.291-52.492 32.868-83.635c11.479-21.567 55.403-129.922 41.255-141.135-8.09 20.05-21.874 44.598-32.118 61.612-10.245 17.014-25.419 52.059-36.173 82.77-19.488 55.648-14.133 79.059-5.832 80.388z"/>
<g class="msl" id="rectus-abdominis" fill="#DB8181">
<path d="M330.922 609.929c-7.162 1.309-12.486-6.426-17.231-16.869-4.745-10.443-18.23-59.442-20.727-73.7-2.497-14.258 2.497-13.656 10.488-13.856s16.731 2.811 24.223 6.828c7.492 4.016 10.738 8.836 10.988 18.475s1.498 60.044 1.748 67.876c.25 7.832-3.995 10.241-9.489 11.246z"/>
<path d="M338.664 503.094c-2.473-.663-13.984-6.225-18.729-6.225-4.745 0-29.467 2.209-30.466-3.012-.999-5.221-1.498-20.684 1.998-22.893 3.496-2.209 16.981-8.234 31.964-7.229 14.983 1.004 17.48 4.016 17.73 7.029s1.997 33.534-2.497 32.33z"/>
<path d="M292.788 456.174s-5.135-11.563-2.876-16.354c2.26-4.79 12.736-16.684 28.142-19.823 15.406-3.139 23.828-.826 23.828 1.652s1.438 23.787-2.465 29.073c-3.903 5.286-18.282 1.982-28.347 1.982s-16.433 3.965-18.282 3.47z"/>
<path d="M294.634 421.979s-.369-14.372 3.139-20.979 16.435-16.354 29.916-17.18c13.481-.826 15.143 1.322 14.958 6.277-.185 4.956.739 17.675-5.171 18.171-5.909.496-22.16 1.982-28.993 4.295s-13.665 12.059-13.849 9.416z"/>
<path d="M369.435 609.929c7.162 1.309 12.486-6.426 17.231-16.869 4.745-10.443 18.23-59.442 20.727-73.7s-2.497-13.656-10.488-13.856c-7.991-.201-16.731 2.811-24.223 6.828-7.492 4.016-10.738 8.836-10.988 18.475-.25 9.639-1.498 60.044-1.748 67.876-.25 7.832 3.995 10.241 9.489 11.246z"/>
<path d="M361.694 503.094c2.473-.663 13.984-6.225 18.729-6.225 4.745 0 29.467 2.209 30.466-3.012.999-5.221 1.498-20.684-1.998-22.893-3.496-2.209-16.981-8.234-31.964-7.229-14.983 1.004-17.48 4.016-17.73 7.029-.25 3.01-1.998 33.534 2.497 32.33z"/>
<path d="M407.57 456.174s5.135-11.563 2.876-16.354c-2.26-4.79-12.736-16.684-28.142-19.823-15.406-3.139-23.828-.826-23.828 1.652s-1.438 23.787 2.465 29.073c3.903 5.286 18.282 1.982 28.347 1.982 10.065.001 16.433 3.965 18.282 3.47z"/>
<path d="M405.724 421.979s.369-14.372-3.139-20.979c-3.509-6.608-16.435-16.354-29.916-17.18-13.481-.826-15.143 1.322-14.958 6.277.185 4.956-.739 17.675 5.171 18.171 5.909.496 22.16 1.982 28.993 4.295s13.664 12.059 13.849 9.416z"/>
</g>
<g class="msl" id="right-external-oblique" fill="#99005A">
<path d="M447.153 560.344c5.541-2.281 8.09-5.176 9.782-9.278 3.839-9.308 5.347-27.643 5.347-35.461 0-7.818 1.193-40.86-7.798-38.515s-31.068 22.116-31.068 25.712-3.597 36.589-3.956 42.53c-.36 5.942-3.646 22.963-2.208 25.152 1.438 2.191 12.101-2.812 29.901-10.14z"/>
<path d="M457.85 431.408c-8.637 9.013-26.066 21.507-31.211 23.066-5.145 1.559-5.06 10.328-5.317 13.891s0 10.02 0 13.805 5.403 3.34 9.004 1.559c3.602-1.781 27.449-14.637 28.992-21.317s4.852-37.599-1.468-31.004z"/>
<path d="M424.969 446.606c3.869-.178 28.638-14.607 31.869-22.4 3.232-7.793 8.517-29.252-2.391-19.837-7.229 6.239-30.124 16.186-31.417 19.749s-2.908 22.711 1.939 22.488z"/>
<path d="M425.19 415.754c4.473-1.243 20.818-8.847 29.383-19.239s4.966-18.777-.634-17.622c-5.6 1.155-34.665 12.697-35.983 17.316-1.318 4.619-1.229 21.897 7.234 19.545z"/>
</g>
<path class="msl" id="right-latissimus-dorsi" fill="#AA759B" d="M498.493 399.603c-1.197.898-5.262-25.268-6.602-17.606-1.341 7.661-23.273 80.628-21.274 79.961 17.606-5.869 28.642-62.93 27.876-62.355z"/>
<path class="msl" id="right-stemocleidomastoid" fill="#912836" d="M381.88 178.402c-2.496 4.743-25.211 47.428-25.96 50.423-.749 2.995-2.038 19.688-.54 19.938s15.944-2.822 17.441-6.067 22.543-77.763 23.292-80.009c.749-2.247-11.736 10.972-14.233 15.715z"/>
<path class="msl" id="right-omohyoid" fill="#DECB71" d="M386.151 218.769c-2.399.8-7.177 13.966-5.237 15.712s13.578 1.746 13.772-2.328c.194-4.073-6.789-13.966-8.535-13.384z"/>
<path class="msl" id="right-trapezius" fill="#BB7B63" d="M417.381 230.602c3.298 0 48.642 1.569 48.642-1.341s-24.57-19.173-32.135-23.247c-7.565-4.074-34.788-21.758-36.921-18.461-2.134 3.298-4.997 21.711-.147 27.142 3.937 4.411 15.906 15.907 20.561 15.907z"/>
<path class="msl" id="right-deltoid-middle-head" fill="#EBBF84" d="M491.347 242.579s28.892 16.962 45.56 39.377c11.479 15.437 25.57 39.428 31.114 54.824 18.249-5.86 9.735-35.344.989-57.067-10.001-24.837-44.303-47.179-77.663-37.134z"/>
<path class="msl" id="right-deltoid-anterior-head" fill="#EBBF84" d="M562.269 337.281s-11.011-34.969-41.014-66.774c-20.781-22.029-37.339-25.368-53.004-31.828-7.755-3.198-16.916 4.735-12.98 12.143 6.417 12.079 28.831 35.637 35.154 46.733 17.956 31.51 48.879 42.755 71.844 39.726z"/>
<path class="msl" id="right-brachioradialis" fill="#E2713B" d="M621.228 580.81c2.121-.53-.493-13.195-2.586-21.919-3.104-12.932 2.966-52.176-2.586-72.939-5.553-20.763-15.019-48.091-38.197-57.506-9.329 11.923-12.296 33.807-7.262 55.921 4.449 19.542 14.966 35.69 21.485 44.623s15.151 46.898 17.807 52.692c2.655 5.794 9.408-.39 11.339-.872z"/>
<path class="msl" id="right-flexor-carpi-radialis" fill="#93591E" d="M601.9 588.118c1.43-1.022-2.827-39.4-19.245-62.094s-21.082-63.615-25.213-57.004c-6.154 9.846-4.715 38.257 7.125 57.004 13.155 20.828 35.643 63.301 37.333 62.094z"/>
<path class="msl" id="right-palmus-longus" fill="#88A638" d="M588.685 580.835c1.004-3.563-10.949-27.589-23.021-41.109s-15.265-42.637-17.921-48.19c-2.656-5.553-15.456 11.081-8.937 22.428 6.519 11.347 5.692 14.044 26.31 37.82 15.372 17.727 23.028 30.967 23.569 29.051z"/>
<path class="msl" id="right-pronator-teres" fill="#AD2466" d="M531.549 455.4c-.608 1.507-1.026 3.825 1.97 12.214s-.788 13.002 6.304 14.184c4.554.759 16.865-9.401 8.668-19.306-9.456-11.426-16.176-8.989-16.942-7.092z"/>
<g id="right-palm" fill="#CCC">
<path d="M679.192 641.779c5.023-.008 10.701-3.931 7.207-5.897-3.494-1.966-26.928-19.238-32.318-24.555-6.388-6.301-15.25-9.518-17.87-9.082-2.621.437-6.593 7.867-2.443 12.016s35.839 27.534 45.424 27.518z"/>
<path d="M646.799 649.53c2.64-3.172-1.68-11.103-8.641-20.846s-17.282-23.112-19.442-24.019c-2.16-.906-10.093-.396-12.974.51-2.88.906-7.564 1.046-7.324 7.617.24 6.571-2.265 19.064-.105 28.127 2.16 9.064 7.921 25.378 12.962 30.816s12.241 1.133 16.322-2.492c1.837-1.633 4.327-6.413 7.441-9.517 3.801-3.788 8.369-6.12 11.761-10.196z"/>
<path d="M628.961 707.631c1.306-.688.549-7.142-2.564-14.65s-8.973-17.58-10.255-15.565c-1.282 2.014.916 12.635 2.747 17.213 1.832 4.579 6.593 14.833 10.072 13.002z"/>
<path d="M646.614 717.044c2.543-1.271 2.014-6.592.549-9.522s-11.72-28.933-13.551-32.779-3.479-4.761-4.944-2.93c-1.465 1.831-2.747 5.494-.183 12.635 2.564 7.142 9.156 23.622 11.537 28.017 2.38 4.396 4.761 5.494 6.592 4.579z"/>
<path d="M663.426 717.503c2.73-1.403 1.774-9.429-.876-15.358-2.651-5.93-15.846-34.297-18.015-37.681s-3.774-2.396-4.822-1.249c-1.048 1.147-4.059 3.483-1.774 9.429s13.685 31.095 16.685 36.642c2.999 5.546 4.502 10.427 8.802 8.217z"/>
<path d="M673.679 702.194c1.839-.714 2.076-7.298-.976-14.434-3.052-7.135-15.596-29.78-17.292-33.152-1.696-3.373-7.079-1.54-7.076 1.213.003 2.753 1.163 6.345 2.689 9.913 1.526 3.568 11.741 24.351 13.852 28.429s5.941 9.142 8.803 8.031z"/>
</g>
<path class="msl" id="right-sternohyoid" fill="#DECB71" d="M351.623 187.125c1.512-.136 12.302-5.815 16.222-6.958 4.329-1.263-.543 11.38-1.625 14.627-.798 2.394-8.126 27.628-14.597 27.934v-35.603z"/>
<path class="msl" id="right-perctoralis-major" fill="#D37C3D" d="M464.598 332.381c-17.378-4.442-27.991-8.526-44.031-18.431-18.645-11.514-40.148-20.962-62.528-20.76.073-11.979.485-21.862.603-24.473.749-16.556 27.443-21.404 43.483-24.391 16.039-2.987 42.087.69 64.491 32.231 22.119 31.14 37.631 52.093 39.869 60.723-6.408.169-25.419-.689-41.887-4.899z"/>
<path class="msl" id="right-perctoralis-minor" fill="#D37C3D" d="M413.839 317.262c14.541 7.732 29.578 15.727 47.585 20.33 14.559 3.722 21.077 2.923 28.156 3.07-16.097 12.747-58.176 56.994-96.404 44.312-23.021-7.637-36.738-13.597-36.738-18.824 0-3.437-.338-35.478-.236-62.976 21.059-.203 38.853 4.101 57.637 14.088z"/>
<path class="msl" id="right-peroneus-longus" fill="#537C45" d="M405.562 1172.412c3.042 1.234 11.446-16.195 14.752-25.531s22.659-53.38 28.764-69.766 15.158-38.436 16.618-44.442c6.495-26.725 2.187-51.352 1.932-54.877s-3.518 1.088-6.57 9.661c-3.052 8.574-12.802 46.335-16.618 57.195-3.815 10.86-17.767 45.165-20.057 56.596-2.289 11.432-7.631 38.296-13.226 50.3-5.595 12.004-8.647 19.626-5.595 20.864z"/>
<path class="msl" id="right-soleus" fill="#A8AD0E" d="M398.701 1023.939c-.024-.527-.303-1.036-.784-1.251-7.165-3.195-29.703 56.805-24.844 74.217 9.313 21.866 14.348 63.949 16.136 63.599 1.309-.256 6.287-33.724 7.24-44.012.953-10.289 2.667-55.063 2.286-77.164-.066-3.88.135-11.622-.034-15.389z"/>
<path class="msl" id="right-gastrocnemius" fill="#708A39" d="M395.167 1017.162c1.03-.977 1.573-2.361 1.431-3.774-1.104-10.976-1.971-17.241-3.959-25.313-3.239-13.146-6.478-22.863-8.193-22.673-1.715.19-7.367 10.412-11.777 22.173-4.859 12.958-9.218 36.817-9.218 50.344 0 10.277-.673 25.056 5.553 41.048.493 1.266 2.143 1.326 2.351-.017 4.956-32.078 16.743-55.082 23.812-61.788z"/>
<path class="msl" id="right-tibialis-anterior" fill="#5EAA84" d="M431.3 1028.718c13.205-33.667 18.145-60.56 16.032-75.187-.203-1.403-.974-4.806-1.824-3.616-7.577 10.62-21.529 45.505-25.563 62.042-4.833 19.815-9.54 53.411-11.575 69.987a704.225 704.225 0 00-1.068 9.353c-.177 1.622 2.964 1.995 3.453.41 7.429-24.092 16.301-52.172 20.545-62.989z"/>
<path class="msl" id="right-extensor-digitorum-longus" fill="#86AF79" d="M457.704 947.148c-.47-3.197-2.385-3.16-4.262-1.36-1.9 1.821-4.202 4.026-3.392 6.237 2.423 6.608 1.312 17.746-.322 26.946-2.764 15.555-6.965 31.38-15.722 53.315-6.028 15.1-31.556 98.721-32.977 103.111-4.324 13.355-8.711 28.67-10.729 35.625-2.798 9.645 5.85 10.202 7.122 5.75 1.148-4.02 15.715-35.892 18.42-53.282 1.719-11.049 12.61-52.048 17.39-62.606 9.275-20.482 11.98-29.757 16.231-44.442 2.646-9.141 8.39-27.099 9.661-37.486 1.274-10.387-.657-26.614-1.42-31.808z"/>
<path id="right-ilium" fill="#CCC" d="M374.684 619.128c-.923-1.15-.706-2.653.531-3.6 6.74-5.161 15.709-11.729 25.68-19.325 8.52-6.49 15.492-11.14 20.835-14.402 3.11-1.899 7.266.949 5.353 3.666-9.356 13.29-25.003 35.818-31.634 47.121-1.054 1.796-4.028 2.218-5.805.825-4.879-3.827-10.601-8.854-14.96-14.285z"/>
<path class="msl" id="right-pectineus" fill="#7A6A97" d="M373.362 622.999c5.442 6.193 12.195 11.631 17.167 15.27 1.07.783 1.597 1.918 1.41 3.063-1.233 7.538-3.335 21.136-6.431 21.497-12.848 1.496-24.588-32.482-25.443-35.192-.254-.805 3.728-2.676 6.301-4.97 1.914-1.707 5.35-1.541 6.996.332z"/>
<path class="msl" id="right-gluteus-medius" fill="#B42C46" d="M476.213 616.865s4.634-20.081-.515-31.409-16.477-24.2-16.477-24.2-3.604 5.664-2.06 11.328c1.545 5.663 15.962 48.4 19.052 44.281z"/>
<path class="msl" id="right-tensor-fasciae-latae" fill="#3A417D" d="M455.617 587.515l-8.238-6.694s6.179 51.49 39.647 102.98c2.06-20.081-4.361-44.475-7.723-50.975-7.724-14.932-21.627-41.191-23.686-45.311z"/>
<path class="msl" id="right-triceps-brachii-lateral-head" fill="#DE816A" d="M579.999 343.063s-6.504 6.876-5.291 14.761c1.213 7.885 11.356 59.234 11.356 64.693s8.491 9.098 9.704 4.246c1.214-4.852 1.214-49.128-15.769-83.7z"/>
<path class="msl" id="right-brachialis" fill="#E2713B" d="M581.212 423.124s-9.915-64.208-12.947-75.731c-3.033-11.524-13.158-2.091-10.125 2.761s14.735 43.875 15.341 69.956c3.032 3.639 7.731 3.014 7.731 3.014z"/>
<g class="msl" id="right-serratus-anterior" fill="#E6678D">
<path d="M481.144 405.44c-.86-.66-11.63 9.502-14.02 10.794-2.39 1.293-2.35 8.566-2.47 11.52-.119 2.955 0 8.31 0 11.449s2.51 2.77 4.183 1.293 7.14-9.625 7.857-15.165 7.362-17.656 4.45-19.891z"/>
<path d="M467.346 409.076c2.321-.147 17.176-12.114 19.115-18.578 1.938-6.463 4.187-19.038-1.434-16.452-5.621 2.585-18.068 13.424-18.843 16.379-.777 2.954-1.746 18.836 1.162 18.651z"/>
<path d="M469.012 379.024c3.235-1.031 15.059-7.337 21.254-15.956 6.196-8.619 3.592-15.573-.459-14.615-4.051.958-24.438 18.206-25.392 22.037s-1.525 10.485 4.597 8.534z"/>
<path d="M464.655 445.747s-1.385 15.016 1.309 13.872c2.694-1.144 5.197-10.275 5.496-12.563.299-2.289 1.575-5.505-6.805-1.309z"/>
</g>
<path class="msl" id="left-adductor-longus" fill="#661A87" d="M349.589 666.305c.195-9.665.038-19.589-.157-26.876-.09-3.376-4.507-4.577-6.294-1.711-7.221 11.578-18.844 30.305-21.735 35.498-2.727 4.9 1.504 10.718 4.924 15.167a3.619 3.619 0 005.304.475c5.12-4.665 12.193-11.676 16.69-18.484a7.656 7.656 0 001.268-4.069z"/>
<path class="msl" id="left-gracilis" fill="#2E729E" d="M331.923 692.649a4.845 4.845 0 00-1.551 4.538c1.55 8.176 7.065 28.821 10.467 29.013 3.989.226 5.387-19.969 7.666-40.521.243-2.193.44-4.573.598-7.073.086-1.355-1.614-2.023-2.473-.972-4.88 5.974-10.704 11.474-14.707 15.015z"/>
<path class="msl" id="right-adductor-longus" fill="#661A87" d="M350.768 666.305c-.195-9.665-.038-19.589.157-26.876.09-3.376 4.507-4.577 6.294-1.711 7.221 11.578 18.844 30.305 21.735 35.498 2.727 4.9-1.504 10.718-4.924 15.167a3.619 3.619 0 01-5.304.475c-5.12-4.665-12.193-11.676-16.69-18.484a7.656 7.656 0 01-1.268-4.069z"/>
<path class="msl" id="right-gracilis" fill="#2E729E" d="M368.434 692.649a4.845 4.845 0 011.551 4.538c-1.55 8.176-7.065 28.821-10.467 29.013-3.989.226-5.387-19.969-7.666-40.521-.243-2.193-.44-4.573-.598-7.073-.086-1.355 1.614-2.023 2.473-.972 4.88 5.974 10.704 11.474 14.707 15.015z"/>
<path class="msl" id="left-biceps-long-head" fill="#D6D4B3" d="M146.125 450.705c13.171-18.694 36.297-57.878 40.065-106.776.152-1.966-1.274-3.709-3.237-3.892-9.82-.915-22.295.657-28.279 8.593-15.692 20.811-17.842 33.52-20.545 47.577-3.553 18.475.666 43.756 7.423 54.417 1.045 1.65 3.448 1.677 4.573.081z"/>
<path class="msl" id="left-biceps-short-head" fill="#D6D4B3" d="M195.303 343.204c-.815-.502-1.951-.989-3.327-1.431-1.31-.421-2.654.526-2.757 1.898-3.695 49.616-27.063 89.42-40.512 108.565-.963 1.372.119 3.237 1.789 3.088 1.21-.108 2.439-.283 3.299-.528 7.47-2.134 17.982-8.156 26.198-19.733 10.781-15.191 21.276-41.68 24.173-58.822s-2.585-29.174-8.863-33.037z"/>
<path class="msl" id="right-biceps-long-head" fill="#D6D4B3" d="M554.233 450.705c-13.171-18.694-36.297-57.878-40.065-106.776-.151-1.966 1.274-3.709 3.237-3.892 9.82-.915 22.295.657 28.279 8.593 15.692 20.811 17.842 33.52 20.545 47.577 3.553 18.475-.666 43.756-7.423 54.417-1.046 1.65-3.449 1.677-4.573.081z"/>
<path class="msl" id="right-biceps-short-head" fill="#D6D4B3" d="M505.054 343.204c.815-.502 1.951-.989 3.327-1.431 1.31-.421 2.654.526 2.757 1.898 3.695 49.616 27.063 89.42 40.512 108.565.963 1.372-.119 3.237-1.789 3.088-1.21-.108-2.439-.283-3.299-.528-7.47-2.134-17.982-8.156-26.198-19.733-10.781-15.191-21.276-41.68-24.173-58.822s2.586-29.174 8.863-33.037z"/>

<text id="txt" x="500" y="1200"></text>

<script>
<![CDATA[

function $(sel) {
  return document.querySelector(sel);
}

let msls = document.querySelectorAll(".msl");
for(i=0; i<msls.length; i++) {
  msls[i].addEventListener('click', show_name, false);
}

function show_name(el) {
  let el_id;
  if(el.srcElement.id) {
    el_id = el.srcElement.id;
  }
  if (el.srcElement.parentElement.id) {
    el_id = el.srcElement.parentElement.id;
  }
  for(i=0; i<msls.length; i++) {
    msls[i].classList.remove("active");
    msls[i].classList.add("semi");
  }
  $("#"+el_id).classList.remove("semi");
  $("#"+el_id).classList.add("active");

  let txt = el_id.split("-");
  for (i=0; i<txt.length; i++) {
    if(txt[i] === "left" || txt[i] === "right") {
      txt.splice(i, 1);
    }
  }

  $("#txt").textContent = txt.join(" ");

}

]]>
</script>
</svg>
