<svg xmlns="http://www.w3.org/2000/svg" viewBox="0 0 700 1300">
<style>
/* <![CDATA[ */

#body-shape {
pointer-events: none;
}

.msl:hover, .msl.active {
fill: #744fc9;
stroke: #c600ff;
stroke-width: 4px;
cursor: pointer;
opacity: 1;
}

.msl.semi {
opacity: .5;
}

.msl.semi:hover {
opacity: 1;
}

text {
font-family: sans-serif;
font-size: 24px;
text-transform: capitalize;
}

/* ]]> */
</style>
<path id="body-shape" fill="none" stroke="#000" stroke-miterlimit="10" d="M370.706 7.883c6.61 1.677 23.351 7.944 34.665 25.758 11.255 17.721 11.074 41.165 9.388 62.108 1.685 0 9.388 2.889 8.666 6.259s-7.944 22.388-9.629 25.758c-1.685 3.37-3.611 3.37-3.611 3.37s-2.407 16.129-2.407 21.184-9.148 9.629-9.148 9.629v16.37c4.092 7.463 33.676 21.082 44.269 28.063 10.592 6.981 40.041 31.201 62.867 29.359 31.395-2.534 51.657 16.645 62.581 30.983 16.139 21.183 17.25 64.19 13.183 73.479.45 4.552 22.959 34.438 16.988 98.813 35.465 47.429 24.509 92.861 26.29 126.948.304 5.828 1.019 22.938 10.971 29.219 2.857 1.803 13.459 1.068 20.082 7.477s20.402 24.261 25.102 26.611c4.7 2.35 15.169 6.623 8.118 14.1-7.05 7.477-25.514-3.579-37.956-11.827 2.516 2.656 6.85 12.862 8.388 20.271.656 3.16 17.28 37.377 19.936 47.163s-9.171 10.855-11.827 6.381c-2.656-4.474-22.368-45.296-22.368-45.296s19.816 44.334 23.487 52.286c5.033 10.905-7.744 13.828-12.497 6.418-2.062-3.214-22.928-48.791-22.928-48.791s16.636 38.166 19.712 45.296c3.076 7.13-7.702 12.302-12.315 4.193-2.566-4.511-19.983-42.518-19.983-42.518s8.435 19.216 10.271 25.027c1.835 5.811-1.428 8.188-4.54 9.442-3.653 1.472-7.234-1.653-17.633-25.51-10.399-23.857-12.582-32.574-14.788-46.367-2.027-12.678 2.021-32.187-2.873-40.445-4.894-8.258-22.263-36.768-37.186-53.987-29.47-34.004-18.639-53.787-23.533-84.373-8.564-16.822-25.494-22.06-30.693-49.588-4.341 24.6-15.195 50.473-30.388 59.329-7.932 4.623-4.732 39.384-2.909 45.583 1.823 6.199-5.466 30.187-4.327 41.963s28.941 20.259 16.644 63.547c15.915 22.552 13.039 63.379 13.799 85.792s23.821 73.506 11.922 114.848c-5.889 20.46-19.935 52.716-41.195 68.379-9.501 7-12.218 24.313-10.698 31.91s18.877 51.284 20.396 60.401 2.279 41.407-8.737 69.139-35.123 95.694-38.818 115.647c-3.695 19.953-.71 41.876-.71 41.876s4.68 6.897 4.68 13.055c0 6.158-1.724 12.809 3.941 19.214 5.666 6.405 10.592 14.533 13.302 21.923s11.331 14.041 16.011 16.75c4.68 2.71.985 13.794-5.419 13.794h-72.7c-8.868 0-12.809-4.188-14.78-11.578s9.232-27.589 10.217-34.979 2.463-15.272 2.463-15.272c-1.266-2.571-2.022-13.163-.617-17.27 1.405-4.107 1.945-10.052 1.837-14.807-.108-4.756-1.286-62.158-3.95-73.633-2.664-11.474-19.835-49.674-19.835-73.969 0-57.174 12.122-69.564 15.196-83.497 3.073-13.933.327-26.842.737-31.76.41-4.918-6.517-13.728-6.517-22.744s-.82-27.866-2.869-39.136c-2.049-11.269-7.991-42.824-9.221-63.314-1.229-20.49-7.212-28.513-7.212-28.513s-5.982 8.023-7.212 28.513c-1.229 20.49-7.172 52.045-9.221 63.314-2.049 11.27-2.869 30.12-2.869 39.136 0 9.016-6.927 17.826-6.517 22.744.41 4.918-2.336 17.826.737 31.76 3.074 13.933 15.196 26.323 15.196 83.497 0 24.295-17.172 62.495-19.835 73.969-2.664 11.474-3.842 68.877-3.95 73.633-.108 4.755.432 10.7 1.837 14.807 1.405 4.107.648 14.699-.617 17.27 0 0 1.478 7.882 2.463 15.272s12.188 27.589 10.217 34.979-5.912 11.578-14.78 11.578h-72.7c-6.405 0-10.1-11.085-5.419-13.794s13.302-9.36 16.011-16.75c2.71-7.39 7.636-15.519 13.302-21.923 5.666-6.405 3.941-13.055 3.941-19.214 0-6.158 4.68-13.055 4.68-13.055s2.985-21.923-.71-41.876-27.801-87.916-38.818-115.647-10.257-60.021-8.737-69.139 18.877-52.804 20.396-60.401-1.197-24.91-10.698-31.91c-21.26-15.663-35.306-47.919-41.195-68.379-11.9-41.342 11.162-92.435 11.922-114.848s-2.116-63.24 13.799-85.792c-12.297-43.288 15.504-51.771 16.644-63.547s-4.223-22.028-3.796-39.976c.531-22.309 4.493-42.947-3.439-47.57-15.193-8.855-26.047-34.729-30.388-59.329-5.2 27.527-22.129 32.765-30.693 49.588-4.894 30.586 5.938 50.369-23.533 84.373-14.923 17.219-32.292 45.729-37.186 53.987-4.894 8.258-.846 27.767-2.873 40.445-2.205 13.793-4.388 22.51-14.788 46.367-10.399 23.857-13.98 26.982-17.633 25.51-3.113-1.254-6.376-3.631-4.54-9.442s10.271-25.027 10.271-25.027-17.417 38.007-19.983 42.518c-4.613 8.109-15.391 2.937-12.315-4.193 3.076-7.13 19.712-45.296 19.712-45.296s-20.866 45.577-22.928 48.791c-4.753 7.409-17.53 4.486-12.497-6.418 3.67-7.952 23.487-52.286 23.487-52.286s-19.712 40.822-22.368 45.296c-2.656 4.474-14.484 3.405-11.827-6.381s19.28-44.003 19.936-47.163c1.538-7.409 5.872-17.615 8.388-20.271-12.442 8.248-30.906 19.305-37.956 11.827-7.05-7.477 3.418-11.75 8.118-14.1s18.48-20.202 25.102-26.611 17.226-5.674 20.082-7.477c9.952-6.281 10.667-23.392 10.971-29.219 1.781-34.086-9.175-79.519 26.29-126.948-5.971-64.375 16.538-94.261 16.988-98.813-4.068-9.289-2.956-52.296 13.183-73.479 10.924-14.338 31.186-33.517 62.581-30.983 22.825 1.842 52.275-22.378 62.867-29.359 10.592-6.981 40.176-20.6 44.269-28.063v-16.37s-9.148-4.574-9.148-9.629-2.407-21.184-2.407-21.184-1.926 0-3.611-3.37c-1.685-3.37-8.907-22.388-9.629-25.758s6.981-6.259 8.666-6.259c-1.685-20.943-1.867-44.387 9.388-62.108 11.314-17.814 28.055-24.083 34.665-25.758 11.483-2.91 29.945-2.91 41.415 0z"/>
<path class="msl" id="left-stemocleidomastoid-back" fill="#912836" d="M318.657 130.147s.215 15.729-1.293 26.933c-.871 6.47-3.682 13.011-6.316 17.924-1.284 2.394-4.884 1.64-5.085-1.07-1.093-14.729-3.803-31.613-1.832-36.091 2.369-5.387 11.078-5.541 14.526-7.696z"/>
<g class="msl" id="left-trapezius" fill="#CE876B">
  <path d="M326.089 129.454s17.343-2.756 20.144-1.679c.854 59.186-14.975 101.872-15.19 105.535-8.834-4.525-48.131-16.044-86.458-11.587 12.497-6.895 44.907-23.178 61.361-33.937 10.91-7.133 16.695-17.824 20.143-58.332z"/>
  <path d="M213.042 238.04s33.732-11.566 56.171-10.627c34.187 1.43 67.294 17.473 71.603 26.523 4.309 9.049 3.016 24.563 3.016 32.535v59.468c0 11.635 0 24.347-3.878 23.055-3.878-1.293-30.38-18.53-40.723-40.938-10.342-22.408-16.186-50.222-34.549-69.57-12.918-13.612-34.403-18.292-51.64-20.446z"/>
</g>
<path class="msl" id="left-deltoid-posterior-head" fill="#E4CFA3" d="M240.189 252.614s-24.445 25.396-58.719 39.777c-20.11 8.438-49.124 38.046-54.032 40.06s-7.013-25.739-1.688-43.234c9.386-30.84 37.449-49.443 64.656-49.443 21.781 0 48.556 9.064 49.783 12.84z"/>
<path class="msl" id="left-triceps-long-head" fill="#E6B39A" d="M189.678 295.549s.367 29.167 1.262 48.944c.87 19.231 3.447 30.715 6.305 43.091 2.316 10.031-23.385 19.568-41.529 23.692-4.53 1.03-9.991-2.328-9.144-6.896 9.531-51.414-7.781-56.135 5.928-82.019 7.437-14.044 33.906-25.177 37.178-26.812z"/>
<path class="msl" id="left-triceps-lateral-head" fill="#E6B39A" d="M106.236 414.128s-1.937-6.277 2.035-31.514c3.972-25.237 15.877-41.635 17.959-43.049 16.409-11.137 14.892 7.064-1.793 32.85-11.252 17.391-17.266 42.414-18.201 41.713z"/>
<path class="msl" id="left-triceps-medial-head" fill="#E6B39A" d="M196.28 401.808c8.437-6.661-12.997 33.11-16.802 34.251-19.387 5.816-64.894 18.015-28.435-14.864 7.307-6.589 32.958-9.694 45.237-19.387z"/>
<path id="left-cubit" fill="#CCC" d="M113.511 445.616s.813-15.388 6.779-25.423c5.965-10.035 21.421-6.913 20.608-2.453s-14.914 21.854-27.387 27.876z"/>
<path class="msl" id="left-extensor-carpi-ulnaris" fill="#DCC91E" d="M105.599 443.795s2.242 9.7-7.069 40.646-7.569 75.916-9.486 86.048c-1.917 10.133-4.396 11.157-6.313 10.062-1.917-1.095-3.221-3.52-1.917-13.145 3.579-26.414-.405-69.123 5.346-84.732 5.75-15.61 16.426-41.892 19.439-38.879z"/>
<path class="msl" id="left-flexor-carpi-ulnaris" fill="#C23438" d="M129.456 449.096c12.002 2.593 11.326 31.196 5.302 50.366-5.099 16.225-22.888 63.05-36.868 86.518-1.87 3.139-6.699 1.613-6.432-2.032 1.687-23.036 5.804-62.005 7.955-77.417 5.302-37.995 14.409-60.813 30.043-57.435z"/>
<path class="msl" id="left-brachioradialis-back" fill="#E27546" d="M109.463 586.624s12.597-23.278 18.622-39.983 20.876-69.632 13.941-90.437c-2.306-6.918 4.1-2.413 19.357-6.574 3.847-1.049 7.69 29.459-.632 61.36-4.595 17.614-16.878 28.849-24.273 39.529-7.394 10.681-24.003 39.939-27.015 36.105z"/>
<path class="msl" id="left-latissimus-dorsi" fill="#D4B6C6" d="M264.382 354.569c12.527-3.986 28.579-19.79 35.303-12.527 6.725 7.263 7.597 13.78 18.088 22.118 10.49 8.339 27.198 22.565 29.08 27.137s4.391 31.443-4.485 55.383c-8.877 23.94-47.974 39.726-55.472 63.622-18.461 6.627-21.918-22.019-39.526-34.686-10.254-7.377-20.692-15.467-28.352-27.688-11.594-18.497-16.776-47.699-17.554-72.832-.279-9.047 24.793-8.396 62.918-20.527z"/>
<path class="msl" id="left-external-oblique-back" fill="#752252" d="M240.664 478.905c.105-1.644 12.99 9.7 15.418 16.337 4.145 11.333 13.635 13.416 12.103 18.155-2.089 2.288-17.61 7.975-26.714 14.411-2.058 1.455-1.076-44.711-.807-48.903z"/>
<path class="msl" id="left-gluteus-medius" fill="#D94D5E" d="M230.853 615.175c-2.3 1.823-5.711.479-6.191-2.415-1.148-6.923-2.696-19.796.06-27.263 2.603-7.051 14.495-14.359 18.375-22.763s-.255-17.903-1.097-22.488c-2.334-12.709 29.391-22.495 45.525-25.779 44.089-8.974 45.982 46.04 46.357 50.057-60.432-14.307-87.949 38.701-103.029 50.651z"/>
<path class="msl" id="left-gluteus-maximus" fill="#E7894B" d="M337.242 575.22c9.59 8.966 9.428 44.994 9.428 50.591s7.124 41.706-10.103 50.859c-15.678 8.33-37.755 10.23-58.386 17.794-14.264 5.229-22.513 11.402-32.605 17.141-5.204 2.959-25.687 14.057-23.565 7.885 12.44-36.173-.302-45.986 12.874-88.498 7.973-25.724 28.315-43.579 49.29-54.2 19.128-9.686 40.783-13.056 53.067-1.572z"/>
<path class="msl" id="left-biceps-femoris" fill="#7FAEDD" d="M235.726 864.602c-18.956 54.766-4.874-131.11 4.762-139.885 14.209-12.939 41.071-24.307 36.655-18.855-4.415 5.452-15.703 88.253-14.082 171.636.562 28.9-.763 40.286-8.114 19.473-5.189-14.695-14.796-45.154-19.221-32.369z"/>
<path class="msl" id="left-adductor-magnus" fill="#4D7CC2" d="M323.235 751.621c.072-2.884-3.75-3.151-4.15-.29-3.984 28.502-9.873 74.478-12.546 114.418-2.232 33.357-9.154 61.862-1.783 63.858 10.473 2.835 17.07-121.235 18.479-177.986z"/>
<path class="msl" id="left-grasilis-back" fill="#79619B" d="M313.942 941.04s17.721-102.301 11.338-234.721c-.474-9.838-4.382-13.816 2.858-17.816 7.24-4 13.855.927 14.257 6.927.402 6-1.067 60.725-1.872 79.927-.804 19.202-3.975 55.565-7.595 71.166-3.619 15.601-11.781 96.167-18.986 94.517z"/>
<g class="msl" id="left-gastrocnemius" fill="#95BA3E">
  <path d="M260.642 1054.347c-3.792-.387-23.064-20.708-28.189-27.466-5.125-6.758-4.271-20.926 0-33.787s11.391-39.376 14.381-47.441c2.99-8.065 22.718-29.209 19.473-12.17-1.087 5.708-5.238 40.429-2.248 59.175 2.99 18.746 8.969 44.032 10.251 47.738 1.281 3.706 0 4.796-1.281 7.193s-10.251 6.976-12.387 6.758z"/>
  <path d="M317.875 1059.142c-5.513.366-33.314-10.463-33.314-20.054s-7.261-47.52-9.823-61.689c-2.563-14.169-1.734-56.069 7.892-76.381 9.293-19.61 7.936 2.631 10.463 16.276 5.813 31.389 24.503 44.004 35.727 80.668 7.025 22.952 8.977 59.859-10.945 61.18z"/>
</g>
<path id="left-ankle" fill="#CCC" d="M309.551 1242.002s8.256 18.383 9.288 27.414c1.032 9.03 4.644 18.061-7.224 19.996-11.868 1.935-42.312.323-51.601-.645-9.288-.968-7.74-4.838-4.128-13.546 3.612-8.708 19.608-34.509 22.188-37.089-4.128 17.416-3.096 43.217 9.804 43.217 15.481 0 21.673-39.347 21.673-39.347z"/>
<path class="msl" id="left-infraspinatus" fill="#DE558F" d="M243.845 337.17c3.322 3.036 7.282 6.604 10.176 9.07 1.832 1.561 4.931.822 5.802-1.386 8.691-22.032 10.093-40.244 9.452-52.446-.353-6.712-1.325-12.247-2.341-16.453-1.341-2.144-2.625-3.92-3.809-5.171-13.103-13.849-25.069-10.678-32.855-1.11-2.043 2.511-4.154 5.1-6.271 7.704-1.729 2.126-2.477 4.74-2.081 7.285 1.775 11.394 5.635 27.703 14.013 42.624 2.052 3.654 4.732 6.976 7.914 9.883z"/>
<path class="msl" id="left-teres-minor" fill="#AB416E" d="M225.676 316.131c-3.613-9.018-5.884-17.854-7.312-25.333-.377-1.973-3.217-2.48-4.551-.812-4.802 6.006-9.059 11.463-11.911 15.443-.851 1.187-.362 2.734 1.039 3.268 5.05 1.923 11.346 5.041 18.736 10.09 1.997 1.365 4.854-.521 3.999-2.656z"/>
<path class="msl" id="left-rhomboid-major" fill="#D18E91" d="M287.811 324.236c-2.03-6.365-6.055-17.236-10.574-27.682-.738-1.706-3.273-1.169-3.266.69.048 12.405-2.028 27.987-8.808 46.04-.512 1.364 1.016 2.57 2.462 1.937 1.644-.72 3.273-1.447 4.883-2.178 8.49-3.853 17.727-11.211 15.303-18.807z"/>
<path class="msl" id="left-teres-major" fill="#EDA1A4" d="M206.912 314.98a69.214 69.214 0 00-4.78-2.133c-1.929-.772-4.187.555-4.19 2.48-.013 11.818 5.257 40.202 14.2 41.675 11.148 1.837 22.976-.14 34.632-3.782 2.296-.717 3.142-3.286 1.64-4.915-17.795-19.296-32.161-28.742-41.502-33.325z"/>
<g class="msl" id="left-soleus" fill="#C1C058">
  <path d="M310.112 1110.198c-.427-13.445-1.496-27.685 6.481-36.333 5.491-5.953 13.729-17.976 17.463-16.044 3.674 1.9-2.285 22.483-10.202 40.694-5.655 13.007-7.117 26.359-9.252 44.606s-4.063-19.477-4.49-32.923z"/>
  <path d="M265.236 1104.017c7.148 9.025 12.56 14.636 18.489 21.485-3.786-20.061-3.369-37.983-5.788-45.234-3.417-10.244-12.003-17.402-19.732-20.128-8.329-2.938-21.919-23.819-18.4-12.881 1.733 5.385 7.408 16.503 15.205 37.67 2.075 5.633 6.246 14.064 10.226 19.088z"/>
</g>
<path class="msl" id="left-peroneus-brevis" fill="#95BA3E" d="M277.087 1125.35c-4.752-5.734-12.346-13.965-17.441-20.416 4.855 13.962 10.82 32.016 14.08 45.32 5.534 22.586 5.28 58.96 12.609 55.916-2.252-32.854-7.382-68.487-9.248-80.82z"/>
<path class="msl" id="left-flexor-hallucis-longus" fill="#728F30" d="M291.766 1153.334c-.282-2.457-.697-5.359-1.212-8.569-.769-4.796-7.777-12.407-11.067-16.552 2.868 19.759 11.107 65.88 11.852 98.943 1.853.866 4.779-9.921 4.779-10.972.001-14.085-2.217-44.282-4.352-62.85z"/>
<path class="msl" id="left-semitendinosus" fill="#79619B" d="M302.814 820.395c4.446-17.977 16.27-103.333 12.596-119.619-1.872-8.299-30.532-5.368-33.971 12.971-10.754 57.344-7.914 88.768-4.497 91.984 6.506 6.122 23.503 24.244 25.872 14.664z"/>
<path class="msl" id="left-semimembranosus" fill="#542A91" d="M303.072 848.948c.742-5.367-4.029-13.856-9.246-17.331-7.454-4.966-11.831-10.033-20.018-18.137-2.537-2.511-2.445 12.657-1.381 20.992 2.612 20.46 14.644 43.601 21.688 55.734 1.512 2.604 5.811 1.757 6.03-1.185 1.117-15.024 1.01-26.207 2.927-40.073z"/>
<g id="left-palm" fill="#CCC">
  <path d="M21.353 641.779c-5.023-.008-10.701-3.931-7.207-5.897s26.928-19.238 32.318-24.555c6.388-6.301 15.25-9.518 17.87-9.082 2.621.437 6.593 7.867 2.443 12.016-4.148 4.15-35.84 27.534-45.424 27.518z"/>
  <path d="M53.745 649.53c-2.64-3.172 1.68-11.103 8.641-20.846s17.282-23.112 19.442-24.019 10.093-.396 12.974.51c2.88.906 7.564 1.046 7.324 7.617-.24 6.571 2.265 19.064.105 28.127-2.16 9.064-7.921 25.378-12.962 30.816s-12.241 1.133-16.322-2.492c-1.837-1.633-4.327-6.413-7.441-9.517-3.801-3.788-8.368-6.12-11.761-10.196z"/>
  <path d="M71.584 707.631c-1.306-.688-.549-7.142 2.564-14.65s8.973-17.58 10.255-15.565c1.282 2.014-.916 12.635-2.747 17.213-1.832 4.579-6.593 14.833-10.072 13.002z"/>
  <path d="M53.931 717.044c-2.543-1.271-2.014-6.592-.549-9.522s11.72-28.933 13.551-32.779c1.831-3.846 3.479-4.761 4.944-2.93 1.465 1.831 2.747 5.494.183 12.635-2.564 7.142-9.156 23.622-11.537 28.017-2.38 4.396-4.761 5.494-6.592 4.579z"/>
  <path d="M37.119 717.503c-2.73-1.403-1.774-9.429.876-15.358 2.651-5.93 15.846-34.297 18.015-37.681 2.169-3.385 3.774-2.396 4.822-1.249 1.048 1.147 4.059 3.483 1.774 9.429s-13.685 31.095-16.685 36.642c-2.999 5.546-4.503 10.427-8.802 8.217z"/>
  <path d="M26.866 702.194c-1.839-.714-2.076-7.298.976-14.434 3.052-7.135 15.596-29.78 17.292-33.152 1.696-3.373 7.079-1.54 7.076 1.213-.003 2.753-1.163 6.345-2.689 9.913-1.526 3.568-11.741 24.351-13.852 28.429-2.112 4.079-5.942 9.142-8.803 8.031z"/>
</g>
<path class="msl" id="left-vastus-lateralis-back" fill="#9486A4" d="M230.701 731.069s-21.483 14.598-24.552 33.283c-3.069 18.685-9.749 64.042 15.571 97.325 0-51.762 5.05-100.367 8.981-130.608z"/>
<path class="msl" id="right-stemocleidomastoid-back" fill="#912836" d="M382.875 130.147s-.215 15.729 1.293 26.933c.871 6.47 3.682 13.011 6.316 17.924 1.284 2.394 4.884 1.64 5.085-1.07 1.093-14.729 3.803-31.613 1.832-36.091-2.37-5.387-11.079-5.541-14.526-7.696z"/>
<g class="msl" id="right-trapezius" fill="#CE876B">
  <path d="M375.443 129.454s-17.343-2.756-20.144-1.679c-.854 59.186 14.975 101.872 15.19 105.535 8.834-4.525 48.131-16.044 86.458-11.587-12.497-6.895-44.907-23.178-61.361-33.937-10.911-7.133-16.696-17.824-20.143-58.332z"/>
  <path d="M488.49 238.04s-33.732-11.566-56.171-10.627c-34.187 1.43-67.294 17.473-71.603 26.523-4.309 9.049-3.016 24.563-3.016 32.535v59.468c0 11.635 0 24.347 3.878 23.055 3.878-1.293 30.38-18.53 40.723-40.938 10.342-22.408 16.186-50.222 34.549-69.57 12.917-13.612 34.403-18.292 51.64-20.446z"/>
</g>
<path class="msl" id="right-deltoid-posterior-head" fill="#E4CFA3" d="M461.343 252.614s24.445 25.396 58.719 39.777c20.11 8.438 49.124 38.046 54.032 40.06 4.909 2.014 7.013-25.739 1.688-43.234-9.386-30.84-37.449-49.443-64.656-49.443-21.782 0-48.556 9.064-49.783 12.84z"/>
<path class="msl" id="right-triceps-long-head" fill="#E6B39A" d="M511.854 295.549s-.367 29.167-1.262 48.944c-.87 19.231-3.447 30.715-6.305 43.091-2.316 10.031 23.385 19.568 41.529 23.692 4.53 1.03 9.991-2.328 9.144-6.896-9.531-51.414 7.781-56.135-5.928-82.019-7.437-14.044-33.907-25.177-37.178-26.812z"/>
<path class="msl" id="right-triceps-lateral-head" fill="#E6B39A" d="M595.295 414.128s1.937-6.277-2.035-31.514c-3.972-25.237-15.877-41.635-17.959-43.049-16.409-11.137-14.892 7.064 1.793 32.85 11.253 17.391 17.267 42.414 18.201 41.713z"/>
<path class="msl" id="right-triceps-medial-head" fill="#E6B39A" d="M505.252 401.808c-8.437-6.661 12.997 33.11 16.802 34.251 19.387 5.816 64.894 18.015 28.435-14.864-7.307-6.589-32.959-9.694-45.237-19.387z"/>
<path id="right-cubit" fill="#CCC" d="M588.021 445.616s-.813-15.388-6.779-25.423-21.421-6.913-20.608-2.453c.814 4.46 14.914 21.854 27.387 27.876z"/>
<path class="msl" id="right-extensor-carpi-ulnaris" fill="#DCC91E" d="M595.933 443.795s-2.242 9.7 7.069 40.646 7.569 75.916 9.486 86.048c1.917 10.133 4.396 11.157 6.313 10.062 1.917-1.095 3.221-3.52 1.917-13.145-3.579-26.414.405-69.123-5.346-84.732-5.751-15.61-16.427-41.892-19.439-38.879z"/>
<path class="msl" id="right-flexor-carpi-ulnaris" fill="#C23438" d="M572.076 449.096c-12.002 2.593-11.326 31.196-5.302 50.366 5.099 16.225 22.888 63.05 36.868 86.518 1.87 3.139 6.699 1.613 6.432-2.032-1.687-23.036-5.804-62.005-7.955-77.417-5.302-37.995-14.409-60.813-30.043-57.435z"/>
<path class="msl" id="right-brachioradialis-back" fill="#E27546" d="M592.069 586.624s-12.597-23.278-18.622-39.983-20.876-69.632-13.941-90.437c2.306-6.918-4.1-2.413-19.357-6.574-3.847-1.049-7.69 29.459.632 61.36 4.595 17.614 16.878 28.849 24.273 39.529 7.394 10.681 24.002 39.939 27.015 36.105z"/>
<path class="msl" id="right-latissimus-dorsi" fill="#D4B6C6" d="M435.981 354.569c-12.527-3.986-28.579-19.79-35.303-12.527-6.725 7.263-7.597 13.78-18.088 22.118-10.49 8.339-27.198 22.565-29.08 27.137s-4.391 31.443 4.485 55.383 47.974 39.726 55.472 63.622c18.461 6.627 21.918-22.019 39.526-34.686 10.254-7.377 20.692-15.467 28.352-27.688 11.594-18.497 16.776-47.699 17.554-72.832.279-9.047-24.793-8.396-62.918-20.527z"/>
<path class="msl" id="right-external-oblique-back" fill="#752252" d="M459.699 478.905c-.106-1.644-12.99 9.7-15.418 16.337-4.145 11.333-13.635 13.416-12.103 18.155 2.089 2.288 17.61 7.975 26.714 14.411 2.058 1.455 1.076-44.711.807-48.903z"/>
<path class="msl" id="right-gluteus-medius" fill="#D94D5E" d="M469.51 615.175c2.3 1.823 5.711.479 6.191-2.415 1.148-6.923 2.697-19.796-.06-27.263-2.603-7.051-14.495-14.359-18.375-22.763s.255-17.903 1.097-22.488c2.334-12.709-29.391-22.495-45.525-25.779-44.089-8.974-45.982 46.04-46.357 50.057 60.433-14.307 87.949 38.701 103.029 50.651z"/>
<path class="msl" id="right-gluteus-maximus" fill="#E7894B" d="M363.121 575.22c-9.59 8.966-9.428 44.994-9.428 50.591s-7.124 41.706 10.103 50.859c15.678 8.33 37.755 10.23 58.386 17.794 14.264 5.229 22.513 11.402 32.605 17.141 5.204 2.959 25.687 14.057 23.565 7.885-12.44-36.173.302-45.986-12.874-88.498-7.973-25.724-28.315-43.579-49.29-54.2-19.128-9.686-40.783-13.056-53.067-1.572z"/>
<path class="msl" id="right-biceps-femoris" fill="#7FAEDD" d="M465.805 864.602c18.956 54.766 4.874-131.11-4.762-139.885-14.209-12.939-41.071-24.307-36.655-18.855 4.415 5.452 15.703 88.253 14.082 171.636-.562 28.9.763 40.286 8.114 19.473 5.19-14.695 14.796-45.154 19.221-32.369z"/>
<path class="msl" id="right-adductor-magnus" fill="#4D7CC2" d="M378.296 751.621c-.072-2.884 3.75-3.151 4.15-.29 3.984 28.502 9.873 74.478 12.546 114.418 2.232 33.357 9.154 61.862 1.783 63.858-10.473 2.835-17.069-121.235-18.479-177.986z"/>
<path class="msl" id="right-grasilis-back" fill="#79619B" d="M387.589 941.04s-17.721-102.301-11.338-234.721c.474-9.838 4.382-13.816-2.858-17.816-7.24-4-13.855.927-14.257 6.927-.402 6 1.067 60.725 1.872 79.927s3.975 55.565 7.595 71.166c3.619 15.601 11.781 96.167 18.986 94.517z"/>
<g class="msl" id="right-gastrocnemius" fill="#95BA3E">
  <path d="M440.889 1054.347c3.793-.387 23.064-20.708 28.189-27.466 5.125-6.758 4.271-20.926 0-33.787s-11.391-39.376-14.381-47.441c-2.99-8.065-22.718-29.209-19.473-12.17 1.087 5.708 5.238 40.429 2.248 59.175s-8.969 44.032-10.251 47.738 0 4.796 1.281 7.193 10.252 6.976 12.387 6.758z"/>
  <path d="M383.657 1059.142c5.513.366 33.314-10.463 33.314-20.054s7.261-47.52 9.823-61.689c2.563-14.169 1.734-56.069-7.892-76.381-9.293-19.61-7.936 2.631-10.463 16.276-5.813 31.389-24.503 44.004-35.727 80.668-7.025 22.952-8.978 59.859 10.945 61.18z"/>
</g>
<path id="right-ankle" fill="#CCC" d="M391.98 1242.002s-8.256 18.383-9.288 27.414c-1.032 9.03-4.644 18.061 7.224 19.996 11.868 1.935 42.312.323 51.601-.645 9.288-.968 7.74-4.838 4.128-13.546-3.612-8.708-19.608-34.509-22.188-37.089 4.128 17.416 3.096 43.217-9.804 43.217-15.481 0-21.673-39.347-21.673-39.347z"/>
<path class="msl" id="right-infraspinatus" fill="#DE558F" d="M457.687 337.17c-3.322 3.036-7.282 6.604-10.176 9.07-1.832 1.561-4.931.822-5.802-1.386-8.691-22.032-10.093-40.244-9.452-52.446.353-6.712 1.325-12.247 2.341-16.453 1.341-2.144 2.625-3.92 3.809-5.171 13.103-13.849 25.069-10.678 32.855-1.11 2.043 2.511 4.154 5.1 6.271 7.704 1.729 2.126 2.477 4.74 2.081 7.285-1.775 11.394-5.635 27.703-14.013 42.624-2.052 3.654-4.733 6.976-7.914 9.883z"/>
<path class="msl" id="right-teres-minor" fill="#AB416E" d="M475.856 316.131c3.613-9.018 5.884-17.854 7.312-25.333.377-1.973 3.217-2.48 4.551-.812 4.802 6.006 9.059 11.463 11.911 15.443.851 1.187.362 2.734-1.039 3.268-5.05 1.923-11.346 5.041-18.736 10.09-1.998 1.365-4.854-.521-3.999-2.656z"/>
<path class="msl" id="right-rhomboid-major" fill="#D18E91" d="M413.72 324.236c2.03-6.365 6.055-17.236 10.574-27.682.738-1.706 3.273-1.169 3.266.69-.048 12.405 2.028 27.987 8.808 46.04.512 1.364-1.016 2.57-2.462 1.937a398.774 398.774 0 01-4.883-2.178c-8.49-3.853-17.726-11.211-15.303-18.807z"/>
<path class="msl" id="right-teres-major" fill="#EDA1A4" d="M494.619 314.98a69.214 69.214 0 014.78-2.133c1.929-.772 4.187.555 4.189 2.48.013 11.818-5.257 40.202-14.2 41.675-11.148 1.837-22.976-.14-34.632-3.782-2.296-.717-3.142-3.286-1.64-4.915 17.796-19.296 32.163-28.742 41.503-33.325z"/>
<g class="msl" id="right-soleus" fill="#C1C058">
  <path d="M391.419 1110.198c.427-13.445 1.497-27.685-6.481-36.333-5.491-5.953-13.729-17.976-17.463-16.044-3.674 1.9 2.285 22.483 10.202 40.694 5.655 13.007 7.117 26.359 9.252 44.606s4.063-19.477 4.49-32.923z"/>
  <path d="M436.296 1104.017c-7.148 9.025-12.56 14.636-18.489 21.485 3.786-20.061 3.369-37.983 5.788-45.234 3.417-10.244 12.003-17.402 19.732-20.128 8.329-2.938 21.919-23.819 18.4-12.881-1.732 5.385-7.408 16.503-15.205 37.67-2.075 5.633-6.247 14.064-10.226 19.088z"/>
</g>
<path class="msl" id="right-peroneus-brevis" fill="#95BA3E" d="M424.444 1125.35c4.752-5.734 12.346-13.965 17.441-20.416-4.855 13.962-10.82 32.016-14.08 45.32-5.534 22.586-5.28 58.96-12.609 55.916 2.253-32.854 7.383-68.487 9.248-80.82z"/>
<path class="msl" id="right-flexor-hallucis-longus" fill="#728F30" d="M409.766 1153.334c.282-2.457.697-5.359 1.212-8.569.769-4.796 7.777-12.407 11.067-16.552-2.868 19.759-11.107 65.88-11.852 98.943-1.853.866-4.779-9.921-4.779-10.972-.002-14.085 2.216-44.282 4.352-62.85z"/>
<path class="msl" id="right-semitendinosus" fill="#79619B" d="M398.718 820.395c-4.446-17.977-16.27-103.333-12.596-119.619 1.872-8.299 30.532-5.368 33.971 12.971 10.754 57.344 7.914 88.768 4.497 91.984-6.506 6.122-23.503 24.244-25.872 14.664z"/>
<path class="msl" id="right-semimembranosus" fill="#542A91" d="M398.46 848.948c-.742-5.367 4.029-13.856 9.246-17.331 7.454-4.966 11.831-10.033 20.018-18.137 2.537-2.511 2.445 12.657 1.381 20.992-2.612 20.46-14.644 43.601-21.688 55.734-1.512 2.604-5.811 1.757-6.03-1.185-1.118-15.024-1.01-26.207-2.927-40.073z"/>
<g id="right-palm" fill="#CCC">
  <path d="M680.179 641.779c5.023-.008 10.701-3.931 7.207-5.897-3.494-1.966-26.928-19.238-32.318-24.555-6.388-6.301-15.25-9.518-17.87-9.082-2.621.437-6.593 7.867-2.443 12.016 4.148 4.15 35.839 27.534 45.424 27.518z"/>
  <path d="M647.786 649.53c2.64-3.172-1.68-11.103-8.641-20.846s-17.282-23.112-19.442-24.019c-2.16-.906-10.093-.396-12.974.51-2.88.906-7.564 1.046-7.324 7.617.24 6.571-2.265 19.064-.105 28.127 2.16 9.064 7.921 25.378 12.961 30.816s12.241 1.133 16.322-2.492c1.837-1.633 4.327-6.413 7.441-9.517 3.802-3.788 8.37-6.12 11.762-10.196z"/>
  <path d="M629.948 707.631c1.306-.688.549-7.142-2.564-14.65s-8.973-17.58-10.255-15.565c-1.282 2.014.916 12.635 2.747 17.213s6.593 14.833 10.072 13.002z"/>
  <path d="M647.601 717.044c2.543-1.271 2.014-6.592.549-9.522s-11.72-28.933-13.551-32.779c-1.831-3.846-3.479-4.761-4.944-2.93s-2.747 5.494-.183 12.635c2.564 7.142 9.156 23.622 11.537 28.017 2.38 4.396 4.761 5.494 6.592 4.579z"/>
  <path d="M664.413 717.503c2.73-1.403 1.774-9.429-.876-15.358-2.651-5.93-15.845-34.297-18.015-37.681s-3.774-2.396-4.822-1.249c-1.048 1.147-4.059 3.483-1.774 9.429s13.685 31.095 16.685 36.642c2.999 5.546 4.502 10.427 8.802 8.217z"/>
  <path d="M674.666 702.194c1.839-.714 2.076-7.298-.976-14.434-3.052-7.135-15.596-29.78-17.292-33.152-1.696-3.373-7.079-1.54-7.076 1.213.003 2.753 1.163 6.345 2.689 9.913 1.526 3.568 11.741 24.351 13.852 28.429 2.112 4.079 5.941 9.142 8.803 8.031z"/>
</g>
<path class="msl" id="right-vastus-lateralis-back" fill="#9486A4" d="M470.83 731.069s21.483 14.598 24.552 33.283 9.749 64.042-15.571 97.325c0-51.762-5.049-100.367-8.981-130.608z"/>
<text id="txt" x="500" y="1200"></text>

<script>
<![CDATA[

function $(sel) {
  return document.querySelector(sel);
}

let msls = document.querySelectorAll(".msl");
for(i=0; i<msls.length; i++) {
  msls[i].addEventListener('click', show_name, false);
}

function show_name(el) {
  let el_id;
  if(el.srcElement.id) {
    el_id = el.srcElement.id;
  }
  if (el.srcElement.parentElement.id) {
    el_id = el.srcElement.parentElement.id;
  }
  for(i=0; i<msls.length; i++) {
    msls[i].classList.remove("active");
    msls[i].classList.add("semi");
  }
  $("#"+el_id).classList.remove("semi");
  $("#"+el_id).classList.add("active");

  let txt = el_id.split("-");
  for (i=0; i<txt.length; i++) {
    if(txt[i] === "left" || txt[i] === "right") {
      txt.splice(i, 1);
    }
  }

  $("#txt").textContent = txt.join(" ");

}

]]>
</script>
</svg>
