<?xml version="1.0" encoding="utf-8"?>
<!-- Generator: Adobe Illustrator 25.0.0, SVG Export Plug-In . SVG Version: 6.00 Build 0)  -->
<svg version="1.1" xmlns="http://www.w3.org/2000/svg" xmlns:xlink="http://www.w3.org/1999/xlink" x="0px" y="0px"
	 viewBox="0 0 2000 2000" enable-background="new 0 0 2000 2000" xml:space="preserve">
<g id="Layer_1">
</g>
<g id="body">
	<path fill="none" stroke="#000000" stroke-miterlimit="10" d="M659.607,352.266c5.701,0.936,23.351,7.944,34.665,25.758
		c11.255,17.721,11.074,41.165,9.388,62.108c1.685,0,9.388,2.889,8.666,6.259c-0.722,3.37-7.944,22.388-9.629,25.758
		s-3.611,3.37-3.611,3.37s-2.407,16.129-2.407,21.184s-9.148,9.629-9.148,9.629s0,9.148,0,16.37
		c4.092,7.463,25.758,20.703,36.35,27.684c10.592,6.981,30.813,9.148,53.201,13.962c22.388,4.815,38.035,32.017,39.961,43.813
		c1.926,11.796,0.722,51.516,0.722,56.09s9.148,27.684,12.277,42.368c3.13,14.685,5.778,43.813,5.537,52.479
		c-0.241,8.666,4.815,13.481,15.647,26.48s22.629,33.221,30.573,62.349s27.925,68.127,31.465,72.766
		c3.54,4.639,11.975,14.488,13.898,17.265c1.923,2.777,13.459,1.068,20.082,7.477c6.623,6.409,26.919,19.869,31.619,22.219
		c4.7,2.35,15.169,6.623,8.118,14.1c-7.05,7.477-25.514-3.579-37.956-11.827c2.516,2.656,6.85,12.862,8.388,20.271
		c0.656,3.16,15.238,38.306,17.895,48.092s-7.13,9.926-9.786,5.452c-2.656-4.474-22.368-45.296-22.368-45.296
		s19.816,44.334,23.487,52.286c5.033,10.905-5.312,14.4-10.066,6.99c-2.062-3.214-22.928-48.791-22.928-48.791
		s16.636,38.166,19.712,45.296c3.076,7.13-4.613,12.722-9.227,4.613c-2.566-4.511-19.983-42.518-19.983-42.518
		s6.544,17.414,8.38,23.225c1.835,5.811,2.991,10.695-0.121,11.949c-3.653,1.472-7.234-1.653-17.633-25.51
		c-10.399-23.857-12.582-32.574-14.788-46.367c-2.027-12.678-6.117-25.692-11.011-33.95c-4.894-8.258-21.41-29.057-52.914-66.066
		c-31.504-37.009-40.373-62.089-45.267-92.675c-8.564-16.822-21.104-40.985-26.304-68.513c-1.223,6.423-18.963,52.302-25.386,61.478
		s-5.2,13.764-5.505,22.94c-0.306,9.176-0.065,45.41,1.758,51.609s12.58,37.193,13.719,48.969s6.458,50.145,7.598,61.541
		s3.039,68.379,3.799,90.792s-0.38,84.334-6.078,104.848c-5.698,20.514-14.436,56.603-15.195,68.379s-7.218,24.312-5.698,31.91
		s9.877,51.284,11.396,60.401s2.279,41.407-8.737,69.139s-26.123,95.694-29.818,115.647c-3.695,19.953-2.71,41.876-2.71,41.876
		s4.68,6.897,4.68,13.055c0,6.158-1.724,12.809,3.941,19.214s10.592,14.533,13.302,21.923c2.71,7.39,11.331,14.041,16.011,16.75
		c4.68,2.71,0.985,13.794-5.419,13.794c-6.405,0-44.832,0-53.7,0s-12.809-4.188-14.78-11.578s1.232-27.589,2.217-34.979
		c0.985-7.39,2.463-15.272,2.463-15.272c-1.266-2.571-2.022-13.163-0.617-17.27c1.405-4.107,1.945-10.051,1.837-14.807
		c-0.108-4.756-1.286-62.158-3.95-73.633c-2.664-11.474-9.016-49.688-9.835-73.969c-0.82-24.281,5.122-69.564,8.196-83.497
		c3.073-13.933,5.327-26.842,5.737-31.76s3.483-13.728,3.483-22.744s-0.82-27.866-2.869-39.136
		c-2.049-11.27-7.991-42.824-9.221-63.314c-1.229-20.49-7.991-80.526-9.22-93.639c-1.229-13.114-7.991-44.873-7.991-44.873
		s-6.762,31.76-7.991,44.873c-1.229,13.114-7.991,73.149-9.221,93.639s-7.172,52.045-9.221,63.314
		c-2.049,11.269-2.869,30.12-2.869,39.136s3.073,17.826,3.483,22.744c0.41,4.918,2.664,17.826,5.737,31.76
		c3.073,13.933,9.016,59.216,8.196,83.497c-0.82,24.281-7.172,62.495-9.835,73.969c-2.664,11.474-3.842,68.877-3.95,73.633
		c-0.108,4.755,0.432,10.7,1.837,14.807s0.648,14.699-0.617,17.27c0,0,1.478,7.883,2.463,15.272s4.188,27.589,2.217,34.979
		s-5.912,11.578-14.78,11.578s-47.295,0-53.7,0s-10.099-11.085-5.419-13.794s13.302-9.361,16.011-16.75
		c2.71-7.39,7.636-15.519,13.302-21.923s3.941-13.055,3.941-19.214c0-6.158,4.68-13.055,4.68-13.055s0.985-21.923-2.71-41.876
		s-18.801-87.916-29.818-115.647s-10.257-60.021-8.737-69.139s9.877-52.804,11.396-60.401s-4.938-20.134-5.698-31.91
		s-9.497-47.865-15.195-68.379c-5.698-20.514-6.838-82.435-6.078-104.848s2.659-79.396,3.799-90.792s6.458-49.765,7.598-61.541
		s11.896-42.77,13.719-48.969c1.823-6.199,2.064-42.433,1.758-51.609c-0.306-9.176,0.918-13.764-5.505-22.94
		c-6.423-9.176-24.163-55.055-25.386-61.478c-5.2,27.527-17.74,51.69-26.304,68.513c-4.894,30.586-13.764,55.666-45.267,92.675
		s-48.02,57.807-52.914,66.066c-4.894,8.258-8.984,21.273-11.011,33.95c-2.205,13.793-4.388,22.51-14.788,46.367
		c-10.399,23.857-13.98,26.982-17.633,25.51c-3.113-1.254-1.957-6.138-0.121-11.949c1.835-5.811,8.38-23.225,8.38-23.225
		s-17.417,38.007-19.983,42.518c-4.613,8.109-12.303,2.516-9.227-4.613s19.712-45.296,19.712-45.296s-20.866,45.577-22.928,48.791
		c-4.753,7.41-15.099,3.914-10.066-6.99c3.67-7.952,23.487-52.286,23.487-52.286s-19.712,40.822-22.368,45.296
		c-2.656,4.474-12.442,4.334-9.786-5.452c2.656-9.786,17.239-44.932,17.895-48.092c1.538-7.41,5.872-17.615,8.388-20.271
		c-12.442,8.248-30.906,19.305-37.956,11.827c-7.05-7.477,3.418-11.75,8.118-14.1c4.7-2.35,24.996-15.81,31.619-22.219
		c6.623-6.409,18.16-4.7,20.082-7.477c1.923-2.777,10.357-12.626,13.898-17.265c3.54-4.639,23.521-43.637,31.465-72.766
		c7.944-29.128,19.74-49.35,30.573-62.349c10.833-12.999,15.888-17.814,15.647-26.48c-0.241-8.666,2.407-37.795,5.537-52.479
		s12.277-37.795,12.277-42.368s-1.204-44.294,0.722-56.09c1.926-11.796,17.573-38.998,39.961-43.813
		c22.388-4.815,42.609-6.981,53.201-13.962c10.592-6.981,32.258-20.221,36.35-27.684c0-7.222,0-16.37,0-16.37
		s-9.148-4.574-9.148-9.629s-2.407-21.184-2.407-21.184s-1.926,0-3.611-3.37c-1.685-3.37-8.907-22.388-9.629-25.758
		c-0.722-3.37,6.981-6.259,8.666-6.259c-1.685-20.943-1.867-44.387,9.388-62.108c11.314-17.814,27.946-24.591,34.665-25.758
		C641.96,351.264,653.786,351.31,659.607,352.266z"/>
	<path fill="none" stroke="#000000" stroke-miterlimit="10" d="M1366.034,352.266c5.701,0.936,23.351,7.944,34.665,25.758
		c11.255,17.721,11.073,41.165,9.388,62.108c1.685,0,9.388,2.889,8.666,6.259c-0.722,3.37-7.944,22.388-9.629,25.758
		c-1.685,3.37-3.611,3.37-3.611,3.37s-2.407,16.129-2.407,21.184s-9.148,9.629-9.148,9.629s0,9.148,0,16.37
		c4.092,7.463,25.758,20.703,36.35,27.684c10.592,6.981,30.813,9.148,53.201,13.962c22.388,4.815,38.035,32.017,39.961,43.813
		c1.926,11.796,0.722,51.516,0.722,56.09s9.148,27.684,12.277,42.368s5.778,43.813,5.537,52.479
		c-0.241,8.666,4.815,13.481,15.647,26.48c10.833,12.999,22.629,33.221,30.573,62.349s27.925,68.127,31.465,72.766
		c3.54,4.639,11.975,14.488,13.898,17.265c1.923,2.777,13.459,1.068,20.082,7.477c6.623,6.409,26.919,19.869,31.619,22.219
		c4.7,2.35,15.168,6.623,8.118,14.1c-7.05,7.477-25.514-3.579-37.956-11.827c2.516,2.656,6.85,12.862,8.388,20.271
		c0.656,3.16,15.238,38.306,17.895,48.092s-7.13,9.926-9.786,5.452c-2.656-4.474-22.368-45.296-22.368-45.296
		s19.816,44.334,23.487,52.286c5.033,10.905-5.312,14.4-10.066,6.99c-2.062-3.214-22.927-48.791-22.927-48.791
		s16.636,38.166,19.712,45.296c3.076,7.13-4.613,12.722-9.227,4.613c-2.566-4.511-19.983-42.518-19.983-42.518
		s6.544,17.414,8.38,23.225c1.835,5.811,2.991,10.695-0.121,11.949c-3.653,1.472-7.234-1.653-17.633-25.51
		c-10.399-23.857-12.582-32.574-14.788-46.367c-2.027-12.678-6.117-25.692-11.011-33.95c-4.894-8.258-21.41-29.057-52.914-66.066
		s-40.373-62.089-45.267-92.675c-8.564-16.822-21.104-40.985-26.304-68.513c-1.223,6.423-18.963,52.302-25.386,61.478
		c-6.423,9.176-5.2,13.764-5.505,22.94c-0.306,9.176-0.065,45.41,1.758,51.609c1.823,6.199,12.58,37.193,13.719,48.969
		s6.458,50.145,7.598,61.541s3.039,68.379,3.799,90.792s-0.38,84.334-6.078,104.848c-5.698,20.514-14.436,56.603-15.195,68.379
		s-7.218,24.312-5.698,31.91s9.877,51.284,11.396,60.401s2.279,41.407-8.737,69.139s-26.123,95.694-29.818,115.647
		c-3.695,19.953-2.71,41.876-2.71,41.876s4.68,6.897,4.68,13.055c0,6.158-1.724,12.809,3.941,19.214
		c5.666,6.405,10.592,14.533,13.302,21.923c2.71,7.39,11.331,14.041,16.011,16.75c4.68,2.71,0.985,13.794-5.419,13.794
		s-44.832,0-53.7,0c-8.868,0-12.809-4.188-14.78-11.578c-1.971-7.39,1.232-27.589,2.217-34.979s2.463-15.272,2.463-15.272
		c-1.266-2.571-2.022-13.163-0.617-17.27c1.405-4.107,1.946-10.051,1.837-14.807c-0.108-4.756-1.286-62.158-3.95-73.633
		c-2.664-11.474-9.016-49.688-9.835-73.969c-0.82-24.281,5.123-69.564,8.196-83.497c3.073-13.933,5.327-26.842,5.737-31.76
		s3.483-13.728,3.483-22.744s-0.82-27.866-2.869-39.136c-2.049-11.27-7.991-42.824-9.221-63.314
		c-1.229-20.49-7.991-80.526-9.22-93.639c-1.229-13.114-7.991-44.873-7.991-44.873s-6.762,31.76-7.991,44.873
		c-1.229,13.114-7.991,73.149-9.221,93.639s-7.172,52.045-9.22,63.314c-2.049,11.269-2.869,30.12-2.869,39.136
		s3.073,17.826,3.483,22.744c0.41,4.918,2.664,17.826,5.737,31.76c3.073,13.933,9.016,59.216,8.196,83.497
		c-0.82,24.281-7.172,62.495-9.835,73.969c-2.664,11.474-3.842,68.877-3.95,73.633c-0.108,4.755,0.432,10.7,1.837,14.807
		s0.649,14.699-0.617,17.27c0,0,1.478,7.883,2.463,15.272c0.985,7.39,4.188,27.589,2.217,34.979
		c-1.971,7.39-5.912,11.578-14.78,11.578c-8.868,0-47.295,0-53.7,0c-6.405,0-10.099-11.085-5.419-13.794
		c4.68-2.71,13.302-9.361,16.011-16.75c2.71-7.39,7.636-15.519,13.302-21.923c5.666-6.405,3.941-13.055,3.941-19.214
		c0-6.158,4.68-13.055,4.68-13.055s0.985-21.923-2.71-41.876s-18.801-87.916-29.818-115.647s-10.257-60.021-8.737-69.139
		s9.877-52.804,11.396-60.401s-4.938-20.134-5.698-31.91s-9.497-47.865-15.195-68.379c-5.698-20.514-6.838-82.435-6.078-104.848
		s2.659-79.396,3.799-90.792s6.458-49.765,7.598-61.541s11.896-42.77,13.719-48.969c1.823-6.199,2.064-42.433,1.758-51.609
		c-0.306-9.176,0.918-13.764-5.505-22.94c-6.423-9.176-24.163-55.055-25.386-61.478c-5.2,27.527-17.74,51.69-26.304,68.513
		c-4.894,30.586-13.764,55.666-45.267,92.675s-48.02,57.807-52.914,66.066c-4.894,8.258-8.984,21.273-11.011,33.95
		c-2.205,13.793-4.388,22.51-14.788,46.367c-10.399,23.857-13.98,26.982-17.634,25.51c-3.113-1.254-1.957-6.138-0.121-11.949
		c1.835-5.811,8.38-23.225,8.38-23.225s-17.417,38.007-19.983,42.518c-4.613,8.109-12.302,2.516-9.227-4.613
		c3.076-7.13,19.712-45.296,19.712-45.296s-20.866,45.577-22.928,48.791c-4.753,7.41-15.099,3.914-10.066-6.99
		c3.67-7.952,23.487-52.286,23.487-52.286s-19.712,40.822-22.368,45.296c-2.656,4.474-12.442,4.334-9.786-5.452
		c2.656-9.786,17.239-44.932,17.895-48.092c1.538-7.41,5.872-17.615,8.388-20.271c-12.442,8.248-30.906,19.305-37.956,11.827
		c-7.05-7.477,3.418-11.75,8.118-14.1c4.7-2.35,24.996-15.81,31.619-22.219c6.623-6.409,18.16-4.7,20.082-7.477
		c1.923-2.777,10.357-12.626,13.898-17.265c3.54-4.639,23.521-43.637,31.465-72.766s19.74-49.35,30.573-62.349
		c10.833-12.999,15.888-17.814,15.647-26.48c-0.241-8.666,2.407-37.795,5.537-52.479c3.13-14.685,12.277-37.795,12.277-42.368
		s-1.204-44.294,0.722-56.09c1.926-11.796,17.573-38.998,39.961-43.813c22.388-4.815,42.609-6.981,53.201-13.962
		c10.592-6.981,32.258-20.221,36.35-27.684c0-7.222,0-16.37,0-16.37s-9.148-4.574-9.148-9.629s-2.407-21.184-2.407-21.184
		s-1.926,0-3.611-3.37c-1.685-3.37-8.907-22.388-9.629-25.758c-0.722-3.37,6.981-6.259,8.666-6.259
		c-1.685-20.943-1.867-44.387,9.388-62.108c11.314-17.814,27.946-24.591,34.665-25.758
		C1348.388,351.264,1360.213,351.31,1366.034,352.266z"/>
</g>
<g id="inactive">
	<path opacity="0.15" fill="#CCCCCC" d="M609.412,1606.097c4.472,0,8.012,8.944,9.13,13.229s0.559,9.689-3.168,9.689
		s-5.963,0-7.64,0c-1.677,0-4.286-2.236-3.354-10.434C605.313,1610.383,606.617,1606.097,609.412,1606.097z"/>
	<path opacity="0.15" fill="#CCCCCC" d="M586.68,1588.396c0,0,12.111,7.826,14.347,11.366c2.236,3.54,2.609,8.944,0.745,17.142
		s-3.913,12.298-3.913,12.298s-17.766,1.167-32.421-2.05c-7.64-1.677,0-10.248,3.168-14.347S586.68,1588.396,586.68,1588.396z"/>
	<path opacity="0.15" fill="#CCCCCC" d="M621.337,1613.737c0,0-11.739-16.77-18.819-23.105s-13.043-9.689-13.416-12.298
		c-0.373-2.609,2.609-8.012,3.727-14.534c1.118-6.521,0-23.478,4.658-23.478s13.788,10.248,19.565,24.409
		C622.828,1578.893,623.573,1589.514,621.337,1613.737z"/>
	<path opacity="0.15" fill="#CCCCCC" d="M618.915,1559.701c0,0-8.199-17.888-12.67-24.223c-4.472-6.335-7.453-10.248-4.845-14.347
		c2.609-4.099,6.708-0.932,8.012,0c1.304,0.932,9.316,6.708,9.316,11.18C618.728,1536.782,618.915,1559.701,618.915,1559.701z"/>
	<path opacity="0.15" fill="#CCCCCC" d="M600.258,1323.546c0,0-2.921-27.636,1.348-40.893c4.269-13.256,9.437-28.535,10.785-36.399
		c1.348-7.864,2.247-22.019,2.247-22.019s4.044,13.032,3.82,28.086c-0.225,15.054-6.291,37.522-9.886,46.285
		C604.976,1307.369,600.483,1315.008,600.258,1323.546z"/>
	<path opacity="0.15" fill="#CCCCCC" d="M596.214,1266.926c-1.797,0-10.336-19.548-12.358-26.738s-1.348-14.38,9.437-14.38
		s13.256,2.921,12.582,10.336C605.201,1243.558,599.809,1266.926,596.214,1266.926z"/>
	<path opacity="0.15" fill="#CCCCCC" d="M586.777,1273.891c0,0-10.785-6.291-15.279-8.763s-4.943-9.437-5.168-13.481
		c-0.225-4.044-5.168-38.646-4.943-45.162c4.943,13.706,12.807,33.253,16.627,40.219
		C581.834,1253.669,586.777,1267.824,586.777,1273.891z"/>
	<path opacity="0.15" fill="#B4A7C7" d="M575.318,1216.821c-3.576,0.37-17.525-39.545-21.57-51.453
		c-4.044-11.908-13.706-46.735-14.38-74.146c-0.674-27.412,0.225-43.814,0.899-57.07c0.674-13.256,0.225-26.962,2.247-26.962
		s2.022,12.133,6.741,33.927c4.718,21.794,20.446,86.729,22.693,93.694c2.247,6.965,6.516,25.389,6.516,34.152
		C578.463,1177.726,581.834,1216.147,575.318,1216.821z"/>
	<path opacity="0.15" fill="#7EACD8" d="M591.495,1212.327c-3.781-0.54-5.168-4.269-4.494-12.582s-1.348-48.981-2.022-51.678
		c-0.674-2.696-18.424-51.678-22.019-62.912s-15.054-53.924-16.627-83.808c-1.573-29.883-0.449-43.14,0.449-55.722
		c0.899-12.582,1.797-19.772,2.696-25.389c0.959-5.994,2.022-9.886,3.595-4.494c1.573,5.392,13.93,39.32,17.301,56.171
		s16.508,49.166,20.896,63.361c7.639,24.715,11.01,46.959,11.459,68.304c0.449,21.345,0.225,46.959-0.899,63.811
		C600.707,1184.242,599.359,1213.451,591.495,1212.327z"/>
	<path opacity="0.15" fill="#644899" d="M610.818,1220.865c-5.244-0.095-7.415-11.459-5.617-31.681s4.494-34.826,4.718-42.016
		c0.225-7.19-1.348-36.624-2.022-47.409c-0.674-10.785,0-15.279,2.022-15.054c2.022,0.225,4.494,10.111,7.415,25.614
		c2.921,15.503,8.089,40.443,7.639,58.643C624.524,1187.162,623.176,1221.09,610.818,1220.865z"/>
	<path opacity="0.15" fill="#388BC0" d="M627.22,1125.599c0,0-8.656-41.879-21.794-73.023
		c-9.098-21.567-51.323-131.724-40.109-142.938c3.867,18.56,24.747,46.401,32.867,63.414c8.12,17.013,22.427,51.427,26.68,83.521
		C629.117,1088.667,628.803,1125.41,627.22,1125.599z"/>
	<path opacity="0.15" fill="#661A87" d="M642.471,966.656c0,0,0.226,25.972-1.581,46.525c-1.807,20.552-8.13,44.04-11.292,43.814
		s-2.258-21.004-2.258-24.391c0-3.388-10.163-13.325-6.775-21.004C623.951,1003.921,642.471,966.656,642.471,966.656z"/>
	<path opacity="0.15" fill="#DB8181" d="M629.956,948.295c-6.438,1.463-11.225-7.184-15.49-18.858
		c-4.265-11.674-16.388-66.451-18.633-82.39s2.245-15.266,9.429-15.49c7.184-0.224,15.041,3.143,21.776,7.633
		c6.735,4.49,9.653,9.878,9.878,20.654c0.224,10.776,1.347,67.124,1.571,75.879C638.711,944.478,634.894,947.172,629.956,948.295z"
		/>
	<path opacity="0.15" fill="#99005A" d="M568.668,897.334c-3.673-1.624-5.388-5.388-4.939-11.674
		c0.449-6.286,1.571-48.042,1.571-59.267s-2.02-31.654,3.592-28.286s14.592,11.449,14.592,16.613c0,5.163,2.245,52.532,2.469,61.063
		s2.918,21.103,2.02,24.245C587.077,903.171,580.342,902.498,568.668,897.334z"/>
	<path opacity="0.15" fill="#DB8181" d="M636.915,828.863c-2.224-0.741-12.572-6.959-16.837-6.959s-26.49,2.469-27.388-3.367
		c-0.898-5.837-1.347-23.123,1.796-25.592c3.143-2.469,15.266-9.204,28.735-8.082c13.47,1.122,15.715,4.49,15.939,7.857
		S640.956,830.21,636.915,828.863z"/>
	<path opacity="0.15" fill="#E6678D" d="M551.538,746.495c0.596-1.191,2.955,1.662,6.463,7.017
		c3.509,5.355,12.557,11.449,16.251,12.742c3.693,1.293,2.216,3.878,2.401,6.833c0.185,2.955,0,8.31,0,11.449
		c0,3.139-3.878,2.77-6.463,1.293c-2.585-1.477-12.742-9.233-13.85-14.773C555.231,765.516,550.43,748.711,551.538,746.495z"/>
	<path opacity="0.15" fill="#DB8181" d="M595.673,776.411c0,0-4.617-12.927-2.585-18.282c2.031-5.355,11.449-18.651,25.299-22.16
		c13.85-3.509,21.421-0.923,21.421,1.847c0,2.77,1.293,26.592-2.216,32.501c-3.509,5.909-16.435,2.216-25.484,2.216
		C603.06,772.533,597.335,776.965,595.673,776.411z"/>
	<path opacity="0.15" fill="#DB8181" d="M592.534,738.185c0,0-0.369-16.066,3.139-23.453c3.509-7.387,16.435-18.282,29.916-19.205
		c13.481-0.923,15.143,1.477,14.958,7.017c-0.185,5.54,0.739,19.759-5.171,20.313c-5.909,0.554-22.16,2.216-28.993,4.801
		C599.551,730.245,592.719,741.14,592.534,738.185z"/>
	<path opacity="0.15" fill="#E6678D" d="M573.328,753.328c-2.211-0.147-16.435-17.728-18.282-24.191s0.739-7.202,6.094-4.617
		c5.355,2.585,12.557,7.202,13.296,10.157C575.175,737.631,576.099,753.513,573.328,753.328z"/>
	<path opacity="0.15" fill="#E6678D" d="M575.991,724.75c-2.68-0.096-14.174-8.811-19.153-17.43c-4.98-8.619,2.49-7.278,5.746-6.321
		c3.256,0.958,15.323,4.597,16.089,8.427C579.439,713.258,581.354,724.941,575.991,724.75z"/>
	<path opacity="0.15" fill="#E6678D" d="M580.78,699.85c-3.432-0.327-23.367-12.258-25.857-18.579
		c-2.49-6.321,9.194-2.681,14.557-0.958c5.363,1.724,17.621,5.746,18.004,8.811C587.866,692.189,584.802,700.233,580.78,699.85z"/>
	<path opacity="0.15" fill="#AA759B" d="M534.428,665.566c1.197,0.898,12.833,27.198,14.174,34.859
		c1.341,7.661,0.383,42.138-1.724,42.138c-2.107,0-9.96-16.855-10.917-32.944C535.003,693.53,533.662,664.991,534.428,665.566z"/>
	<path opacity="0.15" fill="#912836" d="M612.633,517.034c0.249-3.736,1.248-4.992,3.744-0.25
		c2.496,4.743,25.211,47.428,25.96,50.423s0,21.966-1.498,22.216c-1.498,0.25-3.994-3.744-5.492-6.989
		c-1.498-3.245-20.718-38.691-21.467-40.937C613.132,539.25,611.884,528.267,612.633,517.034z"/>
	<path opacity="0.15" fill="#DECB71" d="M612.106,557.153c2.399,0.8,7.177,13.966,5.237,15.712
		c-1.94,1.746-13.578,1.746-13.772-2.328C603.378,566.464,610.361,556.571,612.106,557.153z"/>
	<path opacity="0.15" fill="#BB7B63" d="M580.876,568.985c-3.298,0-23.471-0.388-23.471-3.298s11.833-9.505,19.398-13.578
		c7.565-4.074,27.739-14.936,29.872-11.639c2.134,3.298-0.388,7.177-5.237,12.608C597.5,557.489,585.532,568.985,580.876,568.985z"
		/>
	<path opacity="0.15" fill="#EBBF84" d="M537.361,569.822c0,0-18.832,13.52-29.696,31.386c-7.482,12.304-16.666,31.427-20.28,43.699
		c-2.897-5.794-4.736-28.557,0.966-45.872C494.869,579.238,513.218,568.132,537.361,569.822z"/>
	<path opacity="0.15" fill="#EBBF84" d="M493.904,650.46c0,0-0.724-14.244,18.832-39.595c19.556-25.35,40.319-35.008,48.769-36.939
		c-1.931,23.902-14.969,42.009-22.453,50.942C531.567,633.802,508.872,652.875,493.904,650.46z"/>
	<path opacity="0.15" fill="#D6D4B3" d="M474.106,767.555c-10.14,0-7.726-15.452-6.036-21.97c1.69-6.519,1.931-24.385,1.931-33.076
		s2.656-27.765,11.347-40.56c8.692-12.796,35.249-19.556,41.526-15.693c6.277,3.863,6.277,18.349,3.38,35.49
		c-2.897,17.142-9.982,32.129-20.763,47.32C494.869,754.034,480.866,767.555,474.106,767.555z"/>
	<path opacity="0.15" fill="#D6D4B3" d="M476.52,783.489c-1.986-1.828,3.621-4.587,7.726-7.484
		c4.104-2.897,26.557-25.833,32.11-36.456s7.484-7.967,7.484-3.863c0,4.104-0.483,8.692-9.174,19.073
		C505.975,765.14,482.556,789.042,476.52,783.489z"/>
	<path opacity="0.15" fill="#E2713B" d="M390.088,926.416c-2.121-0.53,6.277-17.383,9.899-25.592
		c3.621-8.209,13.037-27.282,18.59-48.045s26.799-68.325,49.976-77.741c0.483,13.762-3.139,29.938-13.762,49.976
		c-10.623,20.039-27.523,42.25-34.042,51.183c-6.519,8.933-22.695,37.905-25.35,43.699
		C392.744,925.692,392.02,926.899,390.088,926.416z"/>
	<path opacity="0.15" fill="#93591E" d="M396.124,930.279c-1.43-1.022,15.452-29.455,31.869-52.149
		c16.417-22.695,35.49-36.456,38.146-35.49c2.656,0.966-20.28,30.42-25.592,36.456S397.814,931.486,396.124,930.279z"/>
	<path opacity="0.15" fill="#88A638" d="M400.711,931.003c-0.375-1.5,21.005-18.349,33.076-31.869s42.975-51.425,45.63-56.978
		c2.656-5.553,3.863-0.241-2.656,11.106c-6.519,11.347-24.867,36.456-42.733,51.666S401.194,932.935,400.711,931.003z"/>
	<path opacity="0.15" fill="#AD2466" d="M492.938,821.877c-0.192,1.534-12.796,5.311-21.487,11.106
		c-8.691,5.794-15.693,10.14-16.417,5.794c-0.724-4.346,7.967-15.693,16.417-26.316c8.45-10.623,17.142-19.556,19.073-19.073
		c1.931,0.483,2.414,2.656,2.414,7.484S493.179,819.945,492.938,821.877z"/>
	<path opacity="0.15" fill="#CCCCCC" d="M319.066,980.162c-5.012-0.334-10.701-3.931-7.207-5.897s29.264-17.034,35.598-21.184
		s13.977-9.828,16.598-9.391c2.621,0.437,4.586,4.805,0.437,8.954S335.445,981.254,319.066,980.162z"/>
	<path opacity="0.15" fill="#CCCCCC" d="M351.387,986.277c-2.402-3.057,1.529-10.701,7.862-20.092
		c6.333-9.391,15.724-22.276,17.69-23.149c1.966-0.874,13.977,0.218,16.598,1.092c2.621,0.874,3.931,1.31,3.713,7.644
		s0.218,17.471-1.747,26.207s-7.207,24.46-11.793,29.701c-4.586,5.241-11.138,1.092-14.851-2.402
		c-1.672-1.573-3.937-6.181-6.77-9.172C358.63,992.453,354.474,990.206,351.387,986.277z"/>
	<path opacity="0.15" fill="#CCCCCC" d="M368.125,1043.964c-1.306-0.688-0.549-7.142,2.564-14.65
		c3.113-7.508,8.973-17.58,10.255-15.565s-0.916,12.635-2.747,17.213S371.604,1045.795,368.125,1043.964z"/>
	<path opacity="0.15" fill="#CCCCCC" d="M348.714,1055.134c-2.543-1.271-2.014-6.592-0.549-9.522
		c1.465-2.93,11.72-28.933,13.551-32.779s3.479-4.761,4.944-2.93s2.747,5.494,0.183,12.635c-2.564,7.142-9.156,23.622-11.537,28.017
		C352.926,1054.951,350.545,1056.05,348.714,1055.134z"/>
	<path opacity="0.15" fill="#CCCCCC" d="M336.079,1056.416c-2.79-1.279-2.197-9.339,0.183-15.382s14.283-34.976,16.298-38.455
		c2.014-3.479,3.662-2.564,4.761-1.465c1.099,1.099,4.212,3.296,2.197,9.339c-2.014,6.043-12.269,31.68-15.016,37.356
		C341.755,1053.486,340.474,1058.43,336.079,1056.416z"/>
	<path opacity="0.15" fill="#CCCCCC" d="M328.021,1041.034c-1.882-0.588-2.564-7.142,0-14.467
		c2.564-7.325,13.551-30.764,15.016-34.243c1.465-3.479,6.959-2.014,7.142,0.732c0.183,2.747-0.732,6.409-2.014,10.072
		c-1.282,3.662-10.072,25.088-11.903,29.299C334.431,1036.639,330.951,1041.949,328.021,1041.034z"/>
	<g opacity="0.15">
		<path d="M242.925,1303.544"/>
	</g>
	<path opacity="0.15" fill="#CCCCCC" d="M687.483,1606.097c-4.472,0-8.012,8.944-9.13,13.229s-0.559,9.689,3.168,9.689
		c3.727,0,5.963,0,7.639,0c1.677,0,4.286-2.236,3.354-10.434S690.278,1606.097,687.483,1606.097z"/>
	<path opacity="0.15" fill="#CCCCCC" d="M710.216,1588.396c0,0-12.111,7.826-14.347,11.366s-2.609,8.944-0.745,17.142
		s3.913,12.298,3.913,12.298s17.766,1.167,32.421-2.05c7.64-1.677,0-10.248-3.168-14.347S710.216,1588.396,710.216,1588.396z"/>
	<path opacity="0.15" fill="#CCCCCC" d="M675.558,1613.737c0,0,11.739-16.77,18.819-23.105c7.081-6.335,13.043-9.689,13.416-12.298
		c0.373-2.609-2.609-8.012-3.727-14.534c-1.118-6.521,0-23.478-4.658-23.478c-4.658,0-13.788,10.248-19.565,24.409
		C674.068,1578.893,673.322,1589.514,675.558,1613.737z"/>
	<path opacity="0.15" fill="#CCCCCC" d="M677.981,1559.701c0,0,8.198-17.888,12.67-24.223s7.453-10.248,4.845-14.347
		c-2.609-4.099-6.708-0.932-8.012,0s-9.316,6.708-9.316,11.18C678.167,1536.782,677.981,1559.701,677.981,1559.701z"/>
	<path opacity="0.15" fill="#537C45" d="M695.231,1510.796c2.279,1.234,8.574-16.195,11.051-25.531s14.48-55.444,19.053-71.829
		s11.051-34.676,11.813-40.773c0.762-6.097,2.477-52.681,2.286-56.206c-0.191-3.525-1.524,0.286-3.811,8.86
		c-2.286,8.574-12.575,47.251-15.433,58.111c-2.858,10.86-9.145,44.774-10.86,56.206s-5.716,38.296-9.908,50.3
		C695.231,1501.936,692.945,1509.557,695.231,1510.796z"/>
	<path opacity="0.15" fill="#CCCCCC" d="M696.637,1323.546c0,0,2.921-27.636-1.348-40.893c-4.269-13.256-9.437-28.535-10.785-36.399
		c-1.348-7.864-2.247-22.019-2.247-22.019s-4.044,13.032-3.82,28.086c0.225,15.054,6.291,37.522,9.886,46.285
		C691.919,1307.369,696.413,1315.008,696.637,1323.546z"/>
	<path opacity="0.15" fill="#CCCCCC" d="M700.682,1266.926c1.797,0,10.336-19.548,12.358-26.738s1.348-14.38-9.437-14.38
		c-10.785,0-13.256,2.921-12.582,10.336C691.694,1243.558,697.087,1266.926,700.682,1266.926z"/>
	<path opacity="0.15" fill="#CCCCCC" d="M710.118,1273.891c0,0,10.785-6.291,15.279-8.763s4.943-9.437,5.168-13.481
		c0.225-4.044,5.168-38.646,4.943-45.162c-4.943,13.706-12.807,33.253-16.627,40.219
		C715.061,1253.669,710.118,1267.824,710.118,1273.891z"/>
	<path opacity="0.15" fill="#B4A7C7" d="M721.577,1216.821c3.576,0.37,17.525-39.545,21.57-51.453
		c4.044-11.908,13.706-46.735,14.38-74.146c0.674-27.412-0.225-43.814-0.899-57.07c-0.674-13.256-0.225-26.962-2.247-26.962
		c-2.022,0-2.022,12.133-6.741,33.927c-4.718,21.794-20.446,86.729-22.693,93.694c-2.247,6.965-6.516,25.389-6.516,34.152
		C718.432,1177.726,715.061,1216.147,721.577,1216.821z"/>
	<path opacity="0.15" fill="#7EACD8" d="M705.4,1212.327c3.781-0.54,5.168-4.269,4.494-12.582
		c-0.674-8.313,1.348-48.981,2.022-51.678c0.674-2.696,18.424-51.678,22.019-62.912c3.595-11.234,15.054-53.924,16.627-83.808
		c1.573-29.883,0.449-43.14-0.449-55.722c-0.899-12.582-1.797-19.772-2.696-25.389c-0.959-5.994-2.022-9.886-3.595-4.494
		c-1.573,5.392-13.93,39.32-17.301,56.171c-3.37,16.851-16.508,49.166-20.896,63.361c-7.639,24.715-11.01,46.959-11.459,68.304
		c-0.449,21.345-0.225,46.959,0.899,63.811C696.188,1184.242,697.536,1213.451,705.4,1212.327z"/>
	<path opacity="0.15" fill="#644899" d="M686.077,1220.865c5.244-0.095,7.415-11.459,5.617-31.681s-4.494-34.826-4.718-42.016
		c-0.225-7.19,1.348-36.624,2.022-47.409s0-15.279-2.022-15.054c-2.022,0.225-4.494,10.111-7.415,25.614
		c-2.921,15.503-8.089,40.443-7.639,58.643C672.371,1187.162,673.719,1221.09,686.077,1220.865z"/>
	<path opacity="0.15" fill="#388BC0" d="M669.675,1125.599c0,0,8.656-41.879,21.794-73.023
		c9.098-21.567,51.323-131.724,40.109-142.938c-3.867,18.56-24.747,46.401-32.867,63.414c-8.12,17.013-22.427,51.427-26.68,83.521
		C667.778,1088.667,668.092,1125.41,669.675,1125.599z"/>
	<path opacity="0.15" fill="#661A87" d="M654.424,966.656c0,0-0.226,25.972,1.581,46.525c1.807,20.552,8.131,44.04,11.292,43.814
		s2.258-21.004,2.258-24.391c0-3.388,10.163-13.325,6.775-21.004C672.944,1003.921,654.424,966.656,654.424,966.656z"/>
	<path opacity="0.15" fill="#DB8181" d="M666.94,948.295c6.438,1.463,11.225-7.184,15.49-18.858
		c4.265-11.674,16.388-66.451,18.633-82.39c2.245-15.939-2.245-15.266-9.429-15.49s-15.041,3.143-21.776,7.633
		c-6.735,4.49-9.653,9.878-9.878,20.654s-1.347,67.124-1.571,75.879S662.001,947.172,666.94,948.295z"/>
	<path opacity="0.15" fill="#99005A" d="M728.227,897.334c3.673-1.624,5.388-5.388,4.939-11.674
		c-0.449-6.286-1.571-48.042-1.571-59.267s2.02-31.654-3.592-28.286s-14.592,11.449-14.592,16.613
		c0,5.163-2.245,52.532-2.469,61.063s-2.918,21.103-2.02,24.245C709.818,903.171,716.553,902.498,728.227,897.334z"/>
	<path opacity="0.15" fill="#DB8181" d="M659.98,828.863c2.224-0.741,12.572-6.959,16.837-6.959c4.265,0,26.49,2.469,27.388-3.367
		c0.898-5.837,1.347-23.123-1.796-25.592c-3.143-2.469-15.266-9.204-28.735-8.082c-13.47,1.122-15.715,4.49-15.939,7.857
		S655.939,830.21,659.98,828.863z"/>
	<path opacity="0.15" fill="#E6678D" d="M745.357,746.495c-0.596-1.191-2.955,1.662-6.463,7.017s-12.557,11.449-16.251,12.742
		s-2.216,3.878-2.401,6.833c-0.185,2.955,0,8.31,0,11.449c0,3.139,3.878,2.77,6.463,1.293c2.585-1.477,12.742-9.233,13.85-14.773
		C741.664,765.516,746.465,748.711,745.357,746.495z"/>
	<path opacity="0.15" fill="#DB8181" d="M701.222,776.411c0,0,4.617-12.927,2.585-18.282c-2.031-5.355-11.449-18.651-25.299-22.16
		s-21.421-0.923-21.421,1.847c0,2.77-1.293,26.592,2.216,32.501c3.509,5.909,16.435,2.216,25.484,2.216
		C693.835,772.533,699.56,776.965,701.222,776.411z"/>
	<path opacity="0.15" fill="#DB8181" d="M704.361,738.185c0,0,0.369-16.066-3.139-23.453c-3.509-7.387-16.435-18.282-29.916-19.205
		c-13.481-0.923-15.143,1.477-14.958,7.017c0.185,5.54-0.739,19.759,5.171,20.313c5.909,0.554,22.16,2.216,28.993,4.801
		C697.344,730.245,704.177,741.14,704.361,738.185z"/>
	<path opacity="0.15" fill="#E6678D" d="M723.567,753.328c2.211-0.147,16.435-17.728,18.282-24.191
		c1.847-6.463-0.739-7.202-6.094-4.617c-5.355,2.585-12.557,7.202-13.296,10.157C721.72,737.631,720.797,753.513,723.567,753.328z"
		/>
	<path opacity="0.15" fill="#E6678D" d="M720.904,724.75c2.68-0.096,14.174-8.811,19.153-17.43c4.98-8.619-2.49-7.278-5.746-6.321
		c-3.256,0.958-15.323,4.597-16.089,8.427C717.456,713.258,715.541,724.941,720.904,724.75z"/>
	<path opacity="0.15" fill="#E6678D" d="M716.115,699.85c3.432-0.327,23.367-12.258,25.857-18.579s-9.194-2.681-14.557-0.958
		c-5.363,1.724-17.621,5.746-18.004,8.811C709.029,692.189,712.093,700.233,716.115,699.85z"/>
	<path opacity="0.15" fill="#AA759B" d="M762.467,665.566c-1.197,0.898-12.833,27.198-14.174,34.859
		c-1.341,7.661-0.383,42.138,1.724,42.138s9.96-16.855,10.917-32.944C761.892,693.53,763.233,664.991,762.467,665.566z"/>
	<path opacity="0.15" fill="#912836" d="M684.262,517.034c-0.249-3.736-1.248-4.992-3.744-0.25
		c-2.496,4.743-25.211,47.428-25.96,50.423c-0.749,2.995,0,21.966,1.498,22.216s3.994-3.744,5.492-6.989
		c1.498-3.245,20.718-38.691,21.467-40.937C683.763,539.25,685.011,528.267,684.262,517.034z"/>
	<path opacity="0.15" fill="#DECB71" d="M684.789,557.153c-2.399,0.8-7.177,13.966-5.237,15.712
		c1.94,1.746,13.578,1.746,13.772-2.328C693.518,566.464,686.535,556.571,684.789,557.153z"/>
	<path opacity="0.15" fill="#BB7B63" d="M716.019,568.985c3.298,0,23.471-0.388,23.471-3.298s-11.833-9.505-19.398-13.578
		c-7.565-4.074-27.739-14.936-29.872-11.639s0.388,7.177,5.237,12.608C699.395,557.489,711.364,568.985,716.019,568.985z"/>
	<path opacity="0.15" fill="#EBBF84" d="M759.534,569.822c0,0,18.832,13.52,29.696,31.386c7.482,12.304,16.666,31.427,20.28,43.699
		c2.897-5.794,4.735-28.557-0.966-45.872C802.026,579.238,783.677,568.132,759.534,569.822z"/>
	<path opacity="0.15" fill="#EBBF84" d="M802.992,650.46c0,0,0.724-14.244-18.832-39.595s-40.319-35.008-48.769-36.939
		c1.931,23.902,14.969,42.009,22.453,50.942C765.328,633.802,788.023,652.875,802.992,650.46z"/>
	<path opacity="0.15" fill="#D6D4B3" d="M822.789,767.555c10.14,0,7.726-15.452,6.036-21.97c-1.69-6.519-1.931-24.385-1.931-33.076
		s-2.656-27.765-11.347-40.56s-35.249-19.556-41.526-15.693c-6.277,3.863-6.277,18.349-3.38,35.49s9.982,32.129,20.763,47.32
		C802.026,754.034,816.029,767.555,822.789,767.555z"/>
	<path opacity="0.15" fill="#D6D4B3" d="M820.375,783.489c1.987-1.828-3.621-4.587-7.726-7.484
		c-4.104-2.897-26.557-25.833-32.11-36.456s-7.484-7.967-7.484-3.863c0,4.104,0.483,8.692,9.174,19.073
		S814.339,789.042,820.375,783.489z"/>
	<path opacity="0.15" fill="#E2713B" d="M906.807,926.416c2.121-0.53-6.277-17.383-9.899-25.592
		c-3.621-8.209-13.037-27.282-18.59-48.045s-26.799-68.325-49.976-77.741c-0.483,13.762,3.139,29.938,13.762,49.976
		s27.523,42.25,34.042,51.183c6.519,8.933,22.695,37.905,25.35,43.699C904.151,925.692,904.876,926.899,906.807,926.416z"/>
	<path opacity="0.15" fill="#93591E" d="M900.771,930.279c1.43-1.022-15.452-29.455-31.869-52.149
		c-16.417-22.695-35.49-36.456-38.146-35.49c-2.656,0.966,20.28,30.42,25.592,36.456
		C861.659,885.131,899.081,931.486,900.771,930.279z"/>
	<path opacity="0.15" fill="#88A638" d="M896.184,931.003c0.375-1.5-21.005-18.349-33.076-31.869
		c-12.072-13.52-42.975-51.425-45.63-56.978s-3.863-0.241,2.656,11.106c6.519,11.347,24.867,36.456,42.733,51.666
		S895.701,932.935,896.184,931.003z"/>
	<path opacity="0.15" fill="#AD2466" d="M803.957,821.877c0.192,1.534,12.796,5.311,21.487,11.106s15.693,10.14,16.417,5.794
		s-7.967-15.693-16.417-26.316c-8.45-10.623-17.142-19.556-19.073-19.073c-1.931,0.483-2.414,2.656-2.414,7.484
		S803.716,819.945,803.957,821.877z"/>
	<path opacity="0.15" fill="#CCCCCC" d="M977.829,980.162c5.012-0.334,10.701-3.931,7.207-5.897
		c-3.494-1.966-29.264-17.034-35.598-21.184s-13.977-9.828-16.598-9.391c-2.621,0.437-4.586,4.805-0.437,8.954
		S961.45,981.254,977.829,980.162z"/>
	<path opacity="0.15" fill="#CCCCCC" d="M945.508,986.277c2.402-3.057-1.529-10.701-7.862-20.092
		c-6.333-9.391-15.724-22.276-17.69-23.149c-1.966-0.874-13.977,0.218-16.598,1.092c-2.621,0.874-3.931,1.31-3.713,7.644
		s-0.218,17.471,1.747,26.207c1.966,8.736,7.207,24.46,11.793,29.701c4.586,5.241,11.138,1.092,14.851-2.402
		c1.672-1.573,3.937-6.181,6.77-9.172C938.265,992.453,942.421,990.206,945.508,986.277z"/>
	<path opacity="0.15" fill="#CCCCCC" d="M928.77,1043.964c1.306-0.688,0.549-7.142-2.564-14.65
		c-3.113-7.508-8.973-17.58-10.255-15.565s0.916,12.635,2.747,17.213C920.53,1035.54,925.291,1045.795,928.77,1043.964z"/>
	<path opacity="0.15" fill="#CCCCCC" d="M948.181,1055.134c2.543-1.271,2.014-6.592,0.549-9.522
		c-1.465-2.93-11.72-28.933-13.551-32.779c-1.831-3.846-3.479-4.761-4.944-2.93s-2.747,5.494-0.183,12.635
		c2.564,7.142,9.156,23.622,11.537,28.017S946.35,1056.05,948.181,1055.134z"/>
	<path opacity="0.15" fill="#CCCCCC" d="M960.816,1056.416c2.791-1.279,2.197-9.339-0.183-15.382s-14.283-34.976-16.298-38.455
		c-2.014-3.479-3.662-2.564-4.761-1.465c-1.099,1.099-4.212,3.296-2.197,9.339c2.014,6.043,12.269,31.68,15.016,37.356
		C955.14,1053.486,956.422,1058.43,960.816,1056.416z"/>
	<path opacity="0.15" fill="#CCCCCC" d="M968.874,1041.034c1.883-0.588,2.564-7.142,0-14.467
		c-2.564-7.325-13.551-30.764-15.016-34.243c-1.465-3.479-6.959-2.014-7.142,0.732c-0.183,2.747,0.732,6.409,2.014,10.072
		c1.282,3.662,10.072,25.088,11.903,29.299C962.465,1036.639,965.944,1041.949,968.874,1041.034z"/>
	<g opacity="0.15">
		<path d="M1053.97,1303.544"/>
	</g>
	<path opacity="0.15" fill="#CCCCCC" stroke="#CCCCCC" stroke-miterlimit="10" d="M687.491,506.333
		c2.888-1.653,9.175-4.574,9.175-9.629s2.414-21.184,2.414-21.184s1.932,0,3.622-3.37s8.934-22.388,9.658-25.758
		c0.724-3.37-7.002-6.259-8.692-6.259c1.69-20.943,1.872-44.387-9.416-62.108c-11.348-17.814-28.006-24.736-34.768-25.758
		c-6.352-0.96-16.126-1.041-23.132,0c-6.765,1.005-23.42,7.944-34.768,25.758c-11.289,17.721-11.107,41.165-9.416,62.108
		c-1.69,0-9.416,2.889-8.692,6.259c0.724,3.37,7.968,22.388,9.658,25.758s3.622,3.37,3.622,3.37s2.414,16.129,2.414,21.184
		s6.287,7.976,9.175,9.629c10.217,5.847,34.828,13.45,39.388,13.45C652.431,519.782,677.274,512.18,687.491,506.333z"/>
	<path opacity="0.15" fill="#DECB71" d="M646.634,525.508c-1.512-0.136-2.626-0.442-6.546-1.585c-4.329-1.263-4.87,1.443-3.788,4.69
		c0.798,2.394,7.085,22.236,10.334,32.497V525.508z"/>
	<path opacity="0.15" fill="#DECB71" d="M657.044,523.923c-4.122,1.202-5.141,1.478-6.783,1.605v36.331
		c3.169-10.011,9.753-30.793,10.571-33.246C661.914,525.366,661.373,522.661,657.044,523.923z"/>
	<path opacity="0.15" fill="#D37C3D" d="M560.987,650.537c13.218-3.541,21.292-6.796,33.493-14.691
		c14.183-9.177,30.539-16.708,47.563-16.547c-0.056-9.548-0.19-17.443-0.459-19.506c-0.893-6.844-18.152-14.581-30.353-16.962
		c-12.201-2.381-32.733-0.298-51.778,23.211c-15.826,19.536-22.195,41.522-23.897,48.4
		C540.429,654.576,548.46,653.892,560.987,650.537z"/>
	<path opacity="0.15" fill="#D37C3D" d="M598.218,638.195c-11.061,6.163-22.499,12.535-36.196,16.205
		c-11.074,2.967-20.862,2.271-26.247,2.388c12.244,10.16,60.687,31.98,78.134,31.98c18.45,0,27.972-7.439,27.972-11.605
		c0-2.739,0.257-28.279,0.18-50.196C626.041,626.804,612.506,630.235,598.218,638.195z"/>
	<path opacity="0.15" fill="#D37C3D" d="M735.908,650.537c-13.218-3.541-21.292-6.796-33.493-14.691
		c-14.183-9.177-30.539-16.708-47.563-16.547c0.056-9.548,0.19-17.443,0.459-19.506c0.893-6.844,18.152-14.581,30.353-16.962
		c12.201-2.381,32.733-0.298,51.778,23.211c15.826,19.536,22.195,41.522,23.897,48.4
		C756.466,654.576,748.435,653.892,735.908,650.537z"/>
	<path opacity="0.15" fill="#D37C3D" d="M698.677,638.195c11.061,6.163,22.499,12.535,36.196,16.205
		c11.074,2.967,20.862,2.271,26.247,2.388c-12.244,10.16-60.687,31.98-78.134,31.98c-18.45,0-27.972-7.439-27.972-11.605
		c0-2.739-0.257-28.279-0.18-50.196C670.854,626.804,684.389,630.235,698.677,638.195z"/>
	<path opacity="0.15" fill="#A8AD0E" d="M692.339,1362.326c-0.024-0.529-0.304-1.042-0.788-1.256
		c-7.168-3.173-25.531,54.414-21.071,73.117c4.757,23.732,10.579,65.05,12.367,64.7c1.309-0.256,6.287-33.724,7.24-44.012
		c0.953-10.289,2.667-55.063,2.286-77.164C692.306,1373.833,692.508,1366.095,692.339,1362.326z"/>
	<path opacity="0.15" fill="#708A39" d="M688.836,1355.516c1.021-0.963,1.541-2.341,1.4-3.738
		c-1.105-10.981-1.971-17.247-3.96-25.32c-3.239-13.146-6.478-22.863-8.193-22.673c-1.715,0.19-4.192,9.145-6.287,21.53
		s-8.764,34.105-8.764,47.632c0,10.042,1.252,25.117,3.808,41.11c0.246,1.537,2.459,1.528,2.701-0.01
		C674.504,1382.555,681.84,1362.112,688.836,1355.516z"/>
	<path opacity="0.15" fill="#5EAA84" d="M716.408,1367.354c9.891-33.667,13.592-60.56,12.009-75.188
		c-0.152-1.403-0.934-4.96-1.366-3.616c-4.305,13.39-14.89,45.187-17.911,61.724c-3.62,19.815-8.383,53.729-9.908,70.305
		c-0.276,3.002-0.537,6.139-0.8,9.353c-0.133,1.622,2.22,1.995,2.586,0.41C706.583,1406.252,713.23,1378.172,716.408,1367.354z"/>
	<path opacity="0.15" fill="#86AF79" d="M734.29,1279.207c-0.352-3.284-1.786-3.246-3.193-1.397c-1.423,1.871-1.849,4.34-1.241,6.61
		c1.815,6.788,0.983,18.229-0.242,27.68c-2.07,15.979-5.272,36.823-11.099,56.656c-4.551,15.491-17.384,65.364-22.785,89.192
		c-0.694,5.288-1.53,10.328-2.594,14.836c-3.239,13.718-7.825,29.247-9.336,36.391c-2.096,9.908,4.382,10.479,5.335,5.906
		c0.86-4.129,8.383-42.869,10.67-53.92c2.286-11.051,10.67-52.015,13.528-63.256c2.858-11.241,11.051-43.441,13.909-52.396
		c2.858-8.955,5.525-20.577,6.478-31.247C734.671,1303.595,734.861,1284.542,734.29,1279.207z"/>
	<path opacity="0.15" fill="#537C45" d="M601.664,1510.795c-2.279,1.234-8.574-16.195-11.051-25.531
		c-2.477-9.336-14.48-55.444-19.053-71.83c-4.573-16.385-11.051-34.676-11.813-40.773c-0.762-6.097-2.477-52.681-2.286-56.206
		c0.19-3.525,1.524,0.286,3.811,8.86c2.286,8.574,12.575,47.251,15.433,58.111c2.858,10.86,9.145,44.774,10.86,56.206
		c1.715,11.432,5.716,38.296,9.908,50.3C601.664,1501.936,603.95,1509.557,601.664,1510.795z"/>
	<path opacity="0.15" fill="#A8AD0E" d="M604.556,1362.326c0.024-0.529,0.304-1.042,0.788-1.256
		c7.168-3.173,25.531,54.414,21.071,73.117c-4.757,23.732-10.579,65.05-12.367,64.7c-1.309-0.256-6.287-33.724-7.24-44.012
		c-0.953-10.289-2.667-55.063-2.286-77.164C604.589,1373.833,604.387,1366.095,604.556,1362.326z"/>
	<path opacity="0.15" fill="#708A39" d="M608.059,1355.516c-1.021-0.963-1.541-2.341-1.4-3.738c1.105-10.98,1.971-17.246,3.96-25.32
		c3.239-13.146,6.478-22.863,8.193-22.673c1.715,0.19,4.192,9.145,6.287,21.53s8.764,34.105,8.764,47.632
		c0,10.042-1.252,25.117-3.808,41.11c-0.246,1.537-2.459,1.528-2.701-0.01C622.391,1382.554,615.056,1362.111,608.059,1355.516z"/>
	<path opacity="0.15" fill="#5EAA84" d="M580.487,1367.354c-9.891-33.667-13.592-60.56-12.009-75.188
		c0.152-1.403,0.934-4.959,1.366-3.616c4.305,13.39,14.89,45.187,17.911,61.724c3.62,19.815,8.383,53.729,9.908,70.305
		c0.276,3.002,0.537,6.139,0.8,9.353c0.133,1.622-2.22,1.995-2.586,0.41C590.312,1406.251,583.666,1378.172,580.487,1367.354z"/>
	<path opacity="0.15" fill="#86AF79" d="M562.605,1279.207c0.352-3.284,1.786-3.245,3.193-1.397c1.423,1.871,1.849,4.34,1.241,6.61
		c-1.815,6.788-0.983,18.229,0.242,27.68c2.07,15.979,5.272,36.823,11.099,56.656c4.551,15.491,17.384,65.364,22.785,89.192
		c0.694,5.288,1.53,10.328,2.594,14.836c3.239,13.718,7.825,29.247,9.336,36.391c2.096,9.908-4.382,10.479-5.335,5.906
		c-0.86-4.129-8.383-42.869-10.67-53.92c-2.286-11.051-10.67-52.015-13.528-63.256c-2.858-11.241-11.051-43.441-13.909-52.396
		c-2.858-8.955-5.525-20.577-6.478-31.247C562.224,1303.595,562.034,1284.542,562.605,1279.207z"/>
	<path opacity="0.15" fill="#CCCCCC" d="M623.949,957.511c0.732-1.15,0.559-2.653-0.421-3.6
		c-5.342-5.161-12.451-11.729-20.355-19.325c-6.753-6.49-12.28-11.14-16.514-14.402c-2.465-1.899-5.759,0.949-4.243,3.666
		c7.416,13.29,19.818,35.818,25.073,47.121c0.835,1.796,3.193,2.218,4.601,0.825C615.959,967.97,620.494,962.942,623.949,957.511z"
		/>
	<path opacity="0.15" fill="#7A6A97" d="M624.997,961.382c-4.314,6.193-9.666,11.631-13.607,15.269
		c-0.848,0.783-1.266,1.918-1.118,3.063c0.977,7.538,2.664,20.956,5.097,21.497c4.065,0.903,17.39-32.748,18.068-35.458
		c0.201-0.805-0.856-2.41-2.896-4.704C629.025,959.343,626.302,959.509,624.997,961.382z"/>
	<path opacity="0.15" fill="#CCCCCC" d="M672.946,957.511c-0.732-1.15-0.559-2.653,0.421-3.6
		c5.342-5.161,12.451-11.729,20.355-19.325c6.753-6.49,12.28-11.14,16.514-14.402c2.465-1.899,5.759,0.949,4.243,3.666
		c-7.416,13.29-19.818,35.818-25.073,47.121c-0.835,1.796-3.193,2.218-4.601,0.825C680.936,967.97,676.401,962.942,672.946,957.511z
		"/>
	<path opacity="0.15" fill="#7A6A97" d="M671.898,961.382c4.314,6.193,9.666,11.631,13.607,15.269
		c0.848,0.783,1.266,1.918,1.118,3.063c-0.977,7.538-2.664,20.956-5.097,21.497c-4.065,0.903-17.39-32.748-18.068-35.458
		c-0.201-0.805,0.856-2.41,2.896-4.704C667.87,959.343,670.593,959.509,671.898,961.382z"/>
	<path opacity="0.15" fill="#CCCCCC" stroke="#CCCCCC" stroke-miterlimit="10" d="M1398.049,503.809
		c2.502-1.696,4.878-3.997,4.878-7.105c0-5.055,2.414-21.184,2.414-21.184s1.932,0,3.622-3.37s8.934-22.388,9.658-25.758
		c0.724-3.37-7.002-6.259-8.692-6.259c1.69-20.943,1.872-44.387-9.417-62.108c-11.348-17.814-28.006-24.736-34.768-25.758
		c-6.352-0.96-16.126-1.041-23.132,0c-6.765,1.005-23.42,7.944-34.768,25.758c-11.289,17.721-11.107,41.165-9.416,62.108
		c-1.69,0-9.417,2.889-8.692,6.259c0.724,3.37,7.968,22.388,9.658,25.758c1.69,3.37,3.622,3.37,3.622,3.37
		s2.414,16.129,2.414,21.184c0,3.464,2.951,5.926,5.739,7.664c1.566-7.278,7.026-53.453,44.774-53.453
		C1393.689,450.915,1398.049,503.809,1398.049,503.809z"/>
	<path opacity="0.15" fill="#912836" d="M1334.207,469.289c0,0,0.215,15.729-1.293,26.933c-1.508,11.204-8.834,22.624-10.989,25.425
		c-0.215-15.944-1.077-30.811,1.293-36.198C1325.588,480.062,1330.759,471.444,1334.207,469.289z"/>
	<path opacity="0.15" fill="#CE876B" d="M1346.488,465.842c0,0,4.525,0.646,7.326,1.724c-3.016,21.762-7.326,107.516-7.541,111.179
		c-8.834-4.525-42.446-16.375-70.026-18.745c12.497-6.895,31.673-21.546,45.894-35.12
		C1336.361,511.305,1343.041,506.349,1346.488,465.842z"/>
	<path opacity="0.15" fill="#CE876B" d="M1234.878,571.203c0,0,23.055-5.171,45.247-1.724c22.193,3.447,60.545,13.79,64.854,22.839
		c4.309,9.049,3.016,24.563,3.016,32.535c0,7.972,0,47.833,0,59.468s0,24.347-3.878,23.055s-30.38-18.53-40.723-40.938
		c-10.342-22.408-8.785-53.726-27.148-73.075C1263.329,579.753,1252.115,573.358,1234.878,571.203z"/>
	<path opacity="0.15" fill="#E4CFA3" d="M1259.656,589.518c0,0-17.998,15.681-31.782,32.487
		c-10.828,13.202-26.393,35.384-29.841,37.108s-9.48-17.883-6.033-41.584s19.891-37.06,38.999-37.06
		C1246.298,580.468,1258.795,586.286,1259.656,589.518z"/>
	<path opacity="0.15" fill="#E6B39A" d="M1224.68,645.949c0,0-1.636,11.216,2.337,30.611c3.973,19.395,5.141,40.425,3.739,52.576
		c-1.402,12.151-11.45,38.089-25.938,48.604c3.972-16.123-0.701-35.752-2.337-51.642c-1.636-15.89-3.271-34.584,1.402-49.772
		S1221.409,647.584,1224.68,645.949z"/>
	<path opacity="0.15" fill="#E6B39A" d="M1176.076,767.692c0,0-1.636-26.171,2.337-51.408c3.973-25.237,17.058-48.37,17.993-46.034
		s-5.608,15.189-10.515,40.425S1177.011,768.393,1176.076,767.692z"/>
	<path opacity="0.15" fill="#E6B39A" d="M1194.536,706.47c0,0,2.804,28.508,2.804,39.257c0,10.749-1.636,21.498-5.608,21.498
		c-3.972,0-4.206-12.385-3.505-22.199C1188.928,735.212,1192.2,715.817,1194.536,706.47z"/>
	<path opacity="0.15" fill="#CCCCCC" d="M1172.244,814.27c0,0,0.822-18.896,6.846-31.22s21.635-8.49,20.813-3.012
		S1184.841,806.876,1172.244,814.27z"/>
	<path opacity="0.15" fill="#DCC91E" d="M1152.526,790.992c0,0-9.037,16.979-18.348,47.925
		c-9.311,30.946-21.087,81.883-23.004,92.015s-7.668,5.751-9.585,4.656c-1.917-1.095-5.477-4.108-1.917-13.145
		c3.56-9.037,24.921-69.559,30.672-85.169C1136.095,821.664,1149.514,787.98,1152.526,790.992z"/>
	<path opacity="0.15" fill="#C23438" d="M1160.742,797.565c0,0,0,29.576-6.025,48.746c-6.025,19.17-19.718,52.033-33.958,67.642
		c0.548-17.527,6.025-40.804,13.693-58.057C1142.12,838.643,1160.742,797.565,1160.742,797.565z"/>
	<path opacity="0.15" fill="#E27546" d="M1134.725,910.941c0,0,12.597-23.278,18.622-39.983
		c6.025-16.705,20.539-46.008,24.647-52.032c4.108-6.025,10.407-3.834,14.24-4.929c3.834-1.095,13.693-7.12,14.24-5.751
		c0.548,1.369,1.369,3.286-11.776,24.921c-13.145,21.635-26.564,39.435-33.958,50.115S1137.738,914.775,1134.725,910.941z"/>
	<path opacity="0.15" fill="#CCCCCC" d="M1022.987,981.171c-5.012-0.334-10.701-3.931-7.207-5.897
		c3.494-1.966,29.264-17.034,35.598-21.184c6.333-4.149,13.977-9.828,16.598-9.391c2.621,0.437,4.586,4.805,0.437,8.954
		S1039.366,982.263,1022.987,981.171z"/>
	<path opacity="0.15" fill="#CCCCCC" d="M1056.321,983.743c-2.402-3.057,1.529-10.701,7.862-20.092
		c6.333-9.391,15.724-22.276,17.69-23.149c1.965-0.874,13.977,0.218,16.598,1.092c2.621,0.874,3.931,1.31,3.713,7.644
		s0.218,17.471-1.747,26.207c-1.965,8.736-7.207,24.46-11.793,29.701c-4.586,5.241-11.138,1.092-14.85-2.402
		c-1.672-1.573-3.937-6.181-6.77-9.172C1063.563,989.919,1059.408,987.672,1056.321,983.743z"/>
	<path opacity="0.15" fill="#CCCCCC" d="M1073.058,1041.43c-1.307-0.688-0.549-7.142,2.564-14.65s8.973-17.58,10.255-15.565
		c1.282,2.014-0.916,12.635-2.747,17.213C1081.299,1033.006,1076.537,1043.261,1073.058,1041.43z"/>
	<path opacity="0.15" fill="#CCCCCC" d="M1053.647,1052.6c-2.543-1.271-2.014-6.592-0.549-9.522s11.72-28.933,13.551-32.779
		c1.831-3.846,3.479-4.761,4.944-2.93c1.465,1.831,2.747,5.494,0.183,12.635s-9.156,23.622-11.537,28.017
		C1057.859,1052.417,1055.479,1053.516,1053.647,1052.6z"/>
	<path opacity="0.15" fill="#CCCCCC" d="M1041.012,1053.882c-2.791-1.279-2.198-9.339,0.183-15.382
		c2.38-6.043,14.283-34.976,16.298-38.455c2.014-3.479,3.662-2.564,4.761-1.465s4.212,3.296,2.197,9.339
		c-2.014,6.043-12.269,31.68-15.016,37.357C1046.689,1050.952,1045.407,1055.896,1041.012,1053.882z"/>
	<path opacity="0.15" fill="#CCCCCC" d="M1032.955,1038.5c-1.882-0.588-2.564-7.142,0-14.467
		c2.564-7.325,13.551-30.764,15.016-34.243c1.465-3.479,6.959-2.014,7.142,0.732c0.183,2.747-0.732,6.409-2.014,10.072
		s-10.072,25.087-11.903,29.299S1035.885,1039.415,1032.955,1038.5z"/>
	<path opacity="0.15" fill="#D4B6C6" d="M1265.123,672.576c10.87-2.365,21.846-2.58,28.571,4.683s17.753,16.946,28.244,25.285
		s20.174,15.063,22.057,19.636c1.883,4.573,2.421,32.278-6.456,56.218s-26.63,47.745-43.038,57.832
		c-0.807-19.233-13.987-47.476-32.816-76.527c-14.657-22.613-19.311-43.898-24.291-68.545
		C1235.355,681.067,1249.594,675.954,1265.123,672.576z"/>
	<path opacity="0.15" fill="#752252" d="M1274.865,804.624c0.105-1.899,4.573,4.842,7.801,12.104s10.221,32.278,9.146,33.892
		c-1.076,1.614-13.718,9.683-16.139,10.49C1273.251,861.918,1274.596,809.465,1274.865,804.624z"/>
	<path opacity="0.15" fill="#CCCCCC" d="M1341.573,793.595c0,0,2.421,22.057,1.883,44.652c-0.538,22.595-1.883,57.025-2.959,62.674
		c-10.221-11.566-32.278-37.927-35.775-43.576c-3.497-5.649-5.38-8.608-2.152-11.835c3.228-3.228,9.516-11.253,17.215-21.519
		C1330.276,810.003,1341.304,791.712,1341.573,793.595z"/>
	<path opacity="0.15" fill="#D94D5E" d="M1259.791,930.907c0,0,0.573-23.789,8.312-40.126c7.739-16.337,16.911-19.777,29.235-16.624
		c12.325,3.153,25.222,14.044,25.509,17.77C1307.369,894.507,1274.122,902.246,1259.791,930.907z"/>
	<path opacity="0.15" fill="#E7894B" d="M1347.782,911.991c0,3.439,0,44.999,0,50.158s-8.312,18.63-19.777,26.655
		c-11.465,8.025-36.114,17.77-46.432,22.356s-17.197,13.471-17.484,22.07c-6.306-6.019-8.885-33.534-10.318-45.572
		c-1.433-12.038-3.153-33.534,1.433-40.986c4.586-7.452,12.031-20.443,38.12-30.381
		C1311.382,909.411,1347.782,903.106,1347.782,911.991z"/>
	<path opacity="0.15" fill="#9486A4" d="M1247.969,1089.022c0,0-0.989-28.021-1.319-48.46c-0.33-20.439,0-44.175,2.637-37.911
		c2.637,6.264,5.934,26.373,7.912,31.977c1.978,5.604,5.275,9.56,2.308,17.142S1247.969,1089.022,1247.969,1089.022z"/>
	<path opacity="0.15" fill="#7FAEDD" d="M1265.441,1238.36c0,0-0.659-33.955-0.989-38.9s-9.56-47.801-9.231-86.701
		c0.33-38.9,7.253-60.988,9.56-64.943c2.308-3.956,14.505-15.494,19.45-18.461s8.242-3.956,4.945,1.978
		c-3.297,5.934-12.527,33.296-15.165,63.295c-2.637,29.999-1.978,58.68-0.33,68.9c1.648,10.219,6.593,17.802,4.615,23.076
		C1276.32,1191.877,1269.067,1211.327,1265.441,1238.36z"/>
	<path opacity="0.15" fill="#1B5880" d="M1318.517,1104.187c0,0,4.945,40.878,5.934,66.262s1.648,39.56-1.319,52.087
		c-2.967,12.527-7.912,24.395-7.912,17.802S1317.198,1104.187,1318.517,1104.187z"/>
	<path opacity="0.15" fill="#4D7CC2" d="M1327.417,1154.625c0,0-4.615-55.713-9.56-82.745s-11.208-54.394-6.593-59.339
		s18.131-14.505,24.065-17.802c5.934-3.297,6.264,1.319,6.593,6.264c0.33,4.945,3.626,35.933,2.967,51.757
		c-0.659,15.824-7.912,42.856-10.879,55.713C1331.044,1121.329,1327.417,1149.021,1327.417,1154.625z"/>
	<path opacity="0.15" fill="#95BA3E" d="M1285.589,1390.479c-2.843-0.568-17.287-30.412-21.128-40.336
		c-3.842-9.924-3.201-30.732,0-49.62s9.924-73.95,12.165-85.794c2.241-11.845,3.201-13.766,7.363-10.244
		c4.162,3.521,5.442,6.403,4.482,14.726c-0.96,8.323-2.561,53.141-0.32,80.672c2.241,27.531,6.723,64.666,7.683,70.108
		c0.96,5.442,0,7.043-0.96,10.564C1293.913,1384.077,1287.19,1390.799,1285.589,1390.479z"/>
	<path opacity="0.15" fill="#95BA3E" d="M1328.486,1397.522c-4.134,0.477-24.97-15.366-24.97-29.452
		c0-14.086-5.442-69.788-7.363-90.596s-3.201-66.907-1.601-65.946c1.601,0.96,9.604,14.726,15.366,31.693
		s21.596,55.756,23.049,75.55C1335.529,1353.665,1336.81,1396.562,1328.486,1397.522z"/>
	<path opacity="0.15" fill="#C1C058" d="M1320.483,1564.309c-0.596,2.184-2.241-2.241-1.921-14.086
		c0.32-11.845,6.723-84.514,6.403-97.959c-0.32-13.445,0.64-32.333,2.561-40.016c1.921-7.683,3.521-16.647,4.802-12.805
		s3.201,23.689,0.64,37.455c-2.561,13.766-7.363,54.742-8.964,72.989C1322.404,1528.134,1321.444,1560.788,1320.483,1564.309z"/>
	<path opacity="0.15" fill="#CCCCCC" d="M1320.135,1580.586c0,0,5.427,19.335,6.106,28.833c0.678,9.498,3.053,18.996-4.749,21.031
		c-7.802,2.035-27.816,0.339-33.922-0.678c-6.106-1.018-5.088-5.088-2.714-14.247s12.89-36.296,14.586-39.01
		c-2.714,18.318-2.035,45.455,6.445,45.455C1316.064,1621.97,1320.135,1580.586,1320.135,1580.586z"/>
	<path opacity="0.15" fill="#912836" d="M1374.895,469.289c0,0-0.215,15.729,1.293,26.933c1.508,11.204,8.834,22.624,10.989,25.425
		c0.215-15.944,1.077-30.811-1.293-36.198C1383.514,480.062,1378.343,471.444,1374.895,469.289z"/>
	<path opacity="0.15" fill="#CE876B" d="M1362.614,465.842c0,0-4.525,0.646-7.326,1.724c3.016,21.762,7.326,107.516,7.541,111.179
		c8.834-4.525,42.446-16.375,70.026-18.745c-12.497-6.895-31.673-21.546-45.894-35.12S1366.061,506.349,1362.614,465.842z"/>
	<path opacity="0.15" fill="#E6B39A" d="M1484.422,645.949c0,0,1.636,11.216-2.337,30.611c-3.972,19.395-5.141,40.425-3.739,52.576
		c1.402,12.151,11.45,38.089,25.938,48.604c-3.972-16.123,0.701-35.752,2.337-51.642c1.636-15.89,3.271-34.584-1.402-49.772
		S1487.693,647.584,1484.422,645.949z"/>
	<path opacity="0.15" fill="#E6B39A" d="M1533.025,767.692c0,0,1.636-26.171-2.337-51.408s-17.058-48.37-17.993-46.034
		s5.608,15.189,10.515,40.425S1532.091,768.393,1533.025,767.692z"/>
	<path opacity="0.15" fill="#E6B39A" d="M1514.565,706.47c0,0-2.804,28.508-2.804,39.257c0,10.749,1.636,21.498,5.608,21.498
		s4.206-12.385,3.505-22.199C1520.173,735.212,1516.902,715.817,1514.565,706.47z"/>
	<path opacity="0.15" fill="#CCCCCC" d="M1536.858,814.27c0,0-0.822-18.896-6.846-31.22s-21.635-8.49-20.813-3.012
		S1524.261,806.876,1536.858,814.27z"/>
	<path opacity="0.15" fill="#DCC91E" d="M1556.576,790.992c0,0,9.037,16.979,18.348,47.925
		c9.311,30.946,21.087,81.883,23.004,92.015s7.668,5.751,9.585,4.656c1.917-1.095,5.477-4.108,1.917-13.145
		c-3.56-9.037-24.921-69.559-30.672-85.169C1573.007,821.664,1559.588,787.98,1556.576,790.992z"/>
	<path opacity="0.15" fill="#C23438" d="M1548.36,797.565c0,0,0,29.576,6.025,48.746c6.025,19.17,19.718,52.033,33.958,67.642
		c-0.548-17.527-6.025-40.804-13.693-58.057S1548.36,797.565,1548.36,797.565z"/>
	<path opacity="0.15" fill="#E27546" d="M1574.376,910.941c0,0-12.597-23.278-18.622-39.983
		c-6.025-16.705-20.539-46.008-24.647-52.032c-4.108-6.025-10.406-3.834-14.24-4.929c-3.834-1.095-13.693-7.12-14.24-5.751
		s-1.369,3.286,11.776,24.921c13.145,21.635,26.564,39.435,33.958,50.115C1555.754,893.962,1571.364,914.775,1574.376,910.941z"/>
	<path opacity="0.15" fill="#CCCCCC" d="M1686.115,981.171c5.012-0.334,10.701-3.931,7.207-5.897
		c-3.494-1.966-29.264-17.034-35.598-21.184c-6.333-4.149-13.977-9.828-16.598-9.391c-2.621,0.437-4.586,4.805-0.437,8.954
		S1669.736,982.263,1686.115,981.171z"/>
	<path opacity="0.15" fill="#CCCCCC" d="M1652.781,983.743c2.402-3.057-1.529-10.701-7.862-20.092
		c-6.333-9.391-15.724-22.276-17.69-23.149c-1.965-0.874-13.977,0.218-16.598,1.092c-2.621,0.874-3.931,1.31-3.713,7.644
		s-0.218,17.471,1.747,26.207c1.965,8.736,7.207,24.46,11.793,29.701c4.586,5.241,11.138,1.092,14.85-2.402
		c1.672-1.573,3.937-6.181,6.77-9.172C1645.538,989.919,1649.694,987.672,1652.781,983.743z"/>
	<path opacity="0.15" fill="#CCCCCC" d="M1636.044,1041.43c1.307-0.688,0.549-7.142-2.564-14.65s-8.973-17.58-10.255-15.565
		c-1.282,2.014,0.916,12.635,2.747,17.213C1627.803,1033.006,1632.564,1043.261,1636.044,1041.43z"/>
	<path opacity="0.15" fill="#CCCCCC" d="M1655.454,1052.6c2.543-1.271,2.014-6.592,0.549-9.522
		c-1.465-2.93-11.72-28.933-13.551-32.779c-1.831-3.846-3.479-4.761-4.944-2.93c-1.465,1.831-2.747,5.494-0.183,12.635
		s9.156,23.622,11.537,28.017C1651.243,1052.417,1653.623,1053.516,1655.454,1052.6z"/>
	<path opacity="0.15" fill="#CCCCCC" d="M1668.09,1053.882c2.791-1.279,2.198-9.339-0.183-15.382
		c-2.38-6.043-14.283-34.976-16.298-38.455c-2.014-3.479-3.662-2.564-4.761-1.465c-1.099,1.099-4.212,3.296-2.197,9.339
		s12.269,31.68,15.016,37.357C1662.413,1050.952,1663.695,1055.896,1668.09,1053.882z"/>
	<path opacity="0.15" fill="#CCCCCC" d="M1676.147,1038.5c1.882-0.588,2.564-7.142,0-14.467
		c-2.564-7.325-13.551-30.764-15.016-34.243c-1.465-3.479-6.959-2.014-7.142,0.732c-0.183,2.747,0.733,6.409,2.014,10.072
		c1.282,3.662,10.072,25.087,11.903,29.299C1669.738,1034.105,1673.217,1039.415,1676.147,1038.5z"/>
	<path opacity="0.15" fill="#752252" d="M1434.237,804.624c-0.106-1.899-4.573,4.842-7.801,12.104
		c-3.228,7.263-10.221,32.278-9.146,33.892c1.076,1.614,13.718,9.683,16.139,10.49
		C1435.851,861.918,1434.506,809.465,1434.237,804.624z"/>
	<path opacity="0.15" fill="#CCCCCC" d="M1367.528,793.595c0,0-2.421,22.057-1.883,44.652c0.538,22.595,1.883,57.025,2.959,62.674
		c10.222-11.566,32.278-37.927,35.775-43.576c3.497-5.649,5.38-8.608,2.152-11.835c-3.228-3.228-9.516-11.253-17.215-21.519
		C1378.826,810.003,1367.797,791.712,1367.528,793.595z"/>
	<path opacity="0.15" fill="#D94D5E" d="M1449.311,930.907c0,0-0.573-23.789-8.312-40.126s-16.91-19.777-29.235-16.624
		s-25.222,14.044-25.509,17.77C1401.732,894.507,1434.98,902.246,1449.311,930.907z"/>
	<path opacity="0.15" fill="#E7894B" d="M1361.319,911.991c0,3.439,0,44.999,0,50.158s8.312,18.63,19.777,26.655
		c11.465,8.025,36.114,17.77,46.432,22.356s17.197,13.471,17.484,22.07c6.306-6.019,8.885-33.534,10.318-45.572
		c1.433-12.038,3.153-33.534-1.433-40.986c-4.586-7.452-12.031-20.443-38.12-30.381
		C1397.72,909.411,1361.319,903.106,1361.319,911.991z"/>
	<path opacity="0.15" fill="#9486A4" d="M1461.133,1089.022c0,0,0.989-28.021,1.319-48.46c0.33-20.439,0-44.175-2.637-37.911
		s-5.934,26.373-7.912,31.977c-1.978,5.604-5.275,9.56-2.308,17.142C1452.562,1059.353,1461.133,1089.022,1461.133,1089.022z"/>
	<path opacity="0.15" fill="#7FAEDD" d="M1443.661,1238.36c0,0,0.659-33.955,0.989-38.9c0.33-4.945,9.56-47.801,9.231-86.701
		c-0.33-38.9-7.253-60.988-9.56-64.943c-2.308-3.956-14.505-15.494-19.45-18.461s-8.242-3.956-4.945,1.978
		c3.297,5.934,12.527,33.296,15.165,63.295c2.637,29.999,1.978,58.68,0.33,68.9c-1.648,10.219-6.593,17.802-4.615,23.076
		C1432.782,1191.877,1440.035,1211.327,1443.661,1238.36z"/>
	<path opacity="0.15" fill="#1B5880" d="M1390.585,1104.187c0,0-4.945,40.878-5.934,66.262c-0.989,25.384-1.648,39.56,1.319,52.087
		c2.967,12.527,7.912,24.395,7.912,17.802S1391.904,1104.187,1390.585,1104.187z"/>
	<path opacity="0.15" fill="#4D7CC2" d="M1381.684,1154.625c0,0,4.615-55.713,9.56-82.745s11.209-54.394,6.593-59.339
		c-4.615-4.945-18.131-14.505-24.065-17.802c-5.934-3.297-6.264,1.319-6.593,6.264c-0.33,4.945-3.626,35.933-2.967,51.757
		c0.659,15.824,7.912,42.856,10.879,55.713C1378.058,1121.329,1381.684,1149.021,1381.684,1154.625z"/>
	<path opacity="0.15" fill="#95BA3E" d="M1423.513,1390.479c2.843-0.568,17.287-30.412,21.128-40.336
		c3.842-9.924,3.201-30.732,0-49.62s-9.924-73.95-12.165-85.794c-2.241-11.845-3.201-13.766-7.363-10.244
		c-4.162,3.521-5.442,6.403-4.482,14.726c0.96,8.323,2.561,53.141,0.32,80.672c-2.241,27.531-6.723,64.666-7.683,70.108
		c-0.96,5.442,0,7.043,0.96,10.564C1415.189,1384.077,1421.912,1390.799,1423.513,1390.479z"/>
	<path opacity="0.15" fill="#95BA3E" d="M1380.615,1397.522c4.134,0.477,24.97-15.366,24.97-29.452
		c0-14.086,5.442-69.788,7.363-90.596s3.201-66.907,1.601-65.946c-1.601,0.96-9.604,14.726-15.366,31.693
		c-5.762,16.967-21.596,55.756-23.049,75.55C1373.573,1353.665,1372.292,1396.562,1380.615,1397.522z"/>
	<path opacity="0.15" fill="#CCCCCC" d="M1388.967,1580.586c0,0-5.427,19.335-6.106,28.833c-0.678,9.498-3.053,18.996,4.749,21.031
		c7.802,2.035,27.816,0.339,33.921-0.678c6.106-1.018,5.088-5.088,2.714-14.247s-12.89-36.296-14.586-39.01
		c2.714,18.318,2.035,45.455-6.445,45.455C1393.038,1621.97,1388.967,1580.586,1388.967,1580.586z"/>
	<path opacity="0.15" fill="#DE558F" d="M1258.073,657.045c1.83,2.678,4.017,5.832,5.632,8.032c1.022,1.393,3.149,1.256,3.981-0.258
		c8.309-15.11,11.372-28.36,12.384-37.447c0.556-4.998,0.567-9.21,0.393-12.446c-0.63-1.758-1.267-3.238-1.899-4.317
		c-6.996-11.943-15.244-11.18-21.492-5.147c-1.64,1.583-3.333,3.216-5.033,4.858c-1.388,1.341-2.188,3.171-2.226,5.1
		c-0.171,8.64,0.453,21.181,4.214,33.292C1254.947,651.677,1256.321,654.481,1258.073,657.045z"/>
	<path opacity="0.15" fill="#AB416E" d="M1248.588,639.13c-1.318-7.129-1.774-13.947-1.835-19.653
		c-0.016-1.505-1.826-2.254-2.9-1.199c-3.866,3.799-7.309,7.264-9.654,9.824c-0.699,0.764-0.56,1.969,0.3,2.548
		c3.098,2.084,6.875,5.214,11.145,9.912C1246.798,641.833,1248.9,640.818,1248.588,639.13z"/>
	<path opacity="0.15" fill="#D18E91" d="M1288.528,653.295c-0.535-4.513-1.718-11.994-3.241-19.556
		c-0.338-1.679-2.761-1.663-3.066,0.023c-1.58,8.731-4.771,19.156-10.836,30.603c-0.498,0.939,0.367,2.03,1.393,1.753
		c1.167-0.314,2.324-0.636,3.47-0.964C1282.287,663.429,1289.231,659.218,1288.528,653.295z"/>
	<path opacity="0.15" fill="#EDA1A4" d="M1236.374,635.809c-1.025-0.843-1.991-1.572-2.895-2.204
		c-1.178-0.824-2.821-0.142-3.049,1.278c-1.397,8.717-1.264,30.351,4.448,32.617c7.121,2.824,15.138,2.923,23.237,1.771
		c1.595-0.227,2.454-2.01,1.657-3.41C1250.328,649.282,1241.983,640.421,1236.374,635.809z"/>
	<path opacity="0.15" fill="#CE876B" d="M1474.224,571.203c0,0-23.054-5.171-45.247-1.724c-22.193,3.447-60.545,13.79-64.854,22.839
		c-4.309,9.049-3.016,24.563-3.016,32.535c0,7.972,0,47.833,0,59.468s0,24.347,3.878,23.055c3.878-1.293,30.38-18.53,40.723-40.938
		c10.342-22.408,8.785-53.726,27.148-73.075C1445.773,579.753,1456.987,573.358,1474.224,571.203z"/>
	<path opacity="0.15" fill="#E4CFA3" d="M1449.445,589.518c0,0,17.998,15.681,31.782,32.487
		c10.828,13.202,26.393,35.384,29.841,37.108s9.48-17.883,6.033-41.584s-19.891-37.06-38.999-37.06
		C1462.804,580.468,1450.307,586.286,1449.445,589.518z"/>
	<path opacity="0.15" fill="#D4B6C6" d="M1443.979,672.576c-10.87-2.365-21.846-2.58-28.571,4.683
		c-6.725,7.263-17.753,16.946-28.244,25.285s-20.174,15.063-22.057,19.636c-1.883,4.573-2.421,32.278,6.456,56.218
		c8.877,23.94,26.63,47.745,43.038,57.832c0.807-19.233,13.987-47.476,32.816-76.527c14.657-22.613,19.311-43.898,24.291-68.545
		C1473.747,681.067,1459.508,675.954,1443.979,672.576z"/>
	<path opacity="0.15" fill="#DE558F" d="M1451.029,657.045c-1.83,2.678-4.017,5.832-5.632,8.032
		c-1.022,1.393-3.149,1.256-3.981-0.258c-8.309-15.11-11.372-28.36-12.384-37.447c-0.556-4.998-0.567-9.21-0.393-12.446
		c0.63-1.758,1.267-3.238,1.899-4.317c6.996-11.943,15.244-11.18,21.492-5.147c1.64,1.583,3.333,3.216,5.033,4.858
		c1.388,1.341,2.188,3.171,2.226,5.1c0.171,8.64-0.453,21.181-4.214,33.292C1454.155,651.677,1452.781,654.481,1451.029,657.045z"/>
	<path opacity="0.15" fill="#AB416E" d="M1460.514,639.13c1.318-7.129,1.774-13.947,1.835-19.653c0.016-1.505,1.826-2.254,2.9-1.199
		c3.866,3.799,7.309,7.264,9.654,9.824c0.7,0.764,0.56,1.969-0.3,2.548c-3.098,2.084-6.875,5.214-11.145,9.912
		C1462.304,641.833,1460.202,640.818,1460.514,639.13z"/>
	<path opacity="0.15" fill="#D18E91" d="M1420.573,653.295c0.535-4.513,1.718-11.994,3.241-19.556
		c0.338-1.679,2.761-1.663,3.066,0.023c1.58,8.731,4.771,19.156,10.836,30.603c0.497,0.939-0.367,2.03-1.393,1.753
		c-1.167-0.314-2.324-0.636-3.47-0.964C1426.814,663.429,1419.871,659.218,1420.573,653.295z"/>
	<path opacity="0.15" fill="#EDA1A4" d="M1472.728,635.809c1.025-0.843,1.991-1.572,2.895-2.204
		c1.178-0.824,2.821-0.142,3.049,1.278c1.397,8.717,1.264,30.351-4.448,32.617c-7.121,2.824-15.138,2.923-23.237,1.771
		c-1.595-0.227-2.454-2.01-1.657-3.41C1458.774,649.282,1467.119,640.421,1472.728,635.809z"/>
	<path opacity="0.15" fill="#C1C058" d="M1289.338,1445.712c5.358,9.025,9.108,11.324,13.552,18.174
		c-2.838-20.061-5.344-37.616-7.156-44.867c-2.561-10.244-6.178-17.768-11.971-20.494c-6.243-2.938-16.429-23.819-13.791-12.881
		c1.299,5.385,6.694,22.837,12.538,44.005C1284.064,1435.28,1286.356,1440.688,1289.338,1445.712z"/>
	<path opacity="0.15" fill="#95BA3E" d="M1297.915,1463.734c-3.562-5.734-7.427-12.153-11.246-18.604
		c3.639,13.962,7.119,28.597,9.562,41.901c4.148,22.586,7.009,43.546,8.615,57.523
		C1303.159,1511.7,1299.313,1476.066,1297.915,1463.734z"/>
	<path opacity="0.15" fill="#728F30" d="M1307.121,1491.747c-0.212-2.457-0.523-5.359-0.908-8.569
		c-0.576-4.796-2.159-9.41-4.625-13.555c2.15,19.759,6.452,62.854,7.011,95.917c1.389,0.866,2.922,0.78,2.922-0.271
		C1311.52,1551.184,1308.721,1510.314,1307.121,1491.747z"/>
	<path opacity="0.15" fill="#C1C058" d="M1388.574,1564.309c0.596,2.184,2.241-2.241,1.921-14.086
		c-0.32-11.845-6.723-84.514-6.403-97.959c0.32-13.445-0.64-32.333-2.561-40.016c-1.921-7.683-3.521-16.647-4.802-12.805
		s-3.201,23.689-0.64,37.455c2.561,13.766,7.363,54.742,8.964,72.989C1386.654,1528.134,1387.614,1560.788,1388.574,1564.309z"/>
	<path opacity="0.15" fill="#C1C058" d="M1419.719,1445.712c-5.358,9.025-9.108,11.324-13.552,18.174
		c2.838-20.061,5.344-37.616,7.156-44.867c2.561-10.244,6.178-17.768,11.971-20.494c6.243-2.938,16.429-23.819,13.791-12.881
		c-1.298,5.385-6.694,22.837-12.538,44.005C1424.994,1435.28,1422.702,1440.688,1419.719,1445.712z"/>
	<path opacity="0.15" fill="#95BA3E" d="M1411.142,1463.734c3.562-5.734,7.427-12.153,11.246-18.604
		c-3.639,13.962-7.119,28.597-9.562,41.901c-4.148,22.586-7.009,43.546-8.615,57.523
		C1405.899,1511.7,1409.744,1476.066,1411.142,1463.734z"/>
	<path opacity="0.15" fill="#728F30" d="M1401.937,1491.747c0.212-2.457,0.523-5.359,0.908-8.569
		c0.576-4.796,2.159-9.41,4.625-13.555c-2.15,19.759-6.452,62.854-7.011,95.917c-1.389,0.866-2.922,0.78-2.922-0.271
		C1397.538,1551.184,1400.336,1510.314,1401.937,1491.747z"/>
	<path opacity="0.15" fill="#79619B" d="M1303.568,1155.42c3.021,2.801,7.928,0.735,7.986-3.384
		c0.075-5.259,0.112-11.552,0.019-16.097c-0.442-21.589-1.777-51.099-2.947-70.982c-1.648-28.021-8.242-47.471-8.242-47.471
		s-6.593,26.043-14.505,55.713c-4.296,16.11-5.965,31.346-6.12,46.604c-0.049,4.801,1.465,9.48,4.329,13.333
		C1289.542,1140.473,1296.316,1148.697,1303.568,1155.42z"/>
	<path opacity="0.15" fill="#542A91" d="M1309.958,1175.567c0.588-5.367-1.527-10.669-5.659-14.145
		c-5.904-4.966-12.115-11.512-18.601-19.617c-2.009-2.511-3.903-5-5.654-7.386c0.365,8.038,1.037,16.157,1.88,24.492
		c2.967,29.34,26.703,69.559,26.703,69.559C1305.835,1212.651,1308.132,1192.237,1309.958,1175.567z"/>
	<path opacity="0.15" fill="#79619B" d="M1405.494,1155.42c-3.021,2.801-7.928,0.735-7.986-3.384
		c-0.075-5.259-0.112-11.552-0.019-16.097c0.442-21.589,1.777-51.099,2.947-70.982c1.648-28.021,8.242-47.471,8.242-47.471
		s6.593,26.043,14.505,55.713c4.296,16.11,5.965,31.346,6.12,46.604c0.049,4.801-1.465,9.48-4.329,13.333
		C1419.519,1140.473,1412.745,1148.697,1405.494,1155.42z"/>
	<path opacity="0.15" fill="#542A91" d="M1399.104,1175.567c-0.588-5.367,1.527-10.669,5.659-14.145
		c5.904-4.966,12.115-11.512,18.601-19.617c2.009-2.511,3.903-5,5.654-7.386c-0.365,8.038-1.037,16.157-1.88,24.492
		c-2.967,29.34-26.703,69.559-26.703,69.559C1403.226,1212.651,1400.93,1192.237,1399.104,1175.567z"/>
</g>
<g id="select">
	<path fill="#7EACD8" d="M591.495,1212.327c-3.781-0.54-5.168-4.269-4.494-12.582s-1.348-48.981-2.022-51.678
		c-0.674-2.696-18.424-51.678-22.019-62.912s-15.054-53.924-16.627-83.808c-1.573-29.883-0.449-43.14,0.449-55.722
		c0.899-12.582,1.797-19.772,2.696-25.389c0.959-5.994,2.022-9.886,3.595-4.494c1.573,5.392,13.93,39.32,17.301,56.171
		s16.508,49.166,20.896,63.361c7.639,24.715,11.01,46.959,11.459,68.304c0.449,21.345,0.225,46.959-0.899,63.811
		C600.707,1184.242,599.359,1213.451,591.495,1212.327z"/>
	<path fill="#DE558F" d="M1451.029,657.045c-1.83,2.678-4.017,5.832-5.632,8.032c-1.022,1.393-3.149,1.256-3.981-0.258
		c-8.309-15.11-11.372-28.36-12.384-37.447c-0.556-4.998-0.567-9.21-0.393-12.446c0.63-1.758,1.267-3.238,1.899-4.317
		c6.996-11.943,15.244-11.18,21.492-5.147c1.64,1.583,3.333,3.216,5.033,4.858c1.388,1.341,2.188,3.171,2.226,5.1
		c0.171,8.64-0.453,21.181-4.214,33.292C1454.155,651.677,1452.781,654.481,1451.029,657.045z"/>
	<path fill="#7EACD8" d="M591.495,1212.327c-3.781-0.54-5.168-4.269-4.494-12.582s-1.348-48.981-2.022-51.678
		c-0.674-2.696-18.424-51.678-22.019-62.912s-15.054-53.924-16.627-83.808c-1.573-29.883-0.449-43.14,0.449-55.722
		c0.899-12.582,1.797-19.772,2.696-25.389c0.959-5.994,2.022-9.886,3.595-4.494c1.573,5.392,13.93,39.32,17.301,56.171
		s16.508,49.166,20.896,63.361c7.639,24.715,11.01,46.959,11.459,68.304c0.449,21.345,0.225,46.959-0.899,63.811
		C600.707,1184.242,599.359,1213.451,591.495,1212.327z"/>
	<g>
	</g>
	<g>
	</g>
	<g>
	</g>
	<g>
	</g>
	<g>
	</g>
	<g>
	</g>
	<g>
	</g>
	<g>
	</g>
	<g>
	</g>
	<g>
	</g>
	<g>
	</g>
	<g>
	</g>
	<g>
	</g>
	<g>
	</g>
	<g>
	</g>
</g>
</svg>
