<?xml version="1.0" encoding="utf-8"?>
<!-- Generator: Adobe Illustrator 25.0.0, SVG Export Plug-In . SVG Version: 6.00 Build 0)  -->
<svg version="1.1" id="Layer_1" xmlns="http://www.w3.org/2000/svg" xmlns:xlink="http://www.w3.org/1999/xlink" x="0px" y="0px"
	 viewBox="0 0 2000 2000" enable-background="new 0 0 2000 2000" xml:space="preserve">
<path fill="#E6E6E6" d="M658.609,360.632c5.701,0.936,23.351,7.944,34.665,25.758c11.255,17.721,11.074,41.165,9.388,62.108
	c1.685,0,9.388,2.889,8.666,6.259c-0.722,3.37-7.944,22.388-9.629,25.758s-3.611,3.37-3.611,3.37s-2.407,16.129-2.407,21.184
	c0,5.055-9.148,9.629-9.148,9.629s0,9.148,0,16.37c4.092,7.463,25.758,20.703,36.35,27.684c10.592,6.981,30.813,9.148,53.201,13.962
	c22.388,4.815,38.035,32.017,39.961,43.813c1.926,11.796,0.722,51.516,0.722,56.09s9.148,27.684,12.277,42.368
	c3.129,14.685,5.778,43.813,5.537,52.479c-0.241,8.666,4.815,13.481,15.647,26.48s22.629,33.221,30.573,62.349
	c7.944,29.128,27.925,68.127,31.465,72.766c3.54,4.639,11.975,14.488,13.898,17.265s13.459,1.068,20.082,7.477
	s26.919,19.869,31.619,22.219c4.7,2.35,15.169,6.623,8.118,14.1c-7.05,7.477-25.514-3.579-37.956-11.827
	c2.516,2.656,6.85,12.862,8.388,20.271c0.656,3.16,15.238,38.306,17.895,48.092c2.656,9.786-7.13,9.926-9.786,5.452
	c-2.656-4.474-22.368-45.296-22.368-45.296s19.816,44.334,23.487,52.286c5.033,10.905-5.312,14.4-10.066,6.99
	c-2.062-3.214-22.928-48.791-22.928-48.791s16.636,38.166,19.712,45.296s-4.613,12.722-9.227,4.614
	c-2.566-4.511-19.983-42.518-19.983-42.518s6.544,17.414,8.38,23.225s2.991,10.695-0.121,11.949
	c-3.653,1.472-7.234-1.653-17.633-25.51s-12.582-32.574-14.788-46.367c-2.027-12.678-6.117-25.692-11.011-33.95
	c-4.894-8.258-21.41-29.057-52.914-66.066s-40.373-62.09-45.267-92.675c-8.564-16.822-21.104-40.985-26.304-68.513
	c-1.223,6.423-18.963,52.302-25.386,61.478c-6.423,9.176-5.2,13.764-5.505,22.94c-0.306,9.176-0.065,45.41,1.758,51.609
	c1.823,6.199,12.58,37.193,13.719,48.969s6.458,50.145,7.598,61.541s3.039,68.379,3.799,90.792s-0.38,84.334-6.078,104.848
	s-14.436,56.603-15.195,68.379s-7.218,24.312-5.698,31.91s9.877,51.284,11.396,60.401s2.279,41.407-8.737,69.139
	s-26.123,95.694-29.818,115.647c-3.695,19.953-2.71,41.876-2.71,41.876s4.68,6.897,4.68,13.056c0,6.158-1.724,12.809,3.941,19.214
	s10.592,14.533,13.302,21.923c2.71,7.39,11.331,14.041,16.011,16.75s0.985,13.794-5.419,13.794c-6.405,0-44.832,0-53.7,0
	s-12.809-4.188-14.78-11.577c-1.971-7.39,1.232-27.589,2.217-34.979c0.985-7.39,2.463-15.272,2.463-15.272
	c-1.266-2.571-2.022-13.163-0.617-17.27s1.945-10.052,1.837-14.807c-0.108-4.755-1.286-62.158-3.95-73.633
	c-2.664-11.474-9.016-49.688-9.835-73.969c-0.82-24.281,5.122-69.564,8.196-83.497c3.074-13.933,5.327-26.842,5.737-31.76
	s3.483-13.728,3.483-22.744s-0.82-27.866-2.869-39.136s-7.991-42.824-9.221-63.314c-1.229-20.49-7.991-80.526-9.221-93.639
	c-1.229-13.114-7.991-44.873-7.991-44.873s-6.762,31.759-7.991,44.873c-1.229,13.114-7.991,73.149-9.221,93.639
	c-1.229,20.49-7.172,52.045-9.221,63.314s-2.869,30.12-2.869,39.136s3.073,17.826,3.483,22.744s2.664,17.826,5.737,31.76
	c3.073,13.933,9.016,59.216,8.196,83.497c-0.82,24.281-7.172,62.495-9.835,73.969c-2.664,11.474-3.842,68.877-3.95,73.633
	c-0.108,4.755,0.432,10.7,1.837,14.807c1.405,4.107,0.648,14.699-0.617,17.27c0,0,1.478,7.883,2.463,15.272
	c0.985,7.39,4.188,27.589,2.217,34.979c-1.971,7.39-5.912,11.577-14.78,11.577s-47.295,0-53.7,0c-6.405,0-10.1-11.085-5.419-13.794
	c4.68-2.71,13.302-9.36,16.011-16.75c2.71-7.39,7.636-15.519,13.302-21.923s3.941-13.055,3.941-19.214
	c0-6.158,4.68-13.056,4.68-13.056s0.985-21.923-2.71-41.876c-3.695-19.953-18.801-87.916-29.818-115.647
	s-10.257-60.021-8.737-69.139s9.877-52.804,11.396-60.401s-4.938-20.134-5.698-31.91s-9.497-47.865-15.195-68.379
	s-6.838-82.435-6.078-104.848s2.659-79.396,3.799-90.792s6.458-49.765,7.598-61.541s11.896-42.77,13.719-48.969
	c1.823-6.199,2.064-42.433,1.758-51.609c-0.306-9.176,0.918-13.764-5.505-22.94s-24.163-55.055-25.386-61.478
	c-5.2,27.527-17.74,51.69-26.304,68.513c-4.894,30.586-13.764,55.666-45.267,92.675s-48.02,57.807-52.914,66.066
	c-4.894,8.258-8.984,21.273-11.011,33.95c-2.205,13.793-4.388,22.51-14.788,46.367s-13.98,26.982-17.633,25.51
	c-3.113-1.254-1.957-6.138-0.121-11.949c1.835-5.811,8.38-23.225,8.38-23.225s-17.417,38.007-19.983,42.518
	c-4.613,8.109-12.303,2.516-9.227-4.614c3.076-7.13,19.712-45.296,19.712-45.296s-20.866,45.577-22.928,48.791
	c-4.753,7.409-15.099,3.914-10.066-6.99c3.67-7.953,23.487-52.286,23.487-52.286s-19.712,40.822-22.368,45.296
	c-2.656,4.474-12.442,4.334-9.786-5.452c2.656-9.786,17.239-44.932,17.895-48.092c1.538-7.41,5.872-17.615,8.388-20.271
	c-12.442,8.248-30.906,19.305-37.956,11.827c-7.05-7.477,3.418-11.75,8.118-14.1c4.7-2.35,24.996-15.81,31.619-22.219
	c6.623-6.409,18.16-4.7,20.082-7.477c1.923-2.777,10.357-12.626,13.898-17.265c3.54-4.639,23.521-43.637,31.465-72.766
	c7.944-29.128,19.74-49.35,30.573-62.349c10.833-12.999,15.888-17.814,15.647-26.48c-0.241-8.666,2.407-37.795,5.537-52.479
	s12.277-37.795,12.277-42.368s-1.204-44.294,0.722-56.09c1.926-11.796,17.573-38.998,39.961-43.813
	c22.388-4.815,42.609-6.981,53.201-13.962c10.592-6.981,32.258-20.221,36.35-27.684c0-7.222,0-16.37,0-16.37
	s-9.148-4.574-9.148-9.629c0-5.055-2.407-21.184-2.407-21.184s-1.926,0-3.611-3.37s-8.907-22.388-9.629-25.758
	c-0.722-3.37,6.981-6.259,8.666-6.259c-1.685-20.943-1.867-44.387,9.388-62.108c11.314-17.814,27.946-24.591,34.665-25.758
	C640.963,359.63,652.788,359.676,658.609,360.632z"/>
<path fill="#E6E6E6" d="M1365.036,360.632c5.701,0.936,23.351,7.944,34.665,25.758c11.255,17.721,11.074,41.165,9.388,62.108
	c1.685,0,9.389,2.889,8.666,6.259c-0.722,3.37-7.944,22.388-9.629,25.758s-3.611,3.37-3.611,3.37s-2.407,16.129-2.407,21.184
	c0,5.055-9.148,9.629-9.148,9.629s0,9.148,0,16.37c4.092,7.463,25.758,20.703,36.35,27.684c10.592,6.981,30.813,9.148,53.201,13.962
	c22.388,4.815,38.035,32.017,39.961,43.813c1.926,11.796,0.722,51.516,0.722,56.09s9.148,27.684,12.277,42.368
	c3.129,14.685,5.777,43.813,5.537,52.479c-0.241,8.666,4.815,13.481,15.647,26.48c10.833,12.999,22.629,33.221,30.573,62.349
	s27.925,68.127,31.465,72.766c3.54,4.639,11.975,14.488,13.898,17.265c1.923,2.777,13.459,1.068,20.082,7.477
	c6.623,6.409,26.919,19.869,31.619,22.219c4.7,2.35,15.169,6.623,8.118,14.1c-7.05,7.477-25.514-3.579-37.956-11.827
	c2.516,2.656,6.85,12.862,8.388,20.271c0.656,3.16,15.239,38.306,17.895,48.092c2.656,9.786-7.13,9.926-9.786,5.452
	c-2.656-4.474-22.368-45.296-22.368-45.296s19.816,44.334,23.487,52.286c5.033,10.905-5.312,14.4-10.066,6.99
	c-2.062-3.214-22.928-48.791-22.928-48.791s16.636,38.166,19.712,45.296c3.076,7.13-4.614,12.722-9.227,4.614
	c-2.566-4.511-19.983-42.518-19.983-42.518s6.544,17.414,8.38,23.225s2.991,10.695-0.121,11.949
	c-3.653,1.472-7.234-1.653-17.634-25.51c-10.399-23.857-12.582-32.574-14.788-46.367c-2.027-12.678-6.117-25.692-11.011-33.95
	c-4.894-8.258-21.41-29.057-52.914-66.066s-40.374-62.09-45.267-92.675c-8.564-16.822-21.104-40.985-26.304-68.513
	c-1.224,6.423-18.963,52.302-25.386,61.478c-6.423,9.176-5.2,13.764-5.505,22.94c-0.306,9.176-0.065,45.41,1.758,51.609
	c1.823,6.199,12.58,37.193,13.719,48.969s6.458,50.145,7.598,61.541s3.039,68.379,3.799,90.792s-0.38,84.334-6.078,104.848
	s-14.436,56.603-15.195,68.379s-7.218,24.312-5.698,31.91s9.877,51.284,11.396,60.401s2.279,41.407-8.737,69.139
	s-26.123,95.694-29.818,115.647c-3.695,19.953-2.71,41.876-2.71,41.876s4.68,6.897,4.68,13.056c0,6.158-1.724,12.809,3.941,19.214
	c5.666,6.405,10.592,14.533,13.302,21.923c2.71,7.39,11.331,14.041,16.011,16.75c4.68,2.71,0.985,13.794-5.419,13.794
	c-6.405,0-44.832,0-53.7,0c-8.868,0-12.809-4.188-14.78-11.577c-1.971-7.39,1.232-27.589,2.217-34.979
	c0.985-7.39,2.463-15.272,2.463-15.272c-1.266-2.571-2.022-13.163-0.617-17.27s1.945-10.052,1.837-14.807
	c-0.108-4.755-1.286-62.158-3.95-73.633c-2.664-11.474-9.016-49.688-9.835-73.969c-0.82-24.281,5.122-69.564,8.196-83.497
	c3.074-13.933,5.327-26.842,5.737-31.76c0.41-4.918,3.483-13.728,3.483-22.744s-0.82-27.866-2.869-39.136
	c-2.049-11.27-7.991-42.824-9.22-63.314c-1.229-20.49-7.991-80.526-9.221-93.639c-1.229-13.114-7.991-44.873-7.991-44.873
	s-6.762,31.759-7.991,44.873s-7.991,73.149-9.22,93.639c-1.229,20.49-7.172,52.045-9.221,63.314
	c-2.049,11.27-2.869,30.12-2.869,39.136s3.073,17.826,3.483,22.744s2.664,17.826,5.737,31.76s9.016,59.216,8.196,83.497
	c-0.82,24.281-7.172,62.495-9.835,73.969c-2.664,11.474-3.842,68.877-3.95,73.633c-0.108,4.755,0.432,10.7,1.837,14.807
	c1.405,4.107,0.648,14.699-0.617,17.27c0,0,1.478,7.883,2.463,15.272c0.985,7.39,4.188,27.589,2.217,34.979
	c-1.971,7.39-5.912,11.577-14.78,11.577c-8.868,0-47.295,0-53.7,0s-10.099-11.085-5.419-13.794c4.68-2.71,13.302-9.36,16.011-16.75
	s7.636-15.519,13.302-21.923c5.666-6.405,3.941-13.055,3.941-19.214c0-6.158,4.68-13.056,4.68-13.056s0.985-21.923-2.71-41.876
	c-3.695-19.953-18.801-87.916-29.818-115.647s-10.257-60.021-8.737-69.139s9.877-52.804,11.396-60.401s-4.938-20.134-5.698-31.91
	s-9.497-47.865-15.195-68.379s-6.838-82.435-6.078-104.848s2.659-79.396,3.799-90.792s6.458-49.765,7.598-61.541
	s11.896-42.77,13.719-48.969c1.823-6.199,2.064-42.433,1.758-51.609c-0.306-9.176,0.917-13.764-5.505-22.94
	c-6.423-9.176-24.163-55.055-25.386-61.478c-5.2,27.527-17.74,51.69-26.304,68.513c-4.894,30.586-13.764,55.666-45.267,92.675
	c-31.504,37.009-48.02,57.807-52.914,66.066c-4.894,8.258-8.984,21.273-11.011,33.95c-2.206,13.793-4.388,22.51-14.788,46.367
	c-10.399,23.857-13.98,26.982-17.633,25.51c-3.113-1.254-1.957-6.138-0.121-11.949c1.835-5.811,8.38-23.225,8.38-23.225
	s-17.417,38.007-19.983,42.518c-4.614,8.109-12.303,2.516-9.227-4.614c3.076-7.13,19.712-45.296,19.712-45.296
	s-20.866,45.577-22.927,48.791c-4.753,7.409-15.099,3.914-10.066-6.99c3.67-7.953,23.487-52.286,23.487-52.286
	s-19.712,40.822-22.368,45.296c-2.656,4.474-12.442,4.334-9.786-5.452c2.656-9.786,17.239-44.932,17.895-48.092
	c1.538-7.41,5.872-17.615,8.388-20.271c-12.442,8.248-30.906,19.305-37.956,11.827c-7.05-7.477,3.418-11.75,8.118-14.1
	c4.7-2.35,24.996-15.81,31.619-22.219c6.623-6.409,18.159-4.7,20.082-7.477c1.923-2.777,10.357-12.626,13.898-17.265
	c3.54-4.639,23.521-43.637,31.465-72.766s19.74-49.35,30.573-62.349c10.833-12.999,15.888-17.814,15.647-26.48
	c-0.241-8.666,2.407-37.795,5.537-52.479c3.129-14.685,12.277-37.795,12.277-42.368s-1.204-44.294,0.722-56.09
	c1.926-11.796,17.573-38.998,39.961-43.813c22.388-4.815,42.609-6.981,53.201-13.962c10.592-6.981,32.258-20.221,36.35-27.684
	c0-7.222,0-16.37,0-16.37s-9.148-4.574-9.148-9.629c0-5.055-2.407-21.184-2.407-21.184s-1.926,0-3.611-3.37
	c-1.685-3.37-8.907-22.388-9.629-25.758c-0.722-3.37,6.981-6.259,8.666-6.259c-1.685-20.943-1.867-44.387,9.388-62.108
	c11.314-17.814,27.946-24.591,34.665-25.758C1347.39,359.63,1359.216,359.676,1365.036,360.632z"/>
<path d="M608.414,1614.463c4.472,0,8.012,8.944,9.13,13.229c1.118,4.286,0.559,9.689-3.168,9.689c-3.727,0-5.963,0-7.64,0
	s-4.286-2.236-3.354-10.434S605.619,1614.463,608.414,1614.463z"/>
<path d="M585.682,1596.762c0,0,12.111,7.826,14.347,11.366s2.609,8.944,0.745,17.142c-1.863,8.198-3.913,12.298-3.913,12.298
	s-17.766,1.167-32.421-2.05c-7.64-1.677,0-10.248,3.168-14.347S585.682,1596.762,585.682,1596.762z"/>
<path d="M620.339,1622.103c0,0-11.739-16.77-18.819-23.105s-13.043-9.689-13.416-12.298c-0.373-2.609,2.609-8.012,3.727-14.534
	c1.118-6.522,0-23.478,4.658-23.478c4.658,0,13.788,10.248,19.565,24.409C621.83,1587.259,622.575,1597.88,620.339,1622.103z"/>
<path d="M617.917,1568.067c0,0-8.198-17.888-12.67-24.223c-4.472-6.335-7.453-10.248-4.845-14.347c2.609-4.099,6.708-0.932,8.012,0
	c1.304,0.932,9.317,6.708,9.317,11.18S617.917,1568.067,617.917,1568.067z"/>
<path fill="#BA222D" d="M600.666,1519.162c-2.279,1.234-8.574-16.195-11.051-25.531s-14.48-55.444-19.053-71.83
	c-4.573-16.385-11.051-34.676-11.813-40.773c-0.762-6.097-2.477-52.681-2.286-56.206c0.19-3.525,1.524,0.286,3.811,8.86
	c2.286,8.574,12.575,47.251,15.433,58.111c2.858,10.86,9.145,44.774,10.86,56.206c1.715,11.432,5.716,38.296,9.908,50.3
	C600.666,1510.302,602.953,1517.923,600.666,1519.162z"/>
<path fill="#BA222D" d="M606.763,1523.448c-0.86-4.129-8.383-42.869-10.67-53.92c-2.286-11.051-10.67-52.015-13.528-63.256
	c-2.858-11.241-11.051-43.441-13.909-52.396c-2.858-8.955-5.525-20.577-6.478-31.247c-0.953-10.67-1.143-29.723-0.572-35.057
	c0.572-5.335,4.001-1.905,5.525,3.811c1.524,5.716,16.004,47.442,19.625,67.257s8.383,53.729,9.908,70.305
	s2.571,37.274,6.097,52.205c3.239,13.718,7.825,29.247,9.336,36.391C614.194,1527.45,607.716,1528.021,606.763,1523.448z"/>
<path fill="#BA222D" d="M613.051,1507.254c-1.309-0.256-6.287-33.724-7.24-44.012s-2.667-55.063-2.286-77.164
	c0.381-22.101,2.858-38.106,6.097-51.252c3.239-13.146,6.478-22.864,8.193-22.673c1.715,0.191,4.192,9.145,6.287,21.53
	s8.764,34.105,8.764,47.632s-1.617,34.308-6.478,56.587C621.485,1460.37,614.963,1507.628,613.051,1507.254z"/>
<path d="M599.26,1331.912c0,0-2.921-27.636,1.348-40.893c4.269-13.256,9.437-28.535,10.785-36.399
	c1.348-7.864,2.247-22.019,2.247-22.019s4.044,13.032,3.82,28.086c-0.225,15.054-6.291,37.522-9.886,46.285
	S599.485,1323.374,599.26,1331.912z"/>
<path fill="#B3B3B3" d="M595.216,1275.292c-1.797,0-10.336-19.548-12.358-26.738c-2.022-7.19-1.348-14.38,9.437-14.38
	c10.785,0,13.256,2.921,12.582,10.336C604.203,1251.925,598.811,1275.292,595.216,1275.292z"/>
<path fill="#B3B3B3" d="M585.779,1282.257c0,0-10.785-6.291-15.279-8.763s-4.943-9.437-5.168-13.481
	c-0.225-4.044-5.168-38.646-4.943-45.162c4.943,13.706,12.807,33.253,16.627,40.219
	C580.836,1262.035,585.779,1276.191,585.779,1282.257z"/>
<path fill="#865D99" d="M574.32,1225.187c-3.576,0.37-17.525-39.545-21.57-51.453c-4.044-11.908-13.706-46.734-14.38-74.146
	c-0.674-27.412,0.225-43.814,0.899-57.07c0.674-13.256,0.225-26.962,2.247-26.962s2.022,12.133,6.741,33.927
	c4.718,21.795,20.446,86.729,22.693,93.694c2.247,6.965,6.516,25.389,6.516,34.152S580.836,1224.513,574.32,1225.187z"/>
<path fill="#865D99" d="M590.498,1220.693c-3.781-0.54-5.168-4.269-4.494-12.582s-1.348-48.981-2.022-51.678
	c-0.674-2.696-18.424-51.678-22.019-62.912s-15.054-53.924-16.627-83.808s-0.449-43.14,0.449-55.722
	c0.899-12.582,1.797-19.772,2.696-25.389c0.959-5.994,2.022-9.886,3.595-4.494s13.93,39.32,17.301,56.171
	c3.37,16.851,16.508,49.166,20.896,63.361c7.639,24.715,11.01,46.959,11.459,68.304c0.449,21.345,0.225,46.959-0.899,63.811
	C599.71,1192.608,598.362,1221.817,590.498,1220.693z"/>
<path fill="#865D99" d="M609.821,1229.231c-5.245-0.095-7.415-11.459-5.617-31.681c1.797-20.222,4.494-34.826,4.718-42.016
	c0.225-7.19-1.348-36.624-2.022-47.409c-0.674-10.785,0-15.279,2.022-15.054c2.022,0.225,4.494,10.111,7.415,25.614
	s8.089,40.443,7.639,58.643C623.526,1195.529,622.178,1229.456,609.821,1229.231z"/>
<path fill="#865D99" d="M626.223,1133.965c0,0-8.656-41.879-21.794-73.023c-9.098-21.567-51.323-131.724-40.109-142.938
	c3.867,18.56,24.747,46.401,32.867,63.414c8.12,17.013,22.427,51.427,26.68,83.521
	C628.12,1097.033,627.806,1133.776,626.223,1133.965z"/>
<path d="M641.473,975.022c0,0,0.226,25.972-1.581,46.525s-8.13,44.04-11.292,43.814s-2.258-21.004-2.258-24.391
	s-10.163-13.325-6.775-21.004C622.954,1012.287,641.473,975.022,641.473,975.022z"/>
<path d="M614.372,1009.577c-2.727-0.606-4.517-17.39-5.42-23.94c-0.903-6.55-33.425-63.915-33.425-63.915s9.26,4.517,26.65,21.23
	c17.39,16.713,30.941,28.457,30.264,31.167C631.762,976.829,618.437,1010.48,614.372,1009.577z"/>
<path fill="#428AAD" d="M628.958,956.661c-6.438,1.463-11.225-7.184-15.49-18.858c-4.265-11.674-16.388-66.451-18.633-82.39
	s2.245-15.266,9.429-15.49s15.041,3.143,21.776,7.633c6.735,4.49,9.653,9.878,9.878,20.654s1.347,67.124,1.571,75.879
	S633.897,955.538,628.958,956.661z"/>
<path fill="#91533E" d="M567.671,905.7c-3.673-1.624-5.388-5.388-4.939-11.674c0.449-6.286,1.571-48.042,1.571-59.267
	s-2.021-31.654,3.592-28.286c5.612,3.367,14.592,11.449,14.592,16.613c0,5.163,2.245,52.532,2.469,61.063s2.918,21.103,2.02,24.245
	C586.079,911.537,579.345,910.864,567.671,905.7z"/>
<path fill="#428AAD" d="M635.917,837.229c-2.224-0.741-12.572-6.959-16.837-6.959c-4.265,0-26.49,2.469-27.388-3.367
	c-0.898-5.837-1.347-23.123,1.796-25.592c3.143-2.469,15.266-9.204,28.735-8.082c13.47,1.122,15.715,4.49,15.939,7.857
	C638.387,804.453,639.958,838.576,635.917,837.229z"/>
<path fill="#91533E" d="M550.54,754.861c0.596-1.191,2.955,1.662,6.463,7.017s12.557,11.449,16.251,12.742
	c3.693,1.293,2.216,3.878,2.401,6.833c0.185,2.955,0,8.31,0,11.449c0,3.139-3.878,2.77-6.463,1.293
	c-2.585-1.477-12.742-9.233-13.85-14.773C554.234,773.882,549.432,757.077,550.54,754.861z"/>
<path fill="#428AAD" d="M594.676,784.777c0,0-4.617-12.927-2.585-18.282c2.031-5.355,11.449-18.651,25.299-22.16
	c13.85-3.509,21.421-0.923,21.421,1.847c0,2.77,1.293,26.592-2.216,32.501c-3.509,5.909-16.435,2.216-25.484,2.216
	C602.062,780.899,596.338,785.331,594.676,784.777z"/>
<path fill="#428AAD" d="M591.536,746.551c0,0-0.369-16.066,3.139-23.453c3.509-7.387,16.435-18.282,29.916-19.205
	c13.481-0.923,15.143,1.477,14.958,7.017c-0.185,5.54,0.739,19.759-5.171,20.313c-5.909,0.554-22.16,2.216-28.993,4.801
	C598.554,738.611,591.721,749.506,591.536,746.551z"/>
<path fill="#91533E" d="M572.331,761.694c-2.211-0.147-16.435-17.728-18.282-24.191s0.739-7.202,6.094-4.617
	c5.355,2.585,12.557,7.202,13.296,10.157C574.178,745.997,575.101,761.879,572.331,761.694z"/>
<path fill="#91533E" d="M574.994,733.116c-2.68-0.096-14.174-8.811-19.153-17.43c-4.98-8.619,2.49-7.278,5.746-6.321
	c3.256,0.958,15.323,4.597,16.089,8.427S580.357,733.307,574.994,733.116z"/>
<path fill="#91533E" d="M579.782,708.216c-3.432-0.327-23.367-12.258-25.857-18.579s9.194-2.681,14.557-0.958
	c5.363,1.724,17.621,5.746,18.004,8.811C586.869,700.555,583.804,708.599,579.782,708.216z"/>
<path fill="#91533E" d="M533.431,673.932c1.197,0.898,12.833,27.198,14.174,34.859c1.341,7.661,0.383,42.138-1.724,42.138
	s-9.96-16.855-10.917-32.944C534.005,701.896,532.665,673.357,533.431,673.932z"/>
<path fill="#C85E84" d="M534.054,664.996c0,0,5.356-27.079,24.401-50.588c19.045-23.509,39.578-25.592,51.778-23.211
	s29.46,10.118,30.353,16.962c0.893,6.844,0.298,73.204,0.298,77.37s-9.522,11.605-27.972,11.605
	C594.462,697.134,548.932,675.709,534.054,664.996z"/>
<path d="M611.635,525.4c0.249-3.736,1.248-4.992,3.744-0.25c2.496,4.743,25.211,47.428,25.96,50.423s0,21.966-1.498,22.216
	c-1.498,0.25-3.994-3.744-5.492-6.989c-1.498-3.245-20.718-38.691-21.467-40.937C612.134,547.616,610.886,536.633,611.635,525.4z"/>
<path d="M611.109,565.519c2.399,0.8,7.177,13.966,5.237,15.712s-13.578,1.746-13.772-2.328S609.363,564.937,611.109,565.519z"/>
<path d="M579.879,577.351c-3.298,0-23.471-0.388-23.471-3.298s11.833-9.505,19.398-13.578c7.565-4.074,27.739-14.936,29.872-11.639
	c2.134,3.298-0.388,7.177-5.237,12.608C596.503,565.855,584.534,577.351,579.879,577.351z"/>
<path fill="#CB911D" d="M536.364,578.188c0,0-18.832,13.52-29.696,31.386c-7.482,12.304-16.666,31.427-20.28,43.699
	c-2.897-5.794-4.735-28.557,0.966-45.872C493.872,587.604,512.221,576.498,536.364,578.188z"/>
<path fill="#CB911D" d="M492.906,658.826c0,0-0.724-14.244,18.832-39.595s40.319-35.008,48.769-36.939
	c-1.931,23.902-14.969,42.009-22.453,50.942C530.569,642.168,507.875,661.241,492.906,658.826z"/>
<path fill="#35784C" d="M473.109,775.921c-10.14,0-7.726-15.452-6.036-21.97c1.69-6.519,1.931-24.385,1.931-33.076
	s2.656-27.765,11.347-40.56c8.691-12.796,35.249-19.556,41.526-15.693c6.277,3.863,6.277,18.349,3.38,35.49
	c-2.897,17.142-9.982,32.129-20.763,47.32C493.872,762.4,479.869,775.921,473.109,775.921z"/>
<path fill="#35784C" d="M475.523,791.855c-1.986-1.828,3.621-4.587,7.726-7.484c4.104-2.897,26.557-25.833,32.11-36.456
	c5.553-10.623,7.484-7.967,7.484-3.863s-0.483,8.692-9.174,19.073C504.978,773.506,481.559,797.408,475.523,791.855z"/>
<path fill="#A77D4E" d="M389.091,934.782c-2.121-0.53,6.277-17.383,9.899-25.592c3.621-8.209,13.037-27.282,18.59-48.045
	s26.799-68.325,49.976-77.741c0.483,13.762-3.139,29.938-13.762,49.976s-27.523,42.25-34.042,51.183
	c-6.519,8.933-22.695,37.905-25.35,43.699C391.746,934.058,391.022,935.265,389.091,934.782z"/>
<path fill="#A77D4E" d="M395.126,938.645c-1.43-1.022,15.452-29.455,31.869-52.149c16.417-22.695,35.49-36.456,38.146-35.49
	c2.656,0.966-20.28,30.42-25.592,36.456C434.238,893.497,396.816,939.852,395.126,938.645z"/>
<path fill="#A77D4E" d="M399.714,939.369c-0.375-1.5,21.005-18.349,33.076-31.869c12.072-13.52,42.975-51.425,45.63-56.978
	s3.863-0.241-2.656,11.106c-6.519,11.347-24.867,36.456-42.733,51.666C415.165,928.505,400.196,941.301,399.714,939.369z"/>
<path fill="#A77D4E" d="M491.94,830.243c-0.192,1.534-12.796,5.311-21.487,11.106s-15.693,10.14-16.417,5.794
	c-0.724-4.346,7.967-15.693,16.417-26.316c8.45-10.623,17.142-19.556,19.073-19.073c1.931,0.483,2.414,2.656,2.414,7.484
	S492.182,828.311,491.94,830.243z"/>
<path d="M318.068,988.528c-5.012-0.334-10.701-3.931-7.207-5.897c3.494-1.966,29.264-17.034,35.598-21.184
	s13.977-9.828,16.598-9.391c2.621,0.437,4.586,4.805,0.437,8.954S334.447,989.62,318.068,988.528z"/>
<path d="M350.39,994.643c-2.402-3.057,1.529-10.701,7.862-20.092c6.333-9.391,15.724-22.276,17.69-23.149
	c1.966-0.874,13.977,0.218,16.598,1.092c2.621,0.874,3.931,1.31,3.713,7.644c-0.218,6.333,0.218,17.471-1.747,26.207
	s-7.207,24.46-11.793,29.701c-4.586,5.241-11.138,1.092-14.851-2.402c-1.672-1.573-3.937-6.181-6.77-9.172
	C357.632,1000.819,353.477,998.572,350.39,994.643z"/>
<path d="M367.127,1052.33c-1.306-0.688-0.549-7.142,2.564-14.65s8.973-17.58,10.255-15.565c1.282,2.014-0.916,12.635-2.747,17.213
	S370.607,1054.161,367.127,1052.33z"/>
<path d="M347.716,1063.5c-2.543-1.271-2.014-6.592-0.549-9.522c1.465-2.93,11.72-28.933,13.551-32.779
	c1.831-3.846,3.479-4.761,4.944-2.93c1.465,1.831,2.747,5.494,0.183,12.635c-2.564,7.142-9.156,23.623-11.537,28.017
	C351.928,1063.317,349.548,1064.416,347.716,1063.5z"/>
<path d="M335.081,1064.782c-2.791-1.279-2.197-9.339,0.183-15.382c2.381-6.043,14.283-34.976,16.298-38.455
	c2.014-3.479,3.662-2.564,4.761-1.465c1.099,1.099,4.212,3.296,2.197,9.339c-2.014,6.043-12.269,31.68-15.016,37.357
	S339.476,1066.796,335.081,1064.782z"/>
<path d="M327.024,1049.4c-1.883-0.588-2.564-7.142,0-14.466c2.564-7.325,13.551-30.764,15.016-34.243
	c1.465-3.479,6.959-2.014,7.142,0.732c0.183,2.747-0.732,6.409-2.014,10.072c-1.282,3.662-10.072,25.087-11.903,29.299
	C333.433,1045.005,329.954,1050.315,327.024,1049.4z"/>
<path d="M686.486,1614.463c-4.472,0-8.012,8.944-9.13,13.229c-1.118,4.286-0.559,9.689,3.168,9.689c3.727,0,5.963,0,7.64,0
	c1.677,0,4.286-2.236,3.354-10.434S689.281,1614.463,686.486,1614.463z"/>
<path d="M709.218,1596.762c0,0-12.111,7.826-14.347,11.366s-2.609,8.944-0.745,17.142c1.863,8.198,3.913,12.298,3.913,12.298
	s17.766,1.167,32.421-2.05c7.64-1.677,0-10.248-3.168-14.347S709.218,1596.762,709.218,1596.762z"/>
<path d="M674.561,1622.103c0,0,11.739-16.77,18.819-23.105c7.081-6.335,13.043-9.689,13.416-12.298
	c0.373-2.609-2.609-8.012-3.727-14.534c-1.118-6.522,0-23.478-4.658-23.478c-4.658,0-13.788,10.248-19.565,24.409
	C673.07,1587.259,672.325,1597.88,674.561,1622.103z"/>
<path d="M676.983,1568.067c0,0,8.198-17.888,12.67-24.223c4.472-6.335,7.453-10.248,4.845-14.347c-2.609-4.099-6.708-0.932-8.012,0
	c-1.304,0.932-9.316,6.708-9.316,11.18S676.983,1568.067,676.983,1568.067z"/>
<path fill="#BA222D" d="M694.234,1519.162c2.279,1.234,8.574-16.195,11.051-25.531s14.48-55.444,19.053-71.83
	c4.573-16.385,11.051-34.676,11.813-40.773c0.762-6.097,2.477-52.681,2.286-56.206c-0.191-3.525-1.524,0.286-3.811,8.86
	c-2.286,8.574-12.575,47.251-15.433,58.111c-2.858,10.86-9.145,44.774-10.86,56.206c-1.715,11.432-5.716,38.296-9.908,50.3
	C694.234,1510.302,691.947,1517.923,694.234,1519.162z"/>
<path fill="#BA222D" d="M688.137,1523.448c0.86-4.129,8.383-42.869,10.67-53.92c2.286-11.051,10.67-52.015,13.528-63.256
	c2.858-11.241,11.051-43.441,13.909-52.396c2.858-8.955,5.525-20.577,6.478-31.247c0.953-10.67,1.143-29.723,0.572-35.057
	c-0.572-5.335-4.001-1.905-5.525,3.811c-1.524,5.716-16.004,47.442-19.625,67.257s-8.383,53.729-9.908,70.305
	c-1.524,16.576-2.571,37.274-6.097,52.205c-3.239,13.718-7.825,29.247-9.336,36.391
	C680.706,1527.45,687.184,1528.021,688.137,1523.448z"/>
<path fill="#BA222D" d="M681.849,1507.254c1.309-0.256,6.287-33.724,7.24-44.012s2.667-55.063,2.286-77.164
	c-0.381-22.101-2.858-38.106-6.097-51.252c-3.239-13.146-6.478-22.864-8.193-22.673c-1.715,0.191-4.192,9.145-6.287,21.53
	s-8.764,34.105-8.764,47.632s1.617,34.308,6.478,56.587C673.415,1460.37,679.938,1507.628,681.849,1507.254z"/>
<path d="M695.64,1331.912c0,0,2.921-27.636-1.348-40.893c-4.269-13.256-9.437-28.535-10.785-36.399
	c-1.348-7.864-2.247-22.019-2.247-22.019s-4.044,13.032-3.82,28.086c0.225,15.054,6.291,37.522,9.886,46.285
	S695.415,1323.374,695.64,1331.912z"/>
<path fill="#B3B3B3" d="M699.684,1275.292c1.797,0,10.336-19.548,12.358-26.738c2.022-7.19,1.348-14.38-9.437-14.38
	c-10.785,0-13.256,2.921-12.582,10.336C690.697,1251.925,696.089,1275.292,699.684,1275.292z"/>
<path fill="#B3B3B3" d="M709.121,1282.257c0,0,10.785-6.291,15.279-8.763s4.943-9.437,5.168-13.481
	c0.225-4.044,5.168-38.646,4.943-45.162c-4.943,13.706-12.807,33.253-16.627,40.219
	C714.064,1262.035,709.121,1276.191,709.121,1282.257z"/>
<path fill="#865D99" d="M720.58,1225.187c3.576,0.37,17.525-39.545,21.57-51.453c4.044-11.908,13.706-46.734,14.38-74.146
	c0.674-27.412-0.225-43.814-0.899-57.07c-0.674-13.256-0.225-26.962-2.247-26.962c-2.022,0-2.022,12.133-6.741,33.927
	c-4.718,21.795-20.446,86.729-22.693,93.694c-2.247,6.965-6.516,25.389-6.516,34.152S714.064,1224.513,720.58,1225.187z"/>
<path fill="#865D99" d="M704.402,1220.693c3.781-0.54,5.168-4.269,4.494-12.582s1.348-48.981,2.022-51.678
	c0.674-2.696,18.424-51.678,22.019-62.912s15.054-53.924,16.627-83.808c1.573-29.883,0.449-43.14-0.449-55.722
	c-0.899-12.582-1.797-19.772-2.696-25.389c-0.959-5.994-2.022-9.886-3.595-4.494s-13.93,39.32-17.301,56.171
	c-3.37,16.851-16.508,49.166-20.896,63.361c-7.639,24.715-11.01,46.959-11.459,68.304c-0.449,21.345-0.225,46.959,0.899,63.811
	C695.19,1192.608,696.539,1221.817,704.402,1220.693z"/>
<path fill="#865D99" d="M685.08,1229.231c5.245-0.095,7.415-11.459,5.617-31.681c-1.797-20.222-4.494-34.826-4.718-42.016
	c-0.225-7.19,1.348-36.624,2.022-47.409c0.674-10.785,0-15.279-2.022-15.054c-2.022,0.225-4.494,10.111-7.415,25.614
	c-2.921,15.503-8.089,40.443-7.639,58.643C671.374,1195.529,672.722,1229.456,685.08,1229.231z"/>
<path fill="#865D99" d="M668.678,1133.965c0,0,8.656-41.879,21.794-73.023c9.098-21.567,51.323-131.724,40.109-142.938
	c-3.867,18.56-24.747,46.401-32.867,63.414c-8.12,17.013-22.427,51.427-26.68,83.521
	C666.781,1097.033,667.094,1133.776,668.678,1133.965z"/>
<path d="M653.427,975.022c0,0-0.226,25.972,1.581,46.525s8.13,44.04,11.292,43.814s2.258-21.004,2.258-24.391
	s10.163-13.325,6.775-21.004C671.946,1012.287,653.427,975.022,653.427,975.022z"/>
<path d="M680.528,1009.577c2.727-0.606,4.517-17.39,5.42-23.94c0.903-6.55,33.425-63.915,33.425-63.915s-9.26,4.517-26.65,21.23
	c-17.39,16.713-30.941,28.457-30.263,31.167C663.138,976.829,676.463,1010.48,680.528,1009.577z"/>
<path fill="#428AAD" d="M665.942,956.661c6.438,1.463,11.225-7.184,15.49-18.858c4.265-11.674,16.388-66.451,18.633-82.39
	s-2.245-15.266-9.429-15.49s-15.041,3.143-21.776,7.633c-6.735,4.49-9.653,9.878-9.878,20.654s-1.347,67.124-1.571,75.879
	S661.003,955.538,665.942,956.661z"/>
<path fill="#91533E" d="M727.229,905.7c3.673-1.624,5.388-5.388,4.939-11.674c-0.449-6.286-1.571-48.042-1.571-59.267
	s2.021-31.654-3.592-28.286c-5.612,3.367-14.592,11.449-14.592,16.613c0,5.163-2.245,52.532-2.469,61.063s-2.918,21.103-2.02,24.245
	C708.821,911.537,715.556,910.864,727.229,905.7z"/>
<path fill="#428AAD" d="M658.983,837.229c2.224-0.741,12.572-6.959,16.837-6.959c4.265,0,26.49,2.469,27.388-3.367
	c0.898-5.837,1.347-23.123-1.796-25.592c-3.143-2.469-15.266-9.204-28.735-8.082c-13.47,1.122-15.715,4.49-15.939,7.857
	C656.513,804.453,654.942,838.576,658.983,837.229z"/>
<path fill="#91533E" d="M744.36,754.861c-0.596-1.191-2.955,1.662-6.463,7.017s-12.557,11.449-16.251,12.742
	c-3.693,1.293-2.216,3.878-2.401,6.833c-0.185,2.955,0,8.31,0,11.449c0,3.139,3.878,2.77,6.463,1.293
	c2.585-1.477,12.742-9.233,13.85-14.773C740.667,773.882,745.468,757.077,744.36,754.861z"/>
<path fill="#428AAD" d="M700.224,784.777c0,0,4.617-12.927,2.585-18.282c-2.031-5.355-11.449-18.651-25.299-22.16
	c-13.85-3.509-21.421-0.923-21.421,1.847c0,2.77-1.293,26.592,2.216,32.501c3.509,5.909,16.435,2.216,25.484,2.216
	C692.838,780.899,698.562,785.331,700.224,784.777z"/>
<path fill="#428AAD" d="M703.364,746.551c0,0,0.369-16.066-3.139-23.453c-3.509-7.387-16.435-18.282-29.916-19.205
	s-15.143,1.477-14.958,7.017c0.185,5.54-0.739,19.759,5.171,20.313c5.909,0.554,22.16,2.216,28.993,4.801
	C696.346,738.611,703.179,749.506,703.364,746.551z"/>
<path fill="#91533E" d="M722.569,761.694c2.211-0.147,16.435-17.728,18.282-24.191s-0.739-7.202-6.094-4.617
	c-5.355,2.585-12.557,7.202-13.296,10.157C720.723,745.997,719.799,761.879,722.569,761.694z"/>
<path fill="#91533E" d="M719.906,733.116c2.68-0.096,14.174-8.811,19.153-17.43c4.98-8.619-2.49-7.278-5.746-6.321
	c-3.256,0.958-15.323,4.597-16.089,8.427S714.543,733.307,719.906,733.116z"/>
<path fill="#91533E" d="M715.118,708.216c3.432-0.327,23.367-12.258,25.857-18.579s-9.194-2.681-14.557-0.958
	c-5.363,1.724-17.621,5.746-18.004,8.811C708.031,700.555,711.096,708.599,715.118,708.216z"/>
<path fill="#91533E" d="M761.469,673.932c-1.197,0.898-12.833,27.198-14.174,34.859c-1.341,7.661-0.383,42.138,1.724,42.138
	s9.96-16.855,10.917-32.944C760.895,701.896,762.235,673.357,761.469,673.932z"/>
<path fill="#C85E84" d="M760.847,664.996c0,0-5.356-27.079-24.401-50.588c-19.045-23.509-39.578-25.592-51.778-23.211
	c-12.201,2.381-29.46,10.118-30.353,16.962c-0.893,6.844-0.298,73.204-0.298,77.37s9.522,11.605,27.972,11.605
	S745.968,675.709,760.847,664.996z"/>
<path d="M683.265,525.4c-0.249-3.736-1.248-4.992-3.744-0.25c-2.496,4.743-25.212,47.428-25.96,50.423s0,21.966,1.498,22.216
	c1.498,0.25,3.994-3.744,5.492-6.989c1.498-3.245,20.718-38.691,21.467-40.937C682.766,547.616,684.014,536.633,683.265,525.4z"/>
<path d="M683.791,565.519c-2.399,0.8-7.177,13.966-5.237,15.712c1.94,1.746,13.578,1.746,13.772-2.328
	S685.537,564.937,683.791,565.519z"/>
<path d="M715.021,577.351c3.298,0,23.471-0.388,23.471-3.298s-11.833-9.505-19.398-13.578c-7.565-4.074-27.739-14.936-29.872-11.639
	s0.388,7.177,5.237,12.608C698.398,565.855,710.366,577.351,715.021,577.351z"/>
<path fill="#CB911D" d="M758.537,578.188c0,0,18.832,13.52,29.696,31.386c7.482,12.304,16.666,31.427,20.28,43.699
	c2.897-5.794,4.736-28.557-0.966-45.872C801.028,587.604,782.68,576.498,758.537,578.188z"/>
<path fill="#CB911D" d="M801.994,658.826c0,0,0.724-14.244-18.832-39.595s-40.319-35.008-48.769-36.939
	c1.931,23.902,14.969,42.009,22.453,50.942C764.331,642.168,787.025,661.241,801.994,658.826z"/>
<path fill="#35784C" d="M821.792,775.921c10.14,0,7.726-15.452,6.036-21.97s-1.931-24.385-1.931-33.076s-2.656-27.765-11.347-40.56
	s-35.249-19.556-41.526-15.693c-6.277,3.863-6.277,18.349-3.38,35.49c2.897,17.142,9.982,32.129,20.763,47.32
	C801.028,762.4,815.031,775.921,821.792,775.921z"/>
<path fill="#35784C" d="M819.377,791.855c1.986-1.828-3.621-4.587-7.726-7.484c-4.104-2.897-26.557-25.833-32.11-36.456
	s-7.484-7.967-7.484-3.863s0.483,8.692,9.174,19.073S813.341,797.408,819.377,791.855z"/>
<path fill="#A77D4E" d="M905.81,934.782c2.121-0.53-6.277-17.383-9.899-25.592c-3.621-8.209-13.037-27.282-18.59-48.045
	s-26.799-68.325-49.976-77.741c-0.483,13.762,3.139,29.938,13.762,49.976c10.623,20.039,27.523,42.25,34.042,51.183
	c6.519,8.933,22.695,37.905,25.35,43.699C903.154,934.058,903.878,935.265,905.81,934.782z"/>
<path fill="#A77D4E" d="M899.774,938.645c1.43-1.022-15.452-29.455-31.869-52.149c-16.417-22.695-35.49-36.456-38.146-35.49
	c-2.656,0.966,20.28,30.42,25.592,36.456C860.662,893.497,898.084,939.852,899.774,938.645z"/>
<path fill="#A77D4E" d="M895.187,939.369c0.375-1.5-21.005-18.349-33.076-31.869c-12.072-13.52-42.975-51.425-45.63-56.978
	c-2.656-5.553-3.863-0.241,2.656,11.106c6.519,11.347,24.867,36.456,42.733,51.666S894.704,941.301,895.187,939.369z"/>
<path fill="#A77D4E" d="M802.96,830.243c0.192,1.534,12.796,5.311,21.487,11.106c8.691,5.794,15.693,10.14,16.417,5.794
	s-7.967-15.693-16.417-26.316c-8.45-10.623-17.142-19.556-19.073-19.073c-1.931,0.483-2.414,2.656-2.414,7.484
	S802.718,828.311,802.96,830.243z"/>
<path d="M976.832,988.528c5.012-0.334,10.701-3.931,7.207-5.897c-3.494-1.966-29.264-17.034-35.598-21.184
	s-13.977-9.828-16.598-9.391c-2.621,0.437-4.586,4.805-0.437,8.954S960.453,989.62,976.832,988.528z"/>
<path d="M944.51,994.643c2.402-3.057-1.529-10.701-7.862-20.092c-6.333-9.391-15.724-22.276-17.69-23.149
	c-1.966-0.874-13.977,0.218-16.598,1.092c-2.621,0.874-3.931,1.31-3.713,7.644s-0.218,17.471,1.747,26.207
	s7.207,24.46,11.793,29.701c4.586,5.241,11.138,1.092,14.851-2.402c1.672-1.573,3.937-6.181,6.77-9.172
	C937.268,1000.819,941.424,998.572,944.51,994.643z"/>
<path d="M927.773,1052.33c1.306-0.688,0.549-7.142-2.564-14.65c-3.113-7.508-8.973-17.58-10.255-15.565s0.916,12.635,2.747,17.213
	C919.533,1043.906,924.294,1054.161,927.773,1052.33z"/>
<path d="M947.184,1063.5c2.543-1.271,2.014-6.592,0.549-9.522c-1.465-2.93-11.72-28.933-13.551-32.779
	c-1.831-3.846-3.479-4.761-4.944-2.93c-1.465,1.831-2.747,5.494-0.183,12.635c2.564,7.142,9.156,23.623,11.537,28.017
	S945.352,1064.416,947.184,1063.5z"/>
<path d="M959.819,1064.782c2.791-1.279,2.197-9.339-0.183-15.382s-14.283-34.976-16.298-38.455
	c-2.014-3.479-3.662-2.564-4.761-1.465c-1.099,1.099-4.212,3.296-2.197,9.339c2.014,6.043,12.269,31.68,15.016,37.357
	S955.424,1066.796,959.819,1064.782z"/>
<path d="M967.876,1049.4c1.882-0.588,2.564-7.142,0-14.466c-2.564-7.325-13.551-30.764-15.016-34.243
	c-1.465-3.479-6.959-2.014-7.142,0.732c-0.183,2.747,0.732,6.409,2.014,10.072s10.072,25.087,11.903,29.299
	C961.467,1045.005,964.946,1050.315,967.876,1049.4z"/>
<g>
	<path d="M1052.973,1311.91"/>
</g>
<path d="M686.493,514.699c2.888-1.653,9.175-4.574,9.175-9.629c0-5.055,2.414-21.184,2.414-21.184s1.932,0,3.622-3.37
	s8.934-22.388,9.658-25.758c0.724-3.37-7.002-6.259-8.692-6.259c1.69-20.943,1.872-44.387-9.416-62.108
	c-11.348-17.814-28.006-24.736-34.768-25.758c-6.352-0.96-16.126-1.041-23.132,0c-6.765,1.005-23.42,7.944-34.768,25.758
	c-11.289,17.721-11.107,41.165-9.416,62.108c-1.69,0-9.416,2.889-8.692,6.259c0.724,3.37,7.968,22.388,9.658,25.758
	c1.69,3.37,3.622,3.37,3.622,3.37s2.414,16.129,2.414,21.184c0,5.055,6.287,7.976,9.175,9.629
	c10.217,5.847,34.828,13.45,39.389,13.45C651.433,528.148,676.277,520.546,686.493,514.699z"/>
<path d="M649.012,533.913c1.801-0.12,2.706-0.361,7.035-1.623s4.87,1.443,3.788,4.69c-1.082,3.247-12.266,38.601-12.266,38.601
	s-11.183-35.354-12.266-38.601s-0.541-5.952,3.788-4.69s5.234,1.504,7.035,1.623C646.846,533.961,648.292,533.961,649.012,533.913z"
	/>
<path d="M1397.052,512.175c2.502-1.696,4.878-3.997,4.878-7.105c0-5.055,2.414-21.184,2.414-21.184s1.932,0,3.622-3.37
	c1.69-3.37,8.934-22.388,9.658-25.758c0.724-3.37-7.002-6.259-8.692-6.259c1.69-20.943,1.872-44.387-9.416-62.108
	c-11.348-17.814-28.006-24.736-34.768-25.758c-6.352-0.96-16.126-1.041-23.132,0c-6.765,1.005-23.42,7.944-34.768,25.758
	c-11.289,17.721-11.107,41.165-9.417,62.108c-1.69,0-9.416,2.889-8.692,6.259c0.724,3.37,7.968,22.388,9.658,25.758
	c1.69,3.37,3.622,3.37,3.622,3.37s2.414,16.129,2.414,21.184c0,3.464,2.951,5.926,5.739,7.664
	c1.566-7.278,7.026-53.453,44.774-53.453C1392.692,459.281,1397.052,512.175,1397.052,512.175z"/>
<path d="M1333.209,477.655c0,0,0.215,15.729-1.293,26.933c-1.508,11.204-8.834,22.624-10.989,25.425
	c-0.215-15.944-1.077-30.811,1.293-36.198C1324.591,488.428,1329.762,479.81,1333.209,477.655z"/>
<path d="M1345.49,474.208c0,0,4.525,0.646,7.326,1.724c-3.016,21.762-7.326,107.516-7.541,111.179
	c-8.834-4.525-42.446-16.375-70.026-18.745c12.497-6.895,31.673-21.546,45.894-35.12S1342.043,514.715,1345.49,474.208z"/>
<path fill="#CD9024" d="M1233.881,579.569c0,0,23.055-5.171,45.247-1.724c22.193,3.447,60.545,13.79,64.854,22.839
	c4.309,9.049,3.016,24.563,3.016,32.535c0,7.972,0,47.833,0,59.468s0,24.347-3.878,23.055c-3.878-1.293-30.38-18.53-40.722-40.938
	c-10.342-22.408-22.624-58.175-33.181-73.688C1258.659,585.602,1251.118,581.724,1233.881,579.569z"/>
<path d="M1258.659,597.884c0,0-19.392,26.071-31.027,38.568c-11.635,12.497-27.148,29.303-30.596,31.027
	c-3.448,1.724-9.48-17.883-6.033-41.584c3.447-23.701,19.891-37.06,38.999-37.06C1245.3,588.834,1257.797,594.652,1258.659,597.884z
	"/>
<path fill="#C55F82" d="M1230.649,661.014c-6.757-2.679-2.801-8.834-0.646-12.281c2.155-3.447,15.412-24.613,26.071-34.905
	c6.248-6.033,9.48-5.171,14.005,1.508c4.738,6.994,14.92,36.404,17.453,46.325c2.586,10.127-2.16,8.666-8.403,7.972
	C1271.371,668.771,1243.146,665.97,1230.649,661.014z"/>
<path fill="#38764C" d="M1223.683,654.315c0,0-1.636,11.216,2.337,30.611c3.972,19.395,5.141,40.425,3.739,52.576
	c-1.402,12.151-11.45,38.089-25.938,48.604c3.973-16.123-0.701-35.752-2.337-51.642c-1.636-15.89-3.271-34.584,1.402-49.772
	C1207.559,669.503,1220.411,655.95,1223.683,654.315z"/>
<path d="M1175.079,776.058c0,0-1.636-26.171,2.337-51.408s17.058-48.37,17.993-46.034s-5.608,15.189-10.515,40.425
	C1179.986,744.279,1176.014,776.759,1175.079,776.058z"/>
<path d="M1193.539,714.836c0,0,2.804,28.508,2.804,39.257c0,10.749-1.636,21.498-5.608,21.498s-4.206-12.385-3.505-22.199
	C1187.931,743.578,1191.202,724.183,1193.539,714.836z"/>
<path fill="#B3B3B3" d="M1171.246,822.636c0,0,0.822-18.896,6.846-31.22c6.025-12.323,21.635-8.49,20.813-3.012
	C1198.084,793.881,1183.843,815.242,1171.246,822.636z"/>
<path d="M1151.529,799.359c0,0-9.037,16.979-18.348,47.925c-9.311,30.946-21.087,81.883-23.004,92.015s-7.668,5.751-9.585,4.656
	c-1.917-1.095-5.477-4.108-1.917-13.145c3.56-9.037,24.921-69.559,30.672-85.169C1135.097,830.03,1148.516,796.346,1151.529,799.359
	z"/>
<path d="M1159.744,805.931c0,0,0,29.576-6.025,48.746s-19.718,52.033-33.958,67.642c0.548-17.527,6.025-40.804,13.693-58.057
	S1159.744,805.931,1159.744,805.931z"/>
<path d="M1133.728,919.307c0,0,12.597-23.278,18.622-39.983c6.025-16.705,20.539-46.008,24.647-52.032
	c4.108-6.025,10.406-3.834,14.24-4.929c3.834-1.095,13.693-7.12,14.24-5.751s1.369,3.286-11.776,24.921
	c-13.145,21.635-26.564,39.435-33.958,50.115C1152.35,902.328,1136.74,923.141,1133.728,919.307z"/>
<path d="M1021.989,989.537c-5.012-0.334-10.701-3.931-7.207-5.897s29.264-17.034,35.598-21.184
	c6.333-4.149,13.977-9.828,16.598-9.391c2.621,0.437,4.586,4.805,0.437,8.954S1038.369,990.629,1021.989,989.537z"/>
<path d="M1055.323,992.109c-2.402-3.057,1.529-10.701,7.862-20.092c6.333-9.391,15.724-22.276,17.69-23.149
	c1.966-0.874,13.977,0.218,16.598,1.092c2.621,0.874,3.931,1.31,3.713,7.644s0.218,17.471-1.747,26.207
	c-1.966,8.736-7.207,24.46-11.793,29.701c-4.586,5.241-11.138,1.092-14.851-2.402c-1.672-1.573-3.937-6.181-6.77-9.172
	C1062.566,998.285,1058.41,996.038,1055.323,992.109z"/>
<path d="M1072.061,1049.796c-1.306-0.688-0.549-7.142,2.564-14.65s8.973-17.58,10.255-15.565c1.282,2.014-0.916,12.635-2.747,17.213
	S1075.54,1051.627,1072.061,1049.796z"/>
<path d="M1052.65,1060.966c-2.543-1.271-2.014-6.592-0.549-9.522s11.72-28.933,13.551-32.779c1.831-3.846,3.479-4.761,4.944-2.93
	c1.465,1.831,2.747,5.494,0.183,12.635c-2.564,7.142-9.156,23.623-11.536,28.017
	C1056.862,1060.783,1054.481,1061.882,1052.65,1060.966z"/>
<path d="M1040.015,1062.248c-2.791-1.279-2.197-9.339,0.183-15.382c2.381-6.043,14.283-34.976,16.298-38.455
	c2.014-3.479,3.662-2.564,4.761-1.465s4.212,3.296,2.198,9.339c-2.014,6.043-12.269,31.68-15.016,37.357
	C1045.691,1059.318,1044.41,1064.262,1040.015,1062.248z"/>
<path d="M1031.957,1046.866c-1.883-0.588-2.564-7.142,0-14.466c2.564-7.325,13.551-30.764,15.016-34.244
	c1.465-3.479,6.958-2.014,7.142,0.732c0.183,2.747-0.732,6.409-2.014,10.072c-1.282,3.662-10.072,25.087-11.903,29.299
	C1038.367,1042.471,1034.887,1047.781,1031.957,1046.866z"/>
<path fill="#A57C4E" d="M1231.636,673.52c0,0,18.56,3.497,31.202,4.035s23.133,0.807,29.857,8.07
	c6.725,7.263,17.753,16.946,28.244,25.285c10.49,8.339,20.174,15.063,22.057,19.636c1.883,4.573,2.421,32.278-6.456,56.218
	c-8.876,23.94-26.63,47.745-43.038,57.832c-0.807-19.233-13.987-47.476-32.816-76.527
	C1241.858,739.018,1229.754,704.319,1231.636,673.52z"/>
<path d="M1273.867,812.99c0.105-1.899,4.573,4.842,7.801,12.104c3.228,7.263,10.222,32.278,9.146,33.892
	c-1.076,1.614-13.718,9.683-16.139,10.49C1272.253,870.284,1273.598,817.831,1273.867,812.99z"/>
<path fill="#92533E" d="M1340.576,801.961c0,0,2.421,22.057,1.883,44.652c-0.538,22.595-1.883,57.025-2.959,62.674
	c-10.221-11.566-32.278-37.927-35.775-43.576c-3.497-5.649-5.38-8.608-2.152-11.835c3.228-3.228,9.516-11.253,17.215-21.519
	C1329.278,818.369,1340.307,800.078,1340.576,801.961z"/>
<path d="M1258.793,939.273c0,0,0.573-23.789,8.312-40.126c7.739-16.337,16.91-19.777,29.235-16.624s25.222,14.044,25.509,17.77
	C1306.372,902.873,1273.124,910.612,1258.793,939.273z"/>
<path fill="#428AAD" d="M1346.785,920.357c0,3.439,0,44.999,0,50.158s-8.312,18.63-19.777,26.655
	c-11.465,8.025-36.114,17.77-46.432,22.356s-17.197,13.471-17.484,22.07c-6.306-6.019-8.885-33.534-10.318-45.572
	c-1.433-12.038-3.153-33.534,1.433-40.986c4.586-7.452,12.031-20.443,38.12-30.381
	C1310.385,917.777,1346.785,911.472,1346.785,920.357z"/>
<path d="M1246.971,1097.388c0,0-0.989-28.021-1.319-48.46s0-44.175,2.637-37.911s5.934,26.373,7.912,31.977
	c1.978,5.604,5.275,9.56,2.308,17.142C1255.542,1067.719,1246.971,1097.388,1246.971,1097.388z"/>
<path fill="#825F8A" d="M1264.443,1246.726c0,0-0.659-33.955-0.989-38.9c-0.33-4.945-9.56-47.801-9.23-86.701
	c0.33-38.9,7.253-60.988,9.56-64.944s14.505-15.494,19.45-18.461c4.945-2.967,8.242-3.956,4.945,1.978s-12.527,33.296-15.164,63.295
	c-2.637,29.999-1.978,58.68-0.33,68.9c1.648,10.22,6.593,17.802,4.615,23.076C1275.322,1200.243,1268.07,1219.693,1264.443,1246.726
	z"/>
<path fill="#825F8A" d="M1307.629,1236.836c0,0-23.736-40.219-26.703-69.559c-2.967-29.34-3.956-56.043,3.956-85.712
	c7.912-29.67,14.505-55.713,14.505-55.713s6.593,19.45,8.241,47.471s3.626,75.163,2.967,92.306S1303.673,1214.419,1307.629,1236.836
	z"/>
<path fill="#825F8A" d="M1317.519,1112.553c0,0,4.945,40.878,5.934,66.262s1.648,39.559-1.319,52.087
	c-2.967,12.527-7.912,24.395-7.912,17.802C1314.222,1242.11,1316.2,1112.553,1317.519,1112.553z"/>
<path fill="#825F8A" d="M1326.42,1162.991c0,0-4.615-55.713-9.56-82.745s-11.208-54.394-6.593-59.339
	c4.615-4.945,18.131-14.505,24.065-17.802s6.264,1.319,6.593,6.264s3.626,35.933,2.967,51.757
	c-0.659,15.824-7.912,42.856-10.879,55.713C1330.046,1129.695,1326.42,1157.387,1326.42,1162.991z"/>
<path fill="#B81E2C" d="M1284.592,1398.845c-2.843-0.569-17.287-30.412-21.129-40.336c-3.841-9.924-3.201-30.732,0-49.62
	s9.924-73.95,12.165-85.794c2.241-11.845,3.201-13.766,7.363-10.244c4.162,3.521,5.442,6.403,4.482,14.726
	c-0.96,8.323-2.561,53.141-0.32,80.672c2.241,27.531,6.723,64.666,7.683,70.108c0.96,5.442,0,7.043-0.96,10.564
	C1292.915,1392.443,1286.192,1399.165,1284.592,1398.845z"/>
<path fill="#B81E2C" d="M1327.489,1405.888c-4.134,0.477-24.97-15.366-24.97-29.452c0-14.086-5.442-69.788-7.363-90.596
	s-3.201-66.907-1.601-65.946c1.601,0.96,9.604,14.726,15.366,31.693s21.596,55.755,23.049,75.55
	C1334.532,1362.031,1335.812,1404.928,1327.489,1405.888z"/>
<path d="M1310.522,1573.635c0,1.921-5.122,0.64-5.122-3.842s-2.241-59.224-9.284-82.273c-7.043-23.049-17.607-48.019-18.568-58.263
	c-0.96-10.244-0.96-23.689,5.442-23.689c6.403,0,8.644,20.488,11.205,30.732c2.561,10.244,11.525,58.583,13.125,77.151
	C1308.922,1532.019,1310.522,1559.55,1310.522,1573.635z"/>
<path d="M1319.486,1572.675c-0.596,2.184-2.241-2.241-1.921-14.086c0.32-11.845,6.723-84.514,6.403-97.959
	c-0.32-13.445,0.64-32.333,2.561-40.016s3.521-16.647,4.802-12.805c1.281,3.842,3.201,23.69,0.64,37.455
	c-2.561,13.766-7.363,54.742-8.964,72.989C1321.406,1536.5,1320.446,1569.154,1319.486,1572.675z"/>
<path d="M1319.137,1588.952c0,0,5.427,19.335,6.106,28.833c0.678,9.498,3.053,18.996-4.749,21.031s-27.816,0.339-33.921-0.678
	c-6.106-1.018-5.088-5.088-2.714-14.247c2.375-9.159,12.89-36.296,14.586-39.01c-2.714,18.318-2.035,45.455,6.445,45.455
	C1315.066,1630.336,1319.137,1588.952,1319.137,1588.952z"/>
<path d="M1373.898,477.655c0,0-0.215,15.729,1.293,26.933c1.508,11.204,8.834,22.624,10.989,25.425
	c0.215-15.944,1.077-30.811-1.293-36.198C1382.516,488.428,1377.345,479.81,1373.898,477.655z"/>
<path d="M1361.616,474.208c0,0-4.525,0.646-7.326,1.724c3.016,21.762,7.326,107.516,7.541,111.179
	c8.834-4.525,42.446-16.375,70.026-18.745c-12.497-6.895-31.673-21.546-45.894-35.12S1365.064,514.715,1361.616,474.208z"/>
<path fill="#CD9024" d="M1473.226,579.569c0,0-23.055-5.171-45.247-1.724c-22.193,3.447-60.545,13.79-64.854,22.839
	c-4.309,9.049-3.016,24.563-3.016,32.535c0,7.972,0,47.833,0,59.468s0,24.347,3.878,23.055c3.878-1.293,30.38-18.53,40.722-40.938
	c10.342-22.408,22.624-58.175,33.181-73.688C1448.448,585.602,1455.989,581.724,1473.226,579.569z"/>
<path d="M1448.448,597.884c0,0,19.392,26.071,31.027,38.568c11.635,12.497,27.148,29.303,30.596,31.027
	c3.448,1.724,9.48-17.883,6.033-41.584c-3.447-23.701-19.891-37.06-38.999-37.06C1461.807,588.834,1449.31,594.652,1448.448,597.884
	z"/>
<path fill="#C55F82" d="M1476.458,661.014c6.757-2.679,2.801-8.834,0.646-12.281c-2.155-3.447-15.412-24.613-26.071-34.905
	c-6.248-6.033-9.48-5.171-14.005,1.508c-4.738,6.994-14.92,36.404-17.452,46.325c-2.586,10.127,2.16,8.666,8.403,7.972
	C1435.736,668.771,1463.961,665.97,1476.458,661.014z"/>
<path fill="#38764C" d="M1483.424,654.315c0,0,1.636,11.216-2.337,30.611c-3.972,19.395-5.141,40.425-3.739,52.576
	c1.402,12.151,11.45,38.089,25.938,48.604c-3.972-16.123,0.701-35.752,2.337-51.642c1.636-15.89,3.271-34.584-1.402-49.772
	C1499.547,669.503,1486.695,655.95,1483.424,654.315z"/>
<path d="M1532.028,776.058c0,0,1.636-26.171-2.337-51.408s-17.058-48.37-17.993-46.034s5.608,15.189,10.515,40.425
	C1527.121,744.279,1531.093,776.759,1532.028,776.058z"/>
<path d="M1513.568,714.836c0,0-2.804,28.508-2.804,39.257c0,10.749,1.636,21.498,5.608,21.498s4.206-12.385,3.505-22.199
	C1519.176,743.578,1515.905,724.183,1513.568,714.836z"/>
<path fill="#B3B3B3" d="M1535.861,822.636c0,0-0.822-18.896-6.846-31.22c-6.025-12.323-21.635-8.49-20.813-3.012
	C1509.023,793.881,1523.263,815.242,1535.861,822.636z"/>
<path d="M1555.578,799.359c0,0,9.037,16.979,18.348,47.925c9.311,30.946,21.087,81.883,23.004,92.015s7.668,5.751,9.585,4.656
	c1.917-1.095,5.477-4.108,1.917-13.145c-3.56-9.037-24.921-69.559-30.672-85.169C1572.01,830.03,1558.591,796.346,1555.578,799.359z
	"/>
<path d="M1547.363,805.931c0,0,0,29.576,6.025,48.746s19.718,52.033,33.958,67.642c-0.548-17.527-6.025-40.804-13.693-58.057
	S1547.363,805.931,1547.363,805.931z"/>
<path d="M1573.379,919.307c0,0-12.597-23.278-18.622-39.983c-6.025-16.705-20.539-46.008-24.647-52.032
	c-4.108-6.025-10.406-3.834-14.24-4.929c-3.834-1.095-13.693-7.12-14.24-5.751s-1.369,3.286,11.776,24.921
	c13.145,21.635,26.564,39.435,33.958,50.115C1554.757,902.328,1570.366,923.141,1573.379,919.307z"/>
<path d="M1685.117,989.537c5.012-0.334,10.701-3.931,7.207-5.897s-29.264-17.034-35.598-21.184
	c-6.333-4.149-13.977-9.828-16.598-9.391c-2.621,0.437-4.586,4.805-0.437,8.954S1668.738,990.629,1685.117,989.537z"/>
<path d="M1651.783,992.109c2.402-3.057-1.529-10.701-7.862-20.092c-6.333-9.391-15.724-22.276-17.69-23.149
	c-1.966-0.874-13.977,0.218-16.598,1.092c-2.621,0.874-3.931,1.31-3.713,7.644s-0.218,17.471,1.747,26.207
	c1.966,8.736,7.207,24.46,11.793,29.701c4.586,5.241,11.138,1.092,14.851-2.402c1.672-1.573,3.937-6.181,6.77-9.172
	C1644.541,998.285,1648.697,996.038,1651.783,992.109z"/>
<path d="M1635.046,1049.796c1.306-0.688,0.549-7.142-2.564-14.65s-8.973-17.58-10.255-15.565
	c-1.282,2.014,0.916,12.635,2.747,17.213S1631.567,1051.627,1635.046,1049.796z"/>
<path d="M1654.457,1060.966c2.543-1.271,2.014-6.592,0.549-9.522s-11.72-28.933-13.551-32.779c-1.831-3.846-3.479-4.761-4.944-2.93
	c-1.465,1.831-2.747,5.494-0.183,12.635c2.564,7.142,9.156,23.623,11.536,28.017
	C1650.245,1060.783,1652.626,1061.882,1654.457,1060.966z"/>
<path d="M1667.092,1062.248c2.791-1.279,2.197-9.339-0.183-15.382c-2.381-6.043-14.283-34.976-16.298-38.455
	c-2.014-3.479-3.662-2.564-4.761-1.465s-4.212,3.296-2.198,9.339c2.014,6.043,12.269,31.68,15.016,37.357
	S1662.697,1064.262,1667.092,1062.248z"/>
<path d="M1675.149,1046.866c1.883-0.588,2.564-7.142,0-14.466s-13.551-30.764-15.016-34.244c-1.465-3.479-6.958-2.014-7.142,0.732
	c-0.183,2.747,0.732,6.409,2.014,10.072c1.282,3.662,10.072,25.087,11.903,29.299
	C1668.74,1042.471,1672.219,1047.781,1675.149,1046.866z"/>
<path fill="#A57C4E" d="M1475.47,673.52c0,0-18.56,3.497-31.202,4.035s-23.133,0.807-29.857,8.07
	c-6.725,7.263-17.753,16.946-28.244,25.285c-10.49,8.339-20.174,15.063-22.057,19.636c-1.883,4.573-2.421,32.278,6.456,56.218
	c8.876,23.94,26.63,47.745,43.038,57.832c0.807-19.233,13.987-47.476,32.816-76.527
	C1465.249,739.018,1477.353,704.319,1475.47,673.52z"/>
<path d="M1433.24,812.99c-0.105-1.899-4.573,4.842-7.801,12.104c-3.228,7.263-10.222,32.278-9.146,33.892
	c1.076,1.614,13.718,9.683,16.139,10.49C1434.853,870.284,1433.509,817.831,1433.24,812.99z"/>
<path fill="#92533E" d="M1366.531,801.961c0,0-2.421,22.057-1.883,44.652c0.538,22.595,1.883,57.025,2.959,62.674
	c10.221-11.566,32.278-37.927,35.775-43.576c3.497-5.649,5.38-8.608,2.152-11.835c-3.228-3.228-9.516-11.253-17.215-21.519
	C1377.828,818.369,1366.8,800.078,1366.531,801.961z"/>
<path d="M1448.313,939.273c0,0-0.573-23.789-8.312-40.126c-7.739-16.337-16.91-19.777-29.235-16.624s-25.222,14.044-25.509,17.77
	C1400.735,902.873,1433.983,910.612,1448.313,939.273z"/>
<path fill="#428AAD" d="M1360.322,920.357c0,3.439,0,44.999,0,50.158s8.312,18.63,19.777,26.655
	c11.465,8.025,36.114,17.77,46.432,22.356s17.197,13.471,17.484,22.07c6.306-6.019,8.885-33.534,10.318-45.572
	c1.433-12.038,3.153-33.534-1.433-40.986c-4.586-7.452-12.031-20.443-38.12-30.381
	C1396.722,917.777,1360.322,911.472,1360.322,920.357z"/>
<path d="M1460.136,1097.388c0,0,0.989-28.021,1.319-48.46s0-44.175-2.637-37.911s-5.934,26.373-7.912,31.977
	c-1.978,5.604-5.275,9.56-2.308,17.142C1451.564,1067.719,1460.136,1097.388,1460.136,1097.388z"/>
<path fill="#825F8A" d="M1442.663,1246.726c0,0,0.659-33.955,0.989-38.9c0.33-4.945,9.56-47.801,9.23-86.701
	c-0.33-38.9-7.253-60.988-9.56-64.944s-14.505-15.494-19.45-18.461c-4.945-2.967-8.242-3.956-4.945,1.978
	s12.527,33.296,15.164,63.295c2.637,29.999,1.978,58.68,0.33,68.9c-1.648,10.22-6.593,17.802-4.615,23.076
	C1431.785,1200.243,1439.037,1219.693,1442.663,1246.726z"/>
<path fill="#825F8A" d="M1399.478,1236.836c0,0,23.736-40.219,26.703-69.559c2.967-29.34,3.956-56.043-3.956-85.712
	c-7.912-29.67-14.505-55.713-14.505-55.713s-6.593,19.45-8.242,47.471s-3.626,75.163-2.967,92.306
	S1403.434,1214.419,1399.478,1236.836z"/>
<path fill="#825F8A" d="M1389.588,1112.553c0,0-4.945,40.878-5.934,66.262s-1.648,39.559,1.319,52.087
	c2.967,12.527,7.912,24.395,7.912,17.802C1392.884,1242.11,1390.906,1112.553,1389.588,1112.553z"/>
<path fill="#825F8A" d="M1380.687,1162.991c0,0,4.615-55.713,9.56-82.745s11.208-54.394,6.593-59.339
	c-4.615-4.945-18.131-14.505-24.065-17.802s-6.264,1.319-6.593,6.264s-3.626,35.933-2.967,51.757
	c0.659,15.824,7.912,42.856,10.879,55.713C1377.061,1129.695,1380.687,1157.387,1380.687,1162.991z"/>
<path fill="#B81E2C" d="M1422.515,1398.845c2.843-0.569,17.287-30.412,21.129-40.336c3.841-9.924,3.201-30.732,0-49.62
	c-3.201-18.888-9.924-73.95-12.165-85.794c-2.241-11.845-3.201-13.766-7.363-10.244c-4.162,3.521-5.442,6.403-4.482,14.726
	c0.96,8.323,2.561,53.141,0.32,80.672c-2.241,27.531-6.723,64.666-7.683,70.108c-0.96,5.442,0,7.043,0.96,10.564
	C1414.192,1392.443,1420.914,1399.165,1422.515,1398.845z"/>
<path fill="#B81E2C" d="M1379.618,1405.888c4.134,0.477,24.97-15.366,24.97-29.452c0-14.086,5.442-69.788,7.363-90.596
	s3.201-66.907,1.601-65.946c-1.601,0.96-9.604,14.726-15.366,31.693s-21.596,55.755-23.049,75.55
	C1372.575,1362.031,1371.295,1404.928,1379.618,1405.888z"/>
<path d="M1396.585,1573.635c0,1.921,5.122,0.64,5.122-3.842s2.241-59.224,9.284-82.273c7.043-23.049,17.607-48.019,18.568-58.263
	c0.96-10.244,0.96-23.689-5.442-23.689c-6.403,0-8.644,20.488-11.205,30.732s-11.525,58.583-13.125,77.151
	C1398.185,1532.019,1396.585,1559.55,1396.585,1573.635z"/>
<path d="M1387.621,1572.675c0.596,2.184,2.241-2.241,1.921-14.086c-0.32-11.845-6.723-84.514-6.403-97.959
	c0.32-13.445-0.64-32.333-2.561-40.016s-3.521-16.647-4.802-12.805c-1.281,3.842-3.201,23.69-0.64,37.455
	c2.561,13.766,7.363,54.742,8.964,72.989C1385.7,1536.5,1386.661,1569.154,1387.621,1572.675z"/>
<path d="M1387.97,1588.952c0,0-5.427,19.335-6.106,28.833c-0.678,9.498-3.053,18.996,4.749,21.031s27.816,0.339,33.921-0.678
	c6.106-1.018,5.088-5.088,2.714-14.247c-2.375-9.159-12.89-36.296-14.586-39.01c2.714,18.318,2.035,45.455-6.445,45.455
	C1392.04,1630.336,1387.97,1588.952,1387.97,1588.952z"/>
<g>
</g>
<g>
</g>
<g>
</g>
<g>
</g>
<g>
</g>
<g>
</g>
<g>
</g>
<g>
</g>
<g>
</g>
<g>
</g>
<g>
</g>
<g>
</g>
<g>
</g>
<g>
</g>
<g>
</g>
</svg>
