<svg xmlns="http://www.w3.org/2000/svg" viewBox="0 0 272 272">
  <polygon fill="#847E87" points="96 240 104 240 104 232 96 232 96 240"/>
  <polygon fill="#847E87" points="88 240 96 240 96 232 88 232 88 240"/>
  <polygon fill="#847E87" points="104 232 112 232 112 224 104 224 104 232"/>
  <polygon fill="#847E87" points="96 232 104 232 104 224 96 224 96 232"/>
  <g fill="#698EE2">
    <polygon points="184 224 192 224 192 216 184 216 184 224"/>
    <polygon points="192 216 200 216 200 208 192 208 192 216"/>
    <polygon points="168 216 176 216 176 208 168 208 168 216"/>
    <polygon points="200 208 208 208 208 200 200 200 200 208"/>
    <polygon points="184 200 176 200 176 208 184 208 184 200"/>
    <polygon points="160 200 160 208 168 208 168 200 160 200"/>
    <polygon points="208 200 216 200 216 192 208 192 208 200"/>
    <polygon points="192 192 184 192 184 200 192 200 192 192"/>
    <polygon points="216 192 224 192 224 184 216 184 216 192"/>
    <polygon points="200 184 192 184 192 192 200 192 200 184"/>
    <polygon points="168 192 176 192 176 184 168 184 168 192"/>
    <polygon points="224 184 232 184 232 176 224 176 224 184"/>
    <polygon points="208 176 200 176 200 184 208 184 208 176"/>
    <polygon points="176 184 184 184 184 176 176 176 176 184"/>
    <polygon points="232 176 240 176 240 168 232 168 232 176"/>
    <polygon points="216 168 208 168 208 176 216 176 216 168"/>
    <polygon points="184 176 192 176 192 168 184 168 184 176"/>
    <polygon points="240 160 240 168 248 168 248 160 240 160"/>
    <polygon points="224 160 216 160 216 168 224 168 224 160"/>
    <polygon points="192 168 200 168 200 160 192 160 192 168"/>
    <rect width="8" height="64" x="72" y="160"/>
    <polygon points="232 152 224 152 224 160 232 160 232 152"/>
    <polygon points="200 160 208 160 208 152 200 152 200 160"/>
    <polygon points="96 160 104 160 104 152 96 152 96 160"/>
    <polygon points="80 160 88 160 88 152 80 152 80 160"/>
    <polygon points="56 160 64 160 64 152 56 152 56 160"/>
    <polygon points="216 144 208 144 208 152 224 152 224 144 216 144"/>
  </g>
  <g fill="#CDE0EE">
    <polygon points="184 216 192 216 192 208 184 208 184 216"/>
    <polygon points="192 208 200 208 200 200 192 200 192 208"/>
    <polygon points="168 208 176 208 176 200 168 200 168 208"/>
    <polygon points="200 200 208 200 208 192 200 192 200 200"/>
    <polygon points="176 200 184 200 184 192 176 192 176 200"/>
    <polygon points="208 192 216 192 216 184 208 184 208 192"/>
    <polygon points="184 192 192 192 192 184 184 184 184 192"/>
    <polygon points="168 184 160 184 160 200 168 200 168 184"/>
    <polygon points="240 176 240 184 248 184 248 176 240 176"/>
    <polygon points="216 184 224 184 224 176 216 176 216 184"/>
    <polygon points="192 184 200 184 200 176 192 176 192 184"/>
    <polygon points="176 176 168 176 168 184 176 184 176 176"/>
    <polygon points="224 176 232 176 232 168 224 168 224 176"/>
    <polygon points="200 176 208 176 208 168 200 168 200 176"/>
    <polygon points="184 168 176 168 176 176 184 176 184 168"/>
    <polygon points="240 160 240 152 232 152 232 168 240 168 240 160"/>
    <polygon points="208 168 216 168 216 160 208 160 208 168"/>
    <polygon points="192 160 184 160 184 168 192 168 192 160"/>
    <polygon points="216 160 224 160 224 152 216 152 216 160"/>
    <polygon points="200 152 192 152 192 160 200 160 200 152"/>
    <rect width="8" height="64" x="48" y="152"/>
    <polygon points="224 144 224 152 232 152 232 144 224 144"/>
    <polygon points="208 144 200 144 200 152 208 152 208 144"/>
    <polygon points="80 144 56 144 56 152 64 152 64 224 72 224 72 152 88 152 88 224 96 224 96 144 80 144"/>
    <polygon points="224 144 224 136 208 136 208 144 224 144"/>
  </g>
  <polygon fill="#8F563B" points="104 144 112 144 112 136 104 136 104 144"/>
  <polygon fill="#AD7358" points="200 136 208 136 208 128 200 128 200 136"/>
  <g fill="#C1C1C1">
    <polygon points="256 240 256 224 248 224 248 208 240 208 240 192 224 192 224 200 232 200 232 216 240 216 240 232 248 232 248 248 256 248 256 264 264 264 264 240 256 240"/>
    <polygon points="232 240 232 232 224 232 224 216 216 216 216 208 208 208 208 232 216 232 216 248 224 248 224 264 240 264 240 248 232 248 232 240"/>
    <polygon points="80 232 72 232 72 248 64 248 64 264 80 264 80 248 88 248 88 224 80 224 80 232"/>
    <polygon points="64 224 48 224 48 240 40 240 40 264 48 264 48 248 56 248 56 232 64 232 64 224"/>
    <polygon points="184 144 184 136 168 136 168 152 176 152 176 168 184 168 184 160 192 160 192 152 184 152 184 144"/>
    <polygon points="104 144 104 136 96 136 96 152 104 152 104 144"/>
    <polygon points="208 136 200 136 200 128 192 128 192 144 208 144 208 136"/>
    <polygon points="120 136 120 152 112 152 112 168 104 168 104 200 112 200 112 184 120 184 120 168 128 168 128 152 136 152 136 136 120 136"/>
    <polygon points="112 128 104 128 104 136 112 136 112 128"/>
  </g>
  <g fill="#FFFEFD">
    <polygon points="264 248 264 256 272 256 272 248 264 248"/>
    <rect width="8" height="16" x="240" y="248"/>
    <rect width="8" height="16" x="56" y="248"/>
    <polygon points="32 256 40 256 40 248 32 248 32 256"/>
    <polygon points="264 232 256 232 256 240 264 240 264 232"/>
    <polygon points="240 232 232 232 232 248 240 248 240 232"/>
    <rect width="8" height="16" x="64" y="232"/>
    <polygon points="40 240 48 240 48 232 40 232 40 240"/>
    <polygon points="72 232 80 232 80 224 72 224 72 232"/>
    <polygon points="256 216 248 216 248 224 256 224 256 216"/>
    <polygon points="232 216 224 216 224 232 232 232 232 216"/>
    <polygon points="56 216 48 216 48 224 56 224 56 216"/>
    <polygon points="240 208 248 208 248 200 240 200 240 208"/>
    <polygon points="224 200 216 200 216 216 224 216 224 200"/>
    <polygon points="240 184 232 184 232 192 240 192 240 184"/>
    <polygon points="104 160 104 168 112 168 112 152 104 152 104 160"/>
    <polygon points="160 144 168 144 168 136 160 136 160 144"/>
    <polygon points="136 144 144 144 144 136 136 136 136 144"/>
    <polygon points="216 136 216 128 208 128 208 136 216 136"/>
    <polygon points="128 128 120 128 120 120 96 120 96 128 88 128 88 144 96 144 96 136 104 136 104 128 112 128 112 152 120 152 120 136 136 136 136 128 128 128"/>
    <polygon points="184 120 184 128 168 128 168 136 184 136 184 152 192 152 192 128 208 128 208 120"/>
  </g>
  <g fill="#7A432A">
    <rect width="32" height="24" x="176" y="248"/>
    <polygon points="128 240 120 240 120 232 104 232 104 256 112 256 112 264 120 264 120 272 136 272 136 248 128 248 128 240"/>
    <polygon points="112 144 104 144 104 152 112 152 112 144"/>
    <polygon points="40 144 32 144 32 160 40 160 40 168 48 168 48 152 40 152 40 144"/>
    <polygon points="24 136 24 128 16 128 16 120 8 120 8 112 0 112 0 128 8 128 8 136 16 136 16 144 32 144 32 136 24 136"/>
  </g>
  <g fill="#1F378C">
    <rect width="40" height="24" x="136" y="248"/>
    <polygon points="192 224 200 224 200 216 192 216 192 224"/>
    <polygon points="200 216 208 216 208 208 200 208 200 216"/>
    <polygon points="176 216 184 216 184 208 176 208 176 216"/>
    <polygon points="208 208 216 208 216 200 208 200 208 208"/>
    <polygon points="192 200 184 200 184 208 192 208 192 200"/>
    <polygon points="216 200 224 200 224 192 216 192 216 200"/>
    <polygon points="200 192 192 192 192 200 200 200 200 192"/>
    <polygon points="176 192 168 192 168 200 176 200 176 192"/>
    <polygon points="224 192 232 192 232 184 224 184 224 192"/>
    <polygon points="208 184 200 184 200 192 208 192 208 184"/>
    <polygon points="184 184 176 184 176 192 184 192 184 184"/>
    <polygon points="232 184 240 184 240 176 232 176 232 184"/>
    <polygon points="216 176 208 176 208 184 216 184 216 176"/>
    <polygon points="192 176 184 176 184 184 192 184 192 176"/>
    <polygon points="240 176 248 176 248 168 240 168 240 176"/>
    <polygon points="224 168 216 168 216 176 224 176 224 168"/>
    <polygon points="200 168 192 168 192 176 200 176 200 168"/>
    <polygon points="160 176 160 168 152 168 152 176 160 176"/>
    <polygon points="232 160 224 160 224 168 232 168 232 160"/>
    <polygon points="208 160 200 160 200 168 208 168 208 160"/>
    <polygon points="144 168 152 168 152 160 144 160 144 168"/>
    <rect width="8" height="56" x="96" y="160"/>
    <rect width="8" height="64" x="80" y="160"/>
    <rect width="8" height="64" x="56" y="160"/>
    <polygon points="216 152 208 152 208 160 216 160 216 152"/>
    <polygon points="72 152 72 160 80 160 80 152 72 152"/>
    <polygon points="264 128 264 120 256 120 256 112 248 112 248 104 240 104 240 96 232 96 232 88 224 88 224 80 216 80 216 72 208 72 208 80 200 80 200 88 192 88 192 96 184 96 184 104 168 104 168 112 136 112 136 104 120 104 120 96 112 96 112 80 88 80 88 88 72 88 72 96 64 96 64 104 56 104 56 112 48 112 48 120 40 120 40 136 32 136 32 144 40 144 40 152 56 152 56 144 72 144 72 136 64 136 64 128 56 128 56 120 72 120 72 128 88 128 88 120 96 120 96 112 104 112 104 120 120 120 120 128 136 128 136 136 144 136 144 152 152 152 152 160 160 160 160 136 168 136 168 128 184 128 184 120 216 120 216 128 224 128 224 120 232 120 232 128 240 128 240 136 232 136 232 152 240 152 240 160 256 160 256 152 264 152 264 136 272 136 272 128 264 128"/>
  </g>
  <g fill="#4A6DD1">
    <polygon points="224 144 232 144 232 136 224 136 224 144"/>
    <polygon points="72 144 80 144 80 136 72 136 72 144"/>
    <polygon points="232 128 232 136 240 136 240 128 232 128"/>
    <polygon points="64 128 64 136 72 136 72 128 64 128"/>
    <polygon points="32 136 40 136 40 128 32 128 32 136"/>
    <polygon points="56 120 56 128 64 128 64 120 56 120"/>
    <polygon points="40 120 48 120 48 112 40 112 40 120"/>
    <polygon points="48 112 56 112 56 104 48 104 48 112"/>
    <polygon points="56 104 64 104 64 96 56 96 56 104"/>
    <polygon points="64 96 72 96 72 88 64 88 64 96"/>
    <polygon points="72 80 72 88 88 88 88 80 72 80"/>
    <polygon points="88 72 88 80 104 80 104 72 88 72"/>
  </g>
  <g fill="#435F9E">
    <polygon points="120 200 128 200 128 192 120 192 120 200"/>
    <polygon points="160 176 152 176 152 168 136 168 136 184 128 184 128 192 160 192 160 184 168 184 168 168 160 168 160 176"/>
    <polygon points="248 168 256 168 256 160 248 160 248 168"/>
    <polygon points="160 160 152 160 152 168 160 168 160 160"/>
    <polygon points="256 160 264 160 264 152 256 152 256 160"/>
    <polygon points="144 152 144 160 152 160 152 152 144 152"/>
    <polygon points="264 136 264 152 272 152 272 136 264 136"/>
    <polygon points="72 128 72 136 80 136 80 144 88 144 88 128 72 128"/>
    <polygon points="224 128 216 128 216 136 232 136 232 120 224 120 224 128"/>
    <polygon points="208 120 208 128 216 128 216 120 208 120"/>
    <polygon points="88 128 96 128 96 120 88 120 88 128"/>
    <polygon points="64 120 64 128 72 128 72 120 64 120"/>
    <polygon points="264 120 264 112 256 112 256 120 264 120"/>
    <polygon points="96 120 104 120 104 112 96 112 96 120"/>
    <polygon points="256 112 256 104 248 104 248 112 256 112"/>
    <polygon points="152 104 136 104 136 112 168 112 168 104 152 104"/>
    <polygon points="248 104 248 96 240 96 240 104 248 104"/>
    <polygon points="168 96 168 104 184 104 184 96 168 96"/>
    <polygon points="128 96 127 96 127 88 120 88 120 80 112 80 112 96 120 96 120 104 136 104 136 96 128 96"/>
    <polygon points="232 88 232 96 240 96 240 88 232 88"/>
    <polygon points="224 80 224 88 232 88 232 80 224 80"/>
    <polygon points="208 72 192 72 192 80 184 80 184 96 192 96 192 88 200 88 200 80 208 80 208 72"/>
    <polygon points="104 72 104 80 112 80 112 72 104 72"/>
  </g>
  <g fill="#EF3B42">
    <polygon points="264 256 264 264 272 264 272 256 264 256"/>
    <polygon points="256 248 248 248 248 264 224 264 224 248 216 248 216 232 208 232 208 216 200 216 200 240 208 240 208 256 216 256 216 272 264 272 264 264 256 264"/>
    <polygon points="32 256 32 264 40 264 40 256 32 256"/>
    <polygon points="88 240 88 248 80 248 80 264 56 264 56 248 48 248 48 264 40 264 40 272 88 272 88 256 96 256 96 248 104 248 104 240 88 240"/>
    <rect width="8" height="16" x="56" y="232"/>
    <polygon points="248 232 240 232 240 248 248 248 248 232"/>
    <polygon points="88 232 96 232 96 224 88 224 88 232"/>
    <polygon points="72 224 64 224 64 232 72 232 72 224"/>
    <polygon points="240 216 232 216 232 232 240 232 240 216"/>
    <polygon points="232 200 224 200 224 216 232 216 232 200"/>
    <polygon points="200 144 192 144 192 152 200 152 200 144"/>
    <polygon points="168 144 160 144 160 168 168 168 168 176 176 176 176 152 168 152 168 144"/>
    <polygon points="136 152 128 152 128 168 120 168 120 184 112 184 112 200 104 200 104 216 96 216 96 224 112 224 112 208 120 208 120 192 128 192 128 184 136 184 136 168 144 168 144 144 136 144 136 152"/>
    <polygon points="176.4 99.2 182.6 99.2 182.6 93 176.4 93 176.4 99.2"/>
    <polygon points="126.8 93 120.6 93 120.6 99.2 126.8 99.2 126.8 93"/>
    <polygon points="170.2 86.8 170.2 93 176.4 93 176.4 86.8 170.2 86.8"/>
    <polygon points="133 86.8 126.8 86.8 126.8 93 133 93 133 86.8"/>
    <polygon points="164 80.6 164 86.8 170.2 86.8 170.2 80.6 164 80.6"/>
    <polygon points="139.2 80.6 133 80.6 133 86.8 139.2 86.8 139.2 80.6"/>
  </g>
  <path fill="#FFF" d="M188.8 43.4V24.8h-6.2V12.4h-12.4V6.2H133v6.2h-6.2v6.2h-6.2V31h-6.2v12.4h-6.2v24.8h6.2v12.4h6.2V93h6.2v-6.2h6.2v-6.2h6.2v6.2H133V93h-6.2v12.4h6.2v6.2h6.2v6.2H164v-6.2h6.2v-6.2h6.2V93h-6.2v-6.2H164v-6.2h6.2v6.2h6.2V93h6.2v-6.2h6.2V68.2h6.2V43.4h-6.2zm-18.6-18.6H164v-6.2h6.2v6.2zm-31-6.2v6.2H133v-6.2h6.2z"/>
  <g fill="#717272">
    <polygon points="151.6 117.8 139.2 117.8 139.2 124 164 124 164 117.8 151.6 117.8"/>
    <polygon points="133 111.6 133 117.8 139.2 117.8 139.2 111.6 133 111.6"/>
    <polygon points="126.8 105.4 126.8 111.6 133 111.6 133 105.4 126.8 105.4"/>
    <polygon points="120.6 99.2 120.6 105.4 126.8 105.4 126.8 99.2 120.6 99.2"/>
    <polygon points="120.6 86.8 120.6 80.6 114.4 80.6 114.4 99.2 120.6 99.2 120.6 86.8"/>
    <polygon points="114.4 68.2 108.2 68.2 108.2 80.6 114.4 80.6 114.4 68.2"/>
    <rect width="6.2" height="24.8" x="102" y="43.4"/>
    <polygon points="157.8 53.47 157.8 59.67 164 59.67 164 65.88 176.4 65.88 176.4 59.67 182.6 59.67 182.6 53.47"/>
    <polygon points="114.4 37.2 114.4 31 120.6 31 120.6 18.6 126.8 18.6 126.8 12.4 133 12.4 133 6.2 120.6 6.2 120.6 12.4 114.4 12.4 114.4 24.8 108.2 24.8 108.2 43.4 114.4 43.4 114.4 37.2"/>
    <polygon points="170.2 18.6 164 18.6 164 24.8 170.2 24.8 170.2 18.6"/>
    <polygon points="139.2 18.6 133 18.6 133 24.8 139.2 24.8 139.2 18.6"/>
    <polygon points="170.2 6.2 170.2 12.4 176.4 12.4 176.4 18.6 182.6 18.6 182.6 31 188.8 31 188.8 43.4 195 43.4 195 24.8 188.8 24.8 188.8 12.4 182.6 12.4 182.6 6.2 170.97 6.2 170.97 0 133 0 133 6.2"/>
    <polygon points="164 117.8 170.2 117.8 170.2 111.6 164 111.6 164 117.8"/>
    <polygon points="170.2 111.6 176.4 111.6 176.4 105.4 170.2 105.4 170.2 111.6"/>
    <polygon points="176.4 105.4 182.6 105.4 182.6 99.2 176.4 99.2 176.4 105.4"/>
    <polygon points="182.6 86.8 182.6 99.2 188.8 99.2 188.8 80.6 182.6 80.6 182.6 86.8"/>
    <polygon points="188.8 74.4 188.8 80.6 195 80.6 195 68.2 188.8 68.2 188.8 74.4"/>
    <polygon points="195 43.4 195 68.2 201.2 68.2 201.2 43.4 195 43.4"/>
    <polygon points="120.6 53.47 120.6 59.67 126.8 59.67 126.8 65.88 139.2 65.88 139.2 59.67 145.4 59.67 145.4 53.47"/>
  </g>
  <g fill="#F42629">
    <polygon points="142.3 41.08 142.3 47.27 148.5 47.27 148.5 53.47 154.7 53.47 154.7 47.27 160.9 47.27 160.9 41.08"/>
    <rect width="12.4" height="6.2" x="160.9" y="34.88"/>
    <rect width="12.4" height="6.2" x="129.9" y="34.88"/>
  </g>
  <g fill="#1F2020">
    <polygon points="155.47 108.5 161.67 108.5 161.67 102.3 155.47 102.3 155.47 108.5"/>
    <polygon points="143.08 108.5 149.28 108.5 149.28 102.3 143.08 102.3 143.08 108.5"/>
    <polygon points="155.47 89.9 155.47 96.1 161.67 96.1 161.67 89.9 155.47 89.9"/>
    <polygon points="143.08 96.1 149.28 96.1 149.28 89.9 143.08 89.9 143.08 96.1"/>
  </g>
</svg>
