<svg xmlns="http://www.w3.org/2000/svg" width="80" height="80" viewBox="0 0 80 80">
  <g fill="#CE153E">
    <g>
      <path d="M19.6 24.48a3.08 3.08 0 0 0-2.49-1.32c-.73 0-1.08.28-1.09.69 0 1.37 5.57.73 5.57 4.43 0 1.71-1.23 3.08-3.11 3.54v1.76H16.1v-1.65c-1.97-.21-3.06-1.1-3.68-2.08l2.08-1.96a3.06 3.06 0 0 0 2.6 1.33c.89 0 1.35-.28 1.35-.82 0-1.44-5.57-.77-5.57-4.48 0-1.72 1.3-3.04 3.22-3.41V18.8h2.38v1.72c1.37.27 2.45 1 3.11 1.96l-1.99 2zM27.99 28.1c0-.82-.64-1.37-1.62-1.37-.82 0-1.42.25-1.9.53l-1.28-.94.89-5.82h6.08v2.51h-3.73l-.23 1.37c.23-.05.62-.07.82-.07 2.31 0 3.84 1.53 3.84 3.84 0 2.4-1.76 4.02-4.43 4.02-1.92 0-3.33-.85-4.04-2.03l2.08-1.85c.52.82 1.17 1.19 1.9 1.19.98 0 1.62-.55 1.62-1.38zM33.77 33.89h-2.4l1.07-5.1h2.93l-1.6 5.1zM36.81 26.21c0-3.45 1.96-5.97 4.62-5.97 2.79 0 4.8 2.53 4.76 5.96.03 3.45-1.92 5.97-4.62 5.97-2.75 0-4.76-2.52-4.76-5.96zm6.53 0c0-1.97-.71-3.29-1.88-3.29-1.07 0-1.78 1.3-1.78 3.27 0 1.99.73 3.29 1.85 3.29 1.11.01 1.81-1.29 1.81-3.27zM47.38 26.22c0-3.45 1.96-5.97 4.62-5.97 2.79 0 4.8 2.53 4.76 5.96.03 3.45-1.92 5.97-4.62 5.97-2.76-.01-4.77-2.53-4.76-5.96zm6.52 0c0-1.97-.71-3.29-1.88-3.29-1.07 0-1.78 1.3-1.78 3.27 0 1.99.73 3.29 1.85 3.29s1.81-1.3 1.81-3.27zM57.94 26.22c0-3.45 1.96-5.97 4.62-5.97 2.79 0 4.8 2.53 4.76 5.96.03 3.45-1.92 5.97-4.63 5.97-2.74 0-4.75-2.53-4.75-5.96zm6.53 0c0-1.97-.71-3.29-1.88-3.29-1.07 0-1.78 1.3-1.78 3.27 0 1.99.73 3.29 1.85 3.29s1.8-1.3 1.81-3.27z"/>
    </g>
    <g>
      <path d="M19.31 37.02v8.05h-1.3v-8.05h-2.94v-1.23h7.19v1.23h-2.95zM23.8 35.79h3.24c2.04 0 3.39 1.1 3.39 2.79 0 1.32-.83 2.29-2.16 2.65l2.32 3.84h-1.51l-2.17-3.68H25.1v3.68h-1.3v-9.28zm1.3 1.17v3.26h2.06c1.14 0 1.91-.65 1.91-1.64 0-.98-.77-1.62-1.91-1.62H25.1zM38.46 42.7h-4.43l-.96 2.37h-1.38l3.82-9.28h1.53l3.82 9.28H39.4l-.94-2.37zm-2.21-5.52-1.74 4.34H38l-1.75-4.34zM44.96 43.63l2.9-7.83h1.36l-3.53 9.28h-1.53l-3.53-9.28h1.46l2.87 7.83zM50.88 35.8h5.89v1.23h-4.59v2.78h4.01v1.23h-4.01v2.81h4.59v1.23h-5.89V35.8zM58.73 35.8h1.3v8.05h4.81v1.23h-6.11V35.8zM23.84 52.1l1.66-4.48h.78l-2.02 5.3h-.88l-2.02-5.3h.84l1.64 4.48zM32.01 50.29a2.74 2.74 0 0 1-2.72 2.74 2.73 2.73 0 0 1-2.71-2.75 2.73 2.73 0 0 1 2.71-2.75 2.75 2.75 0 0 1 2.72 2.76zm-.8 0c0-1.12-.86-2.03-1.93-2.03-1.06 0-1.92.9-1.92 2.02 0 1.11.86 2.01 1.92 2.01 1.07 0 1.93-.9 1.93-2zM33.15 47.63h.75v3.24c0 .86.53 1.43 1.32 1.43.8 0 1.32-.57 1.32-1.43v-3.23h.75v3.23c0 1.31-.84 2.17-2.09 2.17s-2.07-.86-2.07-2.17l.02-3.24zM42.54 48.77c-.36-.3-.8-.5-1.4-.5-1.06 0-1.91.9-1.91 2.02 0 1.11.85 2.01 1.98 2.01.52 0 1.01-.17 1.34-.49l.49.55a2.5 2.5 0 0 1-1.88.68 2.71 2.71 0 0 1-2.72-2.75 2.73 2.73 0 0 1 2.71-2.75c.84 0 1.43.24 1.89.66l-.5.57zM47.73 50.6h-2.95v2.33h-.74v-5.3h.74v2.27h2.95v-2.27h.75v5.3h-.75V50.6zM49.98 47.63h3.37v.7h-2.62v1.59h2.29v.7h-2.29v1.61h2.62v.7h-3.37v-5.3zM54.46 47.63h1.85c1.17 0 1.94.63 1.94 1.6 0 .75-.47 1.31-1.23 1.51l1.32 2.19h-.86l-1.24-2.1h-1.03v2.1h-.74l-.01-5.3zm.75.67v1.86h1.17c.65 0 1.09-.37 1.09-.93s-.44-.93-1.09-.93h-1.17z"/>
    </g>
    <g>
      <path d="M8.38 10.32h2.1c.93 0 1.65.6 1.65 1.42 0 .63-.46.99-.81 1.13.53.16.98.58.98 1.27 0 .79-.65 1.46-1.69 1.46H8.38v-5.28zm.74.66v1.61h1.28c.54 0 .94-.35.94-.8 0-.45-.41-.81-.94-.81H9.12zm0 2.24v1.72h1.4c.57 0 1-.37 1-.86s-.43-.86-.99-.86H9.12zM16.63 14.26H14.1l-.55 1.36h-.79l2.18-5.3h.88l2.18 5.3h-.84l-.53-1.36zm-1.26-3.16-.99 2.48h1.99l-1-2.48zM18.94 10.31h.74v4.6h2.75v.7h-3.49v-5.3zM23.36 10.31h.74v4.6h2.75v.7h-3.49v-5.3zM32.44 12.97a2.73 2.73 0 0 1-2.72 2.74 2.73 2.73 0 0 1-2.71-2.75 2.73 2.73 0 0 1 2.71-2.75c1.5 0 2.72 1.24 2.72 2.76zm-.79 0c0-1.12-.86-2.03-1.93-2.03-1.06 0-1.92.9-1.92 2.02 0 1.11.86 2.01 1.92 2.01 1.07.01 1.93-.9 1.93-2zM35.2 11.01v4.6h-.74v-4.6h-1.68v-.7h4.11v.7H35.2zM40.7 11.54a1.65 1.65 0 0 0-1.32-.63c-.64 0-1.03.28-1.03.71 0 1.17 2.96.64 2.96 2.52 0 .93-.76 1.56-1.94 1.56-.99 0-1.64-.39-2-.9l.54-.5c.36.46.87.7 1.47.7.73 0 1.14-.31 1.14-.81 0-1.29-2.96-.72-2.96-2.55 0-.85.75-1.44 1.85-1.44.83 0 1.5.36 1.82.82l-.53.52zM46.11 11.01v4.6h-.74v-4.6h-1.68v-.7h4.11v.7h-1.69zM53.57 12.97a2.73 2.73 0 0 1-2.72 2.74 2.73 2.73 0 0 1-2.71-2.75 2.73 2.73 0 0 1 2.71-2.75 2.75 2.75 0 0 1 2.72 2.76zm-.8 0c0-1.12-.86-2.03-1.93-2.03-1.06 0-1.92.9-1.92 2.02 0 1.11.86 2.01 1.92 2.01 1.07.01 1.93-.9 1.93-2zM63.9 10.31l-1.7 5.3h-.93l-1.25-4.37-1.26 4.37h-.89l-1.7-5.3H57l1.33 4.39 1.26-4.39h.93l1.27 4.4 1.33-4.4h.78zM64.9 10.31h.74v5.3h-.74v-5.3zM67.88 11.53v4.09h-.75v-5.3h.81l2.94 4.11v-4.11h.74v5.3h-.81l-2.93-4.09z"/>
    </g>
  </g>
</svg>
