<svg xmlns="http://www.w3.org/2000/svg" width="80" height="80" viewBox="0 0 80 80">
  <g fill="#CE153E">
    <g>
      <path d="M14.01 65.91c.17-.4.12-.8.12-1.26-.06-.52.23-1.15.29-1.72 0-.52.23-.98.35-1.55l.17-1.32c.29-.75.35-1.49.63-2.3-.06-.06 0-.06 0-.12.29-.75 2.36-7.13 2.53-7.3.29-.8.46-1.49.81-2.36.06-.35.4-.86.52-1.32.46-.8.63-1.61.98-2.36.11-.06.11-.06.11-.12.46-1.32.86-2.53 1.44-3.74.46-1.04.92-2.07 1.21-3.28l.12-.52c0-.23.11-.4.06-.69 0-.23.23-.34.58-.46.57-.06 1.15.23 1.61.46.11.11.29.34.11.57-.46 1.55-1.04 2.87-1.67 4.48l-1.32 3.16c-.06.12-.06.29-.17.4-.29.75-.46 1.38-.86 2.07-.52 1.09-.75 2.18-1.32 3.28-.17.52-.4 1.03-.58 1.61-.23.75-1.55 4.31-1.96 6.04-.17.52-.4 1.21-.46 1.72a7.33 7.33 0 0 1-.52 1.9c-.29 1.32-.58 2.3-.52 3.22 0 .69-.23 1.38-.17 2.13.06.23-.06.34-.12.57-.17.63 0 1.38.23 2.07.06.06.11.06.11.12 0 .11.11.23.17.17.81-.4 1.15 1.21-.52 1.15-.52 0-.92-.23-1.21-.52-.52-.4-.57-.92-.75-1.49.17-.75-.06-1.49-.06-2.18-.05-.22 0-.45.06-.51zM25.68 63.56c-1.15-.58-1.61-.86-1.95-2.18a3.3 3.3 0 0 1-.23-2.13l.52-1.84c.35-.69.81-1.49 1.04-2.18.06 0-.06-.11 0-.17.06-.11.4-.23.52-.17.29.17.52.23.75.4.06.06.06.11.17.17.46.46.52.75.11 1.38l-.98 2.24c-.23.69-.46 1.38-.35 2.07.11 1.32 1.67 1.32 2.76 1.15a17.36 17.36 0 0 0 6.9-3.05c.86-.8.11 0 1.26-.92.23-.23.8-.63 1.03-.86.63-.34 1.78-1.67 2.18-.98.12.29-.29.75-.06 1.15l-.12.34c-.11.34-.4.4-.75.46-.52.46-.98.8-1.44 1.32-1.49 1.15-1.61 1.21-2.76 1.95 0 .06-.57.17-.63.23-.52.57-1.15.69-2.3 1.21-1.15.29-2.76.98-4.25.75-.38 0-.84-.17-1.42-.34zm1.67-12.82c-.17-.06-.23-.17-.34-.29-.17-.29-.23-.69-.17-1.03.17-.63.23-1.21.69-1.84 0-.12.06-.23.11-.17.23-.12.4-.17.58-.17.34.11.63.29.98.63.34.23.23.46.17.86 0 .12-.11.23-.17.4-.23.29-.46.63-.69 1.09.11.06.11.12-.06.17a.84.84 0 0 1-.8.46c-.13-.05-.24-.11-.3-.11z"/>
      <path d="M48.1 52.35c-.06 0-.29-.06-.29.06-.46.12-1.67.11-2.07.17-1.09.17-2.76.46-4.14.8-.34.06-.58.4-.8.69l-.12.4a61.2 61.2 0 0 0-1.38 4.37c-.35 1.61-.75 3.16-1.15 4.77-.06.34-.06.69-.17 1.03-.17.63-.23 1.26-.46 1.9 0 .57-.17 1.21-.23 1.78v.46c.06.17.11.35-.06.58-.11.63-.06 1.32-.06 2.01l.06.4c.06.58.17 1.26.46 1.84.06 0 .06.06.06.06.06.12-.06.34-.17.34-.17.06-.4.06-.63.06-.35 0-.63-.12-.86-.4l-.52-1.04-.11-.34c.06-.34 0-.69-.11-.98.06-.63.06-1.21.06-1.78l.35-2.87a.76.76 0 0 1 .11-.69c0-.52.29-.98.17-1.55 0-.12.17-.23.11-.34l.69-2.7c0-.46.12-.92.29-1.38 0-.34 0-.69.06-1.03.06-.34.29-.58.4-.8.12-.63.35-1.38.52-2.07.06-.34.12-.69.4-1.09v-.06c.12-.11.17-.69.12-.69a21.92 21.92 0 0 0-3.1.69c-.69.29-.4-.23-1.09.17l-.69.23c-.17.06-.4.12-.52-.06-.23-.23.06-.4-.11-.75-.06-.29-.06-.63.17-.75.06 0 .06-.06.11-.06.8-.23.98-.11 1.84-.46.52-.06.29-.06.86-.23.52-.17 1.44-.46 2.18-.52.29-.29.52-.23.8-.23.17-.12.46-.29.46-.57l.12-.12c.06-.4.12-.8.46-1.21.12-.34.29-.75.35-1.21.12-.17.12-.29.17-.4.17-.23.35-.63.52-.98l.46-.98c.12-.52.4-1.04.58-1.49.4-.8.75-1.72 1.27-2.64.29-.58.63-1.21.92-1.9.46-.86.98-1.78 1.55-2.53l.35-.69c.46-.69.92-1.26 1.55-1.84l.63-.4c.29-.23.75-.4 1.32-.29h.06a3.74 3.74 0 0 1 2.99 2.42c.23.46.34.86.34 1.32.12.34 0 .63-.17.86a.8.8 0 0 1-.8.29c-.57-.34-1.03-.63-1.03-1.38a2.87 2.87 0 0 0-.57-1.26.55.55 0 0 0-.4-.34c-.4 0-.75.17-1.03.46-.4.29-.69.63-.92 1.03a22.24 22.24 0 0 0-2.76 4.54c-.52 1.09-1.15 2.13-1.61 3.28-.17.52-.4 1.21-.69 1.72-.29.63-.63 1.38-.86 2.07l-.35 1.09c-.06.12-.4.4-.29.46l3.28-.57c.63 0 2.01 0 2.59.06.4 0 .69.11.98.17.19.35.3 1.21-.45 1.09zM48.44 63.74c-.86-.86-1.78-1.84-1.61-3.05 0-.12.06-.8.17-.98l.12-.34c.4-.92.4-.92.92-1.78a12.96 12.96 0 0 1 4.83-4.25c.12 0 .29-.06.46-.17.57-.23 1.38.17 1.72.58l.23.58c.11.86-.12 1.67-.69 2.24a18.8 18.8 0 0 1-2.87 2.76c-.17.17-.46.29-.63.46-.23.21-.63.21-.98.27-.29.17-.57.11-.8-.17l-.23-.17s-.17 0-.17.06c-.34.52-.35 1.32-.35 1.84.06.23.17.4.4.63.29.4.75.52 1.15.52.23.06.4.06.63.06.63-.06 1.38 0 2.13-.29 2.82-.69 5-1.78 7.36-2.82 1.21-.57 2.19-1.21 3.28-1.72.69-.4.57-.34 1.32-.86.4-.34.23-.17.81-.4.11-.11.06 0 .11.23.06.29.29.8 0 1.03-.52.52-.17.34-.69.8-1.15.86-2.3 1.38-3.51 2.13-.8.4-1.55.8-2.24 1.09-1.55.63-3.1 1.32-4.77 1.72l-1.67.46c-.86.23-1.09.23-2.01.23-.81-.12-1.78-.18-2.42-.69zm5.18-8.63c-.06 0-.17.06-.23.06-1.44.63-2.53 1.38-3.11 2.7-.12.06-.12.23-.17.4a13.5 13.5 0 0 0 3.51-3.16z"/>
    </g>
    <g>
      <path d="M0 20.5h7.42v2.76H2.94v1.81h3.77v2.76H2.94v4.07H0V20.5zM9.02 20.5h4.14c2.9 0 4.82 1.49 4.82 3.77a3.5 3.5 0 0 1-2.12 3.27l2.4 4.36h-3.4l-1.96-3.81h-.96v3.81H9.01l.01-11.4zm2.93 2.58v2.44h1.44c.89 0 1.48-.5 1.48-1.24 0-.71-.59-1.19-1.48-1.19l-1.44-.01zM19.87 20.5h7.58v2.76h-4.64v1.49h3.93v2.76h-3.93v1.64h4.64v2.76h-7.58V20.5zM29.04 20.5h7.58v2.76h-4.64v1.49h3.93v2.76h-3.93v1.64h4.64v2.76h-7.58V20.5zM41.78 20.51h7.42v2.76h-4.48v1.81h3.77v2.76h-3.77v4.07h-2.93l-.01-11.4zM50.7 20.51h2.93v6.46c0 1.37.78 2.28 1.97 2.28 1.16 0 1.92-.89 1.92-2.26v-6.47h2.93v6.53c0 3.09-1.96 5.14-4.91 5.14-2.92 0-4.85-2.05-4.85-5.14l.01-6.54zM62.51 20.51h7.58v2.76h-4.64v1.49h3.93v2.76h-3.93v1.64h4.64v2.76h-7.58V20.51zM71.69 20.51h2.93v8.64h5.17v2.76h-8.11l.01-11.4z"/>
    </g>
    <g>
      <path d="M27.85 35.23h3.28v.7h-2.54v1.66h2.21v.7h-2.21v2.23h-.74v-5.29zM37.16 37.89a2.73 2.73 0 0 1-2.72 2.74 2.73 2.73 0 0 1-2.71-2.75 2.73 2.73 0 0 1 2.71-2.75 2.73 2.73 0 0 1 2.72 2.76zm-.79 0c0-1.12-.86-2.03-1.93-2.03-1.06 0-1.92.9-1.92 2.02 0 1.11.86 2.01 1.92 2.01s1.93-.9 1.93-2zM38.37 35.22h1.85c1.17 0 1.94.63 1.94 1.6 0 .75-.47 1.31-1.23 1.51l1.32 2.19h-.86l-1.24-2.1h-1.03v2.1h-.74l-.01-5.3zm.74.67v1.86h1.17c.65 0 1.09-.37 1.09-.93s-.44-.93-1.09-.93h-1.17z"/>
    </g>
  </g>
  <g fill="#CE153E">
    <path d="M8.33 10.31h2.1c.93 0 1.65.6 1.65 1.42 0 .63-.46.99-.81 1.14.53.16.99.58.99 1.28 0 .79-.65 1.47-1.69 1.47H8.33v-5.31zm.75.66v1.62h1.28c.54 0 .94-.35.94-.8 0-.46-.41-.81-.94-.81H9.08zm0 2.25v1.72h1.4c.57 0 1-.37 1-.86s-.43-.86-.99-.86H9.08zM16.6 14.25h-2.54l-.55 1.36h-.79l2.19-5.31h.88l2.19 5.31h-.84l-.54-1.36zm-1.27-3.15-.99 2.49h2l-1.01-2.49zM18.91 10.3h.75v4.61h2.75v.7h-3.5V10.3zM23.33 10.3h.75v4.61h2.75v.7h-3.5V10.3zM32.43 12.97a2.74 2.74 0 0 1-2.73 2.74 2.74 2.74 0 0 1-2.72-2.75 2.74 2.74 0 0 1 2.72-2.76c1.5 0 2.73 1.24 2.73 2.77zm-.8 0c0-1.12-.86-2.03-1.93-2.03-1.06 0-1.92.9-1.92 2.02 0 1.11.86 2.01 1.92 2.01 1.07 0 1.93-.9 1.93-2zM35.2 11.01v4.61h-.75v-4.61h-1.68v-.7h4.12v.7H35.2zM40.7 11.54a1.66 1.66 0 0 0-1.32-.63c-.64 0-1.04.28-1.04.71 0 1.17 2.97.64 2.97 2.53 0 .94-.76 1.57-1.95 1.57-.99 0-1.64-.39-2.01-.9l.54-.51c.36.46.87.7 1.47.7.73 0 1.14-.32 1.14-.81 0-1.29-2.97-.72-2.97-2.55 0-.85.75-1.44 1.86-1.44.83 0 1.5.36 1.82.82l-.51.51zM46.12 11.01v4.61h-.75v-4.61h-1.68v-.7h4.12v.7h-1.69zM53.59 12.97c0 1.52-1.23 2.74-2.73 2.74s-2.72-1.23-2.72-2.75 1.22-2.76 2.72-2.76 2.73 1.24 2.73 2.77zm-.8 0c0-1.12-.86-2.03-1.93-2.03-1.06 0-1.92.9-1.92 2.02 0 1.11.86 2.01 1.92 2.01 1.07 0 1.93-.9 1.93-2zM63.93 10.3l-1.71 5.31h-.92l-1.25-4.37-1.26 4.37h-.89l-1.71-5.31h.83l1.33 4.4 1.26-4.4h.94l1.27 4.41 1.33-4.41h.78zM64.94 10.3h.75v5.31h-.75V10.3zM67.92 11.52v4.09h-.75V10.3h.81l2.94 4.12V10.3h.75v5.31h-.81l-2.94-4.09z"/>
  </g>
</svg>
