<svg xmlns="http://www.w3.org/2000/svg" width="80" height="80" viewBox="0 0 80 80">
  <g fill="#CE153E">
    <g>
      <path d="M6.13 20.5h4.14c2.9 0 4.82 1.49 4.82 3.77a3.5 3.5 0 0 1-2.12 3.27l2.4 4.36h-3.4l-1.96-3.81h-.94v3.81H6.14l-.01-11.4zm2.94 2.58v2.44h1.44c.89 0 1.48-.5 1.48-1.24 0-.71-.59-1.19-1.48-1.19H9.07zM16.98 20.5h7.58v2.76h-4.64v1.49h3.93v2.76h-3.93v1.64h4.64v2.76h-7.58V20.5zM26.16 20.5h4.14c3.72 0 6.45 2.42 6.45 5.73 0 3.27-2.74 5.67-6.46 5.67h-4.14l.01-11.4zm3.02 2.76v5.89h1.08c2.01 0 3.34-1.17 3.34-2.95 0-1.76-1.33-2.93-3.36-2.93h-1.06zM48.39 24.31A3.07 3.07 0 0 0 45.9 23c-.73 0-1.08.28-1.09.69 0 1.48 5.57.8 5.57 4.79 0 2.12-1.87 3.7-4.55 3.7-2.58 0-3.91-1.01-4.62-2.14l2.08-1.96a3.06 3.06 0 0 0 2.6 1.33c.89 0 1.35-.28 1.35-.82 0-1.55-5.57-.82-5.57-4.84 0-2.04 1.83-3.52 4.36-3.52 1.97 0 3.5.85 4.36 2.08l-2 2zM63.13 26.22a5.98 5.98 0 1 1-11.96-.04 5.98 5.98 0 0 1 11.96.04zm-3.15 0c0-1.67-1.26-3.04-2.83-3.04s-2.83 1.35-2.83 3.02 1.26 3.04 2.83 3.04 2.83-1.35 2.83-3.02z"/>
      <path d="m68.41 23.41 1.94-2.9h3.31l-3.65 5.41 3.86 5.99h-3.68l-2.15-3.31-2.22 3.31h-3.31l3.9-5.8-3.64-5.6h3.79l1.85 2.9z"/>
    </g>
    <g>
      <path d="m33.28 43.63 2.9-7.83h1.36l-3.53 9.28h-1.53l-3.53-9.28h1.46l2.87 7.83zM39.21 35.8h1.3v9.28h-1.3V35.8zM43.14 35.8h3.24c2.14 0 3.56 1.16 3.56 2.94s-1.43 2.95-3.59 2.95h-1.91v3.39h-1.3V35.8zm1.31 1.17v3.55h2.06c1.24 0 2.07-.71 2.07-1.78s-.82-1.77-2.07-1.77h-2.06zM17.08 47.62h3.37v.7h-2.62v1.59h2.29v.7h-2.29v1.61h2.62v.7h-3.37v-5.3zM23.36 49.58l1.34-1.95h.84l-1.76 2.56 1.84 2.74h-.92l-1.42-2.09-1.44 2.09H21l1.86-2.71-1.76-2.59h.95l1.31 1.95zM26.58 47.63h1.85c1.22 0 2.03.66 2.03 1.68S29.64 51 28.41 51h-1.09v1.94h-.74v-5.31zm.75.67v2.03h1.17c.71 0 1.18-.41 1.18-1.02 0-.61-.47-1.01-1.18-1.01h-1.17zM31.59 47.63h3.37v.7h-2.62v1.59h2.29v.7h-2.29v1.61h2.62v.7h-3.37v-5.3zM36.08 47.63h1.85c1.17 0 1.94.63 1.94 1.6 0 .75-.47 1.31-1.23 1.51l1.32 2.19h-.86l-1.24-2.1h-1.03v2.1h-.74l-.01-5.3zm.74.67v1.86h1.17c.65 0 1.09-.37 1.09-.93s-.44-.93-1.09-.93h-1.17zM41.17 47.63h.74v5.3h-.74v-5.3zM43.42 47.63h3.37v.7h-2.62v1.59h2.29v.7h-2.29v1.61h2.62v.7h-3.37v-5.3zM48.63 48.85v4.09h-.75v-5.3h.81l2.94 4.11v-4.11h.74v5.3h-.81l-2.93-4.09zM57.66 48.78c-.36-.3-.8-.5-1.4-.51-1.06 0-1.91.9-1.91 2.02 0 1.11.85 2.01 1.98 2.01.52 0 1.01-.17 1.34-.49l.49.55a2.5 2.5 0 0 1-1.88.68 2.71 2.71 0 0 1-2.72-2.75 2.73 2.73 0 0 1 2.71-2.75c.84 0 1.43.24 1.89.66l-.5.58zM59.15 47.63h3.37v.7H59.9v1.59h2.29v.7H59.9v1.61h2.62v.7h-3.37v-5.3z"/>
    </g>
    <g>
      <path d="M7.99 10.32h2.1c.93 0 1.65.6 1.65 1.42 0 .63-.46.99-.81 1.13.53.16.98.58.98 1.27 0 .79-.65 1.46-1.69 1.46H7.99v-5.28zm.75.66v1.61h1.28c.54 0 .94-.35.94-.8 0-.45-.41-.81-.94-.81H8.74zm0 2.24v1.72h1.4c.57 0 1-.37 1-.86s-.43-.86-.99-.86H8.74zM16.25 14.26h-2.53l-.55 1.36h-.79l2.18-5.3h.88l2.18 5.3h-.84l-.53-1.36zm-1.27-3.16-.99 2.48h1.99l-1-2.48zM18.56 10.31h.74v4.6h2.75v.7h-3.49v-5.3zM22.97 10.31h.74v4.6h2.75v.7h-3.49v-5.3zM32.06 12.97a2.73 2.73 0 0 1-2.72 2.74 2.73 2.73 0 0 1-2.71-2.75 2.73 2.73 0 0 1 2.71-2.75 2.75 2.75 0 0 1 2.72 2.76zm-.8 0c0-1.12-.86-2.03-1.93-2.03-1.06 0-1.92.9-1.92 2.02 0 1.11.86 2.01 1.92 2.01 1.07.01 1.93-.9 1.93-2zM34.82 11.01v4.6h-.74v-4.6H32.4v-.7h4.11v.7h-1.69zM40.31 11.54a1.65 1.65 0 0 0-1.32-.63c-.64 0-1.03.28-1.03.71 0 1.17 2.96.64 2.96 2.52 0 .93-.76 1.56-1.94 1.56-.99 0-1.64-.39-2-.9l.54-.5c.36.46.87.7 1.47.7.73 0 1.14-.31 1.14-.81 0-1.29-2.96-.72-2.96-2.55 0-.85.75-1.44 1.85-1.44.83 0 1.5.36 1.82.82l-.53.52zM45.73 11.01v4.6h-.74v-4.6H43.3v-.7h4.11v.7h-1.68zM53.18 12.97a2.73 2.73 0 0 1-2.72 2.74 2.73 2.73 0 0 1-2.71-2.75 2.73 2.73 0 0 1 2.71-2.75c1.5 0 2.72 1.24 2.72 2.76zm-.79 0c0-1.12-.86-2.03-1.93-2.03-1.06 0-1.92.9-1.92 2.02 0 1.11.86 2.01 1.92 2.01 1.07.01 1.93-.9 1.93-2zM63.51 10.31l-1.7 5.3h-.93l-1.25-4.37-1.26 4.37h-.89l-1.7-5.3h.83l1.33 4.39 1.26-4.39h.93l1.27 4.4 1.33-4.4h.78zM64.52 10.31h.74v5.3h-.74v-5.3zM67.5 11.53v4.09h-.75v-5.3h.81l2.94 4.11v-4.11h.74v5.3h-.81l-2.93-4.09z"/>
    </g>
  </g>
</svg>
