<svg xmlns="http://www.w3.org/2000/svg" width="80" height="100" viewBox="0 0 268 330">
  <g fill="#CE153E">
    <path d="M66.85 18.69a10.1 10.1 0 0 0-8.2-4.34c-2.4 0-3.57.94-3.57 2.28 0 4.51 18.33 2.41 18.33 14.59 0 5.62-4.04 10.13-10.25 11.65v5.8h-7.85v-5.45c-6.5-.7-10.07-3.63-12.12-6.86l6.86-6.44a10.12 10.12 0 0 0 8.55 4.4c2.93 0 4.45-.94 4.45-2.69 0-4.74-18.33-2.52-18.33-14.76 0-5.68 4.28-10.02 10.6-11.24V.01h7.85v5.68c4.51.88 8.08 3.28 10.25 6.45l-6.57 6.55zM94.49 30.58c0-2.69-2.11-4.51-5.33-4.51-2.7 0-4.69.82-6.27 1.76l-4.22-3.11L81.6 5.57h20.03v8.26h-12.3l-.76 4.51c.76-.18 2.05-.23 2.7-.23 7.61 0 12.65 5.04 12.65 12.65 0 7.91-5.8 13.24-14.59 13.23-6.33 0-10.95-2.81-13.29-6.68l6.85-6.09c1.7 2.69 3.86 3.92 6.27 3.93 3.22 0 5.33-1.81 5.33-4.57zM113.52 49.68h-7.91l3.52-16.81h9.67l-5.28 16.81zM123.54 24.38c0-11.36 6.45-19.68 15.23-19.68 9.2 0 15.81 8.32 15.69 19.63.11 11.36-6.33 19.68-15.23 19.68-9.07 0-15.69-8.32-15.69-19.63zm21.5.01c0-6.5-2.34-10.84-6.21-10.84-3.51 0-5.86 4.27-5.86 10.78 0 6.56 2.4 10.84 6.09 10.84 3.69-.01 5.98-4.28 5.98-10.78zM158.34 24.39c0-11.36 6.45-19.68 15.23-19.68 9.2 0 15.81 8.32 15.69 19.63.11 11.36-6.33 19.68-15.23 19.68-9.08-.01-15.69-8.33-15.69-19.63zm21.49 0c0-6.5-2.34-10.84-6.21-10.84-3.51 0-5.86 4.27-5.86 10.78 0 6.56 2.4 10.84 6.09 10.84 3.7 0 5.98-4.27 5.98-10.78zM193.13 24.4c0-11.36 6.45-19.68 15.23-19.68 9.2 0 15.81 8.32 15.69 19.63.11 11.36-6.33 19.68-15.23 19.68-9.08-.01-15.69-8.33-15.69-19.63zm21.5 0c0-6.5-2.34-10.84-6.21-10.84-3.51 0-5.86 4.27-5.86 10.78 0 6.56 2.4 10.84 6.09 10.84s5.97-4.28 5.98-10.78z"/>
  </g>
  <g fill="#CE153E">
    <path d="M65.9 59.98v26.51h-4.29l.01-26.51h-9.68v-4.05l23.7.01v4.05l-9.74-.01zM80.68 55.93h10.68c6.72 0 11.16 3.63 11.16 9.21 0 4.34-2.72 7.53-7.11 8.72l7.63 12.64h-4.96l-7.15-12.11h-5.96V86.5h-4.29V55.93zm4.29 3.87v10.73h6.77c3.77 0 6.29-2.14 6.3-5.39 0-3.24-2.53-5.34-6.29-5.34h-6.78zM128.98 78.69h-14.59l-3.15 7.82h-4.53l12.59-30.56h5.05l12.58 30.57h-4.82l-3.13-7.83zm-7.29-18.17-5.72 14.3h11.49l-5.77-14.3zM150.38 81.74l9.54-25.79h4.48l-11.64 30.56h-5.05l-11.63-30.57h4.82l9.48 25.8zM169.89 55.95h19.41V60h-15.11v9.15h13.21v4.05h-13.21v9.25h15.12v4.05H169.9l-.01-30.55zM195.73 55.96h4.29l-.01 26.51h15.83v4.05h-20.12l.01-30.56zM80.82 109.65l5.45-14.74h2.56l-6.65 17.47h-2.89l-6.64-17.47h2.75l5.42 14.74zM107.71 103.69a9 9 0 0 1-8.97 9.02 9 9 0 0 1-8.94-9.05 9.01 9.01 0 0 1 8.94-9.07 9.05 9.05 0 0 1 8.97 9.1zm-2.61 0c0-3.68-2.83-6.68-6.35-6.68-3.49 0-6.32 2.97-6.32 6.65 0 3.65 2.83 6.62 6.32 6.62a6.48 6.48 0 0 0 6.35-6.59zM111.47 94.92h2.48v10.65c0 2.83 1.74 4.71 4.36 4.71 2.64 0 4.36-1.88 4.36-4.71V94.92h2.48v10.65c0 4.31-2.75 7.14-6.87 7.14-4.11 0-6.81-2.84-6.81-7.14V94.92zM142.42 98.69a6.9 6.9 0 0 0-4.61-1.66c-3.49 0-6.3 2.97-6.3 6.65a6.5 6.5 0 0 0 6.51 6.62c1.72 0 3.32-.57 4.41-1.61l1.61 1.8c-1.61 1.58-3.6 2.23-6.19 2.23a8.93 8.93 0 0 1-8.96-9.05 8.98 8.98 0 0 1 8.91-9.07c2.78 0 4.71.79 6.24 2.18l-1.62 1.91zM159.5 104.71h-9.73v7.68h-2.45V94.92h2.45v7.47h9.73v-7.47h2.48v17.47h-2.48v-7.68zM166.91 94.93H178v2.32h-8.64v5.23h7.55v2.32h-7.55v5.29H178v2.32h-11.09V94.93zM181.68 94.93h6.1c3.84 0 6.38 2.07 6.38 5.26 0 2.48-1.55 4.31-4.06 4.99l4.36 7.22h-2.83l-4.09-6.92h-3.41v6.92h-2.45V94.93zm2.45 2.21v6.13H188c2.15 0 3.6-1.23 3.6-3.08s-1.44-3.05-3.6-3.05h-3.87z"/>
  </g>
  <g>
    <path fill="none" stroke="#CE1F3F" stroke-linecap="round" stroke-linejoin="round" stroke-miterlimit="10" stroke-width="8.12" d="M239.28 190.25c-4.09-7.61-7.03-13.09-38.93-4-10 2.85-19.62 6.88-28.51 12.27l-7.86 4.77-83.43-24.11-23.13 12.43 56.01 42.35-34.55 20.96-36.01-10.62-14.94 8.03 35.8 36.02L198.9 224.6c9.34-4.51 47.1-21.84 40.38-34.35z"/>
  </g>
</svg>
