<svg xmlns="http://www.w3.org/2000/svg" width="80" height="100" viewBox="0 0 268 330">
  <g fill="#CE153E">
    <path d="M22.91 3.4h13.65c9.55 0 15.87 4.92 15.87 12.42 0 4.86-2.58 8.67-6.97 10.78l7.9 14.35H42.17l-6.44-12.54h-3.16v12.53h-9.66V3.4zm9.67 8.5v8.02h4.75c2.93 0 4.86-1.64 4.86-4.1 0-2.34-1.93-3.92-4.86-3.93l-4.75.01zM58.64 3.41l24.96.01v9.08H68.31v4.92h12.94v9.08H68.31v5.39H83.6v9.08l-24.95-.01-.01-37.55zM88.87 3.42h13.65c12.24 0 21.26 7.97 21.26 18.87 0 10.78-9.03 18.68-21.27 18.68H88.86l.01-37.55zm9.95 9.08-.01 19.39h3.57c6.62 0 11.01-3.86 11.01-9.72 0-5.8-4.39-9.67-11.07-9.67h-3.5zM162.08 15.97a10.13 10.13 0 0 0-8.2-4.34c-2.4 0-3.57.94-3.57 2.28 0 4.86 18.33 2.64 18.33 15.76 0 6.97-6.15 12.18-15 12.18-8.49 0-12.89-3.34-15.23-7.03l6.85-6.44a10.08 10.08 0 0 0 8.55 4.39c2.93 0 4.45-.94 4.45-2.69 0-5.1-18.33-2.7-18.33-15.94 0-6.74 6.04-11.6 14.35-11.59 6.5 0 11.54 2.81 14.35 6.86l-6.55 6.56zM210.64 22.25a19.67 19.67 0 0 1-39.37-.06 19.67 19.67 0 0 1 39.37.06zm-10.37 0c0-5.51-4.16-10.02-9.31-10.02s-9.31 4.45-9.31 9.96 4.16 10.02 9.31 10.02c5.15-.01 9.31-4.46 9.31-9.96z"/>
    <path d="m228.04 13 6.39-9.55h10.89l-12.01 17.8L246.01 41h-12.13l-7.08-10.9-7.32 10.89h-10.89l12.83-19.09-12-18.45h12.48l6.14 9.55z"/>
  </g>
  <g fill="#CE153E">
    <path d="m112.34 79.58 9.54-25.79h4.48l-11.64 30.56h-5.05L98.04 53.78h4.82l9.48 25.8zM131.84 53.79h4.29l-.01 30.56h-4.29l.01-30.56zM144.81 53.79h10.68c7.06 0 11.73 3.82 11.73 9.68 0 5.86-4.72 9.73-11.83 9.72h-6.29v11.16h-4.29V53.79zm4.29 3.87v11.68h6.77c4.1 0 6.82-2.33 6.82-5.86s-2.72-5.82-6.82-5.82h-6.77zM58.96 92.75h11.09v2.32h-8.64v5.23h7.55v2.32h-7.55v5.29h8.64v2.32H58.96V92.75zM79.67 99.19l4.42-6.43h2.78l-5.81 8.45 6.07 9.02h-3.05l-4.69-6.9-4.74 6.89h-2.78l6.13-8.94-5.8-8.53h3.13l4.34 6.44zM90.26 92.76h6.1c4.03 0 6.7 2.18 6.7 5.53s-2.7 5.56-6.76 5.56h-3.6v6.38h-2.45l.01-17.47zm2.46 2.21v6.68h3.87c2.34 0 3.9-1.33 3.9-3.35s-1.55-3.32-3.89-3.33h-3.88zM106.77 92.76h11.09v2.32h-8.64v5.23h7.55v2.32h-7.55v5.29h8.64v2.32h-11.09V92.76zM121.54 92.76h6.1c3.84 0 6.38 2.07 6.38 5.26 0 2.48-1.55 4.3-4.06 4.99l4.36 7.22h-2.83l-4.09-6.92h-3.41v6.92h-2.45V92.76zm2.45 2.21v6.13h3.87c2.15 0 3.6-1.23 3.6-3.08s-1.44-3.05-3.6-3.05h-3.87zM138.32 92.77h2.45v17.47h-2.45V92.77zM145.73 92.77h11.09v2.32h-8.64v5.23h7.55v2.32h-7.55v5.29h8.64v2.32h-11.09V92.77zM162.89 96.78v13.46h-2.48V92.77h2.67l9.67 13.55V92.78h2.45v17.47h-2.67l-9.64-13.47zM192.62 96.54a6.9 6.9 0 0 0-4.61-1.66c-3.49 0-6.29 2.97-6.3 6.65a6.5 6.5 0 0 0 6.51 6.62c1.72 0 3.32-.57 4.42-1.61l1.61 1.8c-1.61 1.58-3.6 2.23-6.19 2.23a8.93 8.93 0 0 1-8.96-9.05 8.98 8.98 0 0 1 8.91-9.07c2.78 0 4.71.79 6.24 2.18l-1.63 1.91zM197.52 92.78h11.09v2.32h-8.64v5.23h7.55v2.32h-7.55v5.29h8.64v2.32h-11.09V92.78z"/>
  </g>
      <path fill="#FFF" d="M204.04 247.23c-6.28-4.45-13.85-5.45-21.17-6.41-13.98-1.83-25.01-3.27-26.62-26.16-2.33-33.29-3.14-40.92-11.53-47.04a6126.3 6126.3 0 0 0-1.96-15.63 8.22 8.22 0 0 0-9.18-7.13l-25.55 3.2a8.17 8.17 0 0 0-7.12 7.05 8.24 8.24 0 0 0-8.26 5.45l-5.24 14.74c-5.1 2.26-9.19 9.47-13.72 24.01l-2.58 8.4c-5.01 16.51-8.98 29.56-16.46 37.61-6.5 6.99-9.95 14.49-9.95 21.34 0 2.07.31 4.08.95 6 1.91 5.73 7.67 13.21 24.26 16.23 9.11 1.57 19.65 8.12 29.86 14.46 7.03 4.37 14.55 8.99 21.3 11.81 4.33 1.84 11.82 5.02 32.65-.2 1.08-.24 3.34-1.17 4.11-4.77.16-.76.25-1.63.25-2.59 0-7-4.9-19.22-18.15-30.58 9.47.96 20.06 3.21 27.88 5.96 12.97 4.56 37.3 7.65 51.27-2.48 1.12-.72 2.41-2.41 2.52-5.47 0-6.43-5.33-19.12-17.56-27.8"/>
      <path fill="#BD3238" d="M214.02 274.72c-4.29 2.88-10.07 4.3-16.22 4.73-1.32.04-2.2-.43-2.49-1.48l-4.43-12.08c-.43-1.01-.51-1.95.87-2.63 0 0 9.12-3.96 10.13-4.52 1.02-.56 2.29-1.54 3.53-.29 6.08 6.42 8.63 13.47 8.63 16.18l-.02.09m-77.19-103.43a.8.8 0 0 1-.9-.69l-2.22-17.89a.8.8 0 0 1 .7-.89c.44-.06.84.25.89.7l2.21 17.89a.78.78 0 0 1-.68.88m65.39 78.5c-16.78-11.92-46.4 3.4-49.09-34.9-2.45-34.83-3.32-40.17-11.35-45.48l-2.13-17.02a5.1 5.1 0 0 0-5.7-4.42l-25.54 3.2a5.08 5.08 0 0 0-4.44 4.7l4.48 1.6-.2-1.62a.78.78 0 0 1 .69-.88.8.8 0 0 1 .9.69l.3 2.41 3.47 1.23-.48-3.81a1.03 1.03 0 0 1 2.05-.25l.6 4.84 3 1.07-.75-6.03a1.27 1.27 0 0 1 1.1-1.41c.69-.09 1.32.41 1.41 1.1l.9 7.28 2.74.97-1.07-8.57a1.26 1.26 0 0 1 2.5-.32l1.22 9.83.57.2c.94.33 1.77.83 2.49 1.43l-1.48-12.04c-.07-.56.33-1.08.9-1.15.57-.07 1.08.33 1.14.91l1.98 15.98a8.39 8.39 0 0 1-.03 5.38l-5.27 14.82a13.36 13.36 0 0 1 1.44 6.12c0 6.29-3.71 13.07-7.11 19.27a95.86 95.86 0 0 0-3.84 7.48c-5.24 12.79-7.79 20.72-7.79 26.11 0 2.87.72 5.02 2.11 6.82.04-3.4.68-6.03 1.06-7.31 3.37 1.08 13.34 4.22 18.35 5.31 0 0-.42 10.26.83 17.64.58.47 1.07.87 1.44 1.19.66.46 1.28.91 1.91 1.37 11.28.64 24.67 3.46 33.3 6.5 13.43 4.72 36.14 6.92 48.5-2.12 3.51-2.15-.92-18.05-15.11-28.12"/>
      <path fill="#BD3238" d="M150.48 307.89c-7.66 1.84-13.03 2.4-16.92 2.32-1.39.17-2.52-.48-2.75-2.11l-1.42-12.62c.04-1.29.43-2.38 2.03-2.42 3.75.03 8.26-.34 9.65-.8 2.08-.69 2.61-.46 2.85-.09 5.07 6.81 6.61 12.66 6.61 15.36 0 .16-.04.23-.05.36m-46.53-123.81a1.27 1.27 0 0 1-.76-1.61l5.75-16.12c.24-.66.96-1 1.62-.76.66.23 1 .95.76 1.61l-5.76 16.11c-.23.66-.95 1-1.61.77m-4.83-1.74a1.03 1.03 0 0 1-.63-1.32l5.9-16.54c.2-.54.79-.82 1.32-.63.54.19.81.78.63 1.31l-5.91 16.55c-.19.55-.78.83-1.31.63m-4.84-1.72a.8.8 0 0 1-.49-1.02l6.06-16.97a.83.83 0 0 1 1.03-.49.8.8 0 0 1 .48 1.03l-6.07 16.98a.79.79 0 0 1-1.01.47m21.1-13.32c.65.24.99.96.76 1.61l-5.76 16.11a1.26 1.26 0 1 1-2.37-.84l5.75-16.12c.24-.65.96-.99 1.62-.76m4.83 1.73c.54.19.82.78.63 1.32l-5.91 16.54a1.03 1.03 0 0 1-1.94-.69l5.91-16.55c.18-.53.77-.81 1.31-.62m4.84 1.73a.8.8 0 0 1 .48 1.02l-6.06 16.97a.8.8 0 0 1-1.52-.54l6.06-16.97a.82.82 0 0 1 1.04-.48M68.85 280.9c-8.81-2.01-14.31-5.65-15.97-10.64-1.68-5.07.55-11.78 5.99-18.23a80.26 80.26 0 0 1 15.23 7.85c-2.76 5.78-4.64 13.02-5.25 21.02m63.28-5.95c-1.23-.97-8.47-7.22-18.7-14.13-10.23-6.91-7.86-17.26 1.32-39.68 4.49-10.15 14.77-22.78 8.97-31.34l5.74-16.16a5.08 5.08 0 0 0-3.1-6.5l-24.25-8.62a5.1 5.1 0 0 0-6.51 3.1l-5.74 16.15c-4.47.96-8.51 7.5-13.19 22.47-6.39 20.49-10.46 37.23-19.73 47.21-13.21 14.2-14.66 33.22 13.52 38.34 16.2 2.8 35.36 19.58 51.57 26.36 3.89 1.63 10.25 4.95 30.97-.26 4.47-.83 2.76-20.51-20.87-36.94"/>
    <path fill="#BD3139" d="M196.33 288.58h.77v2.12h.48v-2.12h.78v-.41h-2.03v.41zM200.27 289.96l-.68-1.79h-.71v2.53h.46v-1.97l.76 1.97h.34l.76-1.97h.01v1.97h.45v-2.53h-.71l-.68 1.79z"/>
</svg>
