<svg xmlns="http://www.w3.org/2000/svg" width="752" height="850" viewBox="0 0 752 850">
<style>
  /* <![CDATA[ */

  #tent {
    opacity: 0;
    transform: translate(376px, 380px) scale(1) translate(-376px, -380px) translate(183px, 486px) rotate(0deg) translate(-183px, -486px);
    animation: tent 1.6s ease-out forwards;
  }

  @keyframes tent {
    0% {
      opacity: 0;
      transform: translate(376px, 380px) scale(.1) translate(-376px, -380px) translate(183px, 486px) rotate(0deg) translate(-183px, -486px);
    }
    10%, 80% {
      opacity: 1;
    }
    100% {
      opacity: 0;
      transform: translate(376px, 380px) scale(2) translate(-376px, -380px) translate(183px, 486px) rotate(360deg) translate(-183px, -486px);
    }
  }

  #camper {
    opacity: 0;
    transform: translate(376px, 380px) scale(1) translate(-376px, -380px) translate(129px, 315px) rotate(0deg) translate(-129px, -315px);
    animation: camper 1.6s ease-out forwards;
  }

  @keyframes camper {
    0% {
      opacity: 0;
      transform: translate(376px, 380px) scale(.1) translate(-376px, -380px) translate(129px, 315px) rotate(0deg) translate(-129px, -315px);
    }
    10%, 80% {
      opacity: 1;
    }
    100% {
      opacity: 0;
      transform: translate(376px, 380px) scale(2) translate(-376px, -380px) translate(129px, 315px) rotate(360deg) translate(-129px, -315px);
    }
  }

  #trees {
    opacity: 0;
    transform: translate(376px, 380px) scale(1) translate(-376px, -380px) translate(343px, 172px) rotate(0deg) translate(-343px, -172px);
    animation: trees 1.6s ease-out forwards;
  }

  @keyframes trees {
    0% {
      opacity: 0;
      transform: translate(376px, 380px) scale(.1) translate(-376px, -380px) translate(343px, 172px) rotate(0deg) translate(-343px, -172px);
    }
    10%, 80% {
      opacity: 1;
    }
    100% {
      opacity: 0;
      transform: translate(376px, 380px) scale(2) translate(-376px, -380px) translate(343px, 172px) rotate(360deg) translate(-343px, -172px);
    }
  }

  #marshmallow {
    opacity: 0;
    transform: translate(376px, 380px) scale(1) translate(-376px, -380px) translate(542px, 243px) rotate(0deg) translate(-542px, -243px);
    animation: marshmallow 1.6s ease-out forwards;
  }

  @keyframes marshmallow {
    0% {
      opacity: 0;
      transform: translate(376px, 380px) scale(.1) translate(-376px, -380px) translate(542px, 243px) rotate(0deg) translate(-542px, -243px);
    }
    10%, 80% {
      opacity: 1;
    }
    100% {
      opacity: 0;
      transform: translate(376px, 380px) scale(2) translate(-376px, -380px) translate(542px, 243px) rotate(360deg) translate(-542px, -243px);
    }
  }

  #campfire {
    opacity: 0;
    transform: translate(376px, 380px) scale(1) translate(-376px, -380px) translate(584px, 359px) rotate(0deg) translate(-584px, -359px);
    animation: campfire 1.6s ease-out forwards;
  }

  @keyframes campfire {
    0% {
      opacity: 0;
      transform: translate(376px, 380px) scale(.1) translate(-376px, -380px) translate(584px, 359px) rotate(0deg) translate(-584px, -359px);
    }
    10%, 80% {
      opacity: 1;
    }
    100% {
      opacity: 0;
      transform: translate(376px, 380px) scale(2) translate(-376px, -380px) translate(584px, 359px) rotate(360deg) translate(-584px, -359px);
    }
  }

  #guitar {
    opacity: 0;
    transform: translate(376px, 380px) scale(1) translate(-376px, -380px) translate(553px, 495px) rotate(0deg) translate(-553px, -495px);
    animation: guitar 1.6s ease-out forwards;
  }

  @keyframes guitar {
    0% {
      opacity: 0;
      transform: translate(376px, 380px) scale(.1) translate(-376px, -380px) translate(553px, 495px) rotate(0deg) translate(-553px, -495px);
    }
    10%, 80% {
      opacity: 1;
    }
    100% {
      opacity: 0;
      transform: translate(376px, 380px) scale(2) translate(-376px, -380px) translate(553px, 495px) rotate(360deg) translate(-553px, -495px);
    }
  }

  /* ]]> */
  </style>
  <path id="tent" fill="#FFF" d="M245.13 480.92c-1.95.37-3.45 1.06-3.36 1.55l.15.8c.07.37 1.04.51 2.36.4l.63 2.17a18.9 18.9 0 0 1-7.48-1.89l-27.45-34.54-70.29 13.32-9.25 44.92a18.45 18.45 0 0 1-7.74 6.32l-.21-2.25c1.27-.38 2.13-.87 2.06-1.24l-.15-.8c-.09-.49-1.75-.58-3.7-.21-1.95.37-3.46 1.06-3.36 1.55l.15.8c.07.38 1.08.52 2.43.39l1.77 6.62 1.45-.26-.28-3.05a20.22 20.22 0 0 0 9.15-7.56l3.63-.4 1.49 7.86 55.1-5.7a32.55 32.55 0 0 1-9.73 7.08l-.21-2.26c1.27-.38 2.13-.87 2.06-1.24l-.15-.8c-.09-.49-1.75-.58-3.7-.21-1.95.37-3.45 1.06-3.36 1.55l.15.8c.07.38 1.08.52 2.43.39l1.77 6.62 1.45-.26-.29-3.05c4.9-2.11 8.94-5.66 11.79-8.85l6.36-.66 16.81-7.53-6.87-43.94s7.41 39.12 14.37 45.1c.31.27 9.16-8.63 9.16-8.63l-1.41-7.46 3.32-1.42a20.31 20.31 0 0 0 9.16 2.38l.85 2.95 1.44-.29-.78-6.8c1.3-.38 2.19-.88 2.12-1.26l-.15-.8c-.08-.49-1.74-.58-3.69-.21zM168.7 505.2l-26.36 2.08-3.16.06 55.68-6.19-5.56 1.32-20.6 2.73zm34.42-17.8-3.87 13.17s8.72-47.01 9.55-46.94c1.13.09-5.68 33.77-5.68 33.77z"/>
  <g id="camper" fill="#FFF">
    <g>
      <path d="m115.09 311.04 2.6-9.9 11.62 3.05-2.6 9.9z"/>
      <circle cx="151.57" cy="302.61" r="4.6"/>
      <path d="m101.56 307.5 2.6-9.9 11.86 3.11-2.59 9.9zM88.7 304.13l2.6-9.9 11.2 2.94-2.58 9.9zM161.44 295.51l-15.01-3.93-12.56 47.99 15.01 3.93 12.56-47.99zm-17.19 25.28-1.65-.43.35-1.32-2.31-.6.43-1.65 3.96 1.04-.78 2.96zm5.72-12.08a6.31 6.31 0 1 1 3.22-12.21 6.31 6.31 0 0 1-3.22 12.21z"/>
    </g>
    <path d="M112.73 330.91a9.43 9.43 0 1 0-4.77 18.25 9.43 9.43 0 0 0 4.77-18.25zm-3.39 12.91a3.93 3.93 0 1 1 2-7.6 3.93 3.93 0 0 1-2 7.6z"/>
    <path d="M182.65 341.24a1.99 1.99 0 0 0-2.55.2l-1.86 1.83-6.51-1.71 2.65-4.01c.23-.34.39-.72.5-1.11l5.87-22.41a18.83 18.83 0 0 0-13.45-22.99l-19.79-5.18a33.59 33.59 0 0 0-3.85-.76l-50.43-6.7a10.4 10.4 0 0 0-11.43 7.67l-6.27 23.94a8.6 8.6 0 0 0-.25 2.99l1.22 13.21a2.43 2.43 0 0 0 1.82 2.14l18.49 4.84c1.3.34 2.67-.07 3.58-1.06l1.88-2.06a5.15 5.15 0 0 1 5.11-1.52l11.94 3.13a5.17 5.17 0 0 1 3.72 3.83l.8 3.47c.19.84.84 1.51 1.68 1.73l38.25 10.01c.97.25 1.99-.14 2.54-.97l2.72-4.12 11.15 2.92 2.99-4.64a2 2 0 0 0-.52-2.67zm-94.4-59.84s.21-1.18 1.37-.88c.75.2 2.49 1.17 3.62 1.83.31.18.19.66-.17.67-1.32.02-3.31.02-4.05-.18-1.16-.31-.77-1.44-.77-1.44zM95 329.21l-16-4.19 1.68-6.43 16 4.19-1.68 6.43zm32.93-13.05-41.31-10.82 3.45-13.19 41.31 10.82-3.45 13.19zm22.17 29.42-18.3-4.79 13.43-51.29 18.3 4.79-13.43 51.29zm21.62-48.26c-.75-.2-2.49-1.17-3.62-1.83-.31-.18-.19-.66.17-.67 1.32-.02 3.31-.02 4.05.18 1.16.3.77 1.44.77 1.44s-.21 1.18-1.37.88z"/>
  </g>
  <g id="trees" fill="#FFF">
    <path d="M326.96 198.97a5916.8 5916.8 0 0 1 26.02 6.82c-3.59-2.72-10.37-16.55-10.37-16.55l8.21 1.75c-4.58-2.57-9.06-15.61-9.06-15.61l8.31 2.16c-3.35-1.27-9.58-15.85-9.58-15.85l7.06 1.75c-5.61-3.94-7.5-13.22-7.5-13.22l3.46.79c-5.97-5.67-7.86-17.5-7.86-17.5s-6.84 9.84-14.69 12.34l3.46.79s-5.74 7.53-12.5 8.64l7.12 1.5s-11.95 10.42-15.52 10.11l8.42 1.67s-9.71 9.8-14.95 10.12l8.16 1.99s-12.13 9.5-16.54 10.39c0 0 17.07 3.31 26.57 5.21-.53 2.83-2.35 7.31-8.53 7.49l24.37 5.58s-5.51-2.2-4.06-10.37zM380.07 195.83c5.82 1.5 16.07 4.21 16.07 4.21-2.22-1.68-6.41-10.22-6.41-10.22l5.07 1.08c-2.83-1.59-5.59-9.64-5.59-9.64l5.13 1.33c-2.07-.79-5.91-9.79-5.91-9.79l4.36 1.08c-3.46-2.43-4.63-8.16-4.63-8.16l2.13.49c-3.69-3.5-4.85-10.81-4.85-10.81s-4.23 6.07-9.07 7.62l2.13.49s-3.55 4.65-7.72 5.33l4.4.92s-7.38 6.43-9.58 6.24l5.2 1.03s-5.99 6.05-9.23 6.25l5.04 1.23s-7.49 5.87-10.21 6.41c0 0 10.54 2.05 16.41 3.22-.33 1.75-1.45 4.51-5.27 4.63l15.05 3.44c-.02.02-3.42-1.34-2.52-6.38z"/>
  </g>
  <path id="marshmallow" fill="#FFF" d="M568.01 191.32a5.22 5.22 0 0 0-.58-1c-1.59-1.92-4.56-2.53-8.7-2.49l-.27-6.82V181a2.27 2.27 0 0 0-4.53.19s.11 2.57.25 6.94c-4.16.55-7.12 1.9-8.27 3.61-.14.27-.27.54-.36.83-2.02 6.07-1.51 21.18 3.25 25.44 1.32 1.18 3.93 1.87 6.82 2.06l-1.42 10.92-1.08 8.59-.66 5.74-15.54-16.28-1.76-3.66c1.98-1.21 3.48-2.62 3.92-4.06 1.89-6.11-3.49-19.69-7.78-24.44a4.84 4.84 0 0 0-.87-.76c-2.17-1.34-5.26-.93-9.31.51-1.22-3.16-1.91-5-1.91-5v-.01a1.98 1.98 0 0 0-3.7 1.42s.72 1.87 1.93 5.1c-3.92 1.87-6.39 4.16-6.95 6.19-.05.3-.08.6-.08.9.02 6.4 5.33 20.55 11.21 23.07 1.96.84 5.45.4 8.81-.74l1.64 4.19c.1.26.26.52.47.74l.06.07 20.85 21.85 2.05 8.41c1.06 4.53 2.12 9.06 3.11 13.6 1 4.54 2.03 9.08 2.98 13.63a920.46 920.46 0 0 1 2.92 14.03 4.15 4.15 0 1 0 7.99-2.34c-1.3-4.47-2.56-8.95-3.78-13.44-1.25-4.48-2.43-8.98-3.63-13.48l-.18-.67c.27-.35.49-.76.59-1.22l5.71-24.5a1.58 1.58 0 0 0-3.02-.9l-5.99 16.23-.62-2.43-3.18-13.03.8-8.05.77-8.62 1-11.76c2.94-.43 5.51-1.39 6.59-2.88 3.75-5.21 2.99-19.8.45-25.67zm-46.37 12.06c-3.15 1.26-6.14 1.82-8.37 1.69l-.03-.26c.42-.94 2.03-2.55 5.17-4.08l.58 1.54a7.23 7.23 0 0 0 3.78-1.4l-.64-1.66c3.25-1.14 5.44-1.42 6.64-.85l.29.3c-1.52 1.68-4.14 3.41-7.42 4.72zm35.14-8.97c-3.39.19-6.4-.24-8.48-1.07l.05-.26c.68-.73 2.62-1.71 5.9-2.18l.05 1.58a8.74 8.74 0 0 0 4.61-.14l-.08-1.73c3.28-.02 5.35.42 6.29 1.32l.18.38c-1.96 1.1-5 1.91-8.52 2.1z"/>
  <g id="campfire" fill="#FFF">
    <path d="M573.49 352.58s-1.96 2.01-2.8 3.51c-.35.62-3.23 8.13-1.08 10.47a5.69 5.69 0 0 0 3.6 1.84 4.9 4.9 0 0 0 1.66-.12c.83-.2 3.01-.42 5.1 1.86.44.48 1 .83 1.63.97.49.11 1.05.13 1.52-.11 1.12-.56 4.35.42 5.38 1.22.92.71 5.36.79 6.95-.51.37-.3.82-.47 1.29-.46 1.03.02 2.74-.08 3.68-.9l.43-.34c.76-.52 3-2.33 2.42-5.22 0 0-.28-2.66-.98-3.51 0 0 0 .79-.65 1.12 0 0-1.87-4.02-1.54-5.56 0 0-2.96 5.14-3.54 6.53-.16.37-.42.69-.77.87-.68.36-1.73.31-2.55-2.49-1.31-4.49-4.25-13.79-4.11-15.19 0 0-.79 2.01-1.73 2.06-.93.05-2.15-4.77-2.15-4.77s-2.01 2.57-1.36 4.35c.65 1.78 0 9.02-4.49 11.87 0 0-1.64-3.13-3.32-3.51-1.7-.38-2.59-3.98-2.59-3.98z"/>
    <path d="m617.43 377.2-.23-2.25c-.19-1.93-1.32-3.55-2.49-3.58l-6.22-.16c3.54-7.91.36-20.38.36-20.38 0 2.45-2.31 3.51-2.31 3.51 1.96-13.46-4.84-16.41-4.84-16.41.84.98.49 4.77-.63 5.54-1.12.77-.84-1.26-.84-1.26-.59.63-.8 1.7-.87 2.47a6.23 6.23 0 0 1-.86 2.66c-1.18 1.95-2.24 1.22-2.99.04a5.88 5.88 0 0 1-.84-4.07c.75-4.75-1.45-10.01-1.45-10.01-.21 1.68-2.31 2.1-2.31 2.1 2.59-11.99-7.5-16.55-7.5-16.55s2.03 5.75-.63 10.94c-2.66 5.19-3.44 0-3.44 0-.67 1.14-.41 3.06-.1 4.41a9.87 9.87 0 0 1-.62 6.45c-1.1 2.34-2.65 3.51-2.65 3.51.21-1.89-2.31-6.38-2.31-6.38-.21 1.82-.84 1.54-.84 1.54-1.54-1.26-.84-4.84-.84-4.84-2.8 1.61-1.89 10.24-1.89 10.24l-1.54-.56c.77 1.4 1.75 5.61-1.54 9.75-1.64 2.06-2.48 4.8-2.91 7.03a15.2 15.2 0 0 0 1.73 10.57l-12.36 1.63a3.48 3.48 0 0 0-2.97 4l.37 2.25a3.46 3.46 0 0 0 4.17 2.82l9.76-2.15-5.71 4.21a4.77 4.77 0 0 0 5.6 7.73l15.9-11.33c-.37 3.03-.9 7.13-1.33 10.41a6.32 6.32 0 1 0 12.59.83v-11.35l16.86 12.01a4.78 4.78 0 0 0 5.6-7.73c-2.41-1.77-5.49-4.05-8-5.92l9.3 1.52c1.17.2 2.02-1.28 1.82-3.24zm-49.38-21.12c2.52-2.38 3.08-8.06 3.08-8.06l1.26.11c1.26-2.66-.04-5.36-.04-5.36 2.28.98 4.42 5.54 4.8 6.98a9.3 9.3 0 0 1 .18 2.92c-.03.42 0 .85.12 1.26.3 1.07.83.91 1.14.7.12-.09.23-.19.32-.31 1.68-2.27 2.18-5.78 2.33-8.07.07-1.06.01-2.13-.19-3.18-.59-3.08 1.07-4.49 1.38-4.72l.26-.2c4.81-3.88 3.89-9.37 3.89-9.37s2.42 6.45 2.84 7.19-.07 3.58-.07 3.58c1.54-.32 2.49-3.19 2.49-3.19.88.49 1.26 6.98.74 7.89-.33.57-.33 2.53-.28 3.91.03.88.19 1.74.45 2.58.33 1.07.59 2.1.79 3.02a1.84 1.84 0 0 0 2.95 1.06c.46-.37 1-.76 1.63-1.17a5.2 5.2 0 0 0 2.63-4.29c.02-.48.24-.93.61-1.22 1.13-.9 1.38-3.88 1.38-3.88.61 1.24.7 4.84 1.89 5.96s0 8.83 0 8.83l.91-.77c0 1.26 2.45 7.36 1.96 10.59-.32 2.08-2.68 3.05-4.32 3.48-.95.25-1.8.79-2.44 1.53l-.14.16a4.46 4.46 0 0 1-4.36 1.28c-4.29-1.05-5.11.33-6.41.98-.79.4-1.92-.41-2.75-1.19a3.06 3.06 0 0 0-2.7-.77c-3.69.71-6.83-.42-7.39-.42-2.29 0-4.01-.9-4.98-1.57a8.14 8.14 0 0 0-2.09-1.03c-6.66-2.28-4.26-12.98-1.87-15.24z"/>
  </g>
  <g id="guitar" fill="#FFF">
    <path d="M552.5 490.43a8.57 8.57 0 1 0-14.72 8.77 8.57 8.57 0 0 0 14.72-8.77zm-12.41 7.38a5.88 5.88 0 1 1 10.11-6 5.88 5.88 0 0 1-10.11 6z"/>
    <path d="M534.24 532.86a27.24 27.24 0 0 0 6.49-8.17c2.56-4.84 7.59-13.38 11.54-13.89a27.73 27.73 0 0 0 10.13-3.65c7.06-4.2 4.49-14.04 2.4-19.41l32.03-20.39 1.26.94c.81.6 1.88.66 2.74.19l.4.68c-.25.33-.33.71-.16.99.25.43.95.48 1.56.11.61-.36.9-1 .65-1.43-.17-.28-.54-.4-.95-.33l-.48-.81 2.22-1.85.49.83c-.25.33-.33.71-.16.99.25.43.95.48 1.56.11.61-.36.9-1 .65-1.43-.17-.28-.54-.4-.95-.33l-.59-1 2.29-1.9.37.63c-.25.33-.33.71-.16.99.25.43.95.48 1.56.11s.9-1 .65-1.43c-.17-.28-.54-.4-.95-.33l-.48-.8.19-.15a2.56 2.56 0 0 0 .81-2.71l-.59-1.92c-.12-.4-.34-.76-.64-1.06l-1.27-1.26a2.57 2.57 0 0 0-2.74-.56l-.25.1-.48-.8c.25-.33.33-.71.16-.99-.25-.43-.95-.48-1.56-.11s-.9 1-.65 1.43c.17.28.54.4.95.33l.37.63-2.76 1.11-.59-1c.25-.33.33-.71.16-.99-.25-.43-.95-.48-1.56-.11-.61.36-.9 1-.65 1.43.17.28.54.4.95.33l.49.83-2.68 1.08-.48-.81c.25-.33.33-.71.16-.99-.25-.43-.95-.48-1.56-.11-.61.36-.9 1-.65 1.43.17.28.54.4.95.33l.4.68a2.54 2.54 0 0 0-1.14 2.5l.22 1.56-33.2 18.43c-3.72-4.4-11.14-11.35-18.2-7.15 0 0-4.78 2.64-8.04 7.16-2.33 3.23-12.24 3.58-17.71 3.52-3.51-.04-7 .54-10.28 1.81-1.09.42-2.16.91-3.08 1.46-3.66 2.18-13.35 11.91-1.05 32.56 12.29 20.66 25.46 16.79 29.12 14.61.94-.56 1.88-1.27 2.77-2.02zm66.36-66a.76.76 0 0 1-1.05-.27.76.76 0 0 1 .27-1.05.76.76 0 0 1 1.05.27c.22.37.1.84-.27 1.05zm3.36-2.59a.76.76 0 0 1-1.05-.27.76.76 0 0 1 .27-1.05.76.76 0 0 1 1.05.27c.22.36.1.83-.27 1.05zm3.63-3.65c.22.36.1.83-.27 1.05-.36.22-.83.1-1.05-.27s-.1-.83.27-1.05.84-.09 1.05.27zm-2.61-4.39c.22.36.1.83-.27 1.05a.76.76 0 0 1-1.05-.27.76.76 0 0 1 .27-1.05.76.76 0 0 1 1.05.27zm-3.89 1.71c.22.36.1.83-.27 1.05a.76.76 0 0 1-1.05-.27c-.22-.36-.1-.83.27-1.05s.84-.09 1.05.27zm-5.2 2.5a.76.76 0 0 1 .27-1.05.76.76 0 0 1 1.05.27c.22.36.1.83-.27 1.05s-.83.1-1.05-.27zm-69.59 57.33c-.52.31-1.18.14-1.49-.38l-9.22-15.49a1.08 1.08 0 0 1 .38-1.49l1.87-1.11a1.08 1.08 0 0 1 1.49.38l9.22 15.49c.31.52.14 1.18-.38 1.49l-1.87 1.11zm10.16-17.8a10.1 10.1 0 0 1 17.35-10.33 10.1 10.1 0 0 1-17.35 10.33z"/>
  </g>
</svg>
