<svg xmlns="http://www.w3.org/2000/svg" width="88" height="130" viewBox="0 0 88 130">
  <style>
  /* <![CDATA[ */
    #rays {
      transform: translate(44px, 40px) scale(0) translate(-44px, -40px);
      animation: rays 2s ease-in-out infinite;
    }
    @keyframes rays {
      0%, 50% {
        transform: translate(44px, 40px) scale(0) translate(-44px, -40px);
        opacity: 0;
      }
      75% {
        opacity: 1;
      }
      100% {
        transform: translate(44px, 40px) scale(1) translate(-44px, -40px);
        opacity: 0;
      }
    }
    #hand {
      transform: translate(44px, 40px) scale(.9) translate(-44px, -40px);
      animation: hand 2s ease-in-out infinite;
    }
    @keyframes hand {
      0%, 50%, 80%, 100% {
        transform: translate(44px, 40px) scale(1) translate(-44px, -40px);
      }
      65% {
        transform: translate(44px, 40px) scale(.9) translate(-44px, -40px);
      }
    }
  /* ]]> */
  </style>
  <path id="rays" fill="#FDB80F" d="M25.1 35.6 0 17.2l10.5-9.3zM43.9 31.7 37 .4h14.5zM61.1 32.6 78.6 8.3l9.3 10.6z"/>
  <g id="hand">
    <path d="M55.6 130c-5 0-10-1.2-14.4-3.5l-.1-.1-.1-.1c-5.2-3.1-5.7-7.5-5.7-8.7 0-1.4.2-2.6.5-3.6l-2.1-2.3a46.6 46.6 0 0 1-5-7.5l-.1-.1-.1-.1a13 13 0 0 0-3.3-4.4 21.1 21.1 0 0 0-8.5-3.9c-3.1-.7-5.5-1.9-7.2-3.6a10.4 10.4 0 0 1-2.9-10.3c1.1-4.9 4.9-7.9 10.2-7.9 2.3 0 4.4.5 6.1 1.4a37 37 0 0 1 5.6 3.8c1.5 1.1 3.1 2.4 4.1 3l.2-1.6c1.1-8.7 1-19.1-.2-25.4-.6-2.7-.9-5.5-.9-8.5v-.1c.1-3.6 1.1-6.6 2.8-8.7a9.9 9.9 0 0 1 7.6-3.6h.2c5.1 0 7.9 2 9.3 3.8 2.4 2.8 3.1 6.8 2.3 11.9-.5 4.5-.8 9.1-.8 13.7 2.6.1 4.8 1.3 6.6 3.2l1.8-.1c2.7 0 5.2 1.2 7 3.3l1.2-.2H70.6c3.7 0 8.5 2.9 10.1 11 .9 4.6.9 15.4 0 22.2a21 21 0 0 1-4.7 10.8 11 11 0 0 1-3.2 11.8c-3.3 3-8.4 4.5-15.6 4.5l-1.6-.1z" opacity=".3"/>
    <path fill="#FFF" d="M57.1 128.3c-5 0-10-1.2-14.4-3.5l-.1-.1-.1-.1c-5.2-3.1-5.7-7.5-5.7-8.7 0-1.4.2-2.6.5-3.6l-2.1-2.3a46.6 46.6 0 0 1-5-7.5l-.1-.1-.1-.1a13 13 0 0 0-3.3-4.4 21.1 21.1 0 0 0-8.5-3.9c-3.1-.7-5.5-1.9-7.2-3.6a10.4 10.4 0 0 1-2.9-10.3c1.1-4.9 4.9-7.9 10.2-7.9 2.3 0 4.4.5 6.1 1.4a37 37 0 0 1 5.6 3.8c1.5 1.1 3.1 2.4 4.1 3l.2-1.6c1.1-8.7 1-19.1-.2-25.4-.6-2.7-.9-5.5-.9-8.5v-.1c.1-3.6 1.1-6.6 2.8-8.7a9.9 9.9 0 0 1 7.6-3.6h.2c5.1 0 7.9 2 9.3 3.8 2.4 2.8 3.1 6.8 2.3 11.9-.5 4.5-.8 9.1-.8 13.7 2.6.1 4.8 1.3 6.6 3.2L63 65c2.7 0 5.2 1.2 7 3.3l1.2-.2H72.1c3.7 0 8.5 2.9 10.1 11 .9 4.6.9 15.4 0 22.2a21 21 0 0 1-4.7 10.8 11 11 0 0 1-3.2 11.8c-3.3 3-8.4 4.5-15.6 4.5l-1.6-.1z"/>
    <path fill="#010101" d="M79.3 79.4c-1.1-6.2-4.6-8.7-7.4-8.4-1.3.2-2.2.5-2.8.8-1.3-2.4-3.5-3.9-5.9-3.9-1.3 0-2.4.3-3.1.7-1.3-2.4-3.4-3.8-5.8-3.8-.9 0-1.8.2-2.6.5-.1-7.3.3-14.2.8-17.5.8-4.2.2-7.4-1.6-9.4-1.5-2-3.9-2.8-6.9-2.8-2.4 0-4.2.8-5.5 2.4-2.3 2.8-2.8 7.8-1.3 14.9 1.3 6.6 1.3 17.4.3 26.3l-.6 5.8c-1.2-.5-2.7-1.1-4.2-1.9-1.6-1-3.2-2-4.6-3.2a25.6 25.6 0 0 0-5-3.5c-2-1-5.5-1.6-8.3-.3a6.9 6.9 0 0 0-3.7 4.9c-1.1 5 1.7 8.7 7.9 10.1 3.7.8 6.6 2.2 9.8 4.6 1.7 1.3 2.8 3.1 4.2 5.5 1.2 2 2.5 4.4 4.6 7.1 1 1.2 2.1 2.4 3.3 3.3-.5.9-1 2.5-1 4.5 0 4.2 5 9.3 18.9 9.3 15.4 0 16.5-7.5 16.5-9.7 0-2-.6-3.5-1.1-4.3 3.1-3 4.9-6.8 5.3-10.5.7-6.7.6-17.2-.2-21.5zm-20.6 43.1c-12.7 0-16.1-4.2-16.1-6.5 0-1.2.2-2.1.6-2.8a30 30 0 0 0 16 3.9c5.2 0 9.4-1.6 12.8-3.9.2.6.6 1.4.6 2.5-.1 1.5-1.1 6.8-13.9 6.8zm18.1-22c-1.1 10.2-11.2 13.9-17.7 13.9-9.4 0-15.1-2.4-19.7-7.9-2-2.5-3.2-4.7-4.4-6.8a19.2 19.2 0 0 0-4.8-6.3 28.8 28.8 0 0 0-10.8-5c-4.7-1.1-6.7-3.5-5.9-7.1a4 4 0 0 1 2.3-3.1 8 8 0 0 1 6.1.3c1.2.6 2.9 2 4.6 3.2a27 27 0 0 0 5 3.5c2.8 1.4 5.8 2.5 6 2.6.7.2 1.4-.2 1.6-.8l.2-.4v-.3l.6-7.1c1.2-9.2 1-20.1-.3-27-1.2-6.3-.9-10.8.8-12.8.8-.9 2-1.4 3.5-1.4 2.4 0 3.9.6 5 1.7 1.3 1.6 1.6 3.9 1.1 7.4-1 6-1.3 19.9-.1 30.4.1.7.7 1.2 1.4 1.1s1.2-.7 1.1-1.4c-.3-2.9-.6-6-.6-9.1.3-.3 1.1-.8 2.4-.8 2.1 0 3.9 1.9 4.6 5 .8 3.6 1.1 6.6 1.1 6.7 0 .6.6 1.1 1.3 1.1h.2c.8 0 1.3-.7 1.2-1.4 0-.2-.4-3.1-1.2-6.9l-.2-.8c.4-.3 1-.6 2-.6 2.1 0 3.9 1.9 4.6 4.9.8 3.7 1.1 6.7 1.1 6.7 0 .7.6 1.2 1.3 1.2h.2c.7-.1 1.2-.8 1.1-1.4 0-.2-.3-3.1-1.1-6.9l-.4-.7c.7-.4 1.4-.6 2.2-.6 1.3-.1 3.8 1.5 4.6 6.4.7 3.5.8 13.7 0 20.5z"/>
  </g>
</svg>
