<svg xmlns="http://www.w3.org/2000/svg" width="117" height="79" viewBox="0 0 248 169">
  <g fill="none" stroke="#fff" stroke-linecap="round" stroke-linejoin="round" stroke-width="7">
    <path d="M3.5 120.02c20.08 0 20.08 11.2 40.17 11.2s20.08-11.2 40.17-11.2 20.08 11.2 40.17 11.2 20.08-11.2 40.17-11.2 20.09 11.2 40.17 11.2 20.09-11.2 40.17-11.2M3.5 153.64c20.08 0 20.08 11.2 40.17 11.2s20.08-11.2 40.17-11.2 20.08 11.2 40.17 11.2 20.08-11.2 40.17-11.2 20.09 11.2 40.17 11.2 20.09-11.2 40.17-11.2"/>
    <path d="m54.99 116.61 44.99-19.54a7.32 7.32 0 0 0 2.8-11.28l-9.76-12.52a15.64 15.64 0 0 1 4.59-23.2L175.9 5.48a15.61 15.61 0 0 1 15.39 27.17L137.3 61.24a9.1 9.1 0 0 0-3.2 13.28l31.85 45.54"/>
    <circle cx="186.54" cy="81.65" r="25.88" transform="rotate(-77 186.53 81.66)"/>
  </g>
</svg>
