<?xml version="1.0" encoding="UTF-8"?><svg id="Layer_2" xmlns="http://www.w3.org/2000/svg" viewBox="0 0 22 22"><g id="Layer_1-2"><path d="M19.64,0c.65.03,1.21.26,1.67.69.43.46.65,1.02.69,1.67v17.29c-.03.66-.26,1.21-.69,1.67-.46.43-1.02.65-1.67.69h-6.73v-7.46h2.85l.54-3.54h-3.39v-2.31c-.03-.49.1-.92.39-1.28.29-.39.82-.59,1.57-.59h1.52v-3s-.31-.08-.83-.15c-.56-.07-1.18-.1-1.87-.1-1.41,0-2.52.41-3.34,1.23s-1.24,1.98-1.28,3.49v2.7h-3.09v3.54h3.09v7.46H2.36c-.66-.03-1.21-.26-1.67-.69-.43-.46-.66-1.01-.69-1.67V2.36c.03-.65.26-1.21.69-1.67C1.15.26,1.7.03,2.36,0h17.29Z" fill="#fff"/></g></svg>