<?xml version="1.0" encoding="UTF-8"?><svg id="Layer_2" xmlns="http://www.w3.org/2000/svg" viewBox="0 0 22 22"><g id="Layer_1-2"><path d="M19.64,0c.65.03,1.21.26,1.67.69.43.46.65,1.02.69,1.67v17.29c-.03.66-.26,1.21-.69,1.67-.46.43-1.02.65-1.67.69H2.36c-.66-.03-1.21-.26-1.67-.69-.43-.46-.66-1.01-.69-1.67V2.36c.03-.65.26-1.21.69-1.67C1.15.26,1.7.03,2.36,0h17.29ZM18.81,14.24c.03-.46.05-1.11.05-1.96v-2.55c0-.85-.02-1.51-.05-1.96,0-1.28-.43-2.37-1.28-3.29-.92-.85-2.01-1.28-3.29-1.28-.46-.03-1.11-.05-1.96-.05h-2.55c-.85,0-1.51.02-1.96.05-1.28,0-2.37.43-3.29,1.28-.85.92-1.28,2.01-1.28,3.29-.03.46-.05,1.11-.05,1.96v2.55c0,.85.02,1.51.05,1.96,0,1.28.43,2.37,1.28,3.29.92.85,2.01,1.28,3.29,1.28.46.03,1.11.05,1.96.05h2.55c.85,0,1.51-.02,1.96-.05,1.28,0,2.37-.43,3.29-1.28.85-.92,1.28-2.01,1.28-3.29ZM17.14,6.38c.16.46.26,1.08.29,1.87.03.79.03,1.52,0,2.21v1.08c.03.69.03,1.42,0,2.21-.03.79-.13,1.41-.29,1.87-.29.72-.8,1.23-1.52,1.52-.46.16-1.08.26-1.87.29-.79.03-1.52.03-2.21,0h-1.08c-.66.03-1.39.03-2.21,0-.79-.03-1.41-.13-1.87-.29-.72-.29-1.23-.8-1.52-1.52-.16-.46-.26-1.1-.29-1.92-.03-.79-.03-1.51,0-2.16v-1.08c-.03-.65-.03-1.39,0-2.21.03-.79.13-1.41.29-1.87.29-.72.8-1.23,1.52-1.52.46-.16,1.08-.26,1.87-.29.79-.03,1.52-.03,2.21,0h1.08c.65-.03,1.39-.03,2.21,0,.79.03,1.41.13,1.87.29.72.29,1.23.8,1.52,1.52ZM11,15.03c1.15-.03,2.09-.43,2.85-1.18s1.15-1.7,1.18-2.85c0-.72-.18-1.39-.54-2.01-.88-1.34-2.05-2.01-3.49-2.01s-2.6.67-3.49,2.01c-.72,1.44-.72,2.78,0,4.03.72,1.24,1.88,1.92,3.49,2.01ZM11,8.4c.75,0,1.38.25,1.87.74s.74,1.11.74,1.87c0,.46-.11.9-.34,1.33-.56.85-1.31,1.28-2.26,1.28s-1.7-.43-2.26-1.28c-.49-.95-.49-1.83,0-2.65.46-.82,1.21-1.24,2.26-1.28ZM15.17,7.76c.59-.07.92-.38.98-.93-.03-.2-.08-.36-.15-.49-.2-.33-.47-.49-.83-.49-.33,0-.59.16-.79.49-.16.33-.16.64,0,.93.16.29.43.46.79.49Z" fill="#fff"/></g></svg>