<?xml version="1.0" encoding="UTF-8"?><svg id="Layer_2" xmlns="http://www.w3.org/2000/svg" viewBox="0 0 800 486.56"><g id="Layer_1-2"><path d="M389.55,253.58c.71.13,1.42.26,2.12.39l-2.12-.39ZM395.34,254.55c.82.12,1.65.23,2.47.34l-2.47-.34ZM401.45,255.28c.8.07,1.6.14,2.41.2l-2.41-.2ZM404.72,255.54c.68.05,1.36.09,2.04.13l-2.04-.13ZM407.75,255.72c.8.04,1.61.07,2.41.09l-2.41-.09ZM410.96,255.82c1.8.05,3.6.05,5.39,0h-5.39ZM417.22,255.81c.84-.03,1.68-.06,2.51-.1l-2.51.1ZM420.52,255.68c.73-.04,1.44-.09,2.16-.13l-2.16.13ZM423.43,255.49c.79-.06,1.57-.13,2.35-.2l-2.35.2ZM429.82,254.84c.61-.07,1.21-.15,1.81-.24l-1.81.24ZM540.22,51.77c-.65-.35-1.32-.67-2-.96l2,.96ZM533.66,49.41c-.84-.17-1.68-.3-2.53-.39l2.53.39ZM690.81,172.13l-.46.06.46-.06ZM104.19,136.48c-2.91-2.67-5.13-6.02-6.45-9.74-1.07-3.11-2.47-7-2.47-10.3.07-14.88,8.76-25.94,18.11-31.06,4.25-2.32,5.83-3.92,6.48-4.74-.31-.14-.64-.22-.98-.25-12.73,0-19.26-4.95-22.46-9.13-3.04-3.92-4.59-8.98-4.59-14.5,0-2.69.38-5.5,1.12-8.37,3.59-5.93,6.99-4.3,9.08-1.27,1.33,1.9,10.44,8.36,21.67,9.38,8.17.78,12.57,4.77,14.87,7.97,2.64,3.7,3.65,8.15,3.65,11.94,0,1.55-.18,3.01-.51,4.3-1.23,4.99-6.49,9.49-13.82,15.23l-4.16,3.45c-6.08,5.32-9.43,11.25-9.43,16.27,0,1.25.22,2.48.64,3.61.18.46.39.91.63,1.33,2.72,4.6,10.4,7.49,21.55,3.59,5.15-1.79,15.07-8.03,21.12-14.03,7.13-7.11,16.64-8.81,25.79-9.54,7.94-.6,12.83-2.55,16.27-6.42,10.18-11.47,19.97-13.08,29.13-13.76,3.51-.27,3.7-.52,4.15-1.14,5.05-6.73,10.24-10.29,14.9-12.36,3.55-1.58,6.79-2.3,9.45-2.88l3.22-.79.8-.28c5.1-1.64,9.05-3,19.43-10.02l.44-.28h0s.44-.28.44-.28h0s.44-.26.44-.26h0s.44-.25.44-.25h0s.44-.23.44-.23h.01s.44-.23.44-.23h.01s.44-.22.44-.22h.02s.44-.21.44-.21h.02s.44-.19.44-.19h.02s.44-.19.44-.19h.02s.44-.17.44-.17h.02s.44-.17.44-.17l.47-.16h.03s.44-.15.44-.15h.03s.44-.13.44-.13h.03s.44-.13.44-.13h.03s.44-.11.44-.11h.04s.43-.11.43-.11h.04s.44-.1.44-.1h.04s.44-.09.44-.09h.04s.44-.08.44-.08h.04s.43-.07.43-.07h.04s.44-.06.44-.06h.04s.43-.06.43-.06h.05s.43-.04.43-.04h.05s.43-.04.43-.04h.05s.42-.03.42-.03h.05s.43-.02.43-.02h.48s.05-.01.05-.01h.43s.53,0,.53,0h.42s.05,0,.05,0h.05c.3,0,.61.03.91.04l.42.03h.06s.41.04.41.04h.06s.41.04.41.04h.06s.41.05.41.05h.07s.4.05.4.05h.06s.4.06.4.06h.07s.4.07.4.07h.07s.4.07.4.07h.07s.39.08.39.08h.07s.39.08.39.08l.07.02c.62.12,1.23.25,1.83.4l.38.09.08.02c.6.16,1.2.32,1.79.5l.35.11.09.03c1.16.37,2.29.78,3.39,1.22l.31.13.4.17C332.82,22.02,367.92,1.96,407.8.14h0c1.96-.1,3.93-.14,5.89-.14,1.3,0,2.6.02,3.9.06.65.02,1.29.05,1.94.07h0c.64.03,1.28.06,1.93.1,38.6,2.32,72.59,21.76,94.48,50.82,3.13-1.09,6.53-1.87,10.01-2.11h.09s.33-.03.33-.03l.34-.02h.08s.09,0,.09,0h.34s.09-.01.09-.01h.34s.09,0,.09,0h.34s.08,0,.08,0h.34s.09,0,.09,0h.42s.35.02.35.02h.08s.35.02.35.02h.08s.35.03.35.03h.07s.35.03.35.03h.07s.35.04.35.04h.06c.85.09,1.7.22,2.53.4l.37.08h.05s.37.1.37.1h.05s.37.1.37.1h.05s.37.11.37.11h.04s.38.12.38.12h.04s.37.13.37.13h.04s.38.14.38.14h.03s.41.15.41.15l.39.14h.02s.38.16.38.16h.02s.39.17.39.17h.02c.67.3,1.34.61,2,.97h.01s.39.22.39.22h0s.39.23.39.23h0s.39.24.39.24h0s.39.25.39.25h0s.39.25.39.25c7.15,4.86,11.28,7,14.81,8.4,1.59.63,3.06,1.11,4.62,1.62l.82.28,3.26.79c1.77.39,3.78.84,5.97,1.55,5.46,1.78,11.99,5.23,18.33,13.69.46.62.66.87,4.19,1.14,9.16.68,18.93,2.29,29.15,13.76,3.42,3.87,8.28,5.82,16.22,6.42,9.21.72,18.69,2.43,25.8,9.54,6.06,6,15.97,12.25,21.13,14.03,11.14,3.9,18.86,1.01,21.52-3.59.58-.97.97-2.04,1.17-3.17.1-.59.16-1.18.16-1.77,0-5.02-3.35-10.95-9.42-16.27l-.75-.63-3.44-2.82c-7.3-5.73-12.56-10.23-13.83-15.23-.33-1.29-.48-2.75-.48-4.3,0-3.79,1.04-8.24,3.63-11.94,2.31-3.19,6.76-7.19,14.88-7.97,11.29-1.02,20.35-7.48,21.68-9.38,2.12-3.03,5.5-4.66,9.07,1.27.76,2.88,1.14,5.69,1.14,8.37,0,5.56-1.55,10.58-4.58,14.5-3.23,4.19-9.73,9.13-22.48,9.13-.27,0-.65.13-.96.25.63.82,2.21,2.42,6.47,4.74,9.35,5.12,18.05,16.18,18.13,31.06,0,3.3-1.37,7.19-2.48,10.3-1.16,3.27-3,6.25-5.4,8.75-.32.34-.66.67-1.02.99-5.27,4.89-14.04,8.73-28.66,7.86-1.54-.09-3.08-.23-4.61-.42-.38,7.38-2.4,16.14-5.25,20.57-.87,1.39-1.04,2.32-1.04,2.78,0,.19.02.3.02.38.09.03,6.49,3.81,6.49,3.81l1.03.52s.6.28.68.35c.09-.03,2.21-.13,2.21-.13l.42-.06h.04c4-.39,10.11-2.34,12.7,4.91.68,1.92,1.09,3.6,1.48,5.08.79,3.03,1.47,5.29,4.13,7.33,0,0,1.31-1.13,2.8-2.45,1.15-1.02,2.28-2.06,3.39-3.13,1.85-1.9,5.27-.93,7.74,0,2.5.95,5.59,3.1,7.77,4.34,2.2,1.23,3.41,2.8,4.04,4.66.66,1.86,2.19,3.1,4.51,4.33,2.25,1.28,5.47,5.37,5.47,10.9,0,.85.09,1.57.33,2.34.16.51.39,1.04.69,1.64,3.14,6.33.62,9.52-1.2,10.87-2.45,1.83-6.76,2.59-10.82,1.93l.03,1.04-5.92-.79c-2.3-.29-5.32.3-7.13.68l-.43.11c-4.22.84-9.73-.59-12.83-5.62-.11-.19-.23-.37-.33-.57-1.58-2.78-4.04-5.35-5.25-6.06-1.74.48-4.49,1.13-7.76.79-3.03-.31-6.53-1.47-10.09-4.42-.59-.49-1.18-1.03-1.77-1.62-5.23-5.25-12.13-6.32-16.47-5.66l-2.59.46c-5.34.97-12.01,2.2-18.17-1.56-1.53-.93-3.74-1.9-5.91-2.81-5.59-2.43-11.37-4.95-12.16-10.24-.13-.94-1.15-2.67-1.99-4.04-.74-1.21-1.54-2.54-2.17-3.96-.6-1.36-1.03-2.8-1.07-4.31-1.83.47-3.72.66-5.61.57-.67-.03-1.33-.1-1.99-.2l-2.43-.38c-4.09-.7-12.66-2.11-15.39-1.11-5.43,1.96-22.53,2.91-27.22,1.83,0,0-1.73-.38-3.35-.72-1.56,1.61-3.3,3.12-5.13,4.47,3.43.19,6.45-.24,8.52.3l4.31,1.14c1.37-.41,4.74-.36,6.65-.19l5.05.38,5.76.55c2.77.56,5.72,1.75,5.21,7.19-.19,1.68-1.13,4.04-2.54,5.44-.78.85-3.78,5.21-4.44,6.59l-.22.43c-1.17,2.5-2.91,4.79-7.97,4.79-.64,0-1.28.02-1.92.08-.15.41-.57,1.17-.57,1.17-1.14,2.59-2.78,6.19-5.93,8.28l-.84.6c-2.52,1.8-6.73,4.77-13.16,2.43l-2.21-.79c-5.61-2.02-14.09-5.05-18.37-7.39l-.6-.33c-3.99-2.18-4.87-2.62-6.32-2.42l-.8.13c-3.06.43-8.82,1.2-12.81-5.4l-.36-.57c-18.9,25.94-47.3,44.5-80.08,50.56l-.14.03c-1.12.2-2.24.39-3.37.57l-.42.06-1.54.23c-.6.09-1.2.17-1.81.25l-1.1.14-1.73.19-1.2.13c-.78.07-1.57.14-2.35.2l-.75.05c-.72.05-1.44.1-2.16.13l-.79.04c-.84.04-1.67.07-2.51.1h-.85c-1.8.06-3.6.06-5.39,0h-.8c-.8-.04-1.61-.07-2.41-.1l-.98-.05c-.68-.04-1.36-.07-2.04-.13l-.86-.06c-.8-.06-1.61-.13-2.41-.2l-1.19-.12-1.57-.17-.88-.1c-.83-.1-1.65-.22-2.47-.34l-1-.15-1.76-.27-.91-.15c-.71-.13-1.42-.25-2.12-.39l-1.53-.31-.78-.16c-1.04-.23-2.09-.45-3.13-.7l-.27-.06-1.63-.4-.84-.22c-.97-.25-1.94-.52-2.91-.79l-.35-.1c-28.74-8.29-53.3-26.39-69.86-50.43l-2.18,3.32c-3.95,6.61-9.7,5.83-12.8,5.4l-.8-.13c-1.44-.2-2.36.23-6.31,2.42l-.63.33c-4.27,2.34-12.71,5.37-18.35,7.39l-2.22.79c-6.43,2.34-10.65-.64-13.12-2.43l-.87-.6c-3.14-2.08-4.77-5.69-5.93-8.28,0,0-.38-.76-.56-1.17-.64-.06-1.28-.08-1.93-.08-5.01,0-6.8-2.29-7.95-4.79l-.2-.43c-.68-1.37-3.65-5.73-4.47-6.59-1.39-1.39-2.38-3.76-2.53-5.44-.52-5.43,2.46-6.63,5.21-7.19l5.76-.55,5.05-.38c1.88-.17,5.24-.22,6.62.19l4.31-1.14c2.05-.53,5.1-.11,8.5-.3-1.81-1.37-3.52-2.86-5.12-4.47-1.64.35-3.35.72-3.35.72-4.7,1.07-21.77.13-27.17-1.83-2.74-1-11.31.41-15.42,1.11l-2.47.38c-2.52.39-5.08.26-7.55-.38-.13,3.09-1.81,5.9-3.24,8.28-.84,1.37-1.89,3.1-2.02,4.04-.74,5.29-6.59,7.8-12.17,10.24-2.17.92-4.34,1.88-5.89,2.81-6.11,3.76-12.81,2.53-18.17,1.56l-2.59-.46c-4.31-.66-11.22.41-16.46,5.66-8.01,8-15.99,6.24-19.62,5.24-1.2.71-3.68,3.29-5.25,6.06-3.03,5.5-8.81,7.06-13.17,6.19l-.44-.11c-1.79-.38-4.78-.96-7.07-.68l-5.96.79.06-1.04c-4.08.66-8.41-.1-10.86-1.93-1.81-1.34-4.34-4.53-1.14-10.87.74-1.52.99-2.57.99-3.98,0-5.53,3.2-9.62,5.44-10.9,2.35-1.23,3.9-2.47,4.53-4.33.62-1.87,1.83-3.43,4.03-4.66,2.18-1.24,5.27-3.4,7.76-4.34,2.48-.93,5.9-1.9,7.77,0,1.88,1.83,6.19,5.58,6.19,5.58,3.95-3.05,3.58-6.57,5.62-12.42,2.56-7.25,8.69-5.29,12.67-4.91l.46.06s2.15.09,2.21.13c.11-.06.71-.35.71-.35l1-.52s6.43-3.77,6.49-3.81c.03-.08.03-.19.03-.38,0-.46-.16-1.39-1.02-2.78-2.86-4.43-4.88-13.19-5.25-20.57-1.03.12-2.03.22-3.01.3-15.57,1.25-24.82-2.69-30.23-7.76h0Z" fill="#f8ee3f"/><path d="M142.51,138.54s-1.3,12.55,4.36,23.62c0,0,4.19,5.94-.16,9.75l-8.66,5.04s-1.16.87-5.03.57c0,0-5.34-1.32-7.13,1.04,0,0-1.55,4.54-3.49,8.28,0,0-3.94,9.06-10.47,11.97,0,0-5.2,1.19-6.78,5.71,0,0-1.68,3.17-5.04,3.31,0,0-2.51.8-4.16,6.38,0,0-.9,3.61-.86,6.38,0,0,4.27-.56,7.06.45,0,0,6.85,2.3,9.91-3.34,0,0,5.92-10.13,10.3-8.61,0,0,8.81,2.95,15.04-3.48,0,0,8.55-9.34,20.63-7.42,0,0,13.6,2.75,17.84-.38,0,0,8.58-4.48,11.8-5.6,0,0,3.94-1.16,4.34-5.47,0,0,2.39-6.06,4.14-8.09l-6.49-.07s-5.88,9.88-15.86,12.86c0,0-5.46,2.18-16.42.41,0,0-15.73-3.56-29.55,11.36,0,0-1.89,2.73-4.58,1.64,0,0,7.64-13.02,24.4-16.11,0,0,5.49-1.17,10.06-.42,0,0,22.58.66,33.05-21.57,0,0-1.13-18.95,3.87-23.44,0,0,1.93-.59,1.55,3.07,0,0-3.44,19.86,3.02,23.7,0,0,3.75,2.94,10.68,1.86,0,0,10.51-2.51,19.05-1.05,0,0,13.13,3.12,24.42,1.68,0,0-2.93-4.49-2.35-9.85,0,0,1.62-3.84,3.47-1.37,0,0,4.34,14.34,16.21,18.65,0,0,10.6,3.86,10.43,17.3,0,0-1.62,1.84-15.68,6.84,0,0-5.25,1.66-6.94-2.26,0,0-6.78-14.51-12.68-14.06l-11.08.9s-3.78.97-1,4c0,0,3.79,5.04,5.34,8.05,0,0,.45,2.57,4.02,2.03,0,0,4.94-2.45,7.73,6.75,0,0,2.55,4.6,6.87,6.07,0,0,4.04,1.35,7.83-.78,0,0,18.29-6.72,21.48-9.1,0,0,3.96-2.21,7.09-1.15,0,0,5.49,1.31,7.75-3.02l5.67-8.77s1.24-2.16,1.07-4.87c0,0,.51-2.69-1.75-5.42,0,0-2.14-2.26-2.48-3.9l-4.04-9.5s-1.64-2.54-3.44-3.58l-5.4.4s3.71,9.49,6.43,13.36c0,0,3.68,5.63,3.49,9.21,0,0-.24,2.51-1.23,3.55,0,0-1.24,1.99-1.75,2.96,0,0-1.64,3.55-2.96,4.34,0,0-2.3,1.36-2.85,1.41,0,0-1,.28-.26-1.51,0,0,3.02-6.36,2.83-9.77,0,0,.59-3.54-1.92-5.62,0,0-5.88-9.28-6.72-12.05,0,0-1.84-3.71-2.83-4.35,0,0-2.05-2.7,1.26-3.96,0,0,8.26-1.86,9.74-2.88,0,0,3.97-1.2,6.55-9.47,0,0,3.55-9.65,3.5-15.6,0,0,6.96,13.42-4.14,27.07,0,0,8.79,2.59,12.42,0,0,0,10.94-1.6,13.06-2.18,0,0,2.75-.66,1.18,1.29,0,0-3.3,4.69-3.58,7.77,0,0-.21,2.45-2.22,3.88,0,0-6.22,4.36-6.77,8.53,0,0-1.33,4.02,1.42,3.05,0,0,3.72-1.73,5.04.01,0,0,.39.18-1.05,1.79,0,0-3.74,3.25-4.02,7.61,0,0,.69,5.04,2.01,6.65,0,0,1.68,2.33,4.34,1.59,0,0,.71-.57,1.98-.19,0,0,1.32,0,4.75-1.19,0,0,5.21-1.43,6.95-2.05,0,0,6.63-2.37,9.9-2.21,0,0,2.13-.23,4.84.31,0,0,8.29.94,13.82-5.17,0,0,4.21-3.33,5.63-.1,0,0,10.09,13.54,26.42,9.97,0,0-12.99-5.34-16.36-12.62,0,0-.45-6.18-7.26-14.76,0,0-2.08-2.85-.07-3.59,0,0,1.16-.87,3.7,1.68,0,0,6.46,6.2,8.8,11.88,0,0,8.03,12.13,19.6,8.06,0,0-9.08-3.5-13.35-10.04,0,0-2.64-8.85-11.51-15.43,0,0-.35-9.94-4.48-15.53,0,0-2.11-9.34-2.68-11.52,0,0-2.23-8.2-2.22-10.46,0,0,.74-10.71-6.17-19.05,0,0-4.63-8.92-11.83-15.13,0,0-5.48-6.77-9.55-10.91,0,0-5.36-6.28-17.04-14.48,0,0-5.29-3.85-9.16-7.98,0,0-20.6-14.83-35.49-2.93,0,0-10.28,6.99-18.86,9.16,0,0-17.64,2.05-25.17,14.3,0,0-.64,2.26-7.75,3.12,0,0-15.62-1.89-27.12,13.48,0,0-5.34,5.22-15.92,6.48,0,0-17.25-1.77-28.48,11.46,0,0-28.34,24.72-45.24,8.69,0,0-8.76-8.29,1.25-23.3,0,0,6.35-7.66,17.18-15.67,0,0,8.79-6.19,4.76-15.81,0,0-2.13-9.3-15.3-9.55,0,0-16.52-3.19-23.21-11.54,0,0-7.46,26.28,21.82,25.84,0,0,7.63,1.13,4.97,7.19,0,0-3.74,5.18-8.76,7.07,0,0-8.83,3.86-12.83,16.73,0,0-8.92,22.52,12.84,31.21,8.38,2.89,18.05,2.04,26.67.54h0ZM100.6,191.61c1.18-.99,2.91-1.54,4.45-1.18,3.46.75,1.37,3.75,1.37,3.75-1.4,2.62-5.98,7.05-5.98,7.05-4.07,3.05-7.3-.58-7.3-.58-3.02-2.97.91-4.41.91-4.41,2.28-.93,6.56-4.62,6.56-4.62ZM91.87,205.68s1.27.93.59,2.78c0,0-3.23,8.85-3.08,11.82,0,0-7.15,1.28-8.15-2.25,0,0-.19-1.36.97-3.34,0,0,1.21-1.84,1.53-5.22,0,0-.11-8.49,5.39-6.24,1.09.61,1.95,1.5,2.74,2.45h0ZM344,187.73c-1.26-.03-1.58-.49-1.43-1.88.84-3.85,3.94-5.52,3.94-5.52,5.8-3.46,6.5,0,6.5,0,1.06,6.19-3.83,6.97-3.83,6.97-.98.34-5.18.43-5.18.43ZM361.49,160.09c.11-2.9.35-9.36-2.6-11.66-1.09-.87-5.4-5.58-5.4-5.58-.66-1.14-1.16-1.21-1.16-1.21-.89-.09-2.03,1.98-2.03,1.98-3.07,5.92-6.13,5.2-6.13,5.2-.03-1.08.7-2.28.7-2.28,1.48-2.88,2.95-5.76,4.4-8.65.45-1.03.86-2.39.86-2.39,2.96-4.59,5.75-1.1,5.75-1.1,1.24,2.43,7.88,10.35,7.88,10.35,1.47,1.75,1.61,3.63,1.61,3.63,1.54,10.85-3.89,11.72-3.89,11.72h0ZM300.36,94.62c-.91-1.63-.53-3.29.38-4.88,2.05-3.15,3.97.29,3.97.29,7.09,9.89,1.86,24.69,1.86,24.69-.73-13.62-6.21-20.1-6.21-20.1h0ZM681.14,138.54s1.3,12.55-4.36,23.62c0,0-4.19,5.94.16,9.75l8.67,5.04s1.16.87,5.03.57c0,0,5.34-1.32,7.12,1.04,0,0,1.55,4.54,3.49,8.28,0,0,3.95,9.06,10.48,11.97,0,0,5.2,1.19,6.77,5.71,0,0,1.68,3.17,5.04,3.31,0,0,2.51.8,4.17,6.38,0,0,.91,3.61.86,6.38,0,0-4.28-.56-7.06.45,0,0-6.85,2.3-9.91-3.34,0,0-5.92-10.13-10.3-8.61,0,0-8.81,2.95-15.04-3.48,0,0-8.55-9.34-20.63-7.42,0,0-13.6,2.75-17.84-.38,0,0-8.58-4.48-11.8-5.6,0,0-3.94-1.16-4.34-5.47,0,0-2.4-6.06-4.14-8.09l6.49-.07s5.87,9.88,15.86,12.86c0,0,5.46,2.18,16.42.41,0,0,15.74-3.56,29.56,11.36,0,0,1.89,2.73,4.58,1.64,0,0-7.63-13.02-24.4-16.11,0,0-5.49-1.17-10.07-.42,0,0-22.58.66-33.06-21.57,0,0,1.14-18.95-3.86-23.44,0,0-1.93-.59-1.55,3.07,0,0,3.43,19.86-3.01,23.7,0,0-3.75,2.94-10.68,1.86,0,0-10.5-2.51-19.04-1.05,0,0-13.14,3.12-24.42,1.68,0,0,2.93-4.49,2.36-9.85,0,0-1.62-3.84-3.47-1.37,0,0-4.34,14.34-16.21,18.65,0,0-10.6,3.86-10.43,17.3,0,0,1.63,1.84,15.68,6.84,0,0,5.25,1.66,6.95-2.26,0,0,6.77-14.51,12.67-14.06l11.08.9s3.78.97.99,4c0,0-3.79,5.04-5.34,8.05,0,0-.45,2.57-4.01,2.03,0,0-4.94-2.45-7.74,6.75,0,0-2.55,4.6-6.86,6.07,0,0-4.04,1.35-7.83-.78,0,0-18.29-6.72-21.48-9.1,0,0-3.96-2.21-7.09-1.15,0,0-5.48,1.31-7.74-3.02l-5.67-8.77s-1.25-2.16-1.07-4.87c0,0-.52-2.69,1.75-5.42,0,0,2.14-2.26,2.48-3.9l4.04-9.5s1.64-2.54,3.43-3.58l5.4.4s-3.72,9.49-6.44,13.36c0,0-3.68,5.63-3.49,9.21,0,0,.25,2.51,1.23,3.55,0,0,1.24,1.99,1.75,2.96,0,0,1.63,3.55,2.96,4.34,0,0,2.29,1.36,2.85,1.41,0,0,1,.28.25-1.51,0,0-3.01-6.36-2.82-9.77,0,0-.58-3.54,1.92-5.62,0,0,5.88-9.28,6.73-12.05,0,0,1.84-3.71,2.82-4.35,0,0,2.05-2.7-1.26-3.96,0,0-8.26-1.86-9.74-2.88,0,0-3.97-1.2-6.55-9.47,0,0-3.55-9.65-3.5-15.6,0,0-6.96,13.42,4.14,27.07,0,0-8.79,2.59-12.42,0,0,0-10.94-1.6-13.06-2.18,0,0-2.74-.66-1.18,1.29,0,0,3.3,4.69,3.58,7.77,0,0,.21,2.45,2.22,3.88,0,0,6.22,4.36,6.76,8.53,0,0,1.33,4.02-1.42,3.05,0,0-3.72-1.73-5.04.01,0,0-.39.18,1.05,1.79,0,0,3.74,3.25,4.01,7.61,0,0-.69,5.04-2.01,6.65,0,0-1.68,2.33-4.34,1.59,0,0-.7-.57-1.98-.19,0,0-1.31,0-4.75-1.19,0,0-5.21-1.43-6.95-2.05,0,0-6.63-2.37-9.9-2.21,0,0-2.13-.23-4.84.31,0,0-8.29.94-13.82-5.17,0,0-4.21-3.33-5.63-.1,0,0-10.09,13.54-26.42,9.97,0,0,13-5.34,16.37-12.62,0,0,.44-6.18,7.25-14.76,0,0,2.08-2.85.07-3.59,0,0-1.16-.87-3.7,1.68,0,0-6.46,6.2-8.8,11.88,0,0-8.03,12.13-19.6,8.06,0,0,9.08-3.5,13.35-10.04,0,0,2.64-8.85,11.51-15.43,0,0,.35-9.94,4.48-15.53,0,0,2.11-9.34,2.67-11.52,0,0,2.23-8.2,2.21-10.46,0,0-.74-10.71,6.17-19.05,0,0,4.62-8.92,11.84-15.13,0,0,5.47-6.77,9.54-10.91,0,0,5.36-6.28,17.04-14.48,0,0,5.29-3.85,9.16-7.98,0,0,20.6-14.83,35.49-2.93,0,0,10.28,6.99,18.87,9.16,0,0,17.64,2.05,25.16,14.3,0,0,.64,2.26,7.75,3.12,0,0,15.62-1.89,27.12,13.48,0,0,5.34,5.22,15.92,6.48,0,0,17.24-1.77,28.47,11.46,0,0,28.34,24.72,45.24,8.69,0,0,8.75-8.29-1.26-23.3,0,0-6.35-7.66-17.18-15.67,0,0-8.79-6.19-4.76-15.81,0,0,2.13-9.3,15.3-9.55,0,0,16.52-3.19,23.2-11.54,0,0,7.47,26.28-21.82,25.84,0,0-7.63,1.13-4.97,7.19,0,0,3.74,5.18,8.76,7.07,0,0,8.83,3.86,12.83,16.73,0,0,8.92,22.52-12.85,31.21-8.37,2.89-18.04,2.04-26.66.54h0ZM723.05,191.61c-1.18-.99-2.91-1.54-4.44-1.18-3.47.75-1.37,3.75-1.37,3.75,1.41,2.62,5.98,7.05,5.98,7.05,4.08,3.05,7.3-.58,7.3-.58,3.01-2.97-.92-4.41-.92-4.41-2.28-.93-6.55-4.62-6.55-4.62ZM731.77,205.68s-1.26.93-.59,2.78c0,0,3.23,8.85,3.08,11.82,0,0,7.16,1.28,8.14-2.25,0,0,.19-1.36-.97-3.34,0,0-1.21-1.84-1.53-5.22,0,0,.11-8.49-5.39-6.24-1.09.61-1.95,1.5-2.75,2.45h0ZM479.64,187.73c1.26-.03,1.59-.49,1.43-1.88-.85-3.85-3.93-5.52-3.93-5.52-5.8-3.46-6.51,0-6.51,0-1.06,6.19,3.83,6.97,3.83,6.97.98.34,5.18.43,5.18.43h0ZM462.15,160.09c-.11-2.9-.36-9.36,2.6-11.66,1.09-.87,5.4-5.58,5.4-5.58.66-1.14,1.16-1.21,1.16-1.21.88-.09,2.04,1.98,2.04,1.98,3.06,5.92,6.13,5.2,6.13,5.2.02-1.08-.7-2.28-.7-2.28-1.48-2.87-2.95-5.76-4.4-8.65-.32-.78-.61-1.58-.86-2.39-2.96-4.59-5.75-1.1-5.75-1.1-1.24,2.43-7.88,10.35-7.88,10.35-.88,1.03-1.44,2.29-1.62,3.63-1.53,10.85,3.89,11.72,3.89,11.72h0ZM523.28,94.62c.91-1.63.53-3.29-.38-4.88-2.05-3.15-3.97.29-3.97.29-7.09,9.89-1.86,24.69-1.86,24.69.72-13.62,6.2-20.1,6.2-20.1h0Z" fill="#cc2729"/><path d="M0,299.5v181.36h36.6v-146.75h17.24s26.91-1.21,26.91,23.29-23.9,23.89-23.9,23.89h-8.77v41.74l36.6,57.83h42.94l-51.11-74.15s42.04-3.63,42.04-49.3-31.76-57.9-74.1-57.9H0ZM535.05,384.33s16.02-12.47,16.02-36.09-17.17-44.94-53.72-44.94h-61.21v177.56h75.4s54.04-.61,54.04-49.45c0-28.35-11-39.21-30.53-47.09ZM505.56,449.96h-32.81v-115.7h17.54s23.83-1.79,23.83,19-18.96,18.96-18.96,18.96h-10.92v31.17h21.31c5.59,0,23.39,2.71,23.39,23.19,0,20.48-23.38,23.37-23.38,23.37h0ZM765.82,295.94h34.18v184.93h-34.18v-184.93h0ZM707,295.94h34.63v184.93h-34.63v-184.93h0ZM575.88,372.53h35.08v62s1.22,20.88,20.87,20.88,19.36-20.88,19.36-20.88v-61.71h35.38v63.83s4.54,49.9-53.84,49.9-56.86-43.86-56.86-51.72v-62.31h0ZM343.29,295.94v83.86s-16.94-13-36.31-13-52.01,13.61-52.01,56.55,27.83,59.29,51.72,59.29,37.21-15.73,37.21-15.73v13.97h34.47v-184.93h-35.08s0,0,0,0ZM316.67,452.38c-1.82,0-24.5.31-24.5-27.52s24.8-28.74,24.8-28.74c0,0,27.83.91,27.83,28.13s-26.32,28.13-28.13,28.13ZM186.01,366.79c58.68,0,56.26,57.17,56.26,57.17v9.07h-79.54c0,13,10.89,24.2,25.71,24.2s22.38-14.21,22.38-14.21l28.12,13.91c-13,19.67-30.54,27.52-50.2,27.52-61.1,0-62.31-50.81-62.31-57.16s.91-60.49,59.58-60.49h0ZM163.32,412.15h43.56s-1.81-20.56-21.47-20.56c-19.66,0-22.09,20.56-22.09,20.56Z" fill="#cc2729"/></g></svg>