<svg xmlns="http://www.w3.org/2000/svg" xmlns:xlink="http://www.w3.org/1999/xlink" width="473" height="289" viewBox="0 0 473 289">
  <defs>
    <linearGradient id="linear-gradient" x1="251.6" x2="188.6" y1="307.9" y2="198.8" gradientTransform="translate(-6.53 -6.7) rotate(-.43)" gradientUnits="userSpaceOnUse">
      <stop offset="0" stop-color="#ccc"/>
      <stop offset=".5" stop-color="#d9d9d9"/>
    </linearGradient>
    <linearGradient id="linear-gradient-2" x1="75.6" x2="43.2" y1="226.2" y2="170.1" gradientTransform="translate(-6.53 -6.7) rotate(-.43)" gradientUnits="userSpaceOnUse">
      <stop offset="0" stop-color="#d9d9d9"/>
      <stop offset="1" stop-color="#f2f2f2"/>
    </linearGradient>
    <linearGradient id="linear-gradient-3" x1="368" x2="238.9" y1="156.8" y2="156.8" gradientTransform="translate(457.96 -10.15) rotate(179.57) scale(1 -1)" gradientUnits="userSpaceOnUse">
      <stop offset="0" stop-color="#eef4cf"/>
      <stop offset="1" stop-color="#cacc72"/>
    </linearGradient>
    <linearGradient id="linear-gradient-4" x1="436.3" x2="364.1" y1="176" y2="176" gradientTransform="translate(457.96 -10.15) rotate(179.57) scale(1 -1)" gradientUnits="userSpaceOnUse">
      <stop offset="0" stop-color="#a8b149"/>
      <stop offset=".7" stop-color="#919c40"/>
      <stop offset="1" stop-color="#808941"/>
    </linearGradient>
    <linearGradient id="linear-gradient-5" x1="337.6" x2="337.6" y1="168.1" y2="106.3" gradientTransform="translate(457.96 -10.15) rotate(179.57) scale(1 -1)" gradientUnits="userSpaceOnUse">
      <stop offset="0" stop-color="#bbbe61"/>
      <stop offset="1" stop-color="#959e49"/>
    </linearGradient>
    <linearGradient id="linear-gradient-6" x1="338.6" x2="338.6" y1="105.6" y2="165.5" gradientTransform="translate(457.96 -10.15) rotate(179.57) scale(1 -1)" gradientUnits="userSpaceOnUse">
      <stop offset="0" stop-color="#808443"/>
      <stop offset=".8" stop-color="#616639"/>
      <stop offset="1" stop-color="#969a4b"/>
    </linearGradient>
    <linearGradient id="linear-gradient-7" x1="416.8" x2="313.1" y1="175.8" y2="175.8" gradientTransform="translate(457.96 -10.15) rotate(179.57) scale(1 -1)" gradientUnits="userSpaceOnUse">
      <stop offset="0" stop-color="#6f7c35"/>
      <stop offset=".5" stop-color="#6f7c35"/>
      <stop offset=".5" stop-color="#738038"/>
      <stop offset=".6" stop-color="#8a9949"/>
      <stop offset=".7" stop-color="#9aaa55"/>
      <stop offset=".8" stop-color="#a3b45c"/>
      <stop offset="1" stop-color="#a7b85f"/>
    </linearGradient>
    <linearGradient id="linear-gradient-8" x1="337.3" x2="337.3" y1="159.8" y2="86" gradientTransform="translate(457.96 -10.15) rotate(179.57) scale(1 -1)" gradientUnits="userSpaceOnUse">
      <stop offset="0" stop-color="#d7dc90"/>
      <stop offset="1" stop-color="#a6a65b"/>
    </linearGradient>
    <linearGradient id="linear-gradient-9" x1="306.9" x2="294.1" y1="138.7" y2="161" gradientTransform="translate(457.96 -10.15) rotate(179.57) scale(1 -1)" gradientUnits="userSpaceOnUse">
      <stop offset="0" stop-color="#fff"/>
      <stop offset="1" stop-color="#ece8d5"/>
    </linearGradient>
    <linearGradient id="linear-gradient-10" x1="240.5" x2="270" y1="127.7" y2="127.7" gradientTransform="translate(457.96 -10.15) rotate(179.57) scale(1 -1)" gradientUnits="userSpaceOnUse">
      <stop offset="0" stop-color="#808e42"/>
      <stop offset=".6" stop-color="#a7b85f"/>
      <stop offset="1" stop-color="#b4c770"/>
    </linearGradient>
    <linearGradient id="linear-gradient-11" x1="435.6" x2="374.2" y1="163.1" y2="163.1" gradientTransform="translate(457.96 -10.15) rotate(179.57) scale(1 -1)" gradientUnits="userSpaceOnUse">
      <stop offset="0" stop-color="#6f7c35"/>
      <stop offset=".7" stop-color="#6f7c35"/>
      <stop offset=".9" stop-color="#76843a"/>
      <stop offset="1" stop-color="#829043"/>
    </linearGradient>
    <linearGradient xlink:href="#linear-gradient-10" id="linear-gradient-12" x1="239.6" x2="254" y1="114" y2="114"/>
    <linearGradient id="linear-gradient-13" x1="-69.8" x2="-61.3" y1="132.8" y2="156.3" gradientTransform="translate(235.75 -8.5) rotate(-.43)" gradientUnits="userSpaceOnUse">
      <stop offset="0" stop-color="#fcc500"/>
      <stop offset="1" stop-color="#eda600"/>
    </linearGradient>
    <linearGradient id="linear-gradient-14" x1="338.3" x2="337.5" y1="153" y2="91.2" gradientTransform="translate(457.96 -10.15) rotate(179.57) scale(1 -1)" gradientUnits="userSpaceOnUse">
      <stop offset="0" stop-color="#5c6136"/>
      <stop offset=".8" stop-color="#7c8042"/>
    </linearGradient>
    <linearGradient id="linear-gradient-15" x1="367.3" x2="294.1" y1="113.3" y2="140.7" gradientTransform="translate(457.96 -10.15) rotate(179.57) scale(1 -1)" gradientUnits="userSpaceOnUse">
      <stop offset="0" stop-color="#f5e9e9"/>
      <stop offset="1" stop-color="#d3d0c9"/>
    </linearGradient>
    <linearGradient id="linear-gradient-16" x1="288.9" x2="241.5" y1="245.4" y2="202.3" gradientTransform="translate(488.63 124.77) rotate(-138.14) scale(1 -1)" gradientUnits="userSpaceOnUse">
      <stop offset="0" stop-color="#e89700"/>
      <stop offset=".9" stop-color="#cb6e00"/>
      <stop offset="1" stop-color="#c76800"/>
    </linearGradient>
    <linearGradient xlink:href="#linear-gradient-13" id="linear-gradient-17" x1="-94.1" x2="-84.6" y1="143.4" y2="169.6"/>
    <linearGradient xlink:href="#linear-gradient-16" id="linear-gradient-18" x1="269.5" x2="228.1" y1="300.3" y2="249" gradientTransform="translate(487.57 142.87) rotate(-129.41) scale(1 -1)"/>
    <linearGradient xlink:href="#linear-gradient-4" id="linear-gradient-19" x1="252.5" x2="399.6" y1="177.9" y2="177.9" gradientTransform="translate(-6.53 -6.7) rotate(-.43)"/>
    <linearGradient xlink:href="#linear-gradient-3" id="linear-gradient-20" x1="395.2" x2="477.4" y1="199.7" y2="199.7" gradientTransform="translate(-6.53 -6.7) rotate(-.43)"/>
    <linearGradient xlink:href="#linear-gradient-5" id="linear-gradient-21" x1="364.9" x2="364.9" y1="190.7" y2="120.3" gradientTransform="translate(-6.53 -6.7) rotate(-.43)"/>
    <linearGradient xlink:href="#linear-gradient-6" id="linear-gradient-22" x1="363.3" x2="363.3" y1="119.5" y2="186.9" gradientTransform="translate(-6.53 -6.7) rotate(-.43)"/>
    <linearGradient id="linear-gradient-23" x1="337.1" x2="455.2" y1="199.5" y2="199.5" gradientTransform="translate(-6.53 -6.7) rotate(-.43)" gradientUnits="userSpaceOnUse">
      <stop offset="0" stop-color="#6f7c35"/>
      <stop offset=".5" stop-color="#6f7c35"/>
      <stop offset="1" stop-color="#a7b85f"/>
    </linearGradient>
    <linearGradient xlink:href="#linear-gradient-8" id="linear-gradient-24" x1="364.7" x2="364.7" y1="181.3" y2="97.1" gradientTransform="translate(-6.53 -6.7) rotate(-.43)"/>
    <linearGradient id="linear-gradient-25" x1="311.1" x2="334.8" y1="182.2" y2="158.6" gradientTransform="translate(-6.53 -6.7) rotate(-.43)" gradientUnits="userSpaceOnUse">
      <stop offset="0" stop-color="#cbbfa5"/>
      <stop offset="1" stop-color="#bfb287"/>
    </linearGradient>
    <linearGradient id="linear-gradient-26" x1="254.3" x2="288" y1="144.6" y2="144.6" gradientTransform="translate(-6.53 -6.7) rotate(-.43)" gradientUnits="userSpaceOnUse">
      <stop offset="0" stop-color="#8c9048"/>
      <stop offset="1" stop-color="#969a4b"/>
    </linearGradient>
    <linearGradient id="linear-gradient-27" x1="476.7" x2="406.7" y1="185" y2="185" gradientTransform="translate(-6.53 -6.7) rotate(-.43)" gradientUnits="userSpaceOnUse">
      <stop offset="0" stop-color="#829043"/>
      <stop offset="1" stop-color="#a7b85f"/>
    </linearGradient>
    <linearGradient xlink:href="#linear-gradient-26" id="linear-gradient-28" x1="253.3" x2="269.7" y1="129" y2="129"/>
    <linearGradient id="linear-gradient-29" x1="-90.9" x2="-81.1" y1="150.5" y2="177.2" gradientTransform="translate(215.68 -8.35) rotate(179.57) scale(1 -1)" gradientUnits="userSpaceOnUse">
      <stop offset="0" stop-color="#b24e00"/>
      <stop offset="1" stop-color="#c36100"/>
    </linearGradient>
    <linearGradient xlink:href="#linear-gradient-14" id="linear-gradient-30" x1="365.8" x2="364.9" y1="173.5" y2="103.1" gradientTransform="translate(-6.53 -6.7) rotate(-.43)"/>
    <linearGradient xlink:href="#linear-gradient-15" id="linear-gradient-31" x1="305.1" x2="407" y1="144.4" y2="144.4" gradientTransform="translate(-6.53 -6.7) rotate(-.43)"/>
    <linearGradient xlink:href="#linear-gradient-16" id="linear-gradient-32" x1="239.3" x2="305.6" y1="252.3" y2="252.3" gradientTransform="translate(-35.19 128.66) rotate(-42.71)"/>
    <linearGradient xlink:href="#linear-gradient-29" id="linear-gradient-33" x1="-118.5" x2="-107.7" y1="162.5" y2="192.4"/>
    <linearGradient xlink:href="#linear-gradient-16" id="linear-gradient-34" x1="222" x2="283.2" y1="307.5" y2="307.5" gradientTransform="translate(-33.86 146.74) rotate(-51.44)"/>
    <linearGradient id="linear-gradient-35" x1="121.7" x2="242.9" y1="227.3" y2="227.3" gradientTransform="translate(417.92 -9.38) rotate(167.89) scale(1 -1)" gradientUnits="userSpaceOnUse">
      <stop offset="0" stop-color="#6f7c35"/>
      <stop offset="1" stop-color="#6f7c35"/>
    </linearGradient>
    <linearGradient xlink:href="#linear-gradient-4" id="linear-gradient-36" x1="300.6" x2="182.7" y1="220.9" y2="220.9" gradientTransform="translate(452.82 -14.16) rotate(178.47) scale(1 -1)"/>
    <linearGradient xlink:href="#linear-gradient-3" id="linear-gradient-37" x1="196.2" x2="103.9" y1="256.8" y2="256.8" gradientTransform="translate(452.82 -14.16) rotate(178.47) scale(1 -1)"/>
    <linearGradient xlink:href="#linear-gradient-5" id="linear-gradient-38" x1="103.9" x2="301" y1="190.7" y2="190.7" gradientTransform="translate(452.82 -14.16) rotate(178.47) scale(1 -1)"/>
    <linearGradient id="linear-gradient-39" x1="187.5" x2="122.8" y1="330.8" y2="301.9" gradientTransform="translate(526.24 6.62) rotate(-157.4) scale(1 -1)" gradientUnits="userSpaceOnUse">
      <stop offset="0" stop-color="#6f7c35"/>
      <stop offset=".6" stop-color="#6f7c35"/>
      <stop offset=".8" stop-color="#a1b25b"/>
    </linearGradient>
    <linearGradient id="linear-gradient-40" x1="157.8" x2="130.1" y1="326.4" y2="314" gradientTransform="translate(526.24 6.62) rotate(-157.4) scale(1 -1)" gradientUnits="userSpaceOnUse">
      <stop offset="0" stop-color="#6f7c35"/>
      <stop offset=".5" stop-color="#6f7c35"/>
      <stop offset=".5" stop-color="#717e36"/>
      <stop offset=".6" stop-color="#889748"/>
      <stop offset=".7" stop-color="#99a955"/>
      <stop offset=".8" stop-color="#a3b45c"/>
      <stop offset="1" stop-color="#a7b85f"/>
    </linearGradient>
    <linearGradient id="linear-gradient-41" x1="152.4" x2="63.7" y1="344.5" y2="304.8" gradientTransform="translate(526.24 6.62) rotate(-157.4) scale(1 -1)" gradientUnits="userSpaceOnUse">
      <stop offset=".1" stop-color="#6f7c35"/>
      <stop offset=".3" stop-color="#a1b25b"/>
    </linearGradient>
    <linearGradient id="linear-gradient-42" x1="203.8" x2="203.8" y1="190.2" y2="66.2" gradientTransform="translate(417.6 -11.77) rotate(162.78) scale(1 -1)" gradientUnits="userSpaceOnUse">
      <stop offset="0" stop-color="#6f733d"/>
      <stop offset="0" stop-color="#6a6e3b"/>
      <stop offset=".1" stop-color="#5d6136"/>
      <stop offset=".1" stop-color="#4f5432"/>
      <stop offset="1" stop-color="#969a4b"/>
    </linearGradient>
    <linearGradient xlink:href="#linear-gradient-25" id="linear-gradient-43" x1="232.6" x2="265.7" y1="238.2" y2="180.8" gradientTransform="translate(452.82 -14.16) rotate(178.47) scale(1 -1)"/>
    <linearGradient xlink:href="#linear-gradient-11" id="linear-gradient-44" x1="247.2" x2="300.6" y1="160" y2="160" gradientTransform="translate(452.82 -14.16) rotate(178.47) scale(1 -1)"/>
    <linearGradient xlink:href="#linear-gradient-8" id="linear-gradient-45" x1="200.5" x2="200.5" y1="232.3" y2="125.7" gradientTransform="translate(452.82 -14.16) rotate(178.47) scale(1 -1)"/>
    <linearGradient xlink:href="#linear-gradient-10" id="linear-gradient-46" x1="107.4" x2="167.5" y1="236.4" y2="236.4" gradientTransform="translate(452.82 -14.16) rotate(178.47) scale(1 -1)"/>
    <linearGradient id="linear-gradient-47" x1="258.8" x2="258.6" y1="233.1" y2="139.8" gradientTransform="translate(-6.53 -6.7) rotate(-.43)" gradientUnits="userSpaceOnUse">
      <stop offset="0" stop-color="#575c34"/>
      <stop offset=".7" stop-color="#6c703c"/>
      <stop offset="1" stop-color="#767a40"/>
    </linearGradient>
    <linearGradient xlink:href="#linear-gradient-15" id="linear-gradient-48" x1="239.4" x2="184.7" y1="206.1" y2="154.8" gradientTransform="translate(452.82 -14.16) rotate(178.47) scale(1 -1)"/>
    <linearGradient xlink:href="#linear-gradient-16" id="linear-gradient-49" x1="272.4" x2="201.5" y1="189" y2="174.8" gradientTransform="translate(498.26 29.33) rotate(-169.12) scale(1 -1)"/>
    <linearGradient xlink:href="#linear-gradient-29" id="linear-gradient-50" x1="233.1" x2="245.9" y1="203.2" y2="238.4" gradientTransform="translate(452.82 -14.16) rotate(178.47) scale(1 -1)"/>
    <linearGradient xlink:href="#linear-gradient-16" id="linear-gradient-51" x1="247.1" x2="169.9" y1="203.8" y2="188.4" gradientTransform="translate(498.26 29.33) rotate(-169.12) scale(1 -1)"/>
    <linearGradient xlink:href="#linear-gradient-29" id="linear-gradient-52" x1="254.8" x2="266.6" y1="181.8" y2="214.3" gradientTransform="translate(452.82 -14.16) rotate(178.47) scale(1 -1)"/>
    <linearGradient xlink:href="#linear-gradient-26" id="linear-gradient-53" x1="295.5" x2="265.7" y1="168.8" y2="202.8" gradientTransform="translate(452.82 -14.16) rotate(178.47) scale(1 -1)"/>
    <linearGradient xlink:href="#linear-gradient-3" id="linear-gradient-54" x1="285.3" x2="152.5" y1="122.1" y2="122.1"/>
    <linearGradient xlink:href="#linear-gradient-4" id="linear-gradient-55" x1="355.5" x2="281.3" y1="141.8" y2="141.8"/>
    <linearGradient xlink:href="#linear-gradient-5" id="linear-gradient-56" x1="254" x2="254" y1="133.7" y2="70.1"/>
    <linearGradient xlink:href="#linear-gradient-6" id="linear-gradient-57" x1="255.1" x2="255.1" y1="69.4" y2="131"/>
    <linearGradient xlink:href="#linear-gradient-7" id="linear-gradient-58" x1="335.4" x2="228.9" y1="141.6" y2="141.6"/>
    <linearGradient xlink:href="#linear-gradient-8" id="linear-gradient-59" x1="253.7" x2="253.7" y1="125.2" y2="49.2"/>
    <linearGradient xlink:href="#linear-gradient-9" id="linear-gradient-60" x1="222.5" x2="209.3" y1="103.5" y2="126.3"/>
    <linearGradient xlink:href="#linear-gradient-10" id="linear-gradient-61" x1="154.1" x2="184.5" y1="92.1" y2="92.1"/>
    <linearGradient xlink:href="#linear-gradient-11" id="linear-gradient-62" x1="354.9" x2="291.7" y1="128.6" y2="128.6"/>
    <linearGradient xlink:href="#linear-gradient-10" id="linear-gradient-63" x1="153.2" x2="168" y1="78" y2="78"/>
    <linearGradient xlink:href="#linear-gradient-13" id="linear-gradient-64" x1="15" x2="23.8" y1="97.4" y2="121.5"/>
    <linearGradient xlink:href="#linear-gradient-14" id="linear-gradient-65" x1="254.8" x2="253.9" y1="118.2" y2="54.6"/>
    <linearGradient xlink:href="#linear-gradient-15" id="linear-gradient-66" x1="284.6" x2="209.3" y1="77.3" y2="105.5"/>
    <linearGradient xlink:href="#linear-gradient-16" id="linear-gradient-67" x1="251.4" x2="202.6" y1="162.9" y2="118.6"/>
    <linearGradient xlink:href="#linear-gradient-13" id="linear-gradient-68" x1="-9.9" x2="-.1" y1="108.3" y2="135.2"/>
    <linearGradient xlink:href="#linear-gradient-16" id="linear-gradient-69" x1="245.2" x2="202.5" y1="213.8" y2="161.1" gradientTransform="translate(487.57 142.87) rotate(-129.41) scale(1 -1)"/>
    <linearGradient xlink:href="#linear-gradient-35" id="linear-gradient-70" x1="198.3" x2="308.4" y1="135.7" y2="135.7" gradientTransform="translate(35.83 -6.28) rotate(11.7)"/>
    <linearGradient xlink:href="#linear-gradient-3" id="linear-gradient-71" x1="268.7" x2="375.7" y1="147.2" y2="147.2" gradientTransform="translate(.67 -10.41) rotate(1.12)"/>
    <linearGradient xlink:href="#linear-gradient-4" id="linear-gradient-72" x1="197.1" x2="280.9" y1="179.8" y2="179.8" gradientTransform="translate(.67 -10.41) rotate(1.12)"/>
    <linearGradient xlink:href="#linear-gradient-5" id="linear-gradient-73" x1="197.1" x2="376.1" y1="119.8" y2="119.8" gradientTransform="translate(.67 -10.41) rotate(1.12)"/>
    <linearGradient xlink:href="#linear-gradient-23" id="linear-gradient-74" x1="230.6" x2="301.9" y1="286" y2="286" gradientTransform="translate(-71.84 11.52) rotate(-23.01)"/>
    <linearGradient xlink:href="#linear-gradient-23" id="linear-gradient-75" x1="241.1" x2="268.5" y1="284.3" y2="284.3" gradientTransform="translate(-71.84 11.52) rotate(-23.01)"/>
    <linearGradient id="linear-gradient-76" x1="186" x2="260.9" y1="285.8" y2="285.8" gradientTransform="translate(-71.84 11.52) rotate(-23.01)" gradientUnits="userSpaceOnUse">
      <stop offset="0" stop-color="#6f7c35"/>
      <stop offset=".7" stop-color="#6f7c35"/>
      <stop offset=".8" stop-color="#76843a"/>
      <stop offset=".9" stop-color="#8b9a4a"/>
      <stop offset="1" stop-color="#a7b85f"/>
    </linearGradient>
    <linearGradient xlink:href="#linear-gradient-42" id="linear-gradient-77" x1="264.3" x2="264.3" y1="95.3" y2="-18.8" gradientTransform="translate(36.01 -7.68) rotate(16.81)"/>
    <linearGradient xlink:href="#linear-gradient-9" id="linear-gradient-78" x1="320.3" x2="337.7" y1="129.4" y2="144" gradientTransform="translate(.67 -10.41) rotate(1.12)"/>
    <linearGradient id="linear-gradient-79" x1="327.2" x2="375.7" y1="91.9" y2="91.9" gradientTransform="translate(.67 -10.41) rotate(1.12)" gradientUnits="userSpaceOnUse">
      <stop offset="0" stop-color="#959e49"/>
      <stop offset="1" stop-color="#878d4a"/>
    </linearGradient>
    <linearGradient xlink:href="#linear-gradient-8" id="linear-gradient-80" x1="284.8" x2="284.8" y1="162.4" y2="62.4" gradientTransform="translate(.67 -10.41) rotate(1.12)"/>
    <linearGradient xlink:href="#linear-gradient-11" id="linear-gradient-81" x1="200.3" x2="254.8" y1="161.4" y2="161.4" gradientTransform="translate(.67 -10.41) rotate(1.12)"/>
    <linearGradient xlink:href="#linear-gradient-47" id="linear-gradient-82" x1="292.5" x2="292.3" y1="162.3" y2="78.1"/>
    <linearGradient xlink:href="#linear-gradient-15" id="linear-gradient-83" x1="269.4" x2="321.6" y1="88.8" y2="132.5" gradientTransform="translate(.67 -10.41) rotate(1.12)"/>
    <linearGradient xlink:href="#linear-gradient-16" id="linear-gradient-84" x1="300.9" x2="362.1" y1="132.8" y2="132.8" gradientTransform="translate(-44.24 32.65) rotate(-11.3)"/>
    <linearGradient xlink:href="#linear-gradient-13" id="linear-gradient-85" x1="314.4" x2="326" y1="131.1" y2="163.1" gradientTransform="translate(.67 -10.41) rotate(1.12)"/>
    <linearGradient xlink:href="#linear-gradient-16" id="linear-gradient-86" x1="272.4" x2="339" y1="145.9" y2="145.9" gradientTransform="translate(-44.24 32.65) rotate(-11.3)"/>
    <linearGradient xlink:href="#linear-gradient-13" id="linear-gradient-87" x1="334.1" x2="344.8" y1="111.8" y2="141.2" gradientTransform="translate(.67 -10.41) rotate(1.12)"/>
    <linearGradient xlink:href="#linear-gradient-10" id="linear-gradient-88" x1="371" x2="344" y1="100" y2="130.8" gradientTransform="translate(.67 -10.41) rotate(1.12)"/>
    <linearGradient id="linear-gradient-89" x1="306.1" x2="341.2" y1="59.5" y2="59.5" gradientTransform="translate(-6.53 -6.7) rotate(-.43)" gradientUnits="userSpaceOnUse">
      <stop offset="0" stop-color="#99a45d"/>
      <stop offset="1" stop-color="#73844f"/>
    </linearGradient>
    <linearGradient id="linear-gradient-90" x1="315.5" x2="324.6" y1="70.5" y2="86.2" gradientTransform="translate(-6.53 -6.7) rotate(-.43)" gradientUnits="userSpaceOnUse">
      <stop offset="0" stop-color="#adaf5c"/>
      <stop offset=".1" stop-color="#b0b15c"/>
      <stop offset=".3" stop-color="#99a45d"/>
      <stop offset=".6" stop-color="#73844f"/>
      <stop offset="1" stop-color="#b8b65c"/>
    </linearGradient>
    <linearGradient xlink:href="#linear-gradient-4" id="linear-gradient-91" x1="139.8" x2="161.7" y1="102.2" y2="80.3" gradientTransform="translate(-6.53 -6.7) rotate(-.43)"/>
    <linearGradient xlink:href="#linear-gradient-3" id="linear-gradient-92" x1="166.9" x2="342.8" y1="88.5" y2="88.5" gradientTransform="translate(-6.53 -6.7) rotate(-.43)"/>
    <linearGradient id="linear-gradient-93" x1="180.5" x2="174.9" y1="83.1" y2="51.5" gradientTransform="translate(-6.53 -6.7) rotate(-.43)" gradientUnits="userSpaceOnUse">
      <stop offset="0" stop-color="#acaf53"/>
      <stop offset="1" stop-color="#869234"/>
    </linearGradient>
    <linearGradient xlink:href="#linear-gradient-89" id="linear-gradient-94" x1="276.1" x2="342.6" y1="52.1" y2="52.1"/>
    <linearGradient id="linear-gradient-95" x1="184.8" x2="172.1" y1="49.1" y2="84" gradientTransform="translate(-6.53 -6.7) rotate(-.43)" gradientUnits="userSpaceOnUse">
      <stop offset=".6" stop-color="#424932"/>
      <stop offset=".7" stop-color="#4e5434"/>
      <stop offset=".9" stop-color="#6e7439"/>
      <stop offset="1" stop-color="#878c3e"/>
    </linearGradient>
    <linearGradient id="linear-gradient-96" x1="145.1" x2="204.1" y1="86" y2="86" gradientTransform="translate(-6.53 -6.7) rotate(-.43)" gradientUnits="userSpaceOnUse">
      <stop offset="0" stop-color="#6f7c35"/>
      <stop offset=".3" stop-color="#717f37"/>
      <stop offset=".5" stop-color="#7b893e"/>
      <stop offset=".7" stop-color="#8b9a4a"/>
      <stop offset=".9" stop-color="#a1b15a"/>
      <stop offset=".9" stop-color="#a7b85f"/>
    </linearGradient>
    <linearGradient id="linear-gradient-97" x1="146.4" x2="219.2" y1="110.9" y2="110.9" gradientTransform="translate(-6.53 -6.7) rotate(-.43)" gradientUnits="userSpaceOnUse">
      <stop offset="0" stop-color="#6f7c35"/>
      <stop offset="1" stop-color="#a7b85f"/>
    </linearGradient>
    <linearGradient xlink:href="#linear-gradient-5" id="linear-gradient-98" x1="233" x2="231.8" y1="64.6" y2="42.6" gradientTransform="translate(-6.53 -6.7) rotate(-.43)"/>
    <linearGradient id="linear-gradient-99" x1="240.9" x2="124.5" y1="60.6" y2="60.6" gradientTransform="translate(-6.53 -6.7) rotate(-.43)" gradientUnits="userSpaceOnUse">
      <stop offset="0" stop-color="#4f5432"/>
      <stop offset=".1" stop-color="#595d35"/>
      <stop offset=".5" stop-color="#7a7e41"/>
      <stop offset=".8" stop-color="#8e9248"/>
      <stop offset="1" stop-color="#969a4b"/>
    </linearGradient>
    <linearGradient id="linear-gradient-100" x1="240.9" x2="134.1" y1="59.6" y2="59.6" gradientTransform="translate(-6.53 -6.7) rotate(-.43)" gradientUnits="userSpaceOnUse">
      <stop offset="0" stop-color="#4f5432"/>
      <stop offset=".4" stop-color="#515732"/>
      <stop offset=".7" stop-color="#596035"/>
      <stop offset=".9" stop-color="#677039"/>
      <stop offset="1" stop-color="#6d773b"/>
    </linearGradient>
    <linearGradient id="linear-gradient-101" x1="238.8" x2="333.5" y1="45.1" y2="45.1" gradientTransform="translate(-6.53 -6.7) rotate(-.43)" gradientUnits="userSpaceOnUse">
      <stop offset="0" stop-color="#424932"/>
      <stop offset=".2" stop-color="#4b5134"/>
      <stop offset=".5" stop-color="#636839"/>
      <stop offset="1" stop-color="#8b8c43"/>
      <stop offset="1" stop-color="#8f9044"/>
    </linearGradient>
    <linearGradient xlink:href="#linear-gradient-8" id="linear-gradient-102" x1="233.6" x2="233.6" y1="68.8" y2="17.1" gradientTransform="translate(-6.53 -6.7) rotate(-.43)"/>
    <linearGradient id="linear-gradient-103" x1="149.2" x2="195.4" y1="105.9" y2="105.9" gradientTransform="translate(-6.53 -6.7) rotate(-.43)" gradientUnits="userSpaceOnUse">
      <stop offset="0" stop-color="#6f7c35"/>
      <stop offset=".2" stop-color="#758239"/>
      <stop offset=".6" stop-color="#879547"/>
      <stop offset="1" stop-color="#a3b45c"/>
      <stop offset="1" stop-color="#a7b85f"/>
    </linearGradient>
    <linearGradient xlink:href="#linear-gradient-9" id="linear-gradient-104" x1="248.3" x2="259" y1="62.1" y2="91.5" gradientTransform="translate(-6.53 -6.7) rotate(-.43)"/>
    <linearGradient xlink:href="#linear-gradient-13" id="linear-gradient-105" x1="268.5" x2="277.9" y1="59.4" y2="85.2" gradientTransform="translate(-6.53 -6.7) rotate(-.43)"/>
    <linearGradient id="linear-gradient-106" x1="140.9" x2="145.1" y1="95.9" y2="91.7" gradientTransform="translate(-6.53 -6.7) rotate(-.43)" gradientUnits="userSpaceOnUse">
      <stop offset=".4" stop-color="#8b973d"/>
      <stop offset="1" stop-color="#6f7c35"/>
    </linearGradient>
    <linearGradient xlink:href="#linear-gradient-27" id="linear-gradient-107" x1="345.3" x2="303.8" y1="16.2" y2="16.2" gradientTransform="translate(-3.35 -20.54) rotate(9.9)"/>
    <linearGradient xlink:href="#linear-gradient-47" id="linear-gradient-108" x1="233.7" x2="232.6" y1="72.6" y2="20.5"/>
    <linearGradient xlink:href="#linear-gradient-16" id="linear-gradient-109" x1="237.2" x2="276" y1="50.1" y2="50.1" gradientTransform="translate(-6.53 -6.7) rotate(-.43)"/>
    <linearGradient xlink:href="#linear-gradient-15" id="linear-gradient-110" x1="232.7" x2="243.4" y1="39.6" y2="68.9" gradientTransform="translate(-6.53 -6.7) rotate(-.43)"/>
    <linearGradient id="linear-gradient-111" x1="227.8" x2="120.2" y1="57" y2="57" gradientTransform="translate(-6.53 -6.7) rotate(-.43)" gradientUnits="userSpaceOnUse">
      <stop offset="0" stop-color="#575f34"/>
      <stop offset=".7" stop-color="#838b4e"/>
    </linearGradient>
    <linearGradient xlink:href="#linear-gradient-111" id="linear-gradient-112" x1="230.8" x2="230.3" y1="67.6" y2="67.6"/>
    <linearGradient xlink:href="#linear-gradient-13" id="linear-gradient-113" x1="229.1" x2="239.5" y1="68.2" y2="96.7" gradientTransform="translate(-6.53 -6.7) rotate(-.43)"/>
    <linearGradient xlink:href="#linear-gradient-16" id="linear-gradient-114" x1="199.8" x2="236.8" y1="58.5" y2="58.5" gradientTransform="translate(-6.53 -6.7) rotate(-.43)"/>
    <linearGradient id="linear-gradient-115" x1="299.2" x2="482.5" y1="135.3" y2="135.3" gradientTransform="translate(-14.4 -111.51) rotate(13.64)" gradientUnits="userSpaceOnUse">
      <stop offset="0" stop-color="#6f7c35"/>
      <stop offset=".5" stop-color="#5c6836"/>
      <stop offset="1" stop-color="#859051"/>
    </linearGradient>
    <linearGradient xlink:href="#linear-gradient-5" id="linear-gradient-116" x1="297.9" x2="484.4" y1="103.5" y2="103.5" gradientTransform="translate(-14.4 -111.51) rotate(13.64)"/>
    <linearGradient xlink:href="#linear-gradient-4" id="linear-gradient-117" x1="297.9" x2="410.6" y1="131.2" y2="131.2" gradientTransform="translate(-14.4 -111.51) rotate(13.64)"/>
    <linearGradient xlink:href="#linear-gradient-3" id="linear-gradient-118" x1="403.8" x2="484.4" y1="163" y2="163" gradientTransform="translate(-14.4 -111.51) rotate(13.64)"/>
    <linearGradient id="linear-gradient-119" x1="473.2" x2="297.9" y1="102.7" y2="102.7" gradientTransform="translate(-14.4 -111.51) rotate(13.64)" gradientUnits="userSpaceOnUse">
      <stop offset="0" stop-color="#4f5432"/>
      <stop offset=".2" stop-color="#5a5e35"/>
      <stop offset=".7" stop-color="#777c40"/>
      <stop offset="1" stop-color="#969a4b"/>
    </linearGradient>
    <linearGradient xlink:href="#linear-gradient-23" id="linear-gradient-120" x1="255.5" x2="376.2" y1="138.4" y2="138.4" gradientTransform="translate(125.17 -111.41) rotate(25.48)"/>
    <linearGradient xlink:href="#linear-gradient-10" id="linear-gradient-121" x1="303.8" x2="303.8" y1="33.9" y2="59.3" gradientTransform="translate(255.1 -121.79) rotate(51.96)"/>
    <linearGradient xlink:href="#linear-gradient-10" id="linear-gradient-122" x1="290.4" x2="290.4" y1="23.2" y2="80.3" gradientTransform="translate(255.1 -121.79) rotate(51.96)"/>
    <linearGradient xlink:href="#linear-gradient-26" id="linear-gradient-123" x1="232.1" x2="264.7" y1="49.1" y2="49.1" gradientTransform="translate(78.38 -113.67) rotate(30.26)"/>
    <linearGradient xlink:href="#linear-gradient-26" id="linear-gradient-124" x1="218.3" x2="249.4" y1="31.4" y2="31.4" gradientTransform="translate(89.28 -111.35) rotate(32.17)"/>
    <linearGradient xlink:href="#linear-gradient-8" id="linear-gradient-125" x1="389.3" x2="389.3" y1="157.2" y2="25.9" gradientTransform="translate(-14.4 -111.51) rotate(13.64)"/>
    <linearGradient xlink:href="#linear-gradient-25" id="linear-gradient-126" x1="331.8" x2="359.8" y1="122.1" y2="122.1" gradientTransform="translate(-14.4 -111.51) rotate(13.64)"/>
    <linearGradient xlink:href="#linear-gradient-29" id="linear-gradient-127" x1="-86.9" x2="-79.7" y1="79.7" y2="99.5" gradientTransform="translate(239.55 -40.12) rotate(-158.68) scale(1 -1)"/>
    <linearGradient xlink:href="#linear-gradient-29" id="linear-gradient-128" x1="-113.4" x2="-105.5" y1="99.7" y2="121.3" gradientTransform="translate(239.55 -40.12) rotate(-158.68) scale(1 -1)"/>
    <linearGradient xlink:href="#linear-gradient-47" id="linear-gradient-129" x1="365.5" x2="339.9" y1="140.6" y2="13.8"/>
    <linearGradient xlink:href="#linear-gradient-15" id="linear-gradient-130" x1="331.8" x2="429.2" y1="96.8" y2="96.8" gradientTransform="translate(-14.4 -111.51) rotate(13.64)"/>
    <linearGradient xlink:href="#linear-gradient-16" id="linear-gradient-131" x1="266.7" x2="338.7" y1="256.3" y2="256.3" gradientTransform="translate(-48.49 11.53) rotate(-29.7)"/>
    <linearGradient xlink:href="#linear-gradient-16" id="linear-gradient-132" x1="284.9" x2="357.1" y1="191.1" y2="191.1" gradientTransform="translate(-45.08 -5.96) rotate(-20.97)"/>
    <linearGradient id="linear-gradient-133" x1="110.4" x2="68.2" y1="313.1" y2="240.1" gradientTransform="translate(-79.39 26.61) rotate(-17.22)" gradientUnits="userSpaceOnUse">
      <stop offset="0" stop-color="gray"/>
      <stop offset="1" stop-color="#d9d9d9"/>
    </linearGradient>
    <linearGradient id="linear-gradient-134" x1="329.2" x2="356.9" y1="294.7" y2="193.3" gradientTransform="translate(434.62 -93.37) rotate(174.24) scale(1 -1)" gradientUnits="userSpaceOnUse">
      <stop offset=".2" stop-color="#d7dc8a"/>
      <stop offset="1" stop-color="#a6a656"/>
    </linearGradient>
    <linearGradient id="linear-gradient-135" x1="142" x2="117.7" y1="284.3" y2="164.2" gradientTransform="translate(-6.53 -6.7) rotate(-.43)" gradientUnits="userSpaceOnUse">
      <stop offset="0" stop-color="#575c32"/>
      <stop offset=".4" stop-color="#5b6033"/>
      <stop offset=".9" stop-color="#676c38"/>
      <stop offset="1" stop-color="#6d723a"/>
    </linearGradient>
  </defs>
  <g id="money">
    <path fill="url(#linear-gradient)" d="m237 244.1 28.4 44.6-30.4-6s-30.8-40.1-39.3-48.9a1154 1154 0 0 1-30.2-32.4l25.6-2.8z"/>
    <path fill="url(#linear-gradient-2)" d="m95.4 200-30.8-4.4S38 184.3 30.2 181.5c-8-2.8-30.2-9.8-30.2-9.8s26.2-5 32.8-11c6-5.4 16.4-3.2 16.4-3.2l31.2 4.5z"/>
    <path fill="#d3d3d3" d="m362 181.2 28.4 44.6-28-6.9s-19.4-13.8-48.1-28.3c-19.2-9.7-17.7-14.5-17.7-14.5l21.2-18.4z"/>
    <g id="_5">
      <path fill="url(#linear-gradient-3)" fill-rule="evenodd" d="M218.8 123.9a1509 1509 0 0 0-69.5 38c-24.5 14.4-43.5 27.4-53.9 38l-4-23.6 3.7-15.7c40.8-23.6 82.6-36.4 124.8-62.6l-.4 1.7v1l-2 1.2h1.7l-.1.6a50 50 0 0 0-.7 8l-2.5 1.3h2.5v.5c0 1.3.2 10.2.4 11.6"/>
      <path fill="url(#linear-gradient-4)" fill-rule="evenodd" d="M95.4 200A311 311 0 0 0 23 170.3c.9-5.2.8-17.1.6-22.4l-.1-1.4 3.5-.6-3.7-1.8v-1.5l-.5-5c27 13 41.6 16.3 72.3 23-1.2 11-1.2 28.1.3 39.2"/>
      <path fill="url(#linear-gradient-5)" fill-rule="evenodd" d="M95 160.6c-30.6-6.6-45.2-10-72.2-23l5.7-1a190 190 0 0 0 66.7 15.8 813 813 0 0 0 50.9-19.5c1.5-.3.3 1.5.4 2.1A569 569 0 0 0 95 160.6m79.4-38.3c14.9-7 30.4-15 45.5-24.4h-4.5a822 822 0 0 1-41 22z"/>
      <path fill="url(#linear-gradient-6)" fill-rule="evenodd" d="M22.8 137.7c19.2-5 164.4-40.2 164.4-40.2s27 .5 30.5.4c-4.6 3-13.4 9.4-43.3 24.4-9.8 4.8-19.1 8.5-29 13.2-25.2 12.1-52.8 22.6-52.8 22.6s-11.2-1.1-28.5-5c-19.8-4.4-41.3-15.4-41.3-15.4Z"/>
      <path fill="url(#linear-gradient-7)" fill-rule="evenodd" d="M94.4 182s18.2-12.2 25.6-16.5c8.5-5 26-13.5 26-13.5s-29.9 14.7-42.4 25.5c-2.4 2-9.1 7-9.1 7s-3.2-2-9-4.7c-11.1-5.1-43-16.3-43-16.3l33.3 11.4c7 2.5 18.6 7.1 18.6 7.1Z"/>
      <path fill="url(#linear-gradient-8)" fill-rule="evenodd" d="M157 78c-37.4 28.8-80.3 46-134.8 55 8.9 5.7 24.5 11.3 41.2 15a186 186 0 0 0 31.8 4.4c50.5-16.2 84-29.6 125.7-57.6-26.5 0-54.2-5.3-63.8-16.7Z"/>
      <path fill="url(#linear-gradient-9)" fill-rule="evenodd" d="M144.9 164.4c1-9.2.5-27.2.2-29.4l28.8-12.8c.6 4.6 0 20.1-.8 26z"/>
      <path fill="url(#linear-gradient-10)" fill-rule="evenodd" d="M189 127s11.6-5.7 16.2-8.2l13.2-7h-2.5l-10.7 6.3c-6 3.6-16.2 9-16.2 9"/>
      <path fill="url(#linear-gradient-11)" fill-rule="evenodd" d="M85 166s-20.7-4.4-51.7-15.7l-9.8-3.7 3.5-.6 10.5 4.4C61.5 160.5 85 166 85 166Z"/>
      <path fill="url(#linear-gradient-12)" fill-rule="evenodd" d="m217.5 101.9-1.8 1.2-10.9 6.4 12.6-6.7 1.8-1z"/>
      <path fill="url(#linear-gradient-13)" fill-rule="evenodd" d="m173.9 122.2-4.6 2.2.2 10.4c0 6-.8 16-.8 16l4.4-2.6s1-10.8 1-16.8c0-6.4-.2-9.1-.3-9.2"/>
      <path fill="url(#linear-gradient-14)" d="M156.7 100.6c3-1.3 8.8-1.4 12.7-.1s4.5 3.3 1.3 4.7a21 21 0 0 1-12.7 0c-3.9-1.2-4.5-3.3-1.3-4.6m-88.2 26.2c9.2-2.7 19.7-6.3 29.7-10.2 5.1-2.3 12.8-5.5 19.2-8.5a348 348 0 0 0 17.9-9.8 218 218 0 0 0 21.3-14s3.4 2.3 9 5q6.2 2.8 15.7 5.1c3.4.8 10.3 2.4 16 3 6 .7 11.3 1 11.3 1l-4.1 2.5c-3.4 2-8.8 5.3-15.3 9-8.3 4.7-17.4 9.2-26 13-2.3 1.1-10.2 4.7-14.7 6.5a812 812 0 0 1-51 18.2l-3.7 1-3.4-.1q-4.2 0-11.3-1a198 198 0 0 1-34.6-8.2c-6.2-2.2-11.1-4.2-11.1-4.2s15.1-2.6 35-8.3Zm110-15.8c10.1-5.3 20.3-11.5 20.3-11.5s-4.8-.6-9.4-1.4c-5-1-9.8-2.1-12.6-2.9a85 85 0 0 1-10.3-3.4c-4-1.7-7.3-3.4-7.3-3.4s-9 6.6-19 12.4q-6.8 3.7-13.3 7l-3.2 1.4 7.2-.4c16.2-.1 29.3 4.4 29.3 10l-.1 1 3-1.2q7.3-3.4 15.4-7.6ZM52.7 139.5a183 183 0 0 0 28 6c3 .3 6.7.3 6.7.3l3.3-.6 4.3-1a452 452 0 0 0 40-14l3.7-1.5q-3.6.4-7.7.5c-16.1 0-29.3-4.4-29.4-10l-2.1 1a305 305 0 0 1-48.8 15.3l-6.4 1.3zm33.1-2.2c4.3 1.2 10.5.8 13.9-.7 3.3-1.6 2.5-3.9-1.8-5a23 23 0 0 0-13.8.7c-3.4 1.6-2.6 3.8 1.7 5"/>
      <path fill="url(#linear-gradient-15)" fill-rule="evenodd" d="M173.9 122.2c-.4-2-57.4-18.6-59.4-17.6l-30 12.9c3-.5 60 14.8 60.6 17.5q15-6.2 28.8-12.8"/>
      <path fill="url(#linear-gradient-16)" fill-rule="evenodd" d="M173.9 122.2c-1.8 1-3 1.4-4.6 2.2 0 0-11.8-5.4-27.6-10-21.4-6-32-7.7-32-7.7l4.8-2s1.2-1.3 31.9 7.5c28.3 8.2 27.5 10 27.5 10Z"/>
      <polygon fill="#575c34" fill-rule="evenodd" points="147.1 160.9 144.9 164.4 145.1 135 84.4 117.5 111.3 122.7 147.5 133.9 147.1 160.9"/>
      <path fill="url(#linear-gradient-17)" fill-rule="evenodd" d="M150.5 132.7 145 135s.2 5.8.1 12.2l-.6 17.4 5.3-3s.7-9 .8-16.1c.1-6.3-.2-12.8-.2-12.8"/>
      <path fill="url(#linear-gradient-18)" fill-rule="evenodd" d="M150.5 132.7 145 135s-2.2-1.8-23-7.8c-33.4-9.7-37.7-9.7-37.7-9.7l5.7-2.5s11.3 2.3 32 7.9c21.1 5.7 28.3 9.8 28.3 9.8"/>
    </g>
    <polygon fill-rule="evenodd" points="132.9 141.3 120.6 147.1 120.7 176 135.9 155.1 137.8 146.9 134.8 144 132.9 141.3" opacity=".5"/>
    <polygon id="shadow" points="128.3 143.3 120.6 147.1 86.1 135.4 110.2 126.1 128.3 143.3" opacity=".3"/>
    <g id="_8">
      <path fill="url(#linear-gradient-19)" fill-rule="evenodd" d="M248.6 141.3a1726 1726 0 0 1 79.7 42c28.2 16.1 50 30.6 62 42.5l4.4-27L390 181c-47-26.2-94.8-40-143.2-69.3l.5 3 2.2 1.5h-1.9l.1.7a57 57 0 0 1 1 9l2.8 1.6h-2.8v.6c0 1.5 0 11.6-.2 13.2Z"/>
      <path fill="url(#linear-gradient-20)" fill-rule="evenodd" d="M390.4 225.8a355 355 0 0 1 82-34.8 172 172 0 0 1-1-27.2l-4-.6 4.2-2v-1.8l.5-5.7c-30.6 15.2-47.1 19.2-82 27.3 1.5 12.7 1.8 32.1.3 44.8"/>
      <path fill="url(#linear-gradient-21)" fill-rule="evenodd" d="M331 152.7c.2-.7-1.2-2.7.5-2.4 17.7 7 36.5 14.2 58.4 21.3 26-1.4 57.3-9.9 75.7-19.1l6.5 1.2c-30.6 15.2-47.1 19.2-82 27.3a652 652 0 0 0-59-28.3M299.2 136c-15.5-7.4-30.5-15-47.2-24.2h-5a504 504 0 0 0 52.2 27z"/>
      <path fill="url(#linear-gradient-22)" fill-rule="evenodd" d="M468.8 153c-22-5.2-184.8-42.4-184.8-42.4l-37.1 1.1c6.2 3.3 15.5 10.7 52.2 27 11.3 5 22 9.3 33.2 14.5 29 13.4 55.5 24 55.5 24l33.7-8.3c19.8-4.9 47.3-15.8 47.3-15.8Z"/>
      <path fill="url(#linear-gradient-23)" fill-rule="evenodd" d="M391.3 205.4s-21-13.6-29.5-18.4c-9.7-5.5-29.9-15-29.9-15s34.3 16.4 48.8 28.4c2.7 2.3 10.5 7.7 10.5 7.7s3.6-2.2 10-5.3c12.8-6.1 48.9-19.4 48.9-19.4L412.3 197c-7.9 3-21 8.4-21 8.4"/>
      <path fill="url(#linear-gradient-24)" fill-rule="evenodd" d="M318 88c43.2 32.1 92.5 51 154.7 60.4-10 6.6-27.7 13.2-46.7 17.7-12 2.9-24.6 4.9-36.1 5.5-58-17.5-96.3-32.2-144.3-63.4 30.2-.6 61.6-7 72.5-20.2"/>
      <path fill="url(#linear-gradient-25)" fill-rule="evenodd" d="M333.4 186.2c-1.3-10.5-1-31-.7-33.5l-33-14c-.7 5.1.4 22.8 1.3 29.5z"/>
      <path fill="url(#linear-gradient-26)" fill-rule="evenodd" d="M282.6 144.3s-13.4-6.3-18.7-9l-15.1-7.9h2.8l12.4 7c6.8 4 18.6 10 18.6 10"/>
      <path fill="url(#linear-gradient-27)" fill-rule="evenodd" d="M401.6 186.9s23.6-5.3 58.7-18.6c5.3-2 11.1-4.5 11.1-4.5l-4-.6-12 5.2c-27.1 12-53.8 18.5-53.8 18.5Z"/>
      <path fill="url(#linear-gradient-28)" fill-rule="evenodd" d="m249.6 116.2 2 1.3 12.6 7.1-14.5-7.3-2-1.1z"/>
      <path fill="url(#linear-gradient-29)" fill-rule="evenodd" d="M299.7 138.6c1 .6 5.2 2.4 5.2 2.4a268 268 0 0 0 1.2 30.1l-5.1-2.8s-1.4-12.3-1.5-19.2c-.1-7.3.2-10.4.2-10.5Z"/>
      <path fill="url(#linear-gradient-30)" d="M317.5 119a24 24 0 0 1-14.5.1c-3.6-1.4-3-3.8 1.4-5.3a24 24 0 0 1 14.5-.2c3.6 1.5 3 3.9-1.4 5.4M460 150.8s-5.5 2.5-12.6 5a197 197 0 0 1-52.2 11.3l-3.8.1s-2-.3-4.3-1a922.1 922.1 0 0 1-58.3-19.9 397.9 397.9 0 0 1-69-34.4s6-.3 12.9-1.2c6.4-.8 14.2-2.7 18-3.7 7.4-1.8 13-3.9 17.8-6.1 6.4-3 10.2-5.9 10.2-5.9s10.4 7.8 24.5 15.7c5.7 3.2 13 7.1 20.6 10.8 7.4 3.3 16.1 7 22 9.4 11.5 4.3 23.5 8.3 34 11.1 22.9 6.2 40.2 8.9 40.2 8.9Zm-148-16.6 3.3 1.4-.1-1.2c-.1-6.4 14.8-11.7 33.3-11.8q4.2 0 8.2.3l-3.7-1.7q-7.6-3.5-15.2-7.6c-11.6-6.4-22-13.8-22-13.8s-3.7 2-8.3 4q-7 2.9-11.7 4.1c-3.1 1-8.6 2.3-14.2 3.4-5.3 1.1-10.7 1.8-10.7 1.8a434 434 0 0 0 41 21.1M447.5 153l-7.3-1.3c-2.7-.6-17.4-3.7-29.3-7.3-9.3-3-18.7-6.3-26.6-9.4l-2.4-1c0 6.4-15 11.6-33.4 11.8q-4.6 0-8.7-.4l4.2 1.7a727 727 0 0 0 45.8 15.1 62 62 0 0 0 8.7 1.8s4.2 0 7.7-.5a157 157 0 0 0 20.6-4l11.2-3.2c5.2-1.7 9.5-3.3 9.5-3.3Zm-45.4-4.4c-3.9-1.8-11-2-15.8-.7-5 1.4-5.8 4-2 5.8 4 1.8 11 2 15.9.6s5.7-4 1.9-5.7"/>
      <path fill="url(#linear-gradient-31)" fill-rule="evenodd" d="M299.7 138.6c.4-2.3 65-22.2 67.3-21l34.5 14.1c-3.4-.4-68.3 17.8-68.8 21a754 754 0 0 1-33-14"/>
      <path fill="url(#linear-gradient-32)" fill-rule="evenodd" d="m299.7 138.6 5.2 2.4s13.3-6.4 31.3-11.8c24.3-7.3 36.4-9.3 36.4-9.3l-5.6-2.3s-1.3-1.5-36.2 9.2c-32 9.7-31.1 11.8-31.1 11.8Z"/>
      <polygon fill="#575c34" fill-rule="evenodd" points="330.9 182.2 333.4 186.2 332.7 152.7 401.5 131.7 370.9 138.1 329.9 151.4 330.9 182.2"/>
      <path fill="url(#linear-gradient-33)" fill-rule="evenodd" d="M326.5 150.1c1.2.6 6.2 2.5 6.2 2.5 0 .1-.2 6.7 0 14l1 19.8-6-3.4s-1-10.2-1.2-18.3a247 247 0 0 1 0-14.6Z"/>
      <path fill="url(#linear-gradient-34)" fill-rule="evenodd" d="M326.5 150.1q1.9.9 6.2 2.5s2.5-2 26-9.2c38-11.6 42.8-11.7 42.8-11.7L395 129s-12.8 2.8-36.3 9.5a164 164 0 0 0-32.2 11.6"/>
    </g>
    <polygon fill-rule="evenodd" points="365.2 206 364.9 168 324.4 151 305.5 170.1 302 177.2 332.1 199 339.6 202.1 365.2 206" opacity=".5"/>
    <g id="_6">
      <path fill="url(#linear-gradient-35)" fill-rule="evenodd" d="m346 248.9 4 5.3s-15.7 1-36.1 7.8c-29.3 9.7-48.5 26.7-48.5 26.7l-22-29-22-27.3 80.8 27.4z"/>
      <path fill="url(#linear-gradient-36)" fill-rule="evenodd" d="m266.2 240.4 11.2 19.8-12.8 25.6q-22.2-28-45.2-54.8a552 552 0 0 0-61.8-61.9l.3-6.3v-1.2l2-.4-2-1.6v-1.7c-.2-5.5-.7-10.5-1.7-17 0 0 11.2 6.4 21.6 14.5 7.2 5.7 15.5 12.2 19.4 15.6 18.3 16.2 69 69.4 69 69.4Z"/>
      <path fill="url(#linear-gradient-37)" fill-rule="evenodd" d="M350.2 250.6a99 99 0 0 1 1.2-30.6l.2-.9-2.7-1.5 3.3-.6.3-.9q.9-3 2.4-5.8c-56.6-.3-55-12.5-88.7 30 2 13.9 3.3 31.3-1.6 45.4 39.2-26.1 57-31.3 85.6-35.1"/>
      <path fill="url(#linear-gradient-38)" fill-rule="evenodd" d="M266.2 240.4c-39.3-39.2-77.4-76-110.5-102.9 24 3.6 49.3-7.9 68-13.6 39.6 31.7 83 58.6 131.2 86.4-31.6 4.4-58.1 12-88.7 30Z"/>
      <path fill="url(#linear-gradient-39)" fill-rule="evenodd" d="m268 260.8 12.7-6.7 16.4-7.8s-9.6 4.6-17.3 9.8c-5.2 3.5-11.8 8.5-11.8 8.5s-8.2-12-15.8-21c-5.5-6.8-26.8-29.4-26.8-29.4L253 243c5.2 5.5 14.9 17.9 14.9 17.9"/>
      <path fill="url(#linear-gradient-40)" fill-rule="evenodd" d="M267.7 252.8s4.5-2.6 7.8-4.2c4.7-2.2 10-4.3 10-4.3s-6 2.7-10.6 6c-3.1 2-7.1 5.1-7.1 5.1s-1.6-2.6-5.9-8.3c-3.2-4.2-7-8.2-7-8.2l7.8 7.6c2.5 2.5 5 6.3 5 6.3"/>
      <path fill="url(#linear-gradient-41)" fill-rule="evenodd" d="m266.2 279.3 7.4-5.2c41.7-27.7 76.3-27 76.3-27s-40.1 2.2-76.7 29.3l-7.5 5.8s-1.2-3.2-5.5-8.9c-3.2-4.3-7.1-8.2-7.1-8.2z"/>
      <path fill="url(#linear-gradient-42)" fill-rule="evenodd" d="M349.8 207.4c-29.6 5.6-53 13.4-79.8 27.4-8.7 4.5-30.3-21-48.4-38.2-7-6.7-17-15.4-26.4-24.8-9.2-9-10.5-11.5-16-19.2q-3.3-4.4-4.1-8.4c-5.2-22 27.6-2 49.8-9.6 50.1 36.1 72.2 41 125 72.8Z"/>
      <path fill="url(#linear-gradient-43)" fill-rule="evenodd" d="M221.5 233.4c-1.4-13.6-.9-26.3.1-36.8l-26.4-24.8c-1 9.2-.5 23.7.9 33.8z"/>
      <path fill="url(#linear-gradient-44)" fill-rule="evenodd" d="m191 133.8-34.8 7s14 10.3 20.1 15.1c5.4 4.2 18.9 15.9 18.9 15.9l14.9-16.2z"/>
      <path fill="url(#linear-gradient-45)" fill-rule="evenodd" d="M272.2 226.7c-7 6-26.5-7.4-50.6-30-22.1-21-45.2-43-65.9-59.2a301 301 0 0 0 69.5-16.9c10.7 11.6 22.8 19.6 42 33.4 29 21 69.8 41.5 91.2 40.6-34.8 3-55.7 14-86.2 32"/>
      <path fill="url(#linear-gradient-46)" fill-rule="evenodd" d="M349 217.6s-10.3 1.9-14.7 2.9c-26 6-42.4 13.7-42.4 13.7s21-8.4 42.7-12.5c4.3-.8 17-2.6 17-2.6z"/>
      <path fill="url(#linear-gradient-47)" d="M339.4 195.4h.2zm-142.5-60.6c5.7-1.4 12.2-3.2 17.7-5 5-1.6 8.8-3.1 8.8-3.1s6.9 6.5 17.9 14.9c4.2 3.2 11.3 8.6 19.8 14.6 8.2 6 8.9 6 17.4 11.7q9 5.8 17.7 10.6c5.8 3.2 19.8 10 25.4 12.2a49 49 0 0 0 17.8 4.7c-1.6.2-13 1.8-29.6 8.6-15.7 6.5-36.8 19.1-36.8 19.1s-6.2.7-18.7-7.1q-7.5-4.8-18-14.1l-16.2-14.6c-5.8-5.2-8.3-6.8-13-11.6l-13-11.5c-14.4-12.9-26.8-23.7-26.8-23.7s15.2-2 29.6-5.7Zm53.2 70.4c16.6 13.7 28.8 12.6 28.8 12.6l25-12.7c6-3.1 20.9-8.1 20.9-8.1s-3.6-.9-9-3.1c-11-4.4-26.4-12.8-37.8-19.7l-3.9-2.7v.4c.3 9.7-13.4 18-30.5 18.4a52 52 0 0 1-12.2-1l.7.5c6.7 5.9 13.1 11.3 18 15.4m-52.7-45.4 11 9.5 3.8 3.3c.6-9.3 14-17 30.5-17.4q4.2-.2 8.3.4l-1.3-.9-6-4.4c-9-6.7-24-19.6-24-19.6l-5.7 1.7c-5.9 1.8-11 3.2-14.4 4-11.2 3-23 5-23 5s14.2 12.8 20.8 18.4Zm71.9 43.1c2.9 2.2 9.8 1.8 15.5-.8 5.7-2.5 8-6.3 5-8.5-2.9-2.1-9.8-1.7-15.5.8-5.7 2.6-8 6.4-5 8.5m-64.1-51.6c3.4 1.8 9.9 1.3 14.4-1s5.4-5.7 2-7.5-10-1.4-14.5 1c-4.5 2.3-5.4 5.6-2 7.5"/>
      <path fill="url(#linear-gradient-48)" fill-rule="evenodd" d="M262.3 150.5a592 592 0 0 0-67.1 21.3l26.4 24.8a591 591 0 0 1 74.2-24.3q-3.4-1.9-6.5-3.8c-10.4-6.4-19-12.3-27-18"/>
      <path fill="url(#linear-gradient-49)" fill-rule="evenodd" d="m262.3 150.5 5 3.6s-10.5 2.4-29.8 8.5c-23.6 7.6-38 13.3-38 13.3-2.2-2.3-4.3-4-4.3-4s14.8-6.2 40-14c17.4-5.3 27-7.4 27-7.4Z"/>
      <polygon fill="#575c34" fill-rule="evenodd" points="295.8 172.3 221.6 196.6 221.5 233.4 217.9 222.4 220.4 195.5 284.9 172.1 295.8 172.3"/>
      <path fill="url(#linear-gradient-50)" fill-rule="evenodd" d="m217.2 192.5 4.4 4.1c0 .2-.6 7.8-.7 17.8 0 8.5.6 19 .6 19l-5-5.4s-.4-7.4-.2-18c.2-7.4.9-17.5.9-17.6"/>
      <path fill="url(#linear-gradient-51)" fill-rule="evenodd" d="m289.3 168.5 6.5 3.8s-16.5 4-34.7 10.2c-20 6.7-39.5 14.1-39.5 14.1-2.3-2-4.4-4.2-4.4-4.2s15.8-6.2 40.8-14.6a298 298 0 0 1 31.3-9.3"/>
      <path fill="url(#linear-gradient-52)" fill-rule="evenodd" d="m195.2 171.8 4.4 4.1c0 .2-.7 5.8-.7 15.8 0 8.6 1 18 1 18l-3.8-4.1s-1.6-8.7-1.7-19.8c0-8 .8-13.9.8-14Z"/>
      <path fill="url(#linear-gradient-53)" fill-rule="evenodd" d="M193.2 192.7S174 174 166 167.6c-4.2-3.3-8.2-6-8.2-6l2-.4s3 2.1 6.4 5.1c7.3 6.4 26.9 26.4 26.9 26.4"/>
    </g>
    <path id="shadow-2" d="m276.6 212-28-6.8s-6.7-3.4-15.6-7c-11.4-4.6-15-5-15-5v36.4L194.5 204l14.3-22 33-15z" opacity=".3"/>
    <g id="_5-2">
      <path fill="url(#linear-gradient-54)" fill-rule="evenodd" d="M304.9 87.8c-26.5 13.7-50.9 27-71.5 39-25.2 15-44.7 28.3-55.4 39.2l-4.2-24.3 3.8-16.1c42-24.4 85-37.5 128.4-64.5l-.3 1.8-.2 1-2 1.3h1.8l-.1.6q-.6 3.7-.7 7.3v.9l-2.6 1.4h2.6v.5c0 1.4.2 10.5.4 12"/>
      <path fill="url(#linear-gradient-55)" fill-rule="evenodd" d="M178 166a321 321 0 0 0-74.5-30.3 157 157 0 0 0 .5-24.5l3.6-.7-3.8-1.8v-1.5l-.5-5.2c27.8 13.3 42.7 16.7 74.3 23.6-1.2 11.4-1.2 29 .4 40.4"/>
      <path fill="url(#linear-gradient-56)" fill-rule="evenodd" d="M177.6 125.6c-31.6-6.9-46.5-10.3-74.3-23.6l5.8-1.2c16.8 8.1 45 15.3 68.6 16.3a833 833 0 0 0 52.4-20c1.5-.4.4 1.5.4 2.1a585 585 0 0 0-52.9 26.4ZM259.2 86a454 454 0 0 0 46.8-25h-4.6a841 841 0 0 1-42.2 22.6z"/>
      <path fill="url(#linear-gradient-57)" fill-rule="evenodd" d="M103.3 102c19.8-5 169.1-41.4 169.1-41.4l31.4.5c-4.8 3.1-13.8 9.6-44.6 25-10 5-19.7 8.8-29.8 13.6-26 12.5-54.4 23.3-54.4 23.3s-11.4-1.1-29.2-5.1c-20.4-4.6-42.5-16-42.5-16"/>
      <path fill="url(#linear-gradient-58)" fill-rule="evenodd" d="M176.9 147.6s18.8-12.5 26.4-17c8.7-5.1 26.7-13.9 26.7-13.9s-30.7 15.2-43.6 26.3c-2.4 2-9.4 7-9.4 7s-3.2-2-9.1-4.6c-11.6-5.4-44.4-16.9-44.4-16.9l34.3 11.8c7.2 2.5 19 7.3 19 7.3"/>
      <path fill="url(#linear-gradient-59)" fill-rule="evenodd" d="M241.4 40.6C202.9 70.2 158.7 88 102.6 97.3c9.2 5.7 25.2 11.5 42.5 15.3 10.8 2.4 22.2 4 32.6 4.5 52-16.6 86.5-30.4 129.4-59.2-27.2-.1-55.7-5.5-65.7-17.3Z"/>
      <path fill="url(#linear-gradient-60)" fill-rule="evenodd" d="M228.9 129.5c1-9.5.5-28 .2-30.3l29.6-13.1c.1 4.7 0 20.7-.8 26.7z"/>
      <path fill="url(#linear-gradient-61)" fill-rule="evenodd" d="M274.2 91s12-5.8 16.8-8.4l13.5-7.3-2.6.1-11 6.5c-6.2 3.6-16.7 9.1-16.7 9.1Z"/>
      <path fill="url(#linear-gradient-62)" fill-rule="evenodd" d="M167.3 131s-21.3-4.4-53.2-16l-10.1-3.8 3.6-.7 10.8 4.6c24.8 10.4 49 16 49 16"/>
      <path fill="url(#linear-gradient-63)" fill-rule="evenodd" d="m303.6 65.2-1.8 1.2c-3 2-11.3 6.6-11.3 6.6l13-6.9 1.8-1z"/>
      <path fill="url(#linear-gradient-64)" fill-rule="evenodd" d="M258.7 86c-.9.6-4.7 2.3-4.7 2.3l.2 10.7c0 6.2-.9 16.5-.9 16.5l4.6-2.6s1.1-11.2 1.1-17.4c0-6.6-.3-9.4-.3-9.4Z"/>
      <path fill="url(#linear-gradient-65)" d="M241 63.8c3.2-1.3 9-1.4 13 0 4 1.2 4.7 3.4 1.5 4.7s-9.1 1.4-13.1.1-4.7-3.4-1.4-4.8m-90.8 27A354 354 0 0 0 181 80.3l19.7-8.8c6.8-3.4 13.3-7 18.4-10 12.6-7.3 22-14.5 22-14.5s3.4 2.5 9.2 5.1q6.4 3 16 5.4a155 155 0 0 0 16.5 3c6.2.8 11.6 1 11.6 1q.1 0-4.1 2.6a365.6 365.6 0 0 1-42.5 22.7c-2.4 1.1-10.5 4.8-15.1 6.7a846 846 0 0 1-52.5 18.7l-3.8 1-3.5-.1q-4.3-.1-11.7-1a199 199 0 0 1-35.5-8.5c-6.4-2.2-11.5-4.3-11.5-4.3s15.6-2.6 36.1-8.5Zm113.2-16.3c10.5-5.4 21-11.8 21-11.8s-5-.6-9.7-1.5c-5.1-.9-10.1-2.1-13-2.9q-4.1-1-10.5-3.5c-4.2-1.7-7.6-3.5-7.6-3.5S234.3 58 224 64q-7 3.9-13.7 7.2l-3.3 1.5 7.4-.4c16.7-.1 30.2 4.4 30.3 10.2q0 .6-.2 1l3-1.2zM134 104a188 188 0 0 0 22.7 5.2l6 .9c3.3.4 7 .3 7 .3l3.5-.6 4.4-1.1a483 483 0 0 0 41.2-14.3l3.7-1.5q-3.8.3-7.9.4c-16.6.1-30.1-4.4-30.2-10.2l-2.2 1a319.8 319.8 0 0 1-56.8 17zm34.1-2.3c4.4 1.2 10.8.9 14.2-.8 3.5-1.6 2.7-4-1.7-5.1a24 24 0 0 0-14.3.7c-3.4 1.7-2.6 4 1.8 5.2Z"/>
      <path fill="url(#linear-gradient-66)" fill-rule="evenodd" d="M258.7 86c-.4-2-59-19-61-18l-31 13.2c3-.4 61.9 15.2 62.4 18q15.4-6.4 29.6-13.1"/>
      <path fill="url(#linear-gradient-67)" fill-rule="evenodd" d="M258.7 86c-1.8 1-3 1.5-4.7 2.3 0 0-12.1-5.6-28.4-10.2-22-6.3-33-8-33-8l5-2.1s1.2-1.3 32.8 7.8c29 8.4 28.3 10.3 28.3 10.3"/>
      <polygon fill="#575c34" fill-rule="evenodd" points="231.1 125.9 228.9 129.5 229.1 99.2 166.7 81.2 194.4 86.6 231.6 98.1 231.1 125.9"/>
      <path fill="url(#linear-gradient-68)" fill-rule="evenodd" d="m234.6 96.9-5.5 2.3s.2 6 .1 12.6l-.6 17.9 5.4-3.1s.8-9.2.9-16.6c0-6.4-.3-13-.3-13.1"/>
      <path fill="url(#linear-gradient-69)" fill-rule="evenodd" d="m234.6 96.9-5.5 2.3s-2.3-1.8-23.7-8c-34.4-10-38.7-10-38.7-10l5.8-2.5s11.6 2.3 32.9 8c21.8 6 29.2 10.2 29.2 10.2"/>
    </g>
    <path fill-rule="evenodd" d="m308.8 135 7.8 6.4 2.4 16.9-2.9 3.2-7 8.4z" opacity=".5"/>
    <path fill-rule="evenodd" d="m283.3 73.5-6.3 2-6.8.9-6.3.8-7.2 3.6 10 1.7s.5 3 .4 6.7q-.1 5.8-.2 5.6l19.7-9z" opacity=".5"/>
    <g id="_9">
      <path fill="url(#linear-gradient-70)" fill-rule="evenodd" d="m203.2 176.4-3.7 4.9s14.3.8 33 6.8c26.6 8.6 44.2 23.9 44.2 23.9l19.6-26.5 20-25L243 186z"/>
      <path fill="url(#linear-gradient-71)" fill-rule="evenodd" d="m275.5 168.1-10 18.1 11.8 23.1q20-25.6 40.7-50a502 502 0 0 1 55.7-56.5l-.3-5.8v-1l-2-.4 2-1.5v-1.5c0-5 .5-9.5 1.4-15.5 0 0-10.2 6-19.5 13.4-6.5 5.2-14 11-17.6 14.3-16.5 14.8-62.2 63.3-62.2 63.3Z"/>
      <path fill="url(#linear-gradient-72)" fill-rule="evenodd" d="M199.4 178c.7-8 1-18.6-1.3-27.8l-.2-.8 2.4-1.4-3-.5-.2-.8a35 35 0 0 0-2.3-5.3c51.4-.6 50-11.7 80.7 26.7-1.7 12.6-2.7 28.4 1.8 41.2-35.7-23.5-51.9-28-77.9-31.3"/>
      <path fill="url(#linear-gradient-73)" fill-rule="evenodd" d="M275.5 168.1c35.5-35.8 69.9-69.5 99.7-94-21.7 3.3-44.8-6.9-61.8-12-35.7 29-75 53.8-118.5 79.3a202 202 0 0 1 80.6 26.7"/>
      <path fill="url(#linear-gradient-74)" fill-rule="evenodd" d="m274 186.7-11.5-6-15-7s8.8 4 15.8 8.8c4.8 3.2 10.8 7.7 10.8 7.7s7.4-11 14.1-19.3c5-6.1 24.3-26.7 24.3-26.7s-21.9 22.7-25 26.1c-4.7 5-13.4 16.4-13.4 16.4Z"/>
      <path fill="url(#linear-gradient-75)" fill-rule="evenodd" d="M274.3 179.5s-4-2.4-7-3.8l-9.2-4a84 84 0 0 0 16.1 10.1s1.4-2.4 5.3-7.6c2.9-3.8 6.3-7.5 6.3-7.5l-7 7c-2.3 2.3-4.5 5.7-4.5 5.7"/>
      <path fill="url(#linear-gradient-76)" fill-rule="evenodd" d="m275.8 203.5-6.7-4.7c-38-25-69.5-24-69.5-24a142 142 0 0 0 76.7 31.3s1.1-3 5-8.1c2.8-4 6.3-7.6 6.3-7.6l-7 7.6z"/>
      <path fill="url(#linear-gradient-77)" fill-rule="evenodd" d="M194.9 141.4c26.9 5 50.3 9.5 71.1 19.1 8 4 33.5-16.6 49.7-32.4 6.4-6 15.3-14.1 23.9-22.7C347.9 97.1 349 95 354 88q2.9-4.1 3.6-7.6c4.6-20-25-1.6-45.2-8.4-45.3 33-69.9 40.3-117.5 69.5"/>
      <path fill="url(#linear-gradient-78)" fill-rule="evenodd" d="M316.1 161.5c1.2-12.3.6-23.9-.4-33.3l23.9-22.8c.9 8.4.6 21.5-.6 30.7z"/>
      <path fill="url(#linear-gradient-79)" fill-rule="evenodd" d="m343 70.9 31.8 6.1s-12.6 9.4-18.2 13.9c-4.9 3.8-17 14.5-17 14.5l-13.7-14.6z"/>
      <path fill="url(#linear-gradient-80)" fill-rule="evenodd" d="M270 155.7c6.4 5.5 24-6.8 45.7-27.5 20-19.1 40.9-39.3 59.5-54.1C354 71.4 329 66 312 59c-9.7 10.7-20.6 18-38 30.7-26.1 19.2-63 38-82.5 37.5 31.7 2.4 50.7 12.3 78.6 28.5"/>
      <path fill="url(#linear-gradient-81)" fill-rule="evenodd" d="M200.3 148s9.3 1.7 13.3 2.6c23.7 5.3 38.6 12.1 38.6 12.1s-19-7.5-38.9-11c-3.8-.7-15.4-2.3-15.4-2.3z"/>
      <path fill="url(#linear-gradient-82)" d="M208.7 127.7h.2zm156-50.8-24.2 21.6-11.6 10.5c-4.4 4.4-6.6 5.9-11.8 10.7L302.4 133q-9.4 8.5-16.2 12.9c-11.3 7.2-16.9 6.6-16.9 6.6s-19.3-11.3-33.6-17.1c-15-6-25.4-7.5-26.8-7.7.8.1 4.7 0 16-4.3a271 271 0 0 0 39-21c7.7-5.2 8.4-5.2 15.7-10.7 7.7-5.5 14.1-10.5 18-13.4 9.9-7.7 16-13.6 16-13.6s3.4 1.3 8.1 2.8a297 297 0 0 0 43 9.4M306.2 122l.6-.5q-5.1 1.2-11 1c-15.6-.2-28.1-7.6-28-16.4l.1-.4-3.5 2.5a274 274 0 0 1-34.1 18c-5 2.1-8.2 3-8.2 3s13.5 4.4 19 7.2l22.8 11.4s11 .8 26-11.7c4.5-3.7 10.2-8.7 16.3-14m50-44.3s-10.7-1.7-20.9-4.3c-3-.8-7.7-2-13-3.6l-5.3-1.5s-13.4 11.8-21.6 18l-5.4 4-1.2.8q3.6-.5 7.6-.4c15 .2 27 7.1 27.8 15.5l3.3-3 10-8.6c6-5.1 18.8-16.9 18.8-16.9M268 126.5c-5.2-2.3-11.5-2.6-14-.6-2.7 2-.6 5.4 4.5 7.7 5.2 2.3 11.5 2.5 14.1.6 2.6-2 .6-5.4-4.6-7.7M328.6 80c-4.2-2-10-2.4-13.2-.7-3 1.6-2.2 4.7 1.9 6.8s10 2.4 13.1.8c3.1-1.7 2.3-4.8-1.8-6.9"/>
      <path fill="url(#linear-gradient-83)" fill-rule="evenodd" d="M278.5 86.5c23 5.7 39.3 11 61 19L315.8 128c-23.2-8.9-43.3-15.6-67.4-21.6l5.8-3.5c9.5-5.8 17.2-11.2 24.4-16.5"/>
      <path fill="url(#linear-gradient-84)" fill-rule="evenodd" d="m278.5 86.5-4.5 3.3s9.5 2 27.1 7.6c21.5 6.7 34.5 11.8 34.5 11.8 2-2.2 4-3.8 4-3.8S326 100 303 93.1a336 336 0 0 0-24.6-6.6"/>
      <polygon fill="#575c34" fill-rule="evenodd" points="248.3 106.5 315.7 128.2 316.1 161.5 319.2 151.5 316.9 127.1 258.1 106.3 248.3 106.5"/>
      <path fill="url(#linear-gradient-85)" fill-rule="evenodd" d="m319.8 124.3-4 3.9s.6 7 .7 16c0 7.8-.4 17.3-.4 17.3l4.4-4.9s.5-6.7.2-16.3c-.2-6.7-1-16-1-16Z"/>
      <path fill="url(#linear-gradient-86)" fill-rule="evenodd" d="M254.1 103c-1.4 1-4 2.4-5.8 3.5 0 0 15 3.6 31.5 9 18.2 6 36 12.7 36 12.7l4-3.9s-14.5-5.6-37.2-13c-21.6-7-28.5-8.3-28.5-8.3Z"/>
      <path fill="url(#linear-gradient-87)" fill-rule="evenodd" d="m339.6 105.4-4 3.8c0 .1.6 5.3.7 14.3.1 7.8-.8 16.4-.8 16.4l3.5-3.8s1.4-7.9 1.3-18c0-7.3-.7-12.6-.7-12.7Z"/>
      <path fill="url(#linear-gradient-88)" fill-rule="evenodd" d="M341.5 124.4s17.3-17.1 24.5-23c3.7-3 7.4-5.5 7.4-5.5l-2-.4s-2.5 2-5.6 4.8a752 752 0 0 0-24.3 24"/>
    </g>
    <path fill-rule="evenodd" d="m308.8 135-4 3.8.3 35.9 2.4-2.9 4.8-5.8 3.8-4.5 3-3.2-3.7-14.2z" opacity=".5"/>
    <polygon id="shadow-3" points="308.8 134.9 304.9 138.8 258.4 100.3 267.3 94.5 274 89.8 282.1 83.9 298.1 104.5 308.8 134.9" opacity=".3"/>
    <path id="shadow-4" d="M160.4 129s-1.2-7.3-14.9-11a216 216 0 0 1-42.2-16l5.4-1.4-6-3.3 15-2.8c7-1.4 15.4-3.4 15.4-3.4l50.6 12.8-9.3 9.3-11.4 9.2z" opacity=".3"/>
    <g id="_7">
      <path fill="url(#linear-gradient-89)" d="M300 53.2s14.8-2.2 22.6-3.2c6.2-.8 12.5-1.4 12.5-1.4l-2-1s-8.4 1-18.2 2.8z"/>
      <path fill="url(#linear-gradient-90)" fill-rule="evenodd" d="M291.5 72s10.3-2.2 22.6-3.7c14.5-1.9 22.7-1.8 22.7-1.8l-5.6-3-23.5 1.8z"/>
      <path fill="url(#linear-gradient-91)" fill-rule="evenodd" d="M164.6 121.9c1.4-13.8.3-32.7-3.6-44.3A215 215 0 0 0 117.4 53a63 63 0 0 1 8.7 25l1.6.8-1.4.6v.5c.2 2 .2 5.2.2 7.2a105 105 0 0 1 38 34.7"/>
      <path fill="url(#linear-gradient-92)" fill-rule="evenodd" d="M225 60.7c1.1 9.5 2 20.3 1.7 30-19.3 7.2-42 16-62.1 31.1 1.4-13.7.3-32.6-3.6-44.2 21.2-5.3 41.6-12.4 64-17m45-10.8c.8 9 1.2 18.5.3 27.2a853 853 0 0 1 66.5-13.8 49 49 0 0 1-1.7-13.9v-.9l-2-.9 2-.3.1-1q.3-4.3 1.2-8.3c-21.7 3.2-43.9 6.8-66.4 11.9"/>
      <path fill="url(#linear-gradient-93)" fill-rule="evenodd" d="m117.4 53 5.5-.4c11 6.4 26 13.3 39 17.5a520 520 0 0 0 63-10l.1.6c-21.3 5.3-42.8 11.6-64 16.9A215 215 0 0 0 117.4 53"/>
      <path fill="url(#linear-gradient-94)" fill-rule="evenodd" d="M270 49.9c22.5-5 44.7-8.7 66.4-12l-3.2-1.5c-19.8 2.6-40.3 7.7-63.2 13z"/>
      <path fill="url(#linear-gradient-95)" fill-rule="evenodd" d="M117.4 53s11.1 4.8 33.2 16.5c2.6 1.4 8.7 4.1 8.7 4.1s10.3-1.7 28.3-5.2c18.5-3.7 41.7-9.3 41.7-9.3l-65.6 2.8-40.8-9.3z"/>
      <path fill="url(#linear-gradient-96)" fill-rule="evenodd" d="M162.7 83.9s-6-4.3-10.8-6.9l-12.8-6.8s9.9 5.9 13.8 8.7l10.3 7.2s1.8-1.1 13.7-5.3c8.2-2.8 21.3-6.7 21.3-6.7z"/>
      <path fill="url(#linear-gradient-97)" fill-rule="evenodd" d="M165.2 111.9s-5.3-5.2-10.5-9.6c-5.9-4.9-14.1-10.7-14.1-10.7s9.6 7.9 14 12c7 7 10.5 11 10.5 11s7.2-4.6 14.3-8.5c10.1-5.5 34-15.3 34-15.3s-23.5 9.4-30.5 12.7z"/>
      <path fill="url(#linear-gradient-98)" fill-rule="evenodd" d="M115.2 47.7c10.5 7.4 30.3 17 46.7 22.3a480 480 0 0 0 63-10.2l-.1-.6 45.1-10.5v.7c23.7-5.4 46.9-10.9 67-13.5a342 342 0 0 0-51.2-16.6c-48.9 20.6-126.3 30.2-170.5 28.4Z"/>
      <path fill="url(#linear-gradient-99)" fill-rule="evenodd" d="M207 40.6c-29.3 5.3-68 7.5-88.6 7.2 17 9 35.8 14.7 48.8 16 25.2 2.5 58.6-4.4 58.6-4.4 3.2-.8 5.6-1.8 9.1-2.6z"/>
      <path fill="url(#linear-gradient-100)" fill-rule="evenodd" d="M207 40.6a528 528 0 0 1-79 7.2 133 133 0 0 0 46.6 13.7c26.8 2.5 50.6-2.2 50.6-2.2l9.7-2.5z"/>
      <path fill="url(#linear-gradient-101)" fill-rule="evenodd" d="M285.7 19.3a346 346 0 0 1-53.1 17l16.3 17.3 21-4.7c.4 0 45.7-14.2 57.4-17-15-5.6-26-8.7-41.6-12.6"/>
      <path fill="url(#linear-gradient-102)" fill-rule="evenodd" d="M114 36.5a139 139 0 0 0 59.2 14c27.9 27.7 127.3-8.4 167.4-32.1-26.7 1.3-48.4-5.1-59.2-10.2-16.2 14.6-49.2 29.1-87.7 34a198 198 0 0 1-79.7-5.7"/>
      <path fill="url(#linear-gradient-103)" fill-rule="evenodd" d="M165 104.5 143.4 89s7 5.6 11 9l10.8 8.8s5.5-3.3 11.8-5.7c7.4-3 12.7-4.8 12.7-4.8z"/>
      <path fill="url(#linear-gradient-104)" fill-rule="evenodd" d="m263.8 50.2-33 7.7v.4c1 9.7 1.7 20.1 1.6 30.3q16-5.5 32.2-10c.6-9.4.4-19.3-.7-28z"/>
      <path fill="url(#linear-gradient-105)" fill-rule="evenodd" d="M263.9 50.5c1 8.8 1.3 18.7.7 28.1l5.7-1.5.2-1.6q.8-12.4-.4-24.8l-.2-2-6 1.5z"/>
      <path fill="url(#linear-gradient-106)" fill-rule="evenodd" d="M126.3 79.4s2.5 1 5.5 2.7c3.5 2 9.8 6 15.2 9.9 2.3 1.6.1-.3.1-.3l-3.7-2.6-10.3-7c-2.2-1.5-5.4-3.3-5.4-3.3z"/>
      <path fill="url(#linear-gradient-107)" fill-rule="evenodd" d="M292 54.5s12.7-2.4 36.1-5.2l7-.8-2-.9-12.1 1.8c-20.1 3.3-29 5-29 5"/>
      <path fill="url(#linear-gradient-108)" d="M303 19.6c-9.7-2.3-16.6-4.6-21.6-6.9 0 0-13.5 9.3-26.7 15.1a173 173 0 0 1-41.4 13c-15.5 2.9-25.1 4.8-42.5 5.2-15.3.3-27.2-.9-35.3-2.3-7.7-1.3-12-2.8-12-2.8s2.4 1.7 7.2 4c6 1.4 21.9 4.3 43 3.6a203 203 0 0 0 32-3.6q-3.6 2.3-3.4 4.4c.5 4.3 13.7 6.2 29.4 4.2h.2l-1.2.2c-11 2.2-30.5 6.3-41.8 5-15-2-47.5-10.7-57.7-13.5 9.7 4.7 28.6 12 57.1 15.2 14 1.5 25.8-.6 41.3-3.8 42.4-8.7 62-18.3 75-23.3 8.4-3.3 14.6-6.6 25.4-11.7-7 1.3-22.4-1-27-2m-1.5 11.6a433 433 0 0 1-49.2 17c4.4-2 7-4.1 6.8-6.1-.5-3.6-9.4-5.4-21.2-5 7-2.2 13.8-4.9 19.3-7.4 16-7.2 26.3-14.5 26.3-14.5s9.8 3.7 20.5 5.8c6.7 1.4 15.4 2 15.4 2s-3.8 2.5-17.9 8.2M130.7 45l.5.3-3.2-1zM190 55a57 57 0 0 1-15.5.7c-4.6-.5-5.3-1.6-1.5-2.4a57 57 0 0 1 15.4-.7q7.2 1 1.6 2.5m94.7-27.2c.7 1.9-2.8 4.7-7.7 6.3-4.8 1.6-9.3 1.3-10-.6-.5-1.9 3-4.7 7.8-6.3 4.9-1.6 9.3-1.3 10 .6"/>
      <path fill="url(#linear-gradient-109)" fill-rule="evenodd" d="m235.3 36 28.6 14.5 6-1.8-28.6-13.9-1.8-.9-3.2-1.5L231 34h.2l2.5 1.3z"/>
      <path fill="url(#linear-gradient-110)" fill-rule="evenodd" d="m200.3 41.2.6.3 2 1.1 27.9 15.7c5-.7 12.5-2.4 17.7-3.6 5.8-1.4 9.5-2.5 15.4-4.2l-28.6-14.4-1.6-.8-2.5-1.2-.2-.1q-15.1 4-31 7z"/>
      <path fill="url(#linear-gradient-111)" fill-rule="evenodd" d="M173.2 50.5c-23.8-.7-46.4-6.8-59.2-14 47.8 28.7 77.3 26.8 107.7 23-21 2.5-39 .5-48.5-9"/>
      <path fill="url(#linear-gradient-112)" fill-rule="evenodd" d="m224.3 59.3.5-.1z"/>
      <polygon fill="#575c34" fill-rule="evenodd" points="193.7 42.1 224.1 59.3 226.3 90.9 230.4 77.6 227.5 59 196.4 41.7 193.7 42.1"/>
      <path fill="url(#linear-gradient-113)" fill-rule="evenodd" d="M230.8 58.3V58l-6 1.3v.7l.3 1.5c0 1 .4 3.6.6 5.4.7 7 1 16.2.6 24l6.1-2.1q0-15.7-1.6-30.4"/>
      <path fill="url(#linear-gradient-114)" fill-rule="evenodd" d="m200.3 41.2-.3-.1-6.3 1 .7.4 2.2 1.3 28.2 15.4c3.6-.4 6-.9 6-.9l-27.9-15.7-2-1z"/>
    </g>
    <polygon fill-rule="evenodd" points="255.8 52.8 256.7 80.8 264.6 78.6 270.3 77.1 277 75.4 268.7 59.5 260.7 51.5 255.8 52.8" opacity=".5"/>
    <polygon fill-rule="evenodd" points="265.6 42.7 247.7 42.9 255.8 52.8 260.7 51.5 265.6 42.7" opacity=".5"/>
    <g id="_12">
      <path fill="url(#linear-gradient-115)" fill-rule="evenodd" d="M263.5 44.9h-8s7.4 8 25 36.1c2.7 4.2 14.2 14 14.2 14s3.2 17 5.7 22c22.1 45.5 28.7 68.5 28.7 68.5s9-5.8 29.3-14.8c29.3-13 59-15.4 59-15.4L390 132 323 35.1z"/>
      <path fill="url(#linear-gradient-116)" fill-rule="evenodd" d="m403.7 143.5 23.6-21.1c-42.6-32-77-64.8-101.4-112.5q-31.6 9.4-64.9 6.7l25.4 57.1 40.1 71.8 11.8 2 33.6 3.2z"/>
      <path fill="url(#linear-gradient-117)" fill-rule="evenodd" d="m340 169-9 12a915 915 0 0 0-74.2-138.8l1.3-3.4 1.9.2-1.3-2 .2-.6q1.8-5 2.3-10l.2-1.2h1.8l-1.7-2.6v-.3q0-3-.5-5.8c25.4 49.5 46.2 84.9 77.3 131z"/>
      <path fill="url(#linear-gradient-118)" fill-rule="evenodd" d="M338.3 147.5A105 105 0 0 1 331 181c28.8-15 56.6-22.2 86.7-28.4q.7-4.7 1.6-8.7l.3-1-2-1.5 2.5-.5.3-1.3c.9-3.1 1.4-5.1 3-8.8l.2-.8-1.4-1 2.3-1 1.5-3 1.3-2.7c-26.4 12.6-55.1 19-89 25Z"/>
      <path fill="url(#linear-gradient-119)" fill-rule="evenodd" d="M417.6 115C360 69.5 325.4 14 325.4 14s-60.6 3.5-64.4 2.6c4.3 6.6 12.3 23.3 29.4 52.3 6 10.3 13 22.4 22.9 37.2 16.2 24.5 25 36.1 25 36.1s27.2-3.9 55.5-14.8a87 87 0 0 0 23.7-12.5Z"/>
      <path fill="url(#linear-gradient-120)" fill-rule="evenodd" d="M334 172.3s-1.6-4.4-4.7-11c-8-17-27.8-48.9-27.8-48.9s22.2 38 26.8 49.7c3.4 8.6 4.6 13.7 4.6 13.7s6-3.5 16.5-8.4a307 307 0 0 1 69.4-20.5s-32.7 4.2-69.4 19.2c-8.2 3.3-15.3 6-15.3 6.2"/>
      <path fill="url(#linear-gradient-121)" fill-rule="evenodd" d="m417.6 141.5-9 2.3c-6.5 1.7-16.4 5.1-16.4 5.1s11.4-3.2 16.7-4.2l10.7-1.8z"/>
      <path fill="url(#linear-gradient-122)" fill-rule="evenodd" d="m422.2 129-6.4 2.6c-22.3 8.5-51.5 14.8-51.5 14.8s31.2-6.6 52.5-13.7c4-1.3 6.9-2.6 6.9-2.6z"/>
      <path fill="url(#linear-gradient-123)" fill-rule="evenodd" d="m277.9 69.7-10.6-16.9-9.3-14 2 .2s5.9 9.7 8 13.4z"/>
      <path fill="url(#linear-gradient-124)" fill-rule="evenodd" d="m279.3 55.1-10-17.2-8-12.7h1.9s4.8 8.5 6.8 12.3z"/>
      <path fill="url(#linear-gradient-125)" fill-rule="evenodd" d="M340.5 136.4c18.8 2 83.4-15.3 88.9-33.7-14 11.5-45-11.3-72.1-52.5A197 197 0 0 1 335.5 0c-26.7 5.4-45.9 6-73.1 6.5A367 367 0 0 0 306 94c10 15.3 23.6 35.4 34.5 42.4"/>
      <polygon fill="url(#linear-gradient-126)" fill-rule="evenodd" points="280.6 81 300.4 117.1 306 94 285.4 60.3 280.6 81"/>
      <path fill="url(#linear-gradient-127)" fill-rule="evenodd" d="M285.4 60.3c.6.8 3.2 5.5 3.2 5.5l-2.3 8.9-2.5 12.3-3.2-6s.3-3.7 1.8-9.6z"/>
      <path fill="url(#linear-gradient-128)" fill-rule="evenodd" d="M302.3 88.2c.7.9 3.7 5.8 3.7 5.8l-2.7 11.1-3 12-3.5-6.5s.8-4.7 2.5-11.4z"/>
      <path fill="url(#linear-gradient-129)" d="M302.7 34.5c-2.7-3-1.2-6.5 3.4-8 4.5-1.3 10.5 0 13.3 2.9 2.8 3 1.3 6.5-3.3 7.9s-10.6.2-13.4-2.8m116 75.4s-10.7 8.5-36.2 16c-13.6 3.8-24.1 5.6-29.7 6.3-3.4.4-5.1 0-5.1 0s-9.5-3.1-29.2-31.3q-4.6-6.3-9.3-14c-7.2-11.2-9.5-15.6-13.1-21.8q-5.9-9.9-10.6-19.9c-8.4-17.6-13.6-32.9-13.6-32.9l14-.4 14.6-1a256 256 0 0 0 30.8-4.2s3 12.2 10.5 27.6q5.6 11.6 12.2 22c4.8 6.8 9.6 12.5 15.3 20 8.1 9.7 14.7 16.5 21.6 21.6 19.5 14.5 27.9 12 27.9 12Zm-118-50.5 1.1 1.8c4.4-8.3 19-11.9 34.4-8q6.4 1.5 11.7 4.2l-3-4.2a135 135 0 0 1-10.1-18.3c-6.3-14.4-9.8-24.6-9.8-24.6s-10.3 1.9-23.2 2.8l-14.4 1-7.4.3 2.4 6.3a294 294 0 0 0 10 22.6zm104.4 55.1s-11-3.9-22.4-14.4c-6.1-5.6-11.5-11.2-17-17.8l-2.7-3.9-.2.6c-2.4 10-18.3 14.9-35.4 10.7q-5.5-1.2-10.1-3.5l2.4 4a261 261 0 0 0 12.4 17.4c16 20.3 25.5 20.9 25.5 20.9s4.7-.7 10.3-2a187 187 0 0 0 28.4-8.2c4.6-1.8 8.8-3.8 8.8-3.8Zm-46.6-12.3c-5.3 1.3-8 4.8-5.8 7.7 2 3 8 4.4 13.4 3 5.3-1.2 8-4.7 5.8-7.6-2-3-8-4.4-13.3-3"/>
      <path fill="url(#linear-gradient-130)" fill-rule="evenodd" d="m306 94 74.7-13.7a343 343 0 0 1-23.4-30.1l-72 10c6.6 11 14 23.7 20.7 33.8"/>
      <path fill="url(#linear-gradient-131)" fill-rule="evenodd" d="M302.3 88.2c.6 1.2 2.2 3.7 3.7 5.8l36.9-6.7c18.6-3.3 37.8-7 37.8-7l-4.1-4.9S355.3 79.2 338 82c-25.4 4-35.9 6.2-35.9 6.2Z"/>
      <path fill="url(#linear-gradient-132)" fill-rule="evenodd" d="M285.4 60.3c.6 1.3 2 3.4 3.2 5.5 0 0 10.6-1.8 28.5-4.5 21.4-3.2 43.6-6.3 43.6-6.3l-3.4-4.8s-7.2.7-36.8 4.9c-32 4.5-35.1 5.2-35.1 5.2Z"/>
      <polygon fill="#575c34" fill-rule="evenodd" points="306.2 94.3 380.7 80.3 306 94 300.4 117.1 306.2 94.3"/>
    </g>
    <polygon fill-rule="evenodd" points="212.8 183.1 208.6 184.6 208.9 219.6 194.5 204 204.7 179.5 223.6 155.1 212.8 183.1" opacity=".3"/>
    <path fill="#afafaf" fill-rule="evenodd" d="M116 288.4s19.8-12.6 45.7-41.5c25-27.8 47.2-27.3 47.2-27.3L194.5 204l-43.2 42.4z"/>
    <path fill="url(#linear-gradient-133)" d="M116 288.4s-18.3-2.8-37.3-6.8C38.7 273 18 255 18 255s13.8 5.1 34.8-6.4c6.3-3.5 47-28.7 47-28.7l-6.4 39.8z"/>
    <path fill="url(#linear-gradient-134)" fill-rule="evenodd" d="M116 288.4c-21.4-.6-91-30-94.3-51.5 14 15 52-5.7 88.8-47.6 13-14.8 26-38.3 32.1-52.8 29.1 10.2 50.5 13.8 81 18.6a415 415 0 0 1-62.5 91.2c-13.5 15.5-31.9 36-45.1 42.1"/>
    <path fill="url(#linear-gradient-135)" d="M106.4 256.9c-2.7 3-9.7 3.6-15.4 1.3s-8.2-6.5-5.4-9.5 9.7-3.6 15.4-1.3 8.2 6.5 5.4 9.5M212 160.1s-8.3 16.4-20.4 34.8a280 280 0 0 1-15 20.6c-5 6.3-8.1 11-18 22.3q-6.4 7.9-12.5 14.3c-26.4 28.5-37.6 30.5-37.6 30.5s-2 .1-5.7-.8A215 215 0 0 1 70.6 270c-27.5-12.3-38.2-23.5-38.2-23.5s9 4.1 33.1-9.1c8.5-4.6 17-11.3 27.6-20.8 7.5-7.5 13.8-13.2 20.1-20.1 6-6.9 11.8-14.8 17.1-22.7 10.7-16 16-29.3 16-29.3s3.7 1.4 9.6 3.2c6.2 2 15 4.4 24.2 6.4l16.3 3.3c8.2 1.5 15.6 2.6 15.6 2.6m-62.3 75.7q-5.4 1.8-11.8 2.4c-19.9 2-36.9-5.8-38-17.5l-.1-.7-3.7 4c-7.1 6.5-14 12-21.7 17.2A83 83 0 0 1 47 254a156 156 0 0 0 25.2 13.4c4.4 2 9.7 4.1 14.6 5.9 6 2.2 11.2 3.7 11.2 3.7s10.7.8 31.8-19.4c5.8-5.6 11.5-11.8 16.6-17.6zm4.7-29.9q-5-1.4-11 1.7-2.6 1.4-5.2 3.2l-5 3.8-13-3.5q3.4-3.6 7-4.8 3.3-1.3 6.3-.8l3-3.6q-4.4-.9-9.6.9a27 27 0 0 0-10.6 7.2l-4.4-1.2-1.5 1.7 4.3 1.1q-4.6 5.6-4 9 .5 3.6 5 4.7 2.4.8 5 .2 2.4-.5 5.6-2 3.2-1.4 9-6.2l13.8 3.9q-3.5 3.5-7.1 5a12 12 0 0 1-7.6 1l-3.1 3.6q2.5.5 5.2.3 8.7-.5 16.7-8.8l5.7 1.6 1.5-1.7-5.7-1.6q4.8-5.5 4.7-9.4t-5-5.3Zm48.2-44.7-8.2-1.5-16-3.3c-14.3-3-25.6-6.8-25.6-6.8s-5.4 11-14.8 26.1a152 152 0 0 1-14 18.9l-4 4.3q6.1-2.3 13.6-3c18-1.9 33.7 4.4 37.3 14.3l1.5-1.8q5.4-7.4 11.8-16.8c6.1-8.9 11.2-17.6 14.7-23.7zm-86.8 58.3q.3 1.8 3 2.5 1 .3 2.5 0t3.1-1.1q2.6-1.5 6.8-4.7l-12.5-3.4q-3.4 4.2-3 6.7m35.5-10.2q-3.8-1-10.2 3.6l-3.8 3 13.4 3.6q3.3-4 3.7-6.5.2-2.7-3-3.7Zm20.2-38.5c-4.9-2.3-11.8-1.8-15.3 1-3.6 3-2.5 7.2 2.4 9.5s11.8 1.8 15.4-1c3.6-3 2.5-7.1-2.5-9.5"/>
  </g>
</svg>
