<svg xmlns="http://www.w3.org/2000/svg" width="569" height="271" viewBox="0 0 569 271">
  <defs>
    <clipPath id="clippath">
      <path fill="none" d="M380.4 42.8c-2.5-3-19.1-31.2-34.4-36.5-69.8-24.5-129.3 29.8-37 38.3-8.8 7.3-7.8 60.5-4 64.7h89.7s-5-54.8-14.3-66.5"/>
    </clipPath>
  </defs>
  <g id="Layer_2">
    <g id="auto">
      <path fill="#f5a91c" d="m70.9 94.8 16.4-4.9 28.3-13.5 15.2 48.6c-12.7 13.4-25.4 21.5-38.1 16z"/>
      <polygon fill="#fff" points="100.3 142.8 80.9 93.9 77 94.2 96.7 142.1 100.3 142.8"/>
      <path fill="#f5a91c" d="m115.6 76.4-20.8 5.2-24 13.2 11-1q6.8-.8 12.7-4.3z"/>
      <polygon fill="#fff" points="105.5 82.8 123.6 131.4 117.7 136.7 98 87.1 105.5 82.8"/>
      <polygon fill="#fff" points="77 94.2 101.6 79.9 104.8 79.1 80.9 93.9 77 94.2"/>
      <polygon fill="#fff" points="105.5 82.8 87 85.9 82.3 88.5 98 87.1 105.5 82.8"/>
      <path fill="#fff" d="m93.6 84.8.1-.3.2-.2.8-1.3.8-1.1.5-.6.4-.5 1-1.1 1-1A30 30 0 0 1 103 75l2.1-1.7q.5-.4.5-.7V72l-.8-1-1-.9-.5-.4a2 2 0 0 0-1.7-.5q-.7 0-1.3.4l-1 .9q-1 1-1.7 2.2L96.3 75l-1.1 2.5-1.8 5.2-.1 1.4v1.3q0-.4.3-.7Zm-.5.7-.1-.2-.2-.3a6 6 0 0 1-.4-2.2q0-1.5.2-3a17 17 0 0 1 2.2-5.5 18 18 0 0 1 4-4.3q1-1 2.6-1.5h1.6l.7.4.7.3 1.3.8.6.5.6.6.1.2.1.2.1.2.1.3v.3l.1.2v.6l-.1.3-.1.2-.1.2-.1.2-.1.2-.2.2-.2.4-2.3 2-2.2 1.7-2.2 1.7-4.4 3.6-1 1-.3.2-.3.3-.6.4z"/>
      <path fill="#fff" d="M93.3 86.7h-.4l-.4-.2-1.4-.3q-1.4-.4-2.8-.6l-2.7-.6-2.7-.5L80 84q-1.5-.2-3-.8l-.3-.1-.2-.1-.2-.2-.2-.1-.2-.2-.2-.1-.2-.2-.2-.3-.1-.2-.1-.3v-.3L75 81v-.7l.2-.9.4-.7.7-1.3.5-.6 1.2-1q.4-.3.7-.3 1.5-.4 3 0a22 22 0 0 1 5.5 2l2.4 1.8a17 17 0 0 1 3.7 4.6L94 86v.9zm.4-.1v-.1l-.2-.4-.3-.5-.8-1.2a22 22 0 0 0-4-3.8l-2-1.7-2.3-1.6q-1.1-.8-2.4-1.2l-1.4-.2-1.3.1-1 .7-.3.5-.3.7L77 79q-.2.8-.2 1.2v.5l.1.1q.3.3.9.5l2.6.5a57 57 0 0 1 7 1.6l1.4.5.7.2.6.3 1.3.7 1.3.7.2.2.3.2z"/>
      <path fill="#737374" d="M111.8 81.1c2.2-2.9 2.5-4 3.6-2 1 2 11.8 38.1 12.6 43s-2.6 2.2-5-5.9c-2.3-8-5.5-25.5-7.4-27.8s-3.8-7.3-3.8-7.3"/>
      <polygon fill="#6451a1" points="64 143.4 38.2 129.1 38.1 103.3 69.1 113.7 64 143.4"/>
      <polygon fill="#6451a1" points="64 143.4 78.9 136.4 85.8 111.6 69.1 113.7 64 143.4"/>
      <polygon fill="#fff" points="71.9 139.8 75.8 112.8 79.7 112.3 75.2 138.2 71.9 139.8"/>
      <polygon fill="#eae1be" points="64 143.4 78.9 136.4 85.8 111.6 69.1 113.7 64 143.4"/>
      <polygon fill="#6451a1" points="38.1 103.3 59.6 103.9 85.8 111.6 69.1 113.7 38.1 103.3"/>
      <polygon fill="#fff" points="49.4 107.4 46.6 133.7 53.6 137.6 57.7 109.9 49.4 107.4"/>
      <polygon fill="#fff" points="79.7 112.3 52.6 103.7 49.3 103.6 75.8 112.8 79.7 112.3"/>
      <polygon fill="#fff" points="49.4 107.4 68.2 106.4 73.3 107.9 57.7 109.9 49.4 107.4"/>
      <path fill="#fff" d="m62 107.3-.1-.1v-.1l-.1-.4-.2-.6q-.1-.7-.4-1.3a22 22 0 0 0-2.8-4.7L56.7 98 55 95.7 52.9 94l-1.2-.6-1.3-.2-1.1.4-.5.5-.4.5-.8 1.1-.5 1v.7l.7.7 2.4 1.1 5.2 2.6 1.2.8 1.2.8.6.4.5.5 1.1 1 1 1q.2 0 .3.2l.2.2q0 .3.4.6Zm0 .2-.6-.3-.4-.2-.3-.2-1.3-.7-2.5-1.3-2.5-1.2-2.5-1.1-2.6-1.3q-1.2-.5-2.6-1.5l-.3-.2-.2-.2-.1-.2-.2-.1-.1-.2-.2-.3-.1-.2-.1-.3v-.2l-.1-.3v-.6l.2-.5v-.2l.5-.7.5-.6 1-1 .6-.5a4 4 0 0 1 1.5-.8h.8q1.5 0 2.8.8a22 22 0 0 1 4.8 3.4L60 99a17 17 0 0 1 2.3 5.4v2.8z"/>
      <path fill="#fff" d="m61.6 108.8-.1-.2v-.2l-.2-.4v-.7q0-.7.2-1.5.4-1.5 1-2.8a18 18 0 0 1 3.5-4.7 18 18 0 0 1 5-3.3q1.3-.7 2.8-.7l.8.1.8.3.6.5.6.5 1 1.1.5.6.4.8v.2l.2.2v1.1l-.1.3-.1.2-.1.3-.2.2-.2.2-.1.2-.2.1-.2.2-.3.2q-1.4.9-2.7 1.5l-2.6 1-2.6 1.1-2.5 1.1-2.6 1.2-1.2.7-.4.2-.4.1zm0-.2.5-.5.2-.3.3-.2 1-1 1.2-.9.5-.4.6-.4 1.3-.8 1.2-.7a30 30 0 0 1 5.3-2.4l2.4-1 .8-.7v-.6q0-.5-.4-1l-.8-1.2-.4-.6-.4-.4q-.5-.4-1.1-.5t-1.3.2q-.7 0-1.3.5-1.2.6-2.1 1.7-1 1-1.8 2l-1.8 2.2-3 4.5-.5 1.3-.2.6v.5z"/>
      <path fill="#737374" d="M42.9 107.1c-2.8-2.4-3.4-3.4-4-1.1-.5 2.2 1.1 14.6 1.4 19.5s3 1.6 3.6-6.7c.5-8.4-4.5-1-3.1-3.8 1.4-2.6 2-7.9 2-7.9"/>
      <polygon fill="#f5a91c" points="145.8 152.6 173.7 142.9 178.1 92.1 145.8 97 145.8 152.6"/>
      <polygon fill="#f5a91c" points="145.8 152.6 132.3 143.2 129.7 92.1 145.8 97 145.8 152.6"/>
      <polygon fill="#fff" points="138.6 147.7 139.3 95 135.6 93.9 135.6 145.6 138.6 147.7"/>
      <polygon fill="#eae1be" points="145.8 152.6 132.3 143.2 129.7 92.1 145.8 97 145.8 152.6"/>
      <polygon fill="#f5a91c" points="178.1 92.1 156.9 89 129.7 92.1 145.8 97 178.1 92.1"/>
      <polygon fill="#fff" points="166.3 94.2 164.6 146.1 157.1 148.7 157.7 95.3 166.3 94.2"/>
      <polygon fill="#fff" points="135.6 93.9 163.8 90 167.1 90.5 139.3 95 135.6 93.9"/>
      <polygon fill="#fff" points="166.3 94.2 148 90 142.7 90.6 157.7 95.3 166.3 94.2"/>
      <path fill="#fff" d="m154.5 91.5.3-.2.2-.2 1.2-.8 1.2-.8.7-.3.6-.4 1.3-.6 1.4-.5a31 31 0 0 1 5.5-1.7q1.4-.3 2.5-.7.6-.2.8-.5l.1-.1v-.1l.1-.1V84l-.3-1.1-.6-1.2-.3-.7-.4-.4q-.4-.5-1-.6-.7-.2-1.3-.1l-1.4.3q-1.2.6-2.3 1.5l-2 1.8-2 1.9-3.6 4.1-1.1 2.1v.2h-.1q.3-.1.5-.4Zm-.7.4v-1.3q0-.7.4-1.5.5-1.5 1.4-2.6a17 17 0 0 1 4-4.3 17 17 0 0 1 5.3-2.5q1.5-.5 3-.3.3 0 .8.2l.7.4.6.6.4.5 1.3 2 .3.7v.3l.1.2v.8l-.1.3-.1.2-.2.3-.1.2-.2.2-.2.2-.2.1-.2.2h-.2l-.3.3q-1.5.7-2.9 1l-2.7.8-2.7.7-5.4 1.6-1.3.5-.4.1-.4.2q-.3 0-.6.2z"/>
      <path fill="#fff" d="m153.5 93.1-.3-.2q-.3 0-.4-.3l-1.1-.8-2.3-1.6-2.3-1.6-2.4-1.4-2.4-1.6q-1.2-.7-2.4-1.8l-.3-.3-.1-.2-.1-.2-.2-.2-.1-.2-.1-.2v-.3l-.2-.3v-.8l.1-.3.1-.2.1-.2.1-.2.6-.7 1.8-1.5.6-.4a3 3 0 0 1 2.3-.5q1.6.4 2.7 1.2a21 21 0 0 1 4.4 4q.8 1.2 1.5 2.6.7 1.3 1 2.7a12 12 0 0 1 .5 4.4l-.1.8-.2.3v.2l-.2.2q-.3 0-.6-.4Zm.5 0v-.4l-.1-.7-.3-1.3a21 21 0 0 0-2.2-5l-1.3-2.4-1.4-2.4a9 9 0 0 0-1.9-2l-1.1-.7-1.3-.4q-.6 0-1.1.3-.3 0-.5.4l-.5.4-1 1-.6 1v.7q0 .4.6.7l2.2 1.5 4.8 3.2 1.1 1 1 1q.3 0 .6.4l.5.5 1 1.1.8 1.2.2.2.2.3q0 .3.4.6v-.1Z"/>
      <path fill="#737374" d="M172.8 95c3.2-1.8 3.9-2.7 4-.5.3 2.3-3.5 39.8-4.6 44.5s-3.3 1.1-2.4-7.2c1-8.4 4.6-25.7 3.7-28.6s-.7-8.2-.7-8.2"/>
      <path fill="#d8d8d7" d="m195.4 104.6 12.3 5.7 24 6.9-16.5 37c-14.7 1.2-26.5-.7-31.2-10.6z"/>
      <path fill="#6451a1" d="m196.1 102.5 12.4 5.7 24 6.8-16.6 37c-14.6 1.3-26.4-.6-31.1-10.5z"/>
      <polygon fill="#f5a91c" points="188.4 146.5 202.6 107.2 200.1 105.3 186.6 144.2 188.4 146.5"/>
      <path fill="#6451a1" d="m232.4 115-15-7.8-21.3-4.7 7 5.1q4.5 3.2 9.9 4.1z"/>
      <polygon fill="#f5a91c" points="223.1 113.5 208.2 152 201.9 152 216.3 112.1 223.1 113.5"/>
      <polygon fill="#f5a91c" points="200.1 105.3 222.3 109.8 224.6 110.9 202.6 107.2 200.1 105.3"/>
      <polygon fill="#f5a91c" points="223.1 113.5 210.4 105.7 206.3 104.7 216.3 112.1 223.1 113.5"/>
      <path fill="#f5a91c" d="m214.9 108.5.2-.1.2-.1 1.2-.3 1-.3h.7l.5-.1 1.2-.2h1.1a25 25 0 0 1 4.6.2h2.8v-.1h.1v-.1l.1-.1.1-.2v-2l-.1-.6q0-.2-.2-.5 0-.4-.6-.7l-1-.4h-1q-1.1 0-2.2.4l-2 .8-2 1a27 27 0 0 0-4.5 2.8l-.4.4-.2.2-.1.2zm-.7 0 .1-.4 1-1.5q.6-1 1.7-1.6a13 13 0 0 1 8.8-2.7q1 0 2.3.5l.5.4.7 1 .2.6.4 1.1.1.7v1l-.1.2v.2l-.2.2-.1.2-.2.2-.1.1-.2.1-.2.1-.2.1h-.2l-.1.2h-.5q-1.4.2-2.4.1l-2.3-.1-2.2-.2-2.2-.1h-4.6v-.3Z"/>
      <path fill="#f5a91c" d="m213.7 109.4-.2-.3-.2-.2-.6-1-1.3-1.8-1.4-1.7-1.4-1.8-1.3-1.7q-.8-.8-1.4-2l-.1-.3v-.2l-.1-.2V98l-.1-.2V97l.1-.2.1-.2.1-.2.2-.2.1-.1.2-.1.5-.4.6-.2 1.1-.4.6-.1.7-.1h.6l.6.3q1 .7 1.7 1.6a18 18 0 0 1 2.2 4.1q.4 1.1.5 2.3a14 14 0 0 1-.2 4.7l-.8 1.6-.2.2-.1.2h-.2zm.3.2v-.1l.1-.3.2-.5v-1a17 17 0 0 0-.2-4.4l-.4-2.1-.5-2.2q-.2-1-.8-2l-.7-.8-.9-.6q-.4-.2-1-.1l-.4.1-.5.2-1 .6-.7.5v.1l-.1.2v.2q0 .4.2.7.5.8 1.3 1.7l2.7 3.6.6 1 .8 1.6.3.5.4 1 .4 1.2v.2l.1.2.1.6z"/>
      <path fill="#737374" d="M227.7 115.9c2.9-.6 3.6-1.1 3.2.7-.5 1.7-13 28.8-15 32.1-2.2 3.3-2.8 0 0-6s10.1-18.1 10.2-20.5 1.6-6.4 1.6-6.4Z"/>
      <path fill="#7e7e7e" d="m42.2 234-21.9 11.6 6.1 7.4 25.5-9 20.4-1s-4.2-30.6-3.1-32.3a79 79 0 0 0 4.1-14.5c-.3-.2-26 7.5-26.2 11.7-.3 4.2-1.5 14.8-1.6 18-.1 3-3.3 8-3.3 8"/>
      <path fill="#616262" d="M139.2 238.5h321.5l54.7-12.1s-27.5-54-34.3-54c-6.8-.2-111.4 8.2-111.4 8.2l-247.4 12.7z"/>
      <circle cx="489.7" cy="225.4" r="45.1" fill="#2e2e2e" transform="translate(157.85 650.22) rotate(-76.72)"/>
      <circle cx="489.7" cy="225.4" r="29.3" fill="#dc2626" transform="translate(157.85 650.22) rotate(-76.72)"/>
      <circle cx="489.7" cy="225.4" r="23" fill="#fff"/>
      <circle cx="100.8" cy="225.4" r="45.1" fill="#2e2e2e" transform="translate(-141.31 273.9) rotate(-77.24)"/>
      <circle cx="100.8" cy="225.4" r="29.3" fill="#dc2626" transform="translate(-141.39 273.48) rotate(-77.15)"/>
      <circle cx="100.8" cy="225.4" r="23" fill="#fff"/>
      <path fill="#f5a91c" d="M557.4 135.1c8.3-2.4 11.3.3 11.3 5.5s1.7 16.4-4.2 19.9-13-6.7-13.1-7 6-18.4 6-18.4"/>
      <path fill="#dc2626" d="M395.6 27.1c9.5 3.5 29.6 62.8 32.7 79.5 28.5-1.3 109.6-8.9 123.1 8.1s0 63.3 0 63.3 3.4.5 7.2 4.6c3.7 4.1-7.4 34.8-9.4 37.5s-24-31.9-60.5-29.1-42.2 29.5-49 50H149s.6-50-47-48.1c-47.7 1.7-40.5 44.7-45.8 48.2s-23.1 3.7-25.3 1.4-1.3-23.4-1.3-25c0-1.5-17-79.4-22.4-89H260s3.6-83 18.5-93.8 105-12 117.1-7.6Z"/>
      <path fill="#2e2e2e" d="M33.5 202.9s6.8-31.2 48.6-39.7a75 75 0 0 1 71.5 24.7c-48.3 3.5-120 15-120 15"/>
      <rect width="273.8" height="1" x="151.9" y="225.4" fill="#2e2e2e"/>
      <rect width="273.8" height="1" x="151.9" y="228.7" fill="#2e2e2e"/>
      <path fill="#b8b7b8" d="M57.6 238.5c24.5-34.1 52.9-42.4 85.2-23.3 0 0-10.1-27.9-10.7-28.4s-27-8.5-35.7-5.3a803 803 0 0 0-38.8 17.7l-5.1 18.5z"/>
      <path fill="#b8b7b8" d="M445.2 238.5c23.5-31.1 51-43.2 85.1-23.3 0 0-10-27.9-10.6-28.4s-27.1-8.5-35.7-5.3a803 803 0 0 0-38.8 17.7l-5.2 18.5z"/>
      <path fill="#dc2626" d="M148 182c-23.3-21.7-111.2-24-118.5 35.5 0 1.6-.7 22.6 1.4 25 2.2 2.3 20 2.1 25.3-1.4s-2-46.5 45.7-48.3 47 48.3 47 48.3h23.2s0-36.7-24.1-59.1"/>
      <rect width="292.3" height="9.1" x="149.4" y="233.9" fill="#2e2e2e" rx="2.5" ry="2.5"/>
      <path fill="#2e2e2e" d="M422.2 204.4c7.2-25.7 7-27 22.4-33 15.4-5.8 85-8 106.9 6.6-40.5 3-90.5 5.6-94.2 7.7-3.8 2-32.4 20.4-32.4 21s-2.7-2.3-2.7-2.3"/>
      <path fill="#dc2626" d="M558.6 182.6c-3.7-4.2-7.1-4.6-7.1-4.6-54.7-14.3-112 1.9-121.3 11.1s-18.5 51.2-13.3 52h22.9c6.7-20.6 12.4-47.4 48.9-50.2 36.5-2.7 58.6 32 60.5 29.2 2-2.8 13-33.4 9.4-37.5Z"/>
      <path fill="#7dd1ea" d="M428.3 106.6a347 347 0 0 0-24.8-69.4c-8.2.1-9 3.6-8.8 8.7.2 5.2 14.1 60.7 14.1 60.7z"/>
      <path fill="#868686" d="M428.3 107.2h-20l-.1-.5c-.6-2.3-14-55.6-14.2-60.7 0-3 .2-5.4 1.8-7q2-2.4 7.7-2.4v1.3q-5 0-6.8 2t-1.4 6c.2 4.8 12.6 54.5 14 60h19z"/>
      <path fill="#7dd1ea" d="M380.4 42.8c-5-6-62.6-5.4-71.4 1.8s-7.8 60.5-4 64.7h89.7s-4.9-54.8-14.3-66.5"/>
      <path fill="#bde5f1" d="m343.7 38.8-41.5 41.5q0 6.6.2 12.5l54-54z"/>
      <path fill="#bde5f1" d="m346.7 109.3 42-42a68 68 0 0 0-8.3-24.5q-.4-.5-1.1-.8l-67.4 67.3z"/>
      <path fill="#868686" d="M395.4 110h-90.6l-.2-.3c-2.7-3-3.7-24.1-2.6-39.7.7-10 2.3-22.4 6.6-25.9 6.8-5.6 40.8-7.2 59.3-5.3q11 1.2 13 3.6c9.4 11.7 14.2 64.6 14.4 66.8zm-90-1.4H394c-.7-6.4-5.5-54.7-14.1-65.4-.5-.6-2.7-2.1-12.2-3-19.8-2.1-52.2 0-58.3 5-3 2.4-5.2 11.4-6.1 24.8-1.2 17.5.2 35.7 2 38.6Z"/>
      <path fill="#b8b7b8" d="M351 220.8c-13.1 0-26.3-.4-37.2-1.3a157 157 0 0 1-16.4-2c-6.1-1.2-7.4-2.3-7.9-3-4.4-8-1.1-74.5-.7-80.2l.3-4c.4-6.8.8-12.7 3.8-19.9 1.5-3.6 1.8-13.3 2.2-23.7.5-13.8 1-29.5 4.3-38.2q3.3-9 14.4-12.3a91 91 0 0 1 21.4-2.3q3.9 0 7.3-.2c1.5 0 36.2-1.5 43.8 4.5 5.6 4.4 11.6 36.8 16.1 64.6l1.1 6.3q.5 1.6 2.4 5.5a63 63 0 0 1 6.2 17.6l.1 3.2q2.3 70.8-4 79.1c-3 3.8-21.8 5.3-37 6q-9.7.3-20.2.3ZM342.6 35l-7.3.2c-14.7.5-30 1-34.7 13.7-3.2 8.6-3.7 24.1-4.2 37.9-.4 10.9-.7 20.3-2.3 24.1-3 7-3.3 12.8-3.7 19.6l-.3 4c-.9 11.6-3.3 72.4.6 79.3.3.6 3 2.8 23.2 4.4 16.7 1.3 38.6 1.7 57.4 1 20.4-.9 33.8-3 35.8-5.5 2.8-3.5 5.7-20 3.8-78.2v-3.2c-.1-4-3.8-11.9-6.2-17.2l-2.4-5.6-1.1-6.5c-1.4-8.1-3.8-23.1-6.7-36.5-4.3-20-7.3-26-9-27.3-7.2-5.6-42.4-4.3-43-4.2Z"/>
      <path fill="#2e2e2e" d="M431 106.6s1.2 11.8 11.4 14.4 97.3 2 97.3 2-35 5-96.5 1.4c-15.2.4-12.3-17.8-12.3-17.8"/>
      <path fill="#7dd1ea" d="M562.7 188s-19.8.9-24.1.5c3 4.8 6.6 23.1 23 12.8.7-5.7 1.1-13.4 1.1-13.4"/>
      <path fill="#7dd1ea" d="M17.3 188s14.9.9 18.2.5c-2.4 4.8-5 23.1-17.4 12.8z"/>
      <rect width="4.5" height="105.4" x="255.5" y="128.5" fill="#2e2e2e"/>
      <rect width="255.5" height="7.8" y="105.8" fill="#2e2e2e"/>
      <rect width="11.2" height="11.2" x="14" y="113.7" fill="#dc2626"/>
      <rect width="11.2" height="11.2" x="122.1" y="113.7" fill="#dc2626"/>
      <rect width="11.2" height="11.2" x="229.1" y="113.7" fill="#dc2626"/>
      <rect width="255.5" height="13.3" y="124.9" fill="#2e2e2e"/>
      <path fill="#dc2626" d="M277.2 35.9c9.6-10.4 118.5-18.4 125.5-9.4s-46.3 3.8-46.3 3.8z"/>
      <g clip-path="url(#clippath)">
        <path fill="#4d4e4e" d="M345.6 181.5c1.4 1.2 1.7 5.7 3.2 6.9s-1.3 6.4-9.4 5.6-16.5 3-23 1.4-5-8.5.8-9.3c5.9-.8 12.3 1.5 14.2-4.6 4.2-3.4 14.2 0 14.2 0"/>
        <path fill="#ef4d4e" d="M314 151.6s10.1 23.3 17 24.6c1 3 .4 5.3.4 5.3s.5 6.3 14.2 0c-2-2.8 8.5-13.4 8.5-13.4l-26.4-8z"/>
        <path fill="#dfdfdf" d="M333.1 181.3s.6-2.2-.5-5.2c-5.7-1.2-13.7-17.6-16.2-23l-2.4-1.5s10 23.3 17 24.7c1 3 .4 5.2.4 5.2s.3 3.6 6.3 2.6c-4.4.1-4.6-2.8-4.6-2.8Z"/>
        <path fill="#4d4e4e" d="M376.9 177.8c-1.1 1.5-.4 6-1.5 7.4-1.2 1.6 2.7 6 10.4 3.3s16.7-1 22.7-4 3-9.4-3-8.8c-5.8.6-11.6 4.3-14.9-1.2-4.8-2.3-13.7 3.3-13.7 3.3"/>
        <path fill="#ef4d4e" d="M399.4 139.3s-3.2 27-9.5 30c-.3 3.2.7 5.2.7 5.2s1 6.3-13.7 3.3c1.2-3.2-11.5-11-11.5-11l24-13.9z"/>
        <path fill="#4d4e4e" d="M391.2 175.4s-.8-.8-.3-2c-.7 1.8-12.4 3.5-15.7 2.9 1.7.7 1 4.6 1 4.6s13.8 0 15-5.5"/>
        <path fill="#ef4d4e" d="M305.9 138.4s12.1 37.9 58.5 29.1c47.3-8.9 36.1-55.3 36.1-55.3l-40.9 25.6z"/>
        <path fill="#4d4e4e" d="M306.4 139.3s9.7 33.5 60.5 22.7 31-58.5 31-58.5l-56.3 15.2z"/>
        <path fill="#ef4d4e" d="M315.5 86.8s-17.3 17.3-12.2 43.7c5 26.3 39.5 35 63 28.8 23.6-6.2 40.5-22 37.2-50-6.7-57-88-22.6-88-22.6Z"/>
        <path fill="#dfdfdf" d="M305.2 130.8c-5-26.4 12.3-43.7 12.3-43.7s27.6-1.8 52 1.9c-24.8-4-54-2.2-54-2.2s-17.3 17.3-12.2 43.7c3.4 17.8 20.2 27.5 38 30-17-2.9-32.8-12.6-36.1-29.8"/>
        <path fill="#fff" d="M355.1 117.7c12 20 8.7 42.2 8.7 42.2s5-1.2 6.7-1.8-6-39.3-6-39.3z"/>
        <path fill="#dfdfdf" d="M370 63.5c19 6.8 33.6 30.4 28.5 51-5 20.6-17.6 44.2-57.5 44.1 13.3-9.6-26.9-8-32.1-40-5.3-31.8 16.1-49 16.1-49s23-10.6 45-6"/>
        <path fill="#ef4d4e" d="M379.7 73.9c12.7.5 21.4-13.5 20.7-16 3.7-1 7.2 3.1 7.2 3.1s5.7 24.8-12.4 27C377.4 83 379.7 74 379.7 74"/>
        <path fill="#fff" d="M370.4 60.3c19.2 6.8 33.7 30.4 28.6 51-5 20.6-17.6 44.2-57.5 44.1 13.3-9.6-26.9-8.1-32.1-40s16.1-49 16.1-49 23-10.6 45-6.1"/>
        <path fill="#dfdfdf" d="M377.9 145.6c-8.3 5-19.2 8.2-33.9 8.2 13.3-9.7-26.9-8.2-32.1-40a54 54 0 0 1 15-48l-1.4.5s-21.4 17.3-16.1 49.2c5.2 31.8 45.4 30.3 32.1 40 16.2 0 27.9-4 36.4-9.9"/>
        <path fill="#fff" d="M400.7 58.6c-1.4.4-4.8-3-2.3-5.4 2.6-2.4 11.1.9 12 4.5 1 3.7-1.5 5-3.1 4s-5.2-3.5-6.6-3.1"/>
        <path fill="#4d4e4e" d="M409.3 55.9c3.3-.8 6.7-8.4 4.9-11.4-1.8-2.9-11.3-5.6-15.5-1s1.2 9 1.2 9z"/>
        <path fill="#fff" d="M323 52.8s-3 13.2 3.6 22c34.6.7 43.8-14.5 43.8-14.5s1-7.3-5.2-16.1c-32.8-5.4-42.1 8.6-42.1 8.6"/>
        <path fill="#fdd2a2" d="M326.7 53.4c-1.3 5.8.9 11.5 2.8 14.8 5.2-4 27-10.1 37.4-7.5 0 0 2-7.4-1.2-10.4-15.4-4.4-27-5.7-39 3"/>
        <circle cx="341.5" cy="56.2" r="2" fill="#2e2e2e" transform="translate(231.33 384.23) rotate(-80.78)"/>
        <path fill="#fdd2a2" d="M338.9 57.7s4-1.7 5.2-.5c-2.3 2.9-5.2.5-5.2.5"/>
        <path fill="#2e2e2e" d="M363.2 53.9a2 2 0 1 1-4 0 2 2 0 0 1 4 0"/>
        <path fill="#fdd2a2" d="M358.6 55.4s4-1.7 5.2-.5c-2.3 2.9-5.2.5-5.2.5"/>
        <path fill="#ef4d4e" d="M364.2 40.2c4.2 2.2-2.3-18.7-18.6-21.4-16.2-2.8-42.1 29.8-52.5 7.7-1.8 16 12.6 22.5 22 16.6.8 10 5.4 14.1 5.4 14.1s19.5-22.2 43.7-17Z"/>
        <g fill="#d1d1d1">
          <path d="M315.9 42.4c-9.1 5.6-22.7-.2-22.2-14.7l-.6-1.2c-1.8 16 12.6 22.5 22 16.6.8 10 5.4 14.1 5.4 14.1l.7-.7c-.3-.3-4.7-4.5-5.3-14.2"/>
          <path d="M365 39.5c-21.7-4.6-39.5 12.5-43.1 16.3 4.9-4.9 21.9-20 42.3-15.6q1 .5 1.2-.6z"/>
        </g>
        <path fill="#dfdfdf" d="M370 55q-.6-4.5-4.8-10.8c-32.8-5.4-42.1 8.6-42.1 8.6s-1.4 5.7-.4 12l1.4-.1c1.3-3.3 15.5-23.4 45.7-9.4z"/>
        <path fill="#fff" d="M368 41a35 35 0 0 0-49.2 14.7c-1.3 3.3 1.8 3.2 1.6 3.8-.2.7.4 3.4 3.4 2.6 1.3-3.4 15.5-23.5 45.7-9.4 1.9-2.1-.9-5.2-.9-5.2s2.3-4.7-.6-6.6"/>
        <circle cx="291.9" cy="22.3" r="6.6" fill="#eaeaea" transform="translate(98.27 241.85) rotate(-52.95)"/>
        <path fill="#dfdfdf" d="M292 27.4a6.6 6.6 0 0 1-4.4-10 6.6 6.6 0 1 0 9.9 8.5 7 7 0 0 1-5.4 1.5"/>
        <path fill="#dfdfdf" d="M353 61.2c-9.1-8.4-16.6 12.2-25.2 7.6 11.6 16.3 22-11 25.2-7.6"/>
        <path fill="#dfdfdf" d="M353.4 62c7-10.4 19 8 26.3 1.5-7.6 18.5-24-5.7-26.3-1.5"/>
        <path fill="#fff" d="M352.7 59.7c-9.2-8.5-16.6 12.2-25.3 7.5 11.7 16.3 22.1-11 25.3-7.5"/>
        <path fill="#fff" d="M353 60.4c7-10.3 19 8 26.4 1.5-7.6 18.6-24.1-5.6-26.4-1.5"/>
        <path fill="#d1d1d1" d="M313.6 43.9s3.6-3.9 6-1c-4.3-1-6 1-6 1"/>
        <path fill="#4d4e4e" d="M331 182.4s.6-.9-.1-2c1.2 1.6 13 .6 16-.8-1.6 1 0 4.8 0 4.8s-13.4 3-15.8-2"/>
        <path fill="#3b3b3b" d="M363 37c-1.7-7.7-14.2-23.3-30.6-13.2C347 19.1 363 37 363 37"/>
        <path fill="#ffd77d" d="M362.6 165.5q-.8-.2-1.5-.9-1-1.3-.3-4.9c.4-2.3 5-4.7 11-4.6q1.2 0 1.8 1.2c.8 1.6.3 4.9-1 6.3-1.5 2-8.2 3-9.9 3zm8.9-8c-5.3 0-8.2 2-8.4 2.7q-.4 2.9 0 3c1.5 0 7-1.2 7.7-2.1.7-.8 1-2.9.7-3.7"/>
        <path fill="#dfdfdf" d="M393.8 164s-4 5.8-8.2 7.5c2.9.2 7.9-4 8.1-7.4"/>
        <path fill="#4d4e4e" d="M399 43.2c-.9-2.6.4-10.6 2.3-9.5 2 1 1.5 10 1.5 10s-3 1.9-3.8-.5"/>
        <path fill="#4d4e4e" d="M399.9 52.5c-3.1-1.4-7-5.4-7.4-8.4 1.3-.8 3.3 2.2 3.5 2.4 1.3-.6 7 1 7 1z"/>
        <path fill="#fdd2a2" d="M351.1 52.8c5.4-2.9 8.4-.2 9.4 2.4 1.1 2.6-1 8.5-8.3 6.7-7.2-1.7-1-9-1-9"/>
        <path fill="#d3af87" d="M360.5 55.2q-.2-.8-.8-1.4c1 2.6-1.3 8.2-8.4 6.5q-1.7-.4-2.6-1.3c.3 1.3 1.2 2.4 3.5 3 7.2 1.7 9.4-4.2 8.3-6.8"/>
        <path fill="#fff" d="M346.4 50.4c-1.8-1.6-2.2-.4-3-.1-.9.3-1.3-1.5-3.5.2s-.4 2-2.5 2.8c-2.1 1-2.6 2-2.6 2.2s2-1.6 2.8-1c.8.4 2.2-1.5 3.5-2.2 1.4-.7 2.9-.3 3.7 0 .8.1 1.6-1.9 1.6-1.9"/>
        <path fill="#fff" d="M355 49.4c1.4-2 2-1 2.9-.8.9 0 .8-1.7 3.4-.6 2.6 1 .9 1.7 3.2 2.2 2.2.4 2.9 1.3 3 1.5 0 .2-2.4-1-3-.4s-2.5-1-4-1.3c-1.4-.3-2.8.4-3.5.8s-2-1.4-2-1.4"/>
        <path fill="#dc2626" d="M348.4 64.4c-.6 2.9 4.3 4.8 6.4 1.3-2.2-.1-4-.3-6.4-1.3"/>
      </g>
      <path fill="#d8d8d7" d="M288.6 105.3c2.5 16.8 26.7 23.5 61.3 13a30 30 0 0 0 17.5-1.4l12.1 2.4s4.6-11.3 2.4-12.7c-2.2-1.5-28.3-4.3-28.3-4.3s-37.2 8.4-41.7 7.7-23.4-4.7-23.4-4.7"/>
      <path fill="#ef4d4e" d="M318.7 74S286 88 288.6 105.3c2.4 17.2 61.7 7.5 61.7 7.5l-.3-10.9-40.7-4.9s3-16.6 9.4-23"/>
      <path fill="#ef4d4e" d="M352.4 101.7c6.6-9 24.8-8.3 30.2 0 5.5 8.3-5.4 19-14.3 13.8-9-5-6.7 1.8-14.7-3-5.7-6-1.2-10.8-1.2-10.8"/>
      <path fill="#eaeaea" d="M351.6 100.4c-1-.6-.2-3.3-1.6-1s-1.9 0-3.2 1c-1.2 1-1.2 4 0 5.6 1 1.5-1.3.6-1 4.9.5 4.2 2 8 3.8 5.2s2.8-4.5 4-3.6-.4-11.1-2-12.1Z"/>
      <path fill="#2e2e2e" d="M390 98.5c-4.7-4.4-14.7-3-19.3 4.9 1.2 14.6 3.4 24.5 3.4 24.5s12.1 7.2 19 1.3c.3-14.5-3.2-30.7-3.2-30.7Z"/>
      <polygon fill="#2e2e2e" points="389.9 98.5 399.9 119.3 401.5 118.4 406.1 125.4 398 130.1 395.2 121.1 396.6 120.2 391.7 108.6 388.2 101.8 389.9 98.5"/>
      <rect width="34.3" height="12.6" x="299" y="131.6" fill="#b8b7b8" rx="3.5" ry="3.5"/>
      <path fill="#2e2e2e" d="M327 131.6h-21.7c-2.8 0-5.1 1.7-6 4.2a6 6 0 0 0 6 4.2H327c2.7 0 5-1.7 5.9-4.2a6 6 0 0 0-6-4.2"/>
      <path fill="#4b4a4b" d="M485.2 105.8s49.6-.6 60 8c10.2 8.6 9 24 9 24s-5.4-25-69-32Z"/>
      <path fill="#4b4a4b" d="M44 198.4c4.2-13.5 27.3-27.1 58.1-26-10 1-58 26-58 26"/>
    </g>
  </g>
</svg>
