<svg xmlns="http://www.w3.org/2000/svg" width="60" height="35" viewBox="0 0 60 35">
  <path fill="#ec6c66" d="M60 4.4v1.8c0 .1-.9 0-1.3.6q-.5.7 0 1.6c.5.6 1.2.4 1.2.5V10c-2 .3-2 2.5 0 2.8.3 1.6-.4.9-1 1.5-.8.7-.4 2 .5 2.3h.5V18h-.5c-1 .3-1.3 1.6-.6 2.3s1.4 0 1.1 1.5c-1.6.2-2.1 2-.5 2.7l.5.1v1.2q-.2-.1-1 .4c-.8.7-.5 2 .5 2.2h.5v2h-2.7c-.9 0-2.5 1.4-3 2.2-.3.7-.2 1.6-1 2q-23 .1-46.2.1c-1-.2-.9-1.1-1.2-1.8-.4-1-2-2.6-3-2.6H0v-1.8h.5c1-.3 1.3-1.6.5-2.3q-.8-.4-1-.3v-1.3h.4c1.7-.7 1.2-2.6-.5-2.8-.2-1.5.5-.9 1.1-1.5s.4-2-.5-2.3H0v-1.3h.6c1-.3 1.2-1.6.5-2.3s-1.3 0-1-1.4c2-.4 2-2.6 0-3V9c0-.1.7 0 1.1-.5q.6-.7 0-1.6C.9 6.1 0 6.3 0 6.3v-2h2.7c.9 0 2.6-1.4 3-2.2.3-.7.2-1.6 1-2q23-.2 46.3 0c1 .1.8 1 1.1 1.8s2.1 2.5 3.1 2.5H60Z"/>
  <path fill="#ba303d" d="m9.4 4 40.9-.1q2.6.2 3.2 3v20.9a3.3 3.3 0 0 1-3.2 3H9.7A3.3 3.3 0 0 1 6.6 28v-21a3 3 0 0 1 2.8-3Zm6.1 1.4h-6C8.9 5.4 8 6.4 8 7c.3 6.6-.5 13.7 0 20.3q-.1 1 .7 1.6l.7.3h6zm28.1 0H16.4v24h27.2zm.9 24h6c.6 0 1.5-1.1 1.4-1.8-.3-6.6.5-13.7 0-20.3q.1-1-.7-1.6l-.7-.3h-6z"/>
  <path fill="#6f3f39" d="M21.5 10.8h16.9c2.6.4 2.7 4 0 4.4h-17c-2.4-.5-2.4-4 0-4.4"/>
  <path fill="#6f3f39" d="M23.7 19.5h12.6c2.4.7 2.3 4-.3 4.5H24a2.3 2.3 0 0 1-.2-4.5"/>
  <rect width="3" height="16.7" x="10.3" y="9" fill="#9d504a"/>
  <rect width="3" height="16.7" x="46.7" y="9" fill="#9d504a"/>
</svg>
