<svg width="195" height="199" fill="none" xmlns="http://www.w3.org/2000/svg"><path fill-rule="evenodd" clip-rule="evenodd" d="M16.639 111.188a8.106 8.106 0 01-.84-.636c-.28-.241-.42-.567-.42-.98 0-.367.134-.642.402-.826.268-.183.52-.275.753-.275.49 0 1.016.275 1.577.826l5.148 5.124h-1.47l-5.15-3.233zm1.634 20.463c.607 0 1.237.011 1.89.034.655.023 1.285.035 1.892.035.655 0 1.308-.006 1.962-.018.654-.011 1.307-.028 1.962-.051l-3.889-8.736-3.817 8.736zm4.973-13.379l1.822 4.316a1007.521 1007.521 0 004.028 9.407 622.27 622.27 0 001.909 4.35 489.74 489.74 0 001.61 3.595c.48 1.054.871 1.857 1.174 2.407a6.66 6.66 0 00-.928-.069h-1.856a6.66 6.66 0 00-.928.069 35.396 35.396 0 00-.666-1.909c-.28-.745-.59-1.524-.928-2.338-.338-.814-.683-1.64-1.034-2.477a174.24 174.24 0 01-.98-2.39 149.807 149.807 0 00-6.725-.052c-.701.012-1.413.029-2.137.052a149.422 149.422 0 00-2.031 5.107c-.607 1.617-1.063 2.952-1.366 4.007a11.33 11.33 0 00-1.297-.069 11.3 11.3 0 00-1.296.069 876.025 876.025 0 005.534-11.969c1.798-3.967 3.608-8.002 5.43-12.106h.665zm14.712 8.048a210.366 210.366 0 00-.07-5.263c-.024-.894-.053-1.748-.088-2.562a54.732 54.732 0 00-.123-2.081c.654.115 1.18.172 1.577.172.396 0 .922-.057 1.576-.172a55.15 55.15 0 00-.123 2.081c-.034.814-.064 1.668-.087 2.562a213.378 213.378 0 00-.07 5.263v6.225a212.326 212.326 0 00.07 5.262c.023.894.053 1.743.087 2.545a45.5 45.5 0 00.123 1.995 18.491 18.491 0 00-1.576-.069c-.514 0-1.04.023-1.577.069a45.28 45.28 0 00.123-1.995c.035-.802.064-1.651.088-2.545a211.387 211.387 0 00.07-5.262v-6.225zm21.086 7.326c0-1.055-.134-1.989-.403-2.803-.268-.815-.619-1.497-1.05-2.047a4.433 4.433 0 00-1.507-1.255 3.897 3.897 0 00-1.768-.43c-.724 0-1.42.132-2.085.395-.665.264-1.244.7-1.734 1.307-.49.608-.881 1.399-1.173 2.373-.292.975-.438 2.173-.438 3.595 0 4.608 1.705 6.913 5.114 6.913a3.7 3.7 0 001.997-.568c.607-.378 1.138-.923 1.593-1.633.455-.711.812-1.56 1.069-2.546.257-.986.385-2.086.385-3.301zm3.082.103c0 1.33-.204 2.545-.612 3.645-.41 1.101-.97 2.047-1.682 2.838a7.3 7.3 0 01-2.522 1.823 7.736 7.736 0 01-3.135.636c-1.12 0-2.131-.235-3.03-.705s-1.582-1.037-2.048-1.702a41.793 41.793 0 00-2.347 1.994h-.631c.047-.55.088-1.215.123-1.994.034-.78.064-1.611.087-2.494a208.42 208.42 0 00.07-5.245v-6.225a212.326 212.326 0 00-.07-5.263c-.023-.894-.053-1.748-.087-2.562a54.964 54.964 0 00-.123-2.081c.654.115 1.18.172 1.576.172.257 0 .526-.017.806-.051.28-.035.584-.075.91-.121-.07.459-.128 1.187-.174 2.184-.048.998-.082 2.11-.106 3.337a3442.86 3442.86 0 00-.07 3.783 861.16 861.16 0 01-.07 3.525h.07c.794-1.238 1.67-2.144 2.627-2.717.958-.573 2.067-.86 3.328-.86 1.215 0 2.265.224 3.153.671a6.53 6.53 0 012.206 1.771 7.559 7.559 0 011.314 2.563c.292.974.437 2 .437 3.078zm10.789-6.982c-.864 0-1.594.195-2.19.585a5.064 5.064 0 00-1.47 1.461 6.898 6.898 0 00-.876 1.926c-.199.7-.321 1.359-.368 1.978l2.26.069a78.055 78.055 0 004.64 0l2.313-.069a12.9 12.9 0 00-.159-1.961 6.05 6.05 0 00-.63-1.926 4.118 4.118 0 00-1.314-1.478c-.56-.39-1.295-.585-2.206-.585zm-8.092 7.945c0-2.82.683-5.033 2.05-6.638 1.366-1.605 3.356-2.408 5.972-2.408 1.237 0 2.305.189 3.204.568.9.378 1.653.883 2.26 1.513a5.95 5.95 0 011.348 2.218 8.3 8.3 0 01.438 2.718 13.168 13.168 0 01-.07 1.341l-3.748-.069a201.724 201.724 0 00-3.748-.034c-.77 0-1.535.011-2.294.034l-2.294.069a2.736 2.736 0 00-.035.516v.447c0 .894.134 1.731.402 2.511.269.779.66 1.45 1.174 2.012a5.635 5.635 0 001.891 1.341c.747.333 1.612.499 2.593.499.467 0 .945-.063 1.435-.189.49-.126.97-.298 1.437-.516a7.877 7.877 0 001.313-.774 6.628 6.628 0 001.069-.963l.175.103-.21 1.685c-.701.551-1.57 1.021-2.61 1.41a9.143 9.143 0 01-3.24.585c-1.261 0-2.411-.189-3.45-.567a7.68 7.68 0 01-2.697-1.651 7.408 7.408 0 01-1.751-2.563 8.267 8.267 0 01-.614-3.198zm26.971-5.882c-.117-.137-.344-.263-.683-.378a3.191 3.191 0 00-1.033-.172c-.561 0-1.062.126-1.506.378a3.484 3.484 0 00-1.12 1.015 4.782 4.782 0 00-.702 1.513 6.954 6.954 0 00-.245 1.875v3.783c0 1.536.006 2.712.017 3.526.012.814.053 1.473.124 1.977a15.023 15.023 0 00-2.872 0c.069-.779.11-1.84.122-3.181.01-1.342.017-2.987.017-4.936v-1.1c0-.895-.006-1.926-.017-3.096a114.76 114.76 0 00-.123-4.024c.257.046.502.086.735.121.234.034.48.051.736.051.21 0 .432-.017.666-.051.233-.035.478-.075.736-.121a23.69 23.69 0 00-.159 1.961c-.01.481-.016.94-.016 1.375l.069.035c1.378-2.477 2.92-3.715 4.624-3.715.21 0 .391.012.542.035.152.023.345.08.579.172-.117.275-.187.693-.21 1.255a37.325 37.325 0 00-.035 1.53l-.246.172zm17.024 5.228c0 1.17.023 2.328.069 3.474l.141 3.474c.443.046.968.086 1.576.12.607.035 1.226.052 1.856.052a6.2 6.2 0 002.154-.379 5.112 5.112 0 001.805-1.117 5.377 5.377 0 001.225-1.823c.304-.722.456-1.542.456-2.459 0-.986-.182-1.795-.543-2.425a3.775 3.775 0 00-1.559-1.479c-.677-.355-1.489-.602-2.434-.74a22.243 22.243 0 00-3.17-.206h-1.576v3.508zm1.891-4.78c.817 0 1.629-.081 2.434-.241a6.702 6.702 0 002.154-.808 4.434 4.434 0 001.524-1.514c.385-.63.578-1.427.578-2.39 0-.94-.175-1.691-.525-2.253a3.806 3.806 0 00-1.331-1.307 5.19 5.19 0 00-1.822-.619 13.495 13.495 0 00-2.031-.155c-.607 0-1.122.017-1.542.052-.42.034-.794.074-1.12.12l-.141 3.268a76.557 76.557 0 00-.069 3.267v2.58h1.891zm-4.764-1.686c0-1.513-.029-3.003-.088-4.471a539.806 539.806 0 00-.192-4.402c.607.046 1.226.086 1.857.12.63.035 1.248.052 1.856.052.607 0 1.226-.029 1.857-.086a20.22 20.22 0 011.855-.086c1.005 0 1.95.074 2.838.223.887.149 1.669.413 2.347.791a4.365 4.365 0 011.611 1.531c.397.642.596 1.444.596 2.407 0 1.697-.543 3.027-1.63 3.99-1.085.963-2.504 1.64-4.255 2.029v.069c2.078.092 3.719.585 4.921 1.479 1.203.894 1.804 2.327 1.804 4.299 0 1.284-.268 2.362-.806 3.233a6.439 6.439 0 01-2.101 2.116 8.734 8.734 0 01-2.855 1.134 15.06 15.06 0 01-3.1.327c-.56 0-1.126-.011-1.699-.034a42.281 42.281 0 00-1.699-.035h-1.698c-.573 0-1.139.023-1.699.069.07-1.467.134-2.929.192-4.385.059-1.456.088-2.941.088-4.454v-5.916zm21.542-1.272a197.923 197.923 0 00-.071-5.263c-.023-.894-.052-1.748-.087-2.562a57.453 57.453 0 00-.122-2.081c.653.115 1.179.172 1.576.172s.922-.057 1.576-.172a55.25 55.25 0 00-.122 2.081c-.035.814-.065 1.668-.088 2.562a215.21 215.21 0 00-.07 5.263v6.225a213.75 213.75 0 00.07 5.262c.023.894.053 1.743.088 2.545.034.803.076 1.468.122 1.995a18.46 18.46 0 00-1.576-.069c-.514 0-1.039.023-1.576.069.046-.527.087-1.192.122-1.995.035-.802.064-1.651.087-2.545a197.775 197.775 0 00.071-5.262v-6.225zm17.829 7.463a8.96 8.96 0 01-1.384.344c-.526.092-1.057.189-1.593.292-.538.104-1.069.235-1.595.396-.525.16-.992.378-1.4.653-.409.276-.736.62-.982 1.032-.244.413-.367.94-.367 1.582 0 1.078.315 1.892.946 2.442.63.551 1.331.826 2.101.826a4.35 4.35 0 002.435-.723c.736-.481 1.302-1.043 1.699-1.685l.14-5.159zm-8.653-6.122c1.051-.779 2.021-1.307 2.908-1.582a9.18 9.18 0 012.732-.413c.841 0 1.611.121 2.312.361a5.058 5.058 0 011.787 1.032c.49.447.875.986 1.156 1.617.279.63.419 1.324.419 2.08 0 1.307-.023 2.609-.069 3.904a113.6 113.6 0 00-.071 4.11c0 .275.006.568.018.877.012.31.064.585.158.826.093.241.228.441.403.602.175.16.437.24.788.24.116 0 .239-.005.368-.017a.86.86 0 00.367-.12v.756a4.195 4.195 0 01-.963.276 7.371 7.371 0 01-1.279.103c-.747 0-1.319-.189-1.716-.568-.397-.378-.63-.865-.701-1.461-.84.825-1.669 1.433-2.486 1.822-.818.39-1.822.585-3.013.585-.584 0-1.155-.08-1.716-.241a3.94 3.94 0 01-1.489-.791 4.365 4.365 0 01-1.051-1.324c-.268-.516-.402-1.106-.402-1.771 0-1.376.438-2.442 1.313-3.199.876-.756 2.084-1.261 3.625-1.513a71.928 71.928 0 002.961-.533c.711-.149 1.237-.304 1.575-.464.339-.161.543-.35.614-.568.069-.218.105-.499.105-.843 0-.573-.07-1.123-.211-1.65a3.785 3.785 0 00-.665-1.376 3.351 3.351 0 00-1.191-.946c-.491-.241-1.086-.361-1.786-.361-.935 0-1.804.206-2.61.619-.806.413-1.406.986-1.804 1.72h-.386v-1.789zm28.583 5.022c0-1.72-.339-3.021-1.016-3.904s-1.611-1.324-2.802-1.324c-1.634 0-2.831.493-3.59 1.479-.759.986-1.139 2.373-1.139 4.161v2.924c0 1.032.018 2.115.053 3.25.035 1.135.111 2.161.228 3.078a18.5 18.5 0 00-1.577-.069c-.513 0-1.039.023-1.575.069.116-.917.191-1.943.227-3.078.035-1.135.052-2.218.052-3.25v-3.577c0-1.032-.017-2.115-.052-3.25a37.5 37.5 0 00-.227-3.182c.653.115 1.179.172 1.575.172.187 0 .391-.017.614-.051.221-.035.484-.075.788-.121a35.63 35.63 0 00-.106 2.752h.07c.655-.986 1.437-1.749 2.347-2.288.911-.538 1.997-.808 3.258-.808.653 0 1.313.092 1.979.275a4.774 4.774 0 011.803.946c.538.447.975 1.055 1.315 1.823.338.768.508 1.748.508 2.941 0 .986-.025 2-.071 3.044a75.43 75.43 0 00-.07 3.319v2.235c0 .367.006.728.017 1.084.012.355.03.693.053 1.014a15.014 15.014 0 00-1.471-.069c-.49 0-.969.023-1.436.069.047-1.192.099-2.419.157-3.68.059-1.261.088-2.556.088-3.886v-2.098zm6.865 1.547c0-1.49.257-2.774.771-3.852.514-1.077 1.185-1.966 2.014-2.665a8.063 8.063 0 012.854-1.548 11.063 11.063 0 013.293-.499c1.285 0 2.434.155 3.45.465 1.016.309 1.746.659 2.189 1.049-.163.343-.308.705-.437 1.083s-.239.774-.333 1.187h-.28a4.87 4.87 0 00-.665-.912 5.696 5.696 0 00-.999-.86 5.83 5.83 0 00-1.279-.653 4.425 4.425 0 00-1.541-.258c-1.05 0-1.956.189-2.715.567-.758.379-1.377.9-1.856 1.565-.478.665-.829 1.451-1.05 2.356a12.284 12.284 0 00-.333 2.941c0 2.362.513 4.144 1.54 5.348 1.028 1.204 2.534 1.806 4.52 1.806.467 0 .945-.063 1.435-.189.491-.126.97-.298 1.437-.516a7.89 7.89 0 001.313-.774 6.572 6.572 0 001.068-.963l.175.103c-.117.55-.186 1.112-.209 1.685-.701.551-1.571 1.021-2.61 1.41a9.146 9.146 0 01-3.241.585c-1.003 0-2.014-.143-3.029-.43a7.423 7.423 0 01-2.749-1.444c-.818-.677-1.478-1.554-1.98-2.631-.501-1.078-.753-2.397-.753-3.956z" fill="#fff"/><path d="M36.44 189.479c-.288.256-.754.545-1.395.865-.61.288-1.363.56-2.262.816-.865.224-1.844.432-2.935.624-1.09.192-2.229.289-3.415.289-2.534 0-4.876-.353-7.025-1.057-2.149-.736-4.01-1.841-5.581-3.314-1.54-1.472-2.758-3.265-3.656-5.378-.867-2.145-1.3-4.579-1.3-7.3s.433-5.138 1.3-7.251c.898-2.146 2.132-3.954 3.704-5.427 1.604-1.473 3.512-2.594 5.725-3.362 2.213-.768 4.651-1.152 7.314-1.152 2.117 0 4.04.224 5.773.672 1.765.416 3.32.928 4.668 1.537-.257.448-.466 1.056-.626 1.825-.16.768-.29 1.408-.386 1.921l-.288.096c-.32-.385-.77-.817-1.347-1.297s-1.25-.945-2.02-1.393a11.96 11.96 0 00-2.599-1.104c-.962-.321-2.02-.481-3.175-.481-1.893 0-3.657.305-5.292.913-1.605.608-3.015 1.553-4.235 2.833-1.186 1.249-2.117 2.85-2.79 4.803-.674 1.921-1.011 4.21-1.011 6.867s.337 4.963 1.011 6.916c.673 1.921 1.604 3.521 2.79 4.802a11.605 11.605 0 004.235 2.785c1.636.609 3.4.913 5.292.913 1.155 0 2.213-.144 3.175-.432a17.624 17.624 0 002.694-1.009 17.4 17.4 0 002.214-1.297c.674-.48 1.234-.896 1.684-1.248l.192.192-.433 2.833zm10.778-12.966c.834 0 1.7.016 2.597.048.899.032 1.765.048 2.599.048h2.694l2.694-.096-5.34-12.198-5.244 12.198zm21.314 14.935a9.218 9.218 0 00-1.3-.096h-2.549c-.386 0-.802.032-1.251.096a45.086 45.086 0 00-.914-2.641 63.276 63.276 0 00-1.3-3.266 153.7 153.7 0 00-1.395-3.457 373.78 373.78 0 01-1.347-3.362 100.339 100.339 0 00-3.127-.048 105.075 105.075 0 00-3.176-.048c-.994 0-1.973.016-2.935.048-.962 0-1.94.016-2.934.048a199.504 199.504 0 00-2.791 7.156c-.834 2.241-1.46 4.098-1.877 5.57a15.311 15.311 0 00-1.78-.096c-.642 0-1.235.032-1.78.096a1243.792 1243.792 0 007.602-16.712 2361.48 2361.48 0 007.458-16.904h.913c.77 1.856 1.605 3.873 2.503 6.051.898 2.145 1.812 4.322 2.742 6.531.93 2.209 1.86 4.402 2.791 6.579.93 2.177 1.796 4.21 2.598 6.099a480.96 480.96 0 012.213 4.995c.673 1.472 1.22 2.593 1.636 3.361zm9.96-16.952a14.863 14.863 0 006.495.048 8.248 8.248 0 002.888-1.2c.898-.609 1.619-1.425 2.165-2.45.576-1.056.865-2.401.865-4.034 0-1.376-.192-2.497-.577-3.361-.385-.865-.93-1.537-1.636-2.017-.674-.481-1.508-.801-2.501-.961-.995-.192-2.117-.288-3.368-.288h-4.33v14.263zm-3.945-3.602c0-2.113-.048-4.178-.145-6.195-.064-2.049-.144-4.13-.24-6.243l2.31.192c.802.032 1.588.048 2.357.048.385 0 .85-.016 1.396-.048a27.89 27.89 0 011.635-.048 234.91 234.91 0 001.636-.096c.513-.032.947-.048 1.299-.048.48 0 1.075.016 1.78.048.706.032 1.443.128 2.214.288.801.16 1.587.4 2.356.721.77.32 1.46.784 2.07 1.392.641.609 1.155 1.377 1.54 2.305.384.897.577 2.017.577 3.362 0 2.113-.465 3.826-1.396 5.139-.898 1.312-2.02 2.337-3.367 3.073a13.071 13.071 0 01-4.235 1.489c-1.475.256-2.79.384-3.944.384h-2.022a40.105 40.105 0 01-1.876-.144v2.641c0 2.113.032 4.195.097 6.244.095 2.049.192 4.066.288 6.051a27.338 27.338 0 00-2.358-.096c-.833 0-1.62.032-2.357.096.096-1.985.176-4.002.24-6.051.097-2.049.145-4.131.145-6.244v-8.26zm27.22 0c0-2.113-.048-4.178-.143-6.195-.065-2.049-.145-4.13-.241-6.243.417.064.818.128 1.203.192a13.902 13.902 0 002.31 0c.384-.064.785-.128 1.202-.192-.096 2.113-.192 4.194-.289 6.243a195.402 195.402 0 00-.096 6.195v8.26c0 2.113.032 4.195.096 6.244.097 2.049.193 4.066.289 6.051a27.325 27.325 0 00-2.357-.096c-.834 0-1.62.032-2.358.096.096-1.985.176-4.002.241-6.051.095-2.049.143-4.131.143-6.244v-8.26zm20.556 0c0-3.329-.049-6.643-.145-9.941-.833 0-1.715.016-2.646.048-.898 0-1.812.032-2.743.096-.898.032-1.779.08-2.646.144a35.98 35.98 0 00-2.261.241c.16-.577.241-1.089.241-1.537 0-.352-.081-.849-.241-1.489 2.117.064 4.186.128 6.207.192a391.99 391.99 0 0012.413 0c2.021-.064 4.089-.128 6.207-.192-.161.64-.241 1.153-.241 1.537 0 .416.08.912.241 1.489a35.305 35.305 0 00-2.31-.241 62.936 62.936 0 00-2.646-.144 38.587 38.587 0 00-2.742-.096 73.067 73.067 0 00-2.598-.048 338.148 338.148 0 00-.145 9.941v8.26c0 2.113.032 4.195.097 6.244.095 2.049.191 4.066.288 6.051a27.349 27.349 0 00-2.358-.096c-.833 0-1.619.032-2.357.096.096-1.985.176-4.002.24-6.051.096-2.049.145-4.131.145-6.244v-8.26zm22.206 5.619c.834 0 1.7.016 2.598.048.898.032 1.765.048 2.599.048h2.694l2.695-.096-5.341-12.198-5.245 12.198zm21.315 14.935a9.233 9.233 0 00-1.3-.096h-2.55c-.384 0-.801.032-1.251.096a44.59 44.59 0 00-.914-2.641 61.931 61.931 0 00-1.299-3.266 156.105 156.105 0 00-1.395-3.457 371.327 371.327 0 01-1.348-3.362 100.304 100.304 0 00-3.127-.048 105.049 105.049 0 00-3.175-.048c-.995 0-1.972.016-2.934.048-.963 0-1.941.016-2.936.048a198.878 198.878 0 00-2.79 7.156c-.835 2.241-1.46 4.098-1.876 5.57a15.341 15.341 0 00-1.781-.096c-.641 0-1.235.032-1.78.096a1242.553 1242.553 0 007.602-16.712c2.47-5.539 4.955-11.174 7.457-16.904h.915c.769 1.856 1.603 3.873 2.501 6.051.898 2.145 1.812 4.322 2.743 6.531.93 2.209 1.86 4.402 2.791 6.579.929 2.177 1.796 4.21 2.597 6.099a475.84 475.84 0 012.214 4.995c.674 1.472 1.219 2.593 1.636 3.361zm6.014-20.554c0-2.113-.048-4.178-.143-6.195-.065-2.049-.145-4.13-.241-6.243.417.064.818.128 1.203.192a13.902 13.902 0 002.309 0c.385-.064.785-.128 1.202-.192-.095 2.113-.191 4.194-.288 6.243a195.402 195.402 0 00-.096 6.195c0 4.034.016 7.54.048 10.518.032 2.945.064 5.586.096 7.924 2.278 0 4.459-.016 6.544-.048a67.141 67.141 0 006.735-.577c-.16.576-.24 1.057-.24 1.441 0 .352.08.784.24 1.297a102.113 102.113 0 00-4.426-.096H175.9c-1.411 0-2.887.032-4.426.096.096-1.985.176-4.002.241-6.051.095-2.049.143-4.131.143-6.244v-8.26z" fill="#2980B9" fill-opacity=".4"/><mask id="a" maskUnits="userSpaceOnUse" x="50" y="4" width="98" height="96"><path d="M99.137 99.915c26.797 0 48.52-21.258 48.52-47.48 0-26.223-21.723-47.48-48.52-47.48-26.797 0-48.52 21.257-48.52 47.48 0 26.222 21.723 47.48 48.52 47.48z" fill="#fff"/></mask><g mask="url(#a)"><path opacity=".6" d="M99.137 99.915c26.797 0 48.52-21.258 48.52-47.48 0-26.223-21.723-47.48-48.52-47.48-26.797 0-48.52 21.257-48.52 47.48 0 26.222 21.723 47.48 48.52 47.48z" fill="url(#paint0_linear)"/><g filter="url(#filter0_d)" fill="#000"><path d="M147.375 57.57L99.137 28.364v10.407l42.568 36.466a46.465 46.465 0 005.67-17.667zm-48.238 2.539v10.407l26.968 21.394c5.796-3.798 7.338-3.46 11.004-9.267L99.137 60.11zm40.762 18.082L99.137 43.298v10.407l38.283 28.632c.452-.608 2.066-3.52 2.479-4.146zM99.137 76.01v16.48l9.704 6.487a48.866 48.866 0 0013.315-4.721l-23.02-18.247z"/><path d="M99.138 60.109L67.882 88.763a48.686 48.686 0 009.45 6.1l21.806-24.347V60.109zm0-16.811l-36.333 40.58a48.328 48.328 0 005.021 4.803l31.312-34.975V43.297zM54.004 69.884a47.174 47.174 0 006.827 11.677l38.308-42.788V28.366L54.004 69.72v.165zm45.132 6.126l-18.28 20.427a48.983 48.983 0 0011.228 2.981l7.052-6.928V76.01z"/></g><path d="M147.375 57.57L99.137 28.364v10.407l42.568 36.466a46.465 46.465 0 005.67-17.667z" fill="url(#paint1_linear)"/><path d="M99.137 60.108v10.407l26.968 21.394c5.796-3.797 7.121-3.575 10.787-9.382L99.137 60.108z" fill="url(#paint2_linear)"/><path d="M139.899 78.19L99.137 43.299v10.407l38.253 28.658c.451-.607 2.096-3.547 2.509-4.172z" fill="url(#paint3_linear)"/><path d="M99.137 76.01v16.48l9.704 6.487a48.866 48.866 0 0013.315-4.721l-23.02-18.247z" fill="url(#paint4_linear)"/><path d="M99.138 60.108L67.882 88.762a48.686 48.686 0 009.45 6.101l21.806-24.348V60.108z" fill="url(#paint5_linear)"/><path d="M99.137 43.298l-36.333 40.58a48.338 48.338 0 005.021 4.802l31.312-34.975V43.298z" fill="url(#paint6_linear)"/><path d="M54.004 69.882A47.175 47.175 0 0060.83 81.56l38.308-42.788V28.364L54.004 69.716v.166z" fill="url(#paint7_linear)"/><path d="M99.136 76.01l-18.28 20.427a48.983 48.983 0 0011.228 2.981l7.052-6.929V76.01z" fill="url(#paint8_linear)"/></g><defs><linearGradient id="paint0_linear" x1="99.137" y1="71.97" x2="99.137" y2="4.954" gradientUnits="userSpaceOnUse"><stop stop-color="#2980B9" stop-opacity=".4"/><stop offset="1" stop-color="#2C3E50" stop-opacity=".4"/></linearGradient><linearGradient id="paint1_linear" x1="158.031" y1="40.114" x2="125.308" y2="84.594" gradientUnits="userSpaceOnUse"><stop stop-color="#AEAEAE"/><stop offset="1" stop-color="#fff"/></linearGradient><linearGradient id="paint2_linear" x1="149.593" y1="68.08" x2="129.363" y2="102.804" gradientUnits="userSpaceOnUse"><stop stop-color="#AEAEAE"/><stop offset="1" stop-color="#fff"/></linearGradient><linearGradient id="paint3_linear" x1="148.904" y1="52.508" x2="123.885" y2="89.17" gradientUnits="userSpaceOnUse"><stop stop-color="#AEAEAE"/><stop offset="1" stop-color="#fff"/></linearGradient><linearGradient id="paint4_linear" x1="127.24" y1="81.766" x2="111.085" y2="103.153" gradientUnits="userSpaceOnUse"><stop stop-color="#AEAEAE"/><stop offset="1" stop-color="#fff"/></linearGradient><linearGradient id="paint5_linear" x1="106.042" y1="68.82" x2="81" y2="98.568" gradientUnits="userSpaceOnUse"><stop stop-color="#AEAEAE"/><stop offset="1" stop-color="#fff"/></linearGradient><linearGradient id="paint6_linear" x1="107.163" y1="54.673" x2="74.029" y2="89.713" gradientUnits="userSpaceOnUse"><stop stop-color="#AEAEAE"/><stop offset="1" stop-color="#fff"/></linearGradient><linearGradient id="paint7_linear" x1="109.109" y1="41.698" x2="70.462" y2="85.012" gradientUnits="userSpaceOnUse"><stop stop-color="#AEAEAE"/><stop offset="1" stop-color="#fff"/></linearGradient><linearGradient id="paint8_linear" x1="103.174" y1="81.877" x2="86.064" y2="99.525" gradientUnits="userSpaceOnUse"><stop stop-color="#AEAEAE"/><stop offset="1" stop-color="#fff"/></linearGradient><filter id="filter0_d" x="45.201" y="21.762" width="110.977" height="88.66" filterUnits="userSpaceOnUse" color-interpolation-filters="sRGB"><feFlood flood-opacity="0" result="BackgroundImageFix"/><feColorMatrix in="SourceAlpha" values="0 0 0 0 0 0 0 0 0 0 0 0 0 0 0 0 0 0 127 0"/><feOffset dy="2.201"/><feGaussianBlur stdDeviation="4.402"/><feColorMatrix values="0 0 0 0 0 0 0 0 0 0 0 0 0 0 0 0 0 0 0.22 0"/><feBlend in2="BackgroundImageFix" result="effect1_dropShadow"/><feBlend in="SourceGraphic" in2="effect1_dropShadow" result="shape"/></filter></defs></svg>