<svg width="167" height="109" fill="none" xmlns="http://www.w3.org/2000/svg"><g opacity=".05"><mask id="a" fill="#fff"><path d="M67.663 49.656l-62.322.177 31.314 54.24 62.322-.177-31.314-54.24zm-31.362 55.036L4.272 49.22l63.738-.183 32.029 55.471-63.738.184z"/></mask><path d="M67.663 49.656l-62.322.177 31.314 54.24 62.322-.177-31.314-54.24zm-31.362 55.036L4.272 49.22l63.738-.183 32.029 55.471-63.738.184z" fill="#344555"/><path d="M67.663 49.656l.866-.5-.29-.502-.579.002.003 1zm-62.322.177l-.003-1-1.727.005.863 1.495.867-.5zm31.314 54.24l-.866.5.29.502.579-.002-.003-1zm62.322-.177l.003 1 1.726-.005-.863-1.495-.866.5zm-62.676.796l-.866.5.29.502.579-.002-.003-1zM4.272 49.22l-.002-1-1.727.005.863 1.495.866-.5zm63.738-.183l.866-.5-.29-.502-.579.002.003 1zm32.029 55.471l.002 1 1.727-.005-.863-1.495-.866.5zM67.66 48.656l-62.322.177.005 2 62.323-.177-.006-2zM4.475 50.333l31.314 54.24 1.732-1-31.314-54.24-1.732 1zm32.183 54.74l62.322-.177-.006-2-62.322.177.006 2zm63.185-1.677L68.53 49.156l-1.732 1 31.314 54.24 1.732-1zm-62.676.796L5.138 48.72l-1.732 1 32.029 55.472 1.732-1zM4.275 50.22l63.738-.183-.006-2-63.737.183.005 2zm62.869-.683l32.028 55.471 1.733-1-32.03-55.471-1.731 1zm32.892 53.971l-63.738.184.006 2 63.737-.184-.005-2z" fill="#344555" mask="url(#a)"/></g><g opacity=".15"><mask id="b" fill="#fff"><path d="M76.195 41.533l-67.384.19 33.858 58.649 67.384-.19-33.858-58.649zM42.282 101.04L7.654 41.064l68.915-.197 34.627 59.975-68.914.197z"/></mask><path d="M76.195 41.533l-67.384.19 33.858 58.649 67.384-.19-33.858-58.649zM42.282 101.04L7.654 41.064l68.915-.197 34.627 59.975-68.914.197z" fill="#344555"/><path d="M76.195 41.533l.866-.5-.29-.502-.58.002.004 1zm-67.384.19l-.003-1-1.726.005.863 1.496.866-.5zm33.858 58.649l-.866.5.29.502.58-.002-.004-1zm67.384-.19l.003 1 1.726-.005-.863-1.495-.866.5zm-67.771.857l-.866.5.29.502.578-.002-.002-1zM7.654 41.064l-.003-1-1.726.005.863 1.495.866-.5zm68.915-.197l.866-.5-.29-.502-.579.002.003 1zm34.627 59.975l.003 1 1.726-.005-.863-1.495-.866.5zM76.192 40.533l-67.384.19.006 2 67.383-.19-.005-2zm-68.247 1.69l33.858 58.649 1.733-1-33.86-58.648-1.731 1zm34.727 59.149l67.384-.19-.006-2-67.383.19.005 2zm68.247-1.69L77.061 41.033l-1.732 1 33.858 58.649 1.732-1zm-67.771.857L8.52 40.564l-1.732 1 34.628 59.975 1.732-1zM7.658 42.064l68.914-.197-.006-2-68.915.197.006 2zm68.045-.697l34.627 59.975 1.732-1-34.627-59.976-1.732 1zm35.49 58.475l-68.914.197.005 2 68.915-.197-.006-2z" fill="#344555" mask="url(#b)"/></g><g opacity=".3"><mask id="c" fill="#fff"><path d="M84.724 33.41l-72.452.204L48.675 96.67l72.452-.204L84.724 33.41zM48.267 97.385L11.034 32.9l74.099-.21 37.226 64.485-74.092.211z"/></mask><path d="M84.724 33.41l-72.452.204L48.675 96.67l72.452-.204L84.724 33.41zM48.267 97.385L11.034 32.9l74.099-.21 37.226 64.485-74.092.211z" fill="#344555"/><path d="M84.724 33.41l.867-.5-.29-.502-.58.002.003 1zm-72.452.204l-.002-1-1.727.005.863 1.495.866-.5zM48.675 96.67l-.866.5.29.501.58-.001-.004-1zm72.452-.204l.003 1 1.727-.005-.864-1.495-.866.5zm-72.86.918l-.866.5.29.502.579-.002-.003-1zM11.034 32.9l-.003-1-1.726.005.863 1.495.866-.5zm74.099-.21l.866-.5-.29-.502-.58.002.004 1zm37.226 64.485l.003 1 1.726-.005-.863-1.495-.866.5zM84.722 32.41l-72.453.204.006 2 72.452-.204-.005-2zm-73.316 1.704L47.81 97.17l1.732-1-36.403-63.057-1.732 1zM48.678 97.67l72.452-.204-.005-2-72.453.204.006 2zm73.315-1.704L85.591 32.91l-1.733 1 36.403 63.057 1.732-1zm-72.86.918L11.9 32.4l-1.732 1 37.233 64.486 1.732-1zM11.037 33.9l74.099-.21-.006-2-74.099.21.006 2zm73.23-.71l37.226 64.485 1.732-1-37.226-64.486-1.732 1zm38.089 62.985l-74.092.211.006 2 74.092-.21-.006-2z" fill="#344555" mask="url(#c)"/></g><g opacity=".5"><mask id="d" fill="#fff"><path d="M93.255 25.287l-77.513.218 38.947 67.458 77.513-.217-38.947-67.459zM54.247 93.732l-39.832-68.99 79.276-.224 39.831 68.99-79.275.224z"/></mask><path d="M93.255 25.287l-77.513.218 38.947 67.458 77.513-.217-38.947-67.459zM54.247 93.732l-39.832-68.99 79.276-.224 39.831 68.99-79.275.224z" fill="#344555"/><path d="M93.255 25.287l.866-.5-.29-.502-.579.002.003 1zm-77.513.218l-.003-1-1.727.005.864 1.495.866-.5zm38.947 67.458l-.866.5.29.502.579-.002-.003-1zm77.513-.217l.003 1 1.727-.005-.864-1.495-.866.5zm-77.955.986l-.866.5.29.502.578-.002-.002-1zm-39.832-68.99l-.003-1-1.726.006.863 1.495.866-.5zm79.276-.224l.866-.5-.29-.501-.58.001.004 1zm39.831 68.99l.003 1 1.726-.005-.863-1.495-.866.5zm-40.27-69.22l-77.513.217.005 2 77.514-.218-.006-2zm-78.376 1.717l38.947 67.458 1.732-1-38.947-67.458-1.732 1zm39.816 67.958l77.513-.217-.005-2-77.514.217.006 2zm78.376-1.717L94.121 24.787l-1.732 1 38.947 67.459 1.732-1zm-77.955.986L15.28 24.242l-1.732 1 39.832 68.99 1.732-1zm-40.695-67.49l79.275-.224-.005-2-79.276.225.006 2zm78.407-.724l39.831 68.99 1.732-1-39.831-68.99-1.732 1zm40.694 67.49l-79.275.224.005 2 79.276-.224-.006-2z" fill="#344555" mask="url(#d)"/></g><g opacity=".75"><mask id="e" fill="#fff"><path d="M101.785 17.165l-82.575.23 41.492 71.868 82.575-.231-41.492-71.867zM60.232 90.079L17.795 16.586l84.453-.238 42.43 73.493-84.446.238z"/></mask><path d="M101.785 17.165l-82.575.23 41.492 71.868 82.575-.231-41.492-71.867zM60.232 90.079L17.795 16.586l84.453-.238 42.43 73.493-84.446.238z" fill="#344555"/><path d="M101.785 17.165l.866-.5-.29-.502-.579.002.003 1zm-82.575.23l-.003-1-1.726.006.863 1.495.866-.5zm41.492 71.868l-.866.5.29.501.578-.001-.002-1zm82.575-.231l.002 1 1.727-.005-.863-1.495-.866.5zm-83.045 1.047l-.866.5.29.502.579-.002-.003-1zM17.795 16.586l-.003-1-1.726.005.863 1.495.866-.5zm84.453-.238l.866-.5-.29-.502-.579.002.003 1zm42.43 73.493l.003 1 1.726-.005-.863-1.495-.866.5zm-42.896-73.676l-82.575.23.006 2 82.575-.23-.006-2zm-83.438 1.73l41.492 71.868 1.732-1-41.492-71.867-1.732 1zm42.36 72.368l82.575-.232-.005-2-82.575.232.005 2zm83.439-1.731l-41.492-71.867-1.732 1 41.492 71.866 1.732-1zm-83.045 1.047L18.661 16.086l-1.732 1L59.366 90.58l1.732-1zm-43.3-71.993l84.452-.238-.005-2-84.453.238.006 2zm83.584-.738l42.43 73.493 1.732-1-42.43-73.493-1.732 1zm43.293 71.993l-84.446.238.006 2 84.446-.238-.006-2z" fill="#344555" mask="url(#e)"/></g><mask id="f" fill="#fff"><path d="M110.317 9.042l-87.644.245L66.71 85.562l87.637-.251-44.029-76.269zM66.213 86.426L21.177 8.43l89.629-.252 45.036 78.003-89.63.245z"/></mask><path d="M110.317 9.042l-87.644.245L66.71 85.562l87.637-.251-44.029-76.269zM66.213 86.426L21.177 8.43l89.629-.252 45.036 78.003-89.63.245z" fill="#344555"/><path d="M110.317 9.042l.866-.5-.29-.502-.579.002.003 1zm-87.644.245l-.002-1-1.727.005.863 1.495.866-.5zM66.71 85.562l-.866.5.29.502.58-.002-.004-1zm87.637-.251l.003 1 1.726-.005-.863-1.495-.866.5zm-88.133 1.115l-.866.5.29.502.579-.002-.003-1zM21.177 8.43l-.003-1-1.727.005.864 1.495.866-.5zm89.629-.252l.867-.5-.29-.502-.579.002.002 1zm45.036 78.003l.003 1 1.727-.004-.864-1.496-.866.5zM110.314 8.042l-87.643.245.005 2 87.643-.245-.005-2zM21.807 9.787l44.036 76.275 1.732-1L23.54 8.787l-1.733 1zm44.905 76.775l87.637-.251-.006-2-87.636.251.005 2zm88.5-1.751L111.183 8.542l-1.732 1L153.48 85.81l1.732-1zm-88.133 1.115L22.043 7.93l-1.732 1 45.036 77.996 1.732-1zM21.179 9.43l89.63-.252-.005-2-89.63.252.006 2zm88.761-.752l45.036 78.003 1.732-1-45.035-78.003-1.733 1zm45.9 76.503l-89.63.245.006 2 89.629-.245-.005-2z" fill="#344555" mask="url(#f)"/><mask id="g" fill="#fff"><path d="M118.848.918l-92.704.259 46.58 80.677 92.698-.265L118.848.919zM72.193 82.78L24.56.272 119.365 0 167 82.507l-94.807.272z"/></mask><path d="M118.848.918l-92.704.259 46.58 80.677 92.698-.265L118.848.919zM72.193 82.78L24.56.272 119.365 0 167 82.507l-94.807.272z" fill="#344555"/><path d="M118.848.918l.866-.5-.289-.501-.579.001.002 1zm-92.704.259l-.003-1-1.727.005.864 1.495.866-.5zm46.58 80.677l-.866.5.29.502.579-.002-.003-1zm92.698-.265l.003 1 1.726-.005-.863-1.495-.866.5zm-93.229 1.19l-.866.5.29.502.58-.002-.004-1zM24.56.272l-.003-1-1.727.005.864 1.495.866-.5zM119.365 0l.866-.5-.289-.502-.579.002.002 1zM167 82.507l.003 1 1.726-.005-.863-1.495-.866.5zM118.846-.082L26.141.177l.006 2 92.704-.259-.005-2zM25.278 1.677l46.58 80.677 1.732-1L27.01.677l-1.732 1zm47.449 81.177l92.698-.265-.006-2-92.698.265.006 2zm93.561-1.765L119.714.419l-1.732 1 46.574 80.67 1.732-1zm-93.229 1.19L25.425-.228l-1.732 1L71.327 83.28l1.732-1zM24.561 1.272L119.368 1l-.005-2-94.807.272.005 2zM118.5.5l47.635 82.507 1.732-1L120.231-.5l-1.732 1zm48.498 81.007l-94.807.272.006 2 94.807-.272-.006-2z" fill="#344555" mask="url(#g)"/></svg>