<svg width="148" height="47" fill="none" xmlns="http://www.w3.org/2000/svg"><mask id="a" maskUnits="userSpaceOnUse" x="0" y="2" width="46" height="45"><path d="M22.654 46.718c12.512 0 22.655-10 22.655-22.335 0-12.336-10.143-22.336-22.654-22.336C10.142 2.047 0 12.047 0 24.383c0 12.335 10.143 22.335 22.654 22.335z" fill="#fff"/></mask><g mask="url(#a)"><path d="M22.654 46.718c12.512 0 22.655-10 22.655-22.335 0-12.336-10.143-22.336-22.654-22.336C10.142 2.047 0 12.047 0 24.383c0 12.335 10.143 22.335 22.654 22.335z" fill="url(#paint0_linear)"/><g filter="url(#filter0_d)" fill="#000"><path d="M45.177 26.798L22.654 13.06v4.895L42.53 35.11a21.966 21.966 0 002.647-8.31zm-22.523 1.195v4.895l12.592 10.064c2.706-1.786 3.426-1.627 5.138-4.359l-17.73-10.6zm19.033 8.505L22.654 20.085v4.895L40.53 38.448c.21-.285.964-1.655 1.158-1.95zm-19.033-1.026v7.753l4.531 3.051a22.694 22.694 0 006.217-2.22l-10.748-8.584z"/><path d="M22.655 27.993L8.062 41.472a22.705 22.705 0 004.412 2.87l10.181-11.454v-4.895zm0-7.909L5.69 39.174a22.64 22.64 0 002.345 2.259l14.62-16.453v-4.896zM1.581 32.59a22.23 22.23 0 003.187 5.493l17.887-20.127V13.06L1.581 32.513v.078zm21.073 2.882l-8.535 9.61a22.74 22.74 0 005.242 1.402l3.293-3.26v-7.752z"/></g><path d="M45.177 26.798L22.654 13.06v4.895L42.53 35.11a21.966 21.966 0 002.647-8.31z" fill="url(#paint1_linear)"/><path d="M22.654 27.993v4.895l12.592 10.064c2.706-1.786 3.325-1.682 5.036-4.413L22.654 27.992z" fill="url(#paint2_linear)"/><path d="M41.687 36.498L22.654 20.085v4.895l17.861 13.481c.21-.286.978-1.668 1.172-1.963z" fill="url(#paint3_linear)"/><path d="M22.654 35.472v7.753l4.531 3.051a22.694 22.694 0 006.217-2.22l-10.748-8.584z" fill="url(#paint4_linear)"/><path d="M22.654 27.993L8.061 41.472a22.707 22.707 0 004.412 2.87l10.181-11.454v-4.895z" fill="url(#paint5_linear)"/><path d="M22.655 20.084L5.69 39.174a22.64 22.64 0 002.345 2.259l14.62-16.453v-4.896z" fill="url(#paint6_linear)"/><path d="M1.581 32.59a22.23 22.23 0 003.187 5.493l17.887-20.128V13.06L1.581 32.512v.078z" fill="url(#paint7_linear)"/><path d="M22.654 35.472l-8.535 9.61a22.74 22.74 0 005.242 1.402l3.293-3.26v-7.752z" fill="url(#paint8_linear)"/></g><path fill-rule="evenodd" clip-rule="evenodd" d="M64.576 5.693a3.83 3.83 0 01-.392-.3.579.579 0 01-.197-.46c0-.173.063-.303.188-.389a.631.631 0 01.352-.13c.23 0 .474.13.736.389l2.404 2.41h-.687l-2.404-1.52zm.763 9.626c.284 0 .578.005.883.016.305.01.6.016.883.016a51.812 51.812 0 001.832-.033l-1.816-4.11-1.782 4.11zm2.322-6.294l.85 2.03a583.524 583.524 0 001.881 4.425 299.256 299.256 0 001.644 3.738c.224.496.406.873.548 1.132a3.094 3.094 0 00-.434-.032h-.866c-.137 0-.281.01-.434.032-.076-.248-.18-.547-.31-.898-.131-.35-.276-.717-.434-1.1a516.96 516.96 0 00-.482-1.165 79.525 79.525 0 01-.458-1.124 66.654 66.654 0 00-4.138 0 70.165 70.165 0 00-.948 2.402c-.284.76-.497 1.389-.638 1.885a5.254 5.254 0 00-.606-.032c-.217 0-.42.01-.605.032a415.37 415.37 0 002.584-5.63 748.82 748.82 0 002.535-5.695h.311zm6.87 3.786a100.41 100.41 0 00-.034-2.476c-.01-.42-.024-.822-.04-1.205a25.98 25.98 0 00-.058-.979c.306.054.55.08.736.08.185 0 .43-.026.736-.08-.022.27-.04.596-.057.979-.016.383-.03.785-.041 1.205a102.678 102.678 0 00-.033 2.476v2.928a102.464 102.464 0 00.033 2.476c.01.42.025.82.04 1.197.017.377.036.69.058.938a8.587 8.587 0 00-1.472 0c.022-.248.041-.56.058-.938a100.778 100.778 0 00.074-3.673v-2.928zm9.844 3.446a4.22 4.22 0 00-.188-1.319 3.148 3.148 0 00-.49-.962 2.075 2.075 0 00-.704-.591 1.811 1.811 0 00-.825-.202 2.6 2.6 0 00-.974.186c-.31.124-.58.329-.81.615-.228.286-.41.658-.547 1.116-.136.458-.204 1.022-.204 1.69 0 2.169.796 3.253 2.387 3.253.338 0 .65-.09.933-.267a2.41 2.41 0 00.744-.769 4.17 4.17 0 00.499-1.197c.12-.464.18-.982.18-1.553zm1.44.048c0 .626-.096 1.198-.287 1.715a4.12 4.12 0 01-.785 1.335 3.41 3.41 0 01-1.177.858c-.453.2-.94.299-1.464.299a2.99 2.99 0 01-1.415-.332c-.42-.22-.738-.488-.956-.8-.393.312-.758.625-1.096.938h-.294c.022-.26.04-.572.057-.939.016-.366.03-.757.04-1.173a97.554 97.554 0 00.034-2.467v-2.928a100.296 100.296 0 00-.033-2.476 76.08 76.08 0 00-.04-1.205 25.98 25.98 0 00-.058-.979c.305.054.55.08.736.08.12 0 .245-.007.376-.023.13-.016.272-.035.425-.057-.033.216-.06.558-.082 1.027-.022.47-.038.993-.05 1.57l-.031 1.78c-.011.609-.023 1.162-.033 1.658h.032c.37-.583.78-1.009 1.227-1.278.447-.27.965-.405 1.553-.405.568 0 1.058.105 1.473.316.414.21.757.488 1.03.833.272.345.477.747.613 1.205.137.459.204.941.204 1.448zm5.037-3.284c-.404 0-.744.092-1.022.275a2.372 2.372 0 00-.687.688c-.18.275-.317.577-.41.906a4.78 4.78 0 00-.171.93c.338.01.69.022 1.055.032a36.586 36.586 0 002.167 0l1.08-.032c0-.291-.025-.599-.074-.922a2.854 2.854 0 00-.295-.906 1.935 1.935 0 00-.613-.696c-.262-.183-.605-.275-1.03-.275zm-3.778 3.737c0-1.326.319-2.367.957-3.122.637-.755 1.567-1.133 2.788-1.133.578 0 1.076.09 1.496.267.42.178.772.415 1.055.712.284.297.494.645.63 1.044s.204.825.204 1.278a6.227 6.227 0 01-.032.63c-.59-.01-1.173-.02-1.75-.032a93.627 93.627 0 00-1.75-.016c-.36 0-.717.006-1.071.017l-1.071.032a1.289 1.289 0 00-.017.242v.21c0 .421.063.815.188 1.182s.308.682.548.946c.24.265.534.475.883.631.349.157.753.235 1.21.235.219 0 .442-.03.67-.089a3.836 3.836 0 001.285-.607c.19-.14.357-.291.499-.453l.081.049-.098.793c-.327.258-.733.48-1.218.663-.486.183-.99.275-1.513.275a4.647 4.647 0 01-1.61-.267 3.574 3.574 0 01-1.26-.777 3.48 3.48 0 01-.818-1.205 3.917 3.917 0 01-.286-1.505zm12.593-2.766c-.055-.065-.161-.124-.32-.178a1.483 1.483 0 00-.482-.081c-.261 0-.496.06-.703.178a1.625 1.625 0 00-.523.477c-.142.2-.251.437-.327.712a3.29 3.29 0 00-.115.882v1.78c0 .722.003 1.275.008 1.658.006.383.025.693.058.93a6.974 6.974 0 00-1.341 0c.032-.367.051-.865.057-1.496.005-.631.008-1.405.008-2.322v-.518c0-.42-.003-.906-.008-1.456a54.095 54.095 0 00-.057-1.893c.12.022.234.04.343.057a2.135 2.135 0 00.654 0c.11-.016.224-.035.344-.057a11.198 11.198 0 00-.082 1.57l.032.016c.644-1.165 1.364-1.748 2.16-1.748.097 0 .182.006.253.016.07.011.16.038.27.081-.055.13-.087.327-.099.59-.01.265-.016.505-.016.72l-.114.082zm7.948 2.459c0 .55.011 1.095.033 1.634l.065 1.634a16.108 16.108 0 001.603.081 2.9 2.9 0 001.006-.178 2.389 2.389 0 001.414-1.383 2.98 2.98 0 00.213-1.157c0-.464-.085-.844-.254-1.14a1.765 1.765 0 00-.727-.696 3.508 3.508 0 00-1.137-.348 10.272 10.272 0 00-1.48-.097h-.736v1.65zm.883-2.249a5.8 5.8 0 001.137-.113 3.103 3.103 0 001.005-.38c.295-.178.532-.416.712-.712.18-.297.27-.672.27-1.125 0-.442-.082-.795-.245-1.06a1.778 1.778 0 00-.622-.614 2.404 2.404 0 00-.85-.292 6.26 6.26 0 00-.949-.072 8.954 8.954 0 00-1.243.08l-.065 1.538a35.441 35.441 0 00-.033 1.537v1.213h.883zm-2.224-.793c0-.712-.014-1.413-.041-2.103-.027-.69-.057-1.38-.09-2.07.284.02.572.04.867.056.294.016.583.024.867.024.283 0 .572-.013.867-.04a9.47 9.47 0 01.866-.04c.469 0 .911.034 1.325.104.414.07.78.194 1.096.372.316.178.567.418.752.72.185.302.278.68.278 1.133 0 .798-.253 1.424-.761 1.877-.506.453-1.169.77-1.986.954v.033c.97.043 1.736.275 2.297.695.562.421.843 1.095.843 2.023 0 .604-.126 1.11-.377 1.52-.25.41-.577.742-.981.996a4.061 4.061 0 01-1.333.534 6.986 6.986 0 01-1.447.153c-.262 0-.526-.005-.793-.016-.267-.01-.532-.016-.794-.016h-.792c-.268 0-.532.01-.794.032.033-.69.063-1.378.09-2.063.027-.685.041-1.383.041-2.095V13.41zm10.058-.598a104.45 104.45 0 00-.033-2.476 66.76 66.76 0 00-.041-1.205 25.22 25.22 0 00-.057-.979c.305.054.551.08.736.08.186 0 .431-.026.736-.08-.022.27-.041.596-.057.979-.017.383-.03.785-.041 1.205a104.6 104.6 0 00-.033 2.476v2.928a104.464 104.464 0 00.033 2.476c.011.42.024.82.041 1.197.016.377.035.69.057.938a8.579 8.579 0 00-1.472 0c.022-.248.041-.56.057-.938.017-.378.03-.777.041-1.197a104.584 104.584 0 00.033-2.476v-2.928zm8.324 3.51c-.185.065-.4.12-.646.162a44.19 44.19 0 00-.744.138c-.251.048-.499.11-.744.186a2.438 2.438 0 00-.654.307c-.191.13-.344.292-.458.486-.114.194-.172.442-.172.744 0 .507.148.89.442 1.149.294.259.621.388.981.388a2.02 2.02 0 001.137-.34 2.55 2.55 0 00.793-.793l.065-2.426zm-4.039-2.88c.49-.366.943-.614 1.357-.744a4.26 4.26 0 011.276-.194c.392 0 .752.057 1.079.17.327.113.606.275.834.486.229.21.409.463.54.76.131.297.196.623.196.979 0 .615-.011 1.227-.032 1.836-.022.61-.033 1.254-.033 1.933 0 .13.002.267.008.413a1.2 1.2 0 00.074.388.731.731 0 00.188.284c.082.075.204.113.368.113.054 0 .111-.003.171-.008a.404.404 0 00.172-.057v.356a1.98 1.98 0 01-.45.13 3.374 3.374 0 01-.597.048c-.348 0-.616-.089-.801-.267a1.099 1.099 0 01-.327-.688c-.393.389-.78.674-1.161.858-.382.183-.851.275-1.407.275-.272 0-.539-.038-.801-.113a1.84 1.84 0 01-.695-.372 2.053 2.053 0 01-.491-.623 1.794 1.794 0 01-.188-.834c0-.647.205-1.148.614-1.504.409-.356.972-.593 1.692-.712.589-.097 1.049-.18 1.382-.25.333-.071.578-.144.736-.22.158-.075.254-.164.286-.266.033-.103.049-.235.049-.397a3 3 0 00-.098-.776 1.781 1.781 0 00-.311-.647 1.559 1.559 0 00-.556-.445c-.229-.114-.506-.17-.834-.17-.436 0-.842.097-1.218.291a1.929 1.929 0 00-.842.809h-.18v-.841zm13.345 2.363c0-.81-.158-1.421-.474-1.837-.317-.415-.753-.622-1.309-.622-.763 0-1.321.231-1.676.695-.354.464-.532 1.117-.532 1.958v1.375c0 .486.009.995.025 1.53.016.533.052 1.016.106 1.447a8.579 8.579 0 00-1.471 0 15.8 15.8 0 00.106-1.448c.016-.534.024-1.043.024-1.529v-1.682c0-.486-.008-.996-.024-1.53a17.91 17.91 0 00-.106-1.496c.305.054.55.081.735.081.088 0 .183-.008.287-.024l.368-.057c-.033.432-.05.863-.05 1.294h.033a3.409 3.409 0 011.096-1.075c.425-.254.932-.38 1.521-.38.305 0 .613.042.924.129a2.2 2.2 0 01.842.445c.251.21.455.496.614.857.158.361.237.823.237 1.383 0 .464-.011.942-.033 1.432a34.985 34.985 0 00-.033 1.562v1.051a13.03 13.03 0 00.033.987 6.973 6.973 0 00-1.358 0c.023-.56.047-1.138.074-1.731.027-.593.041-1.203.041-1.828v-.987zm3.205.728c0-.701.12-1.305.36-1.812.24-.507.554-.925.94-1.254a3.78 3.78 0 011.333-.728 5.143 5.143 0 011.538-.235c.6 0 1.136.073 1.611.219.474.145.815.31 1.022.493a5.032 5.032 0 00-.36 1.068h-.131a2.304 2.304 0 00-.31-.429 2.668 2.668 0 00-1.064-.712 2.05 2.05 0 00-.719-.121c-.491 0-.913.089-1.268.267a2.341 2.341 0 00-.867.736 3.19 3.19 0 00-.49 1.108 5.825 5.825 0 00-.155 1.384c0 1.11.24 1.95.719 2.516.48.566 1.183.849 2.11.849.218 0 .442-.03.67-.089a3.834 3.834 0 001.284-.607c.191-.14.357-.291.499-.453l.082.049a4.735 4.735 0 00-.098.793c-.327.258-.734.48-1.219.663a4.241 4.241 0 01-1.513.275 5.15 5.15 0 01-1.414-.202 3.46 3.46 0 01-1.284-.68 3.487 3.487 0 01-.924-1.238c-.234-.506-.352-1.127-.352-1.86z" fill="#fff"/><path d="M73.968 42.521c-.135.12-.352.256-.651.407a6.963 6.963 0 01-1.056.384c-.405.105-.861.203-1.37.293a9.17 9.17 0 01-1.596.136c-1.183 0-2.276-.166-3.28-.497a7.136 7.136 0 01-2.605-1.559c-.72-.692-1.288-1.536-1.708-2.53-.404-1.009-.606-2.154-.606-3.434 0-1.28.202-2.417.606-3.41.42-1.01.996-1.86 1.73-2.554.749-.693 1.64-1.22 2.673-1.581 1.034-.361 2.172-.542 3.415-.542.988 0 1.887.105 2.696.316.824.196 1.55.437 2.179.723-.12.21-.217.497-.292.858-.075.362-.135.663-.18.904l-.135.045c-.15-.18-.36-.384-.629-.61a6.874 6.874 0 00-.943-.655 5.556 5.556 0 00-1.213-.52 4.638 4.638 0 00-1.483-.225 6.99 6.99 0 00-2.471.429c-.75.286-1.408.73-1.977 1.333-.554.587-.989 1.34-1.303 2.259-.314.904-.472 1.98-.472 3.23s.158 2.335.472 3.254c.314.903.749 1.656 1.303 2.258a5.418 5.418 0 001.977 1.31c.764.287 1.587.43 2.471.43.54 0 1.033-.068 1.483-.203a8.135 8.135 0 001.258-.475 8.1 8.1 0 001.033-.61c.315-.226.576-.421.786-.587l.09.09-.202 1.333zM79 36.422c.39 0 .794.007 1.214.022.419.015.824.023 1.213.023h1.258l1.258-.045-2.494-5.738-2.448 5.738zm9.953 7.026a4.275 4.275 0 00-.607-.046h-1.191c-.18 0-.374.015-.584.045-.105-.346-.247-.76-.427-1.242a29.94 29.94 0 00-.606-1.536 72.519 72.519 0 00-.651-1.627c-.225-.557-.435-1.084-.63-1.581a46.664 46.664 0 00-1.46-.023 48.543 48.543 0 00-1.483-.022c-.464 0-.92.007-1.37.022-.45 0-.906.008-1.37.023a94.857 94.857 0 00-1.303 3.366 35.963 35.963 0 00-.876 2.62 7.096 7.096 0 00-.831-.045 7.1 7.1 0 00-.832.045 588.869 588.869 0 003.55-7.861c1.153-2.606 2.314-5.256 3.482-7.952h.426c.36.873.75 1.822 1.169 2.846l1.28 3.073c.434 1.039.869 2.07 1.303 3.095.434 1.024.839 1.98 1.213 2.869.39.873.734 1.656 1.034 2.35.314.692.569 1.219.764 1.58zm4.649-7.975a6.902 6.902 0 003.033.023 3.835 3.835 0 001.348-.565c.419-.286.756-.67 1.01-1.152.27-.497.405-1.13.405-1.898 0-.647-.09-1.175-.27-1.581a2.192 2.192 0 00-.764-.949c-.314-.226-.704-.377-1.168-.452a8.27 8.27 0 00-1.572-.135h-2.022v6.71zM91.76 33.78c0-.994-.023-1.966-.068-2.914-.03-.964-.067-1.943-.112-2.937l1.079.09c.374.015.74.023 1.1.023.18 0 .397-.008.652-.023.254-.015.509-.023.763-.023l.764-.045a9.9 9.9 0 01.607-.022c.224 0 .502.007.83.022a6.4 6.4 0 011.034.136c.375.075.742.188 1.1.339.36.15.682.369.967.655.3.286.539.648.719 1.084.179.422.27.95.27 1.582 0 .994-.218 1.8-.652 2.417-.42.617-.944 1.1-1.572 1.446a6.081 6.081 0 01-1.978.7c-.689.12-1.302.18-1.841.18h-.944a18.38 18.38 0 01-.876-.067v1.242c0 .994.015 1.973.045 2.937.044.964.09 1.913.134 2.847-.344-.03-.711-.045-1.1-.045-.39 0-.757.015-1.1.045.044-.934.081-1.883.111-2.847a62.98 62.98 0 00.068-2.937V33.78zm12.708-.001c0-.994-.023-1.966-.067-2.914a224.32 224.32 0 00-.113-2.937c.195.03.382.06.562.09a6.415 6.415 0 001.078 0c.18-.03.367-.06.561-.09-.044.994-.089 1.973-.134 2.937-.03.948-.045 1.92-.045 2.914v3.885c0 .994.015 1.973.045 2.937l.134 2.847c-.344-.03-.711-.045-1.1-.045-.389 0-.756.015-1.101.045a178.1 178.1 0 00.113-2.847c.044-.964.067-1.943.067-2.937V33.78zm9.599 0c0-1.567-.022-3.125-.067-4.677-.389 0-.801.008-1.236.023-.419 0-.846.015-1.28.045-.42.015-.831.038-1.236.068-.389.03-.741.068-1.056.113a2.75 2.75 0 00.113-.723c0-.166-.038-.399-.113-.7l2.898.09a181.272 181.272 0 005.796 0l2.898-.09a3.158 3.158 0 00-.112.723c0 .195.037.429.112.7a15.995 15.995 0 00-1.078-.113c-.389-.03-.801-.053-1.235-.068-.42-.03-.847-.045-1.281-.045a33.738 33.738 0 00-1.213-.023 161.32 161.32 0 00-.067 4.677v3.885c0 .994.014 1.973.045 2.937.044.964.089 1.913.134 2.847a12.66 12.66 0 00-1.101-.045c-.389 0-.756.015-1.1.045.045-.934.082-1.883.112-2.847.045-.964.067-1.943.067-2.937V33.78zm10.367 2.643c.39 0 .794.007 1.213.022.42.015.824.023 1.214.023h1.258l1.258-.045-2.494-5.738-2.449 5.738zm9.952 7.026a4.276 4.276 0 00-.607-.046h-1.19c-.18 0-.374.015-.584.045a21.24 21.24 0 00-.427-1.242c-.18-.497-.382-1.01-.607-1.536a68.884 68.884 0 00-.651-1.627c-.225-.557-.434-1.084-.629-1.581a46.667 46.667 0 00-1.46-.023 48.57 48.57 0 00-1.483-.022c-.464 0-.921.007-1.37.022-.45 0-.906.008-1.37.023a92.776 92.776 0 00-1.303 3.366 35.27 35.27 0 00-.876 2.62 7.117 7.117 0 00-.832-.045c-.299 0-.577.015-.831.045a586.278 586.278 0 003.549-7.861c1.154-2.606 2.314-5.256 3.482-7.952h.427c.36.873.749 1.822 1.168 2.846.42 1.01.846 2.033 1.281 3.073.434 1.039.868 2.07 1.303 3.095.434 1.024.839 1.98 1.213 2.869.389.873.734 1.656 1.033 2.35.315.692.569 1.219.764 1.58zm2.807-9.669c0-.994-.022-1.966-.067-2.914-.03-.964-.067-1.943-.112-2.937.194.03.382.06.561.09a6.457 6.457 0 001.079 0c.179-.03.366-.06.561-.09l-.135 2.937c-.029.948-.045 1.92-.045 2.914 0 1.897.008 3.547.023 4.947.015 1.386.03 2.628.045 3.728 1.063 0 2.082-.008 3.055-.023.973-.03 2.022-.12 3.145-.27a2.632 2.632 0 00-.112.677c0 .166.037.369.112.61a47.354 47.354 0 00-2.067-.045h-4.156a49.4 49.4 0 00-2.066.045c.045-.934.082-1.883.112-2.847.045-.964.067-1.943.067-2.937V33.78z" fill="#D5D8DC"/><defs><linearGradient id="paint0_linear" x1="22.654" y1="33.572" x2="22.654" y2="2.047" gradientUnits="userSpaceOnUse"><stop stop-color="#435765"/><stop offset="1" stop-color="#28343F"/></linearGradient><linearGradient id="paint1_linear" x1="50.152" y1="18.587" x2="34.726" y2="39.4" gradientUnits="userSpaceOnUse"><stop stop-color="#AEAEAE"/><stop offset="1" stop-color="#fff"/></linearGradient><linearGradient id="paint2_linear" x1="46.213" y1="31.742" x2="36.662" y2="48.015" gradientUnits="userSpaceOnUse"><stop stop-color="#AEAEAE"/><stop offset="1" stop-color="#fff"/></linearGradient><linearGradient id="paint3_linear" x1="45.891" y1="24.417" x2="34.09" y2="41.581" gradientUnits="userSpaceOnUse"><stop stop-color="#AEAEAE"/><stop offset="1" stop-color="#fff"/></linearGradient><linearGradient id="paint4_linear" x1="35.776" y1="38.18" x2="28.161" y2="48.186" gradientUnits="userSpaceOnUse"><stop stop-color="#AEAEAE"/><stop offset="1" stop-color="#fff"/></linearGradient><linearGradient id="paint5_linear" x1="25.878" y1="32.091" x2="14.083" y2="45.998" gradientUnits="userSpaceOnUse"><stop stop-color="#AEAEAE"/><stop offset="1" stop-color="#fff"/></linearGradient><linearGradient id="paint6_linear" x1="26.402" y1="25.436" x2="10.81" y2="41.802" gradientUnits="userSpaceOnUse"><stop stop-color="#AEAEAE"/><stop offset="1" stop-color="#fff"/></linearGradient><linearGradient id="paint7_linear" x1="27.31" y1="19.332" x2="9.115" y2="39.572" gradientUnits="userSpaceOnUse"><stop stop-color="#AEAEAE"/><stop offset="1" stop-color="#fff"/></linearGradient><linearGradient id="paint8_linear" x1="24.539" y1="38.232" x2="16.489" y2="46.474" gradientUnits="userSpaceOnUse"><stop stop-color="#AEAEAE"/><stop offset="1" stop-color="#fff"/></linearGradient><filter id="filter0_d" x="-7.222" y="6.457" width="61.202" height="51.031" filterUnits="userSpaceOnUse" color-interpolation-filters="sRGB"><feFlood flood-opacity="0" result="BackgroundImageFix"/><feColorMatrix in="SourceAlpha" values="0 0 0 0 0 0 0 0 0 0 0 0 0 0 0 0 0 0 127 0"/><feOffset dy="2.201"/><feGaussianBlur stdDeviation="4.402"/><feColorMatrix values="0 0 0 0 0 0 0 0 0 0 0 0 0 0 0 0 0 0 0.22 0"/><feBlend in2="BackgroundImageFix" result="effect1_dropShadow"/><feBlend in="SourceGraphic" in2="effect1_dropShadow" result="shape"/></filter></defs></svg>