<svg xmlns="http://www.w3.org/2000/svg" stroke-width="4" xmlns:xlink="http://www.w3.org/1999/xlink" viewBox="0 0 1200 500">
<style>
/* <![CDATA[ */

  #o_f {
    animation: o_f 1s linear forwards;
  }

  @keyframes o_f {
    0%, 20% {
      transform: translate(824.8px, 395.2px) skew(0deg, 0deg) scale(1, 1) translate(-824.8px, -395.2px);
    }
    30%, 100% {
      transform: translate(824.8px, 395.2px) skew(0deg, 90deg) scale(0, 1) translate(-824.8px, -395.2px);
    }
    0%, 99% {
      visibility: visible;
    }
    100% {
      visibility: hidden;
    }
  }

  #o_b {
    animation: o_b 1s linear forwards;
  }

  @keyframes o_b {
    0%, 30% {
      transform: translate(824.8px, 395.2px) skew(0deg, -90deg) scale(0, 1) translate(-824.8px, -395.2px);
    }
    40%, 100% {
      transform: translate(824.8px, 395.2px) skew(0deg, 0deg) scale(1, 1) translate(-824.8px, -395.2px);
    }
    0%, 99% {
      visibility: visible;
    }
    100% {
      visibility: hidden;
    }
  }

  #g_f {
    animation: g_f 1s linear forwards;
  }

  @keyframes g_f {
    0%, 40% {
      transform: translate(707.8px, 420.2px) skew(0deg, 0deg) scale(1, 1) translate(-707.8px, -420.2px);
    }
    50%, 100% {
      transform: translate(707.8px, 420.2px) skew(0deg, 90deg) scale(0, 1) translate(-707.8px, -420.2px);
    }
    0%, 99% {
      visibility: visible;
    }
    100% {
      visibility: hidden;
    }
  }
  
  #g_b {
    animation: g_b 1s linear forwards;
  }

  @keyframes g_b {
    0%, 50% {
      transform: translate(707.8px, 420.2px) skew(0deg, -90deg) scale(0, 1) translate(-707.8px, -420.2px);
    }
    60%, 100% {
      transform: translate(707.8px, 420.2px) skew(0deg, 0deg) scale(1, 1) translate(-707.8px, -420.2px);
    }
    0%, 99% {
      visibility: visible;
    }
    100% {
      visibility: hidden;
    }
  }

  #r_f {
    animation: r_f 1s linear forwards;
  }

  @keyframes r_f {
    0%, 60% {
      transform: translate(590.8px, 445.2px) skew(0deg, 0deg) scale(1, 1) translate(-590.8px, -445.2px);
    }
    70%, 100% {
      transform: translate(590.8px, 445.2px) skew(0deg, 90deg) scale(0, 1) translate(-590.8px, -445.2px);
    }
    0%, 99% {
      visibility: visible;
    }
    100% {
      visibility: hidden;
    }
  }
  
  #r_b {
    animation: r_b 1s linear forwards;
  }

  @keyframes r_b {
    0%, 80% {
      transform: translate(590.8px, 445.2px) skew(0deg, -90deg) scale(0, 1) translate(-590.8px, -445.2px);
    }
    90%, 100% {
      transform: translate(590.8px, 445.2px) skew(0deg, 0deg) scale(1, 1) translate(-590.8px, -445.2px);
    }
    0%, 99% {
      visibility: visible;
    }
    100% {
      visibility: hidden;
    }
  }

  #o_b1 {
    animation: o_b1 1s 1s ease-in-out forwards;
    visibility: hidden;
  }
  @keyframes o_b1 {
    0%, 100% {
      visibility: hidden;
    }
    1%, 99% {
      visibility: visible;
    }
    0%, 10% {
      transform: translate(0px, 0px);
    }
    30%, 90% {
      transform: translate(-215.6px, 0px);
    }
    100% {
      transform: translate(-155.6px, 50px);
    }
  }

  #g_b1 {
    animation: g_b1 1s 1s ease-in-out forwards;
    visibility: hidden;
  }
  @keyframes g_b1 {
    0%, 100% {
      visibility: hidden;
    }
    1%, 99% {
      visibility: visible;
    }
    0%, 10% {
      transform: translate(0px, 0px);
    }
    30%, 40% {
      transform: translate(-215.6px, -25px);
    }
    60%, 70% {
      transform: translate(-80px, -60px);
    }
    90% {
      transform: translate(-260px, -40px);
    }
    100% {
      transform: translate(-210px, 10px);
    }
  }

  #r_b1 {
    animation: r_b1 1s 1s ease-in-out forwards;
    visibility: hidden;
  }
  @keyframes r_b1 {
    0%, 61%, 100% {
      visibility: hidden;
    }
    1%, 60% {
      visibility: visible;
    }
    0%, 10% {
      transform: translate(0px, 0px);
    }
    30%, 100% {
      transform: translate(-215.6px, -50px);
    }
  }

  #r_b2 {
    animation: r_b2 1s 1s ease-in-out forwards;
    visibility: hidden;
  }
  @keyframes r_b2 {
    0%, 60%, 100% {
      visibility: hidden;
    }
    61%, 99% {
      visibility: visible;
    }
    0%, 60% {
      transform: translate(0px, 0px);
    }
    80%, 90% {
      transform: translate(150px, 50px);
    }
    100% {
      transform: translate(200px, 70px);
    }
  }

  #o_b3 {
    animation: o_b3 1s 2s linear forwards;
    visibility: hidden;
  }
  @keyframes o_b3 {
    0%, 100% {
      visibility: hidden;
    }
    1%, 99% {
      visibility: visible;
    }
    0%, 40% {
      transform: translate(669.2px, 445.2px) skew(0deg, 0deg) scale(1, 1) translate(-669.2px, -445.2px);
    }
    50%, 100% {
      transform: translate(669.2px, 445.2px) skew(0deg, -90deg) scale(0, 1) translate(-669.2px, -445.2px);
    }
  }

  #o_f3 {
    animation: o_f3 1s 2s linear forwards;
    visibility: hidden;
  }
  @keyframes o_f3 {
    0%, 100% {
      visibility: hidden;
    }
    1%, 99% {
      visibility: visible;
    }
    0%, 50% {
      transform: translate(669.2px, 445.2px) skew(0deg, 90deg) scale(0, 1) translate(-669.2px, -445.2px);
    }
    60% {
      transform: translate(669.2px, 445.2px) skew(0deg, 0deg) scale(1, 1) translate(-669.2px, -445.2px);
    }
    80%, 100% {
      transform: translate(165px, -70px);
    }
  }

  #r_b3 {
    animation: r_b3 1s 2s linear forwards;
    visibility: hidden;
  }
  @keyframes r_b3 {
    0%, 100% {
      visibility: hidden;
    }
    1%, 99% {
      visibility: visible;
    }
    0%, 20% {
      transform: translate(575.2px, 465.2px) skew(0deg, 0deg) scale(1, 1) translate(-575.2px, -465.2px);
    }
    30%, 100% {
      transform: translate(575.2px, 465.2px) skew(0deg, -90deg) scale(0, 1) translate(-575.2px, -465.2px);
    }
  }

  #r_f3 {
    animation: r_f3 1s 2s linear forwards;
    visibility: hidden;
  }
  @keyframes r_f3 {
    0%, 100% {
      visibility: hidden;
    }
    1%, 99% {
      visibility: visible;
    }
    0%, 30% {
      transform: translate(575.2px, 465.2px) skew(0deg, 90deg) scale(0, 1) translate(-575.2px, -465.2px);
    }
    40%, 60% {
      transform: translate(575.2px, 465.2px) skew(0deg, 0deg) scale(1, 1) translate(-575.2px, -465.2px);
    }
    80%, 100% {
      transform: translate(135px, -50px);
    }
  }

  #g_b3 {
    animation: g_b3 1s 2s linear forwards;
    visibility: hidden;
  }
  @keyframes g_b3 {
    0%, 100% {
      visibility: hidden;
    }
    1%, 99% {
      visibility: visible;
    }
    0% {
      transform: translate(497.8px, 430.2px) skew(0deg, 0deg) scale(1, 1) translate(-497.8px, -430.2px);
    }
    10%, 100% {
      transform: translate(497.8px, 430.2px) skew(0deg, -90deg) scale(0, 1) translate(-497.8px, -430.2px);
    }
  }

  #g_f3 {
    animation: g_f3 1s 2s linear forwards;
    visibility: hidden;
  }
  @keyframes g_f3 {
    0%, 100% {
      visibility: hidden;
    }
    1%, 99% {
      visibility: visible;
    }
    0%, 10% {
      transform: translate(497.8px, 430.2px) skew(0deg, 90deg) scale(0, 1) translate(-497.8px, -430.2px);
    }
    20%, 60% {
      transform: translate(497.8px, 430.2px) skew(0deg, 0deg) scale(1, 1) translate(-497.8px, -430.2px);
    }
    80%, 100% {
      transform: translate(85px, -40px);
    }
  }

  #g_f4 {
    animation: g_f4 1s 3s ease-in-out forwards;
    visibility: hidden;
  }
  @keyframes g_f4 {
    0% {
      visibility: hidden;
    }
    1%, 100% {
      visibility: visible;
    }
    0%, 40%, 100% {
      transform: translate(0px, 0px);
    }
    20% {
      transform: translate(-50px, -50px);
    }
  }

  #r_f4 {
    animation: r_f4 1s 3s ease-in-out forwards;
    visibility: hidden;
  }
  @keyframes r_f4 {
    0% {
      visibility: hidden;
    }
    1%, 100% {
      visibility: visible;
    }
    0%, 40%, 100% {
      transform: translate(0px, 0px);
    }
    20% {
      transform: translate(50px, 50px);
    }
  }

  #o_f4 {
    animation: o_f4 1s 3s ease-in-out forwards;
    visibility: hidden;
  }
  @keyframes o_f4 {
    0%, 21%, 100% {
      visibility: hidden;
    }
    1%, 20% {
      visibility: visible;
    }
    0% {
      transform: translate(0px, 0px);
    }
    20%, 100% {
      transform: translate(153px, 10px);
    }
  }
  #o_f41 {
    animation: o_f41 1s 3s ease-in-out forwards;
    visibility: hidden;
  }
  @keyframes o_f41 {
    0%, 20% {
      visibility: hidden;
    }
    21%, 100% {
      visibility: visible;
    }
    0%, 20% {
      transform: translate(153px, 10px);
    }
    40%, 100% {
      transform: translate(0px, -20px);
    }
  }

/* ]]> */
</style>
<defs>
  <g id="c1">
    <path fill="#FFF" stroke="#FF7575" d="M-98.388-140.243H98.388a9.424 9.424 0 019.424 9.424v261.638a9.424 9.424 0 01-9.424 9.424H-98.388a9.424 9.424 0 01-9.424-9.424v-261.638a9.424 9.424 0 019.424-9.424z"/>
    <path fill="#FF7575" d="M98.388-140.243H-98.388a9.424 9.424 0 00-9.424 9.424v26.968h215.624v-26.968a9.424 9.424 0 00-9.424-9.424z"/>
    <path fill="#FFCC05" d="M0-45.674c29.139 0 52.845 23.655 52.845 52.73S29.139 59.792 0 59.792s-52.845-23.655-52.845-52.73S-29.136-45.674 0-45.674z"/>
    <path fill="#FFF" d="M8.574 39.903a8.237 8.237 0 11-8.237-8.237 8.237 8.237 0 018.237 8.237zM.594-30.866c-13.292 0-23.289 8.864-23.289 26.334h13.048c0-7.578 2.989-13.79 9.977-13.79 4.112 0 8.478 2.725 8.854 7.938.405 5.482-2.531 8.263-6.241 11.789-9.644 9.15-9.289 13.328-9.289 23.688H6.663c0-4.781-.517-8.254 6.063-15.335C17.118 5.03 22.575-.849 22.693-9.804 22.855-22.85 13.609-30.866.594-30.866z"/>
  </g>
  <g id="c2">
    <path fill="#FFF" stroke="#00C875" d="M-98.388-140.243H98.388a9.424 9.424 0 019.424 9.424v261.638a9.424 9.424 0 01-9.424 9.424H-98.388a9.424 9.424 0 01-9.424-9.424v-261.638a9.424 9.424 0 019.424-9.424z"/>
    <path fill="#00C875" d="M98.388-140.243H-98.388a9.424 9.424 0 00-9.424 9.424v26.968h215.624v-26.968a9.424 9.424 0 00-9.424-9.424z"/>
    <path fill="#8C5EA6" d="M-.465 59.792c29.139 0 52.845-23.655 52.845-52.73S28.674-45.674-.465-45.674-53.31-22.019-53.31 7.056-29.601 59.792-.465 59.792z"/>
    <polygon fill="#FFF" points="10.105 -14.03 -11.032 -14.03 -11.032 -8.758 10.105 -8.758 10.105 -14.033"/>
    <polygon fill="#FFF" points="10.105 -19.304 10.105 -24.576 -11.032 -24.576 -11.032 -19.304 10.105 -19.304"/>
    <polygon fill="#FFF" points="-11.032 12.333 -32.17 12.333 -.462 43.971 31.246 12.333 10.105 12.333 10.105 -3.475 -11.032 -3.475"/>
  </g>
  <g id="c3">
    <path fill="#FFF" stroke="#FFCB00" d="M-98.388-140.243H98.388a9.424 9.424 0 019.424 9.424v261.638a9.424 9.424 0 01-9.424 9.424H-98.388a9.424 9.424 0 01-9.424-9.424v-261.638a9.424 9.424 0 019.424-9.424z"/>
    <path fill="#FFCB00" d="M98.388-140.243H-98.388a9.424 9.424 0 00-9.424 9.424v26.968h215.624v-26.968a9.424 9.424 0 00-9.424-9.424z"/>
    <path fill="#4CB5E7" d="M-.465-45.674c29.139 0 52.845 23.655 52.845 52.73S28.674 59.792-.465 59.792-53.31 36.137-53.31 7.062-29.601-45.674-.465-45.674z"/>
    <polygon fill="#FFF" points="10.105 28.148 -11.032 28.148 -11.032 22.876 10.105 22.876 10.105 28.151"/>
    <polygon fill="#FFF" points="10.105 33.422 10.105 38.694 -11.032 38.694 -11.032 33.422 10.105 33.422"/>
    <polygon fill="#FFF" points="-11.032 1.784 -32.17 1.784 -.462 -29.853 31.246 1.784 10.105 1.784 10.105 17.593 -11.032 17.593"/>
  </g>
  <g id="b1">
    <path fill="#FF7575" stroke="#FF7575" d="M-98.388-140.243H98.388a9.424 9.424 0 019.424 9.424v261.638a9.424 9.424 0 01-9.424 9.424H-98.388a9.424 9.424 0 01-9.424-9.424v-261.638a9.424 9.424 0 019.424-9.424z"/>
  </g>
  <g id="b2">
    <path fill="#00C875" stroke="#00C875" d="M-98.388-140.243H98.388a9.424 9.424 0 019.424 9.424v261.638a9.424 9.424 0 01-9.424 9.424H-98.388a9.424 9.424 0 01-9.424-9.424v-261.638a9.424 9.424 0 019.424-9.424z"/>
  </g>
  <g id="b3">
    <path fill="#FFCB00" stroke="#FFCB00" d="M-98.388-140.243H98.388a9.424 9.424 0 019.424 9.424v261.638a9.424 9.424 0 01-9.424 9.424H-98.388a9.424 9.424 0 01-9.424-9.424v-261.638a9.424 9.424 0 019.424-9.424z"/>
  </g>
</defs>

<!-- <rect width="1200" height="500" fill="none" stroke-width="1" stroke="#ccc"/> -->

<use id="r_f" x="483" y="305" xlink:href="#c1"/>
<use id="g_f" x="600" y="280" xlink:href="#c2"/>
<use id="o_f" x="717" y="255" xlink:href="#c3"/>
<use id="o_b" x="932.6" y="255" xlink:href="#b3"/>
<use id="g_b" x="815.6" y="280" xlink:href="#b2"/>
<use id="r_b" x="698.6" y="305" xlink:href="#b1"/>

<use id="o_b1" x="932.6" y="255" xlink:href="#b3"/>
<use id="r_b2" x="483" y="255" xlink:href="#b1"/>
<use id="g_b1" x="815.6" y="280" xlink:href="#b2"/>
<use id="r_b1" x="698.6" y="305" xlink:href="#b1"/>

<use id="o_b3" x="777" y="305" xlink:href="#b3"/>
<use id="r_b3" x="683" y="325" xlink:href="#b1"/>
<use id="g_b3" x="605.6" y="290" xlink:href="#b2"/>
<use id="g_f3" x="390" y="290" xlink:href="#c2"/>
<use id="r_f3" x="467.4" y="325" xlink:href="#c1"/>
<use id="o_f3" x="561.4" y="305" xlink:href="#c3"/>

<use id="o_f41" x="726.4" y="235" xlink:href="#c3"/>
<use id="g_f4" x="475" y="250" xlink:href="#c2"/>
<use id="r_f4" x="602.4" y="275" xlink:href="#c1"/>
<use id="o_f4" x="726.4" y="235" xlink:href="#c3"/>
</svg>