{
    "asset" : {
        "generator" : "Khronos glTF Blender I/O v1.5.9",
        "version" : "2.0"
    },
    "scene" : 0,
    "scenes" : [
        {
            "name" : "Scene",
            "nodes" : [
                0,
                1,
                2,
                3,
                4,
                5,
                6,
                7
            ]
        }
    ],
    "nodes" : [
        {
            "mesh" : 0,
            "name" : "basis",
            "scale" : [
                40,
                5,
                100
            ],
            "translation" : [
                -13.636690139770508,
                -16.410640716552734,
                62.53281784057617
            ]
        },
        {
            "mesh" : 1,
            "name" : "base_back_left",
            "scale" : [
                4.017211437225342,
                2.8848934173583984,
                2.917128324508667
            ],
            "translation" : [
                -14.272918701171875,
                -9.826659202575684,
                -11.65821647644043
            ]
        },
        {
            "mesh" : 2,
            "name" : "base_back_right",
            "scale" : [
                4.017211437225342,
                2.8848934173583984,
                2.917128324508667
            ],
            "translation" : [
                14.272966384887695,
                -9.826659202575684,
                -11.65821647644043
            ]
        },
        {
            "mesh" : 3,
            "name" : "base_front_left",
            "scale" : [
                4.017211437225342,
                2.8848934173583984,
                2.917128324508667
            ],
            "translation" : [
                -14.272918701171875,
                -9.826659202575684,
                11.560190200805664
            ]
        },
        {
            "mesh" : 4,
            "name" : "base_front_right",
            "scale" : [
                4.017211437225342,
                2.8848934173583984,
                2.917128324508667
            ],
            "translation" : [
                14.272966384887695,
                -9.826659202575684,
                11.560190200805664
            ]
        },
        {
            "mesh" : 5,
            "name" : "ground",
            "scale" : [
                4.079057693481445,
                1,
                4.079057693481445
            ],
            "translation" : [
                0,
                -21.901762008666992,
                0
            ]
        },
        {
            "mesh" : 6,
            "name" : "platform",
            "rotation" : [
                0,
                0.7071068286895752,
                0,
                0.7071068286895752
            ],
            "scale" : [
                0.3999999761581421,
                3.799999952316284,
                20.400001525878906
            ],
            "translation" : [
                0,
                -3.17303204536438,
                0
            ]
        },
        {
            "mesh" : 7,
            "name" : "tower",
            "scale" : [
                5,
                1,
                5
            ],
            "translation" : [
                -30,
                44.635093688964844,
                0
            ]
        }
    ],
    "materials" : [
        {
            "doubleSided" : true,
            "name" : "concrete",
            "pbrMetallicRoughness" : {
                "baseColorTexture" : {
                    "index" : 0,
                    "texCoord" : 0
                },
                "metallicFactor" : 0.12669683992862701,
                "roughnessFactor" : 0.6176470518112183
            }
        },
        {
            "doubleSided" : true,
            "name" : "caterpillar",
            "pbrMetallicRoughness" : {
                "baseColorTexture" : {
                    "index" : 1,
                    "texCoord" : 0
                },
                "metallicFactor" : 0.5657022595405579,
                "roughnessFactor" : 0.3042871057987213
            }
        },
        {
            "doubleSided" : true,
            "name" : "terrain",
            "pbrMetallicRoughness" : {
                "baseColorTexture" : {
                    "index" : 2,
                    "texCoord" : 0
                },
                "metallicFactor" : 0,
                "roughnessFactor" : 0.6990950107574463
            }
        },
        {
            "doubleSided" : true,
            "name" : "metall",
            "pbrMetallicRoughness" : {
                "baseColorTexture" : {
                    "index" : 3,
                    "texCoord" : 0
                },
                "metallicFactor" : 0.3847067952156067,
                "roughnessFactor" : 0.8020244836807251
            }
        }
    ],
    "meshes" : [
        {
            "name" : "Cube.200",
            "primitives" : [
                {
                    "attributes" : {
                        "POSITION" : 0,
                        "NORMAL" : 1,
                        "TEXCOORD_0" : 2
                    },
                    "indices" : 3,
                    "material" : 0
                }
            ]
        },
        {
            "name" : "BezierCurve.001",
            "primitives" : [
                {
                    "attributes" : {
                        "POSITION" : 4,
                        "NORMAL" : 5,
                        "TEXCOORD_0" : 6
                    },
                    "indices" : 7,
                    "material" : 1
                }
            ]
        },
        {
            "name" : "BezierCurve.000",
            "primitives" : [
                {
                    "attributes" : {
                        "POSITION" : 8,
                        "NORMAL" : 9,
                        "TEXCOORD_0" : 10
                    },
                    "indices" : 7,
                    "material" : 1
                }
            ]
        },
        {
            "name" : "BezierCurve.002",
            "primitives" : [
                {
                    "attributes" : {
                        "POSITION" : 11,
                        "NORMAL" : 12,
                        "TEXCOORD_0" : 13
                    },
                    "indices" : 14,
                    "material" : 1
                }
            ]
        },
        {
            "name" : "BezierCurve.003",
            "primitives" : [
                {
                    "attributes" : {
                        "POSITION" : 15,
                        "NORMAL" : 16,
                        "TEXCOORD_0" : 17
                    },
                    "indices" : 7,
                    "material" : 1
                }
            ]
        },
        {
            "name" : "Plane",
            "primitives" : [
                {
                    "attributes" : {
                        "POSITION" : 18,
                        "NORMAL" : 19,
                        "TEXCOORD_0" : 20
                    },
                    "indices" : 21,
                    "material" : 2
                }
            ]
        },
        {
            "name" : "Cube.024",
            "primitives" : [
                {
                    "attributes" : {
                        "POSITION" : 22,
                        "NORMAL" : 23,
                        "TEXCOORD_0" : 24
                    },
                    "indices" : 25,
                    "material" : 3
                }
            ]
        },
        {
            "name" : "Cube",
            "primitives" : [
                {
                    "attributes" : {
                        "POSITION" : 26,
                        "NORMAL" : 27,
                        "TEXCOORD_0" : 28
                    },
                    "indices" : 29,
                    "material" : 3
                }
            ]
        }
    ],
    "textures" : [
        {
            "sampler" : 0,
            "source" : 0
        },
        {
            "sampler" : 0,
            "source" : 1
        },
        {
            "sampler" : 0,
            "source" : 2
        },
        {
            "sampler" : 0,
            "source" : 3
        }
    ],
    "images" : [
        {
            "bufferView" : 4,
            "mimeType" : "image/jpeg",
            "name" : "concrete_texture"
        },
        {
            "bufferView" : 9,
            "mimeType" : "image/jpeg",
            "name" : "caterpillar"
        },
        {
            "bufferView" : 24,
            "mimeType" : "image/jpeg",
            "name" : "terrain_texture"
        },
        {
            "bufferView" : 29,
            "mimeType" : "image/jpeg",
            "name" : "metal_texture"
        }
    ],
    "accessors" : [
        {
            "bufferView" : 0,
            "componentType" : 5126,
            "count" : 128,
            "max" : [
                1.238020896911621,
                1,
                1.122802734375
            ],
            "min" : [
                -1.2459548711776733,
                -1,
                -1.1286065578460693
            ],
            "type" : "VEC3"
        },
        {
            "bufferView" : 1,
            "componentType" : 5126,
            "count" : 128,
            "type" : "VEC3"
        },
        {
            "bufferView" : 2,
            "componentType" : 5126,
            "count" : 128,
            "type" : "VEC2"
        },
        {
            "bufferView" : 3,
            "componentType" : 5123,
            "count" : 204,
            "type" : "SCALAR"
        },
        {
            "bufferView" : 5,
            "componentType" : 5126,
            "count" : 161,
            "max" : [
                0.6562923789024353,
                0.919313371181488,
                2.60329270362854
            ],
            "min" : [
                -0.6562920808792114,
                -0.7515595555305481,
                -2.6123206615448
            ],
            "type" : "VEC3"
        },
        {
            "bufferView" : 6,
            "componentType" : 5126,
            "count" : 161,
            "type" : "VEC3"
        },
        {
            "bufferView" : 7,
            "componentType" : 5126,
            "count" : 161,
            "type" : "VEC2"
        },
        {
            "bufferView" : 8,
            "componentType" : 5123,
            "count" : 231,
            "type" : "SCALAR"
        },
        {
            "bufferView" : 10,
            "componentType" : 5126,
            "count" : 161,
            "max" : [
                0.6562923789024353,
                0.919313371181488,
                2.60329270362854
            ],
            "min" : [
                -0.6562920808792114,
                -0.7515595555305481,
                -2.6123206615448
            ],
            "type" : "VEC3"
        },
        {
            "bufferView" : 11,
            "componentType" : 5126,
            "count" : 161,
            "type" : "VEC3"
        },
        {
            "bufferView" : 12,
            "componentType" : 5126,
            "count" : 161,
            "type" : "VEC2"
        },
        {
            "bufferView" : 13,
            "componentType" : 5126,
            "count" : 161,
            "max" : [
                0.6562923789024353,
                0.919313371181488,
                2.60329270362854
            ],
            "min" : [
                -0.6562920808792114,
                -0.7515595555305481,
                -2.6123206615448
            ],
            "type" : "VEC3"
        },
        {
            "bufferView" : 14,
            "componentType" : 5126,
            "count" : 161,
            "type" : "VEC3"
        },
        {
            "bufferView" : 15,
            "componentType" : 5126,
            "count" : 161,
            "type" : "VEC2"
        },
        {
            "bufferView" : 16,
            "componentType" : 5123,
            "count" : 231,
            "type" : "SCALAR"
        },
        {
            "bufferView" : 17,
            "componentType" : 5126,
            "count" : 161,
            "max" : [
                0.6562923789024353,
                0.919313371181488,
                2.60329270362854
            ],
            "min" : [
                -0.6562920808792114,
                -0.7515595555305481,
                -2.6123206615448
            ],
            "type" : "VEC3"
        },
        {
            "bufferView" : 18,
            "componentType" : 5126,
            "count" : 161,
            "type" : "VEC3"
        },
        {
            "bufferView" : 19,
            "componentType" : 5126,
            "count" : 161,
            "type" : "VEC2"
        },
        {
            "bufferView" : 20,
            "componentType" : 5126,
            "count" : 1752,
            "max" : [
                265.625,
                42.836456298828125,
                203.125
            ],
            "min" : [
                -234.375,
                -24.24013328552246,
                -250
            ],
            "type" : "VEC3"
        },
        {
            "bufferView" : 21,
            "componentType" : 5126,
            "count" : 1752,
            "type" : "VEC3"
        },
        {
            "bufferView" : 22,
            "componentType" : 5126,
            "count" : 1752,
            "type" : "VEC2"
        },
        {
            "bufferView" : 23,
            "componentType" : 5123,
            "count" : 5568,
            "type" : "SCALAR"
        },
        {
            "bufferView" : 25,
            "componentType" : 5126,
            "count" : 984,
            "max" : [
                51.500003814697266,
                1.0526316165924072,
                1.0098038911819458
            ],
            "min" : [
                -51.500003814697266,
                -1.0526316165924072,
                -1.0098038911819458
            ],
            "type" : "VEC3"
        },
        {
            "bufferView" : 26,
            "componentType" : 5126,
            "count" : 984,
            "type" : "VEC3"
        },
        {
            "bufferView" : 27,
            "componentType" : 5126,
            "count" : 984,
            "type" : "VEC2"
        },
        {
            "bufferView" : 28,
            "componentType" : 5123,
            "count" : 1476,
            "type" : "SCALAR"
        },
        {
            "bufferView" : 30,
            "componentType" : 5126,
            "count" : 3088,
            "max" : [
                4.50435733795166,
                19.814117431640625,
                1.1999999284744263
            ],
            "min" : [
                -1.199999451637268,
                -55.90812301635742,
                -1.1999999284744263
            ],
            "type" : "VEC3"
        },
        {
            "bufferView" : 31,
            "componentType" : 5126,
            "count" : 3088,
            "type" : "VEC3"
        },
        {
            "bufferView" : 32,
            "componentType" : 5126,
            "count" : 3088,
            "type" : "VEC2"
        },
        {
            "bufferView" : 33,
            "componentType" : 5123,
            "count" : 4776,
            "type" : "SCALAR"
        }
    ],
    "bufferViews" : [
        {
            "buffer" : 0,
            "byteLength" : 1536,
            "byteOffset" : 0
        },
        {
            "buffer" : 0,
            "byteLength" : 1536,
            "byteOffset" : 1536
        },
        {
            "buffer" : 0,
            "byteLength" : 1024,
            "byteOffset" : 3072
        },
        {
            "buffer" : 0,
            "byteLength" : 408,
            "byteOffset" : 4096
        },
        {
            "buffer" : 0,
            "byteLength" : 989066,
            "byteOffset" : 4504
        },
        {
            "buffer" : 0,
            "byteLength" : 1932,
            "byteOffset" : 993572
        },
        {
            "buffer" : 0,
            "byteLength" : 1932,
            "byteOffset" : 995504
        },
        {
            "buffer" : 0,
            "byteLength" : 1288,
            "byteOffset" : 997436
        },
        {
            "buffer" : 0,
            "byteLength" : 462,
            "byteOffset" : 998724
        },
        {
            "buffer" : 0,
            "byteLength" : 59993,
            "byteOffset" : 999188
        },
        {
            "buffer" : 0,
            "byteLength" : 1932,
            "byteOffset" : 1059184
        },
        {
            "buffer" : 0,
            "byteLength" : 1932,
            "byteOffset" : 1061116
        },
        {
            "buffer" : 0,
            "byteLength" : 1288,
            "byteOffset" : 1063048
        },
        {
            "buffer" : 0,
            "byteLength" : 1932,
            "byteOffset" : 1064336
        },
        {
            "buffer" : 0,
            "byteLength" : 1932,
            "byteOffset" : 1066268
        },
        {
            "buffer" : 0,
            "byteLength" : 1288,
            "byteOffset" : 1068200
        },
        {
            "buffer" : 0,
            "byteLength" : 462,
            "byteOffset" : 1069488
        },
        {
            "buffer" : 0,
            "byteLength" : 1932,
            "byteOffset" : 1069952
        },
        {
            "buffer" : 0,
            "byteLength" : 1932,
            "byteOffset" : 1071884
        },
        {
            "buffer" : 0,
            "byteLength" : 1288,
            "byteOffset" : 1073816
        },
        {
            "buffer" : 0,
            "byteLength" : 21024,
            "byteOffset" : 1075104
        },
        {
            "buffer" : 0,
            "byteLength" : 21024,
            "byteOffset" : 1096128
        },
        {
            "buffer" : 0,
            "byteLength" : 14016,
            "byteOffset" : 1117152
        },
        {
            "buffer" : 0,
            "byteLength" : 11136,
            "byteOffset" : 1131168
        },
        {
            "buffer" : 0,
            "byteLength" : 574878,
            "byteOffset" : 1142304
        },
        {
            "buffer" : 0,
            "byteLength" : 11808,
            "byteOffset" : 1717184
        },
        {
            "buffer" : 0,
            "byteLength" : 11808,
            "byteOffset" : 1728992
        },
        {
            "buffer" : 0,
            "byteLength" : 7872,
            "byteOffset" : 1740800
        },
        {
            "buffer" : 0,
            "byteLength" : 2952,
            "byteOffset" : 1748672
        },
        {
            "buffer" : 0,
            "byteLength" : 79705,
            "byteOffset" : 1751624
        },
        {
            "buffer" : 0,
            "byteLength" : 37056,
            "byteOffset" : 1831332
        },
        {
            "buffer" : 0,
            "byteLength" : 37056,
            "byteOffset" : 1868388
        },
        {
            "buffer" : 0,
            "byteLength" : 24704,
            "byteOffset" : 1905444
        },
        {
            "buffer" : 0,
            "byteLength" : 9552,
            "byteOffset" : 1930148
        }
    ],
    "samplers" : [
        {
            "magFilter" : 9729,
            "minFilter" : 9987
        }
    ],
    "buffers" : [
        {
            "byteLength" : 1939700,
            "uri" : "data:application/octet-stream;base64,"
        }
    ]
}
