{
    "asset" : {
        "generator" : "Khronos glTF Blender I/O v1.5.9",
        "version" : "2.0"
    },
    "scene" : 0,
    "scenes" : [
        {
            "name" : "Scene",
            "nodes" : [
                0
            ]
        }
    ],
    "nodes" : [
        {
            "mesh" : 0,
            "name" : "logo",
            "rotation" : [
                0.7071068286895752,
                0,
                0,
                0.7071068286895752
            ],
            "scale" : [
                4,
                4.000001907348633,
                4
            ]
        }
    ],
    "materials" : [
        {
            "doubleSided" : true,
            "emissiveFactor" : [
                0.0024279356002807617,
                1,
                1
            ],
            "name" : "logo",
            "pbrMetallicRoughness" : {}
        }
    ],
    "meshes" : [
        {
            "name" : "logo",
            "primitives" : [
                {
                    "attributes" : {
                        "POSITION" : 0,
                        "NORMAL" : 1,
                        "TEXCOORD_0" : 2
                    },
                    "indices" : 3,
                    "material" : 0
                }
            ]
        }
    ],
    "accessors" : [
        {
            "bufferView" : 0,
            "componentType" : 5126,
            "count" : 1377,
            "max" : [
                0.8296928405761719,
                0.024916235357522964,
                0.14837650954723358
            ],
            "min" : [
                -0.7702012062072754,
                -0.024916239082813263,
                -0.1826070100069046
            ],
            "type" : "VEC3"
        },
        {
            "bufferView" : 1,
            "componentType" : 5126,
            "count" : 1377,
            "type" : "VEC3"
        },
        {
            "bufferView" : 2,
            "componentType" : 5126,
            "count" : 1377,
            "type" : "VEC2"
        },
        {
            "bufferView" : 3,
            "componentType" : 5123,
            "count" : 2352,
            "type" : "SCALAR"
        }
    ],
    "bufferViews" : [
        {
            "buffer" : 0,
            "byteLength" : 16524,
            "byteOffset" : 0
        },
        {
            "buffer" : 0,
            "byteLength" : 16524,
            "byteOffset" : 16524
        },
        {
            "buffer" : 0,
            "byteLength" : 11016,
            "byteOffset" : 33048
        },
        {
            "buffer" : 0,
            "byteLength" : 4704,
            "byteOffset" : 44064
        }
    ],
    "buffers" : [
        {
            "byteLength" : 48768,
            "uri" : "data:application/octet-stream;base64,"
        }
    ]
}
