{
    "asset" : {
        "generator" : "Khronos glTF Blender I/O v1.5.9",
        "version" : "2.0"
    },
    "scene" : 0,
    "scenes" : [
        {
            "name" : "Scene",
            "nodes" : [
                0,
                1,
                2,
                3,
                4
            ]
        }
    ],
    "nodes" : [
        {
            "mesh" : 0,
            "name" : "body",
            "scale" : [
                6.515881538391113,
                24.530378341674805,
                6.515881538391113
            ],
            "translation" : [
                0,
                -0.29201504588127136,
                0
            ]
        },
        {
            "mesh" : 1,
            "name" : "wing3",
            "rotation" : [
                0,
                0.5,
                0,
                0.8660253882408142
            ],
            "scale" : [
                4.407802104949951,
                1.9164358377456665,
                0.3832871615886688
            ],
            "translation" : [
                0,
                -0.2920154631137848,
                0
            ]
        },
        {
            "mesh" : 2,
            "name" : "wing1",
            "rotation" : [
                0,
                1,
                0,
                7.549790126404332e-08
            ],
            "scale" : [
                4.407802581787109,
                1.9164358377456665,
                0.3832871913909912
            ],
            "translation" : [
                0,
                -0.2920154631137848,
                0
            ]
        },
        {
            "mesh" : 3,
            "name" : "wing2",
            "rotation" : [
                0,
                0.5000000596046448,
                0,
                -0.8660253882408142
            ],
            "scale" : [
                4.407802104949951,
                1.9164358377456665,
                0.3832871615886688
            ],
            "translation" : [
                0,
                -0.2920154631137848,
                0
            ]
        },
        {
            "mesh" : 4,
            "name" : "nozzle",
            "scale" : [
                2.2997231483459473,
                1.9164358377456665,
                2.2997231483459473
            ],
            "translation" : [
                0,
                2.7612743377685547,
                0
            ]
        }
    ],
    "materials" : [
        {
            "doubleSided" : true,
            "name" : "metall",
            "pbrMetallicRoughness" : {
                "metallicFactor" : 0.800000011920929,
                "roughnessFactor" : 0.20000000298023224
            }
        },
        {
            "doubleSided" : true,
            "emissiveFactor" : [
                0.355776846408844,
                1,
                1
            ],
            "name" : "metall_blue",
            "pbrMetallicRoughness" : {
                "baseColorFactor" : [
                    0.177888423204422,
                    1,
                    0.8069524168968201,
                    1
                ],
                "metallicFactor" : 0.800000011920929,
                "roughnessFactor" : 0.20000000298023224
            }
        },
        {
            "doubleSided" : true,
            "name" : "metall2",
            "pbrMetallicRoughness" : {
                "baseColorFactor" : [
                    0.01884930208325386,
                    0.01884930208325386,
                    0.01884930208325386,
                    1
                ],
                "metallicFactor" : 0.800000011920929,
                "roughnessFactor" : 0.23619909584522247
            }
        },
        {
            "doubleSided" : true,
            "emissiveFactor" : [
                0.03106374479830265,
                0.013897955417633057,
                0.002842753892764449
            ],
            "name" : "metall_hot",
            "pbrMetallicRoughness" : {
                "baseColorFactor" : [
                    0.04202856495976448,
                    0.025204990059137344,
                    0.008891141042113304,
                    1
                ],
                "metallicFactor" : 0.800000011920929,
                "roughnessFactor" : 0.20000000298023224
            }
        },
        {
            "doubleSided" : true,
            "emissiveFactor" : [
                0.09392417967319489,
                0.03519344702363014,
                0.007017717231065035
            ],
            "name" : "metall_hot2",
            "pbrMetallicRoughness" : {
                "baseColorFactor" : [
                    0.04084573686122894,
                    0.021848997101187706,
                    0.007354733068495989,
                    1
                ],
                "metallicFactor" : 0.800000011920929,
                "roughnessFactor" : 0.20000000298023224
            }
        }
    ],
    "meshes" : [
        {
            "name" : "Cylinder",
            "primitives" : [
                {
                    "attributes" : {
                        "POSITION" : 0,
                        "NORMAL" : 1,
                        "TEXCOORD_0" : 2
                    },
                    "indices" : 3,
                    "material" : 0
                }
            ]
        },
        {
            "name" : "Cube.001",
            "primitives" : [
                {
                    "attributes" : {
                        "POSITION" : 4,
                        "NORMAL" : 5,
                        "TEXCOORD_0" : 6
                    },
                    "indices" : 7,
                    "material" : 0
                },
                {
                    "attributes" : {
                        "POSITION" : 8,
                        "NORMAL" : 9,
                        "TEXCOORD_0" : 10
                    },
                    "indices" : 11,
                    "material" : 1
                }
            ]
        },
        {
            "name" : "Cube.002",
            "primitives" : [
                {
                    "attributes" : {
                        "POSITION" : 12,
                        "NORMAL" : 13,
                        "TEXCOORD_0" : 14
                    },
                    "indices" : 7,
                    "material" : 0
                },
                {
                    "attributes" : {
                        "POSITION" : 15,
                        "NORMAL" : 16,
                        "TEXCOORD_0" : 17
                    },
                    "indices" : 11,
                    "material" : 1
                }
            ]
        },
        {
            "name" : "Cube.003",
            "primitives" : [
                {
                    "attributes" : {
                        "POSITION" : 18,
                        "NORMAL" : 19,
                        "TEXCOORD_0" : 20
                    },
                    "indices" : 7,
                    "material" : 0
                },
                {
                    "attributes" : {
                        "POSITION" : 21,
                        "NORMAL" : 22,
                        "TEXCOORD_0" : 23
                    },
                    "indices" : 11,
                    "material" : 1
                }
            ]
        },
        {
            "name" : "Cylinder.001",
            "primitives" : [
                {
                    "attributes" : {
                        "POSITION" : 24,
                        "NORMAL" : 25,
                        "TEXCOORD_0" : 26
                    },
                    "indices" : 27,
                    "material" : 2
                },
                {
                    "attributes" : {
                        "POSITION" : 28,
                        "NORMAL" : 29,
                        "TEXCOORD_0" : 30
                    },
                    "indices" : 31,
                    "material" : 3
                },
                {
                    "attributes" : {
                        "POSITION" : 32,
                        "NORMAL" : 33,
                        "TEXCOORD_0" : 34
                    },
                    "indices" : 35,
                    "material" : 4
                }
            ]
        }
    ],
    "accessors" : [
        {
            "bufferView" : 0,
            "componentType" : 5126,
            "count" : 526,
            "max" : [
                1,
                2.265625,
                1
            ],
            "min" : [
                -1,
                0.265625,
                -1
            ],
            "type" : "VEC3"
        },
        {
            "bufferView" : 1,
            "componentType" : 5126,
            "count" : 526,
            "type" : "VEC3"
        },
        {
            "bufferView" : 2,
            "componentType" : 5126,
            "count" : 526,
            "type" : "VEC2"
        },
        {
            "bufferView" : 3,
            "componentType" : 5123,
            "count" : 2676,
            "type" : "SCALAR"
        },
        {
            "bufferView" : 4,
            "componentType" : 5126,
            "count" : 236,
            "max" : [
                -1.3485878705978394,
                12.487360954284668,
                1
            ],
            "min" : [
                -3.294532060623169,
                0,
                -1
            ],
            "type" : "VEC3"
        },
        {
            "bufferView" : 5,
            "componentType" : 5126,
            "count" : 236,
            "type" : "VEC3"
        },
        {
            "bufferView" : 6,
            "componentType" : 5126,
            "count" : 236,
            "type" : "VEC2"
        },
        {
            "bufferView" : 7,
            "componentType" : 5123,
            "count" : 438,
            "type" : "SCALAR"
        },
        {
            "bufferView" : 8,
            "componentType" : 5126,
            "count" : 55,
            "max" : [
                -1.4999936819076538,
                10.563145637512207,
                0.567097008228302
            ],
            "min" : [
                -3.1144418716430664,
                0.30000001192092896,
                -0.567097008228302
            ],
            "type" : "VEC3"
        },
        {
            "bufferView" : 9,
            "componentType" : 5126,
            "count" : 55,
            "type" : "VEC3"
        },
        {
            "bufferView" : 10,
            "componentType" : 5126,
            "count" : 55,
            "type" : "VEC2"
        },
        {
            "bufferView" : 11,
            "componentType" : 5123,
            "count" : 78,
            "type" : "SCALAR"
        },
        {
            "bufferView" : 12,
            "componentType" : 5126,
            "count" : 236,
            "max" : [
                -1.3485878705978394,
                12.487360954284668,
                1
            ],
            "min" : [
                -3.294532060623169,
                0,
                -1
            ],
            "type" : "VEC3"
        },
        {
            "bufferView" : 13,
            "componentType" : 5126,
            "count" : 236,
            "type" : "VEC3"
        },
        {
            "bufferView" : 14,
            "componentType" : 5126,
            "count" : 236,
            "type" : "VEC2"
        },
        {
            "bufferView" : 15,
            "componentType" : 5126,
            "count" : 55,
            "max" : [
                -1.4999936819076538,
                10.563145637512207,
                0.567097008228302
            ],
            "min" : [
                -3.1144418716430664,
                0.30000001192092896,
                -0.567097008228302
            ],
            "type" : "VEC3"
        },
        {
            "bufferView" : 16,
            "componentType" : 5126,
            "count" : 55,
            "type" : "VEC3"
        },
        {
            "bufferView" : 17,
            "componentType" : 5126,
            "count" : 55,
            "type" : "VEC2"
        },
        {
            "bufferView" : 18,
            "componentType" : 5126,
            "count" : 236,
            "max" : [
                -1.3485878705978394,
                12.487360954284668,
                1
            ],
            "min" : [
                -3.294532060623169,
                0,
                -1
            ],
            "type" : "VEC3"
        },
        {
            "bufferView" : 19,
            "componentType" : 5126,
            "count" : 236,
            "type" : "VEC3"
        },
        {
            "bufferView" : 20,
            "componentType" : 5126,
            "count" : 236,
            "type" : "VEC2"
        },
        {
            "bufferView" : 21,
            "componentType" : 5126,
            "count" : 55,
            "max" : [
                -1.4999936819076538,
                10.563145637512207,
                0.567097008228302
            ],
            "min" : [
                -3.1144418716430664,
                0.30000001192092896,
                -0.567097008228302
            ],
            "type" : "VEC3"
        },
        {
            "bufferView" : 22,
            "componentType" : 5126,
            "count" : 55,
            "type" : "VEC3"
        },
        {
            "bufferView" : 23,
            "componentType" : 5126,
            "count" : 55,
            "type" : "VEC2"
        },
        {
            "bufferView" : 24,
            "componentType" : 5126,
            "count" : 131,
            "max" : [
                0.9140793681144714,
                2,
                0.9140792489051819
            ],
            "min" : [
                -0.9140794277191162,
                1.1325302124023438,
                -0.9140793681144714
            ],
            "type" : "VEC3"
        },
        {
            "bufferView" : 25,
            "componentType" : 5126,
            "count" : 131,
            "type" : "VEC3"
        },
        {
            "bufferView" : 26,
            "componentType" : 5126,
            "count" : 131,
            "type" : "VEC2"
        },
        {
            "bufferView" : 27,
            "componentType" : 5123,
            "count" : 474,
            "type" : "SCALAR"
        },
        {
            "bufferView" : 28,
            "componentType" : 5126,
            "count" : 66,
            "max" : [
                1,
                1.1325302124023438,
                1
            ],
            "min" : [
                -1,
                0.5783132314682007,
                -1
            ],
            "type" : "VEC3"
        },
        {
            "bufferView" : 29,
            "componentType" : 5126,
            "count" : 66,
            "type" : "VEC3"
        },
        {
            "bufferView" : 30,
            "componentType" : 5126,
            "count" : 66,
            "type" : "VEC2"
        },
        {
            "bufferView" : 31,
            "componentType" : 5123,
            "count" : 192,
            "type" : "SCALAR"
        },
        {
            "bufferView" : 32,
            "componentType" : 5126,
            "count" : 98,
            "max" : [
                1,
                0.5783132314682007,
                1
            ],
            "min" : [
                -1,
                0,
                -1
            ],
            "type" : "VEC3"
        },
        {
            "bufferView" : 33,
            "componentType" : 5126,
            "count" : 98,
            "type" : "VEC3"
        },
        {
            "bufferView" : 34,
            "componentType" : 5126,
            "count" : 98,
            "type" : "VEC2"
        },
        {
            "bufferView" : 35,
            "componentType" : 5123,
            "count" : 282,
            "type" : "SCALAR"
        }
    ],
    "bufferViews" : [
        {
            "buffer" : 0,
            "byteLength" : 6312,
            "byteOffset" : 0
        },
        {
            "buffer" : 0,
            "byteLength" : 6312,
            "byteOffset" : 6312
        },
        {
            "buffer" : 0,
            "byteLength" : 4208,
            "byteOffset" : 12624
        },
        {
            "buffer" : 0,
            "byteLength" : 5352,
            "byteOffset" : 16832
        },
        {
            "buffer" : 0,
            "byteLength" : 2832,
            "byteOffset" : 22184
        },
        {
            "buffer" : 0,
            "byteLength" : 2832,
            "byteOffset" : 25016
        },
        {
            "buffer" : 0,
            "byteLength" : 1888,
            "byteOffset" : 27848
        },
        {
            "buffer" : 0,
            "byteLength" : 876,
            "byteOffset" : 29736
        },
        {
            "buffer" : 0,
            "byteLength" : 660,
            "byteOffset" : 30612
        },
        {
            "buffer" : 0,
            "byteLength" : 660,
            "byteOffset" : 31272
        },
        {
            "buffer" : 0,
            "byteLength" : 440,
            "byteOffset" : 31932
        },
        {
            "buffer" : 0,
            "byteLength" : 156,
            "byteOffset" : 32372
        },
        {
            "buffer" : 0,
            "byteLength" : 2832,
            "byteOffset" : 32528
        },
        {
            "buffer" : 0,
            "byteLength" : 2832,
            "byteOffset" : 35360
        },
        {
            "buffer" : 0,
            "byteLength" : 1888,
            "byteOffset" : 38192
        },
        {
            "buffer" : 0,
            "byteLength" : 660,
            "byteOffset" : 40080
        },
        {
            "buffer" : 0,
            "byteLength" : 660,
            "byteOffset" : 40740
        },
        {
            "buffer" : 0,
            "byteLength" : 440,
            "byteOffset" : 41400
        },
        {
            "buffer" : 0,
            "byteLength" : 2832,
            "byteOffset" : 41840
        },
        {
            "buffer" : 0,
            "byteLength" : 2832,
            "byteOffset" : 44672
        },
        {
            "buffer" : 0,
            "byteLength" : 1888,
            "byteOffset" : 47504
        },
        {
            "buffer" : 0,
            "byteLength" : 660,
            "byteOffset" : 49392
        },
        {
            "buffer" : 0,
            "byteLength" : 660,
            "byteOffset" : 50052
        },
        {
            "buffer" : 0,
            "byteLength" : 440,
            "byteOffset" : 50712
        },
        {
            "buffer" : 0,
            "byteLength" : 1572,
            "byteOffset" : 51152
        },
        {
            "buffer" : 0,
            "byteLength" : 1572,
            "byteOffset" : 52724
        },
        {
            "buffer" : 0,
            "byteLength" : 1048,
            "byteOffset" : 54296
        },
        {
            "buffer" : 0,
            "byteLength" : 948,
            "byteOffset" : 55344
        },
        {
            "buffer" : 0,
            "byteLength" : 792,
            "byteOffset" : 56292
        },
        {
            "buffer" : 0,
            "byteLength" : 792,
            "byteOffset" : 57084
        },
        {
            "buffer" : 0,
            "byteLength" : 528,
            "byteOffset" : 57876
        },
        {
            "buffer" : 0,
            "byteLength" : 384,
            "byteOffset" : 58404
        },
        {
            "buffer" : 0,
            "byteLength" : 1176,
            "byteOffset" : 58788
        },
        {
            "buffer" : 0,
            "byteLength" : 1176,
            "byteOffset" : 59964
        },
        {
            "buffer" : 0,
            "byteLength" : 784,
            "byteOffset" : 61140
        },
        {
            "buffer" : 0,
            "byteLength" : 564,
            "byteOffset" : 61924
        }
    ],
    "buffers" : [
        {
            "byteLength" : 62488,
            "uri" : "data:application/octet-stream;base64,"
        }
    ]
}
