<svg xmlns="http://www.w3.org/2000/svg" viewBox="0 0 165 43">
  <defs>
    <linearGradient id="lg" x2="0" y2="1">
      <stop offset="0" stop-color="#ffbf00"/>
      <stop offset="1" stop-color="#ffec00"/>
    </linearGradient>
    <linearGradient id="lg-2" x2="0" y2="1">
      <stop offset="0" stop-color="#fff" stop-opacity=".8"/>
      <stop offset="1" stop-color="#fff" stop-opacity=".1"/>
    </linearGradient>
  </defs>
  <path fill="url(#lg)" d="M164.67 21.34a21.33 21.33 0 0 1-21.33 21.33H21.32a21.32 21.32 0 0 1 0-42.67h122.01a21.33 21.33 0 0 1 21.33 21.34Z"/>
  <path fill="url(#lg-2)" d="M156.98 12.58c0 5.93-5.53 10.74-12.36 10.74H20.04c-6.83 0-12.35-4.81-12.35-10.74 0-5.93 7.97-10.73 14.79-10.73h119.69c6.82 0 14.8 4.8 14.8 10.73Z"/>
  <g transform="translate(64 16)">
    <path d="m8.09,9.14c0,1.12-.4,2-1.21,2.65-.81.65-1.93.97-3.37.97-1.32,0-2.5-.25-3.51-.75v-2.44c.84.37,1.55.64,2.13.79.58.15,1.11.23,1.59.23.58,0,1.02-.11,1.33-.33s.46-.55.46-.98c0-.24-.07-.46-.2-.65-.14-.19-.34-.37-.6-.55s-.8-.46-1.61-.84c-.76-.36-1.33-.7-1.71-1.03-.38-.33-.68-.71-.91-1.15-.23-.44-.34-.95-.34-1.53C.14,2.43.52,1.57,1.26.94c.74-.63,1.77-.94,3.09-.94.65,0,1.26.08,1.85.23.59.15,1.2.37,1.84.65l-.85,2.05c-.66-.27-1.21-.46-1.64-.57-.43-.11-.86-.16-1.28-.16-.5,0-.88.12-1.15.35s-.4.53-.4.91c0,.23.05.43.16.61.11.17.28.34.51.5s.79.45,1.67.87c1.16.55,1.96,1.11,2.39,1.67.43.56.65,1.24.65,2.05Z"/><path d="m19.78,4.05c0,1.34-.42,2.36-1.25,3.06-.83.71-2.02,1.06-3.56,1.06h-1.13v4.41h-2.63V.18h3.96c1.51,0,2.65.32,3.43.97.78.65,1.18,1.61,1.18,2.9Zm-5.94,1.97h.87c.81,0,1.42-.16,1.82-.48.4-.32.6-.79.6-1.4s-.17-1.07-.5-1.37c-.34-.29-.86-.44-1.58-.44h-1.2v3.68Z"/><path d="m23,12.59V.18h2.63v12.41h-2.63Z"/><path d="m40.63,12.59h-3.34l-5.4-9.39h-.08c.11,1.66.16,2.84.16,3.55v5.84h-2.35V.18h3.32l5.39,9.3h.06c-.08-1.61-.13-2.75-.13-3.42V.18h2.37v12.41Z"/>
  </g>
</svg>