<svg xmlns="http://www.w3.org/2000/svg" width="135" height="40" viewBox="0 0 135 40">
  <g id="artwork">
    <rect width="135" height="40" rx="5" ry="5"/>
    <path fill="#a6a6a6" d="M130 .8a4.2 4.2 0 0 1 4.2 4.2v30a4.2 4.2 0 0 1-4.2 4.2H5A4.2 4.2 0 0 1 .8 35V5A4.2 4.2 0 0 1 5 .8h125m0-.8H5C2.25 0 0 2.25 0 5v30c0 2.75 2.25 5 5 5h125c2.75 0 5-2.25 5-5V5c0-2.75-2.25-5-5-5Z"/>
    <path fill="#fff" stroke="#fff" stroke-miterlimit="10" stroke-width=".2" d="M47.42 10.24c0 .84-.25 1.51-.75 2-.56.59-1.3.89-2.2.89s-1.6-.3-2.21-.9a3 3 0 0 1-.91-2.23 3 3 0 0 1 .91-2.23c.61-.6 1.34-.9 2.21-.9.43 0 .84.08 1.23.25.39.17.7.39.94.67l-.53.53c-.4-.47-.94-.71-1.64-.71-.63 0-1.18.22-1.64.67-.46.44-.69 1.02-.69 1.73s.23 1.29.69 1.73a2.3 2.3 0 0 0 1.64.67c.67 0 1.23-.22 1.68-.67.29-.29.46-.7.5-1.22h-2.18V9.8h2.91c.03.16.04.31.04.45ZM52.03 7.74H49.3v1.9h2.46v.72H49.3v1.9h2.73V13h-3.5V7h3.5v.74ZM55.28 13h-.77V7.74h-1.68V7h4.12v.74h-1.68V13ZM59.94 13V7h.77v6h-.77ZM64.13 13h-.77V7.74h-1.68V7h4.12v.74h-1.68V13ZM73.61 12.22c-.59.61-1.32.91-2.2.91s-1.61-.3-2.2-.91c-.59-.61-.88-1.35-.88-2.22a3.05 3.05 0 0 1 3.08-3.13A3.08 3.08 0 0 1 74.5 10c0 .87-.3 1.62-.88 2.22Zm-3.83-.5c.44.45.99.67 1.63.67s1.19-.22 1.63-.67c.44-.45.67-1.02.67-1.72s-.22-1.27-.67-1.72c-.44-.45-.99-.67-1.63-.67s-1.19.22-1.63.67c-.44.45-.67 1.02-.67 1.72s.22 1.27.67 1.72ZM75.58 13V7h.94l2.92 4.67h.03l-.03-1.16V7h.77v6h-.8l-3.05-4.89h-.03l.03 1.16v3.74h-.77Z"/>
    <path fill="#fff" d="M68.14 21.75c-2.35 0-4.27 1.79-4.27 4.25s1.92 4.25 4.27 4.25 4.27-1.8 4.27-4.25-1.92-4.25-4.27-4.25Zm0 6.83c-1.29 0-2.4-1.06-2.4-2.58s1.11-2.58 2.4-2.58 2.4 1.05 2.4 2.58-1.11 2.58-2.4 2.58Zm-9.32-6.83c-2.35 0-4.27 1.79-4.27 4.25s1.92 4.25 4.27 4.25 4.27-1.8 4.27-4.25-1.92-4.25-4.27-4.25Zm0 6.83c-1.29 0-2.4-1.06-2.4-2.58s1.11-2.58 2.4-2.58 2.4 1.05 2.4 2.58-1.11 2.58-2.4 2.58Zm-11.08-5.52v1.8h4.32a3.77 3.77 0 0 1-.98 2.27 4.41 4.41 0 0 1-3.33 1.32c-2.66 0-4.74-2.14-4.74-4.8A4.74 4.74 0 0 1 51 20.14l1.27-1.27a6.3 6.3 0 0 0-4.53-1.82c-3.64 0-6.7 2.96-6.7 6.61s3.06 6.61 6.7 6.61c1.97 0 3.45-.64 4.61-1.85a5.97 5.97 0 0 0 1.56-4.22c0-.42-.03-.81-.1-1.13h-6.07Zm45.31 1.4c-.35-.95-1.43-2.71-3.64-2.71S85.4 23.47 85.4 26c0 2.38 1.8 4.25 4.22 4.25a4.21 4.21 0 0 0 3.54-1.88l-1.45-.97c-.48.71-1.14 1.18-2.09 1.18s-1.63-.44-2.06-1.29l5.69-2.35-.19-.48Zm-5.8 1.42a2.33 2.33 0 0 1 2.22-2.48c.74 0 1.37.37 1.58.9l-3.8 1.58ZM82.63 30h1.87V17.5h-1.87V30Zm-3.06-7.3h-.06a2.94 2.94 0 0 0-2.24-.95c-2.13 0-4.08 1.87-4.08 4.27s1.95 4.24 4.08 4.24c1.02 0 1.82-.45 2.24-.97h.06v.61c0 1.63-.87 2.5-2.27 2.5a2.35 2.35 0 0 1-2.14-1.51l-1.63.68a4.05 4.05 0 0 0 3.77 2.51c2.19 0 4.04-1.29 4.04-4.43v-7.64h-1.77v.69Zm-2.15 5.88c-1.29 0-2.37-1.08-2.37-2.56s1.08-2.59 2.37-2.59 2.27 1.1 2.27 2.59-1 2.56-2.27 2.56Zm24.39-11.08h-4.47V30h1.87v-4.74h2.61c2.07 0 4.1-1.5 4.1-3.88s-2.03-3.88-4.1-3.88Zm.04 6.02H99.2v-4.29h2.65c1.4 0 2.19 1.16 2.19 2.14s-.79 2.14-2.19 2.14Zm11.54-1.79c-1.35 0-2.75.6-3.33 1.91l1.66.69c.35-.69 1.01-.92 1.7-.92.96 0 1.95.58 1.96 1.61v.13a4.18 4.18 0 0 0-1.95-.48c-1.79 0-3.6.98-3.6 2.81 0 1.67 1.46 2.75 3.1 2.75 1.25 0 1.95-.56 2.38-1.22h.06v.97h1.8v-4.79c0-2.22-1.66-3.46-3.8-3.46Zm-.23 6.85c-.61 0-1.46-.31-1.46-1.06 0-.96 1.06-1.33 1.98-1.33.82 0 1.21.18 1.7.42a2.26 2.26 0 0 1-2.22 1.98ZM123.74 22l-2.14 5.42h-.06L119.32 22h-2.01l3.33 7.58-1.9 4.21h1.95L125.82 22h-2.07Zm-16.8 8h1.87V17.5h-1.87V30Z"/>
    <path fill="#ea4335" d="m20.72 19.42-10.65 11.3a2.88 2.88 0 0 0 4.24 1.73l.03-.02 11.98-6.91-5.61-6.11Z"/>
    <path fill="#fbbc04" d="M31.49 17.5h-.01l-5.17-3.01-5.83 5.19 5.85 5.85 5.15-2.97a2.88 2.88 0 0 0 .01-5.05Z"/>
    <path fill="#4285f4" d="M10.07 9.28a3 3 0 0 0-.1.74v19.97c0 .26.03.5.1.74l11.01-11.01L10.07 9.28Z"/>
    <path fill="#34a853" d="m20.8 20 5.51-5.51-11.97-6.94a2.89 2.89 0 0 0-4.27 1.72L20.8 19.99Z"/>
  </g>
</svg>
