<svg xmlns="http://www.w3.org/2000/svg" width="36" height="36" viewBox="0 0 51 51">
  <g id="Layer_1-2">
    <path fill="#fff" d="M44.24 0H6.76A6.78 6.78 0 0 0 0 6.76v37.47a6.78 6.78 0 0 0 6.76 6.76h11.59V35.35H12.6a.85.85 0 0 1-.85-.85v-8.59c0-.47.38-.85.85-.85h6.04v-6.37a9 9 0 0 1 2.99-8.01c3.27-3.01 7.41-3.23 8.59-3.23h7.16c.47 0 .85.38.85.85v7.99c0 .47-.38.85-.85.85h-4.96c-1.75 0-2.63.85-2.63 2.48v5.45h7.6c.24 0 .48.1.64.28.15.19.22.42.21.66l-1 8.71a.85.85 0 0 1-.85.75h-6.6V51h14.45A6.78 6.78 0 0 0 51 44.24V6.76A6.78 6.78 0 0 0 44.24 0Z"/>
  </g>
</svg>
