<svg xmlns="http://www.w3.org/2000/svg" viewBox="0 0 436 92">
  <polygon fill="#FFF" points="400.26 8 400.26 15.99 344.21 15.99 344.21 32.06 315.3 32.06 315.3 15.99 264.1 15.99 264.1 23.99 259.25 23.99 259.25 15.99 192.06 15.99 192.06 23.99 187.21 23.99 187.21 15.99 136.01 15.99 136.01 23.99 131.17 23.99 131.17 0 64.04 0 64.04 40.05 59.23 40.05 59.23 23.99 51.27 23.99 51.27 8 15.99 8 15.99 23.99 8 23.99 8 40.05 0 40.05 0 75.19 131.17 75.19 131.17 67.2 136.01 67.2 136.01 75.19 187.21 75.19 187.21 67.2 192.06 67.2 192.06 75.19 307.31 75.19 307.31 67.2 315.3 67.2 315.3 59.2 360.2 59.16 360.2 64.04 352.2 64.04 352.2 91.19 387.31 91.19 387.31 83.19 395.34 83.19 395.34 59.16 400.26 59.16 400.26 75.19 435.39 75.19 435.39 8"/>
  <g fill="#EF3B42">
    <path d="M46.13 33.71h-7.96V17.72H21.89v15.99h-8v16.06h-8v16.14h16.14v-8h15.92v8h16.14V49.78h-7.96V33.71zm-8.18 16.07H22.03v-7.85h15.92v7.85z"/>
    <rect width="16.14" height="56.19" x="69.94" y="9.72"/>
    <rect width="16.14" height="56.19" x="101.92" y="9.72"/>
    <path d="M174.11 25.72h-32.2v8h-8v24.21h8v8h32.2v-8h8V33.71h-8v-7.99zm-8.14 32.05h-15.92V33.93h15.92v23.84z"/>
    <polygon points="221.94 33.78 214.09 33.78 214.09 25.72 197.95 25.72 197.95 65.91 214.09 65.91 214.09 41.92 222.2 41.92 222.2 34 230.01 34 230.01 65.91 246.15 65.91 246.15 25.72 221.94 25.72"/>
    <polygon points="269.99 33.71 262 33.71 262 49.92 286.06 49.92 286.06 57.77 262 57.77 262 65.91 294.2 65.91 294.2 57.92 302.2 57.92 302.2 41.78 278.13 41.78 278.13 33.93 302.2 33.93 302.2 25.72 269.99 25.72"/>
    <rect width="24.21" height="8.14" x="318.05" y="41.78"/>
    <polygon points="382.02 49.78 374.2 49.78 374.2 25.72 350.1 25.72 350.1 33.86 358.1 33.86 358.1 49.88 366.1 49.88 366.1 65.9 374.06 65.9 374.06 73.77 358.1 73.77 358.1 81.91 374.2 81.91 374.2 73.91 382.23 73.91 382.23 49.88 390.23 49.88 390.23 33.86 398.23 33.86 398.23 25.72 382.02 25.72"/>
    <rect width="16.14" height="32.2" x="406.15" y="17.72"/>
    <rect width="16.14" height="8.14" x="406.15" y="57.77"/>
  </g>
</svg>
