<svg xmlns="http://www.w3.org/2000/svg" viewBox="0 0 1000 1040">
  <rect width="1000" height="664" y="376" fill="#CDE0EE"/>
  <polygon fill="#FFF" points="0 .37 0 376.37 1000 376.37 1000 .37 0 .37"/>
  <g fill="#1F378C">
    <polygon points="1000 360 1000 360 1000 352 688 352 688 368.02 1000 367.98 1000 360"/>
    <rect width="320" height="16" y="352"/>
  </g>
  <g fill="#CF7E83">
    <polygon points="672 496 680 496 680 488 672 488 672 496"/>
    <polygon points="320 496 328 496 328 488 320 488 320 496"/>
    <polygon points="672 480 680 480 680 472 672 472 672 480"/>
    <polygon points="320 480 328 480 328 472 320 472 320 480"/>
    <polygon points="672 464 680 464 680 456 672 456 672 464"/>
    <polygon points="320 464 328 464 328 456 320 456 320 464"/>
    <polygon points="672 448 680 448 680 440 672 440 672 448"/>
    <polygon points="320 448 328 448 328 440 320 440 320 448"/>
    <polygon points="672 432 680 432 680 424 672 424 672 432"/>
    <polygon points="320 432 328 432 328 424 320 424 320 432"/>
    <polygon points="672 416 680 416 680 408 672 408 672 416"/>
    <polygon points="320 416 328 416 328 408 320 408 320 416"/>
    <polygon points="672 400 680 400 680 392 672 392 672 400"/>
    <polygon points="320 400 328 400 328 392 320 392 320 400"/>
    <polygon points="672 384 680 384 680 376 672 376 672 384"/>
    <polygon points="320 384 328 384 328 376 320 376 320 384"/>
    <polygon points="672 368 680 368 680 360 672 360 672 368"/>
    <polygon points="320 368 328 368 328 360 320 360 320 368"/>
    <polygon points="672 352 680 352 680 344 672 344 672 352"/>
    <polygon points="320 352 328 352 328 344 320 344 320 352"/>
    <polygon points="672 336 680 336 680 328 672 328 672 336"/>
    <polygon points="320 336 328 336 328 328 320 328 320 336"/>
    <polygon points="672 320 680 320 680 312 672 312 672 320"/>
    <polygon points="320 320 328 320 328 312 320 312 320 320"/>
    <polygon points="672 304 680 304 680 296 672 296 672 304"/>
    <polygon points="320 304 328 304 328 296 320 296 320 304"/>
    <polygon points="672 288 680 288 680 280 672 280 672 288"/>
    <polygon points="320 280 320 288 328 288 328 272 320 272 320 280"/>
    <polygon points="672 264 672 272 680 272 680 264 672 264"/>
    <polygon points="328 272 336 272 336 264 328 264 328 272"/>
    <polygon points="656 264 664 264 664 256 656 256 656 264"/>
    <polygon points="640 264 648 264 648 256 640 256 640 264"/>
    <polygon points="624 264 632 264 632 256 624 256 624 264"/>
    <polygon points="608 264 616 264 616 256 608 256 608 264"/>
    <polygon points="592 264 600 264 600 256 592 256 592 264"/>
    <polygon points="576 264 584 264 584 256 576 256 576 264"/>
    <polygon points="560 264 568 264 568 256 560 256 560 264"/>
    <polygon points="544 264 552 264 552 256 544 256 544 264"/>
    <polygon points="528 264 536 264 536 256 528 256 528 264"/>
    <polygon points="512 264 520 264 520 256 512 256 512 264"/>
    <polygon points="496 264 504 264 504 256 496 256 496 264"/>
    <polygon points="480 264 488 264 488 256 480 256 480 264"/>
    <polygon points="464 264 472 264 472 256 464 256 464 264"/>
    <polygon points="448 264 456 264 456 256 448 256 448 264"/>
    <polygon points="432 264 440 264 440 256 432 256 432 264"/>
    <polygon points="416 264 424 264 424 256 416 256 416 264"/>
    <polygon points="400 264 408 264 408 256 400 256 400 264"/>
    <polygon points="384 264 392 264 392 256 384 256 384 264"/>
    <polygon points="368 264 376 264 376 256 368 256 368 264"/>
    <polygon points="352 264 360 264 360 256 352 256 352 264"/>
    <polygon points="336 264 344 264 344 256 336 256 336 264"/>
  </g>
  <polygon fill="#E8E2E3" points="504 256 512 256 512 248 504 248 504 256"/>
  <polygon fill="#E8E2E3" points="504 248 512 248 512 240 504 240 504 248"/>
  <polygon fill="#717272" points="504 232 512 232 512 224 504 224 504 232"/>
  <polygon fill="#717272" points="496 232 504 232 504 224 496 224 496 232"/>
  <g fill="#EF3B42">
    <polygon points="672 272 672 256 664 256 664 264 656 264 656 256 648 256 648 264 640 264 640 256 632 256 632 264 624 264 624 256 616 256 616 264 608 264 608 256 600 256 600 264 592 264 592 256 584 256 584 264 576 264 576 256 568 256 568 264 560 264 560 256 552 256 552 264 544 264 544 256 536 256 536 264 528 264 528 256 520 256 520 264 512 264 512 256 504 256 504 264 496 264 496 256 504 256 504 240 512 240 512 239.86 512 256 520 256 520 232 488 232 488 264 480 264 480 256 472 256 472 264 464 264 464 256 456 256 456 264 448 264 448 256 440 256 440 264 432 264 432 256 424 256 424 264 416 264 416 256 408 256 408 264 400 264 400 256 392 256 392 264 384 264 384 256 376 256 376 264 368 264 368 256 360 256 360 264 352 264 352 256 344 256 344 264 336 264 336 272 328 272 328 288 320 288 320 296 328 296 328 304 320 304 320 312 328 312 328 320 320 320 320 328 328 328 328 336 320 336 320 344 328 344 328 352 320 352 320 360 328 360 328 368 320 368 320 376 328 376 328 384 320 384 320 392 328 392 328 400 320 400 320 408 328 408 328 416 320 416 320 424 328 424 328 432 320 432 320 440 328 440 328 448 320 448 320 456 328 456 328 464 320 464 320 472 328 472 328 480 320 480 320 488 328 488 328 496 336 496 336 280 344 280 344 272 664 272 664 280 680 280 680 288 672 288 672 296 680 296 680 304 672 304 672 312 680 312 680 320 672 320 672 328 680 328 680 336 672 336 672 344 680 344 680 352 672 352 672 360 680 360 680 368 672 368 672 376 680 376 680 384 672 384 672 392 680 392 680 400 672 400 672 408 680 408 680 416 672 416 672 424 680 424 680 432 672 432 672 440 680 440 680 448 672 448 672 456 680 456 680 464 672 464 672 472 680 472 680 480 672 480 672 488 680 488 680 496 688 496 688 272 672 272"/>
    <polygon points="992 176 0 176 0 184 1000 184 1000 176 992 176"/>
  </g>
  <g fill="#545F72">
    <polygon points="856 176 864 176 864 168 856 168 856 176"/>
    <polygon points="704 168 704 176 720 176 720 168 704 168"/>
    <polygon points="640 168 640 160 624 160 624 168 632 168 632 176 656 176 656 168 640 168"/>
    <polygon points="608 168 608 176 624 176 624 168 608 168"/>
    <polygon points="496 168 496 176 512 176 512 168 496 168"/>
    <polygon points="384 168 384 176 400 176 400 168 384 168"/>
    <polygon points="368 176 368 168 360 168 360 176 368 176"/>
    <polygon points="296 176 304 176 304 168 296 168 296 176"/>
    <polygon points="280 176 280 168 272 168 272 176 280 176"/>
    <polygon points="216 176 224 176 224 168 232 168 232 160 216 160 216 176"/>
    <polygon points="0 176 8 176 8 168 0 168 0 176"/>
    <polygon points="992 168 1000 168 1000 160 992 160 992 168"/>
    <polygon points="752 160 752 168 768 168 768 160 752 160"/>
    <polygon points="488 160 488 144 480 144 480 176 488 176 488 168 496 168 496 160 488 160"/>
    <polygon points="376 160 376 168 384 168 384 160 376 160"/>
    <polygon points="240 160 240 168 248 168 248 176 256 176 256 160 240 160"/>
    <polygon points="8 168 16 168 16 160 8 160 8 168"/>
    <polygon points="928 152 928 168 944 168 944 152 928 152"/>
    <polygon points="784 152 768 152 768 160 776 160 776 168 784 168 784 176 792 176 792 160 784 160 784 152"/>
    <polygon points="704 152 704 144 696 144 696 136 680 136 680 152 672 152 672 136 656 136 656 144 648 144 648 160 656 160 656 152 664 152 664 160 656 160 656 168 688 168 688 176 696 176 696 160 704 160 704 152"/>
    <polygon points="496 160 512 160 512 144 496 144 496 160"/>
    <polygon points="104 152 104 160 112 160 112 152 104 152"/>
    <polygon points="920 144 920 152 928 152 928 144 920 144"/>
    <polygon points="760 152 760 136 752 136 752 120 744 120 744 104 736 104 736 120 728 120 728 136 736 136 736 144 728 144 728 160 736 160 736 176 744 176 744 160 752 160 752 152 760 152"/>
    <path d="M608 144h-16v-24h-24v16h-8v8h8v16h-8v8h-8v8h16v-8h8v8h24v-8h-8v-8h8v-8h8v-8zm-32-16h8v8h-8v-8zm0 16h8v8h-8v-8z"/>
    <polygon points="552 152 560 152 560 144 552 144 552 152"/>
    <polygon points="520 152 520 160 512 160 512 168 520 168 520 176 528 176 528 144 520 144 520 152"/>
    <polygon points="360 144 344 144 344 136 336 136 336 152 320 152 320 128 312 128 312 120 320 120 320 112 328 112 328 104 312 104 312 88 296 88 296 120 304 120 304 136 312 136 312 144 304 144 304 160 312 160 312 176 320 176 320 168 328 168 328 160 344 160 344 152 352 152 352 168 360 168 360 160 368 160 368 152 360 152 360 144"/>
    <polygon points="96 144 96 152 104 152 104 144 96 144"/>
    <polygon points="88 144 80 144 80 152 64 152 64 160 72 160 72 168 64 168 64 176 80 176 80 168 88 168 88 160 96 160 96 152 88 152 88 144"/>
    <polygon points="528 144 536 144 536 136 528 136 528 144"/>
    <polygon points="520 136 512 136 512 144 520 144 520 136"/>
    <polygon points="496 144 496 136 488 136 488 144 496 144"/>
    <polygon points="472 136 472 144 480 144 480 136 472 136"/>
    <path d="M64 136h16v-8h-8v-8h-8v-16h8V80h-8v-8h16v-8h-8V48h-8v-8h8v-8h8v-8H64v-8h16V8H64V0h-8v24h-8v8h-8v8h16v24h-8v8h-8v8h8v8h-8v16h8v8h8v16h-8v16h-8v8h8v8h-8v8h8v8h8v-32h8v-8zm0-48v8h-8v-8h8z"/>
    <polygon points="992 136 984 136 984 144 992 144 992 152 1000 152 1000 128 992 128 992 136"/>
    <polygon points="976 128 976 120 968 120 968 136 984 136 984 128 976 128"/>
    <polygon points="680 128 672 128 672 136 680 136 680 128"/>
    <polygon points="648 128 648 136 656 136 656 128 648 128"/>
    <polygon points="528 128 520 128 520 136 528 136 528 128"/>
    <polygon points="488 128 480 128 480 136 488 136 488 128"/>
    <path d="M440 128h-8v8h-8v-8h-8v8h-8v8h-8v8h8v8h8v8h-8v8h24v-8h8v8h16v-8h-8v-8h-8v-16h8v-8h-8v-8zm-8 24h-8v-8h8v8z"/>
    <polygon points="40 128 40 120 32 120 32 128 24 128 24 136 40 136 40 128"/>
    <polygon points="16 128 8 128 8 136 0 136 0 152 8 152 8 144 24 144 24 136 16 136 16 128"/>
    <polygon points="992 128 992 120 984 120 984 128 992 128"/>
    <polygon points="696 128 696 136 704 136 704 120 712 120 712 88 696 88 696 104 680 104 680 112 688 112 688 120 696 120 696 128"/>
    <polygon points="688 120 680 120 680 128 688 128 688 120"/>
    <polygon points="664 120 656 120 656 128 664 128 664 120"/>
    <path d="M560 120v-8h8v-8h-8v-8h8v-8h-8v-8h-8V48h8v-8h-8v-8h-8v-8h-16v8h8v8h8v8h-8v-8h-16v8h8v8h8v16h8v8h-8v8h-8v8h-8v8h8v16h8v8h8v8h16v-16zm-24-24h8v8h8v8h-8v-8h-8v-8z"/>
    <polygon points="432 120 424 120 424 128 432 128 432 120"/>
    <path d="M408 120v-16h8v-8h-8V80h-8V56h8v-8h8V32h-8V16h8V8h-24V0h-8v8h-8v8h8v16h16v8h-8v8h-8v-8h-8v24h8v-8h8v8h-8v32h-24v8h-8v8h8v8h32v8h8v8h8v-16zm-16-96v-8h8v8h-8zm0 64h8v8h-8v-8zm-16 24v-8h8v8h-8zm16-8h8v8h-8v-8z"/>
    <polygon points="352 128 352 136 360 136 360 120 352 120 352 128"/>
    <path d="M144 120v-8h8v-8h-16v-8h-8v8h-8v16h-8v-16h-8v16h-8v16h8v8h8v8h8v8h-8v8h8v8h16v-8h8v-32h8v-8h8v-8h-16zm-16-8h8v16h-8v-16zm-16 16h8v8h-8v-8zm24 16h-8v-8h8v8z"/>
    <polygon points="24 120 16 120 16 128 24 128 24 120"/>
    <polygon points="984 112 976 112 976 120 984 120 984 112"/>
    <path d="M832 120h-8v-8h8v-8h8v-8h-16v-8h8V72h-8v-8h-8v-8h8v-8h8v-8h-8v-8h24v-8h-8v-8h-8V8h-8V0h-8v8h-8v8h8v8h-8v8h8v8h-8v8h-8v24h16v8h-8v8h-16v16h8v-8h8v24h-8v-8h-8v24h-8v16h8v8h8v16h32v-8h-8v-32h8v-8h8v-16h-8v8zm-16 48h-8v-8h8v8zm0-24h-8v-8h-8v-8h8v8h8v8z"/>
    <polygon points="720 112 720 120 728 120 728 112 720 112"/>
    <polygon points="280 120 288 120 288 112 280 112 280 120"/>
    <path d="M272 112V72h-8v-8h-8V48h8v-8h-8V16h8V8h8V0h-16v8h-16v8h8v8h-16v16h-8v16h8v-8h8v16h8v8h8v16h-16v8h-8v8h-8v-8h-8v-8h-8V64h8v-8h-8v-8h-8v-8h-8v-8h8v-8h-8v-8h8V8h-8V0h-8v8h-8v8h-8v8h-8v8h8v8h8v-8h8v8h-8v16h16v8h-24v8h8v16h8v8h-16v8h-8v8h8v16h8v8h8v40h24v-16h8v-8h8v-16h-8v-16h8v-8h16v-8h8v16h8v-16h8v16h-8v16h-8v16h8v8h8v8h8v-8h8v-16h-8v-8h8v-16h-8v-8zm-72-40v8h-8v-8h8zm-24 40h8v8h-8v-8zm24 56h-8v-8h8v8zm8-32h-8v8h-8v-8h8v-8h8v8zm0-24v8h-8V96h8v8h8v8h-8z"/>
    <polygon points="32 112 24 112 24 120 32 120 32 112"/>
    <polygon points="8 112 0 112 0 128 8 128 8 112"/>
    <path d="M896 112v8h-8v-16h-8v-8h-8v16h8v16h-8v-16h-8v8h-16v8h8v8h8v32h8v8h16v-8h8v8h8v-40h8v-16h-8v-16h-8v8zm-24 24h8v8h-8v-8zm24 16h-8v8h-8v-8h8v-8h8v8zm-8-16v-8h8v8h-8z"/>
    <polygon points="856 104 856 112 864 112 864 104 856 104"/>
    <polygon points="848 104 840 104 840 112 848 112 848 104"/>
    <polygon points="752 112 752 120 760 120 760 96 768 96 768 88 752 88 752 72 760 72 760 64 768 64 768 48 776 48 776 56 784 56 784 40 776 40 776 24 760 24 760 16 768 16 768 8 752 8 752 0 736 0 736 8 744 8 744 16 752 16 752 64 744 64 744 104 752 104 752 112"/>
    <polygon points="984 104 992 104 992 96 984 96 984 104"/>
    <polygon points="904 104 912 104 912 96 904 96 904 104"/>
    <path d="M888 104h8V88h-8v-8h16v-8h8v-8h-8v-8h-8v-8h8V32h-24v-8h-8v-8h-8v8h-8v8h16v8h8v32h-8v16h8v8h8v8zm0-40h8v8h-8v-8zM120 96h8v-8h8V72h-8V40h8v-8h16v-8h-8v-8h-8v8h-8v8h-24v16h8v8h-8v8h-8v8h8v16h8v-8h8v8h-8v16h8v-8zm-8-24v-8h8v8h-8z"/>
    <polygon points="96 96 96 104 104 104 104 96 96 96"/>
    <polygon points="16 104 24 104 24 88 16 88 16 80 8 80 8 72 16 72 16 64 8 64 8 56 0 56 0 88 8 88 8 96 16 96 16 104"/>
    <polygon points="8 96 0 96 0 104 8 104 8 96"/>
    <polygon points="920 88 912 88 912 96 920 96 920 88"/>
    <polygon points="728 96 728 88 720 88 720 96 728 96"/>
    <polygon points="280 96 288 96 288 88 280 88 280 96"/>
    <polygon points="584 88 592 88 592 80 584 80 584 88"/>
    <path d="M472 80h-8v-8h8V56h8v-8h8v-8h-16v8h-8v-8h8v-8h8v-8h-16v8h-8v8h-8v8h8v32h-8v8h-8v8h8v8h-8v8h8v24h16v-8h8v-8h8v-16h8v-8h-8v-8h-8v-8zm0 24h-8v8h-8v-8h8v-8h8v8z"/>
    <polygon points="432 80 432 88 440 88 440 80 432 80"/>
    <polygon points="352 88 376 88 376 80 352 80 352 88"/>
    <polygon points="96 80 88 80 88 96 96 96 96 80"/>
    <polygon points="984 72 984 80 992 80 992 96 1000 96 1000 64 992 64 992 72 984 72"/>
    <polygon points="760 80 768 80 768 72 760 72 760 80"/>
    <polygon points="704 80 712 80 712 88 720 88 720 64 696 64 696 72 688 72 688 64 680 64 680 72 672 72 672 80 680 80 680 88 696 88 696 80 704 80"/>
    <polygon points="656 80 664 80 664 72 656 72 656 80"/>
    <path d="M648 72h-8v8h-8v8h8v8h-16V64h-8v-8h8v8h8V40h-8v8h-8v-8h-8v-8h16V16h8V8h-8V0h-8v8h-24v8h8v16h-8v16h8v8h8v24h-8v16h-8v8h8v32h8v-8h8v-8h32v-8h8v-8h-8V88h8v-8h-8v-8zm-40-56h8v8h-8v-8zm0 72h8v8h-8v-8zm0 24v-8h8v8h-8zm16 0v-8h8v8h-8z"/>
    <polygon points="592 72 592 80 600 80 600 72 592 72"/>
    <polygon points="536 80 536 72 520 72 520 64 488 64 488 72 472 72 472 80 480 80 480 88 488 88 488 80 496 80 496 72 512 72 512 80 520 80 520 88 528 88 528 80 536 80"/>
    <polygon points="408 80 416 80 416 72 408 72 408 80"/>
    <path d="M304 80h8v8h16v-8h16V56h-8v-8h8v8h8V40h-8V8h8V0h-24v8h-8v8h8v8h8v16h-8v8h-8v8h-8v-8h-8V32h8v-8h-16v8h-8v8h8v16h8v8h-16v24h8v-8h8zm32-8h-8v-8h8v8zm-16-8v8h-8v-8h8z"/>
    <polygon points="240 80 248 80 248 72 240 72 240 80"/>
    <polygon points="24 80 24 72 16 72 16 80 24 80"/>
    <polygon points="776 72 776 64 768 64 768 72 776 72"/>
    <polygon points="656 64 648 64 648 72 656 72 656 64"/>
    <polygon points="576 64 568 64 568 72 576 72 576 64"/>
    <polygon points="440 64 432 64 432 72 440 72 440 64"/>
    <polygon points="424 72 424 64 416 64 416 72 424 72"/>
    <polygon points="368 64 360 64 360 72 368 72 368 64"/>
    <polygon points="232 64 224 64 224 72 240 72 240 64 232 64"/>
    <polygon points="992 64 992 56 984 56 984 64 992 64"/>
    <polygon points="960 64 968 64 968 56 960 56 960 64"/>
    <polygon points="952 56 952 40 960 40 960 24 952 24 952 0 936 0 936 8 928 8 928 0 920 0 920 24 928 24 928 16 944 16 944 24 928 24 928 40 936 40 936 64 928 64 928 80 936 80 936 72 944 72 944 80 936 80 936 104 944 104 944 120 936 120 936 128 928 128 928 136 944 136 944 144 952 144 952 176 960 176 960 168 968 168 968 160 960 160 960 152 968 152 968 144 960 144 960 128 952 128 952 104 960 104 960 88 952 88 952 96 944 96 944 88 952 88 952 72 960 72 960 64 952 64 952 56"/>
    <polygon points="840 64 848 64 848 56 840 56 840 64"/>
    <polygon points="688 64 696 64 696 56 688 56 688 64"/>
    <polygon points="680 64 680 56 688 56 688 48 680 48 680 40 672 40 672 24 680 24 680 16 688 16 688 8 680 8 680 0 656 0 656 8 664 8 664 40 656 40 656 56 664 56 664 48 672 48 672 56 664 56 664 72 672 72 672 64 680 64"/>
    <polygon points="600 64 600 56 584 56 584 72 592 72 592 64 600 64"/>
    <polygon points="416 64 416 56 408 56 408 64 416 64"/>
    <polygon points="40 56 40 64 48 64 48 56 40 56"/>
    <polygon points="24 64 24 56 16 56 16 64 24 64"/>
    <polygon points="704 56 712 56 712 40 720 40 720 32 712 32 712 24 696 24 696 32 704 32 704 48 696 48 696 56 704 56"/>
    <polygon points="168 48 168 40 160 40 160 56 144 56 144 48 136 48 136 64 168 64 168 48"/>
    <polygon points="16 48 16 40 32 40 32 32 24 32 24 24 16 24 16 16 8 16 8 24 0 24 0 32 8 32 8 40 0 40 0 48 8 48 8 56 16 56 16 48"/>
    <polygon points="968 48 968 56 984 56 984 48 976 48 976 40 968 40 968 48"/>
    <polygon points="696 40 688 40 688 48 696 48 696 40"/>
    <polygon points="312 48 320 48 320 40 328 40 328 24 320 24 320 32 312 32 312 48"/>
    <polygon points="152 40 144 40 144 48 152 48 152 40"/>
    <polygon points="976 40 984 40 984 32 976 32 976 40"/>
    <polygon points="904 32 912 32 912 16 904 16 904 32"/>
    <polygon points="688 32 688 24 680 24 680 32 688 32"/>
    <polygon points="560 24 552 24 552 32 560 32 560 24"/>
    <polygon points="448 24 448 32 456 32 456 24 448 24"/>
    <polygon points="992 16 992 24 984 24 984 32 992 32 992 48 1000 48 1000 16 992 16"/>
    <polygon points="880 24 896 24 896 16 904 16 904 8 896 8 896 0 880 0 880 8 872 8 872 16 880 16 880 24"/>
    <polygon points="104 16 96 16 96 32 104 32 104 16"/>
    <polygon points="720 8 720 0 712 0 712 16 736 16 736 8 720 8"/>
    <polygon points="536 16 544 16 544 8 528 8 528 16 536 16"/>
    <polygon points="472 16 480 16 480 8 464 8 464 16 472 16"/>
    <polygon points="280 16 296 16 296 0 288 0 288 8 272 8 272 16 280 16"/>
    <polygon points="136 16 136 8 128 8 128 0 120 0 120 8 112 8 112 24 128 24 128 16 136 16"/>
    <polygon points="0 8 0 16 8 16 8 8 0 8"/>
    <polygon points="696 0 688 0 688 8 696 8 696 0"/>
    <polygon points="648 8 648 0 632 0 632 8 648 8"/>
    <polygon points="576 0 568 0 568 8 576 8 576 0"/>
    <polygon points="552 0 544 0 544 8 552 8 552 0"/>
    <polygon points="496 8 528 8 528 0 480 0 480 8 496 8"/>
    <polygon points="464 0 456 0 456 8 464 8 464 0"/>
    <polygon points="440 0 432 0 432 8 440 8 440 0"/>
    <polygon points="368 0 360 0 360 8 376 8 376 0 368 0"/>
  </g>
  <g fill="#A59995">
    <polygon points="928 168 928 160 912 160 912 168 904 168 904 176 944 176 944 168 928 168"/>
    <polygon points="752 168 744 168 744 176 768 176 768 168 752 168"/>
    <polygon points="672 168 656 168 656 176 688 176 688 168 672 168"/>
    <polygon points="256 168 256 176 272 176 272 168 256 168"/>
    <polygon points="104 168 88 168 88 176 120 176 120 168 104 168"/>
    <polygon points="352 160 328 160 328 168 320 168 320 176 360 176 360 168 352 168 352 160"/>
    <polygon points="992 152 992 144 976 144 976 152 968 152 968 176 992 176 992 160 1000 160 1000 152 992 152"/>
    <polygon points="560 152 552 152 552 144 536 144 536 152 528 152 528 176 552 176 552 168 560 168 560 160 568 160 568 144 560 144 560 152"/>
    <polygon points="40 144 24 144 24 152 8 152 8 160 16 160 16 176 40 176 40 160 48 160 48 152 40 152 40 144"/>
    <polygon points="656 136 648 136 648 128 640 128 640 120 632 120 632 128 616 128 616 136 600 136 600 144 608 144 608 152 648 152 648 144 656 144 656 136"/>
    <polygon points="560 136 552 136 552 144 560 144 560 136"/>
    <polygon points="472 136 464 136 464 144 448 144 448 152 440 152 440 160 448 160 448 168 456 168 456 176 480 176 480 144 472 144 472 136"/>
    <polygon points="856 128 848 128 848 136 832 136 832 144 824 144 824 168 832 168 832 176 856 176 856 168 864 168 864 136 856 136 856 128"/>
    <polygon points="728 128 728 120 720 120 720 128 704 128 704 152 712 152 712 160 720 160 720 152 728 152 728 144 736 144 736 136 728 136 728 128"/>
    <polygon points="400 128 392 128 392 120 384 120 384 128 368 128 368 136 352 136 352 144 360 144 360 152 400 152 400 144 408 144 408 136 400 136 400 128"/>
    <polygon points="304 128 304 120 280 120 280 136 272 136 272 144 280 144 280 152 288 152 288 160 296 160 296 152 304 152 304 144 312 144 312 136 304 136 304 128"/>
    <polygon points="256 128 256 120 248 120 248 112 240 112 240 120 232 120 232 112 224 112 224 128 216 128 216 136 224 136 224 144 232 144 232 152 240 152 240 144 248 144 248 136 256 136 256 128"/>
    <polygon points="176 128 168 128 168 136 152 136 152 144 144 144 144 168 152 168 152 176 176 176 176 168 184 168 184 136 176 136 176 128"/>
    <polygon points="88 136 96 136 96 120 104 120 104 104 72 104 72 112 64 112 64 120 72 120 72 128 80 128 80 136 88 136"/>
    <polygon points="784 112 776 112 776 120 760 120 760 128 752 128 752 136 760 136 760 144 768 144 768 152 776 152 776 144 784 144 784 136 792 136 792 120 784 120 784 112"/>
    <polygon points="440 104 448 104 448 96 440 96 440 88 432 88 432 80 416 80 416 104 424 104 424 112 440 112 440 104"/>
    <polygon points="936 96 928 96 928 104 912 104 912 112 904 112 904 120 912 120 912 136 928 136 928 128 936 128 936 120 944 120 944 104 936 104 936 96"/>
    <polygon points="968 96 984 96 984 88 992 88 992 80 984 80 984 72 992 72 992 64 968 64 968 72 960 72 960 88 968 88 968 96"/>
    <polygon points="600 88 600 80 592 80 592 88 584 88 584 80 568 80 568 96 560 96 560 104 568 104 568 112 584 112 584 104 592 104 592 96 600 96 600 88"/>
    <polygon points="528 88 520 88 520 80 496 80 496 88 488 88 488 112 496 112 496 120 512 120 512 112 520 112 520 96 528 96 528 88"/>
    <polygon points="328 96 320 96 320 104 328 104 328 120 352 120 352 104 360 104 360 88 352 88 352 80 344 80 344 88 328 88 328 96"/>
    <polygon points="144 96 144 104 168 104 168 96 176 96 176 72 168 72 168 64 160 64 160 72 144 72 144 80 136 80 136 88 144 88 144 96"/>
    <polygon points="680 80 672 80 672 88 656 88 656 96 648 96 648 104 656 104 656 120 680 120 680 104 688 104 688 88 680 88 680 80"/>
    <polygon points="448 88 448 80 440 80 440 88 448 88"/>
    <polygon points="792 72 776 72 776 80 768 80 768 96 792 96 792 88 800 88 800 80 792 80 792 72"/>
    <polygon points="592 72 584 72 584 80 592 80 592 72"/>
    <polygon points="440 72 432 72 432 80 440 80 440 72"/>
    <polygon points="232 72 232 80 216 80 216 96 240 96 240 88 248 88 248 80 240 80 240 72 232 72"/>
    <polygon points="912 72 928 72 928 64 936 64 936 40 928 40 928 32 912 32 912 48 904 48 904 64 912 64 912 72"/>
    <polygon points="864 64 856 64 856 72 840 72 840 80 832 80 832 96 840 96 840 104 864 104 864 88 872 88 872 72 864 72 864 64"/>
    <polygon points="744 64 752 64 752 32 744 32 744 24 736 24 736 32 720 32 720 48 712 48 712 64 720 64 720 72 744 72 744 64"/>
    <polygon points="264 72 288 72 288 64 296 64 296 40 288 40 288 32 264 32 264 56 256 56 256 64 264 64 264 72"/>
    <polygon points="80 72 96 72 96 64 104 64 104 56 112 56 112 48 104 48 104 32 80 32 80 40 72 40 72 64 80 64 80 72"/>
    <polygon points="32 64 24 64 24 80 16 80 16 88 24 88 24 96 40 96 40 88 48 88 48 80 40 80 40 72 48 72 48 64 32 64"/>
    <polygon points="216 56 224 56 224 40 232 40 232 24 224 24 224 16 216 16 216 24 200 24 200 32 208 32 208 40 200 40 200 48 208 48 208 56 216 56"/>
    <polygon points="632 48 632 64 640 64 640 56 656 56 656 40 664 40 664 24 632 24 632 32 624 32 624 40 632 40 632 48"/>
    <polygon points="488 48 496 48 496 56 512 56 512 48 520 48 520 40 528 40 528 24 520 24 520 16 496 16 496 24 488 24 488 32 480 32 480 40 488 40 488 48"/>
    <polygon points="352 48 352 56 368 56 368 64 376 64 376 40 384 40 384 32 376 32 376 24 360 24 360 16 352 16 352 32 344 32 344 40 352 40 352 48"/>
    <polygon points="568 40 568 48 584 48 584 40 592 40 592 32 600 32 600 16 568 16 568 24 560 24 560 32 552 32 552 40 568 40"/>
    <polygon points="416 40 424 40 424 48 440 48 440 40 456 40 456 32 448 32 448 16 440 16 440 8 432 8 432 16 416 16 416 24 408 24 408 32 416 32 416 40"/>
    <polygon points="960 32 984 32 984 24 992 24 992 8 984 8 984 0 952 0 952 24 960 24 960 32"/>
    <polygon points="792 16 792 24 784 24 784 32 776 32 776 40 784 40 784 56 800 56 800 48 808 48 808 16 792 16"/>
    <polygon points="144 24 168 24 168 16 176 16 176 0 144 0 144 8 136 8 136 16 144 16 144 24"/>
    <polygon points="784 8 776 8 776 16 784 16 784 8"/>
    <polygon points="704 8 712 8 712 0 696 0 696 8 688 8 688 16 704 16 704 8"/>
    <polygon points="320 8 328 8 328 0 296 0 296 8 304 8 304 16 320 16 320 8"/>
    <polygon points="240 8 232 8 232 16 240 16 240 8"/>
    <polygon points="920 0 912 0 912 8 920 8 920 0"/>
    <polygon points="832 0 832 16 840 16 840 24 864 24 864 16 872 16 872 0"/>
    <polygon points="680 0 680 8 688 8 688 0 680 0"/>
    <polygon points="24 0 24 8 16 8 16 24 24 24 24 32 48 32 48 24 56 24 56 0"/>
  </g>
  <g fill="#CEB89B">
    <polygon points="80 176 88 176 88 168 80 168 80 176"/>
    <polygon points="904 168 912 168 912 160 904 160 904 168"/>
    <polygon points="96 160 88 160 88 168 112 168 112 160 96 160"/>
    <polygon points="960 160 968 160 968 152 960 152 960 160"/>
    <polygon points="912 152 912 160 928 160 928 152 912 152"/>
    <polygon points="528 152 536 152 536 144 528 144 528 152"/>
    <polygon points="440 152 448 152 448 144 440 144 440 152"/>
    <polygon points="8 144 8 152 24 152 24 144 8 144"/>
    <polygon points="968 136 968 152 976 152 976 144 984 144 984 136 968 136"/>
    <polygon points="824 144 832 144 832 136 824 136 824 144"/>
    <polygon points="696 144 704 144 704 136 696 136 696 144"/>
    <polygon points="536 136 536 144 552 144 552 136 536 136"/>
    <polygon points="448 136 448 144 464 144 464 136 448 136"/>
    <polygon points="144 144 152 144 152 136 144 136 144 144"/>
    <polygon points="24 136 24 144 40 144 40 136 24 136"/>
    <polygon points="832 128 832 136 848 136 848 128 832 128"/>
    <polygon points="608 136 616 136 616 128 608 128 608 136"/>
    <polygon points="360 136 368 136 368 128 360 128 360 136"/>
    <polygon points="152 128 152 136 168 136 168 128 152 128"/>
    <polygon points="752 128 760 128 760 120 752 120 752 128"/>
    <polygon points="704 120 704 128 720 128 720 120 704 120"/>
    <polygon points="616 120 616 128 632 128 632 120 616 120"/>
    <polygon points="368 120 368 128 384 128 384 120 368 120"/>
    <polygon points="216 128 224 128 224 120 216 120 216 128"/>
    <polygon points="760 112 760 120 776 120 776 112 760 112"/>
    <polygon points="232 120 240 120 240 112 232 112 232 120"/>
    <polygon points="904 112 912 112 912 104 904 104 904 112"/>
    <polygon points="64 112 72 112 72 104 64 104 64 112"/>
    <polygon points="912 96 912 104 928 104 928 96 912 96"/>
    <polygon points="88 104 96 104 96 96 72 96 72 104 88 104"/>
    <polygon points="968 96 968 88 960 88 960 96 968 96"/>
    <polygon points="648 96 656 96 656 88 648 88 648 96"/>
    <polygon points="480 96 488 96 488 88 480 88 480 96"/>
    <polygon points="320 96 328 96 328 88 320 88 320 96"/>
    <polygon points="760 88 768 88 768 80 760 80 760 88"/>
    <polygon points="656 80 656 88 672 88 672 80 656 80"/>
    <polygon points="560 88 568 88 568 80 560 80 560 88"/>
    <polygon points="488 88 496 88 496 80 488 80 488 88"/>
    <polygon points="408 88 408 96 416 96 416 80 408 80 408 88"/>
    <polygon points="328 80 328 88 344 88 344 80 328 80"/>
    <polygon points="208 88 216 88 216 80 208 80 208 88"/>
    <polygon points="952 80 952 88 960 88 960 72 952 72 952 80"/>
    <polygon points="832 80 840 80 840 72 832 72 832 80"/>
    <polygon points="768 80 776 80 776 72 768 72 768 80"/>
    <polygon points="568 72 568 80 584 80 584 72 568 72"/>
    <polygon points="496 72 496 80 512 80 512 72 496 72"/>
    <polygon points="416 72 416 80 432 80 432 72 416 72"/>
    <polygon points="232 72 216 72 216 80 232 80 232 72"/>
    <polygon points="144 72 136 72 136 80 144 80 144 72"/>
    <polygon points="8 80 16 80 16 72 8 72 8 80"/>
    <polygon points="960 72 968 72 968 64 960 64 960 72"/>
    <polygon points="840 64 840 72 856 72 856 64 840 64"/>
    <polygon points="160 72 160 64 144 64 144 72 160 72"/>
    <polygon points="16 72 24 72 24 64 16 64 16 72"/>
    <polygon points="968 56 968 64 984 64 984 56 968 56"/>
    <polygon points="24 56 24 64 40 64 40 56 24 56"/>
    <polygon points="904 48 896 48 896 56 904 56 904 48"/>
    <polygon points="256 56 264 56 264 48 256 48 256 56"/>
    <polygon points="912 40 912 32 904 32 904 48 912 48 912 40"/>
    <polygon points="712 48 720 48 720 40 712 40 712 48"/>
    <polygon points="72 40 64 40 64 48 72 48 72 40"/>
    <polygon points="256 40 264 40 264 32 256 32 256 40"/>
    <polygon points="208 32 200 32 200 40 208 40 208 32"/>
    <polygon points="80 32 72 32 72 40 80 40 80 32"/>
    <polygon points="920 24 912 24 912 32 920 32 920 24"/>
    <polygon points="776 32 784 32 784 24 776 24 776 32"/>
    <polygon points="720 24 720 32 736 32 736 24 720 24"/>
    <polygon points="624 32 632 32 632 24 624 24 624 32"/>
    <polygon points="480 32 488 32 488 24 480 24 480 32"/>
    <polygon points="376 32 384 32 384 24 376 24 376 32"/>
    <polygon points="344 32 352 32 352 24 344 24 344 32"/>
    <polygon points="272 24 264 24 264 32 288 32 288 24 272 24"/>
    <polygon points="96 24 88 24 88 32 96 32 96 24"/>
    <polygon points="784 24 792 24 792 16 784 16 784 24"/>
    <polygon points="656 24 656 16 640 16 640 24 656 24"/>
    <polygon points="560 24 568 24 568 16 560 16 560 24"/>
    <polygon points="488 24 496 24 496 16 488 16 488 24"/>
    <polygon points="408 24 416 24 416 16 408 16 408 24"/>
    <polygon points="368 16 360 16 360 24 368 24 368 16"/>
    <polygon points="216 24 216 16 200 16 200 24 216 24"/>
    <polygon points="776 8 768 8 768 16 776 16 776 8"/>
    <polygon points="576 8 568 8 568 16 592 16 592 8 576 8"/>
    <polygon points="496 8 496 16 512 16 512 8 496 8"/>
    <polygon points="416 8 416 16 432 16 432 8 416 8"/>
    <polygon points="232 8 224 8 224 16 232 16 232 8"/>
    <polygon points="984 0 984 8 992 8 992 0 984 0"/>
    <polygon points="144 0 136 0 136 8 144 8 144 0"/>
    <polygon points="24 0 16 0 16 8 24 8 24 0"/>
  </g>
  <g fill="#333F89">
    <polygon points="992 176 1000 176 1000 168 992 168 992 176"/>
    <polygon points="960 176 968 176 968 168 960 168 960 176"/>
    <polygon points="888 176 896 176 896 168 888 168 888 176"/>
    <polygon points="864 176 872 176 872 168 864 168 864 176"/>
    <polygon points="632 176 632 168 624 168 624 176 632 176"/>
    <polygon points="568 176 576 176 576 168 568 168 568 176"/>
    <polygon points="520 176 520 168 512 168 512 176 520 176"/>
    <polygon points="488 176 496 176 496 168 488 168 488 176"/>
    <polygon points="432 176 440 176 440 168 432 168 432 176"/>
    <polygon points="176 176 184 176 184 168 176 168 176 176"/>
    <polygon points="136 168 136 176 152 176 152 168 136 168"/>
    <polygon points="40 176 48 176 48 168 40 168 40 176"/>
    <polygon points="8 176 16 176 16 168 8 168 8 176"/>
    <polygon points="808 168 816 168 816 160 808 160 808 168"/>
    <polygon points="792 168 792 176 800 176 800 160 792 160 792 168"/>
    <polygon points="776 160 768 160 768 176 784 176 784 168 776 168 776 160"/>
    <polygon points="744 168 752 168 752 160 744 160 744 168"/>
    <polygon points="496 160 496 168 512 168 512 160 496 160"/>
    <polygon points="256 168 264 168 264 160 256 160 256 168"/>
    <polygon points="208 168 208 176 216 176 216 160 208 160 208 168"/>
    <polygon points="192 168 200 168 200 160 192 160 192 168"/>
    <polygon points="880 160 888 160 888 152 880 152 880 160"/>
    <polygon points="784 152 784 160 792 160 792 152 784 152"/>
    <polygon points="728 152 720 152 720 160 712 160 712 152 704 152 704 160 696 160 696 176 704 176 704 168 720 168 720 176 736 176 736 160 728 160 728 152"/>
    <polygon points="656 160 664 160 664 152 656 152 656 160"/>
    <polygon points="648 152 600 152 600 160 592 160 592 168 600 168 600 176 608 176 608 168 624 168 624 160 640 160 640 168 656 168 656 160 648 160 648 152"/>
    <polygon points="408 152 368 152 368 160 360 160 360 168 368 168 368 176 384 176 384 168 376 168 376 160 384 160 384 168 400 168 400 176 408 176 408 168 416 168 416 160 408 160 408 152"/>
    <polygon points="344 160 352 160 352 152 344 152 344 160"/>
    <polygon points="304 152 296 152 296 160 288 160 288 152 280 152 280 160 272 160 272 168 280 168 280 176 296 176 296 168 304 168 304 176 312 176 312 160 304 160 304 152"/>
    <polygon points="248 152 248 144 240 144 240 152 232 152 232 144 224 144 224 152 216 152 216 160 232 160 232 168 224 168 224 176 248 176 248 168 240 168 240 160 256 160 256 152 248 152"/>
    <polygon points="112 160 120 160 120 152 112 152 112 160"/>
    <polygon points="96 160 104 160 104 152 96 152 96 160"/>
    <polygon points="8 152 0 152 0 168 8 168 8 152"/>
    <polygon points="888 152 896 152 896 144 888 144 888 152"/>
    <polygon points="776 144 776 152 784 152 784 144 776 144"/>
    <polygon points="768 144 760 144 760 152 752 152 752 160 768 160 768 144"/>
    <polygon points="576 152 584 152 584 144 576 144 576 152"/>
    <polygon points="512 152 512 160 520 160 520 144 512 144 512 152"/>
    <polygon points="496 144 488 144 488 160 496 160 496 144"/>
    <polygon points="432 144 424 144 424 152 432 152 432 144"/>
    <polygon points="104 144 104 152 112 152 112 144 104 144"/>
    <polygon points="944 136 904 136 904 160 912 160 912 152 920 152 920 144 928 144 928 152 944 152 944 176 952 176 952 144 944 144 944 136"/>
    <polygon points="880 136 872 136 872 144 880 144 880 136"/>
    <polygon points="808 144 816 144 816 136 808 136 808 144"/>
    <polygon points="672 144 672 152 680 152 680 136 672 136 672 144"/>
    <polygon points="520 144 528 144 528 136 520 136 520 144"/>
    <polygon points="480 136 480 144 488 144 488 136 480 136"/>
    <polygon points="192 144 200 144 200 136 192 136 192 144"/>
    <polygon points="136 136 128 136 128 144 136 144 136 136"/>
    <polygon points="104 144 104 136 64 136 64 144 56 144 56 176 64 176 64 168 72 168 72 160 64 160 64 152 80 152 80 144 88 144 88 152 96 152 96 144 104 144"/>
    <polygon points="984 136 992 136 992 128 984 128 984 136"/>
    <polygon points="888 136 896 136 896 128 888 128 888 136"/>
    <polygon points="800 128 800 136 808 136 808 128 800 128"/>
    <polygon points="696 128 696 120 688 120 688 128 680 128 680 136 696 136 696 128"/>
    <polygon points="576 136 584 136 584 128 576 128 576 136"/>
    <polygon points="424 136 432 136 432 128 424 128 424 136"/>
    <polygon points="208 128 200 128 200 136 208 136 208 128"/>
    <polygon points="112 136 120 136 120 128 112 128 112 136"/>
    <polygon points="16 136 24 136 24 128 16 128 16 136"/>
    <polygon points="0 136 8 136 8 128 0 128 0 136"/>
    <polygon points="976 120 976 128 984 128 984 120 976 120"/>
    <polygon points="872 128 880 128 880 112 872 112 872 128"/>
    <polygon points="680 128 680 120 664 120 664 128 656 128 656 136 672 136 672 128 680 128"/>
    <polygon points="592 128 592 144 600 144 600 104 584 104 584 112 560 112 560 136 568 136 568 120 592 120 592 128"/>
    <polygon points="536 120 528 120 528 104 520 104 520 112 512 112 512 120 496 120 496 112 488 112 488 104 480 104 480 120 472 120 472 128 464 128 464 136 480 136 480 128 488 128 488 136 496 136 496 144 512 144 512 136 520 136 520 128 528 128 528 136 544 136 544 128 536 128 536 120"/>
    <polygon points="368 128 368 120 360 120 360 128 368 128"/>
    <polygon points="336 120 328 120 328 112 320 112 320 120 312 120 312 128 320 128 320 152 336 152 336 136 344 136 344 144 352 144 352 120 336 120"/>
    <polygon points="56 120 56 112 48 112 48 104 40 104 40 96 24 96 24 104 16 104 16 96 8 96 8 104 0 104 0 112 8 112 8 128 16 128 16 120 24 120 24 112 32 112 32 120 40 120 40 144 48 144 48 128 56 128 56 120"/>
    <polygon points="24 128 32 128 32 120 24 120 24 128"/>
    <polygon points="824 120 832 120 832 112 824 112 824 120"/>
    <polygon points="744 120 752 120 752 104 744 104 744 120"/>
    <polygon points="688 112 680 112 680 120 688 120 688 112"/>
    <polygon points="656 112 648 112 648 120 640 120 640 128 656 128 656 112"/>
    <polygon points="432 112 424 112 424 104 408 104 408 136 416 136 416 128 424 128 424 120 432 120 432 128 440 128 440 136 448 136 448 112 432 112"/>
    <polygon points="360 112 352 112 352 120 360 120 360 112"/>
    <polygon points="208 112 216 112 216 104 208 104 208 96 200 96 200 120 208 120 208 112"/>
    <polygon points="176 120 184 120 184 112 176 112 176 120"/>
    <polygon points="128 120 128 128 136 128 136 112 128 112 128 120"/>
    <polygon points="888 112 888 120 896 120 896 104 888 104 888 112"/>
    <polygon points="856 104 848 104 848 112 840 112 840 128 848 128 848 120 864 120 864 112 856 112 856 104"/>
    <polygon points="832 104 832 112 840 112 840 104 832 104"/>
    <polygon points="624 112 632 112 632 104 624 104 624 112"/>
    <polygon points="608 112 616 112 616 104 608 104 608 112"/>
    <polygon points="544 112 552 112 552 104 544 104 544 112"/>
    <polygon points="464 104 456 104 456 112 464 112 464 104"/>
    <polygon points="392 112 400 112 400 104 392 104 392 112"/>
    <polygon points="376 112 384 112 384 104 376 104 376 112"/>
    <polygon points="256 112 256 120 264 120 264 104 256 104 256 112"/>
    <polygon points="240 112 248 112 248 104 240 104 240 112"/>
    <polygon points="160 104 152 104 152 112 144 112 144 120 160 120 160 128 168 128 168 112 160 112 160 104"/>
    <polygon points="112 112 112 120 120 120 120 104 112 104 112 112"/>
    <polygon points="992 104 984 104 984 96 960 96 960 104 952 104 952 128 960 128 960 144 968 144 968 120 976 120 976 112 984 112 984 120 992 120 992 128 1000 128 1000 96 992 96 992 104"/>
    <polygon points="904 96 912 96 912 88 920 88 920 96 936 96 936 80 928 80 928 72 904 72 904 80 888 80 888 88 896 88 896 104 904 104 904 96"/>
    <polygon points="880 96 880 104 888 104 888 96 880 96"/>
    <polygon points="784 96 760 96 760 112 784 112 784 120 792 120 792 112 800 112 800 120 808 120 808 96 800 96 800 104 792 104 792 96 784 96"/>
    <polygon points="744 96 744 72 720 72 720 88 728 88 728 96 720 96 720 88 712 88 712 120 720 120 720 112 728 112 728 120 736 120 736 104 744 104 744 96"/>
    <polygon points="536 96 536 104 544 104 544 96 536 96"/>
    <polygon points="472 96 464 96 464 104 472 104 472 96"/>
    <polygon points="312 104 320 104 320 88 312 88 312 104"/>
    <polygon points="224 104 232 104 232 96 224 96 224 104"/>
    <polygon points="136 104 144 104 144 88 128 88 128 96 136 96 136 104"/>
    <polygon points="128 96 120 96 120 104 128 104 128 96"/>
    <polygon points="992 88 984 88 984 96 992 96 992 88"/>
    <polygon points="944 96 952 96 952 88 944 88 944 96"/>
    <polygon points="872 88 864 88 864 112 872 112 872 96 880 96 880 88 872 88"/>
    <polygon points="824 96 832 96 832 88 824 88 824 96"/>
    <polygon points="688 96 688 104 696 104 696 88 688 88 688 96"/>
    <polygon points="616 88 608 88 608 96 616 96 616 88"/>
    <polygon points="400 88 392 88 392 96 400 96 400 88"/>
    <polygon points="288 96 280 96 280 88 288 88 288 72 272 72 272 120 280 120 280 112 288 112 288 120 296 120 296 88 288 88 288 96"/>
    <polygon points="176 96 184 96 184 88 176 88 176 96"/>
    <polygon points="112 88 104 88 104 72 64 72 64 80 72 80 72 96 88 96 88 80 96 80 96 96 104 96 104 104 112 104 112 88"/>
    <polygon points="56 96 64 96 64 88 56 88 56 96"/>
    <polygon points="0 88 0 96 8 96 8 88 0 88"/>
    <polygon points="704 80 696 80 696 88 712 88 712 80 704 80"/>
    <polygon points="528 88 536 88 536 80 528 80 528 88"/>
    <polygon points="480 88 480 80 472 80 472 88 480 88"/>
    <polygon points="304 80 296 80 296 88 312 88 312 80 304 80"/>
    <polygon points="248 88 256 88 256 72 248 72 248 88"/>
    <polygon points="120 80 112 80 112 88 120 88 120 80"/>
    <polygon points="944 72 936 72 936 80 944 80 944 72"/>
    <polygon points="800 72 800 56 776 56 776 48 768 48 768 64 776 64 776 72 792 72 792 80 800 80 800 88 808 88 808 80 816 80 816 72 800 72"/>
    <polygon points="752 80 752 88 760 88 760 72 752 72 752 80"/>
    <polygon points="672 80 672 72 664 72 664 80 672 80"/>
    <polygon points="648 80 656 80 656 72 648 72 648 80"/>
    <polygon points="568 80 568 64 576 64 576 72 584 72 584 56 600 56 600 48 592 48 592 40 584 40 584 48 568 48 568 40 560 40 560 48 552 48 552 80 568 80"/>
    <polygon points="544 80 544 72 536 72 536 80 544 80"/>
    <polygon points="464 80 472 80 472 72 464 72 464 80"/>
    <polygon points="456 72 456 48 448 48 448 40 440 40 440 48 424 48 424 40 416 40 416 48 408 48 408 56 416 56 416 64 424 64 424 72 432 72 432 64 440 64 440 80 456 80 456 72"/>
    <polygon points="200 72 192 72 192 80 200 80 200 72"/>
    <polygon points="888 72 896 72 896 64 888 64 888 72"/>
    <polygon points="824 72 840 72 840 56 848 56 848 64 864 64 864 72 880 72 880 40 872 40 872 32 856 32 856 24 848 24 848 32 824 32 824 40 832 40 832 48 824 48 824 56 816 56 816 64 824 64 824 72"/>
    <polygon points="760 72 768 72 768 64 760 64 760 72"/>
    <polygon points="688 72 696 72 696 64 688 64 688 72"/>
    <polygon points="680 64 672 64 672 72 680 72 680 64"/>
    <polygon points="592 64 592 72 600 72 600 80 608 80 608 56 600 56 600 64 592 64"/>
    <polygon points="344 72 344 80 376 80 376 88 360 88 360 96 384 96 384 64 368 64 368 72 360 72 360 64 368 64 368 56 344 56 344 72"/>
    <polygon points="328 72 336 72 336 64 328 64 328 72"/>
    <polygon points="320 64 312 64 312 72 320 72 320 64"/>
    <polygon points="240 64 240 72 248 72 248 64 240 64"/>
    <polygon points="112 72 120 72 120 64 112 64 112 72"/>
    <polygon points="704 64 712 64 712 56 696 56 696 64 704 64"/>
    <polygon points="688 56 680 56 680 64 688 64 688 56"/>
    <polygon points="664 56 640 56 640 64 624 64 624 96 640 96 640 88 632 88 632 80 640 80 640 72 648 72 648 64 656 64 656 72 664 72 664 56"/>
    <polygon points="616 56 616 64 624 64 624 56 616 56"/>
    <polygon points="408 56 400 56 400 80 408 80 408 72 416 72 416 64 408 64 408 56"/>
    <polygon points="392 56 384 56 384 64 392 64 392 56"/>
    <polygon points="304 56 296 56 296 64 304 64 304 56"/>
    <polygon points="192 56 176 56 176 40 168 40 168 64 192 64 192 56"/>
    <polygon points="16 64 16 56 8 56 8 64 16 64"/>
    <polygon points="696 48 688 48 688 56 696 56 696 48"/>
    <polygon points="672 48 664 48 664 56 672 56 672 48"/>
    <polygon points="496 48 480 48 480 56 472 56 472 72 488 72 488 64 520 64 520 72 536 72 536 56 528 56 528 48 512 48 512 56 496 56 496 48"/>
    <polygon points="336 48 336 56 344 56 344 48 336 48"/>
    <polygon points="312 56 320 56 320 48 312 48 312 56"/>
    <polygon points="240 48 232 48 232 56 216 56 216 64 208 64 208 80 216 80 216 72 224 72 224 64 240 64 240 48"/>
    <polygon points="32 56 48 56 48 64 56 64 56 40 40 40 40 32 32 32 32 40 16 40 16 56 32 56"/>
    <polygon points="8 48 0 48 0 56 8 56 8 48"/>
    <polygon points="992 40 992 32 984 32 984 40 976 40 976 48 984 48 984 56 992 56 992 64 1000 64 1000 48 992 48 992 40"/>
    <polygon points="544 48 544 40 536 40 536 48 544 48"/>
    <polygon points="472 40 464 40 464 48 472 48 472 40"/>
    <polygon points="320 48 328 48 328 40 320 40 320 48"/>
    <polygon points="968 32 960 32 960 40 952 40 952 64 960 64 960 56 968 56 968 40 976 40 976 32 968 32"/>
    <polygon points="808 40 816 40 816 32 808 32 808 40"/>
    <polygon points="696 40 696 48 704 48 704 32 696 32 696 24 712 24 712 32 720 32 720 24 744 24 744 32 752 32 752 16 744 16 744 8 736 8 736 16 712 16 712 8 704 8 704 16 680 16 680 24 688 24 688 32 680 32 680 24 672 24 672 40 680 40 680 48 688 48 688 40 696 40"/>
    <polygon points="608 32 608 40 616 40 616 48 624 48 624 32 608 32"/>
    <polygon points="528 32 528 40 536 40 536 32 528 32"/>
    <polygon points="480 32 472 32 472 40 480 40 480 32"/>
    <polygon points="384 40 384 48 392 48 392 40 400 40 400 32 384 32 384 40"/>
    <polygon points="328 40 336 40 336 24 328 24 328 40"/>
    <polygon points="312 32 304 32 304 48 312 48 312 32"/>
    <polygon points="200 32 192 32 192 40 200 40 200 32"/>
    <polygon points="184 32 176 32 176 40 184 40 184 32"/>
    <polygon points="160 32 160 24 152 24 152 32 136 32 136 40 128 40 128 72 144 72 144 64 136 64 136 48 144 48 144 40 152 40 152 48 144 48 144 56 160 56 160 40 168 40 168 32 160 32"/>
    <polygon points="8 32 0 32 0 40 8 40 8 32"/>
    <polygon points="928 32 928 24 920 24 920 32 928 32"/>
    <polygon points="888 32 904 32 904 16 896 16 896 24 880 24 880 32 888 32"/>
    <polygon points="944 24 944 16 928 16 928 24 944 24"/>
    <polygon points="912 24 920 24 920 8 912 8 912 0 896 0 896 8 904 8 904 16 912 16 912 24"/>
    <polygon points="880 16 872 16 872 24 880 24 880 16"/>
    <polygon points="816 24 816 16 808 16 808 24 816 24"/>
    <polygon points="768 16 760 16 760 24 784 24 784 16 768 16"/>
    <polygon points="640 24 640 16 656 16 656 24 664 24 664 8 656 8 656 0 648 0 648 8 632 8 632 16 624 16 624 24 640 24"/>
    <polygon points="616 16 608 16 608 24 616 24 616 16"/>
    <polygon points="520 24 544 24 544 32 552 32 552 24 560 24 560 16 568 16 568 0 552 0 552 8 544 8 544 16 528 16 528 8 512 8 512 16 520 16 520 24"/>
    <polygon points="448 24 456 24 456 32 464 32 464 24 488 24 488 16 496 16 496 8 480 8 480 16 464 16 464 8 456 8 456 0 440 0 440 16 448 16 448 24"/>
    <polygon points="400 16 392 16 392 24 400 24 400 16"/>
    <polygon points="352 16 368 16 368 24 384 24 384 16 376 16 376 8 360 8 360 0 352 0 352 8 344 8 344 24 352 24 352 16"/>
    <polygon points="280 24 288 24 288 32 296 32 296 24 312 24 312 32 320 32 320 24 328 24 328 16 304 16 304 8 296 8 296 16 272 16 272 8 264 8 264 16 256 16 256 32 264 32 264 24 280 24"/>
    <polygon points="232 24 248 24 248 16 224 16 224 24 232 24"/>
    <polygon points="200 16 192 16 192 24 200 24 200 16"/>
    <polygon points="136 16 128 16 128 24 136 24 136 16"/>
    <polygon points="80 24 80 32 88 32 88 24 96 24 96 16 104 16 104 32 128 32 128 24 112 24 112 8 120 8 120 0 64 0 64 8 80 8 80 16 64 16 64 24 80 24"/>
    <polygon points="8 16 0 16 0 24 8 24 8 16"/>
    <polygon points="216 16 224 16 224 8 256 8 256 0 192 0 192 8 200 8 200 16 216 16"/>
    <polygon points="16 8 16 0 0 0 0 8 8 8 8 16 16 16 16 8"/>
    <polygon points="992 0 992 16 1000 16 1000 0 992 0"/>
    <polygon points="936 0 928 0 928 8 936 8 936 0"/>
    <polygon points="880 0 872 0 872 8 880 8 880 0"/>
    <polygon points="832 0 824 0 824 8 832 8 832 0"/>
    <polygon points="768 8 784 8 784 16 808 16 808 8 816 8 816 0 752 0 752 8 768 8"/>
    <polygon points="728 0 720 0 720 8 736 8 736 0 728 0"/>
    <polygon points="624 0 624 8 632 8 632 0 624 0"/>
    <polygon points="592 8 616 8 616 0 576 0 576 8 592 8"/>
    <polygon points="544 8 544 0 528 0 528 8 544 8"/>
    <polygon points="480 8 480 0 464 0 464 8 480 8"/>
    <polygon points="408 8 432 8 432 0 392 0 392 8 408 8"/>
    <polygon points="384 0 376 0 376 8 384 8 384 0"/>
    <polygon points="288 8 288 0 272 0 272 8 288 8"/>
    <polygon points="184 0 176 0 176 8 184 8 184 0"/>
    <polygon points="136 0 128 0 128 8 136 8 136 0"/>
  </g>
  <g fill="#21368B">
    <path d="M42.22 295.69h10.15c5.55 0 7.94 2.02 7.94 6.68 0 2.9-1.29 4.63-4.22 5.7l3.34 5.45h2.27l-.47 3.88h-5.55l-4.88-8.54h-1.42v4.66h2.24l-.47 3.88h-9.11v-3.88h1.99v-13.96h-2.27l.46-3.87zm7.15 9.48h2.27c2.14 0 3.09-.85 3.09-2.8s-.95-2.8-3.12-2.8h-2.24v5.6zM71.08 301.83c5.07 0 7.4 2.46 7.4 7.75v1.58h-9.77c0 2.08 1.1 2.99 3.69 2.99 1.64 0 3.62-.38 5.77-1.17l-.69 3.75c-1.8.66-3.72.98-5.86.98-5.77 0-8.22-2.24-8.22-7.78-.01-5.45 2.38-8.1 7.68-8.1zm3.81-9.51 2.43 3.84-8.57 4.38-1.76-2.65 7.9-5.57zm-1.48 15.59c-.06-1.67-.88-2.55-2.36-2.55-1.54 0-2.21.95-2.33 2.55h4.69zM89.16 301.83c1.98 0 3.91.31 5.48.79v5.64h-4.22v-2.74a6.44 6.44 0 0 0-1.07-.09c-1.8 0-2.9 1.35-2.9 4.35 0 3.18 1.26 4.35 3.75 4.35 1.54 0 3.37-.47 4.69-1.13l-.25 3.78c-1.51.63-3.59.95-5.61.95-5.33 0-7.91-2.21-7.91-7.85.01-5.62 2.56-8.05 8.04-8.05zM113.48 309.77c0 5.58-2.36 7.94-8 7.94s-8-2.36-8-7.94 2.36-7.94 8-7.94 8 2.36 8 7.94zm-10.68 0c0 3.09.79 4.38 2.68 4.38s2.68-1.29 2.68-4.38-.79-4.38-2.68-4.38-2.68 1.29-2.68 4.38zM122.4 303.41a7.17 7.17 0 0 1 4.51-1.58c2.14 0 3.66.6 4.51 1.83a7.4 7.4 0 0 1 4.85-1.83c3.69 0 5.45 1.73 5.45 5.36v6.33h1.83l-.47 3.88h-6.59v-9.74c0-1.01-.63-1.48-1.99-1.48-.72 0-1.42.19-2.21.6l.03.41v6.33h1.83l-.47 3.88h-6.59v-9.74c0-1.01-.63-1.48-1.95-1.48a4.4 4.4 0 0 0-2.14.6v6.74h1.83l-.47 3.88h-8.26v-3.88h1.67v-7.47h-2.02l.54-3.88h5.17c.37.35.69.76.94 1.24zM145.77 302.18h5.17c.47.41.79.82 1.01 1.26a7.37 7.37 0 0 1 4.66-1.61c4.32 0 6.27 2.49 6.27 7.88 0 5.48-2.05 8-6.52 8a7.52 7.52 0 0 1-3.88-1.01v3.12h2.55l-.47 3.88h-8.98v-3.88h1.67v-13.77h-2.02l.54-3.87zm6.72 11.18c.66.5 1.39.76 2.4.76 1.83 0 2.68-1.26 2.68-3.97 0-2.96-.85-4.32-2.68-4.32-.85 0-1.61.22-2.4.66v6.87zM173.22 301.83c5.07 0 7.4 2.46 7.4 7.75v1.58h-9.77c0 2.08 1.1 2.99 3.69 2.99 1.64 0 3.62-.38 5.77-1.17l-.69 3.75c-1.8.66-3.72.98-5.86.98-5.77 0-8.22-2.24-8.22-7.78-.01-5.45 2.38-8.1 7.68-8.1zm2.33 6.08c-.06-1.67-.88-2.55-2.36-2.55-1.54 0-2.21.95-2.33 2.55h4.69zM189.57 303.5a8.06 8.06 0 0 1 4.98-1.67c3.62 0 5.36 1.73 5.36 5.36v6.33h1.83l-.47 3.88h-6.59v-9.45c0-1.2-.66-1.76-2.02-1.76-.88 0-1.73.22-2.52.63v6.71h1.83l-.47 3.88h-8.26v-3.88h1.67v-7.47h-2.02l.54-3.88h5.17a4 4 0 0 1 .97 1.32zM210.55 301.83c2.21 0 4.19.35 5.7.85v4.29h-4.19v-1.42a5.65 5.65 0 0 0-1.39-.16c-1.1 0-1.67.38-1.67.98s.35.85 1.39 1.1l2.99.72c2.52.6 3.56 2.02 3.56 4.47 0 3.47-2.27 5.04-7.18 5.04-1.99 0-3.72-.19-5.55-.63v-4.6h4.19v1.61c.31.03.69.06 1.26.06 1.61 0 2.36-.35 2.36-1.1 0-.57-.38-.91-1.54-1.2l-2.93-.72c-2.4-.6-3.5-1.92-3.5-4.29.01-3.27 2.24-5 6.5-5zM227.12 301.83c5.07 0 7.4 2.46 7.4 7.75v1.58h-9.77c0 2.08 1.1 2.99 3.69 2.99 1.64 0 3.62-.38 5.77-1.17l-.69 3.75c-1.8.66-3.72.98-5.86.98-5.77 0-8.22-2.24-8.22-7.78-.01-5.45 2.39-8.1 7.68-8.1zm2.33 6.08c-.06-1.67-.88-2.55-2.36-2.55-1.54 0-2.21.95-2.33 2.55h4.69zM243.28 301.83c2.21 0 4.19.35 5.7.85v4.29h-4.19v-1.42a5.65 5.65 0 0 0-1.39-.16c-1.1 0-1.67.38-1.67.98s.35.85 1.39 1.1l2.99.72c2.52.6 3.56 2.02 3.56 4.47 0 3.47-2.27 5.04-7.18 5.04-1.99 0-3.72-.19-5.55-.63v-4.6h4.19v1.61c.31.03.69.06 1.26.06 1.61 0 2.36-.35 2.36-1.1 0-.57-.38-.91-1.54-1.2l-2.93-.72c-2.4-.6-3.5-1.92-3.5-4.29.01-3.27 2.25-5 6.5-5z"/>
  </g>
  <path fill="#21368B" d="M158.5 252.83v.95c.07 2.71.15 5.43.2 8.14a5 5 0 0 1-.13 1.34 2.43 2.43 0 0 1-2.46 1.89 2.57 2.57 0 0 1-2.38-2.17 7.85 7.85 0 0 1-.08-1.08l-.02-14.32c0-.27 0-.55.05-.82.24-1.29 1.06-2.03 2.34-2.12.41-.03.83-.02 1.25.02 1.04.08 1.65.73 2.14 1.6l6.04 10.63c.06.11.12.22.28.32v-.39c-.06-3.02-.12-6.05-.16-9.08a5 5 0 0 1 .13-1.34 2.2 2.2 0 0 1 2.15-1.69c1.22-.02 2.19.6 2.54 1.7.14.43.22.91.22 1.36 0 4.72 0 9.44-.02 14.17 0 .34-.01.7-.08 1.04-.33 1.71-1.48 2.19-2.87 2.15a3.27 3.27 0 0 1-2.53-1.39 23.04 23.04 0 0 1-1.86-2.73c-1.51-2.59-2.97-5.23-4.45-7.84a7.45 7.45 0 0 1-.23-.37l-.07.03M114.05 253.37c1.37-.04 2.73-.04 4.07-.14.69-.06 1.2-.52 1.42-1.23.44-1.35-.32-2.62-1.7-2.73-1.23-.1-2.47-.06-3.71-.08-.02 0-.05.03-.08.06v4.12zm7.3 1.78.39.07a3.06 3.06 0 0 1 2.64 2.39c.27.98.4 1.99.61 2.99.11.46.26.92.43 1.36.39.98.2 1.84-.63 2.47-1.24.96-3.36 1.15-4.61-.94a6.4 6.4 0 0 1-.7-2.4c-.06-.42-.11-.84-.22-1.26-.31-1.43-1.15-2.13-2.6-2.18-.77-.03-1.54 0-2.31-.02-.3-.01-.36.11-.36.38 0 1.42.01 2.84-.03 4.26-.01.43-.12.88-.29 1.27a2.63 2.63 0 0 1-2.9 1.47 2.9 2.9 0 0 1-2.22-2.38 6.73 6.73 0 0 1-.07-1l.04-13.62c0-.45.03-.93.14-1.37.31-1.1 1.23-1.75 2.5-1.75 2.76 0 5.49.01 8.24.08 1.18.03 2.33.3 3.34.97a4.84 4.84 0 0 1 2.23 3.93c.07.96-.05 1.91-.48 2.79a4.07 4.07 0 0 1-2.9 2.34 2.5 2.5 0 0 0-.26.07v.08zM186.85 257.41c-.78 0-1.51.05-2.24-.02a3.84 3.84 0 0 1-1.45-.37c-.79-.4-1.14-1.37-.92-2.26.19-.82.92-1.49 1.77-1.5 2.05-.03 4.1-.03 6.15.01.92.02 1.56.62 1.64 1.61.19 2.69-.29 5.23-1.97 7.41a7.25 7.25 0 0 1-4.48 2.69c-2.03.42-4.07.53-6.06-.17a8.9 8.9 0 0 1-5.87-6.49c-.7-2.71-.65-5.44.38-8.07a8.75 8.75 0 0 1 7.42-5.83 11.8 11.8 0 0 1 5.97.62 7.18 7.18 0 0 1 3.35 2.51c.56.8.65 1.66.17 2.51a2.19 2.19 0 0 1-2.3 1.17 4 4 0 0 1-1.29-.49c-.3-.15-.55-.41-.8-.65-2.69-2.56-6.51-1.52-7.54 2.09a8.33 8.33 0 0 0 .46 6.22c1.57 3.15 5.29 2.54 6.8.92.46-.52.72-1.14.81-1.91M134.51 258.76c.25-1.08.44-2.04.69-2.99.81-2.95 1.65-5.88 2.48-8.82.07-.26.17-.51.28-.76.48-1.03 1.37-1.56 2.4-1.46 1.21.12 2.14.84 2.37 1.96.1.53.11 1.15-.05 1.67-.59 1.92-1.27 3.81-1.93 5.7-1.01 2.89-2.03 5.77-3.06 8.66l-.03.11c-.61 1.69-1.3 2.18-3.07 2.18-.35 0-.7-.02-1.06-.05a2.27 2.27 0 0 1-1.96-1.56c-.51-1.35-.98-2.71-1.45-4.07l-3.61-10.64a3.48 3.48 0 0 1-.2-2.04c.27-1.13 1.09-1.85 2.35-1.97 1.05-.1 2 .25 2.48 1.33.38.82.62 1.71.86 2.59.68 2.51 1.33 5.02 1.97 7.54.19.74.29 1.5.43 2.24l.11.38"/>
  <path fill="#EE3135" d="m165.76 271.17-.87.53-18.86 11.55c-.21.13-.37.18-.61.03l-19.48-12.01c-.09-.06-.17-.13-.35-.24h.41l8.92.01c.21 0 .45.07.63.19 3.22 2.02 6.43 4.05 9.64 6.09.37.24.62.25 1 .01 3.2-2.03 6.41-4.04 9.63-6.04.16-.1.37-.18.56-.18H165.74l.02.06M165.79 238.95h-.47l-8.73.01c-.33 0-.61-.09-.89-.26-3.16-2-6.33-3.99-9.48-6-.35-.22-.58-.23-.94-.01-3.22 2.04-6.46 4.07-9.69 6.09a1 1 0 0 1-.45.17h-9.54l.29-.21c6.52-3.98 13.04-7.97 19.55-11.97.23-.14.4-.13.62.01l19.36 11.92.37.25"/>
  <path fill="#21368B" d="M144.47 254.82c0-2.3-.01-4.6.01-6.91 0-.39.02-.78.1-1.15.28-1.3 1.29-2.17 2.5-2.2 1.32-.02 2.38.81 2.73 2.18.1.39.16.79.16 1.19v14.03c0 1.45-.68 2.53-1.8 2.9-1.87.63-3.68-.75-3.7-2.83v-7.21M99.61 254.9v-6.98c.01-.42.05-.86.13-1.27a2.63 2.63 0 0 1 2.19-2.09 2.55 2.55 0 0 1 2.71 1.43c.24.52.44 1.13.44 1.7.03 4.68.01 9.36 0 14.04 0 .98-.2 1.9-.98 2.59-1.54 1.38-4 .52-4.42-1.56-.06-.3-.08-.62-.08-.92v-6.95h.01z"/>
  <g fill="#21368B">
    <path d="M762.56 297.81h10.15c5.54 0 7.94 2.02 7.94 6.68 0 2.9-1.29 4.63-4.22 5.7l3.34 5.45h2.27l-.47 3.88h-5.54l-4.88-8.54h-1.42v4.66h2.24l-.47 3.88h-9.11v-3.88h1.99v-13.96h-2.27l.45-3.87zm7.15 9.49h2.27c2.14 0 3.09-.85 3.09-2.8s-.95-2.8-3.12-2.8h-2.24v5.6zM791.42 303.96c5.07 0 7.41 2.46 7.41 7.75v1.58h-9.77c0 2.08 1.1 2.99 3.69 2.99 1.64 0 3.62-.38 5.77-1.17l-.69 3.75c-1.8.66-3.72.98-5.86.98-5.77 0-8.22-2.24-8.22-7.78-.02-5.46 2.37-8.1 7.67-8.1zm3.81-9.52 2.43 3.84-8.57 4.38-1.76-2.65 7.9-5.57zm-1.48 15.6c-.06-1.67-.88-2.55-2.36-2.55-1.54 0-2.21.95-2.33 2.55h4.69zM809.5 303.96c1.98 0 3.91.31 5.48.79v5.64h-4.22v-2.74a6.44 6.44 0 0 0-1.07-.09c-1.8 0-2.9 1.35-2.9 4.35 0 3.18 1.26 4.35 3.75 4.35 1.54 0 3.37-.47 4.7-1.13l-.25 3.78c-1.51.63-3.59.95-5.61.95-5.33 0-7.91-2.21-7.91-7.85 0-5.63 2.55-8.05 8.03-8.05zM833.82 311.9c0 5.58-2.36 7.94-8 7.94s-8-2.36-8-7.94 2.36-7.94 8-7.94 8 2.36 8 7.94zm-10.68 0c0 3.09.79 4.38 2.68 4.38s2.68-1.29 2.68-4.38-.79-4.38-2.68-4.38-2.68 1.29-2.68 4.38zM842.74 305.53a7.17 7.17 0 0 1 4.51-1.58c2.14 0 3.66.6 4.51 1.83a7.4 7.4 0 0 1 4.85-1.83c3.69 0 5.45 1.73 5.45 5.36v6.33h1.83l-.47 3.88h-6.59v-9.74c0-1.01-.63-1.48-1.99-1.48-.72 0-1.42.19-2.21.6l.03.41v6.33h1.83l-.47 3.88h-6.59v-9.74c0-1.01-.63-1.48-1.95-1.48a4.4 4.4 0 0 0-2.14.6v6.74h1.83l-.47 3.88h-8.26v-3.88h1.67v-7.47h-2.02l.54-3.88h5.17c.37.36.69.77.94 1.24zM866.12 304.3h5.17c.47.41.79.82 1.01 1.26a7.37 7.37 0 0 1 4.66-1.61c4.32 0 6.27 2.49 6.27 7.88 0 5.48-2.05 8-6.52 8a7.52 7.52 0 0 1-3.88-1.01v3.12h2.55l-.47 3.88h-8.98v-3.88h1.67v-13.77h-2.02l.54-3.87zm6.71 11.19c.66.5 1.39.76 2.4.76 1.83 0 2.68-1.26 2.68-3.97 0-2.96-.85-4.32-2.68-4.32-.85 0-1.61.22-2.4.66v6.87zM893.56 303.96c5.07 0 7.4 2.46 7.4 7.75v1.58h-9.77c0 2.08 1.1 2.99 3.69 2.99 1.64 0 3.62-.38 5.77-1.17l-.69 3.75c-1.8.66-3.72.98-5.86.98-5.77 0-8.22-2.24-8.22-7.78-.01-5.46 2.38-8.1 7.68-8.1zm2.33 6.08c-.06-1.67-.88-2.55-2.36-2.55-1.54 0-2.21.95-2.33 2.55h4.69zM909.91 305.63a8.06 8.06 0 0 1 4.98-1.67c3.62 0 5.36 1.73 5.36 5.36v6.33h1.83l-.47 3.88h-6.59v-9.45c0-1.2-.66-1.76-2.02-1.76-.88 0-1.73.22-2.52.63v6.71h1.83l-.47 3.88h-8.26v-3.88h1.67v-7.47h-2.02l.54-3.88h5.17c.4.34.72.78.97 1.32zM930.89 303.96c2.21 0 4.19.35 5.7.85v4.29h-4.19v-1.42a5.65 5.65 0 0 0-1.39-.16c-1.1 0-1.67.38-1.67.98s.35.85 1.39 1.1l2.99.72c2.52.6 3.56 2.02 3.56 4.47 0 3.47-2.27 5.04-7.18 5.04-1.98 0-3.72-.19-5.54-.63v-4.6h4.19v1.61c.32.03.69.06 1.26.06 1.61 0 2.36-.35 2.36-1.1 0-.57-.38-.91-1.54-1.2l-2.93-.72c-2.39-.6-3.5-1.92-3.5-4.29 0-3.27 2.24-5 6.49-5zM947.46 303.96c5.07 0 7.41 2.46 7.41 7.75v1.58h-9.77c0 2.08 1.1 2.99 3.69 2.99 1.64 0 3.62-.38 5.77-1.17l-.69 3.75c-1.8.66-3.72.98-5.86.98-5.77 0-8.22-2.24-8.22-7.78-.02-5.46 2.38-8.1 7.67-8.1zm2.33 6.08c-.06-1.67-.88-2.55-2.36-2.55-1.54 0-2.21.95-2.33 2.55h4.69zM963.62 303.96c2.21 0 4.19.35 5.7.85v4.29h-4.19v-1.42a5.65 5.65 0 0 0-1.39-.16c-1.1 0-1.67.38-1.67.98s.35.85 1.39 1.1l2.99.72c2.52.6 3.56 2.02 3.56 4.47 0 3.47-2.27 5.04-7.18 5.04-1.99 0-3.72-.19-5.55-.63v-4.6h4.19v1.61c.32.03.69.06 1.26.06 1.61 0 2.36-.35 2.36-1.1 0-.57-.38-.91-1.54-1.2l-2.93-.72c-2.4-.6-3.5-1.92-3.5-4.29.01-3.27 2.25-5 6.5-5z"/>
  </g>
  <path fill="#21368B" d="M878.84 254.96v.95c.07 2.71.15 5.43.2 8.14a5 5 0 0 1-.13 1.34 2.43 2.43 0 0 1-2.46 1.89 2.57 2.57 0 0 1-2.38-2.17 7.85 7.85 0 0 1-.08-1.08l-.02-14.32c0-.27 0-.55.05-.82.24-1.29 1.06-2.03 2.34-2.12.41-.03.83-.02 1.25.02 1.04.08 1.65.73 2.14 1.6l6.04 10.63c.06.11.12.22.28.32v-.39c-.06-3.02-.12-6.05-.16-9.08a5 5 0 0 1 .13-1.34 2.2 2.2 0 0 1 2.15-1.69c1.22-.02 2.19.6 2.54 1.7.14.43.22.91.22 1.36 0 4.72 0 9.44-.02 14.17 0 .34-.01.7-.08 1.04-.33 1.71-1.48 2.19-2.87 2.15a3.27 3.27 0 0 1-2.53-1.39 23.04 23.04 0 0 1-1.86-2.73c-1.51-2.59-2.97-5.23-4.45-7.84a7.45 7.45 0 0 1-.23-.37l-.07.03M834.39 255.5c1.37-.04 2.73-.04 4.07-.14.69-.06 1.2-.52 1.42-1.23.44-1.35-.32-2.62-1.7-2.73-1.23-.1-2.47-.06-3.71-.08-.02 0-.05.03-.08.06v4.12zm7.3 1.77.39.07a3.06 3.06 0 0 1 2.64 2.39c.27.98.4 1.99.61 2.99.11.46.26.92.43 1.36.39.98.2 1.84-.63 2.47-1.24.96-3.36 1.15-4.61-.94a6.4 6.4 0 0 1-.7-2.4c-.06-.42-.11-.84-.22-1.26-.31-1.43-1.15-2.13-2.6-2.18-.77-.03-1.54 0-2.31-.02-.3-.01-.36.11-.36.38 0 1.42.01 2.84-.03 4.26-.01.43-.12.88-.29 1.27a2.63 2.63 0 0 1-2.9 1.47 2.9 2.9 0 0 1-2.22-2.38 6.73 6.73 0 0 1-.07-1l.04-13.62c0-.45.03-.93.14-1.37.31-1.1 1.23-1.75 2.5-1.75 2.76 0 5.49.01 8.24.08 1.18.03 2.33.3 3.34.97a4.84 4.84 0 0 1 2.23 3.93c.07.96-.05 1.91-.48 2.79a4.07 4.07 0 0 1-2.9 2.34 2.5 2.5 0 0 0-.26.07v.08zM907.19 259.53c-.78 0-1.51.05-2.24-.02a3.84 3.84 0 0 1-1.45-.37c-.79-.4-1.14-1.37-.92-2.26.19-.82.92-1.49 1.77-1.5 2.05-.03 4.1-.03 6.15.01.92.02 1.56.62 1.64 1.61.19 2.69-.29 5.23-1.97 7.41a7.25 7.25 0 0 1-4.48 2.69c-2.03.42-4.07.53-6.06-.17a8.9 8.9 0 0 1-5.87-6.49c-.7-2.71-.65-5.44.38-8.07a8.75 8.75 0 0 1 7.42-5.83 11.8 11.8 0 0 1 5.97.62 7.18 7.18 0 0 1 3.35 2.51c.56.8.65 1.66.17 2.51a2.19 2.19 0 0 1-2.3 1.17 4 4 0 0 1-1.29-.49c-.3-.15-.55-.41-.8-.65-2.69-2.56-6.51-1.52-7.54 2.09a8.33 8.33 0 0 0 .46 6.22c1.57 3.15 5.29 2.54 6.8.92.46-.51.72-1.14.81-1.91M854.86 260.89c.25-1.08.44-2.04.69-2.99.81-2.95 1.65-5.88 2.48-8.82.07-.26.17-.51.28-.76.48-1.03 1.37-1.56 2.4-1.46 1.21.12 2.14.84 2.37 1.96.1.53.11 1.15-.05 1.67-.59 1.92-1.27 3.81-1.93 5.7-1.01 2.89-2.03 5.77-3.06 8.66l-.03.11c-.61 1.69-1.3 2.18-3.07 2.18-.35 0-.7-.02-1.06-.05a2.27 2.27 0 0 1-1.96-1.56c-.51-1.35-.98-2.71-1.45-4.07l-3.61-10.64a3.48 3.48 0 0 1-.2-2.04c.27-1.13 1.09-1.85 2.35-1.97 1.05-.1 2 .25 2.48 1.33.38.82.62 1.71.86 2.59.68 2.51 1.33 5.02 1.97 7.54.19.74.29 1.5.43 2.24l.11.38"/>
  <path fill="#EE3135" d="m886.1 273.29-.87.53-18.86 11.55c-.21.13-.37.18-.61.03l-19.48-12.01c-.09-.06-.17-.13-.35-.24h.42l8.92.01c.21 0 .45.07.63.19 3.22 2.02 6.43 4.05 9.64 6.09.37.24.62.25 1 .01 3.2-2.03 6.41-4.04 9.63-6.04.16-.1.37-.18.56-.18H886.09l.01.06M886.13 241.07h-.47l-8.73.01c-.33 0-.61-.09-.89-.26-3.16-2-6.33-3.99-9.48-6-.35-.22-.58-.23-.94-.01-3.22 2.04-6.46 4.07-9.69 6.09a1 1 0 0 1-.45.17h-9.54l.29-.21c6.52-3.98 13.04-7.97 19.55-11.97.23-.14.4-.13.62.01l19.36 11.92.37.25"/>
  <path fill="#21368B" d="M864.81 256.94c0-2.3-.01-4.6.01-6.91 0-.39.02-.78.1-1.15.28-1.3 1.29-2.17 2.5-2.2 1.32-.02 2.38.81 2.73 2.18.1.39.16.79.16 1.19v14.03c0 1.45-.68 2.53-1.8 2.9-1.87.63-3.68-.75-3.7-2.83v-7.21M819.95 257.03v-6.98c.01-.42.05-.86.13-1.27a2.63 2.63 0 0 1 2.19-2.09 2.55 2.55 0 0 1 2.71 1.43c.24.52.44 1.13.44 1.7.03 4.68.01 9.36 0 14.04 0 .98-.2 1.9-.98 2.59-1.54 1.38-4 .52-4.42-1.56-.06-.3-.08-.62-.08-.92v-6.95h.01z"/>
  <g fill="#E1EBEB">
    <rect width="8" height="8" x="464" y="456"/>
    <rect width="8" height="8" x="448" y="456"/>
    <rect width="8" height="8" x="432" y="456"/>
    <rect width="8" height="8" x="456" y="448"/>
    <rect width="8" height="8" x="440" y="448"/>
    <rect width="8" height="8" x="464" y="440"/>
    <rect width="8" height="8" x="448" y="440"/>
    <rect width="8" height="8" x="432" y="440"/>
    <rect width="8" height="8" x="456" y="432"/>
    <rect width="8" height="8" x="440" y="432"/>
    <rect width="8" height="8" x="464" y="424"/>
    <rect width="8" height="8" x="448" y="424"/>
    <rect width="8" height="8" x="432" y="424"/>
    <rect width="8" height="8" x="456" y="416"/>
    <rect width="8" height="8" x="440" y="416"/>
    <rect width="8" height="8" x="464" y="408"/>
    <rect width="8" height="8" x="448" y="408"/>
    <rect width="8" height="8" x="432" y="408"/>
    <rect width="8" height="8" x="456" y="400"/>
    <rect width="8" height="8" x="440" y="400"/>
    <rect width="8" height="8" x="464" y="392"/>
    <rect width="8" height="8" x="448" y="392"/>
    <rect width="8" height="8" x="432" y="392"/>
    <rect width="8" height="8" x="456" y="384"/>
    <rect width="8" height="8" x="440" y="384"/>
    <rect width="8" height="8" x="464" y="376"/>
    <rect width="8" height="8" x="448" y="376"/>
    <rect width="8" height="8" x="432" y="376"/>
    <rect width="8" height="8" x="456" y="368"/>
    <rect width="8" height="8" x="440" y="368"/>
    <rect width="8" height="8" x="464" y="360"/>
    <rect width="8" height="8" x="448" y="360"/>
    <rect width="8" height="8" x="432" y="360"/>
    <rect width="8" height="8" x="456" y="352"/>
    <rect width="8" height="8" x="440" y="352"/>
    <rect width="8" height="8" x="464" y="344"/>
    <rect width="8" height="8" x="448" y="344"/>
    <rect width="8" height="8" x="432" y="344"/>
    <rect width="8" height="8" x="456" y="336"/>
    <rect width="8" height="8" x="440" y="336"/>
    <rect width="8" height="8" x="464" y="328"/>
    <rect width="8" height="8" x="448" y="328"/>
    <rect width="8" height="8" x="432" y="328"/>
    <rect width="8" height="8" x="456" y="320"/>
    <rect width="8" height="8" x="440" y="320"/>
    <rect width="8" height="8" x="464" y="312"/>
    <rect width="8" height="8" x="448" y="312"/>
    <rect width="8" height="8" x="432" y="312"/>
    <rect width="8" height="8" x="456" y="304"/>
    <rect width="8" height="8" x="440" y="304"/>
    <rect width="8" height="8" x="464" y="296"/>
    <rect width="8" height="8" x="448" y="296"/>
    <rect width="8" height="8" x="432" y="296"/>
    <rect width="8" height="8" x="456" y="288"/>
    <rect width="8" height="8" x="440" y="288"/>
    <rect width="8" height="8" x="464" y="280"/>
    <rect width="8" height="8" x="448" y="280"/>
    <rect width="8" height="8" x="432" y="280"/>
    <rect width="8" height="8" x="456" y="272"/>
    <rect width="8" height="8" x="440" y="272"/>
    <rect width="8" height="8" x="416" y="456"/>
    <rect width="8" height="8" x="400" y="456"/>
    <rect width="8" height="8" x="384" y="456"/>
    <rect width="8" height="8" x="424" y="448"/>
    <rect width="8" height="8" x="408" y="448"/>
    <rect width="8" height="8" x="392" y="448"/>
    <rect width="8" height="8" x="416" y="440"/>
    <rect width="8" height="8" x="400" y="440"/>
    <rect width="8" height="8" x="384" y="440"/>
    <rect width="8" height="8" x="424" y="432"/>
    <rect width="8" height="8" x="408" y="432"/>
    <rect width="8" height="8" x="392" y="432"/>
    <rect width="8" height="8" x="416" y="424"/>
    <rect width="8" height="8" x="400" y="424"/>
    <rect width="8" height="8" x="384" y="424"/>
    <rect width="8" height="8" x="424" y="416"/>
    <rect width="8" height="8" x="408" y="416"/>
    <rect width="8" height="8" x="392" y="416"/>
    <rect width="8" height="8" x="416" y="408"/>
    <rect width="8" height="8" x="400" y="408"/>
    <rect width="8" height="8" x="384" y="408"/>
    <rect width="8" height="8" x="424" y="400"/>
    <rect width="8" height="8" x="408" y="400"/>
    <rect width="8" height="8" x="392" y="400"/>
    <rect width="8" height="8" x="416" y="392"/>
    <rect width="8" height="8" x="400" y="392"/>
    <rect width="8" height="8" x="384" y="392"/>
    <rect width="8" height="8" x="424" y="384"/>
    <rect width="8" height="8" x="408" y="384"/>
    <rect width="8" height="8" x="392" y="384"/>
    <rect width="8" height="8" x="416" y="376"/>
    <rect width="8" height="8" x="400" y="376"/>
    <rect width="8" height="8" x="384" y="376"/>
    <rect width="8" height="8" x="424" y="368"/>
    <rect width="8" height="8" x="408" y="368"/>
    <rect width="8" height="8" x="392" y="368"/>
    <rect width="8" height="8" x="416" y="360"/>
    <rect width="8" height="8" x="400" y="360"/>
    <rect width="8" height="8" x="384" y="360"/>
    <rect width="8" height="8" x="424" y="352"/>
    <rect width="8" height="8" x="408" y="352"/>
    <rect width="8" height="8" x="392" y="352"/>
    <rect width="8" height="8" x="416" y="344"/>
    <rect width="8" height="8" x="400" y="344"/>
    <rect width="8" height="8" x="384" y="344"/>
    <rect width="8" height="8" x="424" y="336"/>
    <rect width="8" height="8" x="408" y="336"/>
    <rect width="8" height="8" x="392" y="336"/>
    <rect width="8" height="8" x="416" y="328"/>
    <rect width="8" height="8" x="400" y="328"/>
    <rect width="8" height="8" x="384" y="328"/>
    <rect width="8" height="8" x="424" y="320"/>
    <rect width="8" height="8" x="408" y="320"/>
    <rect width="8" height="8" x="392" y="320"/>
    <rect width="8" height="8" x="416" y="312"/>
    <rect width="8" height="8" x="400" y="312"/>
    <rect width="8" height="8" x="384" y="312"/>
    <rect width="8" height="8" x="424" y="304"/>
    <rect width="8" height="8" x="408" y="304"/>
    <rect width="8" height="8" x="392" y="304"/>
    <rect width="8" height="8" x="416" y="296"/>
    <rect width="8" height="8" x="400" y="296"/>
    <rect width="8" height="8" x="384" y="296"/>
    <rect width="8" height="8" x="424" y="288"/>
    <rect width="8" height="8" x="408" y="288"/>
    <rect width="8" height="8" x="392" y="288"/>
    <rect width="8" height="8" x="416" y="280"/>
    <rect width="8" height="8" x="400" y="280"/>
    <rect width="8" height="8" x="384" y="280"/>
    <rect width="8" height="8" x="424" y="272"/>
    <rect width="8" height="8" x="408" y="272"/>
    <rect width="8" height="8" x="392" y="272"/>
    <rect width="8" height="8" x="368" y="456"/>
    <rect width="8" height="8" x="376" y="448"/>
    <rect width="8" height="8" x="368" y="440"/>
    <rect width="8" height="8" x="376" y="432"/>
    <rect width="8" height="8" x="368" y="424"/>
    <rect width="8" height="8" x="376" y="416"/>
    <rect width="8" height="8" x="368" y="408"/>
    <rect width="8" height="8" x="376" y="400"/>
    <rect width="8" height="8" x="368" y="392"/>
    <rect width="8" height="8" x="376" y="384"/>
    <rect width="8" height="8" x="368" y="376"/>
    <rect width="8" height="8" x="376" y="368"/>
    <rect width="8" height="8" x="368" y="360"/>
    <rect width="8" height="8" x="376" y="352"/>
    <rect width="8" height="8" x="368" y="344"/>
    <rect width="8" height="8" x="376" y="336"/>
    <rect width="8" height="8" x="368" y="328"/>
    <rect width="8" height="8" x="376" y="320"/>
    <rect width="8" height="8" x="368" y="312"/>
    <rect width="8" height="8" x="376" y="304"/>
    <rect width="8" height="8" x="368" y="296"/>
    <rect width="8" height="8" x="376" y="288"/>
    <rect width="8" height="8" x="368" y="280"/>
    <rect width="8" height="8" x="376" y="272"/>
    <rect width="8" height="8" x="352" y="456"/>
    <rect width="8" height="8" x="360" y="448"/>
    <rect width="8" height="8" x="352" y="440"/>
    <rect width="8" height="8" x="360" y="432"/>
    <rect width="8" height="8" x="352" y="424"/>
    <rect width="8" height="8" x="360" y="416"/>
    <rect width="8" height="8" x="352" y="408"/>
    <rect width="8" height="8" x="360" y="400"/>
    <rect width="8" height="8" x="352" y="392"/>
    <rect width="8" height="8" x="360" y="384"/>
    <rect width="8" height="8" x="352" y="376"/>
    <rect width="8" height="8" x="360" y="368"/>
    <rect width="8" height="8" x="352" y="360"/>
    <rect width="8" height="8" x="360" y="352"/>
    <rect width="8" height="8" x="352" y="344"/>
    <rect width="8" height="8" x="360" y="336"/>
    <rect width="8" height="8" x="352" y="328"/>
    <rect width="8" height="8" x="360" y="320"/>
    <rect width="8" height="8" x="352" y="312"/>
    <rect width="8" height="8" x="360" y="304"/>
    <rect width="8" height="8" x="352" y="296"/>
    <rect width="8" height="8" x="360" y="288"/>
    <rect width="8" height="8" x="352" y="280"/>
    <rect width="8" height="8" x="360" y="272"/>
    <rect width="8" height="8" x="336" y="456"/>
    <rect width="8" height="8" x="344" y="448"/>
    <rect width="8" height="8" x="336" y="440"/>
    <rect width="8" height="8" x="344" y="432"/>
    <rect width="8" height="8" x="336" y="424"/>
    <rect width="8" height="8" x="344" y="416"/>
    <rect width="8" height="8" x="336" y="408"/>
    <rect width="8" height="8" x="344" y="400"/>
    <rect width="8" height="8" x="336" y="392"/>
    <rect width="8" height="8" x="344" y="384"/>
    <rect width="8" height="8" x="336" y="376"/>
    <rect width="8" height="8" x="344" y="368"/>
    <rect width="8" height="8" x="336" y="360"/>
    <rect width="8" height="8" x="344" y="352"/>
    <rect width="8" height="8" x="336" y="344"/>
    <rect width="8" height="8" x="344" y="336"/>
    <rect width="8" height="8" x="336" y="328"/>
    <rect width="8" height="8" x="344" y="320"/>
    <rect width="8" height="8" x="336" y="312"/>
    <rect width="8" height="8" x="344" y="304"/>
    <rect width="8" height="8" x="336" y="296"/>
    <rect width="8" height="8" x="344" y="288"/>
    <rect width="8" height="8" x="336" y="280"/>
    <rect width="8" height="8" x="344" y="272"/>
    <rect width="8" height="8" x="592" y="456"/>
    <rect width="8" height="8" x="576" y="456"/>
    <rect width="8" height="8" x="560" y="456"/>
    <rect width="8" height="8" x="584" y="448"/>
    <rect width="8" height="8" x="568" y="448"/>
    <rect width="8" height="8" x="592" y="440"/>
    <rect width="8" height="8" x="576" y="440"/>
    <rect width="8" height="8" x="560" y="440"/>
    <rect width="8" height="8" x="584" y="432"/>
    <rect width="8" height="8" x="568" y="432"/>
    <rect width="8" height="8" x="592" y="424"/>
    <rect width="8" height="8" x="576" y="424"/>
    <rect width="8" height="8" x="560" y="424"/>
    <rect width="8" height="8" x="584" y="416"/>
    <rect width="8" height="8" x="568" y="416"/>
    <rect width="8" height="8" x="592" y="408"/>
    <rect width="8" height="8" x="576" y="408"/>
    <rect width="8" height="8" x="560" y="408"/>
    <rect width="8" height="8" x="584" y="400"/>
    <rect width="8" height="8" x="568" y="400"/>
    <rect width="8" height="8" x="592" y="392"/>
    <rect width="8" height="8" x="576" y="392"/>
    <rect width="8" height="8" x="560" y="392"/>
    <rect width="8" height="8" x="584" y="384"/>
    <rect width="8" height="8" x="568" y="384"/>
    <rect width="8" height="8" x="592" y="376"/>
    <rect width="8" height="8" x="576" y="376"/>
    <rect width="8" height="8" x="560" y="376"/>
    <rect width="8" height="8" x="584" y="368"/>
    <rect width="8" height="8" x="568" y="368"/>
    <rect width="8" height="8" x="592" y="360"/>
    <rect width="8" height="8" x="576" y="360"/>
    <rect width="8" height="8" x="560" y="360"/>
    <rect width="8" height="8" x="584" y="352"/>
    <rect width="8" height="8" x="568" y="352"/>
    <rect width="8" height="8" x="592" y="344"/>
    <rect width="8" height="8" x="576" y="344"/>
    <rect width="8" height="8" x="560" y="344"/>
    <rect width="8" height="8" x="584" y="336"/>
    <rect width="8" height="8" x="568" y="336"/>
    <rect width="8" height="8" x="592" y="328"/>
    <rect width="8" height="8" x="576" y="328"/>
    <rect width="8" height="8" x="560" y="328"/>
    <rect width="8" height="8" x="584" y="320"/>
    <rect width="8" height="8" x="568" y="320"/>
    <rect width="8" height="8" x="592" y="312"/>
    <rect width="8" height="8" x="576" y="312"/>
    <rect width="8" height="8" x="560" y="312"/>
    <rect width="8" height="8" x="584" y="304"/>
    <rect width="8" height="8" x="568" y="304"/>
    <rect width="8" height="8" x="592" y="296"/>
    <rect width="8" height="8" x="576" y="296"/>
    <rect width="8" height="8" x="560" y="296"/>
    <rect width="8" height="8" x="584" y="288"/>
    <rect width="8" height="8" x="568" y="288"/>
    <rect width="8" height="8" x="592" y="280"/>
    <rect width="8" height="8" x="576" y="280"/>
    <rect width="8" height="8" x="560" y="280"/>
    <rect width="8" height="8" x="584" y="272"/>
    <rect width="8" height="8" x="568" y="272"/>
    <rect width="8" height="8" x="544" y="456"/>
    <rect width="8" height="8" x="528" y="456"/>
    <rect width="8" height="8" x="512" y="456"/>
    <rect width="8" height="8" x="552" y="448"/>
    <rect width="8" height="8" x="536" y="448"/>
    <rect width="8" height="8" x="520" y="448"/>
    <rect width="8" height="8" x="544" y="440"/>
    <rect width="8" height="8" x="528" y="440"/>
    <rect width="8" height="8" x="512" y="440"/>
    <rect width="8" height="8" x="552" y="432"/>
    <rect width="8" height="8" x="536" y="432"/>
    <rect width="8" height="8" x="520" y="432"/>
    <rect width="8" height="8" x="544" y="424"/>
    <rect width="8" height="8" x="528" y="424"/>
    <rect width="8" height="8" x="512" y="424"/>
    <rect width="8" height="8" x="552" y="416"/>
    <rect width="8" height="8" x="536" y="416"/>
    <rect width="8" height="8" x="520" y="416"/>
    <rect width="8" height="8" x="544" y="408"/>
    <rect width="8" height="8" x="528" y="408"/>
    <rect width="8" height="8" x="512" y="408"/>
    <rect width="8" height="8" x="552" y="400"/>
    <rect width="8" height="8" x="536" y="400"/>
    <rect width="8" height="8" x="520" y="400"/>
    <rect width="8" height="8" x="544" y="392"/>
    <rect width="8" height="8" x="528" y="392"/>
    <rect width="8" height="8" x="512" y="392"/>
    <rect width="8" height="8" x="552" y="384"/>
    <rect width="8" height="8" x="536" y="384"/>
    <rect width="8" height="8" x="520" y="384"/>
    <rect width="8" height="8" x="544" y="376"/>
    <rect width="8" height="8" x="528" y="376"/>
    <rect width="8" height="8" x="512" y="376"/>
    <rect width="8" height="8" x="552" y="368"/>
    <rect width="8" height="8" x="536" y="368"/>
    <rect width="8" height="8" x="520" y="368"/>
    <rect width="8" height="8" x="544" y="360"/>
    <rect width="8" height="8" x="528" y="360"/>
    <rect width="8" height="8" x="512" y="360"/>
    <rect width="8" height="8" x="552" y="352"/>
    <rect width="8" height="8" x="536" y="352"/>
    <rect width="8" height="8" x="520" y="352"/>
    <rect width="8" height="8" x="544" y="344"/>
    <rect width="8" height="8" x="528" y="344"/>
    <rect width="8" height="8" x="512" y="344"/>
    <rect width="8" height="8" x="552" y="336"/>
    <rect width="8" height="8" x="536" y="336"/>
    <rect width="8" height="8" x="520" y="336"/>
    <rect width="8" height="8" x="544" y="328"/>
    <rect width="8" height="8" x="528" y="328"/>
    <rect width="8" height="8" x="512" y="328"/>
    <rect width="8" height="8" x="552" y="320"/>
    <rect width="8" height="8" x="536" y="320"/>
    <rect width="8" height="8" x="520" y="320"/>
    <rect width="8" height="8" x="544" y="312"/>
    <rect width="8" height="8" x="528" y="312"/>
    <rect width="8" height="8" x="512" y="312"/>
    <rect width="8" height="8" x="552" y="304"/>
    <rect width="8" height="8" x="536" y="304"/>
    <rect width="8" height="8" x="520" y="304"/>
    <rect width="8" height="8" x="544" y="296"/>
    <rect width="8" height="8" x="528" y="296"/>
    <rect width="8" height="8" x="512" y="296"/>
    <rect width="8" height="8" x="552" y="288"/>
    <rect width="8" height="8" x="536" y="288"/>
    <rect width="8" height="8" x="520" y="288"/>
    <rect width="8" height="8" x="544" y="280"/>
    <rect width="8" height="8" x="528" y="280"/>
    <rect width="8" height="8" x="512" y="280"/>
    <rect width="8" height="8" x="552" y="272"/>
    <rect width="8" height="8" x="536" y="272"/>
    <rect width="8" height="8" x="520" y="272"/>
    <rect width="8" height="8" x="656" y="456"/>
    <rect width="8" height="8" x="640" y="456"/>
    <rect width="8" height="8" x="664" y="448"/>
    <rect width="8" height="8" x="648" y="448"/>
    <rect width="8" height="8" x="656" y="440"/>
    <rect width="8" height="8" x="640" y="440"/>
    <rect width="8" height="8" x="664" y="432"/>
    <rect width="8" height="8" x="648" y="432"/>
    <rect width="8" height="8" x="656" y="424"/>
    <rect width="8" height="8" x="640" y="424"/>
    <rect width="8" height="8" x="664" y="416"/>
    <rect width="8" height="8" x="648" y="416"/>
    <rect width="8" height="8" x="656" y="408"/>
    <rect width="8" height="8" x="640" y="408"/>
    <rect width="8" height="8" x="664" y="400"/>
    <rect width="8" height="8" x="648" y="400"/>
    <rect width="8" height="8" x="656" y="392"/>
    <rect width="8" height="8" x="640" y="392"/>
    <rect width="8" height="8" x="664" y="384"/>
    <rect width="8" height="8" x="648" y="384"/>
    <rect width="8" height="8" x="656" y="376"/>
    <rect width="8" height="8" x="640" y="376"/>
    <rect width="8" height="8" x="664" y="368"/>
    <rect width="8" height="8" x="648" y="368"/>
    <rect width="8" height="8" x="656" y="360"/>
    <rect width="8" height="8" x="640" y="360"/>
    <rect width="8" height="8" x="664" y="352"/>
    <rect width="8" height="8" x="648" y="352"/>
    <rect width="8" height="8" x="656" y="344"/>
    <rect width="8" height="8" x="640" y="344"/>
    <rect width="8" height="8" x="664" y="336"/>
    <rect width="8" height="8" x="648" y="336"/>
    <rect width="8" height="8" x="656" y="328"/>
    <rect width="8" height="8" x="640" y="328"/>
    <rect width="8" height="8" x="664" y="320"/>
    <rect width="8" height="8" x="648" y="320"/>
    <rect width="8" height="8" x="656" y="312"/>
    <rect width="8" height="8" x="640" y="312"/>
    <rect width="8" height="8" x="664" y="304"/>
    <rect width="8" height="8" x="648" y="304"/>
    <rect width="8" height="8" x="656" y="296"/>
    <rect width="8" height="8" x="640" y="296"/>
    <rect width="8" height="8" x="664" y="288"/>
    <rect width="8" height="8" x="648" y="288"/>
    <rect width="8" height="8" x="656" y="280"/>
    <rect width="8" height="8" x="640" y="280"/>
    <rect width="8" height="8" x="648" y="272"/>
    <rect width="8" height="8" x="624" y="456"/>
    <rect width="8" height="8" x="608" y="456"/>
    <rect width="8" height="8" x="632" y="448"/>
    <rect width="8" height="8" x="616" y="448"/>
    <rect width="8" height="8" x="600" y="448"/>
    <rect width="8" height="8" x="624" y="440"/>
    <rect width="8" height="8" x="608" y="440"/>
    <rect width="8" height="8" x="632" y="432"/>
    <rect width="8" height="8" x="616" y="432"/>
    <rect width="8" height="8" x="600" y="432"/>
    <rect width="8" height="8" x="624" y="424"/>
    <rect width="8" height="8" x="608" y="424"/>
    <rect width="8" height="8" x="632" y="416"/>
    <rect width="8" height="8" x="616" y="416"/>
    <rect width="8" height="8" x="600" y="416"/>
    <rect width="8" height="8" x="624" y="408"/>
    <rect width="8" height="8" x="608" y="408"/>
    <rect width="8" height="8" x="632" y="400"/>
    <rect width="8" height="8" x="616" y="400"/>
    <rect width="8" height="8" x="600" y="400"/>
    <rect width="8" height="8" x="624" y="392"/>
    <rect width="8" height="8" x="608" y="392"/>
    <rect width="8" height="8" x="632" y="384"/>
    <rect width="8" height="8" x="616" y="384"/>
    <rect width="8" height="8" x="600" y="384"/>
    <rect width="8" height="8" x="624" y="376"/>
    <rect width="8" height="8" x="608" y="376"/>
    <rect width="8" height="8" x="632" y="368"/>
    <rect width="8" height="8" x="616" y="368"/>
    <rect width="8" height="8" x="600" y="368"/>
    <rect width="8" height="8" x="624" y="360"/>
    <rect width="8" height="8" x="608" y="360"/>
    <rect width="8" height="8" x="632" y="352"/>
    <rect width="8" height="8" x="616" y="352"/>
    <rect width="8" height="8" x="600" y="352"/>
    <rect width="8" height="8" x="624" y="344"/>
    <rect width="8" height="8" x="608" y="344"/>
    <rect width="8" height="8" x="632" y="336"/>
    <rect width="8" height="8" x="616" y="336"/>
    <rect width="8" height="8" x="600" y="336"/>
    <rect width="8" height="8" x="624" y="328"/>
    <rect width="8" height="8" x="608" y="328"/>
    <rect width="8" height="8" x="632" y="320"/>
    <rect width="8" height="8" x="616" y="320"/>
    <rect width="8" height="8" x="600" y="320"/>
    <rect width="8" height="8" x="624" y="312"/>
    <rect width="8" height="8" x="608" y="312"/>
    <rect width="8" height="8" x="632" y="304"/>
    <rect width="8" height="8" x="616" y="304"/>
    <rect width="8" height="8" x="600" y="304"/>
    <rect width="8" height="8" x="624" y="296"/>
    <rect width="8" height="8" x="608" y="296"/>
    <rect width="8" height="8" x="632" y="288"/>
    <rect width="8" height="8" x="616" y="288"/>
    <rect width="8" height="8" x="600" y="288"/>
    <rect width="8" height="8" x="624" y="280"/>
    <rect width="8" height="8" x="608" y="280"/>
    <rect width="8" height="8" x="632" y="272"/>
    <rect width="8" height="8" x="616" y="272"/>
    <rect width="8" height="8" x="600" y="272"/>
    <rect width="8" height="8" x="496" y="456"/>
    <rect width="8" height="8" x="504" y="448"/>
    <rect width="8" height="8" x="496" y="440"/>
    <rect width="8" height="8" x="504" y="432"/>
    <rect width="8" height="8" x="496" y="424"/>
    <rect width="8" height="8" x="504" y="416"/>
    <rect width="8" height="8" x="496" y="408"/>
    <rect width="8" height="8" x="504" y="400"/>
    <rect width="8" height="8" x="496" y="392"/>
    <rect width="8" height="8" x="504" y="384"/>
    <rect width="8" height="8" x="496" y="376"/>
    <rect width="8" height="8" x="504" y="368"/>
    <rect width="8" height="8" x="496" y="360"/>
    <rect width="8" height="8" x="504" y="352"/>
    <rect width="8" height="8" x="496" y="344"/>
    <rect width="8" height="8" x="504" y="336"/>
    <rect width="8" height="8" x="496" y="328"/>
    <rect width="8" height="8" x="504" y="320"/>
    <rect width="8" height="8" x="496" y="312"/>
    <rect width="8" height="8" x="504" y="304"/>
    <rect width="8" height="8" x="496" y="296"/>
    <rect width="8" height="8" x="504" y="288"/>
    <rect width="8" height="8" x="496" y="280"/>
    <rect width="8" height="8" x="504" y="272"/>
    <rect width="8" height="8" x="480" y="456"/>
    <rect width="8" height="8" x="488" y="448"/>
    <rect width="8" height="8" x="480" y="440"/>
    <rect width="8" height="8" x="488" y="432"/>
    <rect width="8" height="8" x="480" y="424"/>
    <rect width="8" height="8" x="488" y="416"/>
    <rect width="8" height="8" x="480" y="408"/>
    <rect width="8" height="8" x="488" y="400"/>
    <rect width="8" height="8" x="480" y="392"/>
    <rect width="8" height="8" x="488" y="384"/>
    <rect width="8" height="8" x="480" y="376"/>
    <rect width="8" height="8" x="488" y="368"/>
    <rect width="8" height="8" x="480" y="360"/>
    <rect width="8" height="8" x="488" y="352"/>
    <rect width="8" height="8" x="480" y="344"/>
    <rect width="8" height="8" x="488" y="336"/>
    <rect width="8" height="8" x="480" y="328"/>
    <rect width="8" height="8" x="488" y="320"/>
    <rect width="8" height="8" x="480" y="312"/>
    <rect width="8" height="8" x="488" y="304"/>
    <rect width="8" height="8" x="480" y="296"/>
    <rect width="8" height="8" x="488" y="288"/>
    <rect width="8" height="8" x="480" y="280"/>
    <rect width="8" height="8" x="488" y="272"/>
    <rect width="8" height="8" x="472" y="448"/>
    <rect width="8" height="8" x="472" y="432"/>
    <rect width="8" height="8" x="464" y="488"/>
    <rect width="8" height="8" x="448" y="488"/>
    <rect width="8" height="8" x="432" y="488"/>
    <rect width="8" height="8" x="456" y="480"/>
    <rect width="8" height="8" x="440" y="480"/>
    <rect width="8" height="8" x="464" y="472"/>
    <rect width="8" height="8" x="448" y="472"/>
    <rect width="8" height="8" x="432" y="472"/>
    <rect width="8" height="8" x="456" y="464"/>
    <rect width="8" height="8" x="440" y="464"/>
    <rect width="8" height="8" x="416" y="488"/>
    <rect width="8" height="8" x="400" y="488"/>
    <rect width="8" height="8" x="384" y="488"/>
    <rect width="8" height="8" x="424" y="480"/>
    <rect width="8" height="8" x="408" y="480"/>
    <rect width="8" height="8" x="392" y="480"/>
    <rect width="8" height="8" x="416" y="472"/>
    <rect width="8" height="8" x="400" y="472"/>
    <rect width="8" height="8" x="384" y="472"/>
    <rect width="8" height="8" x="424" y="464"/>
    <rect width="8" height="8" x="408" y="464"/>
    <rect width="8" height="8" x="392" y="464"/>
    <rect width="8" height="8" x="368" y="488"/>
    <rect width="8" height="8" x="376" y="480"/>
    <rect width="8" height="8" x="368" y="472"/>
    <rect width="8" height="8" x="376" y="464"/>
    <rect width="8" height="8" x="352" y="488"/>
    <rect width="8" height="8" x="360" y="480"/>
    <rect width="8" height="8" x="352" y="472"/>
    <rect width="8" height="8" x="360" y="464"/>
    <rect width="8" height="8" x="336" y="488"/>
    <rect width="8" height="8" x="344" y="480"/>
    <rect width="8" height="8" x="336" y="472"/>
    <rect width="8" height="8" x="344" y="464"/>
    <rect width="8" height="8" x="592" y="488"/>
    <rect width="8" height="8" x="576" y="488"/>
    <rect width="8" height="8" x="560" y="488"/>
    <rect width="8" height="8" x="584" y="480"/>
    <rect width="8" height="8" x="568" y="480"/>
    <rect width="8" height="8" x="592" y="472"/>
    <rect width="8" height="8" x="576" y="472"/>
    <rect width="8" height="8" x="560" y="472"/>
    <rect width="8" height="8" x="584" y="464"/>
    <rect width="8" height="8" x="568" y="464"/>
    <rect width="8" height="8" x="544" y="488"/>
    <rect width="8" height="8" x="528" y="488"/>
    <rect width="8" height="8" x="512" y="488"/>
    <rect width="8" height="8" x="552" y="480"/>
    <rect width="8" height="8" x="536" y="480"/>
    <rect width="8" height="8" x="520" y="480"/>
    <rect width="8" height="8" x="544" y="472"/>
    <rect width="8" height="8" x="528" y="472"/>
    <rect width="8" height="8" x="512" y="472"/>
    <rect width="8" height="8" x="552" y="464"/>
    <rect width="8" height="8" x="536" y="464"/>
    <rect width="8" height="8" x="520" y="464"/>
    <rect width="8" height="8" x="656" y="488"/>
    <rect width="8" height="8" x="640" y="488"/>
    <rect width="8" height="8" x="664" y="480"/>
    <rect width="8" height="8" x="648" y="480"/>
    <rect width="8" height="8" x="656" y="472"/>
    <rect width="8" height="8" x="640" y="472"/>
    <rect width="8" height="8" x="664" y="464"/>
    <rect width="8" height="8" x="648" y="464"/>
    <rect width="8" height="8" x="624" y="488"/>
    <rect width="8" height="8" x="608" y="488"/>
    <rect width="8" height="8" x="632" y="480"/>
    <rect width="8" height="8" x="616" y="480"/>
    <rect width="8" height="8" x="600" y="480"/>
    <rect width="8" height="8" x="624" y="472"/>
    <rect width="8" height="8" x="608" y="472"/>
    <rect width="8" height="8" x="632" y="464"/>
    <rect width="8" height="8" x="616" y="464"/>
    <rect width="8" height="8" x="600" y="464"/>
    <rect width="8" height="8" x="496" y="488"/>
    <rect width="8" height="8" x="504" y="480"/>
    <rect width="8" height="8" x="496" y="472"/>
    <rect width="8" height="8" x="504" y="464"/>
    <rect width="8" height="8" x="480" y="488"/>
    <rect width="8" height="8" x="488" y="480"/>
    <rect width="8" height="8" x="480" y="472"/>
    <rect width="8" height="8" x="488" y="464"/>
    <rect width="8" height="8" x="472" y="480"/>
    <rect width="8" height="8" x="472" y="464"/>
    <rect width="8" height="8" x="472" y="416"/>
    <rect width="8" height="8" x="472" y="400"/>
    <rect width="8" height="8" x="472" y="384"/>
    <rect width="8" height="8" x="472" y="368"/>
    <rect width="8" height="8" x="472" y="352"/>
    <rect width="8" height="8" x="472" y="336"/>
    <rect width="8" height="8" x="472" y="320"/>
    <rect width="8" height="8" x="472" y="304"/>
    <rect width="8" height="8" x="472" y="288"/>
    <rect width="8" height="8" x="472" y="272"/>
  </g>
</svg>
