<svg xmlns="http://www.w3.org/2000/svg" viewBox="0 0 844 76">
  <g fill="#FFF">
    <polygon points="99.22 8.08 64.07 8.08 64.07 16.16 59.22 16.16 59.22 8.08 0 8.08 0 76 59.22 76 59.22 48.57 51.22 48.57 51.22 35.52 56.07 35.52 56.07 43.6 64.07 43.6 64.07 76 99.22 76 99.22 43.6 107.22 43.6 107.22 16.16 99.22 16.16 99.22 8.08"/>
    <polygon points="219.36 16.16 168.14 16.16 168.14 24.25 163.29 24.25 163.29 0 128.14 0 128.14 76 163.29 76 163.29 67.92 168.14 67.92 168.14 76 219.36 76 219.36 59.84 227.37 59.84 227.37 24.25 219.36 24.25 219.36 16.16"/>
    <polygon points="808.85 8.08 808.85 16.16 803.93 16.16 803.93 8.08 768.78 8.08 768.78 16.16 312.28 16.16 312.28 24.25 307.43 24.25 307.43 16.16 283.36 16.16 283.36 0 248.21 0 248.21 76 307.43 76 307.43 67.92 320.28 67.92 320.28 76 371.51 76 371.51 67.92 384.35 67.92 384.35 76 435.58 76 435.58 67.92 448.42 67.92 448.42 76 499.65 76 499.65 67.92 512.49 67.92 512.49 76 563.72 76 563.72 67.92 576.56 67.92 576.56 76 627.79 76 627.79 67.92 640.64 67.92 640.64 76 691.86 76 691.86 67.92 704.71 67.92 704.71 76 755.93 76 755.93 67.92 763.93 67.92 763.93 43.6 768.78 43.6 768.78 76 803.93 76 803.93 43.6 808.85 43.6 808.85 76 844 76 844 8.08 808.85 8.08"/>
  </g>
  <g fill="#EF3B42">
    <path d="M5.9 66.62V17.91h40.22v8.23H22.04v8.01h16.07v8.23H22.04V58.4h24.07v8.23H5.9zM86.11 34.22v32.4H69.97V42.17h8v-7.95h-16v-8.23h8v-8.08h16.14v8.08h8v8.23h-8zM134.04 66.62V9.83h16.14v56.8h-16.14zM182.18 50.46v7.94h24.07v8.23h-32.22v-8.08h-8V34.07h8v-8.08h32.22v8.08h8v16.38h-32.07zm15.93-16.17h-15.93v7.94h15.93v-7.94zM294.32 58.54v8.08H254.1V9.83h16.14v16.16h24.07v8.08h8v24.47h-7.99zm-8.14-24.25h-15.93v24.1h15.93v-24.1zM358.39 58.54v8.08h-32.22v-8.08h-8V25.99h16.14v32.4h15.93v-32.4h16.14v32.55h-7.99zM422.47 58.54v8.08h-32.22v-8.08h-8V25.99h16.14v32.4h15.93v-32.4h16.14v32.55h-7.99zM486.54 58.54v8.08h-32.22v-8.08h-8V25.99h16.14v32.4h15.93v-32.4h16.14v32.55h-7.99zM550.61 58.54v8.08H518.4v-8.08h-8V25.99h16.14v32.4h15.93v-32.4h16.14v32.55h-8zM614.68 58.54v8.08h-32.22v-8.08h-8V25.99h16.14v32.4h15.93v-32.4h16.14v32.55h-7.99zM678.75 58.54v8.08h-32.22v-8.08h-8V25.99h16.14v32.4h15.93v-32.4h16.14v32.55h-7.99zM742.82 58.54v8.08H710.6v-8.08h-8V25.99h16.14v32.4h15.93v-32.4h16.14v32.55h-7.99zM790.82 34.22v32.4h-16.14V42.17h8v-7.95h-16v-8.23h8v-8.08h16.14v8.08h8v8.23h-8zM814.75 50.46V17.91h16.14v32.55h-16.14zm0 16.16v-8.23h16.14v8.23h-16.14z"/>
  </g>
</svg>
