{
    "asset" : {
        "generator" : "Khronos glTF Blender I/O v3.3.27",
        "version" : "2.0"
    },
    "scene" : 0,
    "scenes" : [
        {
            "name" : "Scene",
            "nodes" : [
                0
            ]
        }
    ],
    "nodes" : [
        {
            "mesh" : 0,
            "name" : "male_detailed.001"
        }
    ],
    "meshes" : [
        {
            "name" : "male_detailed.001",
            "primitives" : [
                {
                    "attributes" : {
                        "POSITION" : 0,
                        "NORMAL" : 1,
                        "TEXCOORD_0" : 2
                    },
                    "indices" : 3
                }
            ]
        }
    ],
    "accessors" : [
        {
            "bufferView" : 0,
            "componentType" : 5126,
            "count" : 12639,
            "max" : [
                0.38134995102882385,
                1.7716600894927979,
                0.17788101732730865
            ],
            "min" : [
                -0.38134968280792236,
                0.00321997725404799,
                -0.11521468311548233
            ],
            "type" : "VEC3"
        },
        {
            "bufferView" : 1,
            "componentType" : 5126,
            "count" : 12639,
            "type" : "VEC3"
        },
        {
            "bufferView" : 2,
            "componentType" : 5126,
            "count" : 12639,
            "type" : "VEC2"
        },
        {
            "bufferView" : 3,
            "componentType" : 5123,
            "count" : 70128,
            "type" : "SCALAR"
        }
    ],
    "bufferViews" : [
        {
            "buffer" : 0,
            "byteLength" : 151668,
            "byteOffset" : 0,
            "target" : 34962
        },
        {
            "buffer" : 0,
            "byteLength" : 151668,
            "byteOffset" : 151668,
            "target" : 34962
        },
        {
            "buffer" : 0,
            "byteLength" : 101112,
            "byteOffset" : 303336,
            "target" : 34962
        },
        {
            "buffer" : 0,
            "byteLength" : 140256,
            "byteOffset" : 404448,
            "target" : 34963
        }
    ],
    "buffers" : [
        {
            "byteLength" : 544704,
            "uri" : "data:application/octet-stream;base64,"
        }
    ]
}
