<svg xmlns="http://www.w3.org/2000/svg" viewBox="0 0 1024 758">
<style>
/* <![CDATA[ */

#bubble1 {
  animation: bubble1 8s ease-in-out infinite;
}

@keyframes bubble1 {
  0%, 50%, 100% {
    transform: translate(579px, 382px) scale(0) translate(-579px, -382px);
  }
  5%, 45% {
    transform: translate(579px, 382px) scale(1) translate(-579px, -382px);
  }
}

#bubble2 {
  animation: bubble2 8s ease-in-out infinite;
}

@keyframes bubble2 {
  0%, 50%, 100% {
    transform: translate(741px, 248px) scale(0) translate(-741px, -248px);
  }
  55%, 95% {
    transform: translate(741px, 248px) scale(1) translate(-741px, -248px);
  }
}

#hand1 {
  animation: hand1 6s ease-in-out infinite;
}

@keyframes hand1 {
  0%, 30%, 100% {
    transform: translate(309px, 413px) rotate(0deg) translate(-309px, -413px);
  }
  15% {
    transform: translate(309px, 413px) rotate(-10deg) translate(-309px, -413px);
  }
}

#hand2 {
  animation: hand2 6s ease-in-out infinite;
}

@keyframes hand2 {
  0%, 60%, 90%, 100% {
    transform: translate(800px, 305px) rotate(0deg) translate(-800px, -305px);
  }
  75% {
    transform: translate(800px, 305px) rotate(5deg) translate(-800px, -305px);
  }
}

/* ]]> */
</style>
  <path fill="#FAC4DC" d="M864.151 472.149l-190.799-70.267V108.578l190.799 72.002v293.304"/>
  <path fill="#83A1B5" stroke="#000" stroke-linecap="round" stroke-linejoin="round" stroke-miterlimit="10" stroke-width="1.24" d="M24.778 567.38l478.184 175.734a200.455 200.455 0 00154.929-6.975l332.833-156.65c27.258-12.903 25.478-52.268-2.828-62.663L509.657 341.189a200.47 200.47 0 00-154.731 6.915L21.982 504.699c-27.275 12.889-25.516 52.272 2.796 62.681z"/>
  <path fill="#6565FC" d="M450.344 233.923L243.63 331.777l112.533 41.83 206.719-97.853-112.538-41.831z"/>
  <path fill="#6565FC" d="M243.63 331.776v121.138l112.533 41.835V373.607L243.63 331.776z"/>
  <path fill="#A4E4F7" d="M356.166 373.607V494.75l53.154-25.521v-115.1l147.77-69.876v115.389l4.881-2.291V276.213l-205.805 97.394z"/>
  <path fill="#6565FC" d="M557.087 399.641l-105.15-39.318V334.2l105.15-49.948v115.389z"/>
  <path fill="#FFF" stroke="#000" stroke-linecap="round" stroke-linejoin="round" stroke-miterlimit="10" stroke-width="1.24" d="M451.851 228.486L236.147 330.597l118.516 44.057 215.7-102.115-118.512-44.053z"/>
  <path fill="#6565FC" d="M236.146 330.596v5.303l118.516 44.058v-5.304l-118.516-44.057z"/>
  <path fill="#6565FC" d="M354.664 379.957l215.7-102.11v-5.308l-215.7 102.115v5.303z"/>
  <path fill="none" stroke="#000" stroke-linecap="round" stroke-linejoin="round" stroke-miterlimit="10" stroke-width="1.24" d="M356.167 411.434l53.154-25.521"/>
  <path fill="none" stroke="#000" stroke-linecap="round" stroke-linejoin="round" stroke-miterlimit="10" stroke-width="1.24" d="M356.167 445.196l53.154-25.516"/>
  <path stroke="#000" stroke-linecap="round" stroke-linejoin="round" stroke-miterlimit="10" stroke-width="1.24" d="M386.638 382.623c.627-3.084-.725-5.962-3.021-6.429-2.296-.467-4.666 1.654-5.294 4.738-.627 3.084.726 5.962 3.022 6.429s4.666-1.654 5.293-4.738z"/>
  <path fill="#6565FC" d="M389.422 382.321c.627-3.083-.725-5.962-3.021-6.429-2.296-.467-4.666 1.654-5.293 4.738-.628 3.084.725 5.963 3.021 6.43 2.297.467 4.666-1.655 5.293-4.739z"/>
  <path stroke="#000" stroke-linecap="round" stroke-linejoin="round" stroke-miterlimit="10" stroke-width="1.24" d="M386.638 416.984c.627-3.083-.725-5.962-3.021-6.429s-4.666 1.654-5.294 4.738c-.627 3.084.726 5.963 3.022 6.43s4.666-1.655 5.293-4.739z"/>
  <path fill="#6565FC" d="M389.415 416.681c.628-3.084-.725-5.963-3.021-6.43-2.296-.467-4.666 1.655-5.293 4.739-.627 3.083.726 5.962 3.022 6.429 2.296.467 4.665-1.654 5.292-4.738z"/>
  <path stroke="#000" stroke-linecap="round" stroke-linejoin="round" stroke-miterlimit="10" stroke-width="1.24" d="M572.837 473.267l-31.485-14.34 6.759-3.462 27.362 15.166-2.636 2.636z"/>
  <path stroke="#000" stroke-linecap="round" stroke-linejoin="round" stroke-miterlimit="10" stroke-width="1.24" d="M584.537 447.842l-31.485-14.34 6.759-3.462 27.362 15.162-2.636 2.64z"/>
  <path stroke="#000" stroke-linecap="round" stroke-linejoin="round" stroke-miterlimit="10" stroke-width="1.24" d="M495.253 403.959l88.394 32.487c1.897.698 2.03 3.324.212 4.21l-66.984 32.573a19.738 19.738 0 01-15.437.777l-74.937-27.542c-6.626-2.433-7.089-11.63-.739-14.716l55.716-27.091a17.587 17.587 0 0113.775-.698z"/>
  <path fill="#83A1B5" stroke="#000" stroke-linecap="round" stroke-linejoin="round" stroke-miterlimit="10" stroke-width="1.24" d="M511.727 450.102a4.849 4.849 0 100-9.698 4.849 4.849 0 000 9.698z"/>
  <path fill="#83A1B5" stroke="#000" stroke-linecap="round" stroke-linejoin="round" stroke-miterlimit="10" stroke-width="1.24" d="M545.269 440.403l27.642 14.565v4.973l3.274 1.221v-11.245l-17.104-11.245 23.101-7.407v4.849l3.352-1.419v-7.613l-38.166 4.454-37.17-2.874v7.718l3.637 1.52v-4.752l20.603 4.087-27.56 15.997v8.843l3.187-1.069v-5.23l35.204-15.373z"/>
  <path fill="#83A1B5" stroke="#000" stroke-linecap="round" stroke-linejoin="round" stroke-miterlimit="10" stroke-width="1.24" d="M508.354 474.864a4.849 4.849 0 100-9.698 4.849 4.849 0 000 9.698z"/>
  <path fill="#83A1B5" stroke="#000" stroke-linecap="round" stroke-linejoin="round" stroke-miterlimit="10" stroke-width="1.24" d="M573.939 473.329a4.848 4.848 0 100-9.697 4.849 4.849 0 000 9.697z"/>
  <path fill="#83A1B5" stroke="#000" stroke-linecap="round" stroke-linejoin="round" stroke-miterlimit="10" stroke-width="1.24" d="M585.535 448.082a4.849 4.849 0 10-.002-9.698 4.849 4.849 0 00.002 9.698z"/>
  <path fill="#83A1B5" stroke="#000" stroke-linecap="round" stroke-linejoin="round" stroke-miterlimit="10" stroke-width="1.24" d="M550.654 435.867c-2.309 2.314-8.462 2.314-10.772 0v-66.883h10.772v66.883z"/>
  <path fill="#83A1B5" stroke="#000" stroke-linecap="round" stroke-linejoin="round" stroke-miterlimit="10" stroke-width="1.24" d="M575.901 355.903c-2.144.046-3.738-1.662-5.092-3.811l7.558-93.175 9.289-.165-7.558 93.175c-.175 2.149-2.053 3.93-4.197 3.976z"/>
  <path fill="#A4E4F7" d="M541.234 264.234l-1.777 15.134a10.08 10.08 0 006.516 10.63l69.651 25.727c4.592 1.695 9.56-1.35 10.134-6.212l1.318-11.218c3.219-27.403-12.747-53.442-38.63-63.002-21.397-7.907-44.553 6.29-47.212 28.941z"/>
  <path fill="#A4E4F7" d="M531.953 340.396l-52.639 24.979c-6.116 2.902-5.744 11.732.597 14.11l45.407 17.027a29.709 29.709 0 0023.174-.978l55.624-26.393c2.278-1.084 2.14-4.372-.22-5.258l-63.577-23.835a10.7 10.7 0 00-8.366.348z"/>
  <path stroke="#000" stroke-linecap="round" stroke-linejoin="round" stroke-miterlimit="10" stroke-width="1.24" d="M501.919 274.709c1.417-4.663-5.802-10.986-16.124-14.122-10.322-3.136-19.838-1.898-21.255 2.766-1.417 4.663 5.802 10.986 16.124 14.122 10.322 3.136 19.838 1.898 21.255-2.766z"/>
  <path fill="#A4E4F7" d="M329.74 295.885l23.276 8.582a7.044 7.044 0 005.45-.243l47.777-22.651c1.51-.716 1.409-2.893-.157-3.472l-23.247-8.54a7.03 7.03 0 00-5.437.243l-47.813 22.61c-1.511.716-1.414 2.897.151 3.471z"/>
  <path stroke="#000" stroke-linecap="round" stroke-linejoin="round" stroke-miterlimit="10" stroke-width="1.24" d="M336.252 325.443l50.376 18.481 101.871-48.291-50.32-18.385-101.927 48.195z"/>
  <path fill="#2C205B" d="M353.476 286.275l16.879-8.003v-52.121l-16.879 8.004v52.12z"/>
  <path fill="#2C205B" d="M283.122 295.886l154.41-72.916a6.137 6.137 0 003.508-5.547V112.962c0-2.456-2.558-4.073-4.775-3.021l-154.41 72.916a6.137 6.137 0 00-3.508 5.547v104.461c0 2.452 2.557 4.073 4.775 3.021z"/>
  <path fill="#A4E4F7" d="M286.786 297.318l154.41-72.916a6.138 6.138 0 003.508-5.547V114.394c0-2.457-2.558-4.073-4.775-3.022l-154.41 72.917a6.135 6.135 0 00-3.508 5.546v104.461c-.005 2.457 2.558 4.073 4.775 3.022z"/>
  <path fill="#83A1B5" stroke="#000" stroke-linecap="round" stroke-linejoin="round" stroke-miterlimit="10" stroke-width="1.24" d="M307.89 178.913l-21.646 10.171v102.941l154.263-72.664V116.415l-124.88 58.861-7.737 3.637z"/>
  <path fill="#A4E4F7" d="M342.541 319.138l53.42 28.285 102.413-48.259-53.392-28.234-102.441 48.208z"/>
  <path fill="#2C205B" d="M395.961 347.423l-53.42-19.713v-8.572l53.42 28.285z"/>
  <path fill="#A4E4F7" d="M503.989 274.09c-.193 4.408-8.279 6.236-18.064 4.073-9.784-2.158-17.563-7.484-17.375-11.897.193-4.408 7.935-9.79 17.72-7.631 9.785 2.162 17.907 11.047 17.719 15.455z"/>
  <path fill="none" stroke="#000" stroke-linecap="round" stroke-linejoin="round" stroke-miterlimit="10" stroke-width="1.24" d="M473.894 273.308s-.262-12.857 13.95-14.262"/>
  <path fill="none" stroke="#000" stroke-linecap="round" stroke-linejoin="round" stroke-miterlimit="10" stroke-width="1.24" d="M472.89 260.585s4.601-.964 8.283.262"/>
  <path stroke="#000" stroke-linecap="round" stroke-linejoin="round" stroke-miterlimit="10" stroke-width="1.24" d="M45.312 500.713l120.619 44.663 120.197-56.982-120.55-44.544-120.266 56.863z"/>
  <path fill="#83A1B5" d="M204.032 559.473l106.615-50.545V393.892l-106.615 50.541v27.082"/>
  <path fill="none" stroke="#000" stroke-linecap="round" stroke-linejoin="round" stroke-miterlimit="10" stroke-width="1.24" d="M204.032 559.473l106.615-50.545V393.892l-106.615 50.541v27.082"/>
  <path fill="#2C205B" d="M97.041 519.622l106.987 39.851v-115.04L97.041 404.82v114.802z"/>
  <path fill="#A4E4F7" d="M97.041 404.821l106.987 39.612 106.614-50.541-106.931-39.516-106.67 50.445z"/>
  <path d="M116.408 395.36s28.602 7.59 57.59-5.06c13.618 4.477 24.322 8.559 24.322 8.559l11.089-5.446-31.908-11.87s3.531-9.077-4.289-12.498"/>
  <path fill="none" stroke="#000" stroke-linecap="round" stroke-linejoin="round" stroke-miterlimit="10" stroke-width="1.24" d="M116.408 395.36s28.602 7.59 57.59-5.06c13.618 4.477 24.322 8.559 24.322 8.559l11.089-5.446-31.908-11.87s3.531-9.077-4.289-12.498"/>
  <path fill="#83A1B5" d="M163.275 323.014l35.852-16.704a7.947 7.947 0 0111.309 7.204v82.94s-1.217 2.989-7.948 2.989c-6.755 0-7.948-2.989-7.948-2.989V325.99l-30.609 14.262"/>
  <path fill="none" stroke="#000" stroke-linecap="round" stroke-linejoin="round" stroke-miterlimit="10" stroke-width="1.24" d="M163.275 323.014l35.852-16.704a7.947 7.947 0 0111.309 7.204v82.94s-1.217 2.989-7.948 2.989c-6.755 0-7.948-2.989-7.948-2.989V325.99l-30.609 14.262"/>
  <path fill="#83A1B5" stroke="#000" stroke-linecap="round" stroke-linejoin="round" stroke-miterlimit="10" stroke-width="1.24" d="M228.229 344.024c25.119-32.349 23.646-75.529-3.29-96.446-26.937-20.916-69.137-11.65-94.256 20.699-25.119 32.348-23.646 75.528 3.291 96.445 26.936 20.917 69.136 11.65 94.255-20.698z"/>
  <path fill="#2C205B" d="M219.526 337.265c25.119-32.348 25.594-74.015 1.061-93.066-24.533-19.05-64.785-8.271-89.904 24.078-25.119 32.348-25.594 74.015-1.061 93.066s64.784 8.271 89.904-24.078z"/>
  <path fill="none" stroke="#000" stroke-linecap="round" stroke-linejoin="round" stroke-miterlimit="10" stroke-width="1.24" d="M175.172 307.122l-110.757-37.45"/>
  <path fill="#83A1B5" stroke="#000" stroke-linecap="round" stroke-linejoin="round" stroke-miterlimit="10" stroke-width="1.24" d="M60.547 266.196c-1.979.514-3.807 2.571-4.569 5.441-.762 2.87-.239 5.749 1.153 7.452l-.165.62 19.937 7.016c2.682.942 5.694-1.455 6.727-5.358 1.033-3.903-.298-7.834-2.98-8.775l-19.937-7.016-.166.62z"/>
  <path fill="#2C205B" d="M63.827 273.326c.737-3.982-.916-7.627-3.694-8.142-2.778-.514-5.627 2.297-6.365 6.279-.738 3.983.916 7.628 3.694 8.142 2.778.515 5.628-2.296 6.365-6.279z"/>
  <path stroke="#000" stroke-linecap="round" stroke-linejoin="round" stroke-miterlimit="10" stroke-width="1.24" d="M218.989 423.962c.67-2.997-3.753-6.536-9.878-7.904-6.125-1.368-11.633-.048-12.303 2.949-.669 2.997 3.753 6.536 9.879 7.904 6.125 1.368 11.633.048 12.302-2.949z"/>
  <path fill="#FAC4DC" d="M219.613 417.709c-1.447-1.428-4.675-2.42-8.426-2.42-3.747 0-6.975.992-8.426 2.42h-.813v5.882c0 2.268 4.138 4.11 9.239 4.11s9.238-1.842 9.238-4.11v-5.882h-.812z"/>
  <path fill="#FAC4DC" d="M211.187 421.68c5.102 0 9.238-1.84 9.238-4.109 0-2.27-4.136-4.11-9.238-4.11-5.102 0-9.239 1.84-9.239 4.11 0 2.269 4.137 4.109 9.239 4.109z"/>
  <path stroke="#000" stroke-linecap="round" stroke-linejoin="round" stroke-miterlimit="10" stroke-width="1.24" d="M244.572 411.966c.67-2.997-3.753-6.536-9.878-7.904-6.125-1.368-11.633-.048-12.303 2.949-.669 2.997 3.753 6.536 9.879 7.904 6.125 1.368 11.633.048 12.302-2.949z"/>
  <path fill="#FAC4DC" d="M245.196 405.708c-1.447-1.428-4.675-2.425-8.426-2.425-3.747 0-6.975.997-8.426 2.425h-.813v5.882c0 2.268 4.138 4.109 9.239 4.109s9.238-1.841 9.238-4.109v-5.882h-.812z"/>
  <path fill="#FAC4DC" d="M236.77 409.679c5.102 0 9.238-1.84 9.238-4.109 0-2.27-4.136-4.11-9.238-4.11s-9.239 1.84-9.239 4.11c0 2.269 4.137 4.109 9.239 4.109z"/>
  <path stroke="#000" stroke-linecap="round" stroke-linejoin="round" stroke-miterlimit="10" stroke-width="1.24" d="M270.15 400.044c.67-2.997-3.753-6.536-9.878-7.904-6.125-1.368-11.633-.048-12.303 2.949-.669 2.997 3.753 6.536 9.879 7.904 6.125 1.368 11.633.048 12.302-2.949z"/>
  <path fill="#6565FC" d="M270.773 393.787c-1.446-1.428-4.674-2.425-8.426-2.425-3.747 0-6.975.997-8.426 2.425h-.812v5.882c0 2.268 4.137 4.109 9.238 4.109 5.102 0 9.239-1.841 9.239-4.109v-5.882h-.813z"/>
  <path fill="#6565FC" d="M262.354 397.758c5.102 0 9.238-1.84 9.238-4.109 0-2.27-4.136-4.11-9.238-4.11s-9.239 1.84-9.239 4.11c0 2.269 4.137 4.109 9.239 4.109z"/>
  <path stroke="#000" stroke-linecap="round" stroke-linejoin="round" stroke-miterlimit="10" stroke-width="1.24" d="M321.699 630.4c-9.606 2.585-.941 20.699-84.12-10.433-49.237-18.426-86.255-41.054-82.752-50.366 3.504-9.312 46.23-1.855 95.434 16.65 49.205 18.504 95.902 37.564 71.438 44.149z"/>
  <path fill="#FFF" d="M241.767 491.835s1.189 16.879 6.121 19.382c4.931 2.502 11.786 0 11.786 0v-19.382"/>
  <path fill="none" stroke="#000" stroke-linecap="round" stroke-linejoin="round" stroke-miterlimit="10" stroke-width="1.24" d="M241.767 491.835s1.189 16.879 6.121 19.382c4.931 2.502 11.786 0 11.786 0v-19.382"/>
  <path fill="#A4E4F7" d="M259.68 385.004s-8.086 3.912-10.951 19.221c-8.067 43.116-6.956 87.609-6.956 87.609s7.714 5.469 17.907 2.967"/>
  <path fill="#6565FC" d="M298.165 640.193a10.967 10.967 0 008.481-.358l23.928-11.92c2.782-1.387 2.727-5.377-.092-6.685l-7.186-3.339a6.834 6.834 0 00-4.73-.385l-22.067 6.162-7.159 8.15c-1.552 1.768-.881 4.537 1.304 5.404l7.521 2.971z"/>
  <path fill="#6565FC" d="M260.37 626.789a10.965 10.965 0 008.48-.358l23.928-11.92c2.782-1.387 2.727-5.378-.092-6.686l-7.186-3.338a6.834 6.834 0 00-4.73-.386l-22.067 6.162-7.159 8.15c-1.552 1.768-.881 4.537 1.304 5.405l7.522 2.971z"/>
  <path fill="#FAC4DC" d="M313.817 469.546v160.567c-15.419 4.266-24.479-.441-24.479-.441V484.299l-12.856-4.752v136.8s-13.174 4.252-23.661 0V449.65l60.996 19.896z"/>
  <path fill="#00AAED" d="M252.825 449.65s29.539 23.064 60.997 19.896v-59.151c0-20.855-60.997-51.11-60.997-6.469v45.724z"/>
  <path fill="#FFF" d="M252.812 512.175s-9.459 1.391-10.666-3.247c-1.208-4.637 10.574-6.864 10.574-6.864v10.482"/>
  <path fill="none" stroke="#000" stroke-linecap="round" stroke-linejoin="round" stroke-miterlimit="10" stroke-width="1.24" d="M252.812 512.175s-9.459 1.391-10.666-3.247c-1.208-4.637 10.574-6.864 10.574-6.864v10.482"/>
  <path fill="#FFF" stroke="#000" stroke-linecap="round" stroke-linejoin="round" stroke-miterlimit="10" stroke-width="1.24" d="M284.793 385.485c9.337-.664 16.208-11.018 15.347-23.128-.86-12.109-9.127-21.387-18.464-20.724-9.336.664-16.208 11.018-15.347 23.128.861 12.109 9.127 21.387 18.464 20.724z"/>
  <path stroke="#000" stroke-linecap="round" stroke-linejoin="round" stroke-miterlimit="10" stroke-width="1.24" d="M298.111 353.28c.868-.363 1.63-.51 2.333-1.139.707-.625 1.212-1.557 1.083-2.493-.22-1.598-2.098-2.521-2.465-4.092-.326-1.377.601-2.695 1.033-4.04.886-2.755-.583-6.066-3.228-7.251-.391-.174-.818-.307-1.24-.252-.491.064-.914.381-1.391.509-1.056.285-2.126-.372-2.976-1.056-1.836-1.478-3.453-3.274-5.528-4.394-2.076-1.12-4.858-1.405-6.649.133-.987.845-1.511 2.094-2.19 3.205-.68 1.107-1.69 2.186-2.985 2.264-.757.046-1.487-.253-2.19-.533a40.6 40.6 0 00-9.257-2.415c-2.158-.298-4.518-.376-6.332.831-2.254 1.497-2.906 4.945-1.354 7.163.578.822 1.396 1.474 1.873 2.36.909 1.704.335 3.816-.542 5.534-.881 1.717-2.061 3.337-2.397 5.234-.087.482-.11 1.006.111 1.446.215.437.629.726 1.005 1.029 1.447 1.152 2.636 2.966 2.204 4.761-.303 1.258-1.318 2.195-2.14 3.196-.821 1.001-1.501 2.356-1.001 3.55.63 1.497 2.65 1.772 3.784 2.929.895.914 1.139 2.259 1.63 3.444.491 1.18 1.547 2.374 2.81 2.181.749-.115 1.332-.684 1.837-1.244 1.198-1.341 9.372 8.889 10.244 7.314 2.948.165 2.039-3.981 4.987-3.82 1.556.087 3.195.156 4.591-.547 1.391-.702 2.379-2.465 1.681-3.861-.285-.565-.818-1.061-.781-1.694.028-.455.358-.832.698-1.144a8.577 8.577 0 015.515-2.218c1.538-.036 3.476.152 4.215-1.198.771-1.405-.592-3.196-.078-4.716.344-1.019 1.414-1.584 2.084-2.429 1.24-1.575 1.401-4.564 1.006-6.547z"/>
  <path stroke="#000" stroke-linecap="round" stroke-linejoin="round" stroke-miterlimit="10" stroke-width="1.24" d="M805.578 493.679c-5.914 18.169-52.956-6.291-91.531 5-44.447-14.128-73.751-42.542-69.421-56.156 4.329-13.615 42.381-10.189 86.828 3.939 44.444 14.124 78.454 33.598 74.124 47.217z"/>
  <path fill="#FFF" d="M734.057 372.119s1.106 15.667 5.684 17.991c4.578 2.323 10.942 0 10.942 0v-17.991"/>
  <path fill="none" stroke="#000" stroke-linecap="round" stroke-linejoin="round" stroke-miterlimit="10" stroke-width="1.24" d="M734.057 372.119s1.106 15.667 5.684 17.991c4.578 2.323 10.942 0 10.942 0v-17.991"/>
  <path fill="#6565FC" d="M750.686 272.957s-6.364 3.894-10.166 17.839c-2.25 8.247-6.456 81.319-6.456 81.319s7.158 5.078 16.622 2.755"/>
  <path fill="#00AAED" d="M779.651 499.109l8.44 3.126c2.369.877 4.982.855 7.333-.064l9.013-3.517a15.752 15.752 0 003.875-2.19l6.874-5.308c2.599-1.222 2.976-4.762.694-6.497l-14.12-9.299-12.003 14.106-10.414 6.148c-1.414.831-1.226 2.925.308 3.495z"/>
  <path fill="#00AAED" d="M714.635 499.557l8.155 3.72c2.516 1.148 5.487 1.313 8.242.459l23.661-7.356c2.893-.9 3.839-4.216 1.736-6.084l-10.07-8.949-31.609 14.84c-1.547.721-1.612 2.69-.115 3.37z"/>
  <path fill="#2C205B" d="M800.936 351.43v68.306l14.253 64.399c-14.312 3.958-22.72-.409-22.72-.409l-14.252-61.924v-56.679l-11.934-4.409-8.949 54.55-3.187 72.783s-12.228 3.949-21.962 0l3.186-72.783 8.95-82.297 56.615 18.463z"/>
  <path fill="#6565FC" d="M744.321 332.967s27.417 21.411 56.615 18.468v-54.908c0-19.358-56.615-47.441-56.615-6.006v42.446z"/>
  <path fill="#FFF" stroke="#000" stroke-linecap="round" stroke-linejoin="round" stroke-miterlimit="10" stroke-width="1.24" d="M786.776 255.739c.801-11.242-5.577-20.856-14.246-21.474-8.669-.617-16.346 7.995-17.147 19.236-.802 11.242 5.577 20.855 14.246 21.473 8.668.618 16.345-7.994 17.147-19.235z"/>
  <path fill="#FFF" d="M766.74 254.771l-4.991 3.012a2.83 2.83 0 00-.951 3.898 2.833 2.833 0 003.853.96l4.816-2.852"/>
  <path fill="none" stroke="#000" stroke-linecap="round" stroke-linejoin="round" stroke-miterlimit="10" stroke-width="1.24" d="M766.74 254.771l-4.991 3.012a2.83 2.83 0 00-.951 3.898 2.833 2.833 0 003.853.96l4.816-2.852"/>
  <path stroke="#000" stroke-linecap="round" stroke-linejoin="round" stroke-miterlimit="10" stroke-width="1.24" d="M774.163 254.482c.528 0 .955-.724.955-1.617 0-.892-.427-1.616-.955-1.616-.527 0-.955.724-.955 1.616 0 .893.428 1.617.955 1.617z"/>
  <path stroke="#000" stroke-linecap="round" stroke-linejoin="round" stroke-miterlimit="10" stroke-width="1.24" d="M762.266 253.058c.527 0 .955-.724.955-1.616 0-.893-.428-1.617-.955-1.617-.528 0-.955.724-.955 1.617 0 .892.427 1.616.955 1.616z"/>
  <path fill="none" stroke="#000" stroke-linecap="round" stroke-linejoin="round" stroke-miterlimit="10" stroke-width="1.24" d="M763.433 263.03s4.927 6.282 13.16 0"/>
  <path fill="#00AAED" d="M786.042 259.573s7.112-22.146 4.536-29.185c-4.642-12.682-30.195.859-31.641-10.914-9.735 7.7-1.69 25.557-1.69 25.557s3.155-8.159 11.314-7.558c16.865 1.249 17.481 22.1 17.481 22.1z"/>
  <path stroke="#000" stroke-linecap="round" stroke-linejoin="round" stroke-miterlimit="10" stroke-width="1.24" d="M517.404 610.643c-13.876-1.726 20.925 35.044-33.473 9.689-54.398-25.36-91.825-56.193-85.915-68.866 5.909-12.678 54.797-2.393 109.195 22.963 54.393 25.36 89.694 46.096 10.193 36.214z"/>
  <path fill="#FFF" stroke="#000" stroke-linecap="round" stroke-linejoin="round" stroke-miterlimit="10" stroke-width="1.24" d="M567.107 411.401c7.815 38.832 5.974 82.577 5.974 82.577s.377 12.526-4.403 15.198c-4.78 2.672-11.42.904-11.42.904V394.595c0-.005 7.071 3.017 9.849 16.806z"/>
  <path fill="#6565FC" d="M519.976 631.049c-2.672 1.148-5.634 1.262-8.214.326l-23.179-9.069c-2.695-1.056-2.645-4.711.087-6.125l6.961-3.609c1.433-.744 3.058-.997 4.583-.716l21.379 3.944 6.933 6.906c1.502 1.497.854 4.086-1.263 5.042l-7.287 3.301z"/>
  <path fill="#6565FC" d="M556.591 615.883c-2.673 1.148-5.634 1.263-8.215.326l-23.179-9.069c-2.695-1.056-2.645-4.711.088-6.125l6.961-3.609c1.432-.744 3.058-.997 4.582-.717l21.379 3.945 6.933 6.906c1.502 1.496.855 4.086-1.262 5.041l-7.287 3.302z"/>
  <path fill="#00AAED" d="M504.809 476.107v146.925c14.937 2.718 23.711-2.282 23.711-2.282V487.728l12.453-5.336v125.179s12.76 2.879 22.922-1.818V453.222l-59.086 22.885z"/>
  <path fill="none" stroke="#000" stroke-linecap="round" stroke-linejoin="round" stroke-miterlimit="10" stroke-width="1.24" d="M504.809 476.107v146.925c14.937 2.718 23.711-2.282 23.711-2.282V487.728l12.453-5.336v125.179s12.76 2.879 22.922-1.818V453.222l-59.086 22.885z"/>
  <path fill="#2C205B" d="M563.901 453.217s-28.611 23.372-59.086 22.89V421.98c0-19.083 59.086-51.45 59.086-10.602v41.839z"/>
  <path fill="#FFF" d="M563.915 510.431s9.165.546 10.332-3.788c1.166-4.335-10.244-5.469-10.244-5.469v9.592"/>
  <path fill="none" stroke="#000" stroke-linecap="round" stroke-linejoin="round" stroke-miterlimit="10" stroke-width="1.24" d="M563.915 510.431s9.165.546 10.332-3.788c1.166-4.335-10.244-5.469-10.244-5.469v9.592"/>
  <path fill="#FFF" stroke="#000" stroke-linecap="round" stroke-linejoin="round" stroke-miterlimit="10" stroke-width="1.24" d="M506.7 415.773c8.43-12.986 13.449 2.723 10.579 18.66 0 0-6.382 31.15-7.278 84.01l1.033 16.838s-14.643-1.024-15.676-16.144c-.004 0-.574-85.011 11.342-103.364z"/>
  <path fill="#FFF" d="M511.029 535.28c6.337.9 5.391-8.192 1.35-10.166-4.045-1.97-10.781-.165-10.781-.165"/>
  <path fill="none" stroke="#000" stroke-linecap="round" stroke-linejoin="round" stroke-miterlimit="10" stroke-width="1.24" d="M511.029 535.28c6.337.9 5.391-8.192 1.35-10.166-4.045-1.97-10.781-.165-10.781-.165"/>
  <path stroke="#000" stroke-linecap="round" stroke-linejoin="round" stroke-miterlimit="10" stroke-width="1.24" d="M512.327 392.276s-9.909-5.978-4.872-17.696c5.037-11.718-3.87-23.56 16.044-32.073 14.496-6.199 23.44 3.044 31.917 3.407 18.192.776 21.232 18.55 14.702 30.415-6.529 11.865-6.809 11.158-4.197 18.546 2.613 7.388-6.974 13.068-16.341 9.303-7.848-3.159-14.675 9.946-23.303 7.572-8.628-2.374-7.765-15.419-13.95-19.474z"/>
  <path fill="#6565FC" d="M448.582 699.379l-27.389 13.008 22.228 8.284 5.161-21.292z"/>
  <path stroke="#000" stroke-linecap="round" stroke-linejoin="round" stroke-miterlimit="10" stroke-width="1.24" d="M448.581 699.379l-5.157 21.292 22.646 8.439 10.414-42.983-27.903 13.252z"/>
  <path stroke="#000" stroke-linecap="round" stroke-linejoin="round" stroke-miterlimit="10" stroke-width="1.24" d="M448.582 699.379l-5.161 21.292h.005l5.156-21.292z"/>
  <path fill="#6565FC" d="M489.581 733.996l14.808-61.125-27.904 13.256-10.413 42.983 18.94 7.058 4.569-2.172z"/>
  <path fill="#6565FC" d="M466.072 729.11l10.413-42.983-10.413 42.983z"/>
  <path stroke="#000" stroke-linecap="round" stroke-linejoin="round" stroke-miterlimit="10" stroke-width="1.24" d="M532.294 659.613L504.39 672.87h.005l-14.813 61.124 27.904-13.256v.005l14.808-61.13z"/>
  <path stroke="#000" stroke-linecap="round" stroke-linejoin="round" stroke-miterlimit="10" stroke-width="1.24" d="M504.39 672.871l-14.808 61.125 14.813-61.125h-.005z"/>
  <path fill="#6565FC" d="M560.195 646.363l-27.904 13.252h.004l-14.812 61.124 27.903-13.251 14.809-61.125z"/>
  <path fill="#6565FC" d="M532.291 659.613l-14.808 61.13v-.005l14.812-61.125h-.004z"/>
  <path stroke="#000" stroke-linecap="round" stroke-linejoin="round" stroke-miterlimit="10" stroke-width="1.24" d="M588.105 633.108l-27.908 13.256h.005l-14.813 61.125 27.904-13.257 14.808-61.124h.004z"/>
  <path stroke="#000" stroke-linecap="round" stroke-linejoin="round" stroke-miterlimit="10" stroke-width="1.24" d="M560.197 646.363l-14.808 61.125 14.813-61.125h-.005z"/>
  <path fill="#6565FC" d="M616.007 619.85l-27.904 13.256-14.808 61.125h-.005l27.904-13.252 14.808-61.125.005-.004z"/>
  <path fill="#6565FC" d="M588.103 633.108h-.004l-14.809 61.124h.005l14.808-61.124z"/>
  <path stroke="#000" stroke-linecap="round" stroke-linejoin="round" stroke-miterlimit="10" stroke-width="1.24" d="M643.912 606.594l-27.904 13.256-14.808 61.125-.004.004 27.903-13.256 14.809-61.125.004-.004z"/>
  <path stroke="#000" stroke-linecap="round" stroke-linejoin="round" stroke-miterlimit="10" stroke-width="1.24" d="M616.008 619.85l-.004.004-14.808 61.125.004-.005 14.808-61.124z"/>
  <path fill="#6565FC" d="M671.809 593.342l-27.899 13.252-14.808 61.129h-.005l27.908-13.256h-.004l14.808-61.125z"/>
  <path fill="#6565FC" d="M643.91 606.594l-.005.004-14.808 61.125h.005l14.808-61.129z"/>
  <path stroke="#000" stroke-linecap="round" stroke-linejoin="round" stroke-miterlimit="10" stroke-width="1.24" d="M699.718 580.086l-27.908 13.256h.004l-14.808 61.125 27.904-13.256-.005.005 14.813-61.13z"/>
  <path stroke="#000" stroke-linecap="round" stroke-linejoin="round" stroke-miterlimit="10" stroke-width="1.24" d="M671.811 593.342l-14.808 61.125h.005l14.808-61.125h-.005z"/>
  <path fill="#6565FC" d="M727.624 566.835l-27.903 13.251-14.809 61.125 27.904-13.251h-.004l14.812-61.125z"/>
  <path fill="#6565FC" d="M699.721 580.086l-14.813 61.13.005-.005 14.808-61.125z"/>
  <path stroke="#000" stroke-linecap="round" stroke-linejoin="round" stroke-miterlimit="10" stroke-width="1.24" d="M755.525 553.577l-27.904 13.257-14.808 61.124 27.899-13.256 14.813-61.125z"/>
  <path stroke="#000" stroke-linecap="round" stroke-linejoin="round" stroke-miterlimit="10" stroke-width="1.24" d="M727.626 566.835l-14.813 61.125h.004l14.809-61.125z"/>
  <path fill="#6565FC" d="M783.433 540.321l-27.904 13.257-14.808 61.124h-.005l27.908-13.251 14.809-61.13z"/>
  <path fill="#6565FC" d="M755.529 553.577l-14.813 61.125h.005l14.808-61.125z"/>
  <path stroke="#000" stroke-linecap="round" stroke-linejoin="round" stroke-miterlimit="10" stroke-width="1.24" d="M811.338 527.07l-27.908 13.252-14.809 61.125v.004l27.904-13.256 14.808-61.125h.005z"/>
  <path stroke="#000" stroke-linecap="round" stroke-linejoin="round" stroke-miterlimit="10" stroke-width="1.24" d="M783.43 540.321l-14.809 61.13v-.005l14.809-61.125z"/>
  <path fill="#6565FC" d="M839.238 513.816l-27.9 13.255-14.812 61.125 27.903-13.256 14.809-61.124z"/>
  <path fill="#6565FC" d="M811.338 527.07h-.004l-14.808 61.125 14.812-61.125z"/>
  <path stroke="#000" stroke-linecap="round" stroke-linejoin="round" stroke-miterlimit="10" stroke-width="1.24" d="M867.144 500.563l-27.904 13.251h.005l-14.813 61.125 27.904-13.256v.004l14.808-61.124z"/>
  <path stroke="#000" stroke-linecap="round" stroke-linejoin="round" stroke-miterlimit="10" stroke-width="1.24" d="M839.24 513.816l-14.808 61.124 14.813-61.124h-.005z"/>
  <path fill="#6565FC" d="M895.046 487.307l-27.904 13.256.005-.004-14.813 61.124 27.909-13.252h-.005l14.808-61.124z"/>
  <path fill="#6565FC" d="M867.142 500.562l-14.808 61.125v-.005l14.813-61.124-.005.004z"/>
  <path stroke="#000" stroke-linecap="round" stroke-linejoin="round" stroke-miterlimit="10" stroke-width="1.24" d="M895.046 487.306h.005l-14.809 61.125 27.9-13.256 10.643-43.929-17.949-6.69-5.79 2.75z"/>
  <path stroke="#000" stroke-linecap="round" stroke-linejoin="round" stroke-miterlimit="10" stroke-width="1.24" d="M895.047 487.307l-14.808 61.124h.004l14.808-61.124h-.004z"/>
  <path fill="#6565FC" d="M918.793 491.245l-10.644 43.929h-.004l27.903-13.252 5.391-22.242-22.646-8.435z"/>
  <path fill="#6565FC" d="M918.793 491.245h-.005l-10.643 43.929h.004l10.644-43.929z"/>
  <path stroke="#000" stroke-linecap="round" stroke-linejoin="round" stroke-miterlimit="10" stroke-width="1.24" d="M936.051 521.918l-.005.005 27.908-13.256.134-.547-22.651-8.439-5.386 22.237z"/>
  <path stroke="#000" stroke-linecap="round" stroke-linejoin="round" stroke-miterlimit="10" stroke-width="1.24" d="M941.437 499.681l-5.391 22.242.005-.005 5.386-22.237z"/>
  <path stroke="#000" stroke-linecap="round" stroke-linejoin="round" stroke-miterlimit="10" stroke-width="1.24" d="M977.143 540.467c1.682-15.408-24.908-30.95-59.389-34.713-34.482-3.763-63.799 5.676-65.48 21.085-1.682 15.408 24.908 30.949 59.39 34.713 34.481 3.763 63.797-5.677 65.479-21.085z"/>
  <path fill="#2C205B" d="M944.41 393.424s10.093-31.265 32.207-40.062c28.845-11.475 46.745 39.695 46.745 39.695s-20.4-31.022-37.066-33.662c20.346 13.922 32.236 41.647 32.236 41.647s-33.747-38.479-44.372-36.775c22.43 18.082 31.352 42.023 31.352 42.023s-29.979-37.041-39.452-36.729c19.203 21.228 26.214 40.297 26.214 40.297s-16.167-26.246-31.774-34.167c19.739 21.884 16.117 33.327 16.117 33.327s-10.534-23.726-19.501-29.594c5.546 11.273 7.02 33.166 7.02 33.166l-12.971-26.609-6.755 7.443z"/>
  <path fill="#2C205B" d="M944.98 380.034s3.802-37.165-35.439-52.322c-19.593-7.567-20.92 42.207-20.92 42.207s5.001-28.808 14.065-33.786c-5.4 17.518-5.244 44.866-5.244 44.866s7.87-41.675 15.442-41.22c-4.505 22.242-3.421 45.527-3.421 45.527s5.202-40.017 11.314-40.903c-.813 25.185.455 44.227.455 44.227s.679-27.899 6.286-38.391c-.804 25.957 3.003 34.598 3.003 34.598s-1.419-23.61 1.102-31.044c2.488 12.774 3.981 27.279 3.981 27.279l3.228-21.03 6.148 19.992z"/>
  <path fill="#2C205B" d="M944.414 392.708s-23.156-22.715-45.871-20.58c-22.72 2.135-22.192 60.918-22.192 60.918s4.311-35.673 14.634-47.056c-5.377 23.193-3.738 53.934-3.738 53.934s6.975-52.005 15.851-56.321c-4.078 27.949-1.58 53.52-1.58 53.52s3.949-48.442 11.043-53.332c.39 28.918 2.884 49.586 2.884 49.586s-.689-31.894 5.298-47.295c.441 29.782 5.345 37.106 5.345 37.106s-2.916-25.719-.363-35.71c3.586 12.82 6.103 28.225 6.103 28.225l2.654-25.773 9.932 2.778z"/>
  <path fill="#6565FC" d="M984.689 479.944c.275.873.422 1.759.422 2.664 0 11.103-21.535 20.098-48.098 20.098s-48.098-9-48.098-20.098c0-.905.147-1.791.422-2.664-3.884 7.434-6.079 15.883-6.079 24.851 0 29.69 24.07 53.759 53.755 53.759 29.69 0 53.755-24.069 53.755-53.759a53.56 53.56 0 00-6.079-24.851z"/>
  <path fill="#6565FC" d="M984.69 479.945c-.45-1.419-1.253-2.796-2.378-4.105-6.649-7.769-24.419-13.334-45.302-13.334s-38.653 5.561-45.302 13.334c-1.12 1.309-1.928 2.686-2.378 4.105a8.784 8.784 0 00-.423 2.664c0 11.102 21.536 20.097 48.098 20.097 26.563 0 48.098-8.999 48.098-20.097a8.475 8.475 0 00-.413-2.664z"/>
  <path fill="#A4E4F7" d="M937.014 502.705c21.599 0 39.874-5.95 45.949-14.142a14.126 14.126 0 00-.648-.817c-6.648-7.77-24.418-13.335-45.301-13.335s-38.653 5.561-45.302 13.335c-.229.27-.445.541-.647.817 6.075 8.196 24.349 14.142 45.949 14.142z"/>
  <path fill="#2C205B" d="M947.048 359.565s-4.849-27.793 14.152-47.001c19.533-19.744 22.683 19.308 22.683 19.308s-7.398-16.034-12.605-19.73c5.671 10.272 6.512 33.395 6.512 33.395s-2.939-15.543-11.342-28.776c4.83 22.206 3.793 31.504 3.793 31.504l-7.572-24.993 1.258 25.948-6.722-17.352-.629 17.352-4.619-10.253c.004.004-2.044 8.228-4.909 20.598z"/>
  <path fill="#FAC4DC" d="M947.047 357.779l-12.039 132.246h4.945l7.094-132.246z"/>
  <path stroke="#000" stroke-linecap="round" stroke-linejoin="round" stroke-miterlimit="10" stroke-width="1.24" d="M626.705 220.372l-111.753-42.905V2l111.753 42.905v175.467z"/>
  <path fill="#FFF" stroke="#000" stroke-linecap="round" stroke-linejoin="round" stroke-miterlimit="10" stroke-width="1.24" d="M599.868 178.226l-15.773-6.057v-45.645l-8.196-3.146v45.646l-15.777-6.056v-45.646l-8.196-3.146v45.642l-15.777-6.057V79.188l15.777 6.057v.22l23.973-55.39L519.081 8.26v165.737l103.488 39.732V141.3l-22.701-8.72v45.646z"/>
  <path fill="#6565FC" d="M575.898 30.073l-23.973 55.39v28.712l8.196 3.145V88.388l15.777 6.057v28.933l8.196 3.145V97.594l15.773 6.056v28.927l22.701 8.72v-18.771l-30.585-86.278-16.085-6.175z"/>
  <path fill="#FFF" stroke="#000" stroke-linecap="round" stroke-linejoin="round" stroke-miterlimit="10" stroke-width="1.24" d="M591.983 36.251l30.585 86.278V47.997l-30.585-11.746z"/>
  <path fill="#FFF" stroke="#000" stroke-linecap="round" stroke-linejoin="round" stroke-miterlimit="10" stroke-width="1.24" d="M551.928 114.176V85.464l-10.652 24.621 10.652 4.091z"/>
  <path fill="#FAC4DC" d="M536.151 79.188v74.573l15.777 6.057v-45.642l-10.653-4.091 10.653-24.621v-.22l-15.777-6.056z"/>
  <path fill="#83A1B5" stroke="#000" stroke-linecap="round" stroke-linejoin="round" stroke-miterlimit="10" stroke-width="1.24" d="M575.898 94.445l-15.777-6.057v28.932l15.777 6.057V94.445z"/>
  <path fill="#6565FC" d="M575.898 169.024v-45.646l-15.777-6.057v45.646l15.777 6.057z"/>
  <path fill="#6565FC" d="M599.866 178.226V132.58l-15.773-6.056v45.645l15.773 6.057z"/>
  <path fill="#FAC4DC" d="M599.866 103.652l-15.773-6.056v28.927l15.773 6.057v-28.928z"/>
  <g id="hand1">
    <path fill="#A4E4F7" d="M300.4 424.696s3.143 34.498.938 92.158c9.535 5.719 16.742-.391 16.742-.391s5.63-92.79-5.615-112.452c-7.963-13.916-14.086 3.381-12.065 20.685z"/>
    <path fill="#FFF" stroke="#000" stroke-linecap="round" stroke-linejoin="round" stroke-miterlimit="10" stroke-width="1.24" d="M301.34 516.855l-.452 17.707s15.223-1.563 17.192-18.094c-7.496 3.851-16.74.387-16.74.387z"/>
    <path fill="#FFF" d="M300.894 534.558c-6.611 1.172-5.096-8.774-.792-11.051 4.304-2.273 11.174-.506 11.174-.506"/>
    <path fill="none" stroke="#000" stroke-linecap="round" stroke-linejoin="round" stroke-miterlimit="10" stroke-width="1.24" d="M300.894 534.558c-6.611 1.172-5.096-8.774-.792-11.051 4.304-2.273 11.174-.506 11.174-.506"/>
  </g>
  <g id="hand2">
    <path fill="#FFF" stroke="#000" stroke-linecap="round" stroke-linejoin="round" stroke-miterlimit="10" stroke-width="1.24" d="M783.388 402.789l-.303-8.073a13.41 13.41 0 011.107-5.904l6.098-13.881s3.494-2.714 6.694 0c3.201 2.713 3.366 9.202 3.366 9.202l-4.247 9.266.312 10.363c.032 1.056-.583 1.988-1.46 2.218l-5.478 1.451c-.941.248-1.924.046-2.732-.565l-2.158-1.625c-.716-.546-1.162-1.461-1.199-2.452z"/>
    <path fill="#6565FC" d="M798.346 289.157c9.17 14.57 12.494 20.81 20.681 42.014 3.2 8.288-1.694 19.083-18.674 52.961 0 0-2.847-8.683-10.061-9.202 9.197-16.53 15.456-38.166 15.456-38.166a3675.72 3675.72 0 00-14.427-29.593"/>
    <path fill="none" stroke="#000" stroke-linecap="round" stroke-linejoin="round" stroke-miterlimit="10" stroke-width="1.24" d="M786.429 406.626l-.482-12.324"/>
    <path fill="none" stroke="#000" stroke-linecap="round" stroke-linejoin="round" stroke-miterlimit="10" stroke-width="1.24" d="M790.287 407.214l-.588-12.485"/>
    <path fill="none" stroke="#000" stroke-linecap="round" stroke-linejoin="round" stroke-miterlimit="10" stroke-width="1.24" d="M793.643 406.328l-.487-9.27"/>
    <path fill="#FFF" stroke="#000" stroke-linecap="round" stroke-linejoin="round" stroke-miterlimit="10" stroke-width="1.24" d="M782.969 391.589l-2.539 6.685.505.12c.799.188 1.63-.046 2.264-.647l-.23-6.158z"/>
  </g>
  <g id="bubble1">
    <path fill="#2C205B" d="M588.891 373.448c-3.311-3.826-5.534-8.654-6.026-13.907-1.164-12.419 7.744-22.476 19.895-22.471l49.174.024c12.156.004 22.953 10.076 24.117 22.494 1.164 12.419-7.743 22.481-19.895 22.471l-42.132-.019-7.046-.004-28.158-.015 10.071-8.573z"/>
    <path fill="#FFF" stroke="#000" stroke-linecap="round" stroke-linejoin="round" stroke-miterlimit="10" stroke-width="1.288" d="M648.072 363.077c1.761-1.48 1.867-4.253.237-6.194-1.631-1.94-4.381-2.314-6.142-.834-1.761 1.479-1.867 4.252-.237 6.193 1.631 1.941 4.381 2.315 6.142.835z"/>
    <path fill="#FFF" stroke="#000" stroke-linecap="round" stroke-linejoin="round" stroke-miterlimit="10" stroke-width="1.288" d="M632.5 363.072c1.761-1.48 1.867-4.252.237-6.193-1.631-1.941-4.381-2.315-6.142-.835-1.761 1.479-1.867 4.252-.237 6.193 1.631 1.941 4.381 2.315 6.142.835z"/>
    <path fill="#FFF" stroke="#000" stroke-linecap="round" stroke-linejoin="round" stroke-miterlimit="10" stroke-width="1.288" d="M616.924 363.062c1.761-1.479 1.867-4.252.236-6.193-1.63-1.941-4.38-2.315-6.141-.835-1.762 1.48-1.868 4.253-.237 6.194 1.631 1.94 4.38 2.314 6.142.834z"/>
  </g>
  <g id="bubble2">
    <path fill="#2C205B" d="M730.91 239.291c3.311-3.826 5.534-8.654 6.026-13.907 1.164-12.419-7.744-22.476-19.895-22.471l-49.174.024c-12.156.004-22.953 10.076-24.117 22.494-1.164 12.419 7.743 22.481 19.895 22.471l42.132-.019 7.046-.004 28.158-.015-10.071-8.573z"/>
    <path fill="#FFF" stroke="#000" stroke-linecap="round" stroke-linejoin="round" stroke-miterlimit="10" stroke-width="1.288" d="M671.729 228.92c-1.761-1.48-1.867-4.253-.237-6.194 1.631-1.94 4.381-2.314 6.142-.834 1.761 1.479 1.867 4.252.237 6.193-1.631 1.941-4.381 2.315-6.142.835z"/>
    <path fill="#FFF" stroke="#000" stroke-linecap="round" stroke-linejoin="round" stroke-miterlimit="10" stroke-width="1.288" d="M687.301 228.915c-1.761-1.48-1.867-4.252-.237-6.193 1.631-1.941 4.381-2.315 6.142-.835 1.761 1.479 1.867 4.252.237 6.193-1.631 1.941-4.381 2.315-6.142.835z"/>
    <path fill="#FFF" stroke="#000" stroke-linecap="round" stroke-linejoin="round" stroke-miterlimit="10" stroke-width="1.288" d="M702.877 228.905c-1.761-1.479-1.867-4.252-.236-6.193 1.63-1.941 4.38-2.315 6.141-.835 1.762 1.48 1.868 4.253.237 6.194-1.631 1.94-4.38 2.314-6.142.834z"/>
  </g>
</svg>
