<svg xmlns="http://www.w3.org/2000/svg" viewBox="0 0 1150 866">
<style>
/* <![CDATA[ */
  #man_hand {
    transform: translate(427px, 310px) rotate(0deg) translate(-427px, -310px);
    animation: man_hand 4s ease-in-out infinite;
  }
  @keyframes man_hand {
    0%, 40%, 70%, 100% {
      transform: translate(427px, 310px) rotate(0deg) translate(-427px, -310px);
    }
    55%, 85% {
      transform: translate(427px, 310px) rotate(-10deg) translate(-427px, -310px);
    }
  }

  #dot1 {
    opacity: 1;
    animation: dot1 4s ease-in-out infinite;
  }
  @keyframes dot1 {
    0%, 75% {
      opacity: 1;
    }
    76%, 100% {
      opacity: 0;
    }
  }
  #dot2 {
    opacity: 0;
    animation: dot2 4s ease-in-out infinite;
  }
  @keyframes dot2 {
    26%, 75% {
      opacity: 1;
    }
    0%, 25%, 76%, 100% {
      opacity: 0;
    }
  }
  #dot3 {
    opacity: 0;
    animation: dot3 4s ease-in-out infinite;
  }
  @keyframes dot3 {
    51%, 75% {
      opacity: 1;
    }
    0%, 50%, 76%, 100% {
      opacity: 0;
    }
  }

  #woman_hand {
    transform: translate(967px, 484px) rotate(0deg) translate(-967px, -484px);
    animation: woman_hand 2s ease-in-out infinite;
  }
  @keyframes woman_hand {
    0%, 100% {
      transform: translate(967px, 484px) rotate(0deg) translate(-967px, -484px);
    }
    50% {
      transform: translate(967px, 484px) rotate(-10deg) translate(-967px, -484px);
    }
  }

  #woman_chat1 {
    animation: woman_chat1 5s ease-in-out infinite;
  }
  @keyframes woman_chat1 {
    0% {
      transform: translate(849px, 385px) scale(0) translate(-849px, -385px);
    }
    10% {
      transform: translate(849px, 385px) scale(1) translate(-849px, -385px);
    }
    30%, 100% {
      transform: translate(849px, 135px) scale(1) translate(-849px, -385px);
    }
    0%, 30% {
      opacity: 1;
    }
    35%, 100% {
      opacity: 0;
    }
  }

  #woman_chat2 {
    animation: woman_chat2 5s ease-in-out infinite;
  }
  @keyframes woman_chat2 {
    0%, 50% {
      transform: translate(964px, 296px) scale(0) translate(-964px, -296px);
    }
    60% {
      transform: translate(964px, 296px) scale(1) translate(-964px, -296px);
    }
    80%, 100% {
      transform: translate(964px, 66px) scale(1) translate(-964px, -296px);
    }
    0%, 80% {
      opacity: 1;
    }
    85%, 100% {
      opacity: 0;
    }
  }

/* ]]> */
</style>
<path fill="none" stroke="#000" stroke-linejoin="round" stroke-miterlimit="10" stroke-width="1.375" d="M575 864.137c316.771 0 573.565-114.277 573.565-255.245S891.771 353.647 575 353.647 1.435 467.924 1.435 608.892 258.229 864.137 575 864.137z"/>
<path fill="#FAC4DC" d="M472.125 804.455c-58.908-38.051-27.144-105.803 70.946-151.322l223.475-103.709c98.095-45.519 225.365-51.577 284.279-13.526 58.91 38.051 27.14 105.803-70.947 151.322L756.403 790.929c-98.095 45.519-225.371 51.577-284.278 13.526z"/>
<path fill="#2C205B" d="M506.214 789.06c-44.215-28.559-20.373-79.413 53.253-113.582l247.287-114.035c73.626-34.169 169.158-38.713 213.371-10.153 44.22 28.559 20.37 79.413-53.251 113.582L719.587 778.907c-73.626 34.169-169.158 38.713-213.373 10.153z"/>
<path stroke="#000" stroke-linecap="round" stroke-linejoin="round" stroke-miterlimit="10" stroke-width="1.375" d="M75.794 576.883l280.06 103.159a32.85 32.85 0 0025.386-1.157l256.88-119.899c6.536-3.098 6.103-12.543-.693-15.024L360.179 442.317a39.086 39.086 0 00-30.088 1.37L75.116 561.854c-6.536 3.098-6.113 12.538.678 15.029z"/>
<path stroke="#000" stroke-linecap="round" stroke-linejoin="round" stroke-miterlimit="10" stroke-width="1.375" d="M356.663 532.846c9.202-28.764-35.725-68.842-100.349-89.516-64.623-20.675-124.47-14.118-133.673 14.646-9.202 28.764 35.725 68.841 100.349 89.516 64.623 20.675 124.471 14.118 133.673-14.646z"/>
<path fill="#FAC4DC" d="M250.985 344.813s-.361-33.445-31.193-54.964c-30.832-21.524-100.056 8.727-100.056 8.727s61.409 36.65 89.587 43.283c28.172 6.628 41.662 2.954 41.662 2.954z"/>
<path fill="#FAC4DC" d="M285.829 325.572s13.979-42.126 4.509-81.104c-9.471-38.973-78.695-69.805-78.695-69.805s16.287 62.825 24.433 80.859c8.146 18.035 49.753 70.05 49.753 70.05z"/>
<path fill="#FAC4DC" d="M327.218 338.772s-26.762-62.382-13.965-121.392c12.798-59.009 93.851-105.543 93.851-105.543s-3.683 95.619-24.046 138.281c-11.6 24.311-55.84 88.654-55.84 88.654z"/>
<path fill="#2C205B" d="M217.227 430.244s12.604 79.917 15.966 101.222c2.639 16.741 31.092 29.324 63.748 29.324 32.655 0 61.103-12.583 63.747-29.324 3.363-21.305 15.966-101.222 15.966-101.222"/>
<path fill="#2C205B" d="M296.936 457.137c51.489 0 93.229-21.308 93.229-47.592 0-26.285-41.74-47.593-93.229-47.593s-93.23 21.308-93.23 47.593c0 26.284 41.741 47.592 93.23 47.592z"/>
<path stroke="#000" stroke-linecap="round" stroke-linejoin="round" stroke-miterlimit="10" stroke-width="1.375" d="M296.937 435.94c42.536 0 77.019-14.411 77.019-32.187 0-17.777-34.483-32.187-77.019-32.187s-77.019 14.41-77.019 32.187c0 17.776 34.483 32.187 77.019 32.187z"/>
<path fill="none" stroke="#000" stroke-linecap="round" stroke-linejoin="round" stroke-miterlimit="10" stroke-width="1.375" d="M322.565 407.314s1.727-160.895 54.292-245.642"/>
<path fill="none" stroke="#000" stroke-linecap="round" stroke-linejoin="round" stroke-miterlimit="10" stroke-width="1.375" d="M290.34 392.617s1.779-99.088-30.796-154.929"/>
<path fill="none" stroke="#000" stroke-linecap="round" stroke-linejoin="round" stroke-miterlimit="10" stroke-width="1.375" d="M274.947 412.974s4.758-71.119-72.806-103.357"/>
<path fill="#2C205B" d="M362.634 674.785l250.324-118.513a30.086 30.086 0 0017.199-27.185V17.141c0-12.033-12.537-19.965-23.414-14.81L356.419 120.844a30.094 30.094 0 00-17.199 27.185V659.98c0 12.033 12.538 19.961 23.414 14.805z"/>
<path fill="#2C205B" d="M618.818 1.541l18.9 7.377-24.54 7.397"/>
<path fill="#2C205B" d="M348.132 674.555l19.93 7.892.076-22.696"/>
<path fill="#A4E4F7" d="M380.56 681.81l250.323-118.514a30.09 30.09 0 0017.199-27.184V24.16c0-12.033-12.538-19.965-23.414-14.81L374.344 127.864a30.09 30.09 0 00-17.199 27.184V667c0 12.033 12.538 19.965 23.415 14.81z"/>
<path fill="#83A1B5" stroke="#000" stroke-linecap="round" stroke-linejoin="round" stroke-miterlimit="10" stroke-width="1.375" d="M521.911 83.7c-.754 17.383-9.053 33.654-19.202 37.042-9.103 3.042-16.714-5.293-18.732-19.216L377.91 151.365v504.509l249.595-117.291V34.075L521.911 83.7z"/>
<path d="M507.412 99.609c1.272-3.763.065-7.571-2.696-8.505-2.761-.934-6.032 1.36-7.304 5.124-1.273 3.763-.066 7.571 2.696 8.505 2.761.934 6.031-1.36 7.304-5.124z"/>
<path fill="#2C205B" d="M347.506 288.362a3.318 3.318 0 01-3.311-3.311v-101.89a3.321 3.321 0 013.311-3.312 3.325 3.325 0 013.312 3.312v101.89a3.325 3.325 0 01-3.312 3.311z"/>
<path fill="#2C205B" d="M347.506 328.1a3.318 3.318 0 01-3.311-3.312v-22.415a3.321 3.321 0 013.311-3.312 3.325 3.325 0 013.312 3.312v22.415a3.325 3.325 0 01-3.312 3.312z"/>
<path fill="#FFF" d="M545.68 393.71s-1.273 19.1-6.684 22.345c-5.41 3.245-12.945 1.019-12.945 1.019l-.041-21.815"/>
<path fill="none" stroke="#000" stroke-linecap="round" stroke-linejoin="round" stroke-miterlimit="10" stroke-width="1.375" d="M545.68 393.71s-1.273 19.1-6.684 22.345c-5.41 3.245-12.945 1.019-12.945 1.019l-.041-21.815"/>
<path fill="#FAC4DC" d="M525.781 275.019s7.54 4.127 12.069 20.684c2.679 9.786 7.825 98.003 7.825 98.003s-8.462 6.821-19.665 4.885"/>
<path fill="#A4E4F7" d="M511.962 568.666l-9.817 4.499c-3.031 1.391-6.384 1.508-9.313.331l-25.167-10.108c-3.077-1.237-3.53-5.496-.835-7.814l12.914-11.112 32.702 19.9c1.6.968 1.314 3.479-.484 4.304z"/>
<path fill="#A4E4F7" d="M552.017 549.928l-9.818 4.499c-3.031 1.391-6.383 1.508-9.312.331L507.72 544.65c-3.077-1.238-3.531-5.497-.836-7.815l12.915-11.111 32.702 19.899c1.599.973 1.314 3.48-.484 4.305z"/>
<path stroke="#000" stroke-linecap="round" stroke-linejoin="round" stroke-miterlimit="10" stroke-width="1.375" d="M466.492 374.851l.336 180.723c16.944 3.464 26.883-2.613 26.883-2.613l-.305-163.621 14.107-6.46.29 153.972s14.478 3.647 25.987-2.048l-.352-187.621-66.946 27.668z"/>
<path fill="#FAC4DC" d="M533.444 347.189s-32.391 28.514-66.952 27.663c-.056-29.125-.122-66.575-.122-66.575-.046-23.475 66.885-62.795 66.982-12.553l.092 51.465z"/>
<path fill="#FFF" stroke="#000" stroke-linecap="round" stroke-linejoin="round" stroke-miterlimit="10" stroke-width="1.375" d="M520.49 255.219c.472-13.641-7.488-24.987-17.779-25.344-10.292-.356-19.018 10.413-19.49 24.054-.472 13.64 7.488 24.987 17.779 25.344 10.292.356 19.018-10.413 19.49-24.054z"/>
<path fill="#FFF" d="M506.742 254.463l5.915 3.19c1.59.856 2.099 2.939 1.136 4.636-.953 1.676-2.98 2.353-4.56 1.523l-5.705-3.011"/>
<path fill="none" stroke="#000" stroke-linecap="round" stroke-linejoin="round" stroke-miterlimit="10" stroke-width="1.375" d="M506.742 254.463l5.915 3.19c1.59.856 2.099 2.939 1.136 4.636-.953 1.676-2.98 2.353-4.56 1.523l-5.705-3.011"/>
<path stroke="#000" stroke-linecap="round" stroke-linejoin="round" stroke-miterlimit="10" stroke-width="1.375" d="M499.052 253.122c.039-1.083-.433-1.978-1.054-2.001-.622-.022-1.157.837-1.196 1.919-.039 1.083.433 1.979 1.054 2.001.621.023 1.157-.837 1.196-1.919z"/>
<path stroke="#000" stroke-linecap="round" stroke-linejoin="round" stroke-miterlimit="10" stroke-width="1.375" d="M513.131 250.289c.039-1.083-.433-1.979-1.054-2.001-.622-.022-1.157.837-1.196 1.919-.039 1.083.433 1.979 1.054 2.001.621.023 1.157-.837 1.196-1.919z"/>
<path fill="none" stroke="#000" stroke-linecap="round" stroke-linejoin="round" stroke-miterlimit="10" stroke-width="1.375" d="M510.671 264.173s-5.813 8.08-15.574 1.228"/>
<path fill="#00AAED" d="M483.917 262.085s-8.467-26.191-5.436-34.969c5.466-15.808 35.733-1.773 37.419-16.18 11.539 8.426 2.058 30.837 2.058 30.837s-3.754-9.598-13.403-8.11c-19.96 3.077-20.638 28.422-20.638 28.422z"/>
<path fill="#FAC4DC" d="M488.415 280.19s-33.303 16.598-49.947 18.111c0 0-9.94.528-14.313 8.181-4.275 7.482-4.819 14.112-2.045 14.892 15.696 2.354 58.709-11.682 58.709-11.682"/>
<path fill="#A4E4F7" d="M937.952 543.837c10.898-10.24 36.12-45.077 37.2-55.286.969-7.75-16.277-10.583-19.257-5.752 0 0-14.896 23.456-26.236 31.943"/>
<path stroke="#000" stroke-linecap="round" stroke-linejoin="round" stroke-miterlimit="10" stroke-width="1.375" d="M798.454 656.184l149.738 55.499-90.81 44.16-128.901-47.776c-21.723-8.05-23.195-38.214-2.364-48.347a92.19 92.19 0 0172.337-3.536z"/>
<path stroke="#000" stroke-linecap="round" stroke-linejoin="round" stroke-miterlimit="10" stroke-width="1.375" d="M969.6 723.803l-36.345-8.793-11.656 4.962 42.886 4.371 5.115-.54z"/>
<path stroke="#000" stroke-linecap="round" stroke-linejoin="round" stroke-miterlimit="10" stroke-width="1.375" d="M881.059 762.99l-20.877-14.234 9.506-4.391 16.486 17.998-5.115.627z"/>
<path fill="#FAC4DC" d="M809.873 730.004c-2.96 1.411-6.24 1.64-9.098.627l-25.677-9.823c-2.985-1.141-2.929-5.39.097-7.112l7.713-4.401c1.589-.907 3.388-1.248 5.074-.973l23.68 3.928 7.682 7.809c1.666 1.692.947 4.718-1.401 5.895l-8.07 4.05z"/>
<path fill="#FAC4DC" d="M850.429 711.282c-2.96 1.411-6.241 1.641-9.099.627l-25.676-9.822c-2.985-1.142-2.929-5.39.097-7.112l7.713-4.402c1.589-.907 3.388-1.248 5.074-.973l23.679 3.928 7.683 7.81c1.666 1.691.947 4.717-1.401 5.894l-8.07 4.05z"/>
<path fill="#83A1B5" d="M858.526 626.305v73.504c-11.254 5.762-25.391 2.807-25.391 2.807v-87.141c0-10.235 9.848-17.592 19.66-14.688l74.201 21.952"/>
<path fill="none" stroke="#000" stroke-linecap="round" stroke-linejoin="round" stroke-miterlimit="10" stroke-width="1.375" d="M858.526 626.305v73.504c-11.254 5.762-25.391 2.807-25.391 2.807v-87.141c0-10.235 9.848-17.592 19.66-14.688l74.201 21.952"/>
<path fill="#83A1B5" d="M793.074 626.816v94.854c16.547 2.701 26.267-3.372 26.267-3.372v-89.245"/>
<path fill="none" stroke="#000" stroke-linecap="round" stroke-linejoin="round" stroke-miterlimit="10" stroke-width="1.375" d="M793.074 626.816v94.854c16.547 2.701 26.267-3.372 26.267-3.372v-89.245"/>
<path fill="#83A1B5" d="M903.905 620.549l-.081 79.342s-1.615 1.111-4.366 0l-4.432-76.703"/>
<path fill="none" stroke="#000" stroke-linecap="round" stroke-linejoin="round" stroke-miterlimit="10" stroke-width="1.375" d="M903.905 620.549l-.081 79.342s-1.615 1.111-4.366 0l-4.432-76.703"/>
<path fill="#83A1B5" d="M823.077 660.965l-8.732 76.036s1.615 1.11 4.366 0l13.246-73.397"/>
<path fill="none" stroke="#000" stroke-linecap="round" stroke-linejoin="round" stroke-miterlimit="10" stroke-width="1.375" d="M823.077 660.965l-8.732 76.036s1.615 1.11 4.366 0l13.246-73.397"/>
<path fill="#83A1B5" d="M961.04 647.836l8.732 76.036s-1.615 1.111-4.366 0l-13.245-73.397"/>
<path fill="none" stroke="#000" stroke-linecap="round" stroke-linejoin="round" stroke-miterlimit="10" stroke-width="1.375" d="M961.04 647.836l8.732 76.036s-1.615 1.111-4.366 0l-13.245-73.397"/>
<path fill="#83A1B5" d="M881.064 682.855l.081 79.342s1.615 1.111 4.366 0l4.433-76.703"/>
<path fill="none" stroke="#000" stroke-linecap="round" stroke-linejoin="round" stroke-miterlimit="10" stroke-width="1.375" d="M881.064 682.855l.081 79.342s1.615 1.111 4.366 0l4.433-76.703"/>
<path fill="#5555DB" d="M896.205 617.779l-78.155 37.725 70.88 26.277 78.155-37.73-70.88-26.272z"/>
<path fill="#83A1B5" stroke="#000" stroke-linecap="round" stroke-linejoin="round" stroke-miterlimit="10" stroke-width="1.375" d="M818.048 655.504v4.845l70.88 26.278v-4.845l-70.88-26.278z"/>
<path fill="#5555DB" d="M888.927 686.625l78.155-37.73v-4.845l-78.155 37.73v4.845z"/>
<path fill="#83A1B5" d="M812.376 640.061l54.949 18.56a56.032 56.032 0 0042.774-2.863l14.57-7.209a21.582 21.582 0 0012.013-19.349v-37.541l-73.361 34.642-46.61-15.197c-11.691-3.81-23.694 4.901-23.694 17.194v7.173"/>
<path fill="none" stroke="#000" stroke-linecap="round" stroke-linejoin="round" stroke-miterlimit="10" stroke-width="1.375" d="M812.376 640.061l54.949 18.56a56.032 56.032 0 0042.774-2.863l14.57-7.209a21.582 21.582 0 0012.013-19.349v-37.541l-73.361 34.642-46.61-15.197c-11.691-3.81-23.694 4.901-23.694 17.194v7.173"/>
<path fill="#A4E4F7" d="M936.48 606.947s-31.693 19.675-65.449 20.037v-69.978c0-22.161 65.449-61.537 65.449-14.107v64.048z"/>
<path fill="#FFF" stroke="#000" stroke-linecap="round" stroke-linejoin="round" stroke-miterlimit="10" stroke-width="1.375" d="M785.622 616.856l8.589-5.727c2.175-1.451 4.646-2.399 7.168-2.746l19.191-2.638s5.288 1.992 4.478 7.29c-.81 5.298-7.769 9.812-7.769 9.812l-12.93 1.574-11.076 7.27c-1.125.739-2.552.693-3.393-.107l-5.237-4.993c-.896-.856-1.335-2.063-1.212-3.357l.331-3.434c.107-1.141.8-2.236 1.86-2.944z"/>
<path fill="#A4E4F7" d="M892.362 563.644c-4.172 21.595-6.622 24.963-13.648 37.867-5.43 9.97-6.22 17.663-61.434 21.346 0 0 6.821-9.791 3.291-17.102 32.059-5.935 38.84-11.641 38.84-11.641l11.886-40.195"/>
<path fill="none" stroke="#000" stroke-linecap="round" stroke-linejoin="round" stroke-miterlimit="10" stroke-width="1.375" d="M783.475 622.74l13.098-8.768"/>
<path fill="none" stroke="#000" stroke-linecap="round" stroke-linejoin="round" stroke-miterlimit="10" stroke-width="1.375" d="M785.417 627.335l13.195-8.987"/>
<path fill="none" stroke="#000" stroke-linecap="round" stroke-linejoin="round" stroke-miterlimit="10" stroke-width="1.375" d="M788.628 630.392l9.766-6.724"/>
<path fill="#FFF" stroke="#000" stroke-linecap="round" stroke-linejoin="round" stroke-miterlimit="10" stroke-width="1.375" d="M797.535 608.913l-8.977 1.706.209.627c.331.998 1.141 1.742 2.221 2.033l6.547-4.366z"/>
<path fill="#00AAED" d="M871.878 539.302s-15.029 3.062-11.569-14.02c3.459-17.082 9.134-21.407 4.829-29.95-4.305-8.539.148-24.683 18.564-28.993 18.417-4.31 25.636-12.028 40.42-4.392 14.784 7.637-.458 31.25 12.344 32.305 12.803 1.054 22.324 2.088 24.922 13.327 5.686 24.622-13.643 28.891-5.104 42.575 8.538 13.683-7.953 35.839-26.828 28.147-8.971-3.658-36.838 3.362-36.043-13.674.799-17.041-2.461-24.785-21.535-25.325z"/>
<path fill="#83A1B5" stroke="#000" stroke-linecap="round" stroke-linejoin="round" stroke-miterlimit="10" stroke-width="1.375" d="M894.076 672.982c-1.426.031-2.45-1.105-2.282-2.537l7.188-69.321 5.166-.107-7.188 69.321c-.163 1.427-1.457 2.614-2.884 2.644z"/>
<path fill="#83A1B5" stroke="#000" stroke-linecap="round" stroke-linejoin="round" stroke-miterlimit="10" stroke-width="1.375" d="M946.53 647.459c-1.426.031-2.45-1.105-2.282-2.537l7.188-69.32 5.166-.107-7.188 69.32c-.168 1.432-1.457 2.614-2.884 2.644z"/>
<path fill="#5555DB" d="M970.052 522.828l-78.155 37.73 6.113 2.572 78.155-37.724-6.113-2.578z"/>
<path fill="#83A1B5" stroke="#000" stroke-linecap="round" stroke-linejoin="round" stroke-miterlimit="10" stroke-width="1.375" d="M891.899 560.557l-4.56 45.484 6.114 2.578 4.559-45.489-6.113-2.573z"/>
<path fill="#5555DB" d="M893.456 608.62l78.154-37.73 4.56-45.484-78.155 37.725-4.559 45.489z"/>
<path fill="none" stroke="#000" stroke-linecap="round" stroke-linejoin="round" stroke-miterlimit="10" stroke-width="1.375" d="M911.215 654.835s5.604-2.547 5.604-16.812"/>
<path fill="#00AAED" d="M591.755 182.192c-5.181-6.24-8.284-14.463-8.284-23.755 0-21.978 17.286-41.566 38.606-43.762l86.266-8.875c21.32-2.195 38.606 13.842 38.606 35.82 0 21.977-17.286 41.566-38.606 43.762l-73.906 7.601-12.36 1.273-49.396 5.079 19.074-17.143z"/>
<path stroke="#000" stroke-linecap="round" stroke-linejoin="round" stroke-miterlimit="10" stroke-width="1.375" d="M230.593 686.451c27.828-2.611 49.443-14.787 48.279-27.196-1.164-12.41-24.667-20.354-52.494-17.743-27.828 2.611-49.443 14.787-48.278 27.196 1.164 12.41 24.666 20.353 52.493 17.743z"/>
<path stroke="#000" stroke-linecap="round" stroke-linejoin="round" stroke-miterlimit="10" stroke-width="1.375" d="M203.669 674.538c27.827-2.611 49.442-14.787 48.278-27.197-1.164-12.409-24.667-20.353-52.494-17.742-27.828 2.61-49.442 14.787-48.278 27.196 1.164 12.41 24.666 20.353 52.494 17.743z"/>
<path stroke="#000" stroke-linecap="round" stroke-linejoin="round" stroke-miterlimit="10" stroke-width="1.375" d="M217.148 622.168l-69.28 35.952-117.245-36.212 106.231-55.122 80.294 55.382z"/>
<path d="M161.304 668.59l31.678 14.03 9.012-14.677"/>
<path fill="none" stroke="#000" stroke-linecap="round" stroke-linejoin="round" stroke-miterlimit="10" stroke-width="1.375" d="M161.304 668.59l31.678 14.03 9.012-14.677"/>
<path fill="#00AAED" d="M232.751 635.395c15.186-22.863 16.01-49.028 1.839-58.44-14.17-9.412-37.968 1.492-53.155 24.355-15.186 22.863-16.01 49.028-1.839 58.44 14.17 9.412 37.968-1.492 53.155-24.355z"/>
<path fill="#00AAED" d="M228.21 574.159l50.94 19.802-45.224 86.403-53.268-19.986"/>
<path fill="none" stroke="#000" stroke-linecap="round" stroke-linejoin="round" stroke-miterlimit="10" stroke-width="1.375" d="M233.937 680.364l45.218-86.402-46.008-17.887a19.982 19.982 0 00-4.901-1.906l-.031-.01v.005c-6.037-1.472-13.332-.469-21.193 3.429-20.77 10.296-37.608 36.864-37.608 59.346 0 11.366 4.305 19.501 11.249 23.445v.005l.036.015a20.305 20.305 0 005.757 2.16l47.481 17.8z"/>
<path fill="#00AAED" d="M238.957 530.992l-63.859 31.657-17.031-215.237 97.921-48.54-17.031 232.12z"/>
<path fill="#00AAED" d="M211.885 367.719l-53.818-20.307 97.921-48.54 53.819 20.306-97.922 48.541z"/>
<path fill="#00AAED" d="M175.098 562.65l53.818 20.307-17.031-215.238-53.818-20.306 17.031 215.237z"/>
<path fill="none" stroke="#000" stroke-linecap="round" stroke-linejoin="round" stroke-miterlimit="10" stroke-width="1.375" d="M175.098 562.65l53.818 20.307-17.031-215.238-53.818-20.306 17.031 215.237z"/>
<path fill="#A4E4F7" d="M286.575 655.698c15.187-22.864 16.01-49.028 1.84-58.44-14.17-9.412-37.968 1.492-53.155 24.355-15.186 22.863-16.01 49.027-1.839 58.44 14.17 9.412 37.968-1.492 53.154-24.355z"/>
<path fill="#A4E4F7" d="M292.77 551.299l-63.86 31.657-17.031-215.237 97.922-48.541-17.031 232.121z"/>
<path fill="none" stroke="#000" stroke-linecap="round" stroke-linejoin="round" stroke-miterlimit="10" stroke-width="1.375" d="M211.885 367.719l-53.818-20.307 97.921-48.54 53.819 20.306-97.922 48.541z"/>
  <g id="man_hand">
    <path fill="#FAC4DC" d="M438.468 298.301c-2.14.194 10.367-54.328 10.367-54.328s-6.276 6.424-17.963 2.338c-10.515 27.455-20.444 73.311-8.762 75.063 0 0 8.299 1.948 14.992-12.926 1.89-4.199 1.366-10.147 1.366-10.147z"/>
    <path fill="#FFF" stroke="#000" stroke-linecap="round" stroke-linejoin="round" stroke-miterlimit="10" stroke-width="1.375" d="M430.873 246.312l3.555-35.585a2.231 2.231 0 011.473-1.875 2.213 2.213 0 012.944 2.191l-.412 9.415 3.484-13.969a2.398 2.398 0 011.671-1.722c1.692-.474 3.296.988 2.986 2.72l-2.115 11.733 5.467-14.601a2.454 2.454 0 012.883-1.523 2.45 2.45 0 011.722 3.204l-5.273 14.769 7.642-13.312a2.351 2.351 0 013.459-.703 2.349 2.349 0 01.668 2.96l-8.671 16.623-.153 5.105 4.376-6.974a2.117 2.117 0 011.651-.989 2.124 2.124 0 012.15 2.838l-1.773 4.937a10.789 10.789 0 01-1.997 3.418l-7.779 8.997c.005.005-5.716 6.536-17.958 2.343z"/>
  </g>
  <g id="man_chat" fill="#FFF" stroke="#000" stroke-linecap="round" stroke-linejoin="round" stroke-miterlimit="10" stroke-width="1.375">
    <path id="dot3" d="M698.409 151.483c2.589-3.662 2.016-8.519-1.278-10.848-3.295-2.329-8.065-1.247-10.653 2.415-2.589 3.662-2.017 8.519 1.278 10.848 3.295 2.329 8.064 1.248 10.653-2.415z"/>
    <path id="dot2" d="M671.085 154.292c2.588-3.662 2.016-8.519-1.279-10.848-3.294-2.329-8.064-1.248-10.653 2.415-2.588 3.662-2.016 8.519 1.279 10.847 3.295 2.329 8.064 1.248 10.653-2.414z"/>
    <path id="dot1" d="M643.769 157.101c2.588-3.663 2.016-8.52-1.279-10.848-3.295-2.329-8.064-1.248-10.653 2.414-2.589 3.662-2.016 8.519 1.279 10.848 3.294 2.329 8.064 1.248 10.653-2.414z"/>
  </g>
  <g id="woman_hand">
    <path fill="#FFF" stroke="#000" stroke-linecap="round" stroke-linejoin="round" stroke-miterlimit="10" stroke-width="1.375" d="M960.764 436.047l5.518-35.331a2.22 2.22 0 00-.943-2.18c-1.289-.866-3.041-.143-3.367 1.391l-1.967 9.216.168-14.387a2.372 2.372 0 00-1.171-2.079c-1.503-.876-3.404.143-3.541 1.895l-.922 11.881-1.569-15.488a2.414 2.414 0 00-2.374-2.185c-1.437-.015-2.578 1.233-2.451 2.675l1.345 15.604-3.974-14.779a2.309 2.309 0 00-3.133-1.539 2.373 2.373 0 00-1.38 2.705l4.126 18.239-1.131 4.982-2.44-7.84a2.083 2.083 0 00-1.33-1.366c-1.436-.484-2.903.688-2.771 2.217l.458 5.216a10.884 10.884 0 001.055 3.806l5.186 10.637c.016 0 3.852 7.739 16.608 6.71z"/>
    <path fill="#A4E4F7" d="M975.152 488.551c.923-8.742-12.741-61.689-12.741-61.689s-5.069.209-16.883 4.208c4.371 16.45 10.367 51.729 10.367 51.729.275 7.683 16.979 11.421 19.257 5.752z"/>
  </g>
  <g id="woman_chat1">
    <path fill="#2C205B" d="M849.057 330.824c-26.73-4.061-48.397 15.217-48.397 43.053 0 27.837 21.667 53.691 48.397 57.746l48.398 7.347v-50.4c0-27.831-21.667-53.686-48.398-57.746z"/>
    <path fill="#FAC4DC" d="M867.098 406.205c13.115-9.424 15.005-29.231 4.22-44.241-10.785-15.009-30.159-19.538-43.275-10.114-13.115 9.423-15.005 29.23-4.22 44.24 10.784 15.01 30.159 19.538 43.275 10.115z"/>
    <path stroke="#000" stroke-linecap="round" stroke-linejoin="round" stroke-miterlimit="10" stroke-width="1.375" d="M838.459 376.146c1.153-.04 2.017-2.133 1.929-4.675-.088-2.542-1.094-4.571-2.247-4.531-1.152.04-2.016 2.133-1.928 4.675s1.093 4.57 2.246 4.531z"/>
    <path stroke="#000" stroke-linecap="round" stroke-linejoin="round" stroke-miterlimit="10" stroke-width="1.375" d="M857.263 378.641c1.153-.04 2.016-2.133 1.929-4.675-.088-2.542-1.094-4.57-2.247-4.531-1.152.04-2.016 2.133-1.928 4.675.087 2.542 1.093 4.57 2.246 4.531z"/>
    <path fill="none" stroke="#000" stroke-linecap="round" stroke-linejoin="round" stroke-miterlimit="10" stroke-width="1.375" d="M866.138 385.816c-10.23 9.236-26.818 7.031-37.053-4.916"/>
  </g>
  <g id="woman_chat2">
    <path fill="#2C205B" d="M964.45 245.237c26.588 4.066 48.145 29.925 48.145 57.762 0 27.836-21.557 47.103-48.145 43.038l-48.143-7.361v-50.4c0-27.832 21.555-47.104 48.143-43.039z"/>
    <path fill="#FAC4DC" d="M983.092 324.201c13.116-9.424 15.005-29.231 4.22-44.241-10.784-15.009-30.159-19.538-43.275-10.114-13.115 9.423-15.005 29.231-4.22 44.24 10.784 15.01 30.159 19.538 43.275 10.115z"/>
    <path stroke="#000" stroke-linecap="round" stroke-linejoin="round" stroke-miterlimit="10" stroke-width="1.375" d="M954.454 294.137c1.152-.04 2.016-2.133 1.928-4.675-.088-2.542-1.093-4.57-2.246-4.531-1.153.04-2.017 2.133-1.929 4.675.088 2.542 1.094 4.571 2.247 4.531z"/>
    <path stroke="#000" stroke-linecap="round" stroke-linejoin="round" stroke-miterlimit="10" stroke-width="1.375" d="M973.251 296.633c1.153-.04 2.017-2.133 1.929-4.675-.088-2.542-1.093-4.57-2.246-4.531-1.153.04-2.017 2.133-1.929 4.675s1.094 4.571 2.246 4.531z"/>
    <path fill="none" stroke="#000" stroke-linecap="round" stroke-linejoin="round" stroke-miterlimit="10" stroke-width="1.375" d="M983.081 299.784c0 11.131-8.716 19.002-19.471 17.571-10.754-1.427-19.471-11.611-19.471-22.742"/>
  </g>
</svg>
