<svg xmlns="http://www.w3.org/2000/svg" viewBox="0 0 1153 741">
<style>
/* <![CDATA[ */

#chart1 {
  animation: chart1 5s ease-in-out infinite;
}

@keyframes chart1 {
  0%, 40%, 100% {
    stroke-dashoffset: 291px;
  }
  50%, 90% {
    stroke-dashoffset: 190px;
  }
}

#chart2 {
  animation: chart2 5s ease-in-out infinite;
}

@keyframes chart2 {
  0%, 40%, 100% {
    stroke-dashoffset: 234px;
  }
  50%, 90% {
    stroke-dashoffset: 106px;
  }
}

#chart3 {
  animation: chart3 5s ease-in-out infinite;
}

@keyframes chart3 {
  0%, 40%, 100% {
    stroke-dashoffset: 247px;
  }
  50%, 90% {
    stroke-dashoffset: 98px;
  }
}

#chart4 {
  animation: chart4 5s ease-in-out infinite;
}

@keyframes chart4 {
  0%, 40%, 100% {
    stroke-dashoffset: 190px;
  }
  50%, 90% {
    stroke-dashoffset: 145px;
  }
}

#chart5 {
  animation: chart5 5s ease-in-out infinite;
}

@keyframes chart5 {
  0%, 40%, 100% {
    stroke-dashoffset: 131px;
  }
  50%, 90% {
    stroke-dashoffset: 40px;
  }
}

#chart6 {
  animation: chart6 5s ease-in-out infinite;
}

@keyframes chart6 {
  0%, 40%, 100% {
    stroke-dashoffset: 4px;
  }
  50%, 90% {
    stroke-dashoffset: 50px;
  }
}

#chart7 {
  animation: chart7 5s ease-in-out infinite;
}

@keyframes chart7 {
  0%, 40%, 100% {
    stroke-dashoffset: 72px;
  }
  50%, 90% {
    stroke-dashoffset: 10px;
  }
}

/* ]]> */
</style>
  <path fill="#FFF" d="M17.536.327h1118.928c9.293 0 16.826 7.533 16.826 16.826v706.691c0 9.293-7.533 16.826-16.826 16.826H17.536C8.243 740.67.71 733.137.71 723.844V17.153C.71 7.86 8.243.327 17.536.327z"/>
  <path fill="#FFF" d="M17.536.327h1118.928c9.293 0 16.826 7.533 16.826 16.826v706.691c0 9.293-7.533 16.826-16.826 16.826H17.536C8.243 740.67.71 733.137.71 723.844V17.153C.71 7.86 8.243.327 17.536.327z"/>
  <path d="M66.11 70.215l-12.688-10.84v21.429h3.934V67.982l8.755 7.794 8.755-7.794v12.822H78.8V59.375l-12.69 10.84zM91.221 63.9c-2.41 0-4.644.858-6.27 2.322-1.627 1.479-2.662 3.712-2.662 6.256s1.035 4.777 2.662 6.241c1.627 1.464 3.86 2.322 6.27 2.322 1.715 0 3.298-.414 4.732-1.242 1.435-.828 2.529-1.952 3.254-3.387l-3.165-1.523c-.887 1.996-2.647 3.194-4.821 3.194-1.257 0-2.366-.399-3.313-1.213-.946-.799-1.553-1.849-1.804-3.15h13.916c.163-2.913-.725-5.472-2.307-7.143-1.583-1.671-3.89-2.677-6.492-2.677zm0 2.973c1.331 0 2.455.399 3.387 1.183.932.799 1.508 1.863 1.76 3.18H86.089c.251-1.316.828-2.366 1.76-3.165.931-.799 2.055-1.198 3.372-1.198zm27.817 13.931v-8.326c0-2.721-.429-4.732-1.42-6.27-.991-1.523-2.662-2.307-4.984-2.307-2.81 0-4.762.961-5.871 2.884l-.162-2.632h-3.535v16.652h3.697v-8.326c0-1.642.399-2.943 1.213-3.934.813-.991 1.952-1.479 3.446-1.479 2.765 0 3.918 1.863 3.918 5.413v8.326h3.698zm4.347-16.652h-2.366v2.898h2.366v8.415c0 1.878.385 3.283 1.139 4.185.754.917 2.011 1.375 3.801 1.375.931 0 1.937-.089 3.031-.266v-3.061c-.99.192-1.848.222-2.573.074-1.198-.133-1.715-.917-1.715-2.44V67.05h4.288v-2.898h-4.288v-3.771h-3.683v3.771zm23.218 15.838a8.325 8.325 0 003.269-3.017c.813-1.316 1.227-2.81 1.227-4.496 0-1.686-.414-3.194-1.227-4.511a8.325 8.325 0 00-3.269-3.017c-1.345-.695-2.839-1.035-4.451-1.035s-3.106.34-4.451 1.035a8.186 8.186 0 00-3.254 3.017c-.813 1.316-1.227 2.825-1.227 4.511s.414 3.179 1.227 4.496a8.186 8.186 0 003.254 3.017c1.345.695 2.839 1.035 4.451 1.035s3.106-.34 4.451-1.035zm-8.163-3.653c-1.02-1.02-1.538-2.322-1.538-3.874 0-1.553.518-2.839 1.538-3.86 1.02-1.02 2.263-1.538 3.727-1.538s2.691.518 3.712 1.538c1.02 1.02 1.523 2.307 1.523 3.86s-.503 2.854-1.523 3.874c-1.021 1.021-2.248 1.538-3.712 1.538s-2.707-.517-3.727-1.538zm15.705 4.467h3.712v-8.326c0-1.627.547-2.943 1.627-3.934 1.08-.991 2.588-1.479 4.525-1.479v-3.15c-1.538 0-2.765.163-3.682.503-.917.34-1.745.991-2.47 1.922l-.177-2.189h-3.535v16.653zM179.7 68.219c-.399-2.825-2.825-4.318-6.537-4.318-2.114 0-3.771.414-4.983 1.227-1.228.813-1.834 1.996-1.834 3.52 0 1.435.37 2.396 1.434 3.12.533.37 1.139.665 1.819.887.681.237 1.597.503 2.766.784.828.192 1.523.384 2.085.591 1.109.429 1.982 1.154 1.982 2.085 0 .666-.311 1.198-.932 1.582-.621.399-1.39.591-2.322.591a4.676 4.676 0 01-2.277-.562c-.681-.37-1.109-.917-1.302-1.642l-3.667.325c.207 1.494.946 2.632 2.233 3.416 1.286.784 2.958 1.183 5.013 1.183 2.144 0 3.845-.444 5.073-1.346 1.227-.887 1.863-2.144 1.907-3.756.045-1.124-.34-2.011-.991-2.677-.34-.325-.798-.621-1.375-.902-1.168-.547-2.351-.902-4.244-1.361-1.228-.281-2.13-.591-2.677-.902-.562-.31-.843-.784-.843-1.42 0-1.316 1.272-2.055 3.047-2.055.739 0 1.375.177 1.922.547.547.37.873.813 1.006 1.331l3.697-.248zm19.964 12.585v-8.326c0-2.78-.532-4.91-1.597-6.374-1.065-1.464-2.78-2.203-5.161-2.203-2.913 0-5.117 1.065-6.167 2.884v-8.696h-3.697v22.715h3.697v-8.326c0-1.597.459-2.899 1.39-3.904.917-1.006 2.1-1.508 3.564-1.508 2.973 0 4.259 1.878 4.259 5.413v8.326h3.712zm5.413-19.033a2.11 2.11 0 001.567-.666c.429-.444.651-.976.651-1.582 0-.606-.222-1.124-.651-1.568a2.153 2.153 0 00-1.567-.651c-.621 0-1.154.222-1.583.651-.443.444-.665.961-.665 1.568 0 .621.222 1.153.665 1.582.429.444.962.666 1.583.666zm-1.864 19.033h3.712V64.152h-3.712v16.652zm17.333.236c4.347.104 8.044-3.682 7.956-8.562.088-4.865-3.609-8.666-7.956-8.577-3.18 0-5.265.961-6.241 2.884l-.163-2.632h-3.534v22.715h3.697v-8.696c1.02 1.789 3.342 2.868 6.241 2.868zm-.991-13.975c1.464 0 2.691.518 3.712 1.538 1.02 1.02 1.523 2.307 1.523 3.86s-.503 2.854-1.523 3.874c-1.021 1.021-2.248 1.538-3.712 1.538s-2.692-.518-3.712-1.553c-1.021-1.02-1.538-2.307-1.538-3.86 0-1.538.517-2.825 1.538-3.86 1.02-1.019 2.262-1.537 3.712-1.537zm27.447 10.884c-1.464 0-2.691-.518-3.712-1.553-1.02-1.02-1.523-2.337-1.523-3.919 0-1.582.503-2.899 1.523-3.934 1.021-1.035 2.248-1.553 3.712-1.553 1.878 0 3.475.917 4.363 2.588l3.342-1.39c-.695-1.316-1.745-2.351-3.12-3.12-1.391-.769-2.914-1.153-4.585-1.153-1.612 0-3.105.34-4.451 1.035a8.186 8.186 0 00-3.254 3.017c-.813 1.316-1.227 2.825-1.227 4.511s.414 3.179 1.227 4.496a8.186 8.186 0 003.254 3.017c1.346.695 2.839 1.035 4.451 1.035 1.671 0 3.194-.384 4.57-1.154 1.375-.754 2.425-1.789 3.135-3.106l-3.342-1.405c-.888 1.671-2.485 2.588-4.363 2.588zm23.322 2.041a8.322 8.322 0 003.268-3.017c.813-1.316 1.227-2.81 1.227-4.496 0-1.686-.414-3.194-1.227-4.511a8.322 8.322 0 00-3.268-3.017c-1.346-.695-2.84-1.035-4.452-1.035s-3.105.34-4.451 1.035a8.186 8.186 0 00-3.254 3.017c-.813 1.316-1.227 2.825-1.227 4.511s.414 3.179 1.227 4.496c.814 1.316 1.908 2.322 3.254 3.017s2.839 1.035 4.451 1.035 3.106-.34 4.452-1.035zm-8.164-3.653c-1.02-1.02-1.538-2.322-1.538-3.874 0-1.553.518-2.839 1.538-3.86 1.021-1.02 2.263-1.538 3.727-1.538s2.691.518 3.712 1.538c1.02 1.02 1.523 2.307 1.523 3.86s-.503 2.854-1.523 3.874c-1.021 1.021-2.248 1.538-3.712 1.538s-2.706-.517-3.727-1.538zm31.677 4.467v-8.326c0-2.721-.429-4.732-1.42-6.27-.99-1.523-2.661-2.307-4.983-2.307-2.81 0-4.762.961-5.871 2.884l-.163-2.632h-3.534v16.652h3.697v-8.326c0-1.642.399-2.943 1.212-3.934.814-.991 1.952-1.479 3.446-1.479 2.766 0 3.919 1.863 3.919 5.413v8.326h3.697zm4.348-16.652h-2.366v2.898h2.366v8.415c0 1.878.384 3.283 1.139 4.185.754.917 2.011 1.375 3.8 1.375.932 0 1.938-.089 3.032-.266v-3.061c-.991.192-1.849.222-2.573.074-1.198-.133-1.716-.917-1.716-2.44V67.05h4.289v-2.898h-4.289v-3.771h-3.682v3.771zm11.535 16.652h3.712v-8.326c0-1.627.547-2.943 1.627-3.934 1.079-.991 2.588-1.479 4.525-1.479v-3.15c-1.538 0-2.766.163-3.682.503-.917.34-1.745.991-2.47 1.922l-.178-2.189h-3.534v16.653zm14.759-19.033a2.11 2.11 0 001.567-.666c.429-.444.651-.976.651-1.582 0-.606-.222-1.124-.651-1.568a2.153 2.153 0 00-1.567-.651c-.621 0-1.154.222-1.583.651-.443.444-.665.961-.665 1.568 0 .621.222 1.153.665 1.582.429.444.962.666 1.583.666zm-1.863 19.033h3.711V64.152h-3.711v16.652zM340.095 63.9c-2.898 0-5.22 1.094-6.24 2.884v-8.696h-3.697v22.715h3.534l.163-2.632c.976 1.908 3.061 2.869 6.24 2.869 4.348.104 8.045-3.682 7.957-8.562.088-4.866-3.609-8.666-7.957-8.578zm-.99 13.975c-1.45 0-2.692-.518-3.712-1.553-1.021-1.02-1.538-2.307-1.538-3.86 0-1.538.517-2.825 1.538-3.86 1.02-1.02 2.248-1.538 3.712-1.538s2.691.518 3.712 1.538c1.02 1.02 1.523 2.307 1.523 3.86s-.503 2.854-1.523 3.874c-1.021 1.022-2.248 1.539-3.712 1.539zm11.978-13.723v8.326c0 2.721.429 4.732 1.42 6.255.991 1.538 2.662 2.307 4.984 2.307 2.81.015 4.762-.947 5.871-2.869l.162 2.632h3.535V64.152h-3.697v8.326c0 1.627-.4 2.928-1.213 3.919-.813.991-1.952 1.479-3.431 1.479-2.765 0-3.919-1.863-3.919-5.398v-8.326h-3.712zm21.577 0h-2.367v2.898h2.367v8.415c0 1.878.384 3.283 1.138 4.185.755.917 2.012 1.375 3.801 1.375.932 0 1.937-.089 3.032-.266v-3.061c-.991.192-1.849.222-2.574.074-1.197-.133-1.715-.917-1.715-2.44V67.05h4.289v-2.898h-4.289v-3.771h-3.682v3.771zm12.954-2.381c.607 0 1.139-.222 1.568-.666.429-.444.651-.976.651-1.582 0-.606-.222-1.124-.651-1.568a2.156 2.156 0 00-1.568-.651c-.621 0-1.153.222-1.582.651-.444.444-.665.961-.665 1.568 0 .621.221 1.153.665 1.582.429.444.961.666 1.582.666zm-1.863 19.033h3.712V64.152h-3.712v16.652zm19.905-.814a8.325 8.325 0 003.269-3.017c.813-1.316 1.227-2.81 1.227-4.496 0-1.686-.414-3.194-1.227-4.511a8.325 8.325 0 00-3.269-3.017c-1.345-.695-2.839-1.035-4.451-1.035s-3.106.34-4.451 1.035a8.186 8.186 0 00-3.254 3.017c-.813 1.316-1.227 2.825-1.227 4.511s.414 3.179 1.227 4.496a8.186 8.186 0 003.254 3.017c1.345.695 2.839 1.035 4.451 1.035s3.106-.34 4.451-1.035zm-8.163-3.653c-1.02-1.02-1.538-2.322-1.538-3.874 0-1.553.518-2.839 1.538-3.86 1.02-1.02 2.263-1.538 3.727-1.538s2.691.518 3.712 1.538c1.02 1.02 1.523 2.307 1.523 3.86s-.503 2.854-1.523 3.874c-1.021 1.021-2.248 1.538-3.712 1.538s-2.707-.517-3.727-1.538zm31.677 4.467v-8.326c0-2.721-.429-4.732-1.42-6.27-.991-1.523-2.662-2.307-4.984-2.307-2.809 0-4.761.961-5.871 2.884l-.162-2.632h-3.535v16.652h3.697v-8.326c0-1.642.4-2.943 1.213-3.934.813-.991 1.952-1.479 3.446-1.479 2.765 0 3.919 1.863 3.919 5.413v8.326h3.697zm16.8-12.585c-.4-2.825-2.825-4.318-6.537-4.318-2.115 0-3.771.414-4.984 1.227-1.227.813-1.833 1.996-1.833 3.52 0 1.435.369 2.396 1.434 3.12.532.37 1.139.665 1.819.887.68.237 1.597.503 2.766.784.828.192 1.523.384 2.085.591 1.109.429 1.981 1.154 1.981 2.085 0 .666-.31 1.198-.931 1.582-.621.399-1.39.591-2.322.591a4.683 4.683 0 01-2.278-.562c-.68-.37-1.109-.917-1.301-1.642l-3.667.325c.207 1.494.946 2.632 2.233 3.416 1.286.784 2.957 1.183 5.013 1.183 2.144 0 3.845-.444 5.072-1.346 1.228-.887 1.864-2.144 1.908-3.756.044-1.124-.34-2.011-.991-2.677-.34-.325-.798-.621-1.375-.902-1.168-.547-2.351-.902-4.244-1.361-1.228-.281-2.13-.591-2.677-.902-.562-.31-.843-.784-.843-1.42 0-1.316 1.272-2.055 3.046-2.055.74 0 1.376.177 1.923.547.547.37.872.813 1.005 1.331l3.698-.248z"/>
  <path fill="#5555DB" d="M1043.92 129.885c0-4.543 3.21-8.226 7.18-8.226h39.48c3.97 0 7.18 3.683 7.18 8.226v45.243c0 4.543-3.21 8.226-7.18 8.226h-39.48c-3.97 0-7.18-3.683-7.18-8.226v-45.243z"/>
  <path fill="#FFF" d="M1078.94 140.334v16.607h-2.69v-10.977l-4.38 8.292h-2.03l-4.4-8.174.02 10.859h-2.68v-16.607h2.4l5.7 10.86 5.68-10.86h2.38z"/>
  <path fill="#5555DB" d="M1020.53 140.334l-5.87 16.607h-2.47l-4.17-11.943-4.19 11.943h-2.48l-5.837-16.607h3.062l4.125 12.367 4.33-12.367h2.15l4.21 12.438 4.24-12.438h2.9z"/>
  <path fill="#5555DB" d="M938.119 140.334h6.124c2.717 0 4.821.73 6.313 2.191 1.508 1.445 2.262 3.478 2.262 6.101 0 2.622-.754 4.664-2.262 6.125-1.492 1.46-3.596 2.19-6.313 2.19h-6.124v-16.607zm5.936 14.134c3.816 0 5.724-1.947 5.724-5.842 0-3.879-1.908-5.819-5.724-5.819h-2.898v11.661h2.898z"/>
  <line x1="1097.76" x2="435.493" y1="568.761" y2="568.761" fill="none" stroke="#ECF0F4" stroke-width="1.683"/>
  <line x1="1096.92" x2="436.335" y1="231.496" y2="231.496" fill="none" stroke="#ECF0F4" stroke-dasharray="6.73 6.73" stroke-linecap="round" stroke-width="1.683"/>
  <line x1="1096.92" x2="436.335" y1="315.813" y2="315.813" fill="none" stroke="#ECF0F4" stroke-dasharray="6.73 6.73" stroke-linecap="round" stroke-width="1.683"/>
  <line x1="1096.92" x2="436.335" y1="400.129" y2="400.129" fill="none" stroke="#ECF0F4" stroke-dasharray="6.73 6.73" stroke-linecap="round" stroke-width="1.683"/>
  <line x1="1096.92" x2="436.335" y1="484.446" y2="484.446" fill="none" stroke="#ECF0F4" stroke-dasharray="6.73 6.73" stroke-linecap="round" stroke-width="1.683"/>
  <path fill="#C0C7CE" d="M394.028 479.844c.834.242 1.474.66 1.918 1.252.444.579.666 1.312.666 2.201 0 1.238-.424 2.214-1.272 2.927-.835.714-1.972 1.071-3.412 1.071a7.641 7.641 0 01-2.645-.465c-.848-.309-1.562-.74-2.141-1.292l.626-1.272c1.293 1.09 2.666 1.635 4.119 1.635 1.01 0 1.777-.222 2.302-.666.525-.458.788-1.124.788-1.999 0-1.736-1.091-2.605-3.271-2.605h-1.636v-1.393h1.313c1.049 0 1.857-.229 2.422-.686.566-.471.848-1.144.848-2.019 0-.768-.228-1.353-.686-1.757-.458-.417-1.111-.626-1.959-.626-1.373 0-2.719.545-4.038 1.636l-.626-1.273c.579-.551 1.286-.982 2.12-1.292a7.445 7.445 0 012.605-.464c1.292 0 2.315.33 3.069.989.767.646 1.151 1.521 1.151 2.625 0 .821-.202 1.541-.606 2.161-.39.605-.942 1.043-1.655 1.312zm10.552-2.766c2.355 0 3.533 1.299 3.533 3.897v6.178h-1.635v-6.077c0-.916-.182-1.582-.546-1.999-.35-.418-.915-.626-1.696-.626-.901 0-1.622.276-2.16.828s-.808 1.299-.808 2.241v5.633h-1.635v-14.235h1.635v5.977a3.316 3.316 0 011.333-1.353c.579-.309 1.238-.464 1.979-.464z"/>
  <path fill="#C0C7CE" d="M397.399 399.746h-2.14v3.089h-1.635v-3.089h-6.583v-1.252l6.865-9.894h1.353v9.773h2.14v1.373zm-3.775-1.373v-7.007l-4.866 7.007h4.866zm10.956-5.614c2.355 0 3.533 1.299 3.533 3.897v6.179h-1.635v-6.078c0-.915-.182-1.581-.546-1.999-.35-.417-.915-.626-1.696-.626-.901 0-1.622.276-2.16.828s-.808 1.299-.808 2.241v5.634h-1.635V388.6h1.635v5.977a3.304 3.304 0 011.333-1.353c.579-.31 1.238-.465 1.979-.465z"/>
  <path fill="#C0C7CE" d="M392.675 309.594c.902 0 1.682.188 2.342.565a3.867 3.867 0 011.555 1.595c.363.673.545 1.454.545 2.343 0 .901-.202 1.696-.606 2.382a4.117 4.117 0 01-1.676 1.615c-.727.377-1.575.566-2.544.566a7.421 7.421 0 01-2.564-.465c-.835-.323-1.541-.753-2.12-1.292l.626-1.272c1.319 1.09 2.672 1.636 4.058 1.636.996 0 1.777-.283 2.342-.848.566-.566.848-1.333.848-2.302 0-.943-.282-1.703-.848-2.282-.552-.579-1.292-.868-2.221-.868-1.359 0-2.443.552-3.251 1.656h-1.15v-8.339h8.54v1.373h-6.905v5.068a3.76 3.76 0 011.333-.828 4.681 4.681 0 011.696-.303zm11.905-1.151c2.355 0 3.533 1.299 3.533 3.897v6.178h-1.635v-6.077c0-.915-.182-1.582-.546-1.999-.35-.417-.915-.626-1.696-.626-.901 0-1.622.276-2.16.828-.538.552-.808 1.299-.808 2.241v5.633h-1.635v-14.234h1.635v5.976a3.316 3.316 0 011.333-1.353c.579-.309 1.238-.464 1.979-.464z"/>
  <path fill="#C0C7CE" d="M392.685 225.257c.861 0 1.628.189 2.301.566s1.198.908 1.575 1.595c.377.686.566 1.474.566 2.362 0 .875-.196 1.663-.586 2.363a4.154 4.154 0 01-1.635 1.635c-.7.39-1.488.586-2.363.586-1.723 0-3.055-.599-3.998-1.797-.928-1.198-1.393-2.908-1.393-5.129 0-1.602.216-2.975.646-4.119.445-1.144 1.077-2.012 1.898-2.605.821-.605 1.804-.908 2.948-.908.821 0 1.622.154 2.403.464a6.06 6.06 0 012.059 1.292l-.625 1.272c-.673-.565-1.32-.976-1.939-1.231a4.52 4.52 0 00-1.857-.404c-1.225 0-2.181.545-2.868 1.635-.673 1.077-1.009 2.605-1.009 4.584v.303a3.827 3.827 0 011.494-1.797c.687-.445 1.481-.667 2.383-.667zm-.222 7.713c.915 0 1.648-.289 2.2-.868.552-.579.828-1.346.828-2.302 0-.942-.282-1.702-.848-2.281-.552-.579-1.285-.868-2.201-.868-.928 0-1.689.296-2.281.888-.579.579-.868 1.333-.868 2.261 0 .943.289 1.71.868 2.302.592.579 1.359.868 2.302.868zm12.107-8.843c2.355 0 3.533 1.299 3.533 3.897v6.178h-1.635v-6.078c0-.915-.182-1.581-.545-1.998-.35-.418-.916-.626-1.696-.626-.902 0-1.622.276-2.161.827-.538.552-.808 1.299-.808 2.242v5.633h-1.635v-14.235h1.635v5.977a3.322 3.322 0 011.333-1.353c.579-.31 1.238-.464 1.979-.464z"/>
  <path fill="#C0C7CE" d="M559.855 607.28h-8.669l-1.837 4.264h-1.979l7.302-16.607h1.673l7.302 16.607h-1.955l-1.837-4.264zm-.683-1.602l-3.652-8.504-3.651 8.504h7.303zm12.427-5.889c1.005 0 1.892.251 2.662.754.769.503 1.366 1.209 1.79 2.12.424.895.636 1.94.636 3.133 0 1.194-.212 2.238-.636 3.133-.424.879-1.021 1.563-1.79 2.049-.754.487-1.641.731-2.662.731-.895 0-1.68-.197-2.356-.589a3.806 3.806 0 01-1.507-1.673v6.337h-1.908v-15.712h1.908v1.979a3.806 3.806 0 011.507-1.673c.676-.393 1.461-.589 2.356-.589zm-.377 10.341c1.115 0 1.979-.376 2.591-1.13.613-.754.919-1.822.919-3.204 0-1.382-.306-2.458-.919-3.227-.612-.785-1.476-1.178-2.591-1.178-1.115 0-1.979.377-2.591 1.131-.597.754-.895 1.829-.895 3.227s.298 2.481.895 3.251c.612.754 1.476 1.13 2.591 1.13zm14.818-8.692l-1.249.118c-1.177.11-2.033.479-2.567 1.107-.518.628-.778 1.406-.778 2.332v6.549h-1.908v-11.472h1.861v2.002c.644-1.335 1.908-2.081 3.793-2.238l.683-.047.165 1.649z"/>
  <path fill="#C0C7CE" d="M472.415 594.935v16.607h-1.767l.024-12.862-5.395 10.224h-1.366l-5.418-10.13.024 12.768h-1.791v-16.607h1.602l6.29 12.037 6.219-12.037h1.578zm8.5 4.852c1.46 0 2.544.377 3.25 1.131.723.738 1.084 1.869 1.084 3.392v7.232h-1.861v-1.955a3.439 3.439 0 01-1.366 1.578c-.613.361-1.319.542-2.12.542a4.709 4.709 0 01-2.05-.448 3.654 3.654 0 01-1.46-1.248 3.088 3.088 0 01-.542-1.767c0-.864.22-1.531.66-2.002.439-.487 1.162-.833 2.167-1.037 1.005-.22 2.402-.33 4.193-.33h.518v-.777c0-.958-.196-1.649-.589-2.073-.393-.44-1.029-.66-1.908-.66-1.319 0-2.63.409-3.934 1.225l-.636-1.389c.597-.424 1.311-.762 2.144-1.013a8.145 8.145 0 012.45-.401zm-.754 10.412c.942 0 1.712-.314 2.308-.942.613-.644.919-1.468.919-2.474v-.683h-.424c-1.382 0-2.434.063-3.157.189-.722.11-1.24.306-1.554.589-.299.267-.448.667-.448 1.201a2 2 0 00.66 1.531c.455.393 1.021.589 1.696.589zm15.082-8.763l-1.248.118c-1.178.11-2.034.479-2.568 1.107-.518.628-.777 1.406-.777 2.332v6.549h-1.908V600.07h1.861v2.002c.644-1.335 1.908-2.081 3.792-2.238l.683-.047.165 1.649z"/>
  <path fill="#C0C7CE" d="M653.584 594.937v16.607h-1.767l.024-12.862-5.395 10.223h-1.366l-5.418-10.129.024 12.768h-1.791v-16.607h1.602l6.29 12.037 6.219-12.037h1.578zm8.5 4.852c1.46 0 2.544.377 3.25 1.131.723.738 1.084 1.869 1.084 3.392v7.232h-1.861v-1.955a3.439 3.439 0 01-1.366 1.578c-.613.361-1.319.542-2.12.542a4.706 4.706 0 01-2.05-.448 3.654 3.654 0 01-1.46-1.248 3.08 3.08 0 01-.542-1.767c0-.864.22-1.531.659-2.002.44-.487 1.163-.833 2.168-1.037 1.005-.22 2.402-.33 4.193-.33h.518v-.777c0-.958-.196-1.649-.589-2.073-.393-.44-1.029-.66-1.908-.66-1.319 0-2.631.409-3.934 1.225l-.636-1.389c.597-.424 1.311-.762 2.144-1.013a8.145 8.145 0 012.45-.401zm-.754 10.412c.942 0 1.711-.314 2.308-.942.613-.644.919-1.469.919-2.474v-.683h-.424c-1.382 0-2.434.063-3.157.189-.722.11-1.24.306-1.554.589-.299.267-.448.667-.448 1.201 0 .612.22 1.123.66 1.531.455.393 1.02.589 1.696.589zm18.71-10.106l-6.784 15.689H671.3l1.932-4.382-4.852-11.307h2.025l3.84 9.376 3.887-9.376h1.908z"/>
  <path fill="#C0C7CE" d="M732.251 610.081l1.414-.094c.785-.063 1.389-.338 1.813-.824.44-.503.66-1.186.66-2.05v-12.178h1.932v12.202c0 1.366-.354 2.434-1.06 3.203-.707.77-1.736 1.194-3.086 1.273l-1.532.094-.141-1.626zm19.297-10.011v11.472h-1.861v-1.955a3.715 3.715 0 01-1.531 1.578c-.644.361-1.374.542-2.191.542-1.366 0-2.395-.377-3.086-1.131-.691-.769-1.036-1.9-1.036-3.392v-7.114h1.908v7.067c0 1.021.204 1.774.612 2.261.408.471 1.052.707 1.932.707 1.005 0 1.814-.322 2.426-.966.613-.659.919-1.523.919-2.591v-6.478h1.908zm9.318-.283c2.748 0 4.122 1.516 4.122 4.547v7.208h-1.908v-7.091c0-1.068-.212-1.845-.636-2.332-.409-.487-1.068-.73-1.979-.73-1.052 0-1.892.322-2.52.966-.629.644-.943 1.515-.943 2.615v6.572h-1.908V600.07h1.885v1.884a3.791 3.791 0 011.578-1.601c.675-.377 1.445-.566 2.309-.566z"/>
  <path fill="#C0C7CE" d="M827.741 610.083l1.414-.094c.785-.063 1.39-.338 1.814-.824.439-.503.659-1.186.659-2.05v-12.178h1.932v12.202c0 1.366-.354 2.434-1.06 3.203-.707.77-1.736 1.194-3.086 1.272l-1.531.095-.142-1.626zm19.297-10.011v11.472h-1.861v-1.955a3.709 3.709 0 01-1.531 1.578c-.644.361-1.374.542-2.191.542-1.366 0-2.395-.377-3.086-1.131-.691-.77-1.036-1.9-1.036-3.392v-7.114h1.908v7.067c0 1.021.204 1.774.612 2.261.409.471 1.053.707 1.932.707 1.005 0 1.814-.322 2.426-.966.613-.66.919-1.523.919-2.591v-6.478h1.908zm3.546-5.135h1.908v16.607h-1.908v-16.607z"/>
  <path fill="#C0C7CE" d="M923.493 607.278h-8.669l-1.837 4.264h-1.979l7.303-16.607h1.672l7.303 16.607h-1.956l-1.837-4.264zm-.683-1.602l-3.651-8.504-3.652 8.504h7.303zm16.314-5.606v11.472h-1.861v-1.955a3.709 3.709 0 01-1.531 1.578c-.644.361-1.374.542-2.191.542-1.366 0-2.395-.377-3.086-1.131-.691-.769-1.036-1.9-1.036-3.392v-7.114h1.908v7.067c0 1.021.204 1.774.612 2.261.409.471 1.053.707 1.932.707 1.005 0 1.814-.322 2.426-.966.613-.659.919-1.523.919-2.591v-6.478h1.908zm13.817 0v10.694c0 1.712-.44 3-1.319 3.864-.88.879-2.183 1.319-3.911 1.319-2.01 0-3.698-.518-5.064-1.555l.636-1.413c.769.502 1.492.864 2.167 1.083.675.22 1.429.33 2.261.33 1.1 0 1.932-.298 2.497-.895.566-.581.848-1.437.848-2.568v-2.025a3.575 3.575 0 01-1.531 1.696c-.675.392-1.476.588-2.402.588-1.005 0-1.901-.235-2.686-.706-.769-.471-1.374-1.139-1.814-2.002-.424-.864-.636-1.861-.636-2.992s.212-2.128.636-2.992c.44-.864 1.045-1.531 1.814-2.002.785-.471 1.681-.707 2.686-.707.91 0 1.703.197 2.379.589a3.77 3.77 0 011.531 1.673v-1.979h1.908zm-5.442 9.54c1.1 0 1.964-.361 2.592-1.083.628-.738.942-1.751.942-3.039 0-1.272-.314-2.269-.942-2.992-.613-.738-1.477-1.107-2.592-1.107s-1.994.369-2.638 1.107c-.628.723-.942 1.72-.942 2.992 0 1.288.314 2.301.942 3.039.644.722 1.523 1.083 2.638 1.083z"/>
  <path fill="#C0C7CE" d="M1011.17 611.732c-2.59 0-4.67-.699-6.22-2.096l.75-1.484c.82.691 1.65 1.185 2.5 1.484.86.298 1.86.447 2.99.447 1.34 0 2.37-.259 3.09-.777.72-.518 1.08-1.249 1.08-2.191 0-.549-.17-.997-.52-1.343-.34-.345-.8-.62-1.36-.824-.57-.204-1.33-.416-2.29-.636-1.29-.298-2.35-.612-3.18-.942-.81-.33-1.48-.801-2-1.414-.5-.612-.75-1.413-.75-2.402 0-.943.24-1.775.73-2.497.5-.738 1.21-1.304 2.12-1.696.92-.409 1.99-.613 3.2-.613 1.15 0 2.21.181 3.2.542 1.01.361 1.86.879 2.55 1.555l-.73 1.484c-.79-.676-1.59-1.162-2.41-1.461a7.081 7.081 0 00-2.61-.471c-1.29 0-2.3.275-3.04.825-.72.533-1.08 1.287-1.08 2.261 0 .832.32 1.46.96 1.884.65.424 1.62.786 2.92 1.084 1.43.346 2.56.667 3.37.966.82.283 1.49.714 2.03 1.295.55.582.82 1.359.82 2.333 0 .942-.25 1.766-.75 2.473-.49.707-1.19 1.256-2.12 1.649-.93.377-2.01.565-3.25.565zm18.59-5.63h-8.39c.07 1.335.43 2.348 1.09 3.039.66.675 1.59 1.013 2.8 1.013 1.33 0 2.56-.455 3.67-1.366l.64 1.39c-.5.471-1.15.848-1.93 1.13-.79.267-1.59.401-2.4.401-1.79 0-3.21-.526-4.24-1.579-1.02-1.052-1.54-2.504-1.54-4.358 0-1.177.23-2.214.69-3.109.45-.911 1.09-1.617 1.91-2.12.83-.503 1.77-.754 2.82-.754 1.53 0 2.72.503 3.58 1.508.87.989 1.3 2.355 1.3 4.099v.706zm-4.85-4.829c-1.01 0-1.82.314-2.43.942-.6.629-.95 1.516-1.06 2.662h6.67c-.03-1.162-.33-2.049-.88-2.662-.54-.628-1.31-.942-2.3-.942zm13.43-1.484c1.01 0 1.89.251 2.66.754.77.503 1.37 1.209 1.79 2.12.43.895.64 1.94.64 3.133 0 1.194-.21 2.238-.64 3.133-.42.879-1.02 1.563-1.79 2.049-.75.487-1.64.731-2.66.731-.89 0-1.68-.197-2.35-.589a3.777 3.777 0 01-1.51-1.673v6.337h-1.91v-15.712h1.91v1.979c.34-.723.85-1.28 1.51-1.673.67-.393 1.46-.589 2.35-.589zm-.38 10.341c1.12 0 1.98-.376 2.6-1.13.61-.754.91-1.822.91-3.204 0-1.382-.3-2.458-.91-3.227-.62-.785-1.48-1.178-2.6-1.178-1.11 0-1.97.377-2.59 1.131-.59.754-.89 1.829-.89 3.227s.3 2.481.89 3.251c.62.754 1.48 1.13 2.59 1.13z"/>
  <path fill="#FEF9FB" d="M84.84 178.681h198.546c9.293 0 16.826 7.533 16.826 16.826v92.543c0 9.293-7.533 16.826-16.826 16.826H84.84c-9.293 0-16.826-7.533-16.826-16.826v-92.543c0-9.293 7.533-16.826 16.826-16.826z"/>
  <path fill="#FEF9FB" d="M84.84 481.55h198.546c9.293 0 16.826 7.533 16.826 16.826v92.543c0 9.293-7.533 16.826-16.826 16.826H84.84c-9.293 0-16.826-7.533-16.826-16.826v-92.543c0-9.293 7.533-16.826 16.826-16.826z"/>
  <path fill="#FEF9FB" d="M84.84 330.114h198.546c9.293 0 16.826 7.533 16.826 16.826v92.543c0 9.293-7.533 16.826-16.826 16.826H84.84c-9.293 0-16.826-7.533-16.826-16.826V346.94c0-9.293 7.533-16.826 16.826-16.826z"/>
  <path d="M107.623 266.318v1.939H92.752v-1.545l8.813-8.632c1.111-1.09 1.858-2.029 2.241-2.816.404-.808.606-1.616.606-2.423 0-1.252-.434-2.221-1.302-2.908-.848-.706-2.07-1.06-3.665-1.06-2.484 0-4.412.788-5.785 2.363l-1.545-1.333c.828-.969 1.878-1.716 3.15-2.241 1.292-.525 2.746-.788 4.361-.788 2.16 0 3.866.515 5.118 1.545 1.272 1.009 1.908 2.403 1.908 4.179a7.2 7.2 0 01-.726 3.15c-.485 1.01-1.404 2.171-2.757 3.483l-7.208 7.087h11.662zm11.401-10.751c1.393 0 2.625.262 3.695.787 1.09.525 1.938 1.272 2.544 2.241.606.949.909 2.06.909 3.332 0 1.292-.313 2.433-.939 3.422-.626.99-1.494 1.757-2.605 2.302-1.09.525-2.322.787-3.695.787-2.806 0-4.957-.918-6.451-2.756-1.494-1.857-2.241-4.472-2.241-7.844 0-2.362.404-4.361 1.211-5.997.808-1.635 1.939-2.867 3.393-3.695 1.453-.848 3.149-1.272 5.088-1.272 2.1 0 3.775.384 5.027 1.151l-.878 1.757c-1.01-.667-2.383-1-4.119-1-2.342 0-4.18.747-5.512 2.242-1.333 1.473-1.999 3.624-1.999 6.451 0 .504.03 1.08.091 1.726.525-1.151 1.363-2.039 2.514-2.665 1.15-.646 2.473-.969 3.967-.969zm-.182 11.024c1.535 0 2.777-.414 3.726-1.242.969-.848 1.453-1.968 1.453-3.362 0-1.393-.484-2.503-1.453-3.331-.949-.828-2.242-1.242-3.877-1.242-1.07 0-2.019.202-2.847.606-.808.404-1.444.959-1.908 1.666a4.21 4.21 0 00-.697 2.362c0 .808.212 1.555.636 2.241.445.687 1.091 1.242 1.939 1.666.848.424 1.857.636 3.028.636zm27.322-14.386c1.999 0 3.584.585 4.755 1.756 1.191 1.151 1.787 2.837 1.787 5.058v9.238h-2.151v-9.026c0-1.655-.413-2.917-1.241-3.786-.828-.868-2.009-1.302-3.544-1.302-1.716 0-3.079.515-4.089 1.545-.989 1.009-1.484 2.413-1.484 4.21v8.359h-2.15v-22.473h2.15v9.328c.586-.929 1.394-1.645 2.423-2.15 1.03-.505 2.211-.757 3.544-.757zm18.951 16.203c-1.535 0-2.918-.343-4.15-1.03a7.727 7.727 0 01-2.907-2.907c-.707-1.232-1.06-2.625-1.06-4.18 0-1.554.353-2.948 1.06-4.179a7.52 7.52 0 012.907-2.878c1.232-.686 2.615-1.029 4.15-1.029 1.534 0 2.917.343 4.149 1.029a7.3 7.3 0 012.877 2.878c.707 1.231 1.06 2.625 1.06 4.179 0 1.555-.353 2.948-1.06 4.18a7.497 7.497 0 01-2.877 2.907c-1.232.687-2.615 1.03-4.149 1.03zm0-1.908c1.13 0 2.14-.252 3.028-.757a5.449 5.449 0 002.12-2.211c.505-.949.758-2.029.758-3.241 0-1.211-.253-2.291-.758-3.24a5.253 5.253 0 00-2.12-2.181c-.888-.525-1.898-.788-3.028-.788-1.131 0-2.151.263-3.059.788-.889.505-1.595 1.232-2.12 2.181-.505.949-.758 2.029-.758 3.24 0 1.212.253 2.292.758 3.241.525.949 1.231 1.686 2.12 2.211.908.505 1.928.757 3.059.757zm26.832-14.174v15.931h-2.059v-2.908a6.012 6.012 0 01-2.332 2.272c-.99.525-2.12.787-3.392.787-2.08 0-3.726-.575-4.937-1.726-1.191-1.171-1.787-2.877-1.787-5.119v-9.237h2.15v9.025c0 1.676.414 2.948 1.242 3.816.828.869 2.009 1.303 3.544 1.303 1.675 0 2.998-.505 3.967-1.515.969-1.029 1.454-2.453 1.454-4.27v-8.359h2.15zm8.082 3.119c.505-1.07 1.252-1.877 2.242-2.423 1.009-.545 2.251-.817 3.725-.817v2.089l-.515-.03c-1.676 0-2.988.515-3.937 1.545s-1.424 2.473-1.424 4.331v8.117h-2.15v-15.931h2.059v3.119zm14.249 12.963c-1.292 0-2.534-.182-3.725-.545-1.171-.384-2.09-.858-2.756-1.424l.969-1.696c.666.525 1.504.96 2.514 1.303 1.009.323 2.059.484 3.15.484 1.453 0 2.523-.222 3.21-.666.707-.464 1.06-1.11 1.06-1.938 0-.586-.192-1.04-.575-1.363-.384-.343-.869-.596-1.454-.757-.586-.182-1.363-.354-2.332-.515-1.293-.243-2.332-.485-3.12-.727a4.828 4.828 0 01-2.029-1.302c-.545-.606-.818-1.444-.818-2.514 0-1.333.555-2.423 1.666-3.271 1.11-.848 2.655-1.272 4.634-1.272 1.03 0 2.059.141 3.089.424 1.03.262 1.878.616 2.544 1.06l-.939 1.726c-1.312-.909-2.877-1.363-4.694-1.363-1.373 0-2.413.242-3.12.727-.686.485-1.029 1.121-1.029 1.908 0 .606.191 1.09.575 1.454.404.363.899.636 1.484.818.586.161 1.393.333 2.423.515 1.272.242 2.292.484 3.059.726a4.513 4.513 0 011.969 1.242c.545.586.817 1.393.817 2.423 0 1.393-.585 2.504-1.756 3.332-1.151.807-2.756 1.211-4.816 1.211z"/>
  <path d="M111.166 565.55h-4.24v5.573h-2.181v-5.573H92.782v-1.575l11.236-14.053h2.423l-10.842 13.69h9.207v-4.907h2.12v4.907h4.24v1.938zm7.458-6.936c3.069 0 5.3.556 6.693 1.666 1.413 1.091 2.12 2.625 2.12 4.604 0 1.231-.293 2.332-.878 3.301-.566.969-1.424 1.737-2.575 2.302-1.151.545-2.564.818-4.24.818-1.514 0-2.958-.243-4.331-.727-1.353-.505-2.443-1.171-3.271-1.999l1.06-1.727c.707.727 1.636 1.323 2.787 1.787 1.15.445 2.392.667 3.725.667 1.756 0 3.109-.394 4.058-1.181.969-.788 1.454-1.838 1.454-3.15 0-1.454-.545-2.554-1.635-3.302-1.071-.747-2.888-1.12-5.452-1.12h-4.513l1.091-10.631h11.599v1.939h-9.691l-.727 6.753h2.726zm40.8-3.543c1.999 0 3.563.575 4.694 1.726 1.151 1.151 1.726 2.847 1.726 5.088v9.238h-2.15v-9.026c0-1.655-.404-2.917-1.211-3.785-.788-.869-1.909-1.303-3.362-1.303-1.656 0-2.958.515-3.907 1.545-.949 1.009-1.424 2.413-1.424 4.21v8.359h-2.15v-9.026c0-1.655-.404-2.917-1.212-3.785-.787-.869-1.918-1.303-3.392-1.303-1.635 0-2.938.515-3.907 1.545-.949 1.009-1.423 2.413-1.423 4.21v8.359h-2.151v-15.931h2.06v2.908a5.743 5.743 0 012.362-2.242c1.01-.525 2.171-.787 3.483-.787 1.333 0 2.484.283 3.453.848.989.565 1.726 1.403 2.211 2.514a6.121 6.121 0 012.514-2.453c1.11-.606 2.372-.909 3.786-.909zm12.252.121h2.15v15.931h-2.15v-15.931zm1.09-3.483c-.444 0-.817-.151-1.12-.454a1.489 1.489 0 01-.455-1.091c0-.403.152-.757.455-1.06a1.525 1.525 0 011.12-.454c.445 0 .818.152 1.121.454.303.283.454.626.454 1.03 0 .444-.151.818-.454 1.121a1.522 1.522 0 01-1.121.454zm15.161 3.362c1.998 0 3.583.585 4.755 1.757 1.191 1.15 1.786 2.836 1.786 5.057v9.238h-2.15v-9.026c0-1.655-.414-2.917-1.242-3.785-.828-.869-2.009-1.303-3.543-1.303-1.716 0-3.079.515-4.089 1.545-.989 1.009-1.484 2.413-1.484 4.21v8.359h-2.15v-15.931h2.059v2.938a5.905 5.905 0 012.423-2.241c1.05-.546 2.262-.818 3.635-.818zm26.735.121v15.931h-2.059v-2.908a5.999 5.999 0 01-2.332 2.272c-.99.525-2.12.787-3.392.787-2.08 0-3.726-.575-4.937-1.726-1.191-1.171-1.787-2.877-1.787-5.118v-9.238h2.15v9.026c0 1.675.414 2.947 1.242 3.816.828.868 2.009 1.302 3.544 1.302 1.676 0 2.998-.505 3.967-1.514.969-1.03 1.454-2.454 1.454-4.271v-8.359h2.15zm14.412 14.962c-.403.363-.908.646-1.514.848a6.215 6.215 0 01-1.847.272c-1.495 0-2.645-.403-3.453-1.211s-1.212-1.949-1.212-3.423v-9.631h-2.847v-1.817h2.847v-3.483h2.151v3.483h4.846v1.817h-4.846v9.51c0 .949.232 1.676.696 2.181.485.485 1.171.727 2.06.727.444 0 .868-.071 1.272-.212a3.18 3.18 0 001.09-.606l.757 1.545zm17.224-6.33h-13.326c.121 1.655.757 2.998 1.908 4.028 1.151 1.009 2.605 1.514 4.362 1.514.989 0 1.897-.171 2.725-.515a6.109 6.109 0 002.151-1.575l1.211 1.394a6.8 6.8 0 01-2.665 1.938c-1.05.444-2.211.666-3.483.666-1.636 0-3.089-.343-4.361-1.029a7.671 7.671 0 01-2.938-2.908c-.707-1.232-1.06-2.625-1.06-4.18 0-1.554.333-2.947.999-4.179.687-1.232 1.616-2.191 2.787-2.877 1.191-.687 2.524-1.03 3.997-1.03 1.474 0 2.797.343 3.968 1.03 1.171.686 2.09 1.645 2.756 2.877.666 1.211 1 2.605 1 4.179l-.031.667zm-7.693-6.906c-1.534 0-2.826.495-3.876 1.484-1.03.97-1.616 2.242-1.757 3.817h11.297c-.141-1.575-.737-2.847-1.787-3.817-1.03-.989-2.322-1.484-3.877-1.484zm16.371 14.356c-1.292 0-2.534-.181-3.725-.545-1.171-.383-2.09-.858-2.756-1.423l.969-1.696c.666.525 1.504.959 2.514 1.302 1.009.323 2.059.485 3.149.485 1.454 0 2.524-.223 3.211-.667.706-.464 1.06-1.11 1.06-1.938 0-.586-.192-1.04-.576-1.363-.383-.343-.868-.596-1.453-.757-.586-.182-1.363-.354-2.332-.515-1.293-.242-2.333-.485-3.12-.727a4.818 4.818 0 01-2.029-1.302c-.545-.606-.818-1.444-.818-2.514 0-1.333.555-2.423 1.666-3.271 1.11-.848 2.655-1.272 4.634-1.272 1.029 0 2.059.141 3.089.424 1.03.262 1.878.616 2.544 1.06l-.939 1.726c-1.312-.908-2.877-1.363-4.694-1.363-1.373 0-2.413.243-3.12.727-.686.485-1.03 1.121-1.03 1.908 0 .606.192 1.091.576 1.454.404.364.898.636 1.484.818.585.161 1.393.333 2.423.515 1.272.242 2.292.484 3.059.727a4.493 4.493 0 011.968 1.241c.546.586.818 1.394.818 2.423 0 1.394-.585 2.504-1.756 3.332-1.151.808-2.757 1.211-4.816 1.211z"/>
  <path d="M100.354 412.622c2.221.122 3.907.727 5.058 1.818 1.171 1.07 1.756 2.473 1.756 4.21 0 1.211-.292 2.291-.878 3.24-.586.929-1.454 1.666-2.605 2.211-1.151.545-2.554.818-4.21.818-1.535 0-2.988-.242-4.361-.727-1.353-.505-2.443-1.171-3.271-1.999l1.06-1.726c.707.727 1.646 1.322 2.817 1.787 1.171.444 2.423.666 3.756.666 1.737 0 3.08-.374 4.029-1.121.949-.767 1.423-1.817 1.423-3.149 0-1.313-.474-2.343-1.423-3.09s-2.383-1.12-4.301-1.12H97.69v-1.606l5.875-7.359H92.722v-1.939h13.63v1.545l-5.998 7.541zm11.522 12.267c-.444 0-.827-.162-1.15-.485a1.664 1.664 0 01-.455-1.181c0-.465.152-.848.455-1.151a1.571 1.571 0 011.15-.485c.445 0 .828.162 1.151.485.323.303.485.686.485 1.151 0 .464-.162.858-.485 1.181s-.706.485-1.151.485zm10.356-12.66c3.069 0 5.3.555 6.693 1.665 1.414 1.091 2.12 2.625 2.12 4.604 0 1.232-.292 2.332-.878 3.301-.565.97-1.423 1.737-2.574 2.302-1.151.545-2.565.818-4.24.818-1.515 0-2.958-.242-4.331-.727-1.353-.505-2.444-1.171-3.271-1.999l1.06-1.726c.706.727 1.635 1.322 2.786 1.787 1.151.444 2.393.666 3.725.666 1.757 0 3.11-.394 4.059-1.181.969-.788 1.453-1.838 1.453-3.15 0-1.454-.545-2.554-1.635-3.301-1.07-.747-2.887-1.121-5.452-1.121h-4.512l1.09-10.631h11.6v1.939h-9.692l-.727 6.754h2.726zm29.049-3.544c1.999 0 3.584.586 4.755 1.757 1.191 1.151 1.787 2.837 1.787 5.058v9.237h-2.151v-9.025c0-1.656-.414-2.918-1.241-3.786-.828-.868-2.009-1.302-3.544-1.302-1.716 0-3.079.514-4.089 1.544-.989 1.01-1.484 2.413-1.484 4.21v8.359h-2.15v-22.473h2.15v9.329c.586-.929 1.393-1.646 2.423-2.151 1.03-.504 2.211-.757 3.544-.757zm18.95 16.204c-1.534 0-2.917-.344-4.149-1.03a7.73 7.73 0 01-2.907-2.908c-.707-1.231-1.06-2.625-1.06-4.179 0-1.555.353-2.948 1.06-4.18a7.51 7.51 0 012.907-2.877c1.232-.687 2.615-1.03 4.149-1.03 1.535 0 2.918.343 4.15 1.03a7.31 7.31 0 012.877 2.877c.707 1.232 1.06 2.625 1.06 4.18 0 1.554-.353 2.948-1.06 4.179a7.52 7.52 0 01-2.877 2.908c-1.232.686-2.615 1.03-4.15 1.03zm0-1.908c1.131 0 2.141-.253 3.029-.758.909-.525 1.615-1.262 2.12-2.211s.757-2.029.757-3.24c0-1.212-.252-2.292-.757-3.241s-1.211-1.676-2.12-2.181c-.888-.525-1.898-.787-3.029-.787-1.13 0-2.15.262-3.058.787-.889.505-1.596 1.232-2.121 2.181-.504.949-.757 2.029-.757 3.241 0 1.211.253 2.291.757 3.24.525.949 1.232 1.686 2.121 2.211.908.505 1.928.758 3.058.758zm26.833-14.175v15.931h-2.059v-2.907a6.01 6.01 0 01-2.332 2.271c-.99.525-2.121.788-3.393.788-2.079 0-3.725-.576-4.936-1.727-1.192-1.171-1.787-2.877-1.787-5.118v-9.238h2.15v9.026c0 1.676.414 2.948 1.242 3.816.828.868 2.009 1.302 3.543 1.302 1.676 0 2.999-.505 3.968-1.514.969-1.03 1.454-2.453 1.454-4.271v-8.359h2.15zm8.082 3.12c.505-1.07 1.252-1.878 2.241-2.423 1.01-.545 2.252-.818 3.726-.818v2.09l-.515-.03c-1.676 0-2.988.515-3.937 1.544-.949 1.03-1.424 2.474-1.424 4.331v8.117h-2.15v-15.931h2.059v3.12zm14.249 12.963c-1.292 0-2.534-.182-3.725-.546-1.171-.383-2.09-.858-2.756-1.423l.969-1.696c.666.525 1.504.959 2.514 1.302 1.009.323 2.059.485 3.149.485 1.454 0 2.524-.222 3.211-.666.706-.465 1.06-1.111 1.06-1.939 0-.585-.192-1.04-.576-1.363-.383-.343-.868-.595-1.453-.757-.586-.182-1.363-.353-2.332-.515-1.293-.242-2.333-.484-3.12-.727a4.809 4.809 0 01-2.029-1.302c-.545-.606-.818-1.444-.818-2.514 0-1.332.555-2.423 1.666-3.271 1.11-.848 2.655-1.272 4.634-1.272 1.029 0 2.059.142 3.089.424 1.03.263 1.878.616 2.544 1.06l-.939 1.727c-1.312-.909-2.877-1.363-4.694-1.363-1.373 0-2.413.242-3.12.727-.686.484-1.03 1.12-1.03 1.908 0 .605.192 1.09.576 1.453.404.364.898.636 1.484.818.585.162 1.393.333 2.423.515 1.272.242 2.292.485 3.059.727a4.486 4.486 0 011.968 1.242c.546.585.818 1.393.818 2.423 0 1.393-.585 2.503-1.756 3.331-1.151.808-2.757 1.212-4.816 1.212z"/>
  <path d="M92.97 206.961h-4.684v-2.221h11.993v2.221h-4.684v11.913H92.97v-11.913zm12.779 12.054c-1.091 0-2.073-.235-2.948-.706a5.25 5.25 0 01-2.06-1.959c-.484-.848-.727-1.804-.727-2.867 0-1.064.242-2.013.727-2.847a5.243 5.243 0 012.06-1.959c.875-.471 1.857-.706 2.948-.706 1.104 0 2.093.235 2.968.706a5.096 5.096 0 012.039 1.959c.498.834.747 1.783.747 2.847 0 1.063-.249 2.019-.747 2.867a5.103 5.103 0 01-2.039 1.959c-.875.471-1.864.706-2.968.706zm0-2.16c.929 0 1.696-.31 2.302-.929.605-.619.908-1.434.908-2.443 0-1.01-.303-1.824-.908-2.443-.606-.619-1.373-.929-2.302-.929s-1.696.31-2.302.929c-.592.619-.888 1.433-.888 2.443 0 1.009.296 1.824.888 2.443.606.619 1.373.929 2.302.929zm14.649 1.433c-.296.243-.66.424-1.09.545a4.734 4.734 0 01-1.333.182c-1.184 0-2.1-.309-2.746-.929-.646-.619-.969-1.521-.969-2.705v-5.189h-1.777v-2.019h1.777v-2.464h2.524v2.464h2.887v2.019h-2.887v5.128c0 .525.128.929.383 1.212.256.269.626.404 1.111.404.565 0 1.036-.149 1.413-.445l.707 1.797zm6.195-10.317c1.589 0 2.8.383 3.635 1.151.848.753 1.272 1.898 1.272 3.432v6.32h-2.383v-1.313c-.309.472-.754.835-1.332 1.091-.566.242-1.252.363-2.06.363s-1.514-.134-2.12-.404c-.606-.282-1.077-.666-1.413-1.151a3.011 3.011 0 01-.485-1.675c0-.97.357-1.744 1.07-2.322.727-.593 1.864-.889 3.412-.889h2.787v-.161c0-.754-.229-1.333-.687-1.737-.444-.404-1.11-.605-1.999-.605-.605 0-1.204.094-1.797.282-.578.189-1.07.451-1.474.788l-.989-1.838c.565-.43 1.245-.76 2.039-.989a9.075 9.075 0 012.524-.343zm-.343 9.207c.633 0 1.191-.142 1.676-.424a2.4 2.4 0 001.05-1.252v-1.252h-2.605c-1.454 0-2.18.478-2.18 1.434 0 .457.181.821.545 1.09.363.269.868.404 1.514.404zm8.489-13.286h2.524v14.982h-2.524v-14.982zm17.534 4.079c1.36 0 2.45.397 3.271 1.191.822.794 1.232 1.972 1.232 3.533v6.179h-2.524v-5.856c0-.942-.222-1.649-.666-2.12-.444-.484-1.077-.727-1.898-.727-.929 0-1.663.283-2.201.849-.538.551-.808 1.352-.808 2.402v5.452h-2.523v-14.982h2.523v5.452a4.018 4.018 0 011.535-1.01c.619-.242 1.306-.363 2.059-.363zm12.649 11.044c-1.09 0-2.073-.235-2.948-.706a5.247 5.247 0 01-2.059-1.959c-.485-.848-.727-1.804-.727-2.867 0-1.064.242-2.013.727-2.847a5.24 5.24 0 012.059-1.959c.875-.471 1.858-.706 2.948-.706 1.104 0 2.093.235 2.968.706a5.105 5.105 0 012.04 1.959c.498.834.747 1.783.747 2.847 0 1.063-.249 2.019-.747 2.867a5.112 5.112 0 01-2.04 1.959c-.875.471-1.864.706-2.968.706zm0-2.16c.929 0 1.696-.31 2.302-.929.606-.619.909-1.434.909-2.443 0-1.01-.303-1.824-.909-2.443-.606-.619-1.373-.929-2.302-.929s-1.696.31-2.302.929c-.592.619-.888 1.433-.888 2.443 0 1.009.296 1.824.888 2.443.606.619 1.373.929 2.302.929zm18.607-8.763v10.782h-2.403v-1.373a4.126 4.126 0 01-1.514 1.131 5 5 0 01-1.959.383c-1.44 0-2.577-.397-3.412-1.191-.821-.808-1.232-1.999-1.232-3.574v-6.158h2.524v5.815c0 .969.216 1.696.646 2.18.445.472 1.071.707 1.878.707.902 0 1.616-.276 2.141-.828.538-.565.807-1.373.807-2.423v-5.451h2.524zm5.707 1.575c.727-1.131 2.006-1.696 3.837-1.696v2.402a3.244 3.244 0 00-.586-.06c-.982 0-1.75.289-2.302.868-.552.565-.827 1.386-.827 2.463v5.23h-2.524v-10.782h2.402v1.575zm9.349 9.348c-.875 0-1.73-.114-2.565-.343-.834-.229-1.5-.518-1.998-.868l.969-1.918c.484.323 1.063.585 1.736.787.687.188 1.36.283 2.019.283 1.508 0 2.262-.397 2.262-1.192 0-.376-.195-.639-.586-.787-.377-.148-.989-.289-1.837-.424-.889-.135-1.616-.289-2.181-.464a3.456 3.456 0 01-1.454-.909c-.403-.444-.605-1.057-.605-1.837 0-1.023.424-1.838 1.272-2.444.861-.619 2.019-.928 3.473-.928.74 0 1.48.087 2.221.262.74.162 1.346.384 1.817.666l-.969 1.919c-.916-.539-1.945-.808-3.09-.808-.74 0-1.305.114-1.696.343-.377.216-.565.505-.565.868 0 .404.202.694.606.869.417.161 1.056.316 1.918.464.861.135 1.568.289 2.12.464a3.246 3.246 0 011.413.889c.404.417.606 1.009.606 1.777 0 1.009-.437 1.817-1.312 2.423-.875.605-2.067.908-3.574.908z"/>
  <path d="M99.27 518.469h-7.067l-1.393 3.271h-2.706l6.36-14.134h2.584l6.38 14.134h-2.746l-1.412-3.271zm-.868-2.059l-2.665-6.179-2.645 6.179h5.31zm16.126-5.452l-4.624 10.782H107.3l-4.624-10.782h2.625l3.351 7.996 3.453-7.996h2.423zm11.418 5.452c0 .175-.014.424-.041.747h-8.46c.148.794.532 1.427 1.151 1.898.633.457 1.413.686 2.342.686 1.185 0 2.161-.39 2.928-1.171l1.353 1.555a4.554 4.554 0 01-1.838 1.312c-.74.296-1.575.444-2.503.444-1.185 0-2.228-.235-3.13-.706-.902-.471-1.602-1.124-2.1-1.959-.485-.848-.727-1.804-.727-2.867 0-1.05.236-1.992.707-2.827a5.129 5.129 0 011.999-1.978c.848-.472 1.804-.707 2.867-.707 1.05 0 1.985.235 2.807.707a4.767 4.767 0 011.938 1.958c.471.835.707 1.804.707 2.908zm-5.452-3.554c-.808 0-1.494.242-2.06.727-.551.471-.888 1.104-1.009 1.898h6.118c-.108-.781-.438-1.414-.99-1.898-.551-.485-1.238-.727-2.059-.727zm10.279-.323c.727-1.131 2.005-1.696 3.836-1.696v2.403a3.155 3.155 0 00-.586-.061c-.982 0-1.749.289-2.301.868-.552.566-.828 1.387-.828 2.464v5.229h-2.524v-10.782h2.403v1.575zm10.037-1.696c1.588 0 2.8.383 3.634 1.151.848.754 1.272 1.898 1.272 3.432v6.32h-2.382v-1.312c-.31.471-.754.834-1.333 1.09-.565.242-1.252.363-2.059.363-.808 0-1.515-.134-2.12-.403-.606-.283-1.077-.667-1.414-1.151a3.014 3.014 0 01-.484-1.676c0-.969.356-1.743 1.07-2.322.727-.592 1.864-.889 3.412-.889h2.786v-.161c0-.754-.228-1.333-.686-1.737-.444-.403-1.111-.605-1.999-.605-.606 0-1.205.094-1.797.282a4.405 4.405 0 00-1.474.788l-.989-1.838c.565-.43 1.245-.76 2.039-.989a9.064 9.064 0 012.524-.343zm-.343 9.207c.632 0 1.191-.141 1.676-.424a2.39 2.39 0 001.049-1.252v-1.252h-2.604c-1.454 0-2.181.478-2.181 1.434 0 .458.182.821.545 1.09.364.269.869.404 1.515.404zm19.288-9.086v9.147c0 3.796-1.938 5.694-5.815 5.694-1.036 0-2.019-.135-2.948-.404-.928-.256-1.696-.633-2.301-1.131l1.13-1.898c.471.39 1.064.7 1.777.929a6.93 6.93 0 002.201.363c1.185 0 2.053-.269 2.605-.807.552-.539.827-1.36.827-2.464v-.565a4.14 4.14 0 01-1.574 1.07 5.56 5.56 0 01-2.04.363c-1.023 0-1.952-.215-2.786-.646a5.097 5.097 0 01-1.959-1.857c-.471-.794-.706-1.703-.706-2.726s.235-1.925.706-2.706a4.953 4.953 0 011.959-1.837c.834-.431 1.763-.646 2.786-.646.781 0 1.488.128 2.12.383a3.926 3.926 0 011.616 1.172v-1.434h2.402zm-5.754 8.157c.956 0 1.736-.282 2.342-.848.619-.579.929-1.326.929-2.241 0-.902-.31-1.636-.929-2.201-.606-.565-1.386-.848-2.342-.848-.969 0-1.763.283-2.383.848-.605.565-.908 1.299-.908 2.201 0 .915.303 1.662.908 2.241.62.566 1.414.848 2.383.848zm19.208-2.705c0 .175-.013.424-.04.747h-8.46c.148.794.532 1.427 1.151 1.898.633.457 1.413.686 2.342.686 1.185 0 2.161-.39 2.928-1.171l1.353 1.555a4.554 4.554 0 01-1.838 1.312c-.74.296-1.575.444-2.503.444-1.185 0-2.228-.235-3.13-.706-.902-.471-1.602-1.124-2.1-1.959-.485-.848-.727-1.804-.727-2.867 0-1.05.236-1.992.707-2.827a5.129 5.129 0 011.999-1.978c.848-.472 1.803-.707 2.867-.707 1.05 0 1.985.235 2.806.707a4.763 4.763 0 011.939 1.958c.471.835.706 1.804.706 2.908zm-5.451-3.554c-.808 0-1.494.242-2.06.727-.552.471-.888 1.104-1.009 1.898h6.118c-.108-.781-.438-1.414-.99-1.898-.552-.485-1.238-.727-2.059-.727zm16.788 9.025c-.875 0-1.73-.114-2.565-.343-.834-.229-1.501-.518-1.999-.868l.97-1.918c.484.323 1.063.585 1.736.787.686.189 1.36.283 2.019.283 1.508 0 2.262-.397 2.262-1.191 0-.377-.196-.64-.586-.788-.377-.148-.989-.289-1.837-.424-.889-.134-1.616-.289-2.181-.464a3.45 3.45 0 01-1.454-.909c-.404-.444-.606-1.056-.606-1.837 0-1.023.424-1.838 1.272-2.443.862-.62 2.02-.929 3.473-.929.741 0 1.481.087 2.221.262.741.162 1.346.384 1.818.667l-.97 1.918c-.915-.539-1.945-.808-3.089-.808-.74 0-1.306.115-1.696.343-.377.216-.565.505-.565.869 0 .403.202.693.605.868.418.161 1.057.316 1.919.464.861.135 1.568.29 2.12.465a3.244 3.244 0 011.413.888c.404.417.606 1.01.606 1.777 0 1.009-.438 1.817-1.313 2.423-.875.606-2.066.908-3.573.908zm17.195-5.471c0 .175-.013.424-.04.747h-8.46c.148.794.532 1.427 1.151 1.898.632.457 1.413.686 2.342.686 1.184 0 2.16-.39 2.928-1.171l1.352 1.555a4.551 4.551 0 01-1.837 1.312c-.74.296-1.575.444-2.504.444-1.184 0-2.227-.235-3.129-.706-.902-.471-1.602-1.124-2.1-1.959-.485-.848-.727-1.804-.727-2.867 0-1.05.236-1.992.707-2.827a5.129 5.129 0 011.999-1.978c.848-.472 1.803-.707 2.867-.707 1.05 0 1.985.235 2.806.707a4.763 4.763 0 011.939 1.958c.471.835.706 1.804.706 2.908zm-5.451-3.554c-.808 0-1.494.242-2.06.727-.552.471-.888 1.104-1.009 1.898h6.118c-.108-.781-.438-1.414-.99-1.898-.552-.485-1.238-.727-2.059-.727zm11.207 9.025a9.646 9.646 0 01-2.564-.343c-.835-.229-1.501-.518-1.999-.868l.969-1.918c.485.323 1.064.585 1.737.787a7.58 7.58 0 002.019.283c1.507 0 2.261-.397 2.261-1.191 0-.377-.195-.64-.585-.788-.377-.148-.99-.289-1.838-.424-.888-.134-1.615-.289-2.18-.464a3.45 3.45 0 01-1.454-.909c-.404-.444-.606-1.056-.606-1.837 0-1.023.424-1.838 1.272-2.443.862-.62 2.019-.929 3.473-.929.74 0 1.481.087 2.221.262.74.162 1.346.384 1.817.667l-.969 1.918c-.915-.539-1.945-.808-3.089-.808-.741 0-1.306.115-1.696.343-.377.216-.566.505-.566.869 0 .403.202.693.606.868.417.161 1.057.316 1.918.464.862.135 1.569.29 2.12.465a3.253 3.253 0 011.414.888c.404.417.606 1.01.606 1.777 0 1.009-.438 1.817-1.313 2.423-.875.606-2.066.908-3.574.908zm10.392 0c-.875 0-1.73-.114-2.565-.343-.834-.229-1.501-.518-1.999-.868l.97-1.918c.484.323 1.063.585 1.736.787a7.59 7.59 0 002.019.283c1.508 0 2.262-.397 2.262-1.191 0-.377-.196-.64-.586-.788-.377-.148-.989-.289-1.837-.424-.889-.134-1.616-.289-2.181-.464a3.45 3.45 0 01-1.454-.909c-.404-.444-.606-1.056-.606-1.837 0-1.023.424-1.838 1.273-2.443.861-.62 2.019-.929 3.472-.929.741 0 1.481.087 2.221.262.741.162 1.346.384 1.818.667l-.97 1.918c-.915-.539-1.945-.808-3.089-.808-.74 0-1.305.115-1.696.343-.377.216-.565.505-.565.869 0 .403.202.693.606.868.417.161 1.056.316 1.918.464.861.135 1.568.29 2.12.465a3.244 3.244 0 011.413.888c.404.417.606 1.01.606 1.777 0 1.009-.438 1.817-1.313 2.423-.875.606-2.066.908-3.573.908zm7.059-10.923h2.524v10.782h-2.524v-10.782zm1.272-1.777c-.457 0-.841-.141-1.15-.424-.31-.296-.465-.659-.465-1.09s.155-.788.465-1.07c.309-.296.693-.445 1.15-.445.458 0 .842.142 1.151.425.31.269.465.612.465 1.029 0 .444-.155.821-.465 1.131-.296.296-.679.444-1.151.444zm9.411 12.7c-1.091 0-2.073-.235-2.948-.706a5.243 5.243 0 01-2.06-1.959c-.484-.848-.726-1.804-.726-2.867s.242-2.012.726-2.847a5.248 5.248 0 012.06-1.958c.875-.472 1.857-.707 2.948-.707 1.104 0 2.093.235 2.968.707a5.1 5.1 0 012.039 1.958c.498.835.747 1.784.747 2.847s-.249 2.019-.747 2.867a5.096 5.096 0 01-2.039 1.959c-.875.471-1.864.706-2.968.706zm0-2.16c.929 0 1.696-.31 2.302-.929.605-.619.908-1.433.908-2.443s-.303-1.824-.908-2.443c-.606-.619-1.373-.929-2.302-.929s-1.696.31-2.302.929c-.592.619-.888 1.433-.888 2.443s.296 1.824.888 2.443c.606.619 1.373.929 2.302.929zm14.286-8.884c1.359 0 2.45.397 3.271 1.191.821.794 1.231 1.972 1.231 3.534v6.178h-2.524v-5.855c0-.943-.222-1.649-.666-2.12-.444-.485-1.077-.727-1.898-.727-.929 0-1.662.282-2.201.848-.538.552-.807 1.353-.807 2.402v5.452h-2.524v-10.782h2.403v1.393a3.949 3.949 0 011.574-1.131c.633-.255 1.347-.383 2.141-.383z"/>
  <path d="M90.103 361.223h2.625v11.913h7.39v2.221H90.103v-14.134zm16.062 3.231c1.589 0 2.8.384 3.635 1.151.848.754 1.272 1.898 1.272 3.432v6.32h-2.383v-1.312c-.309.471-.753.834-1.332 1.09-.566.242-1.252.364-2.06.364-.807 0-1.514-.135-2.12-.404-.606-.283-1.077-.667-1.413-1.151a3.015 3.015 0 01-.485-1.676c0-.969.357-1.743 1.07-2.322.727-.592 1.865-.888 3.413-.888h2.786v-.162c0-.754-.229-1.333-.686-1.736-.445-.404-1.111-.606-1.999-.606-.606 0-1.205.094-1.797.283a4.394 4.394 0 00-1.474.787l-.99-1.837c.566-.431 1.245-.761 2.04-.99a9.062 9.062 0 012.523-.343zm-.343 9.207c.633 0 1.192-.141 1.676-.424a2.396 2.396 0 001.05-1.252v-1.252h-2.605c-1.453 0-2.18.478-2.18 1.434 0 .458.181.821.545 1.09.363.27.868.404 1.514.404zm11.821 1.838c-.875 0-1.73-.115-2.565-.344-.834-.228-1.501-.518-1.999-.868l.97-1.918c.484.323 1.063.586 1.736.787.686.189 1.36.283 2.019.283 1.508 0 2.262-.397 2.262-1.191 0-.377-.196-.64-.586-.788-.377-.148-.989-.289-1.837-.424-.889-.134-1.616-.289-2.181-.464a3.45 3.45 0 01-1.454-.909c-.404-.444-.606-1.056-.606-1.837 0-1.023.424-1.837 1.272-2.443.862-.619 2.02-.929 3.473-.929a9.62 9.62 0 012.221.263c.741.161 1.346.383 1.818.666l-.97 1.918c-.915-.538-1.945-.808-3.089-.808-.74 0-1.306.115-1.696.344-.377.215-.565.504-.565.868 0 .404.202.693.605.868.418.162 1.057.316 1.919.464.861.135 1.568.29 2.12.465a3.244 3.244 0 011.413.888c.404.418.606 1.01.606 1.777 0 1.01-.438 1.817-1.313 2.423s-2.066.909-3.573.909zm13.541-.727c-.296.242-.66.424-1.091.545a4.758 4.758 0 01-1.332.182c-1.185 0-2.1-.31-2.746-.929-.646-.619-.969-1.521-.969-2.706v-5.189h-1.777v-2.019h1.777v-2.463h2.524v2.463h2.887v2.019h-2.887v5.129c0 .525.127.928.383 1.211.256.269.626.404 1.111.404.565 0 1.036-.148 1.413-.444l.707 1.797zm17.126-1.636v2.221h-10.419v-1.756l5.613-5.331c.633-.606 1.057-1.131 1.272-1.575.229-.457.344-.908.344-1.353 0-.659-.222-1.164-.667-1.514-.444-.35-1.097-.525-1.958-.525-1.441 0-2.544.491-3.312 1.474l-1.837-1.413c.552-.741 1.292-1.313 2.221-1.717.942-.417 1.992-.625 3.15-.625 1.534 0 2.759.363 3.675 1.09.915.727 1.373 1.716 1.373 2.968 0 .767-.162 1.487-.485 2.16-.323.673-.942 1.441-1.858 2.302l-3.775 3.594h6.663zm24.681-8.561l-3.977 10.782h-2.423l-2.787-7.43-2.826 7.43h-2.423l-3.958-10.782h2.383l2.847 7.956 2.968-7.956h2.12l2.908 7.996 2.927-7.996h2.241zm11.576 5.452c0 .175-.013.424-.04.747h-8.46c.148.794.531 1.427 1.15 1.898.633.458 1.414.686 2.343.686 1.184 0 2.16-.39 2.927-1.171l1.353 1.555a4.551 4.551 0 01-1.837 1.312c-.741.297-1.575.445-2.504.445-1.185 0-2.228-.236-3.13-.707-.901-.471-1.601-1.124-2.099-1.959-.485-.848-.727-1.803-.727-2.867 0-1.05.235-1.992.706-2.827a5.136 5.136 0 011.999-1.978c.848-.471 1.804-.707 2.867-.707 1.05 0 1.986.236 2.807.707a4.755 4.755 0 011.938 1.958c.471.835.707 1.804.707 2.908zm-5.452-3.554c-.807 0-1.494.242-2.059.727-.552.471-.889 1.104-1.01 1.898h6.118c-.107-.781-.437-1.413-.989-1.898-.552-.485-1.238-.727-2.06-.727zm18.012 3.554c0 .175-.013.424-.04.747h-8.46c.148.794.532 1.427 1.151 1.898.632.458 1.413.686 2.342.686 1.184 0 2.16-.39 2.928-1.171l1.352 1.555a4.551 4.551 0 01-1.837 1.312c-.74.297-1.575.445-2.504.445-1.184 0-2.227-.236-3.129-.707-.902-.471-1.602-1.124-2.1-1.959-.485-.848-.727-1.803-.727-2.867 0-1.05.236-1.992.707-2.827a5.129 5.129 0 011.999-1.978c.848-.471 1.803-.707 2.867-.707 1.05 0 1.985.236 2.806.707a4.763 4.763 0 011.939 1.958c.471.835.706 1.804.706 2.908zm-5.451-3.554c-.808 0-1.494.242-2.06.727-.552.471-.888 1.104-1.009 1.898h6.118c-.108-.781-.438-1.413-.99-1.898-.552-.485-1.238-.727-2.059-.727zm12.277 4.26l-1.877 1.777v2.847h-2.524v-14.982h2.524v9.046l5.229-4.846h3.029l-4.503 4.523 4.927 6.259h-3.069l-3.736-4.624zm11.431 4.766a9.647 9.647 0 01-2.564-.344c-.834-.228-1.501-.518-1.999-.868l.969-1.918c.485.323 1.064.586 1.737.787a7.58 7.58 0 002.019.283c1.508 0 2.261-.397 2.261-1.191 0-.377-.195-.64-.585-.788-.377-.148-.99-.289-1.838-.424-.888-.134-1.615-.289-2.18-.464a3.45 3.45 0 01-1.454-.909c-.404-.444-.606-1.056-.606-1.837 0-1.023.424-1.837 1.272-2.443.862-.619 2.019-.929 3.473-.929a9.62 9.62 0 012.221.263c.741.161 1.346.383 1.817.666l-.969 1.918c-.915-.538-1.945-.808-3.089-.808-.74 0-1.306.115-1.696.344-.377.215-.565.504-.565.868 0 .404.202.693.605.868.418.162 1.057.316 1.919.464.861.135 1.568.29 2.12.465a3.25 3.25 0 011.413.888c.404.418.606 1.01.606 1.777 0 1.01-.438 1.817-1.313 2.423s-2.066.909-3.574.909z"/>
  <clipPath id="chart_clip">
    <rect width="660" height="360" x="435" y="209"/>
  </clipPath>
  <g id="chart_lines" clip-path="url(#chart_clip)" fill="none" stroke="#FAC4DC" stroke-linecap="round" stroke-miterlimit="10" stroke-width="9" stroke-dasharray="338">
    <line id="chart1" x1="475.876" x2="475.876" y1="569.977" y2="232.97" stroke-dashoffset="291"/>
    <line id="chart2" x1="567.736" x2="567.736" y1="569.977" y2="232.97" stroke-dashoffset="234"/>
    <line id="chart3" x1="658.942" x2="658.942" y1="569.977" y2="232.97" stroke-dashoffset="247"/>
    <line id="chart4" x1="750.475" x2="750.475" y1="569.977" y2="232.97" stroke-dashoffset="190"/>
    <line id="chart5" x1="842.009" x2="842.009" y1="569.977" y2="232.97" stroke-dashoffset="131"/>
    <line id="chart6" x1="933.543" x2="933.543" y1="569.977" y2="232.97" stroke-dashoffset="4"/>
    <line id="chart7" x1="1024.755" x2="1024.755" y1="569.977" y2="232.97" stroke-dashoffset="72"/>
  </g>
</svg>
