<svg xmlns="http://www.w3.org/2000/svg" width="600" height="412" viewBox="0 0 600 412">
  <path fill="#C00" d="M587.1 412H13C5.8 412 0 406.2 0 399.1V13C0 5.8 5.8 0 12.9 0H587c7.1 0 12.9 5.8 12.9 12.9V399c0 7.1-5.8 12.9-12.9 12.9z"/>
  <path fill="#FFF" d="M476.8 112.8a10.8 10.8 0 0 0 21.6 0 10.8 10.8 0 0 0-21.6 0m2 0a8.7 8.7 0 1 1 17.5 0 8.7 8.7 0 0 1-17.4 0z"/>
  <path fill="#FFF" d="M483.3 107.3h6c1.7 0 3.2 1 3.2 2.9 0 1-.4 2.1-1.5 2.5.9.3 1.4 1.3 1.5 2.5 0 .5 0 1.8.3 2.2h-3a7 7 0 0 1-.3-1.5c-.1-1-.2-2-1.5-2h-1.6v3.5h-3.2v-10.1m3.2 4.4h1.6c.6 0 1.4 0 1.4-1 0-.7-.3-1-1.5-1h-1.5v2zM319.2 183.4a34 34 0 1 1 68 0 34 34 0 0 1-68 0m34 16.2a16.2 16.2 0 1 0 0-32.4 16.2 16.2 0 0 0 0 32.4zM212.6 183.4a34 34 0 1 1 68 0 34 34 0 0 1-68 0m34 16.2a16.2 16.2 0 1 0 0-32.4 16.2 16.2 0 0 0 0 32.4zM192.7 174.5c-3-4.3-7.9-7.3-13.5-7.3a16.2 16.2 0 1 0 12.8 26.1l11.8 13.7a34 34 0 1 1 .7-46.4l-11.8 13.9"/>
  <path fill="#FFF" d="m300.2 320.8-184.1-80a26.2 26.2 0 0 1-13.1-30.6c2.7-9.7 25.8-88.6 25.8-88.6 6.6-19.9 26.3-19.8 28.4-19.8h286c2.1 0 21.8 0 28.4 19.8 0 0 23.1 78.9 25.8 88.6 2.7 9.8 0 23.8-13.1 30.5l-184.1 80M480 230c12.6-4 12.1-16.9 9.3-25.2l-28-76.4c-3.5-9.4-11-13.4-16.2-13.4H300.2l-144.9-.1c-5.1 0-12.7 4-16.2 13.5l-28 76.4c-2.8 8.3-3.3 21 9.3 25.1l179.8 51.7S467 233.5 480 230z"/>
  <path fill="#FFF" d="M290.6 171.9h18.2v17.4h-18.1l-.1-17.4M417 206.4v11h-17.4v-67.8h27a28.5 28.5 0 0 1 0 57l-9.5-.2m11-17.1a11.2 11.2 0 1 0 0-22.5h-11v22.4h11z"/>
</svg>
