<svg xmlns="http://www.w3.org/2000/svg" width="60" height="60" viewBox="0 0 60 60">
  <g id="habs">
    <path fill="#CA2027" stroke="#FFF" stroke-width="3.3" d="M58 29.98c-.95 36.92-55.05 36.92-56 0 .95-36.87 55.05-36.87 56 0z"/>
    <path fill="#FFF" d="M25.54 23.38c-4.54-4.21 3.3-4.38 5.24-4.54.29-.04-.58-.83-.83-.99-4.87-3.1-12.55.99-12.8 3.26.12 1.16-.62 2.48-1.9 1.73-.17-.08-.21-.04-.29 0-.74 1.12-3.55 2.48-2.31 3.92l3.3 3.26c.41.41 1.07.45 1.57 0l2.27-2.27c.17-.12.12-.21 0-.37-.25-.45-.21-.95.12-1.36.45-.58 1.03-.62 1.61-.12.41.37 2.6 2.48 4.71 4.63a86.84 86.84 0 0 0 3.3-3.22l-3.99-3.93zm18.63 18.17c-1.36-1.4-5.24-5.12-9.09-8.88l-.29-.21-3.22 3.3 9.25 9.17c2.23 2.15 5.58-1.24 3.35-3.43v.05z"/>
    <path fill="#FFF" d="M34.21 31.02c.83-.7 3.06 1.86 4.46 1.73.62.08 1.4-1.07 1.86-1.4l-9.83-9.83-1.07 1.12c-1.16 1.16 1.28 3.63 1.57 4.71.04.17 0 .37-.12.5L17.2 41.26a2.51 2.51 0 0 0-.03 3.56l.03.03a2.51 2.51 0 0 0 3.56.03l.03-.03 13.42-13.83zM20.25 43.45c-1.07 1.12-2.77-.58-1.65-1.65 1.03-1.08 2.73.62 1.65 1.65zm27.26-19.83-1.24-1.24-1.53 1.28-1.36.41 1.98-2.56-.54-.58-2.11 1.73.5-1.73.7-.91-5.49-5.49c-.21-.21-.5-.21-.7 0l-5.45 5.45c-.17.17-.17.5 0 .7l9.09 9.09c.21.21.54.21.74 0l5.41-5.41a.51.51 0 0 0 0-.74z"/>
  </g>
</svg>
