<svg xmlns="http://www.w3.org/2000/svg" width="138" height="32" viewBox="0 0 138 32">
  <path fill="#fff" d="M28.67 13.59c.31-.17.69.04.69.39v11.31c0 .08-.02.16-.06.22-.04.07-.1.12-.17.16L18.17 31.7a.47.47 0 0 1-.46 0L6.74 25.67a.5.5 0 0 1-.17-.16.47.47 0 0 1-.06-.23V14c0-.34.38-.56.69-.39l10.51 5.79a.47.47 0 0 0 .46 0l10.51-5.81Z"/>
  <path fill="#fff" d="M28.66 12.37c.31-.17.31-.6 0-.77L18.17 5.78a.47.47 0 0 0-.46 0l-10.5 5.85c-.31.17-.31.61 0 .78l10.5 5.78a.47.47 0 0 0 .46 0l10.49-5.81Zm15.06 11.28h10.3v-2.92h-6.93v-8.65h-3.37zm33.9 0h3.37v-2.78h1.63l1.9 2.78h3.97l-3.15-4.47 2.99-3.94 4.17 8.32c-.14.07-.36.1-.63.1h-2.61v2.94h1.63c2.63 0 4.01-.54 4.98-2.59l4.28-9.05h-3.76l-1.34 3.39-.59 2.04h-.23l-.64-2-1.56-3.42h-7.45l-1.99 3.02H81V12.1h-3.37v11.57Zm-22.71-3.13c0 1.88 1.18 3.3 3.71 3.3s3.46-1.36 3.65-2.82h.18v2.64h3.15v-8.71h-3.37v4.49c0 1.12-.38 1.49-1.93 1.49s-2.02-.38-2.02-1.59v-4.39h-3.37v5.58Zm48.1 3.13h8.04c2.86 0 4.03-1.26 4.03-3.21 0-1.61-1.15-2.68-3.54-2.76v-.17c2.18-.09 2.99-1.14 2.99-2.63 0-1.81-1.29-2.8-3.88-2.8h-7.63v11.57Zm3.35-7.19v-1.47h3.83c.7 0 .97.21.97.74s-.2.73-.88.73zm0 4.27v-1.61h4.26c.82 0 1.06.16 1.06.79s-.25.81-1.06.81h-4.26Zm14.43 3.09c-3.13 0-5.26-1.71-5.26-4.52s2.13-4.53 5.26-4.53 5.26 1.69 5.26 4.53-2.13 4.52-5.26 4.52m5.35-.17h4.06l1.77-2.56h.18l1.84 2.56h4.12l-3.37-4.27v-.17l3.37-4.27h-4.07l-1.77 2.63h-.18l-1.84-2.63h-4.12l3.37 4.32v.17l-3.37 4.21Zm-54.46.17c-3.2 0-5.25-1.71-5.25-4.52s2.04-4.53 5.25-4.53c3.08 0 5.05 1.52 5.05 3.85v.28h-3.35v-.14c0-.9-.68-1.09-1.77-1.09-1.24 0-1.83.26-1.83 1.62s.59 1.61 1.83 1.61c1.09 0 1.77-.17 1.77-1.07v-.15h3.35v.29c0 2.31-1.97 3.85-5.05 3.85m49.09-1.31c0-1.43 1.8-3.18 3.29-3.18-1.48 0-3.29-1.75-3.29-3.18 0 1.42-1.81 3.17-3.29 3.17 1.48 0 3.29 1.75 3.29 3.18Z"/>
  <path fill="#eacd66" d="M4.74 5.05c0 2.06-2.61 4.59-4.74 4.6 2.13 0 4.73 2.5 4.72 4.58 0-2.06 2.62-4.59 4.74-4.6-2.12 0-4.73-2.5-4.72-4.58"/>
  <path fill="#eacd66" d="M15.3 2.54c1.18 0 2.63 1.4 2.64 2.55 0-1.15 1.44-2.55 2.62-2.54-1.18 0-2.63-1.41-2.64-2.55 0 1.14-1.44 2.54-2.62 2.54"/>
  <path fill="#eacd66" d="M31.12 6.07c0 1.6-2.03 3.57-3.69 3.58 1.66 0 3.68 1.95 3.67 3.56 0-1.61 2.04-3.57 3.69-3.58-1.65 0-3.68-1.95-3.67-3.56"/>
</svg>
