<svg xmlns="http://www.w3.org/2000/svg" xmlns:xlink="http://www.w3.org/1999/xlink" width="60" height="60" viewBox="0 0 60 60">
  <defs>
    <linearGradient id="linear-gradient" x1="3776.02" x2="3572.38" y1="-2118.02" y2="-1914.38" gradientTransform="translate(-735.46 -390.04) scale(.21 -.21)" gradientUnits="userSpaceOnUse">
      <stop offset="0" stop-color="#fbc846"/>
      <stop offset="1" stop-color="#965027"/>
    </linearGradient>
    <linearGradient id="linear-gradient-2" x1="3558.13" x2="3790.27" y1="-1949.19" y2="-2083.21" gradientTransform="translate(-735.46 -390.04) scale(.21 -.21)" gradientUnits="userSpaceOnUse">
      <stop offset="0" stop-color="#880a14"/>
      <stop offset="1" stop-color="#1b0000"/>
    </linearGradient>
    <linearGradient id="linear-gradient-3" x1="9.24" x2="10.14" y1="34.28" y2="30.16" gradientTransform="translate(0 62) scale(1 -1)" gradientUnits="userSpaceOnUse">
      <stop offset="0" stop-color="#fef198"/>
      <stop offset=".17" stop-color="#fefef2"/>
      <stop offset=".33" stop-color="#fefef0"/>
      <stop offset="1" stop-color="#fded88"/>
    </linearGradient>
    <linearGradient id="linear-gradient-4" x1="10.1" x2="11.31" y1="29.56" y2="24.97" gradientTransform="translate(0 62) scale(1 -1)" gradientUnits="userSpaceOnUse">
      <stop offset="0" stop-color="#f6b64d"/>
      <stop offset=".44" stop-color="#cf892f"/>
      <stop offset="1" stop-color="#e4b348"/>
    </linearGradient>
    <linearGradient xlink:href="#linear-gradient-3" id="linear-gradient-5" x1="16.43" x2="17.67" y1="37.67" y2="32.01"/>
    <linearGradient xlink:href="#linear-gradient-4" id="linear-gradient-6" x1="17.78" x2="18.86" y1="31.25" y2="26.19"/>
    <linearGradient xlink:href="#linear-gradient-3" id="linear-gradient-7" x1="29.48" x2="31.75" y1="42.36" y2="36.37"/>
    <linearGradient id="linear-gradient-8" x1="31" x2="32.36" y1="34.03" y2="27.96" gradientTransform="translate(0 62) scale(1 -1)" gradientUnits="userSpaceOnUse">
      <stop offset="0" stop-color="#f6b64d"/>
      <stop offset=".44" stop-color="#cf892f"/>
      <stop offset="1" stop-color="#d1780f"/>
    </linearGradient>
    <linearGradient xlink:href="#linear-gradient-3" id="linear-gradient-9" x1="36.76" x2="39.37" y1="46.22" y2="39.37"/>
    <linearGradient xlink:href="#linear-gradient-8" id="linear-gradient-10" x1="38.88" x2="40.42" y1="35.71" y2="28.82"/>
    <linearGradient id="linear-gradient-11" x1="20.71" x2="22.39" y1="23.46" y2="16.42" gradientTransform="translate(0 62) scale(1 -1)" gradientUnits="userSpaceOnUse">
      <stop offset="0" stop-color="#d18d32"/>
      <stop offset=".17" stop-color="#f5c45f"/>
      <stop offset="1" stop-color="#e9b148"/>
    </linearGradient>
    <linearGradient xlink:href="#linear-gradient-8" id="linear-gradient-12" x1="38.51" x2="38.51" y1="35.86" y2="35.86"/>
  </defs>
  <circle cx="30" cy="30" r="30" fill="url(#linear-gradient)"/>
  <circle cx="30" cy="30" r="27.92" fill="url(#linear-gradient-2)"/>
  <path fill="#1f1309" d="m10.91 26.52 12.38-4.93 2.77 13.8-13.58 1.35s-3.98-6.08-1.56-10.22"/>
  <path fill="url(#linear-gradient-3)" stroke="#f7df9f" stroke-miterlimit="10" stroke-width=".24" d="M10.94 31.94c-.37-1.28-.4-3.79-.03-5.41-1.59.49-2.84 2.2-2.84 3.46 0 .75.06 1.71.35 2.79l2.59-.57z"/>
  <path fill="url(#linear-gradient-4)" stroke="#f7df9f" stroke-miterlimit="10" stroke-width=".24" d="M8.42 32.76q.33 1.22.96 2.32c1.16 2.02 3.61 1.62 3.61 1.62-1.06-1.17-1.61-3.21-1.98-4.52l-2.59.57Z"/>
  <path fill="url(#linear-gradient-5)" stroke="#f7df9f" stroke-miterlimit="10" stroke-width=".24" d="m21.28 22.12-8.93 3.47s-.36 2.03.15 5.09q.1.57.23 1.13l9.38-2.06c-.73-3.84-.83-7.63-.83-7.63Z"/>
  <path fill="url(#linear-gradient-6)" stroke="#f7df9f" stroke-miterlimit="10" stroke-width=".24" d="M12.74 31.81c.63 2.58 1.78 4.73 1.78 4.73s5.69-.47 9.58-.87c-.93-1.52-1.56-3.73-1.98-5.92z"/>
  <path fill="url(#linear-gradient-7)" stroke="#f7df9f" stroke-miterlimit="10" stroke-width=".24" d="M35.79 11.93a50 50 0 0 1-12.83 9.51s.22 3.46.76 6.88q.08.52.2 1.03l13.55-2.98c-1.06-5.58-1.78-11.33-1.7-14.44Z"/>
  <path fill="url(#linear-gradient-8)" stroke="#f7df9f" stroke-miterlimit="10" stroke-width=".24" d="M23.92 29.35a32 32 0 0 0 2.12 6.04c5.31.15 11.91 1.99 14.77 3.46-1.18-2.76-2.4-7.56-3.34-12.48z"/>
  <path fill="url(#linear-gradient-9)" stroke="#f3b24a" stroke-miterlimit="10" stroke-width=".24" d="M37.94 14.52c-.02-1.61.02-4.41-.15-4.71-.35-.62-1.93-.17-2.01 2.12-.08 2.27.52 8.85 1.69 14.44l2.06-.45c-.87-4.45-1.58-9.87-1.6-11.4Z"/>
  <path fill="url(#linear-gradient-10)" stroke="#f3b24a" stroke-miterlimit="10" stroke-width=".24" d="m39.68 26.62-.14-.7-2.06.45.03.15c1.19 5.62 2.44 10.36 3.02 11.61.58 1.26 1.51 2.44 2.31 2.1.72-.3.57-.36 0-1.84s-2.26-7.35-3.16-11.78Z"/>
  <path fill="#3b1f07" stroke="#875c14" stroke-miterlimit="10" stroke-width=".24" d="m42.04 25.37-.08-.44c-2-11.17-4.19-15.12-4.19-15.12.17.3.12 3.1.15 4.71.02 1.53.73 6.95 1.6 11.41l.14.7c.9 4.43 2.6 10.3 3.16 11.78.15.39.43 1.17.51 1.31.56-.85.63-3.55-1.29-14.35Z"/>
  <path fill="#feee7d" stroke="#f3b24a" stroke-miterlimit="10" stroke-width=".24" d="M42.56 22.61c-.35-.37-2.5-.81-2.5-.81.13 1.1.43 2.56.72 3.88l2.45-.58c-.19-1.1-.47-2.29-.67-2.49Z"/>
  <path fill="#cf7c1d" stroke="#f3b24a" stroke-miterlimit="10" stroke-width=".24" d="M40.78 25.69c.4 1.83.81 3.39.81 3.39s1.73-1.49 1.84-2.03a9 9 0 0 0-.2-1.94l-2.45.58Z"/>
  <path fill="#bf1001" d="m17.19 39.06 6.15-1.03s-.28 1.99.47 4.33 2.33 3.15 2.88 3.61c.95.79.48 2.12-.3 2.82s-3.93 1.72-5.47 0-3.45-8.37-3.73-9.74Z"/>
  <path fill="url(#linear-gradient-11)" stroke="#f7df9f" stroke-miterlimit="10" stroke-width=".24" d="m16.61 38.45 6.15-1.03s-.28 1.99.47 4.33 2.33 3.15 2.88 3.61c.95.79.48 2.12-.3 2.82s-3.93 1.72-5.47 0-3.45-8.37-3.73-9.74Z"/>
  <path fill="#844100" d="M24.54 41.22s1.33-.47 1.33-1.65-1.19-1.19-.55-1.59 1.6.32 1.74 1.49-.35 1.79-1.03 2.22c-1.03.65-2.13-.1-1.49-.47"/>
  <path fill="#f4da67" d="M24.38 40.99s1.33-.47 1.33-1.65-1.19-1.19-.55-1.59 1.6.32 1.74 1.49-.35 1.79-1.03 2.22c-1.03.65-2.13-.1-1.49-.47"/>
  <path fill="#e39607" d="m42.63 17.39-1.14-1.1 1.34-4.85 2.04 2.97-2.25 2.97Z"/>
  <path fill="#e8dc76" stroke="#f7df9f" stroke-miterlimit="10" stroke-width=".24" d="m42.63 16.63-1.14-1.1 1.34-4.85 2.04 2.97z"/>
  <path fill="#763001" d="m45.15 23.35 3.14-2.15.26 2.73-3.4.44z"/>
  <path fill="#f9d252" stroke="#f7df9f" stroke-miterlimit="10" stroke-width=".24" d="m44.88 22.78 3.14-2.14.25 2.73-3.39.43z"/>
  <path fill="#763001" d="m45.92 29.25 3.06.51v2.4l-3.06-2.33z"/>
  <path fill="#fbdf82" stroke="#f7df9f" stroke-miterlimit="10" stroke-width=".24" d="m45.92 28.85 3.06.51v2.4l-3.06-2.32z"/>
  <path fill="#3b1f07" d="m45.28 34.66 2.18 2.4-1.82 3.11-1.46-3.52z"/>
  <path fill="url(#linear-gradient-12)" stroke="#f7df9f" stroke-miterlimit="10" stroke-width=".24" d="m39.54 25.92-2.06.45"/>
  <path fill="#b7907a" d="M22.2 22.91s-.39 3.61.93 7.32c-.61-3.53-.93-7.32-.93-7.32"/>
  <path fill="#b7907a" d="M11.39 27.33s-.32 3.05.21 4.86c-.02-1.96-.21-4.86-.21-4.86"/>
  <path fill="#e5b01d" stroke="#f7df9f" stroke-miterlimit="10" stroke-width=".24" d="m45.28 34.11 2.18 2.4-1.82 3.12-1.46-3.52z"/>
</svg>
