<svg xmlns="http://www.w3.org/2000/svg" xmlns:xlink="http://www.w3.org/1999/xlink" width="60" height="60" viewBox="0 0 60 60">
  <defs>
    <linearGradient id="grd15" x1="51.21" x2="8.79" y1="51.21" y2="8.79" gradientUnits="userSpaceOnUse">
      <stop offset="0" stop-color="#fbc846"/>
      <stop offset="1" stop-color="#965027"/>
    </linearGradient>
    <linearGradient id="grd34" x1="5.82" x2="54.18" y1="16.04" y2="43.96" gradientUnits="userSpaceOnUse">
      <stop offset="0" stop-color="#880a14"/>
      <stop offset="1" stop-color="#1b0000"/>
    </linearGradient>
    <linearGradient id="grd97" x1="19.49" x2="19.49" y1="11.67" y2="50.17" gradientUnits="userSpaceOnUse">
      <stop offset="0" stop-color="#fc9a64"/>
      <stop offset=".38" stop-color="#f9482f"/>
      <stop offset=".99" stop-color="#750600"/>
    </linearGradient>
    <linearGradient xlink:href="#grd34" id="grd34-2" x1="24.11" x2="29.71" y1="33.04" y2="33.04"/>
    <linearGradient id="grd101" x1="11.7" x2="17.21" y1="14.95" y2="24.51" gradientUnits="userSpaceOnUse">
      <stop offset="0" stop-color="#fde762"/>
      <stop offset=".21" stop-color="#fdeb7f" stop-opacity=".81"/>
      <stop offset=".67" stop-color="#fef6c9" stop-opacity=".34"/>
      <stop offset="1" stop-color="#fff" stop-opacity="0"/>
    </linearGradient>
    <linearGradient xlink:href="#grd97" id="grd97-2" x1="29.33" x2="44.66" y1="16.48" y2="43.03"/>
    <linearGradient xlink:href="#grd101" id="grd101-2" x1="34.93" x2="37.57" y1="13.24" y2="17.81"/>
    <linearGradient xlink:href="#grd34" id="grd34-3" x1="28.57" x2="34.21" y1="37.37" y2="37.37"/>
    <linearGradient id="grd19" x1="30.8" x2="32.47" y1="46.83" y2="46.83" gradientTransform="translate(71.86 7.13) rotate(79.43)" gradientUnits="userSpaceOnUse">
      <stop offset=".52" stop-color="#fbc846"/>
      <stop offset="1" stop-color="#d0861d"/>
    </linearGradient>
    <linearGradient xlink:href="#grd19" id="grd19-2" x1="24.04" x2="28.7" y1="26.87" y2="26.87" gradientTransform="translate(23.73 -10.68) rotate(40.44)"/>
  </defs>
  <circle cx="30" cy="30" r="30" fill="url(#grd15)"/>
  <circle cx="30" cy="30" r="27.92" fill="url(#grd34)"/>
  <path fill="#f43c06" d="M28.91 50.65 17.88 40.41c-4.75-4.06-7.73-8.47-8.86-13.11a13.4 13.4 0 0 1 4.8-13.82c6.3-4.84 12.03.29 14.21 2.72.67.75 1.05 1.29 1.06 1.31l.07.1-3.55 7.12 4.35 5.01-.08.13-2.15 3.35a73 73 0 0 1-2.14 3.25l3.29 6 .03.05zM19.26 11.9a8.4 8.4 0 0 0-5.18 1.91 13 13 0 0 0-4.65 13.4c1.11 4.55 4.04 8.89 8.73 12.9l10.33 9.59v-7.07q-3.35-6.1-3.35-6.16v-.21h.11c.38-.54 2.64-4.05 4.2-6.47l-4.33-4.99 3.56-7.15c-.14-.19-.47-.62-.96-1.17-1.47-1.64-4.63-4.57-8.47-4.57Z"/>
  <path fill="url(#grd97)" d="m25.56 36.45 3.35 6.11v7.6l-.43-.4-10.25-9.51c-5.53-4.73-7.9-9.31-8.8-13.01a13.2 13.2 0 0 1 4.73-13.61c6.12-4.7 11.68.19 13.92 2.69.67.75 1.05 1.29 1.05 1.29l-3.56 7.14 4.34 5s-4.29 6.7-4.36 6.7Z"/>
  <path fill="url(#grd34-2)" d="m25.35 36.24 3.35 6.11v7.6l-.43-.4-.12-7.18-4.04-6.15 4.5-6.72-4.5-5.29 3.77-8.11c.67.75 1.05 1.29 1.05 1.29l-3.56 7.14 4.34 5s-4.29 6.7-4.36 6.7Z"/>
  <path fill="url(#grd101)" d="M16.92 16.06c-5.41 2.1-6.84 7.92-7.05 12.68q-.26-.77-.43-1.49a13.2 13.2 0 0 1 4.73-13.61 8.5 8.5 0 0 1 5.4-1.96c1.06 1.49.76 3.06-2.65 4.39Z" opacity=".45"/>
  <path fill="#f7faf0" d="M9.83 20.35c1.42-4.55 5.22-9.18 10.48-8.65 3.55.36 6.84 3.05 8.85 5.89-.03-.04.09-.39.02-.5-2.01-2.85-5.29-5.54-8.86-5.91-5.27-.55-9.07 4.12-10.49 8.67-.04.14.04.42.02.5Z"/>
  <path fill="#f43c06" d="m30.05 51.67 1.39-8.71-3.11-6.61 4.26-6.44-4.25-4.82.13-.78s.05-.25.16-.65c.53-1.99 2.62-8.68 7.42-11.17q3.48-1.8 7.81-.2c2.61.97 4.72 2.84 5.95 5.26a14 14 0 0 1 1.41 8.39c-.57 4-2.83 8.02-6.71 11.97-9.19 9.33-12.38 12.29-13.46 13.22-.59.51-.66.51-.72.52l-.27.03ZM28.8 36.38l3.07 6.51-1.29 8.06.18-.15c1.08-.93 4.26-3.88 13.43-13.2 8.35-8.48 7.46-15.49 5.23-19.87a10.5 10.5 0 0 0-5.72-5.06q-4.14-1.53-7.47.18c-4.65 2.41-6.69 8.96-7.21 10.91l-.15.62-.1.58 4.33 4.91z"/>
  <path fill="url(#grd97-2)" d="M44.14 37.76C35.04 47 31.83 50 30.69 50.97c-.54.46-.6.47-.6.47l1.36-8.51-3.09-6.56 4.29-6.48-4.29-4.86.12-.69.15-.63c.78-2.94 4.65-15.06 14.95-11.23 2.52.94 4.62 2.76 5.83 5.16 2.04 4.03 3.41 11.3-5.27 20.11Z"/>
  <path fill="url(#grd101-2)" d="M42.47 14.98c-5.76.35-9.03 4.72-9.03 4.72l-2.42-1.91c1.6-2.8 4.08-5.54 7.71-5.99a15 15 0 0 1 3.74 3.17Z" opacity=".45"/>
  <path fill="#f7faf0" d="M49.4 18.02a11.1 11.1 0 0 0-7.38-5.62c-7.53-1.74-12.14 5.96-13.52 12.28l-.04-.24.02-.1.15-.63c.78-2.94 4.65-15.06 14.95-11.23a10.7 10.7 0 0 1 5.85 5.2c-.02.15-.05.29-.03.34"/>
  <path fill="url(#grd34-3)" d="m29.38 36.16 2.99 6.74-1.47 7.86c-.54.46-.6.47-.6.47l1.36-8.51-3.09-6.56 4.29-6.48-4.29-4.86.12-.69.15-.63 5.37 5.99z"/>
  <path fill="#f7faf0" d="m29.3 36.1 4.82-6.68.17.13-4.82 6.67z"/>
  <path fill="url(#grd19)" d="M27.64 46.72h8v.21h-8z" transform="translate(-20.2 69.33) rotate(-79.43)"/>
  <path fill="url(#grd19-2)" d="M26.26 23.4h.21v6.94h-.21z" transform="translate(-11.13 23.52) rotate(-40.44)"/>
  <path fill="#f43c06" d="m24.03 36.29.17-.12 4.03 6.14-.17.12z"/>
</svg>