<svg xmlns="http://www.w3.org/2000/svg" fill-rule="evenodd" stroke-miterlimit="10" clip-rule="evenodd" viewBox="0 0 85 53">
<style>
/* <![CDATA[ */

#a1, #a2, #a3, #a4, #a5, #a6, #a7, #a8, #a9, #a10, #a11, #a12, #a13, #a14, #a15, #a16, #a17, #a18, #a19, #a20, #a21, #a22, #a23, #a24 {
visibility: hidden;
animation-duration: 3s;
animation-iteration-count: infinite;
animation-timing-function: steps(1);
}

/* ]]> */
</style>
  <g id="tablet" fill-rule="nonzero">
    <path fill="#fff" stroke="#95d400" d="M57.81 49.228H27.191c-1.277 0-2.312-1.034-2.312-2.312V5.731c0-1.276 1.035-2.311 2.312-2.311H57.81c1.276 0 2.312 1.035 2.312 2.311v41.186c0 1.277-1.036 2.311-2.312 2.311z"/>
    <path fill="#f7ffe2" d="M26.879 42.663V6.47c0-.172.139-.311.311-.311h30.62c.171 0 .311.14.311.311v36.193c0 .172-.139.312-.311.312H27.191c-.172 0-.312-.14-.312-.312"/>
    <path fill="#95d400" d="M46.065 46.739h-7.131c-.368 0-.668-.301-.668-.668v-.088c0-.367.3-.668.668-.668h7.131c.368 0 .668.301.668.668v.088c0 .367-.3.668-.668.668"/>
    <path fill="#95d400" d="M43.113 5.095c0 .339-.274.614-.613.614a.6141.6141 0 01-.614-.614c0-.339.275-.614.614-.614.339 0 .613.275.613.614"/>
  </g>
  <g id="a2" fill-rule="nonzero" opacity=".2">
    <path fill="#95d400" d="M24.042 30.761h-5.99l-2.896 2.014-.01-2.014c-.999 0-1.815-.816-1.815-1.815v-3.755c0-.999.816-1.815 1.815-1.815h8.896c.998 0 1.816.816 1.816 1.815v3.755c0 .999-.818 1.815-1.816 1.815"/>
    <path fill="none" stroke="#fff" d="M23.159 26.276h-7.291"/>
    <path fill="none" stroke="#fff" d="M20.712 28.075h-4.844"/>
  </g>
  <g id="a3" fill-rule="nonzero" opacity=".4">
    <path fill="#95d400" d="M25.232 30.538h-6.655l-3.219 2.237-.01-2.237c-1.11 0-2.017-.908-2.017-2.018v-4.172c0-1.109.907-2.017 2.017-2.017h9.884c1.109 0 2.018.908 2.018 2.017v4.172c0 1.11-.909 2.018-2.018 2.018"/>
    <path fill="none" stroke="#fff" d="M24.251 25.554H16.15"/>
    <path fill="none" stroke="#fff" d="M21.532 27.553H16.15"/>
  </g>
  <g id="a4" fill-rule="nonzero" opacity=".8">
    <path fill="#95d400" d="M26.554 30.289H19.16l-3.576 2.486-.012-2.486c-1.233 0-2.242-1.008-2.242-2.241v-4.636c0-1.233 1.009-2.241 2.242-2.241h10.982c1.233 0 2.242 1.008 2.242 2.241v4.636c0 1.233-1.009 2.241-2.242 2.241"/>
    <path fill="none" stroke="#fff" d="M25.465 24.751h-9.002"/>
    <path fill="none" stroke="#fff" d="M22.444 26.973h-5.981"/>
  </g>
  <g id="a5" fill-rule="nonzero">
    <path fill="#95d400" d="M28.024 30.013h-8.217l-3.973 2.762-.013-2.762c-1.37 0-2.491-1.121-2.491-2.491v-5.15c0-1.37 1.121-2.491 2.491-2.491h12.203c1.369 0 2.491 1.121 2.491 2.491v5.15c0 1.37-1.122 2.491-2.491 2.491"/>
    <path fill="none" stroke="#fff" d="M26.813 23.86H16.812"/>
    <path fill="none" stroke="#fff" d="M23.456 26.328h-6.644"/>
  </g>
  <g id="a6" fill-rule="nonzero">
    <path fill="#95d400" d="M29.656 29.706h-9.129l-4.415 3.069-.014-3.069c-1.523 0-2.767-1.245-2.767-2.767v-5.723c0-1.523 1.244-2.767 2.767-2.767h13.558c1.522 0 2.768 1.244 2.768 2.767v5.723c0 1.522-1.246 2.767-2.768 2.767"/>
    <path fill="none" stroke="#fff" d="M28.311 22.869H17.198"/>
    <path fill="none" stroke="#fff" d="M24.581 25.612h-7.383"/>
  </g>
  <g id="a7" fill-rule="nonzero">
    <path fill="#95d400" d="M31.47 29.365H21.326l-4.905 3.41-.016-3.41c-1.691 0-3.075-1.383-3.075-3.075v-6.359c0-1.691 1.384-3.074 3.075-3.074H31.47c1.691 0 3.075 1.383 3.075 3.074v6.359c0 1.692-1.384 3.075-3.075 3.075"/>
    <path fill="none" stroke="#fff" d="M29.975 21.769H17.628"/>
    <path fill="none" stroke="#fff" d="M25.831 24.816h-8.203"/>
  </g>
  <g id="a8" fill-rule="nonzero">
    <path fill="#95d400" d="M33.486 28.986H22.215l-5.45 3.789-.018-3.789c-1.88 0-3.416-1.537-3.416-3.416v-7.066c0-1.879 1.536-3.416 3.416-3.416h16.739c1.879 0 3.417 1.537 3.417 3.416v7.066c0 1.879-1.538 3.416-3.417 3.416"/>
    <path fill="none" stroke="#fff" d="M31.825 20.546H18.106"/>
    <path fill="none" stroke="#fff" d="M27.22 23.932h-9.114"/>
  </g>
  <g id="a9" fill-rule="nonzero">
    <path fill="#95d400" d="M35.725 28.565H23.202l-6.056 4.21-.02-4.21c-2.088 0-3.795-1.708-3.795-3.796v-7.85c0-2.089 1.707-3.796 3.795-3.796h18.599c2.088 0 3.797 1.707 3.797 3.796v7.85c0 2.088-1.709 3.796-3.797 3.796"/>
    <path fill="none" stroke="#fff" d="M33.88 19.187H18.636"/>
    <path fill="none" stroke="#fff" d="M28.764 22.949H18.636"/>
  </g>
  <g id="a10" fill-rule="nonzero">
    <path fill="#95d400" d="M38.214 28.097H24.299l-6.729 4.678-.022-4.678c-2.32 0-4.217-1.897-4.217-4.217v-8.723c0-2.32 1.897-4.218 4.217-4.218h20.666c2.319 0 4.218 1.898 4.218 4.218v8.723c0 2.32-1.899 4.217-4.218 4.217"/>
    <path fill="none" stroke="#fff" d="M36.163 17.677H19.226"/>
    <path fill="none" stroke="#fff" d="M30.478 21.857H19.226"/>
  </g>
  <g id="a11" fill-rule="nonzero">
    <path fill="#95d400" d="M40.979 27.577H25.518l-7.476 5.198-.025-5.198c-2.578 0-4.686-2.108-4.686-4.686v-9.692c0-2.578 2.108-4.686 4.686-4.686h22.962c2.577 0 4.687 2.108 4.687 4.686v9.692c0 2.578-2.11 4.686-4.687 4.686"/>
    <path fill="none" stroke="#fff" d="M38.7 15.999H19.881"/>
    <path fill="none" stroke="#fff" d="M32.384 20.644H19.881"/>
  </g>
  <g id="a12">
    <g fill-rule="nonzero">
      <path fill="#95d400" d="M40.979 27.577H25.518l-7.476 5.198-.025-5.198c-2.578 0-4.686-2.108-4.686-4.686v-9.692c0-2.578 2.108-4.686 4.686-4.686h22.962c2.577 0 4.687 2.108 4.687 4.686v9.692c0 2.578-2.11 4.686-4.687 4.686"/>
      <path fill="none" stroke="#fff" d="M38.7 15.999H19.881"/>
      <path fill="none" stroke="#fff" d="M32.384 20.644H19.881"/>
    </g>
    <g stroke="#95d400" opacity=".2">
      <path fill="#fff" fill-rule="nonzero" d="M48.657 42.531h-5.724v1.898l-2.691-1.899-.481.001c-.998 0-1.815-.817-1.815-1.816V36.96c0-.998.817-1.815 1.815-1.815h8.896c.999 0 1.816.817 1.816 1.815v3.755c0 .999-.817 1.816-1.816 1.816z"/>
      <path fill="none" d="M42.259 38.9c0-.433-.352-.785-.785-.785-.434 0-.786.352-.786.785 0 .434.352.786.786.786.433 0 .785-.352.785-.786z"/>
      <path fill="none" d="M44.995 38.9c0-.433-.352-.785-.786-.785-.433 0-.786.352-.786.785 0 .434.353.786.786.786.434 0 .786-.352.786-.786z"/>
      <path fill="none" d="M47.731 38.9c0-.433-.353-.785-.786-.785-.434 0-.786.352-.786.785 0 .434.352.786.786.786.433 0 .786-.352.786-.786z"/>
    </g>
  </g>
  <g id="a13">
    <g fill-rule="nonzero">
      <path fill="#95d400" d="M40.979 27.577H25.518l-7.476 5.198-.025-5.198c-2.578 0-4.686-2.108-4.686-4.686v-9.692c0-2.578 2.108-4.686 4.686-4.686h22.962c2.577 0 4.687 2.108 4.687 4.686v9.692c0 2.578-2.11 4.686-4.687 4.686"/>
      <path fill="none" stroke="#fff" d="M38.7 15.999H19.881"/>
      <path fill="none" stroke="#fff" d="M32.384 20.644H19.881"/>
    </g>
    <g stroke="#95d400" opacity=".6">
      <path fill="#fff" fill-rule="nonzero" d="M49.848 42.32h-6.361v2.109l-2.989-2.11-.535.001c-1.109 0-2.017-.908-2.017-2.018V36.13c0-1.109.908-2.017 2.017-2.017h9.885c1.109 0 2.017.908 2.017 2.017v4.172c0 1.11-.908 2.018-2.017 2.018z"/>
      <path fill="none" d="M42.739 38.286c0-.482-.391-.873-.873-.873s-.873.391-.873.873.391.873.873.873.873-.391.873-.873z"/>
      <path fill="none" d="M45.778 38.286c0-.482-.391-.873-.873-.873s-.873.391-.873.873.391.873.873.873.873-.391.873-.873z"/>
      <path fill="none" d="M48.818 38.286c0-.482-.392-.873-.873-.873-.482 0-.874.391-.874.873s.392.873.874.873c.481 0 .873-.391.873-.873z"/>
    </g>
  </g>
  <g id="a14">
    <g fill-rule="nonzero">
      <path fill="#95d400" d="M40.979 27.577H25.518l-7.476 5.198-.025-5.198c-2.578 0-4.686-2.108-4.686-4.686v-9.692c0-2.578 2.108-4.686 4.686-4.686h22.962c2.577 0 4.687 2.108 4.687 4.686v9.692c0 2.578-2.11 4.686-4.687 4.686"/>
      <path fill="none" stroke="#fff" d="M38.7 15.999H19.881"/>
      <path fill="none" stroke="#fff" d="M32.384 20.644H19.881"/>
    </g>
    <g stroke="#95d400" opacity=".8">
      <path fill="#fff" fill-rule="nonzero" d="M51.17 42.086h-7.068v2.343l-3.321-2.344-.594.001c-1.233 0-2.241-1.009-2.241-2.242v-4.636c0-1.232 1.008-2.241 2.241-2.241H51.17c1.233 0 2.241 1.009 2.241 2.241v4.636c0 1.233-1.008 2.242-2.241 2.242z"/>
      <path fill="none" d="M43.271 37.603c0-.535-.434-.97-.97-.97-.535 0-.97.435-.97.97 0 .536.435.97.97.97.536 0 .97-.434.97-.97z"/>
      <path fill="none" d="M46.649 37.603c0-.535-.435-.97-.97-.97-.536 0-.971.435-.971.97 0 .536.435.97.971.97.535 0 .97-.434.97-.97z"/>
      <path fill="none" d="M50.026 37.603c0-.535-.435-.97-.97-.97-.536 0-.971.435-.971.97 0 .536.435.97.971.97.535 0 .97-.434.97-.97z"/>
    </g>
  </g>
  <g id="a15">
    <g fill-rule="nonzero">
      <path fill="#95d400" d="M40.979 27.577H25.518l-7.476 5.198-.025-5.198c-2.578 0-4.686-2.108-4.686-4.686v-9.692c0-2.578 2.108-4.686 4.686-4.686h22.962c2.577 0 4.687 2.108 4.687 4.686v9.692c0 2.578-2.11 4.686-4.687 4.686"/>
      <path fill="none" stroke="#fff" d="M38.7 15.999H19.881"/>
      <path fill="none" stroke="#fff" d="M32.384 20.644H19.881"/>
    </g>
    <g stroke="#95d400">
      <path fill="#fff" fill-rule="nonzero" d="M52.64 41.825h-7.854v2.604l-3.69-2.605-.66.001c-1.369 0-2.49-1.121-2.49-2.491v-5.15c0-1.37 1.121-2.491 2.49-2.491H52.64c1.369 0 2.49 1.121 2.49 2.491v5.15c0 1.37-1.121 2.491-2.49 2.491z"/>
      <path fill="none" d="M43.863 36.845c0-.595-.483-1.078-1.078-1.078-.595 0-1.078.483-1.078 1.078 0 .595.483 1.078 1.078 1.078.595 0 1.078-.483 1.078-1.078z"/>
      <path fill="none" d="M47.616 36.845c0-.595-.483-1.078-1.078-1.078-.595 0-1.078.483-1.078 1.078 0 .595.483 1.078 1.078 1.078.595 0 1.078-.483 1.078-1.078z"/>
      <path fill="none" d="M51.368 36.845c0-.595-.483-1.078-1.078-1.078-.595 0-1.078.483-1.078 1.078 0 .595.483 1.078 1.078 1.078.595 0 1.078-.483 1.078-1.078z"/>
    </g>
  </g>
  <g id="a16">
    <g fill-rule="nonzero">
      <path fill="#95d400" d="M40.979 27.577H25.518l-7.476 5.198-.025-5.198c-2.578 0-4.686-2.108-4.686-4.686v-9.692c0-2.578 2.108-4.686 4.686-4.686h22.962c2.577 0 4.687 2.108 4.687 4.686v9.692c0 2.578-2.11 4.686-4.687 4.686"/>
      <path fill="none" stroke="#fff" d="M38.7 15.999H19.881"/>
      <path fill="none" stroke="#fff" d="M32.384 20.644H19.881"/>
    </g>
    <g stroke="#95d400">
      <path fill="#fff" fill-rule="nonzero" d="M54.272 41.536h-8.726v2.893l-4.1-2.894-.733.001c-1.522 0-2.767-1.245-2.767-2.768v-5.723c0-1.521 1.245-2.767 2.767-2.767h13.559c1.522 0 2.767 1.246 2.767 2.767v5.723c0 1.523-1.245 2.768-2.767 2.768z"/>
      <path fill="none" d="M44.52 36.002c0-.661-.536-1.197-1.197-1.197s-1.198.536-1.198 1.197.537 1.198 1.198 1.198c.661 0 1.197-.537 1.197-1.198z"/>
      <path fill="none" d="M48.69 36.002c0-.661-.537-1.197-1.198-1.197-.661 0-1.197.536-1.197 1.197s.536 1.198 1.197 1.198 1.198-.537 1.198-1.198z"/>
      <path fill="none" d="M52.859 36.002c0-.661-.536-1.197-1.197-1.197-.662 0-1.198.536-1.198 1.197S51 37.2 51.662 37.2c.661 0 1.197-.537 1.197-1.198z"/>
    </g>
  </g>
  <g id="a17">
    <g fill-rule="nonzero">
      <path fill="#95d400" d="M40.979 27.577H25.518l-7.476 5.198-.025-5.198c-2.578 0-4.686-2.108-4.686-4.686v-9.692c0-2.578 2.108-4.686 4.686-4.686h22.962c2.577 0 4.687 2.108 4.687 4.686v9.692c0 2.578-2.11 4.686-4.687 4.686"/>
      <path fill="none" stroke="#fff" d="M38.7 15.999H19.881"/>
      <path fill="none" stroke="#fff" d="M32.384 20.644H19.881"/>
    </g>
    <g stroke="#95d400">
      <path fill="#fff" fill-rule="nonzero" d="M56.086 41.214h-9.695v3.215l-4.556-3.216-.815.001c-1.691 0-3.074-1.383-3.074-3.075V31.78c0-1.69 1.383-3.074 3.074-3.074h15.066c1.691 0 3.075 1.384 3.075 3.074v6.359c0 1.692-1.384 3.075-3.075 3.075z"/>
      <path fill="none" d="M45.251 35.066c0-.734-.596-1.331-1.331-1.331-.734 0-1.33.597-1.33 1.331s.596 1.331 1.33 1.331c.735 0 1.331-.597 1.331-1.331z"/>
      <path fill="none" d="M49.884 35.066c0-.734-.596-1.331-1.331-1.331-.734 0-1.331.597-1.331 1.331s.597 1.331 1.331 1.331c.735 0 1.331-.597 1.331-1.331z"/>
      <path fill="none" d="M54.516 35.066c0-.734-.596-1.331-1.33-1.331-.735 0-1.331.597-1.331 1.331s.596 1.331 1.331 1.331c.734 0 1.33-.597 1.33-1.331z"/>
    </g>
  </g>
  <g id="a18">
    <g fill-rule="nonzero">
      <path fill="#95d400" d="M40.979 27.577H25.518l-7.476 5.198-.025-5.198c-2.578 0-4.686-2.108-4.686-4.686v-9.692c0-2.578 2.108-4.686 4.686-4.686h22.962c2.577 0 4.687 2.108 4.687 4.686v9.692c0 2.578-2.11 4.686-4.687 4.686"/>
      <path fill="none" stroke="#fff" d="M38.7 15.999H19.881"/>
      <path fill="none" stroke="#fff" d="M32.384 20.644H19.881"/>
    </g>
    <g stroke="#95d400">
      <path fill="#fff" fill-rule="nonzero" d="M58.102 40.857H47.329v3.572l-5.062-3.573-.905.001c-1.879 0-3.416-1.537-3.416-3.417v-7.065c0-1.879 1.537-3.416 3.416-3.416h16.74c1.878 0 3.416 1.537 3.416 3.416v7.065c0 1.88-1.538 3.417-3.416 3.417z"/>
      <path fill="none" d="M46.063 34.026c0-.816-.663-1.479-1.479-1.479-.816 0-1.478.663-1.478 1.479 0 .816.662 1.478 1.478 1.478s1.479-.662 1.479-1.478z"/>
      <path fill="none" d="M51.211 34.026c0-.816-.663-1.479-1.479-1.479-.816 0-1.479.663-1.479 1.479 0 .816.663 1.478 1.479 1.478.816 0 1.479-.662 1.479-1.478z"/>
      <path fill="none" d="M56.358 34.026c0-.816-.663-1.479-1.479-1.479-.816 0-1.479.663-1.479 1.479 0 .816.663 1.478 1.479 1.478.816 0 1.479-.662 1.479-1.478z"/>
    </g>
  </g>
  <g id="a19">
    <g fill-rule="nonzero">
      <path fill="#95d400" d="M40.979 27.577H25.518l-7.476 5.198-.025-5.198c-2.578 0-4.686-2.108-4.686-4.686v-9.692c0-2.578 2.108-4.686 4.686-4.686h22.962c2.577 0 4.687 2.108 4.687 4.686v9.692c0 2.578-2.11 4.686-4.687 4.686"/>
      <path fill="none" stroke="#fff" d="M38.7 15.999H19.881"/>
      <path fill="none" stroke="#fff" d="M32.384 20.644H19.881"/>
    </g>
    <g stroke="#95d400">
      <path fill="#fff" fill-rule="nonzero" d="M60.341 40.46H48.372v3.969l-5.625-3.97-1.006.001c-2.087 0-3.795-1.708-3.795-3.796v-7.851c0-2.087 1.708-3.795 3.795-3.795h18.6c2.088 0 3.796 1.708 3.796 3.795v7.851c0 2.088-1.708 3.796-3.796 3.796z"/>
      <path fill="none" d="M46.965 32.87c0-.907-.736-1.643-1.643-1.643s-1.643.736-1.643 1.643c0 .906.736 1.642 1.643 1.642s1.643-.736 1.643-1.642z"/>
      <path fill="none" d="M52.684 32.87c0-.907-.736-1.643-1.643-1.643s-1.643.736-1.643 1.643c0 .906.736 1.642 1.643 1.642s1.643-.736 1.643-1.642z"/>
      <path fill="none" d="M58.403 32.87c0-.907-.736-1.643-1.643-1.643s-1.643.736-1.643 1.643c0 .906.736 1.642 1.643 1.642s1.643-.736 1.643-1.642z"/>
    </g>
  </g>
  <g id="a20">
    <g fill-rule="nonzero">
      <path fill="#95d400" d="M40.979 27.577H25.518l-7.476 5.198-.025-5.198c-2.578 0-4.686-2.108-4.686-4.686v-9.692c0-2.578 2.108-4.686 4.686-4.686h22.962c2.577 0 4.687 2.108 4.687 4.686v9.692c0 2.578-2.11 4.686-4.687 4.686"/>
      <path fill="none" stroke="#fff" d="M38.7 15.999H19.881"/>
      <path fill="none" stroke="#fff" d="M32.384 20.644H19.881"/>
    </g>
    <g stroke="#95d400">
      <path fill="#fff" fill-rule="nonzero" d="M62.83 40.019H49.531v4.41l-6.25-4.412-1.118.002c-2.319 0-4.217-1.898-4.217-4.218v-8.723c0-2.319 1.898-4.217 4.217-4.217H62.83c2.319 0 4.217 1.898 4.217 4.217v8.723c0 2.32-1.898 4.218-4.217 4.218z"/>
      <path fill="none" d="M47.967 31.585c0-1.007-.818-1.825-1.826-1.825-1.007 0-1.825.818-1.825 1.825 0 1.008.818 1.826 1.825 1.826 1.008 0 1.826-.818 1.826-1.826z"/>
      <path fill="none" d="M54.322 31.585c0-1.007-.818-1.825-1.826-1.825-1.007 0-1.825.818-1.825 1.825 0 1.008.818 1.826 1.825 1.826 1.008 0 1.826-.818 1.826-1.826z"/>
      <path fill="none" d="M60.676 31.585c0-1.007-.818-1.825-1.825-1.825-1.008 0-1.826.818-1.826 1.825 0 1.008.818 1.826 1.826 1.826 1.007 0 1.825-.818 1.825-1.826z"/>
    </g>
  </g>
  <g id="a21">
    <g fill-rule="nonzero">
      <path fill="#95d400" d="M40.979 27.577H25.518l-7.476 5.198-.025-5.198c-2.578 0-4.686-2.108-4.686-4.686v-9.692c0-2.578 2.108-4.686 4.686-4.686h22.962c2.577 0 4.687 2.108 4.687 4.686v9.692c0 2.578-2.11 4.686-4.687 4.686"/>
      <path fill="none" stroke="#fff" d="M38.7 15.999H19.881"/>
      <path fill="none" stroke="#fff" d="M32.384 20.644H19.881"/>
    </g>
    <g stroke="#95d400">
      <path fill="#fff" fill-rule="nonzero" d="M65.595 39.529H50.818v4.9l-6.944-4.902-1.242.002c-2.577 0-4.686-2.109-4.686-4.687V25.15c0-2.577 2.109-4.686 4.686-4.686h22.963c2.577 0 4.686 2.109 4.686 4.686v9.692c0 2.578-2.109 4.687-4.686 4.687z"/>
      <path fill="none" d="M49.08 30.158c0-1.119-.909-2.028-2.028-2.028s-2.028.909-2.028 2.028.909 2.028 2.028 2.028 2.028-.909 2.028-2.028z"/>
      <path fill="none" d="M56.142 30.158c0-1.119-.909-2.028-2.029-2.028-1.119 0-2.028.909-2.028 2.028s.909 2.028 2.028 2.028c1.12 0 2.029-.909 2.029-2.028z"/>
      <path fill="none" d="M63.202 30.158c0-1.119-.909-2.028-2.028-2.028-1.12 0-2.029.909-2.029 2.028s.909 2.028 2.029 2.028c1.119 0 2.028-.909 2.028-2.028z"/>
    </g>
  </g>
  <g id="a22" opacity=".8">
    <g fill-rule="nonzero">
      <path fill="#95d400" d="M40.979 27.577H25.518l-7.476 5.198-.025-5.198c-2.578 0-4.686-2.108-4.686-4.686v-9.692c0-2.578 2.108-4.686 4.686-4.686h22.962c2.577 0 4.687 2.108 4.687 4.686v9.692c0 2.578-2.11 4.686-4.687 4.686"/>
      <path fill="none" stroke="#fff" d="M38.7 15.999H19.881"/>
      <path fill="none" stroke="#fff" d="M32.384 20.644H19.881"/>
    </g>
    <g stroke="#95d400">
      <path fill="#fff" fill-rule="nonzero" d="M65.595 39.529H50.818v4.9l-6.944-4.902-1.242.002c-2.577 0-4.686-2.109-4.686-4.687V25.15c0-2.577 2.109-4.686 4.686-4.686h22.963c2.577 0 4.686 2.109 4.686 4.686v9.692c0 2.578-2.109 4.687-4.686 4.687z"/>
      <path fill="none" d="M49.08 30.158c0-1.119-.909-2.028-2.028-2.028s-2.028.909-2.028 2.028.909 2.028 2.028 2.028 2.028-.909 2.028-2.028z"/>
      <path fill="none" d="M56.142 30.158c0-1.119-.909-2.028-2.029-2.028-1.119 0-2.028.909-2.028 2.028s.909 2.028 2.028 2.028c1.12 0 2.029-.909 2.029-2.028z"/>
      <path fill="none" d="M63.202 30.158c0-1.119-.909-2.028-2.028-2.028-1.12 0-2.029.909-2.029 2.028s.909 2.028 2.029 2.028c1.119 0 2.028-.909 2.028-2.028z"/>
    </g>
  </g>
  <g id="a23" opacity=".4">
    <g fill-rule="nonzero">
      <path fill="#95d400" d="M40.979 27.577H25.518l-7.476 5.198-.025-5.198c-2.578 0-4.686-2.108-4.686-4.686v-9.692c0-2.578 2.108-4.686 4.686-4.686h22.962c2.577 0 4.687 2.108 4.687 4.686v9.692c0 2.578-2.11 4.686-4.687 4.686"/>
      <path fill="none" stroke="#fff" d="M38.7 15.999H19.881"/>
      <path fill="none" stroke="#fff" d="M32.384 20.644H19.881"/>
    </g>
    <g stroke="#95d400">
      <path fill="#fff" fill-rule="nonzero" d="M65.595 39.529H50.818v4.9l-6.944-4.902-1.242.002c-2.577 0-4.686-2.109-4.686-4.687V25.15c0-2.577 2.109-4.686 4.686-4.686h22.963c2.577 0 4.686 2.109 4.686 4.686v9.692c0 2.578-2.109 4.687-4.686 4.687z"/>
      <path fill="none" d="M49.08 30.158c0-1.119-.909-2.028-2.028-2.028s-2.028.909-2.028 2.028.909 2.028 2.028 2.028 2.028-.909 2.028-2.028z"/>
      <path fill="none" d="M56.142 30.158c0-1.119-.909-2.028-2.029-2.028-1.119 0-2.028.909-2.028 2.028s.909 2.028 2.028 2.028c1.12 0 2.029-.909 2.029-2.028z"/>
      <path fill="none" d="M63.202 30.158c0-1.119-.909-2.028-2.028-2.028-1.12 0-2.029.909-2.029 2.028s.909 2.028 2.029 2.028c1.119 0 2.028-.909 2.028-2.028z"/>
    </g>
  </g>
  <g id="a24" opacity=".2">
    <g fill-rule="nonzero">
      <path fill="#95d400" d="M40.979 27.577H25.518l-7.476 5.198-.025-5.198c-2.578 0-4.686-2.108-4.686-4.686v-9.692c0-2.578 2.108-4.686 4.686-4.686h22.962c2.577 0 4.687 2.108 4.687 4.686v9.692c0 2.578-2.11 4.686-4.687 4.686"/>
      <path fill="none" stroke="#fff" d="M38.7 15.999H19.881"/>
      <path fill="none" stroke="#fff" d="M32.384 20.644H19.881"/>
    </g>
    <g stroke="#95d400">
      <path fill="#fff" fill-rule="nonzero" d="M65.595 39.529H50.818v4.9l-6.944-4.902-1.242.002c-2.577 0-4.686-2.109-4.686-4.687V25.15c0-2.577 2.109-4.686 4.686-4.686h22.963c2.577 0 4.686 2.109 4.686 4.686v9.692c0 2.578-2.109 4.687-4.686 4.687z"/>
      <path fill="none" d="M49.08 30.158c0-1.119-.909-2.028-2.028-2.028s-2.028.909-2.028 2.028.909 2.028 2.028 2.028 2.028-.909 2.028-2.028z"/>
      <path fill="none" d="M56.142 30.158c0-1.119-.909-2.028-2.029-2.028-1.119 0-2.028.909-2.028 2.028s.909 2.028 2.028 2.028c1.12 0 2.029-.909 2.029-2.028z"/>
      <path fill="none" d="M63.202 30.158c0-1.119-.909-2.028-2.028-2.028-1.12 0-2.029.909-2.029 2.028s.909 2.028 2.029 2.028c1.119 0 2.028-.909 2.028-2.028z"/>
    </g>
  </g>
<style>
/* <![CDATA[ */

#a1 {animation-name: a1}
#a2 {animation-name: a2}
#a3 {animation-name: a3}
#a4 {animation-name: a4}
#a5 {animation-name: a5}
#a6 {animation-name: a6}
#a7 {animation-name: a7}
#a8 {animation-name: a8}
#a9 {animation-name: a9}
#a10 {animation-name: a10}
#a11 {animation-name: a11}
#a12 {animation-name: a12}
#a13 {animation-name: a13}
#a14 {animation-name: a14}
#a15 {animation-name: a15}
#a16 {animation-name: a16}
#a17 {animation-name: a17}
#a18 {animation-name: a18}
#a19 {animation-name: a19}
#a20 {animation-name: a20}
#a21 {animation-name: a21}
#a22 {animation-name: a22}
#a23 {animation-name: a23}
#a24 {animation-name: a24}

@keyframes a1 {0.00%{visibility: visible} 1.11%{visibility: hidden}}
@keyframes a2 {1.11%{visibility: visible} 2.22%{visibility: hidden}}
@keyframes a3 {2.22%{visibility: visible} 3.33%{visibility: hidden}}
@keyframes a4 {3.33%{visibility: visible} 4.44%{visibility: hidden}}
@keyframes a5 {4.44%{visibility: visible} 5.56%{visibility: hidden}}
@keyframes a6 {5.56%{visibility: visible} 6.67%{visibility: hidden}}
@keyframes a7 {6.67%{visibility: visible} 7.78%{visibility: hidden}}
@keyframes a8 {7.78%{visibility: visible} 8.89%{visibility: hidden}}
@keyframes a9 {8.89%{visibility: visible} 10.00%{visibility: hidden}}
@keyframes a10 {10.00%{visibility: visible} 11.11%{visibility: hidden}}
@keyframes a11 {11.11%{visibility: visible} 12.22%{visibility: hidden}}
@keyframes a12 {12.22%{visibility: visible} 13.33%{visibility: hidden}}
@keyframes a13 {13.33%{visibility: visible} 14.44%{visibility: hidden}}
@keyframes a14 {14.44%{visibility: visible} 15.56%{visibility: hidden}}
@keyframes a15 {15.56%{visibility: visible} 16.67%{visibility: hidden}}
@keyframes a16 {16.67%{visibility: visible} 17.78%{visibility: hidden}}
@keyframes a17 {17.78%{visibility: visible} 18.89%{visibility: hidden}}
@keyframes a18 {18.89%{visibility: visible} 20.00%{visibility: hidden}}
@keyframes a19 {20.00%{visibility: visible} 21.11%{visibility: hidden}}
@keyframes a20 {21.11%{visibility: visible} 22.22%{visibility: hidden}}
@keyframes a21 {22.22%{visibility: visible} 84.44%{visibility: hidden}}

@keyframes a22 {84.44%{visibility: visible} 85.56%{visibility: hidden}}
@keyframes a23 {85.56%{visibility: visible} 86.67%{visibility: hidden}}
@keyframes a24 {86.67%{visibility: visible} 87.78%{visibility: hidden}}

/* ]]> */
</style>
</svg>
