<svg version="1.1" xmlns="http://www.w3.org/2000/svg" xmlns:xlink="http://www.w3.org/1999/xlink" viewBox="0 0 85 53">
<style>
/* <![CDATA[ */

#a1, #a2, #a3, #a4, #a5, #a6, #a7, #a8, #a9, #a10, #a11, #a12, #a13, #a14, #a15, #a16, #a17, #a18, #a19, #a20, #a21, #a22, #a23 {
visibility: hidden;
animation-duration: 5s;
animation-iteration-count: infinite;
animation-timing-function: steps(1);
}

/* ]]> */
</style>
<g id="bg">
<path fill="#FFFFFF" stroke="#95D400" stroke-width="1" stroke-miterlimit="10" d="M73.812,5.856
c-4.123-0.3-8.243-0.539-12.362-0.72c-1.31-0.058-2.433,0.927-2.555,2.232l-3.076,32.83c-0.132,1.408,0.946,2.632,2.359,2.689
c4.231,0.169,8.464,0.404,12.7,0.709c3.205,0.209,6.023-2.106,6.376-5.31c0.814-8.69,1.628-17.379,2.442-26.069
C79.938,8.775,77.117,6.126,73.812,5.856z"/>
<path fill="#F7FFE2" d="M71.278,41.147c-0.08,0-0.16-0.002-0.241-0.008c-4.189-0.301-8.488-0.541-12.76-0.712l3.069-32.829
c4.125,0.18,8.261,0.42,12.288,0.713c1.872,0.154,3.742,1.582,3.608,3.709l-2.438,26.013C74.6,39.809,73.087,41.147,71.278,41.147z
"/>
<path fill="#FFFFFF" stroke="#95D400" stroke-width="1" stroke-miterlimit="10" d="M28.634,7.547l3.079,32.868
c0.121,1.286,1.215,2.256,2.507,2.23c5.328-0.107,10.653-0.107,15.981,0c1.292,0.026,2.386-0.944,2.506-2.23l3.08-32.868
c0.132-1.417-0.96-2.656-2.382-2.692c-7.464-0.192-14.925-0.192-22.389,0C29.594,4.891,28.502,6.13,28.634,7.547z"/>
<path fill="#F7FFE2" d="M50.251,40.183c-2.668-0.053-5.373-0.081-8.041-0.081c-2.667,0-5.372,0.028-8.04,0.081L31.086,7.317
c3.687-0.096,7.431-0.144,11.124-0.144s7.438,0.048,11.131,0.144l-3.085,32.868L50.251,40.183z"/>
<path fill="#FFFFFF" stroke="#95D400" stroke-width="1" stroke-miterlimit="10" d="M25.527,7.368
c-0.123-1.305-1.246-2.29-2.556-2.232c-4.119,0.181-8.24,0.42-12.362,0.72c-3.305,0.27-6.127,2.919-5.884,6.361
c0.814,8.69,1.629,17.379,2.442,26.069c0.354,3.205,3.171,5.519,6.376,5.311c4.235-0.306,8.468-0.541,12.7-0.711
c1.413-0.056,2.491-1.28,2.359-2.688C28.602,40.198,25.527,7.368,25.527,7.368z"/>
<path fill="#F7FFE2" d="M13.144,41.147c-1.81,0-3.323-1.338-3.528-3.114L7.18,12.02c-0.135-2.127,1.735-3.555,3.63-3.711
c4.008-0.291,8.145-0.531,12.27-0.714l3.071,32.833c-4.284,0.17-8.583,0.41-12.785,0.713
C13.303,41.145,13.223,41.147,13.144,41.147"/>
<path fill="#FFFFFF" stroke="#95D400" stroke-width="1" stroke-linejoin="round" stroke-miterlimit="2" d="M46.365,17.502
c0,2.295-1.86,4.155-4.155,4.155c-2.294,0-4.154-1.86-4.154-4.155c0-2.294,1.86-4.155,4.154-4.155
C44.505,13.347,46.365,15.208,46.365,17.502"/>
<path fill="#FFFFFF" stroke="#95D400" stroke-width="1" stroke-linejoin="round" stroke-miterlimit="2" d="M50.058,29.505
c0,4.334-3.513,7.848-7.848,7.848c-4.334,0-7.848-3.514-7.848-7.848s3.514-7.848,7.848-7.848
C46.545,21.657,50.058,25.171,50.058,29.505"/>
</g>

<g fill-rule="evenodd" clip-rule="evenodd" fill="#FFFFFF" stroke="#95D400" stroke-width="1" stroke-linecap="round" stroke-linejoin="round" stroke-miterlimit="1.5">
<path id="a1" d="M34.474,30.216l-2.772,2.24c-0.724,0.585-1.812,0.442-2.427-0.32c-0.616-0.761-0.527-1.855,0.197-2.44c0,0,7.787-6.292,7.797-6.3c2.133-1.724,4.895-2.147,7.326-1.371"/>
<g id="a2">
<path d="M35.75,25.205h-3.564c-0.931,0-1.687-0.795-1.687-1.774s0.756-1.774,1.687-1.774H42.21c2.743,0,5.157,1.407,6.56,3.538"/>
<path d="M33.334,25.205l-2.393,5.424c-0.396,0.896-1.444,1.302-2.34,0.907c-0.895-0.396-1.302-1.444-0.906-2.34l2.86-6.481c0.293-0.663,0.943-1.058,1.624-1.058"/>
</g>
<g id="a3">
<path d="M35.75,25.205h-3.564c-0.931,0-1.687-0.795-1.687-1.774s0.756-1.774,1.687-1.774H42.21c2.743,0,5.157,1.407,6.56,3.538"/>
<path d="M33.355,21.657l-2.427-5.424c-0.398-0.895-1.448-1.297-2.342-0.899c-0.895,0.398-1.298,1.448-0.899,2.342l2.881,6.472c0.295,0.662,0.947,1.055,1.628,1.053"/>
</g>
<g id="a4">
<path d="M35.75,25.205h-3.564c-0.931,0-1.687-0.795-1.687-1.774s0.756-1.774,1.687-1.774H42.21c2.743,0,5.157,1.407,6.56,3.538"/>
<path d="M33.617,21.693l-1.178-5.545c-0.204-0.958-1.147-1.57-2.104-1.367c-0.958,0.204-1.57,1.147-1.367,2.105l1.473,6.929c0.151,0.709,0.707,1.229,1.374,1.368"/>
</g>
<g id="a5">
<path d="M35.75,25.205h-3.564c-0.931,0-1.687-0.795-1.687-1.774s0.756-1.774,1.687-1.774H42.21c2.743,0,5.157,1.407,6.56,3.538"/>
<path d="M34.047,21.657V16.35c0-0.979-0.795-1.774-1.774-1.774s-1.774,0.795-1.774,1.774v7.084c0,0.725,0.436,1.349,1.059,1.624"/>
</g>
<g id="a6">
<path d="M35.75,25.205h-3.564c-0.931,0-1.687-0.795-1.687-1.774s0.756-1.774,1.687-1.774H42.21c2.743,0,5.157,1.407,6.56,3.538"/>
<path d="M34.441,21.746l1.033-4.859c0.203-0.958-0.409-1.9-1.367-2.104c-0.958-0.203-1.9,0.409-2.104,1.367l-1.473,6.929c-0.151,0.709,0.146,1.41,0.699,1.809"/>
</g>
<g id="a7">
<path d="M35.75,25.205h-3.564c-0.931,0-1.687-0.795-1.687-1.774s0.756-1.774,1.687-1.774H42.21c2.743,0,5.157,1.407,6.56,3.538"/>
<path d="M34.047,21.657V16.35c0-0.979-0.795-1.774-1.774-1.774s-1.774,0.795-1.774,1.774v7.084c0,0.725,0.436,1.349,1.059,1.624"/>
</g>
<g id="a8">
<path d="M35.75,25.205h-3.564c-0.931,0-1.687-0.795-1.687-1.774s0.756-1.774,1.687-1.774H42.21c2.743,0,5.157,1.407,6.56,3.538"/>
<path d="M33.617,21.693l-1.178-5.545c-0.204-0.958-1.147-1.57-2.104-1.367c-0.958,0.204-1.57,1.147-1.367,2.105l1.473,6.929c0.151,0.709,0.707,1.229,1.374,1.368"/>
</g>
<g id="a9">
<path d="M35.75,25.205h-3.564c-0.931,0-1.687-0.795-1.687-1.774s0.756-1.774,1.687-1.774H42.21c2.743,0,5.157,1.407,6.56,3.538"/>
<path d="M33.355,21.657l-2.427-5.424c-0.398-0.895-1.448-1.297-2.342-0.899c-0.895,0.398-1.298,1.448-0.899,2.342l2.881,6.472c0.295,0.662,0.947,1.055,1.628,1.053"/>
</g>
<g id="a10">
<path d="M35.75,25.205h-3.564c-0.931,0-1.687-0.795-1.687-1.774s0.756-1.774,1.687-1.774H42.21c2.743,0,5.157,1.407,6.56,3.538"/>
<path d="M33.617,21.693l-1.178-5.545c-0.204-0.958-1.147-1.57-2.104-1.367c-0.958,0.204-1.57,1.147-1.367,2.105l1.473,6.929c0.151,0.709,0.707,1.229,1.374,1.368"/>
</g>
<g id="a11">
<path d="M35.75,25.205h-3.564c-0.931,0-1.687-0.795-1.687-1.774s0.756-1.774,1.687-1.774H42.21c2.743,0,5.157,1.407,6.56,3.538"/>
<path d="M34.047,21.657V16.35c0-0.979-0.795-1.774-1.774-1.774s-1.774,0.795-1.774,1.774v7.084c0,0.725,0.436,1.349,1.059,1.624"/>
</g>
<g id="a12">
<path d="M35.75,25.205h-3.564c-0.931,0-1.687-0.795-1.687-1.774s0.756-1.774,1.687-1.774H42.21c2.743,0,5.157,1.407,6.56,3.538"/>
<path d="M34.441,21.746l1.033-4.859c0.203-0.958-0.409-1.9-1.367-2.104c-0.958-0.203-1.9,0.409-2.104,1.367l-1.473,6.929c-0.151,0.709,0.146,1.41,0.699,1.809"/>
</g>
<g id="a13">
<path d="M35.75,25.205h-3.564c-0.931,0-1.687-0.795-1.687-1.774s0.756-1.774,1.687-1.774H42.21c2.743,0,5.157,1.407,6.56,3.538"/>
<path d="M34.047,21.657V16.35c0-0.979-0.795-1.774-1.774-1.774s-1.774,0.795-1.774,1.774v7.084c0,0.725,0.436,1.349,1.059,1.624"/>
</g>
<g id="a14">
<path d="M35.75,25.205h-3.564c-0.931,0-1.687-0.795-1.687-1.774s0.756-1.774,1.687-1.774H42.21c2.743,0,5.157,1.407,6.56,3.538"/>
<path d="M33.617,21.693l-1.178-5.545c-0.204-0.958-1.147-1.57-2.104-1.367c-0.958,0.204-1.57,1.147-1.367,2.105l1.473,6.929c0.151,0.709,0.707,1.229,1.374,1.368"/>
</g>
<g id="a15">
<path d="M35.75,25.205h-3.564c-0.931,0-1.687-0.795-1.687-1.774s0.756-1.774,1.687-1.774H42.21c2.743,0,5.157,1.407,6.56,3.538"/>
<path d="M33.355,21.657l-2.427-5.424c-0.398-0.895-1.448-1.297-2.342-0.899c-0.895,0.398-1.298,1.448-0.899,2.342l2.881,6.472c0.295,0.662,0.947,1.055,1.628,1.053"/>
</g>
<g id="a16">
<path d="M35.75,25.205h-3.564c-0.931,0-1.687-0.795-1.687-1.774s0.756-1.774,1.687-1.774H42.21c2.743,0,5.157,1.407,6.56,3.538"/>
<path d="M33.617,21.693l-1.178-5.545c-0.204-0.958-1.147-1.57-2.104-1.367c-0.958,0.204-1.57,1.147-1.367,2.105l1.473,6.929c0.151,0.709,0.707,1.229,1.374,1.368"/>
</g>
<g id="a17">
<path d="M35.75,25.205h-3.564c-0.931,0-1.687-0.795-1.687-1.774s0.756-1.774,1.687-1.774H42.21c2.743,0,5.157,1.407,6.56,3.538"/>
<path d="M34.047,21.657V16.35c0-0.979-0.795-1.774-1.774-1.774s-1.774,0.795-1.774,1.774v7.084c0,0.725,0.436,1.349,1.059,1.624"/>
</g>
<g id="a18">
<path d="M35.75,25.205h-3.564c-0.931,0-1.687-0.795-1.687-1.774s0.756-1.774,1.687-1.774H42.21c2.743,0,5.157,1.407,6.56,3.538"/>
<path d="M34.441,21.746l1.033-4.859c0.203-0.958-0.409-1.9-1.367-2.104c-0.958-0.203-1.9,0.409-2.104,1.367l-1.473,6.929c-0.151,0.709,0.146,1.41,0.699,1.809"/>
</g>
<g id="a19">
<path d="M35.75,25.205h-3.564c-0.931,0-1.687-0.795-1.687-1.774s0.756-1.774,1.687-1.774H42.21c2.743,0,5.157,1.407,6.56,3.538"/>
<path d="M34.047,21.657V16.35c0-0.979-0.795-1.774-1.774-1.774s-1.774,0.795-1.774,1.774v7.084c0,0.725,0.436,1.349,1.059,1.624"/>
</g>
<g id="a20">
<path d="M35.75,25.205h-3.564c-0.931,0-1.687-0.795-1.687-1.774s0.756-1.774,1.687-1.774H42.21c2.743,0,5.157,1.407,6.56,3.538"/>
<path d="M33.617,21.693l-1.178-5.545c-0.204-0.958-1.147-1.57-2.104-1.367c-0.958,0.204-1.57,1.147-1.367,2.105l1.473,6.929c0.151,0.709,0.707,1.229,1.374,1.368"/>
</g>
<g id="a21">
<path d="M35.75,25.205h-3.564c-0.931,0-1.687-0.795-1.687-1.774s0.756-1.774,1.687-1.774H42.21c2.743,0,5.157,1.407,6.56,3.538"/>
<path d="M33.355,21.657l-2.427-5.424c-0.398-0.895-1.448-1.297-2.342-0.899c-0.895,0.398-1.298,1.448-0.899,2.342l2.881,6.472c0.295,0.662,0.947,1.055,1.628,1.053"/>
</g>
<g id="a22">
<path d="M35.75,25.205h-3.564c-0.931,0-1.687-0.795-1.687-1.774s0.756-1.774,1.687-1.774H42.21c2.743,0,5.157,1.407,6.56,3.538"/>
<path d="M33.334,25.205l-2.393,5.424c-0.396,0.896-1.444,1.302-2.34,0.907c-0.895-0.396-1.302-1.444-0.906-2.34l2.86-6.481c0.293-0.663,0.943-1.058,1.624-1.058"/>
</g>
<path id="a23" d="M34.474,30.216l-2.772,2.24c-0.724,0.585-1.812,0.442-2.427-0.32c-0.616-0.761-0.527-1.855,0.197-2.44c0,0,7.787-6.292,7.797-6.3c2.133-1.724,4.895-2.147,7.326-1.371"/>
</g>
<g id="top">
<path fill="#FFFFFF" stroke="#95D400" stroke-width="1" stroke-miterlimit="10" d="M59.677,48.125H24.744c-1.657,0-3-1.343-3-3
V29.004c0-0.828,0.672-1.5,1.5-1.5h37.933c0.828,0,1.5,0.672,1.5,1.5v16.121C62.677,46.782,61.333,48.125,59.677,48.125z"/>
<rect x="21.744" y="40.123" fill-rule="evenodd" clip-rule="evenodd" fill="#95D400" width="40.933" height="4.309"/>
</g>
<style>
/* <![CDATA[ */

#a1 {animation-name: a1}
#a2 {animation-name: a2}
#a3 {animation-name: a3}
#a4 {animation-name: a4}
#a5 {animation-name: a5}
#a6 {animation-name: a6}
#a7 {animation-name: a7}
#a8 {animation-name: a8}
#a9 {animation-name: a9}
#a10 {animation-name: a10}
#a11 {animation-name: a11}
#a12 {animation-name: a12}
#a13 {animation-name: a13}
#a14 {animation-name: a14}
#a15 {animation-name: a15}
#a16 {animation-name: a16}
#a17 {animation-name: a17}
#a18 {animation-name: a18}
#a19 {animation-name: a19}
#a20 {animation-name: a20}
#a21 {animation-name: a21}
#a22 {animation-name: a22}
#a23 {animation-name: a23}

@keyframes a1 {0.00%{visibility: visible} 1.67%{visibility: hidden}}
@keyframes a2 {1.67%{visibility: visible} 3.33%{visibility: hidden}}
@keyframes a3 {3.33%{visibility: visible} 5.00%{visibility: hidden}}
@keyframes a4 {5.00%{visibility: visible} 6.67%{visibility: hidden}}
@keyframes a5 {6.67%{visibility: visible} 8.33%{visibility: hidden}}
@keyframes a6 {8.33%{visibility: visible} 10.00%{visibility: hidden}}
@keyframes a7 {10.00%{visibility: visible} 11.67%{visibility: hidden}}
@keyframes a8 {11.67%{visibility: visible} 13.33%{visibility: hidden}}
@keyframes a9 {13.33%{visibility: visible} 15.00%{visibility: hidden}}
@keyframes a10 {15.00%{visibility: visible} 16.67%{visibility: hidden}}
@keyframes a11 {16.67%{visibility: visible} 18.33%{visibility: hidden}}
@keyframes a12 {18.33%{visibility: visible} 20.00%{visibility: hidden}}
@keyframes a13 {20.00%{visibility: visible} 21.67%{visibility: hidden}}
@keyframes a14 {21.67%{visibility: visible} 23.33%{visibility: hidden}}
@keyframes a15 {23.33%{visibility: visible} 25.00%{visibility: hidden}}
@keyframes a16 {25.00%{visibility: visible} 26.67%{visibility: hidden}}
@keyframes a17 {26.67%{visibility: visible} 28.33%{visibility: hidden}}
@keyframes a18 {28.33%{visibility: visible} 30.00%{visibility: hidden}}
@keyframes a19 {30.00%{visibility: visible} 31.67%{visibility: hidden}}
@keyframes a20 {31.67%{visibility: visible} 33.33%{visibility: hidden}}
@keyframes a21 {33.33%{visibility: visible} 35.00%{visibility: hidden}}
@keyframes a22 {35.00%{visibility: visible} 36.67%{visibility: hidden}}
@keyframes a23 {36.67%{visibility: visible} 38.33%{visibility: hidden}}

/* ]]> */
</style>
</svg>
