<svg xmlns="http://www.w3.org/2000/svg" fill="none" stroke="#9aa8ff" stroke-linecap="round" stroke-linejoin="round" viewBox="0 0 85 53">

<style>
/* <![CDATA[ */

#shadow {
  transform: translate(18px, 40px) scale(0) translate(-18px, -40px);
  animation: shadow 6s ease-in-out infinite;
}

@keyframes shadow {
  0% {
    transform: translate(18px, 40px) scale(0) translate(-18px, -40px);
  }
  10% {
    transform: translate(18px, 40px) scale(1.1) translate(-18px, -40px);
  }
  15%, 100% {
    transform: translate(18px, 40px) scale(1) translate(-18px, -40px);
  }
  0%, 93% {
    opacity: 1;
  }
  98%, 100% {
    opacity 0;
  }
}

#paper {
  transform: translate(68px, 50px) scale(0) translate(-68px, -50px);
  animation: paper 6s ease-in-out infinite;
}

@keyframes paper {
  0%, 5% {
    transform: translate(68px, 50px) scale(0) translate(-68px, -50px);
  }
  15% {
    transform: translate(68px, 50px) scale(1.1) translate(-68px, -50px);
  }
  20%, 100% {
    transform: translate(68px, 50px) scale(1) translate(-68px, -50px);
  }
  0%, 93% {
    opacity: 1;
  }
  98%, 100% {
    opacity 0;
  }
}

#l1 {
  transform: translate(23px, 10px) scale(0, 1) translate(-23px, -10px);
  animation: l1 6s ease-in-out infinite;
}

@keyframes l1 {
  0%, 5% {
    transform: translate(23px, 10px) scale(0, 1) translate(-23px, -10px);
  }
  15%, 100% {
    transform: translate(23px, 10px) scale(1, 1) translate(-23px, -10px);
  }
  0%, 93% {
    opacity: 1;
  }
  98%, 100% {
    opacity 0;
  }
}

#l2 {
  transform: translate(23px, 15px) scale(0, 1) translate(-23px, -15px);
  animation: l2 6s ease-in-out infinite;
}

@keyframes l2 {
  0%, 8% {
    transform: translate(23px, 15px) scale(0, 1) translate(-23px, -15px);
  }
  18%, 100% {
    transform: translate(23px, 15px) scale(1, 1) translate(-23px, -15px);
  }
  0%, 93% {
    opacity: 1;
  }
  98%, 100% {
    opacity 0;
  }
}

#pdf {
  transform: translate(27px, 25px) scale(0) translate(-27px, -25px);
  animation: pdf 6s ease-in-out infinite;
}

@keyframes pdf {
  0%, 10% {
    transform: translate(27px, 25px) scale(0) translate(-27px, -25px);
  }
  17% {
    transform: translate(27px, 25px) scale(1.1) translate(-27px, -25px);
  }
  20%, 100% {
    transform: translate(27px, 25px) scale(1) translate(-27px, -25px);
  }
  0%, 93% {
    opacity: 1;
  }
  98%, 100% {
    opacity 0;
  }
}

#arrow {
  transform: translate(0px, -5px);
  opacity: 0;
  animation: arrow 6s ease-in-out infinite;
}

@keyframes arrow {
  0%, 15% {
    transform: translate(0px, -5px);
    opacity: 0;
  }
  22% {
    transform: translate(0px, 2px);
    opacity: 1;
  }
  25%, 100% {
    transform: translate(0px, 0px);
  }
  93% {
    opacity: 1;
  }
  98%, 100% {
    opacity 0;
  }
}

#r1 {
  transform: translate(43px, 14px) scale(0, 1) translate(-43px, -14px);
  animation: r1 6s ease-in-out infinite;
}

@keyframes r1 {
  0%, 15% {
    transform: translate(43px, 14px) scale(0, 1) translate(-43px, -14px);
  }
  25%, 100% {
    transform: translate(43px, 14px) scale(1, 1) translate(-43px, -14px);
  }
  0%, 93% {
    opacity: 1;
  }
  98%, 100% {
    opacity 0;
  }
}

#r2 {
  transform: translate(43px, 27px) scale(0, 1) translate(-43px, -27px);
  animation: r2 6s ease-in-out infinite;
}

@keyframes r2 {
  0%, 18% {
    transform: translate(43px, 27px) scale(0, 1) translate(-43px, -27px);
  }
  28%, 100% {
    transform: translate(43px, 27px) scale(1, 1) translate(-43px, -27px);
  }
  0%, 93% {
    opacity: 1;
  }
  98%, 100% {
    opacity 0;
  }
}

#r3 {
  transform: translate(43px, 32px) scale(0, 1) translate(-43px, -32px);
  animation: r3 6s ease-in-out infinite;
}

@keyframes r3 {
  0%, 21% {
    transform: translate(43px, 32px) scale(0, 1) translate(-43px, -32px);
  }
  31%, 100% {
    transform: translate(43px, 32px) scale(1, 1) translate(-43px, -32px);
  }
  0%, 93% {
    opacity: 1;
  }
  98%, 100% {
    opacity 0;
  }
}

#r4 {
  transform: translate(43px, 37px) scale(0, 1) translate(-43px, -37px);
  animation: r4 6s ease-in-out infinite;
}

@keyframes r4 {
  0%, 24% {
    transform: translate(43px, 37px) scale(0, 1) translate(-43px, -37px);
  }
  34%, 100% {
    transform: translate(43px, 37px) scale(1, 1) translate(-43px, -37px);
  }
  0%, 93% {
    opacity: 1;
  }
  98%, 100% {
    opacity 0;
  }
}

#r5 {
  transform: translate(43px, 42px) scale(0, 1) translate(-43px, -42px);
  animation: r5 6s ease-in-out infinite;
}

@keyframes r5 {
  0%, 27% {
    transform: translate(43px, 42px) scale(0, 1) translate(-43px, -42px);
  }
  34%, 100% {
    transform: translate(43px, 42px) scale(1, 1) translate(-43px, -42px);
  }
  0%, 93% {
    opacity: 1;
  }
  98%, 100% {
    opacity 0;
  }
}

#receipt {
  opacity: 0;
  animation: receipt 6s linear infinite;
}

@keyframes receipt {
  0%, 27%, 100% {
    opacity: 0;
  }
  34%, 93% {
    opacity: 1;
  }
}

/* ]]> */
</style>

  <rect id="shadow" width="44.47" height="34.39" x="17.58" y="5.57" fill="#cfd4ff" rx=".96" ry=".96"/>
  <path id="l1" d="M22.03 10.57h7.61"/>
  <path id="l2" d="M22.03 15.29h10.39"/>
  <path id="pdf" d="M27 23.98c-1.14-1.29-1.81-4.1-.25-4.35s1.1 2.81.07 5.22-2.41 5.81-3.61 5.81-1.62-1.04-.57-1.74 4.16-1.78 6.78-2.77c2.21-.84 3.26-.06 2.96.7-.48 1.21-2.69.17-5.37-2.86Z"/>
  <path id="arrow" d="m30.38 43.33-3.16 3.15-3.15-3.15M27.22 46.48V34.75"/>
  <g id="paper">
    <path fill="#fff" d="M59.4 49.65H40.97a2.32 2.32 0 0 1-2.32-2.32V11.9a2.32 2.32 0 0 1 2.32-2.32H65.1a2.32 2.32 0 0 1 2.32 2.32v29.74"/>
    <path d="M67.42 41.63h-6.27c-.96 0-1.74.78-1.74 1.74v6.27l8.02-8.02Z"/>
  </g>
  <path id="r1" d="M42.81 14.29H63.6"/>
  <path id="r2" d="M42.81 26.5H63.6"/>
  <path id="r3" d="M42.81 31.65H63.6"/>
  <path id="r4" d="M42.81 36.8H63.6"/>
  <path id="r5" d="M42.81 41.95h11.63"/>
  <path id="receipt" d="M46.54 22.15v-3.43M56.95 22.15v-3.43M62.58 22.15v-3.43M48.59 18.72h-2.05M48.59 22.15h-2.05M48.32 20.43h-1.78M53.54 22.15v-3.43M55.59 18.72h-2.05M63.6 18.72h-2.05M55.59 22.15h-2.05M55.33 20.43h-1.79M58.39 22.15v-3.43M58.39 18.72h1.14c.5 0 .9.4.9.9h0c0 .5-.4.9-.9.9h-1.14M42.98 22.15v-3.43M45.17 22.15l-1.05-1.63M42.98 18.72h1.14c.5 0 .9.4.9.9h0c0 .5-.4.9-.9.9h-1.14M52.14 21.44a.7.7 0 0 1-.7.7h-.86a.7.7 0 0 1-.7-.7v-2.02c0-.39.31-.7.7-.7h.86c.39 0 .7.31.7.7"/>
</svg>
