<svg xmlns="http://www.w3.org/2000/svg" fill-rule="evenodd" stroke-miterlimit="10" clip-rule="evenodd" viewBox="0 0 85 53">
<style>
/* <![CDATA[ */

#a1, #a2, #a3, #a4, #a5, #a6, #a7, #a8, #a9, #a10, #a11, #a12, #a13 {
visibility: hidden;
animation-duration: 4s;
animation-iteration-count: infinite;
animation-timing-function: steps(1);
}

/* ]]> */
</style>
  <g id="display">
    <path fill="#f7ffe2" fill-rule="nonzero" stroke="#95d400" d="M24.43 36.82V10.89c0-1.35 1.1-2.45 2.45-2.45h45.24c1.35 0 2.45 1.1 2.45 2.45v25.93c0 1.35-1.1 2.44-2.45 2.44H26.88a2.45 2.45 0 01-2.45-2.44z"/>
    <path fill="#fff" fill-rule="nonzero" stroke="#95d400" d="M24.43 36.82v-2.2h50.14v2.2c0 1.35-1.1 2.44-2.45 2.44H26.88a2.45 2.45 0 01-2.45-2.44z"/>
    <rect width="9.67" height="4.89" x="44.66" y="39.26" fill="#fff" stroke="#95d400"/>
    <path fill="#95d400" fill-rule="nonzero" d="M57.5 44.15l-3.16-1.1h-9.68l-3.16 1.1v1.24h16v-1.24z"/>
    <circle cx="49.5" cy="36.95" r=".74" fill="#95d400"/>
    <path fill="#95d400" fill-rule="nonzero" d="M36.55 13.16a1.05 1.05 0 01-.66.99c-.21.1-.47.14-.76.14-.36 0-.65-.06-.88-.2-.16-.1-.3-.22-.4-.38a.88.88 0 01-.15-.47c0-.09.03-.16.1-.22.06-.07.13-.1.23-.1.07 0 .14.03.2.08.05.04.1.12.13.21.04.12.1.21.15.29.05.08.12.14.22.19.1.05.22.07.38.07.21 0 .39-.05.52-.15.14-.1.2-.22.2-.37a.4.4 0 00-.1-.3.7.7 0 00-.29-.16 4.78 4.78 0 00-.46-.13 3.35 3.35 0 01-.64-.2 1.03 1.03 0 01-.42-.34.85.85 0 01-.15-.52c0-.2.06-.37.16-.52.11-.15.27-.27.47-.35.2-.09.44-.13.72-.13.22 0 .4.03.57.09.16.05.3.12.4.21.1.1.18.19.23.29.05.1.07.2.07.29 0 .08-.03.16-.09.23a.3.3 0 01-.23.1c-.08 0-.14-.02-.19-.06a.88.88 0 01-.14-.2.92.92 0 00-.23-.32c-.1-.07-.24-.11-.44-.11a.76.76 0 00-.45.12c-.12.08-.18.18-.18.3 0 .07.02.13.06.18.04.06.1.1.16.14l.21.09.35.09c.2.05.38.1.55.16.16.05.3.12.41.2.12.08.2.19.27.31a1 1 0 01.1.46zm18.11-2.13v1.03h1.57v-1.03c0-.14.03-.25.1-.33a.33.33 0 01.26-.1c.1 0 .2.03.26.1.07.07.1.18.1.33v2.82c0 .15-.03.26-.1.33a.35.35 0 01-.26.11c-.11 0-.2-.03-.26-.1-.07-.08-.1-.2-.1-.34v-1.2h-1.57v1.2c0 .15-.03.26-.1.33a.35.35 0 01-.26.11c-.11 0-.2-.03-.26-.1-.07-.08-.1-.2-.1-.34v-2.82c0-.14.03-.25.1-.33a.33.33 0 01.26-.1c.1 0 .2.03.26.1.07.07.1.18.1.33zm-4.4-.03v.99c.1-.1.18-.18.26-.24.08-.05.17-.1.26-.12.1-.03.2-.05.32-.05.17 0 .32.04.45.11s.23.18.3.31c.05.08.09.17.1.27.02.1.03.21.03.34v1.28c0 .13-.03.23-.1.3a.31.31 0 01-.24.1c-.22 0-.33-.13-.33-.4v-1.13c0-.21-.03-.37-.1-.49-.06-.11-.18-.17-.35-.17a.54.54 0 00-.32.1.61.61 0 00-.22.28c-.03.1-.05.27-.05.53v.88c0 .13-.03.23-.09.3a.31.31 0 01-.25.1c-.22 0-.33-.13-.33-.4v-2.9c0-.13.03-.23.09-.3a.3.3 0 01.24-.1c.1 0 .19.04.25.1.06.07.09.17.09.3zm-9.51 2.33v.56c0 .13-.03.23-.1.3a.32.32 0 01-.24.1.3.3 0 01-.23-.1c-.07-.07-.1-.17-.1-.3v-1.86c0-.3.11-.45.33-.45.1 0 .19.04.24.1.05.08.07.18.08.32.08-.14.16-.24.24-.31a.5.5 0 01.34-.1c.14 0 .27.03.4.1.14.07.2.16.2.28 0 .08-.02.15-.08.2a.26.26 0 01-.18.08.85.85 0 01-.18-.05.82.82 0 00-.25-.04c-.1 0-.17.02-.24.08a.49.49 0 00-.14.22c-.03.1-.06.22-.07.36l-.02.51zm3.09.59a2.1 2.1 0 01-.47.28c-.15.06-.32.1-.5.1a.96.96 0 01-.46-.1.74.74 0 01-.3-.28.71.71 0 01-.1-.38c0-.18.06-.34.17-.46a.86.86 0 01.48-.26l.75-.16.38-.1a.7.7 0 00-.1-.4c-.06-.08-.2-.12-.4-.12-.16 0-.29.03-.37.07a.62.62 0 00-.22.22l-.13.18c-.03.03-.08.05-.17.05a.28.28 0 01-.19-.07.23.23 0 01-.08-.19c0-.12.04-.23.12-.34.09-.11.22-.2.4-.27.17-.08.39-.11.65-.11.3 0 .52.03.69.1.17.07.28.18.35.33.07.15.1.35.1.6v.76c0 .12.02.25.07.4l.06.25c0 .07-.03.13-.1.19a.33.33 0 01-.22.08c-.07 0-.13-.03-.2-.1a1.5 1.5 0 01-.21-.27zm17.48-.59v.56c0 .13-.03.23-.1.3a.32.32 0 01-.24.1.3.3 0 01-.23-.1c-.07-.07-.1-.17-.1-.3v-1.86c0-.3.11-.45.33-.45.1 0 .19.04.24.1.05.08.07.18.08.32.08-.14.16-.24.24-.31a.5.5 0 01.34-.1c.14 0 .27.03.4.1.14.07.2.16.2.28 0 .08-.02.15-.08.2a.26.26 0 01-.18.08.85.85 0 01-.18-.05.83.83 0 00-.25-.04c-.1 0-.18.02-.24.08a.49.49 0 00-.14.22c-.03.1-.06.22-.07.36-.02.14-.02.31-.02.51zm3.26-.23h-1.3c0 .15.03.29.1.4a.62.62 0 00.55.35.7.7 0 00.41-.12c.06-.03.12-.08.17-.12.06-.05.12-.1.2-.19.04-.03.09-.04.15-.04.07 0 .13.02.17.05.04.04.06.1.06.16s-.02.13-.07.21a.84.84 0 01-.21.24c-.1.07-.22.13-.36.18-.14.05-.31.07-.5.07-.42 0-.76-.12-1-.36a1.37 1.37 0 01-.35-1c0-.2.03-.38.09-.54a1.1 1.1 0 01.67-.71c.16-.07.34-.1.54-.1.26 0 .49.05.67.16a1.12 1.12 0 01.56.96c0 .17-.05.28-.14.33a.9.9 0 01-.4.07zm-5.03 0h-1.3c0 .15.02.29.08.4a.62.62 0 00.57.35c.08 0 .15 0 .21-.03a.72.72 0 00.2-.08l.17-.13c.05-.05.12-.1.2-.19a.22.22 0 01.15-.04c.06 0 .12.02.16.05a.2.2 0 01.07.16c0 .06-.03.13-.07.21a.86.86 0 01-.22.24c-.1.07-.21.13-.36.18-.14.05-.3.07-.5.07-.42 0-.75-.12-1-.36a1.36 1.36 0 01-.35-1c0-.2.03-.38.09-.54.06-.17.14-.32.26-.44.1-.12.25-.21.41-.27.16-.07.35-.1.55-.1.26 0 .48.05.67.16a1.12 1.12 0 01.56.96c0 .17-.05.28-.15.33a.9.9 0 01-.4.07zm-14.51-1.46h.07v-.4V11c.01-.06.03-.11.06-.16a.32.32 0 01.28-.15.33.33 0 01.3.25c.02.06.03.15.03.26v.45h.24c.1 0 .17.03.22.07.05.04.07.1.07.17 0 .1-.03.15-.1.19a.69.69 0 01-.3.05h-.13v1.47c.01.06.03.1.07.14.03.03.08.05.15.05.04 0 .1 0 .16-.02a.82.82 0 01.16-.02.21.21 0 01.21.22c0 .1-.06.2-.18.25-.12.06-.29.08-.5.08a.88.88 0 01-.48-.1.49.49 0 01-.21-.3 2 2 0 01-.05-.49v-1.28h-.09c-.1 0-.17-.02-.22-.06a.22.22 0 01-.07-.18c0-.07.02-.13.08-.17.05-.05.13-.07.23-.07zm4.12 1.83c0 .08-.02.17-.07.27a.93.93 0 01-.23.27c-.1.08-.23.15-.39.2-.15.05-.32.08-.52.08-.41 0-.73-.12-.96-.36a1.33 1.33 0 01-.35-.97c0-.27.05-.51.16-.72.1-.21.26-.37.46-.49.2-.11.44-.17.72-.17a1.41 1.41 0 01.84.27c.1.08.17.17.23.26.05.09.08.17.08.25 0 .08-.03.15-.1.2a.3.3 0 01-.2.08.22.22 0 01-.15-.04.68.68 0 01-.12-.14 1.03 1.03 0 00-.26-.27.58.58 0 00-.33-.1c-.2 0-.36.08-.48.23a1 1 0 00-.18.63c0 .13.01.24.05.35.03.1.07.2.13.27s.13.13.21.17c.09.03.18.05.28.05.13 0 .24-.03.34-.09.1-.06.18-.15.25-.28a.66.66 0 01.13-.18c.05-.04.1-.06.18-.06.08 0 .15.03.2.1a.3.3 0 01.08.19zm-9.65 0c0 .08-.03.17-.08.27a.94.94 0 01-.22.27c-.1.08-.23.15-.39.2-.15.05-.33.08-.52.08-.41 0-.73-.12-.97-.36a1.33 1.33 0 01-.34-.97c0-.27.05-.51.16-.72.1-.21.26-.37.46-.49.2-.11.44-.17.71-.17a1.42 1.42 0 01.84.27c.1.08.18.17.23.26.06.09.08.17.08.25 0 .08-.03.15-.09.2a.3.3 0 01-.21.08.22.22 0 01-.14-.04.7.7 0 01-.12-.14 1 1 0 00-.26-.27.57.57 0 00-.34-.1c-.2 0-.35.08-.47.23a1 1 0 00-.18.63c0 .13.01.24.04.35.03.1.08.2.14.27.06.07.13.13.21.17.08.03.17.05.27.05.14 0 .25-.03.35-.09.1-.06.18-.15.25-.28a.63.63 0 01.13-.18c.05-.04.1-.06.17-.06.09 0 .15.03.2.1a.3.3 0 01.09.19zm4.28-.52c-.1.04-.24.08-.42.12l-.39.08a.53.53 0 00-.2.11.28.28 0 00-.1.23c0 .1.04.19.11.26.08.07.18.1.3.1.13 0 .26-.02.37-.08.11-.06.2-.13.24-.22.06-.1.1-.27.1-.5v-.1zm14.45-.23h1.21a.81.81 0 00-.18-.5.55.55 0 00-.43-.18c-.16 0-.3.06-.4.18a.86.86 0 00-.2.5zm5.04 0h1.2c0-.22-.07-.4-.18-.5a.55.55 0 00-.42-.18c-.16 0-.3.06-.4.18a.86.86 0 00-.2.5z"/>
  </g>
  <g id="a1">
    <path fill="#95d400" d="M58.6 18.49c0-1.04-.83-1.88-1.87-1.88H42.27c-1.04 0-1.88.84-1.88 1.88v8.8c0 1.05.84 1.89 1.88 1.89h14.46c1.04 0 1.88-.84 1.88-1.88v-8.81z"/>
    <path fill="#fff" fill-rule="nonzero" stroke="#95d400" d="M10.96 12.25a9.9 9.9 0 1019.82 0 9.9 9.9 0 00-19.82 0"/>
    <path fill="#fff" fill-rule="nonzero" stroke="#95d400" stroke-linecap="round" d="M28.34 44.39V34.35L38 40.83l8.43-9.4a4.13 4.13 0 00-6.1-5.53l-3.56 4.47s-6.52-5.03-8.59-6.59a12.42 12.42 0 00-8.35-2.8h-2.5a9.2 9.2 0 00-9.17 9.16V44.4"/>
  </g>
  <g id="a2">
    <path fill="#95d400" d="M58.6 18.49c0-1.04-.83-1.88-1.87-1.88H42.27c-1.04 0-1.88.84-1.88 1.88v8.8c0 1.05.84 1.89 1.88 1.89h14.46c1.04 0 1.88-.84 1.88-1.88v-8.81z"/>
    <path fill="#fff" fill-rule="nonzero" stroke="#95d400" d="M10.96 12.25a9.9 9.9 0 1019.82 0 9.9 9.9 0 00-19.82 0"/>
    <path fill="#fff" fill-rule="nonzero" stroke="#95d400" stroke-linecap="round" d="M28.34 44.39v-11.4l10.8 5.77 7.5-10.73a4.13 4.13 0 00-6.11-5.54l-3.23 5.65s-7.1-3.96-9.12-4.95c-1.52-.74-3.42-1.76-6.21-2.1-.37-.04-1.3-.11-2.14-.11h-2.5a9.2 9.2 0 00-9.17 9.16V44.4"/>
  </g>
  <g id="a3">
    <path fill="#95d400" d="M58.6 18.49c0-1.04-.83-1.88-1.87-1.88H42.27c-1.04 0-1.88.84-1.88 1.88v8.8c0 1.05.84 1.89 1.88 1.89h14.46c1.04 0 1.88-.84 1.88-1.88v-8.81z"/>
    <path fill="#fff" fill-rule="nonzero" stroke="#95d400" d="M10.96 12.25a9.9 9.9 0 1019.82 0 9.9 9.9 0 00-19.82 0"/>
    <path fill="#fff" fill-rule="nonzero" stroke="#95d400" stroke-linecap="round" d="M28.34 44.39v-11.4l11.36 2.85 6.12-12.75a4.13 4.13 0 00-7.42-3.6l-2.65 7.04s-5.51-2.58-7.54-3.57a18.82 18.82 0 00-8.38-1.98h-2.5a9.2 9.2 0 00-9.17 9.16V44.4"/>
  </g>
  <g id="a4">
    <path fill="#fff" stroke="#95d400" stroke-linecap="round" stroke-linejoin="round" stroke-miterlimit="1.5" d="M58.6 18.49c0-1.04-.83-1.88-1.87-1.88H42.27c-1.04 0-1.88.84-1.88 1.88v8.8c0 1.05.84 1.89 1.88 1.89h14.46c1.04 0 1.88-.84 1.88-1.88v-8.81z"/>
    <path fill="#95d400" d="M58.6 18.49c0-1.04-.83-1.88-1.87-1.88h-7.94l-2.84 1.3c-1.04 0-5.56 2.8-5.56 2.8v6.59c0 1.04.84 1.88 1.88 1.88h14.46c1.04 0 1.88-.84 1.88-1.88v-8.81z"/>
    <path fill="#fff" fill-rule="nonzero" stroke="#95d400" d="M9.96 12.25a9.9 9.9 0 1019.82 0 9.9 9.9 0 00-19.82 0"/>
    <path fill="#fff" fill-rule="nonzero" stroke="#95d400" stroke-linecap="round" d="M28.34 44.39V31.86l12.76.91 9.08-10.04a3.87 3.87 0 00-.3-5.52c-1.73-1.5-3.96-.9-5.4.54l-6.28 6.68s-13.44-3-16.23-3.34c-.37-.04-1.3-.11-2.14-.11h-2.5a9.2 9.2 0 00-9.17 9.16V44.4"/>
  </g>
  <g id="a5">
    <path fill="none" stroke="#95d400" stroke-linecap="round" stroke-linejoin="round" stroke-miterlimit="1.5" d="M58.6 18.49c0-1.04-.83-1.88-1.87-1.88H42.27c-1.04 0-1.88.84-1.88 1.88v8.8c0 1.05.84 1.89 1.88 1.89h14.46c1.04 0 1.88-.84 1.88-1.88v-8.81z"/>
    <path fill="#95d400" d="M58.6 18.49c0-1.04-18.2 4.73-18.2 4.73v4.08c0 1.04.83 1.88 1.87 1.88h14.46c1.04 0 1.88-.84 1.88-1.88v-8.81z"/>
    <path fill="#fff" fill-rule="nonzero" stroke="#95d400" d="M8.96 12.25a9.9 9.9 0 1019.82 0 9.9 9.9 0 00-19.82 0"/>
    <path fill="#fff" fill-rule="nonzero" stroke="#95d400" stroke-linecap="round" d="M28.34 44.39v-13.4l13.61-1.36 12.4-5.56a4.13 4.13 0 00-3.7-7.37L39.5 21.57s-14.74-.13-17.53-.48c-.37-.04-1.3-.11-2.14-.11h-2.5a9.2 9.2 0 00-9.17 9.16V44.4"/>
  </g>
  <g id="a6">
    <path fill="#fff" stroke="#95d400" stroke-linecap="round" stroke-linejoin="round" stroke-miterlimit="1.5" d="M58.6 18.49c0-1.04-.83-1.88-1.87-1.88H42.27c-1.04 0-1.88.84-1.88 1.88v8.8c0 1.05.84 1.89 1.88 1.89h14.46c1.04 0 1.88-.84 1.88-1.88v-8.81z"/>
    <path fill="#95d400" d="M58.6 20.71l-18.2 2.5v4.09c0 1.04.83 1.88 1.87 1.88h14.46c1.04 0 1.88-.84 1.88-1.88V20.7z"/>
    <path fill="#fff" fill-rule="nonzero" stroke="#95d400" d="M9.96 12.25a9.9 9.9 0 1019.82 0 9.9 9.9 0 00-19.82 0"/>
    <path fill="#fff" fill-rule="nonzero" stroke="#95d400" stroke-linecap="round" d="M28.34 44.39V31.86l12.76.91 9.08-10.04a3.87 3.87 0 00-.3-5.52c-1.73-1.5-3.96-.9-5.4.54l-6.28 6.68s-13.44-3-16.23-3.34c-.37-.04-1.3-.11-2.14-.11h-2.5a9.2 9.2 0 00-9.17 9.16V44.4"/>
  </g>
  <g id="a7">
    <path fill="#fff" stroke="#95d400" stroke-linecap="round" stroke-linejoin="round" stroke-miterlimit="1.5" d="M58.6 18.49c0-1.04-.83-1.88-1.87-1.88H42.27c-1.04 0-1.88.84-1.88 1.88v8.8c0 1.05.84 1.89 1.88 1.89h14.46c1.04 0 1.88-.84 1.88-1.88v-8.81z"/>
    <path fill="#95d400" fill-rule="nonzero" d="M51.6 26.27l-.4-1.07h-3.5l-.4 1.1c-.16.43-.3.72-.41.87-.12.15-.3.22-.56.22a.82.82 0 01-.58-.24.74.74 0 01-.25-.54c0-.12.02-.24.06-.37l.19-.52 2.2-5.58.22-.57c.09-.23.18-.41.28-.56.1-.15.23-.27.4-.36.16-.1.36-.14.6-.14s.44.05.6.14c.17.09.3.2.4.35.1.15.18.3.25.47l.26.66 2.24 5.55c.18.42.27.72.27.92 0 .2-.09.38-.25.54a.82.82 0 01-.6.25.72.72 0 01-.6-.27 1.81 1.81 0 01-.21-.39l-.2-.46zm-3.44-2.38h2.57l-1.3-3.55-1.27 3.55z"/>
    <path fill="#95d400" d="M58.6 20.71L40.4 27.3c0 1.04.83 1.88 1.87 1.88h14.46c1.04 0 1.88-.84 1.88-1.88V20.7z"/>
    <path fill="#fff" fill-rule="nonzero" stroke="#95d400" d="M10.96 12.25a9.9 9.9 0 1019.82 0 9.9 9.9 0 00-19.82 0"/>
    <path fill="#fff" fill-rule="nonzero" stroke="#95d400" stroke-linecap="round" d="M28.34 44.39v-11.4l10.8 5.77 7.5-10.73a4.13 4.13 0 00-6.11-5.54l-3.23 5.65s-7.1-3.96-9.12-4.95c-1.52-.74-3.42-1.76-6.21-2.1-.37-.04-1.3-.11-2.14-.11h-2.5a9.2 9.2 0 00-9.17 9.16V44.4"/>
  </g>
  <g id="a8">
    <path fill="#fff" stroke="#95d400" stroke-linecap="round" stroke-linejoin="round" stroke-miterlimit="1.5" d="M58.6 18.49c0-1.04-.83-1.88-1.87-1.88H42.27c-1.04 0-1.88.84-1.88 1.88v8.8c0 1.05.84 1.89 1.88 1.89h14.46c1.04 0 1.88-.84 1.88-1.88v-8.81z"/>
    <path fill="#95d400" fill-rule="nonzero" d="M51.6 26.27l-.4-1.07h-3.5l-.4 1.1c-.16.43-.3.72-.41.87-.12.15-.3.22-.56.22a.82.82 0 01-.58-.24.74.74 0 01-.25-.54c0-.12.02-.24.06-.37l.19-.52 2.2-5.58.22-.57c.09-.23.18-.41.28-.56.1-.15.23-.27.4-.36.16-.1.36-.14.6-.14s.44.05.6.14c.17.09.3.2.4.35.1.15.18.3.25.47l.26.66 2.24 5.55c.18.42.27.72.27.92 0 .2-.09.38-.25.54a.82.82 0 01-.6.25.72.72 0 01-.6-.27 1.81 1.81 0 01-.21-.39l-.2-.46zm-3.44-2.38h2.57l-1.3-3.55-1.27 3.55z"/>
    <path fill="#95d400" d="M58.6 20.71s-3.36 3.33-7.52 4.7c-3.07 1-10.69 1.89-10.69 1.89 0 1.03.84 1.88 1.88 1.88h14.46c1.04 0 1.88-.85 1.88-1.88V20.7z"/>
    <path fill="#fff" fill-rule="nonzero" stroke="#95d400" d="M10.96 12.25a9.9 9.9 0 1019.82 0 9.9 9.9 0 00-19.82 0"/>
    <path fill="#fff" fill-rule="nonzero" stroke="#95d400" stroke-linecap="round" d="M28.34 44.39v-11.4l11.46 4.03 10.67-9.3a4.13 4.13 0 00-6.11-5.54l-5.59 5.7s-8.41-3.84-10.43-4.83a19.44 19.44 0 00-6.37-1.96c-.37-.04-1.3-.11-2.14-.11h-2.5a9.2 9.2 0 00-9.17 9.16V44.4"/>
  </g>
  <g id="a9">
    <path fill="#fff" fill-rule="nonzero" stroke="#95d400" d="M10.96 12.25a9.9 9.9 0 1019.82 0 9.9 9.9 0 00-19.82 0"/>
    <path fill="#fff" stroke="#95d400" stroke-linecap="round" stroke-linejoin="round" stroke-miterlimit="1.5" d="M58.6 18.49c0-1.04-.83-1.88-1.87-1.88H42.27c-1.04 0-1.88.84-1.88 1.88v8.8c0 1.05.84 1.89 1.88 1.89h14.46c1.04 0 1.88-.84 1.88-1.88v-8.81z"/>
    <path fill="#95d400" fill-rule="nonzero" d="M51.6 26.27l-.4-1.07h-3.5l-.4 1.1c-.16.43-.3.72-.41.87-.12.15-.3.22-.56.22a.82.82 0 01-.58-.24.74.74 0 01-.25-.54c0-.12.02-.24.06-.37l.19-.52 2.2-5.58.22-.57c.09-.23.18-.41.28-.56.1-.15.23-.27.4-.36.16-.1.36-.14.6-.14s.44.05.6.14c.17.09.3.2.4.35.1.15.18.3.25.47l.26.66 2.24 5.55c.18.42.27.72.27.92 0 .2-.09.38-.25.54a.82.82 0 01-.6.25.72.72 0 01-.6-.27 1.81 1.81 0 01-.21-.39l-.2-.46zm-3.44-2.38h2.57l-1.3-3.55-1.27 3.55z"/>
    <path fill="#95d400" d="M58.6 27.3s-1.08-1.87-6.43-1.8c-3.23.04-11.78 1.8-11.78 1.8 0 1.03.84 1.88 1.88 1.88h14.46c1.04 0 1.88-.85 1.88-1.88z"/>
    <path fill="#fff" fill-rule="nonzero" stroke="#95d400" stroke-linecap="round" d="M28.34 44.39v-11.4l12.97 2.27 13.12-7.46c1.7-.9 2.38-3.63 1-5.56-1.32-1.85-3.88-2.3-6.1-1.14l-9.73 5.4s-8.9-2.87-11.02-3.67c-1.58-.6-3.82-1.4-6.61-1.74-.37-.04-1.3-.11-2.14-.11h-2.5a9.2 9.2 0 00-9.17 9.16V44.4"/>
  </g>
  <g id="a10">
    <path fill="#fff" fill-rule="nonzero" stroke="#95d400" d="M10.96 12.25a9.9 9.9 0 1019.82 0 9.9 9.9 0 00-19.82 0"/>
    <path fill="#fff" stroke="#95d400" stroke-linecap="round" stroke-linejoin="round" stroke-miterlimit="1.5" d="M58.6 18.49c0-1.04-.83-1.88-1.87-1.88H42.27c-1.04 0-1.88.84-1.88 1.88v8.8c0 1.05.84 1.89 1.88 1.89h14.46c1.04 0 1.88-.84 1.88-1.88v-8.81z"/>
    <path fill="#95d400" fill-rule="nonzero" d="M51.6 26.27l-.4-1.07h-3.5l-.4 1.1c-.16.43-.3.72-.41.87-.12.15-.3.22-.56.22a.82.82 0 01-.58-.24.74.74 0 01-.25-.54c0-.12.02-.24.06-.37l.19-.52 2.2-5.58.22-.57c.09-.23.18-.41.28-.56.1-.15.23-.27.4-.36.16-.1.36-.14.6-.14s.44.05.6.14c.17.09.3.2.4.35.1.15.18.3.25.47l.26.66 2.24 5.55c.18.42.27.72.27.92 0 .2-.09.38-.25.54a.82.82 0 01-.6.25.72.72 0 01-.6-.27 1.81 1.81 0 01-.21-.39l-.2-.46zm-3.44-2.38h2.57l-1.3-3.55-1.27 3.55z"/>
    <path fill="#fff" fill-rule="nonzero" stroke="#95d400" stroke-linecap="round" d="M28.34 44.39v-11.4l11.46 4.03 10.67-9.3a4.13 4.13 0 00-6.11-5.54l-5.59 5.7s-8.41-3.84-10.43-4.83a19.44 19.44 0 00-6.37-1.96c-.37-.04-1.3-.11-2.14-.11h-2.5a9.2 9.2 0 00-9.17 9.16V44.4"/>
  </g>
  <g id="a11">
    <path fill="#fff" stroke="#95d400" stroke-linecap="round" stroke-linejoin="round" stroke-miterlimit="1.5" d="M58.6 18.49c0-1.04-.83-1.88-1.87-1.88H42.27c-1.04 0-1.88.84-1.88 1.88v8.8c0 1.05.84 1.89 1.88 1.89h14.46c1.04 0 1.88-.84 1.88-1.88v-8.81z"/>
    <path fill="#95d400" fill-rule="nonzero" d="M51.6 26.27l-.4-1.07h-3.5l-.4 1.1c-.16.43-.3.72-.41.87-.12.15-.3.22-.56.22a.82.82 0 01-.58-.24.74.74 0 01-.25-.54c0-.12.02-.24.06-.37l.19-.52 2.2-5.58.22-.57c.09-.23.18-.41.28-.56.1-.15.23-.27.4-.36.16-.1.36-.14.6-.14s.44.05.6.14c.17.09.3.2.4.35.1.15.18.3.25.47l.26.66 2.24 5.55c.18.42.27.72.27.92 0 .2-.09.38-.25.54a.82.82 0 01-.6.25.72.72 0 01-.6-.27 1.81 1.81 0 01-.21-.39l-.2-.46zm-3.44-2.38h2.57l-1.3-3.55-1.27 3.55z"/>
    <path fill="#fff" fill-rule="nonzero" stroke="#95d400" d="M10.96 12.25a9.9 9.9 0 1019.82 0 9.9 9.9 0 00-19.82 0"/>
    <path fill="#fff" fill-rule="nonzero" stroke="#95d400" stroke-linecap="round" d="M28.34 44.39v-11.4l10.8 5.77 7.67-10.7c1.33-2.06 1.23-4.33-.46-5.86a4.13 4.13 0 00-5.82.29l-3.23 5.65s-7.1-3.96-9.12-4.95c-1.52-.74-3.42-1.76-6.21-2.1-.37-.04-1.3-.11-2.14-.11h-2.5a9.2 9.2 0 00-9.17 9.16V44.4"/>
  </g>
  <g id="a12">
    <path fill="#fff" stroke="#95d400" stroke-linecap="round" stroke-linejoin="round" stroke-miterlimit="1.5" d="M58.6 18.49c0-1.04-.83-1.88-1.87-1.88H42.27c-1.04 0-1.88.84-1.88 1.88v8.8c0 1.05.84 1.89 1.88 1.89h14.46c1.04 0 1.88-.84 1.88-1.88v-8.81z"/>
    <path fill="#95d400" fill-rule="nonzero" d="M51.6 26.27l-.4-1.07h-3.5l-.4 1.1c-.16.43-.3.72-.41.87-.12.15-.3.22-.56.22a.82.82 0 01-.58-.24.74.74 0 01-.25-.54c0-.12.02-.24.06-.37l.19-.52 2.2-5.58.22-.57c.09-.23.18-.41.28-.56.1-.15.23-.27.4-.36.16-.1.36-.14.6-.14s.44.05.6.14c.17.09.3.2.4.35.1.15.18.3.25.47l.26.66 2.24 5.55c.18.42.27.72.27.92 0 .2-.09.38-.25.54a.82.82 0 01-.6.25.72.72 0 01-.6-.27 1.81 1.81 0 01-.21-.39l-.2-.46zm-3.44-2.38h2.57l-1.3-3.55-1.27 3.55z"/>
    <path fill="#fff" fill-rule="nonzero" stroke="#95d400" d="M10.96 12.25a9.9 9.9 0 1019.82 0 9.9 9.9 0 00-19.82 0"/>
    <path fill="#fff" fill-rule="nonzero" stroke="#95d400" stroke-linecap="round" d="M28.34 44.39V34.35L38 40.83l8.43-9.4a4.13 4.13 0 00-6.1-5.53l-3.56 4.47s-6.52-5.03-8.59-6.59a12.42 12.42 0 00-8.35-2.8h-2.5a9.2 9.2 0 00-9.17 9.16V44.4"/>
  </g>
  <g id="a13">
    <path fill="#fff" stroke="#95d400" stroke-linecap="round" stroke-linejoin="round" stroke-miterlimit="1.5" d="M58.6 18.49c0-1.04-.83-1.88-1.87-1.88H42.27c-1.04 0-1.88.84-1.88 1.88v8.8c0 1.05.84 1.89 1.88 1.89h14.46c1.04 0 1.88-.84 1.88-1.88v-8.81z"/>
    <path fill="#95d400" fill-rule="nonzero" d="M51.6 26.27l-.4-1.07h-3.5l-.4 1.1c-.16.43-.3.72-.41.87-.12.15-.3.22-.56.22a.82.82 0 01-.58-.24.74.74 0 01-.25-.54c0-.12.02-.24.06-.37l.19-.52 2.2-5.58.22-.57c.09-.23.18-.41.28-.56.1-.15.23-.27.4-.36.16-.1.36-.14.6-.14s.44.05.6.14c.17.09.3.2.4.35.1.15.18.3.25.47l.26.66 2.24 5.55c.18.42.27.72.27.92 0 .2-.09.38-.25.54a.82.82 0 01-.6.25.72.72 0 01-.6-.27 1.81 1.81 0 01-.21-.39l-.2-.46zm-3.44-2.38h2.57l-1.3-3.55-1.27 3.55z"/>
    <path fill="#fff" fill-rule="nonzero" stroke="#95d400" d="M10.96 12.25a9.9 9.9 0 1019.82 0 9.9 9.9 0 00-19.82 0"/>
    <path fill="#fff" fill-rule="nonzero" stroke="#95d400" stroke-linecap="round" d="M28.34 44.39v-8.5l6.8 5.93 10.61-7.44c1.58-1.09 2.1-4.05.56-5.73-1.38-1.48-3.6-1.9-5.8-.2l-4.53 3.22s-5.73-6.34-7.8-7.89a12.42 12.42 0 00-8.35-2.8h-2.5a9.2 9.2 0 00-9.17 9.16V44.4"/>
  </g>
<style>
/* <![CDATA[ */

#a1 {animation-name: a1}
#a2 {animation-name: a2}
#a3 {animation-name: a3}
#a4 {animation-name: a4}
#a5 {animation-name: a5}
#a6 {animation-name: a6}
#a7 {animation-name: a7}
#a8 {animation-name: a8}
#a9 {animation-name: a9}
#a10 {animation-name: a10}
#a11 {animation-name: a11}
#a12 {animation-name: a12}
#a13 {animation-name: a13}

@keyframes a1 {0.00%{visibility: visible} 2.50%{visibility: hidden}}
@keyframes a2 {2.50%{visibility: visible} 5.00%{visibility: hidden}}
@keyframes a3 {5.00%{visibility: visible} 7.50%{visibility: hidden}}
@keyframes a4 {7.50%{visibility: visible} 10.00%{visibility: hidden}}
@keyframes a5 {10.00%{visibility: visible} 12.50%{visibility: hidden}}
@keyframes a6 {12.50%{visibility: visible} 15.00%{visibility: hidden}}
@keyframes a7 {15.00%{visibility: visible} 17.50%{visibility: hidden}}
@keyframes a8 {17.50%{visibility: visible} 20.00%{visibility: hidden}}
@keyframes a9 {20.00%{visibility: visible} 22.50%{visibility: hidden}}
@keyframes a10 {22.50%{visibility: visible} 25.00%{visibility: hidden}}
@keyframes a11 {25.00%{visibility: visible} 27.50%{visibility: hidden}}
@keyframes a12 {27.50%{visibility: visible} 30.00%{visibility: hidden}}
@keyframes a13 {30.00%{visibility: visible} 100%{visibility: hidden}}

/* ]]> */
</style>
</svg>
