<svg xmlns="http://www.w3.org/2000/svg" xmlns:xlink="http://www.w3.org/1999/xlink" stroke-linecap="round" stroke-linejoin="round" stroke="#95D400" stroke-miterlimit="10" stroke-width="1" viewBox="0 0 85 53">
<style>
/* <![CDATA[ */

#a1, #a2, #a3, #a4, #a5, #a6, #a7, #a8, #a9, #a10, #a11, #a12, #a13, #a14, #a15, #a16 {
visibility: hidden;
animation-duration: 3s;
animation-iteration-count: infinite;
animation-timing-function: steps(1);
}

/* ]]> */
</style>
<defs>
  <g id="h1">
    <path fill="#F7FFE2" d="M30.8 16.397l-6.562 14.54a2.26 2.26 0 01-2.988 1.13l-4.121-1.86a2.26 2.26 0 01-1.13-2.988l6.562-14.54a2.26 2.26 0 012.988-1.13l4.121 1.86a2.26 2.26 0 011.13 2.988z"/>
    <path fill="#F7FFE2" d="M54.2 16.397l6.562 14.54a2.26 2.26 0 002.988 1.13l4.121-1.86a2.26 2.26 0 001.13-2.988l-6.562-14.54a2.26 2.26 0 00-2.988-1.13l-4.121 1.86a2.26 2.26 0 00-1.13 2.988z"/>
    <path fill="#FFF" d="M58.845 27.941a2.775 2.775 0 11-2.918 4.722l-.799-.494a2.777 2.777 0 01-3.718 3.973l-.2-.124c.054.58-.063 1.18-.393 1.713a2.775 2.775 0 01-3.82.902l-.315-.195a2.75 2.75 0 01-.398 1.673 2.775 2.775 0 01-3.82.902l-1.653-1.021-14.392-7.912-2.181-1.143 6.326-14.018 11.228-.187 17.053 11.209z"/>
    <line x1="48.061" x2="55.125" y1="27.391" y2="32.167" fill="none"/>
    <line x1="44.984" x2="51.209" y1="31.813" y2="36.021" fill="none"/>
    <line x1="42.153" x2="46.685" y1="35.379" y2="38.443" fill="none"/>
    <path fill="#FFF" d="M27.154 34.976l-.219-.14a1.917 1.917 0 01-.586-2.646l1.241-1.946a1.917 1.917 0 012.646-.586l.219.14a1.917 1.917 0 01.586 2.646L29.8 34.391a1.917 1.917 0 01-2.646.585z"/>
    <path fill="#FFF" d="M37.799 41.099l-.219-.14a1.917 1.917 0 01-.586-2.646l1.241-1.946a1.916 1.916 0 012.646-.585l.219.14a1.916 1.916 0 01.585 2.646l-1.241 1.946a1.915 1.915 0 01-2.645.585z"/>
    <path fill="#FFF" d="M30.474 37.371l-.219-.14a1.917 1.917 0 01-.586-2.646l2.189-3.433a1.917 1.917 0 012.646-.586l.219.14a1.916 1.916 0 01.585 2.646l-2.189 3.433a1.915 1.915 0 01-2.645.586z"/>
    <path fill="#FFF" d="M34.035 39.392l-.219-.14a1.917 1.917 0 01-.586-2.646l2.189-3.433a1.916 1.916 0 012.646-.585l.219.14a1.917 1.917 0 01.586 2.646l-2.189 3.433a1.916 1.916 0 01-2.646.585z"/>
    <path fill="#FFF" d="M46.984 20.146l-7.617 4.397a2.775 2.775 0 01-3.791-1.016h0a2.775 2.775 0 011.016-3.791l5.2-3.002 12.638.172 5.81 12.874-13.256-9.634z"/>
  </g>
  <g id="h2">
    <path fill="#F7FFE2" d="M31.072 16.792L23.76 30.969a2.258 2.258 0 01-3.043.972l-4.018-2.073a2.258 2.258 0 01-.972-3.043l7.313-14.177a2.258 2.258 0 013.043-.972l4.018 2.073a2.259 2.259 0 01.971 3.043z"/>
    <path fill="#F7FFE2" d="M53.928 16.792l7.313 14.177a2.258 2.258 0 003.043.972l4.018-2.073a2.258 2.258 0 00.972-3.043l-7.313-14.177a2.258 2.258 0 00-3.043-.972L54.9 13.748a2.26 2.26 0 00-.972 3.044z"/>
    <path fill="#FFF" d="M58.845 28.441a2.775 2.775 0 11-2.918 4.722l-.799-.494a2.777 2.777 0 01-3.718 3.973l-.2-.124c.054.58-.063 1.18-.393 1.713a2.775 2.775 0 01-3.82.902l-.315-.195a2.75 2.75 0 01-.398 1.673 2.775 2.775 0 01-3.82.902l-1.653-1.021-14.393-7.914-2.394-2.126 6.82-13.221 10.948-.001 17.053 11.211z"/>
    <line x1="48.061" x2="55.125" y1="27.892" y2="32.667" fill="none"/>
    <line x1="44.984" x2="51.209" y1="32.313" y2="36.521" fill="none"/>
    <line x1="42.153" x2="46.685" y1="35.879" y2="38.943" fill="none"/>
    <path fill="#FFF" d="M27.154 35.477l-.219-.14a1.917 1.917 0 01-.586-2.646l1.241-1.946a1.917 1.917 0 012.646-.586l.219.14a1.917 1.917 0 01.586 2.646L29.8 34.891a1.916 1.916 0 01-2.646.586z"/>
    <path fill="#FFF" d="M37.799 41.6l-.219-.14a1.917 1.917 0 01-.586-2.646l1.241-1.946a1.917 1.917 0 012.646-.586l.219.14a1.916 1.916 0 01.585 2.646l-1.241 1.946a1.915 1.915 0 01-2.645.586z"/>
    <path fill="#FFF" d="M30.474 37.872l-.219-.14a1.917 1.917 0 01-.586-2.646l2.189-3.433a1.917 1.917 0 012.646-.586l.219.14a1.916 1.916 0 01.585 2.646l-2.189 3.433a1.915 1.915 0 01-2.645.586z"/>
    <path fill="#FFF" d="M34.035 39.893l-.219-.14a1.917 1.917 0 01-.586-2.646l2.189-3.433a1.916 1.916 0 012.646-.585l.219.14a1.917 1.917 0 01.586 2.646l-2.189 3.433a1.917 1.917 0 01-2.646.585z"/>
    <path fill="#FFF" d="M46.984 20.646l-7.617 4.397a2.775 2.775 0 01-3.791-1.016h0a2.775 2.775 0 011.016-3.791l5.2-3.002h12.364l6.341 12.293-13.513-8.881z"/>
  </g>
  <g id="h3">
    <path fill="#F7FFE2" d="M31.481 17.48l-8.522 13.485a2.259 2.259 0 01-3.116.703l-3.822-2.415a2.259 2.259 0 01-.703-3.116l8.522-13.485a2.259 2.259 0 013.116-.703l3.822 2.415a2.259 2.259 0 01.703 3.116z"/>
    <path fill="#F7FFE2" d="M53.519 17.48l8.522 13.485a2.259 2.259 0 003.116.703l3.822-2.415a2.259 2.259 0 00.703-3.116L61.16 12.652a2.259 2.259 0 00-3.116-.703l-3.822 2.415a2.259 2.259 0 00-.703 3.116z"/>
    <path fill="#FFF" d="M58.845 29.441a2.775 2.775 0 11-2.918 4.722l-.799-.494a2.777 2.777 0 01-3.718 3.973l-.2-.124c.054.58-.063 1.18-.393 1.713a2.775 2.775 0 01-3.82.902l-.315-.195a2.75 2.75 0 01-.398 1.673 2.775 2.775 0 01-3.82.902l-1.653-1.021-14.393-7.914-3.46-2.615 8.349-13.212 10.484.48 17.054 11.21z"/>
    <line x1="48.061" x2="55.125" y1="28.892" y2="33.667" fill="none"/>
    <line x1="44.984" x2="51.209" y1="33.313" y2="37.521" fill="none"/>
    <line x1="42.153" x2="46.685" y1="36.879" y2="39.943" fill="none"/>
    <path fill="#FFF" d="M27.154 36.477l-.219-.14a1.917 1.917 0 01-.586-2.646l1.241-1.946a1.917 1.917 0 012.646-.586l.219.14a1.917 1.917 0 01.586 2.646L29.8 35.891a1.916 1.916 0 01-2.646.586z"/>
    <path fill="#FFF" d="M37.799 42.6l-.219-.14a1.917 1.917 0 01-.586-2.646l1.241-1.946a1.917 1.917 0 012.646-.586l.219.14a1.916 1.916 0 01.585 2.646l-1.241 1.946a1.915 1.915 0 01-2.645.586z"/>
    <path fill="#FFF" d="M30.474 38.872l-.219-.14a1.917 1.917 0 01-.586-2.646l2.189-3.433a1.916 1.916 0 012.646-.585l.219.14a1.916 1.916 0 01.585 2.646l-2.189 3.433a1.916 1.916 0 01-2.645.585z"/>
    <path fill="#FFF" d="M34.035 40.893l-.219-.14a1.917 1.917 0 01-.586-2.646l2.189-3.433a1.916 1.916 0 012.646-.585l.219.14a1.917 1.917 0 01.586 2.646l-2.189 3.433a1.917 1.917 0 01-2.646.585z"/>
    <path fill="#FFF" d="M46.984 21.646l-7.617 4.397a2.775 2.775 0 01-3.791-1.016h0a2.775 2.775 0 011.016-3.791l5.2-3.002 11.901-.48 8.349 13.212-1.902 1.197s.108-.685-.181-1.403a3.03 3.03 0 00-.857-1.15l-12.118-7.964z"/>
  </g>
  <g id="h4">
    <path fill="#F7FFE2" d="M31.827 18.201l-9.665 12.691a2.26 2.26 0 01-3.166.429l-3.596-2.74a2.26 2.26 0 01-.429-3.166l9.665-12.691a2.26 2.26 0 013.166-.429l3.597 2.739a2.26 2.26 0 01.428 3.167z"/>
    <path fill="#F7FFE2" d="M53.173 18.201l9.665 12.691a2.26 2.26 0 003.166.429l3.597-2.739a2.26 2.26 0 00.429-3.166l-9.665-12.691a2.26 2.26 0 00-3.166-.429l-3.597 2.739a2.259 2.259 0 00-.429 3.166z"/>
    <path fill="#FFF" d="M58.845 30.441a2.775 2.775 0 11-2.918 4.722l-.799-.494a2.777 2.777 0 01-3.718 3.973l-.2-.124c.054.58-.063 1.18-.393 1.713a2.775 2.775 0 01-3.82.902l-.315-.195a2.75 2.75 0 01-.398 1.673 2.775 2.775 0 01-3.82.902l-1.653-1.021-14.393-7.914-4.256-3.689 9.459-12.422 10.17.763 17.054 11.211z"/>
    <line x1="48.061" x2="55.125" y1="29.892" y2="34.667" fill="none"/>
    <line x1="44.984" x2="51.209" y1="34.313" y2="38.521" fill="none"/>
    <line x1="42.153" x2="46.685" y1="37.879" y2="40.943" fill="none"/>
    <path fill="#FFF" d="M27.154 37.477l-.219-.14a1.917 1.917 0 01-.586-2.646l1.241-1.946a1.916 1.916 0 012.646-.585l.219.14a1.917 1.917 0 01.586 2.646L29.8 36.891a1.916 1.916 0 01-2.646.586z"/>
    <path fill="#FFF" d="M37.799 43.6l-.219-.14a1.917 1.917 0 01-.586-2.646l1.241-1.946a1.917 1.917 0 012.646-.586l.219.14a1.916 1.916 0 01.585 2.646l-1.241 1.946a1.915 1.915 0 01-2.645.586z"/>
    <path fill="#FFF" d="M30.474 39.872l-.219-.14a1.917 1.917 0 01-.586-2.646l2.189-3.433a1.916 1.916 0 012.646-.585l.219.14a1.916 1.916 0 01.585 2.646l-2.189 3.433a1.916 1.916 0 01-2.645.585z"/>
    <path fill="#FFF" d="M34.035 41.893l-.219-.14a1.917 1.917 0 01-.586-2.646l2.189-3.433a1.916 1.916 0 012.646-.585l.219.14a1.917 1.917 0 01.586 2.646l-2.189 3.433a1.917 1.917 0 01-2.646.585z"/>
    <path fill="#FFF" d="M46.984 22.646l-7.617 4.397a2.775 2.775 0 01-3.791-1.016h0a2.775 2.775 0 011.016-3.791l5.2-3.002 11.587-.763 9.459 12.422-2.698 2.271s.108-.685-.181-1.403a3.03 3.03 0 00-.857-1.15l-12.118-7.965z"/>
  </g>
  <g id="h5">
    <path fill="#F7FFE2" d="M32.005 18.647L21.689 30.815a2.259 2.259 0 01-3.184.262l-3.449-2.924a2.259 2.259 0 01-.262-3.184L25.11 12.802a2.259 2.259 0 013.184-.262l3.449 2.924a2.26 2.26 0 01.262 3.183z"/>
    <path fill="#F7FFE2" d="M52.995 18.647l10.316 12.168a2.259 2.259 0 003.184.262l3.449-2.924a2.259 2.259 0 00.262-3.184L59.89 12.802a2.259 2.259 0 00-3.184-.262l-3.449 2.924a2.26 2.26 0 00-.262 3.183z"/>
    <path fill="#FFF" d="M58.845 30.941a2.775 2.775 0 11-2.918 4.722l-.799-.494a2.777 2.777 0 01-3.718 3.973l-.2-.124c.054.58-.063 1.18-.393 1.713a2.775 2.775 0 01-3.82.902l-.315-.195a2.75 2.75 0 01-.398 1.673 2.775 2.775 0 01-3.82.902l-1.653-1.021-14.393-7.914-4.73-4.266 10.316-12.168 9.787 1.087 17.054 11.21z"/>
    <line x1="48.061" x2="55.125" y1="30.392" y2="35.167" fill="none"/>
    <line x1="44.984" x2="51.209" y1="34.813" y2="39.021" fill="none"/>
    <line x1="42.153" x2="46.685" y1="38.379" y2="41.443" fill="none"/>
    <path fill="#FFF" d="M27.154 37.976l-.219-.14a1.917 1.917 0 01-.586-2.646l1.241-1.946a1.917 1.917 0 012.646-.586l.219.14a1.917 1.917 0 01.586 2.646L29.8 37.391a1.916 1.916 0 01-2.646.585z"/>
    <path fill="#FFF" d="M37.799 44.1l-.219-.14a1.917 1.917 0 01-.586-2.646l1.241-1.946a1.916 1.916 0 012.646-.585l.219.14a1.916 1.916 0 01.585 2.646l-1.241 1.946a1.916 1.916 0 01-2.645.585z"/>
    <path fill="#FFF" d="M30.474 40.371l-.219-.14a1.917 1.917 0 01-.586-2.646l2.189-3.433a1.917 1.917 0 012.646-.586l.219.14a1.916 1.916 0 01.585 2.646l-2.189 3.433a1.915 1.915 0 01-2.645.586z"/>
    <path fill="#FFF" d="M34.035 42.392l-.219-.14a1.917 1.917 0 01-.586-2.646l2.189-3.433a1.917 1.917 0 012.646-.586l.219.14a1.917 1.917 0 01.586 2.646l-2.189 3.433a1.915 1.915 0 01-2.646.586z"/>
    <path fill="#FFF" d="M46.984 23.146l-7.617 4.397a2.775 2.775 0 01-3.791-1.016h0a2.775 2.775 0 011.016-3.791l5.2-3.002 11.204-1.087 10.316 12.168-3.172 2.848s.108-.685-.181-1.403a3.03 3.03 0 00-.857-1.15l-12.118-7.964z"/>
  </g>
</defs>
<use id="a1" xlink:href="#h2"/>
<use id="a2" xlink:href="#h3"/>
<use id="a3" xlink:href="#h4"/>
<use id="a4" xlink:href="#h5"/>
<use id="a5" xlink:href="#h4"/>
<use id="a6" xlink:href="#h3"/>
<use id="a7" xlink:href="#h2"/>
<use id="a8" xlink:href="#h1"/>
<use id="a9" xlink:href="#h2"/>
<use id="a10" xlink:href="#h3"/>
<use id="a11" xlink:href="#h4"/>
<use id="a12" xlink:href="#h5"/>
<use id="a13" xlink:href="#h4"/>
<use id="a14" xlink:href="#h3"/>
<use id="a15" xlink:href="#h2"/>
<use id="a16" xlink:href="#h2"/>

<style>
/* <![CDATA[ */

#a1 {animation-name: a1}
#a2 {animation-name: a2}
#a3 {animation-name: a3}
#a4 {animation-name: a4}
#a5 {animation-name: a5}
#a6 {animation-name: a6}
#a7 {animation-name: a7}
#a8 {animation-name: a8}
#a9 {animation-name: a9}
#a10 {animation-name: a10}
#a11 {animation-name: a11}
#a12 {animation-name: a12}
#a13 {animation-name: a13}
#a14 {animation-name: a14}
#a15 {animation-name: a15}
#a16 {animation-name: a16}

@keyframes a1 {0.00%{visibility: visible} 2.08%{visibility: hidden}}
@keyframes a2 {2.08%{visibility: visible} 4.17%{visibility: hidden}}
@keyframes a3 {4.17%{visibility: visible} 6.25%{visibility: hidden}}
@keyframes a4 {6.25%{visibility: visible} 8.33%{visibility: hidden}}
@keyframes a5 {8.33%{visibility: visible} 10.42%{visibility: hidden}}
@keyframes a6 {10.42%{visibility: visible} 12.50%{visibility: hidden}}
@keyframes a7 {12.50%{visibility: visible} 14.58%{visibility: hidden}}
@keyframes a8 {14.58%{visibility: visible} 16.67%{visibility: hidden}}
@keyframes a9 {16.67%{visibility: visible} 18.75%{visibility: hidden}}
@keyframes a10 {18.75%{visibility: visible} 20.83%{visibility: hidden}}
@keyframes a11 {20.83%{visibility: visible} 22.92%{visibility: hidden}}
@keyframes a12 {22.92%{visibility: visible} 25.00%{visibility: hidden}}
@keyframes a13 {25.00%{visibility: visible} 27.08%{visibility: hidden}}
@keyframes a14 {27.08%{visibility: visible} 29.17%{visibility: hidden}}
@keyframes a15 {29.17%{visibility: visible} 31.25%{visibility: hidden}}
@keyframes a16 {31.25%{visibility: visible} 100%{visibility: hidden}}

/* ]]> */
</style>
</svg>
