<svg xmlns="http://www.w3.org/2000/svg" xmlns:xlink="http://www.w3.org/1999/xlink" stroke-linecap="round" stroke-linejoin="round" viewBox="0 0 85 53">
<style>
/* <![CDATA[ */

#a1, #a2, #a3, #a4, #a5, #a6, #a7, #a8, #a9, #a10, #a11, #a12, #a13, #a14, #a15, #a16, #a17, #a18, #a19, #a20, #a21 {
visibility: hidden;
animation-duration: 6s;
animation-iteration-count: infinite;
animation-timing-function: steps(1);
}

#b1, #b2, #b3, #b4, #b5, #b6, #b7, #b8, #b9, #b10, #b11, #b12, #b13, #b14, #b15, #b16, #b17, #b18, #b19, #b20, #b21, #b22, #b23, #b24, #b25, #b26, #b27, #b28, #b29, #b30, #b31, #b32, #b33, #b34, #b35, #b36, #b37, #b38, #b39, #b40, #b41, #b42, #b43, #b44, #b45, #b46, #b47, #b48, #b49, #b50, #b51, #b52, #b53, #b54, #b55, #b56, #b57, #b58, #b59, #b60, #b61 {
visibility: hidden;
animation-duration: 9s;
animation-iteration-count: infinite;
animation-timing-function: steps(1);
}

/* ]]> */
</style>
<defs>
<path id="bbl" fill="#95d400" d="M33.977 25.971h-2.316l1.96 6.416-7.237-6.416H5.034C2.265 25.971 0 23.706 0 20.937V5.034C0 2.265 2.265 0 5.034 0h28.943c2.769 0 5.034 2.265 5.034 5.034v15.903c0 2.769-2.266 5.034-5.034 5.034z"/>
<path id="l_t" fill="#fff" fill-rule="nonzero" d="M12.463 22.349c0-.126.047-.216.141-.271a.7686.7686 0 01.296-.099c.017 0 .047-.001.09-.004s.09-.006.141-.009c.052-.003.099-.005.142-.008.043-.003.073-.005.09-.005l.026-.017c0-.526.003-1.034.008-1.526v-.643c0-.223.001-.439.004-.651.003-.212.004-.412.004-.6v-.582h-1.114v.874c0 .085-.04.157-.12.214-.08.057-.16.085-.24.085a.4736.4736 0 01-.103-.013.5247.5247 0 01-.12-.043.3268.3268 0 01-.099-.073.1533.1533 0 01-.039-.103V17.55c0-.125.042-.227.125-.304a.419.419 0 01.295-.116c.052 0 .106.001.163.004.057.003.108.019.154.047H13.5c.011-.006.039-.012.082-.018.042-.005.07-.008.081-.008.018 0 .064-.001.142-.004.078-.003.16-.005.249-.008.088-.003.171-.006.249-.009.078-.003.124-.004.141-.004.154-.011.304-.025.45-.043.146-.017.295-.025.45-.025h.223c.091.029.167.076.227.141.06.066.102.142.125.227 0 .04.001.109.004.206.002.097.004.203.004.317 0 .108.001.211.004.309s.004.166.004.206v.137c0 .091-.033.171-.099.24a.327.327 0 01-.244.103c-.108 0-.203-.042-.283-.125-.08-.083-.12-.178-.12-.287v-.711h-.103c-.035 0-.099.003-.193.008-.094.006-.194.013-.3.021-.105.009-.206.016-.3.021a2.293 2.293 0 00-.193.017v.043c0 .08.003.157.009.231.005.074.011.151.017.231v.412c0 .183.001.391.004.625.003.234.004.48.004.737 0 .251.001.494.004.729s.004.445.004.634v.403h.026c.045 0 .09-.005.133-.014a.7226.7226 0 01.133-.013c.103 0 .188.033.257.099.069.065.103.15.103.253 0 .08-.023.157-.069.231-.045.074-.108.117-.188.129l-.411.068h-1.268c-.097 0-.188-.033-.27-.099-.084-.063-.125-.145-.125-.242z"/>
<path id="l_h" fill="#fff" fill-rule="nonzero" d="M16.113 22.297c0-.086.021-.151.064-.197a.451.451 0 01.154-.106c.06-.026.125-.045.197-.056.071-.012.138-.021.201-.026.006 0 .011-.014.017-.043.006-.028.011-.06.017-.094.006-.034.01-.066.013-.094.002-.029.004-.047.004-.053l.18-3.718v-.111c0-.017-.009-.031-.026-.043-.068 0-.14-.001-.214-.004a.6538.6538 0 01-.209-.043c-.066-.026-.119-.063-.159-.111-.04-.049-.06-.119-.06-.21 0-.148.051-.244.154-.287.103-.043.214-.07.334-.082.023 0 .076-.004.159-.013s.174-.017.274-.026c.1-.008.192-.016.278-.021.085-.005.14-.008.163-.008h.454c.097.011.176.05.236.116.06.065.09.147.09.244s-.025.17-.077.218c-.051.049-.113.084-.184.107a.8458.8458 0 01-.231.039 3.727 3.727 0 00-.218.013l-.129 1.782.171.026h.069c.045 0 .093.001.141.004.049.003.096.004.142.004h.283c.069 0 .137-.001.206-.004.069-.003.128-.004.18-.004h.103c.017 0 .056-.003.116-.009.06-.005.125-.01.193-.013.068-.003.134-.007.197-.013.062-.006.103-.009.12-.009.012 0 .027.001.047.004s.033-.007.039-.03c0-.022.003-.067.008-.133.006-.065.012-.135.018-.21.005-.074.011-.143.017-.206.005-.062.008-.108.008-.137v-.136c0-.023-.003-.067-.008-.133-.006-.066-.012-.133-.017-.202-.006-.068-.012-.134-.018-.197a2.0136 2.0136 0 01-.008-.137 3.6709 3.6709 0 01-.223-.026.8818.8818 0 01-.223-.06.4566.4566 0 01-.171-.12c-.045-.052-.068-.123-.068-.214 0-.103.036-.188.107-.257.071-.068.156-.103.253-.103.057 0 .111.004.163.013.052.009.106.013.163.013.097 0 .196-.004.295-.013.1-.008.202-.013.304-.013h.249c.188.046.283.166.283.36 0 .097-.017.168-.051.214-.034.045-.073.077-.116.094a.8372.8372 0 01-.124.039c-.04.008-.066.024-.077.047v.128c0 .109.003.214.008.317.006.103.009.208.009.317v.231c0 .057-.006.14-.017.249v2.699h.368c.04 0 .074.015.103.043.028.028.053.062.073.103.02.041.034.081.043.124.008.043.013.079.013.107 0 .08-.029.157-.085.231-.057.074-.132.111-.223.111h-.985c-.12 0-.238-.037-.355-.111-.117-.074-.176-.177-.176-.309 0-.137.049-.229.146-.278.097-.049.203-.073.317-.073v-1.594l-.017-.017c-.023 0-.063.003-.12.009-.057.006-.119.011-.184.017-.066.006-.126.01-.18.013-.054.003-.093.004-.116.004-.051 0-.143.001-.274.004-.131.003-.271.004-.42.004-.143 0-.28-.001-.411-.004-.132-.003-.223-.004-.274-.004l-.026.026c-.005.091-.011.183-.017.274-.006.08-.011.16-.017.24-.006.08-.008.146-.008.197-.006.114-.012.244-.017.39a9.78 9.78 0 00-.009.398v.035c.068 0 .137.004.206.012.069.01.128.026.18.052.051.026.093.063.124.111.031.049.047.116.047.201 0 .092-.017.162-.052.21a.2909.2909 0 01-.137.107.7386.7386 0 01-.185.047 2.577 2.577 0 01-.201.021c-.034 0-.093.006-.176.018-.083.012-.171.022-.266.034-.095.012-.181.022-.261.034-.08.012-.137.021-.171.025a1.9093 1.9093 0 01-.176-.025.5605.5605 0 01-.163-.056.3253.3253 0 01-.12-.107c-.035-.042-.051-.102-.051-.177z"/>
<path id="l_a" fill="#fff" fill-rule="nonzero" d="M21.134 22.597c0-.074.016-.134.047-.18a.355.355 0 01.12-.111.5294.5294 0 01.163-.061c.06-.011.119-.02.176-.025l.008-.009h.009c0-.005.003-.008.009-.008.068-.132.123-.263.163-.395.04-.132.083-.269.128-.411.114-.326.233-.666.355-1.02.123-.354.25-.688.381-1.002.091-.211.188-.417.292-.617.103-.2.211-.4.326-.6.017-.028.042-.073.073-.133.031-.06.047-.093.047-.099v-.034h-1.054c-.097 0-.168-.044-.214-.133-.045-.088-.068-.17-.068-.244 0-.063.023-.137.068-.223.046-.086.108-.129.188-.129h1.174c.005-.005.022-.013.051-.021.028-.009.048-.013.06-.013.017 0 .051-.003.103-.008.052-.006.104-.012.159-.017.054-.006.107-.012.159-.018.051-.005.088-.008.111-.008h.36c.085.029.154.073.206.133.052.06.077.133.077.218 0 .046-.009.087-.026.125a.2988.2988 0 00-.025.124v.026c.045.068.081.137.107.206.026.069.048.139.068.21.02.072.039.143.056.214.018.071.04.144.069.218.062.149.124.297.184.446.06.149.122.297.184.445.006.012.024.05.056.116.031.066.05.104.056.116.005.012.014.03.025.056.012.026.02.044.026.056.023.052.067.146.133.283.065.137.136.28.21.428.074.148.143.292.206.428.063.137.108.231.137.283.005.017.02.054.043.111.022.057.047.117.073.18.025.063.05.123.073.181.023.057.037.091.043.102.011.023.024.053.039.086.014.034.024.052.03.052l.686.068c.091.012.161.055.21.129.048.074.073.151.073.231 0 .08-.023.152-.068.219-.046.065-.109.112-.188.141h-.201c-.131 0-.261-.004-.39-.013a5.6029 5.6029 0 00-.39-.013h-.377c-.046.012-.109.03-.188.056-.08.025-.149.038-.206.038-.103 0-.186-.036-.249-.111a.383.383 0 01-.094-.257c0-.08.016-.144.047-.192a.3489.3489 0 01.125-.116.7723.7723 0 01.171-.068c.062-.017.125-.037.188-.06 0-.006.002-.009.008-.009s.012-.003.017-.009c.006-.006.012-.009.017-.009 0-.005-.003-.014-.008-.025-.012-.022-.017-.037-.017-.043-.012-.028-.027-.068-.047-.12-.02-.051-.039-.1-.056-.146a1.7473 1.7473 0 00-.051-.124c-.017-.037-.026-.059-.026-.064-.011-.022-.03-.06-.056-.111-.025-.051-.053-.107-.082-.167-.028-.06-.056-.116-.081-.167-.026-.052-.044-.089-.056-.111-.006 0-.017-.003-.034-.009-.018-.006-.029-.009-.035-.009a1.4286 1.4286 0 00-.098-.017c-.043-.005-.087-.011-.133-.017-.045-.005-.085-.01-.12-.013a1.0376 1.0376 0 00-.06-.004h-1.174c-.114 0-.229.013-.343.039-.114.026-.229.044-.343.056-.017.017-.026.032-.026.043-.074.194-.147.389-.218.582-.072.195-.136.392-.193.592-.006.006-.007.013-.004.021.003.008.004.016.004.021h.017c.017 0 .045-.003.085-.009.04-.006.082-.01.125-.013.043-.003.084-.007.124-.013.04-.006.069-.009.086-.009.097.012.183.05.257.116.074.065.111.149.111.252 0 .114-.031.199-.094.253-.062.055-.14.093-.231.116-.092.022-.188.034-.292.034-.097 0-.183.003-.257.009-.017 0-.057.004-.12.013-.063.008-.131.017-.206.025-.075.009-.142.016-.202.021-.06.005-.099.009-.116.009h-.42c-.08-.023-.141-.068-.184-.138a.4408.4408 0 01-.061-.222zm2.94-4.426c-.023.055-.037.09-.043.107-.012.011-.029.048-.051.111-.023.063-.038.1-.043.111l-.043.086c-.023.045-.047.094-.073.146l-.116.232c-.006.005-.014.027-.025.064-.012.038-.018.062-.018.073-.005.012-.02.039-.042.082-.023.043-.047.089-.073.137l-.073.137c-.023.043-.037.07-.042.081-.018.035-.038.08-.06.137-.023.057-.044.114-.064.171-.02.057-.039.106-.056.146-.017.04-.026.062-.026.068v.051c.046-.011.104-.022.176-.034.071-.011.127-.017.167-.017h1.328l-.522-1.234a1.4304 1.4304 0 01-.107-.364 1.8986 1.8986 0 00-.099-.373h-.017c-.03.001-.056.028-.078.082z"/>
<path id="l_n" fill="#fff" fill-rule="nonzero" d="M28.032 22.254c0-.051.021-.118.064-.201.043-.083.099-.124.167-.124h.351c.011 0 .017-.015.017-.043v-.112l-.214-2.322v-1.508c0-.011-.004-.037-.013-.077a.9436.9436 0 00-.021-.085c0-.017-.008-.026-.025-.026-.069 0-.14-.004-.214-.013a.818.818 0 01-.206-.051.4305.4305 0 01-.159-.111c-.043-.049-.064-.119-.064-.21 0-.08.016-.143.047-.188.031-.046.076-.091.133-.137.046-.034.107-.047.184-.039s.139.007.185-.004c.131-.028.25-.06.355-.094.105-.034.221-.051.347-.051.074 0 .138.019.192.056.055.037.103.084.146.141.043.057.08.117.111.18.031.063.062.123.09.18l.874 1.286 1.123 1.997.026.025c-.012-.445-.004-.89.021-1.333.025-.442.073-.887.141-1.332v-.412c-.063 0-.122.004-.176.013-.054.009-.113.013-.175.013-.097 0-.194-.039-.292-.116-.098-.077-.146-.167-.146-.27 0-.068.02-.127.06-.176.04-.048.09-.087.15-.116.06-.028.123-.05.188-.064a.8804.8804 0 01.184-.021h1.054c.085 0 .15.042.192.124.043.083.064.156.064.219 0 .103-.02.18-.06.231-.04.051-.105.097-.197.137a.1936.1936 0 01-.047.013.0654.0654 0 00-.047.03c0 .017-.001.047-.004.09-.003.042-.006.09-.009.141-.003.051-.006.099-.008.142-.003.042-.004.073-.004.09-.006.051-.015.137-.026.257s-.024.249-.039.386-.028.267-.043.39c-.014.123-.024.207-.03.252v1.654c.011.069.019.126.021.171.003.046.004.1.004.163v.129c0 .022-.003.061-.009.115-.006.054-.01.111-.013.172-.003.06-.007.116-.013.171-.006.055-.009.093-.009.115-.029.092-.077.167-.146.228-.069.06-.151.09-.249.09-.069 0-.13-.019-.185-.056a.5946.5946 0 01-.141-.133c-.04-.052-.076-.107-.107-.167a1.6342 1.6342 0 00-.098-.167 8.2487 8.2487 0 00-.287-.458 2.2062 2.2062 0 01-.236-.468l-1.037-1.833-.617-.934v1.234l.214 2.382.06.025h.103c.074 0 .147-.004.219-.013.071-.009.144-.013.218-.013.097 0 .182.034.253.103.071.069.107.151.107.248 0 .08-.021.154-.064.224-.043.068-.107.117-.193.146-.017 0-.044.003-.082.009-.037.005-.079.011-.124.017-.046.006-.087.01-.125.013a1.242 1.242 0 01-.081.005c-.017 0-.063.001-.137.004-.074.003-.145.003-.225.006-.08.003-.157.006-.231.009-.074.003-.12.004-.137.004-.011 0-.053.007-.124.021-.071.014-.113.021-.124.021h-.137c-.12 0-.236-.031-.347-.095-.112-.061-.168-.161-.168-.299z"/>
<path id="l_k" fill="#fff" fill-rule="nonzero" d="M33.31 22.546c0-.108.027-.188.082-.236a.4465.4465 0 01.184-.099c.069-.017.13-.029.185-.038.054-.009.081-.027.081-.056 0-.183-.011-.361-.034-.536a4.076 4.076 0 01-.034-.535c0-.565.01-1.127.03-1.684.02-.557.03-1.115.03-1.675-.074 0-.145.003-.21.008-.066.006-.136.009-.21.009a.706.706 0 01-.3-.068c-.097-.046-.146-.131-.146-.257 0-.074.02-.137.06-.188.04-.051.089-.094.146-.128.057-.034.118-.06.184-.077a3.9 3.9 0 01.184-.043c.023-.005.053-.01.09-.013.037-.003.075-.007.115-.013.04-.006.076-.01.107-.013.031-.003.05-.004.056-.004h1.422c.08 0 .146.042.197.125.051.083.077.159.077.227 0 .034-.007.071-.021.111a.672.672 0 01-.06.12.42.42 0 01-.086.099.1677.1677 0 01-.107.039h-.737c0 .045-.003.121-.009.227-.006.105-.011.22-.017.343-.006.123-.01.238-.013.347-.003.109-.004.183-.004.223v.643c.297-.32.61-.619.938-.896.328-.277.644-.576.947-.896-.2-.068-.3-.211-.3-.428 0-.109.037-.188.111-.236.074-.048.16-.073.257-.073h.069c.005 0 .022.003.051.008.028.006.057.01.085.013.029.003.057.007.086.013.028.006.045.009.051.009.017 0 .063.004.137.013.074.008.154.016.24.021.086.005.166.013.24.021.074.008.12.013.137.013.097.011.18.048.249.111s.103.146.103.249c0 .148-.046.246-.137.292-.091.045-.2.074-.326.085-.011 0-.025.009-.042.026-.029.017-.069.046-.12.085-.051.04-.08.066-.086.077l-1.062.985c-.057.029-.125.067-.206.116-.08.049-.12.113-.12.193 0 .006.001.016.004.03.003.015.004.024.004.03.051.274.113.54.184.797s.147.52.227.788c.035.115.077.239.129.373.051.134.116.258.192.373.077.113.17.209.279.287.108.077.237.115.385.115.074 0 .143-.031.206-.095.062-.062.108-.116.137-.162.029-.034.044-.064.047-.091a.8892.8892 0 00.004-.098c0-.166-.026-.277-.077-.334a.495.495 0 00-.176-.128.984.984 0 01-.176-.099c-.051-.037-.077-.116-.077-.236 0-.097.035-.183.103-.257.068-.074.151-.111.249-.111.154 0 .288.037.403.111.114.074.208.17.283.287.075.117.13.246.167.386.037.14.056.278.056.416 0 .148-.033.291-.099.429-.065.137-.153.258-.261.363-.108.106-.23.192-.364.258-.134.066-.273.099-.416.099-.286 0-.551-.083-.797-.249-.246-.165-.443-.368-.591-.608-.051-.091-.103-.202-.154-.334a8.358 8.358 0 01-.12-.326 4.377 4.377 0 01-.06-.197c-.029-.097-.059-.198-.09-.304-.031-.105-.061-.207-.09-.304-.028-.097-.048-.166-.06-.206 0-.005-.004-.025-.013-.06a.895.895 0 01-.021-.103c-.005-.035-.013-.067-.021-.099-.008-.031-.013-.053-.013-.064 0-.011-.003-.024-.009-.039a.111.111 0 01-.008-.03h-.026c-.114.086-.227.187-.338.304-.111.117-.213.222-.304.313 0 .022-.003.06-.009.111-.005.051-.011.104-.017.158-.005.055-.01.107-.013.159-.003.052-.004.085-.004.103 0 .005-.001.016-.004.03a.1844.1844 0 00-.004.039v.043c0 .011.003.02.008.025 0 .035.003.087.009.159.005.071.01.145.013.219.003.074.007.142.013.201.006.06.009.099.009.116 0 .022.003.051.009.085.005.034.011.068.017.103.005.04.011.083.017.129l.025.025c.023-.005.069-.014.137-.025.069-.012.114-.02.137-.025h.034c.103 0 .188.037.257.111.068.074.103.16.103.257 0 .092-.021.163-.064.214a.4643.4643 0 01-.163.125.688.688 0 01-.218.06c-.08.009-.154.016-.223.021-.017 0-.054.001-.111.004s-.12.005-.188.005-.131.001-.188.004c-.057.003-.094.005-.111.005-.012 0-.039.004-.082.013-.042.008-.067.013-.073.013h-.034c-.137 0-.259-.023-.364-.068-.107-.049-.16-.148-.16-.303z"/>
<path id="l_y" fill="#fff" fill-rule="nonzero" d="M18.864 31.004c0-.069.016-.125.047-.167a.3564.3564 0 01.12-.104.697.697 0 01.163-.06c.06-.015.119-.024.176-.03 0-.017.001-.043.004-.077.002-.034.004-.071.004-.111v-.394c0-.039-.001-.074-.004-.103a.6475.6475 0 01-.004-.051c0-.006-.001-.023-.004-.052a.8379.8379 0 01-.004-.086c0-.028-.001-.057-.004-.086a.6143.6143 0 01-.004-.051v-.274c0-.028-.009-.052-.026-.068-.029-.052-.077-.145-.146-.278a23.713 23.713 0 00-.223-.425c-.08-.148-.154-.29-.223-.424-.068-.134-.117-.228-.146-.278-.006-.006-.016-.027-.03-.064-.015-.037-.03-.077-.047-.12s-.033-.081-.047-.115c-.015-.034-.024-.058-.03-.069-.103-.193-.208-.377-.317-.547-.109-.172-.203-.363-.283-.574h-.06a.453.453 0 00-.107.013.453.453 0 01-.107.013c-.103 0-.19-.037-.261-.111-.072-.074-.107-.159-.107-.257 0-.12.035-.207.103-.262.068-.054.151-.093.249-.115.098-.022.197-.036.3-.039.103-.002.191-.01.266-.021.114-.023.226-.045.334-.064.108-.021.22-.03.334-.03h.163c.074.022.134.068.18.137.045.069.068.144.068.224 0 .091-.02.159-.06.205-.04.046-.09.079-.15.099-.06.021-.124.036-.192.047-.069.012-.134.029-.197.052v.009c0 .046.019.104.056.176.037.071.079.146.124.223.046.077.093.149.142.218.048.069.087.125.116.171.12.211.226.429.317.651.091.222.208.434.352.634l.025-.017.591-1.217c.063-.131.153-.274.27-.428.117-.154.213-.288.287-.403 0-.005.005-.02.017-.042.011-.023.02-.037.026-.043l-.009-.018v-.009h-.103c-.029 0-.08-.002-.154-.008s-.123-.012-.146-.018c-.154-.057-.231-.171-.231-.343 0-.103.031-.187.094-.253.062-.065.146-.104.249-.115h.942c.074 0 .151.004.231.013.08.009.154.027.223.056s.125.07.171.124c.045.055.068.127.068.219 0 .074-.014.133-.042.176a.3064.3064 0 01-.107.099.5624.5624 0 01-.15.051c-.057.012-.111.021-.163.026-.012 0-.027.016-.047.047s-.042.065-.064.103c-.023.037-.043.074-.06.111-.017.037-.029.064-.034.082l-.6.89c0 .006-.024.059-.073.159-.049.1-.106.218-.171.355-.066.137-.134.277-.206.42-.072.143-.127.26-.167.351a.8878.8878 0 00-.056.138.6488.6488 0 01-.064.137c0 .006-.007.021-.021.043-.014.023-.029.047-.043.073-.014.025-.028.05-.042.072-.015.023-.024.037-.03.043a.064.064 0 01-.008.025.0713.0713 0 00-.009.026c-.006.012-.009.034-.009.068v.068c0 .194.006.396.018.604.011.208.022.404.034.587.068 0 .137.006.206.017.068.012.133.03.193.056.06.026.108.064.146.116.037.051.056.12.056.205 0 .075-.024.145-.073.21-.049.066-.11.11-.184.133-.029 0-.074-.001-.137-.004a4.3701 4.3701 0 00-.206-.004c-.075 0-.145.001-.21.004-.066.003-.11.004-.133.004-.086 0-.173.008-.261.021-.089.015-.176.021-.262.021-.103 0-.196-.04-.278-.12-.088-.082-.129-.174-.129-.276z"/>
<path id="l_o" fill="#fff" fill-rule="nonzero" d="M22.412 28.073c0-.269.028-.539.085-.81.057-.271.149-.527.274-.767.125-.239.284-.454.476-.643s.421-.334.69-.437c.12-.046.241-.093.364-.142a1.02 1.02 0 01.381-.073c.012 0 .03.002.056.005.026.003.042.004.047.004.011 0 .045.01.103.03.057.02.091.033.103.038.006 0 .023.002.051.005.029.003.06.004.094.004.035 0 .066.002.095.004.028.003.048.005.06.005.017.006.053.015.107.025.054.012.087.021.099.026l.891.316c.166.063.312.148.441.257.129.109.242.234.339.377.097.144.18.295.248.455.069.159.126.316.171.47 0 .012.006.03.018.056a.715.715 0 01.03.086c.009.031.017.06.026.086.008.025.013.041.013.047 0 .006.001.021.004.047.002.025.004.045.004.056 0 .326-.049.664-.146 1.016-.097.352-.241.674-.433.968-.191.295-.428.537-.711.729-.283.191-.612.287-.989.287-.463 0-.923-.046-1.38-.137-.108-.022-.227-.056-.355-.099-.128-.043-.239-.102-.33-.176-.148-.126-.281-.27-.398-.433a2.6165 2.6165 0 01-.291-.522 3.1 3.1 0 01-.176-.579 2.8624 2.8624 0 01-.061-.581zm.736-.043c0 .028.001.068.004.12.003.051.004.08.004.085 0 .012.004.036.013.073s.017.077.026.12c.008.043.017.086.025.129.009.042.016.072.021.09.074.269.183.505.326.711.143.206.357.337.643.395.389.074.789.111 1.2.111.137 0 .267-.024.39-.073.123-.049.237-.115.342-.201.106-.086.2-.185.283-.296.083-.111.147-.227.192-.347.08-.2.154-.407.223-.621.068-.215.103-.43.103-.647v-.017c-.034-.126-.073-.258-.116-.395a1.8442 1.8442 0 00-.167-.385c-.068-.12-.15-.229-.244-.325-.094-.098-.21-.172-.347-.223-.183-.074-.355-.144-.518-.206-.163-.062-.342-.095-.536-.095-.063 0-.123.005-.18.014-.057.008-.117.013-.18.013h-.034c-.012-.006-.042-.015-.09-.026-.048-.011-.079-.02-.09-.025-.234.074-.433.179-.596.312a1.711 1.711 0 00-.398.472c-.103.18-.178.375-.227.586-.047.212-.072.429-.072.651z"/>
<path id="l_u" fill="#fff" fill-rule="nonzero" d="M28.453 26.489c-.063-.006-.13-.019-.201-.039a.8665.8665 0 01-.197-.081.456.456 0 01-.146-.129c-.038-.052-.056-.117-.056-.197 0-.114.044-.194.133-.239a.6782.6782 0 01.279-.077h.462c.029 0 .083-.008.163-.021.08-.015.163-.029.249-.043.085-.015.168-.028.249-.043.08-.015.134-.024.163-.03h.034c.114 0 .203.037.266.111.063.074.094.163.094.266 0 .063-.02.132-.06.206-.04.074-.097.117-.171.128l-.454.095-.026.025c0 .166-.003.326-.009.48-.005.13-.01.266-.013.406-.003.141-.004.256-.004.348v.368l.12 1.611c.011.188.05.375.116.561.065.187.187.327.364.425.011.006.037.019.077.038.04.021.068.03.085.03h.643c.006 0 .048-.015.128-.043.08-.028.143-.052.189-.068.08-.028.154-.074.223-.137.068-.063.131-.117.188-.163.085-.068.154-.15.206-.244.051-.095.091-.196.12-.305.028-.108.047-.219.056-.33.008-.111.013-.215.013-.312V26.6l-.043-.043c-.074.006-.163.006-.266 0a1.2396 1.2396 0 01-.295-.052c-.094-.029-.174-.073-.24-.133-.066-.06-.099-.142-.099-.244 0-.102.034-.188.103-.257.069-.068.154-.104.257-.104.074 0 .146.005.214.014.068.008.14.013.214.013.08 0 .153-.012.219-.034.065-.023.138-.034.218-.034h.086c.005 0 .024.007.056.021.031.014.05.023.056.029.068.012.138.021.21.026.071.005.134.02.188.042.054.023.099.059.133.107s.051.121.051.219c0 .068-.017.126-.051.171a.6164.6164 0 01-.111.116c-.04.031-.094.064-.163.099v2.613l-.068.668c-.012.126-.051.255-.12.386-.068.132-.153.259-.252.382-.1.122-.206.234-.317.334-.111.1-.218.179-.321.235-.04.023-.09.049-.15.077-.06.028-.123.056-.188.081-.066.026-.13.048-.193.064-.063.018-.117.026-.163.026h-.823c-.074 0-.16-.021-.257-.064-.098-.043-.171-.082-.223-.116-.217-.143-.383-.312-.497-.51-.114-.198-.201-.407-.255-.632a3.9026 3.9026 0 01-.103-.698c-.014-.24-.03-.478-.047-.711 0-.018-.001-.055-.004-.112s-.006-.116-.009-.18c-.003-.062-.005-.123-.008-.18-.003-.057-.004-.1-.004-.129v-1.584l-.018-.017z"/>

<g id="bln1">
  <circle cx="51.796" cy="8.003" r="5.272" fill="#95d400"/>
  <path fill="#fff" fill-rule="nonzero" d="M48.058 9.573c0-2.766 2.243-5.009 5.009-5.009.44 0 .864.062 1.27.169-.702-.546-1.582-.875-2.54-.875-2.289 0-4.145 1.856-4.145 4.145 0 .648.153 1.259.419 1.806-.005-.079-.013-.157-.013-.236z"/>
  <path fill="#95d400" fill-rule="nonzero" d="M50.994 12.943l-.53 1.227h2.211l-.468-1.227h-1.213z"/>
  <path fill="none" stroke="#95d400" stroke-width="1" d="M51.544 25.315c.009-.008.017-.017.026-.025.345-.346.651-.779.651-1.315 0-.536-.306-.969-.652-1.315-.345-.346-.651-.779-.651-1.315 0-.536.306-.969.651-1.315.346-.346.652-.779.652-1.315 0-.536-.306-.969-.652-1.315-.345-.345-.651-.779-.651-1.314 0-.536.306-.97.651-1.315.177-.177.343-.377.464-.601"/>
</g>
<g id="bln2">
  <circle cx="72.781" cy="18.296" r="7.746" fill="#95d400"/>
  <path fill="#fff" fill-rule="nonzero" d="M67.288 20.603c0-4.065 3.295-7.36 7.36-7.36.646 0 1.269.092 1.866.248-1.032-.803-2.324-1.285-3.733-1.285-3.364 0-6.09 2.727-6.09 6.09 0 .953.225 1.851.615 2.654-.005-.116-.018-.23-.018-.347z"/>
  <path fill="#95d400" fill-rule="nonzero" d="M71.602 25.555l-.779 1.803h3.249l-.687-1.803h-1.783z"/>
  <path fill="none" stroke="#95d400" stroke-width="1" d="M72.409 44.415c.013-.013.026-.026.038-.039.53-.529.997-1.192.997-2.012 0-.82-.467-1.483-.996-2.013-.53-.529-.997-1.192-.997-2.012 0-.82.467-1.483.996-2.012.53-.53.997-1.192.997-2.013 0-.82-.467-1.483-.996-2.012-.53-.529-.997-1.192-.997-2.012 0-.821.467-1.483.996-2.013.271-.27.525-.576.709-.919"/>
</g>
<g id="bln3">
  <circle cx="51.796" cy="8.003" r="5.272" fill="#95d400"/>
  <path fill="#fff" fill-rule="nonzero" d="M48.058 9.573c0-2.766 2.243-5.009 5.009-5.009.44 0 .864.062 1.27.169-.702-.546-1.582-.875-2.54-.875-2.289 0-4.145 1.856-4.145 4.145 0 .648.153 1.259.419 1.806-.005-.079-.013-.157-.013-.236z"/>
  <path fill="#95d400" fill-rule="nonzero" d="M50.994 12.943l-.53 1.227h2.211l-.468-1.227h-1.213z"/>
  <circle cx="72.781" cy="18.296" r="7.746" fill="#95d400"/>
  <path fill="#fff" fill-rule="nonzero" d="M67.288 20.603c0-4.065 3.295-7.36 7.36-7.36.646 0 1.269.092 1.866.248-1.032-.803-2.324-1.285-3.733-1.285-3.364 0-6.09 2.727-6.09 6.09 0 .953.225 1.851.615 2.654-.005-.116-.018-.23-.018-.347z"/>
  <path fill="#95d400" fill-rule="nonzero" d="M71.602 25.555l-.779 1.803h3.249l-.687-1.803h-1.783z"/>
</g>
<g id="ln1" fill="none" stroke="#95d400" stroke-width="1">
<path d="M72.409 44.415c.013-.013.026-.026.038-.039.53-.529.997-1.192.997-2.012 0-.82-.467-1.483-.996-2.013-.53-.529-.997-1.192-.997-2.012 0-.82.467-1.483.996-2.012.53-.53.997-1.192.997-2.013 0-.82-.467-1.483-.996-2.012-.53-.529-.997-1.192-.997-2.012 0-.821.467-1.483.996-2.013.271-.27.525-.576.709-.919"/>
<path d="M51.544 25.315c.009-.008.017-.017.026-.025.345-.346.651-.779.651-1.315 0-.536-.306-.969-.652-1.315-.345-.346-.651-.779-.651-1.315 0-.536.306-.969.651-1.315.346-.346.652-.779.652-1.315 0-.536-.306-.969-.652-1.315-.345-.345-.651-.779-.651-1.314 0-.536.306-.97.651-1.315.177-.177.343-.377.464-.601"/>
</g>
<g id="ln2" fill="none" stroke="#95d400" stroke-width="1">
<path d="M73.178 44.415c.164-.318.266-.667.266-1.051 0-.82-.467-1.483-.996-2.013-.53-.529-.997-1.192-.997-2.012 0-.82.467-1.483.996-2.012.53-.53.997-1.192.997-2.013 0-.82-.467-1.483-.996-2.012-.53-.529-.997-1.192-.997-2.012 0-.821.467-1.483.996-2.013.51-.509.961-1.142.995-1.919"/>
<path d="M52.047 25.315c.107-.207.174-.436.174-.687 0-.536-.306-.969-.651-1.315-.346-.346-.652-.779-.652-1.315 0-.535.306-.969.652-1.314.345-.346.651-.779.651-1.315 0-.536-.306-.969-.651-1.315-.346-.346-.652-.779-.652-1.315 0-.536.306-.969.652-1.315.332-.333.627-.746.649-1.254"/>
</g>
<g id="ln3" fill="none" stroke="#95d400" stroke-width="1">
<path d="M73.444 44.415v-.051c0-.82-.467-1.483-.996-2.013-.53-.529-.997-1.192-.997-2.012 0-.82.467-1.483.996-2.012.53-.53.997-1.192.997-2.013 0-.82-.467-1.483-.996-2.012-.53-.529-.997-1.192-.997-2.012 0-.821.467-1.483.996-2.013.53-.529.997-1.192.997-2.012 0-.327-.074-.629-.197-.907"/>
<path d="M52.22 25.315c.001-.011.001-.022.001-.033 0-.536-.306-.969-.651-1.315-.346-.346-.652-.779-.652-1.315 0-.536.306-.969.652-1.315.345-.346.651-.779.651-1.315 0-.536-.306-.969-.651-1.315-.346-.346-.652-.779-.652-1.315 0-.536.306-.969.652-1.315.345-.345.651-.779.651-1.314 0-.214-.049-.411-.129-.593"/>
</g>
<g id="ln4" fill="none" stroke="#95d400" stroke-width="1">
<path d="M73.228 44.415c-.186-.403-.473-.756-.78-1.064-.53-.529-.997-1.192-.997-2.012 0-.82.467-1.483.997-2.012.529-.53.996-1.192.996-2.013 0-.82-.467-1.483-.996-2.012-.53-.529-.997-1.192-.997-2.012 0-.821.467-1.483.997-2.013.529-.529.996-1.192.996-2.012 0-.767-.408-1.396-.894-1.907"/>
<path d="M52.08 25.315c-.122-.263-.309-.494-.51-.695-.346-.346-.652-.779-.652-1.315 0-.536.306-.969.652-1.315.345-.345.651-.779.651-1.315 0-.535-.306-.969-.651-1.314-.346-.346-.652-.779-.652-1.315 0-.536.306-.969.652-1.315.345-.346.651-.779.651-1.315 0-.501-.267-.912-.584-1.246"/>
</g>
<g id="ln5" fill="none" stroke="#95d400" stroke-width="1">
<path d="M72.51 44.415c-.021-.021-.042-.043-.063-.064-.529-.529-.996-1.192-.996-2.012 0-.82.467-1.483.996-2.012.53-.53.997-1.192.997-2.013 0-.82-.467-1.483-.996-2.012-.53-.529-.997-1.192-.997-2.012 0-.821.467-1.483.996-2.013.53-.529.997-1.192.997-2.012 0-.82-.467-1.483-.996-2.013-.264-.263-.513-.561-.696-.894"/>
<path d="M51.61 25.315c-.013-.014-.027-.028-.04-.041-.346-.346-.652-.779-.652-1.315 0-.536.306-.969.652-1.315.345-.346.651-.779.651-1.315 0-.536-.306-.969-.651-1.315-.346-.346-.652-.779-.652-1.315 0-.536.306-.969.652-1.315.345-.346.651-.779.651-1.315 0-.536-.306-.969-.651-1.315-.173-.172-.335-.366-.455-.584"/>
</g>
<g id="ln6" fill="none" stroke="#95d400" stroke-width="1">
<path d="M71.73 44.415c-.171-.324-.279-.682-.279-1.076 0-.82.467-1.483.996-2.012.53-.53.997-1.192.997-2.013 0-.82-.467-1.483-.996-2.012-.53-.529-.997-1.192-.997-2.012 0-.821.467-1.483.996-2.013.53-.529.997-1.192.997-2.012 0-.82-.467-1.483-.996-2.013-.504-.503-.952-1.128-.994-1.894"/>
<path d="M51.1 25.315c-.111-.212-.182-.446-.182-.703 0-.536.306-.969.652-1.315.345-.346.651-.779.651-1.315 0-.536-.306-.969-.651-1.315-.346-.345-.652-.779-.652-1.314 0-.536.306-.97.652-1.315.345-.346.651-.779.651-1.315 0-.536-.306-.969-.651-1.315-.33-.329-.622-.737-.65-1.238"/>
</g>
<g id="ln7" fill="none" stroke="#95d400" stroke-width="1">
<path d="M71.452 44.415c-.001-.025-.001-.05-.001-.076 0-.82.467-1.483.997-2.012.529-.53.996-1.192.996-2.013 0-.82-.467-1.483-.996-2.012-.53-.529-.997-1.192-.997-2.012 0-.821.467-1.483.997-2.013.529-.529.996-1.192.996-2.012 0-.82-.467-1.483-.996-2.013-.53-.529-.997-1.192-.997-2.012 0-.317.07-.611.186-.882"/>
<path d="M50.919 25.315c0-.016-.001-.033-.001-.05 0-.535.306-.969.651-1.314.346-.346.652-.779.652-1.315 0-.536-.306-.969-.652-1.315-.345-.346-.651-.779-.651-1.315 0-.536.306-.969.651-1.315.346-.346.652-.779.652-1.315 0-.536-.306-.969-.652-1.315-.345-.346-.651-.779-.651-1.315 0-.207.046-.399.122-.576"/>
</g>
<g id="ln8" fill="none" stroke="#95d400" stroke-width="1">
<path d="M71.655 44.415c.186-.413.478-.774.793-1.088.529-.53.996-1.192.996-2.013 0-.82-.467-1.483-.996-2.012-.53-.529-.997-1.192-.997-2.012 0-.821.467-1.483.996-2.013.53-.529.997-1.192.997-2.012 0-.82-.467-1.483-.996-2.013-.53-.529-.997-1.192-.997-2.012 0-.754.395-1.375.87-1.882"/>
<path d="M51.052 25.315c.121-.27.312-.506.518-.711.345-.346.651-.779.651-1.315 0-.536-.306-.969-.651-1.315-.346-.346-.652-.779-.652-1.315 0-.536.306-.969.652-1.315.345-.345.651-.779.651-1.314 0-.536-.306-.97-.651-1.315-.346-.346-.652-.779-.652-1.315 0-.493.259-.899.569-1.23"/>
</g>
<path id="st1" fill="#95d400" fill-rule="nonzero" d="M63.209 9.907l1.718.282-1.718.283-.282 1.717-.283-1.717-1.718-.283 1.718-.282.283-1.717.282 1.717z"/>
<path id="st2" fill="#95d400" fill-rule="nonzero" d="M63.421 9.695l3.006.494-3.006.495-.494 3.005-.495-3.005-3.005-.495 3.005-.494.495-3.005.494 3.005z"/>
<path id="st3" fill="#95d400" fill-rule="nonzero" d="M63.633 9.483l4.294.706-4.294.707-.706 4.293-.707-4.293-4.294-.707 4.294-.706.707-4.293.706 4.293z"/>
<path id="st4" fill="#95d400" fill-rule="nonzero" d="M63.845 9.271l5.582.918-5.582.919-.918 5.581-.919-5.581-5.581-.919 5.581-.918.919-5.581.918 5.581z"/>
<path id="st5" fill="#95d400" fill-rule="nonzero" d="M63.633 9.483l4.294.706-4.294.707-.706 4.293-.707-4.293-4.294-.707 4.294-.706.707-4.293.706 4.293z"/>
<path id="st6" fill="#95d400" fill-rule="nonzero" d="M63.421 9.695l3.006.494-3.006.495-.494 3.005-.495-3.005-3.005-.495 3.005-.494.495-3.005.494 3.005z"/>
</defs>

<g id="a1">
<use x="5.489" y="10.462" transform="translate(44.5 42.849) scale(.1) translate(-44.5 -42.849)" xlink:href="#bbl"/>
</g>
<g id="a2">
<use x="5.489" y="10.462" transform="translate(44.5 42.849) scale(.2) translate(-44.5 -42.849)" xlink:href="#bbl"/>
</g>
<g id="a3">
<use x="5.489" y="10.462" transform="translate(44.5 42.849) scale(.3) translate(-44.5 -42.849)" xlink:href="#bbl"/>
</g>
<g id="a4">
<use x="5.489" y="10.462" transform="translate(44.5 42.849) scale(.5) translate(-44.5 -42.849)" xlink:href="#bbl"/>
</g>
<g id="a5">
<use x="5.489" y="10.462" transform="translate(44.5 42.849) scale(.7) translate(-44.5 -42.849)" xlink:href="#bbl"/>
</g>
<g id="a6">
<use x="5.489" y="10.462" transform="translate(44.5 42.849) scale(.8) translate(-44.5 -42.849)" xlink:href="#bbl"/>
</g>
<g id="a7">
<use x="5.489" y="10.462" transform="translate(44.5 42.849) scale(.9) translate(-44.5 -42.849)" xlink:href="#bbl"/>
</g>
<g id="a8">
<use x="5.489" y="10.462" transform="translate(44.5 42.849) scale(.95) translate(-44.5 -42.849)" xlink:href="#bbl"/>
</g>
<g id="a9">
<use x="5.489" y="10.462" xlink:href="#bbl"/>
</g>
<g id="a10">
<use x="5.489" y="10.462" xlink:href="#bbl"/>
<use xlink:href="#l_t"/>
</g>
<g id="a11">
<use x="5.489" y="10.462" xlink:href="#bbl"/>
<use xlink:href="#l_t"/>
<use xlink:href="#l_h"/>
</g>
<g id="a12">
<use x="5.489" y="10.462" xlink:href="#bbl"/>
<use xlink:href="#l_t"/>
<use xlink:href="#l_h"/>
<use xlink:href="#l_a"/>
</g>
<g id="a13">
<use x="5.489" y="10.462" xlink:href="#bbl"/>
<use xlink:href="#l_t"/>
<use xlink:href="#l_h"/>
<use xlink:href="#l_a"/>
<use xlink:href="#l_n"/>
</g>
<g id="a14">
<use x="5.489" y="10.462" xlink:href="#bbl"/>
<use xlink:href="#l_t"/>
<use xlink:href="#l_h"/>
<use xlink:href="#l_a"/>
<use xlink:href="#l_n"/>
<use xlink:href="#l_k"/>
</g>
<g id="a15">
<use x="5.489" y="10.462" xlink:href="#bbl"/>
<use xlink:href="#l_t"/>
<use xlink:href="#l_h"/>
<use xlink:href="#l_a"/>
<use xlink:href="#l_n"/>
<use xlink:href="#l_k"/>
<use xlink:href="#l_y"/>
</g>
<g id="a16">
<use x="5.489" y="10.462" xlink:href="#bbl"/>
<use xlink:href="#l_t"/>
<use xlink:href="#l_h"/>
<use xlink:href="#l_a"/>
<use xlink:href="#l_n"/>
<use xlink:href="#l_k"/>
<use xlink:href="#l_y"/>
<use xlink:href="#l_o"/>
</g>
<g id="a17">
<use x="5.489" y="10.462" xlink:href="#bbl"/>
<use xlink:href="#l_t"/>
<use xlink:href="#l_h"/>
<use xlink:href="#l_a"/>
<use xlink:href="#l_n"/>
<use xlink:href="#l_k"/>
<use xlink:href="#l_y"/>
<use xlink:href="#l_o"/>
<use xlink:href="#l_u"/>
</g>
<g id="a18" opacity=".8">
<use x="5.489" y="10.462" xlink:href="#bbl"/>
<use xlink:href="#l_t"/>
<use xlink:href="#l_h"/>
<use xlink:href="#l_a"/>
<use xlink:href="#l_n"/>
<use xlink:href="#l_k"/>
<use xlink:href="#l_y"/>
<use xlink:href="#l_o"/>
<use xlink:href="#l_u"/>
</g>
<g id="a19" opacity=".6">
<use x="5.489" y="10.462" xlink:href="#bbl"/>
<use xlink:href="#l_t"/>
<use xlink:href="#l_h"/>
<use xlink:href="#l_a"/>
<use xlink:href="#l_n"/>
<use xlink:href="#l_k"/>
<use xlink:href="#l_y"/>
<use xlink:href="#l_o"/>
<use xlink:href="#l_u"/>
</g>
<g id="a20" opacity=".4">
<use x="5.489" y="10.462" xlink:href="#bbl"/>
<use xlink:href="#l_t"/>
<use xlink:href="#l_h"/>
<use xlink:href="#l_a"/>
<use xlink:href="#l_n"/>
<use xlink:href="#l_k"/>
<use xlink:href="#l_y"/>
<use xlink:href="#l_o"/>
<use xlink:href="#l_u"/>
</g>
<g id="a21" opacity=".2">
<use x="5.489" y="10.462" xlink:href="#bbl"/>
<use xlink:href="#l_t"/>
<use xlink:href="#l_h"/>
<use xlink:href="#l_a"/>
<use xlink:href="#l_n"/>
<use xlink:href="#l_k"/>
<use xlink:href="#l_y"/>
<use xlink:href="#l_o"/>
<use xlink:href="#l_u"/>
</g>

<g id="b1">
<use xlink:href="#bln1" transform="translate(0 52)"/>
<use xlink:href="#bln2" transform="translate(0 43)"/>
</g>

<g id="b2">
<use xlink:href="#bln1" transform="translate(0 45)"/>
<use xlink:href="#bln2" transform="translate(0 40)"/>
</g>

<g id="b3">
<use xlink:href="#bln1" transform="translate(0 40)"/>
<use xlink:href="#bln2" transform="translate(0 36)"/>
</g>

<g id="b4">
<use xlink:href="#bln1" transform="translate(0 35)"/>
<use xlink:href="#bln2" transform="translate(0 32)"/>
</g>

<g id="b5">
<use xlink:href="#bln1" transform="translate(0 30)"/>
<use xlink:href="#bln2" transform="translate(0 28)"/>
</g>

<g id="b6">
<use xlink:href="#bln1" transform="translate(0 25)"/>
<use xlink:href="#bln2" transform="translate(0 24)"/>
</g>

<g id="b7">
<use xlink:href="#bln1" transform="translate(0 20)"/>
<use xlink:href="#bln2" transform="translate(0 20)"/>
</g>

<g id="b8">
<use xlink:href="#bln1" transform="translate(0 15)"/>
<use xlink:href="#bln2" transform="translate(0 15)"/>
</g>

<g id="b9">
<use xlink:href="#bln1" transform="translate(0 10)"/>
<use xlink:href="#bln2" transform="translate(0 10)"/>
</g>

<g id="b10">
<use xlink:href="#bln1" transform="translate(0 7)"/>
<use xlink:href="#bln2" transform="translate(0 7)"/>
</g>

<g id="b11">
<use xlink:href="#bln1" transform="translate(0 5)"/>
<use xlink:href="#bln2" transform="translate(0 5)"/>
</g>

<g id="b12">
<use xlink:href="#bln1" transform="translate(0 3)"/>
<use xlink:href="#bln2" transform="translate(0 3)"/>
</g>

<g id="b13">
<use xlink:href="#bln1" transform="translate(0 1)"/>
<use xlink:href="#bln2" transform="translate(0 1)"/>
</g>

<g id="b14" transform="translate(0 0)">
<use xlink:href="#bln3"/>
<use xlink:href="#ln1"/>
<use xlink:href="#st1"/>
</g>

<g id="b15" transform="translate(0 .2)">
<use xlink:href="#bln3"/>
<use xlink:href="#ln2"/>
<use xlink:href="#st1"/>
</g>

<g id="b16" transform="translate(0 .4)">
<use xlink:href="#bln3"/>
<use xlink:href="#ln3"/>
<use xlink:href="#st2"/>
</g>

<g id="b17" transform="translate(0 .6)">
<use xlink:href="#bln3"/>
<use xlink:href="#ln4"/>
<use xlink:href="#st2"/>
</g>

<g id="b18" transform="translate(0 .8)">
<use xlink:href="#bln3"/>
<use xlink:href="#ln5"/>
<use xlink:href="#st3"/>
</g>

<g id="b19" transform="translate(0 1)">
<use xlink:href="#bln3"/>
<use xlink:href="#ln6"/>
<use xlink:href="#st3"/>
</g>

<g id="b20" transform="translate(0 .8)">
<use xlink:href="#bln3"/>
<use xlink:href="#ln7"/>
<use xlink:href="#st4"/>
</g>

<g id="b21" transform="translate(0 .6)">
<use xlink:href="#bln3"/>
<use xlink:href="#ln8"/>
<use xlink:href="#st4"/>
</g>

<g id="b22" transform="translate(0 .4)">
<use xlink:href="#bln3"/>
<use xlink:href="#ln1"/>
<use xlink:href="#st5"/>
</g>

<g id="b23" transform="translate(0 .2)">
<use xlink:href="#bln3"/>
<use xlink:href="#ln2"/>
<use xlink:href="#st5"/>
</g>

<g id="b24" transform="translate(0 0)">
<use xlink:href="#bln3"/>
<use xlink:href="#ln3"/>
<use xlink:href="#st6"/>
</g>

<g id="b25" transform="translate(0 -.2)">
<use xlink:href="#bln3"/>
<use xlink:href="#ln4"/>
<use xlink:href="#st6"/>
</g>

<g id="b26" transform="translate(0 -.4)">
<use xlink:href="#bln3"/>
<use xlink:href="#ln5"/>
<use xlink:href="#st1"/>
</g>

<g id="b27" transform="translate(0 -.6)">
<use xlink:href="#bln3"/>
<use xlink:href="#ln6"/>
<use xlink:href="#st1"/>
</g>

<g id="b28" transform="translate(0 -1)">
<use xlink:href="#bln3"/>
<use xlink:href="#ln7"/>
<use xlink:href="#st2"/>
</g>

<g id="b29" transform="translate(0 -.8)">
<use xlink:href="#bln3"/>
<use xlink:href="#ln8"/>
<use xlink:href="#st2"/>
</g>

<g id="b30" transform="translate(0 -.6)">
<use xlink:href="#bln3"/>
<use xlink:href="#ln1"/>
<use xlink:href="#st3"/>
</g>

<g id="b31" transform="translate(0 -.4)">
<use xlink:href="#bln3"/>
<use xlink:href="#ln2"/>
<use xlink:href="#st3"/>
</g>

<g id="b32" transform="translate(0 -.2)">
<use xlink:href="#bln3"/>
<use xlink:href="#ln3"/>
<use xlink:href="#st4"/>
</g>

<g id="b33" transform="translate(0 0)">
<use xlink:href="#bln3"/>
<use xlink:href="#ln4"/>
<use xlink:href="#st4"/>
</g>

<g id="b34" transform="translate(0 .2)">
<use xlink:href="#bln3"/>
<use xlink:href="#ln5"/>
<use xlink:href="#st5"/>
</g>

<g id="b35" transform="translate(0 .4)">
<use xlink:href="#bln3"/>
<use xlink:href="#ln6"/>
<use xlink:href="#st5"/>
</g>

<g id="b36" transform="translate(0 .6)">
<use xlink:href="#bln3"/>
<use xlink:href="#ln7"/>
<use xlink:href="#st6"/>
</g>

<g id="b37" transform="translate(0 .8)">
<use xlink:href="#bln3"/>
<use xlink:href="#ln8"/>
<use xlink:href="#st6"/>
</g>

<g id="b38" transform="translate(0 1)">
<use xlink:href="#bln3"/>
<use xlink:href="#ln1"/>
<use xlink:href="#st1"/>
</g>

<g id="b39" transform="translate(0 .8)">
<use xlink:href="#bln3"/>
<use xlink:href="#ln2"/>
<use xlink:href="#st1"/>
</g>

<g id="b40" transform="translate(0 .6)">
<use xlink:href="#bln3"/>
<use xlink:href="#ln3"/>
<use xlink:href="#st2"/>
</g>

<g id="b41" transform="translate(0 .4)">
<use xlink:href="#bln3"/>
<use xlink:href="#ln4"/>
<use xlink:href="#st2"/>
</g>

<g id="b42" transform="translate(0 .2)">
<use xlink:href="#bln3"/>
<use xlink:href="#ln5"/>
<use xlink:href="#st3"/>
</g>

<g id="b43" transform="translate(0 0)">
<use xlink:href="#bln3"/>
<use xlink:href="#ln6"/>
<use xlink:href="#st3"/>
</g>

<g id="b44" transform="translate(0 -.2)">
<use xlink:href="#bln3"/>
<use xlink:href="#ln7"/>
<use xlink:href="#st4"/>
</g>

<g id="b45" transform="translate(0 -.4)">
<use xlink:href="#bln3"/>
<use xlink:href="#ln8"/>
<use xlink:href="#st4"/>
</g>

<g id="b46" transform="translate(0 -.6)">
<use xlink:href="#bln3"/>
<use xlink:href="#ln1"/>
<use xlink:href="#st5"/>
</g>

<g id="b47" transform="translate(0 -.8)">
<use xlink:href="#bln3"/>
<use xlink:href="#ln2"/>
<use xlink:href="#st5"/>
</g>

<g id="b48" transform="translate(0 -1)">
<use xlink:href="#bln3"/>
<use xlink:href="#ln3"/>
<use xlink:href="#st6"/>
</g>

<g id="b49" transform="translate(0 -.8)">
<use xlink:href="#bln3"/>
<use xlink:href="#ln4"/>
<use xlink:href="#st6"/>
</g>

<g id="b50" transform="translate(0 -.6)">
<use xlink:href="#bln3"/>
<use xlink:href="#ln5"/>
<use xlink:href="#st1"/>
</g>

<g id="b51" transform="translate(0 -.4)">
<use xlink:href="#bln3"/>
<use xlink:href="#ln6"/>
<use xlink:href="#st1"/>
</g>

<g id="b52" transform="translate(0 -.2)">
<use xlink:href="#bln3"/>
<use xlink:href="#ln7"/>
<use xlink:href="#st2"/>
</g>

<g id="b53" transform="translate(0 0)">
<use xlink:href="#bln3"/>
<use xlink:href="#ln8"/>
<use xlink:href="#st2"/>
</g>

<g id="b54" transform="translate(0 .2)">
<use xlink:href="#bln3"/>
<use xlink:href="#ln1"/>
<use xlink:href="#st3"/>
</g>

<g id="b55" transform="translate(0 .4)">
<use xlink:href="#bln3"/>
<use xlink:href="#ln2"/>
<use xlink:href="#st3"/>
</g>

<g id="b56" transform="translate(0 .6)">
<use xlink:href="#bln3"/>
<use xlink:href="#ln3"/>
<use xlink:href="#st4"/>
</g>

<g id="b57" transform="translate(0 .8)">
<use xlink:href="#bln3"/>
<use xlink:href="#ln4"/>
<use xlink:href="#st4"/>
</g>

<g id="b58" opacity=".8" transform="translate(0 1)">
<use xlink:href="#bln3"/>
<use xlink:href="#ln5"/>
<use xlink:href="#st5"/>
</g>

<g id="b59" opacity=".6" transform="translate(0 .8)">
<use xlink:href="#bln3"/>
<use xlink:href="#ln6"/>
<use xlink:href="#st5"/>
</g>

<g id="b60" opacity=".4" transform="translate(0 .6)">
<use xlink:href="#bln3"/>
<use xlink:href="#ln7"/>
<use xlink:href="#st6"/>
</g>

<g id="b61" opacity=".2" transform="translate(0 .4)">
<use xlink:href="#bln3"/>
<use xlink:href="#ln8"/>
<use xlink:href="#st6"/>
</g>

<g>
  <circle cx="57.034" cy="39.134" r="10.479" fill="#fff" stroke="#95d400" stroke-linecap="butt" stroke-linejoin="miter" stroke-miterlimit="10"/>
  <g fill="#95d400">
    <circle cx="53.207" cy="35.979" r="1.497"/>
    <circle cx="60.861" cy="35.979" r="1.497"/>
  </g>
  <path fill="none" stroke="#95d400" stroke-linejoin="miter" stroke-miterlimit="10" d="M50.803 40.9c.728 2.765 3.238 4.806 6.231 4.806s5.503-2.042 6.231-4.806"/>
</g>
<style>
/* <![CDATA[ */

#a1 {animation-name: a1}
#a2 {animation-name: a2}
#a3 {animation-name: a3}
#a4 {animation-name: a4}
#a5 {animation-name: a5}
#a6 {animation-name: a6}
#a7 {animation-name: a7}
#a8 {animation-name: a8}
#a9 {animation-name: a9}
#a10 {animation-name: a10}
#a11 {animation-name: a11}
#a12 {animation-name: a12}
#a13 {animation-name: a13}
#a14 {animation-name: a14}
#a15 {animation-name: a15}
#a16 {animation-name: a16}
#a17 {animation-name: a17}
#a18 {animation-name: a18}
#a19 {animation-name: a19}
#a20 {animation-name: a20}
#a21 {animation-name: a21}

@keyframes a1 {0.00%{visibility: visible} 1.39%{visibility: hidden}}
@keyframes a2 {1.39%{visibility: visible} 2.78%{visibility: hidden}}
@keyframes a3 {2.78%{visibility: visible} 4.17%{visibility: hidden}}
@keyframes a4 {4.17%{visibility: visible} 5.56%{visibility: hidden}}
@keyframes a5 {5.56%{visibility: visible} 6.94%{visibility: hidden}}
@keyframes a6 {6.94%{visibility: visible} 8.33%{visibility: hidden}}
@keyframes a7 {8.33%{visibility: visible} 9.72%{visibility: hidden}}
@keyframes a8 {9.72%{visibility: visible} 11.11%{visibility: hidden}}
@keyframes a9 {11.11%{visibility: visible} 12.50%{visibility: hidden}}
@keyframes a10 {12.50%{visibility: visible} 13.89%{visibility: hidden}}
@keyframes a11 {13.89%{visibility: visible} 15.28%{visibility: hidden}}
@keyframes a12 {15.28%{visibility: visible} 16.67%{visibility: hidden}}
@keyframes a13 {16.67%{visibility: visible} 18.06%{visibility: hidden}}
@keyframes a14 {18.06%{visibility: visible} 19.44%{visibility: hidden}}
@keyframes a15 {19.44%{visibility: visible} 20.83%{visibility: hidden}}
@keyframes a16 {20.83%{visibility: visible} 22.22%{visibility: hidden}}
@keyframes a17 {22.22%{visibility: visible} 81.94%{visibility: hidden}}
@keyframes a18 {81.94%{visibility: visible} 83.33%{visibility: hidden}}
@keyframes a19 {83.33%{visibility: visible} 84.72%{visibility: hidden}}
@keyframes a20 {84.72%{visibility: visible} 86.11%{visibility: hidden}}
@keyframes a21 {86.11%{visibility: visible} 87.50%{visibility: hidden}}

#b1 {animation-name: b1}
#b2 {animation-name: b2}
#b3 {animation-name: b3}
#b4 {animation-name: b4}
#b5 {animation-name: b5}
#b6 {animation-name: b6}
#b7 {animation-name: b7}
#b8 {animation-name: b8}
#b9 {animation-name: b9}
#b10 {animation-name: b10}
#b11 {animation-name: b11}
#b12 {animation-name: b12}
#b13 {animation-name: b13}
#b14 {animation-name: b14}
#b15 {animation-name: b15}
#b16 {animation-name: b16}
#b17 {animation-name: b17}
#b18 {animation-name: b18}
#b19 {animation-name: b19}
#b20 {animation-name: b20}
#b21 {animation-name: b21}
#b22 {animation-name: b22}
#b23 {animation-name: b23}
#b24 {animation-name: b24}
#b25 {animation-name: b25}
#b26 {animation-name: b26}
#b27 {animation-name: b27}
#b28 {animation-name: b28}
#b29 {animation-name: b29}
#b30 {animation-name: b30}
#b31 {animation-name: b31}
#b32 {animation-name: b32}
#b33 {animation-name: b33}
#b34 {animation-name: b34}
#b35 {animation-name: b35}
#b36 {animation-name: b36}
#b37 {animation-name: b37}
#b38 {animation-name: b38}
#b39 {animation-name: b39}
#b40 {animation-name: b40}
#b41 {animation-name: b41}
#b42 {animation-name: b42}
#b43 {animation-name: b43}
#b44 {animation-name: b44}
#b45 {animation-name: b45}
#b46 {animation-name: b46}
#b47 {animation-name: b47}
#b48 {animation-name: b48}
#b49 {animation-name: b49}
#b50 {animation-name: b50}
#b51 {animation-name: b51}
#b52 {animation-name: b52}
#b53 {animation-name: b53}
#b54 {animation-name: b54}
#b55 {animation-name: b55}
#b56 {animation-name: b56}
#b57 {animation-name: b57}
#b58 {animation-name: b58}
#b59 {animation-name: b59}
#b60 {animation-name: b60}
#b61 {animation-name: b61}

@keyframes b1 {0.00%{visibility: visible} 1.56%{visibility: hidden}}
@keyframes b2 {1.56%{visibility: visible} 3.13%{visibility: hidden}}
@keyframes b3 {3.13%{visibility: visible} 4.69%{visibility: hidden}}
@keyframes b4 {4.69%{visibility: visible} 6.25%{visibility: hidden}}
@keyframes b5 {6.25%{visibility: visible} 7.81%{visibility: hidden}}
@keyframes b6 {7.81%{visibility: visible} 9.38%{visibility: hidden}}
@keyframes b7 {9.38%{visibility: visible} 10.94%{visibility: hidden}}
@keyframes b8 {10.94%{visibility: visible} 12.50%{visibility: hidden}}
@keyframes b9 {12.50%{visibility: visible} 14.06%{visibility: hidden}}
@keyframes b10 {14.06%{visibility: visible} 15.63%{visibility: hidden}}
@keyframes b11 {15.63%{visibility: visible} 17.19%{visibility: hidden}}
@keyframes b12 {17.19%{visibility: visible} 18.75%{visibility: hidden}}
@keyframes b13 {18.75%{visibility: visible} 20.31%{visibility: hidden}}
@keyframes b14 {20.31%{visibility: visible} 21.88%{visibility: hidden}}
@keyframes b15 {21.88%{visibility: visible} 23.44%{visibility: hidden}}
@keyframes b16 {23.44%{visibility: visible} 25.00%{visibility: hidden}}
@keyframes b17 {25.00%{visibility: visible} 26.56%{visibility: hidden}}
@keyframes b18 {26.56%{visibility: visible} 28.13%{visibility: hidden}}
@keyframes b19 {28.13%{visibility: visible} 29.69%{visibility: hidden}}
@keyframes b20 {29.69%{visibility: visible} 31.25%{visibility: hidden}}
@keyframes b21 {31.25%{visibility: visible} 32.81%{visibility: hidden}}
@keyframes b22 {32.81%{visibility: visible} 34.38%{visibility: hidden}}
@keyframes b23 {34.38%{visibility: visible} 35.94%{visibility: hidden}}
@keyframes b24 {35.94%{visibility: visible} 37.50%{visibility: hidden}}
@keyframes b25 {37.50%{visibility: visible} 39.06%{visibility: hidden}}
@keyframes b26 {39.06%{visibility: visible} 40.63%{visibility: hidden}}
@keyframes b27 {40.63%{visibility: visible} 42.19%{visibility: hidden}}
@keyframes b28 {42.19%{visibility: visible} 43.75%{visibility: hidden}}
@keyframes b29 {43.75%{visibility: visible} 45.31%{visibility: hidden}}
@keyframes b30 {45.31%{visibility: visible} 46.88%{visibility: hidden}}
@keyframes b31 {46.88%{visibility: visible} 48.44%{visibility: hidden}}
@keyframes b32 {48.44%{visibility: visible} 50.00%{visibility: hidden}}
@keyframes b33 {50.00%{visibility: visible} 51.56%{visibility: hidden}}
@keyframes b34 {51.56%{visibility: visible} 53.13%{visibility: hidden}}
@keyframes b35 {53.13%{visibility: visible} 54.69%{visibility: hidden}}
@keyframes b36 {54.69%{visibility: visible} 56.25%{visibility: hidden}}
@keyframes b37 {56.25%{visibility: visible} 57.81%{visibility: hidden}}
@keyframes b38 {57.81%{visibility: visible} 59.38%{visibility: hidden}}
@keyframes b39 {59.38%{visibility: visible} 60.94%{visibility: hidden}}
@keyframes b40 {60.94%{visibility: visible} 62.50%{visibility: hidden}}
@keyframes b41 {62.50%{visibility: visible} 64.06%{visibility: hidden}}
@keyframes b42 {64.06%{visibility: visible} 65.63%{visibility: hidden}}
@keyframes b43 {65.63%{visibility: visible} 67.19%{visibility: hidden}}
@keyframes b44 {67.19%{visibility: visible} 68.75%{visibility: hidden}}
@keyframes b45 {68.75%{visibility: visible} 70.31%{visibility: hidden}}
@keyframes b46 {70.31%{visibility: visible} 71.88%{visibility: hidden}}
@keyframes b47 {71.88%{visibility: visible} 73.44%{visibility: hidden}}
@keyframes b48 {73.44%{visibility: visible} 75.00%{visibility: hidden}}
@keyframes b49 {75.00%{visibility: visible} 76.56%{visibility: hidden}}
@keyframes b50 {76.56%{visibility: visible} 78.13%{visibility: hidden}}
@keyframes b51 {78.13%{visibility: visible} 79.69%{visibility: hidden}}
@keyframes b52 {79.69%{visibility: visible} 81.25%{visibility: hidden}}
@keyframes b53 {81.25%{visibility: visible} 82.81%{visibility: hidden}}
@keyframes b54 {82.81%{visibility: visible} 84.38%{visibility: hidden}}
@keyframes b55 {84.38%{visibility: visible} 85.94%{visibility: hidden}}
@keyframes b56 {85.94%{visibility: visible} 87.50%{visibility: hidden}}
@keyframes b57 {87.50%{visibility: visible} 89.06%{visibility: hidden}}
@keyframes b58 {89.06%{visibility: visible} 90.63%{visibility: hidden}}
@keyframes b59 {90.63%{visibility: visible} 92.19%{visibility: hidden}}
@keyframes b60 {92.19%{visibility: visible} 93.75%{visibility: hidden}}
@keyframes b61 {93.75%{visibility: visible} 95.31%{visibility: hidden}}

/* ]]> */
</style>
</svg>
