<svg xmlns="http://www.w3.org/2000/svg" xmlns:xlink="http://www.w3.org/1999/xlink" fill-rule="evenodd" stroke-linejoin="round" stroke-miterlimit="2" clip-rule="evenodd" viewBox="0 0 85 53">
<style>
/* <![CDATA[ */

#a1, #a2, #a3, #a4, #a5, #a6, #a7, #a8, #a9, #a10, #a11, #a12, #a13, #a14 {
visibility: hidden;
animation-duration: 3s;
animation-iteration-count: infinite;
animation-timing-function: steps(1);
}

#b1, #b2, #b3, #b4, #b5, #b6, #b7, #b8, #b9, #b10, #b11, #b12 {
visibility: hidden;
animation-duration: 8s;
animation-iteration-count: infinite;
animation-timing-function: steps(1);
}

/* ]]> */
</style>
<defs>
<path id="l_t" fill="#fff" fill-rule="nonzero" d="M28.5 25.4c0-.1.1-.2.2-.3.1-.1.2-.1.3-.1h.6v-4.5h-1.2v1c0 .1 0 .2-.1.2-.1.1-.2.1-.3.1h-.2s-.1 0-.1-.1v-1.6c0-.1 0-.3.1-.3s.2-.1.3-.1h.2c.1 0 .1 0 .2.1H32c.1 0 .2.1.3.2.1.1.1.2.1.3v1.3c0 .1 0 .2-.1.3-.1.1-.2.1-.3.1-.1 0-.2 0-.3-.1-.1-.1-.1-.2-.1-.3v-.8h-1.1v4.5h.2c.1 0 .2 0 .3.1.1.1.1.2.1.3 0 .1 0 .2-.1.3-.1.1-.1.1-.2.1l-.5.1H29c-.1 0-.2 0-.3-.1-.1-.5-.2-.6-.2-.7z"/>
<path id="l_h" fill="#fff" fill-rule="nonzero" d="M32.6 25.3c0-.1 0-.2.1-.2s.1-.1.2-.1.1 0 .2-.1h.2v-.3l.2-4.1v-.2c0-.1 0 0 0 0h-.4c-.1 0-.1-.1-.2-.1 0-.1-.1-.1-.1-.2 0-.2.1-.3.2-.3s.2-.1.4-.1h1.5c.1 0 .2.1.3.1.1 0 .1.2.1.3 0 .1 0 .2-.1.2-.1.1-.1.1-.2.1h-.5l-.1 2h2.2v-1.6h-.2c-.1 0-.2 0-.2-.1-.1 0-.1-.1-.2-.1-.1-.1-.1-.1-.1-.2s0-.2.1-.3c.1-.1.2-.1.3-.1h1.3c.2.1.3.2.3.4 0 .1 0 .2-.1.2 0 .1-.1.1-.1.1h-.1s-.1 0-.1.1v4.5h.5l.1.1v.2c0 .1 0 .2-.1.3-.1.1-.1.1-.2.1h-1.1c-.1 0-.3 0-.4-.1-.3-.4-.3-.5-.3-.6 0-.2.1-.3.2-.3.1-.1.2-.1.4-.1V23h-2.2v1.6h.2c.1 0 .1 0 .2.1.1 0 .1.1.1.1s.1.1.1.2 0 .2-.1.2c0 .1-.1.1-.2.1s-.1 0-.2.1h-1.4c-.1 0-.1 0-.2-.1l-.1-.1c-.2.3-.2.2-.2.1z"/>
<path id="l_a" fill="#fff" fill-rule="nonzero" d="M38.2 25.7c0-.1 0-.1.1-.2 0-.1.1-.1.1-.1.1 0 .1-.1.2-.1h.2c.1-.1.1-.3.2-.4 0-.1.1-.3.1-.5.1-.4.3-.7.4-1.1.1-.4.3-.8.4-1.1.1-.2.2-.5.3-.7.1-.2.2-.4.4-.7 0 0 0-.1.1-.1 0-.1.1-.1.1-.1h-1.2c-.1 0-.2 0-.2-.1-.1-.1-.1-.2-.1-.3 0-.1 0-.2.1-.2.1-.1.1-.1.2-.1H42c.1 0 .2.1.2.1.1.1.1.1.1.2v.2c.1.1.1.2.1.2 0 .1.1.2.1.2 0 .1 0 .2.1.2 0 .1 0 .2.1.2.1.2.1.3.2.5s.1.3.2.5c0 0 0 .1.1.1 0 .1.1.1.1.1v.2c0 .1.1.2.1.3 0 .1.2.3.2.5.1.2.2.3.2.5.1.2.1.3.2.3v.1c0 .1.1.1.1.2s.1.1.1.2v.3h.8c.1 0 .2.1.2.1.1.1.1.2.1.3 0 .1 0 .2-.1.2s-.1.1-.2.2h-1.4c-.1 0-.1 0-.2.1h-.2c-.1 0-.2 0-.3-.1-.1-.1-.1-.2-.1-.3 0-.1 0-.2.1-.2s.1-.1.1-.1.1-.1.2-.1.1 0 .2-.1c0 0 0-.1-.1-.1 0-.1 0-.1-.1-.2 0-.1 0-.1-.1-.1v-.1s0-.1-.1-.1c0-.1-.1-.1-.1-.2s-.1-.1-.1-.2 0-.1-.1-.1h-2.1c-.1 0-.3 0-.4.1-.1 0-.2.3-.2.5s-.2.4-.2.7h.4c.1 0 .2.1.3.1.1.1.1.2.1.3 0 .1 0 .2-.1.3-.1.1-.2.1-.3.1h-1.6c-.1 0-.2-.1-.2-.2-.2 0-.2 0-.2-.1zm3.3-5v.1s0 .1-.1.1v.2c0 .1-.1.1-.1.2s-.1.1-.1.2v.4s-.1.1-.1.2-.1.1-.1.2v.1s0 .1-.1.2l-.2.4c-.1.1 0 .1 0 .1v.1h1.9l-.6-1.4c-.1-.1-.1-.3-.1-.4 0-.1-.1-.3-.1-.4l-.3-.3z"/>
<path id="l_n" fill="#fff" fill-rule="nonzero" d="M45.9 25.3c0-.1 0-.1.1-.2s.1-.1.2-.1h.4v-.2l-.2-2.6v-1.9h-.2c-.1 0-.2 0-.2-.1-.1 0-.1-.1-.2-.1 0-.1-.1-.1-.1-.2s0-.2.1-.2c0-.1.1-.1.1-.2.1 0 .1-.1.2 0s.2 0 .2 0c.1 0 .3-.1.4-.1.1 0 .2-.1.4-.1.1 0 .2 0 .2.1s.1.1.2.2c0 .1.1.1.1.2s.1.1.1.2l1 1.4 1.3 2.2v-1.5c0-.5.1-1 .2-1.5v-.5h-.4c-.1 0-.2 0-.3-.1-.1-.1-.2-.2-.2-.3 0-.1 0-.1.1-.2 0-.1.1-.1.2-.1s.1-.1.2-.1h1.4c.1 0 .2 0 .2.1s.1.2.1.2c0 .1 0 .2-.1.3 0 .1-.1.1-.2.2H51v5c0 .1-.1.2-.2.3-.1.1-.2.1-.3.1-.1 0-.1 0-.2-.1-.1 0-.1-.1-.2-.1 0-.1-.1-.1-.1-.2s-.1-.1-.1-.2c-.1-.2-.2-.4-.3-.5-.1-.2-.2-.3-.3-.5l-1.2-2-.7-1v1.4l.2 2.7h.6c.1 0 .2 0 .3.1.1.1.1.2.1.3 0 .1 0 .2-.1.2 0 .1-.1.1-.2.2h-1.8c-.1 0-.3 0-.4-.1-.2-.1-.2-.3-.2-.4z"/>
<path id="l_k" fill="#fff" fill-rule="nonzero" d="M51.8 25.6c0-.1 0-.2.1-.3.1-.1.1-.1.2-.1h.2c.1 0 .1 0 .1-.1v-5H52c-.1 0-.2 0-.3-.1-.1-.1-.2-.1-.2-.3 0-.1 0-.2.1-.2 0-.1.1-.1.2-.1s.1-.1.2-.1h2c.1 0 .2 0 .2.1.1.1.1.2.1.3v.1s0 .1-.1.1l-.1.1h-.9v2.1c.3-.4.7-.7 1-1 .4-.3.7-.6 1.1-1-.2-.1-.3-.2-.3-.5 0-.1 0-.2.1-.3.1-.1.2-.1.3-.1h1.5c.1 0 .2.1.3.1.1.1.1.2.1.3 0 .2-.1.3-.2.3-.1.1-.2.1-.4.1l-.1.1c-.1 0-.1.1-.1.1L55 21.6c-.1 0-.1.1-.2.1-.1.1-.1.1-.1.2.1.3.1.6.2.9l.3.9c0 .1.1.3.1.4.1.1.1.3.2.4l.3.3c.1.1.2.2.4.2.1 0 .2 0 .2-.1l.2-.2s0-.1.1-.1v-.1c0-.2 0-.3-.1-.4-.1-.1-.1-.1-.2-.1s-.1-.1-.2-.1-.1-.1-.1-.3c0-.1 0-.2.1-.3.1-.1.2-.1.3-.1.2 0 .3 0 .4.1l.3.3c.1.1.1.3.2.4 0 .2.1.3.1.5s0 .3-.1.5-.2.3-.3.4c-.1.1-.3.2-.4.3-.1.1-.3.1-.5.1-.3 0-.6-.1-.9-.3-.3-.2-.5-.4-.7-.7-.1-.1-.1-.2-.2-.4-.1-.1-.1-.3-.1-.4 0 0 0-.1-.1-.2 0-.1-.1-.2-.1-.3 0-.1-.1-.2-.1-.3 0-.1-.1-.2-.1-.2v-.4c-.1.1-.3.2-.4.3l-.3.3v1.6h.4c.1 0 .2 0 .3.1.1.1.1.2.1.3 0 .1 0 .2-.1.2 0 .1-.1.1-.2.1s-.2.1-.2.1h-1c-.2 0-.3 0-.4-.1-.3.4-.3.3-.3.1z"/>
<path id="l_y" fill="#fff" fill-rule="nonzero" d="M35.7 35c0-.1 0-.1.1-.2l.1-.1c.1 0 .1-.1.2-.1h.2V33c0-.1-.1-.2-.2-.3-.1-.1-.2-.3-.2-.5-.1-.2-.2-.3-.2-.5-.1-.1-.1-.3-.2-.3v-.1s0-.1-.1-.1c0 0 0-.1-.1-.1V31c-.1-.2-.2-.4-.4-.6l-.3-.6h-.3c-.1 0-.2 0-.3-.1-.1-.1-.1-.2-.1-.3 0-.1 0-.2.1-.3.1-.1.2-.1.3-.1h.6c.1 0 .3 0 .4-.1h.6c.1 0 .1.1.2.2s.1.2.1.2c0 .1 0 .2-.1.2 0 .1-.1.1-.2.1l-.4.2c0 .1 0 .1.1.2 0 .1.1.2.1.2s.1.2.2.2c.1.1.1.1.1.2.1.2.3.5.4.7.1.2.2.5.4.7l.7-1.4c.1-.1.2-.3.3-.5.1-.2.2-.3.3-.4h-.5c-.2-.1-.3-.2-.3-.4 0-.1 0-.2.1-.3.1-.1.2-.1.3-.1H39c.1 0 .2 0 .2.1.1 0 .1.1.2.1.1.1.1.1.1.2v.2l-.1.1s-.1 0-.2.1H39l-.1.1s0 .1-.1.1c0 0 0 .1-.1.1v.1l-.7 1s0 .1-.1.2-.1.2-.2.4-.1.3-.2.5-.1.3-.2.4l-.2.4v1.8h.2c.1 0 .1 0 .2.1.1 0 .1.1.2.1 0 .1.1.1.1.2s0 .2-.1.2c-.1.1-.1.1-.2.1h-1.3c-.1 0-.2 0-.3-.1-.2-.1-.2-.2-.2-.4z"/>
<path id="l_o" fill="#fff" fill-rule="nonzero" d="M39.6 31.8c0-.3 0-.6.1-.9l.3-.9c.1-.3.3-.5.5-.7.2-.2.5-.4.8-.5.1-.1.3-.1.4-.2.1-.1.3-.1.4-.1h1l1 .4c.2.1.3.2.5.3.2.1.3.3.4.4.1.1.2.3.3.5.1.2.1.4.2.5v.6c0 .4-.1.7-.2 1.1-.1.4-.3.8-.5 1.1-.2.3-.5.6-.8.8-.3.2-.7.3-1.1.3-.5 0-1-.1-1.5-.2-.1 0-.3-.1-.4-.1-.1 0-.3-.1-.4-.2-.2-.1-.3-.3-.4-.5l-.3-.6c-.1-.2-.2-.4-.2-.6 0-.2-.1-.3-.1-.5zm.8-.1v.6c.1.3.2.6.4.8.2.2.4.4.7.4.4.1.9.1 1.3.1.2 0 .3 0 .4-.1.1-.1.3-.1.4-.2l.3-.3c.1-.1.2-.3.2-.4.1-.2.2-.5.2-.7.1-.2.1-.5.1-.7 0-.1-.1-.3-.1-.4 0-.2-.1-.3-.2-.4-.1-.1-.2-.3-.3-.4-.1-.1-.2-.2-.4-.2-.2-.1-.4-.2-.6-.2-.2-.1-.4-.1-.6-.1h-.6c-.3.1-.5.2-.7.3-.2.1-.3.3-.4.5-.1.2-.2.4-.3.7-.1.3.2.5.2.7z"/>
<path id="l_u" fill="#fff" fill-rule="nonzero" d="M46.4 30h-.2c-.1 0-.2-.1-.2-.1-.1 0-.1-.1-.2-.1 0-.1-.1-.1-.1-.2s0-.2.1-.3c.1-.1.2-.1.3-.1h1.6c.1 0 .2 0 .3.1.1.1.1.2.1.3 0 .1 0 .1-.1.2 0 .1-.1.1-.2.1l-.5.1v1.8l.1 1.8c0 .2.1.4.1.6.1.2.2.4.4.5h1l.2-.1c.1 0 .2-.1.2-.2l.2-.2c.1-.1.2-.2.2-.3.1-.1.1-.2.1-.3 0-.1.1-.2.1-.4v-3.1h-.3c-.1 0-.2 0-.3-.1-.1 0-.2-.1-.3-.1v-.3c0-.1 0-.2.1-.3.1-.1.2-.1.3-.1h1.5c.1 0 .1.1.1.1 0 .1.1.1.1.2s0 .1-.1.2c0 .1-.1.1-.1.1s-.1.1-.2.1V33l-.1.7c0 .1-.1.3-.1.4-.1.1-.2.3-.3.4-.1.1-.1.4-.2.5-.1.1-.2.2-.4.3 0 0-.1.1-.2.1s-.1.1-.2.1-.1.1-.2.1h-1.1c-.1 0-.2 0-.3-.1-.1-.1-.2-.1-.2-.1-.2-.2-.4-.3-.6-.6-.1-.2-.2-.5-.3-.7-.1-.3-.1-.5-.1-.8 0-.3 0-.5-.1-.8v-.6l.1-1.9z"/>
</defs>

<path fill="#95d400" fill-rule="nonzero" d="M58.6 41.5H26.4c-3.1 0-5.6-2.5-5.6-5.6V18.2c0-3.1 2.5-5.6 5.6-5.6h32.3c3.1 0 5.6 2.5 5.6 5.6v17.7c-.1 3.1-2.6 5.6-5.7 5.6z"/>

<g id="b1">
<use xlink:href="#l_t"/>
</g>
<g id="b2">
<use xlink:href="#l_t"/>
<use xlink:href="#l_h"/>
</g>
<g id="b3">
<use xlink:href="#l_t"/>
<use xlink:href="#l_h"/>
<use xlink:href="#l_a"/>
</g>
<g id="b4">
<use xlink:href="#l_t"/>
<use xlink:href="#l_h"/>
<use xlink:href="#l_a"/>
<use xlink:href="#l_n"/>
</g>
<g id="b5">
<use xlink:href="#l_t"/>
<use xlink:href="#l_h"/>
<use xlink:href="#l_a"/>
<use xlink:href="#l_n"/>
<use xlink:href="#l_k"/>
</g>
<g id="b6">
<use xlink:href="#l_t"/>
<use xlink:href="#l_h"/>
<use xlink:href="#l_a"/>
<use xlink:href="#l_n"/>
<use xlink:href="#l_k"/>
<use xlink:href="#l_y"/>
</g>
<g id="b7">
<use xlink:href="#l_t"/>
<use xlink:href="#l_h"/>
<use xlink:href="#l_a"/>
<use xlink:href="#l_n"/>
<use xlink:href="#l_k"/>
<use xlink:href="#l_y"/>
<use xlink:href="#l_o"/>
</g>
<g id="b8">
<use xlink:href="#l_t"/>
<use xlink:href="#l_h"/>
<use xlink:href="#l_a"/>
<use xlink:href="#l_n"/>
<use xlink:href="#l_k"/>
<use xlink:href="#l_y"/>
<use xlink:href="#l_o"/>
<use xlink:href="#l_u"/>
</g>
<g id="b9" opacity=".8">
<use xlink:href="#l_t"/>
<use xlink:href="#l_h"/>
<use xlink:href="#l_a"/>
<use xlink:href="#l_n"/>
<use xlink:href="#l_k"/>
<use xlink:href="#l_y"/>
<use xlink:href="#l_o"/>
<use xlink:href="#l_u"/>
</g>
<g id="b10" opacity=".6">
<use xlink:href="#l_t"/>
<use xlink:href="#l_h"/>
<use xlink:href="#l_a"/>
<use xlink:href="#l_n"/>
<use xlink:href="#l_k"/>
<use xlink:href="#l_y"/>
<use xlink:href="#l_o"/>
<use xlink:href="#l_u"/>
</g>
<g id="b11" opacity=".4">
<use xlink:href="#l_t"/>
<use xlink:href="#l_h"/>
<use xlink:href="#l_a"/>
<use xlink:href="#l_n"/>
<use xlink:href="#l_k"/>
<use xlink:href="#l_y"/>
<use xlink:href="#l_o"/>
<use xlink:href="#l_u"/>
</g>
<g id="b12" opacity=".2">
<use xlink:href="#l_t"/>
<use xlink:href="#l_h"/>
<use xlink:href="#l_a"/>
<use xlink:href="#l_n"/>
<use xlink:href="#l_k"/>
<use xlink:href="#l_y"/>
<use xlink:href="#l_o"/>
<use xlink:href="#l_u"/>
</g>

<g id="a1" fill="#95d400" fill-rule="nonzero">
  <path d="M67.39 29.9l.23.15-.27.05-.14.23-.05-.26-.24-.15.27-.05.14-.23.06.26z"/>
  <path d="M65.97 31.12s.59-.98.99-1c.1.05-.04.16-.04.16s-.54.33-.95.84z"/>
  <path d="M67.14 30.64l.13.13-.18-.01-.13.12.01-.18-.13-.13.18.01.13-.12-.01.18z"/>
  <path d="M66.07 31.3s.54-.64.79-.58c.06.05-.05.09-.05.09s-.41.24-.74.49z"/>
  <path d="M66.61 29.78l.18.04-.16.09-.04.18-.09-.16-.18-.04.16-.09.04-.17.09.15z"/>
  <path d="M65.9 30.87s.28-.78.52-.87c.07.01.01.11.01.11s-.38.37-.53.76z"/>
  <g>
    <path d="M17.61 29.9l-.23.15.27.05.14.23.05-.26.24-.15-.27-.05-.14-.23-.06.26z"/>
    <path d="M19.03 31.12s-.59-.98-.99-1c-.1.05.05.16.05.16s.53.33.94.84z"/>
    <path d="M17.86 30.64l-.13.13.18-.01.13.12-.01-.18.13-.13-.18.01-.13-.12.01.18z"/>
    <path d="M18.93 31.3s-.54-.64-.79-.58c-.06.05.05.09.05.09s.41.24.74.49z"/>
    <path d="M18.39 29.78l-.18.04.16.09.04.18.09-.16.18-.04-.16-.09-.04-.17-.09.15z"/>
    <path d="M19.1 30.87s-.28-.78-.52-.87c-.07.01-.01.11-.01.11s.38.37.53.76z"/>
  </g>
</g>
<g id="a2" fill="#95d400" fill-rule="nonzero">
  <path d="M68.88 28.5l.46.3-.54.1-.28.46-.1-.52-.48-.3.54-.1.28-.46.12.52z"/>
  <path d="M66.04 30.94s1.18-1.96 1.98-2c.2.1-.08.32-.08.32s-1.08.66-1.9 1.68z"/>
  <path d="M68.38 29.98l.26.26-.36-.02-.26.24.02-.36-.26-.26.36.02.26-.24-.02.36z"/>
  <path d="M66.24 31.3s1.08-1.28 1.58-1.16c.12.1-.1.18-.1.18s-.82.48-1.48.98z"/>
  <path d="M67.32 28.26l.36.08-.32.18-.08.36-.18-.32-.36-.08.32-.18.08-.34.18.3z"/>
  <path d="M65.9 30.44s.56-1.56 1.04-1.74c.14.02.02.22.02.22s-.76.74-1.06 1.52z"/>
  <g>
    <path d="M16.12 28.5l-.46.3.54.1.28.46.1-.52.48-.3-.54-.1-.28-.46-.12.52z"/>
    <path d="M18.96 30.94s-1.18-1.96-1.98-2c-.2.1.1.32.1.32s1.06.66 1.88 1.68z"/>
    <path d="M16.62 29.98l-.26.26.36-.02.26.24-.02-.36.26-.26-.36.02-.26-.24.02.36z"/>
    <path d="M18.76 31.3s-1.08-1.28-1.58-1.16c-.12.1.1.18.1.18s.82.48 1.48.98z"/>
    <path d="M17.68 28.26l-.36.08.32.18.08.36.18-.32.36-.08-.32-.18-.08-.34-.18.3z"/>
    <path d="M19.1 30.44s-.56-1.56-1.04-1.74c-.14.02-.02.22-.02.22s.76.74 1.06 1.52z"/>
  </g>
</g>
<g id="a3" fill="#95d400" fill-rule="nonzero">
  <path d="M71.86 25.7l.92.6-1.08.2-.56.92-.2-1.04-.96-.6 1.08-.2.56-.92.24 1.04z"/>
  <path d="M66.18 30.58s2.36-3.92 3.96-4c.4.2-.16.64-.16.64s-2.16 1.32-3.8 3.36z"/>
  <path d="M70.86 28.66l.52.52-.72-.04-.52.48.04-.72-.52-.52.72.04.52-.48-.04.72z"/>
  <path d="M66.58 31.3s2.16-2.56 3.16-2.32c.24.2-.2.36-.2.36s-1.64.96-2.96 1.96z"/>
  <path d="M68.74 25.22l.72.16-.64.36-.16.72-.36-.64-.72-.16.64-.36.16-.68.36.6z"/>
  <path d="M65.9 29.58s1.12-3.12 2.08-3.48c.28.04.04.44.04.44s-1.52 1.48-2.12 3.04z"/>
  <g>
    <path d="M13.14 25.7l-.92.6 1.08.2.56.92.2-1.04.96-.6-1.08-.2-.56-.92-.24 1.04z"/>
    <path d="M18.82 30.58s-2.36-3.92-3.96-4c-.4.2.2.64.2.64s2.12 1.32 3.76 3.36z"/>
    <path d="M14.14 28.66l-.52.52.72-.04.52.48-.04-.72.52-.52-.72.04-.52-.48.04.72z"/>
    <path d="M18.42 31.3s-2.16-2.56-3.16-2.32c-.24.2.2.36.2.36s1.64.96 2.96 1.96z"/>
    <path d="M16.26 25.22l-.72.16.64.36.16.72.36-.64.72-.16-.64-.36-.16-.68-.36.6z"/>
    <path d="M19.1 29.58s-1.12-3.12-2.08-3.48c-.28.04-.04.44-.04.44s1.52 1.48 2.12 3.04z"/>
  </g>
</g>
<g id="a4" fill="#95d400" fill-rule="nonzero">
  <path d="M74.84 22.9l1.38.9-1.62.3-.84 1.38-.3-1.56-1.44-.9 1.62-.3.84-1.38.36 1.56z"/>
  <path d="M66.32 30.22s3.54-5.88 5.94-6c.6.3-.24.96-.24.96s-3.24 1.98-5.7 5.04z"/>
  <path d="M73.34 27.34l.78.78-1.08-.06-.78.72.06-1.08-.78-.78 1.08.06.78-.72-.06 1.08z"/>
  <path d="M66.92 31.3s3.24-3.84 4.74-3.48c.36.3-.3.54-.3.54s-2.46 1.44-4.44 2.94z"/>
  <path d="M70.16 22.18l1.08.24-.96.54-.24 1.08-.54-.96-1.08-.24.96-.54.24-1.02.54.9z"/>
  <path d="M65.9 28.72s1.68-4.68 3.12-5.22c.42.06.06.66.06.66s-2.28 2.22-3.18 4.56z"/>
  <g>
    <path d="M10.16 22.9l-1.38.9 1.62.3.84 1.38.3-1.56 1.44-.9-1.62-.3-.84-1.38-.36 1.56z"/>
    <path d="M18.68 30.22s-3.54-5.88-5.94-6c-.6.3.3.96.3.96s3.18 1.98 5.64 5.04z"/>
    <path d="M11.66 27.34l-.78.78 1.08-.06.78.72-.06-1.08.78-.78-1.08.06-.78-.72.06 1.08z"/>
    <path d="M18.08 31.3s-3.24-3.84-4.74-3.48c-.36.3.3.54.3.54s2.46 1.44 4.44 2.94z"/>
    <path d="M14.84 22.18l-1.08.24.96.54.24 1.08.54-.96 1.08-.24-.96-.54-.24-1.02-.54.9z"/>
    <path d="M19.1 28.72s-1.68-4.68-3.12-5.22c-.42.06-.06.66-.06.66s2.28 2.22 3.18 4.56z"/>
  </g>
</g>
<g id="a5" fill="#95d400" fill-rule="nonzero">
  <path d="M77.522 20.38l1.794 1.17-2.106.39-1.092 1.794-.39-2.028-1.872-1.17 2.106-.39 1.092-1.794.468 2.028z"/>
  <path d="M66.446 29.896s4.602-7.644 7.722-7.8c.78.39-.312 1.248-.312 1.248s-4.212 2.574-7.41 6.552z"/>
  <path d="M75.572 26.152l1.014 1.014-1.404-.078-1.014.936.078-1.404-1.014-1.014 1.404.078 1.014-.936-.078 1.404z"/>
  <path d="M67.226 31.3s4.212-4.992 6.162-4.524c.468.39-.39.702-.39.702S69.8 29.35 67.226 31.3z"/>
  <path d="M71.438 19.444l1.404.312-1.248.702-.312 1.404-.702-1.248-1.404-.312 1.248-.702.312-1.326.702 1.17z"/>
  <path d="M65.9 27.946s2.184-6.084 4.056-6.786c.546.078.078.858.078.858s-2.964 2.886-4.134 5.928z"/>
  <g>
    <path d="M7.478 20.38l-1.794 1.17 2.106.39 1.092 1.794.39-2.028 1.872-1.17-2.106-.39-1.092-1.794-.468 2.028z"/>
    <path d="M18.554 29.896s-4.602-7.644-7.722-7.8c-.78.39.39 1.248.39 1.248s4.134 2.574 7.332 6.552z"/>
    <path d="M9.428 26.152l-1.014 1.014 1.404-.078 1.014.936-.078-1.404 1.014-1.014-1.404.078-1.014-.936.078 1.404z"/>
    <path d="M17.774 31.3s-4.212-4.992-6.162-4.524c-.468.39.39.702.39.702S15.2 29.35 17.774 31.3z"/>
    <path d="M13.562 19.444l-1.404.312 1.248.702.312 1.404.702-1.248 1.404-.312-1.248-.702-.312-1.326-.702 1.17z"/>
    <path d="M19.1 27.946s-2.184-6.084-4.056-6.786c-.546.078-.078.858-.078.858s2.964 2.886 4.134 5.928z"/>
  </g>
</g>
<g id="a6" fill="#95d400" fill-rule="nonzero">
  <path d="M79.265 18.742l2.063 1.345-2.422.449-1.255 2.063-.449-2.332-2.153-1.346 2.422-.448 1.256-2.063.538 2.332z"/>
  <path d="M66.528 29.685s5.292-8.79 8.88-8.97c.897.449-.359 1.436-.359 1.436s-4.843 2.96-8.521 7.534z"/>
  <path d="M77.023 25.38l1.166 1.166-1.615-.09-1.166 1.077.09-1.615-1.166-1.166 1.614.09 1.166-1.077-.089 1.615z"/>
  <path d="M67.425 31.3s4.844-5.741 7.086-5.203c.538.449-.448.808-.448.808s-3.678 2.153-6.638 4.395z"/>
  <path d="M72.269 17.666l1.614.358-1.435.808-.359 1.614-.807-1.435-1.615-.359 1.436-.807.358-1.525.808 1.346z"/>
  <path d="M65.9 27.443s2.512-6.997 4.664-7.804c.628.09.09.987.09.987s-3.409 3.319-4.754 6.817z"/>
  <g>
    <path d="M5.735 18.742l-2.063 1.345 2.421.449 1.256 2.063.449-2.332 2.153-1.346-2.422-.448-1.256-2.063-.538 2.332z"/>
    <path d="M18.472 29.685s-5.292-8.79-8.88-8.97c-.897.449.448 1.436.448 1.436s4.754 2.96 8.432 7.534z"/>
    <path d="M7.977 25.38l-1.166 1.166 1.615-.09 1.166 1.077-.09-1.615 1.166-1.166-1.614.09-1.167-1.077.09 1.615z"/>
    <path d="M17.575 31.3s-4.844-5.741-7.086-5.203c-.538.449.448.808.448.808s3.678 2.152 6.638 4.395z"/>
    <path d="M12.731 17.666l-1.614.358 1.435.808.359 1.614.807-1.435 1.615-.359-1.436-.807-.358-1.525-.808 1.346z"/>
    <path d="M19.1 27.443s-2.512-6.997-4.664-7.804c-.628.09-.09.987-.09.987s3.409 3.319 4.754 6.817z"/>
  </g>
</g>
<g id="a7" fill="#95d400" fill-rule="nonzero">
  <path d="M80.602 17.486l2.269 1.48-2.664.494-1.381 2.269-.494-2.565-2.368-1.48 2.664-.494 1.382-2.269.592 2.565z"/>
  <path d="M66.591 29.524s5.821-9.67 9.768-9.867c.987.493-.395 1.579-.395 1.579s-5.328 3.256-9.373 8.288z"/>
  <path d="M78.135 24.788l1.283 1.282-1.776-.098-1.283 1.184.099-1.776-1.283-1.283 1.776.099 1.283-1.184-.099 1.776z"/>
  <path d="M67.577 31.3s5.329-6.315 7.795-5.723c.592.493-.493.888-.493.888s-4.046 2.368-7.302 4.835z"/>
  <path d="M72.906 16.302l1.776.395-1.579.888-.395 1.776-.888-1.579-1.776-.394 1.579-.889.395-1.677.888 1.48z"/>
  <path d="M65.9 27.057s2.763-7.696 5.131-8.584c.691.099.099 1.085.099 1.085s-3.75 3.651-5.23 7.499z"/>
  <g>
    <path d="M4.398 17.486l-2.269 1.48 2.664.494 1.381 2.269.494-2.565 2.368-1.48-2.664-.494-1.382-2.269-.592 2.565z"/>
    <path d="M18.409 29.524s-5.821-9.67-9.768-9.867c-.987.493.493 1.579.493 1.579s5.23 3.256 9.275 8.288z"/>
    <path d="M6.865 24.788L5.582 26.07l1.776-.098 1.283 1.184-.099-1.776 1.283-1.283-1.776.099-1.283-1.184.099 1.776z"/>
    <path d="M17.423 31.3s-5.329-6.315-7.795-5.723c-.592.493.493.888.493.888s4.046 2.368 7.302 4.835z"/>
    <path d="M12.094 16.302l-1.776.395 1.579.888.395 1.776.888-1.579 1.776-.394-1.579-.889-.395-1.677-.888 1.48z"/>
    <path d="M19.1 27.057s-2.763-7.696-5.131-8.584c-.691.099-.099 1.085-.099 1.085s3.75 3.651 5.23 7.499z"/>
  </g>
</g>
<g id="a8" fill="#95d400" fill-rule="nonzero">
  <path d="M81.337 16.796l2.383 1.554-2.797.518-1.451 2.382-.518-2.693-2.486-1.554 2.797-.518 1.45-2.383.622 2.694z"/>
  <path d="M66.625 29.435s6.113-10.153 10.257-10.36c1.036.518-.414 1.657-.414 1.657s-5.595 3.419-9.843 8.703z"/>
  <path d="M78.747 24.462l1.347 1.347-1.865-.104-1.347 1.244.104-1.865-1.347-1.347 1.865.104 1.346-1.244-.103 1.865z"/>
  <path d="M67.661 31.3s5.595-6.631 8.185-6.009c.622.518-.518.932-.518.932S71.08 28.71 67.661 31.3z"/>
  <path d="M73.256 15.552l1.865.415-1.658.932-.414 1.865-.933-1.658-1.865-.414 1.658-.933.414-1.761.933 1.554z"/>
  <path d="M65.9 26.845s2.901-8.081 5.387-9.013c.726.103.104 1.139.104 1.139s-3.937 3.834-5.491 7.874z"/>
  <g>
    <path d="M3.663 16.796L1.28 18.35l2.797.518 1.451 2.382.518-2.693 2.486-1.554-2.797-.518-1.45-2.383-.622 2.694z"/>
    <path d="M18.375 29.435s-6.113-10.153-10.257-10.36c-1.036.518.518 1.657.518 1.657s5.491 3.419 9.739 8.703z"/>
    <path d="M6.253 24.462l-1.347 1.347 1.865-.104 1.347 1.244-.104-1.865 1.347-1.347-1.865.104-1.346-1.244.103 1.865z"/>
    <path d="M17.339 31.3s-5.595-6.631-8.185-6.009c-.622.518.518.932.518.932s4.248 2.487 7.667 5.077z"/>
    <path d="M11.744 15.552l-1.865.415 1.658.932.414 1.865.933-1.658 1.865-.414-1.658-.933-.414-1.761-.933 1.554z"/>
    <path d="M19.1 26.845s-2.901-8.081-5.387-9.013c-.726.103-.104 1.139-.104 1.139s3.937 3.834 5.491 7.874z"/>
  </g>
</g>
<g id="a9" fill="#95d400" fill-rule="nonzero">
  <path d="M81.8 16.36l2.454 1.601-2.881.534-1.494 2.454-.533-2.775-2.561-1.6 2.881-.534 1.494-2.454.64 2.774z"/>
  <path d="M66.647 29.379s6.296-10.458 10.564-10.671c1.068.534-.426 1.707-.426 1.707s-5.763 3.522-10.138 8.964z"/>
  <path d="M79.132 24.257l1.387 1.387-1.92-.106-1.388 1.28.107-1.921-1.387-1.387 1.921.107 1.387-1.281-.107 1.921z"/>
  <path d="M67.714 31.3s5.763-6.83 8.43-6.189c.641.533-.533.96-.533.96s-4.375 2.561-7.897 5.229z"/>
  <path d="M73.477 15.08l1.92.427-1.707.96-.427 1.921-.96-1.707-1.921-.427 1.707-.961.427-1.814.961 1.601z"/>
  <path d="M65.9 26.711s2.988-8.323 5.549-9.284c.747.107.107 1.174.107 1.174s-4.055 3.949-5.656 8.11z"/>
  <g>
    <path d="M3.2 16.36L.746 17.961l2.881.534 1.494 2.454.533-2.775 2.561-1.6-2.881-.534-1.494-2.454-.64 2.774z"/>
    <path d="M18.353 29.379S12.057 18.921 7.789 18.708c-1.068.534.533 1.707.533 1.707s5.656 3.522 10.031 8.964z"/>
    <path d="M5.868 24.257l-1.387 1.387 1.92-.106 1.388 1.28-.107-1.921 1.387-1.387-1.921.107-1.387-1.281.107 1.921z"/>
    <path d="M17.286 31.3s-5.763-6.83-8.43-6.189c-.641.533.533.96.533.96s4.375 2.561 7.897 5.229z"/>
    <path d="M11.523 15.08l-1.92.427 1.707.96.427 1.921.96-1.707 1.921-.427-1.707-.961-.427-1.814-.961 1.601z"/>
    <path d="M19.1 26.711s-2.988-8.323-5.549-9.284c-.747.107-.107 1.174-.107 1.174s4.055 3.949 5.656 8.11z"/>
  </g>
</g>
<g id="a10" fill="#95d400" fill-rule="nonzero">
  <path d="M81.959 16.211l2.479 1.617-2.91.539-1.509 2.478-.539-2.802-2.587-1.616 2.91-.539 1.509-2.479.647 2.802z"/>
  <path d="M66.654 29.36s6.359-10.562 10.671-10.778c1.077.539-.432 1.725-.432 1.725s-5.82 3.556-10.239 9.053z"/>
  <path d="M79.265 24.187l1.401 1.401-1.94-.108-1.401 1.293.107-1.94-1.401-1.401 1.94.108 1.401-1.293-.107 1.94z"/>
  <path d="M67.732 31.3s5.82-6.898 8.515-6.251c.646.539-.539.97-.539.97s-4.419 2.587-7.976 5.281z"/>
  <path d="M73.552 14.918l1.94.431-1.724.97-.431 1.94-.97-1.725-1.94-.431 1.724-.97.431-1.832.97 1.617z"/>
  <path d="M65.9 26.666s3.018-8.407 5.604-9.377c.755.108.108 1.185.108 1.185s-4.095 3.988-5.712 8.192z"/>
  <g>
    <path d="M3.041 16.211L.562 17.828l2.91.539 1.509 2.478.539-2.802 2.587-1.616-2.91-.539-1.509-2.479-.647 2.802z"/>
    <path d="M18.346 29.36S11.987 18.798 7.675 18.582c-1.077.539.539 1.725.539 1.725s5.713 3.556 10.132 9.053z"/>
    <path d="M5.735 24.187l-1.401 1.401 1.94-.108 1.401 1.293-.107-1.94 1.401-1.401-1.94.108-1.401-1.293.107 1.94z"/>
    <path d="M17.268 31.3s-5.82-6.898-8.515-6.251c-.646.539.539.97.539.97s4.419 2.587 7.976 5.281z"/>
    <path d="M11.448 14.918l-1.94.431 1.724.97.431 1.94.97-1.725 1.94-.431-1.724-.97-.431-1.832-.97 1.617z"/>
    <path d="M19.1 26.666s-3.018-8.407-5.604-9.377c-.755.108-.108 1.185-.108 1.185s4.095 3.988 5.712 8.192z"/>
  </g>
</g>
<g id="a11" fill="#95d400" fill-rule="nonzero" opacity=".8">
  <path d="M82.12 16.06l2.503 1.633-2.939.544-1.524 2.504-.544-2.83-2.613-1.633 2.939-.544 1.524-2.504.654 2.83z"/>
  <path d="M66.662 29.341s6.423-10.668 10.777-10.886c1.088.544-.436 1.742-.436 1.742s-5.878 3.592-10.341 9.144z"/>
  <path d="M79.398 24.115l1.415 1.416-1.959-.109-1.415 1.306.109-1.959-1.415-1.416 1.959.109 1.415-1.306-.109 1.959z"/>
  <path d="M67.751 31.3s5.878-6.967 8.599-6.314c.653.545-.544.98-.544.98s-4.463 2.613-8.055 5.334z"/>
  <path d="M73.629 14.754l1.959.435-1.741.98-.436 1.959-.98-1.741-1.959-.436 1.742-.979.435-1.851.98 1.633z"/>
  <path d="M65.9 26.619s3.048-8.491 5.661-9.47c.762.109.108 1.197.108 1.197s-4.136 4.028-5.769 8.273z"/>
  <g>
    <path d="M2.88 16.06L.377 17.693l2.939.544 1.524 2.504.544-2.83 2.613-1.633-2.939-.544-1.524-2.504-.654 2.83z"/>
    <path d="M18.338 29.341S11.915 18.673 7.561 18.455c-1.088.544.544 1.742.544 1.742s5.77 3.592 10.233 9.144z"/>
    <path d="M5.602 24.115l-1.415 1.416 1.959-.109 1.415 1.306-.109-1.959 1.415-1.416-1.959.109-1.415-1.306.109 1.959z"/>
    <path d="M17.249 31.3s-5.878-6.967-8.599-6.314c-.653.545.544.98.544.98s4.463 2.613 8.055 5.334z"/>
    <path d="M11.371 14.754l-1.959.435 1.741.98.436 1.959.98-1.741 1.959-.436-1.742-.979-.435-1.851-.98 1.633z"/>
    <path d="M19.1 26.619s-3.048-8.491-5.661-9.47c-.762.109-.108 1.197-.108 1.197s4.136 4.028 5.769 8.273z"/>
  </g>
</g>
<g id="a12" fill="#95d400" fill-rule="nonzero" opacity=".6">
  <path d="M82.282 15.908l2.529 1.649-2.969.55-1.539 2.528-.55-2.858-2.639-1.649 2.969-.55 1.539-2.529.66 2.859z"/>
  <path d="M66.67 29.321s6.486-10.775 10.884-10.995c1.1.55-.44 1.76-.44 1.76s-5.937 3.628-10.444 9.235z"/>
  <path d="M79.533 24.044l1.429 1.429-1.979-.11-1.429 1.319.11-1.979-1.429-1.429 1.979.11 1.429-1.319-.11 1.979z"/>
  <path d="M67.769 31.3s5.937-7.036 8.686-6.377c.659.55-.55.99-.55.99s-4.508 2.638-8.136 5.387z"/>
  <path d="M73.706 14.588l1.979.44-1.759.99-.44 1.979-.989-1.759-1.979-.44 1.759-.99.44-1.869.989 1.649z"/>
  <path d="M65.9 26.572s3.078-8.575 5.717-9.565c.77.11.11 1.21.11 1.21s-4.178 4.068-5.827 8.355z"/>
  <g>
    <path d="M2.718 15.908L.189 17.557l2.969.55 1.539 2.528.55-2.858 2.639-1.649-2.969-.55-1.539-2.529-.66 2.859z"/>
    <path d="M18.33 29.321S11.844 18.546 7.446 18.326c-1.1.55.55 1.76.55 1.76s5.827 3.628 10.334 9.235z"/>
    <path d="M5.467 24.044l-1.429 1.429 1.979-.11 1.429 1.319-.11-1.979 1.429-1.429-1.979.11-1.429-1.319.11 1.979z"/>
    <path d="M17.231 31.3s-5.937-7.036-8.686-6.377c-.659.55.55.99.55.99s4.508 2.638 8.136 5.387z"/>
    <path d="M11.294 14.588l-1.979.44 1.759.99.44 1.979.989-1.759 1.979-.44-1.759-.99-.44-1.869-.989 1.649z"/>
    <path d="M19.1 26.572s-3.078-8.575-5.717-9.565c-.77.11-.11 1.21-.11 1.21s4.178 4.068 5.827 8.355z"/>
  </g>
</g>
<g id="a13" fill="#95d400" fill-rule="nonzero" opacity=".4">
  <path d="M82.282 15.908l2.529 1.649-2.969.55-1.539 2.528-.55-2.858-2.639-1.649 2.969-.55 1.539-2.529.66 2.859z"/>
  <path d="M66.67 29.321s6.486-10.775 10.884-10.995c1.1.55-.44 1.76-.44 1.76s-5.937 3.628-10.444 9.235z"/>
  <path d="M79.533 24.044l1.429 1.429-1.979-.11-1.429 1.319.11-1.979-1.429-1.429 1.979.11 1.429-1.319-.11 1.979z"/>
  <path d="M67.769 31.3s5.937-7.036 8.686-6.377c.659.55-.55.99-.55.99s-4.508 2.638-8.136 5.387z"/>
  <path d="M73.706 14.588l1.979.44-1.759.99-.44 1.979-.989-1.759-1.979-.44 1.759-.99.44-1.869.989 1.649z"/>
  <path d="M65.9 26.572s3.078-8.575 5.717-9.565c.77.11.11 1.21.11 1.21s-4.178 4.068-5.827 8.355z"/>
  <g>
    <path d="M2.718 15.908L.189 17.557l2.969.55 1.539 2.528.55-2.858 2.639-1.649-2.969-.55-1.539-2.529-.66 2.859z"/>
    <path d="M18.33 29.321S11.844 18.546 7.446 18.326c-1.1.55.55 1.76.55 1.76s5.827 3.628 10.334 9.235z"/>
    <path d="M5.467 24.044l-1.429 1.429 1.979-.11 1.429 1.319-.11-1.979 1.429-1.429-1.979.11-1.429-1.319.11 1.979z"/>
    <path d="M17.231 31.3s-5.937-7.036-8.686-6.377c-.659.55.55.99.55.99s4.508 2.638 8.136 5.387z"/>
    <path d="M11.294 14.588l-1.979.44 1.759.99.44 1.979.989-1.759 1.979-.44-1.759-.99-.44-1.869-.989 1.649z"/>
    <path d="M19.1 26.572s-3.078-8.575-5.717-9.565c-.77.11-.11 1.21-.11 1.21s4.178 4.068 5.827 8.355z"/>
  </g>
</g>
<g id="a14" fill="#95d400" fill-rule="nonzero" opacity=".2">
  <path d="M82.282 15.908l2.529 1.649-2.969.55-1.539 2.528-.55-2.858-2.639-1.649 2.969-.55 1.539-2.529.66 2.859z"/>
  <path d="M66.67 29.321s6.486-10.775 10.884-10.995c1.1.55-.44 1.76-.44 1.76s-5.937 3.628-10.444 9.235z"/>
  <path d="M79.533 24.044l1.429 1.429-1.979-.11-1.429 1.319.11-1.979-1.429-1.429 1.979.11 1.429-1.319-.11 1.979z"/>
  <path d="M67.769 31.3s5.937-7.036 8.686-6.377c.659.55-.55.99-.55.99s-4.508 2.638-8.136 5.387z"/>
  <path d="M73.706 14.588l1.979.44-1.759.99-.44 1.979-.989-1.759-1.979-.44 1.759-.99.44-1.869.989 1.649z"/>
  <path d="M65.9 26.572s3.078-8.575 5.717-9.565c.77.11.11 1.21.11 1.21s-4.178 4.068-5.827 8.355z"/>
  <g>
    <path d="M2.718 15.908L.189 17.557l2.969.55 1.539 2.528.55-2.858 2.639-1.649-2.969-.55-1.539-2.529-.66 2.859z"/>
    <path d="M18.33 29.321S11.844 18.546 7.446 18.326c-1.1.55.55 1.76.55 1.76s5.827 3.628 10.334 9.235z"/>
    <path d="M5.467 24.044l-1.429 1.429 1.979-.11 1.429 1.319-.11-1.979 1.429-1.429-1.979.11-1.429-1.319.11 1.979z"/>
    <path d="M17.231 31.3s-5.937-7.036-8.686-6.377c-.659.55.55.99.55.99s4.508 2.638 8.136 5.387z"/>
    <path d="M11.294 14.588l-1.979.44 1.759.99.44 1.979.989-1.759 1.979-.44-1.759-.99-.44-1.869-.989 1.649z"/>
    <path d="M19.1 26.572s-3.078-8.575-5.717-9.565c-.77.11-.11 1.21-.11 1.21s4.178 4.068 5.827 8.355z"/>
  </g>
</g>
<style>
/* <![CDATA[ */

#a1 {animation-name: a1}
#a2 {animation-name: a2}
#a3 {animation-name: a3}
#a4 {animation-name: a4}
#a5 {animation-name: a5}
#a6 {animation-name: a6}
#a7 {animation-name: a7}
#a8 {animation-name: a8}
#a9 {animation-name: a9}
#a10 {animation-name: a10}
#a11 {animation-name: a11}
#a12 {animation-name: a12}
#a13 {animation-name: a13}
#a14 {animation-name: a14}

@keyframes a1 {0.00%{visibility: visible} 5.00%{visibility: hidden}}
@keyframes a2 {5.00%{visibility: visible} 10.00%{visibility: hidden}}
@keyframes a3 {10.00%{visibility: visible} 15.00%{visibility: hidden}}
@keyframes a4 {15.00%{visibility: visible} 20.00%{visibility: hidden}}
@keyframes a5 {20.00%{visibility: visible} 25.00%{visibility: hidden}}
@keyframes a6 {25.00%{visibility: visible} 30.00%{visibility: hidden}}
@keyframes a7 {30.00%{visibility: visible} 35.00%{visibility: hidden}}
@keyframes a8 {35.00%{visibility: visible} 40.00%{visibility: hidden}}
@keyframes a9 {40.00%{visibility: visible} 45.00%{visibility: hidden}}
@keyframes a10 {45.00%{visibility: visible} 50.00%{visibility: hidden}}
@keyframes a11 {50.00%{visibility: visible} 55.00%{visibility: hidden}}
@keyframes a12 {55.00%{visibility: visible} 60.00%{visibility: hidden}}
@keyframes a13 {60.00%{visibility: visible} 65.00%{visibility: hidden}}
@keyframes a14 {65.00%{visibility: visible} 70.00%{visibility: hidden}}

#b1 {animation-name: b1}
#b2 {animation-name: b2}
#b3 {animation-name: b3}
#b4 {animation-name: b4}
#b5 {animation-name: b5}
#b6 {animation-name: b6}
#b7 {animation-name: b7}
#b8 {animation-name: b8}
#b9 {animation-name: b9}
#b10 {animation-name: b10}
#b11 {animation-name: b11}
#b12 {animation-name: b12}

@keyframes b1 {0.00%{visibility: visible} 2.08%{visibility: hidden}}
@keyframes b2 {2.08%{visibility: visible} 4.17%{visibility: hidden}}
@keyframes b3 {4.17%{visibility: visible} 6.25%{visibility: hidden}}
@keyframes b4 {6.25%{visibility: visible} 8.33%{visibility: hidden}}
@keyframes b5 {8.33%{visibility: visible} 10.42%{visibility: hidden}}
@keyframes b6 {10.42%{visibility: visible} 12.50%{visibility: hidden}}
@keyframes b7 {12.50%{visibility: visible} 14.58%{visibility: hidden}}
@keyframes b8 {14.58%{visibility: visible} 81.25%{visibility: hidden}}
@keyframes b9 {81.25%{visibility: visible} 83.33%{visibility: hidden}}
@keyframes b10 {83.33%{visibility: visible} 85.42%{visibility: hidden}}
@keyframes b11 {85.42%{visibility: visible} 87.50%{visibility: hidden}}
@keyframes b12 {87.50%{visibility: visible} 89.58%{visibility: hidden}}

/* ]]> */
</style>
</svg>
