<svg xmlns="http://www.w3.org/2000/svg" viewBox="0 0 85 53">
<style>
  /* <![CDATA[ */
    #prevs {
        animation: prevs 5s infinite;
    }
    @keyframes prevs {
        0% {
            transform: translate(0px, 0px);
        }
        16% {
            transform: translate(0px, -27.3px);
        }
        33%, 100% {
            transform: translate(0px, -54.6px);
        }
    }
    #active {
        animation: active 5s infinite;
    }
    @keyframes active {
        0%, 33%, 66%, 100% {
            opacity: 0;
        }
        35%, 65% {
            opacity: 1;
        }
    }
    #big {
        animation: big 5s infinite;
    }
    @keyframes big {
        0%, 40%, 100% {
            opacity: 0;
            transform: translate(48.3px, 33.48px) scale(0) translate(-48.3px, -33.48px);
        }
        50%, 90% {
            opacity: 1;
            transform: translate(48.3px, 33.48px) scale(1) translate(-48.3px, -33.48px);
        }
    }
  /* ]]> */
</style>
  <g id="screen">
    <path fill="#F7FFE2" stroke="#95D400" d="M17.433 37.903V11.972a2.448 2.448 0 012.447-2.447h45.24a2.448 2.448 0 012.447 2.447v25.931a2.448 2.448 0 01-2.447 2.447H19.88a2.448 2.448 0 01-2.447-2.447z"/>
    <path fill="#FFF" stroke="#95D400" d="M17.433 37.903v-2.192h50.134v2.192a2.448 2.448 0 01-2.447 2.447H19.88a2.448 2.448 0 01-2.447-2.447z"/>
    <rect width="9.671" height="4.888" x="37.664" y="40.35" fill="#FFF" stroke="#95D400"/>
    <polygon fill="#95D400" points="50.5 45.237 47.336 44.143 37.664 44.143 34.5 45.237 34.5 46.474 50.5 46.474"/>
    <circle cx="42.5" cy="38.03" r=".744" fill="#95D400"/>
    <line x1="23.604" x2="48.851" y1="13.308" y2="13.308" fill="none" stroke="#95D400"/>
    <line x1="23.604" x2="32.748" y1="16.869" y2="16.869" fill="none" stroke="#95D400"/>
    <line x1="23.604" x2="32.748" y1="19.267" y2="19.267" fill="none" stroke="#95D400"/>
    <line x1="23.604" x2="32.748" y1="21.724" y2="21.724" fill="none" stroke="#95D400"/>
    <line x1="23.604" x2="32.748" y1="24.625" y2="24.625" fill="none" stroke="#95D400" stroke-width="2"/>
    <rect width="7.033" height="2.258" x="53.933" y="12.176" fill="#95D400"/>
  </g>
  <clipPath id="prev_clp">
      <rect width="29" height="19" x="34" y="15.7"/>
  </clipPath>
  <g clip-path="url(#prev_clp)">
    <g id="prevs">
      <rect width="24.766" height="14.369" x="35.925" y="19.117" fill="#FFF" stroke="#95D400"/>
      <polygon fill="#95D400" points="46.5 30.021 46.5 22.583 51.842 26.302"/>
      <line x1="35.42" x2="61.169" y1="16.884" y2="16.884" fill="#FFF" stroke="#95D400"/>
      <line x1="35.42" x2="61.169" y1="14.733" y2="14.733" fill="#FFF" stroke="#95D400"/>
      <line x1="35.42" x2="61.169" y1="12" y2="12" fill="#FFF" stroke="#95D400" stroke-width="2"/>
      <rect width="24.766" height="14.369" x="35.925" y="46.416" fill="#FFF" stroke="#95D400"/>
      <polygon fill="#95D400" points="46.5 57.32 46.5 49.882 51.842 53.601"/>
      <line x1="35.42" x2="61.169" y1="44.183" y2="44.183" fill="#FFF" stroke="#95D400"/>
      <line x1="35.42" x2="61.169" y1="42.032" y2="42.032" fill="#FFF" stroke="#95D400"/>
      <line x1="35.42" x2="61.169" y1="39.299" y2="39.299" fill="#FFF" stroke="#95D400" stroke-width="2"/>
      <rect width="24.766" height="14.369" x="35.925" y="73.714" fill="#FFF" stroke="#95D400"/>
      <polygon fill="#95D400" points="46.5 84.618 46.5 77.18 51.842 80.899"/>
      <line x1="35.42" x2="61.169" y1="71.481" y2="71.481" fill="#FFF" stroke="#95D400"/>
      <line x1="35.42" x2="61.169" y1="69.33" y2="69.33" fill="#FFF" stroke="#95D400"/>
      <line x1="35.42" x2="61.169" y1="66.597" y2="66.597" fill="#FFF" stroke="#95D400" stroke-width="2"/>
    </g>
  </g>
  <g id="active">
    <rect width="24.766" height="14.369" x="35.925" y="19.117" fill="#95D400" stroke="#95D400"/>
    <polygon fill="#FFF" points="46.5 30.021 46.5 22.583 51.842 26.302"/>
  </g>
  <g id="big">
    <rect width="43.567" height="21.208" x="20.716" y="12.299" fill="#FFF" stroke="#95D400"/>
    <circle cx="42.709" cy="22.903" r="5.088" fill="#95D400"/>
    <polygon fill="#FFF" points="41.498 25.609 41.498 20.196 45.385 22.903"/>
  </g>
</svg>
