<svg xmlns="http://www.w3.org/2000/svg" xmlns:xlink="http://www.w3.org/1999/xlink" fill-rule="evenodd" stroke-linecap="round" stroke-linejoin="round" stroke-miterlimit="10" clip-rule="evenodd" viewBox="0 0 85 53">
<defs>
<text id="txt" x="42.5" y="27" fill="#fff" text-anchor="middle" font-size="10" font-weight="bold" font-family="sans-serif">John</text>
<style>
/* <![CDATA[ */

#a1, #a2, #a3, #a4, #a5, #a6, #a7, #a8, #a9, #a10, #a11, #a12, #a13, #a14, #a15, #a16, #a17, #a18, #a19, #a20, #a21, #a22, #a23, #a24, #a25, #a26, #a27, #a28, #a29, #a30, #a31, #a32, #a33, #a34, #a35, #a36, #a37, #a38, #a39, #a40, #a41, #a42, #a43, #a44, #a45, #a46, #a47, #a48, #a49, #a50, #a51, #a52, #a53, #a54, #a55, #a56, #a57, #a58, #a59, #a60, #a61, #a62, #a63, #a64, #a65, #a66, #a67, #a68, #a69, #a70, #a71, #a72, #a73 {
visibility: hidden;
animation-duration: 6s;
animation-iteration-count: infinite;
animation-timing-function: steps(1);
}

/* ]]> */
</style>
</defs>
<defs>
<clipPath id="clp1">
<rect x="20" y="14" width="0" height="20"/>
</clipPath>
<clipPath id="clp2">
<rect x="20" y="14" width="5" height="20"/>
</clipPath>
<clipPath id="clp3">
<rect x="20" y="14" width="10" height="20"/>
</clipPath>
<clipPath id="clp4">
<rect x="20" y="14" width="15" height="20"/>
</clipPath>
<clipPath id="clp5">
<rect x="20" y="14" width="20" height="20"/>
</clipPath>
<clipPath id="clp6">
<rect x="20" y="14" width="25" height="20"/>
</clipPath>
<clipPath id="clp7">
<rect x="20" y="14" width="30" height="20"/>
</clipPath>
<clipPath id="clp8">
<rect x="20" y="14" width="35" height="20"/>
</clipPath>
<clipPath id="clp9">
<rect x="20" y="14" width="40" height="20"/>
</clipPath>
<g id="gls1">
<path fill="none" stroke="#95d400" d="M26.433 25.093v-.018c.737-.883 7.661-2.29 16.049-2.29 8.422 0 15.396 1.408 16.085 2.291v.017"/>
<path fill="#95d400" d="M28.023 27.804c-.62.069-4.322 8.614 2.069 15.521-2.468-5.712-2.687-10.45-2.069-15.521z"/>
<path fill="none" stroke="#95d400" d="M32.567 48.987v2s2.293 1.178 10.066 1.178c7.773 0 9.801-1.178 9.801-1.178v-2"/>
</g>
<g id="hand" stroke="#95d400">
<path fill="#fff" d="M18.944 2.932S14.595.06 11.06 0c-.438 1.968-.4 4.757-3.374 6.606C5.648 7.874.101 10.535.008 11.522c-.093.986.643 1.939 1.773 1.464 1.131-.475 2.838-1.529 2.838-1.529l.902.331s-2.606 6.666-3.17 8.108c-.564 1.443 1.217 2.522 2.203 1.536-.346 1.082-.831 2.167.365 2.674 1.534.65 2.208-1.765 2.208-1.765s.179.818 1.02 1.084c.841.265 1.692-.158 2.233-1.925.492 1.275 1.936 1.499 2.546.243.609-1.257 3.114-8.656 3.638-10.047.525-1.391.244-3.602.47-4.607.226-1.005 1.91-4.157 1.91-4.157z"/>
<path fill="none" d="M9.683 9.935s-1.626 2.127-4.155 1.841"/>
<path fill="none" d="M6.845 15.747l-2.279 5.66"/>
<path fill="none" d="M9.334 16.571l-2.198 5.762"/>
<path fill="none" d="M12.192 16.624l-1.803 4.853"/>
</g>
<g id="hand2">
<path fill="#95d400" d="M0 18.496l4.044 6.254 7.246-3.64-4.185-6.252L0 18.496z"/>
<path fill="#fff" stroke="#95d400" stroke-linecap="butt" stroke-linejoin="miter" d="M20.547 0c-2.66 1.273-4.739 2.784-6.186 3.269-1.448.485-7.709 1.82-8.158 2.441-.449.621-3.077 5.139-3.268 5.826-.383 1.382 2.059 4.192 2.059 4.192-.522.628-.254 2.662 1.226 2.754 1.433.089 3.12-.477 5.319-2.315 2.199-1.837 5.011-1.16 6.748-2.665 1.737-1.505 2.512-3.791 3.647-4.746 1.135-.955 2.264-1.538 2.264-1.538S25.189 2.525 20.547 0zM9.728 12.233c-.902.352-1.931 1.144-1.931 1.144l-.768-1.635s.887-1.226 1.305-2.344c1.515.075 2.315-.343 2.315-.343l1.233 1.29c.115.84-1.252 1.536-2.154 1.888z"/>
<path fill="none" stroke="#95d400" stroke-linecap="butt" stroke-linejoin="miter" d="M4.992 15.728S6.349 14.28 7.8 13.374"/>
</g>
<g id="ppr1">
<path fill="#95d400" d="M32.794 39.152l-1.453 3.543 4.815 1.635 1.453-3.997-4.815-1.181z"/>
<path fill="#95d400" d="M44.053 46.485l-6.541-.636-1.272 3.089 6.904.272.909-2.725z"/>
<path fill="#f7ffe2" stroke="#95d400" stroke-linecap="butt" stroke-linejoin="miter" d="M42.936 44.17l1.545 4.905 3.27-.181-1.908-5.179-2.907.455z"/>
<path fill="#95d400" d="M52.826 43.05l-.9 5.319-4.173-1.8 2.209-3.519h2.864z"/>
<path fill="#f7ffe2" stroke="#95d400" stroke-linecap="butt" stroke-linejoin="miter" d="M30.65 44.794l3.121-1.531 3.195 3.773-4.1 1.196-2.216-3.438z"/>
<path fill="#95d400" d="M38.372 38.2l-.082 6.71h3.518l-.409-6.792-3.027.082z"/>
<path fill="#fff" stroke="#95d400" stroke-linejoin="miter" d="M53.717 40.643l-.327 5.319 2.537-1.064.736-3.518-2.946-.737z"/>
<path fill="#fff" stroke="#95d400" stroke-linejoin="miter" d="M42.602 42.063l4.664 3.273 2.455-3.355-5.564-2.455-1.555 2.537z"/>
</g>
<g id="ppr2">
<path fill="#95d400" d="M32.234 42.087l1.046 3.684 4.796-1.688-1.326-4.041-4.516 2.045z"/>
<path fill="#95d400" d="M36.3 48.776l6.565.295 1.109-3.151-6.908.087-.766 2.769z"/>
<path fill="#f7ffe2" stroke="#95d400" stroke-linecap="butt" stroke-linejoin="miter" d="M52.308 41.815l-4.058 3.16 1.311 3.001 4.188-3.595-1.441-2.566z"/>
<path fill="#95d400" d="M48.933 43.802l-.9 5.319-4.173-1.8 2.209-3.519h2.864z"/>
<path fill="#f7ffe2" stroke="#95d400" stroke-linecap="butt" stroke-linejoin="miter" d="M37.377 46.832l-3.196 1.366-2.994-3.935 4.157-.98 2.033 3.549z"/>
<path fill="#95d400" d="M37.543 43.333l6.021 2.962 1.514-3.176-6.307-2.554-1.228 2.768z"/>
<path fill="#fff" stroke="#95d400" stroke-linejoin="miter" d="M42.604 41.425l-.327 5.319 2.537-1.064.736-3.518-2.946-.737z"/>
<path fill="#fff" stroke="#95d400" stroke-linejoin="miter" d="M50.013 42.577l4.664 3.273 2.455-3.355-5.564-2.455-1.555 2.537z"/>
</g>
<g id="ppr3">
<path fill="#95d400" d="M31.634 40.534l.776 3.75 4.906-1.336-1.029-4.126-4.653 1.712z"/>
<path fill="#95d400" d="M43.079 44.152l-6.569.195-.872 3.225 6.884-.602.557-2.818z"/>
<path fill="#f7ffe2" stroke="#95d400" stroke-linecap="butt" stroke-linejoin="miter" d="M39.606 45.608l3.529 3.741 2.864-1.589-3.975-3.829-2.418 1.677z"/>
<path fill="#95d400" d="M52.316 45.453l-3.742 3.885-2.431-3.839 3.808-1.661 2.365 1.615z"/>
<path fill="#f7ffe2" stroke="#95d400" stroke-linecap="butt" stroke-linejoin="miter" d="M37.106 46.459l-2.588 2.321-4.099-2.765 3.622-2.263 3.065 2.707z"/>
<path fill="#95d400" d="M45.264 44.925l-3.863-5.487-2.851 2.061 4.309 5.266 2.405-1.84z"/>
<path fill="#fff" stroke="#95d400" stroke-linejoin="miter" d="M51.609 41.938l1.339 5.158 2.082-1.799-.392-3.572-3.029.213z"/>
<path fill="#fff" stroke="#95d400" stroke-linejoin="miter" d="M49.688 41.821l-5.376-1.887-1.455 3.894 6.021.857.81-2.864z"/>
</g>
<path id="gls2" fill="none" stroke="#95d400" stroke-width="1" d="M58.527 25.004c-.704.746-5.715 1.834-12.255 2.159-1.22.088-2.485.145-3.789.146-1.356.001-2.674-.06-3.945-.154-6.429-.335-11.334-1.412-12.064-2.151-1.403 2.584-2.199 5.544-2.199 8.691 0 6.404 3.3 12.038 8.293 15.292 0 0 2.293 1.178 10.066 1.178 7.773 0 9.801-1.178 9.801-1.178 4.992-3.255 8.293-8.888 8.293-15.292-.002-3.147-.799-6.107-2.201-8.691z"/>
<g id="hand3">
<path fill="#fff" stroke="#95d400" stroke-linejoin="miter" d="M60.039 21.339c-.127.586-.898 1.008-1.128.728-.229-.281-1.835-2.625-2.09-3.339-.255-.714.523-2.711.523-2.711l1.148-.899 2.504 4.548-.957 1.673z"/>
<path fill="#fff" stroke="#95d400" stroke-linejoin="miter" d="M14.593 21.339c.127.586.899 1.008 1.128.728.229-.281 1.835-2.625 2.09-3.339.255-.714-.523-2.711-.523-2.711l-1.148-.899-2.503 4.548.956 1.673z"/>
<rect width="44.406" height="19.814" x="15.116" fill="#95d400"/>
<path fill="#fff" stroke="#95d400" stroke-linecap="butt" stroke-linejoin="miter" d="M69.516 33.904s-2.857-2.571-4.115-3.543c-1.257-.972-4.858-5.201-5.2-7.83-.343-2.629-.744-4.515-2.401-6.058-1.657-1.543-4.036-4.957-2.629-6.056C57 8.988 59.4 12.473 59.4 12.473v-1.837s.719-.731 1.669-.365c.95.365 6.117 2.437 7.165 2.826 1.048.39 1.364 1.219 1.364 2.632 0 1.414-.196 5.859.784 8.212.982 2.354 4.249 5.23 4.249 5.23s-2.059 4.107-5.115 4.733z"/>
<path fill="none" stroke="#95d400" stroke-linecap="butt" stroke-linejoin="miter" d="M66.296 17.221s-1.71.694-3.445-.57c-1.736-1.264-3.449-4.186-3.449-4.186"/>
<path fill="#fff" stroke="#95d400" stroke-linecap="butt" stroke-linejoin="miter" d="M5.116 33.904s2.857-2.571 4.115-3.543c1.257-.972 4.858-5.201 5.201-7.83.343-2.629.743-4.515 2.4-6.058 1.658-1.543 4.036-4.957 2.629-6.056-1.829-1.429-4.229 2.056-4.229 2.056v-1.837s-.719-.731-1.669-.365c-.95.365-6.116 2.437-7.165 2.826-1.048.39-1.364 1.219-1.364 2.632 0 1.414.196 5.859-.785 8.212C3.269 26.295 0 29.171 0 29.171s2.061 4.107 5.116 4.733z"/>
<path fill="none" stroke="#95d400" stroke-linecap="butt" stroke-linejoin="miter" d="M8.337 17.221s1.71.694 3.445-.57c1.736-1.264 3.449-4.186 3.449-4.186"/>
</g>
<g id="frw" fill="#95d400">
<path d="M14.88 2.792l2.324 1.424-2.67.546-1.424 2.324-.545-2.67-2.325-1.424 2.67-.546L14.334.122l.546 2.67z"/>
<path d="M.657 14.949s5.901-9.827 9.889-10.007c1.032.486-.424 1.618-.424 1.618S4.742 9.868.657 14.949"/>
<path d="M12.427 10.116l1.262 1.302-1.812-.09-1.303 1.262.091-1.811-1.261-1.303 1.81.091 1.303-1.263-.09 1.812z"/>
<path d="M1.68 16.741s5.444-6.361 7.938-5.839c.562.465-.519.934-.519.934s-4.086 2.412-7.419 4.905"/>
<path d="M7.101 1.575l1.765.417-1.576.9-.417 1.765-.899-1.575-1.766-.417 1.576-.9L6.201 0l.9 1.575z"/>
<path d="M0 12.448S2.774 4.654 5.158 3.75c.723.089.065 1.066.065 1.066S1.466 8.552 0 12.448"/>
</g>
<g id="f1" fill="none" stroke="#95d400">
<path d="M10.646 10.782l-.509-.602"/>
<path d="M10.74 10.387v-.578"/>
<path d="M10.327 11.075h-.898"/>
<path d="M10.694 11.06l.743-.88"/>
<path d="M10.02 11.955l.626-.74"/>
<path d="M11.204 11.075h.743"/>
<path d="M10.74 11.341v1.063"/>
<path d="M11.045 11.544l.508.601"/>
</g>
<g id="f2">
<g fill="none" stroke="#95d400">
<path d="M10.646 10.782L9.125 8.981"/>
<path d="M10.74 10.387V8.601"/>
<path d="M10.327 11.075H9.026"/>
<path d="M11.013 10.741l1.549-1.835"/>
<path d="M9.026 13.1l1.443-1.708"/>
<path d="M11.787 11.075h1.354"/>
<path d="M10.74 11.929v1.83"/>
<path d="M11.045 11.544l1.061 1.256"/>
</g>
<path fill="#95d400" d="M7.896 9.283l-.536.211.536.21.211.536.211-.536.535-.21-.535-.211-.211-.536-.211.536z"/>
<path fill="#95d400" d="M13.612 9.308l-.471.186.471.185.185.471.186-.471.471-.185-.471-.186-.186-.471-.185.471z"/>
<path fill="#95d400" d="M13.158 12.203l-.501.198.501.198.198.501.197-.501.502-.198-.502-.198-.197-.501-.198.501z"/>
<path fill="#95d400" d="M8.128 12.701l-.35-.138.35-.138.138-.35.138.35.35.138-.35.138-.138.35-.138-.35z"/>
</g>
<g id="f3">
<g fill="none" stroke="#95d400">
<path d="M9.982 10.119l-1.52-1.801"/>
<path d="M10.74 9.407V7.621"/>
<path d="M8.883 11.075H7.582"/>
<path d="M11.576 10.178l1.549-1.835"/>
<path d="M8.501 13.626l1.442-1.709"/>
<path d="M12.504 11.075h1.353"/>
<path d="M10.74 12.711v1.829"/>
<path d="M11.697 12.195l1.06 1.256"/>
</g>
<path fill="#95d400" d="M6.746 8.739l-.535.211.535.21.212.536.21-.536.536-.21-.536-.211-.21-.536-.212.536z"/>
<path fill="#95d400" d="M14.526 8.764l-.471.186.471.185.186.471.185-.471.472-.185-.472-.186-.185-.471-.186.471z"/>
<path fill="#95d400" d="M14.359 12.79l-.502.198.502.197.197.502.198-.502.501-.197-.501-.198-.198-.501-.197.501z"/>
<path fill="#95d400" d="M7.204 13.337l-.35-.138.35-.138.138-.35.139.35.35.138-.35.138-.139.35-.138-.35z"/>
</g>
<g id="f4">
<g fill="none" stroke="#95d400">
<path d="M9.643 9.78l-1.52-1.801"/>
<path d="M10.74 8.665V6.879"/>
<path d="M8.492 11.075H7.191"/>
<path d="M11.974 9.78l1.549-1.835"/>
<path d="M8.201 13.926l1.442-1.709"/>
<path d="M13.125 11.075h1.353"/>
<path d="M10.74 13.587v1.83"/>
<path d="M11.974 12.472l1.06 1.256"/>
</g>
<path fill="#95d400" d="M5.915 8.537l-.67.263.67.264.263.669.264-.669.669-.264-.669-.263-.264-.67-.263.67z"/>
<path fill="#95d400" d="M15.067 8.568l-.589.232.589.232.232.589.232-.589.589-.232-.589-.232-.232-.589-.232.589z"/>
<path fill="#95d400" d="M15.121 13.085l-.626.247.626.247.248.627.246-.627.627-.247-.627-.247-.246-.627-.248.627z"/>
<path fill="#95d400" d="M6.409 13.76l-.438-.173.438-.172.172-.438.173.438.437.172-.437.173-.173.437-.172-.437z"/>
</g>
<g id="f5">
<g fill="none" stroke="#95d400">
<path d="M9.643 9.78L7.761 7.55"/>
<path d="M10.74 8.665V6.307"/>
<path d="M8.492 11.075H6.581"/>
<path d="M11.974 9.78l1.883-2.23"/>
<path d="M7.76 14.447l1.883-2.23"/>
<path d="M13.125 11.075h1.911"/>
<path d="M10.74 13.587v2.358"/>
<path d="M11.974 12.472l1.585 1.878"/>
</g>
<path fill="#95d400" d="M5.489 8.386l-.836.33.836.329.33.837.329-.837.837-.329-.837-.33-.329-.836-.33.836z"/>
<path fill="#95d400" d="M15.145 8.448l-.737.291.737.289.29.737.289-.737.737-.289-.737-.291-.289-.736-.29.736z"/>
<path fill="#95d400" d="M15.351 13.234l-.783.309.783.308.31.784.308-.784.784-.308-.784-.309-.308-.783-.31.783z"/>
<path fill="#95d400" d="M6.007 13.944l-.547-.216.547-.216.215-.546.216.546.547.216-.547.216-.216.547-.215-.547z"/>
</g>
<g id="f6">
<g fill="none" stroke="#95d400">
<path d="M8.492 8.416l-.731-.866"/>
<path d="M10.74 7.374V6.307"/>
<path d="M7.76 11.075H6.581"/>
<path d="M13.163 8.372l.694-.822"/>
<path d="M7.76 14.447l.875-1.036"/>
<path d="M13.857 11.075h1.179"/>
<path d="M10.74 14.635v1.31"/>
<path d="M12.766 13.411l.793.939"/>
</g>
<path fill="#95d400" d="M5.086 8.21l-.837.33.837.329.329.837.329-.837.837-.329-.837-.33-.329-.836-.329.836z"/>
<path fill="#95d400" d="M16.396 8.059l-.736.291.736.29.29.736.29-.736.736-.29-.736-.291-.29-.736-.29.736z"/>
<path fill="#95d400" d="M15.819 13.419l-.783.309.783.309.309.783.309-.783.783-.309-.783-.309-.309-.783-.309.783z"/>
<path fill="#95d400" d="M5.305 14.274l-.546-.216.546-.216.216-.547.216.547.547.216-.547.216-.216.546-.216-.546z"/>
</g>
<g id="f7" fill="none" stroke="#95d400">
<path d="M8.198 8.122l-.732-.867"/>
<path d="M13.589 7.945l.694-.822"/>
<path d="M7.323 14.884l.875-1.036"/>
<path d="M13.193 13.838l.793.938"/>
</g>
<g id="j1" fill="none" stroke="#95d400">
<path d="M44.348 44.089l.938.792"/>
<path d="M44.297 43.875h1.005"/>
<path d="M43.959 44.074v.791"/>
<path d="M44.054 43.835l1.014-.856"/>
<path d="M43.027 44.655l.726-.614"/>
<path d="M43.959 43.678v-.88"/>
<path d="M43.52 43.875h-.727"/>
<path d="M43.71 43.771l-.683-.577"/>
</g>
<g id="j2">
<g fill="none" stroke="#95d400">
<path d="M44.348 44.089l1.439 1.215"/>
<path d="M44.603 43.875h1.542"/>
<path d="M43.959 44.306v1.15"/>
<path d="M44.331 43.558l1.474-1.244"/>
<path d="M42.315 45.256l1.438-1.215"/>
<path d="M43.959 43.227v-1.211"/>
<path d="M43.52 43.875h-1.481"/>
<path d="M43.52 43.581l-1.205-1.018"/>
</g>
<path fill="#95d400" d="M45.184 46.393l-.128.325-.128-.325-.325-.128.325-.128.128-.325.128.325.325.128-.325.128z"/>
<path fill="#95d400" d="M45.232 41.715l-.164.417-.164-.417-.417-.164.417-.164.164-.416.164.416.416.164-.416.164z"/>
<path fill="#95d400" d="M43.141 41.793l-.175.443-.175-.443-.443-.175.443-.174.175-.444.175.444.443.174-.443.175z"/>
<path fill="#95d400" d="M42.657 46.365l.122.309.122-.309.31-.122-.31-.122-.122-.309-.122.309-.309.122.309.122z"/>
</g>
<g id="j3">
<g fill="none" stroke="#95d400">
<path d="M44.629 44.37l1.439 1.215"/>
<path d="M45.243 43.875h1.541"/>
<path d="M43.959 45.185v1.149"/>
<path d="M44.828 43.061l1.473-1.244"/>
<path d="M41.85 45.721l1.439-1.215"/>
<path d="M43.959 42.563v-1.211"/>
<path d="M42.57 43.875h-1.481"/>
<path d="M43.034 43.095l-1.205-1.017"/>
</g>
<path fill="#95d400" d="M45.83 47.292l-.187.473-.186-.473-.473-.187.473-.186.186-.473.187.473.473.186-.473.187z"/>
<path fill="#95d400" d="M45.729 40.812l-.164.417-.164-.417-.417-.164.417-.164.164-.416.164.416.416.164-.416.164z"/>
<path fill="#95d400" d="M42.622 40.909l-.175.443-.174-.443-.444-.174.444-.175.174-.443.175.443.443.175-.443.174z"/>
<path fill="#95d400" d="M42.16 46.999l.122.31.122-.31.309-.122-.309-.122-.122-.309-.122.309-.31.122.31.122z"/>
</g>
<g id="j4">
<g fill="none" stroke="#95d400">
<path d="M45.104 44.845l1.439 1.215"/>
<path d="M46.089 43.875h1.542"/>
<path d="M43.959 45.862v1.15"/>
<path d="M45.104 42.785l1.473-1.244"/>
<path d="M41.511 46.06l1.439-1.215"/>
<path d="M43.959 41.768v-1.211"/>
<path d="M41.739 43.875h-1.481"/>
<path d="M42.724 42.785l-1.204-1.017"/>
</g>
<path fill="#95d400" d="M46.318 47.934l-.233.592-.233-.592-.591-.233.591-.232.233-.592.233.592.592.232-.592.233z"/>
<path fill="#95d400" d="M46.175 40.051l-.205.521-.205-.521-.521-.205.521-.205.205-.52.205.52.52.205-.52.205z"/>
<path fill="#95d400" d="M42.183 40.004l-.218.553-.219-.553-.554-.219.554-.218.219-.554.218.554.554.218-.554.219z"/>
<path fill="#95d400" d="M41.587 47.703l.152.387.153-.387.386-.152-.386-.153-.153-.386-.152.386-.387.153.387.152z"/>
</g>
<g id="j5">
<g fill="none" stroke="#95d400">
<path d="M45.104 44.845l1.971 1.664"/>
<path d="M46.089 43.875h2.084"/>
<path d="M43.959 45.862v1.689"/>
<path d="M45.104 42.785l1.971-1.664"/>
<path d="M40.979 46.509l1.971-1.664"/>
<path d="M43.959 41.768v-1.689"/>
<path d="M41.739 43.875h-2.084"/>
<path d="M42.724 42.785l-1.659-1.401"/>
</g>
<path fill="#95d400" d="M46.698 48.31l-.291.74-.291-.74-.74-.291.74-.291.291-.74.291.74.74.291-.74.291z"/>
<path fill="#95d400" d="M46.425 39.764l-.257.651-.256-.651-.651-.256.651-.257.256-.65.257.65.65.257-.65.256z"/>
<path fill="#95d400" d="M42.034 39.723l-.274.692-.272-.692-.693-.274.693-.272.272-.693.274.693.692.272-.692.274z"/>
<path fill="#95d400" d="M41.181 47.853l.19.483.191-.483.483-.191-.483-.19-.191-.484-.19.484-.484.19.484.191z"/>
</g>
<g id="j6">
<g fill="none" stroke="#95d400">
<path d="M46.089 45.677l.986.832"/>
<path d="M47.075 43.875h1.098"/>
<path d="M43.959 46.625v.926"/>
<path d="M46.154 41.899l.921-.778"/>
<path d="M40.979 46.509l.979-.826"/>
<path d="M43.959 40.85v-.771"/>
<path d="M40.795 43.875h-1.14"/>
<path d="M41.813 42.016l-.748-.632"/>
</g>
<path fill="#95d400" d="M47.132 48.37l-.292.739-.291-.739-.739-.291.739-.291.291-.74.292.74.739.291-.739.291z"/>
<path fill="#95d400" d="M46.974 39.35l-.257.651-.256-.651-.651-.257.651-.256.256-.651.257.651.65.256-.65.257z"/>
<path fill="#95d400" d="M41.464 39.425l-.273.692-.273-.692-.693-.273.693-.273.273-.693.273.693.692.273-.692.273z"/>
<path fill="#95d400" d="M40.709 48.269l.19.484.191-.484.483-.19-.483-.191-.191-.483-.19.483-.484.191.484.19z"/>
</g>
<g id="j7" fill="none" stroke="#95d400">
<path d="M47.702 43.875H48.8"/>
<path d="M43.959 47.018v.927"/>
<path d="M43.959 40.16v-.771"/>
<path d="M40.216 43.875h-1.14"/>
</g>
</defs>

<g id="a1" opacity=".2">
<use xlink:href="#gls1"/>
<use xlink:href="#ppr1"/>
<use xlink:href="#gls2"/>
</g>

<g id="a2" opacity=".6">
<use xlink:href="#gls1"/>
<use x="38" y="-20" xlink:href="#hand"/>
<use xlink:href="#ppr1"/>
<use xlink:href="#gls2"/>
</g>

<g id="a3">
<use xlink:href="#gls1"/>
<use x="38" y="-15" xlink:href="#hand"/>
<use xlink:href="#ppr1"/>
<use xlink:href="#gls2"/>
</g>

<g id="a4">
<use xlink:href="#gls1"/>
<use x="38" y="-10" xlink:href="#hand"/>
<use xlink:href="#ppr1"/>
<use xlink:href="#gls2"/>
</g>

<g id="a5">
<use xlink:href="#gls1"/>
<use x="38" y="-5" xlink:href="#hand"/>
<use xlink:href="#ppr1"/>
<use xlink:href="#gls2"/>
</g>

<g id="a6">
<use xlink:href="#gls1"/>
<use x="38" y="0" xlink:href="#hand"/>
<use xlink:href="#ppr1"/>
<use xlink:href="#gls2"/>
</g>

<g id="a7">
<use xlink:href="#gls1"/>
<use x="38" y="5" xlink:href="#hand"/>
<use xlink:href="#ppr1"/>
<use xlink:href="#gls2"/>
</g>

<g id="a8">
<use xlink:href="#gls1"/>
<use x="38" y="10" xlink:href="#hand"/>
<use xlink:href="#ppr1"/>
<use xlink:href="#gls2"/>
</g>

<g id="a9">
<use xlink:href="#gls1"/>
<use x="38" y="15" xlink:href="#hand"/>
<use xlink:href="#ppr1"/>
<use xlink:href="#gls2"/>
</g>

<g id="a10">
<use xlink:href="#gls1"/>
<use x="38" y="18" xlink:href="#hand"/>
<use xlink:href="#ppr1"/>
<use xlink:href="#gls2"/>
</g>

<g id="a11">
<use xlink:href="#gls1"/>
<use x="38" y="20" xlink:href="#hand"/>
<use xlink:href="#ppr1"/>
<use xlink:href="#gls2"/>
</g> 

<g id="a12">
<use xlink:href="#gls1"/>
<use x="38" y="21" xlink:href="#hand"/>
<use xlink:href="#ppr2"/>
<use xlink:href="#gls2"/>
</g>

<g id="a13">
<use xlink:href="#gls1"/>
<use x="38" y="20" xlink:href="#hand"/>
<use xlink:href="#ppr3"/>
<use xlink:href="#gls2"/>
</g>

<g id="a14">
<use xlink:href="#gls1"/>
<use x="38" y="21" xlink:href="#hand"/>
<use xlink:href="#ppr1"/>
<use xlink:href="#gls2"/>
</g>

<g id="a15">
<use xlink:href="#gls1"/>
<use x="38" y="21" xlink:href="#hand"/>
<use xlink:href="#ppr2"/>
<use xlink:href="#gls2"/>
</g>

<g id="a16">
<use xlink:href="#gls1"/>
<use x="38" y="20" xlink:href="#hand"/>
<use xlink:href="#ppr3"/>
<use xlink:href="#gls2"/>
</g>

<g id="a17">
<use xlink:href="#gls1"/>
<use x="38" y="21" xlink:href="#hand"/>
<use xlink:href="#ppr1"/>
<use xlink:href="#gls2"/>
</g>

<g id="a18">
<use xlink:href="#gls1"/>
<use x="35" y="13" xlink:href="#hand2"/>
<use xlink:href="#ppr1"/>
<use xlink:href="#gls2"/>
</g>

<g id="a19">
<use xlink:href="#gls1"/>
<use x="35" y="10" xlink:href="#hand2"/>
<use xlink:href="#ppr1"/>
<use xlink:href="#gls2"/>
</g>

<g id="a20">
<use xlink:href="#gls1"/>
<use x="35" y="5" xlink:href="#hand2"/>
<use xlink:href="#ppr1"/>
<use xlink:href="#gls2"/>
</g>

<g id="a21">
<use xlink:href="#gls1"/>
<use x="35" y="0" xlink:href="#hand2"/>
<use xlink:href="#ppr1"/>
<use xlink:href="#gls2"/>
</g>

<g id="a22">
<use xlink:href="#gls1"/>
<use x="35" y="-5" xlink:href="#hand2"/>
<use xlink:href="#ppr1"/>
<use xlink:href="#gls2"/>
</g>

<g id="a23">
<use xlink:href="#gls1"/>
<use x="35" y="-10" xlink:href="#hand2"/>
<use xlink:href="#ppr1"/>
<use xlink:href="#gls2"/>
</g>

<g id="a24">
<use xlink:href="#gls1"/>
<use x="35" y="-15" xlink:href="#hand2"/>
<use xlink:href="#ppr1"/>
<use xlink:href="#gls2"/>
</g>

<g id="a25" opacity=".8">
<use xlink:href="#gls1"/>
<use x="35" y="-20" xlink:href="#hand2"/>
<use xlink:href="#ppr1"/>
<use xlink:href="#gls2"/>
</g>

<g id="a26" opacity=".6">
<use xlink:href="#gls1"/>
<use xlink:href="#ppr1"/>
<use xlink:href="#gls2"/>
</g>

<g id="a27" opacity=".4">
<use xlink:href="#gls1"/>
<use xlink:href="#ppr1"/>
<use xlink:href="#gls2"/>
</g>

<g id="a28" opacity=".2">
<use xlink:href="#gls1"/>
<use xlink:href="#ppr1"/>
<use xlink:href="#gls2"/>
</g>

<g id="a29">
<use x="5.5" y="50" xlink:href="#hand3"/>
</g>

<g id="a30">
<use x="5.5" y="45" xlink:href="#hand3"/>
</g>

<g id="a31">
<use x="5.5" y="40" xlink:href="#hand3"/>
</g>

<g id="a32">
<use x="5.5" y="35" xlink:href="#hand3"/>
</g>

<g id="a33">
<use x="5.5" y="30" xlink:href="#hand3"/>
</g>

<g id="a34">
<use x="5.5" y="25" xlink:href="#hand3"/>
</g>

<g id="a35">
<use x="5.5" y="20" xlink:href="#hand3"/>
</g>

<g id="a36">
<use x="5.5" y="16" xlink:href="#hand3"/>
</g>

<g id="a37">
<use x="5.5" y="14" xlink:href="#hand3"/>
<use xlink:href="#txt" clip-path="url(#clp1)"/>
</g>

<g id="a38">
<use x="5.5" y="14" xlink:href="#hand3"/>
<use xlink:href="#txt" clip-path="url(#clp2)"/>
</g>

<g id="a39">
<use x="5.5" y="14" xlink:href="#hand3"/>
<use xlink:href="#txt" clip-path="url(#clp3)"/>
</g>

<g id="a40">
<use x="5.5" y="14" xlink:href="#hand3"/>
<use xlink:href="#txt" clip-path="url(#clp4)"/>
</g>

<g id="a41">
<use x="5.5" y="14" xlink:href="#hand3"/>
<use xlink:href="#txt" clip-path="url(#clp5)"/>
</g>

<g id="a42">
<use x="5.5" y="14" xlink:href="#hand3"/>
<use xlink:href="#txt" clip-path="url(#clp6)"/>
</g>

<g id="a43">
<use x="5.5" y="14" xlink:href="#hand3"/>
<use xlink:href="#txt" clip-path="url(#clp7)"/>
</g>

<g id="a44">
<use x="5.5" y="14" xlink:href="#hand3"/>
<use xlink:href="#txt" clip-path="url(#clp8)"/>
</g>

<g id="a45">
<use x="5.5" y="14" xlink:href="#hand3"/>
<use xlink:href="#txt" clip-path="url(#clp9)"/>
</g>

<g id="a46">
<use x="5.5" y="14" xlink:href="#hand3"/>
<use xlink:href="#txt"/>
<use xlink:href="#f1"/>
<use xlink:href="#j1"/>
<use x="66" y="4" transform="translate(66 20.7) scale(.4) translate(-66 -20.7)" xlink:href="#frw"/>
</g>

<g id="a47">
<use x="5.5" y="14" xlink:href="#hand3"/>
<use xlink:href="#txt"/>
<use xlink:href="#f2"/>
<use xlink:href="#j2"/>
<use x="66" y="4" transform="translate(66 20.7) scale(.5) translate(-66 -20.7)" xlink:href="#frw"/>
</g>

<g id="a48">
<use x="5.5" y="14" xlink:href="#hand3"/>
<use xlink:href="#txt"/>
<use xlink:href="#f3"/>
<use xlink:href="#j3"/>
<use x="66" y="4" transform="translate(66 20.7) scale(.6) translate(-66 -20.7)" xlink:href="#frw"/>
</g>

<g id="a49">
<use x="5.5" y="14" xlink:href="#hand3"/>
<use xlink:href="#txt"/>
<use xlink:href="#f4"/>
<use xlink:href="#j4"/>
<use x="66" y="4" transform="translate(66 20.7) scale(.7) translate(-66 -20.7)" xlink:href="#frw"/>
</g>

<g id="a50">
<use x="5.5" y="14" xlink:href="#hand3"/>
<use xlink:href="#txt"/>
<use xlink:href="#f5"/>
<use xlink:href="#j5"/>
<use x="66" y="4" transform="translate(66 20.7) scale(.8) translate(-66 -20.7)" xlink:href="#frw"/>
</g>

<g id="a51">
<use x="5.5" y="14" xlink:href="#hand3"/>
<use xlink:href="#txt"/>
<use xlink:href="#f6"/>
<use xlink:href="#j6"/>
<use x="66" y="4" transform="translate(66 20.7) scale(.9) translate(-66 -20.7)" xlink:href="#frw"/>
</g>

<g id="a52">
<use x="5.5" y="14" xlink:href="#hand3"/>
<use xlink:href="#txt"/>
<use xlink:href="#f7"/>
<use xlink:href="#j7"/>
<use x="66" y="4" xlink:href="#frw"/>
</g>

<g id="a53">
<use x="5.5" y="14" xlink:href="#hand3"/>
<use xlink:href="#txt"/>
</g>

<g id="a54">
<use x="5.5" y="14" xlink:href="#hand3"/>
<use xlink:href="#txt"/>
<use xlink:href="#f1"/>
<use xlink:href="#j1"/>
<use x="66" y="4" transform="translate(66 20.7) scale(.4) translate(-66 -20.7)" xlink:href="#frw"/>
</g>

<g id="a55">
<use x="5.5" y="14" xlink:href="#hand3"/>
<use xlink:href="#txt"/>
<use xlink:href="#f2"/>
<use xlink:href="#j2"/>
<use x="66" y="4" transform="translate(66 20.7) scale(.5) translate(-66 -20.7)" xlink:href="#frw"/>
</g>

<g id="a56">
<use x="5.5" y="14" xlink:href="#hand3"/>
<use xlink:href="#txt"/>
<use xlink:href="#f3"/>
<use xlink:href="#j3"/>
<use x="66" y="4" transform="translate(66 20.7) scale(.6) translate(-66 -20.7)" xlink:href="#frw"/>
</g>

<g id="a57">
<use x="5.5" y="14" xlink:href="#hand3"/>
<use xlink:href="#txt"/>
<use xlink:href="#f4"/>
<use xlink:href="#j4"/>
<use x="66" y="4" transform="translate(66 20.7) scale(.7) translate(-66 -20.7)" xlink:href="#frw"/>
</g>

<g id="a58">
<use x="5.5" y="14" xlink:href="#hand3"/>
<use xlink:href="#txt"/>
<use xlink:href="#f5"/>
<use xlink:href="#j5"/>
<use x="66" y="4" transform="translate(66 20.7) scale(.8) translate(-66 -20.7)" xlink:href="#frw"/>
</g>

<g id="a59">
<use x="5.5" y="14" xlink:href="#hand3"/>
<use xlink:href="#txt"/>
<use xlink:href="#f6"/>
<use xlink:href="#j6"/>
<use x="66" y="4" transform="translate(66 20.7) scale(.9) translate(-66 -20.7)" xlink:href="#frw"/>
</g>

<g id="a60">
<use x="5.5" y="14" xlink:href="#hand3"/>
<use xlink:href="#txt"/>
<use xlink:href="#f7"/>
<use xlink:href="#j7"/>
<use x="66" y="4" xlink:href="#frw"/>
</g>

<g id="a61">
<use x="5.5" y="14" xlink:href="#hand3"/>
<use xlink:href="#txt"/>
</g>

<g id="a62">
<use x="5.5" y="14" xlink:href="#hand3"/>
<use xlink:href="#txt"/>
<use xlink:href="#f1"/>
<use xlink:href="#j1"/>
<use x="66" y="4" transform="translate(66 20.7) scale(.4) translate(-66 -20.7)" xlink:href="#frw"/>
</g>

<g id="a63">
<use x="5.5" y="14" xlink:href="#hand3"/>
<use xlink:href="#txt"/>
<use xlink:href="#f2"/>
<use xlink:href="#j2"/>
<use x="66" y="4" transform="translate(66 20.7) scale(.5) translate(-66 -20.7)" xlink:href="#frw"/>
</g>

<g id="a64">
<use x="5.5" y="14" xlink:href="#hand3"/>
<use xlink:href="#txt"/>
<use xlink:href="#f3"/>
<use xlink:href="#j3"/>
<use x="66" y="4" transform="translate(66 20.7) scale(.6) translate(-66 -20.7)" xlink:href="#frw"/>
</g>

<g id="a65">
<use x="5.5" y="14" xlink:href="#hand3"/>
<use xlink:href="#txt"/>
<use xlink:href="#f4"/>
<use xlink:href="#j4"/>
<use x="66" y="4" transform="translate(66 20.7) scale(.7) translate(-66 -20.7)" xlink:href="#frw"/>
</g>

<g id="a66">
<use x="5.5" y="14" xlink:href="#hand3"/>
<use xlink:href="#txt"/>
<use xlink:href="#f5"/>
<use xlink:href="#j5"/>
<use x="66" y="4" transform="translate(66 20.7) scale(.8) translate(-66 -20.7)" xlink:href="#frw"/>
</g>

<g id="a67">
<use x="5.5" y="14" xlink:href="#hand3"/>
<use xlink:href="#txt"/>
<use xlink:href="#f6"/>
<use xlink:href="#j6"/>
<use x="66" y="4" transform="translate(66 20.7) scale(.9) translate(-66 -20.7)" xlink:href="#frw"/>
</g>

<g id="a68">
<use x="5.5" y="14" xlink:href="#hand3"/>
<use xlink:href="#txt"/>
<use xlink:href="#f7"/>
<use xlink:href="#j7"/>
<use x="66" y="4" xlink:href="#frw"/>
</g>

<g id="a69">
<use x="5.5" y="14" xlink:href="#hand3"/>
<use xlink:href="#txt"/>
</g>

<g id="a70" opacity=".8">
<use x="5.5" y="14" xlink:href="#hand3"/>
<use xlink:href="#txt"/>
</g>

<g id="a71" opacity=".4">
<use x="5.5" y="14" xlink:href="#hand3"/>
<use xlink:href="#txt"/>
</g>

<g id="a72" opacity=".2">
<use x="5.5" y="14" xlink:href="#hand3"/>
<use xlink:href="#txt"/>
</g>

<g id="a73" opacity="0">
<use x="5.5" y="14" xlink:href="#hand3"/>
<use xlink:href="#txt"/>
</g>

<style>
/* <![CDATA[ */

#a1 {animation-name: a1}
#a2 {animation-name: a2}
#a3 {animation-name: a3}
#a4 {animation-name: a4}
#a5 {animation-name: a5}
#a6 {animation-name: a6}
#a7 {animation-name: a7}
#a8 {animation-name: a8}
#a9 {animation-name: a9}
#a10 {animation-name: a10}
#a11 {animation-name: a11}
#a12 {animation-name: a12}
#a13 {animation-name: a13}
#a14 {animation-name: a14}
#a15 {animation-name: a15}
#a16 {animation-name: a16}
#a17 {animation-name: a17}
#a18 {animation-name: a18}
#a19 {animation-name: a19}
#a20 {animation-name: a20}
#a21 {animation-name: a21}
#a22 {animation-name: a22}
#a23 {animation-name: a23}
#a24 {animation-name: a24}
#a25 {animation-name: a25}
#a26 {animation-name: a26}
#a27 {animation-name: a27}
#a28 {animation-name: a28}
#a29 {animation-name: a29}
#a30 {animation-name: a30}
#a31 {animation-name: a31}
#a32 {animation-name: a32}
#a33 {animation-name: a33}
#a34 {animation-name: a34}
#a35 {animation-name: a35}
#a36 {animation-name: a36}
#a37 {animation-name: a37}
#a38 {animation-name: a38}
#a39 {animation-name: a39}
#a40 {animation-name: a40}
#a41 {animation-name: a41}
#a42 {animation-name: a42}
#a43 {animation-name: a43}
#a44 {animation-name: a44}
#a45 {animation-name: a45}
#a46 {animation-name: a46}
#a47 {animation-name: a47}
#a48 {animation-name: a48}
#a49 {animation-name: a49}
#a50 {animation-name: a50}
#a51 {animation-name: a51}
#a52 {animation-name: a52}
#a53 {animation-name: a53}
#a54 {animation-name: a54}
#a55 {animation-name: a55}
#a56 {animation-name: a56}
#a57 {animation-name: a57}
#a58 {animation-name: a58}
#a59 {animation-name: a59}
#a60 {animation-name: a60}
#a61 {animation-name: a61}
#a62 {animation-name: a62}
#a63 {animation-name: a63}
#a64 {animation-name: a64}
#a65 {animation-name: a65}
#a66 {animation-name: a66}
#a67 {animation-name: a67}
#a68 {animation-name: a68}
#a69 {animation-name: a69}
#a70 {animation-name: a70}
#a71 {animation-name: a71}
#a72 {animation-name: a72}
#a73 {animation-name: a73}

@keyframes a1 {0.00%{visibility: visible} 1.37%{visibility: hidden}}
@keyframes a2 {1.37%{visibility: visible} 2.74%{visibility: hidden}}
@keyframes a3 {2.74%{visibility: visible} 4.11%{visibility: hidden}}
@keyframes a4 {4.11%{visibility: visible} 5.48%{visibility: hidden}}
@keyframes a5 {5.48%{visibility: visible} 6.85%{visibility: hidden}}
@keyframes a6 {6.85%{visibility: visible} 8.22%{visibility: hidden}}
@keyframes a7 {8.22%{visibility: visible} 9.59%{visibility: hidden}}
@keyframes a8 {9.59%{visibility: visible} 10.96%{visibility: hidden}}
@keyframes a9 {10.96%{visibility: visible} 12.33%{visibility: hidden}}
@keyframes a10 {12.33%{visibility: visible} 13.70%{visibility: hidden}}
@keyframes a11 {13.70%{visibility: visible} 15.07%{visibility: hidden}}
@keyframes a12 {15.07%{visibility: visible} 16.44%{visibility: hidden}}
@keyframes a13 {16.44%{visibility: visible} 17.81%{visibility: hidden}}
@keyframes a14 {17.81%{visibility: visible} 19.18%{visibility: hidden}}
@keyframes a15 {19.18%{visibility: visible} 20.55%{visibility: hidden}}
@keyframes a16 {20.55%{visibility: visible} 21.92%{visibility: hidden}}
@keyframes a17 {21.92%{visibility: visible} 23.29%{visibility: hidden}}
@keyframes a18 {23.29%{visibility: visible} 24.66%{visibility: hidden}}
@keyframes a19 {24.66%{visibility: visible} 26.03%{visibility: hidden}}
@keyframes a20 {26.03%{visibility: visible} 27.40%{visibility: hidden}}
@keyframes a21 {27.40%{visibility: visible} 28.77%{visibility: hidden}}
@keyframes a22 {28.77%{visibility: visible} 30.14%{visibility: hidden}}
@keyframes a23 {30.14%{visibility: visible} 31.51%{visibility: hidden}}
@keyframes a24 {31.51%{visibility: visible} 32.88%{visibility: hidden}}
@keyframes a25 {32.88%{visibility: visible} 34.25%{visibility: hidden}}
@keyframes a26 {34.25%{visibility: visible} 35.62%{visibility: hidden}}
@keyframes a27 {35.62%{visibility: visible} 36.99%{visibility: hidden}}
@keyframes a28 {36.99%{visibility: visible} 38.36%{visibility: hidden}}
@keyframes a29 {38.36%{visibility: visible} 39.73%{visibility: hidden}}
@keyframes a30 {39.73%{visibility: visible} 41.10%{visibility: hidden}}
@keyframes a31 {41.10%{visibility: visible} 42.47%{visibility: hidden}}
@keyframes a32 {42.47%{visibility: visible} 43.84%{visibility: hidden}}
@keyframes a33 {43.84%{visibility: visible} 45.21%{visibility: hidden}}
@keyframes a34 {45.21%{visibility: visible} 46.58%{visibility: hidden}}
@keyframes a35 {46.58%{visibility: visible} 47.95%{visibility: hidden}}
@keyframes a36 {47.95%{visibility: visible} 49.32%{visibility: hidden}}
@keyframes a37 {49.32%{visibility: visible} 50.68%{visibility: hidden}}
@keyframes a38 {50.68%{visibility: visible} 52.05%{visibility: hidden}}
@keyframes a39 {52.05%{visibility: visible} 53.42%{visibility: hidden}}
@keyframes a40 {53.42%{visibility: visible} 54.79%{visibility: hidden}}
@keyframes a41 {54.79%{visibility: visible} 56.16%{visibility: hidden}}
@keyframes a42 {56.16%{visibility: visible} 57.53%{visibility: hidden}}
@keyframes a43 {57.53%{visibility: visible} 58.90%{visibility: hidden}}
@keyframes a44 {58.90%{visibility: visible} 60.27%{visibility: hidden}}
@keyframes a45 {60.27%{visibility: visible} 61.64%{visibility: hidden}}
@keyframes a46 {61.64%{visibility: visible} 63.01%{visibility: hidden}}
@keyframes a47 {63.01%{visibility: visible} 64.38%{visibility: hidden}}
@keyframes a48 {64.38%{visibility: visible} 65.75%{visibility: hidden}}
@keyframes a49 {65.75%{visibility: visible} 67.12%{visibility: hidden}}
@keyframes a50 {67.12%{visibility: visible} 68.49%{visibility: hidden}}
@keyframes a51 {68.49%{visibility: visible} 69.86%{visibility: hidden}}
@keyframes a52 {69.86%{visibility: visible} 71.23%{visibility: hidden}}
@keyframes a53 {71.23%{visibility: visible} 72.60%{visibility: hidden}}
@keyframes a54 {72.60%{visibility: visible} 73.97%{visibility: hidden}}
@keyframes a55 {73.97%{visibility: visible} 75.34%{visibility: hidden}}
@keyframes a56 {75.34%{visibility: visible} 76.71%{visibility: hidden}}
@keyframes a57 {76.71%{visibility: visible} 78.08%{visibility: hidden}}
@keyframes a58 {78.08%{visibility: visible} 79.45%{visibility: hidden}}
@keyframes a59 {79.45%{visibility: visible} 80.82%{visibility: hidden}}
@keyframes a60 {80.82%{visibility: visible} 82.19%{visibility: hidden}}
@keyframes a61 {82.19%{visibility: visible} 83.56%{visibility: hidden}}
@keyframes a62 {83.56%{visibility: visible} 84.93%{visibility: hidden}}
@keyframes a63 {84.93%{visibility: visible} 86.30%{visibility: hidden}}
@keyframes a64 {86.30%{visibility: visible} 87.67%{visibility: hidden}}
@keyframes a65 {87.67%{visibility: visible} 89.04%{visibility: hidden}}
@keyframes a66 {89.04%{visibility: visible} 90.41%{visibility: hidden}}
@keyframes a67 {90.41%{visibility: visible} 91.78%{visibility: hidden}}
@keyframes a68 {91.78%{visibility: visible} 93.15%{visibility: hidden}}
@keyframes a69 {93.15%{visibility: visible} 94.52%{visibility: hidden}}
@keyframes a70 {94.52%{visibility: visible} 95.89%{visibility: hidden}}
@keyframes a71 {95.89%{visibility: visible} 97.26%{visibility: hidden}}
@keyframes a72 {97.26%{visibility: visible} 98.63%{visibility: hidden}}
@keyframes a73 {98.63%{visibility: visible} 100.00%{visibility: hidden}}

/* ]]> */
</style>

</svg>
