<svg xmlns="http://www.w3.org/2000/svg" width="376" height="670" viewBox="0 0 376 670">
  <path fill="#808a8d" d="M0 627.22h376V670H0z"/>
  <path fill="#008061" d="M91.39 262.08h176.79v365.14H91.39z"/>
  <path fill="#00735c" d="M91.39 402.51h177.94v4.22H91.39z"/>
  <path fill="#394b54" d="M275.94 547.95h13.89v31.87h-13.89z"/>
  <path fill="#bbcbd3" d="M282.89 627.22h-14.7V262.08h14.7z"/>
  <path fill="#394b54" d="M63.21 591.37h247.73c.89 0 1.61.72 1.61 1.61v34.24H61.6v-34.24c0-.89.72-1.61 1.61-1.61Z"/>
  <g>
    <path fill="#008061" d="M179.38 553.44a38.96 38.96 0 1 0 0-77.91 38.96 38.96 0 0 0 0 77.91"/>
    <circle cx="179.38" cy="514.48" r="38.96" fill="none" stroke="#fff" stroke-width="3.13"/>
    <path fill="#fff" d="M177.11 522.1c-1.24 0-1.77 1.32-2.21 2.67-.46 1.42-.67 2.39-.33 2.87.15.2.38.3.71.3 1.26 0 1.86-1.53 2.37-3.1.32-.97.56-1.93.21-2.42-.15-.21-.41-.32-.75-.32m-2.95 9.07c-2.46 0-4.13-.6-4.99-1.78-.78-1.07-.86-2.61-.22-4.56 1.28-3.96 4.41-5.96 9.28-5.96 2.59 0 4.33.59 5.17 1.74.71.98.78 2.37.2 4.15-1.34 4.13-4.69 6.4-9.44 6.4M192.78 522.52c-1.34 0-1.97 1.44-2.32 2.53-.3.94-.54 1.88-.17 2.39.18.24.47.36.89.36 1.33 0 1.94-1.36 2.33-2.55.4-1.22.44-1.95.13-2.37-.18-.24-.46-.36-.86-.36m-10.35 12.59c-.16 0-.3-.06-.37-.16-.08-.11-.09-.25-.04-.41l4.75-14.76a.99.99 0 0 1 .87-.63h3.88c.16 0 .3.06.37.16.08.11.09.25.04.4l-.25.76c-.24.74-.23.75-.19.8.02.03.05.04.09.04.05 0 .06 0 .65-.52.02-.02 2.21-1.94 4.03-1.94 1.4 0 2.41.41 2.99 1.21.98 1.35.58 3.52.07 5.1-1.22 3.75-3.82 5.99-6.96 5.99-1.55 0-2.47-.55-2.92-1.74-.02-.04-.06-.07-.1-.07-.08 0-.12 0-.38.78l-1.36 4.34a1 1 0 0 1-.87.64h-4.29ZM164.62 525.86l1.02-3.14.08-.24h1.87c.41 0 .85-.32.98-.71l.23-.7.43-1.32c.13-.39-.1-.71-.51-.71h-1.87l.41-1.26.83-2.55c.13-.39-.09-.62-.49-.51l-4.92 1.37c-.39.11-.82.52-.95.91l-.04.11-.63 1.93h-1.3c-.41 0-.85.32-.98.71l-.66 2.03c-.13.39.1.71.51.71h1.3l-.05.15-1.29 3.98c-1.03 3.17-.07 4.66 2.92 4.66a16 16 0 0 0 4.17-.62l1.12-3.44c-.46.14-.89.21-1.42.21-.76 0-1.08-.55-.75-1.56"/>
    <path fill="#00bce4" d="M186.35 497.86a.55.55 0 0 1-.39-.68c.08-.3.38-.47.68-.39.49.13.99.22 1.49.27.04-.57.51-1.03 1.09-1.04.4 0 .8-.05 1.19-.1a1.1 1.1 0 0 1 .8-1.29c1.26-.34 2.45-1 3.44-1.99a1.67 1.67 0 0 1 2.36 2.36 11.03 11.03 0 0 1-10.66 2.86"/>
    <path fill="#8dc63f" d="M181.38 500.71a.54.54 0 0 1-.2-.76.55.55 0 0 1 .76-.2c.78.45 1.59.82 2.43 1.12a1.1 1.1 0 0 1 1.35-.75c.76.2 1.54.34 2.32.4.02-.6.45-1.06 1.05-1.06h.25c2.02-.03 4.05-.55 5.92-1.63a1.67 1.67 0 1 1 1.67 2.89 15.53 15.53 0 0 1-15.56 0"/>
    <path fill="#fd0" d="M194.35 506.64a20.07 20.07 0 0 1-19.41-5.21.56.56 0 0 1 0-.79.56.56 0 0 1 .79 0 18.8 18.8 0 0 0 2.99 2.43c.31-.51.98-.69 1.51-.38 1.02.59 2.1 1.08 3.22 1.46.17-.58.77-.93 1.36-.77.06.02.11.03.16.06 2.7.7 5.62.74 8.51-.04a1.7 1.7 0 0 1 2.05 1.21c.24.89-.29 1.8-1.18 2.04"/>
    <path fill="#f9a01b" d="M167.82 499.53a.58.58 0 0 1 .21-.77.56.56 0 0 1 .76.2 23.82 23.82 0 0 0 2.98 4.06 1.11 1.11 0 0 1 1.56.02 22.4 22.4 0 0 0 3.67 2.97 1.12 1.12 0 0 1 1.65-.3 21.13 21.13 0 0 0 10.49 2.77 1.67 1.67 0 0 1 0 3.34 24.56 24.56 0 0 1-21.32-12.29"/>
    <path fill="#ec1b30" d="M161.03 494.76c-.08-.3.11-.6.41-.68.3-.08.6.1.68.39a28 28 0 0 0 2.28 5.79 1.1 1.1 0 0 1 1.5.42c.98 1.7 2.16 3.3 3.49 4.76a1.1 1.1 0 0 1 1.55 0l.14.14a25.7 25.7 0 0 0 11.44 6.56 1.66 1.66 0 1 1-.86 3.22 29.1 29.1 0 0 1-20.61-20.59"/>
  </g>
  <g>
    <path fill="none" stroke="#394b54" stroke-width="6.96" d="M317.26 421.5s-3.07 9.54 4.05 37.93c6.19 24.71 13.2 35 14.42 57.24.92 16.78-1.74 42.87-48.63 47.22"/>
    <g>
      <path fill="#304048" d="M297.02 410.21c.05-.18 5.52-18.2 7.27-25.92 1.91-8.44-7.7-15.43-8.11-15.72l-1.39 1.94c.09.06 8.73 6.36 7.17 13.25-1.73 7.64-7.17 25.58-7.22 25.76l2.29.69Z"/>
      <path fill="#394b54" d="M292.36 412.58h3.99v-44.15l-3.99 1.2v42.95z"/>
      <path fill="#394b54" d="M308.3 412.58h-15.83v-3.91h15.83z"/>
      <path fill="#b3b2b3" d="m315.35 349.16-6.75 3.97-13.74-21.29 6.75-3.97 13.74 21.29z"/>
      <path fill="#b3b2b3" d="m282.69 312.17-6.75 3.97 18.92 15.7 6.75-3.97-18.92-15.7z"/>
      <path fill="#00735c" d="m311.84 336.27-13.15 8.82 5.43 9.9 13.62-8.8-5.9-9.92zM309.2 414.97h16.13v8.33H309.2z"/>
      <path fill="#008061" d="M327.42 416.75h-20.31v-48.32h17.92l2.39 48.32z"/>
      <path fill="#008061" d="m317.86 343.68-19.42 11.95-5.97 14 37.34-1.2-11.95-24.75z"/>
    </g>
  </g>
  <path fill="#4b6571" d="M246.37 353.08H112.64v-58.92h133.73z"/>
  <path fill="#394b54" d="M235.75 344.38h-112.5v-41.5h112.5z"/>
</svg>
