<svg xmlns="http://www.w3.org/2000/svg" width="120" height="40" viewBox="0 0 120 40">
  <path fill="#a6a6a6" d="M110.1 0H7.5c-.7 0-1.3 0-2 .2A6.03 6.03 0 0 0 2 2 6.1 6.1 0 0 0 .2 5.5c-.1.7-.2 1.3-.2 2v24.9c0 .7 0 1.3.2 2A6.03 6.03 0 0 0 2 37.9a6.1 6.1 0 0 0 3.5 1.8c.7.1 1.3.2 2 .2h104.6c.7 0 1.3 0 2-.2a6.03 6.03 0 0 0 3.5-1.8 6.1 6.1 0 0 0 1.8-3.5c.1-.7.2-1.3.2-2V7.5c0-.7 0-1.3-.2-2a6.32 6.32 0 0 0-5.3-5.3c-.7-.1-1.3-.2-2-.2h-2Z"/>
  <path d="M8.4 39.1h-.9c-.6 0-1.3 0-1.9-.2-.6 0-1.1-.3-1.7-.5-.5-.3-1-.6-1.4-1-.4-.4-.8-.9-1-1.4-.3-.5-.5-1.1-.5-1.7-.1-.6-.2-1.2-.2-1.9V7.5c0-.6 0-1.3.2-1.9 0-.6.3-1.1.5-1.7.3-.5.6-1 1-1.4.4-.4.9-.8 1.4-1C4.4 1.2 5 1 5.6 1S6.8.9 7.5.9h104.6c.6 0 1.2 0 1.9.2.6 0 1.1.3 1.7.5 1 .5 1.9 1.4 2.4 2.4.3.5.4 1.1.5 1.7.1.6.2 1.3.2 1.9v24.9c0 .6 0 1.2-.2 1.8 0 .6-.3 1.1-.5 1.7-.3.5-.6 1-1 1.4s-.9.8-1.4 1c-.5.3-1.1.5-1.7.5s-1.2.2-1.9.2H8.4Z"/>
  <path id="_Path_" fill="#fff" d="M24.8 20.3c0-1.7.9-3.3 2.4-4.1-.9-1.3-2.4-2.1-4-2.2-1.7-.2-3.3 1-4.2 1s-2.2-1-3.6-.9c-1.9 0-3.6 1.1-4.5 2.7-1.9 3.3-.5 8.3 1.4 11 .9 1.3 2 2.8 3.4 2.8s1.9-.9 3.6-.9 2.1.9 3.6.9 2.4-1.3 3.3-2.7c.7-.9 1.2-2 1.5-3.1-1.8-.7-2.9-2.5-2.9-4.4v-.1Z"/>
  <path id="_Path_2" fill="#fff" d="M22 12.2c.8-1 1.2-2.2 1.1-3.5-1.2.1-2.4.7-3.2 1.7-.8.9-1.2 2.1-1.1 3.4 1.3 0 2.5-.6 3.2-1.5v-.1Z"/>
  <path fill="#fff" d="M42.3 27.1h-4.7l-1.1 3.4h-2L39 18.1h2.1l4.5 12.4h-2l-1.1-3.4h-.2Zm-4.2-1.5h3.8l-1.8-5.5-1.9 5.5h-.1Zm17.1.4c0 2.8-1.5 4.6-3.8 4.6-1.2 0-2.3-.6-2.8-1.6v4.5h-1.9V21.4h1.8v1.5c.6-1 1.7-1.6 2.9-1.6 2.3 0 3.8 1.8 3.8 4.6v.1Zm-2 0c0-1.8-1-3-2.4-3s-2.4 1.2-2.4 3 1 3 2.4 3 2.4-1.2 2.4-3.1v.1Zm11.9 0c0 2.8-1.5 4.6-3.8 4.6-1.2 0-2.3-.6-2.8-1.6v4.5h-1.9V21.4h1.8v1.5c.6-1 1.7-1.6 2.9-1.6 2.3 0 3.8 1.8 3.8 4.6v.1Zm-1.9 0c0-1.8-1-3-2.4-3s-2.4 1.2-2.4 3 1 3 2.4 3 2.4-1.2 2.4-3.1v.1Zm8.5 1c.1 1.2 1.3 2 3 2s2.7-.8 2.7-1.9-.7-1.5-2.3-1.9l-1.6-.4c-2.3-.5-3.3-1.6-3.3-3.3s1.9-3.6 4.5-3.6 4.4 1.5 4.5 3.6h-1.9c-.1-1.2-1.1-2-2.6-2s-2.5.8-2.5 1.9.7 1.4 2.2 1.8l1.4.3c2.6.6 3.6 1.6 3.6 3.4s-1.8 3.8-4.8 3.8-4.6-1.4-4.7-3.7h1.9-.1Zm11.6-7.7v2.1H85v1.5h-1.7v5c0 .8.3 1.1 1.1 1.1h.6v1.5h-1c-1.8 0-2.6-.7-2.6-2.5v-5.2h-1.3v-1.5h1.3v-2.1h1.9v.1Zm2.8 6.7c0-2.9 1.7-4.6 4.3-4.6s4.3 1.8 4.3 4.6-1.7 4.6-4.3 4.6-4.3-1.8-4.3-4.6Zm6.7 0c0-2-.9-3.1-2.4-3.1S88 24 88 26s.9 3.1 2.4 3.1 2.4-1.1 2.4-3.1Zm3.4-4.6H98v1.5c.2-1 1.2-1.7 2.2-1.6h.6V23c-.3 0-.6-.1-.8-.1-1 0-1.9.8-2 1.8v5.7h-1.8v-9.1.1Zm13.2 6.4c-.2 1.6-1.8 2.8-3.9 2.8s-4.3-1.8-4.3-4.6 1.6-4.7 4.2-4.7 4.1 1.7 4.1 4.5v.6h-6.4c-.1 1.4.9 2.6 2.1 2.7h.3c.9 0 1.7-.4 2.1-1.3h1.8Zm-6.3-2.7h4.5c0-1.2-.9-2.2-2.1-2.3h-.2c-1.3 0-2.3 1-2.3 2.3h.1ZM37.8 8.7c1.5-.1 2.7 1 2.8 2.5v.5c0 1.9-1 3-2.8 3h-2.2v-6h2.2Zm-1.2 5.1h1.1c1 0 1.9-.7 2-1.8v-.4c.1-1-.6-2-1.6-2.1h-1.5v4.3Zm5.1-1.4c0-1.2.8-2.2 2-2.3 1.2 0 2.2.8 2.3 2v.3c0 1.2-.8 2.2-2 2.3-1.2 0-2.2-.8-2.3-2v-.3Zm3.3 0c0-1-.4-1.5-1.2-1.5s-1.2.6-1.2 1.5.4 1.6 1.2 1.6 1.2-.6 1.2-1.6Zm6.6 2.3h-.9l-.9-3.3-.9 3.3H48l-1.2-4.5h.9l.8 3.4.9-3.4h.8l.9 3.4.8-3.4h.9l-1.2 4.5Zm2.2-4.5h.9v.7c.2-.5.8-.8 1.3-.8.8 0 1.5.5 1.6 1.3v3.2h-.9v-2.7c0-.7-.3-1.1-1-1.1-.6 0-1.1.4-1.1 1v2.8h-.9v-4.5l.1.1Zm5.3-1.8h.9v6.3h-.9V8.4Zm2.1 4c0-1.2.8-2.2 2-2.3s2.2.8 2.3 2v.3c0 1.2-.8 2.2-2 2.3-1.2 0-2.2-.8-2.3-2v-.3Zm3.4 0c0-1-.4-1.5-1.2-1.5s-1.2.6-1.2 1.5.4 1.6 1.2 1.6 1.2-.6 1.2-1.6Zm1.8 1c0-.8.6-1.3 1.7-1.3h1.2v-.5c0-.5-.3-.7-.9-.7s-.8.2-.9.5h-.9c0-.8.8-1.3 1.8-1.3s1.8.6 1.8 1.5v3.1h-.9v-.6c-.3.5-.8.7-1.3.7-.7 0-1.4-.5-1.5-1.2v-.1l-.1-.1Zm2.9-.4v-.4h-1.1c-.6.1-.9.3-.9.7s.3.6.8.6c.6 0 1.1-.4 1.2-.9Zm2-.6c0-1.4.7-2.3 1.9-2.3.6 0 1.1.3 1.4.8V8.4h.9v6.3h-.9V14c-.3.5-.8.8-1.4.8-1.2 0-1.9-.9-1.9-2.3v-.1Zm1 0c0 1 .4 1.5 1.2 1.5s1.2-.6 1.2-1.5-.5-1.5-1.2-1.5-1.2.6-1.2 1.5Zm6.9 0c0-1.2.8-2.2 2-2.3 1.2 0 2.2.8 2.3 2v.3c0 1.2-.8 2.2-2 2.3-1.2 0-2.2-.8-2.3-2v-.3Zm3.4 0c0-1-.4-1.5-1.2-1.5s-1.2.6-1.2 1.5.4 1.6 1.2 1.6 1.2-.6 1.2-1.6Zm2.1-2.2h.8v.7c.2-.5.8-.8 1.3-.8.8 0 1.5.5 1.6 1.4v3.2h-.9V12c0-.7-.3-1.1-1-1.1-.6 0-1 .4-1.1 1v2.8h-.9v-4.5h.2Zm8.8-1.1v1.1h1v.7h-1v2.3c0 .5.2.7.6.7h.3v.7h-.5c-1 0-1.4-.4-1.4-1.2v-2.6h-.7v-.7h.7V9h.9l.1.1Zm2.2-.7h.9v2.5c.2-.5.8-.8 1.4-.8.8 0 1.5.6 1.6 1.4v3.2h-.9V12c0-.7-.3-1.1-1-1.1-.6 0-1.1.4-1.1 1v2.8h-.9V8.4Zm9.1 5.1c-.3.8-1.1 1.4-1.9 1.3-1.1 0-2.1-.9-2.1-2v-.3c-.1-1.1.7-2.2 1.8-2.3h.3c1.2 0 2 .9 2 2.3v.3h-3.2c0 .7.4 1.3 1.1 1.3h.1c.4 0 .9-.2 1.1-.6h.8Zm-3.2-1.5h2.3c0-.6-.4-1.1-1-1.2-.6 0-1.2.5-1.2 1.1l-.1.1Z"/>
</svg>
