<svg xmlns="http://www.w3.org/2000/svg" width="77" height="44" viewBox="0 0 373.76 215.02">
  <path fill="#e40046" d="M373.76 74.9V21.99A21.9 21.9 0 0 0 351.99 0H21.77A21.9 21.9 0 0 0 0 21.99V74.9z"/>
  <path fill="#e40046" d="M0 78.34h373.75v58.76H0z"/>
  <path fill="#e40046" d="M0 141.09v51.94a21.9 21.9 0 0 0 21.77 21.99h330.21a21.87 21.87 0 0 0 21.77-21.99v-51.94z"/>
  <path fill="#fff" d="M62.94 30.33c0-7.06-5.62-4.36-5.62-8.18 0-4.09 7.58-3.96 10.26-3.96 2.48 0 9.67 0 9.67 3.83s-4.9 1.45-4.9 7.46V47.3c0 2.97.07 18.8-22.53 18.8-25.73 0-22.86-20.06-22.86-20.85V30.01c.26-4.16-4.18-4.16-4.18-7.19 0-.92-.72-4.62 12.74-4.62 10.65 0 12.8 1.98 12.8 4.55 0 4.75-4.77.33-5.1 8.38v12.14c0 7.85 2.94 12.87 9.86 12.87 10.32 0 9.86-8.64 9.86-9.37z"/>
  <path fill="#fff" d="M96.83 53.95c0 6.4 2.22 5.28 2.22 7.78 0 4.09-8.69 3.96-11.36 3.96s-9.28 0-9.28-3.96c0-3.16 3-.33 3.2-6.79l.26-9.89c.13-4.88-3.85-3.3-3.85-6.8s15.02-6.8 16.33-6.8c1.44 0 2.35 1.26 2.35 2.57 0 .4-.07.79-.07 1.19 0 .79.33 1.72 1.3 1.72 1.05 0 1.64-1.39 2.94-2.77 1.3-1.32 3.27-2.7 6.99-2.7 13.52 0 11.23 13.39 11.89 23.42.33 5.21 3 4.02 3 6.86 0 1.19.26 3.96-12.02 3.96-2.35 0-8.62.13-8.62-3.56 0-2.37 2.15-1.25 2.48-5.54.33-4.69 2.16-15.24-3.98-15.24-4.18 0-3.79 4.55-3.79 7.52v5.08z"/>
  <path fill="#fff" d="M146.59 52.77c0 7.78 3.85 4.94 3.85 8.44 0 4.48-8.29 4.48-11.23 4.48-11.24 0-11.69-2.57-11.69-4.15 0-2.37 2.68-2.5 3.46-4.55.85-2.31.98-11.88.26-14.32-.59-2.31-3.92-1.59-3.92-4.55 0-4.68 16.59-6.66 17.24-6.66 1.96 0 2.02 1.52 2.02 2.9zm-12.93-23.43c-2.74 0-5.68-1.25-5.68-4.49 0-4.35 8.62-6.13 11.96-6.13 2.61 0 6.34.86 6.34 4.16 0 5.14-8.88 6.47-12.61 6.47h-.01Z"/>
  <path fill="#fff" d="M172.33 50.72c0 4.42 1.83 5.47 3.59 5.47 2.03 0 3.2-1.52 4.38-1.52 1.31 0 2.22 1.85 2.22 3.03 0 4.36-7.45 8.18-14.05 8.18-3.33 0-11.69-1.45-11.69-11.94V40.35c0-2.37.06-1.91-2.87-1.91-3.47 0-3.2.2-3.2-2.9 0-.92-.19-1.65.59-2.18l14.89-9.57c1.5-.92 1.44-.73 3.4-.73 2.61 0 2.74-.26 2.74 2.77 0 5.54-.52 5.41 2.55 5.41h4.57c2.81 0 2.81.2 2.81 3.17 0 3.76-.46 4.02-3 4.02h-4.51c-2.29 0-2.42.07-2.42 2.44z"/>
  <path fill="#fff" d="M200.21 49.79c-.72 0-1.77-.2-1.77.93 0 3.3 4.25 6.07 7.32 6.07 4.9 0 7.31-2.97 8.68-2.97s2.55 2.04 2.55 3.3c0 5.08-9.22 8.77-15.09 8.77-11.75 0-17.83-8.58-17.83-17.09 0-10.16 8.56-17.55 18.36-17.55 11.1 0 16 8.64 16 13.59 0 4.36-1.96 4.95-4.05 4.95H200.2Zm5.68-8.31c0-2.37-1.44-4.22-3.85-4.22-2.16 0-3.92 2.24-3.92 4.35 0 2.37 2.22 1.85 3.92 1.85s3.85.4 3.85-1.98"/>
  <path fill="#fff" d="M260.47 53.82c0 4.62 3.46 3.1 3.46 6.53 0 5.01-14.3 5.34-15.02 5.34-3.33 0-.98-3.63-3.13-3.63-1.24 0-3.78 3.83-9.46 3.83-8.56 0-15.22-9.17-15.22-17.28 0-8.78 7.06-17.35 16.06-17.35 4.51 0 7.05 1.98 7.76 1.98.98 0 1.05-2.17 1.05-2.9 0-4.09-4.77-1.91-4.77-5.48 0-4.88 16.65-6.13 16.84-6.13 1.97 0 2.42 1.39 2.42 3.56v31.54zm-18.21-15.37c-4.38 0-5.16 7.59-5.16 10.69s.78 8.51 4.83 8.51c4.37 0 4.11-8.12 4.11-11.02 0-2.57 0-8.18-3.78-8.18"/>
  <path fill="#fff" d="M28.65 96.11c.13-6.79-4.77-3.5-4.77-7.78 0-3.04 3.79-3.5 6.07-3.5h21.29c18.16 0 24.1 11.35 24.1 23.22s-7.12 23.82-23.64 23.82c-5.68 0-9.21-.33-12.8-.33s-7.38.33-11.11.33c-2.22 0-5.03-1.12-5.03-3.76 0-4.75 5.16.53 5.36-9.1l.52-22.89Zm15.68 24.14c0 3.36.52 4.75 4.05 4.75 8.23 0 9.66-8.51 9.66-15.11 0-15.44-5.75-17.88-10.78-17.88-2.74 0-2.94 1.12-2.94 3.63v24.61z"/>
  <path fill="#fff" d="M111 115.77c0 11.61 3.92 5.28 3.92 8.84 0 3.76-5.1 7.85-9.86 7.85-5.16 0-5.29-3.36-6.92-3.36s-3.53 3.36-9.47 3.36c-5.42 0-10.84-2.9-10.84-9.43 0-4.69 4.44-10.49 15.94-10.49 2.02 0 2.94.13 2.94-2.25 0-2.18-.06-6.73-3.07-6.73-3.92 0-4.31 7.13-10.12 7.13a3.54 3.54 0 0 1-3.66-3.63c0-5.61 11.04-9.24 17.24-9.24 3.72 0 13.91 1.45 13.91 11.35zm-19.59 5.81c0 1.71.92 3.56 2.81 3.56 2.48 0 2.68-2.71 2.68-4.68 0-1.46.07-3.1-1.77-3.1-2.22 0-3.72 2.11-3.72 4.22"/>
  <path fill="#fff" d="M137.06 119.33c0 7.78 3.85 4.95 3.85 8.44 0 4.49-8.29 4.49-11.23 4.49-11.24 0-11.69-2.57-11.69-4.16 0-2.37 2.68-2.51 3.47-4.55.85-2.3.98-11.88.26-14.32-.59-2.31-3.92-1.58-3.92-4.55 0-4.68 16.59-6.66 17.24-6.66 1.96 0 2.02 1.52 2.02 2.9zm-12.93-23.42c-2.74 0-5.69-1.25-5.69-4.49 0-4.35 8.63-6.14 11.96-6.14 2.61 0 6.33.86 6.33 4.16 0 5.14-8.88 6.47-12.6 6.47"/>
  <path fill="#fff" d="M147.38 111.54c0-6.46-4.05-2.83-4.05-6.86 0-5.21 15.28-6.66 15.87-6.66 2.48 0 2.55.66 2.81 2.9.07.79 0 2.31 1.11 2.31 1.57 0 2.55-5.21 8.16-5.21 4.38 0 7.25 3.3 7.25 7.65s-3.72 7.92-8.03 7.92-5.42-3.76-7.12-3.76c-1.83 0-1.5 4.42-1.5 5.61 0 1.98.2 4.75.52 7.26.39 2.9 5.35 1.12 5.35 5.08 0 4.16-5.75 4.49-12.93 4.49-3 0-11.89.13-11.89-4.42 0-2.77 3-2.77 3.72-5.07.52-1.65.72-5.41.72-7.26z"/>
  <path fill="#fff" d="M210 126c-3.2 8.78-7.38 17.35-18.02 17.35-4.7 0-10.25-2.44-10.25-7.92 0-3.3 2.48-6.07 5.81-6.07 6.07 0 4.38 6.99 7.06 6.99 1.76 0 2.54-1.71 2.54-3.23 0-1.85-1.3-4.36-2.09-6.01l-9.14-19.33c-1.24-2.64-4.97-1.85-4.97-4.89 0-1.98 1.18-4.88 14.96-4.88 2.48 0 8.36.26 8.36 4.03 0 1.78-1.5 2.31-1.5 3.89 0 2.51 2.87 7.12 3.98 7.12 1.96 0 3.33-4.55 3.33-6.13 0-2.97-2.09-2.77-2.09-5.02 0-3.49 6.14-3.89 8.5-3.89 2.16 0 6.98.33 6.98 3.36 0 3.89-3.92 2.18-6.2 6.07-1.44 2.31-2.48 5.21-3.4 7.78L210 125.97z"/>
  <path fill="#fff" d="M28.52 171.97c.07-2.71.13-6.93-.19-9.5-.78-5.68-5.03-3.04-5.03-6.66 0-2.51 2.87-3.57 4.96-3.57 1.7 0 13.45.66 18.88.66 1.31 0 14.43-.66 15.35-.66 2.55 0 5.22 5.21 5.22 9.7 0 2.25-1.04 4.55-3.53 4.55-4.51 0-2.15-6.8-14.7-6.8-3.98 0-5.68-.33-5.68 9.24 0 1.19.07 2.31 3.85 2.31 5.03 0 1.83-6.07 6.4-6.07 3.72 0 3.98 7.19 3.98 9.76 0 3.1-.33 11.08-4.77 11.08-4.18 0 .13-7.45-6.86-7.45-2.87 0-2.48.53-2.55 7.32-.26 9.77 6.33 4.36 6.33 9.37 0 1.52.59 4.42-15.28 4.42-10.45 0-12.15-1.52-12.15-4.35 0-3.7 3.53-1.98 4.9-5.48.65-1.84.85-6.53.85-8.71v-9.17z"/>
  <path fill="#fff" d="M97.57 183.19c0 11.61 3.92 5.28 3.92 8.84 0 3.76-5.09 7.86-9.86 7.86-5.16 0-5.29-3.37-6.92-3.37s-3.53 3.37-9.47 3.37c-5.42 0-10.84-2.91-10.84-9.44 0-4.68 4.44-10.49 15.94-10.49 2.03 0 2.94.13 2.94-2.24 0-2.18-.07-6.73-3.07-6.73-3.92 0-4.31 7.13-10.13 7.13a3.54 3.54 0 0 1-3.66-3.63c0-5.6 11.04-9.24 17.25-9.24 3.72 0 13.91 1.45 13.91 11.34v6.6zm-19.59 5.8c0 1.72.91 3.57 2.81 3.57 2.48 0 2.68-2.71 2.68-4.68 0-1.45.07-3.1-1.76-3.1-2.22 0-3.72 2.11-3.72 4.22Z"/>
  <path fill="#fff" d="M108.8 178.97c0-6.47-4.05-2.84-4.05-6.86 0-5.21 15.28-6.66 15.87-6.66 2.48 0 2.55.66 2.81 2.9.06.79 0 2.31 1.11 2.31 1.57 0 2.55-5.22 8.16-5.22 4.38 0 7.25 3.3 7.25 7.65s-3.73 7.92-8.04 7.92-5.42-3.76-7.12-3.76c-1.83 0-1.5 4.42-1.5 5.61 0 1.98.2 4.75.52 7.26.39 2.9 5.36 1.12 5.36 5.08 0 4.16-5.75 4.48-12.93 4.48-3 0-11.89.13-11.89-4.42 0-2.77 3-2.77 3.72-5.08.52-1.65.72-5.41.72-7.26z"/>
  <path fill="#fff" d="M146.55 180.55c0-8.38-3.27-5.08-3.27-8.38 0-4.89 16.2-6.73 16.33-6.73 1.63 0 1.76 1.45 1.76 2.84 0 .79-.26 3.03 1.11 3.03s4.11-5.87 11.82-5.87 7.84 5.87 9.21 5.87c1.05 0 4.77-5.87 11.5-5.87 6.21 0 10.06 3.43 10.06 9.9v13.92c0 3.83 2.41 4.15 2.41 6.07 0 4.16-7.45 4.35-9.99 4.35-2.16 0-9.73-.46-9.73-3.89 0-2.44 2.29-2.38 2.29-6.2v-5.93c0-2.77.32-8.31-3.4-8.31s-3.33 4.49-3.33 6.93v4.09c0 8.12 2.35 6.73 2.35 9.17 0 4.09-7.84 4.15-10.19 4.15-9.86 0-10.39-1.85-10.32-3.69.07-3.5 3.33-.73 3.14-8.58v-3.76c0-2.37.33-8.31-3.4-8.31s-3.33 4.49-3.33 6.93v5.35c0 6.07 1.76 5.67 1.76 8.05 0 1.72-1.5 4.02-10.45 4.02-2.55 0-10.26.07-10.26-3.43 0-2.97 3.92-1.39 3.92-9.63v-6.09Z"/>
  <path fill="#fff" d="M226.75 183.78c-.72 0-1.76-.19-1.76.93 0 3.3 4.24 6.07 7.31 6.07 4.9 0 7.31-2.97 8.69-2.97s2.54 2.04 2.54 3.3c0 5.08-9.2 8.78-15.08 8.78-11.76 0-17.83-8.58-17.83-17.09 0-10.16 8.56-17.55 18.35-17.55 11.1 0 15.99 8.64 15.99 13.59 0 4.36-1.96 4.95-4.05 4.95zm5.69-8.31c0-2.38-1.44-4.22-3.85-4.22-2.15 0-3.92 2.25-3.92 4.36 0 2.37 2.22 1.84 3.92 1.84s3.85.4 3.85-1.98"/>
  <path fill="#fff" d="M251.62 178.97c0-6.47-4.05-2.84-4.05-6.86 0-5.21 15.28-6.66 15.87-6.66 2.48 0 2.55.66 2.81 2.9.07.79 0 2.31 1.11 2.31 1.57 0 2.55-5.22 8.17-5.22 4.38 0 7.25 3.3 7.25 7.65s-3.72 7.92-8.04 7.92-5.42-3.76-7.12-3.76c-1.83 0-1.5 4.42-1.5 5.61 0 1.98.19 4.75.52 7.26.39 2.9 5.36 1.12 5.36 5.08 0 4.16-5.75 4.48-12.93 4.48-3 0-11.89.13-11.89-4.42 0-2.77 3-2.77 3.72-5.08.52-1.65.72-5.41.72-7.26z"/>
  <path fill="#fff" d="M304.77 166.1c1.24 0 2.29-.86 3.53-.86 3 0 6.01 6.07 6.01 8.78 0 1.78-1.5 3.1-3.19 3.1-3.73 0-5.82-5.21-8.7-5.21-1.17 0-2.35.99-2.35 2.24 0 4.22 14.37 5.01 14.37 15.24 0 6.2-5.95 10.5-12.73 10.5-2.69 0-7.51-.86-8.3-.86-.91 0-1.7.26-2.55.26-1.3 0-1.96-.2-2.87-1.26-1.63-1.85-3.26-5.6-3.26-8.11 0-1.72.59-3.1 2.48-3.1 2.88 0 5.49 6.53 9.15 6.53 1.3 0 2.55-.66 2.55-2.11 0-3.89-12.8-4.35-12.8-15.24 0-6.6 5.36-10.76 12.08-10.76 2.55 0 5.62.86 6.6.86z"/>
</svg>
