<svg xmlns="http://www.w3.org/2000/svg" width="183" height="38" viewBox="0 0 182.59 37.16">
  <path id="circle" fill="#8ac440" d="M164.01 37.16a18.58 18.58 0 1 0 0-37.16 18.58 18.58 0 0 0 0 37.16"/>
  <g id="U-Drive" fill="#8ac440">
    <path id="U" d="M61.76 12.61c0-2.47-1.99-1.52-1.99-2.86 0-1.43 2.68-1.39 3.63-1.39.88 0 3.42 0 3.42 1.34s-1.73.51-1.73 2.61v6.24c0 1.04.02 6.58-7.97 6.58-9.1 0-8.08-7.02-8.08-7.3v-5.34c.09-1.46-1.48-1.46-1.48-2.52 0-.32-.25-1.62 4.5-1.62 3.77 0 4.53.69 4.53 1.59 0 1.66-1.69.12-1.8 2.93v4.25c0 2.75 1.04 4.5 3.49 4.5 3.65 0 3.49-3.03 3.49-3.28v-5.75.02z"/>
    <path id="_-" d="M71.25 20.92c-.55 0-1.13-.18-1.69-.18-2.01 0-2.15.09-2.36.09a.7.7 0 0 1-.69-.69c0-.58.72-2.45.92-2.86.3-.58.58-.83 1.25-.83.55 0 1.13.18 1.69.18 2.01 0 2.15-.09 2.36-.09.37 0 .69.28.69.69 0 .58-.72 2.45-.92 2.86-.3.58-.58.83-1.25.83"/>
    <path id="D" d="M75.29 12.4c.05-2.38-1.69-1.22-1.69-2.73 0-1.06 1.34-1.22 2.15-1.22h7.53c6.42 0 8.52 3.97 8.52 8.13s-2.52 8.34-8.36 8.34q-1.47 0-2.54-.07c-.72-.02-1.34-.05-1.99-.05s-1.32.02-1.96.05q-.97.07-1.96.07c-.79 0-1.78-.39-1.78-1.32 0-1.66 1.82.18 1.89-3.19l.18-8.02Zm5.55 8.45c0 1.18.18 1.66 1.43 1.66 2.91 0 3.42-2.98 3.42-5.29 0-5.41-2.03-6.26-3.81-6.26-.97 0-1.04.39-1.04 1.27z"/>
    <path id="r" d="M94.63 17.8c0-2.26-1.43-.99-1.43-2.4 0-1.82 5.41-2.33 5.61-2.33.88 0 .9.23.99 1.02.02.28 0 .81.39.81.55 0 .9-1.82 2.89-1.82 1.55 0 2.56 1.15 2.56 2.68s-1.32 2.77-2.84 2.77-1.92-1.32-2.52-1.32c-.65 0-.53 1.55-.53 1.96 0 .69.07 1.66.18 2.54.14 1.02 1.89.39 1.89 1.78 0 1.46-2.03 1.57-4.57 1.57-1.06 0-4.2.05-4.2-1.55 0-.97 1.06-.97 1.32-1.78.18-.58.25-1.89.25-2.54V17.8Z"/>
    <path id="i" d="M113.24 20.53c0 2.73 1.36 1.73 1.36 2.96 0 1.57-2.93 1.57-3.97 1.57-3.97 0-4.13-.9-4.13-1.46 0-.83.95-.88 1.22-1.59.3-.81.35-4.16.09-5.01-.21-.81-1.39-.55-1.39-1.59 0-1.64 5.87-2.33 6.1-2.33.69 0 .72.53.72 1.02zm-4.57-8.2c-.97 0-2.01-.44-2.01-1.57 0-1.52 3.05-2.15 4.23-2.15.92 0 2.24.3 2.24 1.46 0 1.8-3.14 2.26-4.46 2.26"/>
    <path id="v" d="M116.48 16.26c-.67-1.27-1.96-.55-1.96-1.8 0-.58.3-1.39 4.64-1.39.81 0 3.9-.05 3.9 1.18 0 .76-.88.92-.88 1.52 0 .53.85 2.26 1.43 2.26.79 0 1.59-1.96 1.59-2.43 0-.58-.79-.81-.79-1.48 0-1.15 2.54-1.06 3.23-1.06s2.4 0 2.4 1.02c0 1.11-1.5.6-2.17 1.89l-3.79 7.37c-.76 1.46-1.39 1.78-1.92 1.78-.9 0-1.48-.99-1.85-1.69l-3.86-7.18h.03Z"/>
    <path id="e" d="M135.17 19.49c-.25 0-.62-.07-.62.32 0 1.15 1.5 2.13 2.59 2.13 1.73 0 2.59-1.04 3.07-1.04s.9.72.9 1.15c0 1.78-3.26 3.07-5.34 3.07-4.16 0-6.31-3-6.31-5.98 0-3.56 3.03-6.14 6.49-6.14 3.93 0 5.66 3.03 5.66 4.76 0 1.52-.69 1.73-1.43 1.73zm2.01-2.91c0-.83-.51-1.48-1.36-1.48-.76 0-1.39.79-1.39 1.52 0 .83.79.65 1.39.65s1.36.14 1.36-.69"/>
  </g>
  <g id="Plus" fill="#fff">
    <path id="P" d="M150.05 13.52c0-.59 1.76-1.49 4.14-1.49s4.41 1.44 4.41 3.74-1.86 3.67-3.59 3.67c-.99 0-1.71-.27-2.08-.54 0 1.49.07 3.15.22 3.59-.22.22-.74.45-1.04.45-.52 0-.82-1.07-.82-2.63 0-1.88.74-4.16.74-5.9 0-.52-.15-.79-.54-.79-.32 0-.77.15-1.14.35-.17-.1-.3-.27-.3-.45m4.33 4.8c1.46 0 2.6-.92 2.6-2.5s-1.21-2.55-2.68-2.55c-.32 0-.69.05-.94.12.02.22.02.32.02.62 0 1.14-.27 2.28-.4 4.11.25.1.82.2 1.39.2z"/>
    <path id="l" d="M163.03 21.64c0 .59-.77 1.29-1.61 1.29-1.34 0-2.13-.79-2.13-3.96 0-2.75.32-5.25.69-6.86.22-.94.45-1.26.87-1.26.47 0 1.19.64 1.19 1.16 0 .42-.42 1.56-.99 2.72-.17.82-.27 2.43-.27 4.16 0 2.2.35 2.68.89 2.68.47 0 .87-.2 1.09-.42.15.07.27.27.27.5Z"/>
    <path id="u" d="M162.16 16.04c0-.37.87-1.04 1.78-1.04.82 0 1.36.57 1.36 1.71 0 .69-.2 2.25-.2 3.29 0 1.16.37 1.56 1.04 1.56.84 0 1.49-.84 1.96-2.3 0-1.09.05-2.16.12-2.9.1-1.04.37-1.36.94-1.36.4 0 .87.22.87.74 0 .59-.17 1.41-.59 3.02-.02.27-.05.72-.05.94 0 1.26.27 1.98.77 1.98.32 0 .52-.07.74-.2q.16.16.17.45c0 .42-.59.99-1.19.99q-1.27.02-1.61-1.98h-.02c-.5 1.19-1.31 1.98-2.45 1.98s-2.18-.94-2.18-2.7c0-1.02.2-2.01.2-2.9 0-.84-.22-1.07-.64-1.07-.35 0-.55.07-.82.17a.6.6 0 0 1-.2-.4z"/>
    <path id="s" d="M174.54 21.84c.89 0 1.36-.4 1.36-.97 0-.52-.37-.79-1.83-1.26-1.44-.45-2.08-1.11-2.08-2.18 0-1.34 1.26-2.55 2.82-2.55 1.16 0 1.86.59 1.86 1.34 0 .35-.27.72-.77.82-.15-.62-.82-1.04-1.49-1.04s-1.24.37-1.24.94c0 .45.37.72 1.71 1.19 1.61.57 2.13 1.16 2.13 2.18 0 1.46-1.26 2.65-2.97 2.65s-2.72-.87-2.72-1.83q-.01-.77.87-1.09a2.36 2.36 0 0 0 2.35 1.81Z"/>
  </g>
  <g id="Only_with" fill="#0568af">
    <path id="O" d="M0 17.14c0-2.38 1.45-4.38 3.51-4.38 1.61 0 2.89 1.33 2.89 3.44 0 2.38-1.47 4.36-3.51 4.36-1.61 0-2.89-1.31-2.89-3.42m1.24-.19c0 1.86.78 2.73 1.83 2.73s2.09-1.22 2.09-3.26c0-1.9-.78-2.77-1.83-2.77s-2.09 1.26-2.09 3.3"/>
    <path id="n" d="M6.79 15.63c0-.27.5-.75 1.08-.75.69 0 1.17.55 1.03 1.83h.02c.53-1.28 1.26-1.83 2.02-1.83s1.37.73 1.37 1.84c0 .66-.07 1.51-.07 2.2 0 .59.16.75.43.75q.33 0 .53-.12.13.11.12.3c0 .3-.43.71-.99.71-.64 0-1.15-.51-1.15-1.53 0-.43.07-1.26.07-1.99 0-.78-.2-1.1-.6-1.1-.6 0-1.37.89-1.65 1.77q-.04.34-.05.73c0 .46.2.92.2 1.42 0 .27-.37.69-.67.69-.35 0-.66-.44-.66-1.22 0-.48.16-1.42.16-2.31s-.12-1.24-.41-1.24q-.32 0-.62.12a.4.4 0 0 1-.14-.28z"/>
    <path id="l1" d="M16.34 19.64c0 .43-.55.92-1.15.92-.96 0-1.53-.57-1.53-2.84 0-1.97.23-3.76.5-4.91.16-.67.32-.9.62-.9.34 0 .85.46.85.83 0 .3-.3 1.12-.71 1.95-.12.59-.2 1.74-.2 2.98 0 1.58.25 1.92.64 1.92.34 0 .62-.14.78-.3.11.05.2.2.2.35"/>
    <path id="y" d="M15.56 15.63c0-.27.57-.75 1.14-.75s1.05.28 1.22 2.18c.2 2.11.46 2.39.8 2.39.41 0 .89-.85 1.17-4.03.05-.57.18-.64.37-.64.34 0 .83.37.83.73a8 8 0 0 1-.71 2.96c-.23 3.81-1.53 5.41-3.07 5.41-.87 0-1.44-.57-1.44-1.4s.62-1.65 2.16-2.43v-.02c-.51-.25-.99-.78-1.19-2.36-.2-1.6-.41-1.9-.73-1.9q-.2 0-.43.12a.4.4 0 0 1-.14-.28zm3.7 4.24c-.27.27-.44.41-1.15.87-1.01.66-1.29 1.12-1.29 1.63 0 .41.25.64.6.64.78 0 1.61-1.03 1.88-3.14z"/>
    <path id="w" d="M22.81 15.63c0-.27.57-.75 1.14-.75s.99.28 1.24 2.31c.25 2.02.39 2.38.64 2.38.32 0 .73-.8 1.14-2.59-.04-.35-.11-.98-.11-1.24 0-.6.18-.78.48-.78.39 0 .76.35.76.66 0 .23-.11.71-.16.98.04 2.08.43 2.98.8 2.98.48 0 1.26-1.93 1.26-3.67 0-.55-.07-.98-.11-1.15h.12c.66 0 1.21.48 1.21.78 0 1.1-.3 2.45-.92 3.55-.53.92-1.06 1.47-1.67 1.47-.64 0-1.19-.8-1.37-1.99h-.02c-.46 1.35-.98 1.99-1.65 1.99-.73 0-1.22-.64-1.49-2.89-.2-1.6-.41-1.86-.73-1.86q-.2 0-.43.12a.4.4 0 0 1-.14-.28z"/>
    <path id="i1" d="M31.43 15.63c0-.27.71-.75 1.35-.75.59 0 .98.41.98 1.29 0 .96-.18 1.92-.18 2.66 0 .62.16.83.48.83q.32 0 .53-.12.13.11.12.3c0 .3-.48.71-.99.71-.78 0-1.19-.57-1.19-1.53 0-.69.16-1.51.16-2.38 0-.64-.18-.87-.5-.87q-.32 0-.62.12a.4.4 0 0 1-.14-.28zm1.88-3.07c.35 0 .62.27.62.64s-.25.75-.67.75c-.35 0-.6-.27-.6-.64s.21-.75.66-.75Z"/>
    <path id="t" d="M35.66 14.5c.09-1.12.27-1.6.55-1.6.34 0 .8.35.8.75s-.18.82-.51 1.37l-.02.21c.32-.04 1.01-.09 1.47-.09l.04.02a1.3 1.3 0 0 1-.25.71q-.7 0-1.35.04c-.04.48-.11 1.95-.11 2.63 0 .87.27 1.14.76 1.14q.59-.01 1.15-.55.13.11.12.3c0 .48-.73 1.14-1.61 1.14-.82 0-1.49-.6-1.49-1.7 0-.85.21-2.09.28-2.93l-1.05.07c0-.37.11-.57.27-.71q.76-.11.94-.78v-.02Z"/>
    <path id="h" d="M44.17 19.85c0 .3-.43.71-.99.71-.64 0-1.15-.51-1.15-1.53 0-.43.07-1.26.07-1.99 0-.78-.23-1.1-.64-1.1-.55 0-1.44.92-1.7 1.77q-.05.52.07 1.12c.07.43.16.8.16 1.03 0 .27-.37.69-.67.69-.35 0-.66-.44-.66-1.33 0-2.15.21-5.27.48-6.42.16-.67.32-.9.62-.9.34 0 .85.46.85.83 0 .3-.25.99-.64 1.88-.12.59-.21 1.4-.27 2.09h.02c.53-1.28 1.28-1.83 2.04-1.83s1.4.73 1.4 1.84c0 .66-.07 1.51-.07 2.2 0 .59.16.75.43.75.23 0 .35-.05.53-.12q.13.11.12.3Z"/>
  </g>
</svg>
