<svg xmlns="http://www.w3.org/2000/svg" width="44" height="44" viewBox="0 0 138.8 138.81">
  <path fill="#fff" d="M69.4 138.81A69.4 69.4 0 1 0 69.39.02a69.4 69.4 0 0 0 .01 138.78"/>
  <path fill="#8dc540" d="M87.47 34.38c0-9.71-7.84-6-7.84-11.26 0-5.67 10.54-5.47 14.29-5.47 3.49 0 13.5 0 13.5 5.27s-6.8 2.01-6.8 10.34v24.59c0 4.08.06 25.97-31.46 25.97-35.89 0-31.91-27.7-31.91-28.81V33.97c.39-5.75-5.86-5.75-5.86-9.94 0-1.24-1.03-6.37 17.81-6.37 14.83 0 17.85 2.76 17.85 6.28 0 6.55-6.67.49-7.13 11.58v16.77c0 10.84 4.11 17.77 13.79 17.77 14.4 0 13.76-11.92 13.76-12.92z"/>
  <path fill="#8dc540" d="M30.94 90.87c.06-2.99-2.12-1.54-2.12-3.42 0-1.33 1.68-1.54 2.7-1.54h9.46c8.07 0 10.71 4.99 10.71 10.21s-3.16 10.48-10.5 10.48q-1.86 0-3.19-.09c-.9-.03-1.68-.06-2.5-.06s-1.65.03-2.47.06q-1.2.09-2.47.09c-.99 0-2.23-.49-2.23-1.65 0-2.09 2.29.23 2.38-4zm6.96 10.62c0 1.48.23 2.09 1.8 2.09 3.66 0 4.29-3.74 4.29-6.64 0-6.79-2.55-7.86-4.79-7.86-1.22 0-1.31.49-1.31 1.6v10.82h.01Z"/>
  <path fill="#8dc540" d="M54.5 97.66c0-2.84-1.8-1.25-1.8-3.02 0-2.29 6.79-2.93 7.05-2.93 1.1 0 1.13.29 1.25 1.28.03.35 0 1.02.49 1.02.7 0 1.13-2.29 3.63-2.29 1.94 0 3.22 1.45 3.22 3.37s-1.65 3.48-3.57 3.48-2.41-1.65-3.16-1.65c-.81 0-.67 1.94-.67 2.47 0 .87.09 2.09.23 3.19.17 1.28 2.38.49 2.38 2.23 0 1.83-2.55 1.97-5.75 1.97-1.33 0-5.28.06-5.28-1.94 0-1.22 1.33-1.22 1.65-2.23.23-.73.32-2.38.32-3.19z"/>
  <path fill="#8dc540" d="M77.39 101.09c0 3.42 1.71 2.18 1.71 3.71 0 1.97-3.69 1.97-4.99 1.97-4.99 0-5.19-1.13-5.19-1.83 0-1.04 1.19-1.1 1.54-2 .38-1.02.44-5.22.12-6.3-.26-1.02-1.74-.7-1.74-2 0-2.06 7.37-2.93 7.66-2.93.87 0 .9.67.9 1.28v8.1zm-5.74-10.3c-1.22 0-2.52-.55-2.52-1.97 0-1.92 3.83-2.7 5.31-2.7 1.16 0 2.81.38 2.81 1.83 0 2.26-3.95 2.84-5.6 2.84"/>
  <path fill="#8dc540" d="M80.53 95.72c-.84-1.6-2.47-.7-2.47-2.26 0-.73.38-1.74 5.83-1.74 1.02 0 4.9-.06 4.9 1.48 0 .96-1.1 1.16-1.1 1.92 0 .67 1.07 2.84 1.8 2.84.99 0 2-2.47 2-3.05 0-.73-.99-1.02-.99-1.86 0-1.45 3.19-1.33 4.06-1.33s3.02 0 3.02 1.28c0 1.39-1.89.75-2.73 2.38l-4.76 9.26c-.96 1.83-1.74 2.23-2.41 2.23-1.13 0-1.86-1.25-2.32-2.12l-4.85-9.02h.02Z"/>
  <path fill="#8dc540" d="M103.3 99.78c-.32 0-.78-.09-.78.41 0 1.45 1.89 2.67 3.25 2.67 2.18 0 3.25-1.31 3.86-1.31s1.13.9 1.13 1.45c0 2.23-4.09 3.86-6.7 3.86-5.22 0-7.92-3.77-7.92-7.52 0-4.47 3.8-7.72 8.15-7.72 4.93 0 7.11 3.8 7.11 5.98 0 1.92-.87 2.18-1.8 2.18zm2.53-3.66c0-1.04-.64-1.86-1.71-1.86-.96 0-1.74.99-1.74 1.92 0 1.04.99.81 1.74.81s1.71.17 1.71-.87"/>
  <path fill="#8dc540" d="M111.4 110.85H28.33c-.33 0-.61-.27-.61-.61s.27-.61.61-.61h83.07c.34 0 .61.27.61.61s-.27.61-.61.61"/>
  <circle cx="69.67" cy="119.53" r="14.79" fill="#0568af"/>
  <path fill="#fff" stroke="#fff" stroke-miterlimit="10" stroke-width=".09" d="M57.48 114.99c0-.54 1.6-1.35 3.75-1.35s4 1.3 4 3.39-1.69 3.33-3.26 3.33c-.9 0-1.55-.25-1.89-.49 0 1.35.07 2.85.2 3.26-.2.2-.67.4-.94.4-.47 0-.74-.97-.74-2.38 0-1.71.67-3.78.67-5.35 0-.47-.13-.72-.49-.72-.29 0-.7.13-1.03.31q-.26-.16-.27-.4Zm3.94 4.36c1.33 0 2.36-.83 2.36-2.27s-1.1-2.32-2.43-2.32c-.29 0-.63.04-.85.11.02.2.02.29.02.56 0 1.03-.25 2.07-.36 3.73.22.09.74.18 1.26.18Z"/>
  <path fill="#fff" stroke="#fff" stroke-miterlimit="10" stroke-width=".09" d="M69.19 122.36c0 .54-.7 1.17-1.46 1.17-1.21 0-1.93-.72-1.93-3.6 0-2.5.29-4.76.63-6.23.2-.85.4-1.15.79-1.15.43 0 1.08.58 1.08 1.06 0 .38-.38 1.42-.9 2.47-.16.74-.25 2.2-.25 3.78 0 2 .31 2.43.81 2.43.43 0 .79-.18.99-.38.13.07.25.25.25.45Z"/>
  <path fill="#fff" stroke="#fff" stroke-miterlimit="10" stroke-width=".09" d="M68.25 117.28c0-.34.79-.94 1.62-.94.74 0 1.24.52 1.24 1.55 0 .63-.18 2.05-.18 2.99 0 1.06.34 1.42.94 1.42.76 0 1.35-.76 1.78-2.09 0-.99.04-1.96.11-2.63.09-.94.34-1.24.85-1.24.36 0 .79.2.79.67 0 .54-.16 1.28-.54 2.74l-.04.85c0 1.15.25 1.8.7 1.8.29 0 .47-.07.67-.18a.6.6 0 0 1 .16.4c0 .38-.54.9-1.08.9q-1.15.02-1.46-1.8h-.02c-.45 1.08-1.19 1.8-2.23 1.8s-1.98-.85-1.98-2.45c0-.92.18-1.82.18-2.63 0-.76-.2-.97-.58-.97-.31 0-.49.07-.74.16a.5.5 0 0 1-.18-.36Z"/>
  <path fill="#fff" stroke="#fff" stroke-miterlimit="10" stroke-width=".09" d="M79.67 122.54c.81 0 1.24-.36 1.24-.88 0-.47-.34-.72-1.66-1.15-1.3-.4-1.89-1.01-1.89-1.98 0-1.21 1.15-2.32 2.56-2.32 1.06 0 1.69.54 1.69 1.21 0 .31-.25.65-.7.74-.13-.56-.74-.94-1.35-.94s-1.12.34-1.12.85c0 .4.34.65 1.55 1.08 1.46.52 1.93 1.06 1.93 1.98 0 1.33-1.15 2.41-2.7 2.41s-2.47-.79-2.47-1.66c0-.45.25-.81.79-.99.25.99 1.1 1.64 2.14 1.64h-.01Z"/>
</svg>
