<svg xmlns="http://www.w3.org/2000/svg" class="how-it-works-hero-image" viewBox="0 0 2000 1600">
<style>
/* <![CDATA[ */

#t1 {
    animation: text_before1 10s ease-in-out infinite;
}

@keyframes text_before1 {
    0%, 3% {
        fill: #000;
    }
    6% {
        fill: #fff;
        transform: translate(0px, 0px);
    }
    9% {
        opacity: 1;
        transform: translate(0px, -100px);
    }
    12%, 100% {
        opacity: 0;
    }
    97% {
        fill: #fff;
        opacity: 0;
    }
    100% {
        fill: #000;
        opacity: 1;
    }
}

#hl1 {
    animation: hl 10s ease-in-out infinite;
}

@keyframes hl {
    0%, 3% {
        opacity: 0;
    }
    6% {
        opacity: 1;
        transform: translate(0px, 0px);
    }
    9%, 12% {
        transform: translate(0px, -100px);
    }
    15% {
        opacity: 1;
        transform: translate(0px, 0px);
    }
    18%, 100% {
        opacity: 0;
    }
}

#t1_2 {
    animation: text_after1 10s ease-in-out infinite;
}

@keyframes text_after1 {
    0%, 9% {
        opacity: 0;
        fill: #fff;
        transform: translate(0px, -100px);
    }
    12% {
        opacity: 1;
        transform: translate(0px, -100px);
    }
    15% {
        fill: #fff;
        transform: translate(0px, 0px);
    }
    18%, 100% {
        fill: #000;
        transform: translate(0px, 0px);
    }
    97% {
        opacity: 1;
    }
    100% {
        opacity: 0;
    }
}

#t2 {
    animation: text_before2 10s ease-in-out infinite;
}

@keyframes text_before2 {
    0%, 18% {
        fill: #000;
    }
    21% {
        fill: #fff;
        transform: translate(0px, 0px);
    }
    24% {
        opacity: 1;
        transform: translate(0px, -100px);
    }
    27%, 100% {
        opacity: 0;
    }
    97% {
        fill: #fff;
        opacity: 0;
    }
    100% {
        fill: #000;
        opacity: 1;
    }
}

#hl2 {
    animation: hl2 10s ease-in-out infinite;
}

@keyframes hl2 {
    0%, 18% {
        opacity: 0;
    }
    21% {
        opacity: 1;
        transform: translate(0px, 0px);
    }
    24%, 27% {
        transform: translate(0px, -100px);
    }
    30% {
        opacity: 1;
        transform: translate(0px, 0px);
    }
    33%, 100% {
        opacity: 0;
    }
}

#t2_2 {
    animation: text_after2 10s ease-in-out infinite;
}

@keyframes text_after2 {
    0%, 24% {
        opacity: 0;
        fill: #fff;
        transform: translate(0px, -100px);
    }
    27% {
        opacity: 1;
        transform: translate(0px, -100px);
    }
    30% {
        fill: #fff;
        transform: translate(0px, 0px);
    }
    33%, 100% {
        fill: #000;
        transform: translate(0px, 0px);
    }
    97% {
        opacity: 1;
    }
    100% {
        opacity: 0;
    }
}

#t3 {
    animation: text_before3 10s ease-in-out infinite;
}

@keyframes text_before3 {
    0%, 33% {
        fill: #000;
    }
    36% {
        fill: #fff;
        transform: translate(0px, 0px);
    }
    39% {
        opacity: 1;
        transform: translate(0px, -100px);
    }
    41%, 100% {
        opacity: 0;
    }
    97% {
        fill: #fff;
        opacity: 0;
    }
    100% {
        fill: #000;
        opacity: 1;
    }
}

#hl3 {
    animation: hl3 10s ease-in-out infinite;
}

@keyframes hl3 {
    0%, 33% {
        opacity: 0;
    }
    36% {
        opacity: 1;
        transform: translate(0px, 0px);
    }
    39%, 42% {
        transform: translate(0px, -100px);
    }
    45% {
        opacity: 1;
        transform: translate(0px, 0px);
    }
    48%, 100% {
        opacity: 0;
    }
}

#t3_2 {
    animation: text_after3 10s ease-in-out infinite;
}

@keyframes text_after3 {
    0%, 39% {
        opacity: 0;
        fill: #fff;
        transform: translate(0px, -100px);
    }
    42% {
        opacity: 1;
        transform: translate(0px, -100px);
    }
    45% {
        fill: #fff;
        transform: translate(0px, 0px);
    }
    48%, 100% {
        fill: #000;
        transform: translate(0px, 0px);
    }
    97% {
        opacity: 1;
    }
    100% {
        opacity: 0;
    }
}

#t4 {
    animation: text_before4 10s ease-in-out infinite;
}

@keyframes text_before4 {
    0%, 48% {
        fill: #000;
    }
    51% {
        fill: #fff;
        transform: translate(0px, 0px);
    }
    54% {
        opacity: 1;
        transform: translate(0px, -100px);
    }
    57%, 100% {
        opacity: 0;
    }
    97% {
        fill: #fff;
        opacity: 0;
    }
    100% {
        fill: #000;
        opacity: 1;
    }
}

#hl4 {
    animation: hl4 10s ease-in-out infinite;
}

@keyframes hl4 {
    0%, 48% {
        opacity: 0;
    }
    51% {
        opacity: 1;
        transform: translate(0px, 0px);
    }
    54%, 57% {
        transform: translate(0px, -100px);
    }
    60% {
        opacity: 1;
        transform: translate(0px, 0px);
    }
    63%, 100% {
        opacity: 0;
    }
}

#t4_2 {
    animation: text_after4 10s ease-in-out infinite;
}

@keyframes text_after4 {
    0%, 53% {
        opacity: 0;
        fill: #fff;
        transform: translate(0px, -100px);
    }
    57% {
        opacity: 1;
        transform: translate(0px, -100px);
    }
    60% {
        fill: #fff;
        transform: translate(0px, 0px);
    }
    63%, 100% {
        fill: #000;
        transform: translate(0px, 0px);
    }
    97% {
        opacity: 1;
    }
    100% {
        opacity: 0;
    }
}

#t5 {
    animation: text_before5 10s ease-in-out infinite;
}

@keyframes text_before5 {
    0%, 63% {
        fill: #000;
    }
    66% {
        fill: #fff;
        transform: translate(0px, 0px);
    }
    69% {
        opacity: 1;
        transform: translate(0px, -100px);
    }
    72%, 100% {
        opacity: 0;
    }
    97% {
        fill: #fff;
        opacity: 0;
    }
    100% {
        fill: #000;
        opacity: 1;
    }
}

#hl5 {
    animation: hl5 10s ease-in-out infinite;
}

@keyframes hl5 {
    0%, 63% {
        opacity: 0;
    }
    66% {
        opacity: 1;
        transform: translate(0px, 0px);
    }
    69%, 72% {
        transform: translate(0px, -100px);
    }
    75% {
        opacity: 1;
        transform: translate(0px, 0px);
    }
    78%, 100% {
        opacity: 0;
    }
}

#t5_2 {
    animation: text_after5 10s ease-in-out infinite;
}

@keyframes text_after5 {
    0%, 69% {
        opacity: 0;
        fill: #fff;
        transform: translate(0px, -100px);
    }
    72% {
        opacity: 1;
        transform: translate(0px, -100px);
    }
    75% {
        fill: #fff;
        transform: translate(0px, 0px);
    }
    78%, 100% {
        fill: #000;
        transform: translate(0px, 0px);
    }
    97% {
        opacity: 1;
    }
    100% {
        opacity: 0;
    }
}

/* ]]> */
</style>
  <g id="bg">
    <!-- <path fill="#E2E2E8" d="M1786.31 1589.47s193.33-510.57-69.23-877.87c-232.94-325.85-280.69-132.25-479.95 0-84.87 56.32-201.28 6.95-409.52-324.66C630.91 61.62 4.48 253.84 279.93 904.73c86.86 336.69-264.36 348.93-85.4 685.48l1591.78-.74z"/>
    <path fill="#2E3552" d="M1853.07 1589.47H144.52c-1.07 0-1.94 1.19-1.94 2.67v.91c0 1.48.87 2.67 1.94 2.67h1708.56c1.07 0 1.94-1.19 1.94-2.67v-.91c-.01-1.48-.87-2.67-1.95-2.67z"/> -->
    <path fill="#175CFF" d="M610.74 402.82L42.38 462.55c-8.12.85-11.88 6-8.38 11.45l197.62 307.45c3.5 5.45 13.01 9.22 21.12 8.37l568.36-59.74c8.12-.85 11.87-6.02 8.37-11.47L631.86 411.17c-3.51-5.45-13-9.21-21.12-8.35"/>
    <path fill="#175CFF" d="M1785.25 1139.94l-339.43 35.68c-5.41.57-7.92 4-5.58 7.63l146.54 227.98c2.34 3.63 8.65 6.13 14.06 5.57l339.43-35.68c5.39-.57 7.9-3.99 5.56-7.63l-146.54-227.98c-2.33-3.63-8.65-6.13-14.04-5.57"/>
    <path fill="#6BB7BF" d="M606.32 994.03l-112.39 11.81c-12.43 1.31-18.21 9.21-12.84 17.55l48.53 75.51c5.37 8.35 19.93 14.11 32.35 12.8l112.39-11.81c12.43-1.31 18.21-9.21 12.84-17.55l-48.53-75.51c-5.37-8.35-19.93-14.11-32.35-12.8"/>
    <path fill="#EE9849" d="M1481 593.72l-162.36 17.07c-12.43 1.31-18.21 9.21-12.84 17.55l48.53 75.49c5.37 8.35 19.93 14.11 32.35 12.8l162.36-17.07c12.43-1.31 18.21-9.21 12.84-17.55l-48.53-75.49c-5.36-8.34-19.92-14.1-32.35-12.8"/>
    <path fill="#FFF" d="M1241.86 422.27l-943.57 99.17c-14.31 1.5-20.92 10.53-14.74 20.15l531.56 826.96c6.17 9.6 22.82 16.2 37.14 14.7l943.57-99.17c14.31-1.5 20.91-10.55 14.74-20.15L1279 436.97c-6.18-9.61-22.83-16.2-37.14-14.7"/>
    <path fill="#D0D0D6" d="M852.24 1383.25c-14.31 1.5-30.97-5.1-37.14-14.7L283.55 541.6c-6.18-9.61.43-18.64 14.74-20.15l943.57-99.17c14.31-1.5 30.96 5.08 37.14 14.7l531.56 826.96c6.17 9.6-.43 18.64-14.74 20.15l-943.58 99.16m385.09-968.03L293.76 514.4c-20.09 2.11-29.38 14.81-20.7 28.3l531.56 826.96c8.67 13.49 32.06 22.74 52.15 20.63l943.57-99.17c20.09-2.11 29.39-14.79 20.71-28.28l-531.56-826.96c-8.67-13.51-32.07-22.77-52.16-20.66"/>
    <path fill="#57586E" d="M642.17 626.62l-199 23.98c-8.62 1.04-12.55 6.59-8.73 12.35l14.64 22.03c3.82 5.76 14.01 9.61 22.63 8.57l199-23.98c8.62-1.04 12.55-6.59 8.73-12.35l-14.64-22.03c-3.82-5.75-14.01-9.61-22.63-8.57"/>
    <path fill="#57586E" d="M1340.06 651.7l-256.53 30.91c-8.62 1.04-12.55 6.59-8.73 12.35l14.65 22.05c3.81 5.74 14 9.59 22.62 8.55l256.53-30.91c8.64-1.04 12.57-6.6 8.76-12.34l-14.65-22.05c-3.82-5.75-14.01-9.6-22.65-8.56"/>
    <path fill="#57586E" d="M1448.22 826.33l-33.1 3.99c-8.64 1.04-12.57 6.6-8.76 12.34l14.65 22.05c3.82 5.76 14.01 9.61 22.65 8.57l33.1-3.99c8.62-1.04 12.55-6.59 8.73-12.35l-14.65-22.05c-3.81-5.74-14-9.59-22.62-8.56"/>
    <path fill="#57586E" d="M679.42 918.98l-53.62 6.46c-8.62 1.04-12.55 6.59-8.74 12.33l14.65 22.05c3.82 5.76 14.01 9.61 22.63 8.57l53.62-6.46c8.62-1.04 12.55-6.59 8.73-12.35l-14.65-22.05c-3.81-5.73-14-9.59-22.62-8.55"/>
    <path fill="#57586E" d="M1394.88 737.22l-827.86 99.77c-8.62 1.04-12.55 6.59-8.73 12.35l14.65 22.05c3.81 5.74 14 9.59 22.62 8.55l827.86-99.77c8.64-1.04 12.57-6.6 8.76-12.34l-14.65-22.05c-3.82-5.75-14.01-9.6-22.65-8.56"/>
    <path fill="#57586E" d="M1512.43 914.12l-827.86 99.77c-8.62 1.04-12.55 6.59-8.73 12.35l14.65 22.05c3.81 5.74 14 9.59 22.62 8.55l827.86-99.77c8.64-1.04 12.57-6.6 8.76-12.34l-14.65-22.05c-3.82-5.74-14.01-9.6-22.65-8.56"/>
    <path fill="#57586E" d="M1358.98 1028.16l-615.63 74.19c-8.62 1.04-12.55 6.59-8.74 12.33l14.65 22.05c3.82 5.76 14.01 9.61 22.63 8.57l615.63-74.19c8.62-1.04 12.55-6.59 8.73-12.35l-14.65-22.05c-3.81-5.73-14-9.59-22.62-8.55"/>
    <path fill="#2B478B" d="M585.22 1246.94l-244.84 25.73c-18.74 1.97-27.45 13.88-19.36 26.47l73.17 113.84c8.09 12.59 30.05 21.28 48.79 19.31l244.84-25.73c18.74-1.97 27.45-13.88 19.36-26.47L634 1266.25c-8.09-12.59-30.05-21.28-48.78-19.31"/>
    <path fill="#86D1CD" d="M1740.82 235.08l-223.45 23.49c-17.1 1.8-25.06 12.67-17.67 24.16l66.78 103.9c7.38 11.49 27.42 19.42 44.53 17.62l223.45-23.49c17.1-1.8 25.06-12.67 17.67-24.16l-66.78-103.9c-7.39-11.49-27.43-19.42-44.53-17.62"/>
    <path fill="#6BB7BF" d="M1551.24 239.66l-144.58 15.2c-11.07 1.16-16.21 8.2-11.43 15.63l43.21 67.23c4.78 7.43 17.74 12.56 28.81 11.4l144.58-15.2c11.07-1.16 16.21-8.2 11.43-15.63l-43.21-67.23c-4.78-7.43-17.75-12.57-28.81-11.4"/>
  </g>
  <path id="hl1" fill="#C94C43" d="M1089.67 473.59L548.23 530.5c-9.2.97-13.45 6.81-9.49 12.97l26.45 41.15c3.96 6.16 14.71 10.43 23.9 9.46l541.44-56.91c9.2-.97 13.45-6.81 9.49-12.97l-26.45-41.15c-3.96-6.16-14.71-10.42-23.9-9.46"/>
  <g id="t1" fill="#000">
    <path d="M607.6 540.24c-3.28.34-5.93 1-7.97 1.97-2.05.96-3.32 2.16-3.86 3.58-.54 1.43-.27 2.99.84 4.71a11.89 11.89 0 004.9 4.29c2.08 1 4.24 1.67 6.5 2.04 2.25.37 5.05.69 8.4.96 2.47.2 4.41.4 5.9.6 1.47.22 2.8.55 3.97 1a5.3 5.3 0 012.57 1.96c.67 1.05.52 1.94-.44 2.68-.92.76-2.59 1.25-4.93 1.5a33.4 33.4 0 01-8.5-.38 49.65 49.65 0 01-9.59-2.46l-.42 5.18a54.35 54.35 0 0010.77 2.54c3.8.51 7.45.59 10.87.23 3.28-.34 5.95-1 8.05-1.96 2.06-.98 3.42-2.2 3.99-3.7.58-1.48.31-3.13-.85-4.93-1.21-1.88-2.85-3.34-4.94-4.35s-4.27-1.72-6.56-2.1c-2.3-.4-5.1-.73-8.47-1a84.2 84.2 0 01-5.8-.64c-1.47-.22-2.77-.55-3.95-1.02s-2.02-1.11-2.54-1.91c-.58-.9-.45-1.68.4-2.31.83-.63 2.27-1.05 4.27-1.26 1.82-.19 4.05-.16 6.76.1 2.68.26 5.46.74 8.32 1.43l.22-5.3a54.57 54.57 0 00-8.92-1.5 48.05 48.05 0 00-8.99.05"/>
    <path d="M659.3 562.62c-1.84.19-3.45.08-4.9-.38a5.46 5.46 0 01-3.07-2.11c-.63-.98-.57-1.75.16-2.3.76-.54 2.22-.93 4.39-1.16l8.49-.89 1.3 2.03c.49 1.12.17 2.15-1.05 3.07-1.2.92-2.97 1.49-5.32 1.74m-9.02-19.15c-2.88.3-5.28.79-7.15 1.44a30.14 30.14 0 00-5.84 2.9l5.41 3.49a18.42 18.42 0 018.64-3.16c2.48-.26 4.6-.09 6.36.5s3.06 1.55 3.92 2.89l.38.59-9.81 1.03c-4.04.46-6.78 1.39-8.25 2.83-1.44 1.44-1.49 3.2-.14 5.31a10.83 10.83 0 003.75 3.44c1.66.98 3.56 1.66 5.75 2.08 2.18.41 4.42.5 6.78.25 2.38-.25 4.34-.73 5.85-1.43a6.12 6.12 0 003.09-2.71l1.76 2.74 8.04-.85-9.55-14.77c-1.68-2.53-4.17-4.38-7.49-5.54-3.32-1.15-7.14-1.49-11.5-1.03"/>
    <path d="M692.98 538.98c-2.6.31-4.61.94-6.06 1.92a5.34 5.34 0 00-2.46 3.84l-2.8-4.36-8.16.86 14.53 22.6 8.16-.86-7-10.9c-1.34-2.09-1.37-3.85-.07-5.28 1.15-1.3 3.22-2.1 6.21-2.42.35-.04.71-.07 1.09-.09l-3.44-5.31"/>
    <path d="M720.56 556.18c-1.84.19-3.47.08-4.93-.38a5.46 5.46 0 01-3.07-2.11c-.63-.98-.57-1.75.18-2.3.74-.53 2.2-.92 4.39-1.15l8.49-.89 1.3 2.03c.49 1.12.15 2.15-1.05 3.07-1.19.91-2.98 1.49-5.31 1.73m-9.04-19.15c-2.88.3-5.26.79-7.15 1.44a30.5 30.5 0 00-5.82 2.89l5.39 3.49a18.4 18.4 0 018.64-3.16 15.1 15.1 0 016.36.5 7.16 7.16 0 013.94 2.88l.38.59-9.81 1.03c-4.06.46-6.81 1.39-8.25 2.83-1.44 1.44-1.52 3.2-.16 5.31a10.9 10.9 0 003.77 3.44c1.66.98 3.56 1.66 5.72 2.09 2.18.41 4.45.5 6.78.25 2.38-.25 4.34-.73 5.85-1.43 1.54-.7 2.57-1.61 3.09-2.71l1.76 2.74 8.06-.85-9.57-14.77c-1.68-2.53-4.17-4.38-7.49-5.54-3.29-1.14-7.13-1.48-11.49-1.02"/>
    <path d="M737.6 525.17l-8.18.86 20.15 31.34 8.18-.86-7.14-11.1c-1.21-1.88-1.41-3.52-.61-4.91.83-1.37 2.58-2.22 5.29-2.53 2.31-.24 4.42.03 6.36.8a9 9 0 014.41 3.53l8.03 12.5 8.25-.87-9.07-14.11a15.48 15.48 0 00-7.43-6 21.46 21.46 0 00-10.61-1.39c-5.76.67-8.83 2.6-9.24 5.79l-8.39-13.05"/>
    <path d="M812.52 545.54l-5.03-7.82 10.68-1.12.19-.02a18.3 18.3 0 016.75.36c1.96.54 3.32 1.41 4.1 2.61.81 1.27.69 2.33-.36 3.2-1.04.84-2.86 1.38-5.46 1.66l-.18.02-10.69 1.11m-8.1-12.59l-4.61-7.17 10.68-1.12.31-.03c2.04-.21 3.83-.08 5.4.38 1.62.49 2.8 1.3 3.52 2.42.74 1.16.71 2.12-.1 2.9-.83.78-2.33 1.28-4.52 1.51l-10.68 1.11m3.36-13.26l-19.55 2.05 19.01 29.57 20.11-2.11c5.02-.53 8.54-1.68 10.51-3.42 1.99-1.76 2.17-3.91.54-6.45a12.9 12.9 0 00-5.68-4.68 21.1 21.1 0 00-8.51-1.81c2.15-.65 3.51-1.62 4.13-2.94.62-1.3.4-2.78-.65-4.41-1.47-2.28-3.99-3.94-7.53-4.97-3.55-1.05-7.68-1.32-12.38-.83"/>
    <path d="M859.89 541.54c-1.84.19-3.47.08-4.9-.38a5.39 5.39 0 01-3.07-2.11c-.63-.98-.57-1.75.16-2.3.76-.54 2.22-.93 4.39-1.15l8.49-.89 1.3 2.03c.49 1.12.15 2.15-1.05 3.07-1.19.91-2.96 1.48-5.32 1.73m-9.02-19.16c-2.9.3-5.28.79-7.18 1.45a30.5 30.5 0 00-5.82 2.89l5.39 3.49a18.4 18.4 0 018.64-3.16 15.1 15.1 0 016.36.5 7.1 7.1 0 013.94 2.88l.38.59-9.81 1.03c-4.04.46-6.81 1.39-8.25 2.83-1.44 1.44-1.49 3.2-.14 5.31a10.83 10.83 0 003.75 3.44c1.66.98 3.56 1.66 5.75 2.08 2.16.42 4.42.5 6.76.25 2.41-.25 4.34-.73 5.88-1.43a6.12 6.12 0 003.09-2.71l1.76 2.74 8.04-.85-9.57-14.77c-1.65-2.53-4.15-4.38-7.49-5.54-3.29-1.13-7.11-1.48-11.48-1.02"/>
    <path d="M918.03 515.32c-6.16.72-9.18 2.94-9.05 6.72a17.64 17.64 0 00-6.74-3.55c-2.6-.72-5.36-.94-8.31-.63-5.62.66-8.62 2.53-8.99 5.63l-2.69-4.18-8.18.86 14.53 22.6 8.18-.86-7.17-11.15c-1.19-1.85-1.42-3.47-.68-4.85.76-1.36 2.45-2.22 5.05-2.56 2.26-.24 4.33.04 6.21.82a9.22 9.22 0 014.39 3.58l8.03 12.5 8.23-.86-7.17-11.15c-1.19-1.85-1.4-3.47-.65-4.85.76-1.36 2.4-2.21 4.96-2.55 2.26-.24 4.35.03 6.26.81a9.13 9.13 0 014.41 3.58l8.03 12.5 8.25-.87-9.07-14.11a15.6 15.6 0 00-7.36-6.01 20.66 20.66 0 00-10.47-1.42"/>
    <path d="M947.71 512.42l-8.18.86 14.53 22.6 8.18-.86-14.53-22.6m-10.39-9.27c-1.34.14-2.25.57-2.72 1.28-.5.71-.41 1.55.2 2.5.6.93 1.52 1.67 2.82 2.19 1.27.53 2.57.71 3.92.57s2.26-.56 2.73-1.27c.5-.71.42-1.53-.18-2.47a5.8 5.8 0 00-2.84-2.22 8.07 8.07 0 00-3.93-.58"/>
    <path d="M984.27 528.06a16 16 0 01-8.07-1.2 12.92 12.92 0 01-5.9-4.67c-1.26-2.03-1.43-3.79-.49-5.26.92-1.47 2.8-2.34 5.61-2.64 2.81-.29 5.52.1 8.12 1.19a12.37 12.37 0 015.88 4.69c1.3 2.03 1.47 3.77.5 5.24-.94 1.48-2.85 2.36-5.65 2.65m.38-28.85l-8.16.86 8.01 12.46a23.8 23.8 0 00-14.03-2.72c-3.11.33-5.57 1.09-7.35 2.31a6.3 6.3 0 00-3 4.61c-.2 1.88.41 3.93 1.87 6.2a19.76 19.76 0 005.89 5.84 25.47 25.47 0 008.27 3.51c3.03.71 6.15.91 9.33.57 2.5-.26 4.5-.83 5.98-1.69a5.71 5.71 0 002.84-3.38l2.33 3.63 8.16-.86-20.14-31.34"/>
    <path d="M1012.02 515.86c-.71-1.73-.58-3.17.41-4.3 1.01-1.14 2.69-1.84 5.08-2.09a15.3 15.3 0 017.1.83c2.2.83 3.87 2.06 5.01 3.72l-17.6 1.84m2.67-10.65c-3.3.35-5.94 1.13-7.93 2.39-1.97 1.24-3.13 2.81-3.44 4.71-.32 1.89.23 3.97 1.69 6.23a18.74 18.74 0 005.98 5.75 26.62 26.62 0 008.66 3.4c3.23.68 6.55.83 9.99.47 2.95-.31 5.4-.92 7.37-1.86a9.67 9.67 0 004.29-3.51l-6.37-2.63a7.02 7.02 0 01-2.92 2.32c-1.29.61-2.79.99-4.51 1.17-2.48.26-4.87.02-7.15-.7a14.46 14.46 0 01-5.78-3.43l24.83-2.61c-.19-.37-.52-.93-.99-1.65a21.64 21.64 0 00-9.62-8.24c-4.03-1.76-8.72-2.37-14.1-1.81"/>
    <polyline points="1040.86 493.3 1032.71 494.16 1052.85 525.5 1061.01 524.64 1040.86 493.3"/>
    <path d="M1068.23 509.95c-.71-1.73-.58-3.17.41-4.3 1.01-1.14 2.69-1.84 5.08-2.09a15.3 15.3 0 017.1.83c2.2.83 3.87 2.06 5.01 3.72l-17.6 1.84m2.68-10.64c-3.3.35-5.94 1.13-7.93 2.39-1.97 1.24-3.12 2.81-3.44 4.71-.32 1.89.23 3.97 1.69 6.23a18.74 18.74 0 005.98 5.75 26.62 26.62 0 008.66 3.4c3.23.68 6.58.83 9.99.47 2.95-.31 5.4-.92 7.37-1.86 2-.92 3.41-2.1 4.29-3.51l-6.37-2.63a7.02 7.02 0 01-2.92 2.32c-1.29.61-2.79.99-4.51 1.17-2.48.26-4.87.02-7.15-.7a14.46 14.46 0 01-5.78-3.43l24.83-2.61c-.19-.37-.52-.93-.99-1.65a21.64 21.64 0 00-9.62-8.24c-4.03-1.77-8.73-2.38-14.1-1.81"/>
  </g>
  <g id="t1_2" fill="#FFF">
    <path d="M670.91 533.99c-4.32.45-7.83 1.53-10.51 3.23-2.69 1.69-4.33 3.8-4.89 6.33-.58 2.51.04 5.19 1.85 8.01s4.48 5.28 7.98 7.4a40.03 40.03 0 0011.84 4.64c4.4.97 8.71 1.25 12.95.8a24.26 24.26 0 008.4-2.35 14.91 14.91 0 005.66-4.59l-7.37-3.2a10.22 10.22 0 01-3.98 3.17 16.8 16.8 0 01-5.72 1.6c-2.71.28-5.5.1-8.33-.54-2.83-.65-5.41-1.68-7.69-3.08s-4-3.01-5.17-4.83c-1.18-1.84-1.62-3.58-1.31-5.26.31-1.67 1.33-3.06 3.03-4.17a14.83 14.83 0 016.63-2.1c2.19-.23 4.56-.11 7.11.33 2.54.46 4.99 1.22 7.32 2.26l2.25-4.65a42.57 42.57 0 00-9.99-2.7 40.46 40.46 0 00-10.06-.3"/>
    <path d="M722.12 556.34c-1.84.19-3.47.08-4.9-.38a5.39 5.39 0 01-3.07-2.11c-.63-.98-.59-1.75.16-2.3.76-.54 2.22-.93 4.39-1.16l8.49-.89 1.3 2.03c.49 1.12.15 2.15-1.05 3.07-1.19.92-2.96 1.49-5.32 1.74m-9.01-19.16c-2.9.3-5.28.79-7.18 1.45a30.5 30.5 0 00-5.82 2.89l5.39 3.49a18.4 18.4 0 018.64-3.16 15.1 15.1 0 016.36.5 7.16 7.16 0 013.94 2.88l.38.59-9.81 1.03c-4.04.46-6.81 1.39-8.25 2.83-1.44 1.44-1.49 3.2-.14 5.31a10.83 10.83 0 003.75 3.44c1.66.98 3.56 1.66 5.75 2.08 2.16.42 4.42.5 6.76.25 2.41-.25 4.34-.73 5.88-1.43a6.12 6.12 0 003.09-2.71l1.76 2.74 8.04-.85-9.57-14.77c-1.65-2.53-4.15-4.38-7.49-5.54-3.3-1.13-7.12-1.47-11.48-1.02"/>
    <path d="M756.42 532.63c-5.71.67-8.77 2.56-9.22 5.7l-2.72-4.23-8.18.86 14.53 22.6 8.18-.86-7.14-11.1c-1.21-1.88-1.43-3.52-.64-4.9.81-1.37 2.55-2.21 5.25-2.53 2.31-.24 4.42.03 6.36.8a9.1 9.1 0 014.43 3.52l8.03 12.5 8.23-.86-9.07-14.11a15.52 15.52 0 00-7.41-6 21.41 21.41 0 00-10.63-1.39"/>
    <path d="M804.62 547.26a16 16 0 01-8.07-1.2 12.92 12.92 0 01-5.9-4.67c-1.26-2.03-1.43-3.79-.49-5.26.92-1.47 2.8-2.34 5.61-2.64 2.81-.29 5.52.1 8.12 1.19a12.37 12.37 0 015.88 4.69c1.3 2.03 1.47 3.77.5 5.24-.94 1.48-2.84 2.36-5.65 2.65m.39-28.85l-8.16.86 8.01 12.46a23.8 23.8 0 00-14.03-2.72c-3.11.33-5.57 1.09-7.35 2.31a6.3 6.3 0 00-3 4.61c-.2 1.88.41 3.93 1.87 6.2a19.76 19.76 0 005.89 5.84 25.47 25.47 0 008.27 3.51c3.03.71 6.15.91 9.33.57 2.5-.26 4.5-.83 5.98-1.69a5.71 5.71 0 002.84-3.38l2.33 3.63 8.16-.86-20.14-31.34"/>
    <path d="M829.3 525.19l-8.16.86 14.53 22.6 8.16-.86-14.53-22.6m-10.39-9.27c-1.34.14-2.25.57-2.72 1.28-.48.71-.41 1.55.2 2.5.6.93 1.55 1.66 2.82 2.19 1.27.53 2.57.71 3.92.57 1.34-.14 2.26-.56 2.76-1.27.48-.71.42-1.53-.18-2.47a5.94 5.94 0 00-2.84-2.22 8.23 8.23 0 00-3.96-.58"/>
    <path d="M865.88 540.82c-2.81.29-5.5-.1-8.09-1.2a12.92 12.92 0 01-5.9-4.67c-1.26-2.03-1.43-3.79-.49-5.26.94-1.47 2.82-2.34 5.63-2.64 2.81-.29 5.5.1 8.12 1.19a12.58 12.58 0 015.86 4.69c1.3 2.03 1.47 3.77.52 5.24-.96 1.49-2.84 2.36-5.65 2.65m.39-28.85l-8.18.86 8.01 12.46a23.16 23.16 0 00-6.66-2.41 24.43 24.43 0 00-7.37-.31c-3.11.33-5.54 1.09-7.35 2.31a6.3 6.3 0 00-3 4.61c-.2 1.88.41 3.93 1.87 6.2a19.76 19.76 0 005.89 5.84 25.75 25.75 0 008.27 3.51c3.03.71 6.15.91 9.33.57 2.52-.27 4.5-.83 5.98-1.69a5.71 5.71 0 002.84-3.38l2.33 3.63 8.18-.86-20.14-31.34"/>
    <path d="M905.29 537.09c-1.84.19-3.47.08-4.9-.38a5.39 5.39 0 01-3.07-2.11c-.63-.98-.57-1.75.16-2.3.76-.54 2.22-.93 4.39-1.16l8.49-.89 1.3 2.03c.49 1.12.15 2.15-1.05 3.07-1.19.92-2.96 1.49-5.32 1.74m-9.01-19.16c-2.9.3-5.28.79-7.18 1.45a30.5 30.5 0 00-5.82 2.89l5.39 3.49a18.4 18.4 0 018.64-3.16 15.1 15.1 0 016.36.5 7.16 7.16 0 013.94 2.88l.38.59-9.81 1.03c-4.04.46-6.81 1.39-8.25 2.83-1.44 1.44-1.49 3.2-.14 5.31.86 1.33 2.09 2.47 3.75 3.44s3.56 1.66 5.75 2.08c2.16.42 4.42.5 6.76.25 2.41-.25 4.34-.73 5.88-1.43a6.12 6.12 0 003.09-2.71l1.76 2.74 8.04-.85-9.57-14.77c-1.65-2.53-4.15-4.38-7.49-5.54-3.3-1.13-7.12-1.48-11.48-1.02"/>
    <path d="M925.58 509.44l-8.11.85 3.99 6.21-4.79.5 2.65 4 4.72-.5 7.17 11.15a11.72 11.72 0 006.01 4.76c2.57.95 5.32 1.27 8.22.96a15.68 15.68 0 007.36-2.53l-4.54-3.94a11.52 11.52 0 01-4.2 1.42 6.06 6.06 0 01-3.06-.37 5.31 5.31 0 01-2.3-2.13l-6.55-10.18 9.62-1.01-2.58-4.01-9.62 1.01-3.99-6.19"/>
    <path d="M956.5 522.02c-.71-1.73-.58-3.17.41-4.3 1.01-1.14 2.69-1.84 5.08-2.09 2.57-.27 4.94.01 7.1.83 2.2.83 3.87 2.06 5.01 3.72l-17.6 1.84m2.67-10.65c-3.3.35-5.94 1.13-7.93 2.39-1.97 1.24-3.13 2.81-3.44 4.71-.32 1.89.23 3.97 1.69 6.23a18.74 18.74 0 005.98 5.75 26.62 26.62 0 008.66 3.4c3.23.68 6.58.83 9.99.47 2.95-.31 5.4-.92 7.37-1.86 2-.92 3.41-2.1 4.29-3.51l-6.37-2.63a7.02 7.02 0 01-2.92 2.32c-1.29.61-2.79.99-4.51 1.17-2.48.26-4.87.02-7.15-.7a14.46 14.46 0 01-5.78-3.43l24.83-2.61c-.19-.37-.52-.93-.99-1.65a21.64 21.64 0 00-9.62-8.24c-4.03-1.77-8.72-2.37-14.1-1.81"/>
    <polyline points="1006.06 499.17 988.37 501.03 991.58 506.02 1000.82 505.05 1016.62 529.63 1025.06 528.74 1006.06 499.17"/>
  </g>
  <path id="hl2" fill="#C94C43" d="M1281.58 550.85l-600.63 63.13c-8.65.91-12.67 6.4-8.94 12.22l19.37 30.14c3.73 5.8 13.85 9.8 22.51 8.9l600.63-63.13c8.65-.91 12.67-6.4 8.95-12.2l-19.37-30.14c-3.74-5.82-13.87-9.83-22.52-8.92"/>
  <g id="t2" fill="#000">
    <path d="M713.5 630.08c-2.26.24-3.94.77-5 1.62-1.06.86-1.14 1.98-.25 3.37.58.9 1.38 1.6 2.4 2.08 1.03.5 2.1.84 3.23 1.03 1.11.2 2.5.36 4.16.48 1.92.17 3.36.37 4.42.62 1.03.26 1.78.73 2.2 1.39s.34 1.2-.23 1.6a6.1 6.1 0 01-2.78.8c-1.3.14-2.73.1-4.29-.09a19.35 19.35 0 01-4.28-.99l-.25 2.07c1.5.54 3.12.91 4.92 1.11 1.76.19 3.47.19 5.12.02 2.36-.25 4.08-.82 5.19-1.71 1.11-.89 1.2-2.05.29-3.46a5.95 5.95 0 00-2.49-2.19 12.49 12.49 0 00-3.35-1.07 50.8 50.8 0 00-4.35-.51 35.42 35.42 0 01-4.23-.55c-.98-.23-1.68-.65-2.06-1.25-.39-.6-.32-1.08.21-1.44a5.6 5.6 0 012.54-.74c1.01-.11 2.13-.09 3.38.02s2.46.3 3.62.58l.15-2.16a22.7 22.7 0 00-4.05-.66 22.8 22.8 0 00-4.22.03"/>
    <path d="M741.49 640.95a9.79 9.79 0 01-3.89-.3c-1.17-.37-2-.92-2.5-1.7-.5-.78-.41-1.38.21-1.83.62-.44 1.81-.75 3.58-.93l6.51-.68.96 1.49c.37 1.01.12 1.86-.78 2.58-.9.74-2.28 1.18-4.09 1.37m-6.26-13.13c-1.86.2-3.39.53-4.53.98a14.39 14.39 0 00-3.47 1.97l2.81 1.63a10.71 10.71 0 015.8-2.33c1.84-.19 3.41-.05 4.75.41a5.75 5.75 0 013.03 2.29l.46.71-7.05.74c-2.63.29-4.4.9-5.39 1.83-.96.93-1.01 2.07-.16 3.4a6.95 6.95 0 002.45 2.24c1.08.63 2.33 1.07 3.74 1.35 1.41.27 2.88.32 4.41.16 3.54-.37 5.64-1.37 6.35-3l1.33 2.07 3.87-.41-6.35-9.8a9.16 9.16 0 00-4.75-3.56c-2.1-.74-4.52-.98-7.3-.68"/>
    <path d="M762.75 624.92a9.15 9.15 0 00-4.23 1.37 3.33 3.33 0 00-1.55 2.75l-2.06-3.2-3.89.41 9.57 14.89 3.89-.41-5.05-7.86c-.7-1.45-.66-2.67.22-3.66.81-.93 2.27-1.51 4.37-1.73l.36-.03-1.63-2.53"/>
    <path d="M780.89 636.81a9.79 9.79 0 01-3.89-.3c-1.17-.37-1.98-.92-2.48-1.7s-.43-1.38.18-1.83c.62-.44 1.81-.75 3.58-.93l6.51-.68.96 1.49c.37 1.01.12 1.86-.78 2.58-.89.73-2.27 1.18-4.08 1.37m-6.26-13.14c-1.86.2-3.36.52-4.53.98a14.77 14.77 0 00-3.47 1.97l2.81 1.63a10.71 10.71 0 015.8-2.33c1.84-.19 3.41-.05 4.75.41a5.75 5.75 0 013.03 2.29l.46.71-7.05.74c-2.61.29-4.4.9-5.37 1.83-.99.93-1.04 2.07-.18 3.4a7.35 7.35 0 002.45 2.25c1.08.63 2.33 1.07 3.74 1.35 1.41.27 2.88.32 4.43.16 3.51-.37 5.62-1.37 6.33-3l1.33 2.07 3.87-.41-6.35-9.8a9.16 9.16 0 00-4.75-3.56 16.6 16.6 0 00-7.3-.69"/>
    <path d="M790.67 615.68l-3.89.41 13.43 20.89 3.89-.41-4.7-7.32c-.98-1.52-1.13-2.82-.51-3.92.66-1.08 2.04-1.75 4.18-1.99 1.84-.19 3.53 0 5.01.59a7.06 7.06 0 013.47 2.78l5.47 8.51 3.89-.41-5.91-9.2a10.24 10.24 0 00-4.95-4.01 14.62 14.62 0 00-7.12-.89c-4.12.48-6.25 1.87-6.35 4.18l-5.91-9.21"/>
    <path d="M826.49 631.04c-.64.07-1.09.27-1.34.61-.25.35-.22.75.08 1.23.31.48.76.83 1.41 1.1.64.25 1.29.36 1.92.29.66-.07 1.08-.28 1.33-.63.22-.36.21-.77-.09-1.24a3 3 0 00-1.4-1.09 3.94 3.94 0 00-1.91-.27"/>
    <path d="M846.7 629.74a13.1 13.1 0 01-8.14-1.85 8.72 8.72 0 01-2.71-2.66c-.64-1-.9-1.92-.79-2.79a3.2 3.2 0 011.44-2.18c.85-.56 2-.92 3.42-1.07a12.63 12.63 0 018.11 1.88 8.61 8.61 0 012.7 2.59c.65 1.01.91 1.97.82 2.84a3.08 3.08 0 01-1.43 2.16c-.85.58-2 .94-3.42 1.08m-19.46-17.9l-3.91.41 13.43 20.89 3.91-.41-1.9-2.96c1.43.9 3.02 1.53 4.8 1.91 1.75.37 3.56.45 5.45.26 2.05-.22 3.7-.71 4.89-1.51a4.22 4.22 0 002.03-3.04c.16-1.23-.25-2.58-1.18-4.04a12.65 12.65 0 00-3.86-3.81 18.26 18.26 0 00-11.65-2.66c-1.84.19-3.29.63-4.37 1.3a3.77 3.77 0 00-1.88 2.6l-5.76-8.94"/>
    <path d="M870.23 627.42a9.95 9.95 0 01-3.92-.3 4.31 4.31 0 01-2.48-1.7c-.5-.78-.43-1.38.18-1.83.62-.44 1.83-.75 3.58-.93l6.51-.68.96 1.49c.37 1.01.12 1.86-.78 2.58-.88.74-2.23 1.18-4.05 1.37m-6.25-13.14c-1.89.2-3.39.53-4.53.98a14.39 14.39 0 00-3.47 1.97l2.79 1.63a10.77 10.77 0 015.8-2.33c1.84-.19 3.44-.06 4.77.41a5.74 5.74 0 013.01 2.29l.46.71-7.05.74c-2.61.29-4.4.9-5.37 1.83-.96.93-1.01 2.07-.16 3.4a6.95 6.95 0 002.45 2.24c1.06.63 2.3 1.08 3.71 1.35 1.43.27 2.9.32 4.43.16 3.51-.37 5.64-1.37 6.35-3l1.33 2.07 3.84-.4-6.33-9.8a9.28 9.28 0 00-4.75-3.56 16.5 16.5 0 00-7.28-.69"/>
    <path d="M908.33 609.62c-4.36.51-6.45 2.06-6.24 4.66a11.13 11.13 0 00-4.51-2.47c-1.8-.52-3.71-.68-5.73-.46-4.03.47-6.1 1.82-6.19 4.08l-2.01-3.12-3.91.41 9.57 14.89 3.91-.41-4.72-7.35c-.97-1.5-1.14-2.79-.56-3.88.62-1.08 1.94-1.76 4.02-2.01a9.76 9.76 0 014.91.63 7.18 7.18 0 013.4 2.79l5.47 8.51 3.94-.41-4.72-7.35c-.97-1.5-1.14-2.79-.56-3.88.59-1.08 1.92-1.76 3.99-2.01a9.68 9.68 0 014.89.64c1.5.6 2.62 1.53 3.43 2.78l5.47 8.51 3.94-.41-5.91-9.2a10.43 10.43 0 00-4.89-4 14.13 14.13 0 00-6.99-.94"/>
    <path d="M927.42 607.72l-3.91.41 9.57 14.89 3.91-.41-9.57-14.89m-5.8-5.73c-.68.07-1.17.29-1.44.66-.24.36-.23.78.09 1.28.32.49.82.88 1.47 1.15a4.3 4.3 0 002.05.29c.71-.07 1.17-.29 1.44-.66.27-.37.22-.8-.1-1.29a2.95 2.95 0 00-1.46-1.13 4.02 4.02 0 00-2.05-.3"/>
    <path d="M952.47 618.73c-1.44.15-2.88.07-4.3-.27a12.14 12.14 0 01-3.88-1.6 8.76 8.76 0 01-2.72-2.62 4.22 4.22 0 01-.79-2.84c.12-.87.61-1.6 1.44-2.18a7.35 7.35 0 013.43-1.09 13.06 13.06 0 018.2 1.86 8.79 8.79 0 012.75 2.67c.65 1.01.9 1.95.78 2.83a3.1 3.1 0 01-1.45 2.16c-.84.57-2 .93-3.46 1.08m-.66-19.99l-3.89.41 5.75 8.95a15.3 15.3 0 00-4.84-1.93 17.48 17.48 0 00-5.47-.25c-2.08.22-3.71.73-4.91 1.53a4.27 4.27 0 00-2.04 3.05c-.16 1.23.22 2.58 1.16 4.04a12.79 12.79 0 003.89 3.82 18.35 18.35 0 0011.68 2.69c1.86-.2 3.34-.64 4.41-1.33a3.96 3.96 0 001.9-2.65l1.9 2.96 3.89-.41-13.43-20.88"/>
    <path d="M969.36 610.19c-.6-1.36-.5-2.5.29-3.43.79-.93 2.16-1.5 4.12-1.7 2-.21 3.89.01 5.61.66a8.7 8.7 0 014.08 2.99l-14.1 1.48m2.97-7.29c-2.15.23-3.84.76-5.1 1.58-1.26.83-2.01 1.85-2.19 3.09-.22 1.22.14 2.57 1.09 4.05a12.24 12.24 0 003.93 3.76 17.5 17.5 0 005.65 2.25c2.08.46 4.21.56 6.4.32 1.86-.2 3.45-.58 4.71-1.17a6.54 6.54 0 002.76-2.25l-3.1-1.26a5.14 5.14 0 01-2.08 1.66c-.93.44-2.05.72-3.37.86-1.98.21-3.91-.01-5.75-.65a10.63 10.63 0 01-4.55-2.92l17.52-1.84a14.11 14.11 0 00-6.79-6.25 17.42 17.42 0 00-9.13-1.23"/>
    <polyline points="988.41 594.9 984.52 595.31 997.94 616.2 1001.84 615.79 988.41 594.9"/>
    <path d="M1005.96 606.34c-.6-1.36-.5-2.5.29-3.43.79-.93 2.16-1.5 4.12-1.7 2-.21 3.89.01 5.61.66a8.7 8.7 0 014.08 2.99l-14.1 1.48m2.96-7.29c-2.15.23-3.84.76-5.1 1.58a4.61 4.61 0 00-2.22 3.09c-.2 1.22.17 2.57 1.11 4.04a12.5 12.5 0 003.91 3.77 17.75 17.75 0 005.67 2.24c2.08.46 4.21.56 6.4.32 1.86-.2 3.43-.58 4.71-1.17a6.54 6.54 0 002.76-2.25l-3.1-1.26a5.14 5.14 0 01-2.08 1.66c-.93.44-2.05.72-3.37.86-1.98.21-3.91-.01-5.75-.65a10.63 10.63 0 01-4.55-2.92l17.52-1.84a14.11 14.11 0 00-6.79-6.25 17.64 17.64 0 00-9.12-1.22"/>
    <path d="M1048.27 607.48c-1.2.13-2.41.05-3.63-.24a10.26 10.26 0 01-3.28-1.38 7.27 7.27 0 01-2.26-2.18c-.51-.79-.72-1.55-.59-2.25.09-.72.52-1.31 1.18-1.8.7-.48 1.64-.78 2.84-.91 1.27-.13 2.5-.06 3.74.22 1.22.29 2.3.72 3.25 1.33.96.59 1.7 1.31 2.22 2.12.81 1.27.91 2.39.29 3.35-.63.97-1.89 1.54-3.76 1.74m-9.72-16.74c-3.58.38-6.49 1.26-8.72 2.64-2.21 1.38-3.56 3.11-4.05 5.18-.49 2.06.03 4.24 1.52 6.55a18.6 18.6 0 006.36 5.86c2.77 1.65 5.93 2.84 9.42 3.58s7.01.92 10.55.55c1.53-.16 3.07-.51 4.6-1.02a11.68 11.68 0 003.6-1.8l-2.58-1.62a9.47 9.47 0 01-3.07 1.57 19.4 19.4 0 01-3.86.85c-2.95.31-5.89.16-8.82-.44a25.84 25.84 0 01-7.92-2.96 15.3 15.3 0 01-5.32-4.87c-1.23-1.92-1.65-3.75-1.26-5.48.41-1.75 1.56-3.21 3.45-4.39 1.9-1.2 4.34-1.94 7.33-2.26 3.11-.33 6.17-.16 9.15.49 2.96.65 5.6 1.69 7.92 3.12a16.77 16.77 0 015.35 5.12 7.95 7.95 0 011.22 2.83c.14.85.02 1.52-.34 2.05-.35.51-.94.81-1.72.89a3.75 3.75 0 01-1.85-.26 3.14 3.14 0 01-1.44-1.22l-6.59-10.25-3.68.39 1.47 2.28a8.65 8.65 0 00-2.13-.96c-.96-.32-2.04-.55-3.24-.73a15.3 15.3 0 00-3.58-.05 9.2 9.2 0 00-4.37 1.42c-1.09.74-1.66 1.68-1.79 2.81s.2 2.31 1.02 3.58c.83 1.3 2.03 2.41 3.58 3.34a16.9 16.9 0 005.16 2.03c1.88.41 3.7.54 5.46.36 1.65-.17 3-.59 4.03-1.22a3.87 3.87 0 001.93-2.49l.58.78a5.73 5.73 0 002.66 1.67c1.09.33 2.29.44 3.54.3a5.98 5.98 0 003.44-1.31 3.35 3.35 0 001.07-2.8c-.03-1.15-.53-2.43-1.45-3.86a19.28 19.28 0 00-6.47-6.03 31.07 31.07 0 00-9.54-3.68 34.83 34.83 0 00-10.62-.54"/>
    <path d="M1082.29 604.36c-2.1.22-4.1-.08-6.02-.87a9.27 9.27 0 01-4.32-3.38 3.98 3.98 0 01-.76-2.71c.12-.82.6-1.5 1.37-2.05a7.25 7.25 0 013.26-1.04 12 12 0 017.7 1.8c1.1.7 1.97 1.53 2.6 2.52.61.95.85 1.84.73 2.66-.1.82-.54 1.51-1.35 2.05-.78.53-1.84.87-3.21 1.02m-8.59-12.12c-1.98.21-3.56.7-4.68 1.46a4.07 4.07 0 00-1.95 2.88 5.94 5.94 0 001.12 3.82 12.27 12.27 0 003.66 3.62c1.54.99 3.27 1.72 5.2 2.18 1.9.44 3.86.56 5.84.35a9.43 9.43 0 004.12-1.23 3.77 3.77 0 001.86-2.43l1.33 2.07c.94 1.46 1 2.69.15 3.69-.81 1.01-2.35 1.63-4.66 1.88-1.39.15-2.76.14-4.13-.04a22.07 22.07 0 01-4.25-.97l-.49 2.1a27.12 27.12 0 0010.48 1.11 14.1 14.1 0 005.39-1.48c1.33-.75 2.12-1.71 2.38-2.87.25-1.18-.08-2.48-1-3.9l-8.59-13.37-3.94.41 1.75 2.72a15.79 15.79 0 00-9.59-2"/>
    <path d="M1121.19 587.25c-4.36.51-6.43 2.06-6.22 4.66a11.08 11.08 0 00-4.53-2.47 14.62 14.62 0 00-5.73-.46c-4 .47-6.08 1.82-6.19 4.08l-2.01-3.12-3.89.41 9.57 14.89 3.89-.41-4.72-7.35c-.97-1.5-1.14-2.79-.56-3.88.62-1.08 1.94-1.76 4.02-2.01a9.93 9.93 0 014.94.63 7.28 7.28 0 013.4 2.79l5.47 8.51 3.94-.41-4.72-7.35c-.97-1.5-1.16-2.79-.58-3.88.59-1.08 1.92-1.76 3.99-2.01a9.87 9.87 0 014.91.63 7.29 7.29 0 013.43 2.78l5.47 8.51 3.94-.41-5.91-9.2a10.39 10.39 0 00-4.91-4 14 14 0 00-7-.93"/>
    <path d="M1151.21 597.89a9.95 9.95 0 01-3.92-.3 4.41 4.41 0 01-2.48-1.7c-.5-.78-.43-1.38.21-1.83.62-.44 1.81-.75 3.58-.93l6.48-.68.96 1.49c.4 1.01.12 1.86-.78 2.58-.86.73-2.23 1.18-4.05 1.37m-6.25-13.14c-1.86.2-3.39.53-4.53.98a14.39 14.39 0 00-3.47 1.97l2.81 1.63a10.7 10.7 0 015.78-2.33 10.8 10.8 0 014.77.41 5.74 5.74 0 013.01 2.29l.46.71-7.03.74c-2.63.29-4.43.9-5.39 1.83s-1.01 2.07-.16 3.4a6.95 6.95 0 002.45 2.24c1.08.63 2.33 1.07 3.74 1.35 1.41.27 2.88.32 4.41.16 3.54-.37 5.64-1.37 6.35-3l1.33 2.07 3.87-.41-6.35-9.8a9.16 9.16 0 00-4.75-3.56 16.8 16.8 0 00-7.3-.68"/>
    <path d="M1164.64 582.78l-3.89.41 9.57 14.89 3.89-.41-9.57-14.89m-5.8-5.73c-.68.07-1.17.29-1.42.66-.27.37-.25.79.07 1.28s.82.88 1.49 1.15c.65.27 1.34.37 2.03.29.71-.07 1.2-.29 1.44-.66.27-.37.24-.8-.08-1.29s-.81-.86-1.48-1.13a4.23 4.23 0 00-2.05-.3"/>
    <polyline points="1172.47 575.55 1168.58 575.96 1182.01 596.85 1185.9 596.44 1172.47 575.55"/>
    <path d="M1192.38 592.58c-.66.07-1.11.27-1.37.62-.25.35-.22.75.08 1.23.31.48.76.83 1.41 1.1.64.25 1.29.36 1.95.29.64-.07 1.08-.28 1.31-.63.22-.36.21-.77-.09-1.24a3 3 0 00-1.4-1.09 3.87 3.87 0 00-1.89-.28"/>
    <path d="M1201.67 578.79c-2.15.23-3.85.74-5.11 1.57-1.27.81-2.02 1.84-2.19 3.09-.21 1.24.15 2.59 1.1 4.06a12.18 12.18 0 003.92 3.75 17.62 17.62 0 005.62 2.25c2.08.46 4.19.57 6.34.35 1.96-.21 3.58-.61 4.83-1.22a5.42 5.42 0 002.59-2.35l-3.19-1.29a4.08 4.08 0 01-1.97 1.68c-.95.44-2.12.73-3.56.88a12.37 12.37 0 01-8-1.83 8.9 8.9 0 01-2.69-2.63 4.15 4.15 0 01-.79-2.84 3.1 3.1 0 011.49-2.1c.86-.55 2.01-.9 3.45-1.06 2.48-.26 4.94.09 7.44 1.04l1-2.02a17.88 17.88 0 00-4.83-1.28 23.05 23.05 0 00-5.45-.05"/>
    <path d="M1232.87 589.22c-1.46.15-2.9.07-4.32-.26a11.8 11.8 0 01-3.84-1.59 9.06 9.06 0 01-2.71-2.66 4.36 4.36 0 01-.81-2.82c.13-.86.59-1.58 1.44-2.15a7.63 7.63 0 013.45-1.09 13.06 13.06 0 018.1 1.87 8.57 8.57 0 012.69 2.63c.66 1.03.95 1.98.83 2.85-.09.87-.59 1.58-1.44 2.15-.85.57-1.98.93-3.39 1.07m-8.26-12.84c-2.24.24-4.02.76-5.32 1.59-1.31.81-2.09 1.84-2.3 3.08-.24 1.23.11 2.59 1.04 4.05a12.07 12.07 0 003.99 3.77 17.75 17.75 0 005.72 2.24c2.13.45 4.31.56 6.55.33a12.4 12.4 0 005.26-1.57c1.31-.81 2.08-1.86 2.31-3.1s-.14-2.61-1.08-4.06a12.04 12.04 0 00-3.94-3.75 18.29 18.29 0 00-5.74-2.24c-2.11-.46-4.3-.57-6.49-.34"/>
    <path d="M1270.05 571.6c-4.36.51-6.43 2.06-6.22 4.66a11.14 11.14 0 00-4.53-2.47 14.62 14.62 0 00-5.73-.46c-4.03.47-6.1 1.82-6.19 4.08l-2.01-3.12-3.89.41 9.57 14.89 3.89-.41-4.72-7.35c-.97-1.5-1.14-2.79-.56-3.88.62-1.08 1.94-1.76 4.02-2.01a9.93 9.93 0 014.94.63 7.27 7.27 0 013.38 2.79l5.47 8.51 3.96-.42-4.72-7.35c-.97-1.5-1.16-2.79-.58-3.88.59-1.08 1.92-1.76 3.99-2.01a9.65 9.65 0 014.89.64c1.5.6 2.62 1.53 3.43 2.78l5.47 8.51 3.94-.41-5.92-9.2a10.23 10.23 0 00-4.89-4 14.21 14.21 0 00-6.99-.93"/>
  </g>
  <g id="t2_2" fill="#FFF">
    <polyline points="725.9 624.21 705.55 626.52 718.38 646.12 739.26 643.74 737.66 641.3 720.81 643.22 716.73 636.98 731.33 635.32 729.73 632.87 715.13 634.54 711.16 628.49 727.49 626.63 725.9 624.21"/>
    <path d="M764.19 624.89c-4.35.55-6.41 2.12-6.18 4.71a10.96 10.96 0 00-4.53-2.43c-1.8-.51-3.71-.64-5.74-.41-4.02.51-6.09 1.88-6.15 4.14l-2.03-3.1-3.91.45 9.7 14.8 3.91-.45-4.79-7.31c-.98-1.5-1.19-2.78-.59-3.88.58-1.08 1.92-1.78 4-2.05a9.75 9.75 0 014.92.59 7.13 7.13 0 013.43 2.76l5.54 8.46 3.93-.45-4.79-7.31c-.98-1.5-1.16-2.78-.59-3.88.58-1.08 1.9-1.77 3.95-2.04a9.9 9.9 0 014.92.59 7.18 7.18 0 013.45 2.75l5.54 8.46 3.93-.45-6-9.15a10.42 10.42 0 00-4.92-3.96c-2.11-.84-4.45-1.13-7-.84"/>
    <path d="M794.31 635.27a9.9 9.9 0 01-3.9-.27 4.32 4.32 0 01-2.49-1.68c-.51-.77-.44-1.37.17-1.83.62-.44 1.83-.77 3.57-.97l6.5-.74.97 1.48c.38 1.01.13 1.86-.76 2.59-.88.75-2.25 1.21-4.06 1.42m-6.35-13.09a17 17 0 00-4.54 1.03 13.9 13.9 0 00-3.42 2l2.8 1.61a10.74 10.74 0 015.78-2.38c1.84-.21 3.44-.09 4.75.37a5.76 5.76 0 013.05 2.26l.46.71-7.04.8c-2.6.31-4.4.94-5.35 1.88-.98.94-1.02 2.08-.15 3.4.57.87 1.4 1.6 2.47 2.22 1.09.62 2.34 1.05 3.75 1.32 1.41.26 2.88.3 4.43.12 3.51-.4 5.63-1.42 6.33-3.06l1.35 2.06 3.84-.44-6.43-9.74a9.15 9.15 0 00-4.76-3.52 16.35 16.35 0 00-7.32-.64"/>
    <path d="M807.6 620.04l-3.89.44 9.7 14.8 3.89-.44-9.7-14.8m-5.82-5.68c-.71.08-1.17.3-1.43.67-.26.37-.22.79.1 1.27s.8.87 1.48 1.13 1.35.35 2.05.27c.68-.08 1.17-.3 1.43-.67.24-.37.21-.8-.11-1.29s-.81-.86-1.47-1.12a4.4 4.4 0 00-2.05-.26"/>
    <polyline points="815.4 612.74 811.49 613.18 825.1 633.96 829.01 633.51 815.4 612.74"/>
    <path d="M853.04 628.57a9.8 9.8 0 01-3.92-.26 4.32 4.32 0 01-2.49-1.68c-.51-.77-.44-1.37.17-1.83.62-.44 1.83-.77 3.57-.97l6.5-.74.97 1.48c.38 1.01.13 1.86-.76 2.59-.88.75-2.23 1.21-4.04 1.41m-6.37-13.08c-1.88.21-3.38.55-4.52 1.02a13.88 13.88 0 00-3.45 2l2.8 1.61a10.73 10.73 0 015.78-2.38c1.84-.21 3.44-.09 4.77.37a5.7 5.7 0 013.03 2.26l.46.71-7.04.8c-2.6.31-4.4.94-5.35 1.88-.96.94-.99 2.08-.13 3.4.57.87 1.38 1.6 2.47 2.22 1.07.62 2.31 1.06 3.72 1.32 1.44.26 2.9.3 4.43.12 3.51-.4 5.63-1.42 6.33-3.06l1.35 2.06 3.84-.44-6.41-9.75a9.27 9.27 0 00-4.79-3.52 16.62 16.62 0 00-7.29-.62"/>
    <path d="M880.01 625.45c-1.44.16-2.88.09-4.31-.24a12.14 12.14 0 01-3.89-1.57 8.78 8.78 0 01-2.74-2.6 4.23 4.23 0 01-.82-2.83 3.1 3.1 0 011.42-2.19 7.38 7.38 0 013.42-1.12 13.05 13.05 0 018.21 1.79 8.91 8.91 0 012.77 2.65c.66 1.01.92 1.94.81 2.82a3.1 3.1 0 01-1.43 2.18 7.5 7.5 0 01-3.44 1.11m-.84-19.98l-3.89.44 5.83 8.9a15.36 15.36 0 00-4.85-1.88 17.54 17.54 0 00-5.48-.21c-2.07.24-3.7.76-4.89 1.57a4.28 4.28 0 00-2.01 3.07c-.15 1.24.25 2.58 1.2 4.03a12.67 12.67 0 003.92 3.78 17.6 17.6 0 005.51 2.27c2.02.46 4.09.57 6.19.33 1.86-.21 3.33-.67 4.4-1.36a3.97 3.97 0 001.87-2.67l1.93 2.95 3.89-.44-13.62-20.78"/>
    <path d="M908.49 622.21c-1.44.16-2.88.09-4.31-.24a12.14 12.14 0 01-3.89-1.57 8.78 8.78 0 01-2.74-2.6 4.23 4.23 0 01-.82-2.83 3.1 3.1 0 011.42-2.19 7.38 7.38 0 013.42-1.12 13.05 13.05 0 018.21 1.79 8.84 8.84 0 012.75 2.65 4.2 4.2 0 01.83 2.82 3.1 3.1 0 01-1.43 2.18c-.83.57-1.98.94-3.44 1.11m-.84-19.98l-3.91.45 5.83 8.9a14.77 14.77 0 00-4.83-1.89 17.54 17.54 0 00-5.48-.21c-2.07.24-3.7.76-4.89 1.57a4.28 4.28 0 00-2.01 3.07c-.15 1.24.25 2.58 1.2 4.03a12.67 12.67 0 003.92 3.78 18.23 18.23 0 0011.68 2.6c1.88-.21 3.33-.67 4.4-1.36a3.82 3.82 0 001.87-2.67l1.93 2.95 3.91-.45-13.62-20.77"/>
    <path d="M931.1 605.87a9.12 9.12 0 00-4.21 1.41 3.3 3.3 0 00-1.51 2.76l-2.08-3.18-3.91.45 9.7 14.8 3.91-.45-5.12-7.81c-.74-1.44-.68-2.66.16-3.66.8-.94 2.26-1.53 4.35-1.77l.36-.04-1.65-2.51"/>
    <path d="M941.3 611.7c-.61-1.35-.52-2.5.26-3.43.78-.94 2.15-1.51 4.1-1.74 2-.23 3.89-.02 5.62.61a8.7 8.7 0 014.11 2.95l-14.09 1.61m2.9-7.32c-2.14.24-3.84.79-5.08 1.63a4.56 4.56 0 00-2.19 3.11c-.19 1.22.19 2.57 1.15 4.03a12.5 12.5 0 003.94 3.73 17.8 17.8 0 005.69 2.2c2.09.44 4.21.52 6.4.27 1.86-.21 3.42-.61 4.7-1.21a6.52 6.52 0 002.74-2.28l-3.11-1.24a5.06 5.06 0 01-2.07 1.67c-.92.44-2.05.74-3.37.89-1.98.23-3.91.02-5.76-.6a10.55 10.55 0 01-4.57-2.88l17.5-1.99a14.28 14.28 0 00-6.84-6.2 17.74 17.74 0 00-9.13-1.13"/>
    <path d="M966.14 601.86c-2.26.26-3.93.8-4.98 1.67-1.05.86-1.13 1.99-.22 3.38.59.9 1.39 1.58 2.39 2.06 1.03.49 2.11.83 3.24 1 1.11.19 2.53.34 4.19.44 1.9.16 3.36.34 4.41.58a3.5 3.5 0 012.22 1.37c.43.66.38 1.19-.22 1.6-.57.4-1.5.68-2.78.82-1.3.15-2.73.12-4.29-.05-1.58-.17-3.01-.5-4.29-.95l-.21 2.07c1.48.52 3.11.88 4.9 1.07 1.78.17 3.47.16 5.12-.03 2.36-.27 4.07-.85 5.18-1.76 1.1-.9 1.2-2.07.28-3.47a6 6 0 00-2.53-2.17 12.6 12.6 0 00-3.36-1.04 52.62 52.62 0 00-4.36-.47 32.23 32.23 0 01-4.21-.52c-1.01-.22-1.71-.63-2.1-1.23-.39-.6-.33-1.08.19-1.44a5.66 5.66 0 012.54-.76 23.69 23.69 0 017.01.54l.13-2.16a21.84 21.84 0 00-4.03-.62 22.7 22.7 0 00-4.22.07"/>
    <path d="M985.41 599.66c-2.29.26-3.93.8-5.01 1.67-1.05.86-1.13 1.99-.22 3.38a5.7 5.7 0 002.41 2.06c1.03.49 2.11.83 3.24 1 1.11.19 2.53.34 4.16.44 1.92.15 3.36.34 4.43.58 1.03.26 1.78.71 2.22 1.37.43.66.35 1.2-.22 1.6-.57.4-1.5.68-2.78.82-1.3.15-2.73.12-4.29-.05-1.58-.17-3.01-.5-4.29-.95l-.24 2.07c1.51.52 3.13.88 4.92 1.06 1.76.17 3.47.16 5.12-.03 2.36-.27 4.07-.85 5.18-1.76 1.1-.9 1.18-2.06.26-3.47a5.9 5.9 0 00-2.51-2.17 12.6 12.6 0 00-3.36-1.04 52.62 52.62 0 00-4.36-.47 33.06 33.06 0 01-4.24-.52c-.98-.23-1.68-.64-2.08-1.24-.39-.6-.33-1.08.19-1.44a5.66 5.66 0 012.54-.76 23.69 23.69 0 017.01.54l.13-2.16a22.07 22.07 0 00-4.05-.62 24.85 24.85 0 00-4.16.09"/>
  </g>
  <path id="hl3" fill="#C94C43" d="M1030.24 685.35l-541.33 62.26c-8.64.99-12.61 6.53-8.83 12.29l19.67 29.95c3.79 5.78 13.96 9.68 22.6 8.69l541.33-62.26c8.64-.99 12.61-6.53 8.82-12.3l-19.67-29.95c-3.78-5.77-13.95-9.68-22.59-8.68"/>
  <g id="t3" fill="#000">
    <path d="M538.86 758.76l-4 .48 7.65 11.55c1.2 1.81 1.38 3.31.56 4.49-.78 1.19-2.5 1.94-5.09 2.25-2.64.31-5.02.05-7.18-.79a10.34 10.34 0 01-5.06-3.95l-7.65-11.55-4 .48 7.65 11.55a14.58 14.58 0 007.27 5.6c3.18 1.2 6.7 1.56 10.58 1.1 3.84-.46 6.4-1.54 7.62-3.26 1.23-1.7.99-3.84-.7-6.39l-7.65-11.56"/>
    <path d="M561.66 761.12c-4.12.52-6.22 1.92-6.31 4.2l-2.07-3.12-3.88.46 9.77 14.76 3.88-.46-5.23-7.9c-.71-1.34-.71-2.49-.01-3.47s2.02-1.59 3.98-1.85c1.86-.22 3.52-.05 5.03.54a6.99 6.99 0 013.51 2.73l5.57 8.41 3.88-.46-6.04-9.12a10.22 10.22 0 00-4.99-3.93 14.46 14.46 0 00-7.09-.79"/>
    <path d="M580.87 758.92l-3.88.46 9.77 14.76 3.88-.46-9.77-14.76m-5.85-5.66c-.71.08-1.19.31-1.43.68-.26.37-.23.81.09 1.29.31.47.82.85 1.5 1.11a4.1 4.1 0 002.05.26c.68-.08 1.17-.31 1.41-.68.26-.37.23-.81-.08-1.28a2.96 2.96 0 00-1.51-1.12 4.3 4.3 0 00-2.03-.26"/>
    <polyline points="606.11 755.92 602.18 756.38 603.64 769.37 588.9 757.96 584.76 758.46 603.19 772.18 607.27 771.7 606.11 755.92"/>
    <path d="M614.98 761.75c-.61-1.35-.53-2.49.24-3.43.78-.94 2.15-1.51 4.1-1.74 2-.24 3.88-.05 5.61.57a8.7 8.7 0 014.12 2.93l-14.07 1.67m2.87-7.31c-2.14.25-3.84.8-5.09 1.64s-1.98 1.88-2.15 3.12c-.19 1.24.19 2.59 1.14 4.03a12.28 12.28 0 003.98 3.71 16.82 16.82 0 005.68 2.17c2.09.43 4.23.51 6.42.25 1.86-.22 3.43-.65 4.68-1.25s2.16-1.37 2.73-2.29l-3.12-1.22a4.89 4.89 0 01-2.06 1.68 9.9 9.9 0 01-3.35.92c-1.98.24-3.91.04-5.77-.58a10.58 10.58 0 01-4.59-2.86l17.49-2.08a14.15 14.15 0 00-6.86-6.15 17.53 17.53 0 00-9.13-1.09"/>
    <path d="M645.35 751.17a9 9 0 00-4.19 1.41 3.4 3.4 0 00-1.51 2.79l-2.11-3.19-3.88.46 9.77 14.76 3.88-.46-5.16-7.79c-.75-1.44-.68-2.65.14-3.66.8-.93 2.2-1.52 4.25-1.77l.47-.05-1.66-2.5"/>
    <path d="M655.76 749.89c-2.26.27-3.92.84-4.96 1.71-1.05.87-1.13 1.98-.21 3.36.59.89 1.4 1.58 2.43 2.06 1.02.47 2.08.8 3.22.99 1.13.17 2.52.31 4.19.42 1.89.13 3.36.31 4.41.56 1.04.23 1.78.69 2.22 1.36.43.64.37 1.18-.2 1.58-.59.41-1.5.69-2.8.84-1.27.15-2.69.15-4.29-.03a18.99 18.99 0 01-4.3-.93l-.2 2.07c1.5.53 3.12.88 4.91 1.04 1.79.18 3.51.16 5.16-.04 2.33-.28 4.05-.87 5.16-1.8 1.1-.91 1.18-2.05.25-3.45-.63-.96-1.49-1.67-2.55-2.17s-2.18-.84-3.35-1.02a67.25 67.25 0 00-4.35-.43 33.59 33.59 0 01-4.25-.51c-1.01-.22-1.7-.61-2.09-1.21-.4-.6-.33-1.08.18-1.46a5.9 5.9 0 012.57-.76c.99-.12 2.12-.13 3.37-.05 1.23.09 2.44.27 3.63.53l.1-2.15a22.84 22.84 0 00-8.25-.51"/>
    <path d="M672.79 747.99l-3.88.46 9.77 14.76 3.88-.46-9.77-14.76m-5.88-5.65c-.68.08-1.17.31-1.41.68-.26.37-.23.81.09 1.29.31.47.82.85 1.5 1.11.66.26 1.35.35 2.03.27.71-.08 1.19-.31 1.43-.68.26-.37.2-.8-.11-1.27-.32-.49-.8-.87-1.48-1.13-.65-.27-1.34-.36-2.05-.27"/>
    <path d="M682.79 743.07l-3.93.47 2.62 3.96-3.13.37 1.31 1.98 3.13-.37 5.42 8.18a7.62 7.62 0 003.75 2.98c1.54.56 3.19.76 4.96.55s3.23-.79 4.48-1.72l-2.39-1.88c-.91.62-1.91.99-2.97 1.12-.89.11-1.68 0-2.35-.3a4.42 4.42 0 01-1.85-1.68l-5.1-7.71 6.8-.81-1.31-1.98-6.8.81-2.64-3.97"/>
    <path d="M714.86 742.99l-3.98.47 1.18 12.63-14.88-11-4.1.49 18.83 13.51.04 1.4c-.01 1.37-.84 2.15-2.51 2.35-1.01.12-2.16 0-3.42-.34l-.32 2.24c.96.29 1.91.5 2.83.59.89.08 1.82.07 2.77-.04 1.55-.18 2.73-.63 3.5-1.35a3.43 3.43 0 001.08-2.89l-1.02-18.06"/>
    <path d="M747.03 752.79c-1.46.17-2.88.1-4.29-.18a12.04 12.04 0 01-3.87-1.55 8.87 8.87 0 01-2.75-2.62c-.67-1-.95-1.94-.84-2.8.08-.87.57-1.59 1.4-2.18a7.7 7.7 0 013.42-1.12c1.41-.17 2.85-.1 4.27.2 1.43.32 2.71.83 3.87 1.55a8.95 8.95 0 012.72 2.57 4.4 4.4 0 01.87 2.84 3 3 0 01-1.4 2.18c-.84.57-1.99.95-3.4 1.11m-8.42-12.71a12.7 12.7 0 00-5.31 1.65 4.68 4.68 0 00-2.26 3.11c-.22 1.25.14 2.59 1.1 4.04a12.01 12.01 0 004.04 3.72 18.27 18.27 0 005.75 2.16c2.14.44 4.33.52 6.57.25 2.21-.26 3.96-.81 5.25-1.66 1.3-.83 2.06-1.87 2.25-3.13.22-1.25-.14-2.59-1.11-4.05a12.2 12.2 0 00-4.02-3.69 17.6 17.6 0 00-5.75-2.16c-2.13-.42-4.3-.51-6.51-.24"/>
    <path d="M759.32 731.11a8.3 8.3 0 00-3.23.99c-.86.51-1.39 1.2-1.57 2.03s.09 1.78.81 2.87l1.05 1.59-2.9.34 1.31 1.98 2.9-.34 8.13 12.28 3.88-.46-8.13-12.28 6.12-.73-1.31-1.98-6.12.73-1.28-1.93c-.5-.75-.56-1.39-.15-1.88.39-.49 1.1-.79 2.11-.91.87-.1 1.94-.06 3.14.14l-.49-2.23a14.85 14.85 0 00-4.27-.21"/>
    <path d="M793.1 746.96l-4.21-6.36 8.29-.99c2.19-.26 4.06-.2 5.66.22 1.6.42 2.72 1.12 3.38 2.1.68 1.02.58 1.88-.26 2.6-.83.69-2.28 1.15-4.39 1.4l-.18.02-8.29 1.01m-5.82-8.79l-3.87-5.84 8.29-.99.16-.02c1.74-.21 3.26-.12 4.54.26 1.32.38 2.28 1.03 2.91 1.97s.62 1.74-.04 2.36c-.65.64-1.89 1.05-3.7 1.27l-8.29.99m3.01-9.3l-12.5 1.49 12.93 19.53 12.71-1.51c3.32-.39 5.63-1.16 6.89-2.33 1.26-1.17 1.34-2.58.23-4.26a8.7 8.7 0 00-3.94-3.11c-1.74-.74-3.7-1.1-5.88-1.06 1.48-.45 2.43-1.12 2.89-2 .42-.9.27-1.89-.47-3.01-1.01-1.52-2.65-2.62-4.94-3.27a19.73 19.73 0 00-7.92-.47"/>
    <path d="M814.26 731.17l-3.91.46 9.77 14.76 3.91-.46-9.77-14.76m-5.87-5.65c-.71.08-1.17.31-1.43.68-.24.37-.2.8.12 1.29.31.47.82.85 1.47 1.11.68.26 1.35.35 2.05.26.71-.08 1.17-.31 1.43-.68.24-.37.2-.8-.11-1.27a3.08 3.08 0 00-1.48-1.13 4.14 4.14 0 00-2.05-.26"/>
    <path d="M833.54 728.79a9.13 9.13 0 00-4.22 1.42 3.33 3.33 0 00-1.48 2.78l-2.11-3.19-3.91.46 9.77 14.76 3.91-.46-5.16-7.79c-.75-1.44-.68-2.65.14-3.66.78-.93 2.2-1.52 4.25-1.77l.47-.05-1.66-2.5"/>
    <path d="M866.36 724.89c-4.36.55-6.41 2.13-6.19 4.73a10.9 10.9 0 00-4.54-2.41 14.7 14.7 0 00-5.73-.37c-4.03.51-6.08 1.91-6.14 4.15l-2.05-3.09-3.91.46 9.77 14.76 3.91-.46-4.82-7.28c-.98-1.48-1.18-2.77-.6-3.86.59-1.1 1.92-1.79 3.98-2.08a9.82 9.82 0 014.92.57 7.17 7.17 0 013.45 2.76l5.57 8.41 3.96-.47-4.82-7.28c-.98-1.48-1.2-2.77-.62-3.85.57-1.1 1.89-1.78 3.96-2.08a9.94 9.94 0 014.9.57c1.5.58 2.64 1.5 3.47 2.75l5.57 8.41 3.93-.47-6.04-9.12a10.35 10.35 0 00-4.94-3.93 13.99 13.99 0 00-6.99-.82"/>
    <path d="M885.41 722.71l-3.91.46 9.77 14.76 3.91-.46-9.77-14.76m-5.87-5.65c-.68.08-1.17.31-1.41.68-.26.37-.23.81.09 1.29.31.47.82.85 1.5 1.11.66.26 1.35.35 2.03.27.71-.08 1.17-.31 1.43-.68.26-.37.2-.8-.11-1.27-.32-.49-.8-.87-1.48-1.13-.68-.27-1.35-.36-2.05-.27"/>
    <path d="M905.23 720.27c-4.1.52-6.19 1.92-6.28 4.2l-2.07-3.12-3.88.46 9.77 14.76 3.88-.46-5.23-7.9c-.71-1.34-.71-2.49-.01-3.47.67-.98 2.02-1.59 3.98-1.85a10.3 10.3 0 015.03.54 7.17 7.17 0 013.51 2.73l5.57 8.41 3.88-.46-6.04-9.12a10.22 10.22 0 00-4.99-3.93 14.57 14.57 0 00-7.12-.79"/>
    <path d="M937.12 729.5c-2.1.25-4.09 0-6.02-.77a9.46 9.46 0 01-4.37-3.34 3.94 3.94 0 01-.79-2.68c.11-.83.57-1.52 1.37-2.08a6.72 6.72 0 013.22-1.08 11.99 11.99 0 017.75 1.69 8.22 8.22 0 012.6 2.47c.62.94.89 1.84.8 2.67a3 3 0 01-1.32 2.07 7.4 7.4 0 01-3.24 1.05m-8.74-11.99a10.4 10.4 0 00-4.66 1.52 4.01 4.01 0 00-1.89 2.9c-.15 1.15.26 2.42 1.17 3.81.93 1.4 2.14 2.57 3.7 3.56 1.56.98 3.3 1.69 5.21 2.11 1.94.43 3.88.52 5.85.29a9.86 9.86 0 004.13-1.29 3.78 3.78 0 001.8-2.47l1.37 2.07c.95 1.43 1.02 2.66.22 3.67-.79 1.03-2.35 1.67-4.63 1.94a18.5 18.5 0 01-4.14.04 24.39 24.39 0 01-4.27-.93l-.44 2.1a26.76 26.76 0 0010.48.99c2.26-.27 4.05-.79 5.38-1.57 1.32-.77 2.1-1.74 2.34-2.9.21-1.18-.13-2.46-1.07-3.89l-8.77-13.25-3.93.47 1.79 2.7a15.9 15.9 0 00-9.64-1.87"/>
    <path d="M947.44 708.91l-3.91.46 13.71 20.71 3.91-.46-4.8-7.25c-1-1.51-1.2-2.8-.55-3.9.61-1.11 1.99-1.79 4.14-2.07 1.84-.22 3.5-.04 5.01.54a6.99 6.99 0 013.51 2.73l5.57 8.41 3.91-.46-6.04-9.12a10.28 10.28 0 00-5.01-3.93 14.54 14.54 0 00-7.11-.8c-4.15.53-6.25 1.95-6.29 4.27l-6.05-9.13"/>
    <path d="M990.12 723.99a9.86 9.86 0 01-3.93-.26 4.3 4.3 0 01-2.5-1.67c-.5-.75-.45-1.37.17-1.82.61-.46 1.81-.79 3.55-1l6.5-.77.98 1.48c.39 1 .14 1.86-.73 2.61-.9.74-2.23 1.22-4.04 1.43m-6.44-13.05c-1.88.22-3.39.56-4.53 1.03a14.58 14.58 0 00-3.44 2.02l2.81 1.6a10.88 10.88 0 015.78-2.4c1.84-.22 3.44-.1 4.78.35a5.68 5.68 0 013.04 2.25l.46.69-7.04.84c-2.6.33-4.39.96-5.33 1.92-.95.94-.99 2.07-.11 3.4a7.03 7.03 0 002.47 2.2c1.07.62 2.32 1.05 3.73 1.3 1.44.25 2.91.3 4.44.11 3.51-.42 5.61-1.46 6.3-3.1l1.36 2.06 3.84-.46-6.45-9.7a9.35 9.35 0 00-4.81-3.51 16.13 16.13 0 00-7.3-.6"/>
    <path d="M1027.97 705.67c-4.36.55-6.43 2.14-6.19 4.73a10.9 10.9 0 00-4.54-2.41 14.7 14.7 0 00-5.73-.37c-4.03.51-6.08 1.91-6.14 4.15l-2.05-3.09-3.91.46 9.77 14.76 3.91-.46-4.82-7.28c-.98-1.48-1.18-2.77-.6-3.86.59-1.1 1.92-1.79 3.98-2.08a9.82 9.82 0 014.92.57 7.17 7.17 0 013.45 2.76l5.57 8.41 3.96-.47-4.82-7.28c-.98-1.48-1.2-2.77-.62-3.85.57-1.1 1.89-1.78 3.96-2.08a9.94 9.94 0 014.9.57c1.5.58 2.64 1.5 3.47 2.75l5.57 8.41 3.93-.47-6.04-9.12a10.35 10.35 0 00-4.94-3.93 14.1 14.1 0 00-6.99-.82"/>
  </g>
  <g id="t3_2" fill="#FFF">
    <path d="M538.25 758.81l-4 .46 7.59 11.59c1.19 1.81 1.36 3.31.54 4.49-.79 1.19-2.51 1.93-5.1 2.22-2.64.3-5.02.03-7.17-.82a10.3 10.3 0 01-5.04-3.98l-7.59-11.59-4 .46 7.59 11.59a14.62 14.62 0 007.24 5.64 22.24 22.24 0 0010.57 1.15c3.84-.44 6.4-1.51 7.64-3.22 1.24-1.7 1-3.84-.67-6.39l-7.6-11.6"/>
    <path d="M561.03 761.27c-4.13.5-6.23 1.89-6.33 4.17l-2.05-3.13-3.89.44 9.7 14.8 3.89-.44-5.19-7.92c-.7-1.34-.7-2.49 0-3.47s2.02-1.58 3.99-1.83c1.86-.21 3.53-.03 5.03.56a7.04 7.04 0 013.5 2.75l5.53 8.44 3.89-.44-6-9.15a10.16 10.16 0 00-4.97-3.95 14.6 14.6 0 00-7.1-.83"/>
    <path d="M580.26 759.17l-3.89.44 9.7 14.8 3.89-.44-9.7-14.8m-5.83-5.69c-.71.08-1.19.31-1.43.67-.26.37-.23.8.09 1.29.31.47.81.86 1.49 1.12.65.26 1.35.35 2.05.27.68-.08 1.17-.3 1.41-.67.26-.37.23-.8-.08-1.28a3 3 0 00-1.5-1.13 4.4 4.4 0 00-2.03-.27"/>
    <polyline points="605.51 756.29 601.58 756.74 602.97 769.73 588.29 758.25 584.14 758.73 602.51 772.54 606.59 772.08 605.51 756.29"/>
    <path d="M614.35 762.17c-.61-1.35-.52-2.5.26-3.43.78-.94 2.16-1.5 4.11-1.72 2-.23 3.88-.04 5.61.6a8.77 8.77 0 014.11 2.95l-14.09 1.6m2.91-7.3c-2.14.24-3.85.78-5.09 1.61-1.25.84-1.99 1.87-2.17 3.11-.2 1.24.18 2.59 1.12 4.04.96 1.46 2.28 2.7 3.96 3.73a16.94 16.94 0 005.67 2.2c2.09.44 4.22.53 6.41.28 1.86-.21 3.44-.63 4.69-1.23a6.32 6.32 0 002.74-2.28l-3.11-1.24a4.84 4.84 0 01-2.07 1.67c-.91.46-2.04.76-3.36.91a13.1 13.1 0 01-5.77-.61 10.55 10.55 0 01-4.57-2.88l17.5-1.99a14.2 14.2 0 00-6.83-6.18 17.57 17.57 0 00-9.12-1.14"/>
    <path d="M644.78 751.73c-1.83.23-3.24.69-4.2 1.39a3.38 3.38 0 00-1.52 2.78l-2.09-3.2-3.89.44 9.7 14.8 3.89-.44-5.12-7.81c-.74-1.44-.67-2.65.16-3.66.81-.93 2.21-1.51 4.26-1.74l.47-.05-1.66-2.51"/>
    <path d="M655.19 750.51c-2.26.26-3.92.82-4.97 1.68-1.05.86-1.14 1.97-.23 3.36.59.9 1.39 1.58 2.42 2.08 1.02.48 2.08.81 3.22 1 1.13.18 2.52.32 4.18.44 1.89.14 3.35.33 4.41.58 1.04.24 1.77.7 2.22 1.37.42.65.37 1.18-.21 1.58-.59.41-1.5.68-2.8.83-1.27.14-2.69.14-4.29-.05-1.56-.18-3-.49-4.29-.95l-.21 2.07c1.49.54 3.12.9 4.9 1.07 1.79.19 3.51.18 5.16-.01 2.33-.27 4.05-.85 5.17-1.77 1.1-.9 1.19-2.05.27-3.45a6.05 6.05 0 00-2.54-2.18c-1.06-.5-2.18-.85-3.34-1.04a59.46 59.46 0 00-4.35-.45c-1.84-.15-3.24-.31-4.25-.53s-1.7-.62-2.09-1.22c-.39-.6-.33-1.08.18-1.46a5.78 5.78 0 012.57-.75c.99-.11 2.12-.12 3.37-.03 1.23.1 2.44.28 3.63.55l.11-2.15a21.9 21.9 0 00-4.04-.64 22.5 22.5 0 00-4.2.07"/>
    <path d="M672.23 748.69l-3.89.44 9.7 14.8 3.89-.44-9.7-14.8m-5.85-5.68c-.68.08-1.17.3-1.41.67-.26.37-.23.8.09 1.29.31.47.81.86 1.49 1.12a4.3 4.3 0 002.03.28c.71-.08 1.19-.31 1.43-.67.26-.37.21-.8-.1-1.27-.32-.49-.8-.87-1.48-1.13a4 4 0 00-2.05-.29"/>
    <path d="M682.25 743.82l-3.93.45 2.6 3.97-3.13.36 1.3 1.98 3.13-.36 5.38 8.21a7.54 7.54 0 003.73 2.99c1.54.57 3.19.77 4.96.57a9.04 9.04 0 004.48-1.7l-2.38-1.9c-.92.61-1.91.98-2.98 1.1-.9.1-1.68-.01-2.35-.31a4.49 4.49 0 01-1.84-1.69l-5.07-7.73 6.81-.78-1.3-1.98-6.81.78-2.6-3.96"/>
    <path d="M714.32 743.89l-3.98.45 1.11 12.63-14.82-11.07-4.1.47 18.76 13.6.03 1.4c-.01 1.37-.85 2.14-2.52 2.34a9.16 9.16 0 01-3.42-.35l-.33 2.24c.95.3 1.9.51 2.83.61.89.08 1.82.08 2.77-.03 1.55-.18 2.74-.62 3.51-1.33a3.45 3.45 0 001.1-2.88l-.94-18.08"/>
    <polyline points="751 734.57 747.02 735.02 756.97 750.22 730.22 736.94 726.17 737.4 739 756.99 743.03 756.53 733.1 741.36 759.78 754.62 763.83 754.16 751 734.57"/>
    <path d="M777.13 750.46a9.84 9.84 0 01-3.93-.28 4.26 4.26 0 01-2.49-1.68c-.5-.76-.44-1.37.18-1.81.61-.46 1.82-.78 3.56-.98l6.5-.74.97 1.48c.38 1.01.13 1.86-.75 2.61-.89.72-2.22 1.2-4.04 1.4m-6.37-13.08c-1.88.21-3.39.54-4.55 1.01-1.14.47-2.3 1.13-3.42 2l2.8 1.61a10.83 10.83 0 015.79-2.37c1.84-.21 3.44-.09 4.77.37a5.84 5.84 0 013.03 2.26l.45.69-7.04.8c-2.6.31-4.4.94-5.34 1.89-.95.94-1 2.06-.13 3.4a7.12 7.12 0 002.44 2.21c1.09.62 2.34 1.05 3.75 1.32 1.41.26 2.91.31 4.44.14 3.51-.4 5.62-1.44 6.32-3.07l1.35 2.06 3.84-.44-6.4-9.73a9.26 9.26 0 00-4.8-3.53 16.26 16.26 0 00-7.3-.62"/>
    <path d="M815.07 732.33c-4.38.53-6.44 2.11-6.21 4.7a11.02 11.02 0 00-4.53-2.43c-1.8-.51-3.7-.63-5.73-.4-4.03.49-6.09 1.88-6.16 4.12l-2.03-3.1-3.91.45 9.7 14.8 3.91-.45-4.79-7.31c-.97-1.48-1.19-2.78-.58-3.86.6-1.1 1.92-1.78 3.99-2.06a9.82 9.82 0 014.92.59 7.17 7.17 0 013.44 2.77l5.53 8.44 3.93-.45-4.79-7.31c-.97-1.48-1.16-2.78-.58-3.86.57-1.1 1.9-1.77 3.97-2.06a10 10 0 014.89.59 7.08 7.08 0 013.46 2.77l5.53 8.44 3.93-.45-6-9.15a10.56 10.56 0 00-4.92-3.96 14.36 14.36 0 00-6.97-.82"/>
    <path d="M836.14 736.9c-.61-1.35-.52-2.5.26-3.43.78-.94 2.16-1.5 4.11-1.72 2-.23 3.88-.04 5.61.6a8.87 8.87 0 014.11 2.95l-14.09 1.6m2.91-7.3c-2.14.24-3.85.78-5.1 1.61-1.25.84-1.99 1.87-2.17 3.11-.2 1.24.18 2.59 1.12 4.04.96 1.46 2.28 2.7 3.96 3.73a16.94 16.94 0 005.67 2.2c2.09.44 4.22.53 6.41.28 1.86-.21 3.44-.63 4.69-1.23a6.32 6.32 0 002.74-2.28l-3.11-1.24a4.84 4.84 0 01-2.07 1.67c-.91.46-2.04.76-3.36.91a13.1 13.1 0 01-5.77-.61 10.55 10.55 0 01-4.57-2.88l17.5-1.99a14.2 14.2 0 00-6.83-6.18 17.52 17.52 0 00-9.11-1.14"/>
  </g>
  <path id="hl4" fill="#C94C43" d="M1375.74 832.63L718.19 909.5c-8.64 1.01-12.6 6.55-8.79 12.32l19.72 29.91c3.79 5.75 13.97 9.64 22.61 8.63l657.55-76.87c8.64-1.01 12.6-6.55 8.8-12.3l-19.72-29.91c-3.81-5.78-13.98-9.67-22.62-8.65"/>
  <g id="t4" fill="#000">
    <polyline points="779.11 921.62 775.08 922.09 777.05 935 762.82 923.55 758.77 924.03 760.71 936.94 746.45 925.49 742.4 925.97 760.36 939.76 764.44 939.27 762.85 926.93 776.66 937.83 780.71 937.34 779.11 921.62"/>
    <path d="M782.92 914.75l-3.91.46 13.71 20.71 3.91-.46-4.8-7.25c-1-1.51-1.21-2.82-.56-3.91.62-1.09 2-1.78 4.15-2.05 1.84-.22 3.5-.04 4.99.53a7.06 7.06 0 013.51 2.73l5.58 8.43 3.91-.46-6.04-9.12a10.29 10.29 0 00-5.02-3.94 14.54 14.54 0 00-7.11-.8c-4.14.54-6.24 1.96-6.29 4.27l-6.03-9.14"/>
    <path d="M816.54 924.07c-.65-1.36-.57-2.51.22-3.43.78-.94 2.14-1.52 4.09-1.76 2.02-.24 3.91-.04 5.64.58a8.68 8.68 0 014.1 2.93l-14.05 1.68m2.86-7.33a11.7 11.7 0 00-5.11 1.64 4.6 4.6 0 00-2.15 3.12c-.19 1.24.19 2.59 1.15 4.05a12.4 12.4 0 003.98 3.71 17.7 17.7 0 005.68 2.17c2.1.41 4.24.5 6.41.24a14.2 14.2 0 004.68-1.25 6.44 6.44 0 002.74-2.27l-3.12-1.22a5.1 5.1 0 01-2.06 1.68c-.92.45-2.04.75-3.34.9-2 .24-3.91.04-5.79-.58a10.56 10.56 0 01-4.57-2.84l17.52-2.08c-.1-.19-.29-.47-.54-.85a14.15 14.15 0 00-6.36-5.31 17.4 17.4 0 00-9.12-1.11"/>
    <path d="M846.9 913.47a9.28 9.28 0 00-4.22 1.41 3.45 3.45 0 00-1.51 2.79l-2.1-3.17-3.88.46 9.77 14.76 3.88-.46-5.15-7.79c-.72-1.44-.69-2.66.17-3.66.79-.94 2.25-1.54 4.34-1.79l.36-.04-1.66-2.51"/>
    <path d="M857.13 919.26c-.62-1.37-.54-2.51.24-3.43.78-.94 2.14-1.52 4.09-1.76 2-.24 3.89-.04 5.62.59a8.58 8.58 0 014.1 2.93l-14.05 1.67m2.86-7.34c-2.14.25-3.83.81-5.11 1.64a4.6 4.6 0 00-2.15 3.12c-.17 1.24.21 2.58 1.18 4.04a12.54 12.54 0 003.96 3.71 17.88 17.88 0 005.68 2.17c2.1.41 4.24.5 6.43.24a14.2 14.2 0 004.66-1.25 6.5 6.5 0 002.76-2.27l-3.12-1.22a5.16 5.16 0 01-2.06 1.68c-.92.45-2.04.75-3.36.91-1.98.23-3.91.04-5.77-.59a10.5 10.5 0 01-4.57-2.84l17.49-2.07a14.32 14.32 0 00-6.87-6.16 17.52 17.52 0 00-9.15-1.11"/>
    <path d="M892.86 907.99c-2.26.27-3.92.84-4.96 1.71-1.05.87-1.12 2-.21 3.36.59.9 1.41 1.59 2.43 2.07 1.03.49 2.11.82 3.22.99 1.13.17 2.52.31 4.19.42 1.9.15 3.37.33 4.41.56 1.05.25 1.81.7 2.25 1.36.44.66.35 1.18-.21 1.6-.57.41-1.5.69-2.8.84-1.27.15-2.7.13-4.29-.03a20.4 20.4 0 01-4.3-.93l-.21 2.06c1.5.53 3.15.88 4.93 1.04 1.77.18 3.48.16 5.13-.03 2.35-.28 4.07-.87 5.17-1.78 1.1-.91 1.17-2.07.25-3.47a5.96 5.96 0 00-2.52-2.16 12.5 12.5 0 00-3.37-1.02 53.7 53.7 0 00-4.36-.45 30.43 30.43 0 01-4.25-.51c-1-.2-1.7-.61-2.09-1.21-.39-.6-.31-1.08.21-1.45a5.35 5.35 0 012.53-.77 17.1 17.1 0 013.38-.03c1.25.09 2.46.27 3.63.53l.09-2.16a22.84 22.84 0 00-4.04-.62 21.77 21.77 0 00-4.21.08"/>
    <path d="M906.17 900.13l-3.88.46L916 921.3l3.88-.46-4.8-7.25c-1-1.51-1.18-2.82-.56-3.91.62-1.09 2.02-1.78 4.15-2.05 1.84-.22 3.52-.05 5.02.52a7.2 7.2 0 013.51 2.73l5.58 8.43 3.88-.46-6.04-9.12a10.3 10.3 0 00-5-3.95 14.74 14.74 0 00-7.13-.8c-4.11.54-6.22 1.96-6.29 4.27l-6.03-9.12"/>
    <path d="M939.79 909.45c-.62-1.37-.54-2.51.24-3.43.78-.94 2.14-1.52 4.09-1.76 2-.24 3.89-.04 5.62.59a8.58 8.58 0 014.1 2.93l-14.05 1.67m2.87-7.33c-2.14.25-3.83.81-5.09 1.64a4.61 4.61 0 00-2.18 3.12c-.17 1.24.21 2.58 1.18 4.04a12.54 12.54 0 003.96 3.71 17.88 17.88 0 005.68 2.17c2.1.41 4.24.5 6.43.24 1.86-.22 3.42-.63 4.68-1.25a6.57 6.57 0 002.74-2.27l-3.12-1.22c-.47.67-1.14 1.24-2.06 1.68s-2.04.75-3.36.91c-1.98.23-3.91.04-5.77-.59a10.5 10.5 0 01-4.57-2.84l17.49-2.07a14.32 14.32 0 00-6.87-6.16 17.49 17.49 0 00-9.14-1.11"/>
    <polyline points="1002.45 895.13 998.43 895.6 1000.39 908.51 986.16 897.06 982.11 897.54 984.05 910.45 969.8 899 965.75 899.48 983.71 913.27 987.78 912.78 986.19 900.44 1000 911.33 1004.05 910.85 1002.45 895.13"/>
    <path d="M1022.92 906.33c-1.46.17-2.9.11-4.32-.2-1.42-.31-2.7-.81-3.86-1.54a9.21 9.21 0 01-2.75-2.62c-.67-1-.94-1.95-.85-2.81.12-.86.57-1.59 1.41-2.17a7.5 7.5 0 013.44-1.14c1.41-.17 2.83-.1 4.26.22 1.42.31 2.73.83 3.86 1.54a8.6 8.6 0 012.73 2.59c.68 1.02.97 1.97.87 2.84-.08.87-.57 1.59-1.41 2.17-.84.58-1.97.95-3.38 1.12m-8.43-12.73c-2.24.27-4.01.81-5.3 1.66-1.3.83-2.06 1.87-2.26 3.11-.23 1.23.13 2.58 1.1 4.04s2.32 2.7 4.04 3.72a17.6 17.6 0 005.75 2.16c2.13.42 4.32.5 6.56.24 2.19-.26 3.96-.81 5.24-1.64a4.66 4.66 0 002.27-3.13c.22-1.24-.17-2.6-1.13-4.05a11.96 11.96 0 00-3.99-3.69 17.97 17.97 0 00-5.77-2.16 20.3 20.3 0 00-6.51-.26"/>
    <path d="M1043.03 890.21a9.25 9.25 0 00-4.22 1.41 3.46 3.46 0 00-1.48 2.78l-2.1-3.17-3.88.46 9.77 14.76 3.88-.45-5.15-7.79c-.75-1.44-.69-2.66.14-3.66.82-.95 2.25-1.54 4.34-1.79l.36-.04-1.66-2.51"/>
    <polyline points="1047.49 883.37 1043.6 883.83 1057.31 904.54 1061.2 904.08 1058.42 899.88 1060.76 896.39 1072.57 902.73 1077.28 902.17 1062.25 894.2 1066.71 887.51 1062.14 888.05 1056.23 896.57 1047.49 883.37"/>
    <path d="M1076.64 893.22c-.65-1.36-.57-2.51.22-3.43.78-.94 2.14-1.52 4.09-1.76 2.02-.24 3.89-.04 5.62.59a8.6 8.6 0 014.12 2.93l-14.05 1.67m2.84-7.33c-2.14.25-3.83.81-5.09 1.64a4.54 4.54 0 00-2.15 3.12c-.19 1.24.19 2.59 1.15 4.05a12.4 12.4 0 003.98 3.71 17.52 17.52 0 005.68 2.17c2.08.41 4.24.5 6.41.24 1.86-.22 3.44-.63 4.68-1.25a6.44 6.44 0 002.74-2.27l-3.12-1.22c-.45.66-1.14 1.24-2.06 1.68s-2.04.75-3.36.91c-1.98.23-3.89.04-5.77-.59a10.45 10.45 0 01-4.57-2.84l17.49-2.07a14.15 14.15 0 00-6.87-6.16 17.38 17.38 0 00-9.14-1.12"/>
    <path d="M1112.93 895.69a12.84 12.84 0 01-8.23-1.76 8.9 8.9 0 01-2.74-2.6 4.2 4.2 0 01-.85-2.81c.13-.88.58-1.61 1.41-2.2a7.34 7.34 0 013.43-1.15 13.01 13.01 0 018.21 1.77c1.17.73 2.1 1.6 2.77 2.62.67 1 .94 1.95.83 2.83s-.6 1.59-1.42 2.18a7.7 7.7 0 01-3.41 1.12m-.95-19.97l-3.89.46 5.87 8.87a14.76 14.76 0 00-4.84-1.86c-1.78-.35-3.6-.42-5.51-.19-2.05.24-3.67.79-4.88 1.61a4.3 4.3 0 00-2 3.08c-.15 1.24.26 2.58 1.21 4.02a12.83 12.83 0 003.94 3.77 18.45 18.45 0 0011.71 2.54c1.86-.22 3.33-.68 4.39-1.38a3.96 3.96 0 001.86-2.68l1.94 2.94 3.89-.46-13.69-20.72"/>
    <path d="M1152.3 890.99c-1.46.17-2.9.11-4.32-.2-1.42-.31-2.7-.81-3.86-1.54a9.21 9.21 0 01-2.75-2.62c-.67-1-.94-1.95-.85-2.81.12-.86.57-1.59 1.41-2.17a7.5 7.5 0 013.44-1.14c1.41-.17 2.83-.1 4.26.22 1.42.31 2.73.83 3.86 1.54a8.6 8.6 0 012.73 2.59c.68 1.02.97 1.97.87 2.84-.08.87-.57 1.59-1.41 2.17s-1.97.95-3.38 1.12m-8.43-12.74c-2.24.27-4.01.81-5.3 1.66a4.64 4.64 0 00-2.28 3.12c-.2 1.23.15 2.57 1.12 4.03.97 1.46 2.32 2.7 4.01 3.72a17.97 17.97 0 005.77 2.16c2.13.42 4.32.5 6.56.24 2.19-.26 3.96-.81 5.24-1.64 1.3-.83 2.05-1.89 2.27-3.13s-.17-2.6-1.13-4.05a11.96 11.96 0 00-3.99-3.69 20.22 20.22 0 00-12.27-2.42"/>
    <path d="M1172.95 874.8c-4.09.54-6.18 1.94-6.28 4.22l-2.07-3.12-3.88.46 9.77 14.76 3.88-.46-5.23-7.9c-.71-1.34-.72-2.51-.02-3.49.68-.96 2.03-1.58 4-1.83 1.84-.22 3.52-.05 5.02.52a7.2 7.2 0 013.51 2.73l5.58 8.43 3.88-.46-6.04-9.12a10.3 10.3 0 00-5-3.95 14.8 14.8 0 00-7.12-.79"/>
    <path d="M1214.25 883.72a9.69 9.69 0 01-3.93-.26 4.32 4.32 0 01-2.49-1.65c-.51-.77-.45-1.37.18-1.83.62-.45 1.79-.79 3.56-1l6.47-.77.99 1.49c.4.99.14 1.86-.72 2.59-.89.73-2.25 1.22-4.06 1.43m-6.43-13.05c-1.86.22-3.38.57-4.53 1.03a14.99 14.99 0 00-3.43 2.03l2.82 1.58a10.83 10.83 0 015.76-2.39c1.86-.22 3.44-.1 4.78.35a5.7 5.7 0 013.04 2.25l.47.71-7.02.83c-2.63.33-4.42.96-5.37 1.91-.95.94-.98 2.08-.11 3.4.57.86 1.39 1.6 2.48 2.21a12.3 12.3 0 003.75 1.3c1.41.26 2.88.28 4.41.1 3.53-.42 5.62-1.45 6.3-3.1l1.37 2.07 3.86-.46-6.48-9.71a9.24 9.24 0 00-4.81-3.51 16.2 16.2 0 00-7.29-.6"/>
    <path d="M1254.42 878.81c-1.41.17-2.85.1-4.25-.21a12.44 12.44 0 01-3.9-1.55 8.43 8.43 0 01-2.76-2.6c-.65-.99-.94-1.92-.81-2.8.11-.88.57-1.59 1.42-2.18a7.52 7.52 0 013.38-1.11 12.63 12.63 0 018.12 1.77 8.71 8.71 0 012.74 2.57c.67 1 .96 1.95.85 2.81a3.1 3.1 0 01-1.39 2.2c-.84.55-1.96.93-3.4 1.1m-7.63-12.76c-1.84.22-3.28.68-4.35 1.36a3.76 3.76 0 00-1.84 2.62l-1.93-2.92-3.91.46 13.35 20.18 3.91-.46-5.53-8.35a14.7 14.7 0 004.83 1.85c1.76.35 3.57.41 5.45.18 2.05-.24 3.68-.77 4.87-1.58a4.29 4.29 0 002.01-3.07c.12-1.23-.28-2.57-1.25-4.03a12.85 12.85 0 00-3.93-3.75 16.96 16.96 0 00-5.51-2.19c-2.06-.45-4.1-.55-6.17-.3"/>
    <path d="M1274.62 862.74c-1.83.23-3.22.7-4.19 1.41s-1.47 1.65-1.51 2.79l-2.1-3.17-3.88.46 9.77 14.76 3.88-.46-5.15-7.79c-.75-1.44-.69-2.66.17-3.66.79-.94 2.23-1.54 4.32-1.79l.36-.04-1.67-2.51"/>
    <path d="M1296.49 873.88c-1.46.17-2.88.1-4.3-.2s-2.72-.81-3.86-1.54a8.87 8.87 0 01-2.75-2.62c-.66-1-.96-1.95-.85-2.81a3 3 0 011.41-2.17 7.25 7.25 0 013.41-1.13c1.41-.17 2.85-.1 4.28.22 1.42.31 2.71.83 3.86 1.54a8.93 8.93 0 012.73 2.59 4.4 4.4 0 01.87 2.84 3.02 3.02 0 01-1.41 2.17c-.83.57-1.98.95-3.39 1.11m-8.43-12.73c-2.24.27-4.01.81-5.3 1.66a4.68 4.68 0 00-2.26 3.11c-.23 1.23.15 2.57 1.12 4.03.97 1.46 2.3 2.71 4.01 3.72a18.03 18.03 0 005.75 2.16c2.13.42 4.32.5 6.56.24 2.21-.26 3.96-.81 5.26-1.64a4.57 4.57 0 002.25-3.13c.22-1.24-.15-2.61-1.11-4.05a11.97 11.97 0 00-4.02-3.69 17.6 17.6 0 00-5.75-2.16c-2.13-.43-4.3-.51-6.51-.25"/>
    <path d="M1308.75 858.8l-3.93.47 10.01 15.12c.64.97.85 1.74.64 2.31-.24.54-.84.88-1.85 1l-.09.01c-.76.04-1.51.03-2.21-.04l.39 2.09c1.52.19 2.9.2 4.15.05 2-.24 3.29-.83 3.84-1.79.56-.96.32-2.21-.69-3.73l-10.26-15.49m-5.91-5.67c-.68.08-1.17.31-1.42.69-.24.37-.22.79.11 1.27.32.49.82.85 1.48 1.13.68.26 1.37.35 2.05.26.71-.08 1.17-.31 1.43-.68.23-.38.2-.8-.12-1.29a3.02 3.02 0 00-1.47-1.11 4.28 4.28 0 00-2.06-.27"/>
    <path d="M1321.85 864.14c-.62-1.37-.54-2.51.24-3.43.78-.94 2.14-1.52 4.09-1.76 2-.24 3.89-.04 5.62.59a8.6 8.6 0 014.12 2.93l-14.07 1.67m2.87-7.34c-2.14.25-3.83.81-5.09 1.64a4.54 4.54 0 00-2.15 3.12c-.19 1.24.19 2.59 1.15 4.05a12.4 12.4 0 003.98 3.71 17.52 17.52 0 005.68 2.17c2.08.41 4.22.5 6.41.24 1.86-.22 3.44-.63 4.68-1.25a6.44 6.44 0 002.74-2.27l-3.12-1.22a5.1 5.1 0 01-2.06 1.68c-.92.45-2.04.75-3.36.91-1.98.23-3.91.04-5.77-.59a10.45 10.45 0 01-4.57-2.84l17.49-2.07a14.15 14.15 0 00-6.87-6.16 17.37 17.37 0 00-9.14-1.12"/>
    <path d="M1349.35 853.88c-2.17.26-3.87.8-5.11 1.64a4.48 4.48 0 00-2.16 3.1c-.18 1.26.2 2.6 1.16 4.06.96 1.44 2.28 2.68 3.97 3.7s3.57 1.74 5.65 2.17c2.09.43 4.2.52 6.37.26a14.9 14.9 0 004.81-1.28 5.3 5.3 0 002.54-2.38l-3.21-1.24c-.36.69-1 1.25-1.94 1.7-.92.45-2.11.76-3.53.93-1.44.17-2.83.1-4.23-.21-1.39-.29-2.66-.8-3.8-1.51a8.6 8.6 0 01-2.73-2.59c-.69-1.04-.97-1.97-.83-2.83.12-.86.59-1.56 1.44-2.12.84-.57 2-.93 3.46-1.1 2.45-.29 4.94.02 7.43.95l.96-2.04c-1.49-.6-3.1-1-4.83-1.2a21.36 21.36 0 00-5.42-.01"/>
    <path d="M1366.49 848.21l-3.93.47 2.63 3.97-3.16.37 1.31 1.98 3.16-.37 5.41 8.18a7.42 7.42 0 003.71 2.96c1.55.58 3.22.75 4.96.55a9.07 9.07 0 004.49-1.7l-2.39-1.88c-.92.6-1.9.97-2.96 1.1-.89.11-1.69.01-2.38-.29a4.28 4.28 0 01-1.82-1.68l-5.09-7.69 6.78-.8-1.31-1.98-6.78.8-2.63-3.99"/>
  </g>
  <g id="t4_2" fill="#FFF">
    <polyline points="769.29 922.14 765.26 922.61 767.21 935.52 753 924.05 748.94 924.52 750.87 937.44 736.63 925.97 732.58 926.44 750.52 940.25 754.6 939.78 753.02 927.43 766.82 938.34 770.87 937.87 769.29 922.14"/>
    <path d="M773.11 915.27l-3.91.46 13.68 20.73 3.91-.46-4.79-7.26c-1-1.51-1.2-2.82-.55-3.91.63-1.09 2-1.78 4.16-2.05 1.84-.22 3.5-.04 4.99.53a7.08 7.08 0 013.51 2.74l5.57 8.44 3.91-.46-6.03-9.13a10.36 10.36 0 00-5.02-3.95 14.5 14.5 0 00-7.1-.81c-4.14.54-6.25 1.95-6.3 4.26l-6.03-9.13"/>
    <path d="M806.71 924.64c-.65-1.36-.56-2.51.22-3.43.78-.94 2.14-1.52 4.1-1.75 2.03-.24 3.91-.04 5.64.59a8.7 8.7 0 014.1 2.94l-14.06 1.65m2.88-7.33a11.7 11.7 0 00-5.11 1.63 4.65 4.65 0 00-2.16 3.11c-.2 1.24.18 2.59 1.15 4.05a12.39 12.39 0 003.97 3.72 17.66 17.66 0 005.67 2.18c2.1.41 4.24.5 6.4.25a14.2 14.2 0 004.68-1.24 6.31 6.31 0 002.74-2.27l-3.12-1.23a5.19 5.19 0 01-2.06 1.68c-.92.45-2.04.75-3.34.9-2 .23-3.91.04-5.79-.59a10.64 10.64 0 01-4.57-2.85l17.52-2.05c-.1-.19-.29-.47-.54-.85a14.21 14.21 0 00-6.35-5.32c-2.62-1.15-5.67-1.52-9.09-1.12"/>
    <path d="M837.1 914.08c-1.85.23-3.24.7-4.22 1.41a3.42 3.42 0 00-1.51 2.78l-2.09-3.17-3.89.46 9.75 14.77 3.89-.46-5.14-7.79c-.72-1.44-.69-2.66.17-3.66.79-.94 2.25-1.54 4.35-1.78l.36-.04-1.67-2.52"/>
    <path d="M847.31 919.88c-.62-1.37-.54-2.51.25-3.43.78-.94 2.14-1.52 4.1-1.75 2-.23 3.89-.03 5.62.59a8.6 8.6 0 014.1 2.94l-14.07 1.65m2.88-7.33c-2.14.25-3.83.8-5.11 1.63a4.65 4.65 0 00-2.16 3.11c-.17 1.24.21 2.58 1.17 4.04a12.52 12.52 0 003.95 3.72 17.93 17.93 0 005.67 2.18c2.1.41 4.24.5 6.43.24 1.86-.22 3.42-.62 4.66-1.24a6.45 6.45 0 002.76-2.27l-3.12-1.23a5.25 5.25 0 01-2.06 1.68 13.09 13.09 0 01-9.13.31 10.52 10.52 0 01-4.57-2.85l17.5-2.05a14.37 14.37 0 00-6.86-6.17 17.75 17.75 0 00-9.13-1.1"/>
    <path d="M879.4 905.48l-3.93.46 2.62 3.98-3.13.37 1.31 1.98 3.13-.37 5.4 8.19a7.45 7.45 0 003.71 2.97c1.55.58 3.21.76 4.98.55a9.03 9.03 0 004.47-1.69l-2.36-1.89c-.92.6-1.92.97-2.98 1.09-.89.1-1.69.01-2.38-.3a4.53 4.53 0 01-1.82-1.68l-5.08-7.7 6.78-.8-1.31-1.98-6.78.8-2.63-3.98"/>
    <path d="M893.75 901.13l-3.89.46 13.68 20.73 3.89-.46-4.79-7.26c-1-1.51-1.18-2.82-.55-3.91.63-1.09 2.02-1.78 4.16-2.05 1.84-.22 3.52-.04 5.02.53 1.5.59 2.69 1.5 3.51 2.74l5.57 8.44 3.89-.46-6.03-9.13a10.33 10.33 0 00-4.99-3.95 14.62 14.62 0 00-7.13-.81c-4.11.53-6.22 1.95-6.3 4.26l-6.04-9.13"/>
    <path d="M927.35 910.49c-.62-1.37-.54-2.51.25-3.43.78-.94 2.14-1.52 4.1-1.75 2-.23 3.89-.03 5.62.59a8.6 8.6 0 014.1 2.94l-14.07 1.65m2.88-7.33c-2.14.25-3.83.8-5.09 1.63a4.61 4.61 0 00-2.18 3.12c-.17 1.24.21 2.58 1.17 4.04a12.52 12.52 0 003.95 3.72 17.93 17.93 0 005.67 2.18c2.1.41 4.24.5 6.43.24 1.86-.22 3.42-.62 4.68-1.24a6.42 6.42 0 002.74-2.27l-3.12-1.23a5.25 5.25 0 01-2.06 1.68 13.09 13.09 0 01-9.13.31 10.52 10.52 0 01-4.57-2.85l17.5-2.05a14.37 14.37 0 00-6.86-6.17 17.64 17.64 0 00-9.13-1.11"/>
    <path d="M963.17 899.4l-3.98.47 1.14 12.61-14.85-11.01-4.1.48 18.79 13.52.05 1.42c-.02 1.36-.84 2.15-2.51 2.34-1.01.12-2.16 0-3.43-.36l-.32 2.24c.97.31 1.91.5 2.83.6.9.1 1.84.09 2.78-.02 1.55-.18 2.73-.63 3.5-1.34a3.5 3.5 0 001.08-2.9l-.98-18.05"/>
    <polyline points="1010.8 893.81 1006.78 894.29 1008.7 907.2 994.51 895.73 990.46 896.2 992.38 909.11 978.14 897.65 974.09 898.12 992.03 911.93 996.08 911.46 994.53 899.11 1008.33 910.02 1012.38 909.55 1010.8 893.81"/>
    <path d="M1031.23 905.05a12.95 12.95 0 01-8.16-1.76 8.98 8.98 0 01-2.75-2.62c-.66-1.01-.96-1.95-.84-2.81.12-.86.57-1.59 1.41-2.16.83-.59 1.98-.96 3.42-1.13s2.85-.1 4.28.23c1.42.31 2.73.83 3.86 1.55a8.82 8.82 0 012.73 2.59c.67 1.02.97 1.97.86 2.84-.08.87-.57 1.59-1.41 2.16-.83.57-1.96.94-3.4 1.11m-8.41-12.75c-2.21.26-3.98.81-5.28 1.65a4.62 4.62 0 00-2.28 3.11c-.23 1.23.15 2.57 1.11 4.03.96 1.46 2.3 2.71 4.01 3.73a18.22 18.22 0 005.77 2.17c2.13.43 4.32.51 6.53.25s3.96-.8 5.26-1.63a4.61 4.61 0 002.27-3.13c.22-1.24-.17-2.6-1.12-4.05a12 12 0 00-3.99-3.7 18.22 18.22 0 00-5.77-2.17 20.55 20.55 0 00-6.51-.26"/>
    <path d="M1051.39 888.95c-1.83.23-3.24.7-4.22 1.41a3.4 3.4 0 00-1.49 2.78l-2.09-3.17-3.91.46 9.75 14.77 3.91-.46-5.14-7.79c-.74-1.44-.69-2.66.15-3.66.79-.94 2.25-1.54 4.35-1.78l.36-.04-1.67-2.52"/>
    <polyline points="1055.85 882.11 1051.94 882.57 1065.62 903.3 1069.53 902.84 1066.76 898.65 1069.1 895.16 1080.91 901.51 1085.59 900.96 1070.58 892.97 1075.04 886.28 1070.5 886.81 1064.58 895.33 1055.85 882.11"/>
    <path d="M1084.96 892.01c-.62-1.37-.54-2.51.25-3.43.78-.94 2.14-1.52 4.1-1.75 2-.23 3.89-.03 5.62.59a8.75 8.75 0 014.12 2.94l-14.09 1.65m2.88-7.33c-2.14.25-3.83.8-5.09 1.63a4.59 4.59 0 00-2.16 3.11c-.2 1.24.18 2.59 1.15 4.05a12.39 12.39 0 003.97 3.72 17.48 17.48 0 005.67 2.18c2.08.42 4.21.5 6.4.25 1.86-.22 3.44-.62 4.68-1.24a6.31 6.31 0 002.74-2.27l-3.12-1.23a5.19 5.19 0 01-2.06 1.68 13.09 13.09 0 01-9.13.31 10.52 10.52 0 01-4.57-2.85l17.5-2.05a14.21 14.21 0 00-6.86-6.17 17.48 17.48 0 00-9.12-1.12"/>
    <path d="M1121.28 894.52a13.1 13.1 0 01-8.23-1.78c-1.16-.73-2.1-1.6-2.76-2.61s-.93-1.94-.82-2.82c.11-.88.59-1.61 1.42-2.2a7.34 7.34 0 013.43-1.15c1.44-.17 2.89-.08 4.31.22 1.43.32 2.73.83 3.9 1.56 1.16.73 2.1 1.6 2.77 2.62.66 1.01.94 1.96.83 2.83-.11.88-.6 1.59-1.43 2.18-.85.6-1.99.98-3.42 1.15m-.93-19.97l-3.89.46 5.86 8.88a14.95 14.95 0 00-4.84-1.87c-1.78-.35-3.6-.42-5.51-.2-2.07.24-3.69.79-4.88 1.6a4.28 4.28 0 00-2 3.08c-.15 1.24.25 2.58 1.21 4.02a12.68 12.68 0 003.93 3.77 17.07 17.07 0 005.51 2.23c2.03.46 4.1.57 6.2.32 1.86-.22 3.33-.68 4.39-1.38a4 4 0 001.86-2.67l1.94 2.94 3.89-.46-13.67-20.72"/>
    <path d="M1160.63 889.87a12.95 12.95 0 01-8.16-1.76 8.98 8.98 0 01-2.75-2.62c-.66-1.01-.96-1.95-.84-2.81.12-.86.57-1.59 1.41-2.16a7.38 7.38 0 013.42-1.13c1.44-.17 2.85-.1 4.28.23 1.42.31 2.71.83 3.86 1.55s2.06 1.59 2.73 2.59c.67 1.02.97 1.97.86 2.84s-.57 1.59-1.41 2.16c-.84.58-1.96.95-3.4 1.11m-8.41-12.74c-2.21.26-3.98.81-5.28 1.65a4.62 4.62 0 00-2.28 3.11c-.23 1.23.15 2.57 1.11 4.03.96 1.46 2.3 2.71 4.01 3.73a18.22 18.22 0 005.77 2.17c2.13.43 4.32.51 6.53.25s3.96-.8 5.26-1.63 2.06-1.88 2.27-3.13c.22-1.24-.17-2.6-1.12-4.05a12 12 0 00-3.99-3.7 18.22 18.22 0 00-5.77-2.17c-2.13-.44-4.3-.52-6.51-.26"/>
    <path d="M1181.33 873.72c-4.09.53-6.21 1.93-6.28 4.21l-2.06-3.13-3.91.46 9.75 14.77 3.91-.46-5.22-7.9c-.71-1.34-.72-2.51-.04-3.48.71-.96 2.05-1.58 4.02-1.83a10.5 10.5 0 015.02.53 7.2 7.2 0 013.48 2.74l5.57 8.44 3.91-.46-6.03-9.13a10.42 10.42 0 00-4.99-3.95 14.39 14.39 0 00-7.13-.81"/>
    <path d="M1222.62 882.69a9.51 9.51 0 01-3.93-.27 4.33 4.33 0 01-2.49-1.66c-.51-.77-.45-1.37.16-1.83.62-.45 1.81-.79 3.58-1l6.48-.76.99 1.49c.37.99.14 1.86-.75 2.59-.9.75-2.23 1.23-4.04 1.44m-6.42-13.06c-1.88.22-3.38.57-4.53 1.02a14.64 14.64 0 00-3.43 2.03l2.8 1.59a10.93 10.93 0 015.78-2.39c1.84-.22 3.44-.1 4.78.35a5.63 5.63 0 013.03 2.25l.47.71-7.04.83c-2.6.32-4.39.96-5.34 1.9-.95.94-.99 2.08-.12 3.4.57.86 1.38 1.6 2.48 2.22 1.06.6 2.32 1.05 3.73 1.31 1.44.25 2.9.29 4.43.11 3.51-.41 5.62-1.44 6.31-3.09l1.37 2.07 3.84-.45-6.44-9.72a9.43 9.43 0 00-4.81-3.52 16.16 16.16 0 00-7.31-.62"/>
    <path d="M1262.79 877.83a12.77 12.77 0 01-8.17-1.77 8.8 8.8 0 01-2.74-2.61 4.18 4.18 0 01-.83-2.8c.13-.88.6-1.59 1.43-2.18a7.61 7.61 0 013.4-1.11c1.41-.17 2.83-.09 4.25.21 1.41.33 2.68.84 3.87 1.56a8.82 8.82 0 012.74 2.57 4.3 4.3 0 01.84 2.81 3.1 3.1 0 01-1.39 2.2c-.84.58-1.99.95-3.4 1.12m-7.62-12.77c-1.84.22-3.29.67-4.36 1.310s-1.68 1.57-1.85 2.62l-1.93-2.92-3.91.46 13.33 20.19 3.91-.46-5.52-8.36c1.44.88 3.04 1.49 4.83 1.86 1.76.35 3.57.41 5.45.19a11 11 0 004.87-1.57 4.24 4.24 0 001.99-3.06c.15-1.24-.28-2.57-1.24-4.04a12.66 12.66 0 00-3.9-3.76 17.16 17.16 0 00-5.51-2.2 17.97 17.97 0 00-6.16-.31"/>
    <path d="M1283.01 861.79c-1.83.23-3.24.7-4.2 1.41a3.42 3.42 0 00-1.51 2.78l-2.09-3.17-3.89.46 9.75 14.77 3.89-.46-5.14-7.79c-.74-1.44-.69-2.66.15-3.66.82-.95 2.25-1.54 4.35-1.78l.36-.04-1.67-2.52"/>
    <path d="M1304.86 872.96c-1.46.17-2.9.1-4.32-.2-1.42-.31-2.7-.82-3.86-1.55a9.21 9.21 0 01-2.75-2.62 4.3 4.3 0 01-.84-2.81c.12-.86.57-1.59 1.41-2.16a7.38 7.38 0 013.44-1.13c1.41-.17 2.83-.09 4.28.23 1.4.31 2.71.83 3.86 1.55a8.74 8.74 0 012.7 2.6 4.5 4.5 0 01.89 2.84c-.11.88-.6 1.59-1.41 2.16-.86.55-1.98.92-3.4 1.09m-8.41-12.75c-2.24.26-4.01.81-5.3 1.65-1.3.83-2.07 1.87-2.26 3.11-.23 1.23.13 2.58 1.09 4.04a12.22 12.22 0 004.03 3.73 17.83 17.83 0 005.75 2.17c2.13.43 4.32.51 6.56.25 2.19-.26 3.96-.8 5.26-1.63a4.67 4.67 0 002.25-3.13c.22-1.24-.15-2.61-1.1-4.05a11.94 11.94 0 00-4.01-3.69 18.28 18.28 0 00-5.75-2.17 20.37 20.37 0 00-6.52-.28"/>
    <path d="M1317.15 857.89l-3.93.46 9.99 15.13c.64.97.85 1.75.61 2.32-.21.53-.84.88-1.85 1l-.09.01c-.74.04-1.48.02-2.19-.05l.39 2.09c1.52.19 2.88.2 4.15.06 2-.23 3.29-.83 3.84-1.79.56-.96.32-2.2-.68-3.73l-10.24-15.5m-5.91-5.67c-.71.08-1.17.31-1.42.69-.24.37-.22.79.11 1.27.32.49.82.85 1.48 1.13.68.26 1.35.35 2.05.27s1.17-.31 1.43-.68c.23-.38.21-.8-.12-1.29a3.02 3.02 0 00-1.47-1.11 3.96 3.96 0 00-2.06-.28"/>
    <path d="M1330.24 863.24c-.62-1.37-.54-2.51.25-3.43.78-.94 2.14-1.52 4.1-1.75 2-.23 3.89-.03 5.62.59a8.6 8.6 0 014.1 2.94l-14.07 1.65m2.88-7.33c-2.14.25-3.83.8-5.09 1.63a4.61 4.61 0 00-2.18 3.12c-.17 1.24.21 2.58 1.17 4.04a12.52 12.52 0 003.95 3.72 17.93 17.93 0 005.67 2.18c2.1.41 4.24.5 6.43.25 1.86-.22 3.42-.62 4.68-1.24a6.42 6.42 0 002.74-2.27l-3.12-1.23a5.25 5.25 0 01-2.06 1.68 13.09 13.09 0 01-9.13.31 10.52 10.52 0 01-4.57-2.85l17.5-2.05a14.37 14.37 0 00-6.86-6.17 17.53 17.53 0 00-9.13-1.12"/>
    <path d="M1357.73 853.03c-2.14.25-3.84.79-5.09 1.63-1.26.82-2 1.86-2.17 3.1-.18 1.26.19 2.6 1.16 4.06a12.19 12.19 0 003.96 3.7 17.55 17.55 0 005.65 2.18c2.09.43 4.2.52 6.34.27a15.1 15.1 0 004.84-1.28 5.38 5.38 0 002.54-2.38l-3.21-1.25a4 4 0 01-1.95 1.7c-.95.45-2.11.76-3.53.92-1.44.17-2.85.1-4.23-.22a11.94 11.94 0 01-3.82-1.52 8.93 8.93 0 01-2.73-2.59c-.68-1.04-.95-1.97-.83-2.83.14-.86.62-1.56 1.47-2.12.84-.57 2-.93 3.46-1.1 2.45-.29 4.92.03 7.43.96l.96-2.04a18.6 18.6 0 00-4.83-1.21c-1.74-.21-3.54-.2-5.42.02"/>
    <path d="M1374.88 847.38l-3.93.46 2.62 3.98-3.13.37 1.31 1.98 3.13-.37 5.4 8.19a7.42 7.42 0 003.73 2.97c1.55.58 3.19.76 4.96.55s3.25-.77 4.47-1.69l-2.36-1.89c-.92.6-1.92.97-2.98 1.09-.89.1-1.67.01-2.35-.3a4.32 4.32 0 01-1.84-1.68l-5.08-7.7 6.81-.8-1.31-1.98-6.81.8-2.64-3.98"/>
  </g>
  <path id="hl5" fill="#C94C43" d="M1647.73 1190.4l-783.14 82.31c-10.33 1.09-15.14 7.66-10.68 14.6l16.71 25.99c4.47 6.95 16.59 11.75 26.92 10.66l783.14-82.31c10.35-1.09 15.16-7.66 10.69-14.62l-16.71-25.99c-4.46-6.93-16.58-11.73-26.93-10.64"/>
  <g id="t5" fill="#000">
    <polyline points="923.83 1286.09 919.84 1286.51 921.62 1299.46 907.56 1287.8 903.48 1288.23 905.28 1301.18 891.17 1289.52 887.09 1289.95 904.89 1303.98 908.95 1303.55 907.55 1291.2 921.18 1302.26 925.26 1301.84 923.85 1286.11 923.83 1286.09"/>
    <polyline points="960.54 1282.23 956.56 1282.65 958.34 1295.6 944.27 1283.94 940.22 1284.37 942 1297.32 927.88 1285.67 923.83 1286.09 923.85 1286.11 941.6 1300.12 945.66 1299.69 944.27 1287.34 957.92 1298.4 961.98 1297.98 960.59 1282.27 960.54 1282.23"/>
    <polyline points="997.3 1278.37 993.27 1278.79 995.07 1291.74 980.99 1280.08 976.93 1280.51 978.71 1293.46 964.6 1281.81 960.54 1282.23 960.59 1282.27 978.32 1296.26 982.4 1295.83 980.98 1283.48 994.64 1294.54 998.69 1294.12 997.3 1278.37"/>
    <path d="M1008.4 1289.92c-.64.07-1.11.27-1.37.62-.25.35-.22.75.08 1.23.31.48.76.83 1.41 1.1.64.25 1.31.35 1.95.29.64-.07 1.08-.28 1.31-.63.24-.36.21-.77-.09-1.24a2.85 2.85 0 00-1.4-1.09 3.76 3.76 0 00-1.89-.28"/>
    <polyline points="1009.13 1270.72 1005.23 1271.13 1018.66 1292.02 1022.55 1291.61 1009.13 1270.72"/>
    <path d="M1024.73 1275.49l-3.91.41 9.57 14.89 3.91-.41-9.57-14.89m-5.8-5.73c-.71.07-1.17.29-1.44.66-.24.36-.22.8.09 1.28.32.49.82.88 1.47 1.15.68.27 1.34.37 2.05.29.71-.07 1.17-.29 1.44-.66.24-.36.22-.8-.1-1.29a3.1 3.1 0 00-1.46-1.13 4.04 4.04 0 00-2.05-.3"/>
    <path d="M1044.57 1273.3c-4.1.48-6.21 1.85-6.33 4.13l-2.03-3.15-3.91.41 9.57 14.89 3.91-.41-5.12-7.97c-.69-1.35-.68-2.5.01-3.47.71-.97 2.06-1.57 4.03-1.79 1.84-.19 3.5 0 5.02.61a7.04 7.04 0 013.44 2.77l5.47 8.51 3.91-.41-5.92-9.2a10.36 10.36 0 00-4.94-4.01 14.5 14.5 0 00-7.11-.91"/>
    <path d="M1077.41 1283.59a12.87 12.87 0 01-8.21-1.87 8.57 8.57 0 01-2.69-2.63 4.24 4.24 0 01-.82-2.84 3.2 3.2 0 011.44-2.18 7.36 7.36 0 013.45-1.09 12.9 12.9 0 018.17 1.86 8.79 8.79 0 012.75 2.67c.65 1.01.9 1.95.78 2.83-.12.87-.61 1.6-1.45 2.16-.82.59-1.98.94-3.42 1.09m-.68-19.98l-3.89.41 5.75 8.95a15.13 15.13 0 00-4.81-1.93 17.65 17.65 0 00-5.5-.25c-2.05.22-3.69.73-4.91 1.53-1.2.8-1.88 1.82-2.04 3.05s.22 2.58 1.16 4.04a12.79 12.79 0 003.89 3.82 17.46 17.46 0 005.49 2.31c2.04.48 4.09.6 6.19.38 1.86-.2 3.34-.64 4.41-1.33a3.86 3.86 0 001.9-2.65l1.9 2.96 3.89-.41-13.43-20.88"/>
    <path d="M1094.3 1275.06c-.62-1.36-.52-2.5.26-3.43.81-.93 2.18-1.5 4.14-1.7 2-.21 3.89.01 5.61.66a8.7 8.7 0 014.06 2.99l-14.07 1.48m2.97-7.3c-2.17.23-3.87.76-5.12 1.59s-1.98 1.85-2.19 3.09c-.22 1.22.14 2.57 1.09 4.04a12.24 12.24 0 003.93 3.76 17.79 17.79 0 005.65 2.25c2.11.46 4.24.57 6.41.34 1.89-.2 3.44-.6 4.7-1.19a6.54 6.54 0 002.76-2.25l-3.08-1.27a5.15 5.15 0 01-2.11 1.66c-.93.44-2.05.72-3.35.86-1.98.21-3.91-.01-5.78-.64a10.65 10.65 0 01-4.52-2.92l17.52-1.84a14.23 14.23 0 00-6.82-6.25 17.4 17.4 0 00-9.09-1.23"/>
    <path d="M1130.56 1278.01c-1.46.15-2.88.07-4.3-.27a12.14 12.14 0 01-3.88-1.6 8.55 8.55 0 01-2.72-2.62c-.65-1.01-.94-1.96-.79-2.84.12-.87.61-1.6 1.44-2.18.84-.58 1.97-.93 3.43-1.09s2.88-.07 4.29.26c1.43.34 2.73.88 3.88 1.6a8.58 8.58 0 012.75 2.67c.65 1.01.93 1.95.78 2.83-.12.87-.61 1.6-1.45 2.16-.83.57-1.96.92-3.43 1.08m-.66-19.99l-3.91.41 5.75 8.95a15.13 15.13 0 00-4.81-1.93 17.62 17.62 0 00-5.5-.25c-2.05.22-3.69.73-4.88 1.53a4.2 4.2 0 00-2.04 3.05c-.16 1.23.22 2.58 1.16 4.04.96 1.49 2.25 2.76 3.89 3.82s3.45 1.84 5.49 2.31c2.02.48 4.06.6 6.16.38 1.89-.2 3.34-.64 4.41-1.33a3.86 3.86 0 001.9-2.65l1.9 2.96 3.91-.41-13.43-20.88"/>
    <path d="M1145.48 1262.8l-3.89.41 9.57 14.89 3.89-.41-9.57-14.89m-5.78-5.74c-.71.07-1.17.29-1.44.610s-.22.8.09 1.28a3 3 0 001.47 1.15c.68.27 1.34.37 2.05.29.68-.07 1.17-.29 1.44-.66.24-.36.22-.8-.1-1.29a3.1 3.1 0 00-1.46-1.13 4.28 4.28 0 00-2.05-.3"/>
    <path d="M1165.34 1260.61c-4.12.48-6.23 1.86-6.35 4.13l-2.03-3.15-3.89.41 9.57 14.89 3.89-.41-5.12-7.97c-.69-1.35-.68-2.5.04-3.47.71-.97 2.04-1.57 4.01-1.79 1.86-.2 3.53 0 5.04.6a7.04 7.04 0 013.44 2.77l5.47 8.51 3.89-.41-5.92-9.2a10.24 10.24 0 00-4.95-4.01 14.4 14.4 0 00-7.09-.9"/>
    <path d="M1188.91 1270.95c-.64.07-1.11.27-1.37.62-.25.35-.22.75.08 1.23s.76.83 1.41 1.1c.64.25 1.31.35 1.95.29.64-.07 1.08-.28 1.31-.63.24-.36.21-.77-.09-1.24a2.85 2.85 0 00-1.4-1.09 3.66 3.66 0 00-1.89-.28"/>
    <path d="M1198.21 1257.15c-2.17.23-3.87.76-5.13 1.57a4.42 4.42 0 00-2.19 3.09c-.21 1.24.15 2.59 1.1 4.06a12.18 12.18 0 003.92 3.75 17.9 17.9 0 005.62 2.25c2.08.46 4.21.59 6.37.36 1.96-.21 3.55-.63 4.82-1.23a5.23 5.23 0 002.57-2.35l-3.19-1.29a4.08 4.08 0 01-1.97 1.68c-.93.44-2.11.75-3.53.89a12.45 12.45 0 01-8-1.85 8.54 8.54 0 01-2.69-2.62c-.66-1.03-.95-1.98-.79-2.84.14-.84.61-1.55 1.47-2.1s2.01-.9 3.47-1.06c2.45-.26 4.94.09 7.42 1.05l1-2.02a17.88 17.88 0 00-4.83-1.28 24.07 24.07 0 00-5.44-.06"/>
    <path d="M1229.39 1267.59c-1.46.15-2.9.07-4.32-.26a12.32 12.32 0 01-3.84-1.59 9.06 9.06 0 01-2.71-2.66 4.36 4.36 0 01-.81-2.82c.13-.86.63-1.57 1.44-2.15a7.63 7.63 0 013.45-1.09 12.9 12.9 0 018.12 1.87 8.9 8.9 0 012.69 2.63c.66 1.03.92 1.98.83 2.86a3.03 3.03 0 01-1.44 2.15c-.84.55-2 .91-3.41 1.06m-8.26-12.85c-2.24.24-4.01.78-5.32 1.59a4.61 4.61 0 00-2.3 3.08c-.23 1.24.11 2.59 1.04 4.05a12.07 12.07 0 003.99 3.77c1.7 1.04 3.59 1.79 5.72 2.24s4.32.58 6.56.34c2.22-.23 3.96-.77 5.27-1.59s2.06-1.84 2.29-3.1c.23-1.24-.11-2.59-1.05-4.07a12.13 12.13 0 00-3.97-3.74c-1.7-1.04-3.59-1.79-5.72-2.24s-4.29-.56-6.51-.33"/>
    <path d="M1266.57 1249.97c-4.36.51-6.43 2.06-6.22 4.66a11.08 11.08 0 00-4.53-2.47 14.62 14.62 0 00-5.73-.46c-4.03.47-6.08 1.82-6.19 4.08l-2.01-3.12-3.89.41 9.57 14.89 3.89-.41-4.72-7.35c-.97-1.5-1.14-2.79-.56-3.88.62-1.08 1.94-1.76 4.02-2.01 1.82-.19 3.46.02 4.94.63a7.28 7.28 0 013.4 2.79l5.47 8.51 3.94-.41-4.72-7.35c-.97-1.5-1.16-2.79-.58-3.88.59-1.08 1.92-1.76 3.99-2.01 1.79-.19 3.42.03 4.91.63a7.29 7.29 0 013.43 2.78l5.47 8.51 3.94-.41-5.92-9.2a10.39 10.39 0 00-4.91-4c-2.1-.89-4.44-1.2-6.99-.93"/>
    <polyline points="1288.64 1239.02 1285.24 1239.38 1289.06 1267.22 1292.44 1266.86 1288.64 1239.02"/>
    <path d="M1299.2 1246.64l-3.89.41 9.57 14.89 3.89-.41-9.57-14.89m-5.78-5.73c-.71.07-1.17.29-1.44.66-.27.37-.22.8.09 1.28.32.49.79.88 1.47 1.15s1.34.37 2.05.29c.71-.07 1.17-.29 1.44-.66.24-.36.22-.8-.1-1.29a3.1 3.1 0 00-1.46-1.13 4.02 4.02 0 00-2.05-.3"/>
    <path d="M1319.06 1244.45c-4.12.48-6.23 1.86-6.35 4.13l-2.03-3.15-3.89.41 9.57 14.89 3.89-.41-5.12-7.97c-.69-1.35-.68-2.5.04-3.47.71-.97 2.04-1.57 4.01-1.79 1.86-.2 3.53 0 5.02.61a6.99 6.99 0 013.46 2.76l5.47 8.51 3.89-.41-5.92-9.2a10.26 10.26 0 00-4.94-4.01 14.7 14.7 0 00-7.1-.9"/>
    <polyline points="1341.29 1233.49 1337.9 1233.85 1341.72 1261.68 1345.09 1261.33 1341.29 1233.49"/>
    <path d="M1354.09 1240.75c-2.26.24-3.93.78-5 1.62-1.06.86-1.14 1.98-.25 3.37.58.9 1.38 1.6 2.4 2.08 1.03.5 2.08.85 3.21 1.03 1.14.2 2.52.36 4.19.49 1.89.16 3.35.36 4.4.62 1.04.25 1.77.71 2.2 1.39.42.65.36 1.18-.22 1.58-.6.4-1.51.67-2.81.8-1.27.13-2.7.11-4.29-.09a19.62 19.62 0 01-4.28-.99l-.23 2.07c1.48.54 3.12.91 4.89 1.11 1.78.18 3.51.21 5.16.03 2.33-.25 4.07-.83 5.18-1.73 1.11-.89 1.2-2.05.3-3.45a5.9 5.9 0 00-2.52-2.2 12.58 12.58 0 00-3.33-1.07 51.8 51.8 0 00-4.35-.51 35.42 35.42 0 01-4.23-.55c-1.01-.23-1.69-.63-2.08-1.24-.39-.6-.33-1.1.22-1.46a5.8 5.8 0 012.55-.73c.99-.1 2.12-.1 3.37 0s2.46.3 3.62.58l.12-2.16a22.5 22.5 0 00-8.22-.59"/>
    <path d="M1382.07 1251.62a9.95 9.95 0 01-3.92-.3 4.31 4.31 0 01-2.48-1.7c-.49-.76-.43-1.38.19-1.81.61-.45 1.82-.77 3.59-.95l6.48-.68.96 1.49c.37 1.01.12 1.86-.78 2.58-.87.74-2.22 1.18-4.04 1.37m-6.25-13.14c-1.89.2-3.39.53-4.53.98a14.39 14.39 0 00-3.47 1.97l2.79 1.63a10.77 10.77 0 015.8-2.33c1.84-.19 3.44-.06 4.78.43a5.72 5.72 0 013 2.27l.46.71-7.05.74c-2.61.29-4.4.9-5.37 1.83-.96.93-1.01 2.07-.16 3.4a7.04 7.04 0 002.45 2.24c1.06.63 2.3 1.08 3.71 1.35 1.43.27 2.9.32 4.43.16 3.51-.37 5.64-1.37 6.35-3l1.33 2.07 3.84-.4-6.32-9.79a9.3 9.3 0 00-4.76-3.57 16.5 16.5 0 00-7.28-.69"/>
    <path d="M1403.31 1235.59a9.4 9.4 0 00-4.23 1.37 3.45 3.45 0 00-1.53 2.75l-2.06-3.2-3.89.41 9.57 14.89 3.89-.41-5.05-7.86c-.73-1.45-.66-2.67.19-3.66.81-.93 2.27-1.51 4.37-1.73l.36-.03-1.62-2.53"/>
    <path d="M1421.48 1247.48a9.95 9.95 0 01-3.92-.3 4.41 4.41 0 01-2.48-1.7c-.49-.76-.43-1.38.19-1.81.64-.46 1.82-.77 3.59-.95l6.48-.68.96 1.49c.4 1.01.12 1.86-.78 2.58-.88.74-2.23 1.18-4.04 1.37m-6.26-13.14c-1.86.2-3.39.53-4.53.98a14.39 14.39 0 00-3.47 1.97l2.79 1.63a10.77 10.77 0 015.8-2.33c1.84-.19 3.44-.06 4.78.43a5.72 5.72 0 013 2.27l.46.71-7.03.74c-2.63.29-4.43.91-5.39 1.83-.96.93-1.01 2.07-.16 3.4a7.04 7.04 0 002.45 2.24c1.06.63 2.3 1.08 3.74 1.35 1.41.27 2.88.32 4.41.16 3.51-.37 5.64-1.37 6.35-3l1.33 2.07 3.87-.41-6.34-9.78a9.18 9.18 0 00-4.76-3.57c-2.1-.74-4.54-.98-7.3-.69"/>
    <path d="M1431.25 1226.35l-3.89.41 13.43 20.89 3.89-.41-4.7-7.32c-.98-1.52-1.16-2.82-.51-3.92.64-1.08 2.02-1.75 4.18-1.99 1.84-.19 3.5 0 5.02.61a7.04 7.04 0 013.44 2.77l5.47 8.51 3.91-.41-5.92-9.2a10.36 10.36 0 00-4.94-4.01 14.77 14.77 0 00-7.12-.89c-4.14.49-6.25 1.87-6.35 4.18l-5.91-9.22"/>
    <path d="M1478.6 1241.34a12.8 12.8 0 01-4.26-.28 12.57 12.57 0 01-3.87-1.59 8.8 8.8 0 01-2.74-2.65 4.12 4.12 0 01-.76-2.79c.12-.87.61-1.6 1.45-2.16a7.25 7.25 0 013.38-1.08c1.44-.15 2.85-.06 4.26.28 1.42.32 2.7.87 3.85 1.61a8.72 8.72 0 012.7 2.59c.65 1.01.94 1.96.82 2.84a3.08 3.08 0 01-1.43 2.16c-.84.55-1.96.92-3.4 1.07m-19.48-17.92l-3.89.41 13.43 20.89 3.89-.41-1.9-2.96c1.43.9 3.05 1.54 4.8 1.91 1.77.37 3.6.47 5.46.27a10.9 10.9 0 004.91-1.53c1.2-.8 1.89-1.8 2.03-3.04.14-1.23-.25-2.58-1.18-4.04a12.58 12.58 0 00-3.88-3.8 16.87 16.87 0 00-5.49-2.28c-2.03-.46-4.09-.6-6.14-.39-1.86.2-3.32.64-4.4 1.31a3.77 3.77 0 00-1.88 2.6l-5.76-8.94"/>
    <path d="M1502.12 1239.01a9.79 9.79 0 01-3.89-.3 4.31 4.31 0 01-2.48-1.7c-.49-.76-.43-1.38.19-1.81.61-.45 1.8-.76 3.57-.95l6.51-.68.96 1.49c.37 1.01.12 1.86-.78 2.58-.89.73-2.26 1.18-4.08 1.37m-6.26-13.14c-1.86.2-3.39.53-4.53.98a14.77 14.77 0 00-3.47 1.97l2.81 1.63a10.71 10.71 0 015.8-2.33c1.84-.19 3.41-.05 4.76.43a5.69 5.69 0 013.02 2.27l.46.71-7.05.74c-2.63.29-4.4.9-5.39 1.83-.96.93-1.01 2.07-.16 3.4a7.22 7.22 0 002.45 2.24c1.08.63 2.33 1.07 3.74 1.35 1.41.27 2.88.32 4.41.16 3.54-.37 5.64-1.37 6.35-3l1.33 2.07 3.87-.41-6.34-9.78a9.14 9.14 0 00-4.76-3.57 16.3 16.3 0 00-7.3-.69"/>
    <path d="M1540.22 1221.21c-4.36.51-6.43 2.06-6.22 4.66a11.13 11.13 0 00-4.51-2.47c-1.8-.52-3.71-.68-5.73-.46-4.03.47-6.1 1.82-6.21 4.09l-2.01-3.12-3.89.41 9.57 14.89 3.89-.41-4.72-7.35c-.97-1.5-1.14-2.79-.53-3.88.59-1.08 1.92-1.76 3.99-2.01 1.82-.19 3.46.02 4.94.63a7.18 7.18 0 013.4 2.79l5.47 8.51 3.94-.41-4.72-7.35c-.97-1.5-1.16-2.79-.58-3.88.59-1.08 1.92-1.76 3.99-2.01 1.79-.19 3.44.03 4.91.63s2.62 1.53 3.43 2.78l5.47 8.51 3.94-.41-5.92-9.2a10.39 10.39 0 00-4.91-4 13.84 13.84 0 00-6.99-.94"/>
    <path d="M1559.31 1219.3l-3.89.41 9.57 14.89 3.89-.41-9.57-14.89m-5.78-5.73c-.71.07-1.17.29-1.44.610s-.22.8.09 1.28a3 3 0 001.47 1.15c.68.27 1.34.37 2.05.29.68-.07 1.17-.29 1.44-.66.24-.36.22-.8-.1-1.29a3.1 3.1 0 00-1.46-1.13 4.05 4.05 0 00-2.05-.3"/>
    <path d="M1584.38 1230.31c-1.46.15-2.88.07-4.3-.27a12.14 12.14 0 01-3.88-1.6c-1.18-.74-2.07-1.61-2.72-2.62s-.94-1.96-.79-2.84c.12-.87.61-1.6 1.44-2.18a7.39 7.39 0 013.43-1.09 12.86 12.86 0 018.17 1.86 8.58 8.58 0 012.75 2.67c.65 1.01.93 1.95.78 2.83-.12.87-.61 1.6-1.45 2.16-.83.57-1.97.93-3.43 1.08m-.66-19.98l-3.91.41 5.75 8.95a15.13 15.13 0 00-4.81-1.93 17.62 17.62 0 00-5.5-.25c-2.05.22-3.69.73-4.88 1.53a4.15 4.15 0 00-2.04 3.05c-.16 1.23.22 2.58 1.16 4.04a12.79 12.79 0 003.89 3.82 18.18 18.18 0 0011.65 2.69c1.89-.2 3.34-.64 4.41-1.33a3.86 3.86 0 001.9-2.65l1.9 2.96 3.91-.41-13.43-20.88"/>
    <path d="M1601.27 1221.77c-.6-1.36-.52-2.5.29-3.43.79-.93 2.16-1.5 4.12-1.7 2-.21 3.89.01 5.61.66a8.65 8.65 0 014.06 2.99l-14.08 1.48m2.97-7.29c-2.15.23-3.87.76-5.12 1.59s-1.98 1.85-2.19 3.09c-.22 1.22.17 2.57 1.11 4.04a12.3 12.3 0 003.91 3.77 17.79 17.79 0 005.65 2.25c2.1.46 4.24.57 6.41.34 1.89-.2 3.44-.6 4.7-1.19a6.49 6.49 0 002.76-2.25l-3.08-1.27a5.15 5.15 0 01-2.11 1.66c-.93.44-2.03.72-3.35.86-1.98.21-3.91-.01-5.78-.64a10.74 10.74 0 01-4.52-2.92l17.52-1.84a14.4 14.4 0 00-6.79-6.25 17.26 17.26 0 00-9.12-1.24"/>
    <polyline points="1620.32 1206.48 1616.4 1206.89 1629.83 1227.78 1633.75 1227.37 1620.32 1206.48"/>
    <path d="M1637.87 1217.92c-.6-1.36-.52-2.5.29-3.43.79-.93 2.16-1.5 4.12-1.7 2-.21 3.89.01 5.61.66a8.7 8.7 0 014.06 2.99l-14.08 1.48m2.96-7.29c-2.15.23-3.87.76-5.12 1.59a4.57 4.57 0 00-2.19 3.09c-.22 1.22.17 2.57 1.11 4.04a12.3 12.3 0 003.91 3.77c1.68 1.04 3.54 1.79 5.65 2.25s4.24.57 6.41.34c1.89-.2 3.44-.6 4.7-1.19a6.54 6.54 0 002.76-2.25l-3.08-1.27a5.15 5.15 0 01-2.11 1.66c-.93.44-2.03.72-3.35.86-1.98.21-3.91-.01-5.78-.64a10.74 10.74 0 01-4.52-2.92l17.52-1.84a14.4 14.4 0 00-6.79-6.25 17.44 17.44 0 00-9.12-1.24"/>
  </g>
  <g id="t5_2" fill="#FFF">
    <polyline points="1100.48 1257.11 1091.73 1258.03 1107.41 1282.43 1116.16 1281.51 1114.77 1279.35 1109.54 1279.9 1096.62 1259.8 1101.85 1259.25 1100.48 1257.11"/>
    <polyline points="1110.39 1257.34 1106.36 1257.76 1119.03 1277.47 1135.89 1275.7 1134.31 1273.24 1121.48 1274.59 1110.39 1257.34"/>
    <path d="M1134.95 1259.9l-3.91.41 9.57 14.89 3.91-.41-9.57-14.89m-5.8-5.73c-.68.07-1.17.29-1.44.66-.24.36-.22.8.09 1.28.32.49.82.88 1.47 1.15a4.3 4.3 0 002.05.29c.71-.07 1.17-.29 1.44-.66.27-.37.22-.8-.1-1.29a2.96 2.96 0 00-1.46-1.13 4.05 4.05 0 00-2.05-.3"/>
    <path d="M1154.79 1257.71c-4.1.48-6.21 1.85-6.33 4.13l-2.03-3.15-3.89.41 9.57 14.89 3.89-.41-5.12-7.97c-.69-1.35-.67-2.5.04-3.47.69-.97 2.04-1.57 4.01-1.79 1.84-.19 3.53 0 5.02.61a7.08 7.08 0 013.46 2.76l5.47 8.51 3.89-.41-5.92-9.2a10.26 10.26 0 00-4.94-4.01 14.79 14.79 0 00-7.12-.9"/>
    <polyline points="1170.39 1249.77 1166.5 1250.17 1179.93 1271.07 1183.82 1270.66 1181.12 1266.44 1183.49 1262.97 1195.24 1269.46 1199.93 1268.96 1185.01 1260.79 1189.56 1254.16 1184.98 1254.64 1178.96 1263.09 1170.39 1249.77"/>
    <path d="M1199.41 1260.01c-.6-1.36-.5-2.5.29-3.43.79-.93 2.16-1.5 4.12-1.7 2-.21 3.89.01 5.61.610s3.1 1.65 4.06 2.99l-14.08 1.48m2.96-7.3a11.6 11.6 0 00-5.12 1.59 4.57 4.57 0 00-2.19 3.09c-.2 1.22.17 2.57 1.11 4.04a12.5 12.5 0 003.91 3.77 18.07 18.07 0 005.65 2.25c2.1.46 4.24.57 6.44.34 1.86-.2 3.42-.6 4.68-1.18a6.68 6.68 0 002.78-2.25l-3.1-1.26a5.05 5.05 0 01-2.08 1.66c-.93.44-2.05.72-3.37.86-1.98.21-3.91-.01-5.75-.65a10.63 10.63 0 01-4.55-2.92l17.52-1.84a14.4 14.4 0 00-6.79-6.25 17.47 17.47 0 00-9.14-1.25"/>
    <path d="M1235.67 1262.96c-1.44.15-2.88.07-4.3-.27a12.14 12.14 0 01-3.88-1.6c-1.16-.74-2.07-1.61-2.72-2.62s-.91-1.97-.79-2.84c.12-.87.61-1.6 1.44-2.18a7.35 7.35 0 013.43-1.09 13.06 13.06 0 018.2 1.86 8.79 8.79 0 012.75 2.67c.65 1.01.9 1.95.78 2.83a3.1 3.1 0 01-1.45 2.16c-.85.57-2 .93-3.46 1.08m-.67-19.98l-3.89.41 5.75 8.95a15.3 15.3 0 00-4.84-1.93 17.48 17.48 0 00-5.47-.25c-2.08.22-3.71.73-4.91 1.53a4.27 4.27 0 00-2.04 3.05c-.16 1.23.22 2.58 1.16 4.04a12.79 12.79 0 003.89 3.82 18.35 18.35 0 0011.68 2.69c1.86-.2 3.34-.64 4.39-1.32a3.95 3.95 0 001.92-2.65l1.9 2.96 3.89-.41-13.43-20.89"/>
    <polyline points="1248.01 1242.88 1243.97 1243.3 1256.64 1263 1260.67 1262.58 1248.01 1242.88"/>
    <path d="M1271.37 1245.46c-4.1.48-6.21 1.85-6.33 4.13l-2.03-3.15-3.89.41 9.57 14.89 3.89-.41-5.12-7.97c-.69-1.35-.68-2.5.04-3.47.69-.97 2.04-1.57 4.01-1.79 1.84-.19 3.53 0 5.02.61a7.08 7.08 0 013.46 2.76l5.47 8.51 3.89-.41-5.92-9.2a10.26 10.26 0 00-4.94-4.01 14.67 14.67 0 00-7.12-.9"/>
    <path d="M1317.44 1254.28a12.8 12.8 0 01-4.26-.28 12.57 12.57 0 01-3.87-1.59 8.8 8.8 0 01-2.74-2.65 4.12 4.12 0 01-.76-2.79c.12-.87.61-1.6 1.45-2.16a7.25 7.25 0 013.38-1.08c1.44-.15 2.85-.06 4.26.28 1.42.32 2.7.87 3.85 1.61s2.07 1.61 2.7 2.59c.65 1.01.94 1.96.82 2.84a3.08 3.08 0 01-1.43 2.16c-.84.55-1.96.92-3.4 1.07m-7.47-12.88c-1.84.19-3.29.63-4.37 1.31a3.77 3.77 0 00-1.88 2.6l-1.89-2.95-3.89.41 13.08 20.35 3.89-.41-5.42-8.43c1.43.9 3.05 1.54 4.8 1.91 1.77.37 3.6.47 5.46.27 2.08-.22 3.71-.73 4.91-1.53 1.2-.8 1.89-1.8 2.03-3.04.14-1.23-.25-2.58-1.18-4.04a12.58 12.58 0 00-3.88-3.8 16.87 16.87 0 00-5.49-2.28c-2.05-.45-4.1-.58-6.17-.37"/>
    <path d="M1337.86 1238.47a9.52 9.52 0 00-4.23 1.37 3.3 3.3 0 00-1.53 2.75l-2.06-3.2-3.91.41 9.57 14.89 3.91-.41-5.05-7.86c-.73-1.45-.66-2.67.19-3.66.81-.93 2.27-1.51 4.37-1.73l.36-.03-1.62-2.53"/>
    <path d="M1359.56 1249.9a12.9 12.9 0 01-8.13-1.85 8.72 8.72 0 01-2.71-2.66 4.2 4.2 0 01-.81-2.82c.1-.86.6-1.57 1.44-2.15a7.63 7.63 0 013.43-1.09 12.86 12.86 0 018.12 1.87 8.57 8.57 0 012.69 2.63c.66 1.03.95 1.98.83 2.85a3.03 3.03 0 01-1.44 2.15c-.85.57-1.98.92-3.42 1.07m-8.26-12.84c-2.24.24-3.98.77-5.3 1.59s-2.09 1.84-2.32 3.08.13 2.59 1.07 4.05c.96 1.49 2.26 2.74 3.96 3.78s3.61 1.78 5.74 2.24 4.3.58 6.54.34c2.22-.23 3.96-.77 5.27-1.59a4.56 4.56 0 002.31-3.1c.23-1.24-.13-2.59-1.08-4.06a12.05 12.05 0 00-3.94-3.75c-1.7-1.04-3.61-1.78-5.74-2.24s-4.29-.57-6.51-.34"/>
    <path d="M1386.24 1233.49l-3.89.41 9.57 14.89 3.89-.41-9.57-14.89m-5.78-5.74c-.71.07-1.17.29-1.44.66-.24.36-.22.8.09 1.28.32.49.82.88 1.47 1.15.68.27 1.34.37 2.05.29s1.17-.29 1.44-.66c.24-.36.22-.8-.1-1.29a3.1 3.1 0 00-1.46-1.13 4.25 4.25 0 00-2.05-.3m-8.33.63a8.24 8.24 0 00-3.23.97 3.13 3.13 0 00-1.59 1.99c-.2.83.05 1.8.74 2.88l1.04 1.62-2.9.3 1.28 2 2.9-.3 7.96 12.39 3.89-.41-7.96-12.39 6.13-.64-1.28-2-6.13.64-1.25-1.95c-.5-.78-.52-1.4-.13-1.88.42-.48 1.11-.78 2.13-.88.9-.09 1.94-.04 3.16.18l-.45-2.23a14.77 14.77 0 00-4.31-.29"/>
    <polyline points="1394.07 1226.26 1390.18 1226.67 1403.61 1247.56 1407.5 1247.15 1394.07 1226.26"/>
    <path d="M1411.65 1237.7c-.62-1.36-.52-2.5.26-3.43s2.16-1.5 4.12-1.7c2.03-.21 3.91.01 5.63.66a8.65 8.65 0 014.06 2.99l-14.07 1.48m2.96-7.3c-2.17.23-3.87.76-5.12 1.59a4.57 4.57 0 00-2.19 3.09c-.22 1.22.14 2.57 1.09 4.05a12.24 12.24 0 003.93 3.76 17.79 17.79 0 005.65 2.25c2.11.46 4.24.57 6.41.34 1.89-.2 3.44-.6 4.7-1.19a6.54 6.54 0 002.76-2.25l-3.08-1.27a5.15 5.15 0 01-2.11 1.66c-.93.44-2.05.72-3.35.86-2 .21-3.91-.01-5.78-.64a10.82 10.82 0 01-4.55-2.92l17.54-1.84a14.23 14.23 0 00-6.82-6.25c-2.6-1.19-5.66-1.59-9.08-1.24"/>
    <polyline points="1430.39 1222.44 1421.62 1223.36 1422.99 1225.5 1428.25 1224.95 1441.17 1245.05 1435.91 1245.6 1437.29 1247.75 1446.07 1246.83 1430.39 1222.44"/>
  </g>
</svg>
