<?xml version="1.0" encoding="utf-8"?>
<!-- Generator: Adobe Illustrator 25.0.0, SVG Export Plug-In . SVG Version: 6.00 Build 0)  -->
<svg version="1.1" id="Layer_1" xmlns="http://www.w3.org/2000/svg" xmlns:xlink="http://www.w3.org/1999/xlink" x="0px" y="0px"
	 viewBox="0 0 500 2570" style="enable-background:new 0 0 500 2570;" xml:space="preserve">
<style type="text/css">
	.st0{opacity:0.1;fill:#666666;enable-background:new    ;}
	.st1{fill:#808080;}
	.st2{opacity:0.2;enable-background:new    ;}
	.st3{fill:#2E6AA0;}
	.st4{fill:#3F3D54;}
	.st5{fill:#3D4543;}
	.st6{fill:#FFFFFF;}
	.st7{fill:none;}
	.st8{fill:#E5E5E5;}
	.st9{fill:#CBCBCB;}
	.st10{fill:#F1F1F1;}
</style>
<circle class="st0" cx="251.7" cy="2400.1" r="169.5"/>
<circle class="st0" cx="261.7" cy="2400.1" r="169.5"/>
<path class="st1" d="M237.9,2394.6H133.3c-0.1,0-0.3,0-0.4,0l49.5-85.7c0.9-1.7,3.1-2.3,4.7-1.3c0.5,0.3,1,0.8,1.3,1.3l33.2,57.5
	l1.6,2.8L237.9,2394.6z"/>
<polygon class="st2" points="237.9,2394.6 202.2,2394.6 219.7,2369.1 221,2367.3 221.6,2366.4 223.2,2369.1 "/>
<path class="st1" d="M296.1,2394.6h-90.5l17.5-25.5l1.3-1.8l22.8-33.2c1.5-2.2,5.1-2.3,6.9-0.4c0.1,0.1,0.2,0.3,0.3,0.4
	L296.1,2394.6z"/>
<circle class="st3" cx="322.7" cy="2374" r="6.4"/>
<polygon class="st4" points="323.3,2393.4 322,2393.4 322.6,2373.1 "/>
<polygon class="st4" points="322.7,2376.9 324.1,2375 322.7,2377.4 322.5,2377.1 "/>
<polygon class="st4" points="322.6,2378.9 321.1,2377 322.6,2379.4 322.7,2379.1 "/>
<circle class="st3" cx="334.3" cy="2367.8" r="9.5"/>
<polygon class="st4" points="335.2,2396.4 333.3,2396.4 334.2,2366.4 "/>
<polygon class="st4" points="334.3,2372.1 336.4,2369.2 334.3,2372.8 334.1,2372.4 "/>
<polygon class="st4" points="334.1,2375 332,2372.1 334.1,2375.7 334.4,2375.3 "/>
<circle class="st3" cx="357.4" cy="2367.8" r="9.5"/>
<polygon class="st4" points="358.4,2396.4 356.4,2396.4 357.3,2366.4 "/>
<polygon class="st4" points="357.5,2372.1 359.6,2369.2 357.4,2372.8 357.2,2372.4 "/>
<polygon class="st4" points="357.2,2375 355.2,2372.1 357.3,2375.7 357.5,2375.3 "/>
<circle class="st3" cx="304.4" cy="2364.8" r="9.5"/>
<polygon class="st4" points="305.3,2393.4 303.4,2393.4 304.3,2363.4 "/>
<polygon class="st4" points="304.5,2369.1 306.5,2366.2 304.4,2369.8 304.2,2369.4 "/>
<polygon class="st4" points="304.2,2372 302.1,2369.1 304.3,2372.7 304.5,2372.3 "/>
<path class="st5" d="M378.5,2492H144.2c-16.7,0-30.6-13.6-30.3-30.3c0.3-16.1,13.5-29.1,29.7-29.1h219.6c6.2,0,11.4-4.7,11.7-10.9
	c0.3-6.6-4.9-12-11.4-12H131.3c-5,0-9.1-4.1-9.1-9.1l0,0c0-5,4.1-9.1,9.1-9.1h232.3c16.4,0,29.7,13.3,29.7,29.7
	c0,16.4-11.7,29.7-28.1,29.7c0,0-1.6,0-1.6,0H143.9c-6.2,0-11.4,4.7-11.7,10.9c-0.3,6.6,4.9,12,11.4,12h234.9c5,0,9.1,4.1,9.1,9.1
	l0,0C387.7,2487.9,383.6,2492,378.5,2492z"/>
<rect x="148.4" y="2400.1" class="st6" width="14.2" height="0.9"/>
<rect x="188.6" y="2400.1" class="st6" width="14.2" height="0.9"/>
<rect x="228.8" y="2400.1" class="st6" width="14.2" height="0.9"/>
<rect x="269.1" y="2400.1" class="st6" width="14.2" height="0.9"/>
<rect x="309.3" y="2400.1" class="st6" width="14.2" height="0.9"/>
<rect x="342.5" y="2403.1" class="st6" width="14.2" height="0.9"/>
<rect x="148.4" y="2441.3" class="st6" width="14.2" height="0.9"/>
<rect x="188.6" y="2441.3" class="st6" width="14.2" height="0.9"/>
<rect x="228.8" y="2441.3" class="st6" width="14.2" height="0.9"/>
<rect x="269.1" y="2441.3" class="st6" width="14.2" height="0.9"/>
<rect x="309.3" y="2441.3" class="st6" width="14.2" height="0.9"/>
<rect x="342.5" y="2444.3" class="st6" width="14.2" height="0.9"/>
<rect x="148.4" y="2482.4" class="st6" width="14.2" height="0.9"/>
<rect x="188.6" y="2482.4" class="st6" width="14.2" height="0.9"/>
<rect x="228.8" y="2482.4" class="st6" width="14.2" height="0.9"/>
<rect x="269.1" y="2482.4" class="st6" width="14.2" height="0.9"/>
<rect x="309.3" y="2482.4" class="st6" width="14.2" height="0.9"/>
<rect x="342.5" y="2485.4" class="st6" width="14.2" height="0.9"/>
<path class="st7" d="M302.3,2325.3c-0.7-0.9-1.6-1.7-2.5-2.4h5.3C304,2323.5,303,2324.3,302.3,2325.3z"/>
<path class="st7" d="M285,2322.9h0.9c-0.2,0.1-0.4,0.3-0.6,0.4C285.2,2323.2,285.1,2323,285,2322.9z"/>
<path class="st8" d="M309.3,2321.8c1.5,0,3,0.4,4.3,1.1h-8.5C306.4,2322.2,307.8,2321.8,309.3,2321.8z"/>
<path class="st8" d="M292.8,2320.7c2.5,0,4.9,0.8,6.9,2.2h-13.9C287.9,2321.4,290.3,2320.7,292.8,2320.7z"/>
<path class="st6" d="M199.4,2306.8c0.7-12.4,11.3-21.9,23.8-21.2c9.6,0.5,17.9,7.2,20.4,16.5c0.3,0,0.5,0,0.8,0
	c10,0,18.8,6.6,21.6,16.2c6.6-2.9,14.4-1,18.9,4.7h-70.3c-8.4,0-15.3-6.8-15.3-15.2c0-0.2,0-0.4,0-0.6
	C199.4,2307,199.4,2306.9,199.4,2306.8z"/>
<path class="st7" d="M327.2,2344.7c0.7-0.9,1.6-1.7,2.5-2.4h-5.3C325.5,2342.9,326.4,2343.7,327.2,2344.7z"/>
<path class="st7" d="M301.4,2339h-0.9c0.2,0.1,0.4,0.3,0.6,0.4C301.2,2339.3,301.3,2339.2,301.4,2339z"/>
<path class="st8" d="M277.1,2337.9c-1.5,0-3,0.4-4.3,1.1h8.5C280,2338.3,278.5,2337.9,277.1,2337.9z"/>
<path class="st8" d="M293.5,2336.8c-2.5,0-4.9,0.8-6.9,2.2h13.9C298.5,2337.6,296,2336.8,293.5,2336.8z"/>
<path class="st6" d="M387,2322.9c-0.7-12.4-11.3-21.9-23.8-21.2c-9.6,0.5-17.9,7.2-20.4,16.5c-0.3,0-0.5,0-0.8,0
	c-10,0-18.8,6.6-21.6,16.2c-6.6-2.9-14.4-1-18.9,4.7h70.3c8.4,0,15.3-6.8,15.3-15.2c0-0.2,0-0.4,0-0.6
	C387,2323.2,387,2323,387,2322.9z"/>
<rect x="364.1" y="2480.9" class="st4" width="8.2" height="1.3"/>
<path class="st3" d="M312,2478.2l1.7,0.4l64.1,0l0.6-1.3c1-2.3,1.3-4.8,1-7.3c-0.3-1.9-1-3.7-2.5-4.5l-2.8-18.9l-35.4-0.1
	l-13.7,11.1c0,0-6.5-0.1-10,4.3c-1.3,1.6-2,3.6-2.1,5.7l-0.1,2.3L312,2478.2z"/>
<circle class="st4" cx="326.1" cy="2477.9" r="7.9"/>
<circle class="st9" cx="326.1" cy="2477.9" r="4.2"/>
<circle class="st4" cx="358.1" cy="2480.9" r="7.9"/>
<circle class="st9" cx="358.1" cy="2480.9" r="4.2"/>
<polygon class="st6" points="323.3,2459.2 342.4,2459.2 344.7,2459.2 348.7,2459.3 348.7,2459 348.7,2455.5 348.7,2451.6 
	346.1,2451.6 343.7,2451.6 339.6,2451.6 337.2,2451.6 332.5,2451.6 "/>
<polygon class="st6" points="351.8,2459.3 361.9,2459.3 361.9,2457.3 361.9,2453.8 361.9,2451.6 360.4,2451.6 358.1,2451.6 
	351.8,2451.6 "/>
<rect x="347.4" y="2465" class="st4" width="1.3" height="2.5"/>
<rect x="326" y="2461.4" class="st4" width="2.5" height="1.3"/>
<path class="st4" d="M327.5,2462h-0.1c-1.5,0-2.7-1.2-2.7-2.7l0,0c0-1.5,1.2-2.7,2.7-2.7h0.1l0,0L327.5,2462L327.5,2462z"/>
<path class="st4" d="M312.5,2469.7c2.3,0.3,4.4-1.4,4.6-3.7c0.2-1.8-0.7-3.4-2.3-4.2c-1.3,1.6-2,3.6-2.1,5.7L312.5,2469.7z"/>
<polygon class="st10" points="343.7,2451.6 348.7,2459 348.7,2455.5 346.1,2451.6 "/>
<polygon class="st10" points="358.1,2451.6 361.9,2457.3 361.9,2453.8 360.4,2451.6 "/>
<polygon class="st10" points="337.2,2451.6 342.4,2459.2 344.7,2459.2 339.6,2451.6 "/>
</svg>
