<?xml version="1.0" encoding="utf-8"?>
<!-- Generator: Adobe Illustrator 24.0.3, SVG Export Plug-In . SVG Version: 6.00 Build 0)  -->
<svg version="1.1" id="Layer_1" xmlns="http://www.w3.org/2000/svg" xmlns:xlink="http://www.w3.org/1999/xlink" x="0px" y="0px"
	 viewBox="0 0 500 2570" enable-background="new 0 0 500 2570" xml:space="preserve">
<title>all_steps</title>
<circle opacity="0.1" fill="#666666" enable-background="new    " cx="251.5" cy="170.5" r="169.5"/>
<circle opacity="0.1" fill="#666666" enable-background="new    " cx="261.5" cy="169.5" r="169.5"/>
<g>
	<polygon fill="#A9AAAF" points="255.53,273.82 255.53,287.5 259.42,287.5 258.67,272.82 	"/>
	<polygon fill="#A9AAAF" points="197.11,271.06 197.11,284.74 201,284.74 200.25,270.06 	"/>
	<path fill="#A9AAAF" d="M262.56,248.47L262.56,248.47c1.39,0,2.51,1.12,2.51,2.51v19.33c0,1.39-1.12,2.51-2.51,2.51h0
		c-1.39,0-2.51-1.12-2.51-2.51v-19.33C260.05,249.59,261.17,248.47,262.56,248.47z"/>
	<path fill="#A9AAAF" d="M198.18,243.07L198.18,243.07c1.39,0,2.51,1.12,2.51,2.51l0,0v24.72c0,1.39-1.12,2.51-2.51,2.51l0,0
		c-1.39,0-2.51-1.12-2.51-2.51v-24.72C195.67,244.2,196.79,243.07,198.18,243.07z"/>
	<path fill="#A9AAAF" d="M271.48,102.76c0,0,5.02-2.14,5.77,0s1.13,20.58,1.13,20.58h-4.77L271.48,102.76z"/>
	<path fill="#A9AAAF" d="M216.5,102.76c0,0-5.02-2.14-5.78,0s-1.13,20.58-1.13,20.58h4.77L216.5,102.76z"/>
	<polygon fill="#A9AAAF" points="217.25,84.43 216.5,99.75 219.89,99.75 219.89,84.06 	"/>
	<path fill="#33323C" d="M214.37,123.34l1-22.09c0,0-0.38-4.9,11.54-3.39s46.82,4.52,46.82,4.52v20.96L214.37,123.34z"/>
	<path fill="#33323C" d="M262.06,239.69l-1.88,33.76c0,0-27.61,15.31-61.12,0.75l3.01-35.52L262.06,239.69z"/>
	<polygon fill="#434052" points="235.83,106.77 236.46,128.61 275.36,128.61 273.11,99.75 	"/>
	<rect x="203.13" y="225.25" fill="#B3B3B3" width="36.65" height="46.44"/>
	<path fill="#F3BBB9" d="M226.29,244.21c0,0,5.27-4.14,6.15-2.89s-3.13,6.65-4.77,6.02S226.29,244.21,226.29,244.21z"/>
	<rect x="132.01" y="122.09" fill="#3D4543" width="240.58" height="120.49"/>
	<path fill="#33323C" d="M214.49,83.56c0,0-1.88-17.57,0-19.7s33.51-22.35,62.75,1.38c0,0,2.76,0.13,2.26,6.4
		c-0.3,3.97-0.27,7.96,0.06,11.93C279.57,83.56,216.63,88.08,214.49,83.56z"/>
	<path opacity="0.1" enable-background="new    " d="M214.49,83.56c0,0-1.88-17.57,0-19.7s33.51-22.35,62.75,1.38
		c0,0,2.76,0.13,2.26,6.4c-0.3,3.97-0.27,7.96,0.06,11.93C279.57,83.56,216.63,88.08,214.49,83.56z"/>
	<path fill="#33323C" d="M214.49,85.82c0,0-1.88-17.57,0-19.7s33.51-22.35,62.75,1.37c0,0,2.76,0.13,2.26,6.4
		c-0.3,3.97-0.27,7.96,0.06,11.93C279.57,85.82,216.63,90.33,214.49,85.82z"/>
	<path fill="#B3B3B3" d="M280.64,77.79c0,0,2.01,7.53,1.38,8.78s-0.51,4.77-0.51,4.77s0.14,2.26-0.87,2.51s-1.88,0.38-1.07,1.13
		s0,1.88,0,1.88c-0.24,0.95-0.24,1.94,0,2.89c0.44,1.13-2.58,1.6-2.32,3.01s1.1,5.39,0,5.52s0.38,5.02-0.61,5.02
		s-1.69,8.78-1.69,8.78s-6.97-5.9-11.61-4.27c0,0,0.38-4.89,1.88-6.65s1.05-6.27,1.05-6.27l7.47-22.47L280.64,77.79z"/>
	<path opacity="0.1" enable-background="new    " d="M239.85,68.87c0,0-11.8-0.12-14.68,6.15s-3.01,8.41-4.14,9.41
		s12.3,6.28,12.3,6.28l0.63,21.59c1.89-1.66,4.5-2.22,6.9-1.46c4.27,1.21,9.66,0,9.66,0s-0.25-0.46,3.26,0
		c3.52,0.46,14.68-5.44,14.68-5.44s0.18-9.44-0.06-11.45s7.97-16.79,7.97-16.79s6.4-6.15-0.25-8.28c0,0-2.35-3.55-8.41-3.51
		S239.85,68.87,239.85,68.87z"/>
	<path fill="#B3B3B3" d="M239.85,68.5c0,0-11.8-0.12-14.68,6.15s-3.01,8.41-4.14,9.41s12.3,6.28,12.3,6.28l0.63,21.58
		c1.89-1.66,4.5-2.22,6.9-1.46c4.27,1.21,9.66,0,9.66,0s-0.25-0.46,3.26,0c3.52,0.46,14.68-5.44,14.68-5.44s4.39-7.15,4.14-9.16
		s8.78-17.2,8.78-17.2s1.38-8.03-5.27-10.17c0,0-2.35-3.55-8.41-3.51S239.85,68.5,239.85,68.5z"/>
	<path fill="#33323C" d="M202.07,282.48c0,0-5.27-1.13-5.4,0s-6.28,12.68,1.38,16.07s28.11,10.67,61.37,1.25
		c0,0,2.13,0.75,1.63-3.89s-0.5-9.79-0.5-9.79s-5.02-1.38-8.79-0.88S215.25,292.4,202.07,282.48z"/>
	<path opacity="0.1" enable-background="new    " d="M202.07,282.48c0,0-5.27-1.13-5.4,0s-6.28,12.68,1.38,16.07
		s28.11,10.67,61.37,1.25c0,0,2.13,0.75,1.63-3.89s-0.5-9.79-0.5-9.79s-5.02-1.38-8.79-0.88S215.25,292.4,202.07,282.48z"/>
	<path fill="#33323C" d="M202.07,280.98c0,0-5.27-1.13-5.4,0s-6.28,12.68,1.38,16.07s28.11,10.67,61.37,1.25
		c0,0,2.13,0.75,1.63-3.89s-0.5-9.79-0.5-9.79s-5.02-1.38-8.79-0.88S215.25,290.89,202.07,280.98z"/>
	<path fill="#434052" d="M232.81,88.57c-0.32,1.84-1.06,3.61-1.17,5.47s0.61,3.98,2.33,4.71c0.48,0.14,0.94,0.33,1.39,0.57
		c0.62,0.52,1.01,1.27,1.07,2.08c0.18,1.02,0.23,2.06,0.13,3.1c-0.24,1.02-0.17,2.09,0.2,3.07c0.9,1.61,3.25,1.37,5.03,0.92
		l-0.61,4.75c-0.1,0.36-0.03,0.76,0.2,1.06c0.26,0.19,0.59,0.26,0.9,0.2c1.56-0.01,3.1-0.39,4.48-1.13c1.39-0.77,2.2-2.29,2.07-3.87
		c-0.29-1.78-2.13-3.19-1.88-4.97c0.19-1.38,1.54-2.26,2.43-3.32c1.57-2.06,1.74-4.87,0.43-7.1c-1.34-2.18-3.65-3.6-6.2-3.81
		c-1.39,0.02-2.79-0.13-4.14-0.45c-0.92-0.34-1.63-1.09-1.92-2.03"/>
	<path fill="#808080" d="M189.02,256l1.31-2.86c0,0,7.09-6.61,8.72-7.07s8.28-2.48,9.29-2.48s19.33-1.01,19.33-1.01l2.13,5.02
		l-23,5.05l-7.75,5.65L189.02,256z"/>
	<rect x="216.12" y="196.13" fill="#FFFFFF" width="27.25" height="41.16"/>
	<rect x="216.12" y="196.13" opacity="0.1" enable-background="new    " width="27.25" height="41.16"/>
	
		<rect x="218.55" y="203.11" transform="matrix(0.1463 -0.9892 0.9892 0.1463 -10.2463 421.5934)" fill="#FFFFFF" width="41.16" height="27.25"/>
	
		<rect x="225.99" y="202.76" transform="matrix(0.1463 -0.9892 0.9892 0.1463 -5.5268 413.1321)" fill="#0069A7" width="21.19" height="14.02"/>
	
		<rect x="232.38" y="220.21" transform="matrix(0.1463 -0.9892 0.9892 0.1463 -25.8868 427.4137)" fill="#0069A7" width="4.6" height="16.99"/>
	<circle opacity="0.1" enable-background="new    " cx="250.51" cy="76.53" r="15.75"/>
	<circle fill="#A47179" cx="250.51" cy="76.15" r="15.75"/>
	<path fill="#434052" d="M237.53,87.82c-0.11-0.41-0.07-0.84,0.11-1.22c0.6-1.25,2.3-1.36,3.69-1.29c3.25,0.15,6.82,0.17,9.36-1.88
		c1.05-0.84,2.23-2.96,3.76-2.56c1.36,0.36,1.93,2.21,3.35,2.62c1.03,0.3,2.09-0.18,3.14-0.38c1.52-0.17,3.05-0.18,4.58-0.04
		c1.54,0.13,3.07-0.37,4.23-1.4c1.41-1.51,1.18-3.86,1.05-5.92c-0.15-2.67,0.03-5.34,0.54-7.96c0.51-2.61,1.3-5.52-0.14-7.75
		c-1.37-2.13-4.21-2.71-6.15-4.34c-1.81-1.51-2.77-3.92-4.69-5.32c-2.41-1.76-5.69-1.51-8.66-1.2l-6.44,0.69
		c-1.68,0.03-3.32,0.5-4.76,1.37c-2.47,1.78-2.8,5.49-5.14,7.45c-1.12,0.76-2.31,1.41-3.55,1.94c-1.26,0.55-2.18,1.67-2.47,3.01
		c-0.11,1.13,0.5,2.17,0.79,3.26c0.7,2.6-0.4,5.27-1.1,7.89s-0.84,5.79,1.21,7.53c0.41,0.35,0.9,0.62,1.3,0.99
		c1.38,1.26,1.57,3.39,1.25,5.23"/>
	<ellipse fill="#434052" cx="251.8" cy="94.88" rx="0.38" ry="0.94"/>
	<ellipse fill="#434052" cx="251.8" cy="98.81" rx="0.38" ry="0.94"/>
	<path opacity="0.1" enable-background="new    " d="M248.51,274.07c0,0-7.36,11.39-30.37,10.17c-21.68-1.13-32.26-11.8-31.75-15.56
		s-1.38-12.93,3.26-15.57c2.69-1.52,6.24-0.62,8.74,0.41c1.76,0.72,3.78,0.35,5.18-0.93c2.29-2.06,6.55-4.38,13.28-2.55
		c0.87,0.23,1.78,0.21,2.63-0.05c2.8-0.85,9.47-2.34,14.31,0.96c1.56,1.08,3.6,1.15,5.24,0.2l0.07-0.04
		c2.26-1.38,12.8,11.67,12.8,11.67S252.4,272.82,248.51,274.07z"/>
	<path fill="#808080" d="M248.51,274.45c0,0-7.36,11.39-30.37,10.17c-21.68-1.13-32.26-11.8-31.75-15.56s-1.38-12.93,3.26-15.56
		c2.69-1.52,6.24-0.62,8.74,0.41c1.76,0.72,3.78,0.35,5.18-0.93c2.29-2.06,6.55-4.38,13.28-2.55c0.87,0.23,1.78,0.21,2.63-0.05
		c2.8-0.85,9.47-2.34,14.31,0.96c1.56,1.08,3.6,1.15,5.24,0.2l0.07-0.04c2.26-1.38,12.8,11.67,12.8,11.67S252.4,273.2,248.51,274.45
		z"/>
	<circle opacity="0.1" enable-background="new    " cx="218.13" cy="263.91" r="15"/>
	<circle fill="#F3BBB9" cx="218.13" cy="264.29" r="15"/>
	<path fill="#AD6F6D" d="M213.83,251.32c-1.58,0.32-2.98,1.25-3.89,2.58c-0.32,0.87-0.76,1.69-1.3,2.44
		c-0.95,0.95-2.55,0.97-3.83,1.51s-2.13,2.42-0.87,3.01c-1.29,0.16-2.3,1.18-2.44,2.48c-0.05,1.22,0.2,2.44,0.73,3.54
		c1.44,3.7,2.99,7.57,6.16,10.21c5.17,4.3,12.95,4.1,19.89,3.64c0.57,0.02,1.13-0.11,1.63-0.38c0.64-0.59,0.99-1.42,0.97-2.29
		c0.52-3.57,2.46-6.81,3.72-10.22s1.78-7.41-0.35-10.42C231.12,252.95,219.11,249.89,213.83,251.32z"/>
	<g opacity="0.1">
		<path d="M271.35,66.56c-0.42,2.2-0.61,4.45-0.57,6.69c0.03-1.87,0.23-3.73,0.58-5.56c0.43-1.68,0.65-3.41,0.66-5.14
			C271.89,63.9,271.66,65.24,271.35,66.56z"/>
		<path d="M231.56,82.1c-0.4-0.38-0.88-0.64-1.3-1c-1.05-0.97-1.65-2.34-1.65-3.76c-0.25,1.8,0.36,3.62,1.65,4.89
			c0.41,0.36,0.9,0.63,1.3,1c0.84,0.83,1.33,1.96,1.36,3.14C233.14,84.82,232.64,83.24,231.56,82.1z"/>
		<path d="M230.36,68.04c0.07-0.79,0-1.6-0.2-2.37c-0.22-0.81-0.61-1.59-0.75-2.4c-0.01,0.09-0.02,0.18-0.04,0.27
			c-0.11,1.13,0.5,2.17,0.79,3.26C230.26,67.21,230.33,67.62,230.36,68.04z"/>
		<path d="M269.76,80.44c-1.16,1.03-2.69,1.54-4.23,1.4c-1.52-0.14-3.06-0.13-4.58,0.04c-1.05,0.21-2.11,0.68-3.14,0.38
			c-1.42-0.41-1.99-2.26-3.35-2.62c-1.55-0.41-2.73,1.71-3.76,2.56c-2.54,2.03-6.11,2.01-9.36,1.88c-1.38-0.06-3.09,0.04-3.68,1.3
			c-0.18,0.38-0.22,0.81-0.11,1.22l-4.6,0.72c-0.02,0.38-0.06,0.76-0.12,1.13l4.73-0.75c-0.11-0.41-0.07-0.84,0.11-1.22
			c0.6-1.25,2.3-1.36,3.68-1.29c3.25,0.15,6.82,0.17,9.36-1.88c1.05-0.84,2.23-2.96,3.76-2.56c1.36,0.35,1.93,2.21,3.35,2.62
			c1.03,0.29,2.09-0.18,3.14-0.38c1.52-0.17,3.06-0.18,4.58-0.04c1.54,0.14,3.07-0.37,4.23-1.4c1.04-1.12,1.19-2.79,1.13-4.41
			C270.93,78.34,270.53,79.51,269.76,80.44z"/>
	</g>
	<g opacity="0.1">
		<path d="M234.9,98.52c-0.44-0.23-0.91-0.42-1.39-0.57c-0.81-0.37-1.46-1.04-1.81-1.86c0.2,1.29,1.02,2.41,2.2,2.99
			c0.48,0.14,0.95,0.33,1.39,0.57c0.28,0.2,0.51,0.47,0.67,0.78C235.86,99.69,235.48,99,234.9,98.52z"/>
		<path d="M241.34,107.68c-1.74,0.44-4,0.67-4.96-0.8c0.03,0.35,0.13,0.7,0.3,1.01c0.81,1.45,2.8,1.4,4.49,1.04L241.34,107.68z"/>
		<path d="M248.37,108.72c0.13,1.58-0.68,3.09-2.07,3.86c-1.38,0.73-2.92,1.11-4.48,1.13c-0.25,0.03-0.5,0-0.73-0.08
			c-0.2,0.46,0.01,0.99,0.47,1.18c0.2,0.09,0.43,0.1,0.64,0.03c1.56-0.01,3.1-0.39,4.48-1.13c1.39-0.77,2.2-2.28,2.07-3.87
			C248.67,109.44,248.54,109.07,248.37,108.72z"/>
		<path d="M250.04,95.09c0.47,1.86,0.05,3.82-1.13,5.33c-0.89,1.08-2.24,1.94-2.43,3.32c-0.06,0.64,0.07,1.28,0.38,1.83
			c-0.03-0.23-0.03-0.47,0-0.7c0.19-1.38,1.54-2.26,2.43-3.32C250.71,99.7,251,97.21,250.04,95.09z"/>
	</g>
	<g opacity="0.1">
		<path d="M204.82,258.42c1.28-0.53,2.88-0.55,3.83-1.51c0.54-0.75,0.98-1.57,1.3-2.44c0.91-1.33,2.31-2.26,3.89-2.57
			c5.27-1.43,17.29,1.63,20.42,6.06c0.92,1.34,1.42,2.92,1.44,4.55c0.12-1.88-0.38-3.74-1.43-5.3c-3.13-4.43-15.14-7.49-20.42-6.06
			c-1.58,0.32-2.98,1.24-3.89,2.57c-0.32,0.87-0.76,1.69-1.3,2.44c-0.95,0.95-2.55,0.97-3.83,1.51c-0.97,0.38-1.56,1.36-1.43,2.39
			C203.6,259.33,204.12,258.73,204.82,258.42z"/>
		<path d="M201.5,263.89c0.14-1.29,1.15-2.32,2.44-2.48c-0.28-0.12-0.49-0.35-0.58-0.64c-1.02,0.38-1.74,1.29-1.88,2.37
			c-0.04,0.31-0.04,0.62,0,0.92C201.5,264.01,201.5,263.95,201.5,263.89z"/>
	</g>
	<rect x="247" y="127.45" fill="#FFFFFF" width="34.26" height="44.68"/>
	<rect x="247" y="127.45" opacity="0.1" enable-background="new    " width="34.26" height="44.68"/>
	
		<rect x="264.12" y="132.65" transform="matrix(0.9855 -0.1695 0.1695 0.9855 -22.2034 49.9219)" fill="#FFFFFF" width="34.26" height="44.68"/>
	
		<rect x="269.6" y="165.14" transform="matrix(0.9855 -0.1695 0.1695 0.9855 -24.9237 48.8514)" fill="#0069A7" width="8.05" height="10.5"/>
	
		<rect x="280.58" y="163.25" transform="matrix(0.9855 -0.1695 0.1695 0.9855 -24.4443 50.685)" fill="#0069A7" width="8.05" height="10.5"/>
	
		<rect x="268.3" y="149.79" transform="matrix(0.9856 -0.1692 0.1692 0.9856 -22.1703 50.0354)" fill="#0069A7" width="28.23" height="10.54"/>
	
		<rect x="265.37" y="137.58" transform="matrix(0.9856 -0.1689 0.1689 0.9856 -19.4232 49.2102)" fill="#0069A7" width="28.24" height="2.35"/>
	
		<rect x="266.2" y="141.71" transform="matrix(0.9856 -0.1692 0.1692 0.9856 -20.1398 49.5043)" fill="#0069A7" width="28.23" height="2.35"/>
	<path fill="#A47179" d="M266.26,115.31c0,0-15.75,15.81-7.84,19.83c7.91,4.02,13.05-13.37,13.05-13.37l1.25-3.95L266.26,115.31z"/>
	<path opacity="0.1" enable-background="new    " d="M264.89,113.91l-1.95,4.3c0,0,9.6,1.35,11.61,4.25l-1.19-7.59l-1.41-3.24
		L264.89,113.91z"/>
	<path fill="#B3B3B3" d="M265.26,113.54l-1.95,4.3c0,0,9.6,1.35,11.61,4.25l-1.19-7.59l-1.41-3.24L265.26,113.54z"/>
	<polygon fill="#474A5D" points="323.38,192.59 323.17,192.74 323.46,192.86 323.77,192.84 323.81,192.62 	"/>
	<polygon opacity="0.1" enable-background="new    " points="323.38,192.59 323.17,192.74 323.46,192.86 323.77,192.84 
		323.81,192.62 	"/>
	<polygon fill="#9B9BA0" points="323.38,192.59 323.17,192.73 323.01,192.52 323.11,192.36 323.2,192.33 	"/>
	<polygon opacity="0.1" enable-background="new    " points="323.38,192.59 323.17,192.73 323.01,192.52 323.11,192.36 
		323.2,192.33 	"/>
	<path fill="#9B9BA0" d="M360.44,166.57l-15.41-22.26c-0.57-0.83-1.72-1.05-2.55-0.47l0,0l-34.36,23.58
		c-0.84,0.57-1.05,1.72-0.48,2.56l15.37,22.55L360.44,166.57z"/>
	<path opacity="0.1" enable-background="new    " d="M360.44,166.57l-15.41-22.26c-0.57-0.83-1.72-1.05-2.55-0.47l0,0l-34.36,23.58
		c-0.84,0.57-1.05,1.72-0.48,2.56l15.37,22.55L360.44,166.57z"/>
	<path fill="#9B9BA0" d="M360.82,166.62l-15.42-22.26c-0.58-0.84-1.72-1.05-2.55-0.47c0,0,0,0,0,0l0,0l-34.36,23.6
		c-0.84,0.57-1.05,1.72-0.48,2.56l15.38,22.55L360.82,166.62z"/>
	<path fill="#474A5D" d="M373.7,171.03l-12.8-4.11l-37.44,25.95l13,4.26c0.59,0.19,1.24,0.09,1.74-0.26l35.6-25.14
		c0.18-0.1,0.25-0.33,0.15-0.51C373.9,171.11,373.81,171.04,373.7,171.03L373.7,171.03z"/>
	<path opacity="0.1" enable-background="new    " d="M373.7,171.03l-12.8-4.11l-37.44,25.95l13,4.26c0.59,0.19,1.24,0.09,1.74-0.26
		l35.6-25.14c0.18-0.1,0.25-0.33,0.15-0.51C373.9,171.11,373.81,171.04,373.7,171.03L373.7,171.03z"/>
	<path fill="#474A5D" d="M373.62,170.77l-12.8-4.12l-37.44,25.95l13.01,4.25c0.59,0.2,1.24,0.1,1.74-0.26l35.6-25.14
		c0.18-0.11,0.24-0.34,0.13-0.52C373.81,170.85,373.72,170.79,373.62,170.77L373.62,170.77z"/>
	<g opacity="0.1">
		<path d="M354.77,165.63l-0.95-1.35c-0.12-0.16-0.34-0.2-0.51-0.09l-1.4,0.94c-0.16,0.12-0.21,0.34-0.1,0.51l0.87,1.34
			c0.11,0.17,0.34,0.21,0.51,0.11l1.48-0.93C354.84,166.03,354.88,165.8,354.77,165.63z"/>
		<path d="M352.25,167.38l-0.95-1.35c-0.12-0.16-0.34-0.21-0.51-0.1l-1.4,0.95c-0.16,0.11-0.21,0.34-0.11,0.51l0.87,1.34
			c0.11,0.17,0.34,0.22,0.51,0.11l1.48-0.93C352.32,167.79,352.37,167.56,352.25,167.38C352.25,167.38,352.25,167.38,352.25,167.38
			L352.25,167.38z"/>
		<path d="M349.6,169.21l-0.95-1.35c-0.12-0.16-0.34-0.2-0.51-0.09l-1.4,0.95c-0.17,0.12-0.21,0.34-0.1,0.51l0.87,1.34
			c0.11,0.17,0.34,0.21,0.51,0.11l1.48-0.93c0.17-0.11,0.23-0.34,0.11-0.52c0,0,0,0,0,0L349.6,169.21z"/>
		<path d="M346.91,171.07l-0.95-1.36c-0.12-0.16-0.34-0.2-0.51-0.09l-1.4,0.95c-0.16,0.12-0.21,0.34-0.1,0.51l0.87,1.34
			c0.11,0.16,0.33,0.21,0.5,0.11l1.48-0.93C346.98,171.48,347.03,171.25,346.91,171.07L346.91,171.07z"/>
		<path d="M344.23,172.93l-0.95-1.35c-0.12-0.16-0.34-0.2-0.51-0.09l-1.4,0.95c-0.16,0.11-0.21,0.34-0.11,0.51l0.87,1.34
			c0.11,0.17,0.34,0.22,0.51,0.11l1.48-0.93C344.3,173.34,344.35,173.1,344.23,172.93L344.23,172.93z"/>
		<path d="M341.67,174.95l-1.18-1.68c-0.05-0.08-0.16-0.1-0.23-0.05l0,0l-1.73,1.16c-0.08,0.05-0.1,0.15-0.05,0.23c0,0,0,0,0,0l0,0
			l1.08,1.66c0.05,0.08,0.16,0.1,0.24,0.05l1.82-1.13c0.08-0.05,0.11-0.15,0.07-0.24C341.68,174.97,341.67,174.96,341.67,174.95z"/>
		<path d="M338.99,176.81l-1.19-1.68c-0.05-0.08-0.16-0.1-0.24-0.05l0,0l-1.73,1.16c-0.08,0.05-0.1,0.16-0.05,0.24l1.08,1.66
			c0.05,0.08,0.15,0.11,0.23,0.06c0,0,0,0,0,0l0.01-0.01l1.82-1.13c0.08-0.04,0.12-0.14,0.08-0.22c0,0,0,0,0,0
			C339,176.83,339,176.82,338.99,176.81z"/>
		<path d="M336.61,178.45l-1.18-1.66c-0.06-0.08-0.16-0.09-0.24-0.04l-1.72,1.16c-0.08,0.05-0.1,0.16-0.05,0.24l1.08,1.66
			c0.05,0.08,0.16,0.1,0.24,0.05l1.82-1.13c0.09-0.04,0.12-0.14,0.08-0.23C336.64,178.48,336.63,178.47,336.61,178.45z"/>
		<path d="M333.95,180.29l-1.18-1.68c-0.06-0.07-0.16-0.09-0.24-0.04l-1.73,1.16c-0.08,0.05-0.1,0.16-0.05,0.24c0,0,0,0,0,0l0,0
			l1.08,1.66c0.05,0.08,0.16,0.1,0.24,0.05l1.82-1.13c0.08-0.05,0.11-0.16,0.06-0.24c0,0,0,0,0,0L333.95,180.29z"/>
		<path d="M331.38,182.06l-1.18-1.68c-0.05-0.08-0.16-0.1-0.23-0.05c0,0,0,0,0,0l0,0l-1.72,1.16c-0.08,0.05-0.1,0.15-0.05,0.23
			c0,0,0,0,0,0l0,0l1.08,1.66c0.05,0.08,0.16,0.1,0.24,0.05l1.82-1.13c0.08-0.05,0.11-0.15,0.07-0.23c0,0,0,0,0,0
			C331.39,182.07,331.38,182.07,331.38,182.06z"/>
		<path d="M328.8,183.86l-1.17-1.68c-0.06-0.08-0.16-0.09-0.24-0.04l-1.72,1.16c-0.08,0.05-0.1,0.16-0.05,0.24l0,0l1.08,1.66
			c0.05,0.08,0.16,0.1,0.24,0.05l1.82-1.13c0.08-0.05,0.1-0.16,0.05-0.24c0,0,0,0,0,0L328.8,183.86z"/>
		<path d="M326.23,185.64l-1.18-1.68c-0.05-0.08-0.16-0.1-0.23-0.05c0,0,0,0,0,0l0,0l-1.73,1.15c-0.08,0.05-0.1,0.16-0.05,0.24l0,0
			l1.08,1.66c0.05,0.08,0.16,0.1,0.24,0.05l1.82-1.13c0.08-0.05,0.11-0.16,0.06-0.24c0,0,0,0,0,0L326.23,185.64z"/>
		<path d="M353.08,163.18l-0.95-1.35c-0.12-0.16-0.34-0.2-0.51-0.09l-1.39,0.95c-0.16,0.11-0.21,0.34-0.11,0.51l0.87,1.34
			c0.11,0.17,0.34,0.21,0.51,0.11l1.48-0.93C353.15,163.58,353.2,163.35,353.08,163.18z"/>
		<path d="M349.37,157.82l-0.95-1.36c-0.12-0.16-0.34-0.2-0.51-0.09l-1.4,0.95c-0.16,0.11-0.21,0.34-0.11,0.51l0.87,1.34
			c0.11,0.17,0.34,0.22,0.51,0.11l1.48-0.93C349.43,158.22,349.48,157.99,349.37,157.82z"/>
		<path d="M350.55,164.93l-0.95-1.35c-0.12-0.16-0.34-0.2-0.51-0.09l-1.4,0.95c-0.16,0.12-0.21,0.34-0.1,0.51l0.87,1.34
			c0.11,0.17,0.34,0.22,0.51,0.11l1.48-0.93c0.17-0.11,0.22-0.35,0.11-0.52c0,0,0,0,0,0L350.55,164.93z"/>
		<path d="M347.9,166.76l-0.95-1.35c-0.12-0.16-0.34-0.2-0.51-0.09l-1.4,0.93c-0.17,0.11-0.21,0.34-0.11,0.51l0.87,1.34
			c0.11,0.17,0.34,0.22,0.51,0.11l1.48-0.93C347.96,167.16,348.01,166.93,347.9,166.76z"/>
		<path d="M345.21,168.62l-0.95-1.36c-0.12-0.16-0.34-0.2-0.51-0.09l-1.4,0.96c-0.16,0.12-0.21,0.34-0.1,0.51l0.87,1.34
			c0.11,0.17,0.34,0.21,0.51,0.11l1.48-0.93c0.17-0.11,0.23-0.34,0.12-0.52c0,0,0,0,0,0L345.21,168.62z"/>
		<path d="M346.9,159.65l-0.95-1.35c-0.12-0.16-0.34-0.2-0.51-0.09l-1.4,0.95c-0.16,0.11-0.21,0.34-0.11,0.51l0.87,1.34
			c0.11,0.17,0.34,0.22,0.51,0.11l1.48-0.93C346.97,160.07,347.02,159.84,346.9,159.65C346.91,159.66,346.91,159.66,346.9,159.65
			L346.9,159.65z"/>
		<path d="M344.25,161.49l-0.95-1.35c-0.12-0.16-0.34-0.2-0.51-0.09l-1.4,0.93c-0.17,0.11-0.21,0.34-0.11,0.51l0.87,1.34
			c0.11,0.17,0.34,0.22,0.51,0.11l1.48-0.93C344.31,161.89,344.36,161.66,344.25,161.49z"/>
		<path d="M341.57,163.35l-0.95-1.35c-0.12-0.16-0.34-0.21-0.51-0.1l-1.4,0.96c-0.16,0.12-0.21,0.34-0.1,0.51l0.87,1.34
			c0.11,0.17,0.34,0.22,0.51,0.11l1.48-0.93c0.18-0.11,0.23-0.34,0.12-0.52L341.57,163.35z"/>
		<path d="M342.53,170.48l-0.95-1.35c-0.12-0.16-0.34-0.21-0.51-0.1l-1.39,0.95c-0.16,0.12-0.21,0.34-0.1,0.51l0.86,1.34
			c0.11,0.16,0.33,0.21,0.5,0.11l1.48-0.93C342.6,170.88,342.65,170.65,342.53,170.48C342.53,170.48,342.53,170.48,342.53,170.48
			L342.53,170.48z"/>
		<path d="M339.85,172.33l-0.95-1.35c-0.12-0.16-0.34-0.21-0.51-0.1l-1.4,0.95c-0.17,0.11-0.21,0.34-0.11,0.51l0.87,1.34
			c0.11,0.17,0.34,0.22,0.51,0.11l1.48-0.93C339.92,172.75,339.97,172.51,339.85,172.33L339.85,172.33z"/>
		<path d="M337.29,174.36l-1.18-1.68c-0.05-0.08-0.16-0.1-0.23-0.05c0,0,0,0,0,0l0,0l-1.73,1.16c-0.08,0.05-0.1,0.16-0.05,0.23l0,0
			l1.08,1.66c0.05,0.08,0.15,0.11,0.23,0.06c0,0,0,0,0,0l0,0l1.82-1.13c0.08-0.05,0.11-0.15,0.07-0.24
			C337.3,174.37,337.29,174.37,337.29,174.36z"/>
		<path d="M334.91,176l-1.18-1.68c-0.06-0.08-0.16-0.09-0.24-0.04l-1.72,1.16c-0.08,0.05-0.1,0.16-0.05,0.24l1.08,1.66
			c0.05,0.08,0.16,0.1,0.24,0.05l1.82-1.13c0.08-0.04,0.11-0.14,0.07-0.22c0,0,0,0,0,0C334.93,176.02,334.92,176.01,334.91,176z"/>
		<path d="M332.26,177.84l-1.18-1.68c-0.06-0.07-0.16-0.09-0.24-0.04l-1.73,1.16c-0.08,0.05-0.1,0.16-0.05,0.23l0,0l1.08,1.66
			c0.05,0.08,0.16,0.1,0.24,0.05l1.82-1.13c0.08-0.05,0.11-0.16,0.06-0.24c0,0,0,0,0,0L332.26,177.84z"/>
		<path d="M329.68,179.62l-1.18-1.68c-0.05-0.08-0.16-0.1-0.23-0.05c0,0,0,0,0,0l0,0l-1.72,1.15c-0.08,0.05-0.1,0.15-0.05,0.23
			c0,0,0,0,0,0l0,0l1.08,1.66c0.05,0.08,0.16,0.1,0.24,0.05l1.82-1.13C329.71,179.81,329.74,179.71,329.68,179.62
			C329.69,179.63,329.69,179.63,329.68,179.62L329.68,179.62z"/>
		<path d="M346.13,164.21l-0.95-1.35c-0.12-0.16-0.34-0.2-0.51-0.09l-1.4,0.95c-0.16,0.12-0.21,0.34-0.1,0.51l0.87,1.34
			c0.11,0.16,0.33,0.21,0.5,0.11l1.48-0.93C346.2,164.62,346.25,164.39,346.13,164.21C346.13,164.22,346.13,164.22,346.13,164.21
			L346.13,164.21z"/>
		<path d="M343.45,166.07l-0.95-1.36c-0.12-0.16-0.34-0.2-0.51-0.09l-1.4,0.95c-0.17,0.11-0.21,0.34-0.11,0.51l0.87,1.34
			c0.11,0.17,0.34,0.22,0.51,0.11l1.48-0.93C343.52,166.48,343.56,166.25,343.45,166.07L343.45,166.07z"/>
		<path d="M340.77,167.93l-0.95-1.35c-0.12-0.16-0.34-0.2-0.51-0.09l-1.4,0.95c-0.16,0.12-0.21,0.34-0.1,0.51l0.87,1.34
			c0.11,0.17,0.34,0.22,0.51,0.11l1.48-0.93C340.84,168.34,340.89,168.1,340.77,167.93L340.77,167.93z"/>
		<path d="M338.09,169.78l-0.95-1.35c-0.12-0.16-0.34-0.2-0.51-0.1l-1.4,0.95c-0.16,0.12-0.21,0.34-0.1,0.51l0.87,1.35
			c0.11,0.16,0.33,0.21,0.5,0.11l1.48-0.93c0.18-0.11,0.23-0.34,0.12-0.52c0,0,0,0,0,0L338.09,169.78z"/>
		<path d="M335.54,171.81l-1.18-1.68c-0.05-0.08-0.16-0.1-0.23-0.05c0,0,0,0,0,0l0,0l-1.73,1.16c-0.08,0.05-0.1,0.16-0.05,0.24
			l1.08,1.66c0.05,0.08,0.15,0.1,0.23,0.05c0,0,0,0,0,0l0,0l1.82-1.13c0.08-0.05,0.11-0.15,0.07-0.24c0,0,0,0,0,0
			C335.55,171.83,335.55,171.82,335.54,171.81z"/>
		<path d="M333.15,173.45l-1.18-1.68c-0.06-0.08-0.16-0.09-0.24-0.04l-1.72,1.16c-0.08,0.05-0.1,0.16-0.05,0.24l1.08,1.66
			c0.05,0.08,0.16,0.1,0.24,0.05l1.82-1.13c0.08-0.05,0.11-0.15,0.07-0.24c0,0,0,0,0,0C333.16,173.47,333.16,173.46,333.15,173.45z"
			/>
		<path d="M330.49,175.28l-1.18-1.68c-0.06-0.08-0.16-0.09-0.24-0.04l-1.73,1.16c-0.08,0.06-0.1,0.16-0.05,0.24l1.08,1.66
			c0.05,0.08,0.16,0.1,0.24,0.05l1.82-1.13c0.08-0.04,0.12-0.14,0.07-0.23c0,0,0,0,0,0C330.51,175.3,330.5,175.29,330.49,175.28z"/>
		<path d="M327.92,177.08l-1.18-1.68c-0.05-0.08-0.16-0.1-0.24-0.05c0,0,0,0,0,0l0,0l-1.73,1.16c-0.08,0.05-0.1,0.16-0.05,0.24
			l1.08,1.66c0.05,0.08,0.15,0.11,0.22,0.06c0,0,0,0,0,0l0.01-0.01l1.82-1.13c0.08-0.04,0.12-0.14,0.07-0.23c0,0,0,0,0,0
			C327.93,177.1,327.93,177.09,327.92,177.08z"/>
		<path d="M327.11,181.41l-1.18-1.68c-0.05-0.08-0.16-0.09-0.24-0.04l-1.72,1.16c-0.08,0.05-0.1,0.15-0.05,0.23c0,0,0,0,0,0l0,0
			l1.08,1.66c0.05,0.08,0.16,0.1,0.24,0.05l1.82-1.13c0.08-0.05,0.11-0.16,0.06-0.24L327.11,181.41z"/>
		<path d="M324.53,183.19l-1.18-1.68c-0.05-0.08-0.16-0.1-0.23-0.05c0,0,0,0,0,0l0,0l-1.73,1.16c-0.08,0.05-0.1,0.16-0.05,0.23l0,0
			l1.08,1.66c0.05,0.08,0.16,0.1,0.24,0.05l1.82-1.13c0.08-0.05,0.11-0.15,0.07-0.24c0,0,0,0,0,0
			C324.54,183.2,324.54,183.2,324.53,183.19z"/>
		<path d="M328.57,172.52l-1.13-1.58c-0.07-0.1-0.22-0.13-0.32-0.06l-1.63,1.1c-0.11,0.07-0.14,0.21-0.07,0.32c0,0,0,0,0,0l0,0
			l1.02,1.56c0.07,0.11,0.2,0.14,0.31,0.07h0.01l1.72-1.08c0.11-0.06,0.16-0.2,0.1-0.32L328.57,172.52z"/>
		<path d="M326,174.3l-1.11-1.58c-0.07-0.1-0.21-0.13-0.32-0.06l0,0l-1.63,1.11c-0.1,0.07-0.13,0.21-0.07,0.31c0,0,0,0,0,0l0,0
			l1.02,1.57c0.07,0.1,0.21,0.14,0.32,0.07l1.72-1.08c0.11-0.06,0.15-0.21,0.09-0.32c0,0,0,0,0,0
			C326.01,174.32,326.01,174.31,326,174.3z"/>
		<path d="M323.42,176.09l-1.11-1.59c-0.07-0.1-0.22-0.13-0.32-0.06l-1.63,1.1c-0.11,0.07-0.14,0.21-0.07,0.32c0,0,0,0,0,0l0,0
			l1.02,1.56c0.06,0.11,0.2,0.14,0.31,0.08c0,0,0,0,0,0h0.01l1.72-1.08c0.11-0.07,0.14-0.21,0.08-0.32L323.42,176.09z"/>
		<path d="M320.88,177.92l-1.18-1.68c-0.05-0.08-0.16-0.09-0.24-0.04l-1.72,1.16c-0.08,0.05-0.1,0.16-0.05,0.24l1.08,1.66
			c0.05,0.08,0.16,0.1,0.24,0.05l1.82-1.13c0.08-0.04,0.12-0.14,0.08-0.22C320.9,177.94,320.89,177.93,320.88,177.92z"/>
		<path d="M351.36,160.54l-1.02-1.45c-0.12-0.16-0.34-0.2-0.51-0.09l-3.98,2.79c-0.16,0.12-0.2,0.33-0.1,0.5l0.96,1.48
			c0.12,0.17,0.35,0.22,0.52,0.1l0,0l4.04-2.83C351.42,160.93,351.46,160.71,351.36,160.54z"/>
		<path d="M325.33,178.8l-1.25-1.76c-0.05-0.08-0.16-0.1-0.23-0.05c0,0,0,0,0,0h-0.01l-4.3,3.01c-0.08,0.05-0.1,0.16-0.05,0.23
			l1.17,1.82c0.05,0.08,0.16,0.1,0.24,0.05c0,0,0,0,0,0h0.01l4.37-3.06C325.37,178.99,325.39,178.88,325.33,178.8
			C325.34,178.8,325.34,178.8,325.33,178.8z"/>
		<path d="M339.01,165.3l-1.15-1.69c-0.05-0.08-0.16-0.1-0.24-0.04l-9.55,6.45c-0.08,0.05-0.1,0.16-0.05,0.24l1.18,1.81
			c0.05,0.08,0.16,0.1,0.24,0.05c0,0,0,0,0,0l0,0l9.52-6.57C339.04,165.49,339.06,165.38,339.01,165.3
			C339.01,165.3,339.01,165.3,339.01,165.3L339.01,165.3z"/>
	</g>
	<path fill="#474A5D" d="M355.02,165.68l-0.95-1.35c-0.12-0.16-0.34-0.2-0.51-0.09l-1.4,0.95c-0.17,0.11-0.21,0.34-0.11,0.51
		l0.87,1.34c0.11,0.17,0.34,0.22,0.51,0.11l1.48-0.93C355.09,166.08,355.14,165.85,355.02,165.68L355.02,165.68z"/>
	<path fill="#474A5D" d="M352.49,167.42l-0.95-1.35c-0.12-0.16-0.34-0.2-0.51-0.09l-1.4,0.95c-0.16,0.11-0.21,0.34-0.11,0.51
		l0.87,1.34c0.11,0.17,0.34,0.22,0.51,0.11l1.48-0.93C352.56,167.84,352.61,167.6,352.49,167.42L352.49,167.42z"/>
	<path fill="#474A5D" d="M349.85,169.26l-0.95-1.35c-0.12-0.16-0.34-0.2-0.51-0.09l-1.4,0.95c-0.17,0.11-0.21,0.34-0.11,0.51
		l0.87,1.34c0.11,0.17,0.34,0.21,0.51,0.11l1.48-0.93C349.92,169.67,349.97,169.44,349.85,169.26
		C349.85,169.27,349.85,169.27,349.85,169.26L349.85,169.26z"/>
	<path fill="#474A5D" d="M347.16,171.12l-0.95-1.35c-0.12-0.16-0.34-0.2-0.51-0.1l-1.4,0.95c-0.17,0.12-0.22,0.35-0.1,0.52l0,0
		l0.87,1.34c0.11,0.17,0.34,0.22,0.51,0.11l1.48-0.93c0.18-0.11,0.23-0.34,0.12-0.52c0,0,0,0,0,0L347.16,171.12z"/>
	<path fill="#474A5D" d="M344.48,172.97l-0.95-1.35c-0.12-0.16-0.34-0.2-0.51-0.1l-1.4,0.95c-0.16,0.12-0.21,0.34-0.1,0.51
		l0.87,1.34c0.11,0.17,0.34,0.22,0.51,0.11l1.48-0.93C344.55,173.38,344.6,173.15,344.48,172.97
		C344.49,172.97,344.49,172.97,344.48,172.97L344.48,172.97z"/>
	<path fill="#474A5D" d="M341.92,175l-1.18-1.68c-0.05-0.08-0.16-0.1-0.23-0.05c0,0,0,0,0,0l0,0l-1.72,1.16
		c-0.08,0.05-0.1,0.15-0.05,0.23c0,0,0,0,0,0l0,0l1.08,1.66c0.05,0.08,0.16,0.1,0.24,0.05l1.82-1.13c0.08-0.05,0.11-0.15,0.07-0.24
		c0,0,0,0,0,0C341.93,175.01,341.92,175.01,341.92,175z"/>
	<path fill="#474A5D" d="M339.24,176.85l-1.18-1.68c-0.05-0.08-0.16-0.1-0.24-0.05c0,0,0,0,0,0l0,0l-1.72,1.16
		c-0.08,0.05-0.1,0.15-0.05,0.23c0,0,0,0,0,0l0,0l1.08,1.66c0.05,0.08,0.16,0.1,0.23,0.05l0,0l1.82-1.13
		c0.08-0.05,0.11-0.16,0.06-0.24c0,0,0,0,0,0L339.24,176.85z"/>
	<path fill="#474A5D" d="M336.86,178.5l-1.18-1.68c-0.06-0.07-0.16-0.09-0.24-0.04l-1.73,1.15c-0.08,0.05-0.1,0.16-0.05,0.24
		l1.08,1.66c0.05,0.08,0.16,0.1,0.24,0.05l1.82-1.13C336.89,178.69,336.92,178.59,336.86,178.5
		C336.86,178.51,336.86,178.51,336.86,178.5L336.86,178.5z"/>
	<path fill="#474A5D" d="M334.2,180.34l-1.18-1.67c-0.06-0.08-0.16-0.09-0.24-0.04l-1.72,1.16c-0.08,0.05-0.1,0.16-0.05,0.24l0,0
		l1.08,1.66c0.05,0.08,0.16,0.1,0.24,0.05l1.82-1.13c0.09-0.04,0.12-0.15,0.08-0.23C334.22,180.37,334.21,180.35,334.2,180.34z"/>
	<path fill="#474A5D" d="M331.63,182.12l-1.18-1.68c-0.05-0.08-0.16-0.1-0.23-0.05l0,0l-1.72,1.16c-0.08,0.05-0.1,0.15-0.05,0.23
		c0,0,0,0,0,0l0,0l1.08,1.66c0.05,0.08,0.15,0.11,0.23,0.06c0,0,0,0,0,0l0,0l1.82-1.13c0.08-0.05,0.11-0.15,0.07-0.24c0,0,0,0,0,0
		C331.64,182.14,331.63,182.13,331.63,182.12z"/>
	<path fill="#474A5D" d="M329.05,183.91l-1.18-1.68c-0.06-0.08-0.16-0.09-0.24-0.04l-1.73,1.16c-0.08,0.05-0.1,0.16-0.05,0.24
		l1.08,1.66c0.05,0.08,0.16,0.1,0.24,0.05l1.82-1.13c0.08-0.05,0.11-0.15,0.07-0.24c0,0,0,0,0,0L329.05,183.91z"/>
	<path fill="#474A5D" d="M326.48,185.69l-1.18-1.68c-0.05-0.08-0.16-0.1-0.23-0.05c0,0,0,0,0,0l0,0l-1.72,1.16
		c-0.08,0.05-0.1,0.15-0.05,0.23c0,0,0,0,0,0l0,0l1.08,1.66c0.05,0.08,0.15,0.1,0.23,0.05l0,0l1.82-1.13
		c0.08-0.05,0.11-0.15,0.07-0.24c0,0,0,0,0,0C326.49,185.7,326.48,185.7,326.48,185.69z"/>
	<path fill="#474A5D" d="M353.33,163.24l-0.95-1.36c-0.12-0.16-0.34-0.2-0.51-0.09l-1.4,0.95c-0.16,0.12-0.21,0.34-0.1,0.51
		l0.87,1.34c0.11,0.17,0.34,0.22,0.51,0.11l1.48-0.93C353.4,163.64,353.45,163.41,353.33,163.24L353.33,163.24z"/>
	<path fill="#474A5D" d="M349.62,157.87l-0.95-1.35c-0.12-0.16-0.34-0.2-0.51-0.09l-1.4,0.95c-0.16,0.12-0.21,0.34-0.1,0.51
		l0.87,1.34c0.11,0.16,0.33,0.21,0.5,0.11l1.48-0.93C349.69,158.28,349.74,158.05,349.62,157.87L349.62,157.87z"/>
	<path fill="#474A5D" d="M350.8,164.97l-0.95-1.36c-0.12-0.16-0.34-0.2-0.51-0.09l-1.4,0.95c-0.16,0.12-0.21,0.34-0.1,0.51
		l0.87,1.34c0.11,0.16,0.33,0.21,0.5,0.11l1.48-0.93C350.87,165.38,350.91,165.14,350.8,164.97z"/>
	<path fill="#474A5D" d="M348.15,166.8l-0.93-1.35c-0.12-0.16-0.34-0.2-0.51-0.09l-1.4,0.95c-0.17,0.12-0.21,0.34-0.1,0.51
		l0.87,1.34c0.11,0.17,0.34,0.21,0.51,0.11l1.48-0.93C348.23,167.21,348.27,166.98,348.15,166.8L348.15,166.8z"/>
	<path fill="#474A5D" d="M345.47,168.66l-0.95-1.36c-0.12-0.16-0.34-0.2-0.51-0.09l-1.4,0.95c-0.17,0.11-0.21,0.34-0.11,0.51
		l0.87,1.34c0.11,0.17,0.34,0.22,0.51,0.11l1.48-0.93C345.54,169.07,345.58,168.84,345.47,168.66L345.47,168.66z"/>
	<path fill="#474A5D" d="M347.15,159.7l-0.95-1.36c-0.12-0.16-0.34-0.2-0.51-0.09l-1.4,0.95c-0.16,0.12-0.21,0.34-0.1,0.51
		l0.87,1.34c0.11,0.16,0.33,0.21,0.5,0.11l1.48-0.93C347.22,160.1,347.26,159.87,347.15,159.7z"/>
	<path fill="#474A5D" d="M344.5,161.54l-0.95-1.36c-0.12-0.16-0.34-0.2-0.51-0.09l-1.4,0.95c-0.16,0.12-0.21,0.34-0.1,0.51
		l0.87,1.34c0.11,0.17,0.34,0.22,0.51,0.11l1.48-0.93C344.57,161.95,344.62,161.71,344.5,161.54L344.5,161.54z"/>
	<path fill="#474A5D" d="M341.82,163.39l-0.95-1.35c-0.12-0.16-0.34-0.2-0.51-0.09l-1.4,0.95c-0.16,0.11-0.21,0.34-0.11,0.51
		l0.87,1.34c0.11,0.17,0.34,0.22,0.51,0.11l1.48-0.93C341.89,163.81,341.94,163.58,341.82,163.39
		C341.82,163.4,341.82,163.4,341.82,163.39L341.82,163.39z"/>
	<path fill="#474A5D" d="M342.78,170.52l-0.95-1.35c-0.12-0.16-0.34-0.2-0.51-0.09l-1.4,0.94c-0.16,0.12-0.21,0.34-0.1,0.51
		l0.87,1.34c0.11,0.16,0.33,0.21,0.5,0.11l1.48-0.93C342.84,170.92,342.89,170.69,342.78,170.52z"/>
	<path fill="#474A5D" d="M340.1,172.38l-0.95-1.35c-0.12-0.16-0.34-0.2-0.51-0.09l-1.4,0.96c-0.16,0.11-0.21,0.34-0.11,0.51
		l0.87,1.34c0.11,0.17,0.34,0.22,0.51,0.11l1.48-0.93c0.18-0.11,0.23-0.34,0.12-0.52c0,0,0,0,0,0L340.1,172.38z"/>
	<path fill="#474A5D" d="M337.54,174.4l-1.18-1.68c-0.05-0.08-0.16-0.1-0.23-0.05c0,0,0,0,0,0l0,0l-1.71,1.16
		c-0.08,0.05-0.1,0.15-0.05,0.23c0,0,0,0,0,0l0,0l1.08,1.66c0.05,0.08,0.15,0.1,0.23,0.05l0,0l1.82-1.13
		c0.08-0.06,0.1-0.17,0.04-0.25L337.54,174.4z"/>
	<path fill="#474A5D" d="M335.17,176.04l-1.18-1.68c-0.06-0.08-0.16-0.09-0.24-0.04l-1.72,1.16c-0.08,0.06-0.1,0.16-0.05,0.24
		l1.08,1.66c0.05,0.08,0.16,0.1,0.24,0.05l1.82-1.13c0.08-0.04,0.12-0.14,0.07-0.23c0,0,0,0,0,0
		C335.18,176.06,335.17,176.05,335.17,176.04z"/>
	<path fill="#474A5D" d="M332.5,177.89l-1.18-1.68c-0.05-0.08-0.16-0.09-0.24-0.04l-1.72,1.16c-0.08,0.05-0.1,0.16-0.05,0.24
		l1.08,1.66c0.05,0.08,0.16,0.1,0.24,0.05l1.82-1.13c0.08-0.04,0.12-0.14,0.08-0.22C332.52,177.91,332.51,177.9,332.5,177.89z"/>
	<path fill="#474A5D" d="M329.93,179.67l-1.17-1.68c-0.05-0.08-0.16-0.1-0.23-0.05c0,0,0,0,0,0l0,0l-1.72,1.16
		c-0.08,0.05-0.1,0.16-0.05,0.24l1.08,1.66c0.05,0.08,0.16,0.1,0.24,0.05l1.82-1.13c0.08-0.05,0.11-0.15,0.06-0.23c0,0,0,0,0,0
		C329.95,179.69,329.94,179.68,329.93,179.67z"/>
	<path fill="#474A5D" d="M346.38,164.26l-0.95-1.36c-0.12-0.16-0.34-0.2-0.51-0.09l-1.4,0.95c-0.16,0.12-0.21,0.34-0.1,0.51
		l0.87,1.34c0.11,0.17,0.34,0.21,0.51,0.11l1.48-0.93C346.46,164.67,346.5,164.43,346.38,164.26L346.38,164.26z"/>
	<path fill="#474A5D" d="M343.7,166.12l-0.95-1.35c-0.12-0.16-0.34-0.21-0.51-0.1l-1.4,0.95c-0.16,0.12-0.21,0.34-0.1,0.51
		l0.87,1.34c0.11,0.16,0.33,0.21,0.5,0.11l1.48-0.93C343.77,166.52,343.82,166.29,343.7,166.12
		C343.7,166.12,343.7,166.12,343.7,166.12L343.7,166.12z"/>
	<path fill="#474A5D" d="M341.02,167.97l-0.96-1.35c-0.12-0.16-0.34-0.2-0.51-0.09l-1.37,0.94c-0.17,0.11-0.21,0.34-0.11,0.51
		l0.87,1.34c0.11,0.17,0.34,0.22,0.51,0.11l1.48-0.93C341.1,168.38,341.14,168.14,341.02,167.97
		C341.02,167.97,341.02,167.97,341.02,167.97L341.02,167.97z"/>
	<path fill="#474A5D" d="M338.34,169.83l-0.95-1.35c-0.12-0.16-0.34-0.2-0.51-0.09l-1.4,0.95c-0.16,0.12-0.21,0.34-0.1,0.51
		l0.87,1.34c0.11,0.16,0.33,0.21,0.5,0.11l1.48-0.93C338.41,170.24,338.46,170.01,338.34,169.83
		C338.34,169.83,338.34,169.83,338.34,169.83L338.34,169.83z"/>
	<path fill="#474A5D" d="M335.78,171.85l-1.18-1.68c-0.05-0.08-0.16-0.1-0.24-0.05c0,0,0,0,0,0l0,0l-1.72,1.16
		c-0.08,0.05-0.1,0.16-0.05,0.24l1.08,1.66c0.05,0.08,0.16,0.1,0.24,0.05c0,0,0,0,0,0l0,0l1.82-1.13c0.08-0.05,0.11-0.15,0.07-0.23
		c0,0,0,0,0,0C335.79,171.87,335.78,171.86,335.78,171.85z"/>
	<path fill="#474A5D" d="M333.4,173.5l-1.18-1.68c-0.05-0.08-0.16-0.1-0.23-0.05c0,0,0,0,0,0l0,0l-1.71,1.16
		c-0.08,0.05-0.1,0.16-0.05,0.24l1.08,1.66c0.05,0.08,0.16,0.1,0.24,0.05l1.82-1.13c0.08-0.05,0.11-0.16,0.05-0.24c0,0,0,0,0,0
		L333.4,173.5z"/>
	<path fill="#474A5D" d="M330.74,175.34l-1.18-1.68c-0.06-0.08-0.16-0.09-0.24-0.04l-1.72,1.16c-0.08,0.05-0.1,0.16-0.05,0.24
		l1.08,1.66c0.05,0.08,0.16,0.1,0.24,0.05l1.82-1.13c0.08-0.05,0.11-0.15,0.07-0.24c0,0,0,0,0,0
		C330.75,175.36,330.75,175.35,330.74,175.34z"/>
	<path fill="#474A5D" d="M328.17,177.12l-1.18-1.68c-0.05-0.08-0.16-0.1-0.24-0.05c0,0,0,0,0,0l0,0l-1.72,1.16
		c-0.08,0.05-0.1,0.16-0.05,0.24l0,0l1.08,1.66c0.05,0.08,0.16,0.1,0.23,0.05l0,0l1.82-1.13c0.08-0.05,0.11-0.16,0.06-0.24
		L328.17,177.12z"/>
	<path fill="#474A5D" d="M327.36,181.46l-1.18-1.68c-0.06-0.08-0.16-0.09-0.24-0.04l-1.73,1.16c-0.08,0.05-0.1,0.16-0.05,0.24
		l1.08,1.66c0.05,0.08,0.16,0.1,0.24,0.05l1.82-1.13c0.08-0.04,0.12-0.14,0.07-0.23c0,0,0,0,0,0
		C327.37,181.48,327.36,181.47,327.36,181.46z"/>
	<path fill="#474A5D" d="M324.78,183.24l-1.18-1.68c-0.05-0.08-0.16-0.1-0.24-0.05l0,0l-1.72,1.16c-0.08,0.05-0.1,0.16-0.05,0.24
		l1.08,1.66c0.05,0.08,0.16,0.11,0.24,0.05c0,0,0,0,0,0l0,0l1.82-1.13c0.08-0.04,0.12-0.14,0.07-0.23
		C324.8,183.26,324.79,183.25,324.78,183.24z"/>
	<path fill="#474A5D" d="M328.82,172.57l-1.11-1.59c-0.07-0.1-0.22-0.13-0.32-0.06l-1.64,1.1c-0.1,0.07-0.13,0.21-0.06,0.32
		l1.02,1.57c0.07,0.11,0.21,0.14,0.32,0.07l1.72-1.08c0.11-0.06,0.15-0.2,0.09-0.31L328.82,172.57z"/>
	<path fill="#474A5D" d="M326.25,174.35l-1.11-1.58c-0.07-0.1-0.21-0.13-0.32-0.06l0,0l-1.63,1.1c-0.1,0.07-0.13,0.21-0.06,0.32
		l1.02,1.57c0.07,0.11,0.21,0.14,0.32,0.07l1.72-1.08C326.29,174.61,326.32,174.46,326.25,174.35
		C326.25,174.35,326.25,174.35,326.25,174.35L326.25,174.35z"/>
	<path fill="#474A5D" d="M323.67,176.13l-1.13-1.59c-0.07-0.1-0.21-0.13-0.32-0.06l-1.63,1.1c-0.1,0.07-0.13,0.21-0.06,0.32
		l1.02,1.57c0.07,0.11,0.21,0.14,0.32,0.07l1.72-1.08c0.11-0.06,0.15-0.2,0.09-0.31L323.67,176.13z"/>
	<path fill="#474A5D" d="M321.13,177.97l-1.18-1.68c-0.06-0.08-0.16-0.09-0.24-0.04l-1.73,1.16c-0.08,0.06-0.1,0.16-0.05,0.24
		l1.08,1.66c0.05,0.08,0.16,0.1,0.24,0.05l1.82-1.13c0.08-0.05,0.11-0.15,0.07-0.23c0,0,0,0,0,0
		C321.14,177.98,321.14,177.98,321.13,177.97z"/>
	<path fill="#474A5D" d="M351.61,160.6l-1-1.45c-0.12-0.16-0.34-0.2-0.51-0.09l-4.01,2.79c-0.16,0.12-0.2,0.33-0.1,0.5l0.96,1.48
		c0.12,0.17,0.35,0.22,0.52,0.1c0,0,0,0,0,0l0,0l4.04-2.83C351.67,160.98,351.71,160.77,351.61,160.6z"/>
	<path fill="#474A5D" d="M325.58,178.85l-1.25-1.77c-0.05-0.08-0.16-0.1-0.24-0.05c0,0,0,0,0,0l0,0l-4.3,3.01
		c-0.08,0.05-0.1,0.16-0.05,0.24l1.18,1.82c0.05,0.08,0.16,0.1,0.24,0.05h0.01l4.37-3.06C325.62,179.04,325.64,178.93,325.58,178.85
		z"/>
	<path fill="#474A5D" d="M339.26,165.34l-1.13-1.68c-0.05-0.08-0.16-0.1-0.24-0.05l-9.55,6.44c-0.08,0.05-0.1,0.16-0.05,0.23l0,0
		l1.17,1.81c0.05,0.08,0.16,0.1,0.24,0.05h0.01l9.52-6.57C339.31,165.53,339.32,165.42,339.26,165.34
		C339.26,165.34,339.26,165.34,339.26,165.34z"/>
	<path opacity="0.1" enable-background="new    " d="M339.31,159.59l-5.08-7.38c-0.29-0.43-0.87-0.54-1.3-0.25l-13.98,9.39
		c-0.43,0.29-0.55,0.88-0.25,1.31l0,0l5.17,7.59c0.29,0.43,0.88,0.54,1.31,0.25c0,0,0,0,0,0h0.01l13.88-9.6
		C339.49,160.61,339.6,160.03,339.31,159.59L339.31,159.59z"/>
	<path fill="#929397" d="M339.54,159.64l-5.08-7.38c-0.29-0.42-0.87-0.53-1.3-0.25l-13.97,9.39c-0.43,0.29-0.55,0.87-0.26,1.3
		c0,0,0,0,0,0l0.01,0.01l5.16,7.58c0.29,0.43,0.88,0.54,1.31,0.25c0,0,0,0,0,0h0.01l13.89-9.6c0.42-0.3,0.53-0.88,0.23-1.3
		c0,0,0,0,0,0L339.54,159.64z"/>
	<path fill="#FFFFFF" d="M371.01,171.56l-10.77-3.59l-34.54,23.99l10.69,3.48c0.58,0.19,1.22,0.1,1.73-0.26l32.99-22.94
		c0.18-0.11,0.24-0.34,0.13-0.51C371.19,171.64,371.11,171.58,371.01,171.56L371.01,171.56z"/>
	<g>
		<polygon fill="none" points="239.97,173.8 239.97,173.8 239.97,173.79 		"/>
		<path fill="#B3B3B3" d="M240.98,121.1c0,0-2.39-3.14-1.13-5.9s-1-9.29-1-9.29l-3.26-14.56l-10.92-7.29h-3.64c0,0-0.75,7.66,0,9.92
			s1.13,1.93,0.88,3.6s1.76,4.23,1.76,4.23s0.25,6.31,1.51,8.66c1,1.86-0.45,8.86-1.1,11.68h16.91L240.98,121.1z"/>
		<path fill="#808080" d="M251.27,243.08c0.04-0.17,0.07-0.34,0.1-0.5h-14.04c0.43,1.19,0.77,2.13,0.77,2.13
			c-0.28,1.52-0.19,3.09,0.25,4.58c0.48,1.1,0.48,2.35,0,3.45l10.41,14.06l3.14-3.64L251.27,243.08z"/>
	</g>
</g>
</svg>
