<svg xmlns="http://www.w3.org/2000/svg" width="80" height="80" viewBox="0 0 80 80">
  <g>
    <g>
      <path fill="#CE153E" d="M21.09 23.46a2.85 2.85 0 0 0-2.31-1.22c-.68 0-1.01.26-1.01.64 0 1.27 5.16.68 5.16 4.11 0 1.58-1.14 2.85-2.89 3.28v1.63h-2.21v-1.53c-1.83-.2-2.84-1.02-3.41-1.93l1.93-1.81a2.85 2.85 0 0 0 2.41 1.24c.82 0 1.25-.26 1.25-.76 0-1.33-5.16-.71-5.16-4.15 0-1.6 1.2-2.82 2.98-3.16v-1.58h2.21v1.6c1.27.25 2.27.92 2.88 1.81l-1.83 1.83zm7.78 3.35c0-.76-.59-1.27-1.5-1.27-.76 0-1.32.23-1.76.49l-1.19-.87.83-5.39h5.64v2.32h-3.46l-.21 1.27c.21-.05.58-.07.76-.07 2.14 0 3.56 1.42 3.56 3.56 0 2.23-1.63 3.72-4.11 3.72-1.78 0-3.08-.79-3.74-1.88l1.93-1.71c.48.76 1.09 1.1 1.76 1.1.9.02 1.49-.49 1.49-1.27zm5.36 5.37H32l.99-4.73h2.72l-1.48 4.73zm2.82-7.12c0-3.2 1.81-5.54 4.29-5.54 2.59 0 4.45 2.34 4.42 5.52.03 3.2-1.78 5.54-4.29 5.54-2.56.01-4.42-2.33-4.42-5.52zm6.05.01c0-1.83-.66-3.05-1.75-3.05-.99 0-1.65 1.2-1.65 3.03 0 1.85.68 3.05 1.71 3.05 1.04 0 1.69-1.2 1.69-3.03zm3.74 0c0-3.2 1.81-5.54 4.29-5.54 2.59 0 4.45 2.34 4.42 5.52.03 3.2-1.78 5.54-4.29 5.54-2.56 0-4.42-2.34-4.42-5.52zm6.05 0c0-1.83-.66-3.05-1.75-3.05-.99 0-1.65 1.2-1.65 3.03 0 1.85.68 3.05 1.71 3.05 1.05 0 1.69-1.2 1.69-3.03zm3.74 0c0-3.2 1.81-5.54 4.29-5.54 2.59 0 4.45 2.34 4.42 5.52.03 3.2-1.78 5.54-4.29 5.54-2.56 0-4.42-2.34-4.42-5.52zm6.05 0c0-1.83-.66-3.05-1.75-3.05-.99 0-1.65 1.2-1.65 3.03 0 1.85.67 3.05 1.71 3.05 1.05 0 1.69-1.2 1.69-3.03z"/>
    </g>
    <g>
      <path fill="#CE153E" d="M10.69 10.33h1.95c.86 0 1.53.56 1.53 1.32 0 .58-.42.92-.75 1.05.49.15.91.54.91 1.18 0 .73-.6 1.36-1.56 1.36H10.7v-4.91h-.01zm.69.61v1.5h1.19c.5 0 .87-.32.87-.74s-.38-.75-.87-.75h-1.19v-.01zm0 2.08v1.6h1.3c.53 0 .93-.35.93-.8s-.4-.8-.92-.8h-1.31zm6.96.96H16l-.51 1.26h-.73l2.02-4.92h.81l2.02 4.92h-.77l-.5-1.26zm-1.17-2.92-.92 2.3h1.85l-.93-2.3zm3.31-.74h.69v4.26h2.55v.65h-3.24v-4.91zm4.1 0h.69v4.26h2.55v.65h-3.24v-4.91zM33 12.79c0 1.4-1.14 2.54-2.52 2.54a2.53 2.53 0 0 1-2.51-2.55 2.53 2.53 0 0 1 2.51-2.55A2.55 2.55 0 0 1 33 12.79zm-.74 0c0-1.04-.8-1.88-1.79-1.88-.98 0-1.78.84-1.78 1.87s.8 1.86 1.78 1.86c.99.01 1.79-.83 1.79-1.85zm3.3-1.81v4.26h-.69v-4.26h-1.56v-.65h3.81v.65h-1.56zm5.09.49c-.3-.37-.75-.58-1.22-.58-.59 0-.96.26-.96.66 0 1.08 2.74.59 2.74 2.34 0 .87-.71 1.45-1.8 1.45-.92 0-1.52-.36-1.86-.84l.5-.47c.33.43.8.65 1.36.65.67 0 1.06-.29 1.06-.75 0-1.2-2.75-.67-2.75-2.36 0-.79.7-1.33 1.72-1.33.77 0 1.39.34 1.69.76l-.48.47zm5.02-.49v4.26h-.69v-4.26h-1.56v-.65h3.81v.65h-1.56zm6.91 1.81c0 1.4-1.14 2.54-2.52 2.54s-2.51-1.14-2.51-2.55 1.13-2.55 2.51-2.55 2.52 1.15 2.52 2.56zm-.74 0c0-1.04-.8-1.88-1.79-1.88-.98 0-1.78.84-1.78 1.87s.8 1.86 1.78 1.86c.99.01 1.79-.83 1.79-1.85zm10.31-2.47-1.58 4.92h-.86l-1.16-4.05-1.17 4.05h-.83l-1.58-4.92h.77l1.23 4.07 1.17-4.07h.87l1.17 4.08 1.23-4.08h.74zm.94 0h.69v4.92h-.69v-4.92zm2.76 1.13v3.79h-.7v-4.92h.75l2.72 3.81v-3.81h.69v4.92h-.75l-2.71-3.79z"/>
    </g>
    <g>
      <path fill="#CE153E" d="M20.83 35.08v7.46h-1.21v-7.46H16.9v-1.14h6.67v1.14h-2.74zm4.15-1.14h3.01c1.89 0 3.14 1.02 3.14 2.59 0 1.22-.77 2.12-2 2.46l2.15 3.56h-1.4l-2.01-3.41h-1.68v3.41h-1.21v-8.61zm1.21 1.09v3.02h1.91c1.06 0 1.77-.6 1.77-1.52 0-.91-.71-1.5-1.77-1.5h-1.91zm12.39 5.32h-4.11l-.89 2.2H32.3l3.54-8.6h1.42l3.54 8.6h-1.36l-.86-2.2zm-2.06-5.12-1.61 4.03h3.23l-1.62-4.03zm8.08 5.98 2.69-7.26h1.26l-3.28 8.6h-1.42l-3.27-8.6h1.36l2.66 7.26zm5.49-7.26h5.46v1.14H51.3v2.58h3.72v1.14H51.3v2.6h4.25v1.14h-5.46v-8.6zm7.27 0h1.21v7.46h4.46v1.14h-5.66l-.01-8.6zM25.02 49.06l1.53-4.15h.72l-1.87 4.91h-.81l-1.87-4.92h.77l1.53 4.16zm7.57-1.68c0 1.4-1.14 2.54-2.52 2.54a2.52 2.52 0 0 1-2.51-2.53v-.02a2.54 2.54 0 0 1 2.52-2.55 2.54 2.54 0 0 1 2.51 2.56zm-.74 0c0-1.04-.8-1.88-1.79-1.88-.98 0-1.78.84-1.78 1.87s.8 1.86 1.78 1.86a1.8 1.8 0 0 0 1.79-1.81v-.04zm1.8-2.46h.7v3c0 .8.49 1.33 1.23 1.33s1.23-.53 1.23-1.33v-3h.7v3c0 1.21-.77 2.01-1.93 2.01s-1.92-.8-1.92-2.01l-.01-3zm8.71 1.06a1.93 1.93 0 0 0-1.3-.47c-.98 0-1.77.84-1.77 1.87s.79 1.86 1.83 1.86c.48 0 .94-.16 1.24-.45l.45.51c-.45.44-1.01.63-1.74.63a2.5 2.5 0 0 1-2.52-2.5v-.05a2.53 2.53 0 0 1 2.51-2.55c.78 0 1.33.22 1.76.61l-.46.54zm4.81 1.69h-2.74v2.16h-.69v-4.92h.69v2.1h2.74v-2.1h.7v4.92h-.7v-2.16zm2.08-2.75h3.12v.65h-2.43v1.47h2.12v.65h-2.12v1.49h2.43v.65h-3.12v-4.91zm4.16 0h1.72c1.08 0 1.79.58 1.79 1.48 0 .7-.44 1.21-1.14 1.4L57 49.84h-.8l-1.15-1.95h-.96v1.95h-.69l.01-4.92zm.69.62v1.73h1.09c.61 0 1.01-.35 1.01-.87s-.41-.86-1.01-.86H54.1z"/>
    </g>
  </g>
</svg>
