<svg xmlns="http://www.w3.org/2000/svg" width="80" height="100" viewBox="0 0 268 330">
  <g fill="#CE153E">
    <path d="M49.05 152.99c.57-1.33.38-2.65.38-4.17-.19-1.7.76-3.79.95-5.68 0-1.7.76-3.22 1.14-5.11l.57-4.35c.95-2.46 1.14-4.92 2.09-7.57-.19-.19 0-.19 0-.38.95-2.46 7.77-23.48 8.34-24.05.95-2.65 1.52-4.92 2.65-7.76.19-1.14 1.33-2.84 1.7-4.35 1.52-2.65 2.08-5.3 3.22-7.76.38-.19.38-.19.38-.38 1.52-4.36 2.84-8.33 4.74-12.31 1.52-3.41 3.03-6.82 3.98-10.79l.38-1.7c0-.76.38-1.33.19-2.27 0-.76.76-1.14 1.89-1.51 1.89-.19 3.79.76 5.3 1.52.38.38.95 1.14.38 1.89-1.52 5.11-3.41 9.47-5.49 14.77l-4.36 10.41c-.19.38-.19.95-.57 1.33-.95 2.46-1.52 4.54-2.84 6.82-1.7 3.6-2.46 7.19-4.36 10.79-.57 1.7-1.33 3.41-1.89 5.3-.76 2.46-5.12 14.2-6.44 19.88a31.46 31.46 0 0 0-1.52 5.68 23.44 23.44 0 0 1-1.71 6.25c-.95 4.35-1.89 7.57-1.71 10.6 0 2.27-.76 4.54-.57 7.01.19.76-.19 1.14-.38 1.89-.57 2.08 0 4.54.76 6.82.19.19.38.19.38.38 0 .38.38.76.57.57 2.65-1.32 3.79 3.98-1.7 3.79-1.7 0-3.03-.76-3.98-1.71-1.7-1.33-1.89-3.03-2.46-4.92.57-2.46-.19-4.92-.19-7.2-.19-.79-.01-1.54.18-1.73zM87.49 145.23c-3.79-1.89-5.3-2.84-6.44-7.2a10.88 10.88 0 0 1-.76-7.01l1.71-6.06c1.14-2.27 2.65-4.92 3.41-7.19.19 0-.19-.38 0-.57.19-.38 1.33-.76 1.7-.57.95.57 1.7.76 2.46 1.33.19.19.19.38.57.57 1.51 1.51 1.7 2.46.38 4.54l-3.22 7.38c-.76 2.27-1.52 4.54-1.14 6.82.38 4.36 5.49 4.36 9.09 3.79 7.2-1.13 17.61-5.87 22.73-10.03 2.84-2.65.38 0 4.17-3.03.76-.76 2.65-2.08 3.41-2.84 2.08-1.14 5.87-5.49 7.2-3.22.38.95-.95 2.46-.19 3.79l-.38 1.14c-.38 1.14-1.33 1.33-2.46 1.51-1.7 1.51-3.22 2.65-4.74 4.35-4.92 3.79-5.3 3.98-9.09 6.44 0 .19-1.89.57-2.08.76-1.71 1.89-3.79 2.27-7.58 3.97-3.79.95-9.09 3.22-14.01 2.46-1.33.01-2.84-.56-4.74-1.13zm5.5-42.22c-.57-.19-.76-.57-1.14-.95-.57-.95-.76-2.27-.57-3.41.57-2.08.76-3.98 2.27-6.06 0-.38.19-.76.38-.57a4.25 4.25 0 0 1 1.89-.57c1.14.38 2.08.95 3.22 2.08 1.14.76.76 1.52.57 2.84 0 .38-.38.76-.57 1.33-.76.95-1.52 2.08-2.27 3.6.38.19.38.38-.19.57a2.81 2.81 0 0 1-2.65 1.51c-.37-.18-.75-.37-.94-.37z"/>
    <path d="M161.34 108.33c-.19 0-.95-.19-.95.19-1.52.38-5.49.38-6.82.57-3.6.57-9.09 1.51-13.63 2.65-1.14.19-1.89 1.32-2.65 2.27l-.38 1.33c-1.7 4.73-3.22 9.66-4.55 14.39-1.14 5.3-2.46 10.41-3.79 15.72-.19 1.14-.19 2.27-.57 3.41-.57 2.08-.76 4.17-1.52 6.25 0 1.89-.57 3.98-.76 5.87v1.52c.19.57.38 1.14-.19 1.89-.38 2.08-.19 4.36-.19 6.63l.19 1.33a18 18 0 0 0 1.51 6.06c.19 0 .19.19.19.19.19.38-.19 1.13-.57 1.13-.57.19-1.33.19-2.08.19a3.4 3.4 0 0 1-2.84-1.33l-1.7-3.41-.38-1.14c.19-1.14 0-2.27-.38-3.22.19-2.08.19-3.98.19-5.87l1.14-9.47c-.19-.76-.19-1.51.38-2.27 0-1.7.95-3.22.57-5.11 0-.38.57-.76.38-1.14l2.27-8.9c0-1.52.38-3.03.95-4.54 0-1.14 0-2.27.19-3.41.19-1.14.95-1.89 1.33-2.65.38-2.08 1.14-4.54 1.71-6.82a7.65 7.65 0 0 1 1.33-3.6v-.19c.38-.38.57-2.27.38-2.27-.19 0-1.33 0-1.52.19a73.8 73.8 0 0 0-8.71 2.08c-2.27.95-1.32-.76-3.6.57l-2.27.76c-.57.19-1.33.38-1.7-.19-.76-.76.19-1.33-.38-2.46-.19-.95-.19-2.08.57-2.46.19 0 .19-.19.38-.19 2.65-.76 3.22-.38 6.06-1.51 1.7-.19.95-.19 2.84-.76 1.7-.57 4.73-1.51 7.2-1.7.95-.95 1.7-.76 2.65-.76.57-.38 1.51-.95 1.52-1.89l.38-.38c.19-1.33.38-2.65 1.52-3.98.38-1.14.95-2.46 1.14-3.98.38-.57.38-.95.57-1.33.57-.76 1.14-2.08 1.7-3.22l1.52-3.22c.38-1.7 1.33-3.41 1.89-4.92 1.33-2.65 2.46-5.68 4.17-8.71.95-1.89 2.08-3.98 3.03-6.25a62.01 62.01 0 0 1 5.11-8.33l1.14-2.27a30.9 30.9 0 0 1 5.11-6.06l2.08-1.32a5.26 5.26 0 0 1 4.36-.95h.19c5.11.95 7.95 3.6 9.84 7.96a9.17 9.17 0 0 1 1.13 4.36c.38 1.14 0 2.08-.57 2.84-.76.95-1.89 1.14-2.65.95-1.89-1.14-3.41-2.08-3.41-4.54-.19-1.52-.95-2.84-1.89-4.17a1.93 1.93 0 0 0-1.32-1.14c-1.33 0-2.46.57-3.41 1.51a10.35 10.35 0 0 0-3.03 3.41 73.3 73.3 0 0 0-9.09 14.96c-1.7 3.6-3.79 7.01-5.3 10.79-.57 1.7-1.33 3.98-2.27 5.68-.95 2.08-2.08 4.54-2.84 6.82l-1.14 3.6c-.19.38-1.32 1.33-.95 1.52l10.79-1.89c2.08 0 6.63 0 8.52.19 1.33 0 2.27.38 3.22.57.75 1.1 1.13 3.94-1.34 3.57zM162.47 145.82c-2.84-2.84-5.87-6.06-5.3-10.04 0-.38.19-2.65.57-3.22l.38-1.14c1.33-3.03 1.33-3.03 3.03-5.87a41.97 41.97 0 0 1 15.91-14.01c.38 0 .95-.19 1.52-.57 1.89-.76 4.54.57 5.68 1.89l.76 1.89c.38 2.84-.38 5.49-2.27 7.38-2.84 3.22-5.87 6.44-9.47 9.09-.57.57-1.52.95-2.08 1.51-.76.76-2.08.76-3.22.95-.95.57-1.89.38-2.65-.57l-.76-.57s-.57 0-.57.19c-1.14 1.7-1.14 4.36-1.14 6.06.19.76.57 1.33 1.33 2.08.95 1.33 2.46 1.7 3.79 1.71.76.19 1.33.19 2.08.19 2.08-.19 4.54 0 7.01-.94 9.28-2.27 16.48-5.87 24.24-9.27 3.98-1.89 7.2-3.97 10.8-5.68 2.27-1.32 1.89-1.14 4.36-2.84 1.33-1.14.76-.57 2.65-1.32.38-.38.19 0 .38.76.19.95.95 2.65 0 3.41-1.7 1.7-.57 1.14-2.27 2.65-3.79 2.84-7.57 4.54-11.55 7-2.65 1.32-5.11 2.65-7.39 3.6-5.11 2.08-10.23 4.35-15.72 5.68l-5.49 1.51c-2.84.76-3.6.76-6.63.76-2.68-.38-5.9-.57-7.98-2.27zm17.05-28.4c-.19 0-.57.19-.76.19-4.74 2.08-8.33 4.54-10.23 8.9-.38.19-.38.76-.57 1.33 4.17-2.47 8.15-6.26 11.56-10.42z"/>
  </g>
  <g fill="#CE153E">
    <path d="M2.91 3.4h24.43v9.08H12.58v5.97H25v9.08H12.58v13.41H2.92L2.91 3.4zM32.61 3.4h13.65c9.55 0 15.87 4.92 15.87 12.42 0 4.86-2.58 8.67-6.97 10.78l7.9 14.35H51.87l-6.44-12.54h-3.16v12.53h-9.66V3.4zm9.66 8.5v8.02h4.74c2.93 0 4.86-1.64 4.86-4.1 0-2.34-1.93-3.92-4.86-3.92h-4.74zM68.34 3.41l24.95.01v9.08H78v4.92h12.94v9.08H78v5.39h15.29v9.08l-24.95-.01V3.41zM98.56 3.42l24.95.01v9.08h-15.29v4.92h12.94v9.08h-12.94v5.39h15.29v9.08l-24.95-.01V3.42zM140.5 3.43l24.42.01v9.08h-14.76v5.97h12.42v9.08h-12.42v13.41h-9.66V3.43zM169.9 3.44h9.66V24.7c0 4.51 2.57 7.5 6.5 7.5 3.81 0 6.33-2.93 6.33-7.44V3.44h9.66v21.5c0 10.19-6.45 16.93-16.17 16.92-9.61 0-15.99-6.74-15.99-16.93l.01-21.49zM208.8 3.45l24.95.01v9.08h-15.29v4.92h12.94v9.08h-12.94v5.39h15.29v9.08L208.8 41V3.45zM239.02 3.45h9.66l-.01 28.47h17.04V41h-26.7l.01-37.55z"/>
  </g>
  <g fill="#CE153E">
    <path d="M94.62 51.92h10.82v2.32h-8.37v5.48h7.28v2.32h-7.28v7.33h-2.45V51.92zM125.3 60.68a9 9 0 0 1-8.97 9.02 9 9 0 0 1-8.94-9.05 9.01 9.01 0 0 1 8.94-9.07 9.05 9.05 0 0 1 8.97 9.1zm-2.62 0c0-3.68-2.83-6.68-6.35-6.68-3.49 0-6.32 2.97-6.32 6.65 0 3.65 2.83 6.62 6.32 6.62a6.48 6.48 0 0 0 6.35-6.59zM129.27 51.9h6.1c3.84 0 6.38 2.07 6.38 5.26 0 2.48-1.55 4.3-4.06 4.99l4.36 7.22h-2.83l-4.09-6.92h-3.41v6.92h-2.45V51.9zm2.46 2.21v6.13h3.87c2.15 0 3.6-1.23 3.6-3.08s-1.44-3.05-3.6-3.05h-3.87z"/>
  </g>
  <g>
    <path fill="#CE1F3F" d="M117.91 274.38a17.44 17.44 0 0 0-14.99 26.24 17.44 17.44 0 0 0 23.84 6.19 17.38 17.38 0 0 0 7.57-9.16l.61-1.71 1.78-.39c9.04-1.99 19.85-4.49 28.46-6.49-8.83-1.07-19.94-2.39-29.17-3.4l-1.76-.19-.81-1.57-.49-.91a17.4 17.4 0 0 0-15.04-8.61zm.05 29.09a11.57 11.57 0 0 1-10.08-5.76 11.69 11.69 0 0 1 20.13-11.84 11.62 11.62 0 0 1 1.24 8.85 11.71 11.71 0 0 1-11.29 8.75z"/>
  </g>
  <g>
    <path fill="#CE1F3F" d="M214.24 304.64h26.45c1.37 0 2.48-1.1 2.49-2.45v-.06c0-29.47-11.48-57.17-32.31-78.01a109.59 109.59 0 0 0-78.01-32.31 109.63 109.63 0 0 0-78.01 32.31 109.58 109.58 0 0 0-32.32 78.02v.06a2.48 2.48 0 0 0 2.49 2.45h29.65c.55-.54.87-1.3.87-2.08v-.43a2.91 2.91 0 0 0-2.91-2.91H28.34l.21-3.48a103.4 103.4 0 0 1 10.73-40.24l1.59-3.19 20.78 12.57a2.94 2.94 0 0 0 4.03-1.03l.15-.25a2.92 2.92 0 0 0-.99-4.1l-21.07-12.17 1.94-2.91a105.72 105.72 0 0 1 29.44-29.44l2.97-1.98 11.71 21.27a2.92 2.92 0 0 0 4.01 1.12l.37-.21a2.92 2.92 0 0 0 1.07-3.98l-12.17-21.08 3.12-1.56a103.4 103.4 0 0 1 40.24-10.73l3.55-.21-.49 24.09a2.9 2.9 0 0 0 2.91 3.11h.43a2.91 2.91 0 0 0 2.91-2.91v-24.29l3.48.21c13.99.84 27.4 4.38 39.85 10.54l3.14 1.55L170.09 231a2.92 2.92 0 0 0 5.02 2.96l12.62-20.87 2.85 1.9a106.28 106.28 0 0 1 29.2 29.07l1.96 2.92-21.06 12.16a2.92 2.92 0 0 0 2.86 5.07l21.37-11.77 1.53 3.06a103.38 103.38 0 0 1 10.71 39.81l.22 3.49h-24.13a3.02 3.02 0 0 0-3.05 2.77c-.04.8.24 1.55.78 2.13.54.58 1.28.91 2.07.92l1.2.02z"/>
  </g>
</svg>
