<svg xmlns="http://www.w3.org/2000/svg" width="582" height="514" viewBox="0 0 582 514">
  <path d="M531.18 254.13c31.98-35 43.29-83.26 48.1-129.22v.05A584.37 584.37 0 0 0 582 66.27c.17-8.51-7.55-15.89-16.04-15.34a3296.41 3296.41 0 0 1-91.83 2.5c-.98-16.02-2.83-32-5.58-47.73H120.8a433.37 433.37 0 0 0-5.58 47.72c-33.2-.32-92.99-2.44-91.23-2.49-8.49-.55-16.23 6.83-16.05 15.34 0 21.19.9 40.72 2.72 58.69v-.05c9.39 95.55 47.32 163.6 150.34 177.92 7.7 1.16 15.44 2.03 23.21 2.69 24.57 30.03 54.21 50.28 86.56 57.03-.14 5.03-.43 10.05-.78 15.05-3 40.93-12.62 76.76-26.28 101.59h-21.77A34.82 34.82 0 0 0 187.11 514h215.33a34.81 34.81 0 0 0-34.83-34.81h-21.77c-15.4-26.85-26.18-74.56-27.07-116.68 34.14-7.03 64.35-29.8 86.34-56.94 7.98-.66 15.94-1.55 23.84-2.74 39.58-5.57 77.66-21.08 102.24-48.7Zm-102.89 17.63c31.22-55.92 45.51-115.49 46.67-187.64a3612.82 3612.82 0 0 0 76.14-1.89c-4.66 104.13-22.25 162.56-103.54 185.47a222.24 222.24 0 0 1-19.27 4.06ZM87.35 239.38c-31.15-28.89-46.7-79.05-48.51-157.15 13.95.5 35.82 1.18 61.31 1.65l14.23.23c.47 72.14 18.02 137.84 46.6 187.53a222.3 222.3 0 0 1-18.61-3.94c-23.26-6.04-40.99-15.31-55.02-28.32Z" opacity=".3"/>
  <path fill="#d19f00" d="M235.76 473.49c16.62-30.22 27.27-76.73 27.27-128.89 0-4.82-.09-9.59-.27-14.3h48.11c-.17 4.71-.27 9.48-.27 14.3 0 52.16 10.65 98.67 27.27 128.89H235.75Z"/>
  <path fill="#ce8900" d="M310.61 344.6c0-4.82.09-9.59.27-14.3h-48.11a368.66 368.66 0 0 1-.73 41.6s23.15-14.16 49.56 0c-.65-8.88-1-18-1-27.3Z"/>
  <path fill="#edb700" d="M274.77 330.3h-6.91c.14 4.71.21 9.48.21 14.3 0 52.16-8.4 98.67-21.51 128.89h14.68c8.33-30.22 13.67-76.73 13.67-128.89 0-4.82-.05-9.59-.14-14.3Z"/>
  <path fill="#ce8900" d="M337.89 473.49h-25.48c-8.33-30.22-13.66-76.73-13.66-128.89 0-4.82.05-9.59.13-14.3h12c-.17 4.71-.27 9.48-.27 14.3 0 52.16 10.65 98.67 27.27 128.89Z"/>
  <path fill="#d19f00" d="M220.72 301.59h-.06c-37.56-.14-66.44-3.01-90.9-9.02-29.31-7.2-52.61-19.1-71.24-36.38C18.6 219.17 0 157.01 0 60.57a15.36 15.36 0 0 1 16.04-15.34c1.18.05 118.97 5.21 203.97 1.32a15.35 15.35 0 0 1 16.06 15.34v224.35a15.37 15.37 0 0 1-15.36 15.36ZM30.9 76.54c1.82 78.1 17.36 128.26 48.51 157.15 25.75 23.88 63.89 35.19 125.94 36.95V77.85c-64.66 2.08-141.56-.14-174.46-1.31Z"/>
  <path fill="#f8b805" d="M2.59 117.95z"/>
  <path fill="#ce8900" d="M220.01 46.55c-40.75 1.87-89.04 1.65-128.41.92-.07 9.16.08 19.48.6 30.72 34.62.63 75.91.86 113.15-.34v192.79c-28.23-.8-51.5-3.59-70.92-8.63a369.4 369.4 0 0 0 18.62 35.12c19.25 2.92 41.3 4.35 67.6 4.45h.06a15.36 15.36 0 0 0 15.36-15.36V61.89a15.36 15.36 0 0 0-16.06-15.34Z"/>
  <path fill="#edb700" d="M14.29 53.51a4.42 4.42 0 1 0-8.84 0 4.42 4.42 0 0 0 8.84 0Z"/>
  <path fill="#ce8900" d="m236.08 281.75-.32.05C40.27 313.76 7.93 161.87 2.72 119.21c6.47 63.87 24.64 108.09 55.8 136.99 18.63 17.28 41.93 29.17 71.24 36.38 24.46 6.01 53.34 8.87 90.9 9.02h.06a15.36 15.36 0 0 0 15.36-15.36v-4.48Z"/>
  <path fill="#edb700" d="M97.33 257.12a3 3 0 0 1-1.27-.28c-23.98-11.22-43.37-33.28-56.08-63.8-9.53-22.91-11.96-42.23-12.06-43.04a3 3 0 0 1 5.97-.72c.02.19 2.45 19.44 11.7 41.61 8.45 20.25 24.51 47.19 53.01 60.52a3 3 0 0 1-1.27 5.72Z"/>
  <circle cx="27.82" cy="135.53" r="4.97" fill="#edb700" transform="translate(-.52 .11) rotate(-.22)"/>
  <path fill="#cf9100" d="M30.9 76.54s-.47-7.36 9.98-7.88c10.45-.52 164.48 0 164.48 0v9.2L30.9 76.55Z"/>
  <path fill="#d19f00" d="M342.5 297.11a15.37 15.37 0 0 1-4.52-10.88V61.89a15.36 15.36 0 0 1 16.06-15.34c85 3.89 202.79-1.27 203.97-1.32a15.36 15.36 0 0 1 16.04 15.34c0 96.44-18.6 158.6-58.52 195.63-18.63 17.28-41.93 29.17-71.24 36.38-24.46 6.01-53.34 8.87-90.9 9.02h-.06c-4.06 0-7.96-1.61-10.84-4.48Zm26.2-219.26v192.79c62.05-1.77 100.19-13.07 125.94-36.95 31.15-28.89 46.7-79.05 48.51-157.15-32.9 1.18-109.8 3.4-174.46 1.31Z"/>
  <path fill="#ce8900" d="M354.04 46.55c40.75 1.87 89.04 1.65 128.41.92.07 9.16-.08 19.48-.6 30.72-34.62.63-75.91.86-113.15-.34v192.79c28.23-.8 51.5-3.59 70.92-8.63A369.4 369.4 0 0 1 421 297.13c-19.25 2.92-41.3 4.35-67.6 4.45h-.06a15.36 15.36 0 0 1-15.36-15.36V61.89a15.36 15.36 0 0 1 16.06-15.34Z"/>
  <path fill="#edb700" d="M492.06 56.51h57.49a3 3 0 1 0 0-6h-57.49a3 3 0 1 0 0 6ZM22.53 56.51h57.49a3 3 0 1 0 0-6H22.53a3 3 0 1 0 0 6Z"/>
  <path fill="#ce8900" d="m337.98 281.75.32.05c195.49 31.96 227.84-119.93 233.04-162.6-6.47 63.87-24.64 108.09-55.8 136.99-18.63 17.28-41.93 29.17-71.24 36.38-24.46 6.01-53.34 8.87-90.9 9.02h-.06a15.36 15.36 0 0 1-15.36-15.36v-4.48Z"/>
  <path fill="#edb700" d="M476.73 257.12a3 3 0 0 0 1.27-.28c23.98-11.22 43.37-33.28 56.08-63.8 9.53-22.91 11.96-42.23 12.06-43.04a3 3 0 0 0-5.97-.72c-.02.19-2.45 19.44-11.7 41.61-8.45 20.25-24.51 47.19-53.01 60.52a3 3 0 0 0 1.27 5.72Z"/>
  <circle cx="546.24" cy="135.53" r="4.96" fill="#edb700" transform="translate(408.61 681.24) rotate(-89.78)"/>
  <path fill="#ce8900" d="M543.16 76.54s.47-7.36-9.98-7.88c-10.45-.52-164.48 0-164.48 0v9.2l174.46-1.31Z"/>
  <path fill="#f8b805" d="M112.86 0a438.83 438.83 0 0 0-6.44 75.45c0 156.79 80.73 283.89 180.31 283.89s180.31-127.1 180.31-283.89c0-26.13-2.24-51.42-6.44-75.45H112.86Z"/>
  <path fill="#d19f00" d="M112.86 0a438.83 438.83 0 0 0-6.44 75.45c0 156.79 80.73 283.89 180.31 283.89s180.31-127.1 180.31-283.89c0-26.13-2.24-51.42-6.44-75.45H112.86Z"/>
  <path fill="#ce8900" d="M460.61 0h-65a695.35 695.35 0 0 1 4.03 75.45c0 156.79-50.55 283.89-112.91 283.89 99.58 0 180.31-127.1 180.31-283.89 0-26.13-2.24-51.42-6.44-75.45Z"/>
  <path fill="#edb700" d="M173.82 75.45c0-26.13 1.41-51.42 4.03-75.45h-44.47a496.69 496.69 0 0 0-5.68 75.45c0 156.79 71.2 283.89 159.02 283.89-62.36 0-112.91-127.1-112.91-283.89Z"/>
  <path fill="#d19f00" d="M359.66 473.49H213.99a34.82 34.82 0 0 0-34.83 34.81h215.33a34.81 34.81 0 0 0-34.83-34.81Z"/>
  <path fill="#edb700" d="M213.99 476.1h145.67a34.82 34.82 0 0 1 34.72 32.2h.11a34.81 34.81 0 0 0-34.83-34.81H213.99a34.82 34.82 0 0 0-34.83 34.81h.11a34.82 34.82 0 0 1 34.72-32.2Z"/>
  <path fill="#ce8900" d="M394.49 508.3h-38.95c0-19.23-9.95-34.81-22.23-34.81h26.35a34.83 34.83 0 0 1 34.83 34.81Z"/>
  <path fill="#edb700" d="M257 473.49h-28.75a34.82 34.82 0 0 0-34.83 34.81h28.75A34.81 34.81 0 0 1 257 473.49Z"/>
  <path fill="#cb7600" d="M466.99 68.42h15.23L481.9 77l-14.85.11-.06-8.69zM408.05 285.48s10.32-.71 21.13-2.65a397.42 397.42 0 0 1-8.17 14.3c-3.89.57-15.81 2.15-23.83 2.74 1.73-2.15 7.49-9.43 10.87-14.39ZM91.84 68.42h14.63v8.69L92.16 77l-.32-8.58zM144.89 282.84s6.93 1.44 20.5 2.6c2.58 3.63 7.3 10.14 10.87 14.39-2.88-.25-15.32-1.39-23.19-2.69-3.56-5.81-8.17-14.3-8.17-14.3ZM298.88 358.71s3.86-.27 11.93-1.88c.23 7.97.8 15.07.8 15.07s-4.91-2.96-12.53-4.84c-.11-4.11-.2-8.35-.2-8.35Z"/>
  <path fill="#eca601" d="M267.89 357.81s2.69.47 6.89.92c-.06 3.11-.2 8.38-.2 8.38s-4.22.99-7.14 2.25c.1-2.1.46-11.54.46-11.54Z"/>
</svg>
