<svg xmlns="http://www.w3.org/2000/svg" xmlns:xlink="http://www.w3.org/1999/xlink" viewBox="0 0 190 240">
  <defs>
    <linearGradient id="linear-gradient" x1="89.74" x2="82.02" y1="112.43" y2="97.35" gradientTransform="translate(19.8 -42.95) rotate(11.33)" gradientUnits="userSpaceOnUse">
      <stop offset="0" stop-color="#b77737"/>
      <stop offset="1" stop-color="#332114"/>
    </linearGradient>
    <linearGradient xlink:href="#linear-gradient" id="linear-gradient1" x1="137.44" x2="146.38" y1="103.21" y2="87.08"/>
  </defs>
  <path fill="#965923" d="M85.95 238.88s15.87-3.82 28.75-21.39c15.43-21.04 21.39-47.33 25.59-56.8 4.21-9.47 3.51-29.1 1.75-28.05s-48.73 80.64-48.73 80.64l-14.73 18.23 7.36 7.36Z"/>
  <path fill="url(#linear-gradient)" d="M104.57 75.03c.16-.77 6.26-37.9-.14-43.47-6.39-5.57-16.66 5.51-33.27 12.1-16.61 6.59-26.04 4.17-27.65 12.16-1.6 7.99 12.63 15.94 25.73 16.15 13.1.21 21.66-7.73 21.66-7.73l2.32 11.19 11.35-.41Z"/>
  <path fill="#965923" d="M22.57 220.58c.1.82 7.95 12.68 23.66 17.08 23.62 6.61 37.03-5.45 37.03-5.45S50.78 218.99 50 218.84c-.77-.16-27.44 1.74-27.44 1.74Z"/>
  <path fill="#b77737" d="M154.99 127.24c2.44-12.16 5.74-27.28-5.55-36.51-11.29-9.24-44.44-21.78-59.66-16.79-15.22 5-22.09 35.26-33.13 50.21-11.04 14.95-45.55 34.58-53.86 57.32-8.31 22.74 3.8 37.24 12.98 40.95 9.18 3.72 21.25 1.04 24.91 2.85s15.62 13.05 32.74 13.27c17.12.21 33.84-14.94 46.17-36.34 12.33-21.4 32.52-60.53 35.41-74.97Z"/>
  <path fill="#332114" d="M76.55 105.81c10.5 1.43 1.33 21.29-4.95 19.94-6.27-1.35-1.39-20.8 4.95-19.94ZM110.02 116.06c7.49 1.19 2.14 20.88-4.69 19.75-6.83-1.13-1.21-20.69 4.69-19.75Z"/>
  <path fill="#56280a" d="M66.87 90.54c-3.08 4.61 4.28 9.44 12.01 9.65 7.74.21 11.19-5 9.34-9.12s-5.52.77-10.78.25-7.89-4.8-10.57-.78ZM114.58 82.67c-3.76 4.83 2.16 7.94 5.82 13.77 3.66 5.83 2.88 9.7 6.8 8.87 3.92-.82 4.44-8.77 1.86-14.65-2.58-5.88-11.24-12.18-14.49-8Z"/>
  <path fill="url(#linear-gradient1)" d="M137.47 88.87c-.04 2.42 1.7 6.24 4.48 7.07 2.78.83 19.8-2.47 34.2-24.79 14.4-22.32 18.03-63.17 4.72-70.39-13.3-7.23-16.47 39.34-26.84 60.32-10.37 20.98-16.51 24.85-16.57 27.79Z"/>
  <path fill="#63381b" d="M80.78 188.83c-.14 2.31-4.06 6.49-9.57 10.7a79.14 79.14 0 0 1-17.46 10.19c-4.81 1.96-9.41 3.04-12.98 2.55-3.69-.52-7.83-2.8-11.83-6.01a62.42 62.42 0 0 1-12.58-13.81c-3.77-5.6-5.95-11.01-5.13-14.21 1.68-6.56 18.24-3.81 34.1-2.43 15.86 1.41 35.82 6.94 35.45 13.02Z"/>
  <path fill="#332114" d="M71.21 199.53a79.14 79.14 0 0 1-17.46 10.19c-1.67-1.93-3.52-5.38-.42-9.49 4.77-6.32 14.46-7.01 16.54-3.35.58 1 1.02 1.89 1.34 2.64ZM33.21 199.22c.04 3-2.25 5.46-4.26 7.04a62.42 62.42 0 0 1-12.58-13.81 4.96 4.96 0 0 1 4.53-4.05c5.31-.73 12.25 5.52 12.31 10.83Z"/>
</svg>
