<svg xmlns="http://www.w3.org/2000/svg" xmlns:xlink="http://www.w3.org/1999/xlink" viewBox="0 0 157 313">
  <defs>
    <linearGradient id="linear-gradient" x1="96.34" x2="66.01" y1="270.69" y2="251.55" gradientUnits="userSpaceOnUse">
      <stop offset="0" stop-color="#b77737"/>
      <stop offset="1" stop-color="#965923"/>
    </linearGradient>
    <linearGradient xlink:href="#linear-gradient" id="linear-gradient1" x1="143.79" x2="114.34" y1="262.77" y2="244.19"/>
    <linearGradient xlink:href="#linear-gradient" id="linear-gradient2" x1="5.58" x2="45.9" y1="255.26" y2="242.64"/>
    <linearGradient id="linear-gradient3" x1="135.33" x2="102.39" y1="297.63" y2="289.06" gradientUnits="userSpaceOnUse">
      <stop offset="0" stop-color="#b77737"/>
      <stop offset="1" stop-color="#332114"/>
    </linearGradient>
    <clipPath id="clippath">
      <path fill="none" d="M59.51 178.47h33v19.55h-33z"/>
    </clipPath>
    <clipPath id="clippath-1">
      <path fill="none" d="M59.51 178.47h33v19.55h-33z"/>
    </clipPath>
  </defs>
  <ellipse cx="79.37" cy="297.21" opacity=".2" rx="76.91" ry="15.7"/>
  <g>
    <path fill="#b77737" d="M108.53 0c1.05 9.82-5.96 57.85-3.86 78.54 2.1 20.69 10.52 45.23 10.87 46.98.35 1.75-2.45 13.32-3.86 14.02-1.4.7-45.58 8.77-48.38 8.41-2.8-.35-22.79-9.12-24.19-10.52-1.4-1.4-5.61-8.41-5.96-12.27C32.8 121.31 108.53 0 108.53 0Z"/>
    <path fill="url(#linear-gradient)" d="M66.37 295.56c6.31 4.21 22.88 3.33 24.98-2.63 2.1-5.96 12.45-63.28-.18-69.25-12.62-5.96-32.26.35-33.31 2.45-1.05 2.1 3.24 65.91 8.5 69.42Z"/>
    <path fill="url(#linear-gradient1)" d="M119.4 199.41s15.47-7.01 23.89 2.1c8.41 9.12 5.96 35.76-1.75 53.64-7.71 17.88-12.97 28.75-12.97 28.75s4.21 4.21 3.51 10.87c-.7 6.66-19.98 7.71-27.35 4.56-7.36-3.16-18.58-14.73-18.23-21.39.35-6.66 28.35-75.38 32.91-78.54Z"/>
    <path fill="url(#linear-gradient2)" d="M28.06 201.25s-14.37-9.12-22.79 0-5.96 35.76 1.75 53.64c7.71 17.88 12.97 28.75 12.97 28.75s-4.21 4.21-3.51 10.87c.7 6.66 19.98 7.71 27.35 4.56 7.36-3.16 18.58-14.73 18.23-21.39-.35-6.66-29.45-73.28-34.01-76.43Z"/>
    <path fill="#b77737" d="M32.31 144.49s-12.67 26.25-8.11 54.3c2.99 18.39 12.97 38.92 47.33 38.22 34.36-.7 49.44-19.28 51.19-44.18 1.75-24.89-4.43-51.89-4.43-51.89s-6.44-13.32-7.49-13.67c-1.05-.35-66.97 4.56-66.97 4.56s-9.42 1.45-11.53 12.67Z"/>
    <path fill="#b77737" d="M65.58 225.44c4.68 7.03 5.96 13.67 6.66 23.84.78 11.29 4.91 43.83 1.4 49.08-3.51 5.26-29.48 4.14-32.96 2.8-4.56-1.75-7.01-7.01-3.86-12.27 3.16-5.26 7.71-6.31 7.71-6.31s-1.75-23.14-6.31-38.92c-4.56-15.78-11.92-30.5-9.47-32.61 2.45-2.1 34.01 10.17 36.81 14.37ZM83.81 224.74c-4.21 6.31-5.51 15.34-5.96 26.65-.7 17.53-2.41 41.02 1.1 46.28 3.51 5.26 33.34 4.84 36.81 3.51 4.56-1.75 7.01-7.01 3.86-12.27-3.16-5.26-7.71-6.31-7.71-6.31s1.91-21.95 4.16-38.22c2.8-20.34 6.31-39.97 3.86-42.07-2.45-2.1-33.31 18.23-36.11 22.44Z"/>
    <path fill="#7f1206" d="M113.57 118.59s8.76 1.81 7.57 6.73c-1.19 4.91-14.31 14.45-43.86 15.47-29.55 1.02-48.3-8.67-47.74-13.66.4-3.54 5.4-4.72 5.4-4.72l.53 4.21s19.08 9.04 40.02 8.44c20.94-.6 38.08-10.28 38.08-10.28v-6.18Z"/>
    <path fill="#ba0c2f" d="M121.14 125.32s-.7 7.51.11 13.23c.81 5.72 4.15 11.44 4.15 11.44s-15.33 16.85-50.89 14.45c-35.55-2.4-49.32-10.23-49.32-10.23s1.67-7.27 2.49-13.88c.82-6.61 1.78-12.93 1.78-12.93s7.16 12.91 42.77 13.4c37.51.52 48.91-15.48 48.91-15.48Z"/>
    <path fill="url(#linear-gradient3)" d="M132.02 274.53s13.82 3.48 15.78 11.04c3.68 14.2-36.81 20.51-64.69 19.46-27.87-1.05-15.78-16.3-3.68-19.46s50.49-4.73 50.49-4.73l2.1-6.31Z"/>
    <path fill="#f4d592" d="M72.85 197.74c24.87-2.41 24.72 18.67 19.2 27.61s-12.62 12.62-12.62 12.62l-8.68-.26s-7.1-1.58-13.15-15.25c-5.58-12.62-1.05-23.14 15.25-24.72Z"/>
    <path fill="#747270" d="m74.6 163.02.04 1.31.05 1.41.02.71a2.93 2.93 0 0 1 2.19.09l-.02-.78-.05-1.42-.04-1.31-.07-2.16-1.04-20.17c-.73.06-1.46.09-2.18.1l1.03 20.06.07 2.16ZM75.14 170c.21.2.49.3.78.3.29-.01.56-.13.76-.35.2-.22.31-.49.3-.78l-.06-1.81a2.25 2.25 0 0 0-2.19-.15l.06 2.03c0 .29.13.56.35.76Z"/>
    <path fill="#747270" d="M75.69 167c.46 0 .88.13 1.23.37l-.02-.82a2.89 2.89 0 0 0-2.19-.09l.02.75c.29-.14.61-.22.96-.22Z"/>
    <g>
      <path fill="#ffa300" d="m78.34 167.05-.05-1.7c-.41-.08-.87-.17-1.22-.19l.04 1.14c.38.17.93.48 1.24.75Z"/>
      <g>
        <path fill="#ffa300" d="m74.5 166.19-.03-1.04-1.41.16.05 1.45c.63-.39.67-.41 1.39-.58Z"/>
        <g>
          <path fill="#ffa300" d="M79.84 170.3a4.3 4.3 0 0 1-8.6 0c0-1.47.74-2.76 1.86-3.53l-.05-1.45a20.48 20.48 0 0 0-17.97 20.3c0 11.28 9.17 20.46 20.45 20.46s20.45-9.18 20.45-20.46a20.5 20.5 0 0 0-17.7-20.27l.05 1.7c.92.78 1.5 1.95 1.5 3.25Z"/>
          <g id="IOL_logo_x5F_RGB">
            <g clip-path="url(#clippath)">
              <g clip-path="url(#clippath-1)">
                <path fill="#ba0c2f" d="M68.77 182.62h3.52l3.73-2.28 3.71 2.29h3.5l-6.64-4a1.13 1.13 0 0 0-1.15 0l-6.68 4ZM83.25 193.86h-3.52L76 196.14l-3.73-2.3h-3.5l6.66 4.02c.35.21.79.21 1.15 0l6.67-4Z"/>
                <path fill="#0e1c4f" d="M59.52 185.73c0-.28.02-.64.36-.94a.98.98 0 0 1 .62-.23c.52 0 1.01.42 1 1.2v4.88c-.01.19-.04.43-.19.67a.94.94 0 0 1-.81.43.97.97 0 0 1-.79-.4c-.18-.25-.21-.5-.2-.71v-4.91ZM65.73 186.22c.3.01.66.03.86.36.06.11.09.25.09.38 0 .26-.11.43-.23.52-.2.17-.49.18-.73.17h-1.03v-1.44h1.04Zm-3.04 4.39c0 .25.03.57.3.85.19.2.43.32.71.32a1 1 0 0 0 .76-.35c.21-.26.23-.54.23-.79v-1.46h.75c.32.01.79.02 1.02.49.08.17.11.35.14.53.08.55.14.97.53 1.33.09.08.31.27.68.27.54 0 1.04-.34 1.04-.82 0-.17-.1-.33-.16-.48a4 4 0 0 1-.16-.78c-.19-1.26-.75-1.36-1.28-1.44.25-.05.61-.11.95-.49.15-.17.42-.54.42-1.16 0-.53-.16-1.01-.56-1.37-.54-.49-1.21-.55-2.02-.55h-2.3c-.24 0-.67.03-.9.44-.12.2-.12.38-.13.56v4.9ZM71.56 187.58c.24.92.29 1.15.44 1.99.1-.5.14-.67.28-1.21l.84-2.91c.1-.3.28-.8.92-.8.6 0 .96.48.96.94 0 .25-.09.49-.17.73l-1.6 4.44c-.26.74-.39 1.02-1.29 1.01-.78 0-.93-.34-1.15-.96l-1.69-4.87a1.23 1.23 0 0 1-.07-.39c0-.55.44-.94.97-.94.69 0 .87.53.98.85l.59 2.11ZM75.56 185.74c0-.28.02-.64.36-.94a.92.92 0 0 1 .62-.22c.52 0 1.01.42 1 1.2v4.89c0 .19-.03.44-.17.67a.93.93 0 0 1-.81.43.99.99 0 0 1-.8-.4c-.18-.25-.21-.5-.21-.72v-4.9ZM78.83 185.61c0-.21.03-.52.29-.77.24-.22.53-.24.8-.23.56 0 .76.18.98.54l1.06 1.77 1.21 2.15-.07-3.42c0-.2.02-.4.14-.61.23-.38.62-.4.76-.4.24 0 .47.09.67.28.27.29.26.62.27.87v4.95c-.01.24-.03 1.08-1.03 1.07-.33 0-.73-.12-1.23-.82-.35-.5-1.38-2.31-2.07-3.53l.08 3.29c-.01.22-.01.43-.15.66a.89.89 0 0 1-1.19.29c-.46-.25-.49-.71-.49-1.08v-5.01ZM90.57 191.64c-.63.2-1.04.22-1.55.22-.63 0-1.42-.17-2.16-.84a3.64 3.64 0 0 1-1.12-2.84c0-2.19 1.37-3.7 3.56-3.69 1.71 0 2.48.75 2.79 1.22.09.16.16.36.09.66a.88.88 0 0 1-1.03.57c-.32-.08-.58-.35-.74-.49-.14-.13-.39-.37-1.01-.38-1.17 0-1.68.93-1.68 2.05 0 1.35.64 2.1 1.54 2.1.25 0 .58-.06.85-.21.36-.2.56-.49.61-.89h-.66c-.21 0-.44 0-.63-.11a.72.72 0 0 1-.38-.66c0-.27.13-.46.32-.59a.9.9 0 0 1 .51-.14h1.82a1 1 0 0 1 .55.13c.27.18.27.48.28.82-.06 2.64-1.94 3.09-1.94 3.09"/>
              </g>
            </g>
          </g>
          <path fill="#965923" d="M81.53 202.37c-10.98 0-19.91-9.05-19.91-20.18 0-6.41 2.99-12.32 7.61-16.02-8.13 2.54-14.07 10.41-14.07 19.47 0 11.13 9.13 20.44 20.11 20.44 4.64 0 9.29-1.55 12.68-4.26-1.85.58-4.39.56-6.43.56Z" opacity=".25"/>
        </g>
      </g>
    </g>
  </g>
</svg>
