<svg xmlns="http://www.w3.org/2000/svg" width="121" height="72" viewBox="0 0 121 72">
  <path fill="#fff" d="m33.96 15.31 12.9.02L60.54 6.9l13.61 8.43h12.84L62.64.59a4.04 4.04 0 0 0-4.2 0L33.96 15.32ZM87.04 56.7l-12.9-.03-13.67 8.42-13.66-8.49H33.96l24.41 14.8c1.29.78 2.91.79 4.2 0l24.46-14.72ZM.04 26.76c0-1.02.08-2.36 1.31-3.46a3.6 3.6 0 0 1 2.29-.83c1.92.01 3.69 1.54 3.68 4.42l-.04 17.98c0 .69-.11 1.6-.66 2.47a3.47 3.47 0 0 1-2.97 1.59 3.58 3.58 0 0 1-2.9-1.46A4.24 4.24 0 0 1 0 44.86l.04-18.09ZM22.82 28.55c1.09.04 2.42.12 3.15 1.33.21.4.32.91.32 1.38 0 .94-.41 1.6-.84 1.93-.72.62-1.81.64-2.68.64H19l.01-5.29h3.81ZM11.66 44.71c0 .91.11 2.11 1.08 3.13a3.55 3.55 0 0 0 5.4-.13c.76-.94.84-2 .84-2.9v-5.39h2.76c1.16.04 2.9.09 3.73 1.8.29.62.4 1.27.5 1.97.28 2.04.5 3.57 1.94 4.89.33.29 1.12.98 2.5.99 1.99 0 3.8-1.26 3.81-3.01 0-.62-.36-1.21-.57-1.75-.29-.73-.46-2.08-.57-2.88-.71-4.65-2.74-5.03-4.7-5.29.9-.18 2.25-.4 3.48-1.81a6.4 6.4 0 0 0 1.53-4.29 6.5 6.5 0 0 0-2.05-5.06c-1.99-1.79-4.45-2.02-7.42-2.03l-8.44-.03c-.87 0-2.46.13-3.3 1.66-.44.73-.44 1.42-.48 2.07l-.04 18.06ZM44.19 33.55c.9 3.39 1.08 4.22 1.61 7.31.37-1.85.51-2.47 1.02-4.47l3.08-10.73c.36-1.09 1.02-2.94 3.37-2.93a3.42 3.42 0 0 1 3.5 3.47c0 .91-.33 1.82-.62 2.69l-5.87 16.36c-.95 2.73-1.42 3.75-4.72 3.73-2.86-.01-3.4-1.25-4.23-3.55L35.14 27.5a4.64 4.64 0 0 1-.25-1.42c0-2.04 1.6-3.45 3.56-3.45 2.52.02 3.18 1.94 3.58 3.15l2.16 7.76ZM58.83 26.79c0-1.02.08-2.36 1.31-3.45a3.58 3.58 0 0 1 2.29-.83c1.92 0 3.69 1.54 3.68 4.41v17.99c0 .7-.1 1.61-.63 2.48a3.43 3.43 0 0 1-2.98 1.57 3.65 3.65 0 0 1-2.92-1.49 4.2 4.2 0 0 1-.76-2.64V26.78ZM70.82 26.29c0-.76.12-1.93 1.06-2.83.87-.79 1.96-.87 2.94-.86 2.06 0 2.78.67 3.58 1.98a799.1 799.1 0 0 1 3.87 6.51c1.52 2.63 2.96 5.29 4.44 7.92l-.27-12.6c0-.74.06-1.47.52-2.24a3.07 3.07 0 0 1 2.77-1.47c.88 0 1.71.31 2.44 1.04.98 1.06.97 2.29 1 3.2l-.04 18.23c0 .87-.07 3.97-3.73 3.95-1.2 0-2.69-.44-4.53-3.03-1.29-1.82-5.05-8.49-7.61-13.01l.3 12.11c-.04.8-.04 1.6-.56 2.44a3.26 3.26 0 0 1-4.38 1.07c-1.7-.92-1.8-2.62-1.8-3.97l-.02-18.44ZM113.87 48.51c-2.3.73-3.81.81-5.7.79a11.54 11.54 0 0 1-7.91-3.1c-3.18-2.85-4.11-6.79-4.1-10.46.02-8.08 5.03-13.63 13.04-13.6 6.26.03 9.1 2.77 10.23 4.49.33.59.59 1.34.31 2.42a3.23 3.23 0 0 1-3.79 2.1c-1.19-.28-2.14-1.3-2.7-1.81-.51-.46-1.42-1.36-3.71-1.4-4.28 0-6.16 3.43-6.17 7.55-.01 4.98 2.34 7.72 5.63 7.74.91 0 2.14-.21 3.11-.79a4.21 4.21 0 0 0 2.25-3.27h-2.43c-.76 0-1.63-.02-2.32-.41a2.65 2.65 0 0 1-1.41-2.41c0-.98.48-1.71 1.16-2.18.65-.43 1.23-.46 1.88-.5l6.67.02c.65 0 1.38.04 2.03.45.98.65 1.01 1.78 1.04 3.02-.23 9.74-7.13 11.37-7.13 11.37"/>
</svg>
