<svg xmlns="http://www.w3.org/2000/svg" id="Layer_1" version="1.1" viewBox="0 0 752 1424">
  <defs>
    <linearGradient id="linear-gradient" x1="376.08" x2="376.08" y1="1086.7" y2="-582.05" gradientUnits="userSpaceOnUse">
      <stop offset="0" stop-color="#f1f8f5"/>
      <stop offset=".03" stop-color="#ecf6f5"/>
      <stop offset=".28" stop-color="#cfecf6"/>
      <stop offset=".52" stop-color="#bbe5f8"/>
      <stop offset=".76" stop-color="#afe1f8"/>
      <stop offset="1" stop-color="#abe0f9"/>
    </linearGradient>
    <linearGradient id="linear-gradient1" x1="376.08" x2="376.08" y1="951.22" y2="1034.01" gradientUnits="userSpaceOnUse">
      <stop offset="0" stop-color="#cce087"/>
      <stop offset=".36" stop-color="#add588"/>
      <stop offset=".77" stop-color="#90cc89"/>
      <stop offset="1" stop-color="#86c98a"/>
    </linearGradient>
    <linearGradient id="linear-gradient2" x1="376" x2="376" y1="807.99" y2="951.22" gradientUnits="userSpaceOnUse">
      <stop offset="0" stop-color="#fffad3"/>
      <stop offset=".5" stop-color="#eff4d2"/>
      <stop offset="1" stop-color="#e5f0d2"/>
    </linearGradient>
    <linearGradient id="linear-gradient3" x1="376" x2="376" y1="829.37" y2="951.22" gradientUnits="userSpaceOnUse">
      <stop offset="0" stop-color="#f9f4ab"/>
      <stop offset=".34" stop-color="#dce9ab"/>
      <stop offset=".76" stop-color="#bfdeab"/>
      <stop offset="1" stop-color="#b5dbab"/>
    </linearGradient>
  </defs>
  <path fill="url(#linear-gradient)" d="M.15 0H752v1086.7H.15z"/>
  <path fill="#fff" d="M682.77 721.39c-27.54-26.67-75.57-40.75-120.37-35.28-44.81 5.47-84.51 30.25-99.51 62.11 10.52-38.52-17.03-80.88-64.1-98.57-47.07-17.69-109.54-9.15-145.37 19.85 7.57-57.59-50.01-115.68-126.2-127.31-44.07-6.72-90.88 2.64-127.22 22.37v341.49h752V677.14c-28 9.72-52.54 24.86-69.23 44.24Z"/>
  <path fill="#838383" d="M.15 1131.62H752v205.97H.15z"/>
  <path fill="#8ec96d" d="M.15 1337.59H752V1424H.15z"/>
  <path fill="#b0d689" d="M.15 1106.84H752v24.78H.15z"/>
  <path fill="#bcb53a" d="M.15 1198.01h54.19v8.13H.15zM585.28 1198.01h106.19v8.13H585.28zM372.9 1198.01h106.19v8.13H372.9zM160.53 1198.01h106.19v8.13H160.53z"/>
  <path fill="#fff" d="M.15 1315.96H752v8.13H.15zM.15 1140.58H752v4.06H.15z"/>
  <path fill="#80bb57" d="M.15 1337.59H752v10.04H.15z"/>
  <path fill="#355f6b" d="M.15 1367.7H752v56.3H.15z"/>
  <path fill="#538f9d" d="M.15 1380.8H752v43.2H.15z"/>
  <path fill="#79b2bc" d="M.15 1086.7H752v20.14H.15z"/>
  <path fill="#80bb57" d="M.15 1059.1H752v27.6H.15z"/>
  <path fill="#538f9d" d="M.15 1086.7H752v10.07H.15z"/>
  <path fill="#b0d689" d="M.15 1034.01H752v25.09H.15z"/>
  <path fill="url(#linear-gradient1)" d="M.15 951.22H752v82.79H.15z"/>
  <path fill="url(#linear-gradient2)" d="m717.65 858.03-107.88-12.9-110.5-7.55-73.27-8.34s-87.17-8.48-97.2-8.48h-47.67L220.76 808l-71.6 11.02L0 824.61l.15 126.61H752v-87.25l-34.35-5.94Z"/>
  <path fill="url(#linear-gradient3)" d="m707.62 830.15-57.7.64s-62.72-1.43-80.28 0c-17.56 1.43-102.86 10.04-102.86 10.04H386.5l-82.79 8.6-60.21 18.64s-109.16-2.68-121.88 1.62C108.89 873.99.16 876.68.16 876.68L0 898.17l.15 53.05H752V829.37c-22.3.26-44.38.78-44.38.78Z"/>
  <path fill="#81c67d" d="M135.99 858.77c1.27 0 5.48.56 6.3-.59a31.6 31.6 0 0 1-7.11-5.59 18.15 18.15 0 0 0-3.13-2.71 78.73 78.73 0 0 1-3.2-2.01c-2.92-2.69 5.01-1.59 6.04-1.92-.46-3.04-3.07-6.08-4.55-8.77l-1.17-2.16 9.45 4.37-14.19-14.74c1-1.85 6.09.23 7.67-.88.26-1.83-2.48-5.18-3.45-6.52-.49-.67-5.18-4.86-4.13-5.82 2.34.27 3.69 1.58 5.76 2.37-1.08-2.54-3.06-5.2-4.39-7.57-1.71-3.07-3.26-6.22-5.54-9.02-1.35-1.66-2.94-3.08-4.42-4.65-.73-.77-1.26-1.67-2.03-2.4-1.88.05-3.71 2.13-4.88 3.18-2.83 2.54-5.56 5.16-8.39 7.7-2.11 1.89-4.11 3.85-6.18 5.77-.51.48-3.75 2.85-3.17 3.71 1.67.09 3.35-1.23 4.91-.8.57 1.09-.64 2.11-1.34 2.9-2.35 2.68-5.07 5.11-6.99 8.06-.52.8-1.09 1.36-.81 1.83l-6.07 1.28H94.6c-.92.83-1.83 1.67-2.74 2.52-.48.45-2.93 2.37-4.57 3.93l-9.34 3.49 10.95-.96c-.3.68-1.38 1.39-1.76 1.88-.84 1.05-1.43 2.24-2.27 3.3-1.49 1.89-3.11 3.8-4.71 5.62-.82.93-2.64 2.83-.16 2.64 2.05-.15 3.32-2.43 5.41-2.32-.02 1.83-2.93 4.25-4.16 5.65-1.13 1.29-2.37 2.63-3.29 4.04-.84 1.29-1.92 2.43-2.79 3.69-.6.87-2.5 3.5-2.04 4.35 2.35.1 4.39-1.45 6.44-2.23-.01 1.26-1.14 2.67-1.99 3.65-1.49 1.72-3.02 3.38-4.27 5.24a21.89 21.89 0 0 1-2.77 3.49c-.54.53-1.74 1.95-1.15 2.6a10.6 10.6 0 0 0 4.3-.88c.88-.4 1.55-1.06 2.5-1.37 2.51-.82 1.67 1.47.96 2.72-1.53 2.73-2.23 5.64-4.04 8.25-.87 1.26-2.22 2.99-2.17 4.45 1.39-.58 2.81-2.01 3.92-2.91 1.9-1.54 3.61-3.13 5.83-4.35 2.57.56-5.34 13.42-5.87 15.66 1.07-.46 1.9-1.41 2.76-2.09 2-1.59 4.49-3.05 6.94-4.05 2.87 1.19-12.06 15.84-11.77 18.19 1.81-.7 2.93-1.89 4.31-3.06 1.87-1.58 4.08-2.53 6.38-3.55 3.71-1.64 7.22-3.46 11.11-4.76 2.02-.67 2.45-.26 4.53.2 2.68.59 5.07 1.44 7.61 2.34 1.21.43 3.33 1.54 4.64 1.15-.03-.93-.84-2.86-.2-3.72 1.02-1.36 4.49.1 5.46.46 1.79.67 3.56 1.42 5.43 1.92 2.64.7 5.57.5 8.29.57 2.24.06 4.45.28 6.69.41.51.03 1.06.03 1.6.08-.77-.8-1.4-2.01-1.62-2.34-.59-.86-2.32-2.55-1.87-3.65.93-2.29 5.6-.09 6.07-1.71-2.12-2.1-2.41-4.2-3.18-6.89-.88-3.04-2.65-5.89-3.46-8.91-.38-1.41-.56-2.19 1.44-2.55 1.07-.2 3.41.42 4.21-.24-.71-1.69-2.2-3.39-3.11-5.04-1.05-1.91-2.08-3.81-3.35-5.62-.58-.83-1.84-1.87-1.7-2.9.22-1.6 2.51-1.42 3.96-1.42Z"/>
  <path fill="#68bc69" d="M103.2 884.38a147.56 147.56 0 0 1-3.94-4.88c-2.06-2.65-5.28-5.82-5.31-9.1-.03-3.35 5.74-2.43 8.4-2.82a10.25 10.25 0 0 1-3.28-5.04c-.94-2.86-2.61-5.69-4.39-8.33-.88-1.3-4.57-4.52-4.07-6.02.51-1.52 3.95-1.36 5.37-1.8 2.33-.71 1.82-1.4 1.19-3.21-.65-1.84-1.12-3.72-1.72-5.58-1.05-3.25-2.78-6.4-3.69-9.67-.34-1.22-.32-2.43-.65-3.65-.18-.65-.95-1.43-.55-2.1 1.28-2.13 9.09-.04 10.99.57.4-1.29-1.83-3.05-2.69-3.86a85.4 85.4 0 0 0-8.59-7.25c-2.71-1.94-5.75-3.53-8.57-5.38-.82-.54-3.55-1.8-3.32-2.62 2.21-.39 7.91 1.32 9.22.13-1.52-3.63-3.55-7.07-5.47-10.55l15.11 2.99-21.83-33.38-27.53 20.7 10.91-2.67-7.88 8.32a36.6 36.6 0 0 0-6.44 4.46c-.28.25-2.93 2.04-2.67 2.65.77 1.84 9.71-1.64 11.2-1.83.7 1.01-1.15 3.22-2.55 4.67l-16.58 11.11h5.71c-.38.7-.41 1.41.43 2.01.74.52 1.84.52 2.92.37l-25.3 17.65 24.81-4.31c-1.02 1.94-2.94 4.07-4.58 5.73-1.36 1.38-3.48 2.05-4.79 3.38-.5.51-.9 1.09-1.29 1.68l-19.97 12.21 17.08-2.9c-.74 1.29-2.34 2.67-3.14 3.57a10.25 10.25 0 0 0-2.38 3.99c-.43 1.34-2.17 3.4-1.72 4.64 1.14 0 2.67-.71 3.67-.07-.05 1.5-2.35 3.4-3.26 4.79-.79 1.22-1.68 2.34-1.97 3.67-.42 1.91-1.18 3.08-2.58 4.84-.81 1.02-4.65 5.05-3.49 6.14 2.33.15 8.25-2.79 8.7.28.18 1.27-1.18 3.13-1.72 4.38-.97 2.25-2.4 4.44-3.28 6.73-.52 1.35-1 2.29-1.91 3.48-1.18 1.56-3.02 2.93-4.01 4.51 4.01.26 8.6-3.81 9.26 1.83.4 3.37-1.67 7.9-2.76 11.21-.47 1.4-2.77 3.93.62 4.15 1.05.07 5.45-1.67 6.14-1.83 1.79-.42 3.6-.83 5.42-1.18 2.07-.4 3.94-1.35 6.06-1.5 3.05-.22 6.21 0 9.28-.18 3.38-.19 1.68 1.54 3.08 3.25 1.26 1.54 3.69-.34 5.47-.73 5.44-1.2 12.33-.29 18.01-.3 5.24 0 9.73 1.1 14.8 1.85 1.92.29 3.83.02 5.77.21 2.52.24 5.04 1.03 7.6.53-1.42-1.5-4.31-3.48-3.23-5.62 1.33-2.61 4.22-.89 6.51-1.64 2.11-.7.31-1.76-.57-2.77-2.3-2.64-2.69-6.17-4.05-9.1-.99-2.13-4.56-5.88-.19-6.72 1.48-.28 6.19.62 6.73-.68.23-.55-2.31-3.12-2.54-3.39Z"/>
  <path fill="#4fae53" d="M45.54 873.7c-.65-2.41-.96-3.73 2.46-4.36 1.82-.34 5.82.72 7.19-.41-1.21-2.89-3.76-5.79-5.31-8.61-1.79-3.26-3.55-6.51-5.72-9.6-.99-1.41-3.14-3.19-2.9-4.95.38-2.74 4.29-2.42 6.76-2.43 2.18 0 9.36.96 10.75-1.01-4.82-2.72-8.41-5.8-12.15-9.55a30.97 30.97 0 0 0-5.35-4.63 144.02 144.02 0 0 1-5.47-3.43c-4.98-4.6 8.56-2.71 10.32-3.28-.78-5.19-5.24-10.38-7.78-14.98l-1.99-3.68 16.15 7.47-24.23-25.18c1.7-3.16 10.4.39 13.09-1.5.44-3.12-4.23-8.85-5.89-11.13-.84-1.15-8.85-8.29-7.06-9.94 3.99.46 6.3 2.7 9.84 4.05-1.84-4.34-5.23-8.88-7.5-12.94-2.92-5.24-5.57-10.62-9.46-15.4-2.3-2.83-5.03-5.26-7.55-7.94-1.24-1.32-2.16-2.85-3.47-4.11-3.2.08-6.34 3.64-8.33 5.43l-1.78 1.63v179.97c1.92.77 4.18 1.58 5.76 1.11-.05-1.58-1.44-4.88-.34-6.35 1.74-2.32 7.68.16 9.32.78 3.06 1.14 6.08 2.43 9.28 3.28 4.51 1.19 9.51.85 14.16.98 3.82.11 7.61.48 11.42.7.87.05 1.81.06 2.74.14-1.32-1.37-2.38-3.43-2.77-3.99-1.01-1.46-3.96-4.36-3.2-6.23 1.59-3.92 9.56-.16 10.38-2.91-3.62-3.58-4.11-7.18-5.44-11.76-1.5-5.19-4.53-10.06-5.92-15.22Z"/>
  <path fill="#3c9e47" d="M412.49 992.88c23.39-22.41 59.22-44.73 106.52-66.35 21.98-10.05 46.52-19.99 73.35-29.74-20.05-.5-39.51-.93-58.4-1.3a1307.97 1307.97 0 0 0-36.65 13.99c-74.6 29.82-131.34 61.18-164.1 90.68a747.72 747.72 0 0 0-35.22 33.84h73.91a1012.6 1012.6 0 0 1 40.58-41.13ZM138.33 949.74c20.3-18.29 47.86-36.61 82.37-54.82-18.69.38-36.07.83-52.19 1.32-45.85 21.8-81.64 43.89-105.11 65.03a716.34 716.34 0 0 0-63.27 64.42v8.31h58.01c18.71-23.36 44.96-52.53 80.19-84.27ZM669.22 1034.01H752V986.1c-28.22 14.12-56.16 30.02-82.78 47.91ZM217.88 969.89c28.28-25.48 70.66-51.04 126.31-76.23-20.65.03-40.26.14-58.85.32-57.33 25.28-101.49 51.24-128.87 75.9a715.02 715.02 0 0 0-63.02 64.13h61.09a748.73 748.73 0 0 1 63.34-64.12ZM315.08 980.04c31.83-28.67 81.49-57.45 147.85-85.68-16.81-.21-33.11-.37-48.89-.49-4.57 1.76-9.22 3.58-13.93 5.47-74.6 29.82-131.34 61.18-164.1 90.68a741.72 741.72 0 0 0-44.9 43.99h69.65a760.55 760.55 0 0 1 54.31-53.97ZM519.19 1033.88l-.14.13h103.66c37.41-28.59 80.75-54.81 129.3-78.21v-32.53c-110.59 34.61-190.82 72.69-232.81 110.61ZM45.27 941.15c15.72-14.16 35.79-28.34 60.07-42.48a2521.97 2521.97 0 0 0-66.92 3.95c-14.5 8.48-27.34 16.92-38.4 25.26l.07 57.36a774.61 774.61 0 0 1 45.18-44.1ZM620.6 942.63c32.62-14.25 70.1-28.18 111.76-41.56-20.85-.75-41.19-1.43-61.02-2.05-3.97 1.22-7.98 2.47-12.01 3.74-110.79 34.94-189.67 72.87-228.1 109.69-7.7 7.38-14.96 14.57-21.82 21.56h70.01a804.7 804.7 0 0 1 21.61-20.24c26.9-24.3 67.14-48.23 119.57-71.14Z"/>
  <path fill="#74c067" d="M63.41 961.28c23.47-21.14 59.26-43.24 105.11-65.03-23.76.73-44.77 1.56-63.17 2.42C81.07 912.8 61 926.99 45.28 941.15A771.4 771.4 0 0 0 .1 985.25l.05 40.45a714.98 714.98 0 0 1 63.27-64.42ZM0 906.05l.03 21.83a394.62 394.62 0 0 1 38.4-25.26C12.09 904.57.01 906.06.01 906.06ZM236.01 990.02c32.75-29.5 89.49-60.86 164.1-90.68 4.72-1.89 9.37-3.71 13.93-5.47-24.5-.18-47.77-.24-69.85-.21-55.65 25.19-98.03 50.75-126.31 76.23a748.73 748.73 0 0 0-63.34 64.12h36.58a741.72 741.72 0 0 1 44.9-43.99ZM156.47 969.88c27.38-24.67 71.53-50.63 128.87-75.9-23.09.22-44.61.55-64.63.95-34.51 18.2-62.07 36.53-82.37 54.82-35.23 31.73-61.48 60.91-80.19 84.27h35.3a716.39 716.39 0 0 1 63.02-64.13ZM431.23 1012.45c38.43-36.82 117.31-74.76 228.1-109.69 4.03-1.27 8.04-2.52 12.01-3.74-27.28-.85-53.6-1.59-78.99-2.22A990.31 990.31 0 0 0 519 926.54c-47.3 21.62-83.13 43.94-106.52 66.35a1006.17 1006.17 0 0 0-40.58 41.13h37.5c6.86-6.99 14.12-14.18 21.82-21.56ZM333.21 1000.17c32.75-29.5 89.49-60.86 164.1-90.68 12.84-5.13 25.19-9.81 36.65-13.99-24.64-.48-48.31-.86-71.03-1.15-66.36 28.24-116.03 57.01-147.85 85.68a760.55 760.55 0 0 0-54.31 53.97H298a747.72 747.72 0 0 1 35.22-33.84ZM622.7 1034.01h46.51c26.62-17.89 54.57-33.8 82.78-47.91v-30.3c-48.54 23.41-91.89 49.62-129.3 78.21ZM732.37 901.07c-41.66 13.38-79.14 27.31-111.76 41.56-52.44 22.91-92.67 46.84-119.57 71.14a820.15 820.15 0 0 0-21.61 20.24h39.62l.14-.13c41.99-37.92 122.22-76 232.81-110.61v-21.48l-19.63-.72Z"/>
  <path fill="#82c56a" d="M331.69 1357.85c-.24-2.43-4.02-2-5.5-2.93-1.97-1.24-3.18-3.59-5.42-4.53-3.42-1.42-7.33 1-10.41-.23-.88-.35-4.59-3.16-5.33-3.73-2.32-1.77-1.39-3.59-3.04-5.18-.89-.85-4.84-2.27-6.05-2.75-3.04-1.18-6.12-1.23-9.23-1.95-2.2-.5-3.4-.58-5.48-.77-2.69-.25-2.97.59-5.07-1.79-3.95-4.48-3.6-7.38-10.47-8.19-3.67-.43-10.33 1.11-13.43-.54-4.14-2.2-2.73-8.34-8.18-10.38-2.84-1.06-4.93-.08-7.56-1.5-1.68-.91-3.53-3.38-4.77-4.76-6.34-7.05-6.99-8.65-16.14-7.27-4.53.69-9.53-.72-14 .15-3.46.68-4.52 3.01-7.26 4.37-1.78.88-9.15 3.54-11.14 3.33-2.95-.32-3.78-2.81-5.74-4.7-4.16-4-7.78-4.13-13.18-5.18-5.13-1-6.78-3.09-11.2-1.41-2.95 1.12-13.38 1.89-12.89 6.59l-.17.51c-5.51.3-8.89 1.63-12.85 7.53-3.12 4.64-4.33 2.36-9.3 2.85-1.93.19-2.74.84-4.6.55-2.95-.45-4.62-1.93-8.35-1.74-2.1.1-6.47 1.6-7.97 1.49-3.17-.23-7.68-4.4-11.11-3.13-1.57.58-2.72 3.49-3.99 4.62-1.85 1.66-2.66 1.66-5.04 2.72-3.23 1.44-6.71 6.25-9.8 6.83-3.97.74-8.26-3.71-10.86-5.95-4.49-3.88-15.79-7.69-21.62-6.29-2.02.49-2.71 1.77-4.71 2.25-2.11.51-4.36.53-6.45 1.06-2.44.61-5.74 1.29-7.81 2.76-1.12.79-1.45 2.32-2.56 3.11-1.03.73-2.23.02-3.34.95-1.95 1.62-2.16 3.86-4.22 4.92-1.09.56-2.42-.15-3.42.27-1.45.61-1.29 1.27-1.9 1.87v30.7c24.28 0 48.6.04 72.83-1.35 25.58-1.47 50.78-3.72 76.46-3.72s52.65 2.53 79.07 2.53h78.23c3.27 0 25.3 1.57 24.95-2.02Z"/>
</svg>
