{
    "asset" : {
        "generator" : "Khronos glTF Blender I/O v1.5.9",
        "version" : "2.0"
    },
    "scene" : 0,
    "scenes" : [
        {
            "name" : "Scene",
            "nodes" : [
                0
            ]
        }
    ],
    "nodes" : [
        {
            "mesh" : 0,
            "name" : "spike1",
            "rotation" : [
                0.3958047330379486,
                0.585951030254364,
                -0.5859510898590088,
                0.3958047032356262
            ],
            "translation" : [
                0.7127950191497803,
                0.4078739285469055,
                1.7055084705352783
            ]
        }
    ],
    "materials" : [
        {
            "doubleSided" : true,
            "name" : "Material.082",
            "pbrMetallicRoughness" : {
                "baseColorFactor" : [
                    0.2746773362159729,
                    0.15592648088932037,
                    0.03433983027935028,
                    1
                ],
                "metallicFactor" : 0,
                "roughnessFactor" : 0.5
            }
        }
    ],
    "meshes" : [
        {
            "name" : "BezierCurve.001",
            "primitives" : [
                {
                    "attributes" : {
                        "POSITION" : 0,
                        "NORMAL" : 1,
                        "TEXCOORD_0" : 2
                    },
                    "indices" : 3,
                    "material" : 0
                }
            ]
        }
    ],
    "accessors" : [
        {
            "bufferView" : 0,
            "componentType" : 5126,
            "count" : 637,
            "max" : [
                0.01556639838963747,
                0.015566399320960045,
                3.9362069159665225e-09
            ],
            "min" : [
                -0.3155663311481476,
                -0.015566399320960045,
                -0.46556636691093445
            ],
            "type" : "VEC3"
        },
        {
            "bufferView" : 1,
            "componentType" : 5126,
            "count" : 637,
            "type" : "VEC3"
        },
        {
            "bufferView" : 2,
            "componentType" : 5126,
            "count" : 637,
            "type" : "VEC2"
        },
        {
            "bufferView" : 3,
            "componentType" : 5123,
            "count" : 3456,
            "type" : "SCALAR"
        }
    ],
    "bufferViews" : [
        {
            "buffer" : 0,
            "byteLength" : 7644,
            "byteOffset" : 0
        },
        {
            "buffer" : 0,
            "byteLength" : 7644,
            "byteOffset" : 7644
        },
        {
            "buffer" : 0,
            "byteLength" : 5096,
            "byteOffset" : 15288
        },
        {
            "buffer" : 0,
            "byteLength" : 6912,
            "byteOffset" : 20384
        }
    ],
    "buffers" : [
        {
            "byteLength" : 27296,
            "uri" : "data:application/octet-stream;base64,"
        }
    ]
}
