<svg xmlns="http://www.w3.org/2000/svg" fill-rule="evenodd" stroke-linejoin="round" stroke-miterlimit="2" clip-rule="evenodd" viewBox="0 0 1080 1920">
  <g id="frame" fill-rule="nonzero">
    <path fill="#f6f3f3" d="M0 986.169l55.299 36.608V273.604L0 239.774v746.395z"/>
    <path fill="#237b54" d="M55.299 1366.98L0 1332.47v228.651l55.299 34.309v-228.45z"/>
    <path fill="#58e1a3" d="M1080 918.273l-55.299-33.398v745.396l55.299 34.474V918.273z"/>
    <path fill="#58e1a3" d="M844.464 1864.27H483.929l87.862 55.733h362.936l-90.263-55.733z"/>
    <path fill="#237b54" d="M470.736 55.733h553.965v347.329L1080 437.47V0H383.695l87.041 55.733z"/>
    <path fill="#d237d8" d="M0 239.774l55.299 33.83V55.733h415.437L383.695 0H0v239.774z"/>
    <path fill="#58e1a3" d="M55.299 1366.98v-344.204L0 986.168v346.302l55.299 34.51z"/>
    <path fill="#d237d8" d="M483.929 1864.27H55.299v-268.836L0 1561.125v358.878h571.791l-87.862-55.733z"/>
    <path fill="#f6f3f3" d="M1024.7 403.062v481.813l55.299 33.398V437.47l-55.299-34.408z"/>
    <path fill="#d237d8" d="M1080 1664.75l-55.299-34.474v233.996H844.464l90.263 55.733H1080V1664.75z"/>
    <path fill="#fff" d="M158.415 1903.43s8.166-1.267 17.563-2.112c9.398-.845 20.028-1.268 24.955.422-11.826.845-37.733 1.971-42.518 1.69zm5.35-8.166s10.137-.563 21.329-.81c11.193-.246 23.441-.176 27.665 1.091-12.108.845-48.994-.281-48.994-.281zm786.665-3.316s11.302-.518 23.94-.69c12.638-.173 26.613-.001 31.96 1.38-18.63 2.071-55.9-.69-55.9-.69zm-597.087-1.708s6.942-1.146 15.568-1.719c8.627-.572 18.938-.572 25.678 1.719-13.209.808-41.246 0-41.246 0zm-338.368-39.078s-.625 6.375-.738 13.945c-.114 7.569.285 16.333 2.332 21.112-.228-15.479-1.594-35.057-1.594-35.057zm930.968 31.814s8.11-.863 17.772-1.122c9.663-.259 20.878.086 27.09 2.502-16.219.347-44.862-1.38-44.862-1.38zm-602.843-2.711s10.985-.943 22.78-1.382c11.794-.437 24.397-.37 27.632 1.652-13.75 1.078-50.412-.27-50.412-.27zm-321.3-38.436s-.854 8.025-1.28 16.818c-.427 8.793-.427 18.354 1.28 21.426 1.143-16.39 0-38.244 0-38.244zm9.565-101.756s-.171 7.74-.426 16.049c-.256 8.308-.598 17.187-.939 19.463 3.414-17.982 2.959-30.504 1.365-35.512zm-4.78-13.204s-.74 6.375-1.053 14.315c-.313 7.939-.199 17.443 1.508 23.702.46-18.439-.455-38.017-.455-38.017zm1027.66-12.709s0 9.108.036 18.607c.035 9.5.106 19.391.249 20.956 1.708-14.8.565-36.72-.285-39.563zm-7.115-17.077s.427 9.606.854 19.746c.427 10.139.854 20.813.854 22.948 1.707-27.609 1.423-38.425-1.708-42.694zM18.84 1596.43l-2.276 30.732c2.731-11.159 3.87-25.041 2.276-30.732zm1042.81-22.589v48.386c2.849-19.639 1.423-44.116 0-48.386zm-1049.63 16.67s-.455 5.065-.626 10.614c-.171 5.549-.057 11.582 1.081 13.517.455-11.839-.455-24.131-.455-24.131zm1043.92-39.487c.006-.102.013-.181.021-.237 0 0-.007.081-.021.237-.217 3.521.55 33.908-.833 53.272-1.281-8.112-1.067-21.489-.533-32.838.483-10.291 1.23-18.914 1.366-20.434zM16.98 1267.064s-.075 7.35.001 15.42.303 16.86.908 19.739c1.215-16.67-.909-35.159-.909-35.159zm-6.668-10.911s-.075 6.82.039 14.965c.114 8.146.417 17.618 1.173 22.922 1.065-12.633.658-25.348-1.212-37.887zm1037.05-10.388s-1.067 9.423-1.911 19.557c-.845 10.133-1.467 20.979-.578 23.823 2.489-13.868 2.489-43.38 2.489-43.38zm-8.534-18.846s-.889 8.089-1.334 17.245c-.444 9.156-.444 19.379 1.334 23.646.356-20.979 0-40.891 0-40.891zm-1003.67-64.421s-.227 6.138-.227 12.768c0 6.63.227 13.752 1.136 15.722.91-11.214-.909-28.49-.909-28.49zm-5.152-15.458s-.152 6.062-.304 12.843c-.151 6.782-.303 14.284-.303 17.163 3.031-14.243.607-30.006.607-30.006zm1032.29-65.552s-.267 9.956-.267 21.868c0 11.912.267 25.78 1.334 33.602.706-19.555 1.417-49.78-1.067-55.47zm-5.694-15.645s-.356 9.512-.356 19.379.355 20.09 1.778 21.512c.711-17.067.711-35.557-1.422-40.891zm-1034.01-14.521v37.939s3.687-9.945 0-37.939zm-7.363-11.419s-.276 6.17-.184 13.49c.092 7.321.552 15.793 2.026 20.397.737-22.836-1.842-33.887-1.842-33.887zm1036.68-94.907s-.548 8.28-.821 17.621c-.274 9.341-.274 19.742.821 23.985 1.642-18.613 0-41.606 0-41.606zm-7.664-17.244s-.616 8.759-.855 18.51c-.24 9.752-.103 20.495 1.402 24.464 1.098-13.96-.547-42.974-.547-42.974zM18.915 901.777s-.369 5.709-.461 12.339c-.092 6.63.092 14.18 1.197 17.861 1.843-14.73-.736-30.2-.736-30.2zm-4.789-3.315s-.276 4.236-.414 9.807c-.139 5.571-.139 12.477.414 17.818 1.354-9.158 1.354-18.467 0-27.625zm1050.93-59.272s.112 6.534.225 13.349c.112 6.816.225 13.913.225 15.039 1.352-10.589 2.028-22.304-.45-28.388zm-5.633-9.913s-.112 6.647-.112 13.744c0 7.097.112 14.644.563 16.446 1.577-12.616-.451-30.19-.451-30.19zm-15.095-116.705s-.225 6.703-.591 14.617c-.366 7.914-.873 17.039-1.437 21.883 2.929-11.717 4.281-22.081 2.028-36.5zm-6.083-13.293s-.282 6.309-.394 13.772c-.113 7.463-.057 16.081.619 20.699 1.577-8.111-.225-34.471-.225-34.471zM37.695 688.14s-.645 7.643-1.013 16.944c-.369 9.3-.461 20.258.644 26.888 1.842-19.522.369-43.832.369-43.832zm-7.367-5.893s-.184 6.17.092 13.214c.276 7.044 1.013 14.964 2.855 18.463-.369-13.997-2.947-31.677-2.947-31.677zm1037.43-80.744s-.45 6.815-.563 14.194c-.112 7.378.113 15.32 1.463 17.573.452-13.522-.9-31.767-.9-31.767zm-6.083-17.577s-.45 5.238-.45 12.532.45 16.644 2.25 24.868c.003-19.151-1.8-37.4-1.8-37.4zM27.015 495.13s-.184 10.775.046 22.563c.23 11.787.875 24.587 2.532 28.637.369-20.627-.368-41.991-2.578-51.2zm-6.262-9.208s.46 8.932.919 18.325c.46 9.393.919 19.246.919 21.087 1.04-13.162.422-26.403-1.838-39.412zm1023.35-26.362s-.563 8.055-.732 17.348c-.169 9.294.056 19.827 1.632 24.783.001-18.249-.9-42.131-.9-42.131zm-5.407-17.573s-1.07 7.548-1.605 16.137c-.535 8.59-.535 18.221 1.605 22.389.45-17.799 0-38.526 0-38.526zm29.129-58.342s-.806 4.786-1.156 11.184c-.349 6.399-.242 14.41 1.586 20.862.861-9.463-.43-32.046-.43-32.046zm-4.516-15.055s-.753 3.387-1.048 9.248c-.296 5.861-.135 14.195 1.693 24.088.645-12.689 1.075-26.023-.645-33.336zM21.119 285.914s.276 8.196.553 17.128c.276 8.932.552 18.601.552 21.548 2.21-13.997-1.105-38.676-1.105-38.676zm-9.209-12.155s.645 9.485 1.519 19.154c.875 9.669 1.98 19.522 2.901 20.258 0-17.312-1.473-33.887-4.42-39.412zm1038.72-15.302s.311 6.109.829 12.969c.518 6.86 1.243 14.471 2.071 17.474-.208-12.633-.622-26.508-2.9-30.443zm-5.384-16.154s-.052 5.747.337 12.504c.388 6.756 1.216 14.523 2.976 18.561-1.035-14.497-3.313-31.065-3.313-31.065zm6.776-80.406s-.847-7.15-1.505-15.546c-.659-8.396-1.129-18.038-.376-23.022 1.693 16.744 2.822 32.548 1.881 38.568zm-5.08-13.734c-.995-5.302-1.714-10.648-2.153-16.017-.44-5.369-.601-10.761-.481-16.154 1.317 9.783 3.387 24.458 2.634 32.171zM785.994 41.489s6.256-.47 13.734-.659c7.479-.188 16.181-.094 21.072 1.035-12.605.565-26.151 0-34.806-.376zm5.644-5.08s5.503-.611 12.3-.894c6.797-.282 14.887-.235 20.06 1.082-12.981.753-28.785-.188-32.36-.188zM565.12 30.203s6.115-.988 13.546-1.764c7.432-.776 16.18-1.34 21.448-.494-8.278 1.503-28.786 2.632-34.994 2.258zm-6.209-5.458s6.538-.658 14.675-1.199 17.874-.965 24.27-.495c-11.665 1.129-31.231 2.258-38.945 1.694zm396.032-4.892s5.315-.329 12.864-.259c7.549.071 17.332.541 26.268 2.14-9.971.569-34.429-1.131-39.132-1.881zm-10.724-7.337s7.62-.047 15.968.188c8.349.235 17.426.752 20.342 1.881-10.912.376-32.924-.376-36.31-2.069z"/>
    <path d="M566.791 1920l-87.862-55.733h10L576.791 1920h-10zm362.936 0l-90.263-55.733h10L939.727 1920h-10zM1080 1661.745l-55.299-34.474v7l55.299 34.474v-7zM55.3 1591.431L.001 1557.122v8l55.299 34.309v-8zm0-220.45l-55.299-34.51v-8l55.299 34.51v8zm0-352.204L.001 982.169v8l55.299 36.608v-8zM1080 922.273l-55.299-33.398v-8L1080 914.273v8zm0-481.803l-55.299-34.408v-7L1080 433.47v7zM55.3 278.604L.001 244.774v-8l55.299 33.83v8zM477.737 55.733L390.696 0h-10l87.041 55.733h10z"/>
  </g>
</svg>
