<svg xmlns="http://www.w3.org/2000/svg" fill-rule="evenodd" clip-rule="evenodd" viewBox="0 0 261 440">
  <g id="grl2" fill-rule="nonzero">
    <path fill="#fff" stroke="#000" stroke-width="2" d="M87.063 294.552s-32.293-9.242-22.876-27.274c-18.931-3.418-16.557-14.231-8.113-20.372-19.109-8.017-15.22-20.952-6.561-25.44 8.659-4.488 24.362 8.957 34.404 23.078 19.76 27.788 14.714 48.503 3.146 50.008z"/>
    <path fill="#fff" stroke="#000" stroke-width="2" d="M161.912 290.882s33.475-2.781 27.747-22.3c19.234.331 19.01-10.737 11.922-18.404 18.536-5.213 18.894-18.451 10.32-24.121-7.007-4.633-25.774 2.807-37.17 16.385-21.921 26.118-23.873 44.711-12.819 48.44z"/>
    <path fill="#ffcae0" d="M74.636 327.865s-1.289 13.741-.146 24.357c1.144 10.617 5.063 33.646 15.19 53.736-5.553 8.656-13.592 18.357-10.32 21.793 2.325 2.441 5.581-1.86 5.581-1.86s-2.558 6.045.232 7.091c2.79 1.047 5.232-3.72 5.232-3.72s.581 6.045 3.371 5.929c2.79-.116 3.256-6.277 3.256-6.277s2.092 5.58 4.301 5.115c2.209-.465.814-6.511.814-6.511s3.488 4.999 6.859 3.14c3.372-1.86-3.371-6.046-3.953-15.114-.581-9.069 3.255-16.277 5.697-22.089 2.441-5.813 8.254-20.346 8.952-29.181.697-8.836.232-14.648.232-14.648s-9.765-11.045-18.834-16.393c-9.068-5.348-26.464-5.368-26.464-5.368"/>
    <path fill="#ffcae0" d="M175.768 327.865s.859 17.189-1.215 28.355c-2.073 11.166-8.453 38.281-15.312 53.434-.16 4.307 2.393 12.92 3.509 15.631 1.117 2.712 1.226 5.351-.423 6.01-1.649.66-4.618-.879-5.827-3.298 1.32 5.827-1.429 9.125-4.947 1.759-1.43 6.596-5.388 4.948-5.937-.99-2.529 6.158-6.487 9.346-5.168-1.649-3.738 4.068-7.146 1.76-4.068-3.408 3.079-5.167 6.487-12.644 6.487-12.644s-10.005-21-11.214-32.214c-1.21-11.215-1.21-30.015-1.21-30.015s14.623-15.612 26.497-20.01c11.874-4.398 18.828-.961 18.828-.961"/>
    <path fill="#ffa2c7" d="M115.27 344.751c.273 5.34.268 12.332-.834 19.018-2.216 13.433-5.54 22.712-7.895 31.022-2.003 7.072-3.194 13.043-1.542 19.19-.082-8.339 3.452-15.051 5.751-20.527 2.441-5.812 8.254-20.346 8.952-29.18.697-8.836.233-14.649.233-14.649s-1.841-2.082-4.665-4.873"/>
    <path fill="#ffa2c7" d="M130.443 348.835s0 18.801 1.209 30.016c1.209 11.213 11.215 32.213 11.215 32.213s-5.581-20.983-7.935-38.156c-1.329-9.69-1.07-20.437-.592-27.965-2.408 2.304-3.897 3.892-3.897 3.892"/>
    <path fill="none" stroke="#000" stroke-width="2" d="M74.636 327.865s-1.289 13.741-.146 24.357c1.144 10.617 5.063 33.646 15.19 53.736-5.553 8.656-13.592 18.357-10.32 21.793 2.325 2.441 5.581-1.86 5.581-1.86s-2.558 6.045.232 7.091c2.79 1.047 5.232-3.72 5.232-3.72s.581 6.045 3.371 5.929c2.79-.116 3.256-6.277 3.256-6.277s2.092 5.58 4.301 5.115c2.209-.465.814-6.511.814-6.511s3.488 4.999 6.859 3.14c3.372-1.86-3.371-6.046-3.953-15.114-.581-9.069 3.255-16.277 5.697-22.089 2.441-5.813 8.254-20.346 8.952-29.181.697-8.836.232-14.648.232-14.648s-9.765-11.045-18.834-16.393c-9.068-5.348-26.464-5.368-26.464-5.368z"/>
    <path fill="none" stroke="#000" stroke-width="2" d="M175.768 327.865s.859 17.189-1.215 28.355c-2.073 11.166-8.453 38.281-15.312 53.434-.16 4.307 2.393 12.92 3.509 15.631 1.117 2.712 1.226 5.351-.423 6.01-1.649.66-4.618-.879-5.827-3.298 1.32 5.827-1.429 9.125-4.947 1.759-1.43 6.596-5.388 4.948-5.937-.99-2.529 6.158-6.487 9.346-5.168-1.649-3.738 4.068-7.146 1.76-4.068-3.408 3.079-5.167 6.487-12.644 6.487-12.644s-10.005-21-11.214-32.214c-1.21-11.215-1.21-30.015-1.21-30.015s14.623-15.612 26.497-20.01c11.874-4.398 18.828-.961 18.828-.961z"/>
    <path fill="#ffcae0" stroke="#000" stroke-width="2" d="M76.556 296.032s-1.062 6.021-1.165 8.093c-.104 2.074 15.903 15.989 49.402 16.416 33.499.428 50.619-18.316 50.619-18.316s-.428-4.696-1.106-6.888c-9.204-1.235-36.979-1.101-49.24-1.138-31.033-.097-48.51 1.833-48.51 1.833z"/>
    <path fill="#ffcae0" d="M95.511 267.858c-.001 0-26.347-3.732-39.52-7.904-13.172-4.171-31.175-7.245-32.273-4.171-1.097 3.074-3.292 5.05-5.927 4.83-2.634-.22-2.854-5.269-.439-8.343-6.587 5.928-10.099 3.293-3.733-5.708-9.001 5.049-13.391 2.415-3.292-6.147-10.759.219-5.928-5.05 2.414-5.489-6.585-6.367-1.976-7.684 1.976-5.928 3.952 1.756 6.586 4.83 14.491 4.83 7.904 0 34.249 2.415 39.738 2.415 5.488 0 22.613-3.293 27.663-4.83 5.049 7.684 4.61 27.005-1.098 36.445"/>
    <path fill="#ffcae0" d="M158.892 232.926s13.001 4.844 39.514 6.373c26.513 1.53 32.377 1.275 36.71.765 4.334-.51 11.284-8.429 14.786-5.864 2.111 1.547-4.707 7.563-4.707 7.563 6.818-1.984 10.85-2.295 11.47-.434.62 1.861-6.202 5.427-6.202 5.427s6.357 0 6.357 2.016-5.582 2.171-5.582 2.171 5.582 1.86 4.962 3.411c-.62 1.551-2.791 1.861-5.582.465 3.721 3.566 2.791 8.063-1.086 5.272-3.876-2.791-5.117-3.256-8.683-2.171-3.566 1.086-21.242 8.063-38.918 10.234-17.677 2.17-35.353 1.085-39.075.775-8.217-7.598-9.634-25.179-3.964-36.003"/>
    <path fill="#ffcae0" d="M100.802 232.33s8.981 3.813 26.697 4.306c17.716.492 26.575-2.338 26.575-2.338s-4.185 34.817-26.944 34.079c-22.76-.738-25.59-28.543-26.328-36.047"/>
    <path fill="#ff9ec3" d="M127.499 236.636c-17.716-.492-26.697-4.306-26.697-4.306.156 1.591.41 4.098.924 7.06 5.435 1.845 13.337 3.599 24.076 3.832 11.176.244 20.433-1.198 27.092-2.786.874-3.635 1.179-6.137 1.179-6.137s-8.858 2.829-26.574 2.337"/>
    <path fill="#ffa2c7" d="M74.418 260.351c-5.652-1.371-22.438-5.652-33.742-6.509-4.879-.369-8.475.092-10.995.734 6.638.314 17.542 2.602 26.311 5.379 13.173 4.171 39.519 7.903 39.519 7.903.815-1.349 1.52-2.905 2.119-4.594-6.334-.606-19.032-1.9-23.212-2.913"/>
    <path fill="#ffa2c7" d="M246.604 258.179c-5.662-4.496-13.79-1.63-19.403-.398-7.023 1.542-33.229 7.365-47.617 7.708-8.263.196-15.561-.511-20.281-1.148.994 1.755 2.176 3.314 3.553 4.588 3.722.31 21.398 1.395 39.074-.776 17.676-2.17 35.353-9.148 38.919-10.233 2.488-.758 3.846-.757 5.755.259"/>
    <path fill="none" stroke="#000" stroke-width="2" d="M95.511 267.858c-.001 0-26.347-3.732-39.52-7.904-13.172-4.171-31.175-7.245-32.273-4.171-1.097 3.074-3.292 5.05-5.927 4.83-2.634-.22-2.854-5.269-.439-8.343-6.587 5.928-10.099 3.293-3.733-5.708-9.001 5.049-13.391 2.415-3.292-6.147-10.759.219-5.928-5.05 2.414-5.489-6.585-6.367-1.976-7.684 1.976-5.928 3.952 1.756 6.586 4.83 14.491 4.83 7.904 0 34.249 2.415 39.738 2.415 5.488 0 22.613-3.293 27.663-4.83 5.049 7.684 4.61 27.005-1.098 36.445z"/>
    <path fill="none" stroke="#000" stroke-width="2" d="M158.892 232.926s13.001 4.844 39.514 6.373c26.513 1.53 32.377 1.275 36.71.765 4.334-.51 11.284-8.429 14.786-5.864 2.111 1.547-4.707 7.563-4.707 7.563 6.818-1.984 10.85-2.295 11.47-.434.62 1.861-6.202 5.427-6.202 5.427s6.357 0 6.357 2.016-5.582 2.171-5.582 2.171 5.582 1.86 4.962 3.411c-.62 1.551-2.791 1.861-5.582.465 3.721 3.566 2.791 8.063-1.086 5.272-3.876-2.791-5.117-3.256-8.683-2.171-3.566 1.086-21.242 8.063-38.918 10.234-17.677 2.17-35.353 1.085-39.075.775-8.217-7.598-9.634-25.179-3.964-36.003z"/>
    <path fill="#78cb74" stroke="#000" stroke-width="2" d="M162.3 230.525c-2.811 1.002-6.013 1.907-9.654 2.624-1.752 10.703-6.938 35.038-26.521 34.392-18.227-.601-22.767-24.399-23.064-36.223-3.962-.972-7.227-2.058-9.88-3.156 1.929 4.431 5.39 14.452 1.905 23.165-4.633 11.581-16.678 25.248-18.531 44.705 15.058 7.181 36.599 9.497 48.18 9.034 11.582-.463 36.135-2.316 49.57-9.729-3.475-16.909-5.559-23.163-10.887-30.807-5.221-7.49-4.212-25.65-1.118-34.005z"/>
    <path fill="#ffcae0" d="M130.243 237.405c-48.004.012-73.245-28.032-77.033-59.098-3.789-31.066 1.768-67.183 5.051-77.791 3.284-10.608 15.407-42.936 71.982-46.472 56.575-3.536 72.992 36.37 78.043 49.756 5.052 13.386 11.113 48.24 2.273 76.78-8.839 28.54-27.024 56.811-80.316 56.825"/>
    <path fill="none" stroke="#000" stroke-width="2" d="M130.243 237.405c-48.004.012-73.245-28.032-77.033-59.098-3.789-31.066 1.768-67.183 5.051-77.791 3.284-10.608 15.407-42.936 71.982-46.472 56.575-3.536 72.992 36.37 78.043 49.756 5.052 13.386 11.113 48.24 2.273 76.78-8.839 28.54-27.024 56.811-80.316 56.825z"/>
    <path fill="#ff9ec3" d="M208.286 103.799c-5.051-13.386-21.468-53.292-78.043-49.756-56.576 3.536-68.699 35.865-71.982 46.473-1.478 4.774-3.414 14.722-4.753 27.043 4.257 2.257 9.513 3.625 15.236 1.926 14.363-4.264-3.143-20.648-3.143-20.648s10.549 7.182 14.589-4.04c9.651 6.508 16.159-2.918 16.159-2.918s10.998 5.836 12.569-4.937c5.611-3.591 8.977-4.938 8.977-4.938s0 12.793 5.387 13.242c5.386.449 9.875-6.509 9.875-6.509s2.387 16.061 21.321 17.057c12.793.673 16.833-9.202 16.833-9.202-15.486 3.816-17.281-1.122-15.71-14.364 5.611 5.836 11.67 6.284 17.057 5.162 2.245 8.978 11.895 10.1 17.506 4.489 1.347 6.509 7.855 7.856 7.855 7.856s-4.488 5.162-.897 9.65c2.239 2.799 9.886 1.584 15.328.273-1.23-6.582-2.737-12.077-4.164-15.859"/>
    <path fill="none" stroke="#000" stroke-linecap="round" stroke-linejoin="round" stroke-width="3" d="M94.772 115.325s-14.394.645-25.78 16.757"/>
    <path fill="none" stroke="#000" stroke-linecap="round" stroke-linejoin="round" stroke-width="3" d="M193.168 129.504s-5.156-12.246-30.292-15.683"/>
    <path fill="#ff9ec3" d="M93.7 190.25c-20.184 0-18.999-18.811-8.277-19.563 10.722-.754 25.395-1.317 25.207 9.781-.189 11.097-9.97 9.781-16.93 9.781"/>
    <path fill="#ff9ec3" d="M174.022 188.556c-17.123.364-18.623-4.891-19.187-7.9-.564-3.01 1.505-9.594 14.296-10.723 12.791-1.128 19.375.377 18.434 8.089-.94 7.713-4.702 10.346-13.543 10.534"/>
    <path fill="#fff" d="M124.361 152.252c.57 16.799-14.296 24.642-27.275 25.019-12.98.376-24.642-14.297-22.762-28.405 1.882-14.108 12.416-21.256 26.336-20.88 13.92.376 23.325 13.168 23.701 24.266"/>
    <path fill="none" stroke="#000" stroke-linecap="round" stroke-linejoin="round" stroke-width="2" d="M124.361 152.252c.57 16.799-14.296 24.642-27.275 25.019-12.98.376-24.642-14.297-22.762-28.405 1.882-14.108 12.416-21.256 26.336-20.88 13.92.376 23.325 13.168 23.701 24.266z"/>
    <path d="M81.473 153.944c.271-9.213 7.148-19.375 18.999-19.187 11.851.188 17.682 8.465 17.494 17.871-.188 9.405-7.336 17.87-19.563 16.929-12.227-.941-17.118-9.217-16.93-15.613"/>
    <path fill="#fff" d="M110.065 148.489c-4.633.806-3.95-5.643-.564-6.208 3.385-.563 4.89 5.456.564 6.208"/>
    <path fill="#fff" d="M105.363 155.073c-2.82.128-3.763-4.891-.001-4.703 3.763.188 4.139 4.515.001 4.703"/>
    <path fill="#fff" d="M168.755 177.082c-12.78.572-26.335-8.088-26.523-26.146-.188-18.059 16.741-23.138 24.642-23.138s24.642 5.079 25.395 21.633c.752 16.553-10.911 27.087-23.514 27.651"/>
    <path fill="none" stroke="#000" stroke-linecap="round" stroke-linejoin="round" stroke-width="2" d="M168.755 177.082c-12.78.572-26.335-8.088-26.523-26.146-.188-18.059 16.741-23.138 24.642-23.138s24.642 5.079 25.395 21.633c.752 16.553-10.911 27.087-23.514 27.651z"/>
    <path d="M148.063 152.252c-.198-11.098 7.336-18.058 18.811-17.682 11.474.376 18.246 7.901 18.246 17.682 0 9.782-7.148 17.118-18.622 17.306-11.475.188-18.247-6.772-18.435-17.306"/>
    <path fill="#fff" d="M174.64 149.032c-3.145 0-3.893-1.647-3.893-4.043s2.995-3.145 5.391-1.947 3.444 5.99-1.498 5.99"/>
    <path fill="#fff" d="M170.251 154.081c-2.87.638-2.636-4.055-.406-4.258 2.231-.203 4.968 3.244.406 4.258"/>
    <path fill="none" stroke="#000" stroke-linecap="round" stroke-linejoin="round" stroke-width="2" d="M129.19 159.049s-1.724 7.401 2.535 7.908c4.257.507 4.967-4.562 5.069-7.401"/>
    <path fill="none" stroke="#000" stroke-linecap="round" stroke-linejoin="round" stroke-width="2" d="M121.484 176.285s.811 10.544 9.429 10.443c8.618-.102 11.153-5.475 11.457-9.835"/>
    <path fill="#fbe16e" d="M60.103 148.405s-28-1-27-29c8 4 21.5-.5 23.5-14.5s7-35 25-49 19.792-16.496 17-21c-1.578-2.547-9-3-13 6-6.149-5.527-6.701-14.028-.187-18.887 6.515-4.858 25.395-3.312 30.695 10.931-1.104-14.685 2.262-26.652 20.026-28.709 17.764-2.057 17.951 23.748 17.951 23.748s-15.707-7.854-19.26 3.179c-3.553 11.032 23 5.423 38.895 13.277 15.894 7.853 32.162 24.308 38.333 44.316 6.171 20.009 9.537 37.96 21.878 31.603-1.122 17.39-1.309 23-9.911 24.121-8.601 1.122-18.138 9.911-18.138 9.911s3.74-31.602-.187-46.187c-3.927-14.586-15.333-22.065-27.675-21.317-12.341.747-32.723 13.837-7.667 20.569-12.154 9.349-22.833 3.256-28.63-1.045-5.797-4.301-14.191-24.386-14.751-30.183-14.586 8.789-33.098-.374-53.293 18.699-11.016 10.403-17.246 32.712-13.579 53.474"/>
    <path fill="#f1bc47" d="M46.439 144.513c-6.12-9.68-8.91-18.306-10.176-24.024-1.115-.233-2.179-.594-3.16-1.084-.505 14.143 6.389 21.392 13.336 25.108"/>
    <path fill="#f1bc47" d="M223.107 144.652c.306-.058.613-.128.917-.168 8.602-1.122 8.789-6.731 9.911-24.122-.808.416-1.576.723-2.309.936-3.035 10.295-6.254 18.284-8.519 23.354"/>
    <path fill="#f1bc47" d="M212.056 88.76c-6.171-20.008-22.439-36.463-38.333-44.317-15.895-7.854-42.448-2.244-38.895-13.277 3.553-11.032 19.26-3.178 19.26-3.178s-.02-2.346-.529-5.559c-2.215-1.542-5.051-2.779-8.397-2.609-8.388.427-18.767 13.365-6.824 19.905 11.943 6.54 22.322 1.422 45.07 17.487 12.14 8.574 22.05 21.439 28.656 31.574-.003-.009-.006-.017-.008-.026"/>
    <path fill="#f1bc47" d="M81.603 55.905c-4.187 3.257-7.664 6.896-10.57 10.734 13.446-7.287 30.117-17.415 30.624-23.075.853-9.526-3.839-14.644-11.232-13.933-4.195.403-6.786 3.918-8.244 6.884.81 1.572 1.951 3.068 3.422 4.39 4-9 11.422-8.547 13-6 2.792 4.504 1 7-17 21"/>
    <path fill="none" stroke="#000" stroke-width="2" d="M60.103 148.405s-28-1-27-29c8 4 21.5-.5 23.5-14.5s7-35 25-49 19.792-16.496 17-21c-1.578-2.547-9-3-13 6-6.149-5.527-6.701-14.028-.187-18.887 6.515-4.858 25.395-3.312 30.695 10.931-1.104-14.685 2.262-26.652 20.026-28.709 17.764-2.057 17.951 23.748 17.951 23.748s-15.707-7.854-19.26 3.179c-3.553 11.032 23 5.423 38.895 13.277 15.894 7.853 32.162 24.308 38.333 44.316 6.171 20.009 9.537 37.96 21.878 31.603-1.122 17.39-1.309 23-9.911 24.121-8.601 1.122-18.138 9.911-18.138 9.911s3.74-31.602-.187-46.187c-3.927-14.586-15.333-22.065-27.675-21.317-12.341.747-32.723 13.837-7.667 20.569-12.154 9.349-22.833 3.256-28.63-1.045-5.797-4.301-14.191-24.386-14.751-30.183-14.586 8.789-33.098-.374-53.293 18.699-11.016 10.403-17.246 32.712-13.579 53.474z"/>
    <path fill="#78cb74" stroke="#000" stroke-width="2" d="M83.281 78.288S65.4 85.366 62.296 65.995c9.065-4.595 21.358.124 20.985 12.293z"/>
    <path fill="#78cb74" stroke="#000" stroke-width="2" d="M119.292 87.105s-10.058 8.32-21.234-7.326c5.588-9.562 20.613-2.484 21.234 7.326z"/>
    <path fill="#78cb74" stroke="#000" stroke-width="2" d="M119.044 103.247s-6.954-17.508 12.914-25.704c2.857 8.568 2.235 20.116-12.914 25.704z"/>
    <path fill="#78cb74" stroke="#000" stroke-width="2" d="M173.308 63.139s-15.025-9.313-24.959 4.595c10.058 4.594 19.496 8.071 24.959-4.595z"/>
    <path fill="#78cb74" stroke="#000" stroke-width="2" d="M191.065 83.255s25.828-8.692 33.899 1.738c-5.712 7.202-19.743 15.15-33.899-1.738z"/>
    <path fill="#bbf96c" stroke="#000" stroke-width="2" d="M194.542 94.803s20.241.621 23.221 16.019c-11.549 4.47-23.345.248-23.221-16.019z"/>
    <path fill="#bbf96c" stroke="#000" stroke-width="2" d="M106.751 57.427s14.893-4.479 25.328 15.207c-9.185 5.654-24.955 3.916-25.328-15.207z"/>
    <path fill="#c5abf3" d="M86.279 103.767c-7.437.861-9.498-5.625-9.082-10.726.314-3.836 2.959-6.98 5.951-9.708 2.139 1.621 7.053 3.364 9.001 2.628 2.106 6.464 2.245 16.867-5.87 17.806"/>
    <path fill="none" stroke="#000" stroke-width="2" d="M86.279 103.767c-7.437.861-9.498-5.625-9.082-10.726.314-3.836 2.959-6.98 5.951-9.708 2.139 1.621 7.053 3.364 9.001 2.628 2.106 6.464 2.245 16.867-5.87 17.806z"/>
    <path fill="#c5abf3" stroke="#000" stroke-width="2" d="M97.069 78.969s6.372-.291 12.227 6.792c5.856 7.082-.567 15.134-7.516 13.309-6.948-1.826-9.631-13.109-9.631-13.109s5-2.001 4.92-6.992z"/>
    <path fill="#c5abf3" stroke="#000" stroke-width="2" d="M91.976 72.529s1.664-4.468 7.234-8.179c6.977-4.647 13.687-.276 14.157 3.717.475 4.036-3.545 13.526-16.298 10.902-.091-3.837-5.093-6.44-5.093-6.44z"/>
    <path fill="#c5abf3" stroke="#000" stroke-width="2" d="M81.941 76.342S66.994 65.786 77.7 57.405c7.483-5.857 19.406 6.001 14.276 15.124-7.707-3.682-10.035 3.813-10.035 3.813z"/>
    <path fill="#fff387" d="M59.243 109.211c-4.165 4.998-9.713 4.121-12.068 1.03-2.355-3.091-2.207-8.83 5.298-10.596 7.506-1.766 8.978 6.917 6.77 9.566"/>
    <path fill="none" stroke="#000" stroke-width="2" d="M59.243 109.211c-4.165 4.998-9.713 4.121-12.068 1.03-2.355-3.091-2.207-8.83 5.298-10.596 7.506-1.766 8.978 6.917 6.77 9.566z"/>
    <path fill="#fff" d="M71.315 121.911c-2.087 3.895-8.475 6.38-12.349 2.521-2.523-2.515-3.89-8.269-4.332-12.012 2.387-.74 4.859-2.813 5.358-4.686 6.034 1.913 15.733 5.946 11.323 14.177"/>
    <path fill="none" stroke="#000" stroke-width="2" d="M71.315 121.911c-2.087 3.895-8.475 6.38-12.349 2.521-2.523-2.515-3.89-8.269-4.332-12.012 2.387-.74 4.859-2.813 5.358-4.686 6.034 1.913 15.733 5.946 11.323 14.177z"/>
    <path fill="#fff" stroke="#000" stroke-width="2" d="M57.37 100.218s5.111-6.166 13.647-6.755c8.536-.588 11.332 7.947 6.181 12.215-5.151 4.269-17.206 2.057-17.206 2.057s1.198-4.87-2.622-7.517z"/>
    <path fill="#fff" stroke="#000" stroke-width="2" d="M49.734 100.578s-2.479-3.683-2.264-9.911c.268-7.801 8.535-10.154 12.215-9.272 3.679.884 6.59 10.596-2.315 18.823-2.952-2.014-7.636.36-7.636.36z"/>
    <path fill="#fff" stroke="#000" stroke-width="2" d="M47.175 110.241s-16.042 1.766-16.63-7.064c-.589-8.831 15.068-11.429 19.189-2.599-6.968 3.835-2.559 9.663-2.559 9.663z"/>
    <path fill="#fff" stroke="#000" stroke-width="2" d="M54.612 112.442s1.335 4.261.889 8.965c-.567 5.986-5.088 8.996-10.681 8.408-5.592-.589-8.241-5.446-6.475-11.627 1.766-6.181 8.83-7.947 8.83-7.947s2.518 3.603 7.437 2.201z"/>
    <path fill="#c5abf3" stroke="#000" stroke-width="2" d="M83.113 82.891s-1.984 2.771-6.37 5.326c-5.579 3.25-13.339 4.179-16.325-1.071-2.986-5.25 1.601-9.075 8.102-11.401 6.501-2.327 13.421.598 13.421.598s-1.11 3.545 1.172 6.548z"/>
    <path fill="#fff387" d="M90.391 86.232c-6.968-.508-9.675-5.9-8.451-9.889 1.224-3.989 6.326-7.453 12.565-2.006 6.238 5.446-.42 12.165-4.114 11.895"/>
    <path fill="none" stroke="#000" stroke-width="2" d="M90.391 86.232c-6.968-.508-9.675-5.9-8.451-9.889 1.224-3.989 6.326-7.453 12.565-2.006 6.238 5.446-.42 12.165-4.114 11.895z"/>
    <path fill="#c5abf3" d="M170.822 62.899c5.166-4.623 14.277 4.664 14.753 11.232-4.786.604-6.186 3.141-6.567 6.092-7.805-4.188-15.421-10.851-8.186-17.324"/>
    <path fill="none" stroke="#000" stroke-width="2" d="M170.822 62.899c5.166-4.623 14.277 4.664 14.753 11.232-4.786.604-6.186 3.141-6.567 6.092-7.805-4.188-15.421-10.851-8.186-17.324z"/>
    <path fill="#c5abf3" stroke="#000" stroke-width="2" d="M186.247 74.237s2.144-5.003 8.836-7.797c6.692-2.793 10.656.91 11.24 3.899.585 2.988-2.014 9.356-12.149 12.539.324-4.613-1.365-6.107-2.275-6.822-.909-.715-3.183-1.884-5.652-1.819z"/>
    <path fill="#c5abf3" d="M203.335 98.082c2.918-1.67 3.574-8.251.325-11.11-3.248-2.859-9.486-4.094-9.486-4.094s-.26 3.639-4.613 4.679c1.819 4.418 2.534 16.957 13.774 10.525"/>
    <path fill="none" stroke="#000" stroke-width="2" d="M203.335 98.082c2.918-1.67 3.574-8.251.325-11.11-3.248-2.859-9.486-4.094-9.486-4.094s-.26 3.639-4.613 4.679c1.819 4.418 2.534 16.957 13.774 10.525z"/>
    <path fill="#c5abf3" stroke="#000" stroke-width="2" d="M180.79 86.127s-2.729 4.028-2.599 10.916c.13 6.886 8.836 5.977 10.656 4.482 1.818-1.494 4.807-5.717.714-13.968-4.288.584-6.822.13-8.771-1.43z"/>
    <path fill="#c5abf3" stroke="#000" stroke-width="2" d="M179.008 80.223s-4-2.022-8.613-1.827c-4.613.195-9.161 5.392-8.382 10.201.78 4.807 7.342 5.912 11.565 4.158 2.169-.901 7.212-6.628 7.212-6.628s-1.745-2.842-1.782-5.904z"/>
    <path fill="#fff387" d="M179.008 80.223c0-2.666 2.57-6.949 8.948-5.807 6.377 1.143 6.758 6.092 6.092 9.139-.667 3.045-4.379 4.283-8.567 4.283-4.188 0-6.473-3.332-6.473-7.615"/>
    <path fill="none" stroke="#000" stroke-width="2" d="M179.008 80.223c0-2.666 2.57-6.949 8.948-5.807 6.377 1.143 6.758 6.092 6.092 9.139-.667 3.045-4.379 4.283-8.567 4.283-4.188 0-6.473-3.332-6.473-7.615z"/>
    <path fill="#fff" d="M144.59 94.821c-3.96 2.333-12.08-1.881-12.404-7.56-.203-3.556 1.039-6.67 3.376-9.108 2.739 1.542 7.531 1.492 8.97-.097 4.037 5.202 7.475 12.396.058 16.765"/>
    <path fill="none" stroke="#000" stroke-width="2" d="M144.59 94.821c-3.96 2.333-12.08-1.881-12.404-7.56-.203-3.556 1.039-6.67 3.376-9.108 2.739 1.542 7.531 1.492 8.97-.097 4.037 5.202 7.475 12.396.058 16.765z"/>
    <path fill="#fff" stroke="#000" stroke-width="2" d="M146.726 70.072s8.017-2.262 15.674 2.275c7.656 4.537 5.01 13.496-1.921 14.109-6.931.613-15.947-8.4-15.947-8.4s3.902-3.462 2.194-7.984z"/>
    <path fill="#fff" stroke="#000" stroke-width="2" d="M139.975 65.871s.052-4.617 3.914-9.823c4.836-6.521 13.305-3.655 15.934-.726 2.629 2.929-.615 12.964-13.097 14.75-1.339-3.468-6.751-4.201-6.751-4.201z"/>
    <path fill="#fff" stroke="#000" stroke-width="2" d="M132.078 72.634s-14.778-7.96-10.068-15.869c4.71-7.908 19.651-.888 17.965 9.106-8.23-.83-7.897 6.763-7.897 6.763z"/>
    <path fill="#fff" stroke="#000" stroke-width="2" d="M135.521 78.145s-2.281 2.583-5.819 5.994c-3.567 3.44-9.224 2.084-11.02.382-2.42-2.293-2.739-7.07 1.143-10.297 5.142-4.275 12.254-1.591 12.254-1.591s.179 3.633 3.442 5.512z"/>
    <path fill="#fff387" d="M143.02 78.878c-6.517 1.82-10.75-2.207-10.941-6.244-.192-4.037 3.324-8.864 10.794-5.944 7.469 2.919 3.602 11.224.147 12.188"/>
    <path fill="none" stroke="#000" stroke-width="2" d="M143.02 78.878c-6.517 1.82-10.75-2.207-10.941-6.244-.192-4.037 3.324-8.864 10.794-5.944 7.469 2.919 3.602 11.224.147 12.188z"/>
    <path fill="#fff387" d="M219.84 120.88c-7.014.85-8.538-6.324-7.483-9.17 1.053-2.846 3.794-6.956 10.645-4.848 6.851 2.108 5.376 8.432 3.162 10.329-2.214 1.897-2.846 3.268-6.324 3.689"/>
    <path fill="none" stroke="#000" stroke-width="2" d="M219.84 120.88c-7.014.85-8.538-6.324-7.483-9.17 1.053-2.846 3.794-6.956 10.645-4.848 6.851 2.108 5.376 8.432 3.162 10.329-2.214 1.897-2.846 3.268-6.324 3.689z"/>
    <path fill="#fff" d="M238.391 101.381c3.333 3.667 1.897 10.435-1.476 12.332-3.373 1.897-7.483 1.265-8.959 1.054 1.581-4.322-2.951-7.273-3.9-7.695 2.846-6.007 9.065-11.488 14.335-5.691"/>
    <path fill="none" stroke="#000" stroke-width="2" d="M238.391 101.381c3.333 3.667 1.897 10.435-1.476 12.332-3.373 1.897-7.483 1.265-8.959 1.054 1.581-4.322-2.951-7.273-3.9-7.695 2.846-6.007 9.065-11.488 14.335-5.691z"/>
    <path fill="#fff" d="M236.072 130.999c-3.021 3.237-12.964 2.213-16.232-10.119 4.954-.948 6.535-3.162 7.589-5.375 7.062 2.108 14.545 9.17 8.643 15.494"/>
    <path fill="none" stroke="#000" stroke-width="2" d="M236.072 130.999c-3.021 3.237-12.964 2.213-16.232-10.119 4.954-.948 6.535-3.162 7.589-5.375 7.062 2.108 14.545 9.17 8.643 15.494z"/>
    <path fill="#fff" d="M209.932 135.32c-4.861-.391-7.905-11.805 3.057-17.286 2.108 2.425 4.426 3.689 6.851 2.846.105 6.535-.738 15.178-9.908 14.44"/>
    <path fill="none" stroke="#000" stroke-width="2" d="M209.932 135.32c-4.861-.391-7.905-11.805 3.057-17.286 2.108 2.425 4.426 3.689 6.851 2.846.105 6.535-.738 15.178-9.908 14.44z"/>
    <path fill="#fff" d="M196.862 111.711c-.586-5.979 6.64-10.224 18.867-4.321-2.741 2.424-5.165 5.481-2.741 10.645-7.694 2.425-15.599-.949-16.126-6.324"/>
    <path fill="none" stroke="#000" stroke-width="2" d="M196.862 111.711c-.586-5.979 6.64-10.224 18.867-4.321-2.741 2.424-5.165 5.481-2.741 10.645-7.694 2.425-15.599-.949-16.126-6.324z"/>
    <path fill="#fff" d="M217.099 90.736c5.709-.275 11.7 3.689 6.957 16.337-3.795-.948-6.43-.738-8.327.316-6.008-4.637-7.378-16.232 1.37-16.653"/>
    <path fill="none" stroke="#000" stroke-width="2" d="M217.099 90.736c5.709-.275 11.7 3.689 6.957 16.337-3.795-.948-6.43-.738-8.327.316-6.008-4.637-7.378-16.232 1.37-16.653z"/>
    <path fill="#ffcae0" d="M223.145 142.056c-2.072.592-4.906 3.256-8.093 5.751-.003 10.854-1.231 22.243-4.493 32.773-.023.075-.048.15-.072.225 9.284-2.57 15.631-11.101 18.08-14.638 5.281-7.628 6.281-27.455-5.422-24.111"/>
    <path fill="none" stroke="#000" stroke-width="2" d="M223.145 142.056c-2.072.592-4.906 3.256-8.093 5.751-.003 10.854-1.231 22.243-4.493 32.773-.023.075-.048.15-.072.225 9.284-2.57 15.631-11.101 18.08-14.638 5.281-7.628 6.281-27.455-5.422-24.111z"/>
    <path fill="#ffcae0" d="M53.21 178.307c-1.25-10.251-1.48-21.048-1.112-31.301-3.055-1.578-5.458-7.027-10.459-6.671-5.724.408-12.626 9.821-3.407 24.251 4.707 7.367 10.665 12.849 15.372 16.455-.149-.909-.283-1.82-.394-2.734"/>
    <path fill="none" stroke="#000" stroke-width="2" d="M53.21 178.307c-1.25-10.251-1.48-21.048-1.112-31.301-3.055-1.578-5.458-7.027-10.459-6.671-5.724.408-12.626 9.821-3.407 24.251 4.707 7.367 10.665 12.849 15.372 16.455-.149-.909-.283-1.82-.394-2.734z"/>
    <path fill="#78cb74" stroke="#000" stroke-width="2" d="M75.391 304.126s19.899 10.742 48.031 10.029c28.132-.712 45.224-7.655 51.99-11.929 1.246 9.615.356 25.639.356 25.639s-12.819 5.163-21.544 11.038c-8.724 5.876-21.01 15.491-27.775 15.313-6.766-.178-17.093-11.752-27.598-16.202-10.505-4.452-24.215-10.149-24.215-10.149s.237-15.24.755-23.74v.001z"/>
    <path fill="#c3fe71" d="M117.651 290.547c3.27 1.784 7.402.287 7.415 3.651.013 3.365-2.463 4.328-5.764 3.365-3.301-.963-5.915-5.641-5.915-5.641s0 8.942 9.766 9.354c9.767.413 1.789-13.618 8.804-15.13 7.015-1.514 4.126 6.464 1.1 7.84-3.026 1.375.275 4.126 2.339 3.852 2.063-.275 6.464-4.953 3.163-10.455-3.301-5.502-8.528-6.464-11.829.275-2.889-5.502-4.953-6.739-8.941-6.327-3.99.413-3.577 2.339-2.201 3.714 1.376 1.376 6.327-2.201 7.84 2.064-4.814.137-6.74.549-6.74.549s-.55 2.064.963 2.889"/>
    <path fill="#c3fe71" d="M119.714 275.691s3.714 3.439 10.592.688c2.063 1.513 2.063 3.164 2.063 3.164s-8.529 1.65-12.655-3.852"/>
    <path fill="#c3fe71" d="M124.909 271.421c2.741-.095 2.742 4.341.114 4.341-2.627 0-3.427-4.227-.114-4.341"/>
  </g>
</svg>
