<svg xmlns="http://www.w3.org/2000/svg" fill-rule="evenodd" clip-rule="evenodd" viewBox="0 0 219 440">
  <g id="grl3" fill-rule="nonzero">
    <path fill="#fff" stroke="#000" stroke-width="2" d="M60.879 293.551s-32.293-9.242-22.875-27.273c-18.932-3.419-16.558-14.232-8.113-20.373-19.11-8.016-15.221-20.952-6.562-25.44 8.659-4.487 24.362 8.957 34.404 23.078 19.761 27.788 14.714 48.503 3.146 50.008z"/>
    <path fill="#fff" stroke="#000" stroke-width="2" d="M135.728 289.881s33.475-2.78 27.747-22.3c19.234.332 19.01-10.736 11.922-18.403 18.536-5.214 18.893-18.451 10.32-24.121-7.007-4.634-25.774 2.807-37.17 16.385-21.921 26.118-23.873 44.711-12.819 48.439z"/>
    <path fill="#ffcae0" d="M101.664 350.651s3.845 9.512 6.881 12.952c-2.226 3.442-4.665 8.576-4.665 8.576.513-7.189-1.926-9.115-3.723-9.115s-6.162 3.21-6.547 9.372c-.385 6.162-1.412 10.399-3.338 13.608-1.925 3.209-3.337 6.546-1.54 7.831 1.797 1.283 4.236-2.44 4.236-2.44s-3.851 6.29-.385 6.933c3.466.641 4.236-6.162 4.236-6.162s-.128 7.445 1.669 7.445c1.798 0 3.21-4.493 3.21-6.418 1.925 5.648 2.824 6.033 3.851 5.392 1.027-.643.513-5.136-.129-6.676 4.494 4.75 5.007 4.493 5.906 3.723.898-.771 1.026-3.723-4.108-11.939 7.446.257 28.744-.852 44.836-4.667 16.091-3.815 29.197-12.442 29.197-26.543 0-14.101-18.488-20.783-31.889-24.658-13.4-3.876-47.698 22.786-47.698 22.786"/>
    <path fill="#ffa2c7" d="M138.806 346.208c-9.653.516-17.451 1.654-33.408 12.476 1.024 1.929 2.13 3.766 3.147 4.919 0 0 10.877-12.181 30.261-17.395"/>
    <path fill="none" stroke="#000" stroke-linecap="round" stroke-linejoin="round" stroke-width="2" d="M108.546 363.603s10.876-12.181 30.261-17.395"/>
    <path fill="none" stroke="#000" stroke-width="2" d="M101.664 350.651s3.845 9.512 6.881 12.952c-2.226 3.442-4.665 8.576-4.665 8.576.513-7.189-1.926-9.115-3.723-9.115s-6.162 3.21-6.547 9.372c-.385 6.162-1.412 10.399-3.338 13.608-1.925 3.209-3.337 6.546-1.54 7.831 1.797 1.283 4.236-2.44 4.236-2.44s-3.851 6.29-.385 6.933c3.466.641 4.236-6.162 4.236-6.162s-.128 7.445 1.669 7.445c1.798 0 3.21-4.493 3.21-6.418 1.925 5.648 2.824 6.033 3.851 5.392 1.027-.643.513-5.136-.129-6.676 4.494 4.75 5.007 4.493 5.906 3.723.898-.771 1.026-3.723-4.108-11.939 7.446.257 28.744-.852 44.836-4.667 16.091-3.815 29.197-12.442 29.197-26.543 0-14.101-18.488-20.783-31.889-24.658-13.4-3.876-47.698 22.786-47.698 22.786z"/>
    <path fill="#ffcae0" d="M48.231 327.865s-1.289 13.74-.146 24.356c1.144 10.618 5.063 33.647 15.19 53.736-5.553 8.656-13.593 18.357-10.32 21.794 2.325 2.441 5.58-1.861 5.58-1.861s-2.557 6.046.233 7.092c2.79 1.046 5.232-3.721 5.232-3.721s.581 6.046 3.371 5.93c2.79-.116 3.256-6.278 3.256-6.278s2.092 5.581 4.301 5.115c2.209-.465.814-6.51.814-6.51s3.488 4.999 6.859 3.139c3.371-1.86-3.371-6.045-3.953-15.113-.581-9.069 3.255-16.277 5.697-22.089 2.441-5.814 8.254-20.346 8.951-29.182.698-8.835.233-14.648.233-14.648s-9.766-11.044-18.834-16.393c-9.068-5.347-26.464-5.367-26.464-5.367"/>
    <path fill="#ffa2c7" d="M88.864 344.751c.273 5.34.268 12.332-.834 19.017-2.216 13.433-5.54 22.712-7.895 31.021-2.003 7.073-3.194 13.044-1.542 19.191-.082-8.338 3.452-15.052 5.751-20.527 2.441-5.812 8.254-20.345 8.952-29.181.697-8.834.233-14.648.233-14.648s-1.842-2.081-4.665-4.873"/>
    <path fill="none" stroke="#000" stroke-width="2" d="M48.231 327.865s-1.289 13.74-.146 24.356c1.144 10.618 5.063 33.647 15.19 53.736-5.553 8.656-13.593 18.357-10.32 21.794 2.325 2.441 5.58-1.861 5.58-1.861s-2.557 6.046.233 7.092c2.79 1.046 5.232-3.721 5.232-3.721s.581 6.046 3.371 5.93c2.79-.116 3.256-6.278 3.256-6.278s2.092 5.581 4.301 5.115c2.209-.465.814-6.51.814-6.51s3.488 4.999 6.859 3.139c3.371-1.86-3.371-6.045-3.953-15.113-.581-9.069 3.255-16.277 5.697-22.089 2.441-5.814 8.254-20.346 8.951-29.182.698-8.835.233-14.648.233-14.648s-9.766-11.044-18.834-16.393c-9.068-5.347-26.464-5.367-26.464-5.367z"/>
    <path fill="#ffcae0" stroke="#000" stroke-width="2" d="M50.151 296.032s-1.062 6.021-1.165 8.094c-.104 2.073 15.903 15.988 49.402 16.416 33.498.427 50.619-18.317 50.619-18.317s-.428-4.696-1.106-6.888c-9.204-1.235-36.979-1.101-49.241-1.139-31.032-.096-48.509 1.834-48.509 1.834z"/>
    <path fill="#ffcae0" d="M74.397 232.33s8.981 3.813 26.697 4.306c17.716.492 26.574-2.337 26.574-2.337s-4.183 34.816-26.943 34.078c-22.76-.738-25.59-28.542-26.328-36.047"/>
    <path fill="#ff9ec3" d="M101.093 236.635c-17.716-.492-26.697-4.306-26.697-4.306.157 1.59.41 4.098.924 7.061 5.436 1.844 13.337 3.599 24.076 3.832 11.176.243 20.433-1.199 27.092-2.787.874-3.635 1.179-6.137 1.179-6.137s-8.858 2.829-26.574 2.337"/>
    <path fill="#78cb74" stroke="#000" stroke-width="2" d="M135.895 230.525c-2.811 1.002-6.013 1.906-9.654 2.624-1.752 10.702-6.939 35.037-26.521 34.392-18.227-.601-22.767-24.4-23.065-36.223-3.961-.973-7.226-2.058-9.88-3.156 1.93 4.431 5.391 14.452 1.906 23.165-4.633 11.581-16.678 25.248-18.531 44.705 15.057 7.181 36.599 9.497 48.18 9.033 11.582-.463 36.135-2.316 49.57-9.728-3.475-16.91-5.56-23.164-10.887-30.807-5.221-7.49-4.212-25.65-1.118-34.005z"/>
    <path fill="#ffcae0" d="M103.838 237.404c-48.004.013-73.245-28.031-77.033-59.098-3.789-31.065 1.767-67.182 5.051-77.79 3.283-10.608 15.407-42.937 71.982-46.472 56.575-3.536 72.992 36.369 78.043 49.756 5.052 13.385 11.113 48.24 2.273 76.78-8.839 28.54-27.025 56.811-80.316 56.824"/>
    <path fill="none" stroke="#000" stroke-width="2" d="M103.838 237.404c-48.004.013-73.245-28.031-77.033-59.098-3.789-31.065 1.767-67.182 5.051-77.79 3.283-10.608 15.407-42.937 71.982-46.472 56.575-3.536 72.992 36.369 78.043 49.756 5.052 13.385 11.113 48.24 2.273 76.78-8.839 28.54-27.025 56.811-80.316 56.824z"/>
    <path fill="#ff9ec3" d="M181.881 103.799c-5.051-13.387-21.468-53.292-78.043-49.756-56.576 3.535-68.699 35.864-71.982 46.472-1.478 4.774-3.414 14.722-4.753 27.044 4.257 2.257 9.513 3.625 15.235 1.926 14.364-4.265-3.142-20.649-3.142-20.649s10.549 7.183 14.588-4.04c9.651 6.509 16.16-2.917 16.16-2.917s10.998 5.835 12.568-4.937c5.612-3.592 8.978-4.939 8.978-4.939s0 12.793 5.387 13.242c5.386.45 9.875-6.508 9.875-6.508s2.387 16.06 21.321 17.057c12.793.673 16.833-9.202 16.833-9.202-15.486 3.815-17.281-1.122-15.711-14.364 5.612 5.836 11.671 6.284 17.058 5.162 2.244 8.977 11.895 10.099 17.506 4.489 1.347 6.509 7.855 7.855 7.855 7.855s-4.488 5.162-.898 9.651c2.24 2.799 9.887 1.584 15.329.272-1.23-6.581-2.737-12.077-4.164-15.858"/>
    <path fill="none" stroke="#000" stroke-linecap="round" stroke-linejoin="round" stroke-width="3" d="M68.367 115.325s-14.395.645-25.781 16.758"/>
    <path fill="none" stroke="#000" stroke-linecap="round" stroke-linejoin="round" stroke-width="3" d="M166.762 129.504s-5.156-12.246-30.292-15.684"/>
    <path fill="#ff9ec3" d="M67.294 190.249c-20.184 0-18.999-18.811-8.277-19.562 10.722-.753 25.395-1.318 25.207 9.781-.188 11.098-9.97 9.781-16.93 9.781"/>
    <path fill="#ff9ec3" d="M147.616 188.556c-17.123.364-18.623-4.891-19.187-7.9-.564-3.01 1.505-9.594 14.296-10.723 12.792-1.129 19.375.376 18.435 8.089-.94 7.712-4.703 10.346-13.544 10.534"/>
    <path fill="none" stroke="#000" stroke-linecap="round" stroke-linejoin="round" stroke-width="2" d="M102.784 159.048s-1.724 7.401 2.535 7.908c4.258.508 4.968-4.561 5.069-7.4"/>
    <path fill="none" stroke="#000" stroke-linecap="round" stroke-linejoin="round" stroke-width="2" d="M95.078 176.285s.812 10.544 9.429 10.442c8.618-.1 11.153-5.474 11.457-9.834"/>
    <path fill="#fbe16e" d="M33.698 148.404s-28-1-27-29c8 4 21.5-.5 23.5-14.5s7-35 25-49 19.792-16.496 17-21c-1.579-2.546-9-3-13 6-6.149-5.526-6.701-14.028-.187-18.886 6.515-4.858 25.395-3.312 30.695 10.931-1.104-14.685 2.262-26.652 20.026-28.709 17.764-2.058 17.951 23.748 17.951 23.748s-15.707-7.855-19.26 3.179c-3.553 11.032 23 5.423 38.894 13.276 15.895 7.854 32.163 24.309 38.334 44.317 6.171 20.008 9.536 37.959 21.878 31.602-1.122 17.39-1.309 23-9.911 24.122-8.602 1.122-18.138 9.91-18.138 9.91s3.74-31.601-.187-46.186c-3.927-14.586-15.333-22.066-27.675-21.318-12.341.748-32.724 13.837-7.667 20.57-12.154 9.349-22.834 3.256-28.63-1.045-5.797-4.301-14.191-24.387-14.752-30.183-14.585 8.788-33.098-.374-53.292 18.699-11.016 10.403-17.246 32.711-13.579 53.473"/>
    <path fill="#f1bc47" d="M20.034 144.513c-6.12-9.681-8.91-18.306-10.176-24.024-1.115-.234-2.179-.594-3.16-1.085-.505 14.143 6.389 21.392 13.336 25.109"/>
    <path fill="#f1bc47" d="M196.701 144.651c.306-.058.613-.128.917-.167 8.602-1.122 8.789-6.732 9.911-24.122-.808.416-1.575.723-2.309.936-3.035 10.295-6.254 18.284-8.519 23.353"/>
    <path fill="#f1bc47" d="M185.651 88.76c-6.171-20.009-22.439-36.464-38.333-44.317-15.895-7.854-42.448-2.245-38.895-13.277 3.553-11.033 19.26-3.178 19.26-3.178s-.02-2.346-.529-5.559c-2.214-1.542-5.051-2.779-8.397-2.609-8.388.426-18.767 13.364-6.824 19.904 11.943 6.54 22.322 1.422 45.07 17.488 12.14 8.574 22.05 21.438 28.656 31.573-.003-.008-.005-.017-.008-.025"/>
    <path fill="#f1bc47" d="M55.198 55.904c-4.188 3.258-7.664 6.896-10.571 10.735 13.447-7.288 30.117-17.416 30.625-23.076.853-9.525-3.839-14.643-11.232-13.932-4.195.403-6.786 3.918-8.244 6.883.81 1.573 1.951 3.068 3.422 4.39 4-9 11.421-8.546 13-6 2.792 4.504 1 7-17 21"/>
    <path fill="none" stroke="#000" stroke-width="2" d="M33.698 148.404s-28-1-27-29c8 4 21.5-.5 23.5-14.5s7-35 25-49 19.792-16.496 17-21c-1.579-2.546-9-3-13 6-6.149-5.526-6.701-14.028-.187-18.886 6.515-4.858 25.395-3.312 30.695 10.931-1.104-14.685 2.262-26.652 20.026-28.709 17.764-2.058 17.951 23.748 17.951 23.748s-15.707-7.855-19.26 3.179c-3.553 11.032 23 5.423 38.894 13.276 15.895 7.854 32.163 24.309 38.334 44.317 6.171 20.008 9.536 37.959 21.878 31.602-1.122 17.39-1.309 23-9.911 24.122-8.602 1.122-18.138 9.91-18.138 9.91s3.74-31.601-.187-46.186c-3.927-14.586-15.333-22.066-27.675-21.318-12.341.748-32.724 13.837-7.667 20.57-12.154 9.349-22.834 3.256-28.63-1.045-5.797-4.301-14.191-24.387-14.752-30.183-14.585 8.788-33.098-.374-53.292 18.699-11.016 10.403-17.246 32.711-13.579 53.473z"/>
    <path fill="#78cb74" stroke="#000" stroke-width="2" d="M56.876 78.288s-17.881 7.078-20.985-12.293c9.064-4.595 21.358.124 20.985 12.293z"/>
    <path fill="#78cb74" stroke="#000" stroke-width="2" d="M92.887 87.104s-10.058 8.319-21.234-7.326c5.588-9.562 20.613-2.484 21.234 7.326z"/>
    <path fill="#78cb74" stroke="#000" stroke-width="2" d="M92.638 103.247s-6.954-17.509 12.914-25.704c2.856 8.568 2.235 20.116-12.914 25.704z"/>
    <path fill="#78cb74" stroke="#000" stroke-width="2" d="M146.903 63.138s-15.025-9.313-24.959 4.595c10.058 4.594 19.496 8.071 24.959-4.595z"/>
    <path fill="#78cb74" stroke="#000" stroke-width="2" d="M164.659 83.254s25.829-8.691 33.9 1.738c-5.712 7.202-19.744 15.15-33.9-1.738z"/>
    <path fill="#bbf96c" stroke="#000" stroke-width="2" d="M168.136 94.803s20.24.62 23.221 16.019c-11.549 4.469-23.345.248-23.221-16.019z"/>
    <path fill="#bbf96c" stroke="#000" stroke-width="2" d="M80.345 57.426s14.894-4.479 25.328 15.207c-9.185 5.654-24.955 3.916-25.328-15.207z"/>
    <path fill="#c5abf3" d="M59.873 103.767c-7.437.86-9.498-5.625-9.082-10.726.313-3.837 2.959-6.98 5.951-9.708 2.139 1.621 7.053 3.364 9.001 2.627 2.106 6.465 2.245 16.867-5.87 17.807"/>
    <path fill="none" stroke="#000" stroke-width="2" d="M59.873 103.767c-7.437.86-9.498-5.625-9.082-10.726.313-3.837 2.959-6.98 5.951-9.708 2.139 1.621 7.053 3.364 9.001 2.627 2.106 6.465 2.245 16.867-5.87 17.807z"/>
    <path fill="#c5abf3" stroke="#000" stroke-width="2" d="M70.663 78.969s6.372-.291 12.227 6.791c5.856 7.082-.567 15.135-7.516 13.31-6.948-1.827-9.631-13.11-9.631-13.11s5-2 4.92-6.991z"/>
    <path fill="#c5abf3" stroke="#000" stroke-width="2" d="M65.571 72.529s1.664-4.469 7.234-8.179c6.977-4.647 13.687-.276 14.157 3.717.475 4.036-3.545 13.526-16.298 10.902-.091-3.837-5.093-6.44-5.093-6.44z"/>
    <path fill="#c5abf3" stroke="#000" stroke-width="2" d="M55.535 76.342s-14.947-10.557-4.24-18.937c7.482-5.858 19.405 6 14.276 15.124-7.707-3.682-10.036 3.813-10.036 3.813z"/>
    <path fill="#fff387" d="M32.838 109.21c-4.165 4.997-9.713 4.12-12.068 1.03-2.355-3.091-2.208-8.831 5.298-10.596 7.506-1.767 8.978 6.917 6.77 9.566"/>
    <path fill="none" stroke="#000" stroke-width="2" d="M32.838 109.21c-4.165 4.997-9.713 4.12-12.068 1.03-2.355-3.091-2.208-8.831 5.298-10.596 7.506-1.767 8.978 6.917 6.77 9.566z"/>
    <path fill="#fff" d="M44.909 121.911c-2.087 3.895-8.475 6.38-12.349 2.521-2.523-2.514-3.891-8.268-4.332-12.012 2.386-.74 4.858-2.813 5.358-4.686 6.034 1.913 15.733 5.946 11.323 14.177"/>
    <path fill="none" stroke="#000" stroke-width="2" d="M44.909 121.911c-2.087 3.895-8.475 6.38-12.349 2.521-2.523-2.514-3.891-8.268-4.332-12.012 2.386-.74 4.858-2.813 5.358-4.686 6.034 1.913 15.733 5.946 11.323 14.177z"/>
    <path fill="#fff" stroke="#000" stroke-width="2" d="M30.964 100.217s5.111-6.166 13.647-6.755c8.536-.589 11.332 7.947 6.182 12.216-5.152 4.268-17.207 2.056-17.207 2.056s1.199-4.87-2.622-7.517z"/>
    <path fill="#fff" stroke="#000" stroke-width="2" d="M23.328 100.578s-2.479-3.684-2.265-9.911c.269-7.801 8.536-10.155 12.216-9.272 3.679.883 6.59 10.596-2.315 18.823-2.953-2.014-7.636.36-7.636.36z"/>
    <path fill="#fff" stroke="#000" stroke-width="2" d="M20.769 110.241s-16.042 1.766-16.63-7.064c-.589-8.831 15.068-11.429 19.189-2.599-6.967 3.835-2.559 9.663-2.559 9.663z"/>
    <path fill="#fff" stroke="#000" stroke-width="2" d="M28.206 112.442s1.335 4.261.889 8.965c-.567 5.985-5.088 8.996-10.681 8.407-5.592-.589-8.241-5.445-6.475-11.626 1.766-6.182 8.83-7.947 8.83-7.947s2.518 3.603 7.437 2.201z"/>
    <path fill="#c5abf3" stroke="#000" stroke-width="2" d="M56.708 82.89s-1.985 2.771-6.37 5.326c-5.579 3.25-13.339 4.18-16.325-1.07-2.986-5.25 1.601-9.076 8.102-11.402 6.5-2.327 13.42.598 13.42.598s-1.109 3.545 1.173 6.548z"/>
    <path fill="#fff387" d="M63.986 86.231c-6.969-.508-9.675-5.899-8.451-9.889 1.224-3.989 6.326-7.453 12.565-2.007 6.238 5.447-.421 12.166-4.114 11.896"/>
    <path fill="none" stroke="#000" stroke-width="2" d="M63.986 86.231c-6.969-.508-9.675-5.899-8.451-9.889 1.224-3.989 6.326-7.453 12.565-2.007 6.238 5.447-.421 12.166-4.114 11.896z"/>
    <path fill="#c5abf3" d="M144.416 62.898c5.167-4.623 14.278 4.664 14.754 11.232-4.786.604-6.187 3.141-6.568 6.092-7.805-4.188-15.42-10.851-8.186-17.324"/>
    <path fill="none" stroke="#000" stroke-width="2" d="M144.416 62.898c5.167-4.623 14.278 4.664 14.754 11.232-4.786.604-6.187 3.141-6.568 6.092-7.805-4.188-15.42-10.851-8.186-17.324z"/>
    <path fill="#c5abf3" stroke="#000" stroke-width="2" d="M159.842 74.237s2.144-5.003 8.836-7.797c6.692-2.794 10.655.91 11.24 3.899.585 2.989-2.014 9.356-12.15 12.54.325-4.614-1.364-6.108-2.274-6.823-.909-.715-3.183-1.884-5.652-1.819z"/>
    <path fill="#c5abf3" d="M176.929 98.082c2.917-1.67 3.573-8.252.325-11.11-3.249-2.859-9.486-4.093-9.486-4.093s-.26 3.638-4.613 4.678c1.819 4.418 2.534 16.957 13.774 10.525"/>
    <path fill="none" stroke="#000" stroke-width="2" d="M176.929 98.082c2.917-1.67 3.573-8.252.325-11.11-3.249-2.859-9.486-4.093-9.486-4.093s-.26 3.638-4.613 4.678c1.819 4.418 2.534 16.957 13.774 10.525z"/>
    <path fill="#c5abf3" stroke="#000" stroke-width="2" d="M154.384 86.126s-2.729 4.028-2.599 10.915c.13 6.888 8.836 5.978 10.655 4.483 1.819-1.494 4.808-5.717.715-13.968-4.288.585-6.822.13-8.771-1.43z"/>
    <path fill="#c5abf3" stroke="#000" stroke-width="2" d="M152.602 80.222s-4-2.022-8.613-1.827c-4.614.195-9.161 5.392-8.382 10.2.78 4.809 7.342 5.913 11.565 4.158 2.168-.9 7.212-6.627 7.212-6.627s-1.745-2.842-1.782-5.904z"/>
    <path fill="#fff387" d="M152.602 80.222c0-2.665 2.57-6.948 8.947-5.807 6.378 1.143 6.759 6.092 6.093 9.138-.667 3.046-4.379 4.284-8.567 4.284-4.188 0-6.473-3.332-6.473-7.615"/>
    <path fill="none" stroke="#000" stroke-width="2" d="M152.602 80.222c0-2.665 2.57-6.948 8.947-5.807 6.378 1.143 6.759 6.092 6.093 9.138-.667 3.046-4.379 4.284-8.567 4.284-4.188 0-6.473-3.332-6.473-7.615z"/>
    <path fill="#fff" d="M118.184 94.821c-3.959 2.332-12.079-1.882-12.404-7.561-.203-3.555 1.04-6.669 3.377-9.108 2.738 1.542 7.531 1.493 8.97-.096 4.037 5.202 7.474 12.396.057 16.765"/>
    <path fill="none" stroke="#000" stroke-width="2" d="M118.184 94.821c-3.959 2.332-12.079-1.882-12.404-7.561-.203-3.555 1.04-6.669 3.377-9.108 2.738 1.542 7.531 1.493 8.97-.096 4.037 5.202 7.474 12.396.057 16.765z"/>
    <path fill="#fff" stroke="#000" stroke-width="2" d="M120.321 70.072s8.018-2.262 15.674 2.275c7.657 4.537 5.01 13.496-1.921 14.109-6.93.613-15.946-8.4-15.946-8.4s3.901-3.462 2.193-7.984z"/>
    <path fill="#fff" stroke="#000" stroke-width="2" d="M113.57 65.871s.053-4.617 3.914-9.823c4.836-6.521 13.305-3.655 15.934-.726 2.629 2.929-.614 12.964-13.097 14.75-1.339-3.468-6.751-4.201-6.751-4.201z"/>
    <path fill="#fff" stroke="#000" stroke-width="2" d="M105.673 72.633s-14.779-7.96-10.068-15.869c4.71-7.908 19.651-.888 17.964 9.106-8.229-.83-7.896 6.763-7.896 6.763z"/>
    <path fill="#fff" stroke="#000" stroke-width="2" d="M109.115 78.145s-2.28 2.583-5.818 5.994c-3.568 3.441-9.225 2.084-11.02.383-2.421-2.294-2.74-7.071 1.142-10.298 5.142-4.274 12.254-1.591 12.254-1.591s.18 3.632 3.442 5.512z"/>
    <path fill="#fff387" d="M116.614 78.877c-6.517 1.82-10.75-2.207-10.941-6.244-.192-4.036 3.324-8.864 10.793-5.944 7.47 2.919 3.603 11.223.148 12.188"/>
    <path fill="none" stroke="#000" stroke-width="2" d="M116.614 78.877c-6.517 1.82-10.75-2.207-10.941-6.244-.192-4.036 3.324-8.864 10.793-5.944 7.47 2.919 3.603 11.223.148 12.188z"/>
    <path fill="#fff387" d="M193.434 120.88c-7.014.85-8.537-6.324-7.483-9.17 1.054-2.846 3.794-6.957 10.645-4.849 6.851 2.108 5.376 8.432 3.162 10.33-2.213 1.897-2.845 3.267-6.324 3.689"/>
    <path fill="none" stroke="#000" stroke-width="2" d="M193.434 120.88c-7.014.85-8.537-6.324-7.483-9.17 1.054-2.846 3.794-6.957 10.645-4.849 6.851 2.108 5.376 8.432 3.162 10.33-2.213 1.897-2.845 3.267-6.324 3.689z"/>
    <path fill="#fff" d="M211.985 101.38c3.333 3.667 1.897 10.436-1.476 12.332-3.372 1.897-7.483 1.266-8.959 1.055 1.581-4.322-2.951-7.274-3.899-7.695 2.845-6.007 9.064-11.489 14.334-5.692"/>
    <path fill="none" stroke="#000" stroke-width="2" d="M211.985 101.38c3.333 3.667 1.897 10.436-1.476 12.332-3.372 1.897-7.483 1.266-8.959 1.055 1.581-4.322-2.951-7.274-3.899-7.695 2.845-6.007 9.064-11.489 14.334-5.692z"/>
    <path fill="#fff" d="M209.666 130.999c-3.021 3.237-12.964 2.214-16.232-10.118 4.954-.949 6.535-3.162 7.589-5.376 7.062 2.108 14.546 9.17 8.643 15.494"/>
    <path fill="none" stroke="#000" stroke-width="2" d="M209.666 130.999c-3.021 3.237-12.964 2.214-16.232-10.118 4.954-.949 6.535-3.162 7.589-5.376 7.062 2.108 14.546 9.17 8.643 15.494z"/>
    <path fill="#fff" d="M183.527 135.32c-4.861-.391-7.905-11.805 3.057-17.285 2.108 2.424 4.427 3.688 6.851 2.846.105 6.534-.738 15.177-9.908 14.439"/>
    <path fill="none" stroke="#000" stroke-width="2" d="M183.527 135.32c-4.861-.391-7.905-11.805 3.057-17.285 2.108 2.424 4.427 3.688 6.851 2.846.105 6.534-.738 15.177-9.908 14.439z"/>
    <path fill="#fff" d="M170.457 111.71c-.586-5.979 6.641-10.225 18.867-4.321-2.741 2.424-5.164 5.48-2.741 10.645-7.694 2.424-15.599-.949-16.126-6.324"/>
    <path fill="none" stroke="#000" stroke-width="2" d="M170.457 111.71c-.586-5.979 6.641-10.225 18.867-4.321-2.741 2.424-5.164 5.48-2.741 10.645-7.694 2.424-15.599-.949-16.126-6.324z"/>
    <path fill="#fff" d="M190.694 90.735c5.709-.274 11.7 3.689 6.957 16.338-3.795-.949-6.43-.738-8.327.316-6.008-4.637-7.379-16.232 1.37-16.654"/>
    <path fill="none" stroke="#000" stroke-width="2" d="M190.694 90.735c5.709-.274 11.7 3.689 6.957 16.338-3.795-.949-6.43-.738-8.327.316-6.008-4.637-7.379-16.232 1.37-16.654z"/>
    <path fill="#ffcae0" d="M196.739 142.055c-2.072.592-4.905 3.257-8.093 5.752-.003 10.853-1.231 22.241-4.492 32.772-.023.076-.049.15-.072.225 9.284-2.569 15.631-11.101 18.079-14.639 5.281-7.627 6.281-27.454-5.422-24.11"/>
    <path fill="none" stroke="#000" stroke-width="2" d="M196.739 142.055c-2.072.592-4.905 3.257-8.093 5.752-.003 10.853-1.231 22.241-4.492 32.772-.023.076-.049.15-.072.225 9.284-2.569 15.631-11.101 18.079-14.639 5.281-7.627 6.281-27.454-5.422-24.11z"/>
    <path fill="#ffcae0" d="M26.804 178.306c-1.25-10.25-1.48-21.048-1.112-31.3-3.055-1.578-5.458-7.027-10.459-6.672-5.724.409-12.626 9.822-3.407 24.251 4.707 7.367 10.664 12.85 15.372 16.455-.149-.908-.283-1.819-.394-2.734"/>
    <path fill="none" stroke="#000" stroke-width="2" d="M26.804 178.306c-1.25-10.25-1.48-21.048-1.112-31.3-3.055-1.578-5.458-7.027-10.459-6.672-5.724.409-12.626 9.822-3.407 24.251 4.707 7.367 10.664 12.85 15.372 16.455-.149-.908-.283-1.819-.394-2.734z"/>
    <path fill="#78cb74" stroke="#000" stroke-width="2" d="M48.986 304.125s19.898 10.741 48.03 10.029c28.132-.713 45.225-7.656 51.991-11.929 1.246 9.615.356 25.639.356 25.639s-12.82 5.163-21.544 11.039c-8.725 5.875-21.01 15.491-27.776 15.312-6.765-.178-17.093-11.751-27.598-16.202-10.504-4.451-24.214-10.149-24.214-10.149s.236-15.24.755-23.739z"/>
    <path fill="#c3fe71" d="M91.245 290.547c3.27 1.783 7.402.286 7.415 3.65.013 3.365-2.463 4.328-5.765 3.365-3.301-.963-5.914-5.64-5.914-5.64s0 8.941 9.766 9.354c9.767.413 1.788-13.618 8.804-15.131 7.015-1.513 4.126 6.465 1.1 7.84-3.026 1.376.275 4.127 2.339 3.852 2.063-.275 6.464-4.952 3.163-10.454-3.301-5.502-8.528-6.465-11.829.275-2.889-5.502-4.953-6.74-8.941-6.328-3.99.413-3.577 2.339-2.201 3.715 1.375 1.375 6.327-2.201 7.84 2.063-4.814.137-6.74.55-6.74.55s-.55 2.064.963 2.889"/>
    <path fill="#c3fe71" d="M93.308 275.691s3.714 3.439 10.592.688c2.063 1.513 2.063 3.164 2.063 3.164s-8.528 1.651-12.655-3.852"/>
    <path fill="#c3fe71" d="M98.504 271.42c2.741-.095 2.742 4.342.114 4.342s-3.427-4.228-.114-4.342"/>
    <path fill="#ffcae0" stroke="#000" stroke-linecap="round" stroke-linejoin="round" stroke-width="2" d="M47.172 151.513s5.359 26.232 29.146 22.109c25.125-4.354 21.105-27.804 21.105-27.804"/>
    <path fill="#ffcae0" stroke="#000" stroke-linecap="round" stroke-linejoin="round" stroke-width="2" d="M115.23 147.319s.752 25.129 26.413 25.396c24.38.254 25.142-26.667 25.142-26.667"/>
    <path fill="#ffcae0" d="M66.442 231.932s9.337 14.783-5.252 35.015c-1.167-1.557-1.946-2.918-1.946-2.918s1.149 1.601 1.923 2.874c.381 2.851-.53 7.922-.95 10.548 5.641.194 14.459 1.102 18.868.584 4.409-.519 9.985-2.464 10.763-9.856.778-7.392 1.297-12.968 2.983-16.857 1.685-3.891 4.798-4.669 6.094-3.761 1.297.907 1.557 4.149-2.723 8.169 4.798-4.668 5.828-2.989 5.864-1.816.043 1.387.284 3.891-1.325 3.891-1.95 0-3.372 2.464-4.02 3.89 1.556-2.853 4.828-5.114 5.347-1.483.519 3.631-2.624 5.633-3.013 7.449-.389 1.815-.519 4.019-.519 4.019s.197-4.794 3.093-5.446c.519.518.259 5.706.259 7.91 0 2.204-.499 12.059-6.593 16.08-6.095 4.02-17.248 10.763-32.419 12.448-15.172 1.686-27.232-1.297-29.566-4.798-2.334-3.501-3.501-14.523 5.187-35.271s19.84-28.405 27.945-30.671"/>
    <path fill="#ff9ec3" d="M60.217 277.451s-9.426-1.299-16.646 3.381c0 0 .985-4.981 14.114-6.03 1.155-3.993 1.559-10.773 1.559-10.773s1.354 1.891 1.946 2.918c.066 3.233-.973 10.504-.973 10.504"/>
    <path fill="none" stroke="#000" stroke-linecap="round" stroke-linejoin="round" stroke-width="2" d="M60.217 277.451s-9.426-1.299-16.646 3.381"/>
    <path fill="#ffcae0" d="M136.69 231.932s-11.401 13.949 2.784 34.18c1.134-1.556 1.891-2.918 1.891-2.918s-1.117 1.602-1.869 2.874c-.37 2.851.515 7.923.923 10.549-5.484.194-12.313.611-16.6.092-4.287-.519-9.13-1.138-9.886-8.53-.757-7.392-1.261-12.968-2.9-16.857-1.639-3.891-4.665-4.669-5.926-3.761-1.261.907-1.513 4.149 2.647 8.169-4.665-4.668-5.527-2.983-5.653-1.816-.126 1.167-.034 3.891 1.241 3.891 1.895 0 3.278 2.464 3.908 3.89-1.513-2.853-4.718-5.087-5.223-1.456-.504 3.63 2.576 5.606 2.954 7.422.378 1.815.504 4.019.504 4.019s-.236-4.794-3.106-5.446c-.504.518-.252 5.706-.252 7.91 0 2.204-1.358 11.14 6.51 16.08 6.065 3.807 17.072 8.117 31.742 10.403 16.758 2.612 24.826-.416 27.096-3.918 2.269-3.501 4.255-14.683-4.193-35.431-8.447-20.748-18.712-27.08-26.592-29.346"/>
    <path fill="#ff9ec3" d="M140.42 276.617s10.909-1.791 17.929 2.89c0 0-2.702-4.49-15.467-5.54-1.123-3.992-1.516-10.773-1.516-10.773s-1.317 1.891-1.892 2.918c-.064 3.234.946 10.505.946 10.505"/>
    <path fill="none" stroke="#000" stroke-linecap="round" stroke-linejoin="round" stroke-width="2" d="M139.627 276.617s11.17-1.791 18.391 2.89"/>
    <path fill="none" stroke="#000" stroke-width="2" d="M136.69 231.932s-11.401 13.949 2.784 34.18c1.134-1.556 1.891-2.918 1.891-2.918s-1.117 1.602-1.869 2.874c-.37 2.851.515 7.923.923 10.549-5.484.194-12.313.611-16.6.092-4.287-.519-9.13-1.138-9.886-8.53-.757-7.392-1.261-12.968-2.9-16.857-1.639-3.891-4.665-4.669-5.926-3.761-1.261.907-1.513 4.149 2.647 8.169-4.665-4.668-5.527-2.983-5.653-1.816-.126 1.167-.034 3.891 1.241 3.891 1.895 0 3.278 2.464 3.908 3.89-1.513-2.853-4.718-5.087-5.223-1.456-.504 3.63 2.576 5.606 2.954 7.422.378 1.815.504 4.019.504 4.019s-.236-4.794-3.106-5.446c-.504.518-.252 5.706-.252 7.91 0 2.204-1.358 11.14 6.51 16.08 6.065 3.807 17.072 8.117 31.742 10.403 16.758 2.612 24.826-.416 27.096-3.918 2.269-3.501 4.255-14.683-4.193-35.431-8.447-20.748-18.712-27.08-26.592-29.346z"/>
    <path fill="none" stroke="#000" stroke-width="2" d="M66.442 231.932s9.337 14.783-5.252 35.015c-1.167-1.557-1.946-2.918-1.946-2.918s1.149 1.601 1.923 2.874c.381 2.851-.53 7.922-.95 10.548 5.641.194 14.459 1.102 18.868.584 4.409-.519 9.985-2.464 10.763-9.856.778-7.392 1.297-12.968 2.983-16.857 1.685-3.891 4.798-4.669 6.094-3.761 1.297.907 1.557 4.149-2.723 8.169 4.798-4.668 5.828-2.989 5.864-1.816.043 1.387.284 3.891-1.325 3.891-1.95 0-3.372 2.464-4.02 3.89 1.556-2.853 4.828-5.114 5.347-1.483.519 3.631-2.624 5.633-3.013 7.449-.389 1.815-.519 4.019-.519 4.019s.197-4.794 3.093-5.446c.519.518.259 5.706.259 7.91 0 2.204-.499 12.059-6.593 16.08-6.095 4.02-17.248 10.763-32.419 12.448-15.172 1.686-27.232-1.297-29.566-4.798-2.334-3.501-3.501-14.523 5.187-35.271s19.84-28.405 27.945-30.671z"/>
  </g>
</svg>
