<svg xmlns="http://www.w3.org/2000/svg" fill-rule="evenodd" clip-rule="evenodd" viewBox="0 0 261 440">
  <g id="grl1" fill-rule="nonzero">
    <path fill="#fff" stroke="#000" stroke-width="2" d="M109.306 284.934s-31.216 12.403-34.771-7.627c-17.078 8.854-21.801-1.158-18.865-11.177-20.028 5.322-24.848-7.297-20.732-16.138 4.117-8.843 24.762-7.786 41.337-2.736 32.618 9.936 41.272 29.422 33.031 37.678z"/>
    <path fill="#fff" stroke="#000" stroke-width="2" d="M143.252 285.184s28.741 17.386 35.552-1.783c15.383 11.553 21.694 2.457 20.452-7.909 18.069 6.651 26.125-3.86 22.508-13.481-2.956-7.863-22.52-12.847-39.714-8.535-33.074 8.291-45.563 22.204-38.798 31.708z"/>
    <path fill="#ffcae0" d="M74.636 327.865s-1.289 13.741-.146 24.357c1.144 10.617 5.064 33.646 15.19 53.735-5.553 8.657-13.592 18.358-10.319 21.794 2.325 2.442 5.58-1.86 5.58-1.86s-2.558 6.045.233 7.092c2.79 1.046 5.231-3.721 5.231-3.721s.581 6.046 3.372 5.93c2.79-.117 3.255-6.278 3.255-6.278s2.092 5.58 4.301 5.115c2.209-.465.814-6.51.814-6.51s3.488 4.999 6.859 3.138c3.372-1.859-3.371-6.045-3.953-15.113-.581-9.068 3.256-16.276 5.697-22.089 2.442-5.813 8.255-20.345 8.952-29.181.698-8.836.233-14.649.233-14.649s-9.766-11.044-18.834-16.392c-9.069-5.348-26.465-5.368-26.465-5.368"/>
    <path fill="#ffcae0" d="M175.768 327.865s.858 17.19-1.215 28.355c-2.074 11.166-8.453 38.281-15.312 53.434-.16 4.307 2.392 12.919 3.509 15.631 1.116 2.712 1.226 5.351-.423 6.01-1.649.66-4.618-.879-5.827-3.298 1.319 5.827-1.429 9.125-4.947 1.759-1.43 6.597-5.388 4.947-5.937-.99-2.529 6.158-6.487 9.346-5.168-1.649-3.738 4.068-7.146 1.759-4.068-3.408 3.078-5.167 6.487-12.644 6.487-12.644s-10.005-20.999-11.215-32.214c-1.209-11.214-1.209-30.015-1.209-30.015s14.623-15.612 26.497-20.01c11.874-4.398 18.828-.961 18.828-.961"/>
    <path fill="#ffa2c7" d="M115.27 344.752c.273 5.339.268 12.332-.834 19.017-2.216 13.433-5.54 22.712-7.895 31.021-2.003 7.074-3.194 13.044-1.542 19.191-.082-8.338 3.452-15.052 5.751-20.526 2.441-5.813 8.254-20.346 8.952-29.181.697-8.836.233-14.649.233-14.649s-1.842-2.081-4.665-4.873"/>
    <path fill="#ffa2c7" d="M130.443 348.836s0 18.801 1.209 30.015c1.21 11.214 11.215 32.214 11.215 32.214s-5.581-20.983-7.935-38.156c-1.329-9.691-1.07-20.438-.592-27.965-2.408 2.303-3.897 3.892-3.897 3.892"/>
    <path fill="none" stroke="#000" stroke-width="2" d="M74.636 327.865s-1.289 13.741-.146 24.357c1.144 10.617 5.064 33.646 15.19 53.735-5.553 8.657-13.592 18.358-10.319 21.794 2.325 2.442 5.58-1.86 5.58-1.86s-2.558 6.045.233 7.092c2.79 1.046 5.231-3.721 5.231-3.721s.581 6.046 3.372 5.93c2.79-.117 3.255-6.278 3.255-6.278s2.092 5.58 4.301 5.115c2.209-.465.814-6.51.814-6.51s3.488 4.999 6.859 3.138c3.372-1.859-3.371-6.045-3.953-15.113-.581-9.068 3.256-16.276 5.697-22.089 2.442-5.813 8.255-20.345 8.952-29.181.698-8.836.233-14.649.233-14.649s-9.766-11.044-18.834-16.392c-9.069-5.348-26.465-5.368-26.465-5.368z"/>
    <path fill="none" stroke="#000" stroke-width="2" d="M175.768 327.865s.858 17.19-1.215 28.355c-2.074 11.166-8.453 38.281-15.312 53.434-.16 4.307 2.392 12.919 3.509 15.631 1.116 2.712 1.226 5.351-.423 6.01-1.649.66-4.618-.879-5.827-3.298 1.319 5.827-1.429 9.125-4.947 1.759-1.43 6.597-5.388 4.947-5.937-.99-2.529 6.158-6.487 9.346-5.168-1.649-3.738 4.068-7.146 1.759-4.068-3.408 3.078-5.167 6.487-12.644 6.487-12.644s-10.005-20.999-11.215-32.214c-1.209-11.214-1.209-30.015-1.209-30.015s14.623-15.612 26.497-20.01c11.874-4.398 18.828-.961 18.828-.961z"/>
    <path fill="#ffcae0" stroke="#000" stroke-width="2" d="M76.556 296.032s-1.062 6.021-1.165 8.094c-.104 2.073 15.903 15.988 49.402 16.415 33.498.428 50.618-18.316 50.618-18.316s-.427-4.696-1.105-6.888c-9.204-1.234-36.979-1.101-49.241-1.138-31.032-.096-48.509 1.833-48.509 1.833z"/>
    <path fill="#ffcae0" d="M95.51 267.858s-26.345-3.732-39.518-7.904c-13.173-4.171-31.176-7.245-32.274-4.171-1.097 3.074-3.293 5.05-5.927 4.83-2.635-.22-2.854-5.269-.439-8.343-6.587 5.928-10.099 3.294-3.733-5.708-9.001 5.049-13.392 2.415-3.293-6.147-10.757.219-5.928-5.05 2.415-5.489-6.586-6.367-1.976-7.684 1.976-5.928 3.952 1.756 6.586 4.83 14.49 4.83s34.249 2.415 39.738 2.415c5.489 0 22.613-3.293 27.663-4.83 5.049 7.684 4.61 27.005-1.098 36.445"/>
    <path fill="#ffcae0" d="M158.892 232.926s13.001 4.844 39.515 6.374c26.512 1.529 32.376 1.274 36.71.764 4.334-.51 11.284-8.429 14.786-5.863 2.111 1.546-4.708 7.562-4.708 7.562 6.819-1.984 10.85-2.295 11.47-.434.621 1.861-6.202 5.427-6.202 5.427s6.357 0 6.357 2.016-5.582 2.171-5.582 2.171 5.582 1.86 4.962 3.411c-.62 1.551-2.791 1.861-5.582.465 3.721 3.566 2.791 8.063-1.085 5.272-3.877-2.791-5.117-3.256-8.683-2.171-3.567 1.086-21.243 8.063-38.919 10.234-17.677 2.17-35.353 1.085-39.074.775-8.218-7.598-9.635-25.179-3.965-36.003"/>
    <path fill="#ffcae0" d="M100.802 232.33s8.981 3.814 26.697 4.306 26.574-2.338 26.574-2.338-4.183 34.817-26.943 34.079c-22.76-.738-25.59-28.543-26.328-36.047"/>
    <path fill="#ff9ec3" d="M127.499 236.636c-17.716-.492-26.697-4.306-26.697-4.306.157 1.591.41 4.098.924 7.061 5.436 1.844 13.337 3.598 24.076 3.831 11.176.244 20.433-1.198 27.092-2.786.874-3.635 1.179-6.137 1.179-6.137s-8.858 2.829-26.574 2.337"/>
    <path fill="#ffa2c7" d="M74.418 260.35c-5.652-1.37-22.438-5.652-33.743-6.509-4.878-.369-8.475.092-10.994.734 6.638.314 17.542 2.602 26.311 5.379 13.173 4.171 39.518 7.903 39.518 7.903.816-1.349 1.52-2.904 2.12-4.594-6.334-.606-19.032-1.9-23.212-2.913"/>
    <path fill="#ffa2c7" d="M246.605 258.179c-5.662-4.496-13.79-1.63-19.403-.398-7.023 1.542-33.23 7.365-47.618 7.708-8.264.196-15.561-.511-20.281-1.148.995 1.755 2.177 3.314 3.553 4.588 3.721.31 21.398 1.395 39.075-.775 17.676-2.171 35.352-9.149 38.919-10.234 2.488-.758 3.846-.757 5.755.259"/>
    <path fill="none" stroke="#000" stroke-width="2" d="M95.51 267.858s-26.345-3.732-39.518-7.904c-13.173-4.171-31.176-7.245-32.274-4.171-1.097 3.074-3.293 5.05-5.927 4.83-2.635-.22-2.854-5.269-.439-8.343-6.587 5.928-10.099 3.294-3.733-5.708-9.001 5.049-13.392 2.415-3.293-6.147-10.757.219-5.928-5.05 2.415-5.489-6.586-6.367-1.976-7.684 1.976-5.928 3.952 1.756 6.586 4.83 14.49 4.83s34.249 2.415 39.738 2.415c5.489 0 22.613-3.293 27.663-4.83 5.049 7.684 4.61 27.005-1.098 36.445z"/>
    <path fill="none" stroke="#000" stroke-width="2" d="M158.892 232.926s13.001 4.844 39.515 6.374c26.512 1.529 32.376 1.274 36.71.764 4.334-.51 11.284-8.429 14.786-5.863 2.111 1.546-4.708 7.562-4.708 7.562 6.819-1.984 10.85-2.295 11.47-.434.621 1.861-6.202 5.427-6.202 5.427s6.357 0 6.357 2.016-5.582 2.171-5.582 2.171 5.582 1.86 4.962 3.411c-.62 1.551-2.791 1.861-5.582.465 3.721 3.566 2.791 8.063-1.085 5.272-3.877-2.791-5.117-3.256-8.683-2.171-3.567 1.086-21.243 8.063-38.919 10.234-17.677 2.17-35.353 1.085-39.074.775-8.218-7.598-9.635-25.179-3.965-36.003z"/>
    <path fill="#78cb74" stroke="#000" stroke-width="2" d="M162.301 230.525c-2.811 1.003-6.013 1.907-9.654 2.624-1.752 10.703-6.939 35.038-26.521 34.392-18.227-.6-22.767-24.399-23.065-36.222-3.961-.973-7.226-2.058-9.88-3.157 1.93 4.431 5.391 14.453 1.906 23.165-4.633 11.582-16.678 25.248-18.531 44.705 15.057 7.181 36.599 9.497 48.18 9.034 11.582-.463 36.135-2.316 49.57-9.728-3.475-16.91-5.56-23.164-10.887-30.808-5.221-7.49-4.212-25.65-1.118-34.005z"/>
    <path fill="#ffcae0" d="M130.243 237.405c-48.004.012-73.245-28.032-77.033-59.098-3.789-31.066 1.767-67.183 5.051-77.791 3.283-10.608 15.407-42.936 71.982-46.472 56.575-3.536 72.992 36.37 78.043 49.756 5.052 13.386 11.113 48.24 2.273 76.78-8.839 28.54-27.024 56.811-80.316 56.825"/>
    <path fill="none" stroke="#000" stroke-width="2" d="M130.243 237.405c-48.004.012-73.245-28.032-77.033-59.098-3.789-31.066 1.767-67.183 5.051-77.791 3.283-10.608 15.407-42.936 71.982-46.472 56.575-3.536 72.992 36.37 78.043 49.756 5.052 13.386 11.113 48.24 2.273 76.78-8.839 28.54-27.024 56.811-80.316 56.825z"/>
    <path fill="#ff9ec3" d="M208.287 103.799c-5.051-13.386-21.468-53.292-78.043-49.756-56.576 3.536-68.699 35.865-71.982 46.473-1.478 4.774-3.414 14.722-4.753 27.043 4.257 2.257 9.513 3.625 15.235 1.926 14.364-4.264-3.142-20.648-3.142-20.648s10.549 7.182 14.588-4.04c9.651 6.509 16.16-2.918 16.16-2.918s10.998 5.836 12.568-4.937c5.612-3.591 8.978-4.938 8.978-4.938s0 12.793 5.387 13.242c5.386.449 9.875-6.509 9.875-6.509s2.387 16.061 21.321 17.058c12.793.673 16.833-9.203 16.833-9.203-15.486 3.816-17.281-1.122-15.711-14.363 5.611 5.835 11.671 6.284 17.058 5.161 2.244 8.978 11.895 10.1 17.506 4.489 1.347 6.509 7.855 7.856 7.855 7.856s-4.488 5.162-.898 9.65c2.24 2.799 9.887 1.584 15.329.273-1.23-6.581-2.737-12.077-4.164-15.859"/>
    <path fill="none" stroke="#000" stroke-linecap="round" stroke-linejoin="round" stroke-width="3" d="M94.772 115.325s-14.394.645-25.78 16.757"/>
    <path fill="none" stroke="#000" stroke-linecap="round" stroke-linejoin="round" stroke-width="3" d="M193.167 129.505s-5.156-12.246-30.292-15.684"/>
    <path fill="#ff9ec3" d="M93.7 190.25c-20.184 0-18.999-18.811-8.277-19.563 10.722-.754 25.395-1.317 25.207 9.781-.188 11.097-9.97 9.781-16.93 9.781"/>
    <path fill="#ff9ec3" d="M174.022 188.557c-17.123.364-18.623-4.891-19.187-7.901-.564-3.01 1.505-9.593 14.296-10.722 12.792-1.128 19.375.376 18.435 8.089-.94 7.712-4.703 10.346-13.544 10.534"/>
    <path fill="#fff" d="M124.361 152.251c.569 16.8-14.296 24.642-27.275 25.019-12.98.376-24.642-14.297-22.762-28.405 1.881-14.108 12.415-21.256 26.335-20.88 13.92.376 23.326 13.168 23.702 24.266"/>
    <path fill="none" stroke="#000" stroke-linecap="round" stroke-linejoin="round" stroke-width="2" d="M124.361 152.251c.569 16.8-14.296 24.642-27.275 25.019-12.98.376-24.642-14.297-22.762-28.405 1.881-14.108 12.415-21.256 26.335-20.88 13.92.376 23.326 13.168 23.702 24.266z"/>
    <path d="M81.473 153.945c.271-9.213 7.148-19.375 18.999-19.187 11.851.188 17.682 8.465 17.494 17.87-.188 9.405-7.336 17.87-19.563 16.93-12.227-.941-17.118-9.217-16.93-15.613"/>
    <path fill="#fff" d="M110.065 148.49c-4.633.806-3.95-5.644-.564-6.208 3.386-.564 4.891 5.456.564 6.208"/>
    <path fill="#fff" d="M105.362 155.073c-2.818.128-3.762-4.891 0-4.703 3.762.188 4.139 4.515 0 4.703"/>
    <path fill="#fff" d="M168.755 177.082c-12.78.572-26.335-8.089-26.523-26.147-.188-18.059 16.741-23.137 24.642-23.137 7.9 0 24.642 5.078 25.394 21.632.753 16.553-10.91 27.088-23.513 27.652"/>
    <path fill="none" stroke="#000" stroke-linecap="round" stroke-linejoin="round" stroke-width="2" d="M168.755 177.082c-12.78.572-26.335-8.089-26.523-26.147-.188-18.059 16.741-23.137 24.642-23.137 7.9 0 24.642 5.078 25.394 21.632.753 16.553-10.91 27.088-23.513 27.652z"/>
    <path d="M148.063 152.251c-.198-11.098 7.336-18.058 18.811-17.682 11.474.376 18.246 7.901 18.246 17.682 0 9.782-7.148 17.118-18.622 17.306-11.475.188-18.247-6.772-18.435-17.306"/>
    <path fill="#fff" d="M174.641 149.032c-3.145 0-3.894-1.647-3.894-4.043s2.996-3.145 5.392-1.947c2.396 1.198 3.444 5.99-1.498 5.99"/>
    <path fill="#fff" d="M170.251 154.082c-2.871.638-2.636-4.056-.406-4.258 2.231-.203 4.968 3.244.406 4.258"/>
    <path fill="none" stroke="#000" stroke-linecap="round" stroke-linejoin="round" stroke-width="2" d="M129.189 159.049s-1.724 7.401 2.535 7.908c4.258.507 4.967-4.562 5.069-7.401"/>
    <path fill="none" stroke="#000" stroke-linecap="round" stroke-linejoin="round" stroke-width="2" d="M121.484 176.285s.811 10.544 9.429 10.443c8.618-.102 11.153-5.475 11.457-9.835"/>
    <path fill="#fbe16e" d="M60.104 148.405c-.001 0-28.001-1-27.001-29 8 4 21.501-.5 23.501-14.5 1.999-14 6.999-35 25-49 18-14 19.792-16.496 17-21-1.579-2.547-9-3-13 6-6.149-5.527-6.701-14.028-.188-18.886 6.516-4.859 25.396-3.313 30.696 10.93-1.104-14.685 2.262-26.652 20.026-28.709 17.764-2.057 17.951 23.748 17.951 23.748s-15.707-7.854-19.26 3.179c-3.554 11.032 23 5.423 38.894 13.277 15.894 7.853 32.163 24.309 38.334 44.316 6.171 20.009 9.536 37.96 21.878 31.603-1.123 17.39-1.309 23-9.911 24.122-8.602 1.121-18.138 9.91-18.138 9.91s3.74-31.602-.188-46.187c-3.927-14.586-15.333-22.065-27.675-21.317-12.341.748-32.724 13.837-7.667 20.569-12.154 9.349-22.833 3.256-28.63-1.045-5.797-4.301-14.191-24.386-14.752-30.183-14.585 8.789-33.098-.374-53.293 18.699-11.015 10.403-17.246 32.712-13.578 53.474"/>
    <path fill="#f1bc47" d="M46.439 144.513c-6.12-9.68-8.91-18.306-10.176-24.024-1.115-.233-2.179-.594-3.16-1.084-.505 14.143 6.389 21.392 13.336 25.108"/>
    <path fill="#f1bc47" d="M223.106 144.652c.306-.058.613-.128.917-.168 8.602-1.122 8.789-6.731 9.911-24.122-.808.416-1.575.723-2.309.937-3.035 10.294-6.254 18.284-8.519 23.353"/>
    <path fill="#f1bc47" d="M212.056 88.76c-6.171-20.008-22.439-36.463-38.333-44.317-15.895-7.854-42.448-2.244-38.895-13.277 3.553-11.032 19.26-3.178 19.26-3.178s-.02-2.345-.529-5.559c-2.214-1.542-5.051-2.779-8.397-2.609-8.388.427-18.767 13.365-6.824 19.905 11.943 6.54 22.322 1.422 45.07 17.488 12.14 8.573 22.05 21.438 28.656 31.573-.003-.009-.006-.017-.008-.026"/>
    <path fill="#f1bc47" d="M81.604 55.905c-4.188 3.257-7.664 6.896-10.571 10.735 13.447-7.288 30.117-17.416 30.625-23.076.852-9.526-3.839-14.644-11.232-13.933-4.195.403-6.786 3.918-8.245 6.884.811 1.573 1.952 3.068 3.423 4.39 4-9 11.421-8.547 13-6 2.792 4.504 1 7-17 21"/>
    <path fill="none" stroke="#000" stroke-width="2" d="M60.104 148.405c-.001 0-28.001-1-27.001-29 8 4 21.501-.5 23.501-14.5 1.999-14 6.999-35 25-49 18-14 19.792-16.496 17-21-1.579-2.547-9-3-13 6-6.149-5.527-6.701-14.028-.188-18.886 6.516-4.859 25.396-3.313 30.696 10.93-1.104-14.685 2.262-26.652 20.026-28.709 17.764-2.057 17.951 23.748 17.951 23.748s-15.707-7.854-19.26 3.179c-3.554 11.032 23 5.423 38.894 13.277 15.894 7.853 32.163 24.309 38.334 44.316 6.171 20.009 9.536 37.96 21.878 31.603-1.123 17.39-1.309 23-9.911 24.122-8.602 1.121-18.138 9.91-18.138 9.91s3.74-31.602-.188-46.187c-3.927-14.586-15.333-22.065-27.675-21.317-12.341.748-32.724 13.837-7.667 20.569-12.154 9.349-22.833 3.256-28.63-1.045-5.797-4.301-14.191-24.386-14.752-30.183-14.585 8.789-33.098-.374-53.293 18.699-11.015 10.403-17.246 32.712-13.578 53.474h.001z"/>
    <path fill="#78cb74" stroke="#000" stroke-width="2" d="M83.282 78.288s-17.881 7.078-20.986-12.293c9.065-4.595 21.359.124 20.986 12.293z"/>
    <path fill="#78cb74" stroke="#000" stroke-width="2" d="M119.292 87.105s-10.058 8.32-21.233-7.326c5.587-9.562 20.612-2.484 21.233 7.326z"/>
    <path fill="#78cb74" stroke="#000" stroke-width="2" d="M119.044 103.247s-6.954-17.508 12.914-25.704c2.856 8.568 2.235 20.117-12.914 25.704z"/>
    <path fill="#78cb74" stroke="#000" stroke-width="2" d="M173.308 63.139s-15.025-9.313-24.959 4.594c10.058 4.594 19.495 8.072 24.959-4.594z"/>
    <path fill="#78cb74" stroke="#000" stroke-width="2" d="M191.065 83.255s25.829-8.692 33.9 1.738c-5.713 7.202-19.744 15.15-33.9-1.738z"/>
    <path fill="#bbf96c" stroke="#000" stroke-width="2" d="M194.542 94.803s20.24.621 23.221 16.019c-11.549 4.47-23.345.248-23.221-16.019z"/>
    <path fill="#bbf96c" stroke="#000" stroke-width="2" d="M106.751 57.427c-.001 0 14.894-4.479 25.328 15.208-9.185 5.653-24.955 3.915-25.328-15.208z"/>
    <path fill="#c5abf3" d="M86.279 103.767c-7.437.861-9.498-5.625-9.082-10.726.313-3.836 2.958-6.979 5.951-9.708 2.138 1.621 7.053 3.364 9.001 2.628 2.106 6.465 2.245 16.867-5.87 17.806"/>
    <path fill="none" stroke="#000" stroke-width="2" d="M86.279 103.767c-7.437.861-9.498-5.625-9.082-10.726.313-3.836 2.958-6.979 5.951-9.708 2.138 1.621 7.053 3.364 9.001 2.628 2.106 6.465 2.245 16.867-5.87 17.806z"/>
    <path fill="#c5abf3" stroke="#000" stroke-width="2" d="M97.068 78.969s6.372-.291 12.228 6.792c5.855 7.082-.568 15.134-7.516 13.309-6.949-1.826-9.632-13.109-9.632-13.109s5.001-2.001 4.92-6.992z"/>
    <path fill="#c5abf3" stroke="#000" stroke-width="2" d="M91.976 72.529s1.664-4.468 7.234-8.178c6.977-4.648 13.687-.277 14.157 3.716.475 4.036-3.545 13.526-16.299 10.902-.09-3.837-5.092-6.44-5.092-6.44z"/>
    <path fill="#c5abf3" stroke="#000" stroke-width="2" d="M81.94 76.342S66.993 65.786 77.7 57.405c7.482-5.857 19.405 6.001 14.276 15.124-7.707-3.682-10.036 3.813-10.036 3.813z"/>
    <path fill="#fff387" d="M59.243 109.21c-4.165 4.998-9.713 4.121-12.068 1.03-2.355-3.091-2.208-8.83 5.298-10.596s8.978 6.917 6.77 9.566"/>
    <path fill="none" stroke="#000" stroke-width="2" d="M59.243 109.21c-4.165 4.998-9.713 4.121-12.068 1.03-2.355-3.091-2.208-8.83 5.298-10.596s8.978 6.917 6.77 9.566z"/>
    <path fill="#fff" d="M71.314 121.912c-2.086 3.895-8.475 6.379-12.349 2.52-2.523-2.514-3.89-8.268-4.332-12.012 2.387-.74 4.859-2.812 5.358-4.685 6.034 1.913 15.734 5.946 11.323 14.177"/>
    <path fill="none" stroke="#000" stroke-width="2" d="M71.314 121.912c-2.086 3.895-8.475 6.379-12.349 2.52-2.523-2.514-3.89-8.268-4.332-12.012 2.387-.74 4.859-2.812 5.358-4.685 6.034 1.913 15.734 5.946 11.323 14.177z"/>
    <path fill="#fff" stroke="#000" stroke-width="2" d="M57.37 100.218s5.111-6.166 13.647-6.754c8.536-.589 11.332 7.947 6.181 12.214-5.151 4.269-17.206 2.057-17.206 2.057s1.199-4.87-2.622-7.517z"/>
    <path fill="#fff" stroke="#000" stroke-width="2" d="M49.734 100.578s-2.479-3.683-2.265-9.911c.269-7.801 8.536-10.155 12.216-9.272 3.679.883 6.59 10.596-2.315 18.823-2.953-2.014-7.636.36-7.636.36z"/>
    <path fill="#fff" stroke="#000" stroke-width="2" d="M47.175 110.241s-16.042 1.766-16.63-7.064c-.589-8.831 15.068-11.429 19.189-2.599-6.967 3.835-2.559 9.663-2.559 9.663z"/>
    <path fill="#fff" stroke="#000" stroke-width="2" d="M54.612 112.442s1.335 4.261.889 8.965c-.567 5.986-5.088 8.996-10.681 8.408-5.592-.589-8.241-5.446-6.475-11.627 1.766-6.181 8.83-7.947 8.83-7.947s2.518 3.603 7.437 2.201z"/>
    <path fill="#c5abf3" stroke="#000" stroke-width="2" d="M83.113 82.891s-1.985 2.771-6.37 5.326c-5.579 3.251-13.339 4.179-16.325-1.071-2.986-5.25 1.601-9.075 8.102-11.401 6.5-2.327 13.42.598 13.42.598s-1.109 3.546 1.173 6.548z"/>
    <path fill="#fff387" d="M90.392 86.231c-6.969-.508-9.675-5.9-8.451-9.889 1.224-3.989 6.326-7.453 12.564-2.006 6.239 5.446-.42 12.165-4.113 11.895"/>
    <path fill="none" stroke="#000" stroke-width="2" d="M90.392 86.231c-6.969-.508-9.675-5.9-8.451-9.889 1.224-3.989 6.326-7.453 12.564-2.006 6.239 5.446-.42 12.165-4.113 11.895z"/>
    <path fill="#c5abf3" d="M170.822 62.899c5.167-4.623 14.278 4.664 14.754 11.232-4.786.603-6.187 3.141-6.568 6.092-7.805-4.189-15.42-10.851-8.186-17.324"/>
    <path fill="none" stroke="#000" stroke-width="2" d="M170.822 62.899c5.167-4.623 14.278 4.664 14.754 11.232-4.786.603-6.187 3.141-6.568 6.092-7.805-4.189-15.42-10.851-8.186-17.324z"/>
    <path fill="#c5abf3" stroke="#000" stroke-width="2" d="M186.247 74.237s2.144-5.003 8.837-7.796c6.691-2.794 10.655.909 11.239 3.898.585 2.988-2.014 9.356-12.15 12.539.326-4.613-1.363-6.107-2.274-6.822-.909-.715-3.183-1.884-5.651-1.819h-.001z"/>
    <path fill="#c5abf3" d="M203.335 98.082c2.917-1.67 3.573-8.251.325-11.11-3.249-2.859-9.486-4.094-9.486-4.094s-.26 3.639-4.613 4.679c1.819 4.418 2.534 16.957 13.774 10.525"/>
    <path fill="none" stroke="#000" stroke-width="2" d="M203.335 98.082c2.917-1.67 3.573-8.251.325-11.11-3.249-2.859-9.486-4.094-9.486-4.094s-.26 3.639-4.613 4.679c1.819 4.418 2.534 16.957 13.774 10.525z"/>
    <path fill="#c5abf3" stroke="#000" stroke-width="2" d="M180.789 86.127s-2.729 4.028-2.599 10.916c.13 6.886 8.836 5.977 10.656 4.482 1.819-1.494 4.808-5.717.714-13.968-4.288.584-6.822.13-8.771-1.43z"/>
    <path fill="#c5abf3" stroke="#000" stroke-width="2" d="M179.008 80.223s-4-2.022-8.613-1.827c-4.614.195-9.161 5.392-8.382 10.201.78 4.807 7.342 5.912 11.565 4.158 2.168-.901 7.212-6.628 7.212-6.628s-1.745-2.842-1.782-5.904z"/>
    <path fill="#fff387" d="M179.008 80.223c0-2.666 2.57-6.949 8.947-5.807 6.378 1.143 6.759 6.093 6.092 9.139-.666 3.045-4.378 4.283-8.566 4.283-4.189 0-6.473-3.332-6.473-7.615"/>
    <path fill="none" stroke="#000" stroke-width="2" d="M179.008 80.223c0-2.666 2.57-6.949 8.947-5.807 6.378 1.143 6.759 6.093 6.092 9.139-.666 3.045-4.378 4.283-8.566 4.283-4.189 0-6.473-3.332-6.473-7.615z"/>
    <path fill="#fff" d="M144.59 94.821c-3.959 2.333-12.079-1.882-12.404-7.56-.203-3.556 1.04-6.671 3.377-9.109 2.738 1.542 7.531 1.493 8.97-.096 4.036 5.202 7.474 12.396.057 16.765"/>
    <path fill="none" stroke="#000" stroke-width="2" d="M144.59 94.821c-3.959 2.333-12.079-1.882-12.404-7.56-.203-3.556 1.04-6.671 3.377-9.109 2.738 1.542 7.531 1.493 8.97-.096 4.036 5.202 7.474 12.396.057 16.765z"/>
    <path fill="#fff" stroke="#000" stroke-width="2" d="M146.726 70.072s8.018-2.262 15.674 2.275c7.657 4.537 5.01 13.496-1.921 14.109-6.93.613-15.946-8.4-15.946-8.4s3.901-3.462 2.193-7.984z"/>
    <path fill="#fff" stroke="#000" stroke-width="2" d="M139.975 65.871s.053-4.617 3.914-9.823c4.836-6.521 13.305-3.655 15.934-.726 2.629 2.929-.615 12.964-13.097 14.75-1.339-3.468-6.751-4.201-6.751-4.201z"/>
    <path fill="#fff" stroke="#000" stroke-width="2" d="M132.079 72.634s-14.779-7.961-10.068-15.869c4.71-7.909 19.651-.888 17.964 9.106-8.229-.831-7.896 6.763-7.896 6.763z"/>
    <path fill="#fff" stroke="#000" stroke-width="2" d="M135.521 78.145s-2.28 2.583-5.818 5.995c-3.568 3.439-9.225 2.083-11.02.381-2.421-2.293-2.74-7.07 1.142-10.297 5.142-4.274 12.254-1.59 12.254-1.59s.18 3.632 3.442 5.511z"/>
    <path fill="#fff387" d="M143.02 78.878c-6.518 1.82-10.75-2.208-10.941-6.244-.192-4.037 3.323-8.865 10.793-5.945 7.47 2.92 3.603 11.224.148 12.189"/>
    <path fill="none" stroke="#000" stroke-width="2" d="M143.02 78.878c-6.518 1.82-10.75-2.208-10.941-6.244-.192-4.037 3.323-8.865 10.793-5.945 7.47 2.92 3.603 11.224.148 12.189z"/>
    <path fill="#fff387" d="M219.84 120.88c-7.014.851-8.537-6.324-7.483-9.17 1.054-2.846 3.794-6.956 10.645-4.848 6.851 2.108 5.376 8.432 3.162 10.329-2.213 1.897-2.845 3.268-6.324 3.689"/>
    <path fill="none" stroke="#000" stroke-width="2" d="M219.84 120.88c-7.014.851-8.537-6.324-7.483-9.17 1.054-2.846 3.794-6.956 10.645-4.848 6.851 2.108 5.376 8.432 3.162 10.329-2.213 1.897-2.845 3.268-6.324 3.689z"/>
    <path fill="#fff" d="M238.391 101.381c3.333 3.667 1.897 10.435-1.476 12.332-3.372 1.897-7.483 1.265-8.959 1.054 1.581-4.322-2.951-7.273-3.899-7.695 2.845-6.007 9.064-11.488 14.334-5.691"/>
    <path fill="none" stroke="#000" stroke-width="2" d="M238.391 101.381c3.333 3.667 1.897 10.435-1.476 12.332-3.372 1.897-7.483 1.265-8.959 1.054 1.581-4.322-2.951-7.273-3.899-7.695 2.845-6.007 9.064-11.488 14.334-5.691z"/>
    <path fill="#fff" d="M236.072 130.999c-3.021 3.237-12.964 2.213-16.232-10.119 4.954-.948 6.535-3.161 7.589-5.375 7.062 2.108 14.546 9.17 8.643 15.494"/>
    <path fill="none" stroke="#000" stroke-width="2" d="M236.072 130.999c-3.021 3.237-12.964 2.213-16.232-10.119 4.954-.948 6.535-3.161 7.589-5.375 7.062 2.108 14.546 9.17 8.643 15.494z"/>
    <path fill="#fff" d="M209.932 135.321c-4.861-.391-7.905-11.805 3.057-17.286 2.108 2.424 4.427 3.689 6.851 2.846.105 6.535-.738 15.178-9.908 14.44"/>
    <path fill="none" stroke="#000" stroke-width="2" d="M209.932 135.321c-4.861-.391-7.905-11.805 3.057-17.286 2.108 2.424 4.427 3.689 6.851 2.846.105 6.535-.738 15.178-9.908 14.44z"/>
    <path fill="#fff" d="M196.862 111.71c-.586-5.979 6.641-10.224 18.867-4.321-2.741 2.424-5.165 5.481-2.741 10.645-7.694 2.425-15.599-.949-16.126-6.324"/>
    <path fill="none" stroke="#000" stroke-width="2" d="M196.862 111.71c-.586-5.979 6.641-10.224 18.867-4.321-2.741 2.424-5.165 5.481-2.741 10.645-7.694 2.425-15.599-.949-16.126-6.324z"/>
    <path fill="#fff" d="M217.1 90.736c5.709-.275 11.7 3.689 6.957 16.337-3.795-.948-6.43-.738-8.327.316-6.008-4.637-7.379-16.232 1.37-16.653"/>
    <path fill="none" stroke="#000" stroke-width="2" d="M217.1 90.736c5.709-.275 11.7 3.689 6.957 16.337-3.795-.948-6.43-.738-8.327.316-6.008-4.637-7.379-16.232 1.37-16.653z"/>
    <path fill="#ffcae0" d="M223.145 142.056c-2.072.592-4.905 3.256-8.093 5.751-.003 10.855-1.231 22.243-4.492 32.773-.024.075-.049.15-.072.225 9.284-2.57 15.631-11.101 18.079-14.638 5.281-7.628 6.281-27.454-5.422-24.111"/>
    <path fill="none" stroke="#000" stroke-width="2" d="M223.145 142.056c-2.072.592-4.905 3.256-8.093 5.751-.003 10.855-1.231 22.243-4.492 32.773-.024.075-.049.15-.072.225 9.284-2.57 15.631-11.101 18.079-14.638 5.281-7.628 6.281-27.454-5.422-24.111z"/>
    <path fill="#ffcae0" d="M53.21 178.307c-1.25-10.251-1.48-21.048-1.112-31.3-3.055-1.579-5.458-7.028-10.459-6.672-5.725.409-12.626 9.821-3.407 24.251 4.707 7.367 10.664 12.849 15.372 16.455-.149-.908-.283-1.82-.394-2.734"/>
    <path fill="none" stroke="#000" stroke-width="2" d="M53.21 178.307c-1.25-10.251-1.48-21.048-1.112-31.3-3.055-1.579-5.458-7.028-10.459-6.672-5.725.409-12.626 9.821-3.407 24.251 4.707 7.367 10.664 12.849 15.372 16.455-.149-.908-.283-1.82-.394-2.734z"/>
    <path fill="#78cb74" stroke="#000" stroke-width="2" d="M75.391 304.126s19.898 10.741 48.03 10.029c28.132-.712 45.225-7.656 51.991-11.929 1.246 9.614.356 25.639.356 25.639s-12.82 5.163-21.544 11.039c-8.725 5.875-21.01 15.49-27.776 15.312-6.765-.178-17.093-11.751-27.598-16.202-10.504-4.451-24.214-10.149-24.214-10.149s.236-15.24.755-23.739z"/>
    <path fill="#c3fe71" d="M117.651 290.547c3.269 1.784 7.402.287 7.415 3.651.013 3.365-2.463 4.328-5.765 3.365-3.301-.963-5.914-5.64-5.914-5.64s0 8.941 9.766 9.353c9.767.413 1.788-13.617 8.804-15.13 7.015-1.514 4.126 6.464 1.1 7.84-3.026 1.375.275 4.127 2.338 3.852 2.064-.275 6.465-4.952 3.164-10.455-3.301-5.502-8.528-6.464-11.829.276-2.889-5.503-4.953-6.74-8.942-6.328-3.989.413-3.576 2.339-2.2 3.714 1.375 1.376 6.327-2.201 7.84 2.064-4.814.137-6.74.55-6.74.55s-.55 2.063.963 2.888"/>
    <path fill="#c3fe71" d="M119.714 275.692s3.714 3.438 10.592.687c2.063 1.514 2.063 3.165 2.063 3.165s-8.528 1.65-12.655-3.852"/>
    <path fill="#c3fe71" d="M124.91 271.421c2.741-.095 2.742 4.342.114 4.342s-3.427-4.228-.114-4.342"/>
  </g>
</svg>
