<svg xmlns="http://www.w3.org/2000/svg" fill-rule="evenodd" stroke-linejoin="round" stroke-miterlimit="2" clip-rule="evenodd" viewBox="0 0 552 556">
  <path id="logo" fill="url(#_Linear1)" fill-rule="nonzero" d="M279.032.767c-18.55 0-180.312 16.325-248.579 161.021-71.848 152.289.743 245.611 40.812 299.779 40.069 54.168 156.567 117.241 276.034 86.075 115.089-30.022 162.681-100.67 188.572-156.226-12.108 24.657-38.389 57.124-69.105 86.476-33.391 31.907-76.429 46.005-102.4 51.943 73.461-23.003 116.499-71.236 139.502-98.691 23.003-27.455 36.497-58.084 45.964-108.188-.743-9.646 1.92-17.645 1.92-39.918 0-40.589-4.72-72.246-8.557-84.149 0 0 8.162 84.59-21.519 174.377-29.68 89.785-120.95 135.049-167.698 143.953 161.762-62.33 174.947-173.559 174.947-216.76 0-43.2-11.435-89.577-23.507-116.26 38.118 149.932-41.294 234.426-52.094 246.498-10.801 12.07-85.131 90.212-200.121 74.33-114.99-15.883-159.461-83.225-188.049-139.767 89.578 164.543 238.874 145.485 293.509 123.249 54.637-22.236 88.943-54.001 114.991-91.484 26.047-37.483 40.023-111.813 35.576-142.942-1.271 61.624-24.142 114.354-33.671 130.871-9.529 16.518-80.048 121.343-214.733 111.814-134.683-9.53-188.048-127.697-194.945-149.444-6.895-21.748-37.66-122.001 33.419-208.461 71.077-86.462 158.599-96.009 194.139-96.009 35.539 0 86.992 13.26 105.026 21.216 18.035 7.957 40.314 23.34 40.314 23.34-16.858-19.467-44.732-33.959-84.059-50.283 38.585 8.904 84.591 37.101 84.591 37.101s-8.904-13.356-41.553-35.617c15.582 5.194 51.2 25.97 100.173 71.977C416.068 10.598 338.812 0 300.66 0c-10.262 0-17.695.767-21.628.767zm5.451 78.637c-4.168.277-3.613 15.282-3.891 21.119-.277 5.835-5.557 13.617-10.56 20.286-5.003 6.67-39.183 38.628-44.185 43.907-5.001 5.281.278 33.07 1.946 53.912 1.667 20.842 5.557 32.792 9.726 43.629 4.168 10.839 12.784 37.794 13.617 59.47.833 21.675-3.335 38.628-6.393 42.518-3.056 3.89-10.305 7.816-17.229 8.614-7.225.835-31.124 2.224-40.85 10.005-9.726 7.781-10.56 20.564-2.779 30.29 7.782 9.727 22.51 12.506 37.516 10.005 15.006-2.502 54.745-7.504 71.975-7.782 17.229-.277 58.357 6.948 67.528 7.782 9.171.834 32.236-5.281 31.124-26.123-1.111-20.841-32.791-21.676-51.688-24.454-18.897-2.779-20.843-22.233-21.398-37.238-.556-15.007 2.779-37.794 6.392-50.299 3.612-12.506 14.728-42.795 16.951-53.911 2.223-11.116 2.779-53.634 2.779-57.525 0-3.89-1.667-11.95-5.558-14.728-3.891-2.779-15.84-16.674-28.623-28.346-12.783-11.671-21.398-24.732-21.675-30.568-.277-5.782-.552-20.567-4.611-20.567-.038 0-.076.001-.114.004zm-25.8 152.313c-6.54-7.916-10.671-17.897-12.047-28.91-1.377-11.012-4.819-21.682 2.409-32.695 7.228-11.014 34.577-48.467 36.217-51.594 0 0 16.189 22.977 22.978 31.332 6.789 8.356 20.366 27.155 17.754 41.777-2.61 14.622-11.558 40.09-15.688 43.876-4.13 3.785-11.358 3.441-12.735 1.032-1.376-2.409-1.72-7.571 1.721-9.981 3.442-2.409 9.638-9.98 9.981-20.649.345-10.669.689-30.631-22.025-32.351-22.716-1.721-25.813 19.273-25.813 27.188 0 7.917 1.377 22.715 5.162 25.124 3.786 2.409 6.884 6.539 5.507 10.325-.542 1.49-1.725 2.341-3.358 2.341-2.515 0-6.099-2.016-10.063-6.815z"/>
  <defs>
    <linearGradient id="_Linear1" x1="0" x2="1" y1="0" y2="0" gradientTransform="matrix(361.871 410.319 -410.319 361.871 103.791 68.618)" gradientUnits="userSpaceOnUse">
      <stop offset="0" stop-color="#69007f"/>
      <stop offset="1" stop-color="#f029a2"/>
    </linearGradient>
  </defs>
</svg>
