<svg xmlns="http://www.w3.org/2000/svg" fill-rule="evenodd" stroke-linejoin="round" stroke-miterlimit="2" clip-rule="evenodd" viewBox="0 0 355 364">
  <g id="bulb" fill-rule="nonzero">
    <path fill="#003b49" d="M207.111 363.084c-9.309.984-53.04 0-64.896-1.872-11.855-1.872-62.399-23.087-81.743-46.799-19.343-23.712-49.295-74.255-52.415-116.063-3.12-41.807 6.865-66.767 23.088-96.095C47.369 72.928 92.297 24.88 139.719 18.017c47.424-6.864 83.616-13.104 126.671 11.232 43.055 24.335 75.503 57.407 83.615 114.19 8.112 56.783 4.368 96.719-12.48 135.406-16.848 38.688-53.663 76.127-130.414 84.239"/>
    <path fill="url(#_Linear1)" d="M132.233 6.161C84.808 13.025 39.881 61.073 23.657 90.4 7.434 119.727-2.549 144.687.569 186.495c3.121 41.807 33.073 92.35 52.416 116.062 19.344 23.711 69.887 44.927 81.743 46.799 11.856 1.872 55.587 2.856 64.895 1.872 76.751-8.112 113.567-45.552 130.415-84.239 16.847-38.687 20.591-78.623 12.48-135.406-8.113-56.784-40.559-89.855-83.615-114.19C235.58 4.21 214.273 0 192.103 0c-18.758 0-38.136 3.015-59.87 6.161z"/>
    <path fill="url(#_Linear2)" d="M169.048 10.529C114.136 11.777 33.642 59.824 21.161 131.583c-12.479 71.759 18.72 22.464 27.457 1.872 8.735-20.592 46.798-77.999 117.31-81.12 70.511-3.119 91.103 15.601 105.454 35.568 14.352 19.969 51.168 54.288 46.175 36.192 0 0-9.983-38.064-30.574-64.271-20.083-25.56-60.946-49.339-113.892-49.341-1.342 0-2.685.015-4.043.046z"/>
    <path fill="#11849c" d="M330.037 266.99c12.427-28.535 17.701-57.771 16.372-93.922-12.762 57.572-40.013 102.933-50.691 115.137-13.104 14.976-57.408 29.952-66.768 35.568-9.359 5.616-58.654 7.488-76.75 2.496-18.097-4.992-51.792-15.6-80.495-34.944-22.843-15.393-56.331-69.083-69.064-90.382 7.717 38.436 33.183 80.578 50.344 101.614 19.344 23.712 69.887 44.928 81.742 46.799 11.857 1.873 55.587 2.856 64.896 1.873 76.751-8.112 113.567-45.552 130.414-84.239"/>
    <path fill="#003b49" d="M84.988 248.726s8.049 2.1 9.799-1.05c1.75-3.149 5.949-.35 9.098-.35 3.15 0 13.298.35 15.749-.7 2.449-1.049 8.749-1.049 10.499-.35 1.749.7 7.348-.35 8.398 2.1 1.05 2.45 7.349 5.6 5.249 7.349-2.1 1.75 1.75 8.399 1.75 10.149 0 1.749-1.75 7.699-9.448 7.349-7.699-.35-26.597.7-34.296 1.049-7.699.35-31.146 3.15-34.646 4.9-3.499 1.75-8.749.7-9.798-.7-1.05-1.4-7.349-5.249-6.65-9.099.7-3.849 2.101-19.947 3.5-19.947 1.4 0 15.399-22.747 17.498-28.346 2.1-5.6 20.647-38.146 26.946-53.193 6.299-15.048 10.849-15.748 10.498-22.047-.349-6.3 6.65-13.299 5.6-17.848-1.05-4.55 1.05-8.399 2.8-11.199 1.75-2.799-1.4-8.749-1.4-9.798 0-1.05-3.5-8.049-7-9.449-3.499-1.4-9.098-3.5-12.248-2.1-3.149 1.4-21.697 17.498-25.196 21.347-3.5 3.85-6.999 8.399-10.149 6.999-3.15-1.399-3.15-5.949-7.699-5.949-4.549 0-4.549-8.049-4.2-11.898.351-3.85 24.847-25.897 30.447-27.647 5.599-1.749 9.798-6.649 15.748-6.649 5.949 0 13.648-2.099 18.197 0 4.55 2.1 8.399 6.649 11.549 7.7 3.149 1.049 9.799 11.548 11.549 16.797 1.749 5.249 6.298 14.348 4.899 16.098-1.4 1.75 1.399 10.849-.7 11.548-2.1.701-1.401 10.849-3.5 10.849-2.1 0-.699 6.649-2.8 9.449-2.1 2.8-1.749 9.098-4.549 14.698-2.8 5.599-5.599 4.199-4.899 7.699.7 3.499-3.15 10.498-4.199 14.698-1.05 4.199-7.35 8.399-6.65 11.898.7 3.5-7.699 10.149-7.699 13.299 0 3.149-6.299 15.398-6.299 15.398s-4.55 5.599-3.5 7.349c1.05 1.749-6.648 4.899-6.648 8.398 0 3.5-5.6 11.199-5.6 11.199"/>
    <path fill="#003b49" d="M220.348 186.652c1.4 4.549-3.499 12.948-3.499 16.098 0 3.149-1.051 12.248-2.1 16.798-1.049 4.549-5.599 10.848-5.599 13.998 0 3.149-6.3 9.448-6.3 12.248 0 2.799-3.849 6.999-5.599 7.349-2.058.412-10.499-2.449-11.898-4.899-1.4-2.45-5.249-7.699-5.599-10.849-.35-3.15-7.349-16.798-7.349-16.798s2.099-12.598 1.399-14.698c-.699-2.1-1.05-9.449-2.449-11.548-1.401-2.1 3.849-10.849 3.849-12.949 0-2.099-2.45-10.498-.7-12.248 1.75-1.75 4.199-6.999 4.199-11.548 0-4.55 2.8-9.449 2.451-11.549-.351-2.099 4.899-4.899 4.899-8.399 0-3.499 5.949-10.498 4.549-12.948-1.4-2.45 4.55-5.949 4.55-5.949s8.049-5.599 8.049-8.749c0-3.15 8.398-.35 8.398 2.8 0 3.149 5.949 8.048 3.85 11.198-2.1 3.15 2.45 9.099 2.45 12.599 0 3.499 3.149 9.098 3.149 13.298 0 4.199-.7 16.797 1.05 18.897 1.75 2.1-3.149 13.299-1.75 17.848m33.945-29.396c-3.499-1.05-1.399-11.898-2.449-13.648-1.05-1.75 4.2-8.399-1.05-10.149-5.249-1.75-.349-10.149-3.149-12.599-2.8-2.449-2.1-11.548-4.2-14.348-2.099-2.799-8.048-4.899-8.048-10.148 0-5.25-9.449-13.649-12.249-12.949-2.8.7-6.299-5.249-8.399-3.849-2.099 1.4-6.649-4.899-9.798-2.8-3.15 2.1-8.749 3.15-8.749 3.15s-6.299 5.949-9.099 7.349c-2.8 1.4-7.699 9.449-8.749 9.449-1.05 0-9.799 12.598-12.599 16.448-2.8 3.849-12.248 27.646-12.248 27.646s-3.5 10.848-3.5 15.048c0 4.199-1.05 13.298-2.099 16.797-1.05 3.5-3.499 7-3.15 10.499.35 3.5 3.5 21.697 1.401 21.697-2.101 0 0 8.399-.35 10.499-.351 2.1 4.898 12.598 3.148 13.298-1.749.7 1.75 12.599 1.75 14.348 0 1.75 5.249 8.399 5.249 11.899s3.5 9.098 5.951 10.848c2.449 1.75 4.198 6.999 7.698 7.349 3.5.35 6.649 4.55 9.098 6.3 2.451 1.749 9.799 3.849 10.499 2.8.701-1.051 7-2.8 9.45-2.451 0 0 8.398-3.849 9.798-3.849 1.4 0 8.399-6.3 10.849-8.399 2.449-2.1 8.048-6.298 10.848-12.948 2.8-6.649 6.299-11.199 7.349-14.348 1.05-3.15 4.899-10.849 4.899-14.348 0-3.5 5.599-11.899 5.599-15.398 0-3.5 2.1-12.948 3.5-17.848 1.4-4.899.35-9.799 1.4-11.898 1.05-2.1-.699-11.899-.699-15.049 0-3.149 5.598-7.349 2.098-8.398"/>
    <path fill="#fff" d="M79.147 237.678s8.049 2.1 9.799-1.05c1.749-3.149 5.949-.349 9.098-.349 3.15 0 13.298.349 15.749-.701 2.449-1.049 8.748-1.049 10.498-.349 1.75.699 7.349-.35 8.399 2.099 1.05 2.45 7.349 5.6 5.249 7.35-2.1 1.749 1.75 8.398 1.75 10.148s-1.75 7.699-9.449 7.349c-7.699-.35-26.597.7-34.295 1.05-7.699.35-31.147 3.149-34.646 4.899-3.5 1.75-8.749.7-9.798-.7-1.05-1.399-7.35-5.249-6.65-9.099.7-3.849 2.1-19.947 3.5-19.947s15.398-22.747 17.497-28.346c2.1-5.6 20.648-38.145 26.946-53.193 6.3-15.048 10.849-15.748 10.499-22.047-.349-6.3 6.65-13.299 5.6-17.848-1.05-4.549 1.05-8.399 2.799-11.198 1.75-2.8-1.399-8.749-1.399-9.799 0-1.05-3.5-8.049-7-9.449-3.5-1.4-9.098-3.499-12.248-2.099-3.15 1.399-21.697 17.497-25.197 21.347-3.499 3.849-6.999 8.398-10.148 6.999-3.15-1.4-3.15-5.949-7.699-5.949-4.549 0-4.549-8.05-4.2-11.899.35-3.849 24.847-25.897 30.447-27.646 5.598-1.75 9.798-6.649 15.748-6.649 5.949 0 13.647-2.1 18.197 0 4.549 2.099 8.398 6.649 11.549 7.699 3.149 1.049 9.798 11.548 11.548 16.797 1.75 5.25 6.299 14.349 4.899 16.098-1.399 1.75 1.4 10.849-.7 11.549-2.1.7-1.4 10.849-3.499 10.849-2.1 0-.7 6.648-2.8 9.448-2.1 2.8-1.75 9.099-4.55 14.698-2.799 5.599-5.598 4.2-4.898 7.699.699 3.5-3.151 10.499-4.2 14.698-1.05 4.2-7.349 8.399-6.649 11.898.699 3.5-7.699 10.149-7.699 13.299 0 3.149-6.299 15.398-6.299 15.398s-4.55 5.599-3.5 7.349c1.05 1.749-6.649 4.899-6.649 8.399 0 3.499-5.599 11.198-5.599 11.198"/>
    <path fill="#fff" d="M214.93 174.337c1.399 4.549-3.5 12.948-3.5 16.098 0 3.149-1.05 12.248-2.1 16.798-1.049 4.549-5.599 10.848-5.599 13.998 0 3.149-6.299 9.448-6.299 12.248 0 2.799-3.85 6.999-5.6 7.349-2.058.412-10.498-2.449-11.898-4.899-1.4-2.45-5.249-7.699-5.599-10.849-.35-3.15-7.349-16.798-7.349-16.798s2.099-12.598 1.399-14.698c-.699-2.1-1.05-9.449-2.449-11.548-1.401-2.1 3.849-10.849 3.849-12.949 0-2.099-2.45-10.498-.7-12.248 1.75-1.75 4.199-6.999 4.199-11.548 0-4.55 2.8-9.449 2.451-11.549-.35-2.099 4.899-4.899 4.899-8.399 0-3.499 5.949-10.498 4.549-12.948-1.399-2.45 4.55-5.949 4.55-5.949s8.049-5.599 8.049-8.749c0-3.15 8.399-.35 8.399 2.8 0 3.149 5.949 8.048 3.849 11.198-2.1 3.15 2.45 9.099 2.45 12.599 0 3.499 3.149 9.098 3.149 13.298 0 4.199-.699 16.797 1.05 18.897 1.75 2.1-3.149 13.299-1.749 17.848m33.945-29.396c-3.5-1.05-1.4-11.898-2.45-13.648-1.05-1.75 4.2-8.399-1.05-10.149-5.249-1.75-.349-10.149-3.149-12.599-2.8-2.449-2.1-11.548-4.2-14.348-2.099-2.799-8.048-4.899-8.048-10.148 0-5.25-9.449-13.649-12.248-12.949-2.8.7-6.3-5.249-8.4-3.849-2.099 1.4-6.649-4.899-9.798-2.8-3.15 2.1-8.749 3.15-8.749 3.15s-6.299 5.949-9.099 7.349c-2.8 1.4-7.699 9.449-8.749 9.449-1.05 0-9.799 12.598-12.599 16.448-2.799 3.849-12.248 27.646-12.248 27.646s-3.499 10.848-3.499 15.048c0 4.199-1.051 13.298-2.1 16.797-1.049 3.5-3.499 7-3.15 10.499.35 3.5 3.5 21.697 1.401 21.697-2.1 0 0 8.399-.35 10.499-.351 2.1 4.898 12.598 3.148 13.298-1.749.7 1.75 12.599 1.75 14.348 0 1.75 5.25 8.399 5.25 11.899s3.499 9.099 5.95 10.848c2.449 1.75 4.199 6.999 7.698 7.349 3.5.35 6.649 4.55 9.098 6.3 2.451 1.749 9.799 3.849 10.5 2.8.7-1.051 6.999-2.8 9.449-2.451 0 0 8.398-3.849 9.799-3.849 1.399 0 8.398-6.3 10.848-8.399 2.449-2.1 8.048-6.298 10.848-12.948 2.8-6.649 6.3-11.199 7.349-14.348 1.05-3.15 4.9-10.849 4.9-14.348 0-3.5 5.599-11.899 5.599-15.398 0-3.5 2.099-12.948 3.5-17.848 1.399-4.899.349-9.799 1.399-11.898 1.05-2.1-.699-11.899-.699-15.048 0-3.15 5.598-7.349 2.099-8.399"/>
    <path fill="#003b49" d="M282.652 167.175c-2.8 0-12.948-6.649-12.948-12.249 0-5.599 5.249-10.148 10.848-10.148 5.599 0 11.199.7 11.199 5.25 0 4.549 2.449 9.448-.35 10.148-2.8.7-3.85 4.899-6.3 3.499-2.449-1.399-2.449 3.5-2.449 3.5"/>
    <path fill="#003b49" d="M278.803 221.417s-10.849-.7-10.849-5.949 7.7-15.748 11.549-19.947c3.85-4.2 12.248-11.549 12.248-15.748 0-4.2 9.449-11.898 11.899-15.398 2.449-3.5 10.499-17.498 14.347-19.248 3.85-1.75 8.4-2.1 12.599 1.75s3.5 11.549 1.4 11.898c-2.1.35-3.15 6.999-5.25 7.35-2.099.35-4.199 10.498-8.048 11.198-3.85.7-4.2 7.349-6.999 8.749-2.8 1.4-6.65 3.499-6.65 8.049 0 4.549-8.748 10.149-11.548 17.847-2.8 7.699-6.3 4.55-6.3 4.55s.701 9.798-8.398 4.899"/>
    <path fill="#003b49" d="M317.298 222.118c-4.734-1.262-5.949-5.949-8.049-8.749-2.099-2.799 4.549-7.349 4.549-12.948s9.799.35 12.599 2.449c2.799 2.1 4.899 3.85 4.549 6.65-.35 2.799.35 8.748-2.45 9.449-2.8.699-5.949 4.549-11.198 3.149"/>
    <path fill="#fff" d="M275.121 158.239c-2.8 0-12.948-6.649-12.948-12.248 0-5.6 5.249-10.149 10.848-10.149 5.6 0 11.199.7 11.199 5.25 0 4.549 2.45 9.448-.35 10.148-2.8.7-3.85 4.899-6.299 3.499-2.45-1.399-2.45 3.5-2.45 3.5"/>
    <path fill="#fff" d="M271.271 212.482s-10.849-.7-10.849-5.949c0-5.25 7.7-15.748 11.549-19.948 3.85-4.199 12.248-11.548 12.248-15.748 0-4.199 9.449-11.898 11.899-15.397 2.45-3.5 10.499-17.499 14.348-19.248 3.85-1.75 8.399-2.1 12.598 1.749 4.2 3.85 3.5 11.549 1.4 11.899-2.099.35-3.149 6.999-5.249 7.349-2.1.35-4.2 10.499-8.049 11.199-3.849.699-4.2 7.349-6.999 8.748-2.799 1.4-6.649 3.5-6.649 8.05 0 4.549-8.749 10.148-11.549 17.847-2.8 7.699-6.299 4.55-6.299 4.55s.7 9.798-8.399 4.899"/>
    <path fill="#fff" d="M309.766 213.181c-4.733-1.262-5.949-5.949-8.049-8.749-2.099-2.799 4.55-7.349 4.55-12.948s9.798.35 12.598 2.449c2.799 2.101 4.899 3.85 4.549 6.65-.35 2.799.35 8.748-2.45 9.449-2.799.699-5.949 4.549-11.198 3.149"/>
  </g>
  <defs>
    <linearGradient id="_Linear1" x1="0" x2="1" y1="0" y2="0" gradientTransform="rotate(90 85.76165 87.55435) scale(343.232)" gradientUnits="userSpaceOnUse">
      <stop offset="0" stop-color="#57d4c5"/>
      <stop offset="1" stop-color="#17a2c5"/>
    </linearGradient>
    <linearGradient id="_Linear2" x1="0" x2="1" y1="0" y2="0" gradientTransform="rotate(90 83.19101 84.94599) scale(278.221)" gradientUnits="userSpaceOnUse">
      <stop offset="0" stop-color="#86ede2"/>
      <stop offset=".03" stop-color="#81e8df"/>
      <stop offset="1" stop-color="#1ab4db"/>
    </linearGradient>
  </defs>
</svg>
