<svg xmlns="http://www.w3.org/2000/svg" width="62" height="37" viewBox="0 0 206.57 123.32">
  <path fill="#1b1e4a" d="M38.97 48.91c1.86.07 4.14.2 5.37 2.27.37.68.54 1.56.56 2.37-.02 1.61-.7 2.74-1.45 3.3-1.23 1.06-3.09 1.11-4.57 1.1l-6.43-.02.02-9.04zM19.9 76.58c0 1.55.18 3.61 1.85 5.37 1.17 1.25 2.72 2.01 4.45 2.02 1.79 0 3.65-.8 4.77-2.24 1.3-1.61 1.43-3.42 1.44-4.97l.02-9.23 4.7.02c1.98.07 4.95.15 6.37 3.08.5 1.07.68 2.18.87 3.37.48 3.5.85 6.11 3.31 8.37.56.5 1.91 1.68 4.26 1.7 3.4.01 6.49-2.16 6.5-5.15 0-1.06-.61-2.07-.98-3-.49-1.25-.79-3.56-.97-4.93-1.21-7.97-4.68-8.61-8.02-9.06 1.55-.3 3.84-.68 5.95-3.1.92-1.05 2.6-3.42 2.61-7.35 0-3.36-.98-6.36-3.5-8.67-3.4-3.06-7.59-3.46-12.67-3.48l-14.41-.04c-1.48-.02-4.2.22-5.64 2.84-.75 1.24-.76 2.42-.82 3.54l-.07 30.93Z"/>
  <path fill="#1b1e4a" d="M75.45 57.46c1.53 5.8 1.84 7.23 2.75 12.52.63-3.17.88-4.23 1.75-7.65l5.25-18.38c.62-1.87 1.74-5.04 5.76-5.02 3.76.01 5.99 3 5.98 5.94 0 1.55-.56 3.11-1.06 4.6L85.86 77.49c-1.63 4.67-2.43 6.42-8.06 6.39-4.89-.03-5.81-2.14-7.22-6.08L60.01 47.1c-.23-.82-.43-1.5-.43-2.43.01-3.49 2.73-5.91 6.07-5.9 4.31.04 5.43 3.33 6.11 5.39l3.69 13.29Z"/>
  <path fill="#1b1e4a" d="M100.44 45.88c0-1.74.13-4.05 2.24-5.91.93-.8 2.35-1.43 3.9-1.42 3.28.01 6.29 2.64 6.28 7.55l-.02 30.82c.02 1.21-.15 2.76-1.06 4.25-1.1 1.74-2.96 2.71-5.08 2.69-1.93-.03-3.8-.91-4.98-2.55-1.12-1.57-1.31-3.13-1.3-4.51z"/>
  <path fill="#1b1e4a" d="M120.9 45.04c.01-1.3.2-3.3 1.81-4.85 1.49-1.36 3.34-1.49 5.01-1.48 3.52 0 4.75 1.14 6.11 3.39 2.23 3.7 4.41 7.41 6.61 11.15 2.59 4.5 5.05 9.06 7.58 13.56l-.46-21.58c-.01-1.26.1-2.52.9-3.84 1.43-2.42 3.87-2.52 4.73-2.51 1.5.02 2.93.54 4.17 1.79 1.67 1.81 1.65 3.92 1.71 5.49L159 77.39c0 1.49-.13 6.79-6.38 6.77-2.04 0-4.58-.76-7.72-5.2-2.21-3.12-8.62-14.55-12.99-22.28l.51 20.74c-.07 1.37-.07 2.75-.95 4.18a5.58 5.58 0 0 1-4.76 2.59c-.87 0-1.85-.24-2.72-.75-2.9-1.57-3.07-4.49-3.07-6.8l-.03-31.58Z"/>
  <path fill="#1b1e4a" d="M194.4 83.09c-3.92 1.25-6.51 1.4-9.73 1.36-3.96-.05-8.87-1.06-13.5-5.31-5.43-4.87-7.02-11.62-7-17.92.03-13.84 8.59-23.34 22.25-23.3 10.7.04 15.54 4.74 17.47 7.69.56 1.01 1 2.29.53 4.15-.61 2.07-3.04 4.26-6.47 3.58-2.03-.49-3.66-2.23-4.62-3.1-.87-.79-2.41-2.34-6.32-2.4-7.3-.02-10.52 5.88-10.54 12.93-.02 8.54 4 13.23 9.61 13.26 1.55 0 3.65-.36 5.32-1.36 2.24-1.24 3.48-3.1 3.85-5.6h-4.14c-1.3-.01-2.78-.03-3.95-.71-1.55-.82-2.41-2.38-2.4-4.13 0-1.68.81-2.93 1.99-3.74 1.11-.74 2.09-.8 3.21-.86l11.39.04c1.11 0 2.35.07 3.46.77 1.67 1.12 1.72 3.05 1.77 5.18-.4 16.68-12.17 19.47-12.17 19.47"/>
  <path fill="#1b1e4a" d="M.07 45.84c0-1.75.13-4.05 2.23-5.92.93-.8 2.36-1.42 3.9-1.42 3.28.02 6.3 2.64 6.29 7.57l-.07 30.8c0 1.19-.19 2.74-1.12 4.22-1.12 1.74-2.98 2.73-5.08 2.73-1.92 0-3.77-.88-4.95-2.51C.18 79.75 0 78.19 0 76.83l.07-30.98Z"/>
  <path fill="#ba0c2f" d="m57.97 26.23 22.03.03 23.35-14.44 23.23 14.45h21.93L106.93 1.01a6.9 6.9 0 0 0-7.17 0L57.97 26.24Z"/>
  <path fill="#ba0c2f" d="m148.59 97.12-22.01-.04-23.34 14.43-23.32-14.54H57.99l41.67 25.35a6.9 6.9 0 0 0 7.17.01l41.76-25.2Z"/>
</svg>
