<svg xmlns="http://www.w3.org/2000/svg" width="36" height="36" viewBox="0 0 36 36">
  <path fill="none" d="M0 0h36v36H0z"/>
  <path fill="#b90e2f" d="M11.55 2.42c-2.56.12-4.78.74-6.57 2.52-1.8 1.8-2.42 4.03-2.53 6.56-.07 1.58-.49 13.52.73 16.66.81 2.1 2.47 3.76 4.58 4.57 1 .39 2.13.65 3.8.73 13.94.63 19.1.29 21.27-5.29.39-1 .66-2.13.73-3.79.64-13.97-.1-16.99-2.53-19.42-1.93-1.93-4.2-3.24-19.48-2.54m.13 28.22c-1.53-.07-2.35-.32-2.9-.54a5.13 5.13 0 0 1-2.97-2.96c-.93-2.38-.62-13.69-.54-15.51.08-1.8.45-3.43 1.71-4.69 1.57-1.56 3.58-2.33 17.35-1.7 1.8.08 3.44.45 4.7 1.7 1.57 1.56 2.34 3.6 1.71 17.31-.01.99-.19 1.97-.54 2.9-1.42 3.63-4.67 4.13-18.52 3.5M24.48 9.6c0 1.04.84 1.87 1.88 1.87s1.87-.84 1.87-1.87-.84-1.87-1.87-1.87-1.88.83-1.88 1.87M9.97 17.93c0 4.43 3.6 8.01 8.03 8.01s8.03-3.59 8.03-8.01-3.6-8.01-8.03-8.01-8.03 3.58-8.03 8.01m2.82 0a5.2 5.2 0 0 1 5.22-5.2c2.88 0 5.21 2.34 5.2 5.22s-2.34 5.21-5.22 5.2a5.2 5.2 0 0 1-5.2-5.22"/>
</svg>
