<svg xmlns="http://www.w3.org/2000/svg" fill="#fff" width="214" height="82" viewBox="0 0 214 82">
  <path d="M86.5 15.59c.59.02 1.32.07 1.71.72.12.22.17.5.18.76 0 .51-.22.87-.46 1.05-.39.34-.99.35-1.46.35h-2.05v-2.89zm-6.08 8.82c0 .49.06 1.15.59 1.71q.58.62 1.42.64c.57 0 1.16-.26 1.52-.71a2.4 2.4 0 0 0 .46-1.59v-2.94h1.5c.63.02 1.58.05 2.03.98.16.34.22.69.28 1.07.15 1.12.27 1.95 1.06 2.67.18.16.61.54 1.36.54 1.08 0 2.07-.69 2.07-1.64 0-.34-.19-.66-.31-.96-.16-.4-.25-1.14-.31-1.57-.39-2.54-1.49-2.74-2.56-2.89.49-.1 1.22-.22 1.9-.99.29-.33.83-1.09.83-2.34 0-1.07-.31-2.03-1.12-2.76-1.08-.98-2.42-1.1-4.04-1.11h-4.59c-.47-.02-1.34.06-1.8.89-.24.39-.24.77-.26 1.13z"/>
  <path d="M98.13 18.32c.49 1.85.59 2.3.88 3.99.2-1.01.28-1.35.56-2.44l1.67-5.86c.2-.6.55-1.61 1.84-1.6 1.2 0 1.91.96 1.91 1.89 0 .49-.18.99-.34 1.47l-3.19 8.93c-.52 1.49-.77 2.05-2.57 2.04-1.56 0-1.85-.68-2.3-1.94l-3.37-9.79c-.07-.26-.14-.48-.14-.78 0-1.11.87-1.89 1.94-1.88 1.38.01 1.73 1.06 1.95 1.72l1.18 4.24Z"/>
  <path d="M106.09 14.62c0-.55.04-1.29.71-1.88.3-.25.75-.45 1.24-.45 1.04 0 2.01.84 2 2.41v9.82c0 .38-.05.88-.34 1.35-.35.55-.94.86-1.62.86-.62 0-1.21-.29-1.59-.81-.36-.5-.42-1-.42-1.44v-9.85Z"/>
  <path d="M112.61 14.36c0-.41.06-1.05.58-1.55.47-.43 1.07-.48 1.6-.47 1.12 0 1.52.36 1.95 1.08l2.11 3.55q1.22 2.17 2.42 4.32l-.15-6.88c0-.4.03-.8.29-1.22.46-.77 1.23-.8 1.51-.8q.73-.02 1.33.57c.53.58.53 1.25.55 1.75l-.02 9.95c0 .48-.04 2.17-2.03 2.16-.65 0-1.46-.24-2.46-1.66-.7-1-2.75-4.64-4.14-7.1l.16 6.61c-.02.44-.02.88-.3 1.33a1.8 1.8 0 0 1-1.52.83q-.44 0-.87-.24c-.92-.5-.98-1.43-.98-2.17V14.35Z"/>
  <path d="M136.04 26.49c-1.25.4-2.07.44-3.1.43a6.2 6.2 0 0 1-4.3-1.69c-1.73-1.55-2.24-3.7-2.23-5.71 0-4.41 2.74-7.44 7.09-7.43 3.41.01 4.95 1.51 5.57 2.45.18.32.32.73.17 1.32a1.74 1.74 0 0 1-2.06 1.14c-.65-.15-1.17-.71-1.47-.99-.28-.25-.77-.75-2.02-.76-2.33 0-3.35 1.87-3.36 4.12 0 2.72 1.27 4.22 3.06 4.23a3.6 3.6 0 0 0 1.7-.43 2.3 2.3 0 0 0 1.23-1.78H135c-.41 0-.89 0-1.26-.23a1.5 1.5 0 0 1-.77-1.32c0-.53.26-.93.63-1.19.35-.23.67-.25 1.02-.27h3.63c.35.01.75.03 1.1.26.53.36.55.97.57 1.65-.13 5.32-3.88 6.21-3.88 6.21"/>
  <path d="M74.1 14.61c0-.56.04-1.29.71-1.89.3-.26.75-.45 1.24-.45 1.04 0 2.01.84 2.01 2.41l-.02 9.82c0 .38-.06.87-.36 1.35a1.95 1.95 0 0 1-3.2.07c-.35-.5-.41-.99-.41-1.43l.02-9.88Z"/>
  <path d="M92.56 8.36h7.02l7.44-4.59 7.4 4.61h6.99L108.16.32a2.2 2.2 0 0 0-2.29 0L92.55 8.36Z"/>
  <path d="M121.44 30.96h-7.02l-7.44 4.59-7.43-4.63h-6.99L105.84 39c.7.43 1.58.43 2.29 0z"/>
  <path d="M20.58 78.24c.38-.99.53-1.83 1.07-2.74l1.37-3.73c.08-.23.15-.53-.08-.53-1.07-.23-.3-.15-1.45-.31l-2.05-.53c-.15-.08-.3-.08-.38-.23a2 2 0 0 1-1.29-1.83c.08-.46.08-.61.61-1.22.23-.3.53-.38.91-.46 1.22-.53 2.44-1.22 3.88-1.6.84-.23 1.83-.61 2.66-.76.3-.15.61-.46.76-.84q.21-.14.3-.38c.23-.99.76-2.05 1.14-2.97l.92-2.05c.61-1.52 1.3-2.97 1.98-4.41.46-1.67 1.07-3.2 1.75-4.79.08-.23.3-.46.31-.76.23-.38.3-.84.46-1.22 0 0 .08-.15.15-.23.15-.53.31-1.07.61-1.67.08-.53.38-1.14.53-1.67.46-1.6.99-3.2 1.3-4.72 0-.23.15-.53.15-.84.08-.15-.15-.38-.23-.38-1.98.3-3.88.53-5.79.76-2.44.61-4.8.99-7.38 1.52-2.74.61-5.63 1.21-8.45 2.2-.99.38-2.06.68-3.05 1.21a27 27 0 0 0-4.72 2.13c-.91.53-1.83 1.06-2.67 1.37l-1.68 1.37c-.15.3-.23.53-.53.84-.15.23-.38.38-.61.3-.23-.23-.46-.3-.53-.38-.15-.61-.53-1.22-.53-1.9-.15-.38 0-.53.23-.76l.23-.38a36 36 0 0 1 3.58-2.36l.23-.15c.99 0 1.83-.45 2.66-.99.38-.3.91-.38 1.37-.61 1.14-.61 2.36-.91 3.5-1.44.38-.15.69-.23 1.07-.3.53-.08.99-.23 1.52-.46q.23-.23.69-.23a79 79 0 0 1 5.02-1.44c1.07-.3 2.21-.3 3.12-.68.91-.08 1.83-.3 2.74-.45.46-.08.99-.15 1.45-.3 2.28-.45 4.34-.68 6.47-.98.76-.15 1.67-.3 2.44-.3q.69-.13.69-.61c.31-1.22.76-2.43.69-3.65a3 3 0 0 1 0-1.22c.23-.23.15-.38.31-.61.38-.3.84-.3 1.22-.23.15.08.23.23.38.38.23.3.46.61.76.76.38.15.46.53.46.91-.15.68-.23 1.45-.53 2.21-.08.3-.31 1.07-.23 1.37 0 .38.46.23.91.15 1.29-.08 2.44-.15 3.65-.07.53 0 1.07-.15 1.52-.23.46-.15.84-.15 1.29-.07 1.14.15 2.44 0 3.73 0 .38-.08.61-.08.99.08.23.08.53.08.76 0q.45.12.91 0c.23-.08.53-.08.69-.08 1.07.23 2.28.15 3.5.31.99.31 2.28.31 3.35.46 1.45.15 2.59.53 3.96.99.61.15 1.22.23 1.67.53q1.62.48 2.66 1.3a7 7 0 0 1 3.04 3.58c.08.38.08.84.38 1.14.53 1.22.23 2.59-.23 4.03a5 5 0 0 1-1.14 1.83l-2.74 2.66c-2.28 1.37-3.35 1.82-5.79 3.19a66 66 0 0 1-5.33 2.35c-1.07.53-2.13.84-3.05 1.37-.99.3-1.98.53-3.05.99-.53.3-1.45.38-2.06.76-1.52.61-2.89 1.06-4.49 1.59q-.12-.02-.46.08c-1.98.76-3.81 1.21-5.79 1.82l-3.12.99c-1.9.61-3.58 1.06-5.63 1.67-.23.08-.38.08-.61.08-.69.3-.84.38-1.14 1.22-.23.68-.76 1.52-.92 2.28 0 .08 0 .3.15.3.99.23 2.13.31 3.12.54.69 0 1.37.08 2.13.38.53.23 1.14.23 1.6.31q1.24.21 2.36.53c.23.08.46.08.53.15 1.45.23 2.66.76 4.03 1.15.61.08 1.22.38 1.83.69 1.37.61 2.97.92 4.34 1.68.53.23.99.61 1.6.84 1.29.69 2.28 1.52 3.42 2.13q.37.14.61.38c.61.69 1.37 1.22 2.05 1.83.23.23.38.38.46.61q.14.33-.08.76c-.08.15-.15.3-.3.23l-.84-.23c-2.28-1.52-4.64-2.74-6.85-3.89l-3.65-1.45c-.3-.15-.91-.31-1.45-.69l-1.37-.31-2.89-.76c-.61-.3-.99-.46-1.6-.53-.23 0-.46 0-.53-.08-1.29-.46-2.82-.61-4.26-.92-.38 0-.68-.08-.99-.15-.68-.23-1.45-.38-2.13-.46-.69-.08-1.29-.08-1.83-.23-.15 0-.38 0-.46.08-.15 0-.23.08-.38.15l-.3.3c-.15.68-.53 1.37-.69 1.98q-.56.9-.99 1.9c-.3.38-.31.84-.46 1.37-.31.76-.46 1.52-.69 2.13 0 .46-.15.76-.46 1.07-.3.46-.69.68-1.14.46-.3-.08-.53-.08-.84-.3-.23-.08-.38-.23-.15-.46-.15-.3-.23-.69-.15-1.07l.23-1.45Zm2.98-9.13c.53.08.76-.23.91-.53q.13-.23.15-.68c.15-.38-.23-.61-.53-.53-.61.3-2.51.53-3.12.76-.15.08-.46.23-.38.38l.46.3c.38.23 2.05.23 2.36.31zm47.97-25.38v-.61a6 6 0 0 0-1.82-2.51 4.4 4.4 0 0 0-1.98-1.3 20 20 0 0 0-5.86-1.76c-.53-.23-1.22-.31-1.83-.46-.53-.08-1.22.07-1.83-.15a61 61 0 0 0-3.96-.38c-.3 0-.69-.08-.99 0l-1.9-.15c-.38.08-.84.08-1.22 0-.3-.08-.61 0-.91 0-1.07.08-2.06-.08-3.2.07-1.67 0-3.35.3-4.95.3q-.45.13-.91.15c-.23 0-.38.23-.69.53 0 .23-.08.53-.15.76-.23.84-.31 1.67-.76 2.59-.31.99-.69 2.13-.99 3.27l-.31.76c-.38.84-.61 1.6-.84 2.43a8 8 0 0 1-.61 1.98c-.46.91-.69 1.98-1.22 2.82-.31.84-.38 1.75-1.07 2.66-.15.15-.15.53-.23.61-.15.3-.08.53-.3.84-.61.84-.46 1.75-1.07 2.51-.15.84-.76 1.75-1.07 2.59 0 .3-.23.61-.23.91-.3.15-.53.46-.38.68.23.3.53 0 .76.08.46-.23.76-.38 1.29-.53 1.22-.38 2.51-.53 3.65-1.21.3-.15.76-.08 1.07-.23.61-.08.99-.3 1.6-.53.46-.08.76-.08.99-.08l.76-.23 1.22-.53a16 16 0 0 0 3.2-1.21c.68-.08 1.22-.23 1.83-.38.3-.15.53-.08.69-.23.61-.46 1.29-.38 1.83-.53.76-.38 1.45-.61 2.36-.84a51 51 0 0 1 5.48-2.28c.61-.3 1.37-.61 2.06-.84.61-.3 1.29-.46 1.98-.91a4 4 0 0 1 1.9-.99c.3-.15.76-.38 1.07-.61.61-.23.91-.53 1.37-.61.23-.15.46-.15.61-.38.08-.23.53-.38.69-.53.99-.61 1.83-1.52 2.59-2.13a8 8 0 0 0 2.13-2.97l.15-.46Z"/>
  <path d="M65.42 72.11c-1.14-1.14-2.36-2.44-2.13-4.04 0-.15.08-1.07.23-1.29l.15-.46q.53-1.22 1.22-2.36a17 17 0 0 1 6.4-5.63q.25 0 .61-.23c.76-.3 1.83.23 2.28.76l.3.76a3.4 3.4 0 0 1-.92 2.97 25 25 0 0 1-3.81 3.65c-.23.23-.61.38-.84.61-.3.3-.84.3-1.29.38q-.59.34-1.07-.23l-.3-.23s-.23 0-.23.08c-.46.68-.46 1.75-.46 2.44.08.3.23.53.53.84.38.53.99.69 1.52.69.3.08.53.08.84.08.84-.08 1.83 0 2.82-.38 3.73-.91 6.62-2.35 9.75-3.72 1.6-.76 2.89-1.6 4.34-2.28.91-.53.76-.46 1.75-1.14.53-.46.3-.23 1.07-.53.15-.15.08 0 .15.3.08.38.38 1.07 0 1.37-.69.68-.23.46-.91 1.07-1.52 1.14-3.05 1.82-4.65 2.81-1.07.53-2.06 1.06-2.97 1.44-2.06.84-4.11 1.75-6.32 2.28l-2.21.61c-1.14.3-1.45.3-2.66.3-1.07-.15-2.36-.23-3.2-.92Zm6.86-11.41c-.08 0-.23.08-.3.08-1.9.84-3.35 1.82-4.11 3.57-.15.08-.15.3-.23.53a19 19 0 0 0 4.65-4.18Z"/>
  <path d="M118.48 66.75a8 8 0 0 1-4.64-1.15c-.3-.08-.76-1.07-1.22-1.22-.23-.08-.53-.3-.53-.08.08.15-.23.3-.53 1.14a17 17 0 0 1-3.66 5.25c-.53.3-.76.68-1.14.99a5.3 5.3 0 0 1-3.27 1.52c-.99.23-1.9.07-2.82-.54-.3.08-.53-.08-.68-.15-.99-.91-1.83-1.68-1.98-2.74-.15-.84-.07-2.51-.07-3.42l-.08-.15c-.23-.08-.38 0-.38.15-.76.99-1.98 2.81-2.97 3.65-.38.38-.91.91-1.22 1.29-.38.3-.69.53-1.14.76-1.29.53-2.06.91-3.65.38-.3-.15-.84-.3-1.07-.69-.61-.15-.84-.46-.99-.91-.15-.84 0-1.45.08-2.21.38-1.52.61-3.04 1.07-4.41.38-1.07.53-2.13.92-3.2.08-.38.23-.84.15-1.14.23-.68.76-.99 1.45-.99 1.37-.3 1.14.31 1.52 1.3.08.08-.23.46-.15.68-.31.84-.08 1.67-.53 2.36-.53 1.6-1.14 3.12-1.6 4.64-.08.46-.23 1.6-.46 2.13.15 1.22.61 1.29 1.6.76 1.37-.91 2.51-2.28 3.96-4.26.3-.3.76-.61.91-.91 1.07-1.6 1.68-2.59 2.9-4.18.38-.38.46-.76.76-1.06.38-.76.38-.68 1.52-.46.3.15.15.38.38.53.23.08.53.31.46.61-.31 1.14-.31 1.67-.46 2.82-.15.68-.08 1.45-.15 2.13-.46 1.52-.08 2.66.15 3.96 0 .3.76.84 1.06.99 1.29 1.37 4.11-1.44 4.8-2.66.53-.38.76-.91 1.14-1.44 1.6-2.05 1.52-2.21 2.44-4.56.69-.99.61-1.45.31-2.59-.15-.84-.07-1.37-.15-2.21q-.23-.91.91-1.14c.46-.08.3.08.53.15.61.76.99.69 1.44 1.3 0 .76-.08 1.37-.08 1.98 0 .84.15 3.2.83 3.35.38.69.91 1.14 1.44 1.68.91.31 1.83.53 2.82.31 1.83-.15 2.28-.07 3.88-.91 1.67-.53 1.83-.61 3.66-1.9.23-.23.3-.38.46-.46.3-.08.61-.08.84 0 .08.08.3.38.08.46.08.61-.08.68-.46.91-.91.53-.84.99-1.75 1.44-.61.38-1.22.84-1.98.99-1.29.46-1.22.53-2.44.83-.61 0-1.37.38-2.21.3Z"/>
  <path d="M141.15 70.28a5 5 0 0 1-2.21-1.75 9 9 0 0 1-1.44-2.97c0-.23-.15-.23-.23-.23l-1.3 1.29c-1.52 1.22-2.97 2.51-4.49 3.5a10 10 0 0 1-3.05 1.37c-.61.23-1.22.3-1.9.3-.91.08-1.6-.38-1.98-1.37l-.61-1.14c-.3-.61-.3-1.37-.07-1.98.23-.76.76-1.52 1.07-2.21l.84-1.07a25 25 0 0 1 4.72-4.26l1.29-.76a5 5 0 0 1 2.28-.61c.38 0 .76.08.99.38a4 4 0 0 1 1.29 2.21c0 .15-.08.3-.15.46-.15.08-.23.15-.3 0l-.53-.46c-.15-.15-.38-.38-.69-.15-.76.15-1.67.3-2.44.76a10 10 0 0 0-2.51 1.82c-.15.08-.3.15-.53.46a12 12 0 0 0-2.82 3.35 3.7 3.7 0 0 0-.84 1.75c-.08.15.08.3.15.3.3.08.69.08.84.08.68-.15 1.52-.23 2.13-.61a13 13 0 0 0 3.96-2.58l1.83-1.52c.3-.15.53-.38.76-.53.76-.91 1.6-1.67 2.36-2.74.23-.3.61-.38.91-.23.38.23.99.46 1.22.84.08.38.15.61.07.99a17 17 0 0 0-.15 2.05c0 .84.15 1.6.53 2.36.15.23.46.23.68.38 1.45.91 2.97.76 4.49.16.84-.3 1.37-.38 2.13-.84 1.29-.99 2.06-1.22 3.2-2.51.3-.3 1.37-1.6 1.6-1.98l.23-.15c0-.08.69-.08.69 0l.3.46c.3.69-.84 2.13-1.22 2.66-2.13 3.04-5.71 4.87-8.53 4.94-.15 0-1.14.15-1.37 0-.53 0-.84-.08-1.22-.23Z"/>
  <path d="M164.23 60.25c-.08-.08-.23 0-.53-.08a2.5 2.5 0 0 0-1.29.08c-.46.15-1.07.53-1.6.84-.91.53-1.6 1.37-2.44 2.05-.69.46-1.3 1.14-2.44 2.59-.31.61-.84 1.29-1.22 1.9-.08.23-.15.38-.38.53-.61.99-.84 2.05-1.22 3.2 0 .15-.08.38-.08.61-.15.38-.76.61-1.07.46a4 4 0 0 1-1.45-.76c-.38-.23-.38-.46-.23-.84.23-.53.38-1.07.69-1.6.31-.61.53-1.37.69-2.13.53-1.83.84-3.73 1.3-5.55.15-.53.15-1.07.23-1.52q.33-1.24.31-2.36c0-.3.15-.53.46-.61.3-.08.53-.08.76.08.38.15.76.38 1.06.61.38.23.61.46.46.84-.08 1.07-.31 2.13-.46 3.2-.08 0 0 .08 0 .15 0 0 .08.08.08 0 .61-.46.84-.61 1.22-1.06.91-.99 2.51-1.52 3.81-1.9.61-.3 1.29-.3 1.98-.15.61.15 1.22.31 1.67.84.08.08.08.23.15.38.08.08-.15.23-.3.23h-.15Z"/>
  <path d="M178.67 77.54c.23-.61-.3-1.67 0-2.05-.08-.46 0-.99-.07-1.52.08-.23-.08-.46.08-.68 0-.08.08-.15.08-.23-.23-.53.08-1.22.08-1.75.15-.61.31-1.14.38-1.75.08-.84.84-3.96 1.07-5.78a5 5 0 0 0-.61 1.14c-.3.23-.99 1.37-1.37 1.6-1.14 1.37-2.44 2.43-3.73 3.73-.91.99-1.83 1.67-2.74 2.43l-.38.3a7 7 0 0 1-4.95 1.36c-.91-.15-1.45-.38-1.83-1.14a2 2 0 0 1-.84-1.45c-.08-.15-.08-.3-.08-.38l.15-1.75c0-.15 0-.3.15-.46q.33-.36.31-1.07c0-.08.15-.15.23-.38.31-.53.53-1.29.69-1.83.46-.68.76-1.29 1.3-1.9.38-.61.99-1.22 1.3-1.75.23-.15.46-.53.69-.91l.15-.08c.69-.68 1.37-1.52 2.13-1.9.38-.23.69-.3.99-.38.08-.15.15-.15.38-.15h.99c.53 0 1.22.38 1.67.61a4 4 0 0 1 1.44 2.36l.38.91c.23.15-.23.53-.53.61-.15.08-.3.15-.61.15s-.69-.08-.84-.23c-.15-.46-.3-.53-.3-.84-.15-.46-.38-1.14-.84-1.52-.08-.3.15-.23-.08-.38-.38-.3-1.07.08-1.29.3l-.91.91c-1.07 1.45-2.29 2.89-3.28 4.41a21 21 0 0 0-1.37 3.88c0 .38-.15.76-.15 1.29-.15.46.15.99.3 1.37.23.3.38.08.68.08.08.08.15 0 .23 0 .91-.15 1.22-.61 1.98-.99a31 31 0 0 0 4.49-3.88c.53-.46.91-1.14 1.52-1.75.53-.3.99-.99 1.52-1.67.23-.3.53-.53.84-.84.23-.38.99-1.14 1.14-1.75.15-.23.46-.3.53-.61.31-.46.46-.91.76-1.29.31-.53.53-1.06.69-1.75.38-1.83.92-3.65 1.53-5.55l.46-1.52c.15-.61.46-1.45.76-2.21 0-.15.08-.3.15-.46a17 17 0 0 1 1.83-5.02c.46-1.07.92-2.05 1.22-3.12a1 1 0 0 0 .23-.53 4.5 4.5 0 0 0 .91-1.83 63 63 0 0 1 2.59-4.18c.23-.38.53-.61.91-.84 0-.08.08-.08.15-.08.76.08 1.45.08 2.21.31.15.08.61.15.68.23.91.69 1.22 1.52 1.06 2.51a16 16 0 0 1-1.07 4.49q-.1.22-.08.46c-.38 1.14-.92 2.13-1.37 3.12s-1.07 1.9-1.52 2.81a32 32 0 0 1-1.83 3.27 43 43 0 0 1-3.43 5.55c-.69 1.14-1.6 2.28-2.52 3.58-.3.61-.76 1.07-.76 1.67l-.76 3.42c-.69 2.51-1.15 6.39-1.46 10.73-.08.23.08.46.08.61.07 1.14.23 1.67.3 2.28.08.46.08.91.46 1.37.46.84.3.91 1.22 1.37.61.15.3-.08.76.15.38.15 0 .76-.31.99-.53.08-.08 0-.38.08a2.7 2.7 0 0 1-2.66-.69c-.38-.46-.99-.91-1.14-1.29q.23-.23 0-.23c-.3-.46-.38-.76-.38-1.14 0-.08-.15-.23-.15-.38-.08-.15-.23-.3-.23-.61Zm7.86-25.8q.33-.59.76-1.06c.15-.46.23-.84.46-1.22.53-.91.76-1.37 1.22-1.83.15-.15.15-.46.15-.53.99-1.9 1.91-3.88 2.9-6.09.31-1.29.61-2.66 1.07-4.03.08-.53.08-.91-.07-1.29 0-.08-.08-.08-.08-.08h-.23c-.15.08-.38.46-.53.84-.61.91-1.14 2.05-1.68 2.97-1.45 2.74-2.67 5.02-3.66 7.91a3 3 0 0 0-.76 1.75c-.69 1.83-1.53 3.8-1.91 5.55-.23.15-.23.53-.15.76 0 0 .15 0 .15-.08.76-1.29 1.52-2.36 2.36-3.58Z"/>
  <path d="M201.44 60.74c-.3 0-.91-.38-1.45-.38-1.83 0-6.62 2.05-6.62 2.96 0 .46 1.52.76 2.43.99 1.6.38 4.79 1.83 5.1 1.76 1.29-.3 3.04-.61 4.57-.91 1.14-.23 4.19-.99 4.72-.99.38 0 2.51-.38 2.82-.38.76 0 .99.61.99.76 0 .68-3.5 1.14-4.19 1.29l-4.34.99c-1.14.3-3.27.83-3.27 1.21 0 .46.53.99.53 1.52 0 1.37-1.45 7.15-12.72 8.67-1.22.15-2.21-.54-2.74-1.68l-.23-1.14c0-2.66 6.25-5.47 6.7-5.93.91-.53 4.72-2.2 4.34-2.13-.91-.31-1.9-.69-2.82-.92l-1.45-.38c-1.98-.53-2.81-1.37-2.81-3.2 0-2.66 6.63-5.09 9.29-5.09.68 0 1.6.99 1.6 1.9 0 .15-.08.23-.08.38 0 .23-.08.68-.38.68Zm-5.41 13.62 2.21-1.29a6.3 6.3 0 0 0 2.59-3.58c0-.3-.3-.91-.53-.91-1.6.3-2.97 1.29-5.1 2.58l-2.06 1.14c-1.37.91-3.27 1.98-4.19 3.65l.08.15q.43.14.76.15c-.08 0 4.03-.61 6.24-1.9Z"/>
</svg>