<svg xmlns="http://www.w3.org/2000/svg" xmlns:xlink="http://www.w3.org/1999/xlink" viewBox="0 0 500 2570">
  <image width="500" height="2570" href="all_steps.svg"/>
  <path id="ball_path" fill="none" d="M471.96 2384.79c-1.6-54.24-24.94-103.23-67.73-142.01-39.02-35.36-93.66-61.48-153.83-73.54-60.35-12.09-115.15-38.3-154.3-73.78-44.58-40.4-68.15-91.84-68.15-148.75 0-59.44 23.15-115.33 65.18-157.36 40.62-40.62 94.17-63.6 151.36-65.1l6.03.25c58.99-.26 114.39-23.43 156.01-65.24 41.62-41.8 64.53-97.31 64.53-156.3 0-56.62-23.45-107.8-67.82-148.01-39.02-35.36-93.66-61.48-153.83-73.54-60.35-12.09-115.15-38.3-154.3-73.78-44.58-40.4-68.15-91.84-68.15-148.75 0-59.45 23.15-115.34 65.18-157.37s97.92-65.18 157.36-65.18h2.92c58.68-.8 113.62-24.22 154.78-65.94s63.82-96.98 63.82-155.58c0-56.62-23.45-107.8-67.82-148.01-39.02-35.36-93.66-61.48-153.83-73.54-60.35-12.09-115.15-38.3-154.3-73.78-43.01-38.98-66.46-88.23-68.06-142.75v-16.58"/>
  <linearGradient id="line_grd" x2="0" y2="1">
    <stop offset="0" stop-color="#0086b8"/>
    <stop offset="1" stop-color="#0069a7"/>
  </linearGradient>
  <circle id="ball" cx="27" cy="160" r="20" fill="url(#line_grd)"/>
  <script>
  <![CDATA[
  console.log(document.querySelector("#ball_path").getTotalLength());
  ]]>
  </script>
</svg>
