<?xml version="1.0" encoding="utf-8"?>
<!-- Generator: Adobe Illustrator 24.0.3, SVG Export Plug-In . SVG Version: 6.00 Build 0)  -->
<svg version="1.1" id="Layer_1" xmlns="http://www.w3.org/2000/svg" xmlns:xlink="http://www.w3.org/1999/xlink" x="0px" y="0px"
	 viewBox="0 0 500 2570" enable-background="new 0 0 500 2570" xml:space="preserve">
<title>all_steps</title>
<circle opacity="0.1" fill="#666666" enable-background="new    " cx="251.5" cy="1511.5" r="169.5"/>
<circle opacity="0.1" fill="#666666" enable-background="new    " cx="261.5" cy="1512.5" r="169.5"/>
<rect x="128.96" y="1427.23" fill="#FFFFFF" width="211.76" height="106.24"/>
<rect x="158.67" y="1465.41" opacity="0.3" fill="#2E6AA0" enable-background="new    " width="156.3" height="0.36"/>
<rect x="158.85" y="1474.41" opacity="0.3" fill="#2E6AA0" enable-background="new    " width="156.3" height="0.36"/>
<rect x="158.85" y="1492.42" opacity="0.3" fill="#2E6AA0" enable-background="new    " width="156.3" height="0.36"/>
<rect x="158.85" y="1500.34" opacity="0.3" fill="#2E6AA0" enable-background="new    " width="156.3" height="0.36"/>
<rect x="158.85" y="1483.41" opacity="0.3" fill="#2E6AA0" enable-background="new    " width="156.3" height="0.36"/>
<ellipse fill="#3D4543" cx="284.52" cy="1630.11" rx="72.48" ry="6.62"/>
<polygon fill="#2E6AA0" points="163.18,1500.6 162.69,1500.08 185.95,1477.9 206.46,1492.66 223.04,1474.27 230.32,1480.45 
	250.1,1468.58 272.07,1483.35 306.56,1463.73 306.91,1464.36 272.04,1484.2 250.08,1469.43 230.24,1481.33 223.11,1475.27 
	206.56,1493.62 186.01,1478.84 "/>
<path fill="#3D4543" d="M218.3,1616.8c1.83,6.77,8.11,10.96,8.11,10.96s3.3-6.78,1.47-13.56s-8.1-10.96-8.1-10.96
	S216.46,1610.03,218.3,1616.8z"/>
<path fill="#2E6AA0" d="M220.99,1615.35c5.03,4.89,5.64,12.41,5.64,12.41s-7.54-0.41-12.56-5.3s-5.64-12.41-5.64-12.41
	S215.96,1610.45,220.99,1615.35z"/>
<circle opacity="0.4" fill="#2E6AA0" enable-background="new    " cx="330.09" cy="1583.35" r="4.5"/>
<circle opacity="0.4" fill="#2E6AA0" enable-background="new    " cx="243.4" cy="1604.98" r="3.7"/>
<circle opacity="0.4" fill="#2E6AA0" enable-background="new    " cx="241.86" cy="1561.38" r="4.5"/>
<circle fill="#2E6AA0" cx="306.32" cy="1465.59" r="4.68"/>
<path fill="#2F2E40" d="M275.9,1550.39l-3.97,0.44c-1.08,6.13-1.08,12.4,0,18.52c1.76,10.58,3.97,21.17,3.97,21.17
	s1.76,34.4,2.65,34.84s8.82,3.09,9.26,0.44s0.44-63.06,0.44-63.06l6.17,29.1c0,0,0.88,36.6,2.65,36.6s7.5-0.44,7.5-3.53
	s1.32-43.66,1.32-43.66s-0.44-29.99-2.2-30.87S275.9,1550.39,275.9,1550.39z"/>
<path fill="#2F2E40" d="M271.59,1623.67c0,0-4.29-0.48-5.25,0s-2.39,3.82,0,5.73s8.59,4.77,10.5,4.77c1.32-0.06,2.62-0.38,3.82-0.95
	l-0.95-8.11L271.59,1623.67z"/>
<path fill="#2F2E40" d="M290.68,1626.05l0.48,6.68c0,0,6.2,0.95,6.68,0s5.25-3.34,5.73-3.82s0.95-5.73-1.91-6.2
	s-3.82,0.95-3.82,0.95L290.68,1626.05z"/>
<path fill="#F3BAB9" d="M260.03,1513.34c0,0-10.58,10.14-9.26,15.43s11.91,20.73,11.91,20.73s10.14,5.29,11.47,0
	s-7.06-3.97-7.06-3.97l-6.62-15.88l7.5-10.58L260.03,1513.34z"/>
<path fill="#F3BAB9" d="M307.32,1497.91c0,0,9.64-6.2,9.42-10.46s-6.04-17.69-6.04-17.69s-4.55-9.45-6.35-5.59s2.38,7.98,2.38,7.98
	l2.7,13.17l-7.34,7L307.32,1497.91z"/>
<circle fill="#F3BAB9" cx="283.4" cy="1481.15" r="7.94"/>
<path fill="#F3BAB9" d="M279.43,1486l1.32,8.38l9.7-1.76c0,0-0.44-8.38-0.44-9.26S279.43,1486,279.43,1486z"/>
<path fill="#808080" d="M278.99,1494.38c0,0,11.02-2.65,12.35-1.76s7.94,1.76,7.94,1.76l7.5,11.46l-2.2,14.55
	c0,0-0.44,23.37,0.44,27.34s5.73,4.41-4.41,5.29s-11.91-0.44-18.96,1.32s-12.79-0.88-11.02-2.65s4.85-29.99,1.32-32.63
	s-4.85-16.32-4.85-16.32S278.99,1496.58,278.99,1494.38z"/>
<path fill="#808080" d="M297.95,1495.7l1.32-1.32l2.65-2.65c0,0,8.6,3.75,8.16,5.07s-3.31,9.04-3.31,9.04l-3.97,1.32L297.95,1495.7z
	"/>
<path fill="#808080" d="M272.37,1503.64l-5.29-0.88c0,0-3.97,4.41-5.29,6.17s-3.97,6.17-3.97,6.17l9.26,6.61l7.06-7.5
	L272.37,1503.64z"/>
<path fill="#AD6F6D" d="M286.17,1471.53l-0.08-0.64c-0.54,0-1.08,0.08-1.59,0.25c-0.05-0.38-0.02-0.77,0.1-1.14
	c-0.52,0.13-1.02,0.35-1.47,0.64l-0.32-1.16l-4.41,2.17c-1.58,0.78-3.25,1.64-4.15,3.15c-0.9,1.78-0.95,3.87-0.14,5.7
	c0.81,1.79,1.73,3.53,2.75,5.21c0.35,0.75,0.77,1.46,1.25,2.13c1.84,2.04,4.84,2.55,7.25,1.24c0.89-0.43,1.6-1.16,2.01-2.07
	c0.17-0.56,0.3-1.13,0.4-1.71c0.29-1.19,0.63-3.63,1.59-4.38c0.42-0.33,1.26,0.76,1.61,0.36c0.9-1.04,0.71-2.66,0.15-3.92
	c-0.54-1.27-1.17-2.49-1.88-3.67C288.3,1472.87,287.27,1472.14,286.17,1471.53z"/>
</svg>
