<?xml version="1.0" encoding="utf-8"?>
<!-- Generator: Adobe Illustrator 25.0.0, SVG Export Plug-In . SVG Version: 6.00 Build 0)  -->
<svg version="1.1" id="Layer_1" xmlns="http://www.w3.org/2000/svg" xmlns:xlink="http://www.w3.org/1999/xlink" x="0px" y="0px"
	 viewBox="0 0 500 2570" style="enable-background:new 0 0 500 2570;" xml:space="preserve">
<style type="text/css">
	.st0{opacity:0.1;fill:#666666;enable-background:new    ;}
	.st1{fill:#2E6AA0;}
	.st2{fill:#3D4543;}
	.st3{fill:#FFFFFF;}
	.st4{opacity:0.8;fill:#E6645F;enable-background:new    ;}
	.st5{opacity:0.8;fill:#F6D269;enable-background:new    ;}
	.st6{opacity:0.8;fill:#9ACC60;enable-background:new    ;}
	.st7{opacity:0.2;fill:#2E6AA0;enable-background:new    ;}
	.st8{fill:#DFE2ED;}
	.st9{fill:url(#SVGID_1_);}
	.st10{fill:#2F2E40;}
	.st11{opacity:5.000000e-02;enable-background:new    ;}
	.st12{fill:#808080;}
	.st13{opacity:0.1;enable-background:new    ;}
	.st14{fill:#A47179;}
	.st15{fill:#E3E7F2;}
	.st16{fill:#E5E7EB;}
	.st17{fill:#434052;}
	.st18{fill:#565482;}
	.st19{opacity:0.1;}
</style>
<circle class="st0" cx="251.5" cy="1945.5" r="169.5"/>
<circle class="st0" cx="261.5" cy="1945.5" r="169.5"/>
<path class="st1" d="M159.1,2028.9c0,0,3.6-2.3,7.1-0.7c0,0-1.1,2.1-5.6,1.9L159.1,2028.9z"/>
<path class="st1" d="M158.6,2029.1c0,0-1.1,4.1,1.6,6.9c0,0,1.6-1.7,0-5.9L158.6,2029.1z"/>
<path class="st1" d="M154.2,2025.1c0,0,0.3-3.5,8.2-2.3c-0.1,1.6-1.2,2.9-2.8,3.3C156.9,2027.2,155.6,2026.3,154.2,2025.1z"/>
<path class="st1" d="M153.7,2025.1c0,0-3.4,1.1-0.4,8.5c1.5-0.5,2.5-1.9,2.6-3.4C156.4,2027.2,155.2,2026.2,153.7,2025.1z"/>
<path class="st2" d="M149.2,2020.1c0,0-0.4-5.8,7.6-5.2c0,0,0.6,5.2-6.2,6.6L149.2,2020.1z"/>
<path class="st2" d="M143.9,2013.6c0,0,1.1-6.6,9.2-4.6c0,0,0,5.7-7.9,6.2L143.9,2013.6z"/>
<path class="st2" d="M140,2006.8c0,0,1.9-6.4,9.9-4.5c0,0-1.9,5.7-9.4,5.7L140,2006.8z"/>
<path class="st2" d="M136.2,2000.3c0,0,1.8-6.6,9.6-4.6c0,0-2.6,6.3-9.1,5.8L136.2,2000.3z"/>
<path class="st1" d="M149,2020.1c0,0-5.8-0.8-5.6,7.4c0,0,5.2,0.8,6.9-5.9L149,2020.1z"/>
<path class="st2" d="M143.6,2013.4c0,0-6.6,0-6.1,8.3c0,0,5.6,1,7.4-6.7L143.6,2013.4z"/>
<path class="st3" d="M376.7,1865.8v161.9c0,4.8-4.6,8.7-10.4,8.7H146.6c-5.7,0-10.4-3.9-10.4-8.7v-161.9c0-4.8,4.6-9.7,10.4-9.7
	l219.7,0.5C372,1856.6,376.7,1861,376.7,1865.8z"/>
<path class="st2" d="M376.7,1865.8v7.5H136.2v-7.5c0-5.4,4.4-9.8,9.8-9.8h220.9C372.3,1856.1,376.7,1860.4,376.7,1865.8
	L376.7,1865.8z"/>
<circle class="st4" cx="147.9" cy="1864.7" r="3.5"/>
<circle class="st5" cx="157.9" cy="1864.7" r="3.5"/>
<circle class="st6" cx="168" cy="1864.7" r="3.5"/>
<path class="st2" d="M185.5,1926.6h-22.1c-0.4,0-0.8,0.3-0.8,0.7s0.3,0.8,0.7,0.8c0,0,0,0,0,0c0,0,0.1,0,0.1,0h22.1
	c0.4,0,0.8-0.3,0.8-0.7C186.3,1926.9,186,1926.6,185.5,1926.6C185.6,1926.6,185.6,1926.6,185.5,1926.6z M185.5,1929.1h-22.1
	c-0.4,0-0.7,0.3-0.7,0.7s0.3,0.7,0.7,0.7h22.1c0.4,0,0.7-0.3,0.7-0.7S185.9,1929.1,185.5,1929.1z M184.4,1912h-19.9
	c-1,0-1.9,0.8-1.9,1.8v9.4c0,1,0.8,1.8,1.9,1.8h19.9c1,0,1.9-0.8,1.9-1.8v-9.4C186.3,1912.9,185.4,1912,184.4,1912L184.4,1912z
	 M167,1923.4h-1.9c-0.4,0-0.7-0.3-0.7-0.7s0.3-0.7,0.7-0.7h1.9c0.4,0,0.7,0.3,0.7,0.7S167.4,1923.4,167,1923.4z M167,1915.2h-1.9
	c-0.4,0-0.7-0.3-0.7-0.7s0.3-0.7,0.7-0.7h1.9c0.4,0,0.7,0.3,0.7,0.7S167.4,1915.2,167,1915.2z M174.5,1922.8c2.3,0,4.2-1.9,4.2-4.2
	c0-2.3-1.9-4.2-4.2-4.2c-2.3,0-4.2,1.9-4.2,4.2C170.2,1920.9,172.1,1922.8,174.5,1922.8L174.5,1922.8z M183.9,1923.4H182
	c-0.4,0-0.7-0.3-0.7-0.7s0.3-0.7,0.7-0.7h1.9c0.4,0,0.7,0.3,0.7,0.7S184.3,1923.4,183.9,1923.4z M183.9,1915.2H182
	c-0.4,0-0.7-0.3-0.7-0.7s0.3-0.7,0.7-0.7h1.9c0.4,0,0.7,0.3,0.7,0.7S184.3,1915.2,183.9,1915.2z"/>
<circle class="st2" cx="174.4" cy="1918.7" r="2.8"/>
<rect x="216.8" y="1893.4" class="st7" width="100.6" height="55.8"/>
<rect x="216.8" y="1961.7" class="st7" width="100.6" height="55.8"/>
<rect x="236.6" y="1932.3" class="st3" width="3" height="10.2"/>
<rect x="242.4" y="1919.6" class="st3" width="3" height="22.8"/>
<rect x="248.2" y="1908.3" class="st8" width="3" height="34.2"/>
<rect x="254" y="1900.1" class="st3" width="3" height="42.3"/>
<rect x="248.2" y="1900.1" class="st1" width="3" height="42.3"/>
<rect x="259.8" y="1919.2" class="st1" width="3" height="23.3"/>
<rect x="265.6" y="1913.2" class="st7" width="3" height="29.3"/>
<rect x="271.4" y="1904.1" class="st1" width="3" height="38.4"/>
<rect x="277.2" y="1925.4" class="st7" width="3" height="17.1"/>
<rect x="283" y="1917.5" class="st1" width="3" height="25"/>
<rect x="288.8" y="1908.3" class="st7" width="3" height="34.2"/>
<rect x="294.6" y="1908.3" class="st1" width="3" height="34.2"/>
<path class="st2" d="M186.3,1982.9c0-0.9-0.8-1.7-1.7-1.7h-20.2c-0.9,0-1.7,0.8-1.7,1.7v2.5h23.6L186.3,1982.9L186.3,1982.9z
	 M162.6,1996.4c0,0.9,0.8,1.7,1.7,1.7h20.2c0.9,0,1.7-0.8,1.7-1.7v-8.4h-23.6L162.6,1996.4z M170.1,1993.9h8.6
	c0.4,0,0.8,0.3,0.8,0.7c0,0.4-0.3,0.8-0.7,0.8c0,0,0,0,0,0c0,0-0.1,0-0.1,0h-8.6c-0.4,0-0.7-0.4-0.7-0.8
	C169.5,1994.2,169.8,1993.9,170.1,1993.9z M166.3,1993.9h0.6c0.4,0,0.8,0.3,0.8,0.7c0,0.4-0.3,0.8-0.7,0.8c0,0,0,0,0,0
	c0,0-0.1,0-0.1,0h-0.6c-0.4,0-0.8-0.3-0.8-0.7C165.5,1994.2,165.8,1993.9,166.3,1993.9C166.3,1993.9,166.3,1993.9,166.3,1993.9
	L166.3,1993.9z"/>
<rect x="236.6" y="2000.6" class="st3" width="3" height="10.2"/>
<rect x="242.4" y="1988" class="st3" width="3" height="22.8"/>
<rect x="248.2" y="1976.6" class="st8" width="3" height="34.2"/>
<rect x="254" y="1968.5" class="st3" width="3" height="42.3"/>
<rect x="248.2" y="1968.5" class="st1" width="3" height="42.3"/>
<rect x="259.8" y="1987.5" class="st1" width="3" height="23.3"/>
<rect x="265.6" y="1981.5" class="st3" width="3" height="29.3"/>
<rect x="271.4" y="1972.4" class="st3" width="3" height="38.4"/>
<rect x="277.2" y="1993.7" class="st7" width="3" height="17.1"/>
<rect x="283" y="1985.8" class="st7" width="3" height="25"/>
<rect x="288.8" y="1976.6" class="st7" width="3" height="34.2"/>
<rect x="294.6" y="1976.6" class="st7" width="3" height="34.2"/>
<linearGradient id="SVGID_1_" gradientUnits="userSpaceOnUse" x1="402.156" y1="474.7538" x2="402.156" y2="531.3206" gradientTransform="matrix(1 0 0 -1 -54.62 2517.54)">
	<stop  offset="0" style="stop-color:#808080;stop-opacity:0.25"/>
	<stop  offset="0.54" style="stop-color:#808080;stop-opacity:0.12"/>
	<stop  offset="1" style="stop-color:#808080;stop-opacity:0.1"/>
</linearGradient>
<path class="st9" d="M371.3,2033.1l-5.8-8.5c0,0-0.1-2.1-0.5-2.6s-0.1-1.6-0.1-1.6s0.4-0.6,0.1-0.7s-0.1-1.4-0.1-1.4l0-2.1
	c0,0,0.3-2,0.1-2.5c-0.2-0.3-0.2-0.6,0-0.9c0,0,0.3-1.2,0-1.5c-0.3-0.3-0.2-2.1-0.2-3.6c0.1-1.4-0.6-2.3-0.6-2.5
	c0-0.2-2.2-2.3-2.2-2.5c0-0.2-1.4-1-2.2-1.2c-0.8-0.2-1.2-0.4-1.2-0.5c0-0.1-1.3-0.5-1.3-0.5s-1.1-0.1-1.6-0.7s-1.8-0.7-1.8-0.7
	c0,0,0-0.1,0-0.1l0-0.1c0.1-0.2,0.2-0.4,0.3-0.5l0.1-0.2c0.5,0,0.9-0.1,1.3-0.4c0.4-0.3,0.6-0.8,0.7-1.3c0-0.5-0.1-1-0.3-1.5
	c-0.2-0.5-0.6-1-0.5-1.5c0.1-0.2,0.2-0.4,0.3-0.7c0.1-0.4,0-0.9-0.2-1.3c-0.2-0.4-0.5-0.7-0.7-1.1c-0.3-0.5-0.5-1-0.6-1.6
	c0-0.3-0.1-0.6-0.2-0.9c-0.1-0.2-0.3-0.4-0.5-0.5c-0.9-0.6-1.9-0.9-2.9-0.9c-0.7,0-1.5,0.2-2.2,0.1c-0.4-0.1-0.9-0.2-1.3-0.3
	c-0.9-0.3-2-0.4-2.8,0.1c-0.8,0.5-1.1,1.6-1.7,2.4c-0.5,0.7-1.2,1.3-1.5,2.1c0,0,0,0,0,0c-0.1,0.2-0.2,0.4-0.2,0.6
	c-0.1,0.6-0.1,1.2,0.1,1.8c0,0.3,0.2,0.6,0.4,0.8c0.3,0.2,0.6,0.1,1,0.2c0,0.1,0,0.1,0,0.2c-0.7,3.2,1.2,6.4,4.3,7.3
	c0,0.1,0,0.1,0,0.2c0,0.2,0,0.3,0,0.5l0,0c0,0-2.7-0.6-3.5-0.2s-2.2,0.7-2.4,0.9c-0.2,0.2-0.8,0.1-1.3,1.3s-0.5,2.6-1.2,3.2
	c-0.6,0.6-1,1-1,1.4c0,0.4,0.1,0.5-0.2,0.7c-0.2,0.1-0.6,0.7-0.5,0.9c0.1,0.3,0,0.6-0.3,0.8c-0.3,0.2-0.4,0.5-0.4,0.8
	c0,0-0.2,0.6-0.5,0.7c-0.4,0.1-0.6,1-0.6,1l-1.2,1.4l-2.5-2.7c-0.4-0.4-1-0.5-1.5-0.1l-1.2,1.1c-0.5,0.1-0.9,0.4-1.2,0.7
	c-0.3,0.3-0.5,0.6-0.6,0.9l-0.7,0.6c-0.4,0.5-0.5,1.3-0.2,1.9l1.6,1.7v0c-0.5,0.1-1.1,0.3-1.5,0.6c-2.3,2.1-2.4,4-2,4.8
	c0.4,0.9,3.3,4.2,3.3,4.2s1.7,2.2,4.2,3.4l0,0l0,0c0,0.1-0.1,0.1-0.1,0.2l0,0.1c0,0,0,0,0,0.1l0,0.1l0,0.1l0,0.1l0,0.1l-0.1,0.1
	c0,0,0,0,0,0c0,0,0,0.1-0.1,0.1c0,0,0,0,0,0.1c0,0,0,0.1,0,0.1l0,0.1c0,0,0,0.1,0,0.1l0,0.1l0,0.1c0,0,0,0,0,0.1c0,0,0,0.1,0,0.2
	c0,0,0,0.1,0,0.1l0,0.1c0,0,0,0.1,0,0.1l0,0.1c0,0,0,0.1,0,0.1s0,0.1,0,0.2v0.1c0,0.1,0,0.2,0,0.3c-0.1,3.2,0.1,3.7,0.1,3.7
	c0.2,0.6,0.8,1,1.4,1.1c0.2,0,0.3,0,0.5,0c1.4-0.2,4.7-0.8,5.9-0.6c0.7,0.1,2-0.1,2.9-0.2l0.2,0l0.2,0.5l0.5-0.1l0.5,0.3
	c0.1,0.1,0.2,0.1,0.3,0.2c0.5,1.8,2.7,1.2,2.7,1.2l0.5,0.3l5.3,0.1c0.6,0.4,1.2,0.7,1.9,0.9c0.1,0,0.2,0,0.3,0.1c0.5,0,1,0,1.5,0
	c0.4,0,0.7,0,0.7,0s-0.1-1.4-0.1-3c1.6,0,3.3-0.2,4.9-0.4c2.8-0.5,4-3.1,4.4-4.4c0.1,0.6,0.2,1.1,0.3,1.7c0.1,0.5,0.3,1,0.4,1.5
	c0.2,0.4,0.4,0.8,0.6,1.1c2.1-0.7,0.8-1.8,0.4-2.2c-0.4-0.5,0.3-0.8,0.3-0.8s0.6-0.4,0.5-0.7s-0.1-0.7,1.8-0.7
	C371.4,2034.7,371.3,2033.1,371.3,2033.1z M342.5,2015.7c0,0.2,0.3,1.8,0.5,2.3c0.1,0.3,0.1,0.6,0.1,0.9c-1.1-0.1-2.2-0.1-2.2-0.1
	c0,0,0.1,0.1,0.1,0.1l-0.2,0l-0.3-0.1L342.5,2015.7L342.5,2015.7z M338.4,2022.1l1.9,0.3l0.2,0c-0.1,0.3-0.1,0.6-0.1,0.9
	c0,0,0,0.1,0.1,0.1c0,0.1,0,0.3,0,0.4c0,0.1,0.9,0.5,1.9,0.7c0,0.1,0,0.1,0,0.2l0,0c-0.9-0.5-2.3-0.7-2.5-1c-0.2-0.4-5-2-5-2
	s-0.2-0.1-0.5-0.2l1.3,0.2l0.3,0C336.8,2021.9,337.6,2022,338.4,2022.1L338.4,2022.1z"/>
<path class="st10" d="M365.1,2034.3c0,0-0.8,4.6-4.6,5.3c-3.8,0.7-16.7,0.5-16.7,0.5s-7.3-1.1-10-7.3c-2.7-6.2-4.4-8.7-2.1-8.8
	c2.3-0.1,14.5,4.1,15.2,4.2C347.7,2028.3,365.8,2018.8,365.1,2034.3z"/>
<path class="st11" d="M365.1,2034.3c0,0-0.8,4.6-4.6,5.3c-3.8,0.7-16.7,0.5-16.7,0.5s-7.3-1.1-10-7.3c-2.7-6.2-4.4-8.7-2.1-8.8
	c2.3-0.1,14.5,4.1,15.2,4.2C347.7,2028.3,365.8,2018.8,365.1,2034.3z"/>
<path class="st12" d="M330.7,2039.4c0.2,0.6,0.8,1,1.4,1.1c0.2,0,0.3,0,0.5,0c1.4-0.2,4.7-0.8,5.9-0.6c0.7,0.1,2-0.1,2.9-0.2
	c0.6-0.1,1.1-0.2,1.1-0.2s-1.1-3.6-1.2-3.7c-0.1-0.1-4.9-2.9-4.9-2.9l-3.7-0.3l0,0c-0.5,0.1-1,0.3-1.3,0.7c-0.4,0.5-0.7,1.3-0.8,2.6
	C330.5,2038.9,330.7,2039.4,330.7,2039.4z"/>
<path class="st11" d="M330.7,2039.4c0.2,0.6,0.8,1,1.4,1.1c-0.4-0.5-0.7-1-1-1.5l0-2.6c-0.2-1.5,0.4-2.9,1.5-3.9l0,0
	c0,0-2,0.1-2,3.3C330.5,2038.9,330.7,2039.4,330.7,2039.4z"/>
<path class="st13" d="M346.9,2033.6l3.5-2.7l5.5-5.4c0,0-0.6,0-1.5-0.1c-0.2,0.1-0.8,0.6-0.9,1.1c0,0.7-1.5,0-2.2,0.4
	c-0.8,0.4-4.5,5.1-5.1,5.1s-1.2-0.3-1.4,0.1l0,0L346.9,2033.6z"/>
<path class="st13" d="M331.3,2033.2l0.4,0.2c2.7,1.1,5.9,3.5,6.2,4c0.1,0.3,2,1.4,3.5,2.3c0.6-0.1,1.1-0.2,1.1-0.2s-1.1-3.6-1.2-3.7
	c-0.1-0.1-4.9-2.9-4.9-2.9l-3.7-0.3l0,0C332.1,2032.5,331.6,2032.8,331.3,2033.2z"/>
<path class="st10" d="M323.9,2025.4c0.4,0.9,3.3,4.2,3.3,4.2s1.9,2.4,4.5,3.6s5.9,3.5,6.2,4c0.2,0.3,2.3,1.6,3.7,2.4l0.3,0.2
	l0.7,0.4l0.4,0.2l1.8-1.5c0.9-0.7,1.8-1.5,1.8-1.5c0-0.1,0.4-1,0.3-1.1c0,0-0.2-0.4-0.6-0.8c-0.4-0.5-0.8-0.9-1.4-1.1
	c-0.8-0.4-1.4-1.1-1.8-1.9c0,0-0.1-0.1-0.3-0.2c-0.4-0.3-0.8-0.4-1.2-0.5c-0.6-0.1-1.7-1.3-1.7-1.3c-0.4-0.3-0.8-0.7-1.1-1.1
	c-0.3-0.6-4.5-3.5-4.9-3.7l10.2,6.5l2.4,1.6l3.5-2.7l5.5-5.4c0,0-0.7,0-1.8-0.1c-2.7-0.1-7.4-0.3-8-0.2c-0.5,0.1-1,0.1-1.5,0.1
	c0,0-1.3,0.1-2.2-0.4s-2.3-0.7-2.5-1c-0.2-0.4-5-2-5-2s-6.5-3.5-8.9-1.4C323.6,2022.7,323.6,2024.6,323.9,2025.4z"/>
<path class="st14" d="M345,2005.6l0.8,2.8l1.1,6.3l4,0.3l1.2-1.9l1.1-1.9c0,0,0.7-2.5,1.2-5c0.5-2.2,0.8-4.3,0.3-4.5
	c-0.4-0.2-0.7-0.9-0.9-1.7c0-0.1,0-0.2-0.1-0.3c-0.1-0.7-0.2-1.3-0.3-2c0,0-8.3-0.4-7.2,3c0.2,0.6,0.3,1.2,0.3,1.8
	c0,0.2,0,0.3,0,0.5C346.4,2003.9,345.8,2004.9,345,2005.6z"/>
<path class="st15" d="M343.2,2005.1l0.3,4.7l0.7,4l0.8,1.9l0.7,10.2c0,0,6.5,0.8,8.1,0c0.1,0,0.2-0.1,0.3-0.2
	c1.9-2.9,1.3-11.3,1.3-11.3l0.7-5.4l-0.5-2.8l-1.2-0.1l-0.9-0.1c0,0-0.2,0.3-0.5,0.6c-0.8,1.1-2.3,3.1-2.2,4
	c0.1,1.2-0.2,2.4-0.6,2.6c-0.5,0.2-0.8,0.5-0.9,0.2c-0.1-0.3-0.1-0.6-0.1-0.9c0.1-0.5-0.4-1.9-0.4-1.9s-0.7-1.6-0.7-2.4
	c0.1-0.7-0.1-1.5-0.3-1.7c-0.2-0.2-0.5-0.4-0.3-1.2c0.2-0.9-1.1-2.6-1.1-2.6L343.2,2005.1z"/>
<path class="st13" d="M351.9,2016.9l0.3,8.1l1.6,0.9c0.1,0,0.2-0.1,0.3-0.2c1.9-2.9,1.3-11.3,1.3-11.3l0.7-5.4l-0.5-2.8l-1.2-0.1
	c0.5-2.2,0.8-4.3,0.3-4.5c-0.4-0.2-0.7-0.9-0.9-1.7l0,0l-0.8,5.7c0,0,0.1,0.5,0.1,1c0,0.3,0,0.7-0.1,1c-0.2,0.5-0.1,1.4-0.1,1.4
	c-0.5,0.9-0.7,2.5-0.9,4C351.8,2015,351.9,2016.9,351.9,2016.9z"/>
<path class="st12" d="M353.7,1999.7c0,0,1.4,0.2,1.8,0.7s1.6,0.7,1.6,0.7s1.3,0.4,1.3,0.5c0,0.1,0.4,0.3,1.2,0.5
	c0.8,0.2,2.2,1,2.2,1.2c0,0.2,2.1,2.3,2.1,2.5c0,0.2,0.7,1,0.6,2.5c-0.1,1.4-0.2,3.2,0.2,3.5c0.3,0.3,0,1.5,0,1.5
	c-0.2,0.3-0.2,0.6,0,0.9c0.3,0.5-0.1,2.5-0.1,2.5l0,2.1c0,0-0.3,1.3,0.1,1.4c0.4,0-0.1,0.7-0.1,0.7s-0.3,1.1,0.1,1.6
	c0.4,0.5,0.5,2.6,0.5,2.6l5.8,8.4c0,0,0.1,1.5-1.8,1.5c-1.8,0-1.8,0.4-1.8,0.7c0.1,0.4-0.5,0.7-0.5,0.7s-0.7,0.4-0.3,0.8
	c0.4,0.5,1.7,1.5-0.4,2.2c-0.2-0.3-0.4-0.7-0.6-1.1c-0.2-0.5-0.3-1-0.4-1.5c0,0-0.2-2.1-0.6-2.3s-0.3-1.6-0.3-1.6s0.5-1.1-0.2-1.5
	c-0.8-0.4-11.7-6.5-11.7-6.5l-0.3-8.1c0,0-0.2-6,0.9-8c0,0-0.1-0.9,0.1-1.4c0.2-0.5,0-2.1,0-2.1L353.7,1999.7z"/>
<path class="st13" d="M346.6,2002.9c0,0-2.7-0.6-3.5-0.2c-0.7,0.4-2.2,0.7-2.4,0.9c-0.2,0.2-0.8,0.1-1.2,1.3
	c-0.5,1.3-0.5,2.6-1.2,3.2c-0.6,0.6-0.9,1-1,1.4c0,0.4,0.1,0.5-0.2,0.7c-0.2,0.1-0.6,0.7-0.5,0.9c0.1,0.2,5.6,5,5.6,5
	s0.3,1.8,0.5,2.3c0.2,0.5-0.3,6.8-0.8,7.2c-0.5,0.4,3.7,0.4,3.7,0.4s0.2-4.2,0.4-4.4c0.2-0.2-0.1-4.7-0.1-4.7s0-3.8,0.3-4.8
	c0.4-1,0.3-4.3,0.3-4.3s0.3-2,0.7-2.5C347.7,2005,346.6,2002.9,346.6,2002.9z"/>
<path class="st12" d="M346.5,2002.9c0,0-2.7-0.6-3.5-0.2c-0.7,0.4-2.2,0.7-2.4,0.9c-0.2,0.2-0.8,0.1-1.2,1.3
	c-0.5,1.3-0.5,2.6-1.2,3.2c-0.6,0.6-0.9,1-1,1.4c0,0.4,0.1,0.5-0.2,0.7c-0.2,0.1-0.6,0.7-0.5,0.9s5.6,5,5.6,5s0.3,1.8,0.5,2.3
	c0.2,0.5-0.3,6.8-0.8,7.2c-0.5,0.4,3.6,0.4,3.6,0.4s0.2-4.2,0.4-4.4s-0.1-4.7-0.1-4.7s0-3.8,0.3-4.8c0.4-1,0.3-4.3,0.3-4.3
	s0.3-2,0.7-2.5C347.6,2004.9,346.5,2002.9,346.5,2002.9z"/>
<path class="st13" d="M346.2,2000.6c0.2,0.6,0.3,1.2,0.3,1.8c2.7,0.8,5.7-0.3,7.1-2.8c-0.1-0.7-0.2-1.3-0.3-2
	C353.4,1997.6,345.1,1997.1,346.2,2000.6z"/>
<path class="st14" d="M342.1,1996.3c0,3.4,2.8,6.2,6.2,6.2c3.4,0,6.2-2.8,6.2-6.2c0-3.4-2.8-6.2-6.2-6.2c-2.9,0-5.4,2.1-6,4.9
	C342.2,1995.4,342.1,1995.9,342.1,1996.3z"/>
<path class="st12" d="M338.1,2010.6l-1.5,0.5c0.1,0.3,0,0.6-0.3,0.8c-0.3,0.2-0.4,0.5-0.4,0.8c0,0-0.2,0.6-0.5,0.7
	c-0.4,0.1-0.6,1-0.6,1l-1.2,1.4c0,0-0.5,0.4-0.4,0.6c0.1,0.2-0.5,0.2-0.5,0.2l0.3,4.8l2.6,0.5l1.6-0.2l1.3-0.5l1.1-0.7l0.5-1.3
	l2.3-3.5L338.1,2010.6z"/>
<path class="st14" d="M333.1,2017.1c0,0-3.3-4.8-5.8-2.2s1,6.7,1.8,6.6c0.8-0.1,4.7-0.4,4.7-0.4L333.1,2017.1z"/>
<path class="st12" d="M326.2,2007.6l14.7,7.5c0.2,0.1,0.3,0.4,0.2,0.6l-5.7,11.2c-0.1,0.2-0.4,0.3-0.6,0.2l-14.7-7.5
	c-0.2-0.1-0.3-0.4-0.2-0.6l5.7-11.2C325.8,2007.6,326,2007.5,326.2,2007.6z"/>
<rect x="325.1" y="2010" transform="matrix(0.4546 -0.8907 0.8907 0.4546 -1616.505 1394.6051)" class="st1" width="10.9" height="14.5"/>
<circle class="st16" cx="323.6" cy="2013.7" r="0.2"/>
<circle class="st16" cx="337.6" cy="2020.9" r="0.4"/>
<path class="st14" d="M330.9,2018.1c0,3.6,7.4,4.3,7.4,4.3l1.9,0.3l0.8,0.1l0.4-3.5c0,0-0.4-0.1-0.9-0.2c-0.7-0.2-1.6-0.5-1.8-0.9
	C338.4,2017.7,331,2014.5,330.9,2018.1z"/>
<path class="st13" d="M342.3,1995c0.2,0,0.3,0.1,0.5,0.2c0.2,0.2,0.2,0.6,0.5,0.7c0.1,0,0.2,0.1,0.3,0c0.7-0.1,1.1-0.9,1.8-1.1
	c0.4-0.1,0.8-0.1,1.2,0.1c0.2,0.1,0.3,0.1,0.4,0.3c0.2,0.3,0.1,0.7,0.2,1.1c0.1,0.5,0.7,0.7,1.3,0.8c0.5,0.1,1.1,0.1,1.5,0.5
	c0.2,0.3,0.3,0.7,0.3,1c0,0.1,0,0.3,0,0.4c0.1,0.4,0.8,0.3,1,0c0.1-0.2,0.1-0.4,0.4-0.5c0.2,0,0.5,0,0.7,0.1
	c0.6,0.2,1.1,0.3,1.7,0.3c1.5-3.1,0.1-6.8-3-8.2c-3.1-1.5-6.8-0.1-8.2,3C342.5,1994.1,342.4,1994.6,342.3,1995L342.3,1995z"/>
<path class="st17" d="M350.1,1998.9c0-0.1,0-0.3,0-0.4c0.1-0.4,0-0.8-0.3-1c-0.3-0.4-0.9-0.4-1.5-0.5c-0.5-0.1-1.1-0.3-1.3-0.8
	c-0.1-0.4,0.1-0.8-0.2-1.1c-0.1-0.1-0.2-0.2-0.4-0.3c-0.4-0.2-0.8-0.2-1.2-0.1c-0.7,0.2-1.1,1-1.8,1.1c-0.1,0-0.2,0-0.3,0
	c-0.3-0.1-0.3-0.5-0.5-0.8c-0.3-0.3-1-0.1-1.4-0.4c-0.2-0.2-0.4-0.5-0.4-0.8c-0.2-0.6-0.2-1.2-0.1-1.8c0.2-1,1.1-1.7,1.7-2.6
	c0.5-0.8,0.8-1.8,1.6-2.3s1.8-0.4,2.7-0.1c0.4,0.1,0.8,0.3,1.3,0.3c0.7,0.1,1.5-0.1,2.2-0.1c1,0,2.1,0.3,2.9,0.9
	c0.2,0.1,0.4,0.3,0.5,0.5c0.1,0.3,0.2,0.6,0.2,0.9c0.1,0.6,0.3,1.1,0.6,1.6c0.2,0.4,0.5,0.7,0.7,1.1c0.2,0.4,0.3,0.8,0.2,1.3
	c-0.1,0.2-0.2,0.4-0.3,0.7c-0.1,0.5,0.2,1,0.5,1.5c0.2,0.4,0.3,0.9,0.3,1.4c0,0.5-0.3,1-0.7,1.3c-0.4,0.3-0.9,0.4-1.4,0.4
	c-0.6,0-1.2-0.1-1.7-0.3c-0.2-0.1-0.4-0.1-0.7-0.1c-0.3,0.1-0.3,0.3-0.4,0.5C351,1999.2,350.3,1999.3,350.1,1998.9z"/>
<path class="st13" d="M346.8,2033.8l3.5-2.7l5.5-5.4c0,0-0.7,0-1.8-0.1c-0.2,0.2-0.3,0.5-0.4,0.7c0,0.7-1.5,0-2.2,0.4
	c-0.8,0.4-4.5,5.1-5.1,5.1s-1.2-0.3-1.4,0.1l0,0c-0.1,0.1-0.3,0.2-0.4,0.2L346.8,2033.8z"/>
<path class="st10" d="M339.7,2033.6l1.7,5.6l0.3,0.9l0.8-0.2l1.8-0.5l8.2-2.3c1-0.1,2-0.3,2.9-0.8c1.5-0.9,3.3-1.3,5.1-1.1
	c1.1,0.1,2.3-0.4,3.3-2.2c0,0,2.3-6.7-3.5-8.6c-5.7-1.9-6,1-6,1l-0.1,0c-0.2,0.1-0.8,0.6-0.9,1.1c0,0.7-1.5,0-2.2,0.4
	c-0.8,0.4-4.5,5.1-5.1,5.1s-1.2-0.3-1.4,0.1l0,0c-0.2,0.3-0.8,0.3-1.2,0.4c-0.2,0-0.4,0-0.4,0l-0.1,0l-0.4,0.1L339.7,2033.6z"/>
<path class="st13" d="M340.2,2022.7l0.8,0.1l0.4-3.5c0,0-0.4-0.1-0.9-0.2C340.7,2019.7,340.4,2021.6,340.2,2022.7z"/>
<path class="st13" d="M362.3,2006.4c0,0,2.5-0.7,1.9,6.4c-0.6,7.2-5.3,11.7-5.3,11.7s-5.4,2.4-7.8,2c-2.4-0.4-4.2-0.5-4.2-0.5
	c-0.8-0.4-1.6-0.6-2.4-0.7c-1.3-0.1-4.2-0.9-4.2-1.2s0.7-4.2,0.4-4.6c0,0,3.8,0.2,4.2,0.4c0.4,0.3,0.9,0.1,1.3,0s1.6-1.2,4.1-0.2
	c0,0,0.8,0.1,1.2-0.1c0.3-0.1,0.6-0.1,0.8-0.1c0.2-0.1,0.4-0.2,0.6-0.3c0.1-0.1,0.7,0,0.7,0c0.1,0.1,0.3,0,0.4-0.1c0,0,0,0,0-0.1
	c0.1-0.2,0.2-0.4,0.4-0.6c0,0,0.7-4.1,2.1-5.7c0.2-0.2,0.3-0.5,0.3-0.8C356.7,2011.7,359.1,2005.5,362.3,2006.4z"/>
<path class="st12" d="M362.3,2005.9c0,0,2.5-0.7,1.9,6.4c-0.6,7.2-5.3,11.7-5.3,11.7s-5.4,2.4-7.8,2c-2.4-0.4-4.2-0.5-4.2-0.5
	c-0.8-0.4-1.6-0.6-2.4-0.7c-1.3-0.1-4.2-0.9-4.2-1.2c-0.1-0.3,0.7-4.2,0.4-4.6c0,0,3.8,0.2,4.2,0.4c0.4,0.3,0.9,0.1,1.3,0
	c0.4-0.1,1.6-1.2,4.1-0.2c0,0,0.8,0.1,1.2-0.1c0.3-0.1,0.6-0.1,0.8-0.1c0.2-0.1,0.4-0.2,0.6-0.3c0.1-0.1,0.7,0,0.7,0
	c0.1,0.1,0.3,0,0.4-0.1c0,0,0,0,0-0.1c0.1-0.2,0.2-0.4,0.4-0.6c0,0,0.7-4.1,2.1-5.7c0.2-0.2,0.3-0.5,0.3-0.8
	C356.7,2011.2,359,2005,362.3,2005.9z"/>
<path class="st13" d="M342.7,2032.7l3.6,4.3l0,0c0-0.1,0.4-1,0.3-1.1s-0.7-1.4-1.9-2c-0.6-0.3-1.2-0.8-1.5-1.4L342.7,2032.7z"/>
<path class="st13" d="M342.8,2040.2l0.4,0.2l1.8-1.5c0.9-0.7,1.8-1.5,1.8-1.5c0-0.1,0.4-1,0.3-1.1c0,0-0.2-0.4-0.6-0.8
	c-2.4-0.7-0.9,1-0.7,1.1c0,0-2.9-0.7-3.1,2.5C342.7,2039.5,342.7,2039.9,342.8,2040.2z"/>
<path class="st12" d="M345.8,2041.6l0.5,0.3l5.2,0.1c0.6,0.4,1.2,0.7,1.9,0.9c0.1,0,0.2,0,0.3,0.1c0.5,0,1,0,1.5,0
	c0.4,0,0.7,0,0.7,0s-0.2-6.6-0.4-7.3c-0.1-0.3-0.5-0.3-1-0.1c-0.3,0.1-0.6,0.3-0.9,0.5c0,0-2.2,0.2-2.6,0.4c-0.4,0.2-1.4-0.1-2,0
	c-0.6,0.1-1.7-0.7-1.7-0.7c-3-1-1.3,0.9-1.1,0.9c0,0-2.9-0.7-3.1,2.5C342.8,2042.4,345.8,2041.6,345.8,2041.6z"/>
<path class="st18" d="M353.3,2039c0.1,1.4,1.1,3.1,1.8,4c0.4,0,0.7,0,0.7,0s-0.2-6.6-0.4-7.3c-0.1-0.3-0.5-0.3-1-0.1
	C353.9,2036.6,353.3,2037.9,353.3,2039z"/>
<path class="st13" d="M353.3,2039c0.1,1.4,1.1,3.1,1.8,4c0.4,0,0.7,0,0.7,0s-0.2-6.6-0.4-7.3c-0.1-0.3-0.5-0.3-1-0.1
	C353.9,2036.6,353.3,2037.9,353.3,2039z"/>
<path class="st11" d="M352.4,2039.2c0.4,1.3,0.4,2.8,0.9,3.7c0.1,0,0.2,0,0.3,0.1c0.5,0,1,0,1.5,0c0.4,0,0.7,0,0.7,0
	s-0.2-6.6-0.4-7.3c-0.1-0.3-0.5-0.3-1-0.1c-0.3,0.1-0.6,0.3-0.9,0.5C353.4,2036,352,2037.5,352.4,2039.2z"/>
<path class="st13" d="M334.4,2025.9c0,0,2.6,0.8,4.8,3.8L334.4,2025.9z"/>
<g class="st19">
	<path d="M355.5,1993.4L355.5,1993.4c0,0.1-0.1,0.2-0.1,0.3C355.4,1993.6,355.4,1993.5,355.5,1993.4z"/>
	<path d="M340.8,1992.1c0-0.2,0.1-0.4,0.2-0.5c0,0,0,0.1,0,0.1c-0.1,0.6-0.1,1.2,0.1,1.8c0,0.3,0.2,0.6,0.4,0.8c0.4,0.3,1,0,1.4,0.4
		c0.2,0.2,0.2,0.6,0.5,0.7c0.1,0,0.2,0.1,0.3,0c0.7-0.1,1.1-0.9,1.8-1.1c0.4-0.1,0.8-0.1,1.2,0.1c0.2,0.1,0.3,0.1,0.4,0.3
		c0.2,0.3,0.1,0.7,0.2,1.1c0.1,0.5,0.7,0.7,1.3,0.8c0.5,0.1,1.1,0.1,1.5,0.5c0.2,0.3,0.3,0.7,0.3,1c0,0.1,0,0.3,0,0.4
		c0.1,0.4,0.8,0.3,1,0c0.1-0.2,0.1-0.4,0.4-0.5c0.2,0,0.5,0,0.7,0.1c0.6,0.2,1.2,0.3,1.7,0.3c0.5,0,1-0.1,1.4-0.4
		c0.2-0.1,0.3-0.3,0.4-0.5c-0.1,0.4-0.3,0.7-0.6,0.9c-0.4,0.3-0.9,0.4-1.4,0.4c-0.6,0-1.2-0.1-1.7-0.3c-0.2-0.1-0.4-0.1-0.7-0.1
		c-0.3,0.1-0.3,0.3-0.4,0.5c-0.2,0.3-0.9,0.4-1,0c0-0.1,0-0.3,0-0.4c0.1-0.4,0-0.8-0.3-1c-0.3-0.4-0.9-0.4-1.5-0.5
		c-0.5-0.1-1.1-0.3-1.3-0.8c-0.1-0.4,0.1-0.8-0.2-1.1c-0.1-0.1-0.2-0.2-0.4-0.3c-0.4-0.2-0.8-0.2-1.2-0.1c-0.7,0.2-1.1,1-1.8,1.1
		c-0.1,0-0.2,0-0.3,0c-0.3-0.1-0.3-0.5-0.5-0.8c-0.3-0.3-1-0.1-1.4-0.4c-0.2-0.2-0.4-0.5-0.4-0.8
		C340.7,1993.3,340.7,1992.7,340.8,1992.1z"/>
</g>
<path class="st13" d="M355.9,2013.7c-0.5,0.7-1.1,1.3-1.5,2c-0.5,0.7-0.7,1.5-0.7,2.4c0.5-0.5,0.7-1.1,1-1.7c0.5-1,1.2-1.8,1.8-2.7
	c0.1-0.2,0.9-1.2,0.5-1.2C356.7,2012.4,356.1,2013.5,355.9,2013.7z"/>
</svg>
