{
    "asset" : {
        "generator" : "Khronos glTF Blender I/O v1.5.9",
        "version" : "2.0"
    },
    "scene" : 0,
    "scenes" : [
        {
            "name" : "Scene",
            "nodes" : [
                0,
                1,
                2,
                3,
                4,
                5,
                6
            ]
        }
    ],
    "nodes" : [
        {
            "name" : "Light",
            "rotation" : [
                0.16907575726509094,
                0.7558803558349609,
                -0.27217137813568115,
                0.570947527885437
            ],
            "translation" : [
                4.076245307922363,
                5.903861999511719,
                -1.0054539442062378
            ]
        },
        {
            "name" : "Camera",
            "rotation" : [
                0.483536034822464,
                0.33687159419059753,
                -0.20870360732078552,
                0.7804827094078064
            ],
            "translation" : [
                7.358891487121582,
                4.958309173583984,
                6.925790786743164
            ]
        },
        {
            "mesh" : 0,
            "name" : "test_tube",
            "rotation" : [
                0.7071068286895752,
                0,
                0,
                0.7071067094802856
            ],
            "scale" : [
                0.0733235776424408,
                0.0733235776424408,
                0.0733235776424408
            ]
        },
        {
            "mesh" : 1,
            "name" : "semisphere",
            "rotation" : [
                0.7071068286895752,
                0,
                0,
                0.7071067094802856
            ],
            "scale" : [
                0.06530451774597168,
                0.06530451774597168,
                0.06530450284481049
            ],
            "translation" : [
                0,
                0.6768401265144348,
                0
            ]
        },
        {
            "mesh" : 2,
            "name" : "liquid",
            "rotation" : [
                0.7071068286895752,
                0,
                0,
                0.7071067094802856
            ],
            "scale" : [
                0.06530451774597168,
                0.06530451774597168,
                0.06530451774597168
            ],
            "translation" : [
                0,
                0.6768401265144348,
                0
            ]
        },
        {
            "mesh" : 3,
            "name" : "label",
            "rotation" : [
                0.7071068286895752,
                0,
                0,
                0.7071067094802856
            ],
            "scale" : [
                0.07533466815948486,
                0.07533466815948486,
                0.0733235776424408
            ]
        },
        {
            "mesh" : 4,
            "name" : "ring",
            "rotation" : [
                0.7071068286895752,
                0,
                0,
                0.7071067094802856
            ],
            "scale" : [
                0.07599999755620956,
                0.07599999755620956,
                0.07000000029802322
            ],
            "translation" : [
                0,
                0.6768401265144348,
                0
            ]
        }
    ],
    "materials" : [
        {
            "doubleSided" : true,
            "name" : "labtube_glass",
            "pbrMetallicRoughness" : {
                "baseColorFactor" : [
                    0.9294000267982483,
                    0.9294000267982483,
                    0.9294000267982483,
                    0.25
                ],
                "metallicFactor" : 0,
                "roughnessFactor" : 0.8625631332397461
            }
        },
        {
            "doubleSided" : true,
            "name" : "liquid",
            "pbrMetallicRoughness" : {
                "baseColorFactor" : [
                    0.8000000715255737,
                    0,
                    0.007533188909292221,
                    1
                ],
                "metallicFactor" : 0,
                "roughnessFactor" : 0.5
            }
        },
        {
            "doubleSided" : true,
            "name" : "Material.001",
            "pbrMetallicRoughness" : {
                "baseColorFactor" : [
                    0.8006610870361328,
                    0.8006610870361328,
                    0.8006610870361328,
                    1
                ],
                "metallicFactor" : 0,
                "roughnessFactor" : 0.5
            }
        },
        {
            "doubleSided" : true,
            "name" : "labtube_glass.004",
            "pbrMetallicRoughness" : {
                "baseColorFactor" : [
                    0.9294000267982483,
                    0.9294000267982483,
                    0.9294000267982483,
                    0.25
                ],
                "metallicFactor" : 0,
                "roughnessFactor" : 0.8625631332397461
            }
        }
    ],
    "meshes" : [
        {
            "name" : "test_tube",
            "primitives" : [
                {
                    "attributes" : {
                        "POSITION" : 0,
                        "NORMAL" : 1,
                        "TEXCOORD_0" : 2
                    },
                    "indices" : 3,
                    "material" : 0
                }
            ]
        },
        {
            "name" : "semisphere",
            "primitives" : [
                {
                    "attributes" : {
                        "POSITION" : 4,
                        "NORMAL" : 5,
                        "TEXCOORD_0" : 6
                    },
                    "indices" : 7,
                    "material" : 1
                }
            ]
        },
        {
            "name" : "liquid",
            "primitives" : [
                {
                    "attributes" : {
                        "POSITION" : 8,
                        "NORMAL" : 9,
                        "TEXCOORD_0" : 10
                    },
                    "indices" : 11,
                    "material" : 1
                }
            ]
        },
        {
            "name" : "label",
            "primitives" : [
                {
                    "attributes" : {
                        "POSITION" : 12,
                        "NORMAL" : 13,
                        "TEXCOORD_0" : 14
                    },
                    "indices" : 15,
                    "material" : 2
                }
            ]
        },
        {
            "name" : "ring",
            "primitives" : [
                {
                    "attributes" : {
                        "POSITION" : 16,
                        "NORMAL" : 17,
                        "TEXCOORD_0" : 18
                    },
                    "indices" : 19,
                    "material" : 3
                }
            ]
        }
    ],
    "accessors" : [
        {
            "bufferView" : 0,
            "componentType" : 5126,
            "count" : 271,
            "max" : [
                6.735300064086914,
                6.735300064086914,
                -1.5484537243537488e-06
            ],
            "min" : [
                -6.735300064086914,
                -6.735300064086914,
                -93.0208969116211
            ],
            "type" : "VEC3"
        },
        {
            "bufferView" : 1,
            "componentType" : 5126,
            "count" : 271,
            "type" : "VEC3"
        },
        {
            "bufferView" : 2,
            "componentType" : 5126,
            "count" : 271,
            "type" : "VEC2"
        },
        {
            "bufferView" : 3,
            "componentType" : 5123,
            "count" : 1368,
            "type" : "SCALAR"
        },
        {
            "bufferView" : 4,
            "componentType" : 5126,
            "count" : 100,
            "max" : [
                6.2565999031066895,
                6.256598472595215,
                9.121500015258789
            ],
            "min" : [
                -6.2565999031066895,
                -6.256601333618164,
                -9.5367431640625e-07
            ],
            "type" : "VEC3"
        },
        {
            "bufferView" : 5,
            "componentType" : 5126,
            "count" : 100,
            "type" : "VEC3"
        },
        {
            "bufferView" : 6,
            "componentType" : 5126,
            "count" : 100,
            "type" : "VEC2"
        },
        {
            "bufferView" : 7,
            "componentType" : 5123,
            "count" : 288,
            "type" : "SCALAR"
        },
        {
            "bufferView" : 8,
            "componentType" : 5126,
            "count" : 78,
            "max" : [
                6.2565999031066895,
                6.256598472595215,
                -1.52587890625e-05
            ],
            "min" : [
                -6.2565999031066895,
                -6.256601333618164,
                -1.0000152587890625
            ],
            "type" : "VEC3"
        },
        {
            "bufferView" : 9,
            "componentType" : 5126,
            "count" : 78,
            "type" : "VEC3"
        },
        {
            "bufferView" : 10,
            "componentType" : 5126,
            "count" : 78,
            "type" : "VEC2"
        },
        {
            "bufferView" : 11,
            "componentType" : 5123,
            "count" : 144,
            "type" : "SCALAR"
        },
        {
            "bufferView" : 12,
            "componentType" : 5126,
            "count" : 8,
            "max" : [
                -2.8072247353289406e-15,
                6.2565999031066895,
                -30.909101486206055
            ],
            "min" : [
                -6.2565999031066895,
                2.395297874705892e-14,
                -70.10169982910156
            ],
            "type" : "VEC3"
        },
        {
            "bufferView" : 13,
            "componentType" : 5126,
            "count" : 8,
            "type" : "VEC3"
        },
        {
            "bufferView" : 14,
            "componentType" : 5126,
            "count" : 8,
            "type" : "VEC2"
        },
        {
            "bufferView" : 15,
            "componentType" : 5123,
            "count" : 18,
            "type" : "SCALAR"
        },
        {
            "bufferView" : 16,
            "componentType" : 5126,
            "count" : 26,
            "max" : [
                6.2565999031066895,
                6.256600856781006,
                -4.76837158203125e-06
            ],
            "min" : [
                -6.2565999031066895,
                -6.256601333618164,
                -1.4693422317504883
            ],
            "type" : "VEC3"
        },
        {
            "bufferView" : 17,
            "componentType" : 5126,
            "count" : 26,
            "type" : "VEC3"
        },
        {
            "bufferView" : 18,
            "componentType" : 5126,
            "count" : 26,
            "type" : "VEC2"
        },
        {
            "bufferView" : 19,
            "componentType" : 5123,
            "count" : 72,
            "type" : "SCALAR"
        }
    ],
    "bufferViews" : [
        {
            "buffer" : 0,
            "byteLength" : 3252,
            "byteOffset" : 0
        },
        {
            "buffer" : 0,
            "byteLength" : 3252,
            "byteOffset" : 3252
        },
        {
            "buffer" : 0,
            "byteLength" : 2168,
            "byteOffset" : 6504
        },
        {
            "buffer" : 0,
            "byteLength" : 2736,
            "byteOffset" : 8672
        },
        {
            "buffer" : 0,
            "byteLength" : 1200,
            "byteOffset" : 11408
        },
        {
            "buffer" : 0,
            "byteLength" : 1200,
            "byteOffset" : 12608
        },
        {
            "buffer" : 0,
            "byteLength" : 800,
            "byteOffset" : 13808
        },
        {
            "buffer" : 0,
            "byteLength" : 576,
            "byteOffset" : 14608
        },
        {
            "buffer" : 0,
            "byteLength" : 936,
            "byteOffset" : 15184
        },
        {
            "buffer" : 0,
            "byteLength" : 936,
            "byteOffset" : 16120
        },
        {
            "buffer" : 0,
            "byteLength" : 624,
            "byteOffset" : 17056
        },
        {
            "buffer" : 0,
            "byteLength" : 288,
            "byteOffset" : 17680
        },
        {
            "buffer" : 0,
            "byteLength" : 96,
            "byteOffset" : 17968
        },
        {
            "buffer" : 0,
            "byteLength" : 96,
            "byteOffset" : 18064
        },
        {
            "buffer" : 0,
            "byteLength" : 64,
            "byteOffset" : 18160
        },
        {
            "buffer" : 0,
            "byteLength" : 36,
            "byteOffset" : 18224
        },
        {
            "buffer" : 0,
            "byteLength" : 312,
            "byteOffset" : 18260
        },
        {
            "buffer" : 0,
            "byteLength" : 312,
            "byteOffset" : 18572
        },
        {
            "buffer" : 0,
            "byteLength" : 208,
            "byteOffset" : 18884
        },
        {
            "buffer" : 0,
            "byteLength" : 144,
            "byteOffset" : 19092
        }
    ],
    "buffers" : [
        {
            "byteLength" : 19236,
            "uri" : "data:application/octet-stream;base64,"
        }
    ]
}
