<svg xmlns="http://www.w3.org/2000/svg" fill="#005670" width="50" height="44" viewBox="0 0 50 44">
<path d="M8.68 7.81c-.4-.4-.8-.4-1.2 0l-1.63 2.83c-.17.23-.37.34-.6.34H1.21c-.86-.06-1.26-.52-1.2-1.37.34-2.17 1.63-4.29 3.86-6.35 2.17-2 5.41-3.09 9.7-3.26 3.78.12 6.72.97 8.84 2.58 2.17 1.66 3.61 3.49 4.29 5.49 2.17-1.6 5.12-2.46 8.84-2.58 4.29.17 7.53 1.26 9.7 3.26 2.23 2.06 3.52 4.18 3.86 6.35.06.86-.34 1.32-1.2 1.37h-4.04c-.23 0-.4-.11-.52-.34l-1.72-2.83c-.4-.4-.8-.4-1.2 0l-1.63 2.83c-.17.23-.37.34-.6.34h-10.9a56.03 56.03 0 0 1 2.75 12.11c.52 4.35.52 8.67 0 12.96-.34 1.49-1.26 2.29-2.75 2.4H21.8a2.76 2.76 0 0 1-2.66-3.52 69.54 69.54 0 0 0 2.58-11.08c.4-3.03.49-5.55.26-7.56a13.94 13.94 0 0 0-.86-4.04L9.27 29.59c-.69.57-1.29.54-1.8-.09-1.32-1.77-1.92-4.18-1.8-7.21.11-2.98 1.63-6.04 4.55-9.19l.52-.52c.17-.11.34-.26.52-.43L8.68 7.77l2.58 4.38-2.58-4.38Z"/>
</svg>
