<svg xmlns="http://www.w3.org/2000/svg" fill="#005670" width="44" height="44" viewBox="0 0 44 44">
<path d="M22 44a22.55 22.55 0 0 1-11-2.92A22.74 22.74 0 0 1 2.92 33a22.23 22.23 0 0 1 0-22A22.67 22.67 0 0 1 11 2.92 22.55 22.55 0 0 1 22 0c4.01.06 7.68 1.03 11 2.92A22.74 22.74 0 0 1 41.08 11a22.26 22.26 0 0 1 0 22A22.74 22.74 0 0 1 33 41.08 22.55 22.55 0 0 1 22 44Zm1.8-32.48c-.12-1.15-.75-1.78-1.89-1.89-1.09.12-1.69.75-1.8 1.89v1.37c-.57.12-1.09.26-1.55.43a5.45 5.45 0 0 0-3.35 3.87A4.6 4.6 0 0 0 17.36 22c1.32.75 2.69 1.26 4.12 1.55l.09.09.52.17a8 8 0 0 1 3.01 1.12c.46.34.63.77.52 1.29-.17.46-.52.8-1.03 1.03-.8.34-1.95.43-3.44.26-.97-.23-1.95-.52-2.92-.86a.75.75 0 0 0-.34-.09.75.75 0 0 0-.34-.09c-1.09-.29-1.86.09-2.32 1.12-.23 1.15.17 1.95 1.2 2.41 1.2.4 2.43.75 3.7 1.03v1.55c.11 1.09.72 1.69 1.8 1.8 1.15-.11 1.78-.72 1.89-1.8V31.2a6.98 6.98 0 0 0 2.15-.52 5.05 5.05 0 0 0 3.27-3.87 4.8 4.8 0 0 0-2.06-4.98 15.55 15.55 0 0 0-4.3-1.72c-.12 0-.2-.03-.26-.09a.7.7 0 0 1-.34-.09h-.09c-.97-.23-1.89-.57-2.75-1.03-.52-.4-.66-.8-.43-1.2.17-.4.52-.72 1.03-.95a6.16 6.16 0 0 1 3.52-.34c.63.12 1.23.26 1.8.43.06.06.14.09.26.09.06 0 .11.03.17.09 1.09.17 1.86-.26 2.32-1.29.17-1.15-.29-1.92-1.37-2.32a3.86 3.86 0 0 0-.43-.17c-.86-.23-1.69-.4-2.49-.52v-1.2 1.2-1.2Z"/>
</svg>
