<svg xmlns="http://www.w3.org/2000/svg" width="230" height="34" viewBox="0 0 230 34">
  <path fill="#0E0048" d="M0 5.48C0 2.18 1.76.17 4.61.17c2.85 0 4.61 2.01 4.61 5.31v21.35c0 3.3-1.77 5.31-4.61 5.31C1.76 32.15 0 30.13 0 26.83V5.48zM29.6 13.5c2.69 0 3.77-.9 3.77-3s-1.08-3-3.77-3h-4.61v6h4.61zm12.54 11.25c.34 2.15 1.32 2.29 1.32 4.23 0 .9-.49 3.46-4.5 3.46s-5.06-3.74-5.82-8.61c-.29-2.49-1.89-3.22-4.05-3.22H25V27c0 3.3-1.6 5.14-4.49 5.14S16.02 30.3 16.02 27V6.6c0-4.12 1.69-5.87 5.65-5.87H31.9c7.06 0 10.22 4.03 10.22 8.75 0 4.03-2.29 6.64-5.85 7.37v.09c2.93.21 4.8 1.3 5.33 4.54.2 1.29.19 1.12.54 3.27M63.29 3.56c.63-2.53 2.77-3.39 4.52-3.39 2.39 0 4.57 1.71 4.57 4.16 0 1.07-.17 1.8-.63 3.21l-7.01 20.62c-1.13 3.39-2.68 3.99-6.04 3.99s-4.91-.6-6.04-3.99l-7-20.62a9.04 9.04 0 0 1-.64-3.21c0-2.44 2.18-4.16 4.58-4.16 1.76 0 3.9.85 4.53 3.39l4.53 17.74h.08l4.55-17.74zM76.32 5.48c0-3.3 1.72-5.31 4.49-5.31 2.77 0 4.49 2.01 4.49 5.31v21.35c0 3.3-1.72 5.31-4.49 5.31-2.77 0-4.49-2.01-4.49-5.31V5.48zM111.08 4.93c0-2.87 1.56-4.93 4.15-4.93 2.6 0 4.15 2.06 4.15 4.93V27.6c0 3.39-2.11 4.71-4.82 4.71-2.27 0-3.48-.73-5.12-3.86l-9.06-14.78-.07 1.33v12.18c0 3.3-1.48 5.14-4.15 5.14-2.67 0-4.15-1.84-4.15-5.14V5.27C92.01 1.93 93.68 0 96.9 0c2.04 0 3.56.9 4.63 3L111 19.79l.07-1.96V4.93zM140.38 33.69c-7.2 0-15.66-3.76-15.66-17.53 0-10.97 8.88-16.11 16.21-16.11 10.35 0 13.1 5.18 13.1 7.58a3.74 3.74 0 0 1-3.95 3.85c-4.05 0-3.22-4.23-9.31-4.23-3.43 0-7.18 2.91-7.18 9.08 0 5.23 1.89 10.15 7.07 10.15 3.17 0 6.38-2.08 6.64-5.31h-4.48a3 3 0 0 1-3.03-3.04c0-2.06 1.21-3.39 3.44-3.39l9.11-.02c1.91 0 3.03 1.29 3.03 2.94 0 10.19-5.91 16.03-14.99 16.03M196.83 24.39c2.65 0 3.75 1.33 3.75 3.6s-1.1 3.6-3.75 3.6h-17.98a3.57 3.57 0 0 1-3.74-3.56c0-2.66.66-4.03 8.76-9.52l4.18-2.83c2.17-1.46 2.96-2.66 2.96-4.42 0-2.1-1.46-3.47-3.84-3.47-5.02 0-2.42 5.96-7.4 5.96-3.17 0-4.32-1.72-4.32-4.16 0-4.11 4.15-8.48 11.99-8.48 9.38 0 12.64 4.97 12.64 9.73 0 3.6-1.85 6.17-5.77 8.57l-7.97 4.89v.08h10.49zM217.23 9.56h-.09l-7.23 9.22h7.31V9.56zm0 15.9h-10.4c-2.99 0-4.14-2.02-4.14-4.59 0-1.59.71-3.04 2.65-5.32l9.2-10.8c2.51-2.92 3.79-3.9 6.08-3.9 3.31 0 5.15 1.76 5.15 4.55v13.37c2.6 0 4.23.77 4.23 3.34 0 2.62-1.63 3.34-4.23 3.34v2.06c0 2.83-1.41 4.63-4.27 4.63-2.87 0-4.28-1.8-4.28-4.63v-2.05z"/>
</svg>
