<svg xmlns="http://www.w3.org/2000/svg" xmlns:xlink="http://www.w3.org/1999/xlink" width="60" height="60" viewBox="0 0 288 288">
  <defs>
    <linearGradient id="gr15" x1="245.82" x2="42.18" y1="245.82" y2="42.18" gradientUnits="userSpaceOnUse">
      <stop offset="0" stop-color="#fbc846"/>
      <stop offset="1" stop-color="#965027"/>
    </linearGradient>
    <linearGradient id="gr34" x1="27.93" x2="260.07" y1="76.99" y2="211.01" gradientUnits="userSpaceOnUse">
      <stop offset="0" stop-color="#880a14"/>
      <stop offset="1" stop-color="#1b0000"/>
    </linearGradient>
    <linearGradient id="gr133" x1="90.35" x2="197.55" y1="235.24" y2="235.24" gradientUnits="userSpaceOnUse">
      <stop offset="0" stop-color="#fde762"/>
      <stop offset=".99" stop-color="#da8f1c"/>
    </linearGradient>
    <linearGradient id="gr138" x1="104.38" x2="183.66" y1="223.62" y2="223.62" gradientUnits="userSpaceOnUse">
      <stop offset="0" stop-color="#fde762"/>
      <stop offset=".99" stop-color="#cf840f"/>
    </linearGradient>
    <linearGradient id="gr16" x1="110.13" x2="127.13" y1="227.79" y2="227.79" gradientUnits="userSpaceOnUse">
      <stop offset="0" stop-color="#fcfbd7"/>
      <stop offset=".21" stop-color="#fcfbde" stop-opacity=".81"/>
      <stop offset=".68" stop-color="#fdfdf1" stop-opacity=".34"/>
      <stop offset="1" stop-color="#fff" stop-opacity="0"/>
    </linearGradient>
    <linearGradient xlink:href="#gr133" id="gr133-2" x1="144.02" x2="144.02" y1="234.57" y2="212.67"/>
    <linearGradient xlink:href="#gr133" id="gr133-3" x1="144.07" x2="144.07" y1="224.79" y2="212.67"/>
    <linearGradient id="gr142" x1="118.84" x2="169.2" y1="203.11" y2="203.11" gradientUnits="userSpaceOnUse">
      <stop offset="0" stop-color="#cf840e"/>
      <stop offset=".99" stop-color="#a85800"/>
    </linearGradient>
    <linearGradient xlink:href="#gr138" id="gr138-2" x1="120.86" x2="155.46" y1="199.52" y2="199.52"/>
    <linearGradient xlink:href="#gr138" id="gr138-3" x1="118.84" x2="169.2" y1="213.84" y2="213.84"/>
    <linearGradient xlink:href="#gr138" id="gr138-4" x1="126.46" x2="162.28" y1="180.8" y2="180.8"/>
    <linearGradient id="gr108" x1="129" x2="159.58" y1="172.14" y2="172.14" gradientUnits="userSpaceOnUse">
      <stop offset="0" stop-color="#f5af2f"/>
      <stop offset="1" stop-color="#ab5e03"/>
    </linearGradient>
    <linearGradient xlink:href="#gr133" id="gr133-4" x1="118.33" x2="169.7" y1="193.95" y2="193.95"/>
    <linearGradient id="gr71" x1="76.29" x2="210.44" y1="52.2" y2="52.2" gradientUnits="userSpaceOnUse">
      <stop offset="0" stop-color="#fde762"/>
      <stop offset=".16" stop-color="#fff"/>
      <stop offset=".99" stop-color="#da8f1c"/>
    </linearGradient>
    <linearGradient id="gr76" x1="76.29" x2="210.44" y1="53.58" y2="53.58" gradientUnits="userSpaceOnUse">
      <stop offset="0" stop-color="#fde762"/>
      <stop offset=".16" stop-color="#fff"/>
      <stop offset=".74" stop-color="#c3700e"/>
    </linearGradient>
    <linearGradient xlink:href="#gr133" id="gr133-5" x1="79.52" x2="207.21" y1="113.76" y2="113.76"/>
    <linearGradient xlink:href="#gr108" id="gr108-2" x1="81.5" x2="203.74" y1="126.63" y2="126.63"/>
    <linearGradient id="gr114" x1="167.21" x2="203.23" y1="73.13" y2="135.52" gradientUnits="userSpaceOnUse">
      <stop offset="0" stop-color="#ac5f04"/>
      <stop offset="1" stop-color="#ab5e03" stop-opacity="0"/>
    </linearGradient>
    <linearGradient xlink:href="#gr108" id="gr108-3" x1="192.21" x2="228.74" y1="72.39" y2="135.67"/>
    <linearGradient id="gr26" x1="184.1" x2="239.81" y1="157.14" y2="60.64" gradientUnits="userSpaceOnUse">
      <stop offset="0" stop-color="#fecb48"/>
      <stop offset=".18" stop-color="#fed46a" stop-opacity=".81"/>
      <stop offset=".57" stop-color="#feedbf" stop-opacity=".35"/>
      <stop offset=".84" stop-color="#fff" stop-opacity="0"/>
    </linearGradient>
    <linearGradient xlink:href="#gr16" id="gr16-2" x1="191.96" x2="228.99" y1="71.96" y2="136.11"/>
    <linearGradient xlink:href="#gr133" id="gr133-6" x1="57.74" x2="94.77" y1="136.11" y2="71.96"/>
    <linearGradient xlink:href="#gr26" id="gr26-2" x1="39.1" x2="101.91" y1="108.3" y2="108.3"/>
    <linearGradient xlink:href="#gr26" id="gr26-3" x1="-132.66" x2="-69.84" y1="108.3" y2="108.3" gradientTransform="translate(115.03) rotate(-180) scale(1 -1)"/>
    <linearGradient xlink:href="#gr16" id="gr16-3" x1="94.07" x2="124.39" y1="101.41" y2="101.41"/>
    <linearGradient xlink:href="#gr16" id="gr16-4" x1="131.21" x2="139.89" y1="198.73" y2="198.73"/>
    <linearGradient xlink:href="#gr16" id="gr16-5" x1="135.33" x2="147.6" y1="176.48" y2="176.48" gradientTransform="translate(5.61 -1.43) rotate(2.62)"/>
    <linearGradient xlink:href="#gr16" id="gr16-6" x1="136.39" x2="142.47" y1="172.27" y2="172.27" gradientTransform="translate(2.08 -.59) rotate(1.03)"/>
    <linearGradient xlink:href="#gr16" id="gr16-7" x1="119.34" x2="168.21" y1="211.97" y2="211.97"/>
  </defs>
  <circle cx="144" cy="144" r="144" fill="url(#gr15)"/>
  <circle cx="144" cy="144" r="134" fill="url(#gr34)"/>
  <path fill="#4b2b14" d="M197.71 236.6v12.46a3.94 3.94 0 0 1-3.94 3.94h-99.5a3.94 3.94 0 0 1-3.94-3.94V236.6l.02-.51v-.17l.07-.69.08-.5q.05-.34.12-.67.23-1 .64-1.97l2.92-6.81a5.4 5.4 0 0 1 4.97-3.28h89.74a5.4 5.4 0 0 1 4.97 3.28l2.92 6.81.29.75.24.8.11.42q.08.36.13.72.1.57.14 1.14v.04z"/>
  <path fill="#855431" d="M197.42 234.06a4 4 0 0 1-3.65 2.44h-99.5c-1.33 0-2.96-.37-3.85-1.27l.08-.5q.04-.34.12-.67.23-1 .64-1.97l2.92-6.81a5.4 5.4 0 0 1 4.97-3.28h89.74a5.4 5.4 0 0 1 4.97 3.28l2.92 6.81.29.75.24.8z"/>
  <path fill="url(#gr133)" d="M197.55 234.78c-.83 1.19-2.25 2.22-3.82 2.22H93.29q-1.88 0-2.94-.91v-.17q.04-.6.15-1.19c.53.87 1.41 1.27 2.79 1.27h100.44c1.47 0 2.89-1.28 3.42-2.52l.13.06q.09.26.14.52.08.36.13.72"/>
  <path fill="url(#gr138)" d="M183.66 220.25v7.7a6.1 6.1 0 0 1-6.12 6.12l-32.54-.03h-1.96l-15.91.01-16.63.02q-.2 0-.37-.02a6.1 6.1 0 0 1-5.75-6.1v-7.7q0-.52.1-1c.43-2.25 2.29-3.72 4.15-4.65a14 14 0 0 1 6.39-1.43h58c2.21 0 4.42.43 6.39 1.43 1.86.93 3.72 2.4 4.15 4.64q.1.49.1 1.01"/>
  <path fill="url(#gr16)" d="M127.13 221.5v12.55l-16.63.02q-.2 0-.37-.02V221.5z"/>
  <path fill="url(#gr133-2)" d="M177.56 234.57h-4.09c-8.55-.02-20.61-.03-28.47-.03h-1.96l-28.47.02h-4.09a6.57 6.57 0 0 1-6.6-6.62v-7.7q0-.5.08-.94l.04-.16.02-.16q.67-2.97 4.38-4.83a14.5 14.5 0 0 1 6.61-1.48h58q3.7 0 6.62 1.48 3.72 1.87 4.38 4.84l.13.13-.07.18q.08.45.08.95v7.7a6.6 6.6 0 0 1-6.6 6.62Zm-34.52-1.03H145l28.47.02h4.07a5.6 5.6 0 0 0 5.62-5.62v-7.7q0-.49-.09-.89l-.07-.31q-.63-2.4-3.82-4a13.6 13.6 0 0 0-6.17-1.38h-58q-3.45 0-6.16 1.38-3.2 1.6-3.82 4.01l-.07.3q-.09.4-.09.89v7.7a5.63 5.63 0 0 0 5.62 5.62h4.07c8.56-.02 20.61-.03 28.47-.03Z"/>
  <path fill="#c27301" d="M183.56 219.24za6.1 6.1 0 0 1-6.02 5.04l-32.54-.03h-1.96l-32.54.03a6.1 6.1 0 0 1-6.02-5.04v-.01c.43-2.24 2.29-3.71 4.15-4.64a14 14 0 0 1 6.39-1.43h58c2.21 0 4.42.43 6.39 1.43 1.86.93 3.72 2.4 4.15 4.64"/>
  <path fill="url(#gr133-3)" d="M177.56 224.79h-2.86l-29.7-.03h-1.96l-29.7.03h-2.86a6.6 6.6 0 0 1-6.48-5.37v-.28l.02-.16q.67-2.97 4.38-4.83a14.5 14.5 0 0 1 6.61-1.48h58q3.7 0 6.62 1.48 3.72 1.87 4.38 4.84l.13.13-.11.3a6.6 6.6 0 0 1-6.48 5.37Zm-34.52-1.03H145l29.7.03h2.86c2.69 0 4.98-1.9 5.49-4.54q-.55-2.53-3.87-4.2a13.6 13.6 0 0 0-6.17-1.38h-58q-3.45 0-6.16 1.38-3 1.5-3.74 3.73-.15.47-.01.95a5.55 5.55 0 0 0 5.4 4.06h2.84z"/>
  <path fill="url(#gr142)" d="M167.65 215.4c-2.69 2.74-8.99 4.99-22.65 4.74h-1.96c-13.66.25-19.96-2-22.65-4.74a5.3 5.3 0 0 1-1.49-2.99 5.96 5.96 0 0 1 4.19-6.45q.85-.27 1.61-.6c6.5-2.84 8.2-9.12 8.44-14.26a35 35 0 0 0-.18-5.03h22.12c-.57 5.32-.67 16.6 9.87 19.89 4.1 1.28 5.71 6.38 2.7 9.44"/>
  <path fill="url(#gr138-2)" d="M155.46 209.68q-4.83.44-10.13.44c-9.56 0-18.21-1.11-24.47-2.91a6 6 0 0 1 2.23-1.25q.85-.27 1.61-.6c6.5-2.84 8.2-9.12 8.44-14.26l.29-.25c2.17-1.81 4.36-2.63 6.16-1.21q.4.31.83.71c4.37 3.97 11.38 13.95 15.04 19.33"/>
  <path fill="url(#gr138-3)" d="M167.65 215.4c-2.69 2.74-8.99 4.99-22.65 4.74h-1.96c-13.66.25-19.96-2-22.65-4.74a5.4 5.4 0 0 1-1.05-6.09q.35-.81.93-1.49l.83.21c2.79 2.26 8.41 4.05 19.16 4.12H145c13.43.25 19.75-1.93 22.51-4.61q.4.41.7.88a5.5 5.5 0 0 1-.56 6.99Z"/>
  <path fill="url(#gr138-4)" d="M158.03 185.84a120 120 0 0 1-27.33 0 4.9 4.9 0 0 1-4.2-5.56c.37-2.69 2.68-5.57 5.14-5.29 8.46.97 16.99.97 25.44 0 2.47-.28 4.78 2.6 5.14 5.29a4.9 4.9 0 0 1-4.2 5.56Z"/>
  <path fill="url(#gr108)" d="M155.28 176.23q-10.99.58-21.98 0c-2.56-.13-4.49-2.2-4.29-4.53a4.5 4.5 0 0 1 4.77-3.95q10.5.56 21 0a4.5 4.5 0 0 1 4.77 3.95c.2 2.33-1.72 4.4-4.29 4.53Z"/>
  <path fill="url(#gr133-4)" d="M141 220.66c-10.72 0-17.77-1.65-20.97-4.91a5.8 5.8 0 0 1-1.51-5.62 6.6 6.6 0 0 1 4.42-4.65c9.1-2.84 10.26-11.79 9.56-18.96l-1.85-.18a5.2 5.2 0 0 1-3.54-2.01 5.5 5.5 0 0 1-1.11-4.11 5.45 5.45 0 0 1 4.21-4.66 4.44 4.44 0 0 1-1.7-3.9 5 5 0 0 1 5.3-4.4c6.95.37 14 .37 20.95 0a5 5 0 0 1 5.3 4.41 4.5 4.5 0 0 1-1.67 3.88 5.45 5.45 0 0 1 4.34 4.68 5.5 5.5 0 0 1-1.11 4.11 5.2 5.2 0 0 1-3.53 2.01l-2.56.2c-.69 7.17.47 16.11 9.56 18.95a6.6 6.6 0 0 1 4.42 4.65 5.8 5.8 0 0 1-1.51 5.62c-3.4 3.46-11.15 5.1-23.02 4.89h-1.95l-2.04.02Zm-9.84-44.19c-2.03 0-3.85 1.66-4.16 3.89a4.6 4.6 0 0 0 .91 3.37c.72.92 1.73 1.5 2.86 1.63l2.65.26.04.4c.67 6.23.23 17.16-10.22 20.42a5.6 5.6 0 0 0-3.75 3.94 4.9 4.9 0 0 0 1.25 4.67c3.2 3.26 10.69 4.8 22.28 4.59h1.97c11.59.21 19.1-1.33 22.29-4.59a4.8 4.8 0 0 0 1.25-4.67 5.6 5.6 0 0 0-3.75-3.94c-10.44-3.26-10.89-14.19-10.22-20.42l.04-.41 3.37-.26a4.2 4.2 0 0 0 2.84-1.62 4.5 4.5 0 0 0 .91-3.36c-.32-2.38-2.39-4.11-4.59-3.86l-1.02.14q-.4.08-.82.11l-.09-1 .74-.1a4 4 0 0 0 2.24-1.31c.64-.74.95-1.66.87-2.59-.18-2.04-2.08-3.59-4.25-3.49-6.99.37-14.07.37-21.06 0-2.16-.11-4.07 1.45-4.25 3.49-.08.93.23 1.85.87 2.59a4 4 0 0 0 2.14 1.28l.85.12-.1.99a6 6 0 0 1-.94-.13l-.76-.11q-.21-.03-.42-.02Z"/>
  <path fill="url(#gr71)" d="M210.44 52.5v3.33a2.5 2.5 0 0 1-2.5 2.5H78.79a2.5 2.5 0 0 1-2.5-2.5V52.5a6.43 6.43 0 0 1 6.42-6.42h121.31a6.43 6.43 0 0 1 6.42 6.42"/>
  <path fill="url(#gr76)" d="M210.44 53.81v2.58c0 1.07-1.12 1.94-2.5 1.94H78.79c-1.38 0-2.5-.87-2.5-1.94v-2.58c0-2.74 2.88-4.98 6.42-4.98h121.31c3.54 0 6.42 2.23 6.42 4.98"/>
  <path fill="none" stroke="#fde762" stroke-miterlimit="10" d="M210.44 52.5v3.33a2.5 2.5 0 0 1-2.5 2.5H78.79a2.5 2.5 0 0 1-2.5-2.5V52.5a6.43 6.43 0 0 1 6.42-6.42h121.31a6.43 6.43 0 0 1 6.42 6.42Z"/>
  <path fill="url(#gr133-5)" d="m207.21 58.33-.08 2.53a274 274 0 0 1-2.17 25.31c-2.18 16.43-6.44 36.31-14.71 52.49a75 75 0 0 1-8.44 13.2c-8.51 10.55-19.88 17.48-35.04 17.32h-6.81c-15.17.16-26.54-6.78-35.05-17.32a75 75 0 0 1-8.43-13.2c-8.27-16.18-12.53-36.06-14.71-52.49-.53-3.95-.93-7.71-1.25-11.16v-.13c-.52-5.62-.78-10.43-.92-14.02l-.08-2.53z"/>
  <path fill="url(#gr108-2)" d="M203.74 94.31c-2.43 14.57-6.55 30.77-13.49 44.35a75 75 0 0 1-8.44 13.2c-8.51 10.55-19.88 17.48-35.04 17.32h-6.81c-15.17.16-26.54-6.78-35.05-17.32a75 75 0 0 1-8.43-13.2c-8.27-16.18-12.53-36.06-14.71-52.49l-.27-2.09c20.58 20.18 58.26 37.75 122.24 10.23"/>
  <path fill="url(#gr114)" d="m207.21 58.33-.08 2.53a274 274 0 0 1-2.17 25.31c-2.18 16.43-6.44 36.31-14.71 52.49a78 78 0 0 1-2.67 4.84c-12.22 10.24-22.04 10.83-22.04 10.83 16.5-13.64 13.79-58.45 17.42-78.33 1.8-9.91 6.07-15.02 9.89-17.67z"/>
  <path fill="url(#gr108-3)" d="M193.74 149.47c.28 1.03.56 2.42.53 3.19-.11 3-2.58 5.34-6.06 5.34s-6.38-3.12-6.38-6.12h-.02v-.02a75 75 0 0 0 8.44-13.2c48.7-20.24 44.27-64.83 44.27-64.83h-17.83v5.35a7 7 0 0 1-6.99 6.99h-4.74l1.26-11.29h2.92v-9.7a4.3 4.3 0 0 1 4.18-4.36h.05l22.32-.15c6.53 0 11.83 5.29 11.83 11.83 0 0 5.14 55.98-53.78 76.97"/>
  <path fill="none" stroke="url(#gr26)" stroke-miterlimit="10" d="M193.74 149.47c.28 1.03.56 2.42.53 3.19-.11 3-2.58 5.34-6.06 5.34s-6.38-3.12-6.38-6.12h-.02v-.02a75 75 0 0 0 8.44-13.2c48.7-20.24 44.27-64.83 44.27-64.83h-17.83v5.35a7 7 0 0 1-6.99 6.99h-4.74l1.26-11.29h2.92v-9.7a4.3 4.3 0 0 1 4.18-4.36h.05l22.32-.15c6.53 0 11.83 5.29 11.83 11.83 0 0 5.14 55.98-53.78 76.97Z"/>
  <path fill="none" stroke="url(#gr16-2)" stroke-miterlimit="10" d="m204.96 86.17 1.26-11.29h2.92v-9.7a4.3 4.3 0 0 1 4.18-4.36h.05l22.32-.15c6.53 0 11.83 5.29 11.83 11.83 0 0 5.14 55.98-53.78 76.97.28 1.03.56 2.42.53 3.19-.11 3-2.58 5.34-6.06 5.34s-6.38-3.12-6.38-6.12h-.02v-.02a75 75 0 0 0 8.44-13.2c48.7-20.24 44.27-64.83 44.27-64.83"/>
  <path fill="#d98718" d="m104.91 151.86-.01.02c0 3-2.89 6.12-6.38 6.12s-5.95-2.34-6.06-5.34c-.03-.77.25-2.16.53-3.19C34.07 128.48 39.21 72.5 39.21 72.5c0-6.54 5.3-11.83 11.83-11.83l22.32.15h.05a4.3 4.3 0 0 1 4.18 4.36v9.7h2.92v.13l1.26 11.16h-4.74a7 7 0 0 1-6.99-6.99v-5.35H52.21s-4.43 44.59 44.27 64.83a75 75 0 0 0 8.43 13.2"/>
  <path fill="none" stroke="url(#gr133-6)" stroke-miterlimit="10" d="m104.91 151.86-.01.02c0 3-2.89 6.12-6.38 6.12s-5.95-2.34-6.06-5.34c-.03-.77.25-2.16.53-3.19C34.07 128.48 39.21 72.5 39.21 72.5c0-6.54 5.3-11.83 11.83-11.83l22.32.15h.05a4.3 4.3 0 0 1 4.18 4.36v9.7h2.92v.13l1.26 11.16h-4.74a7 7 0 0 1-6.99-6.99v-5.35H52.21s-4.43 44.59 44.27 64.83a75 75 0 0 0 8.43 13.2Z"/>
  <path fill="url(#gr26-2)" d="M70.04 73.83v5.35c0 1.72.62 3.3 1.66 4.52q1.1.4 2.33.4h4.74l-1.16-9.2.09-.02.21-.05h-3.32V63.11c0-.81-.22-1.59-.61-2.25a4 4 0 0 0-.57-.04h-.05l-22.32-.15A11.83 11.83 0 0 0 39.21 72.5s-3.69 40.16 30.99 65.2a92 92 0 0 0 19.79 9.7l-.22.86c-.18.85-.33 1.76-.31 2.33a5.4 5.4 0 0 0 4.02 5.04q.94.3 2.04.3c3.49 0 6.38-3.12 6.38-6.12l.01-.02A73 73 0 0 1 94 137.58l-.52-.99a86 86 0 0 1-14.18-7.45C45.7 107.1 49.21 71.76 49.21 71.76h20.9z"/>
  <path fill="url(#gr26-3)" d="M216.75 73.83v5.35c0 1.72-.62 3.3-1.66 4.52q-1.1.4-2.33.4h-4.74l1.16-9.2-.09-.02-.21-.05h3.32V63.11c0-.81.22-1.59.61-2.25q.27-.04.57-.04h.05l22.32-.15c6.53 0 11.83 5.29 11.83 11.83 0 0 3.69 40.16-30.99 65.2a92 92 0 0 1-19.79 9.7l.22.86c.18.85.33 1.76.31 2.33a5.4 5.4 0 0 1-4.02 5.04q-.94.3-2.04.3c-3.49 0-6.38-3.12-6.38-6.12l-.01-.02a73 73 0 0 0 7.91-12.21l.52-.99a86 86 0 0 0 14.18-7.45c33.6-22.04 30.09-57.38 30.09-57.38h-20.9z"/>
  <path fill="#992707" d="m207.21 58.33-.08 2.53H79.6l-.08-2.53z"/>
  <path fill="#fde762" d="M139.45 169.68c-13.79 0-25.54-5.89-34.93-17.51a76 76 0 0 1-8.49-13.29c-6.97-13.63-11.93-31.35-14.76-52.65-.47-3.51-.88-7.16-1.25-11.18v-.14c-.43-4.66-.74-9.38-.92-14.04l-.02-.71-.06-1.83v-.51h128.7v.51l-.07 1.83-.02.71a277 277 0 0 1-2.17 25.36c-2.83 21.31-7.79 39.02-14.76 52.65a75 75 0 0 1-2.69 4.87 68 68 0 0 1-5.71 8.29l-.1.14c-9.49 11.76-21.42 17.64-35.43 17.5h-7.31ZM80.03 58.83l.04 1.31.02.71c.18 4.64.49 9.35.91 13.99v.14c.38 4 .79 7.64 1.26 11.13 2.81 21.19 7.74 38.8 14.66 52.33a75 75 0 0 0 8.37 13.11c9.3 11.51 20.96 17.31 34.66 17.14h7.32c13.43 0 24.88-5.71 34.04-16.99s.11-.15.11-.15a77.81 77.81 0 0 0 8.38-13.11c6.92-13.53 11.85-31.14 14.66-52.33a276.24 276.24 0 0 0 2.17-25.27l.02-.7.04-1.31z"/>
  <path fill="url(#gr16-3)" d="M124.39 154.68a2.08 2.08 0 0 1-3.54 1.47c-19.12-19.2-24.65-70.44-26.24-97.82-.3-4.99-.46-9.18-.54-12.25h12.29q-.41 6.33-.57 12.25c-1.61 57.17 12.76 86.25 18.29 95.28q.31.52.31 1.07"/>
  <path fill="url(#gr16-4)" d="M137.21 190.38s-1.38 12.75-6 15.38c0 0 2.12 1.75 6 1.25 0 0 3.5-13.25 2.5-16.62z"/>
  <path fill="url(#gr16-5)" d="M142.88 183.5q-4.12.22-8.22-.38c-1.29-.19-2.13-1.33-1.89-2.46a2.2 2.2 0 0 1 2.49-1.69q3.67.54 7.38.34a2.2 2.2 0 0 1 2.33 1.91c.14 1.14-.8 2.2-2.1 2.27Z"/>
  <path fill="url(#gr16-6)" d="M140.01 175.54q-1.65.09-3.31-.06c-.87-.08-1.47-.81-1.34-1.55.13-.75.84-1.25 1.59-1.19q1.45.14 2.92.05c.75-.04 1.44.49 1.54 1.24s-.52 1.46-1.39 1.5Z"/>
  <path fill="url(#gr16-7)" d="M132.74 213.83c1.12.55-3.45 5.9-7.28-.66 0 0-3.73-1.67-6.12-3.86q.35-.81.93-1.49l.83.21c2.79 2.26 8.41 4.05 19.16 4.12H145c13.43.25 19.75-1.93 22.51-4.61q.4.41.7.88c-3.67 2.62-12.81 6.05-35.47 5.42Z"/>
</svg>