<svg xmlns="http://www.w3.org/2000/svg" xmlns:xlink="http://www.w3.org/1999/xlink" width="60" height="60" viewBox="0 0 60 60">
  <defs>
    <linearGradient id="grd15" x1="51.21" x2="8.79" y1="51.21" y2="8.79" gradientUnits="userSpaceOnUse">
      <stop offset="0" stop-color="#fbc846"/>
      <stop offset="1" stop-color="#965027"/>
    </linearGradient>
    <linearGradient id="grd34" x1="5.82" x2="54.18" y1="16.04" y2="43.96" gradientUnits="userSpaceOnUse">
      <stop offset="0" stop-color="#880a14"/>
      <stop offset="1" stop-color="#1b0000"/>
    </linearGradient>
    <linearGradient id="grd108" x1="12.31" x2="47.78" y1="35.33" y2="35.33" gradientUnits="userSpaceOnUse">
      <stop offset="0" stop-color="#f5af2f"/>
      <stop offset="1" stop-color="#ab5e03"/>
    </linearGradient>
    <linearGradient id="grd133" x1="16.12" x2="44.76" y1="34.32" y2="34.32" gradientUnits="userSpaceOnUse">
      <stop offset="0" stop-color="#fde762"/>
      <stop offset=".99" stop-color="#da8f1c"/>
    </linearGradient>
    <linearGradient id="grd74" x1="31.36" x2="31.36" y1="18.24" y2="24.65" gradientUnits="userSpaceOnUse">
      <stop offset="0" stop-color="#70422b"/>
      <stop offset="1" stop-color="#904602" stop-opacity="0"/>
    </linearGradient>
    <linearGradient xlink:href="#grd133" id="grd133-2" x1="12.21" x2="47.89" y1="35.33" y2="35.33"/>
    <linearGradient id="grd114" x1="45.17" x2="34.38" y1="36.72" y2="55.41" gradientUnits="userSpaceOnUse">
      <stop offset="0" stop-color="#ac5f04"/>
      <stop offset="1" stop-color="#ab5e03" stop-opacity="0"/>
    </linearGradient>
    <linearGradient xlink:href="#grd114" id="grd114-2" x1="12.31" x2="25.21" y1="46.77" y2="46.77"/>
    <linearGradient id="grd61" x1="24.43" x2="35.99" y1="30.35" y2="41.91" gradientUnits="userSpaceOnUse">
      <stop offset="0" stop-color="#70422b"/>
      <stop offset="1" stop-color="#41271a"/>
    </linearGradient>
    <linearGradient id="grd16" x1="17.7" x2="24.91" y1="27.04" y2="34.25" gradientUnits="userSpaceOnUse">
      <stop offset="0" stop-color="#fcfbd7"/>
      <stop offset=".21" stop-color="#fcfbde" stop-opacity=".81"/>
      <stop offset=".68" stop-color="#fdfdf1" stop-opacity=".34"/>
      <stop offset="1" stop-color="#fff" stop-opacity="0"/>
    </linearGradient>
    <linearGradient xlink:href="#grd133" id="grd133-3" x1="18.79" x2="40.8" y1="12.16" y2="12.16"/>
    <linearGradient xlink:href="#grd16" id="grd16-2" x1="19.15" x2="25.78" y1="12.62" y2="12.62"/>
    <linearGradient xlink:href="#grd133" id="grd133-4" x1="20.11" x2="26.82" y1="12.41" y2="12.41"/>
    <linearGradient xlink:href="#grd133" id="grd133-5" x1="25.43" x2="33.48" y1="11.47" y2="11.47"/>
    <linearGradient xlink:href="#grd133" id="grd133-6" x1="32.78" x2="39.28" y1="12.12" y2="12.12"/>
    <linearGradient xlink:href="#grd74" id="grd74-2" x1="29.88" x2="29.88" y1="17.48" y2="9.79"/>
    <linearGradient xlink:href="#grd16" id="grd16-3" x1="27.15" x2="30.11" y1="11.4" y2="11.4"/>
    <linearGradient xlink:href="#grd16" id="grd16-4" x1="31.12" x2="33.44" y1="13.21" y2="13.21"/>
    <linearGradient xlink:href="#grd16" id="grd16-5" x1="33.55" x2="37" y1="11.75" y2="11.75"/>
    <linearGradient xlink:href="#grd133" id="grd133-7" x1="18.68" x2="40.9" y1="12.16" y2="12.16"/>
    <linearGradient xlink:href="#grd108" id="grd108-2" x1="24.23" x2="35.76" y1="18.27" y2="18.27"/>
    <linearGradient xlink:href="#grd133" id="grd133-8" x1="24.13" x2="35.86" y1="18.27" y2="18.27"/>
    <linearGradient xlink:href="#grd16" id="grd16-6" x1="32.62" x2="37.19" y1="13.63" y2="13.63" gradientTransform="translate(-6.34 3.12) rotate(2.41)"/>
    <linearGradient id="grd87" x1="26.22" x2="26.22" y1="28.4" y2="34.63" gradientUnits="userSpaceOnUse">
      <stop offset="0" stop-color="#844d35"/>
      <stop offset=".38" stop-color="#b08c7d" stop-opacity=".64"/>
      <stop offset="1" stop-color="#fff" stop-opacity="0"/>
    </linearGradient>
  </defs>
  <circle cx="30" cy="30" r="30" fill="url(#grd15)"/>
  <circle cx="30" cy="30" r="27.92" fill="url(#grd34)"/>
  <path fill="url(#grd108)" d="M47.76 42.7a7.2 7.2 0 0 1-2.49 5.19c-2.36 2.04-6.91 4.43-15.22 4.52a37 37 0 0 1-4.84-.35c-5.32-.75-8.52-2.57-10.38-4.17a7.2 7.2 0 0 1-2.49-5.19l-.02-1.21a25.3 25.3 0 0 1 14.44-23.24h6.61s15.09 6.33 14.41 24.46Z"/>
  <path fill="url(#grd133)" d="M44.38 40.99c-2.6 8.92-10.16 9.6-15.01 9.38a14.6 14.6 0 0 1-9.58-4.04c-8.85-8.62.57-21.97 4.46-26.72 1.49-.94 2.5-1.36 2.5-1.36h5.65c7.2 6.86 14.06 15.61 11.99 22.74Z"/>
  <path fill="url(#grd74)" d="M38.11 24.65c-.17-.2-2.28-2.78-2.83-3.03-.58-.26-.49.46-.49.46s-1.07-2.21-2-1.82c-.91.38 1.13 4.03 1.24 4.21l-1.24-1.81v.94s-1.15-2.03-1.51-2.71-1.17-.68-1.81-.55c-.55.11-.93 1.97-1.03 2.49q-.03.13-.17.13c-.1 0-.16-.1-.14-.19.1-.46.36-1.69.26-2.29-.13-.74-1.22-.43-1.22-.43-.86.7-3.53 3.91-3.53 3.91.12-1.32 2.15-3.11 2.3-3.81.15-.69-1.44-.03-1.51 0 .37-.29.08-.41-.31-.45l.14-.09c1.49-.94 2.5-1.36 2.5-1.36h6.61s1.69.71 3.92 2.34v.2c-1.42-1.04-2.33-.81-2.33-.81 1.69.66 4.07 4.54 4.16 4.68-.07-.08-1.18-1.36-1.58-1.53s.5 1.36.59 1.52Z"/>
  <path fill="url(#grd133-2)" d="m30.05 52.51-.91-.02c-7.83-.25-12.14-2.6-14.38-4.53a7.4 7.4 0 0 1-2.53-5.26 25.3 25.3 0 0 1 11.82-23.09l.14-.09a18 18 0 0 1 2.51-1.37h6.69s1.73.74 3.94 2.36c4.13 3.02 11 9.91 10.53 22.21a7.3 7.3 0 0 1-2.52 5.27c-2.35 2.03-6.91 4.46-15.29 4.55Zm-3.28-34.16c-.15.06-1.11.49-2.46 1.35l-.14.09A25.1 25.1 0 0 0 12.44 42.7a7 7 0 0 0 2.45 5.11c2.22 1.91 6.49 4.23 14.25 4.48l.9.02c8.31-.09 12.82-2.49 15.15-4.5a7 7 0 0 0 2.46-5.12A25.3 25.3 0 0 0 37.2 20.66c-2.06-1.51-3.69-2.23-3.88-2.32h-6.56Z"/>
  <path fill="url(#grd114)" d="M46.44 46.59q-.5.72-1.18 1.3c-2.36 2.04-6.91 4.43-15.22 4.52l-.9-.02c15.13-4.29 14.49-16.56 14.49-16.56 2.1 2.3 3.01 7.75 2.81 10.76"/>
  <path fill="url(#grd114-2)" d="M25.21 52.06c-5.32-.75-8.52-2.57-10.38-4.17a7.2 7.2 0 0 1-2.49-5.19l-.02-1.21c.64 2.3 1.53 4.68 2.42 4.29 1.11-.48 1.49-2.3 1.62-3.65.01-.14.21-.15.24-.01.43 2.03 1.87 6.13 8.62 9.95Z"/>
  <path fill="none" stroke="#fdfcda" stroke-miterlimit="10" stroke-width=".42" d="M36.2 37.87a4 4 0 0 0-.86-1.24q-.48-.45-1.4-.86a11 11 0 0 0-2.52-.85v-4.69q1.98.52 2.16 2.74h2.41q0-2.45-1.63-3.77a6 6 0 0 0-2.94-1.24v-2.13h-2.03v2.07a5.7 5.7 0 0 0-3.31 1.24 4.2 4.2 0 0 0-1.51 3.43q0 .77.17 1.38t.58 1.05q.41.45.75.74.34.3 1.03.56.7.26 1.06.39.38.12 1.2.32h.02v5.51q-2.63-.48-2.78-3.27h-2.38q.12 2.69 1.71 4.11a6 6 0 0 0 3.45 1.36v2.1h2.03v-2.08a6.2 6.2 0 0 0 3.51-1.36 4.7 4.7 0 0 0 1.66-3.73q0-.99-.38-1.78Zm-6.81-3.46-.36-.09a3 3 0 0 1-.57-.2l-.45-.23q-.3-.14-.42-.29l-.28-.35q-.15-.2-.21-.46a2 2 0 0 1-.06-.54q0-1 .79-1.57.62-.46 1.56-.55v4.31Zm3.78 7.48q-.7.52-1.75.67v-5.04q.66.19 1.08.35.62.23 1.13.76.51.52.51 1.33 0 1.2-.98 1.93Z"/>
  <path fill="url(#grd61)" d="M35.99 37.66a4 4 0 0 0-.86-1.24q-.48-.45-1.4-.86a11 11 0 0 0-2.52-.85v-4.69q1.98.52 2.16 2.74h2.41q0-2.45-1.63-3.77a6 6 0 0 0-2.94-1.24v-2.13h-2.03v2.07a5.7 5.7 0 0 0-3.31 1.24 4.2 4.2 0 0 0-1.51 3.43q0 .76.17 1.38.17.6.58 1.05t.75.74 1.03.56q.7.26 1.06.39.38.12 1.2.32h.02v5.51q-2.63-.48-2.78-3.27h-2.38q.12 2.69 1.71 4.11a6 6 0 0 0 3.45 1.36v2.1h2.03v-2.08a6.2 6.2 0 0 0 3.51-1.36 4.7 4.7 0 0 0 1.66-3.73q0-.99-.38-1.78m-6.81-3.46-.36-.09a3 3 0 0 1-.57-.2l-.45-.23q-.3-.14-.42-.29l-.28-.35q-.15-.2-.21-.46a2 2 0 0 1-.06-.54q0-1 .79-1.57.62-.46 1.56-.55v4.31Zm3.78 7.48q-.7.52-1.75.67v-5.04q.66.19 1.08.35.62.23 1.13.76.51.52.51 1.33 0 1.2-.98 1.93Z"/>
  <path fill="none" stroke="#0d0605" stroke-miterlimit="10" stroke-width=".42" d="M35.99 37.66a4 4 0 0 0-.86-1.24q-.48-.45-1.4-.86a11 11 0 0 0-2.52-.85v-4.69q1.98.52 2.16 2.74h2.41q0-2.45-1.63-3.77a6 6 0 0 0-2.94-1.24v-2.13h-2.03v2.07a5.7 5.7 0 0 0-3.31 1.24 4.2 4.2 0 0 0-1.51 3.43q0 .76.17 1.38.17.6.58 1.05t.75.74 1.03.56q.7.26 1.06.39.38.12 1.2.32h.02v5.51q-2.63-.48-2.78-3.27h-2.38q.12 2.69 1.71 4.11a6 6 0 0 0 3.45 1.36v2.1h2.03v-2.08a6.2 6.2 0 0 0 3.51-1.36 4.7 4.7 0 0 0 1.66-3.73q0-.99-.38-1.78Zm-6.81-3.46-.36-.09a3 3 0 0 1-.57-.2l-.45-.23q-.3-.14-.42-.29l-.28-.35q-.15-.2-.21-.46a2 2 0 0 1-.06-.54q0-1 .79-1.57.62-.46 1.56-.55v4.31Zm3.78 7.48q-.7.52-1.75.67v-5.04q.66.19 1.08.35.62.23 1.13.76.51.52.51 1.33 0 1.2-.98 1.93Z"/>
  <path fill="url(#grd16)" d="M24.37 20.51c-2.6 2.17-10.66 10.03-7.76 22.05 0 0 1.35-10.53 5.73-11.78 3.61-1.03 5.26-7.44 5.73-9.66a.48.48 0 0 0-.68-.54c-.93.42-2.64 1.65-5.16 5.25 0 0 .09-2.27 2.29-5.17.08-.11-.06-.24-.16-.15Z"/>
  <path fill="url(#grd133-3)" d="M36.75 15.74c-.91 1.03-1.62 1.74-1.62 1.74H24.45s-.61-.62-1.43-1.53c-2.03-2.25-5.34-6.3-3.87-7.3l.09-.06q.26-.14.51-.23c2.08-.76 3.48.81 4.7.23.71-.34 1.66-.86 2.7-1.25a7 7 0 0 1 2.64-.5h.32c1.92.05 3.8 1.16 5.02 1.74q.3.14.62.13c.39 0 .8-.13 1.25-.26.92-.28 1.99-.58 3.34.13 1.64.87-1.51 4.82-3.59 7.15Z"/>
  <path fill="url(#grd16-2)" d="m22.98 13.75 1.8 3.12c-2.84-2.63-4.75-6.28-5.63-8.23q.3-.18.6-.28h.03a3.1 3.1 0 0 1 2.99 1.96c1.21 2.88 2.94 6.39 3.01 6.54l-2.8-3.12Z"/>
  <path fill="url(#grd133-4)" d="m24.02 13.54 1.8 3.12c-2.94-2.71-4.87-6.51-5.71-8.41 1.25-.31 2.25.18 3.11.38 1.11 2.98 3.51 7.85 3.6 8.02l-2.8-3.12Z"/>
  <path fill="url(#grd133-5)" d="M30.93 16.09c.01-.11.44-3.33-.94-3.12-1.4.21-1.1 3.12-1.1 3.12l-.68-2.08.21 2.08c-1.31-1.81-2.44-5.73-3-7.98 1.22-.61 2.79-1.32 4.36-1.26q.7-.02 1.37.12c-.51 3.33.25 5.63.25 5.63l.71-1.82-.1 2.45 1.46-1.98c-.2 1.59-2.48 4.74-2.55 4.84Z"/>
  <path fill="url(#grd133-6)" d="m33.06 16.09 1.41-3.33-1.69 1.82a17 17 0 0 0 2.09-6.11l.26.13c1.11.53 2.37-.72 4.15-.38-1.54 3.06-6.22 7.88-6.22 7.88Z"/>
  <path fill="url(#grd74-2)" d="M36.75 15.74c-.91 1.03-1.62 1.74-1.62 1.74H24.45s-.61-.62-1.43-1.53l.04-.04s4.74 1.02 4.48.24-2.7-7.56-1.86-5.78c.43.91 2.17 5.16 3.03 5.91q.1.09.24.16c-.09-1-.16-3.38 1.16-3.48 1.19-.09.95 2.28.7 3.66.69-.12 1.27-.42 1.31-.81.08-.83 1.2-4.55 2.39-6.01-.06.16-2.18 5.97-1.72 6.38.45.4 1.87-1.03 1.97-1.14-.07.1-.89 1.34.16 1.22 1.09-.13 1.64-.55 1.64-.55l.17.04Z"/>
  <path fill="url(#grd16-3)" d="M28.55 10.15c-.28 1.08.28 5.8.28 5.8-.94-2.17-1.46-6.44-1.67-8.61a7 7 0 0 1 2.64-.5h.32c-.68 1.85-.95 5.31-.95 5.31l-.61-2.01Z"/>
  <path fill="url(#grd16-4)" d="M32.02 10.47s-1.18 2.47-.83 5.49c0 0 1.01-2.92 2.26-4.41l-1.46 1.49s-.07-1.18.03-2.57"/>
  <path fill="url(#grd16-5)" d="M37 8.46a28 28 0 0 1-3.45 6.59c.72-1.11 1.7-4.48 2.21-6.32.39 0 .8-.13 1.25-.26Z"/>
  <path fill="url(#grd133-7)" d="M35.17 17.59H24.4l-.03-.03c-.24-.24-5.91-5.99-5.69-8.28a1 1 0 0 1 .4-.71l.1-.06q.25-.14.52-.23c1.17-.43 2.12-.14 2.95.11.66.2 1.22.37 1.74.12l.62-.3c.62-.31 1.32-.66 2.09-.95a7 7 0 0 1 2.68-.5h.32c1.63.04 3.24.85 4.42 1.44l.64.32q.27.13.58.12c.35 0 .74-.12 1.15-.24l.07-.02c.89-.27 2.01-.61 3.42.14q.42.23.5.71c.34 2.24-5.43 8.1-5.68 8.35l-.03.03Zm-10.67-.21h10.59c.46-.47 5.91-6.08 5.59-8.14a.7.7 0 0 0-.39-.55c-1.33-.71-2.4-.38-3.26-.13l-.07.02c-.43.13-.83.25-1.21.25a1.5 1.5 0 0 1-.67-.14l-.65-.32C33.27 7.79 31.69 7 30.1 6.96h-.31q-1.18-.05-2.61.49c-.76.28-1.46.63-2.07.94l-.62.31c-.59.28-1.22.09-1.89-.11-.8-.24-1.71-.52-2.82-.11q-.24.09-.49.22l-.08.05a.7.7 0 0 0-.32.56c-.2 2.11 5.14 7.62 5.6 8.08Z"/>
  <path fill="url(#grd108-2)" d="M34.95 19.18q-4.96.39-9.91 0c-.48-.04-.84-.53-.81-1.09.04-.56.45-.98.92-.94q4.84.39 9.68 0c.47-.04.88.38.92.94s-.32 1.05-.81 1.09Z"/>
  <path fill="url(#grd133-8)" d="M29.99 19.48q-2.5 0-4.96-.2c-.54-.04-.94-.58-.9-1.2q.04-.5.39-.82a1 1 0 0 1 .64-.22c3.21.25 6.46.25 9.66 0q.36-.02.64.22.35.3.39.82c.04.62-.36 1.16-.9 1.2q-2.47.2-4.96.2m-4.89-2.22a.7.7 0 0 0-.44.17 1 1 0 0 0-.32.67c-.03.5.28.94.71.98 3.28.26 6.61.26 9.89 0 .43-.03.74-.47.71-.98a1 1 0 0 0-.32-.67.7.7 0 0 0-.49-.17c-3.22.26-6.48.26-9.7 0h-.05Z"/>
  <path fill="url(#grd16-6)" d="M29.76 18.75q-1.82.08-3.62-.15a.5.5 0 0 1-.45-.57c.04-.27.3-.46.58-.43q1.72.22 3.45.15c.28-.01.52.2.54.47a.5.5 0 0 1-.49.53Z"/>
  <path fill="url(#grd87)" d="M26.01 34.63c-.52 0-1.29-.84-1.35-1.72-.2-2.02.84-3.75 2.21-4.4.62-.29.99.05.91.46-.07.43-.32.82-.66 1.07-.81.58-1.4 1.96-.88 3.44.22.6.27 1.16-.24 1.15Z" opacity=".69"/>
</svg>