<?xml version="1.0" encoding="utf-8"?>
<!-- Generator: Adobe Illustrator 24.0.3, SVG Export Plug-In . SVG Version: 6.00 Build 0)  -->
<svg version="1.1" id="Layer_1" xmlns="http://www.w3.org/2000/svg" xmlns:xlink="http://www.w3.org/1999/xlink" x="0px" y="0px"
	 viewBox="0 0 500 2570" enable-background="new 0 0 500 2570" xml:space="preserve">
<title>all_steps</title>
<circle opacity="0.1" fill="#666666" enable-background="new    " cx="251.5" cy="1055.5" r="169.5"/>
<circle opacity="0.1" fill="#666666" enable-background="new    " cx="261.5" cy="1055.5" r="169.5"/>
<g>
	<path fill="#2E6AA0" d="M249.64,1064.29c2.01,0.38,4.07,0.31,6.05-0.2c0.3-0.09,0.64-0.3,0.61-0.61c-0.02-0.11-0.07-0.22-0.14-0.31
		c-0.73-1.09-1.34-2.26-1.83-3.48c-0.02-0.06-0.06-0.12-0.11-0.16c-0.06-0.02-0.13-0.02-0.2,0c-0.89,0.23-1.66,0.81-2.55,1.06
		c-0.45,0.12-0.92,0.16-1.39,0.1c-0.4-0.05-0.95-0.38-1.32-0.33C248.98,1061.68,249.48,1062.93,249.64,1064.29z"/>
	<path fill="#2E6AA0" d="M287.82,1060.91c1.4-0.81,2.6-1.93,3.5-3.28c0.06-0.08,0.09-0.18,0.09-0.28c-0.01-0.1-0.05-0.19-0.11-0.27
		c-0.75-1.19-1.71-2.23-2.84-3.07c-0.59,0.42-1.12,0.91-1.58,1.46c-0.33,0.35-1.26,0.91-1.27,1.45c0,0.31,0.35,0.66,0.52,0.91
		c0.22,0.33,0.43,0.66,0.63,1C287.18,1059.49,287.54,1060.19,287.82,1060.91z"/>
	<path fill="#514F7C" d="M257.55,1068.36c0.02,0.31-0.06,0.63-0.24,0.88c-0.14,0.14-0.32,0.25-0.51,0.3
		c-2.82,1.01-6.09-0.25-8.91,0.75c-0.58,0.2-1.13,0.5-1.71,0.69c-0.69,0.21-1.41,0.33-2.13,0.38c-1,0.09-2,0.16-3,0.18
		c-0.76,0.05-1.52-0.01-2.26-0.2c-0.75-0.19-1.38-0.69-1.73-1.37c-0.15-0.3-0.18-0.65-0.09-0.98c0.04-0.11,0.11-0.21,0.19-0.3
		c0.19-0.21,0.41-0.4,0.66-0.54l1.04-0.67c0.49-0.34,1.02-0.63,1.57-0.83c0.41-0.13,0.85-0.19,1.26-0.3
		c1.42-0.56,2.67-1.49,3.61-2.7l1.41-1.51c0.13-0.17,0.3-0.3,0.49-0.39c0.2-0.07,0.4-0.08,0.61-0.06c1.37,0.1,2.7,0.54,3.85,1.29
		c0.29,0.22,0.61,0.41,0.95,0.56c0.89,0.26,1.85,0.14,2.65-0.33c0.36-0.2,0.28-0.31,0.44-0.65s0.52-0.57,0.85-0.25
		c0.1,0.11,0.17,0.24,0.2,0.38c0.22,1.03,0.28,2.09,0.19,3.14c-0.01,0.16,0.01,0.33,0.06,0.49c0.08,0.16,0.17,0.31,0.28,0.45
		c0.02,0.04,0.04,0.08,0.06,0.12C257.53,1067.36,257.6,1067.86,257.55,1068.36z"/>
	<path fill="#464352" d="M257.55,1068.36c0.02,0.31-0.06,0.63-0.24,0.88c-0.14,0.14-0.32,0.25-0.51,0.3
		c-2.82,1.01-6.09-0.25-8.91,0.75c-0.58,0.2-1.13,0.5-1.71,0.69c-0.69,0.21-1.41,0.33-2.13,0.38c-1,0.09-2,0.16-3,0.18
		c-0.76,0.05-1.52-0.01-2.26-0.2c-0.75-0.19-1.38-0.69-1.73-1.37c-0.15-0.3-0.18-0.65-0.09-0.98c0.04-0.11,0.11-0.21,0.19-0.3
		c0.16,0.34,0.28,0.8,0.39,0.96c0.28,0.49,0.76,0.84,1.32,0.95c0.41,0.03,0.83-0.03,1.22-0.16c2.56-0.63,5.28-0.64,7.74-1.6
		c0.82-0.39,1.67-0.71,2.53-0.97c0.91-0.14,1.82-0.21,2.74-0.22c1.44-0.11,2.84-0.55,4.26-0.78
		C257.54,1067.35,257.61,1067.86,257.55,1068.36z"/>
	<path fill="#514F7C" d="M294.29,1060.73c-0.21,1.07-0.76,2.04-1.56,2.78c-0.8,0.73-1.53,1.53-2.18,2.39
		c-0.73,1.12-1.06,2.5-2.01,3.45c-0.36,0.34-0.77,0.64-1.22,0.87c-0.5,0.29-1.02,0.54-1.57,0.72c-1.45,0.36-2.95,0.44-4.43,0.24
		c-0.48-0.01-0.96-0.1-1.41-0.27c-0.2-0.1-0.4-0.22-0.58-0.36c-0.37-0.23-0.68-0.54-0.91-0.91c-0.11-0.2-0.14-0.44-0.09-0.66
		c0.08-0.25,0.23-0.47,0.42-0.65c0.33-0.35,0.69-0.67,1.07-0.96c0.52-0.34,0.99-0.75,1.39-1.22c0.25-0.37,0.43-0.78,0.54-1.22
		c0.22-0.76,0.35-1.54,0.39-2.33c0-0.52,0.05-1.05,0.16-1.56c0.23-0.8,0.82-1.52,0.76-2.35c-0.03-0.12-0.02-0.24,0.03-0.36
		c0.07-0.09,0.17-0.15,0.28-0.17c0.47-0.18,0.96-0.3,1.46-0.34c0.51-0.03,1,0.16,1.35,0.53c0.21,0.25,0.34,0.61,0.65,0.71
		c0.15,0.04,0.31,0.05,0.46,0.02c0.76-0.01,1.5-0.23,2.13-0.66c0.55-0.5,0.87-1.2,0.88-1.94c0-0.28-0.12-0.57,0.3-0.61
		c0.32-0.04,0.58,0.31,0.74,0.52c0.65,0.76,1.14,1.64,1.43,2.6c0.09-0.03,0.18-0.05,0.27-0.05c0.39,0,0.75,0.18,0.97,0.5
		C294.26,1059.81,294.36,1060.27,294.29,1060.73z"/>
	<path fill="#464352" d="M294.29,1060.73c-0.21,1.07-0.76,2.04-1.56,2.78c-0.8,0.73-1.53,1.53-2.18,2.39
		c-0.73,1.12-1.06,2.5-2.01,3.45c-0.36,0.34-0.77,0.64-1.22,0.87c-0.5,0.29-1.02,0.54-1.57,0.72c-1.45,0.36-2.95,0.44-4.43,0.24
		c-0.48-0.01-0.96-0.1-1.41-0.27c-0.2-0.1-0.4-0.22-0.58-0.36c-0.37-0.23-0.68-0.54-0.91-0.91c0.29-0.14,0.6-0.21,0.91-0.22
		c0.66,0.04,1.14,0.66,1.77,0.85c0.9,0.27,1.79-0.36,2.7-0.58c0.61-0.07,1.21-0.17,1.81-0.3c0.49-0.19,0.94-0.46,1.34-0.81
		c0.54-0.39,1.02-0.85,1.43-1.38c0.34-0.53,0.62-1.09,0.84-1.67c0.48-1.12,1.05-2.2,1.69-3.24c0.1-0.16,0.21-0.32,0.34-0.45
		c0.15-0.12,0.3-0.23,0.47-0.34c0.56-0.52,0.94-1.21,1.08-1.96c0.06-0.23,0.14-0.45,0.24-0.66c0.39,0,0.75,0.18,0.97,0.5
		C294.26,1059.77,294.36,1060.26,294.29,1060.73z"/>
	<path fill="#464352" d="M244.64,1011.99c0.4,1.52-0.18,3.12-0.65,4.63c-0.72,2.27-1.2,4.61-1.46,6.97c-0.03,0.6-0.15,1.2-0.36,1.76
		c-0.23,0.51-0.61,0.94-0.87,1.42c-0.62,1.34-0.81,2.83-0.54,4.28c0.1,0.96,0.26,1.92,0.45,2.86c0.35,1.13,0.41,2.33,0.18,3.49
		c0.57-0.12,0.95,0.61,0.91,1.19c-0.14,0.57-0.12,1.16,0.05,1.71c0.7,0.26,0.71,1.22,0.68,1.96c0.01,1.29,0.18,2.58,0.49,3.84
		c1.06,5.1,2.18,10.18,3.38,15.24c2.57,0.8,5.58,1.63,8.03,0.52c0.48-0.16,0.86-0.54,1.02-1.02c0.03-0.27-0.01-0.53-0.1-0.79
		l-1.16-4.23c-0.35-1-0.49-2.07-0.42-3.13c0.11-0.78,0.45-1.63,0.07-2.32c-0.13-0.24-0.34-0.42-0.49-0.65
		c-0.61-0.89-0.29-2.09-0.24-3.17c0.02-0.24,0-0.49-0.05-0.72c-0.08-0.28-0.2-0.55-0.35-0.8c-0.96-1.87-1.42-3.95-1.34-6.05
		c0.04-0.27,0-0.54-0.11-0.79c-0.07-0.1-0.14-0.21-0.2-0.32c-0.05-0.2-0.02-0.4,0.06-0.58c-0.35-0.27-0.66-0.57-0.94-0.91
		c0.62-0.38,0.8-1.19,0.42-1.81c-0.06-0.09-0.12-0.17-0.19-0.24c0.37-0.07,0.61-0.43,0.54-0.8c-0.03-0.14-0.1-0.27-0.21-0.37
		c-0.15-0.1-0.35-0.15-0.45-0.3c-0.16-0.22-0.03-0.54,0.1-0.78l0.71-1.28c0.53-0.95,0.65-2.13,1.22-3.05
		c0.77-1.36,1.4-2.79,1.88-4.28l2.05-5.66l1.38,1.2c0.46,0.35,0.84,0.79,1.13,1.29c0.2,0.5,0.32,1.02,0.37,1.55
		c0.51,3.07,2.44,5.73,3.15,8.76c0.1,0.69,0.32,1.35,0.65,1.95c0.14,0.18,0.26,0.36,0.37,0.56c0.1,0.3,0.15,0.61,0.15,0.93
		c0.13,1.25,0.8,2.39,1.83,3.11c0.68,0.47,1.52,0.79,1.89,1.52c0.07,0.23,0.17,0.45,0.3,0.65c0.33,0.4,1.04,0.44,1.18,0.94
		c0.08,0.28-0.07,0.61,0.09,0.85c0.09,0.11,0.2,0.2,0.34,0.25l1.98,0.99c2.22,1.11,3.35,3.65,4.98,5.51
		c0.56,0.6,1.06,1.27,1.49,1.97c0.71,1.26,1.03,2.85,2.23,3.65c0.32,0.17,0.61,0.38,0.86,0.64c0.38,0.49,0.24,1.18,0.27,1.81
		s0.51,1.36,1.1,1.17c-0.21,0.75-0.21,1.55,0,2.3c2.59-0.13,5.07-1.13,7.02-2.84c0.63-0.45,1.05-1.15,1.14-1.92
		c0.01-0.13-0.02-0.26-0.08-0.38c-0.12-0.15-0.27-0.27-0.45-0.34c-1.86-1.01-2.41-3.33-3.35-5.23c-0.92-1.61-1.94-3.17-3.05-4.66
		c-2.2-3.33-3.71-7.37-7.04-9.57c-0.8-0.38-1.47-0.97-1.95-1.71c-0.2-0.45-0.23-0.96-0.39-1.42c-0.13-0.49-0.54-0.85-1.04-0.91
		c0.21-0.72,0.29-1.47,0.24-2.21c0.02-0.32-0.02-0.64-0.11-0.95c-0.13-0.33-0.29-0.65-0.49-0.94c-0.87-1.47-1.31-3.16-1.26-4.87
		c0.12-0.87,0.09-1.76-0.08-2.63c-0.13-0.42-0.37-0.81-0.53-1.22c-0.24-0.74-0.37-1.51-0.38-2.29l-0.18-2.93
		c-0.03-0.97-0.15-1.94-0.38-2.89c-0.61-2.27-1.22-11.79-3.3-12.86s-5.67,6.25-8.02,6.4c-1.04,0.04-2.06,0.24-3.05,0.59
		c-1.53,0.67-2.93,1.6-4.15,2.74l-4.32,3.63C246.49,1010.76,245.6,1011.42,244.64,1011.99z"/>
	<path fill="#33323C" d="M312.77,1019.93v-3.78c0-5.8-4.7-10.5-10.5-10.5H152.89c-5.8,0-10.5,4.7-10.5,10.5v6.97L312.77,1019.93z"/>
	<path fill="#9BCD7B" d="M194.45,1001.21c0,0-0.43,26.45,4.26,35.16s6.7,46.57,6.7,46.57s49.16,5.09,83.43-6.09
		S396,1061.1,396,1061.1l-12.29-82.8c0,0-60.69-3.89-95.22,12.57S194.45,1001.21,194.45,1001.21z"/>
	<path opacity="0.1" enable-background="new    " d="M194.45,1001.21c0,0-0.43,26.45,4.26,35.16s6.7,46.57,6.7,46.57
		s49.16,5.09,83.43-6.09S396,1061.1,396,1061.1l-12.29-82.8c0,0-60.69-3.89-95.22,12.57S194.45,1001.21,194.45,1001.21z"/>
	<path fill="#9BCD7B" d="M205.33,1010.88c0,0-1.54,21.83,2.32,28.8s4.04,38.11,4.04,38.11s44.25,2.05,75.72-8.66
		s97.61-17.66,97.61-17.66l-7.52-67.71c0,0-54.73-0.56-86.67,14.52S205.33,1010.88,205.33,1010.88z"/>
	
		<ellipse transform="matrix(0.9923 -0.1236 0.1236 0.9923 -125.388 43.4277)" opacity="0.1" enable-background="new    " cx="287.31" cy="1032.28" rx="11.49" ry="24.64"/>
	<path opacity="0.2" enable-background="new    " d="M350.44,937.96c0,0-58.96,14.92-86.77,41.19s-86.34,38.7-86.34,38.7
		s7.71,25.3,14.84,32.15s20.66,42.27,20.66,42.27s48.35-10.25,77.53-31.41s97.17-47.88,97.17-47.88L350.44,937.96z"/>
	<path fill="#9BCD7B" d="M176.45,1014.07c0,0,7.71,25.31,14.83,32.15s20.66,42.27,20.66,42.27s48.36-10.25,77.54-31.41
		s97.17-47.87,97.17-47.87l-37.1-75.03c0,0-58.96,14.92-86.76,41.19S176.45,1014.07,176.45,1014.07z"/>
	<path opacity="0.1" enable-background="new    " d="M176.45,1014.07c0,0,7.71,25.31,14.83,32.15s20.66,42.27,20.66,42.27
		s48.36-10.25,77.54-31.41s97.17-47.87,97.17-47.87l-37.1-75.03c0,0-58.96,14.92-86.76,41.19S176.45,1014.07,176.45,1014.07z"/>
	<path fill="#9BCD7B" d="M189.76,1019.92c0,0,5.24,21.25,11.05,26.7s15.53,35.02,15.53,35.02s42.74-11.63,69.41-31.48
		s87.49-46.74,87.49-46.74l-27.93-62.16c0,0-52.26,16.25-78.03,40.41S189.76,1019.92,189.76,1019.92z"/>
	
		<ellipse transform="matrix(0.9065 -0.4221 0.4221 0.9065 -402.8879 210.7064)" opacity="0.1" enable-background="new    " cx="274.36" cy="1015.14" rx="11.49" ry="24.64"/>
	<path opacity="0.1" enable-background="new    " d="M316.8,1023.64v105.07c0,5.02-4.07,9.08-9.08,9.08c0,0,0,0,0,0H151.48
		c-5.02,0-9.08-4.07-9.08-9.08v-115.66c4.48,1.66,4.48,1.66,9.08,1.52h156.23C312.72,1014.57,316.79,1018.63,316.8,1023.64z"/>
	<path fill="#3D4543" d="M316.8,1024.98v105.07c0,5.02-4.07,9.08-9.09,9.08H151.48c-5.02,0-9.08-4.07-9.08-9.08v-115.66
		c4.48,1.66,4.48,1.66,9.08,1.52h156.23C312.73,1015.91,316.79,1019.97,316.8,1024.98z"/>
	<path opacity="0.1" enable-background="new    " d="M316.36,1063.82v33.6h-32.59c-9.28-0.01-16.79-7.54-16.78-16.82
		c0.01-9.26,7.52-16.77,16.78-16.78H316.36z"/>
	<path fill="#33323C" d="M316.8,1062.93v33.61h-32.58c-9.28-0.01-16.79-7.54-16.78-16.82c0.01-9.26,7.52-16.77,16.78-16.78
		L316.8,1062.93z"/>
	<circle opacity="0.1" enable-background="new    " cx="285.78" cy="1080.62" r="6.55"/>
	<circle fill="#2E6AA0" cx="286.22" cy="1079.73" r="6.55"/>
</g>
</svg>
