<?xml version="1.0" encoding="utf-8"?>
<!-- Generator: Adobe Illustrator 24.0.3, SVG Export Plug-In . SVG Version: 6.00 Build 0)  -->
<svg version="1.1" id="Layer_1" xmlns="http://www.w3.org/2000/svg" xmlns:xlink="http://www.w3.org/1999/xlink" x="0px" y="0px"
	 viewBox="0 0 500 2570" enable-background="new 0 0 500 2570" xml:space="preserve">
<title>all_steps</title>
<circle opacity="0.1" fill="#666666" enable-background="new    " cx="251.5" cy="2400.5" r="169.5"/>
<circle opacity="0.1" fill="#666666" enable-background="new    " cx="261.5" cy="2400.5" r="169.5"/>
<path fill="#808080" d="M237.65,2394.94h-104.6c-0.13,0-0.26-0.01-0.39-0.03l49.47-85.69c0.94-1.66,3.06-2.25,4.72-1.31
	c0.55,0.31,1,0.76,1.31,1.31l33.2,57.5l1.59,2.75L237.65,2394.94z"/>
<polygon opacity="0.2" enable-background="new    " points="237.65,2394.94 201.94,2394.94 219.47,2369.48 220.73,2367.64 
	221.36,2366.73 222.95,2369.48 "/>
<path fill="#808080" d="M295.89,2394.94h-90.47l17.53-25.46l1.26-1.83l22.84-33.18c1.59-2,4.5-2.33,6.49-0.74
	c0.13,0.1,0.25,0.21,0.37,0.33c0.12,0.13,0.23,0.27,0.33,0.41L295.89,2394.94z"/>
<circle fill="#2E6AA0" cx="322.44" cy="2374.42" r="6.43"/>
<polygon fill="#3F3D54" points="323.06,2393.77 321.75,2393.77 322.35,2373.45 "/>
<polygon fill="#3F3D54" points="322.46,2377.3 323.88,2375.35 322.44,2377.79 322.29,2377.52 "/>
<polygon fill="#3F3D54" points="322.31,2379.28 320.9,2377.32 322.33,2379.76 322.48,2379.49 "/>
<circle fill="#2E6AA0" cx="334.06" cy="2368.19" r="9.49"/>
<circle fill="#2E6AA0" cx="304.18" cy="2365.19" r="9.49"/>
<polygon fill="#3F3D54" points="305.09,2393.77 303.15,2393.77 304.03,2363.76 "/>
<polygon fill="#3F3D54" points="304.2,2369.45 306.29,2366.56 304.18,2370.16 303.95,2369.76 "/>
<polygon fill="#3F3D54" points="303.98,2372.36 301.89,2369.48 304.01,2373.08 304.23,2372.68 "/>
<path fill="#3D4543" d="M378.29,2492.36H143.93c-16.66,0-30.61-13.63-30.29-30.29c0.32-16.18,13.52-29.13,29.7-29.13h219.61
	c6.18,0.06,11.33-4.71,11.74-10.87c0.3-6.3-4.56-11.66-10.86-11.97c-0.18-0.01-0.37-0.01-0.55-0.01H131.02
	c-5.05,0-9.14-4.09-9.14-9.14l0,0l0,0c0-5.05,4.09-9.14,9.14-9.14c0,0,0,0,0,0h232.26c16.41-0.01,29.72,13.29,29.72,29.7
	c0,0,0,0,0,0c0.01,16.41-11.7,29.72-28.11,29.72H143.67c-6.18-0.06-11.33,4.71-11.74,10.88c-0.3,6.3,4.56,11.66,10.86,11.97
	c0.18,0.01,0.37,0.01,0.55,0.01h234.94c5.05,0,9.14,4.09,9.14,9.14c0,0,0,0,0,0l0,0C387.43,2488.27,383.34,2492.37,378.29,2492.36z"
	/>
<rect x="148.14" y="2400.5" fill="#FFFFFF" width="14.17" height="0.91"/>
<rect x="188.36" y="2400.5" fill="#FFFFFF" width="14.17" height="0.91"/>
<rect x="228.58" y="2400.5" fill="#FFFFFF" width="14.17" height="0.91"/>
<rect x="268.8" y="2400.5" fill="#FFFFFF" width="14.17" height="0.91"/>
<rect x="309.03" y="2400.5" fill="#FFFFFF" width="14.17" height="0.91"/>
<rect x="148.14" y="2441.63" fill="#FFFFFF" width="14.17" height="0.91"/>
<rect x="188.36" y="2441.63" fill="#FFFFFF" width="14.17" height="0.91"/>
<rect x="228.58" y="2441.63" fill="#FFFFFF" width="14.17" height="0.91"/>
<rect x="268.8" y="2441.63" fill="#FFFFFF" width="14.17" height="0.91"/>
<rect x="309.03" y="2441.63" fill="#FFFFFF" width="14.17" height="0.91"/>
<rect x="148.14" y="2482.77" fill="#FFFFFF" width="14.17" height="0.91"/>
<rect x="188.36" y="2482.77" fill="#FFFFFF" width="14.17" height="0.91"/>
<rect x="228.58" y="2482.77" fill="#FFFFFF" width="14.17" height="0.91"/>
<rect x="268.8" y="2482.77" fill="#FFFFFF" width="14.17" height="0.91"/>
<rect x="309.03" y="2482.77" fill="#FFFFFF" width="14.17" height="0.91"/>
<path fill="none" d="M302.05,2325.65c-0.73-0.92-1.58-1.72-2.54-2.4h5.3C303.73,2323.85,302.79,2324.66,302.05,2325.65z"/>
<path fill="none" d="M284.71,2323.25h0.91c-0.2,0.14-0.39,0.27-0.58,0.42C284.94,2323.53,284.83,2323.39,284.71,2323.25z"/>
<path fill="#E5E5E5" d="M309.05,2322.15c1.49,0,2.95,0.38,4.25,1.1h-8.5C306.11,2322.53,307.57,2322.15,309.05,2322.15z"/>
<path fill="#E5E5E5" d="M292.56,2321.05c2.49,0,4.91,0.77,6.95,2.2h-13.88C287.66,2321.82,290.08,2321.05,292.56,2321.05z"/>
<path fill="#FFFFFF" d="M199.15,2307.13c0.7-12.43,11.34-21.93,23.77-21.23c9.64,0.54,17.87,7.17,20.45,16.48
	c0.27-0.01,0.55-0.02,0.82-0.02c10,0,18.8,6.59,21.62,16.19c6.64-2.92,14.4-0.99,18.9,4.7h-70.3c-8.42,0.02-15.26-6.78-15.29-15.2
	c0-0.19,0-0.39,0.01-0.58C199.14,2307.36,199.15,2307.25,199.15,2307.13z"/>
<path fill="none" d="M326.91,2345.1c0.73-0.92,1.58-1.73,2.54-2.4h-5.3C325.23,2343.3,326.17,2344.12,326.91,2345.1z"/>
<path fill="none" d="M301.15,2339.42h-0.91c0.2,0.14,0.39,0.27,0.58,0.42C300.93,2339.7,301.04,2339.56,301.15,2339.42z"/>
<path fill="#E5E5E5" d="M276.81,2338.32c-1.49,0-2.95,0.38-4.26,1.1h8.5C279.76,2338.7,278.3,2338.32,276.81,2338.32z"/>
<path fill="#E5E5E5" d="M293.3,2337.22c-2.49,0-4.91,0.77-6.95,2.2h13.88C298.21,2337.99,295.78,2337.22,293.3,2337.22z"/>
<path fill="#FFFFFF" d="M386.71,2323.3c-0.7-12.43-11.35-21.93-23.78-21.23c-9.64,0.55-17.86,7.17-20.44,16.47
	c-0.27-0.01-0.55-0.02-0.82-0.02c-10,0-18.8,6.59-21.62,16.19c-6.64-2.92-14.4-0.98-18.9,4.7h70.3c8.42,0.02,15.26-6.78,15.29-15.2
	c0-0.19,0-0.39-0.01-0.58C386.73,2323.52,386.72,2323.41,386.71,2323.3z"/>
<path fill="#2E6AA0" d="M311.78,2478.58l1.69,0.39l64.07,0.03l0.58-1.34c1.01-2.3,1.35-4.84,1-7.33c-0.28-1.85-0.97-3.7-2.54-4.5
	l-2.84-18.94l-35.45-0.06l-13.71,11.06c0,0-6.47-0.12-9.98,4.26c-1.27,1.63-2.02,3.6-2.15,5.66l-0.14,2.28L311.78,2478.58z"/>
<circle fill="#3F3D54" cx="325.85" cy="2478.27" r="7.91"/>
<circle fill="#CBCBCB" cx="325.85" cy="2478.27" r="4.16"/>
<polygon fill="#FFFFFF" points="323.02,2459.61 342.15,2459.62 344.49,2459.62 348.43,2459.62 348.43,2459.34 348.43,2455.87 
	348.44,2451.97 345.81,2451.97 343.48,2451.97 339.34,2451.97 337,2451.97 332.23,2451.97 "/>
<path fill="#3F3D54" d="M327.29,2462.39h-0.14c-1.5,0-2.71-1.21-2.71-2.71c0,0,0,0,0,0l0,0c0-1.5,1.21-2.71,2.71-2.71c0,0,0,0,0,0
	h0.14L327.29,2462.39L327.29,2462.39z"/>
<path fill="#3F3D54" d="M312.3,2470.1c2.3,0.25,4.37-1.41,4.62-3.71c0.19-1.76-0.74-3.45-2.33-4.22c-1.27,1.63-2.02,3.6-2.15,5.66
	L312.3,2470.1z"/>
</svg>
