<?xml version="1.0" encoding="utf-8"?>
<!-- Generator: Adobe Illustrator 24.0.3, SVG Export Plug-In . SVG Version: 6.00 Build 0)  -->
<svg version="1.1" id="Layer_1" xmlns="http://www.w3.org/2000/svg" xmlns:xlink="http://www.w3.org/1999/xlink" x="0px" y="0px"
	 viewBox="0 0 500 2570" enable-background="new 0 0 500 2570" xml:space="preserve">
<title>all_steps</title>
<circle opacity="0.1" fill="#666666" enable-background="new    " cx="251.5" cy="1945.5" r="169.5"/>
<circle opacity="0.1" fill="#666666" enable-background="new    " cx="261.5" cy="1945.5" r="169.5"/>
<path fill="#2E6AA0" d="M159.09,2028.95c0,0,3.56-2.35,7.1-0.68c0,0-1.09,2.09-5.56,1.9L159.09,2028.95z"/>
<path fill="#2E6AA0" d="M158.65,2029.08c0,0-1.08,4.14,1.63,6.94c0,0,1.64-1.7,0.01-5.87L158.65,2029.08z"/>
<path fill="#2E6AA0" d="M154.21,2025.11c0,0,0.27-3.51,8.19-2.35c-0.13,1.58-1.22,2.91-2.75,3.34
	C156.87,2027.18,155.6,2026.27,154.21,2025.11z"/>
<path fill="#2E6AA0" d="M153.72,2025.09c0,0-3.35,1.07-0.36,8.51c1.5-0.49,2.54-1.87,2.6-3.45
	C156.35,2027.19,155.18,2026.17,153.72,2025.09z"/>
<path fill="#3D4543" d="M149.23,2020.1c0,0-0.45-5.78,7.65-5.18c0,0,0.58,5.23-6.22,6.57L149.23,2020.1z"/>
<path fill="#3D4543" d="M143.88,2013.58c0,0,1.11-6.55,9.21-4.6c0,0,0.03,5.66-7.89,6.16L143.88,2013.58z"/>
<path fill="#3D4543" d="M139.96,2006.84c0,0,1.88-6.39,9.89-4.47c0,0-1.91,5.73-9.35,5.65L139.96,2006.84z"/>
<path fill="#3D4543" d="M136.25,2000.26c0,0,1.82-6.62,9.56-4.63c0,0-2.59,6.29-9.05,5.76L136.25,2000.26z"/>
<path fill="#2E6AA0" d="M149.01,2020.07c0,0-5.75-0.75-5.57,7.37c0,0,5.19,0.85,6.89-5.87L149.01,2020.07z"/>
<path fill="#3D4543" d="M143.61,2013.37c0,0-6.64-0.02-6.1,8.3c0,0,5.57,1,7.41-6.72L143.61,2013.37z"/>
<path fill="#FFFFFF" d="M376.7,1865.8v161.95c0,4.82-4.64,8.73-10.38,8.73H146.59c-5.74,0-10.38-3.92-10.38-8.73V1865.8
	c0-4.82,4.65-9.74,10.38-9.74l219.72,0.54C372.04,1856.59,376.7,1860.97,376.7,1865.8z"/>
<path fill="#3D4543" d="M376.7,1865.85v7.5H136.21v-7.5c0-5.41,4.38-9.79,9.79-9.79h220.9
	C372.31,1856.05,376.7,1860.43,376.7,1865.85L376.7,1865.85z"/>
<circle opacity="0.8" fill="#E6645F" enable-background="new    " cx="147.86" cy="1864.7" r="3.46"/>
<circle opacity="0.8" fill="#F6D269" enable-background="new    " cx="157.93" cy="1864.7" r="3.46"/>
<circle opacity="0.8" fill="#9ACC60" enable-background="new    " cx="168" cy="1864.7" r="3.46"/>
<linearGradient id="SVGID_1_" gradientUnits="userSpaceOnUse" x1="402.2219" y1="6024.2524" x2="402.2219" y2="5967.6846" gradientTransform="matrix(1 0 0 1 -54.62 -3981.46)">
	<stop  offset="0" style="stop-color:#808080;stop-opacity:0.25"/>
	<stop  offset="0.54" style="stop-color:#808080;stop-opacity:0.12"/>
	<stop  offset="1" style="stop-color:#808080;stop-opacity:0.1"/>
</linearGradient>
<path fill="url(#SVGID_1_)" d="M371.36,2033.12l-5.85-8.47c-0.02-0.88-0.19-1.76-0.49-2.59c-0.38-0.49-0.08-1.58-0.08-1.58
	s0.41-0.6,0.05-0.65s-0.05-1.39-0.05-1.39l-0.03-2.13c0.16-0.83,0.18-1.69,0.06-2.53c-0.16-0.27-0.15-0.61,0.03-0.87
	c0,0,0.33-1.17,0-1.47s-0.25-2.13-0.16-3.57c0.01-0.86-0.19-1.71-0.57-2.48c0-0.22-2.16-2.34-2.16-2.53
	c-0.62-0.56-1.37-0.98-2.18-1.2c-0.82-0.22-1.23-0.38-1.2-0.49s-1.28-0.54-1.28-0.54c-0.59-0.03-1.15-0.26-1.58-0.65
	c-0.44-0.57-1.77-0.74-1.81-0.74s-0.02-0.08-0.03-0.11l-0.02-0.12c0.1-0.17,0.2-0.35,0.28-0.54l0.08-0.17
	c0.48,0,0.95-0.14,1.34-0.42c0.39-0.33,0.63-0.8,0.65-1.31c0.02-0.5-0.09-1-0.32-1.45c-0.32-0.44-0.49-0.98-0.47-1.53
	c0.08-0.22,0.17-0.44,0.27-0.66c0.1-0.44,0.03-0.9-0.2-1.29c-0.21-0.4-0.5-0.74-0.73-1.13c-0.3-0.49-0.49-1.04-0.58-1.61
	c-0.02-0.3-0.09-0.59-0.21-0.87c-0.12-0.19-0.29-0.36-0.48-0.48c-0.86-0.61-1.89-0.93-2.95-0.89c-0.74,0.1-1.48,0.15-2.23,0.13
	c-0.44-0.08-0.88-0.19-1.3-0.34c-0.9-0.35-1.91-0.3-2.77,0.14c-0.8,0.53-1.11,1.56-1.65,2.36c-0.56,0.65-1.08,1.34-1.54,2.07v-0.04
	c-0.09,0.18-0.15,0.36-0.2,0.55c-0.1,0.6-0.06,1.22,0.12,1.81c0.04,0.31,0.2,0.6,0.44,0.8c0.3,0.12,0.63,0.19,0.96,0.19
	c-0.01,0.05-0.02,0.1-0.04,0.16c-0.68,3.18,1.21,6.35,4.33,7.28v0.17c0,0.16-0.01,0.31-0.03,0.47l0,0c0,0-2.74-0.56-3.48-0.18
	s-2.18,0.68-2.41,0.9s-0.77,0.05-1.26,1.34s-0.54,2.59-1.17,3.19s-0.96,1.01-0.98,1.44s0.08,0.54-0.17,0.68s-0.6,0.71-0.49,0.93
	c0.08,0.31-0.04,0.63-0.3,0.82c-0.26,0.18-0.4,0.48-0.38,0.8c0,0-0.16,0.6-0.54,0.74s-0.63,1.03-0.63,1.03l-1.24,1.42l-2.45-2.71
	c-0.38-0.42-1.04-0.46-1.46-0.07l-1.2,1.07c-0.46,0.11-0.88,0.36-1.2,0.72c-0.26,0.27-0.47,0.58-0.63,0.93l-0.66,0.59
	c-0.43,0.53-0.49,1.26-0.17,1.85l1.57,1.74v0.02c-0.55,0.06-1.07,0.29-1.49,0.65c-2.35,2.07-2.38,3.98-2.02,4.85
	c1.01,1.49,2.12,2.9,3.33,4.22c1.16,1.43,2.59,2.6,4.23,3.44l0,0l-0.02,0.02c-0.05,0.05-0.1,0.11-0.15,0.17l-0.04,0.05
	c-0.01,0.02-0.02,0.04-0.04,0.05l-0.04,0.06l-0.03,0.05l-0.05,0.08l-0.03,0.05l-0.06,0.11c-0.01,0.01-0.01,0.02-0.02,0.04
	c0,0.01-0.05,0.1-0.07,0.15c-0.01,0.02-0.02,0.04-0.02,0.06c-0.02,0.04-0.03,0.07-0.04,0.11l-0.02,0.07
	c-0.01,0.03-0.02,0.07-0.04,0.1l-0.02,0.08l-0.03,0.12c0,0.03-0.01,0.05-0.02,0.07c-0.01,0.02-0.03,0.13-0.04,0.2
	c0,0.03-0.01,0.05-0.01,0.08l-0.02,0.14c0,0.03,0,0.07-0.01,0.1l-0.02,0.13v0.62c-0.11,1.22-0.06,2.44,0.13,3.65
	c0.25,0.6,0.8,1.02,1.45,1.09c0.16,0.01,0.31,0,0.47-0.02c1.42-0.25,4.75-0.82,5.92-0.6c0.99,0.06,1.98-0.02,2.95-0.24l0.25-0.05
	l0.17,0.54l0.54-0.15l0.46,0.27c0.12,0.07,0.22,0.13,0.29,0.17c0.54,1.83,2.73,1.2,2.73,1.2l0.52,0.3l5.27,0.14
	c0.59,0.36,1.22,0.66,1.87,0.89c0.09,0.03,0.18,0.05,0.27,0.06c0.49,0.04,0.98,0.05,1.47,0.03c0.4,0,0.71-0.03,0.71-0.03
	s-0.05-1.43-0.13-3.03c1.63-0.04,3.26-0.17,4.88-0.4c2.81-0.49,3.99-3.06,4.42-4.42c0.13,0.56,0.22,1.13,0.27,1.7
	c0.12,0.5,0.26,0.99,0.44,1.47c0.15,0.39,0.36,0.75,0.6,1.09c2.08-0.71,0.82-1.77,0.38-2.24s0.3-0.84,0.3-0.84s0.57-0.38,0.52-0.74
	s-0.08-0.74,1.77-0.71S371.36,2033.12,371.36,2033.12z M342.52,2015.72c0.1,0.77,0.28,1.53,0.52,2.28c0.07,0.3,0.09,0.6,0.06,0.9
	c-1.1-0.09-2.25-0.14-2.25-0.14c0.03,0.04,0.05,0.09,0.06,0.14l-0.17-0.04l-0.25-0.06L342.52,2015.72L342.52,2015.72z M338.5,2022.1
	l1.91,0.3l0.16,0.03c-0.05,0.3-0.09,0.6-0.1,0.9c0,0.03,0.05,0.06,0.1,0.1c-0.03,0.15-0.04,0.3-0.03,0.45
	c0.59,0.38,1.25,0.63,1.94,0.75c-0.01,0.06-0.03,0.11-0.04,0.16l0,0c-0.9-0.47-2.32-0.7-2.48-1.05s-5-2.04-5-2.04
	s-0.18-0.09-0.48-0.24l1.27,0.24l0.35-0.04C336.88,2021.86,337.68,2022.01,338.5,2022.1L338.5,2022.1z"/>
<path fill="#2F2E40" d="M324,2025.45c1,1.48,2.1,2.88,3.3,4.19c1.22,1.51,2.77,2.73,4.52,3.57c2.25,0.99,4.33,2.33,6.18,3.95
	c1.19,0.9,2.44,1.71,3.75,2.43l0.33,0.2l0.74,0.43l0.39,0.22l1.81-1.46c0.89-0.72,1.78-1.45,1.79-1.49c0.03-0.08,0.38-1,0.3-1.06
	c-0.04-0.03-0.23-0.4-0.57-0.84c-0.36-0.48-0.84-0.87-1.38-1.14c-0.79-0.4-1.42-1.07-1.79-1.87c0,0-0.12-0.09-0.3-0.2
	c-0.37-0.25-0.78-0.43-1.22-0.54c-0.59-0.07-1.7-1.29-1.7-1.29c-0.43-0.28-0.8-0.66-1.06-1.11c-0.28-0.6-4.48-3.48-4.87-3.75
	l10.17,6.54l2.43,1.56l3.48-2.73l5.5-5.41c0,0-0.74-0.04-1.82-0.08c-2.68-0.12-7.41-0.3-8.01-0.16c-0.49,0.11-0.99,0.15-1.49,0.1
	c-0.77,0.03-1.54-0.11-2.25-0.41c-0.91-0.47-2.3-0.69-2.46-1.04s-4.95-2.03-4.95-2.03s-6.52-3.46-8.85-1.41
	S323.65,2024.58,324,2025.45z"/>
<path fill="#808080" d="M320.02,2018.99l5.73-11.22c0.1-0.2,0.35-0.28,0.55-0.18l14.66,7.48c0.2,0.1,0.28,0.35,0.18,0.55
	l-5.73,11.22c-0.1,0.2-0.35,0.28-0.55,0.18l-14.66-7.48C319.99,2019.44,319.91,2019.2,320.02,2018.99z"/>
<rect x="325.12" y="2010.03" transform="matrix(0.4546 -0.8907 0.8907 0.4546 -1616.4806 1394.6685)" fill="#2E6AA0" width="10.95" height="14.53"/>
<circle fill="#E5E7EB" cx="323.64" cy="2013.73" r="0.24"/>
<path fill="#3D4543" d="M185.53,1926.57h-22.15c-0.41-0.03-0.76,0.27-0.8,0.68s0.27,0.76,0.68,0.8c0.01,0,0.02,0,0.03,0
	c0.03,0,0.06,0,0.09,0h22.15c0.41,0.02,0.75-0.3,0.77-0.71c0.02-0.4-0.28-0.73-0.68-0.77
	C185.59,1926.57,185.56,1926.57,185.53,1926.57z M185.53,1929.1h-22.15c-0.41,0-0.74,0.33-0.74,0.74s0.33,0.74,0.74,0.74h22.15
	c0.41,0,0.74-0.33,0.74-0.74S185.94,1929.1,185.53,1929.1z M184.42,1912.03h-19.93c-1.02,0-1.85,0.83-1.85,1.85v9.37
	c0,1.02,0.83,1.85,1.85,1.85h19.93c1.02,0,1.85-0.83,1.85-1.85v-9.37C186.26,1912.86,185.44,1912.03,184.42,1912.03L184.42,1912.03z
	 M166.96,1923.42h-1.9c-0.41,0-0.74-0.33-0.74-0.74s0.33-0.74,0.74-0.74h1.9c0.41,0,0.74,0.33,0.74,0.74
	S167.37,1923.42,166.96,1923.42z M166.96,1915.19h-1.9c-0.41,0-0.74-0.33-0.74-0.74s0.33-0.74,0.74-0.74h1.9
	c0.41,0,0.74,0.33,0.74,0.74S167.37,1915.19,166.96,1915.19z M174.46,1922.79c2.33,0,4.22-1.89,4.22-4.23
	c0-2.33-1.89-4.22-4.23-4.22c-2.33,0-4.22,1.89-4.22,4.23C170.24,1920.9,172.13,1922.78,174.46,1922.79L174.46,1922.79z
	 M183.85,1923.42h-1.9c-0.41,0-0.74-0.33-0.74-0.74s0.33-0.74,0.74-0.74h1.9c0.41,0,0.74,0.33,0.74,0.74
	S184.26,1923.42,183.85,1923.42z M183.85,1915.19h-1.9c-0.41,0-0.74-0.33-0.74-0.74s0.33-0.74,0.74-0.74h1.9
	c0.41,0,0.74,0.33,0.74,0.74S184.26,1915.19,183.85,1915.19z"/>
<circle fill="#3D4543" cx="174.45" cy="1918.67" r="2.8"/>
<rect x="216.8" y="1893.38" opacity="0.2" fill="#2E6AA0" enable-background="new    " width="100.59" height="55.85"/>
<rect x="216.8" y="1961.72" opacity="0.2" fill="#2E6AA0" enable-background="new    " width="100.59" height="55.85"/>
<rect x="236.58" y="1932.27" fill="#FFFFFF" width="3.04" height="10.2"/>
<rect x="242.38" y="1919.64" fill="#FFFFFF" width="3.04" height="22.83"/>
<rect x="248.18" y="1908.26" fill="#DFE2ED" width="3.04" height="34.21"/>
<rect x="253.98" y="1900.14" fill="#FFFFFF" width="3.04" height="42.33"/>
<rect x="248.18" y="1900.14" fill="#2E6AA0" width="3.04" height="42.33"/>
<rect x="259.77" y="1919.2" fill="#2E6AA0" width="3.04" height="23.27"/>
<rect x="265.57" y="1913.19" opacity="0.2" fill="#2E6AA0" enable-background="new    " width="3.04" height="29.28"/>
<rect x="271.37" y="1904.05" fill="#2E6AA0" width="3.04" height="38.41"/>
<rect x="277.17" y="1925.36" opacity="0.2" fill="#2E6AA0" enable-background="new    " width="3.04" height="17.11"/>
<rect x="282.97" y="1917.46" fill="#2E6AA0" width="3.04" height="25.01"/>
<rect x="288.77" y="1908.26" opacity="0.2" fill="#2E6AA0" enable-background="new    " width="3.04" height="34.21"/>
<rect x="294.57" y="1908.26" fill="#2E6AA0" width="3.04" height="34.21"/>
<path fill="#3D4543" d="M186.26,1982.89c0-0.93-0.76-1.68-1.69-1.69h-20.24c-0.93,0-1.68,0.76-1.69,1.69v2.53h23.62V1982.89z
	 M162.63,1996.39c0.01,0.93,0.76,1.68,1.69,1.69h20.25c0.93,0,1.69-0.76,1.69-1.69v-8.43h-23.62L162.63,1996.39z M170.13,1993.86
	h8.65c0.41-0.03,0.76,0.27,0.8,0.68c0.03,0.41-0.27,0.76-0.68,0.8c-0.01,0-0.02,0-0.03,0c-0.03,0-0.06,0-0.09,0h-8.65
	c-0.41-0.03-0.72-0.38-0.69-0.78C169.46,1994.18,169.76,1993.88,170.13,1993.86z M166.33,1993.86h0.63c0.41-0.03,0.76,0.27,0.8,0.68
	c0.03,0.41-0.27,0.76-0.68,0.8c-0.01,0-0.02,0-0.03,0c-0.03,0-0.06,0-0.09,0h-0.63c-0.41,0.02-0.75-0.3-0.77-0.71
	c-0.02-0.4,0.28-0.73,0.68-0.77C166.27,1993.86,166.3,1993.86,166.33,1993.86L166.33,1993.86z"/>
<rect x="236.58" y="2000.61" fill="#FFFFFF" width="3.04" height="10.2"/>
<rect x="242.38" y="1987.98" fill="#FFFFFF" width="3.04" height="22.83"/>
<rect x="248.18" y="1976.6" fill="#DFE2ED" width="3.04" height="34.21"/>
<rect x="253.98" y="1968.48" fill="#FFFFFF" width="3.04" height="42.33"/>
<rect x="248.18" y="1968.48" fill="#2E6AA0" width="3.04" height="42.33"/>
<rect x="259.77" y="1987.54" fill="#2E6AA0" width="3.04" height="23.27"/>
<rect x="265.57" y="1981.53" fill="#FFFFFF" width="3.04" height="29.28"/>
<rect x="271.37" y="1972.39" fill="#FFFFFF" width="3.04" height="38.41"/>
<rect x="277.17" y="1993.7" opacity="0.2" fill="#2E6AA0" enable-background="new    " width="3.04" height="17.11"/>
<rect x="282.97" y="1985.8" opacity="0.2" fill="#2E6AA0" enable-background="new    " width="3.04" height="25.01"/>
<rect x="288.77" y="1976.6" opacity="0.2" fill="#2E6AA0" enable-background="new    " width="3.04" height="34.21"/>
<rect x="294.57" y="1976.6" opacity="0.2" fill="#2E6AA0" enable-background="new    " width="3.04" height="34.21"/>
</svg>
