<?xml version="1.0" encoding="utf-8"?>
<!-- Generator: Adobe Illustrator 24.0.3, SVG Export Plug-In . SVG Version: 6.00 Build 0)  -->
<svg version="1.1" id="Layer_1" xmlns="http://www.w3.org/2000/svg" xmlns:xlink="http://www.w3.org/1999/xlink" x="0px" y="0px"
	 viewBox="0 0 500 2570" enable-background="new 0 0 500 2570" xml:space="preserve">
<title>all_steps</title>
<circle opacity="0.1" fill="#666666" enable-background="new    " cx="251.5" cy="616.5" r="169.5"/>
<circle opacity="0.1" fill="#666666" enable-background="new    " cx="261.5" cy="618.5" r="169.5"/>
<g opacity="0.5">
	
		<linearGradient id="SVGID_1_" gradientUnits="userSpaceOnUse" x1="225.901" y1="4639.4858" x2="225.901" y2="4436.5962" gradientTransform="matrix(1 0 0 1 0 -3929)">
		<stop  offset="0" style="stop-color:#808080;stop-opacity:0.25"/>
		<stop  offset="0.54" style="stop-color:#808080;stop-opacity:0.12"/>
		<stop  offset="1" style="stop-color:#808080;stop-opacity:0.1"/>
	</linearGradient>
	<rect x="150.41" y="507.6" fill="url(#SVGID_1_)" width="150.99" height="202.89"/>
</g>
<rect x="152.37" y="510.35" fill="#FFFFFF" width="146.27" height="195.81"/>
<rect x="163.78" y="518.61" fill="#DFDFDF" width="50.33" height="1.57"/>
<rect x="163.78" y="525.68" opacity="0.7" fill="#2E6AA0" enable-background="new    " width="50.33" height="1.57"/>
<rect x="221.58" y="518.61" fill="#DFDFDF" width="50.33" height="1.57"/>
<rect x="229.44" y="563.43" fill="#DFDFDF" width="50.33" height="1.57"/>
<rect x="230.62" y="567.76" fill="#DFDFDF" width="50.33" height="1.57"/>
<rect x="232.98" y="572.08" fill="#DFDFDF" width="50.33" height="1.57"/>
<rect x="229.44" y="633.03" fill="#DFDFDF" width="50.33" height="1.57"/>
<rect x="230.62" y="637.35" fill="#DFDFDF" width="50.33" height="1.57"/>
<rect x="232.98" y="641.68" fill="#DFDFDF" width="50.33" height="1.57"/>
<g opacity="0.5">
	
		<linearGradient id="SVGID_2_" gradientUnits="userSpaceOnUse" x1="190.9085" y1="4530.5698" x2="190.9085" y2="4476.3091" gradientTransform="matrix(1 0 0 1 0 -3929)">
		<stop  offset="0" style="stop-color:#808080;stop-opacity:0.25"/>
		<stop  offset="0.54" style="stop-color:#808080;stop-opacity:0.12"/>
		<stop  offset="1" style="stop-color:#808080;stop-opacity:0.1"/>
	</linearGradient>
	<rect x="164.17" y="547.31" fill="url(#SVGID_2_)" width="53.47" height="54.26"/>
</g>
<rect x="164.51" y="548.49" fill="#F4F4F4" width="52.63" height="51.9"/>
<g opacity="0.5">
	
		<linearGradient id="SVGID_3_" gradientUnits="userSpaceOnUse" x1="190.909" y1="4514.4492" x2="190.909" y2="4480.6348" gradientTransform="matrix(1 0 0 1 0 -3929)">
		<stop  offset="0" style="stop-color:#808080;stop-opacity:0.25"/>
		<stop  offset="0.54" style="stop-color:#808080;stop-opacity:0.12"/>
		<stop  offset="1" style="stop-color:#808080;stop-opacity:0.1"/>
	</linearGradient>
	<rect x="166.36" y="551.64" fill="url(#SVGID_3_)" width="49.09" height="33.81"/>
</g>
<rect x="166.7" y="552.03" fill="#FFFFFF" width="48.41" height="32.64"/>
<g>
	<defs>
		<rect id="SVGID_4_" x="166.7" y="552.03" width="48.41" height="32.64"/>
	</defs>
	<clipPath id="SVGID_5_">
		<use xlink:href="#SVGID_4_"  overflow="visible"/>
	</clipPath>
	<g clip-path="url(#SVGID_5_)">
		<g>
			<polygon opacity="0.4" fill="#2E6AA0" enable-background="new    " points="162.6,583.49 174.79,564.61 179.9,572.87 
				190.91,561.47 200.35,572.87 208.6,555.96 229.83,589.78 161.02,587.41 			"/>
			<circle opacity="0.4" fill="#2E6AA0" enable-background="new    " cx="172.03" cy="556.75" r="3.54"/>
		</g>
	</g>
</g>
<g opacity="0.5">
	
		<linearGradient id="SVGID_6_" gradientUnits="userSpaceOnUse" x1="190.9085" y1="4600.167" x2="190.9085" y2="4545.9062" gradientTransform="matrix(1 0 0 1 0 -3929)">
		<stop  offset="0" style="stop-color:#808080;stop-opacity:0.25"/>
		<stop  offset="0.54" style="stop-color:#808080;stop-opacity:0.12"/>
		<stop  offset="1" style="stop-color:#808080;stop-opacity:0.1"/>
	</linearGradient>
	<rect x="164.17" y="616.91" fill="url(#SVGID_6_)" width="53.47" height="54.26"/>
</g>
<rect x="164.51" y="618.08" fill="#F4F4F4" width="52.63" height="51.9"/>
<g opacity="0.5">
	
		<linearGradient id="SVGID_7_" gradientUnits="userSpaceOnUse" x1="190.909" y1="4584.0469" x2="190.909" y2="4550.2329" gradientTransform="matrix(1 0 0 1 0 -3929)">
		<stop  offset="0" style="stop-color:#808080;stop-opacity:0.25"/>
		<stop  offset="0.54" style="stop-color:#808080;stop-opacity:0.12"/>
		<stop  offset="1" style="stop-color:#808080;stop-opacity:0.1"/>
	</linearGradient>
	<rect x="166.36" y="621.23" fill="url(#SVGID_7_)" width="49.09" height="33.81"/>
</g>
<rect x="166.7" y="621.62" fill="#FFFFFF" width="48.41" height="32.64"/>
<g>
	<defs>
		<rect id="SVGID_8_" x="166.7" y="621.62" width="48.41" height="32.64"/>
	</defs>
	<clipPath id="SVGID_9_">
		<use xlink:href="#SVGID_8_"  overflow="visible"/>
	</clipPath>
	<g clip-path="url(#SVGID_9_)">
		<g>
			<polygon opacity="0.4" fill="#BCBCBC" enable-background="new    " points="162.6,653.08 174.79,634.21 179.9,642.46 
				190.91,631.06 200.35,642.46 208.6,625.56 229.83,659.37 161.02,657.01 			"/>
			<circle opacity="0.4" fill="#BCBCBC" enable-background="new    " cx="172.03" cy="626.34" r="3.54"/>
		</g>
	</g>
</g>
<g opacity="0.5">
	
		<linearGradient id="SVGID_10_" gradientUnits="userSpaceOnUse" x1="1104.2731" y1="3614.532" x2="1104.2731" y2="3411.6421" gradientTransform="matrix(0.9808 0.1949 -0.1949 0.9808 -131.9317 -3049.1611)">
		<stop  offset="0" style="stop-color:#808080;stop-opacity:0.25"/>
		<stop  offset="0.54" style="stop-color:#808080;stop-opacity:0.12"/>
		<stop  offset="1" style="stop-color:#808080;stop-opacity:0.1"/>
	</linearGradient>
	<polygon fill="url(#SVGID_10_)" points="172.57,696.57 212.12,497.57 360.21,527 320.66,726 	"/>
</g>
<rect x="168.25" y="537.8" transform="matrix(0.1949 -0.9808 0.9808 0.1949 -384.9407 752.9108)" fill="#FFFFFF" width="195.81" height="146.27"/>
<rect x="272.15" y="470.58" transform="matrix(0.1949 -0.9808 0.9808 0.1949 -292.7255 688.3372)" fill="#DFDFDF" width="1.57" height="103.81"/>
<rect x="243.18" y="616.36" transform="matrix(0.1949 -0.9808 0.9808 0.1949 -459.0325 777.2891)" fill="#DFDFDF" width="1.57" height="103.8"/>
<rect x="229.84" y="634.72" transform="matrix(0.1949 -0.9808 0.9808 0.1949 -476.2095 769.4952)" fill="#DFDFDF" width="1.57" height="80.21"/>
<rect x="203.4" y="663.86" transform="matrix(0.1949 -0.9808 0.9808 0.1949 -501.3919 746.7521)" opacity="0.7" fill="#2E6AA0" enable-background="new    " width="1.57" height="29.88"/>
<rect x="244.93" y="500.34" transform="matrix(0.1949 -0.9808 0.9808 0.1949 -318.3796 664.7094)" opacity="0.7" fill="#2E6AA0" enable-background="new    " width="1.57" height="51.9"/>
<rect x="263.61" y="492.43" transform="matrix(0.1949 -0.9808 0.9808 0.1949 -316.0231 693.4422)" fill="#DFDFDF" width="1.57" height="93.58"/>
<rect x="227.14" y="529.8" transform="matrix(0.1949 -0.9808 0.9808 0.1949 -347.3222 659.2573)" opacity="0.7" fill="#6CCEA1" enable-background="new    " width="1.57" height="22.8"/>
<rect x="265.1" y="506.06" transform="matrix(0.1949 -0.9808 0.9808 0.1949 -333.2025 709.9888)" fill="#DFDFDF" width="1.57" height="103.8"/>
<g opacity="0.5">
	
		<linearGradient id="SVGID_11_" gradientUnits="userSpaceOnUse" x1="1104.078" y1="3548.083" x2="1104.078" y2="3494.6101" gradientTransform="matrix(0.9808 0.1949 -0.1949 0.9808 -131.9346 -3049.1641)">
		<stop  offset="0" style="stop-color:#808080;stop-opacity:0.25"/>
		<stop  offset="0.54" style="stop-color:#808080;stop-opacity:0.12"/>
		<stop  offset="1" style="stop-color:#808080;stop-opacity:0.1"/>
	</linearGradient>
	<polygon fill="url(#SVGID_11_)" points="213.68,636.99 224.1,584.54 315.5,602.7 305.08,655.15 	"/>
</g>
<rect x="238.5" y="573.65" transform="matrix(0.1949 -0.9808 0.9808 0.1949 -394.7097 758.4388)" fill="#FFFFFF" width="52.3" height="92.01"/>
<rect x="263.46" y="514.92" transform="matrix(0.195 -0.9808 0.9808 0.195 -343.2306 715.4965)" fill="#DFDFDF" width="1.57" height="103.83"/>
<rect x="215.49" y="607.97" transform="matrix(0.1949 -0.9808 0.9808 0.1949 -413.0622 724.125)" fill="#2E6AA0" width="38.14" height="11.4"/>
<rect x="240.61" y="618.13" transform="matrix(0.1949 -0.9808 0.9808 0.1949 -407.867 750.768)" fill="#6CCEA1" width="25.56" height="11.4"/>
<rect x="265.42" y="627.9" transform="matrix(0.1949 -0.9808 0.9808 0.1949 -402.2285 777.1785)" fill="#E2694E" width="13.76" height="11.4"/>
<linearGradient id="SVGID_12_" gradientUnits="userSpaceOnUse" x1="490.1219" y1="4691.3345" x2="490.1219" y2="4555.0308" gradientTransform="matrix(1 0 0 1 -179 -3989.54)">
	<stop  offset="0" style="stop-color:#B2B2B2;stop-opacity:0.25"/>
	<stop  offset="0.54" style="stop-color:#B2B2B2;stop-opacity:0.1"/>
	<stop  offset="1" style="stop-color:#B2B2B2;stop-opacity:0.05"/>
</linearGradient>
<path fill="url(#SVGID_12_)" d="M334.68,581.6c-20.09-20.9-53.32-21.55-74.21-1.46c0,0,0,0,0,0c-0.31,0.29-0.61,0.59-0.91,0.89
	c-20.4,20.59-20.25,53.82,0.34,74.22c17.75,17.59,45.44,20.22,66.19,6.29l37.94,39.46c0.98,1.02,2.59,1.05,3.61,0.07c0,0,0,0,0,0
	l9.45-9.09c1.02-0.98,1.05-2.6,0.07-3.61l-37.93-39.46C354.25,628.34,352.33,599.96,334.68,581.6z M322.86,645.05
	c-14.95,14.37-38.71,13.9-53.08-1.05c-14.37-14.95-13.9-38.71,1.05-53.08c14.95-14.37,38.71-13.9,53.08,1.04
	C338.28,606.91,337.81,630.68,322.86,645.05C322.86,645.05,322.86,645.05,322.86,645.05z"/>
<linearGradient id="SVGID_13_" gradientUnits="userSpaceOnUse" x1="448.0383" y1="4603.645" x2="448.0383" y2="4597.083" gradientTransform="matrix(1 0 0 1 -179 -3989.54)">
	<stop  offset="0" style="stop-color:#000000;stop-opacity:0.12"/>
	<stop  offset="0.55" style="stop-color:#000000;stop-opacity:0.09"/>
	<stop  offset="1" style="stop-color:#000000;stop-opacity:0.02"/>
</linearGradient>
<path fill="url(#SVGID_13_)" d="M269.04,607.54c-4.22,0-4.23,6.56,0,6.56S273.27,607.54,269.04,607.54z"/>
<linearGradient id="SVGID_14_" gradientUnits="userSpaceOnUse" x1="478.1797" y1="4596.1201" x2="478.1797" y2="4576.0488" gradientTransform="matrix(1 0 0 1 -179 -3989.54)">
	<stop  offset="0" style="stop-color:#000000;stop-opacity:0.12"/>
	<stop  offset="0.55" style="stop-color:#000000;stop-opacity:0.09"/>
	<stop  offset="1" style="stop-color:#000000;stop-opacity:0.02"/>
</linearGradient>
<path fill="url(#SVGID_14_)" d="M298.47,586.52c-10.88-0.33-21.17,4.98-27.2,14.05c-1.79,2.81,3.3,5.29,5.08,2.5
	c4.55-7.12,13.2-11.65,22.56-11.41c9.61,0.34,18.41,5.46,23.45,13.64c1.79,2.95,6.49,0.27,4.71-2.67
	C321.33,593.2,310.2,586.8,298.47,586.52z"/>
<path fill="#2E6AA0" d="M338.8,579.61c-20.09-20.9-53.32-21.55-74.21-1.46c-0.31,0.29-0.61,0.59-0.91,0.89
	c-20.4,20.59-20.25,53.81,0.33,74.22c17.75,17.59,45.45,20.23,66.2,6.29l37.94,39.47c0.98,1.02,2.6,1.05,3.61,0.07l9.45-9.09
	c1.02-0.98,1.05-2.59,0.07-3.61c0,0,0,0,0,0l-37.94-39.46C358.36,626.35,356.45,597.97,338.8,579.61z M326.98,643.03
	c-14.95,14.37-38.71,13.9-53.08-1.05s-13.9-38.71,1.05-53.08c14.95-14.37,38.71-13.9,53.08,1.04
	C342.39,604.89,341.93,628.66,326.98,643.03C326.98,643.03,326.98,643.03,326.98,643.03z"/>
<path fill="#2E6AA0" d="M273.15,605.55c-4.22,0-4.23,6.56,0,6.56S277.38,605.55,273.15,605.55z"/>
<path fill="#2E6AA0" d="M302.58,584.53c-10.88-0.33-21.17,4.98-27.2,14.05c-1.8,2.81,3.3,5.29,5.08,2.5
	c4.55-7.12,13.2-11.65,22.56-11.41c9.6,0.34,18.4,5.45,23.45,13.63c1.79,2.95,6.49,0.27,4.71-2.67
	C325.44,591.18,314.33,584.78,302.58,584.53z"/>
</svg>
