<svg xmlns="http://www.w3.org/2000/svg" viewBox="0 0 1008 1417">
<style>
/* <![CDATA[ */

#album_covers {
  animation: album_covers 14s ease-in-out infinite;
}

@keyframes album_covers {
  0%, 17.857% {
    transform: translate(0px, 0px);
  }
  25%, 42.857%{
    transform: translate(-662px, 0px);
  }
  50%, 67.857%
  {
    transform: translate(-1324px, 0px);
  }
  75%, 92.857%
  {
    transform: translate(-1986px, 0px);
  }
  100%{
    transform: translate(-2648px, 0px);
  }
}

#top_eq1 {
  animation: top_eq1 14s ease-in-out infinite;
}

@keyframes top_eq1 {
  0%, 17.857% {
    transform: translate(-35.38px, 0px);
  }
  25%, 42.857%{
    transform: translate(-61.5px, 0px);
  }
  50%, 67.857%
  {
    transform: translate(-67.5px, 0px);
  }
  75%, 92.857%
  {
    transform: translate(-53.5px, 0px);
  }
  100%{
    transform: translate(-35.38px, 0px);
  }
}

#top_eq2 {
  animation: top_eq2 14s ease-in-out infinite;
}

@keyframes top_eq2 {
  0%, 17.857% {
    transform: translate(-1.09px, 0px);
  }
  25%, 42.857%{
    transform: translate(-99.5px, 0px);
  }
  50%, 67.857%
  {
    transform: translate(-50.5px, 0px);
  }
  75%, 92.857%
  {
    transform: translate(-100.5px, 0px);
  }
  100%{
    transform: translate(-1.09px, 0px);
  }
}

#top_eq3 {
  animation: top_eq3 14s ease-in-out infinite;
}

@keyframes top_eq3 {
  0%, 17.857% {
    transform: translate(-58.99px, 0px);
  }
  25%, 42.857%{
    transform: translate(-47.99px, 0px);
  }
  50%, 67.857%
  {
    transform: translate(-121.5px, 0px);
  }
  75%, 92.857%
  {
    transform: translate(-18.5px, 0px);
  }
  100%{
    transform: translate(-58.99px, 0px);
  }
}

#top_eq4 {
  animation: top_eq4 14s ease-in-out infinite;
}

@keyframes top_eq4 {
  0%, 17.857% {
    transform: translate(-97.87px, 0px);
  }
  25%, 42.857%{
    transform: translate(-87.87px, 0px);
  }
  50%, 67.857%
  {
    transform: translate(-25.5px, 0px);
  }
  75%, 92.857%
  {
    transform: translate(-71.5px, 0px);
  }
  100%{
    transform: translate(-97.87px, 0px);
  }
}

#top_eq5 {
  animation: top_eq5 14s ease-in-out infinite;
}

@keyframes top_eq5 {
  0%, 17.857% {
    transform: translate(-28.8px, 0px);
  }
  25%, 42.857%{
    transform: translate(-109.8px, 0px);
  }
  50%, 67.857%
  {
    transform: translate(-39.5px, 0px);
  }
  75%, 92.857%
  {
    transform: translate(-94.5px, 0px);
  }
  100%{
    transform: translate(-28.8px, 0px);
  }
}

#eq1 {
  opacity: 0;
  animation: eq1 14s ease infinite;
}

@keyframes eq1 {
  0%, 17.857% {
    opacity: 1;
  }
  25%, 42.857%{
    opacity: 0;
  }
  50%, 67.857%
  {
    opacity: 0;
  }
  75%, 92.857%
  {
    opacity: 0;
  }
  100%{
    opacity: 1;
  }
}

#eq2 {
  opacity: 0;
  animation: eq2 14s ease infinite;
}

@keyframes eq2 {
  0%, 17.857% {
    opacity: 0;
  }
  25%, 42.857%{
    opacity: 1;
  }
  50%, 67.857%
  {
    opacity: 0;
  }
  75%, 92.857%
  {
    opacity: 0;
  }
  100%{
    opacity: 0;
  }
}

#eq3 {
  opacity: 0;
  animation: eq3 14s ease infinite;
}

@keyframes eq3 {
  0%, 17.857% {
    opacity: 0;
  }
  25%, 42.857%{
    opacity: 0;
  }
  50%, 67.857%
  {
    opacity: 1;
  }
  75%, 92.857%
  {
    opacity: 0;
  }
  100%{
    opacity: 0;
  }
}

#eq4 {
  opacity: 0;
  animation: eq4 14s ease infinite;
}

@keyframes eq4 {
  0%, 17.857% {
    opacity: 0;
  }
  25%, 42.857%{
    opacity: 0;
  }
  50%, 67.857%
  {
    opacity: 0;
  }
  75%, 92.857%
  {
    opacity: 1;
  }
  100%{
    opacity: 0;
  }
}

#bttm_eq1 {
  animation: bttm_eq 3s linear infinite;
}
#bttm_eq2 {
  animation: bttm_eq 3s -.8s linear infinite;
}
#bttm_eq3 {
  animation: bttm_eq 3s -1.6s linear infinite;
}
#bttm_eq4 {
  animation: bttm_eq 3s -2.4s linear infinite;
}

@keyframes bttm_eq {
  0% {
    transform: translate(0px, 8px);
  }
  10% {
    transform: translate(0px, 18px);
  }
  20% {
    transform: translate(0px, 0px);
  }
  30% {
    transform: translate(0px, 20px);
  }
  40% {
    transform: translate(0px, 16px);
  }
  50% {
    transform: translate(0px, 32px);
  }
  60% {
    transform: translate(0px, 10px);
  }
  70% {
    transform: translate(0px, 14px);
  }
  80% {
    transform: translate(0px, 26px);
  }
  90% {
    transform: translate(0px, 0px);
  }
  100% {
    transform: translate(0px, 8px);
  }
}

/* ]]> */
</style>
  <g fill="none" stroke="#007AFF" stroke-linecap="round" stroke-miterlimit="10" stroke-width="17.35">
    <line id="top_eq1" x1="685" x2="870" y1="106.77" y2="106.77"/>
    <line id="top_eq2" x1="685" x2="870" y1="147.81" y2="147.81"/>
    <line id="top_eq3" x1="685" x2="870" y1="188.84" y2="188.84"/>
    <line id="top_eq4" x1="685" x2="870" y1="229.87" y2="229.87"/>
    <line id="top_eq5" x1="685" x2="870" y1="270.9" y2="270.9"/>
  </g>
  <g id="phone">
    <path fill="#3E3F40" d="M4.68 191.98h2.34v51.5H4.68A4.68 4.68 0 010 238.8v-42.14c0-2.59 2.1-4.68 4.68-4.68z"/>
    <path fill="#3E3F40" d="M697 325.42h2.35c2.58 0 4.68 2.1 4.68 4.68v152.18c0 2.58-2.1 4.68-4.68 4.68H697V325.42z"/>
    <path fill="#3E3F40" d="M4.68 290.3h2.34v103.01H4.68A4.68 4.68 0 010 388.63v-93.65c0-2.58 2.1-4.68 4.68-4.68z"/>
    <path fill="#3E3F40" d="M4.68 419.07h2.34v103H4.68A4.68 4.68 0 010 517.4v-93.65c0-2.59 2.1-4.68 4.68-4.68z"/>
    <path fill="#131415" d="M139.06 0h428.87c45.92 0 62.57 4.77 79.36 13.76a93.6 93.6 0 0138.94 38.94c8.98 16.78 13.76 33.44 13.76 79.36v1152.28c0 45.92-4.77 62.57-13.76 79.36a93.6 93.6 0 01-38.94 38.94c-16.79 8.98-33.44 13.76-79.36 13.76H139.07c-45.92 0-62.57-4.77-79.36-13.76a93.6 93.6 0 01-38.94-38.94C11.78 1346.91 7 1330.26 7 1284.34V132.06c0-45.91 4.77-62.57 13.76-79.35a93.6 93.6 0 0138.94-38.94C76.5 4.77 93.15 0 139.06 0z"/>
    <path fill="#3B3F48" d="M315.4 51.5h70.23a4.68 4.68 0 110 9.37H315.4a4.68 4.68 0 110-9.36z"/>
    <circle cx="425.43" cy="56.19" r="9.37" fill="#3B3F48"/>
    <path fill="#FFF" d="M172.58 32.78c4.68 0 7.02 2.34 7.02 7.02v4.69a37.46 37.46 0 0037.45 37.45h266.9A37.46 37.46 0 00521.4 44.5V39.8c0-4.68 2.34-7.02 7.02-7.02h45.76c31.3 0 42.66 3.25 54.1 9.38a63.82 63.82 0 0126.55 26.55c6.13 11.44 9.38 22.8 9.38 54.1V1293.6c0 31.3-3.25 42.66-9.38 54.1a63.82 63.82 0 01-26.55 26.56c-11.44 6.12-22.8 9.38-54.1 9.38H126.82c-31.3 0-42.66-3.26-54.1-9.38a63.82 63.82 0 01-26.55-26.55c-6.13-11.45-9.38-22.8-9.38-54.11V122.81c0-31.3 3.25-42.66 9.38-54.1a63.82 63.82 0 0126.55-26.55c11.44-6.13 22.8-9.38 54.1-9.38h45.76z"/>
    <path d="M590.35 66.88l-3.4-3.42a.53.53 0 010-.76l.02-.02a5.82 5.82 0 017.51 0 .53.53 0 01.02.77l-3.4 3.43c-.2.2-.54.2-.74 0h-.01zm5.97-6a8.34 8.34 0 00-11.19 0c-.2.2-.53.2-.73 0l-1.95-1.98a.54.54 0 01-.16-.39c0-.15.06-.28.17-.39a12.17 12.17 0 0116.56 0c.22.21.22.56.01.77v.01l-1.96 1.98c-.2.2-.53.2-.74 0zm4.52-4.55a14.69 14.69 0 00-20.23 0c-.2.2-.53.2-.73 0l-1.97-2a.55.55 0 01-.16-.38c0-.15.06-.28.17-.39a18.53 18.53 0 0125.62 0c.21.21.21.56 0 .77l-1.97 1.99c-.1.1-.23.15-.36.15a.53.53 0 01-.37-.15z"/>
    <path d="M568.08 67.04a1.7 1.7 0 01-1.7-1.7V50.69c0-.93.76-1.7 1.7-1.7h1.69c.93 0 1.69.77 1.69 1.7v14.66c0 .94-.76 1.7-1.7 1.7h-1.68zm-7.9 0a1.7 1.7 0 01-1.7-1.7V54.64c0-.94.76-1.7 1.7-1.7h1.69c.93 0 1.7.76 1.7 1.7v10.71c0 .94-.77 1.7-1.7 1.7h-1.7zm-7.9 0a1.7 1.7 0 01-1.7-1.7v-6.76c.01-.94.77-1.7 1.7-1.7h1.7c.93 0 1.69.76 1.69 1.7v6.77c0 .93-.76 1.69-1.7 1.69h-1.7zm-7.9 0a1.7 1.7 0 01-1.68-1.7v-3.38c0-.93.75-1.69 1.69-1.7h1.69c.93 0 1.7.77 1.7 1.7v3.38c0 .94-.77 1.7-1.7 1.7h-1.7z"/>
    <g fill="#304768">
      <path d="M296.4 142.05h4.33v2.16c1-1.28 2.3-2.45 4.49-2.45 1.98 0 3.5.88 4.29 2.42a6.27 6.27 0 015-2.42c3.2 0 5.14 1.93 5.14 5.6v9.92h-4.32v-8.5c0-2.05-.9-3.1-2.53-3.1s-2.61 1.05-2.61 3.1v8.5h-4.32v-8.5c0-2.05-.91-3.1-2.53-3.1-1.62 0-2.61 1.05-2.61 3.1v8.5h-4.32v-15.23z"/>
      <path d="M322.66 149.75v-.06c0-4.35 3.1-7.93 7.52-7.93 5.09 0 7.42 3.95 7.42 8.27 0 .34-.03.74-.06 1.14h-10.6c.43 1.96 1.8 2.98 3.73 2.98a5 5 0 003.7-1.56l2.46 2.19a7.61 7.61 0 01-6.22 2.84c-4.57 0-7.95-3.21-7.95-7.87zm10.74-1.28c-.26-1.93-1.4-3.24-3.21-3.24-1.8 0-2.96 1.28-3.3 3.24h6.5z"/>
      <path d="M341 136.53h4.32v20.75h-4.31v-20.75z"/>
      <path d="M348.65 149.75v-.06c0-4.38 3.52-7.93 8.27-7.93 4.71 0 8.2 3.5 8.2 7.87v.06c0 4.37-3.52 7.93-8.26 7.93-4.72 0-8.21-3.5-8.21-7.87zm12.21 0v-.06c0-2.25-1.62-4.2-4-4.2-2.47 0-3.95 1.9-3.95 4.14v.06c0 2.24 1.62 4.2 4 4.2 2.48 0 3.95-1.9 3.95-4.14z"/>
      <path d="M367.56 149.69v-.06c0-5.08 3.33-7.87 6.94-7.87 2.3 0 3.72 1.05 4.74 2.28v-7.5h4.32v20.73h-4.32v-2.18a5.6 5.6 0 01-4.74 2.47c-3.55 0-6.94-2.78-6.94-7.87zm11.74 0v-.06c0-2.53-1.68-4.2-3.7-4.2-2.01 0-3.72 1.64-3.72 4.2v.06c0 2.53 1.7 4.2 3.72 4.2 2.02 0 3.7-1.67 3.7-4.2z"/>
      <path d="M387.5 136.53h4.55v3.84h-4.54v-3.84zm.12 5.52h4.32v15.22h-4.32v-15.22z"/>
      <path d="M395.09 152.9v-.06c0-3.32 2.53-4.85 6.14-4.85 1.53 0 2.64.25 3.72.62v-.26c0-1.79-1.1-2.78-3.27-2.78-1.65 0-2.81.31-4.2.82l-1.08-3.3a13.44 13.44 0 015.9-1.21c2.36 0 4.07.62 5.15 1.7 1.14 1.14 1.65 2.81 1.65 4.86v8.84h-4.18v-1.65a5.85 5.85 0 01-4.6 1.93c-2.87 0-5.23-1.65-5.23-4.66zm9.92-1v-.76a6.7 6.7 0 00-2.76-.57c-1.85 0-2.98.74-2.98 2.1v.06c0 1.17.96 1.85 2.35 1.85 2.02 0 3.38-1.11 3.38-2.67z"/>
    </g>
    <g fill="#A1B0C8">
      <path d="M299.42 944.2c-.88 0-1.59.71-1.59 1.59v22.22a1.59 1.59 0 103.17 0V945.8c0-.88-.7-1.59-1.58-1.59z"/>
      <path d="M305.76 942.62c-.87 0-1.58.7-1.58 1.58v25.4a1.59 1.59 0 103.17 0v-25.4c0-.87-.7-1.58-1.59-1.58z"/>
      <path d="M312.11 936.27c-.87 0-1.58.7-1.58 1.59v36.5a1.59 1.59 0 103.17 0v-36.5c0-.88-.71-1.6-1.59-1.6z"/>
      <path d="M318.46 941.03c-.87 0-1.58.71-1.58 1.59v28.56a1.59 1.59 0 003.17 0v-28.56c0-.88-.71-1.6-1.59-1.6z"/>
      <path d="M324.81 942.62c-.87 0-1.58.7-1.58 1.58v23.81a1.59 1.59 0 103.17 0v-23.8c0-.88-.71-1.6-1.59-1.6z"/>
      <path d="M331.16 944.2c-.88 0-1.59.71-1.59 1.59v20.63a1.59 1.59 0 103.18 0V945.8c0-.88-.71-1.59-1.59-1.59z"/>
      <path d="M337.5 945.79c-.87 0-1.58.71-1.58 1.59v17.46a1.59 1.59 0 103.18 0v-17.46c0-.88-.72-1.59-1.6-1.59z"/>
      <path d="M343.86 947.38c-.88 0-1.59.7-1.59 1.59v15.87a1.59 1.59 0 003.17 0v-15.87c0-.88-.7-1.6-1.58-1.6z"/>
      <path d="M356.56 941.03c-.88 0-1.6.71-1.6 1.59v26.98a1.59 1.59 0 103.18 0v-26.98c0-.88-.7-1.6-1.58-1.6z"/>
      <path d="M350.2 939.44c-.87 0-1.58.71-1.58 1.59v31.74a1.59 1.59 0 103.17 0v-31.74c0-.88-.7-1.59-1.59-1.59z"/>
      <path d="M369.25 944.2c-.87 0-1.58.71-1.58 1.59v20.63a1.59 1.59 0 103.17 0V945.8c0-.88-.71-1.59-1.59-1.59z"/>
      <path d="M375.6 941.03c-.88 0-1.59.71-1.59 1.59v28.56a1.59 1.59 0 003.18 0v-28.56c0-.88-.71-1.6-1.59-1.6z"/>
      <path d="M381.95 947.38c-.88 0-1.59.7-1.59 1.59v14.28a1.59 1.59 0 103.18 0v-14.29c0-.87-.72-1.58-1.6-1.58z"/>
      <path d="M388.3 948.97c-.88 0-1.59.7-1.59 1.58v11.11a1.59 1.59 0 103.17 0v-11.1c0-.88-.7-1.6-1.58-1.6z"/>
      <path d="M394.65 941.03c-.88 0-1.59.71-1.59 1.59v26.98a1.59 1.59 0 103.17 0v-26.98c0-.88-.7-1.6-1.58-1.6z"/>
      <path d="M401 942.62c-.88 0-1.6.7-1.6 1.58v23.81a1.59 1.59 0 103.18 0v-23.8c0-.88-.7-1.6-1.58-1.6z"/>
      <path d="M407.34 936.27c-.87 0-1.58.7-1.58 1.59v36.5a1.59 1.59 0 103.17 0v-36.5c0-.88-.71-1.6-1.59-1.6z"/>
      <path d="M413.7 941.03c-.88 0-1.6.71-1.6 1.59v26.98a1.59 1.59 0 103.18 0v-26.98c0-.88-.71-1.6-1.59-1.6z"/>
      <path d="M420.04 942.62c-.88 0-1.59.7-1.59 1.58v25.4a1.59 1.59 0 103.18 0v-25.4c0-.87-.71-1.58-1.59-1.58z"/>
      <path d="M426.4 947.38c-.88 0-1.6.7-1.6 1.59v14.28a1.59 1.59 0 103.18 0v-14.29c0-.87-.71-1.58-1.59-1.58z"/>
      <path d="M439.09 947.38c-.88 0-1.59.7-1.59 1.59v14.28a1.59 1.59 0 103.17 0v-14.29c0-.87-.7-1.58-1.58-1.58z"/>
      <path d="M445.44 933.1c-.88 0-1.6.7-1.6 1.58v42.85a1.59 1.59 0 103.18 0v-42.85c0-.88-.7-1.59-1.58-1.59z"/>
      <path d="M432.74 944.2c-.88 0-1.59.71-1.59 1.59v20.63a1.59 1.59 0 103.18 0V945.8c0-.88-.71-1.59-1.6-1.59z"/>
      <path d="M362.9 941.03c-.87 0-1.58.71-1.58 1.59V969.6a1.59 1.59 0 103.17 0V942.62c0-.88-.71-1.6-1.59-1.6z"/>
      <path d="M451.78 941.03c-.87 0-1.58.71-1.58 1.59v26.98a1.59 1.59 0 103.17 0v-26.98c0-.88-.71-1.6-1.59-1.6z"/>
      <path d="M458.13 937.86c-.87 0-1.58.7-1.58 1.58v33.33a1.59 1.59 0 103.17 0v-33.33c0-.87-.71-1.59-1.59-1.59z"/>
      <path d="M470.83 942.62c-.88 0-1.59.7-1.59 1.58v25.4a1.59 1.59 0 103.18 0v-25.4c0-.87-.71-1.58-1.59-1.58z"/>
      <path d="M464.48 939.44c-.87 0-1.58.71-1.58 1.59v30.16a1.59 1.59 0 003.17 0v-30.16c0-.88-.71-1.59-1.59-1.59z"/>
      <path d="M477.18 944.2c-.88 0-1.59.71-1.59 1.59v20.63a1.59 1.59 0 103.18 0V945.8c0-.88-.71-1.59-1.6-1.59z"/>
      <path d="M483.53 950.55c-.88 0-1.59.72-1.59 1.6v9.51a1.59 1.59 0 103.17 0v-9.52c0-.88-.7-1.59-1.58-1.59z"/>
      <path d="M489.88 950.55c-.88 0-1.6.72-1.6 1.6v7.93a1.59 1.59 0 103.18 0v-7.94c0-.88-.7-1.59-1.58-1.59z"/>
      <path d="M496.23 948.97c-.88 0-1.6.7-1.6 1.58v12.7a1.59 1.59 0 103.18 0v-12.7c0-.88-.7-1.58-1.58-1.58z"/>
      <path d="M502.57 944.2c-.87 0-1.58.71-1.58 1.59v20.63a1.59 1.59 0 103.17 0V945.8c0-.88-.7-1.59-1.59-1.59z"/>
      <path d="M508.92 952.14c-.87 0-1.58.71-1.58 1.59v6.35a1.59 1.59 0 103.17 0v-6.35c0-.88-.71-1.59-1.59-1.59z"/>
      <path d="M515.27 948.97c-.88 0-1.59.7-1.59 1.58v11.11a1.59 1.59 0 003.18 0v-11.1c0-.88-.71-1.6-1.59-1.6z"/>
      <path d="M521.62 944.2c-.88 0-1.59.71-1.59 1.59v20.63a1.59 1.59 0 103.18 0V945.8c0-.88-.72-1.59-1.6-1.59z"/>
      <path d="M527.97 939.44c-.88 0-1.59.71-1.59 1.59v30.16a1.59 1.59 0 003.18 0v-30.16c0-.88-.71-1.59-1.6-1.59z"/>
      <path d="M534.32 950.55c-.88 0-1.59.72-1.59 1.6v7.93a1.59 1.59 0 103.17 0v-7.94c0-.88-.7-1.59-1.58-1.59z"/>
      <path d="M540.67 948.97c-.88 0-1.6.7-1.6 1.58v11.11a1.59 1.59 0 103.18 0v-11.1c0-.88-.7-1.6-1.58-1.6z"/>
      <path d="M553.36 950.55c-.88 0-1.59.72-1.59 1.6v7.93a1.59 1.59 0 103.18 0v-7.94c0-.88-.71-1.59-1.59-1.59z"/>
      <path d="M559.71 953.73c-.88 0-1.59.7-1.59 1.58v3.18a1.59 1.59 0 003.18 0v-3.18c0-.87-.71-1.58-1.59-1.58z"/>
      <path d="M547.01 952.14c-.87 0-1.58.71-1.58 1.59v6.35a1.59 1.59 0 103.17 0v-6.35c0-.88-.7-1.59-1.59-1.59z"/>
      <path d="M566.06 953.73c-.88 0-1.59.7-1.59 1.58v3.18a1.59 1.59 0 103.18 0v-3.18c0-.87-.71-1.58-1.59-1.58z"/>
      <path d="M572.4 953.73c-.87 0-1.58.7-1.58 1.58v3.18a1.59 1.59 0 003.18 0v-3.18c0-.87-.71-1.58-1.6-1.58z"/>
    </g>
    <g fill="#007AFF">
      <path d="M159.75 944.2c-.88 0-1.59.71-1.59 1.59v20.63a1.59 1.59 0 103.17 0V945.8c0-.88-.7-1.59-1.58-1.59z"/>
      <path d="M166.1 941.03c-.88 0-1.6.71-1.6 1.59v26.98a1.59 1.59 0 103.18 0v-26.98c0-.88-.7-1.6-1.59-1.6z"/>
      <path d="M172.44 941.03c-.87 0-1.58.71-1.58 1.59v28.56a1.59 1.59 0 003.17 0v-28.56c0-.88-.71-1.6-1.59-1.6z"/>
      <path d="M178.8 942.62c-.89 0-1.6.7-1.6 1.58v25.4a1.59 1.59 0 103.18 0v-25.4c0-.87-.71-1.58-1.59-1.58z"/>
      <path d="M185.14 945.79c-.88 0-1.59.71-1.59 1.59v19.04a1.59 1.59 0 103.18 0v-19.04c0-.88-.71-1.59-1.59-1.59z"/>
      <path d="M191.49 947.38c-.88 0-1.59.7-1.59 1.59v15.87a1.59 1.59 0 103.18 0v-15.87c0-.88-.71-1.6-1.59-1.6z"/>
      <path d="M197.84 948.97c-.88 0-1.59.7-1.59 1.58v12.7a1.59 1.59 0 103.17 0v-12.7c0-.88-.7-1.58-1.58-1.58z"/>
      <path d="M204.19 948.97c-.88 0-1.59.7-1.59 1.58v11.11a1.59 1.59 0 003.17 0v-11.1c0-.88-.7-1.6-1.58-1.6z"/>
      <path d="M210.53 942.62c-.87 0-1.58.7-1.58 1.58v23.81a1.59 1.59 0 103.17 0v-23.8c0-.88-.7-1.6-1.59-1.6z"/>
      <path d="M216.88 945.79c-.87 0-1.58.71-1.58 1.59v19.04a1.59 1.59 0 103.17 0v-19.04c0-.88-.71-1.59-1.59-1.59z"/>
      <path d="M223.23 947.38c-.87 0-1.58.7-1.58 1.59v14.28a1.59 1.59 0 103.17 0v-14.29c0-.87-.71-1.58-1.59-1.58z"/>
      <path d="M229.58 950.55c-.87 0-1.59.72-1.59 1.6v9.51a1.59 1.59 0 103.18 0v-9.52c0-.88-.71-1.59-1.59-1.59z"/>
      <path d="M242.28 948.97c-.88 0-1.59.7-1.59 1.58v11.11a1.59 1.59 0 103.17 0v-11.1c0-.88-.7-1.6-1.58-1.6z"/>
      <path d="M248.63 937.86c-.88 0-1.59.7-1.59 1.58v33.33a1.59 1.59 0 103.17 0v-33.33c0-.87-.7-1.59-1.58-1.59z"/>
      <path d="M254.98 944.2c-.88 0-1.59.71-1.59 1.59v22.22a1.59 1.59 0 103.17 0V945.8c0-.88-.7-1.59-1.58-1.59z"/>
      <path d="M261.32 942.62c-.87 0-1.58.7-1.58 1.58v25.4a1.59 1.59 0 103.17 0v-25.4c0-.87-.7-1.58-1.59-1.58z"/>
      <path d="M267.67 948.97c-.87 0-1.58.7-1.58 1.58v12.7a1.59 1.59 0 103.17 0v-12.7c0-.88-.71-1.58-1.59-1.58z"/>
      <path d="M274.02 950.55c-.87 0-1.58.72-1.58 1.6v7.93a1.59 1.59 0 103.17 0v-7.94c0-.88-.71-1.59-1.59-1.59z"/>
      <path d="M280.37 950.55c-.88 0-1.59.72-1.59 1.6v9.51a1.59 1.59 0 103.18 0v-9.52c0-.88-.71-1.59-1.59-1.59z"/>
      <path d="M286.72 948.97c-.88 0-1.59.7-1.59 1.58v11.11a1.59 1.59 0 003.18 0v-11.1c0-.88-.71-1.6-1.6-1.6z"/>
      <path d="M293.07 948.97c-.88 0-1.59.7-1.59 1.58v12.7a1.59 1.59 0 103.18 0v-12.7c0-.88-.72-1.58-1.6-1.58z"/>
      <path d="M235.93 950.55c-.88 0-1.59.72-1.59 1.6v7.93a1.59 1.59 0 103.18 0v-7.94c0-.88-.71-1.59-1.59-1.59z"/>
      <path d="M153.4 947.38c-.88 0-1.59.7-1.59 1.59v14.28a1.59 1.59 0 103.17 0v-14.29c0-.87-.7-1.58-1.58-1.58z"/>
      <path d="M147.05 950.55c-.88 0-1.59.72-1.59 1.6v7.93a1.59 1.59 0 103.17 0v-7.94c0-.88-.7-1.59-1.58-1.59z"/>
      <path d="M140.7 950.55c-.88 0-1.59.72-1.59 1.6v7.93a1.59 1.59 0 103.18 0v-7.94c0-.88-.71-1.59-1.59-1.59z"/>
      <path d="M134.35 950.55c-.88 0-1.59.72-1.59 1.6v7.93a1.59 1.59 0 103.18 0v-7.94c0-.88-.71-1.59-1.59-1.59z"/>
    </g>
    <path fill="#8394B0" d="M544.21 1081.43h-19.03a4.24 4.24 0 01-4.23-4.23v-21.15c-.01-1.12.44-2.2 1.24-2.98l13.92-13.94 2.24 2.22c.6.6.93 1.4.93 2.24l-.06.68-2.01 9.66h13.34c2.34 0 4.23 1.9 4.23 4.23v4.23c0 .53-.1 1.05-.3 1.55l-6.38 14.91a4.2 4.2 0 01-3.89 2.58zm-28.34 0h-8.46v-25.38h8.46v25.38z"/>
    <path fill="#8394B0" d="M324.38 1038.54a7.74 7.74 0 0111.71-6.74l38.68 23.57a7.92 7.92 0 010 13.48l-38.68 23.57a7.74 7.74 0 01-11.71-6.74v-47.14z"/>
    <g>
      <path fill="none" d="M-133.32-1026.4h-15.23a3.39 3.39 0 01-3.39-3.38v-16.92c0-.9.36-1.76 1-2.39l11.13-11.15 1.8 1.78c.47.47.74 1.12.74 1.8l-.05.54-1.6 7.72h10.67a3.39 3.39 0 013.39 3.39l-.02.14.02.01v3.23c0 .43-.09.85-.24 1.24l-5.11 11.93a3.36 3.36 0 01-3.11 2.06zm-22 0h-6.77v-20.3h6.77v20.3z" transform="rotate(180 8.6 12.12)"/>
      <path fill="#8394B0" d="M-133.33-1026.4c1.37 0 2.6-.8 3.12-2.06l5.1-11.93c.17-.41.25-.82.25-1.24v-3.23l-.02-.02.01-.13a3.39 3.39 0 00-3.38-3.39h-10.68l1.61-7.73.05-.54c0-.67-.27-1.32-.74-1.8l-1.8-1.77-11.13 11.15a3.3 3.3 0 00-1 2.39v16.92a3.39 3.39 0 003.39 3.38h15.22m-22 0v-20.3h-6.76v20.3h6.76m22 3.39h-15.22a6.74 6.74 0 01-3.39-.91v.9h-13.54v-27.07h11.06c.3-.5.67-.98 1.1-1.4l11.12-11.14 2.38-2.39 2.4 2.38 1.79 1.77.01.01a5.96 5.96 0 011.74 4.19v.16l-.02.16-.05.54-.02.18-.03.19-.77 3.66h6.52c3.21 0 5.9 2.25 6.6 5.25l.17.15v4.75c0 .84-.16 1.67-.47 2.47l-.02.05-.02.05-5.1 11.92a6.74 6.74 0 01-6.24 4.13z" transform="rotate(180 8.6 12.12)"/>
    </g>
    <path d="M103.74 63.04c.4.42.92.64 1.53.64.65 0 1.18-.19 1.59-.56.41-.37.74-.82 1-1.36.24-.54.42-1.11.53-1.72.1-.61.17-1.16.2-1.64l-.04-.05a4.2 4.2 0 01-1.69 1.49c-.64.3-1.39.44-2.23.44a5.43 5.43 0 01-4-1.79 4.98 4.98 0 01-1-1.8 7 7 0 01.11-4.55 5.94 5.94 0 013.15-3.36c.75-.33 1.57-.5 2.48-.5 1.32 0 2.41.27 3.26.79.85.52 1.54 1.2 2.05 2.05.5.86.87 1.82 1.06 2.9.2 1.07.3 2.15.3 3.24 0 1.07-.12 2.15-.37 3.22a9.38 9.38 0 01-1.2 2.92 5.84 5.84 0 01-5.25 2.91c-.74 0-1.43-.1-2.08-.31a5.08 5.08 0 01-2.92-2.44 5.98 5.98 0 01-.62-2.04h3.34c.12.58.38 1.09.8 1.52zm2.97-5.67c.35-.17.64-.4.87-.7.23-.3.4-.65.52-1.03a4.32 4.32 0 00-.01-2.4 3.3 3.3 0 00-.55-1.05 2.52 2.52 0 00-2.07-1c-.41 0-.78.09-1.11.27-.34.18-.62.42-.85.72-.23.3-.4.64-.52 1.01a4.48 4.48 0 00-.01 2.37c.1.4.27.74.48 1.04a2.36 2.36 0 002 1.03c.49 0 .9-.08 1.25-.26z"/>
    <path d="M114.07 57.21V53.4h3.9v3.81h-3.9zm3.9 4.96v3.82h-3.9v-3.82h3.9z"/>
    <path d="M119.85 61.97v-3.22l7.53-10.12h3.15v10.44h2.3v2.9h-2.3v4.02h-3.34v-4.02h-7.34zm7.26-8.92l-4.49 6.02h4.57v-6.02h-.08z"/>
    <path d="M139.43 65.99V54.73h-4.36v-2.65c.61.02 1.2-.03 1.77-.14.57-.1 1.08-.3 1.54-.57.45-.27.84-.63 1.15-1.08.31-.44.52-1 .62-1.66h2.8V66h-3.52z"/>
    <path fill="#304768" d="M36.8 1293.59c0 31.3 3.25 42.66 9.38 54.1a63.82 63.82 0 0026.55 26.56c11.45 6.12 22.8 9.38 54.1 9.38H574.2c31.31 0 42.66-3.26 54.1-9.38a63.81 63.81 0 0026.56-26.55c6.12-11.45 9.38-22.8 9.38-54.11v-38.72H36.8v38.72z"/>
    <path d="M664.23 1250.88v-79.8c0-18.7-14.98-33.84-33.46-33.84H70.27c-18.49 0-33.47 15.15-33.47 33.84v79.8h627.43z" opacity=".05"/>
    <path d="M664.23 1246.66v-79.8c0-18.7-14.98-33.85-33.46-33.85H70.27c-18.49 0-33.47 15.15-33.47 33.84v79.8h627.43z" opacity=".05"/>
    <path fill="#F5F7FA" d="M664.23 1255.15v-79.8c0-18.7-14.98-33.85-33.46-33.85H70.27c-18.49 0-33.47 15.15-33.47 33.84v79.8h627.43z"/>
    <g fill="#304768">
      <path d="M298.06 1216.52l2.3-3.31c1.44 1.16 2.66 1.7 4.33 1.7 2.43 0 3.73-1.84 4.02-4.5a6.02 6.02 0 01-4.02 1.36c-4.3 0-7.08-2.38-7.08-6.4v-.06c0-3.99 3.09-6.93 7.56-6.93 2.66 0 4.22.65 5.72 2.15 1.41 1.41 2.35 3.56 2.35 7.47v.06c0 6.42-3.03 10.8-8.67 10.8a9.57 9.57 0 01-6.5-2.34zm10.73-11.32v-.06c0-1.75-1.3-3.03-3.48-3.03-2.15 0-3.37 1.25-3.37 3v.06c0 1.75 1.3 2.97 3.46 2.97 2.15 0 3.4-1.24 3.4-2.94z"/>
      <path d="M316.66 1203.36h4.58v4.53h-4.58v-4.53zm0 10.64h4.58v4.53h-4.58V1214z"/>
      <path d="M334.4 1214.26h-9.68l-.7-3.09 10.86-12.6h3.68v12.15h2.66v3.54h-2.66v4.27h-4.16v-4.27zm0-3.54v-6.17l-5.26 6.17h5.26z"/>
      <path d="M347.1 1203l-3.45.84-.9-3.57 5.69-1.7h2.97v19.96h-4.3V1203z"/>
      <path d="M364.43 1203.36h4.3v2.18a5.57 5.57 0 014.72-2.46c3.54 0 6.91 2.77 6.91 7.84v.05c0 5.07-3.31 7.84-6.9 7.84-2.3 0-3.71-1.04-4.73-2.26v6.51h-4.3v-19.7zm11.63 7.61v-.05c0-2.52-1.7-4.2-3.71-4.2s-3.68 1.68-3.68 4.2v.05c0 2.52 1.67 4.2 3.68 4.2s3.7-1.65 3.7-4.2z"/>
      <path d="M383.53 1203.36h4.3v2.15c.99-1.27 2.3-2.43 4.47-2.43 1.98 0 3.48.87 4.27 2.4a6.25 6.25 0 014.99-2.4c3.2 0 5.12 1.92 5.12 5.57v9.88h-4.3v-8.46c0-2.04-.9-3.09-2.52-3.09s-2.6 1.05-2.6 3.09v8.46h-4.3v-8.46c0-2.04-.91-3.09-2.53-3.09s-2.6 1.05-2.6 3.09v8.46h-4.3v-15.17z"/>
    </g>
    <g fill="#304768">
      <path d="M103.1 1199.05h14.22v2.07h-11.98v7.07h10.71v2.03h-10.71v8.63h-2.24v-19.8z"/>
      <path d="M121.28 1204.23h2.18v3.82c1.08-2.44 3.2-4.19 5.97-4.08v2.35h-.17c-3.2 0-5.8 2.3-5.8 6.7v5.83h-2.17v-14.62z"/>
      <path d="M132.8 1198.63h2.48v2.4h-2.49v-2.4zm.13 5.6h2.18v14.62h-2.18v-14.62z"/>
      <path d="M139.33 1211.58v-.06c0-4.78 3.47-7.6 6.98-7.6a6.6 6.6 0 015.6 3.1v-8.82h2.18v20.65h-2.18v-2.94c-1.19 1.75-2.91 3.25-5.6 3.25-3.5 0-6.98-2.77-6.98-7.58zm12.66-.03v-.06a5.43 5.43 0 00-5.29-5.62c-2.82 0-5.14 2.09-5.14 5.62v.06c0 3.45 2.4 5.66 5.14 5.66a5.46 5.46 0 005.3-5.66z"/>
      <path d="M157.85 1214.6v-.05c0-3.08 2.54-4.72 6.25-4.72 1.86 0 3.2.25 4.5.62v-.51c0-2.63-1.62-3.99-4.36-3.99-1.73 0-3.08.45-4.44 1.08l-.65-1.78c1.61-.74 3.2-1.22 5.31-1.22 2.07 0 3.65.54 4.73 1.61.99.99 1.5 2.4 1.5 4.27v8.94h-2.1v-2.21a6.4 6.4 0 01-5.28 2.52c-2.72 0-5.46-1.56-5.46-4.56zm10.77-1.13v-1.41a15.26 15.26 0 00-4.3-.62c-2.74 0-4.27 1.19-4.27 3.02v.06c0 1.84 1.7 2.91 3.68 2.91 2.68 0 4.89-1.64 4.89-3.96z"/>
      <path d="M185.7 1204.23h2.32l-6.14 15.1c-1.24 3.02-2.66 4.13-4.86 4.13a6.65 6.65 0 01-3.11-.74l.73-1.73c.71.37 1.36.54 2.3.54 1.3 0 2.12-.68 3-2.74l-6.65-14.56h2.4l5.31 12.19 4.7-12.2z"/>
    </g>
    <path fill="#304768" d="M321.61 1155.53h61.7c2.27 0 4.11 1.51 4.11 3.38 0 1.87-1.84 3.38-4.11 3.38h-61.7c-2.27 0-4.11-1.51-4.11-3.38 0-1.87 1.84-3.38 4.11-3.38z"/>
    <path fill="#FFF" d="M255.76 1363.17h194.08c2.04 0 3.7 1.82 3.7 4.06 0 2.24-1.66 4.06-3.7 4.06H255.76c-2.04 0-3.7-1.82-3.7-4.06 0-2.24 1.66-4.06 3.7-4.06z"/>
    <g transform="translate(233.23 521.87)">
      <linearGradient id="Shape_1_" x1="-718.03" x2="-718.03" y1="1175.62" y2="1173.21" gradientTransform="matrix(18.0801 7.3048 9.3512 -23.145 2334.96 33120.24)" gradientUnits="userSpaceOnUse">
        <stop offset="0" stop-color="#80c7ca"/>
        <stop offset="1" stop-color="#49969a"/>
      </linearGradient>
      <path id="Shape" fill="url(#Shape_1_)" stroke="#FFF" stroke-miterlimit="10" stroke-width="3.38" d="M340.14 662.92a30.2 30.2 0 00-17.33-1.61c4.5 8.52 5 18.6 1.4 27.53a32.81 32.81 0 01-20.14 18.85 30.24 30.24 0 0052.83-5.62 30.1 30.1 0 00-16.76-39.14s0 0 0 0z"/>
      <linearGradient id="Shape_Copy_3_1_" x1="-718.37" x2="-718.37" y1="1175.7" y2="1173.29" gradientTransform="matrix(18.0801 7.3048 9.3512 -23.145 2331.06 33117.12)" gradientUnits="userSpaceOnUse">
        <stop offset="0" stop-color="#80c7ca"/>
        <stop offset="1" stop-color="#49969a"/>
      </linearGradient>
      <path id="Shape_Copy_3" fill="url(#Shape_Copy_3_1_)" d="M330.76 655.42a30.2 30.2 0 00-17.32-1.61c4.48 8.52 5 18.59 1.4 27.53a32.81 32.81 0 01-20.14 18.85 30.24 30.24 0 0052.83-5.62 30.1 30.1 0 00-16.77-39.15z" opacity=".11"/>
    </g>
    <path fill="#FFF" fill-opacity=".65" fill-rule="evenodd" d="M152.94 1322.87a18.77 18.77 0 113.82-3.82l8.25 8.24a2.74 2.74 0 010 3.85 2.65 2.65 0 01-3.78 0l-8.29-8.27zm-11.24-1.63a13.4 13.4 0 10.02-26.81 13.4 13.4 0 00-.02 26.81z" clip-rule="evenodd"/>
    <path fill="#FFF" fill-opacity=".65" fill-rule="evenodd" d="M577.01 1331.74a5.25 5.25 0 11-.02-10.53 5.25 5.25 0 01.02 10.53zm0-15.76a5.25 5.25 0 11-.02-10.53 5.25 5.25 0 01.02 10.53zm0-15.76a5.25 5.25 0 11-.02-10.53 5.25 5.25 0 01.02 10.53zm-15.76 31.52a5.25 5.25 0 11-.02-10.53 5.25 5.25 0 01.02 10.53zm0-15.76a5.25 5.25 0 11-.02-10.53 5.25 5.25 0 01.02 10.53zm0-15.76a5.25 5.25 0 11-.02-10.53 5.25 5.25 0 01.02 10.53zm-15.79 31.52a5.25 5.25 0 110-10.5 5.27 5.27 0 110 10.5zm0-15.76a5.25 5.25 0 110-10.5 5.27 5.27 0 110 10.5zm0-15.76a5.25 5.25 0 110-10.51 5.27 5.27 0 110 10.5z" clip-rule="evenodd"/>
  </g>

  <clipPath id="eq_clp">
    <rect width="46" height="34" x="328" y="1294"/>
  </clipPath>
  <g fill="none" stroke="#FFF" stroke-miterlimit="10" stroke-width="8" clip-path="url(#eq_clp)">
    <line id="bttm_eq1" x1="332.61" x2="332.61" y1="1328" y2="1294"/>
    <line id="bttm_eq2" x1="344.48" x2="344.48" y1="1328" y2="1294"/>
    <line id="bttm_eq3" x1="356.35" x2="356.35" y1="1328" y2="1294"/>
    <line id="bttm_eq4" x1="368.22" x2="368.22" y1="1328" y2="1294"/>
  </g>

  <clipPath id="photo_clp">
    <rect width="627" height="662" x="37" y="175"/>
  </clipPath>
  <g clip-path="url(#photo_clp)">
    <g id="album_covers">
      <image href="covers.jpg" x="19.5" y="175" width="2648" height="662"/>
      <image href="covers.jpg" x="2667.5" y="175" width="2648" height="662"/>
    </g>
  </g>

  <g id="eq1">
    <g fill="#007AFF">
      <path d="M906.5 100h3.96v2a5.12 5.12 0 014.35-2.26c3.25 0 6.35 2.55 6.35 7.21v.05c0 4.66-3.05 7.21-6.35 7.21-2.1 0-3.41-.96-4.35-2.08v5.99h-3.96V100zm10.7 7v-.05c0-2.32-1.56-3.85-3.4-3.85-1.85 0-3.4 1.54-3.4 3.85v.05c0 2.32 1.55 3.86 3.4 3.86 1.84 0 3.4-1.51 3.4-3.86z"/>
      <path d="M923.4 107.06V107c0-4 3.23-7.26 7.58-7.26 4.32 0 7.52 3.2 7.52 7.21v.05c0 4.01-3.23 7.27-7.58 7.27-4.32 0-7.52-3.2-7.52-7.21zm11.2 0V107c0-2.05-1.49-3.85-3.68-3.85-2.26 0-3.61 1.74-3.61 3.8v.05c0 2.06 1.48 3.86 3.67 3.86 2.26 0 3.62-1.75 3.62-3.8z"/>
      <path d="M941.37 100h3.95v2a5.12 5.12 0 014.35-2.26c3.25 0 6.35 2.55 6.35 7.21v.05c0 4.66-3.04 7.21-6.35 7.21-2.1 0-3.41-.96-4.35-2.08v5.99h-3.95V100zm10.7 7v-.05c0-2.32-1.57-3.85-3.41-3.85-1.85 0-3.39 1.54-3.39 3.85v.05c0 2.32 1.54 3.86 3.39 3.86 1.84 0 3.4-1.51 3.4-3.86z"/>
    </g>
    <g fill="#007AFF">
      <path d="M903.7 141.05h3.95v2.8c.8-1.92 2.1-3.17 4.45-3.06v4.14h-.2c-2.64 0-4.25 1.58-4.25 4.92V155h-3.96v-13.95z"/>
      <path d="M913.5 148.1v-.05c0-4 3.24-7.26 7.58-7.26 4.32 0 7.53 3.2 7.53 7.2v.06c0 4.01-3.23 7.26-7.58 7.26-4.32 0-7.52-3.2-7.52-7.2zm11.2 0v-.05c0-2.06-1.48-3.85-3.67-3.85-2.27 0-3.62 1.74-3.62 3.8v.05c0 2.06 1.49 3.85 3.67 3.85 2.27 0 3.62-1.74 3.62-3.8z"/>
      <path d="M930.8 148.1v-.05a7.16 7.16 0 017.31-7.26c2.63 0 4.27.88 5.57 2.34l-2.42 2.6c-.89-.93-1.77-1.53-3.18-1.53-1.98 0-3.38 1.74-3.38 3.8v.05c0 2.14 1.38 3.85 3.54 3.85 1.33 0 2.24-.57 3.2-1.48l2.32 2.34a7.03 7.03 0 01-5.7 2.55 7.13 7.13 0 01-7.26-7.2z"/>
      <path d="M946.34 136h3.96v10.12l4.63-5.07h4.74l-5.31 5.49 5.49 8.46h-4.53l-3.65-5.7-1.37 1.46V155h-3.96v-19z"/>
    </g>
    <g fill="#007AFF">
      <path d="M906.33 194.4c-1.32-1.32-2.16-3.27-2.16-6.9v-.04c0-5.63 2.55-9.95 8-9.95 2.47 0 4.08.73 5.7 2l-2.11 3.1c-1.2-.9-2.16-1.45-3.73-1.45-2.26 0-3.4 1.82-3.67 4.21a6.3 6.3 0 013.78-1.17c3.62 0 6.4 2 6.4 5.8v.06c0 3.72-3 6.3-6.95 6.3-2.37 0-3.98-.68-5.26-1.95zm8.23-4.16v-.05c0-1.54-1.2-2.66-3.18-2.66-1.98 0-3.12 1.1-3.12 2.63v.06c0 1.53 1.2 2.7 3.18 2.7s3.12-1.12 3.12-2.68z"/>
      <path d="M921.4 186.99v-.06c0-5.28 3.29-9.42 8.13-9.42 4.82 0 8.07 4.09 8.07 9.37v.06c0 5.28-3.26 9.42-8.12 9.42-4.87 0-8.07-4.09-8.07-9.37zm12.09 0v-.06c0-3.3-1.62-5.8-4.01-5.8-2.4 0-3.96 2.42-3.96 5.75v.05c0 3.34 1.59 5.81 4.01 5.81s3.96-2.45 3.96-5.75z"/>
      <path d="M939.82 184.57c1.8-.19 2.68-1.1 2.55-2.58h-1.62v-4.17h4.22v3.52c0 3.44-1.72 4.81-4.82 4.87l-.33-1.64z"/>
      <path d="M946.74 194.2l1.7-2.6a7.9 7.9 0 004.4 1.66c1.14 0 1.66-.42 1.66-1.04v-.05c0-.86-1.36-1.15-2.9-1.62-1.94-.57-4.16-1.48-4.16-4.19v-.05c0-2.84 2.3-4.42 5.1-4.42 1.78 0 3.7.6 5.21 1.6l-1.5 2.74a8.27 8.27 0 00-3.78-1.3c-.97 0-1.46.42-1.46.96v.06c0 .78 1.33 1.14 2.84 1.66 1.95.65 4.22 1.59 4.22 4.14v.05c0 3.1-2.32 4.5-5.34 4.5a9.77 9.77 0 01-5.99-2.1z"/>
    </g>
    <g fill="#007AFF">
      <path d="M887.4 235.25l1.69-2.6a7.9 7.9 0 004.4 1.66c1.14 0 1.66-.42 1.66-1.04v-.06c0-.86-1.35-1.14-2.89-1.61-1.95-.57-4.16-1.48-4.16-4.2v-.04c0-2.84 2.29-4.43 5.1-4.43 1.77 0 3.7.6 5.2 1.62l-1.5 2.73a8.26 8.26 0 00-3.78-1.3c-.96 0-1.46.42-1.46.96v.05c0 .78 1.33 1.15 2.84 1.67 1.95.65 4.22 1.59 4.22 4.14v.05c0 3.1-2.32 4.5-5.34 4.5a9.76 9.76 0 01-5.99-2.1z"/>
      <path d="M900.88 230.2v-.06c0-4 3.23-7.26 7.58-7.26 4.32 0 7.52 3.2 7.52 7.21v.05c0 4.01-3.23 7.27-7.58 7.27-4.32 0-7.52-3.2-7.52-7.22zm11.2 0v-.06c0-2.05-1.49-3.85-3.68-3.85-2.26 0-3.61 1.74-3.61 3.8v.05c0 2.06 1.48 3.86 3.67 3.86 2.26 0 3.62-1.75 3.62-3.8z"/>
      <path d="M918.74 232.17v-9.03h3.96v7.78c0 1.88.88 2.84 2.4 2.84s2.47-.96 2.47-2.84v-7.78h3.95v13.95h-3.95v-1.98c-.91 1.17-2.09 2.24-4.09 2.24-3 0-4.74-1.97-4.74-5.18z"/>
      <path d="M935.25 218.09h3.96v19h-3.96v-19z"/>
      <path d="M943.6 226.52h-1.64v-3.25h1.64v-.89c0-1.53.4-2.65 1.12-3.38.73-.73 1.8-1.1 3.2-1.1 1.26 0 2.09.16 2.82.4v3.28a5.01 5.01 0 00-1.8-.34c-.91 0-1.43.47-1.43 1.51v.55h3.2v3.22h-3.15v10.57h-3.96v-10.57z"/>
      <path d="M952.77 232.17v-9.03h3.96v7.78c0 1.88.88 2.84 2.4 2.84s2.47-.96 2.47-2.84v-7.78h3.95v13.95h-3.95v-1.98c-.92 1.17-2.09 2.24-4.1 2.24-2.99 0-4.73-1.97-4.73-5.18z"/>
      <path d="M969.28 218.09h3.95v19h-3.95v-19z"/>
    </g>
    <g fill="#007AFF">
      <path d="M880.9 282.23v-3.1c.31.05.55.08.83.08.84 0 1.4-.44 1.4-1.62v-13.4h3.96v13.72c0 3.07-1.56 4.47-4.47 4.47-.73 0-1.17-.05-1.72-.15zm2.13-23.1h4.17v3.52h-4.17v-3.51z"/>
      <path d="M890.72 273.22v-9.03h3.95v7.78c0 1.88.89 2.84 2.4 2.84s2.47-.96 2.47-2.84v-7.78h3.96v13.95h-3.96v-1.98c-.91 1.17-2.08 2.24-4.09 2.24-3 0-4.74-1.98-4.74-5.18z"/>
      <path d="M911 276.32v1.82h-3.96v-19H911v7.05a5.12 5.12 0 014.34-2.26c3.26 0 6.35 2.55 6.35 7.2v.06c0 4.66-3.04 7.21-6.35 7.21-2.1 0-3.4-.96-4.34-2.08zm6.74-5.13v-.05c0-2.32-1.56-3.85-3.41-3.85s-3.39 1.53-3.39 3.85v.05c0 2.32 1.54 3.85 3.39 3.85s3.4-1.5 3.4-3.85z"/>
      <path d="M924.7 259.14h4.16v3.51h-4.17v-3.51zm.1 5.05h3.95v13.95h-3.96V264.2z"/>
      <path d="M932.66 259.14h3.96v19h-3.96v-19z"/>
      <path d="M939.5 274.13v-.05c0-3.04 2.32-4.45 5.63-4.45 1.4 0 2.42.23 3.4.57v-.23c0-1.64-1-2.55-2.98-2.55-1.51 0-2.58.28-3.86.75l-.99-3.02a12.3 12.3 0 015.42-1.12c2.16 0 3.72.58 4.7 1.57 1.05 1.04 1.52 2.57 1.52 4.45v8.1h-3.83v-1.52a5.36 5.36 0 01-4.22 1.77c-2.62 0-4.78-1.5-4.78-4.27zm9.09-.9v-.71a6.14 6.14 0 00-2.52-.52c-1.7 0-2.74.67-2.74 1.92v.06c0 1.06.89 1.69 2.16 1.69 1.85 0 3.1-1.02 3.1-2.45z"/>
      <path d="M955.75 264.19h3.96v1.98c.91-1.17 2.08-2.24 4.09-2.24 2.99 0 4.73 1.98 4.73 5.18v9.03h-3.95v-7.78c0-1.88-.89-2.84-2.4-2.84s-2.47.97-2.47 2.84v7.78h-3.96V264.2z"/>
      <path d="M972.62 274.19v-6.62h-1.66v-3.38h1.66v-3.57h3.96v3.57h3.28v3.38h-3.28v5.96c0 .92.39 1.36 1.27 1.36.73 0 1.38-.18 1.96-.5v3.18c-.84.5-1.8.8-3.13.8-2.42 0-4.06-.96-4.06-4.19z"/>
    </g>
    <g id="ttl1">
      <g fill="#6D7C91">
        <path d="M291.04 822.83h-4.81v-2.47h12.32v2.47h-4.82v12.71h-2.69v-12.71z"/>
        <path d="M300.85 819.7h2.63v6.15c.73-1.07 1.8-2 3.58-2 2.58 0 4.08 1.74 4.08 4.38v7.32h-2.63v-6.51c0-1.78-.89-2.8-2.45-2.8-1.52 0-2.58 1.06-2.58 2.84v6.47h-2.63V819.7z"/>
        <path d="M313.67 829.86v-.04c0-3.28 2.32-5.97 5.6-5.97 3.65 0 5.5 2.86 5.5 6.16 0 .24-.03.48-.05.74h-8.42c.28 1.86 1.6 2.9 3.3 2.9 1.28 0 2.19-.47 3.1-1.36l1.54 1.37a5.8 5.8 0 01-4.68 2.14 5.71 5.71 0 01-5.89-5.94zm8.49-.85c-.18-1.69-1.17-3.01-2.91-3.01-1.6 0-2.73 1.23-2.97 3.01h5.88z"/>
        <path d="M334.22 820.36h6.81c1.74 0 3.1.47 3.97 1.34a3.4 3.4 0 011.02 2.52v.04c0 1.83-1.04 2.8-2.16 3.39 1.77.6 3.01 1.63 3.01 3.69v.04c0 2.71-2.23 4.17-5.62 4.17h-7.03v-15.2zm9.13 4.3c0-1.2-.95-1.94-2.66-1.94h-3.84v4.04h3.64c1.72 0 2.87-.68 2.87-2.07v-.04zm-2.27 4.35h-4.23v4.17h4.42c1.83 0 2.93-.72 2.93-2.08v-.05c0-1.28-1.02-2.04-3.12-2.04z"/>
        <path d="M348.95 829.86v-.04c0-3.28 2.32-5.97 5.6-5.97 3.65 0 5.49 2.86 5.49 6.16 0 .24-.02.48-.04.74h-8.42c.28 1.86 1.6 2.9 3.3 2.9 1.28 0 2.19-.47 3.1-1.36l1.54 1.37a5.8 5.8 0 01-4.69 2.14 5.71 5.71 0 01-5.88-5.94zm8.49-.85c-.18-1.69-1.18-3.01-2.91-3.01-1.6 0-2.74 1.23-2.98 3.01h5.89z"/>
        <path d="M361.93 832.25v-.05c0-2.47 1.93-3.69 4.73-3.69 1.28 0 2.19.2 3.08.48v-.28c0-1.63-1-2.5-2.84-2.5-1.28 0-2.24.29-3.28.72l-.7-2.06a9.79 9.79 0 014.32-.93c1.72 0 3 .45 3.8 1.28.85.82 1.24 2.04 1.24 3.53v6.8h-2.56v-1.44a4.66 4.66 0 01-3.74 1.67c-2.15 0-4.05-1.23-4.05-3.53zm7.85-.83v-.78a7.26 7.26 0 00-2.6-.45c-1.7 0-2.7.71-2.7 1.9v.05c0 1.1.98 1.73 2.24 1.73 1.74 0 3.06-1 3.06-2.45z"/>
        <path d="M375.86 832.38v-6.04h-1.46v-2.25h1.46v-3.15h2.62v3.15h3.08v2.25h-3.08v5.62c0 1.02.52 1.44 1.41 1.44.59 0 1.1-.13 1.63-.4v2.15c-.65.37-1.37.59-2.37.59-1.93 0-3.3-.85-3.3-3.36z"/>
        <path d="M384.38 819.7h2.63v15.84h-2.63v-15.83z"/>
        <path d="M389.8 829.86v-.04c0-3.28 2.33-5.97 5.6-5.97 3.65 0 5.5 2.86 5.5 6.16 0 .24-.03.48-.05.74h-8.42c.29 1.86 1.6 2.9 3.3 2.9 1.28 0 2.2-.47 3.1-1.36l1.55 1.37a5.8 5.8 0 01-4.7 2.14 5.71 5.71 0 01-5.87-5.94zm8.5-.85c-.18-1.69-1.18-3.01-2.92-3.01-1.6 0-2.73 1.23-2.97 3.01h5.88z"/>
        <path d="M402.6 834.05l1.18-1.78a6.48 6.48 0 003.75 1.4c1.13 0 1.78-.47 1.78-1.23v-.04c0-.9-1.21-1.2-2.56-1.6-1.7-.48-3.58-1.18-3.58-3.37v-.04c0-2.17 1.8-3.5 4.08-3.5 1.43 0 3 .5 4.2 1.3l-1.03 1.87a6.65 6.65 0 00-3.24-1.08c-1.02 0-1.6.47-1.6 1.13v.04c0 .85 1.24 1.2 2.58 1.63 1.67.52 3.56 1.28 3.56 3.34v.04c0 2.41-1.87 3.6-4.25 3.6a8.06 8.06 0 01-4.86-1.71z"/>
      </g>
      <g fill="#2F343C">
        <path d="M189.01 861.65h5v8.97h9.2v-8.97h4.98v22.67h-4.99v-9.1H194v9.1h-4.99v-22.67z"/>
        <path d="M212.28 875.74v-.07c0-4.95 3.53-9.04 8.58-9.04 5.8 0 8.46 4.5 8.46 9.43 0 .39-.03.84-.07 1.3h-12.08c.49 2.23 2.04 3.4 4.24 3.4a5.7 5.7 0 004.22-1.78l2.81 2.5a8.68 8.68 0 01-7.1 3.23c-5.2 0-9.06-3.66-9.06-8.97zm12.24-1.46c-.29-2.2-1.59-3.7-3.66-3.7-2.04 0-3.37 1.46-3.76 3.7h7.42z"/>
        <path d="M232.98 866.96h4.93v3.5c1-2.4 2.62-3.96 5.53-3.83v5.15h-.26c-3.27 0-5.28 1.98-5.28 6.13v6.41h-4.92v-17.36z"/>
        <path d="M245.2 875.74v-.07c0-4.95 3.53-9.04 8.58-9.04 5.8 0 8.46 4.5 8.46 9.43 0 .39-.03.84-.07 1.3H250.1c.49 2.23 2.04 3.4 4.24 3.4a5.7 5.7 0 004.21-1.78l2.82 2.5a8.68 8.68 0 01-7.1 3.23c-5.2 0-9.06-3.66-9.06-8.97zm12.24-1.46c-.29-2.2-1.58-3.7-3.66-3.7-2.04 0-3.37 1.46-3.76 3.7h7.42z"/>
        <path d="M275.13 873.05v-.07c0-6.44 4.86-11.72 11.83-11.72 4.28 0 6.83 1.42 8.94 3.5l-3.17 3.66c-1.76-1.6-3.54-2.56-5.8-2.56-3.83 0-6.58 3.17-6.58 7.06v.06c0 3.89 2.69 7.13 6.58 7.13 2.59 0 4.17-1.04 5.96-2.66l3.17 3.21a11.6 11.6 0 01-9.3 4.05 11.44 11.44 0 01-11.63-11.66z"/>
        <path d="M298.37 875.74v-.07c0-4.99 4.01-9.04 9.42-9.04 5.38 0 9.37 3.99 9.37 8.98v.06c0 5-4.02 9.04-9.43 9.04-5.38 0-9.36-3.98-9.36-8.97zm13.93 0v-.07c0-2.56-1.85-4.8-4.57-4.8-2.82 0-4.5 2.18-4.5 4.74v.06c0 2.56 1.84 4.8 4.56 4.8 2.82 0 4.5-2.17 4.5-4.73z"/>
        <path d="M320.72 866.96h4.93v2.46c1.13-1.46 2.62-2.79 5.12-2.79 2.26 0 3.98 1 4.89 2.76a7.15 7.15 0 015.7-2.76c3.66 0 5.86 2.2 5.86 6.39v11.3h-4.92v-9.68c0-2.34-1.04-3.54-2.88-3.54-1.85 0-2.98 1.2-2.98 3.54v9.68h-4.93v-9.68c0-2.34-1.03-3.54-2.88-3.54-1.85 0-2.98 1.2-2.98 3.54v9.68h-4.92v-17.36z"/>
        <path d="M350.66 875.74v-.07c0-4.95 3.53-9.04 8.59-9.04 5.8 0 8.45 4.5 8.45 9.43 0 .39-.03.84-.06 1.3h-12.08c.48 2.23 2.04 3.4 4.24 3.4a5.7 5.7 0 004.21-1.78l2.82 2.5a8.68 8.68 0 01-7.1 3.23c-5.21 0-9.07-3.66-9.07-8.97zm12.25-1.46c-.3-2.2-1.59-3.7-3.66-3.7-2.04 0-3.37 1.46-3.76 3.7h7.42z"/>
        <path d="M370 882.02l2.11-3.24c1.88 1.36 3.86 2.07 5.48 2.07 1.42 0 2.07-.51 2.07-1.3v-.06c0-1.06-1.68-1.42-3.6-2-2.43-.72-5.18-1.85-5.18-5.22v-.06c0-3.54 2.85-5.51 6.35-5.51 2.2 0 4.6.74 6.48 2l-1.88 3.4c-1.72-1-3.43-1.61-4.7-1.61-1.2 0-1.81.52-1.81 1.2v.06c0 .97 1.65 1.43 3.53 2.07 2.43.81 5.25 1.98 5.25 5.15v.07c0 3.85-2.88 5.6-6.64 5.6-2.43 0-5.15-.8-7.45-2.62z"/>
        <path d="M398.16 879.4v-8.23h-2.07v-4.21h2.07v-4.44h4.93v4.44h4.08v4.2h-4.08v7.43c0 1.13.48 1.68 1.58 1.68.91 0 1.72-.23 2.43-.61v3.95c-1.03.61-2.23 1-3.88 1-3.02 0-5.06-1.2-5.06-5.21z"/>
        <path d="M410.8 860.67h4.92v8.75c1.14-1.46 2.6-2.79 5.09-2.79 3.73 0 5.9 2.47 5.9 6.45v11.24h-4.93v-9.69c0-2.33-1.1-3.53-2.98-3.53s-3.07 1.2-3.07 3.54v9.68h-4.93v-23.65z"/>
        <path d="M430.14 875.74v-.07c0-4.95 3.53-9.04 8.59-9.04 5.8 0 8.45 4.5 8.45 9.43 0 .39-.03.84-.06 1.3h-12.08c.48 2.23 2.04 3.4 4.24 3.4a5.7 5.7 0 004.21-1.78l2.82 2.5a8.68 8.68 0 01-7.1 3.23c-5.21 0-9.07-3.66-9.07-8.97zm12.25-1.46c-.3-2.2-1.59-3.7-3.66-3.7-2.04 0-3.37 1.46-3.76 3.7h7.42z"/>
        <path d="M459.53 881.02l2.95-3.53c2.04 1.68 4.18 2.75 6.77 2.75 2.04 0 3.27-.81 3.27-2.14v-.06c0-1.27-.78-1.91-4.57-2.89-4.56-1.16-7.51-2.43-7.51-6.93v-.06c0-4.12 3.3-6.84 7.93-6.84 3.3 0 6.13 1.04 8.43 2.88l-2.6 3.76c-2-1.39-3.98-2.23-5.89-2.23-1.91 0-2.92.87-2.92 1.98v.06c0 1.49.98 1.98 4.9 2.98 4.6 1.2 7.19 2.85 7.19 6.8v.07c0 4.5-3.44 7.03-8.33 7.03-3.43 0-6.9-1.2-9.62-3.63z"/>
        <path d="M481.18 878.2v-11.24h4.92v9.68c0 2.34 1.1 3.54 2.98 3.54s3.08-1.2 3.08-3.54v-9.68h4.92v17.36h-4.92v-2.46c-1.14 1.46-2.6 2.78-5.09 2.78-3.72 0-5.9-2.46-5.9-6.44z"/>
        <path d="M501.49 866.96h4.92v2.46c1.14-1.46 2.6-2.79 5.1-2.79 3.72 0 5.89 2.47 5.89 6.45v11.24h-4.93v-9.69c0-2.33-1.1-3.53-2.98-3.53s-3.07 1.2-3.07 3.54v9.68h-4.93v-17.36z"/>
      </g>
    </g>
  </g>
  <g id="eq2">
    <g fill="#007AFF">
      <path d="M862.21 107.06V107c0-3.98 2.84-7.26 6.9-7.26 4.66 0 6.8 3.62 6.8 7.58 0 .3-.03.67-.06 1.04h-9.71c.4 1.8 1.64 2.73 3.41 2.73 1.33 0 2.3-.42 3.38-1.43l2.27 2a6.98 6.98 0 01-5.7 2.6c-4.2 0-7.29-2.94-7.29-7.2zm9.84-1.18c-.23-1.77-1.27-2.96-2.94-2.96-1.64 0-2.7 1.17-3.02 2.96h5.96z"/>
      <path d="M879.03 94.95h3.96v19h-3.96v-19z"/>
      <path d="M886.03 107.06V107c0-3.98 2.84-7.26 6.9-7.26 4.66 0 6.8 3.62 6.8 7.58 0 .3-.03.67-.06 1.04h-9.7c.38 1.8 1.63 2.73 3.4 2.73 1.33 0 2.3-.42 3.39-1.43l2.26 2a6.98 6.98 0 01-5.7 2.6c-4.19 0-7.29-2.94-7.29-7.2zm9.84-1.18c-.23-1.77-1.27-2.96-2.94-2.96-1.64 0-2.7 1.17-3.02 2.96h5.96z"/>
      <path d="M902 107.06V107a7.16 7.16 0 017.3-7.26c2.64 0 4.28.89 5.58 2.34l-2.42 2.6c-.89-.93-1.77-1.53-3.18-1.53-1.98 0-3.38 1.75-3.38 3.8v.05c0 2.14 1.38 3.86 3.54 3.86 1.32 0 2.23-.58 3.2-1.49l2.32 2.35a7.03 7.03 0 01-5.7 2.55 7.12 7.12 0 01-7.27-7.21z"/>
      <path d="M918.19 110v-6.61h-1.67V100h1.67v-3.56h3.95V100h3.28v3.39h-3.28v5.96c0 .9.4 1.35 1.28 1.35.73 0 1.38-.18 1.95-.5v3.18c-.83.5-1.8.8-3.12.8-2.42 0-4.06-.96-4.06-4.18z"/>
      <path d="M928.34 100h3.96v2.81c.8-1.92 2.1-3.17 4.45-3.07v4.14h-.2c-2.64 0-4.25 1.59-4.25 4.92v5.15h-3.96V100z"/>
      <path d="M938.16 107.06V107c0-4 3.23-7.26 7.57-7.26 4.32 0 7.52 3.2 7.52 7.21v.05c0 4.01-3.22 7.27-7.57 7.27-4.32 0-7.52-3.2-7.52-7.21zm11.2 0V107c0-2.05-1.5-3.85-3.68-3.85-2.27 0-3.62 1.74-3.62 3.8v.05c0 2.06 1.49 3.86 3.67 3.86 2.27 0 3.62-1.75 3.62-3.8z"/>
      <path d="M956.12 100h3.96v2a5.12 5.12 0 014.35-2.26c3.25 0 6.35 2.55 6.35 7.21v.05c0 4.66-3.05 7.21-6.35 7.21-2.11 0-3.41-.96-4.35-2.08v5.99h-3.96V100zm10.7 7v-.05c0-2.32-1.56-3.85-3.41-3.85s-3.38 1.54-3.38 3.85v.05c0 2.32 1.53 3.86 3.38 3.86 1.85 0 3.41-1.51 3.41-3.86z"/>
      <path d="M973.02 107.06V107c0-4 3.23-7.26 7.57-7.26 4.33 0 7.53 3.2 7.53 7.21v.05c0 4.01-3.23 7.27-7.58 7.27-4.32 0-7.52-3.2-7.52-7.21zm11.2 0V107c0-2.05-1.5-3.85-3.68-3.85-2.26 0-3.62 1.74-3.62 3.8v.05c0 2.06 1.49 3.86 3.67 3.86 2.27 0 3.62-1.75 3.62-3.8z"/>
      <path d="M990.98 100h3.96v2a5.12 5.12 0 014.35-2.26c3.25 0 6.35 2.55 6.35 7.21v.05c0 4.66-3.05 7.21-6.35 7.21-2.11 0-3.41-.96-4.35-2.08v5.99h-3.96V100zm10.7 7v-.05c0-2.32-1.56-3.85-3.4-3.85-1.86 0-3.4 1.54-3.4 3.85v.05c0 2.32 1.54 3.86 3.4 3.86 1.84 0 3.4-1.51 3.4-3.86z"/>
    </g>
    <g fill="#007AFF">
      <path d="M872.64 153.15l1.69-2.6a7.9 7.9 0 004.4 1.67c1.14 0 1.66-.42 1.66-1.05v-.05c0-.86-1.35-1.14-2.88-1.61-1.96-.58-4.17-1.49-4.17-4.2v-.05c0-2.83 2.29-4.42 5.1-4.42 1.77 0 3.7.6 5.2 1.61l-1.5 2.74a8.26 8.26 0 00-3.78-1.3c-.96 0-1.45.41-1.45.96v.05c0 .78 1.32 1.15 2.83 1.67 1.96.65 4.22 1.58 4.22 4.14v.05c0 3.1-2.31 4.5-5.33 4.5a9.78 9.78 0 01-6-2.1z"/>
      <path d="M886.23 158.28l1.33-2.86a3.6 3.6 0 001.69.55c.68 0 1.04-.21 1.38-.92l-5.47-14h4.2l3.17 9.5 3.04-9.5h4.12l-5.37 14.29c-1.06 2.84-2.2 3.9-4.58 3.9-1.43 0-2.5-.36-3.51-.96z"/>
      <path d="M902.03 141.05H906v1.98c.91-1.17 2.08-2.24 4.09-2.24 2.99 0 4.73 1.98 4.73 5.18V155h-3.95v-7.78c0-1.88-.89-2.84-2.4-2.84s-2.47.96-2.47 2.84V155h-3.96v-13.95z"/>
      <path d="M918.9 151.04v-6.6h-1.66v-3.4h1.66v-3.56h3.96v3.57h3.28v3.38h-3.28v5.96c0 .91.39 1.36 1.27 1.36.73 0 1.38-.18 1.96-.5v3.18c-.84.5-1.8.8-3.13.8-2.42 0-4.06-.96-4.06-4.19z"/>
      <path d="M929.06 136H933v7.03c.92-1.18 2.09-2.24 4.1-2.24 2.98 0 4.73 1.98 4.73 5.18V155h-3.96v-7.78c0-1.88-.88-2.84-2.4-2.84-1.5 0-2.47.96-2.47 2.84V155h-3.95v-19z"/>
      <path d="M945.28 141.05h3.95v2a5.12 5.12 0 014.35-2.26c3.25 0 6.35 2.55 6.35 7.2v.06c0 4.66-3.04 7.21-6.35 7.21-2.1 0-3.4-.96-4.35-2.08v5.98h-3.95v-18.11zm10.7 7V148c0-2.32-1.57-3.85-3.41-3.85-1.85 0-3.39 1.53-3.39 3.85v.05c0 2.32 1.54 3.85 3.39 3.85 1.84 0 3.4-1.5 3.4-3.85z"/>
      <path d="M962.17 148.1v-.05c0-4 3.23-7.26 7.58-7.26 4.32 0 7.52 3.2 7.52 7.2v.06c0 4.01-3.23 7.26-7.57 7.26-4.32 0-7.53-3.2-7.53-7.2zm11.2 0v-.05c0-2.06-1.48-3.85-3.67-3.85-2.27 0-3.62 1.74-3.62 3.8v.05c0 2.06 1.48 3.85 3.67 3.85 2.26 0 3.62-1.74 3.62-3.8z"/>
      <path d="M980.14 141.05h3.96v2a5.12 5.12 0 014.34-2.26c3.26 0 6.36 2.55 6.36 7.2v.06c0 4.66-3.05 7.21-6.36 7.21-2.1 0-3.4-.96-4.34-2.08v5.98h-3.96v-18.11zm10.7 7V148c0-2.32-1.56-3.85-3.41-3.85s-3.39 1.53-3.39 3.85v.05c0 2.32 1.54 3.85 3.39 3.85s3.4-1.5 3.4-3.85z"/>
    </g>
    <g fill="#007AFF">
      <path d="M864.14 192.04v-.05c0-3.05 2.31-4.45 5.62-4.45 1.4 0 2.42.23 3.4.57v-.24c0-1.64-1-2.55-2.98-2.55-1.51 0-2.58.29-3.86.76l-.99-3.02a12.31 12.31 0 015.42-1.12c2.16 0 3.72.57 4.7 1.56 1.05 1.04 1.52 2.58 1.52 4.45v8.1h-3.83v-1.51a5.37 5.37 0 01-4.21 1.77c-2.63 0-4.8-1.51-4.8-4.27zm9.08-.91v-.7a6.14 6.14 0 00-2.52-.53c-1.7 0-2.74.68-2.74 1.93v.05c0 1.07.89 1.7 2.16 1.7 1.85 0 3.1-1.02 3.1-2.45z"/>
      <path d="M880.56 177.04h3.96v19h-3.96v-19z"/>
      <path d="M888.9 192.09v-6.61h-1.67v-3.39h1.67v-3.56h3.95v3.56h3.28v3.39h-3.28v5.96c0 .9.4 1.35 1.28 1.35.73 0 1.38-.18 1.95-.5v3.18c-.83.5-1.8.81-3.12.81-2.43 0-4.06-.96-4.06-4.2z"/>
      <path d="M897.98 189.15v-.05c0-3.99 2.84-7.27 6.9-7.27 4.66 0 6.8 3.62 6.8 7.58 0 .31-.03.67-.06 1.04h-9.7c.38 1.8 1.63 2.73 3.4 2.73 1.33 0 2.3-.41 3.39-1.43l2.26 2a6.98 6.98 0 01-5.7 2.6c-4.19 0-7.29-2.93-7.29-7.2zm9.84-1.17c-.23-1.77-1.27-2.97-2.94-2.97-1.64 0-2.7 1.17-3.02 2.97h5.96z"/>
      <path d="M914.62 182.1h3.96v2.8c.8-1.92 2.1-3.17 4.45-3.07v4.14h-.21c-2.63 0-4.24 1.59-4.24 4.92v5.16h-3.96v-13.96z"/>
      <path d="M925.5 182.1h3.96v1.97c.91-1.17 2.08-2.24 4.09-2.24 2.99 0 4.73 1.98 4.73 5.18v9.04h-3.95v-7.79c0-1.87-.89-2.83-2.4-2.83s-2.47.96-2.47 2.83v7.79h-3.96v-13.96z"/>
      <path d="M940.89 192.04v-.05c0-3.05 2.32-4.45 5.62-4.45 1.4 0 2.42.23 3.41.57v-.24c0-1.64-1.01-2.55-3-2.55-1.5 0-2.57.29-3.84.76l-1-3.02a12.3 12.3 0 015.42-1.12c2.16 0 3.72.57 4.71 1.56 1.04 1.04 1.51 2.58 1.51 4.45v8.1h-3.82v-1.51a5.36 5.36 0 01-4.22 1.77c-2.63 0-4.8-1.51-4.8-4.27zm9.08-.91v-.7a6.14 6.14 0 00-2.52-.53c-1.7 0-2.73.68-2.73 1.93v.05c0 1.07.88 1.7 2.16 1.7 1.85 0 3.1-1.02 3.1-2.45z"/>
      <path d="M957.66 192.09v-6.61h-1.67v-3.39h1.67v-3.56h3.95v3.56h3.28v3.39h-3.28v5.96c0 .9.4 1.35 1.28 1.35.73 0 1.38-.18 1.95-.5v3.18c-.83.5-1.8.81-3.12.81-2.42 0-4.06-.96-4.06-4.2z"/>
      <path d="M967.89 177.04h4.16v3.52h-4.16v-3.52zm.1 5.05h3.96v13.96h-3.96v-13.96z"/>
      <path d="M974.42 182.1h4.2l3.12 9.34 3.15-9.35H989l-5.5 14.06h-3.58l-5.5-14.06z"/>
      <path d="M989.84 189.15v-.05c0-3.99 2.83-7.27 6.9-7.27 4.65 0 6.79 3.62 6.79 7.58 0 .31-.03.67-.05 1.04h-9.71c.39 1.8 1.64 2.73 3.4 2.73 1.33 0 2.3-.41 3.4-1.43l2.26 2a6.98 6.98 0 01-5.7 2.6c-4.2 0-7.3-2.93-7.3-7.2zm9.84-1.17c-.24-1.77-1.28-2.97-2.94-2.97-1.64 0-2.71 1.17-3.02 2.97h5.96z"/>
    </g>
    <g fill="#007AFF">
      <path d="M872.13 230.2v-.06c0-3.98 2.84-7.26 6.9-7.26 4.66 0 6.8 3.62 6.8 7.58 0 .3-.03.67-.06 1.04h-9.71c.4 1.8 1.64 2.73 3.41 2.73 1.33 0 2.3-.42 3.38-1.43l2.27 2a6.98 6.98 0 01-5.7 2.6c-4.2 0-7.29-2.94-7.29-7.2zm9.84-1.18c-.23-1.77-1.27-2.96-2.94-2.96-1.64 0-2.7 1.17-3.02 2.96h5.96z"/>
      <path d="M888.77 223.14h3.95v1.98c.92-1.17 2.09-2.24 4.1-2.24 2.98 0 4.73 1.98 4.73 5.18v9.03h-3.96v-7.78c0-1.87-.88-2.84-2.4-2.84s-2.47.97-2.47 2.84v7.78h-3.95v-13.95z"/>
      <path d="M904.31 230.2v-.06c0-3.98 2.84-7.26 6.9-7.26 4.66 0 6.8 3.62 6.8 7.58 0 .3-.03.67-.06 1.04h-9.71c.4 1.8 1.64 2.73 3.41 2.73 1.33 0 2.3-.42 3.38-1.43l2.27 2a6.98 6.98 0 01-5.7 2.6c-4.2 0-7.29-2.94-7.29-7.2zm9.84-1.18c-.23-1.77-1.28-2.96-2.94-2.96-1.64 0-2.7 1.17-3.02 2.96h5.96z"/>
      <path d="M920.95 223.14h3.95v2.81c.81-1.92 2.11-3.17 4.45-3.07v4.14h-.2c-2.63 0-4.25 1.59-4.25 4.92v5.15h-3.95v-13.95z"/>
      <path d="M931.65 239.85l1.35-2.96a9.11 9.11 0 004.71 1.27c2.71 0 3.99-1.3 3.99-3.8v-.68c-1.18 1.4-2.45 2.27-4.56 2.27-3.25 0-6.2-2.37-6.2-6.51v-.05c0-4.17 3-6.51 6.2-6.51 2.16 0 3.44.91 4.5 2.08v-1.82h3.96v10.8c0 2.5-.6 4.32-1.77 5.5-1.3 1.3-3.3 1.87-6.01 1.87-2.27 0-4.4-.52-6.17-1.46zm10.05-10.41v-.05c0-1.9-1.49-3.23-3.41-3.23-1.93 0-3.39 1.33-3.39 3.23v.05c0 1.93 1.46 3.23 3.39 3.23 1.92 0 3.4-1.33 3.4-3.23z"/>
      <path d="M948.47 230.2v-.06c0-3.98 2.83-7.26 6.9-7.26 4.65 0 6.79 3.62 6.79 7.58 0 .3-.03.67-.05 1.04h-9.71c.39 1.8 1.64 2.73 3.4 2.73 1.33 0 2.3-.42 3.4-1.43l2.26 2a6.98 6.98 0 01-5.7 2.6c-4.2 0-7.3-2.94-7.3-7.2zm9.84-1.18c-.24-1.77-1.28-2.96-2.94-2.96-1.65 0-2.71 1.17-3.02 2.96h5.96z"/>
      <path d="M965.75 233.14v-6.62h-1.66v-3.38h1.66v-3.57h3.96v3.57H973v3.38h-3.28v5.96c0 .92.4 1.36 1.28 1.36.72 0 1.38-.18 1.95-.5v3.18c-.84.5-1.8.8-3.13.8-2.41 0-4.06-.96-4.06-4.18z"/>
      <path d="M975.99 218.09h4.16v3.51H976v-3.51zm.1 5.05h3.96v13.95h-3.96v-13.95z"/>
      <path d="M983.1 230.2v-.06a7.16 7.16 0 017.3-7.26c2.64 0 4.28.89 5.58 2.34l-2.42 2.6c-.89-.93-1.77-1.53-3.18-1.53-1.98 0-3.38 1.74-3.38 3.8v.05c0 2.14 1.38 3.86 3.54 3.86 1.33 0 2.24-.58 3.2-1.49l2.32 2.34a7.03 7.03 0 01-5.7 2.56 7.12 7.12 0 01-7.27-7.22z"/>
    </g>
    <g fill="#007AFF">
      <path d="M907.55 276.3l1.7-2.61a7.9 7.9 0 004.4 1.67c1.14 0 1.66-.42 1.66-1.05v-.05c0-.86-1.35-1.14-2.89-1.61-1.95-.57-4.16-1.49-4.16-4.2v-.04c0-2.84 2.29-4.43 5.1-4.43 1.77 0 3.7.6 5.2 1.61l-1.5 2.74a8.27 8.27 0 00-3.78-1.3c-.96 0-1.46.41-1.46.96v.05c0 .78 1.33 1.15 2.84 1.67 1.95.65 4.22 1.59 4.22 4.14v.05c0 3.1-2.32 4.5-5.34 4.5a9.77 9.77 0 01-5.99-2.1z"/>
      <path d="M921.04 271.24v-.05c0-4 3.23-7.26 7.58-7.26 4.32 0 7.52 3.2 7.52 7.2v.06c0 4.01-3.23 7.26-7.58 7.26-4.32 0-7.52-3.2-7.52-7.2zm11.2 0v-.05c0-2.06-1.49-3.85-3.68-3.85-2.26 0-3.62 1.74-3.62 3.8v.05c0 2.06 1.49 3.85 3.67 3.85 2.27 0 3.62-1.74 3.62-3.8z"/>
      <path d="M938.9 273.22v-9.03h3.96v7.78c0 1.88.88 2.84 2.4 2.84s2.46-.96 2.46-2.84v-7.78h3.96v13.95h-3.96v-1.98c-.9 1.17-2.08 2.24-4.08 2.24-3 0-4.74-1.98-4.74-5.18z"/>
      <path d="M955.4 259.14h3.96v19h-3.95v-19z"/>
    </g>
    <g id="ttl2">
      <g fill="#6D7C91">
        <path d="M322.13 820.36h2.67v12.75h7.98v2.44h-10.65v-15.2z"/>
        <path d="M334.41 829.88v-.04c0-3.28 2.6-5.99 6.12-5.99s6.1 2.67 6.1 5.94v.05a6 6 0 01-6.14 5.97 5.93 5.93 0 01-6.08-5.93zm9.6 0v-.04c0-2.02-1.46-3.69-3.52-3.69-2.1 0-3.45 1.65-3.45 3.65v.04c0 2 1.45 3.67 3.49 3.67 2.13 0 3.47-1.65 3.47-3.63z"/>
        <path d="M349.3 824.09h2.62v2.58c.71-1.71 2.04-2.89 4.06-2.8v2.78h-.16c-2.3 0-3.9 1.5-3.9 4.53v4.36h-2.63V824.1z"/>
        <path d="M357.34 829.84v-.05c0-3.8 2.59-5.94 5.32-5.94 1.89 0 3.08.93 3.9 2.02v-6.16h2.63v15.84h-2.63v-1.91a4.59 4.59 0 01-3.9 2.14c-2.7 0-5.32-2.14-5.32-5.94zm9.27 0v-.05c0-2.2-1.56-3.66-3.32-3.66-1.8 0-3.3 1.39-3.3 3.66v.05c0 2.21 1.52 3.66 3.3 3.66 1.76 0 3.32-1.47 3.32-3.66z"/>
        <path d="M371.86 829.86v-.04c0-3.28 2.32-5.97 5.6-5.97 3.64 0 5.49 2.86 5.49 6.16 0 .24-.02.48-.05.74h-8.41c.28 1.86 1.6 2.9 3.3 2.9 1.27 0 2.18-.47 3.1-1.36l1.54 1.37a5.8 5.8 0 01-4.69 2.14 5.71 5.71 0 01-5.88-5.94zm8.48-.85c-.17-1.69-1.17-3.01-2.9-3.01-1.61 0-2.74 1.23-2.98 3.01h5.88z"/>
      </g>
      <g fill="#2F343C">
        <path d="M242 861.65h9.26c5.4 0 8.68 3.2 8.68 7.83v.07c0 5.25-4.08 7.97-9.17 7.97h-3.79v6.8H242v-22.67zm8.93 11.43c2.5 0 3.95-1.49 3.95-3.43v-.07c0-2.23-1.55-3.43-4.05-3.43h-3.85v6.93h3.95z"/>
        <path d="M262.11 875.74v-.07c0-4.95 3.53-9.04 8.59-9.04 5.8 0 8.45 4.5 8.45 9.43 0 .39-.03.84-.06 1.3H267c.48 2.23 2.04 3.4 4.24 3.4a5.7 5.7 0 004.21-1.78l2.82 2.5a8.68 8.68 0 01-7.1 3.23c-5.21 0-9.07-3.66-9.07-8.97zm12.25-1.46c-.3-2.2-1.59-3.7-3.66-3.7-2.04 0-3.37 1.46-3.76 3.7h7.42z"/>
        <path d="M282.82 866.96h4.92v3.5c1-2.4 2.62-3.96 5.54-3.83v5.15h-.26c-3.27 0-5.28 1.98-5.28 6.13v6.41h-4.92v-17.36z"/>
        <path d="M297.2 871.17h-2.04v-4.05h2.04v-1.1c0-1.91.49-3.3 1.4-4.21.9-.91 2.23-1.36 3.98-1.36 1.56 0 2.6.19 3.5.48v4.08a6.22 6.22 0 00-2.23-.42c-1.14 0-1.79.58-1.79 1.88v.68h3.99v4.02h-3.92v13.15h-4.93v-13.15z"/>
        <path d="M307.57 875.74v-.07c0-4.95 3.53-9.04 8.59-9.04 5.8 0 8.45 4.5 8.45 9.43 0 .39-.03.84-.06 1.3h-12.09c.5 2.23 2.05 3.4 4.25 3.4a5.7 5.7 0 004.21-1.78l2.82 2.5a8.68 8.68 0 01-7.1 3.23c-5.21 0-9.07-3.66-9.07-8.97zm12.25-1.46c-.3-2.2-1.59-3.7-3.66-3.7-2.04 0-3.37 1.46-3.76 3.7h7.42z"/>
        <path d="M327.43 875.74v-.07c0-4.95 3.8-9.04 9.1-9.04 3.28 0 5.32 1.1 6.94 2.92l-3.01 3.24c-1.1-1.17-2.2-1.91-3.95-1.91-2.47 0-4.22 2.17-4.22 4.73v.06c0 2.66 1.72 4.8 4.41 4.8 1.65 0 2.79-.72 3.98-1.85l2.89 2.91a8.74 8.74 0 01-7.1 3.18 8.86 8.86 0 01-9.04-8.97z"/>
        <path d="M347.59 879.4v-8.23h-2.07v-4.21h2.07v-4.44h4.92v4.44h4.08v4.2h-4.08v7.43c0 1.13.49 1.68 1.59 1.68.9 0 1.72-.23 2.43-.61v3.95c-1.04.61-2.24 1-3.89 1-3.01 0-5.05-1.2-5.05-5.21z"/>
        <path d="M370.46 861.65h9.27c5.4 0 8.68 3.2 8.68 7.83v.07c0 5.25-4.08 7.97-9.17 7.97h-3.79v6.8h-4.99v-22.67zm8.94 11.43c2.5 0 3.96-1.49 3.96-3.43v-.07c0-2.23-1.56-3.43-4.05-3.43h-3.86v6.93h3.95z"/>
        <path d="M391.82 860.67h4.92v23.65h-4.92v-23.65z"/>
        <path d="M400.34 879.33v-.06c0-3.8 2.88-5.54 7-5.54 1.74 0 3 .29 4.24.71v-.29c0-2.04-1.27-3.18-3.73-3.18-1.88 0-3.2.36-4.8.94l-1.22-3.75c1.9-.85 3.79-1.4 6.74-1.4 2.68 0 4.63.72 5.86 1.95 1.3 1.3 1.88 3.2 1.88 5.54v10.07h-4.76v-1.88a6.68 6.68 0 01-5.25 2.2c-3.27 0-5.96-1.87-5.96-5.3zm11.3-1.13v-.88a7.63 7.63 0 00-3.14-.64c-2.1 0-3.4.84-3.4 2.4v.06c0 1.33 1.1 2.1 2.69 2.1 2.3 0 3.85-1.26 3.85-3.04z"/>
        <path d="M419.71 875.74v-.07c0-4.95 3.8-9.04 9.1-9.04 3.28 0 5.32 1.1 6.94 2.92l-3.01 3.24c-1.1-1.17-2.2-1.91-3.96-1.91-2.46 0-4.2 2.17-4.2 4.73v.06c0 2.66 1.71 4.8 4.4 4.8 1.65 0 2.79-.72 3.98-1.85l2.89 2.91a8.74 8.74 0 01-7.1 3.18 8.86 8.86 0 01-9.04-8.97z"/>
        <path d="M437.73 875.74v-.07c0-4.95 3.53-9.04 8.58-9.04 5.8 0 8.46 4.5 8.46 9.43 0 .39-.03.84-.07 1.3h-12.08c.49 2.23 2.04 3.4 4.24 3.4a5.7 5.7 0 004.22-1.78l2.81 2.5a8.68 8.68 0 01-7.1 3.23c-5.2 0-9.06-3.66-9.06-8.97zm12.24-1.46c-.29-2.2-1.58-3.7-3.66-3.7-2.04 0-3.37 1.46-3.75 3.7h7.41z"/>
        <path d="M457.07 882.02l2.1-3.24c1.89 1.36 3.86 2.07 5.48 2.07 1.43 0 2.08-.51 2.08-1.3v-.06c0-1.06-1.69-1.42-3.6-2-2.43-.72-5.18-1.85-5.18-5.22v-.06c0-3.54 2.85-5.51 6.35-5.51 2.2 0 4.6.74 6.48 2l-1.88 3.4c-1.72-1-3.44-1.61-4.7-1.61-1.2 0-1.81.52-1.81 1.2v.06c0 .97 1.65 1.43 3.53 2.07 2.43.81 5.24 1.98 5.24 5.15v.07c0 3.85-2.88 5.6-6.64 5.6-2.43 0-5.15-.8-7.45-2.62z"/>
      </g>
    </g>
  </g>
  <g id="eq3">
    <g fill="#007AFF">
      <path d="M872.87 94.95h3.96v7.03c.9-1.17 2.08-2.24 4.08-2.24 3 0 4.74 1.98 4.74 5.18v9.03h-3.95v-7.78c0-1.87-.89-2.84-2.4-2.84-1.51 0-2.47.97-2.47 2.84v7.78h-3.96v-19z"/>
      <path d="M888.26 109.94v-.05c0-3.04 2.32-4.45 5.62-4.45 1.4 0 2.42.24 3.41.57v-.23c0-1.64-1.01-2.55-3-2.55-1.5 0-2.57.29-3.84.75l-1-3.02a12.31 12.31 0 015.42-1.11c2.16 0 3.72.57 4.71 1.56 1.04 1.04 1.51 2.57 1.51 4.45v8.1h-3.82v-1.51a5.37 5.37 0 01-4.22 1.77c-2.63 0-4.8-1.52-4.8-4.28zm9.08-.9v-.7a6.14 6.14 0 00-2.52-.53c-1.7 0-2.73.68-2.73 1.93v.05c0 1.07.88 1.69 2.16 1.69 1.84 0 3.1-1.01 3.1-2.45z"/>
      <path d="M904.5 100h3.96v2.81c.8-1.92 2.11-3.17 4.45-3.07v4.14h-.2c-2.63 0-4.25 1.59-4.25 4.92v5.15h-3.96V100z"/>
      <path d="M914.5 107v-.05c0-4.66 3.05-7.2 6.36-7.2 2.1 0 3.4.95 4.34 2.07v-6.87h3.96v19h-3.96v-2a5.12 5.12 0 01-4.35 2.27c-3.25 0-6.35-2.56-6.35-7.22zm10.75 0v-.05c0-2.32-1.53-3.85-3.38-3.85-1.85 0-3.41 1.5-3.41 3.85v.05c0 2.32 1.56 3.86 3.41 3.86s3.38-1.54 3.38-3.86z"/>
      <path d="M940.51 100h3.96v2.81c.8-1.92 2.1-3.17 4.45-3.07v4.14h-.2c-2.64 0-4.25 1.59-4.25 4.92v5.15h-3.96V100z"/>
      <path d="M950.33 107.06V107c0-4 3.23-7.26 7.57-7.26 4.32 0 7.53 3.2 7.53 7.21v.05c0 4.01-3.23 7.27-7.58 7.27-4.32 0-7.52-3.2-7.52-7.21zm11.2 0V107c0-2.05-1.5-3.85-3.68-3.85-2.26 0-3.62 1.74-3.62 3.8v.05c0 2.06 1.49 3.86 3.67 3.86 2.27 0 3.62-1.75 3.62-3.8z"/>
      <path d="M967.62 107.06V107a7.16 7.16 0 017.31-7.26c2.63 0 4.27.89 5.57 2.34l-2.42 2.6c-.89-.93-1.77-1.53-3.18-1.53-1.98 0-3.38 1.75-3.38 3.8v.05c0 2.14 1.38 3.86 3.54 3.86 1.33 0 2.24-.58 3.2-1.49l2.32 2.35a7.03 7.03 0 01-5.7 2.55 7.13 7.13 0 01-7.26-7.21z"/>
      <path d="M983.16 94.95h3.96v10.13l4.63-5.08h4.74l-5.31 5.5 5.49 8.45h-4.53l-3.65-5.7-1.38 1.46v4.24h-3.95v-19z"/>
    </g>
    <g fill="#007AFF">
      <path d="M891.67 148.1v-.05a7.16 7.16 0 017.31-7.26c2.63 0 4.27.88 5.57 2.34l-2.42 2.6c-.88-.93-1.77-1.53-3.17-1.53-1.98 0-3.39 1.74-3.39 3.8v.05c0 2.14 1.38 3.85 3.54 3.85 1.33 0 2.24-.57 3.2-1.48l2.32 2.34a7.03 7.03 0 01-5.7 2.55 7.13 7.13 0 01-7.26-7.2z"/>
      <path d="M907.4 136h3.95v19h-3.96v-19z"/>
      <path d="M914.24 151v-.06c0-3.04 2.32-4.45 5.62-4.45 1.41 0 2.43.23 3.41.57v-.23c0-1.64-1.01-2.55-2.99-2.55-1.5 0-2.58.28-3.85.75l-1-3.02a12.31 12.31 0 015.42-1.12c2.16 0 3.73.58 4.71 1.57 1.05 1.04 1.51 2.57 1.51 4.45v8.1h-3.82v-1.52a5.37 5.37 0 01-4.22 1.77c-2.63 0-4.79-1.5-4.79-4.27zm9.09-.92v-.7a6.14 6.14 0 00-2.53-.52c-1.69 0-2.73.67-2.73 1.92v.05c0 1.07.89 1.7 2.16 1.7 1.85 0 3.1-1.02 3.1-2.45z"/>
      <path d="M929.4 153.15l1.69-2.6a7.9 7.9 0 004.4 1.67c1.14 0 1.66-.42 1.66-1.05v-.05c0-.86-1.35-1.14-2.89-1.61-1.95-.58-4.16-1.49-4.16-4.2v-.05c0-2.83 2.29-4.42 5.1-4.42 1.77 0 3.7.6 5.2 1.61l-1.5 2.74a8.26 8.26 0 00-3.78-1.3c-.96 0-1.46.41-1.46.96v.05c0 .78 1.33 1.15 2.84 1.67 1.95.65 4.22 1.58 4.22 4.14v.05c0 3.1-2.32 4.5-5.34 4.5a9.78 9.78 0 01-5.98-2.1z"/>
      <path d="M942.2 153.15l1.7-2.6a7.9 7.9 0 004.4 1.67c1.14 0 1.66-.42 1.66-1.05v-.05c0-.86-1.35-1.14-2.89-1.61-1.95-.58-4.16-1.49-4.16-4.2v-.05c0-2.83 2.29-4.42 5.1-4.42 1.77 0 3.7.6 5.2 1.61l-1.5 2.74a8.27 8.27 0 00-3.78-1.3c-.96 0-1.46.41-1.46.96v.05c0 .78 1.33 1.15 2.84 1.67 1.95.65 4.22 1.58 4.22 4.14v.05c0 3.1-2.32 4.5-5.34 4.5a9.78 9.78 0 01-5.99-2.1z"/>
      <path d="M956.45 136h4.16v3.51h-4.16V136zm.1 5.05h3.96V155h-3.96v-13.95z"/>
      <path d="M963.55 148.1v-.05a7.16 7.16 0 017.32-7.26c2.63 0 4.27.88 5.57 2.34l-2.42 2.6c-.89-.93-1.77-1.53-3.18-1.53-1.98 0-3.38 1.74-3.38 3.8v.05c0 2.14 1.38 3.85 3.54 3.85 1.33 0 2.24-.57 3.2-1.48l2.32 2.34a7.03 7.03 0 01-5.7 2.55 7.13 7.13 0 01-7.27-7.2z"/>
    </g>
    <g fill="#007AFF">
      <path d="M894.38 177.04h3.95v7.03c.91-1.17 2.09-2.24 4.09-2.24 3 0 4.74 1.98 4.74 5.18v9.04h-3.96v-7.79c0-1.87-.88-2.83-2.4-2.83-1.5 0-2.47.96-2.47 2.83v7.79h-3.95v-19z"/>
      <path d="M909.92 189.15v-.05c0-3.99 2.84-7.27 6.9-7.27 4.66 0 6.8 3.62 6.8 7.58 0 .31-.03.67-.06 1.04h-9.71c.4 1.8 1.64 2.73 3.41 2.73 1.33 0 2.3-.41 3.38-1.43l2.27 2a6.98 6.98 0 01-5.7 2.6c-4.2 0-7.29-2.93-7.29-7.2zm9.84-1.17c-.23-1.77-1.27-2.97-2.94-2.97-1.64 0-2.7 1.17-3.02 2.97h5.96z"/>
      <path d="M926.56 182.1h3.95v2.8c.81-1.92 2.11-3.17 4.46-3.07v4.14h-.21c-2.63 0-4.25 1.59-4.25 4.92v5.16h-3.95v-13.96z"/>
      <path d="M936.37 189.15v-.05c0-4.01 3.23-7.27 7.58-7.27 4.32 0 7.52 3.2 7.52 7.21v.06c0 4-3.23 7.26-7.58 7.26-4.32 0-7.52-3.2-7.52-7.21zm11.2 0v-.05c0-2.06-1.49-3.86-3.68-3.86-2.26 0-3.61 1.75-3.61 3.8v.06c0 2.05 1.48 3.85 3.67 3.85 2.26 0 3.62-1.74 3.62-3.8z"/>
      <path d="M954.41 177.04h4.17v3.52h-4.17v-3.52zm.1 5.05h3.97v13.96h-3.96v-13.96z"/>
      <path d="M961.52 189.15v-.05a7.16 7.16 0 017.32-7.27c2.63 0 4.27.89 5.57 2.35l-2.42 2.6c-.89-.94-1.78-1.54-3.18-1.54-1.98 0-3.38 1.75-3.38 3.8v.06c0 2.13 1.38 3.85 3.54 3.85 1.32 0 2.23-.57 3.2-1.49l2.31 2.35a7.03 7.03 0 01-5.7 2.55 7.12 7.12 0 01-7.26-7.21z"/>
    </g>
    <g fill="#007AFF">
      <path d="M898.54 223.14h3.96v2a5.12 5.12 0 014.35-2.26c3.25 0 6.35 2.55 6.35 7.21v.05c0 4.66-3.05 7.21-6.35 7.21-2.11 0-3.41-.96-4.35-2.08v5.99h-3.96v-18.12zm10.7 7v-.05c0-2.32-1.56-3.85-3.4-3.85-1.86 0-3.4 1.53-3.4 3.85v.05c0 2.32 1.54 3.86 3.4 3.86 1.84 0 3.4-1.51 3.4-3.86z"/>
      <path d="M916.2 218.09h4.16v3.51h-4.17v-3.51zm.1 5.05h3.96v13.95h-3.96v-13.95z"/>
      <path d="M923.15 233.08v-.05c0-3.04 2.31-4.45 5.62-4.45 1.4 0 2.42.24 3.4.57v-.23c0-1.64-1-2.55-2.98-2.55-1.51 0-2.58.29-3.86.75l-.99-3.02a12.3 12.3 0 015.42-1.11c2.16 0 3.72.57 4.71 1.56 1.04 1.04 1.51 2.57 1.51 4.45v8.1h-3.83v-1.51a5.36 5.36 0 01-4.21 1.77c-2.63 0-4.8-1.52-4.8-4.28zm9.08-.9v-.71a6.14 6.14 0 00-2.52-.52c-1.7 0-2.74.68-2.74 1.93v.05c0 1.06.89 1.69 2.16 1.69 1.85 0 3.1-1.02 3.1-2.45z"/>
      <path d="M939.4 223.14h3.95v1.98c.91-1.17 2.08-2.24 4.09-2.24 3 0 4.73 1.98 4.73 5.18v9.03h-3.95v-7.78c0-1.87-.89-2.84-2.4-2.84s-2.47.97-2.47 2.84v7.78h-3.96v-13.95z"/>
      <path d="M954.94 230.2v-.06c0-4 3.23-7.26 7.57-7.26 4.32 0 7.53 3.2 7.53 7.21v.05c0 4.01-3.23 7.27-7.58 7.27-4.32 0-7.52-3.2-7.52-7.22zm11.2 0v-.06c0-2.05-1.5-3.85-3.68-3.85-2.27 0-3.62 1.74-3.62 3.8v.05c0 2.06 1.48 3.86 3.67 3.86 2.27 0 3.62-1.75 3.62-3.8z"/>
    </g>
    <g fill="#007AFF">
      <path d="M903.15 280.9l1.36-2.97a9.11 9.11 0 004.7 1.28c2.72 0 4-1.3 4-3.8v-.68c-1.18 1.4-2.46 2.27-4.57 2.27-3.25 0-6.19-2.37-6.19-6.51v-.05c0-4.17 3-6.51 6.2-6.51 2.16 0 3.43.9 4.5 2.08v-1.82h3.96v10.8c0 2.5-.6 4.32-1.78 5.5-1.3 1.3-3.3 1.87-6 1.87-2.27 0-4.4-.52-6.18-1.46zm10.05-10.41v-.05c0-1.9-1.48-3.23-3.4-3.23-1.94 0-3.4 1.33-3.4 3.23v.05c0 1.92 1.46 3.23 3.4 3.23 1.92 0 3.4-1.33 3.4-3.23z"/>
      <path d="M920.83 259.14h3.96v19h-3.96v-19z"/>
      <path d="M927.68 274.13v-.05c0-3.04 2.32-4.45 5.62-4.45 1.4 0 2.42.23 3.41.57v-.23c0-1.64-1.01-2.55-3-2.55-1.5 0-2.57.28-3.85.75l-.98-3.02a12.3 12.3 0 015.41-1.12c2.16 0 3.72.58 4.71 1.57 1.04 1.04 1.51 2.57 1.51 4.45v8.1h-3.83v-1.52a5.36 5.36 0 01-4.21 1.77c-2.63 0-4.8-1.5-4.8-4.27zm9.08-.9v-.71a6.14 6.14 0 00-2.52-.52c-1.7 0-2.73.67-2.73 1.92v.06c0 1.06.88 1.69 2.16 1.69 1.84 0 3.1-1.02 3.1-2.45z"/>
      <path d="M943.92 264.19h3.96v1.98c.91-1.17 2.11-2.24 4.11-2.24 1.83 0 3.2.8 3.93 2.21a5.75 5.75 0 014.59-2.21c2.94 0 4.7 1.77 4.7 5.13v9.08h-3.95v-7.78c0-1.88-.83-2.84-2.31-2.84-1.49 0-2.4.96-2.4 2.84v7.78h-3.96v-7.78c0-1.88-.83-2.84-2.31-2.84s-2.4.96-2.4 2.84v7.78h-3.96V264.2z"/>
    </g>
    <g id="ttl3">
      <g fill="#6D7C91">
        <path d="M331.93 836l-1.82-1.63a8 8 0 01-4.63 1.44 7.71 7.71 0 01-7.92-7.82v-.04c0-4.27 3.3-7.85 7.97-7.85s7.92 3.53 7.92 7.8v.05c0 1.72-.57 3.34-1.54 4.67l1.73 1.47-1.71 1.91zm-3.78-3.36l-2.62-2.24 1.71-1.95 2.67 2.43c.48-.82.74-1.8.74-2.88v-.05c0-2.95-2.15-5.4-5.17-5.4-3.01 0-5.12 2.4-5.12 5.36v.04c0 2.95 2.15 5.38 5.17 5.38 1 0 1.88-.26 2.62-.7z"/>
        <path d="M336.24 831.38v-7.3h2.63v6.52c0 1.78.89 2.78 2.45 2.78 1.52 0 2.58-1.05 2.58-2.82v-6.47h2.65v11.46h-2.65v-1.78a4.12 4.12 0 01-3.58 2.01c-2.58 0-4.08-1.73-4.08-4.4z"/>
        <path d="M349.2 829.86v-.04c0-3.28 2.32-5.97 5.6-5.97 3.64 0 5.49 2.86 5.49 6.16 0 .24-.03.48-.05.74h-8.42c.29 1.86 1.6 2.9 3.3 2.9 1.28 0 2.2-.47 3.1-1.36l1.55 1.37a5.8 5.8 0 01-4.7 2.14 5.71 5.71 0 01-5.87-5.94zm8.48-.85c-.17-1.69-1.17-3.01-2.9-3.01-1.61 0-2.74 1.23-2.98 3.01h5.88z"/>
        <path d="M362.3 829.86v-.04c0-3.28 2.32-5.97 5.6-5.97 3.65 0 5.49 2.86 5.49 6.16 0 .24-.02.48-.04.74h-8.42c.28 1.86 1.6 2.9 3.3 2.9 1.28 0 2.19-.47 3.1-1.36l1.54 1.37a5.8 5.8 0 01-4.69 2.14 5.71 5.71 0 01-5.88-5.94zm8.49-.85c-.18-1.69-1.18-3.01-2.91-3.01-1.6 0-2.74 1.23-2.98 3.01h5.89z"/>
        <path d="M376.04 824.09h2.62v1.76c.74-1.07 1.8-2 3.58-2 2.58 0 4.08 1.74 4.08 4.38v7.32h-2.63v-6.51c0-1.78-.89-2.8-2.45-2.8-1.52 0-2.58 1.06-2.58 2.84v6.47h-2.62v-11.46z"/>
      </g>
      <g fill="#2F343C">
        <path d="M199.68 881.02l2.94-3.53c2.04 1.68 4.18 2.75 6.77 2.75 2.05 0 3.28-.81 3.28-2.14v-.06c0-1.27-.78-1.91-4.57-2.89-4.57-1.16-7.52-2.43-7.52-6.93v-.06c0-4.12 3.3-6.84 7.94-6.84 3.3 0 6.12 1.04 8.42 2.88l-2.59 3.76c-2-1.39-3.98-2.23-5.9-2.23-1.9 0-2.91.87-2.91 1.98v.06c0 1.49.97 1.98 4.89 2.98 4.6 1.2 7.2 2.85 7.2 6.8v.07c0 4.5-3.44 7.03-8.33 7.03-3.44 0-6.9-1.2-9.62-3.63z"/>
        <path d="M220.6 875.74v-.07c0-4.99 4.03-9.04 9.44-9.04 5.37 0 9.36 3.99 9.36 8.98v.06c0 5-4.02 9.04-9.43 9.04-5.38 0-9.36-3.98-9.36-8.97zm13.94 0v-.07c0-2.56-1.85-4.8-4.57-4.8-2.82 0-4.5 2.18-4.5 4.74v.06c0 2.56 1.85 4.8 4.57 4.8 2.81 0 4.5-2.17 4.5-4.73z"/>
        <path d="M242.96 866.96h4.93v2.46c1.13-1.46 2.62-2.79 5.12-2.79 2.26 0 3.98 1 4.89 2.76a7.15 7.15 0 015.7-2.76c3.66 0 5.86 2.2 5.86 6.39v11.3h-4.92v-9.68c0-2.34-1.04-3.54-2.88-3.54-1.85 0-2.98 1.2-2.98 3.54v9.68h-4.93v-9.68c0-2.34-1.03-3.54-2.88-3.54-1.85 0-2.98 1.2-2.98 3.54v9.68h-4.92v-17.36z"/>
        <path d="M272.9 875.74v-.07c0-4.95 3.53-9.04 8.59-9.04 5.8 0 8.45 4.5 8.45 9.43 0 .39-.03.84-.06 1.3H277.8c.48 2.23 2.04 3.4 4.24 3.4a5.7 5.7 0 004.21-1.78l2.82 2.5a8.68 8.68 0 01-7.1 3.23c-5.21 0-9.07-3.66-9.07-8.97zm12.25-1.46c-.3-2.2-1.59-3.7-3.66-3.7-2.04 0-3.37 1.46-3.76 3.7h7.42z"/>
        <path d="M298.53 882.05v2.27h-4.92v-23.65h4.92v8.78a6.38 6.38 0 015.41-2.82c4.05 0 7.9 3.18 7.9 8.98v.06c0 5.8-3.78 8.98-7.9 8.98a6.67 6.67 0 01-5.4-2.6zm8.4-6.38v-.06c0-2.89-1.95-4.8-4.25-4.8s-4.21 1.91-4.21 4.8v.06c0 2.89 1.9 4.8 4.2 4.8 2.3 0 4.25-1.88 4.25-4.8z"/>
        <path d="M314.64 875.74v-.07c0-4.99 4.01-9.04 9.42-9.04 5.38 0 9.37 3.99 9.37 8.98v.06c0 5-4.02 9.04-9.43 9.04-5.38 0-9.36-3.98-9.36-8.97zm13.93 0v-.07c0-2.56-1.85-4.8-4.57-4.8-2.82 0-4.5 2.18-4.5 4.74v.06c0 2.56 1.84 4.8 4.56 4.8 2.82 0 4.5-2.17 4.5-4.73z"/>
        <path d="M336.21 875.67v-.06c0-5.8 3.8-8.98 7.9-8.98 2.63 0 4.25 1.2 5.42 2.6v-8.56h4.92v23.65h-4.92v-2.5a6.38 6.38 0 01-5.41 2.82c-4.05 0-7.9-3.17-7.9-8.97zm13.38 0v-.06c0-2.89-1.9-4.8-4.2-4.8-2.3 0-4.25 1.88-4.25 4.8v.06c0 2.89 1.94 4.8 4.24 4.8 2.3 0 4.21-1.92 4.21-4.8z"/>
        <path d="M358.64 888.4l1.65-3.56c.65.39 1.46.68 2.1.68.85 0 1.3-.26 1.72-1.13l-6.8-17.43h5.21l3.95 11.82 3.8-11.82h5.11l-6.67 17.78c-1.33 3.53-2.75 4.86-5.7 4.86-1.78 0-3.11-.45-4.37-1.2z"/>
        <path d="M393.82 866.25h-6.9v-4.6h18.8v4.6h-6.9v18.07h-5v-18.08z"/>
        <path d="M404.78 875.74v-.07c0-4.99 4.01-9.04 9.42-9.04 5.38 0 9.37 3.99 9.37 8.98v.06c0 5-4.02 9.04-9.43 9.04-5.38 0-9.36-3.98-9.36-8.97zm13.93 0v-.07c0-2.56-1.85-4.8-4.57-4.8-2.82 0-4.5 2.18-4.5 4.74v.06c0 2.56 1.84 4.8 4.56 4.8 2.82 0 4.5-2.17 4.5-4.73z"/>
        <path d="M437.37 861.65h5v18.14h11.3v4.53h-16.3v-22.67z"/>
        <path d="M455.74 875.74v-.07c0-4.99 4.02-9.04 9.43-9.04 5.38 0 9.36 3.99 9.36 8.98v.06c0 5-4.01 9.04-9.42 9.04-5.38 0-9.37-3.98-9.37-8.97zm13.93 0v-.07c0-2.56-1.84-4.8-4.56-4.8-2.82 0-4.5 2.18-4.5 4.74v.06c0 2.56 1.84 4.8 4.56 4.8 2.82 0 4.5-2.17 4.5-4.73z"/>
        <path d="M475.57 866.96h5.22l3.88 11.63 3.92-11.63h5.12l-6.83 17.5h-4.47l-6.84-17.5z"/>
        <path d="M494.75 875.74v-.07c0-4.95 3.54-9.04 8.59-9.04 5.8 0 8.45 4.5 8.45 9.43 0 .39-.03.84-.06 1.3h-12.08c.48 2.23 2.04 3.4 4.24 3.4a5.7 5.7 0 004.21-1.78l2.82 2.5a8.68 8.68 0 01-7.1 3.23c-5.21 0-9.07-3.66-9.07-8.97zm12.25-1.46c-.3-2.2-1.59-3.7-3.66-3.7-2.04 0-3.37 1.46-3.76 3.7H507z"/>
      </g>
    </g>
  </g>
  <g id="eq4">
    <g fill="#007AFF">
      <path d="M879.5 100h3.95v2.81c.81-1.92 2.11-3.17 4.45-3.07v4.14h-.2c-2.63 0-4.25 1.59-4.25 4.92v5.15h-3.95V100z"/>
      <path d="M900.95 112.18a8.21 8.21 0 01-5.34 2.03c-3.49 0-6.11-2.03-6.11-5.25v-.06c0-2.31 1.24-3.95 3.54-5a6.09 6.09 0 01-1.28-3.64v-.05c0-2.5 2-4.79 5.52-4.79 3.1 0 5.13 2.03 5.13 4.58v.05c0 2.45-1.56 3.88-3.83 4.77l2.42 2.42c.6-.94 1.2-2 1.77-3.13l2.94 1.62a33.37 33.37 0 01-2.4 3.85l2.7 2.68-2.95 2.06-2.11-2.14zm-2.24-2.29l-3.49-3.54c-1.2.63-1.69 1.51-1.69 2.4v.05c0 1.27 1.07 2.13 2.55 2.13.91 0 1.8-.39 2.63-1.04zm.2-9.6v-.05c0-1.05-.7-1.7-1.7-1.7-1.08 0-1.78.76-1.78 1.85v.05c0 .81.31 1.41 1.07 2.27 1.59-.6 2.42-1.28 2.42-2.42z"/>
      <path d="M912.46 112.13v1.82h-3.96v-19h3.96v7.06a5.12 5.12 0 014.35-2.27c3.25 0 6.35 2.55 6.35 7.21v.05c0 4.66-3.05 7.21-6.35 7.21-2.11 0-3.41-.96-4.35-2.08zm6.74-5.13v-.05c0-2.32-1.56-3.85-3.4-3.85-1.86 0-3.4 1.54-3.4 3.85v.05c0 2.32 1.54 3.86 3.4 3.86 1.84 0 3.4-1.51 3.4-3.86z"/>
      <path d="M933.89 100h3.95v2.81c.81-1.92 2.11-3.17 4.45-3.07v4.14h-.2c-2.63 0-4.25 1.59-4.25 4.92v5.15h-3.95V100z"/>
      <path d="M943.7 107.06V107c0-4 3.23-7.26 7.58-7.26 4.32 0 7.52 3.2 7.52 7.21v.05c0 4.01-3.23 7.27-7.58 7.27-4.32 0-7.52-3.2-7.52-7.21zm11.2 0V107c0-2.05-1.49-3.85-3.68-3.85-2.26 0-3.61 1.74-3.61 3.8v.05c0 2.06 1.48 3.86 3.67 3.86 2.26 0 3.62-1.75 3.62-3.8z"/>
      <path d="M960.99 107.06V107a7.16 7.16 0 017.31-7.26c2.63 0 4.27.89 5.57 2.34l-2.42 2.6c-.88-.93-1.77-1.53-3.17-1.53-1.98 0-3.39 1.75-3.39 3.8v.05c0 2.14 1.38 3.86 3.54 3.86 1.33 0 2.24-.58 3.2-1.49l2.32 2.35a7.03 7.03 0 01-5.7 2.55 7.13 7.13 0 01-7.26-7.21z"/>
      <path d="M976.53 94.95h3.96v10.13l4.63-5.08h4.74l-5.31 5.5 5.5 8.45h-4.54l-3.64-5.7-1.38 1.46v4.24h-3.96v-19z"/>
    </g>
    <g fill="#007AFF">
      <path d="M903.06 136h4.17v3.51h-4.17V136zm.1 5.05h3.96V155h-3.96v-13.95z"/>
      <path d="M910.85 141.05h3.95v1.98c.91-1.17 2.09-2.24 4.09-2.24 3 0 4.74 1.98 4.74 5.18V155h-3.96v-7.78c0-1.88-.88-2.84-2.4-2.84-1.5 0-2.47.96-2.47 2.84V155h-3.96v-13.95z"/>
      <path d="M926.44 148.05V148c0-4.66 3.04-7.21 6.35-7.21 2.11 0 3.41.96 4.35 2.08V136h3.96v19h-3.96v-2a5.12 5.12 0 01-4.35 2.26c-3.25 0-6.35-2.55-6.35-7.2zm10.75 0V148c0-2.32-1.54-3.85-3.38-3.85-1.85 0-3.41 1.5-3.41 3.85v.05c0 2.32 1.56 3.85 3.4 3.85 1.86 0 3.4-1.53 3.4-3.85z"/>
      <path d="M944.72 136h4.16v3.51h-4.16V136zm.1 5.05h3.96V155h-3.96v-13.95z"/>
      <path d="M951.83 148.1v-.05c0-3.98 2.83-7.26 6.9-7.26 4.65 0 6.79 3.62 6.79 7.57 0 .31-.03.68-.05 1.04h-9.71c.39 1.8 1.64 2.74 3.4 2.74 1.33 0 2.3-.42 3.39-1.43l2.26 2a6.98 6.98 0 01-5.7 2.6c-4.19 0-7.28-2.94-7.28-7.2zm9.83-1.17c-.23-1.77-1.27-2.97-2.94-2.97-1.64 0-2.7 1.18-3.02 2.97h5.96z"/>
    </g>
    <g fill="#007AFF">
      <path d="M916.92 181.29h-8.56v-3.46h13.12v3.02l-8.18 15.2h-4.53l8.15-14.76z"/>
      <path d="M923.59 186.99v-.06c0-5.28 3.28-9.42 8.12-9.42 4.82 0 8.07 4.09 8.07 9.37v.06c0 5.28-3.25 9.42-8.12 9.42s-8.07-4.09-8.07-9.37zm12.08 0v-.06c0-3.3-1.62-5.8-4.01-5.8-2.4 0-3.96 2.42-3.96 5.75v.05c0 3.34 1.59 5.81 4.01 5.81s3.96-2.45 3.96-5.75z"/>
      <path d="M942 184.57c1.8-.19 2.68-1.1 2.55-2.58h-1.62v-4.17h4.22v3.52c0 3.44-1.72 4.81-4.81 4.87l-.34-1.64z"/>
      <path d="M948.92 194.2l1.7-2.6a7.9 7.9 0 004.4 1.66c1.14 0 1.66-.42 1.66-1.04v-.05c0-.86-1.36-1.15-2.9-1.62-1.94-.57-4.16-1.48-4.16-4.19v-.05c0-2.84 2.3-4.42 5.1-4.42 1.78 0 3.7.6 5.21 1.6l-1.5 2.74a8.26 8.26 0 00-3.78-1.3c-.96 0-1.46.42-1.46.96v.06c0 .78 1.33 1.14 2.84 1.66 1.95.65 4.22 1.59 4.22 4.14v.05c0 3.1-2.32 4.5-5.34 4.5a9.77 9.77 0 01-5.99-2.1z"/>
    </g>
    <g fill="#007AFF">
      <path d="M872.13 230.2v-.06c0-3.98 2.84-7.26 6.9-7.26 4.66 0 6.8 3.62 6.8 7.58 0 .3-.03.67-.06 1.04h-9.71c.4 1.8 1.64 2.73 3.41 2.73 1.33 0 2.3-.42 3.38-1.43l2.27 2a6.98 6.98 0 01-5.7 2.6c-4.2 0-7.29-2.94-7.29-7.2zm9.84-1.18c-.23-1.77-1.27-2.96-2.94-2.96-1.64 0-2.7 1.17-3.02 2.96h5.96z"/>
      <path d="M888.77 223.14h3.95v1.98c.92-1.17 2.09-2.24 4.1-2.24 2.98 0 4.73 1.98 4.73 5.18v9.03h-3.96v-7.78c0-1.87-.88-2.84-2.4-2.84s-2.47.97-2.47 2.84v7.78h-3.95v-13.95z"/>
      <path d="M904.31 230.2v-.06c0-3.98 2.84-7.26 6.9-7.26 4.66 0 6.8 3.62 6.8 7.58 0 .3-.03.67-.06 1.04h-9.71c.4 1.8 1.64 2.73 3.41 2.73 1.33 0 2.3-.42 3.38-1.43l2.27 2a6.98 6.98 0 01-5.7 2.6c-4.2 0-7.29-2.94-7.29-7.2zm9.84-1.18c-.23-1.77-1.28-2.96-2.94-2.96-1.64 0-2.7 1.17-3.02 2.96h5.96z"/>
      <path d="M920.95 223.14h3.95v2.81c.81-1.92 2.11-3.17 4.45-3.07v4.14h-.2c-2.63 0-4.25 1.59-4.25 4.92v5.15h-3.95v-13.95z"/>
      <path d="M931.65 239.85l1.35-2.96a9.11 9.11 0 004.71 1.27c2.71 0 3.99-1.3 3.99-3.8v-.68c-1.18 1.4-2.45 2.27-4.56 2.27-3.25 0-6.2-2.37-6.2-6.51v-.05c0-4.17 3-6.51 6.2-6.51 2.16 0 3.44.91 4.5 2.08v-1.82h3.96v10.8c0 2.5-.6 4.32-1.77 5.5-1.3 1.3-3.3 1.87-6.01 1.87-2.27 0-4.4-.52-6.17-1.46zm10.05-10.41v-.05c0-1.9-1.49-3.23-3.41-3.23-1.93 0-3.39 1.33-3.39 3.23v.05c0 1.93 1.46 3.23 3.39 3.23 1.92 0 3.4-1.33 3.4-3.23z"/>
      <path d="M948.47 230.2v-.06c0-3.98 2.83-7.26 6.9-7.26 4.65 0 6.79 3.62 6.79 7.58 0 .3-.03.67-.05 1.04h-9.71c.39 1.8 1.64 2.73 3.4 2.73 1.33 0 2.3-.42 3.4-1.43l2.26 2a6.98 6.98 0 01-5.7 2.6c-4.2 0-7.3-2.94-7.3-7.2zm9.84-1.18c-.24-1.77-1.28-2.96-2.94-2.96-1.65 0-2.71 1.17-3.02 2.96h5.96z"/>
      <path d="M965.75 233.14v-6.62h-1.66v-3.38h1.66v-3.57h3.96v3.57H973v3.38h-3.28v5.96c0 .92.4 1.36 1.28 1.36.72 0 1.38-.18 1.95-.5v3.18c-.84.5-1.8.8-3.13.8-2.41 0-4.06-.96-4.06-4.18z"/>
      <path d="M975.99 218.09h4.16v3.51H976v-3.51zm.1 5.05h3.96v13.95h-3.96v-13.95z"/>
      <path d="M983.1 230.2v-.06a7.16 7.16 0 017.3-7.26c2.64 0 4.28.89 5.58 2.34l-2.42 2.6c-.89-.93-1.77-1.53-3.18-1.53-1.98 0-3.38 1.74-3.38 3.8v.05c0 2.14 1.38 3.86 3.54 3.86 1.33 0 2.24-.58 3.2-1.49l2.32 2.34a7.03 7.03 0 01-5.7 2.56 7.12 7.12 0 01-7.27-7.22z"/>
    </g>
    <g fill="#007AFF">
      <path d="M894.99 259.14h3.96v7.03c.9-1.17 2.08-2.24 4.08-2.24 3 0 4.74 1.98 4.74 5.18v9.03h-3.95v-7.78c0-1.88-.89-2.84-2.4-2.84-1.51 0-2.47.97-2.47 2.84v7.78h-3.96v-19z"/>
      <path d="M910.38 274.13v-.05c0-3.04 2.31-4.45 5.62-4.45 1.4 0 2.42.23 3.41.57v-.23c0-1.64-1.01-2.55-3-2.55-1.5 0-2.57.28-3.85.75l-.98-3.02a12.31 12.31 0 015.41-1.12c2.16 0 3.72.58 4.71 1.57 1.04 1.04 1.51 2.57 1.51 4.45v8.1h-3.83v-1.52a5.37 5.37 0 01-4.21 1.77c-2.63 0-4.8-1.5-4.8-4.27zm9.08-.9v-.71a6.14 6.14 0 00-2.52-.52c-1.7 0-2.74.67-2.74 1.92v.06c0 1.06.9 1.69 2.17 1.69 1.84 0 3.1-1.02 3.1-2.45z"/>
      <path d="M926.62 264.19h3.96v2a5.12 5.12 0 014.35-2.26c3.25 0 6.35 2.55 6.35 7.2v.06c0 4.66-3.04 7.21-6.35 7.21-2.11 0-3.41-.96-4.35-2.08v5.99h-3.96v-18.12zm10.7 7v-.05c0-2.32-1.56-3.85-3.4-3.85-1.86 0-3.4 1.53-3.4 3.85v.05c0 2.32 1.54 3.85 3.4 3.85 1.84 0 3.4-1.5 3.4-3.85z"/>
      <path d="M944.2 264.19h3.95v2a5.12 5.12 0 014.35-2.26c3.26 0 6.35 2.55 6.35 7.2v.06c0 4.66-3.04 7.21-6.35 7.21-2.1 0-3.4-.96-4.35-2.08v5.99h-3.95v-18.12zm10.7 7v-.05c0-2.32-1.56-3.85-3.41-3.85s-3.39 1.53-3.39 3.85v.05c0 2.32 1.54 3.85 3.39 3.85s3.4-1.5 3.4-3.85z"/>
      <path d="M960.94 281.42l1.33-2.86a3.6 3.6 0 001.69.54c.67 0 1.04-.2 1.38-.9l-5.47-14.01h4.2l3.17 9.5 3.04-9.5h4.12l-5.37 14.29c-1.06 2.84-2.2 3.9-4.58 3.9-1.43 0-2.5-.36-3.51-.96z"/>
    </g>
    <g id="ttl4">
      <g fill="#6D7C91">
        <path d="M253.87 820.36h6.82c1.73 0 3.1.47 3.97 1.34a3.4 3.4 0 011.02 2.52v.04c0 1.83-1.05 2.8-2.17 3.39 1.78.6 3.01 1.63 3.01 3.69v.04c0 2.71-2.23 4.17-5.62 4.17h-7.03v-15.2zm9.14 4.3c0-1.2-.96-1.94-2.67-1.94h-3.84v4.04h3.64c1.72 0 2.87-.68 2.87-2.07v-.04zm-2.28 4.35h-4.23v4.17h4.43c1.82 0 2.93-.72 2.93-2.08v-.05c0-1.28-1.03-2.04-3.13-2.04z"/>
        <path d="M269.23 824.09h2.63v2.58c.71-1.71 2.04-2.89 4.06-2.8v2.78h-.16c-2.3 0-3.9 1.5-3.9 4.53v4.36h-2.63V824.1z"/>
        <path d="M278.06 831.38v-7.3h2.63v6.52c0 1.78.89 2.78 2.45 2.78 1.52 0 2.58-1.05 2.58-2.82v-6.47h2.65v11.46h-2.65v-1.78a4.12 4.12 0 01-3.58 2.01c-2.58 0-4.07-1.73-4.07-4.4z"/>
        <path d="M291.02 829.88v-.04a5.91 5.91 0 015.96-5.99c2.15 0 3.5.8 4.58 1.97l-1.65 1.76c-.8-.84-1.65-1.43-2.95-1.43-1.9 0-3.32 1.65-3.32 3.65v.04c0 2.04 1.41 3.67 3.43 3.67a4 4 0 002.97-1.41l1.59 1.56a5.8 5.8 0 01-4.69 2.15 5.85 5.85 0 01-5.92-5.93z"/>
        <path d="M303.08 829.86v-.04c0-3.28 2.32-5.97 5.6-5.97 3.65 0 5.49 2.86 5.49 6.16 0 .24-.02.48-.04.74h-8.42c.28 1.86 1.6 2.9 3.3 2.9 1.28 0 2.19-.47 3.1-1.36l1.54 1.37a5.8 5.8 0 01-4.69 2.14 5.71 5.71 0 01-5.88-5.94zm8.49-.85c-.18-1.69-1.18-3.01-2.91-3.01-1.6 0-2.74 1.23-2.98 3.01h5.88z"/>
        <path d="M322.6 833.33l1.61-1.9a7.03 7.03 0 004.8 1.97c1.65 0 2.69-.78 2.69-1.91v-.04c0-1.09-.6-1.68-3.43-2.33-3.23-.78-5.06-1.73-5.06-4.53v-.04c0-2.6 2.17-4.4 5.19-4.4 2.21 0 3.97.66 5.51 1.9l-1.43 2.02a6.9 6.9 0 00-4.12-1.56c-1.57 0-2.48.8-2.48 1.8v.04c0 1.17.7 1.7 3.63 2.39 3.2.78 4.86 1.93 4.86 4.45v.04c0 2.84-2.24 4.53-5.43 4.53-2.32 0-4.5-.8-6.33-2.43z"/>
        <path d="M337.2 824.09h2.63v1.9a4.59 4.59 0 013.91-2.14c2.69 0 5.32 2.13 5.32 5.95v.04c0 3.8-2.6 5.94-5.32 5.94-1.91 0-3.1-.95-3.9-2.01v5.25h-2.63v-14.93zm9.19 5.75v-.05c0-2.2-1.5-3.66-3.28-3.66s-3.34 1.47-3.34 3.66v.05c0 2.19 1.56 3.66 3.34 3.66 1.8 0 3.28-1.4 3.28-3.66z"/>
        <path d="M351.77 824.09h2.62v2.58c.72-1.71 2.04-2.89 4.06-2.8v2.78h-.15c-2.3 0-3.9 1.5-3.9 4.53v4.36h-2.63V824.1z"/>
        <path d="M360.77 819.84h2.82v2.5h-2.82v-2.5zm.11 4.25h2.63v11.46h-2.63v-11.46z"/>
        <path d="M366.93 824.09h2.63v1.76c.74-1.07 1.8-2 3.58-2 2.58 0 4.08 1.74 4.08 4.38v7.32h-2.63v-6.51c0-1.78-.89-2.8-2.45-2.8-1.52 0-2.58 1.06-2.58 2.84v6.47h-2.63v-11.46z"/>
        <path d="M380.36 837.7l.98-1.98a7.51 7.51 0 004.08 1.21c2.34 0 3.62-1.21 3.62-3.51v-.9a4.8 4.8 0 01-4.03 2.11c-2.7 0-5.21-2-5.21-5.36v-.04a5.17 5.17 0 015.2-5.38c1.94 0 3.13.89 4.02 1.95v-1.71h2.63v9.1c0 1.94-.5 3.37-1.46 4.33-1.04 1.04-2.64 1.54-4.7 1.54a9.84 9.84 0 01-5.13-1.37zm8.7-8.45v-.04c0-1.87-1.54-3.15-3.36-3.15-1.82 0-3.25 1.26-3.25 3.15v.04c0 1.87 1.45 3.15 3.25 3.15 1.82 0 3.37-1.28 3.37-3.15z"/>
        <path d="M394.01 834.05l1.17-1.78a6.48 6.48 0 003.76 1.4c1.13 0 1.78-.47 1.78-1.23v-.04c0-.9-1.22-1.2-2.56-1.6-1.7-.48-3.58-1.18-3.58-3.37v-.04c0-2.17 1.8-3.5 4.07-3.5 1.44 0 3 .5 4.21 1.3l-1.04 1.87a6.65 6.65 0 00-3.23-1.08c-1.02 0-1.6.47-1.6 1.13v.04c0 .85 1.23 1.2 2.57 1.63 1.68.52 3.56 1.28 3.56 3.34v.04c0 2.41-1.86 3.6-4.25 3.6a8.06 8.06 0 01-4.86-1.71z"/>
        <path d="M406.14 832.38v-6.04h-1.45v-2.25h1.45v-3.15h2.63v3.15h3.08v2.25h-3.09v5.62c0 1.02.53 1.44 1.42 1.44.58 0 1.1-.13 1.62-.4v2.15c-.65.37-1.36.59-2.36.59-1.93 0-3.3-.85-3.3-3.36z"/>
        <path d="M413.56 829.86v-.04c0-3.28 2.32-5.97 5.6-5.97 3.64 0 5.49 2.86 5.49 6.16 0 .24-.02.48-.04.74h-8.42c.28 1.86 1.6 2.9 3.3 2.9 1.27 0 2.19-.47 3.1-1.36l1.54 1.37a5.8 5.8 0 01-4.69 2.14 5.71 5.71 0 01-5.88-5.94zm8.48-.85c-.17-1.69-1.17-3.01-2.9-3.01-1.6 0-2.74 1.23-2.98 3.01h5.88z"/>
        <path d="M426.67 829.86v-.04c0-3.28 2.32-5.97 5.6-5.97 3.64 0 5.48 2.86 5.48 6.16 0 .24-.02.48-.04.74h-8.42c.28 1.86 1.6 2.9 3.3 2.9 1.28 0 2.19-.47 3.1-1.36l1.54 1.37a5.8 5.8 0 01-4.68 2.14 5.71 5.71 0 01-5.88-5.94zm8.48-.85c-.18-1.69-1.17-3.01-2.91-3.01-1.6 0-2.73 1.23-2.97 3.01h5.88z"/>
        <path d="M440.4 824.09h2.62v1.76c.74-1.07 1.8-2 3.58-2 2.58 0 4.08 1.74 4.08 4.38v7.32h-2.62v-6.51c0-1.78-.9-2.8-2.45-2.8-1.52 0-2.59 1.06-2.59 2.84v6.47h-2.62v-11.46z"/>
      </g>
      <g fill="#2F343C">
        <path d="M258.11 861.65h10.53c2.6 0 4.63.7 5.93 2a5.2 5.2 0 011.55 3.86v.06c0 2.56-1.36 3.99-2.98 4.9 2.63 1 4.25 2.52 4.25 5.57v.06c0 4.15-3.37 6.22-8.49 6.22h-10.79v-22.67zm9.46 9.16c2.2 0 3.6-.71 3.6-2.4v-.06c0-1.49-1.17-2.33-3.27-2.33h-4.93v4.8h4.6zm1.33 9.14c2.2 0 3.53-.78 3.53-2.46v-.07c0-1.52-1.13-2.46-3.7-2.46h-5.76v4.99h5.93z"/>
        <path d="M280.14 875.74v-.07c0-4.99 4.02-9.04 9.43-9.04 5.38 0 9.36 3.99 9.36 8.98v.06c0 5-4.01 9.04-9.42 9.04-5.38 0-9.37-3.98-9.37-8.97zm13.93 0v-.07c0-2.56-1.84-4.8-4.56-4.8-2.82 0-4.5 2.18-4.5 4.74v.06c0 2.56 1.84 4.8 4.56 4.8 2.82 0 4.5-2.17 4.5-4.73z"/>
        <path d="M302.5 866.96h4.92v3.5c1-2.4 2.63-3.96 5.54-3.83v5.15h-.26c-3.27 0-5.28 1.98-5.28 6.13v6.41h-4.92v-17.36z"/>
        <path d="M316.05 866.96h4.92v2.46c1.13-1.46 2.59-2.79 5.08-2.79 3.73 0 5.9 2.47 5.9 6.45v11.24h-4.92v-9.69c0-2.33-1.1-3.53-2.98-3.53s-3.08 1.2-3.08 3.54v9.68h-4.92v-17.36z"/>
        <path d="M351.75 866.25h-6.9v-4.6h18.79v4.6h-6.9v18.07h-4.99v-18.08z"/>
        <path d="M362.7 875.74v-.07c0-4.99 4.02-9.04 9.43-9.04 5.38 0 9.36 3.99 9.36 8.98v.06c0 5-4.01 9.04-9.42 9.04-5.38 0-9.37-3.98-9.37-8.97zm13.93 0v-.07c0-2.56-1.84-4.8-4.56-4.8-2.82 0-4.5 2.18-4.5 4.74v.06c0 2.56 1.84 4.8 4.56 4.8 2.82 0 4.5-2.17 4.5-4.73z"/>
        <path d="M395.3 861.65h10.36c2.89 0 5.12.8 6.61 2.3a7.12 7.12 0 011.95 5.18v.06a7.04 7.04 0 01-4.86 7.03l5.54 8.1h-5.83l-4.86-7.25h-3.92v7.25h-5v-22.67zm10.04 11c2.43 0 3.82-1.29 3.82-3.2v-.06c0-2.14-1.49-3.24-3.92-3.24h-4.95v6.51h5.05z"/>
        <path d="M418.08 878.2v-11.24H423v9.68c0 2.34 1.1 3.54 2.98 3.54s3.08-1.2 3.08-3.54v-9.68h4.92v17.36h-4.92v-2.46c-1.14 1.46-2.6 2.78-5.09 2.78-3.72 0-5.9-2.46-5.9-6.44z"/>
        <path d="M438.4 866.96h4.92v2.46c1.13-1.46 2.59-2.79 5.08-2.79 3.73 0 5.9 2.47 5.9 6.45v11.24h-4.93v-9.69c0-2.33-1.1-3.53-2.98-3.53s-3.07 1.2-3.07 3.54v9.68h-4.93v-17.36z"/>
      </g>
    </g>
  </g>

</svg>
