<svg xmlns="http://www.w3.org/2000/svg" viewBox="0 0 60 31">
  <rect width="2.4" height="2.38" x="14.4" fill="#838283"/>
  <rect width="2.4" height="2.38" x="16.8" fill="#818181"/>
  <rect width="2.4" height="2.38" x="19.2" fill="#838282"/>
  <rect width="2.4" height="2.38" x="21.6" fill="#848383"/>
  <rect width="2.4" height="2.38" x="24" fill="#858485"/>
  <rect width="2.4" height="2.38" x="26.4" fill="#858585"/>
  <rect width="2.4" height="2.38" x="28.8" fill="#868585"/>
  <rect width="2.4" height="2.38" x="31.2" fill="#868585"/>
  <rect width="2.4" height="2.38" x="33.6" fill="#848383"/>
  <rect width="2.4" height="2.38" x="36" fill="#838283"/>
  <rect width="2.4" height="2.38" x="38.4" fill="#818181"/>
  <rect width="2.4" height="2.38" x="40.8" fill="#818080"/>
  <rect width="2.4" height="2.38" x="43.2" fill="#848484"/>
  <rect width="2.4" height="2.38" x="4.8" y="2.38" fill="#646464"/>
  <rect width="2.4" height="2.38" x="7.2" y="2.38" fill="#696969"/>
  <rect width="2.4" height="2.38" x="9.6" y="2.38" fill="#747474"/>
  <rect width="2.4" height="2.38" x="12" y="2.38" fill="#7A7979"/>
  <rect width="2.4" height="2.38" x="14.4" y="2.38" fill="#7B7B7B"/>
  <rect width="2.4" height="2.38" x="16.8" y="2.38" fill="#7C7B7B"/>
  <rect width="2.4" height="2.38" x="19.2" y="2.38" fill="#7B7B7B"/>
  <rect width="2.4" height="2.38" x="21.6" y="2.38" fill="#7C7C7C"/>
  <rect width="2.4" height="2.38" x="24" y="2.38" fill="#7B7B7B"/>
  <rect width="2.4" height="2.38" x="26.4" y="2.38" fill="#7B7A7B"/>
  <rect width="2.4" height="2.38" x="28.8" y="2.38" fill="#7C7B7B"/>
  <rect width="2.4" height="2.38" x="31.2" y="2.38" fill="#7B7B7B"/>
  <rect width="2.4" height="2.38" x="33.6" y="2.38" fill="#7B7B7B"/>
  <rect width="2.4" height="2.38" x="36" y="2.38" fill="#7C7B7B"/>
  <rect width="2.4" height="2.38" x="38.4" y="2.38" fill="#7C7B7C"/>
  <rect width="2.4" height="2.38" x="40.8" y="2.38" fill="#7C7B7B"/>
  <rect width="2.4" height="2.38" x="43.2" y="2.38" fill="#7B7B7B"/>
  <rect width="2.4" height="2.38" x="45.6" y="2.38" fill="#797878"/>
  <rect width="2.4" height="2.38" x="48" y="2.38" fill="#727171"/>
  <rect width="2.4" height="2.38" x="50.4" y="2.38" fill="#6A6969"/>
  <rect width="2.4" height="2.38" x="52.8" y="2.38" fill="#666"/>
  <rect width="2.4" height="2.38" x="2.4" y="4.77" fill="#4E4E4E"/>
  <rect width="2.4" height="2.38" x="4.8" y="4.77" fill="#666"/>
  <rect width="2.4" height="2.38" x="7.2" y="4.77" fill="#686767"/>
  <rect width="2.4" height="2.38" x="9.6" y="4.77" fill="#666566"/>
  <rect width="2.4" height="2.38" x="12" y="4.77" fill="#666"/>
  <rect width="2.4" height="2.38" x="14.4" y="4.77" fill="#666566"/>
  <rect width="2.4" height="2.38" x="16.8" y="4.77" fill="#666"/>
  <rect width="2.4" height="2.38" x="19.2" y="4.77" fill="#666"/>
  <rect width="2.4" height="2.38" x="21.6" y="4.77" fill="#656565"/>
  <rect width="2.4" height="2.38" x="24" y="4.77" fill="#676667"/>
  <rect width="2.4" height="2.38" x="26.4" y="4.77" fill="#676666"/>
  <rect width="2.4" height="2.38" x="28.8" y="4.77" fill="#676666"/>
  <rect width="2.4" height="2.38" x="31.2" y="4.77" fill="#666"/>
  <rect width="2.4" height="2.38" x="33.6" y="4.77" fill="#676667"/>
  <rect width="2.4" height="2.38" x="36" y="4.77" fill="#676666"/>
  <rect width="2.4" height="2.38" x="38.4" y="4.77" fill="#666"/>
  <rect width="2.4" height="2.38" x="40.8" y="4.77" fill="#676667"/>
  <rect width="2.4" height="2.38" x="43.2" y="4.77" fill="#666"/>
  <rect width="2.4" height="2.38" x="45.6" y="4.77" fill="#676667"/>
  <rect width="2.4" height="2.38" x="48" y="4.77" fill="#666"/>
  <rect width="2.4" height="2.38" x="50.4" y="4.77" fill="#686767"/>
  <rect width="2.4" height="2.38" x="52.8" y="4.77" fill="#646464"/>
  <rect width="2.4" height="2.38" x="55.2" y="4.77" fill="#504F4F"/>
  <rect width="2.4" height="2.38" x="57.6" y="4.77" fill="#6D6D6D"/>
  <rect width="2.4" height="2.38" y="7.15" fill="#1E1E1E"/>
  <rect width="2.4" height="2.38" x="2.4" y="7.15" fill="#484848"/>
  <rect width="2.4" height="2.38" x="4.8" y="7.15" fill="#565656"/>
  <rect width="2.4" height="2.38" x="7.2" y="7.15" fill="#4D4D4D"/>
  <rect width="2.4" height="2.38" x="9.6" y="7.15" fill="#4F4F4F"/>
  <rect width="2.4" height="2.38" x="12" y="7.15" fill="#505050"/>
  <rect width="2.4" height="2.38" x="14.4" y="7.15" fill="#525252"/>
  <rect width="2.4" height="2.38" x="16.8" y="7.15" fill="#515151"/>
  <rect width="2.4" height="2.38" x="19.2" y="7.15" fill="#505050"/>
  <rect width="2.4" height="2.38" x="21.6" y="7.15" fill="#525252"/>
  <rect width="2.4" height="2.38" x="24" y="7.15" fill="#515151"/>
  <rect width="2.4" height="2.38" x="26.4" y="7.15" fill="#515151"/>
  <rect width="2.4" height="2.38" x="28.8" y="7.15" fill="#515151"/>
  <rect width="2.4" height="2.38" x="31.2" y="7.15" fill="#515151"/>
  <rect width="2.4" height="2.38" x="33.6" y="7.15" fill="#515151"/>
  <rect width="2.4" height="2.38" x="36" y="7.15" fill="#515151"/>
  <rect width="2.4" height="2.38" x="38.4" y="7.15" fill="#515151"/>
  <rect width="2.4" height="2.38" x="40.8" y="7.15" fill="#515151"/>
  <rect width="2.4" height="2.38" x="43.2" y="7.15" fill="#515151"/>
  <rect width="2.4" height="2.38" x="45.6" y="7.15" fill="#515151"/>
  <rect width="2.4" height="2.38" x="48" y="7.15" fill="#504F50"/>
  <rect width="2.4" height="2.38" x="50.4" y="7.15" fill="#4F4E4E"/>
  <rect width="2.4" height="2.38" x="52.8" y="7.15" fill="#585858"/>
  <rect width="2.4" height="2.38" x="55.2" y="7.15" fill="#464646"/>
  <rect width="2.4" height="2.38" x="57.6" y="7.15" fill="#171717"/>
  <rect width="2.4" height="2.38" y="9.54" fill="#202020"/>
  <rect width="2.4" height="2.38" x="2.4" y="9.54" fill="#0F0F0F"/>
  <rect width="2.4" height="2.38" x="4.8" y="9.54" fill="#3A3A3A"/>
  <rect width="2.4" height="2.38" x="7.2" y="9.54" fill="#464646"/>
  <rect width="2.4" height="2.38" x="9.6" y="9.54" fill="#464646"/>
  <rect width="2.4" height="2.38" x="12" y="9.54" fill="#3C3C3C"/>
  <rect width="2.4" height="2.38" x="14.4" y="9.54" fill="#2E2E2E"/>
  <rect width="2.4" height="2.38" x="16.8" y="9.54" fill="#2A2A2A"/>
  <rect width="2.4" height="2.38" x="19.2" y="9.54" fill="#2A2A2A"/>
  <rect width="2.4" height="2.38" x="21.6" y="9.54" fill="#2B2B2B"/>
  <rect width="2.4" height="2.38" x="24" y="9.54" fill="#2E2E2E"/>
  <rect width="2.4" height="2.38" x="26.4" y="9.54" fill="#303030"/>
  <rect width="2.4" height="2.38" x="28.8" y="9.54" fill="#2F2F2F"/>
  <rect width="2.4" height="2.38" x="31.2" y="9.54" fill="#303030"/>
  <rect width="2.4" height="2.38" x="33.6" y="9.54" fill="#2E2E2E"/>
  <rect width="2.4" height="2.38" x="36" y="9.54" fill="#2C2C2C"/>
  <rect width="2.4" height="2.38" x="38.4" y="9.54" fill="#2B2B2B"/>
  <rect width="2.4" height="2.38" x="40.8" y="9.54" fill="#2C2C2C"/>
  <rect width="2.4" height="2.38" x="43.2" y="9.54" fill="#323232"/>
  <rect width="2.4" height="2.38" x="45.6" y="9.54" fill="#3B3B3B"/>
  <rect width="2.4" height="2.38" x="48" y="9.54" fill="#444344"/>
  <rect width="2.4" height="2.38" x="50.4" y="9.54" fill="#434343"/>
  <rect width="2.4" height="2.38" x="52.8" y="9.54" fill="#373737"/>
  <rect width="2.4" height="2.38" x="55.2" y="9.54" fill="#0A0A0A"/>
  <rect width="2.4" height="2.38" x="57.6" y="9.54" fill="#1A1A1A"/>
  <rect width="2.4" height="2.38" y="11.92" fill="#2D2D2D"/>
  <rect width="2.4" height="2.38" x="2.4" y="11.92" fill="#111"/>
  <rect width="2.4" height="2.38" x="4.8" y="11.92" fill="#202020"/>
  <rect width="2.4" height="2.38" x="7.2" y="11.92" fill="#302F2F"/>
  <rect width="2.4" height="2.38" x="9.6" y="11.92" fill="#403F3E"/>
  <rect width="2.4" height="2.38" x="12" y="11.92" fill="#4C4B4B"/>
  <rect width="2.4" height="2.38" x="14.4" y="11.92" fill="#565655"/>
  <rect width="2.4" height="2.38" x="16.8" y="11.92" fill="#595857"/>
  <rect width="2.4" height="2.38" x="19.2" y="11.92" fill="#535252"/>
  <rect width="2.4" height="2.38" x="21.6" y="11.92" fill="#514F4F"/>
  <rect width="2.4" height="2.38" x="24" y="11.92" fill="#4B4A49"/>
  <rect width="2.4" height="2.38" x="26.4" y="11.92" fill="#474646"/>
  <rect width="2.4" height="2.38" x="28.8" y="11.92" fill="#484747"/>
  <rect width="2.4" height="2.38" x="31.2" y="11.92" fill="#464545"/>
  <rect width="2.4" height="2.38" x="33.6" y="11.92" fill="#494848"/>
  <rect width="2.4" height="2.38" x="36" y="11.92" fill="#4D4C4D"/>
  <rect width="2.4" height="2.38" x="38.4" y="11.92" fill="#4F4F4F"/>
  <rect width="2.4" height="2.38" x="40.8" y="11.92" fill="#4F4F4F"/>
  <rect width="2.4" height="2.38" x="43.2" y="11.92" fill="#4B4B4B"/>
  <rect width="2.4" height="2.38" x="45.6" y="11.92" fill="#444"/>
  <rect width="2.4" height="2.38" x="48" y="11.92" fill="#3A3A3A"/>
  <rect width="2.4" height="2.38" x="50.4" y="11.92" fill="#2E2E2E"/>
  <rect width="2.4" height="2.38" x="52.8" y="11.92" fill="#1E1E1E"/>
  <rect width="2.4" height="2.38" x="55.2" y="11.92" fill="#111"/>
  <rect width="2.4" height="2.38" x="57.6" y="11.92" fill="#2A2A2A"/>
  <rect width="2.4" height="2.38" y="14.31" fill="#2A2A2A"/>
  <rect width="2.4" height="2.38" x="2.4" y="14.31" fill="#171717"/>
  <rect width="2.4" height="2.38" x="4.8" y="14.31" fill="#272727"/>
  <rect width="2.4" height="2.38" x="7.2" y="14.31" fill="#232323"/>
  <rect width="2.4" height="2.38" x="9.6" y="14.31" fill="#222121"/>
  <rect width="2.4" height="2.38" x="12" y="14.31" fill="#2F2F2E"/>
  <rect width="2.4" height="2.38" x="14.4" y="14.31" fill="#414140"/>
  <rect width="2.4" height="2.38" x="16.8" y="14.31" fill="#504F4F"/>
  <rect width="2.4" height="2.38" x="19.2" y="14.31" fill="#575656"/>
  <rect width="2.4" height="2.38" x="21.6" y="14.31" fill="#585757"/>
  <rect width="2.4" height="2.38" x="24" y="14.31" fill="#5D5C5C"/>
  <rect width="2.4" height="2.38" x="26.4" y="14.31" fill="#5F5E5E"/>
  <rect width="2.4" height="2.38" x="28.8" y="14.31" fill="#606060"/>
  <rect width="2.4" height="2.38" x="31.2" y="14.31" fill="#5F5F5F"/>
  <rect width="2.4" height="2.38" x="33.6" y="14.31" fill="#5B5B5B"/>
  <rect width="2.4" height="2.38" x="36" y="14.31" fill="#565656"/>
  <rect width="2.4" height="2.38" x="38.4" y="14.31" fill="#545454"/>
  <rect width="2.4" height="2.38" x="40.8" y="14.31" fill="#4B4B4B"/>
  <rect width="2.4" height="2.38" x="43.2" y="14.31" fill="#3D3D3D"/>
  <rect width="2.4" height="2.38" x="45.6" y="14.31" fill="#303030"/>
  <rect width="2.4" height="2.38" x="48" y="14.31" fill="#252525"/>
  <rect width="2.4" height="2.38" x="50.4" y="14.31" fill="#242424"/>
  <rect width="2.4" height="2.38" x="52.8" y="14.31" fill="#282828"/>
  <rect width="2.4" height="2.38" x="55.2" y="14.31" fill="#161616"/>
  <rect width="2.4" height="2.38" x="57.6" y="14.31" fill="#262626"/>
  <rect width="2.4" height="2.38" y="16.69" fill="#2A2A2A"/>
  <rect width="2.4" height="2.38" x="2.4" y="16.69" fill="#181818"/>
  <rect width="2.4" height="2.38" x="4.8" y="16.69" fill="#272727"/>
  <rect width="2.4" height="2.38" x="7.2" y="16.69" fill="#292929"/>
  <rect width="2.4" height="2.38" x="9.6" y="16.69" fill="#2C2C2C"/>
  <rect width="2.4" height="2.38" x="12" y="16.69" fill="#2E2E2D"/>
  <rect width="2.4" height="2.38" x="14.4" y="16.69" fill="#292929"/>
  <rect width="2.4" height="2.38" x="16.8" y="16.69" fill="#252525"/>
  <rect width="2.4" height="2.38" x="19.2" y="16.69" fill="#242323"/>
  <rect width="2.4" height="2.38" x="21.6" y="16.69" fill="#262626"/>
  <rect width="2.4" height="2.38" x="24" y="16.69" fill="#292828"/>
  <rect width="2.4" height="2.38" x="26.4" y="16.69" fill="#2B2B2B"/>
  <rect width="2.4" height="2.38" x="28.8" y="16.69" fill="#2C2C2C"/>
  <rect width="2.4" height="2.38" x="31.2" y="16.69" fill="#2C2C2C"/>
  <rect width="2.4" height="2.38" x="33.6" y="16.69" fill="#2B2B2B"/>
  <rect width="2.4" height="2.38" x="36" y="16.69" fill="#282828"/>
  <rect width="2.4" height="2.38" x="38.4" y="16.69" fill="#262626"/>
  <rect width="2.4" height="2.38" x="40.8" y="16.69" fill="#272727"/>
  <rect width="2.4" height="2.38" x="43.2" y="16.69" fill="#2C2C2C"/>
  <rect width="2.4" height="2.38" x="45.6" y="16.69" fill="#2E2E2E"/>
  <rect width="2.4" height="2.38" x="48" y="16.69" fill="#2D2D2D"/>
  <rect width="2.4" height="2.38" x="50.4" y="16.69" fill="#292929"/>
  <rect width="2.4" height="2.38" x="52.8" y="16.69" fill="#272727"/>
  <rect width="2.4" height="2.38" x="55.2" y="16.69" fill="#151515"/>
  <rect width="2.4" height="2.38" x="57.6" y="16.69" fill="#282828"/>
  <rect width="2.4" height="2.38" y="19.08" fill="#2A2A2A"/>
  <rect width="2.4" height="2.38" x="2.4" y="19.08" fill="#161616"/>
  <rect width="2.4" height="2.38" x="4.8" y="19.08" fill="#282828"/>
  <rect width="2.4" height="2.38" x="7.2" y="19.08" fill="#292929"/>
  <rect width="2.4" height="2.38" x="9.6" y="19.08" fill="#2A2A2A"/>
  <rect width="2.4" height="2.38" x="12" y="19.08" fill="#2D2E2E"/>
  <rect width="2.4" height="2.38" x="14.4" y="19.08" fill="#2F2F2F"/>
  <rect width="2.4" height="2.38" x="16.8" y="19.08" fill="#313131"/>
  <rect width="2.4" height="2.38" x="19.2" y="19.08" fill="#343334"/>
  <rect width="2.4" height="2.38" x="21.6" y="19.08" fill="#373636"/>
  <rect width="2.4" height="2.38" x="24" y="19.08" fill="#3A3A3A"/>
  <rect width="2.4" height="2.38" x="26.4" y="19.08" fill="#3C3C3C"/>
  <rect width="2.4" height="2.38" x="28.8" y="19.08" fill="#3E3F3E"/>
  <rect width="2.4" height="2.38" x="31.2" y="19.08" fill="#3D3D3D"/>
  <rect width="2.4" height="2.38" x="33.6" y="19.08" fill="#3A3A3A"/>
  <rect width="2.4" height="2.38" x="36" y="19.08" fill="#373737"/>
  <rect width="2.4" height="2.38" x="38.4" y="19.08" fill="#363536"/>
  <rect width="2.4" height="2.38" x="40.8" y="19.08" fill="#333"/>
  <rect width="2.4" height="2.38" x="43.2" y="19.08" fill="#313030"/>
  <rect width="2.4" height="2.38" x="45.6" y="19.08" fill="#2D2D2D"/>
  <rect width="2.4" height="2.38" x="48" y="19.08" fill="#2C2C2C"/>
  <rect width="2.4" height="2.38" x="50.4" y="19.08" fill="#2A2A2A"/>
  <rect width="2.4" height="2.38" x="52.8" y="19.08" fill="#272727"/>
  <rect width="2.4" height="2.38" x="55.2" y="19.08" fill="#151515"/>
  <rect width="2.4" height="2.38" x="57.6" y="19.08" fill="#272727"/>
  <rect width="2.4" height="2.38" y="21.46" fill="#1B1B1B"/>
  <rect width="2.4" height="2.38" x="2.4" y="21.46" fill="#1A1A1A"/>
  <rect width="2.4" height="2.38" x="4.8" y="21.46" fill="#272727"/>
  <rect width="2.4" height="2.38" x="7.2" y="21.46" fill="#292929"/>
  <rect width="2.4" height="2.38" x="9.6" y="21.46" fill="#2B2C2C"/>
  <rect width="2.4" height="2.38" x="12" y="21.46" fill="#2C2C2C"/>
  <rect width="2.4" height="2.38" x="14.4" y="21.46" fill="#2E2F2F"/>
  <rect width="2.4" height="2.38" x="16.8" y="21.46" fill="#323232"/>
  <rect width="2.4" height="2.38" x="19.2" y="21.46" fill="#333"/>
  <rect width="2.4" height="2.38" x="21.6" y="21.46" fill="#373637"/>
  <rect width="2.4" height="2.38" x="24" y="21.46" fill="#383838"/>
  <rect width="2.4" height="2.38" x="26.4" y="21.46" fill="#3B3B3B"/>
  <rect width="2.4" height="2.38" x="28.8" y="21.46" fill="#3D3E3D"/>
  <rect width="2.4" height="2.38" x="31.2" y="21.46" fill="#3B3B3B"/>
  <rect width="2.4" height="2.38" x="33.6" y="21.46" fill="#393A3A"/>
  <rect width="2.4" height="2.38" x="36" y="21.46" fill="#373737"/>
  <rect width="2.4" height="2.38" x="38.4" y="21.46" fill="#353535"/>
  <rect width="2.4" height="2.38" x="40.8" y="21.46" fill="#333"/>
  <rect width="2.4" height="2.38" x="43.2" y="21.46" fill="#302F30"/>
  <rect width="2.4" height="2.38" x="45.6" y="21.46" fill="#2E2E2E"/>
  <rect width="2.4" height="2.38" x="48" y="21.46" fill="#2C2C2C"/>
  <rect width="2.4" height="2.38" x="50.4" y="21.46" fill="#292929"/>
  <rect width="2.4" height="2.38" x="52.8" y="21.46" fill="#272727"/>
  <rect width="2.4" height="2.38" x="55.2" y="21.46" fill="#181818"/>
  <rect width="2.4" height="2.38" x="57.6" y="21.46" fill="#1A1A1A"/>
  <rect width="2.4" height="2.38" x="2.4" y="23.85"/>
  <rect width="2.4" height="2.38" x="4.8" y="23.85" fill="#262626"/>
  <rect width="2.4" height="2.38" x="7.2" y="23.85" fill="#2B2B2B"/>
  <rect width="2.4" height="2.38" x="9.6" y="23.85" fill="#2A2A2A"/>
  <rect width="2.4" height="2.38" x="12" y="23.85" fill="#2D2E2E"/>
  <rect width="2.4" height="2.38" x="14.4" y="23.85" fill="#303030"/>
  <rect width="2.4" height="2.38" x="16.8" y="23.85" fill="#313131"/>
  <rect width="2.4" height="2.38" x="19.2" y="23.85" fill="#333"/>
  <rect width="2.4" height="2.38" x="21.6" y="23.85" fill="#363636"/>
  <rect width="2.4" height="2.38" x="24" y="23.85" fill="#383838"/>
  <rect width="2.4" height="2.38" x="26.4" y="23.85" fill="#3B3B3B"/>
  <rect width="2.4" height="2.38" x="28.8" y="23.85" fill="#3E3E3E"/>
  <rect width="2.4" height="2.38" x="31.2" y="23.85" fill="#3B3B3B"/>
  <rect width="2.4" height="2.38" x="33.6" y="23.85" fill="#393939"/>
  <rect width="2.4" height="2.38" x="36" y="23.85" fill="#373737"/>
  <rect width="2.4" height="2.38" x="38.4" y="23.85" fill="#353535"/>
  <rect width="2.4" height="2.38" x="40.8" y="23.85" fill="#333"/>
  <rect width="2.4" height="2.38" x="43.2" y="23.85" fill="#313030"/>
  <rect width="2.4" height="2.38" x="45.6" y="23.85" fill="#2E2E2E"/>
  <rect width="2.4" height="2.38" x="48" y="23.85" fill="#2D2D2D"/>
  <rect width="2.4" height="2.38" x="50.4" y="23.85" fill="#2A2A2A"/>
  <rect width="2.4" height="2.38" x="52.8" y="23.85" fill="#282828"/>
  <rect width="2.4" height="2.38" x="55.2" y="23.85"/>
  <rect width="2.4" height="2.38" x="57.6" y="23.85" fill="#363636"/>
  <rect width="2.4" height="2.38" x="4.8" y="26.23"/>
  <rect width="2.4" height="2.38" x="7.2" y="26.23"/>
  <rect width="2.4" height="2.38" x="9.6" y="26.23" fill="#151616"/>
  <rect width="2.4" height="2.38" x="12" y="26.23" fill="#252525"/>
  <rect width="2.4" height="2.38" x="14.4" y="26.23" fill="#2B2B2B"/>
  <rect width="2.4" height="2.38" x="16.8" y="26.23" fill="#323131"/>
  <rect width="2.4" height="2.38" x="19.2" y="26.23" fill="#343434"/>
  <rect width="2.4" height="2.38" x="21.6" y="26.23" fill="#373737"/>
  <rect width="2.4" height="2.38" x="24" y="26.23" fill="#393839"/>
  <rect width="2.4" height="2.38" x="26.4" y="26.23" fill="#3C3C3C"/>
  <rect width="2.4" height="2.38" x="28.8" y="26.23" fill="#3D3D3D"/>
  <rect width="2.4" height="2.38" x="31.2" y="26.23" fill="#3C3C3C"/>
  <rect width="2.4" height="2.38" x="33.6" y="26.23" fill="#3B3B3B"/>
  <rect width="2.4" height="2.38" x="36" y="26.23" fill="#373737"/>
  <rect width="2.4" height="2.38" x="38.4" y="26.23" fill="#363535"/>
  <rect width="2.4" height="2.38" x="40.8" y="26.23" fill="#343434"/>
  <rect width="2.4" height="2.38" x="43.2" y="26.23" fill="#303030"/>
  <rect width="2.4" height="2.38" x="45.6" y="26.23" fill="#2A2A2A"/>
  <rect width="2.4" height="2.38" x="48" y="26.23" fill="#1A1A1A"/>
  <rect width="2.4" height="2.38" x="50.4" y="26.23" fill="#030303"/>
  <rect width="2.4" height="2.38" x="52.8" y="26.23"/>
  <rect width="2.4" height="2.38" x="12" y="28.62" fill="#232323"/>
  <rect width="2.4" height="2.38" x="14.4" y="28.62" fill="#151515"/>
  <rect width="2.4" height="2.38" x="16.8" y="28.62" fill="#0C0C0C"/>
  <rect width="2.4" height="2.38" x="19.2" y="28.62" fill="#0D0C0C"/>
  <rect width="2.4" height="2.38" x="21.6" y="28.62" fill="#0F0E0E"/>
  <rect width="2.4" height="2.38" x="24" y="28.62" fill="#151515"/>
  <rect width="2.4" height="2.38" x="26.4" y="28.62" fill="#1A1919"/>
  <rect width="2.4" height="2.38" x="28.8" y="28.62" fill="#1D1C1C"/>
  <rect width="2.4" height="2.38" x="31.2" y="28.62" fill="#1B1A1A"/>
  <rect width="2.4" height="2.38" x="33.6" y="28.62" fill="#171617"/>
  <rect width="2.4" height="2.38" x="36" y="28.62" fill="#141314"/>
  <rect width="2.4" height="2.38" x="38.4" y="28.62" fill="#0E0E0E"/>
  <rect width="2.4" height="2.38" x="40.8" y="28.62" fill="#0B0A0A"/>
  <rect width="2.4" height="2.38" x="43.2" y="28.62" fill="#0D0D0D"/>
  <rect width="2.4" height="2.38" x="45.6" y="28.62" fill="#181818"/>
</svg>
