<?xml version="1.0" encoding="UTF-8"?>
<svg id="Layer_1" xmlns="http://www.w3.org/2000/svg" width="376" height="582" version="1.1" viewBox="0 0 376 582">
  <!-- Generator: Adobe Illustrator 29.0.0, SVG Export Plug-In . SVG Version: 2.1.0 Build 186)  -->
  <path d="M221.75,278.55c1.39.46,2.87,2.71,2.32,3.75-.4.74-.95-.99-.95-.99l-1.37-2.75h0Z" fill="#be7243"/>
  <path d="M219.96,290.25h-2.95s.79-.75,1.54-.8,1.41.8,1.41.8Z" fill="#a56339"/>
  <path d="M214.75,281.14c-.04,1.64.25,3.28.86,4.8.59,1.48,2.78,2.27,2.45,4.3l1.87.03c.63-1.12-.73-2.94-.29-4.26.95-2.85,1.07-4.12.39-5.63l-5.27.75h0ZM207.9,280.88c.03,3.14,1.6,6.42.2,9.37h1.44c1.88-1.93,2.92-4.51,2.91-7.2l-4.55-2.16h0Z" fill="#a56339"/>
  <path d="M209.54,290.25h-2.46s.59-.75,1.34-.8,1.11.8,1.11.8h.01Z" fill="#a56339"/>
  <path d="M217.61,276.72c-2.44-.14-9.76,0-9.76,0v3.46c0,1.17.4,2.34,1.22,3.29.9.93,2.09,1.52,3.37,1.69l6.93.81c1,.15,2.06-.12,2.89-.84.79-.67,1.24-1.65,1.25-2.69.06-1.48-.48-2.92-1.48-4-1.22-1.1-2.79-1.71-4.43-1.73h0ZM223.53,282.4v.23-.23Z" fill="#be7243"/>
  <path d="M210.46,280.88c.03,3.14,2.59,6.42,1.18,9.37h1.44c1.73-1.79,2.01-4.46,1.93-7.2l-4.55-2.16h0Z" fill="#be7243"/>
  <path d="M213.08,290.25h-2.46s.59-.75,1.34-.8,1.11.8,1.11.8h.01ZM223,290.25h-2.95s.79-.75,1.54-.8,1.41.8,1.41.8Z" fill="#be7243"/>
  <path d="M217.79,281.14c-.04,1.64.25,3.28.86,4.8.59,1.48,2.78,2.27,2.45,4.3l1.87.03c.63-1.12-.73-2.94-.29-4.26.95-2.85,1.06-4.12.39-5.63l-5.27.75h0Z" fill="#be7243"/>
  <g>
    <path d="M211.97,273.65c-.43-.27-1.02-.1-1.31.38-.29.47-.18,1.07.26,1.34.43.27,1.02.1,1.31-.38.29-.47.18-1.07-.26-1.34Z" fill="#a56339"/>
    <path d="M211.72,274.05c-.3-.18-.71-.05-.92.29-.21.34-.14.77.16.95.3.18.71.05.92-.29.21-.34.14-.77-.16-.95Z" fill="#704b36"/>
    <path d="M205.94,273.65c-.43.27-.55.87-.26,1.34.29.47.88.64,1.31.38.43-.27.55-.87.26-1.34-.29-.47-.88-.64-1.31-.38Z" fill="#a56339"/>
    <path d="M206.19,274.05c-.3.18-.37.61-.16.95.21.34.62.47.92.29s.37-.61.16-.95c-.21-.34-.62-.47-.92-.29Z" fill="#704b36"/>
    <path d="M212.17,277.15c0,1.72-3.22,3.95-3.22,3.95,0,0-3.22-2.23-3.22-3.95s1.55-3.12,3.22-3.12,3.22,1.4,3.22,3.12Z" fill="#a56339"/>
    <path d="M212.17,277.15c0,1.72-3.22,3.95-3.22,3.95,0,0-3.22-2.23-3.22-3.95s2.26-2.01,3.22-.74c.83-1.19,3.22-.98,3.22.74Z" fill="#c88963"/>
    <path d="M209.45,275.95s-.07-.44-.51-.44c-.33,0-.48.44-.48.44l-.51,1.95h2.02l-.51-1.95h-.01Z" fill="#704b36"/>
    <path d="M210.2,278.43c0,.69-.56,1.25-1.24,1.25s-1.24-.56-1.24-1.25.56-1.05,1.24-1.05,1.24.35,1.24,1.05Z" fill="#e2af8e"/>
    <path d="M207.94,276.68c0,.15-.12.27-.27.27s-.27-.12-.27-.27.12-.27.27-.27.27.12.27.27Z"/>
    <path d="M207.71,276.66s-.04.09-.09.09-.09-.04-.09-.09.04-.09.09-.09.09.04.09.09Z" fill="#fff"/>
    <path d="M210.56,276.68c0,.15-.12.27-.27.27s-.27-.12-.27-.27.12-.27.27-.27.27.12.27.27Z"/>
    <path d="M210.33,276.66s-.04.09-.09.09-.09-.04-.09-.09.04-.09.09-.09.09.04.09.09Z" fill="#fff"/>
    <path d="M208.96,279.06h.05c.25-.01.49-.14.63-.35.02-.02,0-.06,0-.07-.02-.02-.05-.01-.07.01-.23.33-.69.41-1.02.17-.07-.05-.12-.11-.17-.17-.02-.02-.05-.03-.07-.01s-.03.05,0,.07c.16.23.41.36.69.36h-.02Z"/>
    <path d="M208.95,279.02s.05-.02.05-.05v-.41s-.02-.05-.05-.05-.05.02-.05.05v.41s.02.05.05.05Z"/>
    <path d="M209.59,278.15c0,.25-.63.54-.63.54,0,0-.63-.29-.63-.54s.28-.45.63-.45.63.2.63.45Z" fill="#3e3a33"/>
    <path d="M209.47,278.33c0-.1-.08-.19-.19-.19s-.19.08-.19.19c0,.1.07.17.16.18.07-.05.15-.1.21-.16v-.02h0ZM208.63,278.15c-.1,0-.19.08-.19.19v.02c.06.06.14.11.21.16.09-.01.16-.09.16-.18,0-.1-.08-.19-.19-.19h0Z"/>
  </g>
</svg>