<?xml version="1.0" encoding="UTF-8"?>
<svg id="Layer_1" xmlns="http://www.w3.org/2000/svg" width="376" height="582" version="1.1" viewBox="0 0 376 582">
  <!-- Generator: Adobe Illustrator 29.0.0, SVG Export Plug-In . SVG Version: 2.1.0 Build 186)  -->
  <path id="tail" d="M85.83,416.07c.07.85,1.57,1.52,3.42,1.52s3.34-.68,3.42-1.52h-6.84Z"/>
  <g id="paw">
    <path d="M102.53,414.09v.52c-.6.91-1.93,1.23-2.68.94-.27-.1-.37-.46-.31-.76s.34-.61.62-.56c.66.13,1.61.33,2.36-.13h0Z" fill="#705861"/>
    <path d="M103.22,414.21c.1.25-.06.56-.37.69-.31.13-.65.02-.75-.23s.06-.56.38-.69c.31-.13.65-.02.75.23h0Z" fill="#644e56"/>
  </g>
  <path d="M100.03,416.7h-2.86v.77h3.73c-.02-.19-.11-.37-.25-.51-.17-.17-.39-.26-.63-.26h0Z" fill="#644e56"/>
  <path d="M91.97,416.31c-.16.47.09.98.56,1.14.1.03.2.05.31.05h4.05c1.66,0,3.23-.75,4.26-2.05l1.98-3.55-3.15-1.93c-1.21-.74-2.68-.88-4.01-.39-1.35.53-2.43,1.58-2.99,2.92-.51,1.21-1,3.81-1,3.81h-.01Z" fill="#705861"/>
  <g id="head">
    <path d="M104.8,411.5c-.02.71-.9,1.92-2.09,2.04-1.17.12-2.05-.87-2.14-1.93-.1-1.13.79-2.01,2.14-1.93,1.5.09,2.11,1.03,2.09,1.81h0Z" fill="#705861"/>
    <path d="M101.44,410.14c-.02.32-.24.57-.5.55s-.45-.29-.44-.61c.02-.32.24-.57.5-.55.26.01.45.29.44.61Z"/>
    <path d="M101.25,410.36c-.01.2-.15.35-.31.34s-.28-.18-.27-.37c.01-.2.15-.35.31-.34.16,0,.28.18.27.38h0Z" fill="#a79098"/>
    <path d="M102.75,412.55c0,.35.14.66.38.9.97-.32,1.65-1.32,1.67-1.95v-.21c-.17-.07-.36-.1-.56-.1-.81,0-1.47.61-1.47,1.36h-.02Z" fill="#a79098"/>
    <path d="M104.36,412.3c-.25.1-.85.19-1.15-.21-.03-.04-.07-.04-.11-.02-.04.03-.04.07-.02.11.2.27.52.36.81.36.2,0,.39-.04.53-.1h.02c.09-.14.17-.28.23-.42-.07.12-.18.22-.31.28h0Z" fill="#817178"/>
    <path d="M104.4,411.05c-.06.03-.08.1-.08.17,0,.19.16.34.36.34.06,0,.08,0,.13-.03.08-.18.06-.4-.07-.5,0,0-.26-.02-.34.02Z"/>
    <path d="M103.15,410.72c.05-.27-.12-.53-.39-.59-.27-.05-.53.12-.59.39-.01.07-.01.13,0,.2.05.27.32.45.59.39.2-.04.35-.19.39-.39Z" fill="#a79098"/>
    <path d="M102.99,410.7c0,.17-.14.3-.3.3s-.3-.14-.3-.3.14-.3.3-.3.3.14.3.3Z"/>
    <path d="M102.79,410.69s-.04.09-.09.09-.09-.04-.09-.09.04-.09.09-.09.09.04.09.09Z" fill="#fff"/>
  </g>
</svg>