<svg xmlns="http://www.w3.org/2000/svg" width="100" height="30" viewBox="0 0 100 30">
  <defs>
    <linearGradient id="linear-gradient" x1="-718.01" x2="-718.01" y1="575.26" y2="579.82" gradientTransform="matrix(24 0 0 -24 17116 13676.91)" gradientUnits="userSpaceOnUse">
      <stop offset="0" stop-color="#1a1a1a" stop-opacity=".1"/>
      <stop offset=".12" stop-color="#212121" stop-opacity=".15"/>
      <stop offset=".31" stop-color="#353535" stop-opacity=".23"/>
      <stop offset=".53" stop-color="#575757" stop-opacity=".32"/>
      <stop offset=".78" stop-color="#858585" stop-opacity=".42"/>
      <stop offset="1" stop-color="#b3b3b3" stop-opacity=".51"/>
    </linearGradient>
  </defs>
  <path fill="#fff" d="M99.34 26.46a2.85 2.85 0 0 1-2.84 2.87h-93a2.87 2.87 0 0 1-2.85-2.87V3.54A2.87 2.87 0 0 1 3.5.66h92.99a2.86 2.86 0 0 1 2.84 2.88s0 22.91 0 22.91Z"/>
  <path fill="#a6a6a6" d="M96.5 30h-93A3.52 3.52 0 0 1 0 26.46V3.55A3.53 3.53 0 0 1 3.5 0h92.99c1.93 0 3.5 1.59 3.5 3.55v22.91a3.53 3.53 0 0 1-3.5 3.54Z"/>
  <path d="M99.34 26.46a2.85 2.85 0 0 1-2.84 2.87h-93a2.87 2.87 0 0 1-2.85-2.87V3.54A2.87 2.87 0 0 1 3.5.66h92.99a2.86 2.86 0 0 1 2.84 2.88s0 22.91 0 22.91Z"/>
  <path fill="#fff" d="M22.33 14.84c-.02-2.42 1.96-3.59 2.05-3.65a4.41 4.41 0 0 0-3.47-1.9c-1.46-.16-2.87.88-3.61.88s-1.9-.87-3.13-.84a4.57 4.57 0 0 0-3.88 2.4c-1.68 2.94-.43 7.27 1.18 9.65.8 1.17 1.75 2.47 2.98 2.42 1.2-.05 1.65-.78 3.11-.78s1.86.78 3.12.75c1.29-.02 2.11-1.17 2.88-2.35.93-1.33 1.3-2.65 1.32-2.72a4.2 4.2 0 0 1-2.53-3.87Zm-2.37-7.11a4.33 4.33 0 0 0 .97-3.07 4.3 4.3 0 0 0-2.79 1.46 4.09 4.09 0 0 0-.99 2.95c1.05.08 2.13-.54 2.81-1.35Z"/>
  <path fill="url(#linear-gradient)" d="M96.5 0H46.69L66.2 30h30.3c1.93 0 3.5-1.59 3.5-3.54V3.55A3.53 3.53 0 0 0 96.5 0Z"/>
  <path fill="#fff" d="M39.77 23.63h-1.68l-.92-2.93h-3.2l-.88 2.93h-1.64l3.18-9.98h1.96l3.19 9.98Zm-2.88-4.16-.83-2.61c-.09-.27-.25-.89-.5-1.88h-.03c-.1.42-.25 1.05-.47 1.88l-.82 2.61h2.65Zm11.03.48a4.1 4.1 0 0 1-.99 2.9c-.59.63-1.32.95-2.19.95-.94 0-1.62-.34-2.03-1.02v3.78h-1.58v-7.75c0-.77-.02-1.56-.06-2.37h1.39l.09 1.14h.03a2.63 2.63 0 0 1 2.4-1.29c.84 0 1.54.34 2.1 1.01a4 4 0 0 1 .84 2.65Zm-1.61.06a3 3 0 0 0-.47-1.73c-.34-.47-.8-.71-1.38-.71-.39 0-.74.13-1.06.39-.32.26-.52.61-.62 1.03a2 2 0 0 0-.07.49v1.2c0 .52.16.96.48 1.33.32.36.73.54 1.24.54.6 0 1.06-.23 1.39-.7.33-.46.5-1.08.5-1.84Zm9.79-.06a4.1 4.1 0 0 1-.99 2.9c-.59.63-1.32.95-2.19.95-.94 0-1.62-.34-2.03-1.02v3.78h-1.58v-7.75c0-.77-.02-1.56-.06-2.37h1.39l.09 1.14h.03a2.63 2.63 0 0 1 2.4-1.29c.84 0 1.54.34 2.1 1.01a4 4 0 0 1 .84 2.65Zm-1.61.06a3 3 0 0 0-.47-1.73c-.34-.47-.8-.71-1.37-.71-.39 0-.74.13-1.06.39-.32.26-.52.61-.62 1.03-.05.2-.07.36-.07.49v1.2c0 .52.16.96.48 1.33.32.36.73.54 1.24.54.6 0 1.06-.23 1.39-.7.33-.46.5-1.08.5-1.84Zm10.76.82c0 .85-.29 1.54-.88 2.07-.64.58-1.54.87-2.69.87a4.67 4.67 0 0 1-2.55-.62l.37-1.33a4.3 4.3 0 0 0 2.28.62c.6 0 1.06-.14 1.39-.41.33-.27.5-.63.5-1.09 0-.41-.14-.75-.41-1.02a3.8 3.8 0 0 0-1.36-.77c-1.73-.65-2.59-1.61-2.59-2.86 0-.82.31-1.49.91-2.01a3.61 3.61 0 0 1 2.42-.79c.9 0 1.65.16 2.24.47l-.4 1.3a3.84 3.84 0 0 0-1.9-.46c-.56 0-.99.14-1.31.41a1.25 1.25 0 0 0 .05 1.88c.26.24.74.49 1.43.77.85.35 1.47.75 1.87 1.21.4.46.6 1.04.6 1.73Zm5.24-3.19h-1.74v3.5c0 .89.31 1.33.92 1.33.28 0 .52-.02.7-.07l.04 1.21c-.31.12-.72.18-1.23.18-.62 0-1.11-.19-1.46-.58-.35-.39-.53-1.03-.53-1.94v-3.63h-1.04v-1.2h1.04v-1.32l1.55-.47v1.79h1.74v1.2Zm7.84 2.34c0 1.11-.31 2.02-.94 2.73-.65.73-1.52 1.1-2.6 1.1s-1.88-.35-2.5-1.05c-.62-.7-.93-1.59-.93-2.65s.32-2.03.96-2.74c.64-.71 1.5-1.07 2.58-1.07s1.88.35 2.52 1.05c.61.68.91 1.56.91 2.63Zm-1.64.03c0-.66-.14-1.23-.42-1.7-.33-.57-.81-.86-1.42-.86s-1.12.29-1.45.86c-.28.47-.42 1.05-.42 1.73s.14 1.23.42 1.7c.34.57.82.86 1.44.86s1.08-.29 1.42-.87c.29-.48.44-1.05.44-1.71Zm6.78-2.17a2.74 2.74 0 0 0-.5-.04c-.56 0-.99.21-1.29.64-.26.38-.39.85-.39 1.42v3.78h-1.58v-4.93c0-.76-.01-1.51-.05-2.27h1.38l.06 1.38h.04c.17-.47.43-.86.79-1.14a1.9 1.9 0 0 1 1.14-.39c.15 0 .28.01.4.03v1.53Zm7.07 1.85c0 .24-.02.49-.06.73h-4.74c.02.71.25 1.26.69 1.63.4.33.92.5 1.55.5.7 0 1.34-.11 1.92-.34l.25 1.11c-.67.3-1.47.44-2.38.44-1.1 0-1.97-.33-2.6-.98-.63-.66-.94-1.54-.94-2.64s.29-1.99.88-2.71a3 3 0 0 1 2.49-1.15c1.05 0 1.8.38 2.33 1.15.42.61.63 1.37.63 2.26Zm-1.51-.41c.01-.47-.09-.88-.31-1.23-.27-.45-.69-.67-1.26-.67-.52 0-.94.22-1.26.65-.26.35-.42.76-.47 1.24h3.29ZM33.51 10.12c-.44 0-.82-.02-1.14-.06V5.23c.44-.07.89-.1 1.34-.1 1.81 0 2.65.9 2.65 2.37 0 1.7-.99 2.61-2.85 2.61Zm.26-4.37c-.24 0-.45.02-.63.05v3.67c.09.02.27.02.52.02 1.19 0 1.86-.68 1.86-1.97 0-1.14-.61-1.78-1.76-1.78Zm5.19 4.41c-1.02 0-1.68-.77-1.68-1.82s.68-1.87 1.74-1.87c1.01 0 1.68.74 1.68 1.81s-.7 1.88-1.74 1.88Zm.03-3.12c-.56 0-.92.53-.92 1.27s.37 1.26.91 1.26.91-.57.91-1.27-.36-1.26-.91-1.26Zm7.53-.5-1.09 3.54h-.71l-.45-1.54c-.11-.38-.21-.76-.28-1.14h-.01c-.06.39-.17.77-.28 1.14l-.48 1.54h-.72l-1.03-3.54h.8l.4 1.68.24 1.14h.01c.06-.3.15-.67.29-1.13l.5-1.69h.63l.48 1.65c.11.4.21.79.28 1.17h.02c.05-.36.13-.75.24-1.17l.42-1.65h.76Zm4.03 3.54h-.78V8.05c0-.63-.24-.94-.7-.94s-.78.4-.78.87v2.1h-.78V7.55c0-.31 0-.65-.03-1.01h.68l.04.55h.02c.21-.38.63-.62 1.11-.62.73 0 1.22.57 1.22 1.49v2.12Zm2.14 0h-.78V4.92h.78v5.16Zm2.83.08c-1.02 0-1.68-.77-1.68-1.82s.68-1.87 1.74-1.87c1.01 0 1.68.74 1.68 1.81 0 1.11-.7 1.88-1.74 1.88Zm.03-3.12c-.56 0-.92.53-.92 1.27s.37 1.26.91 1.26.91-.57.91-1.27c0-.72-.36-1.26-.9-1.26Zm4.77 3.04-.06-.41h-.02c-.24.33-.58.49-1.02.49-.63 0-1.07-.44-1.07-1.04 0-.87.75-1.32 2.04-1.32v-.07c0-.47-.24-.7-.73-.7-.34 0-.65.09-.91.26l-.16-.52c.32-.2.73-.31 1.2-.31.91 0 1.37.49 1.37 1.46v1.3c0 .36.02.63.05.84h-.7Zm-.1-1.76c-.86 0-1.3.21-1.3.71 0 .37.22.55.53.55.4 0 .76-.31.76-.72v-.55Zm4.52 1.76-.04-.57h-.02c-.22.43-.6.65-1.12.65-.84 0-1.47-.75-1.47-1.81s.65-1.89 1.53-1.89c.47 0 .8.16.99.48h.02V4.91h.78v4.21c0 .34 0 .66.03.95h-.69ZM64.63 8c0-.5-.32-.92-.82-.92-.58 0-.93.52-.93 1.24s.37 1.2.91 1.2c.49 0 .83-.43.83-.94v-.59Zm5.71 2.16c-1.02 0-1.68-.77-1.68-1.82s.68-1.87 1.74-1.87c1.01 0 1.68.74 1.68 1.81 0 1.11-.7 1.88-1.74 1.88Zm.02-3.12c-.56 0-.92.53-.92 1.27s.37 1.26.91 1.26.91-.57.91-1.27c0-.72-.36-1.26-.91-1.26Zm5.89 3.04h-.78V8.05c0-.63-.24-.94-.7-.94s-.78.4-.78.87v2.1h-.78V7.55c0-.31 0-.65-.03-1.01h.68l.04.55h.02c.21-.38.63-.62 1.11-.62.73 0 1.22.57 1.22 1.49v2.12Zm5.23-2.95h-.85v1.72c0 .44.15.66.45.66.14 0 .25-.02.34-.04l.02.6c-.15.06-.35.09-.6.09-.61 0-.98-.34-.98-1.24V7.14h-.51v-.59h.51V5.9l.76-.23v.88h.85v.59Zm4.11 2.95h-.78V8.06c0-.63-.24-.95-.7-.95-.4 0-.78.28-.78.84v2.13h-.78V4.92h.78v2.13h.02c.24-.39.6-.58 1.05-.58.74 0 1.19.58 1.19 1.51v2.1ZM89.8 8.5h-2.33c.01.67.45 1.05 1.1 1.05.34 0 .66-.06.94-.17l.12.55a2.8 2.8 0 0 1-1.17.22c-1.09 0-1.74-.7-1.74-1.78s.66-1.9 1.65-1.9c.89 0 1.45.67 1.45 1.68 0 .12 0 .24-.03.36Zm-.71-.56c0-.55-.27-.93-.77-.93-.45 0-.8.39-.85.93h1.62Z"/>
</svg>
