<?xml version="1.0" encoding="UTF-8"?>
<svg id="Layer_1" xmlns="http://www.w3.org/2000/svg" width="376" height="582" version="1.1" viewBox="0 0 376 582">
  <!-- Generator: Adobe Illustrator 29.0.0, SVG Export Plug-In . SVG Version: 2.1.0 Build 186)  -->
  <polygon id="flag-left" points="298.05 136.55 298.06 141.66 298.06 141.67 293.43 141.66 293.43 130.3 298.06 130.3 298.05 136.55" fill="#d42d27"/>
  <g id="flag-middle">
    <path d="M307.74,130.3h-9.68v11.37s9.68,0,9.68,0v-11.37Z" fill="#fff"/>
    <path d="M300.37,134.39l1.44,1.37-.53-2.74s.87.42,1,.45c.04,0,.05.02.09,0,.12-.06.41-1.31.5-1.51.17.18.44,1.45.56,1.51.04.02.08.02.12,0l.97-.45-.53,2.74,1.47-1.37v.87l1.15-.34-.34,1.15c.22.08.45.13.67.19.04,0,.09-.02.07.05l-2.09,1.53.47.4-.58.2.11.37-1.75-.56.22,1.2h-1l.22-1.2-1.75.56c.03-.08.17-.33.12-.4l-.56-.18c0-.07.37-.27.44-.34.02-.03.05-.03.02-.08l-2.11-1.51c0-.08.72-.14.74-.28.02-.11-.39-1.05-.34-1.1l1.19.34v-.87h0Z" fill="#d42d27"/>
  </g>
  <polygon id="flag-right" points="308.53 130.3 307.74 130.3 307.74 141.66 312.37 141.66 312.37 130.3 308.53 130.3" fill="#d42d27"/>
  <path d="M292.42,129.41h.44c.08,0,.15.07.15.15v.76c0,.08-.07.15-.15.15h-.44c-.08,0-.15-.07-.15-.15v-.76c0-.08.07-.15.15-.15Z" fill="#d9dbdc"/>
  <path d="M293.01,129.86v.45c0,.08-.07.15-.15.15h-.44c-.08,0-.15-.07-.15-.15v-.2c.11-.05.33-.11.44-.15l.29-.1h0Z" fill="#231f20" isolation="isolate" opacity=".08"/>
  <path d="M293.43,130.32v56.06c0,.14-.1.25-.22.25h-1.14s-.05,0-.07-.02c-.08-.04-.13-.11-.14-.2v-56.1c0-.14.1-.25.22-.25h1.14c.12,0,.22.11.22.25h0Z" fill="#b7b9bb"/>
  <path d="M293.06,130.2v56.18c0,.14-.09.25-.2.25h-.81s-.05,0-.07-.02c-.07-.03-.12-.11-.13-.2v-56.1c0-.14.09-.25.2-.25h.98s.03.08.03.13h0Z" fill="#fff" isolation="isolate" opacity=".2"/>
  <path d="M293.6,128.83c0,.53-.43.96-.96.96s-.96-.43-.96-.96.43-.96.96-.96.96.43.96.96Z" fill="#b7b9bb"/>
  <path d="M293.43,128.67c0,.53-.43.96-.96.96-.2,0-.4-.07-.57-.19-.33-.41-.27-1.02.15-1.35.34-.27.81-.28,1.16-.03.14.16.22.38.22.61Z" fill="#fff" isolation="isolate" opacity=".2"/>
  <path d="M295.76,188.1h-6.24l2.33-2.6h1.58l.68.76,1.03,1.15.62.69h0Z" fill="#b7b9bb"/>
  <path d="M295.76,188.1h-3.08l.57-.1c.65-.12,1.29-.32,1.89-.6l.62.69h0Z" fill="#231f20" isolation="isolate" opacity=".12"/>
  <path d="M287.91,188.1h9.46v.74h-9.46v-.74Z" fill="#929497"/>
</svg>