<svg xmlns="http://www.w3.org/2000/svg" id="Layer_1" version="1.1" viewBox="0 0 376 582">
  <g>
    <path fill="#c69a69" d="M199.34 166.61a6.52 6.52 0 0 0 .48 7.1 6.18 6.18 0 0 0 6.57 2.47s-.05-.2-.26-.18c-.81.11-2.25.04-2.31-.52-.04-.36.94-.37 1.34-.44a.2.2 0 0 0 .16-.14c0-.06-.07-.13-.19-.13-.72-.02-3.22.5-3.92-.89-.65-1.28 1.82-3.7 2.29-4.31.05-.07.05-.15-.02-.21-.02-.03-.14-.08-.23.01-.38.42-1.66 1.78-2.11 1.38-.62-.53 1.26-2.85 1.26-2.85.02-.05 0-.12-.03-.16-.04-.04-.1-.04-.16-.03 0 0-1.08 1.18-1.4 1.01-.45-.24-.04-1.22.2-1.65.07-.12-.02-.18-.04-.2a.2.2 0 0 0-.2.06s-.7 1.44-1.15 1.26c-.44-.17-.34-.89-.1-1.36.11-.23-.09-.33-.18-.25v.02Z"/>
    <path fill="#c69a69" d="m200.71 175.22-.67-.21-.15-1.26 1.16.36-.35 1.11Z"/>
    <path fill="#674b36" d="m199.88 174.37-4.82-1.57a1.67 1.67 0 0 0-2.19 1.59v3.09c0 .68.63 1.18 1.29 1.03l4.77-1.09.95-3.04Z"/>
    <path fill="#7e5a42" d="m198.37 173.77 1.72.67c.45.18.77.6.81 1.08l.02.18 1.09 1.74c.19.3.29.66.28 1.04 0 .39-.13.74-.32 1.03l-.04.05a.9.9 0 0 1-.62.4.96.96 0 0 1-.72-.14h-.03a1.45 1.45 0 0 1-.37-.41 1.07 1.07 0 0 1-.14-.52v-.38l-1.59-.8a1.7 1.7 0 0 1-.81-2.15l.73-1.79v-.03Z"/>
    <path fill="#402e22" d="m201.34 179.97.15-.05s-.01-.06-.04-.08c-.66-.45-.34-1.16-.33-1.2.01-.05 0-.09-.05-.11-.04-.01-.09 0-.11.04 0 0-.38.87.36 1.39Z"/>
    <path fill="#7e5a42" d="M198.84 172.8c.22.77-.1 1.53-.1 1.53s-.67-.48-.89-1.24.1-1.53.1-1.53.67.48.89 1.24Z"/>
    <path fill="#a27f57" d="M197.89 171.7c-.08.26-.21.81-.06 1.39.14.47.44.84.66 1.04.09-.29.18-.68.12-1.11a2.5 2.5 0 0 0-.73-1.33Z"/>
    <path fill="#7e5a42" d="m197.92 177.38.05 2.89 1.83-1.89-1.88-1z"/>
    <path fill="#a27f57" d="M200.21 176.24c-.22.2-.61.14-.87-.14s-.28-.67-.05-.88.61-.14.87.14.28.67.05.88Z"/>
    <path d="M199.99 175.82c-.04.12-.16.19-.29.15s-.19-.16-.15-.29.16-.19.29-.15.19.16.15.29Z"/>
    <path fill="#fff" d="M199.8 175.73s-.05.06-.09.05-.06-.05-.05-.09.05-.06.09-.05.06.05.05.09Z"/>
  </g>
  <path fill="#674b36" d="m192.39 179.83-1.43.29-.39 4.39-.48 3.45c0 .1.04.2.11.28s.16.13.26.15c0 0-.14.2-.17.31-.04.15 0 .3.11.41h1.26l-.78-.93.25-3.61 1.25-4.73Z"/>
  <path fill="#90714f" d="m191.14 184.56.59-2.23c-.08-.88-.79-.66-.96 0l-.19 2.17-.48 3.45c0 .1.04.2.11.28s.16.13.26.15c0 0-.14.2-.17.31-.04.15 0 .3.11.41h1.26l-.78-.93.25-3.61Z"/>
  <path d="M190.41 189.1h1.26l-.48-.57s-.91.44-.79.57Z"/>
  <path fill="#674b36" d="M184.73 176.48s.41 2.95.05 3.9c-.44 1.14-3.68 2.56-4.08 3.71-.29.85-.43 4.05-.43 4.05l.86.93h-1.14a.31.31 0 0 1-.22-.09.27.27 0 0 1-.08-.22l.02-.48-.09-.02c-.11-.03-.3-.22-.29-.5l.68-4.24s1.67-2.06 1.47-2.97c-.31-1.42-.33-3.85.97-5.35l2.28 1.31v-.03Z"/>
  <path fill="#90714f" d="M182.57 182.33c.14-1.43-.73-1.54-1.75 0-.4.63-.82 1.16-.82 1.16l-.68 4.24c0 .29.18.47.29.5l.09.02-.02.48c0 .08.02.16.08.22s.14.09.22.09h1.14l-.86-.93s.13-3.19.43-4.05c.19-.55 1.01-1.15 1.87-1.76v.03Z"/>
  <path d="M179.77 188.97c.06.06.14.09.22.09h1.14l-.49-.53s-.93.37-.87.44Z"/>
  <path fill="#7e5a42" d="M196.49 175.48a4.95 4.95 0 0 1-4.99 4.99h-6.93a2.62 2.62 0 0 1-2.63-2.61v-.78a3.53 3.53 0 0 1 3.5-3.56H190.31l.13-.1a4.71 4.71 0 0 1 2.76-1.03c1.05-.04 2.08.23 2.61 1.04.32.48.66 1.5.67 2.04h.01Z"/>
  <path fill="#7e5a42" d="M193.01 189.1h1.26l-.92-.93-.18-3.61.53-4.45.46-.68a2.95 2.95 0 0 0-.55-3.92l-1.02-.85-1.21 3.43c-.14.39-.15.83 0 1.25.14.42.42.76.77.98l.13.08.32 4.1-.05 3.45c0 .1.04.2.11.28s.16.13.26.15l-.09.33c-.02.14 0 .29.18.39Z"/>
  <path fill="#a27f57" d="m193.18 184.56.27-2.23c-.2-.97-.85-.8-1.01 0l.17 2.17-.05 3.45c0 .1.04.2.11.28s.16.13.26.15l-.09.33c-.02.14 0 .29.18.39h1.26l-.92-.93-.18-3.61Z"/>
  <path d="M193.01 189.1h1.26l-.56-.57s-.87.46-.7.57Z"/>
  <path fill="#7e5a42" d="M186.58 176.48s0 3.08-.36 4.03c-.44 1.14-2.85 2.71-3.24 3.87-.29.85.57 3.76.57 3.76l.86.93h-1.05a.4.4 0 0 1-.39-.41s.02-.4.02-.4l-.09-.02a.6.6 0 0 1-.44-.52l-.31-3.66s1.2-1.91 1-2.82c-.2-.94-1.21-1.57-1.19-4.15l4.63-.61h-.01Z"/>
  <path fill="#a27f57" d="M182.98 184.38c.21-.61.97-1.33 1.71-2.04-.36-.82-1.02-.74-1.71 0-.22.6-.5 1.18-.84 1.73l.31 3.66c.02.25.2.45.44.52l.09.02-.02.4c0 .1.03.21.11.29.07.08.17.12.28.12h1.05l-.86-.93s-.86-2.91-.57-3.76h.01Z"/>
  <path d="M183.07 188.94c.07.08.17.12.28.12h1.05l-.49-.53s-.92.33-.85.41h.01Z"/>
  <path fill="#7e5a42" d="M184.19 173.79c-.75.18-1.55.37-2.22.86-.1.07-.19.15-.19.28s.08.24.19.28c.33.11.85-.09.85-.09l1.37-1.34Z"/>
</svg>
