<svg xmlns="http://www.w3.org/2000/svg" viewBox="0 0 30 30" style="background:#45DBCC">
<g display="none" fill="#fff">
  <path d="M0 0v30h30V0H0zm24 22.051c0 .987-.78 1.788-1.754 1.837-.027.995-.842 1.797-1.842 1.797H7.846C6.828 25.686 6 24.857 6 23.84V7.135c0-.986.78-1.788 1.755-1.836.026-.996.84-1.799 1.841-1.799h12.559C23.173 3.5 24 4.328 24 5.346v16.705z"/>
  <path d="M21.25 23.397c0-.002.001-.003.001-.005V7.135c0-.466-.379-.846-.846-.846H8.255c-.002 0-.003.001-.005.001s-.003-.001-.005-.001h-.399c-.467 0-.846.379-.846.846V23.84c0 .467.379.846.846.846h12.558c.466 0 .846-.38.847-.847v-.437c0-.001-.001-.003-.001-.005zm-9.42-3.257H9.174c-.276 0-.5-.224-.5-.5s.224-.5.5-.5h2.656c.276 0 .5.224.5.5s-.224.5-.5.5zm7.569-1.114l-3.142 3.666c-.091.106-.223.17-.363.175h-.017c-.134 0-.262-.054-.356-.149l-1.361-1.382c-.193-.196-.191-.513.005-.707.198-.193.513-.191.708.006l.979.994 2.787-3.253c.18-.209.497-.234.705-.055.211.18.235.495.055.705zm-.379-2.575H9.174c-.276 0-.5-.224-.5-.5s.224-.5.5-.5h9.846c.276 0 .5.224.5.5s-.224.5-.5.5zm0-3.689H9.174c-.276 0-.5-.224-.5-.5s.224-.5.5-.5h9.846c.276 0 .5.224.5.5s-.224.5-.5.5zm0-3.689H9.174c-.276 0-.5-.224-.5-.5s.224-.5.5-.5h9.846c.276 0 .5.224.5.5s-.224.5-.5.5z"/>
  <path d="M22.155 4.5H9.596c-.447 0-.804.35-.835.789h11.644c1.018 0 1.846.828 1.846 1.846v15.743c.419-.05.749-.395.749-.827V5.346c0-.467-.379-.846-.845-.846z"/>
  <animate attributeName="display" fill="freeze" repeatCount="1" dur="1s" keyTimes="0;0.02;1" values="inline;none;none"/>
</g>
<g display="none" fill="#fff">
  <path d="M22.155 4.5H9.596c-.447 0-.804.35-.835.789h11.644c1.018 0 1.846.828 1.846 1.846v15.743c.419-.05.749-.395.749-.827V5.346c0-.467-.379-.846-.845-.846z"/>
  <path d="M20.405 6.289H8.255c-.002 0-.003.001-.005.001s-.003-.001-.005-.001h-.399c-.467 0-.846.379-.846.846V23.84c0 .467.379.846.846.846h12.558c.466 0 .846-.38.847-.847V7.135c0-.467-.379-.846-.846-.846zM11.83 20.14H9.174c-.276 0-.5-.224-.5-.5s.224-.5.5-.5h2.656c.276 0 .5.224.5.5s-.224.5-.5.5zm7.569-1.114l-3.142 3.666c-.091.106-.223.17-.363.175h-.017c-.134 0-.262-.054-.356-.149l-1.361-1.382c-.193-.196-.191-.513.005-.707.198-.193.513-.191.708.006l.979.994 2.787-3.253c.18-.209.497-.234.705-.055.211.18.235.495.055.705zm-.379-2.575H9.174c-.276 0-.5-.224-.5-.5s.224-.5.5-.5h9.846c.276 0 .5.224.5.5s-.224.5-.5.5zm0-3.689H9.174c-.276 0-.5-.224-.5-.5s.224-.5.5-.5h9.846c.276 0 .5.224.5.5s-.224.5-.5.5zm0-3.689H9.174c-.276 0-.5-.224-.5-.5s.224-.5.5-.5h9.846c.276 0 .5.224.5.5s-.224.5-.5.5z"/>
  <path d="M0 0v30h30V0H0zm24 22.051c0 .987-.78 1.788-1.754 1.837-.027.995-.842 1.797-1.842 1.797-.016-.001-.028-.001-.04 0H7.846C6.828 25.686 6 24.857 6 23.84V7.135c0-.986.78-1.788 1.755-1.836.026-.996.84-1.799 1.841-1.799h12.559C23.173 3.5 24 4.328 24 5.346v16.705z"/>
  <animate attributeName="display" fill="freeze" repeatCount="1" dur="1s" keyTimes="0;0.04;0.06;1" values="none;inline;none;none"/>
</g>
<g display="none" fill="#fff">
  <path d="M20.405 6.289H8.255c-.002 0-.003.001-.005.001s-.003-.001-.005-.001h-.399c-.467 0-.846.379-.846.846V23.84c0 .467.379.846.846.846h12.438c.021 0 .04.001.06.004.021-.003.04-.004.061-.004.466 0 .846-.38.847-.847V7.135c-.001-.467-.38-.846-.847-.846zM11.83 20.14H9.174c-.276 0-.5-.224-.5-.5s.224-.5.5-.5h2.656c.276 0 .5.224.5.5s-.224.5-.5.5zm7.569-1.114l-3.142 3.666c-.091.106-.223.17-.363.175h-.017c-.134 0-.262-.054-.356-.149l-1.361-1.382c-.193-.196-.191-.513.005-.707.198-.193.513-.191.708.006l.979.994 2.787-3.253c.18-.209.497-.234.705-.055.211.18.235.495.055.705zm-.379-2.575H9.174c-.276 0-.5-.224-.5-.5s.224-.5.5-.5h9.846c.276 0 .5.224.5.5s-.224.5-.5.5zm0-3.689H9.174c-.276 0-.5-.224-.5-.5s.224-.5.5-.5h9.846c.276 0 .5.224.5.5s-.224.5-.5.5zm0-3.689H9.174c-.276 0-.5-.224-.5-.5s.224-.5.5-.5h9.846c.276 0 .5.224.5.5s-.224.5-.5.5z"/>
  <path d="M22.155 4.5H9.596c-.447 0-.804.35-.835.789h11.644c1.018 0 1.846.828 1.846 1.846v15.743c.419-.05.749-.395.749-.827V5.346c0-.467-.379-.846-.845-.846z"/>
  <path d="M0 0v30h30V0H0zm24 22.051c0 .987-.78 1.788-1.754 1.837-.027.995-.842 1.797-1.842 1.797-.021 0-.04-.001-.061-.004-.02.003-.039.004-.06.004H7.846C6.828 25.686 6 24.857 6 23.84V7.135c0-.986.78-1.788 1.755-1.836.026-.996.84-1.799 1.841-1.799h12.559C23.173 3.5 24 4.328 24 5.346v16.705z"/>
  <animate attributeName="display" fill="freeze" repeatCount="1" dur="1s" keyTimes="0;0.06;0.08;1" values="none;inline;none;none"/>
</g>
<g display="none" fill="#fff">
  <path d="M0 0v30h30V0H0zm24 22.051c0 .987-.78 1.788-1.754 1.837-.027.995-.842 1.797-1.842 1.797-.047 0-.092-.007-.135-.019-.043.012-.088.019-.135.019H7.846C6.828 25.686 6 24.857 6 23.84V7.135c0-.986.78-1.788 1.755-1.836.026-.996.84-1.799 1.841-1.799h12.559C23.173 3.5 24 4.328 24 5.346v16.705z"/>
  <path d="M22.155 4.5H9.596c-.447 0-.804.35-.835.789h11.644c1.018 0 1.846.828 1.846 1.846v15.743c.419-.05.749-.395.749-.827V5.346c0-.467-.379-.846-.845-.846z"/>
  <path d="M20.405 6.289H8.255c-.002 0-.003.001-.005.001s-.003-.001-.005-.001h-.399c-.467 0-.846.379-.846.846V23.84c0 .467.379.846.846.846h12.289c.047 0 .092.007.135.019.043-.012.088-.019.135-.019.466 0 .846-.38.847-.847V7.135c-.001-.467-.38-.846-.847-.846zM11.83 20.14H9.174c-.276 0-.5-.224-.5-.5s.224-.5.5-.5h2.656c.276 0 .5.224.5.5s-.224.5-.5.5zm7.569-1.114l-3.142 3.666c-.091.106-.223.17-.363.175h-.017c-.134 0-.262-.054-.356-.149l-1.361-1.382c-.193-.196-.191-.513.005-.707.198-.193.513-.191.708.006l.979.994 2.787-3.253c.18-.209.497-.234.705-.055.211.18.235.495.055.705zm-.379-2.575H9.174c-.276 0-.5-.224-.5-.5s.224-.5.5-.5h9.846c.276 0 .5.224.5.5s-.224.5-.5.5zm0-3.689H9.174c-.276 0-.5-.224-.5-.5s.224-.5.5-.5h9.846c.276 0 .5.224.5.5s-.224.5-.5.5zm0-3.689H9.174c-.276 0-.5-.224-.5-.5s.224-.5.5-.5h9.846c.276 0 .5.224.5.5s-.224.5-.5.5z"/>
  <animate attributeName="display" fill="freeze" repeatCount="1" dur="1s" keyTimes="0;0.08;0.1;1" values="none;inline;none;none"/>
</g>
<g display="none" fill="#fff">
  <path d="M20.405 6.289H8.255c-.002 0-.003.001-.005.001s-.003-.001-.005-.001h-.399c-.467 0-.846.379-.846.846V23.84c0 .467.379.846.846.846h12.018c.1 0 .192.029.271.079.077-.05.17-.079.27-.079.466 0 .846-.38.847-.847V7.135c-.001-.467-.38-.846-.847-.846zM11.83 20.14H9.174c-.276 0-.5-.224-.5-.5s.224-.5.5-.5h2.656c.276 0 .5.224.5.5s-.224.5-.5.5zm7.569-1.114l-3.142 3.666c-.091.106-.223.17-.363.175h-.017c-.134 0-.262-.054-.356-.149l-1.361-1.382c-.193-.196-.191-.513.005-.707.198-.193.513-.191.708.006l.979.994 2.787-3.253c.18-.209.497-.234.705-.055.211.18.235.495.055.705zm-.379-2.575H9.174c-.276 0-.5-.224-.5-.5s.224-.5.5-.5h9.846c.276 0 .5.224.5.5s-.224.5-.5.5zm0-3.689H9.174c-.276 0-.5-.224-.5-.5s.224-.5.5-.5h9.846c.276 0 .5.224.5.5s-.224.5-.5.5zm0-3.689H9.174c-.276 0-.5-.224-.5-.5s.224-.5.5-.5h9.846c.276 0 .5.224.5.5s-.224.5-.5.5z"/>
  <path d="M22.155 4.5H9.596c-.447 0-.804.35-.835.789h11.644c1.018 0 1.846.828 1.846 1.846v15.743c.419-.05.749-.395.749-.827V5.346c0-.467-.379-.846-.845-.846z"/>
  <path d="M0 0v30h30V0H0zm24 22.051c0 .987-.78 1.788-1.754 1.837-.027.995-.842 1.797-1.842 1.797-.1 0-.192-.029-.27-.079-.078.05-.171.079-.271.079H7.846C6.828 25.686 6 24.857 6 23.84V7.135c0-.986.78-1.788 1.755-1.836.026-.996.84-1.799 1.841-1.799h12.559C23.173 3.5 24 4.328 24 5.346v16.705z"/>
  <animate attributeName="display" fill="freeze" repeatCount="1" dur="1s" keyTimes="0;0.1;0.12;1" values="none;inline;none;none"/>
</g>
<g display="none" fill="#fff">
  <path d="M20.405 6.289H8.255c-.002 0-.003.001-.005.001s-.003-.001-.005-.001h-.399c-.467 0-.846.379-.846.846V23.84c0 .467.379.846.846.846h11.638c.206 0 .384.125.46.304.076-.179.254-.304.46-.304.466 0 .846-.38.847-.847V7.135c0-.467-.379-.846-.846-.846zM11.83 20.14H9.174c-.276 0-.5-.224-.5-.5s.224-.5.5-.5h2.656c.276 0 .5.224.5.5s-.224.5-.5.5zm7.569-1.114l-3.142 3.666c-.091.106-.223.17-.363.175h-.017c-.134 0-.262-.054-.356-.149l-1.361-1.382c-.193-.196-.191-.513.005-.707.198-.193.513-.191.708.006l.979.994 2.787-3.253c.18-.209.497-.234.705-.055.211.18.235.495.055.705zm-.379-2.575H9.174c-.276 0-.5-.224-.5-.5s.224-.5.5-.5h9.846c.276 0 .5.224.5.5s-.224.5-.5.5zm0-3.689H9.174c-.276 0-.5-.224-.5-.5s.224-.5.5-.5h9.846c.276 0 .5.224.5.5s-.224.5-.5.5zm0-3.689H9.174c-.276 0-.5-.224-.5-.5s.224-.5.5-.5h9.846c.276 0 .5.224.5.5s-.224.5-.5.5z"/>
  <path d="M22.155 4.5H9.596c-.447 0-.804.35-.835.789h11.644c1.018 0 1.846.828 1.846 1.846v15.743c.419-.05.749-.395.749-.827V5.346c0-.467-.379-.846-.845-.846z"/>
  <path d="M0 0v30h30V0H0zm24 22.051c0 .987-.78 1.788-1.754 1.837-.027.995-.842 1.797-1.842 1.797-.206 0-.384-.125-.46-.304-.076.179-.254.304-.46.304H7.846C6.828 25.686 6 24.857 6 23.84V7.135c0-.986.78-1.788 1.755-1.836.026-.996.84-1.799 1.841-1.799h12.559C23.173 3.5 24 4.328 24 5.346v16.705z"/>
  <animate attributeName="display" fill="freeze" repeatCount="1" dur="1s" keyTimes="0;0.12;0.14;1" values="none;inline;none;none"/>
</g>
<g display="none" fill="#fff">
  <path d="M22.155 4.5H9.596c-.447 0-.804.35-.835.789h11.644c1.018 0 1.846.828 1.846 1.846v15.751c.422-.05.749-.406.749-.835V5.346c0-.467-.379-.846-.845-.846z"/>
  <path d="M0 0v30h30V0H0zm19.02 16.451H9.174c-.276 0-.5-.224-.5-.5s.224-.5.5-.5h9.846c.276 0 .5.224.5.5s-.224.5-.5.5zm.379 2.575l-3.142 3.666c-.091.106-.223.17-.363.175h-.017c-.134 0-.262-.054-.356-.149l-1.361-1.382c-.193-.196-.191-.513.005-.707.198-.193.513-.191.708.006l.979.994 2.787-3.253c.18-.209.497-.234.705-.055.211.18.235.495.055.705zm-7.069.614c0 .276-.224.5-.5.5H9.174c-.276 0-.5-.224-.5-.5s.224-.5.5-.5h2.656c.276 0 .5.223.5.5zm6.69-6.878H9.174c-.276 0-.5-.224-.5-.5s.224-.5.5-.5h9.846c.276 0 .5.224.5.5s-.224.5-.5.5zm0-3.689H9.174c-.276 0-.5-.224-.5-.5s.224-.5.5-.5h9.846c.276 0 .5.224.5.5s-.224.5-.5.5zM24 22.051c0 .968-.755 1.776-1.719 1.843-.012.001-.023.001-.035.001h-.001c-.031.992-.843 1.791-1.841 1.791-.276 0-.5-.224-.5-.5s.224-.5.5-.5c.466 0 .846-.38.847-.847V7.135c0-.466-.379-.846-.846-.846H8.255c-.002 0-.003.001-.005.001s-.003-.001-.005-.001h-.399c-.467 0-.846.379-.846.846V23.84c0 .467.379.846.846.846h11.088c.276 0 .5.224.5.5s-.224.5-.5.5H7.846C6.828 25.686 6 24.857 6 23.84V7.135c0-.986.78-1.788 1.755-1.836.026-.996.84-1.799 1.841-1.799h12.559C23.173 3.5 24 4.328 24 5.346v16.705z"/>
  <animate attributeName="display" fill="freeze" repeatCount="1" dur="1s" keyTimes="0;0.14;0.16;1" values="none;inline;none;none"/>
</g>
<g display="none" fill="#fff">
  <path d="M22.155 4.5H9.596c-.447 0-.804.35-.835.789h11.644c1.018 0 1.846.828 1.846 1.846V22.94c.044-.032.092-.062.147-.079.355-.106.602-.439.602-.81V5.346c0-.467-.379-.846-.845-.846z"/>
  <path d="M0 0v30h30V0H0zm19.399 19.026l-3.142 3.666c-.091.106-.223.17-.363.175h-.017c-.134 0-.262-.054-.356-.149l-1.361-1.382c-.193-.196-.191-.513.005-.707.198-.193.513-.191.708.006l.979.994 2.787-3.253c.18-.209.497-.234.705-.055.211.18.235.495.055.705zm-.379-2.575H9.174c-.276 0-.5-.224-.5-.5s.224-.5.5-.5h9.846c.276 0 .5.224.5.5s-.224.5-.5.5zm-6.69 3.189c0 .276-.224.5-.5.5H9.174c-.276 0-.5-.224-.5-.5s.224-.5.5-.5h2.656c.276 0 .5.223.5.5zm6.69-6.878H9.174c-.276 0-.5-.224-.5-.5s.224-.5.5-.5h9.846c.276 0 .5.224.5.5s-.224.5-.5.5zm0-3.689H9.254c-.276 0-.5-.224-.5-.5s.224-.5.5-.5h9.766c.276 0 .5.224.5.5s-.224.5-.5.5zM24 22.051c0 .81-.541 1.536-1.314 1.769-.048.014-.097.021-.144.021-.106 0-.207-.035-.291-.095v.095c-.001 1.018-.83 1.846-1.847 1.846-.276 0-.5-.224-.5-.5s.224-.5.5-.5c.466 0 .846-.38.847-.847V7.135c0-.466-.379-.846-.846-.846H8.255c-.002 0-.003.001-.005.001s-.003-.001-.005-.001h-.399c-.467 0-.846.379-.846.846V23.84c0 .467.379.846.846.846h10.358c.276 0 .5.224.5.5s-.224.5-.5.5H7.846C6.828 25.686 6 24.857 6 23.84V7.135c0-.986.78-1.788 1.755-1.836.026-.996.84-1.799 1.841-1.799h12.559C23.173 3.5 24 4.328 24 5.346v16.705z"/>
  <animate attributeName="display" fill="freeze" repeatCount="1" dur="1s" keyTimes="0;0.16;0.18;1" values="none;inline;none;none"/>
</g>
<g display="none" fill="#fff">
<path d="M0 0v30h30V0H0zm19.399 19.026l-3.142 3.666c-.091.106-.223.17-.363.175h-.017c-.134 0-.262-.054-.356-.149l-1.361-1.382c-.193-.196-.191-.513.005-.707.198-.193.513-.191.708.006l.979.994 2.787-3.253c.18-.209.497-.234.705-.055.211.18.235.495.055.705zm-.379-2.575H9.174c-.276 0-.5-.224-.5-.5s.224-.5.5-.5h9.846c.276 0 .5.224.5.5s-.224.5-.5.5zm-6.69 3.189c0 .276-.224.5-.5.5H9.174c-.276 0-.5-.224-.5-.5s.224-.5.5-.5h2.656c.276 0 .5.223.5.5zm6.69-6.878H9.174c-.276 0-.5-.224-.5-.5s.224-.5.5-.5h9.846c.276 0 .5.224.5.5s-.224.5-.5.5zm0-3.689H9.444c-.276 0-.5-.224-.5-.5s.224-.5.5-.5h9.576c.276 0 .5.224.5.5s-.224.5-.5.5zM24 22.051c0 .617-.307 1.191-.819 1.534-.086.058-.183.085-.278.085-.161 0-.319-.078-.415-.222-.154-.229-.093-.54.137-.693.234-.158.375-.421.375-.704V5.346c0-.467-.379-.846-.845-.846H9.596c-.447 0-.804.35-.835.789h11.644c1.018 0 1.846.828 1.846 1.846V23.84c-.001 1.018-.83 1.846-1.847 1.846-.276 0-.5-.224-.5-.5s.224-.5.5-.5c.466 0 .846-.38.847-.847V7.135c0-.466-.379-.846-.846-.846H8.255c-.002 0-.003.001-.005.001s-.003-.001-.005-.001h-.399c-.467 0-.846.379-.846.846V23.84c0 .467.379.846.846.846h9.438c.276 0 .5.224.5.5s-.224.5-.5.5H7.846C6.828 25.686 6 24.857 6 23.84V7.135c0-.986.78-1.788 1.755-1.836.026-.996.84-1.799 1.841-1.799h12.559C23.173 3.5 24 4.328 24 5.346v16.705z"/>
<animate attributeName="display" fill="freeze" repeatCount="1" dur="1s" keyTimes="0;0.18;0.2;1" values="none;inline;none;none"/>
</g>
<g display="none" fill="#fff">
<path d="M0 0v30h30V0H0zm19.399 19.026l-3.142 3.666c-.091.106-.223.17-.363.175h-.017c-.134 0-.262-.054-.356-.149l-1.361-1.382c-.193-.196-.191-.513.005-.707.198-.193.513-.191.708.006l.979.994 2.787-3.253c.18-.209.497-.234.705-.055.211.18.235.495.055.705zm-.379-2.575H9.174c-.276 0-.5-.224-.5-.5s.224-.5.5-.5h9.846c.276 0 .5.224.5.5s-.224.5-.5.5zm-6.69 3.189c0 .276-.224.5-.5.5H9.174c-.276 0-.5-.224-.5-.5s.224-.5.5-.5h2.656c.276 0 .5.223.5.5zm6.69-6.878H9.174c-.276 0-.5-.224-.5-.5s.224-.5.5-.5h9.846c.276 0 .5.224.5.5s-.224.5-.5.5zm0-3.689H9.804c-.276 0-.5-.224-.5-.5s.224-.5.5-.5h9.216c.276 0 .5.224.5.5s-.224.5-.5.5zM24 22.051c0 .382-.115.748-.334 1.06-.097.139-.252.213-.409.213-.1 0-.199-.029-.287-.091-.226-.158-.281-.47-.122-.696.1-.143.152-.311.152-.485V5.346c0-.467-.379-.846-.845-.846H9.596c-.447 0-.804.35-.835.789h11.644c1.018 0 1.846.828 1.846 1.846V23.84c-.001 1.018-.83 1.846-1.847 1.846-.276 0-.5-.224-.5-.5s.224-.5.5-.5c.466 0 .846-.38.847-.847V7.135c0-.466-.379-.846-.846-.846H8.255c-.002 0-.003.001-.005.001s-.003-.001-.005-.001h-.399c-.467 0-.846.379-.846.846V23.84c0 .467.379.846.846.846h8.268c.276 0 .5.224.5.5s-.224.5-.5.5H7.846C6.828 25.686 6 24.857 6 23.84V7.135c0-.986.78-1.788 1.755-1.836.026-.996.84-1.799 1.841-1.799h12.559C23.173 3.5 24 4.328 24 5.346v16.705z"/>
<animate attributeName="display" fill="freeze" repeatCount="1" dur="1s" keyTimes="0;0.2;0.22;1" values="none;inline;none;none"/>
</g>
<g display="none" fill="#fff">
<path d="M0 0v30h30V0H0zm19.399 19.026l-3.142 3.666c-.091.106-.223.17-.363.175h-.017c-.134 0-.262-.054-.356-.149l-1.361-1.382c-.193-.196-.191-.513.005-.707.198-.193.513-.191.708.006l.979.994 2.787-3.253c.18-.209.497-.234.705-.055.211.18.235.495.055.705zm-.379-2.575H9.174c-.276 0-.5-.224-.5-.5s.224-.5.5-.5h9.846c.276 0 .5.224.5.5s-.224.5-.5.5zm-6.69 3.189c0 .276-.224.5-.5.5H9.174c-.276 0-.5-.224-.5-.5s.224-.5.5-.5h2.656c.276 0 .5.223.5.5zm6.69-6.878H9.174c-.276 0-.5-.224-.5-.5s.224-.5.5-.5h9.846c.276 0 .5.224.5.5s-.224.5-.5.5zm0-3.689h-8.616c-.276 0-.5-.224-.5-.5s.224-.5.5-.5h8.616c.276 0 .5.224.5.5s-.224.5-.5.5zM24 22.051c0 .089-.007.175-.019.261-.034.25-.249.432-.494.432-.023 0-.046-.002-.069-.005-.273-.038-.465-.29-.427-.563.006-.042.009-.083.009-.125V5.346c0-.467-.379-.846-.845-.846H9.596c-.447 0-.804.35-.835.789h11.644c1.018 0 1.846.828 1.846 1.846V23.84c-.001 1.018-.83 1.846-1.847 1.846-.276 0-.5-.224-.5-.5s.224-.5.5-.5c.466 0 .846-.38.847-.847V7.135c0-.466-.379-.846-.846-.846H8.255c-.002 0-.003.001-.005.001s-.003-.001-.005-.001h-.399c-.467 0-.846.379-.846.846V23.84c0 .467.379.846.846.846h6.848c.276 0 .5.224.5.5s-.224.5-.5.5H7.846C6.828 25.686 6 24.857 6 23.84V7.135c0-.986.78-1.788 1.755-1.836.026-.996.84-1.799 1.841-1.799h12.559C23.173 3.5 24 4.328 24 5.346v16.705z"/>
<animate attributeName="display" fill="freeze" repeatCount="1" dur="1s" keyTimes="0;0.22;0.24;1" values="none;inline;none;none"/>
</g>
<g display="none" fill="#fff">
<path d="M0 0v30h30V0H0zm19.399 19.026l-3.142 3.666c-.091.106-.223.17-.363.175h-.017c-.134 0-.262-.054-.356-.149l-1.361-1.382c-.193-.196-.191-.513.005-.707.198-.193.513-.191.708.006l.979.994 2.787-3.253c.18-.209.497-.234.705-.055.211.18.235.495.055.705zm-.379-2.575H9.174c-.276 0-.5-.224-.5-.5s.224-.5.5-.5h9.846c.276 0 .5.224.5.5s-.224.5-.5.5zm-6.69 3.189c0 .276-.224.5-.5.5H9.174c-.276 0-.5-.224-.5-.5s.224-.5.5-.5h2.656c.276 0 .5.223.5.5zm6.69-6.878H9.174c-.276 0-.5-.224-.5-.5s.224-.5.5-.5h9.846c.276 0 .5.224.5.5s-.224.5-.5.5zm0-3.689h-7.716c-.276 0-.5-.224-.5-.5s.224-.5.5-.5h7.716c.276 0 .5.224.5.5s-.224.5-.5.5zM24 21.463c0 .276-.224.5-.5.5s-.5-.224-.5-.5V5.346c0-.467-.379-.846-.845-.846H9.596c-.447 0-.804.35-.835.789h11.644c1.018 0 1.846.828 1.846 1.846V23.84c-.001 1.018-.83 1.846-1.847 1.846-.276 0-.5-.224-.5-.5s.224-.5.5-.5c.466 0 .846-.38.847-.847V7.135c0-.466-.379-.846-.846-.846H8.255c-.002 0-.003.001-.005.001s-.003-.001-.005-.001h-.399c-.467 0-.846.379-.846.846V23.84c0 .467.379.846.846.846h5.148c.276 0 .5.224.5.5s-.224.5-.5.5H7.846C6.828 25.686 6 24.857 6 23.84V7.135c0-.986.78-1.788 1.755-1.836.026-.996.84-1.799 1.841-1.799h12.559C23.173 3.5 24 4.328 24 5.346v16.117z"/>
<animate attributeName="display" fill="freeze" repeatCount="1" dur="1s" keyTimes="0;0.24;0.26;1" values="none;inline;none;none"/>
</g>
<g display="none" fill="#fff">
<path d="M0 0v30h30V0H0zm11.83 20.14H9.174c-.276 0-.5-.224-.5-.5s.224-.5.5-.5h2.656c.276 0 .5.224.5.5s-.224.5-.5.5zm7.569-1.114l-3.142 3.666c-.091.106-.223.17-.363.175h-.017c-.134 0-.262-.054-.356-.149l-1.361-1.382c-.193-.196-.191-.513.005-.707.198-.193.513-.191.708.006l.979.994 2.787-3.253c.18-.209.497-.234.705-.055.211.18.235.495.055.705zm-.379-2.575H9.174c-.276 0-.5-.224-.5-.5s.224-.5.5-.5h9.846c.276 0 .5.224.5.5s-.224.5-.5.5zm0-3.689H9.174c-.276 0-.5-.224-.5-.5s.224-.5.5-.5h9.846c.276 0 .5.224.5.5s-.224.5-.5.5zm0-3.689h-6.466c-.276 0-.5-.224-.5-.5s.224-.5.5-.5h6.466c.276 0 .5.224.5.5s-.224.5-.5.5zM24 20.543c0 .276-.224.5-.5.5s-.5-.224-.5-.5V5.346c0-.467-.379-.846-.845-.846H9.596c-.447 0-.804.35-.835.789h11.644c1.018 0 1.846.828 1.846 1.846V23.84c-.001 1.018-.83 1.846-1.847 1.846-.276 0-.5-.224-.5-.5s.224-.5.5-.5c.466 0 .846-.38.847-.847V7.135c0-.466-.379-.846-.846-.846H8.255c-.002 0-.003.001-.005.001s-.003-.001-.005-.001h-.399c-.467 0-.846.379-.846.846V23.84c0 .467.379.846.846.846h3.138c.276 0 .5.224.5.5s-.224.5-.5.5H7.846C6.828 25.686 6 24.857 6 23.84V7.135c0-.986.78-1.788 1.755-1.836.026-.996.84-1.799 1.841-1.799h12.559C23.173 3.5 24 4.328 24 5.346v15.197z"/>
<animate attributeName="display" fill="freeze" repeatCount="1" dur="1s" keyTimes="0;0.26;0.28;1" values="none;inline;none;none"/>
</g>
<g display="none" fill="#fff">
<path d="M0 0v30h30V0H0zm11.83 20.14H9.174c-.276 0-.5-.224-.5-.5s.224-.5.5-.5h2.656c.276 0 .5.224.5.5s-.224.5-.5.5zm7.569-1.114l-3.142 3.666c-.091.106-.223.17-.363.175h-.017c-.134 0-.262-.054-.356-.149l-1.361-1.382c-.193-.196-.191-.513.005-.707.198-.193.513-.191.708.006l.979.994 2.787-3.253c.18-.209.497-.234.705-.055.211.18.235.495.055.705zm-.379-2.575H9.174c-.276 0-.5-.224-.5-.5s.224-.5.5-.5h9.846c.276 0 .5.224.5.5s-.224.5-.5.5zm0-3.689H9.254c-.276 0-.5-.224-.5-.5s.224-.5.5-.5h9.766c.276 0 .5.224.5.5s-.224.5-.5.5zm0-3.689h-4.806c-.276 0-.5-.224-.5-.5s.224-.5.5-.5h4.806c.276 0 .5.224.5.5s-.224.5-.5.5zM24 19.443c0 .276-.224.5-.5.5s-.5-.224-.5-.5V5.346c0-.467-.379-.846-.845-.846H9.596c-.447 0-.804.35-.835.789h11.644c1.018 0 1.846.828 1.846 1.846V23.84c-.001 1.018-.83 1.846-1.847 1.846-.276 0-.5-.224-.5-.5s.224-.5.5-.5c.466 0 .846-.38.847-.847V7.135c0-.466-.379-.846-.846-.846H8.255c-.002 0-.003.001-.005.001s-.003-.001-.005-.001h-.399c-.467 0-.846.379-.846.846V23.84c0 .467.379.846.846.846h.798c.276 0 .5.224.5.5s-.224.5-.5.5h-.798C6.828 25.686 6 24.857 6 23.84V7.135c0-.986.78-1.788 1.755-1.836.026-.996.84-1.799 1.841-1.799h12.559C23.173 3.5 24 4.328 24 5.346v14.097z"/>
<animate attributeName="display" fill="freeze" repeatCount="1" dur="1s" keyTimes="0;0.28;0.3;1" values="none;inline;none;none"/>
</g>
<g display="none" fill="#fff">
<path d="M0 0v30h30V0H0zm11.83 20.14H9.174c-.276 0-.5-.224-.5-.5s.224-.5.5-.5h2.656c.276 0 .5.224.5.5s-.224.5-.5.5zm7.569-1.114l-3.142 3.666c-.091.106-.223.17-.363.175h-.017c-.134 0-.262-.054-.356-.149l-1.361-1.382c-.193-.196-.191-.513.005-.707.198-.193.513-.191.708.006l.979.994 2.787-3.253c.18-.209.497-.234.705-.055.211.18.235.495.055.705zm-.379-2.575H9.174c-.276 0-.5-.224-.5-.5s.224-.5.5-.5h9.846c.276 0 .5.224.5.5s-.224.5-.5.5zm0-3.689H9.444c-.276 0-.5-.224-.5-.5s.224-.5.5-.5h9.576c.276 0 .5.224.5.5s-.224.5-.5.5zm0-3.689h-2.666c-.276 0-.5-.224-.5-.5s.224-.5.5-.5h2.666c.276 0 .5.224.5.5s-.224.5-.5.5zm4.98 9.1c0 .276-.224.5-.5.5s-.5-.224-.5-.5V5.346c0-.467-.379-.846-.845-.846H9.596c-.447 0-.804.35-.835.789h11.644c1.018 0 1.846.828 1.846 1.846V23.84c-.001 1.018-.83 1.846-1.847 1.846-.276 0-.5-.224-.5-.5s.224-.5.5-.5c.466 0 .846-.38.847-.847V7.135c0-.466-.379-.846-.846-.846H8.255c-.002 0-.003.001-.005.001s-.003-.001-.005-.001h-.399c-.467 0-.846.379-.846.846V23.84c0 .044.003.087.01.13.04.272-.148.526-.422.567-.271.035-.527-.149-.567-.423-.014-.09-.021-.181-.021-.274V7.135c0-.986.78-1.788 1.755-1.836.026-.996.84-1.799 1.841-1.799h12.559C23.173 3.5 24 4.328 24 5.346v12.827z"/>
<animate attributeName="display" fill="freeze" repeatCount="1" dur="1s" keyTimes="0;0.3;0.32;1" values="none;inline;none;none"/>
</g>
<g display="none" fill="#fff">
<path d="M0 0v30h30V0H0zm11.83 20.14H9.174c-.276 0-.5-.224-.5-.5s.224-.5.5-.5h2.656c.276 0 .5.224.5.5s-.224.5-.5.5zm7.569-1.114l-3.142 3.666c-.091.106-.223.17-.363.175h-.017c-.134 0-.262-.054-.356-.149l-1.361-1.382c-.193-.196-.191-.513.005-.707.198-.193.513-.191.708.006l.979.994 2.787-3.253c.18-.209.497-.234.705-.055.211.18.235.495.055.705zm-.379-2.575H9.174c-.276 0-.5-.224-.5-.5s.224-.5.5-.5h9.846c.276 0 .5.224.5.5s-.224.5-.5.5zm0-3.689H9.804c-.276 0-.5-.224-.5-.5s.224-.5.5-.5h9.216c.276 0 .5.224.5.5s-.224.5-.5.5zM24 16.693c0 .276-.224.5-.5.5s-.5-.224-.5-.5V5.346c0-.467-.379-.846-.845-.846H9.596c-.447 0-.804.35-.835.789h11.644c1.018 0 1.846.828 1.846 1.846V23.84c-.001 1.018-.83 1.846-1.847 1.846-.276 0-.5-.224-.5-.5s.224-.5.5-.5c.466 0 .846-.38.847-.847V7.135c0-.466-.379-.846-.846-.846H8.255c-.002 0-.003.001-.005.001s-.003-.001-.005-.001h-.399c-.467 0-.846.379-.846.846v13.818c0 .276-.224.5-.5.5s-.5-.224-.5-.5V7.135c0-.986.78-1.788 1.755-1.836.026-.996.84-1.799 1.841-1.799h12.559C23.173 3.5 24 4.328 24 5.346v11.347z"/>
<animate attributeName="display" fill="freeze" repeatCount="1" dur="1s" keyTimes="0;0.32;0.34;1" values="none;inline;none;none"/>
</g>
<g display="none" fill="#fff">
<path d="M0 0v30h30V0H0zm11.83 20.14H9.174c-.276 0-.5-.224-.5-.5s.224-.5.5-.5h2.656c.276 0 .5.224.5.5s-.224.5-.5.5zm7.569-1.114l-3.142 3.666c-.091.106-.223.17-.363.175h-.017c-.134 0-.262-.054-.356-.149l-1.361-1.382c-.193-.196-.191-.513.005-.707.198-.193.513-.191.708.006l.979.994 2.787-3.253c.18-.209.497-.234.705-.055.211.18.235.495.055.705zm-.379-2.575H9.174c-.276 0-.5-.224-.5-.5s.224-.5.5-.5h9.846c.276 0 .5.224.5.5s-.224.5-.5.5zM8.674 8.573c0-.276.224-.5.5-.5h2.67c.276 0 .5.224.5.5s-.224.5-.5.5h-2.67c-.277 0-.5-.223-.5-.5zm10.346 4.189h-8.616c-.276 0-.5-.224-.5-.5s.224-.5.5-.5h8.616c.276 0 .5.224.5.5s-.224.5-.5.5zM24 15.013c0 .276-.224.5-.5.5s-.5-.224-.5-.5V5.346c0-.467-.379-.846-.845-.846H9.596c-.447 0-.804.35-.835.789h11.644c1.018 0 1.846.828 1.846 1.846V23.84c-.001 1.018-.83 1.846-1.847 1.846-.276 0-.5-.224-.5-.5s.224-.5.5-.5c.466 0 .846-.38.847-.847V7.135c0-.466-.379-.846-.846-.846H8.255c-.002 0-.003.001-.005.001s-.003-.001-.005-.001h-.399c-.467 0-.846.379-.846.846v10.318c0 .276-.224.5-.5.5s-.5-.224-.5-.5V7.135c0-.986.78-1.788 1.755-1.836.026-.996.84-1.799 1.841-1.799h12.559C23.173 3.5 24 4.328 24 5.346v9.667z"/>
<animate attributeName="display" fill="freeze" repeatCount="1" dur="1s" keyTimes="0;0.34;0.36;1" values="none;inline;none;none"/>
</g>
<g display="none" fill="#fff">
<path d="M0 0v30h30V0H0zm11.83 20.14H9.174c-.276 0-.5-.224-.5-.5s.224-.5.5-.5h2.656c.276 0 .5.224.5.5s-.224.5-.5.5zm7.569-1.114l-3.142 3.666c-.091.106-.223.17-.363.175h-.017c-.134 0-.262-.054-.356-.149l-1.361-1.382c-.193-.196-.191-.513.005-.707.198-.193.513-.191.708.006l.979.994 2.787-3.253c.18-.209.497-.234.705-.055.211.18.235.495.055.705zm-.379-2.575H9.174c-.276 0-.5-.224-.5-.5s.224-.5.5-.5h9.846c.276 0 .5.224.5.5s-.224.5-.5.5zM8.674 8.573c0-.276.224-.5.5-.5h4.81c.276 0 .5.224.5.5s-.224.5-.5.5h-4.81c-.277 0-.5-.223-.5-.5zm10.346 4.189h-7.716c-.276 0-.5-.224-.5-.5s.224-.5.5-.5h7.716c.276 0 .5.224.5.5s-.224.5-.5.5zm4.98.351c0 .276-.224.5-.5.5s-.5-.224-.5-.5V5.346c0-.467-.379-.846-.845-.846H9.596c-.447 0-.804.35-.835.789h11.644c1.018 0 1.846.828 1.846 1.846V23.84c-.001 1.018-.83 1.846-1.847 1.846-.276 0-.5-.224-.5-.5s.224-.5.5-.5c.466 0 .846-.38.847-.847V7.135c0-.466-.379-.846-.846-.846H8.255c-.002 0-.003.001-.005.001s-.003-.001-.005-.001h-.399c-.467 0-.846.379-.846.846v6.378c0 .276-.224.5-.5.5s-.5-.223-.5-.5V7.135c0-.986.78-1.788 1.755-1.836.026-.996.84-1.799 1.841-1.799h12.559C23.173 3.5 24 4.328 24 5.346v7.767z"/>
<animate attributeName="display" fill="freeze" repeatCount="1" dur="1s" keyTimes="0;0.36;0.38;1" values="none;inline;none;none"/>
</g>
<g display="none" fill="#fff">
<path d="M0 0v30h30V0H0zm11.83 20.14H9.174c-.276 0-.5-.224-.5-.5s.224-.5.5-.5h2.656c.276 0 .5.224.5.5s-.224.5-.5.5zm7.569-1.114l-3.142 3.666c-.091.106-.223.17-.363.175h-.017c-.134 0-.262-.054-.356-.149l-1.361-1.382c-.193-.196-.191-.513.005-.707.198-.193.513-.191.708.006l.979.994 2.787-3.253c.18-.209.497-.234.705-.055.211.18.235.495.055.705zm-.379-2.575H9.174c-.276 0-.5-.224-.5-.5s.224-.5.5-.5h9.846c.276 0 .5.224.5.5s-.224.5-.5.5zM8.674 8.573c0-.276.224-.5.5-.5h6.47c.276 0 .5.224.5.5s-.223.5-.5.5h-6.47c-.277 0-.5-.223-.5-.5zm10.346 4.189h-6.466c-.276 0-.5-.224-.5-.5s.224-.5.5-.5h6.466c.276 0 .5.224.5.5s-.224.5-.5.5zM24 10.963c0 .276-.224.5-.5.5s-.5-.224-.5-.5V5.346c0-.467-.379-.846-.845-.846H9.596c-.447 0-.804.35-.835.789h11.644c1.018 0 1.846.828 1.846 1.846V23.84c-.001 1.018-.83 1.846-1.847 1.846-.276 0-.5-.224-.5-.5s.224-.5.5-.5c.466 0 .846-.38.847-.847V7.135c0-.466-.379-.846-.846-.846H8.255c-.002 0-.003.001-.005.001s-.003-.001-.005-.001h-.399c-.467 0-.846.379-.846.846v1.968c0 .276-.224.5-.5.5s-.5-.224-.5-.5V7.135c0-.986.78-1.788 1.755-1.836.026-.996.84-1.799 1.841-1.799h12.559C23.173 3.5 24 4.328 24 5.346v5.617z"/>
<animate attributeName="display" fill="freeze" repeatCount="1" dur="1s" keyTimes="0;0.38;0.4;1" values="none;inline;none;none"/>
</g>
<g display="none" fill="#fff">
<path d="M0 0v30h30V0H0zm11.83 20.14H9.174c-.276 0-.5-.224-.5-.5s.224-.5.5-.5h2.656c.276 0 .5.224.5.5s-.224.5-.5.5zm7.569-1.114l-3.142 3.666c-.091.106-.223.17-.363.175h-.017c-.134 0-.262-.054-.356-.149l-1.361-1.382c-.193-.196-.191-.513.005-.707.198-.193.513-.191.708.006l.979.994 2.787-3.253c.18-.209.497-.234.705-.055.211.18.235.495.055.705zm-.379-2.575H9.254c-.276 0-.5-.224-.5-.5s.224-.5.5-.5h9.766c.276 0 .5.224.5.5s-.224.5-.5.5zM8.674 8.573c0-.276.224-.5.5-.5h7.72c.276 0 .5.224.5.5s-.224.5-.5.5h-7.72c-.277 0-.5-.223-.5-.5zm10.346 4.189h-4.806c-.276 0-.5-.224-.5-.5s.224-.5.5-.5h4.806c.276 0 .5.224.5.5s-.224.5-.5.5zM24 8.563c0 .276-.224.5-.5.5s-.5-.224-.5-.5V5.346c0-.467-.379-.846-.845-.846H9.596c-.447 0-.804.35-.835.789h11.644c1.018 0 1.846.828 1.846 1.846V23.84c-.001 1.018-.83 1.846-1.847 1.846-.276 0-.5-.224-.5-.5s.224-.5.5-.5c.466 0 .846-.38.847-.847V7.135c0-.466-.379-.846-.846-.846H8.653c-.072 0-.139-.016-.201-.043-.062.027-.13.044-.202.044-.276 0-.5-.224-.5-.5v-.444c0-1.018.828-1.846 1.846-1.846h12.559C23.173 3.5 24 4.328 24 5.346v3.217z"/>
<animate attributeName="display" fill="freeze" repeatCount="1" dur="1s" keyTimes="0;0.4;0.42;1" values="none;inline;none;none"/>
</g>
<g display="none" fill="#fff">
<path d="M0 0v30h30V0H0zm11.83 20.14H9.174c-.276 0-.5-.224-.5-.5s.224-.5.5-.5h2.656c.276 0 .5.224.5.5s-.224.5-.5.5zM8.674 8.573c0-.276.224-.5.5-.5h8.62c.276 0 .5.224.5.5s-.224.5-.5.5h-8.62c-.277 0-.5-.223-.5-.5zm10.725 10.453l-3.142 3.666c-.091.106-.223.17-.363.175h-.017c-.134 0-.262-.054-.356-.149l-1.361-1.382c-.193-.196-.191-.513.005-.707.198-.193.513-.191.708.006l.979.994 2.787-3.253c.18-.209.497-.234.705-.055.211.18.235.495.055.705zm-.379-2.575H9.444c-.276 0-.5-.224-.5-.5s.224-.5.5-.5h9.576c.276 0 .5.224.5.5s-.224.5-.5.5zm0-3.689h-2.666c-.276 0-.5-.224-.5-.5s.224-.5.5-.5h2.666c.276 0 .5.224.5.5s-.224.5-.5.5zm3.231 11.078c-.001 1.018-.83 1.846-1.847 1.846-.276 0-.5-.224-.5-.5s.224-.5.5-.5c.466 0 .846-.38.847-.847V7.135c0-.466-.379-.846-.846-.846h-6.343c-.276 0-.5-.224-.5-.5s.224-.5.5-.5h6.343c1.018 0 1.846.828 1.846 1.846V23.84zM24 5.903c0 .276-.224.5-.5.5s-.5-.224-.5-.5v-.557c0-.467-.379-.846-.845-.846H9.596c-.467 0-.846.379-.846.846v.444c0 .276-.224.5-.5.5s-.5-.224-.5-.5v-.444c0-1.018.828-1.846 1.846-1.846h12.559C23.173 3.5 24 4.328 24 5.346v.557z"/>
<animate attributeName="display" fill="freeze" repeatCount="1" dur="1s" keyTimes="0;0.42;0.44;1" values="none;inline;none;none"/>
</g>
<g display="none" fill="#fff">
<path d="M0 0v30h30V0H0zm11.83 20.14H9.174c-.276 0-.5-.224-.5-.5s.224-.5.5-.5h2.656c.276 0 .5.224.5.5s-.224.5-.5.5zm6.564-11.067h-9.22c-.276 0-.5-.224-.5-.5s.224-.5.5-.5h9.22c.276 0 .5.224.5.5s-.224.5-.5.5zm1.005 9.953l-3.142 3.666c-.091.106-.223.17-.363.175h-.017c-.134 0-.262-.054-.356-.149l-1.361-1.382c-.193-.196-.191-.513.005-.707.198-.193.513-.191.708.006l.979.994 2.787-3.253c.18-.209.497-.234.705-.055.211.18.235.495.055.705zm-.379-2.575H9.804c-.276 0-.5-.224-.5-.5s.224-.5.5-.5h9.216c.276 0 .5.224.5.5s-.224.5-.5.5zm3.231 7.389c-.001 1.018-.83 1.846-1.847 1.846-.276 0-.5-.224-.5-.5s.224-.5.5-.5c.466 0 .846-.38.847-.847V7.135c0-.466-.379-.846-.846-.846h-.402c-.276 0-.5-.224-.5-.5s.224-.5.5-.5h.402c1.018 0 1.846.828 1.846 1.846V23.84zM21.887 4.5H9.596c-.467 0-.846.379-.846.846v.444c0 .276-.224.5-.5.5s-.5-.224-.5-.5v-.444c0-1.018.828-1.846 1.846-1.846h12.291c.276 0 .5.224.5.5s-.224.5-.5.5z"/>
<animate attributeName="display" fill="freeze" repeatCount="1" dur="1s" keyTimes="0;0.44;0.46;1" values="none;inline;none;none"/>
</g>
<g display="none" fill="#fff">
<path d="M0 0v30h30V0H0zm9.174 9.073c-.276 0-.5-.224-.5-.5s.224-.5.5-.5h9.58c.276 0 .5.224.5.5s-.224.5-.5.5h-9.58zm3.17 3.189c0 .276-.224.5-.5.5h-2.67c-.276 0-.5-.224-.5-.5s.224-.5.5-.5h2.67c.276 0 .5.224.5.5zM8.25 6.29c-.276 0-.5-.224-.5-.5v-.444c0-1.018.828-1.846 1.846-1.846h9.06c.276 0 .5.224.5.5s-.224.5-.5.5h-9.06c-.467 0-.846.379-.846.846v.444c0 .276-.224.5-.5.5zm3.58 13.85H9.174c-.276 0-.5-.224-.5-.5s.224-.5.5-.5h2.656c.276 0 .5.224.5.5s-.224.5-.5.5zm7.569-1.114l-3.142 3.666c-.091.106-.223.17-.363.175h-.017c-.134 0-.262-.054-.356-.149l-1.361-1.382c-.193-.196-.191-.513.005-.707.198-.193.513-.191.708.006l.979.994 2.787-3.253c.18-.209.497-.234.705-.055.211.18.235.495.055.705zm-.379-2.575h-8.616c-.276 0-.5-.224-.5-.5s.224-.5.5-.5h8.616c.276 0 .5.224.5.5s-.224.5-.5.5zm3.231 7.389c-.001 1.018-.83 1.846-1.847 1.846-.276 0-.5-.224-.5-.5s.224-.5.5-.5c.466 0 .846-.38.847-.847V11.127c0-.276.224-.5.5-.5s.5.224.5.5V23.84z"/>
<animate attributeName="display" fill="freeze" repeatCount="1" dur="1s" keyTimes="0;0.46;0.48;1" values="none;inline;none;none"/>
</g>
<g display="none" fill="#fff">
<path d="M0 0v30h30V0H0zm19.443 8.573c0 .276-.224.5-.5.5h-9.77c-.276 0-.5-.224-.5-.5s.224-.5.5-.5h9.77c.277 0 .5.224.5.5zm-4.959 3.689c0 .276-.224.5-.5.5h-4.81c-.276 0-.5-.224-.5-.5s.224-.5.5-.5h4.81c.276 0 .5.224.5.5zM8.25 6.29c-.276 0-.5-.224-.5-.5v-.444c0-1.018.828-1.846 1.846-1.846h5.51c.276 0 .5.224.5.5s-.224.5-.5.5h-5.51c-.467 0-.846.379-.846.846v.444c0 .276-.224.5-.5.5zm3.58 13.85H9.174c-.276 0-.5-.224-.5-.5s.224-.5.5-.5h2.656c.276 0 .5.224.5.5s-.224.5-.5.5zm7.569-1.114l-3.142 3.666c-.091.106-.223.17-.363.175h-.017c-.134 0-.262-.054-.356-.149l-1.361-1.382c-.193-.196-.191-.513.005-.707.198-.193.513-.191.708.006l.979.994 2.787-3.253c.18-.209.497-.234.705-.055.211.18.235.495.055.705zm-.379-2.575h-7.716c-.276 0-.5-.224-.5-.5s.224-.5.5-.5h7.716c.276 0 .5.224.5.5s-.224.5-.5.5zm3.231 7.389c-.001 1.018-.83 1.846-1.847 1.846-.276 0-.5-.224-.5-.5s.224-.5.5-.5c.466 0 .846-.38.847-.847v-5.602c0-.276.224-.5.5-.5s.5.224.5.5v5.603z"/>
<animate attributeName="display" fill="freeze" repeatCount="1" dur="1s" keyTimes="0;0.48;0.5;1" values="none;inline;none;none"/>
</g>
<g display="none" fill="#fff">
<path d="M0 0v30h30V0H0zm19.514 8.573c0 .276-.224.5-.5.5h-9.84c-.276 0-.5-.224-.5-.5s.224-.5.5-.5h9.84c.276 0 .5.224.5.5zm-3.37 3.689c0 .276-.223.5-.5.5h-6.47c-.276 0-.5-.224-.5-.5s.224-.5.5-.5h6.47c.276 0 .5.224.5.5zM8.25 6.29c-.276 0-.5-.224-.5-.5v-.444c0-1.018.828-1.846 1.846-1.846h1.641c.276 0 .5.224.5.5s-.224.5-.5.5H9.596c-.467 0-.846.379-.846.846v.444c0 .276-.224.5-.5.5zm3.58 13.85H9.174c-.276 0-.5-.224-.5-.5s.224-.5.5-.5h2.656c.276 0 .5.224.5.5s-.224.5-.5.5zm7.569-1.114l-3.142 3.666c-.091.106-.223.17-.363.175h-.017c-.134 0-.262-.054-.356-.149l-1.361-1.382c-.193-.196-.191-.513.005-.707.198-.193.513-.191.708.006l.979.994 2.787-3.253c.18-.209.497-.234.705-.055.211.18.235.495.055.705zm-.379-2.575h-6.466c-.276 0-.5-.224-.5-.5s.224-.5.5-.5h6.466c.276 0 .5.224.5.5s-.224.5-.5.5z"/>
<animate attributeName="display" fill="freeze" repeatCount="1" dur="1s" keyTimes="0;0.5;0.52;1" values="none;inline;none;none"/>
</g>
<g display="none" fill="#fff">
<path d="M0 0v30h30V0H0zm9.174 8.073h9.846c.276 0 .5.224.5.5s-.224.5-.5.5H9.174c-.276 0-.5-.224-.5-.5s.223-.5.5-.5zm9.846 8.378h-4.806c-.276 0-.5-.224-.5-.5s.224-.5.5-.5h4.806c.276 0 .5.224.5.5s-.224.5-.5.5zm.379 2.575l-3.142 3.666c-.091.106-.223.17-.363.175h-.017c-.134 0-.262-.054-.356-.149l-1.326-1.347c-.193-.196-.191-.514.006-.707.196-.194.512-.19.707.006l.944.959 2.787-3.253c.18-.209.497-.234.705-.055.211.18.235.495.055.705zM9.174 11.762h7.72c.276 0 .5.224.5.5s-.224.5-.5.5h-7.72c-.276 0-.5-.224-.5-.5s.223-.5.5-.5zm2.656 8.378H9.194c-.276 0-.5-.224-.5-.5s.224-.5.5-.5h2.636c.276 0 .5.224.5.5s-.224.5-.5.5zm8.574 5.546h-7.72c-.276 0-.5-.224-.5-.5s.224-.5.5-.5h7.72c.276 0 .5.224.5.5s-.223.5-.5.5z"/>
<animate attributeName="display" fill="freeze" repeatCount="1" dur="1s" keyTimes="0;0.52;0.54;1" values="none;inline;none;none"/>
</g>
<g display="none" fill="#fff">
<path d="M0 0v30h30V0H0zm9.174 8.073h9.846c.276 0 .5.224.5.5s-.224.5-.5.5H9.174c-.276 0-.5-.224-.5-.5s.223-.5.5-.5zm9.846 8.378h-2.666c-.276 0-.5-.224-.5-.5s.224-.5.5-.5h2.666c.276 0 .5.224.5.5s-.224.5-.5.5zm.379 2.575l-3.142 3.666c-.091.106-.223.17-.363.175h-.017c-.134 0-.262-.054-.356-.149l-1.234-1.254c-.193-.196-.191-.513.006-.707.196-.194.513-.191.707.006l.853.866 2.787-3.253c.18-.209.497-.234.705-.055.21.18.234.495.054.705zM9.174 11.762h8.62c.276 0 .5.224.5.5s-.224.5-.5.5h-8.62c-.276 0-.5-.224-.5-.5s.223-.5.5-.5zm3.156 7.878c0 .276-.224.5-.5.5H9.244c-.276 0-.5-.224-.5-.5s.224-.5.5-.5h2.586c.276 0 .5.223.5.5zm8.074 6.046H7.846C6.828 25.686 6 24.857 6 23.84v-.156c0-.276.224-.5.5-.5s.5.224.5.5v.156c0 .467.379.846.846.846h12.558c.276 0 .5.224.5.5s-.223.5-.5.5zM24 22.051c0 1.019-.828 1.847-1.846 1.847h-.404c-.276 0-.5-.224-.5-.5s.224-.5.5-.5h.404c.467 0 .846-.38.846-.847v-1.678c0-.276.224-.5.5-.5s.5.224.5.5v1.678z"/>
<animate attributeName="display" fill="freeze" repeatCount="1" dur="1s" keyTimes="0;0.54;0.56;1" values="none;inline;none;none"/>
</g>
<g display="none" fill="#fff">
<path d="M0 0v30h30V0H0zm9.174 8.073h9.846c.276 0 .5.224.5.5s-.224.5-.5.5H9.174c-.276 0-.5-.224-.5-.5s.223-.5.5-.5zM12.33 19.64c0 .276-.224.5-.5.5H9.344c-.276 0-.5-.224-.5-.5s.224-.5.5-.5h2.486c.276 0 .5.223.5.5zm2.138 1.296c.197-.194.514-.192.708.006l.677.688 2.787-3.253c.18-.209.497-.234.705-.055.21.18.234.495.055.705l-3.142 3.666c-.091.106-.223.17-.363.175h-.017c-.134 0-.262-.054-.356-.149l-1.059-1.075c-.194-.198-.192-.514.005-.708zm-5.294-9.174h9.22c.276 0 .5.224.5.5s-.224.5-.5.5h-9.22c-.276 0-.5-.224-.5-.5s.223-.5.5-.5zm11.23 13.924H7.846C6.828 25.686 6 24.857 6 23.84v-6.667c0-.276.224-.5.5-.5s.5.224.5.5v6.667c0 .467.379.846.846.846h12.558c.276 0 .5.224.5.5s-.223.5-.5.5zM24 22.051c0 1.019-.828 1.847-1.846 1.847h-.404c-.276 0-.5-.224-.5-.5s.224-.5.5-.5h.404c.467 0 .846-.38.846-.847v-5.548c0-.276.224-.5.5-.5s.5.224.5.5v5.548z"/>
<animate attributeName="display" fill="freeze" repeatCount="1" dur="1s" keyTimes="0;0.56;0.58;1" values="none;inline;none;none"/>
</g>
<g display="none" fill="#fff">
<path d="M0 0v30h30V0H0zm9.174 8.073h9.846c.276 0 .5.224.5.5s-.224.5-.5.5H9.174c-.276 0-.5-.224-.5-.5s.223-.5.5-.5zm10.225 10.953l-3.142 3.666c-.091.106-.223.17-.363.175h-.017c-.134 0-.262-.054-.356-.149l-.765-.776c-.193-.196-.191-.513.005-.707.197-.193.513-.191.708.006l.383.389 2.787-3.253c.18-.209.497-.234.705-.055.211.179.235.494.055.704zM9.174 11.762h9.58c.276 0 .5.224.5.5s-.224.5-.5.5h-9.58c-.276 0-.5-.224-.5-.5s.223-.5.5-.5zm0 3.689h2.67c.276 0 .5.224.5.5s-.224.5-.5.5h-2.67c-.276 0-.5-.224-.5-.5s.223-.5.5-.5zm3.156 4.189c0 .276-.224.5-.5.5H9.504c-.276 0-.5-.224-.5-.5s.224-.5.5-.5h2.326c.276 0 .5.223.5.5zm8.074 6.046H7.846C6.828 25.686 6 24.857 6 23.84V11.233c0-.276.224-.5.5-.5s.5.224.5.5V23.84c0 .467.379.846.846.846h12.558c.276 0 .5.224.5.5s-.223.5-.5.5zM24 22.051c0 1.019-.828 1.847-1.846 1.847h-.404c-.276 0-.5-.224-.5-.5s.224-.5.5-.5h.404c.467 0 .846-.38.846-.847v-9.098c0-.276.224-.5.5-.5s.5.224.5.5v9.098z"/>
<animate attributeName="display" fill="freeze" repeatCount="1" dur="1s" keyTimes="0;0.58;0.6;1" values="none;inline;none;none"/>
</g>
<g display="none" fill="#fff">
<path d="M0 0v30h30V0H0zm9.174 8.073h9.846c.276 0 .5.224.5.5s-.224.5-.5.5H9.174c-.276 0-.5-.224-.5-.5s.223-.5.5-.5zm0 3.689h9.77c.276 0 .5.224.5.5s-.224.5-.5.5h-9.77c-.276 0-.5-.224-.5-.5s.223-.5.5-.5zm10.225 7.264l-3.142 3.666c-.091.106-.223.17-.363.175h-.017c-.134 0-.262-.054-.356-.149l-.336-.342c-.194-.196-.191-.514.006-.707.181-.178.465-.191.659-.037l2.79-3.256c.18-.209.497-.234.705-.055.21.18.234.495.054.705zM9.174 15.451h4.81c.276 0 .5.224.5.5s-.224.5-.5.5h-4.81c-.276 0-.5-.224-.5-.5s.223-.5.5-.5zm3.156 4.189c0 .276-.224.5-.5.5H9.744c-.276 0-.5-.224-.5-.5s.224-.5.5-.5h2.086c.276 0 .5.223.5.5zm8.074 6.046H7.846C6.828 25.686 6 24.857 6 23.84V7.135c0-.612.302-1.183.809-1.527.228-.156.539-.096.694.132.156.228.097.539-.132.695-.232.157-.371.419-.371.7V23.84c0 .467.379.846.846.846h12.558c.276 0 .5.224.5.5s-.223.5-.5.5zM24 22.051c0 1.019-.828 1.847-1.846 1.847h-.404c-.276 0-.5-.224-.5-.5s.224-.5.5-.5h.404c.467 0 .846-.38.846-.847V9.723c0-.276.224-.5.5-.5s.5.224.5.5v12.328z"/>
<animate attributeName="display" fill="freeze" repeatCount="1" dur="1s" keyTimes="0;0.6;0.62;1" values="none;inline;none;none"/>
</g>
<g display="none" fill="#fff">
<path d="M0 0v30h30V0H0zm19.52 8.573c0 .276-.224.5-.5.5H9.174c-.276 0-.5-.224-.5-.5s.224-.5.5-.5h9.846c.276 0 .5.224.5.5zM9.174 16.451c-.276 0-.5-.224-.5-.5s.224-.5.5-.5h6.47c.276 0 .5.224.5.5s-.223.5-.5.5h-6.47zm3.156 3.189c0 .276-.224.5-.5.5h-1.746c-.276 0-.5-.224-.5-.5s.224-.5.5-.5h1.746c.276 0 .5.223.5.5zm-3.656-7.378c0-.276.224-.5.5-.5h9.84c.276 0 .5.224.5.5s-.224.5-.5.5h-9.84c-.277 0-.5-.223-.5-.5zm7.072 9.491l2.894-3.377c.18-.209.497-.234.705-.055.21.18.234.495.055.705l-2.894 3.377c-.099.115-.239.175-.38.175-.115 0-.231-.039-.325-.12-.21-.18-.235-.495-.055-.705zm4.658 3.933H7.846C6.828 25.686 6 24.857 6 23.84V7.135c0-1.018.828-1.846 1.846-1.846h4.086c.276 0 .5.224.5.5s-.224.5-.5.5H7.846c-.467 0-.846.379-.846.846V23.84c0 .467.379.846.846.846h12.558c.276 0 .5.224.5.5s-.223.5-.5.5zM24 22.051c0 1.019-.828 1.847-1.846 1.847h-.404c-.276 0-.5-.224-.5-.5s.224-.5.5-.5h.404c.467 0 .846-.38.846-.847V6.783c0-.276.224-.5.5-.5s.5.224.5.5v15.268z"/>
<animate attributeName="display" fill="freeze" repeatCount="1" dur="1s" keyTimes="0;0.62;0.64;1" values="none;inline;none;none"/>
</g>
<g display="none" fill="#fff">
<path d="M0 0v30h30V0H0zm19.52 8.573c0 .276-.224.5-.5.5H9.174c-.276 0-.5-.224-.5-.5s.224-.5.5-.5h9.846c.276 0 .5.224.5.5zM9.174 16.451c-.276 0-.5-.224-.5-.5s.224-.5.5-.5h7.72c.276 0 .5.224.5.5s-.224.5-.5.5h-7.72zm3.156 3.189c0 .276-.224.5-.5.5h-1.296c-.276 0-.5-.224-.5-.5s.224-.5.5-.5h1.296c.276 0 .5.223.5.5zm4.164 1.24l2.146-2.504c.18-.209.497-.234.705-.055.21.18.234.495.055.705l-2.146 2.504c-.099.115-.239.175-.38.175-.115 0-.231-.039-.325-.12-.21-.18-.235-.495-.055-.705zm2.526-8.118H9.174c-.276 0-.5-.224-.5-.5s.224-.5.5-.5h9.846c.276 0 .5.224.5.5s-.224.5-.5.5zm1.384 12.924H7.846C6.828 25.686 6 24.857 6 23.84V7.135c0-1.018.828-1.846 1.846-1.846h8.497c.276 0 .5.224.5.5s-.224.5-.5.5H7.846c-.467 0-.846.379-.846.846V23.84c0 .467.379.846.846.846h12.558c.276 0 .5.224.5.5s-.223.5-.5.5zM24 22.051c0 1.019-.828 1.847-1.846 1.847h-.404c-.276 0-.5-.224-.5-.5s.224-.5.5-.5h.404c.467 0 .846-.38.846-.847V5.346c0-.263-.118-.506-.325-.668-.218-.17-.257-.484-.087-.702.17-.218.482-.257.702-.086.451.352.71.883.71 1.456v16.705z"/>
<animate attributeName="display" fill="freeze" repeatCount="1" dur="1s" keyTimes="0;0.64;0.66;1" values="none;inline;none;none"/>
</g>
<g display="none" fill="#fff">
<path d="M0 0v30h30V0H0zm20.404 25.686H7.846C6.828 25.686 6 24.857 6 23.84V7.135c0-1.018.828-1.846 1.846-1.846h12.437c.276 0 .5.224.5.5s-.224.5-.5.5H7.846c-.467 0-.846.379-.846.846V23.84c0 .467.379.846.846.846h12.558c.276 0 .5.224.5.5s-.223.5-.5.5zm-11.23-9.235c-.276 0-.5-.224-.5-.5s.224-.5.5-.5h8.62c.276 0 .5.224.5.5s-.224.5-.5.5h-8.62zm3.156 3.189c0 .276-.224.5-.5.5h-.716c-.276 0-.5-.224-.5-.5s.224-.5.5-.5h.716c.276 0 .5.223.5.5zm5.12.124l1.189-1.388c.181-.209.497-.234.705-.055.21.18.234.496.055.705l-1.189 1.388c-.1.115-.239.175-.38.175-.115 0-.231-.039-.325-.12-.21-.18-.234-.496-.055-.705zm1.57-7.002H9.174c-.276 0-.5-.224-.5-.5s.224-.5.5-.5h9.846c.276 0 .5.224.5.5s-.224.5-.5.5zm0-3.689H9.174c-.276 0-.5-.224-.5-.5s.224-.5.5-.5h9.846c.276 0 .5.224.5.5s-.224.5-.5.5zM24 22.051c0 1.019-.828 1.847-1.846 1.847h-.404c-.276 0-.5-.224-.5-.5s.224-.5.5-.5h.404c.467 0 .846-.38.846-.847V5.346c0-.467-.379-.846-.845-.846h-1.509c-.276 0-.5-.224-.5-.5s.224-.5.5-.5h1.509C23.173 3.5 24 4.328 24 5.346v16.705z"/>
<animate attributeName="display" fill="freeze" repeatCount="1" dur="1s" keyTimes="0;0.66;0.68;1" values="none;inline;none;none"/>
</g>
<g display="none" fill="#fff">
<path d="M0 0v30h30V0H0zm9.174 16.451c-.276 0-.5-.224-.5-.5s.224-.5.5-.5h9.22c.276 0 .5.224.5.5s-.224.5-.5.5h-9.22zm0-3.689c-.276 0-.5-.224-.5-.5s.224-.5.5-.5h9.846c.276 0 .5.224.5.5s-.224.5-.5.5H9.174zm9.846-3.689H9.174c-.276 0-.5-.224-.5-.5s.224-.5.5-.5h9.846c.276 0 .5.224.5.5s-.224.5-.5.5zM7.846 6.289c-.467 0-.846.379-.846.846V23.84c0 .467.379.846.846.846h12.558c.276 0 .5.224.5.5s-.224.5-.5.5H7.846C6.828 25.686 6 24.857 6 23.84V7.135c0-1.018.828-1.846 1.846-1.846h12.559c1.018 0 1.846.828 1.846 1.846v1.263c0 .276-.224.5-.5.5s-.5-.224-.5-.5V7.135c0-.466-.379-.846-.846-.846H7.846zM24 22.051c0 1.019-.828 1.847-1.846 1.847h-.404c-.276 0-.5-.224-.5-.5s.224-.5.5-.5h.404c.467 0 .846-.38.846-.847V5.346c0-.467-.379-.846-.845-.846h-3.658c-.276 0-.5-.224-.5-.5s.224-.5.5-.5h3.658C23.173 3.5 24 4.328 24 5.346v16.705z"/>
<animate attributeName="display" fill="freeze" repeatCount="1" dur="1s" keyTimes="0;0.68;0.7;1" values="none;inline;none;none"/>
</g>
<g display="none" fill="#fff">
<path d="M0 0v30h30V0H0zm9.174 16.451c-.276 0-.5-.224-.5-.5s.224-.5.5-.5h9.58c.276 0 .5.224.5.5s-.224.5-.5.5h-9.58zm6.978 6.195c-.098.096-.225.144-.351.144-.129 0-.258-.05-.356-.149l-1.284-1.304c-.193-.196-.191-.513.005-.707.198-.193.513-.191.708.006l1.284 1.304c.194.195.191.511-.006.706zm-5.758-3.006c0 .276-.224.5-.5.5h-.72c-.276 0-.5-.224-.5-.5s.224-.5.5-.5h.72c.276 0 .5.223.5.5zm8.626-6.878H9.174c-.276 0-.5-.224-.5-.5s.224-.5.5-.5h9.846c.276 0 .5.224.5.5s-.224.5-.5.5zm0-3.689H9.174c-.276 0-.5-.224-.5-.5s.224-.5.5-.5h9.846c.276 0 .5.224.5.5s-.224.5-.5.5zM7.846 6.289c-.467 0-.846.379-.846.846V23.84c0 .467.379.846.846.846h12.558c.276 0 .5.224.5.5s-.224.5-.5.5H7.846C6.828 25.686 6 24.857 6 23.84V7.135c0-1.018.828-1.846 1.846-1.846h12.559c1.018 0 1.846.828 1.846 1.846v4.353c0 .276-.224.5-.5.5s-.5-.224-.5-.5V7.135c0-.466-.379-.846-.846-.846H7.846zM24 22.051c0 1.019-.828 1.847-1.846 1.847h-.404c-.276 0-.5-.224-.5-.5s.224-.5.5-.5h.404c.467 0 .846-.38.846-.847V5.346c0-.467-.379-.846-.845-.846h-5.559c-.276 0-.5-.224-.5-.5s.224-.5.5-.5h5.559C23.173 3.5 24 4.328 24 5.346v16.705z"/>
<animate attributeName="display" fill="freeze" repeatCount="1" dur="1s" keyTimes="0;0.7;0.72;1" values="none;inline;none;none"/>
</g>
<g display="none" fill="#fff">
<path d="M0 0v30h30V0H0zm9.174 16.451c-.276 0-.5-.224-.5-.5s.224-.5.5-.5h9.77c.276 0 .5.224.5.5s-.224.5-.5.5h-9.77zm7.97 5.208l-.886 1.033c-.092.106-.223.17-.363.175h-.017c-.134 0-.262-.054-.356-.149l-1.361-1.382c-.193-.196-.191-.513.005-.707.198-.193.513-.191.708.006l.979.994.531-.62c.182-.209.497-.231.705-.055.21.18.234.496.055.705zm-6.17-2.019c0 .276-.224.5-.5.5h-1.3c-.276 0-.5-.224-.5-.5s.224-.5.5-.5h1.3c.276 0 .5.223.5.5zm8.046-6.878H9.174c-.276 0-.5-.224-.5-.5s.224-.5.5-.5h9.846c.276 0 .5.224.5.5s-.224.5-.5.5zm0-3.689H9.174c-.276 0-.5-.224-.5-.5s.224-.5.5-.5h9.846c.276 0 .5.224.5.5s-.224.5-.5.5zM7.846 6.289c-.467 0-.846.379-.846.846V23.84c0 .467.379.846.846.846h12.558c.276 0 .5.224.5.5s-.224.5-.5.5H7.846C6.828 25.686 6 24.857 6 23.84V7.135c0-1.018.828-1.846 1.846-1.846h12.559c1.018 0 1.846.828 1.846 1.846v7.062c0 .276-.224.5-.5.5s-.5-.224-.5-.5V7.135c0-.466-.379-.846-.846-.846H7.846zM24 22.051c0 1.019-.828 1.847-1.846 1.847h-.404c-.276 0-.5-.224-.5-.5s.224-.5.5-.5h.404c.467 0 .846-.38.846-.847V5.346c0-.467-.379-.846-.845-.846h-7.239c-.276 0-.5-.224-.5-.5s.224-.5.5-.5h7.239C23.173 3.5 24 4.328 24 5.346v16.705z"/>
<animate attributeName="display" fill="freeze" repeatCount="1" dur="1s" keyTimes="0;0.72;0.74;1" values="none;inline;none;none"/>
</g>
<g display="none" fill="#fff">
<path d="M0 0v30h30V0H0zm9.174 16.451c-.276 0-.5-.224-.5-.5s.224-.5.5-.5h9.84c.276 0 .5.224.5.5s-.224.5-.5.5h-9.84zm8.718 4.335l-1.634 1.906c-.091.106-.223.17-.363.175h-.017c-.134 0-.262-.054-.356-.149l-1.361-1.382c-.193-.196-.191-.513.005-.707.198-.193.513-.191.708.006l.979.994 1.279-1.493c.182-.209.497-.234.705-.055.21.18.234.495.055.705zm-6.468-1.146c0 .276-.224.5-.5.5h-1.75c-.276 0-.5-.224-.5-.5s.224-.5.5-.5h1.75c.276 0 .5.223.5.5zm7.596-6.878H9.174c-.276 0-.5-.224-.5-.5s.224-.5.5-.5h9.846c.276 0 .5.224.5.5s-.224.5-.5.5zm0-3.689H9.174c-.276 0-.5-.224-.5-.5s.224-.5.5-.5h9.846c.276 0 .5.224.5.5s-.224.5-.5.5zM7.846 6.289c-.467 0-.846.379-.846.846V23.84c0 .467.379.846.846.846h12.558c.276 0 .5.224.5.5s-.224.5-.5.5H7.846C6.828 25.686 6 24.857 6 23.84V7.135c0-1.018.828-1.846 1.846-1.846h12.559c1.018 0 1.846.828 1.846 1.846v9.402c0 .276-.224.5-.5.5s-.5-.224-.5-.5V7.135c0-.466-.379-.846-.846-.846H7.846zM24 22.051c0 1.019-.828 1.847-1.846 1.847h-.404c-.276 0-.5-.224-.5-.5s.224-.5.5-.5h.404c.467 0 .846-.38.846-.847V5.346c0-.467-.379-.846-.845-.846h-8.719c-.276 0-.5-.224-.5-.5s.224-.5.5-.5h8.719C23.173 3.5 24 4.328 24 5.346v16.705z"/>
<animate attributeName="display" fill="freeze" repeatCount="1" dur="1s" keyTimes="0;0.74;0.76;1" values="none;inline;none;none"/>
</g>
<g display="none" fill="#fff">
<path d="M0 0v30h30V0H0zm9.174 16.451c-.276 0-.5-.224-.5-.5s.224-.5.5-.5h9.846c.276 0 .5.224.5.5s-.224.5-.5.5H9.174zm9.277 3.682l-2.193 2.56c-.091.106-.223.17-.363.175h-.017c-.134 0-.262-.054-.356-.149l-1.361-1.382c-.193-.196-.191-.513.005-.707.198-.193.513-.191.708.006l.979.994 1.839-2.146c.181-.209.497-.233.705-.055.209.178.234.494.054.704zm-6.687-.493c0 .276-.224.5-.5.5h-2.09c-.276 0-.5-.224-.5-.5s.224-.5.5-.5h2.09c.276 0 .5.223.5.5zm7.256-6.878H9.174c-.276 0-.5-.224-.5-.5s.224-.5.5-.5h9.846c.276 0 .5.224.5.5s-.224.5-.5.5zm0-3.689H9.174c-.276 0-.5-.224-.5-.5s.224-.5.5-.5h9.846c.276 0 .5.224.5.5s-.224.5-.5.5zM7.846 6.289c-.467 0-.846.379-.846.846V23.84c0 .467.379.846.846.846h12.558c.276 0 .5.224.5.5s-.224.5-.5.5H7.846C6.828 25.686 6 24.857 6 23.84V7.135c0-1.018.828-1.846 1.846-1.846h12.559c1.018 0 1.846.828 1.846 1.846v11.413c0 .276-.224.5-.5.5s-.5-.224-.5-.5V7.135c0-.466-.379-.846-.846-.846H7.846zM24 22.051c0 1.019-.828 1.847-1.846 1.847h-.404c-.276 0-.5-.224-.5-.5s.224-.5.5-.5h.404c.467 0 .846-.38.846-.847V5.346c0-.467-.379-.846-.845-.846h-9.989c-.276 0-.5-.224-.5-.5s.224-.5.5-.5h9.989C23.173 3.5 24 4.328 24 5.346v16.705z"/>
<animate attributeName="display" fill="freeze" repeatCount="1" dur="1s" keyTimes="0;0.76;0.78;1" values="none;inline;none;none"/>
</g>
<g display="none" fill="#fff">
<path d="M0 0v30h30V0H0zm9.174 16.451c-.276 0-.5-.224-.5-.5s.224-.5.5-.5h9.846c.276 0 .5.224.5.5s-.224.5-.5.5H9.174zm9.674 3.219l-2.59 3.022c-.091.106-.223.17-.363.175h-.017c-.134 0-.262-.054-.356-.149l-1.361-1.382c-.193-.196-.191-.513.005-.707.198-.193.513-.191.708.006l.979.994 2.235-2.609c.181-.21.497-.233.705-.055.21.18.234.495.055.705zm-6.844-.03c0 .276-.224.5-.5.5h-2.33c-.276 0-.5-.224-.5-.5s.224-.5.5-.5h2.33c.276 0 .5.223.5.5zm7.016-6.878H9.174c-.276 0-.5-.224-.5-.5s.224-.5.5-.5h9.846c.276 0 .5.224.5.5s-.224.5-.5.5zm0-3.689H9.174c-.276 0-.5-.224-.5-.5s.224-.5.5-.5h9.846c.276 0 .5.224.5.5s-.224.5-.5.5zM7.846 6.289c-.467 0-.846.379-.846.846V23.84c0 .467.379.846.846.846h12.558c.276 0 .5.224.5.5s-.224.5-.5.5H7.846C6.828 25.686 6 24.857 6 23.84V7.135c0-1.018.828-1.846 1.846-1.846h12.559c1.018 0 1.846.828 1.846 1.846v13.112c0 .276-.224.5-.5.5s-.5-.224-.5-.5V7.135c0-.466-.379-.846-.846-.846H7.846zM24 22.051c0 1.019-.828 1.847-1.846 1.847h-.404c-.276 0-.5-.224-.5-.5s.224-.5.5-.5h.404c.467 0 .846-.38.846-.847V5.346c0-.467-.379-.846-.845-.846H11.066c-.276 0-.5-.224-.5-.5s.224-.5.5-.5h11.089C23.173 3.5 24 4.328 24 5.346v16.705z"/>
<animate attributeName="display" fill="freeze" repeatCount="1" dur="1s" keyTimes="0;0.78;0.8;1" values="none;inline;none;none"/>
</g>
<g display="none" fill="#fff">
<path d="M0 0v30h30V0H0zm19.02 16.451H9.174c-.276 0-.5-.224-.5-.5s.224-.5.5-.5h9.846c.276 0 .5.224.5.5s-.224.5-.5.5zm.101 2.9l-2.863 3.342c-.091.106-.223.17-.363.175h-.017c-.134 0-.262-.054-.356-.149l-1.361-1.382c-.193-.196-.191-.513.005-.707.198-.193.513-.191.708.006l.979.994 2.509-2.929c.181-.209.497-.234.705-.055.209.179.234.495.054.705zm-6.957.289c0 .276-.224.5-.5.5h-2.49c-.276 0-.5-.224-.5-.5s.224-.5.5-.5h2.49c.276 0 .5.223.5.5zm6.856-6.878H9.174c-.276 0-.5-.224-.5-.5s.224-.5.5-.5h9.846c.276 0 .5.224.5.5s-.224.5-.5.5zm0-3.689H9.174c-.276 0-.5-.224-.5-.5s.224-.5.5-.5h9.846c.276 0 .5.224.5.5s-.224.5-.5.5zM7.846 6.289c-.467 0-.846.379-.846.846V23.84c0 .467.379.846.846.846h12.558c.276 0 .5.224.5.5s-.224.5-.5.5H7.846C6.828 25.686 6 24.857 6 23.84V7.135c0-1.018.828-1.846 1.846-1.846h12.559c1.018 0 1.846.828 1.846 1.846v14.532c0 .276-.224.5-.5.5s-.5-.224-.5-.5V7.135c0-.466-.379-.846-.846-.846H7.846zM24 22.051c0 1.019-.828 1.847-1.846 1.847h-.404c-.276 0-.5-.224-.5-.5s.224-.5.5-.5h.404c.467 0 .846-.38.846-.847V5.346c0-.467-.379-.846-.845-.846H10.146c-.276 0-.5-.224-.5-.5s.224-.5.5-.5h12.009C23.173 3.5 24 4.328 24 5.346v16.705z"/>
<animate attributeName="display" fill="freeze" repeatCount="1" dur="1s" keyTimes="0;0.8;0.82;1" values="none;inline;none;none"/>
</g>
<g display="none" fill="#fff">
<path d="M0 0v30h30V0H0zm24 22.051c0 1.019-.828 1.847-1.846 1.847h-.404c-.276 0-.5-.224-.5-.5 0-.106.041-.2.097-.281-.056-.081-.096-.173-.096-.279V7.135c0-.466-.379-.846-.846-.846H7.846c-.467 0-.846.379-.846.846V23.84c0 .467.379.846.846.846h12.558c.276 0 .5.224.5.5s-.224.5-.5.5H7.846C6.828 25.686 6 24.857 6 23.84V7.135c0-1.018.828-1.846 1.846-1.846h12.559c1.018 0 1.846.828 1.846 1.846v15.703c0 .015-.007.027-.008.042.423-.047.757-.394.757-.829V5.346c0-.467-.379-.846-.845-.846H9.596c-.049 0-.097.004-.144.012-.273.047-.531-.137-.577-.408-.047-.273.136-.531.408-.578.102-.017.206-.026.313-.026h12.559C23.173 3.5 24 4.328 24 5.346v16.705zm-4.98-5.6H9.174c-.276 0-.5-.224-.5-.5s.224-.5.5-.5h9.846c.276 0 .5.224.5.5s-.224.5-.5.5zm.264 2.71l-3.026 3.531c-.091.106-.223.17-.363.175h-.017c-.134 0-.262-.054-.356-.149l-1.361-1.382c-.193-.196-.191-.513.005-.707.198-.193.513-.191.708.006l.979.994 2.672-3.118c.18-.209.498-.234.705-.055.209.18.234.495.054.705zm-7.02.479c0 .276-.224.5-.5.5h-2.59c-.276 0-.5-.224-.5-.5s.224-.5.5-.5h2.59c.276 0 .5.223.5.5zm6.756-6.878H9.174c-.276 0-.5-.224-.5-.5s.224-.5.5-.5h9.846c.276 0 .5.224.5.5s-.224.5-.5.5zm0-3.689H9.174c-.276 0-.5-.224-.5-.5s.224-.5.5-.5h9.846c.276 0 .5.224.5.5s-.224.5-.5.5z"/>
<animate attributeName="display" fill="freeze" repeatCount="1" dur="1s" keyTimes="0;0.82;0.84;1" values="none;inline;none;none"/>
</g>
<g display="none" fill="#fff">
<path d="M0 0v30h30V0H0zm24 22.051c0 .995-.791 1.802-1.776 1.84-.059.21-.244.367-.473.367-.276 0-.5-.224-.5-.5v-.356c0-.002-.001-.003-.001-.005s.001-.003.001-.005V7.135c0-.466-.379-.846-.846-.846H7.846c-.467 0-.846.379-.846.846V23.84c0 .467.379.846.846.846h12.558c.276 0 .5.224.5.5s-.224.5-.5.5H7.846C6.828 25.686 6 24.857 6 23.84V7.135c0-1.018.828-1.846 1.846-1.846h12.559c1.018 0 1.846.828 1.846 1.846v15.743c.419-.05.749-.395.749-.827V5.346c0-.467-.379-.846-.845-.846H9.596c-.184 0-.358.058-.504.166-.224.164-.535.118-.7-.103-.165-.222-.119-.535.103-.7.321-.238.701-.363 1.101-.363h12.559C23.173 3.5 24 4.328 24 5.346v16.705zm-4.98-5.6H9.174c-.276 0-.5-.224-.5-.5s.224-.5.5-.5h9.846c.276 0 .5.224.5.5s-.224.5-.5.5zm.348 2.611l-3.11 3.63c-.091.106-.223.17-.363.175h-.017c-.134 0-.262-.054-.356-.149l-1.361-1.382c-.193-.196-.191-.513.005-.707.198-.193.513-.191.708.006l.979.994 2.756-3.217c.181-.21.497-.234.705-.055.209.18.234.496.054.705zm-7.054.578c0 .276-.224.5-.5.5h-2.64c-.276 0-.5-.224-.5-.5s.224-.5.5-.5h2.64c.276 0 .5.223.5.5zm6.706-6.878H9.174c-.276 0-.5-.224-.5-.5s.224-.5.5-.5h9.846c.276 0 .5.224.5.5s-.224.5-.5.5zm0-3.689H9.174c-.276 0-.5-.224-.5-.5s.224-.5.5-.5h9.846c.276 0 .5.224.5.5s-.224.5-.5.5z"/>
<animate attributeName="display" fill="freeze" repeatCount="1" dur="1s" keyTimes="0;0.84;0.86;1" values="none;inline;none;none"/>
</g>
<g display="none" fill="#fff">
<path d="M0 0v30h30V0H0zm24 22.051c0 .987-.78 1.789-1.755 1.837-.007.281-.074.56-.203.806-.128.246-.433.338-.675.212-.245-.129-.34-.431-.212-.675.063-.121.096-.253.096-.392v-.438c0-.002-.001-.003-.001-.005s.001-.003.001-.005V7.135c0-.466-.379-.846-.846-.846H7.846c-.467 0-.846.379-.846.846V23.84c0 .467.379.846.846.846h12.558c.276 0 .5.224.5.5s-.224.5-.5.5H7.846C6.828 25.686 6 24.857 6 23.84V7.135c0-1.018.828-1.846 1.846-1.846h12.559c1.018 0 1.846.828 1.846 1.846v15.743c.419-.05.749-.395.749-.827V5.346c0-.467-.379-.846-.845-.846H9.596c-.293 0-.561.148-.717.396-.147.234-.454.304-.69.157-.233-.147-.304-.456-.157-.69.341-.54.926-.863 1.564-.863h12.559C23.173 3.5 24 4.328 24 5.346v16.705zm-4.98-5.6H9.174c-.276 0-.5-.224-.5-.5s.224-.5.5-.5h9.846c.276 0 .5.224.5.5s-.224.5-.5.5zm.375 2.581l-3.137 3.66c-.091.106-.223.17-.363.175h-.017c-.134 0-.262-.054-.356-.149l-1.361-1.382c-.193-.196-.191-.513.005-.707.198-.193.513-.191.708.006l.979.994 2.782-3.247c.18-.21.498-.233.705-.055.21.18.234.495.055.705zm-7.065.608c0 .276-.224.5-.5.5H9.174c-.276 0-.5-.224-.5-.5s.224-.5.5-.5h2.656c.276 0 .5.223.5.5zm6.69-6.878H9.174c-.276 0-.5-.224-.5-.5s.224-.5.5-.5h9.846c.276 0 .5.224.5.5s-.224.5-.5.5zm0-3.689H9.174c-.276 0-.5-.224-.5-.5s.224-.5.5-.5h9.846c.276 0 .5.224.5.5s-.224.5-.5.5z"/>
<animate attributeName="display" fill="freeze" repeatCount="1" dur="1s" keyTimes="0;0.86;0.88;1" values="none;inline;none;none"/>
</g>
<g display="none" fill="#fff">
  <path d="M21.25 23.397c0-.002.001-.003.001-.005V7.135c0-.466-.379-.846-.846-.846H7.846c-.467 0-.846.379-.846.846V23.84c0 .467.379.846.846.846h12.558c.137 0 .261.055.351.144.015-.126.076-.246.183-.332.198-.161.312-.401.313-.658v-.437c0-.002-.001-.004-.001-.006zm-9.42-3.257H9.174c-.276 0-.5-.224-.5-.5s.224-.5.5-.5h2.656c.276 0 .5.224.5.5s-.224.5-.5.5zm7.569-1.114l-3.142 3.666c-.091.106-.223.17-.363.175h-.017c-.134 0-.262-.054-.356-.149l-1.361-1.382c-.193-.196-.191-.513.005-.707.198-.193.513-.191.708.006l.979.994 2.787-3.253c.18-.209.497-.234.705-.055.211.18.235.495.055.705zm-.379-2.575H9.174c-.276 0-.5-.224-.5-.5s.224-.5.5-.5h9.846c.276 0 .5.224.5.5s-.224.5-.5.5zm0-3.689H9.174c-.276 0-.5-.224-.5-.5s.224-.5.5-.5h9.846c.276 0 .5.224.5.5s-.224.5-.5.5zm0-3.689H9.174c-.276 0-.5-.224-.5-.5s.224-.5.5-.5h9.846c.276 0 .5.224.5.5s-.224.5-.5.5z"/>
  <path d="M22.155 4.5H9.596c-.382 0-.718.257-.817.624-.016.062-.047.116-.083.165h11.709c1.018 0 1.846.828 1.846 1.846v15.743c.419-.05.749-.395.749-.827V5.346c0-.467-.379-.846-.845-.846z"/>
  <path d="M0 0v30h30V0H0zm24 22.051c0 .987-.78 1.789-1.754 1.837-.015.542-.258 1.045-.679 1.386-.198.161-.486.145-.665-.032-.028.249-.24.443-.497.443H7.846C6.828 25.686 6 24.857 6 23.84V7.135c0-1.018.828-1.846 1.846-1.846h.056c-.088-.119-.13-.271-.089-.425.217-.803.95-1.364 1.783-1.364h12.559C23.173 3.5 24 4.328 24 5.346v16.705z"/>
  <animate attributeName="display" fill="freeze" repeatCount="1" dur="1s" keyTimes="0;0.88;0.9;1" values="none;inline;none;none"/>
</g>
<g display="none" fill="#fff">
  <path d="M22.155 4.5H9.596c-.448 0-.81.346-.84.789h11.65c1.018 0 1.846.828 1.846 1.846v15.743c.418-.05.748-.395.748-.827V5.346c0-.467-.379-.846-.845-.846z"/>
  <path d="M21.25 23.397c0-.002.001-.003.001-.005V7.135c0-.466-.379-.846-.846-.846H7.846c-.467 0-.846.379-.846.846V23.84c0 .467.379.846.846.846h12.558c.062 0 .122.012.178.032.043-.041.095-.075.152-.1.313-.131.516-.437.517-.779v-.437c0-.001-.001-.003-.001-.005zm-9.42-3.257H9.174c-.276 0-.5-.224-.5-.5s.224-.5.5-.5h2.656c.276 0 .5.224.5.5s-.224.5-.5.5zm7.569-1.114l-3.142 3.666c-.091.106-.223.17-.363.175h-.017c-.134 0-.262-.054-.356-.149l-1.361-1.382c-.193-.196-.191-.513.005-.707.198-.193.513-.191.708.006l.979.994 2.787-3.253c.18-.209.497-.234.705-.055.211.18.235.495.055.705zm-.379-2.575H9.174c-.276 0-.5-.224-.5-.5s.224-.5.5-.5h9.846c.276 0 .5.224.5.5s-.224.5-.5.5zm0-3.689H9.174c-.276 0-.5-.224-.5-.5s.224-.5.5-.5h9.846c.276 0 .5.224.5.5s-.224.5-.5.5zm0-3.689H9.174c-.276 0-.5-.224-.5-.5s.224-.5.5-.5h9.846c.276 0 .5.224.5.5s-.224.5-.5.5z"/>
  <path d="M0 0v30h30V0H0zm24 22.051c0 .988-.781 1.79-1.756 1.838-.02.727-.453 1.372-1.123 1.652-.123.051-.254.051-.371.007-.09.086-.212.139-.346.139H7.846C6.828 25.686 6 24.857 6 23.84V7.135c0-.987.781-1.788 1.756-1.837 0-.01-.005-.018-.005-.028.041-.992.851-1.77 1.845-1.77h12.56C23.173 3.5 24 4.328 24 5.346v16.705z"/>
  <animate attributeName="display" fill="freeze" repeatCount="1" dur="1s" keyTimes="0;0.9;0.92;1" values="none;inline;none;none"/>
</g>
<g display="none" fill="#fff">
  <path d="M22.155 4.5H9.596c-.447 0-.804.35-.835.789h11.644c1.018 0 1.846.828 1.846 1.846v15.743c.419-.05.749-.395.749-.827V5.346c0-.467-.379-.846-.845-.846z"/>
  <path d="M21.25 23.397c0-.002.001-.003.001-.005V7.135c0-.466-.379-.846-.846-.846H7.846c-.467 0-.846.379-.846.846V23.84c0 .467.379.846.846.846h12.558c.029 0 .058.003.085.007.026-.01.054-.018.083-.023.393-.078.678-.428.679-.83v-.437c0-.002-.001-.004-.001-.006zm-9.42-3.257H9.174c-.276 0-.5-.224-.5-.5s.224-.5.5-.5h2.656c.276 0 .5.224.5.5s-.224.5-.5.5zm7.569-1.114l-3.142 3.666c-.091.106-.223.17-.363.175h-.017c-.134 0-.262-.054-.356-.149l-1.361-1.382c-.193-.196-.191-.513.005-.707.198-.193.513-.191.708.006l.979.994 2.787-3.253c.18-.209.497-.234.705-.055.211.18.235.495.055.705zm-.379-2.575H9.174c-.276 0-.5-.224-.5-.5s.224-.5.5-.5h9.846c.276 0 .5.224.5.5s-.224.5-.5.5zm0-3.689H9.174c-.276 0-.5-.224-.5-.5s.224-.5.5-.5h9.846c.276 0 .5.224.5.5s-.224.5-.5.5zm0-3.689H9.174c-.276 0-.5-.224-.5-.5s.224-.5.5-.5h9.846c.276 0 .5.224.5.5s-.224.5-.5.5z"/>
  <path d="M0 0v30h30V0H0zm24 22.051c0 .987-.779 1.788-1.753 1.837-.024.857-.637 1.594-1.479 1.761-.061.014-.123.015-.183.003-.057.021-.117.033-.181.033H7.846C6.828 25.686 6 24.857 6 23.84V7.135c0-.986.78-1.788 1.755-1.836.026-.996.84-1.799 1.841-1.799h12.559C23.173 3.5 24 4.328 24 5.346v16.705z"/>
  <animate attributeName="display" fill="freeze" repeatCount="1" dur="1s" keyTimes="0;0.92;0.94;1" values="none;inline;none;none"/>
</g>
<g display="none" fill="#fff">
  <path d="M21.25 23.397c0-.002.001-.003.001-.005V7.135c0-.466-.379-.846-.846-.846H7.846c-.467 0-.846.379-.846.846V23.84c0 .467.379.846.846.846h12.558c.012 0 .022 0 .034.001.013-.002.026-.004.041-.005.439-.037.771-.399.771-.843v-.437c.001-.001 0-.003 0-.005zm-9.42-3.257H9.174c-.276 0-.5-.224-.5-.5s.224-.5.5-.5h2.656c.276 0 .5.224.5.5s-.224.5-.5.5zm7.569-1.114l-3.142 3.666c-.091.106-.223.17-.363.175h-.017c-.134 0-.262-.054-.356-.149l-1.361-1.382c-.193-.196-.191-.513.005-.707.198-.193.513-.191.708.006l.979.994 2.787-3.253c.18-.209.497-.234.705-.055.211.18.235.495.055.705zm-.379-2.575H9.174c-.276 0-.5-.224-.5-.5s.224-.5.5-.5h9.846c.276 0 .5.224.5.5s-.224.5-.5.5zm0-3.689H9.174c-.276 0-.5-.224-.5-.5s.224-.5.5-.5h9.846c.276 0 .5.224.5.5s-.224.5-.5.5zm0-3.689H9.174c-.276 0-.5-.224-.5-.5s.224-.5.5-.5h9.846c.276 0 .5.224.5.5s-.224.5-.5.5z"/>
  <path d="M22.155 4.5H9.596c-.447 0-.804.35-.835.789h11.644c1.018 0 1.846.828 1.846 1.846v15.743c.419-.05.749-.395.749-.827V5.346c0-.467-.379-.846-.845-.846z"/>
  <path d="M0 0v30h30V0H0zm24 22.051c0 .987-.78 1.788-1.754 1.837-.025.944-.738 1.71-1.683 1.79-.023.002-.049.003-.076.001-.026.005-.055.007-.083.007H7.846C6.828 25.686 6 24.857 6 23.84V7.135c0-.986.78-1.788 1.755-1.836.026-.996.84-1.799 1.841-1.799h12.559C23.173 3.5 24 4.328 24 5.346v16.705z"/>
  <animate attributeName="display" fill="freeze" repeatCount="1" dur="1s" keyTimes="0;0.94;0.96;1" values="none;inline;none;none"/>
</g>
<g display="none" fill="#fff">
  <path d="M22.155 4.5H9.596c-.447 0-.804.35-.835.789h11.644c1.018 0 1.846.828 1.846 1.846v15.743c.419-.05.749-.395.749-.827V5.346c0-.467-.379-.846-.845-.846z"/>
  <path d="M21.25 23.397c0-.002.001-.003.001-.005V7.135c0-.466-.379-.846-.846-.846H7.846c-.467 0-.846.379-.846.846V23.84c0 .467.379.846.846.846h12.558c.008 0 .01.002.024 0 .46-.013.821-.385.822-.847v-.437c.001-.001 0-.003 0-.005zm-9.42-3.257H9.174c-.276 0-.5-.224-.5-.5s.224-.5.5-.5h2.656c.276 0 .5.224.5.5s-.224.5-.5.5zm7.569-1.114l-3.142 3.666c-.091.106-.223.17-.363.175h-.017c-.134 0-.262-.054-.356-.149l-1.361-1.382c-.193-.196-.191-.513.005-.707.198-.193.513-.191.708.006l.979.994 2.787-3.253c.18-.209.497-.234.705-.055.211.18.235.495.055.705zm-.379-2.575H9.174c-.276 0-.5-.224-.5-.5s.224-.5.5-.5h9.846c.276 0 .5.224.5.5s-.224.5-.5.5zm0-3.689H9.174c-.276 0-.5-.224-.5-.5s.224-.5.5-.5h9.846c.276 0 .5.224.5.5s-.224.5-.5.5zm0-3.689H9.174c-.276 0-.5-.224-.5-.5s.224-.5.5-.5h9.846c.276 0 .5.224.5.5s-.224.5-.5.5z"/>
  <path d="M0 0v30h30V0H0zm24 22.051c0 .987-.78 1.788-1.754 1.837-.026.984-.802 1.77-1.79 1.797h-.014c-.014-.001-.026-.001-.038 0H7.846C6.828 25.686 6 24.857 6 23.84V7.135c0-.986.78-1.788 1.755-1.836.026-.996.84-1.799 1.841-1.799h12.559C23.173 3.5 24 4.328 24 5.346v16.705z"/>
  <animate attributeName="display" fill="freeze" repeatCount="1" dur="1s" keyTimes="0;0.96;0.98;1" values="none;inline;none;none"/>
</g>
<g display="none" fill="#fff">
  <path d="M21.25 23.397c0-.002.001-.003.001-.005V7.135c0-.466-.379-.846-.846-.846H7.846c-.467 0-.846.379-.846.846V23.84c0 .467.379.846.846.846H20.409c.464-.003.841-.383.842-.847v-.437c0-.001-.001-.003-.001-.005zm-9.42-3.257H9.174c-.276 0-.5-.224-.5-.5s.224-.5.5-.5h2.656c.276 0 .5.224.5.5s-.224.5-.5.5zm7.569-1.114l-3.142 3.666c-.091.106-.223.17-.363.175h-.017c-.134 0-.262-.054-.356-.149l-1.361-1.382c-.193-.196-.191-.513.005-.707.198-.193.513-.191.708.006l.979.994 2.787-3.253c.18-.209.497-.234.705-.055.211.18.235.495.055.705zm-.379-2.575H9.174c-.276 0-.5-.224-.5-.5s.224-.5.5-.5h9.846c.276 0 .5.224.5.5s-.224.5-.5.5zm0-3.689H9.174c-.276 0-.5-.224-.5-.5s.224-.5.5-.5h9.846c.276 0 .5.224.5.5s-.224.5-.5.5zm0-3.689H9.174c-.276 0-.5-.224-.5-.5s.224-.5.5-.5h9.846c.276 0 .5.224.5.5s-.224.5-.5.5z"/>
  <path d="M22.155 4.5H9.596c-.447 0-.804.35-.835.789h11.644c1.018 0 1.846.828 1.846 1.846v15.743c.419-.05.749-.395.749-.827V5.346c0-.467-.379-.846-.845-.846z"/>
  <path d="M0 0v30h30V0H0zm24 22.051c0 .987-.78 1.788-1.754 1.837-.027.989-.837 1.791-1.831 1.797H7.846C6.828 25.686 6 24.857 6 23.84V7.135c0-.986.78-1.788 1.755-1.836.026-.996.84-1.799 1.841-1.799h12.559C23.173 3.5 24 4.328 24 5.346v16.705z"/>
  <animate attributeName="display" fill="freeze" repeatCount="1" dur="1s" keyTimes="0;0.98;0.999;1" values="none;inline;none;none"/>
</g>
<g display="none" fill="#fff">
  <path d="M21.25 23.397c0-.002.001-.003.001-.005V7.135c0-.466-.379-.846-.846-.846H8.255c-.002 0-.003.001-.005.001s-.003-.001-.005-.001h-.399c-.467 0-.846.379-.846.846V23.84c0 .467.379.846.846.846h12.558c.466 0 .846-.38.847-.847v-.437c0-.001-.001-.003-.001-.005zm-9.42-3.257H9.174c-.276 0-.5-.224-.5-.5s.224-.5.5-.5h2.656c.276 0 .5.224.5.5s-.224.5-.5.5zm7.569-1.114l-3.142 3.666c-.091.106-.223.17-.363.175h-.017c-.134 0-.262-.054-.356-.149l-1.361-1.382c-.193-.196-.191-.513.005-.707.198-.193.513-.191.708.006l.979.994 2.787-3.253c.18-.209.497-.234.705-.055.211.18.235.495.055.705zm-.379-2.575H9.174c-.276 0-.5-.224-.5-.5s.224-.5.5-.5h9.846c.276 0 .5.224.5.5s-.224.5-.5.5zm0-3.689H9.174c-.276 0-.5-.224-.5-.5s.224-.5.5-.5h9.846c.276 0 .5.224.5.5s-.224.5-.5.5zm0-3.689H9.174c-.276 0-.5-.224-.5-.5s.224-.5.5-.5h9.846c.276 0 .5.224.5.5s-.224.5-.5.5z"/>
  <path d="M22.155 4.5H9.596c-.447 0-.804.35-.835.789h11.644c1.018 0 1.846.828 1.846 1.846v15.743c.419-.05.749-.395.749-.827V5.346c0-.467-.379-.846-.845-.846z"/>
  <path d="M0 0v30h30V0H0zm24 22.051c0 .987-.78 1.788-1.754 1.837-.027.995-.842 1.797-1.842 1.797H7.846C6.828 25.686 6 24.857 6 23.84V7.135c0-.986.78-1.788 1.755-1.836.026-.996.84-1.799 1.841-1.799h12.559C23.173 3.5 24 4.328 24 5.346v16.705z"/>
  <animate attributeName="display" fill="freeze" repeatCount="1" dur="1s" keyTimes="0;0.999;1" values="none;inline;inline"/>
</g>
</svg>
