<svg xmlns="http://www.w3.org/2000/svg" fill="#fff" viewBox="0 0 30 30" style="background:#89949D">
<g>
  <path d="M0 0v30h30V0H0zm25 25.512H5c-.135 0-.264-.055-.358-.15-.094-.097-.145-.227-.142-.362.003-.128.091-3.152 1.479-4.539.967-.967 5.018-2.394 6.307-2.831v-2.013c-.549-.507-1.108-1.48-1.269-2.575-.371-.268-.542-.863-.542-1.454 0-.565.157-1.005.426-1.256-.329-1.179-.489-2.072-.489-2.721 0-.239.021-.443.065-.623.203-.828.956-1.161 1.519-1.257.412-.654 1.654-1.231 3.346-1.231 2.049 0 3.636.511 4.247 1.367.226.316.341.748.341 1.281 0 .812-.26 1.901-.773 3.241.232.267.367.704.367 1.256 0 .658-.19 1.153-.512 1.39-.097.75-.49 1.847-1.331 2.544v2.063c1.458.502 5.6 1.979 6.366 2.809.91.983 1.453 2.688 1.453 4.561 0 .276-.224.5-.5.5z" />
  <path d="M17.021 18.474c-.203-.068-.34-.259-.34-.474v-2.669c0-.165.081-.319.218-.413.775-.53 1.137-1.644 1.137-2.229 0-.239.167-.438.392-.488.04-.082.097-.273.097-.557s-.057-.475-.097-.557c-.124-.028-.234-.102-.307-.209-.093-.138-.11-.313-.049-.467.562-1.385.858-2.514.858-3.265 0-.316-.054-.558-.154-.699-.338-.471-1.53-.947-3.434-.947-1.62 0-2.422.607-2.505.779 0 .275-.211.421-.487.421-.008 0-.779.033-.901.526-.024.099-.036.229-.036.385 0 .616.19 1.574.565 2.847.044.151.015.315-.079.441s-.243.201-.4.201c.05.004-.023.185-.023.488 0 .296.069.523.119.614.21.048.371.229.386.452.077 1.063.685 2.029 1.094 2.318.133.094.212.246.212.409v2.608c0 .216-.138.407-.343.475-2.051.678-5.563 2.011-6.256 2.704-.758.757-1.06 2.374-1.153 3.344h18.952c-.084-1.407-.518-2.674-1.173-3.382-.491-.53-3.975-1.872-6.293-2.656z" />
  <animate attributeName="display" fill="freeze" repeatCount="1" dur="1s" keyTimes="0;0.02;1" values="inline;none;none" />
</g>
<g>
  <path d="M17.021 18.474c-.203-.068-.34-.259-.34-.474v-2.669c0-.165.081-.319.218-.413.775-.53 1.137-1.644 1.137-2.229 0-.239.167-.438.392-.488.04-.082.097-.273.097-.557s-.057-.475-.097-.557c-.124-.028-.234-.102-.307-.209-.093-.138-.11-.313-.049-.467.562-1.385.858-2.514.858-3.265 0-.316-.054-.558-.154-.699-.338-.471-1.53-.947-3.434-.947-1.62 0-2.422.607-2.505.779 0 .275-.211.421-.487.421-.008 0-.779.033-.901.526-.024.099-.036.229-.036.385 0 .616.19 1.574.565 2.847.044.151.015.315-.079.441s-.243.201-.4.201c.05.004-.023.185-.023.488 0 .296.069.523.119.614.21.048.371.229.386.452.077 1.063.685 2.029 1.094 2.318.133.094.212.246.212.409v2.608c0 .216-.138.407-.343.475-2.051.678-5.563 2.011-6.256 2.704-.812.812-1.071 2.504-1.151 3.344h18.95c-.084-1.407-.518-2.674-1.173-3.382-.491-.53-3.975-1.872-6.293-2.656z" />
  <path d="M0 0v30h30V0H0zm25 25.512H5c-.276 0-.5-.224-.5-.5 0-.015 0-.03.002-.045v-.026c.021-.523.193-3.197 1.477-4.479.967-.967 5.018-2.394 6.307-2.831v-2.013c-.549-.507-1.108-1.48-1.269-2.575-.371-.268-.542-.863-.542-1.454 0-.565.157-1.005.426-1.256-.329-1.179-.489-2.072-.489-2.721 0-.239.021-.443.065-.623.203-.828.956-1.161 1.519-1.257.412-.655 1.654-1.232 3.346-1.232 2.049 0 3.636.511 4.247 1.367.226.316.341.748.341 1.281 0 .812-.26 1.901-.773 3.241.232.267.367.704.367 1.256 0 .658-.19 1.153-.512 1.39-.097.75-.49 1.847-1.331 2.544v2.063c1.458.502 5.6 1.979 6.366 2.809.91.983 1.453 2.688 1.453 4.561 0 .276-.224.5-.5.5z" />
  <animate attributeName="display" fill="freeze" repeatCount="1" dur="1s" keyTimes="0;0.04;0.06;1" values="none;inline;none;none" />
</g>
<g>
  <path d="M0 0v30h30V0H0zm25 25.512H5c-.276 0-.5-.224-.5-.5 0-.031.003-.062.008-.091-.002-.025-.003-.051-.001-.077.039-.723.262-3.173 1.473-4.383.967-.967 5.018-2.394 6.307-2.831v-2.013c-.549-.507-1.108-1.48-1.269-2.575-.371-.268-.542-.863-.542-1.454 0-.565.157-1.005.426-1.256-.329-1.179-.489-2.072-.489-2.721 0-.239.021-.443.065-.623.203-.828.956-1.161 1.519-1.257.411-.654 1.653-1.231 3.345-1.231 2.049 0 3.636.511 4.247 1.367.226.316.341.748.341 1.281 0 .812-.26 1.901-.773 3.241.232.267.367.704.367 1.256 0 .658-.19 1.153-.512 1.39-.097.75-.49 1.847-1.331 2.544v2.063c1.458.502 5.6 1.979 6.366 2.809.91.983 1.453 2.688 1.453 4.561 0 .276-.224.5-.5.5z" />
  <path d="M17.021 18.474c-.203-.068-.34-.259-.34-.474v-2.669c0-.165.081-.319.218-.413.775-.53 1.137-1.644 1.137-2.229 0-.239.167-.438.392-.488.04-.082.097-.273.097-.557s-.057-.475-.097-.557c-.124-.028-.234-.102-.307-.209-.093-.138-.11-.313-.049-.467.562-1.385.858-2.514.858-3.265 0-.316-.054-.558-.154-.699-.338-.471-1.53-.947-3.434-.947-1.62 0-2.422.607-2.505.779 0 .275-.211.421-.487.421-.008 0-.779.033-.901.526-.024.099-.036.229-.036.385 0 .616.19 1.574.565 2.847.044.151.015.315-.079.441s-.243.201-.4.201c.05.004-.023.185-.023.488 0 .296.069.523.119.614.21.048.371.229.386.452.077 1.063.685 2.029 1.094 2.318.133.094.212.246.212.409v2.608c0 .216-.138.407-.343.475-2.051.678-5.563 2.011-6.256 2.704-.813.812-1.072 2.52-1.151 3.344h18.95c-.084-1.407-.518-2.674-1.173-3.382-.491-.53-3.975-1.872-6.293-2.656z" />
  <animate attributeName="display" fill="freeze" repeatCount="1" dur="1s" keyTimes="0;0.06;0.08;1" values="none;inline;none;none" />
</g>
<g>
  <path d="M0 0v30h30V0H0zm25 25.512H5c-.276 0-.5-.224-.5-.5 0-.064.012-.125.034-.182-.014-.053-.02-.108-.016-.166.065-.891.337-3.081 1.461-4.203.967-.967 5.018-2.394 6.307-2.831v-2.013c-.549-.507-1.108-1.48-1.269-2.575-.371-.268-.542-.863-.542-1.454 0-.565.157-1.005.426-1.256-.329-1.179-.489-2.072-.489-2.721 0-.239.021-.443.065-.623.203-.828.956-1.161 1.519-1.257.412-.654 1.654-1.231 3.346-1.231 2.049 0 3.636.511 4.247 1.367.226.316.341.748.341 1.281 0 .812-.26 1.901-.773 3.241.232.267.367.704.367 1.256 0 .658-.19 1.153-.512 1.39-.097.75-.49 1.847-1.331 2.544v2.063c1.458.502 5.6 1.979 6.366 2.809.91.983 1.453 2.688 1.453 4.561 0 .276-.224.5-.5.5z" />
  <path d="M17.021 18.474c-.203-.068-.34-.259-.34-.474v-2.669c0-.165.081-.319.218-.413.775-.53 1.137-1.644 1.137-2.229 0-.239.167-.438.392-.488.04-.082.097-.273.097-.557s-.057-.475-.097-.557c-.124-.028-.234-.102-.307-.209-.093-.138-.11-.313-.049-.467.562-1.385.858-2.514.858-3.265 0-.316-.054-.558-.154-.699-.338-.471-1.53-.947-3.434-.947-1.62 0-2.422.607-2.505.779 0 .275-.211.421-.487.421-.008 0-.779.033-.901.526-.024.099-.036.229-.036.385 0 .616.19 1.574.565 2.847.044.151.015.315-.079.441s-.243.201-.4.201c.05.004-.023.185-.023.488 0 .296.069.523.119.614.21.048.371.229.386.452.077 1.063.685 2.029 1.094 2.318.133.094.212.246.212.409v2.608c0 .216-.138.407-.343.475-2.051.678-5.563 2.011-6.256 2.704-.819.818-1.076 2.56-1.152 3.344h18.951c-.084-1.407-.518-2.674-1.173-3.382-.491-.53-3.975-1.872-6.293-2.656z" />
  <animate attributeName="display" fill="freeze" repeatCount="1" dur="1s" keyTimes="0;0.08;0.1;1" values="none;inline;none;none" />
</g>
<g>
  <path d="M0 0v30h30V0H0zm25 25.512H5c-.276 0-.5-.224-.5-.5 0-.131.05-.249.132-.339-.064-.094-.097-.211-.085-.333.104-1.018.429-2.876 1.433-3.879.967-.967 5.018-2.394 6.307-2.831v-2.013c-.549-.507-1.108-1.48-1.269-2.575-.371-.268-.542-.863-.542-1.454 0-.565.157-1.005.426-1.256-.329-1.179-.489-2.072-.489-2.721 0-.239.021-.443.065-.623.203-.828.956-1.161 1.519-1.257.411-.654 1.653-1.231 3.345-1.231 2.049 0 3.636.511 4.247 1.367.226.316.341.748.341 1.281 0 .812-.26 1.901-.773 3.241.232.267.367.704.367 1.256 0 .658-.19 1.153-.512 1.39-.097.75-.49 1.847-1.331 2.544v2.063c1.458.502 5.6 1.979 6.366 2.809.91.983 1.453 2.688 1.453 4.561 0 .276-.224.5-.5.5z" />
  <path d="M17.021 18.474c-.203-.068-.34-.259-.34-.474v-2.669c0-.165.081-.319.218-.413.775-.53 1.137-1.644 1.137-2.229 0-.239.167-.438.392-.488.04-.082.097-.273.097-.557s-.057-.475-.097-.557c-.124-.028-.234-.102-.307-.209-.093-.138-.11-.313-.049-.467.562-1.385.858-2.514.858-3.265 0-.316-.054-.558-.154-.699-.338-.471-1.53-.947-3.434-.947-1.62 0-2.422.607-2.505.779 0 .275-.211.421-.487.421-.008 0-.779.033-.901.526-.024.099-.036.229-.036.385 0 .616.19 1.574.565 2.847.044.151.015.315-.079.441s-.243.201-.4.201c.05.004-.023.185-.023.488 0 .296.069.523.119.614.21.048.371.229.386.452.077 1.063.685 2.029 1.094 2.318.133.094.212.246.212.409v2.608c0 .216-.138.407-.343.475-2.051.678-5.563 2.011-6.256 2.704-.573.573-.991 1.767-1.145 3.273-.002.024-.007.048-.012.07h18.956c-.084-1.407-.518-2.674-1.173-3.382-.491-.529-3.975-1.871-6.293-2.655z" />
  <animate attributeName="display" fill="freeze" repeatCount="1" dur="1s" keyTimes="0;0.1;0.12;1" values="none;inline;none;none" />
</g>
<g>
  <path d="M0 0v30h30V0H0zm25 25.512H5c-.276 0-.5-.224-.5-.5s.224-.5.5-.5h19.485c-.084-1.407-.518-2.674-1.173-3.382-.489-.53-3.974-1.872-6.292-2.656-.203-.068-.34-.259-.34-.474v-2.669c0-.165.081-.319.218-.413.775-.53 1.137-1.644 1.137-2.229 0-.239.167-.438.392-.488.04-.082.097-.273.097-.557s-.057-.475-.097-.557c-.124-.028-.234-.102-.307-.209-.093-.138-.11-.313-.049-.467.562-1.385.858-2.514.858-3.265 0-.316-.054-.558-.154-.699-.337-.471-1.529-.947-3.433-.947-1.62 0-2.422.607-2.505.779 0 .275-.211.421-.487.421-.008 0-.779.033-.901.526-.024.099-.036.229-.036.385 0 .616.19 1.574.565 2.847.044.151.015.315-.079.441s-.243.201-.4.201c.05.004-.023.185-.023.488 0 .296.069.523.119.614.21.048.371.229.386.452.077 1.063.685 2.029 1.094 2.318.133.094.212.246.212.409v2.608c0 .216-.138.407-.343.475-2.051.678-5.563 2.011-6.256 2.704-.518.518-.906 1.527-1.093 2.846-.039.274-.289.459-.565.425-.273-.039-.463-.292-.425-.565.154-1.083.518-2.555 1.376-3.412.967-.967 5.018-2.394 6.307-2.831v-2.013c-.549-.507-1.108-1.48-1.269-2.575-.371-.268-.542-.863-.542-1.454 0-.565.157-1.005.426-1.256-.329-1.179-.489-2.072-.489-2.721 0-.239.021-.443.065-.623.203-.828.956-1.161 1.519-1.257.41-.655 1.652-1.232 3.344-1.232 2.049 0 3.636.511 4.247 1.367.226.316.341.748.341 1.281 0 .812-.26 1.901-.773 3.241.232.267.367.704.367 1.256 0 .658-.19 1.153-.512 1.39-.097.75-.49 1.847-1.331 2.544v2.063c1.458.502 5.6 1.979 6.366 2.809.91.983 1.453 2.688 1.453 4.561 0 .276-.224.5-.5.5z" />
  <animate attributeName="display" fill="freeze" repeatCount="1" dur="1s" keyTimes="0;0.12;0.14;1" values="none;inline;none;none" />
</g>
<g>
  <path d="M0 0v30h30V0H0zm25 25.512H5c-.276 0-.5-.224-.5-.5s.224-.5.5-.5h19.485c-.084-1.407-.518-2.674-1.173-3.382-.489-.53-3.974-1.872-6.292-2.656-.203-.068-.34-.259-.34-.474v-2.669c0-.165.081-.319.218-.413.775-.53 1.137-1.644 1.137-2.229 0-.239.167-.438.392-.488.04-.082.097-.273.097-.557s-.057-.475-.097-.557c-.124-.028-.234-.102-.307-.209-.093-.138-.11-.313-.049-.467.562-1.385.858-2.514.858-3.265 0-.316-.054-.558-.154-.699-.337-.471-1.529-.947-3.433-.947-1.62 0-2.422.607-2.505.779 0 .275-.211.421-.487.421-.008 0-.779.033-.901.526-.024.099-.036.229-.036.385 0 .616.19 1.574.565 2.847.044.151.015.315-.079.441s-.243.201-.4.201c.05.004-.023.185-.023.488 0 .296.069.523.119.614.21.048.371.229.386.452.077 1.063.685 2.029 1.094 2.318.133.094.212.246.212.409v2.608c0 .216-.138.407-.343.475-2.051.678-5.563 2.011-6.256 2.704-.437.437-.779 1.216-.991 2.254-.055.271-.32.444-.589.391-.271-.056-.445-.319-.39-.59.254-1.249.68-2.178 1.264-2.762.967-.967 5.018-2.394 6.307-2.831v-2.013c-.549-.507-1.108-1.48-1.269-2.575-.371-.268-.542-.863-.542-1.454 0-.565.157-1.005.426-1.256-.329-1.179-.489-2.072-.489-2.721 0-.239.021-.443.065-.623.203-.828.956-1.161 1.519-1.257.409-.654 1.651-1.231 3.343-1.231 2.049 0 3.636.511 4.247 1.367.226.316.341.748.341 1.281 0 .812-.26 1.901-.773 3.241.232.267.367.704.367 1.256 0 .658-.19 1.153-.512 1.39-.097.75-.49 1.847-1.331 2.544v2.063c1.458.502 5.6 1.979 6.366 2.809.91.983 1.453 2.688 1.453 4.561 0 .276-.224.5-.5.5z" />
  <animate attributeName="display" fill="freeze" repeatCount="1" dur="1s" keyTimes="0;0.14;0.16;1" values="none;inline;none;none" />
</g>
<g>
  <path d="M0 0v30h30V0H0zm25 25.512H5c-.276 0-.5-.224-.5-.5s.224-.5.5-.5h19.485c-.084-1.407-.518-2.674-1.173-3.382-.489-.53-3.974-1.872-6.292-2.656-.203-.068-.34-.259-.34-.474v-2.669c0-.165.081-.319.218-.413.775-.53 1.137-1.644 1.137-2.229 0-.239.167-.438.392-.488.04-.082.097-.273.097-.557s-.057-.475-.097-.557c-.124-.028-.234-.102-.307-.209-.093-.138-.11-.313-.049-.467.562-1.385.858-2.514.858-3.265 0-.316-.054-.558-.154-.699-.337-.471-1.529-.947-3.433-.947-1.62 0-2.422.607-2.505.779 0 .275-.211.421-.487.421-.008 0-.779.033-.901.526-.024.099-.036.229-.036.385 0 .616.19 1.574.565 2.847.044.151.015.315-.079.441s-.243.201-.4.201c.05.004-.023.185-.023.488 0 .296.069.523.119.614.21.048.371.229.386.452.077 1.063.685 2.029 1.094 2.318.133.094.212.246.212.409v2.608c0 .216-.138.407-.343.475-2.051.678-5.563 2.011-6.256 2.704-.324.324-.593.828-.8 1.497-.082.264-.362.413-.625.33-.264-.081-.412-.361-.33-.625.255-.826.607-1.468 1.048-1.909.967-.967 5.018-2.394 6.307-2.831v-2.013c-.549-.507-1.108-1.48-1.269-2.575-.371-.268-.542-.863-.542-1.454 0-.565.157-1.005.426-1.256-.329-1.179-.489-2.072-.489-2.721 0-.239.021-.443.065-.623.203-.828.956-1.161 1.519-1.257.41-.654 1.652-1.231 3.344-1.231 2.049 0 3.636.511 4.247 1.367.226.316.341.748.341 1.281 0 .812-.26 1.901-.773 3.241.232.267.367.704.367 1.256 0 .658-.19 1.153-.512 1.39-.097.75-.49 1.847-1.331 2.544v2.063c1.458.502 5.6 1.979 6.366 2.809.91.983 1.453 2.688 1.453 4.561 0 .276-.224.5-.5.5z" />
  <animate attributeName="display" fill="freeze" repeatCount="1" dur="1s" keyTimes="0;0.16;0.18;1" values="none;inline;none;none" />
</g>
<g>
  <path d="M0 0v30h30V0H0zm25 25.512H5c-.276 0-.5-.224-.5-.5s.224-.5.5-.5h19.485c-.084-1.407-.518-2.674-1.173-3.382-.489-.53-3.974-1.872-6.292-2.656-.203-.068-.34-.259-.34-.474v-2.669c0-.165.081-.319.218-.413.775-.53 1.137-1.644 1.137-2.229 0-.239.167-.438.392-.488.04-.082.097-.273.097-.557s-.057-.475-.097-.557c-.124-.028-.234-.102-.307-.209-.093-.138-.11-.313-.049-.467.562-1.385.858-2.514.858-3.265 0-.316-.054-.558-.154-.699-.337-.471-1.529-.947-3.433-.947-1.62 0-2.422.607-2.505.779 0 .275-.211.421-.487.421-.008 0-.779.033-.901.526-.024.099-.036.229-.036.385 0 .616.19 1.574.565 2.847.044.151.015.315-.079.441s-.243.201-.4.201c.05.004-.023.185-.023.488 0 .296.069.523.119.614.21.048.371.229.386.452.077 1.063.685 2.029 1.094 2.318.133.094.212.246.212.409v2.608c0 .216-.138.407-.343.475-2.051.678-5.563 2.011-6.256 2.704-.155.155-.301.356-.432.599-.132.242-.436.332-.678.2s-.333-.436-.201-.679c.178-.326.381-.604.604-.827.967-.968 5.018-2.394 6.306-2.831v-2.013c-.549-.507-1.108-1.48-1.269-2.575-.371-.268-.542-.863-.542-1.454 0-.565.157-1.005.426-1.256-.329-1.179-.489-2.072-.489-2.721 0-.239.021-.443.065-.623.203-.828.956-1.161 1.519-1.257.411-.654 1.653-1.231 3.345-1.231 2.049 0 3.636.511 4.247 1.367.226.316.341.748.341 1.281 0 .812-.26 1.901-.773 3.241.232.267.367.704.367 1.256 0 .658-.19 1.153-.512 1.39-.097.75-.49 1.847-1.331 2.544v2.063c1.458.502 5.6 1.979 6.366 2.809.91.983 1.453 2.688 1.453 4.561 0 .276-.224.5-.5.5z" />
  <animate attributeName="display" fill="freeze" repeatCount="1" dur="1s" keyTimes="0;0.18;0.2;1" values="none;inline;none;none" />
</g>
<g>
  <path d="M0 0v30h30V0H0zm25 25.512H5c-.276 0-.5-.224-.5-.5s.224-.5.5-.5h19.485c-.084-1.407-.518-2.674-1.173-3.382-.489-.53-3.974-1.872-6.292-2.656-.203-.068-.34-.259-.34-.474v-2.669c0-.165.081-.319.218-.413.775-.53 1.137-1.644 1.137-2.229 0-.239.167-.438.392-.488.04-.082.097-.273.097-.557s-.057-.475-.097-.557c-.124-.028-.234-.102-.307-.209-.093-.138-.11-.313-.049-.467.562-1.385.858-2.514.858-3.265 0-.316-.054-.558-.154-.699-.337-.471-1.529-.947-3.433-.947-1.62 0-2.422.607-2.505.779 0 .275-.211.421-.487.421-.008 0-.779.033-.901.526-.024.099-.036.229-.036.385 0 .616.19 1.574.565 2.847.044.151.015.315-.079.441s-.243.201-.4.201c.05.004-.023.185-.023.488 0 .296.069.523.119.614.21.048.371.229.386.452.077 1.063.685 2.029 1.094 2.318.133.094.212.246.212.409v2.608c0 .077-.018.154-.053.224-.059.118-.182.215-.308.257-2.077.695-4.884 1.762-5.957 2.479-.231.152-.541.091-.694-.139s-.091-.54.138-.693c1.341-.895 4.658-2.07 5.873-2.485v-2.014c-.549-.507-1.108-1.48-1.269-2.575-.371-.268-.542-.863-.542-1.454 0-.565.157-1.005.426-1.256-.329-1.179-.489-2.072-.489-2.721 0-.239.021-.443.065-.623.203-.828.956-1.161 1.519-1.257.412-.655 1.654-1.232 3.346-1.232 2.049 0 3.636.511 4.247 1.367.226.316.341.748.341 1.281 0 .812-.26 1.901-.773 3.241.232.267.367.704.367 1.256 0 .658-.19 1.153-.512 1.39-.097.75-.49 1.847-1.331 2.544v2.063c1.458.502 5.6 1.979 6.366 2.809.91.983 1.453 2.688 1.453 4.561 0 .276-.224.5-.5.5z" />
  <animate attributeName="display" fill="freeze" repeatCount="1" dur="1s" keyTimes="0;0.2;0.22;1" values="none;inline;none;none" />
</g>
<g>
  <path d="M0 0v30h30V0H0zm25 25.512H5c-.276 0-.5-.224-.5-.5s.224-.5.5-.5h19.485c-.084-1.407-.518-2.674-1.173-3.382-.489-.53-3.974-1.872-6.292-2.656-.203-.068-.34-.259-.34-.474v-2.669c0-.165.081-.319.218-.413.775-.53 1.137-1.644 1.137-2.229 0-.239.167-.438.392-.488.04-.082.097-.273.097-.557s-.057-.475-.097-.557c-.124-.028-.234-.102-.307-.209-.093-.138-.11-.313-.049-.467.562-1.385.858-2.514.858-3.265 0-.316-.054-.558-.154-.699-.337-.471-1.529-.947-3.433-.947-1.62 0-2.422.607-2.505.779 0 .275-.211.421-.487.421-.008 0-.779.033-.901.526-.024.099-.036.229-.036.385 0 .616.19 1.574.565 2.847.044.151.015.315-.079.441s-.243.201-.4.201c.05.004-.023.185-.023.488 0 .296.069.523.119.614.21.048.371.229.386.452.077 1.063.685 2.029 1.094 2.318.133.094.212.246.212.409v2.608c0 .188-.105.36-.273.445-.025.014-.052.024-.079.032-.094.031-2.693.894-4.583 1.753-.254.114-.548.003-.662-.248s-.003-.548.248-.662c.036-.017 2.908-1.267 4.35-1.655v-2.038c-.549-.507-1.108-1.48-1.269-2.575-.371-.268-.542-.863-.542-1.454 0-.565.157-1.005.426-1.256-.329-1.179-.489-2.072-.489-2.721 0-.239.021-.443.065-.623.203-.828.956-1.161 1.519-1.257.41-.653 1.652-1.23 3.344-1.23 2.049 0 3.636.511 4.247 1.367.226.316.341.748.341 1.281 0 .812-.26 1.901-.773 3.241.232.267.367.704.367 1.256 0 .658-.19 1.153-.512 1.39-.097.75-.49 1.847-1.331 2.544v2.063c1.458.502 5.6 1.979 6.366 2.809.91.983 1.453 2.688 1.453 4.561 0 .276-.224.5-.5.5z" />
  <animate attributeName="display" fill="freeze" repeatCount="1" dur="1s" keyTimes="0;0.22;0.24;1" values="none;inline;none;none" />
</g>
<g>
  <path d="M0 0v30h30V0H0zm25 25.512H5c-.276 0-.5-.224-.5-.5s.224-.5.5-.5h19.485c-.084-1.407-.518-2.674-1.173-3.382-.489-.53-3.974-1.872-6.292-2.656-.203-.068-.34-.259-.34-.474v-2.669c0-.165.081-.319.218-.413.775-.53 1.137-1.644 1.137-2.229 0-.239.167-.438.392-.488.04-.082.097-.273.097-.557s-.057-.475-.097-.557c-.124-.028-.234-.102-.307-.209-.093-.138-.11-.313-.049-.467.562-1.385.858-2.514.858-3.265 0-.316-.054-.558-.154-.699-.337-.471-1.529-.947-3.433-.947-1.62 0-2.422.607-2.505.779 0 .275-.211.421-.487.421-.008 0-.779.033-.901.526-.024.099-.036.229-.036.385 0 .616.19 1.574.565 2.847.044.151.015.315-.079.441s-.243.201-.4.201c.05.004-.023.185-.023.488 0 .296.069.523.119.614.21.048.371.229.386.452.077 1.063.685 2.029 1.094 2.318.133.094.212.246.212.409v2.608c0 .215-.177.419-.381.487-.541.183-1.62.554-2.768 1-.257.101-.548-.026-.648-.285-.1-.257.028-.547.285-.646.982-.382 1.914-.71 2.511-.914v-2.014c-.549-.507-1.108-1.48-1.269-2.575-.371-.268-.542-.863-.542-1.454 0-.565.157-1.005.426-1.256-.329-1.179-.489-2.072-.489-2.721 0-.239.021-.443.065-.623.203-.828.956-1.161 1.519-1.257.412-.654 1.654-1.231 3.346-1.231 2.049 0 3.636.511 4.247 1.367.226.316.341.748.341 1.281 0 .812-.26 1.901-.773 3.241.232.267.367.704.367 1.256 0 .658-.19 1.153-.512 1.39-.097.75-.49 1.847-1.331 2.544v2.063c1.458.502 5.6 1.979 6.366 2.809.91.983 1.453 2.688 1.453 4.561 0 .276-.224.5-.5.5z" />
  <animate attributeName="display" fill="freeze" repeatCount="1" dur="1s" keyTimes="0;0.24;0.26;1" values="none;inline;none;none" />
</g>
<g>
  <path d="M0 0v30h30V0H0zm25 25.512H5c-.276 0-.5-.224-.5-.5s.224-.5.5-.5h19.485c-.084-1.407-.518-2.674-1.173-3.382-.489-.53-3.974-1.872-6.292-2.656-.203-.068-.34-.259-.34-.474v-2.669c0-.165.081-.319.218-.413.775-.53 1.137-1.644 1.137-2.229 0-.239.167-.438.392-.488.04-.082.097-.273.097-.557s-.057-.475-.097-.557c-.124-.028-.234-.102-.307-.209-.093-.138-.11-.313-.049-.467.562-1.385.858-2.514.858-3.265 0-.316-.054-.558-.154-.699-.337-.471-1.529-.947-3.433-.947-1.62 0-2.422.607-2.505.779 0 .275-.211.421-.487.421-.008 0-.779.033-.901.526-.024.099-.036.229-.036.385 0 .616.19 1.574.565 2.847.044.151.015.315-.079.441s-.243.201-.4.201c.05.004-.023.185-.023.488 0 .296.069.523.119.614.21.048.371.229.386.452.077 1.063.685 2.029 1.094 2.318.133.094.212.246.212.409v2.608c0 .216-.138.407-.343.475-.002.001-.25.083-.649.222-.262.089-.546-.048-.636-.309-.091-.261.047-.546.308-.637.121-.042.229-.079.32-.11v-2.013c-.549-.507-1.108-1.48-1.269-2.575-.371-.268-.542-.863-.542-1.454 0-.565.157-1.005.426-1.256-.329-1.179-.489-2.072-.489-2.721 0-.239.021-.443.065-.623.203-.828.956-1.161 1.519-1.257.411-.654 1.653-1.231 3.345-1.231 2.049 0 3.636.511 4.247 1.367.226.316.341.748.341 1.281 0 .812-.26 1.901-.773 3.241.232.267.367.704.367 1.256 0 .658-.19 1.153-.512 1.39-.097.75-.49 1.847-1.331 2.544v2.063c1.458.502 5.6 1.979 6.366 2.809.91.983 1.453 2.688 1.453 4.561 0 .276-.224.5-.5.5z" />
  <animate attributeName="display" fill="freeze" repeatCount="1" dur="1s" keyTimes="0;0.26;0.28;1" values="none;inline;none;none" />
</g>
<g>
  <path d="M0 0v30h30V0H0zm25 25.512H5c-.276 0-.5-.224-.5-.5s.224-.5.5-.5h19.485c-.084-1.407-.518-2.674-1.173-3.382-.489-.53-3.974-1.872-6.292-2.656-.203-.068-.34-.259-.34-.474v-2.669c0-.165.081-.319.218-.413.775-.53 1.137-1.644 1.137-2.229 0-.239.167-.438.392-.488.04-.082.097-.273.097-.557s-.057-.475-.097-.557c-.124-.028-.234-.102-.307-.209-.093-.138-.11-.313-.049-.467.562-1.385.858-2.514.858-3.265 0-.316-.054-.558-.154-.699-.337-.471-1.529-.947-3.433-.947-1.62 0-2.422.607-2.505.779 0 .275-.211.421-.487.421-.008 0-.779.033-.901.526-.024.099-.036.229-.036.385 0 .616.19 1.574.565 2.847.044.151.015.315-.079.441s-.243.201-.4.201c.05.004-.023.185-.023.488 0 .296.069.523.119.614.21.048.371.229.386.452.077 1.063.685 2.029 1.094 2.318.133.094.212.246.212.409v.587c0 .276-.224.5-.5.5s-.5-.224-.5-.5v-.352c-.549-.507-1.108-1.48-1.269-2.575-.371-.268-.542-.863-.542-1.454 0-.565.157-1.005.426-1.256-.329-1.179-.489-2.072-.489-2.721 0-.239.021-.443.065-.623.203-.828.956-1.161 1.519-1.257.411-.653 1.653-1.23 3.345-1.23 2.049 0 3.636.511 4.247 1.367.226.316.341.748.341 1.281 0 .812-.26 1.901-.773 3.241.232.267.367.704.367 1.256 0 .658-.19 1.153-.512 1.39-.097.75-.49 1.847-1.331 2.544v2.063c1.458.502 5.6 1.979 6.366 2.809.91.983 1.453 2.688 1.453 4.561 0 .276-.224.5-.5.5z" />
  <animate attributeName="display" fill="freeze" repeatCount="1" dur="1s" keyTimes="0;0.28;0.3;1" values="none;inline;none;none" />
</g>
<g>
  <path d="M0 0v30h30V0H0zm25 25.512H5c-.276 0-.5-.224-.5-.5s.224-.5.5-.5h19.485c-.084-1.407-.518-2.674-1.173-3.382-.489-.53-3.974-1.872-6.292-2.656-.203-.068-.34-.259-.34-.474v-2.669c0-.165.081-.319.218-.413.775-.53 1.137-1.644 1.137-2.229 0-.239.167-.438.392-.488.04-.082.097-.273.097-.557s-.057-.475-.097-.557c-.124-.028-.234-.102-.307-.209-.093-.138-.11-.313-.049-.467.562-1.385.858-2.514.858-3.265 0-.316-.054-.558-.154-.699-.337-.471-1.529-.947-3.433-.947-1.62 0-2.422.607-2.505.779 0 .275-.211.421-.487.421-.008 0-.779.033-.901.526-.024.099-.036.229-.036.385 0 .616.19 1.574.565 2.847.044.151.015.315-.079.441s-.243.201-.4.201c.05.004-.023.185-.023.488 0 .296.069.523.119.614.21.048.371.229.387.453.01.155.033.308.065.459.058.27-.114.536-.384.593-.272.057-.536-.114-.593-.384-.02-.093-.037-.188-.051-.282-.371-.269-.542-.863-.542-1.454 0-.565.157-1.005.426-1.256-.329-1.179-.489-2.072-.489-2.721 0-.239.021-.443.065-.623.203-.828.956-1.161 1.519-1.257.41-.653 1.652-1.23 3.344-1.23 2.049 0 3.636.511 4.247 1.367.226.316.341.748.341 1.281 0 .812-.26 1.901-.773 3.241.232.267.367.704.367 1.256 0 .658-.19 1.153-.512 1.39-.097.75-.49 1.847-1.331 2.544v2.063c1.458.502 5.6 1.979 6.366 2.809.91.983 1.453 2.688 1.453 4.561 0 .276-.224.5-.5.5z" />
  <animate attributeName="display" fill="freeze" repeatCount="1" dur="1s" keyTimes="0;0.3;0.32;1" values="none;inline;none;none" />
</g>
<g>
  <path d="M0 0v30h30V0H0zm25 25.512H5c-.276 0-.5-.224-.5-.5s.224-.5.5-.5h19.485c-.084-1.407-.518-2.674-1.173-3.382-.489-.53-3.974-1.872-6.292-2.656-.203-.068-.34-.259-.34-.474v-2.669c0-.165.081-.319.218-.413.775-.53 1.137-1.644 1.137-2.229 0-.239.167-.438.392-.488.04-.082.097-.273.097-.557s-.057-.475-.097-.557c-.124-.028-.234-.102-.307-.209-.093-.138-.11-.313-.049-.467.562-1.385.858-2.514.858-3.265 0-.316-.054-.558-.154-.699-.337-.471-1.529-.947-3.433-.947-1.62 0-2.422.607-2.505.779 0 .275-.211.421-.487.421-.008 0-.779.033-.901.526-.024.099-.036.229-.036.385 0 .542.146 1.347.435 2.391.074.266-.083.542-.349.615-.262.073-.542-.082-.615-.349-.317-1.147-.471-2.016-.471-2.657 0-.239.021-.443.065-.623.203-.828.956-1.161 1.519-1.257.411-.654 1.653-1.231 3.345-1.231 2.049 0 3.636.511 4.247 1.367.226.316.341.748.341 1.281 0 .812-.26 1.901-.773 3.241.232.267.367.704.367 1.256 0 .658-.19 1.153-.512 1.39-.097.75-.49 1.847-1.331 2.544v2.063c1.458.502 5.6 1.979 6.366 2.809.91.983 1.453 2.688 1.453 4.561 0 .276-.224.5-.5.5z" />
  <animate attributeName="display" fill="freeze" repeatCount="1" dur="1s" keyTimes="0;0.32;0.34;1" values="none;inline;none;none" />
</g>
<g>
  <path d="M0 0v30h30V0H0zm25 25.512H5c-.276 0-.5-.224-.5-.5s.224-.5.5-.5h19.485c-.084-1.407-.518-2.674-1.173-3.382-.489-.53-3.974-1.872-6.292-2.656-.203-.068-.34-.259-.34-.474v-2.669c0-.165.081-.319.218-.413.775-.53 1.137-1.644 1.137-2.229 0-.239.167-.438.392-.488.04-.082.097-.273.097-.557s-.057-.475-.097-.557c-.124-.028-.234-.102-.307-.209-.093-.138-.11-.313-.049-.467.562-1.385.858-2.514.858-3.265 0-.316-.054-.558-.154-.699-.337-.471-1.529-.947-3.433-.947-1.62 0-2.422.607-2.505.779 0 .133-.046.221-.141.315-.094.094-.214.11-.349.106-.06 0-.332.024-.567.145-.247.125-.547.027-.672-.218-.125-.246-.028-.547.218-.672.228-.116.468-.183.668-.219.41-.657 1.653-1.236 3.348-1.236 2.049 0 3.636.511 4.247 1.367.226.316.341.748.341 1.281 0 .812-.26 1.901-.773 3.241.232.267.367.704.367 1.256 0 .658-.19 1.153-.512 1.39-.097.75-.49 1.847-1.331 2.544v2.063c1.458.502 5.6 1.979 6.366 2.809.91.983 1.453 2.688 1.453 4.561 0 .276-.224.5-.5.5z" />
  <animate attributeName="display" fill="freeze" repeatCount="1" dur="1s" keyTimes="0;0.34;0.36;1" values="none;inline;none;none" />
</g>
<g>
  <path d="M0 0v30h30V0H0zm25 25.512H5c-.276 0-.5-.224-.5-.5s.224-.5.5-.5h19.485c-.084-1.407-.518-2.674-1.173-3.382-.489-.53-3.974-1.872-6.292-2.656-.203-.068-.34-.259-.34-.474v-2.669c0-.165.081-.319.218-.413.775-.53 1.137-1.644 1.137-2.229 0-.239.167-.438.392-.488.04-.082.097-.273.097-.557s-.057-.475-.097-.557c-.124-.028-.234-.102-.307-.209-.093-.138-.11-.313-.049-.467.562-1.385.858-2.514.858-3.265 0-.316-.054-.558-.154-.699-.289-.404-1.283-.894-3.134-.944-.276-.008-.494-.237-.486-.514.007-.276.243-.487.514-.486 1.909.052 3.338.548 3.92 1.362.226.316.341.748.341 1.281 0 .812-.26 1.901-.773 3.241.232.267.367.704.367 1.256 0 .658-.19 1.153-.512 1.39-.097.75-.49 1.847-1.331 2.544v2.063c1.458.502 5.6 1.979 6.366 2.809.91.983 1.453 2.688 1.453 4.561 0 .278-.224.502-.5.502z" />
  <animate attributeName="display" fill="freeze" repeatCount="1" dur="1s" keyTimes="0;0.36;0.38;1" values="none;inline;none;none" />
</g>
<g>
  <path d="M0 0v30h30V0H0zm25 25.512H5c-.276 0-.5-.224-.5-.5s.224-.5.5-.5h19.485c-.084-1.407-.518-2.674-1.173-3.382-.489-.53-3.974-1.872-6.292-2.656-.203-.068-.34-.259-.34-.474v-2.669c0-.165.081-.319.218-.413.775-.53 1.137-1.644 1.137-2.229 0-.239.167-.438.392-.488.04-.082.097-.273.097-.557s-.057-.475-.097-.557c-.124-.028-.234-.102-.307-.209-.093-.138-.11-.313-.048-.467.512-1.262.806-2.323.852-3.069.016-.276.249-.485.529-.469.275.017.485.254.469.529-.048.781-.305 1.784-.766 2.986.232.266.367.704.367 1.256 0 .658-.19 1.153-.512 1.39-.097.75-.49 1.847-1.331 2.544v2.063c1.458.502 5.6 1.979 6.366 2.809.91.983 1.453 2.688 1.453 4.561.001.277-.223.501-.499.501z" />
  <animate attributeName="display" fill="freeze" repeatCount="1" dur="1s" keyTimes="0;0.38;0.4;1" values="none;inline;none;none" />
</g>
<g>
  <path d="M0 0v30h30V0H0zm25 25.512H5c-.276 0-.5-.224-.5-.5s.224-.5.5-.5h19.485c-.084-1.407-.518-2.674-1.173-3.382-.489-.53-3.974-1.872-6.292-2.656-.203-.068-.34-.259-.34-.474v-2.669c0-.165.081-.319.218-.413.775-.53 1.137-1.644 1.137-2.229 0-.249.182-.456.42-.494.205-.143.489-.114.659.077.184.206.166.522-.04.706-.021.018-.041.035-.062.051-.095.75-.488 1.85-1.331 2.549v2.063c1.458.502 5.6 1.979 6.366 2.809.91.983 1.453 2.688 1.453 4.561 0 .277-.224.501-.5.501z" />
  <animate attributeName="display" fill="freeze" repeatCount="1" dur="1s" keyTimes="0;0.4;0.42;1" values="none;inline;none;none" />
</g>
<g>
  <path d="M0 0v30h30V0H0zm25 25.512H5c-.276 0-.5-.224-.5-.5s.224-.5.5-.5h19.485c-.084-1.407-.518-2.674-1.173-3.382-.391-.424-2.818-1.456-6.039-2.569-.261-.09-.399-.375-.31-.636.09-.26.377-.399.636-.31 2.101.726 5.73 2.06 6.447 2.836.91.983 1.453 2.688 1.453 4.561.001.276-.223.5-.499.5z" />
  <animate attributeName="display" fill="freeze" repeatCount="1" dur="1s" keyTimes="0;0.42;0.44;1" values="none;inline;none;none" />
</g>
<g>
  <path d="M0 0v30h30V0H0zm25 25.512H5c-.276 0-.5-.224-.5-.5s.224-.5.5-.5h19.485c-.083-1.393-.511-2.651-1.155-3.363-.186-.205-.17-.521.034-.706.204-.185.521-.169.706.034.896.987 1.43 2.683 1.43 4.535 0 .276-.224.5-.5.5z" />
  <animate attributeName="display" fill="freeze" repeatCount="1" dur="1s" keyTimes="0;0.44;0.46;1" values="none;inline;none;none" />
</g>
<g>
  <path d="M0 0v30h30V0H0zm21.977 25.512H5c-.276 0-.5-.224-.5-.5s.224-.5.5-.5h16.977c.276 0 .5.224.5.5s-.224.5-.5.5z" />
  <animate attributeName="display" fill="freeze" repeatCount="1" dur="1s" keyTimes="0;0.46;0.48;1" values="none;inline;none;none" />
</g>
<g>
  <path d="M0 0v30h30V0H0zm13.777 25.512H5c-.276 0-.5-.224-.5-.5s.224-.5.5-.5h8.777c.276 0 .5.224.5.5s-.224.5-.5.5z" />
  <animate attributeName="display" fill="freeze" repeatCount="1" dur="1s" keyTimes="0;0.48;0.5;1" values="none;inline;none;none" />
</g>
<g>
  <rect width="30" height="30" />
  <animate attributeName="display" fill="freeze" repeatCount="1" dur="1s" keyTimes="0;0.5;0.52;1" values="none;inline;none;none" />
</g>
<g>
  <path d="M0 0v30h30V0H0zm10.461 19.353c-2.854 1.086-3.59 1.632-3.774 1.815-.917.916-1.168 3.094-1.187 3.855-.007.272-.229.488-.5.488h-.012c-.276-.006-.494-.236-.488-.511.003-.128.091-3.152 1.479-4.539.189-.188.763-.764 4.126-2.043.26-.099.546.031.645.289.099.258-.031.547-.289.646z" />
  <animate attributeName="display" fill="freeze" repeatCount="1" dur="1s" keyTimes="0;0.52;0.54;1" values="none;inline;none;none" />
</g>
<g>
  <path d="M0 0v30h30V0H0zm13.286 17.989c0 .216-.138.407-.343.475-2.051.678-5.563 2.011-6.256 2.704-.917.916-1.168 3.094-1.187 3.856-.007.271-.229.487-.5.487h-.012c-.276-.006-.494-.236-.488-.511.003-.128.091-3.152 1.479-4.539.967-.967 5.018-2.394 6.307-2.831v-2.013c-.58-.532-1.166-1.573-1.291-2.75-.029-.274.17-.521.444-.55.28-.027.521.17.55.444.103.965.643 1.899 1.084 2.21.133.094.212.246.212.409v2.609z" />
  <animate attributeName="display" fill="freeze" repeatCount="1" dur="1s" keyTimes="0;0.54;0.56;1" values="none;inline;none;none" />
</g>
<g>
  <path d="M0 0v30h30V0H0zm13.286 17.989c0 .216-.138.407-.343.475-2.051.678-5.563 2.011-6.256 2.704-.917.916-1.168 3.094-1.187 3.856-.007.271-.229.487-.5.487h-.012c-.276-.006-.494-.236-.488-.511.003-.128.091-3.152 1.479-4.539.967-.967 5.018-2.394 6.307-2.831v-2.013c-.549-.507-1.108-1.48-1.269-2.575-.371-.268-.542-.863-.542-1.454 0-.565.157-1.005.426-1.256-.329-1.179-.489-2.072-.489-2.721 0-.239.021-.443.065-.623.141-.575.583-.998 1.244-1.189.265-.079.542.076.619.341s-.074.543-.34.62c-.312.091-.497.248-.55.466-.024.099-.037.229-.037.385 0 .616.19 1.574.565 2.847.044.151.015.315-.079.441s-.243.201-.4.201c.05.004-.023.185-.023.488 0 .296.069.523.119.614.21.048.371.229.386.452.077 1.063.685 2.029 1.094 2.318.133.094.212.246.212.409v2.608z" />
  <animate attributeName="display" fill="freeze" repeatCount="1" dur="1s" keyTimes="0;0.56;0.58;1" values="none;inline;none;none" />
</g>
<g>
  <path d="M0 0v30h30V0H0zm18.688 5.67c-.106.255-.4.372-.655.266-.47-.199-1.317-.436-2.691-.436-1.62 0-2.422.607-2.505.779 0 .275-.211.421-.487.421-.008 0-.779.033-.901.526-.024.099-.036.229-.036.385 0 .616.19 1.574.565 2.847.044.151.015.315-.079.441s-.243.201-.4.201c.05.004-.023.185-.023.488 0 .296.069.523.119.614.21.048.371.229.386.452.077 1.063.685 2.029 1.094 2.318.133.094.212.246.212.409v2.608c0 .216-.138.407-.343.475-2.051.678-5.563 2.011-6.256 2.704-.918.916-1.169 3.094-1.188 3.856-.007.271-.229.487-.5.487h-.012c-.276-.006-.494-.236-.488-.511.003-.128.091-3.152 1.479-4.539.967-.967 5.018-2.394 6.307-2.831v-2.013c-.549-.507-1.108-1.48-1.269-2.575-.371-.268-.542-.863-.542-1.454 0-.565.157-1.005.426-1.256-.329-1.179-.489-2.072-.489-2.721 0-.239.021-.443.065-.623.203-.828.956-1.161 1.519-1.257.412-.654 1.654-1.231 3.346-1.231 1.22 0 2.285.178 3.081.515.254.108.373.401.265.655z" />
  <animate attributeName="display" fill="freeze" repeatCount="1" dur="1s" keyTimes="0;0.58;0.6;1" values="none;inline;none;none" />
</g>
<g>
  <path d="M0 0v30h30V0H0zm19.296 10.595c.133.242.044.546-.198.679-.236.128-.535.047-.672-.186-.123-.027-.233-.101-.306-.208-.093-.138-.11-.313-.049-.467.562-1.385.858-2.514.858-3.265 0-.316-.054-.558-.154-.699-.337-.473-1.529-.949-3.433-.949-1.62 0-2.422.607-2.505.779 0 .275-.211.421-.487.421-.008 0-.779.033-.901.526-.024.099-.036.229-.036.385 0 .616.19 1.574.565 2.847.045.151.015.315-.079.441s-.243.201-.4.201c.05.004-.023.185-.023.488 0 .296.069.523.119.614.21.048.371.229.386.452.077 1.063.685 2.029 1.094 2.318.133.094.212.246.212.409v2.608c0 .216-.138.407-.343.475-2.051.678-5.563 2.011-6.256 2.704-.918.916-1.169 3.094-1.188 3.856-.007.271-.229.487-.5.487h-.012c-.276-.006-.494-.236-.488-.511.003-.128.091-3.152 1.479-4.539.967-.967 5.018-2.394 6.307-2.831v-2.013c-.549-.507-1.108-1.48-1.269-2.575-.371-.268-.542-.863-.542-1.454 0-.565.157-1.005.426-1.256-.329-1.179-.489-2.072-.489-2.721 0-.239.021-.443.065-.623.203-.828.956-1.161 1.519-1.257.412-.654 1.654-1.231 3.346-1.231 2.049 0 3.636.511 4.247 1.367.226.316.341.748.341 1.281 0 .812-.261 1.903-.775 3.245.052.059.099.127.141.202z" />
  <animate attributeName="display" fill="freeze" repeatCount="1" dur="1s" keyTimes="0;0.6;0.62;1" values="none;inline;none;none" />
</g>
<g>
  <path d="M0 0v30h30V0H0zm19.523 11.645c0 .658-.19 1.153-.512 1.39-.097.75-.49 1.847-1.331 2.544v.235c0 .276-.224.5-.5.5s-.5-.224-.5-.5v-.483c0-.165.081-.319.218-.413.775-.53 1.137-1.644 1.137-2.229 0-.239.167-.438.392-.488.04-.082.097-.273.097-.557s-.057-.475-.097-.557c-.124-.028-.234-.102-.307-.209-.093-.138-.11-.313-.049-.467.562-1.385.858-2.514.858-3.265 0-.316-.054-.558-.154-.699-.337-.471-1.529-.947-3.433-.947-1.62 0-2.422.607-2.505.779 0 .275-.211.421-.487.421-.008 0-.779.033-.901.526-.024.099-.036.229-.036.385 0 .616.19 1.574.565 2.847.045.151.015.315-.079.441s-.243.201-.4.201c.05.004-.023.185-.023.488 0 .296.069.523.119.614.21.048.371.229.386.452.077 1.063.685 2.029 1.094 2.318.133.094.212.246.212.409v2.608c0 .216-.138.407-.343.475-2.051.678-5.563 2.011-6.256 2.704-.918.916-1.169 3.094-1.188 3.856-.007.271-.229.487-.5.487h-.012c-.276-.006-.494-.236-.488-.511.003-.128.091-3.152 1.479-4.539.967-.967 5.018-2.394 6.307-2.831v-2.013c-.549-.507-1.108-1.48-1.269-2.575-.371-.268-.542-.863-.542-1.454 0-.565.157-1.005.426-1.256-.329-1.179-.489-2.072-.489-2.721 0-.239.021-.443.065-.623.203-.828.956-1.161 1.519-1.257.412-.654 1.654-1.231 3.346-1.231 2.049 0 3.636.511 4.247 1.367.226.316.341.748.341 1.281 0 .812-.26 1.901-.773 3.241.232.266.366.704.366 1.256z" />
  <animate attributeName="display" fill="freeze" repeatCount="1" dur="1s" keyTimes="0;0.62;0.64;1" values="none;inline;none;none" />
</g>
<g>
  <path d="M0 0v30h30V0H0zm20.383 19.167c-.099.259-.388.388-.646.288-1.43-.546-2.713-.98-2.717-.981-.203-.068-.34-.259-.34-.474v-2.669c0-.165.081-.319.218-.413.775-.53 1.137-1.644 1.137-2.229 0-.239.167-.438.392-.488.04-.082.097-.273.097-.557s-.057-.475-.097-.557c-.124-.028-.234-.102-.307-.209-.093-.138-.11-.313-.049-.467.562-1.385.858-2.514.858-3.265 0-.316-.054-.558-.154-.699-.337-.471-1.529-.947-3.433-.947-1.62 0-2.422.607-2.505.779 0 .275-.211.421-.487.421-.008 0-.779.033-.901.526-.024.099-.036.229-.036.385 0 .616.19 1.574.565 2.847.044.151.015.315-.079.441s-.243.201-.4.201c.05.004-.023.185-.023.488 0 .296.069.523.119.614.21.048.371.229.386.452.077 1.063.685 2.029 1.094 2.318.133.094.212.246.212.409v2.608c0 .216-.138.407-.343.475-2.051.678-5.563 2.011-6.256 2.704-.918.916-1.169 3.094-1.188 3.856-.007.271-.229.487-.5.487h-.012c-.276-.006-.494-.236-.488-.511.003-.128.091-3.152 1.479-4.539.967-.967 5.018-2.394 6.307-2.831v-2.013c-.549-.507-1.108-1.48-1.269-2.575-.371-.268-.542-.863-.542-1.454 0-.565.157-1.005.426-1.256-.329-1.179-.489-2.072-.489-2.721 0-.239.021-.443.065-.623.203-.828.956-1.161 1.519-1.257.412-.654 1.654-1.231 3.346-1.231 2.049 0 3.636.511 4.247 1.367.226.316.341.748.341 1.281 0 .812-.26 1.901-.773 3.241.232.267.367.704.367 1.256 0 .658-.19 1.153-.512 1.39-.097.75-.49 1.847-1.331 2.544v2.064c.48.166 1.412.495 2.414.878.258.099.386.388.288.646z" />
  <animate attributeName="display" fill="freeze" repeatCount="1" dur="1s" keyTimes="0;0.64;0.66;1" values="none;inline;none;none" />
</g>
<g>
  <path d="M0 0v30h30V0H0zm24.208 21.47c-.222.162-.534.119-.7-.103-.063-.085-.128-.165-.196-.238-.488-.529-3.973-1.871-6.291-2.655-.203-.068-.34-.259-.34-.474v-2.669c0-.165.081-.319.218-.413.775-.53 1.137-1.644 1.137-2.229 0-.239.167-.438.392-.488.04-.082.097-.273.097-.557s-.057-.475-.097-.557c-.124-.028-.234-.102-.307-.209-.093-.138-.11-.313-.049-.467.562-1.385.858-2.514.858-3.265 0-.316-.054-.558-.154-.699-.338-.471-1.53-.947-3.434-.947-1.62 0-2.422.607-2.505.779 0 .275-.211.421-.487.421-.008 0-.779.033-.901.526-.024.099-.036.229-.036.385 0 .616.19 1.574.565 2.847.044.151.015.315-.079.441s-.243.201-.4.201c.05.004-.023.185-.023.488 0 .296.069.523.119.614.21.048.371.229.386.452.077 1.063.685 2.029 1.094 2.318.133.094.212.246.212.409v2.608c0 .216-.138.407-.343.475-2.051.678-5.563 2.011-6.256 2.704-.918.916-1.169 3.094-1.188 3.856-.007.271-.229.487-.5.487h-.012c-.276-.006-.494-.236-.488-.511.003-.128.091-3.152 1.479-4.539.967-.967 5.018-2.394 6.307-2.831v-2.013c-.549-.507-1.108-1.48-1.269-2.575-.371-.268-.542-.863-.542-1.454 0-.565.157-1.005.426-1.256-.329-1.179-.489-2.072-.489-2.721 0-.239.021-.443.065-.623.203-.828.956-1.161 1.519-1.257.412-.654 1.654-1.231 3.346-1.231 2.049 0 3.636.511 4.247 1.367.226.316.341.748.341 1.281 0 .812-.26 1.901-.773 3.241.232.267.367.704.367 1.256 0 .658-.19 1.153-.512 1.39-.097.75-.49 1.847-1.331 2.544v2.063c1.458.502 5.6 1.979 6.366 2.809.091.099.179.204.264.318.165.222.119.536-.103.701z" />
  <animate attributeName="display" fill="freeze" repeatCount="1" dur="1s" keyTimes="0;0.66;0.68;1" values="none;inline;none;none" />
</g>
<g>
  <path d="M0 0v30h30V0H0zm25.006 25.385c-.286-.045-.503-.218-.507-.493-.021-1.553-.476-2.994-1.187-3.762-.489-.53-3.974-1.872-6.292-2.656-.203-.068-.34-.259-.34-.474v-2.669c0-.165.081-.319.218-.413.775-.53 1.137-1.644 1.137-2.229 0-.239.167-.438.392-.488.04-.082.097-.273.097-.557s-.057-.475-.097-.557c-.124-.028-.234-.102-.307-.209-.093-.138-.11-.313-.049-.467.562-1.385.858-2.514.858-3.265 0-.316-.054-.558-.154-.699-.337-.471-1.529-.947-3.433-.947-1.62 0-2.422.607-2.505.779 0 .275-.211.421-.487.421-.008 0-.779.033-.901.526-.024.099-.036.229-.036.385 0 .616.19 1.574.565 2.847.044.151.015.315-.079.441s-.243.201-.4.201c.05.004-.023.185-.023.488 0 .296.069.523.119.614.21.048.371.229.386.452.077 1.063.685 2.029 1.094 2.318.133.094.212.246.212.409v2.608c0 .216-.138.407-.343.475-2.051.678-5.563 2.011-6.256 2.704-.918.916-1.169 3.094-1.188 3.856-.007.271-.229.487-.5.487h-.012c-.276-.006-.494-.236-.488-.511.003-.128.091-3.152 1.479-4.539.967-.967 5.018-2.394 6.307-2.831v-2.013c-.549-.507-1.108-1.48-1.269-2.575-.371-.268-.542-.863-.542-1.454 0-.565.157-1.005.426-1.256-.329-1.179-.489-2.072-.489-2.721 0-.239.021-.443.065-.623.203-.828.956-1.161 1.519-1.257.412-.654 1.654-1.231 3.346-1.231 2.049 0 3.636.511 4.247 1.367.226.316.341.748.341 1.281 0 .812-.26 1.901-.773 3.241.232.267.367.704.367 1.256 0 .658-.19 1.153-.512 1.39-.097.75-.49 1.847-1.331 2.544v2.063c1.458.502 5.6 1.979 6.366 2.809.885.955 1.428 2.61 1.452 4.427.004.276-.217.503-.493.507z" />
  <animate attributeName="display" fill="freeze" repeatCount="1" dur="1s" keyTimes="0;0.68;0.7;1" values="none;inline;none;none" />
</g>
<g>
  <path d="M0 0v30h30V0H0zm25 25.512h-3.433c-.276 0-.5-.224-.5-.5s.224-.5.5-.5h2.918c-.084-1.407-.518-2.674-1.173-3.382-.489-.53-3.974-1.872-6.292-2.656-.203-.068-.34-.259-.34-.474v-2.669c0-.165.081-.319.218-.413.775-.53 1.137-1.644 1.137-2.229 0-.239.167-.438.392-.488.04-.082.097-.273.097-.557s-.057-.475-.097-.557c-.124-.028-.234-.102-.307-.209-.093-.138-.11-.313-.049-.467.562-1.385.858-2.514.858-3.265 0-.316-.054-.558-.154-.699-.337-.471-1.529-.947-3.433-.947-1.62 0-2.422.607-2.505.779 0 .275-.211.421-.487.421-.008 0-.779.033-.901.526-.024.099-.036.229-.036.385 0 .616.19 1.574.565 2.847.044.151.015.315-.079.441s-.243.201-.4.201c.05.004-.023.185-.023.488 0 .296.069.523.119.614.21.048.371.229.386.452.077 1.063.685 2.029 1.094 2.318.133.094.212.246.212.409v2.608c0 .216-.138.407-.343.475-2.051.678-5.563 2.011-6.256 2.704-.918.916-1.169 3.094-1.188 3.856-.007.275-.195.484-.512.487-.276-.006-.494-.236-.488-.511.003-.128.091-3.152 1.479-4.539.967-.967 5.018-2.394 6.307-2.831v-2.013c-.549-.507-1.108-1.48-1.269-2.575-.371-.268-.542-.863-.542-1.454 0-.565.157-1.005.426-1.256-.329-1.179-.489-2.072-.489-2.721 0-.239.021-.443.065-.623.203-.828.956-1.161 1.519-1.257.412-.654 1.654-1.231 3.346-1.231 2.049 0 3.636.511 4.247 1.367.226.316.341.748.341 1.281 0 .812-.26 1.901-.773 3.241.232.267.367.704.367 1.256 0 .658-.19 1.153-.512 1.39-.097.75-.49 1.847-1.331 2.544v2.063c1.458.502 5.6 1.979 6.366 2.809.91.983 1.453 2.688 1.453 4.561 0 .276-.224.5-.5.5z" />
  <animate attributeName="display" fill="freeze" repeatCount="1" dur="1s" keyTimes="0;0.7;0.72;1" values="none;inline;none;none" />
</g>
<g>
  <path d="M0 0v30h30V0H0zm25 25.512h-6.553c-.276 0-.5-.224-.5-.5s.224-.5.5-.5h6.038c-.084-1.407-.518-2.674-1.173-3.382-.489-.53-3.974-1.872-6.292-2.656-.203-.068-.34-.259-.34-.474v-2.669c0-.165.081-.319.218-.413.775-.53 1.137-1.644 1.137-2.229 0-.239.167-.438.392-.488.04-.082.097-.273.097-.557s-.057-.475-.097-.557c-.124-.028-.234-.102-.307-.209-.093-.138-.11-.313-.049-.467.562-1.385.858-2.514.858-3.265 0-.316-.054-.558-.154-.699-.337-.471-1.529-.947-3.433-.947-1.62 0-2.422.607-2.505.779 0 .275-.211.421-.487.421-.008 0-.779.033-.901.526-.024.099-.036.229-.036.385 0 .616.19 1.574.565 2.847.044.151.015.315-.079.441s-.243.201-.4.201c.05.004-.023.185-.023.488 0 .296.069.523.119.614.21.048.371.229.386.452.077 1.063.685 2.029 1.094 2.318.133.094.212.246.212.409v2.608c0 .216-.138.407-.343.475-2.051.678-5.563 2.011-6.256 2.704-.918.916-1.169 3.094-1.188 3.856-.007.275-.195.484-.512.487-.276-.006-.494-.236-.488-.511.003-.128.091-3.152 1.479-4.539.967-.967 5.018-2.394 6.307-2.831v-2.013c-.549-.507-1.108-1.48-1.269-2.575-.371-.268-.542-.863-.542-1.454 0-.565.157-1.005.426-1.256-.329-1.179-.489-2.072-.489-2.721 0-.239.021-.443.065-.623.203-.828.956-1.161 1.519-1.257.412-.654 1.654-1.231 3.346-1.231 2.049 0 3.636.511 4.247 1.367.226.316.341.748.341 1.281 0 .812-.26 1.901-.773 3.241.232.267.367.704.367 1.256 0 .658-.19 1.153-.512 1.39-.097.75-.49 1.847-1.331 2.544v2.063c1.458.502 5.6 1.979 6.366 2.809.91.983 1.453 2.688 1.453 4.561 0 .276-.224.5-.5.5z" />
  <animate attributeName="display" fill="freeze" repeatCount="1" dur="1s" keyTimes="0;0.72;0.74;1" values="none;inline;none;none" />
</g>
<g>
  <path d="M0 0v30h30V0H0zm25 25.512h-9.263c-.276 0-.5-.224-.5-.5s.224-.5.5-.5h8.749c-.084-1.407-.518-2.674-1.173-3.382-.489-.53-3.974-1.872-6.292-2.656-.203-.068-.34-.259-.34-.474v-2.669c0-.165.081-.319.218-.413.775-.53 1.137-1.644 1.137-2.229 0-.239.167-.438.392-.488.04-.082.097-.273.097-.557s-.057-.475-.097-.557c-.124-.028-.234-.102-.307-.209-.093-.138-.11-.313-.049-.467.562-1.385.858-2.514.858-3.265 0-.316-.054-.558-.154-.699-.338-.471-1.53-.947-3.434-.947-1.62 0-2.422.607-2.505.779 0 .275-.211.421-.487.421-.008 0-.779.033-.901.526-.024.099-.036.229-.036.385 0 .616.19 1.574.565 2.847.044.151.015.315-.079.441s-.243.201-.4.201c.05.004-.023.185-.023.488 0 .296.069.523.119.614.21.048.371.229.386.452.077 1.063.685 2.029 1.094 2.318.133.094.212.246.212.409v2.608c0 .216-.138.407-.343.475-2.051.678-5.563 2.011-6.256 2.704-.918.916-1.169 3.094-1.188 3.856-.007.275-.195.484-.512.487-.276-.006-.494-.236-.488-.511.003-.128.091-3.152 1.479-4.539.967-.967 5.018-2.394 6.307-2.831v-2.013c-.549-.507-1.108-1.48-1.269-2.575-.371-.268-.542-.863-.542-1.454 0-.565.157-1.005.426-1.256-.329-1.179-.489-2.072-.489-2.721 0-.239.021-.443.065-.623.203-.828.956-1.161 1.519-1.257.412-.654 1.654-1.231 3.346-1.231 2.049 0 3.636.511 4.247 1.367.226.316.341.748.341 1.281 0 .812-.26 1.901-.773 3.241.232.267.367.704.367 1.256 0 .658-.19 1.153-.512 1.39-.097.75-.49 1.847-1.331 2.544v2.063c1.458.502 5.6 1.979 6.366 2.809.91.983 1.453 2.688 1.453 4.561 0 .276-.224.5-.5.5z" />
  <animate attributeName="display" fill="freeze" repeatCount="1" dur="1s" keyTimes="0;0.74;0.76;1" values="none;inline;none;none" />
</g>
<g>
  <path d="M0 0v30h30V0H0zm25 25.512H13.427c-.276 0-.5-.224-.5-.5s.224-.5.5-.5h11.058c-.084-1.407-.518-2.674-1.173-3.382-.489-.53-3.974-1.872-6.292-2.656-.203-.068-.34-.259-.34-.474v-2.669c0-.165.081-.319.218-.413.775-.53 1.137-1.644 1.137-2.229 0-.239.167-.438.392-.488.04-.082.097-.273.097-.557s-.057-.475-.097-.557c-.124-.028-.234-.102-.307-.209-.093-.138-.11-.313-.049-.467.562-1.385.858-2.514.858-3.265 0-.316-.054-.558-.154-.699-.337-.471-1.529-.947-3.433-.947-1.62 0-2.422.607-2.505.779 0 .275-.211.421-.487.421-.008 0-.779.033-.901.526-.024.099-.036.229-.036.385 0 .616.19 1.574.565 2.847.044.151.015.315-.079.441s-.243.201-.4.201c.05.004-.023.185-.023.488 0 .296.069.523.119.614.21.048.371.229.386.452.077 1.063.685 2.029 1.094 2.318.133.094.212.246.212.409v2.608c0 .216-.138.407-.343.475-2.051.678-5.563 2.011-6.256 2.704-.918.916-1.169 3.094-1.188 3.856-.007.275-.195.484-.512.487-.276-.006-.494-.236-.488-.511.003-.128.091-3.152 1.479-4.539.967-.967 5.018-2.394 6.307-2.831v-2.013c-.549-.507-1.108-1.48-1.269-2.575-.371-.268-.542-.863-.542-1.454 0-.565.157-1.005.426-1.256-.329-1.179-.489-2.072-.489-2.721 0-.239.021-.443.065-.623.203-.828.956-1.161 1.519-1.257.412-.654 1.654-1.231 3.346-1.231 2.049 0 3.636.511 4.247 1.367.226.316.341.748.341 1.281 0 .812-.26 1.901-.773 3.241.232.267.367.704.367 1.256 0 .658-.19 1.153-.512 1.39-.097.75-.49 1.847-1.331 2.544v2.063c1.458.502 5.6 1.979 6.366 2.809.91.983 1.453 2.688 1.453 4.561 0 .276-.224.5-.5.5z" />
  <animate attributeName="display" fill="freeze" repeatCount="1" dur="1s" keyTimes="0;0.76;0.78;1" values="none;inline;none;none" />
</g>
<g>
  <path d="M0 0v30h30V0H0zm25 25.512H11.467c-.276 0-.5-.224-.5-.5s.224-.5.5-.5h13.019c-.084-1.407-.518-2.674-1.173-3.382-.489-.53-3.974-1.872-6.292-2.656-.203-.068-.34-.259-.34-.474v-2.669c0-.165.081-.319.218-.413.775-.53 1.137-1.644 1.137-2.229 0-.239.167-.438.392-.488.04-.082.097-.273.097-.557s-.057-.475-.097-.557c-.124-.028-.234-.102-.307-.209-.093-.138-.11-.313-.049-.467.562-1.385.858-2.514.858-3.265 0-.316-.054-.558-.154-.699-.338-.471-1.53-.947-3.434-.947-1.62 0-2.422.607-2.505.779 0 .275-.211.421-.487.421-.008 0-.779.033-.901.526-.024.099-.036.229-.036.385 0 .616.19 1.574.565 2.847.044.151.015.315-.079.441s-.243.201-.4.201c.05.004-.023.185-.023.488 0 .296.069.523.119.614.21.048.371.229.386.452.077 1.063.685 2.029 1.094 2.318.133.094.212.246.212.409v2.608c0 .216-.138.407-.343.475-2.051.678-5.563 2.011-6.256 2.704-.918.916-1.169 3.094-1.188 3.856-.007.275-.195.484-.512.487-.276-.006-.494-.236-.488-.511.003-.128.091-3.152 1.479-4.539.967-.967 5.018-2.394 6.307-2.831v-2.013c-.549-.507-1.108-1.48-1.269-2.575-.371-.268-.542-.863-.542-1.454 0-.565.157-1.005.426-1.256-.329-1.179-.489-2.072-.489-2.721 0-.239.021-.443.065-.623.203-.828.956-1.161 1.519-1.257.412-.654 1.654-1.231 3.346-1.231 2.049 0 3.636.511 4.247 1.367.226.316.341.748.341 1.281 0 .812-.26 1.901-.773 3.241.232.267.367.704.367 1.256 0 .658-.19 1.153-.512 1.39-.097.75-.49 1.847-1.331 2.544v2.063c1.458.502 5.6 1.979 6.366 2.809.91.983 1.453 2.688 1.453 4.561 0 .276-.224.5-.5.5z" />
  <animate attributeName="display" fill="freeze" repeatCount="1" dur="1s" keyTimes="0;0.78;0.8;1" values="none;inline;none;none" />
</g>
<g>
  <path d="M0 0v30h30V0H0zm25 25.512H9.827c-.276 0-.5-.224-.5-.5s.224-.5.5-.5h14.658c-.084-1.407-.518-2.674-1.173-3.382-.489-.53-3.974-1.872-6.292-2.656-.203-.068-.34-.259-.34-.474v-2.669c0-.165.081-.319.218-.413.775-.53 1.137-1.644 1.137-2.229 0-.239.167-.438.392-.488.04-.082.097-.273.097-.557s-.057-.475-.097-.557c-.124-.028-.234-.102-.307-.209-.093-.138-.11-.313-.049-.467.562-1.385.858-2.514.858-3.265 0-.316-.054-.558-.154-.699-.337-.471-1.529-.947-3.433-.947-1.62 0-2.422.607-2.505.779 0 .275-.211.421-.487.421-.008 0-.779.033-.901.526-.024.099-.036.229-.036.385 0 .616.19 1.574.565 2.847.044.151.015.315-.079.441s-.243.201-.4.201c.05.004-.023.185-.023.488 0 .296.069.523.119.614.21.048.371.229.386.452.077 1.063.685 2.029 1.094 2.318.133.094.212.246.212.409v2.608c0 .216-.138.407-.343.475-2.051.678-5.563 2.011-6.256 2.704-.918.916-1.169 3.094-1.188 3.856-.007.275-.195.484-.512.487-.276-.006-.494-.236-.488-.511.003-.128.091-3.152 1.479-4.539.967-.967 5.018-2.394 6.307-2.831v-2.013c-.549-.507-1.108-1.48-1.269-2.575-.371-.268-.542-.863-.542-1.454 0-.565.157-1.005.426-1.256-.329-1.179-.489-2.072-.489-2.721 0-.239.021-.443.065-.623.203-.828.956-1.161 1.519-1.257.412-.654 1.654-1.231 3.346-1.231 2.049 0 3.636.511 4.247 1.367.226.316.341.748.341 1.281 0 .812-.26 1.901-.773 3.241.232.267.367.704.367 1.256 0 .658-.19 1.153-.512 1.39-.097.75-.49 1.847-1.331 2.544v2.063c1.458.502 5.6 1.979 6.366 2.809.91.983 1.453 2.688 1.453 4.561 0 .276-.224.5-.5.5z" />
  <animate attributeName="display" fill="freeze" repeatCount="1" dur="1s" keyTimes="0;0.8;0.82;1" values="none;inline;none;none" />
</g>
<g>
  <path d="M0 0v30h30V0H0zm25 25.512H8.487c-.276 0-.5-.224-.5-.5s.224-.5.5-.5h15.999c-.084-1.407-.518-2.674-1.173-3.382-.489-.53-3.974-1.872-6.292-2.656-.203-.068-.34-.259-.34-.474v-2.669c0-.165.081-.319.218-.413.775-.53 1.137-1.644 1.137-2.229 0-.239.167-.438.392-.488.04-.082.097-.273.097-.557s-.057-.475-.097-.557c-.124-.028-.234-.102-.307-.209-.093-.138-.11-.313-.049-.467.562-1.385.858-2.514.858-3.265 0-.316-.054-.558-.154-.699-.338-.471-1.53-.947-3.434-.947-1.62 0-2.422.607-2.505.779 0 .275-.211.421-.487.421-.008 0-.779.033-.901.526-.024.099-.036.229-.036.385 0 .616.19 1.574.565 2.847.044.151.015.315-.079.441s-.243.201-.4.201c.05.004-.023.185-.023.488 0 .296.069.523.119.614.21.048.371.229.386.452.077 1.063.685 2.029 1.094 2.318.133.094.212.246.212.409v2.608c0 .216-.138.407-.343.475-2.051.678-5.563 2.011-6.256 2.704-.918.916-1.169 3.094-1.188 3.856-.007.275-.195.484-.512.487-.276-.006-.494-.236-.488-.511.003-.128.091-3.152 1.479-4.539.967-.967 5.018-2.394 6.307-2.831v-2.013c-.549-.507-1.108-1.48-1.269-2.575-.371-.268-.542-.863-.542-1.454 0-.565.157-1.005.426-1.256-.329-1.179-.489-2.072-.489-2.721 0-.239.021-.443.065-.623.203-.828.956-1.161 1.519-1.257.412-.654 1.654-1.231 3.346-1.231 2.049 0 3.636.511 4.247 1.367.226.316.341.748.341 1.281 0 .812-.26 1.901-.773 3.241.232.267.367.704.367 1.256 0 .658-.19 1.153-.512 1.39-.097.75-.49 1.847-1.331 2.544v2.063c1.458.502 5.6 1.979 6.366 2.809.91.983 1.453 2.688 1.453 4.561 0 .276-.224.5-.5.5z" />
  <animate attributeName="display" fill="freeze" repeatCount="1" dur="1s" keyTimes="0;0.82;0.84;1" values="none;inline;none;none" />
</g>
<g>
  <path d="M0 0v30h30V0H0zm25 25.512H7.417c-.276 0-.5-.224-.5-.5s.224-.5.5-.5h17.068c-.084-1.407-.518-2.674-1.173-3.382-.489-.53-3.974-1.872-6.292-2.656-.203-.068-.34-.259-.34-.474v-2.669c0-.165.081-.319.218-.413.775-.53 1.137-1.644 1.137-2.229 0-.239.167-.438.392-.488.04-.082.097-.273.097-.557s-.057-.475-.097-.557c-.124-.028-.234-.102-.307-.209-.093-.138-.11-.313-.049-.467.562-1.385.858-2.514.858-3.265 0-.316-.054-.558-.154-.699-.337-.471-1.529-.947-3.433-.947-1.62 0-2.422.607-2.505.779 0 .275-.211.421-.487.421-.008 0-.779.033-.901.526-.024.099-.036.229-.036.385 0 .616.19 1.574.565 2.847.044.151.015.315-.079.441s-.243.201-.4.201c.05.004-.023.185-.023.488 0 .296.069.523.119.614.21.048.371.229.386.452.077 1.063.685 2.029 1.094 2.318.133.094.212.246.212.409v2.608c0 .216-.138.407-.343.475-2.051.678-5.563 2.011-6.256 2.704-.918.916-1.169 3.094-1.188 3.856-.007.275-.195.484-.512.487-.276-.006-.494-.236-.488-.511.003-.128.091-3.152 1.479-4.539.967-.967 5.018-2.394 6.307-2.831v-2.013c-.549-.507-1.108-1.48-1.269-2.575-.371-.268-.542-.863-.542-1.454 0-.565.157-1.005.426-1.256-.329-1.179-.489-2.072-.489-2.721 0-.239.021-.443.065-.623.203-.828.956-1.161 1.519-1.257.412-.654 1.654-1.231 3.346-1.231 2.049 0 3.636.511 4.247 1.367.226.316.341.748.341 1.281 0 .812-.26 1.901-.773 3.241.232.267.367.704.367 1.256 0 .658-.19 1.153-.512 1.39-.097.75-.49 1.847-1.331 2.544v2.063c1.458.502 5.6 1.979 6.366 2.809.91.983 1.453 2.688 1.453 4.561 0 .276-.224.5-.5.5z" />
  <animate attributeName="display" fill="freeze" repeatCount="1" dur="1s" keyTimes="0;0.84;0.86;1" values="none;inline;none;none" />
</g>
<g>
  <path d="M0 0v30h30V0H0zm25 25.512H6.587c-.276 0-.5-.224-.5-.5s.224-.5.5-.5h17.898c-.084-1.407-.518-2.674-1.173-3.382-.489-.53-3.974-1.872-6.292-2.656-.203-.068-.34-.259-.34-.474v-2.669c0-.165.081-.319.218-.413.775-.53 1.137-1.644 1.137-2.229 0-.239.167-.438.392-.488.04-.082.097-.273.097-.557s-.057-.475-.097-.557c-.124-.028-.234-.102-.307-.209-.093-.138-.11-.313-.049-.467.562-1.385.858-2.514.858-3.265 0-.316-.054-.558-.154-.699-.337-.471-1.529-.947-3.433-.947-1.62 0-2.422.607-2.505.779 0 .275-.211.421-.487.421-.008 0-.779.033-.901.526-.024.099-.036.229-.036.385 0 .616.19 1.574.565 2.847.044.151.015.315-.079.441s-.243.201-.4.201c.05.004-.023.185-.023.488 0 .296.069.523.119.614.21.048.371.229.386.452.077 1.063.685 2.029 1.094 2.318.133.094.212.246.212.409v2.608c0 .216-.138.407-.343.475-2.051.678-5.563 2.011-6.256 2.704-.918.916-1.169 3.094-1.188 3.856-.007.275-.195.484-.512.487-.276-.006-.494-.236-.488-.511.003-.128.091-3.152 1.479-4.539.967-.967 5.018-2.394 6.307-2.831v-2.013c-.549-.507-1.108-1.48-1.269-2.575-.371-.268-.542-.863-.542-1.454 0-.565.157-1.005.426-1.256-.329-1.179-.489-2.072-.489-2.721 0-.239.021-.443.065-.623.203-.828.956-1.161 1.519-1.257.412-.654 1.654-1.231 3.346-1.231 2.049 0 3.636.511 4.247 1.367.226.316.341.748.341 1.281 0 .812-.26 1.901-.773 3.241.232.267.367.704.367 1.256 0 .658-.19 1.153-.512 1.39-.097.75-.49 1.847-1.331 2.544v2.063c1.458.502 5.6 1.979 6.366 2.809.91.983 1.453 2.688 1.453 4.561 0 .276-.224.5-.5.5z" />
  <animate attributeName="display" fill="freeze" repeatCount="1" dur="1s" keyTimes="0;0.86;0.88;1" values="none;inline;none;none" />
</g>
<g>
  <path d="M0 0v30h30V0H0zm25 25.512H5.957c-.226 0-.417-.149-.479-.354-.064.209-.252.35-.491.354-.275-.007-.493-.237-.487-.512.003-.128.091-3.152 1.479-4.539.967-.967 5.018-2.394 6.307-2.831v-2.013c-.549-.507-1.108-1.48-1.269-2.575-.371-.268-.542-.863-.542-1.454 0-.565.157-1.005.426-1.256-.329-1.179-.489-2.072-.489-2.721 0-.239.021-.443.065-.623.203-.828.956-1.161 1.519-1.257.412-.654 1.654-1.231 3.346-1.231 2.049 0 3.636.511 4.247 1.367.226.316.341.748.341 1.281 0 .812-.26 1.901-.773 3.241.232.267.367.704.367 1.256 0 .658-.19 1.153-.512 1.39-.097.75-.49 1.847-1.331 2.544v2.063c1.458.502 5.6 1.979 6.366 2.809.91.983 1.453 2.688 1.453 4.561 0 .276-.224.5-.5.5z" />
  <path d="M17.021 18.474c-.203-.068-.34-.259-.34-.474v-2.669c0-.165.081-.319.218-.413.775-.53 1.137-1.644 1.137-2.229 0-.239.167-.438.392-.488.04-.082.097-.273.097-.557s-.057-.475-.097-.557c-.124-.028-.234-.102-.307-.209-.093-.138-.11-.313-.049-.467.562-1.385.858-2.514.858-3.265 0-.316-.054-.558-.154-.699-.338-.471-1.53-.947-3.434-.947-1.62 0-2.422.607-2.505.779 0 .275-.211.421-.487.421-.008 0-.779.033-.901.526-.024.099-.036.229-.036.385 0 .616.19 1.574.565 2.847.044.151.015.315-.079.441s-.243.201-.4.201c.05.004-.023.185-.023.488 0 .296.069.523.119.614.21.048.371.229.386.452.077 1.063.685 2.029 1.094 2.318.133.094.212.246.212.409v2.608c0 .216-.138.407-.343.475-2.051.678-5.563 2.011-6.256 2.704-.834.834-1.117 2.712-1.176 3.617.083-.162.251-.273.446-.273h18.528c-.084-1.407-.518-2.674-1.173-3.382-.49-.53-3.974-1.872-6.292-2.656z" />
  <animate attributeName="display" fill="freeze" repeatCount="1" dur="1s" keyTimes="0;0.88;0.9;1" values="none;inline;none;none" />
</g>
<g>
  <path d="M17.021 18.474c-.203-.068-.34-.259-.34-.474v-2.669c0-.165.081-.319.218-.413.775-.53 1.137-1.644 1.137-2.229 0-.239.167-.438.392-.488.04-.082.097-.273.097-.557s-.057-.475-.097-.557c-.124-.028-.234-.102-.307-.209-.093-.138-.11-.313-.049-.467.562-1.385.858-2.514.858-3.265 0-.316-.054-.558-.154-.699-.338-.471-1.53-.947-3.434-.947-1.62 0-2.422.607-2.505.779 0 .275-.211.421-.487.421-.008 0-.779.033-.901.526-.024.099-.036.229-.036.385 0 .616.19 1.574.565 2.847.044.151.015.315-.079.441s-.243.201-.4.201c.05.004-.023.185-.023.488 0 .296.069.523.119.614.21.048.371.229.386.452.077 1.063.685 2.029 1.094 2.318.133.094.212.246.212.409v2.608c0 .216-.138.407-.343.475-2.051.678-5.563 2.011-6.256 2.704-.758.757-1.06 2.374-1.153 3.344h18.952c-.084-1.407-.518-2.674-1.173-3.382-.491-.53-3.975-1.872-6.293-2.656z" />
  <path d="M0 0v30h30V0H0zm25 25.512H5.507c-.093 0-.179-.025-.253-.069-.078.046-.161.066-.266.069-.276-.007-.494-.237-.488-.512.003-.128.091-3.152 1.479-4.539.967-.967 5.018-2.394 6.307-2.831v-2.013c-.549-.507-1.108-1.48-1.269-2.575-.371-.268-.542-.863-.542-1.454 0-.565.157-1.005.426-1.256-.329-1.179-.489-2.072-.489-2.721 0-.239.021-.443.065-.623.203-.828.956-1.161 1.519-1.257.412-.654 1.654-1.231 3.346-1.231 2.049 0 3.636.511 4.247 1.367.226.316.341.748.341 1.281 0 .812-.26 1.901-.773 3.241.232.267.367.704.367 1.256 0 .658-.19 1.153-.512 1.39-.097.75-.49 1.847-1.331 2.544v2.063c1.458.502 5.6 1.979 6.366 2.809.91.983 1.453 2.688 1.453 4.561 0 .276-.224.5-.5.5z" />
  <animate attributeName="display" fill="freeze" repeatCount="1" dur="1s" keyTimes="0;0.9;0.92;1" values="none;inline;none;none" />
</g>
<g>
  <path d="M17.021 18.474c-.203-.068-.34-.259-.34-.474v-2.669c0-.165.081-.319.218-.413.775-.53 1.137-1.644 1.137-2.229 0-.239.167-.438.392-.488.04-.082.097-.273.097-.557s-.057-.475-.097-.557c-.124-.028-.234-.102-.307-.209-.093-.138-.11-.313-.049-.467.562-1.385.858-2.514.858-3.265 0-.316-.054-.558-.154-.699-.338-.471-1.53-.947-3.434-.947-1.62 0-2.422.607-2.505.779 0 .275-.211.421-.487.421-.008 0-.779.033-.901.526-.024.099-.036.229-.036.385 0 .616.19 1.574.565 2.847.044.151.015.315-.079.441s-.243.201-.4.201c.05.004-.023.185-.023.488 0 .296.069.523.119.614.21.048.371.229.386.452.077 1.063.685 2.029 1.094 2.318.133.094.212.246.212.409v2.608c0 .216-.138.407-.343.475-2.051.678-5.563 2.011-6.256 2.704-.758.757-1.06 2.374-1.153 3.344h18.952c-.084-1.407-.518-2.674-1.173-3.382-.491-.53-3.975-1.872-6.293-2.656z" />
  <path d="M0 0v30h30V0H0zm25 25.512H5.197c-.034 0-.067-.003-.099-.01-.035.007-.065.013-.11.01-.276-.007-.494-.237-.488-.512.003-.128.091-3.152 1.479-4.539.967-.967 5.018-2.394 6.307-2.831v-2.013c-.549-.507-1.108-1.48-1.269-2.575-.371-.268-.542-.863-.542-1.454 0-.565.157-1.005.426-1.256-.329-1.179-.489-2.072-.489-2.721 0-.239.021-.443.065-.623.203-.828.956-1.161 1.519-1.257.412-.654 1.654-1.231 3.346-1.231 2.049 0 3.636.511 4.247 1.367.226.316.341.748.341 1.281 0 .812-.26 1.901-.773 3.241.232.267.367.704.367 1.256 0 .658-.19 1.153-.512 1.39-.097.75-.49 1.847-1.331 2.544v2.063c1.458.502 5.6 1.979 6.366 2.809.91.983 1.453 2.688 1.453 4.561 0 .276-.224.5-.5.5z" />
  <animate attributeName="display" fill="freeze" repeatCount="1" dur="1s" keyTimes="0;0.92;0.94;1" values="none;inline;none;none" />
</g>
<g>
  <path d="M0 0v30h30V0H0zm25 25.512H5.027c-.009 0-.017.001-.027 0h-.012c-.276-.007-.494-.237-.488-.512.003-.128.091-3.152 1.479-4.539.967-.967 5.018-2.394 6.307-2.831v-2.013c-.549-.507-1.108-1.48-1.269-2.575-.371-.268-.542-.863-.542-1.454 0-.565.157-1.005.426-1.256-.329-1.179-.489-2.072-.489-2.721 0-.239.021-.443.065-.623.203-.828.956-1.161 1.519-1.257.412-.654 1.654-1.231 3.346-1.231 2.049 0 3.636.511 4.247 1.367.226.316.341.748.341 1.281 0 .812-.26 1.901-.773 3.241.232.267.367.704.367 1.256 0 .658-.19 1.153-.512 1.39-.097.75-.49 1.847-1.331 2.544v2.063c1.458.502 5.6 1.979 6.366 2.809.91.983 1.453 2.688 1.453 4.561 0 .276-.224.5-.5.5z" />
  <path d="M17.021 18.474c-.203-.068-.34-.259-.34-.474v-2.669c0-.165.081-.319.218-.413.775-.53 1.137-1.644 1.137-2.229 0-.239.167-.438.392-.488.04-.082.097-.273.097-.557s-.057-.475-.097-.557c-.124-.028-.234-.102-.307-.209-.093-.138-.11-.313-.049-.467.562-1.385.858-2.514.858-3.265 0-.316-.054-.558-.154-.699-.338-.471-1.53-.947-3.434-.947-1.62 0-2.422.607-2.505.779 0 .275-.211.421-.487.421-.008 0-.779.033-.901.526-.024.099-.036.229-.036.385 0 .616.19 1.574.565 2.847.044.151.015.315-.079.441s-.243.201-.4.201c.05.004-.023.185-.023.488 0 .296.069.523.119.614.21.048.371.229.386.452.077 1.063.685 2.029 1.094 2.318.133.094.212.246.212.409v2.608c0 .216-.138.407-.343.475-2.051.678-5.563 2.011-6.256 2.704-.758.757-1.06 2.374-1.153 3.344h18.952c-.084-1.407-.518-2.674-1.173-3.382-.491-.53-3.975-1.872-6.293-2.656z" />
  <animate attributeName="display" fill="freeze" repeatCount="1" dur="1s" keyTimes="0;0.94;0.96;1" values="none;inline;none;none" />
</g>
<g>
  <path d="M0 0v30h30V0H0zm25 25.512H5c-.135 0-.264-.055-.358-.15-.094-.097-.145-.227-.142-.362.003-.128.091-3.152 1.479-4.539.967-.967 5.018-2.394 6.307-2.831v-2.013c-.549-.507-1.108-1.48-1.269-2.575-.371-.268-.542-.863-.542-1.454 0-.565.157-1.005.426-1.256-.329-1.179-.489-2.072-.489-2.721 0-.239.021-.443.065-.623.203-.828.956-1.161 1.519-1.257.412-.654 1.654-1.231 3.346-1.231 2.049 0 3.636.511 4.247 1.367.226.316.341.748.341 1.281 0 .812-.26 1.901-.773 3.241.232.267.367.704.367 1.256 0 .658-.19 1.153-.512 1.39-.097.75-.49 1.847-1.331 2.544v2.063c1.458.502 5.6 1.979 6.366 2.809.91.983 1.453 2.688 1.453 4.561 0 .276-.224.5-.5.5z" />
  <path d="M17.021 18.474c-.203-.068-.34-.259-.34-.474v-2.669c0-.165.081-.319.218-.413.775-.53 1.137-1.644 1.137-2.229 0-.239.167-.438.392-.488.04-.082.097-.273.097-.557s-.057-.475-.097-.557c-.124-.028-.234-.102-.307-.209-.093-.138-.11-.313-.049-.467.562-1.385.858-2.514.858-3.265 0-.316-.054-.558-.154-.699-.338-.471-1.53-.947-3.434-.947-1.62 0-2.422.607-2.505.779 0 .275-.211.421-.487.421-.008 0-.779.033-.901.526-.024.099-.036.229-.036.385 0 .616.19 1.574.565 2.847.044.151.015.315-.079.441s-.243.201-.4.201c.05.004-.023.185-.023.488 0 .296.069.523.119.614.21.048.371.229.386.452.077 1.063.685 2.029 1.094 2.318.133.094.212.246.212.409v2.608c0 .216-.138.407-.343.475-2.051.678-5.563 2.011-6.256 2.704-.758.757-1.06 2.374-1.153 3.344h18.952c-.084-1.407-.518-2.674-1.173-3.382-.491-.53-3.975-1.872-6.293-2.656z" />
  <animate attributeName="display" fill="freeze" repeatCount="1" dur="1s" keyTimes="0;0.96;0.98;1" values="none;inline;none;none" />
</g>
<g>
  <path d="M17.021 18.474c-.203-.068-.34-.259-.34-.474v-2.669c0-.165.081-.319.218-.413.775-.53 1.137-1.644 1.137-2.229 0-.239.167-.438.392-.488.04-.082.097-.273.097-.557s-.057-.475-.097-.557c-.124-.028-.234-.102-.307-.209-.093-.138-.11-.313-.049-.467.562-1.385.858-2.514.858-3.265 0-.316-.054-.558-.154-.699-.338-.471-1.53-.947-3.434-.947-1.62 0-2.422.607-2.505.779 0 .275-.211.421-.487.421-.008 0-.779.033-.901.526-.024.099-.036.229-.036.385 0 .616.19 1.574.565 2.847.044.151.015.315-.079.441s-.243.201-.4.201c.05.004-.023.185-.023.488 0 .296.069.523.119.614.21.048.371.229.386.452.077 1.063.685 2.029 1.094 2.318.133.094.212.246.212.409v2.608c0 .216-.138.407-.343.475-2.051.678-5.563 2.011-6.256 2.704-.758.757-1.06 2.374-1.153 3.344h18.952c-.084-1.407-.518-2.674-1.173-3.382-.491-.53-3.975-1.872-6.293-2.656z" />
  <path d="M0 0v30h30V0H0zm25 25.512H5c-.135 0-.264-.055-.358-.15-.094-.097-.145-.227-.142-.362.003-.128.091-3.152 1.479-4.539.967-.967 5.018-2.394 6.307-2.831v-2.013c-.549-.507-1.108-1.48-1.269-2.575-.371-.268-.542-.863-.542-1.454 0-.565.157-1.005.426-1.256-.329-1.179-.489-2.072-.489-2.721 0-.239.021-.443.065-.623.203-.828.956-1.161 1.519-1.257.412-.654 1.654-1.231 3.346-1.231 2.049 0 3.636.511 4.247 1.367.226.316.341.748.341 1.281 0 .812-.26 1.901-.773 3.241.232.267.367.704.367 1.256 0 .658-.19 1.153-.512 1.39-.097.75-.49 1.847-1.331 2.544v2.063c1.458.502 5.6 1.979 6.366 2.809.91.983 1.453 2.688 1.453 4.561 0 .276-.224.5-.5.5z" />
  <animate attributeName="display" fill="freeze" repeatCount="1" dur="1s" keyTimes="0;0.98;0.999;1" values="none;inline;none;none" />
</g>
<g>
  <path d="M17.021 18.474c-.203-.068-.34-.259-.34-.474v-2.669c0-.165.081-.319.218-.413.775-.53 1.137-1.644 1.137-2.229 0-.239.167-.438.392-.488.04-.082.097-.273.097-.557s-.057-.475-.097-.557c-.124-.028-.234-.102-.307-.209-.093-.138-.11-.313-.049-.467.562-1.385.858-2.514.858-3.265 0-.316-.054-.558-.154-.699-.338-.471-1.53-.947-3.434-.947-1.62 0-2.422.607-2.505.779 0 .275-.211.421-.487.421-.008 0-.779.033-.901.526-.024.099-.036.229-.036.385 0 .616.19 1.574.565 2.847.044.151.015.315-.079.441s-.243.201-.4.201c.05.004-.023.185-.023.488 0 .296.069.523.119.614.21.048.371.229.386.452.077 1.063.685 2.029 1.094 2.318.133.094.212.246.212.409v2.608c0 .216-.138.407-.343.475-2.051.678-5.563 2.011-6.256 2.704-.758.757-1.06 2.374-1.153 3.344h18.952c-.084-1.407-.518-2.674-1.173-3.382-.491-.53-3.975-1.872-6.293-2.656z" />
  <path d="M0 0v30h30V0H0zm25 25.512H5c-.135 0-.264-.055-.358-.15-.094-.097-.145-.227-.142-.362.003-.128.091-3.152 1.479-4.539.967-.967 5.018-2.394 6.307-2.831v-2.013c-.549-.507-1.108-1.48-1.269-2.575-.371-.268-.542-.863-.542-1.454 0-.565.157-1.005.426-1.256-.329-1.179-.489-2.072-.489-2.721 0-.239.021-.443.065-.623.203-.828.956-1.161 1.519-1.257.412-.654 1.654-1.231 3.346-1.231 2.049 0 3.636.511 4.247 1.367.226.316.341.748.341 1.281 0 .812-.26 1.901-.773 3.241.232.267.367.704.367 1.256 0 .658-.19 1.153-.512 1.39-.097.75-.49 1.847-1.331 2.544v2.063c1.458.502 5.6 1.979 6.366 2.809.91.983 1.453 2.688 1.453 4.561 0 .276-.224.5-.5.5z" />
  <animate attributeName="display" fill="freeze" repeatCount="1" dur="1s" keyTimes="0;0.999;1" values="none;inline;inline" />
</g>
</svg>