<svg xmlns="http://www.w3.org/2000/svg" fill="#fff" viewBox="0 0 30 30" style="background:#89949D">
<g>
  <polygon points="14.505 8.517 10.425 14.465 14.506 16.58"/>
  <polygon points="15.505 8.518 15.506 16.591 19.588 14.469"/>
  <path d="M8.303 22.638c.085.024.17.056.253.057.018.001.036.002.052.003H21.42c.016 0 .034-.002.051-.003.083-.001.168-.034.253-.057l-6.714-4.617-6.707 4.617z"/>
  <path d="M0 0v30h30V0H0zm23.812 21.764c-.13.475-.416.904-.777 1.241-.007.008-.009.019-.017.026-.074.074-.233.201-.433.324-.012.008-.025.015-.037.022-.096.057-.199.108-.31.155-.014.006-.026.012-.04.018-.019.007-.035.017-.054.024-.058.021-.121.032-.182.048-.053.014-.105.031-.158.041-.056.01-.116.012-.175.018-.057.005-.113.018-.17.018h-.054c-.009 0-.016.002-.025.002l-.121-.002-12.612.001c-.009 0-.016-.002-.025-.002h-.054c-.058 0-.116-.013-.175-.018-.056-.006-.114-.008-.168-.018-.056-.01-.11-.028-.166-.044-.059-.015-.121-.025-.178-.046-.019-.007-.036-.017-.055-.024-.009-.003-.017-.008-.026-.011-.114-.047-.223-.102-.327-.163-.008-.004-.015-.009-.023-.013-.185-.111-.346-.233-.443-.333-.006-.006-.007-.016-.014-.023-.361-.337-.647-.767-.777-1.242-.52-1.891-1.815-6.669-2.402-8.836l-.296-1.091c-.023-.082-.026-.169-.005-.256.055-.224.255-.382.486-.382.163 0 .257 0 .341.114l5.19 2.69 5.062-7.38c.006-.009.018-.012.025-.021.091-.116.227-.196.387-.196.159 0 .295.08.387.196.007.009.019.012.025.021l5.064 7.382 5.288-2.75c.174-.091.39-.071.543.054.155.124.222.328.171.519.001 0-1.988 7.455-2.67 9.937z"/>
  <path d="M7.445 22.015l6.611-4.546-9.276-4.803c.587 2.166 1.881 6.943 2.401 8.833.05.184.147.356.264.516z"/>
  <path d="M22.584 22.015c.116-.16.213-.332.264-.517.52-1.89 1.799-6.669 2.377-8.833l-9.254 4.808 6.613 4.542z"/>
  <animate attributeName="display" fill="freeze" repeatCount="1" dur="1s" keyTimes="0;0.02;1" values="inline;none;none"/>
</g>
<g>
  <polygon points="14.505 9.347 10.46 14.483 14.506 16.58"/>
  <path d="M7.445 22.016l6.611-4.547-9.276-4.804c.587 2.166 1.881 6.943 2.401 8.833.05.185.147.357.264.518z"/>
  <path d="M8.304 22.638c.085.024.17.057.254.058.017.001.034.002.049.002H21.42c.016 0 .034-.002.051-.003.083-.001.168-.034.253-.057l-6.714-4.617-6.706 4.617z"/>
  <polygon points="15.505 9.348 15.506 16.591 19.553 14.487"/>
  <path d="M0 0v30h30V0H0zm23.812 21.764c-.13.474-.416.904-.777 1.241-.007.008-.009.018-.016.025-.099.099-.259.221-.443.332l-.021.012c-.104.061-.213.117-.328.163-.009.003-.017.008-.026.011-.019.008-.038.018-.057.025-.058.021-.121.032-.182.048-.053.014-.105.031-.158.041-.056.01-.116.012-.175.018-.057.005-.113.018-.17.018h-.054c-.009 0-.016.002-.025.002l-.121-.002-12.612.002c-.009 0-.016-.002-.025-.002h-.054c-.058 0-.116-.013-.175-.018-.056-.006-.114-.008-.168-.018-.056-.01-.11-.028-.166-.044-.059-.015-.121-.025-.178-.046-.019-.007-.036-.017-.055-.024-.009-.003-.017-.008-.026-.011-.114-.047-.223-.102-.327-.163-.008-.004-.015-.009-.023-.013-.185-.111-.346-.233-.443-.333-.007-.007-.009-.017-.016-.024-.36-.337-.646-.766-.776-1.24-.52-1.891-1.815-6.669-2.402-8.836l-.296-1.091c-.023-.082-.026-.169-.005-.256.055-.224.255-.382.486-.382.163 0 .257 0 .341.114l5.216 2.703 5.056-6.419c.005-.007.014-.009.019-.015.092-.105.222-.176.373-.176s.281.07.373.175c.006.006.014.008.019.015l5.059 6.422 5.313-2.763c.174-.091.39-.071.543.054.155.124.222.328.171.519.002-.001-1.987 7.454-2.669 9.936z"/>
  <path d="M22.584 22.015c.116-.16.214-.332.264-.517.52-1.89 1.799-6.669 2.377-8.833l-9.254 4.808 6.613 4.542z"/>
  <animate attributeName="display" fill="freeze" repeatCount="1" dur="1s" keyTimes="0;0.04;0.06;1" values="none;inline;none;none"/>
</g>
<g>
  <polygon points="14.505 10.182 10.505 14.507 14.506 16.58"/>
  <polygon points="15.505 10.182 15.506 16.591 19.508 14.51"/>
  <path d="M7.445 22.015l6.611-4.546-4.542-2.352c-.001 0-.002-.001-.003-.001l-4.731-2.45c.587 2.166 1.881 6.943 2.401 8.833.05.184.147.356.264.516z"/>
  <path d="M8.303 22.638c.085.024.171.057.254.058.017.001.034.002.049.002h12.813c.016 0 .034-.002.051-.003.083-.001.168-.034.253-.057l-6.714-4.617-6.706 4.617z"/>
  <path d="M22.584 22.015c.116-.16.214-.332.264-.517.52-1.89 1.799-6.669 2.377-8.833l-9.254 4.808 6.613 4.542z"/>
  <path d="M0 0v30h30V0H0zm23.812 21.764c-.13.474-.416.904-.777 1.241-.007.008-.009.018-.016.025-.099.099-.259.221-.443.332l-.021.012c-.104.061-.213.117-.328.163-.009.003-.017.008-.026.011-.019.008-.038.018-.057.025-.058.021-.121.032-.182.048-.053.014-.105.031-.158.041-.056.01-.116.012-.175.018-.057.005-.113.018-.17.018h-.054c-.009 0-.016.002-.025.002l-.121-.002-12.612.002c-.009 0-.016-.002-.025-.002h-.054c-.058 0-.116-.013-.175-.018-.056-.006-.114-.008-.168-.018-.056-.01-.11-.028-.166-.044-.059-.015-.121-.025-.178-.046-.019-.007-.036-.017-.055-.024-.009-.003-.017-.008-.026-.011-.114-.047-.223-.102-.327-.163-.008-.004-.015-.009-.023-.013-.185-.111-.346-.233-.443-.333-.007-.007-.009-.017-.016-.024-.36-.337-.646-.766-.776-1.24-.52-1.891-1.815-6.669-2.402-8.836l-.296-1.091c-.023-.082-.026-.169-.005-.256.055-.224.255-.382.486-.382.163 0 .257 0 .341.114l5.244 2.718 5.053-5.464c.002-.002.005-.003.008-.005.091-.095.218-.155.36-.155s.268.06.36.155c.002.002.005.003.008.005l5.056 5.466 5.342-2.778c.174-.091.39-.071.543.054.155.124.222.328.171.519-.001-.001-1.99 7.454-2.672 9.936z"/>
  <animate attributeName="display" fill="freeze" repeatCount="1" dur="1s" keyTimes="0;0.06;0.08;1" values="none;inline;none;none"/>
</g>
<g>
  <polygon points="14.505 11.869 10.654 14.584 14.506 16.58"/>
  <path d="M8.303 22.638c.085.024.17.056.253.057.018.001.036.002.052.003H21.42c.016 0 .034-.002.051-.003.083-.001.168-.034.253-.057l-6.714-4.617-6.707 4.617z"/>
  <polygon points="15.505 11.869 15.506 16.591 19.361 14.587"/>
  <path d="M22.584 22.015c.116-.16.213-.332.264-.517.52-1.89 1.799-6.669 2.377-8.833l-9.254 4.808 6.613 4.542z"/>
  <path d="M7.445 22.015l6.611-4.546-4.577-2.37-.024-.012-4.675-2.421c.587 2.166 1.881 6.943 2.401 8.833.05.184.147.356.264.516z"/>
  <path d="M0 0v30h30V0H0zm23.812 21.764c-.13.474-.416.904-.777 1.241-.007.008-.009.018-.016.025-.099.099-.259.221-.443.332l-.021.012c-.104.061-.213.117-.328.163-.009.003-.017.008-.026.011-.019.008-.038.018-.057.025-.058.021-.121.032-.182.048-.053.014-.105.031-.158.041-.056.01-.116.012-.175.018-.057.005-.113.018-.17.018h-.054c-.009 0-.016.002-.025.002l-.121-.002-12.612.002c-.009 0-.016-.002-.025-.002h-.054c-.058 0-.116-.013-.175-.018-.056-.006-.114-.008-.168-.018-.056-.01-.11-.028-.166-.044-.059-.015-.121-.025-.178-.046-.019-.007-.036-.017-.055-.024-.009-.003-.017-.008-.026-.011-.114-.047-.223-.102-.327-.163-.008-.004-.015-.009-.023-.013-.185-.111-.346-.233-.443-.333-.007-.007-.009-.017-.016-.024-.36-.337-.646-.766-.776-1.24-.52-1.891-1.815-6.669-2.402-8.836l-.296-1.091c-.023-.082-.026-.169-.005-.256.055-.224.255-.382.486-.382.163 0 .257 0 .341.114l5.313 2.753 5.063-3.569c.009-.007.021-.004.031-.01.076-.047.16-.081.255-.081h.004c.095 0 .179.034.255.081.01.006.022.003.031.01l5.067 3.571 5.41-2.813c.174-.091.39-.071.543.054.155.124.222.328.171.519.001-.001-1.988 7.454-2.67 9.936z"/>
  <animate attributeName="display" fill="freeze" repeatCount="1" dur="1s" keyTimes="0;0.08;0.1;1" values="none;inline;none;none"/>
</g>
<g>
  <polygon points="15.505 13.595 15.506 16.591 19.037 14.755"/>
  <path d="M8.304 22.638c.085.024.17.057.254.058.017.001.034.002.049.002H21.42c.016 0 .034-.002.051-.003.083-.001.168-.034.253-.057l-6.714-4.617-6.706 4.617z"/>
  <polygon points="14.505 13.595 10.981 14.753 14.506 16.58"/>
  <path d="M0 0v30h30V0H0zm23.812 21.764c-.13.474-.416.904-.777 1.241-.007.008-.009.018-.016.025-.099.099-.259.221-.443.332l-.021.012c-.104.061-.213.117-.328.163-.009.003-.017.008-.026.011-.019.008-.038.018-.057.025-.058.021-.121.032-.182.048-.053.014-.105.031-.158.041-.056.01-.116.012-.175.018-.057.005-.113.018-.17.018h-.054c-.009 0-.016.002-.025.002l-.121-.002-12.612.002c-.009 0-.016-.002-.025-.002h-.054c-.058 0-.116-.013-.175-.018-.056-.006-.114-.008-.168-.018-.056-.01-.11-.028-.166-.044-.059-.015-.121-.025-.178-.046-.019-.007-.036-.017-.055-.024-.009-.003-.017-.008-.026-.011-.114-.047-.223-.102-.327-.163-.008-.004-.015-.009-.023-.013-.185-.111-.346-.233-.443-.333-.007-.007-.009-.017-.016-.024-.36-.337-.646-.766-.776-1.24-.52-1.891-1.815-6.669-2.402-8.836l-.296-1.091c-.023-.082-.026-.169-.005-.256.055-.224.255-.382.486-.382.163 0 .257 0 .341.114l5.397 2.797 5.112-1.679c.011-.003.022.003.033 0 .04-.011.08-.025.123-.025s.083.014.123.025c.011.003.022-.003.033 0l5.116 1.68 5.492-2.856c.174-.091.39-.071.543.054.155.124.222.328.171.519.001-.001-1.988 7.454-2.67 9.936z"/>
  <path d="M7.445 22.015l6.611-4.546-9.276-4.804c.587 2.166 1.881 6.943 2.401 8.833.05.185.147.357.264.517z"/>
  <path d="M22.584 22.015c.116-.16.213-.332.264-.517.52-1.89 1.799-6.669 2.377-8.833l-9.254 4.808 6.613 4.542z"/>
  <animate attributeName="display" fill="freeze" repeatCount="1" dur="1s" keyTimes="0;0.1;0.12;1" values="none;inline;none;none"/>
</g>
<g>
  <polygon points="14.505 15.379 11.956 15.258 14.506 16.58"/>
  <path d="M7.483 22.059c.036-.066.083-.128.149-.174l6.423-4.417-4.567-2.365c-.01-.005-.019-.01-.029-.015l-4.681-2.424c.587 2.166 1.881 6.943 2.401 8.833.057.204.171.39.304.562z"/>
  <path d="M8.303 22.638c.085.024.17.056.253.057.018.001.036.002.052.003h12.813c.016 0 .033-.002.051-.003.083-.001.169-.034.254-.058l-6.715-4.617-6.708 4.618z"/>
  <polygon points="15.505 15.381 15.506 16.591 18.069 15.258"/>
  <path d="M22.396 21.886c.066.046.113.107.149.173.133-.172.247-.357.302-.56.52-1.89 1.799-6.669 2.377-8.833l-9.254 4.808 6.426 4.412z"/>
  <path d="M0 0v30h30V0H0zm23.812 21.764c-.13.474-.416.904-.777 1.241-.007.008-.009.018-.016.025-.099.099-.259.221-.443.332l-.021.012c-.104.061-.213.117-.328.163-.009.003-.017.008-.026.011-.019.008-.038.018-.057.025-.058.021-.121.032-.182.048-.053.014-.105.031-.158.041-.056.01-.116.012-.175.018-.057.005-.113.018-.17.018h-.054c-.009 0-.016.002-.025.002l-.121-.002-12.612.002c-.009 0-.016-.002-.025-.002h-.054c-.058 0-.116-.013-.175-.018-.056-.006-.114-.008-.168-.018-.056-.01-.11-.028-.166-.044-.059-.015-.121-.025-.178-.046-.019-.007-.036-.017-.055-.024-.009-.003-.017-.008-.026-.011-.114-.047-.223-.102-.327-.163-.008-.004-.015-.009-.023-.013-.185-.111-.346-.233-.443-.333-.007-.007-.009-.017-.016-.024-.36-.337-.646-.766-.776-1.24-.52-1.891-1.815-6.669-2.402-8.836l-.296-1.091c-.023-.082-.026-.169-.005-.256.055-.224.255-.382.486-.382.163 0 .257 0 .341.114l5.488 2.844 5.201.25 5.162-.25 5.579-2.901c.174-.091.39-.071.543.054.155.124.222.328.171.519 0-.002-1.989 7.453-2.671 9.935z"/>
  <animate attributeName="display" fill="freeze" repeatCount="1" dur="1s" keyTimes="0;0.12;0.14;1" values="none;inline;none;none"/>
</g>
<g>
  <path d="M0 0v30h30V0H0zm23.812 21.764c-.13.474-.416.904-.777 1.241-.007.008-.009.018-.016.025-.099.099-.259.221-.443.332l-.021.012c-.104.061-.213.117-.328.163-.009.003-.017.008-.026.011-.019.008-.038.018-.057.025-.058.021-.121.032-.182.048-.053.014-.105.031-.158.041-.056.01-.116.012-.175.018-.057.005-.113.018-.17.018h-.054c-.009 0-.016.002-.025.002l-.121-.002-12.612.002c-.009 0-.016-.002-.025-.002h-.054c-.058 0-.116-.013-.175-.018-.056-.006-.114-.008-.168-.018-.056-.01-.11-.028-.166-.044-.059-.015-.121-.025-.178-.046-.019-.007-.036-.017-.055-.024-.009-.003-.017-.008-.026-.011-.114-.047-.223-.102-.327-.163-.008-.004-.015-.009-.023-.013-.185-.111-.346-.233-.443-.333-.007-.007-.009-.017-.016-.024-.36-.337-.646-.766-.776-1.24-.52-1.891-1.815-6.669-2.402-8.836l-.296-1.091c-.023-.082-.026-.169-.005-.256.055-.224.255-.382.486-.382.163 0 .257 0 .341.114l10.674 5.531 5.074-2.637c.004-.002.008-.001.011-.003l5.67-2.948c.174-.091.39-.071.543.054.155.124.222.328.171.519.001-.002-1.988 7.453-2.67 9.935z"/>
  <path d="M15.971 17.472l6.095 4.187c.228.156.285.468.129.695-.156.229-.467.286-.695.129l-6.49-4.462-6.481 4.462c-.227.158-.538.1-.695-.129-.156-.228-.099-.539.129-.695l6.083-4.183-4.584-2.382c-.005-.003-.008-.008-.013-.01L4.78 12.666c.587 2.166 1.881 6.943 2.401 8.833.087.315.289.609.538.828 0 0 .001.001.002.001.005.005.017.014.025.021.114.096.237.174.363.233.019.009.038.017.057.026.129.053.26.086.387.088.021.001.044.003.062.004h12.801c.018 0 .04-.003.06-.004.127-.002.258-.035.387-.088.019-.008.039-.016.058-.026.125-.058.247-.136.36-.231.009-.008.023-.018.029-.024.001-.001.002-.001.003-.002.248-.219.45-.512.536-.826.52-1.89 1.799-6.669 2.377-8.833l-7.482 3.887-1.773.919z"/>
  <animate attributeName="display" fill="freeze" repeatCount="1" dur="1s" keyTimes="0;0.14;0.16;1" values="none;inline;none;none"/>
</g>
<g>
  <path d="M21.63 21.359c.228.156.285.468.129.695-.156.229-.467.286-.695.129l-6.053-4.162-6.045 4.162c-.227.157-.538.101-.695-.129-.156-.228-.099-.539.129-.695l5.657-3.89-9.276-4.804c.587 2.166 1.881 6.943 2.401 8.833.087.315.289.609.538.828 0 0 .001.001.002.001.005.005.017.014.025.021.114.096.237.174.363.233.019.009.038.017.057.026.129.053.26.086.387.088.021.001.044.003.062.004h12.801c.018 0 .04-.003.06-.004.127-.002.258-.035.387-.088.019-.008.039-.016.058-.026.125-.058.247-.136.36-.231.009-.008.023-.018.029-.024.001-.001.002-.001.003-.002.248-.219.45-.512.536-.826.52-1.89 1.799-6.669 2.377-8.833l-9.254 4.808 5.657 3.886z"/>
  <path d="M0 0v30h30V0H0zm23.812 21.764c-.13.474-.416.904-.777 1.241-.007.008-.009.018-.016.025-.099.099-.259.221-.443.332l-.021.012c-.104.061-.213.117-.328.163-.009.003-.017.008-.026.011-.019.008-.038.018-.057.025-.058.021-.121.032-.182.048-.053.014-.105.031-.158.041-.056.01-.116.012-.175.018-.057.005-.113.018-.17.018h-.054c-.009 0-.016.002-.025.002l-.121-.002-12.612.002c-.009 0-.016-.002-.025-.002h-.054c-.058 0-.116-.013-.175-.018-.056-.006-.114-.008-.168-.018-.056-.01-.11-.028-.166-.044-.059-.015-.121-.025-.178-.046-.019-.007-.036-.017-.055-.024-.009-.003-.017-.008-.026-.011-.114-.047-.223-.102-.327-.163-.008-.004-.015-.009-.023-.013-.185-.111-.346-.233-.443-.333-.007-.007-.009-.017-.016-.024-.36-.337-.646-.766-.776-1.24-.52-1.891-1.815-6.669-2.402-8.836l-.296-1.091c-.023-.082-.026-.169-.005-.256.055-.224.255-.382.486-.382.163 0 .257 0 .341.114l10.677 5.533 10.752-5.591c.174-.091.39-.071.543.054.155.124.222.328.171.519.001-.001-1.988 7.454-2.67 9.936z"/>
  <animate attributeName="display" fill="freeze" repeatCount="1" dur="1s" keyTimes="0;0.16;0.18;1" values="none;inline;none;none"/>
</g>
<g>
  <path d="M0 0v30h30V0H0zm23.812 21.764c-.13.474-.416.904-.777 1.241-.007.008-.009.018-.016.025-.099.099-.259.221-.443.332l-.021.012c-.104.061-.213.117-.328.163-.009.003-.017.008-.026.011-.019.008-.038.018-.057.025-.058.021-.121.032-.182.048-.053.014-.105.031-.158.041-.056.01-.116.012-.175.018-.057.005-.113.018-.17.018h-.054c-.009 0-.016.002-.025.002l-.121-.002-12.612.002c-.009 0-.016-.002-.025-.002h-.054c-.058 0-.116-.013-.175-.018-.056-.006-.114-.008-.168-.018-.056-.01-.11-.028-.166-.044-.059-.015-.121-.025-.178-.046-.019-.007-.036-.017-.055-.024-.009-.003-.017-.008-.026-.011-.114-.047-.223-.102-.327-.163-.008-.004-.015-.009-.023-.013-.185-.111-.346-.233-.443-.333-.007-.007-.009-.017-.016-.024-.36-.337-.646-.766-.776-1.24-.52-1.891-1.815-6.669-2.402-8.836l-.296-1.091c-.023-.082-.026-.169-.005-.256.055-.224.255-.382.486-.382.163 0 .257 0 .341.114l10.677 5.533 10.752-5.591c.174-.091.39-.071.543.054.155.124.222.328.171.519.001-.001-1.988 7.454-2.67 9.936z"/>
  <path d="M21.069 20.974c.228.156.285.468.129.695s-.467.285-.695.129l-5.493-3.776-5.485 3.776c-.227.157-.538.099-.695-.129-.156-.228-.099-.539.129-.695l5.097-3.505-9.276-4.803c.587 2.166 1.881 6.943 2.401 8.833.087.315.289.609.538.828 0 0 .001.001.002.001.005.005.017.014.025.021.114.096.237.174.363.233.019.009.038.017.057.026.129.053.26.086.387.088.021.001.044.003.062.004h12.801c.018 0 .04-.003.06-.004.127-.002.258-.035.387-.088.019-.008.039-.016.058-.026.125-.058.247-.136.36-.231.009-.008.023-.018.029-.024.001-.001.002-.001.003-.002.248-.219.45-.512.536-.826.52-1.89 1.799-6.669 2.377-8.833l-9.254 4.808 5.097 3.5z"/>
  <animate attributeName="display" fill="freeze" repeatCount="1" dur="1s" keyTimes="0;0.18;0.2;1" values="none;inline;none;none"/>
</g>
<g>
  <path d="M20.369 20.492c.228.156.285.468.129.695-.156.229-.467.286-.695.129l-4.792-3.295-4.784 3.295c-.227.158-.539.099-.696-.128-.156-.228-.099-.539.129-.695l4.396-3.023-9.276-4.804c.587 2.166 1.881 6.943 2.401 8.833.087.315.289.609.538.828 0 0 .001.001.002.001.005.005.017.014.025.021.114.096.237.174.363.233.019.009.038.017.057.026.129.053.26.086.387.088.021.001.044.003.062.004h12.801c.018 0 .04-.003.06-.004.127-.002.258-.035.387-.088.019-.008.039-.016.058-.026.125-.058.247-.136.36-.231.009-.008.023-.018.029-.024.001-.001.002-.001.003-.002.248-.219.45-.512.536-.826.52-1.89 1.799-6.669 2.377-8.833l-9.253 4.808 4.396 3.018z"/>
  <path d="M0 0v30h30V0H0zm23.812 21.764c-.13.474-.416.904-.777 1.241-.007.008-.009.018-.016.025-.099.099-.259.221-.443.332l-.021.012c-.104.061-.213.117-.328.163-.009.003-.017.008-.026.011-.019.008-.038.018-.057.025-.058.021-.121.032-.182.048-.053.014-.105.031-.158.041-.056.01-.116.012-.175.018-.057.005-.113.018-.17.018h-.054c-.009 0-.016.002-.025.002l-.121-.002-12.612.002c-.009 0-.016-.002-.025-.002h-.054c-.058 0-.116-.013-.175-.018-.056-.006-.114-.008-.168-.018-.056-.01-.11-.028-.166-.044-.059-.015-.121-.025-.178-.046-.019-.007-.036-.017-.055-.024-.009-.003-.017-.008-.026-.011-.114-.047-.223-.102-.327-.163-.008-.004-.015-.009-.023-.013-.185-.111-.346-.233-.443-.333-.007-.007-.009-.017-.016-.024-.36-.337-.646-.766-.776-1.24-.52-1.891-1.815-6.669-2.402-8.836l-.296-1.091c-.023-.082-.026-.169-.005-.256.055-.224.255-.382.486-.382.163 0 .257 0 .341.114l10.677 5.533 10.752-5.591c.174-.091.39-.071.543.054.155.124.222.328.171.519.001-.001-1.988 7.454-2.67 9.936z"/>
  <animate attributeName="display" fill="freeze" repeatCount="1" dur="1s" keyTimes="0;0.2;0.22;1" values="none;inline;none;none"/>
</g>
<g>
  <path d="M19.521 19.909c.228.156.285.468.129.695-.156.229-.467.285-.695.129l-3.944-2.712-3.936 2.711c-.226.157-.538.099-.695-.129-.156-.228-.099-.539.129-.695l3.547-2.439-9.276-4.803c.587 2.166 1.881 6.943 2.401 8.833.087.315.289.609.538.828 0 0 .001.001.002.001.005.005.017.014.025.021.114.096.237.174.363.233.019.009.038.017.057.026.129.053.26.086.387.088.021.001.044.003.062.004h12.801c.018 0 .04-.003.06-.004.127-.002.258-.035.387-.088.019-.008.039-.016.058-.026.125-.058.247-.136.36-.231.009-.008.023-.018.029-.024.001-.001.002-.001.003-.002.248-.219.45-.512.536-.826.52-1.89 1.799-6.669 2.377-8.833l-9.253 4.808 3.548 2.435z"/>
  <path d="M0 0v30h30V0H0zm23.812 21.764c-.13.474-.416.904-.777 1.241-.007.008-.009.018-.016.025-.099.099-.259.221-.443.332l-.021.012c-.104.061-.213.117-.328.163-.009.003-.017.008-.026.011-.019.008-.038.018-.057.025-.058.021-.121.032-.182.048-.053.014-.105.031-.158.041-.056.01-.116.012-.175.018-.057.005-.113.018-.17.018h-.054c-.009 0-.016.002-.025.002l-.121-.002-12.612.002c-.009 0-.016-.002-.025-.002h-.054c-.058 0-.116-.013-.175-.018-.056-.006-.114-.008-.168-.018-.056-.01-.11-.028-.166-.044-.059-.015-.121-.025-.178-.046-.019-.007-.036-.017-.055-.024-.009-.003-.017-.008-.026-.011-.114-.047-.223-.102-.327-.163-.008-.004-.015-.009-.023-.013-.185-.111-.346-.233-.443-.333-.007-.007-.009-.017-.016-.024-.36-.337-.646-.766-.776-1.24-.52-1.891-1.815-6.669-2.402-8.836l-.296-1.091c-.023-.082-.026-.169-.005-.256.055-.224.255-.382.486-.382.163 0 .257 0 .341.114l10.677 5.533 10.752-5.591c.174-.091.39-.071.543.054.155.124.222.328.171.519.001-.001-1.988 7.454-2.67 9.936z"/>
  <animate attributeName="display" fill="freeze" repeatCount="1" dur="1s" keyTimes="0;0.22;0.24;1" values="none;inline;none;none"/>
</g>
<g>
  <path d="M0 0v30h30V0H0zm23.812 21.764c-.13.474-.416.904-.777 1.241-.007.008-.009.018-.016.025-.099.099-.259.221-.443.332l-.021.012c-.104.061-.213.117-.328.163-.009.003-.017.008-.026.011-.019.008-.038.018-.057.025-.058.021-.121.032-.182.048-.053.014-.105.031-.158.041-.056.01-.116.012-.175.018-.057.005-.113.018-.17.018h-.054c-.009 0-.016.002-.025.002l-.121-.002-12.612.002c-.009 0-.016-.002-.025-.002h-.054c-.058 0-.116-.013-.175-.018-.056-.006-.114-.008-.168-.018-.056-.01-.11-.028-.166-.044-.059-.015-.121-.025-.178-.046-.019-.007-.036-.017-.055-.024-.009-.003-.017-.008-.026-.011-.114-.047-.223-.102-.327-.163-.008-.004-.015-.009-.023-.013-.185-.111-.346-.233-.443-.333-.007-.007-.009-.017-.016-.024-.36-.337-.646-.766-.776-1.24-.52-1.891-1.815-6.669-2.402-8.836l-.296-1.091c-.023-.082-.026-.169-.005-.256.055-.224.255-.382.486-.382.163 0 .257 0 .341.114l10.677 5.533 10.752-5.591c.174-.091.39-.071.543.054.155.124.222.328.171.519.001-.001-1.988 7.454-2.67 9.936z"/>
  <path d="M18.498 19.206c.228.156.285.468.129.695s-.467.285-.695.129l-2.921-2.009-2.914 2.009c-.227.157-.538.098-.695-.129-.156-.228-.099-.539.129-.695l2.526-1.737-9.276-4.803c.587 2.166 1.881 6.943 2.401 8.833.087.315.289.609.538.828 0 0 .001.001.002.001.005.005.017.014.025.021.114.096.237.174.363.233.019.009.038.017.057.026.129.053.26.086.387.088.021.001.044.003.062.004h12.801c.018 0 .04-.003.06-.004.127-.002.258-.035.387-.088.019-.008.039-.016.058-.026.125-.058.247-.136.36-.231.009-.008.023-.018.029-.024.001-.001.002-.001.003-.002.248-.219.45-.512.536-.826.52-1.89 1.799-6.669 2.377-8.833l-9.253 4.807 2.524 1.733z"/>
  <animate attributeName="display" fill="freeze" repeatCount="1" dur="1s" keyTimes="0;0.24;0.26;1" values="none;inline;none;none"/>
</g>
<g>
  <path d="M0 0v30h30V0H0zm23.812 21.764c-.13.474-.416.904-.777 1.241-.007.008-.009.018-.016.025-.099.099-.259.221-.443.332l-.021.012c-.104.061-.213.117-.328.163-.009.003-.017.008-.026.011-.019.008-.038.018-.057.025-.058.021-.121.032-.182.048-.053.014-.105.031-.158.041-.056.01-.116.012-.175.018-.057.005-.113.018-.17.018h-.054c-.009 0-.016.002-.025.002l-.121-.002-12.612.002c-.009 0-.016-.002-.025-.002h-.054c-.058 0-.116-.013-.175-.018-.056-.006-.114-.008-.168-.018-.056-.01-.11-.028-.166-.044-.059-.015-.121-.025-.178-.046-.019-.007-.036-.017-.055-.024-.009-.003-.017-.008-.026-.011-.114-.047-.223-.102-.327-.163-.008-.004-.015-.009-.023-.013-.185-.111-.346-.233-.443-.333-.007-.007-.009-.017-.016-.024-.36-.337-.646-.766-.776-1.24-.52-1.891-1.815-6.669-2.402-8.836l-.296-1.091c-.023-.082-.026-.169-.005-.256.055-.224.255-.382.486-.382.163 0 .257 0 .341.114l10.677 5.533 10.752-5.591c.174-.091.39-.071.543.054.155.124.222.328.171.519.001-.001-1.988 7.454-2.67 9.936z"/>
  <path d="M17.287 18.373c.228.156.285.468.129.695-.155.228-.468.285-.695.129l-1.71-1.176-1.703 1.176c-.227.157-.538.1-.695-.129-.156-.228-.099-.539.129-.695l1.314-.904-9.276-4.804c.587 2.166 1.881 6.943 2.401 8.833.087.315.289.609.538.828 0 0 .001.001.002.001.005.005.017.014.025.021.114.096.237.174.363.233.019.009.038.017.057.026.129.053.26.086.387.088.021.001.044.003.062.004h12.801c.018 0 .04-.003.06-.004.127-.002.258-.035.387-.088.019-.008.039-.016.058-.026.125-.058.247-.136.36-.231.009-.008.023-.018.029-.024.001-.001.002-.001.003-.002.248-.219.45-.512.536-.826.52-1.89 1.799-6.669 2.377-8.833l-9.253 4.807 1.314.901z"/>
  <animate attributeName="display" fill="freeze" repeatCount="1" dur="1s" keyTimes="0;0.26;0.28;1" values="none;inline;none;none"/>
</g>
<g>
  <path d="M0 0v30h30V0H0zm23.812 21.764c-.13.474-.416.904-.777 1.241-.007.008-.009.018-.016.025-.099.099-.259.221-.443.332l-.021.012c-.104.061-.213.117-.328.163-.009.003-.017.008-.026.011-.019.008-.038.018-.057.025-.058.021-.121.032-.182.048-.053.014-.105.031-.158.041-.056.01-.116.012-.175.018-.057.005-.113.018-.17.018h-.054c-.009 0-.016.002-.025.002l-.121-.002-12.612.002c-.009 0-.016-.002-.025-.002h-.054c-.058 0-.116-.013-.175-.018-.056-.006-.114-.008-.168-.018-.056-.01-.11-.028-.166-.044-.059-.015-.121-.025-.178-.046-.019-.007-.036-.017-.055-.024-.009-.003-.017-.008-.026-.011-.114-.047-.223-.102-.327-.163-.008-.004-.015-.009-.023-.013-.185-.111-.346-.233-.443-.333-.007-.007-.009-.017-.016-.024-.36-.337-.646-.766-.776-1.24-.52-1.891-1.815-6.669-2.402-8.836l-.296-1.091c-.023-.082-.026-.169-.005-.256.055-.224.255-.382.486-.382.163 0 .257 0 .341.114l10.677 5.533 10.752-5.591c.174-.091.39-.071.543.054.155.124.222.328.171.519.001-.001-1.988 7.454-2.67 9.936z"/>
  <path d="M16.015 18.105c-.156.228-.467.286-.695.129l-.308-.212-.303.211c-.227.157-.538.099-.695-.129-.137-.2-.101-.458.061-.626L4.78 12.665c.587 2.166 1.881 6.943 2.401 8.833.087.315.289.609.538.828 0 0 .001.001.002.001.005.005.017.014.025.021.114.096.237.174.363.233.019.009.038.017.057.026.129.053.26.086.387.088.021.001.044.003.062.004h12.801c.018 0 .04-.003.06-.004.127-.002.258-.035.387-.088.019-.008.039-.016.058-.026.125-.058.247-.136.36-.231.009-.008.023-.018.029-.024.001-.001.002-.001.003-.002.248-.219.45-.512.536-.826.52-1.89 1.799-6.669 2.377-8.833l-9.27 4.816c.161.167.196.425.059.624z"/>
  <animate attributeName="display" fill="freeze" repeatCount="1" dur="1s" keyTimes="0;0.28;0.3;1" values="none;inline;none;none"/>
</g>
<g>
  <path d="M0 0v30h30V0H0zm23.812 21.764c-.13.474-.416.904-.777 1.241-.007.008-.009.018-.016.025-.099.099-.259.221-.443.332l-.021.012c-.104.061-.213.117-.328.163-.009.003-.017.008-.026.011-.019.008-.038.018-.057.025-.058.021-.121.032-.182.048-.053.014-.105.031-.158.041-.056.01-.116.012-.175.018-.057.005-.113.018-.17.018h-.054c-.009 0-.016.002-.025.002l-.121-.002-12.612.002c-.009 0-.016-.002-.025-.002h-.054c-.058 0-.116-.013-.175-.018-.056-.006-.114-.008-.168-.018-.056-.01-.11-.028-.166-.044-.059-.015-.121-.025-.178-.046-.019-.007-.036-.017-.055-.024-.009-.003-.017-.008-.026-.011-.114-.047-.223-.102-.327-.163-.008-.004-.015-.009-.023-.013-.185-.111-.346-.233-.443-.333-.007-.007-.009-.017-.016-.024-.36-.337-.646-.766-.776-1.24-.52-1.891-1.815-6.669-2.402-8.836l-.296-1.091c-.023-.082-.026-.169-.005-.256.055-.224.255-.382.486-.382.163 0 .257 0 .341.114l9.785 5.071c.245.128.341.43.214.675-.127.244-.431.34-.674.214l-8.886-4.605c.587 2.166 1.881 6.942 2.401 8.832.087.315.289.609.538.828 0 0 .001.001.002.001.005.005.017.014.025.021.114.096.237.174.363.233.019.009.038.017.057.026.129.053.26.086.387.088.021.001.044.003.062.004h12.801c.018 0 .04-.003.06-.004.127-.002.258-.035.387-.088.019-.008.039-.016.058-.026.125-.058.247-.136.36-.231.009-.008.023-.018.029-.024.001-.001.002-.001.003-.002.248-.219.45-.512.536-.826.52-1.89 1.799-6.669 2.377-8.833l-8.862 4.604c-.243.13-.546.033-.674-.213-.127-.245-.032-.547.213-.674l9.868-5.127c.174-.091.39-.071.543.054.155.124.222.328.171.519 0-.003-1.989 7.452-2.671 9.934z"/>
  <animate attributeName="display" fill="freeze" repeatCount="1" dur="1s" keyTimes="0;0.3;0.32;1" values="none;inline;none;none"/>
</g>
<g>
  <path d="M0 0v30h30V0H0zm23.812 21.764c-.13.474-.416.904-.777 1.241-.007.008-.009.018-.016.025-.099.099-.259.221-.443.332l-.021.012c-.104.061-.213.117-.328.163-.009.003-.017.008-.026.011-.019.008-.038.018-.057.025-.058.021-.121.032-.182.048-.053.014-.105.031-.158.041-.056.01-.116.012-.175.018-.057.005-.113.018-.17.018h-.054c-.009 0-.016.002-.025.002l-.121-.002-12.612.002c-.009 0-.016-.002-.025-.002h-.054c-.058 0-.116-.013-.175-.018-.056-.006-.114-.008-.168-.018-.056-.01-.11-.028-.166-.044-.059-.015-.121-.025-.178-.046-.019-.007-.036-.017-.055-.024-.009-.003-.017-.008-.026-.011-.114-.047-.223-.102-.327-.163-.008-.004-.015-.009-.023-.013-.185-.111-.346-.233-.443-.333-.007-.007-.009-.017-.016-.024-.36-.337-.646-.766-.776-1.24-.52-1.891-1.815-6.669-2.402-8.836l-.296-1.091c-.023-.082-.026-.169-.005-.256.055-.224.255-.382.486-.382.163 0 .257 0 .341.114l7.788 4.036c.245.127.341.429.214.674-.127.243-.432.339-.674.214l-6.889-3.57c.587 2.166 1.881 6.942 2.401 8.832.087.315.289.609.538.828 0 0 .001.001.002.001.005.005.017.014.025.021.114.096.237.174.363.233.019.009.038.017.057.026.129.053.26.086.387.088.021.001.044.003.062.004h12.801c.018 0 .04-.003.06-.004.127-.002.258-.035.387-.088.019-.008.039-.016.058-.026.125-.058.247-.136.36-.231.009-.008.023-.018.029-.024.001-.001.002-.001.003-.002.248-.219.45-.512.536-.826.52-1.89 1.799-6.669 2.377-8.833l-6.865 3.567c-.242.129-.547.033-.674-.213-.128-.245-.032-.547.213-.674l7.871-4.09c.174-.091.39-.071.543.054.155.124.222.328.171.519 0-.002-1.989 7.453-2.671 9.935z"/>
  <animate attributeName="display" fill="freeze" repeatCount="1" dur="1s" keyTimes="0;0.32;0.34;1" values="none;inline;none;none"/>
</g>
<g>
  <path d="M0 0v30h30V0H0zm23.812 21.764c-.13.474-.416.904-.777 1.241-.007.008-.009.018-.016.025-.099.099-.259.221-.443.332l-.021.012c-.104.061-.213.117-.328.163-.009.003-.017.008-.026.011-.019.008-.038.018-.057.025-.058.021-.121.032-.182.048-.053.014-.105.031-.158.041-.056.01-.116.012-.175.018-.057.005-.113.018-.17.018h-.054c-.009 0-.016.002-.025.002l-.121-.002-12.612.002c-.009 0-.016-.002-.025-.002h-.054c-.058 0-.116-.013-.175-.018-.056-.006-.114-.008-.168-.018-.056-.01-.11-.028-.166-.044-.059-.015-.121-.025-.178-.046-.019-.007-.036-.017-.055-.024-.009-.003-.017-.008-.026-.011-.114-.047-.223-.102-.327-.163-.008-.004-.015-.009-.023-.013-.185-.111-.346-.233-.443-.333-.007-.007-.009-.017-.016-.024-.36-.337-.646-.766-.776-1.24-.52-1.891-1.815-6.669-2.402-8.836l-.296-1.091c-.023-.082-.026-.169-.005-.256.055-.224.255-.382.486-.382.163 0 .257 0 .341.114l5.523 2.863c.245.127.341.429.214.674-.127.245-.43.34-.674.214l-4.625-2.396c.587 2.166 1.881 6.942 2.401 8.832.087.315.289.609.538.828 0 0 .001.001.002.001.005.005.017.014.025.021.114.096.237.174.363.233.019.009.038.017.057.026.129.053.26.086.387.088.021.001.044.003.062.004h12.801c.018 0 .04-.003.06-.004.127-.002.258-.035.387-.088.019-.008.039-.016.058-.026.125-.058.247-.136.36-.231.009-.008.023-.018.029-.024.001-.001.002-.001.003-.002.248-.219.45-.512.536-.826.52-1.89 1.799-6.669 2.377-8.833l-4.603 2.392c-.242.125-.547.032-.674-.213-.128-.245-.032-.547.213-.674l5.608-2.914c.174-.091.39-.071.543.054.155.124.222.328.171.519.002-.004-1.987 7.451-2.669 9.933z"/>
  <animate attributeName="display" fill="freeze" repeatCount="1" dur="1s" keyTimes="0;0.34;0.36;1" values="none;inline;none;none"/>
</g>
<g>
  <path d="M0 0v30h30V0H0zm23.812 21.764c-.13.474-.416.904-.777 1.241-.007.008-.009.018-.016.025-.099.099-.259.221-.443.332l-.021.012c-.104.061-.213.117-.328.163-.009.003-.017.008-.026.011-.019.008-.038.018-.057.025-.058.021-.121.032-.182.048-.053.014-.105.031-.158.041-.056.01-.116.012-.175.018-.057.005-.113.018-.17.018h-.054c-.009 0-.016.002-.025.002l-.121-.002-12.612.002c-.009 0-.016-.002-.025-.002h-.054c-.058 0-.116-.013-.175-.018-.056-.006-.114-.008-.168-.018-.056-.01-.11-.028-.166-.044-.059-.015-.121-.025-.178-.046-.019-.007-.036-.017-.055-.024-.009-.003-.017-.008-.026-.011-.114-.047-.223-.102-.327-.163-.008-.004-.015-.009-.023-.013-.185-.111-.346-.233-.443-.333-.007-.007-.009-.017-.016-.024-.36-.337-.646-.766-.776-1.24-.52-1.891-1.815-6.669-2.402-8.836l-.296-1.091c-.023-.082-.026-.169-.005-.256.055-.224.255-.382.486-.382.163 0 .257 0 .341.114l2.976 1.542c.245.127.341.429.214.674-.127.246-.429.341-.674.214l-2.077-1.076c.587 2.166 1.881 6.942 2.401 8.832.087.315.289.609.538.828 0 0 .001.001.002.001.005.005.017.014.025.021.114.096.237.174.363.233.019.009.038.017.057.026.129.053.26.086.387.088.021.001.044.003.062.004h12.801c.018 0 .04-.003.06-.004.127-.002.258-.035.387-.088.019-.008.039-.016.058-.026.125-.058.247-.136.36-.231.009-.008.023-.018.029-.024.001-.001.002-.001.003-.002.248-.219.45-.512.536-.826.52-1.89 1.799-6.669 2.377-8.833l-2.056 1.068c-.243.125-.547.032-.674-.213-.128-.245-.032-.547.213-.674l3.062-1.591c.174-.091.39-.071.543.054.155.124.222.328.171.519 0-.002-1.989 7.453-2.671 9.935z"/>
  <animate attributeName="display" fill="freeze" repeatCount="1" dur="1s" keyTimes="0;0.36;0.38;1" values="none;inline;none;none"/>
</g>
<g>
  <path d="M0 0v30h30V0H0zm23.812 21.764c-.13.474-.416.904-.777 1.241-.007.008-.009.018-.016.025-.099.099-.259.221-.443.332l-.021.012c-.104.061-.213.117-.328.163-.009.003-.017.008-.026.011-.019.008-.038.018-.057.025-.058.021-.121.032-.182.048-.053.014-.105.031-.158.041-.056.01-.116.012-.175.018-.057.005-.113.018-.17.018h-.054c-.009 0-.016.002-.025.002l-.121-.002-12.612.002c-.009 0-.016-.002-.025-.002h-.054c-.058 0-.116-.013-.175-.018-.056-.006-.114-.008-.168-.018-.056-.01-.11-.028-.166-.044-.059-.015-.121-.025-.178-.046-.019-.007-.036-.017-.055-.024-.009-.003-.017-.008-.026-.011-.114-.047-.223-.102-.327-.163-.008-.004-.015-.009-.023-.013-.185-.111-.346-.233-.443-.333-.007-.007-.009-.017-.016-.024-.36-.337-.646-.766-.776-1.24-.52-1.891-1.815-6.669-2.402-8.836l-.296-1.091c-.023-.082-.026-.169-.005-.256.055-.224.255-.382.486-.382.163 0 .257 0 .341.114l.117.061c.245.127.341.429.214.674-.012.024-.026.047-.042.068.043.156.093.338.15.551.587 2.166 1.881 6.943 2.401 8.833.087.315.289.609.538.828 0 0 .001.001.002.001.005.005.017.014.025.021.114.096.237.174.363.233.019.009.038.017.057.026.129.053.26.086.387.088.021.001.044.003.062.004h12.801c.018 0 .04-.003.06-.004.127-.002.258-.035.387-.088.019-.008.039-.016.058-.026.125-.058.247-.136.36-.231.009-.008.023-.018.029-.024.001-.001.002-.001.003-.002.248-.219.45-.512.536-.826.573-2.086 2.071-7.69 2.532-9.416-.01-.015-.019-.03-.027-.046-.128-.245-.032-.547.212-.675l.204-.106c.176-.093.389-.072.544.053.155.124.222.328.171.519 0-.002-1.989 7.453-2.671 9.935z"/>
  <animate attributeName="display" fill="freeze" repeatCount="1" dur="1s" keyTimes="0;0.38;0.4;1" values="none;inline;none;none"/>
</g>
<g>
  <path d="M0 0v30h30V0H0zm25.621 15.055c-.625 2.333-1.424 5.31-1.809 6.708-.13.474-.416.904-.777 1.241-.007.008-.009.018-.016.025-.099.099-.259.221-.443.332l-.021.012c-.104.061-.213.117-.328.163-.009.003-.017.008-.026.011-.019.008-.038.018-.057.025-.058.021-.121.032-.182.048-.053.014-.105.031-.158.041-.056.01-.116.012-.175.018-.057.005-.113.018-.17.018h-.054c-.009 0-.016.002-.025.002l-.121-.002-12.612.003c-.009 0-.016-.002-.025-.002h-.054c-.058 0-.116-.013-.175-.018-.056-.006-.114-.008-.168-.018-.056-.01-.11-.028-.166-.044-.059-.015-.121-.025-.178-.046-.019-.007-.036-.017-.055-.024-.009-.003-.017-.008-.026-.011-.114-.047-.223-.102-.327-.163-.008-.004-.015-.009-.023-.013-.185-.111-.346-.233-.443-.333-.007-.007-.009-.017-.016-.024-.36-.337-.646-.766-.776-1.24-.386-1.404-1.199-4.398-1.833-6.736-.072-.267.085-.541.352-.613.268-.073.541.085.613.352.633 2.335 1.446 5.33 1.832 6.732.087.315.289.609.538.828 0 0 .001.001.002.001.005.005.017.014.025.021.114.096.237.174.363.233.019.009.038.017.057.026.129.053.26.086.387.088.021.001.044.003.062.004h12.801c.018 0 .04-.003.06-.004.127-.002.258-.035.387-.088.019-.008.039-.016.058-.026.125-.058.247-.136.36-.231.009-.008.023-.018.029-.024.001-.001.002-.001.003-.002.248-.219.45-.512.536-.826.385-1.396 1.184-4.371 1.807-6.702.072-.266.345-.428.612-.354.268.071.426.345.355.612z"/>
  <animate attributeName="display" fill="freeze" repeatCount="1" dur="1s" keyTimes="0;0.4;0.42;1" values="none;inline;none;none"/>
</g>
<g>
  <path d="M0 0v30h30V0H0zm24.594 18.877c-.313 1.164-.596 2.21-.781 2.887-.13.474-.416.904-.777 1.241-.007.008-.009.018-.016.025-.099.099-.259.221-.443.332l-.021.012c-.104.061-.213.117-.328.163-.009.003-.017.008-.026.011-.019.008-.038.018-.057.025-.058.021-.121.032-.182.048-.053.014-.105.031-.158.041-.056.01-.116.012-.175.018-.057.005-.113.018-.17.018h-.054c-.009 0-.016.002-.025.002l-.121-.002-12.613.002c-.009 0-.016-.002-.025-.002h-.054c-.058 0-.116-.013-.175-.018-.056-.006-.114-.008-.168-.018-.056-.01-.11-.028-.166-.044-.059-.015-.121-.025-.178-.046-.019-.007-.036-.017-.055-.024-.009-.003-.017-.008-.026-.011-.114-.047-.223-.102-.327-.163-.008-.004-.015-.009-.023-.013-.185-.111-.346-.233-.443-.333-.007-.007-.009-.017-.016-.024-.36-.337-.646-.766-.776-1.24-.188-.683-.477-1.741-.796-2.917-.072-.267.085-.541.351-.613.267-.071.542.085.614.352.319 1.174.607 2.23.795 2.913.087.315.289.609.538.828 0 0 .001.001.002.001.005.005.017.014.025.021.114.096.237.174.363.233.019.009.038.017.057.026.129.053.26.086.387.088.021.001.044.003.062.004h12.801c.018 0 .04-.003.06-.004.127-.002.258-.035.387-.088.019-.008.039-.016.058-.026.125-.058.247-.136.36-.231.009-.008.023-.018.029-.024.001-.001.002-.001.003-.002.248-.219.45-.512.536-.826.186-.675.468-1.719.781-2.881.071-.267.349-.423.612-.353.268.071.426.345.354.612z"/>
  <animate attributeName="display" fill="freeze" repeatCount="1" dur="1s" keyTimes="0;0.42;0.44;1" values="none;inline;none;none"/>
</g>
<g>
  <path d="M0 0v30h30V0H0zm23.02 23.029c-.022.022-.054.048-.082.072-.005.004-.006.01-.011.014-.008.007-.018.012-.026.019-.079.066-.172.134-.279.201-.038.024-.077.045-.116.067-.068.039-.138.073-.211.105-.039.017-.077.036-.117.051-.011.004-.022.01-.033.014-.04.014-.083.02-.124.032-.075.022-.149.045-.224.059-.045.008-.094.009-.141.014-.065.007-.131.02-.196.02h-.054c-.009 0-.016.002-.025.002l-.121-.002-12.613.003c-.009 0-.016-.002-.025-.002h-.054c-.06 0-.121-.013-.182-.019-.053-.006-.108-.007-.159-.016-.073-.013-.145-.036-.217-.057-.042-.012-.087-.019-.129-.034-.014-.005-.028-.013-.042-.018-.04-.015-.078-.034-.118-.051-.078-.036-.153-.073-.225-.115-.034-.02-.068-.037-.102-.059-.114-.072-.21-.145-.291-.215-.011-.009-.022-.015-.033-.024-.005-.004-.007-.011-.012-.015-.016-.015-.038-.031-.051-.046-.194-.196-.192-.513.005-.707.197-.192.514-.191.707.006.003.003.011.009.015.013.123.106.255.188.388.248.015.007.029.013.044.02.131.054.262.085.385.087.021.001.044.003.062.004h12.801c.018 0 .041-.003.061-.004.12-.002.244-.031.369-.08.019-.008.037-.016.056-.025.127-.057.253-.133.373-.235.011-.01.027-.022.034-.029.193-.196.512-.198.707-.004.198.194.2.51.006.706z"/>
  <animate attributeName="display" fill="freeze" repeatCount="1" dur="1s" keyTimes="0;0.44;0.46;1" values="none;inline;none;none"/>
</g>
<g>
  <path d="M0 0v30h30V0H0zm23.02 23.029c-.171.172-.517.416-.875.544-.233.085-.483.127-.763.127l-.123-.002H17.97l-9.323.002c-.279 0-.53-.042-.766-.128-.358-.129-.704-.372-.873-.544-.194-.196-.192-.513.005-.707.197-.192.514-.191.707.006.049.049.268.221.501.305.168.061.323.068.426.068l.123-.002h9.2c.002 0 .004.001.006.001l3.406.001c.103 0 .257-.007.422-.067.219-.078.439-.241.505-.307.193-.196.512-.198.707-.004.196.195.198.511.004.707z"/>
  <animate attributeName="display" fill="freeze" repeatCount="1" dur="1s" keyTimes="0;0.46;0.48;1" values="none;inline;none;none"/>
</g>
<g>
  <path d="M0 0v30h30V0H0zm12.79 23.698l-4.143.002c-.279 0-.53-.042-.766-.128-.358-.129-.704-.372-.873-.544-.194-.196-.192-.513.005-.707.197-.192.514-.191.707.006.049.049.268.221.501.305.168.061.323.068.426.068l.123-.002h4.02c.276 0 .5.224.5.5s-.224.5-.5.5zm10.23-.669c-.171.172-.517.416-.875.544-.233.085-.483.127-.763.127l-.123-.002h-4.054c-.276 0-.5-.224-.5-.5s.224-.5.5-.5l4.177.002c.103 0 .257-.007.422-.067.219-.078.439-.241.505-.307.193-.196.512-.198.707-.004.196.195.198.511.004.707z"/>
  <animate attributeName="display" fill="freeze" repeatCount="1" dur="1s" keyTimes="0;0.48;0.5;1" values="none;inline;none;none"/>
</g>
<g>
  <rect width="30" height="30"/>
  <animate attributeName="display" fill="freeze" repeatCount="1" dur="1s" keyTimes="0;0.5;0.52;1" values="none;inline;none;none"/>
</g>
<g>
  <path d="M0 0v30h30V0H0zm12.286 19.899l-4.639 3.19c-.086.06-.185.088-.283.088-.159 0-.315-.076-.413-.217-.156-.228-.099-.539.129-.695l4.639-3.19c.228-.155.539-.097.695.129.157.228.1.539-.128.695zm10.791 3.062c-.097.141-.254.217-.412.217-.098 0-.196-.028-.283-.088l-4.64-3.189c-.228-.156-.285-.468-.129-.695.157-.228.469-.284.695-.129l4.64 3.189c.228.156.285.467.129.695z"/>
  <animate attributeName="display" fill="freeze" repeatCount="1" dur="1s" keyTimes="0;0.52;0.54;1" values="none;inline;none;none"/>
</g>
<g>
  <path d="M0 0v30h30V0H0zm23.077 22.961c-.097.141-.254.217-.412.217-.098 0-.196-.028-.283-.088l-7.372-5.068-7.363 5.068c-.086.06-.185.088-.283.088-.159 0-.315-.076-.413-.217-.156-.228-.099-.539.129-.695l6.974-4.796-.619-.319c-.245-.128-.341-.43-.214-.675.126-.245.429-.341.674-.214l1.122.582 1.116-.583c.242-.129.547-.034.674.213.128.245.032.547-.213.674l-.623.324 6.977 4.793c.228.157.285.468.129.696z"/>
  <animate attributeName="display" fill="freeze" repeatCount="1" dur="1s" keyTimes="0;0.54;0.56;1" values="none;inline;none;none"/>
</g>
<g>
  <polygon points="15.505 16.591 16.529 16.059 15.505 16.301"/>
  <polygon points="14.505 16.301 13.516 16.067 14.505 16.58"/>
  <path d="M0 0v30h30V0H0zm23.077 22.961c-.097.141-.254.217-.412.217-.098 0-.196-.028-.283-.088l-7.372-5.068-7.363 5.068c-.086.06-.185.088-.283.088-.159 0-.315-.076-.413-.217-.156-.228-.099-.539.129-.695l6.975-4.797-4.838-2.503c-.245-.127-.341-.429-.214-.674.126-.246.429-.341.674-.214l.193.1 5.134 1.213 5.142-1.215.201-.105c.242-.126.547-.032.674.213.128.245.032.547-.213.674l-4.838 2.513 6.977 4.793c.229.158.286.469.13.697z"/>
  <animate attributeName="display" fill="freeze" repeatCount="1" dur="1s" keyTimes="0;0.56;0.58;1" values="none;inline;none;none"/>
</g>
<g>
  <polygon points="15.505 15.381 15.506 16.591 18.069 15.258"/>
  <polygon points="14.505 15.379 11.955 15.258 14.506 16.58"/>
  <path d="M0 0v30h30V0H0zm24.642 12.968l-8.671 4.505 6.977 4.793c.228.156.285.468.129.695-.097.141-.254.217-.412.217-.098 0-.196-.028-.283-.088l-7.372-5.068-7.363 5.068c-.086.06-.185.088-.283.088-.159 0-.315-.076-.413-.217-.156-.228-.099-.539.129-.695l6.975-4.797-4.568-2.365c-.009-.004-.017-.009-.026-.014l-4.079-2.112c-.245-.127-.341-.429-.214-.674.126-.247.429-.342.674-.214l3.986 2.065 5.201.25 5.161-.25 3.991-2.075c.243-.127.547-.032.674.213.127.246.032.547-.213.675z"/>
  <animate attributeName="display" fill="freeze" repeatCount="1" dur="1s" keyTimes="0;0.58;0.6;1" values="none;inline;none;none"/>
</g>
<g>
  <polygon points="14.505 13.595 10.981 14.753 14.506 16.58"/>
  <path d="M0 0v30h30V0H0zm25.923 13.922c-.072.268-.342.428-.613.354-.267-.072-.425-.346-.354-.612l.268-.999-9.253 4.807 6.977 4.793c.228.156.285.468.129.695-.097.141-.254.217-.412.217-.098 0-.196-.028-.283-.088l-7.372-5.068-7.363 5.069c-.086.06-.185.088-.283.088-.159 0-.315-.076-.413-.217-.156-.228-.099-.539.129-.695l6.975-4.797-9.276-4.803.263.969c.072.267-.085.541-.352.613-.265.073-.541-.084-.613-.352l-.559-2.059c-.023-.082-.026-.17-.005-.257.055-.224.255-.382.486-.382.169 0 .268.012.349.117l5.39 2.793 5.111-1.679c.011-.003.022.003.033 0 .04-.011.08-.025.123-.025s.083.014.123.025c.011.003.022-.003.033 0l5.116 1.68 5.492-2.856c.174-.091.39-.071.543.054.155.124.222.328.171.519l-.56 2.096z"/>
  <polygon points="15.505 13.595 15.506 16.591 19.037 14.755"/>
  <animate attributeName="display" fill="freeze" repeatCount="1" dur="1s" keyTimes="0;0.6;0.62;1" values="none;inline;none;none"/>
</g>
<g>
  <polygon points="14.505 11.869 10.654 14.584 14.506 16.58"/>
  <path d="M0 0v30h30V0H0zm24.999 17.368c-.071.267-.341.425-.612.353-.267-.071-.425-.346-.353-.612.45-1.677.905-3.377 1.19-4.444l-9.254 4.808 6.977 4.793c.228.156.285.468.129.695-.097.141-.254.217-.412.217-.098 0-.196-.028-.283-.088l-7.372-5.068-7.362 5.068c-.086.06-.185.088-.283.088-.159 0-.315-.076-.413-.217-.156-.228-.099-.539.129-.695l6.975-4.797-4.577-2.37-.024-.012-4.675-2.421 1.196 4.412c.072.267-.085.541-.352.613-.264.072-.541-.085-.613-.352l-1.493-5.503c-.023-.081-.026-.169-.005-.255.055-.224.255-.382.486-.382.173 0 .268 0 .353.12l5.302 2.747 5.063-3.569c.009-.007.021-.004.031-.01.076-.047.16-.081.255-.081h.004c.095 0 .179.034.255.081.01.006.022.003.031.01l5.067 3.571 5.41-2.813c.174-.091.39-.071.543.054.155.124.222.328.171.519 0-.001-.747 2.8-1.484 5.54z"/>
  <polygon points="15.505 11.869 15.506 16.591 19.361 14.587"/>
  <animate attributeName="display" fill="freeze" repeatCount="1" dur="1s" keyTimes="0;0.62;0.64;1" values="none;inline;none;none"/>
</g>
<g>
  <polygon points="15.505 10.182 15.506 16.591 19.508 14.51"/>
  <polygon points="14.505 10.182 10.505 14.507 14.506 16.58"/>
  <path d="M0 0v30h30V0H0zm24.16 20.484c-.072.267-.342.425-.613.352-.267-.072-.424-.347-.352-.613.611-2.258 1.556-5.785 2.029-7.558l-9.254 4.808 6.977 4.793c.228.156.285.468.129.695-.097.141-.254.217-.412.217-.098 0-.196-.028-.283-.088l-7.372-5.068-7.362 5.068c-.086.06-.185.088-.283.088-.159 0-.315-.076-.413-.217-.156-.228-.099-.539.129-.695l6.975-4.797-4.542-2.352c-.001 0-.002-.001-.003-.001l-4.731-2.45c.017.062.034.126.052.193.493 1.818 1.396 5.153 1.991 7.331.073.267-.084.542-.351.614-.264.072-.541-.085-.614-.351-.594-2.179-1.498-5.515-1.991-7.333l-.348-1.283c-.023-.082-.026-.17-.005-.257.055-.224.255-.382.486-.382.154 0 .246 0 .331.108l5.255 2.723 5.053-5.464c.002-.002.005-.003.008-.005.091-.095.218-.155.36-.155s.268.06.36.155c.002.002.005.003.008.005l5.056 5.466 5.342-2.778c.174-.091.39-.071.543.054.155.124.222.328.171.519-.003.001-1.481 5.54-2.326 8.658z"/>
  <animate attributeName="display" fill="freeze" repeatCount="1" dur="1s" keyTimes="0;0.64;0.66;1" values="none;inline;none;none"/>
</g>
<g>
  <polygon points="14.505 8.517 10.425 14.465 14.506 16.58"/>
  <path d="M7.44 22.018l6.615-4.549-9.276-4.803c.587 2.166 1.881 6.943 2.401 8.833.049.175.14.355.26.519z"/>
  <polygon points="15.505 8.518 15.506 16.591 19.588 14.469"/>
  <path d="M22.589 22.019c.12-.164.211-.343.259-.521.52-1.89 1.799-6.669 2.377-8.833l-9.254 4.808 6.618 4.546z"/>
  <path d="M0 0v30h30V0H0zm23.812 21.764c-.133.482-.442.945-.84 1.299-.017.013-.031.03-.049.041-.067.057-.13.119-.202.169-.087.061-.187.09-.286.09-.157 0-.312-.074-.41-.214-.076-.109-.1-.238-.082-.36l-6.933-4.767-6.955 4.787c.008.112-.016.228-.086.326-.098.135-.251.207-.406.207-.101 0-.204-.03-.292-.095-.06-.043-.112-.096-.169-.144-.015-.009-.026-.023-.039-.034-.405-.356-.713-.816-.847-1.306-.52-1.89-1.814-6.668-2.401-8.835l-.296-1.091c-.023-.082-.026-.169-.005-.256.055-.224.255-.382.486-.382.163 0 .257 0 .341.114l5.19 2.69 5.062-7.38c.006-.009.018-.012.025-.021.091-.116.227-.196.387-.196.159 0 .295.08.387.196.007.009.019.012.025.021l5.064 7.382 5.288-2.75c.174-.091.39-.071.543.054.155.124.222.328.171.519 0-.001-1.989 7.454-2.671 9.936z"/>
  <animate attributeName="display" fill="freeze" repeatCount="1" dur="1s" keyTimes="0;0.66;0.68;1" values="none;inline;none;none"/>
</g>
<g>
  <polygon points="14.505 6.866 10.376 14.44 14.506 16.58"/>
  <path d="M7.445 22.015l6.611-4.546-4.587-2.375c-.005-.003-.011-.002-.016-.005-.004-.002-.006-.006-.01-.009L4.78 12.665c.587 2.166 1.881 6.943 2.401 8.833.05.185.147.357.264.517z"/>
  <polygon points="15.505 6.867 15.506 16.591 19.636 14.444"/>
  <path d="M22.584 22.015c.116-.16.213-.332.264-.517.52-1.89 1.799-6.669 2.377-8.833l-9.254 4.808 6.613 4.542z"/>
  <path d="M0 0v30h30V0H0zm23.812 21.764c-.293 1.066-1.349 1.935-2.353 1.935h-1.5c-.276 0-.5-.224-.5-.5s.224-.5.5-.5h1.5c.087 0 .176-.035.265-.06l-6.715-4.617-6.707 4.617c.089.025.178.06.265.06h1.467c.276 0 .5.224.5.5s-.224.5-.5.5H8.568c-1.004 0-2.059-.868-2.352-1.935-.52-1.891-1.815-6.669-2.402-8.836l-.296-1.092c-.023-.081-.026-.169-.005-.255.055-.224.255-.382.486-.382.163 0 .257 0 .341.114l5.148 2.667 5.078-9.314c.006-.01.018-.014.024-.023.089-.139.237-.237.415-.237.177 0 .326.098.415.237.006.01.018.013.024.023l5.08 9.316 5.245-2.728c.174-.091.39-.071.543.054.155.124.222.328.171.519 0 0-1.989 7.455-2.671 9.937z"/>
  <animate attributeName="display" fill="freeze" repeatCount="1" dur="1s" keyTimes="0;0.68;0.7;1" values="none;inline;none;none"/>
</g>
<g>
  <polygon points="14.505 7.69 10.398 14.451 14.506 16.58"/>
  <path d="M7.445 22.015l6.611-4.546-4.609-2.387c-.005-.003-.01-.002-.015-.005-.002-.001-.003-.004-.006-.005l-4.647-2.406c.587 2.166 1.881 6.943 2.401 8.833.051.184.148.356.265.516z"/>
  <polygon points="15.505 7.691 15.506 16.591 19.614 14.455"/>
  <path d="M22.584 22.015c.116-.16.213-.332.264-.517.52-1.89 1.799-6.669 2.377-8.833l-9.254 4.808 6.613 4.542z"/>
  <path d="M0 0v30h30V0H0zm23.812 21.764c-.293 1.066-1.349 1.935-2.353 1.935h-3.75c-.276 0-.5-.224-.5-.5s.224-.5.5-.5h3.75c.087 0 .176-.035.265-.06l-6.715-4.617-6.707 4.617c.089.025.178.06.265.06h3.717c.276 0 .5.224.5.5s-.224.5-.5.5H8.568c-1.004 0-2.059-.868-2.352-1.935-.52-1.891-1.815-6.669-2.402-8.836l-.296-1.092c-.023-.081-.026-.169-.005-.255.055-.224.255-.382.486-.382.163 0 .257 0 .341.114l5.168 2.678 5.07-8.345c.007-.011.019-.014.027-.024.091-.127.232-.216.4-.216s.31.088.4.216c.007.01.02.014.027.024l5.072 8.347 5.265-2.738c.174-.091.39-.071.543.054.155.124.222.328.171.519 0-.001-1.989 7.454-2.671 9.936z"/>
  <animate attributeName="display" fill="freeze" repeatCount="1" dur="1s" keyTimes="0;0.7;0.72;1" values="none;inline;none;none"/>
</g>
<g>
  <polygon points="15.505 8.518 15.506 16.591 19.588 14.469"/>
  <path d="M7.445 22.015l6.611-4.546-9.276-4.803c.587 2.166 1.881 6.943 2.401 8.833.05.184.147.356.264.516z"/>
  <polygon points="14.505 8.517 10.425 14.465 14.506 16.58"/>
  <path d="M22.584 22.015c.116-.16.213-.332.264-.517.52-1.89 1.799-6.669 2.377-8.833l-9.254 4.808 6.613 4.542z"/>
  <path d="M0 0v30h30V0H0zm23.812 21.764c-.293 1.066-1.349 1.935-2.353 1.935h-5.73c-.276 0-.5-.224-.5-.5s.224-.5.5-.5h5.73c.087 0 .176-.035.265-.06l-6.715-4.617-6.707 4.617c.089.025.178.06.265.06h5.697c.276 0 .5.224.5.5s-.224.5-.5.5H8.568c-1.004 0-2.059-.868-2.352-1.935-.52-1.891-1.815-6.669-2.402-8.836l-.296-1.092c-.023-.081-.026-.169-.005-.255.055-.224.255-.382.486-.382.163 0 .257 0 .341.114l5.19 2.69 5.062-7.38c.006-.009.018-.012.025-.021.091-.116.227-.196.387-.196.159 0 .295.08.387.196.007.009.019.012.025.021l5.064 7.382 5.288-2.75c.174-.091.39-.071.543.054.155.124.222.328.171.519.001-.001-1.988 7.454-2.67 9.936z"/>
  <animate attributeName="display" fill="freeze" repeatCount="1" dur="1s" keyTimes="0;0.72;0.74;1" values="none;inline;none;none"/>
</g>
<g>
  <path d="M15.01 18.021l-6.707 4.617c.089.025.178.06.265.06H21.46c.087 0 .176-.035.265-.06l-6.715-4.617z"/>
  <path d="M7.445 22.015l6.611-4.546-9.276-4.803c.587 2.166 1.881 6.943 2.401 8.833.05.184.147.356.264.516z"/>
  <polygon points="14.505 9.347 10.46 14.483 14.506 16.58"/>
  <polygon points="15.505 9.348 15.506 16.591 19.553 14.487"/>
  <path d="M0 0v30h30V0H0zm23.812 21.764c-.293 1.066-1.349 1.935-2.353 1.935H8.568c-1.004 0-2.059-.868-2.352-1.935-.52-1.891-1.815-6.669-2.402-8.836l-.296-1.092c-.023-.081-.026-.169-.005-.255.055-.224.255-.382.486-.382.163 0 .257 0 .341.114l5.216 2.703 5.056-6.419c.005-.007.014-.009.019-.015.092-.105.222-.176.373-.176s.281.07.373.175c.006.006.014.008.019.015l5.059 6.422 5.313-2.763c.174-.091.39-.071.543.054.155.124.222.328.171.519.001-.001-1.988 7.454-2.67 9.936z"/>
  <path d="M22.584 22.015c.116-.16.213-.332.264-.517.52-1.89 1.799-6.669 2.377-8.833l-9.254 4.808 6.613 4.542z"/>
  <animate attributeName="display" fill="freeze" repeatCount="1" dur="1s" keyTimes="0;0.74;0.76;1" values="none;inline;none;none"/>
</g>
<g>
  <path d="M7.445 22.015l6.611-4.546-4.566-2.364c-.009-.004-.017-.009-.026-.013l-4.685-2.426c.587 2.166 1.881 6.943 2.401 8.833.051.184.148.356.265.516z"/>
  <polygon points="15.505 11.022 15.506 16.591 19.447 14.542"/>
  <path d="M15.01 18.021l-6.707 4.617c.089.025.178.06.265.06H21.46c.087 0 .176-.035.265-.06l-6.715-4.617z"/>
  <polygon points="14.505 11.022 10.567 14.539 14.506 16.58"/>
  <path d="M0 0v30h30V0H0zm23.812 21.764c-.293 1.066-1.349 1.935-2.353 1.935H8.568c-1.004 0-2.059-.868-2.352-1.935-.52-1.891-1.815-6.669-2.402-8.836l-.296-1.092c-.023-.081-.026-.169-.005-.255.055-.224.255-.382.486-.382.163 0 .257 0 .341.114l5.277 2.734 5.055-4.515c.024-.021.053-.032.08-.048.023-.014.043-.031.068-.041.056-.022.114-.034.173-.035.004 0 .007-.002.011-.002s.007.002.011.002c.059.001.117.013.173.035.025.01.045.027.068.041.027.016.056.027.08.049l5.058 4.517 5.374-2.794c.174-.091.39-.071.543.054.155.124.222.328.171.519.001-.002-1.988 7.453-2.67 9.935z"/>
  <path d="M22.584 22.015c.116-.16.213-.332.264-.517.52-1.89 1.799-6.669 2.377-8.833l-9.254 4.808 6.613 4.542z"/>
  <animate attributeName="display" fill="freeze" repeatCount="1" dur="1s" keyTimes="0;0.76;0.78;1" values="none;inline;none;none"/>
</g>
<g>
  <polygon points="14.505 10.182 10.505 14.507 14.506 16.58"/>
  <polygon points="15.505 10.182 15.506 16.591 19.508 14.51"/>
  <path d="M7.445 22.015l6.611-4.546-4.542-2.352c-.001 0-.002-.001-.003-.001l-4.731-2.45c.587 2.166 1.881 6.943 2.401 8.833.05.184.147.356.264.516z"/>
  <path d="M0 0v30h30V0H0zm23.812 21.764c-.293 1.066-1.349 1.935-2.353 1.935H8.568c-1.004 0-2.059-.868-2.352-1.935-.52-1.891-1.815-6.669-2.402-8.836l-.296-1.092c-.023-.081-.026-.169-.005-.255.055-.224.255-.382.486-.382.163 0 .257 0 .341.114l5.244 2.718 5.053-5.464c.002-.002.005-.003.008-.005.091-.095.218-.155.36-.155s.268.06.36.155c.002.002.005.003.008.005l5.056 5.466 5.342-2.778c.174-.091.39-.071.543.054.155.124.222.328.171.519-.002-.001-1.991 7.454-2.673 9.936z"/>
  <path d="M15.01 18.021l-6.707 4.617c.089.025.178.06.265.06h12.891c.087 0 .176-.035.265-.06l-6.714-4.617z"/>
  <path d="M22.584 22.015c.116-.16.213-.332.264-.517.52-1.89 1.799-6.669 2.377-8.833l-9.254 4.808 6.613 4.542z"/>
  <animate attributeName="display" fill="freeze" repeatCount="1" dur="1s" keyTimes="0;0.78;0.8;1" values="none;inline;none;none"/>
</g>
<g>
  <path d="M7.445 22.015l6.611-4.546-9.276-4.803c.587 2.166 1.881 6.943 2.401 8.833.05.184.147.356.264.516z"/>
  <path d="M0 0v30h30V0H0zm23.812 21.764c-.293 1.066-1.349 1.935-2.353 1.935H8.568c-1.004 0-2.059-.868-2.352-1.935-.52-1.891-1.815-6.669-2.402-8.836l-.296-1.092c-.023-.081-.026-.169-.005-.255.055-.224.255-.382.486-.382.163 0 .257 0 .341.114l5.216 2.703 5.056-6.419c.005-.007.014-.009.019-.015.092-.105.222-.176.373-.176s.281.07.373.175c.006.006.014.008.019.015l5.059 6.422 5.313-2.763c.174-.091.39-.071.543.054.155.124.222.328.171.519.001-.001-1.988 7.454-2.67 9.936z"/>
  <polygon points="14.505 9.347 10.46 14.483 14.506 16.58"/>
  <path d="M15.01 18.021l-6.707 4.617c.089.025.178.06.265.06h12.893c.087 0 .176-.035.265-.06l-6.716-4.617z"/>
  <path d="M22.584 22.015c.116-.16.213-.332.264-.517.52-1.89 1.799-6.669 2.377-8.833l-9.254 4.808 6.613 4.542z"/>
  <polygon points="15.505 9.348 15.506 16.591 19.553 14.487"/>
  <animate attributeName="display" fill="freeze" repeatCount="1" dur="1s" keyTimes="0;0.8;0.82;1" values="none;inline;none;none"/>
</g>
<g>
  <polygon points="14.505 8.517 10.425 14.465 14.506 16.58"/>
  <polygon points="15.505 8.518 15.506 16.591 19.588 14.469"/>
  <path d="M7.445 22.015l6.611-4.546-9.276-4.803c.587 2.166 1.881 6.943 2.401 8.833.05.184.147.356.264.516z"/>
  <path d="M15.01 18.021l-6.707 4.617c.089.025.178.06.265.06H21.46c.087 0 .176-.035.265-.06l-6.715-4.617z"/>
  <path d="M22.584 22.015c.116-.16.213-.332.264-.517.52-1.89 1.799-6.669 2.377-8.833l-9.254 4.808 6.613 4.542z"/>
  <path d="M0 0v30h30V0H0zm23.812 21.764c-.293 1.066-1.349 1.935-2.353 1.935H8.568c-1.004 0-2.059-.868-2.352-1.935-.52-1.891-1.815-6.669-2.402-8.836l-.296-1.092c-.023-.081-.026-.169-.005-.255.055-.224.255-.382.486-.382.163 0 .257 0 .341.114l5.19 2.69 5.062-7.38c.006-.009.018-.012.025-.021.091-.116.227-.196.387-.196.159 0 .295.08.387.196.007.009.019.012.025.021l5.064 7.382 5.288-2.75c.174-.091.39-.071.543.054.155.124.222.328.171.519.001-.001-1.988 7.454-2.67 9.936z"/>
  <animate attributeName="display" fill="freeze" repeatCount="1" dur="1s" keyTimes="0;0.82;0.84;1" values="none;inline;none;none"/>
</g>
<g>
  <path d="M7.445 22.015l6.611-4.546-9.276-4.803c.587 2.166 1.881 6.943 2.401 8.833.05.184.147.356.264.516z"/>
  <polygon points="14.505 8.517 10.425 14.465 14.506 16.58"/>
  <polygon points="15.505 8.518 15.506 16.591 19.588 14.469"/>
  <path d="M22.584 22.015c.116-.16.213-.332.264-.517.52-1.89 1.799-6.669 2.377-8.833l-9.254 4.808 6.613 4.542z"/>
  <path d="M0 0v30h30V0H0zm23.812 21.764c-.293 1.066-1.349 1.935-2.353 1.935H8.568c-1.004 0-2.059-.868-2.352-1.935-.52-1.891-1.815-6.669-2.402-8.836l-.296-1.092c-.023-.081-.026-.169-.005-.255.055-.224.255-.382.486-.382.163 0 .257 0 .341.114l5.19 2.69 5.062-7.38c.006-.009.018-.012.025-.021.091-.116.227-.196.387-.196.159 0 .295.08.387.196.007.009.019.012.025.021l5.064 7.382 5.288-2.75c.174-.091.39-.071.543.054.155.124.222.328.171.519.001-.001-1.988 7.454-2.67 9.936z"/>
  <path d="M21.46 22.698c.087 0 .176-.035.265-.06l-6.715-4.617-6.707 4.617c.089.025.178.06.265.06H21.46z"/>
  <animate attributeName="display" fill="freeze" repeatCount="1" dur="1s" keyTimes="0;0.84;0.86;1" values="none;inline;none;none"/>
</g>
<g>
  <path d="M7.445 22.015l6.611-4.546-9.276-4.803c.587 2.166 1.881 6.943 2.401 8.833.05.184.147.356.264.516z"/>
  <polygon points="15.505 8.518 15.506 16.591 19.588 14.469"/>
  <path d="M8.304 22.638c.07.02.141.043.21.048.039.004.073.012.115.012h12.773c.036 0 .066-.007.099-.009.074-.003.148-.03.223-.051l-6.714-4.617-6.706 4.617z"/>
  <polygon points="14.505 8.517 10.425 14.465 14.506 16.58"/>
  <path d="M22.584 22.015c.116-.16.213-.332.264-.517.52-1.89 1.799-6.669 2.377-8.833l-9.254 4.808 6.613 4.542z"/>
  <path d="M0 0v30h30V0H0zm23.812 21.764c-.252.919-1.071 1.687-1.935 1.883-.005.001-.008.005-.013.006-.003.001-.005 0-.008.001-.132.028-.264.045-.396.045h-.059c-.007 0-.013.002-.02.002l-.121-.002-12.613.001c-.006 0-.012-.002-.018-.002h-.061c-.14 0-.281-.021-.421-.053-.009-.002-.019-.001-.028-.003-.013-.003-.023-.012-.035-.016-.839-.22-1.622-.968-1.868-1.863-.52-1.891-1.815-6.669-2.402-8.836l-.296-1.091c-.023-.082-.026-.169-.005-.256.055-.224.255-.382.486-.382.163 0 .257 0 .341.114l5.19 2.69 5.062-7.38c.006-.009.018-.012.025-.021.091-.116.227-.196.387-.196.159 0 .295.08.387.196.007.009.019.012.025.021l5.064 7.382 5.288-2.75c.174-.091.39-.071.543.054.155.124.222.328.171.519.001 0-1.988 7.455-2.67 9.937z"/>
  <animate attributeName="display" fill="freeze" repeatCount="1" dur="1s" keyTimes="0;0.86;0.88;1" values="none;inline;none;none"/>
</g>
<g>
  <polygon points="14.505 8.517 10.425 14.465 14.506 16.58"/>
  <path d="M7.445 22.015l6.611-4.546-9.276-4.803c.587 2.166 1.881 6.943 2.401 8.833.05.184.147.356.264.516z"/>
  <polygon points="15.505 8.518 15.506 16.591 19.588 14.469"/>
  <path d="M8.303 22.638c.085.024.171.057.254.058.017.001.034.002.049.002h12.813c.016 0 .034-.002.051-.003.083-.001.168-.034.253-.057l-6.714-4.617-6.706 4.617z"/>
  <path d="M22.584 22.015c.116-.16.213-.332.264-.517.52-1.89 1.799-6.669 2.377-8.833l-9.254 4.808 6.613 4.542z"/>
  <path d="M0 0v30h30V0H0zm23.812 21.764c-.2.729-.76 1.358-1.413 1.688-.014.009-.024.023-.039.031-.048.023-.097.042-.146.061-.002.001-.005.002-.007.003-.022.009-.043.02-.065.027-.058.021-.121.032-.182.047-.052.014-.103.031-.155.041-.057.01-.118.013-.177.018-.056.005-.112.017-.167.017h-.054c-.009 0-.016.002-.025.002l-.121-.002-12.614.003c-.009 0-.016-.002-.025-.002h-.054c-.058 0-.116-.013-.175-.018-.056-.006-.114-.008-.168-.018-.056-.01-.11-.028-.166-.044-.059-.015-.121-.025-.178-.046-.019-.007-.039-.017-.058-.025-.005-.002-.009-.004-.014-.006-.059-.024-.119-.047-.178-.077-.017-.008-.027-.023-.042-.033-.636-.335-1.177-.953-1.372-1.668-.52-1.891-1.815-6.669-2.402-8.836l-.296-1.091c-.023-.082-.026-.169-.005-.256.055-.224.255-.382.486-.382.163 0 .257 0 .341.114l5.19 2.69 5.062-7.38c.006-.009.018-.012.025-.021.091-.116.227-.196.387-.196.159 0 .295.08.387.196.007.009.019.012.025.021l5.064 7.382 5.288-2.75c.174-.091.39-.071.543.054.155.124.222.328.171.519 0 0-1.989 7.455-2.671 9.937z"/>
  <animate attributeName="display" fill="freeze" repeatCount="1" dur="1s" keyTimes="0;0.88;0.9;1" values="none;inline;none;none"/>
</g>
<g>
  <polygon points="14.505 8.517 10.425 14.465 14.506 16.58"/>
  <polygon points="15.505 8.518 15.506 16.591 19.588 14.469"/>
  <path d="M8.303 22.638c.085.024.171.057.254.058.017.001.034.002.049.002h12.813c.016 0 .034-.002.051-.003.083-.001.168-.034.253-.057l-6.714-4.617-6.706 4.617z"/>
  <path d="M0 0v30h30V0H0zm23.812 21.764c-.17.621-.602 1.168-1.129 1.522-.012.01-.019.024-.032.032-.016.01-.032.014-.048.024-.136.084-.276.156-.421.212-.012.005-.026.015-.038.019-.058.021-.121.032-.182.048-.053.014-.105.031-.158.041-.056.01-.116.012-.175.018-.057.005-.113.018-.17.018h-.054c-.009 0-.016.002-.025.002l-.121-.002-12.612.002c-.009 0-.016-.002-.025-.002h-.054c-.058 0-.116-.013-.175-.018-.056-.006-.114-.008-.168-.018-.056-.01-.11-.028-.166-.044-.059-.015-.121-.025-.178-.046-.018-.007-.033-.016-.051-.023-.016-.006-.031-.014-.047-.021-.121-.051-.226-.104-.318-.158-.004-.002-.008-.005-.011-.007-.038-.023-.085-.048-.115-.069-.017-.011-.026-.029-.041-.042-.505-.355-.917-.887-1.082-1.489-.52-1.891-1.815-6.669-2.402-8.836l-.296-1.091c-.023-.082-.026-.169-.005-.256.055-.224.255-.382.486-.382.163 0 .257 0 .341.114l5.19 2.69 5.062-7.38c.006-.009.018-.012.025-.021.091-.116.227-.196.387-.196.159 0 .295.08.387.196.007.009.019.012.025.021l5.064 7.382 5.288-2.75c.174-.091.39-.071.543.054.155.124.222.328.171.519.001 0-1.988 7.455-2.67 9.937z"/>
  <path d="M22.584 22.015c.116-.16.213-.332.264-.517.52-1.89 1.799-6.669 2.377-8.833l-9.254 4.808 6.613 4.542z"/>
  <path d="M7.445 22.015l6.611-4.546-9.276-4.803c.587 2.166 1.881 6.943 2.401 8.833.05.184.147.356.264.516z"/>
  <animate attributeName="display" fill="freeze" repeatCount="1" dur="1s" keyTimes="0;0.9;0.92;1" values="none;inline;none;none"/>
</g>
<g>
  <polygon points="15.505 8.518 15.506 16.591 19.588 14.469"/>
  <path d="M7.445 22.015l6.611-4.546-9.276-4.803c.587 2.166 1.881 6.943 2.401 8.833.05.184.147.356.264.516z"/>
  <polygon points="14.505 8.517 10.425 14.465 14.506 16.58"/>
  <path d="M0 0v30h30V0H0zm23.812 21.764c-.149.541-.495 1.03-.93 1.381-.013.012-.024.026-.039.038-.087.066-.246.166-.429.261-.075.039-.15.079-.227.109-.016.006-.027.015-.043.021-.058.021-.121.032-.182.048-.053.014-.105.031-.158.041-.056.01-.116.012-.175.018-.057.005-.113.018-.17.018h-.054c-.009 0-.016.002-.025.002l-.121-.002-12.612.001c-.009 0-.016-.002-.025-.002h-.054c-.058 0-.116-.013-.175-.018-.056-.006-.114-.008-.168-.018-.056-.01-.11-.028-.166-.044-.059-.015-.121-.025-.178-.046-.02-.007-.038-.017-.058-.025-.005-.002-.01-.004-.015-.007-.309-.125-.56-.307-.658-.385-.024-.02-.046-.041-.066-.063-.007-.005-.011-.013-.018-.018-.396-.345-.711-.804-.85-1.311-.52-1.891-1.815-6.669-2.402-8.836l-.296-1.091c-.023-.082-.026-.169-.005-.256.055-.224.255-.382.486-.382.163 0 .257 0 .341.114l5.19 2.69 5.062-7.38c.006-.009.018-.012.025-.021.091-.116.227-.196.387-.196.159 0 .295.08.387.196.007.009.019.012.025.021l5.064 7.382 5.288-2.75c.174-.091.39-.071.543.054.155.124.222.328.171.519.001 0-1.988 7.455-2.67 9.937z"/>
  <path d="M8.303 22.638c.085.024.17.056.253.057.018.001.036.002.052.003H21.42c.016 0 .034-.002.051-.003.083-.001.168-.034.253-.057l-6.714-4.617-6.707 4.617z"/>
  <path d="M22.584 22.015c.116-.16.213-.332.264-.517.52-1.89 1.799-6.669 2.377-8.833l-9.254 4.808 6.613 4.542z"/>
  <animate attributeName="display" fill="freeze" repeatCount="1" dur="1s" keyTimes="0;0.92;0.94;1" values="none;inline;none;none"/>
</g>
<g>
  <path d="M7.445 22.015l6.611-4.546-9.276-4.803c.587 2.166 1.881 6.943 2.401 8.833.05.184.147.356.264.516z"/>
  <polygon points="14.505 8.517 10.425 14.465 14.506 16.58"/>
  <path d="M8.303 22.638c.085.024.17.056.253.057.018.001.036.002.052.003H21.42c.016 0 .034-.002.051-.003.083-.001.168-.034.253-.057l-6.714-4.617-6.707 4.617z"/>
  <polygon points="15.505 8.518 15.506 16.591 19.588 14.469"/>
  <path d="M0 0v30h30V0H0zm23.812 21.764c-.129.471-.412.897-.768 1.232-.021.025-.041.051-.066.071-.007.008-.015.015-.022.021-.01.009-.029.02-.04.03-.033.028-.069.05-.103.076-.073.056-.141.109-.233.165-.127.077-.26.142-.395.194-.014.005-.026.015-.04.02-.058.021-.121.032-.182.048-.053.014-.105.031-.158.041-.056.01-.116.012-.175.018-.057.005-.113.018-.17.018h-.054c-.009 0-.016.002-.025.002l-.121-.002-12.613.002c-.009 0-.016-.002-.025-.002h-.054c-.058 0-.116-.013-.175-.018-.056-.006-.114-.008-.168-.018-.056-.01-.11-.028-.166-.044-.059-.015-.121-.025-.178-.046-.019-.007-.035-.016-.053-.024-.011-.004-.021-.009-.031-.014-.114-.047-.219-.1-.317-.158-.011-.006-.022-.013-.033-.019-.183-.112-.333-.228-.411-.302-.005-.005-.01-.01-.016-.015-.017-.017-.032-.036-.047-.056-.351-.334-.628-.756-.756-1.222-.52-1.891-1.815-6.669-2.402-8.836l-.296-1.091c-.023-.082-.026-.169-.005-.256.055-.224.255-.382.486-.382.163 0 .257 0 .341.114l5.19 2.69 5.062-7.38c.006-.009.018-.012.025-.021.091-.116.227-.196.387-.196.159 0 .295.08.387.196.007.009.019.012.025.021l5.064 7.382 5.288-2.75c.174-.091.39-.071.543.054.155.124.222.328.171.519 0 .001-1.989 7.456-2.671 9.938z"/>
  <path d="M22.584 22.015c.116-.16.213-.332.264-.517.52-1.89 1.799-6.669 2.377-8.833l-9.254 4.808 6.613 4.542z"/>
  <animate attributeName="display" fill="freeze" repeatCount="1" dur="1s" keyTimes="0;0.94;0.96;1" values="none;inline;none;none"/>
</g>
<g>
  <polygon points="15.505 8.518 15.506 16.591 19.588 14.469"/>
  <polygon points="14.505 8.517 10.425 14.465 14.506 16.58"/>
  <path d="M8.303 22.638c.085.024.17.056.253.057.018.001.036.002.052.003H21.42c.016 0 .034-.002.051-.003.083-.001.168-.034.253-.057l-6.714-4.617-6.707 4.617z"/>
  <path d="M7.445 22.015l6.611-4.546-9.276-4.803c.587 2.166 1.881 6.943 2.401 8.833.05.184.147.356.264.516z"/>
  <path d="M0 0v30h30V0H0zm23.812 21.764c-.13.475-.416.904-.777 1.241-.007.008-.009.019-.017.026-.074.074-.233.201-.433.324-.012.008-.025.015-.037.022-.096.057-.199.108-.31.155-.014.006-.026.012-.04.018-.019.007-.035.017-.054.024-.058.021-.121.032-.182.048-.053.014-.105.031-.158.041-.056.01-.116.012-.175.018-.057.005-.113.018-.17.018h-.054c-.009 0-.016.002-.025.002l-.121-.002-12.612.001c-.009 0-.016-.002-.025-.002h-.054c-.058 0-.116-.013-.175-.018-.056-.006-.114-.008-.168-.018-.056-.01-.11-.028-.166-.044-.059-.015-.121-.025-.178-.046-.019-.007-.036-.017-.055-.024-.009-.003-.017-.008-.026-.011-.114-.047-.223-.102-.327-.163-.008-.004-.015-.009-.023-.013-.185-.111-.346-.233-.443-.333-.006-.006-.007-.016-.014-.023-.361-.337-.647-.767-.777-1.242-.52-1.891-1.815-6.669-2.402-8.836l-.296-1.091c-.023-.082-.026-.169-.005-.256.055-.224.255-.382.486-.382.163 0 .257 0 .341.114l5.19 2.69 5.062-7.38c.006-.009.018-.012.025-.021.091-.116.227-.196.387-.196.159 0 .295.08.387.196.007.009.019.012.025.021l5.064 7.382 5.288-2.75c.174-.091.39-.071.543.054.155.124.222.328.171.519.001 0-1.988 7.455-2.67 9.937z"/>
  <path d="M22.584 22.015c.116-.16.213-.332.264-.517.52-1.89 1.799-6.669 2.377-8.833l-9.254 4.808 6.613 4.542z"/>
  <animate attributeName="display" fill="freeze" repeatCount="1" dur="1s" keyTimes="0;0.96;0.98;1" values="none;inline;none;none"/>
</g>
<g>
  <path d="M7.445 22.015l6.611-4.546-9.276-4.803c.587 2.166 1.881 6.943 2.401 8.833.05.184.147.356.264.516z"/>
  <polygon points="15.505 8.518 15.506 16.591 19.588 14.469"/>
  <path d="M8.303 22.638c.085.024.17.056.253.057.018.001.036.002.052.003H21.42c.016 0 .034-.002.051-.003.083-.001.168-.034.253-.057l-6.714-4.617-6.707 4.617z"/>
  <polygon points="14.505 8.517 10.425 14.465 14.506 16.58"/>
  <path d="M0 0v30h30V0H0zm23.812 21.764c-.13.475-.416.904-.777 1.241-.007.008-.009.019-.017.026-.074.074-.233.201-.433.324-.012.008-.025.015-.037.022-.096.057-.199.108-.31.155-.014.006-.026.012-.04.018-.019.007-.035.017-.054.024-.058.021-.121.032-.182.048-.053.014-.105.031-.158.041-.056.01-.116.012-.175.018-.057.005-.113.018-.17.018h-.054c-.009 0-.016.002-.025.002l-.121-.002-12.612.001c-.009 0-.016-.002-.025-.002h-.054c-.058 0-.116-.013-.175-.018-.056-.006-.114-.008-.168-.018-.056-.01-.11-.028-.166-.044-.059-.015-.121-.025-.178-.046-.019-.007-.036-.017-.055-.024-.009-.003-.017-.008-.026-.011-.114-.047-.223-.102-.327-.163-.008-.004-.015-.009-.023-.013-.185-.111-.346-.233-.443-.333-.006-.006-.007-.016-.014-.023-.361-.337-.647-.767-.777-1.242-.52-1.891-1.815-6.669-2.402-8.836l-.296-1.091c-.023-.082-.026-.169-.005-.256.055-.224.255-.382.486-.382.163 0 .257 0 .341.114l5.19 2.69 5.062-7.38c.006-.009.018-.012.025-.021.091-.116.227-.196.387-.196.159 0 .295.08.387.196.007.009.019.012.025.021l5.064 7.382 5.288-2.75c.174-.091.39-.071.543.054.155.124.222.328.171.519.001 0-1.988 7.455-2.67 9.937z"/>
  <path d="M22.584 22.015c.116-.16.213-.332.264-.517.52-1.89 1.799-6.669 2.377-8.833l-9.254 4.808 6.613 4.542z"/>
  <animate attributeName="display" fill="freeze" repeatCount="1" dur="1s" keyTimes="0;0.98;0.999;1" values="none;inline;none;none"/>
</g>
<g>
  <path d="M8.303 22.638c.085.024.17.056.253.057.018.001.036.002.052.003H21.42c.016 0 .034-.002.051-.003.083-.001.168-.034.253-.057l-6.714-4.617-6.707 4.617z"/>
  <polygon points="14.505 8.517 10.425 14.465 14.506 16.58"/>
  <polygon points="15.505 8.518 15.506 16.591 19.588 14.469"/>
  <path d="M7.445 22.015l6.611-4.546-9.276-4.803c.587 2.166 1.881 6.943 2.401 8.833.05.184.147.356.264.516z"/>
  <path d="M0 0v30h30V0H0zm23.812 21.764c-.13.475-.416.904-.777 1.241-.007.008-.009.019-.017.026-.074.074-.233.201-.433.324-.012.008-.025.015-.037.022-.096.057-.199.108-.31.155-.014.006-.026.012-.04.018-.019.007-.035.017-.054.024-.058.021-.121.032-.182.048-.053.014-.105.031-.158.041-.056.01-.116.012-.175.018-.057.005-.113.018-.17.018h-.054c-.009 0-.016.002-.025.002l-.121-.002-12.612.001c-.009 0-.016-.002-.025-.002h-.054c-.058 0-.116-.013-.175-.018-.056-.006-.114-.008-.168-.018-.056-.01-.11-.028-.166-.044-.059-.015-.121-.025-.178-.046-.019-.007-.036-.017-.055-.024-.009-.003-.017-.008-.026-.011-.114-.047-.223-.102-.327-.163-.008-.004-.015-.009-.023-.013-.185-.111-.346-.233-.443-.333-.006-.006-.007-.016-.014-.023-.361-.337-.647-.767-.777-1.242-.52-1.891-1.815-6.669-2.402-8.836l-.296-1.091c-.023-.082-.026-.169-.005-.256.055-.224.255-.382.486-.382.163 0 .257 0 .341.114l5.19 2.69 5.062-7.38c.006-.009.018-.012.025-.021.091-.116.227-.196.387-.196.159 0 .295.08.387.196.007.009.019.012.025.021l5.064 7.382 5.288-2.75c.174-.091.39-.071.543.054.155.124.222.328.171.519.001 0-1.988 7.455-2.67 9.937z"/>
  <path d="M22.584 22.015c.116-.16.213-.332.264-.517.52-1.89 1.799-6.669 2.377-8.833l-9.254 4.808 6.613 4.542z"/>
  <animate attributeName="display" fill="freeze" repeatCount="1" dur="1s" keyTimes="0;0.999;1" values="none;inline;inline"/>
</g>
</svg>