<svg xmlns="http://www.w3.org/2000/svg" viewBox="0 0 30 30" style="background:#45DBCC">
<g display="none" fill="#FFF">
  <path d="M14.5 7.328c-3.954 0-7.171 3.217-7.171 7.171 0 1.913.746 3.714 2.102 5.069 1.356 1.356 3.156 2.104 5.068 2.104 1.969 0 3.807-.785 5.174-2.211l.006-.007c1.284-1.341 1.992-3.101 1.993-4.955 0-3.954-3.218-7.171-7.172-7.171z"/>
  <path d="M0 0v30h30V0H0zm26.71 27.189l-6.68-6.679c-1.513 1.397-3.458 2.161-5.531 2.161-4.505 0-8.171-3.666-8.171-8.173.001-4.504 3.667-8.17 8.172-8.17 4.506 0 8.172 3.666 8.172 8.171-.001 1.953-.689 3.813-1.948 5.29l6.693 6.693-.707.707z"/>
  <animate attributeName="display" fill="freeze" repeatCount="1" dur="1s" keyTimes="0;0.02;1" values="inline;none;none" />
</g>
<g display="none" fill="#FFF">
  <path d="M14.5 7.328c-3.954 0-7.171 3.217-7.171 7.171 0 1.913.746 3.714 2.102 5.069 1.356 1.356 3.156 2.104 5.068 2.104 1.969 0 3.807-.785 5.174-2.211l.02-.021c1.274-1.339 1.978-3.095 1.979-4.942 0-3.953-3.218-7.17-7.172-7.17z"/>
  <path d="M0 0v30h30V0H0zm26.717 27.196L20.03 20.51c-1.513 1.397-3.458 2.161-5.531 2.161-4.505 0-8.171-3.666-8.171-8.173.001-4.504 3.667-8.17 8.172-8.17 4.506 0 8.172 3.666 8.172 8.171-.002 1.952-.69 3.813-1.948 5.29l6.7 6.7-.707.707z"/>
  <animate attributeName="display" fill="freeze" repeatCount="1" dur="1s" keyTimes="0;0.04;0.06;1" values="none;inline;none;none" />
</g>
<g display="none" fill="#FFF">
  <path d="M14.5 7.328c-3.954 0-7.171 3.217-7.171 7.171 0 1.913.746 3.714 2.102 5.069 1.356 1.356 3.156 2.104 5.068 2.104 1.969 0 3.807-.785 5.174-2.211l.068-.071c1.244-1.333 1.93-3.07 1.931-4.891 0-3.954-3.218-7.171-7.172-7.171z"/>
  <path d="M0 0v30h30V0H0zm26.717 27.196L20.03 20.51c-1.513 1.397-3.458 2.161-5.531 2.161-4.505 0-8.171-3.666-8.171-8.173.001-4.504 3.667-8.17 8.172-8.17 4.506 0 8.172 3.666 8.172 8.171-.001 1.949-.689 3.812-1.947 5.29l6.699 6.7-.707.707z"/>
  <animate attributeName="display" fill="freeze" repeatCount="1" dur="1s" keyTimes="0;0.06;0.08;1" values="none;inline;none;none" />
</g>
<g display="none" fill="#FFF">
  <path d="M14.5 7.328c-3.954 0-7.171 3.217-7.171 7.171 0 1.913.746 3.714 2.102 5.069 1.356 1.356 3.156 2.104 5.068 2.104 1.969 0 3.807-.785 5.174-2.211l.149-.155-.003-.002c1.193-1.321 1.852-3.027 1.853-4.805 0-3.954-3.218-7.171-7.172-7.171z"/>
  <path d="M0 0v30h30V0H0zm26.717 27.196L20.03 20.51c-1.513 1.397-3.458 2.161-5.531 2.161-4.505 0-8.171-3.666-8.171-8.173.001-4.504 3.667-8.17 8.172-8.17 4.506 0 8.172 3.666 8.172 8.171-.001 1.944-.691 3.812-1.948 5.29l6.7 6.7-.707.707z"/>
  <animate attributeName="display" fill="freeze" repeatCount="1" dur="1s" keyTimes="0;0.08;0.1;1" values="none;inline;none;none" />
</g>
<g display="none" fill="#FFF">
  <path d="M14.5 7.328c-3.954 0-7.171 3.217-7.171 7.171 0 1.913.746 3.714 2.102 5.069 1.356 1.356 3.156 2.104 5.068 2.104 1.969 0 3.807-.785 5.174-2.211l.305-.317-.01-.009c1.097-1.293 1.702-2.939 1.704-4.636 0-3.954-3.218-7.171-7.172-7.171z"/>
  <path d="M0 0v30h30V0H0zm26.717 27.196L20.03 20.51c-1.513 1.397-3.458 2.161-5.531 2.161-4.505 0-8.171-3.666-8.171-8.173.001-4.504 3.667-8.17 8.172-8.17 4.506 0 8.172 3.666 8.172 8.171-.002 1.934-.691 3.81-1.942 5.282l-.09-.076 6.784 6.784-.707.707z"/>
  <animate attributeName="display" fill="freeze" repeatCount="1" dur="1s" keyTimes="0;0.1;0.12;1" values="none;inline;none;none" />
</g>
<g display="none" fill="#FFF">
<path d="M0 0v30h30V0H0zm26.717 27.196L20.03 20.51c-1.513 1.397-3.458 2.161-5.531 2.161-4.505 0-8.171-3.666-8.171-8.173.001-4.504 3.667-8.17 8.172-8.17 4.506 0 8.172 3.666 8.172 8.171 0 1.832-.595 3.564-1.72 5.01l-.789-.613c.987-1.269 1.509-2.789 1.509-4.396 0-3.954-3.218-7.171-7.172-7.171S7.329 10.546 7.329 14.5c0 1.913.746 3.714 2.102 5.069 1.356 1.356 3.156 2.104 5.068 2.104 1.969 0 3.807-.785 5.174-2.211l.354-.369 7.397 7.397-.707.706z"/>
<animate attributeName="display" fill="freeze" repeatCount="1" dur="1s" keyTimes="0;0.12;0.14;1" values="none;inline;none;none" />
</g>
<g display="none" fill="#FFF">
<path d="M0 0v30h30V0H0zm26.717 27.196L20.03 20.51c-1.513 1.397-3.458 2.161-5.531 2.161-4.505 0-8.171-3.666-8.171-8.173.001-4.504 3.667-8.17 8.172-8.17 4.506 0 8.172 3.666 8.172 8.171-.001 1.648-.492 3.237-1.419 4.597l-.826-.564c.813-1.191 1.244-2.586 1.245-4.033 0-3.954-3.218-7.17-7.172-7.17S7.329 10.546 7.329 14.5c0 1.913.746 3.714 2.102 5.069 1.356 1.356 3.156 2.104 5.068 2.104 1.969 0 3.807-.785 5.174-2.211l.354-.369 7.397 7.397-.707.706z"/>
<animate attributeName="display" fill="freeze" repeatCount="1" dur="1s" keyTimes="0;0.14;0.16;1" values="none;inline;none;none" />
</g>
<g display="none" fill="#FFF">
<path d="M0 0v30h30V0H0zm26.717 27.196L20.03 20.51c-1.513 1.397-3.458 2.161-5.531 2.161-4.505 0-8.171-3.666-8.171-8.173.001-4.504 3.667-8.17 8.172-8.17 4.506 0 8.172 3.666 8.172 8.171 0 1.411-.368 2.804-1.063 4.027l-.869-.494c.61-1.073.933-2.295.933-3.533 0-3.954-3.218-7.171-7.172-7.171S7.33 10.545 7.33 14.499c0 1.913.746 3.714 2.102 5.069 1.356 1.356 3.156 2.104 5.068 2.104 1.969 0 3.807-.785 5.174-2.211l.354-.369 7.397 7.397-.708.707z"/>
<animate attributeName="display" fill="freeze" repeatCount="1" dur="1s" keyTimes="0;0.16;0.18;1" values="none;inline;none;none" />
</g>
<g display="none" fill="#FFF">
<path d="M0 0v30h30V0H0zm26.717 27.196L20.03 20.51c-1.513 1.397-3.458 2.161-5.531 2.161-4.505 0-8.171-3.666-8.171-8.173.001-4.504 3.667-8.17 8.172-8.17 4.506 0 8.172 3.666 8.172 8.171 0 1.134-.229 2.233-.682 3.267l-.916-.4c.396-.906.598-1.871.598-2.866 0-3.954-3.218-7.171-7.172-7.171S7.329 10.546 7.329 14.5c0 1.913.746 3.714 2.102 5.069 1.356 1.356 3.156 2.104 5.068 2.104 1.969 0 3.807-.785 5.174-2.211l.354-.369 7.397 7.397-.707.706z"/>
<animate attributeName="display" fill="freeze" repeatCount="1" dur="1s" keyTimes="0;0.18;0.2;1" values="none;inline;none;none" />
</g>
<g display="none" fill="#FFF">
<path d="M0 0v30h30V0H0zm26.717 27.196L20.03 20.51c-1.513 1.397-3.458 2.161-5.531 2.161-4.505 0-8.171-3.666-8.171-8.173.001-4.504 3.667-8.17 8.172-8.17 4.506 0 8.172 3.666 8.172 8.171-.001.767-.107 1.525-.317 2.254l-.961-.275c.184-.64.277-1.306.278-1.979 0-3.954-3.218-7.17-7.172-7.17S7.329 10.546 7.329 14.5c0 1.913.746 3.714 2.102 5.069 1.356 1.356 3.156 2.104 5.068 2.104 1.969 0 3.807-.785 5.174-2.211l.354-.369 7.397 7.397-.707.706z"/>
<animate attributeName="display" fill="freeze" repeatCount="1" dur="1s" keyTimes="0;0.2;0.22;1" values="none;inline;none;none" />
</g>
<g display="none" fill="#FFF">
<path d="M0 0v30h30V0H0zm26.717 27.196L20.03 20.51c-1.513 1.397-3.458 2.161-5.531 2.161-4.505 0-8.171-3.666-8.171-8.173.001-4.504 3.667-8.17 8.172-8.17 4.506 0 8.172 3.666 8.172 8.171.001.328-.019.653-.058.973l-.992-.119c.033-.28.051-.564.05-.852 0-3.956-3.218-7.172-7.172-7.172S7.329 10.546 7.329 14.5c0 1.913.746 3.714 2.102 5.069 1.356 1.356 3.156 2.104 5.068 2.104 1.969 0 3.807-.785 5.174-2.211l.354-.369 7.397 7.397-.707.706z"/>
<animate attributeName="display" fill="freeze" repeatCount="1" dur="1s" keyTimes="0;0.22;0.24;1" values="none;inline;none;none" />
</g>
<g display="none" fill="#FFF">
<path d="M0 0v30h30V0H0zm26.717 27.196L20.03 20.51c-1.513 1.397-3.458 2.161-5.531 2.161-4.505 0-8.171-3.666-8.171-8.173.001-4.504 3.667-8.17 8.172-8.17 4.26 0 7.84 3.325 8.15 7.57l-.998.073c-.272-3.725-3.414-6.643-7.152-6.643-3.954 0-7.171 3.217-7.171 7.171 0 1.913.746 3.714 2.102 5.069 1.356 1.356 3.156 2.104 5.068 2.104 1.969 0 3.807-.785 5.174-2.211l.354-.369 7.397 7.397-.707.707z"/>
<animate attributeName="display" fill="freeze" repeatCount="1" dur="1s" keyTimes="0;0.24;0.26;1" values="none;inline;none;none" />
</g>
<g display="none" fill="#FFF">
<path d="M0 0v30h30V0H0zm26.717 27.196L20.03 20.51c-1.513 1.397-3.458 2.161-5.531 2.161-4.505 0-8.171-3.666-8.171-8.173.001-4.504 3.667-8.17 8.172-8.17 3.596 0 6.731 2.308 7.804 5.742l-.955.298c-.94-3.015-3.693-5.04-6.849-5.04-3.954 0-7.171 3.217-7.171 7.171 0 1.913.746 3.714 2.102 5.069 1.356 1.356 3.156 2.104 5.068 2.104 1.969 0 3.807-.785 5.174-2.211l.354-.369 7.397 7.397-.707.707z"/>
<animate attributeName="display" fill="freeze" repeatCount="1" dur="1s" keyTimes="0;0.26;0.28;1" values="none;inline;none;none" />
</g>
<g display="none" fill="#FFF">
<path d="M0 0v30h30V0H0zm26.717 27.196L20.03 20.51c-1.513 1.397-3.458 2.161-5.531 2.161-4.505 0-8.171-3.666-8.171-8.173.001-4.504 3.667-8.17 8.172-8.17 2.803 0 5.38 1.417 6.894 3.788l-.844.538c-1.328-2.082-3.59-3.325-6.05-3.326-3.954 0-7.171 3.217-7.171 7.171 0 1.913.746 3.714 2.102 5.069 1.356 1.356 3.156 2.104 5.068 2.104 1.969 0 3.807-.785 5.174-2.211l.354-.369 7.397 7.397-.707.707z"/>
<animate attributeName="display" fill="freeze" repeatCount="1" dur="1s" keyTimes="0;0.28;0.3;1" values="none;inline;none;none" />
</g>
<g display="none" fill="#FFF">
<path d="M0 0v30h30V0H0zm26.717 27.196L20.03 20.51c-1.513 1.397-3.458 2.161-5.531 2.161-4.505 0-8.171-3.666-8.171-8.173.001-4.504 3.667-8.17 8.172-8.17 1.917 0 3.781.68 5.25 1.914l-.643.766c-1.289-1.083-2.926-1.68-4.607-1.68-3.954 0-7.171 3.217-7.171 7.171 0 1.913.746 3.714 2.102 5.069 1.356 1.356 3.156 2.104 5.068 2.104 1.969 0 3.807-.785 5.174-2.211l.354-.369 7.397 7.397-.707.707z"/>
<animate attributeName="display" fill="freeze" repeatCount="1" dur="1s" keyTimes="0;0.3;0.32;1" values="none;inline;none;none" />
</g>
<g display="none" fill="#FFF">
<path d="M0 0v30h30V0H0zm26.717 27.196L20.03 20.51c-1.513 1.397-3.458 2.161-5.531 2.161-4.505 0-8.171-3.666-8.171-8.173.001-4.504 3.667-8.17 8.172-8.17.958.001 1.895.166 2.784.489l-.342.939c-.78-.284-1.603-.428-2.443-.429-3.954 0-7.17 3.217-7.17 7.171 0 1.913.746 3.714 2.102 5.069 1.356 1.356 3.156 2.104 5.068 2.104 1.969 0 3.807-.785 5.174-2.211l.354-.369 7.397 7.397-.707.708z"/>
<animate attributeName="display" fill="freeze" repeatCount="1" dur="1s" keyTimes="0;0.32;0.34;1" values="none;inline;none;none" />
</g>
<g display="none" fill="#FFF">
<path d="M0 0v30h30V0H0zm26.717 27.196L20.03 20.51c-1.513 1.397-3.458 2.161-5.531 2.161-4.505 0-8.171-3.666-8.171-8.173.001-4.372 3.421-7.957 7.785-8.162l.047.999c-3.831.18-6.831 3.326-6.831 7.163 0 1.913.746 3.714 2.102 5.069 1.356 1.356 3.156 2.104 5.068 2.104 1.969 0 3.807-.785 5.174-2.211l.354-.369 7.397 7.397-.707.708z"/>
<animate attributeName="display" fill="freeze" repeatCount="1" dur="1s" keyTimes="0;0.34;0.36;1" values="none;inline;none;none" />
</g>
<g display="none" fill="#FFF">
<path d="M0 0v30h30V0H0zm26.717 27.196L20.03 20.51c-1.513 1.397-3.458 2.161-5.531 2.161-4.505 0-8.171-3.666-8.171-8.173.001-3.008 1.65-5.765 4.304-7.196l.475.88c-2.33 1.257-3.778 3.677-3.778 6.316 0 1.913.746 3.714 2.102 5.069 1.356 1.356 3.156 2.104 5.068 2.104 1.969 0 3.807-.785 5.174-2.211l.354-.369 7.397 7.397-.707.708z"/>
<animate attributeName="display" fill="freeze" repeatCount="1" dur="1s" keyTimes="0;0.36;0.38;1" values="none;inline;none;none" />
</g>
<g display="none" fill="#FFF">
<path d="M0 0v30h30V0H0zm26.717 27.196L20.03 20.51c-1.513 1.397-3.458 2.161-5.531 2.161-4.505 0-8.171-3.666-8.171-8.173.001-1.594.462-3.138 1.332-4.466l.837.548c-.764 1.166-1.167 2.521-1.168 3.918 0 1.913.746 3.714 2.102 5.069 1.356 1.356 3.156 2.104 5.068 2.104 1.969 0 3.807-.785 5.174-2.211l.354-.369 7.397 7.397-.707.708z"/>
<animate attributeName="display" fill="freeze" repeatCount="1" dur="1s" keyTimes="0;0.38;0.4;1" values="none;inline;none;none" />
</g>
<g display="none" fill="#FFF">
<path d="M0 0v30h30V0H0zm26.717 27.196L20.03 20.51c-1.513 1.397-3.458 2.161-5.531 2.161-4.505 0-8.171-3.666-8.171-8.173l.004-.209 1 .022-.003.19c0 1.909.746 3.71 2.102 5.065 1.356 1.356 3.156 2.104 5.068 2.104 1.969 0 3.807-.785 5.174-2.211l.354-.369 7.397 7.397-.707.709z"/>
<animate attributeName="display" fill="freeze" repeatCount="1" dur="1s" keyTimes="0;0.4;0.42;1" values="none;inline;none;none" />
</g>
<g display="none" fill="#FFF">
<path d="M0 0v30h30V0H0zm26.717 27.196L20.03 20.51c-1.513 1.397-3.458 2.161-5.531 2.161-2.737-.001-5.28-1.365-6.803-3.65l.832-.555c1.337 2.006 3.569 3.204 5.971 3.205 1.969 0 3.807-.785 5.174-2.211l.354-.369 7.397 7.397-.707.708z"/>
<animate attributeName="display" fill="freeze" repeatCount="1" dur="1s" keyTimes="0;0.42;0.44;1" values="none;inline;none;none" />
</g>
<g display="none" fill="#FFF">
<path d="M0 0v30h30V0H0zm26.717 27.196L20.03 20.51c-1.513 1.397-3.458 2.161-5.531 2.161-.858 0-1.705-.134-2.517-.396l.309-.951c.712.23 1.455.348 2.208.348 1.969 0 3.807-.785 5.174-2.211l.354-.369 7.397 7.397-.707.707z"/>
<animate attributeName="display" fill="freeze" repeatCount="1" dur="1s" keyTimes="0;0.44;0.46;1" values="none;inline;none;none" />
</g>
<g display="none" fill="#FFF">
<path d="M0 0v30h30V0H0zm26.717 27.196L20.03 20.51c-.642.592-1.368 1.074-2.164 1.436l-.414-.91c.835-.38 1.583-.909 2.222-1.575l.353-.368 7.397 7.397-.707.706z"/>
<animate attributeName="display" fill="freeze" repeatCount="1" dur="1s" keyTimes="0;0.46;0.48;1" values="none;inline;none;none" />
</g>
<g display="none" fill="#FFF">
<path d="M0 0v30h30V0H0zm26.717 27.196l-4.744-4.744.707-.707 4.744 4.744-.707.707z"/>
<animate attributeName="display" fill="freeze" repeatCount="1" dur="1s" keyTimes="0;0.48;0.5;1" values="none;inline;none;none" />
</g>
<g display="none" fill="#FFF">
<rect width="30" height="30"/>
<animate attributeName="display" fill="freeze" repeatCount="1" dur="1s" keyTimes="0;0.5;0.52;1" values="none;inline;none;none" />
</g>
<g display="none" fill="#FFF">
<path d="M0 0v30h30V0H0zm20.395 20.153l-.721-.693c1.287-1.342 1.997-3.104 1.998-4.961 0-.264-.015-.524-.042-.78l.994-.106c.031.292.048.587.048.887-.001 2.116-.81 4.124-2.277 5.653z"/>
<animate attributeName="display" fill="freeze" repeatCount="1" dur="1s" keyTimes="0;0.52;0.54;1" values="none;inline;none;none" />
</g>
<g display="none" fill="#FFF">
<path d="M0 0v30h30V0H0zm20.395 20.153l-.721-.693c1.287-1.342 1.997-3.104 1.998-4.961 0-2.233-1.017-4.3-2.79-5.673l.611-.791c2.021 1.563 3.179 3.919 3.179 6.464-.001 2.117-.81 4.125-2.277 5.654z"/>
<animate attributeName="display" fill="freeze" repeatCount="1" dur="1s" keyTimes="0;0.54;0.56;1" values="none;inline;none;none" />
</g>
<g display="none" fill="#FFF">
<path d="M0 0v30h30V0H0zm20.395 20.153l-.721-.693c1.287-1.342 1.997-3.104 1.998-4.961 0-3.954-3.218-7.171-7.172-7.171-.193 0-.384.008-.574.022l-.077-.997c.215-.017.432-.025.651-.025 4.506 0 8.172 3.666 8.172 8.171-.001 2.117-.81 4.125-2.277 5.654z"/>
<animate attributeName="display" fill="freeze" repeatCount="1" dur="1s" keyTimes="0;0.56;0.58;1" values="none;inline;none;none" />
</g>
<g display="none" fill="#FFF">
<path d="M0 0v30h30V0H0zm20.395 20.153l-.721-.693c1.287-1.342 1.997-3.104 1.998-4.961 0-3.954-3.217-7.171-7.172-7.171-1.821 0-3.559.686-4.892 1.932l-.683-.73c1.519-1.42 3.499-2.202 5.575-2.202 4.506 0 8.172 3.666 8.172 8.171-.001 2.117-.81 4.125-2.277 5.654z"/>
<animate attributeName="display" fill="freeze" repeatCount="1" dur="1s" keyTimes="0;0.58;0.6;1" values="none;inline;none;none" />
</g>
<g display="none" fill="#FFF">
<path d="M0 0v30h30V0H0zm20.395 20.153l-.721-.693c1.287-1.342 1.997-3.104 1.998-4.961 0-3.954-3.218-7.171-7.172-7.171-3.375 0-6.327 2.396-7.019 5.698l-.979-.205c.789-3.762 4.152-6.493 7.998-6.493 4.506 0 8.172 3.666 8.172 8.171-.001 2.117-.81 4.125-2.277 5.654z"/>
<animate attributeName="display" fill="freeze" repeatCount="1" dur="1s" keyTimes="0;0.6;0.62;1" values="none;inline;none;none" />
</g>
<g display="none" fill="#FFF">
<path d="M0 0v30h30V0H0zm20.395 20.153l-.721-.693c1.287-1.342 1.997-3.104 1.998-4.961 0-3.954-3.217-7.171-7.172-7.171-3.954 0-7.171 3.217-7.171 7.171-.001.834.141 1.651.422 2.429l-.94.34c-.32-.886-.483-1.817-.483-2.769.001-4.505 3.667-8.171 8.172-8.171 4.506 0 8.172 3.666 8.172 8.171-.001 2.117-.81 4.125-2.277 5.654z"/>
<animate attributeName="display" fill="freeze" repeatCount="1" dur="1s" keyTimes="0;0.62;0.64;1" values="none;inline;none;none" />
</g>
<g display="none" fill="#FFF">
<path d="M0 0v30h30V0H0zm20.395 20.153l-.721-.693c1.287-1.342 1.997-3.104 1.998-4.961 0-3.954-3.217-7.171-7.172-7.171-3.954 0-7.171 3.217-7.171 7.171-.001 2.044.878 3.998 2.411 5.36l-.664.748c-1.746-1.553-2.748-3.779-2.748-6.108.001-4.505 3.667-8.171 8.172-8.171 4.506 0 8.172 3.666 8.172 8.171-.001 2.117-.81 4.125-2.277 5.654z"/>
<animate attributeName="display" fill="freeze" repeatCount="1" dur="1s" keyTimes="0;0.64;0.66;1" values="none;inline;none;none" />
</g>
<g display="none" fill="#FFF">
<path d="M0 0v30h30V0H0zm20.395 20.153l-.721-.693c1.287-1.342 1.997-3.104 1.998-4.961 0-3.954-3.217-7.171-7.172-7.171-3.954 0-7.171 3.217-7.171 7.171-.001 3.179 2.131 6.013 5.186 6.894l-.277.961c-3.479-1.003-5.909-4.233-5.909-7.854 0-4.506 3.666-8.172 8.171-8.172 4.506 0 8.172 3.666 8.172 8.171-.001 2.117-.81 4.125-2.277 5.654z"/>
<animate attributeName="display" fill="freeze" repeatCount="1" dur="1s" keyTimes="0;0.66;0.68;1" values="none;inline;none;none" />
</g>
<g display="none" fill="#FFF">
<path d="M0 0v30h30V0H0zm20.395 20.153l-.721-.693c1.287-1.342 1.997-3.104 1.998-4.961 0-3.954-3.217-7.171-7.172-7.171-3.954 0-7.171 3.217-7.171 7.171 0 1.913.746 3.714 2.102 5.069 1.356 1.356 3.156 2.104 5.068 2.104.277 0 .55-.016.818-.047l.115.994c-.306.035-.618.053-.934.053-4.505 0-8.171-3.666-8.171-8.173.002-4.505 3.668-8.171 8.173-8.171 4.506 0 8.172 3.666 8.172 8.171-.001 2.117-.81 4.125-2.277 5.654z"/>
<animate attributeName="display" fill="freeze" repeatCount="1" dur="1s" keyTimes="0;0.68;0.7;1" values="none;inline;none;none" />
</g>
<g display="none" fill="#FFF">
<path d="M0 0v30h30V0H0zm20.395 20.153l-.721-.693c1.287-1.342 1.997-3.104 1.998-4.961 0-3.954-3.217-7.171-7.172-7.171-3.954 0-7.171 3.217-7.171 7.171 0 1.913.746 3.714 2.102 5.069 1.356 1.356 3.156 2.104 5.068 2.104 1.13 0 2.212-.256 3.214-.762l.451.893c-1.144.577-2.377.869-3.665.869-4.505 0-8.171-3.666-8.171-8.173.001-4.505 3.667-8.171 8.172-8.171 4.506 0 8.172 3.666 8.172 8.171-.001 2.117-.81 4.125-2.277 5.654z"/>
<animate attributeName="display" fill="freeze" repeatCount="1" dur="1s" keyTimes="0;0.7;0.72;1" values="none;inline;none;none" />
</g>
<g display="none" fill="#FFF">
<path d="M0 0v30h30V0H0zm20.395 20.153l-.721-.693c1.287-1.342 1.997-3.104 1.998-4.961 0-3.954-3.217-7.171-7.172-7.171-3.954 0-7.171 3.217-7.171 7.171 0 1.913.746 3.714 2.102 5.069 1.356 1.356 3.156 2.104 5.068 2.104 1.875 0 3.649-.722 4.997-2.033l.697.717c-1.535 1.494-3.558 2.316-5.694 2.316-4.505 0-8.171-3.666-8.171-8.173.001-4.505 3.667-8.171 8.172-8.171 4.506 0 8.172 3.666 8.172 8.171-.001 2.117-.81 4.125-2.277 5.654z"/>
<animate attributeName="display" fill="freeze" repeatCount="1" dur="1s" keyTimes="0;0.72;0.74;1" values="none;inline;none;none" />
</g>
<g display="none" fill="#FFF">
  <path d="M0 0v30h30V0H0zm21.633 20.698l-.707.707-.896-.895c-1.513 1.397-3.458 2.161-5.531 2.161-4.505 0-8.171-3.666-8.171-8.173.001-4.504 3.667-8.17 8.172-8.17 4.506 0 8.172 3.666 8.172 8.171-.001 1.953-.689 3.813-1.948 5.29l.909.909z"/>
  <path d="M14.5 7.328c-3.954 0-7.171 3.217-7.171 7.171 0 1.913.746 3.714 2.102 5.069 1.356 1.356 3.156 2.104 5.068 2.104 1.969 0 3.807-.785 5.174-2.211l.001-.001c1.287-1.342 1.997-3.104 1.998-4.961 0-3.954-3.217-7.171-7.172-7.171z"/>
  <animate attributeName="display" fill="freeze" repeatCount="1" dur="1s" keyTimes="0;0.74;0.76;1" values="none;inline;none;none" />
</g>
<g display="none" fill="#FFF">
  <path d="M14.5 7.328c-3.954 0-7.171 3.217-7.171 7.171 0 1.913.746 3.714 2.102 5.069 1.356 1.356 3.156 2.104 5.068 2.104 1.969 0 3.807-.785 5.174-2.211l.001-.001c1.287-1.342 1.997-3.104 1.998-4.961 0-3.954-3.218-7.171-7.172-7.171z"/>
  <path d="M0 0v30h30V0H0zm22.164 22.644l-2.134-2.133c-1.513 1.397-3.458 2.161-5.531 2.161-4.505 0-8.171-3.666-8.171-8.173.001-4.505 3.667-8.171 8.172-8.171 4.506 0 8.172 3.666 8.172 8.171-.001 1.953-.689 3.813-1.948 5.29l2.147 2.147-.707.708z"/>
  <animate attributeName="display" fill="freeze" repeatCount="1" dur="1s" keyTimes="0;0.76;0.78;1" values="none;inline;none;none" />
</g>
<g display="none" fill="#FFF">
  <path d="M0 0v30h30V0H0zm23.21 23.689l-3.18-3.179c-1.513 1.397-3.458 2.161-5.531 2.161-4.505 0-8.171-3.666-8.171-8.173.001-4.504 3.667-8.17 8.172-8.17 4.506 0 8.172 3.666 8.172 8.171-.001 1.953-.689 3.813-1.948 5.29l3.193 3.193-.707.707z"/>
  <path d="M14.5 7.328c-3.954 0-7.171 3.217-7.171 7.171 0 1.913.746 3.714 2.102 5.069 1.356 1.356 3.156 2.104 5.068 2.104 1.969 0 3.807-.785 5.174-2.211l.006-.007c1.284-1.341 1.992-3.101 1.993-4.955 0-3.954-3.218-7.171-7.172-7.171z"/>
  <animate attributeName="display" fill="freeze" repeatCount="1" dur="1s" keyTimes="0;0.78;0.8;1" values="none;inline;none;none" />
</g>
<g display="none" fill="#FFF">
  <path d="M14.5 7.328c-3.954 0-7.171 3.217-7.171 7.171 0 1.913.746 3.714 2.102 5.069 1.356 1.356 3.156 2.104 5.068 2.104 1.969 0 3.807-.785 5.174-2.211l.006-.006c1.284-1.342 1.992-3.102 1.993-4.956 0-3.954-3.218-7.171-7.172-7.171z"/>
  <path d="M0 0v30h30V0H0zm24.08 24.56l-4.05-4.049c-1.513 1.397-3.458 2.161-5.531 2.161-4.505 0-8.171-3.666-8.171-8.173.001-4.505 3.667-8.171 8.172-8.171 4.506 0 8.172 3.666 8.172 8.171-.001 1.953-.689 3.813-1.948 5.29l4.063 4.063-.707.708z"/>
  <animate attributeName="display" fill="freeze" repeatCount="1" dur="1s" keyTimes="0;0.8;0.82;1" values="none;inline;none;none" />
</g>
<g display="none" fill="#FFF">
  <path d="M14.5 7.328c-3.954 0-7.171 3.217-7.171 7.171 0 1.913.746 3.714 2.102 5.069 1.356 1.356 3.156 2.104 5.068 2.104 1.969 0 3.807-.785 5.174-2.211l.001-.001c1.287-1.342 1.997-3.104 1.998-4.961 0-3.954-3.218-7.171-7.172-7.171z"/>
  <path d="M0 0v30h30V0H0zm24.794 25.273l-4.763-4.763c-1.514 1.397-3.459 2.161-5.532 2.161-4.505 0-8.171-3.666-8.171-8.173.001-4.504 3.667-8.17 8.172-8.17 4.506 0 8.172 3.666 8.172 8.171-.001 1.953-.689 3.813-1.948 5.29l4.777 4.777-.707.707z"/>
  <animate attributeName="display" fill="freeze" repeatCount="1" dur="1s" keyTimes="0;0.82;0.84;1" values="none;inline;none;none" />
</g>
<g display="none" fill="#FFF">
  <path d="M0 0v30h30V0H0zm25.359 25.839l-5.329-5.328c-1.513 1.397-3.458 2.161-5.531 2.161-4.505 0-8.171-3.666-8.171-8.173.001-4.505 3.667-8.171 8.172-8.171 4.506 0 8.172 3.666 8.172 8.171-.001 1.953-.689 3.813-1.948 5.29l5.343 5.343-.708.707z"/>
  <path d="M14.5 7.328c-3.954 0-7.171 3.217-7.171 7.171 0 1.913.746 3.714 2.102 5.069 1.356 1.356 3.156 2.104 5.068 2.104 1.969 0 3.807-.785 5.174-2.211l.001-.001c1.287-1.342 1.997-3.104 1.998-4.961 0-3.954-3.218-7.171-7.172-7.171z"/>
  <animate attributeName="display" fill="freeze" repeatCount="1" dur="1s" keyTimes="0;0.84;0.86;1" values="none;inline;none;none" />
</g>
<g display="none" fill="#FFF">
  <path d="M14.5 7.328c-3.954 0-7.171 3.217-7.171 7.171 0 1.913.746 3.714 2.102 5.069 1.356 1.356 3.156 2.104 5.068 2.104 1.969 0 3.807-.785 5.174-2.211l.001-.001c1.287-1.342 1.997-3.104 1.998-4.961 0-3.954-3.218-7.171-7.172-7.171z"/>
  <path d="M0 0v30h30V0H0zm25.806 26.285l-5.774-5.774c-1.514 1.397-3.459 2.161-5.532 2.161-4.505 0-8.171-3.666-8.171-8.173 0-4.505 3.666-8.171 8.171-8.171 4.506 0 8.172 3.666 8.172 8.171-.001 1.953-.689 3.813-1.948 5.29l5.789 5.789-.707.707z"/>
  <animate attributeName="display" fill="freeze" repeatCount="1" dur="1s" keyTimes="0;0.86;0.88;1" values="none;inline;none;none" />
</g>
<g display="none" fill="#FFF">
  <path d="M14.5 7.328c-3.954 0-7.171 3.217-7.171 7.171 0 1.913.746 3.714 2.102 5.069 1.356 1.356 3.156 2.104 5.068 2.104 1.969 0 3.807-.785 5.174-2.211l.006-.006c1.284-1.342 1.992-3.102 1.993-4.956 0-3.954-3.218-7.171-7.172-7.171z"/>
  <path d="M0 0v30h30V0H0zm26.145 26.624l-6.114-6.113c-1.513 1.397-3.458 2.161-5.531 2.161-4.505 0-8.171-3.666-8.171-8.173 0-4.505 3.666-8.171 8.171-8.171 4.506 0 8.172 3.666 8.172 8.171-.001 1.953-.689 3.813-1.948 5.29l6.128 6.128-.707.707z"/>
  <animate attributeName="display" fill="freeze" repeatCount="1" dur="1s" keyTimes="0;0.88;0.9;1" values="none;inline;none;none" />
</g>
<g display="none" fill="#FFF">
  <path d="M14.5 7.328c-3.954 0-7.171 3.217-7.171 7.171 0 1.913.746 3.714 2.102 5.069 1.356 1.356 3.156 2.104 5.068 2.104 1.969 0 3.807-.785 5.174-2.211l.001-.001c1.287-1.342 1.997-3.104 1.998-4.961 0-3.954-3.218-7.171-7.172-7.171z"/>
  <path d="M0 0v30h30V0H0zm26.378 26.857L20.03 20.51c-1.513 1.397-3.458 2.161-5.531 2.161-4.505 0-8.171-3.666-8.171-8.173.001-4.504 3.667-8.17 8.172-8.17 4.506 0 8.172 3.666 8.172 8.171-.001 1.953-.689 3.813-1.948 5.29l6.361 6.361-.707.707z"/>
  <animate attributeName="display" fill="freeze" repeatCount="1" dur="1s" keyTimes="0;0.9;0.92;1" values="none;inline;none;none" />
</g>
<g display="none" fill="#FFF">
  <path d="M14.5 7.328c-3.954 0-7.171 3.217-7.171 7.171 0 1.913.746 3.714 2.102 5.069 1.356 1.356 3.156 2.104 5.068 2.104 1.969 0 3.807-.785 5.174-2.211l.01-.011c1.282-1.341 1.988-3.099 1.989-4.951 0-3.954-3.218-7.171-7.172-7.171z"/>
  <path d="M0 0v30h30V0H0zm26.548 27.027L20.03 20.51c-1.513 1.397-3.458 2.161-5.531 2.161-4.505 0-8.171-3.666-8.171-8.173.001-4.504 3.667-8.17 8.172-8.17 4.506 0 8.172 3.666 8.172 8.171-.001 1.953-.689 3.813-1.948 5.29l6.531 6.531-.707.707z"/>
  <animate attributeName="display" fill="freeze" repeatCount="1" dur="1s" keyTimes="0;0.92;0.94;1" values="none;inline;none;none" />
</g>
<g display="none" fill="#FFF">
  <path d="M14.5 7.328c-3.954 0-7.171 3.217-7.171 7.171 0 1.913.746 3.714 2.102 5.069 1.356 1.356 3.156 2.104 5.068 2.104 1.969 0 3.807-.785 5.174-2.211l.001-.001c1.287-1.342 1.997-3.104 1.998-4.961 0-3.954-3.218-7.171-7.172-7.171z"/>
  <path d="M0 0v30h30V0H0zm26.64 27.119l-6.609-6.608c-1.513 1.397-3.458 2.161-5.531 2.161-4.505 0-8.171-3.666-8.171-8.173 0-4.505 3.666-8.171 8.171-8.171 4.506 0 8.172 3.666 8.172 8.171-.001 1.953-.689 3.813-1.948 5.29l6.623 6.623-.707.707z"/>
  <animate attributeName="display" fill="freeze" repeatCount="1" dur="1s" keyTimes="0;0.94;0.96;1" values="none;inline;none;none" />
</g>
<g display="none" fill="#FFF">
  <path d="M14.5 7.328c-3.954 0-7.171 3.217-7.171 7.171 0 1.913.746 3.714 2.102 5.069 1.356 1.356 3.156 2.104 5.068 2.104 1.969 0 3.807-.785 5.174-2.211l.001-.001c1.287-1.342 1.997-3.104 1.998-4.961 0-3.954-3.218-7.171-7.172-7.171z"/>
  <path d="M0 0v30h30V0H0zm26.689 27.169l-6.659-6.658c-1.513 1.397-3.458 2.161-5.531 2.161-4.505 0-8.171-3.666-8.171-8.173.001-4.505 3.667-8.171 8.172-8.171 4.506 0 8.172 3.666 8.172 8.171-.001 1.953-.689 3.813-1.948 5.29l6.673 6.673-.708.707z"/>
  <animate attributeName="display" fill="freeze" repeatCount="1" dur="1s" keyTimes="0;0.96;0.98;1" values="none;inline;none;none" />
</g>
<g display="none" fill="#FFF">
  <path d="M14.5 7.328c-3.954 0-7.171 3.217-7.171 7.171 0 1.913.746 3.714 2.102 5.069 1.356 1.356 3.156 2.104 5.068 2.104 1.969 0 3.807-.785 5.174-2.211l.006-.007c1.285-1.341 1.992-3.101 1.993-4.955 0-3.954-3.218-7.171-7.172-7.171z"/>
  <path d="M0 0v30h30V0H0zm26.703 27.183l-6.673-6.672c-1.513 1.397-3.458 2.161-5.531 2.161-4.505 0-8.171-3.666-8.171-8.173.001-4.505 3.667-8.171 8.172-8.171 4.506 0 8.172 3.666 8.172 8.171-.001 1.953-.689 3.813-1.948 5.29l6.687 6.687-.708.707z"/>
  <animate attributeName="display" fill="freeze" repeatCount="1" dur="1s" keyTimes="0;0.98;0.999;1" values="none;inline;none;none" />
</g>
<g display="none" fill="#FFF">
  <path d="M0 0v30h30V0H0zm26.71 27.189l-6.68-6.679c-1.513 1.397-3.458 2.161-5.531 2.161-4.505 0-8.171-3.666-8.171-8.173.001-4.504 3.667-8.17 8.172-8.17 4.506 0 8.172 3.666 8.172 8.171-.001 1.953-.689 3.813-1.948 5.29l6.693 6.693-.707.707z"/>
  <path d="M14.5 7.328c-3.954 0-7.171 3.217-7.171 7.171 0 1.913.746 3.714 2.102 5.069 1.356 1.356 3.156 2.104 5.068 2.104 1.969 0 3.807-.785 5.174-2.211l.006-.007c1.284-1.341 1.992-3.101 1.993-4.955 0-3.954-3.218-7.171-7.172-7.171z"/>
  <animate attributeName="display" fill="freeze" repeatCount="1" dur="1s" keyTimes="0;0.999;1" values="none;inline;inline" />
</g>
</svg>
