<svg xmlns="http://www.w3.org/2000/svg" viewBox="0 0 30 30" style="background:#89949D">
<g display="none" fill="#fff">
  <path d="M14.999 4.465C9.19 4.465 4.464 9.191 4.464 15c0 5.81 4.726 10.535 10.535 10.535 5.81 0 10.535-4.726 10.535-10.535S20.809 4.465 14.999 4.465zm7.331 8.838l-3.729 3.27 1.382 5.2c.055.206-.027.424-.204.543-.085.056-.181.084-.279.084-.106 0-.212-.034-.301-.101l-4.2-3.166-4.198 3.167c-.171.127-.403.134-.58.016-.177-.119-.259-.337-.205-.543l1.376-5.2-3.723-3.27c-.156-.137-.211-.357-.138-.552.073-.195.26-.324.468-.324l4.679-.001 1.856-4.639c.076-.19.26-.314.464-.314.204 0 .388.125.464.315l1.85 4.639H22c.208 0 .395.129.468.324s.018.415-.138.552z"/>
  <path d="M0 0v30h30V0H0zm14.999 26.535C8.639 26.535 3.464 21.36 3.464 15S8.639 3.465 14.999 3.465 26.534 8.64 26.534 15s-5.175 11.535-11.535 11.535z"/>
  <path d="M16.51 13.111L14.998 9.32l-1.517 3.792c-.076.19-.26.314-.464.314h-3.69l2.958 2.598c.143.125.202.32.153.504l-1.085 4.103 3.345-2.522c.179-.135.424-.135.602 0l3.346 2.521-1.09-4.102c-.049-.184.011-.379.153-.504l2.963-2.598h-3.697c-.205 0-.389-.125-.465-.315z"/>
  <animate attributeName="display" fill="freeze" repeatCount="1" dur="1s" keyTimes="0;0.02;1" values="inline;none;none" />
</g>
<g display="none" fill="#fff">
  <path d="M14.999 4.465C9.19 4.465 4.464 9.191 4.464 15c0 5.81 4.726 10.535 10.535 10.535 5.81 0 10.535-4.726 10.535-10.535S20.809 4.465 14.999 4.465zm7.323 8.837l-3.724 3.269 1.379 5.201c.055.206-.027.424-.204.542-.176.121-.409.113-.579-.016l-4.195-3.165-4.194 3.165c-.089.067-.195.101-.301.101-.097 0-.194-.027-.278-.084-.177-.119-.259-.337-.205-.543l1.375-5.201-3.719-3.27c-.156-.137-.211-.356-.138-.551.073-.194.259-.323.467-.323l4.674-.001 1.854-4.64c.076-.189.26-.314.464-.314.204 0 .388.125.463.314l1.849 4.639 4.682.001c.208 0 .395.129.468.324.074.195.019.415-.138.552z"/>
  <path d="M16.509 13.111L14.998 9.32l-1.515 3.792c-.076.189-.259.314-.464.314H9.331l2.957 2.6c.143.125.202.319.153.503l-1.084 4.104 3.342-2.522c.178-.135.424-.135.602 0l3.342 2.521-1.088-4.103c-.049-.184.011-.378.153-.503l2.96-2.6h-3.694c-.205-.001-.39-.125-.465-.315z"/>
  <path d="M0 0v30h30V0H0zm14.999 26.535C8.639 26.535 3.464 21.36 3.464 15S8.639 3.465 14.999 3.465 26.534 8.64 26.534 15s-5.175 11.535-11.535 11.535z"/>
  <animate attributeName="display" fill="freeze" repeatCount="1" dur="1s" keyTimes="0;0.04;0.06;1" values="none;inline;none;none" />
</g>
<g display="none" fill="#fff">
  <path d="M14.999 4.465C9.19 4.465 4.464 9.191 4.464 15c0 5.81 4.726 10.535 10.535 10.535 5.81 0 10.535-4.726 10.535-10.535S20.809 4.465 14.999 4.465zm7.317 8.837l-3.721 3.269 1.379 5.201c.055.206-.027.424-.204.543-.085.057-.183.085-.279.085-.106 0-.212-.034-.302-.101l-4.19-3.165L10.81 22.3c-.17.127-.403.134-.58.016-.177-.118-.259-.337-.205-.543l1.373-5.201-3.715-3.269c-.156-.138-.21-.357-.137-.552.073-.195.26-.324.468-.324l4.668-.001 1.853-4.639c.076-.19.26-.314.464-.314.205 0 .388.125.464.315l1.846 4.639 4.677.001c.208 0 .395.129.468.324s.019.413-.138.55z"/>
  <path d="M16.506 13.111l-1.508-3.789-1.513 3.789c-.076.19-.26.314-.464.314H9.339l2.953 2.599c.142.125.201.319.153.503l-1.083 4.102 3.336-2.521c.178-.135.425-.135.603 0l3.336 2.521-1.087-4.101c-.049-.184.011-.378.153-.504l2.957-2.598h-3.689c-.205 0-.389-.125-.465-.315z"/>
  <path d="M0 0v30h30V0H0zm14.999 26.535C8.639 26.535 3.464 21.36 3.464 15S8.639 3.465 14.999 3.465 26.534 8.64 26.534 15s-5.175 11.535-11.535 11.535z"/>
  <animate attributeName="display" fill="freeze" repeatCount="1" dur="1s" keyTimes="0;0.06;0.08;1" values="none;inline;none;none" />
</g>
<g display="none" fill="#fff">
  <path d="M16.498 13.11l-1.5-3.783-1.504 3.783c-.076.19-.26.315-.465.315H9.363l2.941 2.599c.142.125.201.319.152.502l-1.078 4.1 3.318-2.518c.179-.135.426-.135.604 0l3.318 2.516-1.082-4.097c-.048-.184.011-.378.152-.503l2.946-2.599h-3.673c-.203.001-.388-.124-.463-.315z"/>
  <path d="M14.999 4.465C9.19 4.465 4.464 9.191 4.464 15c0 5.81 4.726 10.535 10.535 10.535 5.81 0 10.535-4.726 10.535-10.535S20.809 4.465 14.999 4.465zm7.29 8.837l-3.706 3.27 1.373 5.201c.055.207-.028.425-.205.543-.084.057-.182.085-.278.085-.106 0-.213-.034-.302-.102l-4.172-3.163-4.17 3.163c-.17.129-.403.135-.58.018-.177-.119-.26-.337-.206-.543l1.368-5.202-3.7-3.27c-.156-.138-.21-.357-.137-.551.074-.195.26-.323.468-.323l4.647-.001 1.845-4.638c.076-.19.26-.315.465-.315.205 0 .389.125.464.316l1.839 4.638 4.655.001c.208 0 .395.129.468.323s.019.412-.136.55z"/>
  <path d="M0 0v30h30V0H0zm14.999 26.535C8.639 26.535 3.464 21.36 3.464 15S8.639 3.465 14.999 3.465 26.534 8.64 26.534 15s-5.175 11.535-11.535 11.535z"/>
  <animate attributeName="display" fill="freeze" repeatCount="1" dur="1s" keyTimes="0;0.08;0.1;1" values="none;inline;none;none" />
</g>
<g display="none" fill="#fff">
  <path d="M14.999 4.465C9.19 4.465 4.464 9.191 4.464 15c0 5.81 4.726 10.535 10.535 10.535 5.81 0 10.535-4.726 10.535-10.535S20.809 4.465 14.999 4.465zm7.242 8.836l-3.681 3.27 1.364 5.203c.055.207-.028.425-.206.543-.084.057-.181.084-.277.084-.107 0-.214-.034-.304-.103l-4.139-3.161-4.137 3.161c-.169.13-.403.139-.581.019-.178-.118-.261-.336-.207-.542l1.359-5.204L7.758 13.3c-.155-.138-.208-.357-.135-.551s.26-.322.467-.322l4.612-.001 1.832-4.637c.075-.191.26-.316.465-.316.205 0 .39.126.465.317l1.826 4.637 4.619.001c.208 0 .394.128.468.322.073.193.019.413-.136.551z"/>
  <path d="M16.484 13.109l-1.486-3.773-1.491 3.774c-.075.191-.26.316-.465.316H9.404l2.922 2.6c.14.125.199.318.151.5l-1.069 4.095 3.286-2.511c.18-.137.428-.137.607 0l3.287 2.51-1.073-4.093c-.048-.183.011-.376.151-.501l2.927-2.6h-3.645c-.204 0-.388-.126-.464-.317z"/>
  <path d="M0 0v30h30V0H0zm14.999 26.535C8.639 26.535 3.464 21.36 3.464 15S8.639 3.465 14.999 3.465 26.534 8.64 26.534 15s-5.175 11.535-11.535 11.535z"/>
  <animate attributeName="display" fill="freeze" repeatCount="1" dur="1s" keyTimes="0;0.1;0.12;1" values="none;inline;none;none" />
</g>
<g display="none" fill="#fff">
  <path d="M16.46 13.107L14.999 9.35l-1.466 3.758c-.075.192-.26.318-.466.318h-3.59l2.889 2.603c.139.124.196.315.15.496l-1.055 4.087 3.232-2.5c.18-.139.432-.139.611 0l3.232 2.499-1.059-4.086c-.047-.181.012-.372.15-.497l2.893-2.602h-3.596c-.204 0-.39-.127-.464-.319z"/>
  <path d="M14.999 4.465C9.19 4.465 4.464 9.191 4.464 15c0 5.81 4.726 10.535 10.535 10.535 5.81 0 10.535-4.726 10.535-10.535S20.809 4.465 14.999 4.465zm7.16 8.833l-3.636 3.271 1.349 5.206c.054.207-.03.425-.209.542-.179.119-.411.11-.581-.021l-4.083-3.156-4.081 3.156c-.089.069-.197.104-.306.104-.096 0-.191-.027-.275-.082-.179-.118-.263-.336-.209-.543l1.343-5.206-3.631-3.271c-.154-.139-.207-.357-.132-.551s.26-.321.467-.321l4.55-.001 1.809-4.635c.075-.192.26-.318.466-.318.206 0 .391.126.465.319l1.803 4.635 4.558.001c.207 0 .393.127.467.321s.02.412-.134.55z"/>
  <path d="M0 0v30h30V0H0zm14.999 26.535C8.639 26.535 3.464 21.36 3.464 15S8.639 3.465 14.999 3.465 26.534 8.64 26.534 15s-5.175 11.535-11.535 11.535z"/>
  <animate attributeName="display" fill="freeze" repeatCount="1" dur="1s" keyTimes="0;0.12;0.14;1" values="none;inline;none;none" />
</g>
<g display="none" fill="#fff">
  <path d="M16.423 13.104l-1.425-3.731-1.429 3.732c-.074.193-.26.321-.467.321H9.585l2.839 2.606c.136.124.192.312.147.491l-1.032 4.074 3.15-2.482c.182-.143.438-.143.619 0l3.15 2.481-1.035-4.073c-.046-.179.011-.367.146-.491l2.844-2.606h-3.524c-.206 0-.393-.128-.466-.322z"/>
  <path d="M14.999 4.465C9.19 4.465 4.464 9.191 4.464 15c0 5.81 4.726 10.535 10.535 10.535 5.81 0 10.535-4.726 10.535-10.535S20.809 4.465 14.999 4.465zm7.038 8.83l-3.57 3.272 1.324 5.21c.053.207-.032.426-.212.542-.179.119-.412.107-.582-.026l-3.998-3.148-3.996 3.148c-.09.071-.2.107-.31.107-.094 0-.189-.026-.272-.081-.179-.116-.265-.334-.212-.542l1.319-5.21-3.565-3.272c-.152-.139-.203-.357-.128-.549.075-.192.26-.319.466-.319l4.458-.001 1.774-4.632c.074-.193.26-.321.467-.321.207 0 .393.128.467.322l1.768 4.632 4.465.001c.206 0 .392.126.466.319.074.191.023.409-.129.548z"/>
  <path d="M0 0v30h30V0H0zm14.999 26.535C8.639 26.535 3.464 21.36 3.464 15S8.639 3.465 14.999 3.465 26.534 8.64 26.534 15s-5.175 11.535-11.535 11.535z"/>
  <animate attributeName="display" fill="freeze" repeatCount="1" dur="1s" keyTimes="0;0.14;0.16;1" values="none;inline;none;none" />
</g>
<g display="none" fill="#fff">
  <path d="M14.999 4.465C9.19 4.465 4.464 9.191 4.464 15c0 5.81 4.726 10.535 10.535 10.535 5.81 0 10.535-4.726 10.535-10.535S20.809 4.465 14.999 4.465zm6.86 8.826l-3.475 3.274 1.29 5.216c.052.209-.036.427-.217.542-.181.116-.417.102-.583-.033l-3.876-3.138-3.874 3.138c-.091.074-.203.111-.315.111-.093 0-.186-.025-.268-.078-.181-.115-.269-.333-.217-.541l1.285-5.217-3.47-3.274c-.149-.141-.197-.358-.122-.548s.26-.315.465-.315l4.324-.001 1.724-4.628c.073-.196.26-.326.469-.326s.396.13.469.326l1.719 4.628 4.33.001c.205 0 .39.125.465.315.075.19.027.407-.123.548z"/>
  <path d="M0 0v30h30V0H0zm14.999 26.535C8.639 26.535 3.464 21.36 3.464 15S8.639 3.465 14.999 3.465 26.534 8.64 26.534 15s-5.175 11.535-11.535 11.535z"/>
  <path d="M16.37 13.1l-1.372-3.694-1.375 3.694c-.073.196-.26.326-.469.326H9.741l2.767 2.611c.131.123.186.308.142.482l-.999 4.056 3.032-2.456c.184-.148.446-.148.629 0l3.033 2.455-1.003-4.054c-.043-.176.011-.36.143-.484l2.771-2.61h-3.418c-.208 0-.395-.13-.468-.326z"/>
  <animate attributeName="display" fill="freeze" repeatCount="1" dur="1s" keyTimes="0;0.16;0.18;1" values="none;inline;none;none" />
</g>
<g display="none" fill="#fff">
  <path d="M14.999 4.465C9.19 4.465 4.464 9.191 4.464 15c0 5.81 4.726 10.535 10.535 10.535 5.81 0 10.535-4.726 10.535-10.535S20.809 4.465 14.999 4.465zm6.63 8.819l-3.352 3.275 1.245 5.225c.05.21-.04.429-.224.542-.184.112-.42.096-.584-.043l-3.716-3.122-3.714 3.122c-.092.077-.207.117-.322.117-.091 0-.182-.024-.262-.074-.184-.113-.274-.331-.224-.541l1.24-5.226-3.345-3.275c-.146-.142-.19-.358-.113-.546s.26-.311.463-.311l4.148-.001 1.659-4.623c.071-.199.26-.331.471-.331.211 0 .399.133.471.332l1.654 4.622 4.155.001c.203 0 .387.123.463.312.077.187.032.403-.113.545z"/>
  <path d="M16.301 13.094l-1.302-3.64-1.307 3.641c-.071.199-.26.331-.471.331H9.946l2.672 2.617c.125.123.177.302.137.473l-.956 4.029 2.878-2.42c.187-.156.457-.156.644 0l2.878 2.419-.96-4.027c-.041-.171.011-.351.137-.474l2.677-2.617h-3.281c-.211 0-.4-.133-.471-.332z"/>
  <path d="M0 0v30h30V0H0zm14.999 26.535C8.639 26.535 3.464 21.36 3.464 15S8.639 3.465 14.999 3.465 26.534 8.64 26.534 15s-5.175 11.535-11.535 11.535z"/>
  <animate attributeName="display" fill="freeze" repeatCount="1" dur="1s" keyTimes="0;0.18;0.2;1" values="none;inline;none;none" />
</g>
<g display="none" fill="#fff">
  <path d="M14.999 4.465C9.19 4.465 4.464 9.191 4.464 15c0 5.81 4.726 10.535 10.535 10.535 5.81 0 10.535-4.726 10.535-10.535S20.809 4.465 14.999 4.465zm6.337 8.81l-3.192 3.279 1.187 5.235c.048.211-.046.43-.232.54-.079.047-.167.07-.255.07-.119 0-.237-.042-.331-.125L15 19.173l-3.511 3.101c-.163.143-.399.163-.586.056-.187-.111-.281-.329-.233-.541l1.183-5.235-3.188-3.279c-.14-.144-.18-.358-.102-.543s.259-.306.46-.306l3.927-.001 1.577-4.615c.069-.202.259-.338.473-.338.214 0 .404.136.473.339l1.572 4.615 3.934.001c.201 0 .383.121.461.306s.036.398-.104.542z"/>
  <path d="M0 0v30h30V0H0zm14.999 26.535C8.639 26.535 3.464 21.36 3.464 15S8.639 3.465 14.999 3.465 26.534 8.64 26.534 15s-5.175 11.535-11.535 11.535z"/>
  <path d="M16.213 13.087l-1.214-3.566-1.219 3.567c-.069.202-.259.338-.473.338h-3.102l2.553 2.625c.118.121.167.294.129.459l-.901 3.991 2.682-2.369c.189-.166.473-.166.662 0l2.683 2.368-.904-3.99c-.038-.165.011-.338.129-.459l2.556-2.625h-3.106c-.215 0-.406-.136-.475-.339z"/>
  <animate attributeName="display" fill="freeze" repeatCount="1" dur="1s" keyTimes="0;0.2;0.22;1" values="none;inline;none;none" />
</g>
<g display="none" fill="#fff">
  <path d="M16.104 13.078l-1.105-3.463-1.109 3.463c-.066.207-.259.348-.476.348h-2.882l2.402 2.637c.108.119.153.283.12.44l-.834 3.937 2.436-2.297c.192-.182.493-.182.686 0l2.437 2.296-.836-3.936c-.033-.157.012-.321.12-.44l2.404-2.637H16.58c-.218 0-.41-.141-.476-.348z"/>
  <path d="M14.999 4.465C9.19 4.465 4.464 9.191 4.464 15c0 5.81 4.726 10.535 10.535 10.535 5.81 0 10.535-4.726 10.535-10.535S20.809 4.465 14.999 4.465zm5.97 8.799l-2.995 3.284 1.115 5.249c.045.214-.054.433-.244.539-.077.043-.161.064-.245.064-.124 0-.248-.047-.343-.136l-3.258-3.069-3.256 3.069c-.159.148-.398.178-.587.071-.191-.106-.29-.325-.245-.539l1.111-5.249-2.992-3.283c-.133-.146-.168-.358-.088-.539s.259-.298.458-.298l3.649-.001 1.474-4.606c.066-.207.259-.348.476-.348.218 0 .41.141.477.348l1.47 4.605 3.654.001c.198 0 .378.117.457.298.08.182.046.393-.088.54z"/>
  <path d="M0 0v30h30V0H0zm14.999 26.535C8.639 26.535 3.464 21.36 3.464 15S8.639 3.465 14.999 3.465 26.534 8.64 26.534 15s-5.175 11.535-11.535 11.535z"/>
  <animate attributeName="display" fill="freeze" repeatCount="1" dur="1s" keyTimes="0;0.22;0.24;1" values="none;inline;none;none" />
</g>
<g display="none" fill="#fff">
  <path d="M14.999 4.465C9.19 4.465 4.464 9.191 4.464 15c0 5.81 4.726 10.535 10.535 10.535 5.81 0 10.535-4.726 10.535-10.535S20.809 4.465 14.999 4.465zm5.536 8.783l-2.763 3.291 1.029 5.266c.043.217-.062.436-.258.538-.073.039-.153.058-.232.058-.132 0-.262-.052-.357-.15l-2.955-3.026-2.953 3.026c-.156.158-.396.196-.59.093-.196-.103-.301-.321-.259-.538l1.025-5.266-2.758-3.291c-.125-.149-.152-.356-.07-.533.082-.176.259-.289.453-.289l3.318-.001 1.353-4.595c.062-.213.258-.359.479-.359.222 0 .417.146.48.359l1.348 4.594 3.325.001c.194 0 .371.113.453.289.085.177.057.385-.068.533z"/>
  <path d="M15.973 13.066l-.975-3.321-.979 3.322c-.062.213-.258.359-.479.359h-2.621l2.223 2.653c.097.116.136.269.107.417l-.751 3.858 2.143-2.196c.188-.191.527-.191.716 0l2.143 2.195-.754-3.857c-.029-.148.01-.302.107-.417l2.227-2.653h-2.627c-.222 0-.417-.147-.48-.36z"/>
  <path d="M0 0v30h30V0H0zm14.999 26.535C8.639 26.535 3.464 21.36 3.464 15S8.639 3.465 14.999 3.465 26.534 8.64 26.534 15s-5.175 11.535-11.535 11.535z"/>
  <animate attributeName="display" fill="freeze" repeatCount="1" dur="1s" keyTimes="0;0.24;0.26;1" values="none;inline;none;none" />
</g>
<g display="none" fill="#fff">
  <path d="M14.999 4.465C9.19 4.465 4.464 9.191 4.464 15c0 5.81 4.726 10.535 10.535 10.535 5.81 0 10.535-4.726 10.535-10.535S20.809 4.465 14.999 4.465zm5.014 8.762l-2.479 3.3.925 5.287c.039.221-.074.44-.276.537-.203.098-.444.048-.592-.122L15 19.268l-2.588 2.962c-.097.111-.236.171-.376.171-.073 0-.146-.016-.215-.049-.203-.097-.316-.316-.277-.537l.921-5.287-2.476-3.3c-.114-.152-.132-.354-.047-.524s.258-.276.447-.276l2.921-.001 1.208-4.581c.058-.22.256-.373.483-.373.228 0 .426.153.483.373l1.205 4.581 2.926.001c.189 0 .362.107.447.277.084.168.065.371-.049.522z"/>
  <path d="M15.818 13.053l-.819-3.117-.822 3.117c-.058.22-.256.373-.483.373h-2.306l2.006 2.674c.083.11.116.25.093.386l-.652 3.739 1.789-2.047c.189-.216.562-.218.753 0l1.789 2.046-.654-3.738c-.024-.136.01-.275.093-.387l2.009-2.673h-2.311c-.229 0-.427-.154-.485-.373z"/>
  <path d="M0 0v30h30V0H0zm14.999 26.535C8.639 26.535 3.464 21.36 3.464 15S8.639 3.465 14.999 3.465 26.534 8.64 26.534 15s-5.175 11.535-11.535 11.535z"/>
  <animate attributeName="display" fill="freeze" repeatCount="1" dur="1s" keyTimes="0;0.26;0.28;1" values="none;inline;none;none" />
</g>
<g display="none" fill="#fff">
  <path d="M14.999 4.465C9.19 4.465 4.464 9.191 4.464 15c0 5.81 4.726 10.535 10.535 10.535 5.81 0 10.535-4.726 10.535-10.535S20.809 4.465 14.999 4.465zM19.43 13.2l-2.165 3.313.808 5.312c.034.226-.089.446-.299.535-.212.092-.454.024-.594-.157L15 19.334l-2.18 2.869c-.097.127-.246.197-.398.197-.065 0-.132-.013-.195-.039-.21-.09-.334-.31-.299-.536l.805-5.312L10.57 13.2c-.1-.154-.108-.35-.021-.511.087-.162.256-.262.44-.262l2.477-.001 1.047-4.565c.051-.228.254-.389.487-.389.233 0 .436.161.487.389l1.043 4.565 2.48.001c.184 0 .353.101.439.262.089.161.08.357-.019.511z"/>
  <path d="M0 0v30h30V0H0zm14.999 26.535C8.639 26.535 3.464 21.36 3.464 15S8.639 3.465 14.999 3.465 26.534 8.64 26.534 15s-5.175 11.535-11.535 11.535z"/>
  <path d="M15.645 13.037l-.646-2.824-.647 2.825c-.052.227-.254.388-.487.388h-1.952l1.763 2.701c.067.104.094.227.075.349l-.54 3.562 1.392-1.832c.188-.248.607-.248.796 0l1.391 1.83-.541-3.56c-.019-.121.008-.246.075-.349l1.765-2.701h-1.955c-.236 0-.438-.161-.489-.389z"/>
  <animate attributeName="display" fill="freeze" repeatCount="1" dur="1s" keyTimes="0;0.28;0.3;1" values="none;inline;none;none" />
</g>
<g display="none" fill="#fff">
  <path d="M14.999 4.465C9.19 4.465 4.464 9.191 4.464 15c0 5.81 4.726 10.535 10.535 10.535 5.81 0 10.535-4.726 10.535-10.535S20.809 4.465 14.999 4.465zm3.772 8.701l-1.809 3.332.675 5.341c.029.232-.106.454-.327.533-.221.077-.466-.006-.592-.204L15 19.444l-1.719 2.723c-.094.148-.255.233-.423.233-.056 0-.113-.01-.169-.029-.22-.079-.356-.301-.327-.533l.673-5.341-1.806-3.332c-.084-.155-.081-.343.01-.494s.253-.244.43-.244l1.975-.001.866-4.547c.043-.236.249-.407.49-.407s.446.171.491.407l.863 4.547 1.979.001c.177 0 .34.093.43.245.089.151.092.338.008.494z"/>
  <path d="M15.449 13.019l-.45-2.37-.451 2.371c-.045.235-.251.406-.491.406h-1.549l1.483 2.736c.05.092.07.197.057.301l-.412 3.27.942-1.491c.184-.291.662-.291.846 0l.941 1.49-.413-3.269c-.013-.104.007-.209.057-.301l1.485-2.736h-1.552c-.242 0-.448-.171-.493-.407z"/>
  <path d="M0 0v30h30V0H0zm14.999 26.535C8.639 26.535 3.464 21.36 3.464 15S8.639 3.465 14.999 3.465 26.534 8.64 26.534 15s-5.175 11.535-11.535 11.535z"/>
  <animate attributeName="display" fill="freeze" repeatCount="1" dur="1s" keyTimes="0;0.3;0.32;1" values="none;inline;none;none" />
</g>
<g display="none" fill="#fff">
  <path d="M14.999 4.465C9.19 4.465 4.464 9.191 4.464 15c0 5.81 4.726 10.535 10.535 10.535 5.81 0 10.535-4.726 10.535-10.535S20.809 4.465 14.999 4.465zm3.064 8.657l-1.423 3.356.531 5.373c.023.24-.128.463-.36.529-.232.07-.479-.042-.586-.259L15 19.638l-1.225 2.483c-.086.175-.262.279-.448.279-.045 0-.092-.006-.137-.02-.232-.066-.384-.289-.36-.529l.528-5.373-1.421-3.357c-.065-.154-.049-.331.043-.471.093-.14.249-.224.417-.224l1.436-.001.674-4.527c.035-.245.245-.426.493-.426s.458.182.495.427l.672 4.527 1.438.001c.168 0 .324.084.417.224.091.14.107.317.041.471z"/>
  <path d="M15.24 12.999l-.241-1.626L14.757 13c-.037.245-.247.426-.494.426h-1.112l1.177 2.779c.033.077.045.161.037.244l-.272 2.767.458-.929c.168-.342.729-.341.896-.001l.458.93-.273-2.767c-.008-.083.004-.167.037-.244l1.178-2.779h-1.114c-.246 0-.456-.182-.493-.427z"/>
  <path d="M0 0v30h30V0H0zm14.999 26.535C8.639 26.535 3.464 21.36 3.464 15S8.639 3.465 14.999 3.465 26.534 8.64 26.534 15s-5.175 11.535-11.535 11.535z"/>
  <animate attributeName="display" fill="freeze" repeatCount="1" dur="1s" keyTimes="0;0.32;0.34;1" values="none;inline;none;none" />
</g>
<g display="none" fill="#fff">
  <path d="M0 0v30h30V0H0zm14.999 26.535C8.639 26.535 3.464 21.36 3.464 15S8.639 3.465 14.999 3.465 26.534 8.64 26.534 15s-5.175 11.535-11.535 11.535z"/>
  <path d="M15.028 12.979l-.029-.274-.029.274c-.027.254-.241.447-.497.447h-.661l.856 2.83c.018.058.024.119.02.18l-.128 1.834c.086-.159.254-.262.44-.262s.354.103.44.263l-.129-1.835c-.004-.061.002-.122.02-.181l.858-2.829h-.664c-.255 0-.47-.193-.497-.447z"/>
  <path d="M14.999 4.465C9.19 4.465 4.464 9.191 4.464 15c0 5.81 4.726 10.535 10.535 10.535 5.81 0 10.535-4.726 10.535-10.535S20.809 4.465 14.999 4.465zm2.342 8.607l-1.027 3.385.383 5.408c.018.25-.152.474-.397.524-.034.008-.068.011-.102.011-.208 0-.4-.131-.472-.334L15 20.011l-.725 2.056c-.083.236-.329.378-.573.323-.245-.051-.415-.274-.397-.524l.38-5.408-1.025-3.385c-.046-.151-.018-.316.077-.443s.243-.202.401-.202h.885l.479-4.507c.027-.256.242-.449.498-.449s.47.193.497.447l.479 4.507h.887c.158 0 .308.075.401.202.094.128.123.292.077.444z"/>
  <animate attributeName="display" fill="freeze" repeatCount="1" dur="1s" keyTimes="0;0.34;0.36;1" values="none;inline;none;none" />
</g>
<g display="none" fill="#fff">
  <path d="M14.999 4.465C9.19 4.465 4.464 9.191 4.464 15c0 5.81 4.726 10.535 10.535 10.535 5.81 0 10.535-4.726 10.535-10.535S20.809 4.465 14.999 4.465zm1.243 17.414c.012.259-.178.483-.435.518-.25.037-.497-.136-.553-.39L15 20.846l-.254 1.161c-.051.232-.256.394-.488.394-.021 0-.043-.001-.065-.004-.257-.034-.446-.259-.435-.518l.238-5.442-.642-3.417c-.028-.146.011-.297.106-.411.095-.115.235-.181.384-.181h.36l.296-4.487c.019-.265.237-.469.5-.469.264 0 .481.205.499.467l.295 4.487h.362c.148 0 .289.066.384.181.095.114.134.265.106.411l-.643 3.417.239 5.444z"/>
  <path d="M15 13.305c-.088.076-.202.121-.326.121h-.226l.541 2.881c.007.038.01.076.008.114l-.069 1.591c.047-.006.097-.006.144 0l-.07-1.591c-.001-.038.001-.076.008-.114l.542-2.881h-.228c-.123 0-.237-.046-.324-.121z"/>
  <path d="M0 0v30h30V0H0zm14.999 26.535C8.639 26.535 3.464 21.36 3.464 15S8.639 3.465 14.999 3.465 26.534 8.64 26.534 15s-5.175 11.535-11.535 11.535z"/>
  <animate attributeName="display" fill="freeze" repeatCount="1" dur="1s" keyTimes="0;0.36;0.38;1" values="none;inline;none;none" />
</g>
<g display="none" fill="#fff">
  <path d="M14.999 4.465C9.19 4.465 4.464 9.191 4.464 15c0 5.81 4.726 10.535 10.535 10.535 5.81 0 10.535-4.726 10.535-10.535S20.809 4.465 14.999 4.465zm.852 17.425c.005.269-.202.493-.469.51-.01.001-.021.001-.031.001-.135 0-.26-.055-.351-.144-.098.096-.235.157-.382.143-.268-.017-.475-.241-.469-.51l.114-5.5-.307-3.418c-.012-.14.034-.278.129-.381.073-.081.17-.134.275-.154l.14-4.479c.009-.27.23-.484.5-.484s.491.214.5.484l.139 4.479c.106.02.203.074.276.154.095.104.142.242.129.381l-.309 3.473.116 5.445z"/>
  <polygon points="15 13.423 15.002 13.402 14.998 13.402"/>
  <path d="M0 0v30h30V0H0zm14.999 26.535C8.639 26.535 3.464 21.36 3.464 15S8.639 3.465 14.999 3.465 26.534 8.64 26.534 15s-5.175 11.535-11.535 11.535z"/>
  <animate attributeName="display" fill="freeze" repeatCount="1" dur="1s" keyTimes="0;0.38;0.4;1" values="none;inline;none;none" />
</g>
<g display="none" fill="#fff">
  <path d="M14.999 4.465C9.19 4.465 4.464 9.191 4.464 15c0 5.81 4.726 10.535 10.535 10.535 5.81 0 10.535-4.726 10.535-10.535S20.809 4.465 14.999 4.465zm.582 17.433c.001.273-.219.498-.493.502h-.007c-.028 0-.055-.002-.081-.007-.028.005-.057.009-.088.007-.274-.004-.494-.229-.493-.502l.026-5.5-.071-3.461c-.002-.108.031-.213.092-.3l.034-4.668c.002-.275.225-.497.5-.497s.498.222.5.497l.034 4.721c.054.075.093.16.092.247l-.071 3.474.026 5.487z"/>
  <path d="M0 0v30h30V0H0zm14.999 26.535C8.639 26.535 3.464 21.36 3.464 15S8.639 3.465 14.999 3.465 26.534 8.64 26.534 15s-5.175 11.535-11.535 11.535z"/>
  <animate attributeName="display" fill="freeze" repeatCount="1" dur="1s" keyTimes="0;0.4;0.42;1" values="none;inline;none;none" />
</g>
<g display="none" fill="#fff">
  <path d="M14.999 4.465C9.19 4.465 4.464 9.191 4.464 15c0 5.81 4.726 10.535 10.535 10.535 5.81 0 10.535-4.726 10.535-10.535S20.809 4.465 14.999 4.465zm.505 17.435c0 .276-.224.5-.5.5h-.009c-.276 0-.5-.224-.5-.5l-.002-8.973c0-.024.001-.047.005-.071l.002-4.884c0-.276.224-.5.5-.5s.5.224.5.5l.002 4.885c.003.023.005.046.005.07l-.004 3.474.001 5.499z"/>
  <path d="M0 0v30h30V0H0zm14.999 26.535C8.639 26.535 3.464 21.36 3.464 15S8.639 3.465 14.999 3.465 26.534 8.64 26.534 15s-5.175 11.535-11.535 11.535z"/>
  <animate attributeName="display" fill="freeze" repeatCount="1" dur="1s" keyTimes="0;0.42;0.44;1" values="none;inline;none;none" />
</g>
<g display="none" fill="#fff">
  <path d="M14.999 4.465C9.19 4.465 4.464 9.191 4.464 15c0 5.81 4.726 10.535 10.535 10.535 5.81 0 10.535-4.726 10.535-10.535S20.809 4.465 14.999 4.465zm.69 17.43c.003.272-.211.496-.483.506h-.017c-.066 0-.13-.013-.188-.037-.064.026-.137.039-.206.037-.272-.01-.486-.233-.483-.506l.061-5.5-.166-3.444c-.006-.136.043-.269.137-.368.024-.026.051-.048.08-.068l.077-4.55c.005-.273.227-.492.5-.492s.495.219.5.492l.076 4.55c.029.02.056.042.081.068.094.099.143.232.137.368l-.167 3.474.061 5.47z"/>
  <path d="M0 0v30h30V0H0zm14.999 26.535C8.639 26.535 3.464 21.36 3.464 15S8.639 3.465 14.999 3.465 26.534 8.64 26.534 15s-5.175 11.535-11.535 11.535z"/>
  <animate attributeName="display" fill="freeze" repeatCount="1" dur="1s" keyTimes="0;0.44;0.46;1" values="none;inline;none;none" />
</g>
<g display="none" fill="#fff">
  <path d="M14.999 13.316c-.085.069-.194.11-.312.11h-.195L15 16.247l.509-2.821h-.197c-.118 0-.227-.041-.313-.11z"/>
  <path d="M14.952 18.01c.031-.002.064-.002.095 0L15 16.877l-.048 1.133z"/>
  <path d="M14.999 4.465C9.19 4.465 4.464 9.191 4.464 15c0 5.81 4.726 10.535 10.535 10.535 5.81 0 10.535-4.726 10.535-10.535S20.809 4.465 14.999 4.465zm1.212 17.415c.011.26-.18.484-.438.517-.262.036-.498-.139-.551-.394L15 20.945l-.222 1.058c-.049.234-.255.397-.489.397-.021 0-.042-.001-.062-.004-.258-.032-.448-.257-.438-.517l.228-5.445-.615-3.419c-.026-.146.014-.295.108-.409.095-.114.235-.18.383-.18h.324l.284-4.486c.017-.263.235-.468.499-.468s.482.205.499.469l.283 4.485h.326c.147 0 .288.066.383.18s.135.263.108.409l-.617 3.419.229 5.446z"/>
  <path d="M0 0v30h30V0H0zm14.999 26.535C8.639 26.535 3.464 21.36 3.464 15S8.639 3.465 14.999 3.465 26.534 8.64 26.534 15s-5.175 11.535-11.535 11.535z"/>
  <animate attributeName="display" fill="freeze" repeatCount="1" dur="1s" keyTimes="0;0.46;0.48;1" values="none;inline;none;none" />
</g>
<g display="none" fill="#fff">
  <path d="M14.999 4.465C9.19 4.465 4.464 9.191 4.464 15c0 5.81 4.726 10.535 10.535 10.535 5.81 0 10.535-4.726 10.535-10.535S20.809 4.465 14.999 4.465zm2.977 8.651l-1.375 3.359.513 5.377c.022.242-.131.465-.365.529-.234.067-.48-.048-.584-.267L15 19.671l-1.164 2.444c-.085.178-.263.285-.452.285-.044 0-.089-.006-.133-.018-.234-.065-.387-.288-.364-.529l.511-5.378-1.374-3.36c-.063-.154-.045-.329.048-.468.093-.138.248-.221.415-.221l1.368-.001.65-4.525c.035-.245.246-.428.495-.428s.459.183.495.429l.648 4.524 1.37.001c.167 0 .322.083.415.222.093.139.11.314.048.468z"/>
  <path d="M15.214 12.997l-.215-1.502-.216 1.503c-.036.246-.246.429-.495.429H13.23l1.139 2.785c.031.075.042.156.035.236l-.254 2.682.398-.837c.166-.348.737-.348.903 0l.397.835-.255-2.68c-.008-.081.004-.162.035-.237l1.14-2.785h-1.059c-.249 0-.459-.183-.495-.429z"/>
  <path d="M0 0v30h30V0H0zm14.999 26.535C8.639 26.535 3.464 21.36 3.464 15S8.639 3.465 14.999 3.465 26.534 8.64 26.534 15s-5.175 11.535-11.535 11.535z"/>
  <animate attributeName="display" fill="freeze" repeatCount="1" dur="1s" keyTimes="0;0.48;0.5;1" values="none;inline;none;none" />
</g>
<g display="none" fill="#fff">
  <path d="M14.999 4.465C9.19 4.465 4.464 9.191 4.464 15c0 5.81 4.726 10.535 10.535 10.535 5.81 0 10.535-4.726 10.535-10.535S20.809 4.465 14.999 4.465zm4.926 8.758l-2.433 3.302.908 5.29c.038.222-.077.441-.28.537-.205.095-.446.045-.593-.127L15 19.276l-2.527 2.949c-.098.113-.237.175-.38.175-.072 0-.145-.016-.212-.048-.204-.095-.318-.314-.28-.536l.904-5.291-2.429-3.302c-.112-.152-.128-.354-.043-.522.085-.168.258-.274.446-.274l2.854-.001 1.184-4.579c.055-.221.254-.375.483-.375s.427.154.484.375l1.179 4.578 2.859.001c.188 0 .361.106.446.274.086.17.069.372-.043.523z"/>
  <path d="M15.791 13.05l-.792-3.077-.796 3.078c-.057.221-.256.375-.484.375h-2.252l1.969 2.678c.081.109.113.246.09.38l-.635 3.717 1.729-2.019c.19-.223.57-.223.759 0l1.729 2.017-.638-3.714c-.022-.135.01-.272.091-.382l1.973-2.677h-2.258c-.229 0-.428-.155-.485-.376z"/>
  <path d="M0 0v30h30V0H0zm14.999 26.535C8.639 26.535 3.464 21.36 3.464 15S8.639 3.465 14.999 3.465 26.534 8.64 26.534 15s-5.175 11.535-11.535 11.535z"/>
  <animate attributeName="display" fill="freeze" repeatCount="1" dur="1s" keyTimes="0;0.5;0.52;1" values="none;inline;none;none" />
</g>
<g display="none" fill="#fff">
  <path d="M14.999 4.465C9.19 4.465 4.464 9.191 4.464 15c0 5.81 4.726 10.535 10.535 10.535 5.81 0 10.535-4.726 10.535-10.535S20.809 4.465 14.999 4.465zm7.331 8.838l-3.729 3.27 1.382 5.2c.055.206-.027.424-.204.543-.085.056-.181.084-.279.084-.106 0-.212-.034-.301-.101l-4.2-3.166-4.198 3.167c-.171.127-.403.134-.58.016-.177-.119-.259-.337-.205-.543l1.376-5.2-3.723-3.27c-.156-.137-.211-.357-.138-.552.073-.195.26-.324.468-.324l4.679-.001 1.856-4.639c.076-.19.26-.314.464-.314.204 0 .388.125.464.315l1.85 4.639H22c.208 0 .395.129.468.324s.018.415-.138.552z"/>
  <path d="M16.51 13.111L14.998 9.32l-1.517 3.792c-.076.19-.26.314-.464.314h-3.69l2.958 2.598c.143.125.202.32.153.504l-1.085 4.103 3.345-2.522c.179-.135.424-.135.602 0l3.346 2.521-1.09-4.102c-.049-.184.011-.379.153-.504l2.963-2.598h-3.697c-.205 0-.389-.125-.465-.315z"/>
  <path d="M0 0v30h30V0H0zm14.999 26.535C8.639 26.535 3.464 21.36 3.464 15S8.639 3.465 14.999 3.465 26.534 8.64 26.534 15s-5.175 11.535-11.535 11.535z"/>
  <animate attributeName="display" fill="freeze" repeatCount="1" dur="1s" keyTimes="0;0.52;0.54;1" values="none;inline;none;none" />
</g>
<g display="none" fill="#fff">
  <path d="M14.999 4.465C9.19 4.465 4.464 9.191 4.464 15c0 5.81 4.726 10.535 10.535 10.535 5.81 0 10.535-4.726 10.535-10.535S20.809 4.465 14.999 4.465zm4.926 8.758l-2.433 3.302.908 5.29c.038.222-.077.441-.28.537-.205.095-.446.045-.593-.127L15 19.276l-2.527 2.949c-.098.113-.237.175-.38.175-.072 0-.145-.016-.212-.048-.204-.095-.318-.314-.28-.536l.904-5.291-2.429-3.302c-.112-.152-.128-.354-.043-.522.085-.168.258-.274.446-.274l2.854-.001 1.184-4.579c.055-.221.254-.375.483-.375s.427.154.484.375l1.179 4.578 2.859.001c.188 0 .361.106.446.274.086.17.069.372-.043.523z"/>
  <path d="M15.791 13.05l-.792-3.077-.796 3.078c-.057.221-.256.375-.484.375h-2.252l1.969 2.678c.081.109.113.246.09.38l-.635 3.717 1.729-2.019c.19-.223.57-.223.759 0l1.729 2.017-.638-3.714c-.022-.135.01-.272.091-.382l1.973-2.677h-2.258c-.229 0-.428-.155-.485-.376z"/>
  <path d="M0 0v30h30V0H0zm14.999 26.535C8.639 26.535 3.464 21.36 3.464 15S8.639 3.465 14.999 3.465 26.534 8.64 26.534 15s-5.175 11.535-11.535 11.535z"/>
  <animate attributeName="display" fill="freeze" repeatCount="1" dur="1s" keyTimes="0;0.54;0.56;1" values="none;inline;none;none" />
</g>
<g display="none" fill="#fff">
  <path d="M0 0v30h30V0H0zm14.999 26.535C8.639 26.535 3.464 21.36 3.464 15S8.639 3.465 14.999 3.465 26.534 8.64 26.534 15s-5.175 11.535-11.535 11.535z"/>
  <path d="M14.999 4.465C9.19 4.465 4.464 9.191 4.464 15c0 5.81 4.726 10.535 10.535 10.535 5.81 0 10.535-4.726 10.535-10.535S20.809 4.465 14.999 4.465zm2.977 8.651l-1.375 3.359.513 5.377c.022.242-.131.465-.365.529-.234.067-.48-.048-.584-.267L15 19.671l-1.164 2.444c-.085.178-.263.285-.452.285-.044 0-.089-.006-.133-.018-.234-.065-.387-.288-.364-.529l.511-5.378-1.374-3.36c-.063-.154-.045-.329.048-.468.093-.138.248-.221.415-.221l1.368-.001.65-4.525c.035-.245.246-.428.495-.428s.459.183.495.429l.648 4.524 1.37.001c.167 0 .322.083.415.222.093.139.11.314.048.468z"/>
  <path d="M15.214 12.997l-.215-1.502-.216 1.503c-.036.246-.246.429-.495.429H13.23l1.139 2.785c.031.075.042.156.035.236l-.254 2.682.398-.837c.166-.348.737-.348.903 0l.397.835-.255-2.68c-.008-.081.004-.162.035-.237l1.14-2.785h-1.059c-.249 0-.459-.183-.495-.429z"/>
  <animate attributeName="display" fill="freeze" repeatCount="1" dur="1s" keyTimes="0;0.56;0.58;1" values="none;inline;none;none" />
</g>
<g display="none" fill="#fff">
  <path d="M14.999 4.465C9.19 4.465 4.464 9.191 4.464 15c0 5.81 4.726 10.535 10.535 10.535 5.81 0 10.535-4.726 10.535-10.535S20.809 4.465 14.999 4.465zm1.212 17.415c.011.26-.18.484-.438.517-.262.036-.498-.139-.551-.394L15 20.945l-.222 1.058c-.049.234-.255.397-.489.397-.021 0-.042-.001-.062-.004-.258-.032-.448-.257-.438-.517l.228-5.445-.615-3.419c-.026-.146.014-.295.108-.409.095-.114.235-.18.383-.18h.324l.284-4.486c.017-.263.235-.468.499-.468s.482.205.499.469l.283 4.485h.326c.147 0 .288.066.383.18s.135.263.108.409l-.617 3.419.229 5.446z"/>
  <path d="M14.999 13.316c-.085.069-.194.11-.312.11h-.195L15 16.247l.509-2.821h-.197c-.118 0-.227-.041-.313-.11z"/>
  <path d="M14.952 18.01c.031-.002.064-.002.095 0L15 16.877l-.048 1.133z"/>
  <path d="M0 0v30h30V0H0zm14.999 26.535C8.639 26.535 3.464 21.36 3.464 15S8.639 3.465 14.999 3.465 26.534 8.64 26.534 15s-5.175 11.535-11.535 11.535z"/>
  <animate attributeName="display" fill="freeze" repeatCount="1" dur="1s" keyTimes="0;0.58;0.6;1" values="none;inline;none;none" />
</g>
<g display="none" fill="#fff">
  <path d="M14.999 4.465C9.19 4.465 4.464 9.191 4.464 15c0 5.81 4.726 10.535 10.535 10.535 5.81 0 10.535-4.726 10.535-10.535S20.809 4.465 14.999 4.465zm.69 17.43c.003.272-.211.496-.483.506h-.017c-.066 0-.13-.013-.188-.037-.064.026-.137.039-.206.037-.272-.01-.486-.233-.483-.506l.061-5.5-.166-3.444c-.006-.136.043-.269.137-.368.024-.026.051-.048.08-.068l.077-4.55c.005-.273.227-.492.5-.492s.495.219.5.492l.076 4.55c.029.02.056.042.081.068.094.099.143.232.137.368l-.167 3.474.061 5.47z"/>
  <path d="M0 0v30h30V0H0zm14.999 26.535C8.639 26.535 3.464 21.36 3.464 15S8.639 3.465 14.999 3.465 26.534 8.64 26.534 15s-5.175 11.535-11.535 11.535z"/>
  <animate attributeName="display" fill="freeze" repeatCount="1" dur="1s" keyTimes="0;0.6;0.62;1" values="none;inline;none;none" />
</g>
<g display="none" fill="#fff">
  <path d="M14.999 4.465C9.19 4.465 4.464 9.191 4.464 15c0 5.81 4.726 10.535 10.535 10.535 5.81 0 10.535-4.726 10.535-10.535S20.809 4.465 14.999 4.465zm.505 17.435c0 .276-.224.5-.5.5h-.009c-.276 0-.5-.224-.5-.5l-.002-8.973c0-.024.001-.047.005-.071l.002-4.884c0-.276.224-.5.5-.5s.5.224.5.5l.002 4.885c.003.023.005.046.005.07l-.004 3.474.001 5.499z"/>
  <path d="M0 0v30h30V0H0zm14.999 26.535C8.639 26.535 3.464 21.36 3.464 15S8.639 3.465 14.999 3.465 26.534 8.64 26.534 15s-5.175 11.535-11.535 11.535z"/>
  <animate attributeName="display" fill="freeze" repeatCount="1" dur="1s" keyTimes="0;0.62;0.64;1" values="none;inline;none;none" />
</g>
<g display="none" fill="#fff">
  <path d="M14.999 4.465C9.19 4.465 4.464 9.191 4.464 15c0 5.81 4.726 10.535 10.535 10.535 5.81 0 10.535-4.726 10.535-10.535S20.809 4.465 14.999 4.465zm.582 17.433c.001.273-.219.498-.493.502h-.007c-.028 0-.055-.002-.081-.007-.028.005-.057.009-.088.007-.274-.004-.494-.229-.493-.502l.026-5.5-.071-3.461c-.002-.108.031-.213.092-.3l.034-4.668c.002-.275.225-.497.5-.497s.498.222.5.497l.034 4.721c.054.075.093.16.092.247l-.071 3.474.026 5.487z"/>
  <path d="M0 0v30h30V0H0zm14.999 26.535C8.639 26.535 3.464 21.36 3.464 15S8.639 3.465 14.999 3.465 26.534 8.64 26.534 15s-5.175 11.535-11.535 11.535z"/>
  <animate attributeName="display" fill="freeze" repeatCount="1" dur="1s" keyTimes="0;0.64;0.66;1" values="none;inline;none;none" />
</g>
<g display="none" fill="#fff">
  <polygon points="15 13.423 15.002 13.402 14.998 13.402"/>
  <path d="M14.999 4.465C9.19 4.465 4.464 9.191 4.464 15c0 5.81 4.726 10.535 10.535 10.535 5.81 0 10.535-4.726 10.535-10.535S20.809 4.465 14.999 4.465zm.852 17.425c.005.269-.202.493-.469.51-.01.001-.021.001-.031.001-.135 0-.26-.055-.351-.144-.098.096-.235.157-.382.143-.268-.017-.475-.241-.469-.51l.114-5.5-.307-3.418c-.012-.14.034-.278.129-.381.073-.081.17-.134.275-.154l.14-4.479c.009-.27.23-.484.5-.484s.491.214.5.484l.139 4.479c.106.02.203.074.276.154.095.104.142.242.129.381l-.309 3.473.116 5.445z"/>
  <path d="M0 0v30h30V0H0zm14.999 26.535C8.639 26.535 3.464 21.36 3.464 15S8.639 3.465 14.999 3.465 26.534 8.64 26.534 15s-5.175 11.535-11.535 11.535z"/>
  <animate attributeName="display" fill="freeze" repeatCount="1" dur="1s" keyTimes="0;0.66;0.68;1" values="none;inline;none;none" />
</g>
<g display="none" fill="#fff">
  <path d="M14.999 4.465C9.19 4.465 4.464 9.191 4.464 15c0 5.81 4.726 10.535 10.535 10.535 5.81 0 10.535-4.726 10.535-10.535S20.809 4.465 14.999 4.465zm1.243 17.414c.012.259-.178.483-.435.518-.25.037-.497-.136-.553-.39L15 20.846l-.254 1.161c-.051.232-.256.394-.488.394-.021 0-.043-.001-.065-.004-.257-.034-.446-.259-.435-.518l.238-5.442-.642-3.417c-.028-.146.011-.297.106-.411.095-.115.235-.181.384-.181h.36l.296-4.487c.019-.265.237-.469.5-.469.264 0 .481.205.499.467l.295 4.487h.362c.148 0 .289.066.384.181.095.114.134.265.106.411l-.643 3.417.239 5.444z"/>
  <path d="M15 13.305c-.088.076-.202.121-.326.121h-.226l.541 2.881c.007.038.01.076.008.114l-.069 1.591c.047-.006.097-.006.144 0l-.07-1.591c-.001-.038.001-.076.008-.114l.542-2.881h-.228c-.123 0-.237-.046-.324-.121z"/>
  <path d="M0 0v30h30V0H0zm14.999 26.535C8.639 26.535 3.464 21.36 3.464 15S8.639 3.465 14.999 3.465 26.534 8.64 26.534 15s-5.175 11.535-11.535 11.535z"/>
  <animate attributeName="display" fill="freeze" repeatCount="1" dur="1s" keyTimes="0;0.68;0.7;1" values="none;inline;none;none" />
</g>
<g display="none" fill="#fff">
  <path d="M0 0v30h30V0H0zm14.999 26.535C8.639 26.535 3.464 21.36 3.464 15S8.639 3.465 14.999 3.465 26.534 8.64 26.534 15s-5.175 11.535-11.535 11.535z"/>
  <path d="M15.028 12.979l-.029-.274-.029.274c-.027.254-.241.447-.497.447h-.661l.856 2.83c.018.058.024.119.02.18l-.128 1.834c.086-.159.254-.262.44-.262s.354.103.44.263l-.129-1.835c-.004-.061.002-.122.02-.181l.858-2.829h-.664c-.255 0-.47-.193-.497-.447z"/>
  <path d="M14.999 4.465C9.19 4.465 4.464 9.191 4.464 15c0 5.81 4.726 10.535 10.535 10.535 5.81 0 10.535-4.726 10.535-10.535S20.809 4.465 14.999 4.465zm2.342 8.607l-1.027 3.385.383 5.408c.018.25-.152.474-.397.524-.034.008-.068.011-.102.011-.208 0-.4-.131-.472-.334L15 20.011l-.725 2.056c-.083.236-.329.378-.573.323-.245-.051-.415-.274-.397-.524l.38-5.408-1.025-3.385c-.046-.151-.018-.316.077-.443s.243-.202.401-.202h.885l.479-4.507c.027-.256.242-.449.498-.449s.47.193.497.447l.479 4.507h.887c.158 0 .308.075.401.202.094.128.123.292.077.444z"/>
  <animate attributeName="display" fill="freeze" repeatCount="1" dur="1s" keyTimes="0;0.7;0.72;1" values="none;inline;none;none" />
</g>
<g display="none" fill="#fff">
  <path d="M14.999 4.465C9.19 4.465 4.464 9.191 4.464 15c0 5.81 4.726 10.535 10.535 10.535 5.81 0 10.535-4.726 10.535-10.535S20.809 4.465 14.999 4.465zm3.064 8.657l-1.423 3.356.531 5.373c.023.24-.128.463-.36.529-.232.07-.479-.042-.586-.259L15 19.638l-1.225 2.483c-.086.175-.262.279-.448.279-.045 0-.092-.006-.137-.02-.232-.066-.384-.289-.36-.529l.528-5.373-1.421-3.357c-.065-.154-.049-.331.043-.471.093-.14.249-.224.417-.224l1.436-.001.674-4.527c.035-.245.245-.426.493-.426s.458.182.495.427l.672 4.527 1.438.001c.168 0 .324.084.417.224.091.14.107.317.041.471z"/>
  <path d="M15.24 12.999l-.241-1.626L14.757 13c-.037.245-.247.426-.494.426h-1.112l1.177 2.779c.033.077.045.161.037.244l-.272 2.767.458-.929c.168-.342.729-.341.896-.001l.458.93-.273-2.767c-.008-.083.004-.167.037-.244l1.178-2.779h-1.114c-.246 0-.456-.182-.493-.427z"/>
  <path d="M0 0v30h30V0H0zm14.999 26.535C8.639 26.535 3.464 21.36 3.464 15S8.639 3.465 14.999 3.465 26.534 8.64 26.534 15s-5.175 11.535-11.535 11.535z"/>
  <animate attributeName="display" fill="freeze" repeatCount="1" dur="1s" keyTimes="0;0.72;0.74;1" values="none;inline;none;none" />
</g>
<g display="none" fill="#fff">
  <path d="M0 0v30h30V0H0zm14.999 26.535C8.639 26.535 3.464 21.36 3.464 15S8.639 3.465 14.999 3.465 26.534 8.64 26.534 15s-5.175 11.535-11.535 11.535z"/>
  <path d="M15.449 13.019l-.45-2.37-.451 2.371c-.045.235-.251.406-.491.406h-1.549l1.483 2.736c.05.092.07.197.057.301l-.412 3.27.942-1.491c.184-.291.662-.291.846 0l.941 1.49-.413-3.269c-.013-.104.007-.209.057-.301l1.485-2.736h-1.552c-.242 0-.448-.171-.493-.407z"/>
  <path d="M14.999 4.465C9.19 4.465 4.464 9.191 4.464 15c0 5.81 4.726 10.535 10.535 10.535 5.81 0 10.535-4.726 10.535-10.535S20.809 4.465 14.999 4.465zm3.772 8.701l-1.809 3.332.675 5.341c.029.232-.106.454-.327.533-.221.077-.466-.006-.592-.204L15 19.444l-1.719 2.723c-.094.148-.255.233-.423.233-.056 0-.113-.01-.169-.029-.22-.079-.356-.301-.327-.533l.673-5.341-1.806-3.332c-.084-.155-.081-.343.01-.494s.253-.244.43-.244l1.975-.001.866-4.547c.043-.236.249-.407.49-.407s.446.171.491.407l.863 4.547 1.979.001c.177 0 .34.093.43.245.089.151.092.338.008.494z"/>
  <animate attributeName="display" fill="freeze" repeatCount="1" dur="1s" keyTimes="0;0.74;0.76;1" values="none;inline;none;none" />
</g>
<g display="none" fill="#fff">
  <path d="M15.645 13.037l-.646-2.824-.647 2.825c-.052.227-.254.388-.487.388h-1.952l1.763 2.701c.067.104.094.227.075.349l-.54 3.562 1.392-1.832c.188-.248.607-.248.796 0l1.391 1.83-.541-3.56c-.019-.121.008-.246.075-.349l1.765-2.701h-1.955c-.236 0-.438-.161-.489-.389z"/>
  <path d="M14.999 4.465C9.19 4.465 4.464 9.191 4.464 15c0 5.81 4.726 10.535 10.535 10.535 5.81 0 10.535-4.726 10.535-10.535S20.809 4.465 14.999 4.465zM19.43 13.2l-2.165 3.313.808 5.312c.034.226-.089.446-.299.535-.212.092-.454.024-.594-.157L15 19.334l-2.18 2.869c-.097.127-.246.197-.398.197-.065 0-.132-.013-.195-.039-.21-.09-.334-.31-.299-.536l.805-5.312L10.57 13.2c-.1-.154-.108-.35-.021-.511.087-.162.256-.262.44-.262l2.477-.001 1.047-4.565c.051-.228.254-.389.487-.389.233 0 .436.161.487.389l1.043 4.565 2.48.001c.184 0 .353.101.439.262.089.161.08.357-.019.511z"/>
  <path d="M0 0v30h30V0H0zm14.999 26.535C8.639 26.535 3.464 21.36 3.464 15S8.639 3.465 14.999 3.465 26.534 8.64 26.534 15s-5.175 11.535-11.535 11.535z"/>
  <animate attributeName="display" fill="freeze" repeatCount="1" dur="1s" keyTimes="0;0.76;0.78;1" values="none;inline;none;none" />
</g>
<g display="none" fill="#fff">
  <path d="M15.818 13.053l-.819-3.117-.822 3.117c-.058.22-.256.373-.483.373h-2.306l2.006 2.674c.083.11.116.25.093.386l-.652 3.739 1.789-2.047c.189-.216.562-.218.753 0l1.789 2.046-.654-3.738c-.024-.136.01-.275.093-.387l2.009-2.673h-2.311c-.229 0-.427-.154-.485-.373z"/>
  <path d="M14.999 4.465C9.19 4.465 4.464 9.191 4.464 15c0 5.81 4.726 10.535 10.535 10.535 5.81 0 10.535-4.726 10.535-10.535S20.809 4.465 14.999 4.465zm5.014 8.762l-2.479 3.3.925 5.287c.039.221-.074.44-.276.537-.203.098-.444.048-.592-.122L15 19.268l-2.588 2.962c-.097.111-.236.171-.376.171-.073 0-.146-.016-.215-.049-.203-.097-.316-.316-.277-.537l.921-5.287-2.476-3.3c-.114-.152-.132-.354-.047-.524s.258-.276.447-.276l2.921-.001 1.208-4.581c.058-.22.256-.373.483-.373.228 0 .426.153.483.373l1.205 4.581 2.926.001c.189 0 .362.107.447.277.084.168.065.371-.049.522z"/>
  <path d="M0 0v30h30V0H0zm14.999 26.535C8.639 26.535 3.464 21.36 3.464 15S8.639 3.465 14.999 3.465 26.534 8.64 26.534 15s-5.175 11.535-11.535 11.535z"/>
  <animate attributeName="display" fill="freeze" repeatCount="1" dur="1s" keyTimes="0;0.78;0.8;1" values="none;inline;none;none" />
</g>
<g display="none" fill="#fff">
  <path d="M14.999 4.465C9.19 4.465 4.464 9.191 4.464 15c0 5.81 4.726 10.535 10.535 10.535 5.81 0 10.535-4.726 10.535-10.535S20.809 4.465 14.999 4.465zm5.536 8.783l-2.763 3.291 1.029 5.266c.043.217-.062.436-.258.538-.073.039-.153.058-.232.058-.132 0-.262-.052-.357-.15l-2.955-3.026-2.953 3.026c-.156.158-.396.196-.59.093-.196-.103-.301-.321-.259-.538l1.025-5.266-2.758-3.291c-.125-.149-.152-.356-.07-.533.082-.176.259-.289.453-.289l3.318-.001 1.353-4.595c.062-.213.258-.359.479-.359.222 0 .417.146.48.359l1.348 4.594 3.325.001c.194 0 .371.113.453.289.085.177.057.385-.068.533z"/>
  <path d="M15.973 13.066l-.975-3.321-.979 3.322c-.062.213-.258.359-.479.359h-2.621l2.223 2.653c.097.116.136.269.107.417l-.751 3.858 2.143-2.196c.188-.191.527-.191.716 0l2.143 2.195-.754-3.857c-.029-.148.01-.302.107-.417l2.227-2.653h-2.627c-.222 0-.417-.147-.48-.36z"/>
  <path d="M0 0v30h30V0H0zm14.999 26.535C8.639 26.535 3.464 21.36 3.464 15S8.639 3.465 14.999 3.465 26.534 8.64 26.534 15s-5.175 11.535-11.535 11.535z"/>
  <animate attributeName="display" fill="freeze" repeatCount="1" dur="1s" keyTimes="0;0.8;0.82;1" values="none;inline;none;none" />
</g>
<g display="none" fill="#fff">
  <path d="M14.999 4.465C9.19 4.465 4.464 9.191 4.464 15c0 5.81 4.726 10.535 10.535 10.535 5.81 0 10.535-4.726 10.535-10.535S20.809 4.465 14.999 4.465zm5.97 8.799l-2.995 3.284 1.115 5.249c.045.214-.054.433-.244.539-.077.043-.161.064-.245.064-.124 0-.248-.047-.343-.136l-3.258-3.069-3.256 3.069c-.159.148-.398.178-.587.071-.191-.106-.29-.325-.245-.539l1.111-5.249-2.992-3.283c-.133-.146-.168-.358-.088-.539s.259-.298.458-.298l3.649-.001 1.474-4.606c.066-.207.259-.348.476-.348.218 0 .41.141.477.348l1.47 4.605 3.654.001c.198 0 .378.117.457.298.08.182.046.393-.088.54z"/>
  <path d="M16.104 13.078l-1.105-3.463-1.109 3.463c-.066.207-.259.348-.476.348h-2.882l2.402 2.637c.108.119.153.283.12.44l-.834 3.937 2.436-2.297c.192-.182.493-.182.686 0l2.437 2.296-.836-3.936c-.033-.157.012-.321.12-.44l2.404-2.637H16.58c-.218 0-.41-.141-.476-.348z"/>
  <path d="M0 0v30h30V0H0zm14.999 26.535C8.639 26.535 3.464 21.36 3.464 15S8.639 3.465 14.999 3.465 26.534 8.64 26.534 15s-5.175 11.535-11.535 11.535z"/>
  <animate attributeName="display" fill="freeze" repeatCount="1" dur="1s" keyTimes="0;0.82;0.84;1" values="none;inline;none;none" />
</g>
<g display="none" fill="#fff">
  <path d="M14.999 4.465C9.19 4.465 4.464 9.191 4.464 15c0 5.81 4.726 10.535 10.535 10.535 5.81 0 10.535-4.726 10.535-10.535S20.809 4.465 14.999 4.465zm6.337 8.81l-3.192 3.279 1.187 5.235c.048.211-.046.43-.232.54-.079.047-.167.07-.255.07-.119 0-.237-.042-.331-.125L15 19.173l-3.511 3.101c-.163.143-.399.163-.586.056-.187-.111-.281-.329-.233-.541l1.183-5.235-3.188-3.279c-.14-.144-.18-.358-.102-.543s.259-.306.46-.306l3.927-.001 1.577-4.615c.069-.202.259-.338.473-.338.214 0 .404.136.473.339l1.572 4.615 3.934.001c.201 0 .383.121.461.306s.036.398-.104.542z"/>
  <path d="M0 0v30h30V0H0zm14.999 26.535C8.639 26.535 3.464 21.36 3.464 15S8.639 3.465 14.999 3.465 26.534 8.64 26.534 15s-5.175 11.535-11.535 11.535z"/>
  <path d="M16.213 13.087l-1.214-3.566-1.219 3.567c-.069.202-.259.338-.473.338h-3.102l2.553 2.625c.118.121.167.294.129.459l-.901 3.991 2.682-2.369c.189-.166.473-.166.662 0l2.683 2.368-.904-3.99c-.038-.165.011-.338.129-.459l2.556-2.625h-3.106c-.215 0-.406-.136-.475-.339z"/>
  <animate attributeName="display" fill="freeze" repeatCount="1" dur="1s" keyTimes="0;0.84;0.86;1" values="none;inline;none;none" />
</g>
<g display="none" fill="#fff">
  <path d="M14.999 4.465C9.19 4.465 4.464 9.191 4.464 15c0 5.81 4.726 10.535 10.535 10.535 5.81 0 10.535-4.726 10.535-10.535S20.809 4.465 14.999 4.465zm6.63 8.819l-3.352 3.275 1.245 5.225c.05.21-.04.429-.224.542-.184.112-.42.096-.584-.043l-3.716-3.122-3.714 3.122c-.092.077-.207.117-.322.117-.091 0-.182-.024-.262-.074-.184-.113-.274-.331-.224-.541l1.24-5.226-3.345-3.275c-.146-.142-.19-.358-.113-.546s.26-.311.463-.311l4.148-.001 1.659-4.623c.071-.199.26-.331.471-.331.211 0 .399.133.471.332l1.654 4.622 4.155.001c.203 0 .387.123.463.312.077.187.032.403-.113.545z"/>
  <path d="M0 0v30h30V0H0zm14.999 26.535C8.639 26.535 3.464 21.36 3.464 15S8.639 3.465 14.999 3.465 26.534 8.64 26.534 15s-5.175 11.535-11.535 11.535z"/>
  <path d="M16.301 13.094l-1.302-3.64-1.307 3.641c-.071.199-.26.331-.471.331H9.946l2.672 2.617c.125.123.177.302.137.473l-.956 4.029 2.878-2.42c.187-.156.457-.156.644 0l2.878 2.419-.96-4.027c-.041-.171.011-.351.137-.474l2.677-2.617h-3.281c-.211 0-.4-.133-.471-.332z"/>
  <animate attributeName="display" fill="freeze" repeatCount="1" dur="1s" keyTimes="0;0.86;0.88;1" values="none;inline;none;none" />
</g>
<g display="none" fill="#fff">
  <path d="M14.999 4.465C9.19 4.465 4.464 9.191 4.464 15c0 5.81 4.726 10.535 10.535 10.535 5.81 0 10.535-4.726 10.535-10.535S20.809 4.465 14.999 4.465zm6.86 8.826l-3.475 3.274 1.29 5.216c.052.209-.036.427-.217.542-.181.116-.417.102-.583-.033l-3.876-3.138-3.874 3.138c-.091.074-.203.111-.315.111-.093 0-.186-.025-.268-.078-.181-.115-.269-.333-.217-.541l1.285-5.217-3.47-3.274c-.149-.141-.197-.358-.122-.548s.26-.315.465-.315l4.324-.001 1.724-4.628c.073-.196.26-.326.469-.326s.396.13.469.326l1.719 4.628 4.33.001c.205 0 .39.125.465.315.075.19.027.407-.123.548z"/>
  <path d="M0 0v30h30V0H0zm14.999 26.535C8.639 26.535 3.464 21.36 3.464 15S8.639 3.465 14.999 3.465 26.534 8.64 26.534 15s-5.175 11.535-11.535 11.535z"/>
  <path d="M16.37 13.1l-1.372-3.694-1.375 3.694c-.073.196-.26.326-.469.326H9.741l2.767 2.611c.131.123.186.308.142.482l-.999 4.056 3.032-2.456c.184-.148.446-.148.629 0l3.033 2.455-1.003-4.054c-.043-.176.011-.36.143-.484l2.771-2.61h-3.418c-.208 0-.395-.13-.468-.326z"/>
  <animate attributeName="display" fill="freeze" repeatCount="1" dur="1s" keyTimes="0;0.88;0.9;1" values="none;inline;none;none" />
</g>
<g display="none" fill="#fff">
  <path d="M14.999 4.465C9.19 4.465 4.464 9.191 4.464 15c0 5.81 4.726 10.535 10.535 10.535 5.81 0 10.535-4.726 10.535-10.535S20.809 4.465 14.999 4.465zm7.038 8.83l-3.57 3.272 1.324 5.21c.053.207-.032.426-.212.542-.179.119-.412.107-.582-.026l-3.998-3.148-3.996 3.148c-.09.071-.2.107-.31.107-.094 0-.189-.026-.272-.081-.179-.116-.265-.334-.212-.542l1.319-5.21-3.565-3.272c-.152-.139-.203-.357-.128-.549.075-.192.26-.319.466-.319l4.458-.001 1.774-4.632c.074-.193.26-.321.467-.321.207 0 .393.128.467.322l1.768 4.632 4.465.001c.206 0 .392.126.466.319.074.191.023.409-.129.548z"/>
  <path d="M0 0v30h30V0H0zm14.999 26.535C8.639 26.535 3.464 21.36 3.464 15S8.639 3.465 14.999 3.465 26.534 8.64 26.534 15s-5.175 11.535-11.535 11.535z"/>
  <path d="M16.423 13.104l-1.425-3.731-1.429 3.732c-.074.193-.26.321-.467.321H9.585l2.839 2.606c.136.124.192.312.147.491l-1.032 4.074 3.15-2.482c.182-.143.438-.143.619 0l3.15 2.481-1.035-4.073c-.046-.179.011-.367.146-.491l2.844-2.606h-3.524c-.206 0-.393-.128-.466-.322z"/>
  <animate attributeName="display" fill="freeze" repeatCount="1" dur="1s" keyTimes="0;0.9;0.92;1" values="none;inline;none;none" />
</g>
<g display="none" fill="#fff">
  <path d="M14.999 4.465C9.19 4.465 4.464 9.191 4.464 15c0 5.81 4.726 10.535 10.535 10.535 5.81 0 10.535-4.726 10.535-10.535S20.809 4.465 14.999 4.465zm7.16 8.833l-3.636 3.271 1.349 5.206c.054.207-.03.425-.209.542-.179.119-.411.11-.581-.021l-4.083-3.156-4.081 3.156c-.089.069-.197.104-.306.104-.096 0-.191-.027-.275-.082-.179-.118-.263-.336-.209-.543l1.343-5.206-3.631-3.271c-.154-.139-.207-.357-.132-.551s.26-.321.467-.321l4.55-.001 1.809-4.635c.075-.192.26-.318.466-.318.206 0 .391.126.465.319l1.803 4.635 4.558.001c.207 0 .393.127.467.321s.02.412-.134.55z"/>
  <path d="M16.46 13.107L14.999 9.35l-1.466 3.758c-.075.192-.26.318-.466.318h-3.59l2.889 2.603c.139.124.196.315.15.496l-1.055 4.087 3.232-2.5c.18-.139.432-.139.611 0l3.232 2.499-1.059-4.086c-.047-.181.012-.372.15-.497l2.893-2.602h-3.596c-.204 0-.39-.127-.464-.319z"/>
  <path d="M0 0v30h30V0H0zm14.999 26.535C8.639 26.535 3.464 21.36 3.464 15S8.639 3.465 14.999 3.465 26.534 8.64 26.534 15s-5.175 11.535-11.535 11.535z"/>
  <animate attributeName="display" fill="freeze" repeatCount="1" dur="1s" keyTimes="0;0.92;0.94;1" values="none;inline;none;none" />
</g>
<g display="none" fill="#fff">
  <path d="M16.484 13.109l-1.486-3.773-1.491 3.774c-.075.191-.26.316-.465.316H9.404l2.922 2.6c.14.125.199.318.151.5l-1.069 4.095 3.286-2.511c.18-.137.428-.137.607 0l3.287 2.51-1.073-4.093c-.048-.183.011-.376.151-.501l2.927-2.6h-3.645c-.204 0-.388-.126-.464-.317z"/>
  <path d="M14.999 4.465C9.19 4.465 4.464 9.191 4.464 15c0 5.81 4.726 10.535 10.535 10.535 5.81 0 10.535-4.726 10.535-10.535S20.809 4.465 14.999 4.465zm7.242 8.836l-3.681 3.27 1.364 5.203c.055.207-.028.425-.206.543-.084.057-.181.084-.277.084-.107 0-.214-.034-.304-.103l-4.139-3.161-4.137 3.161c-.169.13-.403.139-.581.019-.178-.118-.261-.336-.207-.542l1.359-5.204L7.758 13.3c-.155-.138-.208-.357-.135-.551s.26-.322.467-.322l4.612-.001 1.832-4.637c.075-.191.26-.316.465-.316.205 0 .39.126.465.317l1.826 4.637 4.619.001c.208 0 .394.128.468.322.073.193.019.413-.136.551z"/>
  <path d="M0 0v30h30V0H0zm14.999 26.535C8.639 26.535 3.464 21.36 3.464 15S8.639 3.465 14.999 3.465 26.534 8.64 26.534 15s-5.175 11.535-11.535 11.535z"/>
  <animate attributeName="display" fill="freeze" repeatCount="1" dur="1s" keyTimes="0;0.94;0.96;1" values="none;inline;none;none" />
</g>
<g display="none" fill="#fff">
  <path d="M16.498 13.11l-1.5-3.783-1.504 3.783c-.076.19-.26.315-.465.315H9.363l2.941 2.599c.142.125.201.319.152.502l-1.078 4.1 3.318-2.518c.179-.135.426-.135.604 0l3.318 2.516-1.082-4.097c-.048-.184.011-.378.152-.503l2.946-2.599h-3.673c-.203.001-.388-.124-.463-.315z"/>
  <path d="M14.999 4.465C9.19 4.465 4.464 9.191 4.464 15c0 5.81 4.726 10.535 10.535 10.535 5.81 0 10.535-4.726 10.535-10.535S20.809 4.465 14.999 4.465zm7.29 8.837l-3.706 3.27 1.373 5.201c.055.207-.028.425-.205.543-.084.057-.182.085-.278.085-.106 0-.213-.034-.302-.102l-4.172-3.163-4.17 3.163c-.17.129-.403.135-.58.018-.177-.119-.26-.337-.206-.543l1.368-5.202-3.7-3.27c-.156-.138-.21-.357-.137-.551.074-.195.26-.323.468-.323l4.647-.001 1.845-4.638c.076-.19.26-.315.465-.315.205 0 .389.125.464.316l1.839 4.638 4.655.001c.208 0 .395.129.468.323s.019.412-.136.55z"/>
  <path d="M0 0v30h30V0H0zm14.999 26.535C8.639 26.535 3.464 21.36 3.464 15S8.639 3.465 14.999 3.465 26.534 8.64 26.534 15s-5.175 11.535-11.535 11.535z"/>
  <animate attributeName="display" fill="freeze" repeatCount="1" dur="1s" keyTimes="0;0.96;0.98;1" values="none;inline;none;none" />
</g>
<g display="none" fill="#fff">
  <path d="M14.999 4.465C9.19 4.465 4.464 9.191 4.464 15c0 5.81 4.726 10.535 10.535 10.535 5.81 0 10.535-4.726 10.535-10.535S20.809 4.465 14.999 4.465zm7.317 8.837l-3.721 3.269 1.379 5.201c.055.206-.027.424-.204.543-.085.057-.183.085-.279.085-.106 0-.212-.034-.302-.101l-4.19-3.165L10.81 22.3c-.17.127-.403.134-.58.016-.177-.118-.259-.337-.205-.543l1.373-5.201-3.715-3.269c-.156-.138-.21-.357-.137-.552.073-.195.26-.324.468-.324l4.668-.001 1.853-4.639c.076-.19.26-.314.464-.314.205 0 .388.125.464.315l1.846 4.639 4.677.001c.208 0 .395.129.468.324s.019.413-.138.55z"/>
  <path d="M16.506 13.111l-1.508-3.789-1.513 3.789c-.076.19-.26.314-.464.314H9.339l2.953 2.599c.142.125.201.319.153.503l-1.083 4.102 3.336-2.521c.178-.135.425-.135.603 0l3.336 2.521-1.087-4.101c-.049-.184.011-.378.153-.504l2.957-2.598h-3.689c-.205 0-.389-.125-.465-.315z"/>
  <path d="M0 0v30h30V0H0zm14.999 26.535C8.639 26.535 3.464 21.36 3.464 15S8.639 3.465 14.999 3.465 26.534 8.64 26.534 15s-5.175 11.535-11.535 11.535z"/>
  <animate attributeName="display" fill="freeze" repeatCount="1" dur="1s" keyTimes="0;0.98;0.999;1" values="none;inline;none;none" />
</g>
<g display="none" fill="#fff">
  <path d="M14.999 4.465C9.19 4.465 4.464 9.191 4.464 15c0 5.81 4.726 10.535 10.535 10.535 5.81 0 10.535-4.726 10.535-10.535S20.809 4.465 14.999 4.465zm7.331 8.838l-3.729 3.27 1.382 5.2c.055.206-.027.424-.204.543-.085.056-.181.084-.279.084-.106 0-.212-.034-.301-.101l-4.2-3.166-4.198 3.167c-.171.127-.403.134-.58.016-.177-.119-.259-.337-.205-.543l1.376-5.2-3.723-3.27c-.156-.137-.211-.357-.138-.552.073-.195.26-.324.468-.324l4.679-.001 1.856-4.639c.076-.19.26-.314.464-.314.204 0 .388.125.464.315l1.85 4.639H22c.208 0 .395.129.468.324s.018.415-.138.552z"/>
  <path d="M0 0v30h30V0H0zm14.999 26.535C8.639 26.535 3.464 21.36 3.464 15S8.639 3.465 14.999 3.465 26.534 8.64 26.534 15s-5.175 11.535-11.535 11.535z"/>
  <path d="M16.51 13.111L14.998 9.32l-1.517 3.792c-.076.19-.26.314-.464.314h-3.69l2.958 2.598c.143.125.202.32.153.504l-1.085 4.103 3.345-2.522c.179-.135.424-.135.602 0l3.346 2.521-1.09-4.102c-.049-.184.011-.379.153-.504l2.963-2.598h-3.697c-.205 0-.389-.125-.465-.315z"/>
  <animate attributeName="display" fill="freeze" repeatCount="1" dur="1s" keyTimes="0;0.999;1" values="none;inline;inline" />
</g>
</svg>
