<svg xmlns="http://www.w3.org/2000/svg" viewBox="0 0 30 30" style="background:#89949D">
<g display="none" fill="#fff">
  <path d="M21.477 14.05c0-3.792-3.173-6.878-7.072-6.878s-7.071 3.085-7.071 6.878h-.001c0 3.793 3.172 6.879 7.071 6.879s7.072-3.086 7.073-6.879z" />
  <path d="M0 0v30h30V0H0zm26.176 27.023l-6.646-6.646c-1.411 1.093-3.19 1.75-5.126 1.75-4.561 0-8.271-3.624-8.271-8.078h.001c0-4.454 3.71-8.078 8.271-8.078 4.561 0 8.271 3.624 8.271 8.078h-.001c0 2.137-.86 4.078-2.253 5.524l6.602 6.602-.848.848z" />
  <animate attributeName="display" fill="freeze" repeatCount="1" dur="1s" keyTimes="0;0.02;1" values="inline;none;none" />
</g>
<g display="none">
  <path fill="#fff" d="M0 0v30h30V0H0zm14.405 5.972c4.558 0 8.268 3.621 8.271 8.071l-1.199.001c-.003-3.789-3.176-6.872-7.072-6.872-3.899 0-7.071 3.085-7.071 6.878h-1.2c0-4.454 3.71-8.078 8.271-8.078zm11.764 21.045l-6.639-6.639c-1.411 1.093-3.19 1.75-5.126 1.75-4.556 0-8.267-3.62-8.271-8.071l1.2-.001c.003 3.79 3.175 6.873 7.071 6.873 3.899 0 7.072-3.086 7.072-6.879h1.199c0 2.137-.86 4.078-2.253 5.524l6.595 6.595-.848.848z" />
  <animate attributeName="display" fill="freeze" repeatCount="1" dur="1s" keyTimes="0;0.04;0.06;1" values="none;inline;none;none" />
</g>
<g display="none">
  <path fill="#fff" d="M0 0v30h30V0H0zm14.405 5.972c4.539 0 8.25 3.606 8.271 8.039l-1.199.006c-.02-3.774-3.191-6.844-7.072-6.844-3.899 0-7.071 3.085-7.071 6.878h-1.2c0-4.455 3.71-8.079 8.271-8.079zM26.162 27.01l-6.632-6.632c-1.411 1.093-3.19 1.75-5.126 1.75-4.539 0-8.249-3.605-8.271-8.039l1.2-.006c.019 3.774 3.19 6.845 7.07 6.845 3.899 0 7.072-3.086 7.072-6.879h1.199c0 2.137-.86 4.078-2.253 5.524l6.588 6.588-.847.849z" />
  <animate attributeName="display" fill="freeze" repeatCount="1" dur="1s" keyTimes="0;0.06;0.08;1" values="none;inline;none;none" />
</g>
<g display="none">
  <path fill="#fff" d="M0 0v30h30V0H0zm14.405 5.972c4.502 0 8.213 3.577 8.271 7.974l-1.199.016c-.05-3.744-3.222-6.789-7.072-6.789-3.899 0-7.071 3.085-7.071 6.878h-1.2c0-4.455 3.71-8.079 8.271-8.079zm11.742 21.023l-6.618-6.618c-1.411 1.093-3.19 1.75-5.126 1.75-4.503 0-8.213-3.577-8.27-7.974l1.2-.016c.048 3.744 3.219 6.79 7.069 6.79 3.899 0 7.072-3.086 7.072-6.879h1.199c0 2.137-.86 4.078-2.253 5.524l6.573 6.573-.846.85z" />
  <animate attributeName="display" fill="freeze" repeatCount="1" dur="1s" keyTimes="0;0.08;0.1;1" values="none;inline;none;none" />
</g>
<g display="none">
  <path fill="#fff" d="M0 0v30h30V0H0zm14.405 5.972c4.45 0 8.16 3.533 8.269 7.876l-1.199.03c-.094-3.698-3.265-6.706-7.07-6.706-3.899 0-7.071 3.085-7.071 6.878h-1.2c0-4.454 3.71-8.078 8.271-8.078zm11.714 20.995l-6.589-6.589c-1.411 1.093-3.19 1.75-5.126 1.75-4.45 0-8.159-3.533-8.268-7.876l1.199-.03c.093 3.699 3.265 6.708 7.069 6.708 3.899 0 7.072-3.086 7.072-6.879h1.199c0 2.137-.86 4.078-2.253 5.524l6.545 6.545-.848.847z" />
  <animate attributeName="display" fill="freeze" repeatCount="1" dur="1s" keyTimes="0;0.1;0.12;1" values="none;inline;none;none" />
</g>
<g display="none">
  <path fill="#fff" d="M0 0v30h30V0H0zm14.405 5.972c4.442 0 8.072 3.394 8.263 7.726l-1.199.053c-.162-3.688-3.266-6.578-7.064-6.578-3.899 0-7.071 3.085-7.071 6.878h-1.2c0-4.455 3.71-8.079 8.271-8.079zm11.672 20.953l-6.547-6.547c-1.411 1.093-3.19 1.75-5.126 1.75-4.442 0-8.071-3.394-8.263-7.726l1.199-.052c.163 3.688 3.266 6.579 7.064 6.579 3.899 0 7.072-3.086 7.072-6.879h1.199c0 2.137-.86 4.078-2.253 5.524l6.503 6.503-.848.848z" />
  <animate attributeName="display" fill="freeze" repeatCount="1" dur="1s" keyTimes="0;0.12;0.14;1" values="none;inline;none;none" />
</g>
<g display="none">
  <path fill="#fff" d="M0 0v30h30V0H0zm14.405 5.972c4.331 0 7.956 3.303 8.252 7.521l-1.197.084c-.253-3.591-3.352-6.404-7.055-6.404-3.899 0-7.071 3.085-7.071 6.878h-1.2c0-4.455 3.71-8.079 8.271-8.079zm11.616 20.896l-6.491-6.491c-1.411 1.093-3.19 1.75-5.126 1.75-4.332 0-7.956-3.304-8.251-7.521l1.197-.084c.251 3.592 3.35 6.405 7.054 6.405 3.899 0 7.072-3.086 7.072-6.879h1.199c0 2.137-.86 4.078-2.253 5.524l6.446 6.446-.847.85z" />
  <animate attributeName="display" fill="freeze" repeatCount="1" dur="1s" keyTimes="0;0.14;0.16;1" values="none;inline;none;none" />
</g>
<g display="none">
  <path fill="#fff" d="M0 0v30h30V0H0zm14.405 5.972c4.254 0 7.791 3.113 8.227 7.24l-1.193.126c-.371-3.515-3.396-6.166-7.034-6.166-3.899 0-7.071 3.085-7.071 6.878h-1.2c0-4.454 3.71-8.078 8.271-8.078zM25.942 26.79l-6.413-6.413c-1.411 1.093-3.19 1.75-5.126 1.75-4.253 0-7.79-3.112-8.227-7.24l1.193-.126c.372 3.516 3.396 6.167 7.033 6.167 3.899 0 7.072-3.086 7.072-6.879h1.199c0 2.137-.86 4.078-2.253 5.524l6.368 6.368-.846.849z" />
  <animate attributeName="display" fill="freeze" repeatCount="1" dur="1s" keyTimes="0;0.16;0.18;1" values="none;inline;none;none" />
</g>
<g display="none">
  <path fill="#fff" d="M0 0v30h30V0H0zm14.405 5.972c4.069 0 7.586 2.96 8.181 6.886l-1.186.18c-.508-3.344-3.515-5.866-6.996-5.866-3.899 0-7.071 3.085-7.071 6.878h-1.2c.001-4.454 3.711-8.078 8.272-8.078zm11.446 20.726l-6.321-6.321c-1.411 1.093-3.19 1.75-5.126 1.75-4.068 0-7.585-2.96-8.181-6.886l1.187-.18c.507 3.344 3.514 5.867 6.994 5.867 3.899 0 7.072-3.086 7.072-6.879h1.199c0 2.137-.86 4.078-2.253 5.524l6.276 6.276-.847.849z" />
  <animate attributeName="display" fill="freeze" repeatCount="1" dur="1s" keyTimes="0;0.18;0.2;1" values="none;inline;none;none" />
</g>
<g display="none">
  <path fill="#fff" d="M0 0v30h30V0H0zm14.405 5.972c3.91 0 7.318 2.712 8.103 6.449l-1.174.247c-.67-3.185-3.584-5.496-6.929-5.496-3.899 0-7.071 3.085-7.071 6.878h-1.2c0-4.454 3.71-8.078 8.271-8.078zm11.319 20.599l-6.194-6.194c-1.411 1.093-3.19 1.75-5.126 1.75-3.91 0-7.318-2.712-8.103-6.45l1.175-.246c.668 3.185 3.582 5.497 6.928 5.497 3.899 0 7.072-3.086 7.072-6.879h1.199c0 2.137-.86 4.078-2.253 5.524l6.149 6.149-.847.849z" />
  <animate attributeName="display" fill="freeze" repeatCount="1" dur="1s" keyTimes="0;0.2;0.22;1" values="none;inline;none;none" />
</g>
<g display="none">
  <path fill="#fff" d="M0 0v30h30V0H0zm14.405 5.972c3.703 0 6.98 2.432 7.97 5.914l-1.154.328c-.844-2.969-3.646-5.042-6.816-5.042-3.899 0-7.071 3.085-7.071 6.878h-1.2c0-4.454 3.71-8.078 8.271-8.078zm11.17 20.451l-6.045-6.045c-1.411 1.093-3.19 1.75-5.126 1.75-3.703 0-6.98-2.432-7.97-5.914l1.154-.328c.844 2.969 3.646 5.043 6.815 5.043 3.899 0 7.072-3.086 7.072-6.879h1.199c0 2.137-.86 4.078-2.253 5.524l6.001 6.001-.847.848z" />
  <animate attributeName="display" fill="freeze" repeatCount="1" dur="1s" keyTimes="0;0.22;0.24;1" values="none;inline;none;none" />
</g>
<g display="none">
  <path fill="#fff" d="M0 0v30h30V0H0zm14.405 5.972c3.455 0 6.576 2.128 7.766 5.297l-1.123.422c-1.016-2.703-3.686-4.519-6.643-4.519-3.899 0-7.071 3.085-7.071 6.878h-1.2c0-4.454 3.71-8.078 8.271-8.078zm10.993 20.274l-5.869-5.869c-1.411 1.093-3.19 1.75-5.126 1.75-3.455 0-6.576-2.128-7.766-5.297l1.123-.422c1.015 2.703 3.685 4.52 6.643 4.52 3.899 0 7.072-3.086 7.072-6.879h1.199c0 2.137-.86 4.078-2.253 5.524l5.824 5.824-.847.849z" />
  <animate attributeName="display" fill="freeze" repeatCount="1" dur="1s" keyTimes="0;0.24;0.26;1" values="none;inline;none;none" />
</g>
<g display="none">
  <path fill="#fff" d="M0 0v30h30V0H0zm14.405 5.972c3.208 0 6.066 1.756 7.458 4.583l-1.076.53c-1.172-2.377-3.677-3.913-6.382-3.913-3.899 0-7.071 3.085-7.071 6.878h-1.2c0-4.454 3.71-8.078 8.271-8.078zm10.781 20.061l-5.656-5.656c-1.411 1.093-3.19 1.75-5.126 1.75-3.16 0-6.087-1.799-7.458-4.583l1.076-.529c1.17 2.377 3.675 3.913 6.381 3.913 3.899 0 7.072-3.086 7.072-6.879h1.199c0 2.137-.86 4.078-2.253 5.524l5.611 5.611-.846.849z" />
  <animate attributeName="display" fill="freeze" repeatCount="1" dur="1s" keyTimes="0;0.26;0.28;1" values="none;inline;none;none" />
</g>
<g display="none">
  <path fill="#fff" d="M0 0v30h30V0H0zm6.134 14.05c0-4.454 3.71-8.078 8.271-8.078 2.872 0 5.495 1.421 7.018 3.802l-1.012.646c-1.301-2.034-3.547-3.249-6.006-3.249-3.899 0-7.071 3.085-7.071 6.878h-1.2zm18.804 11.736l-5.409-5.409c-1.411 1.093-3.19 1.75-5.126 1.75-2.871 0-5.494-1.421-7.017-3.803l1.011-.646c1.301 2.035 3.547 3.25 6.006 3.25 3.899 0 7.072-3.086 7.072-6.879h1.199c0 2.137-.86 4.078-2.253 5.524l5.364 5.364-.847.849z" />
  <animate attributeName="display" fill="freeze" repeatCount="1" dur="1s" keyTimes="0;0.28;0.3;1" values="none;inline;none;none" />
</g>
<g display="none">
  <path fill="#fff" d="M0 0v30h30V0H0zm6.134 14.05c0-4.454 3.71-8.078 8.271-8.078 2.493 0 4.828 1.082 6.405 2.967l-.92.771c-1.35-1.613-3.349-2.538-5.485-2.538-3.899 0-7.071 3.085-7.071 6.878h-1.2zm18.521 11.453l-5.125-5.125c-1.411 1.093-3.19 1.75-5.126 1.75-2.492 0-4.827-1.081-6.405-2.968l.92-.77c1.35 1.612 3.349 2.538 5.485 2.538 3.899 0 7.072-3.086 7.072-6.879h1.199c0 2.137-.86 4.078-2.253 5.524l5.081 5.081-.848.849z" />
  <animate attributeName="display" fill="freeze" repeatCount="1" dur="1s" keyTimes="0;0.3;0.32;1" values="none;inline;none;none" />
</g>
<g display="none">
  <path fill="#fff" d="M0 0v30h30V0H0zm6.134 14.05c0-4.454 3.71-8.078 8.271-8.078 2.073 0 4.054.751 5.581 2.116l-.799.895c-1.307-1.167-3.005-1.811-4.782-1.811-3.899 0-7.071 3.085-7.071 6.878h-1.2zM24.33 25.178l-4.8-4.8c-1.411 1.093-3.19 1.75-5.126 1.75-2.073 0-4.055-.751-5.58-2.115l.8-.895c1.305 1.167 3.003 1.811 4.78 1.811 3.899 0 7.072-3.086 7.072-6.879h1.199c0 2.137-.86 4.078-2.253 5.524l4.756 4.756-.848.848z" />
  <animate attributeName="display" fill="freeze" repeatCount="1" dur="1s" keyTimes="0;0.32;0.34;1" values="none;inline;none;none" />
</g>
<g display="none">
  <path fill="#fff" d="M0 0v30h30V0H0zm7.334 14.05h-1.2c0-4.454 3.71-8.078 8.271-8.078 1.608 0 3.167.451 4.508 1.304l-.645 1.013c-1.147-.73-2.484-1.116-3.864-1.116-3.898-.001-7.07 3.084-7.07 6.877zm16.629 10.761l-4.433-4.433c-1.411 1.093-3.19 1.75-5.126 1.75-1.608 0-3.167-.45-4.508-1.304l.645-1.012c1.147.729 2.483 1.116 3.863 1.116 3.899 0 7.072-3.086 7.072-6.879h1.199c0 2.137-.86 4.078-2.253 5.524l4.389 4.389-.848.849z" />
  <animate attributeName="display" fill="freeze" repeatCount="1" dur="1s" keyTimes="0;0.34;0.36;1" values="none;inline;none;none" />
</g>
<g display="none">
  <path fill="#fff" d="M0 0v30h30V0H0zm7.334 14.05h-1.2c0-4.454 3.71-8.078 8.271-8.078 1.098 0 2.164.207 3.168.613l-.451 1.112c-.86-.349-1.775-.525-2.717-.525-3.899 0-7.071 3.085-7.071 6.878zM23.553 24.4l-4.023-4.023c-1.411 1.093-3.19 1.75-5.126 1.75-1.097 0-2.163-.206-3.167-.613l.45-1.111c.861.349 1.775.525 2.717.525 3.899 0 7.072-3.086 7.072-6.879h1.199c0 2.137-.86 4.078-2.253 5.524l3.979 3.979-.848.848z" />
  <animate attributeName="display" fill="freeze" repeatCount="1" dur="1s" keyTimes="0;0.36;0.38;1" values="none;inline;none;none" />
</g>
<g display="none">
  <path fill="#fff" d="M0 0v30h30V0H0zm7.334 14.05h-1.2c0-4.454 3.71-8.078 8.271-8.078.525 0 1.049.048 1.558.143l-.22 1.18c-.437-.082-.887-.123-1.338-.123-3.899 0-7.071 3.085-7.071 6.878zm15.752 9.884l-3.556-3.556c-1.411 1.093-3.19 1.75-5.126 1.75-.522 0-1.046-.048-1.557-.143l.219-1.18c.439.081.89.123 1.338.123 3.899 0 7.072-3.086 7.072-6.879h1.199c0 2.137-.86 4.078-2.253 5.524l3.512 3.512-.848.849z" />
  <animate attributeName="display" fill="freeze" repeatCount="1" dur="1s" keyTimes="0;0.38;0.4;1" values="none;inline;none;none" />
</g>
<g display="none">
  <path fill="#fff" d="M0 0v30h30V0H0zm7.334 14.05h-1.2c0-4.369 3.5-7.915 7.967-8.073l.042 1.199c-3.818.135-6.809 3.155-6.809 6.874zm15.242 9.374l-3.037-3.037c-1.332 1.029-2.997 1.672-4.83 1.736l-.042-1.199c3.817-.135 6.809-3.154 6.809-6.874h1.199c0 2.147-.848 4.094-2.239 5.539l2.988 2.988-.848.847z" />
  <animate attributeName="display" fill="freeze" repeatCount="1" dur="1s" keyTimes="0;0.4;0.42;1" values="none;inline;none;none" />
</g>
<g display="none">
  <path fill="#fff" d="M0 0v30h30V0H0zm7.334 14.05h-1.2c0-3.56 2.439-6.747 5.931-7.75l.331 1.153c-2.98.856-5.062 3.569-5.062 6.597zm14.67 8.802l-2.473-2.473c-.813.633-1.752 1.126-2.785 1.423l-.332-1.154c2.98-.855 5.062-3.568 5.062-6.597h1.199c0 2.094-.848 4.056-2.254 5.523l2.431 2.431-.848.847z" />
  <animate attributeName="display" fill="freeze" repeatCount="1" dur="1s" keyTimes="0;0.42;0.44;1" values="none;inline;none;none" />
</g>
<g display="none">
  <path fill="#fff" d="M0 0v30h30V0H0zm7.334 14.05h-1.2c0-2.788 1.442-5.342 3.857-6.834l.631 1.021c-2.059 1.271-3.288 3.445-3.288 5.813zm14.895 7.332l-.848.848-1.85-1.85c-.229.177-.463.35-.714.505l-.631-1.021c2.06-1.271 3.289-3.444 3.289-5.812h1.199c0 2.094-.814 4.056-2.242 5.535l1.797 1.795z" />
  <animate attributeName="display" fill="freeze" repeatCount="1" dur="1s" keyTimes="0;0.44;0.46;1" values="none;inline;none;none" />
</g>
<g display="none">
  <path fill="#fff" d="M0 0v30h30V0H0zm7.334 14.05h-1.2c0-1.91.696-3.763 1.959-5.22L9 9.616c-1.075 1.238-1.666 2.813-1.666 4.434zm13.361 7.493l-1.548-1.548.848-.848 1.548 1.548-.848.848zm.022-2.273l-.906-.787c1.073-1.237 1.665-2.812 1.665-4.433h1.199c0 1.909-.696 3.763-1.958 5.22z" />
  <animate attributeName="display" fill="freeze" repeatCount="1" dur="1s" keyTimes="0;0.46;0.48;1" values="none;inline;none;none" />
</g>
<g display="none">
  <path fill="#fff" d="M0 0v30h30V0H0zm7.334 14.05h-1.2c0-.997.185-1.971.549-2.896l1.116.439c-.309.784-.465 1.611-.465 2.457zm12.619 6.751l-.806-.806.848-.848.806.806-.848.848zm2.175-3.855l-1.117-.439c.309-.784.465-1.611.465-2.457h1.199c0 .997-.184 1.971-.547 2.896z" />
  <animate attributeName="display" fill="freeze" repeatCount="1" dur="1s" keyTimes="0;0.48;0.5;1" values="none;inline;none;none" />
</g>
<g display="none">
  <rect width="30" height="30" fill="#fff" />
  <animate attributeName="display" fill="freeze" repeatCount="1" dur="1s" keyTimes="0;0.5;0.52;1" values="none;inline;none;none" />
</g>
<g display="none">
  <rect width="30" height="30" fill="#fff" />
  <animate attributeName="display" fill="freeze" repeatCount="1" dur="1s" keyTimes="0;0.52;0.54;1" values="none;inline;none;none" />
</g>
<g display="none">
  <path fill="#fff" d="M0 0v30h30V0H0zm6.68 16.942c-.363-.924-.547-1.896-.547-2.893h1.2c0 .845.156 1.67.464 2.453l-1.117.44zm13.273 3.859l-.806-.806.848-.848.806.806-.848.848zm1.524-6.751c0-.845-.156-1.67-.464-2.454l1.117-.438c.362.924.546 1.897.546 2.892h-1.199z" />
  <animate attributeName="display" fill="freeze" repeatCount="1" dur="1s" keyTimes="0;0.54;0.56;1" values="none;inline;none;none" />
</g>
<g display="none">
  <path fill="#fff" d="M0 0v30h30V0H0zm8.089 19.268c-1.262-1.456-1.957-3.309-1.957-5.218h1.2c0 1.62.591 3.194 1.664 4.433l-.907.785zm12.606 2.275l-1.548-1.548.848-.848 1.548 1.548-.848.848zm.782-7.493c0-1.62-.592-3.193-1.664-4.431l.906-.786c1.263 1.456 1.957 3.309 1.957 5.217h-1.199z" />
  <animate attributeName="display" fill="freeze" repeatCount="1" dur="1s" keyTimes="0;0.56;0.58;1" values="none;inline;none;none" />
</g>
<g display="none">
  <path fill="#fff" d="M0 0v30h30V0H0zm9.988 20.882c-2.414-1.492-3.854-4.047-3.855-6.832h1.2c0 2.366 1.229 4.539 3.286 5.811l-.631 1.021zm11.394 1.347l-2.234-2.234.848-.848 2.234 2.234-.848.848zm.095-8.179c0-2.367-1.229-4.54-3.286-5.812l.631-1.021c2.414 1.492 3.854 4.046 3.854 6.832h-1.199z" />
  <animate attributeName="display" fill="freeze" repeatCount="1" dur="1s" keyTimes="0;0.58;0.6;1" values="none;inline;none;none" />
</g>
<g display="none">
  <path fill="#fff" d="M0 0v30h30V0H0zm12.061 21.799c-3.49-1.005-5.928-4.191-5.928-7.749h1.2c0 3.026 2.081 5.738 5.06 6.597l-.332 1.152zM16.749 6.3c3.49 1.004 5.927 4.191 5.927 7.75h-1.199c0-3.026-2.081-5.739-5.06-6.596l.332-1.154zm5.255 16.552l-2.856-2.856.848-.848 2.856 2.856-.848.848z" />
  <animate attributeName="display" fill="freeze" repeatCount="1" dur="1s" keyTimes="0;0.6;0.62;1" values="none;inline;none;none" />
</g>
<g display="none">
  <path fill="#fff" d="M0 0v30h30V0H0zm14.096 22.123c-4.465-.16-7.963-3.706-7.963-8.073h1.2c0 3.718 2.99 6.737 6.806 6.874l-.043 1.199zm.617-16.145c4.466.159 7.963 3.705 7.963 8.072h-1.199c0-3.718-2.99-6.737-6.807-6.873l.043-1.199zm7.863 17.446l-3.429-3.429.848-.848 3.429 3.429-.848.848z" />
  <animate attributeName="display" fill="freeze" repeatCount="1" dur="1s" keyTimes="0;0.62;0.64;1" values="none;inline;none;none" />
</g>
<g display="none">
  <path fill="#fff" d="M0 0v30h30V0H0zm14.397 5.972h.008c4.561 0 8.271 3.624 8.271 8.078h-1.199c0-3.792-3.173-6.878-7.072-6.878h-.007c-.446 0-.893.041-1.328.122l-.219-1.18c.507-.094 1.027-.142 1.546-.142zm.022 16.156h-.016c-4.56 0-8.27-3.624-8.27-8.078h1.2c0 3.793 3.172 6.879 7.071 6.879.417-.025.896-.04 1.336-.122l.219 1.18c-.507.094-1.025.141-1.54.141zm8.667 1.806l-3.938-3.938.848-.848 3.938 3.938-.848.848z" />
  <animate attributeName="display" fill="freeze" repeatCount="1" dur="1s" keyTimes="0;0.64;0.66;1" values="none;inline;none;none" />
</g>
<g display="none">
  <path fill="#fff" d="M0 0v30h30V0H0zm14.404 5.972c4.562 0 8.271 3.624 8.271 8.078h-1.199c0-3.792-3.173-6.878-7.072-6.878-.941 0-1.855.177-2.714.524l-.45-1.112c1.004-.406 2.068-.612 3.164-.612zm.007 16.156h-.008c-4.56 0-8.271-3.624-8.271-8.078h1.2c0 3.793 3.172 6.879 7.071 6.879h.007c.939 0 1.85-.177 2.708-.523l.451 1.111c-1.002.406-2.064.611-3.158.611zm9.142 2.272l-4.405-4.405.848-.848 4.405 4.405-.848.848z" />
  <animate attributeName="display" fill="freeze" repeatCount="1" dur="1s" keyTimes="0;0.66;0.68;1" values="none;inline;none;none" />
</g>
<g display="none">
  <path fill="#fff" d="M0 0v30h30V0H0zm14.402 5.972h.002c4.561 0 8.271 3.624 8.271 8.078h-1.199c0-3.792-3.173-6.878-7.072-6.878h-.002c-1.377 0-2.711.385-3.858 1.114L9.9 7.273c1.34-.851 2.897-1.301 4.502-1.301zm.002 16.156c-4.561 0-8.271-3.624-8.271-8.078h1.2c0 3.793 3.172 6.879 7.071 6.879 1.379 0 2.714-.386 3.861-1.114l.645 1.012c-1.341.851-2.898 1.301-4.506 1.301zm9.559 2.683l-4.815-4.815.848-.848 4.815 4.815-.848.848z" />
  <animate attributeName="display" fill="freeze" repeatCount="1" dur="1s" keyTimes="0;0.68;0.7;1" values="none;inline;none;none" />
</g>
<g display="none">
  <path fill="#fff" d="M0 0v30h30V0H0zm14.405 5.972c4.561 0 8.271 3.624 8.271 8.078h-1.199c0-3.792-3.173-6.878-7.072-6.878-1.776 0-3.473.642-4.778 1.808l-.8-.895c1.526-1.363 3.506-2.113 5.578-2.113zm9.925 19.206l-4.798-4.798c-1.456 1.128-3.254 1.748-5.129 1.748-4.561 0-8.271-3.624-8.271-8.078h1.2c0 3.793 3.172 6.879 7.071 6.879 1.776 0 3.473-.643 4.779-1.809l.396.444.416-.416 5.183 5.183-.847.847z" />
  <animate attributeName="display" fill="freeze" repeatCount="1" dur="1s" keyTimes="0;0.7;0.72;1" values="none;inline;none;none" />
</g>
<g display="none">
  <path fill="#fff" d="M0 0v30h30V0H0zm14.403 5.972h.001c4.561 0 8.271 3.624 8.271 8.078h-1.199c0-3.792-3.173-6.878-7.072-6.878h-.001c-2.134 0-4.132.924-5.481 2.535l-.92-.771c1.578-1.884 3.911-2.964 6.401-2.964zm10.252 19.531l-5.12-5.12c-1.447 1.122-3.243 1.745-5.132 1.745-4.561 0-8.271-3.624-8.271-8.078h1.2c0 3.793 3.172 6.879 7.071 6.879 2.135 0 4.133-.925 5.483-2.535l.92.77c-.121.145-.255.276-.385.411l5.081 5.081-.847.847z" />
  <animate attributeName="display" fill="freeze" repeatCount="1" dur="1s" keyTimes="0;0.72;0.74;1" values="none;inline;none;none" />
</g>
<g display="none">
  <path fill="#fff" d="M0 0v30h30V0H0zm14.403 5.972h.001c4.561 0 8.271 3.624 8.271 8.078h-1.199c0-3.792-3.173-6.878-7.072-6.878h-.001c-2.458 0-4.702 1.213-6.003 3.246l-1.011-.647c1.524-2.379 4.146-3.799 7.014-3.799zm10.535 19.814l-5.408-5.408c-1.437 1.114-3.223 1.75-5.127 1.75-4.561 0-8.271-3.624-8.271-8.078h1.2c0 3.793 3.172 6.879 7.071 6.879 2.459 0 4.705-1.214 6.006-3.246l1.01.646c-.291.455-.633.862-.999 1.244l5.365 5.365-.847.848z" />
  <animate attributeName="display" fill="freeze" repeatCount="1" dur="1s" keyTimes="0;0.74;0.76;1" values="none;inline;none;none" />
</g>
<g display="none">
  <path fill="#fff" d="M0 0v30h30V0H0zm14.403 5.972h.001c4.561 0 8.271 3.624 8.271 8.078h-1.199c0-3.792-3.173-6.878-7.072-6.878h-.001c-2.705 0-5.208 1.534-6.379 3.909l-1.076-.53c1.392-2.824 4.249-4.579 7.455-4.579zm10.783 20.061l-5.651-5.651c-1.429 1.108-3.213 1.746-5.131 1.746-4.561 0-8.271-3.624-8.271-8.078h1.2c0 3.793 3.172 6.879 7.071 6.879 2.748 0 5.192-1.499 6.38-3.91l1.076.53c-.376.762-.865 1.439-1.432 2.032l5.605 5.605-.847.847z" />
  <animate attributeName="display" fill="freeze" repeatCount="1" dur="1s" keyTimes="0;0.76;0.78;1" values="none;inline;none;none" />
</g>
<g display="none">
  <path fill="#fff" d="M0 0v30h30V0H0zm14.405 5.972c4.561 0 8.271 3.624 8.271 8.078h-1.199c0-3.792-3.173-6.878-7.072-6.878-2.957 0-5.626 1.815-6.643 4.516l-1.123-.423c1.191-3.166 4.312-5.293 7.766-5.293zm10.993 20.274l-5.882-5.882c-1.432 1.104-3.215 1.763-5.113 1.764-4.561 0-8.271-3.624-8.271-8.078h1.2c0 3.793 3.172 6.879 7.071 6.879 2.957-.001 5.626-1.816 6.643-4.517l1.123.422c-.391 1.04-1.007 1.953-1.758 2.73l5.834 5.834-.847.848z" />
  <animate attributeName="display" fill="freeze" repeatCount="1" dur="1s" keyTimes="0;0.78;0.8;1" values="none;inline;none;none" />
</g>
<g display="none">
  <path fill="#fff" d="M0 0v30h30V0H0zm14.404 5.972c4.562 0 8.272 3.624 8.272 8.078h-1.199c0-3.792-3.173-6.878-7.072-6.878h-.001c-3.167 0-5.969 2.072-6.814 5.039l-1.154-.329c.991-3.48 4.267-5.91 7.968-5.91zm11.171 20.451l-6.045-6.045c-1.427 1.102-3.219 1.75-5.126 1.75-4.561 0-8.271-3.624-8.271-8.078h1.2c0 3.793 3.172 6.879 7.071 6.879 3.168 0 5.971-2.073 6.816-5.041l1.154.329c-.367 1.288-1.048 2.432-1.947 3.362l5.996 5.996-.848.848z" />
  <animate attributeName="display" fill="freeze" repeatCount="1" dur="1s" keyTimes="0;0.8;0.82;1" values="none;inline;none;none" />
</g>
<g display="none">
  <path fill="#fff" d="M0 0v30h30V0H0zm14.405 5.972c4.561 0 8.271 3.624 8.271 8.078h-1.199c0-3.792-3.173-6.878-7.072-6.878-3.344 0-6.257 2.311-6.927 5.493l-1.174-.247c.786-3.735 4.193-6.446 8.101-6.446zm11.319 20.599l-6.195-6.195c-1.424 1.1-3.213 1.752-5.125 1.752-4.561 0-8.271-3.624-8.271-8.078h1.2c0 3.793 3.172 6.879 7.071 6.879 3.344 0 6.258-2.311 6.928-5.494l1.174.247c-.316 1.501-1.06 2.831-2.085 3.892l6.15 6.15-.847.847z" />
  <animate attributeName="display" fill="freeze" repeatCount="1" dur="1s" keyTimes="0;0.82;0.84;1" values="none;inline;none;none" />
</g>
<g display="none">
  <path fill="#fff" d="M0 0v30h30V0H0zm14.405 5.972c4.561 0 8.271 3.624 8.271 8.078h-1.199c0-3.792-3.173-6.878-7.072-6.878-3.478 0-6.485 2.521-6.994 5.863l-1.187-.181c.598-3.923 4.115-6.882 8.181-6.882zm11.446 20.726l-6.328-6.328c-1.422 1.099-3.206 1.758-5.116 1.758h-.002c-4.561 0-8.271-3.624-8.271-8.078h1.2c0 3.793 3.172 6.879 7.071 6.879h.002c3.479 0 6.485-2.521 6.994-5.864l1.186.181c-.254 1.669-1.039 3.159-2.166 4.325l6.28 6.28-.85.847z" />
  <animate attributeName="display" fill="freeze" repeatCount="1" dur="1s" keyTimes="0;0.84;0.86;1" values="none;inline;none;none" />
</g>
<g display="none">
  <path fill="#fff" d="M0 0v30h30V0H0zm14.405 5.972c4.561 0 8.271 3.624 8.271 8.078h-1.199c0-3.792-3.173-6.878-7.072-6.878-3.636 0-6.659 2.649-7.033 6.163l-1.193-.127c.439-4.125 3.975-7.236 8.226-7.236zM25.942 26.79l-6.404-6.404c-1.415 1.092-3.198 1.742-5.134 1.742-4.561 0-8.271-3.624-8.271-8.078h1.2c0 3.793 3.172 6.879 7.071 6.879 3.636 0 6.661-2.65 7.034-6.164l1.193.127c-.194 1.825-.996 3.45-2.196 4.696l6.355 6.355-.848.847z" />
  <animate attributeName="display" fill="freeze" repeatCount="1" dur="1s" keyTimes="0;0.86;0.88;1" values="none;inline;none;none" />
</g>
<g display="none">
  <path fill="#fff" d="M0 0v30h30V0H0zm14.405 5.972c4.561 0 8.271 3.624 8.271 8.078h-1.199c0-3.792-3.173-6.878-7.072-6.878-3.702 0-6.8 2.812-7.054 6.401l-1.197-.085c.298-4.215 3.922-7.516 8.251-7.516zm11.616 20.896l-6.491-6.491c-1.415 1.096-3.199 1.751-5.123 1.751h-.002c-4.561 0-8.271-3.624-8.271-8.078h1.2c0 3.793 3.172 6.879 7.071 6.879h.002c3.702 0 6.799-2.812 7.052-6.402l1.197.085c-.136 1.92-.967 3.646-2.235 4.961l6.448 6.448-.848.847z" />
  <animate attributeName="display" fill="freeze" repeatCount="1" dur="1s" keyTimes="0;0.88;0.9;1" values="none;inline;none;none" />
</g>
<g display="none">
  <path fill="#fff" d="M0 0v30h30V0H0zm14.404 5.972c4.562 0 8.272 3.624 8.272 8.078h-1.199c0-3.792-3.173-6.878-7.072-6.878h-.001c-3.796 0-6.898 2.888-7.063 6.575l-1.199-.054c.193-4.33 3.822-7.721 8.262-7.721zm11.673 20.953l-6.536-6.536c-1.412 1.091-3.197 1.739-5.138 1.739-4.561 0-8.271-3.624-8.271-8.078h1.2c0 3.793 3.172 6.879 7.071 6.879 3.796 0 6.9-2.889 7.064-6.576l1.199.054c-.09 2.011-.928 3.814-2.238 5.175l6.495 6.495-.846.848z" />
  <animate attributeName="display" fill="freeze" repeatCount="1" dur="1s" keyTimes="0;0.9;0.92;1" values="none;inline;none;none" />
</g>
<g display="none">
  <path fill="#fff" d="M0 0v30h30V0H0zm14.405 5.972c4.561 0 8.271 3.624 8.271 8.078h-1.199c0-3.792-3.173-6.878-7.072-6.878-3.803 0-6.974 3.007-7.069 6.703l-1.199-.03c.113-4.415 3.744-7.873 8.268-7.873zm11.714 20.995l-6.572-6.572c-1.409 1.087-3.192 1.733-5.144 1.733-4.561 0-8.271-3.624-8.271-8.078h1.2c0 3.793 3.172 6.879 7.071 6.879 3.867 0 6.972-2.945 7.069-6.705l1.199.031c-.053 2.08-.894 3.941-2.235 5.334l6.529 6.529-.846.849z" />
  <animate attributeName="display" fill="freeze" repeatCount="1" dur="1s" keyTimes="0;0.92;0.94;1" values="none;inline;none;none" />
</g>
<g display="none">
  <path fill="#fff" d="M0 0v30h30V0H0zm14.404 5.972c4.562 0 8.272 3.624 8.272 8.078h-1.199c0-3.792-3.173-6.878-7.072-6.878h-.001c-3.848 0-7.019 3.044-7.069 6.786l-1.2-.017c.058-4.394 3.768-7.969 8.269-7.969zm11.743 21.023l-6.622-6.622c-1.413 1.095-3.193 1.755-5.121 1.755-4.561 0-8.271-3.624-8.271-8.078h1.2c0 3.793 3.172 6.879 7.071 6.879 3.848 0 7.02-3.045 7.071-6.787l1.199.017c-.028 2.089-.887 3.987-2.258 5.41l6.58 6.58-.849.846z" />
  <animate attributeName="display" fill="freeze" repeatCount="1" dur="1s" keyTimes="0;0.94;0.96;1" values="none;inline;none;none" />
</g>
<g display="none">
  <path fill="#fff" d="M0 0v30h30V0H0zm14.405 5.972c4.561 0 8.271 3.624 8.271 8.078h-1.199c0-3.792-3.173-6.878-7.072-6.878-3.878 0-7.051 3.069-7.071 6.841l-1.2-.007c.024-4.43 3.734-8.034 8.271-8.034zM26.162 27.01l-6.634-6.634c-1.412 1.094-3.191 1.753-5.124 1.753-4.561 0-8.271-3.624-8.271-8.078h1.2c0 3.793 3.172 6.879 7.071 6.879 3.878 0 7.05-3.069 7.072-6.842l1.199.007c-.012 2.118-.872 4.041-2.256 5.478l6.591 6.591-.848.846z" />
  <animate attributeName="display" fill="freeze" repeatCount="1" dur="1s" keyTimes="0;0.96;0.98;1" values="none;inline;none;none" />
</g>
<g display="none">
  <path fill="#fff" d="M0 0v30h30V0H0zm14.405 5.972c4.561 0 8.271 3.624 8.271 8.078h-1.199c0-3.792-3.173-6.878-7.072-6.878-3.894 0-7.066 3.082-7.071 6.869l-1.2-.002c.006-4.448 3.716-8.067 8.271-8.067zm11.764 21.045l-6.64-6.64c-1.411 1.093-3.19 1.751-5.125 1.751-4.561 0-8.271-3.624-8.271-8.078h1.2c0 3.793 3.172 6.879 7.071 6.879 3.894-.001 7.066-3.083 7.072-6.87l1.199.002c-.003 2.132-.863 4.068-2.254 5.513l6.596 6.596-.848.847z" />
  <animate attributeName="display" fill="freeze" repeatCount="1" dur="1s" keyTimes="0;0.98;0.999;1" values="none;inline;none;none" />
</g>
<g display="none" fill="#fff">
  <path d="M0 0v30h30V0H0zm26.176 27.023l-6.646-6.646c-1.411 1.093-3.19 1.75-5.126 1.75-4.561 0-8.271-3.624-8.271-8.078h.001c0-4.454 3.71-8.078 8.271-8.078 4.561 0 8.271 3.624 8.271 8.078h-.001c0 2.137-.86 4.078-2.253 5.524l6.602 6.602-.848.848z" />
  <path d="M21.476 14.05c.001-3.792-3.172-6.878-7.071-6.878s-7.071 3.085-7.071 6.878h-.001c0 3.793 3.172 6.879 7.071 6.879s7.072-3.086 7.072-6.879z" />
  <animate attributeName="display" fill="freeze" repeatCount="1" dur="1s" keyTimes="0;0.999;1" values="none;inline;inline" />
</g>
</svg>