<svg xmlns="http://www.w3.org/2000/svg" viewBox="0 0 30 30" style="background:#45DBCC">
<g display="none" fill="#fff">
  <path d="M23.937 10.126h-3.979c-.127 0-.249-.048-.341-.134l-2.722-2.541h-3.803l-2.744 2.542c-.092.086-.214.133-.34.133H6.062c-.875 0-1.587.712-1.587 1.587v8.737c0 .875.712 1.587 1.587 1.587h17.876c.874 0 1.586-.712 1.586-1.587v-8.737c0-.875-.712-1.587-1.587-1.587zM15 19.516c-2.233 0-4.05-1.816-4.05-4.05 0-2.233 1.817-4.05 4.05-4.05 2.233 0 4.05 1.817 4.05 4.05 0 2.233-1.817 4.05-4.05 4.05zm7.78-5.471c-.387 0-.7-.313-.7-.7 0-.387.313-.7.7-.7s.7.313.7.7c0 .387-.313.7-.7.7z"/>
  <circle cx="15" cy="15.466" r="3.05"/>
  <path d="M0 0v30h30V0H0zm26.524 20.45c0 1.427-1.16 2.587-2.586 2.587H6.062c-1.426 0-2.587-1.16-2.587-2.587v-8.737c0-1.426 1.161-2.587 2.587-2.587h3.75l2.744-2.542c.092-.086.214-.133.34-.133h4.196c.127 0 .249.048.341.134l2.722 2.541h3.782c1.427 0 2.588 1.161 2.588 2.587v8.737z"/>
  <animate attributeName="display" fill="freeze" repeatCount="1" dur="1s" keyTimes="0;0.02;1" values="inline;none;none" />
</g>
<g display="none" fill="#fff">
  <path d="M23.937 10.126h-3.979c-.127 0-.249-.048-.341-.134l-2.722-2.541h-3.803l-2.744 2.542c-.092.086-.214.133-.34.133H6.062c-.875 0-1.587.712-1.587 1.587v8.737c0 .875.712 1.587 1.587 1.587h17.852c.01-.001.021-.001.03-.001.871-.002 1.58-.713 1.58-1.586v-8.737c0-.875-.712-1.587-1.587-1.587zM15 19.339c-2.136 0-3.873-1.737-3.873-3.873s1.737-3.873 3.873-3.873 3.873 1.737 3.873 3.873-1.737 3.873-3.873 3.873zm7.78-5.206c-.387 0-.7-.313-.7-.7s.313-.7.7-.7.7.313.7.7-.313.7-.7.7z"/>
  <circle cx="15" cy="15.466" r="2.873"/>
  <path d="M0 0v30h30V0H0zm26.524 20.45c0 1.414-1.143 2.569-2.552 2.586-.011.001-.022.001-.034.001H6.062c-1.426 0-2.587-1.16-2.587-2.587v-8.737c0-1.426 1.161-2.587 2.587-2.587h3.75l2.744-2.542c.092-.086.214-.133.34-.133h4.196c.127 0 .249.048.341.134l2.722 2.541h3.782c1.427 0 2.588 1.161 2.588 2.587v8.737z"/>
  <animate attributeName="display" fill="freeze" repeatCount="1" dur="1s" keyTimes="0;0.04;0.06;1" values="none;inline;none;none" />
</g>
<g display="none" fill="#fff">
  <path d="M23.937 10.126h-3.979c-.127 0-.249-.048-.341-.134l-2.722-2.541h-3.803l-2.744 2.542c-.092.086-.214.133-.34.133H6.062c-.875 0-1.587.712-1.587 1.587v8.737c0 .875.712 1.587 1.587 1.587h17.876c.009 0 .019.001.027 0 .859-.015 1.559-.727 1.559-1.587v-8.737c0-.875-.712-1.587-1.587-1.587zM15 19.161c-2.037 0-3.695-1.657-3.695-3.695 0-2.037 1.658-3.695 3.695-3.695 2.038 0 3.695 1.658 3.695 3.695 0 2.038-1.657 3.695-3.695 3.695zm7.78-4.895c-.387 0-.7-.313-.7-.7s.313-.7.7-.7.7.313.7.7-.313.7-.7.7z"/>
  <path d="M15 12.771c-1.486 0-2.695 1.209-2.695 2.695 0 1.486 1.209 2.695 2.695 2.695 1.486 0 2.695-1.209 2.695-2.695 0-1.486-1.209-2.695-2.695-2.695z"/>
  <path d="M0 0v30h30V0H0zm26.524 20.45c0 1.402-1.14 2.562-2.541 2.587-.01-.001-.018-.001-.027 0H6.062c-1.426 0-2.587-1.16-2.587-2.587v-8.737c0-1.426 1.161-2.587 2.587-2.587h3.75l2.744-2.542c.092-.086.214-.133.34-.133h4.196c.127 0 .249.048.341.134l2.722 2.541h3.782c1.427 0 2.588 1.161 2.588 2.587v8.737z"/>
  <animate attributeName="display" fill="freeze" repeatCount="1" dur="1s" keyTimes="0;0.06;0.08;1" values="none;inline;none;none" />
</g>
<g display="none" fill="#fff">
  <path d="M23.937 10.126h-3.979c-.127 0-.249-.048-.341-.134l-2.722-2.541h-3.803l-2.744 2.542c-.092.086-.214.133-.34.133H6.062c-.875 0-1.587.712-1.587 1.587v8.737c0 .875.712 1.587 1.587 1.587h17.876c.016 0 .03.001.046.002.014-.002.028-.003.043-.004.84-.047 1.497-.742 1.497-1.585v-8.737c0-.875-.712-1.587-1.587-1.587zM15 18.806c-1.842 0-3.34-1.498-3.34-3.34s1.498-3.34 3.34-3.34 3.34 1.498 3.34 3.34-1.498 3.34-3.34 3.34zm7.78-4.141c-.387 0-.7-.313-.7-.7s.313-.7.7-.7.7.313.7.7-.313.7-.7.7z"/>
  <path d="M0 0v30h30V0H0zm26.524 20.45c0 1.373-1.072 2.508-2.442 2.583-.024.002-.048.001-.073-.001-.022.003-.046.005-.07.005H6.062c-1.426 0-2.587-1.16-2.587-2.587v-8.737c0-1.426 1.161-2.587 2.587-2.587h3.75l2.744-2.542c.092-.086.214-.133.34-.133h4.196c.127 0 .249.048.341.134l2.722 2.541h3.782c1.427 0 2.588 1.161 2.588 2.587v8.737z"/>
  <circle cx="15" cy="15.466" r="2.34"/>
  <animate attributeName="display" fill="freeze" repeatCount="1" dur="1s" keyTimes="0;0.08;0.1;1" values="none;inline;none;none" />
</g>
<g display="none" fill="#fff">
  <path d="M0 0v30h30V0H0zm26.524 20.45c0 1.301-.971 2.403-2.258 2.565-.057.008-.11.004-.163-.006-.052.018-.107.027-.165.027H6.062c-1.426 0-2.587-1.16-2.587-2.587v-8.737c0-1.426 1.161-2.587 2.587-2.587h3.75l2.744-2.542c.092-.086.214-.133.34-.133h4.196c.127 0 .249.048.341.134l2.722 2.541h3.782c1.427 0 2.588 1.161 2.588 2.587v8.738z"/>
  <path d="M23.937 10.126h-3.979c-.127 0-.249-.048-.341-.134l-2.722-2.541h-3.803l-2.744 2.542c-.092.086-.214.133-.34.133H6.062c-.875 0-1.587.712-1.587 1.587v8.737c0 .875.712 1.587 1.587 1.587h17.876c.034 0 .068.004.101.01.033-.011.067-.019.103-.023.788-.099 1.383-.775 1.383-1.573v-8.737c-.001-.876-.713-1.588-1.588-1.588zM15 18.451c-1.646 0-2.985-1.339-2.985-2.985s1.339-2.985 2.985-2.985 2.985 1.339 2.985 2.985-1.339 2.985-2.985 2.985zm7.78-3.121c-.387 0-.7-.313-.7-.7s.313-.7.7-.7.7.313.7.7-.313.7-.7.7z"/>
  <path d="M15 13.481c-1.094 0-1.985.891-1.985 1.985 0 1.095.891 1.985 1.985 1.985 1.095 0 1.985-.891 1.985-1.985s-.89-1.985-1.985-1.985z"/>
  <animate attributeName="display" fill="freeze" repeatCount="1" dur="1s" keyTimes="0;0.1;0.12;1" values="none;inline;none;none" />
</g>
<g display="none" fill="#fff">
  <path d="M15 13.658c-.997 0-1.808.811-1.808 1.808s.811 1.809 1.808 1.809 1.808-.812 1.808-1.809c0-.997-.811-1.808-1.808-1.808z"/>
  <path d="M23.937 10.126h-3.979c-.127 0-.249-.048-.341-.134l-2.722-2.541h-3.803l-2.744 2.542c-.092.086-.214.133-.34.133H6.062c-.875 0-1.587.712-1.587 1.587v8.737c0 .875.712 1.587 1.587 1.587h17.876c.077 0 .15.018.215.049.056-.048.122-.083.196-.104.691-.185 1.175-.814 1.175-1.532v-8.737c0-.875-.712-1.587-1.587-1.587zM15 18.274c-1.548 0-2.808-1.26-2.808-2.809 0-1.548 1.26-2.808 2.808-2.808 1.548 0 2.808 1.259 2.808 2.808 0 1.55-1.26 2.809-2.808 2.809zm7.78-2.279c-.387 0-.7-.313-.7-.7s.313-.7.7-.7.7.313.7.7-.313.7-.7.7z"/>
  <path d="M0 0v30h30V0H0zm26.524 20.45c0 1.17-.788 2.197-1.917 2.499-.122.03-.243.018-.344-.032-.088.075-.201.12-.325.12H6.062c-1.426 0-2.587-1.16-2.587-2.587v-8.737c0-1.426 1.161-2.587 2.587-2.587h3.75l2.744-2.542c.092-.086.214-.133.34-.133h4.196c.127 0 .249.048.341.134l2.722 2.541h3.782c1.427 0 2.588 1.161 2.588 2.587v8.737z"/>
  <animate attributeName="display" fill="freeze" repeatCount="1" dur="1s" keyTimes="0;0.12;0.14;1" values="none;inline;none;none" />
</g>
<g display="none" fill="#fff">
  <path d="M23.937 10.126h-3.979c-.127 0-.249-.048-.341-.134l-2.722-2.541h-3.803l-2.744 2.542c-.092.086-.214.133-.34.133H6.062c-.875 0-1.587.712-1.587 1.587v8.737c0 .875.712 1.587 1.587 1.587h17.876c.175 0 .329.09.418.226.021-.161.12-.31.277-.386.549-.268.891-.814.891-1.427v-8.737c0-.875-.712-1.587-1.587-1.587zM15 18.096c-1.45 0-2.63-1.18-2.63-2.63s1.18-2.63 2.63-2.63 2.63 1.18 2.63 2.63-1.18 2.63-2.63 2.63zm7.78-1.702c-.387 0-.7-.313-.7-.7 0-.387.313-.7.7-.7s.7.313.7.7c0 .387-.313.7-.7.7z"/>
  <path d="M0 0v30h30V0H0zm26.524 20.45c0 .982-.57 1.896-1.453 2.325-.227.109-.501.033-.637-.175-.031.246-.241.437-.496.437H6.062c-1.426 0-2.587-1.16-2.587-2.587v-8.737c0-1.426 1.161-2.587 2.587-2.587h3.75l2.744-2.542c.092-.086.214-.133.34-.133h4.196c.127 0 .249.048.341.134l2.722 2.541h3.782c1.427 0 2.588 1.161 2.588 2.587v8.737z"/>
  <circle cx="15" cy="15.466" r="1.63"/>
  <animate attributeName="display" fill="freeze" repeatCount="1" dur="1s" keyTimes="0;0.14;0.16;1" values="none;inline;none;none" />
</g>
<g display="none" fill="#fff">
  <path d="M15 13.943c-.84 0-1.523.683-1.523 1.523s.683 1.523 1.523 1.523 1.523-.684 1.523-1.523-.683-1.523-1.523-1.523z"/>
  <path d="M0 0v30h30V0H0zm26.524 20.45c0 .742-.319 1.449-.876 1.941-.206.182-.523.162-.706-.044-.183-.207-.163-.523.044-.706.342-.302.538-.736.538-1.191v-8.737c0-.875-.712-1.587-1.588-1.587h-3.979c-.127 0-.249-.048-.341-.134l-2.722-2.541h-3.803l-2.744 2.542c-.092.086-.214.133-.34.133H6.062c-.875 0-1.587.712-1.587 1.587v8.737c0 .875.712 1.587 1.587 1.587h17.876c.276 0 .5.224.5.5s-.224.5-.5.5H6.062c-1.426 0-2.587-1.16-2.587-2.587v-8.737c0-1.426 1.161-2.587 2.587-2.587h3.75l2.744-2.542c.092-.086.214-.133.34-.133h4.196c.127 0 .249.048.341.134l2.722 2.541h3.782c1.427 0 2.588 1.161 2.588 2.587v8.737zm-3.044-5.155c0 .387-.313.7-.7.7s-.7-.313-.7-.7.313-.7.7-.7.7.313.7.7zm-5.957.171c0 1.392-1.132 2.523-2.523 2.523-1.391 0-2.523-1.132-2.523-2.523 0-1.391 1.132-2.523 2.523-2.523 1.392 0 2.523 1.132 2.523 2.523z"/>
  <animate attributeName="display" fill="freeze" repeatCount="1" dur="1s" keyTimes="0;0.16;0.18;1" values="none;inline;none;none" />
</g>
<g display="none" fill="#fff">
  <path d="M15 14.013c-.801 0-1.453.652-1.453 1.453s.652 1.453 1.453 1.453 1.453-.652 1.453-1.453-.652-1.453-1.453-1.453z"/>
  <path d="M0 0v30h30V0H0zm26.524 20.45c0 .427-.107.852-.31 1.229-.132.242-.432.333-.678.203-.243-.131-.334-.435-.203-.678.126-.234.19-.488.19-.754v-8.737c0-.875-.712-1.587-1.588-1.587h-3.979c-.127 0-.249-.048-.341-.134l-2.722-2.541H13.09l-2.744 2.542c-.092.086-.214.133-.34.133H6.062c-.875 0-1.587.712-1.587 1.587v8.737c0 .875.712 1.587 1.587 1.587h17.876c.276 0 .5.224.5.5s-.224.5-.5.5H6.062c-1.426 0-2.587-1.16-2.587-2.587v-8.737c0-1.426 1.161-2.587 2.587-2.587h3.75l2.744-2.542c.092-.086.214-.133.34-.133h4.196c.127 0 .249.048.341.134l2.722 2.541h3.782c1.427 0 2.588 1.161 2.588 2.587v8.737zm-3.044-5.82c0 .387-.313.7-.7.7s-.7-.313-.7-.7.313-.7.7-.7.7.313.7.7zm-6.027.836c0 1.353-1.101 2.453-2.453 2.453s-2.453-1.101-2.453-2.453 1.101-2.453 2.453-2.453 2.453 1.1 2.453 2.453z"/>
  <animate attributeName="display" fill="freeze" repeatCount="1" dur="1s" keyTimes="0;0.18;0.2;1" values="none;inline;none;none" />
</g>
<g display="none" fill="#fff">
  <circle cx="15" cy="15.466" r="1.381"/>
  <path d="M0 0v30h30V0H0zm26.524 20.45c0 .005-.002.101-.002.105-.009.271-.23.486-.5.486-.005 0-.011 0-.016-.001-.276-.008-.493-.237-.484-.514l.002-8.814c0-.875-.712-1.587-1.588-1.587h-3.979c-.127 0-.249-.048-.341-.134L16.894 7.45h-3.803l-2.744 2.542c-.092.086-.214.133-.34.133H6.062c-.875 0-1.587.712-1.587 1.587v8.737c0 .875.712 1.587 1.587 1.587h17.876c.276 0 .5.224.5.5s-.224.5-.5.5H6.062c-1.426 0-2.587-1.16-2.587-2.587v-8.737c0-1.426 1.161-2.587 2.587-2.587h3.75l2.744-2.542c.092-.086.214-.133.34-.133h4.196c.127 0 .249.048.341.134l2.722 2.541h3.782c1.427 0 2.588 1.161 2.588 2.587v8.738zm-3.044-6.485c0 .387-.313.7-.7.7s-.7-.313-.7-.7.313-.7.7-.7.7.313.7.7zm-6.099 1.501c0 1.312-1.068 2.381-2.381 2.381-1.313 0-2.381-1.068-2.381-2.381 0-1.313 1.068-2.381 2.381-2.381 1.312 0 2.381 1.068 2.381 2.381z"/>
  <animate attributeName="display" fill="freeze" repeatCount="1" dur="1s" keyTimes="0;0.2;0.22;1" values="none;inline;none;none" />
</g>
<g display="none" fill="#fff">
  <path d="M15 14.12c-.742 0-1.346.604-1.346 1.346s.604 1.346 1.346 1.346 1.346-.604 1.346-1.346S15.742 14.12 15 14.12z"/>
  <path d="M0 0v30h30V0H0zm26.524 19.353c0 .276-.224.5-.5.5s-.5-.224-.5-.5v-7.64c0-.875-.712-1.587-1.588-1.587h-3.979c-.127 0-.249-.048-.341-.134l-2.722-2.541h-3.803l-2.744 2.542c-.092.086-.214.133-.34.133H6.062c-.875 0-1.587.712-1.587 1.587v8.737c0 .875.712 1.587 1.587 1.587h17.876c.276 0 .5.224.5.5s-.224.5-.5.5H6.062c-1.426 0-2.587-1.16-2.587-2.587v-8.737c0-1.426 1.161-2.587 2.587-2.587h3.75l2.744-2.542c.092-.086.214-.133.34-.133h4.196c.127 0 .249.048.341.134l2.722 2.541h3.782c1.427 0 2.588 1.161 2.588 2.587v7.64zM23.48 11.97c0 .387-.313.7-.7.7s-.7-.313-.7-.7c0-.387.313-.7.7-.7s.7.313.7.7zm-6.134 3.496c0 1.293-1.053 2.346-2.346 2.346-1.293 0-2.346-1.053-2.346-2.346 0-1.293 1.053-2.346 2.346-2.346 1.293 0 2.346 1.052 2.346 2.346z"/>
  <animate attributeName="display" fill="freeze" repeatCount="1" dur="1s" keyTimes="0;0.22;0.24;1" values="none;inline;none;none" />
</g>
<g display="none" fill="#fff">
  <path d="M15 14.156c-.722 0-1.31.588-1.31 1.31 0 .723.588 1.311 1.31 1.311s1.31-.588 1.31-1.311c0-.722-.588-1.31-1.31-1.31z"/>
  <path d="M0 0v30h30V0H0zm26.524 17.902c0 .276-.224.5-.5.5s-.5-.224-.5-.5v-6.189c0-.875-.712-1.587-1.588-1.587h-3.979c-.127 0-.249-.048-.341-.134l-2.722-2.541h-3.803l-2.744 2.542c-.092.086-.214.133-.34.133H6.062c-.875 0-1.587.712-1.587 1.587v8.737c0 .875.712 1.587 1.587 1.587h17.876c.276 0 .5.224.5.5s-.224.5-.5.5H6.062c-1.426 0-2.587-1.16-2.587-2.587v-8.737c0-1.426 1.161-2.587 2.587-2.587h3.75l2.744-2.542c.092-.086.214-.133.34-.133h4.196c.127 0 .249.048.341.134l2.722 2.541h3.782c1.427 0 2.588 1.161 2.588 2.587v6.189zm-3.044-6.597c0 .387-.313.7-.7.7s-.7-.313-.7-.7.313-.7.7-.7.7.313.7.7zm-6.17 4.161c0 1.274-1.036 2.311-2.31 2.311s-2.31-1.036-2.31-2.311c0-1.274 1.036-2.31 2.31-2.31 1.273 0 2.31 1.036 2.31 2.31z"/>
  <animate attributeName="display" fill="freeze" repeatCount="1" dur="1s" keyTimes="0;0.24;0.26;1" values="none;inline;none;none" />
</g>
<g display="none" fill="#fff">
  <path d="M15 14.191c-.703 0-1.275.572-1.275 1.275s.572 1.275 1.275 1.275 1.275-.572 1.275-1.275-.572-1.275-1.275-1.275z"/>
  <path d="M0 0v30h30V0H0zm26.524 16.162c0 .276-.224.5-.5.5s-.5-.224-.5-.5v-4.449c0-.875-.712-1.587-1.588-1.587h-3.979c-.127 0-.249-.048-.341-.134l-2.722-2.541h-3.803l-2.744 2.542c-.092.086-.214.133-.34.133H6.062c-.875 0-1.587.712-1.587 1.587v8.737c0 .875.712 1.587 1.587 1.587h17.876c.276 0 .5.224.5.5s-.224.5-.5.5H6.062c-1.426 0-2.587-1.16-2.587-2.587v-8.737c0-1.426 1.161-2.587 2.587-2.587h3.75l2.744-2.542c.092-.086.214-.133.34-.133h4.196c.127 0 .249.048.341.134l2.722 2.541h3.782c1.427 0 2.588 1.161 2.588 2.587v4.449zm-3.044-5.256c0 .387-.313.7-.7.7s-.7-.313-.7-.7.313-.7.7-.7.7.313.7.7zm-6.205 4.56c0 1.255-1.021 2.275-2.275 2.275s-2.275-1.021-2.275-2.275 1.021-2.275 2.275-2.275c1.255 0 2.275 1.02 2.275 2.275z"/>
  <animate attributeName="display" fill="freeze" repeatCount="1" dur="1s" keyTimes="0;0.26;0.28;1" values="none;inline;none;none" />
</g>
<g display="none" fill="#fff">
  <path d="M15 14.12c-.742 0-1.346.604-1.346 1.346s.604 1.346 1.346 1.346 1.346-.604 1.346-1.346S15.742 14.12 15 14.12z"/>
  <path d="M0 0v30h30V0H0zm26.524 14.112c0 .276-.224.5-.5.5s-.5-.224-.5-.5v-2.399c0-.875-.712-1.587-1.588-1.587h-3.979c-.127 0-.249-.048-.341-.134l-2.722-2.541h-3.803l-2.744 2.542c-.092.086-.214.133-.34.133H6.062c-.875 0-1.587.712-1.587 1.587v8.737c0 .875.712 1.587 1.587 1.587h17.876c.276 0 .5.224.5.5s-.224.5-.5.5H6.062c-1.426 0-2.587-1.16-2.587-2.587v-8.737c0-1.426 1.161-2.587 2.587-2.587h3.75l2.744-2.542c.092-.086.214-.133.34-.133h4.196c.127 0 .249.048.341.134l2.722 2.541h3.782c1.427 0 2.588 1.161 2.588 2.587v2.399zm-3.044-2.807c0 .387-.313.7-.7.7s-.7-.313-.7-.7.313-.7.7-.7.7.313.7.7zm-6.134 4.161c0 1.293-1.053 2.346-2.346 2.346-1.293 0-2.346-1.053-2.346-2.346 0-1.293 1.053-2.346 2.346-2.346 1.293 0 2.346 1.052 2.346 2.346z"/>
  <animate attributeName="display" fill="freeze" repeatCount="1" dur="1s" keyTimes="0;0.28;0.3;1" values="none;inline;none;none" />
</g>
<g display="none" fill="#fff">
  <path d="M15 14.013c-.801 0-1.453.652-1.453 1.453s.652 1.453 1.453 1.453 1.453-.652 1.453-1.453-.652-1.453-1.453-1.453z"/>
  <path d="M0 0v30h30V0H0zm26.024 12.212c-.276 0-.5-.224-.5-.5 0-.875-.712-1.586-1.588-1.586h-3.979c-.127 0-.249-.048-.341-.134l-2.722-2.541h-3.803l-2.744 2.542c-.092.086-.214.133-.34.133H6.062c-.875 0-1.587.712-1.587 1.587v8.737c0 .875.712 1.587 1.587 1.587h17.876c.276 0 .5.224.5.5s-.224.5-.5.5H6.062c-1.426 0-2.587-1.16-2.587-2.587v-8.737c0-1.426 1.161-2.587 2.587-2.587h3.75l2.744-2.542c.092-.086.214-.133.34-.133h4.196c.127 0 .249.048.341.134l2.722 2.541h3.782c1.427 0 2.588 1.16 2.588 2.586-.001.277-.224.5-.501.5zm-2.544-.242c0 .387-.313.7-.7.7s-.7-.313-.7-.7c0-.387.313-.7.7-.7s.7.313.7.7zm-6.027 3.496c0 1.353-1.101 2.453-2.453 2.453s-2.453-1.101-2.453-2.453 1.101-2.453 2.453-2.453 2.453 1.1 2.453 2.453z"/>
  <animate attributeName="display" fill="freeze" repeatCount="1" dur="1s" keyTimes="0;0.3;0.32;1" values="none;inline;none;none" />
</g>
<g display="none" fill="#fff">
  <path d="M0 0v30h30V0H0zm24.927 9.808c-.066.267-.334.432-.605.365-.126-.031-.256-.047-.385-.047h-3.979c-.127 0-.249-.048-.341-.134l-2.722-2.541h-3.803l-2.744 2.542c-.092.086-.214.133-.34.133H6.062c-.875 0-1.587.712-1.587 1.587v8.737c0 .875.712 1.587 1.587 1.587h17.876c.276 0 .5.224.5.5s-.224.5-.5.5H6.062c-1.426 0-2.587-1.16-2.587-2.587v-8.737c0-1.426 1.161-2.587 2.587-2.587h3.75l2.744-2.542c.092-.086.214-.133.34-.133h4.196c.127 0 .249.048.341.134l2.722 2.541h3.782c.21 0 .42.025.625.076.267.066.431.337.365.606zm-1.447 3.537c0 .387-.313.7-.7.7s-.7-.313-.7-.7c0-.387.313-.7.7-.7s.7.313.7.7zm-5.85 2.121c0 1.45-1.18 2.63-2.63 2.63s-2.63-1.18-2.63-2.63 1.18-2.63 2.63-2.63 2.63 1.18 2.63 2.63z"/>
  <circle cx="15" cy="15.466" r="1.63"/>
  <animate attributeName="display" fill="freeze" repeatCount="1" dur="1s" keyTimes="0;0.32;0.34;1" values="none;inline;none;none" />
</g>
<g display="none" fill="#fff">
  <path d="M13.015 15.466c0 1.095.891 1.985 1.985 1.985 1.095 0 1.985-.891 1.985-1.985s-.891-1.985-1.985-1.985-1.985.891-1.985 1.985z"/>
  <path d="M0 0v30h30V0H0zm22.78 13.265c.387 0 .7.313.7.7s-.313.7-.7.7-.7-.313-.7-.7.313-.7.7-.7zm1.158 9.772H6.062c-1.426 0-2.587-1.16-2.587-2.587v-8.737c0-1.426 1.161-2.587 2.587-2.587h3.75l2.744-2.542c.092-.086.214-.133.34-.133h4.196c.127 0 .249.048.341.134l2.722 2.541h1.132c.276 0 .5.224.5.5s-.224.5-.5.5h-1.329c-.127 0-.249-.048-.341-.134l-2.722-2.541h-3.803l-2.744 2.542c-.093.086-.214.133-.34.133H6.062c-.875 0-1.587.712-1.587 1.587v8.737c0 .875.712 1.587 1.587 1.587h17.876c.276 0 .5.224.5.5s-.223.5-.5.5zm-5.953-7.571c0 1.646-1.339 2.985-2.985 2.985s-2.985-1.339-2.985-2.985 1.339-2.985 2.985-2.985 2.985 1.339 2.985 2.985z"/>
  <animate attributeName="display" fill="freeze" repeatCount="1" dur="1s" keyTimes="0;0.34;0.36;1" values="none;inline;none;none" />
</g>
<g display="none" fill="#fff">
  <circle cx="15" cy="15.466" r="2.34"/>
  <path d="M0 0v30h30V0H0zm22.78 13.664c.387 0 .7.313.7.7s-.313.7-.7.7-.7-.313-.7-.7.313-.7.7-.7zm1.158 9.373H6.062c-1.426 0-2.587-1.16-2.587-2.587v-8.737c0-1.426 1.161-2.587 2.587-2.587h3.75l2.744-2.542c.092-.086.214-.133.34-.133h4.196c.127 0 .249.048.341.134l1.228 1.146c.202.188.213.505.024.707s-.505.213-.706.024L16.895 7.45h-3.803l-2.744 2.542c-.093.086-.214.133-.34.133H6.062c-.875 0-1.587.712-1.587 1.587v8.737c0 .875.712 1.587 1.587 1.587h17.876c.276 0 .5.224.5.5s-.223.501-.5.501zm-5.598-7.571c0 1.842-1.498 3.34-3.34 3.34s-3.34-1.498-3.34-3.34 1.498-3.34 3.34-3.34 3.34 1.498 3.34 3.34z"/>
  <animate attributeName="display" fill="freeze" repeatCount="1" dur="1s" keyTimes="0;0.36;0.38;1" values="none;inline;none;none" />
</g>
<g display="none" fill="#fff">
  <path d="M12.305 15.466c0 1.486 1.209 2.695 2.695 2.695 1.486 0 2.695-1.209 2.695-2.695 0-1.486-1.209-2.695-2.695-2.695-1.486 0-2.695 1.209-2.695 2.695z"/>
  <path d="M0 0v30h30V0H0zm22.78 13.265c.387 0 .7.313.7.7s-.313.7-.7.7-.7-.313-.7-.7.313-.7.7-.7zm-4.085 2.201c0 2.038-1.657 3.695-3.695 3.695-2.037 0-3.695-1.657-3.695-3.695 0-2.037 1.658-3.695 3.695-3.695 2.038 0 3.695 1.658 3.695 3.695zm5.243 7.571H6.062c-1.426 0-2.587-1.16-2.587-2.587v-8.737c0-1.426 1.161-2.587 2.587-2.587h3.75l2.744-2.542c.092-.086.214-.133.34-.133h1.845c.276 0 .5.224.5.5s-.224.5-.5.5h-1.649l-2.744 2.542c-.093.086-.214.133-.34.133H6.062c-.875 0-1.587.712-1.587 1.587v8.737c0 .875.712 1.587 1.587 1.587h17.876c.276 0 .5.224.5.5s-.223.5-.5.5z"/>
  <animate attributeName="display" fill="freeze" repeatCount="1" dur="1s" keyTimes="0;0.38;0.4;1" values="none;inline;none;none" />
</g>
<g display="none" fill="#fff">
  <path d="M0 0v30h30V0H0zm22.78 12.645c.387 0 .7.313.7.7 0 .387-.313.7-.7.7s-.7-.313-.7-.7c0-.387.313-.7.7-.7zM15 11.416c2.233 0 4.05 1.817 4.05 4.05 0 2.233-1.816 4.05-4.05 4.05-2.233 0-4.05-1.816-4.05-4.05 0-2.233 1.817-4.05 4.05-4.05zm8.938 11.621H6.062c-1.426 0-2.587-1.16-2.587-2.587v-8.737c0-1.426 1.161-2.587 2.587-2.587h3.75l.796-.737c.202-.188.518-.177.707.027.188.203.176.519-.027.707l-.94.871c-.092.086-.214.133-.34.133H6.062c-.875 0-1.587.712-1.587 1.587v8.737c0 .875.712 1.587 1.587 1.587h17.876c.276 0 .5.224.5.5s-.223.499-.5.499z"/>
  <circle cx="15" cy="15.466" r="3.05"/>
  <animate attributeName="display" fill="freeze" repeatCount="1" dur="1s" keyTimes="0;0.4;0.42;1" values="none;inline;none;none" />
</g>
<g display="none" fill="#fff">
  <path d="M15 18.871c1.878 0 3.405-1.527 3.405-3.405 0-1.877-1.527-3.405-3.405-3.405-1.877 0-3.405 1.527-3.405 3.405s1.528 3.405 3.405 3.405z"/>
  <path d="M0 0v30h30V0H0zm22.78 12.334c.387 0 .7.313.7.7s-.313.7-.7.7-.7-.313-.7-.7.313-.7.7-.7zM15 11.061c2.429 0 4.405 1.976 4.405 4.405S17.429 19.871 15 19.871s-4.405-1.977-4.405-4.405 1.976-4.405 4.405-4.405zm8.938 11.976H6.062c-1.426 0-2.587-1.16-2.587-2.587v-8.737c0-1.426 1.161-2.587 2.587-2.587h.227c.276 0 .5.224.5.5s-.224.5-.5.5h-.227c-.875 0-1.587.712-1.587 1.587v8.737c0 .875.712 1.587 1.587 1.587h17.876c.276 0 .5.224.5.5s-.223.5-.5.5z"/>
  <animate attributeName="display" fill="freeze" repeatCount="1" dur="1s" keyTimes="0;0.42;0.44;1" values="none;inline;none;none" />
</g>
<g display="none" fill="#fff">
  <circle cx="15" cy="15.466" r="3.76"/>
  <path d="M0 0v30h30V0H0zm22.78 12.645c.387 0 .7.313.7.7 0 .387-.313.7-.7.7s-.7-.313-.7-.7c0-.387.313-.7.7-.7zM15 10.706c2.625 0 4.76 2.135 4.76 4.76s-2.135 4.76-4.76 4.76-4.76-2.135-4.76-4.76 2.135-4.76 4.76-4.76zm8.938 12.331H6.062c-1.426 0-2.587-1.16-2.587-2.587v-6.714c0-.276.224-.5.5-.5s.5.224.5.5v6.714c0 .875.712 1.587 1.587 1.587h17.876c.276 0 .5.224.5.5s-.223.5-.5.5z"/>
  <animate attributeName="display" fill="freeze" repeatCount="1" dur="1s" keyTimes="0;0.44;0.46;1" values="none;inline;none;none" />
</g>
<g display="none" fill="#fff">
  <path d="M0 0v30h30V0H0zm22.78 12.645c.387 0 .7.313.7.7 0 .387-.313.7-.7.7s-.7-.313-.7-.7c0-.387.313-.7.7-.7zM15 10.528c2.723 0 4.938 2.215 4.938 4.938S17.723 20.404 15 20.404s-4.938-2.216-4.938-4.938 2.215-4.938 4.938-4.938zm8.938 12.509H6.062c-1.426 0-2.587-1.16-2.587-2.587v-.654c0-.276.224-.5.5-.5s.5.224.5.5v.654c0 .875.712 1.587 1.587 1.587h17.876c.276 0 .5.224.5.5s-.223.5-.5.5z"/>
  <path d="M15 19.404c2.172 0 3.938-1.767 3.938-3.938 0-2.171-1.767-3.938-3.938-3.938-2.171 0-3.938 1.767-3.938 3.938 0 2.172 1.767 3.938 3.938 3.938z"/>
  <animate attributeName="display" fill="freeze" repeatCount="1" dur="1s" keyTimes="0;0.46;0.48;1" values="none;inline;none;none" />
</g>
<g display="none" fill="#fff">
  <path d="M0 0v30h30V0H0zm22.78 12.645c.387 0 .7.313.7.7 0 .387-.313.7-.7.7s-.7-.313-.7-.7c0-.387.313-.7.7-.7zM15 10.351c2.82 0 5.115 2.294 5.115 5.115S17.82 20.581 15 20.581s-5.115-2.295-5.115-5.115S12.18 10.351 15 10.351zm8.938 12.686H8.789c-.276 0-.5-.224-.5-.5s.224-.5.5-.5h15.15c.276 0 .5.224.5.5s-.224.5-.501.5z"/>
  <path d="M15 19.581c2.27 0 4.115-1.846 4.115-4.115S17.269 11.351 15 11.351s-4.115 1.846-4.115 4.115 1.846 4.115 4.115 4.115z"/>
  <animate attributeName="display" fill="freeze" repeatCount="1" dur="1s" keyTimes="0;0.48;0.5;1" values="none;inline;none;none" />
</g>
<g display="none" fill="#fff">
  <path d="M0 0v30h30V0H0zm22.78 12.645c.387 0 .7.313.7.7 0 .387-.313.7-.7.7s-.7-.313-.7-.7c0-.387.313-.7.7-.7zM9.778 15.466c0-2.879 2.343-5.222 5.222-5.222 2.879 0 5.222 2.342 5.222 5.222 0 2.88-2.343 5.223-5.222 5.223-2.879-.001-5.222-2.343-5.222-5.223zm14.16 7.571h-7.88c-.276 0-.5-.224-.5-.5s.224-.5.5-.5h7.88c.276 0 .5.224.5.5s-.223.5-.5.5z"/>
  <path d="M15 11.244c-2.328 0-4.222 1.894-4.222 4.222 0 2.328 1.894 4.223 4.222 4.223s4.222-1.895 4.222-4.223-1.894-4.222-4.222-4.222z"/>
  <animate attributeName="display" fill="freeze" repeatCount="1" dur="1s" keyTimes="0;0.5;0.52;1" values="none;inline;none;none" />
</g>
<g display="none" fill="#fff">
  <circle cx="15" cy="15.466" r="4.292"/>
  <path d="M0 0v30h30V0H0zm15 20.758c-2.918 0-5.292-2.374-5.292-5.292s2.374-5.292 5.292-5.292 5.292 2.374 5.292 5.292-2.374 5.292-5.292 5.292zm7.78-6.713c-.387 0-.7-.313-.7-.7 0-.387.313-.7.7-.7s.7.313.7.7c0 .387-.313.7-.7.7z"/>
  <animate attributeName="display" fill="freeze" repeatCount="1" dur="1s" keyTimes="0;0.52;0.54;1" values="none;inline;none;none" />
</g>
<g display="none" fill="#fff">
  <path d="M15 11.244c-2.328 0-4.222 1.894-4.222 4.222 0 2.328 1.894 4.223 4.222 4.223s4.222-1.895 4.222-4.223-1.894-4.222-4.222-4.222z"/>
  <path d="M0 0v30h30V0H0zm15 20.688c-2.879 0-5.222-2.343-5.222-5.223 0-2.879 2.343-5.222 5.222-5.222 2.879 0 5.222 2.342 5.222 5.222 0 2.881-2.343 5.223-5.222 5.223zm7.78-6.643c-.387 0-.7-.313-.7-.7 0-.387.313-.7.7-.7s.7.313.7.7c0 .387-.313.7-.7.7zm3.744 6.405c0 1.427-1.16 2.587-2.586 2.587-.276 0-.5-.224-.5-.5s.224-.5.5-.5c.874 0 1.586-.712 1.586-1.587v-4.598c0-.276.224-.5.5-.5s.5.224.5.5v4.598z"/>
  <animate attributeName="display" fill="freeze" repeatCount="1" dur="1s" keyTimes="0;0.54;0.56;1" values="none;inline;none;none" />
</g>
<g display="none" fill="#fff">
  <path d="M15 11.351c-2.269 0-4.115 1.846-4.115 4.115 0 2.27 1.846 4.115 4.115 4.115 2.27 0 4.115-1.846 4.115-4.115S17.27 11.351 15 11.351z"/>
  <path d="M0 0v30h30V0H0zm15 20.581c-2.82 0-5.115-2.295-5.115-5.115S12.18 10.351 15 10.351s5.115 2.294 5.115 5.115S17.82 20.581 15 20.581zm7.78-6.536c-.387 0-.7-.313-.7-.7 0-.387.313-.7.7-.7s.7.313.7.7c0 .387-.313.7-.7.7zm3.744 6.405c0 1.427-1.16 2.587-2.586 2.587-.276 0-.5-.224-.5-.5s.224-.5.5-.5c.874 0 1.586-.712 1.586-1.587v-8.737c0-.833-.65-1.528-1.481-1.583-.275-.018-.484-.256-.466-.532.019-.276.258-.476.532-.466 1.354.089 2.415 1.223 2.415 2.581v8.737z"/>
  <animate attributeName="display" fill="freeze" repeatCount="1" dur="1s" keyTimes="0;0.56;0.58;1" values="none;inline;none;none" />
</g>
<g display="none" fill="#fff">
  <path d="M15 11.528c-2.171 0-3.938 1.767-3.938 3.938 0 2.172 1.767 3.938 3.938 3.938 2.172 0 3.938-1.767 3.938-3.938 0-2.172-1.766-3.938-3.938-3.938z"/>
  <path d="M0 0v30h30V0H0zm15 20.404c-2.723 0-4.938-2.216-4.938-4.938s2.215-4.938 4.938-4.938 4.938 2.215 4.938 4.938-2.215 4.938-4.938 4.938zm7.78-6.359c-.387 0-.7-.313-.7-.7 0-.387.313-.7.7-.7s.7.313.7.7c0 .387-.313.7-.7.7zm3.744 6.405c0 1.427-1.16 2.587-2.586 2.587-.276 0-.5-.224-.5-.5s.224-.5.5-.5c.874 0 1.586-.712 1.586-1.587v-8.737c0-.875-.712-1.587-1.588-1.587h-3.979c-.127 0-.249-.048-.341-.135l-1.85-1.727c-.202-.188-.213-.504-.024-.707.188-.202.506-.212.706-.024l1.706 1.592h3.782c1.427 0 2.588 1.161 2.588 2.587v8.738z"/>
  <animate attributeName="display" fill="freeze" repeatCount="1" dur="1s" keyTimes="0;0.58;0.6;1" values="none;inline;none;none" />
</g>
<g display="none" fill="#fff">
  <circle cx="15" cy="15.466" r="3.76"/>
  <path d="M0 0v30h30V0H0zm15 20.226c-2.625 0-4.76-2.135-4.76-4.76s2.135-4.76 4.76-4.76 4.76 2.135 4.76 4.76-2.135 4.76-4.76 4.76zm7.78-6.181c-.387 0-.7-.313-.7-.7 0-.387.313-.7.7-.7s.7.313.7.7c0 .387-.313.7-.7.7zm3.744 6.405c0 1.427-1.16 2.587-2.586 2.587-.276 0-.5-.224-.5-.5s.224-.5.5-.5c.874 0 1.586-.712 1.586-1.587v-8.737c0-.875-.712-1.587-1.588-1.587h-3.979c-.127 0-.249-.048-.341-.134l-2.722-2.541h-3.803l-.205.189c-.203.188-.521.176-.707-.027-.188-.203-.176-.519.027-.707l.349-.323c.093-.086.214-.133.34-.133h4.196c.127 0 .249.048.341.134l2.722 2.541h3.782c1.427 0 2.588 1.161 2.588 2.587v8.738z"/>
  <animate attributeName="display" fill="freeze" repeatCount="1" dur="1s" keyTimes="0;0.6;0.62;1" values="none;inline;none;none" />
</g>
<g display="none" fill="#fff">
  <path d="M15 12.061c-1.877 0-3.405 1.527-3.405 3.405s1.527 3.405 3.405 3.405 3.405-1.527 3.405-3.405-1.527-3.405-3.405-3.405z"/>
  <path d="M0 0v30h30V0H0zm15 19.871c-2.429 0-4.405-1.977-4.405-4.405s1.976-4.405 4.405-4.405 4.405 1.976 4.405 4.405-1.976 4.405-4.405 4.405zm7.78-5.826c-.387 0-.7-.313-.7-.7 0-.387.313-.7.7-.7s.7.313.7.7c0 .387-.313.7-.7.7zm3.744 6.405c0 1.427-1.16 2.587-2.586 2.587-.276 0-.5-.224-.5-.5s.224-.5.5-.5c.874 0 1.586-.712 1.586-1.587v-8.737c0-.875-.712-1.587-1.588-1.587h-3.979c-.127 0-.249-.048-.341-.134l-2.722-2.541h-3.803l-2.744 2.542c-.093.086-.214.133-.34.133H7.939c-.276 0-.5-.224-.5-.5s.224-.5.5-.5h1.873l2.744-2.542c.093-.086.214-.133.34-.133h4.196c.127 0 .249.048.341.134l2.722 2.541h3.782c1.427 0 2.588 1.161 2.588 2.587v8.737z"/>
  <animate attributeName="display" fill="freeze" repeatCount="1" dur="1s" keyTimes="0;0.62;0.64;1" values="none;inline;none;none" />
</g>
<g display="none" fill="#fff">
  <circle cx="15" cy="15.466" r="3.05"/>
  <path d="M0 0v30h30V0H0zm15 19.516c-2.233 0-4.05-1.816-4.05-4.05 0-2.233 1.817-4.05 4.05-4.05 2.233 0 4.05 1.817 4.05 4.05 0 2.233-1.817 4.05-4.05 4.05zm7.78-5.471c-.387 0-.7-.313-.7-.7 0-.387.313-.7.7-.7s.7.313.7.7c0 .387-.313.7-.7.7zm3.744 6.405c0 1.427-1.16 2.587-2.586 2.587-.276 0-.5-.224-.5-.5s.224-.5.5-.5c.874 0 1.586-.712 1.586-1.587v-8.737c0-.875-.712-1.587-1.588-1.587h-3.979c-.127 0-.249-.048-.341-.134l-2.722-2.541h-3.803l-2.744 2.542c-.092.086-.214.133-.34.133H6.062c-.826 0-1.521.645-1.583 1.467-.021.275-.254.483-.536.461-.275-.021-.482-.26-.461-.536.1-1.342 1.232-2.393 2.58-2.393h3.75l2.744-2.542c.092-.086.214-.133.34-.133h4.196c.127 0 .249.048.341.134l2.722 2.541h3.782c1.427 0 2.588 1.161 2.588 2.587v8.738z"/>
  <animate attributeName="display" fill="freeze" repeatCount="1" dur="1s" keyTimes="0;0.64;0.66;1" values="none;inline;none;none" />
</g>
<g display="none" fill="#fff">
  <path d="M0 0v30h30V0H0zm15 19.161c-2.037 0-3.695-1.657-3.695-3.695 0-2.037 1.658-3.695 3.695-3.695 2.038 0 3.695 1.658 3.695 3.695 0 2.038-1.657 3.695-3.695 3.695zm7.78-5.116c-.387 0-.7-.313-.7-.7 0-.387.313-.7.7-.7s.7.313.7.7c0 .387-.313.7-.7.7zm3.744 6.405c0 1.427-1.16 2.587-2.586 2.587-.276 0-.5-.224-.5-.5s.224-.5.5-.5c.874 0 1.586-.712 1.586-1.587v-8.737c0-.875-.712-1.587-1.588-1.587h-3.979c-.127 0-.249-.048-.341-.134l-2.722-2.541h-3.803l-2.744 2.542c-.092.086-.214.133-.34.133H6.062c-.875 0-1.587.712-1.587 1.587v4.343c0 .276-.224.5-.5.5s-.5-.224-.5-.5v-4.343c0-1.426 1.161-2.587 2.587-2.587h3.75l2.744-2.542c.092-.086.214-.133.34-.133h4.196c.127 0 .249.048.341.134l2.722 2.541h3.782c1.427 0 2.588 1.161 2.588 2.587v8.737z"/>
  <path d="M15 12.771c-1.486 0-2.695 1.209-2.695 2.695 0 1.486 1.209 2.695 2.695 2.695 1.486 0 2.695-1.209 2.695-2.695 0-1.486-1.209-2.695-2.695-2.695z"/>
  <animate attributeName="display" fill="freeze" repeatCount="1" dur="1s" keyTimes="0;0.66;0.68;1" values="none;inline;none;none" />
</g>
<g display="none" fill="#fff">
  <path d="M15 12.949c-1.388 0-2.517 1.129-2.517 2.517 0 1.389 1.129 2.518 2.517 2.518s2.517-1.129 2.517-2.518c0-1.388-1.129-2.517-2.517-2.517z"/>
  <path d="M0 0v30h30V0H0zm15 18.983c-1.939 0-3.517-1.578-3.517-3.518 0-1.939 1.578-3.517 3.517-3.517s3.517 1.578 3.517 3.517c0 1.94-1.578 3.518-3.517 3.518zm7.78-4.938c-.387 0-.7-.313-.7-.7 0-.387.313-.7.7-.7s.7.313.7.7c0 .387-.313.7-.7.7zm3.744 6.405c0 1.427-1.16 2.587-2.586 2.587-.276 0-.5-.224-.5-.5s.224-.5.5-.5c.874 0 1.586-.712 1.586-1.587v-8.737c0-.875-.712-1.587-1.588-1.587h-3.979c-.127 0-.249-.048-.341-.134l-2.722-2.541h-3.803l-2.744 2.542c-.092.086-.214.133-.34.133H6.062c-.875 0-1.587.712-1.587 1.587v8.373c0 .276-.224.5-.5.5s-.5-.224-.5-.5v-8.373c0-1.426 1.161-2.587 2.587-2.587h3.75l2.744-2.542c.092-.086.214-.133.34-.133h4.196c.127 0 .249.048.341.134l2.722 2.541h3.782c1.427 0 2.588 1.161 2.588 2.587v8.737z"/>
  <animate attributeName="display" fill="freeze" repeatCount="1" dur="1s" keyTimes="0;0.68;0.7;1" values="none;inline;none;none" />
</g>
<g display="none" fill="#fff">
  <path d="M15 13.019c-1.349 0-2.447 1.098-2.447 2.447 0 1.35 1.098 2.447 2.447 2.447 1.35 0 2.447-1.098 2.447-2.447S16.35 13.019 15 13.019z"/>
  <path d="M0 0v30h30V0H0zm15 18.913c-1.9 0-3.447-1.547-3.447-3.447S13.1 12.019 15 12.019s3.447 1.546 3.447 3.447S16.9 18.913 15 18.913zm7.78-4.868c-.387 0-.7-.313-.7-.7 0-.387.313-.7.7-.7s.7.313.7.7c0 .387-.313.7-.7.7zm3.744 6.405c0 1.427-1.16 2.587-2.586 2.587-.276 0-.5-.224-.5-.5s.224-.5.5-.5c.874 0 1.586-.712 1.586-1.587v-8.737c0-.875-.712-1.587-1.588-1.587h-3.979c-.127 0-.249-.048-.341-.134l-2.722-2.541h-3.803l-2.744 2.542c-.092.086-.214.133-.34.133H6.062c-.875 0-1.587.712-1.587 1.587v8.737c0 .859.673 1.557 1.531 1.586.276.01.492.241.482.518-.009.275-.229.484-.517.482-1.399-.049-2.496-1.185-2.496-2.586v-8.737c0-1.426 1.161-2.587 2.587-2.587h3.75l2.744-2.542c.092-.086.214-.133.34-.133h4.196c.127 0 .249.048.341.134l2.722 2.541h3.782c1.427 0 2.588 1.161 2.588 2.587v8.737z"/>
  <animate attributeName="display" fill="freeze" repeatCount="1" dur="1s" keyTimes="0;0.7;0.72;1" values="none;inline;none;none" />
</g>
<g display="none" fill="#fff">
  <path d="M0 0v30h30V0H0zm15 18.806c-1.842 0-3.34-1.498-3.34-3.34s1.498-3.34 3.34-3.34 3.34 1.498 3.34 3.34-1.498 3.34-3.34 3.34zm7.78-4.761c-.387 0-.7-.313-.7-.7 0-.387.313-.7.7-.7s.7.313.7.7c0 .387-.313.7-.7.7zm3.744 6.405c0 1.427-1.16 2.587-2.586 2.587-.276 0-.5-.224-.5-.5s.224-.5.5-.5c.874 0 1.586-.712 1.586-1.587v-8.737c0-.875-.712-1.587-1.588-1.587h-3.979c-.127 0-.249-.048-.341-.134l-2.722-2.541h-3.803l-2.744 2.542c-.092.086-.214.133-.34.133H6.062c-.875 0-1.587.712-1.587 1.587v8.737c0 .875.712 1.587 1.587 1.587h3.097c.276 0 .5.224.5.5s-.224.5-.5.5H6.062c-1.426 0-2.587-1.16-2.587-2.587v-8.737c0-1.426 1.161-2.587 2.587-2.587h3.75l2.744-2.542c.092-.086.214-.133.34-.133h4.196c.127 0 .249.048.341.134l2.722 2.541h3.782c1.427 0 2.588 1.161 2.588 2.587v8.737z"/>
  <circle cx="15" cy="15.466" r="2.34"/>
  <animate attributeName="display" fill="freeze" repeatCount="1" dur="1s" keyTimes="0;0.72;0.74;1" values="none;inline;none;none" />
</g>
<g display="none" fill="#fff">
  <path d="M15 13.019c-1.349 0-2.447 1.098-2.447 2.447 0 1.35 1.098 2.447 2.447 2.447 1.35 0 2.447-1.098 2.447-2.447S16.35 13.019 15 13.019z"/>
  <path d="M0 0v30h30V0H0zm15 18.913c-1.9 0-3.447-1.547-3.447-3.447S13.1 12.019 15 12.019s3.447 1.546 3.447 3.447S16.9 18.913 15 18.913zm7.78-4.868c-.387 0-.7-.313-.7-.7 0-.387.313-.7.7-.7s.7.313.7.7c0 .387-.313.7-.7.7zm3.744 6.405c0 1.427-1.16 2.587-2.586 2.587-.276 0-.5-.224-.5-.5s.224-.5.5-.5c.874 0 1.586-.712 1.586-1.587v-8.737c0-.875-.712-1.587-1.588-1.587h-3.979c-.127 0-.249-.048-.341-.134l-2.722-2.541h-3.803l-2.744 2.542c-.092.086-.214.133-.34.133H6.062c-.875 0-1.587.712-1.587 1.587v8.737c0 .875.712 1.587 1.587 1.587h5.856c.276 0 .5.224.5.5s-.224.5-.5.5H6.062c-1.426 0-2.587-1.16-2.587-2.587v-8.737c0-1.426 1.161-2.587 2.587-2.587h3.75l2.744-2.542c.092-.086.214-.133.34-.133h4.196c.127 0 .249.048.341.134l2.722 2.541h3.782c1.427 0 2.588 1.161 2.588 2.587v8.737z"/>
  <animate attributeName="display" fill="freeze" repeatCount="1" dur="1s" keyTimes="0;0.74;0.76;1" values="none;inline;none;none" />
</g>
<g display="none" fill="#fff">
  <circle cx="15" cy="15.466" r="2.624"/>
  <path d="M0 0v30h30V0H0zm15 19.09c-1.998 0-3.624-1.626-3.624-3.624s1.626-3.624 3.624-3.624 3.624 1.626 3.624 3.624S16.998 19.09 15 19.09zm7.78-5.045c-.387 0-.7-.313-.7-.7 0-.387.313-.7.7-.7s.7.313.7.7c0 .387-.313.7-.7.7zm3.744 6.405c0 1.427-1.16 2.587-2.586 2.587-.276 0-.5-.224-.5-.5s.224-.5.5-.5c.874 0 1.586-.712 1.586-1.587v-8.737c0-.875-.712-1.587-1.588-1.587h-3.979c-.127 0-.249-.048-.341-.134l-2.722-2.541h-3.803l-2.744 2.542c-.092.086-.214.133-.34.133H6.062c-.875 0-1.587.712-1.587 1.587v8.737c0 .875.712 1.587 1.587 1.587h8.256c.276 0 .5.224.5.5s-.224.5-.5.5H6.062c-1.426 0-2.587-1.16-2.587-2.587v-8.737c0-1.426 1.161-2.587 2.587-2.587h3.75l2.744-2.542c.092-.086.214-.133.34-.133h4.196c.127 0 .249.048.341.134l2.722 2.541h3.782c1.427 0 2.588 1.161 2.588 2.587v8.737z"/>
  <animate attributeName="display" fill="freeze" repeatCount="1" dur="1s" keyTimes="0;0.76;0.78;1" values="none;inline;none;none" />
</g>
<g display="none" fill="#fff">
  <circle cx="15" cy="15.466" r="2.873"/>
  <path d="M0 0v30h30V0H0zm15 19.339c-2.136 0-3.873-1.737-3.873-3.873s1.737-3.873 3.873-3.873 3.873 1.737 3.873 3.873-1.737 3.873-3.873 3.873zm7.78-5.294c-.387 0-.7-.313-.7-.7 0-.387.313-.7.7-.7s.7.313.7.7c0 .387-.313.7-.7.7zm3.744 6.405c0 1.427-1.16 2.587-2.586 2.587-.276 0-.5-.224-.5-.5s.224-.5.5-.5c.874 0 1.586-.712 1.586-1.587v-8.737c0-.875-.712-1.587-1.588-1.587h-3.979c-.127 0-.249-.048-.341-.134l-2.722-2.541h-3.803l-2.744 2.542c-.092.086-.214.133-.34.133H6.062c-.875 0-1.587.712-1.587 1.587v8.737c0 .875.712 1.587 1.587 1.587h10.306c.276 0 .5.224.5.5s-.224.5-.5.5H6.062c-1.426 0-2.587-1.16-2.587-2.587v-8.737c0-1.426 1.161-2.587 2.587-2.587h3.75l2.744-2.542c.092-.086.214-.133.34-.133h4.196c.127 0 .249.048.341.134l2.722 2.541h3.782c1.427 0 2.588 1.161 2.588 2.587v8.737z"/>
  <animate attributeName="display" fill="freeze" repeatCount="1" dur="1s" keyTimes="0;0.78;0.8;1" values="none;inline;none;none" />
</g>
<g display="none" fill="#fff">
  <path d="M11.772 15.466c0 1.78 1.448 3.229 3.228 3.229 1.779 0 3.228-1.448 3.228-3.229 0-1.78-1.448-3.228-3.228-3.228-1.78 0-3.228 1.448-3.228 3.228z"/>
  <path d="M0 0v30h30V0H0zm22.78 14.045c-.387 0-.7-.313-.7-.7 0-.387.313-.7.7-.7s.7.313.7.7c0 .387-.313.7-.7.7zm3.744 6.405c0 1.427-1.16 2.587-2.586 2.587-.276 0-.5-.224-.5-.5s.224-.5.5-.5c.874 0 1.586-.712 1.586-1.587v-8.737c0-.875-.712-1.587-1.588-1.587h-3.979c-.127 0-.249-.048-.341-.134l-2.722-2.541h-3.803l-2.744 2.542c-.092.086-.214.133-.34.133H6.062c-.875 0-1.587.712-1.587 1.587v8.737c0 .875.712 1.587 1.587 1.587h12.046c.276 0 .5.224.5.5s-.224.5-.5.5H6.062c-1.426 0-2.587-1.16-2.587-2.587v-8.737c0-1.426 1.161-2.587 2.587-2.587h3.75l2.744-2.542c.092-.086.214-.133.34-.133h4.196c.127 0 .249.048.341.134l2.722 2.541h3.782c1.427 0 2.588 1.161 2.588 2.587v8.737zm-7.296-4.984c0 2.332-1.896 4.229-4.228 4.229s-4.228-1.896-4.228-4.229c0-2.332 1.896-4.228 4.228-4.228 2.331 0 4.228 1.896 4.228 4.228z"/>
  <animate attributeName="display" fill="freeze" repeatCount="1" dur="1s" keyTimes="0;0.8;0.82;1" values="none;inline;none;none" />
</g>
<g display="none" fill="#fff">
  <path d="M0 0v30h30V0H0zm22.78 14.045c-.387 0-.7-.313-.7-.7 0-.387.313-.7.7-.7s.7.313.7.7c0 .387-.313.7-.7.7zm3.744 6.405c0 1.427-1.16 2.587-2.586 2.587-.276 0-.5-.224-.5-.5s.224-.5.5-.5c.874 0 1.586-.712 1.586-1.587v-8.737c0-.875-.712-1.587-1.588-1.587h-3.979c-.127 0-.249-.048-.341-.134l-2.722-2.541h-3.803l-2.744 2.542c-.092.086-.214.133-.34.133H6.062c-.875 0-1.587.712-1.587 1.587v8.737c0 .875.712 1.587 1.587 1.587h13.497c.276 0 .5.224.5.5s-.224.5-.5.5H6.062c-1.426 0-2.587-1.16-2.587-2.587v-8.737c0-1.426 1.161-2.587 2.587-2.587h3.75l2.744-2.542c.092-.086.214-.133.34-.133h4.196c.127 0 .249.048.341.134l2.722 2.541h3.782c1.427 0 2.588 1.161 2.588 2.587v8.737zm-7.19-4.984c0 2.39-1.944 4.334-4.334 4.334s-4.334-1.944-4.334-4.334S12.61 11.132 15 11.132s4.334 1.944 4.334 4.334z"/>
  <circle cx="15" cy="15.466" r="3.334"/>
  <animate attributeName="display" fill="freeze" repeatCount="1" dur="1s" keyTimes="0;0.82;0.84;1" values="none;inline;none;none" />
</g>
<g display="none" fill="#fff">
  <path d="M11.772 15.466c0 1.78 1.448 3.229 3.228 3.229 1.779 0 3.228-1.448 3.228-3.229 0-1.78-1.448-3.228-3.228-3.228-1.78 0-3.228 1.448-3.228 3.228z"/>
  <path d="M0 0v30h30V0H0zm22.78 14.045c-.387 0-.7-.313-.7-.7 0-.387.313-.7.7-.7s.7.313.7.7c0 .387-.313.7-.7.7zm3.744 6.405c0 1.427-1.16 2.587-2.586 2.587-.276 0-.5-.224-.5-.5s.224-.5.5-.5c.874 0 1.586-.712 1.586-1.587v-8.737c0-.875-.712-1.587-1.588-1.587h-3.979c-.127 0-.249-.048-.341-.134l-2.722-2.541h-3.803l-2.744 2.542c-.092.086-.214.133-.34.133H6.062c-.875 0-1.587.712-1.587 1.587v8.737c0 .875.712 1.587 1.587 1.587h14.686c.276 0 .5.224.5.5s-.224.5-.5.5H6.062c-1.426 0-2.587-1.16-2.587-2.587v-8.737c0-1.426 1.161-2.587 2.587-2.587h3.75l2.744-2.542c.092-.086.214-.133.34-.133h4.196c.127 0 .249.048.341.134l2.722 2.541h3.782c1.427 0 2.588 1.161 2.588 2.587v8.737zm-7.296-4.984c0 2.332-1.896 4.229-4.228 4.229s-4.228-1.896-4.228-4.229c0-2.332 1.896-4.228 4.228-4.228 2.331 0 4.228 1.896 4.228 4.228z"/>
  <animate attributeName="display" fill="freeze" repeatCount="1" dur="1s" keyTimes="0;0.84;0.86;1" values="none;inline;none;none" />
</g>
<g display="none" fill="#fff">
  <path d="M11.879 15.466c0 1.721 1.4 3.121 3.121 3.121s3.121-1.4 3.121-3.121-1.4-3.121-3.121-3.121-3.121 1.4-3.121 3.121z"/>
  <path d="M0 0v30h30V0H0zm22.78 14.045c-.387 0-.7-.313-.7-.7 0-.387.313-.7.7-.7s.7.313.7.7c0 .387-.313.7-.7.7zm3.744 6.405c0 1.427-1.16 2.587-2.586 2.587-.276 0-.5-.224-.5-.5s.224-.5.5-.5c.874 0 1.586-.712 1.586-1.587v-8.737c0-.875-.712-1.587-1.588-1.587h-3.979c-.127 0-.249-.048-.341-.134l-2.722-2.541h-3.803l-2.744 2.542c-.092.086-.214.133-.34.133H6.062c-.875 0-1.587.712-1.587 1.587v8.737c0 .875.712 1.587 1.587 1.587h15.636c.276 0 .5.224.5.5s-.224.5-.5.5H6.062c-1.426 0-2.587-1.16-2.587-2.587v-8.737c0-1.426 1.161-2.587 2.587-2.587h3.75l2.744-2.542c.092-.086.214-.133.34-.133h4.196c.127 0 .249.048.341.134l2.722 2.541h3.782c1.427 0 2.588 1.161 2.588 2.587v8.737zm-7.403-4.984c0 2.272-1.849 4.121-4.121 4.121s-4.121-1.849-4.121-4.121c0-2.272 1.849-4.121 4.121-4.121s4.121 1.849 4.121 4.121z"/>
  <animate attributeName="display" fill="freeze" repeatCount="1" dur="1s" keyTimes="0;0.86;0.88;1" values="none;inline;none;none" />
</g>
<g display="none" fill="#fff">
  <circle cx="15" cy="15.466" r="2.873"/>
  <path d="M0 0v30h30V0H0zm26.524 20.45c0 1.427-1.16 2.587-2.586 2.587-.276 0-.5-.224-.5-.5s.224-.5.5-.5c.874 0 1.586-.712 1.586-1.587v-8.737c0-.875-.712-1.587-1.588-1.587h-3.979c-.127 0-.249-.048-.341-.134l-2.722-2.541h-3.803l-2.744 2.542c-.092.086-.214.133-.34.133H6.062c-.875 0-1.587.712-1.587 1.587v8.737c0 .875.712 1.587 1.587 1.587h16.367c.276 0 .5.224.5.5s-.224.5-.5.5H6.062c-1.426 0-2.587-1.16-2.587-2.587v-8.737c0-1.426 1.161-2.587 2.587-2.587h3.75l2.744-2.542c.092-.086.214-.133.34-.133h4.196c.127 0 .249.048.341.134l2.722 2.541h3.782c1.427 0 2.588 1.161 2.588 2.587v8.737zm-3.744-6.405c-.387 0-.7-.313-.7-.7 0-.387.313-.7.7-.7s.7.313.7.7c0 .387-.313.7-.7.7zm-3.907 1.421c0 2.136-1.737 3.873-3.873 3.873s-3.873-1.737-3.873-3.873 1.737-3.873 3.873-3.873 3.873 1.737 3.873 3.873z"/>
  <animate attributeName="display" fill="freeze" repeatCount="1" dur="1s" keyTimes="0;0.88;0.9;1" values="none;inline;none;none" />
</g>
<g display="none" fill="#fff">
  <path d="M15 12.487c-1.643 0-2.979 1.336-2.979 2.979s1.336 2.979 2.979 2.979 2.979-1.337 2.979-2.979-1.336-2.979-2.979-2.979z"/>
  <path d="M23.937 10.126h-3.979c-.127 0-.249-.048-.341-.134l-2.722-2.541h-3.803l-2.744 2.542c-.092.086-.214.133-.34.133H6.062c-.875 0-1.587.712-1.587 1.587v8.737c0 .875.712 1.587 1.587 1.587h16.936c.217 0 .4.138.471.33.069-.192.253-.33.47-.33.874 0 1.586-.712 1.586-1.587v-8.737c-.001-.875-.713-1.587-1.588-1.587zM15 19.445c-2.194 0-3.979-1.785-3.979-3.979s1.785-3.979 3.979-3.979c2.193 0 3.979 1.785 3.979 3.979S17.193 19.445 15 19.445zm7.78-5.4c-.387 0-.7-.313-.7-.7 0-.387.313-.7.7-.7s.7.313.7.7c0 .387-.313.7-.7.7z"/>
  <path d="M0 0v30h30V0H0zm26.524 20.45c0 1.427-1.16 2.587-2.586 2.587-.217 0-.4-.138-.47-.33-.07.192-.254.33-.471.33H6.062c-1.426 0-2.587-1.16-2.587-2.587v-8.737c0-1.426 1.161-2.587 2.587-2.587h3.75l2.744-2.542c.092-.086.214-.133.34-.133h4.196c.127 0 .249.048.341.134l2.722 2.541h3.782c1.427 0 2.588 1.161 2.588 2.587v8.737z"/>
  <animate attributeName="display" fill="freeze" repeatCount="1" dur="1s" keyTimes="0;0.9;0.92;1" values="none;inline;none;none" />
</g>
<g display="none" fill="#fff">
  <circle cx="15" cy="15.466" r="3.05"/>
  <path d="M23.937 10.126h-3.979c-.127 0-.249-.048-.341-.134l-2.722-2.541h-3.803l-2.744 2.542c-.092.086-.214.133-.34.133H6.062c-.875 0-1.587.712-1.587 1.587v8.737c0 .875.712 1.587 1.587 1.587h17.327c.102 0 .196.03.274.082.079-.052.174-.082.275-.082.874 0 1.586-.712 1.586-1.587v-8.737c0-.875-.712-1.587-1.587-1.587zM15 19.516c-2.233 0-4.05-1.816-4.05-4.05 0-2.233 1.817-4.05 4.05-4.05 2.233 0 4.05 1.817 4.05 4.05 0 2.233-1.817 4.05-4.05 4.05zm7.78-5.471c-.387 0-.7-.313-.7-.7 0-.387.313-.7.7-.7s.7.313.7.7c0 .387-.313.7-.7.7z"/>
  <path d="M0 0v30h30V0H0zm26.524 20.45c0 1.427-1.16 2.587-2.586 2.587-.102 0-.196-.03-.275-.082-.078.052-.173.082-.274.082H6.062c-1.426 0-2.587-1.16-2.587-2.587v-8.737c0-1.426 1.161-2.587 2.587-2.587h3.75l2.744-2.542c.092-.086.214-.133.34-.133h4.196c.127 0 .249.048.341.134l2.722 2.541h3.782c1.427 0 2.588 1.161 2.588 2.587v8.737z"/>
  <animate attributeName="display" fill="freeze" repeatCount="1" dur="1s" keyTimes="0;0.92;0.94;1" values="none;inline;none;none" />
</g>
<g display="none" fill="#fff">
  <path d="M23.937 10.126h-3.979c-.127 0-.249-.048-.341-.134l-2.722-2.541h-3.803l-2.744 2.542c-.092.086-.214.133-.34.133H6.062c-.875 0-1.587.712-1.587 1.587v8.737c0 .875.712 1.587 1.587 1.587h17.607c.047 0 .092.007.135.019.043-.012.088-.019.135-.019.874 0 1.586-.712 1.586-1.587v-8.737c-.001-.875-.713-1.587-1.588-1.587zM15 19.516c-2.233 0-4.05-1.816-4.05-4.05 0-2.233 1.817-4.05 4.05-4.05 2.233 0 4.05 1.817 4.05 4.05 0 2.233-1.817 4.05-4.05 4.05zm7.78-5.471c-.387 0-.7-.313-.7-.7 0-.387.313-.7.7-.7s.7.313.7.7c0 .387-.313.7-.7.7z"/>
  <circle cx="15" cy="15.466" r="3.05"/>
  <path d="M0 0v30h30V0H0zm26.524 20.45c0 1.427-1.16 2.587-2.586 2.587-.047 0-.092-.007-.135-.019-.043.012-.088.019-.135.019H6.062c-1.426 0-2.587-1.16-2.587-2.587v-8.737c0-1.426 1.161-2.587 2.587-2.587h3.75l2.744-2.542c.092-.086.214-.133.34-.133h4.196c.127 0 .249.048.341.134l2.722 2.541h3.782c1.427 0 2.588 1.161 2.588 2.587v8.737z"/>
  <animate attributeName="display" fill="freeze" repeatCount="1" dur="1s" keyTimes="0;0.94;0.96;1" values="none;inline;none;none" />
</g>
<g display="none" fill="#fff">
  <path d="M23.937 10.126h-3.979c-.127 0-.249-.048-.341-.134l-2.722-2.541h-3.803l-2.744 2.542c-.092.086-.214.133-.34.133H6.062c-.875 0-1.587.712-1.587 1.587v8.737c0 .875.712 1.587 1.587 1.587h17.756c.021 0 .04.001.061.004.02-.003.039-.004.06-.004.874 0 1.586-.712 1.586-1.587v-8.737c-.001-.875-.713-1.587-1.588-1.587zM15 19.516c-2.233 0-4.05-1.816-4.05-4.05 0-2.233 1.817-4.05 4.05-4.05 2.233 0 4.05 1.817 4.05 4.05 0 2.233-1.817 4.05-4.05 4.05zm7.78-5.471c-.387 0-.7-.313-.7-.7 0-.387.313-.7.7-.7s.7.313.7.7c0 .387-.313.7-.7.7z"/>
  <circle cx="15" cy="15.466" r="3.05"/>
  <path d="M0 0v30h30V0H0zm26.524 20.45c0 1.427-1.16 2.587-2.586 2.587-.021 0-.04-.001-.06-.004-.021.003-.04.004-.061.004H6.062c-1.426 0-2.587-1.16-2.587-2.587v-8.737c0-1.426 1.161-2.587 2.587-2.587h3.75l2.744-2.542c.092-.086.214-.133.34-.133h4.196c.127 0 .249.048.341.134l2.722 2.541h3.782c1.427 0 2.588 1.161 2.588 2.587v8.737z"/>
  <animate attributeName="display" fill="freeze" repeatCount="1" dur="1s" keyTimes="0;0.96;0.98;1" values="none;inline;none;none" />
</g>
<g display="none" fill="#fff">
  <path d="M23.937 10.126h-3.979c-.127 0-.249-.048-.341-.134l-2.722-2.541h-3.803l-2.744 2.542c-.092.086-.214.133-.34.133H6.062c-.875 0-1.587.712-1.587 1.587v8.737c0 .875.712 1.587 1.587 1.587h17.836c.013-.001.025-.001.04 0 .874 0 1.586-.712 1.586-1.587v-8.737c0-.875-.712-1.587-1.587-1.587zM15 19.516c-2.233 0-4.05-1.816-4.05-4.05 0-2.233 1.817-4.05 4.05-4.05 2.233 0 4.05 1.817 4.05 4.05 0 2.233-1.817 4.05-4.05 4.05zm7.78-5.471c-.387 0-.7-.313-.7-.7 0-.387.313-.7.7-.7s.7.313.7.7c0 .387-.313.7-.7.7z"/>
  <circle cx="15" cy="15.466" r="3.05"/>
  <path d="M0 0v30h30V0H0zm26.524 20.45c0 1.427-1.16 2.587-2.586 2.587H6.062c-1.426 0-2.587-1.16-2.587-2.587v-8.737c0-1.426 1.161-2.587 2.587-2.587h3.75l2.744-2.542c.092-.086.214-.133.34-.133h4.196c.127 0 .249.048.341.134l2.722 2.541h3.782c1.427 0 2.588 1.161 2.588 2.587v8.737z"/>
  <animate attributeName="display" fill="freeze" repeatCount="1" dur="1s" keyTimes="0;0.98;0.999;1" values="none;inline;none;none" />
</g>
<g display="none" fill="#fff">
  <circle cx="15" cy="15.466" r="3.05"/>
  <path d="M23.937 10.126h-3.979c-.127 0-.249-.048-.341-.134l-2.722-2.541h-3.803l-2.744 2.542c-.092.086-.214.133-.34.133H6.062c-.875 0-1.587.712-1.587 1.587v8.737c0 .875.712 1.587 1.587 1.587h17.876c.874 0 1.586-.712 1.586-1.587v-8.737c0-.875-.712-1.587-1.587-1.587zM15 19.516c-2.233 0-4.05-1.816-4.05-4.05 0-2.233 1.817-4.05 4.05-4.05 2.233 0 4.05 1.817 4.05 4.05 0 2.233-1.817 4.05-4.05 4.05zm7.78-5.471c-.387 0-.7-.313-.7-.7 0-.387.313-.7.7-.7s.7.313.7.7c0 .387-.313.7-.7.7z"/>
  <path d="M0 0v30h30V0H0zm26.524 20.45c0 1.427-1.16 2.587-2.586 2.587H6.062c-1.426 0-2.587-1.16-2.587-2.587v-8.737c0-1.426 1.161-2.587 2.587-2.587h3.75l2.744-2.542c.092-.086.214-.133.34-.133h4.196c.127 0 .249.048.341.134l2.722 2.541h3.782c1.427 0 2.588 1.161 2.588 2.587v8.737z"/>
  <animate attributeName="display" fill="freeze" repeatCount="1" dur="1s" keyTimes="0;0.999;1" values="none;inline;inline" />
</g>
</svg>
