{
    "asset" : {
        "generator" : "Khronos glTF Blender I/O v1.3.48",
        "version" : "2.0"
    },
    "scene" : 0,
    "scenes" : [
        {
            "name" : "Scene",
            "nodes" : [
                0
            ]
        }
    ],
    "nodes" : [
        {
            "mesh" : 0,
            "name" : "wooden_home"
        }
    ],
    "materials" : [
        {
            "doubleSided" : true,
            "emissiveFactor" : [
                0,
                0,
                0
            ],
            "name" : "wood_2",
            "pbrMetallicRoughness" : {
                "baseColorFactor" : [
                    0.7742145657539368,
                    0.4157073497772217,
                    0.17067359387874603,
                    1
                ],
                "metallicFactor" : 0,
                "roughnessFactor" : 0.5
            }
        },
        {
            "doubleSided" : true,
            "emissiveFactor" : [
                0,
                0,
                0
            ],
            "name" : "wood_1",
            "pbrMetallicRoughness" : {
                "baseColorFactor" : [
                    0.32634398341178894,
                    0.1785639226436615,
                    0.07605083286762238,
                    1
                ],
                "metallicFactor" : 0,
                "roughnessFactor" : 0.5
            }
        },
        {
            "doubleSided" : true,
            "emissiveFactor" : [
                0,
                0,
                0
            ],
            "name" : "wood_3",
            "pbrMetallicRoughness" : {
                "baseColorFactor" : [
                    0.5172885656356812,
                    0.31861409544944763,
                    0.11684674024581909,
                    1
                ],
                "metallicFactor" : 0,
                "roughnessFactor" : 0.5
            }
        }
    ],
    "meshes" : [
        {
            "name" : "wooden_home",
            "primitives" : [
                {
                    "attributes" : {
                        "POSITION" : 0,
                        "NORMAL" : 1
                    },
                    "indices" : 2,
                    "material" : 0
                },
                {
                    "attributes" : {
                        "POSITION" : 3,
                        "NORMAL" : 4
                    },
                    "indices" : 5,
                    "material" : 1
                },
                {
                    "attributes" : {
                        "POSITION" : 6,
                        "NORMAL" : 7
                    },
                    "indices" : 8,
                    "material" : 2
                }
            ]
        }
    ],
    "accessors" : [
        {
            "bufferView" : 0,
            "componentType" : 5126,
            "count" : 2756,
            "max" : [
                5.5742716789245605,
                4.384944915771484,
                5.0367255210876465
            ],
            "min" : [
                -5.5742716789245605,
                -0.006583940237760544,
                -5.0367255210876465
            ],
            "type" : "VEC3"
        },
        {
            "bufferView" : 1,
            "componentType" : 5126,
            "count" : 2756,
            "type" : "VEC3"
        },
        {
            "bufferView" : 2,
            "componentType" : 5123,
            "count" : 7152,
            "type" : "SCALAR"
        },
        {
            "bufferView" : 3,
            "componentType" : 5126,
            "count" : 1897,
            "max" : [
                5.033507823944092,
                4.308218479156494,
                3.2588553428649902
            ],
            "min" : [
                -5.033507823944092,
                -0.01694430783390999,
                -3.1159110069274902
            ],
            "type" : "VEC3"
        },
        {
            "bufferView" : 4,
            "componentType" : 5126,
            "count" : 1897,
            "type" : "VEC3"
        },
        {
            "bufferView" : 5,
            "componentType" : 5123,
            "count" : 8712,
            "type" : "SCALAR"
        },
        {
            "bufferView" : 6,
            "componentType" : 5126,
            "count" : 945,
            "max" : [
                5.033507823944092,
                4.210795879364014,
                3.1614327430725098
            ],
            "min" : [
                -5.033507823944092,
                0.08047810196876526,
                -3.1159110069274902
            ],
            "type" : "VEC3"
        },
        {
            "bufferView" : 7,
            "componentType" : 5126,
            "count" : 945,
            "type" : "VEC3"
        },
        {
            "bufferView" : 8,
            "componentType" : 5123,
            "count" : 2520,
            "type" : "SCALAR"
        }
    ],
    "bufferViews" : [
        {
            "buffer" : 0,
            "byteLength" : 33072,
            "byteOffset" : 0
        },
        {
            "buffer" : 0,
            "byteLength" : 33072,
            "byteOffset" : 33072
        },
        {
            "buffer" : 0,
            "byteLength" : 14304,
            "byteOffset" : 66144
        },
        {
            "buffer" : 0,
            "byteLength" : 22764,
            "byteOffset" : 80448
        },
        {
            "buffer" : 0,
            "byteLength" : 22764,
            "byteOffset" : 103212
        },
        {
            "buffer" : 0,
            "byteLength" : 17424,
            "byteOffset" : 125976
        },
        {
            "buffer" : 0,
            "byteLength" : 11340,
            "byteOffset" : 143400
        },
        {
            "buffer" : 0,
            "byteLength" : 11340,
            "byteOffset" : 154740
        },
        {
            "buffer" : 0,
            "byteLength" : 5040,
            "byteOffset" : 166080
        }
    ],
    "buffers" : [
        {
            "byteLength" : 171120,
            "uri" : "data:application/octet-stream;base64,"
        }
    ]
}
