<svg xmlns="http://www.w3.org/2000/svg" viewBox="0 0 210 210">
<style>
/* <![CDATA[ */

#a1, #a2, #a3, #a4, #a5, #a6, #a7, #a8, #a9, #a10, #a11, #a12, #a13, #a14, #a15, #a16, #a17, #a18, #a19, #a20, #a21, #a22, #a23, #a24, #a25, #a26, #a27, #a28, #a29, #a30, #a31, #a32, #a33, #a34, #a35, #a36, #a37, #a38, #a39, #a40, #a41, #a42, #a43, #a44, #a45, #a46, #a47, #a48, #a49, #a50, #a51, #a52, #a53, #a54, #a55, #a56, #a57, #a58, #a59, #a60 {
visibility: hidden;
animation-duration: 1s;
animation-iteration-count: 3;
animation-fill-mode: forwards;
animation-timing-function: steps(1);
}
#a0 {
  visibility: hidden;
  animation: frozen_frame .1s 3s forwards;
}

@keyframes frozen_frame {
  0% {
    visibility: hidden;
  }
  100% {
    visibility: visible;
  }
}

/* ]]> */
</style>
<g id="a0">
  <path d="M206.988 105c0 56.886-45.665 103-101.988 103C48.673 208 3.013 161.886 3.013 105S48.674 2 105 2c56.323 0 101.988 46.114 101.988 103z"/>
  <path fill="#fefeff" d="M157.843 143.244H52.157c-2.729 0-4.96-2.253-4.96-5.008 0-2.756 2.231-5.009 4.96-5.009h105.686c2.728 0 4.959 2.253 4.959 5.009 0 2.755-2.231 5.008-4.959 5.008z"/>
  <path fill="#fefeff" d="M157.843 110.009l-105.686-.001c-2.729.001-4.96-2.252-4.96-5.008 0-2.756 2.231-5.008 4.96-5.008l105.686-.001c2.728.001 4.959 2.253 4.959 5.009 0 2.756-2.231 5.008-4.959 5.008z"/>
  <path fill="#fefeff" d="M157.843 76.773H52.157c-2.729 0-4.96-2.257-4.96-5.009 0-2.755 2.231-5.008 4.96-5.008h105.686c2.728 0 4.959 2.253 4.959 5.008 0 2.752-2.231 5.009-4.959 5.009z"/>
</g>
<g id="a1">
  <path d="M206.988 105c0 56.886-45.665 103-101.988 103C48.673 208 3.013 161.886 3.013 105S48.674 2 105 2c56.323 0 101.988 46.114 101.988 103z"/>
  <path fill="#fefeff" d="M157.843 143.244H52.157c-2.729 0-4.96-2.253-4.96-5.008 0-2.756 2.231-5.009 4.96-5.009h105.686c2.728 0 4.959 2.253 4.959 5.009 0 2.755-2.231 5.008-4.959 5.008z"/>
  <path fill="#fefeff" d="M157.843 110.009l-105.686-.001c-2.729.001-4.96-2.252-4.96-5.008 0-2.756 2.231-5.008 4.96-5.008l105.686-.001c2.728.001 4.959 2.253 4.959 5.009 0 2.756-2.231 5.008-4.959 5.008z"/>
  <path fill="#fefeff" d="M157.843 76.773H52.157c-2.729 0-4.96-2.257-4.96-5.009 0-2.755 2.231-5.008 4.96-5.008h105.686c2.728 0 4.959 2.253 4.959 5.008 0 2.752-2.231 5.009-4.959 5.009z"/>
</g>
<g id="a2">
  <path d="M206.348 105c0 56.886-45.378 103-101.348 103C49.026 208 3.652 161.886 3.652 105S49.026 2 105 2c55.97 0 101.348 46.114 101.348 103z"/>
  <path fill="#fefeff" d="M157.511 143.244H52.488c-2.712 0-4.928-2.253-4.928-5.008 0-2.756 2.216-5.009 4.928-5.009h105.023c2.712 0 4.928 2.253 4.928 5.009 0 2.755-2.216 5.008-4.928 5.008z"/>
  <path fill="#fefeff" d="M157.511 110.009l-105.023-.001c-2.712.001-4.928-2.252-4.928-5.008 0-2.756 2.216-5.008 4.928-5.008l105.023-.001c2.712.001 4.928 2.253 4.928 5.009 0 2.756-2.216 5.008-4.928 5.008z"/>
  <path fill="#fefeff" d="M157.511 76.773H52.488c-2.712 0-4.928-2.257-4.928-5.009 0-2.755 2.216-5.008 4.928-5.008h105.023c2.712 0 4.928 2.253 4.928 5.008 0 2.752-2.216 5.009-4.928 5.009z"/>
</g>
<g id="a3">
  <path d="M205.403 105c0 56.886-44.955 103-100.403 103C49.548 208 4.597 161.886 4.597 105S49.548 2 105 2c55.448 0 100.403 46.114 100.403 103z"/>
  <path fill="#fefeff" d="M157.021 143.244H52.977c-2.686 0-4.882-2.253-4.882-5.008 0-2.756 2.196-5.009 4.882-5.009h104.044c2.686 0 4.882 2.253 4.882 5.009 0 2.755-2.196 5.008-4.882 5.008z"/>
  <path fill="#fefeff" d="M157.021 110.009l-104.044-.001c-2.686.001-4.882-2.252-4.882-5.008 0-2.756 2.196-5.008 4.882-5.008l104.044-.001c2.686.001 4.882 2.253 4.882 5.009 0 2.756-2.196 5.008-4.882 5.008z"/>
  <path fill="#fefeff" d="M157.021 76.773H52.977c-2.686 0-4.882-2.257-4.882-5.009 0-2.755 2.196-5.008 4.882-5.008h104.044c2.686 0 4.882 2.253 4.882 5.008 0 2.752-2.196 5.009-4.882 5.009z"/>
</g>
<g id="a4">
  <path d="M204.037 105c0 56.886-44.343 103-99.037 103-54.697 0-99.037-46.114-99.037-103S50.303 2 105 2c54.694 0 99.037 46.114 99.037 103z"/>
  <path fill="#fefeff" d="M156.313 143.244H53.685c-2.65 0-4.815-2.253-4.815-5.008 0-2.756 2.165-5.009 4.815-5.009h102.628c2.65 0 4.816 2.253 4.816 5.009 0 2.755-2.166 5.008-4.816 5.008z"/>
  <path fill="#fefeff" d="M156.313 110.009l-102.628-.001c-2.65.001-4.815-2.252-4.815-5.008 0-2.756 2.165-5.008 4.815-5.008l102.628-.001c2.65.001 4.816 2.253 4.816 5.009 0 2.756-2.166 5.008-4.816 5.008z"/>
  <path fill="#fefeff" d="M156.313 76.773H53.685c-2.65 0-4.815-2.257-4.815-5.009 0-2.755 2.165-5.008 4.815-5.008h102.628c2.65 0 4.816 2.253 4.816 5.008 0 2.752-2.166 5.009-4.816 5.009z"/>
</g>
<g id="a5">
  <path d="M202.101 105c0 56.886-43.477 103-97.101 103-53.627 0-97.1-46.114-97.1-103S51.373 2 105 2c53.624 0 97.101 46.114 97.101 103z"/>
  <path fill="#fefeff" d="M155.31 143.244H54.689c-2.598 0-4.721-2.253-4.721-5.008 0-2.756 2.123-5.009 4.721-5.009H155.31c2.598 0 4.722 2.253 4.722 5.009 0 2.755-2.124 5.008-4.722 5.008z" opacity=".92"/>
  <path fill="#fefeff" d="M155.31 110.009l-100.621-.001c-2.598.001-4.721-2.252-4.721-5.008 0-2.756 2.123-5.008 4.721-5.008l100.621-.001c2.598.001 4.722 2.253 4.722 5.009 0 2.756-2.124 5.008-4.722 5.008z" opacity=".92"/>
  <path fill="#fefeff" d="M155.31 76.773H54.689c-2.598 0-4.721-2.257-4.721-5.009 0-2.755 2.123-5.008 4.721-5.008H155.31c2.598 0 4.722 2.253 4.722 5.008 0 2.752-2.124 5.009-4.722 5.009z" opacity=".92"/>
</g>
<g id="a6">
  <path d="M199.397 105c0 56.886-42.266 103-94.397 103-52.135 0-94.397-46.114-94.397-103S52.865 2 105 2c52.131 0 94.397 46.114 94.397 103z"/>
  <path fill="#fefeff" d="M153.91 143.244H56.089c-2.526 0-4.59-2.253-4.59-5.008 0-2.756 2.064-5.009 4.59-5.009h97.821c2.525 0 4.59 2.253 4.59 5.009 0 2.755-2.065 5.008-4.59 5.008z" opacity=".83"/>
  <path fill="#fefeff" d="M153.91 110.009l-97.821-.001c-2.526.001-4.59-2.252-4.59-5.008 0-2.756 2.064-5.008 4.59-5.008l97.821-.001c2.525.001 4.59 2.253 4.59 5.009 0 2.756-2.065 5.008-4.59 5.008z" opacity=".83"/>
  <path fill="#fefeff" d="M153.91 76.773H56.089c-2.526 0-4.59-2.257-4.59-5.009 0-2.755 2.064-5.008 4.59-5.008h97.821c2.525 0 4.59 2.253 4.59 5.008 0 2.752-2.065 5.009-4.59 5.009z" opacity=".83"/>
</g>
<g id="a7">
  <path d="M195.679 105c0 56.886-40.601 103-90.679 103-50.081 0-90.678-46.114-90.678-103S54.92 2 105 2c50.078 0 90.679 46.114 90.679 103z"/>
  <path fill="#fefeff" d="M151.983 143.244H58.016c-2.426 0-4.409-2.253-4.409-5.008 0-2.756 1.983-5.009 4.409-5.009h93.967c2.426 0 4.409 2.253 4.409 5.009 0 2.755-1.983 5.008-4.409 5.008z" opacity=".75"/>
  <path fill="#fefeff" d="M151.983 110.009l-93.967-.001c-2.426.001-4.409-2.252-4.409-5.008 0-2.756 1.983-5.008 4.409-5.008l93.967-.001c2.426.001 4.409 2.253 4.409 5.009 0 2.756-1.983 5.008-4.409 5.008z" opacity=".75"/>
  <path fill="#fefeff" d="M151.983 76.773H58.016c-2.426 0-4.409-2.257-4.409-5.009 0-2.755 1.983-5.008 4.409-5.008h93.967c2.426 0 4.409 2.253 4.409 5.008 0 2.752-1.983 5.009-4.409 5.009z" opacity=".75"/>
</g>
<g id="a8">
  <path d="M190.638 105c0 56.886-38.344 103-85.638 103-47.297 0-85.638-46.114-85.638-103S57.703 2 105 2c47.294 0 85.638 46.114 85.638 103z"/>
  <path fill="#fefeff" d="M149.371 143.244H60.628c-2.291 0-4.164-2.253-4.164-5.008 0-2.756 1.873-5.009 4.164-5.009h88.743c2.291 0 4.164 2.253 4.164 5.009 0 2.755-1.873 5.008-4.164 5.008z" opacity=".67"/>
  <path fill="#fefeff" d="M149.371 110.009l-88.743-.001c-2.291.001-4.164-2.252-4.164-5.008 0-2.756 1.873-5.008 4.164-5.008l88.743-.001c2.291.001 4.164 2.253 4.164 5.009 0 2.756-1.873 5.008-4.164 5.008z" opacity=".67"/>
  <path fill="#fefeff" d="M149.371 76.773H60.628c-2.291 0-4.164-2.257-4.164-5.009 0-2.755 1.873-5.008 4.164-5.008h88.743c2.291 0 4.164 2.253 4.164 5.008 0 2.752-1.873 5.009-4.164 5.009z" opacity=".67"/>
</g>
<g id="a9">
  <path d="M183.931 105c0 56.886-35.341 103-78.931 103-43.593 0-78.931-46.114-78.931-103S61.407 2 105 2c43.59 0 78.931 46.114 78.931 103z"/>
  <path fill="#fefeff" d="M145.896 143.244H64.103c-2.112 0-3.838-2.253-3.838-5.008 0-2.756 1.726-5.009 3.838-5.009h81.793c2.112 0 3.838 2.253 3.838 5.009 0 2.755-1.726 5.008-3.838 5.008z" opacity=".58"/>
  <path fill="#fefeff" d="M145.896 110.009l-81.793-.001c-2.112.001-3.838-2.252-3.838-5.008 0-2.756 1.726-5.008 3.838-5.008l81.793-.001c2.112.001 3.838 2.253 3.838 5.009 0 2.756-1.726 5.008-3.838 5.008z" opacity=".58"/>
  <path fill="#fefeff" d="M145.896 76.773H64.103c-2.112 0-3.838-2.257-3.838-5.009 0-2.755 1.726-5.008 3.838-5.008h81.793c2.112 0 3.838 2.253 3.838 5.008 0 2.752-1.726 5.009-3.838 5.009z" opacity=".58"/>
</g>
<g id="a10">
  <path d="M175.26 105c0 56.886-31.459 103-70.26 103-38.804 0-70.26-46.114-70.26-103S66.196 2 105 2c38.801 0 70.26 46.114 70.26 103z"/>
  <path fill="#fefeff" d="M141.403 143.244H68.596c-1.88 0-3.417-2.253-3.417-5.008 0-2.756 1.537-5.009 3.417-5.009h72.807c1.88 0 3.417 2.253 3.417 5.009 0 2.755-1.537 5.008-3.417 5.008z" opacity=".5"/>
  <path fill="#fefeff" d="M141.403 110.009l-72.807-.001c-1.88.001-3.417-2.252-3.417-5.008 0-2.756 1.537-5.008 3.417-5.008l72.807-.001c1.88.001 3.417 2.253 3.417 5.009 0 2.756-1.537 5.008-3.417 5.008z" opacity=".5"/>
  <path fill="#fefeff" d="M141.403 76.773H68.596c-1.88 0-3.417-2.257-3.417-5.009 0-2.755 1.537-5.008 3.417-5.008h72.807c1.88 0 3.417 2.253 3.417 5.008 0 2.752-1.537 5.009-3.417 5.009z" opacity=".5"/>
</g>
<g id="a11">
  <path d="M164.585 105c0 56.886-26.679 103-59.585 103-32.908 0-59.585-46.114-59.585-103S72.092 2 105 2c32.906 0 59.585 46.114 59.585 103z"/>
  <path fill="#fefeff" d="M135.873 143.244H74.127c-1.594 0-2.897-2.253-2.897-5.008 0-2.756 1.303-5.009 2.897-5.009h61.746c1.594 0 2.897 2.253 2.897 5.009 0 2.755-1.303 5.008-2.897 5.008z" opacity=".42"/>
  <path fill="#fefeff" d="M135.873 110.009l-61.746-.001c-1.594.001-2.897-2.252-2.897-5.008 0-2.756 1.303-5.008 2.897-5.008l61.746-.001c1.594.001 2.897 2.253 2.897 5.009 0 2.756-1.303 5.008-2.897 5.008z" opacity=".42"/>
  <path fill="#fefeff" d="M135.873 76.773H74.127c-1.594 0-2.897-2.257-2.897-5.009 0-2.755 1.303-5.008 2.897-5.008h61.746c1.594 0 2.897 2.253 2.897 5.008 0 2.752-1.303 5.009-2.897 5.009z" opacity=".42"/>
</g>
<g id="a12">
  <path d="M152.544 105c0 56.886-21.287 103-47.543 103-26.258 0-47.544-46.114-47.544-103S78.743 2 105.001 2c26.256 0 47.543 46.114 47.543 103z"/>
  <path fill="#fefeff" d="M129.634 143.244H80.366c-1.272 0-2.311-2.253-2.311-5.008 0-2.756 1.039-5.009 2.311-5.009h49.268c1.272 0 2.312 2.253 2.312 5.009 0 2.755-1.04 5.008-2.312 5.008z" opacity=".33"/>
  <path fill="#fefeff" d="M129.634 110.009l-49.268-.001c-1.272.001-2.311-2.252-2.311-5.008 0-2.756 1.039-5.008 2.311-5.008l49.268-.001c1.272.001 2.312 2.253 2.312 5.009 0 2.756-1.04 5.008-2.312 5.008z" opacity=".33"/>
  <path fill="#fefeff" d="M129.634 76.773H80.366c-1.272 0-2.311-2.257-2.311-5.009 0-2.755 1.039-5.008 2.311-5.008h49.268c1.272 0 2.312 2.253 2.312 5.008 0 2.752-1.04 5.009-2.312 5.009z" opacity=".33"/>
</g>
<g id="a13">
  <path d="M140.817 105c0 56.886-16.037 103-35.818 103-19.782 0-35.818-46.114-35.818-103S85.217 2 104.999 2c19.781 0 35.818 46.114 35.818 103z"/>
  <path fill="#fefeff" d="M123.557 143.244H86.441c-.959 0-1.742-2.253-1.742-5.008 0-2.756.783-5.009 1.742-5.009h37.116c.959 0 1.742 2.253 1.742 5.009 0 2.755-.783 5.008-1.742 5.008z" opacity=".25"/>
  <path fill="#fefeff" d="M123.557 110.009l-37.116-.001c-.959.001-1.742-2.252-1.742-5.008 0-2.756.783-5.008 1.742-5.008l37.116-.001c.959.001 1.742 2.253 1.742 5.009 0 2.756-.783 5.008-1.742 5.008z" opacity=".25"/>
  <path fill="#fefeff" d="M123.557 76.773H86.441c-.959 0-1.742-2.257-1.742-5.009 0-2.755.783-5.008 1.742-5.008h37.116c.959 0 1.742 2.253 1.742 5.008 0 2.752-.783 5.009-1.742 5.009z" opacity=".25"/>
</g>
<g id="a14">
  <path d="M131.659 105c0 56.886-11.936 103-26.658 103-14.724 0-26.659-46.114-26.659-103S90.277 2 105.001 2c14.722 0 26.658 46.114 26.658 103z"/>
  <path fill="#fefeff" d="M118.813 143.244H91.188c-.713 0-1.296-2.253-1.296-5.008 0-2.756.583-5.009 1.296-5.009h27.625c.713 0 1.296 2.253 1.296 5.009 0 2.755-.583 5.008-1.296 5.008z" opacity=".17"/>
  <path fill="#fefeff" d="M118.813 110.009l-27.625-.001c-.713.001-1.296-2.252-1.296-5.008 0-2.756.583-5.008 1.296-5.008l27.625-.001c.713.001 1.296 2.253 1.296 5.009 0 2.756-.583 5.008-1.296 5.008z" opacity=".17"/>
  <path fill="#fefeff" d="M118.813 76.773H91.188c-.713 0-1.296-2.257-1.296-5.009 0-2.755.583-5.008 1.296-5.008h27.625c.713 0 1.296 2.253 1.296 5.008 0 2.752-.583 5.009-1.296 5.009z" opacity=".17"/>
</g>
<g id="a15">
  <path d="M114.998 105c0 56.886-4.477 103-9.999 103-5.521 0-9.998-46.114-9.998-103S99.478 2 104.999 2c5.522 0 9.999 46.114 9.999 103z"/>
  <path fill="#fefeff" d="M110.18 143.244H99.819c-.267 0-.486-2.253-.486-5.008 0-2.756.219-5.009.486-5.009h10.361c.267 0 .486 2.253.486 5.009 0 2.755-.219 5.008-.486 5.008z" opacity=".08"/>
  <path fill="#fefeff" d="M110.18 110.009l-10.361-.001c-.267.001-.486-2.252-.486-5.008 0-2.756.219-5.008.486-5.008l10.361-.001c.267.001.486 2.253.486 5.009 0 2.756-.219 5.008-.486 5.008z" opacity=".08"/>
  <path fill="#fefeff" d="M110.18 76.773H99.819c-.267 0-.486-2.257-.486-5.009 0-2.755.219-5.008.486-5.008h10.361c.267 0 .486 2.253.486 5.008 0 2.752-.219 5.009-.486 5.009z" opacity=".08"/>
</g>
<path id="a16" d="M95.111 105c0 56.886 4.427 103 9.886 103 5.46 0 9.887-46.114 9.887-103S110.458 2 104.997 2c-5.459 0-9.886 46.114-9.886 103z"/>
<g id="a17">
  <path d="M78.342 105c0 56.886 11.936 103 26.659 103 14.723 0 26.658-46.114 26.658-103S119.724 2 105.001 2 78.342 48.114 78.342 105z"/>
  <path fill="#fefeff" d="M115.822 29.678c-1.666 0-2.937 4.8-2.937 11.239 0 6.326 1.271 11.126 2.937 11.126 1.665 0 2.935-4.8 2.935-11.126 0-6.439-1.27-11.239-2.935-11.239z" opacity=".07"/>
  <path fill="#fefeff" d="M110.355 119.775l-6.693-1.552c-2.589-.69-3.572-3.105-3.572-7.587 0-2.415.357-4.826 1.25-7.068 1.339 1.897 2.901 2.928 4.553 2.928 5.488 0 9.459-12.757 9.459-28.965 0-8.002-.929-14.887-2.488-19.953l.004-.008c-.248-.81-.505-1.545-.768-2.216-.003-.004-.004-.011-.007-.019-.474-1.211-.966-2.216-1.457-3.045-.018-.03-.039-.071-.058-.105l-.026-.034c-2.5-4.11-4.965-3.757-4.965-3.757v.004c-.018 0-.033-.004-.052-.004-5.445 0-9.55 12.585-9.55 29.137 0 10.519 1.651 19.14 4.239 24.139-2.631 5.003-4.06 10.864-4.06 19.485 0 7.241 1.205 13.451 3.613 16.898-3.123 2.242-5.042 7.586-5.042 16.552 0 10.515 3.437 20.003 10.175 20.003 7.498 0 13.165-14.832 13.165-33.278 0-12.761-2.632-20.347-7.72-21.555z" opacity=".07"/>
  <path d="M105.624 167.018c-3.97 0-6.247-6.548-6.247-15.69 0-4.83.625-9.312 1.651-11.723.669.518 1.428 1.035 2.23 1.204l5.982 1.552c2.588.694 3.569 3.45 3.569 8.277 0 10.518-2.811 16.38-7.185 16.38z"/>
  <path d="M104.955 54.945c2.32 0 4.328 12.071 4.328 27.413 0 11.381-1.115 17.591-2.855 17.591-2.277 0-4.285-11.381-4.285-26.899 0-11.722 1.115-18.105 2.812-18.105z"/>
</g>
<g id="a18">
  <path d="M67.921 105c0 56.886 16.602 103 37.079 103 20.478 0 37.078-46.114 37.078-103S125.478 2 105 2C84.523 2 67.921 48.114 67.921 105z"/>
  <path fill="#fefeff" d="M119.641 29.678c-2.318 0-4.085 4.8-4.085 11.239 0 6.326 1.767 11.126 4.085 11.126 2.315 0 4.083-4.8 4.083-11.126 0-6.439-1.768-11.239-4.083-11.239z" opacity=".13"/>
  <path fill="#fefeff" d="M112.037 119.775l-9.31-1.552c-3.6-.69-4.967-3.105-4.967-7.587 0-2.415.496-4.826 1.738-7.068 1.862 1.897 4.035 2.928 6.333 2.928 7.632 0 13.156-12.757 13.156-28.965 0-8.002-1.291-14.887-3.461-19.953l.006-.008c-.345-.81-.702-1.545-1.068-2.216-.004-.004-.006-.011-.01-.019-.658-1.211-1.343-2.216-2.026-3.045-.026-.03-.054-.071-.081-.105l-.036-.034c-3.478-4.11-6.905-3.757-6.905-3.757v.004c-.026 0-.046-.004-.073-.004-7.573 0-13.282 12.585-13.282 29.137 0 10.519 2.296 19.14 5.895 24.139-3.66 5.003-5.647 10.864-5.647 19.485 0 7.241 1.675 13.451 5.026 16.898-4.344 2.242-7.013 7.586-7.013 16.552 0 10.515 4.78 20.003 14.151 20.003 10.429 0 18.311-14.832 18.311-33.278 0-12.761-3.661-20.347-10.737-21.555z" opacity=".13"/>
  <path d="M105.457 167.018c-5.523 0-8.69-6.548-8.69-15.69 0-4.83.87-9.312 2.297-11.723.931.518 1.987 1.035 3.102 1.204l8.319 1.552c3.601.694 4.966 3.45 4.966 8.277 0 10.518-3.911 16.38-9.994 16.38z"/>
  <path d="M104.527 54.945c3.226 0 6.019 12.071 6.019 27.413 0 11.381-1.551 17.591-3.971 17.591-3.167 0-5.96-11.381-5.96-26.899 0-11.722 1.551-18.105 3.912-18.105z"/>
</g>
<g id="a19">
  <path d="M53.017 105c0 56.886 23.275 103 51.984 103 28.71 0 51.983-46.114 51.983-103S133.711 2 105.001 2C76.292 2 53.017 48.114 53.017 105z"/>
  <path fill="#fefeff" d="M125.082 29.678c-3.249 0-5.727 4.8-5.727 11.239 0 6.326 2.478 11.126 5.727 11.126 3.246 0 5.724-4.8 5.724-11.126 0-6.439-2.478-11.239-5.724-11.239z" opacity=".2"/>
  <path fill="#fefeff" d="M114.421 119.775l-13.052-1.552c-5.047-.69-6.964-3.105-6.964-7.587 0-2.415.696-4.826 2.437-7.068 2.61 1.897 5.657 2.928 8.878 2.928 10.701 0 18.446-12.757 18.446-28.965 0-8.002-1.812-14.887-4.853-19.953l.008-.008c-.483-.81-.985-1.545-1.497-2.216-.006-.004-.008-.011-.014-.019-.923-1.211-1.883-2.216-2.84-3.045-.036-.03-.076-.071-.114-.105l-.051-.034c-4.875-4.11-9.681-3.757-9.681-3.757v.004c-.036 0-.064-.004-.102-.004-10.617 0-18.621 12.585-18.621 29.137 0 10.519 3.219 19.14 8.265 24.139-5.131 5.003-7.917 10.864-7.917 19.485 0 7.241 2.349 13.451 7.046 16.898-6.09 2.242-9.832 7.586-9.832 16.552 0 10.515 6.702 20.003 19.84 20.003 14.621 0 25.671-14.832 25.671-33.278 0-12.761-5.132-20.347-15.053-21.555z" opacity=".2"/>
  <path d="M105.196 167.018c-7.743 0-12.183-6.548-12.183-15.69 0-4.83 1.219-9.312 3.22-11.723 1.306.518 2.786 1.035 4.349 1.204l11.664 1.552c5.048.694 6.961 3.45 6.961 8.277 0 10.518-5.483 16.38-14.011 16.38z"/>
  <path d="M103.892 54.945c4.523 0 8.439 12.071 8.439 27.413 0 11.381-2.174 17.591-5.568 17.591-4.44 0-8.356-11.381-8.356-26.899 0-11.722 2.175-18.105 5.485-18.105z"/>
</g>
<g id="a20">
  <path d="M38.192 105c0 56.886 29.913 103 66.808 103 36.897 0 66.808-46.114 66.808-103S141.897 2 105 2C68.105 2 38.192 48.114 38.192 105z"/>
  <path fill="#fefeff" d="M130.46 29.678c-4.176 0-7.36 4.8-7.36 11.239 0 6.326 3.184 11.126 7.36 11.126 4.172 0 7.356-4.8 7.356-11.126 0-6.439-3.184-11.239-7.356-11.239z" opacity=".27"/>
  <path fill="#fefeff" d="M116.758 119.775l-16.773-1.552c-6.487-.69-8.951-3.105-8.951-7.587 0-2.415.895-4.826 3.133-7.068 3.354 1.897 7.27 2.928 11.41 2.928 13.752 0 23.705-12.757 23.705-28.965 0-8.002-2.328-14.887-6.236-19.953l.009-.008c-.62-.81-1.264-1.545-1.924-2.216-.007-.004-.009-.011-.017-.019-1.187-1.211-2.42-2.216-3.651-3.045-.046-.03-.097-.071-.146-.105l-.065-.034c-6.266-4.11-12.442-3.757-12.442-3.757v.004c-.046 0-.082-.004-.131-.004-13.645 0-23.932 12.585-23.932 29.137 0 10.519 4.138 19.14 10.622 24.139-6.594 5.003-10.174 10.864-10.174 19.485 0 7.241 3.019 13.451 9.056 16.898-7.828 2.242-12.636 7.586-12.636 16.552 0 10.515 8.612 20.003 25.498 20.003 18.789 0 32.992-14.832 32.992-33.278 0-12.761-6.597-20.347-19.347-21.555z" opacity=".27"/>
  <path d="M104.903 167.018c-9.951 0-15.657-6.548-15.657-15.69 0-4.83 1.566-9.312 4.137-11.723 1.679.518 3.581 1.035 5.59 1.204l14.99 1.552c6.487.694 8.946 3.45 8.946 8.277 0 10.518-7.046 16.38-18.006 16.38z"/>
  <path d="M103.227 54.945c5.813 0 10.846 12.071 10.846 27.413 0 11.381-2.795 17.591-7.156 17.591-5.706 0-10.739-11.381-10.739-26.899 0-11.722 2.795-18.105 7.049-18.105z"/>
</g>
<g id="a21">
  <path d="M26.724 105c0 56.886 35.048 103 78.276 103 43.231 0 78.275-46.114 78.275-103S148.231 2 105 2C61.772 2 26.724 48.114 26.724 105z"/>
  <path fill="#fefeff" d="M134.59 29.678c-4.893 0-8.623 4.8-8.623 11.239 0 6.326 3.73 11.126 8.623 11.126 4.888 0 8.618-4.8 8.618-11.126 0-6.439-3.73-11.239-8.618-11.239z" opacity=".33"/>
  <path fill="#fefeff" d="M118.536 119.775l-19.652-1.552c-7.601-.69-10.488-3.105-10.488-7.587 0-2.415 1.049-4.826 3.671-7.068 3.93 1.897 8.518 2.928 13.369 2.928 16.112 0 27.774-12.757 27.774-28.965 0-8.002-2.727-14.887-7.307-19.953l.011-.008c-.726-.81-1.482-1.545-2.254-2.216-.008-.004-.011-.011-.02-.019-1.391-1.211-2.835-2.216-4.277-3.045-.055-.03-.114-.071-.171-.105l-.077-.034c-7.341-4.11-14.577-3.757-14.577-3.757v.004c-.054 0-.097-.004-.154-.004-15.988 0-28.04 12.585-28.04 29.137 0 10.519 4.848 19.14 12.446 24.139-7.726 5.003-11.921 10.864-11.921 19.485 0 7.241 3.536 13.451 10.61 16.898-9.171 2.242-14.805 7.586-14.805 16.552 0 10.515 10.091 20.003 29.875 20.003 22.015 0 38.655-14.832 38.655-33.278 0-12.761-7.729-20.347-22.668-21.555z" opacity=".33"/>
  <path d="M104.646 167.018c-11.659 0-18.344-6.548-18.344-15.69 0-4.83 1.835-9.312 4.847-11.723 1.967.518 4.195 1.035 6.549 1.204l17.564 1.552c7.6.694 10.481 3.45 10.481 8.277 0 10.518-8.256 16.38-21.097 16.38z"/>
  <path d="M102.683 54.945c6.811 0 12.707 12.071 12.707 27.413 0 11.381-3.275 17.591-8.384 17.591-6.686 0-12.582-11.381-12.582-26.899 0-11.722 3.274-18.105 8.259-18.105z"/>
</g>
<g id="a22">
  <path d="M18.697 105c0 56.886 38.642 103 86.303 103 47.664 0 86.303-46.114 86.303-103S152.664 2 105 2C57.339 2 18.697 48.114 18.697 105z"/>
  <path fill="#fefeff" d="M137.452 29.678c-5.395 0-9.508 4.8-9.508 11.239 0 6.326 4.113 11.126 9.508 11.126 5.388 0 9.501-4.8 9.501-11.126 0-6.439-4.113-11.239-9.501-11.239z" opacity=".4"/>
  <path fill="#fefeff" d="M119.751 119.775l-21.668-1.552c-8.38-.69-11.563-3.105-11.563-7.587 0-2.415 1.157-4.826 4.047-7.068 4.333 1.897 9.392 2.928 14.74 2.928 17.765 0 30.623-12.757 30.623-28.965 0-8.002-3.007-14.887-8.056-19.953l.012-.008c-.801-.81-1.634-1.545-2.485-2.216-.01-.004-.013-.011-.022-.019-1.534-1.211-3.127-2.216-4.717-3.045-.059-.03-.125-.071-.188-.105l-.085-.034c-8.094-4.11-16.072-3.757-16.072-3.757v.004c-.059 0-.107-.004-.169-.004-17.628 0-30.916 12.585-30.916 29.137 0 10.519 5.345 19.14 13.722 24.139-8.518 5.003-13.143 10.864-13.143 19.485 0 7.241 3.899 13.451 11.698 16.898-10.112 2.242-16.324 7.586-16.324 16.552 0 10.515 11.127 20.003 32.939 20.003 24.273 0 42.619-14.832 42.619-33.278 0-12.761-8.521-20.347-24.992-21.555z" opacity=".4"/>
  <path d="M104.437 167.018c-12.855 0-20.226-6.548-20.226-15.69 0-4.83 2.023-9.312 5.345-11.723 2.168.518 4.625 1.035 7.22 1.204l19.365 1.552c8.38.694 11.557 3.45 11.557 8.277 0 10.518-9.103 16.38-23.261 16.38z"/>
  <path d="M102.272 54.945c7.509 0 14.01 12.071 14.01 27.413 0 11.381-3.61 17.591-9.244 17.591-7.371 0-13.872-11.381-13.872-26.899 0-11.722 3.61-18.105 9.106-18.105z"/>
</g>
<g id="a23">
  <path d="M13.217 105c0 56.886 41.095 103 91.783 103 50.69 0 91.783-46.114 91.783-103S155.691 2 105 2C54.312 2 13.217 48.114 13.217 105z"/>
  <path fill="#fefeff" d="M139.388 29.678c-5.737 0-10.111 4.8-10.111 11.239 0 6.326 4.374 11.126 10.111 11.126 5.731 0 10.105-4.8 10.105-11.126 0-6.439-4.374-11.239-10.105-11.239z" opacity=".47"/>
  <path fill="#fefeff" d="M120.564 119.775l-23.044-1.552c-8.912-.69-12.297-3.105-12.297-7.587 0-2.415 1.23-4.826 4.304-7.068 4.608 1.897 9.988 2.928 15.676 2.928 18.893 0 32.567-12.757 32.567-28.965 0-8.002-3.198-14.887-8.568-19.953l.013-.008c-.852-.81-1.737-1.545-2.643-2.216-.01-.004-.013-.011-.023-.019-1.631-1.211-3.325-2.216-5.016-3.045-.064-.03-.134-.071-.201-.105l-.09-.034c-8.608-4.11-17.092-3.757-17.092-3.757v.004c-.064 0-.114-.004-.18-.004-18.747 0-32.879 12.585-32.879 29.137 0 10.519 5.685 19.14 14.593 24.139-9.059 5.003-13.978 10.864-13.978 19.485 0 7.241 4.147 13.451 12.441 16.898-10.753 2.242-17.359 7.586-17.359 16.552 0 10.515 11.832 20.003 35.03 20.003 25.813 0 45.325-14.832 45.325-33.278 0-12.761-9.062-20.347-26.579-21.555z" opacity=".47"/>
  <path d="M104.277 167.018c-13.671 0-21.51-6.548-21.51-15.69 0-4.83 2.152-9.312 5.684-11.723 2.306.518 4.919 1.035 7.679 1.204l20.594 1.552c8.912.694 12.291 3.45 12.291 8.277 0 10.518-9.681 16.38-24.738 16.38z"/>
  <path d="M101.975 54.945c7.986 0 14.9 12.071 14.9 27.413 0 11.381-3.84 17.591-9.831 17.591-7.84 0-14.753-11.381-14.753-26.899 0-11.722 3.839-18.105 9.684-18.105z"/>
</g>
<g id="a24">
  <path d="M9.489 105c0 56.886 42.765 103 95.511 103 52.751 0 95.512-46.114 95.512-103S157.75 2 105 2C52.253 2 9.489 48.114 9.489 105z"/>
  <path fill="#fefeff" d="M140.687 29.678c-5.971 0-10.523 4.8-10.523 11.239 0 6.326 4.552 11.126 10.523 11.126 5.964 0 10.516-4.8 10.516-11.126 0-6.439-4.552-11.239-10.516-11.239z" opacity=".53"/>
  <path fill="#fefeff" d="M121.098 119.775l-23.98-1.552c-9.274-.69-12.797-3.105-12.797-7.587 0-2.415 1.28-4.826 4.479-7.068 4.795 1.897 10.394 2.928 16.312 2.928 19.661 0 33.891-12.757 33.891-28.965 0-8.002-3.328-14.887-8.916-19.953l.014-.008c-.887-.81-1.809-1.545-2.751-2.216-.01-.004-.014-.011-.024-.019-1.697-1.211-3.46-2.216-5.22-3.045-.066-.03-.139-.071-.208-.105l-.094-.034c-8.958-4.11-17.787-3.757-17.787-3.757v.004c-.066 0-.118-.004-.188-.004-19.508 0-34.214 12.585-34.214 29.137 0 10.519 5.915 19.14 15.186 24.139-9.427 5.003-14.546 10.864-14.546 19.485 0 7.241 4.316 13.451 12.946 16.898-11.19 2.242-18.065 7.586-18.065 16.552 0 10.515 12.314 20.003 36.454 20.003 26.862 0 47.167-14.832 47.167-33.278 0-12.761-9.431-20.347-27.659-21.555z" opacity=".53"/>
  <path d="M104.149 167.018c-14.226 0-22.384-6.548-22.384-15.69 0-4.83 2.24-9.312 5.915-11.723 2.4.518 5.119 1.035 7.991 1.204l21.431 1.552c9.274.694 12.79 3.45 12.79 8.277 0 10.518-10.074 16.38-25.743 16.38z"/>
  <path d="M101.753 54.945c8.311 0 15.506 12.071 15.506 27.413 0 11.381-3.996 17.591-10.231 17.591-8.158 0-15.352-11.381-15.352-26.899 0-11.722 3.995-18.105 10.077-18.105z"/>
</g>
<g id="a25">
  <path d="M6.95 105c0 56.886 43.901 103 98.05 103 54.153 0 98.051-46.114 98.051-103S159.153 2 105 2C50.851 2 6.95 48.114 6.95 105z"/>
  <path fill="#fefeff" d="M141.555 29.678c-6.129 0-10.802 4.8-10.802 11.239 0 6.326 4.673 11.126 10.802 11.126 6.122 0 10.795-4.8 10.795-11.126 0-6.439-4.673-11.239-10.795-11.239z" opacity=".6"/>
  <path fill="#fefeff" d="M121.445 119.775l-24.617-1.552c-9.521-.69-13.137-3.105-13.137-7.587 0-2.415 1.314-4.826 4.598-7.068 4.923 1.897 10.67 2.928 16.746 2.928 20.184 0 34.791-12.757 34.791-28.965 0-8.002-3.416-14.887-9.153-19.953l.014-.008c-.91-.81-1.856-1.545-2.823-2.216-.011-.004-.015-.011-.025-.019-1.742-1.211-3.552-2.216-5.359-3.045-.067-.03-.142-.071-.214-.105l-.096-.034c-9.196-4.11-18.26-3.757-18.26-3.757v.004c-.067 0-.121-.004-.192-.004-20.027 0-35.124 12.585-35.124 29.137 0 10.519 6.073 19.14 15.59 24.139-9.678 5.003-14.933 10.864-14.933 19.485 0 7.241 4.43 13.451 13.291 16.898-11.488 2.242-18.546 7.586-18.546 16.552 0 10.515 12.641 20.003 37.423 20.003 27.576 0 48.42-14.832 48.42-33.278 0-12.761-9.681-20.347-28.394-21.555z" opacity=".6"/>
  <path d="M104.046 167.018c-14.604 0-22.979-6.548-22.979-15.69 0-4.83 2.299-9.312 6.072-11.723 2.464.518 5.255 1.035 8.204 1.204l22.001 1.552c9.52.694 13.129 3.45 13.129 8.277 0 10.518-10.341 16.38-26.427 16.38z"/>
  <path d="M101.586 54.945c8.532 0 15.918 12.071 15.918 27.413 0 11.381-4.102 17.591-10.502 17.591-8.375 0-15.761-11.381-15.761-26.899 0-11.722 4.102-18.105 10.345-18.105z"/>
</g>
<g id="a26">
  <path d="M5.224 105c0 56.886 44.674 103 99.776 103 55.105 0 99.776-46.114 99.776-103S160.105 2 105 2C49.898 2 5.224 48.114 5.224 105z"/>
  <path fill="#fefeff" d="M142.138 29.678c-6.238 0-10.993 4.8-10.993 11.239 0 6.326 4.755 11.126 10.993 11.126 6.229 0 10.985-4.8 10.985-11.126 0-6.439-4.756-11.239-10.985-11.239z" opacity=".67"/>
  <path fill="#fefeff" d="M121.674 119.775l-25.051-1.552c-9.688-.69-13.368-3.105-13.368-7.587 0-2.415 1.337-4.826 4.679-7.068 5.009 1.897 10.858 2.928 17.041 2.928 20.538 0 35.403-12.757 35.403-28.965 0-8.002-3.476-14.887-9.314-19.953l.015-.008c-.927-.81-1.889-1.545-2.874-2.216-.011-.004-.014-.011-.025-.019-1.773-1.211-3.615-2.216-5.453-3.045-.069-.03-.145-.071-.218-.105l-.098-.034c-9.357-4.11-18.581-3.757-18.581-3.757v.004c-.069 0-.123-.004-.196-.004-20.379 0-35.741 12.585-35.741 29.137 0 10.519 6.179 19.14 15.864 24.139-9.848 5.003-15.196 10.864-15.196 19.485 0 7.241 4.508 13.451 13.525 16.898-11.69 2.242-18.872 7.586-18.872 16.552 0 10.515 12.863 20.003 38.081 20.003 28.062 0 49.273-14.832 49.273-33.278 0-12.761-9.852-20.347-28.894-21.555z" opacity=".67"/>
  <path d="M103.968 167.018c-14.861 0-23.383-6.548-23.383-15.69 0-4.83 2.34-9.312 6.179-11.723 2.507.518 5.348 1.035 8.348 1.204l22.388 1.552c9.688.694 13.361 3.45 13.361 8.277 0 10.518-10.524 16.38-26.893 16.38z"/>
  <path d="M101.466 54.945c8.681 0 16.197 12.071 16.197 27.413 0 11.381-4.174 17.591-10.687 17.591-8.522 0-16.038-11.381-16.038-26.899 0-11.722 4.174-18.105 10.528-18.105z"/>
</g>
<g id="a27">
  <path d="M4.059 105c0 56.886 45.196 103 100.941 103 55.749 0 100.941-46.114 100.941-103S160.749 2 105 2C49.255 2 4.059 48.114 4.059 105z"/>
  <path fill="#fefeff" d="M142.52 29.678c-6.31 0-11.121 4.8-11.121 11.239 0 6.326 4.811 11.126 11.121 11.126 6.303 0 11.113-4.8 11.113-11.126 0-6.439-4.81-11.239-11.113-11.239z" opacity=".73"/>
  <path fill="#fefeff" d="M121.817 119.775l-25.343-1.552c-9.801-.69-13.524-3.105-13.524-7.587 0-2.415 1.352-4.826 4.733-7.068 5.068 1.897 10.985 2.928 17.24 2.928 20.779 0 35.817-12.757 35.817-28.965 0-8.002-3.517-14.887-9.423-19.953l.015-.008c-.937-.81-1.911-1.545-2.907-2.216-.011-.004-.015-.011-.026-.019-1.793-1.211-3.657-2.216-5.516-3.045-.07-.03-.147-.071-.221-.105l-.099-.034c-9.467-4.11-18.798-3.757-18.798-3.757v.004c-.069 0-.125-.004-.198-.004-20.617 0-36.159 12.585-36.159 29.137 0 10.519 6.252 19.14 16.049 24.139-9.963 5.003-15.372 10.864-15.372 19.485 0 7.241 4.56 13.451 13.682 16.898-11.827 2.242-19.092 7.586-19.092 16.552 0 10.515 13.013 20.003 38.525 20.003 28.39 0 49.848-14.832 49.848-33.278 0-12.761-9.966-20.347-29.231-21.555z" opacity=".73"/>
  <path d="M103.905 167.018c-15.034 0-23.656-6.548-23.656-15.69 0-4.83 2.367-9.312 6.251-11.723 2.536.518 5.41 1.035 8.445 1.204l22.65 1.552c9.801.694 13.516 3.45 13.516 8.277 0 10.518-10.646 16.38-27.206 16.38z"/>
  <path d="M101.373 54.945c8.783 0 16.387 12.071 16.387 27.413 0 11.381-4.223 17.591-10.812 17.591-8.622 0-16.225-11.381-16.225-26.899 0-11.722 4.222-18.105 10.65-18.105z"/>
</g>
<g id="a28">
  <path d="M3.281 105c0 56.886 45.544 103 101.719 103 56.179 0 101.719-46.114 101.719-103S161.179 2 105 2C48.825 2 3.281 48.114 3.281 105z"/>
  <path fill="#fefeff" d="M142.763 29.678c-6.359 0-11.207 4.8-11.207 11.239 0 6.326 4.848 11.126 11.207 11.126 6.351 0 11.199-4.8 11.199-11.126 0-6.439-4.848-11.239-11.199-11.239z" opacity=".8"/>
  <path fill="#fefeff" d="M121.9 119.775l-25.538-1.552c-9.877-.69-13.628-3.105-13.628-7.587 0-2.415 1.362-4.826 4.77-7.068 5.107 1.897 11.069 2.928 17.372 2.928 20.939 0 36.093-12.757 36.093-28.965 0-8.002-3.544-14.887-9.495-19.953l.014-.008c-.944-.81-1.925-1.545-2.929-2.216-.011-.004-.015-.011-.026-.019-1.807-1.211-3.685-2.216-5.559-3.045-.07-.03-.148-.071-.222-.105l-.1-.034c-9.54-4.11-18.943-3.757-18.943-3.757v.004c-.07 0-.125-.004-.199-.004-20.776 0-36.438 12.585-36.438 29.137 0 10.519 6.3 19.14 16.173 24.139-10.04 5.003-15.491 10.864-15.491 19.485 0 7.241 4.595 13.451 13.787 16.898-11.917 2.242-19.239 7.586-19.239 16.552 0 10.515 13.114 20.003 38.823 20.003 28.608 0 50.232-14.832 50.232-33.278 0-12.761-10.044-20.347-29.457-21.555z" opacity=".8"/>
  <path d="M103.85 167.018c-15.15 0-23.838-6.548-23.838-15.69 0-4.83 2.385-9.312 6.299-11.723 2.555.518 5.451 1.035 8.51 1.204l22.824 1.552c9.877.694 13.621 3.45 13.621 8.277 0 10.518-10.728 16.38-27.416 16.38z"/>
  <path d="M101.299 54.945c8.851 0 16.513 12.071 16.513 27.413 0 11.381-4.255 17.591-10.895 17.591-8.688 0-16.351-11.381-16.351-26.899 0-11.722 4.255-18.105 10.733-18.105z"/>
</g>
<g id="a29">
  <path d="M2.77 105c0 56.886 45.773 103 102.23 103 56.461 0 102.23-46.114 102.23-103S161.461 2 105 2C48.543 2 2.77 48.114 2.77 105z"/>
  <path fill="#fefeff" d="M142.918 29.678c-6.391 0-11.263 4.8-11.263 11.239 0 6.326 4.872 11.126 11.263 11.126 6.383 0 11.255-4.8 11.255-11.126 0-6.439-4.872-11.239-11.255-11.239z" opacity=".87"/>
  <path fill="#fefeff" d="M121.951 119.775l-25.667-1.552c-9.926-.69-13.697-3.105-13.697-7.587 0-2.415 1.37-4.826 4.794-7.068 5.133 1.897 11.125 2.928 17.46 2.928 21.044 0 36.274-12.757 36.274-28.965 0-8.002-3.562-14.887-9.543-19.953l.015-.008c-.949-.81-1.936-1.545-2.944-2.216-.011-.004-.015-.011-.026-.019-1.817-1.211-3.704-2.216-5.587-3.045-.071-.03-.149-.071-.223-.105l-.101-.034c-9.588-4.11-19.038-3.757-19.038-3.757v.004c-.07 0-.126-.004-.201-.004-20.88 0-36.62 12.585-36.62 29.137 0 10.519 6.331 19.14 16.254 24.139-10.09 5.003-15.569 10.864-15.569 19.485 0 7.241 4.619 13.451 13.857 16.898-11.978 2.242-19.336 7.586-19.336 16.552 0 10.515 13.18 20.003 39.017 20.003 28.753 0 50.485-14.832 50.485-33.278 0-12.761-10.094-20.347-29.604-21.555z" opacity=".87"/>
  <path d="M103.81 167.018c-15.227 0-23.958-6.548-23.958-15.69 0-4.83 2.396-9.312 6.331-11.723 2.568.518 5.478 1.035 8.553 1.204l22.938 1.552c9.927.694 13.689 3.45 13.689 8.277 0 10.518-10.782 16.38-27.553 16.38z"/>
  <path d="M101.245 54.945c8.896 0 16.597 12.071 16.597 27.413 0 11.381-4.277 17.591-10.95 17.591-8.732 0-16.433-11.381-16.433-26.899 0-11.722 4.277-18.105 10.786-18.105z"/>
</g>
<g id="a30">
  <path d="M2.443 105c0 56.886 45.919 103 102.557 103 56.641 0 102.557-46.114 102.557-103S161.641 2 105 2C48.362 2 2.443 48.114 2.443 105z"/>
  <path fill="#fefeff" d="M143.008 29.678c-6.411 0-11.298 4.8-11.298 11.239 0 6.326 4.887 11.126 11.298 11.126 6.404 0 11.291-4.8 11.291-11.126 0-6.439-4.887-11.239-11.291-11.239z" opacity=".93"/>
  <path fill="#fefeff" d="M121.974 119.775l-25.749-1.552c-9.958-.69-13.74-3.105-13.74-7.587 0-2.415 1.374-4.826 4.809-7.068 5.149 1.897 11.16 2.928 17.515 2.928 21.112 0 36.391-12.757 36.391-28.965 0-8.002-3.574-14.887-9.574-19.953l.015-.008c-.952-.81-1.942-1.545-2.954-2.216-.011-.004-.014-.011-.026-.019-1.822-1.211-3.715-2.216-5.604-3.045-.071-.03-.15-.071-.224-.105l-.101-.034c-9.618-4.11-19.099-3.757-19.099-3.757v.004c-.071 0-.127-.004-.201-.004-20.947 0-36.738 12.585-36.738 29.137 0 10.519 6.351 19.14 16.306 24.139-10.123 5.003-15.619 10.864-15.619 19.485 0 7.241 4.634 13.451 13.901 16.898-12.015 2.242-19.397 7.586-19.397 16.552 0 10.515 13.221 20.003 39.142 20.003 28.844 0 50.646-14.832 50.646-33.278 0-12.761-10.126-20.347-29.699-21.555z" opacity=".93"/>
  <path d="M103.775 167.018c-15.275 0-24.035-6.548-24.035-15.69 0-4.83 2.405-9.312 6.351-11.723 2.577.518 5.497 1.035 8.581 1.204l23.012 1.552c9.958.694 13.733 3.45 13.733 8.277 0 10.518-10.817 16.38-27.642 16.38z"/>
  <path d="M101.202 54.945c8.924 0 16.65 12.071 16.65 27.413 0 11.381-4.29 17.591-10.985 17.591-8.76 0-16.485-11.381-16.485-26.899 0-11.722 4.29-18.105 10.82-18.105z"/>
</g>
<g id="a31">
  <path d="M2.417 105c0 56.886 45.931 103 102.583 103 56.656 0 102.583-46.114 102.583-103S161.656 2 105 2C48.348 2 2.417 48.114 2.417 105z"/>
  <path fill="#fefeff" d="M142.836 29.678c-6.413 0-11.301 4.8-11.301 11.239 0 6.326 4.888 11.126 11.301 11.126 6.405 0 11.294-4.8 11.294-11.126 0-6.439-4.889-11.239-11.294-11.239z"/>
  <path fill="#fefeff" d="M121.797 119.775l-25.756-1.552c-9.961-.69-13.744-3.105-13.744-7.587 0-2.415 1.375-4.826 4.811-7.068 5.15 1.897 11.163 2.928 17.52 2.928 21.116 0 36.399-12.757 36.399-28.965 0-8.002-3.574-14.887-9.576-19.953l.015-.008c-.952-.81-1.942-1.545-2.954-2.216-.011-.004-.015-.011-.026-.019-1.823-1.211-3.717-2.216-5.606-3.045-.071-.03-.15-.071-.224-.105l-.101-.034c-9.621-4.11-19.104-3.757-19.104-3.757v.004c-.071 0-.127-.004-.202-.004-20.952 0-36.746 12.585-36.746 29.137 0 10.519 6.352 19.14 16.31 24.139-10.126 5.003-15.623 10.864-15.623 19.485 0 7.241 4.635 13.451 13.904 16.898-12.018 2.242-19.402 7.586-19.402 16.552 0 10.515 13.225 20.003 39.152 20.003 28.852 0 50.659-14.832 50.659-33.278 0-12.761-10.129-20.347-29.706-21.555z"/>
  <path d="M103.593 167.018c-15.279 0-24.041-6.548-24.041-15.69 0-4.83 2.405-9.312 6.353-11.723 2.577.518 5.498 1.035 8.583 1.204l23.017 1.552c9.961.694 13.737 3.45 13.737 8.277 0 10.518-10.82 16.38-27.649 16.38z"/>
  <path d="M101.02 54.945c8.926 0 16.653 12.071 16.653 27.413 0 11.381-4.291 17.591-10.988 17.591-8.761 0-16.489-11.381-16.489-26.899 0-11.722 4.292-18.105 10.824-18.105z"/>
</g>
<g id="a32">
  <path d="M2.777 105c0 56.886 45.77 103 102.223 103 56.457 0 102.223-46.114 102.223-103S161.457 2 105 2C48.547 2 2.777 48.114 2.777 105z"/>
  <path fill="#fefeff" d="M142.673 29.678c-6.39 0-11.262 4.8-11.262 11.239 0 6.326 4.872 11.126 11.262 11.126 6.382 0 11.254-4.8 11.254-11.126-.004-6.439-4.872-11.239-11.254-11.239z"/>
  <path fill="#fefeff" d="M121.707 119.775l-25.665-1.552c-9.926-.69-13.696-3.105-13.696-7.587 0-2.415 1.37-4.826 4.794-7.068 5.132 1.897 11.124 2.928 17.458 2.928 21.043 0 36.272-12.757 36.272-28.965 0-8.002-3.562-14.887-9.542-19.953l.014-.008c-.949-.81-1.935-1.545-2.943-2.216-.012-.004-.015-.011-.026-.019-1.817-1.211-3.704-2.216-5.587-3.045-.071-.03-.149-.071-.223-.105l-.101-.034c-9.587-4.11-19.036-3.757-19.036-3.757v.004c-.071 0-.127-.004-.201-.004-20.879 0-36.618 12.585-36.618 29.137 0 10.519 6.331 19.14 16.253 24.139-10.09 5.003-15.568 10.864-15.568 19.485 0 7.241 4.618 13.451 13.856 16.898-11.977 2.242-19.335 7.586-19.335 16.552 0 10.515 13.179 20.003 39.015 20.003 28.75 0 50.481-14.832 50.481-33.278-.003-12.761-10.097-20.347-29.602-21.555z"/>
  <path d="M103.564 167.018c-15.226 0-23.957-6.548-23.957-15.69 0-4.83 2.397-9.312 6.33-11.723 2.568.518 5.479 1.035 8.553 1.204l22.937 1.552c9.926.694 13.688 3.45 13.688 8.277.004 10.518-10.778 16.38-27.551 16.38z"/>
  <path d="M100.999 54.945c8.895 0 16.595 12.071 16.595 27.413 0 11.381-4.276 17.591-10.949 17.591-8.731 0-16.431-11.381-16.431-26.899.003-11.722 4.28-18.105 10.785-18.105z"/>
</g>
<g id="a33">
  <path d="M3.367 105c0 56.886 45.506 103 101.633 103 56.132 0 101.633-46.114 101.633-103S161.131 2 105 2C48.873 2 3.367 48.114 3.367 105z"/>
  <path fill="#fefeff" d="M142.412 29.678c-6.354 0-11.197 4.8-11.197 11.239 0 6.326 4.843 11.126 11.197 11.126 6.346 0 11.189-4.8 11.189-11.126 0-6.439-4.843-11.239-11.189-11.239z" opacity=".92"/>
  <path fill="#fefeff" d="M121.567 119.775l-25.517-1.552c-9.869-.69-13.617-3.105-13.617-7.587 0-2.415 1.362-4.826 4.766-7.068 5.103 1.897 11.06 2.928 17.358 2.928 20.921 0 36.062-12.757 36.062-28.965 0-8.002-3.541-14.887-9.487-19.953l.015-.008c-.944-.81-1.924-1.545-2.927-2.216-.011-.004-.015-.011-.026-.019-1.806-1.211-3.682-2.216-5.554-3.045-.07-.03-.148-.071-.222-.105l-.1-.034c-9.532-4.11-18.927-3.757-18.927-3.757v.004c-.07 0-.126-.004-.2-.004-20.758 0-36.406 12.585-36.406 29.137 0 10.519 6.294 19.14 16.159 24.139-10.032 5.003-15.478 10.864-15.478 19.485 0 7.241 4.592 13.451 13.776 16.898-11.908 2.242-19.223 7.586-19.223 16.552 0 10.515 13.102 20.003 38.79 20.003 28.584 0 50.19-14.832 50.19-33.278 0-12.761-10.035-20.347-29.432-21.555z" opacity=".92"/>
  <path d="M103.532 167.018c-15.138 0-23.819-6.548-23.819-15.69 0-4.83 2.383-9.312 6.295-11.723 2.553.518 5.446 1.035 8.503 1.204l22.804 1.552c9.869.694 13.61 3.45 13.61 8.277 0 10.518-10.72 16.38-27.393 16.38z"/>
  <path d="M100.982 54.945c8.844 0 16.5 12.071 16.5 27.413 0 11.381-4.252 17.591-10.886 17.591-8.681 0-16.337-11.381-16.337-26.899 0-11.722 4.252-18.105 10.723-18.105z"/>
</g>
<g id="a34">
  <path d="M4.304 105c0 56.886 45.086 103 100.696 103 55.614 0 100.696-46.114 100.696-103S160.614 2 105 2C49.39 2 4.304 48.114 4.304 105z"/>
  <path fill="#fefeff" d="M142.02 29.678c-6.295 0-11.094 4.8-11.094 11.239 0 6.326 4.799 11.126 11.094 11.126 6.287 0 11.086-4.8 11.086-11.126 0-6.439-4.799-11.239-11.086-11.239z" opacity=".85"/>
  <path fill="#fefeff" d="M121.367 119.775l-25.281-1.552c-9.778-.69-13.492-3.105-13.492-7.587 0-2.415 1.349-4.826 4.722-7.068 5.056 1.897 10.958 2.928 17.198 2.928 20.728 0 35.73-12.757 35.73-28.965 0-8.002-3.508-14.887-9.4-19.953l.015-.008c-.935-.81-1.907-1.545-2.9-2.216-.011-.004-.015-.011-.026-.019-1.789-1.211-3.648-2.216-5.503-3.045-.069-.03-.146-.071-.22-.105l-.099-.034c-9.443-4.11-18.752-3.757-18.752-3.757v.004c-.069 0-.124-.004-.198-.004-20.567 0-36.071 12.585-36.071 29.137 0 10.519 6.236 19.14 16.01 24.139-9.939 5.003-15.335 10.864-15.335 19.485 0 7.241 4.55 13.451 13.649 16.898-11.798 2.242-19.046 7.586-19.046 16.552 0 10.515 12.982 20.003 38.432 20.003 28.321 0 49.728-14.832 49.728-33.278 0-12.761-9.943-20.347-29.161-21.555z" opacity=".85"/>
  <path d="M103.499 167.018c-14.999 0-23.599-6.548-23.599-15.69 0-4.83 2.361-9.312 6.236-11.723 2.529.518 5.396 1.035 8.425 1.204l22.594 1.552c9.777.694 13.484 3.45 13.484 8.277 0 10.518-10.621 16.38-27.14 16.38z"/>
  <path d="M100.973 54.945c8.762 0 16.347 12.071 16.347 27.413 0 11.381-4.213 17.591-10.786 17.591-8.601 0-16.186-11.381-16.186-26.899 0-11.722 4.213-18.105 10.625-18.105z"/>
</g>
<g id="a35">
  <path d="M5.76 105c0 56.886 44.434 103 99.24 103 54.809 0 99.24-46.114 99.24-103S159.809 2 105 2C50.194 2 5.76 48.114 5.76 105z"/>
  <path fill="#fefeff" d="M141.422 29.678c-6.204 0-10.934 4.8-10.934 11.239 0 6.326 4.73 11.126 10.934 11.126 6.196 0 10.926-4.8 10.926-11.126 0-6.439-4.73-11.239-10.926-11.239z" opacity=".77"/>
  <path fill="#fefeff" d="M121.068 119.775l-24.916-1.552c-9.636-.69-13.296-3.105-13.296-7.587 0-2.415 1.329-4.826 4.653-7.068 4.983 1.897 10.8 2.928 16.949 2.928 20.429 0 35.214-12.757 35.214-28.965 0-8.002-3.458-14.887-9.264-19.953l.014-.008c-.921-.81-1.879-1.545-2.858-2.216-.011-.004-.014-.011-.025-.019-1.763-1.211-3.595-2.216-5.423-3.045-.069-.03-.145-.071-.217-.105l-.098-.034c-9.307-4.11-18.481-3.757-18.481-3.757v.004c-.068 0-.123-.004-.195-.004-20.269 0-35.549 12.585-35.549 29.137 0 10.519 6.146 19.14 15.778 24.139-9.795 5.003-15.113 10.864-15.113 19.485 0 7.241 4.484 13.451 13.451 16.898-11.627 2.242-18.77 7.586-18.77 16.552 0 10.515 12.794 20.003 37.876 20.003 27.912 0 49.008-14.832 49.008-33.278 0-12.761-9.798-20.347-28.738-21.555z" opacity=".77"/>
  <path d="M103.458 167.018c-14.782 0-23.258-6.548-23.258-15.69 0-4.83 2.327-9.312 6.146-11.723 2.493.518 5.318 1.035 8.303 1.204l22.267 1.552c9.637.694 13.289 3.45 13.289 8.277 0 10.518-10.467 16.38-26.747 16.38z"/>
  <path d="M100.968 54.945c8.635 0 16.111 12.071 16.111 27.413 0 11.381-4.151 17.591-10.63 17.591-8.476 0-15.952-11.381-15.952-26.899 0-11.722 4.152-18.105 10.471-18.105z"/>
</g>
<g id="a36">
  <path d="M7.991 105c0 56.886 43.435 103 97.009 103 53.578 0 97.01-46.114 97.01-103S158.578 2 105 2C51.426 2 7.991 48.114 7.991 105z"/>
  <path fill="#fefeff" d="M140.531 29.678c-6.064 0-10.687 4.8-10.687 11.239 0 6.326 4.623 11.126 10.687 11.126 6.058 0 10.681-4.8 10.681-11.126 0-6.439-4.623-11.239-10.681-11.239z" opacity=".69"/>
  <path fill="#fefeff" d="M120.635 119.775l-24.356-1.552c-9.42-.69-12.998-3.105-12.998-7.587 0-2.415 1.3-4.826 4.55-7.068 4.87 1.897 10.556 2.928 16.568 2.928 19.969 0 34.422-12.757 34.422-28.965 0-8.002-3.38-14.887-9.056-19.953l.014-.008c-.901-.81-1.837-1.545-2.794-2.216-.01-.004-.014-.011-.025-.019-1.723-1.211-3.514-2.216-5.301-3.045-.067-.03-.141-.071-.212-.105l-.095-.034c-9.098-4.11-18.066-3.757-18.066-3.757v.004c-.067 0-.12-.004-.191-.004-19.814 0-34.75 12.585-34.75 29.137 0 10.519 6.008 19.14 15.424 24.139-9.575 5.003-14.774 10.864-14.774 19.485 0 7.241 4.383 13.451 13.149 16.898-11.365 2.242-18.348 7.586-18.348 16.552 0 10.515 12.506 20.003 37.025 20.003 27.284 0 47.907-14.832 47.907-33.278 0-12.761-9.579-20.347-28.093-21.555z" opacity=".69"/>
  <path d="M103.42 167.018c-14.449 0-22.734-6.548-22.734-15.69 0-4.83 2.274-9.312 6.007-11.723 2.437.518 5.199 1.035 8.117 1.204l21.767 1.552c9.419.694 12.99 3.45 12.99 8.277 0 10.518-10.232 16.38-26.147 16.38z"/>
  <path d="M100.987 54.945c8.441 0 15.749 12.071 15.749 27.413 0 11.381-4.059 17.591-10.391 17.591-8.286 0-15.594-11.381-15.594-26.899 0-11.722 4.059-18.105 10.236-18.105z"/>
</g>
<g id="a37">
  <path d="M11.377 105c0 56.886 41.919 103 93.623 103 51.707 0 93.622-46.114 93.622-103S156.707 2 105 2C53.296 2 11.377 48.114 11.377 105z"/>
  <path fill="#fefeff" d="M139.195 29.678c-5.852 0-10.314 4.8-10.314 11.239 0 6.326 4.462 11.126 10.314 11.126 5.846 0 10.308-4.8 10.308-11.126 0-6.439-4.462-11.239-10.308-11.239z" opacity=".62"/>
  <path fill="#fefeff" d="M119.994 119.775l-23.506-1.552c-9.091-.69-12.544-3.105-12.544-7.587 0-2.415 1.255-4.826 4.391-7.068 4.7 1.897 10.188 2.928 15.989 2.928 19.273 0 33.221-12.757 33.221-28.965 0-8.002-3.263-14.887-8.74-19.953l.014-.008c-.87-.81-1.773-1.545-2.697-2.216-.01-.004-.013-.011-.024-.019-1.663-1.211-3.391-2.216-5.116-3.045-.065-.03-.136-.071-.204-.105l-.092-.034c-8.781-4.11-17.435-3.757-17.435-3.757v.004c-.065 0-.116-.004-.184-.004-19.123 0-33.537 12.585-33.537 29.137 0 10.519 5.798 19.14 14.885 24.139-9.241 5.003-14.258 10.864-14.258 19.485 0 7.241 4.23 13.451 12.69 16.898-10.969 2.242-17.708 7.586-17.708 16.552 0 10.515 12.07 20.003 35.733 20.003 26.331 0 46.234-14.832 46.234-33.278 0-12.761-9.244-20.347-27.112-21.555z" opacity=".62"/>
  <path d="M103.38 167.018c-13.944 0-21.941-6.548-21.941-15.69 0-4.83 2.195-9.312 5.798-11.723 2.352.518 5.018 1.035 7.833 1.204l21.007 1.552c9.091.694 12.537 3.45 12.537 8.277 0 10.518-9.875 16.38-25.234 16.38z"/>
  <path d="M101.032 54.945c8.146 0 15.199 12.071 15.199 27.413 0 11.381-3.917 17.591-10.028 17.591-7.997 0-15.049-11.381-15.049-26.899 0-11.722 3.916-18.105 9.878-18.105z"/>
</g>
<g id="a38">
  <path d="M16.496 105c0 56.886 39.627 103 88.504 103 48.88 0 88.504-46.114 88.504-103S153.88 2 105 2C56.123 2 16.496 48.114 16.496 105z"/>
  <path fill="#fefeff" d="M137.209 29.678c-5.532 0-9.75 4.8-9.75 11.239 0 6.326 4.218 11.126 9.75 11.126 5.527 0 9.744-4.8 9.744-11.126 0-6.439-4.217-11.239-9.744-11.239z" opacity=".54"/>
  <path fill="#fefeff" d="M119.057 119.775l-22.22-1.552c-8.594-.69-11.858-3.105-11.858-7.587 0-2.415 1.186-4.826 4.15-7.068 4.444 1.897 9.632 2.928 15.116 2.928 18.218 0 31.404-12.757 31.404-28.965 0-8.002-3.084-14.887-8.262-19.953l.013-.008c-.822-.81-1.676-1.545-2.549-2.216-.01-.004-.013-.011-.023-.019-1.572-1.211-3.206-2.216-4.836-3.045-.061-.03-.129-.071-.193-.105l-.087-.034c-8.301-4.11-16.482-3.757-16.482-3.757v.004c-.061 0-.11-.004-.174-.004-18.077 0-31.704 12.585-31.704 29.137 0 10.519 5.481 19.14 14.072 24.139-8.736 5.003-13.479 10.864-13.479 19.485 0 7.241 3.999 13.451 11.997 16.898-10.369 2.242-16.74 7.586-16.74 16.552 0 10.515 11.41 20.003 33.779 20.003 24.891 0 43.706-14.832 43.706-33.278 0-12.761-8.739-20.347-25.63-21.555z" opacity=".54"/>
  <path d="M103.352 167.018c-13.182 0-20.741-6.548-20.741-15.69 0-4.83 2.075-9.312 5.481-11.723 2.223.518 4.743 1.035 7.405 1.204l19.858 1.552c8.594.694 11.851 3.45 11.851 8.277 0 10.518-9.334 16.38-23.854 16.38z"/>
  <path d="M101.132 54.945c7.701 0 14.368 12.071 14.368 27.413 0 11.381-3.702 17.591-9.48 17.591-7.559 0-14.226-11.381-14.226-26.899 0-11.722 3.703-18.105 9.338-18.105z"/>
</g>
<g id="a39">
  <path d="M24.184 105c0 56.886 36.185 103 80.816 103 44.633 0 80.815-46.114 80.815-103S149.633 2 105 2C60.369 2 24.184 48.114 24.184 105z"/>
  <path fill="#fefeff" d="M134.259 29.678c-5.052 0-8.903 4.8-8.903 11.239 0 6.326 3.851 11.126 8.903 11.126 5.046 0 8.898-4.8 8.898-11.126 0-6.439-3.852-11.239-8.898-11.239z" opacity=".46"/>
  <path fill="#fefeff" d="M117.684 119.775l-20.29-1.552c-7.847-.69-10.828-3.105-10.828-7.587 0-2.415 1.083-4.826 3.79-7.068 4.057 1.897 8.795 2.928 13.802 2.928 16.636 0 28.676-12.757 28.676-28.965 0-8.002-2.816-14.887-7.544-19.953l.012-.008c-.751-.81-1.53-1.545-2.328-2.216-.008-.004-.011-.011-.02-.019-1.436-1.211-2.928-2.216-4.417-3.045-.056-.03-.117-.071-.176-.105l-.08-.034c-7.579-4.11-15.049-3.757-15.049-3.757v.004c-.056 0-.101-.004-.159-.004-16.507 0-28.95 12.585-28.95 29.137 0 10.519 5.005 19.14 12.849 24.139-7.976 5.003-12.307 10.864-12.307 19.485 0 7.241 3.651 13.451 10.954 16.898-9.468 2.242-15.285 7.586-15.285 16.552 0 10.515 10.418 20.003 30.844 20.003 22.729 0 39.909-14.832 39.909-33.278 0-12.761-7.979-20.347-23.403-21.555z" opacity=".46"/>
  <path d="M103.343 167.018c-12.037 0-18.939-6.548-18.939-15.69 0-4.83 1.895-9.312 5.005-11.723 2.03.518 4.331 1.035 6.761 1.204l18.133 1.552c7.848.694 10.822 3.45 10.822 8.277 0 10.518-8.524 16.38-21.782 16.38z"/>
  <path d="M101.316 54.945c7.032 0 13.12 12.071 13.12 27.413 0 11.381-3.381 17.591-8.656 17.591-6.903 0-12.991-11.381-12.991-26.899 0-11.722 3.381-18.105 8.527-18.105z"/>
</g>
<g id="a40">
  <path d="M35.469 105c0 56.886 31.132 103 69.531 103 38.402 0 69.531-46.114 69.531-103S143.402 2 105 2C66.601 2 35.469 48.114 35.469 105z"/>
  <path fill="#fefeff" d="M129.969 29.678c-4.347 0-7.661 4.8-7.661 11.239 0 6.326 3.314 11.126 7.661 11.126 4.341 0 7.655-4.8 7.655-11.126 0-6.439-3.314-11.239-7.655-11.239z" opacity=".38"/>
  <path fill="#fefeff" d="M115.708 119.775l-17.457-1.552c-6.751-.69-9.316-3.105-9.316-7.587 0-2.415.932-4.826 3.261-7.068 3.491 1.897 7.566 2.928 11.875 2.928 14.313 0 24.672-12.757 24.672-28.965 0-8.002-2.423-14.887-6.491-19.953l.01-.008c-.646-.81-1.316-1.545-2.002-2.216-.008-.004-.01-.011-.018-.019-1.235-1.211-2.519-2.216-3.8-3.045-.048-.03-.101-.071-.152-.105l-.068-.034c-6.521-4.11-12.949-3.757-12.949-3.757v.004c-.048 0-.086-.004-.136-.004-14.202 0-24.907 12.585-24.907 29.137 0 10.519 4.306 19.14 11.055 24.139-6.863 5.003-10.59 10.864-10.59 19.485 0 7.241 3.142 13.451 9.425 16.898-8.146 2.242-13.151 7.586-13.151 16.552 0 10.515 8.964 20.003 26.537 20.003 19.556 0 34.337-14.832 34.337-33.278 0-12.761-6.865-20.347-20.135-21.555z" opacity=".38"/>
  <path d="M103.37 167.018c-10.357 0-16.295-6.548-16.295-15.69 0-4.83 1.63-9.312 4.306-11.723 1.746.518 3.726 1.035 5.817 1.204l15.601 1.552c6.752.694 9.311 3.45 9.311 8.277 0 10.518-7.334 16.38-18.74 16.38z"/>
  <path d="M101.625 54.945c6.051 0 11.288 12.071 11.288 27.413 0 11.381-2.908 17.591-7.447 17.591-5.939 0-11.177-11.381-11.177-26.899 0-11.722 2.909-18.105 7.336-18.105z"/>
</g>
<g id="a41">
  <path d="M50.652 105c0 56.886 24.334 103 54.348 103 30.016 0 54.348-46.114 54.348-103S135.016 2 105 2C74.986 2 50.652 48.114 50.652 105z"/>
  <path fill="#fefeff" d="M124.243 29.678c-3.397 0-5.987 4.8-5.987 11.239 0 6.326 2.59 11.126 5.987 11.126 3.394 0 5.984-4.8 5.984-11.126 0-6.439-2.59-11.239-5.984-11.239z" opacity=".31"/>
  <path fill="#fefeff" d="M113.096 119.775l-13.645-1.552c-5.277-.69-7.281-3.105-7.281-7.587 0-2.415.728-4.826 2.548-7.068 2.729 1.897 5.915 2.928 9.282 2.928 11.188 0 19.285-12.757 19.285-28.965 0-8.002-1.894-14.887-5.074-19.953l.008-.008c-.504-.81-1.029-1.545-1.565-2.216-.006-.004-.008-.011-.014-.019-.965-1.211-1.969-2.216-2.97-3.045-.037-.03-.079-.071-.118-.105l-.054-.034c-5.097-4.11-10.121-3.757-10.121-3.757v.004c-.038 0-.067-.004-.107-.004-11.1 0-19.468 12.585-19.468 29.137 0 10.519 3.366 19.14 8.641 24.139-5.364 5.003-8.277 10.864-8.277 19.485 0 7.241 2.455 13.451 7.367 16.898-6.368 2.242-10.28 7.586-10.28 16.552 0 10.515 7.007 20.003 20.743 20.003 15.285 0 26.839-14.832 26.839-33.278 0-12.761-5.366-20.347-15.739-21.555z" opacity=".31"/>
  <path d="M103.452 167.018c-8.095 0-12.737-6.548-12.737-15.69 0-4.83 1.275-9.312 3.366-11.723 1.365.518 2.913 1.035 4.547 1.204l12.195 1.552c5.277.694 7.278 3.45 7.278 8.277 0 10.518-5.733 16.38-14.649 16.38z"/>
  <path d="M102.089 54.945c4.729 0 8.823 12.071 8.823 27.413 0 11.381-2.274 17.591-5.821 17.591-4.642 0-8.736-11.381-8.736-26.899 0-11.722 2.273-18.105 5.734-18.105z"/>
</g>
<g id="a42">
  <path d="M66.773 105c0 56.886 17.116 103 38.227 103 21.112 0 38.227-46.114 38.227-103S126.112 2 105 2C83.889 2 66.773 48.114 66.773 105z"/>
  <path fill="#fefeff" d="M118.204 29.678c-2.39 0-4.211 4.8-4.211 11.239 0 6.326 1.821 11.126 4.211 11.126 2.387 0 4.209-4.8 4.209-11.126 0-6.439-1.822-11.239-4.209-11.239z" opacity=".23"/>
  <path fill="#fefeff" d="M110.364 119.775l-9.598-1.552c-3.711-.69-5.121-3.105-5.121-7.587 0-2.415.512-4.826 1.792-7.068 1.92 1.897 4.16 2.928 6.529 2.928 7.869 0 13.564-12.757 13.564-28.965 0-8.002-1.332-14.887-3.568-19.953l.005-.008c-.355-.81-.724-1.545-1.101-2.216-.004-.004-.005-.011-.009-.019-.68-1.211-1.385-2.216-2.09-3.045-.026-.03-.055-.071-.083-.105l-.038-.034c-3.585-4.11-7.118-3.757-7.118-3.757v.004c-.027 0-.048-.004-.076-.004-7.807 0-13.693 12.585-13.693 29.137 0 10.519 2.367 19.14 6.078 24.139-3.773 5.003-5.822 10.864-5.822 19.485 0 7.241 1.727 13.451 5.182 16.898-4.479 2.242-7.23 7.586-7.23 16.552 0 10.515 4.928 20.003 14.589 20.003 10.751 0 18.878-14.832 18.878-33.278 0-12.761-3.775-20.347-11.07-21.555z" opacity=".23"/>
  <path d="M103.581 167.018c-5.694 0-8.959-6.548-8.959-15.69 0-4.83.896-9.312 2.367-11.723.961.518 2.049 1.035 3.198 1.204l8.578 1.552c3.712.694 5.119 3.45 5.119 8.277 0 10.518-4.032 16.38-10.303 16.38z"/>
  <path d="M102.622 54.945c3.326 0 6.205 12.071 6.205 27.413 0 11.381-1.599 17.591-4.094 17.591-3.265 0-6.145-11.381-6.145-26.899 0-11.722 1.599-18.105 4.034-18.105z"/>
</g>
<g id="a43">
  <path d="M78.342 105c0 56.886 11.936 103 26.659 103 14.723 0 26.658-46.114 26.658-103S119.724 2 105.001 2 78.342 48.114 78.342 105z"/>
  <path fill="#fefeff" d="M113.891 29.678c-1.667 0-2.937 4.8-2.937 11.239 0 6.326 1.27 11.126 2.937 11.126 1.664 0 2.935-4.8 2.935-11.126 0-6.439-1.271-11.239-2.935-11.239z" opacity=".15"/>
  <path fill="#fefeff" d="M108.423 119.775l-6.693-1.552c-2.588-.69-3.572-3.105-3.572-7.587 0-2.415.357-4.826 1.25-7.068 1.339 1.897 2.901 2.928 4.553 2.928 5.488 0 9.46-12.757 9.46-28.965 0-8.002-.929-14.887-2.489-19.953l.004-.008c-.248-.81-.505-1.545-.768-2.216-.003-.004-.004-.011-.007-.019-.473-1.211-.965-2.216-1.456-3.045-.019-.03-.039-.071-.059-.105l-.026-.034c-2.5-4.11-4.964-3.757-4.964-3.757v.004c-.019 0-.033-.004-.053-.004-5.445 0-9.549 12.585-9.549 29.137 0 10.519 1.651 19.14 4.238 24.139-2.631 5.003-4.06 10.864-4.06 19.485 0 7.241 1.205 13.451 3.614 16.898-3.124 2.242-5.042 7.586-5.042 16.552 0 10.515 3.436 20.003 10.174 20.003 7.498 0 13.165-14.832 13.165-33.278 0-12.761-2.632-20.347-7.72-21.555z" opacity=".15"/>
  <path d="M103.693 167.018c-3.971 0-6.248-6.548-6.248-15.69 0-4.83.625-9.312 1.651-11.723.67.518 1.429 1.035 2.23 1.204l5.982 1.552c2.588.694 3.57 3.45 3.57 8.277 0 10.518-2.812 16.38-7.185 16.38z"/>
  <path d="M103.024 54.945c2.319 0 4.328 12.071 4.328 27.413 0 11.381-1.116 17.591-2.856 17.591-2.277 0-4.285-11.381-4.285-26.899 0-11.722 1.115-18.105 2.813-18.105z"/>
</g>
<g id="a44">
  <path d="M95.241 105c0 56.886 4.37 103 9.761 103 5.391 0 9.761-46.114 9.761-103s-4.37-103-9.761-103c-5.391 0-9.761 46.114-9.761 103z"/>
  <path fill="#fefeff" d="M107.613 29.678c-.61 0-1.075 4.8-1.075 11.239 0 6.326.465 11.126 1.075 11.126.61 0 1.075-4.8 1.075-11.126 0-6.439-.465-11.239-1.075-11.239z" opacity=".08"/>
  <path fill="#fefeff" d="M105.611 119.775l-2.45-1.552c-.948-.69-1.308-3.105-1.308-7.587 0-2.415.131-4.826.458-7.068.49 1.897 1.062 2.928 1.667 2.928 2.009 0 3.463-12.757 3.463-28.965 0-8.002-.34-14.887-.911-19.953l.001-.008c-.09-.81-.184-1.545-.281-2.216-.001-.004-.001-.011-.002-.019-.174-1.211-.354-2.216-.534-3.045-.006-.03-.014-.071-.021-.105l-.009-.034c-.916-4.11-1.818-3.757-1.818-3.757v.004c-.007 0-.012-.004-.019-.004-1.994 0-3.497 12.585-3.497 29.137 0 10.519.605 19.14 1.552 24.139-.963 5.003-1.487 10.864-1.487 19.485 0 7.241.441 13.451 1.324 16.898-1.144 2.242-1.847 7.586-1.847 16.552 0 10.515 1.259 20.003 3.726 20.003 2.745 0 4.82-14.832 4.82-33.278 0-12.761-.964-20.347-2.827-21.555z" opacity=".08"/>
  <path d="M103.879 167.018c-1.454 0-2.287-6.548-2.287-15.69 0-4.83.229-9.312.604-11.723.245.518.523 1.035.817 1.204l2.19 1.552c.948.694 1.307 3.45 1.307 8.277 0 10.518-1.029 16.38-2.631 16.38z"/>
  <path d="M103.634 54.945c.85 0 1.585 12.071 1.585 27.413 0 11.381-.408 17.591-1.045 17.591-.834 0-1.569-11.381-1.569-26.899 0-11.722.408-18.105 1.029-18.105z"/>
</g>
<g id="a45">
  <path d="M115.024 105c0 56.886-4.487 103-10.022 103S94.98 161.886 94.98 105 99.467 2 105.002 2s10.022 46.114 10.022 103z"/>
  <path d="M104.133 167.018c1.493 0 2.349-6.548 2.349-15.69 0-4.83-.235-9.312-.621-11.723-.251.518-.537 1.035-.838 1.204l-2.249 1.552c-.973.694-1.342 3.45-1.342 8.277 0 10.518 1.057 16.38 2.701 16.38z"/>
  <path d="M104.385 54.945c-.872 0-1.627 12.071-1.627 27.413 0 11.381.419 17.591 1.073 17.591.856 0 1.611-11.381 1.611-26.899 0-11.722-.419-18.105-1.057-18.105z"/>
</g>
<g id="a46">
  <path d="M131.659 105c0 56.886-11.936 103-26.658 103-14.724 0-26.659-46.114-26.659-103S90.277 2 105.001 2c14.722 0 26.658 46.114 26.658 103z"/>
  <path fill="#fefeff" d="M118.813 143.244H91.188c-.713 0-1.296-2.253-1.296-5.008 0-2.756.583-5.009 1.296-5.009h27.625c.713 0 1.296 2.253 1.296 5.009 0 2.755-.583 5.008-1.296 5.008z" opacity=".07"/>
  <path fill="#fefeff" d="M118.813 110.009l-27.625-.001c-.713.001-1.296-2.252-1.296-5.008 0-2.756.583-5.008 1.296-5.008l27.625-.001c.713.001 1.296 2.253 1.296 5.009 0 2.756-.583 5.008-1.296 5.008z" opacity=".07"/>
  <path fill="#fefeff" d="M118.813 76.773H91.188c-.713 0-1.296-2.257-1.296-5.009 0-2.755.583-5.008 1.296-5.008h27.625c.713 0 1.296 2.253 1.296 5.008 0 2.752-.583 5.009-1.296 5.009z" opacity=".07"/>
</g>
<g id="a47">
  <path d="M141.367 105c0 56.886-16.283 103-36.367 103-20.085 0-36.367-46.114-36.367-103S84.915 2 105 2c20.084 0 36.367 46.114 36.367 103z"/>
  <path fill="#fefeff" d="M123.843 143.244H86.157c-.973 0-1.768-2.253-1.768-5.008 0-2.756.795-5.009 1.768-5.009h37.686c.973 0 1.768 2.253 1.768 5.009 0 2.755-.795 5.008-1.768 5.008z" opacity=".13"/>
  <path fill="#fefeff" d="M123.843 110.009l-37.686-.001c-.973.001-1.768-2.252-1.768-5.008 0-2.756.795-5.008 1.768-5.008l37.686-.001c.973.001 1.768 2.253 1.768 5.009 0 2.756-.795 5.008-1.768 5.008z" opacity=".13"/>
  <path fill="#fefeff" d="M123.843 76.773H86.157c-.973 0-1.768-2.257-1.768-5.009 0-2.755.795-5.008 1.768-5.008h37.686c.973 0 1.768 2.253 1.768 5.008 0 2.752-.795 5.009-1.768 5.009z" opacity=".13"/>
</g>
<g id="a48">
  <path d="M153.917 105c0 56.886-21.903 103-48.917 103-27.016 0-48.917-46.114-48.917-103S77.984 2 105 2c27.015 0 48.917 46.114 48.917 103z"/>
  <path fill="#fefeff" d="M130.345 143.244H79.654c-1.308 0-2.378-2.253-2.378-5.008 0-2.756 1.07-5.009 2.378-5.009h50.691c1.309 0 2.379 2.253 2.379 5.009 0 2.755-1.07 5.008-2.379 5.008z" opacity=".2"/>
  <path fill="#fefeff" d="M130.345 110.009l-50.691-.001c-1.308.001-2.378-2.252-2.378-5.008 0-2.756 1.07-5.008 2.378-5.008l50.691-.001c1.309.001 2.379 2.253 2.379 5.009 0 2.756-1.07 5.008-2.379 5.008z" opacity=".2"/>
  <path fill="#fefeff" d="M130.345 76.773H79.654c-1.308 0-2.378-2.257-2.378-5.009 0-2.755 1.07-5.008 2.378-5.008h50.691c1.309 0 2.379 2.253 2.379 5.008 0 2.752-1.07 5.009-2.379 5.009z" opacity=".2"/>
</g>
<g id="a49">
  <path d="M166.611 105c0 56.886-27.586 103-61.611 103-34.027 0-61.611-46.114-61.611-103S70.973 2 105 2c34.025 0 61.611 46.114 61.611 103z"/>
  <path fill="#fefeff" d="M136.922 143.244H73.077c-1.648 0-2.996-2.253-2.996-5.008 0-2.756 1.348-5.009 2.996-5.009h63.845c1.648 0 2.996 2.253 2.996 5.009 0 2.755-1.348 5.008-2.996 5.008z" opacity=".27"/>
  <path fill="#fefeff" d="M136.922 110.009l-63.845-.001c-1.648.001-2.996-2.252-2.996-5.008 0-2.756 1.348-5.008 2.996-5.008l63.845-.001c1.648.001 2.996 2.253 2.996 5.009 0 2.756-1.348 5.008-2.996 5.008z" opacity=".27"/>
  <path fill="#fefeff" d="M136.922 76.773H73.077c-1.648 0-2.996-2.257-2.996-5.009 0-2.755 1.348-5.008 2.996-5.008h63.845c1.648 0 2.996 2.253 2.996 5.008 0 2.752-1.348 5.009-2.996 5.009z" opacity=".27"/>
</g>
<g id="a50">
  <path d="M177.552 105c0 56.886-32.485 103-72.552 103-40.07 0-72.553-46.114-72.553-103S64.93 2 105 2c40.067 0 72.552 46.114 72.552 103z"/>
  <path fill="#fefeff" d="M142.591 143.244H67.408c-1.941 0-3.528-2.253-3.528-5.008 0-2.756 1.587-5.009 3.528-5.009h75.183c1.941 0 3.528 2.253 3.528 5.009 0 2.755-1.587 5.008-3.528 5.008z" opacity=".33"/>
  <path fill="#fefeff" d="M142.591 110.009l-75.183-.001c-1.941.001-3.528-2.252-3.528-5.008 0-2.756 1.587-5.008 3.528-5.008l75.183-.001c1.941.001 3.528 2.253 3.528 5.009 0 2.756-1.587 5.008-3.528 5.008z" opacity=".33"/>
  <path fill="#fefeff" d="M142.591 76.773H67.408c-1.941 0-3.528-2.257-3.528-5.009 0-2.755 1.587-5.008 3.528-5.008h75.183c1.941 0 3.528 2.253 3.528 5.008 0 2.752-1.587 5.009-3.528 5.009z" opacity=".33"/>
</g>
<g id="a51">
  <path d="M186.17 105c0 56.886-36.343 103-81.17 103-44.83 0-81.171-46.114-81.171-103S60.17 2 105 2c44.827 0 81.17 46.114 81.17 103z"/>
  <path fill="#fefeff" d="M147.056 143.244H62.942c-2.172 0-3.947-2.253-3.947-5.008 0-2.756 1.775-5.009 3.947-5.009h84.114c2.172 0 3.947 2.253 3.947 5.009 0 2.755-1.775 5.008-3.947 5.008z" opacity=".4"/>
  <path fill="#fefeff" d="M147.056 110.009l-84.114-.001c-2.172.001-3.947-2.252-3.947-5.008 0-2.756 1.775-5.008 3.947-5.008l84.114-.001c2.172.001 3.947 2.253 3.947 5.009 0 2.756-1.775 5.008-3.947 5.008z" opacity=".4"/>
  <path fill="#fefeff" d="M147.056 76.773H62.942c-2.172 0-3.947-2.257-3.947-5.009 0-2.755 1.775-5.008 3.947-5.008h84.114c2.172 0 3.947 2.253 3.947 5.008 0 2.752-1.775 5.009-3.947 5.009z" opacity=".4"/>
</g>
<g id="a52">
  <path d="M192.643 105c0 56.886-39.242 103-87.643 103-48.404 0-87.643-46.114-87.643-103S56.596 2 105 2c48.401 0 87.643 46.114 87.643 103z"/>
  <path fill="#fefeff" d="M150.41 143.244H59.589c-2.345 0-4.262-2.253-4.262-5.008 0-2.756 1.917-5.009 4.262-5.009h90.821c2.345 0 4.262 2.253 4.262 5.009 0 2.755-1.917 5.008-4.262 5.008z" opacity=".47"/>
  <path fill="#fefeff" d="M150.41 110.009l-90.821-.001c-2.345.001-4.262-2.252-4.262-5.008 0-2.756 1.917-5.008 4.262-5.008l90.821-.001c2.345.001 4.262 2.253 4.262 5.009 0 2.756-1.917 5.008-4.262 5.008z" opacity=".47"/>
  <path fill="#fefeff" d="M150.41 76.773H59.589c-2.345 0-4.262-2.257-4.262-5.009 0-2.755 1.917-5.008 4.262-5.008h90.821c2.345 0 4.262 2.253 4.262 5.008 0 2.752-1.917 5.009-4.262 5.009z" opacity=".47"/>
</g>
<g id="a53">
  <path d="M197.378 105c0 56.886-41.362 103-92.378 103-51.019 0-92.377-46.114-92.377-103S53.981 2 105 2c51.016 0 92.378 46.114 92.378 103z"/>
  <path fill="#fefeff" d="M152.863 143.244H57.136c-2.471 0-4.492-2.253-4.492-5.008 0-2.756 2.021-5.009 4.492-5.009h95.727c2.472 0 4.492 2.253 4.492 5.009 0 2.755-2.02 5.008-4.492 5.008z" opacity=".53"/>
  <path fill="#fefeff" d="M152.863 110.009l-95.727-.001c-2.471.001-4.492-2.252-4.492-5.008 0-2.756 2.021-5.008 4.492-5.008l95.727-.001c2.472.001 4.492 2.253 4.492 5.009 0 2.756-2.02 5.008-4.492 5.008z" opacity=".53"/>
  <path fill="#fefeff" d="M152.863 76.773H57.136c-2.471 0-4.492-2.257-4.492-5.009 0-2.755 2.021-5.008 4.492-5.008h95.727c2.472 0 4.492 2.253 4.492 5.008 0 2.752-2.02 5.009-4.492 5.009z" opacity=".53"/>
</g>
<g id="a54">
  <path d="M200.781 105c0 56.886-42.886 103-95.781 103-52.899 0-95.781-46.114-95.781-103S52.101 2 105 2c52.895 0 95.781 46.114 95.781 103z"/>
  <path fill="#fefeff" d="M154.626 143.244H55.372c-2.562 0-4.657-2.253-4.657-5.008 0-2.756 2.095-5.009 4.657-5.009h99.254c2.563 0 4.658 2.253 4.658 5.009 0 2.755-2.095 5.008-4.658 5.008z" opacity=".6"/>
  <path fill="#fefeff" d="M154.626 110.009l-99.254-.001c-2.562.001-4.657-2.252-4.657-5.008 0-2.756 2.095-5.008 4.657-5.008l99.254-.001c2.563.001 4.658 2.253 4.658 5.009 0 2.756-2.095 5.008-4.658 5.008z" opacity=".6"/>
  <path fill="#fefeff" d="M154.626 76.773H55.372c-2.562 0-4.657-2.257-4.657-5.009 0-2.755 2.095-5.008 4.657-5.008h99.254c2.563 0 4.658 2.253 4.658 5.008 0 2.752-2.095 5.009-4.658 5.009z" opacity=".6"/>
</g>
<g id="a55">
  <path d="M203.191 105c0 56.886-43.964 103-98.191 103-54.23 0-98.192-46.114-98.192-103S50.77 2 105 2c54.227 0 98.191 46.114 98.191 103z"/>
  <path fill="#fefeff" d="M155.875 143.244H54.123c-2.627 0-4.774-2.253-4.774-5.008 0-2.756 2.147-5.009 4.774-5.009h101.752c2.627 0 4.775 2.253 4.775 5.009 0 2.755-2.148 5.008-4.775 5.008z" opacity=".67"/>
  <path fill="#fefeff" d="M155.875 110.009l-101.752-.001c-2.627.001-4.774-2.252-4.774-5.008 0-2.756 2.147-5.008 4.774-5.008l101.752-.001c2.627.001 4.775 2.253 4.775 5.009 0 2.756-2.148 5.008-4.775 5.008z" opacity=".67"/>
  <path fill="#fefeff" d="M155.875 76.773H54.123c-2.627 0-4.774-2.257-4.774-5.009 0-2.755 2.147-5.008 4.774-5.008h101.752c2.627 0 4.775 2.253 4.775 5.008 0 2.752-2.148 5.009-4.775 5.009z" opacity=".67"/>
</g>
<g id="a56">
  <path d="M204.873 105c0 56.886-44.718 103-99.873 103-55.159 0-99.874-46.114-99.874-103S49.84 2 105 2c55.155 0 99.873 46.114 99.873 103z"/>
  <path fill="#fefeff" d="M156.746 143.244H53.251c-2.672 0-4.856-2.253-4.856-5.008 0-2.756 2.184-5.009 4.856-5.009h103.495c2.672 0 4.857 2.253 4.857 5.009 0 2.755-2.185 5.008-4.857 5.008z" opacity=".73"/>
  <path fill="#fefeff" d="M156.746 110.009l-103.495-.001c-2.672.001-4.856-2.252-4.856-5.008 0-2.756 2.184-5.008 4.856-5.008l103.495-.001c2.672.001 4.857 2.253 4.857 5.009 0 2.756-2.185 5.008-4.857 5.008z" opacity=".73"/>
  <path fill="#fefeff" d="M156.746 76.773H53.251c-2.672 0-4.856-2.257-4.856-5.009 0-2.755 2.184-5.008 4.856-5.008h103.495c2.672 0 4.857 2.253 4.857 5.008 0 2.752-2.185 5.009-4.857 5.009z" opacity=".73"/>
</g>
<g id="a57">
  <path d="M206.025 105c0 56.886-45.233 103-101.025 103C49.204 208 3.974 161.886 3.974 105S49.204 2 105 2c55.792 0 101.025 46.114 101.025 103z"/>
  <path fill="#fefeff" d="M157.343 143.244H52.654c-2.703 0-4.912-2.253-4.912-5.008 0-2.756 2.209-5.009 4.912-5.009h104.689c2.703 0 4.913 2.253 4.913 5.009 0 2.755-2.21 5.008-4.913 5.008z" opacity=".8"/>
  <path fill="#fefeff" d="M157.343 110.009l-104.689-.001c-2.703.001-4.912-2.252-4.912-5.008 0-2.756 2.209-5.008 4.912-5.008l104.689-.001c2.703.001 4.913 2.253 4.913 5.009 0 2.756-2.21 5.008-4.913 5.008z" opacity=".8"/>
  <path fill="#fefeff" d="M157.343 76.773H52.654c-2.703 0-4.912-2.257-4.912-5.009 0-2.755 2.209-5.008 4.912-5.008h104.689c2.703 0 4.913 2.253 4.913 5.008 0 2.752-2.21 5.009-4.913 5.009z" opacity=".8"/>
</g>
<g id="a58">
  <path d="M206.798 105c0 56.886-45.58 103-101.798 103C48.778 208 3.202 161.886 3.202 105S48.778 2 105 2c56.218 0 101.798 46.114 101.798 103z"/>
  <path fill="#fefeff" d="M157.744 143.244H52.254c-2.723 0-4.949-2.253-4.949-5.008 0-2.756 2.226-5.009 4.949-5.009h105.49c2.723 0 4.95 2.253 4.95 5.009 0 2.755-2.227 5.008-4.95 5.008z" opacity=".87"/>
  <path fill="#fefeff" d="M157.744 110.009l-105.49-.001c-2.723.001-4.949-2.252-4.949-5.008 0-2.756 2.226-5.008 4.949-5.008l105.49-.001c2.723.001 4.95 2.253 4.95 5.009 0 2.756-2.227 5.008-4.95 5.008z" opacity=".87"/>
  <path fill="#fefeff" d="M157.744 76.773H52.254c-2.723 0-4.949-2.257-4.949-5.009 0-2.755 2.226-5.008 4.949-5.008h105.49c2.723 0 4.95 2.253 4.95 5.008 0 2.752-2.227 5.009-4.95 5.009z" opacity=".87"/>
</g>
<g id="a59">
  <path d="M207.301 105c0 56.886-45.805 103-102.301 103C48.5 208 2.699 161.886 2.699 105S48.5 2 105 2c56.496 0 102.301 46.114 102.301 103z"/>
  <path fill="#fefeff" d="M158.005 143.244H51.994c-2.737 0-4.974-2.253-4.974-5.008 0-2.756 2.237-5.009 4.974-5.009h106.011c2.737 0 4.974 2.253 4.974 5.009 0 2.755-2.237 5.008-4.974 5.008z" opacity=".93"/>
  <path fill="#fefeff" d="M158.005 110.009l-106.011-.001c-2.737.001-4.974-2.252-4.974-5.008 0-2.756 2.237-5.008 4.974-5.008l106.011-.001c2.737.001 4.974 2.253 4.974 5.009 0 2.756-2.237 5.008-4.974 5.008z" opacity=".93"/>
  <path fill="#fefeff" d="M158.005 76.773H51.994c-2.737 0-4.974-2.257-4.974-5.009 0-2.755 2.237-5.008 4.974-5.008h106.011c2.737 0 4.974 2.253 4.974 5.008 0 2.752-2.237 5.009-4.974 5.009z" opacity=".93"/>
</g>
<g id="a60">
  <path d="M207.617 105c0 56.886-45.946 103-102.617 103C48.325 208 2.383 161.886 2.383 105S48.325 2 105 2c56.671 0 102.617 46.114 102.617 103z"/>
  <path fill="#fefeff" d="M158.168 143.244H51.83c-2.745 0-4.99-2.253-4.99-5.008 0-2.756 2.245-5.009 4.99-5.009h106.338c2.746 0 4.99 2.253 4.99 5.009 0 2.755-2.244 5.008-4.99 5.008z"/>
  <path fill="#fefeff" d="M158.168 110.009l-106.338-.001c-2.745.001-4.99-2.252-4.99-5.008 0-2.756 2.245-5.008 4.99-5.008l106.338-.001c2.746.001 4.99 2.253 4.99 5.009 0 2.756-2.244 5.008-4.99 5.008z"/>
  <path fill="#fefeff" d="M158.168 76.773H51.83c-2.745 0-4.99-2.257-4.99-5.009 0-2.755 2.245-5.008 4.99-5.008h106.338c2.746 0 4.99 2.253 4.99 5.008 0 2.752-2.244 5.009-4.99 5.009z"/>
</g>
<style>
/* <![CDATA[ */

#a1 {animation-name: a1}
#a2 {animation-name: a2}
#a3 {animation-name: a3}
#a4 {animation-name: a4}
#a5 {animation-name: a5}
#a6 {animation-name: a6}
#a7 {animation-name: a7}
#a8 {animation-name: a8}
#a9 {animation-name: a9}
#a10 {animation-name: a10}
#a11 {animation-name: a11}
#a12 {animation-name: a12}
#a13 {animation-name: a13}
#a14 {animation-name: a14}
#a15 {animation-name: a15}
#a16 {animation-name: a16}
#a17 {animation-name: a17}
#a18 {animation-name: a18}
#a19 {animation-name: a19}
#a20 {animation-name: a20}
#a21 {animation-name: a21}
#a22 {animation-name: a22}
#a23 {animation-name: a23}
#a24 {animation-name: a24}
#a25 {animation-name: a25}
#a26 {animation-name: a26}
#a27 {animation-name: a27}
#a28 {animation-name: a28}
#a29 {animation-name: a29}
#a30 {animation-name: a30}
#a31 {animation-name: a31}
#a32 {animation-name: a32}
#a33 {animation-name: a33}
#a34 {animation-name: a34}
#a35 {animation-name: a35}
#a36 {animation-name: a36}
#a37 {animation-name: a37}
#a38 {animation-name: a38}
#a39 {animation-name: a39}
#a40 {animation-name: a40}
#a41 {animation-name: a41}
#a42 {animation-name: a42}
#a43 {animation-name: a43}
#a44 {animation-name: a44}
#a45 {animation-name: a45}
#a46 {animation-name: a46}
#a47 {animation-name: a47}
#a48 {animation-name: a48}
#a49 {animation-name: a49}
#a50 {animation-name: a50}
#a51 {animation-name: a51}
#a52 {animation-name: a52}
#a53 {animation-name: a53}
#a54 {animation-name: a54}
#a55 {animation-name: a55}
#a56 {animation-name: a56}
#a57 {animation-name: a57}
#a58 {animation-name: a58}
#a59 {animation-name: a59}
#a60 {animation-name: a60}

@keyframes a1 {0.00%{visibility: visible} 1.67%{visibility: hidden}}
@keyframes a2 {1.67%{visibility: visible} 3.33%{visibility: hidden}}
@keyframes a3 {3.33%{visibility: visible} 5.00%{visibility: hidden}}
@keyframes a4 {5.00%{visibility: visible} 6.67%{visibility: hidden}}
@keyframes a5 {6.67%{visibility: visible} 8.33%{visibility: hidden}}
@keyframes a6 {8.33%{visibility: visible} 10.00%{visibility: hidden}}
@keyframes a7 {10.00%{visibility: visible} 11.67%{visibility: hidden}}
@keyframes a8 {11.67%{visibility: visible} 13.33%{visibility: hidden}}
@keyframes a9 {13.33%{visibility: visible} 15.00%{visibility: hidden}}
@keyframes a10 {15.00%{visibility: visible} 16.67%{visibility: hidden}}
@keyframes a11 {16.67%{visibility: visible} 18.33%{visibility: hidden}}
@keyframes a12 {18.33%{visibility: visible} 20.00%{visibility: hidden}}
@keyframes a13 {20.00%{visibility: visible} 21.67%{visibility: hidden}}
@keyframes a14 {21.67%{visibility: visible} 23.33%{visibility: hidden}}
@keyframes a15 {23.33%{visibility: visible} 25.00%{visibility: hidden}}
@keyframes a16 {25.00%{visibility: visible} 26.67%{visibility: hidden}}
@keyframes a17 {26.67%{visibility: visible} 28.33%{visibility: hidden}}
@keyframes a18 {28.33%{visibility: visible} 30.00%{visibility: hidden}}
@keyframes a19 {30.00%{visibility: visible} 31.67%{visibility: hidden}}
@keyframes a20 {31.67%{visibility: visible} 33.33%{visibility: hidden}}
@keyframes a21 {33.33%{visibility: visible} 35.00%{visibility: hidden}}
@keyframes a22 {35.00%{visibility: visible} 36.67%{visibility: hidden}}
@keyframes a23 {36.67%{visibility: visible} 38.33%{visibility: hidden}}
@keyframes a24 {38.33%{visibility: visible} 40.00%{visibility: hidden}}
@keyframes a25 {40.00%{visibility: visible} 41.67%{visibility: hidden}}
@keyframes a26 {41.67%{visibility: visible} 43.33%{visibility: hidden}}
@keyframes a27 {43.33%{visibility: visible} 45.00%{visibility: hidden}}
@keyframes a28 {45.00%{visibility: visible} 46.67%{visibility: hidden}}
@keyframes a29 {46.67%{visibility: visible} 48.33%{visibility: hidden}}
@keyframes a30 {48.33%{visibility: visible} 50.00%{visibility: hidden}}
@keyframes a31 {50.00%{visibility: visible} 51.67%{visibility: hidden}}
@keyframes a32 {51.67%{visibility: visible} 53.33%{visibility: hidden}}
@keyframes a33 {53.33%{visibility: visible} 55.00%{visibility: hidden}}
@keyframes a34 {55.00%{visibility: visible} 56.67%{visibility: hidden}}
@keyframes a35 {56.67%{visibility: visible} 58.33%{visibility: hidden}}
@keyframes a36 {58.33%{visibility: visible} 60.00%{visibility: hidden}}
@keyframes a37 {60.00%{visibility: visible} 61.67%{visibility: hidden}}
@keyframes a38 {61.67%{visibility: visible} 63.33%{visibility: hidden}}
@keyframes a39 {63.33%{visibility: visible} 65.00%{visibility: hidden}}
@keyframes a40 {65.00%{visibility: visible} 66.67%{visibility: hidden}}
@keyframes a41 {66.67%{visibility: visible} 68.33%{visibility: hidden}}
@keyframes a42 {68.33%{visibility: visible} 70.00%{visibility: hidden}}
@keyframes a43 {70.00%{visibility: visible} 71.67%{visibility: hidden}}
@keyframes a44 {71.67%{visibility: visible} 73.33%{visibility: hidden}}
@keyframes a45 {73.33%{visibility: visible} 75.00%{visibility: hidden}}
@keyframes a46 {75.00%{visibility: visible} 76.67%{visibility: hidden}}
@keyframes a47 {76.67%{visibility: visible} 78.33%{visibility: hidden}}
@keyframes a48 {78.33%{visibility: visible} 80.00%{visibility: hidden}}
@keyframes a49 {80.00%{visibility: visible} 81.67%{visibility: hidden}}
@keyframes a50 {81.67%{visibility: visible} 83.33%{visibility: hidden}}
@keyframes a51 {83.33%{visibility: visible} 85.00%{visibility: hidden}}
@keyframes a52 {85.00%{visibility: visible} 86.67%{visibility: hidden}}
@keyframes a53 {86.67%{visibility: visible} 88.33%{visibility: hidden}}
@keyframes a54 {88.33%{visibility: visible} 90.00%{visibility: hidden}}
@keyframes a55 {90.00%{visibility: visible} 91.67%{visibility: hidden}}
@keyframes a56 {91.67%{visibility: visible} 93.33%{visibility: hidden}}
@keyframes a57 {93.33%{visibility: visible} 95.00%{visibility: hidden}}
@keyframes a58 {95.00%{visibility: visible} 96.67%{visibility: hidden}}
@keyframes a59 {96.67%{visibility: visible} 98.33%{visibility: hidden}}
@keyframes a60 {98.33%{visibility: visible} 100.00%{visibility: hidden}}

/* ]]> */
</style>
</svg>
