<svg xmlns="http://www.w3.org/2000/svg" width="376" height="280" viewBox="0 0 376 280">
  <path fill="#cb2027" d="M90.46 147.28c-.05-1.23 1.04-2.09 2.77-2.22 1.96.02 5.18.95 7.97 2.28.45.25.84.04.98-.53q1.6-4.08 3.21-8.17c.16-.3-.03-.73-.49-.96a24 24 0 0 0-12.63-3.01c-8.47.62-13.93 5.89-13.64 13.39.46 12.21 16.13 10.98 16.25 14.24.05 1.28-1.09 2.21-2.87 2.34-2.13-.01-5.23-.86-7.85-2.15-.46-.25-.84-.06-.99.51l-3.22 8.08c-.15.28.03.67.49.98 2.88 2.07 7.84 3.21 12.52 2.87 8.59-.64 14.14-6.13 13.86-13.54-.47-12.25-16.24-10.76-16.36-14.09"/>
  <path fill="#cb2027" d="m138.37 131.14-9.57 1.05c-.51.05-.93.54-.91 1.04l.93 24.34c.1 2.51-1.3 4.17-3.74 4.42s-3.95-1.11-4.05-3.67l-.92-24.29a.9.9 0 0 0-.98-.85q-4.79.47-9.58.91c-.5.04-.93.53-.91 1.03l.89 23.28c.49 9.87 5.97 14.61 15.95 13.6 10.07-1.04 15.16-6.85 14.79-16.72l-.89-23.28a.87.87 0 0 0-.98-.85"/>
  <path fill="#cb2027" d="m186.17 125.38-11.63 1.45c-.72.09-1.53.7-1.85 1.35l-6.86 22.27q-4.25-10.19-8.49-20.39a2.2 2.2 0 0 0-1.94-.89l-11.63 1.36c-.45.05-.77.48-.74.93l1.4 36.89c.01.39.36.75.81.7l10.29-1.2c.45-.05.83-.49.81-.88l-.62-16.41 6.24 15.68c.19.43.93.73 1.43.67l6.12-.75c.5-.06 1.21-.55 1.36-1.01l4.99-17.06.63 16.41c.01.4.42.73.87.68l10.29-1.29a.9.9 0 0 0 .76-.88l-1.4-36.89c-.02-.45-.37-.8-.82-.74"/>
  <path fill="#cb2027" d="M234.14 119.53q-5.81.66-11.63 1.36a2.6 2.6 0 0 0-1.85 1.34l-6.87 22.26-4.57-10.98a8 8 0 0 1-4.33 2.08q-1.18.17-1.98-.31c-.03 0-1.86-1.18-1.88-1.19a3 3 0 0 1-1.54-2.65q-.12-3.07 3.05-8.11l-10.79 1.35c-.45.06-.77.49-.75.94l1.4 36.89c.02.4.37.74.82.68l10.29-1.29c.45-.05.83-.49.81-.89l-.62-16.41 6.24 15.67c.19.42.93.72 1.43.66l6.12-.75c.5-.06 1.21-.54 1.36-1l5-17.03.62 16.41c.01.38.42.73.87.67q5.15-.61 10.29-1.19a.9.9 0 0 0 .75-.87l-1.4-36.89c-.02-.45-.36-.81-.81-.75"/>
  <path fill="#cb2027" d="M266.68 144.7q-7.6.7-15.19 1.51l-.18-4.75q5.4-.56 10.8-1.08c.5-.05.88-.48.92-.83l.48-7.88c.05-.34-.24-.71-.75-.66q-5.9.56-11.8 1.19l-.17-4.41q7.27-.76 14.53-1.45c.5-.04.87-.42.85-.92l-.32-8.43c0-.38-.41-.74-.91-.69q-12.68 1.2-25.34 2.61-.76.1-.75.87l1.4 36.89c.12.38.53.78.91.75q12.94-1.46 25.89-2.67c.45-.04.83-.47.81-.85l-.32-8.55c-.01-.38-.42-.69-.87-.64"/>
  <path fill="#cb2027" d="m284.98 130.6-3.28.25-.22-5.91q1.63-.15 3.28-.26c1.9-.14 3.22.95 3.29 2.73s-1.17 3.05-3.06 3.19m17.82 20.53q-4.7-6.93-9.41-13.79a12.2 12.2 0 0 0 6.45-11.09c-.29-7.59-6.16-12.3-14.75-11.66q-7.35.56-14.71 1.21a.9.9 0 0 0-.8.92l1.4 36.89c.02.4.42.74.86.7q4.9-.43 9.81-.82c.5-.04.87-.47.86-.86l-.47-12.28.66-.05q3.14 5.85 6.26 11.73c.24.48.76.84 1.32.79q5.96-.42 11.93-.76c.5-.03.88-.44.57-.93"/>
  <path fill="#cb2027" d="M131.71 94.91c1.11-.11 4.74-.17 10.9-.3l.15-.02a1.3 1.3 0 0 0 1.06-.73q.35-.64.32-1.51c-.06-1.65-3.65-2.05-10.76-1.36l-3.62.39q-5.69.5-10.22 2.14-4.53 1.63-7.17 3.99-5.43 4.77-5.21 10.36a9.7 9.7 0 0 0 2.04 5.72q.86 1.17 2.87 1.07 2.02-.11 1.99-.82 0-.15-.17-.4a9 9 0 0 1-2.23-5.59q-.15-4.03 3.28-7.31 3.44-3.27 9.71-4.48l-.77 3.6-1.29 5.99-1.07 5.01q-3.7.72-3.66 2.15.06 1.44 2.22 1.29l.76-.05q-1.27 6.46-2.84 9.1-1.81 2.96-4.78 3.11a4.5 4.5 0 0 1-2.13-.29l-1.33-.54-.75-.37a1 1 0 0 0-.38-.08q-.75.04-1.4.94-.65.91-.62 1.54.02.63.13.78.75 1.23 2.78 2.01 2.03.76 3.99.66 5.4-.3 8.08-5.37 1.5-2.89 3.48-10.89l.22-.93q3.11-.42 6.23-.89 1.06-.09.99-1.74-.06-1.64-1.12-1.54-2.77.25-5.54.48 1.33-6.14 2.47-14.63 1.75-.36 3.42-.51"/>
  <path fill="#cb2027" d="M141.31 100.12q-1.36.15-2.21.97a2.6 2.6 0 0 0-.8 2.08q.1 2.38 2.81 2.08a3 3 0 0 0 2.08-.99 3 3 0 0 0 .73-2.16q-.1-2.27-2.6-1.99"/>
  <path fill="#cb2027" d="M171.51 111.92q-.37 3.6-1.2 5.06t-2.24 1.65q-1.76.24-2-2.06l-.02-.56a8.4 8.4 0 0 1 1.57-5.18 6.1 6.1 0 0 1 4.34-2.82l-.46 3.92m5.11-14.18q.5-2.07 1-3.51.9-2.86 2.56-3.1.96-.13 1.03 1.76t-.83 4.61a37 37 0 0 1-1.7 4.35 73 73 0 0 1-1.84 3.53 34 34 0 0 1-1.14 2.01q-.19.43-.37.76.8-8.33 1.3-10.4m8.42 15.26a1.4 1.4 0 0 0-1.07-.31q-.55.07-.79.37-2.68 4.08-5.29 4.44-2.31.32-2.48-4.02l-.02-.45 2.23-3.76q1.95-3.27 2.72-4.74t2.09-4.3q2.39-5.05 2.22-9.49a9 9 0 0 0-.09-1.05 3.2 3.2 0 0 0-1.22-2.21 3.2 3.2 0 0 0-2.58-.65q-7.03.98-8.71 18.05a5 5 0 0 0-1.77-.06q-3.37.46-5.85 4.21a13 13 0 0 0-2.33 7.88q-2.22 2.32-3.88 2.89l-.38.07q-.33.06-.35-.46-.02-.53.05-1.25t1.21-4.79 1.09-5.18q-.03-.7-.8-1.24a2.5 2.5 0 0 0-1.78-.41q-1.97.25-4.38 2.95a35 35 0 0 0-4.87 7.55 48 48 0 0 1 1.58-7.68q.04-.15.03-.59t-.43-.79a1.3 1.3 0 0 0-1.02-.28q-1.56.18-2.15 2.07a36 36 0 0 0-1.76 9.44q-2.38 2.88-4.23 3.07-1.77.18-1.85-2.19-.06-1.77.73-4.78a24 24 0 0 1 1.33-4.09q.54-1.06.52-1.47-.01-.4-.56-.7t-1.27-.22a3 3 0 0 0-1.3.41q-.57.33-1.32 1.88a22 22 0 0 0-1.44 4.62 21 21 0 0 0-.61 5.3 4.7 4.7 0 0 0 1.5 3.48 4.6 4.6 0 0 0 3.68 1.02q2.63-.27 5.06-2.44.47 1.7 1.73 1.6.95-.1 1.37-.59.4-.48.96-2.06.54-1.58 3.15-5.57t3.44-4.45h.05q.1 0 .11.21 0 .22-.88 3.48a18 18 0 0 0-.82 4.91q.12 3.18 3.04 2.82 1.6-.2 3.98-1.62 1.28-.77 2.31-1.8.33.58.79 1.04a4.2 4.2 0 0 0 3.68 1.18q3.82-.52 5.14-4.3 1.69 3.27 5.06 2.8 4.32-.6 7.62-5.53.38-.61.36-1.22-.02-.6-.54-.99"/>
  <path fill="#cb2027" d="M228.67 109.22q-1.08 1.6-2.38 1.76-2.57.32-2.69-3.02a9.5 9.5 0 0 1 1.18-4.83q1.27-2.41 3.18-2.64.5-.06.79.21.28.27.36.92-1.26 1.41-1.21 2.68.05 1.26 1.94 1.85a6 6 0 0 1-1.17 3.08M205.2 129.1q-.86 1.38-1.36 1.46-.96.13-1.01-1.28-.1-2.78 6.65-11.06-2.2 7.5-4.28 10.88m66.54-29.85q-.5-.54-.8-.52-.3 0-.4.07-2.42 1.57-3.5 1.63t-1.11-.7q0-.3.46-1.77.48-1.47.43-2.57-.07-1.72-2.28-1.6-1.56.08-3.92 3.93a27 27 0 0 0-3.15 6.79l1.63-9.02a1.3 1.3 0 0 0-.44-.98 1.4 1.4 0 0 0-1.07-.33q-1.67.11-2.33 2.45a38 38 0 0 0-1.16 8.41q-2.45 3.01-4.05 3.25-.7.06-.75-1.1l.03-.61q.32-4.78 1.88-10.23l.04-.21q-.02-.56-.59-.96a2 2 0 0 0-1.35-.34q-.78.06-1.24.57a6 6 0 0 0-.9 2.21l-1.17 5.17a12 12 0 0 1-2.07 4.58q-1.38 1.72-2.73 1.87-1.71.18-1.8-2.3l-.01-.35q.1-2.6 1.18-6.1a35 35 0 0 0 1.07-3.83q-.01-.33-.53-.66t-1.5-.23-1.54 1.2a26 26 0 0 0-1.47 4.49l-.07.28a10 10 0 0 1-3.17 1.69q.16-1.13.14-1.64a5 5 0 0 0-1.58-3.67 4.4 4.4 0 0 0-3.6-1.1q-3.62.43-6.19 3.97-.52.72-.92 1.46a130 130 0 0 0-5.52 5.22l4-19.63q.2-1.14.19-1.75-.06-1.67-2.18-1.39-1.52.2-1.92 2.58l-3.52 17.7a23 23 0 0 1-4.61 5.11q-2.55 2.06-4.66 2.34a3.6 3.6 0 0 1-3.38-1.15q-1.27-1.44-1.4-4.83-.24-6.51 4.03-18.92.1-.32.08-.47-.03-.86-1.52-.65-1.48.2-2.33 1.85-4.81 10.26-4.52 18.03.19 4.95 2.36 7.53a5.8 5.8 0 0 0 5.59 2.11q4.72-.66 9.7-6.55-.3 1.56-.65 2.98c-7.82 8.66-11.65 14.98-11.51 18.88q.06 1.41.97 2.25.92.84 2.42.63 4.37-.6 6.86-5.61 2.49-5 4.99-16.34 2.5-2.7 5.05-5.14-.07.72-.04 1.45a6 6 0 0 0 1.78 4.34 4.9 4.9 0 0 0 4.19 1.3q5.88-.71 7.29-7.6c1.15-.45 2.09-.92 2.92-1.47q-.14 1.34-.1 2.62a6 6 0 0 0 1.22 3.67q1.14 1.35 3.3 1.12a5.6 5.6 0 0 0 3.67-1.89 9 9 0 0 0 2-3.28l-.09 1.58q.16 2.97 3.13 2.7 1.86-.17 4.89-2.41l.37-.28q.43 2.02 2.04 1.89a2.3 2.3 0 0 0 2.12-1.47 61 61 0 0 1 4.25-10.44q.71-1.26.76-1.26a87 87 0 0 0-.68 3.33q.1 2.92 3.54 2.73 2.88-.15 5.8-2.99.2-.2.18-.64-.01-.43-.52-.97"/>
  <path fill="#cb2027" d="M43.35 210.32c.09-.49.41-.66.82-.46 2.33 1.03 5.12 1.74 6.87 1.65 1.47-.08 2.45-.94 2.34-2.03-.3-2.77-13.69-1.41-14.79-11.84-.68-6.41 3.69-11 10.94-11.57 3.39-.27 7.83.82 11.05 2.6.41.2.59.57.47.82l-2.29 6.89c-.09.48-.41.65-.82.45-2.48-1.12-5.38-1.96-6.99-1.9-1.42.05-2.36.86-2.25 1.9.3 2.8 13.78 1.48 14.89 11.74.67 6.2-3.79 10.81-11.14 11.58-4.01.42-8.34-.36-10.93-2.02-.41-.25-.59-.57-.47-.82l2.29-6.99"/>
  <path fill="#cb2027" d="M108.06 181.21c.48-.05.76.31.66.77a4257 4257 0 0 1-5.36 31.62c-.1.42-.54.79-.97.83l-8.3.83c-.43.04-1.04-.22-1.18-.62-2.45-6.26-3.67-9.42-6.12-15.79-1.02 6.7-1.54 10.03-2.56 16.65-.05.42-.59.8-1.02.84l-8.3.83a1.2 1.2 0 0 1-1.13-.63q-6.07-14.93-12.01-29.91c-.19-.42 0-.83.49-.87 4.27-.37 6.41-.57 10.69-.97.48-.04 1.04.3 1.18.73 1.69 5.73 2.54 8.38 4.23 13.85.86-5.7 1.3-8.47 2.16-14.46.09-.5.63-.9 1.2-.96l6.87-.69c.57-.06 1.18.22 1.37.7 2.07 5.7 3.11 8.39 5.19 13.79l1.21-14.45c.05-.45.53-.9 1.01-.95z"/>
  <path fill="#cb2027" d="M135.36 202.69c.38-.04.75.2.78.53l.77 7.06c.04.32-.26.68-.64.72-8.87.92-13.31 1.37-22.19 2.26-.33.03-.71-.3-.84-.61a6361 6361 0 0 1-3.35-30.95q-.06-.67.6-.76c8.68-.95 13.03-1.43 21.71-2.42.43-.05.8.25.83.59l.76 7.3c.05.43-.26.76-.69.81l-12.45 1.43.4 3.72 10.11-1.12c.43-.05.7.26.69.54l.04 6.64c-.02.28-.32.65-.75.69l-9.26.99.43 3.94c5.21-.54 7.81-.82 13.02-1.38"/>
  <path fill="#cb2027" d="M161.6 199.68c.38-.05.75.2.78.53l.77 7.17c.04.33-.26.69-.65.74-8.87 1.01-13.31 1.54-22.19 2.46-.33.04-.71-.3-.84-.61q-1.7-15.6-3.34-31.19-.06-.67.6-.76c8.68-.99 13.03-1.53 21.71-2.58.43-.05.8.25.83.58l.76 7.27c.05.43-.26.76-.69.81l-12.45 1.51.4 3.77 10.11-1.22c.43-.05.7.25.69.54l.04 6.71c-.02.29-.32.66-.75.71l-9.26 1.1.43 3.98 13.03-1.53"/>
  <path fill="#cb2027" d="M174.34 173.5c8.35-1.01 13.84 2.93 14.56 9.75s-3.81 11.95-12.16 12.97l-1.96.24 1.01 9.44c.04.33-.26.7-.69.75l-8.54.99a.7.7 0 0 1-.74-.58 11135 11135 0 0 1-3.34-31.39c-.04-.39.26-.77.59-.81l11.26-1.37m1.94 14.19a2.76 2.76 0 0 0 2.52-3.16c-.18-1.67-1.44-2.68-3.11-2.47l-2.48.31.6 5.64z"/>
  <path fill="#cb2027" d="M194.76 194.21c.09-.49.41-.68.82-.49 2.33.97 5.12 1.61 6.87 1.47 1.47-.12 2.45-1.03 2.34-2.13-.3-2.82-13.69-.99-14.79-11.39-.68-6.39 3.69-11.22 10.94-12.08 3.39-.4 7.83.47 11.05 2.14.41.19.59.55.47.8l-2.29 7.03c-.09.49-.41.68-.82.48-2.48-1.04-5.38-1.77-6.99-1.64-1.42.11-2.36.96-2.25 2.01.3 2.8 13.78.9 14.89 11.42.67 6.36-3.79 11.25-11.14 12.13-4.01.48-8.34-.26-10.93-1.88-.41-.24-.59-.56-.47-.81l2.29-7.08"/>
  <path fill="#cb2027" d="M239.85 165.83c.43-.05.75.24.74.57l.05 7.14c0 .38-.36.7-.69.74l-7.11.83c1 9.31 1.51 14.02 2.51 23.63a.7.7 0 0 1-.6.76l-8.44 1.02c-.38.05-.75-.25-.79-.59-1-9.58-1.51-14.3-2.51-23.65l-7.92.95a.67.67 0 0 1-.74-.58l-.76-7.12c-.04-.38.26-.74.59-.78 10.27-1.2 15.4-1.78 25.67-2.92"/>
  <path fill="#cb2027" d="M272 194.57c.17.28.02.64-.36.68l-9.45 1.06a1.1 1.1 0 0 1-1.07-.52l-1.96-4.93-8.97 1.03-.9 5.24c-.15.41-.51.7-.94.74-3.78.43-5.67.67-9.45 1.13-.38.05-.61-.27-.49-.58q3.61-16.35 7.42-32.65c.11-.29.6-.67 1.08-.72l9.73-1.01c.48-.05 1.04.22 1.21.48a1191 1191 0 0 1 14.14 30.05m-19-18.97c-.65 3.66-.97 5.5-1.61 9.22l5.15-.59c-1.41-3.47-2.12-5.2-3.54-8.63"/>
  <path fill="#cb2027" d="M301.12 191.51c.27.32.11.58-.27.62-4.43.45-6.64.68-11.07 1.15-.33.04-.84-.16-1.06-.48a509 509 0 0 0-7.18-11.33c.5 4.63.75 7.02 1.25 11.87a.7.7 0 0 1-.64.76l-8.45.92c-.33.04-.7-.27-.74-.61a7935 7935 0 0 0-3.34-31c-.04-.37.26-.72.59-.75l8.44-.85a.7.7 0 0 1 .79.61l1.13 10.28c1.83-4.43 2.75-6.62 4.58-10.99.16-.34.61-.61 1.04-.66l10.45-1.04c.38-.04.55.17.4.51-3.14 6.17-4.71 9.26-7.84 15.52 4.77 6.06 7.16 9.06 11.93 15.47"/>
  <path fill="#cb2027" d="M324.94 181.2c.38-.03.75.22.78.55l.77 7.26c.04.34-.26.71-.65.74-8.87.78-13.31 1.21-22.19 2.1-.33.03-.71-.32-.84-.66a7843 7843 0 0 0-3.34-30.82q-.06-.62.6-.71c8.68-.86 13.03-1.29 21.71-2.17.43-.04.8.25.83.57l.76 7c.05.42-.26.73-.69.77l-12.45 1.19.4 3.65 10.11-.95c.43-.04.7.26.69.55l.04 6.59c-.02.28-.32.64-.75.68l-9.26.84.43 3.97c5.21-.48 7.81-.71 13.02-1.16"/>
  <path fill="#cb2027" d="M330.8 179.28c.09-.48.41-.65.82-.45 2.32 1.04 5.12 1.79 6.87 1.72 1.47-.06 2.45-.91 2.34-2-.3-2.79-13.69-1.53-14.79-11.7-.68-6.25 3.69-10.85 10.94-11.6 3.39-.35 7.83.56 11.05 2.29.41.2.59.56.47.82l-2.29 6.99c-.09.49-.41.66-.82.46-2.48-1.11-5.38-1.91-6.99-1.83-1.42.07-2.36.89-2.25 1.92.3 2.77 13.78 1.35 14.89 11.88.67 6.37-3.79 10.96-11.14 11.54-4.01.32-8.34-.64-10.92-2.33-.41-.25-.59-.57-.47-.82z"/>
  <path fill="#cb2027" d="M226.85 75.91h-75a3.47 3.47 0 0 1-3.47-3.47V22.48a3.47 3.47 0 0 1 3.47-3.47h75a3.47 3.47 0 0 1 3.47 3.47v49.96a3.47 3.47 0 0 1-3.47 3.47"/>
  <path fill="#fff" d="M216.05 32.55a1.28 1.28 0 0 1 0 2.56c-.7 0-1.28-.58-1.28-1.28s.58-1.28 1.28-1.28m0 2.81a1.53 1.53 0 1 0 0-3.06 1.53 1.53 0 0 0 0 3.06"/>
  <path fill="#fff" d="M215.87 33.39h.21q.24 0 .22.15c0 .13-.12.15-.2.15h-.24zm0 .6h.24c.18 0 .19.15.2.29q0 .11.04.23h.45c-.04-.07-.04-.24-.05-.31q-.03-.28-.22-.37c.15-.06.22-.22.22-.37 0-.28-.22-.42-.48-.42h-.86v1.47h.45V34Z"/>
  <path fill="#fff" d="m214.96 50.55-25.62 7.37s-23.76-6.85-25.62-7.37c-1.8-.58-1.74-2.4-1.33-3.58l3.99-10.9c.5-1.35 1.58-1.92 2.32-1.92h41.29c.73 0 1.82.57 2.31 1.92l3.99 10.9c.41 1.18.47 3-1.33 3.58m2.49-2.8-3.68-12.64c-.94-2.83-3.74-2.82-4.05-2.82h-40.76c-.3 0-3.11 0-4.05 2.82 0 0-3.3 11.25-3.68 12.64a3.74 3.74 0 0 0 1.87 4.35l26.24 11.41 26.24-11.41c1.87-.96 2.26-2.96 1.87-4.35"/>
  <path fill="#fff" d="M188.05 42.3h2.59v2.47h-2.59z"/>
  <path fill="#fff" d="M207.7 44.38h-1.67v-2.81h1.67a1.4 1.4 0 1 1 0 2.82m-.14-5.31h-4.01v9.7h2.49v-1.92h1.52a3.89 3.89 0 1 0 0-7.78"/>
  <path fill="#fff" d="M196.94 46.24a2.3 2.3 0 1 1 0-4.62 2.31 2.31 0 0 1 0 4.62m0-7.16a4.85 4.85 0 1 0 0 9.7 4.85 4.85 0 0 0 0-9.7"/>
  <path fill="#fff" d="M181.75 46.24a2.3 2.3 0 1 1 0-4.62 2.31 2.31 0 0 1 0 4.62m0-7.16a4.85 4.85 0 1 0 0 9.7 4.85 4.85 0 0 0 0-9.7"/>
  <path fill="#fff" d="M172.14 41.62c.8 0 1.51.42 1.92 1.04l1.68-1.98a4.85 4.85 0 1 0-.1 6.61l-1.67-1.95a2.32 2.32 0 0 1-4.14-1.41 2.3 2.3 0 0 1 2.31-2.31"/>
</svg>
