<svg xmlns="http://www.w3.org/2000/svg" width="302" height="77" viewBox="0 0 302 77">
  <path fill="#faae1b" d="M302 7.61H60.97a38.12 38.12 0 1 0 0 61.02H302z"/>
  <path fill="#fff" d="M77.44 14.6c3.76 0 6.25 2.43 6.25 6.11s-2.5 6.11-6.25 6.11h-4.11c-.12 0-.25-.12-.25-.27V14.86c0-.14.12-.27.25-.27zm.21 9.03c1.36 0 2.28-1.17 2.28-2.92s-.92-2.92-2.28-2.92h-.92v5.84z"/>
  <path fill="#fff" d="M94.8 26.54c.09.16-.04.28-.19.28h-3.79a.5.5 0 0 1-.41-.28l-1.84-3.86h-.21v3.9c0 .12-.12.25-.28.25h-3.12c-.14 0-.27-.12-.27-.25V14.87c0-.14.12-.27.27-.27h4.68c2.73 0 4.53 1.59 4.53 4 0 1.4-.85 2.82-2.18 3.38l2.82 4.55Zm-5.4-6.87c.6 0 1.01-.37 1.01-.94s-.41-.94-1.01-.94h-1.05v1.88z"/>
  <path fill="#fff" d="M103.96 23.63c.14 0 .27.11.27.23v2.71c0 .12-.12.25-.27.25h-8.24c-.12 0-.25-.14-.28-.27V14.84q0-.25.25-.25h8.06c.16 0 .28.12.28.25v2.67c0 .16-.12.27-.28.27h-4.62v1.4h3.76c.16 0 .25.12.23.23l-.25 2.48c-.02.11-.14.23-.3.23h-3.44v1.51h4.84Z"/>
  <path fill="#fff" d="M116.77 26.59c.05.11-.02.23-.16.23h-3.51a.4.4 0 0 1-.37-.23l-.53-1.86h-3.33l-.53 1.86a.4.4 0 0 1-.37.23h-3.51c-.14 0-.21-.12-.16-.23l4-11.76c.05-.11.25-.23.43-.23h3.61c.18 0 .37.12.43.23zm-6.23-7.76-.96 3.37h1.91z"/>
  <path fill="#fff" d="M130.87 14.6c.14 0 .25.12.25.27v11.71c0 .12-.11.25-.25.25h-3.28c-.14 0-.27-.12-.27-.25v-5.21l-1.79 5.19c-.05.14-.28.27-.44.27h-1.95c-.16 0-.39-.12-.44-.27l-1.79-5.19v5.21c0 .12-.12.25-.27.25h-3.28a.25.25 0 0 1-.25-.25V14.87c0-.14.11-.27.25-.27h3.7c.23 0 .5.16.6.35l2.44 6.77 2.44-6.77a.8.8 0 0 1 .6-.35h3.7Z"/>
  <path fill="#fff" d="M78.66 32.32c2.32 0 3.86 1.38 3.86 3.45 0 1.28-.62 2.21-1.58 2.5 1.12.28 1.84 1.35 1.84 2.82 0 2.07-1.54 3.45-3.84 3.45h-5.61a.25.25 0 0 1-.25-.25V32.58c0-.12.11-.27.25-.27zm-.81 4.8c.53 0 .89-.32.89-.82s-.35-.81-.89-.81h-1.12v1.63zm.32 4.25c.51 0 .87-.34.87-.85s-.35-.85-.87-.85h-1.43v1.7z"/>
  <path fill="#fff" d="M95 44.31c.05.11-.02.23-.16.23h-3.51a.4.4 0 0 1-.37-.23l-.53-1.86H87.1l-.53 1.86a.4.4 0 0 1-.37.23h-3.51c-.14 0-.21-.12-.16-.23l4-11.76c.05-.11.25-.23.43-.23h3.61c.18 0 .37.12.43.23zm-6.24-7.76-.96 3.37h1.91z"/>
  <path fill="#fff" d="M104.33 43.46q.06.2-.16.32a7.3 7.3 0 0 1-3.72 1.03c-3.65 0-6.09-2.55-6.09-6.38s2.44-6.38 6.09-6.38a7.3 7.3 0 0 1 3.72 1.03q.22.11.16.32l-1.17 2.46q-.11.24-.34.14a4 4 0 0 0-2.05-.5c-1.59 0-2.66 1.17-2.66 2.92s1.06 2.92 2.66 2.92c.76 0 1.4-.12 2.05-.5q.22-.1.34.14l1.17 2.46Z"/>
  <path fill="#fff" d="M115.8 44.33c.09.12.02.21-.12.21h-4.11a.5.5 0 0 1-.37-.21L109 39.9v4.39c0 .12-.11.25-.27.25h-3.14c-.12 0-.25-.12-.25-.25V32.58c0-.14.12-.27.25-.27h3.14c.16 0 .27.12.27.27v3.97l2.13-4.02c.07-.12.25-.21.41-.21h3.88q.22.02.12.21l-3.51 5.61z"/>
  <path fill="#fff" d="M125.2 32.32c.16 0 .28.12.19.28l-3.91 7.05v4.64c0 .12-.12.25-.27.25h-3.12c-.14 0-.27-.12-.27-.25v-4.64l-3.91-7.05c-.09-.16.04-.28.19-.28h3.68q.29.02.41.28l1.45 3.19 1.45-3.19a.5.5 0 0 1 .41-.28h3.68Z"/>
  <path fill="#fff" d="M135.85 44.31c.05.11-.02.23-.16.23h-3.51a.4.4 0 0 1-.37-.23l-.53-1.86h-3.33l-.53 1.86a.4.4 0 0 1-.37.23h-3.51c-.14 0-.21-.12-.16-.23l4-11.76c.05-.11.25-.23.43-.23h3.61c.18 0 .37.12.43.23zm-6.23-7.76-.96 3.37h1.91l-.96-3.37Z"/>
  <path fill="#fff" d="M146.32 44.26c.09.16-.04.28-.19.28h-3.79a.5.5 0 0 1-.41-.28l-1.84-3.86h-.21v3.9c0 .12-.12.25-.28.25h-3.12c-.14 0-.27-.12-.27-.25V32.59c0-.14.12-.27.27-.27h4.68c2.73 0 4.53 1.59 4.53 4 0 1.4-.85 2.82-2.18 3.38l2.82 4.55Zm-5.4-6.88c.6 0 1.01-.37 1.01-.94s-.41-.94-1.01-.94h-1.04v1.88z"/>
  <path fill="#fff" d="M151.35 32.32c3.75 0 6.25 2.43 6.25 6.11s-2.5 6.11-6.25 6.11h-4.11c-.12 0-.25-.12-.25-.27V32.58c0-.14.12-.27.25-.27h4.11Zm.22 9.03c1.36 0 2.28-1.17 2.28-2.92s-.92-2.92-2.28-2.92h-.92v5.84z"/>
  <path fill="#fff" d="M80.38 50.38v8.07q0 1.35-.39 2.24A2.7 2.7 0 0 1 78.83 62q-.77.43-1.88.43-1.67 0-2.55-.97t-.88-2.98v-8.09h1.78v8.06q0 1.28.43 1.83.44.56 1.23.56.55 0 .91-.24.37-.24.55-.77c.18-.53.18-.82.18-1.4v-8.04h1.79Z"/>
  <path fill="#fff" d="M85.15 50.38q1.78 0 2.64.89t.86 2.69q0 .91-.22 1.62c-.22.71-.37.88-.66 1.21q-.44.5-1.11.76a4 4 0 0 1-1.58.26h-.71v4.44h-1.79V50.37h2.57Zm-.11 1.53h-.67v4.35h.54q.66 0 1.1-.23.43-.23.64-.74.21-.5.21-1.33 0-1.1-.44-1.57-.45-.48-1.37-.48Z"/>
  <path fill="#fff" d="M94.2 55.8h3.36v6q-.79.31-1.62.46c-.83.15-1.11.15-1.68.15q-1.46 0-2.42-.78t-1.44-2.16c-.48-1.38-.48-1.99-.48-3.2s.18-2.27.53-3.18q.52-1.37 1.57-2.13a4.2 4.2 0 0 1 2.57-.76q.8 0 1.51.2t1.3.56l-.56 1.49a4 4 0 0 0-1.08-.51 4 4 0 0 0-1.11-.17q-.94 0-1.58.53t-.96 1.55a8 8 0 0 0-.32 2.49q0 1.32.27 2.34t.84 1.59 1.48.57a5 5 0 0 0 1.43-.23v-3.27h-1.62V55.8Z"/>
  <path fill="#fff" d="M101.97 50.38q1.26 0 2.08.37t1.23 1.12q.4.75.41 1.89 0 .77-.19 1.37t-.58 1.07q-.4.46-1.01.78l2.43 5.28h-1.97l-2.04-4.83h-.97v4.83h-1.79V50.38zm0 1.54h-.61v4.05h.72q.86 0 1.32-.53t.46-1.6q0-1-.46-1.47t-1.43-.46Z"/>
  <path fill="#fff" d="m112.63 62.25-.76-3.34h-2.73l-.76 3.34h-1.92l2.88-11.88h2.26l2.92 11.88h-1.9Zm-1.05-4.93-.77-3.58-.12-.68-.11-.64-.09-.59-.07.58q-.04.32-.11.63l-.13.67-.76 3.61z"/>
  <path fill="#fff" d="M122.66 56.13q0 2-.5 3.36a4.2 4.2 0 0 1-1.49 2.06q-.99.7-2.43.7h-2.57V50.37h2.7q1.4 0 2.35.66a4 4 0 0 1 1.45 1.94q.5 1.29.49 3.15Zm-1.84.09q0-1.44-.28-2.4a3 3 0 0 0-.83-1.42 2 2 0 0 0-1.38-.47h-.87v8.73h.75q1.35 0 1.98-1.11.63-1.1.63-3.34Z"/>
  <path fill="#fff" d="M129.58 62.25h-5V50.37h5v1.54h-3.22v3.37h3.01v1.55h-3.01v3.83h3.22v1.58Z"/>
  <path fill="#fff" d="M137.07 50.38q1.78 0 2.64.89t.86 2.69q0 .91-.22 1.62c-.22.71-.37.88-.66 1.21q-.43.5-1.11.76a4 4 0 0 1-1.58.26h-.71v4.44h-1.79V50.37h2.57Zm-.12 1.53h-.67v4.35h.54q.66 0 1.1-.23.43-.23.64-.74.21-.5.21-1.33 0-1.1-.44-1.57-.44-.48-1.37-.48Z"/>
  <path fill="#fff" d="m147.22 62.25-.76-3.34h-2.73l-.76 3.34h-1.92l2.88-11.88h2.26l2.92 11.88zm-1.06-4.93-.77-3.58-.12-.68-.11-.64-.09-.59-.07.58-.1.63-.13.67-.76 3.61z"/>
  <path fill="#fff" d="M154.12 51.77q-.62 0-1.06.35t-.74.98q-.28.63-.43 1.46c-.15.83-.14 1.14-.14 1.77q0 1.43.29 2.43.3 1.01.84 1.54.56.53 1.32.53a3 3 0 0 0 1-.16q.47-.16.9-.38v1.6q-.45.26-.99.38-.53.13-1.16.13-1.28 0-2.19-.72c-.91-.72-1.07-1.18-1.4-2.09s-.49-2.01-.49-3.29q0-1.3.26-2.41.25-1.11.78-1.95.51-.84 1.29-1.3c.78-.46 1.11-.46 1.79-.46a4.7 4.7 0 0 1 2.41.66l-.56 1.49q-.4-.27-.84-.42c-.44-.15-.59-.15-.91-.15Z"/>
  <path fill="#fff" d="M164.82 62.25h-1.99l-2.28-5.21-.8.86v4.35h-1.79V50.37h1.79v5.75q.09-.27.3-.69t.52-.97l2.23-4.09h1.93l-2.93 5.26z"/>
  <path fill="#fff" d="m170.89 62.25-.76-3.34h-2.73l-.76 3.34h-1.92l2.88-11.88h2.26l2.92 11.88zm-1.06-4.93-.77-3.58-.12-.68-.11-.64-.09-.59-.07.58-.1.63-.13.67-.76 3.61z"/>
  <path fill="#fff" d="M177.84 55.8h3.36v6q-.79.31-1.62.46c-.83.15-1.11.15-1.68.15q-1.46 0-2.43-.78a4.7 4.7 0 0 1-1.44-2.16q-.48-1.38-.48-3.2c0-1.82.18-2.27.53-3.18s.87-1.62 1.57-2.13 1.55-.76 2.57-.76q.8 0 1.51.2t1.3.56l-.56 1.49q-.54-.34-1.08-.51c-.54-.17-.73-.17-1.11-.17q-.94 0-1.58.53t-.96 1.55c-.32 1.02-.32 1.51-.32 2.49q0 1.32.27 2.34t.84 1.59 1.48.57a5 5 0 0 0 1.43-.23v-3.27h-1.62V55.8Z"/>
  <path fill="#fff" d="M188.22 62.25h-5V50.37h5v1.54H185v3.37h3.01v1.55H185v3.83h3.22v1.58Z"/>
  <path fill="#fff" d="m39.21 17.42 16.02 8.29c.13.07.16.24.06.34a7.54 7.54 0 0 1-9.87.76c-.45-.33-.66-.67-1-1.11a1 1 0 0 0-.25-.19c-.54-.21-.97-.13-1.37.39a5.9 5.9 0 0 1-5.35 2.37 5.9 5.9 0 0 1-4.87-2.73.3.3 0 0 0-.31-.14l-.86.1a.3.3 0 0 0-.21.12l-.66.86-.09.09a7.45 7.45 0 0 1-8.9.42 4 4 0 0 1-1.07-1.01.2.2 0 0 1 .07-.3l15.8-8.3a.3.3 0 0 0 .16-.24q.05-.9.02-1.66c-.04-1.44 1.56-2.33 2.38-.89.28.49.17 2.23.17 2.58q0 .18.16.26Z"/>
  <path fill="#fff" d="M20.91 29.02c3.08 2.14 8.07 1.51 10.88-.93a.2.2 0 0 1 .24 0 8.8 8.8 0 0 0 11.55.05c.08-.07.21-.07.28 0 2.75 2.55 7.47 2.82 10.79.95a.1.1 0 0 1 .14.11 1.6 1.6 0 0 1-.66.92q-5.04 3.57-10.29.35a.2.2 0 0 0-.26 0 9 9 0 0 0-.73.42 9 9 0 0 1-3.68 1.25.2.2 0 0 0-.15.17v9.76s.04.08.08.08h14.47s.07.03.07.06v2.4s-.02.05-.06.05H22.04s-.03-.02-.03-.04v-2.38s.04-.08.08-.08h14.24q.13-.02.15-.15v-9.77a.2.2 0 0 0-.16-.18 9 9 0 0 1-4.21-1.67.3.3 0 0 0-.3-.02q-5.67 3.4-10.83-.6-.04-.04-.07-.1l-.19-.53c-.04-.11.08-.19.17-.13Z"/>
  <path fill="#fff" d="M26.38 59.29h-3.5a.16.16 0 0 1-.16-.16v-2.86a.2.2 0 0 0-.17-.17h-3.76q-.14.02-.14.15v2.96s-.03.06-.06.06h-3.45a.16.16 0 0 1-.16-.16c-.01-2.74.16-4.34-.29-6.51q-.09-.42-.58-3.62a16 16 0 0 1-.25-2.02 2.21 2.21 0 0 1 3.76-1.21q.39.4.61 2 .21 1.47.6 3.67.03.11.14.12h6.51q.12 0 .24.04.8.38.81.95.06 2.46.04 6.58-.01.15-.16.16Z"/>
  <path fill="#fff" d="M49.21 59.14q-.02-4.12.03-6.58 0-.57.81-.96a1 1 0 0 1 .24-.05h6.52q.1 0 .14-.12.39-2.21.6-3.67.22-1.6.61-2.01c1.25-1.32 3.53-.55 3.76 1.21q.03.2-.25 2.02-.48 3.2-.58 3.62c-.45 2.17-.27 3.78-.28 6.52q-.01.15-.16.16h-3.46s-.06-.03-.06-.06v-2.96a.15.15 0 0 0-.15-.15h-3.76a.2.2 0 0 0-.17.17v2.86q-.01.15-.16.16h-3.51a.16.16 0 0 1-.16-.16Z"/>
  <path fill="#fff" d="M37.86 46.76q11.83-.01 11.88-.02.16-.02.19.15l.07 2.54q-.01.17-.17.18h-2.56a.2.2 0 0 0-.2.2v9.38q0 .08-.09.09h-3.69a.14.14 0 0 1-.14-.14v-4.59a.1.1 0 0 0-.11-.09H32.71a.1.1 0 0 0-.09.09v4.59q-.01.13-.14.14h-3.69s-.09-.03-.09-.09l-.02-9.38a.2.2 0 0 0-.2-.2h-2.56q-.17-.01-.18-.17l.06-2.54q.02-.17.19-.15l11.89-.01m5.26 3.42s-.04-.08-.08-.08l-10.38.02s-.08.04-.08.08v1.91s.04.08.08.08l10.38-.02s.08-.04.08-.08z"/>
</svg>
