<svg xmlns="http://www.w3.org/2000/svg" width="302" height="77" viewBox="0 0 302 77">
  <path fill="#aa608c" d="M302 7.61H60.97a38.12 38.12 0 1 0 0 61.02H302z"/>
  <path fill="#fff" d="M82.77 25.74q.06.2-.16.32a7.3 7.3 0 0 1-3.72 1.03c-3.65 0-6.09-2.55-6.09-6.38s2.44-6.38 6.09-6.38a7.3 7.3 0 0 1 3.72 1.03q.22.12.16.32l-1.17 2.46q-.11.24-.34.14a4 4 0 0 0-2.05-.5c-1.59 0-2.66 1.17-2.66 2.92s1.06 2.92 2.66 2.92c.76 0 1.4-.12 2.05-.5q.22-.1.34.14l1.17 2.46Z"/>
  <path fill="#fff" d="M89.33 27.07c-3.77 0-6.29-2.55-6.29-6.36s2.52-6.39 6.29-6.39 6.29 2.55 6.29 6.39-2.52 6.36-6.29 6.36m0-9.17c-1.45 0-2.43 1.13-2.43 2.82s.97 2.82 2.43 2.82 2.43-1.13 2.43-2.82-.97-2.82-2.43-2.82"/>
  <path fill="#fff" d="M102.47 22.89c0 .16-.12.27-.27.27h-5.22c-.12 0-.25-.11-.25-.27v-1.95c0-.14.12-.25.25-.25h5.22c.14 0 .27.11.27.25z"/>
  <path fill="#fff" d="M109.86 27.07c-3.77 0-6.29-2.55-6.29-6.36s2.52-6.39 6.29-6.39 6.29 2.55 6.29 6.39-2.52 6.36-6.29 6.36m0-9.17c-1.45 0-2.43 1.13-2.43 2.82s.97 2.82 2.43 2.82 2.43-1.13 2.43-2.82-.97-2.82-2.43-2.82"/>
  <path fill="#fff" d="M121.7 14.6c3.1 0 4.96 1.68 4.96 4.22s-1.86 4.22-4.96 4.22h-.73v3.54c0 .12-.12.25-.28.25h-3.17c-.12 0-.25-.12-.25-.25V14.87c0-.14.12-.27.25-.27zm.16 5.26c.62 0 1.04-.42 1.04-1.04s-.42-1.04-1.04-1.04h-.92v2.09h.92Z"/>
  <path fill="#fff" d="M76.51 32.39c.16 0 .27.12.27.27v11.71c0 .12-.11.25-.27.25h-3.17a.26.26 0 0 1-.25-.25V32.66c0-.14.13-.27.25-.27z"/>
  <path fill="#fff" d="M91.95 32.39c.14 0 .25.12.25.27v11.71c0 .12-.11.25-.25.25h-3.31c-.14 0-.27-.12-.27-.25v-5.21l-1.81 5.19c-.05.14-.29.27-.45.27h-1.97c-.16 0-.39-.12-.45-.27l-1.81-5.19v5.21c0 .12-.13.25-.27.25H78.3a.25.25 0 0 1-.25-.25V32.66c0-.14.11-.27.25-.27h3.74c.23 0 .5.16.61.35l2.47 6.77 2.47-6.77a.8.8 0 0 1 .61-.35h3.74Z"/>
  <path fill="#fff" d="M105.16 44.38c.05.11-.02.23-.16.23h-3.54a.4.4 0 0 1-.38-.23l-.54-1.86h-3.36l-.54 1.86a.4.4 0 0 1-.38.23h-3.54c-.14 0-.21-.12-.16-.23l4.04-11.76c.05-.11.25-.23.43-.23h3.65c.18 0 .38.12.43.23zm-6.3-7.76-.97 3.37h1.93z"/>
  <path fill="#fff" d="M115.34 37.12c.14 0 .27.12.27.25V43q-.02.25-.21.43a7 7 0 0 1-4.44 1.43c-3.87 0-6.44-2.55-6.44-6.38s2.58-6.38 6.44-6.38c1.32 0 2.72.39 3.76 1.03.14.07.2.21.16.32l-.9 2.6q-.09.19-.34.14a6 6 0 0 0-2.58-.62c-1.65 0-2.76 1.17-2.76 2.9s1.11 2.94 2.76 2.94q1 0 1.31-.34v-1.03h-1.65q-.25 0-.29-.19l-.23-2.44q-.02-.28.29-.3zm-2.86 3.7v.07z"/>
  <path fill="#fff" d="M120.21 32.39c.16 0 .27.12.27.27v11.71c0 .12-.11.25-.27.25h-3.17a.26.26 0 0 1-.25-.25V32.66c0-.14.13-.27.25-.27z"/>
  <path fill="#fff" d="M132.03 32.39c.16 0 .27.12.27.27v11.71c0 .12-.11.25-.27.25h-3.1a.5.5 0 0 1-.38-.23l-3.11-5.51v5.49c0 .12-.11.25-.27.25H122a.25.25 0 0 1-.25-.25V32.66c0-.14.11-.27.25-.27h3.1c.16 0 .34.09.41.23l3.1 5.51v-5.47c0-.14.13-.27.25-.27z"/>
  <path fill="#fff" d="M142.16 41.42c.14 0 .27.11.27.23v2.71c0 .12-.12.25-.27.25h-8.32c-.13 0-.25-.14-.29-.27V32.63q0-.24.25-.25h8.14c.16 0 .29.12.29.25v2.67c0 .16-.13.27-.29.27h-4.67v1.4h3.79c.16 0 .25.12.23.23l-.25 2.48c-.02.11-.14.23-.3.23h-3.47v1.51z"/>
  <path fill="#fff" d="M149.55 35.24c0 1.65-1.31 2.94-3.01 2.94s-3.02-1.29-3.02-2.94 1.34-2.9 3.02-2.9 3.01 1.29 3.01 2.9m-5.28 0c0 1.29.97 2.32 2.29 2.32s2.24-1.03 2.24-2.3-.95-2.34-2.26-2.34-2.27 1.04-2.27 2.32m1.81 1.52h-.68v-2.91q.4-.08 1.13-.09c.55 0 .81.09 1.02.21a.8.8 0 0 1 .29.64c0 .32-.25.57-.61.67v.04q.42.14.54.71c.09.44.14.62.21.73h-.73c-.09-.11-.14-.37-.23-.71q-.06-.47-.61-.46h-.32zm.02-1.64h.32c.38 0 .68-.12.68-.42q0-.42-.63-.44-.27 0-.38.04z"/>
  <path fill="#fff" d="M157.73 32.39c3.13 0 5.01 1.68 5.01 4.22s-1.88 4.22-5.01 4.22H157v3.54c0 .12-.12.25-.29.25h-3.2a.26.26 0 0 1-.25-.25V32.66c0-.14.13-.27.25-.27zm.16 5.26c.63 0 1.06-.42 1.06-1.04s-.43-1.04-1.06-1.04h-.93v2.09z"/>
  <path fill="#fff" d="M173.73 44.38c.05.11-.02.23-.16.23h-3.54a.4.4 0 0 1-.38-.23l-.54-1.86h-3.36l-.54 1.86a.4.4 0 0 1-.38.23h-3.54c-.14 0-.21-.12-.16-.23l4.04-11.76c.05-.11.25-.23.43-.23h3.65c.18 0 .38.12.43.23zm-6.3-7.76-.97 3.37h1.93z"/>
  <path fill="#fff" d="M177.5 32.39c.16 0 .27.12.27.27v11.71c0 .12-.11.25-.27.25h-3.17a.26.26 0 0 1-.25-.25V32.66c0-.14.13-.27.25-.27z"/>
  <path fill="#fff" d="M189.33 32.39c.16 0 .27.12.27.27v11.71c0 .12-.11.25-.27.25h-3.1a.5.5 0 0 1-.38-.23l-3.11-5.51v5.49c0 .12-.11.25-.27.25h-3.17a.25.25 0 0 1-.25-.25V32.66c0-.14.11-.27.25-.27h3.1c.16 0 .34.09.41.23l3.1 5.51v-5.47c0-.14.13-.27.25-.27z"/>
  <path fill="#fff" d="M200.12 32.39c.16 0 .27.12.25.25l-.27 2.69a.3.3 0 0 1-.29.25h-2.67v8.78c0 .12-.11.25-.25.25h-3.17c-.14 0-.27-.12-.27-.25v-8.78h-2.97a.26.26 0 0 1-.25-.25v-2.67c0-.14.13-.27.25-.27z"/>
  <path fill="#fff" d="M80.6 62.25h-1.81v-5.41H75.4v5.41h-1.8V50.37h1.8v4.89h3.39v-4.89h1.81z"/>
  <path fill="#fff" d="M90.54 56.3q0 1.34-.23 2.46a7 7 0 0 1-.71 1.94q-.48.82-1.24 1.27c-.76.45-1.11.45-1.8.45s-1.31-.15-1.82-.45-.92-.73-1.25-1.28q-.48-.83-.71-1.95c-.23-1.12-.23-1.56-.23-2.45q0-2.02.45-3.37t1.35-2.04q.9-.68 2.22-.68 1.4 0 2.28.77a4.5 4.5 0 0 1 1.3 2.15q.42 1.38.41 3.18Zm-6.13 0q0 1.48.24 2.49c.24 1.01.4 1.18.72 1.52s.71.51 1.17.51.86-.17 1.17-.5q.47-.5.71-1.5t.24-2.52q0-2.26-.53-3.4-.53-1.13-1.58-1.13-.72 0-1.19.51c-.47.51-.56.85-.71 1.51q-.24 1-.24 2.5Z"/>
  <path fill="#fff" d="m96.77 62.25-2.64-9.43h-.07a20 20 0 0 1 .09 1.82l.01.62v6.99h-1.7V50.37h2.51l2.54 9h.05l2.54-9h2.52v11.88h-1.74v-7.63l.03-.81.05-.98h-.06l-2.65 9.42h-1.5Z"/>
  <path fill="#fff" d="M109.98 62.25h-5.05V50.37h5.05v1.54h-3.25v3.37h3.04v1.55h-3.04v3.83h3.25v1.58Z"/>
  <path fill="#fff" d="m119.24 62.25-2.64-9.43h-.07a20 20 0 0 1 .09 1.82l.01.62v6.99h-1.7V50.37h2.51l2.54 9h.05l2.54-9h2.52v11.88h-1.74v-7.63l.03-.81.05-.98h-.06l-2.65 9.42h-1.5Z"/>
  <path fill="#fff" d="m132.45 62.25-.76-3.34h-2.76l-.76 3.34h-1.94l2.9-11.88h2.28l2.95 11.88zm-1.06-4.93-.78-3.58-.12-.68-.11-.64-.09-.59-.07.58-.11.63-.14.67-.76 3.61h2.17Z"/>
  <path fill="#fff" d="M142.45 62.25h-2.01l-2.31-5.21-.8.86v4.35h-1.8V50.37h1.8v5.75q.09-.27.3-.69t.52-.97l2.26-4.09h1.94l-2.96 5.26z"/>
  <path fill="#fff" d="M148.57 62.25h-5.05V50.37h5.05v1.54h-3.25v3.37h3.04v1.55h-3.04v3.83h3.25v1.58Z"/>
  <path fill="#fff" d="M158.09 56.3q0 1.34-.23 2.46c-.23 1.12-.39 1.39-.71 1.94q-.48.82-1.24 1.27c-.76.45-1.11.45-1.8.45s-1.31-.15-1.82-.45-.92-.73-1.25-1.28a6 6 0 0 1-.71-1.95q-.23-1.12-.23-2.45 0-2.02.45-3.37t1.35-2.04q.9-.68 2.21-.68 1.4 0 2.28.77a3.7 3.7 0 0 1 1.3 2.15q.41 1.38.41 3.18Zm-6.13 0q0 1.48.24 2.49.24 1 .72 1.52.48.51 1.17.51c.69 0 .86-.17 1.17-.5q.47-.5.71-1.5t.24-2.52q0-2.26-.53-3.4c-.53-1.14-.88-1.13-1.58-1.13q-.72 0-1.19.51-.47.52-.71 1.51-.24 1-.24 2.5Z"/>
  <path fill="#fff" d="m166.82 50.38-2.95 11.88h-2.08l-2.92-11.88h1.89l1.65 7.45.16.8.15.87.11.79.12-.79.16-.87.17-.81 1.67-7.44z"/>
  <path fill="#fff" d="M173.03 62.25h-5.05V50.37h5.05v1.54h-3.25v3.37h3.04v1.55h-3.04v3.83h3.25v1.58Z"/>
  <path fill="#fff" d="M177.34 50.38q1.28 0 2.1.37t1.24 1.12q.4.75.41 1.89 0 .77-.19 1.37t-.59 1.07q-.4.46-1.02.78l2.45 5.28h-1.99l-2.06-4.83h-.98v4.83h-1.8V50.38h2.42Zm0 1.54h-.62v4.05h.73q.87 0 1.33-.53t.46-1.6q0-1-.46-1.47t-1.45-.46Z"/>
  <path fill="#fff" d="M26.82 35.45v8.63c0 .57.49 1.03 1.09 1.03q.46 0 .79-.32a1 1 0 0 0 .3-.71v-2.13c0-1.41 1.17-2.56 2.6-2.56s2.6 1.15 2.6 2.56v8.3c0 .36.32.65.7.65q.3 0 .51-.21a.6.6 0 0 0 .19-.45v-6.13a2.7 2.7 0 0 1 2.72-2.69h.02a2.73 2.73 0 0 1 2.74 2.7v1.62q0 .45.33.77.35.34.86.34a1.14 1.14 0 0 0 1.14-1.1v-9.21q-2.9.48-6.1.49c-3.85 0-7.52-.55-10.5-1.57Z"/>
  <path fill="#fff" d="M37.33 23.34c-4.18 0-8.1.68-11.03 1.92a10 10 0 0 0-3.13 1.94q-.95.95-.95 1.89c0 .94.32 1.26.95 1.89a10 10 0 0 0 3.13 1.94c2.93 1.24 6.84 1.92 11.03 1.92 2.44 0 4.78-.23 6.9-.67l.14-.03q2.2-.47 3.99-1.22a10 10 0 0 0 3.13-1.94q.95-.95.95-1.89c0-.94-.32-1.26-.95-1.89a10 10 0 0 0-3.13-1.94c-2.93-1.24-6.84-1.92-11.03-1.92"/>
  <path fill="#fff" d="M55.49 25.26q-1.5-3.44-4.23-6.11a20.05 20.05 0 0 0-13.94-5.62 20 20 0 0 0-13.94 5.62 19 19 0 0 0-5.78 13.6v2.65a1 1 0 0 0 1.02 1.02h3.6v-.01 20.53q0 .94.95 1.89a10 10 0 0 0 3.13 1.94c2.93 1.24 6.84 1.92 11.03 1.92s8.1-.68 11.03-1.92a10 10 0 0 0 3.13-1.94q.95-.95.95-1.89V36.42h3.6a1.04 1.04 0 0 0 1.01-1.03v-2.64q0-3.92-1.55-7.49Zm-.47 9.12h-2.59v-1.34a13 13 0 0 1-3.23 1.88q-1.64.7-3.6 1.16v9.65a3.3 3.3 0 0 1-3.28 3.28 3.3 3.3 0 0 1-3.41-3.28v-1.62a.5.5 0 0 0-.15-.35.6.6 0 0 0-.41-.17c-.31 0-.56.24-.56.52v6.13c0 .75-.29 1.45-.83 1.98a3 3 0 0 1-2.05.84 2.85 2.85 0 0 1-2.87-2.83v-8.3c0-.21-.19-.38-.43-.38s-.43.17-.43.38v2.13c0 .85-.33 1.65-.94 2.25a3.28 3.28 0 0 1-5.59-2.25v-9.51a12 12 0 0 1-2.43-1.52v1.33h-2.58v-1.63c0-9.47 7.94-17.18 17.69-17.18s17.69 7.71 17.69 17.18v1.63Z"/>
</svg>
