<svg xmlns="http://www.w3.org/2000/svg" width="302" height="77" viewBox="0 0 302 77">
  <path fill="#154a94" d="M302 7.61H60.97a38.12 38.12 0 1 0 0 61.02H302z"/>
  <path fill="#fff" d="M77.57 13.4c3.13 0 5.01 1.68 5.01 4.22s-1.88 4.22-5.01 4.22h-.73v3.54c0 .12-.13.25-.29.25h-3.2a.26.26 0 0 1-.25-.25V13.67c0-.14.13-.27.25-.27zm.16 5.26c.63 0 1.06-.42 1.06-1.04s-.43-1.04-1.06-1.04h-.93v2.09h.93Z"/>
  <path fill="#fff" d="M86.74 13.4c.16 0 .27.12.27.27v11.71c0 .12-.11.25-.27.25h-3.17a.26.26 0 0 1-.25-.25V13.67c0-.14.13-.27.25-.27z"/>
  <path fill="#fff" d="M97.54 13.4c.16 0 .27.12.25.25l-.27 2.69a.3.3 0 0 1-.29.25h-2.67v8.78c0 .12-.11.25-.25.25h-3.17c-.14 0-.27-.12-.27-.25v-8.78H87.9a.25.25 0 0 1-.25-.25v-2.67c0-.14.13-.27.25-.27h9.63Z"/>
  <path fill="#fff" d="M106.39 13.4c2.34 0 3.9 1.38 3.9 3.45 0 1.28-.63 2.21-1.59 2.5 1.13.28 1.86 1.35 1.86 2.82 0 2.07-1.56 3.45-3.88 3.45h-5.67a.25.25 0 0 1-.25-.25V13.66c0-.12.11-.27.25-.27h5.39Zm-.82 4.8c.54 0 .89-.32.89-.82s-.36-.81-.89-.81h-1.13v1.63zm.32 4.25c.52 0 .88-.34.88-.85s-.36-.85-.88-.85h-1.45v1.7z"/>
  <path fill="#fff" d="M117.75 25.87c-3.81 0-6.35-2.55-6.35-6.36s2.54-6.39 6.35-6.39 6.35 2.55 6.35 6.39-2.54 6.36-6.35 6.36m0-9.18c-1.47 0-2.45 1.13-2.45 2.82s.98 2.82 2.45 2.82 2.45-1.13 2.45-2.82-.98-2.82-2.45-2.82"/>
  <path fill="#fff" d="M126.22 21.9q.1-.27.32-.14c.82.46 1.81.8 2.49.85.57 0 .95-.27.95-.67 0-1.04-5.03-.99-5.03-4.85 0-2.37 1.81-3.95 4.53-3.95 1.27 0 2.88.51 4.01 1.28.14.09.2.23.14.32l-1.13 2.5q-.1.27-.32.14c-.88-.5-1.9-.87-2.52-.92-.55 0-.91.25-.91.64 0 1.04 5.06.97 5.06 4.87 0 2.36-1.84 3.93-4.6 3.93-1.5 0-3.08-.46-3.97-1.17q-.22-.18-.14-.32z"/>
  <path fill="#fff" d="M135.79 21.9q.1-.27.32-.14c.82.46 1.81.8 2.49.85.57 0 .95-.27.95-.67 0-1.04-5.03-.99-5.03-4.85 0-2.37 1.81-3.95 4.53-3.95 1.27 0 2.88.51 4.01 1.28.14.09.2.23.14.32l-1.13 2.5q-.1.27-.32.14c-.88-.5-1.9-.87-2.52-.92-.55 0-.91.25-.91.64 0 1.04 5.06.97 5.06 4.87 0 2.36-1.84 3.93-4.6 3.93-1.5 0-3.08-.46-3.97-1.17q-.22-.18-.14-.32z"/>
  <path fill="#fff" d="M79 39.97q0 1.03-.41 1.84-.4.8-1.16 1.24c-.76.44-1.09.45-1.76.45a7 7 0 0 1-1.81-.25q-.42-.14-.82-.33v-1.84a5.4 5.4 0 0 0 2.54.75q.51 0 .87-.22.35-.23.53-.6c.18-.37.18-.54.18-.85q0-.5-.15-.85t-.53-.67a7 7 0 0 0-1.06-.69q-.53-.3-.95-.61a2.94 2.94 0 0 1-1.19-1.6 4 4 0 0 1-.16-1.22q-.01-.96.38-1.7a3 3 0 0 1 1.13-1.13q.73-.4 1.71-.39a5 5 0 0 1 2.58.66l-.53 1.6a5 5 0 0 0-1.05-.46q-.5-.15-.95-.15-.48 0-.8.19t-.5.53q-.17.33-.17.78 0 .53.16.87c.16.34.29.45.55.65q.4.3 1.07.67.76.42 1.27.9a3.1 3.1 0 0 1 1.01 2.45Z"/>
  <path fill="#fff" d="M83.33 31.46q1.8 0 2.66.89t.87 2.69q0 .91-.22 1.62a2.5 2.5 0 0 1-.67 1.21q-.45.5-1.12.76t-1.59.26h-.72v4.44h-1.8V31.45h2.6Zm-.11 1.53h-.68v4.35h.55q.67 0 1.11-.23.43-.23.64-.74.21-.5.21-1.33 0-1.1-.45-1.57-.45-.48-1.38-.48"/>
  <path fill="#fff" d="M96.16 37.38q0 1.34-.23 2.46a7 7 0 0 1-.71 1.94q-.48.82-1.24 1.27c-.76.45-1.11.45-1.8.45s-1.31-.15-1.82-.45-.92-.73-1.25-1.28q-.48-.82-.71-1.95c-.23-1.13-.23-1.56-.23-2.45q0-2.02.45-3.37t1.35-2.04q.9-.68 2.22-.68 1.4 0 2.28.77a4.5 4.5 0 0 1 1.3 2.15q.41 1.38.41 3.18Zm-6.13 0q0 1.49.24 2.49c.24 1 .4 1.18.72 1.52s.71.51 1.17.51.86-.17 1.17-.5q.47-.5.71-1.5t.24-2.52q0-2.26-.53-3.4-.53-1.13-1.58-1.13-.72 0-1.19.51c-.47.51-.56.85-.71 1.51q-.24 1-.24 2.5Z"/>
  <path fill="#fff" d="M100.51 31.46q1.27 0 2.1.37t1.24 1.12.41 1.89q0 .77-.19 1.37t-.59 1.07q-.4.46-1.02.78l2.45 5.28h-1.99l-2.06-4.83h-.98v4.83h-1.8V31.46h2.42Zm0 1.54h-.62v4.05h.73q.87 0 1.33-.53t.46-1.6q0-1-.46-1.47t-1.45-.46Z"/>
  <path fill="#fff" d="M109.33 43.34h-1.79V33.03h-2.29v-1.57h6.36v1.57h-2.28z"/>
  <path fill="#fff" d="M118.38 39.97q0 1.03-.41 1.84-.4.8-1.16 1.24c-.76.44-1.09.45-1.76.45a7 7 0 0 1-1.81-.25q-.42-.14-.82-.33v-1.84a5.4 5.4 0 0 0 2.54.75q.51 0 .87-.22.35-.23.53-.6c.18-.37.18-.54.18-.85q0-.5-.15-.85t-.53-.67a7 7 0 0 0-1.06-.69q-.53-.3-.95-.61a2.94 2.94 0 0 1-1.19-1.6 4 4 0 0 1-.16-1.22q-.01-.96.38-1.7a3 3 0 0 1 1.13-1.13q.73-.4 1.71-.39a5 5 0 0 1 2.58.66l-.53 1.6a5 5 0 0 0-1.05-.46q-.5-.15-.95-.15-.48 0-.8.19t-.5.53q-.17.33-.17.78 0 .53.16.87c.16.34.29.45.55.65q.4.3 1.07.67.76.42 1.27.9a3.1 3.1 0 0 1 1.01 2.45Z"/>
  <path fill="#fff" d="m124.41 43.34-2.64-9.43h-.07a20 20 0 0 1 .09 1.82l.01.62v6.99h-1.7V31.46h2.51l2.54 9h.05l2.54-9h2.52v11.88h-1.74v-7.63l.03-.81.05-.98h-.06l-2.65 9.42h-1.5Z"/>
  <path fill="#fff" d="m137.63 43.34-.76-3.34h-2.76l-.76 3.34h-1.94l2.9-11.88h2.28l2.95 11.88zm-1.07-4.94-.78-3.58-.12-.68-.11-.64-.09-.59-.07.58-.11.63-.14.67-.76 3.61h2.17Z"/>
  <path fill="#fff" d="M148.35 43.34h-2.15l-3.85-9.06h-.07l.07.96.04.85.01.75v6.5h-1.7V31.46h2.13l3.85 8.89h.06l-.05-.97-.03-.84-.01-.72v-6.35h1.71z"/>
  <path fill="#fff" d="M76.17 49.18q1.78 0 2.64.89t.86 2.69q0 .91-.22 1.62c-.22.71-.37.88-.66 1.21q-.44.5-1.11.76a4 4 0 0 1-1.58.26h-.71v4.44H73.6V49.17h2.57Zm-.12 1.53h-.67v4.35h.54q.66 0 1.1-.23.43-.23.64-.74.21-.5.21-1.33 0-1.1-.44-1.57-.45-.48-1.37-.48Z"/>
  <path fill="#fff" d="M86.31 61.05h-5V49.17h5v1.54h-3.22v3.37h3.01v1.55h-3.01v3.83h3.22v1.58Z"/>
  <path fill="#fff" d="M88.18 61.05V49.17h1.79v10.29h3.24v1.58h-5.03Z"/>
  <path fill="#fff" d="M94.62 61.05V49.17h1.79v10.29h3.24v1.58h-5.03Z"/>
  <path fill="#fff" d="M106.05 61.05h-5V49.17h5v1.54h-3.22v3.37h3.01v1.55h-3.01v3.83h3.22v1.58Z"/>
  <path fill="#fff" d="M111.01 61.05h-1.77V50.74h-2.27v-1.57h6.3v1.57h-2.26z"/>
  <path fill="#fff" d="M121.57 54.59h3.36v6q-.79.31-1.62.46c-.83.15-1.11.15-1.68.15q-1.46 0-2.42-.78t-1.44-2.16c-.48-1.38-.48-1.99-.48-3.2s.18-2.27.53-3.18q.52-1.36 1.57-2.13a4.2 4.2 0 0 1 2.57-.76q.8 0 1.51.2t1.3.56l-.56 1.49a4 4 0 0 0-1.08-.51 4 4 0 0 0-1.11-.17q-.94 0-1.58.53t-.96 1.55a8 8 0 0 0-.32 2.49q0 1.32.27 2.34t.84 1.59 1.48.57a5 5 0 0 0 1.43-.23v-3.27h-1.62v-1.54Z"/>
  <path fill="#fff" d="M129.34 49.18q1.26 0 2.08.37t1.23 1.12.41 1.89q0 .77-.19 1.37t-.58 1.07q-.4.46-1.01.78l2.43 5.28h-1.97l-2.04-4.83h-.97v4.83h-1.79V49.18zm0 1.54h-.61v4.05h.72q.85 0 1.32-.53.46-.53.46-1.6 0-1-.46-1.47t-1.43-.46Z"/>
  <path fill="#fff" d="M134.99 61.05V49.17h1.79v11.88z"/>
  <path fill="#fff" d="M139.06 61.05V49.17h1.79v10.29h3.24v1.58h-5.03Z"/>
  <path fill="#fff" d="M145.49 61.05V49.17h1.79v10.29h3.24v1.58h-5.03Z"/>
  <path fill="#fff" d="M61.83 35.88a.84.84 0 0 0-.81-.64h-2.44v-.2a.1.1 0 0 0-.1-.1h-.15a.1.1 0 0 0-.1.1v.2h-7.08v-.2a.1.1 0 0 0-.1-.1h-.15a.1.1 0 0 0-.1.1v.2h-1.38c.16-2.62.02-5.03-.5-7.19-.12-.51-.62-.84-1.14-.84h-3.27a.36.36 0 0 0-.35-.32h-.78a.4.4 0 0 0-.32.21.25.25 0 0 0-.49.04v.07H28.01a.36.36 0 0 0-.35-.32h-.78a.4.4 0 0 0-.32.21.25.25 0 0 0-.49.04v.07h-4.76c-.52 0-.97.36-1.09.86q-.2.87-.35 1.75h-1.03a.1.1 0 0 0-.11.11v.04h-.58V18.7h-3.49v14.79h4.07v.04q.01.1.11.11h.69v.39h-3.02a4 4 0 0 0-2.56 1.02c-.39.31-.38.78.53.97.64.13 3.52.2 5.14.23q.17 2.05.62 4.13c.11.52.57.88 1.1.88h.15v.08h-.22v.3h.02s-.01.06-.03.08q-.04.05-.09.05-.02 0-.03-.02l-.1-.07-.06-.05-.18-.18a.1.1 0 0 0-.07 0 .05.05 0 0 0 0 .08c.09.1.19.17.19.17l.06.05.12.08.06.03h.04q.11-.01.16-.1l.04-.13h.1V42s-.08.03-.08.05c0 .05.16.09.36.09s.36-.04.36-.09q0-.03-.07-.05v-.76h.57l-2.06 18.88q-.51.18-.53.44c.01.3.7.51 1.53.47s1.49-.3 1.48-.6q-.02-.21-.41-.35l.4-3.71c.28.13.73.2 1.24.18.83-.04 1.49-.3 1.48-.6q0-.13-.17-.23h18.01a3.7 3.7 0 0 0-.15 3.35 3.72 3.72 0 1 0 6.59-3.26 3.7 3.7 0 0 0-1.91-1.7q.42-.65.47-1.45a3 3 0 0 0-.56-2 3 3 0 0 0-.97-1.09l-.32-4.08h1.39q.05.37.12.73c.03.18.19.31.37.31h12.39c.4 0 .74-.28.81-.67.65-3.48.78-6.79.02-9.97Zm-46.68-.6c-.08 0-.11-.1-.05-.14.41-.45 1.28-.42 1.74-.42l2.67-.03q0 .35.03.71zm19.39-7.6c.53 0 .97.28.97.65s-.42.68-.95.69-.97-.28-.97-.65.42-.68.95-.69m-3.52 6.18a.4.4 0 0 1 .41-.41.4.4 0 0 1 .29.12q.1.09.24.12l.06-2.53.07 2.53a.4.4 0 0 0 .24-.12.5.5 0 0 1 .3-.12h3.8q.19 0 .3.12.1.1.24.11l.05-2.54.08 2.52a1 1 0 0 0 .19-.11.4.4 0 0 1 .29-.12.4.4 0 0 1 .41.41v.05a.4.4 0 0 1-.41.41.5.5 0 0 1-.29-.12.4.4 0 0 0-.29-.12q-.16 0-.28.11a.4.4 0 0 1-.3.12h-3.8a.4.4 0 0 1-.3-.12.4.4 0 0 0-.3-.12H32a.4.4 0 0 0-.3.12.4.4 0 0 1-.29.12.4.4 0 0 1-.41-.41v-.05Zm13 20.25-.16-.26.16-.26.16.26zm-1.39-2.72q.27-.68.8-1.17l.99 1.17zm-17.65 1.19.16.26-.16.26-.16-.26zm.61 0 .16.26-.16.26-.16-.26zm.62 0 .16.26-.16.26-.16-.26zm.61 0 .16.26-.16.26-.16-.26zm.62 0 .16.26-.16.26-.16-.26zm.61 0 .16.26-.16.26-.16-.26zm.62 0 .16.26-.16.26-.16-.26zm.61 0 .16.26-.16.26-.16-.26zm.61 0 .16.26-.16.26-.16-.26zm.62 0 .16.26-.16.26-.16-.26zm.61 0 .16.26-.16.26-.16-.26zm.62 0 .16.26-.16.26-.16-.26zm.61 0 .16.26-.16.26-.16-.26zm.61 0 .16.26-.16.26-.16-.26zm.62 0 .16.26-.16.26-.16-.26zm.61 0 .16.26-.16.26-.16-.26zm.62 0 .16.26-.16.26-.16-.26zm.61 0 .16.26-.16.26-.16-.26zm.62 0 .16.26-.16.26-.16-.26zm.61 0 .16.26-.16.26-.16-.26zm.61 0 .16.26-.16.26-.16-.26zm.62 0 .16.26-.16.26-.16-.26zm.61 0 .16.26-.16.26-.16-.26zm.62 0 .16.26-.16.26-.16-.26zm.61 0 .16.26-.16.26-.16-.26zm.62 0 .16.26-.16.26-.16-.26zm.61 0 .16.26-.16.26-.16-.26zm.61 0 .16.26-.16.26-.16-.26zm.62 0 .04.06.07.3-.1.17-.16-.26.16-.26Zm-.31.03-.16-.26.15-.25h.02l.15.25zm-.61 0-.16-.26.15-.25h.02l.15.25zm-.62 0-.16-.26.15-.25h.02l.15.25zm-.61 0-.16-.26.15-.25h.02l.15.25zm-.62 0-.16-.26.15-.25h.02l.15.25zm-.61 0-.16-.26.15-.25h.02l.15.25zm-.61 0-.16-.26.15-.25h.02l.15.25zm-.62 0-.16-.26.15-.25h.02l.15.25zm-.61 0-.16-.26.15-.25h.02l.15.25zm-.62 0-.16-.26.15-.25h.02l.15.25zm-.61 0-.16-.26.15-.25h.02l.15.25zm-.62 0-.16-.26.15-.25h.02l.15.25zm-.61 0-.16-.26.15-.25h.02l.15.25zm-.61 0-.16-.26.15-.25h.02l.15.25zm-.62 0-.16-.26.15-.25h.02l.15.25zm-.61 0-.16-.26.15-.25h.02l.15.25zm-.62 0-.16-.26.15-.25h.02l.15.25zm-.61 0-.16-.26.15-.25h.02l.15.25zm-.61 0-.16-.26.15-.25h.02l.15.25zm-.62 0-.16-.26.15-.25h.02l.15.25zm-.61 0-.16-.26.15-.25h.02l.15.25zm-.62 0-.16-.26.15-.25h.02l.15.25zm-.61 0-.16-.26.15-.25h.02l.15.25zm-.62 0-.16-.26.15-.25h.02l.15.25zm-.61 0-.16-.26.15-.25h.02l.15.25zm-.61 0-.16-.26.15-.25h.02l.15.25zm-.62 0-.16-.26.15-.25h.02l.15.25zm-.61 0-.16-.26.15-.25h.02l.15.25zm-.53-.14v-.22l.07.1zm.08.88-.13.22.02-.4zm.14.23.16.26-.16.26-.16-.26zm.14-.23.16-.26.16.26-.16.26zm.47.23.16.26-.16.26-.16-.26zm.15-.23.16-.26.16.26-.16.26zm.47.23.16.26-.16.26-.16-.26zm.14-.23.16-.26.16.26-.16.26zm.47.23.16.26-.16.26-.16-.26zm.15-.23.16-.26.16.26-.16.26zm.47.23.16.26-.16.26-.16-.26zm.14-.23.16-.26.16.26-.16.26zm.47.23.16.26-.16.26-.16-.26zm.15-.23.16-.26.16.26-.16.26zm.47.23.16.26-.16.26-.16-.26zm.14-.23.16-.26.16.26-.16.26zm.47.23.16.26-.16.26-.16-.26zm.14-.23.16-.26.16.26-.16.26zm.47.23.16.26-.16.26-.16-.26zm.15-.23.16-.26.16.26-.16.26zm.47.23.16.26-.16.26-.16-.26zm.14-.23.16-.26.16.26-.16.26zm.47.23.16.26-.16.26-.16-.26zm.15-.23.16-.26.16.26-.16.26zm.47.23.16.26-.16.26-.16-.26zm.14-.23.16-.26.16.26-.16.26zm.47.23.16.26-.16.26-.16-.26zm.15-.23.16-.26.16.26-.16.26zm.46.23.16.26-.16.26-.16-.26zm.15-.23.16-.26.16.26-.16.26zm.47.23.16.26-.16.26-.16-.26zm.14-.23.16-.26.16.26-.16.26zm.47.23.16.26-.16.26-.16-.26zm.15-.23.16-.26.16.26-.16.26zm.47.23.16.26-.16.26-.16-.26zm.14-.23.16-.26.16.26-.16.26zm.47.23.16.26-.16.26-.16-.26zm.15-.23.16-.26.16.26-.16.26zm.47.23.16.26-.16.26-.16-.26zm.14-.23.16-.26.16.26-.16.26zm.47.23.16.26-.16.26-.16-.26zm.14-.23.16-.26.16.26-.16.26zm.47.23.16.26-.16.26-.16-.26zm.15-.23.16-.26.16.26-.16.26zm.47.23.16.26-.16.26-.16-.26zm.14-.23.16-.26.16.26-.16.26zm.47.23.16.26-.16.26-.16-.26zm.15-.23.16-.26.16.26-.16.26zm.47.23.16.26-.16.26-.16-.26zm.14-.23.16-.26.16.26-.16.26zm.47.23.16.26-.16.26-.16-.26zm.15-.23.16-.26.16.26-.16.26zm.47.23.16.26-.16.26-.16-.26zm.14-.23.16-.26.16.26-.16.26zm.47.23.16.26-.16.26-.16-.26zm.14-.23.16-.26.16.26-.16.26zm.47.23.16.26-.16.26-.16-.26zm.15-.23.16-.26.16.26-.16.26zm.47.23.16.26-.16.26-.16-.26zm.14-.23.06-.1.07.16.06.16-.02.04-.16-.26Zm-.06-1.96H24.82l.55-10.15h18.46l.52 7.91a3.1 3.1 0 0 0-2.09 2.24m1.71 1.28.09-.02.12.2-.16.26-.16-.26zm-.16-.22-.17.03-.09-.14.15-.25h.02l.15.25zm.37-.07-.02-.03.15-.25h.02l.14.22zm.15.7.16.26-.16.26-.16-.26zm.14-.23.11-.18.03.41zm-.86-2.78q.35-.27.77-.43l.1 1.46zm-.52 2.03h.02l.15.25-.15.25h-.02l-.15-.25zm.01.98.16.26-.16.26-.16-.26zm.14-.23.02-.04.25-.05.06.09-.16.26-.16-.26Zm.47.23.16.26-.16.26-.16-.26zm.62 1 .15.24-.04.11-.11.18-.16-.26.16-.26Zm.14-.24.16-.26.07.11-.12.33zm-.29-12.6h.17l.6 7.79-.17.02zm.64 8.27.17-.03.16 2.11-.17.06-.17-2.14Zm.12 4.57.13.21-.24.14-.05-.08.16-.26Zm.31-.5.06.1.02.29-.09.14-.16-.26.16-.26Zm-21.88 1.04h-.17l1.46-13.38h.17zm1.3-.01-.02-.04.03-.49.16.26-.16.26Zm.62 0-.16-.26.16-.26.16.26zm.61 0-.16-.26.16-.26.16.26zm.62 0-.16-.26.16-.26.16.26zm.61 0-.16-.26.16-.26.16.26zm.61 0-.16-.26.16-.26.16.26zm.62 0-.16-.26.16-.26.16.26zm.61 0-.16-.26.16-.26.16.26zm.62 0-.16-.26.16-.26.16.26zm.61 0-.16-.26.16-.26.16.26zm.62 0-.16-.26.16-.26.16.26zm.61 0-.16-.26.16-.26.16.26zm.61 0-.16-.26.16-.26.16.26zm.62 0-.16-.26.16-.26.16.26zm.61 0-.16-.26.16-.26.16.26zm.62 0-.16-.26.16-.26.16.26zm.61 0-.16-.26.16-.26.16.26zm.61 0-.16-.26.16-.26.16.26zm.62 0-.16-.26.16-.26.16.26zm.61 0-.16-.26.16-.26.16.26zm.62 0-.16-.26.16-.26.16.26zm.61 0-.16-.26.16-.26.16.26zm.62 0-.16-.26.16-.26.16.26zm.61 0-.16-.26.16-.26.16.26zm.61 0-.16-.26.16-.26.16.26zm.62 0-.16-.26.16-.26.16.26zm.61 0-.16-.26.16-.26.16.26zm.62 0-.16-.26.16-.26.16.26zm.61 0-.16-.26.16-.26.16.26zm.62 0-.16-.26.16-.26.16.26zm.11-1.19-.02-.04-.07-.24.13.21zm-.11-.81-.05-.07.01-.38v-.03l.02-.03h.02l.15.25zm.45.26-.15.24-.11-.19zm-.2.8.05-.09.16.26-.04.07-.17-.25Zm.5.17.16-.26.16.26-.16.26zm.31.5.16-.26.16.26-.16.26zm.64 1.38h1.28l.12 1.58-2.02-.42q.2-.65.62-1.16m-.61 3.32a3.4 3.4 0 0 1-.09-1.88l2.12.44.03.39h.49q.04.1.11.18l-1.83 1.99a3.4 3.4 0 0 1-.83-1.12m4.38 1.82-.77-2.5a.7.7 0 0 0 .34-.38l2.62.54a3.6 3.6 0 0 1-2.19 2.34m1.93-4.95a3.6 3.6 0 0 1 .34 2.33l-2.54-.52-.05-.65 1.67-1.82q.33.29.58.65Zm-.81-.83-1.48 1.61-.14-1.83q.2-.17.37-.37.7.17 1.25.59m-.83-2.76a3 3 0 0 1-.64 1.65l-.22-.04-.15-1.91 1-.2q.03.25 0 .51Zm-.34-1.58q.21.39.29.84l-.98.2-.14-1.84q.5.32.83.81Zm-1.07 7.71h.09l.77 2.5q-.35.09-.73.12a3.5 3.5 0 0 1-2.33-.72l1.83-1.99q.17.1.38.1Zm-.14-13.39-.3-3.81h1.3l.17-.01q-.04 1.96.19 3.83zm5.11-3.83a.39.39 0 0 1 .66-.28q.1.1.23.11l.06-2.43.06 2.43a.4.4 0 0 0 .23-.11.4.4 0 0 1 .28-.11h3.64q.18 0 .29.12.1.1.23.11l.06-2.43.06 2.42a.4.4 0 0 0 .18-.1.39.39 0 0 1 .66.28v.05a.39.39 0 0 1-.66.28.4.4 0 0 0-.27-.12q-.16 0-.27.11a.4.4 0 0 1-.29.12h-3.64a.4.4 0 0 1-.28-.11.4.4 0 0 0-.28-.12h-.02a.4.4 0 0 0-.29.12.39.39 0 0 1-.66-.28v-.05Z"/>
  <path fill="#fff" d="M13.59 11.98c.07-.49.39-.97.87-1.2a2.2 2.2 0 0 1 2.19.15c.63.39.9 1.13.57 1.76-.2.38-.51.73-.82 1.03-.33.33-.63.59-.94.91a3 3 0 0 0-.83 1.69c-.02.17-.01 1.25.7 1.85a2.3 2.3 0 0 1-.29-1.77c.09-.36.32-.72.57-.99.35-.38 1.75-1.43 2.2-2.07.74-1.02.45-2.08-.35-2.82a2.75 2.75 0 0 0-3.08-.34c-.54.3-.91.77-1.01 1.39-.06.37.02.85.33 1.22a2 2 0 0 1-.12-.81Z"/>
  <path fill="#fff" d="M15.12 13.81c.24-.81.88-1.03.88-1.53 0-.34-.38-.61-.75-.6-.37 0-.77.23-.78.82-.46-.8.15-1.45.94-1.45.88 0 1.3.61 1.3 1.2 0 .23-.11.61-.52.89-.38.26-.83.48-1.07.67"/>
</svg>
