<svg xmlns="http://www.w3.org/2000/svg" width="302" height="77" viewBox="0 0 302 77">
  <path fill="#e18587" d="M302 7.61H60.97a38.12 38.12 0 1 0 0 61.02H302z"/>
  <path fill="#fff" d="M86.83 14.6c.14 0 .25.12.25.27v11.71c0 .12-.11.25-.25.25h-3.28c-.14 0-.27-.12-.27-.25v-5.21l-1.79 5.19c-.05.14-.28.27-.44.27H79.1c-.16 0-.39-.12-.44-.27l-1.79-5.19v5.21c0 .12-.12.25-.27.25h-3.28a.25.25 0 0 1-.25-.25V14.87c0-.14.11-.27.25-.27h3.7c.23 0 .5.16.6.35l2.44 6.77 2.44-6.77a.8.8 0 0 1 .6-.35h3.7Z"/>
  <path fill="#fff" d="M91.74 14.6c.16 0 .27.12.27.27v11.71c0 .12-.11.25-.27.25H88.6c-.12 0-.25-.12-.25-.25V14.87c0-.14.12-.27.25-.27z"/>
  <path fill="#fff" d="M100.24 23.63c.12 0 .23.11.23.25l-.25 2.69c-.02.12-.14.25-.28.25h-6.39c-.14 0-.27-.12-.27-.25V14.86c0-.14.12-.27.27-.27h3.14c.14 0 .27.12.27.27v8.77h3.29Z"/>
  <path fill="#fff" d="M116.04 14.6c.18 0 .27.14.21.3l-3.22 11.64a.4.4 0 0 1-.39.28h-3.08c-.16 0-.37-.12-.41-.28l-1.61-6.23-1.61 6.23c-.04.16-.25.28-.41.28h-3.08a.4.4 0 0 1-.39-.28L98.83 14.9c-.05-.16.04-.3.21-.3h3.97c.18 0 .37.14.41.3l1.01 5.3 1.36-5.3c.05-.18.27-.3.48-.3h2.55c.21 0 .42.12.48.3l1.36 5.3 1.01-5.3c.04-.16.23-.3.41-.3h3.97Z"/>
  <path fill="#fff" d="M126.69 26.59c.05.11-.02.23-.16.23h-3.51a.4.4 0 0 1-.37-.23l-.53-1.86h-3.33l-.53 1.86a.4.4 0 0 1-.37.23h-3.51c-.14 0-.21-.12-.16-.23l4-11.76c.05-.11.25-.23.43-.23h3.61c.18 0 .37.12.43.23zm-6.23-7.76-.96 3.37h1.91z"/>
  <path fill="#fff" d="M135.71 14.6c.18 0 .3.14.3.3v7.39c0 3.13-1.68 4.78-4.89 4.78s-4.85-1.65-4.89-4.78V14.9c0-.16.14-.3.3-.3h3.05c.18 0 .3.14.3.3v7.7c0 .81.46 1.29 1.24 1.29s1.24-.48 1.24-1.28v-7.72c0-.16.14-.3.3-.3h3.05Z"/>
  <path fill="#fff" d="M147.63 26.61c.09.12.02.21-.12.21h-4.11a.5.5 0 0 1-.37-.21l-2.2-4.43v4.39c0 .12-.11.25-.27.25h-3.14c-.12 0-.25-.12-.25-.25V14.86c0-.14.12-.27.25-.27h3.14c.16 0 .27.12.27.27v3.97l2.13-4.02c.07-.12.25-.21.41-.21h3.88q.22.02.12.21l-3.51 5.61 3.77 6.18Z"/>
  <path fill="#fff" d="M156.79 23.63c.14 0 .27.11.27.23v2.71c0 .12-.12.25-.27.25h-8.24c-.12 0-.25-.14-.28-.27V14.84q0-.25.25-.25h8.06c.16 0 .28.12.28.25v2.67q-.02.25-.28.27h-4.62v1.4h3.76c.16 0 .25.12.23.23l-.25 2.48c-.02.11-.14.23-.3.23h-3.44v1.51z"/>
  <path fill="#fff" d="M166.54 23.63c.14 0 .27.11.27.23v2.71c0 .12-.12.25-.27.25h-8.24c-.12 0-.25-.14-.28-.27V14.84q0-.25.25-.25h8.06c.16 0 .28.12.28.25v2.67q-.02.25-.28.27h-4.62v1.4h3.76c.16 0 .25.12.23.23l-.25 2.48c-.02.11-.14.23-.3.23h-3.44v1.51z"/>
  <path fill="#fff" d="M183.84 14.6c.14 0 .25.12.25.27v11.71c0 .12-.11.25-.25.25h-3.28c-.14 0-.27-.12-.27-.25v-5.21l-1.79 5.19c-.05.14-.28.27-.44.27h-1.95c-.16 0-.39-.12-.44-.27l-1.79-5.19v5.21c0 .12-.12.25-.27.25h-3.28a.25.25 0 0 1-.25-.25V14.87c0-.14.11-.27.25-.27h3.7c.23 0 .5.16.6.35l2.44 6.77 2.44-6.77a.8.8 0 0 1 .6-.35h3.7Z"/>
  <path fill="#fff" d="M185.07 17.82c-.12 0-.25-.07-.23-.21v-2.18q.01-.23.28-.27l4.57-.71q.24-.02.25.18v11.92c0 .14-.11.27-.25.27h-3.14a.26.26 0 0 1-.27-.27v-8.73z"/>
  <path fill="#fff" d="M200.83 23.37c0 2.21-1.95 3.7-4.85 3.7s-4.87-1.43-4.87-3.58c0-1.17.64-2.21 1.65-2.8-.81-.44-1.36-1.49-1.36-2.76 0-2.16 1.84-3.6 4.61-3.6s4.61 1.43 4.61 3.6c0 1.24-.58 2.2-1.47 2.53 1.05.6 1.7 1.68 1.7 2.9Zm-3.45-.34c0-.44-.55-.89-1.38-1.13-.87 0-1.43.46-1.43 1.13 0 .62.57 1.04 1.4 1.04s1.42-.42 1.42-1.04Zm-2.53-4.66c0 .37.41.74 1.01.94.78-.04 1.29-.41 1.29-.94 0-.58-.46-.97-1.15-.97s-1.15.39-1.15.97"/>
  <path fill="#fff" d="M80.58 38.41q0 2-.5 3.36a4.2 4.2 0 0 1-1.49 2.06q-.99.7-2.43.7h-2.57V32.65h2.7q1.4 0 2.35.66a4 4 0 0 1 1.45 1.94q.5 1.29.49 3.15Zm-1.85.09q0-1.44-.28-2.4a3 3 0 0 0-.83-1.42 2 2 0 0 0-1.38-.47h-.87v8.73h.75q1.35 0 1.98-1.11.63-1.1.63-3.34Z"/>
  <path fill="#fff" d="M84.89 32.66q1.26 0 2.08.37t1.23 1.12q.4.75.41 1.89 0 .77-.19 1.37t-.58 1.07q-.4.46-1.01.78l2.43 5.28h-1.97l-2.04-4.83h-.97v4.83h-1.79V32.66zm0 1.55h-.61v4.05H85q.86 0 1.32-.53t.46-1.6q0-1-.46-1.47t-1.43-.46Z"/>
  <path fill="#fff" d="M90.54 44.54V32.66h1.79v11.88z"/>
  <path fill="#fff" d="M94.61 44.54V32.66h1.79v10.29h3.24v1.58h-5.03Z"/>
  <path fill="#fff" d="M101.04 44.54V32.66h1.79v10.29h3.24v1.58h-5.03Z"/>
  <path fill="#fff" d="m115.6 32.58-4.44 12.03h-1.57l4.46-12.03z"/>
  <path fill="#fff" d="M119.96 44.54V32.66h1.79v11.88z"/>
  <path fill="#fff" d="m128.28 44.54-2.62-9.43h-.06a20 20 0 0 1 .09 1.82l.01.62v6.99h-1.68V32.66h2.49l2.52 9h.05l2.52-9h2.49v11.88h-1.72v-7.63l.03-.81.04-.98h-.06l-2.62 9.42z"/>
  <path fill="#fff" d="M138.93 32.66q1.78 0 2.64.89t.86 2.69q0 .92-.22 1.62c-.22.7-.37.88-.66 1.21q-.43.5-1.11.76a4 4 0 0 1-1.58.26h-.71v4.44h-1.79V32.65h2.57Zm-.11 1.54h-.67v4.35h.54q.66 0 1.1-.23.43-.23.64-.74.21-.5.21-1.33 0-1.1-.44-1.57-.44-.48-1.37-.48Z"/>
  <path fill="#fff" d="m149.09 44.54-.76-3.34h-2.73l-.76 3.34h-1.92l2.88-11.88h2.26l2.92 11.88zm-1.06-4.93-.77-3.58-.12-.68-.11-.64-.09-.59-.07.58-.1.63-.13.67-.76 3.61z"/>
  <path fill="#fff" d="M155.98 34.05q-.62 0-1.06.35t-.74.98q-.28.63-.43 1.46c-.15.83-.14 1.14-.14 1.77q0 1.42.29 2.43.3 1.01.84 1.54.56.53 1.32.53a3 3 0 0 0 1-.16q.47-.16.9-.38v1.6q-.45.26-.99.38-.53.13-1.16.13-1.28 0-2.19-.72c-.91-.72-1.07-1.18-1.4-2.09s-.49-2.01-.49-3.29q0-1.3.26-2.41.25-1.11.78-1.95.51-.84 1.29-1.3c.78-.46 1.11-.46 1.79-.46a4.7 4.7 0 0 1 2.41.66l-.56 1.49q-.4-.27-.84-.42c-.44-.15-.59-.15-.91-.15Z"/>
  <path fill="#fff" d="M162.92 44.54h-1.77V34.23h-2.27v-1.57h6.3v1.57h-2.26z"/>
  <path fill="#fff" d="M77.44 51.77q-.62 0-1.06.35t-.74.98q-.28.63-.43 1.46a11 11 0 0 0 .15 4.2q.3 1.01.84 1.54.56.53 1.32.53.52 0 1-.16.47-.16.9-.38v1.6q-.45.26-.99.38-.53.13-1.16.13-1.27 0-2.19-.72t-1.4-2.09c-.49-1.37-.49-2.01-.49-3.29q0-1.3.26-2.41t.78-1.95 1.29-1.3a3.4 3.4 0 0 1 1.79-.46 4.7 4.7 0 0 1 2.41.66l-.56 1.49a4 4 0 0 0-.84-.42q-.43-.15-.91-.15Z"/>
  <path fill="#fff" d="M88.85 56.3q0 1.34-.23 2.46c-.23 1.12-.39 1.39-.71 1.94s-.73.97-1.23 1.27q-.75.45-1.78.45c-1.03 0-1.3-.15-1.8-.45s-.92-.73-1.23-1.28a6 6 0 0 1-.71-1.95q-.23-1.12-.23-2.45 0-2.02.45-3.37t1.33-2.04a3.5 3.5 0 0 1 2.19-.68q1.38 0 2.25.77a4.5 4.5 0 0 1 1.28 2.15q.4 1.38.41 3.18Zm-6.07 0q0 1.48.24 2.49.24 1 .71 1.52.47.51 1.16.51c.69 0 .85-.17 1.16-.5q.46-.5.7-1.5t.24-2.52q0-2.26-.52-3.4c-.52-1.14-.87-1.13-1.56-1.13q-.7 0-1.18.51-.47.52-.71 1.51-.24 1-.24 2.5Z"/>
  <path fill="#fff" d="m95.02 62.25-2.62-9.43h-.06a20 20 0 0 1 .09 1.82l.01.62v6.99h-1.68V50.37h2.49l2.52 9h.05l2.52-9h2.49v11.88h-1.72v-7.63l.03-.81.04-.98h-.06l-2.62 9.42h-1.49Z"/>
  <path fill="#fff" d="M103.1 50.38h2.86q1.7 0 2.55.71t.85 2.17q0 .73-.19 1.29a2 2 0 0 1-.56.92q-.37.36-.9.49v.07q.65.16 1.06.53c.41.37.48.55.61.93q.2.57.2 1.34 0 1.04-.38 1.81t-1.11 1.19c-.73.42-1.08.42-1.76.42h-3.23zm1.78 4.96h1.06q.83 0 1.22-.47c.39-.47.39-.78.39-1.4q0-.8-.41-1.2-.4-.42-1.23-.41h-1.04v3.48Zm0 1.46v3.93h1.28q.79 0 1.19-.5t.4-1.52q0-.63-.2-1.06-.2-.42-.58-.64a2 2 0 0 0-.93-.22h-1.16Z"/>
  <path fill="#fff" d="M118.96 56.3q0 1.34-.23 2.46c-.23 1.12-.39 1.39-.71 1.94s-.73.97-1.23 1.27q-.75.45-1.78.45c-1.03 0-1.3-.15-1.8-.45s-.92-.73-1.23-1.28a6 6 0 0 1-.71-1.95q-.23-1.12-.23-2.45 0-2.02.45-3.37t1.33-2.04a3.5 3.5 0 0 1 2.19-.68q1.38 0 2.25.77a4.5 4.5 0 0 1 1.28 2.15q.4 1.38.41 3.18Zm-6.07 0q0 1.48.24 2.49.24 1 .71 1.52.47.51 1.16.51c.69 0 .85-.17 1.16-.5q.46-.5.7-1.5t.24-2.52q0-2.26-.52-3.4c-.52-1.14-.87-1.13-1.56-1.13q-.7 0-1.18.51-.47.52-.71 1.51-.24 1-.24 2.5Z"/>
  <path fill="#fff" d="M62.72 26.05h-7.11v-.83c0-.57-.26-1.11-.71-1.46l-1.83-1.45q-.51-.4-1.15-.4H49.1v10.85h2.82q.65-.01 1.15-.4l1.83-1.45c.45-.35.71-.89.71-1.46v-.83h7.11a1.3 1.3 0 0 0 0-2.58Z"/>
  <path fill="#fff" d="M35.37 38.37a.84.84 0 0 0-.83-.93H33l-.43 6.06 2.03.1a.84.84 0 0 0 .85-1.07l-.28-.99q-.1-.38-.07-.77z"/>
  <path fill="#fff" d="M32.21 50.17h-2.06l.89-12.73h-7.9l-.89 12.73h-1.88c-1.12 0-2.02.91-2.02 2.02v3.93c0 .54.43.98.98.98h16.05c.54 0 .98-.44.98-.98v-1.79c0-2.3-1.86-4.16-4.15-4.16"/>
  <path fill="#fff" d="M37.92 19.18H20.07a4.9 4.9 0 0 0-4.88 4.88v6.55c0 2.7 2.19 4.88 4.88 4.88l17.88-.02q1.36 0 2.64-.44l6.54-2.26V21.92l-6.54-2.28a8 8 0 0 0-2.68-.45Zm-8.85 12.15h-7.54a1.23 1.23 0 1 1 0-2.46h7.54a1.23 1.23 0 1 1 0 2.46m0-5.54h-7.54a1.23 1.23 0 1 1 0-2.46h7.54a1.23 1.23 0 1 1 0 2.46"/>
</svg>
