<svg xmlns="http://www.w3.org/2000/svg" width="302" height="77" viewBox="0 0 302 77">
  <path fill="#114069" d="M302 8.12H61.62a38.12 38.12 0 1 0-1.36 61.02h241.75z"/>
  <path fill="#fff" d="M81.23 14.86c.16 0 .27.12.27.25v2.67q-.02.26-.27.27h-4.5v1.61h3.56c.16 0 .25.12.23.23l-.25 2.48c-.02.11-.14.23-.3.23h-3.24v4.23c0 .12-.12.25-.27.25h-3.14c-.14 0-.25-.14-.25-.27V15.1c0-.12.11-.25.25-.25z"/>
  <path fill="#fff" d="M92.36 26.8c.09.16-.04.28-.19.28h-3.79a.5.5 0 0 1-.41-.28l-1.84-3.86h-.21v3.9c0 .12-.12.25-.28.25h-3.12c-.14 0-.27-.12-.27-.25V15.13c0-.14.12-.27.27-.27h4.68c2.73 0 4.53 1.59 4.53 4 0 1.4-.85 2.82-2.18 3.38l2.82 4.55Zm-5.4-6.87c.6 0 1.01-.37 1.01-.94s-.41-.94-1.01-.94h-1.05v1.88z"/>
  <path fill="#fff" d="M101.52 23.9c.14 0 .27.11.27.23v2.71c0 .12-.12.25-.27.25h-8.24c-.12 0-.25-.14-.28-.27V15.11q0-.25.25-.25h8.06c.16 0 .28.12.28.25v2.67c0 .16-.12.27-.28.27h-4.62v1.4h3.76c.16 0 .25.12.23.23l-.25 2.48c-.02.11-.14.23-.3.23h-3.44v1.51h4.84Z"/>
  <path fill="#fff" d="M111.26 23.9c.14 0 .27.11.27.23v2.71c0 .12-.12.25-.27.25h-8.24c-.12 0-.25-.14-.28-.27V15.11q0-.25.25-.25h8.06c.16 0 .28.12.28.25v2.67c0 .16-.12.27-.28.27h-4.62v1.4h3.76c.16 0 .25.12.23.23l-.25 2.48c-.02.11-.14.23-.3.23h-3.44v1.51h4.84Z"/>
  <path fill="#fff" d="M83.63 37.31c.14 0 .27.12.27.25v5.63q-.02.26-.21.42a7 7 0 0 1-4.44 1.43c-3.87 0-6.44-2.55-6.44-6.38s2.58-6.38 6.44-6.38c1.32 0 2.72.39 3.76 1.03.14.07.2.21.16.32l-.9 2.6q-.09.19-.34.14a6 6 0 0 0-2.58-.62c-1.65 0-2.76 1.17-2.76 2.91s1.11 2.94 2.76 2.94q1 0 1.31-.34v-1.03h-1.65q-.25 0-.29-.19l-.23-2.44q-.02-.28.29-.3zm-2.86 3.7v.07z"/>
  <path fill="#fff" d="M95.3 44.52c.09.16-.04.28-.2.28h-3.83a.5.5 0 0 1-.41-.28L89 40.66h-.21v3.9c0 .12-.13.25-.29.25h-3.15c-.14 0-.27-.12-.27-.25V32.85c0-.14.13-.27.27-.27h4.72c2.76 0 4.58 1.59 4.58 4 0 1.4-.86 2.82-2.2 3.38l2.85 4.55Zm-5.46-6.87c.61 0 1.02-.37 1.02-.94s-.41-.94-1.02-.94h-1.06v1.88z"/>
  <path fill="#fff" d="M102.15 45.05c-3.81 0-6.35-2.55-6.35-6.36s2.54-6.39 6.35-6.39 6.35 2.55 6.35 6.39-2.54 6.36-6.35 6.36m0-9.18c-1.47 0-2.45 1.13-2.45 2.82s.98 2.82 2.45 2.82 2.45-1.13 2.45-2.82-.98-2.82-2.45-2.82"/>
  <path fill="#fff" d="M119.42 43.72q.06.2-.16.32a7.4 7.4 0 0 1-3.76 1.03c-3.69 0-6.16-2.55-6.16-6.38s2.47-6.38 6.16-6.38c1.32 0 2.72.39 3.76 1.03q.22.11.16.32l-1.18 2.46q-.12.24-.34.14a4 4 0 0 0-2.08-.5c-1.61 0-2.68 1.17-2.68 2.92s1.07 2.92 2.68 2.92c.77 0 1.41-.12 2.08-.5q.22-.1.34.14l1.18 2.46Z"/>
  <path fill="#fff" d="M129.01 41.61c.14 0 .27.11.27.23v2.71c0 .12-.13.25-.27.25h-8.32c-.13 0-.25-.14-.29-.27V32.82q0-.24.25-.25h8.14c.16 0 .29.12.29.25v2.67c0 .16-.13.27-.29.27h-4.67v1.4h3.79c.16 0 .25.12.23.23l-.25 2.48c-.02.11-.14.23-.3.23h-3.47v1.51z"/>
  <path fill="#fff" d="M140.5 44.52c.09.16-.04.28-.2.28h-3.83a.5.5 0 0 1-.41-.28l-1.86-3.86h-.21v3.9c0 .12-.13.25-.29.25h-3.15c-.14 0-.27-.12-.27-.25V32.85c0-.14.13-.27.27-.27h4.72c2.76 0 4.58 1.59 4.58 4 0 1.4-.86 2.82-2.2 3.38l2.85 4.55Zm-5.46-6.87c.61 0 1.02-.37 1.02-.94s-.41-.94-1.02-.94h-1.06v1.88z"/>
  <path fill="#fff" d="M144.59 32.58c.16 0 .27.12.27.27v11.71c0 .12-.11.25-.27.25h-3.17a.26.26 0 0 1-.25-.25V32.85c0-.14.13-.27.25-.27z"/>
  <path fill="#fff" d="M154.72 41.61c.14 0 .27.11.27.23v2.71c0 .12-.12.25-.27.25h-8.32c-.13 0-.25-.14-.29-.27V32.82q0-.24.25-.25h8.14c.16 0 .29.12.29.25v2.67c0 .16-.13.27-.29.27h-4.67v1.4h3.79c.16 0 .25.12.23.23l-.25 2.48c-.02.11-.14.23-.3.23h-3.47v1.51z"/>
  <path fill="#fff" d="M156.98 41.08q.1-.27.32-.14c.82.46 1.81.8 2.49.85.57 0 .95-.27.95-.67 0-1.05-5.03-.99-5.03-4.85 0-2.37 1.81-3.95 4.53-3.95 1.27 0 2.88.51 4.01 1.28.14.09.2.23.14.32l-1.13 2.5q-.1.27-.32.14c-.88-.5-1.9-.87-2.52-.92-.55 0-.91.25-.91.64 0 1.04 5.07.97 5.07 4.87 0 2.36-1.84 3.93-4.6 3.93-1.5 0-3.08-.46-3.97-1.17q-.22-.18-.14-.32l1.13-2.5Z"/>
  <path fill="#fff" d="M176.89 41.51c0 .58.38.97.93.97h.91q.15.01.21.23v1.81q-.01.27-.27.28h-1.74c-.57 0-1.22-.12-1.81-.35a8 8 0 0 1-3.01.6c-2.72 0-4.53-1.58-4.53-3.93 0-1.2.61-2.25 1.56-2.8a2.8 2.8 0 0 1-1.13-2.36c0-2.2 1.68-3.65 4.21-3.65 2.79 0 4.65 1.52 4.65 3.81v.94h2.06q.25.02.27.25l-.2 2.43q-.04.25-.27.27h-1.86v1.51ZM172.35 40c-.72 0-1.18.35-1.18.9 0 .62.47 1.03 1.18 1.03.63 0 1.04-.32 1.04-.78V40zm1.03-3.7c0-.55-.41-.92-1.04-.92-.59 0-.98.32-.98.8 0 .53.39.89.98.89h1.04z"/>
  <path fill="#fff" d="M81.32 50.19c.16 0 .27.12.27.25v2.67q-.02.26-.27.27h-4.55v1.61h3.6c.16 0 .25.12.23.23l-.25 2.48c-.02.11-.14.23-.3.23h-3.28v4.23c0 .12-.13.25-.27.25h-3.17c-.14 0-.25-.14-.25-.27V50.43c0-.12.11-.25.25-.25h7.98Z"/>
  <path fill="#fff" d="M91.81 50.19c.18 0 .3.14.3.3v7.39c0 3.13-1.7 4.78-4.94 4.78s-4.9-1.65-4.94-4.78v-7.39c0-.16.14-.3.3-.3h3.08c.18 0 .3.14.3.3v7.7c0 .81.47 1.29 1.25 1.29s1.25-.48 1.25-1.28v-7.72c0-.16.14-.3.3-.3h3.08Z"/>
  <path fill="#fff" d="M101.87 59.22c.14 0 .27.11.27.23v2.71c0 .12-.13.25-.27.25h-8.32c-.13 0-.25-.14-.29-.27V50.43q0-.24.25-.25h8.14c.16 0 .29.12.29.25v2.67c0 .16-.13.27-.29.27h-4.67v1.4h3.79c.16 0 .25.12.23.23l-.25 2.48c-.02.11-.14.23-.3.23h-3.47v1.51z"/>
  <path fill="#fff" d="M110.17 59.22c.13 0 .23.11.23.25l-.25 2.69c-.02.12-.14.25-.29.25h-6.46c-.14 0-.27-.12-.27-.25V50.45c0-.14.13-.27.27-.27h3.17c.14 0 .27.12.27.27v8.77z"/>
  <path fill="#fff" d="M115.99 62.62h-1.92V49.97h5.36v1.64h-3.44v4.08h3.23v1.66h-3.23v5.26Z"/>
  <path fill="#fff" d="M129.27 56.28q0 1.42-.25 2.62t-.76 2.07a3 3 0 0 1-1.32 1.35q-.81.48-1.92.48c-1.11 0-1.4-.16-1.94-.48a4 4 0 0 1-1.33-1.36q-.51-.89-.76-2.07c-.25-1.18-.24-1.67-.24-2.61q0-2.15.48-3.59t1.43-2.17a3.8 3.8 0 0 1 2.36-.73q1.49 0 2.42.82a4.7 4.7 0 0 1 1.38 2.29q.44 1.47.44 3.39Zm-6.53 0q0 1.59.26 2.66.26 1.06.76 1.62.5.55 1.25.55c.75 0 .92-.18 1.25-.53s.58-.89.75-1.6.25-1.61.25-2.69q0-2.41-.56-3.62-.57-1.2-1.68-1.2-.76 0-1.27.54c-.51.54-.59.9-.76 1.61q-.25 1.07-.25 2.66"/>
  <path fill="#fff" d="M133.91 49.98q1.35 0 2.24.39a2.7 2.7 0 0 1 1.32 1.19q.44.8.44 2.01 0 .81-.2 1.46A3.2 3.2 0 0 1 136 57l2.61 5.62h-2.12l-2.19-5.15h-1.04v5.15h-1.92V49.97h2.58Zm0 1.64h-.66v4.32h.78q.93 0 1.42-.57.5-.57.49-1.7 0-1.07-.49-1.56-.5-.5-1.54-.49"/>
  <path fill="#fff" d="m148.64 62.62-.81-3.55h-2.94l-.81 3.55h-2.06l3.09-12.65h2.43l3.15 12.65h-2.04Zm-1.14-5.25-.83-3.81-.13-.72-.11-.68-.1-.63-.07.62-.11.67-.14.71-.81 3.84h2.32Z"/>
  <path fill="#fff" d="m157.8 55.58 1.83-5.61h1.99l-2.88 7.75v4.9h-1.91v-4.84l-2.88-7.8h2l1.85 5.61Z"/>
  <path fill="#fff" d="M168.24 62.62h-5.38V49.97h5.38v1.64h-3.46v3.59h3.24v1.65h-3.24v4.07h3.46z"/>
  <path fill="#fff" d="m175.64 62.62-.81-3.55h-2.94l-.81 3.55h-2.06l3.09-12.65h2.43l3.15 12.65h-2.04Zm-1.13-5.25-.83-3.81-.13-.72-.11-.68-.1-.63-.07.62-.11.67-.14.71-.81 3.84h2.32Z"/>
  <path fill="#fff" d="M181.5 49.98q1.35 0 2.24.39a2.7 2.7 0 0 1 1.32 1.19q.44.8.44 2.01 0 .81-.2 1.46a3.2 3.2 0 0 1-1.71 1.97l2.61 5.62h-2.12l-2.19-5.15h-1.04v5.15h-1.92V49.97h2.58Zm0 1.64h-.66v4.32h.78q.93 0 1.42-.57.5-.57.49-1.7 0-1.07-.49-1.56-.5-.5-1.54-.49"/>
  <path fill="#fff" d="M18.65 56.89c.05.45.55.64.85.31a1 1 0 0 0 .12-.31c.12-1.1-.09-2.42 0-3.55a.49.49 0 0 0-.96-.05c.09 1.13-.14 2.5 0 3.6Z"/>
  <path fill="#fff" d="M31.08 56.94c.07.57.87.56.96-.06-.09-1.1.13-2.42 0-3.5-.04-.32-.3-.54-.62-.47-.17.04-.34.24-.34.42.1 1.14-.13 2.49 0 3.6Z"/>
  <path fill="#fff" d="M21.75 56.89c.08.57.87.66.96.04.15-1.08-.1-2.48 0-3.6-.02-.29-.29-.47-.57-.42a.5.5 0 0 0-.39.42c-.16 1.04.11 2.46 0 3.55Z"/>
  <path fill="#fff" d="M25.8 56.99c-.09-1.15.14-2.53 0-3.65-.05-.4-.51-.58-.8-.31a1 1 0 0 0-.12.26v3.75c.15.44.84.39.91-.05Z"/>
  <path fill="#fff" d="M27.98 56.89c.06.61.83.59.91.1v-3.7c-.03-.24-.28-.4-.52-.37a.5.5 0 0 0-.39.37c.07 1.16-.11 2.46 0 3.6"/>
  <path fill="#fff" d="M26.54 41.85c.5.35 1.03-.17.6-.76-.61-.85-1.56-1.63-2.18-2.49-.14-.1-.27-.18-.44-.14a.5.5 0 0 0-.29.78z"/>
  <path fill="#fff" d="M24.4 42.52c.48.2.81-.25.59-.69a9 9 0 0 0-.6-.72c-.12-.09-.38-.11-.52-.07-.17.05-.31.34-.28.51s.66.9.82.96Z"/>
  <path fill="#fff" d="M64.34 27.48c-.49-.9-1.17-1.86-1.75-2.71-.39-.57-1.39-2.2-2.03-2.34-.4-.08-.79.22-.82.19l-.18-.3c-.93-1.16-2.7-2.87-4.04-3.51-.24-.12-.41-.04-.65.08-.28.15-.84.77-.68 1.09.03.05.86.57 1.01.67 1.23.89 2.44 2.05 3.13 3.42-.35 1.01-.79 1.99-1.09 3.01-.39 1.33-.64 1.96.45 2.99.75.71 2.25 1.4 2.36 2.51v14.3c-.14 3.34-5.52 3.76-5.63.15-.16-3.79.21-7.75 0-11.52a4 4 0 0 0-2.38-3.6l.15-.7V19.64a3.5 3.5 0 0 0-3.37-3.02H27.47A3.5 3.5 0 0 0 24.05 20c-.24 3.52.18 7.31 0 10.85a3.5 3.5 0 0 0 2.89 3.32v1.57c-1.29-.51-2.86-.43-3.93.51-1.34 1.17-1.21 3.28-1.7 4.87l-1.57-1.14c-.56-1.45-1.14-3.4-3.14-2.79-.65.2-2.14.91-2.76 1.25-1.89 1.03-.79 2.8-.13 4.23l-.46 5.22c-.91 1.38-.62 3.24.9 4.02l1.25 6.46a2.95 2.95 0 0 0 2.74 2.13H32.6c1.11-.08 2.21-.74 2.61-1.8.05-.13.19-.78.24-.79l16.04-.05v-2.79h-1.88V34.2l.84-.33c1.01.27 1.44 1.18 1.5 2.16.24 3.66-.23 7.6 0 11.26.23 3.73 3.29 5.18 6.7 4.46a4.8 4.8 0 0 0 3.96-4.31V32.58q.06-.36.15-.71c.3-.99 1.12-1.06 1.69-1.81.7-.93.41-1.68-.08-2.6ZM23.41 38.26c.64-2.06 3.39-1.51 4.39 0 .97 1.48.27 2.98.04 4.55-.19.04-.33-.08-.51-.13a3.6 3.6 0 0 0-3.27.69c-.12.1-.24.28-.36.35-.05.03-.04.08-.1 0-.09-.14-.18-.44-.29-.62a6 6 0 0 0-.67-.9l-.03-.17c.32-1.21.43-2.59.8-3.77m5.49 8.76h-3.8l-.69-1.52c-.09-.25.15-.53.31-.71.67-.78 1.68-1.05 2.6-.52.89.52 1.4 1.77 1.59 2.75Zm-7.23-3.7c.29.3.45.68.63 1.05.32.65.95 1.86 1.15 2.5q.03.07.02.15l-8.39.05c-.12-.16-.27-.66-.13-.83.11-.14.96-.5 1.17-.56.77-.22 1.56-.14 2.34-.29a6 6 0 0 0 3.21-2.06Zm-1.19-.93a4 4 0 0 1-1.67 1.36c-1.2.5-2.62.14-3.8.79l.16-2.07 3.29-1.51 2.03 1.43Zm-6.11-2.56 2.79-1.27c.48-.05.67.71.78 1.06l-3.27 1.47s-.08.02-.11 0a6 6 0 0 1-.36-.84.6.6 0 0 1 .18-.42Zm19.52 18.15c-.17.62-.7.99-1.32 1.07H18.16c-.56-.03-1.16-.39-1.34-.94l-1.16-5.96h19.32c-.29 1.95-.75 3.89-1.09 5.84Zm1.58-7.3H15.13c-1.28-.13-1.27-2-.09-2.17h20.47c1.37.09 1.33 2.13-.05 2.17Zm.12-4.59c.14.33.36.61.31.99l-3.3-.05.67-1.82c.6 0 1.38-.11 1.87-.49.54-.43.16-1.11-.41-.87-.34.14-.65.47-1.1.39l.51-1.95c-.06-.51-.65-.64-.9-.19-.12.32-.71 2.67-.83 2.75s-.69-.4-.79-.5c-.29-.31-.37-1.17-1.01-.76-.58.38.23 1.34.58 1.64.18.16.67.41.76.51q.06.06.05.15c0 .27-.37.84-.42 1.14h-1.15q-.23-1-.62-1.94c-.07-.16-.34-.56-.35-.67-.01-.12.38-1.79.46-1.97.18-.45 1.06-.59 1.49-.53.18.02.31.15.49.15-.12-1.29 1.14-2.85 2.51-2.39 1.08.37 1.27 1.74.89 2.69 1.72.44 1.56 2.85.3 3.73ZM48.83 29.3c-.11 1.28-1.24 2.1-2.46 2.21H29.88c-1.15-.09-2.24-.83-2.45-2.01v-7.65c.15-1.22 1.21-1.96 2.37-2.09l16.52-.02c1.24.09 2.33.88 2.51 2.16-.15 2.39.2 5.04 0 7.41Zm12.6-.79c-.03.14-.84 1.5-.92 1.52-.37-.23-1.6-1.11-1.68-1.5-.05-.24.14-.87.22-1.13.16-.55.41-1.08.58-1.62.1-.03.1.04.14.09.36.35.97 1.25 1.25 1.69.15.24.48.69.41.96Z"/>
</svg>
