<svg xmlns="http://www.w3.org/2000/svg" width="302" height="77" viewBox="0 0 302 77">
  <path fill="#799f51" d="M302 7.61H60.97a38.12 38.12 0 1 0 0 61.02H302z"/>
  <path fill="#fff" d="M83.63 18.13c.14 0 .27.12.27.25v5.63q-.02.25-.21.43a7 7 0 0 1-4.44 1.43c-3.87 0-6.44-2.55-6.44-6.38s2.58-6.38 6.44-6.38c1.32 0 2.72.39 3.76 1.03.14.07.2.21.16.32l-.9 2.6q-.09.19-.34.14a6 6 0 0 0-2.58-.62c-1.65 0-2.76 1.17-2.76 2.9s1.11 2.94 2.76 2.94q1 0 1.31-.34v-1.03h-1.65q-.25 0-.29-.19l-.23-2.44q-.02-.28.29-.3h4.85Zm-2.86 3.7v.07z"/>
  <path fill="#fff" d="M95.3 25.33c.09.16-.04.28-.2.28h-3.83a.5.5 0 0 1-.41-.28L89 21.47h-.21v3.9c0 .12-.13.25-.29.25h-3.15c-.14 0-.27-.12-.27-.25V13.66c0-.14.13-.27.27-.27h4.72c2.76 0 4.58 1.59 4.58 4 0 1.4-.86 2.82-2.2 3.38l2.85 4.55Zm-5.46-6.87c.61 0 1.02-.37 1.02-.94s-.41-.94-1.02-.94h-1.06v1.88z"/>
  <path fill="#fff" d="M104.55 22.43c.14 0 .27.11.27.23v2.71c0 .12-.13.25-.27.25h-8.32c-.13 0-.25-.14-.29-.27V13.64q0-.25.25-.25h8.14c.16 0 .29.12.29.25v2.67c0 .16-.13.27-.29.27h-4.67v1.4h3.79c.16 0 .25.12.23.23l-.25 2.48c-.02.11-.14.23-.3.23h-3.47v1.51z"/>
  <path fill="#fff" d="M114.39 22.43c.14 0 .27.11.27.23v2.71c0 .12-.13.25-.27.25h-8.32c-.13 0-.25-.14-.29-.27V13.64q0-.25.25-.25h8.14c.16 0 .29.12.29.25v2.67c0 .16-.13.27-.29.27h-4.67v1.4h3.79c.16 0 .25.12.23.23l-.25 2.48c-.02.11-.14.23-.3.23h-3.47v1.51z"/>
  <path fill="#fff" d="M125.93 13.4c.16 0 .27.12.27.27v11.71c0 .12-.11.25-.27.25h-3.1a.5.5 0 0 1-.38-.23l-3.11-5.51v5.49c0 .12-.11.25-.27.25h-3.17a.25.25 0 0 1-.25-.25V13.67c0-.14.11-.27.25-.27h3.1c.16 0 .34.09.41.23l3.1 5.51v-5.47c0-.14.13-.27.25-.27z"/>
  <path fill="#fff" d="M146.4 13.4c.18 0 .27.14.21.3l-3.26 11.64a.4.4 0 0 1-.39.28h-3.11c-.16 0-.38-.12-.41-.28l-1.63-6.23-1.63 6.23c-.04.16-.25.28-.41.28h-3.11a.4.4 0 0 1-.39-.28l-3.26-11.64c-.05-.16.04-.3.21-.3h4.01c.18 0 .38.14.41.3l1.02 5.3 1.38-5.3c.05-.18.27-.3.48-.3h2.58c.21 0 .43.12.48.3l1.38 5.3 1.02-5.3c.04-.16.23-.3.41-.3z"/>
  <path fill="#fff" d="M152.43 25.87c-3.81 0-6.35-2.55-6.35-6.36s2.54-6.39 6.35-6.39 6.35 2.55 6.35 6.39-2.54 6.36-6.35 6.36m0-9.18c-1.47 0-2.45 1.13-2.45 2.82s.98 2.82 2.45 2.82 2.45-1.13 2.45-2.82-.98-2.82-2.45-2.82"/>
  <path fill="#fff" d="M170.13 25.33c.09.16-.04.28-.2.28h-3.83a.5.5 0 0 1-.41-.28l-1.86-3.86h-.21v3.9c0 .12-.13.25-.29.25h-3.15c-.14 0-.27-.12-.27-.25V13.66c0-.14.13-.27.27-.27h4.72c2.76 0 4.58 1.59 4.58 4 0 1.4-.86 2.82-2.2 3.38l2.85 4.55Zm-5.46-6.87c.61 0 1.02-.37 1.02-.94s-.41-.94-1.02-.94h-1.06v1.88z"/>
  <path fill="#fff" d="M181.37 25.4q.12.2-.13.21h-4.15a.5.5 0 0 1-.38-.21l-2.22-4.43v4.39c0 .12-.11.25-.27.25h-3.17a.26.26 0 0 1-.25-.25V13.65c0-.14.13-.27.25-.27h3.17c.16 0 .27.12.27.27v3.97l2.15-4.02c.07-.12.25-.21.41-.21h3.92q.22.01.12.21l-3.54 5.61 3.81 6.18Z"/>
  <path fill="#fff" d="M183.03 21.9q.1-.27.32-.14c.82.46 1.81.8 2.49.85.57 0 .95-.27.95-.67 0-1.04-5.03-.99-5.03-4.85 0-2.37 1.81-3.95 4.53-3.95 1.27 0 2.88.51 4.01 1.28.14.09.2.23.14.32l-1.13 2.5q-.1.27-.32.14c-.88-.5-1.9-.87-2.52-.92-.55 0-.91.25-.91.64 0 1.04 5.07.97 5.07 4.87 0 2.36-1.84 3.93-4.6 3.93-1.5 0-3.08-.46-3.97-1.17q-.22-.18-.14-.32l1.13-2.5Z"/>
  <path fill="#fff" d="m77.9 43.33-2.64-9.43h-.07a20 20 0 0 1 .09 1.82l.01.62v6.99h-1.7V31.45h2.51l2.54 9h.05l2.54-9h2.52v11.88h-1.74V35.7l.03-.81.05-.98h-.06l-2.65 9.42h-1.5Z"/>
  <path fill="#fff" d="M93.69 37.38q0 1.34-.23 2.46a7 7 0 0 1-.71 1.94q-.48.82-1.24 1.27c-.76.45-1.11.45-1.8.45s-1.31-.15-1.82-.45-.92-.73-1.25-1.28q-.48-.82-.71-1.95c-.23-1.13-.23-1.56-.23-2.45q0-2.02.45-3.37t1.35-2.04q.9-.68 2.22-.68 1.4 0 2.28.77a4.5 4.5 0 0 1 1.3 2.15q.41 1.38.41 3.18Zm-6.13 0q0 1.49.24 2.49c.24 1 .4 1.18.72 1.52s.71.51 1.17.51.86-.17 1.17-.5q.47-.5.71-1.5t.24-2.52q0-2.26-.53-3.4-.53-1.13-1.58-1.13-.72 0-1.19.51c-.47.51-.56.85-.71 1.51q-.24 1-.24 2.5Z"/>
  <path fill="#fff" d="m106.91 31.46-2.41 11.88h-2.09l-1.34-6.71a16 16 0 0 1-.27-1.79l-.09-.79-.07.62-.08.65-.1.66-.11.64-1.33 6.73h-2.08L94.5 31.47h1.79l1.3 6.76.14.8.13.81.11.76.08.67.11-.79.12-.8.13-.76.12-.67 1.38-6.79h1.58l1.33 6.77.13.68.23 1.54.11.82.13-1.03.16-1.04.17-.97 1.33-6.76h1.81Z"/>
  <path fill="#fff" d="M113.17 43.33h-5.05V31.45h5.05v1.54h-3.25v3.37h3.04v1.55h-3.04v3.83h3.25v1.58Z"/>
  <path fill="#fff" d="M117.47 31.46q1.28 0 2.1.37.84.37 1.24 1.12t.41 1.89q0 .77-.19 1.37t-.59 1.07q-.4.46-1.02.78l2.45 5.28h-1.99l-2.06-4.83h-.98v4.83h-1.8V31.46h2.42Zm0 1.54h-.62v4.05h.73q.87 0 1.33-.53t.46-1.6q0-1-.46-1.47t-1.45-.46Z"/>
  <path fill="#fff" d="M128.88 31.3q.75 0 1.27.31t.8.89.27 1.39q0 .98-.41 1.76t-1.19 1.43l1.55 2.45q.2-.42.32-.95c.12-.53.14-.75.16-1.17h1.8a10 10 0 0 1-1.16 3.63l1.62 2.3h-2.14l-.66-1.08q-.38.39-.79.67c-.41.28-.58.33-.9.43q-.5.15-1.09.15a3 3 0 0 1-1.55-.41 2.6 2.6 0 0 1-.93-1.15 4 4 0 0 1-.31-1.69q0-.71.21-1.31t.63-1.11q.42-.52 1.09-.97a7 7 0 0 1-.56-.98 4 4 0 0 1-.42-2.02q0-.78.3-1.35t.83-.88 1.27-.31Zm-.6 6.66q-.35.31-.56.64t-.31.71-.09.86q0 .8.34 1.3t.93.49q.5 0 .87-.25c.37-.25.49-.42.72-.75zm.57-5.35q-.33 0-.53.32t-.2.93a4 4 0 0 0 .65 2.08q.46-.4.64-.95.2-.55.19-1.17c-.01-.62-.07-.71-.2-.91a.6.6 0 0 0-.56-.3Z"/>
  <path fill="#fff" d="M140.69 31.46q1.8 0 2.66.89t.87 2.69q0 .91-.22 1.62a2.5 2.5 0 0 1-.67 1.21q-.45.5-1.12.76t-1.59.26h-.72v4.44h-1.81V31.45h2.6Zm-.11 1.53h-.68v4.35h.55q.67 0 1.11-.23.43-.23.64-.74.21-.5.21-1.33 0-1.1-.45-1.57-.45-.48-1.38-.48"/>
  <path fill="#fff" d="M148.3 31.46q1.28 0 2.1.37t1.24 1.12q.4.75.41 1.89 0 .77-.19 1.37t-.59 1.07q-.4.46-1.02.78l2.45 5.28h-1.99l-2.06-4.83h-.98v4.83h-1.8V31.46h2.42Zm0 1.54h-.62v4.05h.73q.87 0 1.33-.53t.46-1.6q0-1-.46-1.47t-1.45-.46Z"/>
  <path fill="#fff" d="M159.06 43.33h-5.05V31.45h5.05v1.54h-3.25v3.37h3.04v1.55h-3.04v3.83h3.25v1.58Z"/>
  <path fill="#fff" d="M166.34 39.97q0 1.03-.41 1.84-.4.8-1.16 1.24c-.76.44-1.09.45-1.76.45a7 7 0 0 1-1.8-.25q-.42-.14-.82-.33v-1.84a5.4 5.4 0 0 0 2.54.75q.51 0 .87-.22.35-.23.53-.6c.18-.37.18-.54.18-.85q0-.5-.15-.85t-.53-.67a7 7 0 0 0-1.06-.69q-.53-.3-.95-.61a2.94 2.94 0 0 1-1.19-1.6 4 4 0 0 1-.16-1.22q-.01-.96.38-1.7a3 3 0 0 1 1.13-1.13q.74-.4 1.71-.39a5 5 0 0 1 2.58.66l-.53 1.6a5 5 0 0 0-1.05-.46q-.5-.15-.95-.15-.47 0-.8.19t-.5.53a1.6 1.6 0 0 0-.17.78q0 .53.16.87c.16.34.29.45.55.65s.62.43 1.07.67q.76.42 1.27.9a3.1 3.1 0 0 1 1.01 2.45Z"/>
  <path fill="#fff" d="M173.47 39.97q0 1.03-.41 1.84-.4.8-1.16 1.24c-.76.44-1.09.45-1.76.45a7 7 0 0 1-1.8-.25q-.42-.14-.82-.33v-1.84a5.4 5.4 0 0 0 2.54.75q.51 0 .87-.22.35-.23.53-.6c.18-.37.18-.54.18-.85q0-.5-.15-.85t-.53-.67a7 7 0 0 0-1.06-.69q-.53-.3-.95-.61a2.94 2.94 0 0 1-1.19-1.6 4 4 0 0 1-.16-1.22q-.01-.96.38-1.7a3 3 0 0 1 1.13-1.13q.74-.4 1.71-.39a5 5 0 0 1 2.58.66l-.53 1.6a5 5 0 0 0-1.05-.46q-.5-.15-.95-.15-.47 0-.8.19t-.5.53a1.6 1.6 0 0 0-.17.78q0 .53.16.87c.16.34.29.45.55.65s.62.43 1.07.67q.76.42 1.27.9a3.1 3.1 0 0 1 1.01 2.45Z"/>
  <path fill="#fff" d="M182.06 31.46v8.07q0 1.35-.4 2.24a2.8 2.8 0 0 1-1.17 1.31q-.77.43-1.9.43-1.68 0-2.57-.97t-.89-2.98v-8.09h1.8v8.06q0 1.27.43 1.83t1.24.56q.55 0 .92-.24t.55-.77.18-1.4v-8.04h1.8Z"/>
  <path fill="#fff" d="M186.7 31.46q1.28 0 2.1.37t1.24 1.12q.4.75.41 1.89 0 .77-.19 1.37t-.59 1.07q-.4.46-1.02.78l2.45 5.28h-1.99l-2.06-4.83h-.98v4.83h-1.8V31.46h2.42Zm0 1.54h-.62v4.05h.73q.87 0 1.33-.53t.46-1.6q0-1-.46-1.47t-1.45-.46Z"/>
  <path fill="#fff" d="M197.46 43.33h-5.05V31.45h5.05v1.54h-3.25v3.37h3.04v1.55h-3.04v3.83h3.25v1.58Z"/>
  <path fill="#fff" d="m84.89 49.17-2.41 11.88h-2.09l-1.34-6.71a16 16 0 0 1-.27-1.79l-.09-.79-.07.62-.08.65-.1.66-.11.64L77 61.06h-2.08l-2.44-11.88h1.79l1.3 6.76.14.8.13.81.11.76.08.67.11-.79.12-.8.13-.76.12-.67 1.38-6.79h1.58l1.33 6.77.13.68.23 1.54.11.82.13-1.03.16-1.04.17-.97 1.33-6.76h1.81Z"/>
  <path fill="#fff" d="m91.15 61.05-.76-3.34h-2.76l-.76 3.34h-1.94l2.9-11.88h2.28l2.95 11.88h-1.92Zm-1.06-4.93-.78-3.58-.12-.68-.11-.64-.09-.59-.07.58-.11.63-.14.67-.76 3.61h2.17Z"/>
  <path fill="#fff" d="M99.63 57.69q0 1.03-.41 1.84-.4.8-1.16 1.24c-.76.44-1.09.45-1.76.45a7 7 0 0 1-1.81-.25q-.42-.14-.82-.33V58.8a5.4 5.4 0 0 0 2.54.75q.51 0 .87-.22.35-.23.53-.6c.18-.37.18-.54.18-.85q0-.5-.15-.85t-.53-.67a7 7 0 0 0-1.06-.69q-.53-.3-.95-.61a2.94 2.94 0 0 1-1.19-1.6 4 4 0 0 1-.16-1.22q-.01-.96.38-1.7a3 3 0 0 1 1.13-1.13q.73-.4 1.71-.39a5 5 0 0 1 2.58.66l-.53 1.6a5 5 0 0 0-1.05-.46q-.5-.15-.95-.15-.48 0-.8.19t-.5.53q-.17.33-.17.78 0 .53.16.87c.16.34.29.45.55.65q.4.3 1.07.67.76.42 1.27.9a3.1 3.1 0 0 1 1.01 2.45Z"/>
  <path fill="#fff" d="M108.36 61.05h-1.81v-5.41h-3.39v5.41h-1.8V49.17h1.8v4.89h3.39v-4.89h1.81z"/>
  <path fill="#fff" d="M115.72 61.05h-5.05V49.17h5.05v1.54h-3.25v3.37h3.04v1.55h-3.04v3.83h3.25v1.58Z"/>
  <path fill="#fff" d="M120.02 49.17q1.27 0 2.1.37t1.24 1.12.41 1.89q0 .77-.19 1.37t-.59 1.07q-.4.46-1.02.78l2.45 5.28h-1.99l-2.06-4.83h-.98v4.83h-1.8V49.17h2.42Zm0 1.55h-.62v4.05h.73q.87 0 1.33-.53t.46-1.6q0-1-.46-1.47t-1.45-.46Z"/>
  <path fill="#fff" d="M131.39 49.17q1.8 0 2.66.89t.87 2.69q0 .91-.22 1.62a2.5 2.5 0 0 1-.67 1.21q-.45.5-1.12.76t-1.59.26h-.72v4.44h-1.8V49.16h2.6Zm-.11 1.54h-.68v4.35h.55q.67 0 1.11-.23.43-.23.64-.74.21-.5.21-1.33 0-1.1-.45-1.57-.45-.48-1.38-.48"/>
  <path fill="#fff" d="m141.65 61.05-.76-3.34h-2.76l-.76 3.34h-1.94l2.9-11.88h2.28l2.95 11.88zm-1.07-4.93-.78-3.58-.12-.68-.11-.64-.09-.59-.07.58q-.04.31-.11.63l-.14.67-.76 3.61h2.17Z"/>
  <path fill="#fff" d="M148.62 50.56q-.62 0-1.08.35-.45.35-.74.98t-.43 1.46a11 11 0 0 0 .16 4.2q.3 1.01.85 1.54.56.53 1.34.53.53 0 1.01-.16t.91-.38v1.6q-.46.26-1 .38c-.54.12-.75.13-1.17.13q-1.29 0-2.21-.72c-.92-.72-1.08-1.18-1.41-2.09a10 10 0 0 1-.49-3.29q0-1.3.26-2.41.27-1.11.78-1.95c.51-.84.78-.99 1.3-1.3s1.12-.46 1.8-.46a5 5 0 0 1 2.43.66l-.57 1.49a4 4 0 0 0-.84-.42q-.44-.15-.92-.15Z"/>
  <path fill="#fff" d="M159.43 61.05h-2.01l-2.31-5.21-.8.86v4.35h-1.8V49.17h1.8v5.75q.09-.27.3-.69t.52-.97l2.26-4.09h1.94l-2.96 5.26z"/>
  <path fill="#fff" d="m165.56 61.05-.76-3.34h-2.76l-.76 3.34h-1.94l2.9-11.88h2.28l2.95 11.88zm-1.07-4.93-.78-3.58-.12-.68-.11-.64-.09-.59-.07.58-.11.63-.14.67-.76 3.61h2.17Z"/>
  <path fill="#fff" d="M172.58 54.59h3.4v6a9.6 9.6 0 0 1-3.33.61 3.8 3.8 0 0 1-2.45-.78 4.6 4.6 0 0 1-1.45-2.16q-.48-1.38-.48-3.2c0-1.82.18-2.27.53-3.18q.53-1.36 1.58-2.13c1.05-.77 1.57-.76 2.6-.76a6 6 0 0 1 2.84.76l-.57 1.49a4.3 4.3 0 0 0-2.21-.68q-.96 0-1.6.53t-.97 1.55c-.33 1.02-.33 1.51-.33 2.49q0 1.32.27 2.34t.85 1.59 1.5.57a5 5 0 0 0 1.45-.23v-3.27h-1.63z"/>
  <path fill="#fff" d="M183.06 61.05h-5.05V49.17h5.05v1.54h-3.25v3.37h3.04v1.55h-3.04v3.83h3.25v1.58Z"/>
  <path fill="#fff" d="M43.72 30.4a3.6 3.6 0 0 0-3.59-3.59h-7.88a3.6 3.6 0 0 0-3.59 3.59v2.44l15.06 3.93v-6.38Z"/>
  <path fill="#fff" d="M26.88 50.54s-.03.01-.03.03v2.6s.01.03.03.03h2.55q.2-.01.27-.2l.59-1.95a5 5 0 0 1-.86-.51h-2.54Z"/>
  <path fill="#fff" d="M30.34 26.07v-4.55a2.3 2.3 0 0 1 2.32-2.32h7.1a2.3 2.3 0 0 1 2.32 2.32v4.57q.97.44 1.66 1.25v-6.99a2.6 2.6 0 0 0-2.59-2.59h-9.88a2.6 2.6 0 0 0-2.59 2.59v6.94a5 5 0 0 1 1.66-1.23Z"/>
  <path fill="#fff" d="M51.18 25.82v5.97h1.14v-5.94z"/>
  <path fill="#fff" d="M50.95 32.93h1.6q.1.01.11.11v4.41q-.01.1-.11.11h-1.6a.1.1 0 0 1-.11-.11v-4.41q.01-.1.11-.11"/>
  <path fill="#fff" d="m58.81 19.93-2.43.32-.99.09a4.5 4.5 0 0 0-3.76 2.33l-.94 1.92v.05q.03.04.05.03l2.33.07s.05-.02.06-.05c.07-1.19.53-2.13 1.28-2.64.78-.53 1.72-.51 2.34-.5q.76 0 1.48.22.3.09.57.13l1.37.23v-2.42l-1.33.23z"/>
  <path fill="#fff" d="M65.09 20.4h-2.52a.57.57 0 1 0 0 1.14h2.52a.57.57 0 1 0 0-1.14"/>
  <path fill="#fff" d="M62.49 18.99q.13 0 .27-.07l2.22-1.19a.57.57 0 1 0-.55-1.01l-2.22 1.19a.57.57 0 0 0 .28 1.08"/>
  <path fill="#fff" d="m64.98 23.81-2.22-1.19a.6.6 0 0 0-.78.23.6.6 0 0 0 .23.78l2.22 1.19q.14.07.27.07c.2 0 .4-.11.51-.3a.6.6 0 0 0-.23-.78"/>
  <path fill="#fff" d="M51.18 42.1c0 .12-.08.18-.12.21a.2.2 0 0 1-.24 0l-1.01-.59a2 2 0 0 1-.98-1.71v-4.19a2.86 2.86 0 0 0-2.85-2.85h-1.12v1.14h1.12c.94 0 1.7.76 1.7 1.7V40c0 1.1.59 2.13 1.54 2.69l1.01.59a1.38 1.38 0 0 0 2.09-1.19v-3.38h-1.14z"/>
  <path fill="#fff" d="M47.57 47.4c.09.02.12.15.04.2q-2.94 2-1.97 5.49.02.1-.09.12H32.51c-.09 0-.15-.09-.12-.18 1.58-3.72-.88-7.38-4.83-7.67-.09 0-.17-.09-.16-.19q.03-.6-.18-.86c-1.77-2.17-2.59-3.21-4.25-5.05q-1.68-1.85-3.77-4.39c-1.07-1.3-2.49-2.81-3.4-3.84-1.32-1.49-2.41-2.6-.85-4.23q1.16-1.21 2.67-2.36a.84.84 0 0 1 1.21.21l.04.06c.26.36.2.85-.13 1.14l-2.47 2.13a.46.46 0 0 0-.05.66l12.41 14.37q.18.2.44.26z"/>
  <path fill="#fff" d="m22.08 50.56-3.81-.97c-2.38-.61-2.36-2.27-2.46-4.61q-.14-3.06-.18-4.68c-.03-1.23.5-1.92 1.75-1.51q3.73 1.22 5.09 1.75.51.2 1.08.93 1.02 1.28 2.49 2.91.32.36.29.97 0 .17-.18.23a5.7 5.7 0 0 0-3.52 3 5 5 0 0 0-.41 1.88c0 .07-.08.13-.15.11Z"/>
  <path fill="#fff" d="M45.7 45.76c0 .12-.12.2-.24.17l-12.96-2.9a.24.24 0 0 1-.19-.23c-.04-1.57-.27-3.35 1.98-3.11q.14 0 .21-.11.31-.62.88-.59 3.27.15 5.52.22c.8.03 1.24.91 1.52 1.75a.4.4 0 0 0 .28.25c1.26.26 2.67.7 2.9 2.26q.18 1.19.09 2.28Z"/>
  <path fill="#fff" d="M26.31 46.62a4.3 4.3 0 0 1 5.34 2.9 4.3 4.3 0 0 1-2.84 5.37 4.3 4.3 0 0 1-5.34-2.9 4.3 4.3 0 0 1 2.84-5.37m3.08 4.12c0-1.02-.82-1.84-1.84-1.84s-1.84.82-1.84 1.84.82 1.84 1.84 1.84 1.84-.82 1.84-1.84"/>
  <path fill="#fff" d="M53.53 51.52a3.55 3.55 0 1 1-7.1 0 3.55 3.55 0 0 1 7.1 0m-2.15-.03a1.37 1.37 0 1 0-2.74 0 1.37 1.37 0 0 0 2.74 0"/>
</svg>
