<svg xmlns="http://www.w3.org/2000/svg" fill="#F8BF1E" width="120" height="120" viewBox="0 0 244 244">
<style>
/* <![CDATA[ */

#el1 {
  animation: blick 2.1s linear infinite;
}

#el2 {
  animation: blick 2.1s .15s linear infinite;
}

#el3 {
  animation: blick 2.1s .3s linear infinite;
}

#el4 {
  animation: blick 2.1s .45s linear infinite;
}

#el5 {
  animation: blick 2.1s .6s linear infinite;
}

#el6 {
  animation: blick 2.1s .75s linear infinite;
}

#el7 {
  animation: blick 2.1s .9s linear infinite;
}

#el8 {
  animation: blick 2.1s 1.05s linear infinite;
}

#el9 {
  animation: blick 2.1s 1.2s linear infinite;
}

#el10 {
  animation: blick 2.1s 1.35s linear infinite;
}

#el11 {
  animation: blick 2.1s 1.5s linear infinite;
}

#el12 {
  animation: blick 2.1s 1.65s linear infinite;
}

#el13 {
  animation: blick 2.1s 1.8s linear infinite;
}

#el14 {
  animation: blick 2.1s 1.95s linear infinite;
}

@keyframes blick {
  0%, 20%, 100% {
    opacity: 1;
  }
  10% {
    opacity: .2;
  }
}

/* ]]> */
</style>
<g id="connectors">
<path id="el2" d="M146.68 55.5a32.87 32.87 0 0 0 8.8-22.41c0-9-3.63-17.17-9.5-23.14a29.54 29.54 0 0 0 20.47 8.2c7.85 0 14.98-3.05 20.28-8.03a32.86 32.86 0 0 0-9.34 22.97c0 8.93 3.57 17.03 9.36 22.99a29.26 29.26 0 0 0-20.34-8.2c-7.59 0-14.5 2.88-19.73 7.61z"/>
<path id="el4" d="M56.87 56.4a32.9 32.9 0 0 0 9.66-23.31A32.9 32.9 0 0 0 56.9 9.8a29.82 29.82 0 0 0 20.85 8.44c8.02 0 15.3-3.14 20.65-8.24a32.89 32.89 0 0 0-9.46 23.09c0 9 3.62 17.16 9.49 23.12a29.81 29.81 0 0 0-20.68-8.28 29.82 29.82 0 0 0-20.88 8.48z"/>
<path id="el6" d="M10.83 97.34a29.5 29.5 0 0 0 7.7-19.9 29.5 29.5 0 0 0-7.84-20.06 33.24 33.24 0 0 0 22.58 8.8c9.1 0 17.35-3.64 23.35-9.54a29.15 29.15 0 0 0-.42 40.97 33.24 33.24 0 0 0-22.82-9.03c-8.7 0-16.62 3.32-22.55 8.76z"/>
<path id="el8" d="M10.52 186.86a29.45 29.45 0 0 0 8.36-20.57c0-7.77-3.02-14.84-7.94-20.13a33.24 33.24 0 0 0 22.42 8.65c8.5 0 16.24-3.17 22.12-8.38a29.13 29.13 0 0 0 .16 39.92 33.24 33.24 0 0 0-22.28-8.53 33.23 33.23 0 0 0-22.84 9.04z"/>
<path id="el10" d="M58.25 232.85a32.86 32.86 0 0 0 8.38-21.94c0-8.77-3.44-16.74-9.04-22.66a30.52 30.52 0 0 0 20.26 7.62c7.76 0 14.83-2.85 20.18-7.54a32.87 32.87 0 0 0-8.96 22.58c0 8.8 3.46 16.8 9.1 22.73a28.83 28.83 0 0 0-39.92-.8z"/>
</g>
<ellipse id="el5" cx="33.28" cy="33.1" rx="33.28" ry="33.1"/>
<ellipse id="el3" cx="122.2" cy="33.09" rx="33.29" ry="33.09"/>
<ellipse id="el1" cx="210.69" cy="33.09" rx="33.31" ry="33.09"/>
<ellipse id="el7" cx="33.36" cy="121.69" rx="33.27" ry="33.14"/>
<path id="el14" d="M121.98 132.86c6.17 0 11.18-4.99 11.18-11.14s-5-11.14-11.18-11.14-11.18 4.99-11.18 11.14 5 11.14 11.18 11.14z"/>
<path id="el13" d="M211.12 132.86c6.17 0 11.18-4.99 11.18-11.14s-5-11.14-11.18-11.14-11.18 4.99-11.18 11.14 5 11.14 11.18 11.14z"/>
<ellipse id="el9" cx="33.37" cy="210.89" rx="33.28" ry="33.11"/>
<ellipse id="el11" cx="122.32" cy="210.91" rx="33.27" ry="33.09"/>
<path id="el12" d="M211.12 221.81c6.17 0 11.18-4.98 11.18-11.13s-5-11.14-11.18-11.14a11.16 11.16 0 0 0-11.18 11.14c0 6.15 5 11.13 11.18 11.13z"/>
</svg>
