<svg xmlns="http://www.w3.org/2000/svg" xmlns:xlink="http://www.w3.org/1999/xlink" width="163" height="126" viewBox="0 0 163 126">
  <linearGradient id="SVGID_1_" x1="1647.73" x2="1661.66" y1="89.76" y2="124.09" gradientTransform="matrix(-1 0 0 1 1682.29 0)" gradientUnits="userSpaceOnUse">
    <stop offset="0" stop-color="#e5e2df"/>
    <stop offset="0" stop-color="#ded9d6"/>
    <stop offset=".06" stop-color="#cfcbc9"/>
    <stop offset=".18" stop-color="#a8a4a7"/>
    <stop offset=".26" stop-color="#8b878d"/>
    <stop offset=".52" stop-color="#f3f4f4"/>
    <stop offset=".58" stop-color="#e5e5e6"/>
    <stop offset=".7" stop-color="#c0bec0"/>
    <stop offset=".87" stop-color="#847f84"/>
    <stop offset=".88" stop-color="#807b80"/>
    <stop offset="1" stop-color="#d1d3d4"/>
    <stop offset="1" stop-color="#a7a9ac"/>
  </linearGradient>
  <path fill="url(#SVGID_1_)" stroke="#FFF" stroke-miterlimit="10" stroke-width=".49" d="M45.14 97.73H15.47l2.43 2.44h28.29z"/>
  <linearGradient id="SVGID_00000023961240584611854120000014038967094539707052_" x1="1641.57" x2="1655.5" y1="91.51" y2="125.83" gradientTransform="matrix(-1 0 0 1 1682.29 0)" gradientUnits="userSpaceOnUse">
    <stop offset="0" stop-color="#e5e2df"/>
    <stop offset="0" stop-color="#ded9d6"/>
    <stop offset=".06" stop-color="#cfcbc9"/>
    <stop offset=".18" stop-color="#a8a4a7"/>
    <stop offset=".26" stop-color="#8b878d"/>
    <stop offset=".52" stop-color="#f3f4f4"/>
    <stop offset=".58" stop-color="#e5e5e6"/>
    <stop offset=".7" stop-color="#c0bec0"/>
    <stop offset=".87" stop-color="#847f84"/>
    <stop offset=".88" stop-color="#807b80"/>
    <stop offset="1" stop-color="#d1d3d4"/>
    <stop offset="1" stop-color="#a7a9ac"/>
  </linearGradient>
  <path fill="url(#SVGID_00000023961240584611854120000014038967094539707052_)" stroke="#FFF" stroke-miterlimit="10" stroke-width=".49" d="M50.99 100.25H21.32l2.43 2.43h28.29z"/>
  <linearGradient id="SVGID_00000002379629078345157370000004037617920108854445_" x1="1637.17" x2="1651.1" y1="93.31" y2="127.64" gradientTransform="matrix(-1 0 0 1 1682.29 0)" gradientUnits="userSpaceOnUse">
    <stop offset="0" stop-color="#e5e2df"/>
    <stop offset="0" stop-color="#ded9d6"/>
    <stop offset=".06" stop-color="#cfcbc9"/>
    <stop offset=".18" stop-color="#a8a4a7"/>
    <stop offset=".26" stop-color="#8b878d"/>
    <stop offset=".52" stop-color="#f3f4f4"/>
    <stop offset=".58" stop-color="#e5e5e6"/>
    <stop offset=".7" stop-color="#c0bec0"/>
    <stop offset=".87" stop-color="#847f84"/>
    <stop offset=".88" stop-color="#807b80"/>
    <stop offset="1" stop-color="#d1d3d4"/>
    <stop offset="1" stop-color="#a7a9ac"/>
  </linearGradient>
  <path fill="url(#SVGID_00000002379629078345157370000004037617920108854445_)" stroke="#FFF" stroke-miterlimit="10" stroke-width=".49" d="M55.12 102.73H25.44l2.44 2.43h28.28z"/>
  <linearGradient id="SVGID_00000155129093745009429640000011816022634602892170_" x1="1631.85" x2="1645.78" y1="95.08" y2="129.4" gradientTransform="matrix(-1 0 0 1 1682.29 0)" gradientUnits="userSpaceOnUse">
    <stop offset="0" stop-color="#e5e2df"/>
    <stop offset="0" stop-color="#ded9d6"/>
    <stop offset=".06" stop-color="#cfcbc9"/>
    <stop offset=".18" stop-color="#a8a4a7"/>
    <stop offset=".26" stop-color="#8b878d"/>
    <stop offset=".52" stop-color="#f3f4f4"/>
    <stop offset=".58" stop-color="#e5e5e6"/>
    <stop offset=".7" stop-color="#c0bec0"/>
    <stop offset=".87" stop-color="#847f84"/>
    <stop offset=".88" stop-color="#807b80"/>
    <stop offset="1" stop-color="#d1d3d4"/>
    <stop offset="1" stop-color="#a7a9ac"/>
  </linearGradient>
  <path fill="url(#SVGID_00000155129093745009429640000011816022634602892170_)" stroke="#FFF" stroke-miterlimit="10" stroke-width=".49" d="M60.13 105.24H30.46l2.43 2.43h28.29z"/>
  <linearGradient id="SVGID_00000011713813289477630480000013752774468832733089_" x1="1627.49" x2="1641.42" y1="96.92" y2="131.25" gradientTransform="matrix(-1 0 0 1 1682.29 0)" gradientUnits="userSpaceOnUse">
    <stop offset="0" stop-color="#e5e2df"/>
    <stop offset="0" stop-color="#ded9d6"/>
    <stop offset=".06" stop-color="#cfcbc9"/>
    <stop offset=".18" stop-color="#a8a4a7"/>
    <stop offset=".26" stop-color="#8b878d"/>
    <stop offset=".52" stop-color="#f3f4f4"/>
    <stop offset=".58" stop-color="#e5e5e6"/>
    <stop offset=".7" stop-color="#c0bec0"/>
    <stop offset=".87" stop-color="#847f84"/>
    <stop offset=".88" stop-color="#807b80"/>
    <stop offset="1" stop-color="#d1d3d4"/>
    <stop offset="1" stop-color="#a7a9ac"/>
  </linearGradient>
  <path fill="url(#SVGID_00000011713813289477630480000013752774468832733089_)" stroke="#FFF" stroke-miterlimit="10" stroke-width=".49" d="M64.27 107.64H34.6l2.43 2.44h28.28z"/>
  <linearGradient id="SVGID_00000085239193794236720520000001809967008383509120_" x1="-845.82" x2="-831.96" y1="89.81" y2="123.95" gradientTransform="translate(972.12)" gradientUnits="userSpaceOnUse">
    <stop offset="0" stop-color="#e5e2df"/>
    <stop offset="0" stop-color="#ded9d6"/>
    <stop offset=".06" stop-color="#cfcbc9"/>
    <stop offset=".18" stop-color="#a8a4a7"/>
    <stop offset=".26" stop-color="#8b878d"/>
    <stop offset=".52" stop-color="#f3f4f4"/>
    <stop offset=".58" stop-color="#e5e5e6"/>
    <stop offset=".7" stop-color="#c0bec0"/>
    <stop offset=".87" stop-color="#847f84"/>
    <stop offset=".88" stop-color="#807b80"/>
    <stop offset="1" stop-color="#d1d3d4"/>
    <stop offset="1" stop-color="#a7a9ac"/>
  </linearGradient>
  <path fill="url(#SVGID_00000085239193794236720520000001809967008383509120_)" stroke="#FFF" stroke-miterlimit="10" stroke-width=".49" d="M115.77 97.74h29.52l-2.42 2.42h-28.14z"/>
  <linearGradient id="SVGID_00000000211572278864286420000007635898528161810109_" x1="-851.94" x2="-838.08" y1="91.55" y2="125.69" gradientTransform="translate(972.12)" gradientUnits="userSpaceOnUse">
    <stop offset="0" stop-color="#e5e2df"/>
    <stop offset="0" stop-color="#ded9d6"/>
    <stop offset=".06" stop-color="#cfcbc9"/>
    <stop offset=".18" stop-color="#a8a4a7"/>
    <stop offset=".26" stop-color="#8b878d"/>
    <stop offset=".52" stop-color="#f3f4f4"/>
    <stop offset=".58" stop-color="#e5e5e6"/>
    <stop offset=".7" stop-color="#c0bec0"/>
    <stop offset=".87" stop-color="#847f84"/>
    <stop offset=".88" stop-color="#807b80"/>
    <stop offset="1" stop-color="#d1d3d4"/>
    <stop offset="1" stop-color="#a7a9ac"/>
  </linearGradient>
  <path fill="url(#SVGID_00000000211572278864286420000007635898528161810109_)" stroke="#FFF" stroke-miterlimit="10" stroke-width=".49" d="M109.96 100.24h29.51l-2.42 2.42h-28.13z"/>
  <linearGradient id="SVGID_00000013176093940791602220000018151258170347304321_" x1="-856.32" x2="-842.46" y1="93.34" y2="127.48" gradientTransform="translate(972.12)" gradientUnits="userSpaceOnUse">
    <stop offset="0" stop-color="#e5e2df"/>
    <stop offset="0" stop-color="#ded9d6"/>
    <stop offset=".06" stop-color="#cfcbc9"/>
    <stop offset=".18" stop-color="#a8a4a7"/>
    <stop offset=".26" stop-color="#8b878d"/>
    <stop offset=".52" stop-color="#f3f4f4"/>
    <stop offset=".58" stop-color="#e5e5e6"/>
    <stop offset=".7" stop-color="#c0bec0"/>
    <stop offset=".87" stop-color="#847f84"/>
    <stop offset=".88" stop-color="#807b80"/>
    <stop offset="1" stop-color="#d1d3d4"/>
    <stop offset="1" stop-color="#a7a9ac"/>
  </linearGradient>
  <path fill="url(#SVGID_00000013176093940791602220000018151258170347304321_)" stroke="#FFF" stroke-miterlimit="10" stroke-width=".49" d="M105.85 102.71h29.52l-2.42 2.42h-28.14z"/>
  <linearGradient id="SVGID_00000127743744159456440640000005748993825802548895_" x1="-861.61" x2="-847.76" y1="95.09" y2="129.24" gradientTransform="translate(972.12)" gradientUnits="userSpaceOnUse">
    <stop offset="0" stop-color="#e5e2df"/>
    <stop offset="0" stop-color="#ded9d6"/>
    <stop offset=".06" stop-color="#cfcbc9"/>
    <stop offset=".18" stop-color="#a8a4a7"/>
    <stop offset=".26" stop-color="#8b878d"/>
    <stop offset=".52" stop-color="#f3f4f4"/>
    <stop offset=".58" stop-color="#e5e5e6"/>
    <stop offset=".7" stop-color="#c0bec0"/>
    <stop offset=".87" stop-color="#847f84"/>
    <stop offset=".88" stop-color="#807b80"/>
    <stop offset="1" stop-color="#d1d3d4"/>
    <stop offset="1" stop-color="#a7a9ac"/>
  </linearGradient>
  <path fill="url(#SVGID_00000127743744159456440640000005748993825802548895_)" stroke="#FFF" stroke-miterlimit="10" stroke-width=".49" d="M100.86 105.21h29.52l-2.42 2.41H99.82z"/>
  <linearGradient id="SVGID_00000021086358340388287000000001808165052923447722_" x1="-865.95" x2="-852.09" y1="96.93" y2="131.07" gradientTransform="translate(972.12)" gradientUnits="userSpaceOnUse">
    <stop offset="0" stop-color="#e5e2df"/>
    <stop offset="0" stop-color="#ded9d6"/>
    <stop offset=".06" stop-color="#cfcbc9"/>
    <stop offset=".18" stop-color="#a8a4a7"/>
    <stop offset=".26" stop-color="#8b878d"/>
    <stop offset=".52" stop-color="#f3f4f4"/>
    <stop offset=".58" stop-color="#e5e5e6"/>
    <stop offset=".7" stop-color="#c0bec0"/>
    <stop offset=".87" stop-color="#847f84"/>
    <stop offset=".88" stop-color="#807b80"/>
    <stop offset="1" stop-color="#d1d3d4"/>
    <stop offset="1" stop-color="#a7a9ac"/>
  </linearGradient>
  <path fill="url(#SVGID_00000021086358340388287000000001808165052923447722_)" stroke="#FFF" stroke-miterlimit="10" stroke-width=".49" d="M96.75 107.6h29.51l-2.42 2.42H95.71z"/>
  <linearGradient id="SVGID_00000178894073554782438380000012895663922329458848_" x1="1.5" x2="161.5" y1="57.94" y2="57.94" gradientUnits="userSpaceOnUse">
    <stop offset="0" stop-color="#e5e2df"/>
    <stop offset="0" stop-color="#ded9d6"/>
    <stop offset=".06" stop-color="#cfcbc9"/>
    <stop offset=".18" stop-color="#a8a4a7"/>
    <stop offset=".26" stop-color="#8b878d"/>
    <stop offset=".52" stop-color="#f3f4f4"/>
    <stop offset=".58" stop-color="#e5e5e6"/>
    <stop offset=".7" stop-color="#c0bec0"/>
    <stop offset=".87" stop-color="#847f84"/>
    <stop offset=".88" stop-color="#807b80"/>
    <stop offset="1" stop-color="#d1d3d4"/>
    <stop offset="1" stop-color="#a7a9ac"/>
  </linearGradient>
  <path fill="url(#SVGID_00000178894073554782438380000012895663922329458848_)" stroke="#FFF" stroke-miterlimit="10" stroke-width="1.46" d="m154.12 32.9 2.8-14.16H5.83L7.59 32.9H1.5l7.97 64.25h140.6L161.5 32.9z"/>
  <linearGradient id="SVGID_00000118363245903321621440000005573569579045216899_" x1="1.5" x2="161.5" y1="57.94" y2="57.94" gradientUnits="userSpaceOnUse">
    <stop offset="0" stop-color="#e5e2df"/>
    <stop offset="0" stop-color="#ded9d6"/>
    <stop offset=".06" stop-color="#cfcbc9"/>
    <stop offset=".18" stop-color="#a8a4a7"/>
    <stop offset=".26" stop-color="#8b878d"/>
    <stop offset=".52" stop-color="#f3f4f4"/>
    <stop offset=".58" stop-color="#e5e5e6"/>
    <stop offset=".7" stop-color="#c0bec0"/>
    <stop offset=".87" stop-color="#847f84"/>
    <stop offset=".88" stop-color="#807b80"/>
    <stop offset="1" stop-color="#d1d3d4"/>
    <stop offset="1" stop-color="#a7a9ac"/>
  </linearGradient>
  <path fill="url(#SVGID_00000118363245903321621440000005573569579045216899_)" d="m154.12 32.9 2.8-14.16H5.83L7.59 32.9H1.5l7.97 64.25h140.6L161.5 32.9z"/>
  <path d="m150.88 35.56 2.8-14.16H8.84l1.76 14.16H4.51l7.85 58.83h135.97l10.06-58.83z"/>
  <path fill="#FFF" stroke="#FFF" stroke-miterlimit="10" stroke-width="1.22" d="M121.63 92.72H37.89l4.02 17.11H45l.91 3.85h3.23l.9 3.83h3.23l.9 3.84h15.9l1.66-1.72 1.34 1.72h9.09l1.89-1.84 1.58 1.84H105.01l.9-3.84h3.23l.9-3.83h3.23l.91-3.85h3.43z"/>
  <path d="m97.07 113.68-.9 3.83h3.23l.9-3.83z"/>
  <path fill="#CED0D1" d="m100.3 113.68-.9 3.83h3.23l.9-3.83z"/>
  <path d="m103.54 113.68-.9 3.83h3.23l.9-3.83z"/>
  <path fill="#CED0D1" d="m106.77 113.68-.9 3.83h3.23l.9-3.83z"/>
  <path d="m92.97 117.51-.9 3.84h3.23l.9-3.84z"/>
  <path fill="#CED0D1" d="m96.2 117.51-.9 3.84h3.23l.9-3.84z"/>
  <path d="m99.41 117.51-.9 3.84h3.23l.9-3.84z"/>
  <path fill="#CED0D1" d="m102.64 117.51-.9 3.84h3.23l.9-3.84zM91.53 109.84l-.9 3.84h3.23l.9-3.84z"/>
  <path d="m94.77 109.84-.9 3.84h3.23l.9-3.84z"/>
  <path fill="#CED0D1" d="m98 109.84-.9 3.84h3.23l.9-3.84z"/>
  <path d="m90.64 113.68-.9 3.83h3.23l.9-3.83z"/>
  <path fill="#CED0D1" d="m93.87 113.68-.9 3.83h3.23l.9-3.83zM89.73 117.51l-.91 3.84h3.24l.9-3.84z"/>
  <path d="m101.2 109.84-.9 3.84h3.23l.9-3.84z"/>
  <path fill="#CED0D1" d="m104.43 109.84-.9 3.84h3.23l.9-3.84z"/>
  <path d="m107.67 109.84-.9 3.84H110l.9-3.84z"/>
  <path fill="#CED0D1" d="m110.91 109.84-.91 3.84h3.23l.91-3.84z"/>
  <path d="m62.03 113.68.91 3.83H59.7l-.9-3.83z"/>
  <path fill="#CED0D1" d="m58.8 113.68.9 3.83h-3.23l-.9-3.83z"/>
  <path d="m55.56 113.68.9 3.83h-3.23l-.9-3.83z"/>
  <path fill="#CED0D1" d="m52.33 113.68.9 3.83H50l-.9-3.83z"/>
  <path d="m66.13 117.51.91 3.84h-3.23l-.91-3.84z"/>
  <path fill="#CED0D1" d="m62.9 117.51.91 3.84h-3.23l-.91-3.84z"/>
  <path d="m59.69 117.51.91 3.84h-3.23l-.91-3.84z"/>
  <path fill="#CED0D1" d="m56.46 117.51.91 3.84h-3.23l-.91-3.84zM67.57 109.84l.9 3.84h-3.23l-.9-3.84z"/>
  <path d="m64.33 109.84.9 3.84H62l-.9-3.84z"/>
  <path fill="#CED0D1" d="m61.1 109.84.9 3.84h-3.23l-.9-3.84z"/>
  <path d="m68.46 113.68.91 3.83h-3.23l-.91-3.83z"/>
  <path fill="#CED0D1" d="m65.23 113.68.91 3.83H62.9l-.9-3.83zM69.38 117.51l.9 3.84h-3.23l-.91-3.84z"/>
  <path d="m57.9 109.84.9 3.84h-3.23l-.9-3.84z"/>
  <path fill="#CED0D1" d="m54.67 109.84.9 3.84h-3.23l-.9-3.84z"/>
  <path d="m51.43 109.84.9 3.84H49.1l-.9-3.84z"/>
  <path fill="#CED0D1" d="m48.2 109.84.9 3.84h-3.23l-.9-3.84z"/>
  <path fill="#ED1B2F" d="M121.59 92.72h-83.7l4.02 17.1h22.11a5.75 5.75 0 0 0-3.66 4.35l-.25 1.16H64l-.52 2.46-.08.4h-4.08l-.16.76c-.32 1.53-.12 2.76.61 3.66.94 1.16 2.6 1.69 5.24 1.69 3.11 0 5.47-1.13 6.61-3.1.13.58.38 1.08.75 1.51.92 1.06 2.51 1.58 4.85 1.58 1.77 0 3.38-.48 4.67-1.4a6.63 6.63 0 0 0 2.11-2.5c.17.83.49 1.54.97 2.13.95 1.17 2.43 1.77 4.39 1.77a7.4 7.4 0 0 0 5.36-2.08 10.08 10.08 0 0 0 2.66-5.27c.55-2.6.27-4.61-.83-5.98-.4-.49-.89-.88-1.47-1.17h22.49l4.02-17.07z"/>
  <path d="M65.01 123.53c-2.35 0-3.87-.46-4.63-1.4-.58-.72-.73-1.7-.46-3l.03-.14h4.55l-.03.21c-.07.42-.02.73.13.91.13.15.35.23.65.23.65 0 1.12-.4 1.26-1.07.07-.32.03-.55-.1-.72-.19-.24-.62-.36-1.27-.36h-.95l.64-3.03h1.06c.9 0 1.44-.35 1.58-1.05.07-.32.05-.56-.07-.7-.1-.13-.3-.19-.58-.19-.47 0-.94.15-1.17 1.21l-.03.14h-4.56l.05-.22c.76-3.58 3.92-4.33 6.44-4.33 2.2 0 3.7.47 4.45 1.4.5.61.65 1.39.45 2.31a3.54 3.54 0 0 1-2.65 2.72c.62.17 1.07.45 1.37.85.39.52.49 1.24.3 2.12-.53 2.57-2.95 4.11-6.46 4.11z"/>
  <path fill="#FFF" d="M67.56 110.19c3.91 0 5.15 1.52 4.73 3.5-.28 1.33-1.27 2.48-3.36 2.75l-.01.03c2.25.19 2.69 1.44 2.38 2.89-.56 2.65-3.08 3.98-6.3 3.98-3.98 0-5.52-1.32-4.91-4.19h4.19c-.17 1.02.3 1.35.96 1.35.78 0 1.28-.5 1.44-1.21.18-.85-.28-1.3-1.54-1.3h-.73l.57-2.67h.92c1 0 1.6-.43 1.76-1.2.13-.61-.01-1.11-.82-1.11-.69 0-1.13.35-1.34 1.35h-4.2c.66-3.08 3.27-4.17 6.26-4.17m0-.36c-3.65 0-6 1.59-6.61 4.48l-.09.44H65.79l.06-.29c.21-.98.6-1.07.99-1.07.15 0 .35.02.44.13.08.09.09.29.03.55-.13.6-.6.91-1.41.91h-1.21l-.06.29-.57 2.67-.09.44h1.18c.73 0 1.02.16 1.13.29.04.04.15.18.06.57-.13.59-.52.93-1.08.93-.25 0-.42-.06-.51-.16-.12-.14-.15-.4-.09-.77l.07-.42h-4.92l-.06.29c-.29 1.36-.13 2.39.49 3.16.8.99 2.36 1.47 4.77 1.47 3.6 0 6.09-1.6 6.66-4.27.2-.94.09-1.7-.33-2.26a2.34 2.34 0 0 0-.96-.74 3.62 3.62 0 0 0 2.27-2.68c.2-.96.04-1.82-.49-2.46-.79-1.01-2.34-1.5-4.6-1.5z"/>
  <path d="M77.22 123.53c-2.1 0-3.49-.43-4.25-1.31-.56-.65-.77-1.55-.61-2.67l.02-.16h4.8l-.03.21c-.04.29-.01.5.08.61.07.08.18.12.34.12.4 0 .9-.18 1.2-1.61.15-.72.16-1.17.02-1.34-.07-.09-.2-.13-.46-.13-.44 0-.71.14-.94.88l-.04.13h-4.49l1.94-7.93h10.01l-.7 3.31h-5.67l-.43 1.44a4.36 4.36 0 0 1 2.37-.64c1.3 0 2.31.4 2.92 1.16.59.73.77 1.76.51 2.97-.65 3.06-3.18 4.96-6.59 4.96z"/>
  <path fill="#FFF" d="m84.59 110.52-.63 2.94H78.3l-.61 2.06c.85-.68 1.77-.9 2.69-.9 2.32 0 3.8 1.35 3.26 3.91-.67 3.17-3.33 4.81-6.41 4.81-3.29 0-5.07-1.09-4.69-3.78h4.43c-.08.52.04.94.6.94.61 0 1.09-.4 1.38-1.75.32-1.49-.01-1.68-.61-1.68-.59 0-.89.28-1.11 1h-4.12l1.85-7.57h9.63m.44-.34H74.65l-.07.28-1.84 7.56-.11.45h4.85l.08-.25c.2-.64.4-.75.77-.75.22 0 .29.03.32.06.04.05.14.26-.06 1.18-.31 1.46-.81 1.46-1.02 1.46-.07 0-.16-.01-.2-.05-.02-.03-.09-.13-.04-.47l.06-.41H72.23l-.04.31c-.17 1.17.05 2.12.65 2.81.8.92 2.24 1.37 4.39 1.37 3.5 0 6.09-1.95 6.76-5.1.27-1.27.08-2.35-.54-3.12-.65-.8-1.71-1.23-3.06-1.23-.76 0-1.45.15-2.07.45l.26-.89h5.68l.06-.29.63-2.94.08-.43z"/>
  <path d="M89.36 123.53c-1.72 0-2.99-.5-3.78-1.48-.95-1.17-1.18-2.96-.67-5.32.92-4.34 3.5-6.72 7.26-6.72 1.72 0 2.99.5 3.78 1.48.95 1.17 1.18 2.96.67 5.32-.92 4.33-3.5 6.72-7.26 6.72zm2.15-10.11c-.52 0-.94.24-1.61 3.39-.25 1.2-.56 2.83-.25 3.2.07.08.17.11.36.11.52 0 .95-.24 1.61-3.39.25-1.2.56-2.83.25-3.2-.06-.08-.16-.11-.36-.11z"/>
  <path fill="#FFF" d="M92.16 110.19c3.9 0 5.13 2.62 4.28 6.58-.84 3.97-3.18 6.58-7.08 6.58s-5.13-2.62-4.28-6.58c.84-3.97 3.18-6.58 7.08-6.58m-2.15 10.11c.66 0 1.11-.31 1.79-3.53.68-3.22.37-3.53-.29-3.53-.66 0-1.11.31-1.79 3.53-.68 3.22-.37 3.53.29 3.53m2.15-10.47c-3.85 0-6.49 2.44-7.43 6.87-.51 2.42-.27 4.26.71 5.47.83 1.02 2.15 1.54 3.92 1.54 3.85 0 6.49-2.44 7.43-6.87.51-2.42.27-4.26-.71-5.47-.83-1.02-2.15-1.54-3.92-1.54zm-2.15 10.11c-.19 0-.21-.03-.22-.04-.13-.16-.19-.82.29-3.05.69-3.25 1.09-3.25 1.44-3.25.19 0 .21.03.22.04.13.16.19.82-.29 3.05-.69 3.25-1.09 3.25-1.44 3.25z"/>
  <g fill="#FFF">
    <path d="M84.18 95.7h-.34a.1.1 0 0 0-.1.1v10.48c0 .05.04.1.1.1h.34a.1.1 0 0 0 .1-.1V95.79c0-.05-.04-.09-.1-.09zM87.54 102.45c-.35 0-.64-.2-.79-.31-.06-.04-.15-.04-.19.03l-.26.45c-.04.07-.02.12.02.17.13.13.53.43 1.26.43.82 0 1.32-.58 1.32-1.16 0-.76-.64-1.03-1.13-1.28-.39-.19-.61-.34-.61-.52 0-.16.11-.31.34-.31.3 0 .63.21.76.3.11.07.21.02.25-.04l.29-.43c.02-.04.03-.14-.03-.18a2.1 2.1 0 0 0-1.2-.42c-.86 0-1.29.56-1.29 1.11 0 .67.54.97 1.09 1.24.37.18.58.33.58.56-.02.23-.18.36-.41.36zM89.15 103.18h.62c.11 0 .17-.07.2-.13l.2-.45h1.52l.2.44c.05.11.1.14.2.14h.62c.08 0 .13-.07.1-.15l-1.75-3.76c-.02-.03-.06-.06-.09-.06h-.07c-.04 0-.08.03-.1.06l-1.75 3.76a.1.1 0 0 0 .1.15zm1.77-2.27.43.92h-.85l.42-.92zM94.11 103.17c.02.03.05.06.09.06h.06c.04 0 .08-.03.1-.06l1.76-3.76c.03-.07-.01-.15-.1-.15h-.74c-.05 0-.08.03-.1.06l-.92 2.04h-.03l-.92-2.04c-.01-.03-.05-.06-.1-.06h-.74c-.08 0-.13.07-.1.15l1.74 3.76zM99.15 102.46a.11.11 0 0 0-.11-.11h-1.55v-.76h1.28c.06 0 .11-.04.11-.11v-.61a.11.11 0 0 0-.11-.11h-1.28v-.69h1.55c.06 0 .11-.05.11-.11v-.61a.11.11 0 0 0-.11-.11h-2.32a.11.11 0 0 0-.11.11v3.7c0 .06.05.11.11.11h2.32c.06 0 .11-.05.11-.11v-.59zM104.85 99.29c-.01-.05-.06-.09-.1-.09h-.09c-.03 0-.08.02-.1.06l-1.3 2.42h-.01l-1.3-2.42c-.02-.03-.07-.06-.1-.06h-.09c-.04 0-.1.04-.1.09l-.63 3.76c-.01.07.04.12.11.12h.66a.1.1 0 0 0 .11-.09l.25-1.73h.01l.95 1.81c.02.03.06.06.09.06h.1c.03 0 .08-.03.1-.06l.94-1.81h.01l.25 1.73c.01.04.06.09.11.09h.66c.07 0 .12-.05.11-.12l-.64-3.76zM107.68 99.27c-.02-.03-.06-.06-.1-.06h-.06c-.04 0-.08.03-.1.06l-1.75 3.76c-.03.07.01.15.1.15h.62c.11 0 .17-.07.2-.13l.2-.45h1.52l.2.44c.05.11.1.14.2.14h.62c.08 0 .13-.07.1-.15l-1.75-3.76zm-.55 2.56.42-.92h.01l.43.92h-.86zM112.94 100.47a1.2 1.2 0 0 0-1.22-1.21h-1.67a.11.11 0 0 0-.11.11v3.7c0 .06.04.11.11.11h.67c.06 0 .11-.05.11-.11v-1.43h.39l.74 1.48a.1.1 0 0 0 .09.05h.74c.09 0 .13-.09.09-.16l-.77-1.42c.52-.19.83-.61.83-1.12zm-1.29.46h-.83v-.87h.83c.23 0 .43.16.43.43s-.2.44-.43.44zM116.01 99.26h-2.48a.11.11 0 0 0-.11.11v.61c0 .06.05.11.11.11h.8v2.99c0 .06.05.11.11.11h.67c.06 0 .11-.05.11-.11v-2.99h.8c.06 0 .11-.05.11-.11v-.61c-.01-.06-.06-.11-.12-.11zM87.36 104.72c.14 0 .27.04.39.15.02.02.05.02.07 0l.23-.24a.06.06 0 0 0 0-.08 1.05 1.05 0 0 0-1.75.78c0 .58.47 1.04 1.05 1.04.26 0 .51-.09.71-.28a.06.06 0 0 0 0-.08l-.23-.24c-.02-.02-.05-.02-.08 0a.56.56 0 0 1-.39.14.57.57 0 0 1-.57-.59c0-.32.24-.6.57-.6zM89.39 104.28c-.58 0-1.04.47-1.04 1.05 0 .58.46 1.04 1.04 1.04.58 0 1.05-.46 1.05-1.04 0-.58-.47-1.05-1.05-1.05zm0 1.63a.58.58 0 1 1 0-1.16.58.58 0 0 1 0 1.16zM92.61 104.33c0-.03-.03-.05-.05-.05h-.05c-.01 0-.04.01-.05.03l-.67 1.26h-.01l-.67-1.26a.05.05 0 0 0-.05-.03h-.05c-.02 0-.05.02-.05.05l-.33 1.95c-.01.04.02.06.06.06h.34c.03 0 .05-.02.06-.05l.13-.9h.01l.49.94c.01.02.03.03.05.03h.05c.01 0 .04-.01.05-.03l.49-.94h.01l.13.9c0 .02.03.05.06.05h.34c.03 0 .06-.03.06-.06l-.35-1.95zM94.11 104.31h-.7c-.03 0-.06.03-.06.05v1.92c0 .03.02.06.06.06h.34c.03 0 .06-.03.06-.06v-.68h.31c.38 0 .65-.29.65-.65a.65.65 0 0 0-.66-.64zm-.01.87h-.3v-.44h.29a.2.2 0 0 1 .21.21c.01.14-.08.23-.2.23zM95.76 104.32a.05.05 0 0 0-.05-.03h-.03a.05.05 0 0 0-.05.03l-.91 1.96c-.02.04.01.08.05.08h.32a.1.1 0 0 0 .1-.07l.1-.23h.79l.1.23c.03.06.05.07.1.07h.32c.04 0 .07-.04.05-.08l-.89-1.96zm-.29 1.33.22-.48.22.48h-.44zM98.58 104.31h-.35c-.03 0-.05.03-.05.05v1.03l-1.12-1.07c-.02-.02-.04-.04-.07-.04h-.04c-.03 0-.06.02-.06.05v1.96c0 .03.03.06.05.06h.35c.03 0 .06-.03.06-.06v-1.08l1.13 1.14a.1.1 0 0 0 .07.03h.03c.03 0 .06-.02.06-.05v-1.96c-.01-.03-.03-.06-.06-.06zM99.55 104.31h-.35c-.03 0-.05.03-.05.05v1.92c0 .03.03.06.05.06h.35c.03 0 .06-.03.06-.06v-1.92c0-.02-.03-.05-.06-.05zM101.38 104.31h-1.2c-.03 0-.05.03-.05.05v1.92c0 .03.02.06.05.06h1.2c.03 0 .05-.03.05-.06v-.32c0-.03-.02-.06-.05-.06h-.81v-.39h.66c.03 0 .06-.02.06-.05v-.32a.06.06 0 0 0-.06-.06h-.66v-.36h.81c.03 0 .05-.03.05-.06v-.32c.01 0-.01-.03-.05-.03zM102.54 105.11c-.2-.1-.32-.17-.32-.27 0-.08.06-.16.18-.16.15 0 .33.11.39.16.06.03.11.01.13-.02l.15-.22c.01-.02.02-.07-.02-.09-.09-.06-.32-.22-.62-.22-.45 0-.67.29-.67.58 0 .35.28.51.56.64.19.09.3.17.3.29 0 .1-.08.17-.2.17a.7.7 0 0 1-.41-.16c-.03-.02-.08-.02-.1.02l-.13.24c-.02.04-.01.06.01.09.07.07.28.22.65.22.43 0 .69-.3.69-.6 0-.4-.33-.54-.59-.67zM86.83 98.24c0-.69.54-1.58.98-2.1.24 0 .49-.03.67-.09a5.14 5.14 0 0 0-.93 1.74c0 .16.14.28.36.28.19-.56.63-1.12.79-1.12.03 0 .04.02.04.06 0 .2-.3.55-.3.83 0 .23.19.37.42.37.06-.51.43-.94.43-1.33 0-.15-.11-.24-.26-.24-.22 0-.43.13-.59.27.22-.35.56-.83.81-1.08 0 0-.06-.08-.25-.08a2.8 2.8 0 0 1-1.1.16 2.6 2.6 0 0 1-1.28-.28s-.02.05-.02.11c0 .25.32.36.62.4-.36.46-.87 1.27-.87 1.71-.01.24.23.39.48.39zM89.6 98.08c.46 0 .89-.23.89-.5 0-.11-.13-.18-.13-.18-.12.2-.36.47-.54.47-.05 0-.06-.03-.06-.09 0-.11.03-.2.11-.34.48-.05.93-.33.93-.63 0-.12-.1-.19-.27-.19-.54 0-1.34.58-1.34 1.13 0 .19.13.33.41.33zm.87-1.29c.03 0 .04.02.04.05 0 .19-.29.38-.55.42.16-.23.38-.47.51-.47z"/>
  </g>
  <g fill="#FFF">
    <path d="m78.84 101.45.58-1.52.58 1.52h-1.16zm1.18-2.38h-1.2l-1.68 4.12h1.04l.38-1.01h1.72l.38 1.01h1.04l-1.68-4.12zm-8.49 3.4c-.68 0-1.23-.61-1.23-1.37 0-.76.55-1.37 1.23-1.37.68 0 1.23.61 1.23 1.37 0 .76-.55 1.37-1.23 1.37m0-3.55a2.18 2.18 0 1 0 0 4.36 2.18 2.18 0 0 0 0-4.36m-8.59 3.55c-.68 0-1.23-.61-1.23-1.37 0-.76.55-1.37 1.23-1.37.68 0 1.23.61 1.23 1.37 0 .76-.55 1.37-1.23 1.37m0-3.55a2.18 2.18 0 1 0 0 4.36 2.18 2.18 0 0 0 0-4.36m5.38.15-1.07 1.67-1.07-1.67h-1.04l1.65 2.58v1.54h.92v-1.54l1.65-2.58h-1.04zm9.03 0h-3.52v.79h1.3v3.33h.92v-3.33h1.3v-.79zm-20.3.79h1.31v3.33h.92v-3.33h1.3v-.79h-3.52v.79zM48.79 100.51c.08-.78.3-1.3.6-1.49-.89.05-1.96.37-1.96.81 0 .33.52.58 1.36.68zM49.65 100.56l.51-.02c-.08-.52-.28-.96-.51-.96s-.43.43-.51.96c.16.02.33.02.51.02zM50.51 100.51c.84-.1 1.36-.35 1.36-.68 0-.44-1.06-.75-1.96-.81.3.2.53.71.6 1.49zM48.76 101.14v-.03c-1.05-.15-1.73-.55-1.81-1.02-.2.28-.32.6-.32.96 0 1.16 1.21 2.11 2.76 2.21-.37-.24-.63-.98-.63-2.12z"/>
    <path d="M44.69 96.19v9.89h9.89v-9.89h-9.89zm4.96 7.42c-2.05 0-3.64-1.05-3.64-2.47 0-1.43 1.58-2.47 3.64-2.47 2.05 0 3.64 1.05 3.64 2.47 0 1.43-1.58 2.47-3.64 2.47z"/>
    <path d="M50.54 101.11v.03c0 1.14-.27 1.88-.63 2.11 1.55-.1 2.76-1.06 2.76-2.21 0-.36-.11-.68-.32-.96-.08.47-.76.88-1.81 1.03zM49.65 101.17l-.55-.02c.02.88.26 1.33.55 1.33.29 0 .53-.45.55-1.33l-.55.02z"/>
  </g>
  <path d="m77.8 27.85 1.18-.54.77-.35 1.32-.59.32-.14.49-.21 1.21-.52.8-.33 1.15-.47.76-.3 1.14-.42.69-.24 1.19-.38.54-.17 1.64-.4.49-.08.96-.16c.59-.07 1.16-.1 1.7-.09.18 2.8.2 5.11-.01 5.5.1.36.35.62.66.77 1.63.83 2.96.78 6.46-.55 3.04-.98 5.34-1.83 7.32-.9l.23.12-.44-1.41a75.24 75.24 0 0 0-3.91-9.86l-.14-.27-.11-.02c-3.65-1.1-4.48 2.05-7.69.08a34.08 34.08 0 0 1-.36-6.33c-1.15-2.2-3.36-3.3-6.37-3.59l-1.55-.08H88.18l-1.65.05-.12.01h-.1l-.55.05-1.04.1-.27.04-.2.02-.59.09-.86.13-.43.08-.32.05-.56.11-.72.13-.62.13-.43.09-.49.12-.59.13-.82.2-.55.13-.39.1-.45.11-1.08.29-.63.17-.28.08-.31.08-1.43.42-.38.11-.24.07-.14.04-.16.05-.61.18-1.14.35-.13-.48-.74.21L70.71 15l3.59 13.09 6.68 24.36.74-.21-6.38-23.27 1.94-.89.52-.23m-7.09-15.76z" opacity=".5"/>
  <linearGradient id="SVGID_00000124130564546925436750000008109498680012397231_" x1="49.69" x2="63.45" y1="46.96" y2="46.96" gradientTransform="rotate(1.62 782.63 601.04)" gradientUnits="userSpaceOnUse">
    <stop offset="0" stop-color="#e5e2df"/>
    <stop offset="0" stop-color="#ded9d6"/>
    <stop offset=".04" stop-color="#cfccc9"/>
    <stop offset=".11" stop-color="#a8a9a8"/>
    <stop offset=".21" stop-color="#697072"/>
    <stop offset=".26" stop-color="#465053"/>
    <stop offset=".37" stop-color="#878d8f"/>
    <stop offset=".46" stop-color="#b7babb"/>
    <stop offset=".53" stop-color="#d5d5d6"/>
    <stop offset=".57" stop-color="#e0e0e0"/>
    <stop offset=".63" stop-color="#d6d7d8"/>
    <stop offset=".73" stop-color="#bcbfc2"/>
    <stop offset=".86" stop-color="#91979e"/>
    <stop offset=".88" stop-color="#8b9298"/>
    <stop offset="1" stop-color="#d1d3d4"/>
    <stop offset="1" stop-color="#a7a9ac"/>
  </linearGradient>
  <path fill="url(#SVGID_00000124130564546925436750000008109498680012397231_)" fill-rule="evenodd" d="M78.08 48.29 66.26 5.2l.74-.21 11.82 43.09z" clip-rule="evenodd"/>
  <path fill-rule="evenodd" d="M91.91 24.56a1.24 1.24 0 0 1-.66-.77c.46-.87-.21-10.98-1.12-15.23 6.47 7.35 6.49 1.7 11.19 3.12l.11.02.14.27a75.24 75.24 0 0 1 3.91 9.86l.44 1.41-.23-.12c-1.98-.93-4.28-.08-7.32.9-3.5 1.31-4.83 1.37-6.46.54z" clip-rule="evenodd"/>
  <linearGradient id="SVGID_00000179616954834956256730000002614371436587371413_" x1="-51.42" x2="-48.11" y1="253.44" y2="251.47" gradientTransform="rotate(18.01 765.35 594.64)" gradientUnits="userSpaceOnUse">
    <stop offset="0" stop-color="#b0b1b1"/>
    <stop offset="1" stop-color="#fff"/>
  </linearGradient>
  <path fill="url(#SVGID_00000179616954834956256730000002614371436587371413_)" fill-rule="evenodd" d="m93.1 25.01-.18-2.16-.21-.05c-.34-.1-.68-.23-1.02-.4l-.3-.16v-.6l-.02-.91-.03-.81.07.05c.24.16.49.3.73.41l.59.21-.17-2-.52-.12-.8-.3-.05-.73-.11-1.37.27.17c.22.11.44.21.67.29l.38.1-.19-2.27-.28-.16c-.3-.19-.58-.42-.86-.69l-.26-.28-.07-.62-.14-1.14-.12-.84.2.27c.37.46.74.84 1.1 1.16l.24.19-.16-1.88.4.36c.16.14.31.27.46.38l.43.33.32 1.64.16.07c.49.18.97.26 1.46.29h.58l-.26-1.05.43.01c.37-.02.71-.11 1.06-.23l.16-.06.31 1.07.53-.13c.45-.12.89-.26 1.32-.39l.07-.02-.36-1.14.17-.04c.21-.03.43-.05.66-.06l.66.05.31.83.34-.06.57-.03.07.01.68 1.47-.24-.01-.44.04-.42.06.55 1.5.48-.03.72.03.05.01.6 1.43.02.05-.48-.04c-.2 0-.41 0-.61.02l-.21.03.78 2.1.7.03.68.13.07.19.52 1.53-.34-.14a3.43 3.43 0 0 0-.64-.11h-.38l.83 2.25-.45-.07a4.61 4.61 0 0 0-.83.01l-.78.1-.63-1.98-.49.15-.73.27-.89.36.51 1.77-.8.25-1.11.36-.1.04-.42-1.69-.25.09c-.53.18-1.06.33-1.6.43l-.62.09.36 1.88-.54.13c-.88.22-1.53.22-2.16.08zm1.87-4.22.24-.02a12.7 12.7 0 0 0 1.59-.3l.55-.15-.5-2.04-.43.12c-.48.11-.97.21-1.46.26l-.4.03.41 2.1zm4.26-1.05 1.56-.47.55-.13-.64-2.01-.07.02c-.45.12-.9.26-1.37.41l-.61.19.58 1.99zm-5.04-2.93.65-.05.74-.11.83-.18-.38-1.54-.48.06c-.4.03-.8.03-1.19-.01l-.54-.07.37 1.9zm3.98-.78.41-.11c.5-.13 1.01-.26 1.51-.37l.11-.02-.44-1.39-.66.17-1.15.29-.17.03.39 1.4z" clip-rule="evenodd"/>
  <path fill-rule="evenodd" d="m92.89 22.84-.19-2.26.73.18c.28.04.57.06.85.06l.65-.03.43 2.19-.04.01c-.58.07-1.17.08-1.76 0l-.67-.15zm4.93-.48-.5-2.05.47-.13 1.41-.44.54 1.89-.2.08c-.54.22-1.09.44-1.65.63l-.07.02zm-5.29-3.79-.17-1.96.51.12c.27.04.54.07.81.07l.48-.02.37 1.9h-.01c-.56.04-1.11.03-1.67-.05l-.32-.06zm9.33 2.27-.54-1.71.84-.16c.28-.04.56-.07.84-.08h.13l.6 1.63h-.36c-.48.04-.97.15-1.47.3l-.04.02zm-5.04-2.57-.44-1.81.66-.16 1.1-.29.5 1.72-1.63.49-.19.05zm-3.65-3.51-.36-.12a4.73 4.73 0 0 1-.47-.2l-.18-.1-.18-2.1.01.01c.45.36.91.62 1.36.8l.07.03.35 1.81-.6-.13zm7.5 2.37-.51-1.6.31-.07c.28-.05.57-.1.85-.13l.46-.03.55 1.5-.6.09c-.24.04-.5.1-.75.16l-.31.08zM96 14.93l-.37-1.5.41-.01c.29-.03.58-.07.86-.13l.42-.1.41 1.44-.19.05c-.49.11-.98.19-1.48.25H96zm3.72-.79-.47-1.48.13-.04.77-.21.53-.1.55 1.49-.28.05-.63.14-.6.15z" clip-rule="evenodd"/>
  <path fill-rule="evenodd" d="M96.33 20.44c.78 2.41-4.61 1.23-5.1 3.37.56-4.81-2.17-10.31-4.48-15.03l3.48 2.55 6.1 9.11z" clip-rule="evenodd"/>
  <linearGradient id="SVGID_00000037651449097109425720000012484422071978137253_" x1="-55.58" x2="-51.51" y1="258.5" y2="255.81" gradientTransform="rotate(18.01 765.35 594.64)" gradientUnits="userSpaceOnUse">
    <stop offset="0" stop-color="#fff"/>
    <stop offset="1" stop-color="#7e7e7e"/>
  </linearGradient>
  <path fill="url(#SVGID_00000037651449097109425720000012484422071978137253_)" fill-rule="evenodd" d="M91.23 23.81a16.1 16.1 0 0 0-.85-6.59l-.05-.15.02-.01c1.02-.22 2.38.12 3.19-.42l.55.46.28.42-.08.14c-.41.57-1.25.69-2.13.77l-.14.01.03.1.16.64.1.49.12-.01c.37-.03.76-.01 1.14-.02l.26-.02-.06-.28-.26-1.04 1.69.44.1.15.16.7v.02l.54.45c-.08.2-.2.36-.35.49l-.05.03.02.24c.01.21.02.41.01.61l-.03.42h-.01c-.37.16-.84.27-1.34.37l-.23.05.03-.34v-.51l-.02-.35-.32.03c-.38.03-.76.06-1.13.12l-.09.01.01.58-.03.68-.02.18-.12.04c-.55.24-.98.57-1.1 1.1z" clip-rule="evenodd"/>
  <path fill-rule="evenodd" d="m91.28 21.71-.02-.32c-.02-.27-.05-.55-.09-.82l-.07-.42.21-.18c.26-.17.56-.25.9-.3l.11-.01h.04l.03.16c.08.43.13.87.16 1.31v.09l-.04.01-.23.04a2.5 2.5 0 0 0-.9.35l-.1.09zm2.79-.64-.01-.17c-.03-.35-.08-.69-.14-1.04l-.05-.24.3-.02c.36-.04.69-.12.97-.3l.32.27.01.02v.02l.05.04.05.35.06.41.01.14-.04.02v.02l-.17.11c-.36.2-.82.29-1.31.35l-.05.02zm-3.3-2.47-.14-.53-.09-.32 1.37.17.15.53-.61.06-.55.07-.13.02z" clip-rule="evenodd"/>
  <path fill-rule="evenodd" d="M71.82 25.09c.25-6.52-1.15-13-5.37-19.42.82-.26 1.63-.5 2.44-.74l.16-.05.14-.04.62-.18 1.45-.42.31-.08.28-.08.63-.17 1.08-.29.45-.11.39-.1.55-.13.82-.2.59-.13.49-.12.43-.09.62-.13.72-.13.56-.11.32-.05.43-.08.86-.12.59-.09.2-.02.27-.04 1.04-.1.55-.05h.1l.12-.01 1.65-.05H85.37l1.55.08c3.01.29 5.22 1.38 6.38 3.6-.22 6.96 1.37 11.08 3.07 15.02-1.67-1.88-3.97-2.41-6.79-2.07l-.96.16-.49.08-1.65.41-.54.17-1.19.38-.69.24-1.14.42-.76.3-1.18.45-.8.33-1.21.52-.81.36-1.32.59-.77.35-4.25 1.94z" clip-rule="evenodd"/>
  <linearGradient id="SVGID_00000178887150418478936100000001580053956325989049_" x1="-73.07" x2="-65.81" y1="260.11" y2="252.68" gradientTransform="rotate(18.01 765.35 594.64)" gradientUnits="userSpaceOnUse">
    <stop offset="0" stop-color="#b0b1b1"/>
    <stop offset="1" stop-color="#fff"/>
  </linearGradient>
  <path fill="url(#SVGID_00000178887150418478936100000001580053956325989049_)" fill-rule="evenodd" d="M71.83 23.18v-.53c-.02-.81-.07-1.63-.15-2.44l-.06-.45 2.09-1.17-.02-.15c-.11-.72-.24-1.43-.37-2.13l-.23-1.08-1.08.62-.96.6-.24-1.1-.63-2.06 2.21-1.06-.01-.04c-.18-.67-.37-1.33-.58-1.98l-.26-.77-1.37.65-1.03.53-.04-.12c-.36-.81-.76-1.61-1.2-2.42l-.09-.15 2.79-1.04-.19-.47-.8-1.7.18-.05 1.45-.42.31-.08.28-.08.44-.12.78 2.05.9-.32 2.06-.64-.34-.86-.47-.99.54-.13.59-.13.49-.12.43-.09.6-.13.67 1.76.96-.25 2.1-.37-.33-.83-.38-.82.47-.07.2-.02.27-.04 1.04-.1.55-.05h.1l.12-.01.64 1.68.49-.02c.85-.01 1.68.03 2.49.13l.31.05-.4-1.78.83.11c.7.12 1.35.3 1.95.53l.24.12.03.28.23 1.49.33.12c.37.16.74.34 1.11.53l1.4.89v1.51L92.36 7c-.36-.16-.72-.3-1.09-.43l-.52-.16.47 2.41.88.29 1.28.55.03.49.19 1.41-1.06-.38-.81-.19.23.96.43 1.57.58.11 1.08.31.03.13c.15.6.31 1.17.48 1.73l.26.78-.63-.19a8.06 8.06 0 0 0-.74-.15l-.28-.04.82 2.6-.62-.22a8.06 8.06 0 0 0-1.81-.29h-.69l-.51-2.24-.66.02c-.36.02-.74.05-1.13.1l-.57.08.53 2.3-.43.07-1.65.41-.54.17-.78.25-.01-.1-.32-2.44-.03.01c-.46.12-.93.26-1.41.41l-.92.32.58 2.54-.14.05-.76.3-1.14.46-.8.33-.56.24-.09-.96-.23-1.69-.55.25-1.55.77.56 2.45-.92.41-.77.35-1.7.78-.1-1.1-.15-1.13-.53.32-1.76 1.16zm4.69-6.03.45-.23 1.95-.85-.34-1.97-.3-1.44-1.38.61-1.27.61.89 3.27zm5.27-2.19.23-.09 2.38-.71-.23-1.33-.39-1.9-1.18.27c-.44.11-.89.24-1.34.38l-.35.12.88 3.26zm-6.99-3.8 1.01-.43 1.85-.68-.02-.07c-.18-.67-.37-1.33-.58-1.98l-.23-.67-.19.06c-.51.17-1.04.36-1.56.56l-1.18.47.9 2.74zm12.54 2.42 1.64-.19.77-.03-.63-2.8-.56-.04c-.36-.01-.73-.02-1.1-.01l-.94.05.82 3.02zm-7.18-4.33.7-.21 2.32-.5-.53-1.82-.25-.76-1.29.22c-.48.09-.96.2-1.45.32l-.36.1.86 2.65zm5.68-1 2.03-.01.74.07-.56-2.47-.29-.04c-.82-.09-1.67-.12-2.54-.09l-.2.01.82 2.53z" clip-rule="evenodd"/>
  <path fill-rule="evenodd" d="m74.11 21.65-.22-1.8-.21-1.29.69-.39 2.14-1.04.27.98.41 1.8-1.43.77-1.65.97zm5.19-2.78-.15-1.24-.26-1.6.62-.26c.56-.23 1.12-.44 1.67-.64l.59-.2.26.97.39 1.72-.67.23c-.62.23-1.26.49-1.91.78l-.54.24zm-6.24-3.67-.21-1.01-.5-1.99.8-.38 1.63-.68.51 1.56.31 1.15-1.54.79-1 .56zm11.74 1.67-.06-.51-.36-2.24.05-.01c.53-.14 1.05-.26 1.56-.36l1.34-.23.3 1.1.37 1.59-1.11.17c-.52.1-1.05.21-1.6.35l-.49.14zm-6.55-4.25-.13-.65-.5-1.97.73-.26c.56-.19 1.12-.36 1.67-.52l.12-.03.41 1.28.32 1.18-1.15.38-1.47.59zm12.09 3.39-.61-2.69.63-.02c.46.01.9.04 1.33.09l.68.11.42 1.52.36 1.14-.95-.11c-.37-.03-.76-.05-1.16-.05l-.7.01zM71.52 9.4l-.17-.53-.78-2.03.53-.2 1.93-.67.55 1.44.31.95-1.68.71-.69.33zm12.23 1.5-.04-.2-.56-2.2.1-.02c.53-.09 1.05-.16 1.57-.21l.99-.06.32 1 .36 1.31-.39.02a20 20 0 0 0-1.48.19l-.87.17zm-6.94-3.61-.2-.63-.64-1.65.74-.23 1.77-.47.34.9.44 1.35-1.24.33-1.21.4zm12.29 3.23-.51-2.24.71.07c.48.07.95.17 1.41.29l.51.16.28 1.28.21.86-.34-.09c-.4-.09-.8-.16-1.22-.22l-1.05-.11zm-6.72-4.59-.17-.54-.65-1.68.58-.09c.58-.08 1.16-.13 1.74-.16h.37l.19.49.56 1.73-1.65.12-.97.13zm5.64-.14-.49-2.18 1.29.24c.52.13 1.04.29 1.54.48l.04.02.13.9.21 1.12-1.15-.32c-.48-.11-.97-.19-1.47-.26h-.1z" clip-rule="evenodd"/>
  <path fill="#B0B0B1" fill-rule="evenodd" d="M92.15 24.71c-.24-.09-.48-.2-.65-.35a.75.75 0 0 1-.25-.73c.03-.11.08-.21.14-.3.09-.12.2-.22.32-.31.16-.11.34-.2.53-.28.34-.14.7-.24 1.05-.33.56-.14 1.12-.26 1.68-.43.35-.11.75-.24 1.04-.46a.79.79 0 0 0 .34-.55.58.58 0 0 0-.02-.23l-.09-.27-.22-.28a5.24 5.24 0 0 0-2.64-1.59 9 9 0 0 0-3.21-.31 8.1 8.1 0 0 1 4.33.65l.36.18a4.92 4.92 0 0 1 1.39 1.14c.04.06.09.11.12.18.12.27.17.55.03.84l-.06.1c-.21.3-.58.46-.93.59-.36.13-.72.22-1.08.31-.47.11-.94.21-1.4.34-.4.11-.86.24-1.2.49a1 1 0 0 0-.32.33l-.06.12-.02.06v.05l-.02.14.01.14c.03.14.11.27.21.37.26.25.67.4 1.04.52l.71.22c-.4-.12-.76-.22-1.13-.35z" clip-rule="evenodd"/>
  <path fill="#333" fill-rule="evenodd" d="M71.89 24.96c-.61.51-1.04 1.05-.83 1.69l.37-.75.46-.94z" clip-rule="evenodd"/>
  <path fill="#333" fill-rule="evenodd" d="M71.87 24.93c-.29.74-.42 1.42.07 1.88l-.03-.83-.04-1.05zM66.51 5.7c-.61.51-1.04 1.05-.83 1.69l.37-.75.46-.94z" clip-rule="evenodd"/>
  <path fill="#333" fill-rule="evenodd" d="M66.49 5.67c-.29.74-.42 1.42.07 1.89l-.03-.83-.04-1.06z" clip-rule="evenodd"/>
  <path fill="#FFF" fill-rule="evenodd" d="M94.7 12.3a3.65 3.65 0 0 1-1.19-.68c.34.24.7.46 1.14.59 1.22.37 2.32-.15 3.44-.5a4.9 4.9 0 0 1 2.77-.17c.18.05.36.11.53.18a4.84 4.84 0 0 0-2.48-.12c-.34.08-.67.17-1 .28-1.03.33-2.08.78-3.21.42z" clip-rule="evenodd"/>
  <path fill="#E3E3E3" fill-rule="evenodd" d="M105.78 23.17a63.7 63.7 0 0 0-4.41-11.45l.1-.05a63.13 63.13 0 0 1 4.41 11.47l-.1.03z" clip-rule="evenodd"/>
  <path fill="#E3E3E3" fill-rule="evenodd" d="M92.52 24.91a2.4 2.4 0 0 1-.33-.15l.05-.1c3.39 1.8 9.91-3.57 13.71-1.56l-.05.1c-3.6-1.9-9.87 3.06-13.38 1.71zM66.4 5.79l-.03-.11.06-.02-.03-.08c12.74-3.93 23.95-6.25 26.98-.16l-.07.03.03.06-.1.05C90.27-.41 79.2 1.84 66.4 5.79z" clip-rule="evenodd"/>
  <path d="m36.98 63.99-.02-.01c-1.8-.65-2.88-1.04-2.73-1.69.18-.76 1.26-1.28 2.89-1.4 1.88-.14 3.61.18 4.63.86l.08.05 1.26-5.31.01-.05-.05-.02a13.23 13.23 0 0 0-5.27-.51c-4.73.36-8.5 3.09-9.37 6.79-.93 3.93 1.29 5.02 4.07 5.94l.66.22c1.52.5 2.44.8 2.28 1.46-.15.65-1.1 1.03-2.89 1.16-1.81.14-3.89-.28-5.43-1.1l-.07-.04-1.32 5.58.05.02c1.02.39 2.42.61 3.96.65.63.02 1.29 0 1.95-.05 5.17-.39 8.65-2.81 9.55-6.62.89-3.74-1.39-4.9-4.24-5.93zM55.36 54.71l-.36.03L40.07 75.4l-.08.11 6.19-.47h.03l1.84-2.68 6.02-.46.64 2.49 6.18-.47-5.53-19.16v-.05zM53.33 68.2l-2.7.2c.48-.74 1.72-2.66 2.16-3.53.04.87.4 2.67.54 3.33zM74.11 53.55l-3.73 5.41a45.37 45.37 0 0 0-2.61 4.08c-.05-.83-.3-2.1-.74-3.8l-1.25-5.01-.01-.05-6.57.5 5.85 19.19.36-.03L80.7 53.05l-6.59.5zM87.64 52.53l-5.96.45-4.64 19.64-.02.08 5.91-.45h.05l4.64-19.64zM108.58 50.94l-5.85.44-2.06 8.73-9.27-8.12-.02-.01-.35.02-4.71 19.91-.02.09 5.77-.44.05-.01 2.07-8.73 9.32 8.12.02.02.32-.03 4.71-19.91zM128.03 50.33c-1.68-.71-3.8-.97-6.31-.78-6.13.47-11.8 5.22-13.18 11.06-.66 2.8-.21 5.29 1.26 7.01 1.33 1.55 3.43 2.41 6.02 2.47.44.01.89 0 1.35-.04 2.5-.19 5.29-.94 7.45-2.01l.03-.01 1.97-8.33.02-.08-5.64.43h-.05l-1.08 4.55c-.46.08-.98.15-1.51.19-1.45.11-2.58-.26-3.28-1.07-.72-.84-.93-2.09-.59-3.52a7.25 7.25 0 0 1 6.56-5.37c2.69-.2 4.44.32 5.67.79l.07.03 1.25-5.29-.01-.03zM144.76 48.71a13.23 13.23 0 0 0-5.27-.51c-4.73.36-8.5 3.09-9.37 6.79-.93 3.93 1.29 5.02 4.07 5.94l.66.22c1.52.5 2.44.8 2.28 1.46-.15.65-1.1 1.03-2.89 1.16-1.81.14-3.89-.29-5.43-1.1l-.07-.04-1.32 5.58.05.02c1.02.39 2.42.61 3.96.65.63.02 1.29 0 1.95-.05 5.17-.39 8.65-2.81 9.55-6.62.88-3.74-1.4-4.9-4.24-5.93l-.02-.01c-1.8-.65-2.88-1.04-2.73-1.69.18-.76 1.26-1.28 2.89-1.4 1.88-.14 3.61.18 4.63.86l.08.05 1.27-5.37-.05-.01zM27.92 54.56c2.3-.17 4.77-.82 6.45-1.7l.03-.01 1.27-5.39-.12.06a15.45 15.45 0 0 1-5.85 1.67c-1.46.11-2.6-.26-3.3-1.08-.71-.83-.92-2.06-.58-3.46a7.25 7.25 0 0 1 6.56-5.37c2.34-.18 3.86.4 4.8.86l.07.03 1.25-5.3-.05-.02A10.14 10.14 0 0 0 33 34c-6.13.47-11.8 5.22-13.18 11.06-.67 2.83-.21 5.35 1.3 7.12 1.29 1.51 3.26 2.34 5.63 2.4.4.01.78 0 1.17-.02zM36.66 53.49l5.96-.45 1.79-7.56 6.53-.5-1.79 7.56 5.99-.45 4.64-19.64.02-.08-5.98.45-1.72 7.27-6.53.49 1.72-7.26-5.96.45-4.65 19.64zM56.41 51.99l6.22-.47 1.84-2.68 6.02-.46.64 2.49 6.18-.47-5.53-19.16-.01-.05-.36.03-14.92 20.66-.08.11zm10.63-7.1c.48-.74 1.72-2.66 2.16-3.53.04.87.4 2.66.54 3.32l-2.7.21zM82.6 50.31c.63.02 1.29 0 1.95-.05 5.17-.39 8.65-2.81 9.55-6.62.88-3.74-1.4-4.9-4.24-5.93l-.02-.01c-1.8-.65-2.88-1.04-2.73-1.69.18-.76 1.26-1.28 2.89-1.4 1.88-.14 3.61.18 4.63.86l.08.05 1.27-5.37-.05-.02a13.23 13.23 0 0 0-5.27-.51c-4.73.36-8.5 3.09-9.37 6.79-.93 3.93 1.29 5.02 4.07 5.94l.66.22c1.52.5 2.44.8 2.28 1.46-.15.65-1.1 1.03-2.89 1.16-1.81.14-3.89-.29-5.43-1.1l-.07-.04-1.32 5.58.05.02c1.02.4 2.42.62 3.96.66zM94.93 49.07l13.99-1.06 1.17-4.92-8.03.61.65-2.78 6.53-.5 1.09-4.62-6.52.5.59-2.48 7.61-.58 1.16-4.92-13.57 1.03-4.65 19.64z"/>
  <g fill="#FFF">
    <path d="m121.11 31.63-.51 2.04-2.19.14-1.57 6.3-2.5.16 1.57-6.3-2.19.14.51-2.04 6.88-.44zM125.47 39.56l.8-3.22-2.85.18-.8 3.22-2.49.16 2.08-8.34 2.49-.16-.77 3.09 2.85-.18.77-3.09 2.5-.16-2.08 8.34-2.5.16zM131.52 30.96l5.74-.37-.51 2.04-3.25.21-.28 1.11 2.79-.18-.48 1.91-2.79.18-.31 1.24 3.43-.22-.51 2.04-5.92.38 2.09-8.34z"/>
  </g>
  <defs>
    <path id="SVGID_00000137107308144068822200000005663755525280904080_" d="m134.95 42.93-22.87 1.43 3.05-16.35L138 26.58z"/>
  </defs>
  <clipPath id="SVGID_00000041284267315760128060000012258788404262764972_">
    <use xlink:href="#SVGID_00000137107308144068822200000005663755525280904080_" overflow="visible"/>
  </clipPath>
  <path fill="none" stroke="#ED1B2F" stroke-miterlimit="10" stroke-width=".72" d="m114.05 29.39 24.13-1.65M112.22 43.33l24.13-1.65" clip-path="url(#SVGID_00000041284267315760128060000012258788404262764972_)"/>
  <g fill="#FFF">
    <path d="m35.8 62.11-.02-.01c-1.8-.65-2.88-1.04-2.73-1.69.18-.76 1.26-1.28 2.89-1.4 1.88-.14 3.61.18 4.63.86l.08.05 1.26-5.31.01-.05-.05-.02a13.23 13.23 0 0 0-5.27-.51c-4.73.36-8.5 3.09-9.37 6.79-.93 3.93 1.29 5.02 4.07 5.94l.66.22c1.52.5 2.44.8 2.28 1.46-.15.65-1.1 1.03-2.89 1.16-1.81.14-3.89-.28-5.43-1.1l-.07-.04-1.32 5.58.05.02c1.02.39 2.42.61 3.96.65.63.02 1.29 0 1.95-.05 5.17-.39 8.65-2.81 9.55-6.62.88-3.74-1.4-4.9-4.24-5.93zM54.17 52.83l-.36.03-14.92 20.66-.08.11 6.19-.47h.03l1.84-2.68 6.02-.46.64 2.49 6.18-.47-5.53-19.16-.01-.05zm-2.03 13.49-2.7.2c.48-.74 1.72-2.66 2.16-3.53.05.87.41 2.67.54 3.33zM72.93 51.68l-3.73 5.41a45.37 45.37 0 0 0-2.61 4.08c-.05-.83-.3-2.1-.74-3.8l-1.25-5.01-.01-.05-6.57.5L63.87 72l.36-.03 15.28-20.79-6.58.5zM86.46 50.65l-5.96.45-4.65 19.64-.02.08 5.91-.45h.05l4.65-19.64zM107.39 49.06l-5.84.44-2.07 8.74-9.26-8.12-.02-.02-.36.02-4.71 19.91-.02.09 5.78-.44h.04L93 60.95l9.32 8.11.02.02.32-.03 4.71-19.9zM126.84 48.45c-1.68-.71-3.8-.97-6.31-.78-6.13.47-11.8 5.22-13.18 11.06-.66 2.8-.21 5.29 1.26 7.01 1.33 1.55 3.43 2.41 6.02 2.47.44.01.89 0 1.35-.04 2.5-.19 5.29-.94 7.45-2.01l.03-.01 1.97-8.33.02-.08-5.64.43h-.05l-1.08 4.55c-.46.08-.98.15-1.51.19-1.45.11-2.58-.26-3.28-1.07-.72-.84-.93-2.09-.59-3.52a7.25 7.25 0 0 1 6.56-5.37c2.69-.2 4.44.32 5.67.79l.07.03 1.25-5.29-.01-.03zM143.57 46.83a13.23 13.23 0 0 0-5.27-.51c-4.73.36-8.5 3.09-9.37 6.79-.93 3.93 1.29 5.02 4.07 5.94l.66.22c1.52.5 2.44.8 2.28 1.46-.15.65-1.1 1.03-2.89 1.16-1.81.14-3.89-.29-5.43-1.1l-.07-.04-1.32 5.58.05.02c1.02.39 2.42.61 3.96.65.63.02 1.29 0 1.95-.05 5.17-.39 8.65-2.81 9.55-6.62.88-3.74-1.4-4.9-4.24-5.93l-.02-.01c-1.8-.65-2.88-1.04-2.73-1.69.18-.76 1.26-1.28 2.89-1.4 1.88-.14 3.61.18 4.63.86l.08.05 1.27-5.37-.05-.01zM26.74 52.68c2.3-.17 4.77-.82 6.45-1.7l.03-.01 1.27-5.39-.12.06a15.45 15.45 0 0 1-5.85 1.67c-1.46.11-2.6-.26-3.3-1.08-.71-.83-.92-2.06-.58-3.46a7.25 7.25 0 0 1 6.56-5.37c2.34-.18 3.86.4 4.8.86l.07.03 1.25-5.3-.05-.02a10.14 10.14 0 0 0-5.45-.85c-6.13.47-11.8 5.22-13.18 11.06-.67 2.83-.21 5.35 1.3 7.12 1.29 1.51 3.26 2.34 5.63 2.4.39.02.77.01 1.17-.02zM35.47 51.61l5.96-.45 1.79-7.56 6.53-.5-1.79 7.57 5.99-.46 4.65-19.63.02-.09-5.99.45-1.72 7.27-6.53.5 1.72-7.27-5.96.45-4.65 19.64zM55.22 50.12l6.22-.47 1.84-2.68 6.02-.46.64 2.49 6.18-.47-5.52-19.16-.01-.05-.36.03L55.3 50l-.08.12zm10.64-7.11c.48-.74 1.72-2.66 2.16-3.53.04.87.4 2.66.54 3.32l-2.7.21zM81.41 48.43c.63.02 1.29 0 1.95-.05 5.17-.39 8.65-2.81 9.55-6.62.88-3.74-1.4-4.9-4.24-5.93l-.02-.01c-1.8-.65-2.88-1.04-2.73-1.69.18-.76 1.26-1.28 2.89-1.4 1.88-.14 3.61.18 4.63.86l.08.05 1.27-5.37-.05-.02a13.23 13.23 0 0 0-5.27-.51c-4.73.36-8.5 3.09-9.37 6.79-.93 3.93 1.29 5.02 4.07 5.94l.66.22c1.52.5 2.44.8 2.28 1.46-.15.65-1.1 1.03-2.89 1.16-1.81.14-3.89-.29-5.43-1.1l-.07-.04-1.32 5.58.05.02c1.02.4 2.43.62 3.96.66zM93.75 47.19l13.99-1.06 1.16-4.92-8.03.61.66-2.78 6.52-.49 1.1-4.62-6.53.49.59-2.48 7.61-.58 1.16-4.92-13.57 1.03-4.64 19.64z"/>
  </g>
  <linearGradient id="SVGID_00000148647347385412435620000002579357248197672601_" x1="-22.77" x2="-5.07" y1="111.92" y2="111.92" gradientTransform="rotate(1.4 1943.18 2004.26)" gradientUnits="userSpaceOnUse">
    <stop offset="0" stop-color="#e5e2df"/>
    <stop offset="0" stop-color="#ded9d6"/>
    <stop offset=".04" stop-color="#cfccc9"/>
    <stop offset=".11" stop-color="#a8a9a8"/>
    <stop offset=".21" stop-color="#697072"/>
    <stop offset=".26" stop-color="#465053"/>
    <stop offset=".37" stop-color="#878d8f"/>
    <stop offset=".46" stop-color="#b7babb"/>
    <stop offset=".53" stop-color="#d5d5d6"/>
    <stop offset=".57" stop-color="#e0e0e0"/>
    <stop offset=".63" stop-color="#d6d7d8"/>
    <stop offset=".73" stop-color="#bcbfc2"/>
    <stop offset=".86" stop-color="#91979e"/>
    <stop offset=".88" stop-color="#8b9298"/>
    <stop offset="1" stop-color="#d1d3d4"/>
    <stop offset="1" stop-color="#a7a9ac"/>
  </linearGradient>
  <path fill="none" stroke="url(#SVGID_00000148647347385412435620000002579357248197672601_)" stroke-miterlimit="10" stroke-width=".68" d="m35.8 62.11-.02-.01c-1.8-.65-2.88-1.04-2.73-1.69.18-.76 1.26-1.28 2.89-1.4 1.88-.14 3.61.18 4.63.86l.08.05 1.26-5.31.01-.05-.05-.02a13.23 13.23 0 0 0-5.27-.51c-4.73.36-8.5 3.09-9.37 6.79-.93 3.93 1.29 5.02 4.07 5.94l.66.22c1.52.5 2.44.8 2.28 1.46-.15.65-1.1 1.03-2.89 1.16-1.81.14-3.89-.28-5.43-1.1l-.07-.04-1.32 5.58.05.02c1.02.39 2.42.61 3.96.65.63.02 1.29 0 1.95-.05 5.17-.39 8.65-2.81 9.55-6.62.88-3.74-1.4-4.9-4.24-5.93z"/>
  <linearGradient id="SVGID_00000136393974710603852450000007819116481261659574_" x1="-8.8" x2="13.21" y1="110.5" y2="110.5" gradientTransform="rotate(1.4 1943.18 2004.26)" gradientUnits="userSpaceOnUse">
    <stop offset="0" stop-color="#e5e2df"/>
    <stop offset="0" stop-color="#ded9d6"/>
    <stop offset=".04" stop-color="#cfccc9"/>
    <stop offset=".11" stop-color="#a8a9a8"/>
    <stop offset=".21" stop-color="#697072"/>
    <stop offset=".26" stop-color="#465053"/>
    <stop offset=".37" stop-color="#878d8f"/>
    <stop offset=".46" stop-color="#b7babb"/>
    <stop offset=".53" stop-color="#d5d5d6"/>
    <stop offset=".57" stop-color="#e0e0e0"/>
    <stop offset=".63" stop-color="#d6d7d8"/>
    <stop offset=".73" stop-color="#bcbfc2"/>
    <stop offset=".86" stop-color="#91979e"/>
    <stop offset=".88" stop-color="#8b9298"/>
    <stop offset="1" stop-color="#d1d3d4"/>
    <stop offset="1" stop-color="#a7a9ac"/>
  </linearGradient>
  <path fill="none" stroke="url(#SVGID_00000136393974710603852450000007819116481261659574_)" stroke-miterlimit="10" stroke-width=".68" d="m54.17 52.83-.36.03-14.92 20.66-.08.11 6.19-.47h.03l1.84-2.68 6.02-.46.64 2.49 6.18-.47-5.53-19.16-.01-.05zm-2.03 13.49-2.7.2c.48-.74 1.72-2.66 2.16-3.53.05.87.41 2.67.54 3.33z"/>
  <linearGradient id="SVGID_00000034066547794604718220000001145553944316251801_" x1="10.13" x2="32.74" y1="108.19" y2="108.19" gradientTransform="rotate(1.4 1943.18 2004.26)" gradientUnits="userSpaceOnUse">
    <stop offset="0" stop-color="#e5e2df"/>
    <stop offset="0" stop-color="#ded9d6"/>
    <stop offset=".04" stop-color="#cfccc9"/>
    <stop offset=".11" stop-color="#a8a9a8"/>
    <stop offset=".21" stop-color="#697072"/>
    <stop offset=".26" stop-color="#465053"/>
    <stop offset=".37" stop-color="#878d8f"/>
    <stop offset=".46" stop-color="#b7babb"/>
    <stop offset=".53" stop-color="#d5d5d6"/>
    <stop offset=".57" stop-color="#e0e0e0"/>
    <stop offset=".63" stop-color="#d6d7d8"/>
    <stop offset=".73" stop-color="#bcbfc2"/>
    <stop offset=".86" stop-color="#91979e"/>
    <stop offset=".88" stop-color="#8b9298"/>
    <stop offset="1" stop-color="#d1d3d4"/>
    <stop offset="1" stop-color="#a7a9ac"/>
  </linearGradient>
  <path fill="none" stroke="url(#SVGID_00000034066547794604718220000001145553944316251801_)" stroke-miterlimit="10" stroke-width=".68" d="m72.93 51.68-3.73 5.41a45.37 45.37 0 0 0-2.61 4.08c-.05-.83-.3-2.1-.74-3.8l-1.25-5.01-.01-.05-6.57.5L63.87 72l.36-.03 15.28-20.79-6.58.5z"/>
  <linearGradient id="SVGID_00000034801242310123380700000016865178875272181406_" x1="28.41" x2="39.4" y1="107.13" y2="107.13" gradientTransform="rotate(1.4 1943.18 2004.26)" gradientUnits="userSpaceOnUse">
    <stop offset="0" stop-color="#e5e2df"/>
    <stop offset="0" stop-color="#ded9d6"/>
    <stop offset=".04" stop-color="#cfccc9"/>
    <stop offset=".11" stop-color="#a8a9a8"/>
    <stop offset=".21" stop-color="#697072"/>
    <stop offset=".26" stop-color="#465053"/>
    <stop offset=".37" stop-color="#878d8f"/>
    <stop offset=".46" stop-color="#b7babb"/>
    <stop offset=".53" stop-color="#d5d5d6"/>
    <stop offset=".57" stop-color="#e0e0e0"/>
    <stop offset=".63" stop-color="#d6d7d8"/>
    <stop offset=".73" stop-color="#bcbfc2"/>
    <stop offset=".86" stop-color="#91979e"/>
    <stop offset=".88" stop-color="#8b9298"/>
    <stop offset="1" stop-color="#d1d3d4"/>
    <stop offset="1" stop-color="#a7a9ac"/>
  </linearGradient>
  <path fill="none" stroke="url(#SVGID_00000034801242310123380700000016865178875272181406_)" stroke-miterlimit="10" stroke-width=".68" d="m86.46 50.65-5.96.45-4.65 19.64-.02.08 5.91-.45h.05l4.65-19.64z"/>
  <linearGradient id="SVGID_00000029047758106782904470000010078127387726118299_" x1="37.68" x2="60.29" y1="105.62" y2="105.62" gradientTransform="rotate(1.4 1943.18 2004.26)" gradientUnits="userSpaceOnUse">
    <stop offset="0" stop-color="#e5e2df"/>
    <stop offset="0" stop-color="#ded9d6"/>
    <stop offset=".04" stop-color="#cfccc9"/>
    <stop offset=".11" stop-color="#a8a9a8"/>
    <stop offset=".21" stop-color="#697072"/>
    <stop offset=".26" stop-color="#465053"/>
    <stop offset=".37" stop-color="#878d8f"/>
    <stop offset=".46" stop-color="#b7babb"/>
    <stop offset=".53" stop-color="#d5d5d6"/>
    <stop offset=".57" stop-color="#e0e0e0"/>
    <stop offset=".63" stop-color="#d6d7d8"/>
    <stop offset=".73" stop-color="#bcbfc2"/>
    <stop offset=".86" stop-color="#91979e"/>
    <stop offset=".88" stop-color="#8b9298"/>
    <stop offset="1" stop-color="#d1d3d4"/>
    <stop offset="1" stop-color="#a7a9ac"/>
  </linearGradient>
  <path fill="none" stroke="url(#SVGID_00000029047758106782904470000010078127387726118299_)" stroke-miterlimit="10" stroke-width=".68" d="m107.39 49.06-5.84.44-2.07 8.74-9.26-8.12-.02-.02-.36.02-4.71 19.91-.02.09 5.78-.44h.04L93 60.95l9.32 8.11.02.02.32-.03 4.71-19.9z"/>
  <linearGradient id="SVGID_00000116936639703403615540000013457012820030264718_" x1="59.48" x2="79.73" y1="103.39" y2="103.39" gradientTransform="rotate(1.4 1943.18 2004.26)" gradientUnits="userSpaceOnUse">
    <stop offset="0" stop-color="#e5e2df"/>
    <stop offset="0" stop-color="#ded9d6"/>
    <stop offset=".04" stop-color="#cfccc9"/>
    <stop offset=".11" stop-color="#a8a9a8"/>
    <stop offset=".21" stop-color="#697072"/>
    <stop offset=".26" stop-color="#465053"/>
    <stop offset=".37" stop-color="#878d8f"/>
    <stop offset=".46" stop-color="#b7babb"/>
    <stop offset=".53" stop-color="#d5d5d6"/>
    <stop offset=".57" stop-color="#e0e0e0"/>
    <stop offset=".63" stop-color="#d6d7d8"/>
    <stop offset=".73" stop-color="#bcbfc2"/>
    <stop offset=".86" stop-color="#91979e"/>
    <stop offset=".88" stop-color="#8b9298"/>
    <stop offset="1" stop-color="#d1d3d4"/>
    <stop offset="1" stop-color="#a7a9ac"/>
  </linearGradient>
  <path fill="none" stroke="url(#SVGID_00000116936639703403615540000013457012820030264718_)" stroke-miterlimit="10" stroke-width=".68" d="M126.84 48.45c-1.68-.71-3.8-.97-6.31-.78-6.13.47-11.8 5.22-13.18 11.06-.66 2.8-.21 5.29 1.26 7.01 1.33 1.55 3.43 2.41 6.02 2.47.44.01.89 0 1.35-.04 2.5-.19 5.29-.94 7.45-2.01l.03-.01 1.97-8.33.02-.08-5.64.43h-.05l-1.08 4.55c-.46.08-.98.15-1.51.19-1.45.11-2.58-.26-3.28-1.07-.72-.84-.93-2.09-.59-3.52a7.25 7.25 0 0 1 6.56-5.37c2.69-.2 4.44.32 5.67.79l.07.03 1.25-5.29-.01-.03z"/>
  <linearGradient id="SVGID_00000127017798672152316890000010122292781235244166_" x1="78.72" x2="96.42" y1="101.7" y2="101.7" gradientTransform="rotate(1.4 1943.18 2004.26)" gradientUnits="userSpaceOnUse">
    <stop offset="0" stop-color="#e5e2df"/>
    <stop offset="0" stop-color="#ded9d6"/>
    <stop offset=".04" stop-color="#cfccc9"/>
    <stop offset=".11" stop-color="#a8a9a8"/>
    <stop offset=".21" stop-color="#697072"/>
    <stop offset=".26" stop-color="#465053"/>
    <stop offset=".37" stop-color="#878d8f"/>
    <stop offset=".46" stop-color="#b7babb"/>
    <stop offset=".53" stop-color="#d5d5d6"/>
    <stop offset=".57" stop-color="#e0e0e0"/>
    <stop offset=".63" stop-color="#d6d7d8"/>
    <stop offset=".73" stop-color="#bcbfc2"/>
    <stop offset=".86" stop-color="#91979e"/>
    <stop offset=".88" stop-color="#8b9298"/>
    <stop offset="1" stop-color="#d1d3d4"/>
    <stop offset="1" stop-color="#a7a9ac"/>
  </linearGradient>
  <path fill="none" stroke="url(#SVGID_00000127017798672152316890000010122292781235244166_)" stroke-miterlimit="10" stroke-width=".68" d="M143.57 46.83a13.23 13.23 0 0 0-5.27-.51c-4.73.36-8.5 3.09-9.37 6.79-.93 3.93 1.29 5.02 4.07 5.94l.66.22c1.52.5 2.44.8 2.28 1.46-.15.65-1.1 1.03-2.89 1.16-1.81.14-3.89-.29-5.43-1.1l-.07-.04-1.32 5.58.05.02c1.02.39 2.42.61 3.96.65.63.02 1.29 0 1.95-.05 5.17-.39 8.65-2.81 9.55-6.62.88-3.74-1.4-4.9-4.24-5.93l-.02-.01c-1.8-.65-2.88-1.04-2.73-1.69.18-.76 1.26-1.28 2.89-1.4 1.88-.14 3.61.18 4.63.86l.08.05 1.27-5.37-.05-.01z"/>
  <linearGradient id="SVGID_00000087412307803479875480000017993607811203983506_" x1="-29.58" x2="-10.19" y1="90.07" y2="90.07" gradientTransform="rotate(1.4 1943.18 2004.26)" gradientUnits="userSpaceOnUse">
    <stop offset="0" stop-color="#e5e2df"/>
    <stop offset="0" stop-color="#ded9d6"/>
    <stop offset=".04" stop-color="#cfccc9"/>
    <stop offset=".11" stop-color="#a8a9a8"/>
    <stop offset=".21" stop-color="#697072"/>
    <stop offset=".26" stop-color="#465053"/>
    <stop offset=".37" stop-color="#878d8f"/>
    <stop offset=".46" stop-color="#b7babb"/>
    <stop offset=".53" stop-color="#d5d5d6"/>
    <stop offset=".57" stop-color="#e0e0e0"/>
    <stop offset=".63" stop-color="#d6d7d8"/>
    <stop offset=".73" stop-color="#bcbfc2"/>
    <stop offset=".86" stop-color="#91979e"/>
    <stop offset=".88" stop-color="#8b9298"/>
    <stop offset="1" stop-color="#d1d3d4"/>
    <stop offset="1" stop-color="#a7a9ac"/>
  </linearGradient>
  <path fill="none" stroke="url(#SVGID_00000087412307803479875480000017993607811203983506_)" stroke-miterlimit="10" stroke-width=".68" d="M26.74 52.68c2.3-.17 4.77-.82 6.45-1.7l.03-.01 1.27-5.39-.12.06a15.45 15.45 0 0 1-5.85 1.67c-1.46.11-2.6-.26-3.3-1.08-.71-.83-.92-2.06-.58-3.46a7.25 7.25 0 0 1 6.56-5.37c2.34-.18 3.86.4 4.8.86l.07.03 1.25-5.3-.05-.02a10.14 10.14 0 0 0-5.45-.85c-6.13.47-11.8 5.22-13.18 11.06-.67 2.83-.21 5.35 1.3 7.12 1.29 1.51 3.26 2.34 5.63 2.4.39.02.77.01 1.17-.02z"/>
  <linearGradient id="SVGID_00000097469062133607183780000011490114838469604512_" x1="-12.41" x2="11.07" y1="88.3" y2="88.3" gradientTransform="rotate(1.4 1943.18 2004.26)" gradientUnits="userSpaceOnUse">
    <stop offset="0" stop-color="#e5e2df"/>
    <stop offset="0" stop-color="#ded9d6"/>
    <stop offset=".04" stop-color="#cfccc9"/>
    <stop offset=".11" stop-color="#a8a9a8"/>
    <stop offset=".21" stop-color="#697072"/>
    <stop offset=".26" stop-color="#465053"/>
    <stop offset=".37" stop-color="#878d8f"/>
    <stop offset=".46" stop-color="#b7babb"/>
    <stop offset=".53" stop-color="#d5d5d6"/>
    <stop offset=".57" stop-color="#e0e0e0"/>
    <stop offset=".63" stop-color="#d6d7d8"/>
    <stop offset=".73" stop-color="#bcbfc2"/>
    <stop offset=".86" stop-color="#91979e"/>
    <stop offset=".88" stop-color="#8b9298"/>
    <stop offset="1" stop-color="#d1d3d4"/>
    <stop offset="1" stop-color="#a7a9ac"/>
  </linearGradient>
  <path fill="none" stroke="url(#SVGID_00000097469062133607183780000011490114838469604512_)" stroke-miterlimit="10" stroke-width=".68" d="m35.47 51.61 5.96-.45 1.79-7.56 6.53-.5-1.79 7.57 5.99-.46 4.65-19.63.02-.09-5.99.45-1.72 7.27-6.53.5 1.72-7.27-5.96.45-4.65 19.64z"/>
  <linearGradient id="SVGID_00000074399931837958444920000012121691868664070035_" x1="7.03" x2="29.04" y1="86.59" y2="86.59" gradientTransform="rotate(1.4 1943.18 2004.26)" gradientUnits="userSpaceOnUse">
    <stop offset="0" stop-color="#e5e2df"/>
    <stop offset="0" stop-color="#ded9d6"/>
    <stop offset=".04" stop-color="#cfccc9"/>
    <stop offset=".11" stop-color="#a8a9a8"/>
    <stop offset=".21" stop-color="#697072"/>
    <stop offset=".26" stop-color="#465053"/>
    <stop offset=".37" stop-color="#878d8f"/>
    <stop offset=".46" stop-color="#b7babb"/>
    <stop offset=".53" stop-color="#d5d5d6"/>
    <stop offset=".57" stop-color="#e0e0e0"/>
    <stop offset=".63" stop-color="#d6d7d8"/>
    <stop offset=".73" stop-color="#bcbfc2"/>
    <stop offset=".86" stop-color="#91979e"/>
    <stop offset=".88" stop-color="#8b9298"/>
    <stop offset="1" stop-color="#d1d3d4"/>
    <stop offset="1" stop-color="#a7a9ac"/>
  </linearGradient>
  <path fill="none" stroke="url(#SVGID_00000074399931837958444920000012121691868664070035_)" stroke-miterlimit="10" stroke-width=".68" d="m55.22 50.12 6.22-.47 1.84-2.68 6.02-.46.64 2.49 6.18-.47-5.52-19.16-.01-.05-.36.03L55.3 50l-.08.12zm10.64-7.11c.48-.74 1.72-2.66 2.16-3.53.04.87.4 2.66.54 3.32l-2.7.21z"/>
  <linearGradient id="SVGID_00000074431650428897797790000010827419973656254849_" x1="29.45" x2="47.15" y1="84.34" y2="84.34" gradientTransform="rotate(1.4 1943.18 2004.26)" gradientUnits="userSpaceOnUse">
    <stop offset="0" stop-color="#e5e2df"/>
    <stop offset="0" stop-color="#ded9d6"/>
    <stop offset=".04" stop-color="#cfccc9"/>
    <stop offset=".11" stop-color="#a8a9a8"/>
    <stop offset=".21" stop-color="#697072"/>
    <stop offset=".26" stop-color="#465053"/>
    <stop offset=".37" stop-color="#878d8f"/>
    <stop offset=".46" stop-color="#b7babb"/>
    <stop offset=".53" stop-color="#d5d5d6"/>
    <stop offset=".57" stop-color="#e0e0e0"/>
    <stop offset=".63" stop-color="#d6d7d8"/>
    <stop offset=".73" stop-color="#bcbfc2"/>
    <stop offset=".86" stop-color="#91979e"/>
    <stop offset=".88" stop-color="#8b9298"/>
    <stop offset="1" stop-color="#d1d3d4"/>
    <stop offset="1" stop-color="#a7a9ac"/>
  </linearGradient>
  <path fill="none" stroke="url(#SVGID_00000074431650428897797790000010827419973656254849_)" stroke-miterlimit="10" stroke-width=".68" d="M81.41 48.43c.63.02 1.29 0 1.95-.05 5.17-.39 8.65-2.81 9.55-6.62.88-3.74-1.4-4.9-4.24-5.93l-.02-.01c-1.8-.65-2.88-1.04-2.73-1.69.18-.76 1.26-1.28 2.89-1.4 1.88-.14 3.61.18 4.63.86l.08.05 1.27-5.37-.05-.02a13.23 13.23 0 0 0-5.27-.51c-4.73.36-8.5 3.09-9.37 6.79-.93 3.93 1.29 5.02 4.07 5.94l.66.22c1.52.5 2.44.8 2.28 1.46-.15.65-1.1 1.03-2.89 1.16-1.81.14-3.89-.29-5.43-1.1l-.07-.04-1.32 5.58.05.02c1.02.4 2.43.62 3.96.66z"/>
  <linearGradient id="SVGID_00000096022371780379226940000009926225065246208413_" x1="45.74" x2="64.32" y1="82.69" y2="82.69" gradientTransform="rotate(1.4 1943.18 2004.26)" gradientUnits="userSpaceOnUse">
    <stop offset="0" stop-color="#e5e2df"/>
    <stop offset="0" stop-color="#ded9d6"/>
    <stop offset=".04" stop-color="#cfccc9"/>
    <stop offset=".11" stop-color="#a8a9a8"/>
    <stop offset=".21" stop-color="#697072"/>
    <stop offset=".26" stop-color="#465053"/>
    <stop offset=".37" stop-color="#878d8f"/>
    <stop offset=".46" stop-color="#b7babb"/>
    <stop offset=".53" stop-color="#d5d5d6"/>
    <stop offset=".57" stop-color="#e0e0e0"/>
    <stop offset=".63" stop-color="#d6d7d8"/>
    <stop offset=".73" stop-color="#bcbfc2"/>
    <stop offset=".86" stop-color="#91979e"/>
    <stop offset=".88" stop-color="#8b9298"/>
    <stop offset="1" stop-color="#d1d3d4"/>
    <stop offset="1" stop-color="#a7a9ac"/>
  </linearGradient>
  <path fill="none" stroke="url(#SVGID_00000096022371780379226940000009926225065246208413_)" stroke-miterlimit="10" stroke-width=".68" d="m93.75 47.19 13.99-1.06 1.16-4.92-8.03.61.66-2.78 6.52-.49 1.1-4.62-6.53.49.59-2.48 7.61-.58 1.16-4.92-13.57 1.03-4.64 19.64z"/>
  <g fill="#ED1B2F">
    <path d="M23.12 80.62c.31.34.45.82.45 1.51v2.7c0 .71-.14 1.2-.45 1.53-.4.41-1.01.62-1.89.62-.91 0-1.51-.21-1.9-.62-.3-.33-.46-.82-.46-1.53v-2.7c0-.69.15-1.18.46-1.52.39-.42 1.01-.61 1.9-.61.88.01 1.5.2 1.89.62zm-.92 1.85c0-.9-.48-1.09-.92-1.09h-.12c-.66 0-.91.42-.91 1.09v2.05c0 .9.48 1.1.91 1.1h.12c.66 0 .91-.44.92-1.1v-2.05zM27.71 80.16c.02-.03.04-.06.08-.06h1.17c.06 0 .1.05.08.11l-1.78 6.6c-.02.04-.04.06-.08.06h-1.27c-.03 0-.06-.02-.07-.06l-1.78-6.6c-.01-.06.03-.11.09-.11h1.18c.04 0 .06.03.08.06l1.13 4.25 1.17-4.25zM29.65 86.78v-6.59c0-.05.03-.09.08-.09h3.49c.05 0 .09.04.09.09v1.1c0 .05-.04.09-.09.09H31v1.4h1.73c.05 0 .08.04.08.09v1.12c0 .05-.03.09-.08.09H31v1.51h2.22c.05 0 .09.04.09.09v1.1c0 .05-.04.09-.09.09h-3.49c-.05.01-.08-.04-.08-.09zM37.44 84.85l.86 1.9c.03.06-.01.12-.07.12h-1.26c-.04 0-.06-.02-.07-.05l-.8-1.74h-.52v1.7c0 .05-.04.09-.09.09H34.3c-.04 0-.07-.04-.07-.09v-6.59c0-.05.03-.09.07-.09h2.14c1.14 0 1.83.65 1.83 1.85v1.29c0 .36-.06.7-.18.95-.15.3-.36.53-.65.66zm-.52-2.59c0-.72-.27-.79-1.05-.79h-.3v2.27h.3c.65 0 1.03-.01 1.05-.81v-.67zM46.08 81.69c0 .27-.05.79-.36 1.24-.28.41-.69.64-1.25.7v.49c0 .05-.05.09-.07.09h-.77a.09.09 0 0 1-.09-.09v-.49c-.62-.1-1.31-.46-1.53-1.18-.02-.04 0-.05.03-.08l.89-.69c.05-.04.09-.03.12.02l.1.21c.14.29.5.56.87.56.31 0 .7-.15.7-.59 0-.41-.6-.65-.97-.78a4.31 4.31 0 0 1-1.24-.68c-.4-.34-.59-.72-.59-1.17 0-.94.75-1.49 1.62-1.65v-.51c0-.04.02-.06.07-.06h.78c.06 0 .07.03.07.06v.51c.63.12 1.08.53 1.42 1.17.02.04.01.07-.04.09l-.84.56c-.03.02-.09.01-.11-.03l-.12-.17c-.2-.27-.48-.48-.87-.48-.2 0-.67.07-.67.41 0 .41.78.61 1.16.78.75.32 1.69.83 1.69 1.76zM48.59 77.92h1.81c.08 0 .12.06.12.14v9.91c0 .08-.05.14-.12.14h-1.76a.14.14 0 0 1-.14-.14v-7.52l-.96 1.02c-.08.08-.23.03-.23-.09v-1.73c0-.05.02-.06.02-.08l1.11-1.58c.06-.07.12-.07.15-.07zM54.1 86.84c0 .12-.05.28-.08.39l-.88 2.29c-.02.06-.08.11-.12.11h-1.05c-.14 0-.17-.11-.14-.2l.5-1.24c-.53-.17-.99-.7-.99-1.31 0-.76.63-1.35 1.39-1.35.72-.01 1.37.55 1.37 1.31zM62.78 82.43v1.18c0 2.38-1.21 4.66-3.91 4.66-2.63 0-3.91-2.12-3.91-4.66v-1.18c0-.74.09-1.42.26-2a3.67 3.67 0 0 1 3.65-2.68c2.54.01 3.91 1.99 3.91 4.68zm-2.07.59c0-1.25-.14-3.19-1.84-3.19-1.55 0-1.86 1.93-1.86 3.19 0 1.14.28 3.17 1.86 3.17 1.62 0 1.84-1.81 1.84-3.17zM71.69 82.43v1.18c0 2.38-1.21 4.66-3.91 4.66-2.63 0-3.91-2.12-3.91-4.66v-1.18c0-.74.09-1.42.26-2a3.67 3.67 0 0 1 3.65-2.68c2.54.01 3.91 1.99 3.91 4.68zm-2.07.59c0-1.25-.14-3.19-1.84-3.19-1.55 0-1.86 1.93-1.86 3.19 0 1.14.28 3.17 1.86 3.17 1.62 0 1.84-1.81 1.84-3.17zM80.61 82.43v1.18c0 2.38-1.21 4.66-3.91 4.66-2.63 0-3.91-2.12-3.91-4.66v-1.18c0-.74.09-1.42.26-2a3.67 3.67 0 0 1 3.65-2.68c2.53.01 3.91 1.99 3.91 4.68zm-2.08.59c0-1.25-.14-3.19-1.84-3.19-1.55 0-1.86 1.93-1.86 3.19 0 1.14.28 3.17 1.86 3.17 1.63 0 1.84-1.81 1.84-3.17zM83.85 86.84c0 .12-.05.28-.08.39l-.88 2.29c-.02.06-.08.11-.12.11h-1.05c-.14 0-.17-.11-.14-.2l.5-1.24c-.53-.17-.99-.7-.99-1.31 0-.76.63-1.35 1.39-1.35.72-.01 1.37.55 1.37 1.31zM92.53 82.43v1.18c0 2.38-1.21 4.66-3.91 4.66-2.63 0-3.91-2.12-3.91-4.66v-1.18c0-.74.09-1.42.26-2a3.67 3.67 0 0 1 3.65-2.68c2.54.01 3.91 1.99 3.91 4.68zm-2.07.59c0-1.25-.14-3.19-1.84-3.19-1.55 0-1.86 1.93-1.86 3.19 0 1.14.28 3.17 1.86 3.17 1.62 0 1.84-1.81 1.84-3.17zM101.45 82.43v1.18c0 2.38-1.21 4.66-3.91 4.66-2.63 0-3.91-2.12-3.91-4.66v-1.18c0-.74.09-1.42.26-2a3.67 3.67 0 0 1 3.65-2.68c2.53.01 3.91 1.99 3.91 4.68zm-2.08.59c0-1.25-.14-3.19-1.84-3.19-1.55 0-1.86 1.93-1.86 3.19 0 1.14.28 3.17 1.86 3.17 1.63 0 1.84-1.81 1.84-3.17zM110.36 82.43v1.18c0 2.38-1.21 4.66-3.91 4.66-2.63 0-3.91-2.12-3.91-4.66v-1.18c0-.74.09-1.42.26-2a3.67 3.67 0 0 1 3.65-2.68c2.53.01 3.91 1.99 3.91 4.68zm-2.08.59c0-1.25-.14-3.19-1.84-3.19-1.55 0-1.86 1.93-1.86 3.19 0 1.14.28 3.17 1.86 3.17 1.63 0 1.84-1.81 1.84-3.17zM113.53 82.45v-4.44c0-.03.02-.06.06-.06h.79c.03 0 .06.03.06.06v4.44c0 .03-.03.06-.06.06h-.79c-.04 0-.06-.03-.06-.06zM117.11 77.95h.79c.03 0 .06.03.06.06v4.44c0 .03-.03.06-.06.06h-.77c-.03 0-.06-.01-.06-.03l-1.01-2.27v2.25c0 .03-.03.06-.06.06h-.79a.06.06 0 0 1-.06-.06v-4.44c0-.03.02-.06.06-.06h.82c.03 0 .04.02.05.03l.97 2.23v-2.2c-.01-.04.02-.07.06-.07zM123.32 79.19v.87c0 .74-.46 1.24-1.23 1.24h-.58v1.15c0 .03-.03.06-.06.06h-.8c-.03 0-.05-.03-.05-.06v-4.44c0-.03.02-.06.05-.06h1.44c.77 0 1.23.44 1.23 1.24zm-.91.21c0-.48-.22-.53-.71-.53h-.2v1.52h.2c.38 0 .71-.07.71-.54v-.45zM125.9 81.15l.58 1.28c.02.04-.01.08-.05.08h-.85c-.03 0-.04-.01-.05-.03L125 81.3h-.35v1.15c0 .03-.03.06-.06.06h-.8c-.03 0-.05-.03-.05-.06v-4.44c0-.03.02-.06.05-.06h1.44c.77 0 1.23.44 1.23 1.24v.87c0 .24-.04.47-.12.64a.88.88 0 0 1-.44.45zm-.35-1.75c0-.48-.18-.53-.71-.53h-.2v1.53h.2c.44 0 .69-.01.71-.55v-.45zM127.13 82.45v-4.44c0-.03.02-.06.06-.06h.79c.03 0 .06.03.06.06v4.44c0 .03-.03.06-.06.06h-.79c-.04 0-.06-.03-.06-.06zM131.49 81.65c.03 0 .06.03.06.06v.74c0 .03-.03.06-.06.06h-2.67c-.03 0-.06-.01-.06-.06v-.77l.01-.03 1.67-2.84h-1.63a.06.06 0 0 1-.06-.06v-.74c0-.03.03-.06.06-.06h2.69c.04 0 .05.04.05.06v.77l-.01.03-1.67 2.84h1.62zM132.28 82.45v-4.44c0-.03.02-.06.06-.06h2.35c.03 0 .06.03.06.06v.74c0 .03-.03.06-.06.06h-1.49v.94h1.16c.03 0 .06.03.06.06v.75c0 .03-.02.06-.06.06h-1.16v1.02h1.49c.03 0 .06.03.06.06v.74c0 .03-.03.06-.06.06h-2.35c-.04.01-.06-.02-.06-.05zM138.13 81.07c0 .21-.03.61-.26.95-.26.38-.66.57-1.21.57-.59 0-1.27-.28-1.49-.93-.01-.02 0-.04.02-.06l.64-.55c.03-.02.07-.02.09.01l.08.16c.1.21.35.43.63.43.21 0 .5-.12.5-.45 0-.32-.44-.5-.71-.6a2.93 2.93 0 0 1-.9-.52 1.18 1.18 0 0 1-.42-.9c0-.86.79-1.3 1.55-1.3.59 0 1.04.31 1.33.93.01.03 0 .06-.02.08l-.62.43c-.03.01-.04.01-.07-.02-.24-.34-.44-.5-.72-.5-.15 0-.48.06-.48.31 0 .31.57.47.85.6.52.25 1.21.64 1.21 1.36zM144.81 82.51h-1.14c-.02 0-.03 0-.05-.03l-.17-.24c-.27.22-.62.34-1.01.34h-.22c-.3 0-.57-.03-.8-.11a1.18 1.18 0 0 1-.49-.31c-.21-.23-.32-.57-.32-1.03 0-.3.04-.52.12-.7.08-.17.21-.32.4-.46-.24-.3-.34-.59-.34-.93 0-.38.13-.66.4-.85.26-.19.66-.3 1.16-.3.44 0 .79.11 1.05.3.12.1.21.22.28.35.07.12.1.28.1.44 0 .06-.01.08-.03.09l-.82.5c-.04.03-.09 0-.09-.06v-.26c0-.3-.21-.45-.44-.45h-.18c-.22 0-.39.08-.46.23a.45.45 0 0 0 .01.28.9.9 0 0 0 .25.37l1.18 1.13v-.64c0-.03.01-.05.03-.06l.84-.53c.04-.03.09 0 .09.04v.79a3 3 0 0 1-.21 1.1l.88.87c.06.06.04.13-.02.13zm-2.09-.96-.95-.91a.56.56 0 0 0-.22.43c0 .31.19.58.55.58h.24c.13 0 .26-.04.38-.1zM116.37 84.42c.21.23.31.57.31.98v1.83c0 .84-.48 1.36-1.37 1.36h-1.73a.06.06 0 0 1-.06-.06v-4.44c0-.03.02-.06.06-.06h1.73c.47 0 .83.13 1.06.39zm-.59 1.19c0-.44-.23-.71-.71-.71h-.62v2.83h.62c.41 0 .71-.27.71-.7v-1.42zM117.34 88.53v-4.44c0-.03.02-.06.06-.06h.79c.03 0 .06.03.06.06v4.44c0 .03-.03.06-.06.06h-.79c-.04 0-.06-.03-.06-.06zM121.73 87.15c0 .21-.03.61-.26.95-.26.38-.66.57-1.21.57-.59 0-1.27-.28-1.49-.93-.01-.02 0-.04.02-.06l.64-.55c.03-.02.07-.02.09.01l.08.16c.1.21.35.43.63.43.21 0 .5-.12.5-.45 0-.32-.44-.5-.71-.6a2.93 2.93 0 0 1-.9-.52 1.18 1.18 0 0 1-.42-.9c0-.86.79-1.3 1.55-1.3.59 0 1.04.31 1.33.93.01.03 0 .06-.02.08l-.62.43c-.03.01-.04.01-.07-.02-.24-.34-.44-.5-.72-.5-.15 0-.48.06-.48.31 0 .31.57.47.85.6.53.25 1.21.65 1.21 1.36zM124.38 86.78c0-.03.03-.06.06-.06h.79c.03 0 .06.03.06.06v.44c0 1.02-.55 1.44-1.58 1.44-.96 0-1.59-.38-1.59-1.44V85.4c0-1.02.56-1.43 1.59-1.43.97 0 1.58.37 1.58 1.43v.15c0 .03-.03.06-.06.06h-.79a.06.06 0 0 1-.06-.06v-.11c0-.38-.28-.54-.62-.54h-.08c-.23 0-.38.06-.48.2-.1.13-.13.3-.13.53V87c0 .6.34.73.62.73h.08c.23 0 .39-.06.49-.2.09-.12.14-.3.14-.53v-.22zM128.68 84.38c.21.23.3.55.3 1.02v1.82c0 .48-.1.81-.3 1.03-.27.28-.68.41-1.27.41-.62 0-1.02-.14-1.28-.41-.2-.22-.31-.55-.31-1.03V85.4c0-.46.1-.79.31-1.02.26-.28.68-.41 1.28-.41.59 0 1 .13 1.27.41zm-.62 1.25c0-.61-.32-.73-.62-.73h-.08c-.44 0-.62.28-.62.73v1.38c0 .61.32.74.62.74h.08c.44 0 .62-.3.62-.74v-1.38zM131.84 84.09c0-.03.03-.06.06-.06h.79c.03 0 .06.03.06.06v3.12c0 .99-.55 1.44-1.58 1.44-.97 0-1.58-.39-1.58-1.44v-3.12c0-.03.03-.06.06-.06h.8c.03 0 .06.03.06.06V87c0 .6.34.73.62.73h.08c.43 0 .62-.29.62-.73v-2.91zM135.39 84.03h.79c.03 0 .06.03.06.06v4.44c0 .03-.03.06-.06.06h-.77c-.03 0-.06-.01-.06-.03l-1.01-2.27v2.25c0 .03-.03.06-.06.06h-.79a.06.06 0 0 1-.06-.06V84.1c0-.03.02-.06.06-.06h.82c.03 0 .04.02.05.03l.97 2.23v-2.2c0-.04.02-.07.06-.07zM136.66 84.83v-.74c0-.03.03-.06.06-.06h2.88c.03 0 .06.03.06.06v.74c0 .03-.03.06-.06.06h-.98v3.63c0 .03-.03.06-.06.06h-.79a.06.06 0 0 1-.06-.06V84.9h-.98a.07.07 0 0 1-.07-.07zM142.85 87.15c0 .21-.03.61-.26.95-.26.38-.66.57-1.21.57-.59 0-1.27-.28-1.49-.93-.01-.02 0-.04.02-.06l.64-.55c.03-.02.07-.02.09.01l.08.16c.1.21.35.43.63.43.21 0 .5-.12.5-.45 0-.32-.44-.5-.71-.6a2.93 2.93 0 0 1-.9-.52 1.18 1.18 0 0 1-.42-.9c0-.86.79-1.3 1.55-1.3.59 0 1.04.31 1.33.93.01.03 0 .06-.02.08l-.62.43c-.03.01-.04.01-.07-.02-.24-.34-.44-.5-.72-.5-.15 0-.48.06-.48.31 0 .31.57.47.85.6.52.25 1.21.65 1.21 1.36z"/>
  </g>
</svg>
