<svg xmlns="http://www.w3.org/2000/svg" width="242" height="68" viewBox="0 0 241.39 67.34">
  <defs>
    <linearGradient id="linear-gradient" x1="0" x2="241.39" y1="652.32" y2="652.32" gradientTransform="matrix(1 0 0 -1 0 685.99)" gradientUnits="userSpaceOnUse">
      <stop offset="0" stop-color="#e5e2df"/>
      <stop offset="0" stop-color="#ded9d6"/>
      <stop offset=".06" stop-color="#cfcbc9"/>
      <stop offset=".18" stop-color="#a8a4a7"/>
      <stop offset=".26" stop-color="#8b878d"/>
      <stop offset=".52" stop-color="#f3f4f4"/>
      <stop offset=".58" stop-color="#e5e5e6"/>
      <stop offset=".7" stop-color="#c0bec0"/>
      <stop offset=".87" stop-color="#847f84"/>
      <stop offset=".88" stop-color="#807b80"/>
      <stop offset="1" stop-color="#d1d3d4"/>
      <stop offset="1" stop-color="#a7a9ac"/>
    </linearGradient>
  </defs>
  <g id="Layer_1-2">
    <path fill="#d7282c" stroke="url(#linear-gradient)" stroke-miterlimit="10" stroke-width="4.55" d="M2.28 2.28h236.84v62.79H2.28z"/>
    <path fill="#fff" stroke-width="0" d="M32.03 20.59h5.02c.21 0 .34.17.34.39V48.5c0 .21-.13.39-.34.39h-4.9a.39.39 0 0 1-.39-.39V27.64l-2.66 2.83c-.21.21-.64.09-.64-.26V25.4c0-.13.04-.17.04-.21l3.09-4.38c.19-.22.36-.22.44-.22ZM53.29 29.36c0 .75-.12 2.2-.95 3.43-.93 1.38-2.38 2.05-4.38 2.05-2.13 0-4.61-1.03-5.38-3.36-.03-.08 0-.15.07-.2l2.3-1.98c.1-.08.25-.08.33.05.05.13.15.33.28.58.38.78 1.28 1.55 2.28 1.55.78 0 1.83-.43 1.83-1.63s-1.58-1.8-2.55-2.18a11.1 11.1 0 0 1-3.25-1.88 4.25 4.25 0 0 1-1.53-3.25c0-3.13 2.88-4.71 5.61-4.71 2.15 0 3.76 1.13 4.81 3.36.05.1 0 .23-.08.28l-2.23 1.55c-.1.05-.15.05-.25-.08-.85-1.23-1.6-1.8-2.6-1.8-.53 0-1.75.2-1.75 1.13 0 1.13 2.08 1.7 3.08 2.18 1.88.9 4.36 2.33 4.36 4.91ZM55.85 20.97v-2.68c0-.12.1-.23.23-.23h10.44c.12 0 .23.1.23.23v2.68c0 .12-.1.23-.23.23h-3.56v13.17c0 .13-.1.23-.23.23h-2.88a.23.23 0 0 1-.23-.23V21.19h-3.56c-.11 0-.21-.1-.21-.22ZM104.86 28.28v5.41c0 4.59-2.83 7.69-7.64 7.69h-3.61v7.13c0 .21-.17.39-.39.39h-4.94c-.17 0-.3-.17-.3-.39V20.94c0-.21.13-.39.3-.39h8.93c4.77 0 7.65 2.71 7.65 7.73Zm-5.63 1.29c0-2.96-1.37-3.26-4.38-3.26H93.6v9.45h1.25c2.36 0 4.38-.43 4.38-3.35v-2.84ZM116.54 20.94v22.54h9.27c.21 0 .39.17.39.39v4.64c0 .21-.17.39-.39.39h-14.56c-.21 0-.34-.17-.34-.39V20.94c0-.21.13-.39.34-.39h4.89c.23 0 .4.17.4.39ZM137.88 20.55h5.32c.17 0 .26.13.3.26l7.43 27.61c.04.26-.13.47-.39.47h-4.9c-.13 0-.26-.09-.3-.26l-1.67-6.01h-6.27l-1.63 6.01c-.04.17-.13.26-.3.26h-4.94c-.26 0-.43-.21-.39-.47l7.43-27.61c.06-.13.14-.26.31-.26Zm4.47 16.75-1.85-6.48-1.72 6.48h3.57ZM169.53 37.64c0-.21.17-.39.39-.39h4.89c.21 0 .39.17.39.39v2.71c0 6.31-3.39 8.97-9.79 8.97-5.97 0-9.88-2.36-9.88-8.97v-11.3c0-6.35 3.48-8.89 9.88-8.89 6.05 0 9.79 2.32 9.79 8.89v.9c0 .21-.17.39-.39.39h-4.94a.39.39 0 0 1-.39-.39v-.69c0-2.36-1.76-3.35-3.86-3.35h-.52c-1.42 0-2.36.39-3 1.25-.6.82-.82 1.89-.82 3.31v8.5c0 3.74 2.1 4.55 3.82 4.55h.52c1.42 0 2.4-.39 3.05-1.25.56-.77.86-1.85.86-3.31v-1.32ZM182.46 48.5V20.94c0-.21.13-.39.34-.39h14.6c.21 0 .39.17.39.39v4.59c0 .21-.17.39-.39.39h-9.27v5.84h7.21c.21 0 .34.17.34.39v4.68c0 .21-.13.39-.34.39h-7.21v6.31h9.27c.21 0 .39.17.39.39v4.59c0 .21-.17.39-.39.39h-14.6c-.21 0-.34-.18-.34-.4ZM205.78 40.43a.39.39 0 0 1-.39-.39l-1.16-19.15c0-.34.21-.39.39-.39h7c.3 0 .39.21.39.39l-1.12 19.15c0 .21-.17.39-.39.39h-4.72Zm6.35 5.03c0 2.1-1.67 3.82-3.82 3.82s-3.69-1.72-3.69-3.82 1.63-3.74 3.69-3.74 3.82 1.63 3.82 3.74Z"/>
  </g>
</svg>
