<svg xmlns="http://www.w3.org/2000/svg" stroke-linejoin="round" stroke-linecap="round" stroke-width="3.5" width="44" height="71" viewBox="0 0 47.58 74.5">
  <path fill="#fff" stroke="#333" d="M45.83 21.11V1.75H35.41v.18a8.2 8.2 0 1 1-16.42 0v-.18H8.48v19.36"/>
  <path fill="#c21d47" stroke="#333" d="M8.48 21.11v44.81H18.9v-.18a8.2 8.2 0 1 1 16.42 0v.18h10.42V21.11"/>
  <line x1="8.48" x2="11.25" y1="21.11" y2="21.11" fill="none" stroke="#333"/>
  <line x1="18.24" x2="39.43" y1="21.06" y2="21.06" fill="none" stroke="#333" stroke-dasharray="0 0 5.75 7.66"/>
  <line x1="43.06" x2="45.82" y1="21.11" y2="21.11" fill="none" stroke="#333"/>
  <path fill="#f2f2f3" stroke="#333" d="m27.2 29.04 3.04 6.27 6.92.92-4.98 4.89 1.2 6.92-6.18-3.32-6.18 3.32 1.2-6.92-4.98-4.89 6.82-.92 3.14-6.27Z"/>
  <path fill="#fff" stroke="#333" d="M39.09 27.94V8.57H28.58v.18a8.2 8.2 0 1 1-16.42 0h0v-.18H1.75v19.37"/>
  <path fill="#c21d47" stroke="#333" d="M1.75 27.94v44.81h10.42v-.18a8.2 8.2 0 1 1 16.42 0v.18h10.42V27.94"/>
  <line x1="1.75" x2="4.52" y1="27.94" y2="27.94" fill="none" stroke="#333"/>
  <line x1="11.52" x2="32.73" y1="27.94" y2="27.94" fill="none" stroke="#333" stroke-dasharray="0 0 5.75 7.66"/>
  <line x1="36.33" x2="39.09" y1="27.94" y2="27.94" fill="none" stroke="#333"/>
  <path fill="#ffd248" stroke="#333" d="m20.38 35.87 3.13 6.18 6.82 1.01-4.98 4.89 1.2 6.82-6.18-3.23-6.18 3.22 1.2-6.82-4.98-4.89 6.92-1.01 3.04-6.18Z"/>
</svg>
