<svg xmlns="http://www.w3.org/2000/svg" id="Layer_1" viewBox="0 0 258.56 106.35">
  <g fill="#d31145">
    <path d="M123.57 106.35c-16.7 0-30.73-5.5-40.56-15.91a49.73 49.73 0 0 1-13.37-34.37 58 58 0 0 1 7.9-29.44h-14.1v75.73a3 3 0 0 1-3 3h-24.7a3 3 0 0 1-3-3V26.63H3a3 3 0 0 1-3-3V3a3 3 0 0 1 3-3h129.4c19.39 0 27.59 5.2 28.46 5.8l.44.3a3 3 0 0 1 1.3 2.47v22.7a3 3 0 0 1-4.56 2.56l-1.52-.93a52.66 52.66 0 0 0-24.64-6.38c-3.04 0-29.68.75-29.68 26.65 0 2.59.6 25.26 21.1 25.26 6.21 0 10.52-1.1 13.49-2.47h-13.47a3 3 0 0 1-3-3v-23.2a3 3 0 0 1 3-3h52.81a3 3 0 0 1 3 3v52.6a3 3 0 0 1-3 3h-22.85a3 3 0 0 1-3-3v-2.17c-5.4 2.42-13.72 5.5-21.79 6-1.66.11-3.31.16-4.92.16Z"/>
    <path d="M182.4 102.33V3a3 3 0 0 1 3-3h32.8c18.13 0 36.49 12.62 36.49 36.73 0 14.9-6.9 26.04-19.95 32.2a58.95 58.95 0 0 1-21.74 5.1v28.3a3 3 0 0 1-3 3h-24.6a3 3 0 0 1-3-3ZM213.04 47c4.53-.14 11.34-1.77 11.34-10.28 0-4.82-3.56-10-11.34-10.28V47Z"/>
    <path d="M254.63.42c.68 0 1.35.17 1.94.5a3.94 3.94 0 1 1-1.95-.5Zm0 .65c-.56 0-1.12.15-1.61.43a3.26 3.26 0 0 0-.01 5.7 3.29 3.29 0 0 0 4.48-4.49 3.01 3.01 0 0 0-1.24-1.21 3.45 3.45 0 0 0-1.6-.43Zm-1.73 5.46V2.3h1.46c.36-.02.73.02 1.08.12a1 1 0 0 1 .53.4c.13.18.2.4.2.63 0 .3-.12.59-.33.8-.23.24-.55.38-.88.4.13.05.25.13.36.22.24.26.44.54.62.84l.52.83h-.83l-.38-.67a3.51 3.51 0 0 0-.71-.99.83.83 0 0 0-.55-.14h-.4v1.8h-.69Zm.68-2.39h.83c.28.03.57-.04.81-.18a.6.6 0 0 0-.17-1.03 2.22 2.22 0 0 0-.68-.07h-.78v1.28Z"/>
  </g>
  <g fill="none" stroke="#fff" stroke-linecap="round" stroke-linejoin="round" stroke-width="3">
    <path d="M124.32 71.96h22.38s-3.64 10.48-23.4 10.48-25.1-18.2-25.1-29.27 6.48-30.65 33.68-30.65a56.24 56.24 0 0 1 26.72 6.96V9.1S151.11 4 132.4 4H4v18.63h32.74v78.73h22.7V22.63h25.63a54.34 54.34 0 0 0-11.43 33.44c0 23.64 17.6 48.41 54.6 46.13 12.48-.77 26.04-8.44 26.04-8.44v7.6h20.85v-50.6h-50.8v21.2Z"/>
    <path d="M218.2 4h-31.8v97.33H209V70.08s41.7 2.02 41.7-33.35C250.7 15.6 235 4 218.2 4Zm-5.84 47.02h-3.32v-28.6h3.32c8.84 0 16.01 5.53 16.01 14.3 0 9.88-7.16 14.3-16 14.3h0Z"/>
  </g>
</svg>
