<svg xmlns="http://www.w3.org/2000/svg" width="12" height="12" viewBox="0 0 12 12"><path d="M8.51 2.93a4.12 4.12 0 0 0-1.26-.79A3.95 3.95 0 0 0 2 4.85a.26.26 0 0 1-.28.21H.38a.28.28 0 0 1-.29-.28 5.84 5.84 0 0 1 1.08-2.46 6 6 0 0 1 2-1.7A5.49 5.49 0 0 1 5.81 0a5.7 5.7 0 0 1 4 1.61l.85-.84a.56.56 0 0 1 .79 0 .56.56 0 0 1 .17.4v3.14a.57.57 0 0 1-.56.57H7.92a.57.57 0 0 1-.56-.57.59.59 0 0 1 .16-.4ZM.56 6.75H3.7a.57.57 0 0 1 .57.56.56.56 0 0 1-.17.4l-1 1a4 4 0 0 0 1.25.79 4 4 0 0 0 5.29-2.73.26.26 0 0 1 .28-.21h1.33a.28.28 0 0 1 .29.28 5.65 5.65 0 0 1-1.08 2.46 5.83 5.83 0 0 1-2 1.7 5.54 5.54 0 0 1-2.61.62 5.7 5.7 0 0 1-4-1.61l-.85.85a.57.57 0 0 1-.8 0 .59.59 0 0 1-.16-.4V7.31a.56.56 0 0 1 .56-.56Z"/></svg>
