<svg xmlns="http://www.w3.org/2000/svg" width="24" height="24" viewBox="0 0 24 24"><path fill="#fff" d="M0 11.62a11.31 11.31 0 0 1 1.57-5.81 11.62 11.62 0 0 1 20.11 0 11.31 11.31 0 0 1 1.57 5.81 11.32 11.32 0 0 1-1.57 5.82 11.73 11.73 0 0 1-4.24 4.24 11.57 11.57 0 0 1-11.63 0 11.8 11.8 0 0 1-4.24-4.24A11.32 11.32 0 0 1 0 11.62Zm3.38 5.91a10.17 10.17 0 0 0 16.5 0 3.2 3.2 0 0 0-.78-1.66 2.94 2.94 0 0 0-1.57-1L16 14.48a6.73 6.73 0 0 1-8.81 0l-1.5.43a2.94 2.94 0 0 0-1.57 1 3.19 3.19 0 0 0-.74 1.62Zm3-8.16a5.25 5.25 0 1 0 7.88-4.54 5.24 5.24 0 0 0-7.18 1.92 5.12 5.12 0 0 0-.7 2.62Z"/></svg>