<svg xmlns="http://www.w3.org/2000/svg" width="60" height="60" viewBox="0 0 60 60">
  <g id="grocery">
    <path fill="#CA2027" stroke="#FFF" stroke-width="3.3" d="M58 29.98c-.95 36.92-55.05 36.92-56 0 .95-36.88 55.05-36.88 56 0z"/>
    <path fill="#FFF" d="m41.15 37.17 2.23-13.88a.87.87 0 0 0-.87-1.04H17.78l-.74-2.77a.84.84 0 0 0-.83-.62h-2.85c-1.12 0-1.12 1.73 0 1.73h2.15c.78 2.77 4.75 17.96 5.66 20.24.12.41.45.62.83.62h18.87a.87.87 0 0 0 0-1.74H22.65l-.58-1.86h18.17c.45 0 .83-.29.87-.7m-17.72 7.7c0 2.56-3.96 2.56-4.01 0 .01-2.64 3.97-2.64 4.01 0m18.05 0c0 2.56-3.96 2.56-3.96 0-.01-2.64 3.96-2.64 3.96 0"/>
    <path fill="#FFF" d="M25.83 20.73c.29-1.73-.83-2.68-2.64-2.02-1.86-.66-2.97.29-2.68 2.02h5.37-.05zm-1.78-4.38c-.29.45.12.83-.25 1.45s-.83.37-.83.37-.41-.25-.08-.87c.37-.62.87-.5 1.16-.99m8.68 4.42c-.41-1.45-1.61-3.1-1.61-3.1v-.87c0-.33-.33-.41-.33-.41h-1.65s-.33.08-.33.41v.87s-1.16 1.65-1.57 3.1h5.49zm-3.85-5.7h2.19v.78h-2.19v-.78zm11.11 5.7c.41-.29.25-1.53.29-1.94 0 0-.17-1.65-3.14-1.65-3.01 0-3.06 1.65-3.06 1.65.04.41-.12 1.65.29 1.94h5.62z"/>
  </g>
</svg>
