<svg xmlns="http://www.w3.org/2000/svg" width="60" height="60" viewBox="0 0 60 60">
  <g id="card">
    <path fill="#CA2027" stroke="#FFF" stroke-width="3.3" d="M58 29.98c-.95 36.92-55.05 36.92-56 0 .95-36.87 55.05-36.87 56 0z"/>
    <path fill="#FFF" d="M30.58 26.39a5.2 5.2 0 0 0 1.78-.74c-.54-.99-1.98-1.53-2.97-.87-1.28.91.21 1.9 1.24 1.61h-.05z"/>
    <path fill="#FFF" d="m23.35 31.88 6.36-4.17c-4.13-.95-1.65-5.58 1.82-4.38l-3.63-5.58c-2.68 1.82-14.04 9.09-16.4 10.78-2.48 2.35.08 4.96 1.4 7.1l1.4 2.15 9.05-5.9zm10.94-7.51c.83-.54 1.57-1.24 1.73-2.15.17-.91-.58-1.49-1.32-.95-.98.62-1.07 2.31-.41 3.1z"/>
    <path fill="#FFF" d="m31.03 20.07 1.57 2.44c.29-3.55 5.49-3.76 4.67.25l5.29-3.47L39.09 14c-1.49-1.82-3.72-1.4-5.37-.08l-4.71 3.1 2.02 3.1v-.05zm-8.59 27.14c1.2.17 7.02-4.29 8.14-4.79L40 36.23l-5.82-8.88a7.25 7.25 0 0 1-2.06 3.63c-.21.17-.58.12-.83-.08-.66-.7.62-1.45.83-2.06.33-.41.54-.99.66-1.53L15.01 38.86l2.52 3.88c1.24 1.66 2.35 4.75 4.91 4.47zm13.09-21.77c1.07.33 2.06-.04 3.39-.29.17 0 .37.17.45.33.7 1.65-3.68 1.4-4.01 1.28l5.74 8.71 5.7-3.72c2.93-2.27.91-4.67-.66-6.98l-2.89-4.38-7.72 5.08v-.03z"/>
  </g>
</svg>
