<svg xmlns="http://www.w3.org/2000/svg" width="23" height="23" viewBox="0 0 23 23">
  <g fill="#FFF">
    <path d="M17.9 6.7c-.3-.7-.9-1.3-1.6-1.6-1-.4-3.6-.3-4.8-.3s-3.7 0-4.8.4c-.7.2-1.3.8-1.5 1.5-.5 1-.4 3.6-.4 4.8s0 3.7.4 4.8c.2.7.8 1.3 1.5 1.6 1 .4 3.6.3 4.8.3s3.7 0 4.8-.3c.7-.3 1.3-.9 1.6-1.6.4-1 .3-3.6.3-4.8s0-3.7-.3-4.8zm-6.4 9a4.2 4.2 0 0 1 0-8.3c2.1 0 3.9 1.8 4 4a4.2 4.2 0 0 1-4 4.3zM15.8 8a1 1 0 0 1-1-1c0-.5.5-1 1-1 .6 0 1 .5 1 1 0 .6-.4 1-1 1z"/>
    <path d="M11.5 8.8a2.7 2.7 0 0 0 0 5.4 2.7 2.7 0 0 0 0-5.4z"/>
    <path d="M21 0H2a2 2 0 0 0-2 2v19c0 1.1.9 2 2 2h19a2 2 0 0 0 2-2V2a2 2 0 0 0-2-2zm-1.4 14.9c0 1.2-.4 2.4-1.3 3.4-1 .9-2.2 1.3-3.4 1.3H8c-1.2 0-2.4-.5-3.4-1.3-1-1-1.2-2.1-1.3-3.4V8c0-1.3.3-2.4 1.3-3.4s2.1-1.2 3.4-1.3H15c1.2 0 2.4.5 3.4 1.3.8 1 1.3 2.2 1.3 3.4V15z"/>
  </g>
</svg>
