{
    "asset" : {
        "generator" : "Khronos glTF Blender I/O v1.5.9",
        "version" : "2.0"
    },
    "scene" : 0,
    "scenes" : [
        {
            "name" : "Scene",
            "nodes" : [
                0,
                1,
                2,
                3,
                4,
                5,
                6,
                7,
                8
            ]
        }
    ],
    "nodes" : [
        {
            "name" : "Light",
            "rotation" : [
                0.16907575726509094,
                0.7558803558349609,
                -0.27217137813568115,
                0.570947527885437
            ],
            "translation" : [
                4.076245307922363,
                5.903861999511719,
                -1.0054539442062378
            ]
        },
        {
            "name" : "Camera",
            "rotation" : [
                0.483536034822464,
                0.33687159419059753,
                -0.20870360732078552,
                0.7804827094078064
            ],
            "translation" : [
                7.358891487121582,
                4.958309173583984,
                6.925790786743164
            ]
        },
        {
            "mesh" : 0,
            "name" : "Cylinder"
        },
        {
            "mesh" : 1,
            "name" : "Cone",
            "scale" : [
                1,
                1.6800000667572021,
                1
            ],
            "translation" : [
                -2.5185110569000244,
                2.164687156677246,
                1.309664249420166
            ]
        },
        {
            "mesh" : 2,
            "name" : "Cone.001",
            "translation" : [
                -3.508147954940796,
                1.5,
                2.043213367462158
            ]
        },
        {
            "mesh" : 3,
            "name" : "Cone.003",
            "scale" : [
                1,
                0.2600000202655792,
                1
            ],
            "translation" : [
                -5.843533515930176,
                0.7697203159332275,
                1.7333978414535522
            ]
        },
        {
            "mesh" : 4,
            "name" : "Cone.004",
            "scale" : [
                1,
                0.5400000214576721,
                1
            ],
            "translation" : [
                -4.954820156097412,
                1.0323463678359985,
                3.6853818893432617
            ]
        },
        {
            "mesh" : 5,
            "name" : "Cone.005",
            "scale" : [
                1,
                0.20000003278255463,
                1
            ],
            "translation" : [
                -6.675187110900879,
                0.7000027894973755,
                5.112504482269287
            ]
        },
        {
            "mesh" : 6,
            "name" : "Cone.007",
            "scale" : [
                1,
                0.3800000250339508,
                1
            ],
            "translation" : [
                -7.144378185272217,
                0.8368501663208008,
                4.506465911865234
            ]
        }
    ],
    "materials" : [
        {
            "doubleSided" : true,
            "name" : "wheel",
            "pbrMetallicRoughness" : {
                "baseColorTexture" : {
                    "index" : 0,
                    "texCoord" : 0
                },
                "metallicFactor" : 0,
                "roughnessFactor" : 0.5
            }
        },
        {
            "doubleSided" : true,
            "emissiveFactor" : [
                0.0871419608592987,
                0.0871419608592987,
                0.0871419608592987
            ],
            "name" : "Material.001",
            "pbrMetallicRoughness" : {
                "baseColorFactor" : [
                    0.11820805072784424,
                    0.01573364809155464,
                    0.22857140004634857,
                    1
                ],
                "metallicFactor" : 0,
                "roughnessFactor" : 0.5
            }
        },
        {
            "doubleSided" : true,
            "name" : "Material.002",
            "pbrMetallicRoughness" : {
                "baseColorFactor" : [
                    0.8000000715255737,
                    0.21834875643253326,
                    0.6279439330101013,
                    1
                ],
                "metallicFactor" : 0,
                "roughnessFactor" : 0.5
            }
        },
        {
            "doubleSided" : true,
            "name" : "Material.004",
            "pbrMetallicRoughness" : {
                "baseColorFactor" : [
                    0.04799390211701393,
                    0.25304266810417175,
                    0.8000000715255737,
                    1
                ],
                "metallicFactor" : 0,
                "roughnessFactor" : 0.5
            }
        },
        {
            "doubleSided" : true,
            "name" : "Material.003",
            "pbrMetallicRoughness" : {
                "baseColorFactor" : [
                    0.8000000715255737,
                    0.05221756920218468,
                    0.4168604016304016,
                    1
                ],
                "metallicFactor" : 0,
                "roughnessFactor" : 0.5
            }
        }
    ],
    "meshes" : [
        {
            "name" : "Cylinder",
            "primitives" : [
                {
                    "attributes" : {
                        "POSITION" : 0,
                        "NORMAL" : 1,
                        "TEXCOORD_0" : 2
                    },
                    "indices" : 3,
                    "material" : 0
                }
            ]
        },
        {
            "name" : "Cone",
            "primitives" : [
                {
                    "attributes" : {
                        "POSITION" : 4,
                        "NORMAL" : 5,
                        "TEXCOORD_0" : 6
                    },
                    "indices" : 7,
                    "material" : 1
                }
            ]
        },
        {
            "name" : "Cone.001",
            "primitives" : [
                {
                    "attributes" : {
                        "POSITION" : 8,
                        "NORMAL" : 9,
                        "TEXCOORD_0" : 10
                    },
                    "indices" : 7,
                    "material" : 2
                }
            ]
        },
        {
            "name" : "Cone.003",
            "primitives" : [
                {
                    "attributes" : {
                        "POSITION" : 11,
                        "NORMAL" : 12,
                        "TEXCOORD_0" : 13
                    },
                    "indices" : 7,
                    "material" : 3
                }
            ]
        },
        {
            "name" : "Cone.004",
            "primitives" : [
                {
                    "attributes" : {
                        "POSITION" : 14,
                        "NORMAL" : 15,
                        "TEXCOORD_0" : 16
                    },
                    "indices" : 7,
                    "material" : 4
                }
            ]
        },
        {
            "name" : "Cone.005",
            "primitives" : [
                {
                    "attributes" : {
                        "POSITION" : 17,
                        "NORMAL" : 18,
                        "TEXCOORD_0" : 19
                    },
                    "indices" : 7,
                    "material" : 4
                }
            ]
        },
        {
            "name" : "Cone.007",
            "primitives" : [
                {
                    "attributes" : {
                        "POSITION" : 20,
                        "NORMAL" : 21,
                        "TEXCOORD_0" : 22
                    },
                    "indices" : 7,
                    "material" : 4
                }
            ]
        }
    ],
    "textures" : [
        {
            "sampler" : 0,
            "source" : 0
        }
    ],
    "images" : [
        {
            "bufferView" : 4,
            "mimeType" : "image/jpeg",
            "name" : "wheel"
        }
    ],
    "accessors" : [
        {
            "bufferView" : 0,
            "componentType" : 5126,
            "count" : 480,
            "max" : [
                8.710000038146973,
                0.5,
                8.710000038146973
            ],
            "min" : [
                -8.710000038146973,
                -0.5,
                -8.710000038146973
            ],
            "type" : "VEC3"
        },
        {
            "bufferView" : 1,
            "componentType" : 5126,
            "count" : 480,
            "type" : "VEC3"
        },
        {
            "bufferView" : 2,
            "componentType" : 5126,
            "count" : 480,
            "type" : "VEC2"
        },
        {
            "bufferView" : 3,
            "componentType" : 5123,
            "count" : 948,
            "type" : "SCALAR"
        },
        {
            "bufferView" : 5,
            "componentType" : 5126,
            "count" : 32,
            "max" : [
                0.20000000298023224,
                1,
                0.20000000298023224
            ],
            "min" : [
                -0.20000000298023224,
                -1,
                -0.20000000298023224
            ],
            "type" : "VEC3"
        },
        {
            "bufferView" : 6,
            "componentType" : 5126,
            "count" : 32,
            "type" : "VEC3"
        },
        {
            "bufferView" : 7,
            "componentType" : 5126,
            "count" : 32,
            "type" : "VEC2"
        },
        {
            "bufferView" : 8,
            "componentType" : 5123,
            "count" : 42,
            "type" : "SCALAR"
        },
        {
            "bufferView" : 9,
            "componentType" : 5126,
            "count" : 32,
            "max" : [
                0.20000000298023224,
                1,
                0.20000000298023224
            ],
            "min" : [
                -0.20000000298023224,
                -1,
                -0.20000000298023224
            ],
            "type" : "VEC3"
        },
        {
            "bufferView" : 10,
            "componentType" : 5126,
            "count" : 32,
            "type" : "VEC3"
        },
        {
            "bufferView" : 11,
            "componentType" : 5126,
            "count" : 32,
            "type" : "VEC2"
        },
        {
            "bufferView" : 12,
            "componentType" : 5126,
            "count" : 32,
            "max" : [
                0.20000000298023224,
                1,
                0.20000000298023224
            ],
            "min" : [
                -0.20000000298023224,
                -1,
                -0.20000000298023224
            ],
            "type" : "VEC3"
        },
        {
            "bufferView" : 13,
            "componentType" : 5126,
            "count" : 32,
            "type" : "VEC3"
        },
        {
            "bufferView" : 14,
            "componentType" : 5126,
            "count" : 32,
            "type" : "VEC2"
        },
        {
            "bufferView" : 15,
            "componentType" : 5126,
            "count" : 32,
            "max" : [
                0.20000000298023224,
                1,
                0.20000000298023224
            ],
            "min" : [
                -0.20000000298023224,
                -1,
                -0.20000000298023224
            ],
            "type" : "VEC3"
        },
        {
            "bufferView" : 16,
            "componentType" : 5126,
            "count" : 32,
            "type" : "VEC3"
        },
        {
            "bufferView" : 17,
            "componentType" : 5126,
            "count" : 32,
            "type" : "VEC2"
        },
        {
            "bufferView" : 18,
            "componentType" : 5126,
            "count" : 32,
            "max" : [
                0.20000000298023224,
                1,
                0.20000000298023224
            ],
            "min" : [
                -0.20000000298023224,
                -1,
                -0.20000000298023224
            ],
            "type" : "VEC3"
        },
        {
            "bufferView" : 19,
            "componentType" : 5126,
            "count" : 32,
            "type" : "VEC3"
        },
        {
            "bufferView" : 20,
            "componentType" : 5126,
            "count" : 32,
            "type" : "VEC2"
        },
        {
            "bufferView" : 21,
            "componentType" : 5126,
            "count" : 32,
            "max" : [
                0.20000000298023224,
                1,
                0.20000000298023224
            ],
            "min" : [
                -0.20000000298023224,
                -1,
                -0.20000000298023224
            ],
            "type" : "VEC3"
        },
        {
            "bufferView" : 22,
            "componentType" : 5126,
            "count" : 32,
            "type" : "VEC3"
        },
        {
            "bufferView" : 23,
            "componentType" : 5126,
            "count" : 32,
            "type" : "VEC2"
        }
    ],
    "bufferViews" : [
        {
            "buffer" : 0,
            "byteLength" : 5760,
            "byteOffset" : 0
        },
        {
            "buffer" : 0,
            "byteLength" : 5760,
            "byteOffset" : 5760
        },
        {
            "buffer" : 0,
            "byteLength" : 3840,
            "byteOffset" : 11520
        },
        {
            "buffer" : 0,
            "byteLength" : 1896,
            "byteOffset" : 15360
        },
        {
            "buffer" : 0,
            "byteLength" : 1083291,
            "byteOffset" : 17256
        },
        {
            "buffer" : 0,
            "byteLength" : 384,
            "byteOffset" : 1100548
        },
        {
            "buffer" : 0,
            "byteLength" : 384,
            "byteOffset" : 1100932
        },
        {
            "buffer" : 0,
            "byteLength" : 256,
            "byteOffset" : 1101316
        },
        {
            "buffer" : 0,
            "byteLength" : 84,
            "byteOffset" : 1101572
        },
        {
            "buffer" : 0,
            "byteLength" : 384,
            "byteOffset" : 1101656
        },
        {
            "buffer" : 0,
            "byteLength" : 384,
            "byteOffset" : 1102040
        },
        {
            "buffer" : 0,
            "byteLength" : 256,
            "byteOffset" : 1102424
        },
        {
            "buffer" : 0,
            "byteLength" : 384,
            "byteOffset" : 1102680
        },
        {
            "buffer" : 0,
            "byteLength" : 384,
            "byteOffset" : 1103064
        },
        {
            "buffer" : 0,
            "byteLength" : 256,
            "byteOffset" : 1103448
        },
        {
            "buffer" : 0,
            "byteLength" : 384,
            "byteOffset" : 1103704
        },
        {
            "buffer" : 0,
            "byteLength" : 384,
            "byteOffset" : 1104088
        },
        {
            "buffer" : 0,
            "byteLength" : 256,
            "byteOffset" : 1104472
        },
        {
            "buffer" : 0,
            "byteLength" : 384,
            "byteOffset" : 1104728
        },
        {
            "buffer" : 0,
            "byteLength" : 384,
            "byteOffset" : 1105112
        },
        {
            "buffer" : 0,
            "byteLength" : 256,
            "byteOffset" : 1105496
        },
        {
            "buffer" : 0,
            "byteLength" : 384,
            "byteOffset" : 1105752
        },
        {
            "buffer" : 0,
            "byteLength" : 384,
            "byteOffset" : 1106136
        },
        {
            "buffer" : 0,
            "byteLength" : 256,
            "byteOffset" : 1106520
        }
    ],
    "samplers" : [
        {
            "magFilter" : 9729,
            "minFilter" : 9987
        }
    ],
    "buffers" : [
        {
            "byteLength" : 1106776,
            "uri" : "data:application/octet-stream;base64,"
        }
    ]
}
