<svg xmlns="http://www.w3.org/2000/svg" width="712" height="81" viewBox="0 0 712 81">
  <rect width="5.59" height="5.59" x="398.11" y="75.41" fill="#bf2126" transform="translate(479.11 -322.71) rotate(90)"/>
  <rect width="5.59" height="5.59" x="398.11" y="66.18" fill="#bf2126" transform="translate(469.88 -331.94) rotate(90)"/>
  <rect width="5.59" height="5.59" x="398.11" y="56.95" fill="#f7941d" transform="translate(460.66 -341.17) rotate(90)"/>
  <rect width="5.59" height="5.59" x="398.11" y="47.72" fill="#f7941d" transform="translate(451.43 -350.39) rotate(90)"/>
  <rect width="5.59" height="5.59" x="388.79" y="75.41" fill="#bf2126" transform="translate(469.79 -313.38) rotate(90)"/>
  <rect width="5.59" height="5.59" x="388.79" y="66.18" fill="#bf2126" transform="translate(460.56 -322.61) rotate(90)"/>
  <rect width="5.59" height="5.59" x="379.46" y="75.41" fill="#bf2126" transform="translate(460.46 -304.05) rotate(90)"/>
  <rect width="5.59" height="5.59" x="379.46" y="66.18" fill="#bf2126" transform="translate(451.23 -313.28) rotate(90)"/>
  <rect width="5.59" height="5.59" x="388.79" y="56.95" fill="#f7941d" transform="translate(451.33 -331.84) rotate(90)"/>
  <rect width="5.59" height="5.59" x="444.75" y="75.41" fill="#bf2126" transform="translate(525.75 -369.34) rotate(90)"/>
  <rect width="5.59" height="5.59" x="444.75" y="66.18" fill="#bf2126" transform="translate(516.52 -378.57) rotate(90)"/>
  <rect width="5.59" height="5.59" x="444.75" y="56.95" fill="#f7941d" transform="translate(507.29 -387.8) rotate(90)"/>
  <rect width="5.59" height="5.59" x="444.75" y="47.72" fill="#f7941d" transform="translate(498.06 -397.03) rotate(90)"/>
  <rect width="5.59" height="5.59" x="435.42" y="75.41" fill="#bf2126" transform="translate(516.42 -360.02) rotate(90)"/>
  <rect width="5.59" height="5.59" x="435.42" y="66.18" fill="#bf2126" transform="translate(507.19 -369.25) rotate(90)"/>
  <rect width="5.59" height="5.59" x="435.42" y="56.95" fill="#f7941d" transform="translate(497.96 -378.47) rotate(90)"/>
  <rect width="5.59" height="5.59" x="388.79" y="47.72" fill="#f7941d" transform="translate(442.1 -341.07) rotate(90)"/>
  <rect width="5.59" height="5.59" x="398.11" y="38.49" fill="#f8d5b9" transform="translate(442.2 -359.62) rotate(90)"/>
  <rect width="5.59" height="5.59" x="370.13" y="75.41" fill="#bf2126" transform="translate(451.13 -294.73) rotate(90)"/>
  <rect width="5.59" height="5.59" x="370.13" y="66.18" fill="#bf2126" transform="translate(441.9 -303.95) rotate(90)"/>
  <rect width="5.59" height="5.59" x="370.13" y="56.95" fill="#f7941d" transform="translate(432.67 -313.18) rotate(90)"/>
  <rect width="5.59" height="5.59" x="332.82" y="75.41" fill="#bf2126" transform="translate(413.82 -257.42) rotate(90)"/>
  <rect width="5.59" height="5.59" x="332.82" y="66.18" fill="#bf2126" transform="translate(404.59 -266.65) rotate(90)"/>
  <rect width="5.59" height="5.59" x="323.49" y="75.41" fill="#bf2126" transform="translate(404.49 -248.09) rotate(90)"/>
  <rect width="5.59" height="5.59" x="323.49" y="66.18" fill="#bf2126" transform="translate(395.27 -257.32) rotate(90)"/>
  <rect width="5.59" height="5.59" x="323.49" y="56.95" fill="#f7941d" transform="translate(386.04 -266.55) rotate(90)"/>
  <rect width="5.59" height="5.59" x="342.15" y="75.41" fill="#bf2126" transform="translate(423.15 -266.74) rotate(90)"/>
  <rect width="5.59" height="5.59" x="342.15" y="66.18" fill="#bf2126" transform="translate(413.92 -275.97) rotate(90)"/>
  <rect width="5.59" height="5.59" x="342.15" y="56.95" fill="#f7941d" transform="translate(404.69 -285.2) rotate(90)"/>
  <rect width="5.59" height="5.59" x="370.13" y="47.72" fill="#f7941d" transform="translate(423.44 -322.41) rotate(90)"/>
  <rect width="5.59" height="5.59" x="351.48" y="75.41" fill="#bf2126" transform="translate(432.48 -276.07) rotate(90)"/>
  <rect width="5.59" height="5.59" x="351.48" y="66.18" fill="#bf2126" transform="translate(423.25 -285.3) rotate(90)"/>
  <rect width="5.59" height="5.59" x="351.48" y="56.95" fill="#f7941d" transform="translate(414.02 -294.53) rotate(90)"/>
  <rect width="5.59" height="5.59" x="351.48" y="47.72" fill="#f7941d" transform="translate(404.79 -303.76) rotate(90)"/>
  <rect width="5.59" height="5.59" x="342.15" y="47.72" fill="#f7941d" transform="translate(395.46 -294.43) rotate(90)"/>
  <rect width="5.59" height="5.59" x="370.13" y="38.49" fill="#f8d5b9" transform="translate(414.22 -331.64) rotate(90)"/>
  <rect width="5.59" height="5.59" x="398.11" y="29.26" fill="#a9dde9" transform="translate(432.97 -368.85) rotate(90)"/>
  <rect width="5.59" height="5.59" x="453.39" y="75.41" fill="#bf2126" transform="translate(534.39 -377.99) rotate(90)"/>
  <rect width="5.59" height="5.59" x="453.39" y="66.18" fill="#bf2126" transform="translate(525.16 -387.22) rotate(90)"/>
  <rect width="5.59" height="5.59" x="453.39" y="56.95" fill="#f7941d" transform="translate(515.93 -396.44) rotate(90)"/>
  <rect width="5.59" height="5.59" x="453.39" y="47.72" fill="#f7941d" transform="translate(506.7 -405.67) rotate(90)"/>
  <rect width="5.59" height="5.59" x="453.39" y="38.49" fill="#f8d5b9" transform="translate(497.48 -414.9) rotate(90)"/>
  <rect width="5.59" height="5.59" x="462.79" y="75.41" fill="#bf2126" transform="translate(543.79 -387.39) rotate(90)"/>
  <rect width="5.59" height="5.59" x="462.79" y="66.18" fill="#bf2126" transform="translate(534.56 -396.62) rotate(90)"/>
  <rect width="5.59" height="5.59" x="462.79" y="56.95" fill="#f7941d" transform="translate(525.33 -405.84) rotate(90)"/>
  <rect width="5.59" height="5.59" x="462.79" y="47.72" fill="#f7941d" transform="translate(516.11 -415.07) rotate(90)"/>
  <rect width="5.59" height="5.59" x="472.19" y="75.41" fill="#bf2126" transform="translate(553.19 -396.79) rotate(90)"/>
  <rect width="5.59" height="5.59" x="472.19" y="66.18" fill="#bf2126" transform="translate(543.96 -406.02) rotate(90)"/>
  <rect width="5.59" height="5.59" x="481.59" y="75.41" fill="#bf2126" transform="translate(562.59 -406.19) rotate(90)"/>
  <rect width="5.59" height="5.59" x="481.59" y="66.18" fill="#bf2126" transform="translate(553.36 -415.42) rotate(90)"/>
  <rect width="5.59" height="5.59" x="472.19" y="56.95" fill="#f7941d" transform="translate(534.73 -415.25) rotate(90)"/>
  <rect width="5.59" height="5.59" x="490.99" y="75.41" fill="#bf2126" transform="translate(571.99 -415.59) rotate(90)"/>
  <rect width="5.59" height="5.59" x="490.99" y="66.18" fill="#bf2126" transform="translate(562.76 -424.82) rotate(90)"/>
  <rect width="5.59" height="5.59" x="490.99" y="56.95" fill="#f7941d" transform="translate(553.54 -434.05) rotate(90)"/>
  <rect width="5.59" height="5.59" x="472.19" y="47.72" fill="#f7941d" transform="translate(525.51 -424.47) rotate(90)"/>
  <rect width="5.59" height="5.59" x="462.79" y="38.49" fill="#f8d5b9" transform="translate(506.88 -424.3) rotate(90)"/>
  <rect width="5.59" height="5.59" x="453.39" y="29.26" fill="#a9dde9" transform="translate(488.25 -424.13) rotate(90)"/>
  <rect width="5.59" height="5.59" x="500.09" y="75.41" fill="#bf2126" transform="translate(581.09 -424.68) rotate(90)"/>
  <rect width="5.59" height="5.59" x="500.09" y="66.18" fill="#bf2126" transform="translate(571.86 -433.91) rotate(90)"/>
  <rect width="5.59" height="5.59" x="500.09" y="56.95" fill="#f7941d" transform="translate(562.63 -443.14) rotate(90)"/>
  <rect width="5.59" height="5.59" x="500.09" y="47.72" fill="#f7941d" transform="translate(553.4 -452.37) rotate(90)"/>
  <rect width="5.59" height="5.59" x="500.09" y="38.49" fill="#f8d5b9" transform="translate(544.17 -461.6) rotate(90)"/>
  <rect width="5.59" height="5.59" x="509.18" y="75.41" fill="#bf2126" transform="translate(590.18 -433.78) rotate(90)"/>
  <rect width="5.59" height="5.59" x="509.18" y="66.18" fill="#bf2126" transform="translate(580.96 -443.01) rotate(90)"/>
  <rect width="5.59" height="5.59" x="518.28" y="75.41" fill="#bf2126" transform="translate(599.28 -442.88) rotate(90)"/>
  <rect width="5.59" height="5.59" x="518.28" y="66.18" fill="#bf2126" transform="translate(590.05 -452.1) rotate(90)"/>
  <rect width="5.59" height="5.59" x="518.28" y="56.95" fill="#f7941d" transform="translate(580.82 -461.33) rotate(90)"/>
  <rect width="5.59" height="5.59" x="527.68" y="75.41" fill="#bf2126" transform="translate(608.68 -452.28) rotate(90)"/>
  <rect width="5.59" height="5.59" x="527.68" y="66.18" fill="#bf2126" transform="translate(599.45 -461.51) rotate(90)"/>
  <rect width="5.59" height="5.59" x="527.68" y="56.95" fill="#f7941d" transform="translate(590.22 -470.74) rotate(90)"/>
  <rect width="5.59" height="5.59" x="527.68" y="47.72" fill="#f7941d" transform="translate(581 -479.96) rotate(90)"/>
  <rect width="5.59" height="5.59" x="536.83" y="75.41" fill="#bf2126" transform="translate(617.83 -461.43) rotate(90)"/>
  <rect width="5.59" height="5.59" x="536.83" y="66.18" fill="#bf2126" transform="translate(608.6 -470.65) rotate(90)"/>
  <rect width="5.59" height="5.59" x="536.83" y="56.95" fill="#f7941d" transform="translate(599.37 -479.88) rotate(90)"/>
  <rect width="5.59" height="5.59" x="536.83" y="47.72" fill="#f7941d" transform="translate(590.14 -489.11) rotate(90)"/>
  <rect width="5.59" height="5.59" x="536.83" y="38.49" fill="#f8d5b9" transform="translate(580.91 -498.34) rotate(90)"/>
  <rect width="5.59" height="5.59" x="545.98" y="75.41" fill="#bf2126" transform="translate(626.98 -470.57) rotate(90)"/>
  <rect width="5.59" height="5.59" x="545.98" y="66.18" fill="#bf2126" transform="translate(617.75 -479.8) rotate(90)"/>
  <rect width="5.59" height="5.59" x="545.98" y="56.95" fill="#f7941d" transform="translate(608.52 -489.03) rotate(90)"/>
  <rect width="5.59" height="5.59" x="545.98" y="47.72" fill="#f7941d" transform="translate(599.29 -498.26) rotate(90)"/>
  <rect width="5.59" height="5.59" x="545.98" y="38.49" fill="#f8d5b9" transform="translate(590.06 -507.49) rotate(90)"/>
  <rect width="5.59" height="5.59" x="555.13" y="75.41" fill="#bf2126" transform="translate(636.13 -479.72) rotate(90)"/>
  <rect width="5.59" height="5.59" x="555.13" y="66.18" fill="#bf2126" transform="translate(626.9 -488.95) rotate(90)"/>
  <rect width="5.59" height="5.59" x="555.13" y="56.95" fill="#f7941d" transform="translate(617.67 -498.18) rotate(90)"/>
  <rect width="5.59" height="5.59" x="555.13" y="47.72" fill="#f7941d" transform="translate(608.44 -507.41) rotate(90)"/>
  <rect width="5.59" height="5.59" x="564.28" y="75.41" fill="#bf2126" transform="translate(645.27 -488.87) rotate(90)"/>
  <rect width="5.59" height="5.59" x="564.28" y="66.18" fill="#bf2126" transform="translate(636.05 -498.1) rotate(90)"/>
  <rect width="5.59" height="5.59" x="564.28" y="56.95" fill="#f7941d" transform="translate(626.82 -507.33) rotate(90)"/>
  <rect width="5.59" height="5.59" x="564.28" y="47.72" fill="#f7941d" transform="translate(617.59 -516.56) rotate(90)"/>
  <rect width="5.59" height="5.59" x="564.28" y="38.49" fill="#f8d5b9" transform="translate(608.36 -525.79) rotate(90)"/>
  <rect width="5.59" height="5.59" x="573.42" y="75.41" fill="#bf2126" transform="translate(654.42 -498.02) rotate(90)"/>
  <rect width="5.59" height="5.59" x="573.42" y="66.18" fill="#bf2126" transform="translate(645.19 -507.25) rotate(90)"/>
  <rect width="5.59" height="5.59" x="573.42" y="56.95" fill="#f7941d" transform="translate(635.97 -516.48) rotate(90)"/>
  <rect width="5.59" height="5.59" x="573.42" y="47.72" fill="#f7941d" transform="translate(626.74 -525.71) rotate(90)"/>
  <rect width="5.59" height="5.59" x="582.88" y="75.41" fill="#bf2126" transform="translate(663.88 -507.47) rotate(90)"/>
  <rect width="5.59" height="5.59" x="582.88" y="66.18" fill="#bf2126" transform="translate(654.65 -516.7) rotate(90)"/>
  <rect width="5.59" height="5.59" x="582.88" y="56.95" fill="#f7941d" transform="translate(645.42 -525.93) rotate(90)"/>
  <rect width="5.59" height="5.59" x="592.03" y="75.41" fill="#bf2126" transform="translate(673.02 -516.62) rotate(90)"/>
  <rect width="5.59" height="5.59" x="592.03" y="66.18" fill="#bf2126" transform="translate(663.8 -525.85) rotate(90)"/>
  <rect width="5.59" height="5.59" x="601.63" y="75.41" fill="#bf2126" transform="translate(682.63 -526.23) rotate(90)"/>
  <rect width="5.59" height="5.59" x="601.63" y="66.18" fill="#bf2126" transform="translate(673.4 -535.45) rotate(90)"/>
  <rect width="5.59" height="5.59" x="601.63" y="56.95" fill="#f7941d" transform="translate(664.17 -544.68) rotate(90)"/>
  <rect width="5.59" height="5.59" x="601.63" y="47.72" fill="#f7941d" transform="translate(654.94 -553.91) rotate(90)"/>
  <rect width="5.59" height="5.59" x="601.63" y="38.49" fill="#f8d5b9" transform="translate(645.71 -563.14) rotate(90)"/>
  <rect width="5.59" height="5.59" x="610.78" y="75.41" fill="#bf2126" transform="translate(691.78 -535.37) rotate(90)"/>
  <rect width="5.59" height="5.59" x="610.78" y="66.18" fill="#bf2126" transform="translate(682.55 -544.6) rotate(90)"/>
  <rect width="5.59" height="5.59" x="620.18" y="75.41" fill="#bf2126" transform="translate(701.18 -544.78) rotate(90)"/>
  <rect width="5.59" height="5.59" x="620.18" y="66.18" fill="#bf2126" transform="translate(691.95 -554.01) rotate(90)"/>
  <rect width="5.59" height="5.59" x="620.18" y="56.95" fill="#f7941d" transform="translate(682.72 -563.23) rotate(90)"/>
  <rect width="5.59" height="5.59" x="629.33" y="75.4" fill="#bf2126" transform="translate(710.33 -553.92) rotate(90)"/>
  <rect width="5.59" height="5.59" x="629.33" y="66.18" fill="#bf2126" transform="translate(701.1 -563.15) rotate(90)"/>
  <rect width="5.59" height="5.59" x="629.33" y="56.95" fill="#f7941d" transform="translate(691.87 -572.38) rotate(90)"/>
  <rect width="5.59" height="5.59" x="629.33" y="47.72" fill="#f7941d" transform="translate(682.64 -581.61) rotate(90)"/>
  <rect width="5.59" height="5.59" x="638.73" y="75.4" fill="#bf2126" transform="translate(719.73 -563.33) rotate(90)"/>
  <rect width="5.59" height="5.59" x="638.73" y="66.18" fill="#bf2126" transform="translate(710.5 -572.56) rotate(90)"/>
  <rect width="5.59" height="5.59" x="638.73" y="56.95" fill="#f7941d" transform="translate(701.27 -581.78) rotate(90)"/>
  <rect width="5.59" height="5.59" x="638.73" y="47.72" fill="#f7941d" transform="translate(692.04 -591.01) rotate(90)"/>
  <rect width="5.59" height="5.59" x="638.73" y="38.49" fill="#f8d5b9" transform="translate(682.82 -600.24) rotate(90)"/>
  <rect width="5.59" height="5.59" x="536.83" y="29.26" fill="#a9dde9" transform="translate(571.69 -507.57) rotate(90)"/>
  <rect width="5.59" height="5.59" x="647.63" y="47.72" fill="#f7941d" transform="translate(700.94 -599.91) rotate(90)"/>
  <rect width="5.59" height="5.59" x="647.63" y="38.49" fill="#f8d5b9" transform="translate(691.71 -609.14) rotate(90)"/>
  <rect width="5.59" height="5.59" x="647.63" y="29.26" fill="#a9dde9" transform="translate(682.48 -618.37) rotate(90)"/>
  <rect width="5.59" height="5.59" x="657.03" y="75.4" fill="#bf2126" transform="translate(738.03 -581.62) rotate(90)"/>
  <rect width="5.59" height="5.59" x="657.03" y="66.18" fill="#bf2126" transform="translate(728.8 -590.85) rotate(90)"/>
  <rect width="5.59" height="5.59" x="657.03" y="56.95" fill="#f7941d" transform="translate(719.57 -600.08) rotate(90)"/>
  <rect width="5.59" height="5.59" x="666.18" y="75.4" fill="#bf2126" transform="translate(747.18 -590.77) rotate(90)"/>
  <rect width="5.59" height="5.59" x="666.18" y="66.18" fill="#bf2126" transform="translate(737.95 -600) rotate(90)"/>
  <rect width="5.59" height="5.59" x="675.33" y="75.4" fill="#bf2126" transform="translate(756.32 -599.92) rotate(90)"/>
  <rect width="5.59" height="5.59" x="675.33" y="66.18" fill="#bf2126" transform="translate(747.1 -609.15) rotate(90)"/>
  <rect width="5.59" height="5.59" x="675.33" y="56.95" fill="#f7941d" transform="translate(737.87 -618.38) rotate(90)"/>
  <rect width="5.59" height="5.59" x="675.33" y="47.72" fill="#f7941d" transform="translate(728.64 -627.61) rotate(90)"/>
  <rect width="5.59" height="5.59" x="684.47" y="75.4" fill="#bf2126" transform="translate(765.47 -609.07) rotate(90)"/>
  <rect width="5.59" height="5.59" x="684.47" y="66.18" fill="#bf2126" transform="translate(756.24 -618.3) rotate(90)"/>
  <rect width="5.59" height="5.59" x="684.47" y="56.95" fill="#f7941d" transform="translate(747.01 -627.53) rotate(90)"/>
  <rect width="5.59" height="5.59" x="684.47" y="47.72" fill="#f7941d" transform="translate(737.79 -636.75) rotate(90)"/>
  <rect width="5.59" height="5.59" x="684.47" y="38.49" fill="#f8d5b9" transform="translate(728.56 -645.98) rotate(90)"/>
  <rect width="5.59" height="5.59" x="684.47" y="29.26" fill="#a9dde9" transform="translate(719.33 -655.21) rotate(90)"/>
  <rect width="5.59" height="5.59" x="693.62" y="75.4" fill="#bf2126" transform="translate(774.62 -618.22) rotate(90)"/>
  <rect width="5.59" height="5.59" x="693.62" y="66.18" fill="#bf2126" transform="translate(765.39 -627.45) rotate(90)"/>
  <rect width="5.59" height="5.59" x="693.62" y="56.95" fill="#f7941d" transform="translate(756.16 -636.67) rotate(90)"/>
  <rect width="5.59" height="5.59" x="693.62" y="47.72" fill="#f7941d" transform="translate(746.93 -645.9) rotate(90)"/>
  <rect width="5.59" height="5.59" x="693.62" y="38.49" fill="#f8d5b9" transform="translate(737.71 -655.13) rotate(90)"/>
  <rect width="5.59" height="5.59" x="693.62" y="29.26" fill="#a9dde9" transform="translate(728.48 -664.36) rotate(90)"/>
  <rect width="5.59" height="5.59" x="702.77" y="75.4" fill="#bf2126" transform="translate(783.77 -627.37) rotate(90)"/>
  <rect width="5.59" height="5.59" x="702.77" y="66.18" fill="#bf2126" transform="translate(774.54 -636.59) rotate(90)"/>
  <rect width="5.59" height="5.59" x="702.77" y="56.95" fill="#f7941d" transform="translate(765.31 -645.82) rotate(90)"/>
  <rect width="5.59" height="5.59" x="702.77" y="47.72" fill="#f7941d" transform="translate(756.08 -655.05) rotate(90)"/>
  <rect width="5.59" height="5.59" x="702.77" y="38.49" fill="#f8d5b9" transform="translate(746.85 -664.28) rotate(90)"/>
  <rect width="5.59" height="5.59" x="647.88" y="75.4" fill="#bf2126" transform="translate(728.88 -572.48) rotate(90)"/>
  <rect width="5.59" height="5.59" x="647.88" y="66.18" fill="#bf2126" transform="translate(719.65 -581.7) rotate(90)"/>
  <rect width="5.59" height="5.59" x="647.88" y="56.95" fill="#f7941d" transform="translate(710.42 -590.93) rotate(90)"/>
  <rect width="5.59" height="5.59" x="360.8" y="75.41" fill="#bf2126" transform="translate(441.8 -285.4) rotate(90)"/>
  <rect width="5.59" height="5.59" x="360.8" y="66.18" fill="#bf2126" transform="translate(432.57 -294.63) rotate(90)"/>
  <rect width="5.59" height="5.59" x="360.8" y="56.95" fill="#f7941d" transform="translate(423.35 -303.86) rotate(90)"/>
  <rect width="5.59" height="5.59" x="360.8" y="47.72" fill="#f7941d" transform="translate(414.12 -313.09) rotate(90)"/>
  <rect width="5.59" height="5.59" x="360.8" y="38.49" fill="#f8d5b9" transform="translate(404.89 -322.31) rotate(90)"/>
  <rect width="5.59" height="5.59" x="360.8" y="29.26" fill="#a9dde9" transform="translate(395.66 -331.54) rotate(90)"/>
  <rect width="5.59" height="5.59" x="351.48" y="38.49" fill="#f8d5b9" transform="translate(395.56 -312.99) rotate(90)"/>
  <rect width="5.59" height="5.59" x="351.48" y="29.26" fill="#a9dde9" transform="translate(386.33 -322.22) rotate(90)"/>
  <rect width="5.59" height="5.59" x="314.17" y="75.41" fill="#bf2126" transform="translate(395.17 -238.76) rotate(90)"/>
  <rect width="5.59" height="5.59" x="314.17" y="66.18" fill="#bf2126" transform="translate(385.94 -247.99) rotate(90)"/>
  <rect width="5.59" height="5.59" x="314.17" y="56.95" fill="#f7941d" transform="translate(376.71 -257.22) rotate(90)"/>
  <rect width="5.59" height="5.59" x="314.17" y="47.72" fill="#f7941d" transform="translate(367.48 -266.45) rotate(90)"/>
  <rect width="5.59" height="5.59" x="314.17" y="38.49" fill="#f8d5b9" transform="translate(358.25 -275.68) rotate(90)"/>
  <rect width="5.59" height="5.59" x="304.84" y="75.41" fill="#bf2126" transform="translate(385.84 -229.43) rotate(90)"/>
  <rect width="5.59" height="5.59" x="304.84" y="66.18" fill="#bf2126" transform="translate(376.61 -238.66) rotate(90)"/>
  <rect width="5.59" height="5.59" x="304.84" y="56.95" fill="#f7941d" transform="translate(367.38 -247.89) rotate(90)"/>
  <rect width="5.59" height="5.59" x="304.84" y="47.72" fill="#f7941d" transform="translate(358.15 -257.12) rotate(90)"/>
  <rect width="5.59" height="5.59" x="295.51" y="75.41" fill="#bf2126" transform="translate(376.51 -220.11) rotate(90)"/>
  <rect width="5.59" height="5.59" x="295.51" y="66.18" fill="#bf2126" transform="translate(367.28 -229.34) rotate(90)"/>
  <rect width="5.59" height="5.59" x="295.51" y="56.95" fill="#f7941d" transform="translate(358.05 -238.57) rotate(90)"/>
  <rect width="5.59" height="5.59" x="286.19" y="75.41" fill="#bf2126" transform="translate(367.19 -210.78) rotate(90)"/>
  <rect width="5.59" height="5.59" x="286.19" y="66.18" fill="#bf2126" transform="translate(357.96 -220.01) rotate(90)"/>
  <rect width="5.59" height="5.59" x="276.86" y="75.41" fill="#bf2126" transform="translate(357.86 -201.45) rotate(90)"/>
  <rect width="5.59" height="5.59" x="276.86" y="66.18" fill="#bf2126" transform="translate(348.63 -210.68) rotate(90)"/>
  <rect width="5.59" height="5.59" x="286.19" y="56.95" fill="#f7941d" transform="translate(348.73 -229.24) rotate(90)"/>
  <rect width="5.59" height="5.59" x="295.51" y="47.72" fill="#f7941d" transform="translate(348.83 -247.79) rotate(90)"/>
  <rect width="5.59" height="5.59" x="304.84" y="38.49" fill="#f8d5b9" transform="translate(348.92 -266.35) rotate(90)"/>
  <rect width="5.59" height="5.59" x="267.53" y="75.41" fill="#bf2126" transform="translate(348.53 -192.13) rotate(90)"/>
  <rect width="5.59" height="5.59" x="267.53" y="66.18" fill="#bf2126" transform="translate(339.3 -201.35) rotate(90)"/>
  <rect width="5.59" height="5.59" x="258.2" y="75.41" fill="#bf2126" transform="translate(339.2 -182.8) rotate(90)"/>
  <rect width="5.59" height="5.59" x="258.2" y="66.18" fill="#bf2126" transform="translate(329.97 -192.03) rotate(90)"/>
  <rect width="5.59" height="5.59" x="267.53" y="56.95" fill="#f7941d" transform="translate(330.07 -210.58) rotate(90)"/>
  <rect width="5.59" height="5.59" x="248.88" y="75.41" fill="#bf2126" transform="translate(329.88 -173.47) rotate(90)"/>
  <rect width="5.59" height="5.59" x="248.88" y="66.18" fill="#bf2126" transform="translate(320.65 -182.7) rotate(90)"/>
  <rect width="5.59" height="5.59" x="248.88" y="56.95" fill="#f7941d" transform="translate(311.42 -191.93) rotate(90)"/>
  <rect width="5.59" height="5.59" x="267.53" y="47.72" fill="#f7941d" transform="translate(320.84 -219.81) rotate(90)"/>
  <rect width="5.59" height="5.59" x="239.55" y="75.41" fill="#bf2126" transform="translate(320.55 -164.14) rotate(90)"/>
  <rect width="5.59" height="5.59" x="239.55" y="66.18" fill="#bf2126" transform="translate(311.32 -173.37) rotate(90)"/>
  <rect width="5.59" height="5.59" x="239.55" y="56.95" fill="#f7941d" transform="translate(302.09 -182.6) rotate(90)"/>
  <rect width="5.59" height="5.59" x="239.55" y="47.72" fill="#f7941d" transform="translate(292.86 -191.83) rotate(90)"/>
  <rect width="5.59" height="5.59" x="220.89" y="75.41" fill="#bf2126" transform="translate(301.89 -145.49) rotate(90)"/>
  <rect width="5.59" height="5.59" x="220.89" y="66.18" fill="#bf2126" transform="translate(292.67 -154.72) rotate(90)"/>
  <rect width="5.59" height="5.59" x="220.89" y="56.95" fill="#f7941d" transform="translate(283.44 -163.95) rotate(90)"/>
  <rect width="5.59" height="5.59" x="220.89" y="47.72" fill="#f7941d" transform="translate(274.21 -173.18) rotate(90)"/>
  <rect width="5.59" height="5.59" x="267.53" y="38.49" fill="#f8d5b9" transform="translate(311.62 -229.04) rotate(90)"/>
  <rect width="5.59" height="5.59" x="230.22" y="75.41" fill="#bf2126" transform="translate(311.22 -154.82) rotate(90)"/>
  <rect width="5.59" height="5.59" x="230.22" y="66.18" fill="#bf2126" transform="translate(301.99 -164.05) rotate(90)"/>
  <rect width="5.59" height="5.59" x="230.22" y="56.95" fill="#f7941d" transform="translate(292.76 -173.27) rotate(90)"/>
  <rect width="5.59" height="5.59" x="230.22" y="47.72" fill="#f7941d" transform="translate(283.53 -182.5) rotate(90)"/>
  <rect width="5.59" height="5.59" x="230.22" y="38.49" fill="#f8d5b9" transform="translate(274.31 -191.73) rotate(90)"/>
  <rect width="5.59" height="5.59" x="211.57" y="75.41" fill="#bf2126" transform="translate(292.57 -136.16) rotate(90)"/>
  <rect width="5.59" height="5.59" x="211.57" y="66.18" fill="#bf2126" transform="translate(283.34 -145.39) rotate(90)"/>
  <rect width="5.59" height="5.59" x="211.57" y="56.95" fill="#f7941d" transform="translate(274.11 -154.62) rotate(90)"/>
  <rect width="5.59" height="5.59" x="211.57" y="47.72" fill="#f7941d" transform="translate(264.88 -163.85) rotate(90)"/>
  <rect width="5.59" height="5.59" x="211.57" y="38.49" fill="#f8d5b9" transform="translate(255.65 -173.08) rotate(90)"/>
  <rect width="5.59" height="5.59" x="314.17" y="29.26" fill="#a9dde9" transform="translate(349.02 -284.91) rotate(90)"/>
  <rect width="5.59" height="5.59" x="202.24" y="75.41" fill="#bf2126" transform="translate(283.24 -126.83) rotate(90)"/>
  <rect width="5.59" height="5.59" x="202.24" y="66.18" fill="#bf2126" transform="translate(274.01 -136.06) rotate(90)"/>
  <rect width="5.59" height="5.59" x="202.24" y="56.95" fill="#f7941d" transform="translate(264.78 -145.29) rotate(90)"/>
  <rect width="5.59" height="5.59" x="202.24" y="47.72" fill="#f7941d" transform="translate(255.55 -154.52) rotate(90)"/>
  <rect width="5.59" height="5.59" x="192.91" y="75.41" fill="#bf2126" transform="translate(273.91 -117.51) rotate(90)"/>
  <rect width="5.59" height="5.59" x="192.91" y="66.18" fill="#bf2126" transform="translate(264.68 -126.74) rotate(90)"/>
  <rect width="5.59" height="5.59" x="166.34" y="75.41" fill="#bf2126" transform="translate(247.33 -90.93) rotate(90)"/>
  <rect width="5.59" height="5.59" x="166.34" y="66.18" fill="#bf2126" transform="translate(238.11 -100.16) rotate(90)"/>
  <rect width="5.59" height="5.59" x="166.34" y="56.95" fill="#f7941d" transform="translate(228.88 -109.39) rotate(90)"/>
  <rect width="5.59" height="5.59" x="166.34" y="47.72" fill="#f7941d" transform="translate(219.65 -118.62) rotate(90)"/>
  <rect width="5.59" height="5.59" x="166.34" y="38.49" fill="#f8d5b9" transform="translate(210.42 -127.85) rotate(90)"/>
  <rect width="5.59" height="5.59" x="157.01" y="75.41" fill="#bf2126" transform="translate(238.01 -81.6) rotate(90)"/>
  <rect width="5.59" height="5.59" x="157.01" y="66.18" fill="#bf2126" transform="translate(228.78 -90.83) rotate(90)"/>
  <rect width="5.59" height="5.59" x="157.01" y="56.95" fill="#f7941d" transform="translate(219.55 -100.06) rotate(90)"/>
  <rect width="5.59" height="5.59" x="147.68" y="75.41" fill="#bf2126" transform="translate(228.68 -72.28) rotate(90)"/>
  <rect width="5.59" height="5.59" x="147.68" y="66.18" fill="#bf2126" transform="translate(219.45 -81.5) rotate(90)"/>
  <rect width="5.59" height="5.59" x="192.91" y="56.95" fill="#f7941d" transform="translate(255.45 -135.96) rotate(90)"/>
  <rect width="5.59" height="5.59" x="183.58" y="75.41" fill="#bf2126" transform="translate(264.58 -108.18) rotate(90)"/>
  <rect width="5.59" height="5.59" x="183.58" y="66.18" fill="#bf2126" transform="translate(255.36 -117.41) rotate(90)"/>
  <rect width="5.59" height="5.59" x="174.96" y="75.41" fill="#bf2126" transform="translate(255.96 -99.55) rotate(90)"/>
  <rect width="5.59" height="5.59" x="174.96" y="66.18" fill="#bf2126" transform="translate(246.73 -108.78) rotate(90)"/>
  <rect width="5.59" height="5.59" x="183.58" y="56.95" fill="#f7941d" transform="translate(246.13 -126.64) rotate(90)"/>
  <rect width="5.59" height="5.59" x="192.91" y="47.72" fill="#f7941d" transform="translate(246.23 -145.19) rotate(90)"/>
  <rect width="5.59" height="5.59" x="202.24" y="38.49" fill="#f8d5b9" transform="translate(246.32 -163.75) rotate(90)"/>
  <rect width="5.59" height="5.59" x="139.06" y="75.41" fill="#bf2126" transform="translate(220.06 -63.65) rotate(90)"/>
  <rect width="5.59" height="5.59" x="139.06" y="66.18" fill="#bf2126" transform="translate(210.83 -72.88) rotate(90)"/>
  <rect width="5.59" height="5.59" x="139.06" y="56.95" fill="#f7941d" transform="translate(201.6 -82.11) rotate(90)"/>
  <rect width="5.59" height="5.59" x="139.06" y="47.72" fill="#f7941d" transform="translate(192.37 -91.34) rotate(90)"/>
  <rect width="5.59" height="5.59" x="83.56" y="75.41" fill="#bf2126" transform="translate(164.56 -8.16) rotate(90)"/>
  <rect width="5.59" height="5.59" x="83.56" y="66.18" fill="#bf2126" transform="translate(155.33 -17.38) rotate(90)"/>
  <rect width="5.59" height="5.59" x="74.94" y="75.41" fill="#bf2126" transform="translate(155.94 .47) rotate(90)"/>
  <rect width="5.59" height="5.59" x="74.94" y="66.18" fill="#bf2126" transform="translate(146.71 -8.76) rotate(90)"/>
  <rect width="5.59" height="5.59" x="74.94" y="56.95" fill="#f7941d" transform="translate(137.48 -17.99) rotate(90)"/>
  <rect width="5.59" height="5.59" x="74.94" y="47.72" fill="#f7941d" transform="translate(128.25 -27.22) rotate(90)"/>
  <rect width="5.59" height="5.59" x="129.73" y="75.41" fill="#bf2126" transform="translate(210.73 -54.32) rotate(90)"/>
  <rect width="5.59" height="5.59" x="129.73" y="66.18" fill="#bf2126" transform="translate(201.5 -63.55) rotate(90)"/>
  <rect width="5.59" height="5.59" x="129.73" y="56.95" fill="#f7941d" transform="translate(192.27 -72.78) rotate(90)"/>
  <rect width="5.59" height="5.59" x="129.73" y="47.72" fill="#f7941d" transform="translate(183.04 -82.01) rotate(90)"/>
  <rect width="5.59" height="5.59" x="129.73" y="38.49" fill="#f8d5b9" transform="translate(173.81 -91.24) rotate(90)"/>
  <rect width="5.59" height="5.59" x="202.24" y="29.26" fill="#a9dde9" transform="translate(237.1 -172.98) rotate(90)"/>
  <rect width="5.59" height="5.59" x="120.56" y="75.41" fill="#bf2126" transform="translate(201.56 -45.15) rotate(90)"/>
  <rect width="5.59" height="5.59" x="111.38" y="75.41" fill="#bf2126" transform="translate(192.38 -35.98) rotate(90)"/>
  <rect width="5.59" height="5.59" x="111.38" y="66.18" fill="#bf2126" transform="translate(183.16 -45.21) rotate(90)"/>
  <rect width="5.59" height="5.59" x="111.38" y="56.95" fill="#f7941d" transform="translate(173.93 -54.44) rotate(90)"/>
  <rect width="5.59" height="5.59" x="111.38" y="47.72" fill="#f7941d" transform="translate(164.7 -63.67) rotate(90)"/>
  <rect width="5.59" height="5.59" x="102.06" y="75.41" fill="#bf2126" transform="translate(183.06 -26.65) rotate(90)"/>
  <rect width="5.59" height="5.59" x="102.06" y="66.18" fill="#bf2126" transform="translate(173.83 -35.88) rotate(90)"/>
  <rect width="5.59" height="5.59" x="102.06" y="56.95" fill="#f7941d" transform="translate(164.6 -45.11) rotate(90)"/>
  <rect width="5.59" height="5.59" x="93.43" y="75.41" fill="#bf2126" transform="translate(174.43 -18.03) rotate(90)"/>
  <rect width="5.59" height="5.59" x="120.56" y="66.18" fill="#bf2126" transform="translate(192.33 -54.38) rotate(90)"/>
  <rect width="5.59" height="5.59" x="120.56" y="56.95" fill="#f7941d" transform="translate(183.1 -63.61) rotate(90)"/>
  <rect width="5.59" height="5.59" x="120.56" y="47.72" fill="#f7941d" transform="translate(173.87 -72.84) rotate(90)"/>
  <rect width="5.59" height="5.59" x="120.56" y="38.49" fill="#f8d5b9" transform="translate(164.64 -82.07) rotate(90)"/>
  <rect width="5.59" height="5.59" x="120.56" y="29.26" fill="#a9dde9" transform="translate(155.41 -91.3) rotate(90)"/>
  <rect width="5.59" height="5.59" x="65.14" y="75.41" fill="#bf2126" transform="translate(146.14 10.27) rotate(90)"/>
  <rect width="5.59" height="5.59" x="55.96" y="75.41" fill="#bf2126" transform="translate(136.96 19.44) rotate(90)"/>
  <rect width="5.59" height="5.59" x="55.96" y="66.18" fill="#bf2126" transform="translate(127.74 10.21) rotate(90)"/>
  <rect width="5.59" height="5.59" x="55.96" y="56.95" fill="#f7941d" transform="translate(118.51 .98) rotate(90)"/>
  <rect width="5.59" height="5.59" x="55.96" y="47.72" fill="#f7941d" transform="translate(109.28 -8.24) rotate(90)"/>
  <rect width="5.59" height="5.59" x="46.64" y="75.41" fill="#bf2126" transform="translate(127.64 28.77) rotate(90)"/>
  <rect width="5.59" height="5.59" x="46.64" y="66.18" fill="#bf2126" transform="translate(118.41 19.54) rotate(90)"/>
  <rect width="5.59" height="5.59" x="65.14" y="66.18" fill="#bf2126" transform="translate(136.91 1.04) rotate(90)"/>
  <rect width="5.59" height="5.59" x="65.14" y="56.95" fill="#f7941d" transform="translate(127.68 -8.19) rotate(90)"/>
  <rect width="5.59" height="5.59" x="65.14" y="47.72" fill="#f7941d" transform="translate(118.45 -17.42) rotate(90)"/>
  <rect width="5.59" height="5.59" x="65.14" y="38.49" fill="#f8d5b9" transform="translate(109.22 -26.65) rotate(90)"/>
  <rect width="5.59" height="5.59" x="37.31" y="75.41" fill="#bf2126" transform="translate(118.31 38.1) rotate(90)"/>
  <rect width="5.59" height="5.59" x="37.31" y="66.18" fill="#bf2126" transform="translate(109.08 28.87) rotate(90)"/>
  <rect width="5.59" height="5.59" x="37.31" y="56.95" fill="#f7941d" transform="translate(99.85 19.64) rotate(90)"/>
  <rect width="5.59" height="5.59" x="37.31" y="47.72" fill="#f7941d" transform="translate(90.62 10.41) rotate(90)"/>
  <rect width="5.59" height="5.59" x="37.31" y="38.49" fill="#f8d5b9" transform="translate(81.39 1.18) rotate(90)"/>
  <rect width="5.59" height="5.59" x="65.14" y="29.26" fill="#a9dde9" transform="translate(99.99 -35.87) rotate(90)"/>
  <rect width="5.59" height="5.59" x="27.98" y="75.41" fill="#bf2126" transform="translate(108.98 47.42) rotate(90)"/>
  <rect width="5.59" height="5.59" x="27.98" y="66.18" fill="#bf2126" transform="translate(99.75 38.19) rotate(90)"/>
  <rect width="5.59" height="5.59" x="27.98" y="56.95" fill="#f7941d" transform="translate(90.52 28.97) rotate(90)"/>
  <rect width="5.59" height="5.59" x="27.98" y="47.72" fill="#f7941d" transform="translate(81.3 19.74) rotate(90)"/>
  <rect width="5.59" height="5.59" x="27.98" y="38.49" fill="#f8d5b9" transform="translate(72.07 10.51) rotate(90)"/>
  <rect width="5.59" height="5.59" x="27.98" y="29.26" fill="#a9dde9" transform="translate(62.84 1.28) rotate(90)"/>
  <rect width="5.59" height="5.59" x="18.65" y="75.41" fill="#bf2126" transform="translate(99.65 56.75) rotate(90)"/>
  <rect width="5.59" height="5.59" x="18.65" y="66.18" fill="#bf2126" transform="translate(90.43 47.52) rotate(90)"/>
  <rect width="5.59" height="5.59" x="18.65" y="56.95" fill="#f7941d" transform="translate(81.2 38.29) rotate(90)"/>
  <rect width="5.59" height="5.59" x="18.65" y="47.72" fill="#f7941d" transform="translate(71.97 29.06) rotate(90)"/>
  <rect width="5.59" height="5.59" x="9.33" y="75.41" fill="#bf2126" transform="translate(90.33 66.08) rotate(90)"/>
  <rect width="5.59" height="5.59" x="9.33" y="66.18" fill="#bf2126" transform="translate(81.1 56.85) rotate(90)"/>
  <rect width="5.59" height="5.59" y="75.41" fill="#bf2126" transform="translate(81 75.41) rotate(90)"/>
  <rect width="5.59" height="5.59" y="66.18" fill="#bf2126" transform="translate(71.77 66.18) rotate(90)"/>
  <rect width="5.59" height="5.59" x="9.33" y="56.95" fill="#f7941d" transform="translate(71.87 47.62) rotate(90)"/>
  <rect width="5.59" height="5.59" x="9.33" y="47.72" fill="#f7941d" transform="translate(62.64 38.39) rotate(90)"/>
  <rect width="5.59" height="5.59" x="18.65" y="38.49" fill="#f8d5b9" transform="translate(62.74 19.84) rotate(90)"/>
  <rect width="5.59" height="5.59" x="18.65" y="29.26" fill="#a9dde9" transform="translate(53.51 10.61) rotate(90)"/>
  <rect width="5.59" height="5.59" x="407.44" y="75.41" fill="#bf2126" transform="translate(488.44 -332.04) rotate(90)"/>
  <rect width="5.59" height="5.59" x="407.44" y="66.18" fill="#bf2126" transform="translate(479.21 -341.26) rotate(90)"/>
  <rect width="5.59" height="5.59" x="416.77" y="75.41" fill="#bf2126" transform="translate(497.77 -341.36) rotate(90)"/>
  <rect width="5.59" height="5.59" x="426.1" y="75.41" fill="#bf2126" transform="translate(507.09 -350.69) rotate(90)"/>
  <rect width="5.59" height="5.59" x="416.77" y="66.18" fill="#bf2126" transform="translate(488.54 -350.59) rotate(90)"/>
  <rect width="5.59" height="5.59" x="407.44" y="56.95" fill="#f7941d" transform="translate(469.98 -350.49) rotate(90)"/>
  <rect width="5.59" height="5.59" x="407.44" y="47.72" fill="#f7941d" transform="translate(460.75 -359.72) rotate(90)"/>
</svg>
