<svg xmlns="http://www.w3.org/2000/svg" width="165" height="43" viewBox="0 0 165 43">
  <path fill="#fcd205" d="M0 4.28s54.88 0 61.36-.22 30.12-.78 30.12-.78l-.14 1.06 24.85-1.02-.04 1.08s19.61-.7 23.04-.7c2.83 0 9.46.27 10.65 1.12 2.32.21 5.91.44 7.93.89.37.85 1.8 1.01 2.96 1.55.95.84 1.04 1.29 1.31 3 1 .48 1.11 2.31 2.1 3.11.33.56 1.04 1.3.79 2.42-.15.64.1 1.12-.15 2.17-.67.91-.89 1.84-1.7 2.07-.51 2.2-.47 8.4-2.72 8.15-.26.99-.25 2.63.37 3.43.15 1.13.16 3.95.31 4.55q.3 1.79-.03 3.56l-116.58-.25c-3.3-.8-41.69-.1-41.69-.1s.84-1.99.18-4.09c.9-2.05-.05-5.71-.05-5.71s1.08-2.29-.78-3.37c.6-2.29.9-4.08.42-5.95s-.78-4.62-.78-4.62l.78-.73s.36-3.24-.6-4.27C1.85 8.23.35 7.09.35 7.09L.04 4.27Z"/>
  <g>
    <path d="M81.72 25.14q0 1.68-1.21 2.65t-3.37.97q-1.99 0-3.51-.75v-2.44q1.26.56 2.13.79t1.59.23q.87 0 1.33-.33c.46-.33.46-.55.46-.98q0-.36-.2-.65-.21-.28-.6-.55c-.39-.27-.8-.46-1.61-.84q-1.14-.54-1.71-1.03c-.57-.49-.68-.71-.91-1.15s-.34-.95-.34-1.53q0-1.65 1.12-2.59a4.6 4.6 0 0 1 3.09-.94q.97 0 1.85.23t1.84.65l-.85 2.05q-1-.4-1.64-.57c-.64-.17-.86-.16-1.28-.16q-.75 0-1.15.35c-.4.35-.4.53-.4.91q0 .34.16.61t.51.5c.35.24.79.45 1.67.87a6.6 6.6 0 0 1 2.39 1.67q.65.84.65 2.05v-.02Z"/>
    <path d="M93.41 20.05q0 2.01-1.25 3.06t-3.56 1.06h-1.13v4.41h-2.63v-12.4h3.96q2.26 0 3.43.97t1.18 2.9m-5.94 1.97h.87q1.22 0 1.82-.48t.6-1.4c0-.92-.17-1.07-.5-1.37q-.5-.44-1.58-.44h-1.2v3.68h-.01Z"/>
    <path d="M96.63 28.59V16.18h2.63v12.41z"/>
    <path d="M114.26 28.59h-3.34l-5.4-9.39h-.08q.16 2.49.16 3.55v5.84h-2.35V16.18h3.32l5.39 9.3h.06a85 85 0 0 1-.13-3.42v-5.88h2.37z"/>
  </g>
  <path d="M57.39 10.89v5.36l.45-.02c1.32 0 2.53.72 3.14 1.89a3.6 3.6 0 0 1 3.97 1.69l.46-.02a3.56 3.56 0 0 1 3.56 3.56v5.79a6.65 6.65 0 0 1-6.62 6.67h-7.03a8.4 8.4 0 0 1-4.26-1.15l-.14-.08a8.4 8.4 0 0 1-4.19-7.3v-.57a5 5 0 0 1 1.6-3.62l1.13-1.03q.4-.36.83-.66V10.9a3.57 3.57 0 0 1 7.12 0h-.02Zm-4.45 11.13v4.45a.9.9 0 0 1-1.78 0v-2.36l-1.06.96a2.3 2.3 0 0 0-.72 1.65v.57a5.8 5.8 0 0 0 2.87 5.01l.14.08-.65 1.12.65-1.12q1.35.8 2.92.79h6.98c2.21-.01 4-1.8 4.01-4.01v-5.79a.9.9 0 0 0-.89-.89q-.29.03-.53.18a1.32 1.32 0 0 1-2.13-1.07.9.9 0 0 0-.87-.89h-.02a.9.9 0 0 0-.71.36c-.45.59-1.29.7-1.88.26a1.4 1.4 0 0 1-.53-1.06v-.45a.9.9 0 0 0-.89-.89.9.9 0 0 0-.71.36c-.45.59-1.29.7-1.88.26a1.4 1.4 0 0 1-.53-1.06v-7.57a.9.9 0 0 0-1.78 0v11.13Z"/>
</svg>
