<svg xmlns="http://www.w3.org/2000/svg" width="150" height="34" viewBox="0 0 150 33.13">
  <path fill="#fcd205" d="M0 .91s49.9 0 55.79-.2S83.18 0 83.18 0l-.13.96 22.59-.93-.04.98s17.83-.64 20.95-.64c2.57 0 8.6.25 9.68 1.02 2.11.19 5.37.4 7.21.81.34.77 1.64.92 2.69 1.41.86.76.95 1.17 1.19 2.73.91.44 1.01 2.1 1.91 2.83.3.51.95 1.18.72 2.2-.14.58.09 1.02-.14 1.97-.61.83-.81 1.67-1.55 1.88-.46 2-.43 7.64-2.47 7.41-.24.9-.23 2.39.34 3.12.14 1.03.15 3.59.28 4.14a9 9 0 0 1-.03 3.24l-106-.23c-3-.73-37.91-.09-37.91-.09s.76-1.81.16-3.72c.82-1.86-.05-5.19-.05-5.19s.98-2.08-.71-3.06c.55-2.08.82-3.71.38-5.41s-.71-4.2-.71-4.2l.71-.66s.33-2.95-.55-3.88C1.65 4.51.28 3.47.28 3.47z"/>
</svg>
