<svg xmlns="http://www.w3.org/2000/svg" width="249" height="51" viewBox="0 0 249.05 50.98">
  <path fill="#231f20" d="m248.77 14.38-.03-.04-.01-.03q0-.03-.03-.04v-.02q0-.03-.03-.04v-.02q0-.03-.03-.04v-.02q0-.03-.03-.04v-.02q0-.03-.03-.04v-.02q0-.03-.03-.04v-.02q0-.03-.03-.04v-.02q0-.03-.03-.04v-.02q0-.03-.03-.04v-.02q0-.03-.03-.04v-.02q0-.03-.03-.04v-.02q0-.03-.03-.04v-.02q0-.03-.03-.04v-.02q0-.03-.03-.04v-.02q0-.03-.03-.04v-.02q0-.03-.03-.04v-.02q0-.03-.03-.04v-.02q0-.03-.03-.04v-.02q0-.03-.03-.04v-.02q0-.03-.03-.04v-.02q0-.03-.03-.04v-.02q0-.03-.03-.04v-.02q0-.03-.03-.04v-.02q0-.03-.03-.04v-.02q0-.03-.03-.04v-.02q0-.03-.03-.04v-.02q0-.03-.03-.04v-.02q0-.03-.03-.04v-.02q0-.03-.03-.04v-.02q0-.03-.03-.04v-.02q0-.03-.03-.04v-.02q0-.03-.03-.04v-.02q0-.03-.03-.04v-.02q0-.03-.03-.04v-.02q0-.03-.03-.04v-.02q0-.03-.03-.04v-.02q0-.03-.03-.04v-.02q0-.03-.03-.04v-.02q0-.03-.03-.04v-.02q0-.03-.03-.04v-.02q0-.03-.03-.04v-.02q0-.03-.03-.04v-.02q0-.03-.03-.04v-.02q0-.03-.03-.04v-.02q0-.03-.03-.04v-.02q0-.03-.03-.04v-.02q0-.03-.03-.04v-.02q0-.03-.03-.04v-.02q0-.03-.03-.04v-.02q0-.03-.03-.04v-.02q0-.03-.03-.04v-.02q0-.03-.03-.04v-.02q0-.03-.03-.04v-.02q0-.03-.03-.04v-.02q0-.03-.03-.04v-.02q0-.03-.03-.04v-.02q0-.03-.03-.04v-.02q0-.03-.03-.04v-.02q0-.03-.03-.04v-.02q0-.03-.03-.04v-.02q0-.03-.03-.04v-.02q0-.03-.03-.04v-.02q0-.03-.03-.04v-.02q0-.03-.03-.04v-.02q0-.03-.03-.04v-.02q0-.03-.03-.04v-.02q0-.03-.03-.04v-.02q0-.03-.03-.04v-.02q0-.03-.03-.04v-.02q0-.03-.03-.04v-.02q0-.03-.03-.04v-.02q0-.03-.03-.04v-.02q0-.03-.03-.04v-.02q0-.03-.03-.04v-.02q0-.03-.03-.04v-.02q0-.03-.03-.04v-.02q0-.03-.03-.04v-.02q0-.03-.03-.04v-.02q0-.03-.03-.04v-.02q0-.03-.03-.04v-.02q0-.03-.03-.04v-.02q0-.03-.03-.04v-.02q0-.03-.03-.04v-.02q0-.03-.03-.04v-.02q0-.03-.03-.04v-.02q0-.03-.03-.04v-.02q0-.03-.03-.04v-.02q0-.03-.03-.04v-.02q0-.03-.03-.04v-.02q0-.03-.03-.04v-.02q0-.03-.03-.04v-.02q0-.03-.03-.04v-.02q0-.03-.03-.04v-.02q0-.03-.03-.04v-.02q0-.03-.03-.04v-.02q0-.03-.03-.04v-.02q0-.03-.03-.04v-.02q0-.03-.03-.04v-.02q0-.03-.03-.04v-.02q0-.03-.03-.04v-.02a2.5 2.5 0 0 0-1.57-1.22 3 3 0 0 0-.86-.11h-3.91c-1.24 0-2.33.58-3 1.6l-2.7 3.92-.02-.03-.04-.07-.04-.07-.04-.07-.04-.07-.04-.07-.04-.07-.04-.07-.04-.07-.04-.07-.04-.07-.04-.07-.04-.07-.04-.07-.04-.07-.04-.07-.04-.07-.04-.07-.04-.07-.04-.07-.04-.07-.04-.07-.04-.07-.04-.07-.04-.07-.04-.07-.04-.07-.04-.07-.04-.07-.04-.07-.04-.07-.04-.07-.04-.07-.04-.07-.04-.07-.04-.07-.04-.07-.04-.07-.04-.07-.04-.07-.04-.07-.04-.07-.04-.07-.04-.07-.04-.07-.04-.07-.04-.07-.04-.07-.04-.07-.04-.07-.04-.07-.04-.07-.04-.07-.04-.07-.04-.07-.04-.07-.04-.07-.04-.07-.04-.07-.04-.07-.04-.07-.04-.07-.04-.07a2.7 2.7 0 0 0-1.62-1.21 4 4 0 0 0-.87-.11h-3.93q-1.33 0-2.28.86-.57.57-.79 1.31l-.04-.06a5.5 5.5 0 0 0-2.95-1.83 10 10 0 0 0-2.58-.31h-9.88a3 3 0 0 0-2.65 1.42v-.01l-.04-.07-.04-.07a2.4 2.4 0 0 0-1.54-1.19q-.38-.1-.8-.1l-14.46-.02c-1.14 0-2.11.55-2.66 1.45l-.02-.03-.04-.07-.04-.07a2.4 2.4 0 0 0-1.54-1.2q-.38-.1-.8-.1h-4.09c-1.46 0-2.64.88-3.01 2.26l-.51 1.91-.04-.06-.04-.07-.04-.07-.04-.07-.04-.07-.04-.07-.04-.07-.04-.07-.04-.07-.04-.07-.04-.07-.04-.07-.04-.07-.04-.07-.04-.07-.04-.07-.04-.07-.04-.07-.04-.07-.04-.07-.04-.07-.04-.07-.04-.07-.04-.07-.04-.07-.04-.07-.04-.07-.04-.07-.04-.07-.04-.07-.04-.07-.04-.07-.04-.07-.04-.07-.04-.07-.04-.07-.04-.07-.04-.07-.04-.07-.04-.07-.04-.07-.04-.07-.04-.07a2.5 2.5 0 0 0-1.55-1.17q-.38-.1-.8-.1h-3.9c-1.46 0-2.64.88-3.01 2.26l-1.62 6.02-.06-.11-.04-.07-.04-.07-.04-.07-.04-.07-.04-.07-.04-.07-.04-.07-.04-.07-.04-.07-.04-.07-.04-.07-.04-.07-.04-.07-.04-.07-.04-.07-.04-.07-.04-.07-.04-.07-.04-.07-.04-.07-.04-.07-.04-.07-.04-.07-.04-.07-.04-.07-.04-.07-.04-.07-.04-.07-.04-.07-.04-.07-.04-.07-.04-.07-.04-.07-.04-.07-.04-.07-.04-.07-.04-.07-.04-.07-.04-.07-.04-.07-.04-.07-.04-.07-.04-.07-.04-.07-.04-.07-.04-.07-.04-.07-.04-.07-.04-.07-.04-.07-.04-.07-.04-.07-.04-.07-.04-.07-.04-.07-.04-.07-.04-.07-.04-.07-.04-.07-.04-.07-.04-.07-.04-.07-.04-.07-.04-.07-.04-.07-.04-.07-.04-.07-.04-.07-.04-.07-.04-.07-.04-.07-.04-.07-.04-.07-.04-.07-.04-.07-.04-.07-.04-.07-.04-.07-.04-.07-.04-.07-.04-.07-.04-.07-.04-.07-.04-.07-.04-.07-.04-.07-.04-.07-.04-.07-.04-.07-.04-.07-.04-.07-.04-.07-.04-.07-.04-.07-.04-.07-.04-.07-.04-.07-.04-.07-.04-.07-.04-.07a2.5 2.5 0 0 0-1.61-1.32 3 3 0 0 0-.79-.1h-5.45c-1.24 0-2.32.66-2.87 1.77l-2.89 5.77-.01-.02-.04-.07-.04-.07-.04-.07-.04-.07-.04-.07-.04-.07-.04-.07-.04-.07-.04-.07-.04-.07-.04-.07-.04-.07-.04-.07-.04-.07-.04-.07-.04-.07-.04-.07-.04-.07-.04-.07-.04-.07-.04-.07-.04-.07-.04-.07-.04-.07-.04-.07-.04-.07-.04-.07-.04-.07-.04-.07-.04-.07-.04-.07-.04-.07-.04-.07-.04-.07-.04-.07-.04-.07-.04-.07-.04-.07-.04-.07-.04-.07-.04-.07-.04-.07-.04-.07-.04-.07-.04-.07-.04-.07-.04-.07-.04-.07-.04-.07-.04-.07-.04-.07-.04-.07-.04-.07-.04-.07-.04-.07-.04-.07-.04-.07-.04-.07-.04-.07-.04-.07-.04-.07-.04-.07-.04-.07-.04-.07-.04-.07-.04-.07-.04-.07-.04-.07-.04-.07-.04-.07-.04-.07a5.46 5.46 0 0 0-3.36-2.44q-1.14-.3-2.58-.31h-9.44a3 3 0 0 0-1.54.37 3 3 0 0 0-1.52 1.91l-3.66 13.58-.01-.02-.04-.07-.04-.07-.04-.07-.04-.07-.04-.07-.04-.07-.04-.07-.04-.07-.04-.07-.04-.07-.04-.07-.04-.07-.04-.07-.04-.07-.04-.07-.04-.07-.04-.07-.04-.07-.04-.07-.04-.07-.04-.07-.04-.07-.04-.07-.04-.07-.04-.07-.04-.07-.04-.07-.04-.07-.04-.07-.04-.07-.04-.07-.04-.07-.04-.07-.04-.07a2.5 2.5 0 0 0-1.17-1.1q0-.03-.03-.05l-.04-.07-.04-.07-.04-.07-.04-.07-.04-.07-.04-.07-.04-.07-.04-.07-.04-.07-.04-.07-.04-.07-.04-.07-.04-.07-.04-.07-.04-.07-.04-.07-.04-.07q-.26-.45-.68-.76 0-.07.03-.14l.21-1.12q.78-.69 1.47-1.35.68-.65 1.34-1.23c.32-.27.56-.56.72-.76a2.3 2.3 0 0 0 .17-2.65l-.04-.07-.04-.07-.04-.07-.04-.07-.04-.07-.04-.07-.04-.07-.04-.07-.04-.07-.04-.07-.04-.07-.04-.07-.04-.07-.04-.07-.04-.07-.04-.07-.04-.07-.04-.07-.04-.07-.04-.07-.04-.07-.04-.07-.04-.07-.04-.07-.04-.07-.04-.07-.04-.07-.04-.07-.04-.07-.04-.07-.04-.07-.04-.07-.04-.07-.04-.07-.04-.07-.04-.07-.04-.07-.04-.07-.04-.07-.04-.07-.04-.07-.04-.07-.04-.07-.04-.07-.04-.07-.04-.07-.04-.07-.04-.07-.04-.07-.04-.07-.04-.07-.04-.07-.04-.07-.04-.07-.04-.07-.04-.07-.04-.07-.04-.07-.04-.07-.04-.07-.04-.07-.04-.07-.04-.07-.04-.07-.04-.07-.04-.07-.04-.07-.04-.07-.04-.07-.04-.07-.04-.07-.04-.07-.04-.07-.04-.07-.04-.07-.04-.07-.04-.07-.04-.07-.04-.07-.04-.07-.04-.07-.04-.07-.04-.07-.04-.07-.04-.07-.04-.07-.04-.07-.04-.07-.04-.07-.04-.07-.04-.07-.04-.07-.04-.07-.04-.07-.04-.07-.04-.07-.04-.07-.04-.07-.04-.07-.04-.07a2 2 0 0 0-.27-.37 11 11 0 0 0-2.64-1.96l-.41-.15a2.5 2.5 0 0 0-2.27.52l-1.56 1.25c-.66.53-1.66 1.25-2.62 1.95-.92.67-1.88 1.36-2.59 1.92q-.67.48-1.27 1l-.52.41a9.5 9.5 0 0 0-3.06 3.92c-.09.22-.36 1.08-.69 2.16l-.03-.05-.04-.07-.04-.07-.04-.07-.04-.07-.04-.07-.04-.07-.04-.07-.04-.07-.04-.07-.04-.07-.04-.07-.04-.07-.04-.07-.04-.07-.04-.07-.04-.07-.04-.07-.04-.07-.04-.07-.04-.07-.04-.07-.04-.07-.04-.07-.04-.07-.04-.07-.04-.07-.04-.07-.04-.07-.04-.07-.04-.07-.04-.07-.04-.07-.04-.07-.04-.07-.04-.07-.04-.07-.04-.07-.04-.07-.04-.07-.04-.07-.04-.07-.04-.07-.04-.07-.04-.07-.04-.07-.04-.07-.04-.07-.04-.07-.04-.07-.04-.07-.04-.07-.04-.07-.04-.07-.04-.07-.04-.07-.04-.07-.04-.07-.04-.07-.04-.07-.04-.07a5.46 5.46 0 0 0-3.36-2.44q-1.14-.3-2.58-.31h-9.44a3 3 0 0 0-3.01 2.25l-.02.07-.03-.04-.04-.07-.04-.07-.04-.07-.04-.07-.04-.07-.04-.07-.04-.07-.04-.07-.04-.07-.04-.07-.04-.07-.04-.07-.04-.07-.04-.07a2.5 2.5 0 0 0-1.59-1.25 3 3 0 0 0-.86-.11h-5.19c-1.3 0-2.45.69-3.09 1.9l-2.13 4.2-.04-.07-.04-.07-.04-.07-.04-.07-.04-.07-.04-.07-.04-.07-.04-.07-.04-.07-.04-.07-.04-.07-.04-.07-.04-.07-.04-.07-.04-.07-.04-.07-.04-.07-.04-.07-.04-.07-.04-.07-.04-.07-.04-.07-.04-.07-.04-.07-.04-.07-.04-.07-.04-.07-.04-.07-.04-.07-.04-.07-.04-.07-.04-.07-.04-.07-.04-.07-.04-.07-.04-.07-.04-.07-.04-.07-.04-.07-.04-.07-.04-.07-.04-.07-.04-.07-.04-.07-.04-.07-.04-.07-.04-.07-.04-.07-.04-.07-.04-.07-.04-.07-.04-.07-.04-.07-.04-.07-.04-.07-.04-.07-.04-.07-.04-.07-.04-.07-.04-.07-.04-.07-.04-.07-.04-.07-.04-.07-.04-.07-.04-.07-.04-.07-.04-.07-.04-.07a2.6 2.6 0 0 0-1.67-1.34 3 3 0 0 0-.84-.11h-5.19c-1.49 0-2.7.88-3.15 2.25q0-.03-.03-.04l-.04-.07-.04-.07-.04-.07-.04-.07-.04-.07-.04-.07-.04-.07-.04-.07-.04-.07-.04-.07a2.68 2.68 0 0 0-2.49-1.55h-3.63q-1.09 0-1.99.67a3.2 3.2 0 0 0-1.22 1.75l-.17.64-.02-.04-.04-.07-.04-.07-.04-.07-.04-.07-.04-.07-.04-.07-.04-.07-.04-.07-.04-.07-.04-.07-.04-.07-.04-.07-.04-.07-.04-.07-.04-.07-.04-.07-.04-.07-.04-.07-.04-.07-.04-.07-.04-.07-.04-.07a2.68 2.68 0 0 0-2.49-1.55H31.9q-1.08 0-1.99.67A3.2 3.2 0 0 0 28.69 8l-.45 1.65-.04-.06-.04-.07-.04-.07-.04-.07-.04-.07-.04-.07-.04-.07-.04-.07-.04-.07-.04-.07-.04-.07-.04-.07-.04-.07-.04-.07-.04-.07-.04-.07-.04-.07-.04-.07-.04-.07-.04-.07a5.46 5.46 0 0 0-3.36-2.44q-1.14-.3-2.58-.31h-9.44a3 3 0 0 0-3.01 2.25L.1 40.89q-.25 1 .16 1.85l.04.07.04.07.04.07.04.07.04.07.04.07.04.07.04.07.04.07.04.07.04.07.04.07.04.07.04.07.04.07.04.07.04.07.04.07.04.07.04.07.04.07.04.07.04.07.04.07.04.07.04.07.04.07.04.07.04.07.04.07.04.07.04.07.04.07.04.07.04.07.04.07.04.07.04.07.04.07.04.07.04.07.04.07.04.07.04.07.04.07.04.07.04.07.04.07.04.07.04.07.04.07.04.07.04.07.04.07.04.07.04.07.04.07.04.07.04.07.04.07.04.07.04.07.04.07.04.07.04.07.04.07.04.07.04.07.04.07.04.07.04.07.04.07.04.07.04.07.04.07.04.07.04.07.04.07.04.07.04.07.04.07.04.07.04.07.04.07.04.07.04.07.04.07.04.07.04.07.04.07.04.07.04.07.04.07.04.07.04.07.04.07.04.07.04.07.04.07.04.07q.12.27.32.52.51.63 1.32.85.37.1.76.1h4.09c1.46 0 2.64-.89 3.02-2.28l3.17-11.77h2.96q1.3 0 2.46-.25.13.3.3.59l.04.07.04.07.04.07.04.07.04.07.04.07.04.07.04.07.04.07.04.07.04.07.04.07.04.07.04.07.04.07.04.07.04.07.04.07.04.07.04.07.04.07.04.07.04.07.04.07.04.07.04.07.04.07.04.07.04.07.04.07.04.07.04.07.04.07.04.07.04.07.04.07.04.07.04.07.04.07.04.07.04.07.04.07.04.07.04.07.04.07.04.07.04.07.04.07.04.07.04.07.04.07.04.07.04.07.04.07.04.07.04.07.04.07.04.07.04.07.04.07.04.07.04.07.04.07.04.07.04.07.04.07.04.07.04.07.04.07.04.07.04.07.04.07.04.07.04.07.04.07.04.07.04.07.04.07.04.07.04.07.04.07.04.07.04.07.04.07.04.07.04.07.04.07.04.07.04.07.04.07.04.07.04.07.04.07.04.07.04.07.04.07.04.07.04.07.04.07.04.07q.18.31.41.61 1.05 1.32 2.95 1.83 1.14.3 2.58.31h4.42q3.54 0 5.96-1.79.81-.6 1.46-1.39l.02.02.04.07.04.07.04.07.04.07.04.07.04.07.04.07.04.07.04.07.04.07.04.07.04.07.04.07.04.07.04.07.04.07.04.07.04.07.04.07.04.07.04.07.04.07.04.07.04.07.04.07.04.07.04.07c.31.6.86 1.05 1.59 1.25q.4.1.86.11h3.63c1.37 0 2.5-.74 3.03-1.93q0 .03.03.05l.04.07.04.07.04.07.04.07.04.07.04.07.04.07c.33.63.91 1.11 1.65 1.31q.4.1.83.11h1.92c1.28 0 2.41-.68 3.06-1.86l.02.03.04.07.04.07.04.07.04.07.04.07.04.07.04.07c.31.6.87 1.06 1.6 1.26q.4.1.85.11h3.64a3.2 3.2 0 0 0 3.16-2.31l.02.04.04.07.04.07.04.07.04.07.04.07.04.07.04.07.04.07.04.07.04.07.04.07.04.07q.12.27.32.52.51.63 1.32.85.36.1.76.1h4.09c1.46 0 2.64-.89 3.02-2.28l2.03-7.54h2.96q2.63 0 4.66-1.01.2.74.57 1.37l.04.07.04.07.04.07.04.07.04.07.04.07.04.07.04.07.04.07.04.07.04.07.04.07.04.07.04.07.04.07.04.07.04.07.04.07.04.07.04.07.04.07.04.07.04.07.04.07.04.07.04.07.04.07.04.07.04.07.04.07.04.07.04.07.04.07.04.07.04.07.04.07.04.07.04.07.04.07.04.07.04.07.04.07.04.07.04.07.04.07.04.07.04.07.04.07.04.07.04.07.04.07.04.07.04.07.04.07.04.07.04.07.04.07.04.07.04.07.04.07.04.07.04.07.04.07.04.07.04.07.04.07.04.07.04.07.04.07.04.07.04.07.04.07.04.07.04.07.04.07.04.07.04.07.04.07.04.07.04.07.04.07.04.07.04.07.04.07.04.07.04.07.04.07.04.07.04.07.04.07.04.07.04.07.04.07.04.07.04.07.04.07.04.07.04.07.04.07.04.07a5 5 0 0 0 3.37 2.42q1.14.3 2.59.31h9.3a3.2 3.2 0 0 0 3.21-2.41l.03-.12.01.02.04.07.04.07.04.07.04.07.04.07.04.07.04.07.04.07.04.07.04.07.04.07.04.07.04.07.04.07.04.07.04.07.04.07.04.07.04.07.04.07.04.07.04.07.04.07.04.07.04.07.04.07.04.07.04.07.04.07.04.07.04.07.04.07.04.07.04.07.04.07.04.07.04.07.04.07.04.07.04.07.04.07.04.07.04.07.04.07.04.07.04.07.04.07.04.07.04.07.04.07.04.07.04.07.04.07.04.07.04.07.04.07.04.07.04.07.04.07.04.07.04.07.04.07.04.07.04.07.04.07.04.07.04.07.04.07.04.07.04.07.04.07.04.07.04.07.04.07q.12.28.32.52.51.63 1.32.85.36.1.76.1h4.09c1.46 0 2.64-.89 3.02-2.28l1.02-3.8q.1-.22.16-.46l2.02-7.51h1.67c-.15.65-.05 1.28.25 1.8l.04.07.04.07.04.07.04.07.04.07.04.07.04.07.04.07.04.07.04.07.04.07.04.07.04.07.04.07.04.07.04.07.04.07.04.07.04.07.04.07.04.07.04.07.04.07.04.07.04.07.04.07.04.07.04.07.04.07.04.07.04.07.04.07.04.07.04.07.04.07.04.07.04.07.04.07.04.07.04.07.04.07.04.07.04.07.04.07.04.07.04.07.04.07.04.07.04.07.04.07.04.07.04.07.04.07.04.07.04.07.04.07.04.07.04.07.04.07.04.07.04.07.04.07.04.07.04.07.04.07.04.07.04.07.04.07.04.07.04.07.04.07.04.07.04.07.04.07.04.07.04.07.04.07.04.07.04.07.04.07.04.07.04.07.04.07.04.07.04.07.04.07.04.07.04.07.04.07.04.07.04.07.04.07.04.07.04.07.04.07.04.07.04.07.04.07.04.07.04.07c.3.54.81.96 1.48 1.15q.38.1.81.1h4.2c1.21 0 2.27-.67 2.84-1.84l1.89-4.02h.76l.03.06.04.07.04.07.04.07.04.07.04.07.04.07.04.07.04.07.04.07.04.07.04.07.04.07.04.07.04.07.04.07.04.07.04.07.04.07.04.07.04.07.04.07.04.07.04.07.04.07.04.07.04.07.04.07.04.07.04.07.04.07.04.07.04.07.04.07.04.07.04.07.04.07.04.07.04.07.04.07.04.07.04.07.04.07.04.07.04.07.04.07.04.07.04.07.04.07.04.07.04.07.04.07.04.07.04.07.04.07.04.07.04.07.04.07.04.07.04.07.04.07.04.07.04.07.04.07.04.07.04.07a2.5 2.5 0 0 0 1.6 1.33q.36.1.75.1h4.18c.91 0 1.7-.34 2.24-.94q.51.63 1.32.85.37.1.76.1h4.09c1.46 0 2.64-.89 3.01-2.28l.52-1.92.04.07.04.07.04.07.04.07.04.07.04.07.04.07.04.07.04.07.04.07.04.07.04.07.04.07.04.07.04.07.04.07.04.07.04.07.04.07.04.07.04.07.04.07.04.07.04.07.04.07.04.07.04.07.04.07.04.07.04.07.04.07.04.07.04.07.04.07.04.07.04.07.04.07.04.07.04.07.04.07.04.07.04.07.04.07a2.5 2.5 0 0 0 1.56 1.19q.37.1.78.1h3.9a3.1 3.1 0 0 0 3.01-2.28l1.39-5.15.03.05.04.07.04.07.04.07.04.07.04.07.04.07.04.07.04.07.04.07.04.07.04.07.04.07.04.07.04.07.04.07.04.07.04.07.04.07.04.07.04.07.04.07.04.07.04.07.04.07.04.07.04.07.04.07.04.07.04.07.04.07.04.07.04.07.04.07.04.07.04.07.04.07.04.07.04.07.04.07.04.07.04.07.04.07.04.07.04.07.04.07.04.07.04.07.04.07.04.07.04.07.04.07.04.07.04.07.04.07.04.07.04.07.04.07.04.07.04.07.04.07.04.07.04.07.04.07.04.07.04.07.04.07.04.07.04.07.04.07.04.07.04.07.04.07.04.07.04.07.04.07.04.07.04.07.04.07.04.07.04.07.04.07.04.07.04.07.04.07.04.07.04.07.04.07.04.07.04.07.04.07c.3.57.84 1.01 1.54 1.2q.38.1.8.1h4.1c1.45 0 2.62-.89 3-2.28l1.39-5.17.03.04.04.07.04.07.04.07.04.07.04.07.04.07.04.07.04.07.04.07.04.07.04.07.04.07.04.07.04.07.04.07.04.07.04.07.04.07.04.07.04.07.04.07.04.07.04.07.04.07.04.07.04.07.04.07.04.07.04.07.04.07.04.07.04.07.04.07.04.07.04.07.04.07.04.07.04.07.04.07.04.07.04.07.04.07.04.07.04.07.04.07.04.07.04.07.04.07.04.07.04.07.04.07.04.07.04.07.04.07.04.07.04.07.04.07.04.07.04.07.04.07.04.07.04.07.04.07.04.07.04.07.04.07.04.07.04.07.04.07.04.07.04.07.04.07.04.07.04.07.04.07.04.07.04.07.04.07.04.07.04.07.04.07.04.07.04.07.04.07.04.07.04.07.04.07.04.07q.12.27.32.52.51.63 1.32.85.37.1.76.1h4.09a3.1 3.1 0 0 0 3.01-2.28l.23-.87.04.06.04.07.04.07.04.07.04.07.04.07.04.07.04.07.04.07.04.07.04.07.04.07.04.07.04.07.04.07.04.07.04.07.04.07.04.07.04.07.04.07.04.07.04.07.04.07.04.07.04.07c.31.63.88 1.1 1.6 1.3q.38.1.78.1h4.1q1.24 0 2.1-.76c.6-.54.93-1.3.94-2.18l-.11-8.18a9 9 0 0 0 2.32-2.06l-.8 2.97a2.8 2.8 0 0 0 .22 2.11l.04.07.04.07.04.07.04.07.04.07.04.07.04.07.04.07.04.07.04.07.04.07.04.07.04.07.04.07.04.07.04.07.04.07.04.07.04.07.04.07.04.07.04.07.04.07.04.07.04.07.04.07.04.07.04.07.04.07.04.07.04.07.04.07.04.07.04.07.04.07.04.07.04.07.04.07.04.07.04.07.04.07.04.07.04.07.04.07.04.07.04.07.04.07.04.07.04.07.04.07.04.07.04.07.04.07.04.07.04.07.04.07.04.07.04.07.04.07.04.07.04.07.04.07.04.07.04.07.04.07.04.07.04.07.04.07.04.07.04.07.04.07.04.07.04.07.04.07.04.07.04.07.04.07.04.07.04.07.04.07.04.07.04.07.04.07.04.07.04.07.04.07.04.07.04.07.04.07.04.07.04.07.04.07.04.07.04.07.04.07.04.07.04.07.04.07.04.07.04.07c.31.6.86 1.05 1.59 1.25q.4.1.86.11h3.78c1.55 0 2.81-.95 3.21-2.42l2.98-11.06 11.39-16.04q.33-.5.46-.99.26-.94-.19-1.83Z"/>
  <path fill="#ffd100" d="M10.61 8.99 1.89 41.37q-.1.4.1.65t.63.25h4.09a1.2 1.2 0 0 0 1.22-.9l3.54-13.15h4.38q2.9 0 4.85-1.44a7.4 7.4 0 0 0 2.66-4.14l2.41-8.93q.73-2.73-.42-4.16-1.16-1.43-4.08-1.44h-9.44c-.61-.01-1.06.32-1.21.88Zm2.33 13.78 2.48-9.2h3.12c.87 0 1.14.35.92 1.16l-1.86 6.89c-.22.81-.68 1.15-1.54 1.15z"/>
  <path fill="#ffd100" d="m30.23 9.17-6.28 23.31q-.74 2.73.42 4.16t4.08 1.44h4.42q2.92 0 4.85-1.42a7.4 7.4 0 0 0 2.66-4.16l6.28-23.31a.8.8 0 0 0-.13-.74.9.9 0 0 0-.71-.31h-3.63q-.47 0-.88.3-.4.31-.53.74l-6 22.29c-.22.81-.68 1.15-1.54 1.15h-2.03c-.87 0-1.14-.35-.92-1.16l6-22.29a.8.8 0 0 0-.13-.74.9.9 0 0 0-.71-.31h-3.78q-.47 0-.88.3-.4.31-.53.74Z"/>
  <path fill="#ffd100" d="m50.46 9.2-7.5 27.86c-.18.67.13 1.05.84 1.05h3.63c.72 0 1.23-.38 1.41-1.04l3.97-14.73-.51 14.88q.01.88.95.91h1.92c.62 0 1.13-.32 1.44-.91l7.5-14.86-3.97 14.73c-.18.67.13 1.05.84 1.05h3.64c.71 0 1.22-.38 1.4-1.04l7.5-27.86c.18-.67-.13-1.05-.84-1.05h-5.19q-.95.01-1.43.88L57.5 25.94l.53-16.88q-.02-.87-.95-.89h-5.19c-.72 0-1.23.38-1.41 1.04Z"/>
  <path fill="#ffd100" d="m77.52 9.07-7.58 28.16q-.1.4.1.65t.63.25h4.09a1.2 1.2 0 0 0 1.22-.9l2.4-8.92h4.38q2.9 0 4.85-1.44a7.4 7.4 0 0 0 2.66-4.14l2.41-8.93q.73-2.73-.42-4.16-1.16-1.43-4.08-1.44h-9.44c-.61-.01-1.06.32-1.21.88Zm2.32 13.78 2.48-9.2h3.12c.87 0 1.14.35.92 1.16L84.5 21.7c-.22.81-.68 1.15-1.54 1.15z"/>
  <path fill="#ffd100" d="m164.07 8.87-7.58 28.16q-.1.4.1.65t.63.25h4.09a1.2 1.2 0 0 0 1.22-.9l3.83-14.22 1.67 14.44q.07.69.82.7h3.9a1.25 1.25 0 0 0 1.22-.9l7.58-28.16c.15-.56-.12-.89-.73-.89h-4.09c-.61 0-1.06.33-1.21.88l-3.84 14.26-1.64-14.48c-.04-.44-.35-.68-.85-.68h-3.9c-.61 0-1.06.33-1.21.88Z"/>
  <path fill="#ffd100" d="M183.03 37.97h4.1c.6 0 1.05-.33 1.2-.9l6.35-23.59h4.21c.61 0 1.06-.33 1.21-.9l.99-3.67c.15-.56-.12-.89-.73-.89L185.9 8c-.61 0-1.06.33-1.21.89l-.99 3.67q-.1.4.1.65.2.26.63.26h4.21l-6.35 23.59c-.15.57.12.91.73.91Z"/>
  <path fill="#ffd100" d="M196.74 37.73q.2.25.63.25h4.09a1.25 1.25 0 0 0 1.22-.9l2.4-8.92h2.11l.12 9.06q-.01.75.8.77h4.1q.53 0 .85-.28a1 1 0 0 0 .32-.77l-.13-9.34q3.16-1.3 4.16-5.02l2.41-8.93q.73-2.72-.42-4.17-1.16-1.43-4.08-1.44h-9.88c-.61-.01-1.06.32-1.21.88l-7.58 28.16q-.1.4.1.65Zm9.81-15.03 2.48-9.2h3.56c.87 0 1.14.35.92 1.16l-1.86 6.89c-.22.81-.68 1.15-1.54 1.15z"/>
  <path fill="#ffd100" d="M222.97 8.4q-.21.21-.29.47a1 1 0 0 0-.02.45l2.78 16.27-3.06 11.38c-.18.67.13 1.05.85 1.05h3.78c.72 0 1.23-.38 1.41-1.04l3.06-11.38 11.54-16.26q.16-.25.22-.45a.6.6 0 0 0-.04-.48q-.18-.34-.79-.34h-3.91c-.61 0-1.13.27-1.45.77l-6.71 9.76-1.44-9.76q-.1-.78-1.01-.79h-3.93q-.61 0-.98.34Z"/>
  <path fill="#ffd100" d="m147.65 8.71-14.12 28.18q-.1.16-.13.31c-.04.17-.13.71.7.71h4.2c.49 0 .91-.27 1.16-.77l2.4-5.09h6.43l-.31 5.11q-.01.75.74.77h4.18c.56 0 .97-.28 1.1-.76l.04-.25 1.07-28.21q.01-.74-.8-.75h-5.45c-.53 0-.97.27-1.21.74Zm-3.37 18.46 5-10.73-.78 10.73z"/>
  <path fill="#ffd100" d="m123.78 9.02-8.72 32.39q-.1.4.1.65t.63.25h4.09a1.2 1.2 0 0 0 1.22-.9l3.54-13.15h4.38q2.9 0 4.85-1.44a7.4 7.4 0 0 0 2.66-4.14l2.41-8.93q.74-2.73-.42-4.16-1.15-1.43-4.08-1.44H125c-.61-.01-1.06.32-1.21.88Zm2.32 13.78 2.48-9.2h3.12c.87 0 1.14.35.92 1.16l-1.86 6.89c-.22.81-.68 1.15-1.54 1.15z"/>
  <path fill="#ffd100" d="M114.43 20.11h-1.29l.31-1.15c.18-.67-.13-1.05-.85-1.05h-3.77c-.72 0-1.24.38-1.41 1.04l-.31 1.15h-3.32q-.63 0-.86-.29t-.08-.83l.58-1.84.04-.13.36-1.19a5.3 5.3 0 0 0 3.07-1.63 4 4 0 0 0 1.16-2.13c.32-1.61.53-2.82.83-4.39.03-.14.07-.21.21-.33 1.16-.97 2.08-1.96 3.13-2.85q.3-.27.47-.5c.13-.16.14-.4.03-.52-.3-.32-1.47-1.27-2.05-1.54q-.36-.17-.73.14l-1.56 1.24c-1.36 1.08-3.86 2.8-5.25 3.9q-.63.44-1.2.94l-.56.44a8 8 0 0 0-2.49 3.17c-.2.48-1.79 6.43-1.79 6.43l-.45 2q-.3 1.13.26 1.93.31.45.81.7-.63.26-1.19.71a3.7 3.7 0 0 0-1.3 1.94l-1.91 7.11q-.73 2.72.44 4.17 1.18 1.43 4.1 1.44h9.3c.72.01 1.23-.37 1.41-1.04l3.12-11.57h1.29c.71 0 1.22-.37 1.39-1.03l.91-3.38c.18-.67-.12-1.05-.83-1.05ZM104.7 12l-.01.03-.07.12-.09.12-.02.03-.1.11-.12.1-.03.02-.13.1-.14.08-.03.02-.15.07q-.24.12-.45.14h-.99l.49-1.81c.15-.55.3-.87.53-1.04.49-.35.86-.32 1.08-.32s.53 0 .68.17l.01.02.02.02.04.07v.01l.02.07q.02.08.01.17v.02l-.01.08-.02.08-.47 1.38-.05.12Zm-.99 20.72h-3.32c-.87 0-1.15-.35-.93-1.16l1.31-4.85c.22-.81.68-1.15 1.55-1.15h3.32z"/>
  <path fill="#231f20" d="M237.12 44.52v-.68h.28c.43 0 .54.11.54.35s-.14.33-.55.33zm-.34.89h.33v-.59h.23l.48.59h.43l-.54-.62q.55-.1.56-.61c0-.46-.3-.65-.89-.65h-.6zm.68.6c-.86 0-1.4-.56-1.4-1.52s.55-1.52 1.4-1.52 1.39.58 1.39 1.52-.55 1.52-1.4 1.52m.01.33c.9 0 1.75-.54 1.75-1.86s-.85-1.85-1.74-1.85-1.75.56-1.75 1.85.84 1.86 1.74 1.86"/>
</svg>
