<svg xmlns="http://www.w3.org/2000/svg" width="36" height="36" viewBox="0 0 51 51">
  <g id="Layer_1-2" fill="#fff">
    <path d="M25.45 19.44a6.07 6.07 0 0 0-.03 12.11 6.07 6.07 0 0 0 .03-12.11Z"/>
    <path d="M32.79 10.72c-15.99-.73-18.34.16-20.16 1.98-1.48 1.46-1.9 3.36-1.99 5.45-.11 2.12-.46 15.26.62 18.03a5.96 5.96 0 0 0 3.46 3.44c1.08.4 2.22.61 3.38.62 16.09.74 19.88.16 21.53-4.06.39-1.08.6-2.22.62-3.36.73-15.94-.17-18.3-1.99-20.12-1.46-1.46-3.38-1.89-5.46-1.98ZM25.45 34.8a9.33 9.33 0 1 1-.02-18.66 9.33 9.33 0 0 1 .02 18.66Zm11.87-19a2.19 2.19 0 0 1-4.36 0 2.19 2.19 0 0 1 4.36 0Z"/>
    <path d="M44.24 0H6.76A6.78 6.78 0 0 0 0 6.76v37.47a6.78 6.78 0 0 0 6.76 6.76h37.47a6.78 6.78 0 0 0 6.76-6.76V6.76A6.78 6.78 0 0 0 44.23 0Zm-.72 32.95c-.09 1.94-.4 3.26-.84 4.41-2.53 6.48-8.54 6.89-24.72 6.15a13.7 13.7 0 0 1-4.42-.84 9.2 9.2 0 0 1-5.32-5.3c-1.41-3.63-.92-17.52-.84-19.35.13-2.94.86-5.53 2.94-7.61 2.08-2.07 4.66-2.8 7.64-2.93 17.76-.83 20.38.69 22.63 2.92 2.82 2.82 3.68 6.33 2.94 22.57Z"/>
  </g>
</svg>
