<svg xmlns="http://www.w3.org/2000/svg" xmlns:xlink="http://www.w3.org/1999/xlink" viewBox="0 0 1920 1080">
<style>
/* <![CDATA[ */

#contract {
  animation: contract 20s ease-in-out infinite;
}
@keyframes contract {
  0% {
    opacity: 0;
  }
  3%, 100% {
    opacity: 1;
  }
  0% {
    transform: translate(960px, 0px) rotate(20deg) translate(-960px, 0px);
  }
  3%, 100% {
    transform: translate(960px, 0px) rotate(0deg) translate(-960px, 0px);
  }
}

#standard {
  animation: standard 20s ease-in-out infinite;
}
@keyframes standard {
  0% {
    opacity: 0;
  }
  3%, 100% {
    opacity: 1;
  }
  0% {
    transform: translate(0px, -120px);
  }
  3%, 100% {
    transform: translate(0px, 0px);
  }
}

#invoice {
  animation: invoice 20s ease-in-out infinite;
}
@keyframes invoice {
  0% {
    opacity: 0;
  }
  3%, 100% {
    opacity: 1;
  }
  0% {
    transform: translate(960px, 0px) rotate(-20deg) translate(-960px, 0px);
  }
  3%, 100% {
    transform: translate(960px, 0px) rotate(0deg) translate(-960px, 0px);
  }
}

#l1-1, #l1-2, #l1-3, #l1-4, #l1-5,
#l2-1, #l2-2, #l2-3, #l2-4, #l2-5,
#l3-1, #l3-2, #l3-3 {
  
}

#docs {
  animation: docs 20s ease-in-out infinite;
}
@keyframes docs {
  0%, 10% {
    transform: translate(0px, 0px);
  }
  12%, 18% {
    transform: translate(0px, -200px);
  }
  22%, 100% {
    transform: translate(0px, -500px);
  }
  0%, 18% {
    opacity: 1;
  }
  22%, 100% {
    opacity: 0;
  }
}

#lns1-1, #lns1-2, #lns1-3, #lns1-4, #lns1-5,
#lns2-1, #lns2-2, #lns2-3, #lns2-4, #lns2-5,
#lns3-1, #lns3-2, #lns3-3 {
  animation: lns 20s ease-in-out infinite;
}
@keyframes lns {
  0%, 10% {
    opacity: 0;
  }
  12%, 100% {
    opacity: .2;
  }
}

#ln1-1, #ln1-2, #ln1-3, #ln1-4, #ln1-5,
#ln2-1, #ln2-2, #ln2-3, #ln2-4, #ln2-5,
#ln3-1, #ln3-2, #ln3-3 {
  animation: ln 20s ease-in-out infinite;
}
@keyframes ln {
  0%, 4% {
    fill: #e3e8eb;
  }
  6%, 100% {
    fill: #335ccc;
  }
}

#l1-1 {
  animation: l11 20s ease-in-out infinite;
}
@keyframes l11 {
  0%, 16% {
    opacity: 1;
  }
  18%, 100% {
    opacity: 0;
  }
  0%, 12% {
    transform: translate(731px, 440px) rotate(0deg) translate(-731px, -440px);
  }
  15% {
    transform: translate(731px, 440px) rotate(-26deg) translate(-731px, -440px);
  }
  18%, 100% {
    transform: translate(731px, 940px) rotate(-26deg) translate(-731px, -440px);
  }
}

#l1-2 {
  animation: l12 20s ease-in-out infinite;
}
@keyframes l12 {
  0%, 16% {
    opacity: 1;
  }
  18%, 100% {
    opacity: 0;
  }
  0%, 12% {
    transform: translate(507px, 498px) rotate(0deg) translate(-507px, -498px);
  }
  15% {
    transform: translate(507px, 498px) rotate(30deg) translate(-507px, -498px);
  }
  18%, 100% {
    transform: translate(507px, 1000px) rotate(30deg) translate(-507px, -498px);
  }
}

#l1-3 {
  animation: l13 20s ease-in-out infinite;
}
@keyframes l13 {
  0%, 16% {
    opacity: 1;
  }
  18%, 100% {
    opacity: 0;
  }
  0%, 12% {
    transform: translate(502px, 592px) rotate(0deg) translate(-502px, -592px);
  }
  15% {
    transform: translate(502px, 592px) rotate(30deg) translate(-502px, -592px);
  }
  18%, 100% {
    transform: translate(502px, 1000px) rotate(30deg) translate(-502px, -592px);
  }
}

#l1-4 {
  animation: l14 20s ease-in-out infinite;
}
@keyframes l14 {
  0%, 16% {
    opacity: 1;
  }
  18%, 100% {
    opacity: 0;
  }
  0%, 12% {
    transform: translate(674px, 623px) rotate(0deg) translate(-674px, -623px);
  }
  15% {
    transform: translate(674px, 623px) rotate(-30deg) translate(-674px, -623px);
  }
  18%, 100% {
    transform: translate(674px, 1000px) rotate(-30deg) translate(-674px, -623px);
  }
}

#l1-5 {
  animation: l15 20s ease-in-out infinite;
}
@keyframes l15 {
  0%, 16% {
    opacity: 1;
  }
  18%, 100% {
    opacity: 0;
  }
  0%, 12% {
    transform: translate(674px, 623px) rotate(0deg) translate(-674px, -623px);
  }
  15% {
    transform: translate(674px, 623px) rotate(-30deg) translate(-674px, -623px);
  }
  18%, 100% {
    transform: translate(674px, 1000px) rotate(-30deg) translate(-674px, -623px);
  }
}

#l2-1 {
  animation: l21 20s ease-in-out infinite;
}
@keyframes l21 {
  0%, 16% {
    opacity: 1;
  }
  18%, 100% {
    opacity: 0;
  }
  0%, 12% {
    transform: translate(834px, 468px) rotate(0deg) translate(-834px, -468px);
  }
  15% {
    transform: translate(834px, 468px) rotate(30deg) translate(-834px, -468px);
  }
  18%, 100% {
    transform: translate(834px, 1000px) rotate(30deg) translate(-834px, -468px);
  }
}

#l2-2 {
  animation: l22 20s ease-in-out infinite;
}
@keyframes l22 {
  0%, 16% {
    opacity: 1;
  }
  18%, 100% {
    opacity: 0;
  }
  0%, 12% {
    transform: translate(1064px, 498px) rotate(0deg) translate(-1064px, -498px);
  }
  15% {
    transform: translate(1064px, 498px) rotate(-30deg) translate(-1064px, -498px);
  }
  18%, 100% {
    transform: translate(1064px, 1000px) rotate(-30deg) translate(-1064px, -498px);
  }
}

#l2-3 {
  animation: l23 20s ease-in-out infinite;
}
@keyframes l23 {
  0%, 16% {
    opacity: 1;
  }
  18%, 100% {
    opacity: 0;
  }
  0%, 12% {
    transform: translate(1064px, 557px) rotate(0deg) translate(-1064px, -557px);
  }
  15% {
    transform: translate(1064px, 557px) rotate(-40deg) translate(-1064px, -557px);
  }
  18%, 100% {
    transform: translate(1064px, 1000px) rotate(-40deg) translate(-1064px, -557px);
  }
}

#l2-4 {
  animation: l24 20s ease-in-out infinite;
}
@keyframes l24 {
  0%, 16% {
    opacity: 1;
  }
  18%, 100% {
    opacity: 0;
  }
  0%, 12% {
    transform: translate(834px, 586px) rotate(0deg) translate(-834px, -586px);
  }
  15% {
    transform: translate(834px, 586px) rotate(40deg) translate(-834px, -586px);
  }
  18%, 100% {
    transform: translate(834px, 1000px) rotate(40deg) translate(-834px, -586px);
  }
}

#l2-5 {
  animation: l25 20s ease-in-out infinite;
}
@keyframes l25 {
  0%, 16% {
    opacity: 1;
  }
  18%, 100% {
    opacity: 0;
  }
  0%, 12% {
    transform: translate(934px, 616px) rotate(0deg) translate(-934px, -616px);
  }
  15% {
    transform: translate(934px, 616px) rotate(-30deg) translate(-934px, -616px);
  }
  18%, 100% {
    transform: translate(934px, 1000px) rotate(-30deg) translate(-934px, -616px);
  }
}

#l3-1 {
  animation: l31 20s ease-in-out infinite;
}
@keyframes l31 {
  0%, 16% {
    opacity: 1;
  }
  18%, 100% {
    opacity: 0;
  }
  0%, 12% {
    transform: translate(1159px, 469px) rotate(0deg) translate(-1159px, -469px);
  }
  15% {
    transform: translate(1159px, 469px) rotate(50deg) translate(-1159px, -469px);
  }
  18%, 100% {
    transform: translate(1159px, 1000px) rotate(50deg) translate(-1159px, -469px);
  }
}

#l3-2 {
  animation: l32 20s ease-in-out infinite;
}
@keyframes l32 {
  0%, 16% {
    opacity: 1;
  }
  18%, 100% {
    opacity: 0;
  }
  0%, 12% {
    transform: translate(1245px, 498px) rotate(0deg) translate(-1245px, -498px);
  }
  15% {
    transform: translate(1245px, 498px) rotate(-20deg) translate(-1245px, -498px);
  }
  18%, 100% {
    transform: translate(1245px, 1000px) rotate(-20deg) translate(-1245px, -498px);
  }
}

#l3-3 {
  animation: l33 20s ease-in-out infinite;
}
@keyframes l33 {
  0%, 16% {
    opacity: 1;
  }
  18%, 100% {
    opacity: 0;
  }
  0%, 12% {
    transform: translate(1337px, 590px) rotate(0deg) translate(-1337px, -590px);
  }
  15% {
    transform: translate(1337px, 590px) rotate(-30deg) translate(-1337px, -590px);
  }
  18%, 100% {
    transform: translate(1337px, 1000px) rotate(-30deg) translate(-1337px, -590px);
  }
}

#box-back {
  animation: boxback 20s ease-in-out infinite;
}
@keyframes boxback {
  0%, 10%, 42%, 100% {
    opacity: 0;
  }
  12%, 40% {
    opacity: 1;
  }
  0%, 10% {
    transform: translate(960px, 946px) scale(.2) translate(-960px, -946px);
  }
  12%, 20% {
    transform: translate(960px, 946px) scale(1) translate(-960px, -946px);
  }
  23%, 32% {
    transform: translate(960px, 780px) scale(1) translate(-960px, -946px);
  }
  40%, 100% {
    transform: translate(-560px, 780px) scale(1) translate(-960px, -946px);
  }
}

#box-front {
  animation: boxfront 20s ease-in-out infinite;
}
@keyframes boxfront {
  0%, 10%, 42%, 100% {
    opacity: 0;
  }
  12%, 40% {
    opacity: 1;
  }
  0%, 10% {
    transform: translate(960px, 946px) scale(.2) translate(-960px, -946px);
  }
  12%, 20% {
    transform: translate(960px, 946px) scale(1) translate(-960px, -946px);
  }
  23%, 32% {
    transform: translate(960px, 780px) scale(1) translate(-960px, -946px);
  }
  40%, 100% {
    transform: translate(-560px, 780px) scale(1) translate(-960px, -946px);
  }
}

#transporter {
  animation: transporter 20s ease-in-out infinite;
}
@keyframes transporter {
  0%, 22%, 50%, 100% {
    opacity: 0;
  }
  24%, 48% {
    opacity: 1;
  }
  0%, 32% {
    transform: translate(0px, 0px);
  }
  40%, 100% {
    transform: translate(-1500px, 0px);
  }
}

#bx1, #bx2, #bx3, #bx4, #bx5, #bx6, #bx7 {
  animation: box 1s linear infinite;
}
@keyframes box {
  0% {
    transform: translate(0px, 0px);
  }
  100% {
    transform: translate(93px, 0px);
  }
}

#optimal-back {
  animation: optimalback 20s ease-in-out infinite;
}
@keyframes optimalback {
  0%, 30%, 57%, 100% {
    opacity: 0;
  }
  32%, 56% {
    opacity: 1;
  }
  0%, 32% {
    transform: translate(0px, 0px);
  }
  40%, 100% {
    transform: translate(-1470px, 0px);
  }
}

#optimal-front {
  animation: optimalfront 20s ease-in-out infinite;
}
@keyframes optimalfront {
  0%, 30%, 57%, 100% {
    opacity: 0;
  }
  32%, 56% {
    opacity: 1;
  }
  0%, 32% {
    transform: translate(0px, 0px);
  }
  40%, 100% {
    transform: translate(-1470px, 0px);
  }
}

#monitor {
  animation: monitor 20s ease-in-out infinite;
}
@keyframes monitor {
  0%, 50%, 98%, 100% {
    opacity: 0;
  }
  52%, 95% {
    opacity: 1;
  }
  0%, 50% {
    transform: translate(960px, 760px) scale(.2) translate(-960px, -760px);
  }
  53% {
    transform: translate(960px, 300px) scale(.5) translate(-960px, -760px);
  }
  56%, 100% {
    transform: translate(960px, 760px) scale(1) translate(-960px, -760px);
  }
}

#optimal-front2 {
  animation: optimalfront2 20s ease-in-out infinite;
}
@keyframes optimalfront2 {
  0%, 50%, 53.5%, 100% {
    opacity: 0;
  }
  50.5%, 53% {
    opacity: 1;
  }
}

#graph-lines {
  animation: graphlines 20s ease-in-out infinite;
}
@keyframes graphlines {
  0%, 56%, 98%, 100% {
    opacity: 0;
  }
  58%, 95% {
    opacity: 1;
  }
}

#ttl-savings {
  animation: ttlsavings 20s ease-in-out infinite;
}
@keyframes ttlsavings {
  0%, 56%, 98%, 100% {
    opacity: 0;
  }
  58%, 95% {
    opacity: 1;
  }
}

#ttl-savings2 {
  animation: ttlsavings2 20s ease-in-out infinite;
}
@keyframes ttlsavings2 {
  0%, 57%, 98%, 100% {
    opacity: 0;
  }
  59%, 95% {
    opacity: 1;
  }
}

#lbl1, #lbl2, #lbl3, #lbl4, #lbl5, #lbl6 {
  animation: label 20s ease-in-out infinite;
}
@keyframes label {
  0%, 58%, 98%, 100% {
    opacity: 0;
  }
  60%, 95% {
    opacity: 1;
  }
}

#chart1 {
  stroke-dasharray: 160px;
  animation: chart1 20s ease-in-out infinite;
}
@keyframes chart1 {
  0%, 60%, 98%, 100% {
    opacity: 0;
  }
  62%, 95% {
    opacity: 1;
  }
  0%, 60% {
    stroke-dashoffset: 160px;
  }
  62%, 100% {
    stroke-dashoffset: 0px;
  }
}

#chart2 {
  stroke-dasharray: 600px;
  animation: chart2 20s ease-in-out infinite;
}
@keyframes chart2 {
  0%, 61%, 98%, 100% {
    opacity: 0;
  }
  63%, 95% {
    opacity: 1;
  }
  0%, 63% {
    stroke-dashoffset: 600px;
  }
  68%, 100% {
    stroke-dashoffset: 0px;
  }
}

#chart3 {
  animation: chart3 20s ease-in-out infinite;
}
@keyframes chart3 {
  0%, 66%, 98%, 100% {
    opacity: 0;
  }
  70%, 95% {
    opacity: 1;
  }
}

/* ]]> */
</style>
  <defs>
    <g id="optimal-frnt">
    <rect width="803.01" height="296.52" x="2041.52" y="483.48" fill="#E8EDF0"/>
    <rect width="704.07" height="97.45" x="2090.99" y="624.73" fill="#325DCC"/>
    <g fill="#FFF">
      <path d="M2161.15 670.99v12.81h-5.04v-11.5c0-2.74-1.05-4.21-3.57-4.21-2.65 0-3.9 2.56-3.9 2.56v13.15h-5.05v-11.51c0-2.73-1.05-4.2-3.57-4.2-2.64 0-3.9 2.56-3.9 2.56v13.15h-5.04v-19.91h4.7v2.9s1.8-3.4 5.88-3.4c4.79 0 6.18 3.48 6.18 3.48s1.68-3.49 6.34-3.49c4.03 0 6.97 2.82 6.97 7.6z"/>
      <path d="M2176.02 688.42l-4.12 2.52s-6.22-8.19-6.22-19.53c0-11.34 6.22-19.5 6.22-19.5l4.12 2.49s-5.38 7.1-5.38 17.01c0 9.91 5.38 17.01 5.38 17.01z"/>
      <path d="M2177.99 663.9h5.92l4.08 6.12 3.99-6.13h5.75l-6.93 9.62 7.35 10.3h-6l-4.5-6.81-4.5 6.8h-5.7l7.39-10.29-6.85-9.62z"/>
      <path d="M2207.18 681.2l-3.66 9.78-3.86-1.34 3.32-9.91 4.2 1.47z"/>
      <path d="M2210.83 687.96s1.35 1.3 2.65 1.3c1.72 0 2.44-.5 3.4-2.94l.8-2.06-9.7-20.37h5.58l6.72 14.58 5.25-14.58h5.42l-9.66 24.36c-1.72 4.37-4.53 5.72-7.47 5.72-3.03 0-5.34-2.1-5.34-2.1l2.35-3.9z"/>
      <path d="M2231.79 654.4l4.12-2.48a35 35 0 006.21 19.49c0 11.34-6.21 19.53-6.21 19.53l-4.12-2.52s5.38-7.1 5.38-17.01c0-9.91-5.38-17.01-5.38-17.01z"/>
      <path d="M2246.03 666.5h18.06v4.62h-18.06v-4.63zm0 7.8h18.06v4.63h-18.06v-4.62z"/>
      <path d="M2276.86 684.3c-5.17 0-9.7-4.32-9.7-10.45 0-6.14 4.53-10.46 9.7-10.46 4.15 0 6 3.1 6 3.1v-2.6h4.67v20.08c0 6.93-5.13 10-10.72 10-5.7 0-9.45-3.78-9.45-3.78l2.86-3.87s2.77 2.94 6.6 2.94c3.9 0 5.67-2.14 5.67-5.12v-2.4a7.1 7.1 0 01-5.63 2.57zm5.63-13.44s-1.43-2.77-4.75-2.77c-3.4 0-5.46 2.48-5.46 5.76 0 3.27 2.06 5.75 5.46 5.75 3.28 0 4.75-2.77 4.75-2.77v-5.97z"/>
      <path d="M2290.8 652l4.03-1.8 16.8 37.72-4.03 1.8-16.8-37.72z"/>
      <path d="M2325.07 656.58c-1.68 0-2.85.34-2.85 3.1v7.82c0 4.41-2.06 5.3-4.16 5.38v.17c2.1.08 4.16.96 4.16 5.37v7.4c0 2.77 1.17 3.1 2.85 3.1v4.54h-2.27a5.42 5.42 0 01-5.63-5.67v-8.74c0-3.78-2.1-4.24-4.2-4.24v-3.7c2.1 0 4.2-.46 4.2-4.24v-9.16a5.42 5.42 0 015.63-5.67h2.27v4.54z"/>
      <path d="M2359.18 670.99v12.81h-5.04v-11.5c0-2.74-1.05-4.21-3.57-4.21-2.65 0-3.9 2.56-3.9 2.56v13.15h-5.05v-11.51c0-2.73-1.05-4.2-3.57-4.2-2.65 0-3.9 2.56-3.9 2.56v13.15h-5.05v-19.91h4.7v2.9s1.81-3.4 5.89-3.4c4.79 0 6.17 3.48 6.17 3.48s1.68-3.49 6.35-3.49c4.03 0 6.97 2.82 6.97 7.6z"/>
      <path d="M2374.04 688.42l-4.11 2.52s-6.22-8.19-6.22-19.53c0-11.34 6.22-19.5 6.22-19.5l4.11 2.49s-5.37 7.1-5.37 17.01c0 9.91 5.37 17.01 5.37 17.01z"/>
      <path d="M2376.02 663.9h5.92l4.07 6.12 4-6.13h5.75l-6.93 9.62 7.35 10.3h-6l-4.5-6.81-4.5 6.8h-5.71l7.4-10.29-6.85-9.62z"/>
      <path d="M2405.2 681.2l-3.65 9.78-3.86-1.34 3.32-9.91 4.2 1.47z"/>
      <path d="M2408.86 687.96s1.34 1.3 2.65 1.3c1.72 0 2.43-.5 3.4-2.94l.8-2.06-9.7-20.37h5.58l6.72 14.58 5.25-14.58h5.42l-9.66 24.36c-1.72 4.37-4.54 5.72-7.48 5.72-3.02 0-5.33-2.1-5.33-2.1l2.35-3.9z"/>
      <path d="M2430.74 654.4h4.46v10.33h-4.46V654.4z"/>
      <path d="M2437.63 654.4l4.12-2.48a35 35 0 006.21 19.49c0 11.34-6.21 19.53-6.21 19.53l-4.12-2.52s5.38-7.1 5.38-17.01c0-9.91-5.38-17.01-5.38-17.01z"/>
      <path d="M2450.73 652l4.03-1.8 16.8 37.72-4.02 1.8-16.8-37.72z"/>
      <path d="M2504.41 670.99v12.81h-5.04v-11.5c0-2.74-1.05-4.21-3.57-4.21-2.64 0-3.9 2.56-3.9 2.56v13.15h-5.04v-11.51c0-2.73-1.06-4.2-3.58-4.2-2.64 0-3.9 2.56-3.9 2.56v13.15h-5.04v-19.91h4.7v2.9s1.8-3.4 5.88-3.4c4.8 0 6.18 3.48 6.18 3.48s1.68-3.49 6.34-3.49c4.03 0 6.97 2.82 6.97 7.6z"/>
      <path d="M2512.77 654.14a3.3 3.3 0 013.31 3.32c0 1.85-1.46 3.32-3.31 3.32s-3.32-1.47-3.32-3.32a3.3 3.3 0 013.32-3.32zm-2.52 9.75h5.04v19.91h-5.04v-19.9z"/>
      <path d="M2540.15 683.8h-4.66v-2.6s-1.72 3.1-6 3.1c-5.17 0-9.71-4.32-9.71-10.45 0-6.14 4.54-10.46 9.7-10.46a7.1 7.1 0 015.63 2.6v-13.95h5.04v31.76zm-5.04-12.94s-1.43-2.77-4.74-2.77c-3.4 0-5.46 2.48-5.46 5.76 0 3.27 2.05 5.75 5.46 5.75 3.32 0 4.74-2.77 4.74-2.77v-5.97z"/>
      <path d="M2558.8 687.96s1.34 1.3 2.64 1.3c1.73 0 2.44-.5 3.4-2.94l.8-2.06-9.7-20.37h5.59l6.72 14.58 5.25-14.58h5.42l-9.66 24.36c-1.72 4.37-4.54 5.72-7.48 5.72-3.02 0-5.33-2.1-5.33-2.1l2.35-3.9z"/>
      <path d="M2580.68 654.4h4.45v10.33h-4.45V654.4z"/>
      <path d="M2587.57 652l4.03-1.8 16.8 37.72-4.03 1.8-16.8-37.72z"/>
      <path d="M2614.49 654.14a3.3 3.3 0 013.32 3.32c0 1.85-1.47 3.32-3.32 3.32s-3.32-1.47-3.32-3.32a3.3 3.3 0 013.32-3.32zm-2.52 9.75h5.04v19.91h-5.04v-19.9z"/>
      <path d="M2640.83 670.9v12.9h-5.04v-11.64c0-2.85-1.77-4.07-3.95-4.07-2.6 0-3.95 2.56-3.95 2.56v13.15h-5.04v-19.91h4.7v2.9s1.77-3.4 5.97-3.4c3.86 0 7.3 2.73 7.3 7.51z"/>
      <path d="M2656.36 663.9h3.95v-4.88c0-5.55 3.9-7.48 7.14-7.48a8.73 8.73 0 014.41 1.05l-1.89 4.24s-.75-.59-2.01-.59c-.97 0-2.6.55-2.6 3.03v4.62h4.86v4.54h-4.87v15.37h-5.04v-15.37h-3.95v-4.54z"/>
      <path d="M2683.62 688.42l-4.12 2.52s-6.21-8.19-6.21-19.53c0-11.34 6.21-19.5 6.21-19.5l4.12 2.49s-5.38 7.1-5.38 17.01c0 9.91 5.38 17.01 5.38 17.01z"/>
      <path d="M2685.6 663.9h5.92l4.07 6.12 4-6.13h5.75l-6.94 9.62 7.36 10.3h-6.01l-4.5-6.81-4.49 6.8h-5.71l7.4-10.29-6.86-9.62z"/>
      <path d="M2707.18 654.4l4.12-2.48a35 35 0 006.21 19.49c0 11.34-6.21 19.53-6.21 19.53l-4.12-2.52s5.38-7.1 5.38-17.01c0-9.91-5.38-17.01-5.38-17.01z"/>
      <path d="M2720.28 652l4.04-1.8 16.8 37.72-4.03 1.8-16.8-37.72z"/>
      <path d="M2742.88 652.04h2.27a5.42 5.42 0 015.63 5.68v9.15c0 3.78 2.1 4.25 4.2 4.25v3.7c-2.1 0-4.2.45-4.2 4.23v8.74a5.42 5.42 0 01-5.63 5.67h-2.27v-4.53c1.68 0 2.86-.34 2.86-3.11v-7.4c0-4.4 2.06-5.29 4.16-5.37v-.17c-2.1-.08-4.16-.97-4.16-5.38v-7.81c0-2.77-1.18-3.1-2.86-3.1v-4.55z"/>
    </g>
    <g fill="#325DCC">
      <path d="M2303.52 539.74h8.24v3.42h-8.24v9.02h-3.6V531.2h12.44v3.42h-8.84v5.12z"/>
      <path d="M2316.14 531.2h3.6v20.98h-3.6V531.2z"/>
      <path d="M2327.82 531.2l10.5 14.44V531.2h3.59v20.98h-3.24l-10.49-14.42v14.42h-3.6V531.2h3.24z"/>
      <path d="M2363.49 541.69c0 6.05-4.26 10.49-10.37 10.49h-6.77V531.2h6.77c6.11 0 10.37 4.43 10.37 10.49zm-3.66 0c0-3.84-2.58-7.08-6.65-7.08h-3.24v14.15h3.24c4.07 0 6.65-3.27 6.65-7.07z"/>
      <path d="M2384.32 552.18h-3.6v-8.27l-7.16-12.71h3.95l5.13 9.38 5.12-9.38h3.72l-7.16 12.7v8.28z"/>
      <path d="M2413.3 541.69c0 6.2-4.5 10.85-10.61 10.85s-10.61-4.65-10.61-10.85c0-6.2 4.5-10.85 10.6-10.85s10.62 4.64 10.62 10.85zm-3.66 0c0-4.05-2.73-7.44-6.95-7.44s-6.96 3.4-6.96 7.44c0 4.04 2.73 7.43 6.96 7.43s6.95-3.39 6.95-7.43z"/>
      <path d="M2429.12 531.2h3.6v13.36c0 4.62-3.15 7.98-8.1 7.98-4.94 0-8.09-3.36-8.09-7.98V531.2h3.6v12.91c0 3 1.5 5.01 4.5 5.01 2.96 0 4.5-2 4.5-5V531.2z"/>
      <path d="M2437.15 531.2h6.9c4.16 0 6.95 2.7 6.95 6.53 0 3.15-1.68 5.54-4.68 6.3l5.25 8.15h-4.2l-4.97-7.92h-1.65v7.91h-3.6V531.2zm10.2 6.53c0-2.07-1.45-3.12-3.75-3.12h-2.85v6.24h2.85c2.3 0 3.74-1.05 3.74-3.12z"/>
      <path d="M2483.45 541.69c0 6.2-4.49 10.85-10.6 10.85-6.12 0-10.61-4.65-10.61-10.85 0-6.2 4.5-10.85 10.6-10.85 6.12 0 10.61 4.64 10.61 10.85zm-3.65 0c0-4.05-2.73-7.44-6.95-7.44s-6.96 3.4-6.96 7.44c0 4.04 2.73 7.43 6.96 7.43s6.95-3.39 6.95-7.43z"/>
      <path d="M2486.7 531.2h7.13c4.16 0 6.95 2.87 6.95 6.71s-2.79 6.71-6.95 6.71h-3.54v7.56h-3.6V531.2zm10.42 6.71c0-1.98-1.29-3.3-3.74-3.3h-3.1v6.6h3.1c2.45 0 3.74-1.32 3.74-3.3z"/>
      <path d="M2507.64 534.61h-5.78v-3.41h15.16v3.41h-5.78v17.57h-3.6V534.6z"/>
      <path d="M2520.08 531.2h3.6v20.98h-3.6V531.2z"/>
      <path d="M2531.86 531.2l6.83 10.55 6.83-10.55h3.33v20.98h-3.6v-14.09l-6.56 9.98-6.56-9.98v14.09h-3.6V531.2h3.33z"/>
      <path d="M2559.4 531.2h3.65l8.16 20.98h-3.63l-1.92-4.98h-8.87l-1.92 4.98h-3.62l8.15-20.98zm-1.32 12.7h6.3l-3.15-8.18-3.15 8.18z"/>
      <path d="M2573.6 531.2h3.6v17.56h8.93v3.42h-12.52V531.2z"/>
      <path d="M2377.62 579.39c-3.09-1.08-6.56-2.76-6.56-6.65 0-2.97 2.63-5.94 6.86-5.94a9.02 9.02 0 016.83 3.33l-2.49 2.46s-1.73-2.37-4.34-2.37c-1.8 0-3.2 1.1-3.2 2.52 0 1.83 1.64 2.4 4.52 3.47 3.2 1.2 5.87 2.64 5.87 6.45s-3.36 5.84-7.31 5.84c-5.25 0-7.67-4.28-7.67-4.28l2.7-2.28s1.79 3.14 4.97 3.14c1.8 0 3.65-.72 3.65-2.42 0-1.77-1.34-2.4-3.83-3.27z"/>
      <path d="M2408.82 577.65c0 6.2-4.5 10.85-10.61 10.85s-10.61-4.65-10.61-10.85c0-6.2 4.5-10.85 10.6-10.85s10.62 4.65 10.62 10.85zm-3.66 0c0-4.04-2.73-7.43-6.95-7.43s-6.96 3.38-6.96 7.43 2.73 7.43 6.96 7.43 6.95-3.38 6.95-7.43z"/>
      <path d="M2412.05 567.16h3.6v17.56h8.93v3.42h-12.53v-20.98z"/>
      <path d="M2439.63 567.16h3.6v13.37c0 4.61-3.16 7.97-8.1 7.97-4.95 0-8.1-3.36-8.1-7.97v-13.37h3.6v12.92c0 3 1.5 5 4.5 5 2.97 0 4.5-2 4.5-5v-12.92z"/>
      <path d="M2451.64 570.58h-5.78v-3.42h15.16v3.42h-5.78v17.56h-3.6v-17.56z"/>
      <path d="M2464.08 567.16h3.6v20.98h-3.6v-20.98z"/>
      <path d="M2492.55 577.65c0 6.2-4.5 10.85-10.6 10.85s-10.62-4.65-10.62-10.85c0-6.2 4.5-10.85 10.61-10.85s10.61 4.65 10.61 10.85zm-3.66 0c0-4.04-2.72-7.43-6.95-7.43s-6.95 3.38-6.95 7.43 2.73 7.43 6.95 7.43 6.95-3.38 6.95-7.43z"/>
      <path d="M2499.03 567.16l10.48 14.45v-14.45h3.6v20.98h-3.24l-10.48-14.41v14.41h-3.6v-20.98h3.24z"/>
    </g>
  </g>
  </defs>
  <g id="box-back">
    <polygon fill="#DBE0E3" points="403.5 946.52 465.2 825.87 465.2 574.92 403.5 650.06"/>
    <polygon fill="#DBE0E3" points="1516.5 946.52 1454.8 825.87 1454.8 574.92 1516.5 650.06"/>
    <rect width="989.6" height="250.95" x="465.2" y="574.92" fill="#CDD1D4"/>
  </g>
  <g id="optimal-back">
    <polygon fill="#DBE0E3" points="2041.1 780 2102.8 659.35 2102.8 408.39 2041.1 483.54"/>
    <polygon fill="#DBE0E3" points="2844.1 780 2782.4 659.35 2782.4 408.39 2844.1 483.54"/>
    <rect width="679.6" height="250.95" x="2102.8" y="408.39" fill="#CDD1D4"/>
  </g>
  <g id="docs">
  <g id="contract">
    <rect width="270.77" height="348.96" x="507.52" y="379.07" fill="#325DCC" opacity=".4"/>
    <rect width="270.77" height="348.96" x="487.09" y="360" fill="#FFF" stroke="#325DCC" stroke-miterlimit="10" stroke-width="7"/>
    <g fill="#325DCC">
      <path d="M522.43 410.96l2.16 2.13s-2.48 3.21-7.26 3.21c-5.45 0-9.58-4.18-9.58-9.77s4.13-9.77 9.58-9.77c4.54 0 7 2.97 7 2.97l-2.2 2.13s-1.7-2.08-4.8-2.08c-3.72 0-6.29 3.1-6.29 6.75s2.57 6.75 6.3 6.75c3.31 0 5.1-2.32 5.1-2.32z"/>
      <path d="M545.11 406.53c0 5.59-4.05 9.77-9.55 9.77-5.5 0-9.56-4.18-9.56-9.77s4.05-9.77 9.56-9.77c5.5 0 9.55 4.18 9.55 9.77zm-3.29 0c0-3.64-2.46-6.7-6.26-6.7s-6.26 3.06-6.26 6.7 2.45 6.7 6.26 6.7c3.8 0 6.26-3.05 6.26-6.7z"/>
      <path d="M550.95 397.08l9.45 13.02v-13.02h3.23v18.9h-2.91L551.27 403v12.98h-3.24v-18.9h2.92z"/>
      <path d="M571.23 400.16h-5.21v-3.08h13.66v3.08h-5.21v15.82h-3.24v-15.82z"/>
      <path d="M582.05 397.08h6.21c3.75 0 6.26 2.43 6.26 5.89 0 2.83-1.5 5-4.2 5.67l4.72 7.34h-3.78l-4.48-7.13h-1.49v7.13h-3.23v-18.9zm9.18 5.89c0-1.86-1.3-2.8-3.37-2.8h-2.57v5.6h2.57c2.08 0 3.37-.94 3.37-2.8z"/>
      <path d="M603.3 397.08h3.3l7.34 18.9h-3.27l-1.73-4.48h-7.99l-1.73 4.48h-3.26l7.34-18.9zm-1.19 11.45h5.67l-2.83-7.37-2.84 7.37z"/>
      <path d="M629.49 410.96l2.16 2.13s-2.48 3.21-7.26 3.21c-5.46 0-9.59-4.18-9.59-9.77s4.13-9.77 9.59-9.77c4.53 0 6.99 2.97 6.99 2.97l-2.19 2.13s-1.7-2.08-4.8-2.08c-3.73 0-6.3 3.1-6.3 6.75s2.57 6.75 6.3 6.75c3.32 0 5.1-2.32 5.1-2.32z"/>
      <path d="M637.73 400.16h-5.21v-3.08h13.65v3.08h-5.2v15.82h-3.24v-15.82z"/>
    </g>
    <rect width="96.38" height="17.06" x="506.83" y="439.38" fill="#E3E8EB"/>
    <rect width="230.07" height="17.06" x="506.83" y="468.87" fill="#E3E8EB"/>
    <rect width="172.85" height="17.06" x="506.83" y="527.86" fill="#E3E8EB"/>
    <rect width="106.01" height="17.06" x="573.68" y="557.35" fill="#E3E8EB"/>
    <rect width="48.19" height="17.06" x="506.83" y="660.69" fill="#E3E8EB" transform="rotate(-180 530.93 669.22)"/>
    <rect width="89.17" height="17.06" x="647.73" y="660.69" fill="#E3E8EB" transform="rotate(-180 692.32 669.22)"/>
    <rect width="106.01" height="17.06" x="506.83" y="616.34" fill="#E3E8EB" transform="rotate(-180 559.84 624.87)"/>
    <g id="l1-1">
      <rect id="lns1-1" width="114.43" height="17.06" x="627.47" y="444.38" fill="#595963" opacity=".2"/>
      <rect id="ln1-1" width="114.43" height="17.06" x="622.47" y="439.38" fill="#E3E8EB"/>
    </g>
    <g id="l1-2">
      <rect id="lns1-2" width="230.07" height="17.06" x="511.83" y="503.36" fill="#595963" opacity=".2"/>
      <rect id="ln1-2" width="230.07" height="17.06" x="506.83" y="498.36" fill="#E3E8EB"/>
    </g>
    <g id="l1-3">
      <rect id="lns1-3" width="48.19" height="17.06" x="511.83" y="562.35" fill="#595963" opacity=".2"/>
      <rect id="ln1-3" width="48.19" height="17.06" x="506.83" y="557.35" fill="#E3E8EB"/>
    </g>
    <g id="l1-4">
      <rect id="lns1-5" width="172.85" height="17.06" x="511.83" y="591.85" fill="#595963" opacity=".2"/>
      <rect id="ln1-5" width="172.85" height="17.06" x="506.83" y="586.85" fill="#E3E8EB"/>
    </g>
    <g id="l1-5">
      <rect id="lns1-4" width="48.19" height="17.06" x="636.5" y="621.34" fill="#595963" opacity=".2" transform="rotate(-180 660.6 629.87)"/>
      <rect id="ln1-4" width="48.19" height="17.06" x="631.5" y="616.34" fill="#E3E8EB" transform="rotate(-180 655.6 624.87)"/>
    </g>
  </g>
  <g id="standard">
    <rect width="270.77" height="348.96" x="834.22" y="379.07" fill="#325DCC" opacity=".4"/>
    <rect width="270.77" height="348.96" x="813.78" y="360" fill="#FFF" stroke="#325DCC" stroke-miterlimit="10" stroke-width="7"/>
    <g fill="#325DCC">
      <path d="M841.51 406.94c-2.78-.97-5.9-2.48-5.9-6 0-2.67 2.37-5.34 6.17-5.34 3.95 0 6.16 3 6.16 3l-2.24 2.21s-1.57-2.13-3.92-2.13c-1.61 0-2.88 1-2.88 2.27 0 1.64 1.48 2.16 4.07 3.13 2.89 1.08 5.3 2.37 5.3 5.8 0 3.43-3.03 5.26-6.6 5.26-4.72 0-6.9-3.86-6.9-3.86l2.43-2.05s1.62 2.84 4.48 2.84c1.62 0 3.29-.65 3.29-2.19 0-1.6-1.22-2.16-3.46-2.94z"/>
      <path d="M855.18 399h-5.21v-3.07h13.65V399h-5.2v15.82h-3.24V399z"/>
      <path d="M870.51 395.93h3.3l7.34 18.9h-3.27l-1.73-4.49h-7.99l-1.72 4.48h-3.27l7.34-18.9zm-1.19 11.44H875l-2.83-7.37-2.84 7.37z"/>
      <path d="M886.23 395.93l9.44 13v-13h3.24v18.9H896l-9.45-13v13h-3.24v-18.9h2.92z"/>
      <path d="M918.35 405.37c0 5.46-3.83 9.45-9.34 9.45h-6.1v-18.9h6.1c5.51 0 9.34 4 9.34 9.45zm-3.29 0c0-3.45-2.32-6.37-6-6.37h-2.9v12.74h2.9c3.68 0 6-2.94 6-6.37z"/>
      <path d="M926.35 395.93h3.3l7.33 18.9h-3.26l-1.73-4.49h-8l-1.72 4.48h-3.26l7.34-18.9zm-1.19 11.44h5.67l-2.84-7.37-2.83 7.37z"/>
      <path d="M939.15 395.93h6.2c3.76 0 6.27 2.42 6.27 5.88 0 2.83-1.52 5-4.21 5.67l4.72 7.34h-3.78l-4.48-7.13h-1.48v7.13h-3.24v-18.9zm9.17 5.88c0-1.86-1.3-2.8-3.37-2.8h-2.56v5.6h2.56c2.08 0 3.37-.94 3.37-2.8z"/>
      <path d="M970.33 405.37c0 5.46-3.84 9.45-9.34 9.45h-6.1v-18.9h6.1c5.5 0 9.34 4 9.34 9.45zm-3.3 0c0-3.45-2.32-6.37-5.99-6.37h-2.91v12.74h2.91c3.67 0 6-2.94 6-6.37z"/>
      <path d="M841.51 439.34c-2.78-.97-5.9-2.48-5.9-6 0-2.67 2.37-5.34 6.17-5.34 3.95 0 6.16 3 6.16 3l-2.24 2.21s-1.57-2.13-3.92-2.13c-1.61 0-2.88 1-2.88 2.27 0 1.64 1.48 2.16 4.07 3.13 2.89 1.08 5.3 2.37 5.3 5.8 0 3.43-3.03 5.26-6.6 5.26-4.72 0-6.9-3.86-6.9-3.86l2.43-2.05s1.62 2.84 4.48 2.84c1.62 0 3.29-.65 3.29-2.19 0-1.6-1.22-2.16-3.46-2.94z"/>
      <path d="M862.92 428.33h3.24v12.04c0 4.15-2.83 7.18-7.29 7.18-4.45 0-7.28-3.03-7.28-7.18v-12.04h3.23v11.63c0 2.7 1.35 4.5 4.05 4.5 2.68 0 4.05-1.8 4.05-4.5v-11.63z"/>
      <path d="M870.16 428.33h6.43c3.75 0 6.26 2.59 6.26 6.04s-2.51 6.05-6.26 6.05h-3.19v6.8h-3.24v-18.9zm9.4 6.04c0-1.78-1.16-2.97-3.38-2.97h-2.78v5.94h2.78c2.22 0 3.38-1.19 3.38-2.97z"/>
      <path d="M885.44 428.33h6.43c3.75 0 6.26 2.59 6.26 6.04s-2.51 6.05-6.26 6.05h-3.19v6.8h-3.24v-18.9zm9.4 6.04c0-1.78-1.16-2.97-3.38-2.97h-2.78v5.94h2.78c2.22 0 3.38-1.19 3.38-2.97z"/>
      <path d="M900.73 428.33h3.23v15.81h8.05v3.08h-11.28v-18.9z"/>
      <path d="M914.6 428.33h3.24v18.9h-3.24v-18.9z"/>
      <path d="M925.46 436H933v3.07h-7.55v5.07h8.36v3.08h-11.6v-18.9h11.44v3.08h-8.2v4.6z"/>
      <path d="M936.96 428.33h6.2c3.76 0 6.27 2.43 6.27 5.88 0 2.83-1.51 5-4.21 5.67l4.72 7.34h-3.78l-4.48-7.13h-1.48v7.13h-3.24v-18.9zm9.18 5.88c0-1.86-1.3-2.8-3.38-2.8h-2.56v5.6h2.56c2.08 0 3.38-.94 3.38-2.8z"/>
      <path d="M964.23 431.4h-5.21v-3.07h13.66v3.07h-5.21v15.82h-3.24V431.4z"/>
      <path d="M978.3 436h7.55v3.07h-7.56v5.07h8.37v3.08h-11.6v-18.9h11.44v3.08h-8.2v4.6z"/>
      <path d="M989.8 428.33h6.2c3.76 0 6.27 2.43 6.27 5.88 0 2.83-1.51 5-4.21 5.67l4.72 7.34H999l-4.48-7.13h-1.48v7.13h-3.24v-18.9zm9.17 5.88c0-1.86-1.3-2.8-3.37-2.8h-2.56v5.6h2.56c2.08 0 3.37-.94 3.37-2.8z"/>
      <path d="M1008.53 428.33l6.16 9.5 6.15-9.5h3v18.9h-3.24v-12.7l-5.91 9-5.91-9v12.7h-3.24v-18.9h3z"/>
      <path d="M1033.83 439.34c-2.78-.97-5.91-2.48-5.91-6 0-2.67 2.37-5.34 6.18-5.34 3.94 0 6.16 3 6.16 3l-2.24 2.21s-1.57-2.13-3.92-2.13c-1.62 0-2.89 1-2.89 2.27 0 1.64 1.49 2.16 4.08 3.13 2.89 1.08 5.29 2.37 5.29 5.8 0 3.43-3.02 5.26-6.59 5.26-4.72 0-6.9-3.86-6.9-3.86l2.42-2.05s1.62 2.84 4.48 2.84c1.62 0 3.3-.65 3.3-2.19 0-1.6-1.22-2.16-3.46-2.94z"/>
    </g>
    <rect width="110.22" height="17.06" x="953.98" y="468.87" fill="#E3E8EB"/>
    <rect width="230.07" height="17.06" x="834.13" y="527.86" fill="#E3E8EB"/>
    <rect width="151.29" height="17.06" x="834.13" y="498.36" fill="#E3E8EB"/>
    <rect width="48.19" height="17.06" x="834.13" y="557.35" fill="#E3E8EB"/>
    <rect width="110.22" height="17.06" x="953.98" y="616.34" fill="#E3E8EB" transform="rotate(-180 1009.1 624.87)"/>
    <rect width="65.16" height="17.06" x="999.04" y="660.69" fill="#E3E8EB" transform="rotate(-180 1031.62 669.22)"/>
    <rect width="48.19" height="17.06" x="834.13" y="616.34" fill="#E3E8EB" transform="rotate(-180 858.23 624.87)"/>
    <g id="l2-1">
      <rect id="lns2-1" width="100.44" height="17.06" x="839.22" y="473.87" fill="#595963" opacity=".2"/>
      <rect id="ln2-1" width="100.44" height="17.06" x="834.22" y="468.87" fill="#E3E8EB"/>
    </g>
    <g id="l2-2">
      <rect id="lns2-2" width="59.66" height="17.06" x="1009.54" y="503.36" fill="#595963" opacity=".2"/>
      <rect id="ln2-2" width="59.66" height="17.06" x="1004.54" y="498.36" fill="#E3E8EB"/>
    </g>
    <g id="l2-3">
      <rect id="lns2-3" width="163.22" height="17.06" x="905.98" y="562.35" fill="#595963" opacity=".2"/>
      <rect id="ln2-3" width="163.22" height="17.06" x="900.98" y="557.35" fill="#E3E8EB"/>
    </g>
    <g id="l2-4">
      <rect id="lns2-4" width="230.07" height="17.06" x="839.13" y="591.85" fill="#595963" opacity=".2"/>
      <rect id="ln2-4" width="230.07" height="17.06" x="834.13" y="586.85" fill="#E3E8EB"/>
    </g>
    <g id="l2-5">
      <rect id="lns2-5" width="33.68" height="17.06" x="905.98" y="621.34" fill="#595963" opacity=".2" transform="rotate(-180 922.82 629.87)"/>
      <rect id="ln2-5" width="33.68" height="17.06" x="900.98" y="616.34" fill="#E3E8EB" transform="rotate(-180 917.82 624.87)"/>
    </g>
  </g>
  <g id="invoice">
    <rect width="264.98" height="341.5" x="1167.93" y="387.51" fill="#325DCC" opacity=".4"/>
    <rect width="264.98" height="341.5" x="1155.17" y="375.07" fill="#FFF" stroke="#325DCC" stroke-miterlimit="10" stroke-width="7"/>
    <rect width="264.98" height="341.5" x="1141.76" y="360.81" fill="#FFF" stroke="#325DCC" stroke-miterlimit="10" stroke-width="7"/>
    <g fill="#335CCC">
      <path d="M1161.59 397.08h3.24v18.9h-3.24v-18.9z"/>
      <path d="M1172.12 397.08l9.44 13.02v-13.02h3.24v18.9h-2.91l-9.45-12.98v12.98h-3.24v-18.9h2.92z"/>
      <path d="M1195.3 416.63l-8.44-19.55h3.54l5.02 12.12 4.96-12.12h3.38l-8.45 19.55z"/>
      <path d="M1223.41 406.53c0 5.59-4.05 9.77-9.55 9.77s-9.56-4.18-9.56-9.77 4.05-9.77 9.56-9.77 9.55 4.18 9.55 9.77zm-3.3 0c0-3.64-2.45-6.7-6.25-6.7-3.81 0-6.27 3.06-6.27 6.7s2.46 6.7 6.27 6.7c3.8 0 6.26-3.05 6.26-6.7z"/>
      <path d="M1226.71 397.08h3.24v18.9h-3.24v-18.9z"/>
      <path d="M1247.93 410.96l2.16 2.13s-2.48 3.21-7.26 3.21c-5.45 0-9.58-4.18-9.58-9.77s4.13-9.77 9.58-9.77c4.53 0 6.99 2.97 6.99 2.97l-2.19 2.13s-1.7-2.08-4.8-2.08c-3.73 0-6.3 3.1-6.3 6.75s2.57 6.75 6.3 6.75c3.32 0 5.1-2.32 5.1-2.32z"/>
      <path d="M1255.82 404.75h7.55v3.08h-7.55v5.07h8.36v3.08h-11.6v-18.9h11.44v3.08h-8.2v4.59z"/>
    </g>
    <rect width="177.56" height="102.03" x="1180.61" y="543.43" fill="none" stroke="#E3E8EB" stroke-linecap="round" stroke-miterlimit="10" stroke-width="7"/>
    <line x1="1180.61" x2="1358.18" y1="571.9" y2="571.9" fill="none" stroke="#E3E8EB" stroke-linecap="round" stroke-miterlimit="10" stroke-width="7"/>
    <line x1="1199.86" x2="1251.42" y1="594.42" y2="594.42" fill="none" stroke="#E3E8EB" stroke-miterlimit="10" stroke-width="7"/>
    <line x1="1199.86" x2="1251.42" y1="614.03" y2="614.03" fill="none" stroke="#E3E8EB" stroke-miterlimit="10" stroke-width="7"/>
    <rect width="230.07" height="17.06" x="1159.21" y="439.38" fill="#E3E8EB"/>
    <g id="l3-1">
      <rect id="lns3-1" width="115.03" height="17.06" x="1164.21" y="473.87" fill="#595963" opacity=".2"/>
      <rect id="ln3-1" width="115.03" height="17.06" x="1159.21" y="468.87" fill="#E3E8EB"/>
    </g>
    <g id="l3-2">
      <rect id="lns3-2" width="86.53" height="17.06" x="1164.21" y="503.36" fill="#595963" opacity=".2"/>
      <rect id="ln3-2" width="86.53" height="17.06" x="1159.21" y="498.36" fill="#E3E8EB"/>
    </g>
    <g id="l3-3">
      <rect id="lns3-3" width="25.78" height="7" x="1316.81" y="595.93" fill="#595963" opacity=".2"/>
      <rect id="ln3-3" width="25.78" height="7" x="1311.81" y="590.93" fill="#E3E8EB"/>
    </g>
  </g>
  </g>
  <g id="transporter">
    <path fill="#E8EEF0" d="M1613.03 557.9h331.54a48.05 48.05 0 0146.44 35.76c-.43-24.9-25.55-44.99-51.66-44.99h-321.1c-26.1 0-51.23 20.08-51.66 44.99a48.05 48.05 0 0146.44-35.77z"/>
    <path fill="#FAFAFA" stroke="#CFD4D6" stroke-miterlimit="10" stroke-width="2.72" d="M1944.57 557.9h-331.54a48.03 48.03 0 00-48.03 48.03v4.88a48.03 48.03 0 0048.03 48.03h331.54a48.03 48.03 0 0048.03-48.03v-4.89a48.03 48.03 0 00-48.03-48.03z"/>
    <circle cx="1616.42" cy="608.37" r="45.57" fill="#E3E8EB"/>
    <circle cx="1616.42" cy="608.37" r="27.73" fill="#CDD1D4"/>
    <circle cx="1778.8" cy="608.37" r="45.57" fill="#E3E8EB"/>
    <circle cx="1778.8" cy="608.37" r="27.73" fill="#CDD1D4"/>
    <circle cx="1941.18" cy="608.37" r="45.57" fill="#E3E8EB"/>
    <circle cx="1941.18" cy="608.37" r="27.73" fill="#CDD1D4"/>
  <g id="bx1">
    <polygon fill="#A1B4E6" points="1469.26 495.49 1429.86 495.49 1425.86 505.11 1473.26 505.11"/>
    <rect width="47.4" height="47.4" x="1425.86" y="505.11" fill="#325DCC"/>
  </g>
  <g id="bx2">
    <polygon fill="#A1B4E6" points="1562.84 495.49 1523.45 495.49 1519.45 505.11 1566.84 505.11"/>
    <rect width="47.4" height="47.4" x="1519.45" y="505.11" fill="#325DCC"/>
  </g>
  <g id="bx3">
    <polygon fill="#A1B4E6" points="1656.43 495.49 1617.03 495.49 1613.03 505.11 1660.43 505.11"/>
    <rect width="47.4" height="47.4" x="1613.03" y="505.11" fill="#325DCC"/>
  </g>
  <g id="bx4">
    <polygon fill="#A1B4E6" points="1750.01 495.49 1710.62 495.49 1706.62 505.11 1754.01 505.11"/>
    <rect width="47.4" height="47.4" x="1706.62" y="505.11" fill="#325DCC"/>
  </g>
  <g id="bx5">
    <polygon fill="#A1B4E6" points="1843.59 495.49 1804.2 495.49 1800.2 505.11 1847.59 505.11"/>
    <rect width="47.4" height="47.4" x="1800.2" y="505.11" fill="#325DCC"/>
  </g>
  <g id="bx6">
    <polygon fill="#A1B4E6" points="1937.18 495.49 1897.78 495.49 1893.78 505.11 1941.18 505.11"/>
    <rect width="47.4" height="47.4" x="1893.78" y="505.11" fill="#325DCC"/>
  </g>
  <g id="bx7">
    <polygon fill="#A1B4E6" points="2030.76 495.49 1991.37 495.49 1987.37 505.11 2034.76 505.11"/>
    <rect width="47.4" height="47.4" x="1987.37" y="505.11" fill="#325DCC"/>
  </g>
  </g>
  <g id="box-front">
    <rect width="1113.01" height="296.52" x="403.5" y="650" fill="#E8EDF0"/>
    <g fill="#595963">
      <path d="M524.29 858.44l2.88 2.84s-3.31 4.29-9.68 4.29c-7.28 0-12.78-5.58-12.78-13.03s5.5-13.03 12.78-13.03c6.04 0 9.32 3.96 9.32 3.96l-2.92 2.84s-2.27-2.77-6.4-2.77c-4.97 0-8.4 4.14-8.4 9s3.43 9 8.4 9c4.42 0 6.8-3.1 6.8-3.1z"/>
      <path d="M554.53 852.54c0 7.45-5.4 13.03-12.74 13.03s-12.75-5.58-12.75-13.03 5.4-13.03 12.75-13.03 12.74 5.58 12.74 13.03zm-4.4 0c0-4.86-3.27-8.93-8.34-8.93s-8.36 4.07-8.36 8.93 3.28 8.92 8.36 8.92 8.35-4.06 8.35-8.92z"/>
      <path d="M562.3 839.94l12.6 17.35v-17.35h4.32v25.2h-3.88l-12.6-17.32v17.31h-4.32v-25.2h3.89z"/>
      <path d="M589.34 844.04h-6.95v-4.1h18.22v4.1h-6.95v21.1h-4.32v-21.1z"/>
      <path d="M603.78 839.94h8.28c5 0 8.35 3.24 8.35 7.85 0 3.77-2.02 6.65-5.62 7.55l6.3 9.8h-5.04l-5.97-9.5h-1.98v9.5h-4.32v-25.2zm12.24 7.85c0-2.49-1.73-3.75-4.5-3.75h-3.42v7.49h3.42c2.77 0 4.5-1.26 4.5-3.74z"/>
      <path d="M632.1 839.94h4.4l9.8 25.2h-4.36l-2.3-5.98h-10.66l-2.3 5.98h-4.36l9.79-25.2zm-1.58 15.26h7.56l-3.78-9.83-3.77 9.83z"/>
      <path d="M667.03 858.44l2.88 2.84s-3.31 4.29-9.69 4.29c-7.27 0-12.77-5.58-12.77-13.03s5.5-13.03 12.77-13.03c6.05 0 9.33 3.96 9.33 3.96l-2.92 2.84s-2.27-2.77-6.4-2.77c-4.97 0-8.4 4.14-8.4 9s3.43 9 8.4 9c4.42 0 6.8-3.1 6.8-3.1z"/>
      <path d="M678 844.04h-6.94v-4.1h18.22v4.1h-6.95v21.1H678v-21.1z"/>
    </g>
    <g fill="none" stroke="#325DCC" stroke-miterlimit="10" stroke-width="7">
      <polygon points="632.32 797.29 560.95 797.29 560.95 729.75 581.39 707.29 632.32 707.29"/>
      <polyline points="560.95 729.75 581.39 729.75 581.39 707.29"/>
    </g>
    <g fill="#595963">
      <path d="M914.62 854.63c-3.7-1.3-7.88-3.32-7.88-8 0-3.56 3.17-7.12 8.24-7.12 5.26 0 8.2 4 8.2 4l-2.98 2.94s-2.09-2.84-5.22-2.84c-2.16 0-3.85 1.33-3.85 3.02 0 2.2 1.98 2.88 5.44 4.18 3.85 1.44 7.05 3.17 7.05 7.74s-4.03 7.02-8.78 7.02c-6.3 0-9.22-5.15-9.22-5.15l3.24-2.73s2.16 3.77 5.98 3.77c2.16 0 4.39-.86 4.39-2.91 0-2.13-1.62-2.88-4.6-3.92z"/>
      <path d="M928.05 839.94h8.57c5 0 8.35 3.45 8.35 8.06s-3.35 8.06-8.35 8.06h-4.25v9.07h-4.32v-25.2zm12.53 8.06c0-2.37-1.55-3.96-4.5-3.96h-3.71v7.92h3.7c2.96 0 4.5-1.58 4.5-3.96z"/>
      <path d="M952.75 850.16h10.07v4.1h-10.08v6.77h11.16v4.1h-15.47v-25.19h15.26v4.1h-10.95v6.12z"/>
      <path d="M971.97 839.94l12.6 17.35v-17.35h4.32v25.2H985l-12.6-17.32v17.31h-4.32v-25.2h3.89z"/>
      <path d="M1014.8 852.54c0 7.27-5.1 12.6-12.45 12.6h-8.13v-25.2h8.13c7.35 0 12.46 5.33 12.46 12.6zm-4.38 0c0-4.61-3.1-8.5-8-8.5h-3.88v17h3.88c4.9 0 8-3.93 8-8.5z"/>
    </g>
    <g fill="none" stroke="#325DCC" stroke-miterlimit="10" stroke-width="7">
      <path d="M998.04 763.32c.55.85.83 1.74.83 2.64 0 7.25-18.22 13.13-40.7 13.13-22.48 0-40.7-5.88-40.7-13.13 0-3.15 3.44-6.04 9.19-8.3"/>
      <path d="M917.46 765.96v16.07c0 7.25 18.23 13.12 40.7 13.12 22.49 0 40.71-5.87 40.71-13.12v-16.07"/>
      <path d="M992.01 728.59c9.34 2.4 15.33 6.1 15.33 10.26 0 7.25-18.23 13.13-40.7 13.13-14.4 0-27.04-2.41-34.28-6.04"/>
      <path d="M925.93 744.8v10.11c0 7.25 18.22 13.13 40.7 13.13 22.48 0 40.7-5.88 40.7-13.13v-16.06"/>
      <ellipse cx="951.24" cy="718.28" rx="40.7" ry="13.13"/>
      <path d="M910.53 718.28v16.06c0 7.25 18.23 13.13 40.7 13.13 22.49 0 40.71-5.88 40.71-13.13v-16.06"/>
    </g>
    <g>
      <g fill="#595963">
        <path d="M1166 839.94h8.56c5 0 8.35 3.45 8.35 8.06s-3.34 8.06-8.35 8.06h-4.24v9.07H1166v-25.2zm12.52 8.06c0-2.37-1.55-3.96-4.5-3.96h-3.7v7.92h3.7c2.95 0 4.5-1.58 4.5-3.96z"/>
        <path d="M1190.7 850.16h10.07v4.1h-10.08v6.77h11.16v4.1h-15.48v-25.19h15.26v4.1h-10.94v6.12z"/>
        <path d="M1206.03 839.94h8.28c5 0 8.35 3.24 8.35 7.85 0 3.77-2.02 6.65-5.62 7.55l6.3 9.8h-5.04l-5.97-9.5h-1.98v9.5h-4.32v-25.2zm12.24 7.85c0-2.49-1.73-3.75-4.5-3.75h-3.42v7.49h3.42c2.77 0 4.5-1.26 4.5-3.74z"/>
        <path d="M1231.33 850.2h9.9v4.1h-9.9v10.84h-4.31v-25.2h14.93v4.1h-10.61v6.16z"/>
        <path d="M1270.03 852.54c0 7.45-5.4 13.03-12.74 13.03s-12.74-5.58-12.74-13.03 5.4-13.03 12.74-13.03 12.74 5.58 12.74 13.03zm-4.39 0c0-4.86-3.27-8.93-8.35-8.93s-8.35 4.07-8.35 8.93 3.27 8.92 8.35 8.92c5.07 0 8.35-4.06 8.35-8.92z"/>
        <path d="M1273.92 839.94h8.28c5 0 8.35 3.24 8.35 7.85 0 3.77-2.01 6.65-5.61 7.55l6.3 9.8h-5.04l-5.98-9.5h-1.98v9.5h-4.32v-25.2zm12.24 7.85c0-2.49-1.73-3.75-4.5-3.75h-3.42v7.49h3.42c2.77 0 4.5-1.26 4.5-3.74z"/>
        <path d="M1298.9 839.94l8.21 12.67 8.2-12.67h4v25.2H1315v-16.92l-7.88 11.98-7.88-11.98v16.91h-4.32v-25.2h4z"/>
        <path d="M1331.99 839.94h4.39l9.79 25.2h-4.35l-2.3-5.98h-10.66l-2.3 5.98h-4.36l9.79-25.2zm-1.59 15.26h7.56l-3.78-9.83-3.78 9.83z"/>
        <path d="M1352.94 839.94l12.6 17.35v-17.35h4.32v25.2h-3.9l-12.59-17.32v17.31h-4.32v-25.2h3.89z"/>
        <path d="M1393.33 858.44l2.88 2.84s-3.31 4.29-9.68 4.29c-7.28 0-12.78-5.58-12.78-13.03s5.5-13.03 12.78-13.03c6.04 0 9.32 3.96 9.32 3.96l-2.92 2.84s-2.27-2.77-6.4-2.77c-4.97 0-8.4 4.14-8.4 9s3.43 9 8.4 9c4.42 0 6.8-3.1 6.8-3.1z"/>
        <path d="M1403.84 850.16h10.08v4.1h-10.08v6.77H1415v4.1h-15.48v-25.19h15.27v4.1h-10.95v6.12z"/>
      </g>
      <g fill="none" stroke="#325DCC" stroke-linecap="round" stroke-linejoin="round" stroke-miterlimit="10" stroke-width="7">
        <path d="M1349.68 741.98a67.59 67.59 0 018.13 32.24"/>
        <path d="M1222.04 774.22a67.89 67.89 0 0199.29-60.2"/>
        <path d="M1298.49 782.78c4.73-4.73 42.95-60.07 42.95-60.07s-55.35 38.22-60.08 42.95a12.11 12.11 0 1017.13 17.13z"/>
      </g>
    </g>
  </g>
  <use id="optimal-front" href="#optimal-frnt"/>
  <g id="monitor">
    <rect width="938.52" height="537.29" x="490.74" y="158.65" fill="#FFF"/>
    <path fill="#2B292B" d="M1436.15 124.37h-952.3a27.38 27.38 0 00-27.38 27.38v577.73h1007.06V151.75a27.38 27.38 0 00-27.38-27.38zm-14.87 562.75H498.72V167.47h922.56v519.65z"/>
    <path fill="#D4D8DB" d="M456.47 729.48v64.19a27.38 27.38 0 0027.38 27.38h277.3l49.63-91.57H456.47z"/>
    <path fill="#E3E8EB" d="M810.78 729.48l-49.62 91.56h675a27.38 27.38 0 0027.37-27.37v-64.2H810.78z"/>
    <rect width="325.5" height="27.84" x="797.69" y="927.8" fill="#E3E8EB"/>
    <polygon fill="#D4D8DB" points="1054.64 821.04 866.24 821.04 857.28 855.96 1063.6 855.96"/>
    <polygon fill="#D4D8DB" points="841.53 917.32 838.84 927.8 1082.03 927.8 1079.34 917.32"/>
    <polygon fill="#E3E8EB" points="1063.6 855.96 857.28 855.96 841.53 917.32 1079.34 917.32"/>
  </g>
  <use id="optimal-front2" href="#optimal-frnt" transform="translate(-1470 0)"/>
  <g id="graph-lines">
    <g fill="none" stroke="#CDD1D4" stroke-miterlimit="10" stroke-width="2.72">
      <line x1="608.78" x2="612.86" y1="278.32" y2="278.32"/>
      <line x1="621.08" x2="1356.17" y1="278.32" y2="278.32" stroke-dasharray="8.21 8.21"/>
      <line x1="1360.27" x2="1364.36" y1="278.32" y2="278.32"/>
    </g>
    <g fill="none" stroke="#CDD1D4" stroke-miterlimit="10" stroke-width="2.72">
      <line x1="608.78" x2="612.86" y1="345" y2="345"/>
      <line x1="621.08" x2="1356.17" y1="345" y2="345" stroke-dasharray="8.21 8.21"/>
      <line x1="1360.27" x2="1364.36" y1="345" y2="345"/>
    </g>
    <g fill="none" stroke="#CDD1D4" stroke-miterlimit="10" stroke-width="2.72">
      <line x1="608.78" x2="612.86" y1="411.67" y2="411.67"/>
      <line x1="621.08" x2="1356.17" y1="411.67" y2="411.67" stroke-dasharray="8.21 8.21"/>
      <line x1="1360.27" x2="1364.36" y1="411.67" y2="411.67"/>
    </g>
    <g fill="none" stroke="#CDD1D4" stroke-miterlimit="10" stroke-width="2.72">
      <line x1="608.78" x2="612.86" y1="478.35" y2="478.35"/>
      <line x1="621.08" x2="1356.17" y1="478.35" y2="478.35" stroke-dasharray="8.21 8.21"/>
      <line x1="1360.27" x2="1364.36" y1="478.35" y2="478.35"/>
    </g>
    <g fill="none" stroke="#CDD1D4" stroke-miterlimit="10" stroke-width="2.72">
      <line x1="608.78" x2="612.86" y1="545.02" y2="545.02"/>
      <line x1="621.08" x2="1356.17" y1="545.02" y2="545.02" stroke-dasharray="8.21 8.21"/>
      <line x1="1360.27" x2="1364.36" y1="545.02" y2="545.02"/>
    </g>
    <g fill="none" stroke="#CDD1D4" stroke-miterlimit="10" stroke-width="2.72">
      <line x1="608.78" x2="612.86" y1="611.7" y2="611.7"/>
      <line x1="621.08" x2="1356.17" y1="611.7" y2="611.7" stroke-dasharray="8.21 8.21"/>
      <line x1="1360.27" x2="1364.36" y1="611.7" y2="611.7"/>
    </g>
  </g>
  <g id="ttl-savings" fill="#335CCC">
    <path d="M622.31 218.43c-4.7-1.64-10.01-4.2-10.01-10.15 0-4.53 4.02-9.05 10.47-9.05 6.68 0 10.43 5.07 10.43 5.07l-3.8 3.75s-2.65-3.61-6.63-3.61c-2.74 0-4.9 1.69-4.9 3.84 0 2.79 2.52 3.66 6.91 5.3 4.9 1.83 8.96 4.03 8.96 9.84 0 5.8-5.12 8.92-11.15 8.92-8 0-11.71-6.54-11.71-6.54l4.11-3.48s2.75 4.8 7.6 4.8c2.74 0 5.57-1.1 5.57-3.7 0-2.7-2.05-3.66-5.85-4.99z"/>
    <path d="M659.45 210.1v21.69h-5.08v-2.84s-1.88 3.39-6.54 3.39c-5.62 0-10.56-4.72-10.56-11.4s4.94-11.38 10.56-11.38a7.77 7.77 0 016.54 3.38v-2.83h5.08zm-5.5 7.6s-1.6-3.02-5.11-3.02c-3.7 0-6 2.7-6 6.27 0 3.56 2.3 6.26 6 6.26 3.52 0 5.12-3.02 5.12-3.02v-6.49z"/>
    <path d="M668.36 210.1l5.49 11.8 5.49-11.8h5.9l-11.48 22.78-11.48-22.77h6.08z"/>
    <path d="M691.69 199.5a3.6 3.6 0 013.6 3.61 3.6 3.6 0 01-3.6 3.61 3.6 3.6 0 01-3.62-3.6c0-2.02 1.6-3.62 3.62-3.62zm-2.75 10.6h5.49v21.69h-5.49V210.1z"/>
    <path d="M720.36 217.75v14.04h-5.49v-12.67c0-3.11-1.92-4.44-4.3-4.44-2.83 0-4.3 2.8-4.3 2.8v14.3h-5.48v-21.67h5.12v3.15s1.92-3.7 6.5-3.7c4.2 0 7.95 2.97 7.95 8.19z"/>
    <path d="M734.95 232.33c-5.63 0-10.57-4.7-10.57-11.38s4.94-11.39 10.57-11.39a7.77 7.77 0 016.54 3.38v-2.83h5.07v21.86c0 7.54-5.58 10.88-11.66 10.88-6.22 0-10.29-4.11-10.29-4.11l3.11-4.21s3.02 3.2 7.18 3.2c4.25 0 6.17-2.33 6.17-5.58v-2.6a7.73 7.73 0 01-6.12 2.78zm6.12-14.63s-1.55-3.02-5.16-3.02c-3.7 0-5.95 2.7-5.95 6.27 0 3.56 2.24 6.26 5.95 6.26a6.1 6.1 0 005.16-3.02v-6.49z"/>
    <path d="M753.74 224.42s2.88 3.11 6.54 3.11c2.24 0 4.12-.64 4.12-1.96 0-1.42-1.01-1.7-4.3-2.38-4.3-.92-8.05-2.75-8.05-6.86 0-3.39 3.38-6.77 9.33-6.77 4.9 0 8.14 2.65 8.14 2.65l-2.75 4.02s-2.47-1.87-5.4-1.87c-2.05 0-3.93.73-3.93 2.06s1.47 1.64 5.13 2.42c4.3.92 7.36 2.33 7.36 6.82 0 3.7-3.94 6.67-9.47 6.67-6.35 0-9.78-3.93-9.78-3.93l3.06-3.98z"/>
    <path d="M786.35 217.88h12.2v5.22h-12.2v-5.22z"/>
    <path d="M826.36 204.35c-4.16 0-5.44 3.89-5.44 3.89l-4.76-2.25s2.47-6.77 10.2-6.77c5.85 0 10.34 3.7 10.34 9.6 0 4.58-3.94 6.73-3.94 6.73s4.71 1.2 4.71 7.32c0 5.8-4.84 9.47-11.06 9.47-8.92 0-11.2-7.41-11.2-7.41l4.47-2.6s1.42 4.88 6.73 4.88c3.47 0 5.58-1.87 5.58-4.34 0-3.38-2.93-4.53-5.81-4.53h-2.29v-5.03h1.74c3.34 0 5.53-1.23 5.53-4.48 0-2.56-1.96-4.48-4.8-4.48z"/>
    <path d="M850.05 199.77h4.53v32.02h-5.5v-24.7l-5.62 4.48-3.15-4.02 9.74-7.78z"/>
    <path d="M875.7 206.5a7.32 7.32 0 01-7.4 7.27c-4.07 0-7.41-3.2-7.41-7.27s3.34-7.27 7.4-7.27c4.08 0 7.41 3.2 7.41 7.27zm9.79-8.14l2.6 1.78-21.53 33.1-2.6-1.78 21.53-33.1zm-13.5 8.14c0-2.1-1.55-3.75-3.7-3.75a3.65 3.65 0 00-3.74 3.75 3.63 3.63 0 003.75 3.75c2.14 0 3.7-1.6 3.7-3.75zm19.44 18.56a7.32 7.32 0 01-7.4 7.27c-4.07 0-7.41-3.2-7.41-7.27a7.32 7.32 0 017.4-7.27c4.08 0 7.41 3.2 7.41 7.27zm-3.7 0c0-2.1-1.55-3.75-3.7-3.75a3.65 3.65 0 00-3.75 3.75 3.63 3.63 0 003.75 3.75c2.15 0 3.7-1.6 3.7-3.75z"/>
  </g>
  <g id="ttl-savings2" fill="#335CCC">
    <path d="M983.01 218.43c-4.7-1.64-10.01-4.2-10.01-10.15 0-4.53 4.02-9.05 10.47-9.05 6.68 0 10.43 5.07 10.43 5.07l-3.8 3.75s-2.65-3.61-6.63-3.61c-2.74 0-4.9 1.69-4.9 3.84 0 2.79 2.52 3.66 6.91 5.3 4.9 1.83 8.97 4.03 8.97 9.84 0 5.8-5.13 8.92-11.16 8.92-8 0-11.7-6.54-11.7-6.54l4.1-3.48s2.75 4.8 7.6 4.8c2.74 0 5.58-1.1 5.58-3.7 0-2.7-2.06-3.66-5.86-4.99z"/>
    <path d="M1020.15 210.1v21.69h-5.08v-2.84s-1.87 3.39-6.54 3.39c-5.62 0-10.56-4.72-10.56-11.4s4.94-11.38 10.56-11.38a7.77 7.77 0 016.54 3.38v-2.83h5.08zm-5.5 7.6s-1.6-3.02-5.11-3.02c-3.7 0-6 2.7-6 6.27 0 3.56 2.3 6.26 6 6.26 3.52 0 5.12-3.02 5.12-3.02v-6.49z"/>
    <path d="M1029.07 210.1l5.48 11.8 5.49-11.8h5.9l-11.48 22.78-11.48-22.77h6.09z"/>
    <path d="M1052.39 199.5a3.6 3.6 0 013.61 3.61 3.6 3.6 0 01-3.61 3.61 3.6 3.6 0 01-3.61-3.6c0-2.02 1.6-3.62 3.6-3.62zm-2.75 10.6h5.5v21.69h-5.5V210.1z"/>
    <path d="M1081.06 217.75v14.04h-5.49v-12.67c0-3.11-1.92-4.44-4.3-4.44-2.83 0-4.3 2.8-4.3 2.8v14.3h-5.48v-21.67h5.12v3.15s1.92-3.7 6.5-3.7c4.2 0 7.95 2.97 7.95 8.19z"/>
    <path d="M1095.65 232.33c-5.63 0-10.57-4.7-10.57-11.38s4.94-11.39 10.57-11.39a7.77 7.77 0 016.54 3.38v-2.83h5.07v21.86c0 7.54-5.58 10.88-11.66 10.88-6.22 0-10.29-4.11-10.29-4.11l3.11-4.21s3.02 3.2 7.18 3.2c4.26 0 6.18-2.33 6.18-5.58v-2.6a7.73 7.73 0 01-6.13 2.78zm6.13-14.63s-1.56-3.02-5.17-3.02c-3.7 0-5.95 2.7-5.95 6.27 0 3.56 2.25 6.26 5.95 6.26a6.1 6.1 0 005.17-3.02v-6.49z"/>
    <path d="M1114.44 224.42s2.88 3.11 6.54 3.11c2.24 0 4.12-.64 4.12-1.96 0-1.42-1-1.7-4.3-2.38-4.3-.92-8.05-2.75-8.05-6.86 0-3.39 3.38-6.77 9.33-6.77 4.9 0 8.14 2.65 8.14 2.65l-2.74 4.02s-2.47-1.87-5.4-1.87c-2.06 0-3.93.73-3.93 2.06s1.46 1.64 5.12 2.42c4.3.92 7.36 2.33 7.36 6.82 0 3.7-3.93 6.67-9.47 6.67-6.35 0-9.78-3.93-9.78-3.93l3.06-3.98z"/>
    <path d="M1147.05 217.88h12.2v5.22h-12.2v-5.22z"/>
    <path d="M1186.6 232.29c-7.08-.6-10.51-6.4-10.51-6.4l4.25-3.39s2.2 3.94 6.26 4.62v-9.1c-4.48-1.64-9.1-4.2-9.1-9.74 0-4.2 3.44-8.37 9.1-8.96v-3.84h2.89v3.84c5.58.64 8.69 4.66 8.69 4.66l-4.12 3.43s-1.7-2.24-4.57-2.88v8.96c.13.1.32.14.5.19 4.9 1.83 9 3.98 9 9.74 0 5.26-4.24 8.32-9.5 8.82v3.85h-2.88v-3.8zm0-19.94v-7.82c-2.1.46-3.52 1.97-3.52 3.75 0 1.97 1.24 3.02 3.53 4.07zm2.89 6.72v8c2.1-.36 3.93-1.55 3.93-3.65 0-2.2-1.42-3.3-3.93-4.35z"/>
    <path d="M1216.83 199.77h6.13v19.94h3.52v5.12h-3.52v6.95h-5.49v-6.95h-16.92l16.28-25.06zm.74 19.94v-12.39l-8.05 12.4h8.05z"/>
    <path d="M1241.44 216.88c1.18-1.56 3.7-3.98 3.7-7.6 0-2.56-1.74-4.93-4.76-4.93-4.7 0-5.71 4.66-5.71 4.66l-4.9-1.78s2.06-8 10.61-8c6.9 0 10.25 4.66 10.25 9.97 0 3.97-2.02 6.8-2.8 7.86l-7.36 9.51h10.3v5.22h-21.09l11.76-14.91z"/>
    <path d="M1269.33 199.77h6.13v19.94h3.52v5.12h-3.52v6.95h-5.49v-6.95h-16.92l16.28-25.06zm.73 19.94v-12.39l-8.05 12.4h8.05z"/>
    <path d="M1289.45 228.95l-3.98 10.66-4.2-1.47 3.6-10.79 4.58 1.6z"/>
    <path d="M1314.6 208.46c0 4.26-3.56 6.31-3.56 6.31s4.48 1.79 4.48 7.6c0 5.35-4.03 9.97-10.98 9.97s-10.97-4.62-10.97-9.97c0-5.81 4.48-7.6 4.48-7.6s-3.57-2.05-3.57-6.3c0-4.76 3.39-9.25 10.06-9.25 6.68 0 10.06 4.49 10.06 9.24zm-4.62 13.81c0-2.6-1.82-4.94-5.44-4.94-3.6 0-5.44 2.34-5.44 4.94s1.83 5.03 5.44 5.03c3.62 0 5.44-2.42 5.44-5.03zm-5.44-18.02c-2.56 0-4.62 1.65-4.62 4.26 0 2.6 2.06 4.25 4.62 4.25s4.62-1.65 4.62-4.25-2.06-4.25-4.62-4.25z"/>
    <path d="M1340.94 208.46c0 4.26-3.56 6.31-3.56 6.31s4.48 1.79 4.48 7.6c0 5.35-4.02 9.97-10.98 9.97-6.95 0-10.97-4.62-10.97-9.97 0-5.81 4.48-7.6 4.48-7.6s-3.57-2.05-3.57-6.3c0-4.76 3.39-9.25 10.06-9.25 6.68 0 10.06 4.49 10.06 9.24zm-4.61 13.81c0-2.6-1.83-4.94-5.44-4.94-3.62 0-5.45 2.34-5.45 4.94s1.83 5.03 5.44 5.03c3.62 0 5.45-2.42 5.45-5.03zm-5.44-18.02c-2.57 0-4.62 1.65-4.62 4.26 0 2.6 2.05 4.25 4.62 4.25 2.56 0 4.61-1.65 4.61-4.25s-2.06-4.25-4.62-4.25z"/>
    <path d="M1354.53 199.77h4.52v32.02h-5.48v-24.7l-5.63 4.48-3.15-4.02 9.74-7.78z"/>
  </g>
  <g id="lbl1" fill="#595963">
    <path d="M555.38 284.32c-3.38-.29-5.01-3.05-5.01-3.05l2.02-1.61s1.05 1.87 2.99 2.2v-4.34c-2.14-.78-4.34-2-4.34-4.64 0-2 1.64-3.99 4.34-4.27v-1.83h1.37v1.83a6.53 6.53 0 014.14 2.22l-1.96 1.63s-.8-1.06-2.18-1.37v4.27c.07.05.15.07.24.09 2.33.87 4.3 1.9 4.3 4.64 0 2.5-2.03 3.97-4.54 4.2v1.84h-1.37v-1.81zm0-9.5v-3.73c-1 .22-1.68.94-1.68 1.79 0 .94.59 1.44 1.68 1.94zm1.37 3.2v3.81c1-.17 1.87-.74 1.87-1.74 0-1.04-.67-1.57-1.87-2.07z"/>
    <path d="M567.1 268.83h2.16v15.25h-2.61V272.3l-2.68 2.14-1.5-1.92 4.63-3.7z"/>
    <path d="M588.7 277.43v6.65h-2.61v-5.97c0-1.42-.55-2.18-1.86-2.18-1.37 0-2.02 1.33-2.02 1.33v6.82h-2.62v-5.97c0-1.42-.54-2.18-1.85-2.18-1.37 0-2.02 1.33-2.02 1.33v6.82h-2.62v-10.33h2.44v1.5s.94-1.76 3.05-1.76c2.49 0 3.2 1.8 3.2 1.8s.88-1.8 3.3-1.8c2.09 0 3.61 1.46 3.61 3.94z"/>
  </g>
  <g id="lbl2" fill="#595963">
    <path d="M532.45 415.05c-3.38-.28-5.01-3.05-5.01-3.05l2.02-1.61s1.05 1.87 2.99 2.2v-4.34c-2.14-.78-4.34-2-4.34-4.64 0-2 1.64-3.99 4.34-4.27v-1.83h1.37v1.83a6.53 6.53 0 014.14 2.22L536 403.2s-.8-1.07-2.18-1.38v4.27c.07.05.15.07.24.1 2.33.86 4.3 1.89 4.3 4.63 0 2.51-2.03 3.97-4.54 4.2v1.84h-1.37v-1.81zm0-9.5v-3.73c-1 .22-1.68.94-1.68 1.79 0 .94.59 1.44 1.68 1.94zm1.37 3.2v3.82c1-.18 1.88-.75 1.88-1.75 0-1.04-.68-1.57-1.88-2.07z"/>
    <path d="M545.57 415.07c-4.03 0-5.34-3.53-5.34-3.53l2.18-1.24s.78 2.33 3.16 2.33c1.77 0 2.79-1.24 2.79-2.83 0-1.63-.98-2.83-3.25-2.83-2.11 0-4.1 1.65-4.1 1.65v-9.06h9.6v2.48h-6.98v2.99s.85-.46 2.16-.46c2.7 0 5.2 1.66 5.2 5.23s-2.78 5.27-5.42 5.27z"/>
    <path d="M564.27 407.19c0 4.14-1.83 7.88-5.7 7.88s-5.76-3.75-5.76-7.89 1.87-7.88 5.75-7.88 5.71 3.74 5.71 7.88zm-2.62 0c0-2.99-.98-5.45-3.09-5.45s-3.14 2.46-3.14 5.44c0 2.99 1.03 5.45 3.14 5.45s3.1-2.46 3.1-5.44z"/>
    <path d="M577.48 407.19c0 4.14-1.83 7.88-5.71 7.88s-5.75-3.75-5.75-7.89 1.87-7.88 5.75-7.88 5.7 3.74 5.7 7.88zm-2.62 0c0-2.99-.98-5.45-3.1-5.45s-3.13 2.46-3.13 5.44c0 2.99 1.02 5.45 3.14 5.45s3.1-2.46 3.1-5.44z"/>
    <path d="M582.58 408.56l3.7-4.08h3.38l-4.53 4.88 4.84 5.45h-3.45l-3.94-4.51v4.51h-2.61v-16.47h2.61v10.22z"/>
  </g>
  <g id="lbl3" fill="#595963">
    <path d="M535.98 545.26c-3.38-.28-5.01-3.05-5.01-3.05l2.03-1.6s1.04 1.87 2.98 2.2v-4.34c-2.14-.79-4.34-2-4.34-4.65 0-2 1.64-3.98 4.34-4.27v-1.83h1.37v1.83a6.53 6.53 0 014.14 2.23l-1.96 1.63s-.8-1.07-2.18-1.37v4.27c.07.04.15.07.24.09 2.33.87 4.3 1.9 4.3 4.64 0 2.5-2.03 3.97-4.54 4.2v1.83h-1.37v-1.8zm0-9.5v-3.72c-1 .22-1.68.94-1.68 1.78 0 .94.6 1.44 1.68 1.94zm1.37 3.2v3.82c1-.17 1.88-.74 1.88-1.74 0-1.05-.68-1.57-1.88-2.07z"/>
    <path d="M547.7 529.77h2.16v15.26h-2.61v-11.77l-2.68 2.13-1.5-1.91 4.64-3.7z"/>
    <path d="M558.78 545.29c-4.03 0-5.34-3.53-5.34-3.53l2.18-1.25s.78 2.34 3.16 2.34c1.76 0 2.79-1.25 2.79-2.84 0-1.63-.98-2.83-3.25-2.83-2.11 0-4.1 1.66-4.1 1.66v-9.07h9.6v2.49h-6.98v2.98s.85-.46 2.16-.46c2.7 0 5.2 1.66 5.2 5.23 0 3.58-2.78 5.28-5.42 5.28z"/>
    <path d="M577.48 537.4c0 4.14-1.83 7.89-5.71 7.89s-5.75-3.75-5.75-7.9c0-4.13 1.87-7.88 5.75-7.88s5.7 3.75 5.7 7.89zm-2.62 0c0-2.99-.98-5.45-3.1-5.45s-3.13 2.46-3.13 5.45c0 2.98 1.02 5.45 3.14 5.45s3.1-2.47 3.1-5.45z"/>
    <path d="M582.58 538.77l3.7-4.07h3.38l-4.53 4.88 4.84 5.45h-3.44l-3.95-4.52v4.52h-2.61v-16.48h2.61v10.22z"/>
  </g>
  <g id="lbl4" fill="#595963">
    <path d="M615.9 634.56h2.62v10.46c0 3.2-1.99 5.06-5.21 5.06-3.05 0-4.47-2.55-4.47-2.55l1.92-1.61s.96 1.67 2.55 1.67c2 0 2.6-1.3 2.6-2.48v-10.55z"/>
    <path d="M631.31 639.49v10.32h-2.42v-1.35s-.9 1.62-3.11 1.62c-2.68 0-5.04-2.25-5.04-5.43s2.36-5.43 5.04-5.43a3.7 3.7 0 013.11 1.62v-1.36h2.42zm-2.61 3.61s-.77-1.43-2.44-1.43c-1.77 0-2.86 1.28-2.86 2.98s1.1 2.99 2.86 2.99c1.67 0 2.44-1.44 2.44-1.44v-3.1z"/>
    <path d="M643.26 643.13v6.68h-2.62v-6.03c0-1.48-.91-2.11-2.05-2.11-1.35 0-2.05 1.32-2.05 1.32v6.82h-2.61V639.5h2.44v1.5s.92-1.76 3.1-1.76c2 0 3.79 1.41 3.79 3.9z"/>
    <path d="M645.87 646.18v-6.7h2.62v5.98c0 1.52.72 2.18 2.05 2.18 1.35 0 2.05-1.27 2.05-1.27v-6.88h2.6v10.33h-2.43v-1.5s-.98 1.76-3.1 1.76a3.71 3.71 0 01-3.79-3.9z"/>
    <path d="M667.69 639.49v10.32h-2.42v-1.35s-.9 1.62-3.12 1.62c-2.68 0-5.03-2.25-5.03-5.43s2.35-5.43 5.03-5.43a3.7 3.7 0 013.12 1.62v-1.36h2.42zm-2.62 3.61s-.76-1.43-2.44-1.43c-1.76 0-2.85 1.28-2.85 2.98s1.09 2.99 2.85 2.99c1.68 0 2.44-1.44 2.44-1.44v-3.1z"/>
    <path d="M677.39 639.55l-.92 2.36s-.47-.24-1.24-.24c-1.59 0-2.3 1.4-2.3 1.4v6.75h-2.62v-10.33h2.48v1.5s.9-1.76 2.81-1.76c.94 0 1.79.32 1.79.32z"/>
    <path d="M679.1 651.97s.69.68 1.36.68c.9 0 1.27-.26 1.77-1.53l.41-1.06-5.03-10.57h2.9l3.48 7.56 2.73-7.56h2.8l-5 12.64c-.9 2.26-2.36 2.96-3.88 2.96-1.57 0-2.77-1.09-2.77-1.09l1.22-2.03z"/>
    <path d="M702.46 642.71c.56-.74 1.76-1.9 1.76-3.62 0-1.22-.83-2.35-2.27-2.35-2.24 0-2.72 2.22-2.72 2.22l-2.33-.85s.98-3.8 5.05-3.8c3.3 0 4.89 2.21 4.89 4.74a6.3 6.3 0 01-1.33 3.75l-3.51 4.53h4.9v2.48h-10.04l5.6-7.1z"/>
    <path d="M720.41 642.19c0 4.14-1.83 7.89-5.7 7.89s-5.76-3.75-5.76-7.9c0-4.13 1.87-7.88 5.75-7.88s5.71 3.75 5.71 7.89zm-2.61 0c0-2.99-.98-5.45-3.1-5.45s-3.13 2.46-3.13 5.45c0 2.98 1.02 5.45 3.13 5.45s3.1-2.47 3.1-5.45z"/>
    <path d="M727.76 642.71c.57-.74 1.77-1.9 1.77-3.62 0-1.22-.83-2.35-2.27-2.35-2.25 0-2.72 2.22-2.72 2.22l-2.34-.85s.98-3.8 5.06-3.8c3.29 0 4.88 2.21 4.88 4.74a6.3 6.3 0 01-1.33 3.75l-3.5 4.53h4.9v2.48h-10.05l5.6-7.1z"/>
    <path d="M738.38 634.56h2.15v15.26h-2.61v-11.77l-2.68 2.13-1.5-1.91 4.64-3.7z"/>
  </g>
  <g id="lbl5" fill="#595963">
    <path d="M924.05 634.56h2.62v10.46c0 3.2-1.99 5.06-5.21 5.06-3.05 0-4.47-2.55-4.47-2.55l1.92-1.61s.96 1.67 2.55 1.67c2 0 2.59-1.3 2.59-2.48v-10.55z"/>
    <path d="M929.59 646.18v-6.7h2.61v5.98c0 1.52.72 2.18 2.05 2.18 1.35 0 2.05-1.27 2.05-1.27v-6.88h2.61v10.33h-2.44v-1.5s-.98 1.76-3.1 1.76a3.71 3.71 0 01-3.78-3.9z"/>
    <path d="M950.86 643.13v6.68h-2.62v-6.03c0-1.48-.91-2.11-2.05-2.11-1.35 0-2.04 1.32-2.04 1.32v6.82h-2.62V639.5h2.44v1.5s.92-1.76 3.1-1.76c2 0 3.79 1.41 3.79 3.9z"/>
    <path d="M963.17 644.6c0 .2 0 .6-.02.99h-7.71c.2.91 1.26 2.09 2.9 2.09 1.8 0 2.83-1.05 2.83-1.05l1.3 1.96s-1.63 1.49-4.14 1.49c-3.13 0-5.55-2.4-5.55-5.43s2.2-5.43 5.19-5.43a5.2 5.2 0 015.2 5.39zm-2.61-.9c-.04-.9-.87-2.1-2.6-2.1-1.67 0-2.44 1.18-2.52 2.1h5.12z"/>
    <path d="M976.67 642.71c.56-.74 1.76-1.9 1.76-3.62 0-1.22-.83-2.35-2.26-2.35-2.25 0-2.73 2.22-2.73 2.22l-2.33-.85s.98-3.8 5.06-3.8c3.29 0 4.88 2.21 4.88 4.74a6.3 6.3 0 01-1.33 3.75l-3.51 4.53h4.9v2.48h-10.04l5.6-7.1z"/>
    <path d="M994.62 642.19c0 4.14-1.83 7.89-5.7 7.89s-5.76-3.75-5.76-7.9c0-4.13 1.88-7.88 5.76-7.88s5.7 3.75 5.7 7.89zm-2.61 0c0-2.99-.98-5.45-3.1-5.45s-3.13 2.46-3.13 5.45c0 2.98 1.02 5.45 3.13 5.45s3.1-2.47 3.1-5.45z"/>
    <path d="M1001.97 642.71c.57-.74 1.77-1.9 1.77-3.62 0-1.22-.83-2.35-2.27-2.35-2.25 0-2.72 2.22-2.72 2.22l-2.34-.85s.98-3.8 5.06-3.8c3.29 0 4.88 2.21 4.88 4.74a6.3 6.3 0 01-1.33 3.75l-3.5 4.53h4.9v2.48h-10.05l5.6-7.1z"/>
    <path d="M1012.59 634.56h2.15v15.26h-2.61v-11.77l-2.68 2.13-1.5-1.91 4.64-3.7z"/>
  </g>
  <g id="lbl6" fill="#595963">
    <path d="M1223.52 642.19c0 4.4-3.1 7.62-7.54 7.62h-4.92v-15.25h4.92c4.45 0 7.54 3.23 7.54 7.63zm-2.66 0c0-2.79-1.87-5.14-4.84-5.14h-2.35v10.28h2.35c2.97 0 4.84-2.37 4.84-5.14z"/>
    <path d="M1235.27 644.6c0 .2 0 .6-.02.99h-7.72c.2.91 1.27 2.09 2.9 2.09 1.81 0 2.83-1.05 2.83-1.05l1.31 1.96s-1.63 1.49-4.14 1.49c-3.14 0-5.56-2.4-5.56-5.43s2.2-5.43 5.2-5.43a5.2 5.2 0 015.2 5.39zm-2.62-.9c-.04-.9-.87-2.1-2.59-2.1-1.68 0-2.44 1.18-2.53 2.1h5.12z"/>
    <path d="M1244.6 646.37l1.72 1.75s-1.48 1.96-4.27 1.96c-3.1 0-5.56-2.4-5.56-5.43a5.44 5.44 0 015.56-5.42 5.54 5.54 0 014.23 1.91l-1.81 1.62s-.85-1.1-2.42-1.1c-1.77 0-2.9 1.38-2.9 2.99s1.13 2.98 2.9 2.98c1.76 0 2.55-1.26 2.55-1.26z"/>
    <path d="M1257.72 644.6c0 .2 0 .6-.02.99h-7.72c.2.91 1.27 2.09 2.9 2.09 1.81 0 2.83-1.05 2.83-1.05l1.31 1.96s-1.63 1.49-4.14 1.49c-3.14 0-5.56-2.4-5.56-5.43s2.2-5.43 5.2-5.43a5.2 5.2 0 015.2 5.39zm-2.62-.9c-.04-.9-.87-2.1-2.59-2.1-1.68 0-2.44 1.18-2.53 2.1h5.12z"/>
    <path d="M1275.24 643.17v6.65h-2.61v-5.98c0-1.41-.55-2.17-1.86-2.17-1.37 0-2.02 1.32-2.02 1.32v6.82h-2.62v-5.97c0-1.41-.54-2.18-1.85-2.18-1.37 0-2.03 1.33-2.03 1.33v6.82h-2.61V639.5h2.44v1.5s.94-1.77 3.05-1.77c2.48 0 3.2 1.81 3.2 1.81s.87-1.8 3.3-1.8c2.09 0 3.61 1.46 3.61 3.94z"/>
    <path d="M1278.17 633.34h2.61v7.24s.96-1.36 2.92-1.36c2.68 0 5.03 2.25 5.03 5.43s-2.35 5.43-5.03 5.43c-2.22 0-3.12-1.62-3.12-1.62v1.36h-2.41v-16.48zm2.61 12.86s.74 1.44 2.46 1.44c1.77 0 2.84-1.29 2.84-2.99s-1.07-2.98-2.84-2.98a2.86 2.86 0 00-2.46 1.43v3.1z"/>
    <path d="M1300.35 644.6c0 .2 0 .6-.02.99h-7.71c.2.91 1.26 2.09 2.9 2.09 1.8 0 2.83-1.05 2.83-1.05l1.3 1.96s-1.63 1.49-4.14 1.49c-3.13 0-5.55-2.4-5.55-5.43s2.2-5.43 5.18-5.43a5.2 5.2 0 015.21 5.39zm-2.61-.9c-.05-.9-.87-2.1-2.6-2.1-1.68 0-2.44 1.18-2.52 2.1h5.12z"/>
    <path d="M1309.35 639.55l-.91 2.36s-.48-.24-1.24-.24c-1.6 0-2.31 1.4-2.31 1.4v6.75h-2.62v-10.33h2.49v1.5s.89-1.76 2.8-1.76c.94 0 1.8.32 1.8.32z"/>
    <path d="M1322.28 642.71c.57-.74 1.76-1.9 1.76-3.62 0-1.22-.82-2.35-2.26-2.35-2.25 0-2.73 2.22-2.73 2.22l-2.33-.85s.98-3.8 5.06-3.8c3.29 0 4.88 2.21 4.88 4.74a6.3 6.3 0 01-1.33 3.75l-3.5 4.53h4.9v2.48h-10.05l5.6-7.1z"/>
    <path d="M1340.24 642.19c0 4.14-1.83 7.89-5.71 7.89s-5.75-3.75-5.75-7.9c0-4.13 1.87-7.88 5.75-7.88s5.7 3.75 5.7 7.89zm-2.62 0c0-2.99-.98-5.45-3.1-5.45s-3.13 2.46-3.13 5.45c0 2.98 1.02 5.45 3.14 5.45s3.1-2.47 3.1-5.45z"/>
    <path d="M1347.59 642.71c.56-.74 1.76-1.9 1.76-3.62 0-1.22-.83-2.35-2.27-2.35-2.24 0-2.72 2.22-2.72 2.22l-2.33-.85s.98-3.8 5.05-3.8c3.3 0 4.89 2.21 4.89 4.74a6.3 6.3 0 01-1.33 3.75l-3.51 4.53h4.9v2.48h-10.05l5.6-7.1z"/>
    <path d="M1358.2 634.56h2.16v15.26h-2.62v-11.77l-2.68 2.13-1.5-1.91 4.64-3.7z"/>
  </g>
  <line id="chart1" x1="669.54" x2="797.74" y1="530.52" y2="441.01" fill="none" stroke="#2B292B" stroke-linecap="round" stroke-miterlimit="10" stroke-width="8.17"/>
  <polyline id="chart2" fill="none" stroke="#325DCC" stroke-linecap="round" stroke-miterlimit="10" stroke-width="8.17" points="797.74 441.01 863.5 464.15 1043.73 488.51 1204.48 448.32 1329.91 382.56"/>
  <polyline id="chart3" fill="none" stroke="#ED704A" stroke-dasharray="21.8 27.25" stroke-linecap="round" stroke-miterlimit="10" stroke-width="8.17" points="1273.89 278.32 1191.09 374.44 1097.32 374.44 960 428.43 797.74 441.01"/>
</svg>
