<svg xmlns="http://www.w3.org/2000/svg" width="100" height="30" viewBox="0 0 100 30">
  <defs>
    <linearGradient id="linear-gradient" x1="-552.66" x2="-554.77" y1="601.21" y2="603.32" gradientTransform="matrix(6 0 0 6 3291.2 -3556.12)" gradientUnits="userSpaceOnUse">
      <stop offset="0" stop-color="#00a0ff"/>
      <stop offset="0" stop-color="#00a1ff"/>
      <stop offset=".26" stop-color="#00beff"/>
      <stop offset=".51" stop-color="#00d2ff"/>
      <stop offset=".76" stop-color="#00dfff"/>
      <stop offset="1" stop-color="#00e3ff"/>
    </linearGradient>
    <linearGradient id="linear-gradient-2" x1="-551.16" x2="-554.19" y1="602.63" y2="602.63" gradientTransform="matrix(6 0 0 6 3291.2 -3556.12)" gradientUnits="userSpaceOnUse">
      <stop offset="0" stop-color="#ffe000"/>
      <stop offset=".41" stop-color="#ffbd00"/>
      <stop offset=".78" stop-color="orange"/>
      <stop offset="1" stop-color="#ff9c00"/>
    </linearGradient>
    <linearGradient id="linear-gradient-3" x1="-552.29" x2="-555.15" y1="602.91" y2="605.78" gradientTransform="matrix(6 0 0 6 3291.2 -3556.12)" gradientUnits="userSpaceOnUse">
      <stop offset="0" stop-color="#ff3a44"/>
      <stop offset="1" stop-color="#c31162"/>
    </linearGradient>
    <linearGradient id="linear-gradient-4" x1="-554.49" x2="-553.21" y1="600.13" y2="601.41" gradientTransform="matrix(6 0 0 6 3291.2 -3556.12)" gradientUnits="userSpaceOnUse">
      <stop offset="0" stop-color="#32a071"/>
      <stop offset=".07" stop-color="#2da771"/>
      <stop offset=".48" stop-color="#15cf74"/>
      <stop offset=".8" stop-color="#06e775"/>
      <stop offset="1" stop-color="#00f076"/>
    </linearGradient>
  </defs>
  <path d="M96.3 30H3.7A3.69 3.69 0 0 1 0 26.25V3.75C0 1.65 1.63 0 3.7 0h92.59c2.07 0 3.7 1.65 3.7 3.75v22.5c0 2.1-1.63 3.75-3.7 3.75Z"/>
  <path fill="#a6a6a6" d="M96.3.6c1.7 0 3.11 1.43 3.11 3.15v22.5a3.15 3.15 0 0 1-3.11 3.15H3.7a3.15 3.15 0 0 1-3.11-3.15V3.75A3.15 3.15 0 0 1 3.7.6h92.59m.01-.6H3.7A3.73 3.73 0 0 0 0 3.75v22.5C0 28.35 1.63 30 3.7 30h92.59c2.07 0 3.7-1.65 3.7-3.75V3.75A3.73 3.73 0 0 0 96.29 0Z"/>
  <path fill="#fff" d="M35.11 7.65c0 .6-.15 1.12-.52 1.5-.44.45-.96.67-1.63.67s-1.19-.23-1.63-.67c-.44-.45-.67-.98-.67-1.65s.22-1.2.67-1.65a2.16 2.16 0 0 1 2.52-.45c.3.15.52.3.67.52l-.37.37c-.3-.38-.67-.52-1.19-.52-.44 0-.89.15-1.19.52-.37.3-.52.75-.52 1.27s.15.98.52 1.27.74.52 1.19.52c.52 0 .89-.15 1.26-.52.22-.23.37-.52.37-.9h-1.63v-.6h2.15v.3Zm3.41-1.88h-2v1.42h1.85v.52h-1.85v1.42h2v.6h-2.59v-4.5h2.59v.52Zm2.44 3.98h-.59V5.77h-1.26v-.52h3.11v.52h-1.26v3.98Zm3.41 0v-4.5h.59v4.5h-.59Zm3.11 0h-.59V5.77h-1.26v-.52h3.04v.52h-1.26v3.98h.07Zm7.04-.6c-.44.45-.96.67-1.63.67s-1.19-.23-1.63-.67c-.44-.45-.67-.98-.67-1.65s.22-1.2.67-1.65c.44-.45.96-.68 1.63-.68s1.19.23 1.63.68c.44.45.67.98.67 1.65s-.22 1.2-.67 1.65Zm-2.82-.38c.3.3.74.52 1.19.52s.89-.15 1.19-.52c.3-.3.52-.75.52-1.27s-.15-.98-.52-1.27c-.3-.3-.74-.52-1.19-.52s-.89.15-1.19.52c-.3.3-.52.75-.52 1.27s.15.98.52 1.27Zm4.3.98v-4.5h.67l2.15 3.52V5.25h.59v4.5h-.59l-2.3-3.67v3.67H56ZM50.44 16.35c-1.78 0-3.19 1.35-3.19 3.22s1.41 3.22 3.19 3.22 3.19-1.35 3.19-3.22-1.41-3.22-3.19-3.22Zm0 5.1c-.96 0-1.78-.83-1.78-1.95s.81-1.95 1.78-1.95 1.78.75 1.78 1.95c0 1.12-.81 1.95-1.78 1.95Zm-6.88-5.1c-1.78 0-3.19 1.35-3.19 3.22s1.41 3.22 3.19 3.22 3.19-1.35 3.19-3.22-1.41-3.22-3.19-3.22Zm0 5.1c-.96 0-1.78-.83-1.78-1.95s.81-1.95 1.78-1.95 1.78.75 1.78 1.95c0 1.12-.81 1.95-1.78 1.95Zm-8.23-4.13v1.35h3.19a2.8 2.8 0 0 1-.74 1.72c-.44.45-1.19.97-2.44.97-2 0-3.48-1.58-3.48-3.6s1.56-3.6 3.48-3.6c1.04 0 1.85.45 2.44.97l.96-.97a4.7 4.7 0 0 0-3.33-1.35c-2.67 0-4.96 2.25-4.96 4.95s2.3 4.95 4.96 4.95c1.48 0 2.52-.45 3.41-1.42a4.54 4.54 0 0 0 1.19-3.15c0-.3 0-.6-.07-.83h-4.59Zm33.63 1.05c-.3-.75-1.04-2.03-2.67-2.03s-2.96 1.28-2.96 3.23c0 1.8 1.33 3.22 3.11 3.22 1.41 0 2.3-.9 2.59-1.42l-1.04-.75c-.37.53-.81.9-1.56.9s-1.19-.3-1.56-.97l4.22-1.8-.15-.37Zm-4.29 1.05c0-1.2.96-1.88 1.63-1.88.52 0 1.04.3 1.19.67l-2.81 1.2Zm-3.48 3.08h1.41v-9.38h-1.41v9.38Zm-2.23-5.47a2.4 2.4 0 0 0-1.7-.75c-1.56 0-3.04 1.42-3.04 3.22s1.41 3.15 3.04 3.15c.74 0 1.33-.38 1.63-.75h.07v.45c0 1.2-.67 1.88-1.7 1.88-.81 0-1.41-.6-1.56-1.12l-1.19.53c.37.82 1.26 1.88 2.81 1.88s2.96-.97 2.96-3.3v-5.7h-1.33v.53Zm-1.63 4.42c-.96 0-1.78-.83-1.78-1.95s.81-1.95 1.78-1.95 1.7.83 1.7 1.95-.74 1.95-1.7 1.95Zm18.08-8.33h-3.33v9.38h1.41v-3.53h1.93c1.56 0 3.04-1.12 3.04-2.92s-1.48-2.92-3.04-2.92Zm.07 4.51h-2v-3.22h2c1.04 0 1.63.9 1.63 1.58-.07.83-.67 1.65-1.63 1.65ZM84 16.28c-1.04 0-2.07.45-2.44 1.42l1.26.53c.3-.53.74-.67 1.26-.67.74 0 1.41.45 1.48 1.2v.08a2.9 2.9 0 0 0-1.41-.37c-1.33 0-2.67.75-2.67 2.1 0 1.28 1.11 2.1 2.3 2.1.96 0 1.41-.45 1.78-.9h.07v.75h1.33v-3.6c-.15-1.65-1.41-2.63-2.96-2.63Zm-.15 5.17c-.44 0-1.11-.22-1.11-.83 0-.75.81-.97 1.48-.97.59 0 .89.15 1.26.3-.15.9-.89 1.5-1.63 1.5Zm7.78-4.95-1.56 4.05H90l-1.63-4.05h-1.48l2.44 5.7-1.41 3.15h1.41l3.78-8.85h-1.48Zm-12.44 6h1.41v-9.38h-1.41v9.38Z"/>
  <path fill="url(#linear-gradient)" d="M7.7 5.62c-.22.23-.3.6-.3 1.05v16.58c0 .45.15.82.37 1.05l.07.07 9.19-9.3v-.15L7.7 5.62Z"/>
  <path fill="url(#linear-gradient-2)" d="m20 18.22-3.04-3.08v-.22L20 11.84l.07.08 3.63 2.1c1.04.6 1.04 1.58 0 2.17L20 18.22Z"/>
  <path fill="url(#linear-gradient-3)" d="M20.07 18.15 16.96 15 7.7 24.38c.37.38.89.38 1.56.07l10.81-6.3"/>
  <path fill="url(#linear-gradient-4)" d="M20.07 11.85 9.26 5.62c-.67-.38-1.19-.3-1.56.07l9.26 9.3 3.11-3.15Z"/>
  <path d="M20 18.08 9.26 24.23c-.59.38-1.11.3-1.48 0l-.07.07.07.07c.37.3.89.38 1.48 0L20 18.07Z" opacity=".2"/>
  <path d="M7.7 24.22c-.22-.22-.3-.6-.3-1.05v.08c0 .45.15.82.37 1.05v-.07H7.7Zm16-8.25-3.7 2.1.07.08 3.63-2.1c.52-.3.74-.67.74-1.05 0 .38-.3.67-.74.97Z" opacity=".12"/>
  <path fill="#fff" d="m9.26 5.7 14.44 8.33c.44.3.74.6.74.97 0-.38-.22-.75-.74-1.05L9.26 5.62c-1.04-.6-1.85-.15-1.85 1.05v.08c0-1.12.81-1.65 1.85-1.05Z" opacity=".25"/>
</svg>
