<svg xmlns="http://www.w3.org/2000/svg" width="48" height="48" viewBox="0 0 48 48">
  <g id="Layer_1-2" fill="#fff">
    <path d="M24 48C10.77 48 0 37.23 0 24S10.77 0 24 0s24 10.77 24 24-10.77 24-24 24m0-44.97C12.43 3.03 3.03 12.43 3.03 24S12.44 44.97 24 44.97 44.97 35.56 44.97 24 35.57 3.03 24 3.03"/>
    <path d="M24 17.02a7 7 0 1 0-.03 14 7 7 0 0 0 .03-14m-.03 2.46a4.53 4.53 0 1 1 .03 9.07 4.53 4.53 0 0 1-.03-9.07m5.67-2.75a1.63 1.63 0 1 1 3.26 0 1.63 1.63 0 0 1-3.26 0m7.88 1.66c-.1-2.18-.6-4.11-2.2-5.71-1.59-1.59-3.52-2.09-5.71-2.2-2.25-.13-8.99-.13-11.24 0-2.18.1-4.11.6-5.71 2.19s-2.09 3.52-2.2 5.71c-.13 2.25-.13 8.99 0 11.24.1 2.18.6 4.11 2.2 5.71s3.52 2.09 5.71 2.2c2.25.13 8.99.13 11.24 0 2.18-.1 4.11-.6 5.71-2.2 1.59-1.59 2.09-3.52 2.2-5.71.13-2.25.13-8.98 0-11.23m-2.9 13.64a4.6 4.6 0 0 1-2.59 2.59c-1.79.71-6.05.55-8.03.55s-6.24.16-8.03-.55a4.6 4.6 0 0 1-2.59-2.59c-.71-1.79-.55-6.05-.55-8.03s-.16-6.24.55-8.03a4.6 4.6 0 0 1 2.59-2.59c1.79-.71 6.05-.55 8.03-.55s6.24-.16 8.03.55a4.6 4.6 0 0 1 2.59 2.59c.71 1.79.55 6.05.55 8.03s.16 6.24-.55 8.03"/>
  </g>
</svg>
