<svg xmlns="http://www.w3.org/2000/svg" width="48" height="48" viewBox="0 0 48 48">
  <g id="Layer_1-2" fill="#fff">
    <path d="M24 48C10.77 48 0 37.23 0 24S10.77 0 24 0s24 10.77 24 24-10.77 24-24 24m0-44.97C12.43 3.03 3.03 12.43 3.03 24S12.44 44.97 24 44.97 44.97 35.56 44.97 24 35.57 3.03 24 3.03"/>
    <path d="M19.75 26.3v11.31h6.17V26.3h4.6l.96-5.2h-5.56v-1.84c0-2.75 1.08-3.8 3.87-3.8.87 0 1.56.02 1.97.06V10.8c-.76-.21-2.62-.42-3.7-.42-5.69 0-8.31 2.69-8.31 8.48v2.24h-3.51v5.2z"/>
  </g>
</svg>
