<svg xmlns="http://www.w3.org/2000/svg" stroke-width="3" stroke="#fff" stroke-linecap="round" stroke-linejoin="round" fill="none" viewBox="0 0 46 46">
<rect x="1.5" y="5.597" width="42" height="39"/>
<line x1="8.43" y1="1.5" x2="8.43" y2="5.597"/>
<line x1="36.612" y1="1.5" x2="36.612" y2="5.597"/>
<line x1="1.5" y1="12.502" x2="43.5" y2="12.502"/>
<line x1="8.5" y1="21.597" x2="10.5" y2="21.597"/>
<line x1="17.35" y1="21.597" x2="19.35" y2="21.597"/>
<line x1="26.199" y1="21.597" x2="28.199" y2="21.597"/>
<line x1="35.049" y1="21.597" x2="37.049" y2="21.597"/>
<line x1="8.5" y1="28.749" x2="10.5" y2="28.749"/>
<line x1="17.35" y1="28.749" x2="19.35" y2="28.749"/>
<line x1="26.199" y1="28.749" x2="28.199" y2="28.749"/>
<line x1="35.049" y1="28.749" x2="37.049" y2="28.749"/>
<line x1="8.5" y1="35.902" x2="10.5" y2="35.902"/>
<line x1="17.35" y1="35.902" x2="19.35" y2="35.902"/>
<line x1="26.199" y1="35.902" x2="28.199" y2="35.902"/>
<line x1="35.049" y1="35.902" x2="37.049" y2="35.902"/>
</svg>
