<svg xmlns="http://www.w3.org/2000/svg" viewBox="0 0 85 53">

<style>
/* <![CDATA[ */

#map {
  transform: translate(42.5px, 28.77px) scale(0) translate(-42.5px, -28.77px);
  animation: map 6s infinite;
}

@keyframes map {
  0% {
    opacity: 0;
    transform: translate(42.5px, 28.77px) scale(0) translate(-42.5px, -28.77px);
  }
  5% {
    opacity: 1;
    transform: translate(42.5px, 28.77px) scale(1.1) translate(-42.5px, -28.77px);
  }
  7%, 100% {
    transform: translate(42.5px, 28.77px) scale(1) translate(-42.5px, -28.77px);
  }
  96% {
    opacity: 1;
  }
  100% {
    opacity: 0;
  }
}

#clp_rect {
  transform: translate(-40px, 0px);
  animation: clp_rect 6s ease-in-out infinite;
}

@keyframes clp_rect {

  0%, 6% {
    transform: translate(-40px, 0px);
  }
  20%, 100% {
    transform: translate(0px, 0px);
  }
  0%, 96% {
    opacity: 1;
  }
  100% {
    opacity: 0;
  }

}

#path {
  animation: path 6s ease-in-out infinite;
}

@keyframes path {
  0%, 96% {
    opacity: 1;
  }
  100% {
    opacity: 0;
  }
}

#shadow {
  transform: translate(56.92px, 30.983px) scale(0) translate(-56.92px, -30.983px);
  animation: shadow 6s infinite;
}

@keyframes shadow {
  0%, 20% {
    opacity: 0;
    transform: translate(56.92px, 30.983px) scale(0) translate(-56.92px, -30.983px);
  }
  25% {
    opacity: 1;
    transform: translate(56.92px, 30.983px) scale(1.1) translate(-56.92px, -30.983px);
  }
  27%, 100% {
    transform: translate(56.92px, 30.983px) scale(1) translate(-56.92px, -30.983px);
  }
  96% {
    opacity: 1;
  }
  100% {
    opacity: 0;
  }
}

#pin {
  transform: translate(56.92px, 28.77px) scale(0) translate(-56.92px, -28.77px);
  animation: pin 6s infinite;
}

@keyframes pin {
  0%, 20% {
    opacity: 0;
    transform: translate(56.92px, 28.77px) scale(0) translate(-56.92px, -28.77px);
  }
  25% {
    opacity: 1;
    transform: translate(56.92px, 28.77px) scale(1.1) translate(-56.92px, -28.77px);
  }
  27%, 100% {
    transform: translate(56.92px, 28.77px) scale(1) translate(-56.92px, -28.77px);
  }
  96% {
    opacity: 1;
  }
  100% {
    opacity: 0;
  }
}

/* ]]> */
</style>

<defs>
  <clipPath id="clp">
    <rect id="clp_rect" width="57" height="53" x="0" y="0"/>
  </clipPath>
</defs>

<g id="map">
  <polygon fill="#CFD4FF" points="68.56 28.66 52.77 28.66 53.56 39.41 70.76 39.41"/>
  <polygon fill="#CFD4FF" points="32.47 28.66 16.68 28.66 14.48 39.41 31.68 39.41"/>
  <polygon fill="#CFD4FF" points="32.54 27.66 33.24 18.14 18.83 18.14 16.88 27.66"/>
  <polygon fill="#CFD4FF" points="33.47 28.66 32.68 39.41 52.55 39.41 51.76 28.66"/>
  <polygon fill="none" stroke="#9AA8FF" stroke-miterlimit="10" points="68.43 15.7 73.79 41.86 11.21 41.86 16.57 15.7"/>
  <g fill="#CFD4FF">
    <polygon points="52.69 27.66 68.35 27.66 66.4 18.14 63.87 18.14 51.99 18.14"/>
    <polygon points="51.23 21.46 50.99 18.14 49.99 18.14 34.25 18.14 33.55 27.66 51.69 27.66 51.23 21.46"/>
  </g>
</g>
<g clip-path="url(#clp)" id="path" fill="none" stroke="#9AA8FF" stroke-miterlimit="10">
  <path d="M18.15 28.21s.25-.41.85-.9"/>
  <path stroke-dasharray="2.45 2.45" d="M21.14 26.14c.85-.3 1.91-.52 3.21-.55 4.68-.12 6.73 6.69 12.53 9 7.82 3.11 14.78-.31 18.06-2.46"/>
  <path d="M55.95 31.42c.63-.47.98-.77.98-.77"/>
</g>
<ellipse id="shadow" cx="56.93" cy="30.99" fill="#9AA8FF" rx="3.31" ry=".94"/>
<g id="pin" fill="#FFF" stroke="#9AA8FF" stroke-miterlimit="10">
  <path d="M56.93 7.2a7.43 7.43 0 0 0-7.43 7.43c0 7.21 7.43 14.15 7.43 14.15s7.43-6.94 7.43-14.15a7.43 7.43 0 0 0-7.43-7.43z"/>
  <path d="M56.93 17.51a2.88 2.88 0 1 1 0-5.76 2.88 2.88 0 0 1 0 5.76z"/>
</g>
</svg>
