<svg xmlns="http://www.w3.org/2000/svg" width="752" height="850" viewBox="0 0 752 850">
<style>
  /* <![CDATA[ */

    #conf {
      transform: translate(376px, 425px) scale(0) translate(-376px, -425px);
      animation: conf 1.3s ease-out forwards;
    }

    @keyframes conf {
      0% {
        transform: translate(376px, 425px) scale(0) translate(-376px, -425px);
      }
      100% {
        transform: translate(376px, 425px) scale(1.6) translate(-376px, -425px);
      }
      0%, 100% {
        opacity: 0;
      }
      5%, 70% {
        opacity: 1;
      }
    }

    #el1 {
      transform: translate(260px, 180px) rotate(0deg) translate(-260px, -180px);
      animation: el1 1.3s ease-out forwards;
    }

    @keyframes el1 {
      0% {
        transform: translate(260px, 180px) rotate(0deg) translate(-260px, -180px);
      }
      100% {
        transform: translate(260px, 180px) rotate(560deg) translate(-260px, -180px);
      }
    }

    #el2 {
      transform: translate(476px, 181px) rotate(0deg) translate(-476px, -181px);
      animation: el2 1.3s ease-out forwards;
    }

    @keyframes el2 {
      0% {
        transform: translate(476px, 181px) rotate(0deg) translate(-476px, -181px);
      }
      100% {
        transform: translate(476px, 181px) rotate(-360deg) translate(-476px, -181px);
      }
    }

    #el3 {
      transform: translate(206px, 235px) rotate(0deg) translate(-206px, -235px);
      animation: el3 1.3s ease-out forwards;
    }

    @keyframes el3 {
      0% {
        transform: translate(206px, 235px) rotate(0deg) translate(-206px, -235px);
      }
      100% {
        transform: translate(206px, 235px) rotate(240deg) translate(-206px, -235px);
      }
    }

    #el4 {
      transform: translate(584px, 230px) rotate(0deg) translate(-584px, -230px);
      animation: el4 1.3s ease-out forwards;
    }

    @keyframes el4 {
      0% {
        transform: translate(584px, 230px) rotate(0deg) translate(-584px, -230px);
      }
      100% {
        transform: translate(584px, 230px) rotate(-300deg) translate(-584px, -230px);
      }
    }

    #el5 {
      transform: translate(120px, 277px) rotate(0deg) translate(-120px, -277px);
      animation: el5 1.3s ease-out forwards;
    }

    @keyframes el5 {
      0% {
        transform: translate(120px, 277px) rotate(0deg) translate(-120px, -277px);
      }
      100% {
        transform: translate(120px, 277px) rotate(-180deg) translate(-120px, -277px);
      }
    }

    #el6 {
      transform: translate(290px, 320px) rotate(0deg) translate(-290px, -272px);
      animation: el6 1.3s ease-out forwards;
    }

    @keyframes el6 {
      0% {
        transform: translate(290px, 272px) rotate(0deg) translate(-290px, -272px);
      }
      100% {
        transform: translate(290px, 272px) rotate(80deg) translate(-290px, -272px);
      }
    }

    #el7 {
      transform: translate(486px, 285px) rotate(0deg) translate(-486px, -285px);
      animation: el7 1.3s ease-out forwards;
    }

    @keyframes el7 {
      0% {
        transform: translate(486px, 285px) rotate(0deg) translate(-486px, -285px);
      }
      100% {
        transform: translate(486px, 285px) rotate(220deg) translate(-486px, -285px);
      }
    }

    #el8 {
      transform: translate(651px, 272px) rotate(0deg) translate(-651px, -272px);
      animation: el8 1.3s ease-out forwards;
    }

    @keyframes el8 {
      0% {
        transform: translate(651px, 272px) rotate(0deg) translate(-651px, -272px);
      }
      100% {
        transform: translate(651px, 272px) rotate(220deg) translate(-651px, -272px);
      }
    }

    #el9 {
      transform: translate(234px, 320px) rotate(0deg) translate(-234px, -320px);
      animation: el9 1.3s ease-out forwards;
    }

    @keyframes el9 {
      0% {
        transform: translate(234px, 320px) rotate(0deg) translate(-234px, -320px);
      }
      100% {
        transform: translate(234px, 320px) rotate(-360deg) translate(-234px, -320px);
      }
    }

    #el15 {
      transform: translate(93px, 434px) rotate(0deg) translate(-93px, -434px);
      animation: el15 1.3s ease-out forwards;
    }

    @keyframes el15 {
      0% {
        transform: translate(93px, 434px) rotate(0deg) translate(-93px, -434px);
      }
      100% {
        transform: translate(93px, 434px) rotate(460deg) translate(-93px, -434px);
      }
    }

    #el16 {
      transform: translate(548px, 425px) rotate(0deg) translate(-548px, -425px);
      animation: el16 1.3s ease-out forwards;
    }

    @keyframes el16 {
      0% {
        transform: translate(548px, 425px) rotate(0deg) translate(-548px, -425px);
      }
      100% {
        transform: translate(580px, 425px) rotate(460deg) translate(-548px, -425px);
      }
    }

    #el17 {
      transform: translate(651px, 440px) rotate(0deg) translate(-651px, -440px);
      animation: el17 1.3s ease-out forwards;
    }

    @keyframes el17 {
      0% {
        transform: translate(651px, 440px) rotate(0deg) translate(-651px, -440px);
      }
      100% {
        transform: translate(651px, 440px) rotate(460deg) translate(-651px, -440px);
      }
    }

    #el18 {
      transform: translate(215px, 477px) rotate(0deg) translate(-215px, -477px);
      animation: el18 1.3s ease-out forwards;
    }

    @keyframes el18 {
      0% {
        transform: translate(215px, 477px) rotate(0deg) translate(-215px, -477px);
      }
      100% {
        transform: translate(215px, 477px) rotate(-200deg) translate(-215px, -477px);
      }
    }

    #el28 {
      transform: translate(580px, 590px) rotate(0deg) translate(-580px, -590px);
      animation: el28 1.3s ease-out forwards;
    }

    @keyframes el28 {
      0% {
        transform: translate(580px, 590px) rotate(0deg) translate(-580px, -590px);
      }
      100% {
        transform: translate(580px, 590px) rotate(300deg) translate(-580px, -590px);
      }
    }

    #el29 {
      transform: translate(200px, 622px) rotate(0deg) translate(-200px, -622px);
      animation: el29 1.3s ease-out forwards;
    }

    @keyframes el29 {
      0% {
        transform: translate(200px, 622px) rotate(0deg) translate(-200px, -622px);
      }
      100% {
        transform: translate(200px, 622px) rotate(-240deg) translate(-200px, -622px);
      }
    }

    #el30 {
      transform: translate(617px, 630px) rotate(0deg) translate(-617px, -630px);
      animation: el30 1.3s ease-out forwards;
    }

    @keyframes el30 {
      0% {
        transform: translate(617px, 630px) rotate(0deg) translate(-617px, -630px);
      }
      100% {
        transform: translate(617px, 630px) rotate(-340deg) translate(-617px, -630px);
      }
    }

    #el31 {
      transform: translate(285px, 667px) rotate(0deg) translate(-285px, -667px);
      animation: el31 1.3s ease-out forwards;
    }

    @keyframes el31 {
      0% {
        transform: translate(285px, 667px) rotate(0deg) translate(-285px, -667px);
      }
      100% {
        transform: translate(285px, 667px) rotate(-340deg) translate(-285px, -667px);
      }
    }

    #el32 {
      transform: translate(482px, 671px) rotate(0deg) translate(-482px, -671px);
      animation: el32 1.3s ease-out forwards;
    }

    @keyframes el32 {
      0% {
        transform: translate(482px, 671px) rotate(0deg) translate(-482px, -671px);
      }
      100% {
        transform: translate(482px, 671px) rotate(400deg) translate(-482px, -671px);
      }
    }

  /* ]]> */
</style>
<g id="conf">
  <path id="el1" fill="#00BBE3" d="M261.2 174.4s4.4-.8-2.7 7.2c0 0-.5-7.1 2.7-7.2m10.6 3.8c-1.4 2-3 4.4-5 5.6-1.3.8-3.9 1.2-5.6.6 1.5-1.8 2.8-3.9 3.7-6.2 1-2.5 1.8-5.7-.4-7.5-2-1.8-4.8-.5-6.5 1.3a13.8 13.8 0 0 0-2.8 11.5 9.7 9.7 0 0 1-3.6 1.4 13.1 13.1 0 0 1-4.7 4.3c.2.3.6.4 1.1.5 3.3.3 6.4-.4 9-2 .4.6.8 1 1.3 1.4 5.1 4 10.8-.6 14.8-5.2l.2-1.7c.2-1.6-.7-2.8-1.4-4h-.1"/>
  <path id="el2" fill="#00BBE3" d="M475.4 175.8s-4.3-.9 2.7 7.1c0 0 .5-7-2.7-7.1m-10.6 3.7c1.4 2 3 4.4 5 5.6 1.3.8 3.9 1.3 5.6.6a20.6 20.6 0 0 1-3.7-6.2c-1-2.4-1.7-5.6.4-7.5 2-1.7 4.8-.5 6.5 1.4 2.5 2.7 3.5 7.4 2.8 11.4 1 .7 2.3 1.2 3.6 1.4 1.3 1.9 2.8 3.3 4.8 4.3a2 2 0 0 1-1.2.5c-3.3.4-6.4-.3-9-1.9l-1.3 1.4c-5.2 4-10.8-.6-14.8-5.3l-.2-1.6c-.2-1.7.7-2.8 1.4-4h.1"/>
  <path id="el3" fill="#FFF" d="m206.2 228.3.7 2a5 5 0 0 0 4.7 3.5h2.2L212 235a5 5 0 0 0-1.8 5.6l.7 2-1.8-1.3a5 5 0 0 0-5.9 0l-1.7 1.3.7-2a5 5 0 0 0-1.9-5.6l-1.7-1.3h2.2a5 5 0 0 0 4.7-3.5l.7-2z"/>
  <path id="el4" fill="#EC1B30" d="M571 244.6c.8-2.5-6.2-1.9-6.2-1.9 3.8 3 6.2 2 6.2 2m-8-19.4c1.2 1.8 4.2 2.8 6.2 3 1.4.3 5 .1 5-2 0-2.6-5.3-2.4-7-2.4-1.3 0-3 .2-4.4.7l.3.7m-5.5 16.2c-3.7-3-6.9-7.3-5-12.1 1.1-3 3.5-5.4 6.3-7 0-1 .3-2 .8-3.2 1.5-3.3 4.6-5.3 7.7-7 .8-.5 3.7-1.9 6.5-3.6 4.2-1.3 7.6-3.2 8-8.5 5.3 6-5.5 11-9.6 13.3-3 1.6-8.4 4-9.7 7.6.7-.2 1.5-.4 2.2-.4 3.7-.4 13.7.3 13.8 5.7 0 5.5-8.5 5.8-12 5a9.7 9.7 0 0 1-7-5.2c-3 1.8-5 4.7-3.7 8.4.8 2.4 3 4.3 5.4 5.8l3-.4c2.7 0 12.3 1.1 9.8 6-2.3 4.4-10.2 0-13.3-2a18 18 0 0 0-3.4 1.2c-4.3 2.2-10.4 7.9-7.7 13.2-1 .6-1.8 1.5-2.4 2.5-5-7.9 2.3-16 10.3-19.3"/>
  <path id="el5" fill="#EC1B30" d="M113.5 292c-.8-2.5 6.2-1.9 6.2-1.9-3.8 3-6.2 2-6.2 2m8-19.4c-1.2 1.8-4.2 2.8-6.2 3-1.4.3-5 .2-5-2 0-2.5 5.3-2.4 7-2.4 1.4 0 3 .2 4.5.7l-.4.7M127 289c3.7-3.1 6.9-7.3 5-12.2-1.1-3-3.5-5.4-6.3-7 0-1-.3-2-.8-3.2a16.6 16.6 0 0 0-7.7-7c-.8-.4-3.7-1.9-6.6-3.6-4-1.3-7.5-3.1-8-8.5-5.2 6.1 5.6 11 9.7 13.3 3 1.7 8.4 4 9.7 7.6a16 16 0 0 0-2.2-.4c-3.7-.4-13.7.3-13.8 5.7 0 5.5 8.5 5.8 12 5a9.7 9.7 0 0 0 7-5.2c3 1.8 5 4.7 3.7 8.4-.8 2.4-3 4.3-5.5 5.8l-2.9-.4c-2.7 0-12.3 1.2-9.8 6 2.3 4.4 10.2 0 13.3-2 1.2.3 2.3.7 3.3 1.2 4.4 2.2 10.5 7.9 7.8 13.2 1 .7 1.8 1.5 2.4 2.5 5-7.9-2.3-16-10.3-19.3"/>
  <path id="el6" fill="#008061" d="M283.3 267s1.7 3.7-.3 5.9c0 0 7.6-.3 12.5 5 0 0 3.3-3.5 1.6-7 0 0-3-4-13.8-3.8"/>
  <path id="el7" fill="#008061" d="M493.4 279.7s-1.7 3.6.3 5.8c0 0-7.6-.3-12.5 5 0 0-3.3-3.5-1.6-7 0 0 2.9-4 13.8-3.8"/>
  <path id="el8" fill="#FFF" d="m651.5 265.3-.6 2a5 5 0 0 1-4.8 3.5H644l1.7 1.2a5 5 0 0 1 1.8 5.6l-.6 2 1.7-1.2a5 5 0 0 1 5.9 0l1.7 1.3-.7-2a5 5 0 0 1 1.9-5.7l1.7-1.2h-2.2a5 5 0 0 1-4.7-3.5l-.7-2z"/>
  <path id="el9" fill="#8BC53F" d="M236.3 312.6s-5.8-.4-11.5 2.4c0 0 9.3 4.4 7.6 11.5 0 0 6.3-4.5 11.7-4.7 0 0-3-7.6-7.8-9.2"/>
  <path id="el10" fill="#FFF" d="M554.2 353.3a4.7 4.7 0 1 0 0-9.5 4.7 4.7 0 0 0 0 9.5"/>
  <path id="el11" fill="#8BC53F" d="M611.4 319.6s5.9-.5 11.5 2.4c0 0-9.3 4.4-7.5 11.4 0 0-6.4-4.4-11.8-4.6 0 0 3-7.7 7.8-9.2"/>
  <path id="el12" fill="#FFF" d="M138.9 373a4.7 4.7 0 1 0 0-9.5 4.7 4.7 0 0 0 0 9.4"/>
  <path id="el13" fill="#00BBE3" d="M680.7 358s-1.7 3.7.3 5.9c0 0-7.6-.3-12.5 5 0 0-3.3-3.5-1.6-7 0 0 3-4 13.8-3.8"/>
  <path id="el14" fill="#00BBE3" d="M221.8 395s1.8 3.7-.3 5.8c0 0 7.7-.3 12.6 5 0 0 3.3-3.5 1.5-7 0 0-2.8-4-13.8-3.8"/>
  <path id="el15" fill="#FD0" d="M92.6 435.4c-.9-3 3.7-7.7 4-10.5 0-.7-.5-1.4-1-1.7-4-2.4-10.6 2.7-14.3 5.8-.3-1.8 1.2-4.9 1.7-6 .6-1.5 1-3 .9-4.4-1.3.8-2.8 1.5-4.2 2-.6 2.2-2 4.4-2.2 6.6-.3 2.6.2 5.5 2.9 6.6 1.2.5 2.3-.2 2.8-1.1a40 40 0 0 1 8.9-6c-1.1 2.4-3.4 4.3-3.7 7.1-.3 2.4.5 4.4 2.3 6 .7.4 1.7.8 2.5.2 1.8-1.5 3.7-2.8 5.8-4 1.2-.6 4.8-3.8 3.7-.8-1 2.7-3.6 4.2-4 7.3-1 5.8 4 7 8.6 8h.5c-1-1-1.6-2.2-1.7-3.8v-.5c-1.8-.3-3.6-1-3.5-3.4.1-2.1 2.7-3.8 3.6-5.7.9-1.7 1.9-4 .6-5.8-2.8-4-10.5 1.3-14.2 4.1"/>
  <path id="el16" fill="#EC1B30" d="M543.5 413.5s4.7 10 17.4 18.2c0 0-2.4 3.3-5.4 4.8 0 0-9.3-4.8-20-20.2 0 0 4 3 8-2.8"/>
  <path id="el17" fill="#FFF" d="m652 443.1-.2-.3c-.3-1-1.8-1.9-2.8-2.2-.7-.3-2.5-.6-2.7.5-.3 1.3 2.4 1.8 3.3 2h2.3m-2.1-11c-.7 1.3 3 1.6 3 1.6-1.7-1.9-3-1.6-3-1.6m-3.9 15.8c1.7-.6 4.7-1.3 5.7-3h-1.1c-2 0-7-1.5-6.4-4.2.5-2.8 4.8-2.1 6.6-1.4a5 5 0 0 1 3 3.4c1.7-.6 3-1.9 2.7-4-.2-1.2-1-2.4-2.2-3.4l-1.5-.1c-1.4-.2-6.1-1.8-4.4-4 1.6-2 5.2 1 6.6 2.3l1.8-.3c2.4-.6 6.1-2.9 5.3-5.8l1.5-1c1.7 4.4-2.8 7.8-7.2 8.7 1.6 1.9 2.7 4.3 1.3 6.6a7 7 0 0 1-4 3c0 .4-.3 1-.6 1.5-1.2 1.5-3 2.2-4.7 2.8l-3.7 1.1c-2.2.2-4.1.8-4.9 3.5-2-3.6 4-5 6.2-5.8"/>
  <path id="el18" fill="#008061" d="M218.4 466.4s-4.7 10-17.3 18.2c0 0 2.4 3.3 5.3 4.8 0 0 9.3-4.8 20-20.2 0 0-4 3-8-2.8"/>
  <path id="el19" fill="#FFF" d="m116.6 506.4.7 2a5 5 0 0 0 4.7 3.5h2.2l-1.8 1.3a5 5 0 0 0-1.8 5.6l.7 2-1.7-1.2a5 5 0 0 0-6 0l-1.7 1.2.7-2a5 5 0 0 0-1.8-5.6l-1.8-1.3h2.2a5 5 0 0 0 4.8-3.5l.6-2z"/>
  <path id="el20" fill="#008061" d="M512.3 498s-1.7 3.7.3 5.9c0 0-7.6-.3-12.5 5 0 0-3.3-3.5-1.6-7 0 0 2.9-4 13.8-3.8"/>
  <path id="el21" fill="#FD0" d="M595.4 494.4s4.9 6.3 3.4 10.7c0 0-3.1 4.6-9 7.4 0 0 1.8-9.3-5.3-11.7 0 0 7.6-2.4 11-6.4"/>
  <path id="el22" fill="#FD0" d="M269.7 538.2s-4.9 6.3-3.3 10.7c0 0 3 4.6 8.8 7.4 0 0-1.7-9.3 5.5-11.7 0 0-7.7-2.4-11-6.4"/>
  <path id="el23" fill="#00BBE3" d="M551.2 551.2s-4 0-5.1 2.8c0 0-3.1-7-10-9 0 0 1.7-4.5 5.6-4.5 0 0 5 .8 9.5 10.7"/>
  <path id="el24" fill="#FFF" d="m659.1 533.3-.6 2a5 5 0 0 1-4.8 3.5h-2.2l1.8 1.3a5 5 0 0 1 1.8 5.6l-.7 2 1.8-1.3a5 5 0 0 1 5.9 0l1.7 1.3-.7-2a5 5 0 0 1 1.8-5.6l1.8-1.3h-2.2a5 5 0 0 1-4.7-3.5l-.7-2z"/>
  <path id="el25" fill="#EC1B30" d="M136.1 585.6s4 0 5 2.8c0 0 3.2-7 10-9 0 0-1.6-4.6-5.5-4.6 0 0-5 .9-9.5 10.8"/>
  <path id="el26" fill="#FFF" d="m310.4 583 .7 2.1a5 5 0 0 0 4.8 3.5h2.1l-1.7 1.3a5 5 0 0 0-1.8 5.6l.6 2-1.7-1.3a5 5 0 0 0-5.9 0l-1.7 1.3.6-2a5 5 0 0 0-1.8-5.6l-1.7-1.3h2.1a5 5 0 0 0 4.8-3.5l.6-2z"/>
  <path id="el27" fill="#FFF" d="m469 574.4-.6 2a5 5 0 0 1-4.8 3.5h-2.1l1.7 1.3a5 5 0 0 1 1.8 5.6l-.6 2 1.7-1.2a5 5 0 0 1 5.9 0l1.7 1.2-.6-2a5 5 0 0 1 1.8-5.6l1.7-1.3h-2.1a5 5 0 0 1-4.8-3.5l-.7-2z"/>
  <path id="el28" fill="#FD0" d="M579.7 591.2c.9-3-3.7-7.7-4-10.5 0-.7.5-1.4 1-1.7 4-2.4 10.6 2.7 14.3 5.8.4-1.8-1.2-4.9-1.7-6-.6-1.5-1-3-.9-4.4 1.3.9 2.8 1.5 4.2 2 .6 2.2 2 4.4 2.3 6.6.2 2.6-.3 5.5-3 6.6-1.2.5-2.4-.2-2.8-1.1a40 40 0 0 0-8.9-6c1.1 2.4 3.4 4.3 3.7 7.1.2 2.4-.5 4.4-2.4 6-.6.4-1.7.8-2.4.2a42.6 42.6 0 0 0-5.8-4c-1.2-.6-4.8-3.8-3.7-.8 1 2.7 3.6 4.2 4 7.4 1 5.7-4 7-8.6 7.8a2 2 0 0 1-.5 0 6 6 0 0 0 1.7-3.7v-.5c1.8-.3 3.6-1 3.5-3.3-.1-2.2-2.7-4-3.6-5.8-.9-1.7-1.9-4-.6-5.8 2.8-4 10.5 1.3 14.2 4.1"/>
  <path id="el29" fill="#8BC53F" d="M186 619.6c2.2-1.4 3.2 5.3 3.2 5.3-3.6-2.9-3.2-5.3-3.2-5.3m19.7 2.8c-2-.5-3.5-3.1-4.2-4.9-.6-1.2-1.3-4.6.6-5.1 2.4-.7 3.5 4.3 4 5.9.3 1.3.4 2.8.3 4.3-.2 0-.5 0-.7-.2m-13.7 8.9c3.7 2.7 8.3 4.6 12.3 1.8 2.6-1.8 4.2-4.5 5-7.4 1-.3 1.9-.8 2.8-1.5 2.7-2.2 3.8-5.5 4.7-8.7.2-.9.8-4 1.8-7 .2-4 1.1-7.6 6-9.3-6.9-3.4-9 7.7-10.1 12-.8 3.1-1.8 8.7-4.7 10.7 0-.7 0-1.4-.2-2.2-.4-3.4-3.4-12.5-8.4-11.3-5.1 1.2-3.4 9.1-1.9 12.3a9.3 9.3 0 0 0 6.5 5.2c-1 3-3.2 5.6-7 5.3-2.4-.2-4.6-1.8-6.6-3.7 0-1-.1-1.9-.3-2.8-.6-2.5-3.9-11-7.8-7.7-3.5 3.1 2.3 9.4 5 11.8 0 1.2-.2 2.3-.5 3.4-1 4.5-4.8 11.5-10.3 10.2-.4 1-1 2-1.8 2.8 8.5 2.8 14.2-5.8 15.5-14"/>
  <path id="el30" fill="#00BBE3" d="M607.6 631.2c1.5.8 2-2.8 2-2.8-2.4 1.5-2 2.8-2 2.8m13-.9c-1.3.3-2.2 1.6-2.7 2.6-.2.6-.6 2.4.7 2.8 1.6.4 2.1-2.3 2.4-3.1.1-.7.2-1.5 0-2.4l-.4.1m-9.4-5.2c2.4-1.4 5.4-2.3 8.2-.6 1.7 1 2.9 2.5 3.5 4.2.6.1 1.3.4 1.9.9a9.5 9.5 0 0 1 3.4 4.9l1.4 3.8c.3 2.2 1 4.2 4.3 5.3-4.4 1.6-6.2-4.5-7-6.9-.7-1.7-1.6-4.8-3.6-6v1.2c-.2 1.9-1.9 6.7-5.3 6-3.4-.9-2.5-5.2-1.6-6.8a5.3 5.3 0 0 1 4.1-2.7 5 5 0 0 0-4.8-3c-1.5 0-3 .7-4.2 1.7 0 .5 0 1-.2 1.5-.2 1.4-2.2 6-4.9 4-2.4-1.8 1.3-5 3-6.3l-.5-1.9c-.8-2.5-3.5-6.4-7.2-5.8-.3-.6-.7-1.2-1.2-1.6 5.5-1.3 9.6 3.6 10.7 8"/>
  <path id="el31" fill="#FFF" d="M288.5 658.5c-1.3 1 1.8 2.9 1.8 2.9-.4-2.8-1.8-3-1.8-3m-4.4 12.3c.3-1.3-.6-2.7-1.3-3.5-.5-.5-2-1.6-2.8-.5-1 1.2 1.2 2.9 1.8 3.4a6 6 0 0 0 2.1 1l.2-.4m8.6-6.5c.3 2.8-.1 5.9-2.8 7.7a8.2 8.2 0 0 1-5.3 1.6c-.4.5-1 1-1.6 1.3-1.9 1.2-3.9 1.3-5.8 1.2-.5 0-2.3-.3-4-.3-2.3-.7-4.4-.8-6.7 1.8.3-4.8 6.6-3.9 9.2-3.7 1.8 0 5 .6 6.9-.8l-1.1-.5c-1.6-1-5.4-4.5-3.3-7.2 2.2-2.8 5.7-.2 6.9 1.3 1 1.3 1.2 3.1.7 4.8a5 5 0 0 0 4.8-3.1c.6-1.4.5-3 .1-4.6l-1.3-.8c-1.2-.8-4.6-4.4-1.6-6 2.6-1.6 4 3.1 4.5 5.1.6.2 1.2.4 1.9.4 2.6.3 7.3-.6 8.3-4.1.6 0 1.3-.2 2-.5-1.1 5.5-7.3 7.3-11.8 6.4"/>
  <path id="el32" fill="#8BC53F" d="M496.9 668.6c-2.2-1.4-3.2 5.3-3.2 5.3 3.6-2.9 3.2-5.3 3.2-5.3m-19.7 2.8c2-.6 3.5-3.1 4.3-4.9.5-1.3 1.2-4.6-.7-5.1-2.4-.7-3.5 4.3-4 5.9-.3 1.2-.4 2.8-.3 4.3l.7-.2m13.7 8.8c-3.7 2.7-8.2 4.7-12.3 1.8a12.7 12.7 0 0 1-5-7.4c-1-.2-1.9-.7-2.8-1.4-2.7-2.2-3.8-5.5-4.7-8.8-.2-.8-.8-3.9-1.8-6.9-.2-4-1.1-7.7-6-9.3 6.9-3.5 9 7.7 10.1 12 .8 3 1.8 8.7 4.7 10.7 0-.7 0-1.5.2-2.2.4-3.5 3.4-12.6 8.4-11.4 5.1 1.3 3.4 9.2 1.9 12.3a9.3 9.3 0 0 1-6.5 5.2c1 3.1 3.2 5.6 7 5.3 2.4-.1 4.6-1.7 6.6-3.6 0-1 .1-2 .3-2.8.6-2.5 3.9-11.1 7.8-7.7 3.5 3.1-2.3 9.4-5 11.8.1 1.2.2 2.3.5 3.4 1 4.5 4.8 11.4 10.3 10.1.4 1.1 1 2 1.8 2.8-8.5 3-14.2-5.7-15.5-13.9"/>
</g>
</svg>
