<?xml version="1.0" encoding="utf-8"?>
<!-- Generator: Adobe Illustrator 28.0.0, SVG Export Plug-In . SVG Version: 6.00 Build 0)  -->
<svg version="1.1" id="Layer_1" xmlns="http://www.w3.org/2000/svg" xmlns:xlink="http://www.w3.org/1999/xlink" x="0px" y="0px"
	 viewBox="0 0 752 504" enable-background="new 0 0 752 504" xml:space="preserve">
<g>
	<path opacity="0.8" fill="#3D3A39" enable-background="new    " d="M440.6,23c-1-0.2-5.6,0-7,0l-12-0.3h-9c-0.3,0-0.5,0-0.3,0.2
		c0.1,0.2,0.9,0.5,2.7,0.6h18.4C438.8,23.5,441.7,23.3,440.6,23L440.6,23z"/>
	<path fill="#3D3A39" d="M438,19.1c0-0.8-17.5-1-23.9-0.4c-1.4,0.1-1.9,1-1.8,1.1c0,0.7,2.4,1.3,4,1.3h17.5c1.8,0,4-1,4.1-2H438z"/>
	<path fill="#3D3A39" d="M434.3,15.6h3.2c0.2,0.1,0.3,1.9,0.3,4c0,2-0.1,3.7-0.3,3.7h-3.2c-0.2-0.1-0.4-1.9-0.4-4
		C433.9,17.3,434.1,15.6,434.3,15.6z M412.3,15.3h3.2c0.2,0,0.4,1.9,0.4,4c0,2-0.2,3.6-0.4,3.6h-3.2c-0.2,0-0.3-1.8-0.3-4
		C412,16.9,412,15.3,412.3,15.3z"/>
	<path fill="#3D3A39" d="M413.3,15.6h3.2c0.2,0.1,0.4,1.9,0.4,4c0,2-0.2,3.7-0.4,3.7h-3.2c-0.2-0.1-0.4-1.9-0.4-4
		C412.9,17.3,413.1,15.6,413.3,15.6z"/>
	
		<linearGradient id="SVGID_1_" gradientUnits="userSpaceOnUse" x1="482.7915" y1="504.8" x2="482.7915" y2="483.7" gradientTransform="matrix(-1 0 0 -1 907.8 506)">
		<stop  offset="0" style="stop-color:#C5614C"/>
		<stop  offset="1" style="stop-color:#620000"/>
	</linearGradient>
	<path fill="url(#SVGID_1_)" d="M438,17.5c0-1-0.2-5.1-1.1-8c-1-3-2-7.2-3.8-8.1c-1.8-1-4.2-1.4-8.3-1.4c-4.1,0-7.4,0.8-8.7,2.2
		c-1.2,1.3-1.5,2.7-2.4,5.7c0,0.2-1.3-0.2-1.5,0.3c-0.3,0.5,1.1,0.7,1.1,0.7l-0.5,0.8c-0.6,2.3-0.6,3.8-0.7,4.3
		c-0.2,1.4,0,3.5,0.2,4.2c0,0.7,2.4,1.3,4,1.3h17.5c1.8,0,4-1.1,4.1-2H438z"/>
	
		<linearGradient id="SVGID_00000165217321337022931060000016171812431808149127_" gradientUnits="userSpaceOnUse" x1="482.15" y1="504.1" x2="482.15" y2="498" gradientTransform="matrix(-1 0 0 -1 907.8 506)">
		<stop  offset="0" style="stop-color:#A0B6CC"/>
		<stop  offset="1" style="stop-color:#5E768B"/>
	</linearGradient>
	<path fill="url(#SVGID_00000165217321337022931060000016171812431808149127_)" d="M435.2,8c0,0-1.6-5.6-2.2-5.8L425.5,2
		c-2.4,0-7,0-7.5,0.4c-0.4,0.4-1.9,5.5-1.9,5.5s5.8,0.6,10.1,0.6C430.6,8.5,435.2,8,435.2,8z"/>
	
		<linearGradient id="SVGID_00000116931318373650858130000015528418791023500721_" gradientUnits="userSpaceOnUse" x1="492.3" y1="503.8" x2="492.3" y2="498.4" gradientTransform="matrix(-1 0 0 -1 907.8 506)">
		<stop  offset="0" style="stop-color:#A0B6CC"/>
		<stop  offset="1" style="stop-color:#5E768B"/>
	</linearGradient>
	<path fill="url(#SVGID_00000116931318373650858130000015528418791023500721_)" d="M416.9,2.3L415,7.6L414,8c0,0,1.3-4.4,2-5
		c0.7-0.8,1-0.7,1-0.7H416.9z"/>
	
		<linearGradient id="SVGID_00000127737726177487240830000000741717368874886581_" gradientUnits="userSpaceOnUse" x1="472.5056" y1="496.4" x2="472.5056" y2="494.8" gradientTransform="matrix(-1 0 0 -1 907.8 506)">
		<stop  offset="0" style="stop-color:#EBA868"/>
		<stop  offset="1" style="stop-color:#DC5411"/>
	</linearGradient>
	<path fill="url(#SVGID_00000127737726177487240830000000741717368874886581_)" d="M434.4,10.5c0,0.4,0.4,0.8,0.9,0.8
		c0.5,0,0.9-0.41,0.89-0.91c0-0.5-0.41-0.9-0.91-0.89c-0.5,0-0.9,0.41-0.89,0.91C434.39,10.44,434.4,10.47,434.4,10.5z"/>
	
		<linearGradient id="SVGID_00000134957355428141509050000012292543174634302639_" gradientUnits="userSpaceOnUse" x1="472.4502" y1="494.1" x2="472.4502" y2="492.5" gradientTransform="matrix(-1 0 0 -1 907.8 506)">
		<stop  offset="0" style="stop-color:#D81619"/>
		<stop  offset="1" style="stop-color:#B2030E"/>
	</linearGradient>
	<path fill="url(#SVGID_00000134957355428141509050000012292543174634302639_)" d="M434.5,12.8c-0.16,0.47,0.08,0.98,0.55,1.15
		c0.47,0.16,0.98-0.08,1.15-0.55c0.07-0.19,0.07-0.4,0-0.59c-0.16-0.47-0.68-0.72-1.15-0.55C434.79,12.34,434.59,12.54,434.5,12.8z"
		/>
	
		<linearGradient id="SVGID_00000012432994233055160440000018234189394940040375_" gradientUnits="userSpaceOnUse" x1="236.4501" y1="496.4" x2="236.4501" y2="494.8" gradientTransform="matrix(1 0 0 -1 180 506)">
		<stop  offset="0" style="stop-color:#EBA868"/>
		<stop  offset="1" style="stop-color:#DC5411"/>
	</linearGradient>
	<path fill="url(#SVGID_00000012432994233055160440000018234189394940040375_)" d="M417.3,10.5c0.16,0.47-0.08,0.98-0.55,1.15
		c-0.47,0.16-0.98-0.08-1.15-0.55c-0.07-0.19-0.07-0.4,0-0.59c0.16-0.47,0.68-0.72,1.15-0.55C417.01,10.04,417.21,10.24,417.3,10.5z
		"/>
	
		<linearGradient id="SVGID_00000176740036400981933810000003774096876999319734_" gradientUnits="userSpaceOnUse" x1="236.3501" y1="494.1" x2="236.3501" y2="492.5" gradientTransform="matrix(1 0 0 -1 180 506)">
		<stop  offset="0" style="stop-color:#D81619"/>
		<stop  offset="1" style="stop-color:#B2030E"/>
	</linearGradient>
	<path fill="url(#SVGID_00000176740036400981933810000003774096876999319734_)" d="M417.2,12.8c0.16,0.47-0.08,0.98-0.55,1.15
		c-0.47,0.16-0.98-0.08-1.15-0.55c-0.07-0.19-0.07-0.4,0-0.59c0.16-0.47,0.68-0.72,1.15-0.55C416.91,12.34,417.11,12.54,417.2,12.8z
		"/>
	
		<linearGradient id="SVGID_00000083075410899797528340000000235466714241054393_" gradientUnits="userSpaceOnUse" x1="482.1423" y1="490.5" x2="482.1423" y2="494.9" gradientTransform="matrix(-1 0 0 -1 907.8 506)">
		<stop  offset="0" style="stop-color:#C5614C"/>
		<stop  offset="1" style="stop-color:#620000"/>
	</linearGradient>
	<path fill="url(#SVGID_00000083075410899797528340000000235466714241054393_)" d="M432,10.5c-1,0.1-3.4,0.4-6,0.4
		c-2.8,0-6-0.4-6.6-0.4c-0.5,0-1-0.3-1,0.2s0.4,3,1.3,3.1c4.16,0.41,8.34,0.44,12.5,0.1c0.4,0,0.8-2.5,0.7-3c0-0.5-0.8-0.4-0.8-0.4
		H432z"/>
	
		<linearGradient id="SVGID_00000143616888287118226020000005436424254902671034_" gradientUnits="userSpaceOnUse" x1="482.732" y1="492.4" x2="482.732" y2="485.6" gradientTransform="matrix(-1 0 0 -1 907.8 506)">
		<stop  offset="0" style="stop-color:#C5614C"/>
		<stop  offset="1" style="stop-color:#620000"/>
	</linearGradient>
	<path fill="url(#SVGID_00000143616888287118226020000005436424254902671034_)" d="M438,17.8c0.2-0.8,0-3.5-0.3-3.7
		c-0.3-0.3-2-0.1-2.3,0.6c-0.3,0.6-0.8,1.7-1.3,1.8c-0.5,0-3.7,0.3-8.2,0.3c-4.4,0-9.5-0.1-9.8-0.4s-0.8-3-2-3c-1-0.3-2,0-2,0
		s-0.1,2,0,3.3c0,1.3,0,2,1.1,2.3c1.2,0.4,5.2,0.5,13,0.5s8.8,0.2,10.2-0.6C437.9,18.2,437.9,18.4,438,17.8L438,17.8z"/>
</g>
<g>
	<path fill="#3D3A39" d="M588.8,80.6c-1.1,0-4.3-1-4.7-1.3c-0.4-0.2-1.3-0.2-2-0.2c-0.9,0-7.5-0.3-8.7-0.7c-1.3-0.4-5.4-0.9-6.3-0.6
		c-1,0.3-4.3,0-5.8,0c-1.6,0-7.6-0.5-9.5-0.7c-2-0.1-17.4,0.5-18,0.6c-0.5,0-0.7,0.4-1.9,0.5s-8-0.1-9-0.1s-7.6-3.1-8.6-3.5
		c-1-0.3-10-4.6-10.4-5.1c-0.3-0.5-1.7-6.5-1.8-8.6c0-2.2,0.2-7.6,0.4-8.1s21.6-4.5,21.6-4.5h74.8c0,0,3,18.6,2.6,19.8
		C601.1,69.4,588.8,80.6,588.8,80.6L588.8,80.6z"/>
	<path opacity="0.8" fill="#3D3A39" enable-background="new    " d="M608.3,87.2c-0.6-1.4-20-4.7-21.7-4.9
		c-6.86-0.35-13.73-0.58-20.6-0.7c-2.7,0-23.8-0.3-27.4-0.2L510.2,82c-2.13,0.33-4.21,0.9-6.2,1.7c0.4,0,11,3.6,13,4.1
		s5.7,0.7,12,0.8c6.3,0.1,44,0.3,58.6,0.1C602.4,88.5,608.8,88.2,608.3,87.2z"/>
	<path fill="#3D3A39" d="M517,58.4h9c1.1,0.4,2,7.2,2,15.3c0,8-0.8,14.2-1.9,14.1H517c-1-0.3-2-7.1-2-15.2
		C515,64.6,515.9,58.3,517,58.4z M589.8,58.4h10c1.2,0.4,2.1,7.2,2.1,15.3c0,8-0.9,14.2-2,14.1h-10c-1.2-0.3-2.1-7.1-2.1-15.2
		C587.8,64.6,588.7,58.3,589.8,58.4z"/>
	
		<linearGradient id="SVGID_00000126283438910574308420000017372401092231920032_" gradientUnits="userSpaceOnUse" x1="242.6981" y1="434.6058" x2="236.8982" y2="432.8058" gradientTransform="matrix(-1 0 0 -1 753.9 506)">
		<stop  offset="0" style="stop-color:#DADBDA"/>
		<stop  offset="1" style="stop-color:#B3B3B3"/>
	</linearGradient>
	<path fill="url(#SVGID_00000126283438910574308420000017372401092231920032_)" d="M515.4,72.7c0,6.2,0.6,11.4,1.3,11.6
		c0.7,0.3,1.2-4.5,1.2-10.7s-0.5-11.4-1.2-11.7C516,61.7,515.4,66.5,515.4,72.7z"/>
	<path fill="#3D3A39" d="M504,56.8h8.3c1,0.3,1.8,6.6,1.8,14c0,7.2-0.8,12.9-1.7,12.9H504c-1-0.3-1.8-6.6-1.8-14
		C502.2,62.4,503,56.7,504,56.8z M571.3,56.8h8.9c1,0.3,1.9,6.6,1.9,14c0,7.2-0.8,12.9-1.8,12.9h-9c-1-0.3-1.8-6.6-1.8-14
		C569.5,62.4,570.3,56.7,571.3,56.8L571.3,56.8z"/>
	
		<linearGradient id="SVGID_00000000220810749430748790000008291496773885947579_" gradientUnits="userSpaceOnUse" x1="254.8048" y1="437.7895" x2="249.5047" y2="435.3895" gradientTransform="matrix(-1 0 0 -1 753.9 506)">
		<stop  offset="0" style="stop-color:#DADBDA"/>
		<stop  offset="1" style="stop-color:#B3B3B3"/>
	</linearGradient>
	<path fill="url(#SVGID_00000000220810749430748790000008291496773885947579_)" d="M502.6,69.8c0,5.7,0.4,10.5,1,10.7
		c0.5,0.2,1-4.2,1-9.8c0-5.7-0.5-10.5-1-10.7C503,59.8,502.6,64.2,502.6,69.8z"/>
	
		<linearGradient id="SVGID_00000177472842894907186720000002332975419663771572_" gradientUnits="userSpaceOnUse" x1="201.6542" y1="488.6" x2="201.6542" y2="437.6" gradientTransform="matrix(-1 0 0 -1 753.9 506)">
		<stop  offset="0" style="stop-color:#F7F6F1"/>
		<stop  offset="1" style="stop-color:#BDBBB3"/>
	</linearGradient>
	<path fill="url(#SVGID_00000177472842894907186720000002332975419663771572_)" d="M588.6,22.9c-1-1.6-3.7-3.1-6.3-4.5
		c-2.5-1.4-5.1-1.6-6.9-1.8c-15.41-1.92-31-1.89-46.4,0.1c-3,0.7-6.3,2.1-9.5,6c-3.26,4.36-6.04,9.05-8.3,14
		c-1.8,3.7-2.2,5.7-3.2,6.7s-2.1,2.4-3.2,4.2c-1,1.8-2,3.3-2.5,4.8c-0.5,1.4-0.4,3.8-0.4,6c0,2.1,0.4,7,0.4,7l0.1-1.4v-3.8
		c-0.2-3.5,0-7.6,0.5-7c0.7,0.7,1.1,4.4,1.4,7.7c0.3,3.3,1.5,9.8,1.8,10.5c0.2,0.8,0.7,1.7,1.2,1.9c2.54,0.83,5.15,1.43,7.8,1.8
		l-0.4-10c-0.1-3.3-0.1-8.2,0.2-9.2s0.8-1.7,1.3-1c0.5,0.6,1.4,2.9,2.3,8c0.9,5,2,7.6,2.4,8.3s2.7,3.3,4.7,3.4
		c2,0.2,19.2-0.2,32.5,0c13.4,0.2,26,0,31.6,0.2c5.5,0.1,7,0,8.9-1.5c1.5-1.1,2.56-2.69,3-4.5c0.5-1.7,0.9-6.5,1-8.4
		c0-2-0.1-3-0.5-4.1c-0.4-1.2-1.2-2.6-1.2-2.6s0-5.1-0.2-6.8s-0.8-5-2-6.7c-1.2-1.6-2.3-2.4-3-3.2c-0.8-0.9-2.8-6.1-4.3-9.3
		S589.2,23.7,588.6,22.9L588.6,22.9z"/>
	
		<linearGradient id="SVGID_00000132074420742550318340000006522354233493208997_" gradientUnits="userSpaceOnUse" x1="193.2" y1="438" x2="193.2" y2="431.9" gradientTransform="matrix(-1 0 0 -1 753.9 506)">
		<stop  offset="0" style="stop-color:#F7F6F1"/>
		<stop  offset="1" style="stop-color:#BDBBB3"/>
	</linearGradient>
	<path fill="url(#SVGID_00000132074420742550318340000006522354233493208997_)" d="M520.6,70.8c0,0,19.7,0.5,44.2,0.4h36
		c0,0-0.9,2.5-3.9,3.4c-3,1-5.7,1-9.2,0.8c-17.73-0.71-35.47-0.77-53.2-0.2c-3.2,0.1-8.3,1-10.6-0.6S520.9,71.4,520.6,70.8z"/>
	
		<linearGradient id="SVGID_00000062910900941070129790000013445111163946384545_" gradientUnits="userSpaceOnUse" x1="226.2694" y1="449.1" x2="226.2694" y2="439" gradientTransform="matrix(-1 0 0 -1 753.9 506)">
		<stop  offset="0" style="stop-color:#CECECA"/>
		<stop  offset="1" style="stop-color:#A4A29C"/>
	</linearGradient>
	<path fill="url(#SVGID_00000062910900941070129790000013445111163946384545_)" d="M530.6,61c-1-0.3-4.9-0.3-6-0.2
		c-1,0.2-1.4,3,0.2,3c1.5,0.2,4.7,0,5.7,0C531.6,63.7,532.1,61.4,530.6,61z"/>
	
		<linearGradient id="SVGID_00000018201128638928675110000004234774361617894030_" gradientUnits="userSpaceOnUse" x1="156.5753" y1="449.1" x2="156.5753" y2="439" gradientTransform="matrix(-1 0 0 -1 753.9 506)">
		<stop  offset="0" style="stop-color:#CECECA"/>
		<stop  offset="1" style="stop-color:#A4A29C"/>
	</linearGradient>
	<path fill="url(#SVGID_00000018201128638928675110000004234774361617894030_)" d="M599.6,60.9c-1-0.2-4.5,0-5.1,0.2
		c-0.7,0.2-1.2,2.6,0.3,2.9c1.5,0.2,3.8,0.3,5,0.2C601,64.1,601.4,61.2,599.6,60.9z"/>
	
		<linearGradient id="SVGID_00000155132760012255708630000000213036979482950324_" gradientUnits="userSpaceOnUse" x1="191.65" y1="447.4" x2="191.65" y2="458.9" gradientTransform="matrix(-1 0 0 -1 753.9 506)">
		<stop  offset="0" style="stop-color:#CECECA"/>
		<stop  offset="1" style="stop-color:#A4A29C"/>
	</linearGradient>
	<path fill="url(#SVGID_00000155132760012255708630000000213036979482950324_)" d="M539.8,51.2c0,0,3.7,6.3,23.9,5.8
		s21.6-5.9,21.6-5.9l0.2-4.6c0,0-6.4,1.2-22,1.2c-15.5,0-24.5-2.4-24.5-2.4s0,4.9,0.8,6V51.2z"/>
	<path fill="#3D3A39" d="M595.3,36.7c0,0-0.9-2.6-2.5-6.4c-1.7-3.8-3-6.1-3.6-6.5c-0.6-0.3-10.6-2.2-29-2.4
		c-18.5-0.2-29.7,1.7-30.3,2.3c-0.6,0.6-2.4,5.8-3,9c-0.4,3.2-0.6,3.9-0.2,4c0.4,0.1,18.8,2,36.3,2S595.3,37.1,595.3,36.7z"/>
	
		<linearGradient id="SVGID_00000108281052137080911980000018214408017330340742_" gradientUnits="userSpaceOnUse" x1="189.9775" y1="480.9932" x2="199.4775" y2="449.4932" gradientTransform="matrix(-1 0 0 -1 753.9 506)">
		<stop  offset="0" style="stop-color:#A0B6CC"/>
		<stop  offset="1" style="stop-color:#5E768B"/>
	</linearGradient>
	<path fill="url(#SVGID_00000108281052137080911980000018214408017330340742_)" d="M594.7,36.4c0,0-0.9-2.5-2.5-6s-3-5.8-3.5-6
		c-0.6-0.3-10.5-2.2-28.6-2.4c-18.1-0.1-29.1,1.6-29.7,2.2c-0.5,0.6-2.3,5.4-2.8,8.4s-0.7,3.7-0.3,3.8s18.4,1.9,35.7,1.9
		C580.2,38.3,594.7,36.8,594.7,36.4L594.7,36.4z"/>
	
		<linearGradient id="SVGID_00000135659077930987484110000006329069165642764973_" gradientUnits="userSpaceOnUse" x1="186.7" y1="484.05" x2="201.1" y2="484.05" gradientTransform="matrix(-1 0 0 -1 753.9 506)">
		<stop  offset="0" style="stop-color:#D81619"/>
		<stop  offset="1" style="stop-color:#B2030E"/>
	</linearGradient>
	<path fill="url(#SVGID_00000135659077930987484110000006329069165642764973_)" d="M567.1,21.6c0,0-3.2-0.2-7-0.2h-7.3
		c0,0,2.4,1.1,7.3,1.1s7-1,7-1V21.6z"/>
	<path fill="#3D3A39" d="M508.7,42.3c0,0,1.5-1.5,7-3.3c5.4-1.9,6-2.9,6.2-3.2c0.2-0.4,4.6-11,4.6-12.3c0-1.4-2.3-4-4.8-2.7
		s-5,5-8.1,10.8c-1.94,3.43-3.61,7.01-5,10.7H508.7z"/>
	<g>
		
			<linearGradient id="SVGID_00000034796472273721906220000014345959590880470413_" gradientUnits="userSpaceOnUse" x1="230.0907" y1="484.2931" x2="244.9907" y2="464.1931" gradientTransform="matrix(-1 0 0 -1 753.9 506)">
			<stop  offset="0" style="stop-color:#A0B6CC"/>
			<stop  offset="1" style="stop-color:#5E768B"/>
		</linearGradient>
		<path fill="url(#SVGID_00000034796472273721906220000014345959590880470413_)" d="M519.2,27.1c-1.89,3.88-3.49,7.89-4.8,12
			c-2,0.7-3.1,1.3-3.9,1.6c-0.2,0-0.4-0.8-0.2-1.3c0.8-1.6,2-4.5,3.7-7.8c2.9-5.5,5.1-8.9,7.4-10c0.3-0.2,0.7-0.3,1-0.3
			C522,21.9,521.1,23.4,519.2,27.1z"/>
		
			<linearGradient id="SVGID_00000126290766808712789950000002827265173990766770_" gradientUnits="userSpaceOnUse" x1="227.6483" y1="482.5358" x2="242.5483" y2="462.4358" gradientTransform="matrix(-1 0 0 -1 753.9 506)">
			<stop  offset="0" style="stop-color:#A0B6CC"/>
			<stop  offset="1" style="stop-color:#5E768B"/>
		</linearGradient>
		<path fill="url(#SVGID_00000126290766808712789950000002827265173990766770_)" d="M518.4,31.8c1.6-4.3,4.5-9.2,5.2-10.4
			c1.3,0.5,2.1,1.8,2.1,2.6c0,1.3-4,11.1-4.2,11.5c-0.2,0.3-0.7,1.3-5.4,2.9C516.81,36.18,517.58,33.98,518.4,31.8L518.4,31.8z"/>
	</g>
	
		<linearGradient id="SVGID_00000142860893902538489270000004076791272918695822_" gradientUnits="userSpaceOnUse" x1="239.3974" y1="457.3001" x2="239.5974" y2="460.8001" gradientTransform="matrix(-1 0 0 -1 753.9 506)">
		<stop  offset="0" style="stop-color:#CECECA"/>
		<stop  offset="1" style="stop-color:#A4A29C"/>
	</linearGradient>
	<path fill="url(#SVGID_00000142860893902538489270000004076791272918695822_)" d="M515.2,44.4l-0.2,1.7c-0.2,0.7-0.4,2-0.8,1.7
		c-0.5-0.2-1.2-2.7-0.6-3C514.2,44.5,515.3,44,515.2,44.4z"/>
	
		<linearGradient id="SVGID_00000061440149175103365940000014667985943789824170_" gradientUnits="userSpaceOnUse" x1="244.6109" y1="456.9994" x2="244.8109" y2="460.4994" gradientTransform="matrix(-1 0 0 -1 753.9 506)">
		<stop  offset="0" style="stop-color:#CECECA"/>
		<stop  offset="1" style="stop-color:#A4A29C"/>
	</linearGradient>
	<path fill="url(#SVGID_00000061440149175103365940000014667985943789824170_)" d="M509.9,46c0,0.4-0.3,2.8-0.6,3
		c-0.2,0.3-0.6-0.5-0.8-1.3c-0.1-0.7-0.2-1,0-1.2C508.8,46.3,509.8,45.7,509.9,46z"/>
	
		<linearGradient id="SVGID_00000165197142332276827570000013733107299736203678_" gradientUnits="userSpaceOnUse" x1="232.7005" y1="449.6003" x2="237.0005" y2="442.6003" gradientTransform="matrix(-1 0 0 -1 753.9 506)">
		<stop  offset="0" style="stop-color:#F7F6F1"/>
		<stop  offset="1" style="stop-color:#BDBBB3"/>
	</linearGradient>
	<path fill="url(#SVGID_00000165197142332276827570000013733107299736203678_)" d="M522,67.2c-0.1-1.2-1.3-8-2.3-11.6
		c-1-3.8-1.6-5.3-2.3-5.4c-0.8-0.2-2.5,2.6-2.5,3s1,0,1.5,0.7c0.4,0.6,2,6.3,3,10c1.1,3.7,1.8,6.1,2.1,5.7c0.3-0.5,0.5-1,0.4-2.4
		H522z"/>
	
		<linearGradient id="SVGID_00000033353469758903356780000006936055575675705268_" gradientUnits="userSpaceOnUse" x1="249.2732" y1="454.5965" x2="250.6731" y2="443.7965" gradientTransform="matrix(-1 0 0 -1 753.9 506)">
		<stop  offset="0" style="stop-color:#F7F6F1"/>
		<stop  offset="1" style="stop-color:#BDBBB3"/>
	</linearGradient>
	<path fill="url(#SVGID_00000033353469758903356780000006936055575675705268_)" d="M503,52.2l1.2,3.8c0.4,1.5,0.8,4.5,0.9,3.7
		c0-0.7-0.5-7.3-0.7-8.5s-0.3-1.5-0.8-0.7c-0.5,0.7-0.7,1.4-0.5,1.7H503z"/>
	
		<linearGradient id="SVGID_00000096018859033114308480000014200596097355998125_" gradientUnits="userSpaceOnUse" x1="244.2137" y1="441.7992" x2="244.4137" y2="445.0992" gradientTransform="matrix(-1 0 0 -1 753.9 506)">
		<stop  offset="0" style="stop-color:#F7F6F1"/>
		<stop  offset="1" style="stop-color:#BDBBB3"/>
	</linearGradient>
	<path fill="url(#SVGID_00000096018859033114308480000014200596097355998125_)" d="M513.6,60.1c0-0.3-1,0.6-1.8,0.7
		c-0.9,0-4.3,1-5,1c-0.6,0.2-1.3-0.3-1.4-0.2s0.1,1.5,0.3,1.7c0.1,0.3,0.7,0.1,3.2-0.2c2.6-0.2,4.4,0,4.5-0.4
		C513.4,62.3,513.7,60.7,513.6,60.1L513.6,60.1z"/>
	
		<linearGradient id="SVGID_00000079477852167049687470000007173799195391065274_" gradientUnits="userSpaceOnUse" x1="243.4" y1="437.2" x2="243.4" y2="432.4" gradientTransform="matrix(-1 0 0 -1 753.9 506)">
		<stop  offset="0" style="stop-color:#F7F6F1"/>
		<stop  offset="1" style="stop-color:#D5D4D0"/>
	</linearGradient>
	<path fill="url(#SVGID_00000079477852167049687470000007173799195391065274_)" d="M515,71.5l-5.2-0.4l-3.9-0.4c0,0,0.5,2,1,2.5
		c0.7,0.5,5.7,1.7,6.9,2c1.3,0.1,1.3-0.2,1.3-0.2L515,71.5z"/>
	
		<linearGradient id="SVGID_00000033340646216402282640000006226094419757953927_" gradientUnits="userSpaceOnUse" x1="190.4975" y1="435.4" x2="190.4975" y2="445" gradientTransform="matrix(-1 0 0 -1 753.9 506)">
		<stop  offset="0" style="stop-color:#F7F6F1"/>
		<stop  offset="1" style="stop-color:#BDBBB3"/>
	</linearGradient>
	<path fill="url(#SVGID_00000033340646216402282640000006226094419757953927_)" d="M578,60.6h-15.2c-5.4,0-14.2-0.2-15.2,0
		c-1,0-2.3,2-1.6,4c0.8,2,2,4,5.3,4c3.5,0,4.3,0.3,12,0.3c7.8,0,12,0,13.5-0.4c1.4-0.4,4.1-2.1,4.2-4.7
		C581.1,61.3,579,60.6,578,60.6z"/>
	
		<linearGradient id="SVGID_00000114064912111382344030000004229067249201515416_" gradientUnits="userSpaceOnUse" x1="161.3883" y1="466.4" x2="161.3883" y2="453.7" gradientTransform="matrix(-1 0 0 -1 753.9 506)">
		<stop  offset="0" style="stop-color:#EBA868"/>
		<stop  offset="1" style="stop-color:#DC5411"/>
	</linearGradient>
	<path fill="url(#SVGID_00000114064912111382344030000004229067249201515416_)" d="M598.6,40.6c-0.6-0.8-1.7-1.8-3-1.2
		s-9.6,6.2-10.1,7.1c-0.5,1-0.9,4.4-0.2,4.6c0.7,0.2,9.2,0,11.5-0.8c2.4-0.6,3.2-1,3.3-2.2C600.1,46.9,600.1,42.8,598.6,40.6z"/>
	
		<linearGradient id="SVGID_00000088830816190982787310000013300774707876680598_" gradientUnits="userSpaceOnUse" x1="223.3481" y1="466.4" x2="223.3481" y2="453.7" gradientTransform="matrix(-1 0 0 -1 753.9 506)">
		<stop  offset="0" style="stop-color:#EBA868"/>
		<stop  offset="1" style="stop-color:#DC5411"/>
	</linearGradient>
	<path fill="url(#SVGID_00000088830816190982787310000013300774707876680598_)" d="M539.5,51.3c0.6-0.2,0-5.3-0.5-6
		c-0.4-0.8-9.7-5.6-11.4-6.3c-1.46-0.52-3.06-0.49-4.5,0.1c-0.9,0.4-1.7,1.4-1.7,1.8c-0.1,0.3-0.2,6.4,1.5,7.8c1.7,1.5,5,2,8.5,2.1
		c3.3,0.1,7.5,0.6,8,0.5L539.5,51.3z"/>
	<path fill="#3D3A39" d="M509,41.9c0.4-0.6,1-2.5,1-3c0-0.4-0.5-1.3-1.8-1.4c-1.3,0-6.4,0.7-6.7,1.6c-0.3,0.9,0.1,2.3,1.2,2.5
		C503.7,41.9,508.6,42.4,509,41.9z"/>
	
		<linearGradient id="SVGID_00000150793883970324672520000003690423995464398983_" gradientUnits="userSpaceOnUse" x1="238.9" y1="496.9685" x2="247.5" y2="496.9685" gradientTransform="matrix(-0.88 0 0 -0.88 715.2601 477.14)">
		<stop  offset="0" style="stop-color:#A0B6CC"/>
		<stop  offset="1" style="stop-color:#5E768B"/>
	</linearGradient>
	<path fill="url(#SVGID_00000150793883970324672520000003690423995464398983_)" d="M508.4,41.6c0.4-0.4,1-2.1,1-2.5
		c-0.1-0.5-0.6-1.2-1.7-1.3c-1.1,0-5.6,0.6-5.9,1.4c-0.2,0.8,0.2,2,1.1,2.2C503.9,41.6,508.1,42.1,508.4,41.6z"/>
	
		<linearGradient id="SVGID_00000128464161415198526840000005315090876061010850_" gradientUnits="userSpaceOnUse" x1="160.2655" y1="486.4813" x2="160.2655" y2="487.8813" gradientTransform="matrix(-0.59 0.17 -0.13 -0.82 667.02 419.37)">
		<stop  offset="0" style="stop-color:#EBA868"/>
		<stop  offset="1" style="stop-color:#DC5411"/>
	</linearGradient>
	<path fill="url(#SVGID_00000128464161415198526840000005315090876061010850_)" d="M508,44.3c0,0.3,0.4,0.5,0.7,0.4
		c0.4-0.1,0.7-0.5,0.6-0.8c0-0.3-0.4-0.5-0.7-0.4C508.2,43.6,507.9,44,508,44.3z"/>
</g>
</svg>
