<svg xmlns="http://www.w3.org/2000/svg" viewBox="0 0 21.4 28.54">
  <g id="Layer_2" data-name="Layer 2">
    <path id="Layer_2-2" d="M19.98.18l-2.14 2.5L14.8.18a.89.89 0 00-1.07 0l-3.03 2.5L7.67.18a.89.89 0 00-1.07 0l-3.03 2.5L1.43.18A.9.9 0 000 .89v26.76a.9.9 0 001.43.71l2.14-2.5 3.03 2.5a.89.89 0 001.07 0l3.03-2.5 3.03 2.5a.89.89 0 001.07 0l3.04-2.5 2.14 2.5a.9.9 0 001.42-.71V.89a.9.9 0 00-1.42-.71zm-2.14 19.89a.45.45 0 01-.45.44H4.01a.45.45 0 01-.44-.44v-.9a.45.45 0 01.44-.44H17.4a.45.45 0 01.45.44zm0-5.35a.45.45 0 01-.45.44H4.01a.45.45 0 01-.44-.44v-.9a.45.45 0 01.44-.44H17.4a.45.45 0 01.45.44zm0-5.35a.45.45 0 01-.45.44H4.01a.45.45 0 01-.44-.44v-.9A.45.45 0 014 8.03H17.4a.45.45 0 01.45.44z" data-name="Layer 2"/>
  </g>
</svg>
