<svg xmlns="http://www.w3.org/2000/svg" viewBox="0 0 29.16 29.16">
  <g id="Layer_2" data-name="Layer 2">
    <path id="Layer_2-2" d="M17.58 10.94l.65.64a.91.91 0 001.28 0L28.9 2.2a.91.91 0 000-1.29l-.65-.64a.91.91 0 00-1.29 0l-9.38 9.38a.91.91 0 000 1.29zM13.67 5.2a.91.91 0 001.29 0l3-3a.91.91 0 000-1.29l-.64-.64a.91.91 0 00-1.3 0l-3 3a.91.91 0 000 1.29zm14.58 6a.91.91 0 00-1.29 0l-3 3a.91.91 0 000 1.29l.65.64a.91.91 0 001.29 0l3-3a.91.91 0 000-1.29zm-7.5 4.02l-5.97-.87-2.67-5.42a1.3 1.3 0 00-2.35 0L7.1 14.35l-5.97.87a1.3 1.3 0 00-.72 2.24l4.32 4.21-1.02 5.96A1.3 1.3 0 005.6 29l5.34-2.82 5.34 2.82a1.3 1.3 0 001.9-1.38l-1.01-5.96 4.32-4.21a1.31 1.31 0 00-.74-2.24z" data-name="Layer 2"/>
  </g>
</svg>
