<svg xmlns="http://www.w3.org/2000/svg" viewBox="0 0 259 107">
<g fill="#fff">
  <path d="M123.57 106.35c-16.7 0-30.73-5.5-40.56-15.91a49.74 49.74 0 01-13.37-34.37 58.03 58.03 0 017.9-29.44h-14.1v75.73a3 3 0 01-3 3h-24.7a3 3 0 01-3-3V26.63H3a3 3 0 01-3-3V3a3 3 0 013-3h129.4c19.39 0 27.59 5.2 28.46 5.8l.44.3a3 3 0 011.3 2.47v22.7a3 3 0 01-4.56 2.56l-1.52-.93a52.77 52.77 0 00-24.64-6.38c-3.04 0-29.68.75-29.68 26.65 0 2.59.6 25.26 21.1 25.26 6.21 0 10.52-1.1 13.49-2.47h-13.47a3 3 0 01-3-3v-23.2a3 3 0 013-3h52.81a3 3 0 013 3v52.6a3 3 0 01-3 3h-22.85a3 3 0 01-3-3v-2.17c-5.4 2.42-13.72 5.5-21.79 6-1.66.11-3.31.16-4.92.16z"/>
  <path d="M182.4 102.33V3a3 3 0 013-3h32.8c18.13 0 36.49 12.62 36.49 36.73 0 14.9-6.9 26.04-19.95 32.2a59.02 59.02 0 01-21.74 5.1v28.3a3 3 0 01-3 3h-24.6a3 3 0 01-3-3zM213.04 47c4.53-.14 11.34-1.77 11.34-10.28 0-4.82-3.56-10-11.34-10.28z"/>
  <path d="M254.63.42a4.03 4.03 0 011.94.5 3.62 3.62 0 011.47 1.46 3.96 3.96 0 010 3.93 3.67 3.67 0 01-1.45 1.46 3.95 3.95 0 01-3.92 0 3.67 3.67 0 01-1.46-1.46 3.94 3.94 0 01.01-3.93A3.63 3.63 0 01252.7.93a4.04 4.04 0 011.93-.51zm0 .65a3.36 3.36 0 00-1.61.43 3.05 3.05 0 00-1.23 1.21 3.27 3.27 0 00-.01 3.28A3.08 3.08 0 00253 7.2a3.28 3.28 0 003.27 0 3.06 3.06 0 001.21-1.22 3.3 3.3 0 000-3.27 3.04 3.04 0 00-1.24-1.21 3.36 3.36 0 00-1.6-.43zm-1.73 5.46V2.3h1.46a3.53 3.53 0 011.08.12 1.05 1.05 0 01.53.4 1.09 1.09 0 01.2.63 1.13 1.13 0 01-.33.8 1.31 1.31 0 01-.88.4 1.16 1.16 0 01.36.22 4.87 4.87 0 01.62.84l.52.83h-.83l-.38-.67a3.42 3.42 0 00-.71-.99.88.88 0 00-.55-.14h-.4v1.8zm.68-2.38h.83a1.34 1.34 0 00.81-.18.58.58 0 00.22-.47.57.57 0 00-.1-.33.62.62 0 00-.29-.23 2.14 2.14 0 00-.68-.07h-.78z"/>
</g>
<g fill="none" stroke="#000" stroke-linecap="round" stroke-linejoin="round" stroke-width="3">
  <path d="M124.32 71.96h22.38s-3.64 10.48-23.4 10.48-25.1-18.2-25.1-29.27 6.48-30.65 33.68-30.65a56.24 56.24 0 0126.72 6.96V9.1S151.11 4 132.4 4H4v18.63h32.74v78.73h22.7V22.63h25.63a54.38 54.38 0 00-11.43 33.44c0 23.64 17.6 48.41 54.6 46.13 12.48-.77 26.04-8.44 26.04-8.44v7.6h20.85v-50.6h-50.8z"/>
  <path d="M218.2 4h-31.8v97.33H209V70.08s41.7 2.02 41.7-33.35C250.7 15.6 235 4 218.2 4zm-5.84 47.02h-3.32v-28.6h3.32c8.84 0 16.01 5.53 16.01 14.3 0 9.88-7.16 14.3-16 14.3z"/>
</g>
</svg>
