<svg xmlns="http://www.w3.org/2000/svg" fill="none" stroke="#1A3B5B" viewBox="0 0 1440 2480">

<style>
/* <![CDATA[ */
  
.l20 {
stroke-dasharray: 20px;
stroke-dashoffset: 20px;
animation: l20 2s forwards;
}

@keyframes l20 {
0% { stroke-dashoffset: 20px }
100% { stroke-dashoffset: 0px }
}

.l50 {
stroke-dasharray: 50px;
stroke-dashoffset: 50px;
animation: l50 1.5s forwards;
}

@keyframes l50 {
0% { stroke-dashoffset: 50px }
100% { stroke-dashoffset: 0px }
}

.l100 {
stroke-dasharray: 100px;
stroke-dashoffset: 100px;
animation: l100 1.6s forwards;
}

@keyframes l100 {
0% { stroke-dashoffset: 100px }
100% { stroke-dashoffset: 0px }
}

.l200 {
stroke-dasharray: 200px;
stroke-dashoffset: 200px;
animation: l200 2s forwards;
}

@keyframes l200 {
0% { stroke-dashoffset: 200px }
100% { stroke-dashoffset: 0px }
}

.l300 {
stroke-dasharray: 300px;
stroke-dashoffset: 300px;
animation: l300 2.4s forwards;
}

@keyframes l300 {
0% { stroke-dashoffset: 300px }
100% { stroke-dashoffset: 0px }
}

.l400 {
stroke-dasharray: 400px;
stroke-dashoffset: 400px;
animation: l400 2.8s forwards;
}

@keyframes l400 {
0% { stroke-dashoffset: 400px }
100% { stroke-dashoffset: 0px }
}

.l500 {
stroke-dasharray: 500px;
stroke-dashoffset: 500px;
animation: l500 3.2s forwards;
}

@keyframes l500 {
0% { stroke-dashoffset: 500px }
100% { stroke-dashoffset: 0px }
}

.l600 {
stroke-dasharray: 600px;
stroke-dashoffset: 600px;
animation: l600 3.2s forwards;
}

@keyframes l600 {
0% { stroke-dashoffset: 600px }
100% { stroke-dashoffset: 0px }
}

.l700 {
stroke-dasharray: 700px;
stroke-dashoffset: 700px;
animation: l700 3.6s forwards;
}

@keyframes l700 {
0% { stroke-dashoffset: 700px }
100% { stroke-dashoffset: 0px }
}

.l800 {
stroke-dasharray: 800px;
stroke-dashoffset: 800px;
animation: l800 3.6s forwards;
}

@keyframes l800 {
0% { stroke-dashoffset: 800px }
100% { stroke-dashoffset: 0px }
}

.l1000 {
stroke-dasharray: 1000px;
stroke-dashoffset: 1000px;
animation: l1000 3.6s forwards;
}

@keyframes l1000 {
0% { stroke-dashoffset: 1000px }
100% { stroke-dashoffset: 0px }
}

.l1200 {
stroke-dasharray: 1200px;
stroke-dashoffset: 1200px;
animation: l1200 3.6s forwards;
}

@keyframes l1200 {
0% { stroke-dashoffset: 1200px }
100% { stroke-dashoffset: 0px }
}

.l1500 {
stroke-dasharray: 1500px;
stroke-dashoffset: 1500px;
animation: l1500 3.6s forwards;
}

@keyframes l1500 {
0% { stroke-dashoffset: 1500px }
100% { stroke-dashoffset: 0px }
}

#z1 .l20, #z1 .l50, #z1 .l100, #z1 .l200, #z1 .l300, #z1 .l400, #z1 .l500, #z1 .l600, #z1 .l700, #z1 .l800, #z1 .l1000, #z1 .l1200, #z1 .l1500 {
  animation-delay: 3s;
}

#x1 .l20, #x1 .l50, #x1 .l100, #x1 .l200, #x1 .l300, #x1 .l400, #x1 .l500, #x1 .l600, #x1 .l700, #x1 .l800, #x1 .l1000, #x1 .l1200, #x1 .l1500 {
  animation-delay: 4s;
}

#y1 .l20, #y1 .l50, #y1 .l100, #y1 .l200, #y1 .l300, #y1 .l400, #y1 .l500, #y1 .l600, #y1 .l700, #y1 .l800, #y1 .l1000, #y1 .l1200, #y1 .l1500 {
  animation-delay: 4.7s;
}

#z2 .l20, #z2 .l50, #z2 .l100, #z2 .l200, #z2 .l300, #z2 .l400, #z2 .l500, #z2 .l600, #z2 .l700, #z2 .l800, #z2 .l1000, #z2 .l1200, #z2 .l1500 {
  animation-delay: .5s;
}

#x2 .l20, #x2 .l50, #x2 .l100, #x2 .l200, #x2 .l300, #x2 .l400, #x2 .l500, #x2 .l600, #x2 .l700, #x2 .l800, #x2 .l1000, #x2 .l1200, #x2 .l1500 {
  animation-delay: 1s;
}

#y2 .l20, #y2 .l50, #y2 .l100, #y2 .l200, #y2 .l300, #y2 .l400, #y2 .l500, #y2 .l600, #y2 .l700, #y2 .l800, #y2 .l1000, #y2 .l1200, #y2 .l1500 {
  animation-delay: 2s;
}

/* ]]> */
</style>

<g id="z1">
 <line x1="1411.22" x2="1384.07" y1="2473.03" y2="2387.33" class="l100"/><polyline points="1390.03 2388.98 1356.74 2286.28 1360.39 2281.55 1357.94 2273.9 1352 2272.2 1260.02 1986.86" class="l500"/><line x1="1397.71" x2="1371.48" y1="2469.27" y2="2383.56" class="l100"/><polyline points="1341.35 2374.82 1311.8 2272.36 1315.31 2267.45 1313.31 2259.74 1307.68 2258.15 1225.9 1974.75" class="l500"/><line x1="1393.47" x2="1365.46" y1="2473.79" y2="2381.73" class="l100"/><line x1="1350.59" x2="1320.53" y1="2479.81" y2="2368.43" class="l200"/><line x1="1337.67" x2="1307.63" y1="2479.81" y2="2364.62" class="l200"/><line x1="1332.53" x2="1302.2" y1="2479.81" y2="2362.97" class="l200"/><line x1="1328.73" x2="1306.19" y1="2479.81" y2="2391.99" class="l100"/><line x1="1388.52" x2="1386.57" y1="2394.38" y2="2388.04" class="l20"/><polyline points="1298.68 2361.84 1272.22 2259.9 1275.82 2254.8 1273.8 2247.04 1268.78 2245.45 1150.41 1785.42" class="l600"/><line x1="1284.59" x2="1261.79" y1="2479.81" y2="2378.9" class="l200"/><polyline points="1255.1 2348.86 1232.02 2247.18 1235.5 2242.27 1233.77 2234.51 1229.03 2233.01 1164.73 1946.67 1167.05 1942.52 1165.94 1938.42 1162.4 1937.1 1126.38 1775.87" class="l600"/><line x1="1238.35" x2="1216.46" y1="2479.81" y2="2365.47" class="l200"/><line x1="1220.98" x2="1215.2" y1="2367.09" y2="2337.32" class="l50"/><polyline points="1210.56 2335.74 1191.34 2234.31 1194.61 2229.31 1193.13 2221.61 1188.68 2220.15 1134.29 1935.7 1136.82 1931.17 1136.04 1927.12 1132.64 1925.8 1102.13 1766.26" class="l600"/><line x1="1207.4" x2="1201.94" y1="2363.03" y2="2333.32" class="l50"/><line x1="1202.59" x2="1197.26" y1="2361.64" y2="2331.88" class="l50"/><line x1="1190.16" x2="1170.33" y1="2479.81" y2="2352.21" class="l200"/><polyline points="1165.6 2321.86 1149.91 2221.08 1153.01 2216.22 1151.89 2208.5 1147.73 2207.18 1103.8 1924.28 1105.97 1920.05 1105.39 1915.9 1102.3 1914.78 1077.71 1756.58" class="l600"/><line x1="1151.48" x2="1146.36" y1="2479.81" y2="2439.6" class="l50"/><line x1="1148.14" x2="1146.64" y1="2440.15" y2="2428.69" class="l20"/><line x1="1133.65" x2="1123.37" y1="2425.28" y2="2338.52" class="l100"/><line x1="1109.16" x2="1104.97" y1="2334.38" y2="2295.19" class="l50"/><line x1="1107.47" x2="1106.73" y1="2296.02" y2="2289.72" class="l20"/><line x1="1106" x2="1105.26" y1="2283.02" y2="2275.95" class="l20"/><line x1="1104.62" x2="1103.86" y1="2270.22" y2="2262.72" class="l20"/><line x1="1102.51" x2="1090.66" y1="2250.78" y2="2142.49" class="l200"/><line x1="1093.38" x2="1091.53" y1="2143.42" y2="2126.61" class="l20"/><line x1="1113.52" x2="1111.34" y1="2150.01" y2="2133.15" class="l20"/><line x1="1090.17" x2="1089.32" y1="2138.15" y2="2130.7" class="l20"/><line x1="1088.79" x2="1083.76" y1="2125.7" y2="2079.84" class="l50"/><line x1="1089.12" x2="1088.44" y1="2077.35" y2="2071.49" class="l20"/><line x1="1099.23" x2="1098.49" y1="2059.37" y2="2053.57" class="l20"/><line x1="1097.11" x2="1093.56" y1="2053.11" y2="2025.25" class="l50"/><line x1="1092.68" x2="1084.62" y1="2018.47" y2="1954.55" class="l100"/><line x1="1085.78" x2="1085.2" y1="1954.76" y2="1950.16" class="l20"/><line x1="1076.86" x2="1073.46" y1="1947.12" y2="1918.61" class="l50"/><line x1="1070.62" x2="1070.14" y1="1917.1" y2="1913.01" class="l20"/><line x1="1074.95" x2="1074.44" y1="1908.68" y2="1904.52" class="l20"/><line x1="1081.14" x2="1077.57" y1="1903.13" y2="1875.41" class="l50"/><line x1="1076.7" x2="1073.68" y1="1868.75" y2="1845.82" class="l50"/><line x1="1069.37" x2="1068.96" y1="1826.99" y2="1823.63" class="l20"/><line x1="1067.92" x2="1060.56" y1="1823.23" y2="1765.47" class="l100"/><line x1="1054.51" x2="1053.01" y1="1760.49" y2="1746.76" class="l20"/><line x1="1110.9" x2="1109.97" y1="2202.91" y2="2195.12" class="l20"/><line x1="1104.77" x2="1103.89" y1="2212.78" y2="2205.14" class="l20"/><line x1="1050.7" x2="1049.67" y1="1830.09" y2="1819.41" class="l20"/><line x1="1062.68" x2="1060.06" y1="1869.79" y2="1846.28" class="l50"/><line x1="1060.64" x2="1058.52" y1="1869.07" y2="1849.45" class="l20"/><line x1="1064.7" x2="1062.86" y1="1887.92" y2="1871.51" class="l20"/><line x1="1061.16" x2="1060.83" y1="1873.82" y2="1870.78" class="l20"/><line x1="1064.05" x2="1062.66" y1="1899.97" y2="1887.06" class="l20"/><line x1="1098.56" x2="1093.71" y1="2479.81" y2="2425.2" class="l100"/><line x1="1043.47" x2="1040.16" y1="2479.81" y2="2410.58" class="l100"/><line x1="986.09" x2="985.55" y1="2479.81" y2="2395.56" class="l100"/><line x1="926.05" x2="929.83" y1="2479.81" y2="2380.28" class="l100"/><line x1="903.55" x2="909.33" y1="2479.81" y2="2374.61" class="l200"/><line x1="906.99" x2="907.64" y1="2374.02" y2="2362.43" class="l20"/><line x1="896.2" x2="901.94" y1="2479.81" y2="2383.18" class="l100"/><line x1="880.4" x2="885.13" y1="2479.81" y2="2413.61" class="l100"/><line x1="865.91" x2="868.94" y1="2479.81" y2="2442.98" class="l50"/><line x1="852.55" x2="853.35" y1="2479.81" y2="2471.25" class="l20"/><line x1="1118.71" x2="1118.13" y1="2384.36" y2="2379.16" class="l20"/><line x1="1082.55" x2="1075.6" y1="2410.98" y2="2324.56" class="l100"/><line x1="1030.48" x2="1026.95" y1="2396.55" y2="2310.33" class="l100"/><line x1="977.39" x2="977.88" y1="2381.92" y2="2044.28" class="l400"/><line x1="923.23" x2="927" y1="2366.98" y2="2281.15" class="l100"/><line x1="910.55" x2="911.08" y1="2320.4" y2="2310.96" class="l20"/><line x1="892.53" x2="894.47" y1="2390.53" y2="2359.73" class="l50"/><line x1="877.13" x2="880.98" y1="2418.29" y2="2367.57" class="l100"/><line x1="862.38" x2="866.73" y1="2445.22" y2="2394.18" class="l100"/><line x1="857.31" x2="886.84" y1="2452.92" y2="2125.11" class="l400"/><line x1="1094.83" x2="1090.85" y1="2330.15" y2="2288.78" class="l50"/><line x1="1090.85" x2="1087.62" y1="2329.03" y2="2293.81" class="l50"/><line x1="1087.79" x2="1085.04" y1="2328.1" y2="2297.94" class="l50"/><line x1="1062.87" x2="1060.72" y1="2320.8" y2="2290.7" class="l50"/><line x1="1059.24" x2="1057.61" y1="2319.75" y2="2295.71" class="l50"/><line x1="1046.74" x2="1045.38" y1="2316.13" y2="2292.16" class="l50"/><line x1="1034.24" x2="1033.13" y1="2312.5" y2="2288.51" class="l50"/><line x1="1021.69" x2="1020.82" y1="2308.89" y2="2284.83" class="l50"/><line x1="1012.31" x2="1011.48" y1="2306.11" y2="2275.98" class="l50"/><line x1="1004.25" x2="1003.58" y1="2303.74" y2="2273.57" class="l50"/><line x1="974.34" x2="974.51" y1="2294.99" y2="2259.96" class="l50"/><line x1="971.92" x2="972.11" y1="2294.26" y2="2264.34" class="l50"/><line x1="967.7" x2="967.92" y1="2293.07" y2="2271.94" class="l50"/><line x1="961.33" x2="961.44" y1="2291.16" y2="2283.58" class="l20"/><line x1="1124.8" x2="1124.26" y1="2261.85" y2="2257.24" class="l20"/><line x1="1113.28" x2="1112.74" y1="2277.16" y2="2272.56" class="l20"/><line x1="1096.12" x2="1095.58" y1="2272.05" y2="2267.45" class="l20"/><line x1="1104.13" x2="1103.6" y1="2291.55" y2="2286.95" class="l20"/><line x1="1086.95" x2="1086.6" y1="2286.44" y2="2281.83" class="l20"/><line x1="1071.22" x2="1070.86" y1="2281.79" y2="2277.18" class="l20"/><line x1="1080.24" x2="1079.89" y1="2267.2" y2="2262.59" class="l20"/><line x1="1063.73" x2="1063.38" y1="2262.04" y2="2257.43" class="l20"/><line x1="1054.79" x2="1054.43" y1="2276.66" y2="2272.05" class="l20"/><line x1="1048.44" x2="1048.09" y1="2257.43" y2="2252.82" class="l20"/><line x1="1039.57" x2="1039.36" y1="2272.28" y2="2267.45" class="l20"/><line x1="1034.07" x2="1033.85" y1="2253.3" y2="2248.47" class="l20"/><line x1="1025.39" x2="1025.18" y1="2268.08" y2="2263.25" class="l20"/><line x1="1018.32" x2="1018.11" y1="2248.41" y2="2243.84" class="l20"/><line x1="1009.71" x2="1009.51" y1="2263.25" y2="2258.68" class="l20"/><line x1="994.55" x2="994.5" y1="2258.82" y2="2254.25" class="l20"/><line x1="1003.02" x2="1002.98" y1="2243.65" y2="2239.09" class="l20"/><line x1="985.52" x2="985.47" y1="2248.41" y2="2243.27" class="l20"/><line x1="995.49" x2="995.44" y1="2222.4" y2="2217.91" class="l20"/><line x1="1096.74" x2="1096.01" y1="2281.95" y2="2274.76" class="l20"/><line x1="1088.8" x2="1088.07" y1="2278.45" y2="2270.66" class="l20"/><line x1="1095.27" x2="1093.85" y1="2267.38" y2="2253.69" class="l20"/><line x1="1087.54" x2="1086.96" y1="2265.01" y2="2259.15" class="l20"/><line x1="1060.33" x2="1059.36" y1="2256.78" y2="2243.14" class="l20"/><line x1="1015.28" x2="1014.85" y1="2243.13" y2="2229.51" class="l20"/><line x1="1093.3" x2="1075.92" y1="2247.95" y2="2077.08" class="l200"/><line x1="1085.66" x2="1069.44" y1="2245.65" y2="2074.91" class="l200"/><line x1="1074.28" x2="1073.18" y1="2061.01" y2="2050.47" class="l20"/><line x1="1067.89" x2="1066.86" y1="2058.91" y2="2048.3" class="l20"/><line x1="1058.93" x2="1046.67" y1="2237.4" y2="2067.36" class="l200"/><line x1="1059.66" x2="1051.24" y1="2040.21" y2="1944.43" class="l100"/><line x1="1014.65" x2="1009.02" y1="2223.77" y2="2054.64" class="l200"/><line x1="1021.76" x2="1017.18" y1="2027.15" y2="1932.11" class="l100"/><line x1="1044.13" x2="1041.87" y1="1935.28" y2="1907.01" class="l50"/><line x1="1011.06" x2="1009.92" y1="1923.29" y2="1895.3" class="l50"/><line x1="984.06" x2="983.94" y1="2030.32" y2="2019.92" class="l20"/><line x1="977.85" x2="977.85" y1="2028.22" y2="2017.79" class="l20"/><line x1="983.25" x2="982.7" y1="2013.99" y2="1919.72" class="l100"/><line x1="944.25" x2="947.81" y1="2000.55" y2="1907.15" class="l100"/><line x1="929.92" x2="935" y1="1995.68" y2="1902.47" class="l100"/><line x1="985.44" x2="984.13" y1="2235.74" y2="2046.2" class="l200"/><line x1="969.21" x2="970.89" y1="2266.39" y2="2041.72" class="l300"/><line x1="928.51" x2="928.91" y1="2251.36" y2="2242.6" class="l20"/><line x1="921.05" x2="932.19" y1="2252.1" y2="2028.61" class="l300"/><line x1="932.08" x2="932.42" y1="2169.38" y2="2161.86" class="l20"/><line x1="935.18" x2="935.46" y1="2098.44" y2="2091.79" class="l20"/><line x1="1059.21" x2="1051.78" y1="1913.41" y2="1840.48" class="l100"/><line x1="1053.8" x2="1047.2" y1="1911.47" y2="1841.94" class="l100"/><line x1="1045.89" x2="1044.91" y1="1828.17" y2="1817.49" class="l20"/><line x1="1039.51" x2="1034.52" y1="1812.37" y2="1755.19" class="l100"/><line x1="1029.21" x2="1028.12" y1="1750.44" y2="1736.87" class="l20"/><line x1="1003.53" x2="1003" y1="1740.3" y2="1726.86" class="l20"/><line x1="977.63" x2="977.65" y1="1730.1" y2="1716.83" class="l20"/><line x1="951.45" x2="952.05" y1="1719.83" y2="1706.56" class="l20"/><line x1="1010.84" x2="1008.17" y1="1801.37" y2="1744.78" class="l100"/><line x1="981.94" x2="981.58" y1="1790.23" y2="1734.31" class="l100"/><line x1="952.66" x2="954.76" y1="1778.96" y2="1723.77" class="l100"/><line x1="982.48" x2="982.43" y1="1804" y2="1793.66" class="l20"/><polyline points="972.11 1881.39 972.63 1813.63 977.69 1802.1 977.69 1791.88" class="l100"/><polyline points="977.57 1911.23 977.57 1883.44 977.89 1883.31 977.86 1815.59" class="l100"/><polyline points="1034.9 1904.46 1029.92 1835.32 1035.2 1824.18" class="l100"/><polyline points="1003.68 1892.98 1001.41 1824.54 1006.56 1813.22" class="l100"/><line x1="846.39" x2="849.02" y1="2468.56" y2="2440.61" class="l50"/><line x1="838.13" x2="840.02" y1="2479.81" y2="2460.85" class="l20"/><line x1="836.11" x2="838.13" y1="2479.81" y2="2460.95" class="l20"/><line x1="838.45" x2="900.1" y1="2457.68" y2="1863.74" class="l600"/><line x1="845.48" x2="845.72" y1="2447.24" y2="2444.04" class="l20"/><line x1="855.68" x2="855.97" y1="2428.3" y2="2424.93" class="l20"/><line x1="849.4" x2="879.93" y1="2437.2" y2="2122.86" class="l400"/><line x1="878.98" x2="881.5" y1="2355.45" y2="2323.64" class="l50"/><line x1="870.75" x2="890.08" y1="2349.05" y2="2126.1" class="l300"/><line x1="878.69" x2="896.57" y1="2323.64" y2="2105.66" class="l300"/><line x1="884.43" x2="884.82" y1="2318.03" y2="2312.82" class="l20"/><line x1="885.27" x2="902.22" y1="2312.96" y2="2093.31" class="l300"/><line x1="892.61" x2="908.18" y1="2296.7" y2="2080.51" class="l300"/><line x1="898.86" x2="914.02" y1="2294.9" y2="2067.9" class="l300"/><line x1="906.76" x2="919.94" y1="2269.21" y2="2055.02" class="l300"/><line x1="913.58" x2="926.13" y1="2266.37" y2="2041.72" class="l300"/><line x1="877.95" x2="887.26" y1="2106.22" y2="2013.49" class="l100"/><line x1="889.16" x2="898.36" y1="2081.44" y2="1981.06" class="l200"/><line x1="900.73" x2="908.79" y1="2055.89" y2="1956.99" class="l100"/><line x1="912.55" x2="919.47" y1="2029.84" y2="1932.49" class="l100"/><line x1="924.72" x2="930.46" y1="2002.98" y2="1907.15" class="l100"/><line x1="927.97" x2="928.31" y1="2000.75" y2="1995.08" class="l20"/><line x1="892.85" x2="903.87" y1="1990.11" y2="1877.06" class="l200"/><line x1="901.18" x2="904.19" y1="1965.64" y2="1932.49" class="l50"/><line x1="902.69" x2="905.61" y1="1966.17" y2="1932.97" class="l50"/><line x1="904.88" x2="909.85" y1="1955.42" y2="1898.19" class="l100"/><line x1="906.01" x2="908.68" y1="1928.16" y2="1897.79" class="l50"/><line x1="904.61" x2="907.6" y1="1927.63" y2="1894.66" class="l50"/><line x1="909.06" x2="909.95" y1="1893.38" y2="1883.7" class="l20"/><line x1="911.05" x2="911.55" y1="1884.16" y2="1878.84" class="l20"/><line x1="909.83" x2="916.04" y1="1944.04" y2="1868.15" class="l100"/><line x1="913.99" x2="920.45" y1="1941.4" y2="1857.5" class="l100"/><line x1="919.08" x2="925.06" y1="1929.67" y2="1846.52" class="l100"/><line x1="924.09" x2="929.55" y1="1918.08" y2="1835.87" class="l100"/><line x1="929.62" x2="934.11" y1="1898" y2="1824.95" class="l100"/><line x1="933.66" x2="933.93" y1="1899.84" y2="1895.44" class="l20"/><line x1="934.28" x2="938.85" y1="1895.55" y2="1813.67" class="l100"/><line x1="938.77" x2="943.52" y1="1897.2" y2="1802.52" class="l100"/><line x1="901.9" x2="907.58" y1="1868.61" y2="1811.63" class="l100"/><line x1="905.14" x2="905.46" y1="1815.39" y2="1812.5" class="l20"/><line x1="910.61" x2="915.75" y1="1847.41" y2="1791.42" class="l100"/><line x1="919.57" x2="924.04" y1="1825.8" y2="1770.76" class="l100"/><line x1="928.69" x2="932.52" y1="1803.57" y2="1749.8" class="l100"/><line x1="938.06" x2="941.15" y1="1780.82" y2="1728.5" class="l100"/><line x1="940.54" x2="940.75" y1="1777.58" y2="1774.43" class="l20"/><line x1="941.91" x2="944.94" y1="1774.88" y2="1719.89" class="l100"/><line x1="943.83" x2="944.01" y1="1719.43" y2="1716.8" class="l20"/><line x1="946.05" x2="946.53" y1="1792.28" y2="1780.08" class="l20"/><line x1="983.03" x2="982.6" y1="1885.41" y2="1814.21" class="l100"/><line x1="946.3" x2="946.44" y1="1842.01" y2="1838.39" class="l20"/><line x1="943.66" x2="944.86" y1="1898.92" y2="1871.44" class="l50"/>
</g>
<g id="x1">
 <line x1="1407.02" x2="1393.58" y1="2477.71" y2="2473.94" class="l20"/><line x1="1411.22" x2="1330.02" y1="2473.03" y2="2450.16" class="l100"/><line x1="1269.46" x2="1147.26" y1="2479.81" y2="2446.53" class="l200"/><line x1="1146.36" x2="907" y1="2439.71" y2="2373.97" class="l300"/><line x1="1146.64" x2="907.63" y1="2428.69" y2="2362.63" class="l300"/><line x1="907.4" x2="878.98" y1="2363.33" y2="2355.45" class="l50"/><line x1="879.28" x2="870.75" y1="2351.43" y2="2349.05" class="l20"/><line x1="880.09" x2="876.46" y1="2339.42" y2="2338.39" class="l20"/><line x1="921.82" x2="881.5" y1="2335.05" y2="2323.64" class="l50"/><line x1="1118.71" x2="884.43" y1="2384.36" y2="2318.03" class="l300"/><line x1="1118.13" x2="884.99" y1="2379.16" y2="2312.84" class="l300"/><line x1="1306.19" x2="1094.83" y1="2391.99" y2="2330.15" class="l300"/><line x1="1087.79" x2="1062.87" y1="2328.1" y2="2320.8" class="l50"/><line x1="1059.24" x2="974.34" y1="2319.75" y2="2294.99" class="l100"/><line x1="961.33" x2="927" y1="2291.16" y2="2281.15" class="l50"/><line x1="1388.64" x2="1386.1" y1="2394.51" y2="2393.71" class="l20"/><line x1="1390.15" x2="1307.63" y1="2389.11" y2="2364.62" class="l100"/><line x1="1298.68" x2="1215.2" y1="2362.02" y2="2337.17" class="l100"/><line x1="1201.94" x2="1165.69" y1="2333.32" y2="2322.52" class="l50"/><line x1="1165.6" x2="1105.92" y1="2321.86" y2="2304.14" class="l100"/><line x1="1164.21" x2="1104.97" y1="2312.97" y2="2295.19" class="l100"/><line x1="1088.06" x2="1003.44" y1="2298.81" y2="2273.57" class="l100"/><line x1="1057.6" x2="1011.79" y1="2295.78" y2="2282.12" class="l50"/><line x1="1087.62" x2="1063.24" y1="2293.81" y2="2286.62" class="l50"/><line x1="1089.66" x2="1003.38" y1="2290.73" y2="2264.86" class="l100"/><line x1="1104.71" x2="977.54" y1="2292.94" y2="2254.87" class="l200"/><line x1="1104" x2="1088.39" y1="2291.48" y2="2286.79" class="l20"/><line x1="1086.95" x2="1072.63" y1="2286.42" y2="2282.1" class="l20"/><line x1="1071.22" x2="1056.12" y1="2281.63" y2="2277.15" class="l20"/><line x1="1054.79" x2="1040.96" y1="2276.76" y2="2272.62" class="l20"/><line x1="1039.59" x2="1026.82" y1="2272.18" y2="2268.32" class="l20"/><line x1="1025.39" x2="1011.06" y1="2267.9" y2="2263.58" class="l20"/><line x1="1009.66" x2="995.99" y1="2263.23" y2="2259.1" class="l20"/><line x1="994.53" x2="979.37" y1="2258.75" y2="2254.17" class="l20"/><line x1="1103.52" x2="1090.68" y1="2287.08" y2="2283.18" class="l20"/><line x1="1103.75" x2="1092.24" y1="2284.06" y2="2280.56" class="l20"/><line x1="1086.58" x2="1074.94" y1="2281.95" y2="2278.45" class="l20"/><line x1="1088.18" x2="1076.56" y1="2279.39" y2="2275.88" class="l20"/><line x1="1070.86" x2="1058.42" y1="2277.3" y2="2273.5" class="l20"/><line x1="1072.53" x2="1061.39" y1="2274.7" y2="2271.29" class="l20"/><line x1="1054.49" x2="1043.21" y1="2272.32" y2="2268.97" class="l20"/><line x1="1056.07" x2="1044.78" y1="2269.76" y2="2266.34" class="l20"/><line x1="1039.34" x2="1029" y1="2267.78" y2="2264.68" class="l20"/><line x1="1040.9" x2="1030.55" y1="2265.19" y2="2261.97" class="l20"/><line x1="1025.21" x2="1013.27" y1="2263.5" y2="2259.94" class="l20"/><line x1="1026.74" x2="1014.71" y1="2260.89" y2="2257.24" class="l20"/><line x1="1009.55" x2="998.16" y1="2258.82" y2="2255.4" class="l20"/><line x1="1011.06" x2="999.67" y1="2256.24" y2="2252.75" class="l20"/><line x1="994.51" x2="981.51" y1="2254.33" y2="2250.38" class="l20"/><line x1="995.99" x2="983.01" y1="2251.68" y2="2247.68" class="l20"/><line x1="1112.58" x2="1096.9" y1="2278.18" y2="2273.35" class="l20"/><line x1="1095.58" x2="1088.01" y1="2272.98" y2="2270.74" class="l20"/><line x1="1113.27" x2="1097.44" y1="2277.13" y2="2272.33" class="l20"/><line x1="1096.12" x2="1081.65" y1="2271.94" y2="2267.52" class="l20"/><line x1="1079.65" x2="1064.42" y1="2268.24" y2="2263.53" class="l20"/><line x1="1080.24" x2="1065.12" y1="2267.2" y2="2262.58" class="l20"/><line x1="1063.06" x2="1049.1" y1="2263.17" y2="2258.9" class="l20"/><line x1="1063.68" x2="1049.75" y1="2262.1" y2="2257.82" class="l20"/><line x1="1047.74" x2="1034.8" y1="2258.56" y2="2254.61" class="l20"/><line x1="1048.41" x2="1035.45" y1="2257.5" y2="2253.49" class="l20"/><line x1="1033.45" x2="1019.01" y1="2254.22" y2="2249.81" class="l20"/><line x1="1034.07" x2="1019.64" y1="2253.15" y2="2248.76" class="l20"/><line x1="1018.25" x2="1004.42" y1="2248.33" y2="2244.15" class="l20"/><line x1="1017.67" x2="1003.76" y1="2249.45" y2="2245.13" class="l20"/><line x1="1002.43" x2="987.06" y1="2244.85" y2="2240.18" class="l20"/><line x1="1003.07" x2="987.73" y1="2243.73" y2="2239.09" class="l20"/><line x1="1112.73" x2="1099.81" y1="2272.71" y2="2268.77" class="l20"/><line x1="1095.53" x2="1087.54" y1="2267.53" y2="2265.01" class="l20"/><line x1="1079.89" x2="1067.34" y1="2262.76" y2="2258.87" class="l20"/><line x1="1048.1" x2="1037.67" y1="2253.03" y2="2249.93" class="l20"/><line x1="1033.85" x2="1021.83" y1="2248.76" y2="2245.13" class="l20"/><line x1="1018.11" x2="1006.62" y1="2243.93" y2="2240.43" class="l20"/><line x1="1002.98" x2="989.84" y1="2239.32" y2="2235.36" class="l20"/><line x1="1122.68" x2="1106.78" y1="2262.51" y2="2257.61" class="l20"/><line x1="1105.58" x2="1090.94" y1="2257.28" y2="2252.77" class="l20"/><line x1="1089.55" x2="1074.13" y1="2252.4" y2="2247.62" class="l20"/><line x1="1072.78" x2="1058.72" y1="2247.26" y2="2242.9" class="l20"/><line x1="1057.39" x2="1044.32" y1="2242.52" y2="2238.49" class="l20"/><line x1="1042.99" x2="1028.44" y1="2238.11" y2="2233.62" class="l20"/><line x1="1027.02" x2="1013.11" y1="2233.24" y2="2228.95" class="l20"/><line x1="1011.76" x2="996.24" y1="2228.58" y2="2223.74" class="l20"/><line x1="1124.8" x2="995.44" y1="2261.85" y2="2222.19" class="l200"/><line x1="1124.28" x2="1093.12" y1="2257.43" y2="2247.8" class="l50"/><line x1="1063.38" x2="1052.26" y1="2257.43" y2="2254.22" class="l20"/><line x1="1085.66" x2="995.44" y1="2245.65" y2="2217.91" class="l100"/><line x1="969.21" x2="921.05" y1="2266.39" y2="2252.1" class="l100"/><line x1="974.6" x2="928.51" y1="2265.01" y2="2251.36" class="l50"/><line x1="969.29" x2="921.63" y1="2254.64" y2="2240.44" class="l50"/><line x1="1381.15" x2="1161.49" y1="2361.84" y2="2295.44" class="l300"/><line x1="1356.59" x2="1149.91" y1="2286.37" y2="2221.08" class="l300"/><line x1="1150.87" x2="1104.77" y1="2227.24" y2="2212.78" class="l50"/><line x1="1360.39" x2="1110.92" y1="2281.55" y2="2202.84" class="l300"/><line x1="1357.94" x2="1109.97" y1="2273.9" y2="2195.12" class="l300"/><line x1="1099.31" x2="1090.31" y1="2221.61" y2="2218.77" class="l20"/><line x1="1098.49" x2="1089.54" y1="2213.99" y2="2211.14" class="l20"/><line x1="1082.89" x2="985.07" y1="2216.48" y2="2185.91" class="l200"/><line x1="1082.15" x2="985.07" y1="2208.83" y2="2178.32" class="l200"/><line x1="977.69" x2="932.08" y1="2183.66" y2="2169.38" class="l50"/><line x1="977.69" x2="925.65" y1="2176.08" y2="2159.68" class="l100"/><line x1="1141.26" x2="1082.99" y1="2165.49" y2="2146.58" class="l100"/><line x1="1140.23" x2="1082.3" y1="2158.68" y2="2139.82" class="l100"/><line x1="1139.53" x2="1090.16" y1="2154.35" y2="2138.07" class="l100"/><line x1="1138.35" x2="1089.32" y1="2146.78" y2="2130.7" class="l100"/><line x1="1330.52" x2="1137.64" y1="2205.56" y2="2142.04" class="l300"/><line x1="1137.58" x2="1088.79" y1="2141.78" y2="2125.7" class="l100"/><line x1="1136.72" x2="1088.19" y1="2136.24" y2="2120.17" class="l100"/><line x1="1076.17" x2="984.77" y1="2144.19" y2="2114.5" class="l100"/><line x1="1075.39" x2="984.56" y1="2137.58" y2="2107.93" class="l100"/><line x1="977.78" x2="935.18" y1="2112.32" y2="2098.44" class="l50"/><line x1="977.78" x2="929.15" y1="2105.66" y2="2089.81" class="l100"/><line x1="1309.83" x2="1127.88" y1="2141.31" y2="2079.33" class="l200"/><line x1="1129.71" x2="1089.12" y1="2091.12" y2="2077.35" class="l50"/><line x1="1083.76" x2="1075.76" y1="2079.84" y2="2077.08" class="l20"/><line x1="1128.78" x2="1088.44" y1="2085.11" y2="2071.49" class="l50"/><line x1="1069.44" x2="984.13" y1="2074.91" y2="2046.2" class="l100"/><line x1="977.88" x2="932.19" y1="2044.1" y2="2028.61" class="l50"/><line x1="1091.07" x2="938.61" y1="2066.75" y2="2014.85" class="l200"/><line x1="1099.23" x2="928.29" y1="2059.37" y2="2000.78" class="l200"/><line x1="1097.11" x2="929.92" y1="2053.11" y2="1995.68" class="l200"/><line x1="1120.79" x2="1093.56" y1="2034.83" y2="2025.25" class="l50"/><line x1="1120.14" x2="1092.93" y1="2029.53" y2="2019.94" class="l50"/><line x1="1291.36" x2="1092.16" y1="2084.08" y2="2014.34" class="l300"/><line x1="926.13" x2="912.07" y1="2041.72" y2="2037.02" class="l20"/><line x1="914.02" x2="900.1" y1="2067.9" y2="2063.32" class="l20"/><line x1="902.22" x2="888.45" y1="2093.31" y2="2088.88" class="l20"/><line x1="890.78" x2="877.29" y1="2118.06" y2="2113.79" class="l20"/><line x1="890.61" x2="876.34" y1="2120.04" y2="2115.45" class="l20"/><line x1="890.08" x2="873.29" y1="2126.1" y2="2120.74" class="l20"/><line x1="1090.44" x2="932.68" y1="2000.68" y2="1945.03" class="l200"/><line x1="1274.84" x2="1085.96" y1="2033.03" y2="1965.18" class="l300"/><line x1="1173.63" x2="1109.84" y1="1986.29" y2="1963.34" class="l100"/><line x1="1085.78" x2="933.66" y1="1954.76" y2="1899.84" class="l200"/><line x1="1085.2" x2="943.66" y1="1950.16" y2="1898.92" class="l200"/><line x1="1259.97" x2="1196.23" y1="1987.04" y2="1963.66" class="l100"/><line x1="1194.73" x2="1103.8" y1="1957.69" y2="1924.28" class="l100"/><line x1="1166.05" x2="1068.24" y1="1952.56" y2="1916.7" class="l200"/><line x1="1167.05" x2="1074.95" y1="1942.52" y2="1908.68" class="l100"/><line x1="1165.94" x2="1074.4" y1="1938.42" y2="1904.7" class="l100"/><line x1="1102.18" x2="1064.05" y1="1914.06" y2="1899.97" class="l50"/><line x1="1101.66" x2="1065.79" y1="1910.7" y2="1897.35" class="l50"/><line x1="1064.7" x2="1062.66" y1="1887.92" y2="1887.06" class="l20"/><line x1="1059.21" x2="944.86" y1="1913.41" y2="1871.44" class="l200"/><line x1="943.09" x2="939.92" y1="1875.47" y2="1874.31" class="l20"/><line x1="1050.91" x2="982.87" y1="1881" y2="1855.64" class="l100"/><line x1="977.85" x2="946.3" y1="1853.79" y2="1842.01" class="l50"/><line x1="1050.54" x2="982.83" y1="1877.25" y2="1851.95" class="l100"/><line x1="977.85" x2="941.81" y1="1850.11" y2="1836.67" class="l50"/><line x1="1183.34" x2="1097.06" y1="1913.4" y2="1881.05" class="l100"/><line x1="1097.33" x2="1060.63" y1="1882.78" y2="1868.99" class="l50"/><line x1="1063.21" x2="1061.16" y1="1874.64" y2="1873.82" class="l20"/><line x1="1062.86" x2="1060.75" y1="1871.51" y2="1870.78" class="l20"/><line x1="1096.6" x2="1062.15" y1="1878.09" y2="1865.26" class="l50"/><line x1="1096.29" x2="1061.94" y1="1876.12" y2="1863.18" class="l50"/><line x1="1047.2" x2="982.6" y1="1841.94" y2="1817.41" class="l100"/><line x1="977.86" x2="943.5" y1="1815.65" y2="1802.61" class="l50"/><line x1="938.85" x2="928.23" y1="1813.67" y2="1809.65" class="l20"/><line x1="929.39" x2="919.08" y1="1835.85" y2="1831.98" class="l20"/><line x1="920.28" x2="910.03" y1="1857.6" y2="1853.79" class="l20"/><line x1="1174.13" x2="1091.55" y1="1876.99" y2="1845.63" class="l100"/><line x1="1092.54" x2="1062.34" y1="1853.03" y2="1841.49" class="l50"/><line x1="1092.49" x2="1062.89" y1="1851.64" y2="1840.48" class="l50"/><line x1="1092.07" x2="1063.95" y1="1848.85" y2="1838.12" class="l50"/><line x1="1058.53" x2="1050.7" y1="1833.01" y2="1830.09" class="l20"/><line x1="1035.17" x2="948.35" y1="1824.16" y2="1790.95" class="l100"/><line x1="945.69" x2="943.52" y1="1793.08" y2="1792.22" class="l20"/><line x1="1044.89" x2="946.53" y1="1817.56" y2="1779.87" class="l200"/><line x1="1067.75" x2="952.66" y1="1823.25" y2="1778.96" class="l200"/><line x1="1165.45" x2="1065.63" y1="1843.89" y2="1805.25" class="l200"/><line x1="1064.14" x2="943.47" y1="1793.55" y2="1746.53" class="l200"/><line x1="1157.61" x2="1061.88" y1="1813.4" y2="1775.8" class="l200"/><line x1="1060.56" x2="954.67" y1="1765.47" y2="1723.76" class="l200"/><line x1="1054.51" x2="951.45" y1="1760.39" y2="1719.75" class="l200"/><line x1="1150.41" x2="952.02" y1="1785.42" y2="1706.64" class="l300"/><line x1="861.82" x2="857.78" y1="2448.81" y2="2447.72" class="l20"/><line x1="862.68" x2="858.4" y1="2441.88" y2="2440.74" class="l20"/><line x1="915.88" x2="913.37" y1="2267.63" y2="2266.92" class="l20"/><line x1="884.64" x2="887.08" y1="2012.74" y2="2013.57" class="l20"/>
</g>
<g id="y1">
 <line x1="952.02" x2="947.39" y1="1706.64" y2="1718.18" class="l20"/><line x1="905.46" x2="943.92" y1="1812.5" y2="1716.8" class="l200"/><line x1="905.14" x2="943.83" y1="1815.39" y2="1719.43" class="l200"/><line x1="907.58" x2="944.87" y1="1811.63" y2="1719.33" class="l100"/><line x1="904.57" x2="943.47" y1="1841.8" y2="1746.63" class="l200"/><line x1="900.1" x2="903.1" y1="1863.74" y2="1856.59" class="l20"/><line x1="898.84" x2="940.75" y1="1875.93" y2="1774.43" class="l200"/><line x1="898.46" x2="940.54" y1="1879.55" y2="1777.58" class="l200"/><line x1="901.19" x2="941.35" y1="1875.19" y2="1777.92" class="l200"/><line x1="941.91" x2="946.53" y1="1791.61" y2="1780.22" class="l20"/><line x1="943.52" x2="946.18" y1="1792.22" y2="1785.92" class="l20"/><line x1="947.25" x2="948.35" y1="1793.66" y2="1790.95" class="l20"/><line x1="897.02" x2="902.27" y1="1893.38" y2="1880.95" class="l20"/><line x1="911.54" x2="943.5" y1="1878.96" y2="1802.61" class="l100"/><line x1="893.36" x2="907.6" y1="1928.69" y2="1894.83" class="l50"/><line x1="908.37" x2="941.81" y1="1915.39" y2="1836.67" class="l100"/><line x1="889.38" x2="904.19" y1="1966.98" y2="1932.49" class="l50"/><line x1="904.88" x2="939.92" y1="1955.51" y2="1874.31" class="l100"/><line x1="909.1" x2="913.99" y1="1952.58" y2="1941.4" class="l20"/><line x1="919.08" x2="933.93" y1="1929.67" y2="1895.44" class="l50"/><line x1="934.39" x2="944.86" y1="1895.57" y2="1871.44" class="l50"/><line x1="885.16" x2="900.63" y1="2007.68" y2="1972.24" class="l50"/><line x1="884.65" x2="933.67" y1="2012.64" y2="1899.75" class="l200"/><line x1="878.53" x2="882.28" y1="2071.49" y2="2063.13" class="l20"/><line x1="882.86" x2="932.68" y1="2057.33" y2="1945.03" class="l200"/><line x1="874.05" x2="928.31" y1="2114.78" y2="1995.08" class="l200"/><line x1="873.42" x2="927.98" y1="2120.74" y2="2000.64" class="l200"/><line x1="877.22" x2="928.42" y1="2113.76" y2="2000.87" class="l200"/><line x1="890.78" x2="938.61" y1="2118.06" y2="2014.85" class="l200"/><line x1="970.89" x2="977.52" y1="2041.72" y2="2028.07" class="l20"/><line x1="1009.02" x2="1015.92" y1="2054.64" y2="2041.19" class="l20"/><line x1="1046.7" x2="1053.72" y1="2067.14" y2="2054.03" class="l20"/><line x1="1083.76" x2="1091.07" y1="2079.84" y2="2066.75" class="l20"/><line x1="1084.4" x2="1099.23" y1="2085.79" y2="2059.37" class="l50"/><line x1="867.27" x2="885.38" y1="2180.04" y2="2141.32" class="l50"/><line x1="885.23" x2="929.15" y1="2181.82" y2="2089.81" class="l200"/><line x1="860.35" x2="879.45" y1="2246.7" y2="2207.11" class="l50"/><line x1="878.97" x2="925.59" y1="2254.19" y2="2159.86" class="l200"/><line x1="852.49" x2="872.71" y1="2322.37" y2="2282.03" class="l50"/><line x1="871.78" x2="921.63" y1="2337.06" y2="2240.44" class="l200"/><line x1="870.75" x2="881.05" y1="2349.05" y2="2329.34" class="l50"/><line x1="881.5" x2="884.43" y1="2323.64" y2="2318.03" class="l20"/><line x1="888.92" x2="921.05" y1="2314.02" y2="2252.1" class="l100"/><line x1="891.4" x2="923.55" y1="2314.66" y2="2252.9" class="l100"/><line x1="894.88" x2="927.19" y1="2315.68" y2="2253.96" class="l100"/><line x1="906.79" x2="927.1" y1="2319.09" y2="2280.98" class="l50"/><line x1="843.54" x2="864.98" y1="2408.67" y2="2367.79" class="l50"/><line x1="866.73" x2="886.36" y1="2394.39" y2="2357.49" class="l50"/><line x1="838.31" x2="855.97" y1="2457.91" y2="2425.01" class="l50"/><line x1="838.13" x2="855.68" y1="2460.95" y2="2428.3" class="l50"/><line x1="837.69" x2="859.93" y1="2465.04" y2="2423.85" class="l50"/><line x1="837.24" x2="858.4" y1="2479.81" y2="2440.82" class="l50"/><line x1="840.31" x2="857.77" y1="2479.81" y2="2447.86" class="l50"/><line x1="842.58" x2="857.31" y1="2479.81" y2="2452.92" class="l50"/><line x1="843.44" x2="858.04" y1="2479.81" y2="2453.13" class="l50"/><line x1="848.6" x2="907" y1="2479.81" y2="2373.97" class="l200"/><line x1="862.38" x2="907.4" y1="2445.22" y2="2363.07" class="l100"/><line x1="1061.98" x2="1069.37" y1="1842.35" y2="1826.99" class="l20"/><line x1="1068.24" x2="1074.44" y1="1916.7" y2="1904.52" class="l20"/><line x1="1070.38" x2="1074.94" y1="1917.48" y2="1908.58" class="l20"/><line x1="1098.49" x2="1109.91" y1="2213.99" y2="2195.37" class="l50"/><line x1="1099.31" x2="1110.9" y1="2221.61" y2="2202.91" class="l50"/><line x1="977.63" x2="995.44" y1="2249.98" y2="2217.91" class="l50"/><line x1="977.57" x2="995.58" y1="2254.47" y2="2222.11" class="l50"/><line x1="987.73" x2="996.29" y1="2239.09" y2="2223.78" class="l20"/><line x1="974.5" x2="976.28" y1="2260.15" y2="2256.77" class="l20"/><line x1="981.51" x2="983.01" y1="2250.38" y2="2247.68" class="l20"/><line x1="994.51" x2="1000.21" y1="2254.33" y2="2244.18" class="l20"/><line x1="994.59" x2="1002.43" y1="2258.74" y2="2244.85" class="l20"/><line x1="1003.07" x2="1011.69" y1="2243.73" y2="2228.53" class="l20"/><line x1="1002.98" x2="1009.48" y1="2239.32" y2="2227.87" class="l20"/><line x1="996.06" x2="1003.89" y1="2259.1" y2="2245.25" class="l20"/><line x1="1004.5" x2="1013.17" y1="2244.17" y2="2228.95" class="l20"/><line x1="1009.55" x2="1015.33" y1="2258.82" y2="2248.76" class="l20"/><line x1="1009.66" x2="1017.6" y1="2263.23" y2="2249.45" class="l20"/><line x1="1011.09" x2="1019.24" y1="2263.71" y2="2249.81" class="l20"/><line x1="1018.11" x2="1024.63" y1="2243.93" y2="2232.67" class="l20"/><line x1="1018.25" x2="1027.02" y1="2248.33" y2="2233.24" class="l20"/><line x1="1019.64" x2="1028.44" y1="2248.76" y2="2233.62" class="l20"/><line x1="1025.39" x2="1033.45" y1="2267.9" y2="2254.22" class="l20"/><line x1="1025.21" x2="1031.07" y1="2263.5" y2="2253.49" class="l20"/><line x1="1026.82" x2="1034.87" y1="2268.32" y2="2254.66" class="l20"/><line x1="1033.85" x2="1040.58" y1="2248.76" y2="2237.36" class="l20"/><line x1="1034.07" x2="1042.99" y1="2253.15" y2="2238.11" class="l20"/><line x1="1035.51" x2="1044.36" y1="2253.55" y2="2238.53" class="l20"/><line x1="1039.34" x2="1045.24" y1="2267.78" y2="2257.82" class="l20"/><line x1="1039.59" x2="1047.74" y1="2272.18" y2="2258.56" class="l20"/><line x1="1040.96" x2="1049.1" y1="2272.62" y2="2258.9" class="l20"/><line x1="1048.1" x2="1054.87" y1="2253.03" y2="2241.77" class="l20"/><line x1="1048.44" x2="1057.39" y1="2257.43" y2="2242.52" class="l20"/><line x1="1049.84" x2="1058.72" y1="2257.89" y2="2242.9" class="l20"/><line x1="1054.49" x2="1060.56" y1="2272.32" y2="2262.41" class="l20"/><line x1="1054.77" x2="1063.06" y1="2276.74" y2="2263.17" class="l20"/><line x1="1056.12" x2="1064.42" y1="2277.15" y2="2263.53" class="l20"/><line x1="1063.38" x2="1070.19" y1="2257.43" y2="2246.43" class="l20"/><line x1="1063.73" x2="1072.78" y1="2262.04" y2="2247.26" class="l20"/><line x1="1065.12" x2="1074.13" y1="2262.58" y2="2247.62" class="l20"/><line x1="1070.86" x2="1077.02" y1="2277.3" y2="2267.43" class="l20"/><line x1="1071.22" x2="1079.65" y1="2281.63" y2="2268.24" class="l20"/><line x1="1072.63" x2="1081.07" y1="2282.1" y2="2268.64" class="l20"/><line x1="1079.89" x2="1086.84" y1="2262.76" y2="2251.56" class="l20"/><line x1="1080.32" x2="1089.55" y1="2267.19" y2="2252.4" class="l20"/><line x1="1081.65" x2="1090.94" y1="2267.52" y2="2252.77" class="l20"/><line x1="1086.42" x2="1092.75" y1="2282.1" y2="2272.12" class="l20"/><line x1="1086.95" x2="1095.58" y1="2286.42" y2="2272.98" class="l20"/><line x1="1088.39" x2="1097.1" y1="2286.79" y2="2273.35" class="l20"/><line x1="1095.54" x2="1102.7" y1="2267.68" y2="2256.36" class="l20"/><line x1="1096.12" x2="1105.46" y1="2271.94" y2="2257.16" class="l20"/><line x1="1097.56" x2="1106.86" y1="2272.36" y2="2257.64" class="l20"/><line x1="1103.52" x2="1109.79" y1="2287.08" y2="2277.34" class="l20"/><line x1="1104" x2="1112.58" y1="2291.48" y2="2278.18" class="l20"/><line x1="1104.71" x2="1124.8" y1="2292.94" y2="2261.85" class="l50"/><line x1="1113.27" x2="1122.68" y1="2277.13" y2="2262.51" class="l20"/><line x1="1112.71" x2="1119.85" y1="2272.81" y2="2261.68" class="l20"/><line x1="957.8" x2="970.7" y1="2290.13" y2="2266.87" class="l50"/><line x1="1057.6" x2="1060.72" y1="2295.78" y2="2290.73" class="l20"/><line x1="1336.18" x2="1367.96" y1="2426.4" y2="2389.56" class="l50"/><line x1="1319.85" x2="1322.75" y1="2445.21" y2="2442.07" class="l20"/><line x1="1326.04" x2="1330.02" y1="2454.84" y2="2450.16" class="l20"/><line x1="1324.64" x2="1327.55" y1="2463.73" y2="2460.65" class="l20"/><line x1="1325.29" x2="1328.25" y1="2466.44" y2="2463.28" class="l20"/><line x1="1341.09" x2="1373.6" y1="2444.89" y2="2407.99" class="l50"/><line x1="1341.82" x2="1374.41" y1="2447.6" y2="2410.64" class="l50"/><line x1="1393.58" x2="1397.93" y1="2473.94" y2="2469.15" class="l20"/><line x1="1404.92" x2="1411.22" y1="2479.81" y2="2473.03" class="l20"/>
</g>
<g id="z2">
  <line x1="598.64" x2="667.53" y1="2479.81" y2="2232.21" class="l300"/><line x1="567.34" x2="643.93" y1="2479.81" y2="2225.43" class="l300"/><line x1="496.83" x2="589.02" y1="2470.33" y2="2210.07" class="l300"/><polyline points="418.37 2479.81 420.6 2474.44 421.46 2470.85" class="l20"/><line x1="379.78" x2="385.74" y1="2479.81" y2="2466.15" class="l20"/><line x1="367.72" x2="547.98" y1="2479.81" y2="2076.43" class="l500"/><line x1="426.28" x2="533.23" y1="2453.58" y2="2193.87" class="l300"/><line x1="360.35" x2="543.41" y1="2479.81" y2="2075" class="l500"/><line x1="539.77" x2="572.39" y1="2183.52" y2="2103.9" class="l100"/><line x1="593.62" x2="621.96" y1="2199.07" y2="2119.13" class="l100"/><line x1="638.08" x2="649.82" y1="2208.1" y2="2173.51" class="l50"/><line x1="709.92" x2="711.06" y1="2145.65" y2="2141.25" class="l20"/><line x1="660.07" x2="721.68" y1="2127.21" y2="1931.85" class="l300"/><line x1="660.91" x2="693.38" y1="2130.96" y2="2029.06" class="l200"/><line x1="650.36" x2="687.56" y1="2127.9" y2="2013.02" class="l200"/><line x1="652.04" x2="715.05" y1="2124.83" y2="1929.63" class="l300"/><line x1="646.04" x2="727.35" y1="2126.49" y2="1878.97" class="l300"/><line x1="636.73" x2="709.31" y1="2077.47" y2="1872.57" class="l300"/><line x1="616.83" x2="690.65" y1="2059.1" y2="1865.98" class="l300"/><line x1="589.3" x2="672.51" y1="2062.66" y2="1859.72" class="l300"/><line x1="570.47" x2="654.26" y1="2044.48" y2="1853.2" class="l300"/><line x1="677.6" x2="712.35" y1="1843.51" y2="1759.15" class="l100"/><line x1="714.54" x2="744.82" y1="1856.43" y2="1771.03" class="l100"/><line x1="750.98" x2="776.95" y1="1869.35" y2="1782.97" class="l100"/><line x1="766.75" x2="790.23" y1="1874.94" y2="1790.23" class="l100"/><line x1="572.05" x2="584.55" y1="2022.39" y2="1994.63" class="l50"/><line x1="586.59" x2="623.25" y1="1995.28" y2="1912.81" class="l100"/><line x1="614.42" x2="618.9" y1="1938.43" y2="1928.22" class="l20"/><line x1="588.87" x2="625.43" y1="1987.04" y2="1905.04" class="l100"/><line x1="586.79" x2="619.1" y1="1986.39" y2="1914.41" class="l100"/><line x1="624.68" x2="731.75" y1="1904.76" y2="1665.16" class="l300"/><line x1="694.41" x2="696.25" y1="1757.03" y2="1752.95" class="l20"/><line x1="698.3" x2="701.03" y1="1743.87" y2="1737.74" class="l20"/><line x1="699.61" x2="739.8" y1="1749.73" y2="1657.97" class="l200"/><line x1="715.18" x2="753.04" y1="1755.53" y2="1663.15" class="l100"/><line x1="730.65" x2="766.36" y1="1761.27" y2="1668.16" class="l100"/><line x1="746.61" x2="779.79" y1="1767.37" y2="1673.65" class="l100"/><line x1="761.93" x2="792.84" y1="1773.1" y2="1678.73" class="l100"/><line x1="772.61" x2="783.05" y1="1750.97" y2="1718.71" class="l50"/><line x1="777.64" x2="787.9" y1="1752.89" y2="1720.51" class="l50"/><line x1="777.76" x2="784.77" y1="1778.77" y2="1755.6" class="l50"/><line x1="782.6" x2="806.33" y1="1754.72" y2="1683.99" class="l100"/><line x1="780.63" x2="813.48" y1="1772.9" y2="1675.27" class="l200"/><line x1="795.84" x2="818.55" y1="1743.85" y2="1677.02" class="l100"/><line x1="757.27" x2="776.58" y1="1650" y2="1602.95" class="l100"/><line x1="784.06" x2="800.99" y1="1660.54" y2="1612.85" class="l100"/><line x1="810.61" x2="825.17" y1="1671.01" y2="1622.52" class="l100"/><line x1="822.11" x2="835.63" y1="1675.5" y2="1626.81" class="l100"/><line x1="778.43" x2="782.51" y1="1601.12" y2="1591.17" class="l20"/><line x1="802.09" x2="805.65" y1="1610.67" y2="1600.53" class="l20"/><line x1="825.54" x2="828.68" y1="1620.1" y2="1609.79" class="l20"/><line x1="344.8" x2="807.66" y1="2479.81" y2="1482.06" class="l1200"/><line x1="335.97" x2="627.66" y1="2479.81" y2="1859.28" class="l700"/><line x1="698.95" x2="811.43" y1="1641.31" y2="1428.65" class="l300"/><line x1="664.64" x2="692.1" y1="1701.22" y2="1650.04" class="l100"/><line x1="667.7" x2="809.22" y1="1690.04" y2="1427.25" class="l300"/><line x1="350.98" x2="366.05" y1="2435.84" y2="2404.52" class="l50"/><line x1="255.54" x2="268.93" y1="2479.81" y2="2454.37" class="l50"/><line x1="234.9" x2="259.44" y1="2479.81" y2="2434.67" class="l100"/><line x1=".07" x2="24.99" y1="2412.69" y2="2379.49" class="l50"/><line x1="88.9" x2="130.56" y1="2394.58" y2="2334.56" class="l100"/><line x1="103.72" x2="125.36" y1="2376.75" y2="2345.5" class="l50"/><line x1="212.17" x2="247.4" y1="2423.62" y2="2363.35" class="l100"/><line x1="233.83" x2="251.9" y1="2407.94" y2="2376.53" class="l50"/><line x1=".83" x2="9.31" y1="2315.01" y2="2304.55" class="l20"/><line x1="21.01" x2="29.26" y1="2319.88" y2="2309.54" class="l20"/><line x1="77.68" x2="85.36" y1="2333.78" y2="2323.34" class="l20"/><line x1="260.59" x2="438.05" y1="2340.9" y2="2037.43" class="l400"/><line x1="448.05" x2="453.68" y1="2187.34" y2="2175.95" class="l20"/><line x1="408.03" x2="414.16" y1="2176.09" y2="2164.61" class="l20"/><line x1="208.97" x2="231.24" y1="2327.93" y2="2292.81" class="l50"/><line x1="155.88" x2="179.86" y1="2314.61" y2="2279.59" class="l50"/><line x1="146.14" x2="343.34" y1="2312.18" y2="2028.21" class="l400"/><line x1="450.64" x2="556.3" y1="2015.97" y2="1835.22" class="l300"/><line x1="369.46" x2="492.61" y1="1990.54" y2="1813.03" class="l300"/><line x1="492.99" x2="517.55" y1="1812.43" y2="1777.05" class="l50"/><line x1="484.3" x2="500.36" y1="1887.82" y2="1862.3" class="l50"/><line x1="27.42" x2="138.52" y1="2282.34" y2="2145.78" class="l200"/><line x1=".07" x2="20.61" y1="2262.7" y2="2238.53" class="l50"/><line x1="132.47" x2="150.43" y1="2144.08" y2="2122.19" class="l50"/><line x1="156.33" x2="255.92" y1="2123.92" y2="2001.51" class="l200"/><line x2="189.53" y1="2149.83" y2="1949.16" class="l300"/><line x1="200.43" x2="312.66" y1="1937.64" y2="1818.84" class="l200"/><line x1="286.1" x2="373.03" y1="1964.45" y2="1857.62" class="l200"/><line x1="377.62" x2="427.78" y1="1851.98" y2="1790.36" class="l100"/><line x1="615.39" x2="625.81" y1="1881.6" y2="1859.52" class="l50"/><line x1="617.92" x2="647.07" y1="1872.4" y2="1811.08" class="l100"/><line x1="636.27" x2="644.63" y1="1837.39" y2="1819.83" class="l20"/><line x1="631.38" x2="637.83" y1="1851.72" y2="1838.45" class="l20"/><line x1="595.95" x2="606.91" y1="1864.73" y2="1843.19" class="l50"/><line x1="608.86" x2="616.97" y1="1839.37" y2="1823.5" class="l20"/><line x1="621.69" x2="633.92" y1="1814.21" y2="1790.17" class="l50"/><line x1="572.43" x2="581.66" y1="1807.69" y2="1791.99" class="l20"/><line x1="577.98" x2="583.32" y1="1809.75" y2="1800.34" class="l20"/><line x1="504.44" x2="523.5" y1="1843.32" y2="1813.94" class="l50"/><line x1="525.96" x2="546.13" y1="1810.19" y2="1779.09" class="l50"/><line x1="506.44" x2="554.03" y1="1833.76" y2="1761.27" class="l100"/><line x1="522.87" x2="533.63" y1="1769.5" y2="1753.94" class="l20"/><line x1="445.54" x2="452.78" y1="1762.91" y2="1754.01" class="l20"/><line x1="456.36" x2="461.58" y1="1755.25" y2="1748.86" class="l20"/><line x1="445.58" x2="449.22" y1="1768.49" y2="1764.01" class="l20"/><line x1="385.68" x2="399.65" y1="1741.5" y2="1726.66" class="l50"/><line x1="377.16" x2="385.34" y1="1738.45" y2="1729.96" class="l20"/><line x1="368.93" x2="372.31" y1="1759.81" y2="1756.17" class="l20"/><line x1="358.5" x2="524.44" y1="1756.17" y2="1584.2" class="l300"/><line x1="643.94" x2="678.81" y1="1681.02" y2="1621.94" class="l100"/><line x1="528.23" x2="590.49" y1="1676.03" y2="1598.36" class="l100"/><line x1="530.66" x2="592.67" y1="1664.28" y2="1588.08" class="l100"/><line x1="504.97" x2="570.74" y1="1654.68" y2="1579.37" class="l100"/><line x1=".07" x2="32.46" y1="2127.75" y2="2093.93" class="l50"/><line x1="17.38" x2="38.14" y1="2112.2" y2="2090.65" class="l50"/><line x1="36.15" x2="167.56" y1="2090.06" y2="1953.91" class="l200"/><line x1="187.27" x2="301.57" y1="1933.49" y2="1815.07" class="l200"/><line x1="321.28" x2="361.92" y1="1809.66" y2="1766.52" class="l100"/><line x1="305.4" x2="351.74" y1="1811.11" y2="1763.16" class="l100"/><line x1=".07" x2="445.39" y1="1920.69" y2="1553.43" class="l600"/><line x1=".07" x2="364.23" y1="1763.69" y2="1521.85" class="l500"/><line x1=".07" x2="280.84" y1="1640.47" y2="1489.41" class="l400"/><line x1=".07" x2="79.16" y1="1548.2" y2="1513.06" class="l100"/><line x1=".07" x2="79.16" y1="1541.78" y2="1507.19" class="l100"/><line x1="79.16" x2="128.96" y1="1506.66" y2="1484.92" class="l100"/><line x1="148.15" x2="155.74" y1="1492.24" y2="1488.82" class="l20"/><line x1="79.42" x2="129.29" y1="1493.89" y2="1472.7" class="l100"/><line x1="85.11" x2="123.69" y1="1479.92" y2="1464.04" class="l50"/><line x1="79.4" x2="85.27" y1="1472.28" y2="1469.98" class="l20"/><line x1="79.46" x2="85.32" y1="1466.45" y2="1464.12" class="l20"/><line x1=".07" x2="61.02" y1="1492.39" y2="1468.82" class="l100"/><line x1=".07" x2="79.94" y1="1441.08" y2="1414.39" class="l100"/><line x1=".07" x2="61.02" y1="1384.03" y2="1367.22" class="l100"/><line x1=".07" x2="133.59" y1="1324.57" y2="1295.97" class="l200"/><line x1="80.58" x2="128.01" y1="1295.38" y2="1285.85" class="l50"/><line x1=".07" x2="60.98" y1="1262.36" y2="1253.12" class="l100"/><line x1=".07" x2="81.44" y1="1197.28" y2="1190.4" class="l100"/><line x1=".07" x2="60.88" y1="1129.17" y2="1128.28" class="l100"/><line x1=".07" x2="82.12" y1="1058.02" y2="1062.59" class="l100"/><line x1="82.09" x2="138.52" y1="1065.95" y2="1069" class="l100"/><line x1="82.18" x2="134.9" y1="1052.95" y2="1056.57" class="l100"/><line x1=".07" x2="60.6" y1="982.93" y2="991.07" class="l100"/><line x1="82.65" x2="115.03" y1="982.43" y2="987.18" class="l50"/><line x1="82.97" x2="115.81" y1="937.5" y2="944" class="l50"/><line x1="82.97" x2="115.81" y1="936.6" y2="943.13" class="l50"/><line x1=".07" x2="83.15" y1="904.27" y2="922.09" class="l100"/><line x1="83.36" x2="116.85" y1="875.56" y2="884.52" class="l50"/><line x1=".07" x2="60.44" y1="821.53" y2="839.61" class="l100"/><line x1="174.78" x2="286.1" y1="995.98" y2="1012.42" class="l200"/><line x1="288.83" x2="291.73" y1="1016.95" y2="1017.38" class="l20"/><line x1="295.11" x2="304.5" y1="978.73" y2="980.63" class="l20"/><line x1="298.73" x2="308.05" y1="933.04" y2="935.52" class="l20"/><line x1="302.31" x2="311.9" y1="885.88" y2="889.14" class="l20"/><line x1="306.15" x2="315.81" y1="837.17" y2="841.16" class="l20"/><line x1="310.15" x2="319.91" y1="786.92" y2="791.72" class="l20"/><line x1="314.31" x2="324.08" y1="734.97" y2="740.55" class="l20"/><line x1="318.52" x2="328.42" y1="681.23" y2="687.81" class="l20"/><line x1="322.89" x2="332.98" y1="625.71" y2="633.19" class="l20"/><line x1="327.45" x2="337.63" y1="568.21" y2="576.72" class="l20"/><line x1="336.54" x2="339.99" y1="406.31" y2="410.09" class="l20"/><line x1="202.52" x2="332.82" y1="266.7" y2="409.04" class="l200"/><line x1=".07" x2="59.72" y1="15.93" y2="66.97" class="l100"/><line x1=".07" x2="59.82" y1="113.82" y2="164.48" class="l100"/><line x1=".07" x2="59.91" y1="221.66" y2="276.36" class="l100"/><line x1=".07" x2="60.03" y1="333.89" y2="381.76" class="l100"/><line x1=".07" x2="60.13" y1="442.68" y2="483.97" class="l100"/><line x1=".07" x2="85.25" y1="545.43" y2="594.97" class="l100"/><line x1=".07" x2="60.29" y1="642.5" y2="671.56" class="l100"/><line x1=".07" x2="84.09" y1="734.37" y2="767.04" class="l100"/><line x1="96.4" x2="153.08" y1="419.39" y2="464.01" class="l100"/><line x1="86.4" x2="89.14" y1="411.48" y2="413.57" class="l20"/><line x1="86.7" x2="125.37" y1="373.39" y2="405.52" class="l100"/><line x1="87.6" x2="127.74" y1="232.03" y2="271.7" class="l100"/><line x1="88.21" x2="129.24" y1="141.73" y2="186.49" class="l100"/><line x1="86.33" x2="150.86" y1="430.13" y2="479.65" class="l100"/><line x1="86.15" x2="123.94" y1="454.25" y2="482.19" class="l50"/><line x1="86.11" x2="123.88" y1="461.59" y2="489.24" class="l50"/><line x1="86.03" x2="123.68" y1="473.58" y2="500.63" class="l50"/><line x1="85.64" x2="122.72" y1="531.48" y2="555.65" class="l50"/><line x1="85.16" x2="121.44" y1="605.31" y2="625.94" class="l50"/><line x1="84.9" x2="120.82" y1="642.92" y2="661.87" class="l50"/><line x1="84.86" x2="120.61" y1="653.64" y2="672.17" class="l50"/><line x1="84.71" x2="120.26" y1="676" y2="693.44" class="l50"/><line x1="84.47" x2="119.76" y1="706.42" y2="722.48" class="l50"/><line x1="84.22" x2="119.08" y1="745.6" y2="759.95" class="l50"/><line x1="84.14" x2="143.24" y1="760.49" y2="783.9" class="l100"/><line x1="84.04" x2="144.21" y1="775.45" y2="798.3" class="l100"/><line x1="83.77" x2="118.12" y1="811.91" y2="823.49" class="l50"/><line x1="698.63" x2="812.33" y1="1627.73" y2="1418.63" class="l300"/><line x1="614.61" x2="657.52" y1="1596.7" y2="1539.78" class="l100"/><line x1="659.91" x2="663" y1="1530.12" y2="1526.03" class="l20"/><line x1="666.71" x2="764.44" y1="1527.55" y2="1397.78" class="l200"/><line x1="540.52" x2="592.65" y1="1567.53" y2="1513.51" class="l100"/><line x1="594.86" x2="598.65" y1="1503.57" y2="1499.75" class="l20"/><line x1="603.9" x2="722.23" y1="1501.88" y2="1379.28" class="l200"/><line x1="726.2" x2="787.87" y1="1375.2" y2="1311.31" class="l100"/><line x1="464.53" x2="526.46" y1="1537.69" y2="1486.66" class="l100"/><line x1="528.37" x2="532.86" y1="1476.5" y2="1472.87" class="l20"/><line x1="539.71" x2="682.13" y1="1475.73" y2="1358.26" class="l200"/><line x1="684.08" x2="756.46" y1="1356.69" y2="1296.97" class="l100"/><line x1="400.55" x2="410.94" y1="1536.05" y2="1528.34" class="l20"/><line x1="391.3" x2="412.55" y1="1532.46" y2="1517.28" class="l50"/><line x1="367.05" x2="389.25" y1="1522.93" y2="1508.12" class="l50"/><line x1="386.56" x2="458.66" y1="1507.1" y2="1459.18" class="l100"/><line x1="460.34" x2="465.57" y1="1448.76" y2="1445.39" class="l20"/><line x1="474.14" x2="639.09" y1="1448.9" y2="1339.37" class="l200"/><line x1="640.66" x2="642.89" y1="1332.31" y2="1330.9" class="l20"/><line x1="648.36" x2="724.71" y1="1333.28" y2="1282.54" class="l100"/><line x1="306.53" x2="389.36" y1="1475.58" y2="1431.06" class="l100"/><line x1="390.75" x2="396.75" y1="1420.45" y2="1417.29" class="l20"/><line x1="407.07" x2="595.36" y1="1421.5" y2="1320.19" class="l300"/><line x1="596.85" x2="599.38" y1="1313.1" y2="1311.7" class="l20"/><line x1="605.9" x2="692.58" y1="1314.54" y2="1267.91" class="l100"/><line x1="247.98" x2="315.38" y1="1464.65" y2="1432.25" class="l100"/><line x1="369.54" x2="432.95" y1="1406.4" y2="1375.86" class="l100"/><line x1="339.03" x2="409.45" y1="1393.7" y2="1362.9" class="l100"/><line x1="319.61" x2="326.43" y1="1391.42" y2="1388.55" class="l20"/><line x1="205.95" x2="223.25" y1="1460.32" y2="1452.61" class="l20"/><line x1="223.64" x2="318.45" y1="1444.15" y2="1402.74" class="l200"/><line x1="426.3" x2="429.6" y1="1179.83" y2="1179.41" class="l20"/><line x1="436.98" x2="491.12" y1="1182.74" y2="1175.76" class="l100"/><line x1="486.71" x2="489.41" y1="1172.67" y2="1172.27" class="l20"/><line x1="451.85" x2="504.29" y1="1189.44" y2="1181.81" class="l100"/><line x1="492.18" x2="540.65" y1="1207.61" y2="1198.31" class="l50"/><line x1="532.14" x2="576.25" y1="1225.59" y2="1214.56" class="l50"/><line x1="571.65" x2="611.5" y1="1243.3" y2="1230.56" class="l50"/><line x1="607.07" x2="644.64" y1="1262.1" y2="1247.17" class="l50"/><line x1="603.83" x2="622.68" y1="1277.96" y2="1269.72" class="l50"/><line x1="624.7" x2="660.11" y1="1268.57" y2="1253.12" class="l50"/><line x1="582.32" x2="600.19" y1="1304.18" y2="1295.59" class="l20"/><line x1="563.16" x2="585.67" y1="1295.72" y2="1285.89" class="l50"/><line x1="552.37" x2="555.26" y1="1293.46" y2="1292.17" class="l20"/><line x1="473.89" x2="477.84" y1="1342.25" y2="1340.49" class="l20"/><line x1="475.23" x2="546.97" y1="1333.82" y2="1302.51" class="l100"/><line x1="547.31" x2="550.96" y1="1302.67" y2="1301.1" class="l20"/><line x1="537.3" x2="582.39" y1="1298.3" y2="1279.49" class="l50"/><line x1="600.34" x2="602.56" y1="1285.11" y2="1284.1" class="l20"/><line x1="595.58" x2="604.52" y1="1274.03" y2="1270.23" class="l20"/><line x1="606.6" x2="622.49" y1="1269.37" y2="1262.75" class="l20"/><line x1="605.42" x2="607.61" y1="1260.39" y2="1259.51" class="l20"/><line x1="436.73" x2="454.37" y1="1351.12" y2="1343.38" class="l20"/><line x1="424.27" x2="449.52" y1="1345.41" y2="1334.87" class="l50"/><line x1="439.84" x2="519.05" y1="1328.77" y2="1297.16" class="l100"/><line x1="516.02" x2="519.43" y1="1295.45" y2="1294.07" class="l20"/><line x1="524.86" x2="561.35" y1="1292.83" y2="1278.4" class="l50"/><line x1="156.35" x2="195.17" y1="1473.01" y2="1456.08" class="l50"/><line x1="191.78" x2="232.48" y1="1454.74" y2="1437.04" class="l50"/><line x1="228.99" x2="404.05" y1="1426.9" y2="1353.86" class="l200"/><line x1="429.52" x2="458.19" y1="1199.82" y2="1195.39" class="l50"/><line x1="496.74" x2="521.25" y1="1229.61" y2="1223.8" class="l50"/><line x1="502.98" x2="515.03" y1="1232.66" y2="1229.61" class="l20"/><line x1="517.63" x2="526.1" y1="1228.95" y2="1226.84" class="l20"/><line x1="513.46" x2="516.96" y1="1237.33" y2="1236.38" class="l20"/><line x1="519.07" x2="537.6" y1="1235.82" y2="1230.87" class="l20"/><line x1="393.77" x2="441.77" y1="1235.4" y2="1225.38" class="l50"/><line x1="429.4" x2="483.07" y1="1250.97" y2="1237.55" class="l100"/><line x1="441.61" x2="489.26" y1="1256.35" y2="1243.72" class="l50"/><line x1="481.71" x2="522" y1="1273.95" y2="1260.93" class="l50"/><line x1="288.95" x2="294.07" y1="1196.14" y2="1195.45" class="l20"/><line x1="354.71" x2="360.7" y1="1222" y2="1220.93" class="l20"/><line x1="410.41" x2="413.88" y1="1236.13" y2="1235.4" class="l20"/><line x1="402.81" x2="408.36" y1="1243.13" y2="1241.79" class="l20"/><line x1="450.21" x2="455.29" y1="1263.86" y2="1262.34" class="l20"/><line x1="496.93" x2="501.49" y1="1284.29" y2="1282.54" class="l20"/><line x1="435.63" x2="440.36" y1="1327.03" y2="1325" class="l20"/><line x1="386.38" x2="465.66" y1="1302.02" y2="1276.9" class="l100"/><line x1="327.2" x2="414.96" y1="1276.83" y2="1254.76" class="l100"/><line x1="266.62" x2="363.46" y1="1250.86" y2="1232.28" class="l100"/><line x1="204.86" x2="311.05" y1="1224.56" y2="1209.37" class="l200"/><line x1="182.16" x2="291.74" y1="1214.9" y2="1200.95" class="l200"/><line x1="166.41" x2="170.91" y1="1210.61" y2="1210.06" class="l20"/><line x1="173.62" x2="215.42" y1="1239.64" y2="1233.14" class="l50"/><line x1="163.59" x2="195.05" y1="1282.91" y2="1276.45" class="l50"/><line x1="162.32" x2="256.87" y1="1317.42" y2="1293.85" class="l100"/><line x1="285.39" x2="318.65" y1="1286.8" y2="1278.43" class="l50"/><line x1="301.07" x2="322.12" y1="1293.45" y2="1287.94" class="l50"/><line x1="161.82" x2="264.57" y1="1330.29" y2="1303.14" class="l200"/><line x1="172.09" x2="194.13" y1="1373.4" y2="1366.29" class="l50"/><line x1="201.57" x2="208.3" y1="1363.93" y2="1361.79" class="l20"/><line x1="216.43" x2="316.21" y1="1359.25" y2="1327.11" class="l200"/><line x1="165.63" x2="170.35" y1="1415.44" y2="1413.66" class="l20"/><line x1="167.84" x2="186.29" y1="1433.35" y2="1425.93" class="l20"/><line x1="165.8" x2="198.98" y1="1444.62" y2="1431.19" class="l50"/><line x1="193.73" x2="198.26" y1="1426.51" y2="1424.66" class="l20"/><line x1="218.26" x2="222.19" y1="1431.49" y2="1429.74" class="l20"/><line x1="198.45" x2="223.22" y1="1421.23" y2="1411.56" class="l50"/><line x1="230.23" x2="375.12" y1="1408.73" y2="1351.71" class="l200"/><line x1="195.66" x2="206.49" y1="141.41" y2="154.69" class="l20"/><line x1="89.34" x2="96.66" y1="388.1" y2="393.83" class="l20"/><line x1="173.54" x2="176.43" y1="1020.33" y2="1020.64" class="l20"/><line x1="427.16" x2="437.44" y1="2362.89" y2="2339.58" class="l50"/><line x1="431.57" x2="441.65" y1="2344.19" y2="2321.34" class="l50"/><line x1="713.18" x2="728.89" y1="2029.06" y2="1975.46" class="l100"/><line x1="725.83" x2="744.78" y1="1992.91" y2="1926.09" class="l100"/><line x1="734.41" x2="736.59" y1="1666.33" y2="1661.88" class="l20"/><line x1="736.56" x2="739.04" y1="1654.02" y2="1648.91" class="l20"/><line x1="739.99" x2="751.09" y1="1646.35" y2="1621.94" class="l50"/><line x1="745.51" x2="792.14" y1="1627.84" y2="1525.17" class="l200"/><line x1="752.71" x2="762.16" y1="1617.83" y2="1597.17" class="l50"/><line x1="763.77" x2="793.92" y1="1593.17" y2="1525.68" class="l100"/><line x1="779.81" x2="821.62" y1="1535.31" y2="1447.22" class="l100"/><line x1="811.39" x2="823.93" y1="1473.47" y2="1446.52" class="l50"/>
</g>
<g id="x2">
 <line x1="443.85" x2="375.1" y1="2479.81" y2="2463.7" class="l100"/><line x1="458.64" x2="376.52" y1="2480.06" y2="2460.53" class="l100"/><line x1="536.5" x2="384.19" y1="2479.81" y2="2443.33" class="l200"/><line x1="427.16" x2="420.55" y1="2362.89" y2="2361.16" class="l20"/><line x1="431.54" x2="410.27" y1="2344.39" y2="2339.02" class="l50"/><line x1="441.85" x2="432.99" y1="2321.2" y2="2318.83" class="l20"/><line x1="636.09" x2="449.9" y1="2345.58" y2="2295.9" class="l200"/><line x1="672.2" x2="667.02" y1="2248.22" y2="2246.78" class="l20"/><line x1="672.2" x2="668.97" y1="2242.23" y2="2241.37" class="l20"/><line x1="675.32" x2="671.7" y1="2234.52" y2="2233.42" class="l20"/><line x1="667.34" x2="499.94" y1="2232.35" y2="2184.35" class="l200"/><line x1="497.71" x2="481.92" y1="2188.53" y2="2184.06" class="l20"/><line x1="679.54" x2="658.21" y1="2221.98" y2="2215.81" class="l50"/><line x1="656.39" x2="647.08" y1="2215.34" y2="2212.54" class="l20"/><line x1="674.67" x2="657.57" y1="2222.58" y2="2217.68" class="l20"/><line x1="675.95" x2="672" y1="2233.46" y2="2232.21" class="l20"/><line x1="677.05" x2="673.2" y1="2228.98" y2="2227.93" class="l20"/><line x1="646.53" x2="504.66" y1="2214.47" y2="2173.39" class="l200"/><line x1="505.78" x2="500.72" y1="2170.82" y2="2169.38" class="l20"/><line x1="680.51" x2="658.46" y1="2221.08" y2="2214.68" class="l50"/><line x1="657.04" x2="647.4" y1="2214.3" y2="2211.47" class="l20"/><line x1="681.53" x2="660.1" y1="2216.65" y2="2210.39" class="l50"/><line x1="658.32" x2="648.62" y1="2209.94" y2="2207.04" class="l20"/><line x1="684.34" x2="662.85" y1="2208.88" y2="2202.63" class="l50"/><line x1="661.13" x2="651.32" y1="2202.1" y2="2199.26" class="l20"/><line x1="685.31" x2="663.25" y1="2207.98" y2="2201.51" class="l50"/><line x1="661.68" x2="651.46" y1="2201.06" y2="2198.05" class="l20"/><line x1="686.42" x2="664.75" y1="2203.65" y2="2197.21" class="l50"/><line x1="662.79" x2="653.18" y1="2196.63" y2="2193.79" class="l20"/><line x1="688.96" x2="667.18" y1="2196.76" y2="2190.37" class="l50"/><line x1="665.42" x2="655.57" y1="2189.88" y2="2186.94" class="l20"/><line x1="689.77" x2="667.43" y1="2195.78" y2="2189.12" class="l50"/><line x1="666.01" x2="655.21" y1="2188.73" y2="2185.58" class="l20"/><line x1="690.85" x2="669.09" y1="2191.39" y2="2184.99" class="l50"/><line x1="667.24" x2="657.42" y1="2184.46" y2="2181.48" class="l20"/><line x1="693.33" x2="671.27" y1="2185.39" y2="2178.8" class="l50"/><line x1="669.5" x2="659.59" y1="2178.26" y2="2175.29" class="l20"/><line x1="694" x2="671.54" y1="2184.26" y2="2177.53" class="l50"/><line x1="670.08" x2="659.01" y1="2177.13" y2="2173.82" class="l20"/><line x1="695.08" x2="673.17" y1="2179.95" y2="2173.39" class="l50"/><line x1="671.32" x2="661.44" y1="2172.86" y2="2169.89" class="l20"/><line x1="697.87" x2="675.82" y1="2172.47" y2="2165.87" class="l50"/><line x1="673.8" x2="663.95" y1="2165.28" y2="2162.31" class="l20"/><line x1="698.69" x2="676.08" y1="2171.48" y2="2164.61" class="l50"/><line x1="674.59" x2="663.49" y1="2164.24" y2="2160.85" class="l20"/><line x1="699.76" x2="677.73" y1="2167.08" y2="2160.55" class="l50"/><line x1="675.82" x2="664.95" y1="2160" y2="2156.6" class="l20"/><line x1="702.28" x2="680.23" y1="2160" y2="2153.44" class="l50"/><line x1="678.19" x2="667.41" y1="2152.76" y2="2149.52" class="l20"/><line x1="703.23" x2="680.5" y1="2159.03" y2="2152.1" class="l50"/><line x1="679.02" x2="667.8" y1="2151.71" y2="2148.32" class="l20"/><line x1="704.33" x2="682.1" y1="2154.72" y2="2148.03" class="l50"/><line x1="680.23" x2="668.92" y1="2147.41" y2="2143.99" class="l20"/><line x1="707.46" x2="684.95" y1="2146.31" y2="2139.4" class="l50"/><line x1="683.32" x2="670.29" y1="2138.99" y2="2134.99" class="l20"/><line x1="667.22" x2="659.18" y1="2145.7" y2="2143.29" class="l20"/><line x1="709.92" x2="657.58" y1="2145.65" y2="2129.75" class="l100"/><line x1="670.75" x2="650.39" y1="2134.06" y2="2127.8" class="l50"/><line x1="711.06" x2="665.79" y1="2141.45" y2="2127.68" class="l50"/><line x1="646.04" x2="540.08" y1="2126.49" y2="2094.03" class="l200"/><line x1="541.41" x2="526.91" y1="2091.11" y2="2086.61" class="l20"/><line x1="547.98" x2="533.85" y1="2076.43" y2="2072.08" class="l20"/><line x1="658.5" x2="553.55" y1="2088.42" y2="2055.63" class="l200"/><line x1="659.86" x2="554.66" y1="2084.74" y2="2051.92" class="l200"/><line x1="663.36" x2="557.53" y1="2073.67" y2="2040.46" class="l200"/><line x1="567.4" x2="559.48" y1="2035.66" y2="2033.09" class="l20"/><line x1="713.99" x2="691.2" y1="2035.93" y2="2028.51" class="l50"/><line x1="683.29" x2="679.46" y1="2026.04" y2="2024.76" class="l20"/><line x1="685.14" x2="681.37" y1="2020.25" y2="2018.93" class="l20"/><line x1="715.73" x2="698.41" y1="2030.19" y2="2024.57" class="l20"/><line x1="688.1" x2="598.25" y1="1998.65" y2="1969.06" class="l100"/><line x1="727.35" x2="703.59" y1="1997.53" y2="1989.62" class="l50"/><line x1="696.6" x2="691.98" y1="1987.32" y2="1985.79" class="l20"/><line x1="719.23" x2="714.9" y1="1977.83" y2="1976.38" class="l20"/><line x1="728.89" x2="716.58" y1="1975.46" y2="1971.3" class="l20"/><line x1="739.22" x2="714.37" y1="1963.57" y2="1955.17" class="l50"/><line x1="707.53" x2="703.56" y1="1952.91" y2="1951.55" class="l20"/><line x1="709.14" x2="625.05" y1="1934.42" y2="1905.76" class="l100"/><line x1="751.39" x2="715.1" y1="1928.38" y2="1915.83" class="l50"/><line x1="745.67" x2="648.46" y1="1885.35" y2="1851.13" class="l200"/><line x1="768.09" x2="760.6" y1="1881.06" y2="1878.42" class="l20"/><line x1="753.73" x2="653.27" y1="1875.98" y2="1840.4" class="l200"/><line x1="769.37" x2="655.64" y1="1875.8" y2="1835.49" class="l200"/><line x1="779.53" x2="675.68" y1="1828.83" y2="1791.12" class="l200"/><line x1="793.3" x2="696.25" y1="1789.04" y2="1752.95" class="l200"/><line x1="694.41" x2="691.23" y1="1757.03" y2="1755.84" class="l20"/><line x1="777.76" x2="699.61" y1="1778.77" y2="1749.73" class="l100"/><line x1="787.65" x2="781.6" y1="1772.29" y2="1769.99" class="l20"/><line x1="777.64" x2="704.8" y1="1752.89" y2="1725.4" class="l100"/><line x1="795.25" x2="781.48" y1="1746.63" y2="1741.23" class="l20"/><line x1="776.23" x2="773.21" y1="1739.24" y2="1738.06" class="l20"/><line x1="795.84" x2="787.19" y1="1743.85" y2="1740.56" class="l20"/><line x1="772.15" x2="708.35" y1="1741.29" y2="1717.09" class="l100"/><line x1="804.65" x2="795.9" y1="1717.94" y2="1714.61" class="l20"/><line x1="796.12" x2="783.05" y1="1713.89" y2="1708.86" class="l20"/><line x1="782.95" x2="722.85" y1="1708.28" y2="1685.07" class="l100"/><line x1="813.64" x2="805.07" y1="1691.49" y2="1688.14" class="l20"/><line x1="799.89" x2="739.65" y1="1681.41" y2="1657.88" class="l100"/><line x1="734.41" x2="731.56" y1="1666.33" y2="1665.25" class="l20"/><line x1="818.49" x2="739.99" y1="1677.2" y2="1646.35" class="l100"/><line x1="824.12" x2="741.34" y1="1676.28" y2="1643.75" class="l100"/><line x1="829.02" x2="751.99" y1="1650.58" y2="1619.89" class="l100"/><line x1="752.71" x2="750.56" y1="1617.83" y2="1616.99" class="l20"/><line x1="751.09" x2="748.76" y1="1621.94" y2="1621.01" class="l20"/><line x1="835.63" x2="762.16" y1="1626.81" y2="1597.17" class="l100"/><line x1="763.84" x2="758.36" y1="1593.42" y2="1591.19" class="l20"/><line x1="838.11" x2="763.15" y1="1625.24" y2="1594.93" class="l100"/><line x1="828.65" x2="767.55" y1="1609.88" y2="1585.05" class="l100"/><line x1="765.43" x2="763.26" y1="1589.86" y2="1588.94" class="l20"/><line x1="773.12" x2="770.85" y1="1578.6" y2="1577.65" class="l20"/><line x1="775.23" x2="770.24" y1="1567.86" y2="1565.87" class="l20"/><line x1="776.66" x2="774.61" y1="1564.7" y2="1563.85" class="l20"/><line x1="783.53" x2="780.87" y1="1544.14" y2="1543.08" class="l20"/><line x1="792.2" x2="790.06" y1="1524.98" y2="1524.06" class="l20"/><line x1="786.67" x2="784.57" y1="1521.16" y2="1520.32" class="l20"/><line x1="800.44" x2="794.82" y1="1488.2" y2="1485.86" class="l20"/><line x1="801.78" x2="795.66" y1="1485.73" y2="1483.09" class="l20"/><line x1="804" x2="796.12" y1="1484.35" y2="1480.98" class="l20"/><line x1="805.36" x2="797.23" y1="1481.38" y2="1477.89" class="l20"/><line x1="813.64" x2="802.88" y1="1463.78" y2="1459.18" class="l20"/><line x1="801.2" x2="798.66" y1="1448.02" y2="1446.98" class="l20"/><line x1="820.07" x2="807.47" y1="1450" y2="1444.56" class="l20"/><line x1="821.62" x2="808.12" y1="1447.22" y2="1441.33" class="l20"/><line x1="823.98" x2="808.63" y1="1446.33" y2="1439.67" class="l20"/><line x1="812.71" x2="809.08" y1="1426.76" y2="1424.97" class="l20"/><line x1="811.68" x2="809.03" y1="1428.54" y2="1427.33" class="l20"/><line x1="595.99" x2="591.23" y1="1938.46" y2="1936.85" class="l20"/><line x1="631.78" x2="627.55" y1="1860.9" y2="1859.52" class="l20"/><line x1="635.39" x2="631.38" y1="1852.95" y2="1851.72" class="l20"/><line x1="645.96" x2="642" y1="1829.89" y2="1828.44" class="l20"/><line x1="698.96" x2="694.8" y1="1641.26" y2="1639.66" class="l20"/><line x1="700.74" x2="698.67" y1="1628.35" y2="1627.6" class="l20"/><line x1="268.91" x2="250.81" y1="2454.51" y2="2450.26" class="l20"/><line x1="259.4" x2=".07" y1="2434.74" y2="2373.6" class="l300"/><line x1="350.98" x2=".07" y1="2435.84" y2="2351.92" class="l400"/><line x1="366.05" x2=".07" y1="2404.52" y2="2314.85" class="l400"/><line x1="375.76" x2=".07" y1="2395.11" y2="2302.28" class="l400"/><line x1="386.39" x2=".07" y1="2372.49" y2="2275.44" class="l400"/><line x1="281.17" x2="170.44" y1="2305.65" y2="2277.13" class="l200"/><line x1="55.67" x2=".07" y1="2247.56" y2="2233.25" class="l100"/><line x1="341.04" x2="243.36" y1="2203.6" y2="2176.48" class="l200"/><line x1="241.83" x2="15.49" y1="2174.38" y2="2111.65" class="l300"/><line x1="354" x2="258.67" y1="2181.25" y2="2154.36" class="l100"/><line x1="254.43" x2="147.23" y1="2156.2" y2="2126.09" class="l200"/><line x1="257.14" x2="38.12" y1="2152.25" y2="2090.62" class="l300"/><line x1="361.96" x2="166.08" y1="2167.52" y2="2111.93" class="l300"/><line x1="470.47" x2="364.8" y1="2193.68" y2="2163.71" class="l200"/><line x1="475.82" x2="371.41" y1="2182.3" y2="2152.37" class="l200"/><line x1="364.29" x2="51.2" y1="2163.57" y2="2074.46" class="l400"/><line x1="519.05" x2="152.24" y1="2081.89" y2="1969.79" class="l400"/><line x1="125.7" x2=".07" y1="1997.28" y2="1959.64" class="l200"/><line x1="528.29" x2="525.91" y1="2070.35" y2="2069.65" class="l20"/><line x1="526.96" x2="167.56" y1="2064.84" y2="1953.91" class="l400"/><line x1="534.86" x2="176.17" y1="2056.38" y2="1945.01" class="l400"/><line x1="540.76" x2="187.27" y1="2044.15" y2="1933.49" class="l400"/><line x1="586.43" x2="580.42" y1="1995.22" y2="1993.3" class="l20"/><line x1="588.73" x2="582.62" y1="1986.94" y2="1985.01" class="l20"/><line x1="586.93" x2="275.44" y1="1945.58" y2="1842.14" class="l400"/><line x1="593.71" x2="288.01" y1="1931.51" y2="1829.15" class="l400"/><line x1="596.59" x2="293.45" y1="1925.39" y2="1823.49" class="l400"/><line x1="279.2" x2=".07" y1="1838.24" y2="1745.21" class="l300"/><line x1="312.66" x2="301.52" y1="1818.84" y2="1815" class="l20"/><line x1="316.37" x2="305.4" y1="1814.88" y2="1811.11" class="l20"/><line x1="321.28" x2="310.41" y1="1809.66" y2="1805.93" class="l20"/><line x1="615.39" x2="593.54" y1="1881.6" y2="1874.02" class="l50"/><line x1="617.92" x2="595.95" y1="1872.4" y2="1864.73" class="l50"/><line x1="602.72" x2="518.19" y1="1851.42" y2="1821.87" class="l100"/><line x1="504.44" x2="481.57" y1="1843.32" y2="1835.5" class="l50"/><line x1="506.44" x2="483.78" y1="1833.76" y2="1825.99" class="l50"/><line x1="602.89" x2="518.55" y1="1850.8" y2="1821.28" class="l100"/><line x1="606.91" x2="523.5" y1="1843.19" y2="1813.94" class="l100"/><line x1="608.86" x2="525.83" y1="1839.37" y2="1810.08" class="l100"/><line x1="616.97" x2="536" y1="1823.5" y2="1794.78" class="l100"/><line x1="621.69" x2="541.96" y1="1814.21" y2="1785.81" class="l100"/><line x1="581.85" x2="546.13" y1="1791.93" y2="1779.09" class="l50"/><line x1="625.6" x2="546.86" y1="1806.15" y2="1777.99" class="l100"/><line x1="553.96" x2="533.51" y1="1761.25" y2="1753.82" class="l50"/><line x1="651.1" x2="633.92" y1="1796.37" y2="1790.17" class="l20"/><line x1="492.61" x2="361.34" y1="1813.03" y2="1767.13" class="l200"/><line x1="362.28" x2="351.74" y1="1766.85" y2="1763.16" class="l20"/><line x1="492.99" x2="372.52" y1="1812.43" y2="1770.41" class="l200"/><line x1="498.1" x2="358.5" y1="1805.07" y2="1756.17" class="l200"/><line x1="500.73" x2="362.03" y1="1801.29" y2="1752.52" class="l200"/><line x1="508.15" x2="445.58" y1="1790.6" y2="1768.49" class="l100"/><line x1="449.22" x2="377.16" y1="1764.01" y2="1738.45" class="l100"/><line x1="511.36" x2="450.84" y1="1785.97" y2="1764.54" class="l100"/><line x1="517.55" x2="385.35" y1="1777.05" y2="1729.9" class="l200"/><line x1="522.11" x2="399.65" y1="1770.45" y2="1726.66" class="l200"/><line x1="522.91" x2="391.2" y1="1769.44" y2="1722.28" class="l200"/><line x1="385.97" x2=".07" y1="1727.65" y2="1589.95" class="l500"/><line x1="528.23" x2="502.45" y1="1676.03" y2="1666.42" class="l50"/><line x1="530.66" x2="504.97" y1="1664.28" y2="1654.68" class="l50"/><line x1="664.7" x2="641.06" y1="1701.04" y2="1692.09" class="l50"/><line x1="667.7" x2="488.22" y1="1690.04" y2="1621.74" class="l200"/><line x1="464.38" x2="79.19" y1="1646.45" y2="1501.99" class="l500"/><line x1="670.17" x2="586.12" y1="1636.56" y2="1603.8" class="l100"/><line x1="673.42" x2="590.3" y1="1631.06" y2="1598.49" class="l100"/><line x1="524.44" x2="157.49" y1="1584.2" y2="1441.3" class="l400"/><line x1="558.78" x2="404.76" y1="1593.09" y2="1532.93" class="l200"/><line x1="563.25" x2="410.94" y1="1587.94" y2="1528.34" class="l200"/><line x1="371.21" x2="211.64" y1="1519.95" y2="1457.73" class="l200"/><line x1="378.02" x2="220.51" y1="1515.52" y2="1453.83" class="l200"/><line x1="697.71" x2="593.41" y1="1629.31" y2="1588.36" class="l200"/><line x1="592.67" x2="414.27" y1="1588.08" y2="1517.93" class="l200"/><line x1="412.55" x2="306.5" y1="1517.28" y2="1475.51" class="l200"/><line x1="706.67" x2="329.35" y1="1612.95" y2="1463.33" class="l500"/><line x1="730.33" x2="389.36" y1="1569.37" y2="1431.06" class="l400"/><line x1="733.02" x2="319.61" y1="1559.89" y2="1391.42" class="l500"/><line x1="735.38" x2="326.43" y1="1555.61" y2="1388.55" class="l500"/><line x1="377.55" x2="317.31" y1="1437.4" y2="1413.07" class="l100"/><line x1="414.05" x2="346.98" y1="1417.74" y2="1390.23" class="l100"/><line x1="419.19" x2="352.81" y1="1414.98" y2="1387.71" class="l100"/><line x1="754.07" x2="449.13" y1="1525.4" y2="1398.87" class="l400"/><line x1="772.21" x2="493.84" y1="1492.28" y2="1374.87" class="l400"/><line x1="787.6" x2="479.33" y1="1464.12" y2="1332.04" class="l400"/><line x1="800.62" x2="512.64" y1="1439.86" y2="1314.92" class="l400"/><line x1="663.52" x2="570.88" y1="1373.61" y2="1333.37" class="l200"/><line x1="812.28" x2="360.7" y1="1418.72" y2="1220.93" class="l500"/><line x1="724.57" x2="595.36" y1="1376.83" y2="1320.19" class="l200"/><line x1="726.2" x2="683.92" y1="1375.2" y2="1356.63" class="l50"/><line x1="683.82" x2="552.37" y1="1351.29" y2="1293.46" class="l200"/><line x1="685.77" x2="555.24" y1="1349.72" y2="1292.26" class="l200"/><line x1="741.54" x2="621.62" y1="1359.32" y2="1306.08" class="l200"/><line x1="755.11" x2="642.4" y1="1345.25" y2="1294.9" class="l200"/><line x1="767.22" x2="624.7" y1="1332.71" y2="1268.57" class="l200"/><line x1="778.07" x2="643.33" y1="1321.46" y2="1260.45" class="l200"/><line x1="787.87" x2="646.49" y1="1311.31" y2="1246.92" class="l200"/><line x1="428.88" x2="405.99" y1="1374.08" y2="1364.41" class="l50"/><line x1="479.72" x2="430.65" y1="1382.41" y2="1361.82" class="l100"/><line x1="483.84" x2="435.31" y1="1380.2" y2="1359.71" class="l100"/><line x1="518.77" x2="473.73" y1="1361.4" y2="1342.22" class="l50"/><line x1="522.27" x2="477.84" y1="1359.52" y2="1340.49" class="l50"/><line x1="476.58" x2="462.79" y1="1325.53" y2="1319.61" class="l20"/><line x1="480.52" x2="466.93" y1="1323.81" y2="1317.96" class="l20"/><line x1="646.92" x2="489.39" y1="1244.12" y2="1172.34" class="l200"/><line x1="645.15" x2="486.71" y1="1244.83" y2="1172.67" class="l200"/><line x1="644.96" x2="489.02" y1="1245.77" y2="1174.81" class="l200"/><line x1="627.86" x2="463.36" y1="1253.85" y2="1179.34" class="l200"/><line x1="624.47" x2="616.57" y1="1261.92" y2="1258.35" class="l20"/><line x1="622.49" x2="614.53" y1="1262.75" y2="1259.14" class="l20"/><line x1="607.61" x2="429.6" y1="1259.51" y2="1179.41" class="l200"/><line x1="605.42" x2="426.3" y1="1260.39" y2="1179.83" class="l200"/><line x1="607.07" x2="524.06" y1="1262.1" y2="1224.84" class="l100"/><line x1="521.15" x2="487.5" y1="1223.47" y2="1208.41" class="l50"/><line x1="486.2" x2="466.28" y1="1207.78" y2="1198.86" class="l50"/><line x1="460.71" x2="429.23" y1="1196.35" y2="1182.19" class="l50"/><line x1="429.52" x2="427.04" y1="1199.82" y2="1198.72" class="l20"/><line x1="603.88" x2="444.43" y1="1277.68" y2="1206.49" class="l200"/><line x1="598.34" x2="581.96" y1="1294.77" y2="1287.55" class="l20"/><line x1="572.83" x2="485.54" y1="1283.48" y2="1244.71" class="l100"/><line x1="474.22" x2="441.69" y1="1239.76" y2="1225.32" class="l50"/><line x1="547.31" x2="454.25" y1="1294.07" y2="1253" class="l200"/><line x1="544.73" x2="450.77" y1="1295.2" y2="1253.85" class="l200"/><line x1="442.17" x2="407.66" y1="1247.75" y2="1232.5" class="l50"/><line x1="438.74" x2="410.41" y1="1248.58" y2="1236.13" class="l50"/><line x1="519.43" x2="294.07" y1="1294.07" y2="1195.45" class="l300"/><line x1="516.02" x2="288.95" y1="1295.45" y2="1196.14" class="l300"/><line x1="482.48" x2="240.84" y1="1311.76" y2="1207.4" class="l300"/><line x1="440.36" x2="170.91" y1="1325" y2="1210.06" class="l300"/><line x1="439.84" x2="166.33" y1="1328.77" y2="1212.12" class="l300"/><line x1="436.79" x2="196.24" y1="1350.72" y2="1249.25" class="l300"/><line x1="392.25" x2="261.35" y1="1358.78" y2="1303.99" class="l200"/><line x1="244.21" x2="195.05" y1="1297" y2="1276.45" class="l100"/><line x1="337.77" x2="192.9" y1="1381.52" y2="1322.08" class="l200"/><line x1="331.65" x2="185.49" y1="1384.07" y2="1324.13" class="l200"/><line x1="174.21" x2="162.63" y1="1314.41" y2="1309.63" class="l20"/><line x1="166.44" x2="162.43" y1="1316.31" y2="1314.67" class="l20"/><line x1="315.94" x2="289.1" y1="1426.51" y2="1415.75" class="l50"/><line x1="315.38" x2="281.91" y1="1432.25" y2="1418.7" class="l50"/><line x1="271.94" x2="231.3" y1="1408.8" y2="1392.52" class="l50"/><line x1="264.85" x2="230.91" y1="1411.94" y2="1398.4" class="l50"/><line x1="85.11" x2="99.77" y1="1468.33" y2="1473.89" class="l20"/><line x1="114.11" x2="148.15" y1="1479.15" y2="1492.24" class="l50"/><line x1="130.7" x2="148.72" y1="1469.73" y2="1476.61" class="l20"/><line x1="157.73" x2="171.82" y1="1436.76" y2="1442.18" class="l20"/><line x1="158.06" x2="181.02" y1="1429.29" y2="1438.46" class="l50"/><line x1="158.11" x2="183.91" y1="1427.14" y2="1437.29" class="l50"/><line x1="158.53" x2="223.86" y1="1415.1" y2="1440.8" class="l100"/><line x1="232.48" x2="228.59" y1="1437.04" y2="1435.47" class="l20"/><line x1="221.55" x2="193.57" y1="1437.44" y2="1426.5" class="l50"/><line x1="191.2" x2="165.63" y1="1425.51" y2="1415.44" class="l50"/><line x1="163.13" x2="158.66" y1="1414.45" y2="1412.67" class="l20"/><line x1="158.8" x2="163.27" y1="1409.12" y2="1410.83" class="l20"/><line x1="170.35" x2="191.43" y1="1413.66" y2="1421.96" class="l50"/><line x1="198.26" x2="221.78" y1="1424.67" y2="1433.95" class="l50"/><line x1="221.86" x2="198.31" y1="1432.83" y2="1423.61" class="l50"/><line x1="191.48" x2="170.35" y1="1420.85" y2="1412.54" class="l50"/><line x1="163.33" x2="158.86" y1="1409.78" y2="1408" class="l20"/><line x1="223.57" x2="195.38" y1="1406.09" y2="1394.83" class="l50"/><line x1="192.87" x2="166.95" y1="1393.83" y2="1383.49" class="l50"/><line x1="164.43" x2="159.89" y1="1382.5" y2="1380.76" class="l20"/><line x1="223.71" x2="195.5" y1="1403.65" y2="1392.39" class="l50"/><line x1="223.78" x2="200.11" y1="1400.28" y2="1390.74" class="l50"/><line x1="224.21" x2="200.2" y1="1395.7" y2="1386.12" class="l50"/><line x1="224.62" x2="200.67" y1="1389.82" y2="1380.2" class="l50"/><line x1="193" x2="167.08" y1="1391.4" y2="1381.01" class="l50"/><line x1="193" x2="171.69" y1="1387.96" y2="1379.47" class="l50"/><line x1="193.44" x2="172.03" y1="1383.3" y2="1374.81" class="l50"/><line x1="193.72" x2="172.12" y1="1377.37" y2="1368.8" class="l50"/><line x1="225.96" x2="197.19" y1="1368.94" y2="1357.34" class="l50"/><line x1="194.8" x2="168.5" y1="1356.36" y2="1345.68" class="l50"/><line x1="165.95" x2="161.34" y1="1344.63" y2="1342.78" class="l20"/><line x1="165.07" x2="160.52" y1="1365.9" y2="1364.06" class="l20"/><line x1="164.85" x2="160.29" y1="1371.92" y2="1370.06" class="l20"/><line x1="164.66" x2="160.13" y1="1376.58" y2="1374.81" class="l20"/><line x1="164.5" x2="159.98" y1="1380.01" y2="1378.25" class="l20"/><line x1="228.6" x2="161.44" y1="1367.53" y2="1340.24" class="l100"/><line x1="232.99" x2="161.56" y1="1365.97" y2="1336.93" class="l100"/><line x1="154.98" x2="135.68" y1="1300.05" y2="1292.15" class="l50"/><line x1="162.93" x2="141.98" y1="1073.92" y2="1064.55" class="l50"/><line x1="114.87" x2="82.87" y1="987.18" y2="972.42" class="l50"/><line x1="114.87" x2="82.87" y1="984.24" y2="969.48" class="l50"/><line x1="115.24" x2="82.87" y1="974.78" y2="959.85" class="l50"/><line x1="115.58" x2="82.87" y1="965.05" y2="950.01" class="l50"/><line x1="115.58" x2="82.87" y1="955.8" y2="940.75" class="l50"/><line x1="103.42" x2="115.76" y1="941.55" y2="947.38" class="l20"/><line x1="149.38" x2="172.44" y1="793.08" y2="804.45" class="l50"/><line x1="183.53" x2="158.3" y1="487.97" y2="474.28" class="l50"/><line x1="125.66" x2="86.7" y1="389.28" y2="367.7" class="l50"/><line x1="125.66" x2="86.7" y1="384.68" y2="363.09" class="l50"/><line x1="125.66" x2="86.7" y1="382.6" y2="361.01" class="l50"/><line x1="112.33" x2="127.71" y1="256.47" y2="265.26" class="l20"/><line x1="128.31" x2="87.85" y1="248.82" y2="225.55" class="l50"/><line x1="128.31" x2="87.85" y1="230.85" y2="207.58" class="l50"/><line x1="128.8" x2="87.93" y1="211.63" y2="187.9" class="l50"/><line x1="129.16" x2="88.04" y1="192.53" y2="168.56" class="l50"/><line x1="129.33" x2="88.21" y1="186.49" y2="162.52" class="l50"/><line x1="195.57" x2="88.42" y1="141.23" y2="79.81" class="l200"/><line x1="336.54" x2="323.62" y1="406.31" y2="398.99" class="l20"/><line x1="276.25" x2="288.7" y1="1011.16" y2="1016.95" class="l20"/><line x1="286.17" x2="289.08" y1="1012.42" y2="1013.76" class="l20"/><line x1="79.46" x2="85.16" y1="1462.01" y2="1464.12" class="l20"/><line x1="38.36" x2="48.46" y1="2095.53" y2="2098.28" class="l20"/>
</g>
<g id="y2">
 <line x1="656.4" x2="670.79" y1="2272.95" y2="2233.29" class="l50"/><line x1="652.69" x2="666.87" y1="2285.52" y2="2246.7" class="l50"/><line x1="672.2" x2="709.92" y1="2248.22" y2="2145.65" class="l200"/><line x1="667.27" x2="671.7" y1="2245.65" y2="2233.42" class="l20"/><line x1="671.08" x2="675.58" y1="2246.7" y2="2234.52" class="l20"/><line x1="675.95" x2="680.05" y1="2233.46" y2="2222.19" class="l20"/><line x1="680.51" x2="684.87" y1="2221.08" y2="2209.08" class="l20"/><line x1="685.31" x2="689.42" y1="2207.98" y2="2196.94" class="l20"/><line x1="689.77" x2="693.6" y1="2195.78" y2="2185.39" class="l20"/><line x1="694" x2="698.26" y1="2184.26" y2="2172.59" class="l20"/><line x1="698.69" x2="702.83" y1="2171.48" y2="2160.21" class="l20"/><line x1="703.23" x2="707.9" y1="2159.03" y2="2146.46" class="l20"/><line x1="658.61" x2="662.85" y1="2214.75" y2="2202.63" class="l20"/><line x1="657.04" x2="661.25" y1="2214.3" y2="2202.16" class="l20"/><line x1="648.78" x2="651.46" y1="2207.11" y2="2199.43" class="l20"/><line x1="663.25" x2="667.18" y1="2201.51" y2="2190.37" class="l20"/><line x1="661.68" x2="665.51" y1="2201.06" y2="2189.88" class="l20"/><line x1="653.33" x2="655.72" y1="2193.87" y2="2186.99" class="l20"/><line x1="667.57" x2="671.27" y1="2189.19" y2="2178.8" class="l20"/><line x1="666.01" x2="669.59" y1="2188.73" y2="2178.3" class="l20"/><line x1="657.57" x2="659.71" y1="2181.56" y2="2175.48" class="l20"/><line x1="656.79" x2="658.64" y1="2180.23" y2="2175.05" class="l20"/><line x1="671.7" x2="675.82" y1="2177.57" y2="2165.87" class="l20"/><line x1="670.08" x2="674.17" y1="2177.13" y2="2165.4" class="l20"/><line x1="661.57" x2="664.1" y1="2170.06" y2="2162.39" class="l20"/><line x1="676.24" x2="680.23" y1="2164.61" y2="2153.44" class="l20"/><line x1="674.59" x2="678.54" y1="2164.24" y2="2152.87" class="l20"/><line x1="680.65" x2="685.11" y1="2152.15" y2="2139.47" class="l20"/><line x1="679.02" x2="683.45" y1="2151.71" y2="2138.99" class="l20"/><line x1="669.07" x2="670.04" y1="2144.07" y2="2141.23" class="l20"/><line x1="667.8" x2="670.44" y1="2143.67" y2="2135.04" class="l20"/><line x1="649.82" x2="659.18" y1="2173.51" y2="2143.29" class="l50"/><line x1="665.75" x2="697.55" y1="2127.61" y2="2024.26" class="l200"/><line x1="664.32" x2="696.12" y1="2127.61" y2="2024.26" class="l200"/><line x1="663.85" x2="695.65" y1="2127.14" y2="2023.79" class="l200"/><polyline points="713.99 2035.93 767.94 1881 769.57 1875.67" class="l200"/><polyline points="713.18 2029.4 736.35 1962.54 765.06 1880.2" class="l200"/><line x1="728.71" x2="744.78" y1="1975.58" y2="1926.09" class="l100"/><line x1="719.23" x2="753.84" y1="1977.83" y2="1876.06" class="l200"/><line x1="698.62" x2="745.67" y1="2024.46" y2="1885.35" class="l200"/><line x1="788" x2="824.07" y1="1782.59" y2="1676.46" class="l200"/><line x1="785.87" x2="821.11" y1="1781.8" y2="1678.24" class="l200"/><line x1="731.65" x2="747.89" y1="1665.53" y2="1610.67" class="l100"/><line x1="734.3" x2="737.8" y1="1666.09" y2="1654.52" class="l20"/><line x1="739.04" x2="755.71" y1="1649.28" y2="1594.05" class="l100"/><line x1="750.56" x2="760.65" y1="1616.99" y2="1583.3" class="l50"/><line x1="761.5" x2="771.19" y1="1592.42" y2="1560.43" class="l50"/><line x1="763.84" x2="773.12" y1="1587.24" y2="1556.51" class="l50"/><line x1="773.53" x2="782.2" y1="1565.87" y2="1536.08" class="l50"/><line x1="784.18" x2="792.2" y1="1543.08" y2="1515.18" class="l50"/><line x1="794.21" x2="807.46" y1="1525.84" y2="1482.38" class="l50"/><line x1="797.05" x2="811.39" y1="1520.64" y2="1473.47" class="l50"/><line x1="774.49" x2="812.71" y1="1553.57" y2="1426.76" class="l200"/><line x1="350.98" x2="355.69" y1="2479.81" y2="2456.74" class="l50"/><line x1="427.16" x2="431.57" y1="2362.89" y2="2344.19" class="l20"/><line x1="437.44" x2="441.71" y1="2339.58" y2="2321.1" class="l20"/><path d="M443.74 2327.35"/><line x1="422.61" x2="436.23" y1="2342.13" y2="2282.73" class="l100"/><line x1="433.09" x2="446.95" y1="2318.95" y2="2259.63" class="l100"/><line x1="492.71" x2="506.89" y1="2187.11" y2="2130.41" class="l100"/><line x1="500.72" x2="514.98" y1="2169.38" y2="2112.97" class="l100"/><line x1="514.58" x2="519.05" y1="2099.84" y2="2081.89" class="l20"/><line x1="522.6" x2="527.1" y1="2082.89" y2="2064.96" class="l20"/><line x1="547.98" x2="569.44" y1="2076.43" y2="1995.58" class="l100"/><line x1="567.4" x2="590.29" y1="2035.66" y2="1950.63" class="l100"/><line x1="570.3" x2="593.29" y1="2029.08" y2="1944.16" class="l100"/><line x1="584.55" x2="605.44" y1="1994.63" y2="1917.98" class="l100"/><line x1="614.42" x2="618.63" y1="1938.43" y2="1923.19" class="l20"/><line x1="618.9" x2="625.1" y1="1928.22" y2="1905.78" class="l50"/><line x1="600.65" x2="656.3" y1="1916.75" y2="1711.51" class="l300"/><line x1="593.54" x2="595.95" y1="1874.02" y2="1864.73" class="l20"/><line x1="612.88" x2="667.7" y1="1890.74" y2="1690.04" class="l300"/><line x1="641.06" x2="643.94" y1="1692.09" y2="1681.02" class="l20"/><line x1="633.64" x2="636.27" y1="1847.07" y2="1837.39" class="l20"/><line x1="637.83" x2="640.67" y1="1838.45" y2="1828.14" class="l20"/><line x1="646.06" x2="699.15" y1="1830.14" y2="1641.18" class="l200"/><line x1="642.16" x2="694.75" y1="1828.44" y2="1639.84" class="l200"/><line x1="730.33" x2="733.02" y1="1569.37" y2="1559.89" class="l20"/><line x1="732.7" x2="735.38" y1="1564.63" y2="1555.61" class="l20"/><line x1="265.47" x2="268.91" y1="2479.81" y2="2454.51" class="l50"/><line x1="103.17" x2="103.72" y1="2397.91" y2="2376.75" class="l50"/><line x1="123.93" x2="125.36" y1="2381.61" y2="2345.5" class="l50"/><line x1="247.63" x2="251.9" y1="2410.99" y2="2376.53" class="l50"/><line x1="231.24" x2="243.36" y1="2292.81" y2="2176.48" class="l200"/><line x1="20.61" x2="17.38" y1="2238.53" y2="2112.2" class="l200"/><line x1="38.37" x2="38.18" y1="2109.47" y2="2090.48" class="l20"/><line x1="132.09" x2="132.47" y1="2153.69" y2="2144.08" class="l20"/><line x1="149.12" x2="150.18" y1="2148.69" y2="2126.94" class="l50"/><line x1="573.69" x2="577.9" y1="1827.01" y2="1809.43" class="l20"/><line x1="504.44" x2="506.52" y1="1843.32" y2="1833.64" class="l20"/><line x1="481.72" x2="483.63" y1="1835.55" y2="1825.97" class="l20"/><line x1="371.65" x2="372.31" y1="1760.78" y2="1756.28" class="l20"/><line x1="373.82" x2="377.16" y1="1761.45" y2="1738.45" class="l50"/><line x1="442.36" x2="445.58" y1="1780.81" y2="1762.72" class="l20"/><line x1="450.84" x2="452.78" y1="1764.59" y2="1753.95" class="l20"/><line x1="551.92" x2="553.96" y1="1770.21" y2="1761.25" class="l20"/><line x1="502.61" x2="504.97" y1="1666.47" y2="1654.68" class="l20"/><line x1="528.23" x2="530.66" y1="1676.03" y2="1664.28" class="l20"/><line x1="544.61" x2="547.12" y1="1655.6" y2="1643.95" class="l20"/><line x1="591.63" x2="593.56" y1="1596.84" y2="1588.42" class="l20"/><line x1="657.52" x2="659.86" y1="1539.78" y2="1530.31" class="l20"/><line x1="592.65" x2="594.86" y1="1513.51" y2="1503.57" class="l20"/><line x1="526.46" x2="528.37" y1="1486.66" y2="1476.5" class="l20"/><line x1="458.66" x2="460.34" y1="1459.18" y2="1448.76" class="l20"/><line x1="389.36" x2="390.75" y1="1431.06" y2="1420.45" class="l20"/><line x1="315.38" x2="319.61" y1="1432.25" y2="1391.42" class="l50"/><line x1="684.08" x2="685.77" y1="1356.69" y2="1349.72" class="l20"/><line x1="682.66" x2="683.82" y1="1356.03" y2="1351.29" class="l20"/><line x1="639.09" x2="640.66" y1="1339.37" y2="1332.31" class="l20"/><line x1="595.31" x2="596.85" y1="1320.38" y2="1313.1" class="l20"/><line x1="643.33" x2="646.33" y1="1260.45" y2="1246.87" class="l20"/><line x1="641.87" x2="644.64" y1="1259.77" y2="1247.17" class="l20"/><line x1="623.43" x2="627.86" y1="1274.69" y2="1253.85" class="l50"/><line x1="621.42" x2="624.03" y1="1275.55" y2="1263.42" class="l20"/><line x1="600.19" x2="607.77" y1="1295.59" y2="1259.56" class="l50"/><line x1="598.34" x2="605.42" y1="1294.77" y2="1260.39" class="l50"/><line x1="550.39" x2="552.37" y1="1304.01" y2="1293.46" class="l20"/><line x1="561.35" x2="567.64" y1="1278.4" y2="1244.42" class="l50"/><line x1="522" x2="528.01" y1="1260.93" y2="1226.59" class="l50"/><line x1="518.42" x2="519.07" y1="1239.53" y2="1235.82" class="l20"/><line x1="523.79" x2="524.21" y1="1227.41" y2="1224.9" class="l20"/><line x1="520.33" x2="521.09" y1="1228.28" y2="1223.67" class="l20"/><line x1="496.74" x2="499.23" y1="1229.61" y2="1213.86" class="l20"/><line x1="483.07" x2="487.82" y1="1237.55" y2="1208.48" class="l50"/><line x1="483.63" x2="486.2" y1="1223.95" y2="1207.78" class="l20"/><line x1="466.66" x2="469.12" y1="1216.41" y2="1200.12" class="l20"/><line x1="464" x2="466.45" y1="1215.23" y2="1198.86" class="l20"/><line x1="458.29" x2="460.71" y1="1212.66" y2="1196.35" class="l20"/><line x1="486.1" x2="486.71" y1="1176.41" y2="1172.67" class="l20"/><line x1="441.69" x2="444.59" y1="1225.32" y2="1206.52" class="l20"/><line x1="425.58" x2="431.9" y1="1228.72" y2="1183.35" class="l50"/><line x1="422.92" x2="429.29" y1="1229.3" y2="1182" class="l50"/><line x1="419.54" x2="426.3" y1="1229.97" y2="1179.83" class="l100"/><line x1="515.56" x2="519.43" y1="1316.24" y2="1294.07" class="l50"/><line x1="512.16" x2="516.02" y1="1317.7" y2="1295.45" class="l50"/><line x1="480.86" x2="482.48" y1="1321.84" y2="1311.76" class="l20"/><line x1="479.25" x2="480.46" y1="1332.23" y2="1323.63" class="l20"/><line x1="477.84" x2="478.72" y1="1340.49" y2="1335.07" class="l20"/><line x1="473.89" x2="476.64" y1="1342.25" y2="1325.34" class="l20"/><line x1="432.95" x2="434.73" y1="1375.86" y2="1363.6" class="l20"/><line x1="435.31" x2="440.36" y1="1359.71" y2="1325" class="l50"/><line x1="428.31" x2="435.63" y1="1378.03" y2="1326.83" class="l100"/><line x1="288.37" x2="288.83" y1="1201.37" y2="1196.1" class="l20"/><line x1="375.12" x2="381.21" y1="1351.71" y2="1303.69" class="l50"/><line x1="316.3" x2="321.09" y1="1327.11" y2="1278.12" class="l50"/><line x1="256.87" x2="260.02" y1="1293.85" y2="1251.9" class="l50"/><line x1="249.25" x2="250.94" y1="1271.61" y2="1248.07" class="l50"/><line x1="243.57" x2="245.2" y1="1269.18" y2="1245.76" class="l50"/><line x1="236.94" x2="238.45" y1="1266.42" y2="1242.88" class="l50"/><line x1="195.05" x2="196.43" y1="1276.45" y2="1249.16" class="l50"/><line x1="171.87" x2="174.59" y1="1281.02" y2="1215.73" class="l100"/><line x1="168.04" x2="170.8" y1="1282" y2="1213.93" class="l100"/><line x1="228.21" x2="233.02" y1="1438.89" y2="1366.16" class="l100"/><line x1="223.15" x2="228.6" y1="1452.78" y2="1367.53" class="l100"/><line x1="221.55" x2="221.78" y1="1437.44" y2="1433.95" class="l20"/><line x1="221.86" x2="223.57" y1="1432.83" y2="1406.09" class="l50"/><line x1="223.71" x2="223.86" y1="1403.65" y2="1400.28" class="l20"/><line x1="224.62" x2="225.96" y1="1389.82" y2="1368.85" class="l50"/><line x1="198.43" x2="199.83" y1="1421.15" y2="1396.61" class="l50"/><line x1="200.11" x2="201.82" y1="1390.74" y2="1359.2" class="l50"/><line x1="193.73" x2="197.36" y1="1426.51" y2="1357.34" class="l100"/><line x1="191.2" x2="191.43" y1="1425.51" y2="1421.89" class="l20"/><line x1="191.48" x2="192.87" y1="1420.85" y2="1393.83" class="l50"/><line x1="193" x2="194.8" y1="1391.4" y2="1356.36" class="l50"/><line x1="170.35" x2="171.69" y1="1412.54" y2="1385.17" class="l50"/><line x1="165.63" x2="168.5" y1="1415.44" y2="1345.68" class="l100"/><line x1="171.85" x2="172.03" y1="1379.48" y2="1374.81" class="l20"/><line x1="172.27" x2="173.2" y1="1368.86" y2="1347.59" class="l50"/><line x1="163.13" x2="163.27" y1="1414.45" y2="1410.73" class="l20"/><line x1="163.33" x2="164.43" y1="1409.78" y2="1382.5" class="l50"/><line x1="164.55" x2="164.66" y1="1380.01" y2="1376.46" class="l20"/><line x1="165.07" x2="165.95" y1="1365.9" y2="1344.52" class="l50"/><line x1="155.74" x2="157.49" y1="1488.82" y2="1441.3" class="l50"/><line x1="158.06" x2="158.53" y1="1429.29" y2="1415.3" class="l20"/><line x1="158.66" x2="158.8" y1="1412.67" y2="1409.12" class="l20"/><line x1="158.86" x2="166.33" y1="1408" y2="1212.12" class="l200"/><line x1="166.41" x2="206.32" y1="1210.61" y2="154.69" class="l1200"/><line x1="148.15" x2="195.73" y1="1492.24" y2="141.24" class="l1500"/><line x1="84.95" x2="85.12" y1="1503.96" y2="1491.64" class="l20"/><line x1="85.11" x2="85.22" y1="1479.92" y2="1469.8" class="l20"/><line x1="85.22" x2="85.32" y1="1468.51" y2="1464.12" class="l20"/><line x1="79.14" x2="79.16" y1="1513.06" y2="1507.19" class="l20"/><line x1="79.19" x2="82.12" y1="1501.99" y2="1062.59" class="l500"/><line x1="82.18" x2="84.86" y1="1052.95" y2="653.64" class="l400"/><line x1="84.9" x2="86.7" y1="642.92" y2="373.39" class="l300"/><line x1="86.84" x2="88.75" y1="361.09" y2="79.99" class="l300"/><line x1="61.06" x2="59.81" y1="1521.09" y2="66.85" class="l1500"/><line x1="176.41" x2="177.36" y1="1020.84" y2="996.58" class="l50"/><line x1="304.33" x2="337.63" y1="980.62" y2="576.72" class="l500"/><line x1="291.88" x2="339.99" y1="1017.47" y2="410.09" class="l700"/><line x1="288.83" x2="336.54" y1="1016.95" y2="406.31" class="l700"/><line x1="286.26" x2="333.17" y1="1012.45" y2="404.4" class="l700"/><line x1="266.74" x2="310.66" y1="1009.58" y2="384.86" class="l700"/><line x1="241.78" x2="281.97" y1="1005.91" y2="353.5" class="l700"/><line x1="214.95" x2="250.73" y1="1001.91" y2="319.36" class="l700"/><line x1="186.15" x2="216.44" y1="997.67" y2="281.84" class="l800"/><line x1="115.03" x2="115.08" y1="987.18" y2="984.25" class="l20"/><line x1="115.24" x2="115.81" y1="974.78" y2="944" class="l50"/><line x1="115.81" x2="118.6" y1="943.13" y2="788.58" class="l200"/><line x1="113.19" x2="115.81" y1="942.61" y2="787.53" class="l200"/><line x1="116.05" x2="116.33" y1="773.13" y2="758.82" class="l20"/><line x1="118.81" x2="120.61" y1="774.22" y2="672.06" class="l200"/><line x1="94.06" x2="94.29" y1="680.59" y2="658.57" class="l50"/><line x1="87.2" x2="87.38" y1="677.22" y2="654.96" class="l50"/><line x1="120.82" x2="123.68" y1="661.87" y2="500.63" class="l200"/><line x1="94.39" x2="95.97" y1="647.93" y2="480.74" class="l200"/><line x1="87.44" x2="88.7" y1="644.28" y2="475.52" class="l200"/><line x1="123.88" x2="124.43" y1="489.24" y2="459.36" class="l50"/><line x1="96.1" x2="96.42" y1="468.9" y2="437.87" class="l50"/><line x1="88.78" x2="89" y1="463.54" y2="432.21" class="l50"/><line x1="124.74" x2="129.24" y1="441.58" y2="186.49" class="l300"/><line x1="96.47" x2="96.93" y1="419.56" y2="381.89" class="l50"/><line x1="89.14" x2="89.34" y1="413.57" y2="388.1" class="l50"/><line x1="96.56" x2="96.68" y1="381.59" y2="368.63" class="l20"/><line x1="709.46" x2="712.77" y1="1872.63" y2="1861.69" class="l20"/><line x1="672.51" x2="676" y1="1859.72" y2="1848.52" class="l20"/><polyline points="779.5 1828.95 793.3 1789.04 794.24 1784.91" class="l50"/><line x1="694.27" x2="698.3" y1="1756.94" y2="1743.87" class="l20"/><line x1="697.85" x2="701.17" y1="1749.07" y2="1737.83" class="l20"/><line x1="779.79" x2="783.05" y1="1673.65" y2="1663.49" class="l20"/><line x1="753.04" x2="756.21" y1="1663.15" y2="1652.76" class="l20"/><line x1="736.6" x2="739.77" y1="1661.86" y2="1650.13" class="l20"/><line x1="773.12" x2="776.12" y1="1578.6" y2="1568.25" class="l20"/>
</g>
</svg>