<svg xmlns="http://www.w3.org/2000/svg" viewBox="0 0 752 964">
<style>
  #f1-1, #f1-2, #f1-3, #f1-4, #f1-5, #f1-6, #f1-7, #f1-8 {
    opacity: 0;
  }
  #f1-1 { animation: f1 .6s 0s 2 ease-out forwards}
  #f1-2 { animation: f1 .7s .1s 2 ease-out forwards}
  #f1-3 { animation: f1 .5s .2s 2 ease-out forwards}
  #f1-4 { animation: f1 .6s 0s 2 ease-out forwards}
  #f1-5 { animation: f1 .5s .3s 2 ease-out forwards}
  #f1-6 { animation: f1 .6s .2s 2 ease-out forwards}
  #f1-7 { animation: f1 .5s .3s 2 ease-out forwards}
  #f1-8 { animation: f1 .6s .1s 2 ease-out forwards}
  @keyframes f1 {
    0%, 100% {
      opacity: 0;
    }
    10%, 70% {
      opacity: 1;
    }
    0% {
      transform: translate(432px, 284px) scale(.2) rotate(0deg) translate(-432px, -284px);
    }
    100% {
      transform: translate(432px, 284px) scale(1.1) rotate(10deg) translate(-432px, -284px);
    }
  }

  #f2-1, #f2-2, #f2-3, #f2-4, #f2-5, #f2-6 {
    opacity: 0;
  }
  #f2-1 { animation: f2 .8s 0s 2 ease-out forwards}
  #f2-2 { animation: f2 .7s .1s 2 ease-out forwards}
  #f2-3 { animation: f2 .5s .1s 2 ease-out forwards}
  #f2-4 { animation: f2 .8s 0s 2 ease-out forwards}
  #f2-5 { animation: f2 .5s .2s 2 ease-out forwards}
  #f2-6 { animation: f2 .7s .1s 2 ease-out forwards}
  @keyframes f2 {
    0%, 100% {
      opacity: 0;
    }
    10%, 70% {
      opacity: 1;
    }
    0% {
      transform: translate(465px, 492px) scale(.2) rotate(0deg) translate(-465px, -492px);
    }
    100% {
      transform: translate(465px, 492px) scale(1.1) rotate(20deg) translate(-465px, -492px);
    }
  }

  #f3-1, #f3-2, #f3-3, #f3-4, #f3-5, #f3-6 {
    opacity: 0;
  }
  #f3-1 { animation: f3 .7s .2s 2 ease-out forwards}
  #f3-2 { animation: f3 .8s 0s 2 ease-out forwards}
  #f3-3 { animation: f3 .6s .1s 2 ease-out forwards}
  #f3-4 { animation: f3 .6s .1s 2 ease-out forwards}
  #f3-5 { animation: f3 .8s 0s 2 ease-out forwards}
  #f3-6 { animation: f3 .6s .1s 2 ease-out forwards}
  @keyframes f3 {
    0%, 100% {
      opacity: 0;
    }
    10%, 70% {
      opacity: 1;
    }
    0% {
      transform: translate(652px, 432px) scale(.2) rotate(0deg) translate(-652px, -432px);
    }
    100% {
      transform: translate(652px, 432px) scale(1.1) rotate(10deg) translate(-652px, -432px);
    }
  }

  #f4-1, #f4-2, #f4-3, #f4-4, #f4-5, #f4-6, #f4-7, #f4-8 {
    opacity: 0;
  }
  #f4-1 { animation: f4 .5s .1s 2 ease-out forwards}
  #f4-2 { animation: f4 .7s 0s 2 ease-out forwards}
  #f4-3 { animation: f4 .6s .1s 2 ease-out forwards}
  #f4-4 { animation: f4 .5s .3s 2 ease-out forwards}
  #f4-5 { animation: f4 .7s 0s 2 ease-out forwards}
  #f4-6 { animation: f4 .6s .2s 2 ease-out forwards}
  #f4-7 { animation: f4 .5s .4s 2 ease-out forwards}
  #f4-8 { animation: f4 .7s 0s 2 ease-out forwards}
  @keyframes f4 {
    0%, 100% {
      opacity: 0;
    }
    10%, 70% {
      opacity: 1;
    }
    0% {
      transform: translate(608px, 208px) scale(.2) rotate(0deg) translate(-608px, -208px);
    }
    100% {
      transform: translate(608px, 208px) scale(1.1) rotate(30deg) translate(-608px, -208px);
    }
  }

  #f5-1, #f5-2, #f5-3, #f5-4, #f5-5, #f5-6, #f5-7, #f5-8, #f5-9 {
    opacity: 0;
  }
  #f5-1 { animation: f5 .5s .2s 2 ease-out forwards}
  #f5-2 { animation: f5 .6s 0s 2 ease-out forwards}
  #f5-3 { animation: f5 .7s .1s 2 ease-out forwards}
  #f5-4 { animation: f5 .6s .1s 2 ease-out forwards}
  #f5-5 { animation: f5 .7s .2s 2 ease-out forwards}
  #f5-6 { animation: f5 .5s .3s 2 ease-out forwards}
  #f5-7 { animation: f5 .7s 0s 2 ease-out forwards}
  #f5-8 { animation: f5 .6s .1s 2 ease-out forwards}
  #f5-9 { animation: f5 .5s .2s 2 ease-out forwards}
  @keyframes f5 {
    0%, 100% {
      opacity: 0;
    }
    10%, 70% {
      opacity: 1;
    }
    0% {
      transform: translate(192px, 496px) scale(.2) rotate(0deg) translate(-192px, -496px);
    }
    100% {
      transform: translate(192px, 496px) scale(1.1) rotate(10deg) translate(-192px, -496px);
    }
  }

  #f6-1, #f6-2, #f6-3, #f6-4, #f6-5, #f6-6, #f6-7, #f6-8 {
    opacity: 0;
  }
  #f6-1 { animation: f6 .6s .2s 2 ease-out forwards}
  #f6-2 { animation: f6 .8s 0s 2 ease-out forwards}
  #f6-3 { animation: f6 .6s .2s 2 ease-out forwards}
  #f6-4 { animation: f6 .6s .2s 2 ease-out forwards}
  #f6-5 { animation: f6 .6s .3s 2 ease-out forwards}
  #f6-6 { animation: f6 .8s .1s 2 ease-out forwards}
  #f6-7 { animation: f6 .5s 0s 2 ease-out forwards}
  #f6-8 { animation: f6 .8s .1s 2 ease-out forwards}
  @keyframes f6 {
    0%, 100% {
      opacity: 0;
    }
    10%, 70% {
      opacity: 1;
    }
    0% {
      transform: translate(224px, 238px) scale(.2) rotate(0deg) translate(-224px, -238px);
    }
    100% {
      transform: translate(224px, 238px) scale(1.1) rotate(20deg) translate(-224px, -238px);
    }
  }

</style>
  <g id="fireworks1">
    <g id="f1-1">
      <path fill="#0054c6" d="m434.4 280 70.4-25.4a2.3 2.3 0 1 1 1.6 4.4h-.2z"/>
      <path fill="#0054c6" d="m434 282.2 45 37.3c1 .8 1.1 2.3.3 3.3a2.3 2.3 0 0 1-3.4.1z"/>
      <path fill="#0054c6" d="M430.3 281.4 384 299c-1.3.5-2.6-.1-3-1.3-.5-1.2 0-2.6 1.3-3l.2-.1q23.8-6.7 47.8-13.2"/>
      <path fill="#0054c6" d="m431.7 278.7-23.8-65.3a2.3 2.3 0 1 1 4.4-1.6v.2z"/>
      <path fill="#3ec2f9" d="M456.6 241.8c8-14 15.1-28.3 23.2-42.3a2.7 2.7 0 1 1 4.6 2.6l-.1.3c-9.4 12.9-18.2 26.4-27.7 39.4"/>
      <path fill="#3ec2f9" d="m430.6 333.5 1.3 41.3a2.7 2.7 0 1 1-5.4-.2z"/>
      <path fill="#3ec2f9" d="M383.4 279.2q-22.5.3-45 1a2.7 2.7 0 0 1-.3-5.3h.3q22.5 2 45 4.3"/>
    </g>
    <g id="f1-2">
      <path fill="#0054c6" d="m470.3 238.4 35.2-43.7a3 3 0 0 1 4.7 3.8l-.2.2z"/>
      <path fill="#0054c6" d="m401 315.7-41.8 51a3 3 0 0 1-4.3.5 3 3 0 0 1-.4-4.2l.2-.2z"/>
      <path fill="#0054c6" d="M377.2 298.8q-25.7 9.7-51.2 19.9a3 3 0 1 1-2-5.7q26.7-7.3 53.2-14.2"/>
      <path fill="#0054c6" d="m362.7 266-41.5-5.6a3 3 0 1 1 1.3-5.9z"/>
      <path fill="#3ec2f9" d="m490 282.7 36.4-1.5a2.7 2.7 0 0 1 .2 5.3h-.4z"/>
      <path fill="#3ec2f9" d="m459.8 332.5 19.1 29.9a2.7 2.7 0 1 1-4.6 2.6q-7.4-16.3-14.5-32.6"/>
      <path fill="#3ec2f9" d="M408.9 236.9Q397 218.2 385.7 199a2.7 2.7 0 1 1 4.8-2.4q8.8 20.2 18.4 40.3"/>
    </g>
    <g id="f1-3">
      <path fill="#0054c6" d="m433 282.8 15.7 40.6a2.3 2.3 0 1 1-4.4 1.5z"/>
      <path fill="#0054c6" d="m430.7 279.3-37.9-30.9a2.3 2.3 0 1 1 3.1-3.5z"/>
      <path fill="#f70037" d="M446.5 269.7c14.6-13 29.8-25.3 44.6-38 1-.9 2.5-.8 3.3.2.9 1 .8 2.5-.2 3.3l-.2.2c-15.8 11.5-32 22.5-47.5 34.3Z"/>
      <path fill="#f70037" d="M435.1 300.3q5.3 27.9 10.3 55.9a2.3 2.3 0 0 1-4.6.8v-.2z"/>
    </g>
    <g id="f1-4">
      <path fill="#0054c6" d="M434.5 281.2c14 2 28 4.7 42 6.5 1.4.1 2.3 1.3 2.1 2.6a2.3 2.3 0 0 1-2.9 2c-13.9-3.4-27.4-7.7-41.2-11.1"/>
      <path fill="#0054c6" d="M430.9 282.4 407.4 312a2.3 2.3 0 1 1-3.7-3l.2-.1z"/>
      <path fill="#3ec2f9" d="M434.5 214.4c-.3-9.2-1.5-18.4-1.7-27.8q.2-2.4 2.6-2.8a2.7 2.7 0 0 1 2.7 3.2c-1.5 9-2 18.3-3.6 27.4"/>
      <path fill="#f70037" d="M431.3 273.7q-5.8-34.2-12-68.4c-.3-1.3.5-2.5 1.8-2.7s2.5.6 2.7 1.9v.1q4 34.5 7.5 69.1Z"/>
      <path fill="#f70037" d="M423.6 302.5q-8.3 25.3-17.7 50.2a2.3 2.3 0 1 1-4.3-1.7v-.2q11.6-23.8 22-48.3"/>
    </g>
    <g id="f1-5">
      <path fill="#0054c6" d="m448.5 330.3 21.8 56.8a3 3 0 0 1-1.8 4 3 3 0 0 1-3.9-1.8v-.3z"/>
      <path fill="#0054c6" d="m389.3 242.2-43-34.6a3 3 0 0 1-.5-4.3 3 3 0 0 1 4.5-.2z"/>
      <path fill="#3ec2f9" d="M468 261.7q23-13.7 46-27.6a2.7 2.7 0 0 1 2.8 4.6l-.3.1z"/>
      <path fill="#3ec2f9" d="M477 308.5q18.4 9.5 36.6 19.7a2.7 2.7 0 1 1-3 4.5q-16.5-12.4-33.7-24.2"/>
      <path fill="#f70037" d="M435 274.3c7.8-21.8 16-43.6 23.7-65.4a2.3 2.3 0 0 1 3-1.5c1.2.5 1.9 1.8 1.4 3v.2q-14.1 31.9-28.2 63.7"/>
      <path fill="#f70037" d="M419.3 290.8c-15.7 12.5-30.5 26-45.8 39-1 .8-2.4.7-3.3-.3a2.3 2.3 0 0 1 .4-3.4c16.2-11.7 32.1-24 48.6-35.3"/>
    </g>
    <g id="f1-6">
      <path fill="#0054c6" d="m446.3 214.7 6.4-45a3 3 0 1 1 5.9 1.2z"/>
      <path fill="#0054c6" d="M481.6 325c12.4 9.5 24.4 19.5 36.7 28.9a3 3 0 1 1-4 4.5Q498 341.7 481.7 325"/>
      <path fill="#3ec2f9" d="M400.6 331.7 384.9 362a2.7 2.7 0 1 1-4.5-2.8z"/>
      <path fill="#3ec2f9" d="m386.2 252-35-18.7a2.7 2.7 0 0 1 2.4-4.7l.3.2z"/>
      <path fill="#f70037" d="M444.4 279c21.1-3.9 42.4-7 63.3-11.3a2.3 2.3 0 1 1 1 4.5h-.2c-21.4 3-42.8 4.5-64.1 6.8Z"/>
      <path fill="#f70037" d="M412.2 283.5q-27.8 5-55.3 10.3-2.1.3-2.8-1.8-.2-2.1 1.9-2.8h.2q28-3.2 56-5.7Z"/>
    </g>
    <g id="f1-7">
      <path fill="#0054c6" d="m433.8 279.1 30.4-37.4a2.3 2.3 0 1 1 3.5 3.1z"/>
      <path fill="#0054c6" d="M511.6 254.8q13.5-6 27.2-11.7a2.7 2.7 0 1 1 2.1 5l-.5.1z"/>
      <path fill="#0054c6" d="M431.9 282.9c-2.9 19.5-7 39-10 58.4a2.3 2.3 0 1 1-4.6-.7v-.2c4.6-19.3 10.2-38.3 14.6-57.5"/>
      <path fill="#0054c6" d="m408 206.6-13.6-32.2a3 3 0 1 1 5.7-2z"/>
      <path fill="#3ec2f9" d="M386.3 305.3q-9 5.4-17.7 11.2-8.8 5.8-18 11a2.7 2.7 0 1 1-2.3-5q9.6-3.6 19-8.3t19-8.9"/>
      <path fill="#f70037" d="m445.8 286.1 58.4 21c1.2.5 1.9 1.8 1.4 3a2.4 2.4 0 0 1-3 1.4h-.1z"/>
      <path fill="#f70037" d="M403.7 269.3q-21.8-7-43.3-15a2.3 2.3 0 0 1 1.6-4.4l.2.1q20.5 10 41.5 19.3"/>
    </g>
    <g id="f1-8">
      <path fill="#0054c6" d="m432.8 278.6 9.7-57.6a2.3 2.3 0 1 1 4.7.7v.2z"/>
      <path fill="#0054c6" d="m482.5 291.3 61 9.8a3 3 0 1 1-1 6l-.3-.1z"/>
      <path fill="#0054c6" d="m418.2 347.7-6.5 44a2.7 2.7 0 0 1-5.3-.7v-.3z"/>
      <path fill="#0054c6" d="M430.2 280.3c-10-.6-19.8-3.2-29.5-4.7l-29.6-4.7a3 3 0 0 1 1-6l.2.1 29 7.7c9.7 2.5 19 6 28.9 7.6"/>
      <path fill="#f70037" d="M445.4 297.2q9.2 10.4 18 21.2 4.5 5.2 9.3 10.2t8.9 11.2a2.3 2.3 0 1 1-4 2.5v-.2q-3.2-5.8-7.6-11.2t-8.4-11.1a762 762 0 0 0-16.2-22.6"/>
      <path fill="#f70037" d="M412.9 255.8 383.3 222a2.3 2.3 0 1 1 3.5-3.1l.1.1q13.1 18.3 26 36.8"/>
    </g>
  </g>
  <g id="fireworks2">
    <g id="f2-1">
      <path fill="#0054c6" d="m509.2 542.1 33.7 32a2.9 2.9 0 1 1-4 4.2l-.3-.3z"/>
      <path fill="#0054c6" d="m402.1 503.5-55.2 16a3.2 3.2 0 1 1-1.8-6.3h.4z"/>
      <path fill="#3ec2f9" d="M465.9 448.2q2.1-27.7 4-55.6a2.9 2.9 0 0 1 5.7.4v.3q-4.7 27.5-9.7 54.9Z"/>
      <path fill="#f70037" d="m401 422-1.1 4.2 2.8 3.2-4.3.2-2.3 3.7-1.5-4-4.2-1.1 3.4-2.6-.3-4.3 3.6 2.3z"/>
      <path fill="#f70037" d="m451.8 590.6-.9-4.5-4.2-1.9 4-2.2.4-4.6 3.4 3.1 4.5-1-1.9 4.2 2.3 4-4.5-.6z"/>
      <path fill="#f70037" d="m553.1 491.1 5 4.3 6.4-1.7-2.5 6.1 3.6 5.5-6.6-.5-4.1 5.1-1.6-6.4-6.1-2.4 5.6-3.4z"/>
      <path fill="#f70037" d="m495 366.7-.7 5.3 4 3.6-5.3 1-2.2 4.9-2.5-4.7-5.4-.6 3.7-3.9-1.1-5.2 4.9 2.3z"/>
    </g>
    <g id="f2-2">
      <path fill="#0054c6" d="M443 547.7q-7 27.7-13.7 55.6a3.3 3.3 0 1 1-6.2-2z"/>
      <path fill="#3ec2f9" d="M405.6 448.4c-8-5.3-16.6-9.6-24.8-15.1a3 3 0 0 1 3.2-4.9l.5.4c6.6 6.7 14.2 12.8 21.1 19.6"/>
      <path fill="#3ec2f9" d="M409.3 483.7a1490 1490 0 0 1-46.1-2.9 2.9 2.9 0 0 1 .5-5.7h.3q22.6 4.7 45.3 8.5"/>
      <path fill="#f70037" d="M477.9 456.6q8.8-19.2 16.8-38.6a2.5 2.5 0 1 1 4.7 1.9l-.2.3Q489 438.6 478 456.6"/>
      <path fill="#f70037" d="m475.6 407.6-.2-4.9-4.2-2.7 4.6-1.7 1.3-4.8 3 3.9 5-.4-2.7 4.2 1.8 4.6-4.8-1.4z"/>
      <path fill="#f70037" d="m446.6 397.1 2.8 3.4 4.4-.2-2.5 3.6 1.7 4.1-4.3-1.2-3.4 2.8-.2-4.4-3.7-2.3 4.1-1.5z"/>
      <path fill="#f70037" d="m366.5 521.7 5.5 1 3.9-4 .8 5.6 5 2.5-5.1 2.4-.8 5.6-3.9-4.1-5.5 1 2.6-5z"/>
      <path fill="#f70037" d="m369.6 408.2.8 4.9 4.5 2-4.4 2.3-.6 4.9-3.5-3.5-4.9 1 2.2-4.4-2.3-4.3 4.8.7z"/>
      <path fill="#f70037" d="m337.8 446.6.7-4.4-3.1-3.1 4.3-.6 1.9-4 2 3.9 4.4.6-3.1 3.1.8 4.4-4-2z"/>
      <path fill="#f70037" d="m509.9 599.6 3.9-1.2 1.2-3.9 2.3 3.4h4.1l-2.5 3.2 1.3 3.8-3.8-1.3-3.3 2.4.1-4.1z"/>
      <path fill="#f70037" d="m573.2 503.9 4.8.5 3.3-3.6.9 4.8 4.6 1.9-4.3 2.4-.5 4.9-3.6-3.3-4.8 1 2.1-4.4z"/>
    </g>
    <g id="f2-3">
      <path fill="#0054c6" d="m412.8 438.6-34.5-32.4a3.3 3.3 0 1 1 4.8-4.4z"/>
      <path fill="#0054c6" d="m447.5 432.3-16.3-56a3.3 3.3 0 1 1 6.4-1.5z"/>
      <path fill="#3ec2f9" d="m497 442.1 20.4-32a2.9 2.9 0 1 1 4.6 3.6z"/>
      <path fill="#3ec2f9" d="m485 547.6 16.5 31.4a2.9 2.9 0 1 1-5.3 2.2z"/>
      <path fill="#3ec2f9" d="M454 544q-.8 10.8-1 21.7a244 244 0 0 1-1.5 22 2.9 2.9 0 1 1-5.7-1.2c3.6-13.7 5-28.4 8.2-42.6"/>
      <path fill="#3ec2f9" d="m430 530.7-26 39a2.9 2.9 0 1 1-4.8-3l.2-.4q15.2-17.9 30.7-35.6"/>
      <path fill="#f70037" d="m437 453.3-21.7-28.8c-.9-1-.7-2.7.5-3.5a2.5 2.5 0 0 1 3.7.8q8.9 15.7 17.4 31.5"/>
      <path fill="#f70037" d="m493.4 468.8 32.8-24.2a2.5 2.5 0 1 1 3 4l-.3.2z"/>
      <path fill="#f70037" d="M507 487.5q8.3-1 16.5-2.6 8.3-1.5 17-1.5a2.5 2.5 0 0 1 0 5h-.5q-7.9-1.2-16.3-1c-5.5 0-11.1.3-16.7 0"/>
      <path fill="#f70037" d="m491.2 505.6 41.6 18.4a2.5 2.5 0 1 1-2.3 4.5s-39.3-23-39.3-23"/>
      <path fill="#f70037" d="M433.8 507.5q-19 14.5-38.6 28c-1.2.8-2.8.5-3.6-.7a2.5 2.5 0 0 1 1-3.6q20.7-11.4 41.1-23.7Z"/>
      <path fill="#f70037" d="m543.9 436 2.2 4.5 5 .8-3.7 3.5.8 5-4.5-2.4-4.5 2.2 1-4.9-3.6-3.6 5-.7z"/>
      <path fill="#f70037" d="m471.3 372.2-1.4-3.6-3.8-.9 3-2.5-.3-3.8 3.2 2.1 3.6-1.5-1 3.7 2.5 2.9-3.8.3z"/>
      <path fill="#f70037" d="m337.9 477.4 1.6-4.1-2.4-3.6 4.3.3 2.7-3.5 1.1 4.3 4.1 1.5-3.7 2.3-.2 4.4-3.3-2.8z"/>
      <path fill="#f70037" d="m354.1 550.7 5.3.9 3.8-3.8.8 5.3 4.9 2.4-4.9 2.4-.7 5.3-3.8-3.8-5.3.9 2.5-4.8z"/>
      <path fill="#f70037" d="m447.6 609.4-.7-3.4-3.2-1.5 3.1-1.7.3-3.5 2.6 2.5 3.4-.8-1.5 3.2 1.8 3.1-3.5-.5z"/>
      <path fill="#f70037" d="m490.4 606.9.9 3.4 3.3 1.2-2.9 1.9-.1 3.6-2.8-2.3-3.4 1 1.3-3.3-2-2.9 3.5.2z"/>
      <path fill="#f70037" d="m556.1 543.2 2.6-2.2-.4-3.3 2.8 1.8 3.1-1.4-.8 3.3 2.2 2.4-3.3.3-1.7 2.9-1.2-3.1z"/>
      <path fill="#f70037" d="m573.4 484.4-1.5-4.8-4.9-1.5 4.1-3v-5l4 3 4.9-1.6-1.7 4.8 3.1 4h-5.1z"/>
    </g>
    <g id="f2-4">
      <path fill="#0054c6" d="m471.6 537.6 18.6 66.2a3.3 3.3 0 0 1-6.3 1.8v-.3z"/>
      <path fill="#0054c6" d="m383 466.2-35.6-7.6a3.3 3.3 0 1 1 2-6.2z"/>
      <path fill="#3ec2f9" d="M442 446c-7-15.1-15-29.8-22.1-45a2.9 2.9 0 1 1 5.2-2.5l.2.3c5.3 15.8 11.5 31.4 16.8 47.2"/>
      <path fill="#3ec2f9" d="M511 468.7q19.1-10.1 38.7-19.5a2.9 2.9 0 0 1 2.5 5.2l-.3.2q-20.5 6.6-40.9 14"/>
      <path fill="#3ec2f9" d="m521.2 497.6 37 1.6a2.9 2.9 0 0 1-.3 5.8h-.4z"/>
      <path fill="#3ec2f9" d="m408.6 512-36.9 18.8c-1.4.7-3.1.1-3.9-1.3a3 3 0 0 1 1.7-4z"/>
      <path fill="#f70037" d="M445 520.2q-9.3 21-18.3 41.9a2.5 2.5 0 1 1-4.6-2v-.3z"/>
      <path fill="#f70037" d="m483.6 406 2.7-6.6-4-6 7.1.5 4.5-5.6 1.7 7 6.7 2.5-6 3.8-.4 7.1-5.4-4.6z"/>
      <path fill="#f70037" d="m385.4 380.6 3 3.8 5-.3-2.8 4.1 1.8 4.6-4.7-1.3-3.8 3.1-.2-4.9-4.2-2.6 4.6-1.7z"/>
      <path fill="#f70037" d="m335.3 518.9 1.6-3.2-1.7-3.1 3.5.6 2.5-2.6.5 3.5 3.2 1.5-3.2 1.6-.4 3.5-2.5-2.5z"/>
      <path fill="#f70037" d="m380.4 578.1-.8 3.4 2.4 2.5-3.4.3-1.7 3-1.3-3.2-3.4-.6 2.6-2.3-.4-3.3 2.9 1.7z"/>
      <path fill="#f70037" d="m572.3 427.4-.5 4.1 3.1 2.7-4 .8-1.6 3.8-2.1-3.6-4.1-.4 2.8-3-.9-4 3.7 1.7z"/>
      <path fill="#f70037" d="m531.9 397.7 1.6-2.8-1.4-2.9 3.1.6 2.4-2.3.4 3.2 2.8 1.5-2.9 1.4-.5 3.2-2.3-2.4z"/>
    </g>
    <g id="f2-5">
      <path fill="#0054c6" d="M486.2 407q3-15 6.2-30.2a3 3 0 1 1 5.6 1.7q-6 14.3-11.8 28.5Z"/>
      <path fill="#0054c6" d="m512.5 506 61.5 15.4a3.3 3.3 0 1 1-2 6.2z"/>
      <path fill="#f70037" d="m423.7 471-35-15a2.5 2.5 0 1 1 2.2-4.5z"/>
      <path fill="#f70037" d="m427.8 491.6-46.5 5a2.5 2.5 0 0 1-.6-5h.3q23.4-.1 46.8 0"/>
      <path fill="#f70037" d="m434.4 361.5 4.2-.2 2.2-3.6 1.5 4 4.1 1-3.3 2.7.3 4.2-3.5-2.3-3.9 1.6 1.1-4.1z"/>
      <path fill="#f70037" d="m399.4 603 1.7-3.4-2-3.4 3.9.5 2.6-2.8.7 3.8 3.5 1.6-3.4 1.8-.5 3.8-2.7-2.6z"/>
      <path fill="#f70037" d="m546.5 574.5-.2-3.6-3-1.9 3.3-1.3.9-3.4 2.2 2.8 3.6-.3-2 3 1.4 3.3-3.5-.9z"/>
      <path fill="#f70037" d="m516 382.1 1.9-2.8-1.2-3.1 3.2.9 2.6-2.1.1 3.4 2.8 1.8-3.1 1.1-.9 3.3-2-2.7z"/>
    </g>
    <g id="f2-6">
      <path fill="#0054c6" d="m499.7 453.7 44.8-46.1a3.3 3.3 0 0 1 4.7 4.5l-.2.2z"/>
      <path fill="#0054c6" d="M527.9 474.6c15.5-4.9 31.2-9.2 46.6-14 1.7-.6 3.5.3 4 2a3.2 3.2 0 0 1-2.5 4.3c-16 2.8-32.1 5-48.1 7.7"/>
      <path fill="#0054c6" d="m406.4 540.5-29.5 32a3.3 3.3 0 1 1-4.4-4.9z"/>
      <path fill="#3ec2f9" d="m504.6 523 35.9 23.7a2.9 2.9 0 1 1-3.5 4.6z"/>
      <path fill="#f70037" d="M458.4 449.2q-2-19.4-4.3-38.6a2.5 2.5 0 1 1 5-.3c0 13-.5 26-.7 38.9"/>
      <path fill="#f70037" d="M483.5 524.7a898 898 0 0 1 22.7 30.9c.8 1.1.5 2.7-.6 3.5s-2.8.5-3.6-.6l-.1-.3a891 891 0 0 0-18.4-33.5"/>
      <path fill="#f70037" d="m462.7 535.7 4.6 33.7a2.5 2.5 0 1 1-5 .7v-.4z"/>
      <path fill="#f70037" d="m366.4 474.8 4.5-5.6-2.1-6.9 6.8 2.6 5.9-4.1-.4 7.1 5.7 4.4-6.9 1.9-2.4 6.8-3.9-6z"/>
      <path fill="#f70037" d="m411.7 568.1 3.5 5.8 6.7.5-4.4 5.1 1.6 6.5-6.2-2.6-5.8 3.6.7-6.8-5.2-4.3 6.6-1.5z"/>
      <path fill="#f70037" d="m489 588.5 4.3-1 1.6-4.1 2.3 3.8 4.4.3-2.9 3.3 1.1 4.3-4.1-1.8-3.7 2.4.4-4.4z"/>
      <path fill="#f70037" d="m537.8 556.3-4-4.7-6.1.7 3.2-5.3-2.5-5.6 6 1.4 4.6-4.1.4 6.2 5.4 3-5.7 2.4z"/>
      <path fill="#f70037" d="m413.6 371.6 3.1 2.8 4.1-1-1.7 3.8 2.2 3.6-4.2-.4-2.7 3.2-.9-4.1-3.8-1.6 3.6-2.1z"/>
      <path fill="#f70037" d="m485 375.1 4.4-1.5 1.2-4.4 2.8 3.7 4.5-.2-2.6 3.7 1.6 4.3-4.4-1.3-3.6 2.8v-4.6z"/>
    </g>
  </g>
  <g id="fireworks3">
    <g id="f3-1">
      <path fill="#0054c6" d="m626.7 392.4-24-34.7a2.4 2.4 0 1 1 4-2.5z"/>
      <path fill="#0054c6" d="M691.5 402.8q14.4-10.2 28.7-20.4a2.4 2.4 0 1 1 2.5 4c-10.4 5.7-20.9 10.8-31.2 16.4"/>
      <path fill="#0054c6" d="m688.2 427.8 45.7-3.6q2.1.1 2.5 2.2 0 2.1-2.1 2.5h-.3z"/>
      <path fill="#0054c6" d="m667.5 459 28 41a2.4 2.4 0 0 1-3.9 2.7l-.1-.2z"/>
      <path fill="#0054c6" d="m650.2 472.4 3.5 41.3a2.4 2.4 0 1 1-4.7.4v-.3z"/>
      <path fill="#0054c6" d="m623.6 476-13 28.6a2.4 2.4 0 1 1-4-2.2z"/>
      <path fill="#0054c6" d="m590.4 430.4-26.2 3q-2.1.1-2.6-2a2.4 2.4 0 0 1 2.5-2.6z"/>
      <path fill="#f70037" d="M624.3 409.2q-10.7-7.5-21.4-14.7-1.4-1-.5-2.6c.5-.8 1.7-1 2.5-.4l.2.1z"/>
      <path fill="#f70037" d="M638 401.4q-5.7-12.8-11.8-25.4a1.8 1.8 0 1 1 3.3-1.6l.1.2q4.4 13.5 8.5 26.8"/>
      <path fill="#f70037" d="M653.1 402q1.6-15.1 2.6-30.3a1.8 1.8 0 0 1 3.7.2v.2q-2.9 15-6.3 30"/>
      <path fill="#f70037" d="M680.2 416.4q5.4-2.6 10.7-5.5 5.3-3 11.3-5 1.7-.3 2.3 1.2a1.8 1.8 0 0 1-1.5 2.4q-5.7 1-11.3 3-5.7 2.2-11.5 4"/>
      <path fill="#f70037" d="M672.7 447.4q11.5 7.6 22.6 15.9a1.8 1.8 0 0 1-2.1 3l-.2-.2a653 653 0 0 0-20.3-18.7"/>
      <path fill="#f70037" d="m591.8 472.3 4.1-.6 1.7-3.6 1.8 3.6 4 .6-2.9 2.8.8 4-3.6-1.9-3.6 1.9.7-4z"/>
      <path fill="#f70037" d="m645.4 366 .3-5.1-4.1-3.2 5-1.3 1.7-4.8 2.8 4.3 5.2.2-3.3 4 1.5 4.9-4.9-1.9z"/>
      <path fill="#f70037" d="m601.4 346.9 2.9-1.1.7-3 1.9 2.4 3.1-.3-1.7 2.6 1.2 2.8-3-.7-2.3 2-.2-3.1z"/>
      <path fill="#f70037" d="m569.8 477.5.4-2.5-1.8-1.7 2.5-.5 1-2.3 1.2 2.3 2.5.3-1.7 1.8.5 2.5-2.3-1.1z"/>
      <path fill="#f70037" d="m696.4 502.1 1.4 2.1 2.5.1-1.6 2 .8 2.4-2.4-.9-2.1 1.5.1-2.6-2-1.5 2.4-.7z"/>
      <path fill="#f70037" d="m727.3 466.9-.9-2.4-2.6-.6 2.1-1.6-.3-2.6 2.2 1.4 2.4-1-.7 2.5 1.7 2-2.6.1z"/>
    </g>
    <g id="f3-2">
      <path fill="#0054c6" d="M647.4 366.1q-1.5-11-2.7-22.1a2.1 2.1 0 0 1 4.2-.5v.4z"/>
      <path fill="#0054c6" d="m612 451.6-34 23.7q-2 1-3.4-.6a2.4 2.4 0 0 1 .9-3.4z"/>
      <path fill="#0054c6" d="m692.2 420.1 25.7-7.4a2.1 2.1 0 0 1 1.2 4h-.3q-13.3 2-26.6 3.4Z"/>
      <path fill="#0054c6" d="M657 467.3q1.9 7.6 4.2 15.2 2.4 7.4 4 15.3a2.1 2.1 0 0 1-4 .9v-.3c-.8-10.2-3.2-20.6-4.3-31Z"/>
      <path fill="#f70037" d="m619.4 424.3-27.5-2.1c-1 0-1.8-1-1.7-2 0-1 1-1.7 2-1.7h.2z"/>
      <path fill="#f70037" d="m629.1 345.7-1.8-2.1-2.8.2 1.5-2.4-1.1-2.5 2.7.7 2.2-1.9.1 2.8 2.4 1.4-2.6 1.1z"/>
      <path fill="#f70037" d="m724.9 399-2.1-2.9h-3.7l2.2-2.9-1.2-3.5 3.5 1.2 2.9-2.2v3.6l3 2.1-3.5 1.1z"/>
    </g>
    <g id="f3-3">
      <path fill="#0054c6" d="m667.4 395 20-42a2.4 2.4 0 0 1 4.3 2.1v.2z"/>
      <path fill="#0054c6" d="m686.8 441.4 30 7.9a2 2 0 0 1 1.5 2.5 2 2 0 0 1-2.6 1.5h-.2z"/>
      <path fill="#0054c6" d="M637.5 463.8q-4.5 16.4-8.8 32.8a2 2 0 0 1-2.6 1.5 2 2 0 0 1-1.4-2.8q6.3-15.8 12.8-31.5"/>
      <path fill="#0054c6" d="M612.4 436.3q-16 4.6-32.2 8.7a2 2 0 1 1-.8-4q16.5-2.1 33-4.7"/>
      <path fill="#f70037" d="m592.5 396.1.2 3 2.7 1.7-2.9 1.1-.7 3-2-2.4-3.1.3 1.7-2.7-1.2-2.8 3 .8z"/>
      <path fill="#f70037" d="m666.2 499.8-1.7-2.9-3.3-.3 2.2-2.4-.7-3.3 3 1.4 2.9-1.7-.4 3.3 2.5 2.1-3.2.7z"/>
      <path fill="#f70037" d="m717.2 456.5-3.8-2.3-4.1 1.8 1-4.3-3-3.3 4.4-.3 2.2-3.9 1.7 4.1 4.4.8-3.4 3z"/>
      <path fill="#f70037" d="m644.1 336.5.8 3.8 3.6 1.5-3.4 1.9-.4 3.9-2.9-2.6-3.8.8 1.7-3.5-2-3.4 3.9.5z"/>
      <path fill="#f70037" d="m572.2 371.3 3 1.9 3.3-1.3-.9 3.4 2.3 2.7-3.6.2-1.8 3.1-1.3-3.4-3.5-.8 2.8-2.3z"/>
      <path fill="#f70037" d="m554.9 427.4-.5-3.1-2.9-1.4 2.8-1.5.4-3.1 2.3 2.2 3.1-.6-1.4 2.9 1.5 2.8-3.1-.5z"/>
      <path fill="#f70037" d="m590.1 495 3.8-.6 1.7-3.5 1.8 3.5 3.9.5-2.8 2.7.7 3.9-3.5-1.8-3.4 1.9.6-3.9z"/>
      <path fill="#f70037" d="m633.1 520.4.4-2.7-2.1-1.9 2.7-.5 1.2-2.6 1.3 2.5 2.8.2-1.9 2.1.6 2.7-2.6-1.2z"/>
      <path fill="#f70037" d="m729.3 412.4 3.5-.7 1.3-3.3 1.8 3.1 3.6.3-2.4 2.6.8 3.5-3.3-1.5-3 1.9.4-3.6z"/>
      <path fill="#f70037" d="m711.1 360.2.6 2.9 2.7 1.2-2.5 1.5-.3 3-2.2-2-2.9.6 1.2-2.7-1.6-2.5 3 .3z"/>
    </g>
    <g id="f3-4">
      <path fill="#0054c6" d="M601.7 413c-6.7-1.7-13.6-2.7-20.4-4.6a2.1 2.1 0 1 1 1.5-3.9c6 3 12.7 5.5 19 8.5Z"/>
      <path fill="#0054c6" d="M678.6 402.6q10.8-11.3 22-22.2a2.1 2.1 0 1 1 2.7 3.2 936 936 0 0 0-24.7 19"/>
      <path fill="#0054c6" d="m679 462.7 18.5 17.7a2 2 0 1 1-2.9 3l-.2-.2z"/>
      <path fill="#0054c6" d="m618.4 456-20.9 21.3a2 2 0 1 1-2.7-3.1z"/>
      <path fill="#f70037" d="m640.3 369-1.3-3.4-3.5-.8 2.8-2.3-.3-3.5 3 1.9 3.3-1.4-.9 3.5 2.4 2.7-3.6.2z"/>
      <path fill="#f70037" d="m567.8 393.8 1.7 3.2 3.5.4-2.5 2.5.8 3.5-3.2-1.5-3.1 1.7.5-3.5-2.7-2.4 3.5-.6z"/>
      <path fill="#f70037" d="m614.4 507.7.2 2.5 2.2 1.2-2.2 1-.5 2.4-1.6-1.8-2.5.3 1.3-2.1-1.1-2.3 2.4.5z"/>
      <path fill="#f70037" d="m667.6 513.7-1.2-2.2-2.6-.3 1.7-1.8-.5-2.5 2.3 1 2.2-1.3-.3 2.6 1.9 1.6-2.5.5z"/>
      <path fill="#f70037" d="m726.7 443.3 1.2-2.1-1-2.2 2.4.6 1.7-1.6.3 2.4 2 1.1-2.2 1-.4 2.3-1.6-1.8z"/>
      <path fill="#f70037" d="m676.6 349.2.4-2.3-1.6-1.6 2.3-.4 1-2 1 2.1 2.3.3-1.6 1.6.3 2.4-2-1.2z"/>
    </g>
    <g id="f3-5" fill="#f70037">
      <path d="m666.6 406.8 16.9-24.2a1.8 1.8 0 1 1 3 2.1l-.2.2z"/>
      <path d="m618 368.4 2.7 1.8 2.9-1.2-.8 3.1 2.1 2.4-3.2.1-1.7 2.8-1.1-3-3.1-.8 2.4-2z"/>
      <path d="m691.1 489.8 2.8-1.7.1-3.2 2.5 2.1 3-.8-1.2 2.9 1.7 2.7-3.1-.2-2 2.4-.8-3.1z"/>
      <path d="m562 448.5.2-3.1-2.5-2 3.1-.8 1-2.9 1.7 2.6 3.2.1-2 2.4.9 3.1-3-1.2z"/>
      <path d="m662.1 342.2.6-2.4-1.5-1.8 2.4-.1 1.3-2.1.9 2.3 2.3.6-1.9 1.5.1 2.4-2-1.3z"/>
    </g>
    <g id="f3-6">
      <path fill="#0054c6" d="m604.4 404.7-31.1-14.3a2.4 2.4 0 0 1 2-4.2l.2.1z"/>
      <path fill="#0054c6" d="m694.3 453.4 30.4 14a2 2 0 0 1 1 2.9 2 2 0 0 1-3 .9z"/>
      <path fill="#0054c6" d="M626.2 403q-12.8-12.8-25.6-25.7a2.1 2.1 0 1 1 3.2-2.7c7.2 9.5 15 18.8 22.4 28.4"/>
      <path fill="#0054c6" d="m643 399-10.1-39a2 2 0 1 1 4-.9q3.2 20 6 39.9"/>
      <path fill="#0054c6" d="M662.9 387.7q3.1-13.3 6.6-26.6a2.1 2.1 0 0 1 4 1v.4z"/>
      <path fill="#f70037" d="m673.5 432.5 32.8 3q1.7.3 1.7 2-.3 1.7-2 1.7h-.2z"/>
      <path fill="#f70037" d="m661 459.7 10.9 22a1.8 1.8 0 0 1-3.3 1.6l-.1-.2z"/>
      <path fill="#f70037" d="m645.3 453.2-2.9 32.9a1.8 1.8 0 1 1-3.6-.5q3.1-16.4 6.5-32.4"/>
      <path fill="#f70037" d="M634.7 447a850 850 0 0 1-20 28.1c-.6.8-1.8 1-2.6.4s-1-1.8-.4-2.6l.1-.1q11.7-12.6 22.9-25.7"/>
      <path fill="#f70037" d="m627 437.5-30.8 14.2q-1.6.5-2.4-.9a2 2 0 0 1 1-2.5z"/>
      <path fill="#f70037" d="m581 440.2 1.8-4.9-3-4.2 5.2.2 3.1-4.2 1.4 5 4.9 1.7-4.3 2.9-.1 5.2-4.1-3.3z"/>
      <path fill="#f70037" d="m633.5 493.6 3.7 3.2 4.8-1.2-1.9 4.5 2.6 4.1-4.9-.4-3.1 3.8-1.1-4.8-4.5-1.7 4.2-2.6z"/>
      <path fill="#f70037" d="m712.6 408.3 4.4 1.8 4-2.7-.3 4.8 3.7 2.9-4.6 1.2-1.7 4.5-2.5-4.1-4.7-.2 3-3.6z"/>
      <path fill="#f70037" d="m693.6 372.6 2.5 2.7 3.6-.6-1.7 3.2 1.7 3.2-3.6-.6-2.6 2.6-.5-3.6-3.2-1.7 3.3-1.5z"/>
      <path fill="#f70037" d="m589.5 358.6 2.8 1.2 2.5-1.6-.2 3 2.3 1.9-2.9.7-1.2 2.8-1.5-2.6-3-.2 2-2.2z"/>
      <path fill="#f70037" d="m708 492.6 2.4-1.7v-3l2.3 1.8 2.8-1-1 2.8 1.8 2.4-2.9-.1-1.7 2.4-.9-2.8z"/>
      <path fill="#f70037" d="m639.2 344.5 2.7-2-.2-3.3 2.7 1.9 3.1-1.2-.9 3.2 2.1 2.5-3.3.1-1.9 2.8-1.1-3.1z"/>
    </g>
  </g>
  <g id="fireworks4">
    <g id="f4-1">
      <path fill="#0054c6" d="m523.5 135.8-4.9 5.2 1.5 7-6.5-3.1-6.2 3.6.9-7.1-5.3-4.8 7.1-1.3 2.9-6.5 3.4 6.3z"/>
      <path fill="#0054c6" d="m678.9 300.1-2.3 5.3 3.2 4.9-5.8-.5-3.6 4.5-1.4-5.7-5.4-2.1 5-2.9.3-5.8 4.4 3.8z"/>
      <path fill="#f70037" d="m659.3 78.9 2.3-2.8-1-3.4L664 74l3-2-.3 3.6 2.9 2.2-3.5.9-1.3 3.4-1.9-3.1z"/>
      <path fill="#3ec2f9" d="m449.7 177.2 2.5-2.5-.6-3.5 3.1 1.6 3.1-1.7-.5 3.5 2.6 2.4-3.5.6-1.5 3.2-1.7-3.1z"/>
      <path fill="#0054c6" d="m470.9 273.6 2.5.7 2-1.7.1 2.6 2.1 1.4-2.4.8-.6 2.5-1.6-2-2.6.2 1.5-2.2z"/>
      <path fill="#3ec2f9" d="m528.8 331.8-1.3 2.7 1.4 2.6-2.9-.5-2.1 2.2-.5-2.9-2.7-1.3 2.7-1.4.4-2.9 2.1 2.1z"/>
      <path fill="#0054c6" d="m700.4 157.9 2.7-3.2-1.1-4 3.9 1.6 3.5-2.2-.4 4.1 3.3 2.6-4.1 1-1.5 3.9-2.2-3.6z"/>
      <path fill="#0054c6" d="m546.9 93.2 1.8-2.8-1.3-3 3.2.8 2.6-2.2.2 3.3 2.8 1.8-3.1 1.2-.7 3.2-2.2-2.5z"/>
      <path fill="#0054c6" d="m611.2 329.8-2.4 4.6 2.5 4.6-5.2-.8-3.6 3.8-.8-5.2-4.7-2.2 4.6-2.4.7-5.2 3.7 3.7z"/>
      <path fill="#0054c6" d="m718.7 231.6 3.4 4.4 5.6-.3-3.2 4.6 2.1 5.2-5.4-1.6-4.3 3.5-.2-5.6-4.7-3 5.3-1.8z"/>
      <path fill="#0054c6" d="m654.2 130.3 4.4 1.9 4.2-2.6-.5 4.8 3.8 3.1-4.7 1.1-1.8 4.6-2.5-4.2-4.9-.3 3.2-3.7z"/>
      <path fill="#3ec2f9" d="m585.6 123.4 6 2 4.9-3.8v6.3l5.1 3.6-5.9 1.8-1.9 6-3.6-5.1-6.2.1 3.7-5z"/>
      <path fill="#0054c6" d="m524 248.1 6.8-.9 3.1-6 2.9 6.1 6.8 1.1-5 4.7 1 6.8-5.9-3.3-6.1 3 1.2-6.7z"/>
      <path fill="#f70037" d="m550.4 176.1 4.9 5.4 7.2-1-3.6 6.3 3.1 6.6-7.1-1.5-5.2 5-.8-7.2-6.4-3.5 6.6-2.9z"/>
      <path fill="#3ec2f9" d="m575.3 268.5 2.3-4.9-2.8-4.7 5.5.7 3.6-4.1 1 5.3 5 2.2-4.8 2.6-.5 5.5-4-3.7z"/>
      <path fill="#0054c6" d="m617.2 225.4 2.6 2.2 3.3-.9-1.2 3.1 1.9 2.8-3.4-.2-2.1 2.7-.9-3.3-3.2-1.2 2.9-1.8z"/>
      <path fill="#f70037" d="m635.8 177.9 1.6 2 2.6-.2-1.4 2.1.9 2.4-2.4-.7-2 1.7-.1-2.6-2.2-1.3 2.4-.9z"/>
    </g>
    <g id="f4-2">
      <path fill="#0054c6" d="m500.9 110.8-3.1-.1-1.8 2.5-.8-3-2.9-.9 2.5-1.8v-3l2.4 1.9 2.9-1-1 2.9z"/>
      <path fill="#3ec2f9" d="m672.8 118.7 4.3-2.2.6-4.8 3.5 3.4 4.8-.9-2.2 4.3 2.3 4.3-4.8-.7-3.3 3.5-.8-4.8z"/>
      <path fill="#3ec2f9" d="m464.9 191.2 3.5-1.5.9-3.7 2.4 2.9 3.8-.4-2 3.3 1.6 3.5-3.7-1-2.9 2.6-.3-3.8z"/>
      <path fill="#0054c6" d="m532 311.8-.4 3.7 2.9 2.3-3.6.8-1.3 3.4-1.9-3.1-3.7-.2 2.4-2.8-.9-3.5 3.4 1.4z"/>
      <path fill="#f70037" d="m498.4 240.9 5.3-1.4 1.8-5.3 3.1 4.6 5.5.2-3.4 4.3 1.6 5.3-5.2-2-4.6 3.2.3-5.5z"/>
      <path fill="#3ec2f9" d="m673.5 166.7 2.2 6 6.2 1.6-5 4 .5 6.3-5.4-3.5-5.9 2.4 1.7-6.2-4.1-4.8 6.4-.3z"/>
      <path fill="#0054c6" d="m599.8 146.1 4.6-3 .1-5.6 4.3 3.5 5.3-1.7-1.9 5.2 3.2 4.6-5.5-.3-3.4 4.5-1.5-5.4z"/>
      <path fill="#3ec2f9" d="m633.6 258.3-5.3.1-2.9 4.3-1.7-5-5-1.5 4.2-3.1-.1-5.2 4.2 3 5-1.7-1.6 5z"/>
      <path fill="#0054c6" d="m671 281.8 3.4-1.2.8-3.5 2.3 2.8 3.5-.2-2 3 1.4 3.3-3.5-1-2.7 2.3-.2-3.6z"/>
    </g>
    <g id="f4-3">
      <path fill="#0054c6" d="m543.4 145.9 1.2 4.7 4.6 1.7-4.1 2.6-.2 4.9-3.8-3.1-4.7 1.3 1.8-4.5-2.7-4.1 4.9.3z"/>
      <path fill="#0054c6" d="m506.1 186.4-1.4 2.9 1.6 2.7-3.1-.5-2.2 2.3-.5-3.1-2.8-1.3 2.7-1.4.4-3.1 2.2 2.2z"/>
      <path fill="#f70037" d="m746.7 195.9-1.6 1.7.4 2.3-2.1-1-2 1.1.3-2.3-1.7-1.6 2.3-.4 1-2.1 1.1 2.1z"/>
      <path fill="#0054c6" d="m698.4 101.8-1.6 1.7.4 2.2-2-1-2 1 .3-2.2-1.6-1.6 2.2-.3 1-2.1 1 2z"/>
      <path fill="#f70037" d="m635.5 64.1 3.6-.1 1.9-3.1 1.3 3.4 3.5.9-2.9 2.3.2 3.6-3-2.1-3.3 1.4 1-3.5z"/>
      <path fill="#f70037" d="m530.8 84.2-2.7 1.2-.5 2.8-2-2.1-2.9.3 1.5-2.5-1.2-2.6 2.8.6 2.2-2 .2 2.9z"/>
      <path fill="#0054c6" d="m476.4 127.8 2.3-2.8-1-3.4 3.4 1.3 2.9-2-.2 3.6 2.9 2.2-3.5.9-1.2 3.3-2-3z"/>
      <path fill="#f70037" d="m452.6 189.4 3.3 1.4 3.2-1.9-.4 3.7 2.7 2.3-3.5.8-1.4 3.4-1.9-3.2-3.6-.3 2.5-2.7z"/>
      <path fill="#f70037" d="M468 247.5v3.6l3 1.9-3.4 1.2-.9 3.4-2.1-2.8-3.6.1 2-2.9-1.2-3.3 3.4 1z"/>
      <path fill="#f70037" d="m623.2 343.9 1.2 3.4 3.4 1-2.9 2.1.2 3.7-3-2.1-3.4 1.2 1.1-3.4-2.3-2.9h3.7z"/>
      <path fill="#3ec2f9" d="m708.4 305.4.9 2 2.1.5-1.7 1.4.2 2.2-1.8-1.2-2.1.9.6-2.1-1.5-1.7 2.2-.1z"/>
      <path fill="#0054c6" d="m593.3 81 2.6 3.4 4.4-.2-2.5 3.6 1.6 4-4.2-1.2-3.3 2.8-.2-4.4-3.6-2.3 4.1-1.5z"/>
      <path fill="#0054c6" d="m501.3 288.9 5.1 1.4 4-3.4.2 5.2 4.5 2.7-4.9 1.9-1.2 5.1-3.3-4.1-5.2.5 2.8-4.4z"/>
      <path fill="#0054c6" d="m560.6 329.1 1.5-3.3-1.9-3 3.6.4 2.3-2.7.8 3.5 3.2 1.4-3.1 1.7-.3 3.6-2.6-2.4z"/>
      <path fill="#3ec2f9" d="m659.5 320.3-3.1 4.5 1.8 5.1-5.2-1.7-4.4 3.4v-5.5l-4.5-3.1 5.2-1.7 1.6-5.2 3.2 4.4z"/>
      <path fill="#3ec2f9" d="m707.6 265.9 2.1-4.2-2.2-4.1 4.6.8 3.2-3.4.7 4.6 4.2 1.9-4.1 2.2-.6 4.6-3.3-3.3z"/>
      <path fill="#f70037" d="m654 204.2 4.7-.7 2.1-4.3 2.1 4.3 4.7.6-3.3 3.4.8 4.7-4.2-2.2-4.3 2.3.8-4.8z"/>
      <path fill="#f70037" d="m590.8 203.1 1.6 6.9 6.6 2.6-6.1 3.7-.5 7.1-5.3-4.7-6.9 1.8 2.8-6.6-3.8-6 7.1.7z"/>
      <path fill="#0054c6" d="m594.2 262.1 2.7 5.2 5.8.7-4.1 4.2 1.1 5.7-5.2-2.6-5.2 2.8.9-5.8-4.2-4 5.7-.9z"/>
      <path fill="#0054c6" d="m717.1 134.8.9 2.7 2.6.7-2.2 1.7.1 2.8-2.2-1.6-2.6.9.8-2.6-1.7-2.2h2.7z"/>
    </g>
    <g id="f4-4">
      <path fill="#0054c6" d="m499.5 210.9-2.4 4.2 2 4.4-4.7-1.1-3.6 3.3-.4-4.9-4.3-2.3 4.5-1.9 1-4.8 3.1 3.7z"/>
      <path fill="#f70037" d="M684.1 87.1v2.5l2 1.4-2.4.7-.7 2.4-1.4-2.1h-2.5l1.5-1.9-.8-2.3 2.4.8z"/>
      <path fill="#0054c6" d="m623.3 76.9 5 .4 3.2-3.9 1.1 4.9 4.7 1.8-4.3 2.6-.3 5-3.8-3.3-4.8 1.3 1.9-4.6z"/>
      <path fill="#f70037" d="m693.6 260 3.4 4.2 5.3-.4-2.9 4.5 2 4.9-5.2-1.4-4.1 3.5-.2-5.4-4.6-2.8 5-1.9z"/>
      <path fill="#f70037" d="m696.6 206.5 2.5 4.1 4.7.3-3.1 3.6 1.2 4.6-4.4-1.9-4 2.5.4-4.7-3.7-3 4.7-1.1z"/>
      <path fill="#3ec2f9" d="m587.1 295.1-4 4.6 1.6 6-5.6-2.3-5.2 3.3.5-6.1-4.8-3.8 5.9-1.5 2.2-5.7 3.3 5.2z"/>
      <path fill="#0054c6" d="m635 205.6-2.7 3.9 1.7 4.5-4.6-1.3-3.8 3-.1-4.8-4-2.7 4.5-1.6 1.3-4.6 2.9 3.8z"/>
      <path fill="#0054c6" d="m639 144.5 3.6-.7 1.4-3.4 1.8 3.2 3.7.3-2.5 2.7.9 3.5-3.4-1.5-3.1 1.9.4-3.6z"/>
      <path fill="#0054c6" d="m689 126.6-1.6 1.6.3 2.2-2-1.1-2 1.1.4-2.3-1.7-1.6 2.3-.3 1.1-2 1 2z"/>
    </g>
    <g id="f4-5">
      <path fill="#0054c6" d="m551.4 269.9 6.7 2.7 6.1-4-.5 7.2 5.7 4.5-7.1 1.8-2.5 6.8-3.8-6.2-7.3-.3 4.7-5.5z"/>
      <path fill="#0054c6" d="m488.4 79.2-1.4 2.4 1.2 2.5-2.7-.6-2 1.9-.3-2.7-2.4-1.3 2.5-1.1.5-2.7 1.8 2z"/>
      <path fill="#0054c6" d="m442.8 177.5 2.4-.5.9-2.2 1.2 2.1 2.4.2-1.6 1.8.6 2.4-2.3-1-2 1.2.2-2.4z"/>
      <path fill="#0054c6" d="M447.8 240.3v2.9l2.3 1.7-2.7.9-.9 2.8-1.7-2.4h-2.9l1.7-2.3-.9-2.8 2.7.9z"/>
      <path fill="#0054c6" d="m504.8 321.7.1 3.6 3 2-3.4 1.1-1 3.5-2.2-2.9-3.5.2 2-3-1.2-3.3 3.4 1z"/>
      <path fill="#f70037" d="m713.2 115.2.4 3.6 3.2 1.6-3.3 1.5-.5 3.6-2.5-2.7-3.5.5 1.7-3.1-1.6-3.2 3.5.7z"/>
      <path fill="#f70037" d="m598.6 59.5 1.4 1.7 2.2-.2-1.2 1.9.9 2-2.2-.6-1.6 1.5-.2-2.2-1.8-1.2 2-.8z"/>
      <path fill="#3ec2f9" d="m545.1 71.5 2.5 1.2 2.4-1.4-.3 2.7 2.1 1.8-2.7.6-1.1 2.5-1.4-2.4-2.7-.2 1.8-2.1z"/>
      <path fill="#f70037" d="m573.5 348.4.4 2.3 2.1 1-2.1 1.1-.2 2.3-1.7-1.7-2.3.5 1.1-2.1-1.2-2 2.3.3z"/>
      <path fill="#f70037" d="m655 342.6-2.3 1.5v2.7l-2.2-1.7-2.6.8 1-2.6-1.5-2.2 2.7.1 1.7-2.1.7 2.6z"/>
      <path fill="#3ec2f9" d="m690.2 321.4 2-1.6-.3-2.6 2.2 1.4 2.3-1-.6 2.4 1.7 1.9-2.5.2-1.3 2.2-1-2.4z"/>
      <path fill="#3ec2f9" d="m725.7 283.4-.3 3.1 2.3 2-3 .7-1.2 2.8-1.5-2.6-3.1-.3 2-2.3-.7-3 2.8 1.3z"/>
      <path fill="#f70037" d="m739.5 206 3.1-.6 1.3-2.8 1.4 2.7 3.2.4-2.2 2.2.7 3.1-2.9-1.4-2.7 1.6.4-3.1z"/>
      <path fill="#3ec2f9" d="m725.7 175.6 1.7 5.2 5.4 1.6-4.5 3.3.2 5.5-4.5-3.2-5.2 1.9 1.7-5.3-3.5-4.4h5.6z"/>
      <path fill="#3ec2f9" d="m505.3 113.4 5.3-.4 2.7-4.5 2 4.9 5.2 1.2-4.1 3.4.5 5.3-4.5-2.8-5 2.1 1.4-5.2z"/>
      <path fill="#0054c6" d="m476.9 160.9 2.5-3.9-1.8-4.2 4.4 1.2 3.5-3 .3 4.6 3.9 2.3-4.3 1.7-1 4.4-2.9-3.5z"/>
      <path fill="#0054c6" d="m482.2 272.1 1.7-2.9-1.5-3.2 3.4.8 2.5-2.4.4 3.4 3 1.7-3.2 1.4-.6 3.4-2.3-2.6z"/>
      <path fill="#f70037" d="m629.5 95.8.5 7.3 6.4 3.7-6.8 2.9-1.6 7.2-4.7-5.6-7.4.7 3.9-6.3-3-6.8 7.2 1.8z"/>
      <path fill="#f70037" d="m610.5 322.9-5.9.9-2.6 5.4-2.7-5.3-5.9-.8 4.2-4.2-1.1-5.9 5.3 2.7 5.3-2.9-.9 5.9z"/>
      <path fill="#0054c6" d="m617.1 274.7 4.8 5 6.9-1.1-3.2 6.2 3.2 6.1-6.9-1.2-4.9 5-1-6.9-6.2-3.1 6.2-3.1z"/>
      <path fill="#3ec2f9" d="m655.3 273.1 2.1-4.5-2.6-4.3 5 .6 3.2-3.8 1 4.9 4.6 2-4.3 2.4-.5 5-3.6-3.4z"/>
      <path fill="#0054c6" d="m683.3 244.7-6.2-.1-3.6 5.1-1.9-5.9-5.9-1.9 5.1-3.6-.1-6.2 5 3.7 5.9-2-2 5.9z"/>
      <path fill="#3ec2f9" d="m648.8 166-4.2 3.7.7 5.5-4.8-2.8-5 2.3 1.2-5.4-3.8-4.1 5.5-.5 2.7-4.9 2.2 5.1z"/>
      <path fill="#3ec2f9" d="m574.5 141.1-1.7 4.4 2.7 3.9-4.7-.2-2.9 3.7-1.2-4.5-4.5-1.6 4-2.6.1-4.7 3.7 3z"/>
      <path fill="#3ec2f9" d="m558.2 222.6-2.3 5 2.9 4.7-5.5-.6-3.6 4.1-1.1-5.3-5.1-2.2 4.8-2.7.5-5.4 4 3.6z"/>
      <path fill="#0054c6" d="m576.4 88.2 1.2 6.3 5.8 2.7-5.6 3-.8 6.4-4.6-4.5-6.2 1.3 2.7-5.7-3.1-5.6 6.3.9z"/>
      <path fill="#0054c6" d="m671.9 97.8-2.6 2.6.6 3.6-3.3-1.7-3.2 1.7.6-3.6-2.7-2.6 3.7-.5 1.6-3.3 1.6 3.3z"/>
    </g>
    <g id="f4-6">
      <path fill="#0054c6" d="m584.3 330.2-5 2.2-1 5.3-3.6-4.1-5.3.7 2.7-4.6-2.3-4.9 5.2 1.1 4-3.7.5 5.4z"/>
      <path fill="#0054c6" d="m547.7 103.9-3 1-.8 3-1.9-2.5-3.1.1 1.8-2.5-1.1-3 3 1 2.4-2 .1 3.2z"/>
      <path fill="#f70037" d="m472.4 146.1-.4 3.2 2.4 2.2-3.2.6-1.3 2.9-1.6-2.8-3.2-.3 2.2-2.4-.7-3.2 3 1.4z"/>
      <path fill="#3ec2f9" d="m509.6 323.2 1.5-1.6-.4-2.2 2 1 1.9-1.1-.3 2.2 1.6 1.5-2.1.4-1 2-1-2z"/>
      <path fill="#f70037" d="m671.3 326.6 1.9 2.4 3.1-.1-1.8 2.5 1.2 2.9-3-.9-2.4 2-.1-3.1-2.6-1.7 2.9-1z"/>
      <path fill="#3ec2f9" d="m474.8 243.2 2.8-2.6-.5-3.8 3.3 1.9 3.5-1.7-.8 3.8 2.7 2.7-3.8.5-1.8 3.4-1.6-3.5z"/>
      <path fill="#0054c6" d="m721.5 208 3-1.8.2-3.5 2.7 2.2 3.4-.9-1.4 3.3 2 2.9-3.5-.3-2.3 2.8-.8-3.4z"/>
      <path fill="#f70037" d="m544.5 120.2-2.5 4.7 2.3 4.7-5.2-1-3.8 3.7-.6-5.3-4.7-2.4 4.8-2.3.9-5.2 3.6 3.9z"/>
      <path fill="#f70037" d="m648.3 109.1 6.4 2.4 5.6-3.8-.3 6.8 5.4 4.2-6.6 1.8-2.3 6.4-3.7-5.7-6.9-.2 4.3-5.3z"/>
      <path fill="#0054c6" d="m692.9 208.9-5.7 1.3-2.2 5.4-3-5-5.8-.3 3.8-4.4-1.5-5.7 5.4 2.3 5-3.2-.5 5.9z"/>
      <path fill="#0054c6" d="m584 192.3 2-1.2.1-2.3 1.8 1.5 2.2-.5-.9 2.1 1.2 2-2.3-.3-1.5 1.8-.5-2.2z"/>
      <path fill="#0054c6" d="m706.7 89.5-3.4.8-1.3 3.3-1.8-3-3.6-.3 2.4-2.6-.9-3.4 3.2 1.4 3-1.9-.3 3.5z"/>
      <path fill="#0054c6" d="m600 43.2 1.7 3.1 3.4.3-2.4 2.6.8 3.4-3.2-1.5-3 1.7.5-3.5-2.6-2.3 3.4-.6z"/>
    </g>
    <g id="f4-7">
      <path fill="#0054c6" d="m634.7 313.5-4.2 2.8v5.1l-4-3.1-4.9 1.6 1.7-4.8-2.9-4.1 5 .1 3-4.1 1.5 4.9z"/>
      <path fill="#0054c6" d="m462.7 131 .9 3 3 .9-2.6 1.8v3.1l-2.5-1.9-2.9 1 1-3-1.8-2.5 3.1.1z"/>
      <path fill="#0054c6" d="m672.4 59.8.5 2.6 2.4 1-2.3 1.3-.2 2.6-1.9-1.8-2.6.6 1.1-2.4-1.3-2.3 2.6.4z"/>
      <path fill="#f70037" d="m736.9 160.5 2.2.5 1.6-1.5.2 2.2 1.9 1.1-2.1.8-.4 2.2-1.4-1.7-2.2.3 1.1-1.9z"/>
      <path fill="#3ec2f9" d="m578.7 58.3-.9 2.9 1.8 2.5h-3.1l-1.7 2.6-1-3-2.9-.9 2.5-1.8-.1-3.1 2.5 1.8z"/>
      <path fill="#0054c6" d="m504.9 89 2.4 2.2 3.3-.8-1.4 3 1.8 2.8-3.3-.3-2.2 2.6-.7-3.3-3-1.2 2.8-1.7z"/>
      <path fill="#f70037" d="m458.9 217.5 2.4 2.6 3.4-.5-1.7 3 1.5 3.1-3.4-.7-2.5 2.4-.4-3.4-3-1.6 3.1-1.5z"/>
      <path fill="#f70037" d="m486.1 300.8 2.6-2.4-.6-3.5 3.1 1.7 3.1-1.5-.6 3.4 2.4 2.5-3.5.4-1.6 3.1-1.4-3.1z"/>
      <path fill="#3ec2f9" d="m548.1 339.2-1.6 2.5 1.2 2.8-2.9-.8-2.3 2-.2-3-2.6-1.5 2.8-1.1.7-2.9 1.9 2.3z"/>
      <path fill="#f70037" d="m734 260.8 1.4-2.3-1.2-2.5 2.7.6 2-1.8.2 2.7 2.4 1.4-2.5 1-.5 2.7-1.8-2.1z"/>
      <path fill="#0054c6" d="m641.1 98 5.3-.8 2.3-4.8 2.4 4.8 5.3.8-3.8 3.7 1 5.3-4.8-2.5-4.7 2.5.9-5.2z"/>
      <path fill="#f70037" d="m565 293.9 2.2 5.8 6 1.5-4.8 3.8.5 6.2-5.2-3.4-5.7 2.4 1.6-6-4-4.7 6.2-.3z"/>
      <path fill="#f70037" d="m647.8 297.9-4.2 2.4-.4 4.9-3.6-3.3-4.7 1.2 2-4.5-2.6-4.1 4.8.5 3.2-3.7 1 4.7z"/>
      <path fill="#f70037" d="m691.4 157.6 6.3-2.5 1.4-6.6 4.4 5.1 6.7-.6-3.6 5.7 2.7 6.2-6.5-1.6-5.1 4.5-.5-6.8z"/>
      <path fill="#0054c6" d="m544.2 136.6 3.8-6-2.8-6.6 6.9 1.8 5.3-4.7.5 7.1 6.1 3.6-6.6 2.6-1.5 7-4.6-5.5z"/>
      <path fill="#0054c6" d="m531.8 168.8-3.6 5.6 2.5 6.2-6.4-1.7-5 4.3-.4-6.6-5.7-3.5 6.2-2.4 1.5-6.5 4.2 5.2z"/>
      <path fill="#3ec2f9" d="m515 205.3 3.7 3.2 4.7-1.2-1.9 4.5 2.6 4.1-4.9-.4-3.1 3.7-1.1-4.7-4.5-1.9 4.2-2.4z"/>
      <path fill="#f70037" d="m604.2 171.7-5.7-.1-3.3 4.6-1.7-5.5-5.4-1.7 4.6-3.2V160l4.6 3.5 5.4-1.8-1.9 5.4z"/>
      <path fill="#f70037" d="m636.5 236.3 3.5-5.2-2.4-5.8 6 1.7 4.8-4 .3 6.3 5.3 3.3-5.9 2.2-1.5 6-3.9-4.9z"/>
      <path fill="#0054c6" d="m706.6 185.9-3.7.1-2 3.1-1.2-3.5-3.6-.9 2.9-2.3-.2-3.7 3.1 2.1 3.4-1.4-1 3.6z"/>
      <path fill="#0054c6" d="m712.3 314.1 1.8 1.5 2.3-.8-.8 2.3 1.4 1.9-2.4-.1-1.4 1.9-.7-2.3-2.2-.7 2-1.3z"/>
    </g>
    <g id="f4-8">
      <path fill="#0054c6" d="m479.3 206.1 2.3-2.8-1-3.5 3.4 1.3 3.1-2-.3 3.7 2.9 2.2-3.6.9-1.2 3.4-2-3.1z"/>
      <path fill="#f70037" d="m726.6 134.2 1.4-1.7-.6-2.1 2 .8 1.8-1.3-.1 2.2 1.7 1.4-2.1.5-.8 2.1-1.1-1.9z"/>
      <path fill="#f70037" d="m625.7 61.9-1.3 2.4 1.2 2.4-2.6-.4-2 1.9-.3-2.7-2.5-1.2 2.5-1.2.4-2.7 1.9 2z"/>
      <path fill="#f70037" d="m601.8 344.1 2.7 2.5 3.6-.7-1.6 3.3 1.9 3.2-3.7-.5-2.5 2.8-.7-3.6-3.4-1.6 3.3-1.7z"/>
      <path fill="#0054c6" d="m743.2 232.9-2.2 2.9 1.1 3.4-3.4-1.2-3 2.1.1-3.6-2.9-2.1 3.5-1.1 1.1-3.4 2 3z"/>
      <path fill="#0054c6" d="m700.9 290.7-5 2.5-.8 5.4-3.8-3.9-5.5.9 2.6-4.9-2.6-4.9 5.4 1 3.9-4 .8 5.5z"/>
      <path fill="#f70037" d="m570.8 112.8 3.6-2.9-.4-4.6 3.9 2.5 4.3-1.7-1.2 4.4 2.9 3.5-4.6.2-2.4 4-1.6-4.4z"/>
      <path fill="#f70037" d="m499.7 170.7-4.8 5.3 1.7 6.9-6.5-2.9-6.1 3.8.8-7.1-5.5-4.6 7-1.6 2.7-6.6 3.6 6.2z"/>
      <path fill="#f70037" d="m516 284.1 5.6-2.9.8-6.2 4.4 4.5 6.2-1.1-2.9 5.5 3 5.6-6.2-1-4.4 4.5-.9-6.2z"/>
      <path fill="#0054c6" d="m624.9 123.3 1.7 4.7 4.9 1.3-4 3.1.4 5-4.2-2.8-4.7 1.8 1.4-4.8-3.2-3.8 5-.2z"/>
      <path fill="#0054c6" d="m683.8 149.8-3.4 6.3 3.2 6.3-7-1.3-5 5-1-7-6.3-3.2 6.4-3.1 1.1-7 4.9 5.1z"/>
      <path fill="#0054c6" d="m589.8 230.9 1.6 2.9 3.3.3-2.2 2.4.7 3.3-3-1.4-2.9 1.7.4-3.3-2.5-2.2 3.3-.6z"/>
      <path fill="#0054c6" d="m647.4 265.9-2.5.8-.8 2.5-1.5-2.1h-2.7l1.6-2.1-.9-2.5 2.5.8 2.2-1.5-.1 2.6z"/>
      <path fill="#0054c6" d="m577.9 83.1-2.9.6-1.2 2.7-1.4-2.6-3-.3 2-2.2-.6-2.9 2.7 1.3 2.6-1.5-.4 2.9z"/>
      <path fill="#0054c6" d="m564 204.8-2.3.3-1.1 2.2-1.1-2.2-2.3-.3 1.7-1.7-.5-2.3 2.2 1 2.1-1.1-.4 2.4z"/>
    </g>
  </g>
  <g id="fireworks5">
    <g id="f5-1">
      <path fill="#0054c6" d="m187.2 652.1 2.5 3 3.8-.3-2.1 3.3 1.6 3.6-3.8-1-2.9 2.6-.3-3.9-3.3-2 3.6-1.4z"/>
      <path fill="#0054c6" d="m75 439.5-1.8 2.9 1.3 3.1-3.3-.8-2.5 2.2-.2-3.4-2.9-1.7 3.1-1.3.8-3.2 2.1 2.6z"/>
      <path fill="#f70037" d="m222.1 336.4 2.8 2.7 3.8-.8-1.8 3.5 2 3.4-3.9-.6-2.6 2.9-.7-3.8-3.5-1.6 3.4-1.9z"/>
      <path fill="#f70037" d="m121.8 346.2 3-2.5-.5-3.9 3.4 2 3.6-1.6-.9 3.8 2.7 2.9-4 .4-1.9 3.4-1.5-3.6z"/>
      <path fill="#f70037" d="m47.4 434.4-1.5 2.9 1.5 2.7-3.1-.5-2.2 2.3-.5-3.1-2.8-1.4 2.8-1.4.4-3.1 2.2 2.2z"/>
      <path fill="#0054c6" d="M31.3 508.2v-3.9l-3.2-2.2 3.7-1.2 1.1-3.7 2.3 3.1h3.9l-2.3 3.1 1.3 3.7-3.7-1.3z"/>
      <path fill="#f70037" d="m105.6 614.8 2.5 2.9 3.8-.4-2 3.3 1.5 3.5-3.7-.9-2.9 2.6-.3-3.9-3.3-1.9 3.6-1.5z"/>
      <path fill="#f70037" d="m327.9 567.5-.9 2.8 1.8 2.4h-3l-1.7 2.4-.9-2.8-2.8-.9 2.4-1.7-.1-2.9 2.4 1.7z"/>
      <path fill="#3ec2f9" d="m347.5 499.8 2.1 1.2 2.2-1.1-.5 2.4 1.6 1.7-2.3.3-1.1 2.1-1-2.2-2.4-.4 1.8-1.6z"/>
      <path fill="#3ec2f9" d="m273.7 378.8 5.1 3.2 5.5-2.4-1.5 5.8 3.9 4.6-6 .3-3.1 5.2-2.2-5.6-5.8-1.3 4.6-3.9z"/>
      <path fill="#0054c6" d="m97.8 389.2 4.6 1.1 3.4-3.2.4 4.7 4.1 2.3-4.3 1.9-1 4.6-3-3.6-4.7.5 2.4-4z"/>
      <path fill="#0054c6" d="m239.1 620.4-.9-3.7-3.7-1.4 3.3-2 .1-3.9 3 2.5 3.8-1.1-1.5 3.6 2.2 3.2-3.9-.2z"/>
      <path fill="#0054c6" d="m305.9 430.6 5.9 1.4 4.5-4 .5 6 5.2 3-5.6 2.3-1.2 5.9-3.9-4.5-6 .6 3.1-5.2z"/>
      <path fill="#f70037" d="m80 528.4-.4 7.7 6.2 4.7-7.5 2.1-2.6 7.2-4.2-6.4-7.7-.2 4.8-6-2.2-7.4 7.3 2.7z"/>
      <path fill="#0054c6" d="m182.6 389.3 5.1-1.5 1.7-5 2.9 4.4 5.3.1-3.2 4.1 1.5 5-4.9-1.8-4.3 3.1.2-5.3z"/>
      <path fill="#3ec2f9" d="m120.2 430.1 6.4-2.3 1.6-6.6 4.2 5.3 6.8-.5-3.8 5.7 2.6 6.3-6.6-1.9-5.1 4.4-.3-6.8z"/>
      <path fill="#0054c6" d="m153.2 577.1 5.1-5.3-1.4-7.3 6.6 3.2 6.4-3.6-1 7.3 5.5 5-7.3 1.3-3 6.7-3.5-6.5z"/>
      <path fill="#0054c6" d="m249.7 536.2 7.5.9 5-5.7 1.5 7.5 6.9 3-6.6 3.6-.7 7.6-5.5-5.2-7.4 1.7 3.2-6.9z"/>
    </g>
    <g id="f5-2">
      <path fill="#f70037" d="m178.5 332.5 1.6 2.1 2.7-.1-1.5 2.2.9 2.5-2.5-.8-2.1 1.7-.1-2.7-2.2-1.4 2.5-.9z"/>
      <path fill="#3ec2f9" d="m214.2 644.3.7 3.2 3 1.2-2.8 1.6-.2 3.3-2.4-2.2-3.2.8 1.3-3-1.7-2.7 3.2.3z"/>
      <path fill="#f70037" d="m301.9 590.3 3.3 2.1 3.6-1.6-.9 3.8 2.6 2.9-4 .3-2 3.4-1.4-3.7-3.8-.8 3-2.5z"/>
      <path fill="#3ec2f9" d="m64.7 569.4 2-3.6-1.9-3.7 4.1.8 2.9-3 .5 4.1 3.7 1.9-3.7 1.8-.7 4.1-2.8-3z"/>
      <path fill="#f70037" d="m83.5 455.4.9 5.7 5.3 2.4-5.1 2.7-.7 5.7-4.1-4-5.7 1.1 2.6-5.2-2.8-5 5.6.8z"/>
      <path fill="#f70037" d="m126.7 588.5 3.5-4.9-2-5.6 5.7 1.8 4.8-3.7v6l5 3.4-5.8 1.9-1.6 5.8-3.6-4.9z"/>
      <path fill="#f70037" d="m304.1 471.7 5.7 1.2 4.2-4 .6 5.8 5.1 2.8-5.3 2.4-1.1 5.7-3.9-4.4-5.7.7 2.9-5z"/>
      <path fill="#f70037" d="m232.6 386.9 3.5-6.4-3.2-6.5 7.2 1.4 5.2-5.1.9 7.2 6.5 3.4-6.7 3.1-1.2 7.2-5-5.3z"/>
      <path fill="#0054c6" d="m153.2 403.4 4.7 2.7 4.9-2.2-1.2 5.3 3.7 4-5.4.5-2.7 4.7-2.1-5-5.4-1.1 4.1-3.5z"/>
      <path fill="#3ec2f9" d="m280.8 508.8-1.3-5.2-5.1-1.9 4.6-2.9.2-5.3 4.1 3.4 5.2-1.5-2 5 3 4.5-5.4-.3z"/>
      <path fill="#3ec2f9" d="m210.3 559.4-1.4-5.7-5.6-2.1 5.1-3.1.2-5.9 4.6 3.8 5.7-1.6-2.3 5.5 3.3 4.9-5.9-.4z"/>
      <path fill="#0054c6" d="m196.8 517.9 3.4 1.3 3-2.1-.2 3.7 2.9 2.2-3.5.9-1.3 3.4-1.9-3-3.6-.2 2.3-2.8z"/>
    </g>
    <g id="f5-3">
      <path fill="#0054c6" d="m99.9 477.9 4.3 3.1 5-1.7-1.7 5 3.2 4.2-5.3-.1-3.1 4.4-1.5-5.1-5.1-1.5 4.3-3.1z"/>
      <path fill="#0054c6" d="m86.9 572.2.1-4-3.2-2.3 3.7-1.1 1.2-3.8 2.3 3.2h3.9l-2.3 3.2 1.2 3.7-3.7-1.3z"/>
      <path fill="#0054c6" d="m200.5 335.2-.2 2.5 1.8 1.6-2.4.5-.9 2.2-1.2-2.1-2.5-.2 1.7-1.8-.6-2.4 2.2 1z"/>
      <path fill="#f70037" d="m40.3 526.4 1.8 2.9 3.5.2-2.2 2.7.9 3.4-3.3-1.4-2.9 2 .3-3.5-2.8-2.2 3.4-.9z"/>
      <path fill="#0054c6" d="m149.7 371 3.9-4.3-1.3-5.6 5.3 2.4 4.9-3-.6 5.8 4.4 3.8-5.7 1.1-2.3 5.4-2.9-5.1z"/>
      <path fill="#0054c6" d="m203.3 625.4 2.2 3.3h4l-2.5 3.1 1.2 3.8-3.7-1.4-3.2 2.3.1-3.9-3.2-2.4 3.8-1.1z"/>
      <path fill="#3ec2f9" d="m316.5 545.7.4 5.9 5 3.1-5.5 2.1-1.4 5.8-3.7-4.6-5.9.4 3.2-4.9-2.3-5.5 5.7 1.5z"/>
      <path fill="#0054c6" d="m292.3 408.9 1.2-3.6-2.2-3.1 3.8.1 2.3-3.1 1 3.7 3.7 1.2-3.2 2.1v3.8l-3-2.3z"/>
      <path fill="#f70037" d="m218.9 587.8 5.8 3.3 6.1-2.8-1.5 6.5 4.6 4.9-6.6.7-3.2 5.9-2.7-6.2-6.6-1.2 5-4.5z"/>
      <path fill="#0054c6" d="m147.6 439.6 1.8-5.7-3.7-4.7 6-.1 3.4-4.9 1.9 5.7 5.7 1.6-4.8 3.6.3 6-4.9-3.5z"/>
      <path fill="#0054c6" d="m220.8 385.6 1.5 7.5 7 3.2-6.8 3.7-.8 7.6-5.6-5.3-7.5 1.6 3.3-6.9-3.9-6.7 7.7 1z"/>
      <path fill="#0054c6" d="M216.3 494.6h3.6l2.2-3 1.1 3.5 3.5 1.1-3 2.1v3.7l-2.9-2.2-3.5 1.2 1.2-3.5z"/>
    </g>
    <g id="f5-4">
      <path fill="#0054c6" d="m259.8 605.2-2.6 5.2 2.7 5.2-5.7-1-4.1 4.3-.9-5.8-5.3-2.6 5.3-2.6.7-5.8 4.2 4.2z"/>
      <path fill="#0054c6" d="m319.1 515.5 1.7 6 5.9 2-5.2 3.5v6.2l-4.9-3.8-6 1.9 2.1-5.9-3.6-5.1 6.2.2z"/>
      <path fill="#f70037" d="m272.9 358.4 2.1-1 .4-2.4 1.6 1.7 2.4-.3-1.1 2 1 2.2-2.3-.5-1.7 1.7-.3-2.4z"/>
      <path fill="#f70037" d="m87.7 367.5 2.3.5 1.7-1.7.3 2.4 2.1 1.1-2.2 1-.4 2.3-1.6-1.7-2.4.3 1.2-2.1z"/>
      <path fill="#3ec2f9" d="m42.4 568 .4-3.8-3-2.5 3.8-.8 1.4-3.6 2 3.3 3.8.3-2.6 2.9.9 3.7-3.5-1.5z"/>
      <path fill="#f70037" d="m338.7 444.9-.4-2.9-2.6-1.3 2.6-1.3.5-2.9 2 2.1 2.9-.5-1.4 2.6 1.4 2.6-2.9-.5z"/>
      <path fill="#3ec2f9" d="m190.5 366.9 2.1-4.8-2.8-4.5 5.3.5 3.3-4 1.2 5.1 4.8 2-4.5 2.7-.4 5.2-3.9-3.5z"/>
      <path fill="#3ec2f9" d="m45.7 476.4 4.3-3.9-.8-5.7 5 2.8 5.2-2.5-1.2 5.6 4.1 4.2-5.8.7-2.7 5.1-2.4-5.3z"/>
      <path fill="#0054c6" d="m134.3 625.8-.5-3.7-3.4-1.6 3.3-1.6.5-3.8 2.7 2.7 3.6-.7-1.7 3.4 1.8 3.3-3.7-.7z"/>
      <path fill="#3ec2f9" d="m319.9 467.1-1-4.9-4.7-1.9 4.4-2.6.4-5 3.7 3.4 4.9-1.2-2 4.6 2.6 4.3-5-.5z"/>
      <path fill="#f70037" d="m138.3 377 5.5 5.8 7.9-1.2-3.8 7 3.6 7.2-7.9-1.5-5.7 5.6-1-7.9-7.1-3.7 7.3-3.4z"/>
      <path fill="#3ec2f9" d="m223.7 406.8 6 3.6 6.2-3-1.4 6.8 4.7 5-6.9.7-3.4 6.1-2.7-6.4-6.8-1.3 5.2-4.6z"/>
      <path fill="#3ec2f9" d="m164.6 532.4 1.5 5.7 5.6 2-5 3.3-.2 5.9-4.6-3.8-5.7 1.7 2.2-5.6-3.4-4.9 6 .4z"/>
      <path fill="#3ec2f9" d="m252.4 511.1-4.4 3.6.5 5.7-4.8-3.1-5.2 2.2 1.4-5.5-3.7-4.3 5.7-.3 3-4.9 2 5.3z"/>
      <path fill="#0054c6" d="m165.7 489.3.9-2.4-1.4-2 2.5.1 1.5-2 .6 2.4 2.4.9-2.1 1.3v2.5l-2-1.5z"/>
    </g>
    <g id="f5-5">
      <path fill="#0054c6" d="m96.2 537.4.7 3.3 3.1 1.2-2.9 1.8-.2 3.3-2.5-2.2-3.3.8 1.3-3.1-1.8-2.9 3.4.4z"/>
      <path fill="#0054c6" d="m240.3 381.1.2-4.5-3.7-2.7 4.4-1.3 1.4-4.2 2.5 3.7h4.5l-2.7 3.6 1.3 4.3-4.2-1.6z"/>
      <path fill="#0054c6" d="m331.1 492.6-2.5 5.5 3.1 5.1-5.9-.7-4 4.5-1.2-5.9-5.5-2.3 5.3-3 .5-5.9 4.4 4z"/>
      <path fill="#f70037" d="m170.9 612.9 2.8-6.2-3.5-5.8 6.7.7 4.5-5.1 1.4 6.6 6.2 2.7-5.9 3.3-.6 6.8-5-4.6z"/>
      <path fill="#f70037" d="m291.4 534.8-1.9 4.9 3 4.3-5.3-.2-3.2 4.2-1.4-5.1-4.9-1.8 4.4-2.9.1-5.2 4.1 3.3z"/>
      <path fill="#f70037" d="m270.3 424.6 4.8 1.7 4.2-2.9-.2 5.1 4.2 3.1-5 1.4-1.7 4.9-2.8-4.3-5.2-.1 3.2-4z"/>
      <path fill="#3ec2f9" d="m122.9 452.7 1.6 4.8 4.9 1.4-4.1 3 .1 5.2-4.1-3-4.8 1.7 1.5-4.9-3.1-4h5.1z"/>
      <path fill="#f70037" d="m232.8 451.7 3.5-3.8-1.2-5.1 4.7 2.2 4.4-2.7-.5 5.1 3.9 3.4-5.1 1.1-2 4.7-2.6-4.5z"/>
      <path fill="#0054c6" d="m175.4 349.8-.4 4 3 2.6-3.9.8-1.6 3.7-1.9-3.5-4-.3 2.7-3-.9-3.9 3.6 1.7z"/>
    </g>
    <g id="f5-6">
      <path fill="#0054c6" d="m191.1 576.8 7.5-2.3 2.4-7.5 4.5 6.5 7.8-.1-4.7 6.2 2.5 7.5-7.4-2.6-6.3 4.7.1-7.8z"/>
      <path fill="#0054c6" d="m290.9 556.8-1.5 5.3 3.4 4.3-5.5.1-3 4.6-1.9-5.2-5.3-1.4 4.4-3.4-.2-5.5 4.5 3.2z"/>
      <path fill="#0054c6" d="m21.8 520.2 2.8 1.9 3.2-1.2-1 3.2 2.1 2.6-3.3.1-1.9 2.9-1.1-3.2-3.2-.9 2.6-2z"/>
      <path fill="#f70037" d="m305.3 381.6-.3 2.5 2 1.6-2.5.6-1 2.3-1.2-2.1-2.6-.2 1.7-1.9-.6-2.5 2.3 1z"/>
      <path fill="#f70037" d="m112.1 351.1.5 2.9 2.7 1.2-2.5 1.4-.3 2.9-2.2-2-2.9.6 1.3-2.6-1.5-2.6 2.9.4z"/>
      <path fill="#0054c6" d="m40.3 477.2-2.7 2 .2 3.3-2.7-1.9-3.1 1.2.9-3.2-2-2.6h3.3l1.8-2.8 1.1 3.1z"/>
      <path fill="#f70037" d="m77.6 595.6 3.7.6 2.5-2.7.7 3.7 3.3 1.5-3.3 1.8-.4 3.7-2.7-2.6-3.7.7 1.7-3.4z"/>
      <path fill="#3ec2f9" d="m192.2 650.2.2-2.4-1.8-1.6 2.3-.5.9-2.2 1.2 2 2.4.2-1.6 1.8.6 2.3-2.2-.9z"/>
      <path fill="#f70037" d="m284.1 605 4 .3 2.5-3.1.9 3.9 3.8 1.5-3.4 2-.3 4.1-3-2.7-3.9 1.1 1.6-3.7z"/>
      <path fill="#3ec2f9" d="m343.1 525.7.5-2.7-1.9-2 2.7-.3 1.3-2.5 1.2 2.5 2.7.5-2 1.9.4 2.7-2.4-1.3z"/>
      <path fill="#f70037" d="m100.5 431.3 1-4.9-3.4-3.6 5-.5 2.4-4.4 2 4.5 4.9 1-3.7 3.3.6 5-4.3-2.6z"/>
      <path fill="#0054c6" d="m105.8 505.1.7 7.1 6.4 3.4-6.6 3-1.3 7.1-4.8-5.3-7.2.9 3.6-6.2-3.1-6.5 7 1.4z"/>
      <path fill="#0054c6" d="m285.1 465.8-5.3 4.1.4 6.8-5.6-3.7-6.3 2.5 1.8-6.5-4.3-5.2 6.8-.3 3.5-5.7 2.4 6.3z"/>
      <path fill="#f70037" d="m178.8 493.7 6.1 4.8 7.3-2.3-2.6 7.2 4.4 6.3-7.7-.3-4.6 6.2-2.1-7.4-7.3-2.5 6.4-4.3z"/>
      <path fill="#0054c6" d="m217.8 465.7.4 5.2 4.5 2.7-4.9 1.9-1.1 5.1-3.3-4-5.2.6 2.7-4.5-2.1-4.7 5.1 1.2z"/>
      <path fill="#0054c6" d="m179.6 411.6 2.5-3.1-1.1-3.8 3.7 1.4 3.2-2.2-.2 4 3.1 2.4-3.8 1-1.3 3.7-2.2-3.3z"/>
      <path fill="#0054c6" d="m199.1 319.2-2.3 3 1.1 3.6-3.6-1.3-3.1 2.2.2-3.8-3.1-2.3 3.7-1 1.2-3.6 2.1 3.1z"/>
      <path fill="#0054c6" d="m86.3 401.5-2.1 2.4.9 3.2-3-1.3-2.8 1.8.3-3.3-2.5-2 3.1-.8 1.2-3 1.7 2.8z"/>
    </g>
    <g id="f5-7">
      <path fill="#0054c6" d="m76.4 482.9-.6 7.7 6 4.9-7.6 1.8-2.8 7.2-4-6.6-7.8-.4 5.1-5.9-2-7.5 7.1 3z"/>
      <path fill="#0054c6" d="m8.2 459.1.5 3 2.7 1.2-2.7 1.4-.3 2.9-2.1-2.1-3 .6 1.4-2.7-1.4-2.6 2.9.5z"/>
      <path fill="#f70037" d="M246.3 343.3v-2.4l-2-1.4 2.3-.7.7-2.3 1.4 2 2.3-.1-1.4 1.9.8 2.3-2.2-.8z"/>
      <path fill="#f70037" d="M152 342.5v-3.9l-3.1-2.2 3.7-1.2 1.1-3.7 2.3 3.1h3.9l-2.4 3.1 1.3 3.7-3.7-1.3z"/>
      <path fill="#3ec2f9" d="m50.8 414 2.9-.7 1-2.8 1.6 2.5 3 .1-1.9 2.3.8 2.9-2.8-1.1-2.4 1.7.1-3z"/>
      <path fill="#f70037" d="m53.1 576.2 3.8-1 1.3-3.7 2.2 3.3 3.9.1-2.5 3.1 1.1 3.8-3.6-1.4-3.3 2.2.2-4z"/>
      <path fill="#f70037" d="m157.1 647.3.6-3.8-2.8-2.5 3.7-.7 1.6-3.4 1.7 3.3 3.8.4-2.6 2.8.7 3.7-3.4-1.7z"/>
      <path fill="#3ec2f9" d="m235.5 637.5.3 3.2 2.9 1.5-2.9 1.3-.6 3.3-2.2-2.4-3.2.4 1.6-2.8-1.4-2.9 3.1.6z"/>
      <path fill="#f70037" d="m330.7 543 3.2.7 2.5-2.2.3 3.3 2.9 1.7-3.1 1.3-.6 3.2-2.2-2.5-3.4.4 1.8-2.9z"/>
      <path fill="#3ec2f9" d="m347.1 469.6 1.9 2.8 3.3.1-2.1 2.6.9 3.2-3.1-1.2-2.7 1.9.1-3.3-2.6-2.1 3.2-.8z"/>
      <path fill="#f70037" d="m306.1 395 2.2-2.6-.9-3.3 3.1 1.3 2.8-1.8-.2 3.3 2.6 2.2-3.3.8-1.2 3.1-1.8-2.9z"/>
      <path fill="#3ec2f9" d="m108.5 606.5.5-4.1-3-2.8 4.1-.7 1.8-3.8 1.9 3.7 4.1.5-2.9 3 .8 4-3.7-1.8z"/>
      <path fill="#0054c6" d="m282.2 586.6 1.2 5.5 5.2 2.2-4.9 2.8-.5 5.6-4.2-3.7-5.5 1.3 2.4-5.2-3-4.8 5.6.6z"/>
      <path fill="#3ec2f9" d="m116.5 547.2 5.3.2 3.2-4.2 1.4 5.1 5 1.7-4.4 2.9-.1 5.3-4.2-3.3-5 1.6 1.8-5z"/>
      <path fill="#3ec2f9" d="m238.3 573.7-.2 6.7 5.4 3.8-6.3 2-2 6.3-3.8-5.5-6.7.1 4-5.3-2-6.3 6.2 2.2z"/>
      <path fill="#3ec2f9" d="m202.4 423-1 5.9 4.3 4.2-5.9.9-2.7 5.4-2.7-5.4-5.9-.8 4.3-4.2-1-5.9 5.3 2.7z"/>
      <path fill="#0054c6" d="m88.5 406.8 5.3 4.5 6.7-1.7-2.7 6.3 3.7 5.9-6.9-.6-4.4 5.4-1.6-6.8-6.4-2.5 5.9-3.6z"/>
      <path fill="#0054c6" d="m269.3 508.1-1.6 2.4 1.1 2.7-2.8-.8-2.2 1.8-.1-2.8-2.5-1.6 2.7-.9.7-2.8 1.8 2.2z"/>
      <path fill="#0054c6" d="m77.8 352.8 3.4 1.4 3.2-2-.3 3.8 2.9 2.4-3.7.8-1.3 3.5-2-3.2-3.7-.2 2.4-2.9z"/>
    </g>
    <g id="f5-8">
      <path fill="#0054c6" d="m107.3 562.5.7 5.1 4.7 2.4-4.7 2.3-.8 5.2-3.6-3.8-5.2.8 2.5-4.6-2.4-4.6 5.1.9z"/>
      <path fill="#0054c6" d="m36.7 573 1.7-2.1-.7-2.5 2.4.9 2.2-1.4-.1 2.6 2 1.6-2.5.7-.9 2.5-1.4-2.3z"/>
      <path fill="#0054c6" d="m83.7 622.4 1.9 2.5 3.2-.2-1.8 2.6 1.2 2.9-3-.8-2.4 2-.2-3.1-2.7-1.7 3-1.1z"/>
      <path fill="#0054c6" d="m150 317.5 2.2 1.8 2.7-.7-1 2.6 1.5 2.4-2.8-.2-1.8 2.2-.7-2.8-2.6-1 2.4-1.5z"/>
      <path fill="#3ec2f9" d="m70.1 380 1.2 3.1 3.2.8-2.6 2.1.3 3.4-2.8-1.8-3.1 1.2.8-3.2L65 383l3.3-.1z"/>
      <path fill="#0054c6" d="m28.8 456.1 3.5.2 2.2-2.9 1 3.5 3.4 1.2-3 2-.1 3.5-2.8-2.2-3.5 1 1.3-3.3z"/>
      <path fill="#0054c6" d="m327.4 415.1.1 3.9 3.3 2.2-3.7 1.3-1 3.8-2.4-3.2-3.9.3 2.2-3.3-1.4-3.7 3.8 1.2z"/>
      <path fill="#0054c6" d="m120.3 365.3 4.5-3.1v-5.4l4.3 3.4 5.2-1.7-1.9 5.1 3.2 4.4-5.4-.2-3.2 4.4-1.5-5.2z"/>
      <path fill="#0054c6" d="m67.1 431.1-.4-3.6-3.2-1.7 3.3-1.5.6-3.5 2.5 2.6 3.5-.5-1.7 3.2 1.5 3.2-3.5-.7z"/>
      <path fill="#0054c6" d="m54.2 535.7-.6-4.9-4.3-2.3 4.5-2.1.9-4.9 3.3 3.7 4.9-.7-2.5 4.3 2.2 4.5-4.8-1z"/>
      <path fill="#0054c6" d="m161.9 627 5.2-2.4 1-5.5 3.8 4.2 5.6-.8-2.8 5 2.4 5.1-5.5-1.2-4.1 3.9-.6-5.7z"/>
      <path fill="#f70037" d="m276.9 581.2-4.3 4.8 1.5 6.3-5.9-2.6-5.5 3.4.7-6.5-5-4.2 6.4-1.3 2.4-6 3.3 5.6z"/>
      <path fill="#f70037" d="m163.3 375.4 7-2.2 2.1-7.1 4.4 6 7.4-.2-4.4 6 2.5 6.9-7-2.2-5.9 4.5v-7.5z"/>
      <path fill="#0054c6" d="m94.3 469.4-.9-7.6-6.8-3.6 7-3.2 1.3-7.6 5.2 5.6 7.6-1.1-3.7 6.7 3.4 6.9-7.6-1.4z"/>
      <path fill="#0054c6" d="m268.7 429.1-3.9 5 1.9 6-5.9-2.1-5.2 3.6.3-6.3-5.1-3.7 6.1-1.8 2-6 3.5 5.3z"/>
      <path fill="#f70037" d="m126.4 498.5 7.8 1.2 5.4-5.7 1.3 7.8 7.1 3.3-7 3.6-1 7.8-5.6-5.5-7.7 1.4 3.5-7z"/>
      <path fill="#f70037" d="m239.9 490.6-.6-6.7-5.9-3.3 6.2-2.7 1.3-6.6 4.5 5.1 6.7-.8-3.5 5.8 2.9 6.1-6.6-1.5z"/>
      <path fill="#0054c6" d="m221.9 541.1 5.8 2.5 5.4-3.3-.7 6.3 4.9 4.1-6.2 1.3-2.4 5.9-3.2-5.5-6.4-.5 4.3-4.7z"/>
      <path fill="#0054c6" d="m238.7 350.3 2.6 1.6 2.7-1.2-.7 2.9 2 2.3-3 .2-1.5 2.6-1.2-2.8-2.9-.7 2.3-1.9z"/>
      <path fill="#0054c6" d="m356.7 504.6 2.6-.1 1.3-2.1.9 2.4 2.5.6-2.1 1.6.2 2.6-2.2-1.5-2.3.9.7-2.4z"/>
    </g>
    <g id="f5-9">
      <path fill="#0054c6" d="m125.8 634.7 2.6-1.1.6-2.7 1.8 2.1 2.7-.3-1.4 2.3 1.2 2.6-2.8-.7-2 1.9-.2-2.8z"/>
      <path fill="#f70037" d="m263.2 627.9 1.9 1.7 2.4-.6-1 2.3 1.3 2.1-2.5-.2-1.6 1.9-.5-2.5-2.3-.9 2.1-1.3z"/>
      <path fill="#f70037" d="m168.7 458.1-4.9 3.8.4 6.2-5.1-3.5-5.8 2.3 1.7-5.9-3.9-4.8 6.2-.2 3.3-5.2 2.1 5.8z"/>
      <path fill="#f70037" d="m199.6 441.9 2.7.6 2-1.9.3 2.7 2.4 1.3-2.5 1.1-.6 2.7-1.8-2-2.7.3 1.4-2.3z"/>
      <path fill="#0054c6" d="m264.7 400.4-3.1 2.6.4 4-3.4-2.1-3.7 1.7 1-4-2.7-2.9 4-.4 2-3.4 1.5 3.7z"/>
      <path fill="#0054c6" d="m300 505.4 1.9-3.3-1.6-3.5 3.8.9 2.8-2.7.4 3.9 3.4 1.9-3.6 1.5-.7 3.8-2.6-2.9z"/>
      <path fill="#0054c6" d="m209.5 362.4-.3 2.5 1.8 1.7-2.4.4-1 2.3-1.2-2.2-2.5-.2 1.7-1.8-.5-2.5 2.2 1.1z"/>
      <path fill="#0054c6" d="m157.4 513.4-1.7 1.9.6 2.5-2.4-1.1-2.2 1.4.2-2.6-1.9-1.7 2.5-.5 1-2.4 1.3 2.2z"/>
    </g>
  </g>
  <g id="fireworks6">
    <g id="f6-1">
      <path fill="#3ec2f9" d="m248.6 322 35.3 105.3a5 5 0 1 1-9.7 2.8s-25.6-108-25.6-108"/>
      <path fill="#3ec2f9" d="M158.1 300.8 85.7 383a5 5 0 1 1-7.3-7z"/>
      <path fill="#f70037" d="m226.5 231.2 106-81.7a4 4 0 0 1 4.7 6.2l-.2.1z"/>
      <path fill="#f70037" d="m226.9 235 123.7 51a4 4 0 0 1-3 7.3l-.2-.1z"/>
      <path fill="#f70037" d="m221.7 237-51 123.8a4 4 0 1 1-7.2-3v-.2z"/>
      <path fill="#f70037" d="M219.4 233.9 86.8 251.7a4 4 0 1 1-1-7.8h.1z"/>
      <path fill="#f70037" d="m221 230.3-81.7-106a4 4 0 0 1 .7-5.5 4 4 0 0 1 5.5.7l.1.2z"/>
      <path fill="#f70037" d="m414.1 331 2.8 5 5.8.5-3.9 4.3 1.3 5.7-5.3-2.4-5 3 .6-5.8-4.3-3.8 5.7-1.2z"/>
      <path fill="#f70037" d="m221.6 416.5-1.3 7.9 5.7 5.5-7.9 1.2-3.5 7.1-3.6-7.1-7.8-1.2 5.6-5.5-1.3-7.9 7.1 3.7z"/>
      <path fill="#f70037" d="m47.7 139 7.5.7 4.9-5.7 1.6 7.3 7 2.9-6.5 3.8-.6 7.6-5.6-5.1-7.4 1.8 3.1-6.9z"/>
      <path fill="#f70037" d="m191.1 10.1 6 1.3 4.5-4.1.6 6.1 5.4 3-5.6 2.4-1.2 6.1-4.1-4.6-6.1.7 3.1-5.3z"/>
      <path fill="#f70037" d="m414.2 126.3-6.4 2-1.9 6.5-3.9-5.5-6.7.2 3.9-5.4-2.2-6.3 6.4 2.1 5.3-4.1v6.7z"/>
    </g>
    <g id="f6-2">
      <path fill="#3ec2f9" d="M222.2 229.7q-5.4-11.7-9.3-23.9t-8.5-23.9a4 4 0 1 1 7.5-2.4c2 8.6 3.3 17 4.8 25.4q2 12.6 5.5 24.8Z"/>
      <path fill="#0054c6" d="M235.3 241.7c13.5 7.6 27.4 14.6 40.8 22.8a4 4 0 1 1-4.6 6.3c-11.6-10-24.1-19.4-36.3-29.1Z"/>
      <path fill="#0054c6" d="M222.6 243.6c.3 24.6-1.1 49.3-1.3 73.7a4 4 0 1 1-7.9-.5c2.9-24.5 6.9-48.7 9.2-73.2"/>
      <path fill="#0054c6" d="M145.4 180.9q-16-9.9-32.5-18.9t-32.5-19.6a4.5 4.5 0 1 1 5.5-7.1 413 413 0 0 0 29.4 23q15.4 10.8 30.2 22.6"/>
      <path fill="#f70037" d="m292.6 178.8 2.8 7 7.3 1.7-5.8 4.8.6 7.5-6.4-4-6.9 2.9 1.9-7.3-4.9-5.7 7.5-.5z"/>
      <path fill="#f70037" d="m259.3 116.4-.5 5.3 4 3.4-5.2 1.1-2 4.8-2.6-4.5-5.3-.5 3.6-3.9-1.3-5.1 4.8 2.2z"/>
    </g>
    <g id="f6-3">
      <path fill="#3ec2f9" d="M226 236.2q50 45.2 99.6 90.8a4 4 0 1 1-5.4 5.7l-.1-.1q-46.9-48.4-94-96.4"/>
      <path fill="#3ec2f9" d="m222.3 237.3-21.7 102.9a4 4 0 0 1-7.7-1.7l.1-.2z"/>
      <path fill="#3ec2f9" d="m224.2 229.7 17.5-86.2a4 4 0 1 1 7.7 2z"/>
      <path fill="#0054c6" d="m235.8 234.4 59.2.2a4 4 0 1 1-.6 7.8z"/>
      <path fill="#0054c6" d="m268.6 326.8 32.7 56.7a4.5 4.5 0 1 1-8 4z"/>
      <path fill="#0054c6" d="m209.4 240.2-59.2 33.4a4 4 0 1 1-3.5-7.1q31.4-13 62.7-26.3Z"/>
      <path fill="#0054c6" d="M220 231.3c-22.1-14.4-45-27.3-67.7-41a4 4 0 0 1-1.3-5.4 4 4 0 0 1 5.4-1.4l.3.3c21 15.8 42.7 31 63.3 47.5Z"/>
      <path fill="#0054c6" d="m230.2 135.9.5-71.4a4.5 4.5 0 1 1 9 .7z"/>
      <path fill="#0054c6" d="M273.3 159.4q19.9-34.6 41-68.6a4.5 4.5 0 1 1 7.3 5.2q-24.6 31.2-48.3 63.3Z"/>
      <path fill="#f70037" d="m227.2 233 132.6-17.7a4 4 0 1 1 1 7.8h-.2z"/>
      <path fill="#f70037" d="m347.6 121.6-5.2 2.9-.5 5.9-4.4-4-5.8 1.3 2.5-5.4-3-5.1 5.9.7 3.9-4.4 1.1 5.8z"/>
      <path fill="#f70037" d="m130.6 82.7 5.1 3.5 5.9-2.2-1.8 6 4 4.8-6.3.2-3.4 5.3-2.1-5.9-6.1-1.7 5-3.8z"/>
      <path fill="#f70037" d="m231.6 127-2 5.4 3.3 4.7-5.8-.3-3.4 4.6-1.5-5.5-5.4-1.9 4.7-3.2.1-5.7 4.5 3.6z"/>
    </g>
    <g id="f6-4">
      <path fill="#3ec2f9" d="m322.5 258.3 99 19.6a5 5 0 1 1-2 9.9l-.5-.1z"/>
      <path fill="#3ec2f9" d="M148.3 161a9958 9958 0 0 0-74.5-65 5 5 0 1 1 7-7.4q33.9 36 67.5 72.4"/>
      <path fill="#0054c6" d="M330.6 181.2c14.5-8.1 28-17.7 42.9-25.8a4.5 4.5 0 1 1 3.6 8.2c-15.5 5.1-30.8 12.2-46.5 17.6"/>
      <path fill="#0054c6" d="M232.4 229c28.6-15 56.8-30.8 85.5-46a4 4 0 1 1 3.4 7.2c-29.7 12.7-59.2 26.1-88.9 38.9"/>
      <path fill="#0054c6" d="M164.1 320.6a4768 4768 0 0 0-31.8 55.4 4.5 4.5 0 1 1-7.4-5q19.5-25.3 39.2-50.4"/>
      <path fill="#0054c6" d="M184.6 154.4q-19.4-35.7-39.3-71a4.5 4.5 0 1 1 8-4q16 37.5 31.3 75"/>
      <path fill="#f70037" d="m225.6 236.7 81.7 106a4 4 0 0 1-.7 5.4 4 4 0 0 1-5.5-.7l-.2-.2z"/>
      <path fill="#f70037" d="m220.1 235.8-106 81.7a4 4 0 1 1-4.6-6.4z"/>
      <path fill="#f70037" d="m224.9 229.9 50.9-123.7a4 4 0 0 1 7.3 3l-.1.2z"/>
      <path fill="#f70037" d="m251 26.4-1.6 7.5 5.3 5.5-7.6.8-3.6 6.7-3.1-6.9-7.5-1.4 5.6-5.1-1-7.6 6.6 3.8z"/>
      <path fill="#f70037" d="m319.5 400.1-4.8 1.6-1.3 4.9-3.1-4-5.1.2 2.9-4.2-1.7-4.7 4.8 1.4 4-3.1.1 5.1z"/>
      <path fill="#f70037" d="m136.6 418.4 4.8 2.9 5.2-2.4-1.2 5.5 3.9 4.1-5.7.6-2.7 4.9-2.3-5.2-5.5-1 4.2-3.8z"/>
      <path fill="#f70037" d="m38.5 208.6 5.2 1.3 4-3.6.4 5.3 4.6 2.7-5 2.1-1.1 5.2-3.5-4.1-5.3.5 2.8-4.5z"/>
      <path fill="#f70037" d="m340.5 278.5-5.7-1.7-4.7 3.8-.1-6.1-5.1-3.2 5.7-2 1.6-5.8 3.6 4.7 6-.3-3.4 5z"/>
      <path fill="#f70037" d="m356.5 181.4-2.9 8.2 5.1 6.9-8.6-.2-5 7-2.5-8.2-8.2-2.7 7.1-4.9-.1-8.6 6.9 5.2z"/>
      <path fill="#f70037" d="m166.3 146 2.3 6.6 6.8 2-5.7 4.2.3 7-5.8-4.1-6.6 2.5 2.1-6.8-4.3-5.5 7-.1z"/>
    </g>
    <g id="f6-5">
      <path fill="#3ec2f9" d="m227 234.4 85.1 17.3a4 4 0 1 1-1.9 7.6z"/>
      <path fill="#3ec2f9" d="m220.5 236.3-51.5 59a4 4 0 1 1-5.9-5.3l.3-.2z"/>
      <path fill="#3ec2f9" d="M219.5 234.6c-33.6 11.7-67.9 21.5-101.4 33a4 4 0 1 1-2.3-7.5c34.6-9.1 69.4-16.3 103.7-25.5"/>
      <path fill="#3ec2f9" d="m248.5 132.7 19.2-97.4a5 5 0 1 1 9.9 2l-.1.4z"/>
      <path fill="#0054c6" d="M217.5 221.6a2787 2787 0 0 1-31.8-55.8 4 4 0 1 1 7-3.4 2779 2779 0 0 0 24.8 59.2"/>
      <path fill="#0054c6" d="M230 223.5q17.3-28.1 33.7-56.7a4 4 0 1 1 6.5 4.3 2294 2294 0 0 1-40.2 52.4Z"/>
      <path fill="#f70037" d="M223.7 237.4 241.5 370a4 4 0 1 1-7.8.8z"/>
      <path fill="#f70037" d="M219.7 231.9 96 180.9a4 4 0 1 1 3.2-7.2z"/>
      <path fill="#f70037" d="m330.4 53.9 1.9 7.6 7.3 2.7-6.6 4.1-.4 7.8-5.9-5-7.6 2.1 3-7.2-4.3-6.5 7.8.5z"/>
      <path fill="#f70037" d="m240.3 154.7.5 7.3 6.3 3.8-6.9 2.7-1.6 7.2-4.7-5.6-7.3.6 3.9-6.2-2.9-6.8 7.1 1.8z"/>
      <path fill="#f70037" d="m286.2 245.4-3.2 6.2 3.2 6.1-6.8-1.2-4.8 5-1-6.9-6.2-3 6.2-3.1 1-6.9 4.8 5z"/>
      <path fill="#f70037" d="m86.4 211.7 5.7 4.1 6.6-2.3-2.2 6.6 4.3 5.6h-7l-4 5.7-2.2-6.6-6.7-2 5.7-4.1z"/>
    </g>
    <g id="f6-6">
      <path fill="#3ec2f9" d="m227 232.4 100-32.6a4 4 0 1 1 2.2 7.5z"/>
      <path fill="#3ec2f9" d="M219.5 232.5 152.6 220a4 4 0 1 1 2-7.7z"/>
      <path fill="#0054c6" d="M230.3 248q18 33 36.4 66a4 4 0 0 1-1.5 5.3 4 4 0 0 1-5.6-1.9q-14.8-34.6-29.3-69.5Z"/>
      <path fill="#0054c6" d="m211.7 250.7-37.4 61.9a4 4 0 0 1-6.7-4l.2-.4z"/>
      <path fill="#0054c6" d="m224.8 211.8.6-63.7a4 4 0 0 1 7.8 0v.6z"/>
      <path fill="#f70037" d="m189.8 277.8-4.5-2.8-4.8 2.2 1.2-5.1-3.5-4 5.3-.4 2.6-4.5 2 4.8 5.2 1.1-4 3.5z"/>
      <path fill="#f70037" d="m241.7 328-4.6-2.7-4.8 2.3 1.1-5.2-3.6-3.8 5.3-.6 2.5-4.6 2.1 4.8 5.2 1-3.9 3.5z"/>
    </g>
    <g id="f6-7">
      <path fill="#3ec2f9" d="m340 200.1 77.1-27.3a5 5 0 1 1 2.8 9.7z"/>
      <path fill="#3ec2f9" d="M220.5 230.8a8470 8470 0 0 0-66.7-59.1 4 4 0 1 1 5.4-5.7q30.8 32.2 61.2 64.8Z"/>
      <path fill="#3ec2f9" d="m320.9 132.6 40-48.6a5 5 0 1 1 7.2 7z"/>
      <path fill="#0054c6" d="M283.6 274.3q41 25.3 82.2 50.1a4.5 4.5 0 1 1-5 7.5q-38.7-28.6-77.2-57.6"/>
      <path fill="#0054c6" d="M216.7 327.7c0 25 0 49.8-.9 74.8a4.5 4.5 0 1 1-9-.3v-.5c3.9-24.5 6.9-49.3 9.9-74"/>
      <path fill="#0054c6" d="m138 275.1-64.8 36.4a4.5 4.5 0 1 1-3.9-8z"/>
      <path fill="#0054c6" d="m115.6 225.9-61.3.1a4.5 4.5 0 0 1 0-9h.6z"/>
      <path fill="#0054c6" d="m216.9 233-88.4-2.3a4 4 0 1 1 .6-7.8z"/>
      <path fill="#f70037" d="M222.9 229.6 205 97a4 4 0 1 1 7.8-.8z"/>
      <path fill="#f70037" d="m398.6 249.8-4.2 2.9v5.1l-4-3.1-4.9 1.7 1.7-4.9-3.1-4.1 5.2.1 3-4.2 1.4 4.9z"/>
      <path fill="#f70037" d="m87.5 320.4-2.7 4.3 2 4.7-5-1.2-3.8 3.4-.4-5.2-4.4-2.6 4.8-1.9 1.1-5 3.3 4z"/>
      <path fill="#f70037" d="m38.2 253 4.1 3 4.8-1.6-1.6 4.8 3.1 4.1h-5.1l-3 4.1-1.5-4.8-4.9-1.5 4.2-3z"/>
      <path fill="#f70037" d="m218.8 67.9-6.2-4.1-6.8 2.7 2-7.1-4.7-5.6 7.3-.3 4-6.3 2.5 7 7.2 1.8-5.8 4.6z"/>
      <path fill="#f70037" d="m299.3 304.9-.8 5.9 4.4 4.1-5.9 1-2.4 5.5-2.9-5.3-5.9-.6 4.1-4.4-1.2-5.8 5.4 2.6z"/>
    </g>
    <g id="f6-8">
      <path fill="#3ec2f9" d="M331.1 337.8q20.8 16.6 41.3 33.7a4.5 4.5 0 0 1-5.8 6.9l-.5-.5a3000 3000 0 0 0-35-40.1"/>
      <path fill="#3ec2f9" d="M224.4 237.3c8.6 24 16 48.6 24.8 72.5a4 4 0 1 1-7.5 2.3c-6.4-25-11.2-50-17.3-74.8"/>
      <path fill="#3ec2f9" d="M194.4 349c-5 27.6-10.8 55.1-15.5 82.6a5 5 0 1 1-9.8-2.3c8-27 17-53.4 25.2-80.2"/>
      <path fill="#3ec2f9" d="m105 267.3-75.7 26.3c-2.4.8-5-.4-5.8-2.8a4.5 4.5 0 0 1 3.3-5.8z"/>
      <path fill="#3ec2f9" d="M141.4 213 25.1 189a5 5 0 0 1 2-9.8h.4z"/>
      <path fill="#3ec2f9" d="M204.9 169 162.6 39.6a5 5 0 0 1 9.6-3.1l.1.3z"/>
      <path fill="#3ec2f9" d="m226 230.7 84-92.5a4 4 0 0 1 5.8 5.3l-.2.2z"/>
      <path fill="#0054c6" d="M305.6 239.3c28.9 1.1 57.7.6 86.7 1.6a4.5 4.5 0 1 1-.8 9c-28.4-4-57.3-6.5-85.9-10.6"/>
      <path fill="#f70037" d="m393.1 164.9-5.8-1-4.2 4.2-.8-5.9-5.3-2.7 5.4-2.6.9-5.8 4.1 4.3 5.9-1-2.9 5.3z"/>
      <path fill="#f70037" d="m345.2 328.6-3.8-4.2-5.5.7 2.8-4.8-2.4-5.1 5.5 1.2 4.1-3.9.6 5.6 4.9 2.7-5.1 2.3z"/>
      <path fill="#f70037" d="m156.6 316.2-4.6 7 3.2 7.8-8.1-2.2-6.5 5.5-.4-8.4-7.1-4.5 7.8-3 2-8.1 5.3 6.5z"/>
      <path fill="#f70037" d="m36.6 329.9 6.1.2 3.7-4.9 1.7 5.9 5.8 1.9-5.1 3.5v6.1l-4.9-3.8-5.8 1.9 2.1-5.8z"/>
      <path fill="#f70037" d="m113.2 29.6-3.6 4 1.2 5.1-4.8-2.1-4.6 2.7.6-5.3-4-3.4 5.2-1.1 2-4.9 2.7 4.6z"/>
      <path fill="#f70037" d="m308.5 20.1-6.3-2-5.1 4-.1-6.6-5.4-3.7 6.3-2 1.8-6.3 3.9 5.3 6.5-.2-3.8 5.3z"/>
      <path fill="#f70037" d="m434.9 222.5.1 7.5 6.3 4.2-7.1 2.4-2 7.3-4.6-6-7.5.3 4.3-6.2-2.6-7 7.2 2.2z"/>
      <path fill="#f70037" d="m159.8 196.3-5.8-.7-3.9 4.4-1-5.8-5.4-2.3 5.1-2.8.6-5.8 4.3 4 5.7-1.3-2.5 5.3z"/>
      <path fill="#f70037" d="m265.1 369.7 5.2 2.1 4.6-3-.4 5.5 4.3 3.5-5.4 1.3-2 5.2-2.9-4.7-5.5-.3 3.6-4.2z"/>
    </g>
  </g>
</svg>
