<svg xmlns="http://www.w3.org/2000/svg" width="418" height="240" viewBox="0 0 418 240">
  <g>
    <g id="Layer_1">
      <path fill="#164272" d="M207.3 69.13q-.51-2.14-1.08-4.26c-.38-1.67-.89-3.92-3.04-3.87-.79-.04-1.63.11-2.22.68a3026 3026 0 0 0-30.38 28.03 2851 2851 0 0 0-19.3-19.9c-2.19-1.46-4.68-2.48-7.03-3.69q-2.43-1.18-4.87-2.28c-1.99-1.34-5.35-1.26-5.47 1.74v4.46a269 269 0 0 0-11.61-4.6c-6.19-1.27-12.98.69-19.33.73-3.58.13-2.11 5.91-2.39 8.06-7.16-2.08-14.34-4.25-21.62-5.89-5.79.54-11.64 1.19-17.38 1.82-3.06.22-2.21 4.43-2.32 6.44-8.17-1.57-15.49-3.99-24.05-4.01C17.46 71.82-.66 83.51.02 99.84c.28 23.64 23.04 17.69 30.9 25.22-.1 2.62-11.27 4.77-14.67 3.53q-4.27-.78-8.56-1.45c-2.31-.46-6.3-1.59-6.46 1.97.69 22.53-4.99 17.63 17.93 21.84q10.61 1.87 21.19 3.95c13.3 3 32.45-2.18 37.08-14.86 10.44 2.06 20.04 6.71 30.73 7.44 10.8.09 20.98-5.16 25.75-13.78-.16 2.13 2.06 2.75 3.62 3.43q2.4 1.07 4.77 2.18 2.98 1.42 5.91 2.91c4.73 1.1 10.12-.48 15.05-.32 1.16-.06 2.08-1.2 2.08-2.6v-26.01c2.59 2.58 5.65 4.59 8.44 6.94q1 .82 1.96 1.67c3.15 2.92 6.06-4.36 8.33-6.04v16.21c0 1.62 1.56 2.54 2.41 3.74q1.15 1.37 2.25 2.8c.76.87 1.39 2.37 2.74 2.31 4.58-.09 9.2-.14 13.76-.17 1.19 0 2.16-1.17 2.16-2.6-.15-.86.22-68.13-.09-68.97h.01Zm-153.4 34.3c0-1.48 1.85-3.26 5.37-4.12v7.5c-2.53-.93-5.37-2.19-5.37-3.4ZM416.94 146.91q-6.1-12.25-12.19-24.44c7.29-3.26 11.25-9.91 11.25-19.01 0-15.71-11.24-27-29.33-29.46-8.76-.75-17.77-3.22-26.46-2.77q-5.06 1.2-10.09 2.5c.12-1.79-.03-4.25-2.33-4.44-14.71-1.55-29.65-2.9-44.41-3.95-4.88 1.41-9.49 3.88-14.16 5.9-.29-2.16 1.17-7.84-2.44-7.93-1.16-.23-2.2.45-3.2.96q-1.6.81-3.19 1.67a147 147 0 0 0-6.82 3.85c-6.92 6.67-13.56 13.83-20.37 20.77a3448 3448 0 0 0-31.1-28.83 3 3 0 0 0-3.96.06c-.7.65-.8 1.59-.8 2.47l-.08 1.56-.19 4.06v68.26c0 1.43.96 2.58 2.15 2.6 4.53.04 9.1.12 13.6.24 1.39.06 2-1.41 2.57-2.45q.85-1.48 1.74-2.91c.6-1.14 1.73-2.12 1.75-3.48v-17.83c2.78 2.6 4.7 7.02 8.15 8.53 1.51-.07 2.36-1.85 3.47-2.73 2.72-2.7 5.65-5.18 8.45-7.79v27.21c0 1.39.92 2.53 2.07 2.59 18.46.75 9.53 2.92 25.7-5.14.27 1.89-.94 6.91 2.02 7.1a920 920 0 0 1 37.96 4.08c3.01-.5 5.92-1.77 8.89-2.51-.15 1.53.19 3.78 1.91 3.96 4.69.64 9.47 1.41 14.19 2.08 3.94-.87 7.86-1.95 11.82-2.84.91 1.7 1 4.76 3.12 5.32 4.92.85 9.9 1.75 14.8 2.69 5.57-.82 11.12-2.23 16.69-3.21l11.89-2.18c2.65-.62 8.51-.32 6.92-4.57h.02Zm-81.36-54.67v2.19q-2.81-.28-5.62-.52 2.81-.85 5.62-1.66Zm-11.56 27.68q5.76-1.82 11.57-3.51v4.57q-5.8-.56-11.57-1.07Z"/>
      <path fill="#107dbc" d="M15.04 149.39c-4.52 0-8.63-.46-11.89-1.35a2.6 2.6 0 0 1-1.92-2.51v-16.46a2.62 2.62 0 0 1 3.52-2.44 38 38 0 0 0 14.75 2.32c1.59-.07 3.19-.28 4.95-.62 4.77-1 6.47-2.4 6.47-3.3 0-1.62-4.5-2.79-10.37-4.16C10.16 118.4.03 114.75.02 99.82c0-13.69 11.11-24.43 27.65-26.73q3.74-.51 7.55-.51c4.24 0 8.3.5 11.43 1.43a2.6 2.6 0 0 1 1.86 2.49v15.8a2.6 2.6 0 0 1-2.6 2.59q-.6 0-1.17-.28c-2.62-1.33-6.48-2.09-10.57-2.09q-2.22 0-4.39.3c-5.13.71-7.81 2.73-7.81 4.36s6.88 3.56 9.81 4.35c10.12 2.66 20.94 6.71 20.94 21.29s-10.29 23.38-28.24 25.91a68 68 0 0 1-9.44.67zM86.94 141.21c-17.06 0-27.68-10-27.68-26.12V72.73c0-1.33 1-2.44 2.32-2.58 5.65-.64 11.41-1.25 17.13-1.81l.26-.01c.64 0 1.27.24 1.75.67.55.49.85 1.19.85 1.92v40.49c0 3.81.81 8.86 7.84 8.86q.71 0 1.47-.07c6.43-.58 9.7-4.26 9.7-10.96V68.75a2.6 2.6 0 0 1 2.39-2.59c5.72-.46 11.53-.89 17.26-1.28h.17a2.6 2.6 0 0 1 2.6 2.6v42.36c0 17.49-12.13 29.43-31.66 31.17q-2.24.2-4.41.21ZM136.52 136.44c-.66 0-1.31-.26-1.79-.71a2.6 2.6 0 0 1-.81-1.88V65.59a2.6 2.6 0 0 1 2.45-2.59l.52-.02q.95.01 1.69.62a3394 3394 0 0 1 31.16 26.91 3327 3327 0 0 1 31.23-28.81 2.6 2.6 0 0 1 1.74-.68h.47a2.6 2.6 0 0 1 2.6 2.59v68.26a2.6 2.6 0 0 1-2.59 2.6c-5.45.02-10.99.08-16.48.17h-.04a2.6 2.6 0 0 1-2.59-2.6V103.5q-2.5 2.43-4.96 4.86-3.74 3.7-7.52 7.34a2.6 2.6 0 0 1-3.54.05q-3.8-3.45-7.56-6.94-2.46-2.27-4.95-4.56l-.12-.09v28.87a2.6 2.6 0 0 1-2.49 2.59c-5.4.23-10.88.49-16.27.79h-.14l.02.02ZM286.47 136.77c-5.44-.32-10.98-.62-16.46-.87a2.6 2.6 0 0 1-2.48-2.59V104.5l-.02.02q-2.5 2.28-4.96 4.55a822 822 0 0 1-7.55 6.89 2.6 2.6 0 0 1-3.54-.06q-3.78-3.66-7.52-7.38l-4.99-4.91-.05-.04v28.6a2.6 2.6 0 0 1-2.6 2.6h-.05c-5.39-.11-10.87-.2-16.29-.24a2.6 2.6 0 0 1-2.57-2.6V63.66a2.6 2.6 0 0 1 2.6-2.6h.39c.64 0 1.27.25 1.74.68 10.4 9.51 20.88 19.24 31.23 28.94a3052 3052 0 0 1 31.14-26.78 2.6 2.6 0 0 1 1.68-.62l.63.03a2.6 2.6 0 0 1 2.44 2.59v68.26c0 .72-.3 1.4-.81 1.89-.48.45-1.12.71-1.78.71h-.15ZM348.92 141.95l-.28-.01a1336 1336 0 0 0-45.45-4.08 2.6 2.6 0 0 1-2.41-2.59V67.95a2.58 2.58 0 0 1 2.59-2.6h.19c14.7 1.06 29.58 2.39 44.23 3.94a2.6 2.6 0 0 1 2.33 2.58v14.4a2.61 2.61 0 0 1-2.6 2.6l-.28-.01c-8.02-.85-16.12-1.64-24.15-2.34v6.75c6.91.6 13.87 1.27 20.76 1.98a2.6 2.6 0 0 1 2.34 2.58v13.66a2.6 2.6 0 0 1-2.59 2.6l-.27-.01c-6.7-.69-13.48-1.34-20.22-1.92v7.69c8.69.76 17.46 1.61 26.09 2.53a2.6 2.6 0 0 1 2.33 2.58v14.4a2.61 2.61 0 0 1-2.6 2.6v-.02ZM414.62 150.67l-.41-.03c-5.88-.93-11.84-1.83-17.72-2.69a2.6 2.6 0 0 1-2-1.49l-10.2-22.37-3.09-.41v19.2a2.6 2.6 0 0 1-2.61 2.61q-.17 0-.34-.02a1282 1282 0 0 0-16.66-2.06 2.6 2.6 0 0 1-2.3-2.58V73.5a2.6 2.6 0 0 1 2.9-2.59c8.12.95 16.35 2 24.48 3.1 18.09 2.47 29.32 13.76 29.33 29.46 0 9.1-3.97 15.74-11.25 19.01q6.1 12.19 12.19 24.44a2.6 2.6 0 0 1-2.34 3.76zm-33.42-45.89 6.32.85q.85.1 1.6.11 2.24 0 3.3-1.01 1.19-1.14 1.19-3.87c0-5.45-4.31-6.87-6.88-7.21l-5.53-.74z"/>
      <path fill="#f2f2f2" d="M15.04 147.84a45 45 0 0 1-11.48-1.3 1.05 1.05 0 0 1-.77-1.01v-16.46a1 1 0 0 1 .45-.85 1 1 0 0 1 .96-.13 39 39 0 0 0 15.38 2.41c1.65-.07 3.32-.29 5.17-.65 3.52-.73 7.73-2.17 7.73-4.84s-3.71-3.84-11.58-5.68C10.72 116.91 1.59 113.6 1.59 99.8c0-12.88 10.57-23 26.3-25.19q3.63-.5 7.34-.5c4.1 0 8 .48 10.99 1.36.44.13.75.54.75 1v15.8c0 .36-.19.7-.49.89a1 1 0 0 1-1.02.04c-2.84-1.44-6.95-2.25-11.28-2.25q-2.34 0-4.61.31c-5.48.75-9.16 3.13-9.16 5.91 0 2.45 3.69 3.89 10.96 5.86 10 2.62 19.79 6.32 19.78 19.78 0 13.08-9.8 21.95-26.89 24.36q-4.6.65-9.22.65zM86.94 139.65c-16.35 0-26.11-9.18-26.11-24.56V72.73c0-.52.4-.98.93-1.03 5.65-.64 11.4-1.25 17.11-1.8h.1q.4 0 .7.27.34.31.34.77v40.49c0 4.76 1.64 10.43 9.41 10.43q.77 0 1.62-.07c7.28-.65 11.13-4.98 11.13-12.52V68.78c0-.55.41-1 .96-1.04 5.71-.46 11.52-.89 17.24-1.27h.07a1.04 1.04 0 0 1 1.04 1.04v42.36c0 16.61-11.59 27.95-30.24 29.61q-2.19.2-4.26.2l-.02-.03ZM136.52 134.87a1 1 0 0 1-.71-.29q-.32-.31-.33-.75V65.57c0-.56.43-1.01.98-1.04l.43-.02q.38 0 .68.25a3102 3102 0 0 1 32.2 27.83 3181 3181 0 0 1 32.25-29.76q.3-.26.7-.27h.47q.43 0 .73.3.3.31.31.74v68.26c0 .58-.46 1.04-1.04 1.04-5.45.02-11.01.08-16.5.17h-.02a1 1 0 0 1-.73-.3q-.3-.31-.31-.74v-31.95l-2.59 2.24-5.02 4.92q-3.74 3.68-7.5 7.33-.32.3-.72.29c-.4-.01-.49-.09-.7-.27a702 702 0 0 1-7.54-6.92q-2.5-2.32-5.02-4.62l-2.67-2.1v32.08c0 .56-.44 1.02-1 1.04-5.4.23-10.89.49-16.29.79h-.06.01ZM286.56 135.21c-5.45-.32-11-.62-16.48-.87a1.04 1.04 0 0 1-.99-1.04v-32.06l-2.61 2.1c-1.64 1.49-3.31 3.04-4.98 4.57q-3.74 3.46-7.53 6.88-.3.26-.69.27c-.39.01-.52-.09-.72-.29q-3.77-3.67-7.51-7.36l-5.05-4.98-2.65-2.24v31.98q0 .44-.31.74c-.31.3-.45.3-.73.3h-.02c-5.39-.11-10.88-.2-16.3-.24-.57 0-1.03-.47-1.03-1.04V63.66q0-.44.31-.74c.31-.3.45-.3.73-.3h.38q.4 0 .7.28a3429 3429 0 0 1 32.25 29.9 3282 3282 0 0 1 32.19-27.7q.3-.25.67-.25l.54.03c.55.03.98.48.98 1.04v68.26q0 .45-.33.76-.31.29-.71.29h-.06l-.03-.02ZM348.82 140.39a1339 1339 0 0 0-45.5-4.08 1.04 1.04 0 0 1-.97-1.04V67.95q0-.45.33-.76.3-.27.71-.28h.07a1354 1354 0 0 1 44.17 3.93c.52.05.93.5.93 1.03v14.4a1 1 0 0 1-.34.77q-.3.26-.7.27h-.11a1345 1345 0 0 0-25.86-2.49v9.88c7.36.64 14.81 1.34 22.16 2.09.54.05.94.5.94 1.04v13.66a1 1 0 0 1-.34.77q-.3.26-.7.27h-.1c-7.27-.75-14.65-1.45-21.94-2.08v10.82c9.14.78 18.39 1.68 27.49 2.66.52.06.93.5.93 1.03v14.4a1 1 0 0 1-.34.77q-.3.26-.7.27h-.11ZM414.62 149.11l-.16-.01c-5.89-.94-11.86-1.83-17.75-2.69a1 1 0 0 1-.8-.6l-10.56-23.16-5.7-.76v20.98a1 1 0 0 1-.35.78q-.3.25-.69.26h-.13c-5.56-.72-11.17-1.42-16.68-2.06-.52-.06-.92-.5-.92-1.03V73.49q0-.47.35-.78.3-.26.69-.27h.12c8.11.95 16.33 2 24.44 3.1 17.26 2.36 27.97 13.05 27.97 27.91 0 9.03-4.2 15.44-11.85 18.19q6.48 12.95 12.95 25.96c.17.35.13.76-.09 1.08-.2.27-.51.42-.83.42Zm-34.99-42.96 7.67 1.03q.95.13 1.8.13 2.87 0 4.37-1.44 1.67-1.6 1.67-4.99c0-6.9-5.75-8.42-8.22-8.76l-7.3-.98z"/>
      <path fill="#b92126" d="M3.83 145.53v-16.46a40 40 0 0 0 15.81 2.47c1.86-.08 3.63-.34 5.31-.67 5.5-1.14 8.57-3.05 8.57-5.86 0-3.55-4.19-4.79-12.38-6.69-11.26-2.68-18.51-6.18-18.51-18.53s10.13-22.04 25.4-24.16c6.71-.93 13.42-.48 17.9.82v15.8c-4.01-2.03-10.35-2.89-16.5-2.05s-10.06 3.57-10.06 6.94c0 3.18 3.91 4.74 11.73 6.85 11.27 2.95 19.02 6.81 19.02 18.78s-9.34 20.99-26 23.33c-7.64 1.08-15.26.74-20.28-.62l-.03.02ZM120.41 109.85c0 15.82-10.78 26.92-29.29 28.57-18.42 1.67-29.25-7.5-29.25-23.32V72.74q8.53-.96 17.1-1.8v40.49c0 7.96 4.21 12.1 12.16 11.38s12.07-5.6 12.07-13.56V68.76q8.61-.7 17.22-1.27zM157.22 102.29q-2.2-1.74-4.41-3.47v34.22q-8.15.34-16.3.79V65.57l.37-.02A3072 3072 0 0 1 169.78 94a3148 3148 0 0 1 32.92-30.39h.47v68.26q-8.25.03-16.51.17V97.82l-4.31 3.73c-4.22 4.11-8.35 8.22-12.57 12.28-4.22-3.8-8.35-7.68-12.57-11.54ZM240.7 101.67l-4.41-3.75v34.22q-8.15-.17-16.32-.24V63.65h.37a3387 3387 0 0 1 32.92 30.54q16.45-14.35 32.89-28.3l.46.03v68.26q-8.24-.5-16.49-.87V99.09l-4.31 3.45c-4.22 3.84-8.35 7.7-12.57 11.49-4.22-4.07-8.35-8.21-12.57-12.34h.02ZM303.39 135.27V67.95a1332 1332 0 0 1 44.14 3.93v14.4q-13.5-1.43-27.02-2.58v11.97q11.55.99 23.1 2.17v13.65q-11.53-1.18-23.1-2.17v12.91q14.22 1.21 28.42 2.74v14.4a1336 1336 0 0 0-45.54-4.09ZM386.32 76.58c16.03 2.18 27.08 11.74 27.08 26.88 0 9.73-4.93 15.39-12.28 17.58q6.76 13.49 13.48 27.03-8.88-1.4-17.76-2.69l-10.8-23.67q-3.72-.51-7.45-.99v22.16q-8.35-1.08-16.69-2.07V73.49q12.22 1.44 24.42 3.1Zm-7.73 13.37v17.12q4.29.56 8.57 1.14c5.13.7 9.04-1.16 9.04-7.34s-4-9.09-9.13-9.79q-4.24-.58-8.48-1.13"/>
      <g>
        <path d="M3.83 145.53v-16.46a40 40 0 0 0 15.81 2.47c1.86-.08 3.63-.34 5.31-.67 5.5-1.14 8.57-3.05 8.57-5.86 0-3.55-4.19-4.79-12.38-6.69-11.26-2.68-18.51-6.18-18.51-18.53s10.13-22.04 25.4-24.16c6.71-.93 13.42-.48 17.9.82v15.8c-4.01-2.03-10.35-2.89-16.5-2.05s-10.06 3.57-10.06 6.94c0 3.18 3.91 4.74 11.73 6.85 11.27 2.95 19.02 6.81 19.02 18.78s-9.34 20.99-26 23.33c-7.64 1.08-15.26.74-20.28-.62l-.03.02ZM120.41 109.85c0 15.82-10.78 26.92-29.29 28.57-18.42 1.67-29.25-7.5-29.25-23.32V72.74q8.53-.96 17.1-1.8v40.49c0 7.96 4.21 12.1 12.16 11.38s12.07-5.6 12.07-13.56V68.76q8.61-.7 17.22-1.27zM157.22 102.29q-2.2-1.74-4.41-3.47v34.22q-8.15.34-16.3.79V65.57l.37-.02A3072 3072 0 0 1 169.78 94a3148 3148 0 0 1 32.92-30.39h.47v68.26q-8.25.03-16.51.17V97.82l-4.31 3.73c-4.22 4.11-8.35 8.22-12.57 12.28-4.22-3.8-8.35-7.68-12.57-11.54ZM240.7 101.67l-4.41-3.75v34.22q-8.15-.17-16.32-.24V63.65h.37a3387 3387 0 0 1 32.92 30.54q16.45-14.35 32.89-28.3l.46.03v68.26q-8.24-.5-16.49-.87V99.09l-4.31 3.45c-4.22 3.84-8.35 7.7-12.57 11.49-4.22-4.07-8.35-8.21-12.57-12.34h.02ZM303.39 135.27V67.95a1332 1332 0 0 1 44.14 3.93v14.4q-13.5-1.43-27.02-2.58v11.97q11.55.99 23.1 2.17v13.65q-11.53-1.18-23.1-2.17v12.91q14.22 1.21 28.42 2.74v14.4a1336 1336 0 0 0-45.54-4.09ZM386.32 76.58c16.03 2.18 27.08 11.74 27.08 26.88 0 9.73-4.93 15.39-12.28 17.58q6.76 13.49 13.48 27.03-8.88-1.4-17.76-2.69l-10.8-23.67q-3.72-.51-7.45-.99v22.16q-8.35-1.08-16.69-2.07V73.49q12.22 1.44 24.42 3.1Zm-7.73 13.37v17.12q4.29.56 8.57 1.14c5.13.7 9.04-1.16 9.04-7.34s-4-9.09-9.13-9.79q-4.24-.58-8.48-1.13"/>
      </g>
      <path fill="#ef4356" d="M16.07 146.28c-3.79 0-7.36-.36-10.17-1.03v-14.18a41 41 0 0 0 14.83 2.04 37 37 0 0 0 5.44-.68q9.4-1.97 9.41-6.88c0-4.42-4.77-5.74-13.18-7.71-11.74-2.79-17.7-6.27-17.7-17.51 0-11.8 9.85-21.09 24.5-23.13q3.5-.48 7.05-.48c3.56 0 6.96.38 9.65 1.07V91.2a30 30 0 0 0-10.7-1.81q-2.48 0-4.89.33c-6.65.92-10.95 4.04-10.95 7.97 0 4.17 5.18 5.89 12.51 7.86 15.26 4 18.25 9.55 18.25 17.77 0 11.93-9.15 20.06-25.1 22.3-2.96.42-5.97.63-8.93.63v.02ZM87.99 138.09c-15.05 0-24.03-8.41-24.03-22.48V74.18c4.96-.56 10-1.08 15.02-1.59v39.34c0 8.06 4.08 12.51 11.49 12.51q.87 0 1.8-.08c8.39-.75 13.02-5.93 13.02-14.59V70.24c5.02-.4 10.11-.77 15.14-1.11v41.24c0 15.66-10.59 25.96-28.35 27.53q-2.1.19-4.08.19zM138.6 68c10.49 8.95 21.1 18.12 31.55 27.3q.3.26.69.26c.39 0 .51-.09.71-.28 10.47-9.79 21.1-19.62 31.64-29.22v65.29q-7.2.03-14.43.15V98.33c0-.41-.24-.77-.61-.95a1 1 0 0 0-.43-.09 1 1 0 0 0-.68.26l-4.31 3.73-5.12 5.01-6.79 6.64q-3.42-3.11-6.81-6.25l-5.03-4.63-4.47-3.52a1.02 1.02 0 0 0-1.09-.13c-.36.17-.59.54-.59.94v33.22c-4.72.21-9.5.43-14.22.69V68.01ZM286.62 133.58c-4.78-.28-9.61-.54-14.41-.76V99.59c0-.4-.23-.76-.59-.94q-.22-.1-.45-.1-.36 0-.65.23l-4.31 3.46q-2.6 2.37-5.08 4.66-3.39 3.13-6.79 6.21-3.41-3.32-6.8-6.67l-5.06-4.98-4.46-3.8q-.3-.24-.67-.25-.22 0-.43.09c-.37.17-.61.54-.61.95v33.16c-4.72-.09-9.5-.16-14.23-.21V66.19a3186 3186 0 0 1 31.54 29.27q.31.28.71.28c.4 0 .48-.08.68-.26 10.47-9.13 21.1-18.29 31.64-27.23v65.34h-.01ZM348.92 138.71a1323 1323 0 0 0-43.46-3.89V69.58c13.99 1.02 28.13 2.28 42.06 3.75v12.31c-8.6-.91-17.31-1.73-25.89-2.47h-.09a1 1 0 0 0-.7.28q-.34.31-.34.76v11.97c0 .54.41.99.95 1.04 7.35.63 14.79 1.33 22.14 2.08v11.56a1357 1357 0 0 0-21.96-2.06h-.09a1 1 0 0 0-.7.28q-.34.31-.34.76v12.91c0 .54.41.99.95 1.04 9.13.78 18.36 1.67 27.46 2.63v12.31h.02ZM413.82 147.24c-5.05-.79-10.17-1.56-15.22-2.3q-5.28-11.6-10.57-23.16a1 1 0 0 0-.8-.6l-7.46-.99h-.13q-.38 0-.69.26-.35.31-.35.78v20.98c-4.87-.63-9.78-1.24-14.62-1.8V75.18c7.72.92 15.53 1.9 23.25 2.95 16.4 2.23 26.17 11.9 26.18 25.85 0 8.6-3.99 14.34-11.53 16.58a1.05 1.05 0 0 0-.64 1.46q6.3 12.59 12.59 25.23v-.02Zm-34.19-57.82q-.38 0-.69.26-.35.31-.35.78v17.12c0 .52.39.97.91 1.03q4.29.56 8.56 1.14 1.09.15 2.08.15 3.7 0 5.82-2.02 2.3-2.2 2.32-6.5c0-5.92-3.75-9.96-10.02-10.82q-4.25-.58-8.48-1.13h-.13Z"/>
      <g fill="#fff">
        <path d="M16.07 145.24a47 47 0 0 1-9.12-.82v-11.93a42 42 0 0 0 13.84 1.67q2.62-.12 5.59-.7c6.8-1.42 10.25-4.08 10.25-7.89 0-5.45-6.18-6.9-14-8.72-11.45-2.72-16.9-5.89-16.9-16.5 0-11.26 9.49-20.13 23.6-22.1q3.42-.47 6.91-.47c3.14 0 6.14.3 8.61.85v11.13a33 33 0 0 0-9.66-1.39q-2.55 0-5.03.34c-7.31 1.01-11.86 4.46-11.86 9 0 4.91 5.5 6.77 13.27 8.87 11.34 2.97 17.48 6.53 17.48 16.77 0 11.52-8.59 19.07-24.21 21.27-2.91.41-5.87.62-8.79.62zM87.99 137.05c-14.62 0-22.99-7.81-22.99-21.44v-40.5a1281 1281 0 0 1 12.93-1.37v38.19c0 8.6 4.57 13.54 12.53 13.54q.92 0 1.89-.09c8.87-.79 13.97-6.48 13.97-15.62V71.19q6.53-.52 13.06-.97v40.13c0 15.07-10.24 24.98-27.4 26.5q-2.06.19-3.99.19H88ZM139.63 70.26c9.92 8.48 19.95 17.16 29.83 25.82.39.34.89.51 1.37.51s1.02-.19 1.42-.57c9.88-9.25 19.93-18.53 29.89-27.62v61.91q-6.16.03-12.35.12V98.32a2.08 2.08 0 0 0-3.43-1.58l-4.41 3.81-5.07 4.97q-3.03 3-6.08 5.95-3.06-2.78-6.08-5.59l-5.03-4.64-.11-.09-4.41-3.47q-.57-.44-1.29-.44a2.1 2.1 0 0 0-2.08 2.08v32.24c-4.03.17-8.11.37-12.15.59v-61.9h-.01ZM285.58 132.48q-6.16-.35-12.33-.65V99.59a2.1 2.1 0 0 0-2.09-2.08c-.46 0-.93.15-1.3.45l-4.31 3.46-.09.08-5.04 4.62q-3.02 2.8-6.06 5.55a860 860 0 0 1-6.09-5.99l-5.06-4.99-.1-.09-4.42-3.75a2 2 0 0 0-2.22-.29 2.1 2.1 0 0 0-1.2 1.88v32.1c-4.03-.08-8.11-.13-12.16-.17V68.55a3210 3210 0 0 1 29.79 27.67 2.07 2.07 0 0 0 2.79.06c9.89-8.64 19.95-17.29 29.92-25.77v61.98h-.01ZM347.88 137.56a1339 1339 0 0 0-41.39-3.71V70.7c13.3.99 26.73 2.18 39.98 3.57v10.22c-8.23-.85-16.56-1.65-24.75-2.35h-.17a2.07 2.07 0 0 0-2.08 2.08v11.97c0 1.08.82 1.98 1.9 2.07 7.03.6 14.15 1.27 21.19 1.98v9.47c-6.92-.7-13.92-1.35-20.83-1.95h-.17a2.07 2.07 0 0 0-2.08 2.08v12.91c0 1.08.82 1.98 1.9 2.07 8.81.75 17.72 1.61 26.51 2.53zM411.99 145.9q-6.35-1-12.68-1.9l-10.33-22.64c-.3-.65-.91-1.1-1.62-1.19l-7.46-1-.27-.02a2.08 2.08 0 0 0-2.08 2.07v19.79q-6.28-.8-12.54-1.54V76.34c7.33.87 14.75 1.82 22.07 2.82 15.83 2.16 25.28 11.43 25.28 24.83 0 8.1-3.73 13.48-10.79 15.58-.59.17-1.07.61-1.32 1.16-.25.57-.23 1.2.05 1.76q5.85 11.68 11.68 23.43Zm-32.36-57.52a2.08 2.08 0 0 0-2.08 2.07v17.12c0 1.05.77 1.92 1.81 2.06l8.56 1.14q1.15.15 2.22.15 4.12 0 6.54-2.31 2.63-2.52 2.63-7.26c0-6.39-4.19-10.93-10.92-11.86q-4.25-.58-8.49-1.13l-.27-.02v.02Z"/>
      </g>
      <path fill="#ea0029" d="M15.04 145.24a47 47 0 0 1-9.12-.82v-11.93a42 42 0 0 0 13.84 1.67q2.62-.12 5.59-.7c6.8-1.42 10.25-4.08 10.25-7.89 0-5.45-6.18-6.9-14-8.72-11.45-2.72-16.9-5.89-16.9-16.5 0-11.26 9.49-20.13 23.6-22.1q3.42-.47 6.91-.47c3.14 0 6.14.3 8.61.85v11.13a33 33 0 0 0-9.66-1.39q-2.55 0-5.03.34c-7.31 1.01-11.86 4.46-11.86 9 0 4.91 5.5 6.77 13.27 8.87 11.34 2.97 17.48 6.53 17.48 16.77 0 11.52-8.59 19.07-24.21 21.27-2.91.41-5.87.62-8.79.62zM86.94 137.05c-14.62 0-22.99-7.81-22.99-21.44v-40.5a1281 1281 0 0 1 12.93-1.37v38.19c0 8.6 4.57 13.54 12.53 13.54q.92 0 1.89-.09c8.87-.79 13.97-6.48 13.97-15.62V71.19q6.53-.52 13.06-.97v40.13c0 15.07-10.24 24.98-27.4 26.5q-2.06.19-3.99.19h.01ZM138.6 70.26c9.92 8.48 19.95 17.16 29.83 25.82.39.34.89.51 1.37.51s1.02-.19 1.42-.57c9.88-9.25 19.93-18.53 29.89-27.62v61.91q-6.16.03-12.35.12V98.32a2.08 2.08 0 0 0-3.43-1.58l-4.41 3.81-5.07 4.97q-3.03 3-6.08 5.95-3.06-2.78-6.08-5.59l-5.03-4.64-.11-.09-4.41-3.47q-.57-.44-1.29-.44a2.1 2.1 0 0 0-2.08 2.08v32.24c-4.03.17-8.11.37-12.15.59v-61.9h-.01ZM284.54 132.48q-6.16-.35-12.33-.65V99.59a2.1 2.1 0 0 0-2.09-2.08c-.46 0-.93.15-1.3.45l-4.31 3.46-.09.08-5.04 4.62q-3.02 2.8-6.06 5.55a860 860 0 0 1-6.09-5.99l-5.06-4.99-.1-.09-4.42-3.75a2 2 0 0 0-2.22-.29 2.1 2.1 0 0 0-1.2 1.88v32.1c-4.03-.08-8.11-.13-12.16-.17V68.55a3210 3210 0 0 1 29.79 27.67 2.07 2.07 0 0 0 2.79.06c9.89-8.64 19.95-17.29 29.92-25.77v61.98h-.01ZM346.84 137.56a1339 1339 0 0 0-41.39-3.71V70.7c13.3.99 26.73 2.18 39.98 3.57v10.22c-8.23-.85-16.56-1.65-24.75-2.35h-.17a2.07 2.07 0 0 0-2.08 2.08v11.97c0 1.08.82 1.98 1.9 2.07 7.03.6 14.15 1.27 21.19 1.98v9.47c-6.92-.7-13.92-1.35-20.83-1.95h-.17a2.07 2.07 0 0 0-2.08 2.08v12.91c0 1.08.82 1.98 1.9 2.07 8.81.75 17.72 1.61 26.51 2.53zM410.95 145.9q-6.35-1-12.68-1.9l-10.33-22.64c-.3-.65-.91-1.1-1.62-1.19l-7.46-1-.27-.02a2.08 2.08 0 0 0-2.08 2.07v19.79q-6.28-.8-12.54-1.54V76.34c7.33.87 14.75 1.82 22.07 2.82 15.83 2.16 25.28 11.43 25.28 24.83 0 8.1-3.73 13.48-10.79 15.58-.59.17-1.07.61-1.32 1.16-.25.57-.23 1.2.05 1.76q5.85 11.68 11.68 23.43Zm-32.36-57.52a2.08 2.08 0 0 0-2.08 2.07v17.12c0 1.05.77 1.92 1.81 2.06l8.56 1.14q1.15.15 2.22.15 4.12 0 6.54-2.31 2.63-2.52 2.63-7.26c0-6.39-4.19-10.93-10.92-11.86q-4.25-.58-8.49-1.13l-.27-.02v.02Z"/>
      <path fill="#e71f2f" d="M289.47 32.88a7 7 0 0 0 .52-6.72 12.3 12.3 0 0 0-8.87-6.93q.3-1.16.3-2.39c0-4.93-3.88-8.8-8.84-8.8s-8.93 4.07-8.93 8.71q.01 1.87.79 3.57c-1.63-.1-3.33.21-4.98.92a10 10 0 0 0-5.13-1.35c-3.3 0-6.2 1.28-7.69 2.08-1.89-1.46-4.52-2.41-7.83-2.41-2.7 0-5.5.74-8.01 2.19q-.38-.3-.8-.52a6 6 0 0 0-2.94-5.66c-2.42-1.44-5.43-1.11-7.85.84l-5.33 4.32h-.04a5.8 5.8 0 0 0-2.84-5.09c-2.42-1.45-5.59-1.11-8.08.89-.92.73-4.15 3.19-5.99 4.58a8.5 8.5 0 0 0-5.69-1.91c-2.31 0-4.37.45-6.43 1.41a9 9 0 0 0-5.72-1.76c0-.69-.08-1.84-.49-3.17a8.34 8.34 0 0 0 2.78-9.37c-1.35-3.8-5.03-6.27-9.42-6.31h-.24c-4.81.04-9.54 2.45-12.93 6.46-9.71.25-21.79 4.72-22.84 15.21q-.13 1.38.04 2.66a19 19 0 0 0-6.57 2.94 15 15 0 0 0-6.23 12.47c0 8.54 8.05 13.83 15.5 13.83 8.12 0 13.7-3.94 17.82-9.49q.4.81.99 1.55c1.15 1.44 3.3 3.15 7.04 3.15 2.8 0 5.13-.87 7.1-2.2q1 .74 2.18 1.26c3.49 1.47 7.53 1.01 11.03-1.05 1.44.85 3.05 1.39 4.72 1.55 2.65.27 5.36-.37 7.96-1.82 1.85 1.22 4 2.01 6.29 2.25 2.4.26 5.67 0 9.34-1.98q.34.24.71.47c2.98 1.78 7.84 2.37 13.07-.64a14 14 0 0 0 6.03 2.57c3.3.57 6.91 0 10.48-1.55.82.52 1.79.82 2.8.82h6.57a5.2 5.2 0 0 0 4.82-3.3l2.11-5.52.54-1.4q.66.18 1.34.26l-.01.4c0 5.47 6.54 10.63 13.45 10.63s14.44-4.7 14.44-12.29c0-.61-.1-1.89-.78-3.45q.4-.43.73-.94h.03Z"/>
      <path d="m172.35 32.53-.08-.03c-.03-.02-.12-.22-.07-.65.13-1.22.31-2.87-.02-4.5.71 1.48.76 3.41.17 5.18m13.05-7.93-.11.06-.11-.41zm84.26 1.12h.09q.37 0 .78-.08a8 8 0 0 0-.68.7 4 4 0 0 0-.2-.63Zm-85.52 8.46q-.3-.01-.37-.04c-.03-.1-.07-.42.08-1.11.07-.33.25-.86.42-1.42q.26-.8.54-1.72a11 11 0 0 1-.67 4.3Zm-20.02-14.67.27-.61s.05.1.04.15q-.01.16-.08.33l-.24.13zm-8.31-1.05q-.35.77-.72 1.51a2 2 0 0 1-.86-.45c-.04-.05-.15-.19-.07-.58q.7-.3 1.66-.48Zm-9.92 11.19c1.49.14 3.03.07 4.39-.09q-.63.86-1.28 1.61c-1.05.87-2.01 1.37-2.8 1.37-1 0-1.53-.56-1.7-1.07a1.4 1.4 0 0 1 0-.84l1.37-.97h.01Zm68.75 1.84-.76 2.93c-2.14 1.03-4.33 1.52-5.06 1.03-.36-.25-.42-1.15-.15-2.37l.34-1.55h3.83v-.04h1.82-.01Zm10.23 3.55s-.39-.5.07-2.53l.24-1.02h1.38a15 15 0 0 0-1.07 3.55q-.49.08-.62 0m22.14-.68a19 19 0 0 1-3.82 1.49 8 8 0 0 0 1.65-1.67 7 7 0 0 0 2.79-3.92c.07.86-.09 2.06-.62 4.1m-51.15-2.87h2.13l-.78 3.14c-1.05.44-2.01.64-2.38.51-.03-.15-.09-.74.41-2.1l.33-.82q.14-.35.29-.73m90.29-.46a3.7 3.7 0 0 0 1.51-1.31c.64-.98.73-2.18.24-3.32-1.07-2.47-3.99-5.12-8.97-5.12q-1.37 0-2.84.46c1.66-1.57 2.95-3.8 2.95-6.08a5.2 5.2 0 0 0-5.26-5.21 5.6 5.6 0 0 0-4.58 2.61 5.2 5.2 0 0 0-2.52 4.27c0 1.52.72 3.01 1.89 4.07l-.32.22c-.59.35-.94.93-1.03 1.54-1.79-.78-4.41-.62-7 1.21l-.04-.05c-1.02-1.29-2.72-2.02-4.65-2.02s-4.41.71-6.41 1.89l-1.4.82.34.56q-.37.2-.63.34c-.99-2.17-3.5-3.93-7.42-3.93-2.94 0-7.04 1.41-9.86 4.82l-.41.35 1.11-4.1h-3.92c.45-2.06.56-2.59.66-3.15.17-.94-.3-1.9-1.16-2.42-1.12-.67-2.53-.46-3.78.55l-6.63 5.37-.19.15.1-.52h-5.22c.27-1.18.59-2.57.68-3.09.19-.98-.23-1.9-1.07-2.42-1.11-.67-2.69-.43-3.98.62-1.31 1.05-6.76 5.17-6.81 5.21l-.41.31-.16.56-1.18.9-.41.31-.15.52a4.6 4.6 0 0 0-.73-2.53c-.56-.82-1.71-1.81-4.04-1.81-2.16 0-3.98.49-5.93 1.6l-1.41.8a5 5 0 0 0-.51-.95q-1.32-1.8-4.23-1.81c-2.91-.01-4.3.82-6.06 2.16l-1.08.81.2.36q-.46.27-.87.59l-.85.65-.03-.07a10 10 0 0 0 1.7-1.71c2.12-1.64 3.36-3.88 3.36-6.35 0-1.11-.24-2.59-1.2-4.03a5 5 0 0 0 1.31-1.25q.11-.19.24-.37a4.5 4.5 0 0 0 1.52-1.39 4.7 4.7 0 0 0 .63-4.32c-.84-2.38-3.26-3.92-6.14-3.92-3.76 0-7.5 1.9-10.22 5.09q-.73.63-1.41 1.37c-6.33-.12-14.54 1.89-18.46 6.7-2.18 1.8-3.69 4.13-3.98 7.04-.16 1.6.16 2.81.67 3.73a15 15 0 0 0-6.89 2.66q-1.31.96-2.26 2.15a11.3 11.3 0 0 0-4.24 9.18c0 6.12 6.15 10.24 11.91 10.24 5.22 0 9.52-1.91 13.29-6.11 3.06-2.73 5.75-6.78 8.26-12.36a7 7 0 0 1-.11.8l-.21.92c-.72 3.2-1.71 7.59.37 10.18q1.45 1.8 4.24 1.81c3.03 0 5.32-1.37 7.48-3.6a6 6 0 0 0 3.19 2.94c2.58 1.09 6.42.74 9.71-2.2a8.2 8.2 0 0 0 5.02 2.45c2.55.26 5.28-.7 7.83-2.72a10.6 10.6 0 0 0 6.44 3.15c2.31.25 5.69-.15 9.52-3.03a5.3 5.3 0 0 0 1.99 2.01c2.45 1.46 6.84 1.66 11.61-2.15a10 10 0 0 0 6.26 3.63c3.42.58 7.3-.38 11.11-2.69l-.64 1.9h9.86l.39-1.01.29-.75h1.08l.39-1.01a700 700 0 0 0 3.17-8.27 6.4 6.4 0 0 0 5.01 1.02 5.5 5.5 0 0 0 3.51-2.47q.51-.31.93-.73.12.88.43 1.67c-.65.38-1.25.95-1.64 1.7a4.3 4.3 0 0 0-2.26 3.87c0 3.11 4.64 7.05 9.87 7.05 3.56 0 7.32-1.55 9.35-4.25a7.7 7.7 0 0 0 3.27-6.22c0-.42-.11-2.09-1.77-3.95q.3-.29.54-.64.13-.22.25-.45l-.02-.03Z"/>
      <path fill="#f9ec2c" d="M282.51 28.6c.54.63 1.12 1.2 2.15 1.2s2.51-1.12 1.79-2.78-2.86-4.17-7.52-4.17c-3 0-7.52 2.19-7.52 6.54 0 2.02.8 3.94 3.76 5.73s3.58 2.19 3.58 2.82-.49 1.16-1.88 1.16-2.51-.8-3.26-2.38c-.76-1.56-2.1-1.83-2.95-1.83s-2.65.76-2.65 2.82 3.81 5.47 8.29 5.47 9.27-2.78 9.27-7.12c0-.8-.59-2.95-3.85-4.88s-4.24-2.24-4.12-3.31c.12-1.02 3.08-1.43 4.92.72Zm-9.68-9.27a8 8 0 0 1-2.02 1.88c-.67.4-.17 1.75 1.92.9s4.7-3.62 4.7-6.44a3.6 3.6 0 0 0-3.67-3.62c-1.97 0-3.76 1.79-3.76 3.54s1.35 3.22 2.82 3.76Zm-111.39 2.38 2.95-6.76c6.58.54 2.46 6.9-2.95 6.76m-4.52.04c-2.55.09-4.88-.85-4.3-3.26.58-2.42 3.58-3.54 7.47-3.58-1.07 2.55-2.23 4.84-3.18 6.84zm84.08 5.5c1.83 0 1.98.9 1.98 1.62 0 1.43-3.22 3.09-6.18 2.73.49-2.15 2.37-4.34 4.21-4.34H241Zm18.46-.12c.3-1.32-1.07-3.25-3.94-3.25-1.97 0-4.09.77-5.61 1.67 1.16 1.88 1.7 2.95 0 8.86-4.35 3.22-13.19 5.43-13.26.9 4.54-.6 9.67-2.21 9.67-7.23 0-2.45-2.33-4.54-6.33-4.54s-10.87 3.05-11.4 11.76c-2.51 1.79-6.56 2.69-5.2-3.16.42-1.79.9-4 .9-4h3.52l.96-3.52h-3.82c.83-3.76.96-4.35 1.07-5.01s-.95-1.52-2.39-.36L217 24.62l-.96 3.52h2.39l-1.68 6.44c-3.45 2.33-11.19 5.27-9.67-1.83.27-1.26 1.03-4.57 1.03-4.57h5.15l.72-3.58h-5.28s.94-4.03 1.12-4.97c.17-.94-1.16-1.34-2.51-.27s-6.85 5.24-6.85 5.24l-1.07 3.54h2.38l-1.66 6.63c-2.46 1.88-8.77 4.15-6.36-2.28.94-2.51 4.3-9.31-1.34-9.31a10 10 0 0 0-5.15 1.39c1.79 2.73.94 11.19-3.09 11.19-1.39 0-2.42-.67-1.88-3.09s4.17-9.85-1.97-9.85c-1.62 0-3.62.72-5.11 1.83 1.3 2.42 1.2 6-.72 8.91-2.06 1.16-4.17.59-3.89-1.88s.49-5.41-2.06-7.07c4.08-1.12 6.54-3.85 6.54-6.94s-2.26-5.88-8.22-6.96c.66-1.73 2.33-3.11 5.43-2.81-.12 1.73.96 3.05 2.75 3.05s3.32-2.15 2.62-4.12c-.66-1.85-2.56-2.86-4.65-2.86-3.82 0-7.94 2.39-10.45 6.5-7.88-.54-19.51 2.73-20.3 10.51-.72 7.1 10.09 5.5 13.13 4.54-2.26 3.94-5.91 8.59-9.19 8.59s-4.71-3.82-1.67-5.97c-4.42-1.43-14.99.77-14.99 10.39 0 5.25 5.43 8.66 10.32 8.66 9.25 0 14.92-6.63 20.06-19.87 1.62 0 3.71.47 2.92 4.12-.77 3.64-2.92 10.98 2.86 10.98 2.98 0 5.31-1.55 8.42-5.55-.54 5.79 7.04 7.82 12.06 1.91 3.05 4.42 8.23 4.35 12.96-.17 2.69 4.06 9.55 6.5 16.89-.66-1.07 3.88 5.55 7.46 12.77.54 3.52 6.33 12.11 6.21 20.17-.96l-1.55 4.6h6.57c1.55-4 3.05-8 3.77-9.79.71-1.79 2.42-2.21 2.92-1.55 1.55 2.03 6.57 2.51 7.59-2.09s-4.35-6.33-8.84-1.55h.01Z"/>
      <path d="M294.02 44.01a2.84 2.84 0 0 0-2.79-2.53h-.02c-1.59 0-2.85 1.3-2.85 2.96s1.27 2.97 2.85 2.97a2.85 2.85 0 0 0 2.81-2.61zm-2.79 2.79c-1.24 0-2.16-1.05-2.16-2.37s.93-2.37 2.12-2.37h.02c1.21 0 2.13 1.06 2.13 2.39s-.91 2.37-2.11 2.35"/>
      <path d="M292.34 45.25q-.1-.6-.49-.72v-.04c.32-.11.58-.34.58-.7q-.01-.43-.29-.63c-.19-.14-.42-.24-.95-.24q-.68.02-1.06.09v2.96h.64V44.8h.3q.5 0 .58.45.1.55.22.72h.68a3 3 0 0 1-.21-.72zm-1.24-.94h-.3v-.84q.1-.04.35-.04c.4 0 .59.19.59.45 0 .31-.29.43-.64.43"/>
      <path fill="#fff" d="M83.35 194.49c-1.87 7.4-7.58 16.14-14.35 18.45-.8.27-1.87.54-3.21.54-2.94 0-6.24-1.25-8.74-4.55-1.7-2.23-2.5-4.9-2.5-7.76 0-3.92 1.43-8.3 3.75-12.48 4.01-7.13 9.62-11.59 15.51-11.59 2.58 0 4.19.98 5.89 3.29 2.5 2.94 4.99 3.56 4.19 11.15 2.32 0 2.5.8 1.78 1.7a3.8 3.8 0 0 1-2.32 1.25m-19.71 14.45c2.32 0 5.89-3.29 9.18-9.36a30 30 0 0 0 2.94-6.42c-2.85-1.78-4.72-4.1-5.43-7.23a29 29 0 0 0-5.08 6.69c-2.32 4.28-3.75 9.27-3.75 12.57 0 2.68.8 3.75 2.14 3.75m14.8-24.52c0-1.34-.71-1.87-1.34-1.87-.54 0-1.34.71-1.34 2.14 0 1.61.44 3.92 1.43 5.08.9-2.05 1.25-4.19 1.25-5.35M96.46 195.47c4.28 1.51 4.82 6.69 4.36 11.5 2.76-2.22 5.17-5.7 7.04-9.62.98-1.97 2.77-2.14 3.56.17.54 1.51 0 3.48-.8 5.53-.9 2.14-5.17 7.13-10.43 9.18-1.34 8.82-5.26 18.99-9.54 24.42-1.78 2.23-3.56 3.29-5.89 3.29-3.39 0-7.58-5.35-7.58-12.22 0-18.19 22.28-55.1 32.45-70.42.54-.8 1.25-1.25 1.87-1.25 1.07 0 2.58 1.61 2.58 4.72 0 2.5-1.07 5.62-3.65 10.16-3.75 6.6-9.72 16.14-14 24.52h.01Zm-12.22 38.96c1.87 0 6.6-11.41 9.09-21.4a8 8 0 0 1-4.1-2.14c-3.39 8.38-5.79 16.31-5.79 20.5 0 1.7.27 3.03.8 3.03Zm11.14-30.31c0-3.29-.36-4.72-.98-4.46s-1.16 3.75-1.16 5.79c0 1.61.27 2.68 1.51 3.21.44-1.61.63-2.68.63-4.55ZM125.95 202.78c2.58-7.58 11.59-24.52 19.43-37.08a6.9 6.9 0 0 1-3.39-4.55c-.27-1.16.27-1.7 1.97-1.7 5.17 0 9.01-.54 13.29-1.25 3.12-.54 6.06-.9 8.2-.9 4.28 0 6.77 1.78 8.02 4.82.44.98 0 1.97-1.87 1.97-4.55-.09-8.91.9-17.48 2.41a548 548 0 0 0-10.61 18.72 40 40 0 0 1 4.28-.44c5.08-.36 7.49 1.51 8.3 4.36.36 1.25.17 2.05-1.78 2.22a107 107 0 0 0-15.34 2.41 536 536 0 0 0-9.01 18.63c-.54 1.16-1.78 1.43-3.03.63s-2.05-2.68-2.05-4.82c0-1.34.36-3.21 1.07-5.43h-.01Z"/>
      <path fill="#fff" d="M171.87 176.31c0 1.7-.63 4.28-1.61 7.13q3.21-.8 7.23-3.75c1.51-1.07 2.41-1.25 3.56-.09 1.25 1.25 2.58 3.56 2.58 5.7 0 1.07-.44 2.32-1.43 3.48-4.82 5.53-9.89 12.57-9.89 17.83 0 2.32.71 3.75 1.97 3.75 3.03 0 6.6-4.99 9.36-11.15.71-1.61 1.97-1.7 2.76-.09.63 1.25.71 3.39-.27 5.79-2.14 5.08-7.4 8.91-12.48 8.91-5.43 0-8.38-3.83-8.38-8.65 0-5.7 4.72-12.57 9.18-18.01a19 19 0 0 1-6.5 1.43c-6.69 11.59-11.76 19.79-13.02 25.94-.36 1.61-1.51 2.41-3.12.71-1.51-1.43-2.23-3.29-2.23-5.26s.63-4.1 1.87-6.42a123 123 0 0 1 10.96-16.22c-1.07-.98-1.7-2.14-1.7-3.29 0-4.55 5.7-10.88 8.47-10.88 1.87 0 2.68 1.07 2.68 3.12l.02.02Z"/>
      <path fill="#fff" d="M198.97 200.02c-2.14 0-4.28-.63-6.33-1.97-.54 1.78-.8 3.65-.8 5.26 0 3.92 1.61 6.69 4.28 6.69 6.77 0 12.75-6.6 16.41-12.12.98-1.43 2.14-1.61 2.85.17.27.8.36 3.39-1.25 5.79-3.75 5.43-10.88 9.62-17.83 9.72-8.3.09-12.83-5.35-12.83-12.48 0-3.21.9-6.69 2.76-10.25 4.63-9.45 11.86-14.17 17.02-14.17 1.25 0 2.23.17 3.12.71 2.5 1.43 4.28 2.85 5.53 4.63.54.8.9 2.14.9 3.29 0 5.35-5.97 14.71-13.81 14.71v.02Zm-5.09-5.35c.71.44 1.34.63 1.97.63 2.14 0 4.99-2.68 6.77-5.08 2.58-3.48 4.46-7.67 3.48-8.47-1.34-1.07-7.94 4.36-12.22 12.93Z"/>
      <path fill="#fff" d="M227.49 200.02c-2.14 0-4.28-.63-6.33-1.97-.54 1.78-.8 3.65-.8 5.26 0 3.92 1.61 6.69 4.28 6.69 6.77 0 12.75-6.6 16.41-12.12.98-1.43 2.14-1.61 2.85.17.27.8.36 3.39-1.25 5.79-3.75 5.43-10.88 9.62-17.83 9.72-8.3.09-12.83-5.35-12.83-12.48 0-3.21.9-6.69 2.76-10.25 4.63-9.45 11.86-14.17 17.02-14.17 1.25 0 2.23.17 3.12.71 2.5 1.43 4.28 2.85 5.53 4.63.54.8.9 2.14.9 3.29 0 5.35-5.97 14.71-13.81 14.71v.02Zm-5.09-5.35c.71.44 1.34.63 1.97.63 2.14 0 4.99-2.68 6.77-5.08 2.58-3.48 4.46-7.67 3.48-8.47-1.34-1.07-7.94 4.36-12.22 12.93Z"/>
      <path fill="#fff" d="M266.18 202.52c-1.07 2.32-1.61 4.28-1.61 5.7 0 1.34.36 1.97 1.16 1.97 3.12 0 7.49-5.89 10.52-11.76.9-1.7 2.05-1.61 2.85 0 .44.8.8 3.29-.36 5.79-2.41 4.82-7.94 9.45-13.1 9.45-4.36 0-7.31-1.51-8.02-5.43-2.76 2.85-6.24 5.17-10.16 5.17-5.17 0-8.02-3.83-8.02-9.09 0-3.75 1.61-8.65 4.72-13.19 6.96-10.08 14.35-14.27 18.99-14.27 3.03 0 4.99 1.25 5.7 3.56 4.46-8.38 10.25-18.45 13.19-22.64 1.61-2.23 2.85-2.05 3.75.09.44 1.07.8 2.23.8 3.48 0 2.41-1.16 5.89-3.48 10.08-5.17 9.81-12.75 22.28-16.94 31.11h-.01Zm-1.61-20.24c-2.49-.09-8.38 5.35-13.1 12.83-2.68 4.19-4.1 8.65-4.1 11.59 0 1.61.36 2.76 1.34 2.76 2.85 0 7.13-4.99 11.15-12.75 4.82-9.18 6.42-14.35 4.72-14.44z"/>
      <path fill="#fff" d="M362.28 198.24c.54.71.63 3.75-.54 5.97-2.5 4.99-9.72 9.62-15.07 9.54-5.97-.09-9.27-3.39-9.27-8.11 0-1.7.36-3.65 1.34-5.7 1.51-3.39 4.19-7.75 6.42-11.23.9-1.34 3.65-5.43 3.39-5.53-.44-.09-2.85 1.16-7.94 6.33-6.87 6.77-11.15 15.51-14.88 23.35-.63 1.43-2.32 1.97-3.56.71-.98-.98-1.78-2.5-1.78-4.82 0-1.51.44-3.92 1.51-6.6 1.25-3.29 4.19-8.02 6.6-11.86 2.5-3.92 4.63-7.04 4.1-7.31-.63-.27-4.19 2.05-9.54 7.94-4.82 5.26-9.01 13.29-12.48 21.57-.63 1.34-1.61 1.61-3.12.44-1.34-1.07-2.05-2.68-2.05-4.72 0-1.43.27-2.94.8-4.72a75 75 0 0 1 4.55-10.16 13 13 0 0 1-5.26.98c-2.23 8.82-8.82 19.07-17.74 19.07-2.85 0-6.15-1.07-8.65-4.46a13 13 0 0 1-2.41-7.67c0-4.01 1.43-8.47 3.83-12.57 3.39-5.97 8.91-11.59 14.62-11.59 3.21 0 4.72.63 6.69 3.21 3.03 3.39 4.36 5.17 4.36 10.69 4.72-.71 9.62-6.96 13.73-13.28.98-1.43 2.49-1.51 3.48 0a8.4 8.4 0 0 1 1.16 4.01c0 .8-.09 1.51-.27 2.5 4.01-3.92 8.65-7.13 11.59-7.13s4.72 3.29 4.72 6.96c3.83-3.29 8.82-6.42 11.41-6.33s3.92 2.58 3.92 5.43c0 1.43-.27 3.12-.98 4.72-.8 1.87-2.58 4.72-4.28 7.58a40 40 0 0 0-3.65 6.42 11 11 0 0 0-1.25 4.72c0 2.05.9 3.39 2.32 3.39 3.21 0 7.84-5.7 11.05-11.76.98-1.78 2.23-1.34 3.12 0Zm-76.67 10.6c2.14 0 6.06-3.29 9.36-9.27a32 32 0 0 0 2.94-7.13c-2.5-1.51-4.63-4.01-5.35-6.69a32 32 0 0 0-5.17 6.87c-2.41 4.1-3.65 8.91-3.65 12.3 0 2.58.63 3.92 1.87 3.92m14.8-24.42c0-1.34-.71-1.87-1.34-1.87-.54 0-1.34.71-1.34 2.14 0 1.61.44 3.92 1.43 5.08.9-2.05 1.25-4.19 1.25-5.35"/>
    </g>
  </g>
</svg>
