<svg xmlns="http://www.w3.org/2000/svg" width="51" height="51" viewBox="0 0 51 51">
  <g id="Layer_1-2">
    <circle cx="25.5" cy="25.5" r="25.5" stroke-width="0"/>
    <g id="Page-1">
      <g id="Dribbble-Light-Preview">
        <g id="icons">
          <path id="linkedin-_161_" fill="#f8ef2b" fill-rule="evenodd" stroke-width="0" d="M39.62 38.43h-5.49v-9.61c0-2.63-1.16-4.1-3.25-4.1-2.27 0-3.61 1.53-3.61 4.1v9.61h-5.49V20.59h5.49v2.01s1.72-3.02 5.6-3.02 6.75 2.37 6.75 7.27v11.59Zm-24.09-20.7c-1.85 0-3.35-1.51-3.35-3.38s1.5-3.38 3.35-3.38 3.35 1.51 3.35 3.38c0 1.86-1.5 3.38-3.35 3.38Zm-3.35 20.69h6.86V20.58h-6.86v17.84Z"/>
        </g>
      </g>
    </g>
  </g>
</svg>
