<svg xmlns="http://www.w3.org/2000/svg" width="51" height="51" viewBox="0 0 51 51">
  <g id="Layer_1-2">
    <circle cx="25.5" cy="25.5" r="25.5" stroke-width="0"/>
    <g id="Page-1">
      <g id="Dribbble-Light-Preview">
        <g id="icons">
          <path id="instagram-_167_" fill="#f8ef2b" fill-rule="evenodd" stroke-width="0" d="M19.78 11.82c-2.26.1-4.21.65-5.79 2.22-1.58 1.58-2.13 3.54-2.23 5.77-.06 1.39-.43 11.92.64 14.67a6.97 6.97 0 0 0 4.03 4.02c.88.34 1.88.57 3.35.64 12.27.56 16.82.25 18.74-4.66.34-.87.57-1.87.64-3.34.56-12.31-.09-14.97-2.23-17.11-1.7-1.69-3.69-2.84-17.15-2.22m.11 24.86a7.64 7.64 0 0 1-2.56-.47 4.55 4.55 0 0 1-2.62-2.61c-.82-2.1-.55-12.06-.47-13.67.07-1.58.39-3.02 1.51-4.13 1.38-1.38 3.16-2.05 15.28-1.5 1.58.07 3.03.39 4.14 1.5 1.38 1.38 2.06 3.17 1.51 15.25a7.78 7.78 0 0 1-.47 2.55c-1.25 3.2-4.12 3.64-16.32 3.08m11.27-18.53a1.65 1.65 0 1 0 3.3 0 1.65 1.65 0 0 0-3.3 0m-12.78 7.34a7.07 7.07 0 1 0 14.14-.02 7.07 7.07 0 0 0-14.14.02m2.48 0a4.59 4.59 0 1 1 9.18.02 4.59 4.59 0 0 1-9.18-.02"/>
        </g>
      </g>
    </g>
  </g>
</svg>
