<svg xmlns="http://www.w3.org/2000/svg" width="528" height="389" viewBox="0 0 528 389">
  <defs>
    <radialGradient id="radial-gradient" cx="263.5" cy="-144.3" r="231.5" fx="263.5" fy="-144.3" gradientTransform="translate(0 50) scale(1 -1)" gradientUnits="userSpaceOnUse">
      <stop offset=".35" stop-color="#1476bd"/>
      <stop offset="1" stop-color="#222f66"/>
    </radialGradient>
  </defs>
  <path fill="url(#radial-gradient)" d="M263.5 388.61c-3.73 0-7.36-.91-10.79-2.69L37.93 274.38c-8.64-4.49-14.69-13.87-16.19-25.09L.35 89.29c-2.37-17.7 7.58-34.67 22.17-37.82L258.71.51a23 23 0 0 1 9.61 0l236.17 50.97c14.6 3.15 24.54 20.11 22.17 37.82l-21.4 159.99c-1.5 11.23-7.55 20.61-16.19 25.09L274.29 385.92a23 23 0 0 1-10.78 2.68Z"/>
  <g fill="#1e3464" opacity=".22">
    <path d="m502.94 124.6-7.45-23.12-7.44 23.12h-24.06l9.73 7.14 9.74 7.14-7.44 23.11 19.47-14.29 19.48 14.29-7.44-23.11 9.73-7.14 4.18-3.07.54-4.07zM520.55 94.56l5.99-4.4s.45-2.93.46-6.76c0-3.45-.7-6.72-.7-6.72zM515.55 57.17h-7.05l15.14 11.11s-2.43-6.13-8.09-11.11M495.49 236.35l-7.44 23.12h-24.06l9.74 7.14 9.74 7.14-1.37 4.25s4.22-2.23 7.14-3.75c2.39-1.24 4.69-3 6.33-4.62 5.07-5.05 7.16-10.81 7.16-10.81zM508.51 192.02l4.01 2.95.39-2.95zM406.45 101.48l-7.43 23.12h-24.08l9.74 7.14 9.74 7.14-7.44 23.11 19.47-14.29 19.47 14.29-7.44-23.11 9.74-7.14 9.74-7.14h-24.07zM482.48 57.17h-24.07L453 40.37l-3.79-.81-5.67 17.61h-24.07l19.46 14.27-7.43 23.12 19.48-14.29 19.46 14.29-7.43-23.12zM406.45 236.35l-7.43 23.11h-24.08l9.74 7.15 9.74 7.13-7.44 23.12 19.47-14.29 19.47 14.29-7.44-23.12 9.74-7.13 9.74-7.15h-24.07zM450.98 168.92l-7.44 23.1h-24.07l19.46 14.29-7.43 23.12 19.48-14.29 19.46 14.29-7.43-23.12 19.47-14.29h-24.07zM317.41 101.48l-7.44 23.12H285.9l9.74 7.14 9.73 7.14-7.43 23.11 19.47-14.29 19.47 14.29-7.44-23.11 9.74-7.14 9.73-7.14h-24.06zM349.9 71.44l-7.44 23.12 19.47-14.29 19.47 14.29-7.43-23.12 19.47-14.27h-24.08l-7.43-23.12-7.44 23.12h-24.06zM317.41 236.35l-7.44 23.11H285.9l9.74 7.15 9.73 7.13-7.43 23.12 19.47-14.29 19.47 14.29-7.44-23.12 9.74-7.13 9.73-7.15h-24.06zM361.93 168.92l-7.44 23.1h-24.06l19.47 14.29-7.44 23.12 19.47-14.29 19.47 14.29-7.43-23.12 19.47-14.29h-24.08zM369.36 326.89l-7.43-23.12-7.44 23.12h-24.06l19.47 14.29-2.12 6.58 40.17-20.87zM228.36 101.48l-7.43 23.12h-24.07l9.73 7.14 9.74 7.14-7.43 23.11 19.46-14.29 19.48 14.29-7.44-23.11 9.73-7.14 9.74-7.14H235.8zM260.86 71.44l-7.44 23.12 19.47-14.29 19.47 14.29-7.44-23.12 19.48-14.27h-24.08l-7.43-23.12-7.44 23.12h-24.07zM304.03 8.22l-6.09 18.91 19.47-14.28 19.47 14.28-4.09-12.7zM228.36 236.35l-7.43 23.11h-24.07l9.73 7.15 9.74 7.13-7.43 23.12 19.46-14.29 19.48 14.29-7.44-23.12 9.73-7.13 9.74-7.15H235.8zM272.89 168.92l-7.44 23.1h-24.07l19.48 14.29-7.44 23.12 19.47-14.29 19.47 14.29-7.44-23.12 19.48-14.29h-24.08zM272.89 303.77l-7.44 23.12h-24.07l19.48 14.29-7.44 23.11L272.89 350l19.47 14.29-7.44-23.11 19.48-14.29h-24.08zM139.32 101.48l-7.43 23.12h-24.07l9.73 7.14 9.74 7.14-7.44 23.11 19.47-14.29 19.47 14.29-7.43-23.11 9.73-7.14 9.74-7.14h-24.07zM171.81 71.44l-7.44 23.12 19.48-14.29 19.47 14.29-7.44-23.12 19.47-14.27h-24.07l-7.43-23.12-7.45 23.12h-24.06zM208.9 27.13l19.46-14.28 19.48 14.28-7.3-22.69-26.16 5.64zM139.32 236.35l-7.43 23.11h-24.07l9.73 7.15 9.74 7.13-7.44 23.12 19.47-14.29 19.47 14.29-7.43-23.12 9.73-7.13 9.74-7.15h-24.07zM183.85 168.92l-7.45 23.1h-24.06l19.47 14.29-7.44 23.12 19.48-14.29 19.47 14.29-7.44-23.12 19.47-14.29h-24.07zM215.35 326.89h-24.07l-7.43-23.12-7.45 23.12h-24.06l19.47 14.29-.75 2.32 12.68 6.58.11-.08.57.43 17.32 8.97-5.86-18.22zM50.29 101.48l-7.45 23.12H18.78l9.73 7.14 9.73 7.14-7.43 23.11 19.48-14.29 19.46 14.29-7.43-23.11 9.73-7.14 9.73-7.14H57.72zM126.31 57.17h-24.07l-6.88-21.4-1.2.26-6.8 21.14H63.3l19.47 14.27-7.44 23.12L94.8 80.27l19.48 14.29-7.45-23.12zM157.27 22.41l-3.8.81 5.32 3.91zM72.05 266.61l9.74-7.14H57.73l-7.44-23.12-7.44 23.12H24.56s.5 1.38 2.02 3.91a38 38 0 0 0 2.52 3.66l9.15 6.71-.22.67 29.44 15.35-5.16-16.03zh.01ZM94.8 168.92l-7.44 23.1H63.3l19.47 14.29-7.44 23.12 19.47-14.29 19.48 14.29-7.45-23.12 19.48-14.29h-24.07zM0 84.49l5.75-4.22 19.47 14.29-7.44-23.12 19.47-14.29H13.2l-.36-1.13S6.75 60.48 3.35 68.3C-.26 76.61 0 84.49 0 84.49M17.79 206.31l19.47-14.29H14.1l4.33 32.42 6.8 4.99z"/>
  </g>
  <path fill="none" stroke="#fff" stroke-miterlimit="10" stroke-width="5.28" d="M263.5 378.22c-2.55 0-5.04-.62-7.39-1.84L41.33 264.84c-5.93-3.08-10.08-9.51-11.11-17.21l-21.38-160c-1.63-12.14 5.2-23.77 15.2-25.93l236.18-50.96a15 15 0 0 1 6.58 0l236.17 50.97c10 2.16 16.83 13.79 15.2 25.93l-21.4 159.99c-1.03 7.7-5.18 14.13-11.11 17.2L270.88 376.37a16 16 0 0 1-7.39 1.84Z"/>
</svg>
