<svg xmlns="http://www.w3.org/2000/svg" viewBox="0 0 1200 600">
<style>
/* <![CDATA[ */

#c1, #c2, #c3, #c4, #c5, #c6, #c7, #c8, #c9, #c10, #c11, #c12, #c13, #c14, #c15, #c16, #c17, #c18, #c19, #c20, #c21, #c22, #c23, #c24, #c25, #c26, #c27, #c28, #c29, #c30, #c31, #c32, #c33 {
  opacity: .04;
  fill: #fff;
}

#c1 { animation: wc 33s -36s linear infinite; }
#c2 { animation: wc 33s -52s linear infinite; }
#c3 { animation: wc 33s -42s linear infinite; }
#c4 { animation: wc 33s -28s linear infinite; }
#c5 { animation: wc 33s -14s linear infinite; }
#c6 { animation: wc 33s -22s linear infinite; }
#c7 { animation: wc 33s -6s linear infinite; }
#c8 { animation: wc 33s -26s linear infinite; }
#c9 { animation: wc 33s -40s linear infinite; }
#c10 { animation: wc 33s -8s linear infinite; }
#c11 { animation: wc 33s -30s linear infinite; }
#c12 { animation: wc 33s -38s linear infinite; }
#c13 { animation: wc 33s -4s linear infinite; }
#c14 { animation: wc 33s -32s linear infinite; }
#c15 { animation: wc 33s -16s linear infinite; }
#c16 { animation: wc 33s -2s linear infinite; }
#c17 { animation: wc 33s -50s linear infinite; }
#c18 { animation: wc 33s -62s linear infinite; }
#c19 { animation: wc 33s -58s linear infinite; }
#c20 { animation: wc 33s -46s linear infinite; }
#c21 { animation: wc 33s -44s linear infinite; }
#c22 { animation: wc 33s -60s linear infinite; }
#c23 { animation: wc 33s -18s linear infinite; }
#c24 { animation: wc 33s -64s linear infinite; }
#c25 { animation: wc 33s -54s linear infinite; }
#c26 { animation: wc 33s -20s linear infinite; }
#c27 { animation: wc 33s -24s linear infinite; }
#c28 { animation: wc 33s -56s linear infinite; }
#c29 { animation: wc 33s -12s linear infinite; }
#c30 { animation: wc 33s -10s linear infinite; }
#c31 { animation: wc 33s -66s linear infinite; }
#c32 { animation: wc 33s -34s linear infinite; }
#c33 { animation: wc 33s -48s linear infinite; }

@keyframes wc {
  0%, 10%, 100% {
    opacity: .04;
  }
  5% {
    opacity: .24;
  }
}

/* ]]> */
</style>
  <defs>
    <radialGradient id="grad1" cx="-358.87" cy="840.79" r="1" fx="-358.87" fy="840.79" gradientTransform="translate(1170363.92 1102740.11) rotate(-23.62) scale(1758.8 -1758.8)" gradientUnits="userSpaceOnUse">
      <stop offset="0" stop-color="#0b0d0f"/>
      <stop offset="1" stop-color="#2583da"/>
    </radialGradient>
    <radialGradient id="grad2" cx="-359.13" cy="841.23" r="1" fx="-359.13" fy="841.23" gradientTransform="translate(-1147933.89 -968478.41) rotate(153.23) scale(1643.04 -1643.04)" gradientUnits="userSpaceOnUse">
      <stop offset="0" stop-color="#f2c00d"/>
      <stop offset="1" stop-color="#2db" stop-opacity="0"/>
    </radialGradient>
  </defs>
  <path fill="url(#grad1)" d="M0 0h1200v600H0z"/>
  <path fill="url(#grad2)" fill-opacity=".8" d="M0 0h1200v600H0z"/>
  <g id="c1">
    <path d="M310.83 508.43c0 7.74 6.46 14.02 14.43 14.02s14.43-6.28 14.43-14.02-6.46-14.02-14.43-14.02-14.43 6.27-14.43 14.02ZM606.71 466.74c0 7.74 6.46 14.02 14.43 14.02s14.43-6.28 14.43-14.02-6.46-14.02-14.43-14.02-14.43 6.28-14.43 14.02ZM1128.35 439.07c7.97 0 14.43-6.27 14.43-14.02s-6.46-14.02-14.43-14.02-14.43 6.28-14.43 14.02 6.46 14.02 14.43 14.02ZM775.78 216.63c0 7.74 6.46 14.02 14.43 14.02s14.43-6.27 14.43-14.02-6.46-14.02-14.43-14.02-14.43 6.28-14.43 14.02ZM141.76 133.26c0 7.74 6.46 14.02 14.43 14.02s14.43-6.28 14.43-14.02-6.46-14.02-14.43-14.02-14.43 6.28-14.43 14.02ZM1071.66 91.57c0 7.74 6.46 14.02 14.42 14.02s14.43-6.27 14.43-14.02-6.46-14.02-14.43-14.02-14.42 6.28-14.42 14.02ZM522.17 91.57c0 7.74 6.46 14.02 14.43 14.02s14.43-6.27 14.43-14.02-6.46-14.02-14.43-14.02-14.43 6.28-14.43 14.02Z"/>
  </g>
  <g id="c2">
    <path d="M648.97 466.74c0 7.74 6.46 14.02 14.43 14.02s14.43-6.28 14.43-14.02-6.46-14.02-14.43-14.02-14.43 6.28-14.43 14.02ZM99.49 425.06c0 7.74 6.46 14.02 14.43 14.02s14.43-6.27 14.43-14.02-6.46-14.02-14.43-14.02-14.43 6.27-14.43 14.02ZM1128.35 314.02c7.97 0 14.43-6.28 14.43-14.02s-6.46-14.02-14.43-14.02-14.43 6.28-14.43 14.02 6.46 14.02 14.43 14.02ZM733.51 258.32c0 7.74 6.46 14.02 14.43 14.02s14.43-6.27 14.43-14.02-6.46-14.02-14.43-14.02-14.43 6.28-14.43 14.02ZM522.17 133.26c0 7.74 6.46 14.02 14.43 14.02s14.43-6.28 14.43-14.02-6.46-14.02-14.43-14.02-14.43 6.28-14.43 14.02ZM987.12 91.57c0 7.74 6.46 14.02 14.43 14.02s14.43-6.27 14.43-14.02-6.46-14.02-14.43-14.02-14.43 6.28-14.43 14.02ZM141.76 91.57c0 7.74 6.46 14.02 14.43 14.02s14.43-6.27 14.43-14.02-6.46-14.02-14.43-14.02-14.43 6.28-14.43 14.02Z"/>
  </g>
  <g id="c3">
    <path d="M268.56 508.43c0 7.74 6.46 14.02 14.43 14.02s14.43-6.28 14.43-14.02-6.46-14.02-14.43-14.02-14.43 6.27-14.43 14.02ZM648.97 425.06c0 7.74 6.46 14.02 14.43 14.02s14.43-6.27 14.43-14.02-6.46-14.02-14.43-14.02-14.43 6.27-14.43 14.02ZM987.12 383.37c0 7.74 6.46 14.02 14.43 14.02s14.43-6.28 14.43-14.02-6.46-14.02-14.43-14.02-14.43 6.27-14.43 14.02ZM564.44 174.94c0 7.74 6.46 14.02 14.43 14.02s14.43-6.27 14.43-14.02-6.46-14.02-14.43-14.02-14.43 6.28-14.43 14.02ZM1029.39 133.26c0 7.74 6.46 14.02 14.43 14.02s14.42-6.28 14.42-14.02-6.46-14.02-14.42-14.02-14.43 6.28-14.43 14.02ZM99.49 91.57c0 7.74 6.46 14.02 14.43 14.02s14.43-6.27 14.43-14.02-6.46-14.02-14.43-14.02-14.43 6.28-14.43 14.02Z"/>
  </g>
  <g id="c4">
    <path d="M57.22 508.43c0 7.74 6.46 14.02 14.43 14.02s14.43-6.28 14.43-14.02-6.46-14.02-14.43-14.02-14.43 6.27-14.43 14.02ZM691.24 425.06c0 7.74 6.46 14.02 14.43 14.02s14.43-6.27 14.43-14.02-6.46-14.02-14.43-14.02-14.43 6.27-14.43 14.02ZM1029.39 300c0 7.74 6.46 14.02 14.43 14.02s14.42-6.28 14.42-14.02-6.46-14.02-14.42-14.02-14.43 6.28-14.43 14.02ZM522.17 300c0 7.74 6.46 14.02 14.43 14.02s14.43-6.28 14.43-14.02-6.46-14.02-14.43-14.02-14.43 6.28-14.43 14.02ZM818.05 258.32c0 7.74 6.46 14.02 14.43 14.02s14.43-6.27 14.43-14.02-6.46-14.02-14.43-14.02-14.43 6.28-14.43 14.02ZM775.78 91.57c0 7.74 6.46 14.02 14.43 14.02s14.43-6.27 14.43-14.02-6.46-14.02-14.43-14.02-14.43 6.28-14.43 14.02ZM1156.19 49.89c0 7.74 6.46 14.02 14.43 14.02s14.43-6.28 14.43-14.02-6.46-14.02-14.43-14.02-14.43 6.28-14.43 14.02Z"/>
  </g>
  <g id="c5">
    <path d="M733.51 550.11c0 7.74 6.46 14.02 14.43 14.02s14.43-6.28 14.43-14.02-6.46-14.02-14.43-14.02-14.43 6.28-14.43 14.02ZM184.02 550.11c0 7.74 6.46 14.02 14.43 14.02s14.43-6.28 14.43-14.02-6.46-14.02-14.43-14.02-14.43 6.28-14.43 14.02ZM437.63 341.68c0 7.74 6.46 14.02 14.43 14.02s14.43-6.28 14.43-14.02-6.46-14.02-14.43-14.02-14.43 6.27-14.43 14.02ZM57.22 174.94c0 7.74 6.46 14.02 14.43 14.02s14.43-6.27 14.43-14.02-6.46-14.02-14.43-14.02-14.43 6.28-14.43 14.02ZM691.24 91.57c0 7.74 6.46 14.02 14.43 14.02s14.43-6.27 14.43-14.02-6.46-14.02-14.43-14.02-14.43 6.28-14.43 14.02ZM1113.92 49.89c0 7.74 6.46 14.02 14.43 14.02s14.43-6.28 14.43-14.02-6.46-14.02-14.43-14.02-14.43 6.28-14.43 14.02Z"/>
  </g>
  <g id="c6">
    <path d="M240.72 522.44c7.97 0 14.43-6.28 14.43-14.02s-6.46-14.02-14.43-14.02-14.43 6.27-14.43 14.02 6.46 14.02 14.43 14.02ZM733.51 341.68c0 7.74 6.46 14.02 14.43 14.02s14.43-6.28 14.43-14.02-6.46-14.02-14.43-14.02-14.43 6.27-14.43 14.02ZM1071.66 300c0 7.74 6.46 14.02 14.42 14.02s14.43-6.28 14.43-14.02-6.46-14.02-14.43-14.02-14.42 6.28-14.42 14.02ZM648.97 216.63c0 7.74 6.46 14.02 14.43 14.02s14.43-6.27 14.43-14.02-6.46-14.02-14.43-14.02-14.43 6.28-14.43 14.02ZM99.49 174.94c0 7.74 6.46 14.02 14.43 14.02s14.43-6.27 14.43-14.02-6.46-14.02-14.43-14.02-14.43 6.28-14.43 14.02ZM902.58 133.26c0 7.74 6.46 14.02 14.43 14.02s14.43-6.28 14.43-14.02-6.46-14.02-14.43-14.02-14.43 6.28-14.43 14.02ZM1071.66 49.89c0 7.74 6.46 14.02 14.42 14.02s14.43-6.28 14.43-14.02-6.46-14.02-14.43-14.02-14.42 6.28-14.42 14.02Z"/>
  </g>
  <g id="c7">
    <path d="M648.97 591.8c0 7.74 6.46 14.02 14.43 14.02s14.43-6.27 14.43-14.02-6.46-14.02-14.43-14.02-14.43 6.27-14.43 14.02ZM621.13 439.07c7.97 0 14.43-6.27 14.43-14.02s-6.46-14.02-14.43-14.02-14.43 6.28-14.43 14.02 6.46 14.02 14.43 14.02ZM198.45 439.07c7.97 0 14.43-6.27 14.43-14.02s-6.46-14.02-14.43-14.02-14.43 6.28-14.43 14.02 6.46 14.02 14.43 14.02ZM1156.19 258.32c0 7.74 6.46 14.02 14.43 14.02s14.43-6.27 14.43-14.02-6.46-14.02-14.43-14.02-14.43 6.28-14.43 14.02ZM987.12 216.63c0 7.74 6.46 14.02 14.43 14.02s14.43-6.27 14.43-14.02-6.46-14.02-14.43-14.02-14.43 6.28-14.43 14.02ZM874.74 188.96c7.97 0 14.43-6.28 14.43-14.02s-6.46-14.02-14.43-14.02-14.43 6.28-14.43 14.02 6.46 14.02 14.43 14.02ZM648.97 133.26c0 7.74 6.46 14.02 14.43 14.02s14.43-6.28 14.43-14.02-6.46-14.02-14.43-14.02-14.43 6.28-14.43 14.02ZM14.95 91.57c0 7.74 6.46 14.02 14.43 14.02s14.43-6.27 14.43-14.02-6.46-14.02-14.43-14.02-14.43 6.28-14.43 14.02ZM1029.39 49.89c0 7.74 6.46 14.02 14.43 14.02s14.42-6.28 14.42-14.02-6.46-14.02-14.42-14.02-14.43 6.28-14.43 14.02Z"/>
  </g>
  <g id="c8">
    <path d="M141.76 508.43c0 7.74 6.46 14.02 14.43 14.02s14.43-6.28 14.43-14.02-6.46-14.02-14.43-14.02-14.43 6.27-14.43 14.02ZM479.9 425.06c0 7.74 6.46 14.02 14.43 14.02s14.43-6.27 14.43-14.02-6.46-14.02-14.43-14.02-14.43 6.27-14.43 14.02ZM818.05 300c0 7.74 6.46 14.02 14.43 14.02s14.43-6.28 14.43-14.02-6.46-14.02-14.43-14.02-14.43 6.28-14.43 14.02ZM775.78 174.94c0 7.74 6.46 14.02 14.43 14.02s14.43-6.27 14.43-14.02-6.46-14.02-14.43-14.02-14.43 6.28-14.43 14.02ZM479.9 91.57c0 7.74 6.46 14.02 14.43 14.02s14.43-6.27 14.43-14.02-6.46-14.02-14.43-14.02-14.43 6.28-14.43 14.02ZM987.12 49.89c0 7.74 6.46 14.02 14.43 14.02s14.43-6.28 14.43-14.02-6.46-14.02-14.43-14.02-14.43 6.28-14.43 14.02Z"/>
  </g>
  <g id="c9">
    <path d="M775.78 550.11c0 7.74 6.46 14.02 14.43 14.02s14.43-6.28 14.43-14.02-6.46-14.02-14.43-14.02-14.43 6.28-14.43 14.02ZM648.97 341.68c0 7.74 6.46 14.02 14.43 14.02s14.43-6.28 14.43-14.02-6.46-14.02-14.43-14.02-14.43 6.27-14.43 14.02ZM902.58 300c0 7.74 6.46 14.02 14.43 14.02s14.43-6.28 14.43-14.02-6.46-14.02-14.43-14.02-14.43 6.28-14.43 14.02ZM479.9 258.32c0 7.74 6.46 14.02 14.43 14.02s14.43-6.27 14.43-14.02-6.46-14.02-14.43-14.02-14.43 6.28-14.43 14.02ZM1156.19 216.63c0 7.74 6.46 14.02 14.43 14.02s14.43-6.27 14.43-14.02-6.46-14.02-14.43-14.02-14.43 6.28-14.43 14.02ZM14.95 174.94c0 7.74 6.46 14.02 14.43 14.02s14.43-6.27 14.43-14.02-6.46-14.02-14.43-14.02-14.43 6.28-14.43 14.02ZM944.85 49.89c0 7.74 6.46 14.02 14.43 14.02s14.43-6.28 14.43-14.02-6.46-14.02-14.43-14.02-14.43 6.28-14.43 14.02Z"/>
  </g>
  <g id="c10">
    <path d="M648.97 508.43c0 7.74 6.46 14.02 14.43 14.02s14.43-6.28 14.43-14.02-6.46-14.02-14.43-14.02-14.43 6.27-14.43 14.02ZM902.58 258.32c0 7.74 6.46 14.02 14.43 14.02s14.43-6.27 14.43-14.02-6.46-14.02-14.43-14.02-14.43 6.28-14.43 14.02ZM522.17 258.32c0 7.74 6.46 14.02 14.43 14.02s14.43-6.27 14.43-14.02-6.46-14.02-14.43-14.02-14.43 6.28-14.43 14.02ZM1029.39 216.63c0 7.74 6.46 14.02 14.43 14.02s14.42-6.27 14.42-14.02-6.46-14.02-14.42-14.02-14.43 6.28-14.43 14.02ZM691.24 216.63c0 7.74 6.46 14.02 14.43 14.02s14.43-6.27 14.43-14.02-6.46-14.02-14.43-14.02-14.43 6.28-14.43 14.02ZM184.02 133.26c0 7.74 6.46 14.02 14.43 14.02s14.43-6.28 14.43-14.02-6.46-14.02-14.43-14.02-14.43 6.28-14.43 14.02ZM902.58 49.89c0 7.74 6.46 14.02 14.43 14.02s14.43-6.28 14.43-14.02-6.46-14.02-14.43-14.02-14.43 6.28-14.43 14.02Z"/>
  </g>
  <g id="c11">
    <path d="M99.49 550.11c0 7.74 6.46 14.02 14.43 14.02s14.43-6.28 14.43-14.02-6.46-14.02-14.43-14.02-14.43 6.28-14.43 14.02ZM564.44 425.06c0 7.74 6.46 14.02 14.43 14.02s14.43-6.27 14.43-14.02-6.46-14.02-14.43-14.02-14.43 6.27-14.43 14.02ZM987.12 341.68c0 7.74 6.46 14.02 14.43 14.02s14.43-6.28 14.43-14.02-6.46-14.02-14.43-14.02-14.43 6.27-14.43 14.02ZM479.9 341.68c0 7.74 6.46 14.02 14.43 14.02s14.43-6.28 14.43-14.02-6.46-14.02-14.43-14.02-14.43 6.27-14.43 14.02ZM691.24 300c0 7.74 6.46 14.02 14.43 14.02s14.43-6.28 14.43-14.02-6.46-14.02-14.43-14.02-14.43 6.28-14.43 14.02ZM1128.35 105.59c7.97 0 14.43-6.27 14.43-14.02s-6.46-14.02-14.43-14.02-14.43 6.28-14.43 14.02 6.46 14.02 14.43 14.02ZM860.32 49.89c0 7.74 6.46 14.02 14.43 14.02s14.43-6.28 14.43-14.02-6.46-14.02-14.43-14.02-14.43 6.28-14.43 14.02Z"/>
  </g>
  <g id="c12">
    <path d="M691.24 508.43c0 7.74 6.46 14.02 14.43 14.02s14.43-6.28 14.43-14.02-6.46-14.02-14.43-14.02-14.43 6.27-14.43 14.02ZM99.49 341.68c0 7.74 6.46 14.02 14.43 14.02s14.43-6.28 14.43-14.02-6.46-14.02-14.43-14.02-14.43 6.27-14.43 14.02ZM437.63 300c0 7.74 6.46 14.02 14.43 14.02s14.43-6.28 14.43-14.02-6.46-14.02-14.43-14.02-14.43 6.28-14.43 14.02ZM606.71 258.32c0 7.74 6.46 14.02 14.43 14.02s14.43-6.27 14.43-14.02-6.46-14.02-14.43-14.02-14.43 6.28-14.43 14.02ZM1071.66 216.63c0 7.74 6.46 14.02 14.42 14.02s14.43-6.27 14.43-14.02-6.46-14.02-14.43-14.02-14.42 6.28-14.42 14.02ZM818.05 49.89c0 7.74 6.46 14.02 14.43 14.02s14.43-6.28 14.43-14.02-6.46-14.02-14.43-14.02-14.43 6.28-14.43 14.02Z"/>
  </g>
  <g id="c13">
    <path d="M141.76 591.8c0 7.74 6.46 14.02 14.43 14.02s14.43-6.27 14.43-14.02-6.46-14.02-14.43-14.02-14.43 6.27-14.43 14.02ZM775.78 341.68c0 7.74 6.46 14.02 14.43 14.02s14.43-6.28 14.43-14.02-6.46-14.02-14.43-14.02-14.43 6.27-14.43 14.02ZM902.58 216.63c0 7.74 6.46 14.02 14.43 14.02s14.43-6.27 14.43-14.02-6.46-14.02-14.43-14.02-14.43 6.28-14.43 14.02ZM860.32 133.26c0 7.74 6.46 14.02 14.43 14.02s14.43-6.28 14.43-14.02-6.46-14.02-14.43-14.02-14.43 6.28-14.43 14.02ZM691.24 133.26c0 7.74 6.46 14.02 14.43 14.02s14.43-6.28 14.43-14.02-6.46-14.02-14.43-14.02-14.43 6.28-14.43 14.02ZM944.85 91.57c0 7.74 6.46 14.02 14.43 14.02s14.43-6.27 14.43-14.02-6.46-14.02-14.43-14.02-14.43 6.28-14.43 14.02ZM775.78 49.89c0 7.74 6.46 14.02 14.43 14.02s14.43-6.28 14.43-14.02-6.46-14.02-14.43-14.02-14.43 6.28-14.43 14.02Z"/>
  </g>
  <g id="c14">
    <path d="M606.71 591.8c0 7.74 6.46 14.02 14.43 14.02s14.43-6.27 14.43-14.02-6.46-14.02-14.43-14.02-14.43 6.27-14.43 14.02ZM141.76 425.06c0 7.74 6.46 14.02 14.43 14.02s14.43-6.27 14.43-14.02-6.46-14.02-14.43-14.02-14.43 6.27-14.43 14.02ZM733.51 383.37c0 7.74 6.46 14.02 14.43 14.02s14.43-6.28 14.43-14.02-6.46-14.02-14.43-14.02-14.43 6.27-14.43 14.02ZM522.17 341.68c0 7.74 6.46 14.02 14.43 14.02s14.43-6.28 14.43-14.02-6.46-14.02-14.43-14.02-14.43 6.27-14.43 14.02ZM944.85 216.63c0 7.74 6.46 14.02 14.43 14.02s14.43-6.27 14.43-14.02-6.46-14.02-14.43-14.02-14.43 6.28-14.43 14.02ZM1156.19 174.94c0 7.74 6.46 14.02 14.43 14.02s14.43-6.27 14.43-14.02-6.46-14.02-14.43-14.02-14.43 6.28-14.43 14.02ZM733.51 133.26c0 7.74 6.46 14.02 14.43 14.02s14.43-6.28 14.43-14.02-6.46-14.02-14.43-14.02-14.43 6.28-14.43 14.02ZM57.22 91.57c0 7.74 6.46 14.02 14.43 14.02s14.43-6.27 14.43-14.02-6.46-14.02-14.43-14.02-14.43 6.28-14.43 14.02ZM564.44 49.89c0 7.74 6.46 14.02 14.43 14.02s14.43-6.28 14.43-14.02-6.46-14.02-14.43-14.02-14.43 6.28-14.43 14.02Z"/>
  </g>
  <g id="c15">
    <path d="M621.13 522.44c7.97 0 14.43-6.28 14.43-14.02s-6.46-14.02-14.43-14.02-14.43 6.27-14.43 14.02 6.46 14.02 14.43 14.02ZM198.45 522.44c7.97 0 14.43-6.28 14.43-14.02s-6.46-14.02-14.43-14.02-14.43 6.27-14.43 14.02 6.46 14.02 14.43 14.02ZM1156.19 383.37c0 7.74 6.46 14.02 14.43 14.02s14.43-6.28 14.43-14.02-6.46-14.02-14.43-14.02-14.43 6.27-14.43 14.02ZM648.97 300c0 7.74 6.46 14.02 14.43 14.02s14.43-6.28 14.43-14.02-6.46-14.02-14.43-14.02-14.43 6.28-14.43 14.02ZM874.74 230.65c7.97 0 14.43-6.27 14.43-14.02s-6.46-14.02-14.43-14.02-14.43 6.27-14.43 14.02 6.46 14.02 14.43 14.02ZM1029.39 174.94c0 7.74 6.46 14.02 14.43 14.02s14.42-6.27 14.42-14.02-6.46-14.02-14.42-14.02-14.43 6.28-14.43 14.02ZM733.51 49.89c0 7.74 6.46 14.02 14.43 14.02s14.43-6.28 14.43-14.02-6.46-14.02-14.43-14.02-14.43 6.28-14.43 14.02ZM99.49 49.89c0 7.74 6.46 14.02 14.43 14.02s14.43-6.28 14.43-14.02-6.46-14.02-14.43-14.02-14.43 6.28-14.43 14.02Z"/>
  </g>
  <g id="c16">
    <path d="M226.29 466.74c0 7.74 6.46 14.02 14.43 14.02s14.43-6.28 14.43-14.02-6.46-14.02-14.43-14.02-14.43 6.28-14.43 14.02ZM775.78 425.06c0 7.74 6.46 14.02 14.43 14.02s14.43-6.27 14.43-14.02-6.46-14.02-14.43-14.02-14.43 6.27-14.43 14.02ZM733.51 300c0 7.74 6.46 14.02 14.43 14.02s14.43-6.28 14.43-14.02-6.46-14.02-14.43-14.02-14.43 6.28-14.43 14.02ZM987.12 174.94c0 7.74 6.46 14.02 14.43 14.02s14.43-6.27 14.43-14.02-6.46-14.02-14.43-14.02-14.43 6.28-14.43 14.02ZM1156.19 133.26c0 7.74 6.46 14.02 14.43 14.02s14.43-6.28 14.43-14.02-6.46-14.02-14.43-14.02-14.43 6.28-14.43 14.02ZM621.13 105.59c7.97 0 14.43-6.27 14.43-14.02s-6.46-14.02-14.43-14.02-14.43 6.28-14.43 14.02 6.46 14.02 14.43 14.02ZM57.22 49.89c0 7.74 6.46 14.02 14.43 14.02s14.43-6.28 14.43-14.02-6.46-14.02-14.43-14.02-14.43 6.28-14.43 14.02Z"/>
  </g>
  <g id="c17">
    <path d="M564.44 341.68c0 7.74 6.46 14.02 14.43 14.02s14.43-6.28 14.43-14.02-6.46-14.02-14.43-14.02-14.43 6.27-14.43 14.02ZM944.85 300c0 7.74 6.46 14.02 14.43 14.02s14.43-6.28 14.43-14.02-6.46-14.02-14.43-14.02-14.43 6.28-14.43 14.02ZM818.05 174.94c0 7.74 6.46 14.02 14.43 14.02s14.43-6.27 14.43-14.02-6.46-14.02-14.43-14.02-14.43 6.28-14.43 14.02ZM57.22 133.26c0 7.74 6.46 14.02 14.43 14.02s14.43-6.28 14.43-14.02-6.46-14.02-14.43-14.02-14.43 6.28-14.43 14.02ZM1071.66 8.2c0 7.74 6.46 14.02 14.42 14.02s14.43-6.28 14.43-14.02-6.46-14.02-14.43-14.02-14.42 6.28-14.42 14.02Z"/>
  </g>
  <g id="c18">
    <path d="M733.51 425.06c0 7.74 6.46 14.02 14.43 14.02s14.43-6.27 14.43-14.02-6.46-14.02-14.43-14.02-14.43 6.27-14.43 14.02ZM987.12 258.32c0 7.74 6.46 14.02 14.43 14.02s14.43-6.27 14.43-14.02-6.46-14.02-14.43-14.02-14.43 6.28-14.43 14.02ZM733.51 216.63c0 7.74 6.46 14.02 14.43 14.02s14.43-6.27 14.43-14.02-6.46-14.02-14.43-14.02-14.43 6.28-14.43 14.02ZM522.17 216.63c0 7.74 6.46 14.02 14.43 14.02s14.43-6.27 14.43-14.02-6.46-14.02-14.43-14.02-14.43 6.28-14.43 14.02ZM141.76 174.94c0 7.74 6.46 14.02 14.43 14.02s14.43-6.27 14.43-14.02-6.46-14.02-14.43-14.02-14.43 6.28-14.43 14.02ZM648.97 91.57c0 7.74 6.46 14.02 14.43 14.02s14.43-6.27 14.43-14.02-6.46-14.02-14.43-14.02-14.43 6.28-14.43 14.02ZM1029.39 8.2c0 7.74 6.46 14.02 14.43 14.02s14.42-6.28 14.42-14.02-6.46-14.02-14.42-14.02-14.43 6.28-14.43 14.02Z"/>
  </g>
  <g id="c19">
    <path d="M733.51 508.43c0 7.74 6.46 14.02 14.43 14.02s14.43-6.28 14.43-14.02-6.46-14.02-14.43-14.02-14.43 6.27-14.43 14.02ZM1156.19 341.68c0 7.74 6.46 14.02 14.43 14.02s14.43-6.28 14.43-14.02-6.46-14.02-14.43-14.02-14.43 6.27-14.43 14.02ZM944.85 341.68c0 7.74 6.46 14.02 14.43 14.02s14.43-6.28 14.43-14.02-6.46-14.02-14.43-14.02-14.43 6.27-14.43 14.02ZM691.24 341.68c0 7.74 6.46 14.02 14.43 14.02s14.43-6.28 14.43-14.02-6.46-14.02-14.43-14.02-14.43 6.27-14.43 14.02ZM57.22 216.63c0 7.74 6.46 14.02 14.43 14.02s14.43-6.27 14.43-14.02-6.46-14.02-14.43-14.02-14.43 6.28-14.43 14.02ZM818.05 91.57c0 7.74 6.46 14.02 14.43 14.02s14.43-6.27 14.43-14.02-6.46-14.02-14.43-14.02-14.43 6.28-14.43 14.02ZM902.58 8.2c0 7.74 6.46 14.02 14.43 14.02s14.43-6.28 14.43-14.02-6.46-14.02-14.43-14.02S902.58.46 902.58 8.2Z"/>
  </g>
  <g id="c20">
    <path d="M226.29 550.11c0 7.74 6.46 14.02 14.43 14.02s14.43-6.28 14.43-14.02-6.46-14.02-14.43-14.02-14.43 6.28-14.43 14.02ZM621.13 397.39c7.97 0 14.43-6.27 14.43-14.02s-6.46-14.02-14.43-14.02-14.43 6.27-14.43 14.02 6.46 14.02 14.43 14.02ZM1071.66 341.68c0 7.74 6.46 14.02 14.42 14.02s14.43-6.28 14.43-14.02-6.46-14.02-14.43-14.02-14.42 6.27-14.42 14.02ZM14.95 216.63c0 7.74 6.46 14.02 14.43 14.02s14.43-6.27 14.43-14.02-6.46-14.02-14.43-14.02-14.43 6.28-14.43 14.02ZM902.58 174.94c0 7.74 6.46 14.02 14.43 14.02s14.43-6.27 14.43-14.02-6.46-14.02-14.43-14.02-14.43 6.28-14.43 14.02ZM648.97 174.94c0 7.74 6.46 14.02 14.43 14.02s14.43-6.27 14.43-14.02-6.46-14.02-14.43-14.02-14.43 6.28-14.43 14.02ZM860.32 8.2c0 7.74 6.46 14.02 14.43 14.02s14.43-6.28 14.43-14.02-6.46-14.02-14.43-14.02S860.32.46 860.32 8.2Z"/>
  </g>
  <g id="c21">
    <path d="M99.49 508.43c0 7.74 6.46 14.02 14.43 14.02s14.43-6.28 14.43-14.02-6.46-14.02-14.43-14.02-14.43 6.27-14.43 14.02ZM733.51 466.74c0 7.74 6.46 14.02 14.43 14.02s14.43-6.28 14.43-14.02-6.46-14.02-14.43-14.02-14.43 6.28-14.43 14.02ZM1113.92 341.68c0 7.74 6.46 14.02 14.43 14.02s14.43-6.28 14.43-14.02-6.46-14.02-14.43-14.02-14.43 6.27-14.43 14.02ZM606.71 341.68c0 7.74 6.46 14.02 14.43 14.02s14.43-6.28 14.43-14.02-6.46-14.02-14.43-14.02-14.43 6.27-14.43 14.02ZM775.78 258.32c0 7.74 6.46 14.02 14.43 14.02s14.43-6.27 14.43-14.02-6.46-14.02-14.43-14.02-14.43 6.28-14.43 14.02ZM479.9 216.63c0 7.74 6.46 14.02 14.43 14.02s14.43-6.27 14.43-14.02-6.46-14.02-14.43-14.02-14.43 6.28-14.43 14.02ZM987.12 133.26c0 7.74 6.46 14.02 14.43 14.02s14.43-6.28 14.43-14.02-6.46-14.02-14.43-14.02-14.43 6.28-14.43 14.02ZM606.71 49.89c0 7.74 6.46 14.02 14.43 14.02s14.43-6.28 14.43-14.02-6.46-14.02-14.43-14.02-14.43 6.28-14.43 14.02ZM1113.92 8.2c0 7.74 6.46 14.02 14.43 14.02s14.43-6.28 14.43-14.02-6.46-14.02-14.43-14.02-14.43 6.28-14.43 14.02ZM818.05 8.2c0 7.74 6.46 14.02 14.43 14.02s14.43-6.28 14.43-14.02-6.46-14.02-14.43-14.02S818.05.46 818.05 8.2Z"/>
  </g>
  <g id="c22">
    <path d="M691.24 591.8c0 7.74 6.46 14.02 14.43 14.02s14.43-6.27 14.43-14.02-6.46-14.02-14.43-14.02-14.43 6.27-14.43 14.02ZM437.63 383.37c0 7.74 6.46 14.02 14.43 14.02s14.43-6.28 14.43-14.02-6.46-14.02-14.43-14.02-14.43 6.27-14.43 14.02ZM57.22 341.68c0 7.74 6.46 14.02 14.43 14.02s14.43-6.28 14.43-14.02-6.46-14.02-14.43-14.02-14.43 6.27-14.43 14.02ZM944.85 258.32c0 7.74 6.46 14.02 14.43 14.02s14.43-6.28 14.43-14.02-6.46-14.02-14.43-14.02-14.43 6.28-14.43 14.02ZM621.13 188.96c7.97 0 14.43-6.28 14.43-14.02s-6.46-14.02-14.43-14.02-14.43 6.28-14.43 14.02 6.46 14.02 14.43 14.02ZM198.45 105.59c7.97 0 14.43-6.27 14.43-14.02s-6.46-14.02-14.43-14.02-14.43 6.28-14.43 14.02 6.46 14.02 14.43 14.02ZM1156.19 8.2c0 7.74 6.46 14.02 14.43 14.02s14.43-6.28 14.43-14.02-6.46-14.02-14.43-14.02-14.43 6.28-14.43 14.02ZM775.78 8.2c0 7.74 6.46 14.02 14.43 14.02s14.43-6.28 14.43-14.02-6.46-14.02-14.43-14.02S775.78.46 775.78 8.2Z"/>
  </g>
  <g id="c23">
    <path d="M184.02 591.8c0 7.74 6.46 14.02 14.43 14.02s14.43-6.27 14.43-14.02-6.46-14.02-14.43-14.02-14.43 6.27-14.43 14.02ZM648.97 550.11c0 7.74 6.46 14.02 14.43 14.02s14.43-6.28 14.43-14.02-6.46-14.02-14.43-14.02-14.43 6.28-14.43 14.02ZM564.44 300c0 7.74 6.46 14.02 14.43 14.02s14.43-6.28 14.43-14.02-6.46-14.02-14.43-14.02-14.43 6.28-14.43 14.02ZM1113.92 258.32c0 7.74 6.46 14.02 14.43 14.02s14.43-6.27 14.43-14.02-6.46-14.02-14.43-14.02-14.43 6.28-14.43 14.02ZM14.95 258.32c0 7.74 6.46 14.02 14.43 14.02s14.43-6.27 14.43-14.02-6.46-14.02-14.43-14.02-14.43 6.28-14.43 14.02ZM268.56 49.89c0 7.74 6.46 14.02 14.43 14.02s14.43-6.28 14.43-14.02-6.46-14.02-14.43-14.02-14.43 6.28-14.43 14.02ZM733.51 8.2c0 7.74 6.46 14.02 14.43 14.02s14.43-6.28 14.43-14.02-6.46-14.02-14.43-14.02S733.51.46 733.51 8.2Z"/>
  </g>
  <g id="c24">
    <path d="M14.95 383.37c0 7.74 6.46 14.02 14.43 14.02s14.43-6.28 14.43-14.02-6.46-14.02-14.43-14.02-14.43 6.27-14.43 14.02ZM860.32 258.32c0 7.74 6.46 14.02 14.43 14.02s14.43-6.27 14.43-14.02-6.46-14.02-14.43-14.02-14.43 6.28-14.43 14.02ZM1128.35 230.65c7.97 0 14.43-6.27 14.43-14.02s-6.46-14.02-14.43-14.02-14.43 6.27-14.43 14.02 6.46 14.02 14.43 14.02ZM621.13 230.65c7.97 0 14.43-6.27 14.43-14.02s-6.46-14.02-14.43-14.02-14.43 6.27-14.43 14.02 6.46 14.02 14.43 14.02ZM775.78 133.26c0 7.74 6.46 14.02 14.43 14.02s14.43-6.28 14.43-14.02-6.46-14.02-14.43-14.02-14.43 6.28-14.43 14.02ZM141.76 49.89c0 7.74 6.46 14.02 14.43 14.02s14.43-6.28 14.43-14.02-6.46-14.02-14.43-14.02-14.43 6.28-14.43 14.02ZM691.24 8.2c0 7.74 6.46 14.02 14.43 14.02S720.1 15.94 720.1 8.2s-6.46-14.02-14.43-14.02S691.24.46 691.24 8.2Z"/>
  </g>
  <g id="c25">
    <path d="M226.29 591.8c0 7.74 6.46 14.02 14.43 14.02s14.43-6.27 14.43-14.02-6.46-14.02-14.43-14.02-14.43 6.27-14.43 14.02ZM691.24 383.37c0 7.74 6.46 14.02 14.43 14.02s14.43-6.28 14.43-14.02-6.46-14.02-14.43-14.02-14.43 6.27-14.43 14.02ZM1071.66 258.32c0 7.74 6.46 14.02 14.42 14.02s14.43-6.27 14.43-14.02-6.46-14.02-14.43-14.02-14.42 6.28-14.42 14.02ZM648.97 258.32c0 7.74 6.46 14.02 14.43 14.02s14.43-6.27 14.43-14.02-6.46-14.02-14.43-14.02-14.43 6.28-14.43 14.02ZM944.85 8.2c0 7.74 6.46 14.02 14.43 14.02s14.43-6.28 14.43-14.02-6.46-14.02-14.43-14.02S944.85.46 944.85 8.2ZM606.71 8.2c0 7.74 6.46 14.02 14.43 14.02s14.43-6.28 14.43-14.02-6.46-14.02-14.43-14.02S606.71.46 606.71 8.2Z"/>
  </g>
  <g id="c26">
    <path d="M268.56 466.74c0 7.74 6.46 14.02 14.43 14.02s14.43-6.28 14.43-14.02-6.46-14.02-14.43-14.02-14.43 6.28-14.43 14.02ZM874.74 314.02c7.97 0 14.43-6.28 14.43-14.02s-6.46-14.02-14.43-14.02-14.43 6.28-14.43 14.02 6.46 14.02 14.43 14.02ZM564.44 258.32c0 7.74 6.46 14.02 14.43 14.02s14.43-6.27 14.43-14.02-6.46-14.02-14.43-14.02-14.43 6.28-14.43 14.02ZM1071.66 174.94c0 7.74 6.46 14.02 14.42 14.02s14.43-6.27 14.43-14.02-6.46-14.02-14.43-14.02-14.42 6.28-14.42 14.02ZM691.24 49.89c0 7.74 6.46 14.02 14.43 14.02s14.43-6.28 14.43-14.02-6.46-14.02-14.43-14.02-14.43 6.28-14.43 14.02ZM437.63 8.2c0 7.74 6.46 14.02 14.43 14.02s14.43-6.28 14.43-14.02-6.46-14.02-14.43-14.02S437.63.46 437.63 8.2Z"/>
  </g>
  <g id="c27">
    <path d="M606.71 550.11c0 7.74 6.46 14.02 14.43 14.02s14.43-6.28 14.43-14.02-6.46-14.02-14.43-14.02-14.43 6.28-14.43 14.02ZM522.17 383.37c0 7.74 6.46 14.02 14.43 14.02s14.43-6.28 14.43-14.02-6.46-14.02-14.43-14.02-14.43 6.27-14.43 14.02ZM99.49 383.37c0 7.74 6.46 14.02 14.43 14.02s14.43-6.28 14.43-14.02-6.46-14.02-14.43-14.02-14.43 6.27-14.43 14.02ZM818.05 341.68c0 7.74 6.46 14.02 14.43 14.02s14.43-6.28 14.43-14.02-6.46-14.02-14.43-14.02-14.43 6.27-14.43 14.02ZM1128.35 188.96c7.97 0 14.43-6.28 14.43-14.02s-6.46-14.02-14.43-14.02-14.43 6.28-14.43 14.02 6.46 14.02 14.43 14.02ZM479.9 174.94c0 7.74 6.46 14.02 14.43 14.02s14.43-6.27 14.43-14.02-6.46-14.02-14.43-14.02-14.43 6.28-14.43 14.02ZM1029.39 91.57c0 7.74 6.46 14.02 14.43 14.02s14.42-6.27 14.42-14.02-6.46-14.02-14.42-14.02-14.43 6.28-14.43 14.02ZM733.51 91.57c0 7.74 6.46 14.02 14.43 14.02s14.43-6.27 14.43-14.02-6.46-14.02-14.43-14.02-14.43 6.28-14.43 14.02ZM395.36 8.2c0 7.74 6.46 14.02 14.43 14.02s14.43-6.28 14.43-14.02-6.46-14.02-14.43-14.02S395.36.46 395.36 8.2Z"/>
  </g>
  <g id="c28">
    <path d="M99.49 466.74c0 7.74 6.46 14.02 14.43 14.02s14.43-6.28 14.43-14.02-6.46-14.02-14.43-14.02-14.43 6.28-14.43 14.02ZM818.05 383.37c0 7.74 6.46 14.02 14.43 14.02s14.43-6.28 14.43-14.02-6.46-14.02-14.43-14.02-14.43 6.27-14.43 14.02ZM1156.19 300c0 7.74 6.46 14.02 14.43 14.02s14.43-6.28 14.43-14.02-6.46-14.02-14.43-14.02-14.43 6.28-14.43 14.02ZM479.9 300c0 7.74 6.46 14.02 14.43 14.02s14.43-6.28 14.43-14.02-6.46-14.02-14.43-14.02-14.43 6.28-14.43 14.02ZM14.95 133.26c0 7.74 6.46 14.02 14.43 14.02s14.43-6.28 14.43-14.02-6.46-14.02-14.43-14.02-14.43 6.28-14.43 14.02ZM874.74 105.59c7.97 0 14.43-6.27 14.43-14.02s-6.46-14.02-14.43-14.02-14.43 6.28-14.43 14.02 6.46 14.02 14.43 14.02ZM268.56 8.2c0 7.74 6.46 14.02 14.43 14.02s14.43-6.28 14.43-14.02-6.46-14.02-14.43-14.02S268.56.46 268.56 8.2Z"/>
  </g>
  <g id="c29">
    <path d="M691.24 550.11c0 7.74 6.46 14.02 14.43 14.02s14.43-6.28 14.43-14.02-6.46-14.02-14.43-14.02-14.43 6.28-14.43 14.02ZM57.22 466.74c0 7.74 6.46 14.02 14.43 14.02s14.43-6.28 14.43-14.02-6.46-14.02-14.43-14.02-14.43 6.28-14.43 14.02ZM648.97 383.37c0 7.74 6.46 14.02 14.43 14.02s14.43-6.28 14.43-14.02-6.46-14.02-14.43-14.02-14.43 6.27-14.43 14.02ZM1029.39 258.32c0 7.74 6.46 14.02 14.43 14.02s14.42-6.27 14.42-14.02-6.46-14.02-14.42-14.02-14.43 6.28-14.43 14.02ZM1113.92 133.26c0 7.74 6.46 14.02 14.43 14.02s14.43-6.28 14.43-14.02-6.46-14.02-14.43-14.02-14.43 6.28-14.43 14.02ZM564.44 133.26c0 7.74 6.46 14.02 14.43 14.02s14.43-6.28 14.43-14.02-6.46-14.02-14.43-14.02-14.43 6.28-14.43 14.02ZM902.58 91.57c0 7.74 6.46 14.02 14.43 14.02s14.43-6.27 14.43-14.02-6.46-14.02-14.43-14.02-14.43 6.28-14.43 14.02ZM648.97 8.2c0 7.74 6.46 14.02 14.43 14.02s14.43-6.28 14.43-14.02-6.46-14.02-14.43-14.02S648.97.46 648.97 8.2ZM226.29 8.2c0 7.74 6.46 14.02 14.43 14.02s14.43-6.28 14.43-14.02-6.46-14.02-14.43-14.02S226.29.46 226.29 8.2Z"/>
  </g>
  <g id="c30">
    <path d="M141.76 466.74c0 7.74 6.46 14.02 14.43 14.02s14.43-6.28 14.43-14.02-6.46-14.02-14.43-14.02-14.43 6.28-14.43 14.02ZM1071.66 425.06c0 7.74 6.46 14.02 14.42 14.02s14.43-6.27 14.43-14.02-6.46-14.02-14.43-14.02-14.42 6.27-14.42 14.02ZM564.44 383.37c0 7.74 6.46 14.02 14.43 14.02s14.43-6.28 14.43-14.02-6.46-14.02-14.43-14.02-14.43 6.27-14.43 14.02ZM775.78 300c0 7.74 6.46 14.02 14.43 14.02s14.43-6.28 14.43-14.02-6.46-14.02-14.43-14.02-14.43 6.28-14.43 14.02ZM944.85 174.94c0 7.74 6.46 14.02 14.43 14.02s14.43-6.27 14.43-14.02-6.46-14.02-14.43-14.02-14.43 6.28-14.43 14.02ZM606.71 133.26c0 7.74 6.46 14.02 14.43 14.02s14.43-6.28 14.43-14.02-6.46-14.02-14.43-14.02-14.43 6.28-14.43 14.02ZM99.49 8.2c0 7.74 6.46 14.02 14.43 14.02s14.43-6.28 14.43-14.02-6.46-14.02-14.43-14.02S99.49.46 99.49 8.2Z"/>
  </g>
  <g id="c31">
    <path d="M691.24 466.74c0 7.74 6.46 14.02 14.43 14.02s14.43-6.28 14.43-14.02-6.46-14.02-14.43-14.02-14.43 6.28-14.43 14.02ZM184.02 466.74c0 7.74 6.46 14.02 14.43 14.02s14.43-6.28 14.43-14.02-6.46-14.02-14.43-14.02-14.43 6.28-14.43 14.02ZM522.17 174.94c0 7.74 6.46 14.02 14.43 14.02s14.43-6.27 14.43-14.02-6.46-14.02-14.43-14.02-14.43 6.28-14.43 14.02ZM944.85 133.26c0 7.74 6.46 14.02 14.43 14.02s14.43-6.28 14.43-14.02-6.46-14.02-14.43-14.02-14.43 6.28-14.43 14.02ZM57.22 8.2c0 7.74 6.46 14.02 14.43 14.02S86.08 15.94 86.08 8.2 79.62-5.82 71.65-5.82 57.22.46 57.22 8.2Z"/>
  </g>
  <g id="c32">
    <path d="M141.76 550.11c0 7.74 6.46 14.02 14.43 14.02s14.43-6.28 14.43-14.02-6.46-14.02-14.43-14.02-14.43 6.28-14.43 14.02ZM1113.92 466.74c0 7.74 6.46 14.02 14.43 14.02s14.43-6.28 14.43-14.02-6.46-14.02-14.43-14.02-14.43 6.28-14.43 14.02ZM479.9 383.37c0 7.74 6.46 14.02 14.43 14.02s14.43-6.28 14.43-14.02-6.46-14.02-14.43-14.02-14.43 6.27-14.43 14.02ZM57.22 300c0 7.74 6.46 14.02 14.43 14.02s14.43-6.28 14.43-14.02-6.46-14.02-14.43-14.02-14.43 6.28-14.43 14.02ZM691.24 258.32c0 7.74 6.46 14.02 14.43 14.02s14.43-6.27 14.43-14.02-6.46-14.02-14.43-14.02-14.43 6.28-14.43 14.02ZM1071.66 133.26c0 7.74 6.46 14.02 14.42 14.02s14.43-6.28 14.43-14.02-6.46-14.02-14.43-14.02-14.42 6.28-14.42 14.02ZM14.95 8.2c0 7.74 6.46 14.02 14.43 14.02S43.81 15.94 43.81 8.2 37.35-5.82 29.38-5.82 14.95.46 14.95 8.2Z"/>
  </g>
  <g id="c33">
    <path d="M775.78 591.8c0 7.74 6.46 14.02 14.43 14.02s14.43-6.27 14.43-14.02-6.46-14.02-14.43-14.02-14.43 6.27-14.43 14.02ZM268.56 550.11c0 7.74 6.46 14.02 14.43 14.02s14.43-6.28 14.43-14.02-6.46-14.02-14.43-14.02-14.43 6.28-14.43 14.02ZM775.78 383.37c0 7.74 6.46 14.02 14.43 14.02s14.43-6.28 14.43-14.02-6.46-14.02-14.43-14.02-14.43 6.27-14.43 14.02ZM987.12 300c0 7.74 6.46 14.02 14.43 14.02s14.43-6.28 14.43-14.02-6.46-14.02-14.43-14.02-14.43 6.28-14.43 14.02ZM621.13 314.02c7.97 0 14.43-6.28 14.43-14.02s-6.46-14.02-14.43-14.02-14.43 6.28-14.43 14.02 6.46 14.02 14.43 14.02ZM818.05 133.26c0 7.74 6.46 14.02 14.43 14.02s14.43-6.28 14.43-14.02-6.46-14.02-14.43-14.02-14.43 6.28-14.43 14.02ZM99.49 133.26c0 7.74 6.46 14.02 14.43 14.02s14.43-6.28 14.43-14.02-6.46-14.02-14.43-14.02-14.43 6.28-14.43 14.02ZM1156.19 91.57c0 7.74 6.46 14.02 14.43 14.02s14.43-6.27 14.43-14.02-6.46-14.02-14.43-14.02-14.43 6.28-14.43 14.02ZM987.12 8.2c0 7.74 6.46 14.02 14.43 14.02s14.43-6.28 14.43-14.02-6.46-14.02-14.43-14.02S987.12.46 987.12 8.2Z"/>
  </g>
</svg>
