<svg xmlns="http://www.w3.org/2000/svg" width="471" height="432" viewBox="0 0 471 432">
<style>
/* <![CDATA[ */

@namespace svg url(http://www.w3.org/2000/svg);

svg|a:link, svg|a:visited {
  cursor: pointer;
}

#main:hover #leaf, #main:hover #leaf_shadow {
  animation: waving 1s ease infinite;
}

@keyframes waving {
  0%, 100% {
    transform: translate(209px, 419px) rotate(0deg) translate(-209px, -419px);
  }
  50% {
    transform: translate(209px, 419px) rotate(-4deg) translate(-209px, -419px);
  }
}

/* ]]> */
</style>
<a id="main" href="javascript;">
<mask id="msk">
  <rect width="470" height="432" x=".57" fill="#FFF"/>
  <path id="leaf_shadow" d="M467.758 203.029c-13.093-15.58-54.41-2.274-69.672 4.705-15.235 7.005-25.584 9.619-26.002 2.849-.941-15.448-1.594-30.505-14.4-20.467-12.805 10.037-23.363 38.373-30.968 48.907-7.605 10.534-10.819 14.22-13.015 11.005-2.195-3.189 1.02-16.233-3.397-18.742-4.416-2.51-10.296.209-25.872 33.537-4.469 9.567-8.284 18.141-11.682 26.375-2.378 2.927-3.946 3.529-5.357 1.777-2.43-3.006-.261-16.259-4.861-18.402-4.599-2.144-10.244 1.019-23.128 35.419-11.342 30.27-17.483 50.659-22.501 80.406-1.206 7.088-2.003 16.953-2.462 24.038-5.973 13.437-9.079 22.07-9.115 22.333l3.789.549c.039-.271 3.503-9.807 10.134-24.426 5.377-10.085 14.103-25.085 22.638-33.865 10.14-10.43 24.565-17.697 38.756-20.833 16.986-3.764 33.973-4.157 35.097-11.842 1.49-10.011-14.609-18.062-15.811-20.284-.601-1.124.026-2.901 2.274-4.574 6.376-2.588 13.04-4.392 19.626-5.333 17.248-2.405 34.235-1.49 35.96-9.07 2.273-9.855-13.172-19.161-14.191-21.487-1.019-2.327 2.927-6.849 14.792-7.607 11.864-.758 42.284 9.254 53.025 8.443 10.74-.81 17.692-7.737 14.687-15.84-3.006-8.13-25.036-12.913-19.209-22.402 3.241-5.254 26.996-12.39 38.965-16.259 9.957-3.215 32.615-16.154 21.9-28.91z"/>
</mask>
<g id="letter" mask="url(#msk)">
  <path fill="#2D4285" d="M86.968 227.755c-4.286-6.483-13.067-8.287-19.548-3.973-3.11 2.065-5.279 5.254-6.037 8.965-.758 3.686-.026 7.45 2.065 10.613 1.307 1.987 4.129 4.235 6.638 4.601v9.854c0 2.823-2.457 9.437-9.33 9.437H35.093v-25.199c1.882-.784 3.632-1.934 5.096-3.581 5.174-5.803 4.652-14.743-1.15-19.918-5.802-5.15-14.739-4.653-19.914 1.15-2.509 2.823-3.763 6.43-3.554 10.194.209 3.764 1.882 7.215 4.704 9.724.287.235.575.471.862.706 1.15.889 2.43 1.49 3.737 1.96v33.355c-2.012.784-3.894 1.96-5.41 3.685-5.174 5.803-4.652 14.743 1.15 19.919.288.235.549.47.862.705 5.802 4.418 14.138 3.686 19.077-1.855 4.809-5.411 4.809-13.907-.078-18.769-.732-.706-1.333-1.281-1.882-1.777H60.78c13.615 0 19.652-11.528 19.652-19.344v-9.645c.889-.34 1.777-.758 2.587-1.307.314-.209.627-.418.915-.654 2.639-2.065 4.443-4.966 5.122-8.312.734-3.607.002-7.371-2.088-10.534zm-63.766 1.725c-.104-1.725.47-3.372 1.62-4.653 2.247-2.535 6.063-2.849 8.702-.836.131.104.261.209.392.313 2.639 2.353 2.875 6.431.523 9.097-2.352 2.64-6.455 2.875-9.094.523-1.281-1.15-2.038-2.719-2.143-4.444zm11.603 63.572c-2.352 2.64-6.403 2.901-9.095.522-2.666-2.352-2.875-6.456-.523-9.096 2.247-2.536 6.063-2.849 8.702-.837.131.105.261.209.392.314 2.641 2.353 2.876 6.43.524 9.097zm46.727-56.201c-.34 1.673-1.333 3.111-2.77 4.078-1.437.941-3.162 1.281-4.835.941-1.673-.34-3.136-1.333-4.077-2.745-.941-1.437-1.281-3.162-.941-4.835.314-1.516 1.124-2.85 2.352-3.791.131-.104.288-.209.418-.287 2.953-1.961 6.978-1.15 8.938 1.83.915 1.385 1.255 3.11.915 4.809z"/>
  <path fill="#FFD000" d="M321.646 84.536S360.794 54.266 342.605 0c0 0-22.396 7.79-18.633 31.289 4.26 26.375 4.495 42.582-2.326 53.247z"/>
  <path fill="#FFD000" d="M47.95 126.438S33.106 154.877.57 141.546c0 0 13.067-31.446 47.38-15.108z"/>
  <path fill="#FFD000" d="M62.193 136.763s23.18 26.061-.026 49.743c0-.026-24.566-26.191.026-49.743z"/>
  <path fill="#FFD000" d="M388.66 121.746V97.619h-24.121v24.127h24.121z"/>
  <path fill="#4551FF" d="M364.539 145.874v-24.127h-24.121v24.127h24.121z"/>
  <path fill="#FF73FA" d="M71.052 118.125h20.672l27.257-27.263-10.349-10.325-37.58 37.588z"/>
  <path fill="#FF73FA" d="M171.274 217.43l20.672-20.677V67.702l-37.58-37.615-.157.157-.157-.157h-20.358l37.58 37.615V217.43z"/>
  <path fill="#FF73FA" d="M171.274 406.001l-25.036 25.068h20.672l25.036-25.068V271.434l41.656-41.666v-20.677l-62.328 62.343v134.567z"/>
  <path fill="#FF73FA" d="M354.496 355.891h-20.672l12.518 12.521-25.036 25.068-12.544 12.521-25.036 25.068h20.672l25.036-25.068 12.544-12.521 25.036-25.068-12.518-12.521z"/>
  <path fill="#FF73FA" d="M133.537 30.243l.156-.156h-.313l.157.156z"/>
  <path fill="#FF73FA" d="M84.903 346.037H51.321v33.589h33.582v-33.589z"/>
  <path fill="#4551FF" d="M283.7 67.702l-37.553-37.615-37.58 37.615 25.062 25.068v62.343l-62.355 62.317V67.702l-37.58-37.615-.157.157-.156-.157-75.16 75.203 12.832 12.835 37.58-37.589 12.518 12.521v312.944l25.062 25.068 25.062-25.068V271.434l62.329-62.343v171.805l50.124 50.147 25.062-25.068 12.517-12.521 25.062-25.068-12.544-12.495-25.062 25.068-25.036-25.015-.027-288.242z"/>
  <path fill="#FF73FA" d="M283.726 355.944l25.036 25.015 10.323-10.325-14.713-14.717.026-288.215-37.58-37.589h-20.672l37.58 37.589v288.242z"/>
  <path fill="#FFD000" d="M257.332 362.831h5.043V84.143h-5.043v67.65L148.407 260.769V84.143h-5.043v299.352h5.043V268.689l108.925-108.95v203.092z"/>
</g>
<g id="leaf">
  <path fill="#FFD000" d="M467.758 185.435c-13.093-15.58-54.41-2.274-69.672 4.705-15.235 7.005-25.584 9.619-26.002 2.849-.941-15.448-1.594-30.505-14.4-20.467-12.805 10.037-23.363 38.373-30.968 48.907s-10.819 14.22-13.015 11.005c-2.195-3.189 1.02-16.233-3.397-18.742-4.416-2.51-10.296.209-25.872 33.537-4.469 9.567-8.284 18.141-11.682 26.375-2.378 2.927-3.946 3.529-5.357 1.777-2.43-3.006-.261-16.259-4.861-18.402-4.599-2.144-10.244 1.019-23.128 35.419-11.342 30.27-17.483 50.659-22.501 80.406-2.091 12.285-2.953 32.936-2.953 32.936s14.217-30.192 27.937-44.307c10.14-10.43 24.565-17.697 38.756-20.833 16.986-3.764 33.973-4.157 35.097-11.842 1.49-10.011-14.609-18.062-15.811-20.284-.601-1.124.026-2.901 2.274-4.574 6.376-2.588 13.04-4.392 19.626-5.333 17.248-2.405 34.235-1.49 35.96-9.07 2.273-9.855-13.172-19.161-14.191-21.487-1.019-2.327 2.927-6.849 14.792-7.607 11.864-.758 42.284 9.254 53.025 8.443 10.74-.81 17.692-7.737 14.687-15.84-3.006-8.13-25.036-12.913-19.209-22.402 3.241-5.254 26.996-12.39 38.965-16.259 9.957-3.215 32.615-16.154 21.9-28.91z"/>
  <path fill="#FFF" d="M205.326 419.175c.131-.941 39.488-108.871 109.003-161.098 48.896-36.727 85.927-50.581 94.655-53.508 1.046-.366 2.195.261 2.457 1.333.261.967-.288 1.96-1.228 2.274-8.128 2.719-44.793 16.285-93.584 52.959-68.261 51.286-107.383 157.674-107.514 158.589l-3.789-.549z"/>
</g>
<rect width="471" height="432" opacity="0"/>
</a>
</svg>
