<svg width="770" height="470" viewBox="0 0 770 470" fill="none" xmlns="http://www.w3.org/2000/svg" xmlns:xlink="http://www.w3.org/1999/xlink">

<style>
/* <![CDATA[ */
#d1 {
  animation: d1 2s linear infinite;
}
@keyframes d1 {
  0% {
    transform: translate(0px, 0px);
  }
  80%, 100% {
    transform: translate(130px, 0px);
  }
}

#d2 {
  animation: d2 2.1s .2s linear infinite;
}
@keyframes d2 {
  0% {
    transform: translate(0px, 0px);
  }
  80%, 100% {
    transform: translate(-130px, 0px);
  }
}

#d3 {
  animation: d3 6s linear infinite;
}
@keyframes d3 {
  0% {
    transform: translate(0px, 0px);
  }
  9.2% {
    transform: translate(0px, 65px);
  }
  70.8% {
    transform: translate(430px, 65px);
  }
  80%, 100% {
    transform: translate(430px, 130px);
  }
}

#d4 {
  animation: d4 6s 2s linear infinite;
}
@keyframes d4 {
  0% {
    transform: translate(0px, 0px);
  }
  9.2% {
    transform: translate(0px, 65px);
  }
  70.8% {
    transform: translate(430px, 65px);
  }
  80%, 100% {
    transform: translate(430px, 130px);
  }
}

#d5 {
  animation: d5 5.8s 2s linear infinite;
}
@keyframes d5 {
  0% {
    transform: translate(0px, 0px);
  }
  9.2% {
    transform: translate(0px, -65px);
  }
  70.8% {
    transform: translate(-430px, -65px);
  }
  80%, 100% {
    transform: translate(-430px, -130px);
  }
}

#d6 {
  animation: d6 5.8s 4s linear infinite;
}
@keyframes d6 {
  0% {
    transform: translate(0px, 0px);
  }
  9.2% {
    transform: translate(0px, -65px);
  }
  70.8% {
    transform: translate(-430px, -65px);
  }
  80%, 100% {
    transform: translate(-430px, -130px);
  }
}

#d7 {
  animation: d7 2.2s .6s linear infinite;
}
@keyframes d7 {
  0% {
    transform: translate(0px, 0px);
  }
  80%, 100% {
    transform: translate(130px, 0px);
  }
}

#d8 {
  animation: d8 2.1s linear infinite;
}
@keyframes d8 {
  0% {
    transform: translate(0px, 0px);
  }
  80%, 100% {
    transform: translate(-130px, 0px);
  }
}

#d9 {
  animation: d9 1.9s linear infinite;
}
@keyframes d9 {
  0% {
    transform: translate(0px, 0px);
  }
  80%, 100% {
    transform: translate(130px, 0px);
  }
}

#d10 {
  animation: d10 2.1s .5s linear infinite;
}
@keyframes d10 {
  0% {
    transform: translate(0px, 0px);
  }
  80%, 100% {
    transform: translate(-130px, 0px);
  }
}
/* ]]> */
</style>

<defs>
<g id="dot">
<circle cx="0" cy="0" r="8" fill="#501DBD" opacity=".1"/>
<circle cx="0" cy="0" r="7" fill="#501DBD" opacity=".1"/>
<circle cx="0" cy="0" r="6" fill="#501DBD" opacity=".1"/>
<circle cx="0" cy="0" r="5" fill="#501DBD" opacity=".1"/>
<circle cx="0" cy="0" r="4" fill="#501DBD" opacity=".1"/>
</g>
</defs>

<use id="d1" x="340" y="85" xlink:href="#dot"/>
<use id="d2" x="470" y="85" xlink:href="#dot"/>
<use id="d3" x="255" y="170" xlink:href="#dot"/>
<use id="d4" x="255" y="170" xlink:href="#dot"/>
<use id="d5" x="685" y="300" xlink:href="#dot"/>
<use id="d6" x="685" y="300" xlink:href="#dot"/>
<use id="d7" x="170" y="385" xlink:href="#dot"/>
<use id="d8" x="300" y="385" xlink:href="#dot"/>
<use id="d9" x="470" y="385" xlink:href="#dot"/>
<use id="d10" x="600" y="385" xlink:href="#dot"/>

<rect x="170" width="170" height="170" rx="8" fill="#1C2530"/>
<path d="M259 85C259 82.875 257.125 81 255 81C252.75 81 251 82.875 251 85C251 87.25 252.75 89 255 89C257.125 89 259 87.25 259 85ZM275 39C275 35.75 272.25 33 269 33H241C237.625 33 235 35.75 235 39V91C235 94.375 237.625 97 241 97H269C272.25 97 275 94.375 275 91V39ZM271 39V91C271 92.125 270 93 269 93H241C239.875 93 239 92.125 239 91V39C239 38 239.875 37 241 37H269C270 37 271 38 271 39Z" fill="#A2A8AF"/>
<path d="M202.833 136.114C202.833 138.914 205.059 141.14 207.859 141.14C210.659 141.14 212.899 138.914 212.899 136.114C212.899 133.314 210.659 131.06 207.859 131.06C205.059 131.06 202.833 133.314 202.833 136.114ZM204.653 136.114C204.653 134.35 206.095 132.88 207.859 132.88C209.623 132.88 211.079 134.35 211.079 136.114C211.079 137.878 209.623 139.32 207.859 139.32C206.095 139.32 204.653 137.878 204.653 136.114Z" fill="#A2A8AF"/>
<path d="M215.851 140.734C215.851 140.874 215.977 141 216.117 141H217.391C217.545 141 217.657 140.874 217.657 140.734V134.714H217.671L223.523 141.14H223.859C223.999 141.14 224.125 141.028 224.125 140.888V131.466C224.125 131.326 223.999 131.2 223.859 131.2H222.571C222.417 131.2 222.305 131.326 222.305 131.466V137.248H222.291L216.467 131.06H216.117C215.977 131.06 215.851 131.172 215.851 131.312V140.734Z" fill="#A2A8AF"/>
<path d="M233.325 140.734C233.325 140.874 233.451 141 233.591 141H234.893C235.033 141 235.159 140.874 235.159 140.734V132.88H237.301C237.455 132.88 237.567 132.754 237.567 132.614V131.466C237.567 131.326 237.455 131.2 237.301 131.2H231.183C231.029 131.2 230.917 131.326 230.917 131.466V132.614C230.917 132.754 231.029 132.88 231.183 132.88H233.325V140.734Z" fill="#A2A8AF"/>
<path d="M240.142 140.734C240.142 140.874 240.268 141 240.408 141H241.71C241.864 141 241.976 140.874 241.976 140.734V136.87H246.54V140.734C246.54 140.874 246.652 141 246.806 141H248.094C248.234 141 248.36 140.874 248.36 140.734V131.466C248.36 131.326 248.234 131.2 248.094 131.2H246.806C246.652 131.2 246.54 131.326 246.54 131.466V135.176H241.976V131.466C241.976 131.326 241.864 131.2 241.71 131.2H240.408C240.268 131.2 240.142 131.326 240.142 131.466V140.734Z" fill="#A2A8AF"/>
<path d="M252.022 140.734C252.022 140.874 252.134 141 252.288 141H257.986C258.14 141 258.252 140.874 258.252 140.734V139.586C258.252 139.446 258.14 139.32 257.986 139.32H253.842V136.87H257.3C257.44 136.87 257.566 136.758 257.566 136.604V135.442C257.566 135.302 257.44 135.176 257.3 135.176H253.842V132.88H257.986C258.14 132.88 258.252 132.754 258.252 132.614V131.466C258.252 131.326 258.14 131.2 257.986 131.2H252.288C252.134 131.2 252.022 131.326 252.022 131.466V140.734Z" fill="#A2A8AF"/>
<path d="M265.582 140.734C265.582 140.874 265.694 141 265.848 141H267.136C267.276 141 267.402 140.874 267.402 140.734V137.164H268.956L270.818 140.874C270.846 140.93 270.916 141 271.042 141H272.512C272.75 141 272.848 140.776 272.75 140.594L270.832 137.038C272.05 136.548 272.904 135.498 272.904 134.21C272.904 132.544 271.532 131.2 269.852 131.2H265.848C265.694 131.2 265.582 131.326 265.582 131.466V140.734ZM267.416 135.666V132.88H269.698C270.44 132.88 271.084 133.496 271.084 134.238C271.084 135.022 270.44 135.666 269.698 135.666H267.416Z" fill="#A2A8AF"/>
<path d="M275.327 136.114C275.327 138.914 277.553 141.14 280.353 141.14C283.153 141.14 285.393 138.914 285.393 136.114C285.393 133.314 283.153 131.06 280.353 131.06C277.553 131.06 275.327 133.314 275.327 136.114ZM277.147 136.114C277.147 134.35 278.589 132.88 280.353 132.88C282.117 132.88 283.573 134.35 283.573 136.114C283.573 137.878 282.117 139.32 280.353 139.32C278.589 139.32 277.147 137.878 277.147 136.114Z" fill="#A2A8AF"/>
<path d="M287.24 141H288.458C288.682 141 288.808 140.86 288.864 140.72L289.55 139.208H293.736L294.422 140.72C294.52 140.916 294.618 141 294.828 141H296.046C296.256 141 296.368 140.818 296.284 140.636L291.972 131.214C291.93 131.13 291.874 131.06 291.734 131.06H291.594C291.468 131.06 291.398 131.13 291.356 131.214L287.002 140.636C286.918 140.818 287.03 141 287.24 141ZM290.236 137.654L291.608 134.574H291.65L293.05 137.654H290.236Z" fill="#A2A8AF"/>
<path d="M298.679 140.734C298.679 140.874 298.791 141 298.931 141H302.249C304.951 141 307.163 138.802 307.163 136.086C307.163 133.398 304.951 131.2 302.249 131.2H298.931C298.791 131.2 298.679 131.326 298.679 131.466V140.734ZM300.485 139.292V132.894H302.081C303.901 132.894 305.231 134.266 305.231 136.086C305.231 137.92 303.901 139.292 302.081 139.292H300.485Z" fill="#A2A8AF"/>
<rect y="300" width="170" height="170" rx="8" fill="#1C2530"/>
<path d="M123 379H117V345C117 340.625 113.375 337 109 337H61C56.5 337 53 340.625 53 345V379H47C45.875 379 45 380 45 381V387C45 392.625 49.375 397 55 397H115C120.5 397 125 392.625 125 387V381C125 380 124 379 123 379ZM57 345C57 342.875 58.75 341 61 341H109C111.125 341 113 342.875 113 345V379H93.875C93.375 379 93 379.5 92.875 380C92.375 381.75 90.875 383 89 383H81C79 383 77.5 381.75 77 380C76.875 379.5 76.5 379 76 379H57V345ZM121 387C121 390.375 118.25 393 115 393H55C51.625 393 49 390.375 49 387V383H73.25C74.125 385.375 76.375 387 79 387H91C93.5 387 95.75 385.375 96.625 383H121V387Z" fill="#A2A8AF"/>
<path d="M51.3351 441H52.5531C52.7771 441 52.9031 440.86 52.9591 440.72L53.6451 439.208H57.8311L58.5171 440.72C58.6151 440.916 58.7131 441 58.9231 441H60.1411C60.3511 441 60.4631 440.818 60.3791 440.636L56.0671 431.214C56.0251 431.13 55.9691 431.06 55.8291 431.06H55.6891C55.5631 431.06 55.4931 431.13 55.4511 431.214L51.0971 440.636C51.0131 440.818 51.1251 441 51.3351 441ZM54.3311 437.654L55.7031 434.574H55.7451L57.1451 437.654H54.3311Z" fill="#A2A8AF"/>
<path d="M63.5708 440.734C63.5708 440.874 63.6968 441 63.8368 441H65.1388C65.2788 441 65.4048 440.874 65.4048 440.734V432.88H67.5468C67.7008 432.88 67.8128 432.754 67.8128 432.614V431.466C67.8128 431.326 67.7008 431.2 67.5468 431.2H61.4288C61.2748 431.2 61.1628 431.326 61.1628 431.466V432.614C61.1628 432.754 61.2748 432.88 61.4288 432.88H63.5708V440.734Z" fill="#A2A8AF"/>
<path d="M76.3763 440.944C76.4043 441.056 76.5163 441.14 76.6283 441.14H76.8523C76.9923 441.14 77.0483 441.07 77.0903 440.986L79.5683 434.644H79.6383L82.1443 440.986C82.1723 441.07 82.2563 441.14 82.3823 441.14H82.6063C82.7183 441.14 82.8303 441.056 82.8583 440.944L85.5043 431.536C85.5603 431.34 85.4483 431.2 85.2523 431.2H83.9643C83.8523 431.2 83.7403 431.298 83.7123 431.396L82.2843 436.982H82.2283L79.9883 431.214C79.9603 431.13 79.8903 431.06 79.7503 431.06H79.4983C79.3583 431.06 79.2883 431.13 79.2603 431.214L77.0343 436.982H76.9783L75.5223 431.396C75.4943 431.298 75.3823 431.2 75.2703 431.2H73.9823C73.7863 431.2 73.6743 431.34 73.7303 431.536L76.3763 440.944Z" fill="#A2A8AF"/>
<path d="M87.5418 436.114C87.5418 438.914 89.7678 441.14 92.5678 441.14C95.3678 441.14 97.6078 438.914 97.6078 436.114C97.6078 433.314 95.3678 431.06 92.5678 431.06C89.7678 431.06 87.5418 433.314 87.5418 436.114ZM89.3618 436.114C89.3618 434.35 90.8038 432.88 92.5678 432.88C94.3318 432.88 95.7878 434.35 95.7878 436.114C95.7878 437.878 94.3318 439.32 92.5678 439.32C90.8038 439.32 89.3618 437.878 89.3618 436.114Z" fill="#A2A8AF"/>
<path d="M100.559 440.734C100.559 440.874 100.671 441 100.825 441H102.113C102.253 441 102.379 440.874 102.379 440.734V437.164H103.933L105.795 440.874C105.823 440.93 105.893 441 106.019 441H107.489C107.727 441 107.825 440.776 107.727 440.594L105.809 437.038C107.027 436.548 107.881 435.498 107.881 434.21C107.881 432.544 106.509 431.2 104.829 431.2H100.825C100.671 431.2 100.559 431.326 100.559 431.466V440.734ZM102.393 435.666V432.88H104.675C105.417 432.88 106.061 433.496 106.061 434.238C106.061 435.022 105.417 435.666 104.675 435.666H102.393Z" fill="#A2A8AF"/>
<path d="M111.003 440.664C111.003 440.846 111.143 441 111.339 441H112.571C112.753 441 112.907 440.846 112.907 440.664V436.394L116.561 440.902C116.589 440.944 116.673 441 116.813 441H118.339C118.619 441 118.731 440.692 118.591 440.51L114.671 435.82L118.325 431.704C118.507 431.494 118.367 431.2 118.101 431.2H116.701C116.575 431.2 116.491 431.27 116.435 431.34L112.907 435.316V431.536C112.907 431.354 112.753 431.2 112.571 431.2H111.339C111.143 431.2 111.003 431.354 111.003 431.536V440.664Z" fill="#A2A8AF"/>
<rect x="300" y="300" width="170" height="170" rx="8" fill="#1C2530"/>
<path d="M334.988 436.114C334.988 438.914 337.214 441.14 340.014 441.14C342.814 441.14 345.054 438.914 345.054 436.114C345.054 433.314 342.814 431.06 340.014 431.06C337.214 431.06 334.988 433.314 334.988 436.114ZM336.808 436.114C336.808 434.35 338.25 432.88 340.014 432.88C341.778 432.88 343.234 434.35 343.234 436.114C343.234 437.878 341.778 439.32 340.014 439.32C338.25 439.32 336.808 437.878 336.808 436.114Z" fill="#A2A8AF"/>
<path d="M348.005 440.734C348.005 440.874 348.131 441 348.271 441H349.545C349.699 441 349.811 440.874 349.811 440.734V434.714H349.825L355.677 441.14H356.013C356.153 441.14 356.279 441.028 356.279 440.888V431.466C356.279 431.326 356.153 431.2 356.013 431.2H354.725C354.571 431.2 354.459 431.326 354.459 431.466V437.248H354.445L348.621 431.06H348.271C348.131 431.06 348.005 431.172 348.005 431.312V440.734Z" fill="#A2A8AF"/>
<path d="M364.163 440.734C364.163 440.874 364.275 441 364.429 441H365.717C365.857 441 365.983 440.874 365.983 440.734V437.444H367.733C369.441 437.444 370.855 436.03 370.855 434.294C370.855 432.6 369.441 431.2 367.719 431.2H364.429C364.275 431.2 364.163 431.326 364.163 431.466V440.734ZM365.983 435.736V432.922H367.607C368.391 432.922 369.049 433.51 369.049 434.28C369.049 435.106 368.391 435.736 367.607 435.736H365.983Z" fill="#A2A8AF"/>
<path d="M373.568 440.734C373.568 440.874 373.68 441 373.834 441H375.122C375.262 441 375.388 440.874 375.388 440.734V437.164H376.942L378.804 440.874C378.832 440.93 378.902 441 379.028 441H380.498C380.736 441 380.834 440.776 380.736 440.594L378.818 437.038C380.036 436.548 380.89 435.498 380.89 434.21C380.89 432.544 379.518 431.2 377.838 431.2H373.834C373.68 431.2 373.568 431.326 373.568 431.466V440.734ZM375.402 435.666V432.88H377.684C378.426 432.88 379.07 433.496 379.07 434.238C379.07 435.022 378.426 435.666 377.684 435.666H375.402Z" fill="#A2A8AF"/>
<path d="M384.012 440.734C384.012 440.874 384.124 441 384.278 441H389.976C390.13 441 390.242 440.874 390.242 440.734V439.586C390.242 439.446 390.13 439.32 389.976 439.32H385.832V436.87H389.29C389.43 436.87 389.556 436.758 389.556 436.604V435.442C389.556 435.302 389.43 435.176 389.29 435.176H385.832V432.88H389.976C390.13 432.88 390.242 432.754 390.242 432.614V431.466C390.242 431.326 390.13 431.2 389.976 431.2H384.278C384.124 431.2 384.012 431.326 384.012 431.466V440.734Z" fill="#A2A8AF"/>
<path d="M392.719 440.678C392.691 440.874 392.803 441 392.985 441H394.245C394.371 441 394.483 440.888 394.497 440.79L395.309 435.484C395.323 435.484 395.351 435.484 395.351 435.484L397.829 440.986C397.871 441.07 397.941 441.14 398.067 441.14H398.319C398.445 441.14 398.529 441.07 398.557 440.986L401.007 435.484C401.007 435.484 401.035 435.484 401.049 435.484L401.875 440.79C401.903 440.888 402.015 441 402.141 441H403.415C403.597 441 403.709 440.874 403.667 440.678L402.015 431.27C402.001 431.158 401.917 431.06 401.763 431.06H401.539C401.413 431.06 401.343 431.116 401.301 431.2L398.221 437.808C398.207 437.808 398.207 437.808 398.179 437.808L395.099 431.2C395.057 431.116 394.973 431.06 394.861 431.06H394.637C394.483 431.06 394.399 431.158 394.385 431.27L392.719 440.678Z" fill="#A2A8AF"/>
<path d="M406.706 440.734C406.706 440.874 406.832 441 406.972 441H408.274C408.414 441 408.54 440.874 408.54 440.734V431.466C408.54 431.326 408.414 431.2 408.274 431.2H406.972C406.832 431.2 406.706 431.326 406.706 431.466V440.734Z" fill="#A2A8AF"/>
<path d="M411.71 440.048C411.99 440.314 413.026 441.14 414.79 441.14C416.764 441.14 418.01 439.81 418.01 438.368C418.01 436.562 416.442 435.75 415.084 435.204C413.95 434.742 413.432 434.294 413.432 433.636C413.432 433.188 413.866 432.656 414.664 432.656C415.434 432.656 416.498 433.356 416.61 433.426C416.778 433.538 416.988 433.426 417.1 433.258L417.632 432.46C417.73 432.32 417.688 432.082 417.548 431.998C417.268 431.788 416.176 431.06 414.748 431.06C412.522 431.06 411.598 432.502 411.598 433.748C411.598 435.4 412.914 436.24 414.23 436.772C415.406 437.248 416.008 437.738 416.008 438.452C416.008 439.054 415.462 439.53 414.734 439.53C413.824 439.53 412.69 438.704 412.62 438.662C412.494 438.564 412.256 438.564 412.144 438.76L411.64 439.628C411.514 439.852 411.584 439.922 411.71 440.048Z" fill="#A2A8AF"/>
<path d="M420.922 440.734C420.922 440.874 421.034 441 421.188 441H426.886C427.04 441 427.152 440.874 427.152 440.734V439.586C427.152 439.446 427.04 439.32 426.886 439.32H422.742V436.87H426.2C426.34 436.87 426.466 436.758 426.466 436.604V435.442C426.466 435.302 426.34 435.176 426.2 435.176H422.742V432.88H426.886C427.04 432.88 427.152 432.754 427.152 432.614V431.466C427.152 431.326 427.04 431.2 426.886 431.2H421.188C421.034 431.2 420.922 431.326 420.922 431.466V440.734Z" fill="#A2A8AF"/>
<path d="M429.769 440.048C430.049 440.314 431.085 441.14 432.849 441.14C434.823 441.14 436.069 439.81 436.069 438.368C436.069 436.562 434.501 435.75 433.143 435.204C432.009 434.742 431.491 434.294 431.491 433.636C431.491 433.188 431.925 432.656 432.723 432.656C433.493 432.656 434.557 433.356 434.669 433.426C434.837 433.538 435.047 433.426 435.159 433.258L435.691 432.46C435.789 432.32 435.747 432.082 435.607 431.998C435.327 431.788 434.235 431.06 432.807 431.06C430.581 431.06 429.657 432.502 429.657 433.748C429.657 435.4 430.973 436.24 432.289 436.772C433.465 437.248 434.067 437.738 434.067 438.452C434.067 439.054 433.521 439.53 432.793 439.53C431.883 439.53 430.749 438.704 430.679 438.662C430.553 438.564 430.315 438.564 430.203 438.76L429.699 439.628C429.573 439.852 429.643 439.922 429.769 440.048Z" fill="#A2A8AF"/>
<rect x="600" y="300" width="170" height="170" rx="8" fill="#1C2530"/>
<path d="M716.375 362.875C716.75 361.625 717 360.375 717 359C717 351.375 710.625 345 703 345C700.875 345 698.875 345.5 697 346.375C693 340.75 686.375 337 679 337C667.125 337 657.5 346.375 657 358.125C649.875 360.625 645 367.375 645 375C645 385 653 393 663 393H709C717.75 393 725 385.875 725 377C725 371.125 721.75 365.75 716.375 362.875ZM709 389H663C655.25 389 649 382.75 649 375C649 368 654.25 362.125 661.125 361.125C661 360.5 661 359.75 661 359C661 349.125 669 341 679 341C686.5 341 692.875 345.625 695.625 352.25C697.5 350.25 700 349 703 349C708.5 349 713 353.5 713 359C713 361.375 712.125 363.5 710.875 365.25C716.625 366.125 721 371.125 721 377C721 383.625 715.625 389 709 389Z" fill="#A2A8AF"/>
<path d="M631.344 440.734C631.344 440.874 631.47 441 631.61 441H632.912C633.052 441 633.178 440.874 633.178 440.734V431.466C633.178 431.326 633.052 431.2 632.912 431.2H631.61C631.47 431.2 631.344 431.326 631.344 431.466V440.734Z" fill="#A2A8AF"/>
<path d="M636.853 440.734C636.853 440.874 636.979 441 637.119 441H638.393C638.547 441 638.659 440.874 638.659 440.734V434.714H638.673L644.525 441.14H644.861C645.001 441.14 645.127 441.028 645.127 440.888V431.466C645.127 431.326 645.001 431.2 644.861 431.2H643.573C643.419 431.2 643.307 431.326 643.307 431.466V437.248H643.293L637.469 431.06H637.119C636.979 431.06 636.853 431.172 636.853 431.312V440.734Z" fill="#A2A8AF"/>
<path d="M654.327 440.734C654.327 440.874 654.453 441 654.593 441H655.895C656.035 441 656.161 440.874 656.161 440.734V432.88H658.303C658.457 432.88 658.569 432.754 658.569 432.614V431.466C658.569 431.326 658.457 431.2 658.303 431.2H652.185C652.031 431.2 651.919 431.326 651.919 431.466V432.614C651.919 432.754 652.031 432.88 652.185 432.88H654.327V440.734Z" fill="#A2A8AF"/>
<path d="M661.145 440.734C661.145 440.874 661.271 441 661.411 441H662.713C662.867 441 662.979 440.874 662.979 440.734V436.87H667.543V440.734C667.543 440.874 667.655 441 667.809 441H669.097C669.237 441 669.363 440.874 669.363 440.734V431.466C669.363 431.326 669.237 431.2 669.097 431.2H667.809C667.655 431.2 667.543 431.326 667.543 431.466V435.176H662.979V431.466C662.979 431.326 662.867 431.2 662.713 431.2H661.411C661.271 431.2 661.145 431.326 661.145 431.466V440.734Z" fill="#A2A8AF"/>
<path d="M673.025 440.734C673.025 440.874 673.137 441 673.291 441H678.989C679.143 441 679.255 440.874 679.255 440.734V439.586C679.255 439.446 679.143 439.32 678.989 439.32H674.845V436.87H678.303C678.443 436.87 678.569 436.758 678.569 436.604V435.442C678.569 435.302 678.443 435.176 678.303 435.176H674.845V432.88H678.989C679.143 432.88 679.255 432.754 679.255 432.614V431.466C679.255 431.326 679.143 431.2 678.989 431.2H673.291C673.137 431.2 673.025 431.326 673.025 431.466V440.734Z" fill="#A2A8AF"/>
<path d="M685.871 436.114C685.871 438.914 688.125 441.14 690.925 441.14C692.171 441.14 693.375 440.706 694.327 439.782C694.425 439.684 694.453 439.502 694.341 439.404L693.473 438.508C693.389 438.424 693.235 438.41 693.123 438.508C692.535 438.984 691.821 439.306 690.981 439.306C689.189 439.306 687.845 437.822 687.845 436.072C687.845 434.308 689.175 432.81 690.967 432.81C691.751 432.81 692.535 433.118 693.123 433.636C693.235 433.748 693.375 433.748 693.473 433.636L694.327 432.754C694.439 432.642 694.439 432.474 694.313 432.362C693.361 431.508 692.339 431.06 690.925 431.06C688.125 431.06 685.871 433.314 685.871 436.114Z" fill="#A2A8AF"/>
<path d="M697.275 440.734C697.275 440.874 697.387 441 697.541 441H702.665C702.819 441 702.931 440.874 702.931 440.734V439.586C702.931 439.446 702.819 439.32 702.665 439.32H699.095V431.466C699.095 431.326 698.969 431.2 698.829 431.2H697.541C697.387 431.2 697.275 431.326 697.275 431.466V440.734Z" fill="#A2A8AF"/>
<path d="M704.668 436.114C704.668 438.914 706.894 441.14 709.694 441.14C712.494 441.14 714.734 438.914 714.734 436.114C714.734 433.314 712.494 431.06 709.694 431.06C706.894 431.06 704.668 433.314 704.668 436.114ZM706.488 436.114C706.488 434.35 707.93 432.88 709.694 432.88C711.458 432.88 712.914 434.35 712.914 436.114C712.914 437.878 711.458 439.32 709.694 439.32C707.93 439.32 706.488 437.878 706.488 436.114Z" fill="#A2A8AF"/>
<path d="M717.545 437.29C717.545 439.418 719.239 441.14 721.437 441.14C723.649 441.14 725.343 439.418 725.343 437.29V431.466C725.343 431.326 725.217 431.2 725.077 431.2H723.747C723.593 431.2 723.481 431.326 723.481 431.466V437.206C723.481 438.382 722.655 439.32 721.437 439.32C720.219 439.32 719.407 438.382 719.407 437.192V431.466C719.407 431.326 719.295 431.2 719.141 431.2H717.811C717.671 431.2 717.545 431.326 717.545 431.466V437.29Z" fill="#A2A8AF"/>
<path d="M728.868 440.734C728.868 440.874 728.98 441 729.12 441H732.438C735.14 441 737.352 438.802 737.352 436.086C737.352 433.398 735.14 431.2 732.438 431.2H729.12C728.98 431.2 728.868 431.326 728.868 431.466V440.734ZM730.674 439.292V432.894H732.27C734.09 432.894 735.42 434.266 735.42 436.086C735.42 437.92 734.09 439.292 732.27 439.292H730.674Z" fill="#A2A8AF"/>
<rect x="470" width="170" height="170" rx="8" fill="#1C2530"/>
<path d="M521.239 141H522.457C522.681 141 522.807 140.86 522.863 140.72L523.549 139.208H527.735L528.421 140.72C528.519 140.916 528.617 141 528.827 141H530.045C530.255 141 530.367 140.818 530.283 140.636L525.971 131.214C525.929 131.13 525.873 131.06 525.733 131.06H525.593C525.467 131.06 525.397 131.13 525.355 131.214L521.001 140.636C520.917 140.818 521.029 141 521.239 141ZM524.235 137.654L525.607 134.574H525.649L527.049 137.654H524.235Z" fill="#A2A8AF"/>
<path d="M533.475 140.734C533.475 140.874 533.601 141 533.741 141H535.043C535.183 141 535.309 140.874 535.309 140.734V132.88H537.451C537.605 132.88 537.717 132.754 537.717 132.614V131.466C537.717 131.326 537.605 131.2 537.451 131.2H531.333C531.179 131.2 531.067 131.326 531.067 131.466V132.614C531.067 132.754 531.179 132.88 531.333 132.88H533.475V140.734Z" fill="#A2A8AF"/>
<path d="M544.503 140.734C544.503 140.874 544.629 141 544.769 141H546.071C546.225 141 546.337 140.874 546.337 140.734V136.87H550.901V140.734C550.901 140.874 551.013 141 551.167 141H552.455C552.595 141 552.721 140.874 552.721 140.734V131.466C552.721 131.326 552.595 131.2 552.455 131.2H551.167C551.013 131.2 550.901 131.326 550.901 131.466V135.176H546.337V131.466C546.337 131.326 546.225 131.2 546.071 131.2H544.769C544.629 131.2 544.503 131.326 544.503 131.466V140.734Z" fill="#A2A8AF"/>
<path d="M555.682 136.114C555.682 138.914 557.908 141.14 560.708 141.14C563.508 141.14 565.748 138.914 565.748 136.114C565.748 133.314 563.508 131.06 560.708 131.06C557.908 131.06 555.682 133.314 555.682 136.114ZM557.502 136.114C557.502 134.35 558.944 132.88 560.708 132.88C562.472 132.88 563.928 134.35 563.928 136.114C563.928 137.878 562.472 139.32 560.708 139.32C558.944 139.32 557.502 137.878 557.502 136.114Z" fill="#A2A8AF"/>
<path d="M568.056 140.678C568.028 140.874 568.14 141 568.322 141H569.582C569.708 141 569.82 140.888 569.834 140.79L570.646 135.484C570.66 135.484 570.688 135.484 570.688 135.484L573.166 140.986C573.208 141.07 573.278 141.14 573.404 141.14H573.656C573.782 141.14 573.866 141.07 573.894 140.986L576.344 135.484C576.344 135.484 576.372 135.484 576.386 135.484L577.212 140.79C577.24 140.888 577.352 141 577.478 141H578.752C578.934 141 579.046 140.874 579.004 140.678L577.352 131.27C577.338 131.158 577.254 131.06 577.1 131.06H576.876C576.75 131.06 576.68 131.116 576.638 131.2L573.558 137.808C573.544 137.808 573.544 137.808 573.516 137.808L570.436 131.2C570.394 131.116 570.31 131.06 570.198 131.06H569.974C569.82 131.06 569.736 131.158 569.722 131.27L568.056 140.678Z" fill="#A2A8AF"/>
<path d="M582.042 140.734C582.042 140.874 582.154 141 582.308 141H588.006C588.16 141 588.272 140.874 588.272 140.734V139.586C588.272 139.446 588.16 139.32 588.006 139.32H583.862V136.87H587.32C587.46 136.87 587.586 136.758 587.586 136.604V135.442C587.586 135.302 587.46 135.176 587.32 135.176H583.862V132.88H588.006C588.16 132.88 588.272 132.754 588.272 132.614V131.466C588.272 131.326 588.16 131.2 588.006 131.2H582.308C582.154 131.2 582.042 131.326 582.042 131.466V140.734Z" fill="#A2A8AF"/>
<path d="M585 33H525C521.625 33 519 35.75 519 39V75C519 78.375 521.625 81 525 81H549L546 93H537C535.875 93 535 94 535 95C535 96.125 535.875 97 537 97H573C574 97 575 96.125 575 95C575 94 574 93 573 93H564L561 81H585C588.25 81 591 78.375 591 75V39C591 35.75 588.25 33 585 33ZM550.125 93L552.125 85H557.875L559.875 93H550.125ZM587 75C587 76.125 586 77 585 77H525C523.875 77 523 76.125 523 75V39C523 38 523.875 37 525 37H585C586 37 587 38 587 39V75Z" fill="#A2A8AF"/>
<circle cx="255" cy="170" r="8" fill="#501DBD"/>
<path fill-rule="evenodd" clip-rule="evenodd" d="M685 301C684.448 301 684 300.552 684 300L684 297.964C684 297.412 684.448 296.964 685 296.964C685.552 296.964 686 297.412 686 297.964L686 300C686 300.552 685.552 301 685 301ZM685 294.893C684.448 294.893 684 294.445 684 293.893L684 289.821C684 289.269 684.448 288.821 685 288.821C685.552 288.821 686 289.269 686 289.821L686 293.893C686 294.445 685.552 294.893 685 294.893ZM685 286.75C684.448 286.75 684 286.302 684 285.75L684 281.679C684 281.126 684.448 280.679 685 280.679C685.552 280.679 686 281.126 686 281.679L686 285.75C686 286.302 685.552 286.75 685 286.75ZM685 278.607C684.448 278.607 684 278.159 684 277.607L684 273.536C684 272.983 684.448 272.536 685 272.536C685.552 272.536 686 272.983 686 273.536L686 277.607C686 278.159 685.552 278.607 685 278.607ZM685 270.464C684.448 270.464 684 270.017 684 269.464L684 265.393C684 264.841 684.448 264.393 685 264.393C685.552 264.393 686 264.841 686 265.393L686 269.464C686 270.017 685.552 270.464 685 270.464ZM685 262.321C684.448 262.321 684 261.874 684 261.321L684 257.25C684 256.698 684.448 256.25 685 256.25C685.552 256.25 686 256.698 686 257.25L686 261.321C686 261.874 685.552 262.321 685 262.321ZM685 254.179C684.448 254.179 684 253.731 684 253.179L684 249.107C684 248.555 684.448 248.107 685 248.107C685.552 248.107 686 248.555 686 249.107L686 253.179C686 253.731 685.552 254.179 685 254.179ZM685 246.036C684.448 246.036 684 245.588 684 245.036L684 243C684 242.531 683.954 242.074 683.867 241.633C683.76 241.091 684.112 240.565 684.654 240.458C685.195 240.351 685.722 240.703 685.829 241.245C685.941 241.813 686 242.4 686 243L686 245.036C686 245.588 685.552 246.036 685 246.036ZM684.209 239.386C683.75 239.693 683.129 239.57 682.822 239.111C682.31 238.348 681.652 237.69 680.889 237.178C680.43 236.871 680.307 236.25 680.614 235.791C680.921 235.332 681.542 235.209 682.001 235.517C682.982 236.173 683.827 237.018 684.483 237.999C684.791 238.458 684.668 239.079 684.209 239.386ZM679.542 235.346C679.435 235.888 678.909 236.24 678.367 236.133C677.926 236.046 677.469 236 677 236L675.01 236C674.458 236 674.01 235.552 674.01 235C674.01 234.448 674.458 234 675.01 234L677 234C677.6 234 678.187 234.059 678.755 234.171C679.297 234.278 679.649 234.805 679.542 235.346ZM672.031 235C672.031 235.552 671.584 236 671.031 236L667.052 236C666.5 236 666.052 235.552 666.052 235C666.052 234.448 666.5 234 667.052 234L671.031 234C671.584 234 672.031 234.448 672.031 235ZM664.073 235C664.073 235.552 663.625 236 663.073 236L659.094 236C658.541 236 658.094 235.552 658.094 235C658.094 234.448 658.541 234 659.094 234L663.073 234C663.625 234 664.073 234.448 664.073 235ZM656.115 235C656.115 235.552 655.667 236 655.115 236L651.135 236C650.583 236 650.135 235.552 650.135 235C650.135 234.448 650.583 234 651.135 234L655.115 234C655.667 234 656.115 234.448 656.115 235ZM648.156 235C648.156 235.552 647.709 236 647.156 236L643.177 236C642.625 236 642.177 235.552 642.177 235C642.177 234.448 642.625 234 643.177 234L647.156 234C647.709 234 648.156 234.448 648.156 235ZM640.198 235C640.198 235.552 639.75 236 639.198 236L635.219 236C634.666 236 634.219 235.552 634.219 235C634.219 234.448 634.666 234 635.219 234L639.198 234C639.75 234 640.198 234.448 640.198 235ZM632.24 235C632.24 235.552 631.792 236 631.24 236L627.26 236C626.708 236 626.26 235.552 626.26 235C626.26 234.448 626.708 234 627.26 234L631.24 234C631.792 234 632.24 234.448 632.24 235ZM624.281 235C624.281 235.552 623.834 236 623.281 236L619.302 236C618.75 236 618.302 235.552 618.302 235C618.302 234.448 618.75 234 619.302 234L623.281 234C623.834 234 624.281 234.448 624.281 235ZM616.323 235C616.323 235.552 615.875 236 615.323 236L611.344 236C610.791 236 610.344 235.552 610.344 235C610.344 234.448 610.791 234 611.344 234L615.323 234C615.875 234 616.323 234.448 616.323 235ZM608.365 235C608.365 235.552 607.917 236 607.365 236L603.385 236C602.833 236 602.385 235.552 602.385 235C602.385 234.448 602.833 234 603.385 234L607.365 234C607.917 234 608.365 234.448 608.365 235ZM600.406 235C600.406 235.552 599.959 236 599.406 236L595.427 236C594.875 236 594.427 235.552 594.427 235C594.427 234.448 594.875 234 595.427 234L599.406 234C599.959 234 600.406 234.448 600.406 235ZM592.448 235C592.448 235.552 592 236 591.448 236L587.469 236C586.916 236 586.469 235.552 586.469 235C586.469 234.448 586.916 234 587.469 234L591.448 234C592 234 592.448 234.448 592.448 235ZM584.49 235C584.49 235.552 584.042 236 583.49 236L579.51 236C578.958 236 578.51 235.552 578.51 235C578.51 234.448 578.958 234 579.51 234L583.49 234C584.042 234 584.49 234.448 584.49 235ZM576.531 235C576.531 235.552 576.084 236 575.531 236L571.552 236C571 236 570.552 235.552 570.552 235C570.552 234.448 571 234 571.552 234L575.531 234C576.084 234 576.531 234.448 576.531 235ZM568.573 235C568.573 235.552 568.125 236 567.573 236L563.594 236C563.041 236 562.594 235.552 562.594 235C562.594 234.448 563.041 234 563.594 234L567.573 234C568.125 234 568.573 234.448 568.573 235ZM560.615 235C560.615 235.552 560.167 236 559.615 236L555.635 236C555.083 236 554.635 235.552 554.635 235C554.635 234.448 555.083 234 555.635 234L559.615 234C560.167 234 560.615 234.448 560.615 235ZM552.656 235C552.656 235.552 552.209 236 551.656 236L547.677 236C547.125 236 546.677 235.552 546.677 235C546.677 234.448 547.125 234 547.677 234L551.656 234C552.209 234 552.656 234.448 552.656 235ZM544.698 235C544.698 235.552 544.25 236 543.698 236L539.719 236C539.166 236 538.719 235.552 538.719 235C538.719 234.448 539.166 234 539.719 234L543.698 234C544.25 234 544.698 234.448 544.698 235ZM536.74 235C536.74 235.552 536.292 236 535.74 236L531.76 236C531.208 236 530.76 235.552 530.76 235C530.76 234.448 531.208 234 531.76 234L535.74 234C536.292 234 536.74 234.448 536.74 235ZM528.781 235C528.781 235.552 528.334 236 527.781 236L523.802 236C523.25 236 522.802 235.552 522.802 235C522.802 234.448 523.25 234 523.802 234L527.781 234C528.334 234 528.781 234.448 528.781 235ZM520.823 235C520.823 235.552 520.375 236 519.823 236L515.844 236C515.291 236 514.844 235.552 514.844 235C514.844 234.448 515.291 234 515.844 234L519.823 234C520.375 234 520.823 234.448 520.823 235ZM512.865 235C512.865 235.552 512.417 236 511.865 236L507.885 236C507.333 236 506.885 235.552 506.885 235C506.885 234.448 507.333 234 507.885 234L511.865 234C512.417 234 512.865 234.448 512.865 235ZM504.906 235C504.906 235.552 504.459 236 503.906 236L499.927 236C499.375 236 498.927 235.552 498.927 235C498.927 234.448 499.375 234 499.927 234L503.906 234C504.459 234 504.906 234.448 504.906 235ZM496.948 235C496.948 235.552 496.5 236 495.948 236L491.969 236C491.416 236 490.969 235.552 490.969 235C490.969 234.448 491.416 234 491.969 234L495.948 234C496.5 234 496.948 234.448 496.948 235ZM488.99 235C488.99 235.552 488.542 236 487.99 236L484.01 236C483.458 236 483.01 235.552 483.01 235C483.01 234.448 483.458 234 484.01 234L487.99 234C488.542 234 488.99 234.448 488.99 235ZM481.031 235C481.031 235.552 480.583 236 480.031 236L476.052 236C475.5 236 475.052 235.552 475.052 235C475.052 234.448 475.5 234 476.052 234L480.031 234C480.583 234 481.031 234.448 481.031 235ZM473.073 235C473.073 235.552 472.625 236 472.073 236L468.094 236C467.541 236 467.094 235.552 467.094 235C467.094 234.448 467.541 234 468.094 234L472.073 234C472.625 234 473.073 234.448 473.073 235ZM465.115 235C465.115 235.552 464.667 236 464.115 236L460.135 236C459.583 236 459.135 235.552 459.135 235C459.135 234.448 459.583 234 460.135 234L464.115 234C464.667 234 465.115 234.448 465.115 235ZM457.156 235C457.156 235.552 456.708 236 456.156 236L452.177 236C451.625 236 451.177 235.552 451.177 235C451.177 234.448 451.625 234 452.177 234L456.156 234C456.708 234 457.156 234.448 457.156 235ZM449.198 235C449.198 235.552 448.75 236 448.198 236L444.219 236C443.666 236 443.219 235.552 443.219 235C443.219 234.448 443.666 234 444.219 234L448.198 234C448.75 234 449.198 234.448 449.198 235ZM441.239 235C441.239 235.552 440.792 236 440.239 236L436.26 236C435.708 236 435.26 235.552 435.26 235C435.26 234.448 435.708 234 436.26 234L440.239 234C440.792 234 441.239 234.448 441.239 235ZM433.281 235C433.281 235.552 432.833 236 432.281 236L428.302 236C427.75 236 427.302 235.552 427.302 235C427.302 234.448 427.75 234 428.302 234L432.281 234C432.833 234 433.281 234.448 433.281 235ZM425.323 235C425.323 235.552 424.875 236 424.323 236L420.344 236C419.791 236 419.344 235.552 419.344 235C419.344 234.448 419.791 234 420.344 234L424.323 234C424.875 234 425.323 234.448 425.323 235ZM417.364 235C417.364 235.552 416.917 236 416.364 236L412.385 236C411.833 236 411.385 235.552 411.385 235C411.385 234.448 411.833 234 412.385 234L416.364 234C416.917 234 417.364 234.448 417.364 235ZM409.406 235C409.406 235.552 408.958 236 408.406 236L404.427 236C403.875 236 403.427 235.552 403.427 235C403.427 234.448 403.875 234 404.427 234L408.406 234C408.958 234 409.406 234.448 409.406 235ZM401.448 235C401.448 235.552 401 236 400.448 236L396.469 236C395.916 236 395.469 235.552 395.469 235C395.469 234.448 395.916 234 396.469 234L400.448 234C401 234 401.448 234.448 401.448 235ZM393.49 235C393.49 235.552 393.042 236 392.49 236L388.51 236C387.958 236 387.51 235.552 387.51 235C387.51 234.448 387.958 234 388.51 234L392.49 234C393.042 234 393.49 234.448 393.49 235ZM385.531 235C385.531 235.552 385.084 236 384.531 236L380.552 236C380 236 379.552 235.552 379.552 235C379.552 234.448 380 234 380.552 234L384.531 234C385.084 234 385.531 234.448 385.531 235ZM377.573 235C377.573 235.552 377.125 236 376.573 236L372.594 236C372.041 236 371.594 235.552 371.594 235C371.594 234.448 372.041 234 372.594 234L376.573 234C377.125 234 377.573 234.448 377.573 235ZM369.615 235C369.615 235.552 369.167 236 368.615 236L364.635 236C364.083 236 363.635 235.552 363.635 235C363.635 234.448 364.083 234 364.635 234L368.615 234C369.167 234 369.615 234.448 369.615 235ZM361.656 235C361.656 235.552 361.209 236 360.656 236L356.677 236C356.125 236 355.677 235.552 355.677 235C355.677 234.448 356.125 234 356.677 234L360.656 234C361.209 234 361.656 234.448 361.656 235ZM353.698 235C353.698 235.552 353.25 236 352.698 236L348.719 236C348.167 236 347.719 235.552 347.719 235C347.719 234.448 348.167 234 348.719 234L352.698 234C353.25 234 353.698 234.448 353.698 235ZM345.74 235C345.74 235.552 345.292 236 344.74 236L340.761 236C340.208 236 339.761 235.552 339.761 235C339.761 234.448 340.208 234 340.761 234L344.74 234C345.292 234 345.74 234.448 345.74 235ZM337.781 235C337.781 235.552 337.334 236 336.781 236L332.802 236C332.25 236 331.802 235.552 331.802 235C331.802 234.448 332.25 234 332.802 234L336.781 234C337.334 234 337.781 234.448 337.781 235ZM329.823 235C329.823 235.552 329.375 236 328.823 236L324.844 236C324.292 236 323.844 235.552 323.844 235C323.844 234.448 324.292 234 324.844 234L328.823 234C329.375 234 329.823 234.448 329.823 235ZM321.865 235C321.865 235.552 321.417 236 320.865 236L316.886 236C316.333 236 315.886 235.552 315.886 235C315.886 234.448 316.333 234 316.886 234L320.865 234C321.417 234 321.865 234.448 321.865 235ZM313.906 235C313.906 235.552 313.459 236 312.906 236L308.927 236C308.375 236 307.927 235.552 307.927 235C307.927 234.448 308.375 234 308.927 234L312.906 234C313.459 234 313.906 234.448 313.906 235ZM305.948 235C305.948 235.552 305.5 236 304.948 236L300.969 236C300.417 236 299.969 235.552 299.969 235C299.969 234.448 300.417 234 300.969 234L304.948 234C305.5 234 305.948 234.448 305.948 235ZM297.99 235C297.99 235.552 297.542 236 296.99 236L295 236C294.448 236 294 235.552 294 235C294 234.448 294.448 234 295 234L296.99 234C297.542 234 297.99 234.448 297.99 235Z" fill="#501DBD"/>
<path fill-rule="evenodd" clip-rule="evenodd" d="M255 169C255.552 169 256 169.448 256 170V172.036C256 172.588 255.552 173.036 255 173.036C254.448 173.036 254 172.588 254 172.036V170C254 169.448 254.448 169 255 169ZM255 175.107C255.552 175.107 256 175.555 256 176.107V180.179C256 180.731 255.552 181.179 255 181.179C254.448 181.179 254 180.731 254 180.179V176.107C254 175.555 254.448 175.107 255 175.107ZM255 183.25C255.552 183.25 256 183.698 256 184.25V188.321C256 188.874 255.552 189.321 255 189.321C254.448 189.321 254 188.874 254 188.321V184.25C254 183.698 254.448 183.25 255 183.25ZM255 191.393C255.552 191.393 256 191.841 256 192.393V196.464C256 197.017 255.552 197.464 255 197.464C254.448 197.464 254 197.017 254 196.464V192.393C254 191.841 254.448 191.393 255 191.393ZM255 199.536C255.552 199.536 256 199.983 256 200.536V204.607C256 205.159 255.552 205.607 255 205.607C254.448 205.607 254 205.159 254 204.607V200.536C254 199.983 254.448 199.536 255 199.536ZM255 207.679C255.552 207.679 256 208.126 256 208.679V212.75C256 213.302 255.552 213.75 255 213.75C254.448 213.75 254 213.302 254 212.75V208.679C254 208.126 254.448 207.679 255 207.679ZM255 215.821C255.552 215.821 256 216.269 256 216.821V220.893C256 221.445 255.552 221.893 255 221.893C254.448 221.893 254 221.445 254 220.893V216.821C254 216.269 254.448 215.821 255 215.821ZM255 223.964C255.552 223.964 256 224.412 256 224.964V227C256 227.469 256.046 227.926 256.133 228.367C256.24 228.909 255.888 229.435 255.346 229.542C254.805 229.649 254.278 229.297 254.171 228.755C254.059 228.187 254 227.6 254 227V224.964C254 224.412 254.448 223.964 255 223.964ZM255.791 230.614C256.25 230.307 256.871 230.43 257.178 230.889C257.69 231.652 258.348 232.31 259.111 232.822C259.57 233.129 259.693 233.75 259.386 234.209C259.079 234.668 258.458 234.791 257.999 234.483C257.018 233.827 256.173 232.982 255.517 232.001C255.209 231.542 255.332 230.921 255.791 230.614ZM260.458 234.654C260.565 234.112 261.091 233.76 261.633 233.867C262.074 233.954 262.531 234 263 234H264.989C265.541 234 265.989 234.448 265.989 235C265.989 235.552 265.541 236 264.989 236H263C262.4 236 261.813 235.941 261.245 235.829C260.703 235.722 260.351 235.195 260.458 234.654ZM267.967 235C267.967 234.448 268.415 234 268.967 234H272.946C273.498 234 273.946 234.448 273.946 235C273.946 235.552 273.498 236 272.946 236H268.967C268.415 236 267.967 235.552 267.967 235ZM275.924 235C275.924 234.448 276.372 234 276.924 234H280.902C281.454 234 281.902 234.448 281.902 235C281.902 235.552 281.454 236 280.902 236H276.924C276.372 236 275.924 235.552 275.924 235ZM283.88 235C283.88 234.448 284.328 234 284.88 234H288.859C289.411 234 289.859 234.448 289.859 235C289.859 235.552 289.411 236 288.859 236H284.88C284.328 236 283.88 235.552 283.88 235ZM291.837 235C291.837 234.448 292.285 234 292.837 234H296.815C297.368 234 297.815 234.448 297.815 235C297.815 235.552 297.368 236 296.815 236H292.837C292.285 236 291.837 235.552 291.837 235ZM299.793 235C299.793 234.448 300.241 234 300.793 234H304.772C305.324 234 305.772 234.448 305.772 235C305.772 235.552 305.324 236 304.772 236H300.793C300.241 236 299.793 235.552 299.793 235ZM307.75 235C307.75 234.448 308.198 234 308.75 234H312.728C313.281 234 313.728 234.448 313.728 235C313.728 235.552 313.281 236 312.728 236H308.75C308.198 236 307.75 235.552 307.75 235ZM315.707 235C315.707 234.448 316.154 234 316.707 234H320.685C321.237 234 321.685 234.448 321.685 235C321.685 235.552 321.237 236 320.685 236H316.707C316.154 236 315.707 235.552 315.707 235ZM323.663 235C323.663 234.448 324.111 234 324.663 234H328.641C329.194 234 329.641 234.448 329.641 235C329.641 235.552 329.194 236 328.641 236H324.663C324.111 236 323.663 235.552 323.663 235ZM331.62 235C331.62 234.448 332.067 234 332.62 234H336.598C337.15 234 337.598 234.448 337.598 235C337.598 235.552 337.15 236 336.598 236H332.62C332.067 236 331.62 235.552 331.62 235ZM339.576 235C339.576 234.448 340.024 234 340.576 234H344.554C345.107 234 345.554 234.448 345.554 235C345.554 235.552 345.107 236 344.554 236H340.576C340.024 236 339.576 235.552 339.576 235ZM347.533 235C347.533 234.448 347.98 234 348.533 234H352.511C353.063 234 353.511 234.448 353.511 235C353.511 235.552 353.063 236 352.511 236H348.533C347.98 236 347.533 235.552 347.533 235ZM355.489 235C355.489 234.448 355.937 234 356.489 234H360.467C361.02 234 361.467 234.448 361.467 235C361.467 235.552 361.02 236 360.467 236H356.489C355.937 236 355.489 235.552 355.489 235ZM363.446 235C363.446 234.448 363.893 234 364.446 234H368.424C368.976 234 369.424 234.448 369.424 235C369.424 235.552 368.976 236 368.424 236H364.446C363.893 236 363.446 235.552 363.446 235ZM371.402 235C371.402 234.448 371.85 234 372.402 234H376.38C376.933 234 377.38 234.448 377.38 235C377.38 235.552 376.933 236 376.38 236H372.402C371.85 236 371.402 235.552 371.402 235ZM379.359 235C379.359 234.448 379.806 234 380.359 234H384.337C384.889 234 385.337 234.448 385.337 235C385.337 235.552 384.889 236 384.337 236H380.359C379.806 236 379.359 235.552 379.359 235ZM387.315 235C387.315 234.448 387.763 234 388.315 234H392.294C392.846 234 393.294 234.448 393.294 235C393.294 235.552 392.846 236 392.294 236H388.315C387.763 236 387.315 235.552 387.315 235ZM395.272 235C395.272 234.448 395.719 234 396.272 234H400.25C400.802 234 401.25 234.448 401.25 235C401.25 235.552 400.802 236 400.25 236H396.272C395.719 236 395.272 235.552 395.272 235ZM403.228 235C403.228 234.448 403.676 234 404.228 234H408.207C408.759 234 409.207 234.448 409.207 235C409.207 235.552 408.759 236 408.207 236H404.228C403.676 236 403.228 235.552 403.228 235ZM411.185 235C411.185 234.448 411.633 234 412.185 234H416.163C416.715 234 417.163 234.448 417.163 235C417.163 235.552 416.715 236 416.163 236H412.185C411.633 236 411.185 235.552 411.185 235ZM419.141 235C419.141 234.448 419.589 234 420.141 234H424.12C424.672 234 425.12 234.448 425.12 235C425.12 235.552 424.672 236 424.12 236H420.141C419.589 236 419.141 235.552 419.141 235ZM427.098 235C427.098 234.448 427.546 234 428.098 234H432.076C432.628 234 433.076 234.448 433.076 235C433.076 235.552 432.628 236 432.076 236H428.098C427.546 236 427.098 235.552 427.098 235ZM435.054 235C435.054 234.448 435.502 234 436.054 234H440.033C440.585 234 441.033 234.448 441.033 235C441.033 235.552 440.585 236 440.033 236H436.054C435.502 236 435.054 235.552 435.054 235ZM443.011 235C443.011 234.448 443.459 234 444.011 234H446C446.552 234 447 234.448 447 235C447 235.552 446.552 236 446 236H444.011C443.459 236 443.011 235.552 443.011 235Z" fill="#501DBD"/>
<circle cx="685" cy="300" r="8" fill="#501DBD"/>
<circle cx="300" cy="385" r="8" fill="#501DBD"/>
<circle cx="170" cy="385" r="8" fill="#501DBD"/>
<path fill-rule="evenodd" clip-rule="evenodd" d="M169.5 384.5C169.5 383.948 169.948 383.5 170.5 383.5L172.516 383.5C173.068 383.5 173.516 383.948 173.516 384.5C173.516 385.052 173.068 385.5 172.516 385.5L170.5 385.5C169.948 385.5 169.5 385.052 169.5 384.5ZM175.547 384.5C175.547 383.948 175.995 383.5 176.547 383.5L180.578 383.5C181.13 383.5 181.578 383.948 181.578 384.5C181.578 385.052 181.13 385.5 180.578 385.5L176.547 385.5C175.995 385.5 175.547 385.052 175.547 384.5ZM183.609 384.5C183.609 383.948 184.057 383.5 184.609 383.5L188.641 383.5C189.193 383.5 189.641 383.948 189.641 384.5C189.641 385.052 189.193 385.5 188.641 385.5L184.609 385.5C184.057 385.5 183.609 385.052 183.609 384.5ZM191.672 384.5C191.672 383.948 192.12 383.5 192.672 383.5L196.703 383.5C197.255 383.5 197.703 383.948 197.703 384.5C197.703 385.052 197.255 385.5 196.703 385.5L192.672 385.5C192.12 385.5 191.672 385.052 191.672 384.5ZM199.734 384.5C199.734 383.948 200.182 383.5 200.734 383.5L204.766 383.5C205.318 383.5 205.766 383.948 205.766 384.5C205.766 385.052 205.318 385.5 204.766 385.5L200.734 385.5C200.182 385.5 199.734 385.052 199.734 384.5ZM207.797 384.5C207.797 383.948 208.245 383.5 208.797 383.5L212.828 383.5C213.38 383.5 213.828 383.948 213.828 384.5C213.828 385.052 213.38 385.5 212.828 385.5L208.797 385.5C208.245 385.5 207.797 385.052 207.797 384.5ZM215.859 384.5C215.859 383.948 216.307 383.5 216.859 383.5L220.891 383.5C221.443 383.5 221.891 383.948 221.891 384.5C221.891 385.052 221.443 385.5 220.891 385.5L216.859 385.5C216.307 385.5 215.859 385.052 215.859 384.5ZM223.922 384.5C223.922 383.948 224.37 383.5 224.922 383.5L228.953 383.5C229.505 383.5 229.953 383.948 229.953 384.5C229.953 385.052 229.505 385.5 228.953 385.5L224.922 385.5C224.37 385.5 223.922 385.052 223.922 384.5ZM231.984 384.5C231.984 383.948 232.432 383.5 232.984 383.5L237.016 383.5C237.568 383.5 238.016 383.948 238.016 384.5C238.016 385.052 237.568 385.5 237.016 385.5L232.984 385.5C232.432 385.5 231.984 385.052 231.984 384.5ZM240.047 384.5C240.047 383.948 240.495 383.5 241.047 383.5L245.078 383.5C245.63 383.5 246.078 383.948 246.078 384.5C246.078 385.052 245.63 385.5 245.078 385.5L241.047 385.5C240.495 385.5 240.047 385.052 240.047 384.5ZM248.109 384.5C248.109 383.948 248.557 383.5 249.109 383.5L253.141 383.5C253.693 383.5 254.141 383.948 254.141 384.5C254.141 385.052 253.693 385.5 253.141 385.5L249.109 385.5C248.557 385.5 248.109 385.052 248.109 384.5ZM256.172 384.5C256.172 383.948 256.62 383.5 257.172 383.5L261.203 383.5C261.755 383.5 262.203 383.948 262.203 384.5C262.203 385.052 261.755 385.5 261.203 385.5L257.172 385.5C256.62 385.5 256.172 385.052 256.172 384.5ZM264.234 384.5C264.234 383.948 264.682 383.5 265.234 383.5L269.266 383.5C269.818 383.5 270.266 383.948 270.266 384.5C270.266 385.052 269.818 385.5 269.266 385.5L265.234 385.5C264.682 385.5 264.234 385.052 264.234 384.5ZM272.297 384.5C272.297 383.948 272.745 383.5 273.297 383.5L277.328 383.5C277.88 383.5 278.328 383.948 278.328 384.5C278.328 385.052 277.88 385.5 277.328 385.5L273.297 385.5C272.745 385.5 272.297 385.052 272.297 384.5ZM280.359 384.5C280.359 383.948 280.807 383.5 281.359 383.5L285.391 383.5C285.943 383.5 286.391 383.948 286.391 384.5C286.391 385.052 285.943 385.5 285.391 385.5L281.359 385.5C280.807 385.5 280.359 385.052 280.359 384.5ZM288.422 384.5C288.422 383.948 288.87 383.5 289.422 383.5L293.453 383.5C294.005 383.5 294.453 383.948 294.453 384.5C294.453 385.052 294.005 385.5 293.453 385.5L289.422 385.5C288.87 385.5 288.422 385.052 288.422 384.5ZM296.484 384.5C296.484 383.948 296.932 383.5 297.484 383.5L299.5 383.5C300.052 383.5 300.5 383.948 300.5 384.5C300.5 385.052 300.052 385.5 299.5 385.5L297.484 385.5C296.932 385.5 296.484 385.052 296.484 384.5Z" fill="#501DBD"/>
<circle cx="600" cy="385" r="8" fill="#501DBD"/>
<circle cx="470" cy="385" r="8" fill="#501DBD"/>
<path fill-rule="evenodd" clip-rule="evenodd" d="M469.5 384.5C469.5 383.948 469.948 383.5 470.5 383.5L472.516 383.5C473.068 383.5 473.516 383.948 473.516 384.5C473.516 385.052 473.068 385.5 472.516 385.5L470.5 385.5C469.948 385.5 469.5 385.052 469.5 384.5ZM475.547 384.5C475.547 383.948 475.995 383.5 476.547 383.5L480.578 383.5C481.13 383.5 481.578 383.948 481.578 384.5C481.578 385.052 481.13 385.5 480.578 385.5L476.547 385.5C475.995 385.5 475.547 385.052 475.547 384.5ZM483.609 384.5C483.609 383.948 484.057 383.5 484.609 383.5L488.641 383.5C489.193 383.5 489.641 383.948 489.641 384.5C489.641 385.052 489.193 385.5 488.641 385.5L484.609 385.5C484.057 385.5 483.609 385.052 483.609 384.5ZM491.672 384.5C491.672 383.948 492.12 383.5 492.672 383.5L496.703 383.5C497.255 383.5 497.703 383.948 497.703 384.5C497.703 385.052 497.255 385.5 496.703 385.5L492.672 385.5C492.12 385.5 491.672 385.052 491.672 384.5ZM499.734 384.5C499.734 383.948 500.182 383.5 500.734 383.5L504.766 383.5C505.318 383.5 505.766 383.948 505.766 384.5C505.766 385.052 505.318 385.5 504.766 385.5L500.734 385.5C500.182 385.5 499.734 385.052 499.734 384.5ZM507.797 384.5C507.797 383.948 508.245 383.5 508.797 383.5L512.828 383.5C513.38 383.5 513.828 383.948 513.828 384.5C513.828 385.052 513.38 385.5 512.828 385.5L508.797 385.5C508.245 385.5 507.797 385.052 507.797 384.5ZM515.859 384.5C515.859 383.948 516.307 383.5 516.859 383.5L520.891 383.5C521.443 383.5 521.891 383.948 521.891 384.5C521.891 385.052 521.443 385.5 520.891 385.5L516.859 385.5C516.307 385.5 515.859 385.052 515.859 384.5ZM523.922 384.5C523.922 383.948 524.37 383.5 524.922 383.5L528.953 383.5C529.505 383.5 529.953 383.948 529.953 384.5C529.953 385.052 529.505 385.5 528.953 385.5L524.922 385.5C524.37 385.5 523.922 385.052 523.922 384.5ZM531.984 384.5C531.984 383.948 532.432 383.5 532.984 383.5L537.016 383.5C537.568 383.5 538.016 383.948 538.016 384.5C538.016 385.052 537.568 385.5 537.016 385.5L532.984 385.5C532.432 385.5 531.984 385.052 531.984 384.5ZM540.047 384.5C540.047 383.948 540.495 383.5 541.047 383.5L545.078 383.5C545.63 383.5 546.078 383.948 546.078 384.5C546.078 385.052 545.63 385.5 545.078 385.5L541.047 385.5C540.495 385.5 540.047 385.052 540.047 384.5ZM548.109 384.5C548.109 383.948 548.557 383.5 549.109 383.5L553.141 383.5C553.693 383.5 554.141 383.948 554.141 384.5C554.141 385.052 553.693 385.5 553.141 385.5L549.109 385.5C548.557 385.5 548.109 385.052 548.109 384.5ZM556.172 384.5C556.172 383.948 556.62 383.5 557.172 383.5L561.203 383.5C561.755 383.5 562.203 383.948 562.203 384.5C562.203 385.052 561.755 385.5 561.203 385.5L557.172 385.5C556.62 385.5 556.172 385.052 556.172 384.5ZM564.234 384.5C564.234 383.948 564.682 383.5 565.234 383.5L569.266 383.5C569.818 383.5 570.266 383.948 570.266 384.5C570.266 385.052 569.818 385.5 569.266 385.5L565.234 385.5C564.682 385.5 564.234 385.052 564.234 384.5ZM572.297 384.5C572.297 383.948 572.745 383.5 573.297 383.5L577.328 383.5C577.88 383.5 578.328 383.948 578.328 384.5C578.328 385.052 577.88 385.5 577.328 385.5L573.297 385.5C572.745 385.5 572.297 385.052 572.297 384.5ZM580.359 384.5C580.359 383.948 580.807 383.5 581.359 383.5L585.391 383.5C585.943 383.5 586.391 383.948 586.391 384.5C586.391 385.052 585.943 385.5 585.391 385.5L581.359 385.5C580.807 385.5 580.359 385.052 580.359 384.5ZM588.422 384.5C588.422 383.948 588.87 383.5 589.422 383.5L593.453 383.5C594.005 383.5 594.453 383.948 594.453 384.5C594.453 385.052 594.005 385.5 593.453 385.5L589.422 385.5C588.87 385.5 588.422 385.052 588.422 384.5ZM596.484 384.5C596.484 383.948 596.932 383.5 597.484 383.5L599.5 383.5C600.052 383.5 600.5 383.948 600.5 384.5C600.5 385.052 600.052 385.5 599.5 385.5L597.484 385.5C596.932 385.5 596.484 385.052 596.484 384.5Z" fill="#501DBD"/>
<circle cx="470" cy="85" r="8" fill="#501DBD"/>
<circle cx="340" cy="85" r="8" fill="#501DBD"/>
<path fill-rule="evenodd" clip-rule="evenodd" d="M339.5 84.5C339.5 83.9477 339.948 83.5 340.5 83.5L342.516 83.5C343.068 83.5 343.516 83.9477 343.516 84.5C343.516 85.0523 343.068 85.5 342.516 85.5L340.5 85.5C339.948 85.5 339.5 85.0523 339.5 84.5ZM345.547 84.5C345.547 83.9477 345.995 83.5 346.547 83.5L350.578 83.5C351.13 83.5 351.578 83.9477 351.578 84.5C351.578 85.0523 351.13 85.5 350.578 85.5L346.547 85.5C345.995 85.5 345.547 85.0523 345.547 84.5ZM353.609 84.5C353.609 83.9477 354.057 83.5 354.609 83.5L358.641 83.5C359.193 83.5 359.641 83.9477 359.641 84.5C359.641 85.0523 359.193 85.5 358.641 85.5L354.609 85.5C354.057 85.5 353.609 85.0523 353.609 84.5ZM361.672 84.5C361.672 83.9477 362.12 83.5 362.672 83.5L366.703 83.5C367.255 83.5 367.703 83.9477 367.703 84.5C367.703 85.0523 367.255 85.5 366.703 85.5L362.672 85.5C362.12 85.5 361.672 85.0523 361.672 84.5ZM369.734 84.5C369.734 83.9477 370.182 83.5 370.734 83.5L374.766 83.5C375.318 83.5 375.766 83.9477 375.766 84.5C375.766 85.0523 375.318 85.5 374.766 85.5L370.734 85.5C370.182 85.5 369.734 85.0523 369.734 84.5ZM377.797 84.5C377.797 83.9477 378.245 83.5 378.797 83.5L382.828 83.5C383.38 83.5 383.828 83.9477 383.828 84.5C383.828 85.0523 383.38 85.5 382.828 85.5L378.797 85.5C378.245 85.5 377.797 85.0523 377.797 84.5ZM385.859 84.5C385.859 83.9477 386.307 83.5 386.859 83.5L390.891 83.5C391.443 83.5 391.891 83.9477 391.891 84.5C391.891 85.0523 391.443 85.5 390.891 85.5L386.859 85.5C386.307 85.5 385.859 85.0523 385.859 84.5ZM393.922 84.5C393.922 83.9477 394.37 83.5 394.922 83.5L398.953 83.5C399.505 83.5 399.953 83.9477 399.953 84.5C399.953 85.0523 399.505 85.5 398.953 85.5L394.922 85.5C394.37 85.5 393.922 85.0523 393.922 84.5ZM401.984 84.5C401.984 83.9477 402.432 83.5 402.984 83.5L407.016 83.5C407.568 83.5 408.016 83.9477 408.016 84.5C408.016 85.0523 407.568 85.5 407.016 85.5L402.984 85.5C402.432 85.5 401.984 85.0523 401.984 84.5ZM410.047 84.5C410.047 83.9477 410.495 83.5 411.047 83.5L415.078 83.5C415.63 83.5 416.078 83.9477 416.078 84.5C416.078 85.0523 415.63 85.5 415.078 85.5L411.047 85.5C410.495 85.5 410.047 85.0523 410.047 84.5ZM418.109 84.5C418.109 83.9477 418.557 83.5 419.109 83.5L423.141 83.5C423.693 83.5 424.141 83.9477 424.141 84.5C424.141 85.0523 423.693 85.5 423.141 85.5L419.109 85.5C418.557 85.5 418.109 85.0523 418.109 84.5ZM426.172 84.5C426.172 83.9477 426.62 83.5 427.172 83.5L431.203 83.5C431.755 83.5 432.203 83.9477 432.203 84.5C432.203 85.0523 431.755 85.5 431.203 85.5L427.172 85.5C426.62 85.5 426.172 85.0523 426.172 84.5ZM434.234 84.5C434.234 83.9477 434.682 83.5 435.234 83.5L439.266 83.5C439.818 83.5 440.266 83.9477 440.266 84.5C440.266 85.0523 439.818 85.5 439.266 85.5L435.234 85.5C434.682 85.5 434.234 85.0523 434.234 84.5ZM442.297 84.5C442.297 83.9477 442.745 83.5 443.297 83.5L447.328 83.5C447.88 83.5 448.328 83.9477 448.328 84.5C448.328 85.0523 447.88 85.5 447.328 85.5L443.297 85.5C442.745 85.5 442.297 85.0523 442.297 84.5ZM450.359 84.5C450.359 83.9477 450.807 83.5 451.359 83.5L455.391 83.5C455.943 83.5 456.391 83.9477 456.391 84.5C456.391 85.0523 455.943 85.5 455.391 85.5L451.359 85.5C450.807 85.5 450.359 85.0523 450.359 84.5ZM458.422 84.5C458.422 83.9477 458.87 83.5 459.422 83.5L463.453 83.5C464.005 83.5 464.453 83.9477 464.453 84.5C464.453 85.0523 464.005 85.5 463.453 85.5L459.422 85.5C458.87 85.5 458.422 85.0523 458.422 84.5ZM466.484 84.5C466.484 83.9477 466.932 83.5 467.484 83.5L469.5 83.5C470.052 83.5 470.5 83.9477 470.5 84.5C470.5 85.0523 470.052 85.5 469.5 85.5L467.484 85.5C466.932 85.5 466.484 85.0523 466.484 84.5Z" fill="#501DBD"/>
<path d="M400 365C400 366.75 401.25 368 403 368C404.625 368 406 366.75 406 365C406 363.375 404.625 362 403 362C401.25 362 400 363.375 400 365ZM395 368C396.625 368 398 366.75 398 365C398 363.375 396.625 362 395 362C393.25 362 392 363.375 392 365C392 366.75 393.25 368 395 368ZM417 352V342C417 338.75 414.25 336 411 336H359C355.625 336 353 338.75 353 342V352C353 353.625 353.5 355 354.5 356C353.5 357.125 353 358.5 353 360V370C353 371.625 353.5 373 354.5 374C353.5 375.125 353 376.5 353 378V388C353 391.375 355.625 394 359 394H411C414.25 394 417 391.375 417 388V378C417 376.5 416.375 375.125 415.375 374C416.375 373 417 371.625 417 370V360C417 358.5 416.375 357.125 415.375 356C416.375 355 417 353.625 417 352ZM357 352V342C357 341 357.875 340 359 340H411C412 340 413 341 413 342V352C413 353.125 412 354 411 354H359C357.875 354 357 353.125 357 352ZM411 358C412 358 413 359 413 360V370C413 371.125 412 372 411 372H359C357.875 372 357 371.125 357 370V360C357 359 357.875 358 359 358H411ZM413 378V388C413 389.125 412 390 411 390H359C357.875 390 357 389.125 357 388V378C357 377 357.875 376 359 376H411C412 376 413 377 413 378ZM403 350C404.625 350 406 348.75 406 347C406 345.375 404.625 344 403 344C401.25 344 400 345.375 400 347C400 348.75 401.25 350 403 350ZM395 350C396.625 350 398 348.75 398 347C398 345.375 396.625 344 395 344C393.25 344 392 345.375 392 347C392 348.75 393.25 350 395 350ZM403 380C401.25 380 400 381.375 400 383C400 384.75 401.25 386 403 386C404.625 386 406 384.75 406 383C406 381.375 404.625 380 403 380ZM395 380C393.25 380 392 381.375 392 383C392 384.75 393.25 386 395 386C396.625 386 398 384.75 398 383C398 381.375 396.625 380 395 380Z" fill="#A2A8AF"/>
</svg>
