<svg xmlns="http://www.w3.org/2000/svg" viewBox="0 0 706 578">
<style>
/* <![CDATA[ */
#b1 {
  animation: wchange1 10s ease-in-out infinite;
}
@keyframes wchange1 {
  0%, 80%, 100% {
    opacity: 0;
    width: 0px;
    x: 248.4735px;
  }
  10%, 70% {
    opacity: 1;
    width: 202.175px;
    x: 147.386px;
  }
}
#b2 {
  animation: wchange2 10s ease-in-out infinite;
}
@keyframes wchange2 {
  0%, 10%, 90%, 100% {
    opacity: 0;
    width: 0px;
    x: 541.3155px;
  }
  20%, 80% {
    opacity: 1;
    width: 202.175px;
    x: 440.228px;
  }
}
#mask {
  animation: mask_anim 10s ease-out infinite;
}
@keyframes mask_anim {
  0%, 10% {
    stroke-dashoffset: 375;
  }
  20%, 100% {
    stroke-dashoffset: 0;
  }
  0%, 80% {
    opacity: 1;
  }
  90%, 100% {
    opacity: 0;
  }
}
/* ]]> */
</style>
<g id="bg">
  <rect width="552.456" height="339.702" x="118" y="42.86" fill="#183D5D"/>
  <path fill="#93C2DB" fill-rule="evenodd" d="M137.394 62.842h-.587V362.496h514.852V62.842H137.394zm.588 74.62V64.018h71.779v73.444h-71.779zm0 74.619v-73.444h71.779v73.444h-71.779zm0 1.176v73.444h71.779v-73.444h-71.779zm0 148.064v-73.444h71.779v73.444h-71.779zm73.454-297.303v73.444h71.778V64.018h-71.778zm0 148.063v-73.444h71.778v73.444h-71.778zm0 1.176v73.444h71.778v-73.444h-71.778zm0 148.064v-73.444h71.778v73.444h-71.778zM284.89 64.018v73.444h71.779V64.018H284.89zm0 148.063v-73.444h71.779v73.444H284.89zm0 1.176v73.444h71.779v-73.444H284.89zm0 148.064v-73.444h71.779v73.444H284.89zm73.454-297.303v73.444h71.778V64.018h-71.778zm0 148.063v-73.444h71.778v73.444h-71.778zm0 1.176v73.444h71.778v-73.444h-71.778zm0 148.064v-73.444h71.778v73.444h-71.778zm73.453-297.303v73.444h71.779V64.018h-71.779zm0 148.063v-73.444h71.779v73.444h-71.779zm0 1.176v73.444h71.779v-73.444h-71.779zm0 148.064v-73.444h71.779v73.444h-71.779zm73.455-297.303v73.444h71.778V64.018h-71.778zm0 148.063v-73.444h71.778v73.444h-71.778zm0 1.176v73.444h71.778v-73.444h-71.778zm0 148.064v-73.444h71.778v73.444h-71.778zm73.453-297.303v73.444h71.779V64.018h-71.779zm0 148.063v-73.444h71.779v73.444h-71.779zm0 1.176v73.444h71.779v-73.444h-71.779zm0 148.064v-73.444h71.779v73.444h-71.779z" clip-rule="evenodd" opacity=".1"/>
  <linearGradient id="lnr_1" x1="117.7618" x2="670.5685" y1="552.3303" y2="559.8751" gradientTransform="matrix(1 0 0 -1 0 578)" gradientUnits="userSpaceOnUse">
    <stop offset="0" stop-color="#9c4668"/>
    <stop offset="1" stop-color="#ff8ae2"/>
  </linearGradient>
  <path fill="url(#lnr_1)" d="M118 9.947c0-5.193 4.21-9.403 9.404-9.403h533.649c5.193 0 9.403 4.21 9.403 9.404v33.174H118V9.947z"/>
</g>
<g id="anim">
  <mask id="msk">
    <polyline id="mask" stroke-dasharray="375" stroke-dashoffset="375" stroke="#FFF" stroke-width="3" fill="none" points="541.489 280 541.489 512.565 405.16 512.565"/>
  </mask>
  <g id="line" fill="none" mask="url(#msk)">
    <line x1="541.5" x2="541.5" y1="250" y2="513" stroke="#93C2DB" stroke-dasharray="4 2"/>
    <line x1="405" x2="541" y1="512.5" y2="512.5" stroke="#93C2DB" stroke-dasharray="4 2"/>
  </g>
  <rect id="b1" width="202.175" height="56.421" x="147.386" y="72.246" fill="#93C2DB"/>
  <rect id="b2" width="202.175" height="56.421" x="440.228" y="221.526" fill="#93C2DB"/>
  <rect id="b3" width="202.175" height="56.421" x="147.386" y="295.579" fill="#93C2DB"/>
  <rect id="bs1" width="277" height="56" x="365.228" y="72.965" fill="#93C2DB" opacity=".16"/>
  <rect id="bs2" width="273.877" height="56.421" x="147.386" y="221.526" fill="#93C2DB" opacity=".16"/>
</g>
<g id="top">
  <linearGradient id="lnr_2" x1="29.903" x2="395.0841" y1="176.219" y2="176.6801" gradientTransform="matrix(1 0 0 -1 0 578)" gradientUnits="userSpaceOnUse">
    <stop offset="0" stop-color="#9c4668"/>
    <stop offset="1" stop-color="#ff8ae2"/>
  </linearGradient>
  <path fill="url(#lnr_2)" d="M30 249.544h285c44.183 0 80 35.817 80 80v224H110c-44.183 0-80-35.817-80-80v-224z"/>
  <path fill="#FFF" d="M96.068 318.089c0-11.659-7.5-17.931-16.977-17.931-9.545 0-16.977 6.272-16.977 17.931 0 11.591 7.432 17.932 16.977 17.932 9.477 0 16.977-6.273 16.977-17.932zm-9.75 0c0 6.273-2.523 9.682-7.227 9.682-4.704 0-7.227-3.409-7.227-9.682 0-6.272 2.523-9.681 7.227-9.681 4.705 0 7.227 3.409 7.227 9.681zm26.885 17.932c7.756 0 12.511-4.449 12.614-11.386h-8.728c-.204 2.744-1.687 4.227-3.75 4.227-2.471 0-4.09-2.114-4.09-6.409s1.619-6.409 4.09-6.409c2.08 0 3.495 1.483 3.75 4.227h8.728c-.051-6.818-4.909-11.25-12.614-11.25-8.523 0-13.568 5.455-13.568 13.5 0 8.046 5.045 13.5 13.568 13.5zm32.109-26.659h-4.5v-6.273h-9.409v6.273h-3.341v6.818h3.341v11.83c-.068 5.488 3.324 8.267 9.819 7.909 2.13-.119 3.716-.563 4.568-.818l-1.364-6.614c-.358.085-1.278.273-1.841.273-1.227 0-1.773-.546-1.773-1.637V316.18h4.5v-6.818zm13.334 26.182h26.796v-7.568h-13.637v-.205l3.273-2.727c7.96-6.631 9.989-10.074 9.989-14.114 0-6.511-5.335-10.772-13.705-10.772-8.13 0-13.415 4.517-13.398 11.863h9c-.017-2.932 1.773-4.568 4.398-4.568 2.608 0 4.466 1.619 4.466 4.295 0 2.472-1.585 4.074-4.159 6.205l-13.023 10.773v6.818zm46.236.954c9.494.018 15.392-6.784 15.409-18.34.017-11.489-5.915-18-15.409-18-9.511 0-15.375 6.477-15.409 18-.034 11.505 5.898 18.323 15.409 18.34zm0-7.704c-3.273 0-5.625-3.29-5.591-10.636.034-7.177 2.318-10.364 5.591-10.364s5.574 3.187 5.591 10.364c.017 7.346-2.318 10.636-5.591 10.636z"/>
  <rect width="100.585" height="16" x="60" y="372" fill="#FFF" fill-opacity=".24"/>
  <rect width="305" height="16" x="60" y="406.456" fill="#FFF" fill-opacity=".24"/>
  <rect width="305" height="16" x="60" y="440" fill="#FFF" fill-opacity=".24"/>
</g>
</svg>
