<?xml version="1.0" encoding="utf-8"?>
<!-- Generator: Adobe Illustrator 28.0.0, SVG Export Plug-In . SVG Version: 6.00 Build 0)  -->
<svg version="1.1" id="Layer_1" xmlns="http://www.w3.org/2000/svg" xmlns:xlink="http://www.w3.org/1999/xlink" x="0px" y="0px"
	 viewBox="0 0 536 386" style="enable-background:new 0 0 536 386;" xml:space="preserve">
<style type="text/css">
	.st0{opacity:0.8;fill:#3D3A39;enable-background:new    ;}
	.st1{fill:#3C3A39;}
	.st2{fill:url(#SVGID_1_);}
	.st3{fill:url(#SVGID_00000173842344378589334340000015142111007281990554_);}
	.st4{fill:url(#SVGID_00000093880902141171779540000002060786046563363006_);}
	.st5{fill:url(#SVGID_00000173139919756645963380000012831320120172336551_);}
	.st6{fill:url(#SVGID_00000096772528038600855010000004475994928452275104_);}
	.st7{fill:url(#SVGID_00000080168380044456589860000013660631237105155211_);}
	.st8{fill:#003F2D;}
	.st9{fill:url(#SVGID_00000005266362499296736980000001655012158118322073_);}
	.st10{fill:url(#SVGID_00000008855984374100670320000009486920092014764188_);}
	.st11{fill:url(#SVGID_00000065796685864436935070000010849296867161787581_);}
	.st12{fill:url(#SVGID_00000008122019468580992690000006039441708001003140_);}
	.st13{fill:url(#SVGID_00000053528371776047193450000002206596727557926274_);}
	.st14{fill:#008061;}
	.st15{fill:#00BCE4;}
	.st16{fill:#8DC63F;}
	.st17{fill:#FFDD00;}
	.st18{fill:#F9A01B;}
	.st19{fill:#ED1B30;}
</style>
<path class="st0" d="M24.9,357.6c14.3,10.9,38.7,13.2,69.6,18s106.9,9.5,238.2,9.5s170.5-4.2,186.5-18.4
	c16-14.3,17.8-30.3,13.1-42.2s-20.8-39.2-35-55.8c-14.3-16.6-20.8-21.4-27.9-26.1c-7.1-4.8-275.6-1.2-326.1-1.2S12.4,302.6,12.5,318
	C12.5,333.4,17.7,352.1,24.9,357.6L24.9,357.6z"/>
<path class="st1" d="M63.1,73.9c0,0-3.2,0.8-4.7,0s-2.8-2.2-4.8-3.3c-2.1-1.1-18.1,0.6-25.6,3.6S20.4,85,21.1,86.9
	c0.7,1.9,5.1,3.2,13,3.2s16.9,0,19.8-0.7c2.9-0.7,5.3-1.7,5.9-2.6C60.5,85.8,63.1,73.9,63.1,73.9z"/>
<linearGradient id="SVGID_1_" gradientUnits="userSpaceOnUse" x1="28.0734" y1="775.8251" x2="62.1005" y2="775.8251" gradientTransform="matrix(0.9948 0 0 0.9948 -5.7736 -691.9667)">
	<stop  offset="0" style="stop-color:#9DB2C6"/>
	<stop  offset="1" style="stop-color:#5C7586"/>
</linearGradient>
<path class="st2" d="M52.3,71.8c-2.9-0.4-13.3,1.1-19.5,2.6s-9.3,4.6-10.2,7.3s-0.3,5.3,2.8,5.8c3,0.6,7.5,0.4,14.2,0.3
	c6.8-0.1,11.8-0.3,13.6-1.1c1.8-0.8,3.2-7.5,2.8-10.2C55.5,73.8,54.2,72.1,52.3,71.8z"/>
<path class="st1" d="M420.9,73.9c0,0,3.2,0.8,4.7,0s2.8-2.2,4.8-3.3c2.1-1.1,18.1,0.6,25.6,3.6s7.6,10.8,6.9,12.7
	c-0.7,1.9-5.1,3.2-13,3.2s-16.9,0-19.8-0.7s-5.3-1.7-5.9-2.6C423.5,85.8,420.9,73.9,420.9,73.9z"/>
<linearGradient id="SVGID_00000029757790487623818930000011872466181342199700_" gradientUnits="userSpaceOnUse" x1="-3934.3914" y1="775.8251" x2="-3900.3643" y2="775.8251" gradientTransform="matrix(-0.9948 0 0 0.9948 -3452.1936 -691.9667)">
	<stop  offset="0" style="stop-color:#9DB2C6"/>
	<stop  offset="1" style="stop-color:#5C7586"/>
</linearGradient>
<path style="fill:url(#SVGID_00000029757790487623818930000011872466181342199700_);" d="M431.7,71.8c2.9-0.4,13.3,1.1,19.5,2.6
	s9.3,4.6,10.2,7.3s0.3,5.3-2.8,5.8c-3,0.6-7.5,0.4-14.2,0.3c-6.8-0.1-11.8-0.3-13.6-1.1c-1.8-0.8-3.2-7.5-2.8-10.2
	C428.5,73.8,429.8,72.1,431.7,71.8L431.7,71.8z"/>
<path class="st1" d="M242,308.9h110.7l39.3,19.8c0,0-67.1,2.7-150,2.7s-150-2.7-150-2.7l39.3-19.8H242L242,308.9z"/>
<g>
	<path class="st1" d="M12.5,318c0,11.2,2,27.5,5,33.2s3.4,6.4,7.4,6.4h45.6c3.7,0,7.7-5.4,8.7-9.7c1-4.4,3.7-19.8,3-26.5
		S66.1,313,45,313S12.5,312.6,12.5,318z M471.5,318c0,11.2-2,27.5-5,33.2s-3.4,6.4-7.4,6.4h-45.6c-3.7,0-7.7-5.4-8.7-9.7
		c-1-4.4-3.7-19.8-3-26.5s16.1-8.4,37.2-8.4S471.5,312.6,471.5,318z"/>
</g>
<linearGradient id="SVGID_00000022559933807246500810000015727512476437898114_" gradientUnits="userSpaceOnUse" x1="172.7893" y1="709.8524" x2="265.0693" y2="981.6823" gradientTransform="matrix(0.9948 0 0 0.9948 -5.7736 -691.9667)">
	<stop  offset="0" style="stop-color:#008C6A"/>
	<stop  offset="1" style="stop-color:#008061"/>
</linearGradient>
<path style="fill:url(#SVGID_00000022559933807246500810000015727512476437898114_);" d="M242,320.1c39,0,81.2-0.7,95.6-0.7
	s62.8,16.3,78.6,14.9c15.9-1.4,47.6-5.7,55.6-12.7c7.9-7.1,10.8-90.5,10.8-115.2s-13.7-70.7-22.4-78.4s-26-29-31.7-38.9
	S413.3,56.6,407.6,46c-5.8-10.6-18.8-31.1-30.3-33.9C365.7,9.2,305.5,0,242,0S118.3,9.2,106.7,12c-11.5,2.8-24.5,23.3-30.3,33.9
	C70.6,56.5,61.3,79.1,55.5,89s-23.1,31.1-31.7,38.9c-8.7,7.8-22.4,53.7-22.4,78.4s2.9,108.1,10.8,115.2s39.7,11.3,55.6,12.7
	c15.9,1.4,64.2-14.9,78.6-14.9C160.8,319.4,203,320.1,242,320.1z"/>
<path class="st1" d="M242,162.7c102.5,0,135.2-5.8,140.5-7.2c5.4-1.3,10.3-2.7,10.3-4.9s-0.4-16.1-7.2-53.3S373,40.6,372.8,39.7
	c-0.2-0.9-1.1-3.8-6.9-5.1s-56.8-8.1-124-8.1c-67.1,0-118.2,6.7-124,8.1c-5.8,1.3-6.7,4.2-6.9,5.1c-0.2,0.9-6.1,20.4-12.8,57.6
	c-6.7,37.1-7.2,51-7.2,53.3c0,2.2,4.9,3.6,10.3,4.9C106.8,156.9,139.5,162.7,242,162.7L242,162.7z"/>
<linearGradient id="SVGID_00000002358937952764231370000007598882156422074500_" gradientUnits="userSpaceOnUse" x1="167.8228" y1="734.244" x2="319.1128" y2="848.1339" gradientTransform="matrix(0.9948 0 0 0.9948 -5.7736 -691.9667)">
	<stop  offset="0" style="stop-color:#9DB2C6"/>
	<stop  offset="1" style="stop-color:#5C7586"/>
</linearGradient>
<path style="fill:url(#SVGID_00000002358937952764231370000007598882156422074500_);" d="M242,154.6c99.1,0,130.7-5.4,135.9-6.6
	c5.2-1.2,10-2.5,10-4.5c0-2.1-0.4-14.9-6.9-49.2s-12.1-52.4-12.4-53.2s-1-3.5-6.7-4.7c-5.6-1.2-55-7.4-119.9-7.4
	s-114.3,6.2-119.9,7.4s-6.4,3.9-6.7,4.7c-0.2,0.8-5.9,18.9-12.4,53.2s-6.9,47.2-6.9,49.2s4.8,3.3,10,4.5
	C111.3,149.3,142.9,154.6,242,154.6L242,154.6z"/>
<path class="st1" d="M100.3,14.5c0,0-6,28.2-8.7,35.1s-21.4,47-24.9,55.6s-6.4,16.5-7.2,15.4c-0.8-1-3.3-17.4-2-26.8
	s3.9-17.2,14.9-39C83.4,33.1,94.8,18.3,100.3,14.5z"/>
<linearGradient id="SVGID_00000091706063398436872900000001839383679610821536_" gradientUnits="userSpaceOnUse" x1="64.2678" y1="758.7081" x2="104.5583" y2="758.7081" gradientTransform="matrix(0.9948 0 0 0.9948 -5.7736 -691.9667)">
	<stop  offset="0" style="stop-color:#9DB2C6"/>
	<stop  offset="1" style="stop-color:#5C7586"/>
</linearGradient>
<path style="fill:url(#SVGID_00000091706063398436872900000001839383679610821536_);" d="M98.2,15.9c0,0-5.6,21.3-8.1,27.7
	c-2.4,6.4-19.8,43.7-23,51.7c-3.3,8-5.9,15.3-6.7,14.3s-3.1-11.3-1.9-20.1c1.2-8.8,3.6-15.9,13.8-36.2
	C82.6,33.1,93.1,19.4,98.2,15.9z"/>
<path class="st1" d="M383.7,14.5c0,0,6,28.2,8.7,35.1s21.4,47,24.9,55.6s6.4,16.5,7.2,15.4s3.3-17.4,2-26.8s-3.9-17.2-14.9-39
	C400.6,33.1,389.2,18.3,383.7,14.5z"/>
<linearGradient id="SVGID_00000075120268555644669570000009335357746605899906_" gradientUnits="userSpaceOnUse" x1="-3898.1929" y1="758.6578" x2="-3857.9023" y2="758.6578" gradientTransform="matrix(-0.9948 0 0 0.9948 -3452.1936 -691.9667)">
	<stop  offset="0" style="stop-color:#9DB2C6"/>
	<stop  offset="1" style="stop-color:#5C7586"/>
</linearGradient>
<path style="fill:url(#SVGID_00000075120268555644669570000009335357746605899906_);" d="M385.8,15.9c0,0,5.6,21.3,8.1,27.7
	s19.9,43.6,23.1,51.6c3.3,8,5.9,15.3,6.7,14.3c0.8-1,3.1-11.3,1.9-20.1s-3.6-15.9-13.8-36.2C401.4,33.1,390.9,19.4,385.8,15.9
	L385.8,15.9z"/>
<path class="st8" d="M242,190.1c54.1,0,114.3-0.4,118.8-0.4c0,0,3.2,8.4,1.3,15.8s-12.7,4.6-12.7,4.6s-43.5-3.2-107.5-3.2
	S134.5,210,134.5,210s-10.8,2.9-12.7-4.6c-1.9-7.4,1.3-15.8,1.3-15.8C127.7,189.6,187.9,190.1,242,190.1L242,190.1z"/>
<linearGradient id="SVGID_00000100378794513011415640000010648552366032585898_" gradientUnits="userSpaceOnUse" x1="41.6315" y1="900.0052" x2="141.0069" y2="900.0052" gradientTransform="matrix(0.9948 0 0 0.9948 -5.7736 -691.9667)">
	<stop  offset="0" style="stop-color:#E1A367"/>
	<stop  offset="1" style="stop-color:#CF5427"/>
</linearGradient>
<path style="fill:url(#SVGID_00000100378794513011415640000010648552366032585898_);" d="M123.2,189.6c0,0-14.4-0.4-34.3-2.9
	c-15.4-2-30.8-4.3-46.2-6.9c-4-0.7-7.9-0.7-6.9,14.1s3.6,34.3,14.8,33.2s42.8-10.6,59.8-13.5c17.1-2.9,24.1-3.7,24.1-3.7
	L123.2,189.6L123.2,189.6z"/>
<linearGradient id="SVGID_00000067194446587013994400000015675863086353469827_" gradientUnits="userSpaceOnUse" x1="-3921.4846" y1="900.0052" x2="-3822.1091" y2="900.0052" gradientTransform="matrix(-0.9948 0 0 0.9948 -3452.8899 -691.9667)">
	<stop  offset="0" style="stop-color:#E1A367"/>
	<stop  offset="1" style="stop-color:#CF5427"/>
</linearGradient>
<path style="fill:url(#SVGID_00000067194446587013994400000015675863086353469827_);" d="M360.8,189.6c0,0,14.4-0.4,34.3-2.9
	c19.8-2.5,42.2-6.1,46.2-6.9c4-0.7,7.9-0.7,6.9,14.1s-3.6,34.3-14.8,33.2c-11.2-1.1-42.8-10.6-59.8-13.5
	c-17.1-2.9-24.1-3.7-24.1-3.7L360.8,189.6L360.8,189.6z"/>
<linearGradient id="SVGID_00000024710067014229455390000007985397249906629030_" gradientUnits="userSpaceOnUse" x1="-55.5477" y1="956.7825" x2="432.0023" y2="956.7825" gradientTransform="matrix(0.9948 0 0 0.9948 -5.7736 -691.9667)">
	<stop  offset="0" style="stop-color:#00694E"/>
	<stop  offset="1" style="stop-color:#00694E"/>
</linearGradient>
<path style="fill:url(#SVGID_00000024710067014229455390000007985397249906629030_);" d="M242,255.5c123,0,164.5-6.7,185.5-9.7
	s27.3-16.1,29.7-16.1c2.3,0,1,10.1-1.3,27.5c0,0-3,19.8-4.3,25.8s-5,8.1-7.7,6.4s-2.7-21.5-18.3-20.1c-15.7,1.3-101.5,4.7-183.5,4.7
	s-167.8-3.4-183.5-4.7s-15.7,18.5-18.3,20.1c-2.7,1.7-6.3-0.3-7.7-6.4c-1.3-6-4.3-25.8-4.3-25.8c-2.3-17.4-3.7-27.5-1.3-27.5
	c2.3,0,8.7,13.1,29.7,16.1C77.5,248.8,119,255.5,242,255.5L242,255.5z"/>
<linearGradient id="SVGID_00000086680759633949954350000003063210815853033360_" gradientUnits="userSpaceOnUse" x1="-132.7061" y1="842.4199" x2="567.4038" y2="864.1899" gradientTransform="matrix(0.9948 0 0 0.9948 -5.7736 -691.9667)">
	<stop  offset="0" style="stop-color:#00694E"/>
	<stop  offset="1" style="stop-color:#00634A"/>
</linearGradient>
<path style="fill:url(#SVGID_00000086680759633949954350000003063210815853033360_);" d="M242,172.1c60.2,0,121.3-2.8,159.5-6
	c37.9-3.2,57.8-11.3,61-15.9c3.2-4.6,2-13.4-0.4-20.2c0,0,8.8,15.9,10,24s2.4,19.4-15.2,24c-17.5,4.6-47.8,8.1-83.3,10.3
	c-33,2-94.1,1.4-131.5,1.4c-37.5,0-98.5,0.6-131.6-1.4c-35.5-2.1-65.8-5.7-83.3-10.3s-16.6-15.9-15.4-24S22,130,22,130
	c-2.4,6.7-3.6,15.6-0.4,20.2s23.1,12.7,61,15.9C120.7,169.3,181.8,172.1,242,172.1L242,172.1z"/>
<linearGradient id="SVGID_00000110438032436246756610000016426052452792157877_" gradientUnits="userSpaceOnUse" x1="247.3599" y1="956.8713" x2="247.3599" y2="906.4113" gradientTransform="matrix(0.9948 0 0 0.9948 -5.7736 -691.9667)">
	<stop  offset="0" style="stop-color:#BBD2DA"/>
	<stop  offset="1" style="stop-color:#94A7AE"/>
</linearGradient>
<path style="fill:url(#SVGID_00000110438032436246756610000016426052452792157877_);" d="M296,244.9c0,2.9-2.3,5.2-5.2,5.2h-101
	c-2.9,0-5.2-2.3-5.2-5.2v-28.8c0-2.9,2.3-5.2,5.2-5.2h101c2.9,0,5.2,2.3,5.2,5.2V244.9z"/>
<g>
	<path class="st14" d="M238.6,242.5c-1.7,0-2.8-0.4-3.4-1.2c-0.5-0.7-0.6-1.8-0.2-3.1c0.9-2.7,3-4.1,6.4-4.1c1.8,0,3,0.4,3.6,1.2
		c0.5,0.7,0.5,1.6,0.1,2.9C244.2,241,241.9,242.5,238.6,242.5z M240.6,236.3c-0.8,0-1.2,0.9-1.5,1.8c-0.3,1-0.5,1.6-0.2,2
		c0.1,0.1,0.3,0.2,0.5,0.2c0.9,0,1.3-1.1,1.6-2.1c0.2-0.7,0.4-1.3,0.1-1.7C241,236.4,240.9,236.3,240.6,236.3z"/>
	<path class="st14" d="M244.3,245.2c-0.1,0-0.2,0-0.3-0.1c-0.1-0.1-0.1-0.2,0-0.3l3.3-10.1c0.1-0.2,0.4-0.4,0.6-0.4h2.7
		c0.1,0,0.2,0,0.3,0.1c0.1,0.1,0.1,0.2,0,0.3l-0.2,0.5c-0.2,0.5-0.2,0.5-0.1,0.6c0,0,0,0,0.1,0c0,0,0,0,0.4-0.4c0,0,1.5-1.3,2.8-1.3
		c1,0,1.7,0.3,2.1,0.8c0.7,0.9,0.4,2.4,0,3.5c-0.8,2.6-2.6,4.1-4.8,4.1c-1.1,0-1.7-0.4-2-1.2c0,0,0,0-0.1,0c-0.1,0-0.1,0-0.3,0.5
		l-0.9,3c-0.1,0.2-0.4,0.4-0.6,0.4H244.3z M251.4,236.6c-0.9,0-1.4,1-1.6,1.7c-0.2,0.6-0.4,1.3-0.1,1.6c0.1,0.2,0.3,0.3,0.6,0.3
		c0.9,0,1.3-0.9,1.6-1.8c0.3-0.8,0.3-1.3,0.1-1.6C251.8,236.7,251.6,236.6,251.4,236.6z"/>
	<path class="st14" d="M232.1,238.9l0.7-2.2l0.1-0.2h1.3c0.3,0,0.6-0.2,0.7-0.5l0.2-0.5l0.3-0.9c0.1-0.3-0.1-0.5-0.4-0.5h-1.3
		l0.3-0.9l0.6-1.8c0.1-0.3-0.1-0.4-0.3-0.3l-3.4,0.9c-0.3,0.1-0.6,0.4-0.7,0.6l0,0.1l-0.4,1.3h-0.9c-0.3,0-0.6,0.2-0.7,0.5l-0.5,1.4
		c-0.1,0.3,0.1,0.5,0.4,0.5h0.9l0,0.1l-0.9,2.7c-0.7,2.2,0,3.2,2,3.2c1,0,1.9-0.2,2.9-0.4l0.8-2.4c-0.3,0.1-0.6,0.1-1,0.1
		C232.1,240,231.8,239.6,232.1,238.9"/>
	<path class="st15" d="M247,219.7L247,219.7c-0.2-0.1-0.3-0.3-0.3-0.5c0.1-0.2,0.3-0.3,0.5-0.3c0.3,0.1,0.7,0.2,1,0.2
		c0-0.4,0.3-0.7,0.7-0.7l0,0c0.3,0,0.5,0,0.8-0.1c-0.1-0.4,0.2-0.8,0.6-0.9v0c0.9-0.2,1.7-0.7,2.4-1.4c0.4-0.4,1.2-0.4,1.6,0
		c0.4,0.4,0.4,1.2,0,1.6l0,0C252.3,219.7,249.5,220.3,247,219.7"/>
	<g>
		<path class="st16" d="M243.6,221.6c-0.2-0.1-0.2-0.3-0.1-0.5c0.1-0.2,0.3-0.2,0.5-0.1c0.5,0.3,1.1,0.6,1.7,0.8
			c0.1-0.4,0.5-0.6,0.9-0.5c0.5,0.1,1.1,0.2,1.6,0.3c0-0.4,0.3-0.7,0.7-0.7c0,0,0.2,0,0.2,0c1.4,0,2.8-0.4,4.1-1.1
			c0.5-0.3,1.2-0.1,1.6,0.4c0.3,0.5,0.1,1.2-0.4,1.6l0,0C250.8,223.6,246.8,223.5,243.6,221.6z"/>
	</g>
	<path class="st17" d="M252.5,225.7c-4.9,1.3-10-0.2-13.3-3.6l0,0c-0.1-0.1-0.1-0.4,0-0.5c0.1-0.1,0.4-0.1,0.5,0
		c0.6,0.6,1.3,1.2,2.1,1.7c0.2-0.4,0.7-0.5,1-0.3c0.7,0.4,1.4,0.7,2.2,1c0.1-0.4,0.5-0.6,0.9-0.5c0,0,0.1,0,0.1,0
		c1.9,0.5,3.9,0.5,5.8,0l0,0c0.6-0.2,1.2,0.2,1.4,0.8C253.4,224.9,253.1,225.5,252.5,225.7L252.5,225.7"/>
	<path class="st18" d="M234.2,220.8L234.2,220.8c-0.1-0.2,0-0.4,0.1-0.5c0.2-0.1,0.4,0,0.5,0.1c0.6,1,1.3,1.9,2,2.8
		c0.3-0.3,0.8-0.3,1.1,0c0.8,0.8,1.6,1.4,2.5,2c0.2-0.4,0.7-0.5,1-0.3c0,0,0.1,0,0.1,0.1c2.1,1.2,4.6,1.9,7.2,1.9
		c0.6,0,1.1,0.5,1.1,1.1c0,0.6-0.5,1.1-1.1,1.1l0,0C242.6,229.3,237.2,225.9,234.2,220.8"/>
	<path class="st19" d="M229.6,217.5L229.6,217.5c-0.1-0.2,0.1-0.4,0.3-0.5c0.2-0.1,0.4,0.1,0.5,0.3c0.4,1.4,0.9,2.7,1.6,4
		c0.4-0.2,0.8-0.1,1,0.3c0.7,1.2,1.5,2.3,2.4,3.3c0.3-0.3,0.8-0.3,1.1,0c0,0,0.1,0.1,0.1,0.1c2.1,2.1,4.8,3.7,7.9,4.5
		c0.6,0.2,1,0.8,0.8,1.4c-0.2,0.6-0.8,1-1.4,0.8l0,0C236.6,229.8,231.4,224.2,229.6,217.5"/>
</g>
</svg>
