<?xml version="1.0" encoding="utf-8"?>
<!-- Generator: Adobe Illustrator 28.0.0, SVG Export Plug-In . SVG Version: 6.00 Build 0)  -->
<svg version="1.1" id="Layer_1" xmlns="http://www.w3.org/2000/svg" xmlns:xlink="http://www.w3.org/1999/xlink" x="0px" y="0px"
	 viewBox="0 0 520 133" style="enable-background:new 0 0 520 133;" xml:space="preserve">
<style type="text/css">
	.st0{fill:#FFFFFF;}
	.st1{fill:#5A150C;}
</style>
<path class="st0" d="M29.1,132.7c0,0,438.1,0,445.5,0c7.5,0,11.8-7.1,11.8-7.1s29.1-45.5,32.2-51.5s0-12.8,0-12.8s-26.4-50-30.6-56
	c-4.2-6-9.1-5.3-9.1-5.3h-6.8c0,0-433.2,0-452.3,0S0,17.6,0,17.6s0,70.1,0,93.2s18.8,21.9,18.8,21.9h6.7H29.1z"/>
<path class="st1" d="M15.6,124.7c0,0-8.5,0.5-8.5-7.8V14.2c0,0,0.3-6.6,7.6-6.6s461.8,0,461.8,0s2.4-0.5,6.2,5.7
	c3.8,6.2,27.8,50.3,27.8,50.3s2.2,2.8,0,6.9c-2.2,4.1-31.4,51.2-31.4,51.2s-1.1,3-5.9,3S15.6,124.7,15.6,124.7"/>
<polygon class="st0" points="444.7,18.6 468.3,18.6 495.7,67.6 464.9,116.6 441.7,116.6 472.7,67.6 "/>
</svg>
