{
    "asset" : {
        "generator" : "Khronos glTF Blender I/O v1.0.5",
        "version" : "2.0"
    },
    "scene" : 0,
    "scenes" : [
        {
            "name" : "Scene",
            "nodes" : [
                0,
                1,
                2,
                3,
                4,
                5
            ]
        }
    ],
    "nodes" : [
        {
            "name" : "Light",
            "rotation" : [
                -0.07289960980415344,
                0.9382089376449585,
                -0.3120088279247284,
                -0.13076725602149963
            ],
            "scale" : [
                0.15630802512168884,
                0.15630805492401123,
                0.15630804002285004
            ],
            "translation" : [
                0.03424409031867981,
                4.509997844696045,
                -0.5562691688537598
            ]
        },
        {
            "name" : "Camera",
            "rotation" : [
                0.483536034822464,
                0.33687159419059753,
                -0.20870360732078552,
                0.7804827094078064
            ],
            "translation" : [
                11.127220153808594,
                8.541028022766113,
                8.873655319213867
            ]
        },
        {
            "mesh" : 0,
            "name" : "STS",
            "rotation" : [
                0.5,
                0.5,
                0.5,
                -0.5
            ],
            "scale" : [
                0.9378480911254883,
                0.9378480911254883,
                0.9378480911254883
            ],
            "translation" : [
                1.8216338157653809,
                2.5907416343688965,
                0.08088083565235138
            ]
        },
        {
            "mesh" : 1,
            "name" : "booster_left",
            "rotation" : [
                0.7071068286895752,
                0,
                -0.7071067690849304,
                -1.1520231879558196e-07
            ],
            "scale" : [
                0.2977636754512787,
                0.2977636754512787,
                0.2977636754512787
            ],
            "translation" : [
                0.1914992332458496,
                6.127326965332031,
                0.08088074624538422
            ]
        },
        {
            "mesh" : 2,
            "name" : "tank",
            "rotation" : [
                0.7071068286895752,
                0,
                -0.7071067690849304,
                -1.1520231879558196e-07
            ],
            "scale" : [
                0.2977636754512787,
                0.2977636754512787,
                0.2977636754512787
            ],
            "translation" : [
                0.1914992332458496,
                6.127326965332031,
                0.08088074624538422
            ]
        },
        {
            "mesh" : 3,
            "name" : "booster_right",
            "rotation" : [
                0.7071068286895752,
                0,
                -0.7071067690849304,
                -1.1520231879558196e-07
            ],
            "scale" : [
                0.2977636754512787,
                0.2977636754512787,
                0.2977636754512787
            ],
            "translation" : [
                0.1914992332458496,
                6.127326965332031,
                0.08088074624538422
            ]
        }
    ],
    "materials" : [
        {
            "doubleSided" : true,
            "name" : "default #2",
            "pbrMetallicRoughness" : {
                "baseColorTexture" : {
                    "index" : 0,
                    "texCoord" : 0
                },
                "metallicFactor" : 0,
                "roughnessFactor" : 0.6837722063064575
            }
        },
        {
            "doubleSided" : true,
            "name" : "tank",
            "pbrMetallicRoughness" : {
                "baseColorFactor" : [
                    0.4000001549720764,
                    0.06372105330228806,
                    0.00035129711613990366,
                    1
                ],
                "metallicFactor" : 0,
                "roughnessFactor" : 0.7439618110656738
            }
        }
    ],
    "meshes" : [
        {
            "name" : "STS",
            "primitives" : [
                {
                    "attributes" : {
                        "POSITION" : 0,
                        "NORMAL" : 1,
                        "TEXCOORD_0" : 2
                    },
                    "indices" : 3,
                    "material" : 0
                }
            ]
        },
        {
            "name" : "shuttle",
            "primitives" : [
                {
                    "attributes" : {
                        "POSITION" : 4,
                        "NORMAL" : 5,
                        "TEXCOORD_0" : 6
                    },
                    "indices" : 7,
                    "material" : 0
                }
            ]
        },
        {
            "name" : "shuttle.001",
            "primitives" : [
                {
                    "attributes" : {
                        "POSITION" : 8,
                        "NORMAL" : 9,
                        "TEXCOORD_0" : 10
                    },
                    "indices" : 11,
                    "material" : 1
                }
            ]
        },
        {
            "name" : "shuttle.002",
            "primitives" : [
                {
                    "attributes" : {
                        "POSITION" : 12,
                        "NORMAL" : 13,
                        "TEXCOORD_0" : 14
                    },
                    "indices" : 7,
                    "material" : 0
                }
            ]
        }
    ],
    "textures" : [
        {
            "source" : 0
        }
    ],
    "images" : [
        {
            "bufferView" : 4,
            "mimeType" : "image/png",
            "name" : "STS"
        }
    ],
    "accessors" : [
        {
            "bufferView" : 0,
            "componentType" : 5126,
            "count" : 2225,
            "max" : [
                2.8863561153411865,
                1.7114039659500122,
                4.461737155914307
            ],
            "min" : [
                -2.8863561153411865,
                -1.7114039659500122,
                -4.461737155914307
            ],
            "type" : "VEC3"
        },
        {
            "bufferView" : 1,
            "componentType" : 5126,
            "count" : 2225,
            "type" : "VEC3"
        },
        {
            "bufferView" : 2,
            "componentType" : 5126,
            "count" : 2225,
            "type" : "VEC2"
        },
        {
            "bufferView" : 3,
            "componentType" : 5123,
            "count" : 7650,
            "type" : "SCALAR"
        },
        {
            "bufferView" : 5,
            "componentType" : 5126,
            "count" : 1318,
            "max" : [
                -2.6079680919647217,
                28.82098388671875,
                3.605623960494995
            ],
            "min" : [
                -7.085577011108398,
                -5.784956932067871,
                -0.8719840049743652
            ],
            "type" : "VEC3"
        },
        {
            "bufferView" : 6,
            "componentType" : 5126,
            "count" : 1318,
            "type" : "VEC3"
        },
        {
            "bufferView" : 7,
            "componentType" : 5126,
            "count" : 1318,
            "type" : "VEC2"
        },
        {
            "bufferView" : 8,
            "componentType" : 5123,
            "count" : 4614,
            "type" : "SCALAR"
        },
        {
            "bufferView" : 9,
            "componentType" : 5126,
            "count" : 855,
            "max" : [
                3.425865888595581,
                24.10433006286621,
                6.725992202758789
            ],
            "min" : [
                -3.374340057373047,
                -13.079367637634277,
                -0.07421299815177917
            ],
            "type" : "VEC3"
        },
        {
            "bufferView" : 10,
            "componentType" : 5126,
            "count" : 855,
            "type" : "VEC3"
        },
        {
            "bufferView" : 11,
            "componentType" : 5126,
            "count" : 855,
            "type" : "VEC2"
        },
        {
            "bufferView" : 12,
            "componentType" : 5123,
            "count" : 4560,
            "type" : "SCALAR"
        },
        {
            "bufferView" : 13,
            "componentType" : 5126,
            "count" : 1318,
            "max" : [
                7.136696815490723,
                28.82098388671875,
                3.605623960494995
            ],
            "min" : [
                2.659087896347046,
                -5.784956932067871,
                -0.8719840049743652
            ],
            "type" : "VEC3"
        },
        {
            "bufferView" : 14,
            "componentType" : 5126,
            "count" : 1318,
            "type" : "VEC3"
        },
        {
            "bufferView" : 15,
            "componentType" : 5126,
            "count" : 1318,
            "type" : "VEC2"
        }
    ],
    "bufferViews" : [
        {
            "buffer" : 0,
            "byteLength" : 26700,
            "byteOffset" : 0
        },
        {
            "buffer" : 0,
            "byteLength" : 26700,
            "byteOffset" : 26700
        },
        {
            "buffer" : 0,
            "byteLength" : 17800,
            "byteOffset" : 53400
        },
        {
            "buffer" : 0,
            "byteLength" : 15300,
            "byteOffset" : 71200
        },
        {
            "buffer" : 0,
            "byteLength" : 1857386,
            "byteOffset" : 86500
        },
        {
            "buffer" : 0,
            "byteLength" : 15816,
            "byteOffset" : 1943888
        },
        {
            "buffer" : 0,
            "byteLength" : 15816,
            "byteOffset" : 1959704
        },
        {
            "buffer" : 0,
            "byteLength" : 10544,
            "byteOffset" : 1975520
        },
        {
            "buffer" : 0,
            "byteLength" : 9228,
            "byteOffset" : 1986064
        },
        {
            "buffer" : 0,
            "byteLength" : 10260,
            "byteOffset" : 1995292
        },
        {
            "buffer" : 0,
            "byteLength" : 10260,
            "byteOffset" : 2005552
        },
        {
            "buffer" : 0,
            "byteLength" : 6840,
            "byteOffset" : 2015812
        },
        {
            "buffer" : 0,
            "byteLength" : 9120,
            "byteOffset" : 2022652
        },
        {
            "buffer" : 0,
            "byteLength" : 15816,
            "byteOffset" : 2031772
        },
        {
            "buffer" : 0,
            "byteLength" : 15816,
            "byteOffset" : 2047588
        },
        {
            "buffer" : 0,
            "byteLength" : 10544,
            "byteOffset" : 2063404
        }
    ],
    "buffers" : [
        {
            "byteLength" : 2073948,
            "uri" : "data:application/octet-stream;base64,"
        }
    ]
}
