<svg xmlns="http://www.w3.org/2000/svg" xmlns:xlink="http://www.w3.org/1999/xlink" width="500" height="200" viewBox="0 0 500 200">
  <style>
/* <![CDATA[ */

/* ]]> */
</style>
<defs>
<filter id="blur" filterUnits="userSpaceOnUse" x="-20" y="-20">
  <feGaussianBlur id="blur1" in="SourceGraphic" stdDeviation="20" />
  <animate xlink:href="#blur1" attributeName="stdDeviation" from="0" to="10" dur="7s" begin="0s" keyTimes="0;0.7;0.85;1" values="0;0;20;0" repeatCount="indefinite"/>
</filter>
<path id="cs" fill="#6fbeff" d="M187.88,154.229c-0.929,0 -1.748,0.547 -2.13,1.42c-0.108,0.273 -0.162,0.546 -0.162,0.819c0,1.092 0.873,2.074 2.129,2.074c1.146,0 2.238,-0.818 2.238,-2.128c0,-1.147 -0.819,-2.185 -2.075,-2.185Zm39.532,-0.11c-1.256,0 -2.13,1.038 -2.13,2.185c0,1.255 1.093,2.075 2.13,2.075c1.256,0 2.13,-1.092 2.13,-2.13c0,-0.218 -0.055,-0.491 -0.164,-0.765c-0.273,-0.818 -1.092,-1.365 -1.966,-1.365Zm49.797,0c-1.256,0 -2.129,1.038 -2.129,2.185c0,1.255 1.092,2.075 2.129,2.075c1.256,0 2.131,-1.092 2.131,-2.13c0,-0.218 -0.055,-0.491 -0.164,-0.765c-0.274,-0.818 -1.092,-1.365 -1.967,-1.365Zm-43.08,-0.271c-1.256,0 -2.13,0.982 -2.13,2.129c0,0.164 0,0.327 0.055,0.382c0.163,1.037 1.038,1.693 2.075,1.693c1.256,0 2.13,-0.929 2.13,-1.966c0,-1.31 -0.874,-2.238 -2.13,-2.238Zm49.797,0c-1.256,0 -2.13,0.982 -2.13,2.129c0,0.164 0,0.327 0.055,0.382c0.164,1.037 1.038,1.693 2.075,1.693c1.257,0 2.13,-0.929 2.13,-1.966c0,-1.31 -0.873,-2.238 -2.13,-2.238Zm-103.199,-0.383c-0.874,0 -1.639,0.6 -1.911,1.42c-0.163,0.272 -0.218,0.599 -0.218,0.982c0,1.092 0.928,2.021 2.184,2.021c1.037,0 2.13,-0.929 2.13,-2.239c0,-1.092 -0.929,-2.184 -2.185,-2.184Zm130.062,0.109c-0.873,0 -1.638,0.49 -2.019,1.365c-0.11,0.273 -0.165,0.545 -0.165,0.764c0,1.092 0.873,2.13 2.184,2.13c1.038,0 2.076,-0.82 2.076,-2.075c0,-1.092 -0.82,-2.184 -2.076,-2.184Zm31.288,-0.054c-0.873,0 -1.638,0.545 -2.02,1.365c-0.165,0.218 -0.11,0.49 -0.11,0.709c0,1.147 0.875,2.185 2.13,2.185c1.093,0 2.13,-0.874 2.13,-2.13c0,-1.092 -0.874,-2.129 -2.13,-2.129Zm-71.201,-0.711c-1.037,0 -2.13,0.82 -2.13,2.131c0,1.146 0.874,2.129 2.13,2.129c0.873,0 1.638,-0.491 2.019,-1.366c0.055,-0.273 0.11,-0.545 0.11,-0.708c0,-1.147 -0.873,-2.186 -2.129,-2.186Zm-49.798,0c-1.037,0 -2.129,0.82 -2.129,2.131c0,1.146 0.873,2.129 2.129,2.129c0.874,0 1.638,-0.491 2.02,-1.366c0.055,-0.273 0.11,-0.545 0.11,-0.708c0,-1.147 -0.874,-2.186 -2.13,-2.186Zm-26.646,-0.49c-0.928,0 -1.801,0.545 -2.074,1.42c-0.11,0.271 -0.164,0.545 -0.164,0.818c0,1.147 0.818,2.184 2.075,2.184c1.256,0 2.238,-0.983 2.238,-2.238c0,-1.147 -0.818,-2.184 -2.075,-2.184Zm45.649,-0.929c-1.146,0 -2.131,0.929 -2.131,2.075c0,0.219 0,0.383 0.055,0.49c0.164,1.039 1.038,1.694 2.076,1.694c1.31,0 2.129,-0.983 2.129,-2.074c0,-1.256 -0.983,-2.185 -2.129,-2.185Zm49.797,0c-1.146,0 -2.13,0.929 -2.13,2.075c0,0.219 0,0.383 0.055,0.49c0.164,1.039 1.037,1.694 2.075,1.694c1.31,0 2.13,-0.983 2.13,-2.074c0,-1.256 -0.984,-2.185 -2.13,-2.185Zm-115.375,-0.601c-0.874,0 -1.639,0.546 -2.02,1.365c-0.11,0.274 -0.165,0.546 -0.165,0.819c0,1.091 0.929,2.184 2.294,2.184c1.092,0 2.129,-0.983 2.129,-2.239c0,-1.147 -0.927,-2.129 -2.238,-2.129Zm162.879,-0.6c-1.256,0 -2.13,1.092 -2.13,2.13c0,0.164 0.055,0.382 0.11,0.654c0.381,0.875 1.091,1.529 1.965,1.529c1.255,0 2.185,-1.037 2.185,-2.074c0,-1.257 -1.092,-2.239 -2.13,-2.239Zm-71.966,-0.765c-1.039,0 -2.076,0.819 -2.076,2.075c0,1.037 0.82,2.185 2.076,2.185c0.818,0 1.638,-0.547 2.019,-1.366c0.11,-0.218 0.165,-0.492 0.165,-0.765c0,-1.147 -0.929,-2.129 -2.184,-2.129Zm-49.798,0c-1.038,0 -2.075,0.819 -2.075,2.075c0,1.037 0.819,2.185 2.075,2.185c0.819,0 1.638,-0.547 2.02,-1.366c0.11,-0.218 0.165,-0.492 0.165,-0.765c0,-1.147 -0.93,-2.129 -2.185,-2.129Zm95.171,-1.638c-0.873,0 -1.638,0.491 -2.019,1.365c-0.109,0.273 -0.164,0.545 -0.164,0.764c0,1.093 0.872,2.13 2.128,2.13c1.094,0 2.131,-0.874 2.131,-2.13c0,-1.037 -0.82,-2.129 -2.076,-2.129Zm31.288,-0.054c-0.873,0 -1.638,0.546 -2.02,1.365c-0.165,0.218 -0.11,0.491 -0.11,0.709c0,1.148 0.875,2.185 2.13,2.185c1.093,0 2.13,-0.874 2.13,-2.13c0,-1.092 -0.874,-2.129 -2.13,-2.129Zm-143.277,-0.547c-0.873,0 -1.692,0.547 -2.074,1.42c-0.11,0.273 -0.164,0.547 -0.164,0.819c0,1.092 0.818,2.129 2.293,2.129c1.256,0 2.13,-1.037 2.13,-2.293c0,-1.092 -0.929,-2.075 -2.185,-2.075Zm45.54,0c-1.146,0 -2.13,1.038 -2.13,2.185c0,0.164 0,0.327 0.055,0.381c0.164,1.038 1.037,1.694 2.075,1.694c1.365,0 2.184,-0.929 2.184,-2.075c0,-1.256 -0.928,-2.185 -2.184,-2.185Zm49.797,0c-1.146,0 -2.129,1.038 -2.129,2.185c0,0.164 0,0.327 0.055,0.381c0.164,1.038 1.037,1.694 2.074,1.694c1.365,0 2.185,-0.929 2.185,-2.075c0,-1.256 -0.929,-2.185 -2.185,-2.185Zm41.88,0.601c0,-1.256 -1.092,-2.185 -2.13,-2.185c-1.255,0 -2.184,1.039 -2.184,2.13c0,0.164 0.054,0.382 0.109,0.655c0.383,0.874 1.092,1.529 2.021,1.529c1.255,0 2.184,-1.092 2.184,-2.129Zm-121.928,-0.328c0.109,-0.273 0.164,-0.492 0.164,-0.764c0,-1.092 -0.929,-2.13 -2.183,-2.13c-1.092,0 -2.077,0.875 -2.077,2.13c0,1.147 0.875,2.129 2.131,2.129c0.873,0 1.693,-0.546 1.965,-1.365Zm49.798,0c0.109,-0.273 0.164,-0.492 0.164,-0.764c0,-1.092 -0.929,-2.13 -2.184,-2.13c-1.092,0 -2.076,0.875 -2.076,2.13c0,1.147 0.874,2.129 2.13,2.129c0.874,0 1.693,-0.546 1.966,-1.365Zm46.848,-5.788c-0.928,0 -1.583,0.437 -1.965,1.365c-0.109,0.274 -0.164,0.546 -0.164,0.765c0,1.146 0.928,2.129 2.184,2.129c1.038,0 2.076,-0.819 2.076,-2.074c0,-1.148 -0.875,-2.185 -2.131,-2.185Zm31.342,-0.054c-0.873,0 -1.638,0.547 -2.02,1.42c-0.165,0.219 -0.11,0.491 -0.11,0.71c0,1.037 0.82,2.129 2.076,2.129c1.092,0 2.184,-0.873 2.184,-2.129c0,-1.092 -0.874,-2.13 -2.13,-2.13Zm-44.774,-0.11c-1.256,0 -2.185,1.038 -2.185,2.13c0,0.164 0,0.328 0.055,0.383c0.164,1.091 0.984,1.746 2.021,1.746c1.255,0 2.238,-0.873 2.238,-2.129c0,-1.311 -1.037,-2.13 -2.129,-2.13Zm-49.798,0c-1.256,0 -2.184,1.038 -2.184,2.13c0,0.164 0,0.328 0.055,0.383c0.164,1.091 0.983,1.746 2.021,1.746c1.255,0 2.238,-0.873 2.238,-2.129c0,-1.311 -1.037,-2.13 -2.13,-2.13Zm-51.489,0.874c-0.109,0.327 -0.164,0.655 -0.164,0.929c0,1.146 0.874,2.075 2.184,2.075c1.256,0 2.184,-0.929 2.184,-2.239c0,-1.092 -0.873,-2.129 -2.184,-2.129c-0.928,0 -1.748,0.545 -2.02,1.364Zm134.158,-1.583c-1.256,0 -2.184,1.037 -2.184,2.129c0,0.219 0.055,0.383 0.109,0.6c0.383,1.038 1.038,1.53 2.02,1.53c1.257,0 2.185,-1.037 2.185,-2.13c0,-1.256 -1.092,-2.129 -2.13,-2.129Zm-118.159,0.545c0.109,-0.272 0.163,-0.545 0.163,-0.818c0,-1.037 -0.874,-2.075 -2.13,-2.075c-1.037,0 -2.129,0.819 -2.129,2.075c0,1.037 0.819,2.183 2.129,2.183c0.821,0 1.584,-0.545 1.967,-1.365Zm49.797,0c0.109,-0.272 0.163,-0.545 0.163,-0.818c0,-1.037 -0.873,-2.075 -2.129,-2.075c-1.038,0 -2.13,0.819 -2.13,2.075c0,1.037 0.82,2.183 2.13,2.183c0.82,0 1.584,-0.545 1.966,-1.365Zm-66.615,-2.347c0,-0.928 -0.765,-2.019 -2.13,-2.019c-0.873,0 -1.637,0.491 -2.019,1.31c-0.11,0.272 -0.164,0.545 -0.164,0.818c0,1.147 0.818,2.185 2.074,2.185c1.257,0 2.239,-0.929 2.239,-2.294Zm131.209,-3.058c-1.256,0 -2.129,1.038 -2.129,2.075c0,0.164 0.055,0.383 0.11,0.655c0.38,0.929 1.091,1.583 2.019,1.583c1.256,0 2.13,-1.091 2.13,-2.128c0,-1.256 -1.038,-2.185 -2.13,-2.185Zm-15.671,-0.382c-0.928,0 -1.583,0.436 -1.965,1.365c-0.109,0.273 -0.164,0.546 -0.164,0.764c0,1.146 0.873,2.131 2.129,2.131c1.093,0 2.131,-0.875 2.131,-2.131c0,-1.092 -0.875,-2.129 -2.131,-2.129Zm29.322,1.365c-0.164,0.218 -0.109,0.491 -0.109,0.709c0,1.038 0.82,2.131 2.076,2.131c1.037,0 2.129,-0.821 2.129,-2.076c0,-1.037 -0.82,-2.129 -2.076,-2.129c-0.873,0 -1.637,0.491 -2.02,1.365Zm-41.716,-1.801c-0.709,-0.055 -1.311,0.327 -1.802,1.037c-0.217,0.382 -0.327,0.765 -0.327,1.092c0,1.093 0.873,2.13 2.129,2.13c1.146,0 2.185,-0.82 2.185,-2.075c0,-1.147 -0.929,-2.184 -2.185,-2.184Zm-49.797,0c-0.71,-0.055 -1.311,0.327 -1.802,1.037c-0.218,0.382 -0.328,0.765 -0.328,1.092c0,1.093 0.874,2.13 2.13,2.13c1.146,0 2.184,-0.82 2.184,-2.075c0,-1.147 -0.928,-2.184 -2.184,-2.184Zm-59.681,1.747c0,-1.093 -0.982,-2.075 -2.238,-2.075c-0.874,0 -1.639,0.383 -1.912,1.42c-0.11,0.272 -0.164,0.546 -0.164,0.819c0,1.092 0.875,2.02 2.13,2.02c1.147,0 2.184,-1.038 2.184,-2.184Zm-6.607,-1.802c0,-1.092 -0.873,-2.076 -2.129,-2.076c-0.874,0 -1.747,0.492 -2.02,1.365c-0.11,0.274 -0.164,0.547 -0.164,0.766c0,1.091 0.874,2.129 2.184,2.129c1.256,0 2.129,-0.873 2.129,-2.184Zm77.59,-3.113c-1.256,0 -2.13,1.037 -2.13,2.185c0,1.255 1.037,2.075 2.075,2.075c1.256,0 2.184,-0.984 2.184,-2.13c0,-0.218 -0.054,-0.491 -0.163,-0.765c-0.274,-0.818 -1.092,-1.365 -1.966,-1.365Zm-49.798,0c-1.256,0 -2.129,1.037 -2.129,2.185c0,1.255 1.037,2.075 2.074,2.075c1.256,0 2.185,-0.984 2.185,-2.13c0,-0.218 -0.054,-0.491 -0.163,-0.765c-0.274,-0.818 -1.092,-1.365 -1.967,-1.365Zm114.884,1.42c0,-1.256 -1.037,-2.129 -2.074,-2.129c-1.256,0 -2.185,1.037 -2.185,2.074c0,0.164 0.055,0.383 0.11,0.657c0.381,1.037 1.037,1.528 1.965,1.528c1.256,0 2.184,-1.038 2.184,-2.13Zm17.145,-3.768c-0.873,0 -1.638,0.492 -2.02,1.365c-0.165,0.219 -0.11,0.492 -0.11,0.71c0,1.038 0.82,2.185 2.076,2.185c1.037,0 2.129,-0.875 2.129,-2.13c0,-1.038 -0.819,-2.13 -2.075,-2.13Zm-31.342,0c-0.928,0 -1.583,0.437 -1.965,1.365c-0.109,0.274 -0.164,0.546 -0.164,0.765c0,1.093 0.819,2.13 2.074,2.13c1.148,0 2.186,-0.875 2.186,-2.13c0,-1.093 -0.875,-2.13 -2.131,-2.13Zm-135.85,-0.6c-0.874,0 -1.638,0.546 -2.02,1.42c-0.164,0.272 -0.218,0.491 -0.218,0.874c0,1.037 0.818,2.074 2.183,2.074c1.038,0 2.294,-0.873 2.294,-2.348c0,-1.037 -0.874,-2.02 -2.239,-2.02Zm122.528,4.04c1.037,0 2.074,-0.928 2.074,-2.184c0,-1.091 -0.928,-2.129 -2.183,-2.129c-0.765,0 -1.366,0.328 -1.747,1.038c-0.219,0.381 -0.329,0.764 -0.329,1.091c0,1.092 0.929,2.184 2.185,2.184Zm-51.654,-3.276c-0.219,0.382 -0.328,0.765 -0.328,1.092c0,1.092 0.928,2.183 2.183,2.183c1.039,0 2.076,-0.927 2.076,-2.183c0,-1.092 -0.928,-2.13 -2.185,-2.13c-0.764,0 -1.365,0.328 -1.746,1.038Zm73.385,-3.331c-1.256,0 -2.184,1.037 -2.184,2.13c0,0.109 0.055,0.327 0.11,0.6c0.383,1.038 1.037,1.529 1.965,1.529c1.255,0 2.184,-1.037 2.184,-2.074c0,-1.257 -1.037,-2.185 -2.075,-2.185Zm-104.891,1.529c0,-0.273 -0.055,-0.547 -0.164,-0.819c-0.272,-0.82 -1.092,-1.31 -1.911,-1.31c-1.255,0 -2.185,0.983 -2.185,2.074c0,1.256 1.038,2.185 2.131,2.185c1.255,0 2.129,-1.093 2.129,-2.13Zm47.668,2.13c1.255,0 2.13,-1.093 2.13,-2.13c0,-0.273 -0.055,-0.547 -0.164,-0.819c-0.274,-0.82 -1.092,-1.31 -1.912,-1.31c-1.255,0 -2.184,0.983 -2.184,2.074c0,1.256 1.037,2.185 2.13,2.185Zm48.814,-6.552c-0.928,0 -1.583,0.437 -1.965,1.364c-0.109,0.274 -0.164,0.547 -0.164,0.766c0,1.146 0.873,2.129 2.129,2.129c1.093,0 2.131,-0.873 2.131,-2.129c0,-1.093 -0.875,-2.13 -2.131,-2.13Zm31.342,0c-0.873,0 -1.638,0.491 -2.02,1.364c-0.165,0.219 -0.11,0.492 -0.11,0.711c0,1.037 0.82,2.129 2.076,2.129c1.037,0 2.129,-0.818 2.129,-2.074c0,-1.038 -0.819,-2.13 -2.075,-2.13Zm-97.138,4.094c1.093,0 2.131,-0.982 2.131,-2.238c0,-1.037 -0.875,-2.021 -2.131,-2.021c-0.818,0 -1.419,0.327 -1.801,1.038c-0.218,0.381 -0.328,0.764 -0.328,1.147c0,1.037 0.873,2.074 2.129,2.074Zm49.798,0c1.092,0 2.13,-0.982 2.13,-2.238c0,-1.037 -0.874,-2.021 -2.13,-2.021c-0.819,0 -1.419,0.327 -1.802,1.038c-0.218,0.381 -0.328,0.764 -0.328,1.147c0,1.037 0.874,2.074 2.13,2.074Zm-120.835,-0.436c1.146,0 2.185,-0.819 2.185,-2.185c0,-1.146 -0.875,-2.128 -2.185,-2.128c-0.874,0 -1.693,0.545 -1.967,1.365c-0.108,0.327 -0.163,0.654 -0.163,0.928c0,1.037 0.819,2.02 2.13,2.02Zm141.42,-5.733c-1.255,0 -2.184,1.037 -2.184,2.129c0,0.219 0.055,0.383 0.11,0.601c0.382,1.038 1.037,1.53 1.966,1.53c1.254,0 2.184,-1.038 2.184,-2.076c0,-1.255 -1.038,-2.184 -2.076,-2.184Zm-49.852,-0.492c-1.255,0 -2.13,1.092 -2.13,2.129c0,1.311 1.092,2.075 2.13,2.075c1.256,0 2.13,-0.873 2.13,-2.129c0,-0.219 -0.055,-0.492 -0.164,-0.764c-0.382,-0.82 -1.147,-1.311 -1.966,-1.311Zm-49.798,0c-1.255,0 -2.129,1.092 -2.129,2.129c0,1.311 1.092,2.075 2.129,2.075c1.256,0 2.131,-0.873 2.131,-2.129c0,-0.219 -0.055,-0.492 -0.164,-0.764c-0.383,-0.82 -1.147,-1.311 -1.967,-1.311Zm-20.475,1.529c0,1.092 0.819,2.13 2.129,2.13c1.148,0 2.24,-0.874 2.24,-2.185c0,-1.037 -0.82,-2.13 -2.294,-2.13c-0.929,0 -1.583,0.493 -1.966,1.42c-0.054,0.164 -0.109,0.438 -0.109,0.765Zm92.933,-2.403c-0.218,0.382 -0.327,0.765 -0.327,1.146c0,1.039 0.874,2.076 2.129,2.076c1.092,0 2.185,-0.928 2.185,-2.184c0,-1.038 -0.875,-2.076 -2.131,-2.076c-0.818,0 -1.473,0.328 -1.856,1.038Zm-49.797,0c-0.219,0.382 -0.328,0.765 -0.328,1.146c0,1.039 0.875,2.076 2.13,2.076c1.092,0 2.184,-0.928 2.184,-2.184c0,-1.038 -0.874,-2.076 -2.13,-2.076c-0.819,0 -1.473,0.328 -1.856,1.038Zm-60.117,-2.075c-0.873,0 -1.639,0.547 -2.02,1.42c-0.109,0.273 -0.164,0.547 -0.164,0.819c0,1.037 0.764,2.184 2.239,2.184c1.037,0 2.129,-0.873 2.129,-2.348c0,-1.038 -0.928,-2.075 -2.184,-2.075Zm42.808,-0.491c-1.256,0 -2.074,1.147 -2.074,2.239c0,1.256 1.146,2.02 2.183,2.02c1.256,0 2.076,-1.092 2.076,-2.129c0,-0.274 -0.055,-0.492 -0.11,-0.764c-0.383,-0.875 -1.146,-1.366 -2.075,-1.366Zm49.798,0c-1.256,0 -2.075,1.147 -2.075,2.239c0,1.256 1.146,2.02 2.184,2.02c1.256,0 2.075,-1.092 2.075,-2.129c0,-0.274 -0.055,-0.492 -0.11,-0.764c-0.382,-0.875 -1.146,-1.366 -2.074,-1.366Zm39.968,-0.218c1.256,0 2.075,1.037 2.075,2.074c0,1.256 -1.037,2.13 -2.184,2.13c-1.256,0 -2.075,-1.038 -2.075,-2.075c0,-0.219 0.055,-0.492 0.164,-0.764c0.273,-0.875 1.146,-1.365 2.02,-1.365l-0.001,0l0.001,0l0,0Zm31.233,4.204c1.092,0 2.129,-0.819 2.129,-2.075c0,-1.092 -0.819,-2.184 -2.075,-2.184c-0.873,0 -1.638,0.491 -2.021,1.365c-0.109,0.274 -0.164,0.545 -0.164,0.764c0,1.092 0.875,2.13 2.131,2.13Zm-152.832,-3.003c-0.108,0.273 -0.163,0.545 -0.163,0.818c0,1.092 0.929,2.076 2.184,2.076c1.092,0 2.075,-0.984 2.075,-2.24c0,-1.091 -0.819,-2.129 -2.075,-2.129c-0.875,0 -1.638,0.546 -2.021,1.475Zm94.736,-1.802c-1.256,0 -2.13,1.038 -2.13,2.131c0,0.162 0,0.326 0.055,0.381c0.164,1.038 1.038,1.748 2.075,1.748c1.257,0 2.13,-0.82 2.13,-2.075c0,-1.256 -0.873,-2.185 -2.13,-2.185Zm-49.797,0c-1.256,0 -2.13,1.038 -2.13,2.131c0,0.162 0,0.326 0.055,0.381c0.163,1.038 1.038,1.748 2.075,1.748c1.256,0 2.13,-0.82 2.13,-2.075c0,-1.256 -0.874,-2.185 -2.13,-2.185Zm-47.232,1.802c0,-1.092 -0.929,-2.075 -2.075,-2.075c-0.928,0 -1.746,0.491 -2.129,1.364c-0.109,0.274 -0.164,0.547 -0.164,0.82c0,1.092 0.873,2.129 2.129,2.129c1.256,0 2.239,-0.982 2.239,-2.238Zm90.257,-2.239c-1.037,0 -2.074,0.819 -2.074,2.075c0,1.092 0.819,2.129 2.129,2.129c0.82,0 1.584,-0.49 1.966,-1.365c0.11,-0.217 0.165,-0.49 0.165,-0.764c0,-1.092 -0.93,-2.075 -2.186,-2.075Zm-49.797,0c-1.037,0 -2.075,0.819 -2.075,2.075c0,1.092 0.82,2.129 2.13,2.129c0.819,0 1.584,-0.49 1.965,-1.365c0.11,-0.217 0.165,-0.49 0.165,-0.764c0,-1.092 -0.929,-2.075 -2.185,-2.075Zm-143.206,-6.14l0.264,-0.009c1.809,0.01 3.309,1.437 3.418,3.266c0.117,1.915 -1.343,3.563 -3.264,3.678l-0.282,0.012c-1.793,0 -3.327,-1.376 -3.476,-3.192c-0.155,-1.905 1.239,-3.573 3.145,-3.742l0.195,-0.013Zm-7.485,-0.262l-0.017,0c-1.72,-0.001 -3.19,1.283 -3.416,3.034c-0.243,1.886 1.104,3.624 2.988,3.888l0.564,0.042c1.683,-0.01 3.154,-1.241 3.414,-2.954c0.288,-1.898 -1.018,-3.668 -2.914,-3.956c-0.031,-0.005 -0.198,-0.027 -0.235,-0.03c-0.117,-0.015 -0.252,-0.024 -0.384,-0.024Zm15.213,-1.104l-0.022,0c-0.315,0 -0.634,0.043 -0.953,0.133l0.043,-0.01l-0.207,0.057c-1.841,0.558 -2.877,2.497 -2.322,4.333c0.457,1.502 1.836,2.469 3.325,2.469l0.028,0c0.327,-0.004 0.656,-0.052 0.98,-0.15c-0.005,0.001 0.046,-0.014 0.046,-0.014c1.838,-0.516 2.914,-2.435 2.394,-4.282c-0.428,-1.522 -1.804,-2.526 -3.312,-2.536Zm-22.566,-0.753l-0.022,0c-1.43,-0.002 -2.774,0.887 -3.282,2.312c-0.642,1.808 0.304,3.795 2.113,4.437c-0.006,-0.002 0.049,0.018 0.049,0.018c0.393,0.149 0.808,0.22 1.214,0.22l0.029,0c1.398,-0.012 2.708,-0.872 3.224,-2.256c0.673,-1.796 -0.236,-3.8 -2.034,-4.472c-0.002,-0.001 -0.14,-0.053 -0.157,-0.059l-0.002,-0.001c-0.374,-0.132 -0.756,-0.196 -1.132,-0.199Zm29.505,-2.119l-0.021,0c-0.564,0.001 -1.134,0.136 -1.658,0.416c-1.691,0.903 -2.332,3.007 -1.43,4.7c0.626,1.173 1.827,1.841 3.068,1.841l0.024,0c0.547,-0.005 1.096,-0.138 1.608,-0.409l0.136,-0.075c1.677,-0.924 2.243,-2.992 1.331,-4.674c-0.622,-1.146 -1.822,-1.794 -3.058,-1.799Zm-34.329,-0.627l-0.045,-0.031c1.616,1.036 2.083,3.187 1.044,4.801c-0.658,1.025 -1.764,1.587 -2.9,1.596l-0.024,0c-0.638,0 -1.285,-0.175 -1.863,-0.545l-0.058,-0.035c-1.629,-1.013 -2.131,-3.155 -1.12,-4.784c0.656,-1.058 1.788,-1.641 2.948,-1.643l0.018,0c0.623,0.001 1.252,0.17 1.82,0.524l-0.041,-0.024l0.008,0.005c0.037,0.022 0.161,0.101 0.202,0.128l0.011,0.008Zm19.662,4.865l-0.008,0l0.026,-0.002l-0.018,0.002Zm23.212,-2.524l-0.008,0.01l-0.05,0.042c-0.651,0.551 -1.451,0.827 -2.251,0.832l-0.018,0c-0.961,0 -1.916,-0.395 -2.601,-1.168c-1.255,-1.42 -1.154,-3.567 0.229,-4.835c0.031,-0.03 0.113,-0.1 0.156,-0.138c0.653,-0.553 1.449,-0.823 2.243,-0.823l0.02,0c0.98,0.005 1.952,0.423 2.635,1.23c1.225,1.448 1.062,3.603 -0.355,4.85Zm-50.79,-7.752l-0.02,0c-0.889,0 -1.779,0.339 -2.457,1.017c-1.355,1.357 -1.355,3.556 0,4.913c0,0 0.076,0.076 0.076,0.076c0.671,0.671 1.534,0.998 2.401,0.998l0.018,0c0.887,-0.005 1.773,-0.352 2.457,-1.034c1.354,-1.357 1.316,-3.599 -0.039,-4.953c-0.672,-0.673 -1.553,-1.012 -2.436,-1.017Zm381.907,-1.221c-1.255,0 -2.184,1.037 -2.184,2.129c0,1.257 1.092,2.076 2.129,2.076c1.311,0 2.186,-0.983 2.186,-2.131c0,-0.217 -0.055,-0.49 -0.164,-0.763c-0.383,-0.819 -1.148,-1.311 -1.967,-1.311Zm-309.925,-0.055c-1.256,0 -2.129,1.037 -2.129,2.184c0,1.256 1.092,2.076 2.129,2.076c1.257,0 2.13,-1.092 2.13,-2.131c0,-0.217 -0.055,-0.49 -0.164,-0.764c-0.273,-0.818 -1.092,-1.365 -1.966,-1.365Zm174.512,0.055c-1.256,0 -2.076,0.982 -2.076,2.129c0,1.311 1.038,2.076 2.076,2.076c1.255,0 2.074,-0.874 2.074,-2.021c0,-0.272 -0.055,-0.6 -0.164,-0.873c-0.272,-0.819 -1.092,-1.311 -1.91,-1.311Zm-167.795,-0.327c-1.256,0 -2.13,0.983 -2.13,2.13c0,0.164 0,0.326 0.055,0.381c0.164,1.038 1.037,1.693 2.075,1.693c1.256,0 2.13,-0.928 2.13,-1.965c0,-1.31 -0.874,-2.239 -2.13,-2.239Zm115.594,-0.274c-0.873,0 -1.692,0.546 -1.966,1.365c-0.108,0.273 -0.163,0.546 -0.163,0.765c0,1.092 0.819,2.129 2.074,2.129c1.147,0 2.186,-0.873 2.186,-2.129c0,-1.092 -0.875,-2.13 -2.131,-2.13Zm-88.73,0c-0.873,0 -1.638,0.491 -2.019,1.365c-0.11,0.273 -0.165,0.546 -0.165,0.765c0,1.092 0.873,2.129 2.184,2.129c1.038,0 2.075,-0.819 2.075,-2.074c0,-1.092 -0.818,-2.185 -2.075,-2.185Zm202.741,0c-0.874,0 -1.639,0.491 -2.021,1.365c-0.164,0.218 -0.109,0.491 -0.109,0.71c0,1.092 0.874,2.184 2.13,2.184c1.092,0 2.129,-0.873 2.129,-2.129c0,-1.092 -0.873,-2.13 -2.129,-2.13Zm-156.273,2.185c0,-1.092 -0.819,-2.185 -2.075,-2.185c-0.874,0 -1.638,0.492 -2.021,1.366c-0.109,0.272 -0.164,0.546 -0.164,0.764c0,1.092 0.874,2.129 2.185,2.129c1.037,0 2.075,-0.818 2.075,-2.074Zm169.322,-2.185c-0.873,0 -1.638,0.491 -2.019,1.365c-0.11,0.273 -0.165,0.546 -0.165,0.765c0,1.092 0.873,2.129 2.184,2.129c1.038,0 2.076,-0.819 2.076,-2.074c0,-1.092 -0.82,-2.185 -2.076,-2.185Zm-186.632,2.021c0,1.146 0.874,2.184 2.129,2.184c1.093,0 2.131,-0.873 2.131,-2.129c0,-1.092 -0.875,-2.13 -2.131,-2.13c-0.873,0 -1.638,0.546 -2.02,1.365c-0.164,0.218 -0.109,0.491 -0.109,0.71Zm67.653,0.109c0,-1.146 -0.873,-2.185 -2.129,-2.185c-0.929,0 -1.583,0.437 -1.966,1.366c-0.164,0.217 -0.109,0.491 -0.109,0.71c0,1.146 0.874,2.183 2.13,2.183c1.037,0 2.074,-0.818 2.074,-2.074Zm-19.001,-0.055c0,-1.092 -0.874,-2.13 -2.131,-2.13c-0.873,0 -1.637,0.546 -2.019,1.365c-0.164,0.218 -0.11,0.492 -0.11,0.71c0,1.147 0.874,2.184 2.129,2.184c1.094,0 2.131,-0.873 2.131,-2.129Zm31.341,0.055c0,-1.146 -0.873,-2.185 -2.129,-2.185c-0.929,0 -1.584,0.437 -1.967,1.366c-0.109,0.272 -0.163,0.546 -0.163,0.764c0,1.147 0.874,2.129 2.13,2.129c1.092,0 2.129,-0.818 2.129,-2.074Zm137.927,-2.185c-0.873,0 -1.638,0.546 -2.02,1.365c-0.164,0.218 -0.11,0.491 -0.11,0.71c0,1.147 0.875,2.184 2.13,2.184c1.093,0 2.13,-0.873 2.13,-2.129c0,-1.092 -0.874,-2.13 -2.13,-2.13Zm-131.975,2.13c0,-1.092 -0.928,-2.13 -2.184,-2.13c-0.929,0 -1.584,0.437 -1.966,1.365c-0.164,0.218 -0.11,0.492 -0.11,0.71c0,1.147 0.875,2.184 2.131,2.184c1.037,0 2.129,-0.873 2.129,-2.129Zm-14.251,2.129c1.093,0 2.13,-0.873 2.13,-2.129c0,-1.092 -0.873,-2.13 -2.13,-2.13c-0.873,0 -1.692,0.546 -1.965,1.365c-0.109,0.273 -0.164,0.546 -0.164,0.765c0,1.147 0.873,2.129 2.129,2.129Zm80.429,-2.238c0,-1.037 -0.873,-2.129 -2.13,-2.129c-0.818,0 -1.582,0.545 -1.965,1.365c-0.054,0.163 -0.109,0.436 -0.109,0.764c0,1.092 0.818,2.129 2.129,2.129c1.038,0 2.075,-0.873 2.075,-2.129Zm101.561,-2.238c-1.256,0 -2.184,1.092 -2.184,2.129c0,1.474 1.202,2.184 2.129,2.184c1.311,0 2.13,-1.092 2.13,-2.184c0,-0.274 -0.055,-0.491 -0.109,-0.764c-0.382,-0.819 -1.147,-1.365 -1.966,-1.365Zm-133.284,2.129c0,-0.219 -0.055,-0.491 -0.164,-0.764c-0.273,-0.819 -1.092,-1.31 -1.911,-1.31c-1.311,0 -2.184,1.037 -2.184,2.074c0,1.256 1.037,2.13 2.129,2.13c1.256,0 2.13,-0.984 2.13,-2.13Zm120.398,-2.567c-1.038,0 -2.075,0.874 -2.075,2.13c0,1.038 0.873,2.184 2.13,2.184c0.873,0 1.691,-0.546 1.964,-1.42c0.11,-0.273 0.165,-0.492 0.165,-0.764c0,-1.147 -0.928,-2.13 -2.184,-2.13Zm-135.305,4.26c0.874,0 1.639,-0.547 2.02,-1.365c0.055,-0.274 0.11,-0.547 0.11,-0.711c0,-1.092 -0.819,-2.074 -2.13,-2.074c-1.037,0 -2.129,0.764 -2.129,2.02c0,1.093 0.873,2.13 2.129,2.13Zm-174.565,-4.315c-1.038,0 -2.13,0.819 -2.13,2.13c0,1.147 0.874,2.13 2.13,2.13c0.873,0 1.638,-0.492 2.02,-1.366c0.055,-0.273 0.109,-0.546 0.109,-0.709c0,-1.147 -0.873,-2.185 -2.129,-2.185Zm-70.388,-3.353l-0.024,0c-0.625,-0.002 -1.262,0.166 -1.836,0.522c-1.63,1.013 -2.131,3.155 -1.12,4.784c0.008,0.013 0.085,0.133 0.094,0.147c0.651,1.012 1.737,1.554 2.858,1.554l0.027,0c0.634,-0.005 1.278,-0.184 1.858,-0.55c1.61,-1.017 2.073,-3.198 1.067,-4.816c-0.652,-1.049 -1.773,-1.63 -2.924,-1.641Zm89.389,1.935c-1.146,0 -2.129,0.928 -2.129,2.074c0,0.219 0,0.383 0.055,0.491c0.164,1.038 1.037,1.694 2.074,1.694c1.311,0 2.13,-0.983 2.13,-2.075c0,-1.256 -0.983,-2.184 -2.13,-2.184Zm173.965,3.276c1.256,0 2.075,-1.038 2.075,-2.075c0,-0.219 -0.055,-0.492 -0.163,-0.765c-0.328,-0.929 -0.984,-1.365 -2.021,-1.365c-1.256,0 -2.075,1.038 -2.075,2.13c0,1.256 1.038,2.075 2.184,2.075Zm135.414,-4.26c-1.256,0 -2.129,1.093 -2.129,2.13c0,1.256 1.037,2.13 2.129,2.13c1.256,0 2.13,-1.093 2.13,-2.13c0,-0.219 -0.055,-0.492 -0.164,-0.765c-0.382,-0.819 -1.147,-1.365 -1.966,-1.365Zm-264.004,1.911c0,0.164 0.055,0.382 0.109,0.655c0.383,0.874 1.092,1.53 1.966,1.53c1.256,0 2.185,-1.039 2.185,-2.076c0,-1.255 -1.092,-2.238 -2.131,-2.238c-1.256,0 -2.129,1.092 -2.129,2.129Zm48.652,0.11c0,-1.256 -1.092,-2.238 -2.129,-2.238c-1.256,0 -2.131,1.092 -2.131,2.129c0,0.164 0.055,0.381 0.11,0.655c0.382,0.874 1.091,1.529 1.966,1.529c1.255,0 2.184,-1.038 2.184,-2.075Zm169.267,-2.239c-1.255,0 -2.129,1.092 -2.129,2.129c0,0.164 0.055,0.382 0.11,0.655c0.381,0.874 1.091,1.529 1.965,1.529c1.255,0 2.185,-1.038 2.185,-2.075c0,-1.256 -1.092,-2.238 -2.131,-2.238Zm-111.115,2.239c0.055,-0.273 0.109,-0.546 0.109,-0.765c0,-1.255 -0.875,-2.184 -2.129,-2.184c-1.092,0 -2.076,0.875 -2.076,2.13c0,1.146 0.82,2.13 2.076,2.13c0.819,0 1.637,-0.437 2.02,-1.311Zm133.284,-2.95c-1.038,0 -2.075,0.875 -2.075,2.13c0,1.092 0.819,2.13 2.075,2.13c0.874,0 1.638,-0.491 2.02,-1.42c0.11,-0.219 0.165,-0.491 0.165,-0.765c0,-1.092 -0.928,-2.075 -2.185,-2.075Zm-309.925,-0.054c-1.037,0 -2.075,0.82 -2.075,2.076c0,1.037 0.819,2.184 2.075,2.184c0.819,0 1.639,-0.546 2.02,-1.366c0.109,-0.218 0.164,-0.491 0.164,-0.764c0,-1.147 -0.928,-2.13 -2.184,-2.13Zm248.116,-1.637c-0.874,0 -1.639,0.49 -2.021,1.365c-0.164,0.217 -0.109,0.49 -0.109,0.709c0,1.037 0.819,2.184 2.075,2.184c1.092,0 2.184,-0.928 2.184,-2.184c0,-1.037 -0.873,-2.074 -2.129,-2.074Zm-158.403,4.258c1.092,0 2.13,-0.873 2.13,-2.129c0,-1.037 -0.819,-2.129 -2.075,-2.129c-0.874,0 -1.638,0.49 -2.021,1.365c-0.109,0.272 -0.164,0.545 -0.164,0.764c0,1.092 0.874,2.129 2.13,2.129Zm171.452,-4.258c-0.873,0 -1.638,0.49 -2.019,1.365c-0.11,0.272 -0.165,0.545 -0.165,0.764c0,1.092 0.873,2.129 2.129,2.129c1.093,0 2.131,-0.873 2.131,-2.129c0,-1.037 -0.82,-2.129 -2.076,-2.129Zm-127.06,0c-0.873,0 -1.692,0.545 -1.966,1.365c-0.108,0.272 -0.163,0.545 -0.163,0.764c0,1.146 0.873,2.129 2.129,2.129c1.092,0 2.131,-0.873 2.131,-2.129c0,-1.092 -0.875,-2.129 -2.131,-2.129Zm-88.73,0c-0.873,0 -1.638,0.49 -2.019,1.365c-0.11,0.272 -0.165,0.545 -0.165,0.764c0,1.092 0.873,2.129 2.13,2.129c1.092,0 2.129,-0.873 2.129,-2.129c0,-1.037 -0.818,-2.129 -2.075,-2.129Zm73.66,1.311c-0.164,0.217 -0.109,0.49 -0.109,0.709c0,1.146 0.874,2.185 2.128,2.185c1.094,0 2.131,-0.875 2.131,-2.13c0,-1.092 -0.874,-2.129 -2.131,-2.129c-0.873,0 -1.636,0.545 -2.019,1.365Zm-42.373,2.893c1.093,0 2.131,-0.874 2.131,-2.13c0,-1.092 -0.875,-2.129 -2.131,-2.129c-0.873,0 -1.638,0.545 -2.019,1.365c-0.165,0.217 -0.11,0.491 -0.11,0.709c0,1.147 0.874,2.185 2.129,2.185Zm215.791,-4.259c-0.873,0 -1.638,0.545 -2.02,1.365c-0.164,0.217 -0.11,0.49 -0.11,0.709c0,1.147 0.875,2.185 2.13,2.185c1.093,0 2.13,-0.874 2.13,-2.13c0,-1.092 -0.874,-2.129 -2.13,-2.129Zm-69.892,1.256c-0.055,0.164 -0.109,0.436 -0.109,0.764c0,1.037 0.763,2.075 2.074,2.075c1.093,0 2.13,-0.765 2.13,-2.021c0,-1.146 -0.873,-2.183 -2.13,-2.183c-0.819,0 -1.582,0.545 -1.965,1.365Zm-193.839,-1.802c-1.146,0 -2.13,1.037 -2.13,2.184c0,0.164 0,0.328 0.055,0.382c0.164,1.037 1.038,1.694 2.075,1.694c1.364,0 2.185,-0.929 2.185,-2.076c0,-1.256 -0.929,-2.184 -2.185,-2.184Zm309.815,-0.274c-1.256,0 -2.129,0.93 -2.129,2.076c0,1.311 1.037,2.129 2.074,2.129c1.366,0 2.13,-0.982 2.13,-2.074c0,-0.274 -0.055,-0.492 -0.109,-0.766c-0.273,-0.818 -1.148,-1.365 -1.966,-1.365Zm-135.742,-0.709c-1.31,0 -2.075,1.146 -2.075,2.184c0,1.255 0.983,2.075 2.075,2.075c1.256,0 2.13,-1.038 2.13,-2.075c0,-0.219 -0.054,-0.492 -0.163,-0.764c-0.274,-0.874 -1.093,-1.42 -1.967,-1.42Zm-136.398,2.184c0.383,0.873 1.093,1.529 2.02,1.529c1.256,0 2.184,-1.092 2.184,-2.129c0,-1.256 -1.092,-2.184 -2.129,-2.184c-1.256,0 -2.183,1.037 -2.183,2.13c0,0.163 0.054,0.381 0.108,0.654Zm219.995,-0.6c0,-1.257 -1.092,-2.185 -2.129,-2.185c-1.256,0 -2.185,1.038 -2.185,2.13c0,0.163 0.054,0.381 0.109,0.655c0.383,0.873 1.092,1.529 2.021,1.529c1.255,0 2.184,-1.092 2.184,-2.129Zm-171.397,0c0,-1.257 -1.092,-2.185 -2.131,-2.185c-1.255,0 -2.183,1.038 -2.183,2.13c0,0.163 0.054,0.381 0.109,0.655c0.382,0.873 1.092,1.529 2.02,1.529c1.255,0 2.185,-1.092 2.185,-2.129Zm-186.507,-0.449l-0.013,-0.034c-0.635,-1.789 0.277,-3.785 2.054,-4.443c0.403,-0.151 0.816,-0.223 1.223,-0.224l0.02,0c1.382,0.007 2.673,0.835 3.2,2.202c0.013,0.033 0.064,0.178 0.082,0.225c0.624,1.815 -0.343,3.791 -2.156,4.416c-0.367,0.126 -0.742,0.187 -1.114,0.189l-0.016,0c-1.437,0 -2.781,-0.899 -3.28,-2.331Zm244.603,0.23c0.109,-0.273 0.164,-0.547 0.164,-0.819c0,-1.092 -0.873,-2.021 -2.129,-2.021c-1.039,0 -2.131,0.82 -2.131,2.13c0,1.037 0.875,2.075 2.186,2.075c0.818,0 1.637,-0.547 1.91,-1.365Zm135.36,-0.054c0.054,-0.273 0.108,-0.547 0.108,-0.765c0,-1.038 -0.764,-2.075 -2.128,-2.075c-1.039,0 -2.077,0.82 -2.077,2.13c0,1.092 0.875,2.075 2.131,2.075c0.819,0 1.693,-0.547 1.966,-1.365Zm-309.979,-0.055c0.109,-0.273 0.163,-0.492 0.163,-0.765c0,-1.091 -0.928,-2.129 -2.184,-2.129c-1.092,0 -2.075,0.874 -2.075,2.129c0,1.148 0.873,2.13 2.129,2.13c0.875,0 1.694,-0.547 1.967,-1.365Zm135.687,-5.733c-0.873,0 -1.747,0.492 -2.02,1.365c-0.109,0.274 -0.164,0.546 -0.164,0.764c0,1.093 0.873,2.13 2.129,2.13c1.147,0 2.131,-0.929 2.131,-2.185c0,-1.037 -0.82,-2.074 -2.076,-2.074Zm-44.391,4.204c1.037,0 2.075,-0.819 2.075,-2.075c0,-1.147 -0.874,-2.184 -2.13,-2.184c-0.928,0 -1.583,0.438 -1.965,1.365c-0.11,0.274 -0.165,0.546 -0.165,0.764c0,1.148 0.929,2.13 2.185,2.13Zm158.294,-4.259c-0.929,0 -1.584,0.437 -1.967,1.365c-0.163,0.219 -0.108,0.491 -0.108,0.709c0,1.148 0.874,2.185 2.13,2.185c1.091,0 2.129,-0.874 2.129,-2.13c0,-1.147 -0.928,-2.129 -2.184,-2.129Zm13.048,0c-0.928,0 -1.583,0.437 -1.965,1.365c-0.109,0.274 -0.164,0.546 -0.164,0.764c0,1.147 0.928,2.13 2.184,2.13c1.038,0 2.076,-0.82 2.076,-2.075c0,-1.147 -0.875,-2.184 -2.131,-2.184Zm-215.789,0c-0.929,0 -1.584,0.437 -1.966,1.365c-0.109,0.274 -0.164,0.546 -0.164,0.764c0,1.147 0.928,2.13 2.184,2.13c1.038,0 2.075,-0.82 2.075,-2.075c0,-1.147 -0.873,-2.184 -2.129,-2.184Zm75.733,-0.055c-0.873,0 -1.637,0.547 -2.019,1.42c-0.165,0.219 -0.11,0.491 -0.11,0.709c0,1.038 0.819,2.13 2.075,2.13c1.093,0 2.185,-0.873 2.185,-2.13c0,-1.092 -0.874,-2.129 -2.131,-2.129Zm-44.392,0c-0.873,0 -1.638,0.547 -2.019,1.42c-0.165,0.219 -0.11,0.491 -0.11,0.709c0,1.038 0.819,2.13 2.075,2.13c1.092,0 2.185,-0.873 2.185,-2.13c0,-1.092 -0.875,-2.129 -2.131,-2.129Zm215.791,0c-0.873,0 -1.638,0.547 -2.02,1.42c-0.164,0.219 -0.11,0.491 -0.11,0.709c0,1.038 0.82,2.13 2.076,2.13c1.092,0 2.184,-0.873 2.184,-2.13c0,-1.092 -0.874,-2.129 -2.13,-2.129Zm-260.564,-0.109c-1.256,0 -2.184,1.037 -2.184,2.13c0,0.163 0,0.327 0.055,0.382c0.164,1.091 0.983,1.747 2.02,1.747c1.255,0 2.239,-0.873 2.239,-2.129c0,-1.312 -1.038,-2.13 -2.13,-2.13Zm192.637,0c-0.818,0 -1.582,0.547 -1.965,1.42c-0.054,0.164 -0.109,0.437 -0.109,0.764c0,1.092 0.818,2.075 2.129,2.075c1.038,0 2.075,-0.819 2.075,-2.075c0,-1.092 -0.873,-2.184 -2.13,-2.184Zm113.956,-0.546c-1.256,0 -2.074,1.038 -2.074,2.13c0,1.256 0.982,2.129 2.129,2.129c1.31,0 2.075,-1.092 2.075,-2.129c0,-0.274 -0.055,-0.492 -0.11,-0.766c-0.381,-0.818 -1.147,-1.364 -2.02,-1.364Zm-227.201,1.966c0,-1.256 -1.092,-2.129 -2.129,-2.129c-1.256,0 -2.184,1.037 -2.184,2.129c0,0.219 0.054,0.383 0.108,0.601c0.383,1.037 1.039,1.528 2.021,1.528c1.256,0 2.184,-1.037 2.184,-2.129Zm169.268,-2.129c-1.256,0 -2.184,1.037 -2.184,2.129c0,0.219 0.055,0.383 0.109,0.6c0.383,1.038 1.038,1.529 2.02,1.529c1.257,0 2.185,-1.037 2.185,-2.129c0,-1.256 -1.092,-2.129 -2.13,-2.129Zm-217.865,2.729c0.383,1.037 1.037,1.528 2.02,1.528c1.256,0 2.185,-1.037 2.185,-2.129c0,-1.255 -1.092,-2.128 -2.13,-2.128c-1.255,0 -2.184,1.037 -2.184,2.128c0,0.219 0.054,0.383 0.109,0.601Zm106.312,-0.655c0.875,0 1.639,-0.492 2.021,-1.365c0.11,-0.274 0.165,-0.546 0.165,-0.819c0,-1.147 -0.93,-2.075 -2.186,-2.075c-1.092,0 -2.019,0.82 -2.019,2.075c0,1.147 0.763,2.184 2.019,2.184Zm137.326,-1.42c0.109,-0.273 0.164,-0.546 0.164,-0.818c0,-1.148 -0.874,-2.076 -2.131,-2.076c-1.146,0 -2.074,0.82 -2.074,2.076c0,1.091 0.764,2.129 2.074,2.129c0.93,0 1.584,-0.438 1.967,-1.311Zm-309.926,-0.109c0.109,-0.273 0.164,-0.545 0.164,-0.818c0,-1.038 -0.873,-2.076 -2.129,-2.076c-1.037,0 -2.13,0.82 -2.13,2.076c0,1.037 0.82,2.183 2.13,2.183c0.819,0 1.584,-0.545 1.965,-1.365Zm-69.788,-2.131c-0.009,-0.066 -0.024,-0.204 -0.026,-0.225c-0.168,-1.912 1.246,-3.6 3.153,-3.766l0.352,-0.015c1.753,0.015 3.258,1.377 3.418,3.169c0.166,1.887 -1.213,3.619 -3.086,3.814l-0.386,0.022c-1.732,0 -3.214,-1.245 -3.426,-3.006l0.005,0.034l-0.004,-0.027Zm178.776,-3.274c-1.256,0 -2.13,1.037 -2.13,2.075c0,0.163 0.055,0.382 0.11,0.655c0.381,0.928 1.091,1.583 2.02,1.583c1.256,0 2.129,-1.091 2.129,-2.129c0,-1.256 -1.037,-2.184 -2.129,-2.184Zm171.398,0c-1.256,0 -2.129,1.037 -2.129,2.075c0,0.163 0.055,0.382 0.11,0.655c0.38,0.928 1.091,1.583 2.019,1.583c1.256,0 2.13,-1.091 2.13,-2.129c0,-1.256 -1.038,-2.184 -2.13,-2.184Zm-217.919,2.075c0,0.163 0.054,0.382 0.108,0.655c0.382,0.928 1.092,1.583 2.021,1.583c1.256,0 2.13,-1.092 2.13,-2.13c0,-1.255 -1.037,-2.183 -2.13,-2.183c-1.256,0 -2.129,1.037 -2.129,2.075Zm75.296,-2.403c-0.873,0 -1.747,0.492 -2.02,1.365c-0.109,0.274 -0.164,0.547 -0.164,0.765c0,1.092 0.873,2.13 2.129,2.13c1.092,0 2.131,-0.874 2.131,-2.13c0,-1.093 -0.82,-2.13 -2.076,-2.13Zm-44.446,4.205c1.092,0 2.13,-0.874 2.13,-2.13c0,-1.092 -0.874,-2.13 -2.13,-2.13c-0.929,0 -1.583,0.438 -1.966,1.366c-0.109,0.273 -0.164,0.546 -0.164,0.764c0,1.147 0.874,2.13 2.13,2.13Zm171.397,-4.26c-0.928,0 -1.583,0.437 -1.965,1.365c-0.109,0.274 -0.164,0.547 -0.164,0.765c0,1.146 0.873,2.13 2.129,2.13c1.093,0 2.131,-0.874 2.131,-2.13c0,-1.092 -0.875,-2.13 -2.131,-2.13Zm-215.789,0c-0.929,0 -1.584,0.437 -1.966,1.365c-0.109,0.274 -0.164,0.547 -0.164,0.765c0,1.146 0.873,2.13 2.13,2.13c1.092,0 2.129,-0.874 2.129,-2.13c0,-1.092 -0.873,-2.13 -2.129,-2.13Zm200.774,1.365c-0.163,0.219 -0.108,0.492 -0.108,0.71c0,1.146 0.874,2.184 2.129,2.184c1.038,0 2.075,-0.819 2.075,-2.075c0,-1.092 -0.873,-2.184 -2.129,-2.184c-0.929,0 -1.584,0.437 -1.967,1.365Zm-87.746,2.84c1.037,0 2.129,-0.874 2.129,-2.13c0,-1.092 -0.874,-2.13 -2.129,-2.13c-0.875,0 -1.639,0.492 -2.021,1.366c-0.165,0.218 -0.11,0.492 -0.11,0.709c0,1.093 0.875,2.185 2.131,2.185Zm-18.238,0c1.037,0 2.074,-0.819 2.074,-2.075c0,-1.092 -0.818,-2.185 -2.074,-2.185c-0.874,0 -1.638,0.492 -2.02,1.366c-0.165,0.218 -0.11,0.492 -0.11,0.709c0,1.093 0.874,2.185 2.13,2.185Zm150.321,-2.84c-0.163,0.219 -0.109,0.492 -0.109,0.71c0,1.038 0.82,2.13 2.076,2.13c1.037,0 2.129,-0.82 2.129,-2.075c0,-1.038 -0.82,-2.13 -2.076,-2.13c-0.873,0 -1.637,0.492 -2.02,1.365Zm-215.899,0.71c0,1.038 0.819,2.13 2.075,2.13c1.037,0 2.13,-0.819 2.13,-2.075c0,-1.038 -0.82,-2.13 -2.076,-2.13c-0.873,0 -1.638,0.492 -2.02,1.365c-0.164,0.219 -0.109,0.492 -0.109,0.71Zm44.392,0c0,1.038 0.819,2.13 2.075,2.13c1.038,0 2.13,-0.819 2.13,-2.075c0,-1.038 -0.819,-2.13 -2.076,-2.13c-0.873,0 -1.637,0.492 -2.02,1.365c-0.164,0.219 -0.109,0.492 -0.109,0.71Zm27.302,2.13c1.147,0 2.13,-0.929 2.13,-2.185c0,-1.037 -0.819,-2.075 -2.075,-2.075c-0.873,0 -1.747,0.492 -2.02,1.366c-0.109,0.273 -0.164,0.546 -0.164,0.764c0,1.092 0.873,2.13 2.129,2.13Zm6.17,0c1.092,0 2.129,-0.819 2.129,-2.075c0,-1.092 -0.818,-2.185 -2.074,-2.185c-0.874,0 -1.639,0.492 -2.022,1.366c-0.109,0.273 -0.163,0.546 -0.163,0.764c0,1.092 0.874,2.13 2.13,2.13Zm72.129,-0.055c1.093,0 2.13,-0.929 2.13,-2.184c0,-1.038 -0.873,-2.13 -2.13,-2.13c-0.818,0 -1.691,0.546 -1.965,1.42c-0.109,0.273 -0.164,0.546 -0.164,0.764c0,1.093 0.873,2.13 2.129,2.13Zm109.916,-2.402c0,-1.037 -0.819,-2.074 -2.076,-2.074c-0.873,0 -1.746,0.49 -2.02,1.309c-0.054,0.163 -0.109,0.437 -0.109,0.82c0,1.037 0.764,2.075 2.074,2.075c1.093,0 2.131,-0.874 2.131,-2.13Zm-6.116,0c0,-1.092 -0.873,-2.074 -2.129,-2.074c-0.875,0 -1.693,0.49 -1.967,1.309c-0.054,0.163 -0.109,0.437 -0.109,0.82c0,1.091 0.766,2.075 2.021,2.075c1.147,0 2.184,-0.874 2.184,-2.13Zm10.211,-2.074c-0.873,0 -1.693,0.49 -1.966,1.31c-0.109,0.327 -0.163,0.6 -0.163,0.874c0,1.091 0.764,2.02 2.02,2.02c1.255,0 2.184,-0.819 2.184,-2.075c0,-1.037 -0.764,-2.129 -2.075,-2.129Zm-305.611,-0.11c-0.709,-0.055 -1.311,0.326 -1.801,1.037c-0.218,0.382 -0.328,0.764 -0.328,1.092c0,1.092 0.873,2.13 2.129,2.13c1.147,0 2.185,-0.82 2.185,-2.075c0,-1.147 -0.929,-2.184 -2.185,-2.184Zm136.07,1.31c1.256,0 2.186,-0.929 2.186,-2.075c0,-0.219 -0.055,-0.491 -0.165,-0.764c-0.382,-0.819 -1.146,-1.365 -1.966,-1.365c-1.256,0 -2.074,1.092 -2.074,2.129c0,1.256 0.982,2.075 2.019,2.075Zm135.359,-0.108c1.257,0 2.131,-0.93 2.131,-2.076c0,-0.218 -0.055,-0.49 -0.164,-0.764c-0.383,-0.874 -1.092,-1.365 -1.967,-1.365c-1.311,0 -2.074,1.092 -2.074,2.129c0,1.256 0.928,2.076 2.074,2.076Zm-309.978,-0.11c1.256,0 2.184,-0.982 2.184,-2.131c0,-0.218 -0.055,-0.49 -0.165,-0.763c-0.271,-0.82 -1.091,-1.366 -1.964,-1.366c-1.256,0 -2.13,1.037 -2.13,2.184c0,1.256 1.038,2.076 2.075,2.076Zm60.991,-2.239c0.382,1.038 1.038,1.528 1.966,1.528c1.256,0 2.183,-1.037 2.183,-2.129c0,-1.255 -1.037,-2.129 -2.074,-2.129c-1.256,0 -2.184,1.038 -2.184,2.075c0,0.164 0.054,0.383 0.109,0.655Zm48.542,-0.601c0,-1.256 -1.038,-2.13 -2.075,-2.13c-1.256,0 -2.184,1.038 -2.184,2.075c0,0.164 0.055,0.383 0.11,0.656c0.38,1.038 1.037,1.528 1.964,1.528c1.256,0 2.185,-1.037 2.185,-2.129Zm171.397,0c0,-1.256 -1.037,-2.13 -2.074,-2.13c-1.256,0 -2.185,1.038 -2.185,2.075c0,0.164 0.055,0.383 0.11,0.656c0.381,1.038 1.037,1.528 1.965,1.528c1.256,0 2.184,-1.037 2.184,-2.129Zm-348.71,-2.592c0.001,-0.01 0.002,-0.026 0.003,-0.032c0.193,-1.775 1.706,-3.118 3.447,-3.12l0.027,0c0.109,0.001 0.218,0.007 0.322,0.018c1.899,0.187 3.291,1.842 3.125,3.727c-0.003,0.034 -0.018,0.174 -0.027,0.24l-0.004,0.026l0.005,-0.033c-0.212,1.756 -1.699,3.047 -3.427,3.057l-0.439,-0.026c-1.903,-0.231 -3.259,-1.956 -3.032,-3.857Zm207.508,-1.121c-0.873,0 -1.692,0.547 -1.966,1.366c-0.108,0.273 -0.163,0.546 -0.163,0.764c0,1.146 0.873,2.13 2.129,2.13c1.092,0 2.131,-0.874 2.131,-2.13c0,-1.092 -0.875,-2.13 -2.131,-2.13Zm158.348,-0.054c-0.873,0 -1.638,0.491 -2.02,1.365c-0.164,0.218 -0.11,0.491 -0.11,0.71c0,1.037 0.82,2.184 2.076,2.184c1.037,0 2.129,-0.874 2.129,-2.13c0,-1.037 -0.819,-2.129 -2.075,-2.129Zm-217.92,2.075c0,1.037 0.819,2.184 2.075,2.184c1.037,0 2.13,-0.874 2.13,-2.13c0,-1.037 -0.82,-2.129 -2.076,-2.129c-0.873,0 -1.638,0.491 -2.02,1.365c-0.164,0.218 -0.109,0.491 -0.109,0.71Zm44.392,0c0,1.037 0.819,2.184 2.075,2.184c1.038,0 2.13,-0.874 2.13,-2.13c0,-1.037 -0.819,-2.129 -2.076,-2.129c-0.873,0 -1.637,0.491 -2.02,1.365c-0.164,0.218 -0.109,0.491 -0.109,0.71Zm-73.604,-2.075c-0.929,0 -1.584,0.436 -1.966,1.365c-0.109,0.273 -0.164,0.546 -0.164,0.764c0,1.093 0.818,2.13 2.075,2.13c1.147,0 2.184,-0.874 2.184,-2.13c0,-1.092 -0.873,-2.129 -2.129,-2.129Zm215.789,0c-0.928,0 -1.583,0.436 -1.965,1.365c-0.109,0.273 -0.164,0.546 -0.164,0.764c0,1.093 0.818,2.13 2.074,2.13c1.148,0 2.186,-0.874 2.186,-2.13c0,-1.092 -0.875,-2.129 -2.131,-2.129Zm-171.452,4.259c1.146,0 2.185,-0.874 2.185,-2.13c0,-1.092 -0.874,-2.129 -2.13,-2.129c-0.929,0 -1.583,0.437 -1.966,1.366c-0.109,0.272 -0.164,0.545 -0.164,0.763c0,1.093 0.82,2.13 2.075,2.13Zm158.404,-4.259c-0.929,0 -1.584,0.436 -1.967,1.365c-0.163,0.218 -0.108,0.491 -0.108,0.71c0,1.092 0.819,2.184 2.075,2.184c1.037,0 2.129,-0.82 2.129,-2.075c0,-1.092 -0.873,-2.184 -2.129,-2.184Zm-23.536,4.15c1.093,0 2.13,-0.929 2.13,-2.185c0,-1.091 -0.873,-2.075 -2.13,-2.075c-0.873,0 -1.691,0.546 -1.965,1.366c-0.109,0.272 -0.164,0.545 -0.164,0.764c0,1.092 0.873,2.13 2.129,2.13Zm-194.385,-3.987c-0.217,0.383 -0.326,0.766 -0.326,1.093c0,1.092 0.928,2.183 2.183,2.183c1.037,0 2.076,-0.927 2.076,-2.183c0,-1.093 -0.929,-2.13 -2.185,-2.13c-0.764,0 -1.365,0.328 -1.748,1.037Zm-103.543,1.002l-0.002,0.018l0.002,-0.018Zm342.921,-4.332c-1.256,0 -2.184,1.037 -2.184,2.129c0,0.109 0.055,0.328 0.11,0.601c0.383,1.038 1.037,1.529 1.965,1.529c1.256,0 2.184,-1.038 2.184,-2.075c0,-1.256 -1.037,-2.184 -2.075,-2.184Zm-173.472,2.73c0.383,1.037 1.038,1.528 1.966,1.528c1.256,0 2.183,-1.038 2.183,-2.075c0,-1.256 -1.037,-2.183 -2.074,-2.183c-1.256,0 -2.184,1.037 -2.184,2.128c0,0.11 0.054,0.329 0.109,0.602Zm-40.243,-0.547c0,-1.256 -1.037,-2.184 -2.074,-2.184c-1.257,0 -2.185,1.038 -2.185,2.129c0,0.11 0.055,0.328 0.11,0.602c0.381,1.037 1.037,1.528 1.965,1.528c1.256,0 2.184,-1.038 2.184,-2.075Zm115.377,1.694c1.255,0 2.074,-0.982 2.074,-2.021c0,-0.217 -0.055,-0.491 -0.164,-0.764c-0.273,-0.873 -1.092,-1.42 -1.91,-1.42c-1.311,0 -2.186,1.037 -2.186,2.076c0,1.31 1.092,2.129 2.186,2.129Zm135.25,-0.11c1.364,0 2.129,-0.982 2.129,-2.074c0,-0.274 -0.055,-0.492 -0.109,-0.766c-0.273,-0.818 -1.147,-1.365 -1.965,-1.365c-1.256,0 -2.131,1.038 -2.131,2.076c0,1.311 1.038,2.129 2.076,2.129Zm-309.926,-0.109c1.257,0 2.13,-1.092 2.13,-2.129c0,-0.273 -0.054,-0.547 -0.163,-0.82c-0.274,-0.819 -1.092,-1.31 -1.912,-1.31c-1.256,0 -2.184,0.984 -2.184,2.075c0,1.256 1.037,2.184 2.129,2.184Zm206.235,-0.491c0.819,0 1.639,-0.491 1.912,-1.312c0.109,-0.271 0.164,-0.49 0.164,-0.763c0,-1.092 -0.875,-2.129 -2.131,-2.129c-1.146,0 -2.074,0.928 -2.074,2.074c0,1.092 0.819,2.13 2.129,2.13Zm135.578,-0.546c0.874,0 1.748,-0.547 2.02,-1.365c0.055,-0.274 0.11,-0.547 0.11,-0.765c0,-1.037 -0.819,-2.13 -2.13,-2.13c-1.037,0 -2.074,0.929 -2.074,2.185c0,1.093 0.818,2.075 2.074,2.075Zm-204.213,-5.461c-0.873,0 -1.692,0.546 -1.966,1.365c-0.108,0.274 -0.163,0.546 -0.163,0.765c0,1.146 0.873,2.13 2.129,2.13c1.092,0 2.131,-0.874 2.131,-2.13c0,-1.092 -0.875,-2.13 -2.131,-2.13Zm-88.784,-0.054c-0.929,0 -1.584,0.437 -1.966,1.364c-0.109,0.274 -0.164,0.546 -0.164,0.765c0,1.147 0.873,2.13 2.13,2.13c1.092,0 2.129,-0.874 2.129,-2.13c0,-1.092 -0.873,-2.129 -2.129,-2.129Zm215.789,0c-0.928,0 -1.583,0.437 -1.965,1.364c-0.109,0.274 -0.164,0.546 -0.164,0.765c0,1.147 0.873,2.13 2.129,2.13c1.093,0 2.131,-0.874 2.131,-2.13c0,-1.092 -0.875,-2.129 -2.131,-2.129Zm-13.048,0c-0.929,0 -1.584,0.437 -1.967,1.364c-0.163,0.219 -0.108,0.492 -0.108,0.71c0,1.148 0.874,2.185 2.13,2.185c1.037,0 2.074,-0.82 2.074,-2.075c0,-1.092 -0.873,-2.184 -2.129,-2.184Zm-158.349,4.259c1.092,0 2.13,-0.874 2.13,-2.13c0,-1.092 -0.874,-2.129 -2.13,-2.129c-0.929,0 -1.583,0.437 -1.966,1.365c-0.109,0.273 -0.164,0.545 -0.164,0.764c0,1.148 0.874,2.13 2.13,2.13Zm-13.104,-0.055c1.037,0 2.13,-0.819 2.13,-2.075c0,-1.037 -0.82,-2.129 -2.076,-2.129c-0.873,0 -1.638,0.491 -2.02,1.364c-0.164,0.219 -0.109,0.492 -0.109,0.71c0,1.038 0.819,2.13 2.075,2.13Zm44.391,0c1.038,0 2.13,-0.819 2.13,-2.075c0,-1.037 -0.819,-2.129 -2.076,-2.129c-0.873,0 -1.637,0.491 -2.02,1.364c-0.164,0.219 -0.109,0.492 -0.109,0.71c0,1.038 0.819,2.13 2.075,2.13Zm171.453,-4.204c-0.873,0 -1.638,0.491 -2.02,1.364c-0.164,0.219 -0.11,0.492 -0.11,0.71c0,1.038 0.82,2.13 2.076,2.13c1.037,0 2.129,-0.819 2.129,-2.075c0,-1.037 -0.819,-2.129 -2.075,-2.129Zm-67.927,4.095c1.147,0 2.13,-0.873 2.13,-2.13c0,-1.037 -0.818,-2.074 -2.075,-2.074c-0.873,0 -1.746,0.491 -2.02,1.31c-0.109,0.273 -0.164,0.546 -0.164,0.819c0,1.093 0.873,2.075 2.129,2.075Zm-195.204,0c1.092,0 2.129,-0.982 2.129,-2.238c0,-1.038 -0.873,-2.021 -2.129,-2.021c-0.818,0 -1.42,0.327 -1.802,1.037c-0.218,0.382 -0.328,0.765 -0.328,1.147c0,1.038 0.874,2.075 2.13,2.075Zm-97.521,-7.438l-0.02,0c-1.394,0 -2.707,0.844 -3.24,2.221l-0.08,0.224c-0.618,1.797 0.328,3.694 2.11,4.345c0.384,0.139 0.776,0.204 1.161,0.204l0.015,0c1.407,-0.007 2.741,-0.888 3.274,-2.264c0.694,-1.789 -0.195,-3.801 -1.987,-4.494c-0.403,-0.158 -0.822,-0.233 -1.233,-0.236Zm162.39,5.527c1.255,0 2.184,-1.037 2.184,-2.075c0,-1.255 -1.038,-2.185 -2.076,-2.185c-1.255,0 -2.184,1.038 -2.184,2.13c0,0.219 0.055,0.383 0.109,0.601c0.383,1.038 1.037,1.529 1.967,1.529Zm-44.284,-4.26c-1.256,0 -2.184,1.038 -2.184,2.13c0,0.219 0.055,0.383 0.11,0.6c0.382,1.039 1.037,1.53 1.965,1.53c1.255,0 2.184,-1.037 2.184,-2.075c0,-1.255 -1.037,-2.185 -2.075,-2.185Zm215.79,0c-1.255,0 -2.184,1.038 -2.184,2.13c0,0.219 0.055,0.383 0.11,0.6c0.382,1.039 1.037,1.53 1.966,1.53c1.254,0 2.184,-1.037 2.184,-2.075c0,-1.255 -1.038,-2.185 -2.076,-2.185Zm-91.076,4.096c1.255,0 2.13,-0.982 2.13,-2.129c0,-0.164 -0.055,-0.437 -0.11,-0.711c-0.382,-0.873 -1.146,-1.42 -2.02,-1.42c-1.256,0 -2.075,1.039 -2.075,2.186c0,1.255 1.037,2.074 2.075,2.074Zm135.359,-4.422c-1.256,0 -2.13,1.037 -2.13,2.129c0,1.256 1.037,2.13 2.075,2.13c1.257,0 2.185,-0.984 2.185,-2.075c0,-0.219 -0.055,-0.493 -0.164,-0.765c-0.383,-0.874 -1.147,-1.419 -1.966,-1.419Zm-309.925,-0.164c-1.256,0 -2.13,1.092 -2.13,2.129c0,1.31 1.093,2.075 2.13,2.075c1.256,0 2.129,-0.874 2.129,-2.13c0,-0.219 -0.055,-0.491 -0.163,-0.763c-0.382,-0.821 -1.147,-1.311 -1.966,-1.311Zm198.317,3.658c0.929,0 1.584,-0.437 1.967,-1.365c0.108,-0.274 0.163,-0.492 0.163,-0.765c0,-1.093 -0.819,-2.13 -2.075,-2.13c-1.092,0 -2.184,0.875 -2.184,2.13c0,1.092 0.873,2.13 2.129,2.13Zm135.469,-4.424c-1.092,0 -2.129,0.875 -2.129,2.131c0,1.037 0.764,2.129 2.02,2.129c0.874,0 1.693,-0.546 2.075,-1.366c0.109,-0.218 0.164,-0.437 0.164,-0.708c0,-1.094 -0.874,-2.186 -2.13,-2.186Zm-309.324,3.114c1.093,0 2.185,-0.928 2.185,-2.184c0,-1.039 -0.874,-2.076 -2.13,-2.076c-0.819,0 -1.475,0.328 -1.856,1.037c-0.218,0.383 -0.328,0.766 -0.328,1.149c0,1.037 0.873,2.074 2.129,2.074Zm155.509,-1.202c1.311,0 2.13,-0.982 2.13,-2.13c0,-0.163 -0.055,-0.436 -0.11,-0.71c-0.381,-0.819 -1.146,-1.365 -1.965,-1.365c-1.311,0 -2.184,1.037 -2.184,2.13c0,1.309 1.092,2.075 2.129,2.075Zm135.415,-4.369c-1.147,0 -2.185,1.038 -2.185,2.13c0,1.473 1.147,2.184 2.076,2.184c1.31,0 2.183,-1.037 2.183,-2.184c0,-0.218 -0.055,-0.491 -0.164,-0.765c-0.273,-0.818 -1.037,-1.365 -1.91,-1.365Zm-310.034,-0.217c-1.256,0 -2.075,1.146 -2.075,2.239c0,1.256 1.146,2.02 2.184,2.02c1.255,0 2.075,-1.092 2.075,-2.129c0,-0.274 -0.054,-0.492 -0.109,-0.765c-0.383,-0.874 -1.147,-1.365 -2.075,-1.365Zm187.451,4.204c0.819,0 1.639,-0.545 1.911,-1.365c0.109,-0.274 0.164,-0.491 0.164,-0.764c0,-1.093 -0.874,-2.13 -2.13,-2.13c-1.091,0 -2.129,0.82 -2.129,2.13c0,1.037 0.873,2.129 2.184,2.129Zm135.413,-0.164c0.819,0 1.638,-0.545 1.911,-1.365c0.055,-0.273 0.109,-0.545 0.109,-0.764c0,-1.037 -0.764,-2.13 -2.129,-2.13c-0.928,0 -2.129,0.656 -2.129,2.13c0,1.037 0.982,2.129 2.238,2.129Zm-194.166,-4.259c-0.873,0 -1.638,0.546 -2.019,1.365c-0.165,0.219 -0.11,0.491 -0.11,0.71c0,1.147 0.873,2.184 2.129,2.184c1.092,0 2.131,-0.873 2.131,-2.129c0,-1.092 -0.875,-2.13 -2.131,-2.13Zm24.244,4.204c1.037,0 2.129,-0.873 2.129,-2.129c0,-1.037 -0.874,-2.13 -2.129,-2.13c-0.875,0 -1.639,0.491 -2.021,1.365c-0.165,0.219 -0.11,0.492 -0.11,0.71c0,1.092 0.875,2.184 2.131,2.184Zm-112.974,-4.204c-0.873,0 -1.746,0.491 -2.019,1.365c-0.11,0.273 -0.165,0.546 -0.165,0.765c0,1.037 0.819,2.074 2.076,2.074c1.146,0 2.183,-0.873 2.183,-2.129c0,-1.037 -0.818,-2.075 -2.075,-2.075Zm215.79,0c-0.873,0 -1.746,0.491 -2.019,1.365c-0.11,0.273 -0.165,0.546 -0.165,0.765c0,1.037 0.819,2.074 2.075,2.074c1.147,0 2.185,-0.873 2.185,-2.129c0,-1.037 -0.82,-2.075 -2.076,-2.075Zm-108.768,4.204c1.037,0 2.129,-0.873 2.129,-2.129c0,-1.037 -0.818,-2.13 -2.074,-2.13c-0.874,0 -1.639,0.491 -2.022,1.365c-0.109,0.274 -0.163,0.546 -0.163,0.765c0,1.092 0.874,2.129 2.13,2.129Zm-12.286,0c1.037,0 2.074,-0.873 2.074,-2.129c0,-1.037 -0.818,-2.13 -2.074,-2.13c-0.874,0 -1.638,0.491 -2.02,1.365c-0.165,0.219 -0.11,0.492 -0.11,0.71c0,1.092 0.874,2.184 2.13,2.184Zm-63.502,0c1.092,0 2.13,-0.818 2.13,-2.074c0,-1.092 -0.82,-2.185 -2.076,-2.185c-0.873,0 -1.638,0.491 -2.02,1.365c-0.109,0.274 -0.164,0.546 -0.164,0.765c0,1.092 0.874,2.129 2.13,2.129Zm215.79,0c1.092,0 2.129,-0.818 2.129,-2.074c0,-1.092 -0.819,-2.185 -2.075,-2.185c-0.873,0 -1.638,0.491 -2.021,1.365c-0.109,0.274 -0.163,0.546 -0.163,0.765c0,1.092 0.874,2.129 2.13,2.129Zm-44.392,0c1.092,0 2.184,-0.818 2.184,-2.074c0,-1.037 -0.819,-2.13 -2.075,-2.13c-0.874,0 -1.638,0.491 -2.021,1.365c-0.108,0.273 -0.163,0.546 -0.163,0.765c0,1.037 0.819,2.074 2.075,2.074Zm-101.78,0c1.093,0 2.13,-0.928 2.13,-2.184c0,-1.037 -0.819,-2.075 -2.075,-2.075c-0.873,0 -1.747,0.491 -2.02,1.365c-0.109,0.274 -0.164,0.546 -0.164,0.765c0,1.092 0.873,2.129 2.129,2.129Zm-25.227,0c1.093,0 2.13,-0.818 2.13,-2.074c0,-1.092 -0.819,-2.185 -2.076,-2.185c-0.873,0 -1.637,0.491 -2.02,1.365c-0.109,0.274 -0.164,0.546 -0.164,0.765c0,1.092 0.874,2.129 2.13,2.129Zm-31.342,0c1.146,0 2.185,-0.873 2.185,-2.129c0,-1.037 -0.82,-2.075 -2.076,-2.075c-0.874,0 -1.747,0.491 -2.02,1.365c-0.109,0.273 -0.164,0.546 -0.164,0.765c0,1.037 0.82,2.074 2.075,2.074Zm141.312,-4.313c-0.875,0 -1.639,0.546 -1.912,1.365c-0.109,0.274 -0.163,0.546 -0.163,0.765c0,1.092 0.874,2.074 2.13,2.074c1.037,0 2.129,-0.764 2.129,-2.074c0,-1.147 -0.928,-2.13 -2.184,-2.13Zm6.115,0c-0.929,0 -1.583,0.437 -1.966,1.365c-0.109,0.274 -0.164,0.546 -0.164,0.765c0,1.092 0.874,2.074 2.13,2.074c1.093,0 2.13,-0.818 2.13,-2.074c0,-1.092 -0.874,-2.13 -2.13,-2.13Zm-25.063,4.204c1.038,0 2.13,-0.709 2.13,-2.019c0,-1.147 -0.873,-2.185 -2.13,-2.185c-0.873,0 -1.638,0.546 -2.019,1.365c-0.165,0.219 -0.11,0.491 -0.11,0.71c0,1.037 0.818,2.129 2.129,2.129Zm6.116,0c1.037,0 2.075,-0.818 2.075,-2.074c0,-1.092 -0.874,-2.13 -2.13,-2.13c-0.873,0 -1.693,0.546 -1.966,1.365c-0.108,0.274 -0.163,0.546 -0.163,0.765c0,1.037 0.873,2.074 2.184,2.074Zm6.388,-0.055c1.093,0 2.13,-0.818 2.13,-2.074c0,-1.092 -0.873,-2.13 -2.13,-2.13c-0.873,0 -1.691,0.547 -1.965,1.365c-0.109,0.274 -0.164,0.546 -0.164,0.765c0,1.092 0.873,2.074 2.129,2.074Zm-206.015,-4.641c-1.256,0 -2.13,1.037 -2.13,2.13c0,0.163 0,0.327 0.055,0.382c0.164,1.037 1.037,1.748 2.075,1.748c1.256,0 2.13,-0.821 2.13,-2.075c0,-1.256 -0.874,-2.185 -2.13,-2.185Zm167.795,-0.054c-1.038,0 -2.076,0.765 -2.076,2.075c0,1.093 0.82,2.13 2.076,2.13c0.818,0 1.638,-0.492 1.91,-1.311c0.109,-0.273 0.164,-0.546 0.164,-0.819c0,-1.146 -0.819,-2.075 -2.074,-2.075Zm135.358,-0.163c-1.037,0 -2.129,0.709 -2.129,2.184c0,1.038 0.929,2.02 2.184,2.02c0.819,0 1.584,-0.492 1.966,-1.31c0.11,-0.274 0.165,-0.492 0.165,-0.765c0,-1.147 -0.93,-2.129 -2.186,-2.129Zm-309.923,-0.219c-1.038,0 -2.075,0.818 -2.075,2.075c0,1.092 0.818,2.129 2.129,2.129c0.819,0 1.584,-0.491 1.965,-1.365c0.11,-0.218 0.165,-0.491 0.165,-0.764c0,-1.093 -0.928,-2.075 -2.184,-2.075Zm-76.6,-2.909l-0.02,0c-1.16,0.004 -2.29,0.585 -2.947,1.643c0.003,-0.004 -0.031,0.05 -0.031,0.05c-1.035,1.609 -0.568,3.76 1.048,4.796c0.58,0.374 1.232,0.552 1.876,0.552l0.024,0c1.136,-0.009 2.241,-0.572 2.9,-1.596c0.004,-0.005 0.089,-0.139 0.098,-0.155l-0.011,0.018c1.013,-1.631 0.51,-3.771 -1.119,-4.784c-0.568,-0.352 -1.196,-0.521 -1.818,-0.524Zm55.44,-6.634l4.7,-4.703l0,14.115l-14.114,0l4.526,-4.526c-1.027,-1.274 -1.057,-3.148 0.036,-4.44c0.692,-0.817 1.674,-1.241 2.659,-1.241l0.021,0c0.766,0.006 1.534,0.264 2.172,0.795Zm-53.141,1.734l-0.075,0.075c-1.361,1.361 -1.323,3.516 0.037,4.877c0.669,0.668 1.553,0.998 2.439,0.998c0.912,0 1.826,-0.351 2.512,-1.038c1.359,-1.357 1.358,-3.556 0,-4.912c-1.357,-1.357 -3.556,-1.357 -4.913,0Zm6.397,-5.128c0.039,-0.027 0.155,-0.101 0.17,-0.11c0.573,-0.356 1.209,-0.524 1.836,-0.522l0.022,0c1.152,0.01 2.273,0.592 2.926,1.642c1.011,1.63 0.51,3.771 -1.12,4.784c-0.568,0.353 -1.208,0.527 -1.842,0.532l-0.027,0c-1.159,0 -2.291,-0.564 -2.946,-1.599c-1.022,-1.617 -0.597,-3.715 1.014,-4.75l-0.04,0.028c-0.002,0.001 -0.003,0.002 -0.005,0.003l0.012,-0.008Zm38.265,-1.804l-0.021,0c-1.225,0.001 -2.403,0.671 -3.036,1.837c-0.909,1.675 -0.246,3.804 1.423,4.725c0.532,0.294 1.107,0.433 1.676,0.433l0.026,0c1.217,-0.011 2.392,-0.658 3.018,-1.796c0.928,-1.682 0.317,-3.794 -1.362,-4.72l-0.112,-0.061c0,0 0.019,0.011 0.023,0.014l-0.051,-0.03c-0.51,-0.271 -1.051,-0.4 -1.584,-0.402Zm-30.781,-1.922c0.045,-0.018 0.169,-0.065 0.177,-0.067c0.382,-0.135 0.772,-0.2 1.155,-0.2l0.019,0c1.425,0.005 2.758,0.892 3.261,2.313c0.641,1.808 -0.303,3.795 -2.115,4.438c-0.38,0.133 -0.772,0.2 -1.16,0.202l-0.017,0c-1.429,0 -2.785,-0.867 -3.296,-2.269c-0.656,-1.796 0.204,-3.755 1.994,-4.425l-0.033,0.014l0.015,-0.006Zm24.844,-0.8l-0.033,-0.01c1.838,0.557 2.875,2.495 2.318,4.33c-0.452,1.498 -1.823,2.462 -3.307,2.47l-0.016,0c-0.334,0 -0.673,-0.049 -1.009,-0.15c-1.82,-0.552 -2.911,-2.488 -2.38,-4.316c0.444,-1.516 1.792,-2.508 3.284,-2.513l0.021,0c0.302,0.001 0.611,0.043 0.92,0.13l-0.031,-0.008l0.01,0.002c0.041,0.011 0.172,0.049 0.213,0.062l0.01,0.003Zm-16.091,-1.293l-0.439,0.026c-0.025,0.002 -0.191,0.024 -0.229,0.03c-1.871,0.284 -3.114,2.007 -2.861,3.889c0.232,1.738 1.77,3.005 3.489,3.005l0.413,-0.025c1.906,-0.224 3.269,-1.949 3.044,-3.856c-0.205,-1.756 -1.704,-3.055 -3.417,-3.069Zm7.484,-0.238l-0.018,0c-1.786,0.003 -3.279,1.388 -3.416,3.218c-0.141,1.887 1.318,3.552 3.204,3.724l0.336,0.014c1.77,-0.012 3.275,-1.364 3.438,-3.159c0.174,-1.911 -1.234,-3.601 -3.144,-3.775l-0.4,-0.022Z"/>
</defs>
<use filter="url(#blur)" xlink:href="#cs"/>
<use filter="url(#blur)" xlink:href="#cs"/>
<use filter="url(#blur)" xlink:href="#cs"/>
<use xlink:href="#cs"/>
</svg>
