<svg xmlns="http://www.w3.org/2000/svg" viewBox="0 0 82.233 89.02">
  <title>investment_areas</title>
  <g>
    <g>
      <path d="M73.748,37.08a11.938,11.938,0,0,0-1.2-1.261c.106-.441.19-.831.3-1.215.092-.337.281-.652.673-.547-2.013-5.467-5.8-10.669-9.676-13.082a1.819,1.819,0,0,0-.954.024,1.787,1.787,0,0,1-2.008-.5,1.623,1.623,0,0,0-1.56-.271,4.057,4.057,0,0,1-1.607.025c-.45-.017-.9-.094-1.347-.105-.761-.018-1.522,0-2.3,0l.969-.762a8.99,8.99,0,0,0-1.2-.426c-.7-.135-1.405-.222-2.111-.3-.207-.023-.506-.026-.623.095-.434.455-.959.385-1.5.466-.719.107-1.71-.244-2,.84l-1.349.116q-.011.072-.021.147l.808.413c-.382.083-.884-.129-1.031.017-.469.465-.933.238-1.446.078a1.285,1.285,0,0,0,1.365,1.08,2.449,2.449,0,0,0-.291.517c-.215.8-.479.917-1.3.544l.748-.471c-.444-.637-.8-1.176-1.186-1.693a.758.758,0,0,0-1.095-.142c-.292.291-.234.678.166,1,.187.153.393.282.591.421a5.373,5.373,0,0,1-1.629-.252c-.409-.1-.869-.42-1.134.241-.027.068-.225.093-.345.094-.643.011-1.288-.028-1.927.023a1.976,1.976,0,0,0-1.1.323,3.456,3.456,0,0,1-1.859.608.879.879,0,0,0-.816.83l-1.05-.261.24.46c-.594-.12-.594-.12-1.935-1.377,2.031.546,2.149.548,2.717-.058a7.011,7.011,0,0,0-2.255-.829,6.612,6.612,0,0,1-2.663-.454c-.482-.282-1.374.118-1.784.622l-.488-.145c-.394.292-.68.5-.96.713a3.562,3.562,0,0,0-.741.606,3.982,3.982,0,0,1-1.8,1.536,3.7,3.7,0,0,0-.6.341c.029.285.055.5.07.705.02.274-.074.651.071.8.279.289.59.007.856-.179.151-.105.3-.2.507-.337l1,1.843c.326-.2.833-.337.867-.554a3.1,3.1,0,0,1,.818-1.348c-.716-.926-.669-1.114.305-1.758a2.813,2.813,0,0,0,.575-.619c.4-.5.682-.5,1.24.025L28.613,24.7c.191,1.173.487,1.36,1.579,1.04a2.3,2.3,0,0,1,.656-.175,1.925,1.925,0,0,1,.592.222c-.015.077-.031.153-.046.229l-1.79.269c.075.333.136.6.2.876-.368.187-.9-.244-1.046.316a4.356,4.356,0,0,0-.015,1.032h.752a2.38,2.38,0,0,1-1.408.1,1.677,1.677,0,0,0-1.871.483,1.586,1.586,0,0,0-1.662-.443c-.354.1-.741.311-1.136.4-.536.118-.881.377-.81.919a2.843,2.843,0,0,0-.9.294,3.823,3.823,0,0,1-2.5,1.166c.205.177.415.257.586.387a1.562,1.562,0,0,1,.448,1.582c-.193.7-.708.532-1.182.5-.193-.014-.384-.076-.576-.075-.4,0-.807.033-1.286.056.172,1.057-.6,1.912-.2,2.78l1.267.652a4.224,4.224,0,0,1,.769-.2A1.432,1.432,0,0,0,20.468,35.9a1.437,1.437,0,0,1,.82-1.02,1.281,1.281,0,0,0,.536-.613c.153-.365.393-.564.744-.445a1.345,1.345,0,0,0,1.192-.241c.495-.291.83-.14,1.153.3a3.047,3.047,0,0,0,.892.872,2.542,2.542,0,0,1,1.461,1.523c.143-.481.234-.785.34-1.143a2.555,2.555,0,0,1-.25-.169c-.522-.426-1.073-.823-1.549-1.3a.873.873,0,0,1,.415-1.435c.068-.027.169.032.272.056l-.456.434c.736.551,1.43,1.036,2.077,1.577a2.038,2.038,0,0,1,.38.731c.265.588.546,1.154,1.375,1.272-.025-.341-.046-.615-.064-.86a4.251,4.251,0,0,1,1.028-.627,2.336,2.336,0,0,1,.923.143c.072-.7.143-1.377.22-2.11.508-.052.716-.784,1.364-.553a2.623,2.623,0,0,0,1.983-.224,2.667,2.667,0,0,1,.628-.092l-.381,1.107c.474.32.926.584,1.326.911a2.834,2.834,0,0,1,.458.669c-.265.153-.537.443-.794.43a10.939,10.939,0,0,1-1.6-.329,2.454,2.454,0,0,0-1.03-.136c-.869.244-1.707.592-2.564.9.086.217.163.391.224.571.308.905.644,1.113,1.653,1.058a3.934,3.934,0,0,1,.555.1,3.465,3.465,0,0,0,.726.021c.432-.053.859-.145,1.291-.222-.127.367-.23.629-.309.9-.143.483-.255.976-.412,1.454-.173.531-.564.633-1.083.536a5.174,5.174,0,0,0-.94,0,3.8,3.8,0,0,1-.955-.012c-.715-.191-1.418-.435-2.114-.689-.592-.216-.9-.091-1.118.5-.072.2-.162.393-.273.659A5.707,5.707,0,0,1,27,39.644a1.886,1.886,0,0,0-1.771-.452c-.194-.381-.541-.687-.293-1.235.114-.249-.108-.651-.174-.962-.538.027-.959.024-1.373.075a9.9,9.9,0,0,0-2.652.418,3.307,3.307,0,0,1-2.453.293c-.5.438-.925.775-1.3,1.163a1.906,1.906,0,0,0-.578.866,3.23,3.23,0,0,1-1.57,2.12,3.13,3.13,0,0,0-.594.572,26.513,26.513,0,0,0,.668,9.2c.248.384.74.6,1.07.945a1.356,1.356,0,0,0,1.6.334c.56-.2,1.131-.555,1.721-.041.053.046.187.016.279,0A1.459,1.459,0,0,0,20.867,51.4c.006-.124.027-.248.041-.371h.08l.125,1.206a1.446,1.446,0,0,1,1.709.631.917.917,0,0,0,.781.186.646.646,0,0,1,.851.439c.094.548.466.792.983,1.117-.281.209-.531.313-.65.5-.2.306-.483.713-.409.99a2.944,2.944,0,0,0,.785,1.052,3.734,3.734,0,0,1,.632,1.082c.024.225.067.447.11.669.136.7.309,1.389.4,2.092a1.408,1.408,0,0,1-.218.815,3.4,3.4,0,0,0-.2,3.325,6.521,6.521,0,0,1,.888,3.043,2.775,2.775,0,0,0,.494,1.35,8.973,8.973,0,0,1,.532,1.054c.024.058,2.946,1.8,3.014,1.792a2.6,2.6,0,0,0,1.736-.948c.416-.539.887-1.034,1.322-1.558a1.038,1.038,0,0,0,.322-.947.924.924,0,0,1,.618-.99,1.1,1.1,0,0,0,.7-1.334c-.042-.385-.095-.768-.151-1.221a12.55,12.55,0,0,1,1.5-1.3c1.079-.684,1.36-1.167,1.117-2.407-.112-.574-.276-1.136-.414-1.7a3.207,3.207,0,0,1,.459-3.2,18.417,18.417,0,0,1,1.975-2.151,9.184,9.184,0,0,0,2.441-3.7,4.5,4.5,0,0,0,.157-1.219l-2.88.6c-.448-.563-.8-1.007-1.152-1.446a7.8,7.8,0,0,1-1.437-1.929c-.286-.7-.891-1.278-.847-2.124a.228.228,0,0,0-.077-.174c-.58-.435-.658-1.156-.986-1.733-.375-.662-.686-1.361-1.024-2.045.246.118.371.423.527.44.758.082.921.745,1.287,1.208.858,1.085,1.184,2.481,2.094,3.544a5.032,5.032,0,0,1,1.077,2.456c.1.562.325.679.823.46a8.721,8.721,0,0,0,3.155-1.646,2.212,2.212,0,0,1,.7-.323,3.076,3.076,0,0,0,1.425-1.257c.144-.246.276-.5.441-.733.416-.586.348-.884-.272-1.245-.429-.251-.838-.535-1.316-.843a3.838,3.838,0,0,1-.374.394c-.3.253-1.132.307-1.147.1-.038-.549-.552-.585-.771-.911-.2-.292-.376-.595-.579-.881-.241-.339-.5-.666-.764-1.016.879-.33,1-.293,1.511.4a1.952,1.952,0,0,0,2.506.946c.578.921,1.547.891,2.488.918a6.814,6.814,0,0,0,.775-.074,1.634,1.634,0,0,1,1.707.656c.179.267.565.4.862.584a.96.96,0,0,0,.261.063l-.355.487c.243.165.482.457.7.442.24-.016.461-.315.806-.581.132,2.584,1.373,4.688,2.42,6.9a2.587,2.587,0,0,0,1.09-2.564,1.708,1.708,0,0,1,.608-1.609A28.562,28.562,0,0,0,57.893,44.8c.227-.258.519-.613.8-.634a6.566,6.566,0,0,1,1.519.2c.512,1.033.973,1.967,1.442,2.9.021.042.111.049.2.087l.714-.517c.378,1,.721,1.909,1.115,2.953.2-.443.343-.745.532-1.156l2.323,2.127A5.125,5.125,0,0,1,67.2,50.2a1.505,1.505,0,0,0,.28-2.517c-.5-.528-.993-1.072-1.478-1.6.282-.567.287-1.256.991-1.3a2.211,2.211,0,0,1,.873.3c.672-.3,1.337-.588,1.986-.907a4.644,4.644,0,0,0,1.052-.642A4.719,4.719,0,0,0,72,41.089a.836.836,0,0,0-.042-.477,5.768,5.768,0,0,0-1.4-2.249,2.624,2.624,0,0,0-.646-.334l1-1.154c-.629-.509-1.675.247-2.109-.784l1.045-1.056c.1.444.161.7.218.952a.991.991,0,0,0,.252-.022c.869-.4.865-.4,1.506.28.105.112.279.158.386.268a4.3,4.3,0,0,1,.59.7,5.108,5.108,0,0,1,.331.781C73.967,37.917,74.161,37.651,73.748,37.08ZM33.019,56.485c.274,1.064.535,2.079.8,3.091C33.029,58.87,32.9,58.368,33.019,56.485Zm2.349-1.021a1.464,1.464,0,0,1-.094.539c-.18.281-.378.643-.653.748-.439.169-.434-.341-.6-.59a1.344,1.344,0,0,0-.273-.219C34.765,55.284,34.765,55.284,35.368,55.464Zm7.28-18.537c-.979.486-1.481.332-2.317-.749a1.029,1.029,0,0,0-.212-1.506,2.107,2.107,0,0,1-.462-.62c-.18-.386-.625-.775-.228-1.233a1.88,1.88,0,0,1,1.5-.781c.492.018.8.444.528.764-.233.276-.589.514-.361.872.194.3.568.685.866.689.576.006.448.424.668.66l-.537.241C42.352,35.86,42.907,36.262,42.648,36.927Z" fill="#6fbeff" fill-rule="evenodd"/>
      <path d="M65.882,55.886c.024-.7-.6-.857-.953-1.227a4.967,4.967,0,0,0-.868-.753c-.543-.348-.786-1.187-1.714-1,.028.109.023.191.062.227a12.763,12.763,0,0,1,2.449,3.581,4.97,4.97,0,0,0,.981,1.191,2.179,2.179,0,0,0,.736.3c.282-1.129.28-1.133-.284-1.789C66.143,56.24,65.876,56.056,65.882,55.886Z" fill="#6fbeff" fill-rule="evenodd"/>
      <path d="M19.612,30l-.361.282c.717-.237,1.745.368,2.1-.776L19.9,27.667c.051-.1.137-.26.237-.448l-.444-.157c-.071.076-.358.493-.485.7a4.583,4.583,0,0,0,.691,1.027C19.523,29.147,19.052,29.5,19.612,30Z" fill="#6fbeff" fill-rule="evenodd"/>
      <path d="M66.074,54.648c-.4-.956-.2-2.1-1.419-2.425A1.914,1.914,0,0,0,66.074,54.648Z" fill="#6fbeff" fill-rule="evenodd"/>
    </g>
    <path d="M42.089,35.264c.263.6.818,1,.559,1.663-.979.486-1.481.332-2.317-.749a1.029,1.029,0,0,0-.212-1.506,2.107,2.107,0,0,1-.462-.62c-.18-.386-.625-.775-.228-1.233a1.88,1.88,0,0,1,1.5-.781c.492.018.8.444.528.764-.233.276-.589.514-.361.872.194.3.568.685.866.689.576.006.448.424.668.66Z" fill="none" fill-rule="evenodd"/>
    <path d="M82.233,20.634V6.073l-5.55,5.516A47.006,47.006,0,0,0,45.843,0C20.572,0,0,19.81,0,44.446S20.572,89.02,45.843,89.02A46.675,46.675,0,0,0,77.21,76.7l-3.3-3.682A41.916,41.916,0,0,1,45.97,83.813c-22.477,0-40.636-17.652-40.636-39.494,0-21.715,18.159-39.24,40.636-39.24A41.214,41.214,0,0,1,73.035,15.215l-5.452,5.419Z" fill="#6fbeff"/>
    <path d="M44.778,76.278A31.234,31.234,0,1,1,76.012,45.044,31.269,31.269,0,0,1,44.778,76.278Zm0-61.734a30.5,30.5,0,1,0,30.5,30.5A30.535,30.535,0,0,0,44.778,14.544Z" fill="#6fbeff"/>
  </g>
</svg>
