<svg xmlns="http://www.w3.org/2000/svg" width="80" height="80" viewBox="0 0 80 80">
  <path fill="#ce153e" d="M10.69 10.33h1.95c.86 0 1.53.56 1.53 1.32 0 .58-.42.92-.75 1.05.49.15.91.54.91 1.18 0 .73-.6 1.36-1.56 1.36H10.7v-4.91h-.01Zm.69.61v1.5h1.19c.5 0 .87-.32.87-.74s-.38-.75-.87-.75h-1.19Zm0 2.08v1.6h1.3c.53 0 .93-.35.93-.8s-.4-.8-.92-.8h-1.31Zm6.96.96H16l-.51 1.26h-.73l2.02-4.92h.81l2.02 4.92h-.77l-.5-1.26Zm-1.17-2.92-.92 2.3h1.85l-.93-2.3Zm3.31-.74h.69v4.26h2.55v.65h-3.24v-4.91Zm4.1 0h.69v4.26h2.55v.65h-3.24v-4.91ZM33 12.79c0 1.4-1.14 2.54-2.52 2.54a2.53 2.53 0 0 1-2.51-2.55 2.53 2.53 0 0 1 2.51-2.55A2.55 2.55 0 0 1 33 12.79Zm-.74 0c0-1.04-.8-1.88-1.79-1.88s-1.78.84-1.78 1.87.8 1.86 1.78 1.86c.99.01 1.79-.83 1.79-1.85Zm3.3-1.81v4.26h-.69v-4.26h-1.56v-.65h3.81v.65h-1.56Zm5.09.49c-.3-.37-.75-.58-1.22-.58-.59 0-.96.26-.96.66 0 1.08 2.74.59 2.74 2.34 0 .87-.71 1.45-1.8 1.45-.92 0-1.52-.36-1.86-.84l.5-.47c.33.43.8.65 1.36.65.67 0 1.06-.29 1.06-.75 0-1.2-2.75-.67-2.75-2.36 0-.79.7-1.33 1.72-1.33.77 0 1.39.34 1.69.76l-.48.47Zm5.02-.49v4.26h-.69v-4.26h-1.56v-.65h3.81v.65h-1.56Zm6.91 1.81c0 1.4-1.14 2.54-2.52 2.54s-2.51-1.14-2.51-2.55 1.13-2.55 2.51-2.55 2.52 1.15 2.52 2.56Zm-.74 0c0-1.04-.8-1.88-1.79-1.88s-1.78.84-1.78 1.87.8 1.86 1.78 1.86c.99.01 1.79-.83 1.79-1.85Zm10.31-2.47-1.58 4.92h-.86l-1.16-4.05-1.17 4.05h-.83l-1.58-4.92h.77l1.23 4.07 1.17-4.07h.87l1.17 4.08 1.23-4.08h.74Zm.94 0h.69v4.92h-.69v-4.92Zm2.76 1.13v3.79h-.7v-4.92h.75l2.72 3.81v-3.81h.69v4.92h-.75l-2.71-3.79Z"/>
  <g fill="#ce153e">
    <path d="M21.04 23.49a2.82 2.82 0 0 0-2.3-1.22c-.67 0-1 .26-1 .64 0 1.27 5.14.67 5.14 4.09 0 1.58-1.13 2.84-2.88 3.27v1.63h-2.2v-1.53c-1.82-.2-2.82-1.02-3.4-1.92l1.92-1.81a2.83 2.83 0 0 0 2.4 1.23c.82 0 1.25-.26 1.25-.76 0-1.33-5.14-.71-5.14-4.14 0-1.59 1.2-2.81 2.97-3.15v-1.58H20v1.59c1.26.25 2.27.92 2.87 1.81l-1.84 1.84ZM28.79 26.83c0-.76-.59-1.27-1.49-1.27-.76 0-1.31.23-1.76.49l-1.18-.87.82-5.37h5.62v2.32h-3.45l-.21 1.26c.21-.05.57-.07.76-.07 2.14 0 3.55 1.41 3.55 3.55 0 2.22-1.63 3.71-4.09 3.71-1.77 0-3.07-.79-3.73-1.87L25.55 27c.48.76 1.08 1.1 1.76 1.1.9 0 1.5-.51 1.5-1.28ZM34.13 32.18h-2.22l.99-4.71h2.71l-1.48 4.71ZM36.94 25.09c0-3.19 1.81-5.52 4.27-5.52 2.58 0 4.43 2.33 4.4 5.5.03 3.19-1.78 5.52-4.27 5.52-2.55 0-4.4-2.33-4.4-5.5Zm6.02 0c0-1.82-.66-3.04-1.74-3.04-.99 0-1.64 1.2-1.64 3.02 0 1.84.67 3.04 1.71 3.04 1.03 0 1.68-1.2 1.68-3.02ZM46.69 25.09c0-3.19 1.81-5.52 4.27-5.52 2.58 0 4.43 2.33 4.4 5.5.03 3.19-1.78 5.52-4.27 5.52-2.55 0-4.4-2.33-4.4-5.5Zm6.03 0c0-1.82-.66-3.04-1.74-3.04-.99 0-1.64 1.2-1.64 3.02 0 1.84.67 3.04 1.71 3.04 1.03 0 1.68-1.2 1.68-3.02ZM56.45 25.09c0-3.19 1.81-5.52 4.27-5.52 2.58 0 4.43 2.33 4.4 5.5.03 3.19-1.78 5.52-4.27 5.52-2.55 0-4.4-2.33-4.4-5.5Zm6.03 0c0-1.82-.66-3.04-1.74-3.04-.99 0-1.64 1.2-1.64 3.02 0 1.84.67 3.04 1.71 3.04 1.03 0 1.68-1.2 1.68-3.02Z"/>
  </g>
  <g fill="#ce153e">
    <path d="M22.6 41.13h-2.57l-.56 1.38h-.8l2.22-5.39h.89L24 42.51h-.85l-.55-1.38Zm-1.28-3.2-1.01 2.52h2.03l-1.02-2.52ZM24.95 37.12h.76v5.39h-.76v-5.39ZM27.23 37.12h1.88c1.19 0 1.97.64 1.97 1.62 0 .77-.48 1.33-1.25 1.54l1.34 2.23h-.87l-1.26-2.14h-1.05v2.13h-.76v-5.39Zm.76.68v1.89h1.19c.66 0 1.11-.38 1.11-.95s-.45-.94-1.11-.94h-1.19ZM35.08 38.33v4.18h-.76v-5.39h.88l1.94 3.09 1.93-3.08h.77v5.39h-.76v-4.18l-2 3.12-2.01-3.12ZM41.38 37.12h.76v5.39h-.76v-5.39ZM43.67 37.12h.76v4.67h2.79v.72h-3.55v-5.39ZM48.15 37.12h3.42v.72h-2.66v1.61h2.33v.72h-2.33v1.63h2.66v.72h-3.42v-5.39ZM55.68 38.38a1.7 1.7 0 0 0-1.34-.64c-.65 0-1.05.29-1.05.72 0 1.19 3.01.65 3.01 2.56 0 .95-.77 1.59-1.98 1.59-1.01 0-1.66-.4-2.03-.92l.55-.51c.36.47.88.71 1.5.71.74 0 1.16-.32 1.16-.82 0-1.31-3.01-.73-3.01-2.59 0-.87.77-1.46 1.88-1.46.84 0 1.52.37 1.85.83l-.54.52ZM60.95 38.54c0 1.13-.86 2.02-1.99 2.02a2 2 0 0 1-2-2.02c0-1.11.88-2.03 2-2.03 1.11 0 1.99.92 1.99 2.03Zm-3.55 0c0 .87.69 1.6 1.56 1.6.9 0 1.56-.7 1.56-1.6 0-.88-.69-1.61-1.56-1.61-.87 0-1.56.72-1.56 1.6Zm.78-1.05h.84c.39 0 .8.14.8.61 0 .35-.24.51-.5.57l.61.88h-.54l-.56-.85h-.16v.85h-.48v-2.07Zm.48.38v.5h.33c.19 0 .34-.05.34-.25s-.14-.24-.34-.24h-.33ZM7.79 45.85v4.67h-.76v-4.67H5.32v-.71H9.5v.71H7.79ZM10.39 45.14h1.88c1.19 0 1.97.64 1.97 1.62 0 .76-.48 1.33-1.25 1.54l1.34 2.23h-.87l-1.26-2.14h-1.05v2.14h-.76v-5.39Zm.76.68v1.89h1.19c.66 0 1.11-.38 1.11-.95s-.45-.94-1.11-.94h-1.19ZM18.9 49.15h-2.57l-.56 1.38h-.8l2.22-5.39h.89l2.22 5.39h-.85l-.55-1.38Zm-1.28-3.2-1.01 2.52h2.03l-1.02-2.52ZM22.68 49.69l1.68-4.55h.79l-2.05 5.39h-.89l-2.05-5.39h.85l1.67 4.55ZM26.12 45.14h3.42v.72h-2.66v1.61h2.33v.72h-2.33v1.63h2.66v.72h-3.42v-5.39ZM30.67 45.14h.76v4.67h2.79v.72h-3.55v-5.39ZM39.02 49.69l1.68-4.55h.79l-2.05 5.39h-.89l-2.05-5.39h.85l1.67 4.55ZM47.32 47.85c0 1.54-1.24 2.78-2.77 2.78s-2.76-1.25-2.76-2.79c0-1.55 1.24-2.8 2.76-2.8s2.76 1.26 2.76 2.81Zm-.81 0c0-1.13-.87-2.06-1.96-2.06a2 2 0 0 0-1.95 2.05 2 2 0 0 0 1.95 2.04 2 2 0 0 0 1.96-2.03ZM48.48 45.15h.77v3.29c0 .87.54 1.45 1.34 1.45.82 0 1.34-.58 1.35-1.45v-3.29h.77v3.29c0 1.33-.85 2.2-2.12 2.2s-2.1-.87-2.1-2.2v-3.29ZM58.03 46.31c-.36-.3-.82-.51-1.42-.51a2 2 0 0 0-1.94 2.05 2 2 0 0 0 2.01 2.04c.53 0 1.03-.18 1.36-.5l.5.56c-.5.49-1.11.69-1.91.69a2.75 2.75 0 0 1-2.76-2.79c0-1.55 1.23-2.8 2.75-2.8.86 0 1.45.24 1.92.67l-.5.59ZM63.3 48.17h-3v2.37h-.76v-5.39h.76v2.3h3v-2.3h.77v5.39h-.77v-2.37ZM65.58 45.15H69v.72h-2.66v1.61h2.33v.72h-2.33v1.63H69v.71h-3.42v-5.39ZM70.14 45.15h1.88c1.18 0 1.97.64 1.97 1.62 0 .76-.48 1.33-1.25 1.54l1.34 2.23h-.87l-1.26-2.14H70.9v2.14h-.76v-5.39Zm.75.68v1.89h1.19c.66 0 1.11-.38 1.11-.95s-.45-.94-1.11-.94h-1.19Z"/>
  </g>
</svg>
