<svg xmlns="http://www.w3.org/2000/svg" viewBox="0 0 368 180">
  <g>
    <g id="Layer_2">
      <path fill="#4a4a4a" d="m71.58 72.94 15.01-1.1.6-.04 104-7.6 21.32-1.55 74.57-5.45a4.28 4.28 0 0 0 3.91-3.54l4.46-25.76a4.29 4.29 0 0 0-4.17-5.02l-72.46-.83-21.04-.27-22.32-.28a97.6 97.6 0 0 0-49.74 12.9L87.19 56.45l-.6.34-16.97 9.71c-3.18 1.82-1.7 6.7 1.96 6.43Z"/>
      <path fill="#4a4a4a" d="M70.31 69.76c.07.23.28.79.98.79h.11l15.48-1.13V59.4L70.8 68.61c-.58.32-.58.82-.49 1.17Z"/>
      <path fill="#b9d9eb" d="M86.88 59.39v10.02L106 68.02l3.4-.25 5.64-.41 38.24-2.79 57.65-4.21 55.36-4.04 20.59-1.5a1.9 1.9 0 0 0 1.72-1.56l4.05-23.33.42-2.43c.13-.75-.2-1.27-.41-1.53a1.87 1.87 0 0 0-1.43-.68l-44.78-.52-27.69-.32-21.04-.26-4.09-.05-18.22-.23h-1.21a95.4 95.4 0 0 0-47.31 12.58l-13.19 7.55-3.75 2.15L86.87 59.4Z"/>
      <path fill="#b9d9eb" d="M86.88 59.39v10.02L106 68.02l3.4-.25 5.64-.41 38.24-2.79 57.65-4.21 55.36-4.04 20.59-1.5a1.9 1.9 0 0 0 1.72-1.56l4.05-23.33.42-2.43c.13-.75-.2-1.27-.41-1.53a1.87 1.87 0 0 0-1.43-.68l-44.78-.52-27.69-.32-21.04-.26-4.09-.05-18.22-.23h-1.21a95.4 95.4 0 0 0-47.31 12.58l-13.19 7.55-3.75 2.15L86.87 59.4Z"/>
      <path fill="#b9d9eb" d="m266.3 56.31 20.59-1.5a1.9 1.9 0 0 0 1.72-1.56l4.05-23.33-26.35 26.39ZM153.29 64.56l57.65-4.21 35.53-35.59-27.7-.31-21.03-.27-4.1-.05-40.35 40.43zM86.88 59.39v10.02L106 68.02l3.4-.25 5.64-.41 41.78-41.85a95.31 95.31 0 0 0-29.93 10.98l-13.19 7.55-3.75 2.15L86.87 59.4Z"/>
      <path fill="#cd456a" d="m255.08 79.2.07.02-.07-.02ZM278.28 59.45l-.16.68-.09.37-.57 2.27-1.25 4.82-19.01-3.51c-.2-1.74-.47-4.01-.59-5.25l-.08-.88v-.06l-.02-1.51v-.23a155.1 155.1 0 0 0-.27-6.45l-.04-.63.02-.11 2.68-.78.93-.3.1-.03.17-.06h.02l.26-.09h.03l.15-.06.84-.27 2.82-.91.18-.06.15-.05.28-.09h.13l-.1 1.33-.18 2.55 3.41.24v-.02l3.26.23v-.1l.06-.82.21-2.99h.03l.08.05.12.06h.02l.57.28h.02l1.47.73 1.6.79.81.4 3.01 1.46.52.25v.02c-.03.13-.21.94-.45 2.16a140.67 140.67 0 0 0-1.15 6.41c0 .04 0 .07-.02.11v.05Z"/>
      <path fill="#ffd4ae" d="M275.63 42.09c-.15.18-.33.32-.53.38a3.48 3.48 0 0 1-1.42-.27 1.53 1.53 0 0 1-.43-.56c-.07.22-.01.48.17.71.09.12.23.22.38.29.15.08.9.22 1.06.2a1 1 0 0 0 .43-.14c.25-.15.37-.39.34-.62Z" opacity=".5"/>
      <path fill="#d65357" d="m271.31 43.46.12.15a.98.98 0 0 0-.12-.15Z"/>
      <path fill="#cd456a" d="m285.18 63.28-5.83.88-1.01.15-.3-3.81s-.04-.86.03-2.21c.1-1.94.4-4.89 1.32-7.84l.02-.09.41.18c1.41.61 3.1 1.66 3.84 5.07.96 4.37 1.51 7.68 1.51 7.68ZM256.64 58.76l-.03.05-2.05 4.06-.81-.33-5.1-2.09s1.34-3.54 3.36-7.41c2.02-3.87 4.22-4.11 4.22-4.11l.01.09c.26 2.04.35 4.99.38 7.11.02 1.53.01 2.63.01 2.63Z"/>
      <path fill="#cd456a" d="m285.18 63.28-6.84 1.02-.12-1.52 6.7-.96.26 1.46zM254.56 62.87l.84-1.66-6.06-2.45-.69 1.69 5.91 2.42z"/>
      <path fill="#ffbf92" d="M254.07 62.67v.01l-.41.74-5.91 5.27 1.24-8.1h.01l4.75 1.95.32.13z"/>
      <path fill="#cd456a" d="m279.35 64.15-.52.08-.49.07-.12-1.53-.06-.78-.12-1.5-.57 2.27-1.25 4.82-1.19-.22a218.24 218.24 0 0 1 3.06-9.45c.01.06.12.97.21 1.37l.21.91a49.27 49.27 0 0 1 .53 2.46l.3 1.49Z"/>
      <path fill="#ffbf92" d="m284.77 69.16-5.63-1.04-.31-3.89.52-.08 2.53-.38 2.62-.39.28 5.78Z"/>
      <path fill="#cd456a" d="m258.58 64.33-1.38-.25c-.2-1.74-.47-4.01-.59-5.25l-1.21 2.39-.84 1.67-.49-.2-.32-.13.76-1.69 2.01-4.48.09-.21v-.02h.01l.01.02c.1.2.89 1.64 1.31 4.38.16 1.03.42 2.27.63 3.79Z"/>
      <path fill="#f6a820" d="M186.19 55.83c-.22-2.59-3.39-5.7-4.78-6.8l-6.6 2.1c-1.34 1.23-3.76 3.33-4.97 5.34-3.54 5.89-3.3 19.31-3.31 20.16 0 0 3.9 1.73 8.92 2.26 5.02.52 6.42-.64 6.42-.64 2.19-4.55 4.66-18.21 4.31-22.42Z"/>
      <path fill="#ab6b50" d="M193.3 51.24c.52-.27.5-1.33.24-1.59-2.1-1.29-4.73-3.1-2.68-4.99 1.54-1.35 4.17.2 5.96-1.68a15.34 15.34 0 0 0 2.62-4.15 4.76 4.76 0 0 0-4-4.81 4.7 4.7 0 0 0-5.31 4.03l-1.1 7.69a4.8 4.8 0 0 0 2.39 4.86c-2.77.55-4.48 1.83-4.48 1.83l-2.53 17.16v.7l3.05.04c-.52-7.08-1.04-15.77 5.86-19.08Z"/>
      <path fill="#be7759" d="M196.81 42.97c-1.79 1.88-4.42.34-5.96 1.68-2.05 1.89.58 3.7 2.68 4.99.26.26.28 1.32-.24 1.59-6.9 3.31-6.37 12-5.86 19.08l9.15.12s2.27-16.89-1.03-19.68a4.77 4.77 0 0 0 2.72-3.65l1.1-7.69c.03-.2.04-.4.04-.6a15.34 15.34 0 0 1-2.62 4.15Z"/>
      <path fill="#f7c8ac" d="M140.85 60.84c-1.19-.21-3.31-4.04-4.7-4.89-1.39-.85-5.3-3.06-5.78-3.01-.47.05.02 1.51 1.53 2.35a8.75 8.75 0 0 1 2.54 2.3s-4.39-2.28-5.9-1.74c-1.51.55 2.7 2.09 3.37 2.9.67.81-4.17-1.17-4.27-.22-.09.96 3.77 1.97 4.05 2.45.28.47-2.96-.36-3.11.66-.15 1.03 3.66 1.42 4.31 1.98.65.56 4.47 3.66 6.39 2.43 0 0 5.06.87 7.15 1.19l.55-5.28-6.14-1.12Z"/>
      <path fill="#ffdebf" d="M137.29 63.94c-.06.02-.13 0-.18-.06a7.11 7.11 0 0 1-1.47-3.47c-.41-.29-2.06-1.5-2.17-2.39a.67.67 0 0 1 .13-.52c.7-.87 3.12 1.1 3.85 1.73.08.07.09.2.02.28a.18.18 0 0 1-.27.03c-1.35-1.17-3-2.18-3.32-1.78a.26.26 0 0 0-.05.2c.09.65 1.53 1.78 2.08 2.16.04.03.08.08.08.14 0 .02.26 2.1 1.38 3.33.07.08.07.21 0 .28-.02.03-.06.04-.09.05Z"/>
      <path fill="#f6a820" d="m175.66 52.48-16.51 8.4-18.34-1.06-.64 7.15 20.71 1.56c.15-.09.3-.19.44-.3l18-10.72a3.33 3.33 0 0 0 .58-4.47 2.91 2.91 0 0 0-4.24-.56Z"/>
      <path fill="#86533d" d="M139.33 72.57c-.97.66-2.3.4-2.95-.59l-12.11-18.32a2.2 2.2 0 0 1 .58-3c.97-.66 2.3-.4 2.95.59l12.11 18.32a2.2 2.2 0 0 1-.58 3Z"/>
      <path fill="#e5901a" d="M185.19 53.21c-.42-.68-.93-1.34-1.46-1.94-5.42 2.41-10.56 5.71-15.49 9.09-.59 2.07-.98 4.4-1.24 6.64 4.99-5.85 11.11-11.17 18.18-13.8Z"/>
      <path fill="#e5901a" d="M180.63 56.74c-3.61 1.91-3.79 7.48-5.84 9.1-2.38 2-5.28 3.04-8.29 3.97-.26 3.58-.21 6.45-.22 6.83 0 0 3.9 1.73 8.92 2.26 5.02.52 6.42-.64 6.42-.64 1.46-3.02 3.04-10.07 3.83-15.7-3.03-.53-6.09-2.17-4.82-5.81Z"/>
      <path fill="#f9c025" d="M175.51 51.7s-.94-1.57-.58-2.13c.36-.56 7.01-1.88 7.11-1.14l.21 1.48-6.73 1.78Z"/>
      <path fill="#e5901a" d="m178.28 50.97.43-.11c.01-.22.03-.42.02-.56-.02-.6-.08-1.19-.12-1.79l-.89.17c.14.77.29 1.56.56 2.29ZM177.02 48.83l-.15.03c.12.79.26 1.58.47 2.35l.23-.06c-.26-.74-.41-1.54-.56-2.32ZM181.67 50.07l.57-.15-.21-1.48c-.02-.15-.32-.22-.79-.22.19.61.36 1.23.42 1.86ZM180.51 48.24l-.33.03.1 1.09c.03.33.05.69.1 1.05l.59-.16a9.43 9.43 0 0 0-.46-2.01ZM179.66 50.6c-.13-.72-.16-1.5-.2-2.23l-.15.02c.04.51.09 1.02.11 1.53l.02.74.22-.06ZM176.19 49.04l-.57.18c.13.48.3.93.4 1.22.11.34.21.69.33 1.03l.32-.08a23.3 23.3 0 0 1-.48-2.35ZM175.17 50.11a17.1 17.1 0 0 0-.18-.61l-.07.06c-.36.56.58 2.13.58 2.13l.14-.04c-.18-.52-.33-1.04-.48-1.55Z"/>
      <path fill="#728097" d="m164.04 67.99-2.21-3.42-.1.09.32-.35c10.01-11.15 25.18-19.16 36.14-23.92l1.37 3.93c-15.22 6.61-27.26 14.54-34.81 22.95-.34.38-.5.56-.7.72Z"/>
      <path fill="#62676b" d="M86.23 64.93s29.38-11.38 32.34-10.9c2.96.48 15.66 13.87 15.66 13.87L85.7 71.09l.53-6.16Z"/>
      <path fill="none" d="M87.19 59.44v9.98l19.11-1.39 3.4-.25 5.63-.41 38.22-2.78 57.61-4.19 55.32-4.03 20.57-1.5c.86-.07 1.57-.7 1.71-1.55l4.05-23.24.42-2.42c.13-.74-.2-1.27-.41-1.52a1.9 1.9 0 0 0-1.43-.68l-44.74-.51-27.67-.32-21.02-.26-4.09-.05-18.21-.23h-1.21a95.69 95.69 0 0 0-47.28 12.53l-13.18 7.52-3.75 2.14-23.06 13.15Z"/>
      <path fill="#4a4a4a" d="M258.6 152.6h-90.59l-40.75-5.61H258.6v5.61zM74.13 53.86l-4.39-.79-12.39 7.35v3.82l16.78-10.38zM288.74 12.92c.23 0 .44-.13.55-.35L294.68.85a.6.6 0 0 0-.29-.79.6.6 0 0 0-.79.29l-5.39 11.72a.6.6 0 0 0 .29.79c.08.04.17.05.25.05Z"/>
      <path fill="#4a4a4a" d="M288.44 11.92a2.9 2.9 0 0 1 2.9 2.89v.1h-5.79v-.1a2.9 2.9 0 0 1 2.9-2.89Z"/>
      <path fill="#ba0c2f" d="M355.71 100.2v49.85h7.72a4.56 4.56 0 0 0 4.57-4.56v-35.23a10.07 10.07 0 0 0-10.08-10.06h-2.2Z"/>
      <path fill="#ba0c2f" d="M0 105.92v40.43a3.69 3.69 0 0 0 3.69 3.69H360.2V74.37c0-.64-.05-1.26-.15-1.87L4.42 88.8A35.48 35.48 0 0 0 0 105.92Z" opacity=".25"/>
      <path fill="#ba0c2f" d="M0 141.34v5.47a3.24 3.24 0 0 0 3.24 3.24h360.19a4.57 4.57 0 0 0 4.57-4.56v-20.07l-7.79.34-4.49.2L82.2 137.87l-63.81 2.93-18.39.54Z" opacity=".25"/>
      <path fill="#4a4a4a" d="m314.86 23.04 26.16 39.36h8.46l-1.19-1.8-7.97-12.01-14.15-21.29a31.87 31.87 0 0 0-3.71-4.28h-7.6Z"/>
      <path fill="#b9d9eb" d="m318.21 24.84 23.77 35.77h6.3l-22.12-33.29a31.87 31.87 0 0 0-2-2.48h-5.96Z"/>
      <path fill="#4a4a4a" d="m191.18 64.2 10.71-.78.31-.03 10.3-.74 6.31-40.6-10.41-.14h-.61l-10.02-.13-6.59 42.42zM106.01 68.02l3.4-.26 4.3-23.72-3.75 2.14-3.95 21.84z"/>
      <path fill="#ba0c2f" d="M0 105.93v39.51a4.62 4.62 0 0 0 4.61 4.61H360.2V74.38c0-6.61-5.37-11.97-11.99-11.97l-7.9-13.8-14.15-21.29a31.87 31.87 0 0 0-3.71-4.28h1.8a33.4 33.4 0 0 0-23.29-9.45H172.31c-21.76 0-43.11 5.9-61.77 17.07l-53 31.74-32.09 9.49a35.43 35.43 0 0 0-14.85 8.75A35.4 35.4 0 0 0 0 105.93Zm69.73-39.42 16.95-9.68.6-.34 38.5-21.96a97.84 97.84 0 0 1 49.71-12.85l22.3.28 10.01.13h.61l10.4.14 72.41.83a4.27 4.27 0 0 1 4.17 5l-4.46 25.66a4.25 4.25 0 0 1-3.91 3.52l-74.51 5.43-21.3 1.55-103.93 7.57-.6.04-14.99 1.09c-3.66.26-5.14-4.6-1.96-6.41Z"/>
      <path fill="#993a34" d="M87.17 56.52v-.88a8 8 0 0 1 4.03-6.94l31.68-18.07a97.65 97.65 0 0 1 48.31-12.81h1.23l43.32.54 80.52.83a7.4 7.4 0 0 1 7.24 6.18l6.19 36.86a50.03 50.03 0 0 1-17.9 47.35 15.89 15.89 0 0 0-5.9 12.39v11.78a8 8 0 0 1-8.01 7.99H95.83a8.66 8.66 0 0 1-8.66-8.64V71.81l-.6.04v61.24c0 5.1 4.15 9.24 9.26 9.24h182.04a8.6 8.6 0 0 0 8.61-8.59v-11.78c0-4.65 2.07-9 5.68-11.93a50.6 50.6 0 0 0 18.12-47.91l-6.19-36.86a7.99 7.99 0 0 0-7.82-6.67l-80.52-.83-43.32-.54a98.22 98.22 0 0 0-49.85 12.88L90.9 48.17a8.63 8.63 0 0 0-4.33 7.47v1.22l.6-.34Z"/>
      <path fill="#d98307" d="M339.22 80.79v2.8c0 5.81 4.08 10.83 9.77 12.02l11.21 2.34V76.86h-17.04a3.93 3.93 0 0 0-3.94 3.93Z"/>
      <path fill="#993a34" d="m207.68 22.11.61.01.62-4.1-.6-.1-.63 4.19z"/>
      <path fill="#3c3c3c" d="m201.5 63.41.3.04.3.05v-.07l6.19-41.31-.61-.01-6.18 41.3z"/>
      <path fill="#993a34" d="m195.97 142.01 5.53-78.58.6.04-5.54 78.59zM287.93 69.38l11.03-.76a3.68 3.68 0 1 0-.51-7.34l-11.03.76a3.68 3.68 0 1 0 .51 7.34Z"/>
      <path fill="#878e94" d="M296.17 65.13a2.99 2.99 0 1 1-5.98.4 2.99 2.99 0 0 1 5.98-.4Z"/>
      <path fill="#b5bec3" d="m299.4 66.66-12.19.84a1.56 1.56 0 1 1-.21-3.11l12.19-.84a1.56 1.56 0 1 1 .21 3.11Z"/>
      <path fill="#993a34" d="m181.3 77.49 11.03-.76a3.68 3.68 0 1 0-.51-7.34l-11.03.76a3.68 3.68 0 1 0 .51 7.34Z"/>
      <path fill="#878e94" d="M189.55 73.24a2.99 2.99 0 1 1-5.98.4 2.99 2.99 0 0 1 5.98-.4Z"/>
      <path fill="#b5bec3" d="m192.78 74.78-12.19.84a1.56 1.56 0 1 1-.21-3.11l12.19-.84a1.56 1.56 0 1 1 .21 3.11Z"/>
      <path fill="#a8433d" d="M6.27 142.04h3a1.5 1.5 0 0 0 1.51-1.51v-18.7a1.54 1.54 0 0 0-2.48-1.21l-1.97 1.52a5.54 5.54 0 0 0-2.15 4.37v13.47c0 1.15.93 2.07 2.08 2.07Z"/>
      <path fill="#d5e0e6" d="M10.79 139.35H8.28a1.84 1.84 0 0 1-1.84-1.84v-6.49c0-1.02.82-1.84 1.84-1.84h2.51v10.17Z"/>
      <path fill="#d5e0e6" d="M10.79 129.18h-.97c-.73 0-1.33-.59-1.33-1.33v-2.13c0-.73.59-1.33 1.33-1.33h.97v4.79Z"/>
      <path fill="#ba0c2f" d="M90.51 64.43v2.18a5.54 5.54 0 0 0 5.53 5.53h5.83a6.61 6.61 0 1 0 0-13.22h-5.83a5.54 5.54 0 0 0-5.53 5.53Z"/>
      <path fill="#545454" d="M98.41 68.71v3.42h3.47a6.61 6.61 0 0 0 6.57-5.73h-7.72a2.3 2.3 0 0 0-2.31 2.31Z"/>
      <path fill="#f4a025" d="M349.31 87.15v1.62a6.8 6.8 0 0 0 6.81 6.78h4.09v-8.4h-10.89Z"/>
      <path fill="#ffb242" d="M345.09 80.94v4.56c0 1.82 1.2 3.42 2.96 3.93l12.16 3.51V78.41h-12.58a2.54 2.54 0 0 0-2.54 2.54Z"/>
      <path fill="#993a34" d="m338.77 122.03 11.43-26.24.55.24-11.43 26.24zM35.37 120.16l.5-.32L20.7 95.87l-.5.32 15.17 23.97z"/>
      <path fill="#3c3c3c" d="M17.09 150.05h67.38c0-4.3-.81-8.41-2.28-12.19a33.7 33.7 0 0 0-65.1 12.19Z"/>
      <ellipse cx="50.78" cy="150.05" fill="#4a4a4a" rx="30" ry="29.95"/>
      <ellipse cx="50.78" cy="150.05" fill="#b5bec3" rx="21.79" ry="21.76"/>
      <path fill="#62676b" d="M30.85 150.05a19.62 19.62 0 0 0 4.04 11.99 19.92 19.92 0 0 0 35.83-11.99c0-.34 0-.68-.03-1.02a19.71 19.71 0 0 0-5.31-12.53 19.63 19.63 0 0 0-14.6-6.35 19.77 19.77 0 0 0-14.6 6.35 19.74 19.74 0 0 0-5.34 13.55Z"/>
      <path fill="#878e94" d="m48.32 130.31.75 15.08.14 2.81.05.98.03.62h2.95v-.02l.03-.6.05-.98.14-2.81.75-15.08a19.93 19.93 0 0 0-4.92 0Z"/>
      <path fill="#878e94" d="m49.81 148.91.05.05.75.63.17.14.09.08.23.2.17.14.75.62.05.05h.01v-.02l.41-.44.67-.72 1.92-2.06 10.29-11.07a19.59 19.59 0 0 0-3.76-3.15l-9.13 12.04-1.7 2.24-.6.79-.37.48Z"/>
      <path fill="#878e94" d="M50.77 148.55v.07l.18.96.04.22.02.12.03.18.02.11.04.22.17.97v.06h.01l.6-.08.98-.12 2.79-.35 15.01-1.87a19.71 19.71 0 0 0-.85-4.82l-14.74 3.36-2.75.62-.96.22-.6.14h-.01Z"/>
      <path fill="#878e94" d="m50.26 151.45.51.33.83.54 2.36 1.52 12.71 8.2a20.3 20.3 0 0 0 2.46-4.24l-13.47-6.89-2.5-1.28-.88-.45-.54-.28-.03.05-.5.86-.11.2-.06.1-.09.15-.06.1-.11.19-.49.85-.03.06Z"/>
      <path fill="#878e94" d="M49.48 150.79v.02l.18.57.29.94.83 2.68 4.46 14.43a18.8 18.8 0 0 0 4.61-1.67l-5.88-13.92-1.1-2.58-.38-.91-.24-.57-.05.02-.93.34-.21.07-.11.04-.17.07-.11.04-.21.07-.93.34-.05.02Z"/>
      <path fill="#878e94" d="M41.71 167.77a19.2 19.2 0 0 0 4.61 1.66l4.46-14.42.83-2.69.29-.94.18-.58-.06-.03-.92-.34-.21-.07-.11-.04-.16-.06-.12-.05-.21-.08-.93-.33-.05-.02v.02l-.24.56-.38.9-1.09 2.58-5.88 13.93Z"/>
      <path fill="#878e94" d="M32.43 157.8a19.07 19.07 0 0 0 2.46 4.24l12.71-8.2 2.36-1.52.83-.54.52-.33-.03-.06-.49-.85-.11-.19-.06-.1-.09-.15-.07-.11-.1-.19-.49-.85-.03-.06h-.01v.01l-.54.27-.88.45-2.49 1.28-13.47 6.89Z"/>
      <path fill="#878e94" d="m30.88 149.03 15.02 1.87 2.79.35.98.12.6.08h.01v-.06l.18-.96.03-.22.03-.12.03-.18.02-.11.03-.22.17-.96v-.07l-.6-.14-.96-.22-2.75-.62-14.74-3.36a19.25 19.25 0 0 0-.85 4.82Z"/>
      <path fill="#878e94" d="m36.19 136.5 10.29 11.07 1.92 2.06.68.73.42.45.05-.04.75-.64.17-.14.09-.08.14-.11.09-.08.17-.14.76-.64.04-.03v-.01l-.36-.48-.6-.79-1.7-2.24-9.13-12.04a19.29 19.29 0 0 0-3.76 3.15Z"/>
      <ellipse cx="50.78" cy="150.05" fill="#b5bec3" rx="7.35" ry="7.34"/>
      <circle cx="50.78" cy="150.05" r="2.81" fill="none" stroke="#878e94" stroke-miterlimit="10" stroke-width="2.13"/>
      <path fill="#878e94" d="M51.61 145.21c0 .45-.37.82-.82.82s-.82-.37-.82-.82.37-.82.82-.82.82.37.82.82ZM55.39 148.35a.82.82 0 1 1-.82-1.42.82.82 0 0 1 .82 1.42ZM54.56 153.18a.82.82 0 1 1 .82-1.42.82.82 0 0 1-.82 1.42ZM49.95 154.88c0-.45.37-.82.82-.82s.82.37.82.82-.37.82-.82.82-.82-.37-.82-.82ZM46.17 151.74a.82.82 0 1 1 .82 1.42.82.82 0 0 1-.82-1.42ZM47 146.91a.82.82 0 1 1-.82 1.42.82.82 0 0 1 .82-1.42Z"/>
      <path fill="#3c3c3c" d="M286.53 150.05h67.38c0-4.3-.81-8.41-2.28-12.19a33.7 33.7 0 0 0-65.1 12.19Z"/>
      <ellipse cx="320.22" cy="150.05" fill="#4a4a4a" rx="30" ry="29.95"/>
      <ellipse cx="320.22" cy="150.05" fill="#b5bec3" rx="21.79" ry="21.76"/>
      <path fill="#71787d" d="M300.29 150.05a19.62 19.62 0 0 0 4.04 11.99 19.92 19.92 0 0 0 35.83-11.99c0-.34 0-.68-.03-1.02a19.71 19.71 0 0 0-5.31-12.53 19.63 19.63 0 0 0-14.6-6.35 19.77 19.77 0 0 0-14.6 6.35 19.74 19.74 0 0 0-5.34 13.55Z"/>
      <path fill="#878e94" d="m317.77 130.31.75 15.08.14 2.81.05.98.03.62h2.95v-.02l.03-.6.05-.98.14-2.81.75-15.08a19.93 19.93 0 0 0-4.92 0Z"/>
      <path fill="#878e94" d="m319.25 148.91.05.05.75.63.17.14.09.08.23.2.17.14.75.62.05.05h.01v-.02l.41-.44.67-.72 1.92-2.06 10.29-11.07a19.59 19.59 0 0 0-3.76-3.15l-9.13 12.04-1.7 2.24-.6.79-.37.48Z"/>
      <path fill="#878e94" d="M320.21 148.55v.07l.18.96.04.22.02.12.03.18.02.11.04.22.17.97v.06h.01l.6-.08.98-.12 2.79-.35 15.01-1.87a19.71 19.71 0 0 0-.85-4.82l-14.74 3.36-2.75.62-.96.22-.6.14h-.01Z"/>
      <path fill="#878e94" d="m319.7 151.45.51.33.83.54 2.36 1.52 12.71 8.2a20.3 20.3 0 0 0 2.46-4.24l-13.47-6.89-2.5-1.28-.88-.45-.54-.28-.03.05-.5.86-.11.2-.06.1-.09.15-.06.1-.11.19-.49.85-.03.06Z"/>
      <path fill="#878e94" d="M318.92 150.79v.02l.18.57.29.94.83 2.68 4.46 14.43a18.8 18.8 0 0 0 4.61-1.67l-5.88-13.92-1.1-2.58-.38-.91-.24-.57-.05.02-.93.34-.21.07-.11.04-.17.07-.11.04-.21.07-.93.34-.05.02Z"/>
      <path fill="#878e94" d="M311.15 167.77a19.2 19.2 0 0 0 4.61 1.66l4.46-14.42.83-2.69.29-.94.18-.58-.06-.03-.92-.34-.21-.07-.11-.04-.16-.06-.12-.05-.21-.08-.93-.33-.05-.02v.02l-.24.56-.38.9-1.09 2.58-5.88 13.93Z"/>
      <path fill="#878e94" d="M301.87 157.8a19.07 19.07 0 0 0 2.46 4.24l12.71-8.2 2.36-1.52.83-.54.52-.33-.03-.06-.49-.85-.11-.19-.06-.1-.09-.15-.07-.11-.11-.19-.49-.85-.03-.06h-.01v.01l-.54.27-.88.45-2.49 1.28-13.47 6.89Z"/>
      <path fill="#878e94" d="m300.32 149.03 15.02 1.87 2.79.35.98.12.6.08h.01v-.06l.18-.96.03-.22.03-.12.03-.18.02-.11.03-.22.17-.96v-.07l-.6-.14-.96-.22-2.75-.62-14.74-3.36a19.25 19.25 0 0 0-.85 4.82Z"/>
      <path fill="#878e94" d="m305.63 136.5 10.29 11.07 1.92 2.06.68.73.42.45.05-.04.75-.64.17-.14.09-.08.14-.11.09-.08.17-.14.76-.64.04-.03v-.01l-.36-.48-.6-.79-1.7-2.24-9.13-12.04a19.29 19.29 0 0 0-3.76 3.15Z"/>
      <ellipse cx="320.22" cy="150.05" fill="#b5bec3" rx="7.35" ry="7.34"/>
      <path fill="#878e94" d="M321.05 145.21c0 .45-.37.82-.82.82s-.82-.37-.82-.82c0-.45.37-.82.82-.82s.82.37.82.82ZM324.83 148.35a.82.82 0 1 1-.82-1.42.82.82 0 0 1 .82 1.42ZM324 153.18a.82.82 0 1 1 .82-1.42.82.82 0 0 1-.82 1.42ZM319.39 154.88c0-.45.37-.82.82-.82s.82.37.82.82c0 .45-.37.82-.82.82s-.82-.37-.82-.82ZM315.61 151.74a.82.82 0 1 1 .82 1.42.82.82 0 0 1-.82-1.42ZM316.44 146.91a.82.82 0 1 1-.82 1.42.82.82 0 0 1 .82-1.42Z"/>
      <circle cx="320.22" cy="150.05" r="2.81" fill="none" stroke="#878e94" stroke-miterlimit="10" stroke-width="2.13"/>
      <path fill="#d5e0e6" d="M.62 99.3h7.04c2.76 0 5.47-.42 8.06-1.25 2.78-.87 5.4-2.21 7.77-3.96l5.41-3.99 6.5-4.79a4.45 4.45 0 0 0 1.8-3.57v-.78a4.45 4.45 0 0 0-5.28-4.36L17.4 79.35l-6.81 1.29A35.43 35.43 0 0 0 .6 99.29Z"/>
      <path fill="#b5bec3" d="M.62 99.3h7.04c5.7 0 11.25-1.83 15.84-5.21l5.41-3.99H3.73a35.59 35.59 0 0 0-3.11 9.19Z"/>
      <path fill="#edf4f7" d="M.62 99.3h7.04c.57 0 1.14-.02 1.7-.05a7.32 7.32 0 0 0 6.85-6.63l1.2-13.26-6.81 1.29A35.43 35.43 0 0 0 .61 99.3Z"/>
      <path fill="#4a4a4a" d="m71.58 72.94 15.01-1.1.6-.04 104-7.6 21.32-1.55 74.57-5.45a4.28 4.28 0 0 0 3.91-3.54l4.46-25.76a4.29 4.29 0 0 0-4.17-5.02l-72.46-.83-21.04-.27-22.32-.28a97.6 97.6 0 0 0-49.74 12.9L87.19 56.45l-.6.34-16.97 9.71c-3.18 1.82-1.7 6.7 1.96 6.43Zm15.3-13.55 23.08-13.21 3.75-2.15 13.19-7.55a95.31 95.31 0 0 1 47.31-12.58h1.21l18.22.23 4.09.05 21.04.26 27.69.32 44.78.52c.76.01 1.22.43 1.43.68.2.25.53.78.41 1.53l-.42 2.43-4.05 23.33a1.88 1.88 0 0 1-1.72 1.56l-20.59 1.5-55.36 4.04-57.65 4.21-38.24 2.79-5.64.41-3.4.25-19.12 1.39V59.38Z"/>
      <path fill="#2a4657" d="m177.98 63.71-2.23 8.21-11.42-2.14-.06.27a.88.88 0 0 0-.2-.03c-1.29.03-4.21-3.2-5.83-3.74s-6.14-1.89-6.63-1.75c-.49.14.29 1.43 2.03 1.94 1.74.51 3.09 1.7 3.09 1.7s-5.04-1.32-6.53-.51c-1.49.81 3.22 1.47 4.07 2.11.85.63-4.61-.31-4.54.61.07.93 4.32 1.15 4.7 1.55.38.4-3.19.22-3.16 1.23.03 1 4.11.64 4.89 1.05.75.39 4.94 2.41 6.9 1.27l-.12.55 14.83 3.79c2.2.69 3.18-.54 3.39-1.67l3.9-14.53-7.11.11Z" opacity=".2"/>
      <path fill="#f7c8ac" d="M164.03 68.54c-1.28.03-4.2-3.17-5.82-3.7-1.62-.54-6.13-1.87-6.62-1.73-.49.14.29 1.42 2.03 1.92 1.74.5 3.08 1.68 3.08 1.68s-5.03-1.31-6.52-.51c-1.49.8 3.22 1.45 4.07 2.09.85.63-4.6-.31-4.53.61.07.92 4.32 1.14 4.7 1.53.38.39-3.18.22-3.16 1.22.03.99 4.1.64 4.88 1.04.78.4 5.35 2.59 7.16 1.07 5.25 1.27 4.6 1.54 7.01 2.32l1-4.39c-1.57-.46-6.59-3.15-7.29-3.13Z"/>
      <path fill="#f6a820" d="M177.72 78.23c2.2.68 3.17-.54 3.39-1.66l4.54-16.74c.55-2.08.48-3.37-1-4.41s-4.23-1.1-5.05.69l-3.91 14.31-11.4-2.12-1.38 6.17 14.8 3.75Z"/>
      <path fill="#f7c8ac" d="M170.61 45.84c.64 1.7.44 2.49 3.15 3.21 3.46.91 6.39.92 8.07 0 2.56-1.39 6.98-4.31 7.98-6.9l4.54-10.57c1.98-5.1-1.54-10.75-7.72-12.38-6.18-1.63-12.5 1.42-13.86 6.69l-2.44 11.13c-.7 2.67-.53 6.7.27 8.83Z"/>
      <path fill="#fff" d="m178.56 43.73-6.01-2s.19 2.81 2.26 3.3c2.07.49 3.74-1.3 3.74-1.3Z"/>
      <path fill="#4a3c33" d="M180.96 37.03c-.19.59.18 1.21.84 1.38.65.17 1.34-.17 1.53-.76.19-.59-.18-1.21-.84-1.38-.65-.17-1.34.17-1.53.76Z"/>
      <path fill="#fff" d="M182.18 36.9c-.07.23.07.47.33.54a.5.5 0 0 0 .6-.3c.07-.23-.07-.47-.33-.54a.5.5 0 0 0-.6.3Z"/>
      <path fill="#4a3c33" d="M171.74 34.6c-.19.59.18 1.21.84 1.38.65.17 1.34-.17 1.53-.76.19-.59-.18-1.21-.84-1.38-.65-.17-1.34.17-1.53.76Z"/>
      <path fill="#fff" d="M172.97 34.47c-.07.23.07.47.33.54a.5.5 0 0 0 .6-.3c.07-.23-.07-.47-.33-.54a.5.5 0 0 0-.6.3Z"/>
      <path fill="#5c2300" d="M192.32 22.46s-2.5-4.83-12.96-4c-9.65 2.08-6.58 7.42-6.58 7.42.6-1.98 1.11-1.67 4.58-1.25 3.87.46 2.07 1.13 7.47 1.29 1.87.06 4.67-1.99 6.38 2 1.31 2.04-2.93 12.8-3.61 14.22l2.43.1c-.62-.38 10.63-18.26 2.29-19.79Z"/>
      <path fill="#5c2300" d="M186.19 35.06a10.93 10.93 0 0 0-4.25-2.39c-.85-.16-1.48.99-1.2 1.28 1.21 1.28 2.08-.08 4.54 1.74.62.35 1.21-.44.91-.64ZM171.23 31.11c1.57-.34 2.96-.32 5 .05.81.28.67 1.59.25 1.66-2.15.39-1.71-1.08-4.87-.74-.73 0-.76-.96-.39-.98Z"/>
      <path fill="#d9a993" d="M176.45 40.12c-.03.08.11.19.3.24.19.05.37.03.4-.06.03-.08-.11-.19-.3-.24s-.37-.03-.4.06ZM174.88 39.71c-.03.08.11.19.3.24.19.05.37.03.4-.06.03-.08-.11-.19-.3-.24-.19-.05-.37-.03-.4.06Z"/>
      <path fill="#f7c8ac" d="M189.88 40.18c1.46.24 1.25 1.19 1.17 1.54s-.78 1.29-1.26 1.35c-.48.06-2.94-.07-2.95-.36-.01-.29 2.45-2.62 3.04-2.53Z"/>
      <path fill="#d9a993" d="M190.33 41.83c.21-.01.16-.8-.19-.76-.7.08-1.12.9-1.45.95-.19.03 0 0-.32 0s.05.44.33.41c.48-.06.51-.94 1.19-1.02.37-.04.32.43.44.42Z"/>
      <path fill="#5c2300" d="M184.53 25.94s-7.01.54-10.22-.54c0 0 .81-.32.97-.81s-2.07-1.32-2.07-1.32l11.32 2.68Z"/>
      <path fill="#f7c8ac" d="M271.57 52.06a4.66 4.66 0 0 1-3.46 1.46c-.82-.08-2.79-.27-3.88-1.97-1.01-1.55-.3-3.91.02-5.2s.31-.11.31-.11l.3-.09h.13l-.28 3.88 3.41.24v-.02l3.26.23.06-.82.22-3.1.11.05.12.06.59.28c0 .72.01 1.87-.15 2.94a4.5 4.5 0 0 1-.77 2.16ZM266.5 36.54c-.25 1.19-1.7 2.5-2.81 2.27-1.11-.24-1.89-2.08-1.64-3.27s1.44-1.27 2.55-1.04c1.11.23 2.15.85 1.89 2.04Z"/>
      <path fill="#a04f03" d="M265.8 39.85c-.25 1.19-1.69 2.5-2.81 2.27-1.11-.24-1.89-2.08-1.63-3.27.25-1.19 1.44-1.27 2.55-1.04 1.11.23 2.15.85 1.89 2.04Z"/>
      <path fill="#a04f03" d="M265.1 43.15c-.25 1.19-1.7 2.5-2.81 2.27-1.11-.24-1.89-2.08-1.63-3.27.25-1.19 1.43-1.27 2.55-1.04 1.11.24 2.15.85 1.89 2.04Z"/>
      <path fill="#a04f03" d="M264.4 46.45c-.25 1.19-1.69 2.5-2.81 2.27-1.11-.23-1.89-2.08-1.63-3.27.25-1.19 1.43-1.28 2.55-1.04 1.11.24 2.15.85 1.89 2.04Z"/>
      <path fill="#a04f03" d="M263.7 49.75c-.25 1.19-1.69 2.5-2.81 2.27-1.11-.23-1.89-2.08-1.64-3.26.25-1.19 1.43-1.27 2.55-1.04 1.11.24 2.15.85 1.89 2.04Z"/>
      <path fill="#31a9a0" d="m259.58 52.48.26-1.24 2.34.5-.26 1.24z"/>
      <path fill="#a04f03" d="M259.59 52.48s-2.3 1.16-2.24 3.41c.07 2.25 2.09 4.04 2.09 4.04s2.72-1.25 3.1-3.5c.38-2.25-.62-3.46-.62-3.46l-2.34-.49Z"/>
      <path fill="#f7c8ac" d="M271.21 36.79c.05 1.22 1.26 2.75 2.4 2.69 1.14-.05 2.2-1.74 2.15-2.96-.06-1.21-1.21-1.49-2.34-1.44-1.14.05-2.26.49-2.2 1.7Z"/>
      <path fill="#a04f03" d="M271.37 40.16c.05 1.21 1.26 2.74 2.4 2.69 1.14-.05 2.2-1.74 2.14-2.96-.05-1.22-1.21-1.49-2.34-1.44-1.14.05-2.26.49-2.2 1.7Z"/>
      <path fill="#a04f03" d="M271.52 43.53c.05 1.21 1.26 2.75 2.4 2.7 1.14-.05 2.2-1.74 2.15-2.96-.05-1.21-1.21-1.49-2.34-1.44-1.14.05-2.26.49-2.2 1.7Z"/>
      <path fill="#a04f03" d="M271.67 46.91c.05 1.21 1.26 2.75 2.4 2.69 1.14-.05 2.2-1.74 2.14-2.96-.05-1.21-1.21-1.49-2.34-1.44-1.14.05-2.26.49-2.2 1.7Z"/>
      <path fill="#a04f03" d="M271.82 50.28c.05 1.21 1.26 2.75 2.4 2.69 1.13-.05 2.2-1.74 2.14-2.96-.05-1.21-1.21-1.49-2.34-1.44-1.14.05-2.26.49-2.2 1.7Z"/>
      <path fill="#31a9a0" d="m273 52.46 2.38-.11.06 1.26-2.39.1z"/>
      <path fill="#a04f03" d="M275.44 53.63s2.09 1.52 1.65 3.73c-.43 2.21-2.72 3.65-2.72 3.65s-2.48-1.67-2.49-3.96c0-2.29 1.17-3.31 1.17-3.31l2.38-.11ZM261.13 41.27c-3.23-3.32-4.86-8.34-3.36-14.61.68-2.95 3.46-5.52 4.5-6.22 4.57-3.1 11.9-2.16 15.56.8 5.87 4.77 3.16 13.64 1.4 16.32-1.02 1.55-1.62.79-1.52 1.04.68 1.66-13.59 5.73-16.57 2.67Z"/>
      <path fill="#f7c8ac" d="m271.59 51.28-7.33-.58.31-4.46.19-2.7 7.34.52-.06.88-.13 1.75-.21 3.05-.11 1.54z"/>
      <path fill="#ffcc9c" d="m260.8 38.23-.14.17a.99.99 0 0 1-.68.3c-.11 0-.22 0-.33-.03a1.72 1.72 0 0 1-.21-.07c-.43-.19-.8-.63-.94-1.2-.21-.83.13-1.62.76-1.83l.1-.03c.7-.16 1.44.41 1.67 1.28.14.53.04 1.05-.21 1.41ZM276.75 37.91c-.34.83-.07 1.71.59 1.96.67.26 1.48-.21 1.82-1.04.34-.83.07-1.71-.59-1.96-.67-.26-1.49.21-1.83 1.04Z"/>
      <path fill="#f7c8ac" d="M278.67 35.75v.08c-.06.32-.14.63-.23.95l-.02.07c-.27.98-.66 1.93-1.14 2.83l-.08.17-.35.6-.11.19-.19.29c-.63.96-1.36 1.83-2.15 2.58-.75.72-1.71 1.16-2.56 1.6l-.18.09c-1.22.64-2.33 1.15-3.56 1.07a3.1 3.1 0 0 1-.44-.06c-.12-.02-.24-.06-.36-.1a6.37 6.37 0 0 1-1.16-.54l-.06-.03a5.58 5.58 0 0 1-.33-.19l-.75-.48-.04-.02c-.92-.59-1.81-1.11-2.57-2.06a14.65 14.65 0 0 1-1.9-3.16l-.1-.23-.05-.11-.26-.65-.04-.13a15.18 15.18 0 0 1-.82-4.09l-.01-.32v-.48l.02-.6.06-.66c.05-.44.12-.87.21-1.28 1.04-4.91 4.66-7.55 10.15-7.17 6.17.43 9.64 4.34 9.22 10.48l-.04.48c-.03.3-.08.6-.14.89Z"/>
      <path fill="#eda56b" d="M267.35 37.31c.15.24.39.43.7.56.31.13 1.89.26 2.23.18.36-.08.68-.24.96-.43.01.25-.19.62-.61.79-.21.09-.47.15-.75.17a8.54 8.54 0 0 1-1.61-.13 2.45 2.45 0 0 1-.65-.27c-.34-.23-.43-.64-.27-.87Z"/>
      <path fill="#98774c" d="M266.12 31.5c-.04.09-.14.13-.23.08a7.95 7.95 0 0 0-2.34-.77 4.89 4.89 0 0 0-2.48.38c-.1.04-.27.11-.32.04-.05-.08.01-.17.11-.22.41-.22.83-.39 1.28-.52.44-.12.92-.19 1.39-.17.93.03 1.8.28 2.63.63.1.04.15.16.11.26l-.15.3ZM272.32 31.19a.2.2 0 0 0-.15.24l.1.32c.03.1.12.15.21.11.78-.24 1.6-.44 2.42-.44.82 0 1.66.29 2.4.73.09.05.25.15.32.08.06-.07.01-.16-.08-.23a5.67 5.67 0 0 0-2.54-1.06"/>
      <path fill="#ad5603" d="M270.44 18.98c10.62 1.1 9.25 12.14 9.25 12.14l-6.7-.58-.38-2.22-.2 2.16-2.07-.19.17-2.58-.82 2.52-5.1-.47.2-2.16-1.04 2.09-2.12-.19.89-2.45-1.64 2.38-1.95-.18s.28-11.43 11.51-10.27Z"/>
      <path fill="#d9a993" d="m272.35 49.91-.65-.17-.26-.07c-5.46-1.64-6.56-4.96-6.59-5.07l.03.02.8.49a6.02 6.02 0 0 0 .41.23c.4.22.81.41 1.23.54.13.04.26.08.38.1l.47.07c1.3.09 2.47-.42 3.76-1.05l.09-.04-.12 1.75.59.28c0 .72.01 1.87-.15 2.94Z" opacity=".5"/>
      <path fill="#faf4e8" d="M262.2 33.61s1.29-1.32 2.7-.87c1.41.44 1.48 2.13 1.24 2.34-.24.21-3.48.59-3.95-1.46Z"/>
      <path fill="#7d2f05" d="M266.25 34.51s-.14-1.52-1.52-1.71c-1.42-.2-1.85.53-2.53.81-.42.17-.84-.43-.72-.87.35.27.56.33 1.06.11.5-.22 3.37-1.46 3.71 1.66Z"/>
      <path fill="#4a3c33" d="M265.66 33.97a1.29 1.29 0 0 1-1.37 1.19c-.73-.03-1.3-.61-1.28-1.29.03-.69.64-1.22 1.37-1.19.73.03 1.3.61 1.27 1.29Z"/>
      <path fill="#fff" d="M264.44 33.55c0 .24-.21.43-.45.42a.43.43 0 0 1-.42-.45c0-.24.21-.42.45-.42.24.01.42.21.42.45Z"/>
      <path fill="#faf4e8" d="M276.18 34.01s-1.18-1.41-2.63-1.08c-1.44.34-1.64 2.01-1.42 2.23.22.22 3.43.85 4.05-1.16Z"/>
      <path fill="#7d2f05" d="M272.08 34.6s.25-1.5 1.64-1.59c1.43-.09 1.8.67 2.46 1 .4.2.86-.36.79-.81-.37.25-.58.29-1.07.03-.49-.26-3.25-1.72-3.83 1.37Z"/>
      <path fill="#4a3c33" d="M272.71 34.1c-.03.68.54 1.26 1.27 1.29.73.03 1.34-.5 1.37-1.19a1.28 1.28 0 0 0-1.27-1.29 1.29 1.29 0 0 0-1.37 1.19Z"/>
      <path fill="#fff" d="M273.14 33.75c0 .24.18.44.42.45.24 0 .44-.18.45-.42a.44.44 0 0 0-.42-.45.44.44 0 0 0-.45.42ZM272.41 41.19l-7.28-.32s1.1 3.05 3.55 2.94c2.45-.11 3.73-2.62 3.73-2.62Z"/>
    </g>
  </g>
</svg>
