<svg xmlns="http://www.w3.org/2000/svg" xmlns:xlink="http://www.w3.org/1999/xlink" viewBox="0 0 368 180">
  <defs>
    <linearGradient id="linear-gradient" x1="460.49" x2="460.49" y1="54.09" y2="45.51" gradientTransform="translate(727) rotate(-180) scale(1 -1)" gradientUnits="userSpaceOnUse">
      <stop offset="0" stop-color="#de7e46"/>
      <stop offset="1" stop-color="#d67242"/>
    </linearGradient>
    <linearGradient id="linear-gradient1" x1="460.73" x2="460.02" y1="96.68" y2="55.71" gradientTransform="translate(727) rotate(-180) scale(1 -1)" gradientUnits="userSpaceOnUse">
      <stop offset="0" stop-color="#e99036"/>
      <stop offset=".26" stop-color="#f29d38"/>
      <stop offset=".64" stop-color="#fba93a"/>
      <stop offset="1" stop-color="#feae3b"/>
    </linearGradient>
    <linearGradient id="linear-gradient2" x1="180.56" x2="185.63" y1="38.95" y2="38.95" gradientUnits="userSpaceOnUse">
      <stop offset="0" stop-color="#d67242"/>
      <stop offset="1" stop-color="#de7e46"/>
    </linearGradient>
    <linearGradient id="linear-gradient3" x1="446.43" x2="454.91" y1="19.28" y2="29.16" gradientTransform="translate(727) rotate(-180) scale(1 -1)" gradientUnits="userSpaceOnUse">
      <stop offset="0" stop-color="#62372e"/>
      <stop offset="1" stop-color="#542d24"/>
    </linearGradient>
    <linearGradient id="linear-gradient4" x1="464.86" x2="473.64" y1="26.55" y2="17.07" gradientTransform="translate(727) rotate(-180) scale(1 -1)" gradientUnits="userSpaceOnUse">
      <stop offset="0" stop-color="#542d24"/>
      <stop offset="1" stop-color="#62372e"/>
    </linearGradient>
    <linearGradient xlink:href="#linear-gradient1" id="linear-gradient5" x1="467.01" x2="471.34" y1="25.91" y2="25.91"/>
    <linearGradient xlink:href="#linear-gradient1" id="linear-gradient6" x1="462.79" x2="466.99" y1="22.14" y2="22.14"/>
    <linearGradient xlink:href="#linear-gradient1" id="linear-gradient7" x1="465.98" x2="468.07" y1="24.06" y2="24.06"/>
    <linearGradient xlink:href="#linear-gradient1" id="linear-gradient8" x1="448.81" x2="453.07" y1="26.71" y2="26.71"/>
    <linearGradient xlink:href="#linear-gradient1" id="linear-gradient9" x1="452.94" x2="457.01" y1="22.57" y2="22.57"/>
    <linearGradient xlink:href="#linear-gradient1" id="linear-gradient10" x1="451.9" x2="454.04" y1="24.69" y2="24.69"/>
    <linearGradient xlink:href="#linear-gradient2" id="linear-gradient11" x1="450.79" x2="450.79" y1="41.5" y2="35.83" gradientTransform="translate(727) rotate(-180) scale(1 -1)"/>
    <linearGradient xlink:href="#linear-gradient2" id="linear-gradient12" x1="470.3" x2="470.3" y1="41.5" y2="35.83" gradientTransform="translate(727) rotate(-180) scale(1 -1)"/>
    <linearGradient xlink:href="#linear-gradient2" id="linear-gradient13" x1="460.75" x2="460.75" y1="46.66" y2="24.43" gradientTransform="translate(727) rotate(-180) scale(1 -1)"/>
    <clipPath id="clippath">
      <path fill="none" d="m175.71 45.38 1.86 5.93s3.86.25 4.43.09c.57-.16-1.77-4.91-1.31-7.74.25-1.54-4.43 1.29-4.98 1.72Z"/>
    </clipPath>
  </defs>
  <g>
    <g id="Layer_2">
      <path fill="#4a4a4a" d="m71.63 72.94 15-1.1.6-.04 103.98-7.6 21.31-1.55 74.55-5.45a4.28 4.28 0 0 0 3.91-3.54l4.46-25.76a4.29 4.29 0 0 0-4.17-5.02l-72.45-.83-21.03-.27-22.31-.28a97.56 97.56 0 0 0-49.73 12.9L87.23 56.45l-.6.34-16.96 9.71c-3.18 1.82-1.7 6.7 1.96 6.43Z"/>
      <path fill="#4a4a4a" d="M70.37 69.76c.07.23.28.79.98.79h.11l15.48-1.13V59.4l-16.07 9.21c-.58.32-.58.82-.49 1.17Z"/>
      <path fill="#b9d9eb" d="M86.94 59.39v10.02l19.12-1.39 3.4-.25 5.64-.41 38.24-2.79 57.64-4.21 55.35-4.04 20.58-1.5a1.9 1.9 0 0 0 1.72-1.56l4.05-23.33.42-2.43c.13-.75-.2-1.27-.41-1.53a1.87 1.87 0 0 0-1.43-.68l-44.77-.52-27.69-.32-21.03-.26-4.09-.05-18.22-.23h-1.21a95.4 95.4 0 0 0-47.3 12.58l-13.19 7.55-3.75 2.15L86.94 59.4Z"/>
      <path fill="#b9d9eb" d="M86.94 59.39v10.02l19.12-1.39 3.4-.25 5.64-.41 38.24-2.79 57.64-4.21 55.35-4.04 20.58-1.5a1.9 1.9 0 0 0 1.72-1.56l4.05-23.33.42-2.43c.13-.75-.2-1.27-.41-1.53a1.87 1.87 0 0 0-1.43-.68l-44.77-.52-27.69-.32-21.03-.26-4.09-.05-18.22-.23h-1.21a95.4 95.4 0 0 0-47.3 12.58l-13.19 7.55-3.75 2.15L86.94 59.4Z"/>
      <path fill="#b9d9eb" d="m266.32 56.31 20.58-1.5a1.9 1.9 0 0 0 1.72-1.56l4.05-23.33-26.35 26.39ZM153.33 64.56l57.64-4.21 35.52-35.59-27.69-.31-21.03-.27-4.09-.05-40.35 40.43zM86.94 59.39v10.02l19.12-1.39 3.4-.25 5.64-.41 41.77-41.85a95.35 95.35 0 0 0-29.92 10.98l-13.19 7.55-3.75 2.15L86.94 59.4Z"/>
      <path fill="url(#linear-gradient)" d="M263.19 50.77a3.32 3.32 0 0 0 6.64 0c0-.12 0-.23-.02-.35l-.31-3.19c-.06-.74-.11-1.39-.11-1.73h-5.78c0 .34-.05.98-.11 1.72a148.42 148.42 0 0 1-.33 3.55Z"/>
      <g>
        <path fill="#d77443" d="M275.89 68.92c.03.19.09.38.16.55l4.47 11.01c.25.61.9.99 1.58.87a1.42 1.42 0 0 0 1.15-1.66v-.03L280.9 68a2.54 2.54 0 0 0-5 .91Z"/>
        <path fill="#d77443" d="m273.89 60.32.03.14.02.1.04.19.72 3.09 1.21 5.2v.05a2.56 2.56 0 0 0 2.9 1.93 2.54 2.54 0 0 0 2.1-2.91l-.02-.11-1.16-5.59-.47-2.25-.16-.76v-.07a2.66 2.66 0 0 0-5.21 1.01Z"/>
        <path fill="#8c3573" d="m273.98 60.74.72 3.09c.8-.12 2.76-.5 5.02-1.42l-.47-2.25-.83-.13h-1.84l-1.53.26-1.07.45Z" opacity=".3"/>
        <g>
          <path fill="#c4633a" d="M280.64 90.15c0 .09.02.18.06.24.05.07.12.11.22.11a.8.8 0 0 0 .23-.05l1.43-1.88.3-.39v-1.21c-.71 1.61-2.24 2.48-2.24 3.18Z"/>
          <path fill="#8c3573" d="M280.7 90.39c.05.07.12.11.22.11a.8.8 0 0 0 .23-.05l1.43-1.88.29-.63c-.33.66-1.6 1.65-2.17 2.45Z" opacity=".3"/>
          <path fill="#c4633a" d="M280.61 91.07c0 .12.05.22.14.28a.4.4 0 0 0 .2.05c.15 0 .27-.07.38-.15l1.49-1.67.14-.16-.04-.61v-.16l-.05-.71c-.33.87-2.27 2.49-2.27 3.13Z"/>
          <path fill="#8c3573" d="M280.75 91.35a.4.4 0 0 0 .2.05c.15 0 .27-.07.38-.15l1.49-1.67.11-.77.04-.26-.04.09c-.59 1.21-1.77 2-2.17 2.7Z" opacity=".3"/>
          <path fill="#c4633a" d="M280.77 91.82s.02.24.26.24c.31 0 .67-.3.99-.62.28-.3.52-.63.65-.78l.29-2.1c-.12.33-.28.63-.47.9-.71 1.07-1.72 1.75-1.72 2.36Z"/>
          <path fill="#d77443" d="m280.43 80.21.05.18c.24.75.28 1.24.17 1.82-.4 2.27.48 3.05.48 4.12 0 .39-.1.76-.1 1.15s.18.86.53.86c.96 0 .72-1.61.93-2.6-.01.19 0 .39.02.61.06.61.2 1.34.2 2.39 0 2.33-.77 2.48-.77 3.39 0 .64.57.68.75.3a29.78 29.78 0 0 0 1.66-4.46c.2-.69.24-1.42.12-2.12-.35-2.06-.92-4.08-1.24-6.15a1.42 1.42 0 0 0-1.66-1.15c-.78.14-1.29.88-1.15 1.66Z"/>
          <path fill="#8c3573" d="M282.52 86.35c.05-.4.19-1.1.2-1.15-.11.13-.17.32-.22.54-.01.19 0 .39.02.61Z" opacity=".3"/>
        </g>
        <path fill="#feae3b" d="m272.46 54.57 1.21 7.62.1.66c.03.19.22.32.41.28a34.16 34.16 0 0 0 7.11-2.46.35.35 0 0 0 .17-.42l-.29-.87-2.14-6.45v-.02a3.39 3.39 0 0 0-6.57 1.65Z"/>
        <path fill="#fecf79" d="m273.67 62.19.1.66c.03.19.22.32.41.28a34.16 34.16 0 0 0 7.11-2.46.35.35 0 0 0 .17-.42l-.29-.87a31 31 0 0 1-7.51 2.8Z"/>
        <path fill="#af5518" d="M270.76 48.91s-.8-.44-2.83-.36v2.76h2.83v-2.4ZM262.26 48.91s.8-.44 2.83-.36v2.76h-2.83v-2.4Z"/>
        <path fill="#da7844" d="M264.43 48.18c.57-.46 1.29-.73 2.08-.73s1.51.27 2.08.73c1.09.83 1.85 1.21 2.75 1.7v3.34h-9.65v-3.34c.9-.49 1.66-.87 2.75-1.7Z"/>
        <path fill="#feae3b" d="m248.32 54.69 1.08.2.21.04 5.19.96c1.26.27 2.51.54 3.76.84l.77-3.98a3.83 3.83 0 0 0-2.7-4.28s-4.05-1.19-4.05-1.19l-.31-.09-1.04-.31a430.1 430.1 0 0 0-2.91 7.81Z"/>
        <path fill="url(#linear-gradient1)" d="M257.97 65.95a88.98 88.98 0 0 1-3.36 16.67.3.3 0 0 0 .13.35c5.8 4.71 17.7 4.68 23.53 0a.3.3 0 0 0 .13-.35l-.17-.55a89.9 89.9 0 0 1-3.19-16.11l-.03-1.62c-.06-4.63.16-9.55 1.96-13.53a66.45 66.45 0 0 0-6.22-1.89c-.37 1.76-2.35 2.51-4.25 2.51s-3.88-.75-4.25-2.51l-.38.1c-.7.19-1.44.21-2.16.06-1.12-.23-2.25-.4-3.36-.67 1.25 4.49 1.61 12.54 1.61 17.55Z"/>
        <g opacity=".25">
          <path fill="#8c3573" d="M278.16 81.84c-5.56 4.27-14.48 4.73-20.71 1.68-.93-.46-1.8-1.03-2.58-1.72.76.71 1.63 1.3 2.55 1.79 6.22 3.17 15.25 2.7 20.74-1.75Z"/>
        </g>
        <path fill="#dc8531" d="M274.32 58.48c.2 2.47.44 4.98.73 7.48l-.03-1.62-.7-5.86ZM261.41 49.11c.75 3.34 5.65 3.94 8.24 2.5a3.66 3.66 0 0 0 1.94-2.48 3.75 3.75 0 0 1-2 2.37c-2.59 1.35-7.29.82-8.19-2.4Z"/>
        <g>
          <path fill="#f8fafe" d="M266.51 68.98c-3.15 2.37-6.34.73-6.34-1.85 0-1.97 2.23-3.49 1.63-4.84a4.21 4.21 0 0 1-.41-1.72c0-1.35.89-2.29 1.86-2.29 1.34 0 1.17 1.88 1.23 2.87a4.8 4.8 0 0 1 2.03-.37c.69 0 1.42.08 2.03.37.06-.99-.11-2.87 1.23-2.87.97 0 1.86.94 1.86 2.29 0 .59-.17 1.17-.41 1.72-.6 1.34 1.63 2.86 1.63 4.84 0 2.57-3.19 4.22-6.34 1.85Z"/>
          <path fill="#7d402d" d="M266.49 65.61c-.64 0-1.15.42-1.14.91.01.5.54.89 1.18.88.64 0 1.15-.42 1.14-.91s-.54-.89-1.18-.88ZM264.5 67.93a2.99 2.99 0 0 0 4.01 0l-.22.15a3.6 3.6 0 0 1-3.79-.15Z"/>
          <path fill="#fecf79" d="m260.66 71.66-.16-.38c4.05.63 8.01.34 12.07 0l-.06.16a1.3 1.3 0 0 1-1.1.8c-3.29.26-6.6.42-9.88.05a1.08 1.08 0 0 1-.87-.63Z"/>
          <path fill="#fdad3b" d="M269.6 61.48a1.84 1.84 0 0 0-.33-.03c-1.02 0-1.7 1.02-1.7 2 0 1.38 1.47 1.91 2.64 1.91.54 0 1.04-.17 1.04-.81 0-.84-.77-1.48-.81-2.39l-.84-.68Z"/>
          <path fill="#7d402d" d="M269.39 65.07c.08.69.29 1.2.47 1.16.18-.05.26-.64.18-1.32-.08-.69-.29-1.2-.47-1.16s-.26.64-.18 1.32Z"/>
          <path fill="#f5406a" d="M270.75 66.95c-.27-.09-.56-.01-.66.18-.1.19.04.42.31.51.27.09.56.01.66-.18.1-.19-.04-.42-.31-.51Z"/>
          <path fill="#fdad3b" d="m263.41 61.48.33-.03c1.02 0 1.7 1.02 1.7 2 0 1.38-1.47 1.91-2.64 1.91-.54 0-1.04-.17-1.04-.81 0-.84.77-1.48.81-2.39l.84-.68Z"/>
          <path fill="#7d402d" d="M263.63 65.07c-.08.69-.29 1.2-.47 1.16-.18-.05-.26-.64-.18-1.32.08-.69.29-1.2.47-1.16.18.05.26.64.18 1.32Z"/>
          <path fill="#f5406a" d="M262.27 66.95c.27-.09.56-.01.66.18.1.19-.04.42-.31.51s-.56.01-.66-.18c-.1-.19.04-.42.31-.51Z"/>
          <path fill="#7d402d" d="M270.31 62.48c-1.11-.02-1.97-3.68-.28-3.64 1.7.04 1.4 3.67.28 3.64ZM262.7 62.48c1.11-.02 1.97-3.68.28-3.64-1.7.04-1.4 3.67-.28 3.64Z"/>
        </g>
        <path fill="#dc8531" d="M275.05 65.96c0-4.78-.03-9.69 1.58-14.26l.35-.9c-2.17 4.72-2.13 10.07-1.93 15.16ZM258.7 58.48c-.2 2.47-.44 4.98-.73 7.48l.03-1.62.7-5.86Z"/>
        <path fill="#dc8531" d="M256.36 48.4c.35 1.43.6 2.88.78 4.34.46 3.65.66 7.33.77 11l.06 2.21c.06-2.95-.04-5.89-.25-8.83a45.76 45.76 0 0 0-1.36-8.72Z"/>
      </g>
      <path fill="#452217" d="M199.33 49.38c1.77-3.42-3.61-5.47-1.72-8.73 1.89-3.27-3.47-4.61-3.28-7.37.21-2.94-3.34-5.79-3.34-5.79l-2.41-4.57c-3.37-4.34-8.93-3.8-8.93-3.8-2.39-1.11-5.99-.74-8.68 1.76l-4.07 2.65s-3.76 2.84-3.09 4.64c.96 2.59-3.93 3.51-3 7.16.93 3.65-3.68 4.57-2.94 8.35 1.23 6.34-10.43 9.51 2.41 15.7 5.92 2.85 11.48-1.1 14.58-1.01 3.01.75 13.88 5.85 20.26 4.3 9.37-2.28 1.2-7.46 4.21-13.29Z"/>
      <path fill="#ab6b50" d="M188.43 51.24c.52-.27.5-1.33.24-1.59-2.1-1.29-4.73-3.1-2.68-4.99 1.54-1.35 4.17.2 5.96-1.68a15.34 15.34 0 0 0 2.62-4.15 4.76 4.76 0 0 0-4-4.81 4.7 4.7 0 0 0-5.31 4.03l-1.1 7.69a4.8 4.8 0 0 0 2.39 4.86c-2.77.55-4.48 1.83-4.48 1.83l-2.53 17.16v.7l3.05.04c-.52-7.08-1.04-15.77 5.86-19.08Z"/>
      <path fill="#be7759" d="M191.94 42.97c-1.79 1.88-4.42.34-5.96 1.68-2.05 1.89.58 3.7 2.68 4.99.26.26.28 1.32-.24 1.59-6.9 3.31-6.37 12-5.86 19.08l9.15.12s2.27-16.89-1.03-19.68a4.77 4.77 0 0 0 2.72-3.65l1.1-7.69c.03-.2.04-.4.04-.6a15.34 15.34 0 0 1-2.62 4.15Z"/>
      <g>
        <g>
          <path fill="#d77443" d="M140.98 61.07c-.95-.17-2.65-3.31-3.76-4.01-1.11-.7-4.24-2.51-4.62-2.47-.38.04.02 1.24 1.22 1.93a7.03 7.03 0 0 1 2.03 1.89s-3.51-1.87-4.72-1.43c-1.2.45 2.16 1.72 2.7 2.38.54.66-3.34-.96-3.41-.18-.07.78 3.01 1.62 3.24 2.01.23.39-2.37-.3-2.49.54-.12.84 2.93 1.17 3.44 1.62.52.46 3.58 3 5.11 2 0 0 4.05.71 5.72.97l.44-4.33-4.91-.92Z"/>
          <g opacity=".5">
            <path fill="#b34627" d="M138.13 63.62s-.1 0-.14-.05a6 6 0 0 1-1.18-2.84c-.33-.24-1.64-1.23-1.74-1.96a.55.55 0 0 1 .11-.42c.56-.71 2.5.9 3.08 1.42.06.06.07.16.02.23a.14.14 0 0 1-.21.02c-1.08-.96-2.4-1.79-2.65-1.46a.2.2 0 0 0-.04.16c.07.54 1.22 1.46 1.66 1.77.04.03.06.07.07.11 0 .02.21 1.73 1.11 2.73.06.07.06.17 0 .23l-.07.04Z"/>
          </g>
        </g>
        <path fill="#74aa50" d="m168.33 54.1-12.89 7.25-10.95.46-.08 3.95 11.67-.02c.13-.06.24-.14.36-.22l14.62-8.04c.15-.11.28-.23.4-.36.74-.81.86-1.96.21-2.76-.75-.93-2.25-1.04-3.34-.25Z"/>
      </g>
      <path fill="#86533d" d="M139.37 72.57c-.97.66-2.3.4-2.95-.59l-12.11-18.32a2.2 2.2 0 0 1 .58-3c.97-.66 2.3-.4 2.95.59l12.11 18.32a2.2 2.2 0 0 1-.58 3Z"/>
      <path fill="#62676b" d="M86.28 64.93s29.38-11.38 32.34-10.9c2.96.48 15.65 13.87 15.65 13.87l-48.52 3.19.53-6.16Z"/>
      <path fill="#d77443" d="m175.92 45.97 2.17 6.96s3.19-1.26 3.63-1.65c.44-.4-1.5-6.12-1.03-7.61.47-1.49-4.47 1.68-4.77 2.31Z"/>
      <path fill="#d77443" d="M168.96 52.53c4.3-1.07 7.83-3.75 12.47-3.63-4.53-.39-8.09.91-12.47 3.63Z"/>
      <path fill="#74aa50" d="M178.02 69.82c-.95-4.26 12.27-13.2 3.42-20.92-4.64-.12-8.17 2.56-12.47 3.63l-.18.11c-1.75 1.5-3.14 3.26-3.75 5.02-2.38 6.88-1.35 10.58-2.43 14.8-.96 3.76-2.94 7.21-3.95 10.24 6.62 2.35 16.62 5.05 23.52 3.29.73-7.1-3.31-12.42-4.15-16.17Z"/>
      <path fill="#728097" d="m159.55 69.47-2.21-3.42-.1.09.32-.35c10.01-11.15 26.64-19.65 37.59-24.41l-.1 4.42c-15.22 6.61-27.25 14.54-34.81 22.95-.34.38-.5.56-.7.72Z"/>
      <path fill="none" d="M87.25 59.44v9.98l19.11-1.39 3.4-.25 5.63-.41 38.21-2.78 57.6-4.19 55.31-4.03 20.57-1.5c.86-.07 1.57-.7 1.71-1.55l4.05-23.24.42-2.42c.13-.74-.2-1.27-.41-1.52a1.9 1.9 0 0 0-1.43-.68l-44.73-.51-27.67-.32-21.02-.26-4.09-.05-18.21-.23h-1.21a95.54 95.54 0 0 0-47.26 12.53l-13.18 7.52-3.75 2.14-23.06 13.15Z"/>
      <path fill="#4a4a4a" d="M258.63 152.6h-90.58l-40.74-5.61h131.32v5.61zM74.19 53.86l-4.39-.79-12.39 7.35v3.82l16.78-10.38zM288.75 12.92c.23 0 .44-.13.54-.35L294.68.85a.6.6 0 0 0-.29-.79.6.6 0 0 0-.79.29l-5.39 11.72a.6.6 0 0 0 .29.79c.08.04.17.05.25.05Z"/>
      <path fill="#4a4a4a" d="M288.45 11.92c1.6 0 2.89 1.29 2.89 2.89v.1h-5.79v-.1a2.9 2.9 0 0 1 2.89-2.89Z"/>
      <path fill="#ba0c2f" d="M355.72 100.2v49.85h7.72a4.56 4.56 0 0 0 4.57-4.56v-35.23a10.07 10.07 0 0 0-10.08-10.06h-2.2Z"/>
      <path fill="#ba0c2f" d="M.07 105.92v40.43a3.69 3.69 0 0 0 3.69 3.69H360.2V74.37c0-.64-.05-1.26-.15-1.87L4.49 88.8a35.18 35.18 0 0 0-4.41 17.12Z" opacity=".25"/>
      <path fill="#ba0c2f" d="M.07 141.34v5.47a3.24 3.24 0 0 0 3.24 3.24h360.11a4.57 4.57 0 0 0 4.57-4.56v-20.07l-7.79.34-4.49.2-273.47 11.91-63.8 2.93-18.37.55Z" opacity=".25"/>
      <path fill="#4a4a4a" d="m314.87 23.04 26.15 39.36h8.46l-1.19-1.8-7.97-12.01-14.14-21.29a31.87 31.87 0 0 0-3.71-4.28h-7.6Z"/>
      <path fill="#b9d9eb" d="m318.22 24.84 23.77 35.77h6.3l-22.12-33.29a31.87 31.87 0 0 0-2-2.48h-5.96Z"/>
      <path fill="#4a4a4a" d="m191.22 64.2 10.71-.78.3-.03 10.3-.74 6.31-40.6-10.41-.14h-.61l-10.02-.13-6.58 42.42zM106.06 68.02l3.4-.26 4.3-23.72-3.75 2.14-3.95 21.84z"/>
      <path fill="#ba0c2f" d="M0 105.93v39.51a4.61 4.61 0 0 0 4.61 4.61h355.52V74.38c0-6.61-5.36-11.97-11.99-11.97l-7.9-13.8-14.14-21.29a31.87 31.87 0 0 0-3.71-4.28h1.8a33.4 33.4 0 0 0-23.28-9.45H172.29c-21.76 0-43.1 5.9-61.76 17.07L57.54 62.4l-32.09 9.49a35.27 35.27 0 0 0-14.84 8.75A35.46 35.46 0 0 0 0 105.93Zm69.72-39.42 16.95-9.68.6-.34 38.49-21.96a97.78 97.78 0 0 1 49.7-12.85l22.29.28 10.01.13h.61l10.4.14 72.4.83a4.26 4.26 0 0 1 4.16 5l-4.46 25.66a4.25 4.25 0 0 1-3.91 3.52l-74.5 5.43-21.3 1.55-103.91 7.57-.6.04-14.99 1.09c-3.66.26-5.14-4.6-1.96-6.41Z"/>
      <path fill="#993a34" d="M87.22 56.52v-.88a8 8 0 0 1 4.03-6.94l31.67-18.07a97.58 97.58 0 0 1 48.3-12.81h1.23l43.31.54 80.5.83a7.38 7.38 0 0 1 7.23 6.18l6.19 36.86a50.03 50.03 0 0 1-17.9 47.35 15.89 15.89 0 0 0-5.9 12.39v11.78a8 8 0 0 1-8.01 7.99H95.88a8.66 8.66 0 0 1-8.66-8.64V71.81l-.6.04v61.24c0 5.1 4.15 9.24 9.26 9.24h182.01a8.6 8.6 0 0 0 8.61-8.59v-11.78c0-4.65 2.07-9 5.68-11.93a50.63 50.63 0 0 0 18.12-47.91l-6.19-36.86a7.98 7.98 0 0 0-7.82-6.67l-80.5-.83-43.31-.54a98.19 98.19 0 0 0-49.84 12.88L90.97 48.17a8.63 8.63 0 0 0-4.33 7.47v1.22l.6-.34Z"/>
      <path fill="#d98307" d="M339.23 80.79v2.8c0 5.81 4.08 10.83 9.77 12.02l11.21 2.34V76.86h-17.04a3.93 3.93 0 0 0-3.94 3.93Z"/>
      <path fill="#993a34" d="m207.72 22.11.6.01.62-4.1-.6-.1-.62 4.19z"/>
      <path fill="#3c3c3c" d="m201.54 63.41.29.04.3.05.01-.07 6.18-41.31-.6-.01-6.18 41.3z"/>
      <path fill="#993a34" d="m196 142.01 5.54-78.58.6.04-5.54 78.59zM287.94 69.38l11.03-.76a3.68 3.68 0 1 0-.51-7.34l-11.03.76a3.68 3.68 0 1 0 .51 7.34Z"/>
      <path fill="#878e94" d="M296.19 65.13a3 3 0 0 1-5.97.41 3 3 0 0 1 5.97-.41Z"/>
      <path fill="#b5bec3" d="m299.42 66.66-12.19.84a1.56 1.56 0 1 1-.21-3.11l12.19-.84a1.56 1.56 0 1 1 .21 3.11Z"/>
      <path fill="#993a34" d="m181.34 77.49 11.03-.76a3.68 3.68 0 1 0-.51-7.34l-11.03.76a3.68 3.68 0 1 0 .51 7.34Z"/>
      <path fill="#878e94" d="M189.59 73.24a3 3 0 0 1-5.97.41 3 3 0 0 1 5.97-.41Z"/>
      <path fill="#b5bec3" d="m192.82 74.78-12.19.84a1.56 1.56 0 1 1-.21-3.11l12.19-.84a1.56 1.56 0 1 1 .21 3.11Z"/>
      <path fill="#a8433d" d="M6.34 142.04h3a1.5 1.5 0 0 0 1.51-1.51v-18.7a1.54 1.54 0 0 0-2.48-1.21l-1.97 1.52a5.54 5.54 0 0 0-2.15 4.37v13.47c0 1.15.93 2.07 2.08 2.07Z"/>
      <path fill="#d5e0e6" d="M10.86 139.35h-2.5a1.84 1.84 0 0 1-1.84-1.84v-6.49c0-1.02.82-1.84 1.84-1.84h2.5v10.17Z"/>
      <path fill="#d5e0e6" d="M10.86 129.18h-.97c-.73 0-1.33-.59-1.33-1.33v-2.13c0-.73.59-1.33 1.33-1.33h.97v4.79Z"/>
      <path fill="#ba0c2f" d="M90.57 64.43v2.18a5.54 5.54 0 0 0 5.53 5.53h5.83a6.57 6.57 0 0 0 6.56-5.73 6.62 6.62 0 0 0-6.56-7.49H96.1a5.54 5.54 0 0 0-5.53 5.53Z"/>
      <path fill="#545454" d="M98.46 68.71v3.42h3.47a6.57 6.57 0 0 0 6.56-5.73h-7.72a2.3 2.3 0 0 0-2.31 2.31Z"/>
      <path fill="#f4a025" d="M349.32 87.15v1.62a6.79 6.79 0 0 0 6.8 6.78h4.09v-8.4h-10.89Z"/>
      <path fill="#ffb242" d="M345.09 80.94v4.56c0 1.82 1.2 3.42 2.96 3.93l12.15 3.51V78.41h-12.57a2.54 2.54 0 0 0-2.54 2.54Z"/>
      <path fill="#993a34" d="m338.8 122.04 11.43-26.24.55.24-11.43 26.24zM35.43 120.16l.51-.32-15.17-23.97-.51.32 15.17 23.97z"/>
      <path fill="#3c3c3c" d="M17.16 150.05h67.37a33.7 33.7 0 0 0-67.37 0Z"/>
      <g>
        <ellipse cx="50.84" cy="150.05" fill="#4a4a4a" rx="30" ry="29.95"/>
        <ellipse cx="50.84" cy="150.05" fill="#b5bec3" rx="21.79" ry="21.76"/>
        <path fill="#62676b" d="M30.92 150.05c0 2.75.56 5.37 1.58 7.75a19.83 19.83 0 0 0 22.81 11.63A20 20 0 0 0 69.2 157.8a19.87 19.87 0 0 0 1.57-7.75c0-.34 0-.68-.03-1.02a19.71 19.71 0 0 0-5.31-12.53 19.64 19.64 0 0 0-14.58-6.35 19.67 19.67 0 0 0-14.58 6.35 19.74 19.74 0 0 0-5.34 13.55Z"/>
        <g fill="#878e94">
          <path d="m48.39 130.31.75 15.08.14 2.81.05.98.03.62h2.95v-.02l.03-.6.05-.98.14-2.81.75-15.08a19.9 19.9 0 0 0-4.9 0Z"/>
          <path d="m49.87 148.91.05.05.75.63.17.14.09.08.23.2.17.14.75.62.05.05h.01v-.02l.41-.44.67-.72 1.92-2.06 10.28-11.07a19.59 19.59 0 0 0-3.76-3.15l-9.13 12.04-1.7 2.24-.6.79-.37.48Z"/>
          <path d="M50.83 148.55v.07l.18.96.04.22.02.12.03.18.02.11.04.22.17.97v.06h.01l.6-.08.98-.12 2.79-.35 15.01-1.87a19.71 19.71 0 0 0-.85-4.82l-14.74 3.36-2.75.62-.96.22-.6.14h-.01Z"/>
          <path d="m50.32 151.45.51.33.83.54 2.36 1.52 12.71 8.2c.98-1.3 1.81-2.72 2.45-4.24l-13.47-6.89-2.5-1.28-.88-.45-.54-.28-.03.05-.5.86-.11.2-.06.1-.09.15-.06.1-.11.19-.49.85-.03.06Z"/>
          <path d="M49.54 150.79v.02l.18.57.29.94.83 2.68 4.46 14.43a18.8 18.8 0 0 0 4.61-1.67l-5.87-13.92-1.1-2.58-.38-.91-.24-.57-.05.02-.93.34-.21.07-.11.04-.17.07-.11.04-.21.07-.93.34-.05.02Z"/>
          <path d="M41.78 167.77a19.2 19.2 0 0 0 4.61 1.66l4.46-14.42.83-2.69.29-.94.18-.58-.06-.03-.92-.34-.21-.07-.11-.04-.16-.06-.12-.05-.21-.08-.93-.33-.05-.02v.02l-.24.56-.38.9-1.09 2.58-5.87 13.93Z"/>
          <path d="M32.49 157.8a19.43 19.43 0 0 0 2.45 4.24l12.71-8.2 2.36-1.52.83-.54.52-.33-.03-.06-.49-.85-.11-.19-.06-.1-.09-.15-.07-.11-.1-.19-.49-.85-.03-.06h-.01v.01l-.54.27-.88.45-2.49 1.28-13.47 6.89Z"/>
          <path d="m30.94 149.03 15.02 1.87 2.79.35.98.12.6.08h.01v-.06l.18-.96.03-.22.03-.12.03-.18.02-.11.03-.22.17-.96v-.07l-.6-.14-.96-.22-2.75-.62-14.74-3.36a19.25 19.25 0 0 0-.85 4.82Z"/>
          <path d="m36.25 136.5 10.28 11.07 1.92 2.06.68.73.42.45.05-.04.75-.64.17-.14.09-.08.14-.11.09-.08.17-.14.76-.64.04-.03v-.01l-.36-.48-.6-.79-1.7-2.24-9.13-12.04a19.59 19.59 0 0 0-3.76 3.15Z"/>
        </g>
        <ellipse cx="50.84" cy="150.05" fill="#b5bec3" rx="7.35" ry="7.34"/>
        <circle cx="50.84" cy="150.05" r="2.81" fill="none" stroke="#878e94" stroke-miterlimit="10" stroke-width="2.13"/>
        <g fill="#878e94">
          <path d="M51.68 145.21c0 .45-.37.82-.82.82s-.82-.37-.82-.82.37-.82.82-.82.82.37.82.82ZM55.45 148.35a.82.82 0 1 1-.82-1.42.82.82 0 0 1 .82 1.42ZM54.62 153.18a.82.82 0 1 1 .82-1.42.82.82 0 0 1-.82 1.42ZM50.01 154.88c0-.45.37-.82.82-.82s.82.37.82.82-.37.82-.82.82-.82-.37-.82-.82ZM46.23 151.74a.82.82 0 1 1 .82 1.42.82.82 0 0 1-.82-1.42ZM47.06 146.91a.82.82 0 1 1-.82 1.42.82.82 0 0 1 .82-1.42Z"/>
        </g>
      </g>
      <path fill="#3c3c3c" d="M286.55 150.05h67.37a33.7 33.7 0 0 0-67.37 0Z"/>
      <g>
        <ellipse cx="320.23" cy="150.05" fill="#4a4a4a" rx="30" ry="29.95"/>
        <ellipse cx="320.23" cy="150.05" fill="#b5bec3" rx="21.79" ry="21.76"/>
        <path fill="#71787d" d="M300.3 150.05c0 2.75.56 5.37 1.58 7.75a19.83 19.83 0 0 0 22.81 11.63 20 20 0 0 0 13.89-11.63 19.87 19.87 0 0 0 1.57-7.75c0-.34 0-.68-.03-1.02a19.71 19.71 0 0 0-5.31-12.53 19.64 19.64 0 0 0-14.58-6.35 19.67 19.67 0 0 0-14.58 6.35 19.74 19.74 0 0 0-5.34 13.55Z"/>
        <g fill="#878e94">
          <path d="m317.78 130.31.75 15.08.14 2.81.05.98.03.62h2.95v-.02l.03-.6.05-.98.14-2.81.75-15.08a19.9 19.9 0 0 0-4.9 0Z"/>
          <path d="m319.26 148.91.05.05.75.63.17.14.09.08.23.2.17.14.75.62.05.05h.01v-.02l.41-.44.67-.72 1.92-2.06 10.28-11.07a19.59 19.59 0 0 0-3.76-3.15l-9.13 12.04-1.7 2.24-.6.79-.37.48Z"/>
          <path d="M320.22 148.55v.07l.18.96.04.22.02.12.03.18.02.11.04.22.17.97v.06h.01l.6-.08.98-.12 2.79-.35 15.01-1.87a19.71 19.71 0 0 0-.85-4.82l-14.74 3.36-2.75.62-.96.22-.6.14h-.01Z"/>
          <path d="m319.71 151.45.51.33.83.54 2.36 1.52 12.71 8.2c.98-1.3 1.81-2.72 2.45-4.24l-13.47-6.89-2.5-1.28-.88-.45-.54-.28-.03.05-.5.86-.11.2-.06.1-.09.15-.06.1-.11.19-.49.85-.03.06Z"/>
          <path d="M318.93 150.79v.02l.18.57.29.94.83 2.68 4.46 14.43a18.8 18.8 0 0 0 4.61-1.67l-5.87-13.92-1.1-2.58-.38-.91-.24-.57-.05.02-.93.34-.21.07-.11.04-.17.07-.11.04-.21.07-.93.34-.05.02Z"/>
          <path d="M311.17 167.77a19.2 19.2 0 0 0 4.61 1.66l4.46-14.42.83-2.69.29-.94.18-.58-.06-.03-.92-.34-.21-.07-.11-.04-.16-.06-.12-.05-.21-.08-.93-.33-.05-.02v.02l-.24.56-.38.9-1.09 2.58-5.87 13.93Z"/>
          <path d="M301.88 157.8a19.43 19.43 0 0 0 2.45 4.24l12.71-8.2 2.36-1.52.83-.54.52-.33-.03-.06-.49-.85-.11-.19-.06-.1-.09-.15-.07-.11-.1-.19-.49-.85-.03-.06h-.01v.01l-.54.27-.88.45-2.49 1.28-13.47 6.89Z"/>
          <path d="m300.33 149.03 15.02 1.87 2.79.35.98.12.6.08h.01v-.06l.18-.96.03-.22.03-.12.03-.18.02-.11.03-.22.17-.96v-.07l-.6-.14-.96-.22-2.75-.62-14.74-3.36a19.25 19.25 0 0 0-.85 4.82Z"/>
          <path d="m305.64 136.5 10.28 11.07 1.92 2.06.68.73.42.45.05-.04.75-.64.17-.14.09-.08.14-.11.09-.08.17-.14.76-.64.04-.03v-.01l-.36-.48-.6-.79-1.7-2.24-9.13-12.04a19.59 19.59 0 0 0-3.76 3.15Z"/>
        </g>
        <ellipse cx="320.23" cy="150.05" fill="#b5bec3" rx="7.35" ry="7.34"/>
        <g fill="#878e94">
          <path d="M321.06 145.21c0 .45-.37.82-.82.82s-.82-.37-.82-.82c0-.45.37-.82.82-.82s.82.37.82.82ZM324.84 148.35a.82.82 0 1 1-.82-1.42.82.82 0 0 1 .82 1.42ZM324.01 153.18a.82.82 0 1 1 .82-1.42.82.82 0 0 1-.82 1.42ZM319.4 154.88c0-.45.37-.82.82-.82s.82.37.82.82-.37.82-.82.82-.82-.37-.82-.82ZM315.62 151.74a.82.82 0 1 1 .82 1.42.82.82 0 0 1-.82-1.42ZM316.45 146.91a.82.82 0 1 1-.82 1.42.82.82 0 0 1 .82-1.42Z"/>
        </g>
        <circle cx="320.23" cy="150.05" r="2.81" fill="none" stroke="#878e94" stroke-miterlimit="10" stroke-width="2.13"/>
      </g>
      <path fill="#d5e0e6" d="M.7 99.3h7.04c2.76 0 5.47-.42 8.06-1.25 2.77-.87 5.4-2.21 7.77-3.96l5.41-3.99 6.5-4.79a4.45 4.45 0 0 0 1.8-3.57v-.78a4.44 4.44 0 0 0-5.27-4.36l-14.52 2.75-6.81 1.29A35.4 35.4 0 0 0 .71 99.29Z"/>
      <path fill="#b5bec3" d="M.7 99.3h7.04c5.7 0 11.25-1.83 15.83-5.21l5.41-3.99H3.8a35.2 35.2 0 0 0-3.1 9.19Z"/>
      <path fill="#edf4f7" d="M.7 99.3h7.04c.57 0 1.14-.02 1.7-.05a7.32 7.32 0 0 0 6.85-6.63l1.2-13.26-6.81 1.29A35.4 35.4 0 0 0 .71 99.3Z"/>
      <path fill="#4a4a4a" d="m71.63 72.94 15-1.1.6-.04 103.98-7.6 21.31-1.55 74.55-5.45a4.28 4.28 0 0 0 3.91-3.54l4.46-25.76a4.29 4.29 0 0 0-4.17-5.02l-72.45-.83-21.03-.27-22.31-.28a97.56 97.56 0 0 0-49.73 12.9L87.23 56.45l-.6.34-16.96 9.71c-3.18 1.82-1.7 6.7 1.96 6.43Zm15.31-13.55 23.07-13.21 3.75-2.15 13.19-7.55a95.35 95.35 0 0 1 47.3-12.58h1.21l18.22.23 4.09.05 21.03.26 27.69.32 44.77.52c.76.01 1.22.43 1.43.68.2.25.53.78.41 1.53l-.42 2.43-4.05 23.33a1.88 1.88 0 0 1-1.72 1.56l-20.58 1.5-55.35 4.04-57.64 4.21-38.24 2.79-5.64.41-3.4.25-19.12 1.39V59.38Z"/>
      <path fill="#b34627" d="M156.52 62.95c-.92.18-7.87.13-8.73-.24-.87-.37-1.71-.83-2.64-1.01a8.7 8.7 0 0 0-2.83.09c-1.66.23-3.39.51-4.72 1.56-.09.07-.18.19-.11.28.04.05.12.05.18.05 1.69-.1 3.34-.85 5.03-.7l-4.45 1.29c-.38.11-.8.26-.96.63-.02.05-.04.11-.02.16.04.15.23.16.38.13l4.5-.73c-1.38.45-2.76 1.05-4.13 1.5-.2.06-.44.23-.36.42.06.14.23.16.37.16 1.32.02 2.65-.28 3.93-.6-.92.43-1.82.91-2.7 1.42-.25.15-.73.3-.56.65.98.07 1.93-.29 2.89-.53l.13-.03.15-.03.16-.03.13-.03.17-.03.12-.02.2-.02h.1l.3-.01c.79 0 1.57.26 2.35.36a4.5 4.5 0 0 0 2.03-.16c.16-.05.31-.12.46-.18l.47-.17c.15-.05.31-.08.46-.1l.47-.06c.93-.11 6.88-.54 7.81-.64l-.59-3.35Z" opacity=".5"/>
      <path fill="#d77443" d="M156.84 62.62c-.92.18-7.87.13-8.73-.24-.87-.37-1.71-.83-2.64-1.01a8.7 8.7 0 0 0-2.83.09c-1.66.23-3.39.51-4.72 1.56-.09.07-.18.19-.11.28.04.05.12.05.18.05 1.69-.1 3.34-.85 5.03-.7l-4.45 1.29c-.38.11-.8.26-.96.63-.02.05-.04.11-.02.16.04.15.23.16.38.13l4.5-.73c-1.38.45-2.76 1.05-4.13 1.5-.2.06-.44.23-.36.42.06.14.23.16.37.16 1.32.02 2.65-.28 3.93-.6-.92.43-1.82.91-2.7 1.42-.25.15-.73.3-.56.65.98.07 1.93-.29 2.89-.53l.13-.03.15-.03.16-.03.13-.03.17-.03.12-.02.2-.02h.1l.3-.01c.79 0 1.57.26 2.35.36a4.5 4.5 0 0 0 2.03-.16c.16-.05.31-.12.46-.18l.47-.17c.15-.05.31-.08.46-.1l.47-.06c.93-.11 6.88-.54 7.81-.64l-.59-3.35Z"/>
      <path fill="#ca4d6d" d="M157.31 64.6c7.69.3 16.13-5.26 20.71-10.71.97-1.26 5.43-.07 5.25 1.34 1.42 2.33-12.16 10.14-15.66 11.96a3 3 0 0 1-1.55.33l-14.08-.81 5.33-2.11Z" opacity=".25"/>
      <path fill="#74aa50" d="m165.05 62.31 14.73-10.91c1.45-.56 2.8-.1 3.78.99 1.12 1.26 1.09 3.52-.36 4.08L167.11 67c-.21.08-.42.14-.65.18l-14.15-.59c.66-1.62.61-2.27.14-3.86l12.6-.41Z"/>
      <g clip-path="url(#clippath)">
        <path fill="#d9a993" d="M168.22 38.97s7.44-2.89 9.68-8.1c0 0 2.6 4.45 5.25 4.84l1 1.78s.73-1.91 1.81-1.03c1.07.88 1.36 2.8.47 4.1-.78 1-1.14.72-1.14.72l-.04.35s-.03 4.98-6.37 7.25c-7.93 2.05-9.48-5.45-9.57-6.36-.05-.48-1.13-3.54-1.13-3.54h.04Z" opacity=".5"/>
      </g>
      <path fill="none" stroke="#703725" stroke-linecap="round" stroke-linejoin="round" stroke-width=".98" d="M164.15 38.12c.16-.11-5.99 4.45-3.46 6.49 2.67 2.15 1.4 5.43-.87 5.76"/>
      <path fill="#d77443" d="M167.51 45.74c-1.98-3.49-2.38-6.58-1.19-10.35l1.5-5.89c1.54-4.85 6.37-7.79 10.75-6.53l.44.13c4.37 1.26 6.7 6.25 5.16 11.1l-2.46 7.46c-1.2 3.8-5.84 5.19-8.45 5.76-2.36.52-5-.34-5.75-1.67Z"/>
      <path fill="url(#linear-gradient2)" d="M184.78 40.37c-1.05 1.59-2.65 2.24-3.58 1.46-.93-.78-.83-2.7.22-4.29 1.05-1.59 2.65-2.24 3.58-1.46.93.78.83 2.7-.22 4.29Z"/>
      <path fill="none" stroke="#b34627" stroke-linecap="round" stroke-linejoin="round" stroke-width=".98" d="m182.73 36.82-1.81 3.71"/>
      <path fill="#613a2d" d="M175.81 32.44a6.27 6.27 0 0 1 3.35.45c.31.15.56.4.72.68l.27.47c.18.22-.02.62-.21.42-.42-.46-3.32-1.08-4.26-.79l.13-1.22Z"/>
      <path fill="#452217" d="M174.81 21.39s-1.35 3.37 1.41 4.31c2.76.94.6 2.34 2.29 4.35s2.07 1.4 2.53 4.22c.46 2.82 5.88 5.79 5.6-.51-.28-6.3-6.61-13.65-11.84-12.37Z"/>
      <path fill="none" stroke="#703725" stroke-linecap="round" stroke-linejoin="round" stroke-width=".98" d="M180.66 31.84s2.14 2.02 4.26 1.68c1.97-.31 3.81-.68 4.16 2.36M176.65 21.82l3.23-2.24"/>
      <path fill="#613a2d" d="M170.84 31.15a6.65 6.65 0 0 0-3.29-.93c-.34.02-.8 1.05-.44 1.08 1.08.09 2.87.54 3.48 1.03l.25-1.17Z"/>
      <path fill="none" stroke="#b34627" stroke-linecap="round" stroke-linejoin="round" stroke-width=".98" d="M169.48 40.51c.56 1.31 1.6 2.47 3.4.73"/>
      <path fill="#452217" d="M166.35 31.98c.07.2.92.31 2.06-2.01s-.04-2.6 2.72-2.96c2.76-.36 5.16-1.36 5.13-5.73-.02-4.37-7.77 3.22-7.77 3.22s-3.5 3.61-2.15 7.49Z"/>
      <path fill="none" stroke="#703725" stroke-linecap="round" stroke-linejoin="round" stroke-width=".98" d="M169.27 27.58c.28.07-4.19-1.11-4.69.63"/>
      <path fill="#452217" d="M165.21 25.2c.94-1.21 2.29-2.23 2.29-2.23l4.07-2.65c2.69-2.5 6.29-2.88 8.68-1.76 0 0 5.56-.53 8.93 3.8l1.66 4.63-11.1-3.42-5.21-.55-1.99 2.33-7.33-.14Z"/>
      <path fill="#d77443" d="m242.13 50.07.05.02 5.81 2.19 2.08.84 2.12-4.9h-.01l-2.23-.79-6.06-2.13-.1-.04a2.54 2.54 0 0 0-1.64 4.8Z"/>
      <path fill="#8c3573" d="m248 52.28 2.04.82 1.96-4.94-2.05-.73a31.11 31.11 0 0 0-1.96 4.85Z" opacity=".3"/>
      <path fill="#fecf79" d="m248.32 54.69 1.08.2.21.04c.87-2.4 2.05-5.25 2.97-7.65l-.31-.09-1.04-.31a430.1 430.1 0 0 0-2.91 7.81Z"/>
      <path fill="#d77443" d="M239.15 33.8v.97c0 4.95.51 8.84 1.35 13.16a2.53 2.53 0 0 0 4.91.63c.17-.47.2-.96.1-1.42l-3.04-13.74a1.68 1.68 0 0 0-3.32.39Z"/>
      <path fill="#d77443" d="M235.08 23.87c0 1.17 3.17 7.08 3.18 7.1.45.95.78 1.95.9 2.98a1.68 1.68 0 0 0 3.35-.21v-.11c-.2-2.41 2-4.84 2.05-8.08.01-.9-.53-.95-.8-.68-.55.54-.46 2.06-1.24 2.83-1.06-1.7-1.79-7.74-2.95-7.74-.76 0 .26 3.27.73 5.49-1.26-1.68-1.57-5.26-2.6-5.26-.17 0-.4.17-.4.51 0 0 1.1 3.51 1.54 5.09-1.35-1.63-1.69-4.33-2.62-4.33-.23 0-.3.19-.3.42 0 .75.98 2.61 1.55 4.75-.86-1.14-1.46-3.13-2.15-3.13-.19 0-.25.16-.25.37Z"/>
      <path fill="#faf4e8" d="M167.87 34.04s1.25-1.17 2.48-.72c1.24.45 1.18 2.01.96 2.19-.23.18-3.16.43-3.44-1.47Z"/>
      <path fill="#7d2f05" d="M171.43 34.99s-.02-1.4-1.24-1.62c-1.26-.23-1.69.43-2.32.66-.39.14-.72-.42-.59-.82.3.26.48.33.94.14.47-.19 3.13-1.24 3.21 1.64Z"/>
      <path fill="#4a3c33" d="M170.94 34.48c-.07.63-.66 1.1-1.31 1.05a1.13 1.13 0 0 1-1.06-1.23c.07-.63.66-1.1 1.31-1.05.65.05 1.12.6 1.05 1.23Z"/>
      <path fill="#fff" d="M169.88 34.05a.4.4 0 0 1-.43.37.38.38 0 0 1-.34-.43.42.42 0 0 1 .43-.37c.21.02.37.21.34.43Z"/>
      <path fill="#faf4e8" d="M178.9 37.28s-.4-1.62-1.7-1.87c-1.3-.25-2.12 1.09-2.03 1.36.09.27 2.44 1.97 3.73.51Z"/>
      <path fill="#7d2f05" d="M175.34 36.28s.8-1.17 1.96-.74c1.19.45 1.19 1.22 1.6 1.75.25.32.84.01.96-.4-.4.07-.58.03-.87-.36-.29-.4-1.95-2.64-3.64-.25Z"/>
      <path fill="#4a3c33" d="M176.05 36.09c-.29.57-.06 1.26.52 1.55.58.29 1.29.07 1.58-.5.29-.57.06-1.26-.52-1.55a1.18 1.18 0 0 0-1.58.5Z"/>
      <path fill="#fff" d="M176.54 35.95c-.1.2-.03.44.16.53.19.1.43.01.53-.19.1-.2.03-.44-.16-.53-.19-.1-.43-.01-.53.19Z"/>
      <path fill="#d77443" d="m171.61 31.42 1.09 2.65-1.52 3.01s-1.4-.26-.92-.87c1.59-2 1.35-4.8 1.35-4.8Z"/>
      <path fill="none" stroke="#b34627" stroke-linecap="round" stroke-linejoin="round" stroke-width=".98" d="M171.41 31.56s.65 3.08-1.55 4.93c-.77.65-.76 1.44-.2 2.33"/>
      <path fill="#8c3573" d="M263.51 47.23c1.92.78 4.09.77 6 0-.06-.74-.11-1.39-.11-1.73h-5.78c0 .34-.05.98-.11 1.72Z" opacity=".3"/>
      <path fill="#62372e" d="M254.17 34.27c.3.21 1.62.57 1.74 2.07l.35-.07c-.35-1.62-1.78-1.83-2.09-2Z"/>
      <path fill="#62372e" d="m254.88 38.78.2-.13c-1.58-2.49.12-3.56 1.11-2.73-.05-.17-.1-.33-.54-.43-1.19-.26-2.21 1.18-.77 3.29ZM276.73 36.56c1.01-.94 1.63-2.15.79-3.22l-.13.11c.82.98.18 2.13-.72 3.05l.07.06Z"/>
      <path fill="#62372e" d="M276.89 36.54c.12 0 .16.04.2-.03 1.13-2.21 3.04-.15 1.1 1.38 1.66-1.04.95-2.57 0-2.57-.66 0-1.06.61-1.31 1.23Z"/>
      <path fill="#583027" d="M279.12 30.94c0 .32-1.65.79-.24 1.91-.2-.21-.42-.51-.42-.8 0-.58 1-.56 1-1.16 0-1.27-2.6-1.56-2.6-2.99l.02-.29c-1.8 1.61 2.25 2.45 2.25 3.33Z"/>
      <path fill="url(#linear-gradient3)" d="m270.69 21.33.31.33 5.82 6.14c0 .12.01.22.03.33a1.53 1.53 0 0 0 1.9 1.28l.15.15c.27.25.58.35.88.35.43 0 .84-.22 1.15-.57a1.14 1.14 0 0 0 .73.24c1.07 0 2.43-1.44 2.26-2.98l.21-.15a2.01 2.01 0 0 0-.36-3.36 1.86 1.86 0 0 0-.2-.1c.1-.56-.01-1.12-.34-1.56l.02-.33c-.01-.97-.63-1.69-1.31-1.69-.17 0-.34.04-.5.12l-.17-.25c-.3-.39-.7-.67-1.16-.67-.14 0-.29.03-.44.09-.22-.8-.85-1.23-1.49-1.23-.42 0-.85.18-1.2.51l-.03-.18c-.21-1.1-.95-2.35-2.05-2.35-.72 0-1.51.55-1.75 1.75-.58-.26-1.28.25-1.4 1.02l-.2-.06c-1.16-.25-2.3 1.35-.86 3.14Z"/>
      <path fill="#8c3573" d="m271 21.66 5.82 6.14c0 .12.01.22.03.33.7-.53 1.56-.62 2.39-.32.01.36.13.76.4 1.17-.32-1.16-.05-2.21.94-2.86-.45.13-.81.38-1.05.71-.97-.66-1.23-2.02-.72-3.12.35.13.78.14 1.24.05-1.32-.03-1.89-.61-2.09-1.86-.03.18-.04.35-.03.51-1.05.14-2.08-.36-2.78-1.7.2-.19.35-.45.41-.77-.55.96-2.02 1.16-3.24-.17.14.29.3.52.48.71-.17.76-.68 1.25-1.8 1.17Z" opacity=".3"/>
      <path fill="#583027" d="M254.91 29.9c-.21-.3-.38-.64-.38-1.07 0-1.4 2.45-.09 2.45-1.6l-.01-.27c-.48.13-.4.08-.4.28 0 .31-.09.39-.73.49-.67.1-1.47.19-1.47.99 0 .15.03.63.54 1.18ZM263.67 22.87c.13.15.3.36.39.36.05 0 2.1-.86 2.1-3.09a4.3 4.3 0 0 0-.42-1.79c.59 2-.07 3.66-2.08 4.52Z"/>
      <path fill="url(#linear-gradient4)" d="M250.97 23.63c-.13.3-.22.63-.22.96 0 1.38 1.51 2.24 2.76 2.08.03.06.07.11.11.15.28.34.68.42 1.17.35.47.85 1.61.81 2.19-.03l6.91-4.83c1.1-.31 1.36-1.2.98-2.02l.05-.21c.16-.83-.4-1.5-1.14-1.76v-.25c-.03-1.49-1.23-2.29-2.52-1.61l-.08-.19c-.61-1.33-2.18-1.84-3.19-.67-.84-.84-2.41-.43-2.33 1.27-.09-.06-.18-.12-.29-.17-.26-.13-.57-.2-.98-.2-1.36 0-2.42 1.04-1.86 2.7-.66.14-.82.95-.6 1.61-.77.02-1.47.63-1.47 1.4 0 .44.23.89.6 1.23l-.1.2Z"/>
      <path fill="#8c3573" d="M262.63 21.12h-.15c-.75 0-1.41-.36-1.83-.94.34-.28.53-.67.55-.72-1.03 1.15-1.77.97-2.96.04.4.45.75.76 1.13.9-.24.85-.7 1.45-1.68 1.45-.61 0-1.26-.26-1.8-.61.06-.35 0-.75-.16-1.17.22 1.41-.41 2.13-1.82 2.39.42.02.77-.02 1.06-.13.17.24.28.52.28.94a2.2 2.2 0 0 1-.99 1.82c.33-.11.6-.29.8-.52.6.21 1.04.69 1.38 1.36 0 0 5.06-2.5 5.66-3.4.61-.89.52-1.42.52-1.42Z" opacity=".3"/>
      <path fill="url(#linear-gradient5)" d="M259.2 23.76c-1.31-.09-2.47.6-3.37 1.56a.6.6 0 0 0-.16.54c.21.97 1.38 1.23 1.48 2.22 0 0 2.4-1.76 2.66-2.19.26-.43.16-1.25.16-1.25l-.77-.88Z"/>
      <g>
        <g opacity=".15">
          <path fill="#8c3573" d="M259.06 24.54c-.66.12-1.25.43-1.77.83a4.14 4.14 0 0 1 1.79-.63v-.21h-.01Z"/>
        </g>
        <g opacity=".15">
          <path fill="#8c3573" d="M259.21 24.76c-.35.08-.69.2-.99.39a3.17 3.17 0 0 1 1-.25l-.02-.15Z"/>
        </g>
      </g>
      <path fill="#db8331" d="M258.96 23.74a.87.87 0 0 0-.1.42c0 .72.65 1.14.7 1.14.09 0 .19-.11.22-.14l-.04-.51-.35-.68-.42-.23Z"/>
      <path fill="#cb6f1d" d="m263.57 19.97.1-.04c.1-.04.21 0 .27.09.62 1 .75 2.35.26 3.44l-.26-.12-.73-2.33.36-1.04Z"/>
      <path fill="url(#linear-gradient6)" d="m261.04 24.3.17-.04 2.73-.91a3.6 3.6 0 0 0-.37-3.37 5.66 5.66 0 0 0-3.32 2.98l-.12.31c-.29.2-.09.86.9 1.03Z"/>
      <g opacity=".15">
        <g fill="#8c3573">
          <path d="m260.21 23.99-.17-.1a8.28 8.28 0 0 1 2-2.16 7.61 7.61 0 0 0-1.82 2.25ZM261.66 22.76c-.51.37-.97.83-1.34 1.34l-.12-.09c.42-.49.91-.91 1.46-1.25Z"/>
        </g>
      </g>
      <path fill="#cb6f1d" d="m259.49 23.67.13.39.72.58.67-.09.02-.25c-1-.17-1.19-.83-.9-1.03.04-.11.07-.21.12-.31l-.07.01h-.06l-.09.04-.21.12-.32.54Z"/>
      <path fill="url(#linear-gradient7)" d="m259.78 25.15 1.24-.6c-1.37-.12-1.55-1.43-.84-1.58-.5.08-.96.35-1.22.77-.17.63.45 1.26.82 1.42Z"/>
      <g>
        <path fill="url(#linear-gradient8)" d="M274.83 24.47c1.31.03 2.4.82 3.22 1.85a.6.6 0 0 1 .11.55c-.29.94-1.48 1.1-1.67 2.08 0 0-2.23-1.97-2.45-2.42-.22-.45-.05-1.26-.05-1.26l.84-.81Z"/>
        <g opacity=".15">
          <path fill="#8c3573" d="M274.9 25.48c.8.29 1.5.87 2.02 1.54a4.47 4.47 0 0 0-1.95-1.76l-.08.22Z"/>
        </g>
        <path fill="#db8331" d="M274.14 25.8c.09.06.21.12.32.12.33 0 .95-.83.62-1.46l-.68.78-.26.56Z"/>
        <path fill="#cb6f1d" d="m270.83 20.3-.1-.05c-.09-.05-.21-.02-.28.06a3.8 3.8 0 0 0-.57 3.41l.27-.09.94-2.26-.27-1.07Z"/>
        <path fill="url(#linear-gradient9)" d="m270.15 23.63 2.64 1.15.17.06c.31-.03.55-.1.72-.21l.08-.05.01-.01a.88.88 0 0 0 .17-.16c.15-.19.14-.4 0-.51l-.09-.32a5.68 5.68 0 0 0-3.04-3.27 3.56 3.56 0 0 0-.68 3.32Z"/>
        <path fill="#cb6f1d" d="m274.56 24.35-.17.38-.77.52-.66-.15v-.25c1.01-.08 1.27-.72.99-.95l-.09-.32.07.02.06.02.09.04.2.13.27.57Z"/>
        <path fill="url(#linear-gradient10)" d="m274.14 25.8-1.18-.71c1.37 0 1.68-1.28.98-1.5.49.13.92.43 1.15.88.11.64-.56 1.22-.94 1.34Z"/>
      </g>
      <path fill="url(#linear-gradient11)" d="m274.13 40.94 1.07.48c1.68.53 3.09-1.58 3.09-3.5 0-1.34-.68-1.73-1.13-1.73a.99.99 0 0 0-.24.03l-.25-.4-1.39.7-1.14 4.4Z"/>
      <path fill="url(#linear-gradient12)" d="m256 36.21-.15-.01c-.45 0-1.13.39-1.13 1.73 0 1.91 1.41 4.03 3.09 3.5l.86-.79-.82-4.01-1.29-.79-.56.38Z"/>
      <path fill="url(#linear-gradient13)" d="m257.05 36.2.42 2.26c-.05 1.1.07 2.09.34 2.96.19.62.46 1.18.79 1.69 3.08 4.73 12.73 4.73 15.81 0 .33-.51.6-1.07.79-1.69.27-.88.4-1.86.34-2.96V36.2l.53-1.73v-5.38l-1.75-2.41-6.44-2.25-6.68 1.13s-3.23 2.16-3.39 2.28-.88 1.7-.88 1.7l-.53 3.61.64 3.05Z"/>
      <path fill="#5f2e1f" d="M270.24 31.03c-.23.2-.41.46-.53.73 0-.02.07-.41.35-.74-.38.06-.55.58-.63 1.01 1.87.09 4 1.09 5.01 2.65-.41-1.99-2.25-3.37-4.22-3.66ZM262.92 30.61c.23.2.41.46.53.73 0-.02-.07-.41-.35-.74.38.06.55.58.63 1.01-1.87.09-4 1.09-5.01 2.65.41-1.99 2.25-3.37 4.22-3.66Z"/>
      <path fill="#9f4823" d="M262.64 41c.99.51 4.89 1.05 7.73.34a4.59 4.59 0 0 1-3.85 1.96c-1.46 0-2.78-.6-3.88-2.3Z"/>
      <path fill="#fff" d="M263.79 42a3.87 3.87 0 0 0 2.74 1.06c.47 0 1.51-.05 2.55-.77.08-.16.08-.3-.02-.44a18 18 0 0 1-5.14-.19c-.15.07-.16.19-.13.34Z"/>
      <path fill="#8c3573" d="M265.15 43.61c.37.27.68.49 1.21.49.62 0 .89-.29 1.16-.41-.44.07-.82.44-2.37-.08Z" opacity=".2"/>
      <path fill="#62372e" d="M256 36.21c.69.11 1.18 1.02 1.47 2.25a7.3 7.3 0 0 0-.23-5.46l-.07-.14c.87-1.2 1.28-2.88.58-4.13.92.31 1.82.3 2.38-.43l.11-.16c.94.17 1.67-.06 2.11-.91l.1-.21c.47.23.89.26 1.19-.09.05-.06.1-.13.14-.21a2.78 2.78 0 0 0 2.55.11c.09-.04.18-.1.26-.16.31.37.66.55 1.12.3l.23-.15c.18.48.86.61 1.54.2.07-.04.15-.09.22-.15.06.3.31.52.79.57a.5.5 0 0 0 .08.12c.48.69 1.53.77 2.39.45l.15.15c.64.63 1.36.9 2.17.55-.03.06-.07.12-.09.19-.57 1.23-.16 2.81.67 3.95l-.07.13a7.23 7.23 0 0 0-.23 5.47c.28-1.17.74-2.05 1.38-2.23.87-2.36 1.16-6.09-.51-7.8a5.05 5.05 0 0 0-2.59-3.27 1.61 1.61 0 0 0-.2-.33c-1.23-1.81-5.19-3.21-6.51-1.46-.05.07-.1.15-.14.24a2.75 2.75 0 0 0-.28-.37c-1.57-1.69-5.09-.43-7.21 1.65l-.26.27c-1.28.56-2.28 1.97-2.66 3.5l-.2.25c-1.14 1.62-.83 5.15-.36 7.31Z"/>
      <path fill="#8c3573" d="m275.78 32.99.3.16a3.25 3.25 0 0 1-.23-.29l-.07.13ZM256.94 33.14s.18-.07.3-.15l-.07-.14-.23.29ZM275.59 27.84c.32.15.59.35.83.59a1.83 1.83 0 0 0-.08-.25 1.9 1.9 0 0 0-.75-.34ZM271.55 25.14a2.7 2.7 0 0 1 2.28.01 1.61 1.61 0 0 0-.2-.33 2.84 2.84 0 0 0-2.08.32ZM266.66 26.01c-.01-.86.03-1.82.31-2.41a2.75 2.75 0 0 0-.28-.37c-.35 1.23-.03 2.78-.03 2.78ZM256.41 29.54c.03-.3.08-.6.15-.89l-.2.25c-.01.21.01.43.05.64ZM259.22 25.14c.39-.17.81-.26 1.24-.25a6.32 6.32 0 0 0-.98-.01l-.26.27ZM275.18 28.91c.21-.11.43-.36.43-.36a2.8 2.8 0 0 1-.34.18c-.03.06-.07.12-.09.19ZM272.96 28.02l.15.15c.29-.22.62-.59.67-.64-.23.2-.51.37-.82.49ZM269.47 27.03c.07-.04.15-.09.22-.15-.09-.45.25-1.07.88-1.57-1.05.56-1.1 1.18-1.1 1.72ZM270.49 27.45l.08.12c.17-.04.34-.12.34-.12h-.42ZM267.71 26.98l.23-.15c-.16-.4.03-1.06.86-1.87-1.29.86-1.24 1.56-1.09 2.02ZM265.03 24.43c.51.69.7 1.68 1.3 2.41.09-.04.18-.1.26-.16-.5-.58-.91-1.64-1.56-2.25ZM262.64 25.89s.56.71 1 1.04c.05-.06.1-.13.14-.21-.47-.27-.8-.63-1.14-.83ZM261.76 26.56s.21.46.59.67l.1-.21a3.76 3.76 0 0 1-.69-.46ZM259.38 27.9s.39.3.74.39l.11-.16a5.25 5.25 0 0 1-.85-.24ZM262.03 18.53c.55-.35 1.2-.38 1.75-.2v-.25a2.15 2.15 0 0 0-1.76.45ZM260.62 16.93c.21-.19.43-.35.64-.46l-.08-.19c-.24.16-.54.62-.56.65ZM255.37 16.7c.06.75.79 1.89.79 1.89a4.36 4.36 0 0 1-.5-1.72c-.09-.06-.18-.12-.29-.17ZM250.97 23.63c.75.37 1.36.38 1.4.38a2.08 2.08 0 0 1-1.31-.58l-.1.2ZM253.51 26.68c.03.06.07.11.11.15.35-.1.67-.41.67-.41-.23.14-.5.22-.78.26ZM264.24 19.51c.28.24.49.51.62.8l.05-.21a2.52 2.52 0 0 0-.68-.58ZM278.75 29.42l.15.15c.29-.15.54-.38.72-.66-.27.27-.57.43-.87.51ZM280.93 29.35c.06.05.13.1.21.13.19-.34.28-.73.25-1.12-.06.38-.23.72-.46.99ZM283.49 25.49c.25.37.38.75.42 1.12l.21-.15a1.76 1.76 0 0 0-.63-.97ZM282.37 20.82c.36.14.65.36.85.62l.02-.33c-.35-.19-.87-.3-.87-.3ZM283.32 23.69s.33-.27.45-.59a1.86 1.86 0 0 0-.2-.1c-.04.23-.12.46-.24.69ZM280.68 20.38c.19-.41.46-.68.75-.82l-.17-.25c-.44.35-.58 1.07-.58 1.07ZM276.54 18.69c.07-.19.13-.38.44-.68l-.03-.18c-.41.38-.41.86-.41.86ZM271.84 19.19a2.9 2.9 0 0 1-.11-.7c0-.08 0-.16.02-.24l-.2-.06c0 .51.29 1 .29 1Z" opacity=".3"/>
      <path fill="#8c3573" d="M272.76 23.72c.35.26.65.57.92.91l.08-.05c-.3-.32-.63-.62-1.01-.85ZM272.12 22.65a8.02 8.02 0 0 1 1.66 1.92.88.88 0 0 0 .17-.16 7.47 7.47 0 0 0-1.83-1.76Z" opacity=".15"/>
      <path fill="#faf4e8" d="M272.6 34.67s-1.13-1.2-2.41-.83c-1.28.37-1.37 1.89-1.16 2.07.21.19 3.11.59 3.57-1.24Z"/>
      <path fill="#7d2f05" d="M268.96 35.41s.15-1.36 1.39-1.51c1.28-.15 1.65.51 2.25.77.37.16.76-.37.66-.77-.32.24-.5.29-.95.08-.45-.21-3-1.37-3.36 1.42Z"/>
      <path fill="#4a3c33" d="M269.5 34.94c.01.61.55 1.1 1.21 1.09.65-.01 1.18-.52 1.17-1.13-.01-.62-.55-1.1-1.21-1.09-.66.01-1.18.52-1.17 1.14Z"/>
      <path fill="#fff" d="M270.6 34.58c0 .22.18.39.4.38a.4.4 0 1 0-.4-.39Z"/>
      <path fill="#faf4e8" d="M260.47 34.76s1.09-1.24 2.38-.92c1.29.33 1.44 1.83 1.23 2.03-.2.2-3.09.7-3.61-1.11Z"/>
      <path fill="#7d2f05" d="M264.14 35.36s-.2-1.35-1.45-1.46c-1.28-.1-1.63.57-2.22.85-.37.17-.77-.34-.69-.74.33.23.51.27.95.05.44-.22 2.95-1.48 3.41 1.3Z"/>
      <path fill="#4a3c33" d="M263.58 34.91c.01.61-.51 1.12-1.16 1.13-.66.01-1.2-.48-1.21-1.09-.01-.62.51-1.12 1.17-1.13.66-.01 1.19.48 1.21 1.09Z"/>
      <path fill="#fff" d="M263.2 34.58a.4.4 0 0 1-.38.4.4.4 0 0 1-.4-.38.4.4 0 0 1 .38-.4.4.4 0 0 1 .4.38Z"/>
      <path fill="#9f4823" d="M267.25 38.36c-.06 0-.11-.04-.14-.09-.11-.27-.31-.43-.57-.44a.72.72 0 0 0-.65.44c-.03.07-.12.11-.19.08s-.11-.12-.08-.19a1 1 0 0 1 .92-.62c.37 0 .68.24.83.62.03.07 0 .16-.08.19h-.05Z"/>
    </g>
  </g>
</svg>
