<svg xmlns="http://www.w3.org/2000/svg" viewBox="0 0 368 180">
  <g>
    <g id="Layer_3">
      <g>
        <g>
          <path fill="#4a4a4a" d="m71.58 72.94 15.01-1.1.6-.04 104-7.6 21.32-1.55 74.57-5.45a4.28 4.28 0 0 0 3.91-3.54l4.46-25.76a4.29 4.29 0 0 0-4.17-5.02l-72.46-.83-21.04-.27-22.32-.28a97.6 97.6 0 0 0-49.74 12.9L87.19 56.45l-.6.34-16.97 9.71c-3.18 1.82-1.7 6.7 1.96 6.43Z"/>
          <path fill="#4a4a4a" d="M70.31 69.76c.07.23.28.79.98.79h.11l15.48-1.13V59.4L70.8 68.61c-.58.32-.58.82-.49 1.17Z"/>
          <path fill="#b9d9eb" d="M86.88 59.39v10.02L106 68.02l3.4-.25 5.64-.41 38.24-2.79 57.65-4.21 55.36-4.04 20.59-1.5a1.9 1.9 0 0 0 1.72-1.56l4.05-23.33.42-2.43c.13-.75-.2-1.27-.41-1.53a1.87 1.87 0 0 0-1.43-.68l-44.78-.52-27.69-.32-21.04-.26-4.09-.05-18.22-.23h-1.21a95.4 95.4 0 0 0-47.31 12.58l-13.19 7.55-3.75 2.15L86.87 59.4Z"/>
          <path fill="#b9d9eb" d="M86.88 59.39v10.02L106 68.02l3.4-.25 5.64-.41 38.24-2.79 57.65-4.21 55.36-4.04 20.59-1.5a1.9 1.9 0 0 0 1.72-1.56l4.05-23.33.42-2.43c.13-.75-.2-1.27-.41-1.53a1.87 1.87 0 0 0-1.43-.68l-44.78-.52-27.69-.32-21.04-.26-4.09-.05-18.22-.23h-1.21a95.4 95.4 0 0 0-47.31 12.58l-13.19 7.55-3.75 2.15L86.87 59.4Z"/>
          <path fill="#b9d9eb" d="m266.3 56.31 20.59-1.5a1.9 1.9 0 0 0 1.72-1.56l4.05-23.33-26.35 26.39ZM153.29 64.56l57.65-4.21 35.53-35.59-27.7-.31-21.03-.27-4.1-.05-40.35 40.43zM86.88 59.39v10.02L106 68.02l3.4-.25 5.64-.41 41.78-41.85a95.31 95.31 0 0 0-29.93 10.98l-13.19 7.55-3.75 2.15L86.87 59.4Z"/>
        </g>
        <g>
          <path fill="#591a06" d="M258.7 48.8s10.46 2.25 18.9-.08V34.78h-18.9V48.8Z"/>
          <path fill="#db5335" d="M277.24 60.79c-.01.09-.07.32-.15.65l-.08.35-.55 2.18-1.2 4.61-18.19-3.36c-.2-1.67-.45-3.83-.57-5.03l-.07-.84v-.06l-.02-1.45v-.22c-.04-1.79-.11-3.46-.17-4.69l-.08-1.49-.04-.61.02-.1 2.56-.74.89-.28.09-.03.17-.05h.02l.24-.08h.03l.14-.05.8-.26 2.7-.87.17-.05.14-.05.27-.09h.12l-.09 1.28-.18 2.44 3.27.23v-.02l3.12.22v-.09l.06-.78.2-2.87h.03l.08.05.11.06h.02l.55.27h.02l1.41.7 1.53.75.78.38 2.88 1.4.5.24v.02a143.96 143.96 0 0 0-1.53 8.19l-.01.11v.05Z"/>
          <path fill="#db5335" d="m283.84 64.45-5.58.84-.97.15-.28-3.65s-.03-.82.03-2.11c.09-1.85.38-4.68 1.27-7.5l.02-.08.4.17c1.35.58 2.96 1.59 3.68 4.85.92 4.19 1.44 7.35 1.44 7.35ZM256.53 60.13l-.03.05-1.96 3.88-.77-.31-4.88-2s1.28-3.39 3.22-7.09c1.93-3.71 4.04-3.93 4.04-3.93l.01.08c.25 1.95.33 4.78.37 6.8.02 1.46.01 2.52.01 2.52Z"/>
          <path fill="#db5335" d="m254.54 64.07.8-1.6-5.8-2.34-.66 1.62 5.66 2.32z"/>
          <path fill="#ffa580" d="m254.07 63.88-.4.71-5.65 5.04 1.19-7.74v-.01l4.56 1.87.3.13zM270.82 53.72a4.38 4.38 0 0 1-3.31 1.39c-.78-.08-2.67-.26-3.71-1.88-.96-1.49-.29-3.74.02-4.98s.3-.1.3-.1l.29-.09h.12l-.27 3.71 3.27.23v-.02l3.12.22.06-.78.21-2.96.11.05.12.06.56.27c0 .69.01 1.79-.14 2.81a4.23 4.23 0 0 1-.74 2.06Z"/>
          <path fill="#ffa580" d="m270.84 52.97-7.02-.55.29-4.27.19-2.58 7.02.49-.06.84-.12 1.68-.2 2.92-.1 1.47z"/>
          <path fill="#d9a993" d="m271.56 51.66-.62-.16a2.17 2.17 0 0 1-.24-.07c-5.22-1.57-6.27-4.74-6.31-4.85l.03.02a31.3 31.3 0 0 1 1.09.66l.06.03c.39.21.77.4 1.17.52l.37.1.45.06c1.25.08 2.37-.4 3.6-1.01l.09-.04-.12 1.67.56.27c0 .69.01 1.79-.14 2.81Z" opacity=".5"/>
          <path fill="#db5335" d="m278.26 65.29-.5.08-.47.07-.11-1.46-.06-.75-.11-1.44-.55 2.17-1.2 4.61-1.14-.21c.79-2.68 1.66-5.33 2.25-7.06l.68-1.98c0 .06.12.92.21 1.31l.2.87.26 1.18.25 1.18.29 1.43Z"/>
          <path fill="#ffa580" d="m283.45 70.08-5.39-1-.3-3.72.5-.08 2.42-.36 2.5-.38.27 5.53Z"/>
          <path fill="#db5335" d="m258.39 65.46-1.32-.24c-.2-1.67-.45-3.83-.57-5.03l-1.16 2.29-.81 1.6-.47-.19-.31-.12.72-1.62 1.92-4.29.09-.2v-.02h.01l.01.02c.1.19.85 1.57 1.25 4.19.15.98.4 2.17.61 3.62ZM283.84 64.45l-6.55.99-.11-1.46 6.42-.92.24 1.39z"/>
        </g>
        <path fill="#e99c9f" d="M186.19 55.83c-.22-2.59-3.39-5.7-4.78-6.8l-6.6 2.1c-1.34 1.23-3.76 3.33-4.97 5.34-3.54 5.89-3.3 19.31-3.31 20.16 0 0 3.9 1.73 8.92 2.26 5.02.52 6.42-.64 6.42-.64 2.19-4.55 4.66-18.21 4.31-22.42Z"/>
        <g>
          <path fill="#ab6b50" d="M193.3 51.24c.52-.27.5-1.33.24-1.59-2.1-1.29-4.73-3.1-2.68-4.99 1.54-1.35 4.17.2 5.96-1.68a15.34 15.34 0 0 0 2.62-4.15 4.76 4.76 0 0 0-4-4.81 4.7 4.7 0 0 0-5.31 4.03l-1.1 7.69a4.8 4.8 0 0 0 2.39 4.86c-2.77.55-4.48 1.83-4.48 1.83l-2.53 17.16v.7l3.05.04c-.52-7.08-1.04-15.77 5.86-19.08Z"/>
          <path fill="#be7759" d="M196.81 42.97c-1.79 1.88-4.42.34-5.96 1.68-2.05 1.89.58 3.7 2.68 4.99.26.26.28 1.32-.24 1.59-6.9 3.31-6.37 12-5.86 19.08l9.15.12s2.27-16.89-1.03-19.68a4.77 4.77 0 0 0 2.72-3.65l1.1-7.69c.03-.2.04-.4.04-.6a15.34 15.34 0 0 1-2.62 4.15Z"/>
          <g>
            <g>
              <path fill="#ffa580" d="M140.85 60.84c-1.19-.21-3.31-4.04-4.7-4.89-1.39-.85-5.3-3.06-5.78-3.01-.47.05.02 1.51 1.53 2.35a8.75 8.75 0 0 1 2.54 2.3s-4.39-2.28-5.9-1.74c-1.51.55 2.7 2.09 3.37 2.9.67.81-4.17-1.17-4.27-.22-.09.96 3.77 1.97 4.05 2.45.28.47-2.96-.36-3.11.66-.15 1.03 3.66 1.42 4.31 1.98.65.56 4.47 3.66 6.39 2.43 0 0 5.06.87 7.15 1.19l.55-5.28-6.14-1.12Z"/>
              <g opacity=".89">
                <path fill="#d3735b" d="M137.29 63.94c-.06.02-.13 0-.18-.06a7.11 7.11 0 0 1-1.47-3.47c-.41-.29-2.06-1.5-2.17-2.39a.67.67 0 0 1 .13-.52c.7-.87 3.12 1.1 3.85 1.73.08.07.09.2.02.28a.18.18 0 0 1-.27.03c-1.35-1.17-3-2.18-3.32-1.78a.26.26 0 0 0-.05.2c.09.65 1.53 1.78 2.08 2.16.04.03.08.08.08.14 0 .02.26 2.1 1.38 3.33.07.08.07.21 0 .28-.02.03-.06.04-.09.05Z" opacity=".5"/>
              </g>
            </g>
            <path fill="#e99c9f" d="m175.66 52.48-16.51 8.4-18.34-1.06-.64 7.15 20.71 1.56c.15-.09.3-.19.44-.3l18-10.72a3.33 3.33 0 0 0 .58-4.47 2.91 2.91 0 0 0-4.24-.56Z"/>
          </g>
          <path fill="#86533d" d="M139.33 72.57c-.97.66-2.3.4-2.95-.59l-12.11-18.32a2.2 2.2 0 0 1 .58-3c.97-.66 2.3-.4 2.95.59l12.11 18.32a2.2 2.2 0 0 1-.58 3Z"/>
          <path fill="#e99c9f" d="M185.19 53.21c-.42-.68-.93-1.34-1.46-1.94-5.42 2.41-10.56 5.71-15.49 9.09-.59 2.07-.98 4.4-1.24 6.64 4.99-5.85 11.11-11.17 18.18-13.8Z"/>
          <path fill="#e99c9f" d="M180.63 56.74c-3.61 1.91-3.79 7.48-5.84 9.1-2.38 2-5.28 3.04-8.29 3.97-.26 3.58-.21 6.45-.22 6.83 0 0 3.9 1.73 8.92 2.26 5.02.52 6.42-.64 6.42-.64 1.46-3.02 3.04-10.07 3.83-15.7-3.03-.53-6.09-2.17-4.82-5.81Z"/>
          <path fill="#62676b" d="M86.23 64.93s29.38-11.38 32.34-10.9c2.96.48 15.66 13.87 15.66 13.87L85.7 71.09l.53-6.16Z"/>
        </g>
        <path fill="#728097" d="m164.04 67.99-2.21-3.42-.1.09.32-.35c10.01-11.15 25.18-19.16 36.14-23.92l1.37 3.93c-15.22 6.61-27.26 14.54-34.81 22.95-.34.38-.5.56-.7.72Z"/>
        <path fill="none" d="M87.19 59.44v9.98l19.11-1.39 3.4-.25 5.63-.41 38.22-2.78 57.61-4.19 55.32-4.03 20.57-1.5c.86-.07 1.57-.7 1.71-1.55l4.05-23.24.42-2.42c.13-.74-.2-1.27-.41-1.52a1.9 1.9 0 0 0-1.43-.68l-44.74-.51-27.67-.32-21.02-.26-4.09-.05-18.21-.23h-1.21a95.69 95.69 0 0 0-47.28 12.53l-13.18 7.52-3.75 2.14-23.06 13.15Z"/>
        <path fill="#4a4a4a" d="M258.6 152.6h-90.59l-40.75-5.61H258.6v5.61zM74.13 53.86l-4.39-.79-12.39 7.35v3.82l16.78-10.38z"/>
        <g fill="#4a4a4a">
          <path d="M288.74 12.92c.23 0 .44-.13.55-.35L294.68.85a.6.6 0 0 0-.29-.79.6.6 0 0 0-.79.29l-5.39 11.72a.6.6 0 0 0 .29.79c.08.04.17.05.25.05Z"/>
          <path d="M288.44 11.92a2.9 2.9 0 0 1 2.9 2.89v.1h-5.79v-.1a2.9 2.9 0 0 1 2.9-2.89Z"/>
        </g>
        <path fill="#ba0c2f" d="M355.71 100.2v49.85h7.72a4.56 4.56 0 0 0 4.57-4.56v-35.23a10.07 10.07 0 0 0-10.08-10.06h-2.2Z"/>
        <path fill="#ba0c2f" d="M0 105.92v40.43a3.69 3.69 0 0 0 3.69 3.69H360.2V74.37c0-.64-.05-1.26-.15-1.87L4.42 88.8A35.48 35.48 0 0 0 0 105.92Z" opacity=".25"/>
        <path fill="#ba0c2f" d="M0 141.34v5.47a3.24 3.24 0 0 0 3.24 3.24h360.19a4.57 4.57 0 0 0 4.57-4.56v-20.07l-7.79.34-4.49.2L82.2 137.87l-63.81 2.93-18.39.54Z" opacity=".25"/>
        <g>
          <path fill="#4a4a4a" d="m314.86 23.04 26.16 39.36h8.46l-1.19-1.8-7.97-12.01-14.15-21.29a31.87 31.87 0 0 0-3.71-4.28h-7.6Z"/>
          <path fill="#b9d9eb" d="m318.21 24.84 23.77 35.77h6.3l-22.12-33.29a31.87 31.87 0 0 0-2-2.48h-5.96Z"/>
        </g>
        <g fill="#4a4a4a">
          <path d="m191.18 64.2 10.71-.78.31-.03 10.3-.74 6.31-40.6-10.41-.14h-.61l-10.02-.13-6.59 42.42zM106.01 68.02l3.4-.26 4.3-23.72-3.75 2.14-3.95 21.84z"/>
        </g>
        <path fill="#ba0c2f" d="M0 105.93v39.51a4.62 4.62 0 0 0 4.61 4.61H360.2V74.38c0-6.61-5.37-11.97-11.99-11.97l-7.9-13.8-14.15-21.29a31.87 31.87 0 0 0-3.71-4.28h1.8a33.4 33.4 0 0 0-23.29-9.45H172.31c-21.76 0-43.11 5.9-61.77 17.07l-53 31.74-32.09 9.49a35.43 35.43 0 0 0-14.85 8.75A35.4 35.4 0 0 0 0 105.93Zm69.73-39.42 16.95-9.68.6-.34 38.5-21.96a97.84 97.84 0 0 1 49.71-12.85l22.3.28 10.01.13h.61l10.4.14 72.41.83a4.27 4.27 0 0 1 4.17 5l-4.46 25.66a4.25 4.25 0 0 1-3.91 3.52l-74.51 5.43-21.3 1.55-103.93 7.57-.6.04-14.99 1.09c-3.66.26-5.14-4.6-1.96-6.41Z"/>
        <path fill="#993a34" d="M87.17 56.52v-.88a8 8 0 0 1 4.03-6.94l31.68-18.07a97.65 97.65 0 0 1 48.31-12.81h1.23l43.32.54 80.52.83a7.4 7.4 0 0 1 7.24 6.18l6.19 36.86a50.03 50.03 0 0 1-17.9 47.35 15.89 15.89 0 0 0-5.9 12.39v11.78a8 8 0 0 1-8.01 7.99H95.83a8.66 8.66 0 0 1-8.66-8.64V71.81l-.6.04v61.24c0 5.1 4.15 9.24 9.26 9.24h182.04a8.6 8.6 0 0 0 8.61-8.59v-11.78c0-4.65 2.07-9 5.68-11.93a50.6 50.6 0 0 0 18.12-47.91l-6.19-36.86a7.99 7.99 0 0 0-7.82-6.67l-80.52-.83-43.32-.54a98.22 98.22 0 0 0-49.85 12.88L90.9 48.17a8.63 8.63 0 0 0-4.33 7.47v1.22l.6-.34Z"/>
        <path fill="#d98307" d="M339.22 80.79v2.8c0 5.81 4.08 10.83 9.77 12.02l11.21 2.34V76.86h-17.04a3.93 3.93 0 0 0-3.94 3.93Z"/>
        <g>
          <path fill="#993a34" d="m207.68 22.11.61.01.62-4.1-.6-.1-.63 4.19z"/>
          <path fill="#3c3c3c" d="m201.5 63.41.3.04.3.05v-.07l6.19-41.31-.61-.01-6.18 41.3z"/>
        </g>
        <path fill="#993a34" d="m195.97 142.01 5.53-78.58.6.04-5.54 78.59z"/>
        <g>
          <path fill="#993a34" d="m287.93 69.38 11.03-.76a3.68 3.68 0 1 0-.51-7.34l-11.03.76a3.68 3.68 0 1 0 .51 7.34Z"/>
          <path fill="#878e94" d="M296.17 65.13a2.99 2.99 0 1 1-5.98.4 2.99 2.99 0 0 1 5.98-.4Z"/>
          <path fill="#b5bec3" d="m299.4 66.66-12.19.84a1.56 1.56 0 1 1-.21-3.11l12.19-.84a1.56 1.56 0 1 1 .21 3.11Z"/>
        </g>
        <g>
          <path fill="#993a34" d="m181.3 77.49 11.03-.76a3.68 3.68 0 1 0-.51-7.34l-11.03.76a3.68 3.68 0 1 0 .51 7.34Z"/>
          <path fill="#878e94" d="M189.55 73.24a2.99 2.99 0 1 1-5.98.4 2.99 2.99 0 0 1 5.98-.4Z"/>
          <path fill="#b5bec3" d="m192.78 74.78-12.19.84a1.56 1.56 0 1 1-.21-3.11l12.19-.84a1.56 1.56 0 1 1 .21 3.11Z"/>
        </g>
        <path fill="#a8433d" d="M6.27 142.04h3a1.5 1.5 0 0 0 1.51-1.51v-18.7a1.54 1.54 0 0 0-2.48-1.21l-1.97 1.52a5.54 5.54 0 0 0-2.15 4.37v13.47c0 1.15.93 2.07 2.08 2.07Z"/>
        <path fill="#d5e0e6" d="M10.79 139.35H8.28a1.84 1.84 0 0 1-1.84-1.84v-6.49c0-1.02.82-1.84 1.84-1.84h2.51v10.17Z"/>
        <path fill="#d5e0e6" d="M10.79 129.18h-.97c-.73 0-1.33-.59-1.33-1.33v-2.13c0-.73.59-1.33 1.33-1.33h.97v4.79Z"/>
        <g>
          <path fill="#ba0c2f" d="M90.51 64.43v2.18a5.54 5.54 0 0 0 5.53 5.53h5.83a6.61 6.61 0 1 0 0-13.22h-5.83a5.54 5.54 0 0 0-5.53 5.53Z"/>
          <path fill="#545454" d="M98.41 68.71v3.42h3.47a6.61 6.61 0 0 0 6.57-5.73h-7.72a2.3 2.3 0 0 0-2.31 2.31Z"/>
        </g>
        <path fill="#f4a025" d="M349.31 87.15v1.62a6.8 6.8 0 0 0 6.81 6.78h4.09v-8.4h-10.89Z"/>
        <path fill="#ffb242" d="M345.09 80.94v4.56c0 1.82 1.2 3.42 2.96 3.93l12.16 3.51V78.41h-12.58a2.54 2.54 0 0 0-2.54 2.54Z"/>
        <path fill="#993a34" d="m338.77 122.03 11.43-26.24.55.24-11.43 26.24zM35.37 120.16l.5-.32L20.7 95.87l-.5.32 15.17 23.97z"/>
        <g>
          <path fill="#3c3c3c" d="M17.09 150.05h67.38c0-4.3-.81-8.41-2.28-12.19a33.7 33.7 0 0 0-65.1 12.19Z"/>
          <g>
            <ellipse cx="50.78" cy="150.05" fill="#4a4a4a" rx="30" ry="29.95"/>
            <ellipse cx="50.78" cy="150.05" fill="#b5bec3" rx="21.79" ry="21.76"/>
            <path fill="#62676b" d="M30.85 150.05a19.62 19.62 0 0 0 4.04 11.99 19.92 19.92 0 0 0 35.83-11.99c0-.34 0-.68-.03-1.02a19.71 19.71 0 0 0-5.31-12.53 19.63 19.63 0 0 0-14.6-6.35 19.77 19.77 0 0 0-14.6 6.35 19.74 19.74 0 0 0-5.34 13.55Z"/>
            <g fill="#878e94">
              <path d="m48.32 130.31.75 15.08.14 2.81.05.98.03.62h2.95v-.02l.03-.6.05-.98.14-2.81.75-15.08a19.93 19.93 0 0 0-4.92 0Z"/>
              <path d="m49.81 148.91.05.05.75.63.17.14.09.08.23.2.17.14.75.62.05.05h.01v-.02l.41-.44.67-.72 1.92-2.06 10.29-11.07a19.59 19.59 0 0 0-3.76-3.15l-9.13 12.04-1.7 2.24-.6.79-.37.48Z"/>
              <path d="M50.77 148.55v.07l.18.96.04.22.02.12.03.18.02.11.04.22.17.97v.06h.01l.6-.08.98-.12 2.79-.35 15.01-1.87a19.71 19.71 0 0 0-.85-4.82l-14.74 3.36-2.75.62-.96.22-.6.14h-.01Z"/>
              <path d="m50.26 151.45.51.33.83.54 2.36 1.52 12.71 8.2a20.3 20.3 0 0 0 2.46-4.24l-13.47-6.89-2.5-1.28-.88-.45-.54-.28-.03.05-.5.86-.11.2-.06.1-.09.15-.06.1-.11.19-.49.85-.03.06Z"/>
              <path d="M49.48 150.79v.02l.18.57.29.94.83 2.68 4.46 14.43a18.8 18.8 0 0 0 4.61-1.67l-5.88-13.92-1.1-2.58-.38-.91-.24-.57-.05.02-.93.34-.21.07-.11.04-.17.07-.11.04-.21.07-.93.34-.05.02Z"/>
              <path d="M41.71 167.77a19.2 19.2 0 0 0 4.61 1.66l4.46-14.42.83-2.69.29-.94.18-.58-.06-.03-.92-.34-.21-.07-.11-.04-.16-.06-.12-.05-.21-.08-.93-.33-.05-.02v.02l-.24.56-.38.9-1.09 2.58-5.88 13.93Z"/>
              <path d="M32.43 157.8a19.07 19.07 0 0 0 2.46 4.24l12.71-8.2 2.36-1.52.83-.54.52-.33-.03-.06-.49-.85-.11-.19-.06-.1-.09-.15-.07-.11-.1-.19-.49-.85-.03-.06h-.01v.01l-.54.27-.88.45-2.49 1.28-13.47 6.89Z"/>
              <path d="m30.88 149.03 15.02 1.87 2.79.35.98.12.6.08h.01v-.06l.18-.96.03-.22.03-.12.03-.18.02-.11.03-.22.17-.96v-.07l-.6-.14-.96-.22-2.75-.62-14.74-3.36a19.25 19.25 0 0 0-.85 4.82Z"/>
              <path d="m36.19 136.5 10.29 11.07 1.92 2.06.68.73.42.45.05-.04.75-.64.17-.14.09-.08.14-.11.09-.08.17-.14.76-.64.04-.03v-.01l-.36-.48-.6-.79-1.7-2.24-9.13-12.04a19.29 19.29 0 0 0-3.76 3.15Z"/>
            </g>
            <ellipse cx="50.78" cy="150.05" fill="#b5bec3" rx="7.35" ry="7.34"/>
            <circle cx="50.78" cy="150.05" r="2.81" fill="none" stroke="#878e94" stroke-miterlimit="10" stroke-width="2.13"/>
            <g fill="#878e94">
              <path d="M51.61 145.21c0 .45-.37.82-.82.82s-.82-.37-.82-.82.37-.82.82-.82.82.37.82.82ZM55.39 148.35a.82.82 0 1 1-.82-1.42.82.82 0 0 1 .82 1.42ZM54.56 153.18a.82.82 0 1 1 .82-1.42.82.82 0 0 1-.82 1.42ZM49.95 154.88c0-.45.37-.82.82-.82s.82.37.82.82-.37.82-.82.82-.82-.37-.82-.82ZM46.17 151.74a.82.82 0 1 1 .82 1.42.82.82 0 0 1-.82-1.42ZM47 146.91a.82.82 0 1 1-.82 1.42.82.82 0 0 1 .82-1.42Z"/>
            </g>
          </g>
        </g>
        <g>
          <path fill="#3c3c3c" d="M286.53 150.05h67.38c0-4.3-.81-8.41-2.28-12.19a33.7 33.7 0 0 0-65.1 12.19Z"/>
          <g>
            <ellipse cx="320.22" cy="150.05" fill="#4a4a4a" rx="30" ry="29.95"/>
            <ellipse cx="320.22" cy="150.05" fill="#b5bec3" rx="21.79" ry="21.76"/>
            <path fill="#71787d" d="M300.29 150.05a19.62 19.62 0 0 0 4.04 11.99 19.92 19.92 0 0 0 35.83-11.99c0-.34 0-.68-.03-1.02a19.71 19.71 0 0 0-5.31-12.53 19.63 19.63 0 0 0-14.6-6.35 19.77 19.77 0 0 0-14.6 6.35 19.74 19.74 0 0 0-5.34 13.55Z"/>
            <g fill="#878e94">
              <path d="m317.77 130.31.75 15.08.14 2.81.05.98.03.62h2.95v-.02l.03-.6.05-.98.14-2.81.75-15.08a19.93 19.93 0 0 0-4.92 0Z"/>
              <path d="m319.25 148.91.05.05.75.63.17.14.09.08.23.2.17.14.75.62.05.05h.01v-.02l.41-.44.67-.72 1.92-2.06 10.29-11.07a19.59 19.59 0 0 0-3.76-3.15l-9.13 12.04-1.7 2.24-.6.79-.37.48Z"/>
              <path d="M320.21 148.55v.07l.18.96.04.22.02.12.03.18.02.11.04.22.17.97v.06h.01l.6-.08.98-.12 2.79-.35 15.01-1.87a19.71 19.71 0 0 0-.85-4.82l-14.74 3.36-2.75.62-.96.22-.6.14h-.01Z"/>
              <path d="m319.7 151.45.51.33.83.54 2.36 1.52 12.71 8.2a20.3 20.3 0 0 0 2.46-4.24l-13.47-6.89-2.5-1.28-.88-.45-.54-.28-.03.05-.5.86-.11.2-.06.1-.09.15-.06.1-.11.19-.49.85-.03.06Z"/>
              <path d="M318.92 150.79v.02l.18.57.29.94.83 2.68 4.46 14.43a18.8 18.8 0 0 0 4.61-1.67l-5.88-13.92-1.1-2.58-.38-.91-.24-.57-.05.02-.93.34-.21.07-.11.04-.17.07-.11.04-.21.07-.93.34-.05.02Z"/>
              <path d="M311.15 167.77a19.2 19.2 0 0 0 4.61 1.66l4.46-14.42.83-2.69.29-.94.18-.58-.06-.03-.92-.34-.21-.07-.11-.04-.16-.06-.12-.05-.21-.08-.93-.33-.05-.02v.02l-.24.56-.38.9-1.09 2.58-5.88 13.93Z"/>
              <path d="M301.87 157.8a19.07 19.07 0 0 0 2.46 4.24l12.71-8.2 2.36-1.52.83-.54.52-.33-.03-.06-.49-.85-.11-.19-.06-.1-.09-.15-.07-.11-.11-.19-.49-.85-.03-.06h-.01v.01l-.54.27-.88.45-2.49 1.28-13.47 6.89Z"/>
              <path d="m300.32 149.03 15.02 1.87 2.79.35.98.12.6.08h.01v-.06l.18-.96.03-.22.03-.12.03-.18.02-.11.03-.22.17-.96v-.07l-.6-.14-.96-.22-2.75-.62-14.74-3.36a19.25 19.25 0 0 0-.85 4.82Z"/>
              <path d="m305.63 136.5 10.29 11.07 1.92 2.06.68.73.42.45.05-.04.75-.64.17-.14.09-.08.14-.11.09-.08.17-.14.76-.64.04-.03v-.01l-.36-.48-.6-.79-1.7-2.24-9.13-12.04a19.29 19.29 0 0 0-3.76 3.15Z"/>
            </g>
            <ellipse cx="320.22" cy="150.05" fill="#b5bec3" rx="7.35" ry="7.34"/>
            <g fill="#878e94">
              <path d="M321.05 145.21c0 .45-.37.82-.82.82s-.82-.37-.82-.82.37-.82.82-.82.82.37.82.82ZM324.83 148.35a.82.82 0 1 1-.82-1.42.82.82 0 0 1 .82 1.42ZM324 153.18a.82.82 0 1 1 .82-1.42.82.82 0 0 1-.82 1.42ZM319.39 154.88c0-.45.37-.82.82-.82s.82.37.82.82c0 .45-.37.82-.82.82s-.82-.37-.82-.82ZM315.61 151.74a.82.82 0 1 1 .82 1.42.82.82 0 0 1-.82-1.42ZM316.44 146.91a.82.82 0 1 1-.82 1.42.82.82 0 0 1 .82-1.42Z"/>
            </g>
            <circle cx="320.22" cy="150.05" r="2.81" fill="none" stroke="#878e94" stroke-miterlimit="10" stroke-width="2.13"/>
          </g>
        </g>
        <g>
          <path fill="#d5e0e6" d="M.62 99.3h7.04c2.76 0 5.47-.42 8.06-1.25 2.78-.87 5.4-2.21 7.77-3.96l5.41-3.99 6.5-4.79a4.45 4.45 0 0 0 1.8-3.57v-.78a4.45 4.45 0 0 0-5.28-4.36L17.4 79.35l-6.81 1.29A35.43 35.43 0 0 0 .6 99.29Z"/>
          <path fill="#b5bec3" d="M.62 99.3h7.04c5.7 0 11.25-1.83 15.84-5.21l5.41-3.99H3.73a35.59 35.59 0 0 0-3.11 9.19Z"/>
          <path fill="#edf4f7" d="M.62 99.3h7.04c.57 0 1.14-.02 1.7-.05a7.32 7.32 0 0 0 6.85-6.63l1.2-13.26-6.81 1.29A35.43 35.43 0 0 0 .61 99.3Z"/>
        </g>
        <path fill="#4a4a4a" d="m71.58 72.94 15.01-1.1.6-.04 104-7.6 21.32-1.55 74.57-5.45a4.28 4.28 0 0 0 3.91-3.54l4.46-25.76a4.29 4.29 0 0 0-4.17-5.02l-72.46-.83-21.04-.27-22.32-.28a97.6 97.6 0 0 0-49.74 12.9L87.19 56.45l-.6.34-16.97 9.71c-3.18 1.82-1.7 6.7 1.96 6.43Zm15.3-13.55 23.08-13.21 3.75-2.15 13.19-7.55a95.31 95.31 0 0 1 47.31-12.58h1.21l18.22.23 4.09.05 21.04.26 27.69.32 44.78.52c.76.01 1.22.43 1.43.68.2.25.53.78.41 1.53l-.42 2.43-4.05 23.33a1.88 1.88 0 0 1-1.72 1.56l-20.59 1.5-55.36 4.04-57.65 4.21-38.24 2.79-5.64.41-3.4.25-19.12 1.39V59.38Z"/>
        <g>
          <path fill="#2a4657" d="m177.98 63.71-2.23 8.21-11.42-2.14-.06.27a.88.88 0 0 0-.2-.03c-1.29.03-4.21-3.2-5.83-3.74s-6.14-1.89-6.63-1.75c-.49.14.29 1.43 2.03 1.94 1.74.51 3.09 1.7 3.09 1.7s-5.04-1.32-6.53-.51c-1.49.81 3.22 1.47 4.07 2.11.85.63-4.61-.31-4.54.61.07.93 4.32 1.15 4.7 1.55.38.4-3.19.22-3.16 1.23.03 1 4.11.64 4.89 1.05.75.39 4.94 2.41 6.9 1.27l-.12.55 14.83 3.79c2.2.69 3.18-.54 3.39-1.67l3.9-14.53-7.11.11Z" opacity=".2"/>
          <g>
            <path fill="#ffa580" d="M164.03 68.54c-1.28.03-4.2-3.17-5.82-3.7-1.62-.54-6.13-1.87-6.62-1.73-.49.14.29 1.42 2.03 1.92 1.74.5 3.08 1.68 3.08 1.68s-5.03-1.31-6.52-.51c-1.49.8 3.22 1.45 4.07 2.09.85.63-4.6-.31-4.53.61.07.92 4.32 1.14 4.7 1.53.38.39-3.18.22-3.16 1.22.03.99 4.1.64 4.88 1.04.78.4 5.35 2.59 7.16 1.07 5.25 1.27 4.6 1.54 7.01 2.32l1-4.39c-1.57-.46-6.59-3.15-7.29-3.13Z"/>
            <path fill="#e99c9f" d="M177.72 78.23c2.2.68 3.17-.54 3.39-1.66l4.54-16.74c.55-2.08.48-3.37-1-4.41s-4.23-1.1-5.05.69l-3.91 14.31-11.4-2.12-1.38 6.17 14.8 3.75Z"/>
          </g>
        </g>
        <g>
          <path fill="#e99c9f" d="M185.27 50.74s-.04-2.72-.52-2.86c-.49-.14-9.04.73-9.68 1.28-.32.27-.29 1.29-.24 2.06.01.2.17.96.45 1.01l9.99-1.5Z"/>
          <path fill="#dd878d" d="M175.28 52.24h.01c.39.09 5.33-.67 9.98-1.5 0-.11 0-.26-.02-.42-3.99.71-9.2 1.51-9.83 1.52-.08-.1-.15-.45-.2-.86l-.4.25c.07.49.2.92.45 1.01Z"/>
        </g>
        <g>
          <path fill="#ffa580" d="M189.54 39.35c1.47-6.56 2.52-13.42 2.52-13.42-.66-2.23-8.38-4.35-8.38-4.35s-7.86-1.5-9.45.21c0 0-2.36 6.65-3.94 13.19-1.16 4.81-.74 8.26.56 9.97 1.48 1.94 4.33 3.67 6.42 4.16s5.09-.11 7.28-1.21c1.92-.96 3.91-3.71 4.99-8.54Z"/>
          <g>
            <path fill="#ffa580" d="M172.07 34.6c-.33 1.77-1.7 2.96-3.07 2.64-1.37-.32-2.21-2.01-1.89-3.79.33-1.77 1.7-2.96 3.07-2.64 1.37.32 2.21 2.01 1.89 3.79Z"/>
            <path fill="#d3735b" d="m169.59 36.08-.57-.14c.24-.93.79-3.52.51-4.29l.55-.2c.38 1.07-.41 4.27-.5 4.63Z"/>
            <path fill="#d3735b" d="m169.58 34.5-1.32-.73.29-.51 1.31.72-.28.52z"/>
            <path fill="#ffa580" d="M188.34 38.38c-.49 1.74.22 3.4 1.59 3.72 1.37.32 2.88-.83 3.37-2.57.49-1.74-.22-3.4-1.59-3.72-1.37-.32-2.88.83-3.37 2.57Z"/>
            <path fill="#d3735b" d="m189.91 40.79.57.12c.2-.94.85-3.51 1.43-4.07l-.41-.42c-.81.79-1.52 4.01-1.6 4.37Z"/>
            <path fill="#d3735b" d="m190.6 38.78 1.5-.07.02.59-1.5.07z"/>
          </g>
          <g fill="#7c5149">
            <path d="M177.68 30.04c-.6-.14-1.2-.25-1.81-.32-.29-.03-.56.1-.63.39-.06.25.11.6.4.63.61.07 1.21.18 1.81.32.66.16.9-.87.24-1.03ZM185.32 31.81c.6.14 1.19.31 1.76.51.27.09.46.33.4.63-.06.26-.37.49-.63.39-.58-.2-1.17-.37-1.76-.51-.66-.15-.42-1.18.24-1.03Z"/>
          </g>
          <path fill="#7c5149" d="m189.72 38.41-.61-.14c-1.18 4.31-4.79 5.44-4.79 5.44s1-2.93.07-3.81c-.93-.87-3.22.04-4.91-.35-1.7-.39-3.34-2.22-4.56-1.85-1.23.38-1.63 3.45-1.63 3.45s-2.74-2.61-1.9-6.99l-.61-.14c-.84 3.09-4.31 12.85 6.3 15.31l.12.03.12.03c10.61 2.46 11.8-7.83 12.42-10.97Zm-11.41 6.72c-4.69-.99-3.35-4.58-3.06-4.81.4-.31 1.99.9 3.75 1.28 2.08.45 4.12-.06 4.35.21.23.27-.36 4.3-5.03 3.32Z"/>
          <path fill="#7c5149" d="M192.17 25.74c-.33-1.74-3.85-5.2-8.15-6.19-4.23-.97-8.89.61-9.84 2.01-1.57 2.33-3.2 9.63-3.2 9.63l.34.54-.54 2.28.61.14s1.56-5.2 1.71-5.53c.14-.33 1.37-.9 1.43-1.05.07-.15.88-3.92 1.27-4.32.39-.4 14 2.75 14.17 3.29.17.53-.76 4.27-.77 4.44 0 .16.84 1.22.82 1.58-.02.36-.91 5.71-.91 5.71l.61.14.52-2.28.57-.32s1.89-7.31 1.36-10.07Z"/>
          <path fill="#d3735b" d="M178.72 42.43c-1.81-.42-3.06-1.17-3.15-1.22l.34-.56s3.27 1.94 6.77 1.25l.13.65a9.78 9.78 0 0 1-4.1-.12ZM178.62 43.91c-.56-.13-.86-.42-.89-.44l.46-.47s.6.54 1.69.2l.2.63c-.6.19-1.09.17-1.47.09Z"/>
          <path fill="#f2e5e2" d="M178.46 35.74c.14-.17.31-.31.47-.45.58-1.14.82-2.75.58-3.02-.08-.09-.15-.17-3.16-.87-2.99-.7-3.12-.66-3.22-.64-.42.12-1.02 1.79-.98 3.09.03 1.19.55 2.71 2.8 3.23l.07.02a3.3 3.3 0 0 0 2.89-.54c.15-.29.33-.56.55-.82Zm-3.3.71c-1.15-.25-1.89-.82-2.19-1.7-.45-1.3.16-2.88.4-3.33.84.14 4.68 1.04 5.57 1.3-.03.54-.26 2.24-1.29 3.19-.63.58-1.47.76-2.49.54Z"/>
          <path fill="#f2e5e2" d="m171.3 31.79-.18-.38.74-.3 1.04.24-.15.64-.81-.18-.64-.02zM184.76 39.36l-.07-.02c-2.19-.53-2.74-2.03-2.81-3.2-.09-1.34.46-3 .81-3.14.11-.04.2-.08 3.33.64 3.09.71 3.21.81 3.28.87.32.28.14 2.02-.44 3.15-.56 1.08-1.72 2.25-4.08 1.7Zm-1.78-5.7c-.21.49-.75 2.07-.25 3.38.32.84 1.03 1.4 2.11 1.66l.06.02c1.19.28 2.13.08 2.8-.6.96-.97 1.1-2.62 1.07-3.11-.84-.25-4.87-1.18-5.8-1.34Zm5.93 1.39Zm-.14-.16Z"/>
          <path fill="#f2e5e2" d="m190.23 36.19-.32-.21-.82-.19.15-.65 1.05.24.37.51-.43.3z"/>
          <path fill="#d3735b" d="M179.01 39.57a2.65 2.65 0 0 1-.79-.31 2.19 2.19 0 0 1-1-1.42c-.57-2.41 3.36-4.58 3.53-4.67l.32.58c-1.02.56-3.58 2.35-3.2 3.94.11.46.34.78.7 1 .91.55 2.32.21 2.33.2l.16.64c-.05.01-1.07.26-2.05.03Z"/>
          <path fill="#f2e5e2" d="m179.39 33.96-.52-.41s.69-.86 2.21-.51 1.63 1.23 1.64 1.32l-.66.05s-.09-.49-1.13-.73-1.52.25-1.54.27Z"/>
          <g fill="#6d453f">
            <path d="M177.34 21.9c-.06-.79.21-1.58.63-2.26-.31.07-.6.16-.89.24a4.16 4.16 0 0 0-.39 2.16c.06.52.27.95.56 1.32l1.14.2c-.54-.43-.99-.93-1.05-1.67ZM175.46 24.01c-.75-.25-1.54-.63-1.92-1.26a11 11 0 0 0-.29.69c.12.14.25.27.39.38.48.39 1.05.63 1.63.83l.19-.64ZM187.87 21.15c-.55.33-1.06.73-1.51 1.18-.73.73-1.37 1.75-1.17 2.75l.74.19c-.52-.96.47-2.09 1.13-2.69.44-.4.92-.74 1.43-1.02l-.62-.4ZM192.25 27.43c-.77.17-1.57.23-2.36.2l-.12.65c.81.04 1.63-.02 2.43-.17l.04-.68ZM183.88 19.52c-.25-.06-.51-.1-.77-.14-.5.57-.94 1.2-1.3 1.87-.48.89-.89 2.04-.41 2.94l.94.21a.33.33 0 0 0-.12-.19c-.92-.76-.07-2.25.38-3.02.36-.6.79-1.16 1.27-1.67ZM190.39 24.74c.32-.2.66-.37 1.02-.5a6.96 6.96 0 0 0-.44-.54 5.68 5.68 0 0 0-2.67 2.21l.66.2c.38-.54.88-1.01 1.44-1.37Z"/>
          </g>
          <path fill="#ffa195" d="M191.48 24.35a11.17 11.17 0 0 0-2.2-2.22c-1.34.15-3.54.26-5.73-.05a11.32 11.32 0 0 1-5.38-2.47c-1.08.24-2.03.59-2.75.98.5.83 2.15 2.2 7.13 3.39 5.67 1.36 8.05.79 8.93.38Z" opacity=".16"/>
        </g>
        <g>
          <path fill="#ffd4ae" d="M274.93 44.41a1 1 0 0 1-.51.36c-.2.06-1.19-.12-1.35-.26a1.45 1.45 0 0 1-.41-.53c-.07.21-.01.46.17.68.09.11.22.21.36.28.14.07.86.21 1.01.19.15-.02.3-.06.41-.13.24-.14.36-.37.33-.6Z" opacity=".5"/>
          <path fill="#d65357" d="m270.79 45.72.11.15-.11-.15Z"/>
          <g>
            <path fill="#ffa580" d="M277.84 38.34V38.41c-.06.31-.13.61-.22.91l-.02.07c-.26.94-.63 1.85-1.09 2.71l-.08.16-.34.57-.11.18-.18.28c-.6.92-1.3 1.75-2.05 2.47-.72.69-1.63 1.11-2.45 1.53l-.17.09c-1.17.61-2.23 1.1-3.41 1.02a3.18 3.18 0 0 1-.78-.16c-.38-.12-.75-.3-1.11-.51l-.05-.03-.31-.18-.72-.46-.03-.02c-.88-.56-1.74-1.06-2.46-1.97a14.02 14.02 0 0 1-1.82-3.02 4.97 4.97 0 0 1-.09-.22s-.03-.07-.04-.11l-.25-.62-.04-.13a16.67 16.67 0 0 1-.7-2.91c-.04-.33-.07-.67-.09-1v-.77l.02-.57c.01-.22.04-.43.06-.63.05-.43.12-.83.2-1.22.99-4.69 4.46-7.23 9.71-6.87 5.91.41 9.23 4.15 8.82 10.03l-.04.46c-.03.29-.08.57-.13.86Z"/>
            <path fill="#d3735b" d="M267.01 39.84c.15.23.37.41.67.53.29.12 1.8.25 2.14.17.34-.08.65-.23.92-.41.01.24-.19.6-.58.76-.2.08-.45.14-.72.17a8.58 8.58 0 0 1-1.54-.12 1.96 1.96 0 0 1-.62-.26c-.33-.22-.41-.61-.26-.83Z"/>
          </g>
          <path fill="#7a2a0e" d="M265.83 34.27c-.04.09-.14.13-.22.08a8.01 8.01 0 0 0-2.23-.74 4.56 4.56 0 0 0-2.37.37c-.09.04-.26.1-.31.04-.04-.08 0-.16.11-.21a5.56 5.56 0 0 1 2.55-.66c.89.03 1.73.27 2.52.6.1.04.15.15.11.25l-.14.29ZM271.77 33.97c-.1.03-.17.13-.14.23l.1.31c.03.1.12.14.21.11a7.92 7.92 0 0 1 2.32-.42c.79 0 1.58.28 2.3.7.09.05.24.14.3.08.05-.07.01-.16-.07-.22a5.2 5.2 0 0 0-2.43-1.01"/>
          <g>
            <g>
              <path fill="#faf4e8" d="M262.08 36.3s1.23-1.26 2.59-.84c1.35.43 1.42 2.04 1.19 2.24-.23.2-3.33.56-3.78-1.4Z"/>
              <path fill="#7d2f05" d="M265.95 37.15s-.13-1.45-1.45-1.63c-1.36-.19-1.77.51-2.42.77-.4.16-.8-.41-.69-.83.34.26.53.32 1.01.11.48-.21 3.23-1.4 3.55 1.58Z"/>
              <path fill="#4a3c33" d="M265.39 36.64c-.03.65-.61 1.16-1.31 1.14-.7-.03-1.24-.58-1.22-1.23.03-.66.61-1.17 1.31-1.14.7.03 1.24.58 1.22 1.23Z"/>
              <path fill="#fff" d="M264.22 36.23a.4.4 0 0 1-.43.4.4.4 0 0 1-.4-.43c0-.23.2-.41.43-.4.23 0 .41.2.4.43Z"/>
            </g>
            <g>
              <path fill="#faf4e8" d="M275.46 36.67s-1.13-1.35-2.52-1.03c-1.38.32-1.57 1.93-1.36 2.14.21.21 3.28.81 3.87-1.11Z"/>
              <path fill="#7d2f05" d="M271.53 37.24s.24-1.44 1.57-1.52c1.37-.08 1.72.64 2.35.96.39.19.83-.35.75-.78-.36.24-.55.28-1.02.03-.46-.25-3.11-1.64-3.66 1.31Z"/>
              <path fill="#4a3c33" d="M272.14 36.76c-.03.66.52 1.21 1.22 1.23.7.03 1.29-.48 1.31-1.14a1.22 1.22 0 0 0-1.22-1.23c-.7-.03-1.28.48-1.31 1.14Z"/>
              <path fill="#fff" d="M272.55 36.42c0 .23.17.42.4.43.23 0 .42-.17.43-.4a.42.42 0 0 0-.4-.43.42.42 0 0 0-.43.4Z"/>
            </g>
          </g>
          <path fill="#fff" d="m271.85 43.55-6.97-.3s1.05 2.92 3.4 2.81c2.35-.1 3.57-2.51 3.57-2.51Z"/>
          <g>
            <path fill="#ee8c72" d="M270.05 23.93c-5.87-.5-9.57.48-10 5.42l-.44 3.17a3.72 3.72 0 0 0 1.64-.81c.74-.79 3.09-3.4 5.49-3.64 0 0 1.26 5.15 7.28 5.49 1.97.11 3.81.36 5.42.67l-.05-3.27c.43-4.94-3.47-6.53-9.34-7.03Z"/>
            <g>
              <path fill="#591a06" d="M260.42 32.24s2.56-5.65 9.08-4.93c0 0-7.95-3.07-9.08 4.93Z"/>
              <path fill="#7a2a0e" d="M284 44.51c-.55-4.84-.41-5.35-.21-9.92a11.5 11.5 0 0 0-6.53-11.01c-5.42-2.75-8.89-1.41-9.61-1.07a7.69 7.69 0 0 0-5.07-.19c-2.54.82-3.91 1.93-5.36 5.47-1.44 3.51-.95 5.53-1.39 10.61-.32 3.74-1.62 5.46-1.77 7.12-.26 2.93 2.28 2.68 2.64 2.96 1.73 1.36 3.09.8 4.04.05 1.37-1.08.07-3.64-.47-5.73-.91-3.47-.74-10.08 1.29-13.33 1.58-2.53 4.41-2.61 5.59-2.52 0 .77.33 4.73 7.61 6.3 0 0 2.94.64 2.59 3.21-.42 3.03-1.37 5.26-1.37 5.26s-1.03 2.14-1.19 4.98c-.11 2 2.2 3.26 3.47 3.52.61.12 3.42.58 5.04-.71 0 0 1.19-.77.71-4.98Z"/>
              <path fill="#591a06" d="M267.23 26.63s-.64-2.06.34-3.91c0 0-.48 2.22-.34 3.91Z"/>
              <path fill="#fff" d="M279.8 25.27c-2.86.8-6.38 1.12-10.14.79a29.1 29.1 0 0 1-9.71-2.45 7.97 7.97 0 0 0-2.19 2.94c1.27.78 2.78 1.47 4.48 2.02 1.61-1.67 3.88-1.71 4.89-1.63 0 .39.09 1.62 1.15 2.94l1.04.11c5.09.44 9.74-.3 12.91-1.82a11.28 11.28 0 0 0-2.44-2.9Z" opacity=".05"/>
            </g>
          </g>
          <path fill="#ffa580" d="M260.74 40.72a.7.7 0 0 1-.14.16.92.92 0 0 1-.66.29c-.1 0-.21 0-.32-.03a1.18 1.18 0 0 1-.2-.07c-.41-.18-.76-.6-.9-1.15-.2-.79.13-1.55.73-1.76l.09-.03c.67-.16 1.38.39 1.59 1.22.13.51.04 1.01-.2 1.35ZM276 40.41c-.32.79-.07 1.64.57 1.88.64.24 1.42-.2 1.75-.99.32-.79.07-1.64-.57-1.88-.64-.25-1.42.2-1.75.99Z"/>
        </g>
        <g>
          <path fill="#4a3c33" d="M184.04 35.65c-.19.59.18 1.21.84 1.38.65.17 1.34-.17 1.53-.76.19-.59-.18-1.21-.84-1.38-.65-.17-1.34.17-1.53.76Z"/>
          <path fill="#fff" d="M185.26 35.51c-.07.23.07.47.33.54a.5.5 0 0 0 .6-.3c.07-.23-.07-.47-.33-.54a.5.5 0 0 0-.6.3Z"/>
        </g>
        <g>
          <path fill="#4a3c33" d="M174.82 33.22c-.19.59.18 1.21.84 1.38.65.17 1.34-.17 1.53-.76.19-.59-.18-1.21-.84-1.38-.65-.17-1.34.17-1.53.76Z"/>
          <path fill="#fff" d="M176.05 33.08c-.07.23.07.47.33.54a.5.5 0 0 0 .6-.3c.07-.23-.07-.47-.33-.54a.5.5 0 0 0-.6.3Z"/>
        </g>
      </g>
    </g>
  </g>
</svg>
