<svg xmlns="http://www.w3.org/2000/svg" viewBox="0 0 368 180">
  <g>
    <g id="Layer_2">
      <g>
        <g>
          <path fill="#4a4a4a" d="m71.58 72.94 15.01-1.1.6-.04 104-7.6 21.32-1.55 74.57-5.45a4.28 4.28 0 0 0 3.91-3.54l4.46-25.76a4.29 4.29 0 0 0-4.17-5.02l-72.46-.83-21.04-.27-22.32-.28a97.6 97.6 0 0 0-49.74 12.9L87.19 56.45l-.6.34-16.97 9.71c-3.18 1.82-1.7 6.7 1.96 6.43Z"/>
          <path fill="#4a4a4a" d="M70.31 69.76c.07.23.28.79.98.79h.11l15.48-1.13V59.4L70.8 68.61c-.58.32-.58.82-.49 1.17Z"/>
          <path fill="#b9d9eb" d="M86.88 59.39v10.02L106 68.02l3.4-.25 5.64-.41 38.24-2.79 57.65-4.21 55.36-4.04 20.59-1.5a1.9 1.9 0 0 0 1.72-1.56l4.05-23.33.42-2.43c.13-.75-.2-1.27-.41-1.53a1.87 1.87 0 0 0-1.43-.68l-44.78-.52-27.69-.32-21.04-.26-4.09-.05-18.22-.23h-1.21a95.4 95.4 0 0 0-47.31 12.58l-13.19 7.55-3.75 2.15L86.87 59.4Z"/>
          <path fill="#b9d9eb" d="M86.88 59.39v10.02L106 68.02l3.4-.25 5.64-.41 38.24-2.79 57.65-4.21 55.36-4.04 20.59-1.5a1.9 1.9 0 0 0 1.72-1.56l4.05-23.33.42-2.43c.13-.75-.2-1.27-.41-1.53a1.87 1.87 0 0 0-1.43-.68l-44.78-.52-27.69-.32-21.04-.26-4.09-.05-18.22-.23h-1.21a95.4 95.4 0 0 0-47.31 12.58l-13.19 7.55-3.75 2.15L86.87 59.4Z"/>
          <path fill="#b9d9eb" d="m266.3 56.31 20.59-1.5a1.9 1.9 0 0 0 1.72-1.56l4.05-23.33-26.35 26.39ZM153.29 64.56l57.65-4.21 35.53-35.59-27.7-.31-21.03-.27-4.1-.05-40.35 40.43zM86.88 59.39v10.02L106 68.02l3.4-.25 5.64-.41 41.78-41.85a95.31 95.31 0 0 0-29.93 10.98l-13.19 7.55-3.75 2.15L86.87 59.4Z"/>
        </g>
        <g>
          <g>
            <g fill="#faa97a">
              <path d="M258.61 70.43c-.02-1.05-.64-1.69-1.7-1.78h-.06a2.05 2.05 0 0 0-2.22 1.84"/>
              <path d="M257.06 58.37a2 2 0 0 0-1.97 2 192 192 0 0 1-.43 9.82 1.98 1.98 0 0 0 1.78 2.1h.06c1.09.1 2.05-.68 2.16-1.77.28-2.84.61-7.79.29-10.56a1.8 1.8 0 0 0-1.83-1.59h-.06Z"/>
            </g>
            <path fill="#db5335" d="M258.87 51.47c-2.62 1.27-3.81 4.94-4.43 14.65.13.18 1.16 1.28 6.68 1.13.27-.07.21-16.97-2.25-15.78Z"/>
            <path fill="#bd472e" d="M257.07 67.08c1.47-3.18 2.53-10.98 2.91-14.56 1.34 3.51 1.36 14.67 1.14 14.73-1.78.05-3.09-.03-4.05-.17Z"/>
          </g>
          <g>
            <g>
              <path fill="#db5335" d="M258.41 51.73c5.1-2.32 9.93-2.31 9.93-2.31h.5s5.5.13 10.56 2.63c-.37 7.68-1.23 19.93-.6 27.77 0 0-3.54 1.52-10.12 1.52-6.87-.23-10.15-1.79-10.15-1.79.63-7.84 1.23-19.21-.14-27.83Z"/>
              <path fill="#fff" d="M264.18 49.96v-.05c.31-.06.61-.12.89-.16 1.91-.3 3.27-.32 3.27-.32l.26.01.26-.01s2.6.06 5.89.9c-.27 1.78-3.39 3.16-6.13 3.16-2.93 0-4.45-1.58-4.45-3.53Z"/>
              <path fill="#bd472e" d="M258.86 66.72c.07 0 .14-.06.14-.13s.18-7 .29-9.54c0-.08-.06-.14-.13-.14s-.14.06-.14.13c-.11 2.54-.29 9.47-.29 9.54 0 .08.06.14.13.14ZM258.55 79.56c.09-1.08.17-2.23.24-3.44.34 2.47 13.59 6.11 19.81-1.94.02 2.03.08 3.94.22 5.64 0 0-3.54 1.52-10.12 1.52-6.87-.23-10.15-1.79-10.15-1.79Z"/>
            </g>
            <path fill="#faa97a" d="M265.07 49.74c2.37-.43 4.38-.52 4.38-.52s1.95.19 4.29.85c-.48 1.43-3.06 2.3-5.11 2.3s-3.1-1.18-3.55-2.63Z"/>
          </g>
          <g>
            <path fill="#faa97a" d="M269.42 52.23a2.49 2.49 0 0 0 2.49-2.48v-3.78a2.2 2.2 0 0 0-2.2-2.19h-.58a2.2 2.2 0 0 0-2.2 2.19v3.78a2.48 2.48 0 0 0 2.49 2.48Z"/>
            <path fill="#631" d="M269.13 43.77h.58c1.21 0 2.2.98 2.2 2.19v.68c-1.03 1.25-3.01 1.89-4.97 1.59v-2.28a2.2 2.2 0 0 1 2.2-2.19Z"/>
          </g>
          <path fill="#fff" d="M259.16 60.3c-.02.45 0 .91.02 1.36 3.35 1.07 7.55 1.3 9.98 1.33h.7c3.49 0 6.88-.34 9.29-.92l.06-1.3c-2.46.65-6.2 1.02-10.04.97-4.06-.05-7.59-.58-10.02-1.45Z"/>
          <g>
            <path fill="#faa97a" d="M280.88 59.89a1.93 1.93 0 0 0-1.59 2.25c.45 2.24 1.07 6.65 1.41 9.41a2 2 0 0 0 2.18 1.68h.06a1.93 1.93 0 0 0 1.83-2.06c-.26-2.75-.85-7.52-1.7-10.09a1.85 1.85 0 0 0-2.19-1.18Z"/>
            <path fill="#db5335" d="M279.15 51.95c2.77.91 4.39 4.33 6.31 13.87-.11.19-1.78 2.01-7.07 2.01-.28-.03-2.92-15.6.76-15.88Z"/>
            <path fill="#bd472e" d="M278.38 67.96h.66c.08 0 .14-.07.13-.14 0-.08-.07-.13-.14-.13h-.57a49.84 49.84 0 0 1-1.11-10.49c0-.08-.06-.14-.13-.14s-.14.06-.14.13a50.2 50.2 0 0 0 .91 9.64c.22 1.11.28 1.12.39 1.13h.02Z"/>
          </g>
        </g>
        <path fill="#bfe7f7" d="M186.19 55.83c-.22-2.59-3.39-5.7-4.78-6.8l-4.46 1.42c-1.46.47-2.8 1.26-3.91 2.31s-2.42 2.43-3.19 3.71c-3.54 5.89-3.3 19.31-3.31 20.16 0 0 3.9 1.73 8.92 2.26 5.02.52 6.42-.64 6.42-.64 2.19-4.55 4.66-18.21 4.31-22.42Z"/>
        <g>
          <path fill="#ab6b50" d="M193.3 51.24c.52-.27.5-1.33.24-1.59-2.1-1.29-4.73-3.1-2.68-4.99 1.54-1.35 4.17.2 5.96-1.68a15.34 15.34 0 0 0 2.62-4.15 4.76 4.76 0 0 0-4-4.81 4.7 4.7 0 0 0-5.31 4.03l-1.1 7.69a4.8 4.8 0 0 0 2.39 4.86c-2.77.55-4.48 1.83-4.48 1.83l-2.53 17.16v.7l3.05.04c-.52-7.08-1.04-15.77 5.86-19.08Z"/>
          <path fill="#be7759" d="M196.81 42.97c-1.79 1.88-4.42.34-5.96 1.68-2.05 1.89.58 3.7 2.68 4.99.26.26.28 1.32-.24 1.59-6.9 3.31-6.37 12-5.86 19.08l9.15.12s2.27-16.89-1.03-19.68a4.77 4.77 0 0 0 2.72-3.65l1.1-7.69c.03-.2.04-.4.04-.6a15.34 15.34 0 0 1-2.62 4.15Z"/>
          <g>
            <g>
              <path fill="#faa97a" d="M140.85 60.84c-1.19-.21-3.31-4.04-4.7-4.89-1.39-.85-5.3-3.06-5.78-3.01-.47.05.02 1.51 1.53 2.35a8.75 8.75 0 0 1 2.54 2.3s-4.39-2.28-5.9-1.74c-1.51.55 2.7 2.09 3.37 2.9.67.81-4.17-1.17-4.27-.22-.09.96 3.77 1.97 4.05 2.45.28.47-2.96-.36-3.11.66-.15 1.03 3.66 1.42 4.31 1.98.65.56 4.47 3.66 6.39 2.43 0 0 5.06.87 7.15 1.19l.55-5.28-6.14-1.12Z"/>
              <g opacity=".89">
                <path fill="#ffdebf" d="M137.29 63.94c-.06.02-.13 0-.18-.06a7.11 7.11 0 0 1-1.47-3.47c-.41-.29-2.06-1.5-2.17-2.39a.67.67 0 0 1 .13-.52c.7-.87 3.12 1.1 3.85 1.73.08.07.09.2.02.28a.18.18 0 0 1-.27.03c-1.35-1.17-3-2.18-3.32-1.78a.26.26 0 0 0-.05.2c.09.65 1.53 1.78 2.08 2.16.04.03.08.08.08.14 0 .02.26 2.1 1.38 3.33.07.08.07.21 0 .28-.02.03-.06.04-.09.05Z"/>
              </g>
            </g>
            <path fill="#bfe7f7" d="m175.66 52.48-16.51 8.4-18.34-1.06-.64 7.15 20.71 1.56c.15-.09.3-.19.44-.3l18-10.72a3.33 3.33 0 0 0 .58-4.47 2.91 2.91 0 0 0-4.24-.56Z"/>
          </g>
          <path fill="#86533d" d="M139.33 72.57c-.97.66-2.3.4-2.95-.59l-12.11-18.32a2.2 2.2 0 0 1 .58-3c.97-.66 2.3-.4 2.95.59l12.11 18.32a2.2 2.2 0 0 1-.58 3Z"/>
          <path fill="#004f6b" d="M185.19 53.21c-.42-.68-.93-1.34-1.46-1.94-5.42 2.41-10.56 5.71-15.49 9.09-.59 2.07-.98 4.4-1.24 6.64 4.99-5.85 11.11-11.17 18.18-13.8Z" opacity=".25"/>
          <path fill="#004f6b" d="M180.63 56.74c-3.61 1.91-3.79 7.48-5.84 9.1-2.38 2-5.28 3.04-8.29 3.97-.26 3.58-.21 6.45-.22 6.83 0 0 3.9 1.73 8.92 2.26 5.02.52 6.42-.64 6.42-.64 1.46-3.02 3.04-10.07 3.83-15.7-3.03-.53-6.09-2.17-4.82-5.81Z" opacity=".25"/>
          <path fill="#728097" d="m164.04 67.99-2.21-3.42-.1.09.32-.35c10.01-11.15 25.18-19.16 36.14-23.92l1.37 3.93c-15.22 6.61-27.26 14.54-34.81 22.95-.34.38-.5.56-.7.72Z"/>
          <path fill="#62676b" d="M86.23 64.93s29.38-11.38 32.34-10.9c2.96.48 15.66 13.87 15.66 13.87L85.7 71.09l.53-6.16Z"/>
        </g>
        <path fill="none" d="M87.19 59.44v9.98l19.11-1.39 3.4-.25 5.63-.41 38.22-2.78 57.61-4.19 55.32-4.03 20.57-1.5c.86-.07 1.57-.7 1.71-1.55l4.05-23.24.42-2.42c.13-.74-.2-1.27-.41-1.52a1.9 1.9 0 0 0-1.43-.68l-44.74-.51-27.67-.32-21.02-.26-4.09-.05-18.21-.23h-1.21a95.69 95.69 0 0 0-47.28 12.53l-13.18 7.52-3.75 2.14-23.06 13.15Z"/>
        <path fill="#4a4a4a" d="M258.6 152.6h-90.59l-40.75-5.61H258.6v5.61zM74.13 53.86l-4.39-.79-12.39 7.35v3.82l16.78-10.38z"/>
        <g fill="#4a4a4a">
          <path d="M288.74 12.92c.23 0 .44-.13.55-.35L294.68.85a.6.6 0 0 0-.29-.79.6.6 0 0 0-.79.29l-5.39 11.72a.6.6 0 0 0 .29.79c.08.04.17.05.25.05Z"/>
          <path d="M288.44 11.92a2.9 2.9 0 0 1 2.9 2.89v.1h-5.79v-.1a2.9 2.9 0 0 1 2.9-2.89Z"/>
        </g>
        <path fill="#ba0c2f" d="M355.71 100.2v49.85h7.72a4.56 4.56 0 0 0 4.57-4.56v-35.23a10.07 10.07 0 0 0-10.08-10.06h-2.2Z"/>
        <path fill="#ba0c2f" d="M0 105.92v40.43a3.69 3.69 0 0 0 3.69 3.69H360.2V74.37c0-.64-.05-1.26-.15-1.87L4.42 88.8A35.48 35.48 0 0 0 0 105.92Z" opacity=".25"/>
        <path fill="#ba0c2f" d="M0 141.34v5.47a3.24 3.24 0 0 0 3.24 3.24h360.19a4.57 4.57 0 0 0 4.57-4.56v-20.07l-7.79.34-4.49.2L82.2 137.87l-63.81 2.93-18.39.54Z" opacity=".25"/>
        <g>
          <path fill="#4a4a4a" d="m314.86 23.04 26.16 39.36h8.46l-1.19-1.8-7.97-12.01-14.15-21.29a31.87 31.87 0 0 0-3.71-4.28h-7.6Z"/>
          <path fill="#b9d9eb" d="m318.21 24.84 23.77 35.77h6.3l-22.12-33.29a31.87 31.87 0 0 0-2-2.48h-5.96Z"/>
        </g>
        <g fill="#4a4a4a">
          <path d="m191.18 64.2 10.71-.78.31-.03 10.3-.74 6.31-40.6-10.41-.14h-.61l-10.02-.13-6.59 42.42zM106.01 68.02l3.4-.26 4.3-23.72-3.75 2.14-3.95 21.84z"/>
        </g>
        <path fill="#ba0c2f" d="M0 105.93v39.51a4.62 4.62 0 0 0 4.61 4.61H360.2V74.38c0-6.61-5.37-11.97-11.99-11.97l-7.9-13.8-14.15-21.29a31.87 31.87 0 0 0-3.71-4.28h1.8a33.4 33.4 0 0 0-23.29-9.45H172.31c-21.76 0-43.11 5.9-61.77 17.07l-53 31.74-32.09 9.49a35.43 35.43 0 0 0-14.85 8.75A35.4 35.4 0 0 0 0 105.93Zm69.73-39.42 16.95-9.68.6-.34 38.5-21.96a97.84 97.84 0 0 1 49.71-12.85l22.3.28 10.01.13h.61l10.4.14 72.41.83a4.27 4.27 0 0 1 4.17 5l-4.46 25.66a4.25 4.25 0 0 1-3.91 3.52l-74.51 5.43-21.3 1.55-103.93 7.57-.6.04-14.99 1.09c-3.66.26-5.14-4.6-1.96-6.41Z"/>
        <path fill="#993a34" d="M87.17 56.52v-.88a8 8 0 0 1 4.03-6.94l31.68-18.07a97.65 97.65 0 0 1 48.31-12.81h1.23l43.32.54 80.52.83a7.4 7.4 0 0 1 7.24 6.18l6.19 36.86a50.03 50.03 0 0 1-17.9 47.35 15.89 15.89 0 0 0-5.9 12.39v11.78a8 8 0 0 1-8.01 7.99H95.83a8.66 8.66 0 0 1-8.66-8.64V71.81l-.6.04v61.24c0 5.1 4.15 9.24 9.26 9.24h182.04a8.6 8.6 0 0 0 8.61-8.59v-11.78c0-4.65 2.07-9 5.68-11.93a50.6 50.6 0 0 0 18.12-47.91l-6.19-36.86a7.99 7.99 0 0 0-7.82-6.67l-80.52-.83-43.32-.54a98.22 98.22 0 0 0-49.85 12.88L90.9 48.17a8.63 8.63 0 0 0-4.33 7.47v1.22l.6-.34Z"/>
        <path fill="#d98307" d="M339.22 80.79v2.8c0 5.81 4.08 10.83 9.77 12.02l11.21 2.34V76.86h-17.04a3.93 3.93 0 0 0-3.94 3.93Z"/>
        <g>
          <path fill="#993a34" d="m207.68 22.11.61.01.62-4.1-.6-.1-.63 4.19z"/>
          <path fill="#3c3c3c" d="m201.5 63.41.3.04.3.05v-.07l6.19-41.31-.61-.01-6.18 41.3z"/>
        </g>
        <path fill="#993a34" d="m195.97 142.01 5.53-78.58.6.04-5.54 78.59z"/>
        <g>
          <path fill="#993a34" d="m287.93 69.38 11.03-.76a3.68 3.68 0 1 0-.51-7.34l-11.03.76a3.68 3.68 0 1 0 .51 7.34Z"/>
          <path fill="#878e94" d="M296.17 65.13a2.99 2.99 0 1 1-5.98.4 2.99 2.99 0 0 1 5.98-.4Z"/>
          <path fill="#b5bec3" d="m299.4 66.66-12.19.84a1.56 1.56 0 1 1-.21-3.11l12.19-.84a1.56 1.56 0 1 1 .21 3.11Z"/>
        </g>
        <g>
          <path fill="#993a34" d="m181.3 77.49 11.03-.76a3.68 3.68 0 1 0-.51-7.34l-11.03.76a3.68 3.68 0 1 0 .51 7.34Z"/>
          <path fill="#878e94" d="M189.55 73.24a2.99 2.99 0 1 1-5.98.4 2.99 2.99 0 0 1 5.98-.4Z"/>
          <path fill="#b5bec3" d="m192.78 74.78-12.19.84a1.56 1.56 0 1 1-.21-3.11l12.19-.84a1.56 1.56 0 1 1 .21 3.11Z"/>
        </g>
        <path fill="#a8433d" d="M6.27 142.04h3a1.5 1.5 0 0 0 1.51-1.51v-18.7a1.54 1.54 0 0 0-2.48-1.21l-1.97 1.52a5.54 5.54 0 0 0-2.15 4.37v13.47c0 1.15.93 2.07 2.08 2.07Z"/>
        <path fill="#d5e0e6" d="M10.79 139.35H8.28a1.84 1.84 0 0 1-1.84-1.84v-6.49c0-1.02.82-1.84 1.84-1.84h2.51v10.17Z"/>
        <path fill="#d5e0e6" d="M10.79 129.18h-.97c-.73 0-1.33-.59-1.33-1.33v-2.13c0-.73.59-1.33 1.33-1.33h.97v4.79Z"/>
        <g>
          <path fill="#ba0c2f" d="M90.51 64.43v2.18a5.54 5.54 0 0 0 5.53 5.53h5.83a6.61 6.61 0 1 0 0-13.22h-5.83a5.54 5.54 0 0 0-5.53 5.53Z"/>
          <path fill="#545454" d="M98.41 68.71v3.42h3.47a6.61 6.61 0 0 0 6.57-5.73h-7.72a2.3 2.3 0 0 0-2.31 2.31Z"/>
        </g>
        <path fill="#f4a025" d="M349.31 87.15v1.62a6.8 6.8 0 0 0 6.81 6.78h4.09v-8.4h-10.89Z"/>
        <path fill="#ffb242" d="M345.09 80.94v4.56c0 1.82 1.2 3.42 2.96 3.93l12.16 3.51V78.41h-12.58a2.54 2.54 0 0 0-2.54 2.54Z"/>
        <path fill="#993a34" d="m338.77 122.03 11.43-26.24.55.24-11.43 26.24zM35.37 120.16l.5-.32L20.7 95.87l-.5.32 15.17 23.97z"/>
        <g>
          <path fill="#3c3c3c" d="M17.09 150.05h67.38c0-4.3-.81-8.41-2.28-12.19a33.7 33.7 0 0 0-65.1 12.19Z"/>
          <g>
            <ellipse cx="50.78" cy="150.05" fill="#4a4a4a" rx="30" ry="29.95"/>
            <ellipse cx="50.78" cy="150.05" fill="#b5bec3" rx="21.79" ry="21.76"/>
            <path fill="#62676b" d="M30.85 150.05a19.62 19.62 0 0 0 4.04 11.99 19.92 19.92 0 0 0 35.83-11.99c0-.34 0-.68-.03-1.02a19.71 19.71 0 0 0-5.31-12.53 19.63 19.63 0 0 0-14.6-6.35 19.77 19.77 0 0 0-14.6 6.35 19.74 19.74 0 0 0-5.34 13.55Z"/>
            <g fill="#878e94">
              <path d="m48.32 130.31.75 15.08.14 2.81.05.98.03.62h2.95v-.02l.03-.6.05-.98.14-2.81.75-15.08a19.93 19.93 0 0 0-4.92 0Z"/>
              <path d="m49.81 148.91.05.05.75.63.17.14.09.08.23.2.17.14.75.62.05.05h.01v-.02l.41-.44.67-.72 1.92-2.06 10.29-11.07a19.59 19.59 0 0 0-3.76-3.15l-9.13 12.04-1.7 2.24-.6.79-.37.48Z"/>
              <path d="M50.77 148.55v.07l.18.96.04.22.02.12.03.18.02.11.04.22.17.97v.06h.01l.6-.08.98-.12 2.79-.35 15.01-1.87a19.71 19.71 0 0 0-.85-4.82l-14.74 3.36-2.75.62-.96.22-.6.14h-.01Z"/>
              <path d="m50.26 151.45.51.33.83.54 2.36 1.52 12.71 8.2a20.3 20.3 0 0 0 2.46-4.24l-13.47-6.89-2.5-1.28-.88-.45-.54-.28-.03.05-.5.86-.11.2-.06.1-.09.15-.06.1-.11.19-.49.85-.03.06Z"/>
              <path d="M49.48 150.79v.02l.18.57.29.94.83 2.68 4.46 14.43a18.8 18.8 0 0 0 4.61-1.67l-5.88-13.92-1.1-2.58-.38-.91-.24-.57-.05.02-.93.34-.21.07-.11.04-.17.07-.11.04-.21.07-.93.34-.05.02Z"/>
              <path d="M41.71 167.77a19.2 19.2 0 0 0 4.61 1.66l4.46-14.42.83-2.69.29-.94.18-.58-.06-.03-.92-.34-.21-.07-.11-.04-.16-.06-.12-.05-.21-.08-.93-.33-.05-.02v.02l-.24.56-.38.9-1.09 2.58-5.88 13.93Z"/>
              <path d="M32.43 157.8a19.07 19.07 0 0 0 2.46 4.24l12.71-8.2 2.36-1.52.83-.54.52-.33-.03-.06-.49-.85-.11-.19-.06-.1-.09-.15-.07-.11-.1-.19-.49-.85-.03-.06h-.01v.01l-.54.27-.88.45-2.49 1.28-13.47 6.89Z"/>
              <path d="m30.88 149.03 15.02 1.87 2.79.35.98.12.6.08h.01v-.06l.18-.96.03-.22.03-.12.03-.18.02-.11.03-.22.17-.96v-.07l-.6-.14-.96-.22-2.75-.62-14.74-3.36a19.25 19.25 0 0 0-.85 4.82Z"/>
              <path d="m36.19 136.5 10.29 11.07 1.92 2.06.68.73.42.45.05-.04.75-.64.17-.14.09-.08.14-.11.09-.08.17-.14.76-.64.04-.03v-.01l-.36-.48-.6-.79-1.7-2.24-9.13-12.04a19.29 19.29 0 0 0-3.76 3.15Z"/>
            </g>
            <ellipse cx="50.78" cy="150.05" fill="#b5bec3" rx="7.35" ry="7.34"/>
            <circle cx="50.78" cy="150.05" r="2.81" fill="none" stroke="#878e94" stroke-miterlimit="10" stroke-width="2.13"/>
            <g fill="#878e94">
              <path d="M51.61 145.21c0 .45-.37.82-.82.82s-.82-.37-.82-.82.37-.82.82-.82.82.37.82.82ZM55.39 148.35a.82.82 0 1 1-.82-1.42.82.82 0 0 1 .82 1.42ZM54.56 153.18a.82.82 0 1 1 .82-1.42.82.82 0 0 1-.82 1.42ZM49.95 154.88c0-.45.37-.82.82-.82s.82.37.82.82-.37.82-.82.82-.82-.37-.82-.82ZM46.17 151.74a.82.82 0 1 1 .82 1.42.82.82 0 0 1-.82-1.42ZM47 146.91a.82.82 0 1 1-.82 1.42.82.82 0 0 1 .82-1.42Z"/>
            </g>
          </g>
        </g>
        <g>
          <path fill="#3c3c3c" d="M286.53 150.05h67.38c0-4.3-.81-8.41-2.28-12.19a33.7 33.7 0 0 0-65.1 12.19Z"/>
          <g>
            <ellipse cx="320.22" cy="150.05" fill="#4a4a4a" rx="30" ry="29.95"/>
            <ellipse cx="320.22" cy="150.05" fill="#b5bec3" rx="21.79" ry="21.76"/>
            <path fill="#71787d" d="M300.29 150.05a19.62 19.62 0 0 0 4.04 11.99 19.92 19.92 0 0 0 35.83-11.99c0-.34 0-.68-.03-1.02a19.71 19.71 0 0 0-5.31-12.53 19.63 19.63 0 0 0-14.6-6.35 19.77 19.77 0 0 0-14.6 6.35 19.74 19.74 0 0 0-5.34 13.55Z"/>
            <g fill="#878e94">
              <path d="m317.77 130.31.75 15.08.14 2.81.05.98.03.62h2.95v-.02l.03-.6.05-.98.14-2.81.75-15.08a19.93 19.93 0 0 0-4.92 0Z"/>
              <path d="m319.25 148.91.05.05.75.63.17.14.09.08.23.2.17.14.75.62.05.05h.01v-.02l.41-.44.67-.72 1.92-2.06 10.29-11.07a19.59 19.59 0 0 0-3.76-3.15l-9.13 12.04-1.7 2.24-.6.79-.37.48Z"/>
              <path d="M320.21 148.55v.07l.18.96.04.22.02.12.03.18.02.11.04.22.17.97v.06h.01l.6-.08.98-.12 2.79-.35 15.01-1.87a19.71 19.71 0 0 0-.85-4.82l-14.74 3.36-2.75.62-.96.22-.6.14h-.01Z"/>
              <path d="m319.7 151.45.51.33.83.54 2.36 1.52 12.71 8.2a20.3 20.3 0 0 0 2.46-4.24l-13.47-6.89-2.5-1.28-.88-.45-.54-.28-.03.05-.5.86-.11.2-.06.1-.09.15-.06.1-.11.19-.49.85-.03.06Z"/>
              <path d="M318.92 150.79v.02l.18.57.29.94.83 2.68 4.46 14.43a18.8 18.8 0 0 0 4.61-1.67l-5.88-13.92-1.1-2.58-.38-.91-.24-.57-.05.02-.93.34-.21.07-.11.04-.17.07-.11.04-.21.07-.93.34-.05.02Z"/>
              <path d="M311.15 167.77a19.2 19.2 0 0 0 4.61 1.66l4.46-14.42.83-2.69.29-.94.18-.58-.06-.03-.92-.34-.21-.07-.11-.04-.16-.06-.12-.05-.21-.08-.93-.33-.05-.02v.02l-.24.56-.38.9-1.09 2.58-5.88 13.93Z"/>
              <path d="M301.87 157.8a19.07 19.07 0 0 0 2.46 4.24l12.71-8.2 2.36-1.52.83-.54.52-.33-.03-.06-.49-.85-.11-.19-.06-.1-.09-.15-.07-.11-.11-.19-.49-.85-.03-.06h-.01v.01l-.54.27-.88.45-2.49 1.28-13.47 6.89Z"/>
              <path d="m300.32 149.03 15.02 1.87 2.79.35.98.12.6.08h.01v-.06l.18-.96.03-.22.03-.12.03-.18.02-.11.03-.22.17-.96v-.07l-.6-.14-.96-.22-2.75-.62-14.74-3.36a19.25 19.25 0 0 0-.85 4.82Z"/>
              <path d="m305.63 136.5 10.29 11.07 1.92 2.06.68.73.42.45.05-.04.75-.64.17-.14.09-.08.14-.11.09-.08.17-.14.76-.64.04-.03v-.01l-.36-.48-.6-.79-1.7-2.24-9.13-12.04a19.29 19.29 0 0 0-3.76 3.15Z"/>
            </g>
            <ellipse cx="320.22" cy="150.05" fill="#b5bec3" rx="7.35" ry="7.34"/>
            <g fill="#878e94">
              <path d="M321.05 145.21c0 .45-.37.82-.82.82s-.82-.37-.82-.82.37-.82.82-.82.82.37.82.82ZM324.83 148.35a.82.82 0 1 1-.82-1.42.82.82 0 0 1 .82 1.42ZM324 153.18a.82.82 0 1 1 .82-1.42.82.82 0 0 1-.82 1.42ZM319.39 154.88c0-.45.37-.82.82-.82s.82.37.82.82c0 .45-.37.82-.82.82s-.82-.37-.82-.82ZM315.61 151.74a.82.82 0 1 1 .82 1.42.82.82 0 0 1-.82-1.42ZM316.44 146.91a.82.82 0 1 1-.82 1.42.82.82 0 0 1 .82-1.42Z"/>
            </g>
            <circle cx="320.22" cy="150.05" r="2.81" fill="none" stroke="#878e94" stroke-miterlimit="10" stroke-width="2.13"/>
          </g>
        </g>
        <g>
          <path fill="#d5e0e6" d="M.62 99.3h7.04c2.76 0 5.47-.42 8.06-1.25 2.78-.87 5.4-2.21 7.77-3.96l5.41-3.99 6.5-4.79a4.45 4.45 0 0 0 1.8-3.57v-.78a4.45 4.45 0 0 0-5.28-4.36L17.4 79.35l-6.81 1.29A35.43 35.43 0 0 0 .6 99.29Z"/>
          <path fill="#b5bec3" d="M.62 99.3h7.04c5.7 0 11.25-1.83 15.84-5.21l5.41-3.99H3.73a35.59 35.59 0 0 0-3.11 9.19Z"/>
          <path fill="#edf4f7" d="M.62 99.3h7.04c.57 0 1.14-.02 1.7-.05a7.32 7.32 0 0 0 6.85-6.63l1.2-13.26-6.81 1.29A35.43 35.43 0 0 0 .61 99.3Z"/>
        </g>
        <path fill="#4a4a4a" d="m71.58 72.94 15.01-1.1.6-.04 104-7.6 21.32-1.55 74.57-5.45a4.28 4.28 0 0 0 3.91-3.54l4.46-25.76a4.29 4.29 0 0 0-4.17-5.02l-72.46-.83-21.04-.27-22.32-.28a97.6 97.6 0 0 0-49.74 12.9L87.19 56.45l-.6.34-16.97 9.71c-3.18 1.82-1.7 6.7 1.96 6.43Zm15.3-13.55 23.08-13.21 3.75-2.15 13.19-7.55a95.31 95.31 0 0 1 47.31-12.58h1.21l18.22.23 4.09.05 21.04.26 27.69.32 44.78.52c.76.01 1.22.43 1.43.68.2.25.53.78.41 1.53l-.42 2.43-4.05 23.33a1.88 1.88 0 0 1-1.72 1.56l-20.59 1.5-55.36 4.04-57.65 4.21-38.24 2.79-5.64.41-3.4.25-19.12 1.39V59.38Z"/>
        <g>
          <path fill="#2a4657" d="m177.98 63.71-2.23 8.21-11.42-2.14-.06.27a.88.88 0 0 0-.2-.03c-1.29.03-4.21-3.2-5.83-3.74s-6.14-1.89-6.63-1.75c-.49.14.29 1.43 2.03 1.94 1.74.51 3.09 1.7 3.09 1.7s-5.04-1.32-6.53-.51c-1.49.81 3.22 1.47 4.07 2.11.85.63-4.61-.31-4.54.61.07.93 4.32 1.15 4.7 1.55.38.4-3.19.22-3.16 1.23.03 1 4.11.64 4.89 1.05.75.39 4.94 2.41 6.9 1.27l-.12.55 14.83 3.79c2.2.69 3.18-.54 3.39-1.67l3.9-14.53-7.11.11Z" opacity=".2"/>
          <g>
            <path fill="#faa97a" d="M164.03 68.54c-1.28.03-4.2-3.17-5.82-3.7-1.62-.54-6.13-1.87-6.62-1.73-.49.14.29 1.42 2.03 1.92 1.74.5 3.08 1.68 3.08 1.68s-5.03-1.31-6.52-.51c-1.49.8 3.22 1.45 4.07 2.09.85.63-4.6-.31-4.53.61.07.92 4.32 1.14 4.7 1.53.38.39-3.18.22-3.16 1.22.03.99 4.1.64 4.88 1.04.78.4 5.35 2.59 7.16 1.07 5.25 1.27 4.6 1.54 7.01 2.32l1-4.39c-1.57-.46-6.59-3.15-7.29-3.13Z"/>
            <path fill="#bfe7f7" d="M177.72 78.23c2.2.68 3.17-.54 3.39-1.66l4.54-16.74c.55-2.08.31-2.84-1.17-3.89-1.48-1.04-4.26-.78-5.08 1.01l-3.72 13.46-11.4-2.12-1.38 6.17 14.8 3.75Z"/>
          </g>
        </g>
        <g>
          <g>
            <path fill="#8c5248" d="M182.51 22.71s-2.53-1-1.84-3.89c.69-2.88 2.89-2.74 2.89-2.74s1.3-2.07 4.9-1.33c3.6.74 2.88 3.05 2.88 3.05s2.47 1.12 2.3 3.06c-.22 2.61-3.76 4.19-3.76 4.19l-7.38-2.34Z"/>
            <path fill="#faa97a" d="M172.82 35.97c-.51 2.05-1.91 3.41-3.13 3.02-1.22-.38-1.79-2.35-1.27-4.41s1.91-3.41 3.13-3.02c1.22.38 1.79 2.35 1.27 4.41Z"/>
            <path fill="#faa97a" d="M192.84 30.49c-1.43-4.79-7.69-6.04-7.69-6.04s-5.83-2.58-9.77.51c-2.73 2.14-3.44 9.2-3.44 9.2s-2.47 7.4-.42 11.31c2.04 3.91 4.5 4.46 5.44 4.76 1.03.33 3.27 1.27 7.19-.76 3.93-2.02 6.18-9.49 6.18-9.49s3.49-6.17 2.5-9.5Z"/>
            <path fill="#ce745f" d="m170.58 35.57-1.12-.52.32-.71 1.13.52-.33.71z"/>
            <ellipse cx="190.79" cy="41.67" fill="#faa97a" rx="3.83" ry="2.3" transform="translate(77.25 200.56) rotate(-66.77)"/>
            <path fill="#ce745f" d="m190.66 41.93.14-.77 1.22.23-.14.76z"/>
            <path fill="#8c5248" d="m171.85 32.37-.25 1.96.43.14c.42-1.61 1.93-7.17 3.05-8.65 1.31-1.74 5.38-2.12 9.86-.7 4.48 1.42 7.59 4.07 7.65 6.25.06 1.86-1.92 7.27-2.5 8.82l.4.13.93-1.75 1.49.07s3.64-4.21 3.72-8.04c.09-4.61-5.01-8.26-10.28-9.93s-11.64-.57-14.06 2.75c-2.26 3.09-1.58 8.13-1.58 8.13l1.14.82Z"/>
            <path fill="#8c5248" d="M185.36 22.53c-.11-.04-8.33-1.85-11.19 2.92s-1.49 5.45.26 5.19c1.75-.26 3.21-2.24 3.91-3.36-.46.89-.98 2.3.15 2.76 1.52.62 3.06-.44 3.06-.44s-.38 1.63 1.22 1.29c1.43-.31 3.48-4.62 3.48-4.62s-1.89 4.3-.18 5.57c1.51 1.13 2.66-.36 2.66-.36s-.19 3.31 1.87 4.49c2.06 1.19 2.58-2.18 2.58-2.18s4.26-6.75-7.82-11.26Z"/>
            <g>
              <path fill="#7c4740" d="M192.76 22.89c-.29-.37-.7-.79-1.29-1.19-.13-.49-.24-1.38.13-1.69.44-.36 1.55-.07 1.98.12a2.57 2.57 0 0 0-.49-.96c-.68-.15-1.49-.18-1.99.25-.51.43-.58 1.15-.52 1.73a13.7 13.7 0 0 0-.67-.35l-.09-.14c-.38-.59-1.4-2.15-.89-2.92.33-.5 1.4-.65 2.46-.62-.02-.23-.09-.5-.24-.78-1.1 0-2.35.19-2.87.98-.58.88-.1 2.09.39 2.97-.28-.1-.58-.2-.9-.29-.3-.29-1.76-1.78-1.63-3.56.07-.95.83-1.49 1.56-1.8a6.63 6.63 0 0 0-1.48 0c-.45.42-.79.97-.85 1.73a5.03 5.03 0 0 0 1.09 3.3l-.81-.16c-.72-.53-2.4-2-2.52-3.15v-.24a2.6 2.6 0 0 0-.78.27v.05c.1 1.04 1.03 2.11 1.81 2.84a19.3 19.3 0 0 0-.71-.08 7.82 7.82 0 0 1-2.39-1.46 4.7 4.7 0 0 0-.31.78c.24.22.52.42.81.6-.38 0-.69.02-.96.03-.05.28-.06.54-.05.79 1.07-.08 3.29-.1 6.36.63 2.86.68 4.48 2.07 5.26 2.94.2-.19.4-.4.58-.62Z"/>
              <path fill="#ce745f" d="M189.79 20.83ZM193.74 20.17Z"/>
            </g>
            <path fill="#7c4740" d="M193.74 37.59c-.3-.1-.68-.36-.85-.94l.26-.21a5.86 5.86 0 0 0 1.38-2.32c.22.19.57.37 1.01.5.11-.23.22-.47.32-.72-.68-.18-.97-.49-1.06-.64.41-1.4.32-3.01.24-3.79.39 0 .95-.02 1.49-.16a6.33 6.33 0 0 0-.19-.75c-.61.17-1.3.14-1.58.12a8.97 8.97 0 0 0-1.15-2.66c.37-.05.8-.14 1.05-.27.02 0 .03-.02.04-.03-.18-.21-.36-.41-.56-.61-.26.08-.69.14-1.04.18-1.23-1.56-3.2-3.05-6.36-4.05-5.77-1.83-9.69 0-11.95 1.85-.26.21-.49.43-.72.65a2.39 2.39 0 0 1-1.27-.93c-.18.19-.35.39-.5.6l-.02.03c.25.32.62.65 1.2.91-.66.73-1.18 1.48-1.57 2.18a3.7 3.7 0 0 1-.9-.22c-.06.26-.12.51-.16.77.2.07.45.14.7.18a4.43 4.43 0 0 0-.47 2.05c.05.45.2.83.43 1.13a3.1 3.1 0 0 1-.85.21l.04.78a4.52 4.52 0 0 0 1.48-.44 2.41 2.41 0 0 0 .75.26l.22-.71c.35.14.8.14 1.29.07l.13-.03c.59-5.62 7.41-8.95 8.18-9.31h.08c-2.54 1.63-4.97 5.92-5.77 7.69.55-.6.99-1.24 1.3-1.72a3.66 3.66 0 0 0-.52 1.88c.93-1.93 3.94-7.17 6.52-7.68.31.05.62.11.93.19-1.02 1.32-3.79 5.13-4.51 8.32.48-.18.79-.39.79-.39s-.06.26-.03.56c.74-3.23 3.84-7.33 4.57-8.27l.4.12.22.07c.02 1.02-.97 4.17-1.86 6.69.79-1.22 1.4-2.5 1.4-2.5s-.78 1.78-.88 3.38c.66-1.82 1.96-5.57 2.11-7.31l.16.06-.03.02s2.67 4.34.3 9.68c.52-.23.83-.63.83-.63v.66c1.76-4.2.67-7.7-.03-9.26.36.18.7.36 1.02.55.2.18 2.24 2.15 2.04 6.97-.15 3.54-1.27 4.65-1.87 4.99.18.2.39.38.63.53.82-.58 1.88-2 2.02-5.48.11-2.55-.37-4.36-.92-5.58a8.33 8.33 0 0 1 2.42 4.23c.69 3.07-.45 5.86-1.44 6.78-.4.37-.8.46-1.15.43l-.25.75c.3.05.63.05.96-.05.22.65.65 1.03 1.08 1.23l.48-.64Zm-19.96-6.99c-.83-.04-1.8-.22-1.92-1.36-.1-.9.96-3.51 3.43-5.53a10.65 10.65 0 0 1 5.69-2.37c-2.39 1.38-6.75 4.52-7.19 9.25Z"/>
            <g opacity=".22">
              <path fill="#ffb48f" d="M196.64 30.6a6.56 6.56 0 0 0-.8-3.21c-.29.42-.76.84-1.57.88-1.72.08-2.62-2.24-2.75-2.71s-1.6 1.27-2.94.85-1.59-2.32-1.85-2.53-2.59 1.19-3.54.77c-.94-.41-.54-1.25-.48-1.73.06-.48-5.37.87-7.38-.23-.73-.4-.86-.83-.74-1.23a7.05 7.05 0 0 0-2.3 1.97c-.27.37-.49.77-.68 1.19.28.6.77 1.24 1.56 1.87 2.69 2.11 6.74-.91 6.74-.91s-.15 2.03 1.14 2.6c1.3.57 4.44-1.04 4.44-1.04l.09.41c.4-.72.66-1.27.66-1.27s-.31.71-.57 1.63c.23.82.65 2 1.25 2.12.91.19 3.41-.95 3.67-1.06.25-.11 1.88 3.86 4.06 3.92.63.02 1.2-.2 1.7-.51a7.3 7.3 0 0 0 .27-1.77Z"/>
            </g>
            <path fill="#f4e2dc" d="m174.3 33.53-2.5-.79.05-.37 2.6.69-.15.47zM191.24 38.93l-2.42-.8.15-.47 2.46.91-.19.36zM180.42 36.13l-.35-.35s.72-.72 1.62-.43 1.09 1.17 1.1 1.21l-.48.1s-.15-.64-.77-.84-1.1.29-1.12.31Z"/>
            <g>
              <path fill="#faf4e8" d="M174.48 34.48s1.72-.92 3-.02.81 2.62.51 2.75c-.3.13-3.69-.52-3.51-2.73Z"/>
              <path fill="#7d2f05" d="M178.27 36.68s.35-1.57-.98-2.2c-1.37-.65-2.03-.06-2.81 0-.48.04-.7-.7-.45-1.1.27.39.45.51 1.03.45.58-.06 3.87-.4 3.21 2.85Z"/>
              <path fill="#4a3c33" d="M177.84 35.94a1.36 1.36 0 0 1-1.76.76c-.72-.26-1.11-1.03-.87-1.71a1.36 1.36 0 0 1 1.76-.76c.73.26 1.12 1.02.87 1.71Z"/>
              <path fill="#fff" d="M176.75 35.13a.47.47 0 0 1-.59.28.47.47 0 0 1-.28-.59.47.47 0 0 1 .59-.28c.24.09.36.35.28.58Z"/>
            </g>
            <g>
              <path fill="#faf4e8" d="M187.91 38.91s-.74-1.8-2.3-1.92c-1.56-.12-2.3 1.5-2.14 1.8.15.29 3.18 1.95 4.45.12Z"/>
              <path fill="#7d2f05" d="M183.58 38.2s.74-1.43 2.17-1.08c1.47.37 1.6 1.25 2.16 1.79.34.33.99-.09 1.05-.57-.45.13-.68.11-1.08-.31-.41-.42-2.73-2.77-4.29.16Z"/>
              <path fill="#4a3c33" d="M184.38 37.9c-.25.68.14 1.45.87 1.7.73.26 1.52-.08 1.76-.76s-.14-1.44-.87-1.71a1.36 1.36 0 0 0-1.76.76Z"/>
              <path fill="#fff" d="M184.93 37.68c-.09.24.04.5.28.59.24.09.5-.04.59-.28a.47.47 0 0 0-.28-.59.46.46 0 0 0-.59.28Z"/>
            </g>
            <path fill="#2e0400" d="M185.69 34.78c0 .29.72.41 1.51.67.79.24 1.44.56 1.62.32.17-.22-.32-1.03-1.29-1.34-.97-.31-1.84.07-1.83.35ZM178.35 32.46c-.17.23-.82-.08-1.62-.32-.79-.26-1.5-.38-1.51-.67-.01-.28.86-.66 1.83-.35.98.31 1.47 1.12 1.29 1.34Z"/>
            <path fill="#4f260d" d="M180.37 41.83a.16.16 0 0 1-.12-.15c-.02-.35-.2-.6-.48-.7a.83.83 0 0 0-.89.27.17.17 0 0 1-.24.02.17.17 0 0 1-.02-.24c.32-.37.82-.52 1.26-.37.42.14.69.52.72 1 0 .09-.07.18-.16.18h-.06Z"/>
            <path fill="#f4e2dc" d="M175.75 39.06c-1.94-.61-3.03-2.63-2.44-4.5s2.65-2.89 4.59-2.28 3.03 2.63 2.44 4.5a3.63 3.63 0 0 1-4.59 2.28Zm2-6.31c-1.68-.53-3.46.34-3.97 1.95s.44 3.35 2.11 3.88 3.46-.34 3.97-1.95-.44-3.35-2.11-3.88ZM184.4 41.8c-1.94-.61-3.03-2.63-2.44-4.5s2.65-2.89 4.59-2.28 3.03 2.63 2.44 4.5-2.65 2.89-4.59 2.28Zm2-6.31c-1.68-.53-3.46.34-3.97 1.95s.44 3.35 2.11 3.88 3.46-.34 3.97-1.95-.44-3.35-2.11-3.88Z"/>
            <path fill="#fff" d="M176.87 33.26c-.05.3-.5.64-1.01.77-.51.12-.89-.02-.84-.32s.5-.64 1.01-.77c.51-.12.89.02.84.32ZM185.51 36c-.05.3-.5.64-1.01.77-.51.12-.89-.02-.84-.32s.5-.64 1.01-.77c.51-.12.89.02.84.32Z"/>
          </g>
          <path fill="#fff" d="m182.34 45.58-7.38-2.22s.33 3.41 2.87 3.94c2.54.53 4.51-1.71 4.51-1.71Z"/>
        </g>
        <g>
          <g>
            <path fill="#803f1a" d="M277.68 26.47s-2.5-2.79-8.36-2.58a12.16 12.16 0 0 0-8.11 2.58s-5.81 5.32-1.14 13.48c.02-.06 2.54 6.06 8.8 6.39 7.24 0 9.68-6.82 9.7-6.77 4.67-8.16-.89-13.1-.89-13.1Z"/>
            <g>
              <path fill="#faa97a" d="M280.87 40.17c-.43 1.62-1.75 2.81-3.09 2.51-1.03-.23-1.17-1.22-1-2.56.63-4.98 4.96-3.22 4.09.05Z"/>
              <path fill="#983d30" d="M279.49 39.95c-.25.77-.81 1.31-1.32 1.15-.39-.12-.4-.6-.27-1.24.48-2.37 2.08-1.46 1.59.08Z"/>
            </g>
            <g>
              <path fill="#faa97a" d="M257.42 40.17c.43 1.62 1.75 2.81 3.09 2.51 1.03-.23 1.17-1.22 1-2.56-.63-4.98-4.96-3.22-4.09.05Z"/>
              <path fill="#983d30" d="M258.8 39.95c.25.77.81 1.31 1.32 1.15.39-.12.4-.6.27-1.24-.48-2.37-2.08-1.46-1.59.08Z"/>
            </g>
            <path fill="#faa97a" d="M269.17 26.81c-13.59.59-8.95 14.74-8.05 16.3 1.3 2.25 3.93 3.71 6.16 4.35 1.23.36 2.55.36 3.78 0 2.23-.64 4.86-2.1 6.16-4.35.9-1.56 5.54-15.71-8.05-16.3Z"/>
            <path fill="#faa97a" d="M271.13 47.03a7.32 7.32 0 0 1-3.94 0c-2.03-.56-4.39-1.75-5.85-3.55 1.36 2.05 3.83 3.39 5.93 3.99 1.23.36 2.55.36 3.78 0 2.15-.62 4.67-2 6.01-4.11-1.45 1.87-3.86 3.1-5.94 3.67Z"/>
            <g>
              <path fill="#803f1a" d="M281.22 30.49a1.48 1.48 0 0 0-.47-.83c.19-.16.33-.37.39-.61.13-.57-.45-1.25-1-1.04.61-.47.53-1.49 0-2.06-.53-.56-1.34-.76-2.11-.85.89-1.11.1-2.72-1.6-2.48-.53.07-1 .38-1.45.67.06-.67-.32-1.36-.92-1.66s-1.38-.21-1.89.23c.24-1.16-1.09-2.17-2.26-2.05-1.18.12-2.14.99-2.91 1.89a2.08 2.08 0 0 0-2.28-1.39 2.07 2.07 0 0 0-1.64 2.1 1.9 1.9 0 0 0-2.33.06 1.87 1.87 0 0 0-.39 2.29c-.6-.15-1.28.09-1.65.59-.37.5-.39 1.22-.07 1.75.05.09.11.16.18.23a1.4 1.4 0 0 0-.16 1.6c-.88-.12-1.74.73-1.68 1.61.06.88.98 1.6 1.86 1.49-.1.17.08.38.26.46.3.12.66.06.91-.13.25-.2.39-.53.36-.84.42.44 1.17.45 1.66.09.4-.29.62-.78.64-1.28.17.02.34.02.5 0 .47-.07.9-.29 1.34-.45a2.05 2.05 0 0 0 1.8 1.24c.77.02 1.53-.45 1.86-1.15.5.82 1.46 1.33 2.41 1.28a2.73 2.73 0 0 0 2.28-1.5c.69.87 1.9 1.52 2.88 1.02.17-.09.32-.21.48-.32.02.15.07.3.13.45.1.21.25.4.41.57.52.52 1.38.8 2.02.42-.13.2.03.5.26.57.57.16.7-.37.71-.47.39.12.85-.03 1.13-.33.28-.3.39-.74.32-1.15Z"/>
              <path fill="#803f1a" d="M272.78 28.88s-.9 2.51-3.34 1.61c.15-.08 2.07-.23 3.34-1.61ZM272.78 28.88s.59 1.8 2.46 1.61a46.22 46.22 0 0 1-2.46-1.61ZM263.59 22.56c-.17.32.59-2.5 2.61-1.3a2.47 2.47 0 0 0-2.61 1.3Z"/>
              <g opacity=".67">
                <path fill="#5e311b" d="M262.06 30.04c.13.23.17.5.12.76-.12.63-.75.86-1.33.73a1.96 1.96 0 0 1-.7-.29c.46-.01.95.06 1.36-.11.42-.18.5-.66.55-1.09Z"/>
              </g>
              <g opacity=".67">
                <path fill="#5e311b" d="M278.22 25.65c.6-.03 1.28.15 1.71.6.35.37.35.89.06 1.29-.11.16-.25.29-.41.4.06-.13.13-.26.18-.4.12-.28.19-.63 0-.9-.32-.48-1.03-.73-1.55-.99Z"/>
              </g>
            </g>
          </g>
          <g>
            <path fill="#803f1a" d="M271.78 34.24c.1.36.9.22 1.81.24.91-.01 1.71.13 1.81-.24.11-.35-.68-1.17-1.81-1.17s-1.92.82-1.81 1.17Z"/>
            <ellipse cx="262.62" cy="40.8" fill="#ff7575" rx=".75" ry="1.26" transform="translate(194.69 297.74) rotate(-84.02)"/>
            <ellipse cx="275.68" cy="40.8" fill="#ff7575" rx="1.26" ry=".75" transform="translate(-2.75 28.93) rotate(-5.98)"/>
            <path fill="#803f1a" d="M266.66 34.28c-.1.36-.9.22-1.81.24-.91-.01-1.71.13-1.81-.24-.11-.35.68-1.17 1.81-1.17s1.92.82 1.81 1.17Z"/>
            <path fill="#983d30" d="M269.98 40.89s-.09-.03-.11-.08c-.12-.32-.36-.5-.66-.51h-.01c-.31 0-.6.2-.74.51-.03.06-.1.09-.16.06s-.09-.1-.06-.16c.18-.41.56-.66.98-.66.39 0 .72.25.88.66.02.06 0 .13-.07.16h-.04Z"/>
            <path fill="#5e311b" d="M271.4 38.43c.08-1.8 2.02-2.68 3.48-1.67a2 2 0 0 1 .81 1.27c.01.08-.09.11-.13.04-.61-1.22-2.25-1.66-3.29-.74-.34.29-.56.71-.72 1.12-.03.08-.15.06-.14-.03ZM266.89 38.46c-.32-.86-.91-1.53-1.87-1.6a2.24 2.24 0 0 0-2.15 1.23c-.02.03-.06.05-.1.03-.03-.01-.04-.04-.04-.07.04-.25.14-.49.28-.71.94-1.45 3.24-1.29 3.86.37.09.23.14.49.15.74 0 .09-.12.11-.14.03Z"/>
            <g>
              <g>
                <g>
                  <path fill="#472514" d="M272.56 42.38c.03 1.35-1.43 3.57-3.28 3.63-1.85.06-3.4-2.05-3.43-3.4-.03-1.35 1.49-.6 3.34-.66 1.85-.06 3.34-.92 3.37.43Z"/>
                  <path fill="#ed5628" d="M269.53 44.44c-.74.03-1.38.46-1.78 1.13.31.27.99.49 1.53.47.7-.02 1.38-.37 1.87-.86a2.08 2.08 0 0 0-1.62-.74Z"/>
                </g>
                <path fill="#fff" d="M271.6 41.63c-.61.05-1.46.21-2.41.24-1.04.04-1.98-.11-2.59-.07.46 1.24 4.41 1.48 5-.17Z"/>
              </g>
              <path fill="#983d30" d="M269.25 46.6c-.22 0-.44-.03-.65-.09-.06-.02-.1-.09-.08-.15.02-.06.09-.1.15-.08.37.11.73.11 1.08.02.06-.02.13.02.15.09.02.06-.02.13-.09.15-.18.05-.36.07-.55.07Z"/>
            </g>
          </g>
        </g>
      </g>
    </g>
  </g>
</svg>
