<svg xmlns="http://www.w3.org/2000/svg" width="80" height="100" viewBox="0 0 80 100">
  <path fill="none" stroke="#ce1f3f" stroke-linecap="round" stroke-linejoin="round" stroke-width="2.45" d="M71.67 53.35c-1.23-2.3-2.12-3.95-11.75-1.21a35.49 35.49 0 0 0-8.61 3.7l-2.37 1.44L23.76 50l-6.98 3.75 16.91 12.78-10.43 6.35-10.87-3.21-4.51 2.42 10.8 10.87 40.8-19.24c2.82-1.36 14.22-6.59 12.19-10.37Z"/>
  <g fill="#ce153e">
    <path d="M19.73 6.4a3.05 3.05 0 0 0-2.48-1.31c-.73 0-1.08.28-1.08.69 0 1.36 5.53.73 5.53 4.4 0 1.7-1.22 3.06-3.09 3.52v1.75h-2.37v-1.64c-1.96-.21-3.04-1.1-3.66-2.07l2.07-1.94c.65.9 1.54 1.33 2.58 1.33.88 0 1.34-.28 1.34-.81 0-1.43-5.53-.76-5.53-4.46 0-1.72 1.29-3.02 3.2-3.39V.76h2.37v1.72a4.8 4.8 0 0 1 3.09 1.95l-1.98 1.98ZM28.08 9.99c0-.81-.64-1.36-1.61-1.36-.81 0-1.41.25-1.89.53l-1.27-.94.89-5.78h6.05v2.49h-3.71l-.23 1.36c.23-.05.62-.07.81-.07 2.3 0 3.82 1.52 3.82 3.82 0 2.39-1.75 4-4.4 3.99-1.91 0-3.31-.85-4.01-2.02l2.07-1.84c.51.81 1.17 1.18 1.89 1.18.97 0 1.61-.55 1.61-1.38ZM33.82 15.76h-2.39l1.06-5.07h2.92l-1.59 5.07ZM36.85 8.12c0-3.43 1.95-5.94 4.6-5.94 2.78 0 4.77 2.51 4.74 5.92.03 3.43-1.91 5.94-4.6 5.94-2.74 0-4.74-2.51-4.74-5.92Zm6.49 0c0-1.96-.71-3.27-1.87-3.27-1.06 0-1.77 1.29-1.77 3.25 0 1.98.72 3.27 1.84 3.27 1.11 0 1.8-1.29 1.8-3.25ZM47.35 8.12c0-3.43 1.95-5.94 4.6-5.94 2.78 0 4.77 2.51 4.74 5.92.03 3.43-1.91 5.94-4.6 5.94-2.74 0-4.74-2.51-4.74-5.92Zm6.49 0c0-1.96-.71-3.27-1.87-3.27-1.06 0-1.77 1.29-1.77 3.25 0 1.98.72 3.27 1.84 3.27 1.11 0 1.8-1.29 1.8-3.25ZM57.85 8.12c0-3.43 1.95-5.94 4.6-5.94 2.78 0 4.77 2.51 4.74 5.92.03 3.43-1.91 5.94-4.6 5.94-2.74 0-4.74-2.51-4.74-5.92Zm6.49.01c0-1.96-.71-3.27-1.87-3.27-1.06 0-1.77 1.29-1.77 3.25 0 1.98.72 3.27 1.84 3.27 1.11 0 1.8-1.29 1.8-3.25Z"/>
  </g>
  <g fill="#ce153e">
    <path d="M21.42 25.39h-2.77l-.6 1.48h-.86l2.39-5.8h.96l2.39 5.8h-.91l-.6-1.48Zm-1.38-3.45-1.09 2.71h2.18l-1.09-2.71ZM23.94 21.07h.81v5.8h-.81v-5.8ZM26.4 21.07h2.03c1.28 0 2.12.69 2.12 1.75 0 .82-.52 1.43-1.35 1.66l1.45 2.4h-.94l-1.36-2.3h-1.13v2.3h-.81v-5.8Zm.82.73v2.04h1.28c.71 0 1.19-.41 1.19-1.02s-.48-1.01-1.19-1.01h-1.28ZM34.85 22.38v4.5h-.82v-5.8h.94l2.09 3.32 2.08-3.32h.83v5.8h-.82v-4.5L37 25.74l-2.16-3.36ZM41.63 21.07h.81v5.8h-.81v-5.8ZM44.09 21.08h.81v5.03h3v.77h-3.82v-5.8ZM48.92 21.08h3.68v.77h-2.87v1.74h2.51v.77h-2.51v1.75h2.87v.77h-3.68v-5.8ZM57.03 22.43a1.8 1.8 0 0 0-1.44-.69c-.7 0-1.13.31-1.13.78 0 1.28 3.24.7 3.24 2.76 0 1.02-.83 1.71-2.13 1.71-1.09 0-1.79-.43-2.19-.99l.59-.55c.39.51.95.77 1.61.77.8 0 1.25-.34 1.25-.89 0-1.41-3.24-.79-3.24-2.79 0-.93.82-1.57 2.03-1.57.9 0 1.64.4 1.99.9l-.58.56ZM62.7 22.6c0 1.22-.92 2.17-2.14 2.17-1.2 0-2.15-.98-2.15-2.17s.95-2.18 2.15-2.18c1.19 0 2.14.99 2.14 2.18Zm-3.83 0c0 .94.74 1.72 1.68 1.72.97 0 1.68-.75 1.68-1.72a1.7 1.7 0 0 0-1.68-1.73 1.7 1.7 0 0 0-1.68 1.73Zm.84-1.13h.9c.42 0 .86.14.86.66 0 .38-.25.55-.54.62l.65.95H61l-.61-.91h-.17v.91h-.52v-2.23Zm.52.41v.53h.35c.21 0 .36-.05.36-.27s-.15-.26-.36-.26h-.35ZM5.47 30.47v5.03h-.82v-5.03H2.81v-.77h4.5v.77H5.46ZM8.27 29.7h2.03c1.28 0 2.12.69 2.12 1.75 0 .82-.52 1.43-1.35 1.66l1.45 2.4h-.94l-1.36-2.3H9.09v2.3h-.81v-5.8Zm.82.74v2.04h1.28c.71 0 1.19-.41 1.19-1.02 0-.62-.48-1.01-1.19-1.01H9.09ZM17.44 34.02h-2.77l-.6 1.48h-.86l2.39-5.8h.96l2.39 5.8h-.91l-.6-1.48Zm-1.39-3.45-1.09 2.71h2.18l-1.09-2.71ZM21.5 34.6l1.81-4.89h.85l-2.21 5.8h-.96l-2.21-5.8h.91l1.8 4.9ZM25.2 29.71h3.68v.77h-2.87v1.74h2.51v.77h-2.51v1.75h2.87v.77H25.2v-5.8ZM30.1 29.71h.81v5.03h3v.77h-3.82v-5.8ZM39.09 34.6l1.81-4.89h.85l-2.21 5.8h-.96l-2.21-5.8h.91l1.8 4.9ZM48.02 32.62c0 1.66-1.34 2.99-2.98 2.99s-2.97-1.35-2.97-3c0-1.66 1.33-3.01 2.97-3.01s2.98 1.36 2.98 3.02Zm-.87 0c0-1.22-.94-2.22-2.11-2.22-1.16 0-2.1.99-2.1 2.21 0 1.21.94 2.2 2.1 2.2 1.17 0 2.11-.99 2.11-2.19ZM49.27 29.71h.82v3.54c0 .94.58 1.57 1.45 1.57.88 0 1.45-.62 1.45-1.57v-3.54h.82v3.54c0 1.43-.92 2.37-2.28 2.37-1.37 0-2.26-.94-2.26-2.37v-3.54ZM59.55 30.96a2.28 2.28 0 0 0-1.53-.55c-1.16 0-2.09.99-2.09 2.21 0 1.21.93 2.2 2.16 2.2.57 0 1.1-.19 1.47-.53l.53.6c-.53.52-1.19.74-2.05.74a2.97 2.97 0 0 1-2.98-3 2.98 2.98 0 0 1 2.96-3.01c.92 0 1.57.26 2.07.72l-.54.63ZM65.22 32.96h-3.23v2.55h-.81v-5.8h.81v2.48h3.23v-2.48h.82v5.8h-.82v-2.55ZM67.68 29.72h3.68v.77h-2.87v1.74H71V33h-2.51v1.75h2.87v.77h-3.68v-5.8ZM72.58 29.72h2.03c1.28 0 2.12.69 2.12 1.75 0 .82-.52 1.43-1.35 1.66l1.45 2.4h-.94l-1.36-2.3H73.4v2.3h-.81v-5.8Zm.82.73v2.04h1.28c.71 0 1.19-.41 1.19-1.02 0-.62-.48-1.01-1.19-1.01H73.4Z"/>
  </g>
</svg>
