<svg xmlns="http://www.w3.org/2000/svg" viewBox="0 0 752 660">
<style>
  /* <![CDATA[ */

  #dots1 {
    opacity: 0;
    animation: dots1 1.8s ease-out forwards;
  }

  #dots2 {
    opacity: 0;
    animation: dots1 1.8s .3s ease-out forwards;
  }

  @keyframes dots1 {
    0% {
      opacity: 0;
      transform: translate(376px, 400px) scale(.2) translate(-376px, -400px);
    }
    10%, 90% {
      opacity: 1;
    }
    100% {
      opacity: 0;
      transform: translate(376px, 400px) scale(2) translate(-376px, -400px);
    }
  }

  #parts1 {
    opacity: 0;
    animation: parts1 1.8s ease-out forwards;
  }

  @keyframes parts1 {
    0% {
      opacity: 0;
      transform: translate(376px, 400px) scale(.2) rotate(-10deg) translate(-376px, -400px);
    }
    10%, 90% {
      opacity: 1;
    }
    100% {
      opacity: 0;
      transform: translate(376px, 400px) scale(2) rotate(10deg) translate(-376px, -400px);
    }
  }

  #parts2 {
    opacity: 0;
    animation: parts2 1.6s .4s ease-out forwards;
  }

  @keyframes parts2 {
    0% {
      opacity: 0;
      transform: translate(376px, 400px) scale(.2) rotate(10deg) translate(-376px, -400px);
    }
    10%, 90% {
      opacity: 1;
    }
    100% {
      opacity: 0;
      transform: translate(376px, 400px) scale(2) rotate(-10deg) translate(-376px, -400px);
    }
  }

  #parts3 {
    opacity: 0;
    animation: parts3 1.7s .7s ease-out forwards;
  }

  @keyframes parts3 {
    0% {
      opacity: 0;
      transform: translate(376px, 400px) scale(.2) rotate(-20deg) translate(-376px, -400px);
    }
    10%, 90% {
      opacity: 1;
    }
    100% {
      opacity: 0;
      transform: translate(376px, 400px) scale(2) rotate(10deg) translate(-376px, -400px);
    }
  }

  #parts4 {
    opacity: 0;
    animation: parts4 1.5s .6s ease-out forwards;
  }

  @keyframes parts4 {
    0% {
      opacity: 0;
      transform: translate(376px, 400px) scale(.2) rotate(20deg) translate(-376px, -400px);
    }
    10%, 90% {
      opacity: 1;
    }
    100% {
      opacity: 0;
      transform: translate(376px, 400px) scale(2) rotate(-5deg) translate(-376px, -400px);
    }
  }

  #parts5 {
    opacity: 0;
    animation: parts5 1.4s .1s ease-out forwards;
  }

  @keyframes parts5 {
    0% {
      opacity: 0;
      transform: translate(376px, 400px) scale(.2) rotate(-15deg) translate(-376px, -400px);
    }
    10%, 70% {
      opacity: 1;
    }
    100% {
      opacity: 0;
      transform: translate(376px, 400px) scale(2) rotate(15deg) translate(-376px, -400px);
    }
  }

  #p1 {
    opacity: 0;
    animation: p1 1.2s .7s ease-out forwards;
  }

  @keyframes p1 {
    0% {
      opacity: 0;
      transform: translate(278px, 494px) scale(.2) rotate(-150deg) translate(-78px, -494px);
    }
    10%, 80% {
      opacity: 1;
    }
    100% {
      opacity: 0;
      transform: translate(0px, 494px) scale(2) rotate(150deg) translate(-78px, -494px);
    }
  }

  #p2 {
    opacity: 0;
    animation: p2 1.4s .1s ease-out forwards;
  }

  @keyframes p2 {
    0% {
      opacity: 0;
      transform: translate(400px, 400px) scale(.2) rotate(-150deg) translate(-35px, -648px);
    }
    10%, 80% {
      opacity: 1;
    }
    100% {
      opacity: 0;
      transform: translate(35px, 648px) scale(2) rotate(150deg) translate(-35px, -648px);
    }
  }

  #p3 {
    opacity: 0;
    animation: p3 1.1s .7s ease-out forwards;
  }

  @keyframes p3 {
    0% {
      opacity: 0;
      transform: translate(350px, 400px) scale(.2) rotate(-150deg) translate(148px, -590px);
    }
    10%, 80% {
      opacity: 1;
    }
    100% {
      opacity: 0;
      transform: translate(-148px, 590px) scale(2) rotate(150deg) translate(148px, -590px);
    }
  }

  #p4 {
    opacity: 0;
    animation: p4 1.3s .4s ease-out forwards;
  }

  @keyframes p4 {
    0% {
      opacity: 0;
      transform: translate(350px, 400px) scale(.2) rotate(150deg) translate(-10px, -444px);
    }
    10%, 80% {
      opacity: 1;
    }
    100% {
      opacity: 0;
      transform: translate(-148px, 444px) scale(2) rotate(-150deg) translate(-10px, -444px);
    }
  }

  #p5 {
    opacity: 0;
    animation: p5 1.2s .3s ease-out forwards;
  }

  @keyframes p5 {
    0% {
      opacity: 0;
      transform: translate(350px, 400px) scale(.2) rotate(-150deg) translate(146px, -371px);
    }
    10%, 80% {
      opacity: 1;
    }
    100% {
      opacity: 0;
      transform: translate(-146px, 90px) scale(1.8) rotate(150deg) translate(146px, -371px);
    }
  }

  #p6 {
    opacity: 0;
    animation: p6 0.9s .9s ease-out forwards;
  }

  @keyframes p6 {
    0% {
      opacity: 0;
      transform: translate(350px, 214px) scale(.2) rotate(150deg) translate(-82px, -214px);
    }
    10%, 80% {
      opacity: 1;
    }
    100% {
      opacity: 0;
      transform: translate(0px, 104px) scale(1.5) rotate(-150deg) translate(-82px, -214px);
    }
  }

  #p7 {
    opacity: 0;
    animation: p7 1.1s .9s ease-out forwards;
  }

  @keyframes p7 {
    0% {
      opacity: 0;
      transform: translate(300px, 300px) scale(.2) rotate(120deg) translate(28px, -109px);
    }
    10%, 80% {
      opacity: 1;
    }
    100% {
      opacity: 0;
      transform: translate(-28px, 109px) scale(2) rotate(-200deg) translate(28px, -109px);
    }
  }

  #p8 {
    opacity: 0;
    animation: p8 1.3s .3s ease-out forwards;
  }

  @keyframes p8 {
    0% {
      opacity: 0;
      transform: translate(192px, 200px) scale(.2) rotate(-150deg) translate(192px, -39px);
    }
    10%, 80% {
      opacity: 1;
    }
    100% {
      opacity: 0;
      transform: translate(-192px, 39px) scale(1.5) rotate(100deg) translate(192px, -39px);
    }
  }

  #p9 {
    opacity: 0;
    animation: p9 1.4s .1s ease-out forwards;
  }

  @keyframes p9 {
    0% {
      opacity: 0;
      transform: translate(400px, 200px) scale(.2) rotate(-200deg) translate(-796px, -15px);
    }
    10%, 80% {
      opacity: 1;
    }
    100% {
      opacity: 0;
      transform: translate(796px, 15px) scale(1.5) rotate(100deg) translate(-796px, -15px);
    }
  }

  #p10 {
    opacity: 0;
    animation: p10 1.5s .2s ease-out forwards;
  }

  @keyframes p10 {
    0% {
      opacity: 0;
      transform: translate(400px, 300px) scale(.2) rotate(-200deg) translate(-828px, -85px);
    }
    10%, 80% {
      opacity: 1;
    }
    100% {
      opacity: 0;
      transform: translate(828px, 85px) scale(1.5) rotate(100deg) translate(-828px, -85px);
    }
  }

  #p11 {
    opacity: 0;
    animation: p11 1.1s .4s ease-out forwards;
  }

  @keyframes p11 {
    0% {
      opacity: 0;
      transform: translate(350px, 200px) scale(.2) rotate(-150deg) translate(-704px, -444px);
    }
    10%, 80% {
      opacity: 1;
    }
    100% {
      opacity: 0;
      transform: translate(704px, 400px) scale(1.5) rotate(100deg) translate(-704px, -444px);
    }
  }

  #p12 {
    opacity: 0;
    animation: p12 1s .2s ease-out forwards;
  }

  @keyframes p12 {
    0% {
      opacity: 0;
      transform: translate(300px, 250px) scale(.2) rotate(-200deg) translate(-640px, -491px);
    }
    10%, 80% {
      opacity: 1;
    }
    100% {
      opacity: 0;
      transform: translate(640px, 491px) scale(1.5) rotate(100deg) translate(-640px, -491px);
    }
  }

  #p13 {
    opacity: 0;
    animation: p13 0.8s .6s ease-out forwards;
  }

  @keyframes p13 {
    0% {
      opacity: 0;
      transform: translate(300px, 280px) scale(.2) rotate(120deg) translate(-913px, -565px);
    }
    10%, 80% {
      opacity: 1;
    }
    100% {
      opacity: 0;
      transform: translate(913px, 565px) scale(2) rotate(-200deg) translate(-913px, -565px);
    }
  }

  #p14 {
    opacity: 0;
    animation: p14 1.1s .1s ease-out forwards;
  }

  @keyframes p14 {
    0% {
      opacity: 0;
      transform: translate(350px, 200px) scale(.2) rotate(-150deg) translate(-871px, -651px);
    }
    10%, 80% {
      opacity: 1;
    }
    100% {
      opacity: 0;
      transform: translate(871px, 651px) scale(1.5) rotate(100deg) translate(-871px, -651px);
    }
  }

  /* ]]> */
</style>
  <g id="dots1">
    <path fill="#9b65cf" d="M604.31 259.16c-7.17.25-5.18-2.57-5.3-8.34 7.69.07 5.42 2.46 5.3 8.34Z"/>
    <path fill="#b3d333" d="M853.78 49.22c-4.45.46-8.43-.93-7.58-6.06 3.8 1.42 8.77.52 7.58 6.06Z"/>
    <path fill="#e3c0f9" d="M-139.13 498.49c-1.25.72-3.87-1.01-3.62-2.43 1.42-.71 3.56-6.27 4.85-5.79 1.09.41 1.99 2.02 1.81 3.23a40.2 40.2 0 0 1-3.04 4.99Z"/>
    <path fill="#b3d333" d="M320.91 521.34c.28 2.1-2.05 2.18-3.06 3.4-1.39 1.67-2.15 5.3-6.02 4.93-1.82-1.86 6.53-9.21 9.09-8.33Z"/>
    <path fill="#e4f476" d="M992.09 222.95c3.1 5.74-7.21 1.39-4.37-1.68.46-.49 4.11 1.19 4.37 1.68Z"/>
    <path fill="#6d3ea7" d="M858.9 445.56c.16.11 1 3.38.75 3.75-7.69 3.14-3.22-5.52-.75-3.75Z"/>
    <path fill="#e4f476" d="M-140.55 71.24c-1.13 1.33-4.37-4.67-3.78-5.3 2.61.18 4.23 2.87 3.78 5.3Z"/>
    <path fill="#f67f63" d="M500.31 307.05c2.86 4.23-5.94.63-3.6-1.66.37-.37 3.44 1.43 3.6 1.66Z"/>
    <path fill="#e4f476" d="M191.34 117.47c1.86 1.92-3.92 1.63-4.54 1.5-.62-2.73 3.61-2.46 4.54-1.5Z"/>
    <path fill="#ca92eb" d="M623.26 588.78h1.51v2.27h-1.51z"/>
    <path fill="#e4f476" d="M749.79 426.62c.11.18 3.8 1.5 2.27 3.03-1.54 1.54-2.85-2.16-3.03-2.27l.76-.76Z"/>
  </g>
  <g id="dots2">
    <path fill="#98ba1f" d="M-152.67 268.25c3.34.54 4.13 3.59 3.02 6.36l-3.02-.3v-6.06Z"/>
    <path fill="#af70db" d="M1038.65 152.47v3.03c-2.04-.8-2.4-3.62 0-3.03Z"/>
    <path fill="#fbffb6" d="M657.35 410.7c-.34-.34-.74-9.66 2.64-8.33 1.65.66.31 7.54-.33 7.99-.58.41-2.13.51-2.31.33Z"/>
    <path fill="#ca92eb" d="M758.88 305.38c1.74 1.96-3.56 6.39-4.54 5.3-1.78-1.98 3.79-6.14 4.54-5.3ZM345.92 375.09c1.94 2.21-3.59 5.5-4.54 4.54-1.53-1.56 3.72-5.46 4.54-4.54Z"/>
    <path fill="#af70db" d="M-20.06 154.59c6.99 2.52.29 8.03-.58 3.32-.17-.91.76-2.24.58-3.32Z"/>
    <path fill="#e3c0f9" d="M544.44 180.36c.2.2.93 4.84-1.88 3.78-3.03-1.14.35-5.3 1.88-3.78ZM265.6 295.53c-2.65.18-2.38-2.52-2.27-4.54 2.65-.18 2.38 2.52 2.27 4.54Z"/>
    <path fill="#9b65cf" d="M921.04 326.6c1.01 1.08-1.99 4.77-3.02 3.78-.7-.67 2-4.88 3.02-3.78Z"/>
    <path fill="#98ba1f" d="M909.03 105.22c-3.38-1.15-8.96-3.45-7.57-7.57.75-.82 6.95 2.94 7.82 3.75.72.67.39 1.36.52 1.55l-.76 2.27Z"/>
    <path fill="#e4f476" d="M909.78 102.95c.43.66 2.18.98 1.51 3.03-1.29.51-1.77-.58-2.27-.75l.76-2.27Z"/>
    <path fill="#e3c0f9" d="M243.63 519.06v-3.02c3.02.02 2.98 3.02 0 3.02Z"/>
  </g>
  <g id="parts1">
    <path fill="#ee5a3d" d="M-133.01 410.01v5.3c-4.06 3.45-10 4.15-15.16 4.92 3.45-5.19 9.98-7.35 15.16-10.22Z"/>
    <path fill="#e3c0f9" d="M-45.42 610.54v12.88c-3.43.84-3.01-3.99-3.96-6.27-1.5-3.6-2.63-6.47-6.66-7.75.06-1.24 9.52.86 10.62 1.14Z"/>
    <path fill="#de3a81" d="M-24.62 62.15c-1.69 4.9 6.13 10.83 4.76 14.17-.2.5-3.34 4.7-3.63 4.78-1.96.5-6.54-9.6-6.48-11.77.05-1.83 2.36-4.75 3.61-6.21.47-.54-.03-1.43 1.73-.96Z"/>
    <path fill="#ef61b9" d="M796.77 132.62c2.08-1.25 4.1-3.64 6.46-4.53 1.74-.65 14.8-2.64 14.77-1.15-.25 1.56-4.71 5.19-5.85 5.51-2.23.64-14.59.41-15.37.92v-.76Z"/>
    <path fill="#b3d333" d="m985.45 230.37-5.76 11.28c-.64 2.65-8.2 8.09-10.14 6.14-1.71-1.71 2.92-3.38 3.8-4.37 3.75-4.18 4.72-15.65 12.11-13.05Z"/>
    <path fill="#e4f744" d="M522.99 632.82c1.45-.22 3.8 2.51 2.91 4.43-.42.9-9.82 9.93-10.53 9.81-7.91-2.31 5.51-13.91 7.61-14.23Z"/>
    <path fill="#e3c0f9" d="M33.73 478.9c-8.08-.57-13.29-9.41-14.39-16.66 6.63 0 5.65 5.11 8.46 9.34.81 1.22 6.84 6.44 5.93 7.32Z"/>
    <path fill="#b3d333" d="M683.87 160.66c.73 4.07-1.15 2.76-4 3.95-5.14 2.16-9.17 5.52-15.33 4.37-2.31-.43-2.43-2.92-1.51-3.03 8.03 1.64 13.22-5.53 20.83-5.3ZM847.23 403.57c1.39 2.17-2.08 3.05-3.93 2.81-1.3-.17-10.86-5.23-12.69-6.31-.98-.58-1.91.13-1.49-1.88.97-.81 6.98 3.18 8.31 3.45 1.54.31 2.92-.64 4.76-.3.38.07 4.89 1.99 5.04 2.23Z"/>
    <path fill="#ef61b9" d="M527.02 409.19c4.52-.19 9.12.14 13.64 0v7.59c-3.33-.34-7.41.46-10.61 0-.09-.35-1.14-.14-1.49-.18-.61-.08-.95-.67-1.54-.58v-6.82Z"/>
    <path fill="#f593d5" d="M527.02 409.19v6.82c-.89.14-5.73 1.89-6.06 1.51.04-7.79-1.81-8.01 6.06-8.33Z"/>
    <path fill="#e4f744" d="M213.32 328.11c-.38-.21-1.79-.02-2.79-.59-2.51-1.42-6.56-5.98-9.34-3.96-.38-.35-2.17.22-2.31-1.88-.05-.72.46-4.75 1.91-4.17.75.29 10.21 6.52 10.96 7.23 1.15 1.08 1.79 1.61 1.55 3.37Z"/>
    <path fill="#98ba1f" d="M213.32 328.11c1.27.71 3.6 2.58 4.55 3.78-6.27.59-12.34-4.37-16.67-8.33 2.78-2.02 6.83 2.53 9.34 3.96 1 .57 2.41.37 2.79.59Z"/>
    <path fill="#e4f744" d="M331.52 425.1c-.97-.61-4-.97-5.3-1.52-.31-.39-1.26-.57-1.84-1.54s-2.54-7.81-.07-6.79c2.34 3.1 7.64 5.43 7.21 9.84Z"/>
    <path fill="#e4f744" d="M331.52 425.1c.58.36 8.29 8.04 3.55 6.68-2.5-.72-7.07-5.99-8.85-8.2 1.31.54 4.33.9 5.3 1.52Z"/>
    <path fill="#e4f744" d="M-112.47 164.95c-.73-.1-1.53.06-2.27 0-2.01-.95-4.96-1.07-6.41-3.06-2.46-5.3-6.78-11.56-9.1-16.67-.29-.65-.96-1.95-.02-2.25 11.43 1.47 12.7 13.73 17.8 21.99Z"/>
    <path fill="#e4f476" d="M-112.47 164.95c1.76.23 4.54 1.42 5.3 3.02-.55.41-5.27-1.25-6.29-1.68-.81-.34-1.13-1.27-1.28-1.34.74.06 1.55-.1 2.27 0Z"/>
  </g>
  <g id="parts2">
    <path fill="#b3d333" d="M-152.67 292.5c2.79-1.29 5.47-2.71 7.94-4.56s9.91-9.95 11.39-10.58c1.28-.55 2.49 3.66 2.5 4.31.05 2.52-17.43 17.01-21.83 16.9v-6.06Z"/>
    <path fill="#6d3ea7" d="M-152.67 647.88v-10.61l3.78-3.79c-.28 4.21 1.3 12.62-3.78 14.4Z"/>
    <path fill="#c3231a" d="M-40.56 146.29c1 1.44-4.64 7.14-5.81 7.44-1.84.47-12.29-5.94-16.13-3.69-1.04-1.03 4.38-7.33 5.67-7.58 1.65-.32 4.89-.09 6.65.19 1.12.18 9.33 3.22 9.62 3.64Z"/>
    <path fill="#af70db" d="M464.12 380.4c.54.54-2.01 7.99-2.37 8.23-.54.38-11.79 1.06-13.2.89-3.07-.37-2.84-1.15-2.25-3.82 1.56-7.16 4.35-3.57 9.07-3.76 2.81-.11 5.73-2.04 8.75-1.54Z"/>
    <path fill="#de3a81" d="m314.07 331.87-7.52 1.52c-.08-2.29-3.67-12.43-2.76-13.66.72-.97 6.67-2.2 7.68-.75.38.54 3.03 12.39 2.6 12.88Z"/>
    <path fill="#e3c0f9" d="M683.09 522.12c.2 1.41-.53 5.59-1.93 5.94-.77.19-13.6-3.78-14.95-4.6-2.44-1.48-.56-5.86 1.31-5.91 3.42-.08 11.26 4.91 15.56 4.57Z"/>
    <path fill="#9b65cf" d="M297.42 469.81c-.25 2.5-.8 3.81-3.01 4.94-5.71 2.92-12.66 4.72-18.96 3.38.21-1.31 1.51-1.32 2.44-1.72 2.31-.98 18.78-7.32 19.53-6.61Z"/>
    <path fill="#e3c0f9" d="M531.56 531.94c-1.12.95-4.97-2.39-5.18-3.52-.16-.85 2.83-10.23 4.9-10.84 8.02 3.25-.25 8.25.29 14.36Z"/>
    <path fill="#98ba1f" d="M869.51 302.34c-2.42-.42-2.88-2.89-5.05-4.42-1.29-.91-19.45-6.57-16.16-9.97.65-.68 15.26 6.72 17.34 7.28 1.56 2.15 4.08 4.14 3.87 7.11Z"/>
    <path fill="#e3c0f9" d="M895.91 16.82c.2.34-.49 6.7-.64 7.83-.11.86.31 1.55-1.12 1.12-.69-.21-4.93-3.3-5.21-3.97-.72-1.74-.13-8.43 2.09-8.09.29.04 4.73 2.86 4.88 3.11Z"/>
    <path fill="#98ba1f" d="M700.54 185.65c-.38.4-5.9-1.15-6.8-1.91-1.83-1.55-1.14-4.22-1.67-4.82-.49-.56-2.78.86-2.14-1.6 5.59.1 11.21 1.59 10.6 8.33Z"/>
    <path fill="#c3231a" d="M-81.46 421.87c0 1.65-2.56 3.47-3.8 2.7-1.06-.66-6.88-11.11-6.81-12.55 5.54-2.86 5.95 8.9 10.61 9.85Z"/>
    <path fill="#ee5a3d" d="M-81.46 421.87c-4.66-.95-5.07-12.71-10.61-9.85.08-1.48 2.18-3.68 3.78-2.7 1.09.67 6.83 10.97 6.83 12.55Z"/>
    <path fill="#ee5a3d" d="M153.46 562.25c2.59 2.97 2.31 7.58 2.27 11.36l-3.43-6.05c-.62-1.2-.17-2.66-.35-3.79l1.52-1.52Z"/>
    <path fill="#c3231a" d="m153.46 562.25-1.52 1.52c-.43-2.72-1.91-5.24.76-7.96l.76 6.45Z"/>
  </g>
  <g id="parts3">
    <path fill="#e3c0f9" d="M692.9 644.79c-1.69 1.21-19.16-11.76-20.06-13.6-.54-1.09 2.78-8.49 5.7-7.18s8.96 7.44 12.21 9.78c1.25.9 4.35 1.86 4.89 2.71 1.69 2.7-2.45 5.58-2.74 8.29Z"/>
    <path fill="#e4f744" d="M-58.71 288.71c.05-5.12-3.18-8.83.39-13.62l15.89-11.38c.85.19 2.93 8.71 2.33 9.84-1.3 2.45-10.36 6.89-12.91 9.12s-2.98 5.31-5.7 6.04Z"/>
    <path fill="#98ba1f" d="M126.85 161.49c1.49 2.31-1.53 2.3-2.45 3.04-1.69 1.36-5 5.07-7 5.23-.87.07-13.63-6.52-13.96-7.23l8.07-6.33a3.77 3.77 0 0 1 2.15-.81c.73 0 12.78 5.48 13.18 6.09Z"/>
    <path fill="#de3a81" d="M956.65 390.53c.82 4.63 5.27 13.09 3.67 17.68-.31.89-8.56 6.27-8.96 5.8 2.17-4.45-3.71-15.66-2.94-18.4.38-1.36 7.32-5.87 8.23-5.08ZM965.1 100.68c-3.21 11.7-7.64 16.32-20.44 12.85-.41-.6 4.12-10.9 4.64-11.23.8-.51 7.51 1 10.08.59 2.21-.35 3.56-2.12 5.72-2.22Z"/>
    <path fill="#98ba1f" d="M-128.41 630.33c.32.3 3.59 7.68 3.65 8.12.25 1.83-1.17 4.54-1.39 6.7-.33 3.25 1.36 3.84-1 8.04-3.03 5.4-4.31 4.2-6.44-.61-3.09-6.97.84-4.84 2.4-10.25.99-3.43.07-6.62.72-9.92.14-.73.78-3.26 2.05-2.07Z"/>
    <path fill="#de3a81" d="M-201.21 385.01c3.73 1.44 8.97 1.84 12.88 3.04.54.77-6.02 10.88-7.35 11.26s-9.28-2.19-11.28-2.89c-1.19-.42-1.71-1.51-1.82-1.56 1.01-3.71 4.76-7.25 7.58-9.85Z"/>
    <path fill="#de3a81" d="M-201.21 385.01c-2.81 2.6-6.57 6.14-7.58 9.85-1.42-.58-7.6-1.15-8.29-3.5-.32-1.09 6.34-10.92 7.78-10.78.71.07 5.31 2.51 6.8 3.1.8.32 1.2 1.29 1.3 1.33Z"/>
    <path fill="#9b65cf" d="M774.8 505.42c-.79 5.81.58 13.16.01 19.17-.12.46-7.38 4.88-7.98 5.07-1.4.44-1.01-.26-1.12-1.11-.45-3.33-.35-17.76.96-20.3.35-.68.62-.97 1.31-1.31 1.28-.63 5.19-1.41 6.82-1.52Z"/>
    <path fill="#af70db" d="M774.8 505.42c-1.63.1-7.08 3.02-8.37 3.64.05-9.1 7.04-19.42 15.57-22.57-1.91 5.75-6.4 12.96-7.21 18.93Z"/>
    <path fill="#6d3ea7" d="M833.89 242.49c.03 3.59 4.71 9.1 4.37 12.4-.17 1.67-6.34 8.05-7.38 7.3-.07-2.43-4.17-8.23-3.7-10.07.36-1.38 3.5-3.16 4.35-4.8 1.13-2.18-.02-5.3 2.36-4.83ZM42.83 359.18c1.18-1.01 10.21 5.6 10.52 6.57.53 1.63-1.44 5.79-1.49 8.2s.59 3.59 1.2 5.66c-8.52-5.7-14.46-9.04-10.23-20.44Z"/>
  </g>
  <g id="parts4">
    <path fill="#e3c0f9" d="M983.87 484.65c-.77 3.02 1.9 8.14.39 10.62-.31.51-8.41 4.74-10.03 5.88-9.24 6.49-10.92 11.06-17.77 18.6-.67.74-.68 1.62-2.13 1.27.74-3.5-1.5-7.33-.43-10.64.48-1.47 6.6-9.35 8.02-10.93 2.28-2.51 19.97-16.89 21.95-14.79Z"/>
    <path fill="#ef61b9" d="M704.33 600.15c.4.52-4.17 6.71-4.91 7.58-1.21 1.41-3.91 4.27-5.32 5.29-8.57 6.23-14.71 1.93-23.86 0 2.28-2.44 5.72-2.37 8.71-4.54 4.06-2.96 7.39-8.24 10.68-12l14.7 3.68Z"/>
    <path fill="#e3c0f9" d="M-202.5 565.32c-.95.66-8.29-4.51-8.36-5-.16-1.01 5.56-12.62 6.34-15.59 1.16-4.43 1.01-8.96 2.08-13.09.21-.82-.54-1.45 1.13-1.15 1.41.25 6.98 4.67 7 6.27.13 9.78-4.42 19.79-8.18 28.57Z"/>
    <path fill="#c3231a" d="M-64.01 46.23c2.71 3.27 7.12 5.11 11.17 6.64 2.65 1 8.42 1.76 9.99 2.89 1.2.85 6.73 11.05 6.11 11.69-13.35-1.56-20.73-7.22-27.69-18.18-.46-.73-.22-2.13-.34-2.27l.76-.76Z"/>
    <path fill="#f593d5" d="M869.42 223.67c.5.84-1.34 5.08-.67 6.7-3.12.34-5.36-1.93-8.3-2.69-2.55-.66-14.43-1.69-15.13-3.87-.49-1.53 1.23-4.44.7-6.33 4.21.47 21.5 2.98 23.4 6.19Z"/>
    <path fill="#e4f744" d="M136 642.53c-.4.57-6.85 2.34-8.07 2.92-1.62.76-7.71 4.72-8.19 4.72-1.6 0-5.73-4.66-5.77-6.48-.02-1.07 3.6-3.32 4.59-3.83 1.37-.7 10.12-4.08 11.1-4.13 2.12-.12 7.46 5.19 6.34 6.79ZM749.04 427.38c-7.5-4.7-5.29-4.8-10.63-10.96-1.84-2.13-4.34-3.59-5.93-5.44a19.36 19.36 0 0 1-4.66-14.66c.74-.76 7.74 4.17 8.12 4.76 2.2 3.41-.42 8.84 5.12 14.96 4.35 4.81 5.02 4.82 8.73 10.59l-.76.76Z"/>
    <path fill="#ca92eb" d="m403.66 244.02-2.86 2.38c0 .48-20.86 2.55-22.28 3.3s-1.55 3.14-3.61 3.97c-1.23.5-15.38 3.01-15.36 2.07 1.23-2.09 3.68-6.13 5.89-6.99 2.75-1.08 17.22-3.87 20.3-4.01 1.96-.09 16.7-.69 17.92-.72Z"/>
    <path fill="#9b65cf" d="M954.38 224.3c.47.53-.47 8.88-1.12 9.86-.39.57-7.11 2.7-8.93 4.5-1.45 1.43-1.19 3.81-2.82 4.57.3-9.02 2.92-17.29 12.87-18.94Z"/>
    <path fill="#c3231a" d="M-68.56 325.08c4.95 1.24 10.52.95 15.1 4.22 3.36 2.39 7.05 8.73 7.64 12.82-.07.99-13.51-2.28-14.21-2.84-.85-.68-1.73-4.71-2.58-6.13-1.57-2.61-4.19-4.84-5.94-7.32v-.76ZM-68.56 325.08v.76l-6.07-1.9c.13-2.88 5.72 1.06 6.07 1.14Z"/>
  </g>
  <g id="parts5">
    <path fill="#b3d333" d="M-237.36 174.48c6.12.63 12.15 4.14 17.36 7.26 1.59.95 9.35 5.84 9.97 6.7 1.05 1.46.97 7.91.71 9.92-.1.76.19 1.64-1.13 1.11-4.32-1.74-10.85-7.67-15.63-10.14-3.39-1.75-7.62-3.09-11.28-4.25v-10.61Z"/>
    <path fill="#ee5a3d" d="M903.61 491.03c-.63 2.33-1.28 10.72-3.02 11.75-.72.43-9.85.92-12.27 1.36-10.63 1.94-18.31 5.85-27.89 10.37 1.11-3.99.48-9.72 4-12.28s12.81-6.46 17.22-7.79c7.02-2.11 14.66-3.03 21.97-3.41Z"/>
    <path fill="#e4f744" d="M588.96 331.25c.63-.15 1.15-.17 1.69.24l15.12 13.77c.24 1.33-8.78 8.05-10.77 7.74-1.85-.29-15.12-11.46-15.62-13.28-.32-1.19.02-1.35.69-2.12.48-.56 8.35-6.22 8.88-6.35Z"/>
    <path fill="#af70db" d="m761.16 614.54-12.51 2.25c-7.05.42-9.56-.13-14.4-5.29-1.02-1.09-6.59-8.16-5.68-9.1 4.06.14 12.71-2.59 16.17-1.39 2.57.89 9.03 15.75 16.41 13.52Z"/>
    <path fill="#9b65cf" d="M232.26 372.06c-.9.96-18.94-7.09-18.94-10.99v-14.78c4.73 7.44 13.11 8 19.61 12.6.12.67-.66 1.21-.66 1.42v11.74Z"/>
    <path fill="#ca92eb" d="M96.94 82.61c-.91 1.57-2.1 1.04-3.09 3.34-1.48 3.46-1.72 13.99-3.91 16.17-1.71 1.71-11.41 2.76-14.21 3.96 1.2-3.77 1.82-16.45 3.98-18.75 1.82-1.94 13.93-3.92 17.23-4.73Z"/>
    <path fill="#c3231a" d="M788.75 59.91c1.17 1.71-8.42 10.34-8.32 13.6-2.07-1.04-13.94-6.94-14.31-8.08-.79-2.44 5.88-11.68 8.05-12.27 2.87-.78 10.98 6.28 14.58 6.75Z"/>
    <path fill="#af70db" d="M-58.71 525.12a113.7 113.7 0 0 0-8.72 8.32c-2.04 2.18-10.61 14.03-12.16 14.38l-6.79-6.81c-.62-.84-.36-1.39.01-2.23.76-1.7 8.09-10.24 9.85-12.17 3.59-3.92 6.97-6.57 11-9.84.25 2.98 4.22 6.96 6.82 8.34Z"/>
    <path fill="#af70db" d="M-58.71 525.12c-2.6-1.37-6.57-5.36-6.82-8.34 2.23-1.81 10.36-8.77 12.63-8.99.79-.08 7 5.79 7.48 6.7.66 1.25.31 1.08-.44 1.88-2.22 2.39-9.69 6.15-12.85 8.74Z"/>
  </g>
  <g id="p1">
    <path fill="#ee5a3d" d="M75.41 495.57c1.65-2.65 6.74-17.3 7.55-17.84 2.12-1.41 8.04.38 10.64.41-1.28 7.29-5.23 13.59-9.1 19.7-2.76-.77-7.66.18-9.09-2.27Z"/>
    <path fill="#c3231a" d="M88.09 492.38c-.36.57-.95 3.34-4.74 8.45-1.21 1.64-8.94 10.44-10.22 11.02-2.83 1.28-7.59.05-10.59-.37-.51-.56 3.17-4.89 3.81-5.66 2.42-2.9 7.22-7.28 9.07-10.25 1.44 2.46 9.91-3.96 12.68-3.19Z"/>
  </g>
  <g id="p2" fill="#98ba1f">
    <path d="M43.58 643.33c.36 3.49 3.91 5.59 3.79 9.09-4.59.56-9.05 1.66-13.64 2.27-1.01-3.31-4.37-5.67-4.55-9.09 4.73-.48 8.9-1.82 14.4-2.27Z"/>
    <path d="M29.19 645.6c.17 3.42 3.53 5.78 4.55 9.09-.2.03-.83.71-1.83.79-3.69.28-9.87-.82-12.57-3.43-.62-.6-6.19-8.75-4.15-8.73 4.64 1.92 8.94 2.8 14.01 2.28ZM43.58 643.33c1.99-.17 5.88-1.85 8.33-.37.9.54 5.11 7.87 4.55 8.7-2.99 1.31-6.16.41-9.09.77.12-3.51-3.43-5.6-3.79-9.09Z"/>
  </g>
  <g id="p3">
    <path fill="#f67f63" d="M-141.56 575.83c.67-.12 8.65 7.01 8.65 7.9l-.37 1.15c-6.58 3.5-15.26 17.35-21.62 19.39-2.67.86-8.62-5.01-9.86-7.63 9.3-5.23 15.19-14.14 23.21-20.81Z"/>
  </g>
  <g id="p4">
    <path fill="#e3c0f9" d="M10.24 456.93c-1.84.4-1.57-.93-2.13-1.99-1.91-3.57-3.73-7.46-5.79-10.92-.71-1.19-.9-2.32-2.68-2.24.06-2.57 6.63-6.45 8.71-8.34 1.4-1.28 1.81-4.38 3.77-2.25.63.69 7.98 14.66 7.96 15.53-.06 2.77-8.54 7.43-9.83 10.21Z"/>
    <path fill="#9b65cf" d="M-.36 441.77c1.78-.08 1.97 1.06 2.68 2.24 2.06 3.45 3.88 7.35 5.79 10.92.57 1.06.3 2.4 2.13 1.99-.46.97.66 4.82-2.61.71-1.2-1.51-8.03-14.52-8-15.87Z"/>
  </g>
  <g id="p5">
    <path fill="#e3c0f9" d="M-133.01 369.1c-3.88 2.47-7.27 5.69-11.13 8.19-1.73 1.12-9.35 5.92-10.65 6.1-2.43.35-4.96-4.89-5.57-7.1l24.33-17.42 3.02 1.14v9.09Z"/>
  </g>
  <g id="p6">
    <path fill="#af70db" d="M77.67 187.17c2.71 16.77 17.79 28 24.91 42.94.12 1.22-11.31 11.95-12.53 12.29-1.11.3-1.38.05-2.14-.67-1.52-1.45-5.84-9.92-7.79-12.67-5.72-8.09-15.58-18.64-16.72-28.83-.22-1.96 4.99-6.65 6.69-8.15 1.2-1.05 6.5-5.83 7.58-4.92Z"/>
  </g>
  <g id="p7">
    <path fill="#e4f476" d="M-.36 111.39c-12.64 2.7-25.12 4.89-38.17 3.7-1.95-.18-13.64-2.47-14.67-3.14-.56-.36-4.6-7.52-3.99-8.13 9.92 2.1 19.72 3.77 29.96 3.06 5.41-.38 17.32-4.19 21.18-3.82 2.13.2 6.13 7.84 5.69 8.33Z"/>
  </g>
  <g id="p8">
    <path fill="#f67f63" d="m-204 20.1 14.06-3.21 9.48 41.58-14.06 3.2z"/>
  </g>
  <g id="p9">
    <path fill="#f593d5" d="M784.44.14c3.43-1.01 10.69 3.72 13.45 5.96 3.11 2.52 5.36 5.99 8.06 8.61 2.19 2.13 8.47 6.47 9.83 8.38.57.8.92.86.37 1.92-.72 1.39-7.44 7.19-8.75 6.5-10.35-8.15-17.4-19.88-30.31-24.31-.13-.52 6.79-6.89 7.36-7.06Z"/>
  </g>
  <g id="p10">
    <path fill="#c3231a" d="M837.28 74.27v13.26c0 4.9-12.2 5.34-15.43 7.33-1.36.84-1.14 3.31-2.76 1.76l1.13-16.3 17.06-6.05Z"/>
  </g>
  <g id="p11">
    <path fill="#e4f744" d="m718.04 437.76-7.14 19.91-34.98-11.53 6.63-20.08 35.49 11.7z"/>
    <path fill="#e4f476" d="m725.78 440.31-7.37 19.84-7.51-2.48 7.14-19.91 7.74 2.55z"/>
    <path fill="#e4f744" d="m725.78 440.31 6.54 2.15-6.62 20.09-7.29-2.4 7.37-19.84z"/>
  </g>
  <g fill="#ca92eb" id="p12">
    <path d="M639.92 478.9c.76.32 2.03.18 3.32.83 6.11 3.08 11.87 7.77 18.63 9.81.93 1.33-3.31 6.21-4.22 7.46-1.36 1.88-7.24 9.87-8.99 9.91-1.42.03-10.9-5.5-13.03-6.67-2.39-1.32-6.17-4.64-7.83-5.43l12.12-15.91Z"/>
    <path d="m644.87 480.46-17.08 14.35c-1.7-.82-5.26-1.2-7.19-1.54-.98-.17-1.36.54-1.14-1.1l12.12-15.16c1.23-.75 4.09-.54 5.53-.22 1.88.42 7.42 3.53 7.76 3.67Z"/>
  </g>
  <g id="p13">
    <path fill="#ee5a3d" d="M920.24 560.27c-.21 6.28.02 12.66 0 18.94-1.14.11-1.14 2.17 0 2.27-.04 1 .1 2.04 0 3.03l-1.52.76c-1.5-.11-3.04.08-4.55 0l-.38-.74-.38.74c-1.31-.12-7.27.08-7.62-1.22.21-8.42-.12-16.88.05-25.3l14.4 1.52Z"/>
    <path fill="#ee5a3d" d="m920.24 560.27-14.4-1.52c.09-4.53-.47-9.16.83-13.56 3.97.77 9.56.05 13.18.68 3.04.53 1.14 2.66 1.1 4.89-.06 3.36-.63 6.79-.72 9.5Z"/>
    <path fill="#f67f63" d="M920.24 581.49c-1.14-.11-1.14-2.17 0-2.27 0 .81.05 1.15 0 2.27ZM920.24 584.52c-.05.5.04 1.02 0 1.51-.79.3-1.43-.75-1.51-.75l1.52-.76ZM914.18 585.28c-.25-.01-.51.02-.76 0l.38-.74.38.74Z"/>
  </g>
  <g id="p14">
    <path fill="#e4f476" d="m871.03 642.57 5.3 12.12c-2.03 1.12-10.38 7.72-10.38 7.72-1.25-2.94-4.46-11.1-7.8-12.27 4.39-2.64 8.47-5.14 12.88-7.58Z"/>
    <path fill="#e4f744" d="M858.15 650.15c3.34 1.17 6.56 9.33 7.8 12.27l-7.96 5.73-5.9-8.15c-5.3-7.69.69-6.63 6.06-9.85ZM871.03 642.57c.21-.12.68-1.4 1.53-1.85a45.7 45.7 0 0 1 14.66-5.03c.88 1.98 6.63 11.72 5.78 12.92-5.41 1.37-11.78 3.39-16.66 6.08l-5.3-12.12Z"/>
  </g>
</svg>
