<svg xmlns="http://www.w3.org/2000/svg" xmlns:xlink="http://www.w3.org/1999/xlink" id="Layer_1" version="1.1" viewBox="0 0 232 239">
  <defs>
    <linearGradient id="linear-gradient" x1="1522.59" x2="1530.84" y1="651.68" y2="636.8" gradientTransform="translate(1747.94 549.83) rotate(-140.47) scale(1 -1)" gradientUnits="userSpaceOnUse">
      <stop offset="0" stop-color="#b77737"/>
      <stop offset="1" stop-color="#332114"/>
    </linearGradient>
    <linearGradient xlink:href="#linear-gradient" id="linear-gradient1" x1="67.58" x2="76.56" y1="424.77" y2="408.58" gradientTransform="translate(258.43 -331.58) rotate(21.44)"/>
  </defs>
  <path fill="#965923" d="M12.45 163.69S9.53 181.85 38.43 189c15.73 3.89 49.95-.74 49.95-.74l6.36-12.83-72.67-22.15s-5.51 3.11-7.39 4.56c-2.32 1.79-2.24 5.84-2.24 5.84Z"/>
  <path fill="url(#linear-gradient)" d="M154.29 83.08c-1.71 1.44-5.46 2.42-7.67.91-2.21-1.51-9.77-15.61-2.17-38.92 7.59-23.31 34.72-49.69 47.64-44.38 12.92 5.31-18.57 34.7-27.55 54.35s-8.17 26.29-10.24 28.04Z"/>
  <path fill="#b77737" d="M85.87 188.04s16.5-.14 21.83 6.49c5.34 6.63-8.48 44.33-8.48 44.33s27.38-41.44 26.78-42.81c-.6-1.37-9.56-23.79-12.38-25.28-2.82-1.49-19.14.61-19.14.61l-8.62 16.65Z"/>
  <path fill="#63381b" d="M20.92 161.8c-1.64 1.43-2.57 4.77 2.26 9.75s21.37 2.72 21.37 2.72 1.21-13.54-8-14.47-12.66-.6-15.62 2Z"/>
  <path fill="#b77737" d="M137.78 73.64c16.52 1.5 37.97 11.13 40.92 22.87 2.95 11.74-9.26 34.17-10.25 53.06-.99 18.89-.21 29.41-.21 29.41s-6.64 25.63-25.14 41.68-43.88 18.19-43.88 18.19l14.18-39.05-7.49-19.97s-27.45 9.26-57.76.76c-11.88-3.33-18.81-19.49-22.62-21.36-3.8-1.87-12.28.14-17.41-3.81-11.03-8.49-9.77-36.73-2.5-54.29 7.27-17.56 24.71-18.65 39.43-16.65 14.72 2 48.41 7.67 59.44 5.57 11.03-2.1 24.53-17.21 33.29-16.42Z"/>
  <path fill="#965923" d="M86.69 183.59s13.27-.88 29.89-8.07c18.22-7.88 31.02-26.29 31.02-26.29s-13.19 20.84-30.88 30.5c-18.09 9.87-32.04 8.95-32.04 8.95l2-5.1Z"/>
  <path fill="url(#linear-gradient1)" d="M168.6 92.64c-.47 2.39.58 6.47 3.19 7.77 2.61 1.31 20 1.05 38.16-18.47 18.16-19.52 28.93-59.24 17.06-68.72-11.87-9.48-23.2 35.97-37.15 54.88-13.95 18.91-20.69 21.65-21.26 24.54Z"/>
  <path fill="#332114" d="M122.52 86.61c8.21 4.81-6.26 18.12-11 14.83-4.74-3.29 6.04-17.74 11-14.83ZM146.67 101.47c5.89 3.43-4.99 18.19-10.35 15.03-5.36-3.16 5.71-17.73 10.35-15.03Z"/>
  <path fill="#56280a" d="M137.82 93.09c1.8 4.66 6.47 1.83 12.09 1.72 5.62-.11 8 2.06 9.08-1.03 1.07-3.09-4.27-6.8-9.47-7.47-5.2-.67-13.25 2.74-11.7 6.78ZM130.92 86.66c-4.73.12-3.95-5-5.9-9.96-1.95-4.96-4.71-6.25-2.4-8.32 2.31-2.06 7.5 1.26 9.98 5.57 2.48 4.31 2.42 12.6-1.68 12.7Z"/>
  <path fill="#63381b" d="M76.72 133.48c-.98 2.1-6.18 4.57-12.87 6.49a80.22 80.22 0 0 1-20.05 3.12c-5.22.07-9.9-.61-13.06-2.38-3.26-1.84-6.29-5.49-8.85-9.95a62.86 62.86 0 0 1-6.69-17.52c-1.47-6.61-1.52-12.47.42-15.15 3.98-5.51 18.44 3.13 32.75 10.24 14.3 7.13 30.92 19.62 28.34 25.16Z"/>
  <path fill="#332114" d="M63.86 139.97a80.22 80.22 0 0 1-20.05 3.12c-.85-2.42-1.31-6.31 3.08-9.02 6.78-4.15 16.09-1.24 16.68 2.94.17 1.14.26 2.13.28 2.96ZM28.47 125.74c-1.06 2.81-4.1 4.27-6.56 5.01a62.86 62.86 0 0 1-6.69-17.52 5 5 0 0 1 5.72-2.13c5.23 1.26 9.42 9.65 7.53 14.63Z"/>
</svg>
